#usda 1.0
(
    defaultPrim = "DiningTable_ZZG25XBVAJ3QKPTUL4888888"
    metersPerUnit = 1
    upAxis = "Z"
)

def Xform "DiningTable_ZZG25XBVAJ3QKPTUL4888888"
{
    over "Materials" (
        prepend references = @./Materials/MI_627336a9a7755a0001f24681.usda@
    )
    {
        over "MI_627336a9a7755a0001f24681"
        {
        }
    }

    over "Geom"
    {
        over "body"
        {
            over "mesh_0000" (
                prepend apiSchemas = ["MaterialBindingAPI"]
            )
            {
                rel material:binding = </DiningTable_ZZG25XBVAJ3QKPTUL4888888/Materials/MI_627336a9a7755a0001f24681>
            }
        }
    }
}

