# Blender v2.78 (sub 0) OBJ File: ''
# www.blender.org
mtllib kitchen_oven_area.mtl
o Shape_IndexedFaceSet.011_Shape_IndexedFaceSet.022
v 0.249276 -0.575243 -0.538386
v -0.014365 -0.623175 0.539920
v 0.297222 -0.623175 0.539920
v -0.014365 -0.623175 -0.538386
v 0.297222 -0.575243 0.539920
v 0.297222 -0.623175 -0.538386
v -0.014365 -0.599209 0.539920
v -0.014365 -0.599209 -0.538386
v 0.297222 -0.575243 -0.538386
v 0.249276 -0.575243 0.539920
vn 0.0000 0.0000 1.0000
vn 0.0000 -1.0000 0.0000
vn 0.0000 0.0000 -1.0000
vn 1.0000 0.0000 0.0000
vn -1.0000 0.0000 0.0000
vn -0.0905 0.9959 0.0000
vn 0.0000 1.0000 0.0000
usemtl Shape.022
s off
f 7//1 5//1 10//1
f 3//2 2//2 4//2
f 2//1 3//1 5//1
f 3//2 4//2 6//2
f 4//3 1//3 6//3
f 5//4 3//4 6//4
f 4//5 2//5 7//5
f 2//1 5//1 7//1
f 1//3 4//3 8//3
f 4//5 7//5 8//5
f 7//6 1//6 8//6
f 1//7 5//7 9//7
f 6//3 1//3 9//3
f 5//4 6//4 9//4
f 5//7 1//7 10//7
f 1//6 7//6 10//6
o Shape_IndexedFaceSet.010_Shape_IndexedFaceSet.021
v -0.254052 0.695079 -0.538386
v -0.301984 -0.575238 0.540079
v -0.254052 -0.575238 0.540079
v -0.301984 -0.575238 -0.538492
v -0.301984 0.695079 0.539868
v -0.254052 -0.575238 -0.538492
v -0.254052 0.695079 0.539868
v -0.301984 0.695079 -0.538386
vn -1.0000 0.0000 0.0000
vn 0.0000 -1.0000 0.0000
vn 0.0000 0.0002 1.0000
vn 1.0000 -0.0000 0.0000
vn 0.0000 0.0001 -1.0000
vn 0.0000 1.0000 0.0000
usemtl Shape.021
s off
f 14//8 15//8 18//8
f 13//9 12//9 14//9
f 12//10 13//10 15//10
f 14//8 12//8 15//8
f 11//11 13//11 16//11
f 13//9 14//9 16//9
f 14//12 11//12 16//12
f 13//11 11//11 17//11
f 11//13 15//13 17//13
f 15//10 13//10 17//10
f 11//12 14//12 18//12
f 15//13 11//13 18//13
o Shape_IndexedFaceSet.009_Shape_IndexedFaceSet.020
v -0.301984 -0.167778 0.540079
v -0.014365 0.695079 0.564057
v -0.014365 0.695079 0.611977
v -0.014365 -0.167778 0.564057
v -0.301984 0.695079 0.611977
v -0.301984 -0.167778 0.611977
v -0.301984 0.695079 0.540079
v -0.014365 -0.167778 0.611977
v -0.254038 -0.167778 0.540079
v -0.254038 0.695079 0.540079
vn 0.0995 0.0000 -0.9950
vn 1.0000 0.0000 0.0000
vn 0.0000 1.0000 0.0000
vn 0.0000 0.0000 1.0000
vn 0.0000 -1.0000 0.0000
vn -1.0000 0.0000 0.0000
vn 0.0000 0.0000 -1.0000
usemtl Shape.020
s off
f 20//14 27//14 28//14
f 20//15 21//15 22//15
f 21//16 20//16 23//16
f 21//17 23//17 24//17
f 19//18 22//18 24//18
f 23//19 19//19 24//19
f 19//19 23//19 25//19
f 23//16 20//16 25//16
f 22//15 21//15 26//15
f 21//17 24//17 26//17
f 24//18 22//18 26//18
f 20//14 22//14 27//14
f 22//18 19//18 27//18
f 19//20 25//20 27//20
f 27//20 25//20 28//20
f 25//16 20//16 28//16
o Shape_IndexedFaceSet.008_Shape_IndexedFaceSet.019
v -0.014365 -0.167778 -0.562467
v 0.297222 0.695079 -0.610383
v 0.297222 0.695079 -0.538506
v 0.297222 -0.167778 -0.610383
v -0.014365 0.695079 -0.610383
v 0.297222 -0.167778 -0.538506
v -0.014365 -0.167778 -0.610383
v -0.014365 0.695079 -0.562467
v 0.249276 0.695079 -0.538506
v 0.249276 -0.167778 -0.538506
vn 0.0000 0.0000 1.0000
vn 1.0000 0.0000 0.0000
vn 0.0000 1.0000 0.0000
vn 0.0000 0.0000 -1.0000
vn 0.0000 -1.0000 0.0000
vn -1.0000 0.0000 0.0000
vn -0.0905 0.0000 0.9959
usemtl Shape.019
s off
f 34//21 37//21 38//21
f 30//22 31//22 32//22
f 31//23 30//23 33//23
f 30//24 32//24 33//24
f 32//22 31//22 34//22
f 29//25 32//25 34//25
f 32//25 29//25 35//25
f 29//26 33//26 35//26
f 33//24 32//24 35//24
f 33//26 29//26 36//26
f 31//23 33//23 36//23
f 34//21 31//21 37//21
f 36//27 29//27 37//27
f 31//23 36//23 37//23
f 29//25 34//25 38//25
f 37//27 29//27 38//27
o Shape_IndexedFaceSet.007_Shape_IndexedFaceSet.018
v -0.254038 -0.575243 -0.538492
v -0.301984 -0.623175 0.540079
v -0.014365 -0.623175 0.540079
v -0.301984 -0.575243 0.540079
v -0.301984 -0.623175 -0.538492
v -0.014365 -0.599209 -0.538492
v -0.014365 -0.599209 0.540079
v -0.014365 -0.623175 -0.538492
v -0.301984 -0.575243 -0.538492
v -0.254038 -0.575243 0.540079
vn 0.0995 0.9950 0.0000
vn 0.0000 0.0000 1.0000
vn 0.0000 -1.0000 0.0000
vn -1.0000 0.0000 0.0000
vn 0.0000 0.0000 -1.0000
vn 1.0000 0.0000 0.0000
vn 0.0000 1.0000 0.0000
usemtl Shape.018
s off
f 45//28 39//28 48//28
f 40//29 41//29 42//29
f 41//30 40//30 43//30
f 40//31 42//31 43//31
f 43//32 39//32 44//32
f 42//29 41//29 45//29
f 41//33 44//33 45//33
f 44//28 39//28 45//28
f 41//30 43//30 46//30
f 44//33 41//33 46//33
f 43//32 44//32 46//32
f 42//34 39//34 47//34
f 39//32 43//32 47//32
f 43//31 42//31 47//31
f 39//34 42//34 48//34
f 42//29 45//29 48//29
o Shape_IndexedFaceSet.006_Shape_IndexedFaceSet.017
v 0.297222 -0.167778 -0.610376
v -0.301984 -0.623175 -0.538513
v -0.301984 -0.167778 -0.538513
v -0.301984 -0.623175 -0.610376
v 0.297222 -0.623175 -0.538513
v -0.301984 -0.167778 -0.610376
v 0.297222 -0.167778 -0.538513
v 0.297222 -0.623175 -0.610376
vn 0.0000 -1.0000 0.0000
vn -1.0000 0.0000 0.0000
vn 0.0000 0.0000 1.0000
vn 0.0000 1.0000 0.0000
vn 0.0000 0.0000 -1.0000
vn 1.0000 0.0000 0.0000
usemtl Shape.017
s off
f 53//35 52//35 56//35
f 50//36 51//36 52//36
f 51//37 50//37 53//37
f 50//35 52//35 53//35
f 51//38 49//38 54//38
f 52//36 51//36 54//36
f 49//39 52//39 54//39
f 49//38 51//38 55//38
f 53//40 49//40 55//40
f 51//37 53//37 55//37
f 52//39 49//39 56//39
f 49//40 53//40 56//40
o Shape_IndexedFaceSet.005_Shape_IndexedFaceSet.016
v 0.297222 -0.167778 0.540079
v -0.301984 -0.623175 0.611977
v -0.301984 -0.167778 0.611977
v -0.301984 -0.623175 0.540079
v 0.297222 -0.623175 0.611977
v -0.301984 -0.167778 0.540079
v 0.297222 -0.167778 0.611977
v 0.297222 -0.623175 0.540079
vn 0.0000 -1.0000 0.0000
vn -1.0000 0.0000 0.0000
vn 0.0000 0.0000 1.0000
vn 0.0000 1.0000 0.0000
vn 0.0000 0.0000 -1.0000
vn 1.0000 0.0000 0.0000
usemtl Shape.016
s off
f 61//41 60//41 64//41
f 58//42 59//42 60//42
f 59//43 58//43 61//43
f 58//41 60//41 61//41
f 59//44 57//44 62//44
f 60//42 59//42 62//42
f 57//45 60//45 62//45
f 57//44 59//44 63//44
f 61//46 57//46 63//46
f 59//43 61//43 63//43
f 60//45 57//45 64//45
f 57//46 61//46 64//46
o Shape_IndexedFaceSet.004_Shape_IndexedFaceSet.015
v -0.014365 -0.167778 0.564057
v 0.297222 0.695079 0.540079
v 0.297222 0.695079 0.611977
v 0.297222 -0.167778 0.540079
v -0.014365 0.695079 0.611977
v 0.297222 -0.167778 0.611977
v -0.014365 0.695079 0.564057
v -0.014365 -0.167778 0.611977
v 0.249276 0.695079 0.540079
v 0.249276 -0.167778 0.540079
vn -0.0906 0.0000 -0.9959
vn 1.0000 0.0000 0.0000
vn 0.0000 1.0000 0.0000
vn 0.0000 -1.0000 0.0000
vn 0.0000 0.0000 1.0000
vn -1.0000 0.0000 0.0000
vn 0.0000 0.0000 -1.0000
usemtl Shape.015
s off
f 65//47 73//47 74//47
f 66//48 67//48 68//48
f 67//49 66//49 69//49
f 68//48 67//48 70//48
f 65//50 68//50 70//50
f 67//51 69//51 70//51
f 65//52 69//52 71//52
f 69//49 66//49 71//49
f 69//52 65//52 72//52
f 65//50 70//50 72//50
f 70//51 69//51 72//51
f 66//53 68//53 73//53
f 71//49 66//49 73//49
f 65//47 71//47 73//47
f 68//50 65//50 74//50
f 73//53 68//53 74//53
o Shape_IndexedFaceSet.003_Shape_IndexedFaceSet.014
v -0.301984 -0.167778 -0.538506
v -0.014365 0.695079 -0.610383
v -0.014365 0.695079 -0.562467
v -0.014365 -0.167778 -0.610383
v -0.301984 0.695079 -0.610383
v -0.301984 -0.167778 -0.610383
v -0.301984 0.695079 -0.538506
v -0.014365 -0.167778 -0.562467
v -0.254038 -0.167778 -0.538506
v -0.254038 0.695079 -0.538506
vn 0.0995 0.0000 0.9950
vn 1.0000 0.0000 0.0000
vn 0.0000 1.0000 0.0000
vn 0.0000 0.0000 -1.0000
vn 0.0000 -1.0000 0.0000
vn -1.0000 0.0000 0.0000
vn 0.0000 0.0000 1.0000
usemtl Shape.014
s off
f 83//54 77//54 84//54
f 76//55 77//55 78//55
f 77//56 76//56 79//56
f 76//57 78//57 79//57
f 78//58 75//58 80//58
f 75//59 79//59 80//59
f 79//57 78//57 80//57
f 79//59 75//59 81//59
f 77//56 79//56 81//56
f 78//55 77//55 82//55
f 75//58 78//58 82//58
f 81//60 75//60 83//60
f 75//58 82//58 83//58
f 82//54 77//54 83//54
f 77//56 81//56 84//56
f 81//60 83//60 84//60
o Shape_IndexedFaceSet.002_Shape_IndexedFaceSet.013
v 0.297208 0.695079 -0.538386
v 0.249290 -0.575238 0.539920
v 0.297208 -0.575238 0.539920
v 0.249290 0.695079 0.539920
v 0.249290 -0.575238 -0.538386
v 0.297208 -0.575238 -0.538386
v 0.297208 0.695079 0.539920
v 0.249290 0.695079 -0.538386
vn -1.0000 0.0000 0.0000
vn 0.0000 0.0000 1.0000
vn 0.0000 -1.0000 0.0000
vn 1.0000 0.0000 0.0000
vn 0.0000 0.0000 -1.0000
vn 0.0000 1.0000 0.0000
usemtl Shape.013
s off
f 89//61 88//61 92//61
f 86//62 87//62 88//62
f 87//63 86//63 89//63
f 86//61 88//61 89//61
f 85//64 87//64 90//64
f 89//65 85//65 90//65
f 87//63 89//63 90//63
f 87//64 85//64 91//64
f 88//62 87//62 91//62
f 85//66 88//66 91//66
f 88//66 85//66 92//66
f 85//65 89//65 92//65
o Shape_IndexedFaceSet.001_Shape_IndexedFaceSet.012
v 0.297222 0.766977 -0.610277
v -0.301984 0.695079 0.611864
v -0.301984 0.766977 0.611864
v -0.301984 0.695079 -0.610277
v 0.297222 0.695079 0.611864
v 0.297222 0.766977 0.611864
v -0.301984 0.766977 -0.610277
v 0.297222 0.695079 -0.610277
vn 0.0000 -1.0000 0.0000
vn -1.0000 0.0000 0.0000
vn 0.0000 0.0000 1.0000
vn 0.0000 1.0000 0.0000
vn 1.0000 0.0000 0.0000
vn 0.0000 0.0000 -1.0000
usemtl Shape.012
s off
f 97//67 96//67 100//67
f 94//68 95//68 96//68
f 95//69 94//69 97//69
f 94//67 96//67 97//67
f 93//70 95//70 98//70
f 97//71 93//71 98//71
f 95//69 97//69 98//69
f 95//70 93//70 99//70
f 96//68 95//68 99//68
f 93//72 96//72 99//72
f 96//72 93//72 100//72
f 93//71 97//71 100//71
o Shape_IndexedFaceSet_Shape_IndexedFaceSet.011
v 0.225317 -0.623203 -0.610277
v -0.301984 -0.766984 0.611864
v -0.301984 -0.623203 0.611864
v -0.301984 -0.766984 -0.610277
v 0.225317 -0.766984 0.611864
v 0.225317 -0.623203 0.611864
v -0.301984 -0.623203 -0.610277
v 0.225317 -0.766984 -0.610277
vn 0.0000 -1.0000 0.0000
vn -1.0000 0.0000 0.0000
vn 0.0000 0.0000 1.0000
vn 0.0000 1.0000 0.0000
vn 1.0000 0.0000 0.0000
vn 0.0000 0.0000 -1.0000
usemtl Shape.011
s off
f 105//73 104//73 108//73
f 102//74 103//74 104//74
f 103//75 102//75 105//75
f 102//73 104//73 105//73
f 101//76 103//76 106//76
f 105//77 101//77 106//77
f 103//75 105//75 106//75
f 103//76 101//76 107//76
f 104//74 103//74 107//74
f 101//78 104//78 107//78
f 104//78 101//78 108//78
f 101//77 105//77 108//77
