# Blender v2.78 (sub 0) OBJ File: ''
# www.blender.org
mtllib kitchen_sink.mtl
o Shape_IndexedFaceSet_Shape_IndexedFaceSet.023
v -0.303212 -0.421196 1.041196
v 0.301234 0.452065 -1.041196
v 0.301234 -0.421196 -1.041196
v -0.303212 0.452065 -1.041196
v 0.301234 0.452065 1.041196
v -0.303212 -0.421196 -1.041196
v 0.301234 -0.421196 1.041196
v -0.303212 0.452065 1.041196
vn 0.0000 1.0000 0.0000
vn 0.0000 0.0000 -1.0000
vn 1.0000 0.0000 0.0000
vn 0.0000 -1.0000 0.0000
vn -1.0000 0.0000 0.0000
vn 0.0000 0.0000 1.0000
usemtl Shape.023
s off
f 5//1 4//1 8//1
f 2//2 3//2 4//2
f 3//3 2//3 5//3
f 2//1 4//1 5//1
f 3//4 1//4 6//4
f 4//2 3//2 6//2
f 1//5 4//5 6//5
f 1//4 3//4 7//4
f 5//6 1//6 7//6
f 3//3 5//3 7//3
f 4//5 1//5 8//5
f 1//6 5//6 8//6
