# Blender v2.78 (sub 0) OBJ File: ''
# www.blender.org
mtllib kitchen_fridge.mtl
o Shape_IndexedFaceSet.009
v -0.230100 0.700079 -0.263193
v -0.301963 -0.570238 0.000336
v -0.301963 -0.570238 -0.311190
v -0.301963 0.700079 0.000336
v -0.254057 -0.570238 0.000336
v -0.230100 -0.570238 -0.311190
v -0.301963 0.700079 -0.311190
v -0.254057 0.700079 0.000336
v -0.230100 0.700079 -0.311190
v -0.230100 -0.570238 -0.263193
vn 0.0000 -1.0000 0.0000
vn -1.0000 0.0000 0.0000
vn 0.0000 0.0000 1.0000
vn 0.0000 1.0000 0.0000
vn 0.0000 0.0000 -1.0000
vn 0.9959 0.0000 0.0905
vn 1.0000 0.0000 0.0000
usemtl Shape.009
s off
f 5//1 6//1 10//1
f 3//2 2//2 4//2
f 2//1 3//1 5//1
f 4//3 2//3 5//3
f 5//1 3//1 6//1
f 3//2 4//2 7//2
f 4//4 1//4 7//4
f 6//5 3//5 7//5
f 1//4 4//4 8//4
f 5//6 1//6 8//6
f 4//3 5//3 8//3
f 1//7 6//7 9//7
f 7//4 1//4 9//4
f 6//5 7//5 9//5
f 1//6 5//6 10//6
f 6//7 1//7 10//7
o Shape_IndexedFaceSet.008
v -0.230079 -0.570238 -0.263254
v 0.225317 0.700079 -0.311190
v -0.230079 0.700079 -0.311190
v 0.225317 0.700079 -0.263254
v 0.225317 -0.570238 -0.311190
v -0.230079 0.700079 -0.263254
v -0.230079 -0.570238 -0.311190
v 0.225317 -0.570238 -0.263254
vn 1.0000 0.0000 0.0000
vn 0.0000 1.0000 0.0000
vn 0.0000 0.0000 -1.0000
vn -1.0000 0.0000 0.0000
vn 0.0000 0.0000 1.0000
vn 0.0000 -1.0000 0.0000
usemtl Shape.008
s off
f 15//8 14//8 18//8
f 12//9 13//9 14//9
f 13//10 12//10 15//10
f 12//8 14//8 15//8
f 13//11 11//11 16//11
f 14//9 13//9 16//9
f 11//12 14//12 16//12
f 11//11 13//11 17//11
f 15//13 11//13 17//13
f 13//10 15//10 17//10
f 14//12 11//12 18//12
f 11//13 15//13 18//13
o Shape_IndexedFaceSet.007
v -0.230079 -0.570238 0.311979
v 0.225317 0.700079 0.264048
v -0.230079 0.700079 0.264048
v 0.225317 0.700079 0.311979
v 0.225317 -0.570238 0.264048
v -0.230079 0.700079 0.311979
v -0.230079 -0.570238 0.264048
v 0.225317 -0.570238 0.311979
vn 1.0000 0.0000 0.0000
vn 0.0000 1.0000 0.0000
vn 0.0000 0.0000 -1.0000
vn -1.0000 0.0000 0.0000
vn 0.0000 0.0000 1.0000
vn 0.0000 -1.0000 0.0000
usemtl Shape.007
s off
f 23//14 22//14 26//14
f 20//15 21//15 22//15
f 21//16 20//16 23//16
f 20//14 22//14 23//14
f 21//17 19//17 24//17
f 22//15 21//15 24//15
f 19//18 22//18 24//18
f 19//17 21//17 25//17
f 23//19 19//19 25//19
f 21//16 23//16 25//16
f 22//18 19//18 26//18
f 19//19 23//19 26//19
o Shape_IndexedFaceSet.006
v -0.230100 0.700079 0.264038
v -0.301963 -0.570238 0.311984
v -0.301963 -0.570238 0.000397
v -0.230100 -0.570238 0.311984
v -0.301963 0.700079 0.311984
v -0.254057 0.700079 0.000397
v -0.254057 -0.570238 0.000397
v -0.301963 0.700079 0.000397
v -0.230100 0.700079 0.311984
v -0.230100 -0.570238 0.264038
vn 0.9959 0.0000 -0.0905
vn 0.0000 -1.0000 0.0000
vn -1.0000 0.0000 0.0000
vn 0.0000 0.0000 1.0000
vn 0.0000 1.0000 0.0000
vn 0.0000 0.0000 -1.0000
vn 1.0000 0.0000 0.0000
usemtl Shape.006
s off
f 33//20 27//20 36//20
f 28//21 29//21 30//21
f 29//22 28//22 31//22
f 28//23 30//23 31//23
f 31//24 27//24 32//24
f 30//21 29//21 33//21
f 29//25 32//25 33//25
f 32//20 27//20 33//20
f 29//22 31//22 34//22
f 32//25 29//25 34//25
f 31//24 32//24 34//24
f 30//26 27//26 35//26
f 27//24 31//24 35//24
f 31//23 30//23 35//23
f 27//26 30//26 36//26
f 30//21 33//21 36//21
o Shape_IndexedFaceSet.005
v -0.301984 0.700079 0.000336
v 0.225317 0.771977 -0.311190
v 0.225317 0.700079 -0.311190
v -0.301984 0.771977 -0.311190
v 0.225317 0.771977 0.000336
v -0.301984 0.700079 -0.311190
v -0.301984 0.771977 0.000336
v 0.225317 0.724057 0.000336
v 0.225317 0.700079 -0.263219
v -0.254034 0.700079 0.000336
vn 0.0000 -1.0000 0.0000
vn 0.0000 0.0000 -1.0000
vn 1.0000 0.0000 0.0000
vn 0.0000 1.0000 0.0000
vn -1.0000 0.0000 0.0000
vn 0.0000 0.0000 1.0000
vn 0.0498 -0.9947 0.0905
usemtl Shape.005
s off
f 37//27 45//27 46//27
f 38//28 39//28 40//28
f 39//29 38//29 41//29
f 38//30 40//30 41//30
f 39//27 37//27 42//27
f 40//28 39//28 42//28
f 37//31 40//31 42//31
f 40//31 37//31 43//31
f 37//32 41//32 43//32
f 41//30 40//30 43//30
f 41//32 37//32 44//32
f 39//29 41//29 44//29
f 37//27 39//27 45//27
f 39//29 44//29 45//29
f 45//33 44//33 46//33
f 44//32 37//32 46//32
o Shape_IndexedFaceSet.004
v -0.301984 -0.761984 0.000336
v 0.225317 -0.570238 -0.311190
v 0.225317 -0.761984 -0.311190
v -0.301984 -0.570238 -0.311190
v 0.225317 -0.594206 0.000336
v -0.301984 -0.570238 0.000336
v -0.301984 -0.761984 -0.311190
v 0.225317 -0.761984 0.000336
v 0.225317 -0.570238 -0.263219
v -0.254034 -0.570238 0.000336
vn 0.0497 0.9947 0.0905
vn 0.0000 0.0000 -1.0000
vn 1.0000 0.0000 0.0000
vn 0.0000 1.0000 0.0000
vn -1.0000 0.0000 0.0000
vn -0.0000 0.0000 1.0000
vn 0.0000 -1.0000 0.0000
usemtl Shape.004
s off
f 51//34 55//34 56//34
f 48//35 49//35 50//35
f 49//36 48//36 51//36
f 48//37 50//37 52//37
f 50//38 47//38 52//38
f 47//39 51//39 52//39
f 49//40 47//40 53//40
f 50//35 49//35 53//35
f 47//38 50//38 53//38
f 47//40 49//40 54//40
f 51//39 47//39 54//39
f 49//36 51//36 54//36
f 51//36 48//36 55//36
f 48//37 52//37 55//37
f 55//37 52//37 56//37
f 52//39 51//39 56//39
o Shape_IndexedFaceSet.003
v -0.301984 0.700079 0.311984
v 0.225317 0.771977 0.000397
v 0.225317 0.724057 0.000397
v -0.301984 0.771977 0.000397
v 0.225317 0.771977 0.311984
v -0.301984 0.700079 0.000397
v 0.225317 0.700079 0.311984
v -0.301984 0.771977 0.311984
v 0.225317 0.700079 0.264038
v -0.254034 0.700079 0.000397
vn 0.0000 -1.0000 -0.0000
vn 0.0000 0.0000 -1.0000
vn 1.0000 0.0000 0.0000
vn 0.0000 1.0000 0.0000
vn -1.0000 0.0000 0.0000
vn 0.0000 0.0000 1.0000
vn 0.0498 -0.9947 -0.0905
usemtl Shape.003
s off
f 65//41 62//41 66//41
f 58//42 59//42 60//42
f 59//43 58//43 61//43
f 58//44 60//44 61//44
f 60//42 59//42 62//42
f 57//45 60//45 62//45
f 61//46 57//46 63//46
f 59//43 61//43 63//43
f 57//41 62//41 63//41
f 60//45 57//45 64//45
f 57//46 61//46 64//46
f 61//44 60//44 64//44
f 59//43 63//43 65//43
f 63//41 62//41 65//41
f 62//42 59//42 66//42
f 59//47 65//47 66//47
o Shape_IndexedFaceSet.002
v -0.301984 -0.570238 0.311984
v 0.225317 -0.594206 0.000397
v 0.225317 -0.761984 0.000397
v 0.225317 -0.761984 0.311984
v -0.301984 -0.761984 0.000397
v -0.301984 -0.570238 0.000397
v 0.225317 -0.570238 0.311984
v -0.301984 -0.761984 0.311984
v 0.225317 -0.570238 0.264038
v -0.254034 -0.570238 0.000397
vn 0.0000 1.0000 0.0000
vn 1.0000 0.0000 0.0000
vn 0.0000 0.0000 -1.0000
vn 0.0000 -1.0000 0.0000
vn -1.0000 0.0000 0.0000
vn 0.0000 0.0000 1.0000
vn 0.0497 0.9947 -0.0904
usemtl Shape.002
s off
f 72//48 75//48 76//48
f 69//49 68//49 70//49
f 68//50 69//50 71//50
f 69//51 70//51 71//51
f 71//52 67//52 72//52
f 68//50 71//50 72//50
f 70//49 68//49 73//49
f 67//53 70//53 73//53
f 72//48 67//48 73//48
f 70//53 67//53 74//53
f 67//52 71//52 74//52
f 71//51 70//51 74//51
f 73//49 68//49 75//49
f 72//48 73//48 75//48
f 68//50 72//50 76//50
f 75//54 68//54 76//54
o Shape_IndexedFaceSet.001
v 0.225332 0.771848 -0.311190
v 0.249295 -0.618038 0.000336
v 0.297222 -0.618038 0.000336
v 0.297222 -0.618038 -0.311190
v 0.297222 0.771848 0.000336
v 0.225332 0.771848 0.000336
v 0.225332 -0.618038 -0.311190
v 0.297222 0.771848 -0.311190
v 0.225332 -0.618038 -0.263219
v 0.225332 0.723949 0.000336
vn -1.0000 0.0000 0.0000
vn 0.0000 -1.0000 0.0000
vn 0.0000 0.0000 1.0000
vn 1.0000 0.0000 0.0000
vn 0.0000 1.0000 0.0000
vn 0.0000 0.0000 -1.0000
vn -0.9957 -0.0178 0.0905
usemtl Shape.001
s off
f 82//55 85//55 86//55
f 79//56 78//56 80//56
f 78//57 79//57 81//57
f 79//58 80//58 81//58
f 81//59 77//59 82//59
f 78//57 81//57 82//57
f 80//56 78//56 83//56
f 77//60 80//60 83//60
f 82//55 77//55 83//55
f 80//60 77//60 84//60
f 77//59 81//59 84//59
f 81//58 80//58 84//58
f 83//56 78//56 85//56
f 82//55 83//55 85//55
f 78//57 82//57 86//57
f 85//61 78//61 86//61
o Shape_IndexedFaceSet
v 0.297222 0.771848 0.000397
v 0.225332 -0.618038 0.311984
v 0.297222 -0.618038 0.311984
v 0.225332 0.771848 0.311984
v 0.249295 -0.618038 0.000397
v 0.225332 0.771848 0.000397
v 0.297222 0.771848 0.311984
v 0.297222 -0.618038 0.000397
v 0.225332 -0.618038 0.264038
v 0.225332 0.723949 0.000397
vn -0.9957 -0.0178 -0.0905
vn 0.0000 0.0000 1.0000
vn 0.0000 -1.0000 -0.0000
vn -1.0000 0.0000 0.0000
vn 0.0000 1.0000 0.0000
vn 0.0000 0.0000 -1.0000
vn 1.0000 0.0000 0.0000
usemtl Shape
s off
f 91//62 95//62 96//62
f 88//63 89//63 90//63
f 89//64 88//64 91//64
f 88//65 90//65 92//65
f 90//66 87//66 92//66
f 87//67 91//67 92//67
f 89//68 87//68 93//68
f 90//63 89//63 93//63
f 87//66 90//66 93//66
f 87//68 89//68 94//68
f 91//67 87//67 94//67
f 89//64 91//64 94//64
f 91//64 88//64 95//64
f 88//65 92//65 95//65
f 95//65 92//65 96//65
f 92//67 91//67 96//67
