# Blender 3.3.3
# www.blender.org
mtllib table.mtl
o Shape_IndexedFaceSet
v -0.503080 0.624290 0.082110
v -0.503080 0.624290 0.932110
v 0.496920 0.624290 0.082110
v 0.496920 0.624290 0.932110
v 0.496920 0.564290 0.082110
v 0.496920 0.564290 0.872110
v -0.503080 0.564290 0.872110
v -0.503080 0.564290 0.082110
v 0.434420 0.624290 0.059610
v 0.434420 0.584290 0.059610
v 0.445670 0.624290 0.040120
v 0.437441 0.624290 0.048360
v 0.437441 0.624290 0.070860
v 0.444420 0.624290 0.059610
v 0.437441 0.584290 0.048360
v 0.456920 0.624290 0.037120
v 0.446816 0.624290 0.052260
v 0.453047 0.624290 0.047730
v 0.460793 0.624290 0.047730
v 0.468170 0.624290 0.040120
v 0.467024 0.624290 0.052260
v 0.476399 0.624290 0.070860
v 0.476399 0.584290 0.048360
v 0.476399 0.624290 0.048360
v 0.479420 0.624290 0.059610
v 0.468170 0.624290 0.079100
v 0.476399 0.584290 0.070860
v 0.456920 0.624290 0.082100
v 0.445670 0.624290 0.079100
v 0.446816 0.624290 0.066960
v 0.460793 0.624290 0.071490
v 0.453047 0.624290 0.071490
v 0.456920 0.584290 0.082100
v 0.453047 0.584290 0.071490
v 0.467024 0.624290 0.066960
v 0.460793 0.584290 0.071490
v 0.469420 0.584290 0.059610
v 0.469420 0.624290 0.059610
v 0.467024 0.584290 0.052260
v 0.460793 0.584290 0.047730
v 0.446816 0.584290 0.052260
v -0.482559 0.624290 0.070860
v -0.485580 0.624290 0.059610
v -0.485580 0.584290 0.059610
v -0.482559 0.624290 0.048360
v -0.482559 0.584290 0.048360
v -0.474330 0.624290 0.040120
v -0.473184 0.624290 0.052260
v -0.459207 0.624290 0.047730
v -0.463080 0.624290 0.037120
v -0.466953 0.624290 0.047730
v -0.443601 0.624290 0.070860
v -0.451830 0.624290 0.040120
v -0.440580 0.624290 0.059610
v -0.443601 0.624290 0.048360
v -0.451830 0.624290 0.079100
v -0.440580 0.584290 0.059610
v -0.451830 0.584290 0.079100
v -0.450580 0.624290 0.059610
v -0.443601 0.584290 0.070860
v -0.463080 0.624290 0.082100
v -0.473184 0.624290 0.066960
v -0.474330 0.624290 0.079100
v -0.463080 0.584290 0.082100
v -0.475580 0.624290 0.059610
v -0.466953 0.624290 0.071490
v -0.473184 0.584290 0.066960
v -0.459207 0.624290 0.071490
v -0.452976 0.624290 0.066960
v -0.466953 0.584290 0.071490
v -0.450580 0.584290 0.059610
v -0.452976 0.624290 0.052260
v -0.459207 0.584290 0.047730
v -0.466953 0.584290 0.047730
v 0.437441 0.584290 0.070860
v 0.445670 0.584290 0.079100
v 0.444420 0.584290 0.059610
v 0.446816 0.584290 0.066960
v 0.468170 0.584290 0.079100
v 0.467024 0.584290 0.066960
v 0.479420 0.584290 0.059610
v 0.468170 0.584290 0.040120
v 0.445670 0.584290 0.040120
v 0.456920 0.584290 0.037120
v 0.453047 0.584290 0.047730
v -0.482559 0.584290 0.070860
v -0.474330 0.584290 0.079100
v -0.475580 0.584290 0.059610
v -0.452976 0.584290 0.066960
v -0.459207 0.584290 0.071490
v -0.443601 0.584290 0.048360
v -0.451830 0.584290 0.040120
v -0.463080 0.584290 0.037120
v -0.452976 0.584290 0.052260
v -0.473184 0.584290 0.052260
v -0.474330 0.584290 0.040120
vn -0.0000 -1.0000 -0.0000
vn 0.5880 -0.0000 0.8089
vn -0.0000 -0.0000 1.0000
vn -0.5880 -0.0000 0.8089
vn -0.9508 -0.0000 -0.3099
vn -0.5880 -0.0000 -0.8089
vn -0.0000 -0.0000 -1.0000
vn 0.5880 -0.0000 -0.8089
vn 0.9508 -0.0000 0.3099
vn 0.9508 -0.0000 -0.3099
vn -0.7076 -0.0000 0.7066
vn -0.2577 -0.0000 0.9662
vn -0.0000 1.0000 -0.0000
vn 0.2577 -0.0000 0.9662
vn 0.7076 -0.0000 0.7066
vn 0.9658 -0.0000 0.2593
vn 0.9658 -0.0000 -0.2593
vn 0.7076 -0.0000 -0.7066
vn 0.2577 -0.0000 -0.9662
vn -0.2577 -0.0000 -0.9662
vn -0.7076 -0.0000 -0.7066
vn -0.9658 -0.0000 0.2593
vn 0.5880 -0.0000 0.8088
vn -0.5880 -0.0000 0.8088
vn -0.9508 -0.0000 0.3099
vn -0.5880 -0.0000 -0.8088
vn 0.5880 -0.0000 -0.8088
vn 0.9658 -0.0000 0.2594
vn 0.9658 -0.0000 -0.2594
vn -0.9658 -0.0000 0.2594
vn -0.9658 -0.0000 -0.2594
vn 1.0000 -0.0000 -0.0000
vn -1.0000 -0.0000 -0.0000
vn -0.9658 -0.0000 -0.2593
vt -0.408608 1.381988
vt -2.164735 1.780117
vt 1.578182 -1.962022
vt -0.576748 1.776004
vt 3.166168 -1.966134
vt -0.414340 -0.195238
vt -0.289351 -0.384795
vt 1.583913 -0.384795
vt 1.298637 -0.380682
vt 3.171900 -0.388908
vt -0.302247 -0.195528
vt -0.182989 1.594673
vt -0.289694 -0.290161
vt 1.292905 1.590851
vt 1.186199 -0.286339
vt 1.298637 3.168077
vt -0.689185 1.681661
vt -0.296515 1.381698
vt -0.177257 3.171900
vt -2.165079 1.685484
vt 1.931298 -2.103427
vt 1.729731 -2.025512
vt 1.931527 -2.166516
vt 1.810948 -2.112522
vt -0.416889 0.120461
vt 1.894886 -2.103521
vt 1.689122 -2.034701
vt 1.910280 -2.103482
vt 1.710878 -2.034689
vt 1.952315 -2.103372
vt 1.740601 -2.009595
vt -0.444963 1.005066
vt 1.716521 -2.014359
vt 1.910509 -2.166570
vt 1.792095 -2.103345
vt -0.437906 0.120407
vt 1.670297 -2.025501
vt -0.421171 0.499615
vt -0.458694 1.005030
vt 1.703645 -2.019884
vt -0.432811 0.499645
vt 1.689430 -2.017987
vt -0.447284 0.499683
vt 1.679197 -2.009347
vt 1.959774 -2.034577
vt -0.458924 0.120352
vt 1.659399 -2.009608
vt -0.458924 0.499713
vt -0.458694 1.005030
vt 1.676950 -1.997346
vt 2.017203 -2.034725
vt 1.689137 -1.966147
vt 1.975397 -1.971528
vt 1.740631 -2.146793
vt 1.975168 -2.034617
vt 1.659413 -1.991241
vt 1.996186 -2.034672
vt 1.670284 -1.975324
vt -0.458924 0.120570
vt 2.032597 -2.034765
vt 1.710893 -1.966134
vt 2.017432 -1.971636
vt 1.770355 -2.171887
vt -0.437906 0.120516
vt 1.729718 -1.975335
vt 1.967709 -2.103333
vt -0.416889 0.120461
vt 1.740616 -1.991228
vt -0.421171 0.499615
vt -0.431231 1.005101
vt 1.723065 -2.003489
vt -0.447284 0.499548
vt 1.710584 -1.982848
vt -0.432811 0.499585
vt 1.720818 -1.991488
vt 1.810935 -2.162699
vt -0.437677 0.183605
vt -0.432581 0.436496
vt 1.802036 -2.146546
vt -0.431231 1.004958
vt -0.458924 0.499517
vt 1.696369 -1.980952
vt 1.791802 -2.155185
vt -0.447054 0.436458
vt -0.445192 0.941905
vt 1.764712 -2.151557
vt -0.444963 1.004994
vt 1.683494 -1.986477
vt -0.458694 0.562802
vt -0.458924 0.941940
vt 1.758168 -2.140687
vt -0.447054 0.562772
vt 1.760414 -2.128687
vt -0.420941 0.562704
vt -0.458924 1.068119
vt 1.784863 -2.118150
vt 1.944150 -1.971528
vt 1.770354 -2.103320
vt 1.923133 -1.971582
vt 1.751502 -2.094142
vt 1.923362 -2.034671
vt 1.670284 -2.112522
vt 1.902115 -1.971636
vt 1.740631 -2.078226
vt 1.902345 -2.034725
vt 1.659413 -2.128438
vt -0.458924 0.246966
vt 1.886721 -1.971677
vt 1.740616 -2.059859
vt -0.421171 0.373242
vt -0.458694 0.878710
vt 1.758168 -2.072121
vt -0.447283 0.373309
vt 1.770648 -2.051481
vt -0.437906 0.246911
vt 1.751515 -2.043967
vt -0.432811 0.373272
vt 1.760415 -2.060119
vt 1.952315 -2.103293
vt 1.821819 -2.059871
vt 1.894886 -2.103144
vt -0.416889 0.246857
vt 1.770340 -2.034765
vt 1.931298 -2.103238
vt 1.810948 -2.043955
vt 1.910280 -2.103184
vt 1.792095 -2.034777
vt -0.416889 0.246857
vt 1.967709 -2.103333
vt 1.821833 -2.078239
vt 1.931527 -2.040149
vt 1.729731 -2.162709
vt -0.416659 0.183768
vt 1.967938 -2.040244
vt 1.740616 -2.128426
vt -0.444963 0.878674
vt 1.797738 -2.055108
vt 1.952544 -2.040204
vt 1.740602 -2.146794
vt -0.437906 0.246803
vt 1.810935 -2.094131
vt -0.421171 0.373242
vt -0.431231 0.878781
vt 1.777587 -2.088515
vt 1.959545 -1.971488
vt -0.458924 0.246748
vt 1.792110 -2.103333
vt 1.729718 -2.112533
vt -0.437677 0.183714
vt -0.444963 0.878745
vt 1.764712 -2.082990
vt -0.432811 0.373211
vt 1.791802 -2.086618
vt -0.420941 0.310153
vt -0.431460 0.941869
vt 1.696369 -2.118150
vt -0.447283 0.373174
vt 1.802036 -2.077979
vt -0.431231 0.878638
vt -0.458924 0.373144
vt 1.804282 -2.065978
vt -0.432582 0.310122
vt 1.710585 -2.120047
vt -0.445192 0.815585
vt 1.716521 -2.151557
vt -0.458924 0.373339
vt -0.458694 0.878710
vt 1.784863 -2.049583
vt -0.447054 0.436398
vt 1.689430 -2.155185
vt 1.679197 -2.146546
vt -0.432582 0.436361
vt 1.952544 -2.166462
vt 1.821819 -2.128439
vt 1.967938 -2.166422
vt -0.416659 0.183550
vt 1.821833 -2.146806
vt -0.445192 1.068155
vt 1.797738 -2.123675
vt -0.420941 0.436526
vt -0.431460 1.068190
vt 1.804282 -2.134545
vt -0.458694 0.183659
vt 2.032826 -1.971676
vt 1.792110 -2.171900
vt -0.431460 0.941869
vt -0.458694 0.436428
vt 1.777587 -2.157082
vt 1.996415 -1.971582
vt 1.751502 -2.162709
vt 1.960003 -1.971488
vt -0.458694 0.057264
vt 1.740616 -2.128426
vt -0.416659 0.057372
vt 1.895115 -2.166610
vt 1.770340 -2.103333
vt 1.751515 -2.112533
vt -0.437677 0.057318
vt 1.770648 -2.120047
vt -0.432581 0.562734
vt 1.944380 -2.034617
vt 1.689137 -2.103345
vt 1.959774 -2.034577
vt -0.458694 0.183659
vt 1.710893 -2.103333
vt -0.445192 0.941834
vt 1.683494 -2.123675
vt -0.431460 0.815549
vt -0.458694 0.310055
vt 1.723065 -2.140687
vt 1.720818 -2.128686
vt -0.447054 0.310085
vt 1.910509 -2.040095
vt 1.710878 -2.171887
vt 1.895115 -2.040055
vt -0.416659 0.309946
vt 1.689122 -2.171900
vt 1.670297 -2.162699
vt -0.437677 0.310000
vt -0.458694 0.436428
vt -0.458924 0.815620
vt 1.703646 -2.157082
vt -0.420941 0.436330
vt -0.458924 0.941799
vt 1.676950 -2.134545
vt -0.458694 0.310055
vt 1.886951 -2.034765
vt 1.659399 -2.146806
s 0
usemtl MA_Countertop
f 96/228/1 93/218/1 74/171/1 95/225/1
f 74/171/1 93/218/1 92/217/1 73/170/1
f 94/222/1 92/217/1 91/214/1 71/165/1
f 71/165/1 91/214/1 60/139/1 58/135/1
f 90/211/1 89/210/1 58/135/1 64/148/1
f 90/211/1 64/148/1 87/205/1 70/163/1
f 46/106/1 96/228/1 88/207/1 86/202/1
f 67/156/1 87/205/1 86/202/1 88/207/1
f 85/199/1 41/96/1 83/196/1 84/197/1
f 85/199/1 84/197/1 82/193/1 40/93/1
f 39/91/1 82/193/1 23/54/1 37/86/1
f 37/86/1 23/54/1 27/63/1 79/185/1
f 36/83/1 80/188/1 79/185/1 33/76/1
f 36/83/1 33/76/1 76/177/1 34/79/1
f 77/179/1 75/174/1 15/35/1 83/196/1
f 78/182/1 76/177/1 75/174/1 77/179/1
f 95/223/2 74/172/2 51/117/2 48/110/2
f 74/172/3 73/169/3 49/113/3 51/117/3
f 73/169/4 94/220/4 72/166/4 49/113/4
f 71/164/5 89/208/5 69/159/5 59/136/5
f 89/209/6 90/212/6 68/157/6 69/160/6
f 90/212/7 70/162/7 66/152/7 68/157/7
f 70/162/8 67/154/8 62/142/8 66/152/8
f 88/206/9 95/224/9 48/111/9 65/150/9
f 67/155/10 88/206/10 65/150/10 62/143/10
f 86/201/11 87/203/11 63/145/11 42/97/11
f 87/204/12 64/149/12 61/140/12 63/146/12
f 66/153/13 62/144/13 63/147/13 61/141/13
f 64/149/14 58/133/14 56/128/14 61/140/14
f 66/153/13 61/141/13 56/130/13 68/158/13
f 58/134/15 60/138/15 52/119/15 56/129/15
f 69/161/13 56/130/13 52/120/13 59/137/13
f 60/138/16 57/131/16 54/124/16 52/119/16
f 57/131/17 91/213/17 55/126/17 54/124/17
f 91/213/18 92/215/18 53/121/18 55/126/18
f 59/137/13 52/120/13 55/127/13 53/123/13
f 92/216/19 93/219/19 50/115/19 53/122/19
f 49/114/13 72/168/13 53/123/13 50/116/13
f 93/219/20 96/226/20 47/107/20 50/115/20
f 49/114/13 50/116/13 47/109/13 51/118/13
f 65/151/13 45/104/13 42/98/13 63/147/13
f 96/227/21 46/105/21 45/103/21 47/108/21
f 48/112/13 47/109/13 45/104/13 65/151/13
f 44/101/22 86/201/22 42/97/22 43/99/22
f 41/94/23 85/200/23 18/41/23 17/38/23
f 85/200/3 40/92/3 19/43/3 18/41/3
f 40/92/24 39/89/24 21/48/24 19/43/24
f 39/90/25 37/85/25 38/87/25 21/49/25
f 37/85/5 80/186/5 35/80/5 38/87/5
f 80/187/26 36/84/26 31/72/26 35/81/26
f 36/84/7 34/78/7 32/74/7 31/72/7
f 34/78/27 78/180/27 30/69/27 32/74/27
f 77/178/9 41/95/9 17/39/9 14/32/9
f 78/181/10 77/178/10 14/32/10 30/70/10
f 75/173/11 76/175/11 29/66/11 13/30/11
f 76/176/12 33/77/12 28/64/12 29/67/12
f 32/75/13 30/71/13 29/68/13 28/65/13
f 33/77/14 79/183/14 26/59/14 28/64/14
f 32/75/13 28/65/13 26/61/13 31/73/13
f 79/184/15 27/62/15 22/51/15 26/60/15
f 35/82/13 26/61/13 22/52/13 38/88/13
f 27/62/28 81/189/28 25/57/28 22/51/28
f 81/189/29 23/53/29 24/55/29 25/57/29
f 23/53/18 82/191/18 20/45/18 24/55/18
f 38/88/13 22/52/13 24/56/13 20/47/13
f 82/192/19 84/198/19 16/36/19 20/46/19
f 19/44/13 21/50/13 20/47/13 16/37/13
f 84/198/20 83/194/20 11/25/20 16/36/20
f 19/44/13 16/37/13 11/27/13 18/42/13
f 14/33/13 12/29/13 13/31/13 29/68/13
f 83/195/21 15/34/21 12/28/21 11/26/21
f 17/40/13 11/27/13 12/29/13 14/33/13
f 10/23/30 75/173/30 13/30/30 9/21/30
f 15/34/31 10/23/31 9/21/31 12/28/31
f 8/18/7 1/1/7 3/6/7 5/11/7
f 8/19/1 5/12/1 6/14/1 7/16/1
f 5/13/32 3/7/32 4/9/32 6/15/32
f 1/2/33 8/20/33 7/17/33 2/4/33
f 3/8/13 1/3/13 2/5/13 4/10/13
f 46/105/34 44/101/34 43/99/34 45/103/34
f 94/221/25 71/164/25 59/136/25 72/167/25
f 13/31/13 12/29/13 9/22/13
f 17/40/13 18/42/13 11/27/13
f 21/50/13 38/88/13 20/47/13
f 22/52/13 25/58/13 24/56/13
f 35/82/13 31/73/13 26/61/13
f 30/71/13 14/33/13 29/68/13
f 42/98/13 45/104/13 43/100/13
f 48/112/13 51/118/13 47/109/13
f 72/168/13 59/137/13 53/123/13
f 52/120/13 54/125/13 55/127/13
f 69/161/13 68/158/13 56/130/13
f 62/144/13 65/151/13 63/147/13
f 15/35/1 75/174/1 10/24/1
f 78/182/1 34/79/1 76/177/1
f 80/188/1 37/86/1 79/185/1
f 23/54/1 81/190/1 27/63/1
f 39/91/1 40/93/1 82/193/1
f 41/96/1 77/179/1 83/196/1
f 46/106/1 86/202/1 44/102/1
f 67/156/1 70/163/1 87/205/1
f 89/210/1 71/165/1 58/135/1
f 91/214/1 57/132/1 60/139/1
f 94/222/1 73/170/1 92/217/1
f 88/207/1 96/228/1 95/225/1
o Shape_IndexedFaceSet.001
v 0.496920 -0.565710 0.082110
v 0.496920 -0.565710 0.872110
v 0.496920 -0.625710 0.932110
v -0.503080 -0.565710 0.872110
v -0.503080 -0.625710 0.082110
v -0.503080 -0.625710 0.932110
v -0.503080 -0.565710 0.082110
v 0.496920 -0.625710 0.082110
v -0.443601 -0.625710 0.048360
v -0.440580 -0.585710 0.059610
v -0.440580 -0.625710 0.059610
v -0.443601 -0.585710 0.070860
v -0.450580 -0.625710 0.059610
v -0.451830 -0.625710 0.040120
v -0.452976 -0.625710 0.052260
v -0.459207 -0.625710 0.047730
v -0.474330 -0.625710 0.040120
v -0.466953 -0.625710 0.047730
v -0.463080 -0.625710 0.037120
v -0.475580 -0.625710 0.059610
v -0.485580 -0.625710 0.059610
v -0.482559 -0.625710 0.048360
v -0.482559 -0.585710 0.048360
v -0.485580 -0.585710 0.059610
v -0.482559 -0.625710 0.070860
v -0.482559 -0.585710 0.070860
v -0.474330 -0.625710 0.079100
v -0.473184 -0.625710 0.066960
v -0.463080 -0.625710 0.082100
v -0.474330 -0.585710 0.079100
v -0.451830 -0.625710 0.079100
v -0.443601 -0.625710 0.070860
v -0.452976 -0.585710 0.066960
v -0.452976 -0.625710 0.066960
v -0.459207 -0.625710 0.071490
v -0.459207 -0.585710 0.071490
v -0.466953 -0.625710 0.071490
v -0.473184 -0.585710 0.066960
v -0.466953 -0.585710 0.071490
v -0.473184 -0.625710 0.052260
v -0.475580 -0.585710 0.059610
v -0.466953 -0.585710 0.047730
v -0.459207 -0.585710 0.047730
v 0.479420 -0.625710 0.059610
v 0.476399 -0.625710 0.070860
v 0.476399 -0.625710 0.048360
v 0.479420 -0.585710 0.059610
v 0.467024 -0.625710 0.052260
v 0.476399 -0.585710 0.048360
v 0.468170 -0.625710 0.040120
v 0.456920 -0.625710 0.037120
v 0.445670 -0.625710 0.040120
v 0.437442 -0.625710 0.070860
v 0.456920 -0.585710 0.037120
v 0.437442 -0.625710 0.048360
v 0.434420 -0.625710 0.059610
v 0.434420 -0.585710 0.059610
v 0.445670 -0.625710 0.079100
v 0.453047 -0.625710 0.071490
v 0.456920 -0.625710 0.082100
v 0.446816 -0.625710 0.066960
v 0.468170 -0.625710 0.079100
v 0.445670 -0.585710 0.079100
v 0.456920 -0.585710 0.082100
v 0.476399 -0.585710 0.070860
v 0.469420 -0.625710 0.059610
v 0.467024 -0.585710 0.052260
v 0.467024 -0.625710 0.066960
v 0.460794 -0.625710 0.071490
v 0.467024 -0.585710 0.066960
v 0.460794 -0.585710 0.071490
v 0.444420 -0.625710 0.059610
v 0.444420 -0.585710 0.059610
v 0.446816 -0.625710 0.052260
v 0.446816 -0.585710 0.052260
v 0.453047 -0.625710 0.047730
v 0.460794 -0.585710 0.047730
v 0.460794 -0.625710 0.047730
v -0.443601 -0.585710 0.048360
v -0.451830 -0.585710 0.040120
v -0.450580 -0.585710 0.059610
v -0.451830 -0.585710 0.079100
v -0.463080 -0.585710 0.082100
v -0.474330 -0.585710 0.040120
v -0.463080 -0.585710 0.037120
v -0.473184 -0.585710 0.052260
v -0.452976 -0.585710 0.052260
v 0.468170 -0.585710 0.079100
v 0.469420 -0.585710 0.059610
v 0.453047 -0.585710 0.071490
v 0.437442 -0.585710 0.070860
v 0.446816 -0.585710 0.066960
v 0.437442 -0.585710 0.048360
v 0.445670 -0.585710 0.040120
v 0.453047 -0.585710 0.047730
v 0.468170 -0.585710 0.040120
vn -0.0000 1.0000 -0.0000
vn -0.5880 -0.0000 0.8088
vn -0.0000 -0.0000 1.0000
vn 0.5880 -0.0000 0.8088
vn 0.9508 -0.0000 0.3099
vn 0.9508 -0.0000 -0.3099
vn 0.5880 -0.0000 -0.8088
vn -0.0000 -0.0000 -1.0000
vn -0.5880 -0.0000 -0.8088
vn -0.9508 -0.0000 0.3099
vn -0.9508 -0.0000 -0.3099
vn 0.7076 -0.0000 0.7066
vn 0.2577 -0.0000 0.9662
vn -0.0000 -1.0000 -0.0000
vn -0.2577 -0.0000 0.9662
vn -0.7076 -0.0000 0.7066
vn -0.9658 -0.0000 0.2594
vn -0.9658 -0.0000 -0.2594
vn -0.7076 -0.0000 -0.7066
vn -0.2577 -0.0000 -0.9662
vn 0.2577 -0.0000 -0.9662
vn 0.9658 -0.0000 0.2594
vn 0.9658 -0.0000 -0.2594
vn -0.5880 -0.0000 0.8089
vn 0.5880 -0.0000 0.8089
vn -0.9658 -0.0000 0.2593
vn -0.9658 -0.0000 -0.2593
vn 0.7076 -0.0000 -0.7066
vn 0.9658 -0.0000 0.2593
vn 0.9658 -0.0000 -0.2593
vn -1.0000 -0.0000 -0.0000
vn 1.0000 -0.0000 -0.0000
vt 1.304368 2.777593
vt -0.296171 1.492104
vt -0.571017 -0.195528
vt 2.780262 2.773771
vt 1.179722 1.495926
vt 2.886623 -0.384795
vt 1.291472 1.590850
vt 2.774530 1.196544
vt -0.695662 -0.100605
vt -2.171900 -0.191416
vt 1.304368 1.196544
vt -0.464655 1.381988
vt -0.583913 -0.195528
vt 2.892355 1.192431
vt 1.298637 1.200367
vt -2.171556 -0.096782
vt -0.576748 1.381698
vt 1.298637 -0.380682
vt -0.296515 1.586738
vt -0.458924 -0.195238
vt 1.829063 -1.971636
vt 1.629661 -2.171887
vt 1.850310 -2.034671
vt 1.729731 -2.043955
vt 1.850080 -1.971582
vt 1.648513 -2.162709
vt 1.871327 -2.034617
vt 1.740602 -2.059871
vt -0.445192 1.131386
vt 1.635303 -2.151557
vt -0.458694 -0.069132
vt 1.813669 -1.971676
vt 1.607905 -2.171900
vt -0.458694 0.689176
vt -0.458924 1.131422
vt 1.622428 -2.157082
vt -0.447054 0.689146
vt 1.608213 -2.155185
vt 1.740616 -2.034577
vt -0.416659 -0.069024
vt 1.578182 -2.146806
vt -0.432582 0.689108
vt 1.597980 -2.146546
vt -0.437677 -0.069078
vt 1.589080 -2.162698
vt -0.444963 1.257635
vt 1.602277 -2.123675
vt 1.777028 -2.034672
vt 1.589067 -2.112522
vt 1.756011 -2.034617
vt 1.578196 -2.128438
vt 1.756240 -1.971528
vt 1.659413 -2.078226
vt 1.777257 -1.971582
vt 1.670284 -2.094142
vt 1.798046 -2.034726
vt 1.607919 -2.103345
vt 1.798275 -1.971636
vt 1.689137 -2.103320
vt -0.416659 -0.132439
vt 1.813440 -2.034765
vt 1.629676 -2.103333
vt -0.431231 1.257600
vt -0.458694 0.625989
vt 1.615152 -2.118150
vt -0.437677 -0.132385
vt 1.648500 -2.112533
vt -0.416889 -0.195528
vt 1.813669 -1.971676
vt 1.710893 -2.103333
vt 1.886492 -1.971488
vt -0.458694 -0.132331
vt 1.659399 -2.128426
vt 1.871098 -1.971527
vt 1.659384 -2.146794
vt -0.421171 0.562802
vt -0.431231 1.194440
vt 1.723065 -2.065978
vt -0.420942 0.625891
vt -0.431460 1.131351
vt 1.641847 -2.140687
vt 1.639600 -2.128686
vt -0.432582 0.625921
vt -0.432811 0.562832
vt 1.720818 -2.077979
vt -0.447054 0.625959
vt 1.629368 -2.120047
vt -0.431460 1.194511
vt -0.458924 0.562900
vt 1.696369 -2.088515
vt 1.710585 -2.086618
vt -0.447283 0.562870
vt -0.420942 0.689078
vt -0.458694 1.257671
vt 1.595733 -2.134545
vt -0.445192 1.194546
vt 1.683495 -2.082990
vt -0.432812 0.626019
vt 1.679197 -2.060119
vt 1.689430 -2.051480
vt -0.447283 0.626057
vt 1.858245 -2.103427
vt 1.589067 -2.025512
vt 1.879263 -2.103372
vt 1.607919 -2.034689
vt 1.837228 -2.103481
vt 1.578196 -2.009595
vt 1.858474 -2.166516
vt 1.589067 -2.043891
vt -0.458694 0.752362
vt -0.458924 1.068261
vt 1.595733 -2.003489
vt 1.837457 -2.166570
vt 1.578196 -2.059808
vt -0.416659 0.057154
vt 1.821833 -2.103521
vt 1.578182 -1.991228
vt -0.437677 0.057209
vt 1.589080 -1.975335
vt 1.821833 -2.103144
vt -0.458694 0.057264
vt 1.607905 -1.966134
vt 1.879263 -2.103293
vt 1.659384 -1.991241
vt 1.589080 -2.094067
vt -0.437906 -0.005880
vt 1.837228 -2.103184
vt 1.629661 -1.966147
vt 1.858245 -2.103239
vt 1.648513 -1.975324
vt 1.858474 -2.040149
vt 1.648513 -2.094078
vt -0.458694 -0.132331
vt 1.894657 -2.103333
vt 1.659399 -2.009608
vt -0.432581 0.752430
vt 1.639601 -2.009347
vt -0.437677 -0.132276
vt 1.648500 -2.025501
vt -0.431231 1.320760
vt -0.420942 0.752460
vt 1.641847 -1.997346
vt 1.894657 -2.103333
vt -0.416659 -0.132222
vt 1.629676 -2.034701
vt -0.458924 -0.069241
vt 1.894886 -2.040244
vt 1.659399 -2.059795
vt 1.648500 -2.043902
vt -0.437906 -0.069187
vt 1.879492 -2.166462
vt 1.607919 -2.034714
vt -0.445192 1.068226
vt 1.602277 -2.014359
vt -0.458924 0.689274
vt -0.458694 1.131351
vt 1.595733 -2.065913
vt -0.458694 0.752362
vt -0.431460 1.068190
vt 1.615152 -2.019884
vt -0.447054 0.752392
vt 1.629367 -2.017987
vt -0.458924 0.815452
vt -0.431231 1.131279
vt 1.615152 -2.049519
vt -0.447284 0.815482
vt 1.629367 -2.051415
vt -0.444963 1.320796
vt 1.635303 -1.986477
vt -0.445192 1.257707
vt 1.635303 -2.082926
vt -0.420942 0.752265
vt -0.458694 1.320832
vt 1.622428 -1.980952
vt -0.421171 0.689176
vt -0.458924 1.257742
vt 1.622428 -2.088451
vt -0.432581 0.752295
vt 1.608213 -1.982849
vt 1.597979 -2.077914
vt -0.447284 0.689244
vt -0.447054 0.752333
vt 1.597979 -1.991488
vt 1.829293 -2.034725
vt 1.710878 -2.034777
vt -0.458924 -0.006043
vt 1.813898 -2.034765
vt 1.689122 -2.034765
vt -0.444963 1.194475
vt 1.716521 -2.055108
vt 1.886721 -2.034577
vt -0.458924 -0.195420
vt 1.740616 -2.078239
vt 1.729718 -2.094131
vt -0.437906 -0.195474
vt 1.740846 -1.971488
vt -0.416889 -0.005935
vt 1.659399 -2.059859
vt 1.670297 -2.043967
vt -0.437906 -0.005989
vt -0.421171 0.625989
vt -0.458924 1.194582
vt 1.676950 -2.072120
vt -0.458924 0.626087
vt -0.458694 1.194511
vt 1.703646 -2.049583
vt 1.894886 -2.166422
vt -0.416889 -0.069132
vt 1.629676 -2.034701
vt -0.444963 1.131315
vt 1.602277 -2.055044
vt 1.639601 -2.060055
vt -0.432811 0.815519
vt 1.879492 -2.040204
vt 1.659384 -2.078162
vt -0.431460 1.257671
vt -0.421171 0.815549
vt 1.641847 -2.072056
vt 1.837457 -2.040095
vt 1.629661 -2.103256
vt 1.822063 -2.040055
vt -0.458924 -0.005826
vt 1.607905 -2.103269
vt -0.432811 0.689206
vt 1.608213 -2.086554
vt -0.416889 -0.005935
vt 1.822063 -2.166610
vt 1.578182 -2.078174
s 0
usemtl MA_Countertop.001
f 173/408/35 163/385/35 192/456/35 150/353/35
f 173/408/35 150/353/35 190/451/35 191/453/35
f 171/405/35 190/451/35 189/448/35 169/399/35
f 169/399/35 189/448/35 187/443/35 159/376/35
f 186/440/35 188/446/35 159/376/35 160/377/35
f 186/440/35 160/377/35 184/437/35 167/395/35
f 185/439/35 161/380/35 145/342/35 192/456/35
f 166/393/35 184/437/35 161/380/35 185/439/35
f 139/328/35 183/434/35 176/416/35 181/427/35
f 139/328/35 181/427/35 180/426/35 138/327/35
f 182/431/35 180/426/35 119/281/35 137/325/35
f 137/325/35 119/281/35 122/287/35 126/298/35
f 135/319/35 134/318/35 126/298/35 179/422/35
f 135/319/35 179/422/35 178/421/35 132/313/35
f 177/418/35 108/256/35 175/413/35 176/416/35
f 129/306/35 178/421/35 108/256/35 177/418/35
f 163/383/36 173/409/36 174/410/36 144/338/36
f 173/409/37 191/452/37 172/406/37 174/410/37
f 191/452/38 171/403/38 170/400/38 172/406/38
f 171/404/39 169/398/39 168/396/39 170/401/39
f 169/398/40 188/444/40 157/368/40 168/396/40
f 188/445/41 186/441/41 155/364/41 157/369/41
f 186/441/42 167/394/42 165/389/42 155/364/42
f 167/394/43 166/391/43 164/386/43 165/389/43
f 185/438/44 163/384/44 144/339/44 162/381/44
f 166/392/45 185/438/45 162/381/45 164/387/45
f 161/379/46 184/435/46 158/371/46 141/332/46
f 184/436/47 160/378/47 156/366/47 158/372/47
f 165/390/48 164/388/48 158/373/48 156/367/48
f 160/378/49 159/374/49 154/361/49 156/366/49
f 159/375/50 187/442/50 149/351/50 154/362/50
f 157/370/48 154/363/48 149/352/48 168/397/48
f 187/442/51 153/359/51 152/357/51 149/351/51
f 153/359/52 189/447/52 151/355/52 152/357/52
f 189/447/53 190/449/53 148/348/53 151/355/53
f 168/397/48 149/352/48 151/356/48 148/350/48
f 190/450/54 150/354/54 147/346/54 148/349/54
f 172/407/48 170/402/48 148/350/48 147/347/48
f 150/354/55 192/454/55 146/343/55 147/346/55
f 172/407/48 147/347/48 146/345/48 174/411/48
f 162/382/48 142/335/48 141/333/48 158/373/48
f 144/340/48 146/345/48 142/335/48 162/382/48
f 143/336/56 161/379/56 141/332/56 140/330/56
f 145/341/57 143/336/57 140/330/57 142/334/57
f 183/432/58 139/329/58 112/265/58 111/262/58
f 139/329/37 138/326/37 114/270/37 112/265/37
f 138/326/59 182/429/59 136/321/59 114/270/59
f 182/430/39 137/324/39 116/274/39 136/322/39
f 137/324/40 134/316/40 124/291/40 116/274/40
f 134/317/41 135/320/41 133/314/41 124/292/41
f 132/312/43 129/304/43 130/307/43 131/311/43
f 177/417/44 183/433/44 111/263/44 109/257/44
f 129/305/45 177/417/45 109/257/45 130/308/45
f 108/255/46 178/419/46 127/299/46 128/302/46
f 178/420/47 179/423/47 125/294/47 127/300/47
f 131/310/48 130/309/48 127/301/48 125/295/48
f 179/423/49 126/296/49 123/288/49 125/294/49
f 131/310/48 125/295/48 123/290/48 133/315/48
f 126/297/50 122/286/50 121/284/50 123/289/50
f 124/293/48 123/290/48 121/285/48 116/275/48
f 122/286/60 120/282/60 117/276/60 121/284/60
f 120/282/61 119/280/61 118/278/61 117/276/61
f 119/280/53 180/424/53 113/267/53 118/278/53
f 116/275/48 121/285/48 118/279/48 113/269/48
f 180/425/54 181/428/54 115/272/54 113/268/54
f 114/271/48 136/323/48 113/269/48 115/273/48
f 181/428/55 176/414/55 110/259/55 115/272/55
f 114/271/48 115/273/48 110/261/48 112/266/48
f 109/258/48 105/250/48 128/303/48 127/301/48
f 176/415/62 175/412/62 105/249/62 110/260/62
f 111/264/48 110/261/48 105/250/48 109/258/48
f 106/251/63 108/255/63 128/302/63 107/253/63
f 175/412/64 106/251/64 107/253/64 105/249/64
f 97/229/35 103/243/35 100/236/35 98/232/35
f 103/244/65 101/238/65 102/241/65 100/237/65
f 101/239/48 104/246/48 99/234/48 102/242/48
f 104/247/66 97/230/66 98/233/66 99/235/66
f 97/231/42 104/248/42 101/240/42 103/245/42
f 135/320/42 132/312/42 131/311/42 133/314/42
f 192/455/62 145/341/62 142/334/62 146/344/62
f 165/390/48 156/367/48 154/363/48 155/365/48
f 128/303/48 105/250/48 107/254/48
f 111/264/48 112/266/48 110/261/48
f 136/323/48 116/275/48 113/269/48
f 121/285/48 117/277/48 118/279/48
f 124/293/48 133/315/48 123/290/48
f 130/309/48 109/258/48 127/301/48
f 141/333/48 142/335/48 140/331/48
f 144/340/48 174/411/48 146/345/48
f 170/402/48 168/397/48 148/350/48
f 149/352/48 152/358/48 151/356/48
f 157/370/48 155/365/48 154/363/48
f 164/388/48 162/382/48 158/373/48
f 175/413/35 108/256/35 106/252/35
f 129/306/35 132/313/35 178/421/35
f 134/318/35 137/325/35 126/298/35
f 119/281/35 120/283/35 122/287/35
f 182/431/35 138/327/35 180/426/35
f 183/434/35 177/418/35 176/416/35
f 145/342/35 161/380/35 143/337/35
f 166/393/35 167/395/35 184/437/35
f 188/446/35 169/399/35 159/376/35
f 189/448/35 153/360/35 187/443/35
f 171/405/35 191/453/35 190/451/35
f 163/385/35 185/439/35 192/456/35
o Shape_IndexedFaceSet.002
v -0.503080 0.564290 0.872110
v 0.496920 0.564290 0.872110
v 0.496920 0.624290 0.932110
v -0.503080 0.624290 0.932110
v -0.503080 -0.625710 0.932110
v -0.503080 -0.565710 0.872110
v 0.496920 -0.625710 0.932110
v 0.496920 -0.565710 0.872110
vn -0.0000 -0.0000 1.0000
vn 1.0000 -0.0000 -0.0000
vn -1.0000 -0.0000 -0.0000
vn -0.0000 -0.0000 -1.0000
vt -0.689185 1.681661
vt -0.296515 -2.167060
vt 1.186199 -0.286339
vt 1.571705 -2.171900
vt -0.303680 -0.195528
vt 1.298637 -0.380682
vt -2.171900 -0.200367
vt -0.576748 1.776004
vt -2.164735 -2.171900
vt -0.583913 -0.195528
vt -0.695662 -0.100605
vt -0.290038 -0.384795
vt -0.296515 -2.167061
vt 1.291472 1.590850
vt 1.179722 1.495926
vt 1.578182 -0.389634
s 0
usemtl MA_Countertop.002
f 196/463/67 197/465/67 199/469/67 195/461/67
f 200/471/68 194/459/68 195/462/68 199/470/68
f 193/457/69 198/467/69 197/466/69 196/464/69
f 198/468/70 193/458/70 194/460/70 200/472/70
