# Blender 4.0.0
# www.blender.org
mtllib Cabinet_back.mtl
o back.001
v -0.291003 -0.299503 0.139933
v -0.291003 0.299497 0.139933
v -0.291003 0.299496 1.311933
v -0.296003 0.299496 1.311933
v -0.291003 -0.299504 1.311933
v -0.296003 -0.299504 1.311933
v -0.296003 0.299497 0.139933
v -0.296003 -0.299503 0.139933
vn 1.0000 -0.0000 -0.0000
vn -0.0000 1.0000 -0.0000
vn -0.0000 -0.0000 1.0000
vn -0.0000 -0.0000 -1.0000
vn -0.0000 -1.0000 -0.0000
vn -1.0000 -0.0000 -0.0000
s 0
usemtl o98
f 1//1 2//1 3//1
f 4//2 3//2 2//2
f 5//1 1//1 3//1
f 6//3 5//3 3//3
f 6//3 3//3 4//3
f 7//4 2//4 1//4
f 7//2 4//2 2//2
f 8//5 1//5 5//5
f 7//4 1//4 8//4
f 8//5 5//5 6//5
f 7//6 6//6 4//6
f 7//6 8//6 6//6
