# Blender 4.0.0
# www.blender.org
mtllib Cover_front.mtl
o front
v 0.270996 0.321154 0.113934
v 0.270997 -0.323602 0.000934
v 0.270997 -0.323602 0.113934
v 0.271290 -0.323750 0.000934
v 0.271398 -0.323602 0.114734
v 0.271497 -0.323706 0.000227
v 0.271997 -0.323750 0.000235
v 0.271290 -0.323706 0.114434
v 0.271298 -0.323750 0.113934
v 0.270996 0.321154 0.000934
v 0.271397 0.321154 0.000134
v 0.271197 -0.323602 0.000335
v 0.271397 0.321321 0.113934
v 0.271297 0.321303 0.000934
v 0.271289 0.321259 0.000434
v 0.295704 -0.323706 0.000434
v 0.295696 -0.323750 0.000934
v 0.294997 -0.323750 0.000227
v 0.271297 0.321154 0.114649
v 0.271289 0.321258 0.114434
v 0.271996 0.321302 0.114641
v 0.295997 -0.323602 0.113934
v 0.295996 0.321154 0.000934
v 0.295996 0.321154 0.113934
v 0.295703 0.321302 0.000934
v 0.295703 0.321154 0.114641
v 0.295496 0.321302 0.114434
v 0.295796 0.321279 0.113934
v 0.295997 -0.323602 0.000934
v 0.295596 -0.323602 0.000134
v 0.295796 0.321154 0.000335
v 0.295496 0.321259 0.000227
v 0.295704 -0.323750 0.113934
v 0.294996 0.321300 0.114649
v 0.295797 -0.323602 0.114533
v 0.295497 -0.323706 0.114641
v 0.294997 -0.323602 -0.000066
v 0.271996 0.321154 -0.000066
v 0.294996 0.321154 -0.000066
v 0.271996 0.321302 0.000227
v 0.294996 0.321303 0.000235
v 0.271997 -0.323602 -0.000066
v 0.271996 0.321363 0.113934
v 0.294996 0.321363 0.113934
v 0.294996 0.321363 0.000934
v 0.271996 0.321363 0.000934
v 0.271997 -0.323810 0.113934
v 0.271997 -0.323750 0.114641
v 0.294997 -0.323750 0.114633
v 0.271997 -0.323602 0.114934
v 0.294997 -0.323602 0.114934
v 0.294996 0.321154 0.114934
v 0.271996 0.321154 0.114934
v 0.271997 -0.323810 0.000934
v 0.294997 -0.323810 0.000934
v 0.294997 -0.323810 0.113934
vn -1.0000 -0.0000 -0.0000
vn -0.4514 -0.8923 -0.0000
vn -0.8941 -0.0000 0.4479
vn -0.0856 -0.9926 -0.0866
vn -0.8401 -0.3425 0.4207
vn -0.4418 -0.8971 -0.0000
vn -0.4406 -0.8948 0.0714
vn -0.8940 -0.0000 -0.4481
vn -0.9485 0.0002 -0.3167
vn -0.3651 -0.9230 -0.1219
vn -0.4437 -0.8770 -0.1843
vn -0.3845 0.9231 -0.0000
vn -0.4443 0.8959 0.0003
vn -0.4431 0.8935 -0.0732
vn 0.0866 -0.9926 -0.0856
vn -0.8402 0.3413 -0.4213
vn -0.9216 -0.0001 0.3881
vn -0.7451 0.5885 0.3138
vn -0.1814 0.8818 0.4354
vn -0.3843 0.9226 0.0326
vn 1.0000 -0.0000 -0.0000
vn 0.4499 0.8931 -0.0000
vn 0.9238 -0.0000 0.3828
vn 0.4426 0.8778 0.1834
vn 0.5303 0.8478 -0.0003
vn 0.5106 0.8164 0.2697
vn 0.8940 -0.0000 -0.4481
vn 0.9485 -0.0002 -0.3167
vn 0.3651 0.9230 -0.1219
vn 0.4423 0.8780 -0.1832
vn 0.4514 -0.8923 -0.0000
vn 0.4418 -0.8971 -0.0000
vn 0.4406 -0.8948 -0.0714
vn 0.1861 0.8785 0.4399
vn 0.8403 -0.3413 -0.4211
vn 0.9486 0.0001 0.3165
vn 0.3649 -0.9230 0.1217
vn 0.4437 -0.8770 0.1843
vn -0.0000 -0.0000 -1.0000
vn -0.0000 0.8930 -0.4500
vn 0.4481 -0.0000 -0.8940
vn 0.0001 0.8959 -0.4443
vn 0.0732 0.8934 -0.4432
vn 0.0878 0.9924 -0.0863
vn 0.4211 0.3410 -0.8405
vn -0.4481 -0.0000 -0.8940
vn -0.1832 0.8779 -0.4424
vn -0.3167 -0.0002 -0.9485
vn -0.1219 0.9231 -0.3649
vn -0.0000 -0.8923 -0.4514
vn -0.0002 -0.8971 -0.4418
vn -0.0714 -0.8948 -0.4407
vn -0.0864 0.9924 -0.0877
vn -0.4213 -0.3411 -0.8403
vn 0.1843 -0.8770 -0.4437
vn 0.3167 0.0002 -0.9485
vn 0.1219 -0.9230 -0.3650
vn -0.0000 1.0000 -0.0000
vn 0.1041 0.9946 -0.0000
vn -0.0000 0.9964 -0.0847
vn 0.0859 0.9927 -0.0845
vn 0.0862 0.9963 0.0001
vn -0.0000 0.9963 0.0861
vn -0.0860 -0.9927 0.0851
vn 0.1040 0.9944 0.0176
vn -0.0000 0.9962 0.0876
vn 0.0343 0.9956 0.0875
vn -0.0848 0.9964 -0.0000
vn -0.0858 0.9926 0.0858
vn -0.0695 0.9976 -0.0001
vn -0.0691 0.9916 0.1094
vn -0.0000 0.9963 -0.0862
vn -0.0845 0.9927 -0.0859
vn -0.0000 -0.9964 0.0853
vn -0.0000 -0.0000 1.0000
vn 0.4478 -0.0000 0.8942
vn -0.0000 0.8902 0.4556
vn 0.3827 -0.0001 0.9239
vn 0.1855 0.8748 0.4476
vn -0.0000 -0.8923 0.4515
vn -0.0850 -0.9927 -0.0860
vn 0.4208 -0.3423 0.8401
vn 0.0001 -0.8969 0.4423
vn 0.0717 -0.8946 0.4411
vn -0.3778 -0.0000 0.9259
vn -0.3160 0.0001 0.9488
vn -0.1214 -0.9233 0.3643
vn -0.1844 -0.8769 0.4438
vn -0.1806 0.8783 0.4426
vn -0.0866 -0.9926 0.0856
vn -0.0001 0.8929 0.4502
vn -0.0000 -1.0000 -0.0000
vn 0.0863 -0.9963 -0.0000
vn -0.0000 -0.9963 0.0863
vn 0.0850 -0.9927 0.0860
vn 0.0857 -0.9925 0.0866
vn 0.0853 -0.9964 -0.0000
vn -0.0000 -0.9963 -0.0863
vn 0.0860 -0.9927 -0.0851
vn -0.0853 -0.9964 -0.0000
vn -0.0000 -0.9964 -0.0854
vn -0.0863 -0.9963 -0.0000
s 0
usemtl o87
f 1//1 2//1 3//1
f 4//2 3//2 2//2
f 5//3 1//3 3//3
f 6//4 7//4 4//4
f 8//5 5//5 3//5
f 9//6 3//6 4//6
f 8//7 3//7 9//7
f 1//1 10//1 2//1
f 11//8 2//8 10//8
f 11//9 12//9 2//9
f 6//10 2//10 12//10
f 6//11 4//11 2//11
f 13//12 10//12 1//12
f 13//13 14//13 10//13
f 15//14 10//14 14//14
f 16//15 17//15 18//15
f 15//16 11//16 10//16
f 5//17 19//17 1//17
f 20//18 1//18 19//18
f 20//19 19//19 21//19
f 20//20 13//20 1//20
f 22//21 23//21 24//21
f 25//22 24//22 23//22
f 26//23 22//23 24//23
f 27//24 26//24 24//24
f 28//25 24//25 25//25
f 27//26 24//26 28//26
f 22//21 29//21 23//21
f 30//27 23//27 29//27
f 31//28 23//28 30//28
f 32//29 23//29 31//29
f 32//30 25//30 23//30
f 33//31 29//31 22//31
f 33//32 17//32 29//32
f 16//33 29//33 17//33
f 27//34 34//34 26//34
f 16//35 30//35 29//35
f 35//36 22//36 26//36
f 36//37 22//37 35//37
f 36//38 33//38 22//38
f 37//39 38//39 39//39
f 40//40 39//40 38//40
f 31//41 37//41 39//41
f 41//42 39//42 40//42
f 32//43 39//43 41//43
f 32//44 41//44 25//44
f 32//45 31//45 39//45
f 37//39 42//39 38//39
f 12//46 38//46 42//46
f 15//47 40//47 38//47
f 11//48 38//48 12//48
f 15//49 38//49 11//49
f 18//50 42//50 37//50
f 18//51 7//51 42//51
f 6//52 42//52 7//52
f 15//53 14//53 40//53
f 6//54 12//54 42//54
f 16//55 18//55 37//55
f 31//56 30//56 37//56
f 16//57 37//57 30//57
f 43//58 44//58 45//58
f 28//59 45//59 44//59
f 46//58 43//58 45//58
f 41//60 46//60 45//60
f 25//61 41//61 45//61
f 28//62 25//62 45//62
f 21//63 44//63 43//63
f 9//64 47//64 48//64
f 27//65 28//65 44//65
f 21//66 34//66 44//66
f 27//67 44//67 34//67
f 14//68 43//68 46//68
f 20//69 21//69 43//69
f 13//70 43//70 14//70
f 20//71 43//71 13//71
f 41//72 40//72 46//72
f 14//73 46//73 40//73
f 49//74 48//74 47//74
f 50//75 51//75 52//75
f 35//76 52//76 51//76
f 53//75 50//75 52//75
f 34//77 53//77 52//77
f 35//78 26//78 52//78
f 34//79 52//79 26//79
f 48//80 51//80 50//80
f 4//81 7//81 54//81
f 36//82 35//82 51//82
f 49//83 51//83 48//83
f 36//84 51//84 49//84
f 19//85 50//85 53//85
f 5//86 50//86 19//86
f 8//87 50//87 5//87
f 8//88 48//88 50//88
f 21//89 19//89 53//89
f 8//90 9//90 48//90
f 21//91 53//91 34//91
f 54//92 55//92 56//92
f 17//93 56//93 55//93
f 47//92 54//92 56//92
f 49//94 47//94 56//94
f 33//95 49//95 56//95
f 36//96 49//96 33//96
f 33//97 56//97 17//97
f 7//98 55//98 54//98
f 18//99 17//99 55//99
f 9//100 4//100 54//100
f 18//101 55//101 7//101
f 9//102 54//102 47//102
