# Blender 4.0.0
# www.blender.org
mtllib Dishwasher_door.mtl
o door.001
v 0.271997 -0.297503 1.308733
v 0.271997 0.297497 1.308734
v 0.271997 0.297497 0.534736
v 0.286997 0.297497 0.534736
v 0.271997 -0.297503 0.534735
v 0.286997 -0.297503 0.534735
v 0.286997 0.297497 1.308734
v 0.286997 -0.297503 1.308733
v 0.289997 -0.294503 0.537735
v 0.289997 0.294497 1.305734
v 0.289997 -0.294503 1.305733
v 0.289698 0.295807 1.307044
v 0.289698 -0.295813 1.307043
v 0.289997 0.294497 0.537735
v 0.289698 0.295807 0.536430
v 0.289698 -0.295813 0.536428
v 0.288728 0.296947 1.308184
v 0.288728 0.296947 0.535285
v 0.288728 -0.296953 1.308183
v 0.288728 -0.296953 0.535285
vn -1.0000 -0.0000 -0.0000
vn -0.0000 1.0000 -0.0000
vn -0.0000 -0.0000 -1.0000
vn -0.0000 -0.0000 1.0000
vn -0.0000 -1.0000 -0.0000
vn 1.0000 -0.0000 -0.0000
vn 0.9749 -0.0000 0.2225
vn 0.9749 -0.2225 -0.0000
vn 0.9749 0.2225 -0.0000
vn 0.9748 -0.0000 -0.2230
vn 0.9747 -0.0000 -0.2233
vn 0.3028 0.9530 -0.0000
vn 0.3028 -0.0000 -0.9530
vn 0.3028 -0.0000 0.9530
vn 0.3028 -0.9530 -0.0000
vn 0.3028 -0.0000 -0.9531
vn 0.7616 -0.6481 -0.0000
vn 0.7616 -0.0000 0.6480
vn 0.7625 -0.0000 -0.6470
vn 0.7630 -0.0000 -0.6464
vn 0.7616 0.6481 -0.0000
s 0
usemtl o117
f 1//1 2//1 3//1
f 4//2 3//2 2//2
f 5//1 1//1 3//1
f 6//3 5//3 3//3
f 6//3 3//3 4//3
f 7//4 2//4 1//4
f 7//2 4//2 2//2
f 8//5 1//5 5//5
f 8//4 7//4 1//4
f 6//5 8//5 5//5
f 9//6 10//6 11//6
f 12//7 11//7 10//7
f 13//8 9//8 11//8
f 12//7 13//7 11//7
f 9//6 14//6 10//6
f 15//9 10//9 14//9
f 12//9 10//9 15//9
f 16//10 14//10 9//10
f 15//11 14//11 16//11
f 16//8 9//8 13//8
f 17//12 4//12 7//12
f 18//13 6//13 4//13
f 17//12 18//12 4//12
f 19//14 7//14 8//14
f 17//14 7//14 19//14
f 20//15 8//15 6//15
f 20//15 19//15 8//15
f 18//16 20//16 6//16
f 16//17 13//17 19//17
f 17//18 19//18 13//18
f 20//17 16//17 19//17
f 17//18 13//18 12//18
f 15//19 16//19 20//19
f 18//20 15//20 20//20
f 12//21 15//21 18//21
f 17//21 12//21 18//21
