# Blender 4.0.0
# www.blender.org
mtllib Dishwasher_lower_basket_structure.mtl
o structure
v 0.243939 -0.042097 0.753390
v 0.243939 -0.042097 0.813342
v 0.243939 -0.037818 0.753390
v 0.243939 -0.037818 0.813342
v 0.248939 -0.042097 0.753390
v 0.248939 -0.042097 0.813342
v 0.248939 -0.037818 0.753390
v 0.248939 -0.037818 0.813342
v 0.243939 0.034194 0.753390
v 0.243939 0.034194 0.815236
v 0.243939 0.039541 0.753390
v 0.243939 0.039541 0.815236
v 0.248939 0.034194 0.753390
v 0.248939 0.034194 0.815236
v 0.248939 0.039541 0.753390
v 0.248939 0.039541 0.815236
v 0.248939 0.034194 0.810795
v 0.248939 -0.042097 0.810795
v 0.243939 0.034194 0.810795
v 0.243939 -0.042097 0.810795
v 0.248939 0.034194 0.815236
v 0.248939 -0.042097 0.815236
v 0.243939 0.034194 0.815236
v 0.243939 -0.042097 0.815236
vn -1.0000 -0.0000 -0.0000
vn -0.0000 1.0000 -0.0000
vn 1.0000 -0.0000 -0.0000
vn -0.0000 -1.0000 -0.0000
vn -0.0000 -0.0000 -1.0000
vn -0.0000 -0.0000 1.0000
vt 0.375000 0.000000
vt 0.625000 0.000000
vt 0.625000 0.250000
vt 0.375000 0.250000
vt 0.625000 0.500000
vt 0.375000 0.500000
vt 0.625000 0.750000
vt 0.375000 0.750000
vt 0.625000 1.000000
vt 0.375000 1.000000
vt 0.125000 0.500000
vt 0.125000 0.750000
vt 0.875000 0.500000
vt 0.875000 0.750000
s 0
f 1/1/1 2/2/1 4/3/1 3/4/1
f 3/4/2 4/3/2 8/5/2 7/6/2
f 7/6/3 8/5/3 6/7/3 5/8/3
f 5/8/4 6/7/4 2/9/4 1/10/4
f 3/11/5 7/6/5 5/8/5 1/12/5
f 8/5/6 4/13/6 2/14/6 6/7/6
f 9/1/1 10/2/1 12/3/1 11/4/1
f 11/4/2 12/3/2 16/5/2 15/6/2
f 15/6/3 16/5/3 14/7/3 13/8/3
f 13/8/4 14/7/4 10/9/4 9/10/4
f 11/11/5 15/6/5 13/8/5 9/12/5
f 16/5/6 12/13/6 10/14/6 14/7/6
f 17/1/5 18/2/5 20/3/5 19/4/5
f 19/4/1 20/3/1 24/5/1 23/6/1
f 23/6/6 24/5/6 22/7/6 21/8/6
f 21/8/3 22/7/3 18/9/3 17/10/3
f 19/11/2 23/6/2 21/8/2 17/12/2
f 24/5/4 20/13/4 18/14/4 22/7/4
