# Blender 4.0.0
# www.blender.org
mtllib Dishwasher_handle.mtl
o handle
v 0.325997 -0.094504 1.243233
v 0.289997 -0.094504 1.253733
v 0.289997 -0.094504 1.239733
v 0.289997 -0.073504 1.253733
v 0.289997 -0.073504 1.239733
v 0.325997 -0.094504 1.250233
v 0.318997 -0.073504 1.250913
v 0.328261 -0.094504 1.244373
v 0.328261 -0.094504 1.249103
v 0.325997 0.098496 1.250233
v 0.329173 -0.094504 1.246733
v 0.328261 0.098496 1.249103
v 0.329173 0.098496 1.246733
v 0.328261 0.098496 1.244373
v 0.325997 0.098496 1.243233
v 0.318997 0.077496 1.242553
v 0.318997 -0.073504 1.242553
v 0.289997 0.098496 1.239733
v 0.289997 0.098496 1.253733
v 0.289997 0.077496 1.239733
v 0.289997 0.077496 1.253733
v 0.318997 0.077496 1.250913
v 0.317997 -0.073504 1.246733
v 0.317997 0.077496 1.246733
vn -0.0000 -1.0000 -0.0000
vn -1.0000 -0.0000 -0.0000
vn 0.0968 -0.0000 -0.9953
vn 0.0968 -0.0000 0.9953
vn 0.4466 -0.0000 0.8947
vn 0.0967 -0.0000 0.9953
vn 0.9333 -0.0000 0.3592
vn 0.9328 -0.0000 -0.3605
vn 0.4497 -0.0000 -0.8932
vn 0.0967 -0.0000 -0.9953
vn -0.0000 1.0000 -0.0000
vn -0.9726 -0.0000 0.2327
vn -0.9726 -0.0000 -0.2327
s 0
usemtl o42
f 1//1 2//1 3//1
f 4//2 3//2 2//2
f 5//3 1//3 3//3
f 4//2 5//2 3//2
f 1//1 6//1 2//1
f 7//4 2//4 6//4
f 7//4 4//4 2//4
f 8//1 9//1 6//1
f 10//5 6//5 9//5
f 1//1 8//1 6//1
f 7//6 6//6 10//6
f 8//1 11//1 9//1
f 12//7 9//7 11//7
f 10//5 9//5 12//5
f 13//8 11//8 8//8
f 12//7 11//7 13//7
f 14//9 8//9 1//9
f 13//8 8//8 14//8
f 14//9 1//9 15//9
f 16//10 15//10 1//10
f 17//3 1//3 5//3
f 17//10 16//10 1//10
f 10//11 15//11 18//11
f 16//3 18//3 15//3
f 19//11 10//11 18//11
f 20//2 19//2 18//2
f 16//3 20//3 18//3
f 12//11 14//11 15//11
f 10//11 12//11 15//11
f 12//11 13//11 14//11
f 21//4 10//4 19//4
f 22//4 10//4 21//4
f 22//6 7//6 10//6
f 21//2 19//2 20//2
f 7//11 5//11 4//11
f 23//11 5//11 7//11
f 23//11 17//11 5//11
f 16//1 21//1 20//1
f 24//1 22//1 21//1
f 24//1 21//1 16//1
f 24//12 7//12 22//12
f 24//12 23//12 7//12
f 23//13 16//13 17//13
f 24//13 16//13 23//13
