# Blender 4.0.0
# www.blender.org
mtllib Dishwasher_lower_basket_Basket.mtl
o Basket.002
v 0.248939 -0.278929 0.753390
v 0.248939 0.276373 0.753390
v -0.254419 -0.278929 0.753390
v -0.254419 0.276373 0.753390
v 0.248940 -0.278929 0.637141
v 0.243939 -0.274274 0.649642
v 0.248939 0.276373 0.637141
v 0.243939 0.271718 0.649642
v -0.254419 -0.278929 0.637141
v -0.249419 -0.274274 0.649641
v -0.254419 0.276373 0.637141
v -0.249419 0.271718 0.649641
v -0.249419 0.271718 0.753390
v 0.243939 0.271718 0.753390
v 0.243939 -0.274274 0.753390
v -0.249419 -0.274274 0.753390
vn -0.0000 -0.0000 1.0000
vn -1.0000 -0.0000 -0.0000
vn -0.0000 -0.0000 -1.0000
vn 1.0000 -0.0000 -0.0000
vn -0.0000 -1.0000 -0.0000
vn -0.0000 1.0000 -0.0000
vt 0.375000 0.000000
vt 0.625000 0.000000
vt 0.625000 0.250000
vt 0.375000 0.250000
vt 0.377096 0.247517
vt 0.622904 0.247517
vt 0.622904 0.002483
vt 0.377096 0.002483
vt 0.625000 0.500000
vt 0.375000 0.500000
vt 0.625000 0.750000
vt 0.375000 0.750000
vt 0.625000 1.000000
vt 0.375000 1.000000
vt 0.125000 0.500000
vt 0.125000 0.750000
vt 0.875000 0.500000
vt 0.875000 0.750000
vt 0.625000 0.266855
vt 0.375000 0.266855
vt 0.375000 0.983145
vt 0.625000 0.983145
vt 0.141855 0.750000
vt 0.141855 0.500000
vt 0.858145 0.500000
vt 0.858145 0.750000
s 0
f 1/1/1 2/2/1 4/3/1 3/4/1 16/5/1 13/6/1 14/7/1 15/8/1
f 3/4/1 1/1/1 15/8/1 16/5/1
f 3/4/2 4/3/2 11/9/2 9/10/2
f 9/10/3 11/9/3 7/11/3 5/12/3
f 5/12/4 7/11/4 2/13/4 1/14/4
f 3/15/5 9/10/5 5/12/5 1/16/5
f 11/9/6 4/17/6 2/18/6 7/11/6
f 10/10/4 12/9/4 13/19/4 16/20/4
f 10/10/1 6/12/1 8/11/1 12/9/1
f 8/11/2 6/12/2 15/21/2 14/22/2
f 15/23/6 6/12/6 10/10/6 16/24/6
f 13/25/5 12/9/5 8/11/5 14/26/5
