# Blender 4.0.0
# www.blender.org
mtllib Drawer_interior.mtl
o interior
v 0.274997 0.265647 0.331403
v 0.274997 0.265647 0.338463
v 0.274997 0.264497 0.334933
v -0.099003 0.264497 0.334933
v -0.099003 0.265307 0.331928
v 0.274997 0.268647 0.329228
v 0.274997 0.268647 0.340638
v -0.113003 0.265647 0.338463
v -0.113003 0.264497 0.334933
v 0.274997 0.272347 0.329228
v 0.274997 0.272347 0.340638
v -0.113003 0.268647 0.340638
v 0.274997 0.275347 0.331403
v 0.274997 0.275347 0.338463
v -0.113003 0.272347 0.340638
v 0.274997 0.276497 0.334933
v -0.113003 0.275347 0.338463
v -0.113003 0.276497 0.334933
v -0.113003 0.273497 0.329737
v -0.113003 0.275687 0.331928
v -0.099003 0.270497 0.328933
v -0.099003 0.267497 0.329737
v 0.274997 -0.274353 0.331403
v 0.274997 -0.274353 0.338463
v 0.274997 -0.275503 0.334933
v -0.113003 -0.275503 0.334933
v -0.113003 -0.274693 0.331928
v 0.274997 -0.271353 0.329228
v 0.274997 -0.271353 0.340638
v -0.113003 -0.274353 0.338463
v 0.274997 -0.267653 0.329228
v 0.274997 -0.267653 0.340638
v -0.113003 -0.271353 0.340638
v 0.274997 -0.264653 0.331403
v 0.274997 -0.264653 0.338463
v -0.113003 -0.267653 0.340638
v 0.274997 -0.263503 0.334933
v -0.113003 -0.264653 0.338463
v -0.099003 -0.263503 0.334933
v -0.099003 -0.266503 0.329737
v -0.099003 -0.264313 0.331928
v -0.099003 -0.269503 0.328933
v -0.113003 -0.272503 0.329737
v -0.113003 -0.269503 0.328933
v 0.274997 0.261497 0.252933
v 0.274997 0.276497 0.168933
v 0.274997 0.276497 0.252933
v -0.113003 0.276497 0.168933
v -0.113003 0.276497 0.252933
v 0.274997 -0.249503 0.182933
v 0.274997 -0.275503 0.168933
v 0.274997 0.250497 0.182933
v 0.274997 -0.275503 0.252933
v -0.113003 -0.275503 0.252933
v -0.113003 -0.275503 0.168933
v 0.274997 -0.260503 0.252933
v -0.099003 -0.260503 0.252933
v -0.113003 -0.269503 0.252933
v -0.099003 -0.269503 0.252933
v -0.099003 -0.249503 0.182933
v -0.099003 0.261497 0.252933
v -0.099003 0.250497 0.182933
v -0.099003 0.270497 0.252933
v -0.113003 -0.263503 0.334933
v -0.113003 0.270497 0.328933
v -0.113003 0.270497 0.252933
vn 1.0000 -0.0000 -0.0000
vn -0.0000 -0.9508 0.3098
vn 0.0004 -0.9508 -0.3098
vn -0.0000 -0.9655 -0.2603
vn -0.0000 -0.5870 0.8096
vn -0.0000 -0.9509 0.3096
vn -0.0000 -0.0000 1.0000
vn -0.0000 0.5870 0.8096
vn -0.0000 0.9508 0.3098
vn -0.0000 0.9508 -0.3098
vn 0.0007 0.5870 -0.8096
vn -0.0003 0.7073 -0.7069
vn 0.0005 0.9655 -0.2603
vn 0.0008 -0.0000 -1.0000
vn -0.0005 0.2567 -0.9665
vn 0.0007 -0.5870 -0.8096
vn -0.0005 -0.2589 -0.9659
vn -0.0003 -0.7073 -0.7069
vn -0.0000 -0.9508 0.3097
vn 0.0004 -0.9508 -0.3097
vn -0.0000 0.9508 0.3097
vn -0.0000 0.9508 -0.3097
vn -0.0004 0.7073 -0.7069
vn -0.0005 0.2589 -0.9659
vn -0.0000 -0.1574 -0.9875
vn -0.0000 1.0000 -0.0000
vn -0.0000 -0.0000 -1.0000
vn -0.0000 -1.0000 -0.0000
vn -0.0000 0.9879 0.1552
vn -0.0000 -0.9879 0.1552
vn -1.0000 -0.0000 -0.0000
vn -1.0000 0.0002 -0.0000
vn -0.0000 0.2589 -0.9659
s 0
usemtl o55
f 1//1 2//1 3//1
f 4//2 3//2 2//2
f 5//3 1//3 3//3
f 5//4 3//4 4//4
f 6//1 7//1 2//1
f 8//5 2//5 7//5
f 1//1 6//1 2//1
f 8//2 9//2 2//2
f 4//6 2//6 9//6
f 10//1 11//1 7//1
f 12//7 7//7 11//7
f 6//1 10//1 7//1
f 8//5 7//5 12//5
f 13//1 14//1 11//1
f 15//8 11//8 14//8
f 10//1 13//1 11//1
f 12//7 11//7 15//7
f 13//1 16//1 14//1
f 17//9 14//9 16//9
f 15//8 14//8 17//8
f 18//10 16//10 13//10
f 17//9 16//9 18//9
f 19//11 13//11 10//11
f 20//12 13//12 19//12
f 18//13 13//13 20//13
f 21//14 10//14 6//14
f 21//15 19//15 10//15
f 22//16 6//16 1//16
f 22//17 21//17 6//17
f 5//18 22//18 1//18
f 23//1 24//1 25//1
f 26//19 25//19 24//19
f 27//20 23//20 25//20
f 27//4 25//4 26//4
f 28//1 29//1 24//1
f 30//5 24//5 29//5
f 23//1 28//1 24//1
f 26//19 24//19 30//19
f 31//1 32//1 29//1
f 33//7 29//7 32//7
f 28//1 31//1 29//1
f 30//5 29//5 33//5
f 34//1 35//1 32//1
f 36//8 32//8 35//8
f 31//1 34//1 32//1
f 33//7 32//7 36//7
f 34//1 37//1 35//1
f 38//21 35//21 37//21
f 36//8 35//8 38//8
f 39//22 37//22 34//22
f 39//21 38//21 37//21
f 40//11 34//11 31//11
f 41//13 39//13 34//13
f 40//23 41//23 34//23
f 42//14 31//14 28//14
f 42//24 40//24 31//24
f 43//16 28//16 23//16
f 44//17 28//17 43//17
f 42//25 28//25 44//25
f 43//18 23//18 27//18
f 45//1 46//1 47//1
f 48//26 47//26 46//26
f 49//7 45//7 47//7
f 49//26 47//26 48//26
f 50//1 51//1 46//1
f 48//27 46//27 51//27
f 52//1 50//1 46//1
f 45//1 52//1 46//1
f 50//1 53//1 51//1
f 54//28 51//28 53//28
f 55//28 51//28 54//28
f 48//27 51//27 55//27
f 50//1 56//1 53//1
f 57//7 53//7 56//7
f 54//7 53//7 58//7
f 59//7 58//7 53//7
f 59//7 53//7 57//7
f 60//29 56//29 50//29
f 60//29 57//29 56//29
f 60//7 50//7 52//7
f 61//30 52//30 45//30
f 62//7 60//7 52//7
f 61//30 62//30 52//30
f 63//7 45//7 49//7
f 63//7 61//7 45//7
f 55//31 64//31 9//31
f 4//7 9//7 64//7
f 65//31 55//31 9//31
f 12//31 65//31 9//31
f 8//31 12//31 9//31
f 58//31 38//31 64//31
f 39//21 64//21 38//21
f 55//32 58//32 64//32
f 39//7 4//7 64//7
f 58//31 36//31 38//31
f 44//31 33//31 36//31
f 58//31 44//31 36//31
f 43//31 30//31 33//31
f 44//31 43//31 33//31
f 27//31 26//31 30//31
f 43//31 27//31 30//31
f 42//28 44//28 58//28
f 55//31 54//31 58//31
f 59//28 42//28 58//28
f 49//31 48//31 55//31
f 66//31 49//31 55//31
f 65//31 66//31 55//31
f 63//7 49//7 66//7
f 63//26 66//26 65//26
f 15//31 19//31 65//31
f 21//33 65//33 19//33
f 12//31 15//31 65//31
f 63//26 65//26 21//26
f 17//31 20//31 19//31
f 15//31 17//31 19//31
f 17//31 18//31 20//31
f 63//1 5//1 4//1
f 61//1 4//1 39//1
f 63//1 4//1 61//1
f 63//1 21//1 22//1
f 63//1 22//1 5//1
f 57//1 39//1 41//1
f 60//1 39//1 57//1
f 62//1 39//1 60//1
f 61//1 39//1 62//1
f 57//1 41//1 40//1
f 57//1 40//1 42//1
f 59//1 57//1 42//1
