# Blender 4.0.0
# www.blender.org
mtllib Drawer_handle.mtl
o handle.001
v 0.328997 -0.096503 0.462433
v 0.292997 -0.096503 0.472933
v 0.292997 -0.096503 0.458933
v 0.292997 -0.075503 0.472933
v 0.292997 -0.075503 0.458933
v 0.328997 -0.096503 0.469433
v 0.321997 -0.075503 0.470114
v 0.331261 -0.096503 0.463570
v 0.331261 -0.096503 0.468296
v 0.328997 0.096497 0.469433
v 0.332173 -0.096503 0.465933
v 0.331261 0.096497 0.468296
v 0.332173 0.096497 0.465933
v 0.331261 0.096497 0.463570
v 0.328997 0.096497 0.462433
v 0.321997 0.075497 0.461752
v 0.321997 -0.075503 0.461752
v 0.292997 0.096497 0.458933
v 0.292997 0.096497 0.472933
v 0.292997 0.075497 0.458933
v 0.292997 0.075497 0.472933
v 0.321997 0.075497 0.470114
v 0.320997 -0.075503 0.465933
v 0.320997 0.075497 0.465933
vn -0.0000 -1.0000 -0.0000
vn -1.0000 -0.0000 -0.0000
vn 0.0968 -0.0000 -0.9953
vn 0.0968 -0.0000 0.9953
vn 0.4488 -0.0000 0.8936
vn 0.9329 -0.0000 0.3601
vn 0.9329 -0.0000 -0.3601
vn 0.4488 -0.0000 -0.8936
vn -0.0000 1.0000 -0.0000
vn -0.9726 -0.0000 0.2326
vn -0.9726 -0.0000 -0.2326
s 0
usemtl o47
f 1//1 2//1 3//1
f 4//2 3//2 2//2
f 5//3 1//3 3//3
f 4//2 5//2 3//2
f 1//1 6//1 2//1
f 7//4 2//4 6//4
f 7//4 4//4 2//4
f 8//1 9//1 6//1
f 10//5 6//5 9//5
f 1//1 8//1 6//1
f 7//4 6//4 10//4
f 8//1 11//1 9//1
f 12//6 9//6 11//6
f 10//5 9//5 12//5
f 13//7 11//7 8//7
f 12//6 11//6 13//6
f 14//8 8//8 1//8
f 13//7 8//7 14//7
f 14//8 1//8 15//8
f 16//3 15//3 1//3
f 17//3 1//3 5//3
f 17//3 16//3 1//3
f 10//9 15//9 18//9
f 16//3 18//3 15//3
f 19//9 10//9 18//9
f 20//2 19//2 18//2
f 16//3 20//3 18//3
f 12//9 14//9 15//9
f 10//9 12//9 15//9
f 12//9 13//9 14//9
f 21//4 10//4 19//4
f 22//4 10//4 21//4
f 22//4 7//4 10//4
f 21//2 19//2 20//2
f 7//9 5//9 4//9
f 23//9 5//9 7//9
f 23//9 17//9 5//9
f 16//1 21//1 20//1
f 24//1 22//1 21//1
f 24//1 21//1 16//1
f 24//10 7//10 22//10
f 24//10 23//10 7//10
f 23//11 16//11 17//11
f 24//11 16//11 23//11
