# Blender v2.78 (sub 0) OBJ File: ''
# www.blender.org
mtllib Rack_side.mtl
o Shape_IndexedFaceSet.001_Shape_IndexedFaceSet.133
v 0.314127 0.547104 -28.420593
v -3.831518 -0.028682 -4.578394
v -3.831518 0.547104 -4.578394
v 4.230905 -0.028682 -4.578394
v -0.778909 -0.028682 -28.016846
v 4.230905 0.547104 -4.578394
v 1.005462 -0.028682 -27.727455
v -0.894132 0.547104 -27.783466
v 1.063074 0.547104 -27.382050
v -1.182188 -0.028682 -25.596684
v -3.716295 0.547104 -5.847986
v 0.314127 -0.028682 -28.420593
v -3.831518 -0.028682 -4.926131
v 4.230905 -0.028682 -4.695085
v -0.375630 0.547104 -28.362251
v 0.890240 0.547104 -28.016846
v 4.230905 0.547104 -4.695085
v 1.120685 -0.028682 -26.978302
v -0.202796 -0.028682 -28.420593
v -0.894132 -0.028682 -27.783466
v 0.659795 -0.028682 -28.245560
v -1.182188 0.547104 -25.596684
v -3.716295 -0.028682 -5.847986
v -0.778909 0.547104 -28.016846
v -0.490853 -0.028682 -28.303905
v 0.486961 0.547104 -28.362251
v 0.890240 -0.028682 -28.016846
v -3.831518 0.547104 -4.926131
v -0.202796 0.547104 -28.420593
v 1.120685 0.547104 -26.978302
v 1.005462 0.547104 -27.727455
v -0.951743 -0.028682 -27.382050
v -2.564070 -0.028682 -14.830820
v -0.490853 0.547104 -28.303905
v 0.659795 0.547104 -28.245560
v -0.951743 0.547104 -27.382050
v 0.486961 -0.028682 -28.362251
v -2.564070 0.547104 -14.830820
v 0.947851 -0.028682 -27.900154
vn 0.9289 0.0180 -0.3699
vn 0.0000 0.0000 1.0000
vn 0.0000 -1.0000 0.0000
vn 0.0000 1.0000 0.0000
vn -1.0000 0.0000 0.0000
vn 1.0000 0.0000 0.0000
vn 0.9904 0.0000 -0.1382
vn 0.9883 -0.0077 -0.1520
vn 0.0000 0.0000 -1.0000
vn -0.8967 0.0000 -0.4427
vn -0.9923 0.0000 -0.1240
vn -0.3754 -0.0188 -0.9267
vn -0.7059 0.0000 -0.7083
vn 0.3198 0.0000 -0.9475
vn 0.7044 0.0000 -0.7098
vn -0.3198 0.0000 -0.9475
vn 0.9900 0.0000 -0.1413
vn 0.9864 0.0000 -0.1645
vn -0.9899 0.0000 -0.1421
vn -0.9918 0.0000 -0.1280
vn -0.9919 0.0000 -0.1273
vn -0.9919 0.0000 -0.1272
vn -0.4517 0.0000 -0.8922
vn 0.5596 0.0000 -0.8288
vn 0.8967 0.0000 -0.4427
vn 0.9486 0.0000 -0.3164
usemtl Shape.133
s off
f 16//1 31//1 39//1
f 3//2 2//2 4//2
f 4//3 2//3 5//3
f 1//4 3//4 6//4
f 3//2 4//2 6//2
f 4//3 5//3 7//3
f 3//4 1//4 8//4
f 1//4 6//4 9//4
f 5//3 2//3 10//3
f 3//4 8//4 11//4
f 7//3 5//3 12//3
f 2//5 3//5 13//5
f 10//3 2//3 13//3
f 6//6 4//6 14//6
f 4//3 7//3 14//3
f 8//4 1//4 15//4
f 1//4 9//4 16//4
f 9//4 6//4 17//4
f 6//6 14//6 17//6
f 17//7 14//7 18//7
f 7//8 9//8 18//8
f 14//3 7//3 18//3
f 1//9 12//9 19//9
f 12//3 5//3 19//3
f 8//10 5//10 20//10
f 5//3 10//3 20//3
f 7//3 12//3 21//3
f 11//4 8//4 22//4
f 10//3 13//3 23//3
f 13//11 11//11 23//11
f 5//10 8//10 24//10
f 8//4 15//4 24//4
f 19//3 5//3 25//3
f 15//12 19//12 25//12
f 5//13 24//13 25//13
f 12//14 1//14 26//14
f 1//4 16//4 26//4
f 7//3 21//3 27//3
f 21//15 16//15 27//15
f 3//4 11//4 28//4
f 13//5 3//5 28//5
f 11//11 13//11 28//11
f 15//4 1//4 29//4
f 1//9 19//9 29//9
f 19//16 15//16 29//16
f 9//4 17//4 30//4
f 17//7 18//7 30//7
f 18//17 9//17 30//17
f 9//18 7//18 31//18
f 16//4 9//4 31//4
f 8//19 20//19 32//19
f 20//3 10//3 32//3
f 10//20 22//20 32//20
f 22//21 10//21 33//21
f 10//3 23//3 33//3
f 23//22 11//22 33//22
f 24//4 15//4 34//4
f 15//23 25//23 34//23
f 25//13 24//13 34//13
f 16//15 21//15 35//15
f 26//4 16//4 35//4
f 21//24 26//24 35//24
f 22//4 8//4 36//4
f 8//19 32//19 36//19
f 32//20 22//20 36//20
f 21//3 12//3 37//3
f 12//14 26//14 37//14
f 26//24 21//24 37//24
f 11//4 22//4 38//4
f 22//21 33//21 38//21
f 33//22 11//22 38//22
f 7//3 27//3 39//3
f 27//25 16//25 39//25
f 31//26 7//26 39//26
o Shape_IndexedFaceSet_Shape_IndexedFaceSet.132
v 13.961313 -0.028682 -0.432104
v 4.286253 0.547104 -4.578394
v 4.286253 -0.028682 -4.578394
v -7.919008 0.547104 0.028344
v 13.905326 0.547104 0.028344
v -7.919008 -0.028682 0.028344
v -3.829772 0.547104 -4.578394
v -3.829772 -0.028682 -4.578394
v 12.062047 0.547104 -2.677522
v 12.062047 -0.028682 -2.677522
v 13.905326 -0.028682 0.028344
v -7.688599 0.547104 -1.353903
v -7.227779 -0.028682 -1.814802
v 13.502647 0.547104 -1.468451
v 13.328225 -0.028682 -1.698901
v -7.977149 -0.028682 -0.778004
v 11.717509 0.547104 -2.792973
v 12.811418 0.547104 -2.217525
v -8.033136 0.547104 -0.547554
v -7.227779 0.547104 -1.814802
v 13.905326 0.547104 -0.662554
v 11.717509 -0.028682 -2.792973
v 13.733057 -0.028682 -1.065728
v 12.811418 -0.028682 -2.217525
v -8.033136 -0.028682 -0.087106
v -7.688599 -0.028682 -1.353903
v 13.961313 0.547104 -0.028930
v -7.860868 0.547104 -1.066179
v -8.033136 0.547104 -0.087106
v 13.328225 0.547104 -1.698901
v -8.033136 -0.028682 -0.547554
v 12.464726 -0.028682 -2.447073
v 13.733057 0.547104 -1.065728
v 13.961313 -0.028682 -0.028930
v 13.961313 0.547104 -0.432104
v -7.804880 -0.028682 -1.181178
v 13.502647 -0.028682 -1.468451
v 13.905326 -0.028682 -0.662554
v 12.464726 0.547104 -2.447073
v -7.977149 0.547104 -0.778004
v 13.674916 0.547104 -1.180727
v 12.176176 -0.028682 -2.619797
v 13.789044 0.547104 -0.950729
v -7.804880 0.547104 -1.181178
vn -0.8991 0.0000 -0.4377
vn 0.0000 1.0000 0.0000
vn 0.0000 -1.0000 0.0000
vn 0.0000 0.0000 1.0000
vn 0.0000 0.0000 -1.0000
vn -0.6310 0.0000 -0.7758
vn 0.2336 0.0000 -0.9723
vn 0.3177 0.0000 -0.9482
vn -0.7072 0.0000 -0.7070
vn 0.7083 0.0000 -0.7059
vn -0.7112 0.0000 0.7030
vn 0.7151 0.0000 0.6990
vn -1.0000 0.0000 0.0000
vn 0.7974 0.0000 -0.6035
vn -0.9717 0.0000 -0.2361
vn 0.5521 0.0000 -0.8338
vn 1.0000 0.0000 0.0000
vn 0.9717 0.0000 -0.2361
vn -0.8295 0.0000 -0.5585
vn -0.9195 -0.0109 -0.3929
vn -0.9274 0.0000 -0.3742
vn 0.8924 0.0000 -0.4512
vn 0.8580 0.0000 -0.5137
vn 0.8679 -0.0115 -0.4966
vn 0.4513 0.0000 -0.8924
vn 0.4967 0.0114 -0.8679
vn 0.5136 0.0000 -0.8580
vn 0.8991 0.0000 -0.4377
vn 0.9274 0.0000 -0.3742
vn 0.9195 -0.0109 -0.3929
usemtl Shape.132
s off
f 75//27 67//27 83//27
f 41//28 43//28 44//28
f 42//29 40//29 45//29
f 44//30 43//30 45//30
f 41//31 42//31 46//31
f 43//28 41//28 46//28
f 42//29 45//29 47//29
f 46//31 42//31 47//31
f 41//28 44//28 48//28
f 40//29 42//29 49//29
f 45//29 40//29 50//29
f 44//30 45//30 50//30
f 43//28 46//28 51//28
f 47//29 45//29 52//29
f 46//32 47//32 52//32
f 48//28 44//28 53//28
f 40//29 49//29 54//29
f 52//29 45//29 55//29
f 42//33 41//33 56//33
f 41//28 48//28 56//28
f 48//34 49//34 56//34
f 48//28 53//28 57//28
f 43//28 51//28 58//28
f 51//28 46//28 59//28
f 46//32 52//32 59//32
f 52//35 51//35 59//35
f 53//28 44//28 60//28
f 49//29 42//29 61//29
f 42//33 56//33 61//33
f 56//34 49//34 61//34
f 40//29 54//29 62//29
f 54//29 49//29 63//29
f 57//36 54//36 63//36
f 45//37 43//37 64//37
f 55//29 45//29 64//29
f 51//35 52//35 65//35
f 52//29 55//29 65//29
f 44//38 50//38 66//38
f 60//28 44//28 66//28
f 58//28 51//28 67//28
f 43//28 58//28 68//28
f 64//37 43//37 68//37
f 58//39 64//39 68//39
f 53//40 54//40 69//40
f 57//28 53//28 69//28
f 54//36 57//36 69//36
f 58//41 55//41 70//41
f 55//29 64//29 70//29
f 64//39 58//39 70//39
f 63//29 49//29 71//29
f 57//42 63//42 71//42
f 53//28 60//28 72//28
f 50//29 40//29 73//29
f 40//43 66//43 73//43
f 66//38 50//38 73//38
f 40//44 60//44 74//44
f 66//43 40//43 74//43
f 60//28 66//28 74//28
f 51//45 65//45 75//45
f 65//29 55//29 75//29
f 55//46 67//46 75//46
f 54//40 53//40 76//40
f 62//29 54//29 76//29
f 60//44 40//44 77//44
f 40//29 62//29 77//29
f 48//28 57//28 78//28
f 57//42 71//42 78//42
f 55//41 58//41 79//41
f 58//28 67//28 79//28
f 67//47 55//47 79//47
f 53//28 72//28 80//28
f 72//48 62//48 80//48
f 76//49 53//49 80//49
f 62//50 76//50 80//50
f 49//51 48//51 81//51
f 71//29 49//29 81//29
f 48//52 78//52 81//52
f 78//53 71//53 81//53
f 72//28 60//28 82//28
f 62//54 72//54 82//54
f 60//55 77//55 82//55
f 77//56 62//56 82//56
f 67//28 51//28 83//28
f 51//45 75//45 83//45
