# Blender v2.78 (sub 0) OBJ File: ''
# www.blender.org
mtllib Spatula.mtl
o Shape_IndexedFaceSet.002_Shape_IndexedFaceSet.137
v 1.039007 -0.274390 -0.129944
v -1.117309 -0.274390 -0.321446
v -1.117309 0.252664 -0.321446
v 1.086911 0.348499 -6.023961
v -1.021285 -0.418186 -6.023961
v -0.973382 0.444420 -6.023961
v 0.943200 0.444420 -0.273570
v 1.039007 -0.418186 -6.023961
v -0.877574 -0.418186 -0.177819
v -0.925478 0.444420 -0.273570
v 1.039007 -0.418186 -0.369322
v 0.991103 0.444420 -6.023961
v -1.117309 0.300624 -6.023961
v -0.829455 0.204788 0.014274
v 1.087127 0.300624 -0.225695
v 1.086911 -0.370226 -6.023961
v -1.117309 -0.274390 -6.023961
v 0.799488 -0.226430 0.014274
v 0.799488 0.300624 -0.034192
v 1.087127 -0.370226 -0.369322
v -0.781767 -0.226430 0.014274
v -1.021285 -0.418186 -0.273570
v -1.069189 0.348499 -0.225695
v 0.895296 -0.418186 -0.177819
v 1.039007 0.396459 -0.273570
v 0.847392 0.204788 0.014274
v -0.877574 0.348499 -0.082068
v -1.021285 -0.322266 -0.129944
v -1.069189 -0.370226 -0.273570
v -0.973382 0.444420 -0.321446
v 1.087127 0.348499 -0.273570
v -1.117309 0.300624 -0.369322
v -1.069189 -0.370226 -6.023961
v 0.991103 0.444420 -0.369322
v 0.895296 0.348499 -0.082068
v -1.069189 0.300624 -0.177819
v -0.877574 -0.130594 0.014274
v 0.943200 0.204788 -0.034192
v 1.087127 -0.322266 -0.225695
v 0.943200 -0.226430 -0.034192
v -0.829455 0.300624 -0.034192
v -0.925478 0.252664 -0.034192
vn -0.2199 0.4402 0.8705
vn 0.0000 0.0000 -1.0000
vn 0.0000 -1.0000 0.0000
vn 0.0000 1.0000 -0.0000
vn -1.0000 0.0000 0.0000
vn 0.7059 -0.7083 0.0000
vn 1.0000 0.0000 -0.0000
vn 0.7075 -0.7067 -0.0000
vn 0.0000 -0.7077 0.7065
vn 0.0000 0.0000 1.0000
vn 0.0000 0.4513 0.8924
vn 0.0000 0.8941 0.4478
vn -0.3660 0.7922 0.4884
vn -0.1859 -0.6475 0.7391
vn -0.3470 -0.7799 0.5209
vn -0.8937 -0.4487 0.0000
vn -0.7075 -0.7067 0.0000
vn -0.8883 -0.2554 0.3816
vn -0.6398 -0.6391 0.4268
vn -0.7068 0.7074 0.0000
vn -0.4085 0.8161 0.4088
vn 0.7075 0.7067 -0.0000
vn -0.7070 0.7072 0.0011
vn 0.4368 0.8726 0.2185
vn 0.7067 0.7075 0.0000
vn 0.7059 0.7083 0.0016
vn 0.3906 0.7802 0.4885
vn 0.1668 0.5101 0.8438
vn 0.0000 0.7071 0.7071
vn 0.5767 0.5777 0.5777
vn 0.5764 0.5783 0.5774
vn -0.9482 0.0000 0.3177
vn -0.4683 0.6248 0.6248
vn -0.8969 -0.0351 0.4409
vn -0.9424 0.2364 0.2368
vn -0.9423 0.2368 0.2368
vn -0.3675 -0.3674 0.8544
vn -0.7082 -0.0002 0.7060
vn 0.7902 0.0357 0.6118
vn 0.4120 0.4086 0.8144
vn 0.6080 0.4259 0.6701
vn 0.8935 0.0000 0.4490
vn 0.6870 -0.6893 0.2302
vn 0.4765 -0.6669 0.5729
vn 0.4877 -0.7926 0.3660
vn 0.3834 -0.6131 0.6907
vn 0.2508 -0.6197 0.7437
vn 0.3194 -0.0355 0.9470
vn 0.7069 0.0000 0.7073
vn 0.4514 0.0000 0.8923
vn -0.2668 0.5341 0.8022
vn -0.4766 0.5718 0.6678
vn -0.4253 0.0610 0.9030
vn -0.7067 0.0011 0.7075
usemtl Shape.137
s off
f 14//1 41//1 42//1
f 4//2 5//2 6//2
f 5//2 4//2 8//2
f 5//3 8//3 9//3
f 7//4 6//4 10//4
f 9//3 8//3 11//3
f 4//2 6//2 12//2
f 6//4 7//4 12//4
f 2//5 3//5 13//5
f 6//2 5//2 13//2
f 8//2 4//2 16//2
f 2//5 13//5 17//5
f 13//2 5//2 17//2
f 11//6 8//6 20//6
f 16//7 4//7 20//7
f 8//8 16//8 20//8
f 9//9 18//9 21//9
f 18//10 14//10 21//10
f 5//3 9//3 22//3
f 9//3 11//3 24//3
f 18//9 9//9 24//9
f 14//10 18//10 26//10
f 19//11 14//11 26//11
f 7//12 10//12 27//12
f 10//13 23//13 27//13
f 9//14 21//14 28//14
f 22//15 9//15 28//15
f 2//16 17//16 29//16
f 5//17 22//17 29//17
f 28//18 2//18 29//18
f 22//19 28//19 29//19
f 10//4 6//4 30//4
f 6//20 13//20 30//20
f 23//21 10//21 30//21
f 4//22 12//22 31//22
f 20//7 4//7 31//7
f 15//7 20//7 31//7
f 13//5 3//5 32//5
f 30//20 13//20 32//20
f 23//23 30//23 32//23
f 17//2 5//2 33//2
f 29//16 17//16 33//16
f 5//17 29//17 33//17
f 12//4 7//4 34//4
f 7//24 25//24 34//24
f 31//25 12//25 34//25
f 25//26 31//26 34//26
f 25//27 7//27 35//27
f 19//28 26//28 35//28
f 7//12 27//12 35//12
f 27//29 19//29 35//29
f 15//30 31//30 35//30
f 31//31 25//31 35//31
f 3//32 2//32 36//32
f 27//33 23//33 36//33
f 2//34 28//34 36//34
f 32//35 3//35 36//35
f 23//36 32//36 36//36
f 21//10 14//10 37//10
f 28//37 21//37 37//37
f 36//38 28//38 37//38
f 1//39 15//39 38//39
f 35//40 26//40 38//40
f 15//41 35//41 38//41
f 15//42 1//42 39//42
f 11//43 20//43 39//43
f 20//7 15//7 39//7
f 1//44 24//44 39//44
f 24//45 11//45 39//45
f 24//46 1//46 40//46
f 18//47 24//47 40//47
f 26//48 18//48 40//48
f 1//49 38//49 40//49
f 38//50 26//50 40//50
f 14//11 19//11 41//11
f 19//29 27//29 41//29
f 41//51 27//51 42//51
f 27//52 36//52 42//52
f 37//53 14//53 42//53
f 36//54 37//54 42//54
o Shape_IndexedFaceSet.001_Shape_IndexedFaceSet.136
v 0.799385 0.300652 7.440902
v -1.021266 0.013187 7.538107
v -1.021266 0.108957 7.538107
v -0.829567 -0.178559 0.015010
v 0.799385 -0.226496 7.538107
v 0.799385 0.204779 0.015010
v -0.781691 0.204779 0.015010
v 0.799385 -0.226496 0.015010
v -0.781691 -0.226496 7.538107
v -0.877640 0.300652 7.538107
v 0.991085 0.108957 7.538107
v -0.781691 -0.226496 0.015010
v 0.847458 -0.130622 0.015010
v 0.991085 0.013187 7.488769
v -0.829567 0.156791 0.015010
v 0.847458 0.300652 7.538107
v 0.847458 0.108957 0.015010
v -0.925515 0.252715 7.488769
v 0.895333 0.252715 7.488769
v -0.829567 0.300652 7.440902
v -1.021266 0.108957 7.488769
vn -0.8322 0.5543 -0.0178
vn 0.0000 0.0000 1.0000
vn 0.0000 0.9999 -0.0129
vn 0.0000 0.0000 -1.0000
vn 0.0000 -1.0000 0.0000
vn -0.7076 -0.7067 -0.0000
vn -0.7073 -0.7069 0.0000
vn 0.7809 -0.6246 0.0000
vn 0.6254 -0.3574 0.6937
vn 0.8939 -0.4482 -0.0086
vn 0.0261 0.9996 -0.0129
vn 0.0000 1.0000 0.0000
vn 0.8937 0.4484 -0.0171
vn 0.9998 0.0098 -0.0191
vn 0.9998 0.0000 -0.0192
vn -0.7856 0.5886 0.1904
vn -0.6981 0.7158 -0.0180
vn -0.7078 0.7062 -0.0182
vn 0.8344 0.5509 -0.0142
vn 0.7005 0.7135 -0.0136
vn 0.7856 0.5886 0.1904
vn -0.0264 0.9996 -0.0131
vn -1.0000 0.0000 0.0000
vn -0.9996 -0.0130 -0.0251
vn -0.9997 0.0000 -0.0256
vn -0.8323 0.5543 0.0000
usemtl Shape.136
s off
f 60//55 57//55 63//55
f 45//56 44//56 47//56
f 43//57 48//57 49//57
f 48//58 46//58 49//58
f 46//58 48//58 50//58
f 47//56 44//56 51//56
f 50//59 47//59 51//59
f 45//56 47//56 52//56
f 52//56 47//56 53//56
f 44//60 46//60 54//60
f 46//58 50//58 54//58
f 51//61 44//61 54//61
f 50//59 51//59 54//59
f 50//58 48//58 55//58
f 47//62 50//62 56//62
f 53//63 47//63 56//63
f 50//64 55//64 56//64
f 49//58 46//58 57//58
f 48//65 43//65 58//65
f 43//66 52//66 58//66
f 52//56 53//56 58//56
f 48//67 53//67 59//67
f 55//58 48//58 59//58
f 53//68 56//68 59//68
f 56//69 55//69 59//69
f 45//70 52//70 60//70
f 52//71 49//71 60//71
f 49//72 57//72 60//72
f 53//73 48//73 61//73
f 48//74 58//74 61//74
f 58//75 53//75 61//75
f 43//57 49//57 62//57
f 52//66 43//66 62//66
f 49//76 52//76 62//76
f 44//77 45//77 63//77
f 46//78 44//78 63//78
f 57//79 46//79 63//79
f 45//80 60//80 63//80
o Shape_IndexedFaceSet_Shape_IndexedFaceSet.135
v 1.853878 -0.275168 8.018237
v -4.423896 -5.688910 17.839964
v -4.423896 -5.641354 17.839964
v 4.345375 -5.832866 18.032230
v 0.847212 0.300010 7.587516
v -4.423896 -4.395242 15.061223
v 3.914070 -6.216532 18.224499
v -4.135781 -1.185813 9.503741
v 4.393105 -1.137614 10.078394
v -4.375299 -1.137614 10.078394
v 4.345375 -1.376682 9.839939
v 4.010398 -5.928622 18.368429
v -3.704477 -6.264089 18.319019
v -1.116653 -0.035457 7.540255
v -3.992592 -5.928622 18.368429
v -0.877136 0.300010 7.587516
v 4.441702 -5.113732 16.307199
v 4.441702 -4.539197 15.971001
v 3.626824 -6.120133 18.512362
v -4.423896 -5.832866 17.553175
v 1.326246 -0.131213 7.683113
v -4.423896 -1.473081 10.031133
v 4.441702 -2.431283 11.659494
v 4.153587 -0.946102 9.599338
v -3.656748 -6.025021 18.512362
v -4.423896 -4.538555 15.971001
v -4.088051 -0.897903 9.552076
v 3.626824 -6.264731 18.415691
v -3.561288 -6.216532 18.462952
v 4.441702 -1.856104 11.325443
v 4.249915 -5.784667 18.127827
v 4.393105 -5.832866 17.553175
v 4.105857 -1.185813 9.503741
v -4.423896 -1.856104 11.325443
v 0.990402 0.203611 7.540255
v -2.218778 -0.466680 8.257765
v -4.279839 -5.785309 18.127827
v 4.441702 -5.545598 17.696033
v -0.973464 0.251811 7.540255
v -4.088051 -6.168333 18.223423
v 3.626824 -6.024378 18.512362
v 3.099192 -4.395242 15.060149
v 4.441702 -1.473081 10.078394
v -1.212981 -4.538555 15.972075
v 1.086729 -0.035457 7.540255
v -3.273173 -0.753948 8.928015
v 4.105857 -0.897903 9.647673
v 4.010398 -1.041858 9.408145
v -3.943994 -6.216532 18.223423
v 4.153587 -6.120133 18.176163
v -4.183511 -0.946102 9.743269
v -4.423896 -1.185813 10.031133
v -3.656748 -6.264089 18.415691
v -3.609018 -6.120776 18.512362
v 3.338709 -0.609993 9.071946
v 3.722283 -6.264731 18.319019
v 2.188854 -0.466680 8.257765
v 4.441702 -5.785309 17.648771
v -4.375299 -1.377325 9.839939
v -2.458295 -5.832866 17.552101
v -1.212981 -4.395242 15.060149
v -1.308440 -0.131856 7.682038
v 4.345375 -1.233370 9.743269
v -4.327569 -5.976178 17.984970
v 4.441702 -1.233370 10.175064
v 1.326246 -0.035457 7.683113
v 3.578226 -6.216532 18.464027
v 0.847212 0.300010 7.540255
v -4.279839 -1.089415 9.694934
v -2.794139 -0.418481 8.833492
v 4.297645 -6.024378 17.888300
v -1.164383 0.060941 7.587516
v -1.931531 -0.083657 8.162169
v 3.914070 -6.168333 18.368429
v -3.992592 -6.072577 18.368429
v -3.177714 -2.431925 11.660568
v -4.088051 -1.089415 9.456480
v -1.836072 -5.784667 18.127827
v 1.805280 -5.832866 17.552101
v 3.099192 -4.538555 15.971001
v 3.722283 -0.994301 9.215878
v 1.134459 0.203611 7.683113
v 4.393105 -1.137614 9.935536
v 4.393105 -5.928622 17.839964
v 4.153587 -5.928622 18.271759
v -4.423896 -5.881065 17.648771
v -3.800805 -1.041858 9.264213
v -4.183511 -5.976178 18.223423
v 4.441702 -1.568837 10.175064
v 4.441702 -5.785309 17.504839
v -3.464960 -0.658192 9.216951
v -4.423896 -5.593155 17.792704
v -4.423896 -1.904304 10.749717
v -4.327569 -1.041858 9.839939
v 4.441702 -4.395242 15.061223
v 2.811945 -0.419123 8.832418
v -0.877136 0.300010 7.540255
v 3.722283 -6.216532 18.223423
v 4.393105 -5.688910 17.935560
v -4.183511 -6.120776 18.080566
v 4.249915 -0.994301 9.696008
v -1.644284 -0.178770 7.874305
v 4.297645 -6.024378 18.032230
v -4.279839 -1.185813 9.647673
v 1.757550 -0.418481 8.833492
v -3.943994 -6.216532 18.320095
v -4.040322 -0.897903 9.503741
v 3.818611 -6.072577 18.464027
vn 0.5583 -0.2372 0.7950
vn -1.0000 0.0000 0.0000
vn 1.0000 0.0000 0.0000
vn 0.0000 0.8581 0.5134
vn 0.0010 0.8659 0.5001
vn 0.0156 -0.8647 -0.5020
vn -0.8943 0.0000 0.4475
vn 0.0577 0.8623 0.5031
vn 0.0000 0.0000 -1.0000
vn 0.0000 0.8326 0.5539
vn -0.0001 0.8308 0.5566
vn 0.0000 0.0000 1.0000
vn -0.0002 0.8660 0.5000
vn 0.0000 0.8660 0.5000
vn -0.7988 0.5342 0.2766
vn -0.0001 -1.0000 0.0000
vn -0.1605 -0.5146 0.8422
vn 0.5190 0.8042 -0.2894
vn 0.6088 0.4259 -0.6693
vn -0.0001 -1.0000 -0.0001
vn -0.0001 -0.8954 -0.4452
vn 0.1334 -0.7556 -0.6413
vn 0.0004 -0.8659 -0.5003
vn -0.9692 0.0000 -0.2463
vn -0.0003 -0.8662 -0.4997
vn -0.0003 -0.8680 -0.4966
vn -0.0002 -0.8662 -0.4998
vn 0.0000 -0.8662 -0.4997
vn -0.2582 -0.6000 -0.7572
vn 0.0000 -0.8270 -0.5623
vn 0.0004 -0.8303 -0.5573
vn 0.0004 -0.8633 -0.5046
vn 0.0000 -0.8644 -0.5027
vn 0.5832 -0.4542 -0.6734
vn 0.8308 -0.3113 -0.4614
vn 0.7070 -0.0008 -0.7072
vn -0.9024 -0.0898 0.4215
vn 0.6179 0.6915 0.3743
vn 0.5361 0.0000 -0.8441
vn 0.5122 0.0000 -0.8588
vn 0.5017 0.2021 -0.8411
vn 0.5932 0.4247 -0.6839
vn 0.5966 0.3760 -0.7090
vn 0.2657 -0.5358 0.8015
vn -0.0001 -0.7081 0.7061
vn -0.0001 -0.7048 0.7094
vn 0.0000 -0.4482 0.8939
vn -0.0001 -0.4586 0.8886
vn 0.0000 1.0000 0.0000
vn 0.0000 0.8663 0.4995
vn -0.0011 0.8665 0.4992
vn 0.0000 0.8662 0.4997
vn -0.0077 0.8701 0.4928
vn 0.3463 -0.9283 -0.1355
vn -0.4321 0.2154 -0.8757
vn -0.5967 0.3989 -0.6963
vn -0.5929 0.4235 -0.6850
vn 0.3076 -0.5288 0.7910
vn 0.4071 -0.8661 0.2900
vn 0.3672 -0.8820 0.2954
vn 0.3491 -0.8713 0.3448
vn -0.3939 0.0000 0.9191
vn -0.3654 -0.1822 0.9128
vn -0.0004 -0.8660 -0.5001
vn -0.0003 -0.8659 -0.5002
vn 0.0000 -0.8660 -0.5001
vn -0.0002 -0.8660 -0.5000
vn -0.7437 0.2986 -0.5981
vn -0.0002 0.8590 0.5119
vn -0.0002 0.8658 0.5005
vn 0.0000 0.8658 0.5004
vn -0.0002 0.8658 0.5004
vn 0.0002 -0.8662 -0.4996
vn 0.0000 -0.8682 -0.4962
vn 0.0003 0.8660 0.5001
vn 0.0001 0.8660 0.5001
vn 0.0001 0.8659 0.5002
vn 0.5270 -0.0443 -0.8487
vn 0.2660 -0.6006 -0.7540
vn 0.5193 -0.2063 -0.8293
vn 0.5572 0.0697 -0.8274
vn 0.5635 0.0964 -0.8205
vn 0.5780 0.5711 -0.5829
vn 0.3182 0.9480 0.0000
vn 0.4866 0.7228 -0.4907
vn 0.9663 0.0312 -0.2554
vn 0.8917 0.4526 0.0000
vn 0.9827 0.0692 -0.1717
vn 0.7378 0.1615 0.6554
vn 0.5094 0.4136 0.7546
vn 0.6285 -0.3474 0.6959
vn -0.0848 -0.8897 -0.4486
vn -0.9537 -0.2122 0.2132
vn -0.1292 -0.7597 -0.6373
vn -0.3625 -0.4404 -0.8214
vn -0.5338 -0.1442 -0.8332
vn -0.5628 0.0697 -0.8236
vn -0.6157 0.0818 0.7838
vn -0.8434 -0.1705 0.5095
vn -0.7877 -0.3913 0.4759
vn -0.6049 0.0000 0.7963
vn -0.6712 -0.3334 0.6620
vn 0.0229 -0.8644 -0.5022
vn 0.7178 -0.4946 -0.4899
vn 0.3446 -0.8188 -0.4591
vn 0.4682 -0.8180 -0.3341
vn 0.9470 -0.3211 0.0000
vn 0.6304 -0.7426 -0.2262
vn -0.3214 0.9438 0.0774
vn -0.2190 0.9524 0.2123
vn -0.1926 0.9475 0.2553
vn -0.3063 0.9492 0.0718
vn -0.3871 0.9200 -0.0616
vn -0.5881 0.5662 0.5775
vn -0.0111 0.8654 0.5010
vn -0.0041 -0.8659 -0.5002
vn -0.0126 -0.8650 -0.5017
vn -0.3175 -0.8131 -0.4879
vn -0.3997 0.8755 0.2716
vn -0.5948 0.7982 -0.0958
vn -0.7520 0.6499 0.1105
vn -0.7790 0.4731 -0.4116
vn 0.0115 -0.8662 -0.4995
vn 0.0004 -0.8660 -0.5000
vn 0.0004 -0.8662 -0.4997
vn 0.0028 0.8678 0.4968
vn 0.0295 0.8816 0.4710
vn 0.3237 0.9453 0.0414
vn 0.2877 0.9529 0.0964
vn 0.3258 0.9448 0.0364
vn -0.3419 0.9397 0.0000
vn -0.4382 0.8757 -0.2026
vn 0.0025 -0.8929 -0.4502
vn 0.0000 -0.8929 -0.4502
vn 0.0028 -0.8696 -0.4938
vn 0.0012 -0.8684 -0.4959
vn 0.0002 -0.8680 -0.4966
vn 0.7407 0.1876 0.6451
vn 0.1543 0.8337 0.5301
vn 0.9833 -0.0352 0.1785
vn 0.9486 -0.1172 0.2939
vn 0.9785 -0.0764 0.1915
vn -0.3156 -0.9433 -0.1031
vn -0.7688 -0.5466 0.3318
vn -0.0917 -0.8914 -0.4438
vn -0.7098 -0.7044 0.0041
vn 0.5241 0.8432 0.1198
vn 0.5901 0.7827 -0.1978
vn 0.7406 0.1834 -0.6465
vn 0.7437 0.1691 -0.6467
vn 0.7074 0.7068 0.0000
vn 0.8883 0.2832 -0.3616
vn -0.5551 0.1281 -0.8219
vn -0.5874 0.2582 -0.7670
vn -0.5187 -0.0755 -0.8516
vn -0.5531 0.0419 -0.8321
vn 0.5536 -0.8328 0.0000
vn 0.9126 -0.2274 0.3398
vn 0.7082 -0.7060 0.0000
vn 0.8023 -0.2000 0.5624
vn 0.7658 -0.2872 0.5754
vn -0.6655 -0.3370 -0.6660
vn -0.9301 0.1128 -0.3494
vn -0.7068 0.0031 -0.7074
vn -0.7449 0.2937 -0.5991
vn -0.9245 0.1573 -0.3473
vn -0.9164 0.1762 -0.3594
vn 0.0006 0.8665 0.4992
vn -0.1948 -0.9809 0.0000
vn -0.3173 -0.9483 0.0000
vn -0.1934 -0.9765 0.0955
vn -0.3483 -0.4417 0.8268
vn -0.5979 -0.4292 0.6770
vn -0.3654 -0.4048 0.8382
vn -0.5969 0.4004 -0.6953
vn -0.5870 0.5652 -0.5796
vn -0.6715 0.3310 -0.6630
vn -0.6055 0.3297 -0.7244
vn 0.2915 0.2285 0.9289
vn 0.2444 0.0000 0.9697
vn 0.3250 -0.4860 0.8113
vn 0.5492 -0.1915 0.8135
usemtl Shape.135
s off
f 137//81 148//81 171//81
f 65//82 66//82 69//82
f 65//82 69//82 83//82
f 69//82 66//82 85//82
f 81//83 80//83 86//83
f 85//82 66//82 89//82
f 81//83 86//83 93//83
f 78//84 75//84 94//84
f 81//85 93//85 94//85
f 74//86 86//86 96//86
f 85//82 89//82 97//82
f 66//87 65//87 100//87
f 80//83 81//83 101//83
f 81//88 94//88 101//88
f 98//89 77//89 102//89
f 75//90 78//90 104//90
f 78//91 88//91 104//91
f 88//92 82//92 104//92
f 93//83 86//83 106//83
f 97//93 89//93 107//93
f 93//94 97//94 107//94
f 77//89 98//89 108//89
f 97//95 73//95 115//95
f 85//82 97//82 115//82
f 76//96 91//96 116//96
f 82//92 88//92 117//92
f 116//97 92//97 117//97
f 110//98 87//98 118//98
f 87//99 111//99 118//99
f 91//100 76//100 119//100
f 76//101 112//101 119//101
f 84//102 96//102 120//102
f 96//103 86//103 120//103
f 80//83 101//83 121//83
f 85//104 115//104 122//104
f 83//105 69//105 123//105
f 112//106 83//106 123//106
f 123//107 69//107 124//107
f 105//108 123//108 124//108
f 99//109 77//109 125//109
f 77//110 108//110 125//110
f 108//111 84//111 125//111
f 84//112 120//112 125//112
f 120//113 99//113 125//113
f 74//114 96//114 126//114
f 106//115 74//115 126//115
f 96//116 111//116 126//116
f 100//117 65//117 127//117
f 72//118 93//118 128//118
f 93//83 106//83 128//83
f 64//119 84//119 129//119
f 84//120 108//120 129//120
f 108//121 98//121 129//121
f 98//122 118//122 129//122
f 118//123 111//123 129//123
f 91//124 82//124 130//124
f 116//125 91//125 130//125
f 92//126 116//126 130//126
f 82//127 117//127 130//127
f 117//128 92//128 130//128
f 79//129 68//129 131//129
f 98//89 102//89 131//89
f 68//130 79//130 133//130
f 73//131 97//131 133//131
f 97//132 93//132 133//132
f 114//133 73//133 133//133
f 113//134 70//134 134//134
f 102//135 77//135 135//135
f 135//136 109//136 136//136
f 102//137 135//137 136//137
f 82//138 91//138 137//138
f 70//139 113//139 137//139
f 119//140 70//140 137//140
f 91//141 119//141 137//141
f 88//142 78//142 138//142
f 117//143 88//143 138//143
f 69//144 71//144 139//144
f 71//145 99//145 139//145
f 86//146 105//146 139//146
f 120//146 86//146 139//146
f 99//146 120//146 139//146
f 124//147 69//147 139//147
f 105//146 124//146 139//146
f 132//148 90//148 140//148
f 78//84 94//84 141//84
f 100//149 78//149 141//149
f 89//150 100//150 141//150
f 94//151 107//151 141//151
f 107//152 89//152 141//152
f 105//153 95//153 142//153
f 123//108 105//108 142//108
f 112//154 123//154 142//154
f 94//155 93//155 143//155
f 93//156 107//156 143//156
f 107//157 94//157 143//157
f 84//158 64//158 144//158
f 96//159 84//159 144//159
f 111//160 96//160 144//160
f 64//161 129//161 144//161
f 129//162 111//162 144//162
f 118//163 98//163 145//163
f 131//164 68//164 145//164
f 98//165 131//165 145//165
f 106//166 126//166 146//166
f 72//167 128//167 146//167
f 128//168 106//168 146//168
f 67//169 94//169 148//169
f 94//170 75//170 148//170
f 137//171 113//171 148//171
f 65//82 83//82 149//82
f 83//172 112//172 149//172
f 127//173 65//173 149//173
f 99//174 71//174 150//174
f 77//175 99//175 150//175
f 71//176 140//176 150//176
f 140//177 109//177 150//177
f 78//178 100//178 151//178
f 100//179 127//179 151//179
f 127//180 103//180 151//180
f 138//181 78//181 151//181
f 103//182 138//182 151//182
f 86//183 74//183 152//183
f 74//184 106//184 152//184
f 106//83 86//83 152//83
f 95//185 80//185 153//185
f 80//83 121//83 153//83
f 134//186 95//186 153//186
f 121//187 147//187 153//187
f 147//188 134//188 153//188
f 90//189 114//189 154//189
f 133//190 79//190 154//190
f 114//191 133//191 154//191
f 79//192 136//192 154//192
f 136//193 90//193 154//193
f 89//82 66//82 155//82
f 66//194 100//194 155//194
f 100//195 89//195 155//195
f 71//196 69//196 156//196
f 69//82 85//82 156//82
f 122//197 71//197 156//197
f 85//198 122//198 156//198
f 73//199 114//199 157//199
f 114//200 90//200 157//200
f 115//201 73//201 157//201
f 90//202 132//202 157//202
f 86//83 80//83 158//83
f 80//203 95//203 158//203
f 105//204 86//204 158//204
f 95//205 105//205 158//205
f 68//206 72//206 159//206
f 72//207 110//207 159//207
f 110//208 118//208 159//208
f 145//209 68//209 159//209
f 118//210 145//210 159//210
f 79//129 131//129 160//129
f 131//89 102//89 160//89
f 136//211 79//211 160//211
f 102//212 136//212 160//212
f 70//213 119//213 161//213
f 119//214 112//214 161//214
f 134//215 70//215 161//215
f 95//216 134//216 161//216
f 142//217 95//217 161//217
f 112//154 142//154 161//154
f 94//218 67//218 162//218
f 101//219 94//219 162//219
f 121//220 101//220 162//220
f 67//221 147//221 162//221
f 147//222 121//222 162//222
f 112//223 103//223 163//223
f 103//224 127//224 163//224
f 149//225 112//225 163//225
f 127//226 149//226 163//226
f 110//227 72//227 164//227
f 87//228 110//228 164//228
f 111//229 87//229 164//229
f 126//230 111//230 164//230
f 72//231 146//231 164//231
f 146//232 126//232 164//232
f 135//233 77//233 165//233
f 109//234 135//234 165//234
f 77//235 150//235 165//235
f 150//236 109//236 165//236
f 113//237 134//237 166//237
f 147//238 67//238 166//238
f 134//239 147//239 166//239
f 67//240 148//240 166//240
f 148//241 113//241 166//241
f 71//242 122//242 167//242
f 122//243 115//243 167//243
f 140//244 71//244 167//244
f 132//245 140//245 167//245
f 115//246 157//246 167//246
f 157//247 132//247 167//247
f 72//248 68//248 168//248
f 93//248 72//248 168//248
f 68//130 133//130 168//130
f 133//132 93//132 168//132
f 112//249 76//249 169//249
f 103//250 112//250 169//250
f 76//251 116//251 169//251
f 116//252 117//252 169//252
f 138//253 103//253 169//253
f 117//254 138//254 169//254
f 136//255 109//255 170//255
f 90//256 136//256 170//256
f 140//257 90//257 170//257
f 109//258 140//258 170//258
f 75//259 104//259 171//259
f 104//260 82//260 171//260
f 82//261 137//261 171//261
f 148//262 75//262 171//262
