# Blender v2.78 (sub 0) OBJ File: ''
# www.blender.org
mtllib Table_Lab.mtl
o Shape_IndexedFaceSet.005_Shape_IndexedFaceSet.188
v 77.568542 33.591766 -68.729279
v 72.265198 34.034058 0.220993
v 72.265198 36.684174 0.220993
v 72.265198 34.034058 -68.729279
v 76.684479 38.011047 -68.729279
v 77.568542 37.126465 0.220993
v 76.242188 32.707703 0.220993
v 73.592072 38.011047 -68.729279
v 73.592072 32.707703 -68.729279
v 73.592072 38.011047 0.220993
v 77.568542 33.591766 0.220993
v 72.265198 36.684174 -68.729279
v 73.592072 32.707703 0.220993
v 77.568542 37.126465 -68.729279
v 76.684479 38.011047 0.220993
v 76.242188 32.707703 -68.729279
v 77.126251 33.149994 -68.729279
v 77.126251 33.149994 0.220993
vn 0.4474 -0.8943 0.0000
vn -1.0000 0.0000 0.0000
vn -0.0000 0.0000 -1.0000
vn 0.0000 0.0000 1.0000
vn -0.7070 -0.7072 0.0000
vn -0.7071 0.7071 0.0000
vn 0.0000 1.0000 0.0000
vn 1.0000 0.0000 0.0000
vn 0.0000 -1.0000 0.0000
vn 0.7073 0.7069 0.0000
vn 0.7067 -0.7075 0.0000
usemtl Shape.188
s off
f 7//1 17//1 18//1
f 2//2 3//2 4//2
f 1//3 4//3 5//3
f 3//4 2//4 6//4
f 6//4 2//4 7//4
f 5//3 4//3 8//3
f 2//5 4//5 9//5
f 4//3 1//3 9//3
f 3//4 6//4 10//4
f 8//6 3//6 10//6
f 5//7 8//7 10//7
f 1//8 6//8 11//8
f 6//4 7//4 11//4
f 4//2 3//2 12//2
f 3//6 8//6 12//6
f 8//3 4//3 12//3
f 7//4 2//4 13//4
f 2//5 9//5 13//5
f 9//9 7//9 13//9
f 1//3 5//3 14//3
f 5//10 6//10 14//10
f 6//8 1//8 14//8
f 6//10 5//10 15//10
f 10//4 6//4 15//4
f 5//7 10//7 15//7
f 9//3 1//3 16//3
f 7//9 9//9 16//9
f 1//11 11//11 17//11
f 16//3 1//3 17//3
f 7//1 16//1 17//1
f 11//4 7//4 18//4
f 17//11 11//11 18//11
o Shape_IndexedFaceSet.004_Shape_IndexedFaceSet.187
v -72.265198 34.034058 -68.729279
v -77.568542 33.591766 0.220993
v -77.568542 37.126465 0.220993
v -77.568542 33.591766 -68.729279
v -76.684479 38.011047 -68.729279
v -72.265198 36.684174 0.220993
v -73.592072 32.707703 0.220993
v -73.592072 38.011047 -68.729279
v -73.592072 38.011047 0.220993
v -76.242188 32.707703 -68.729279
v -72.265198 34.034058 0.220993
v -72.265198 36.684174 -68.729279
v -73.592072 32.707703 -68.729279
v -77.568542 37.126465 -68.729279
v -76.684479 38.011047 0.220993
v -76.242188 32.707703 0.220993
v -77.126251 33.149994 0.220993
v -77.126251 33.149994 -68.729279
vn -0.4474 -0.8943 0.0000
vn -1.0000 0.0000 0.0000
vn 0.0000 0.0000 -1.0000
vn 0.0000 0.0000 1.0000
vn 0.7071 0.7071 0.0000
vn 0.0000 1.0000 0.0000
vn 1.0000 0.0000 0.0000
vn 0.7070 -0.7072 0.0000
vn 0.0000 -1.0000 0.0000
vn -0.7073 0.7069 0.0000
vn -0.7067 -0.7075 0.0000
usemtl Shape.187
s off
f 28//12 35//12 36//12
f 20//13 21//13 22//13
f 19//14 22//14 23//14
f 21//15 20//15 24//15
f 24//15 20//15 25//15
f 19//14 23//14 26//14
f 24//16 26//16 27//16
f 21//15 24//15 27//15
f 26//17 23//17 27//17
f 22//14 19//14 28//14
f 19//18 24//18 29//18
f 25//19 19//19 29//19
f 24//15 25//15 29//15
f 24//18 19//18 30//18
f 19//14 26//14 30//14
f 26//16 24//16 30//16
f 19//19 25//19 31//19
f 28//14 19//14 31//14
f 25//20 28//20 31//20
f 22//13 21//13 32//13
f 23//14 22//14 32//14
f 21//21 23//21 32//21
f 23//21 21//21 33//21
f 21//15 27//15 33//15
f 27//17 23//17 33//17
f 25//15 20//15 34//15
f 28//20 25//20 34//20
f 28//12 34//12 35//12
f 20//22 22//22 35//22
f 34//15 20//15 35//15
f 35//22 22//22 36//22
f 22//14 28//14 36//14
o Shape_IndexedFaceSet.003_Shape_IndexedFaceSet.186
v 77.568542 -33.591766 -68.729279
v 72.265198 -36.684174 0.220993
v 72.265198 -34.034058 0.220993
v 72.265198 -36.684174 -68.729279
v 77.568542 -37.126465 0.220993
v 76.684479 -38.011047 -68.729279
v 77.126251 -33.149994 0.220993
v 73.592072 -32.707703 -68.729279
v 73.592072 -38.011047 0.220993
v 73.592072 -32.707703 0.220993
v 73.592072 -38.011047 -68.729279
v 72.265198 -34.034058 -68.729279
v 76.242188 -32.707703 -68.729279
v 77.568542 -37.126465 -68.729279
v 76.684479 -38.011047 0.220993
v 77.568542 -33.591766 0.220993
v 76.242188 -32.707703 0.220993
v 77.126251 -33.149994 -68.729279
vn 0.4474 0.8943 0.0000
vn -1.0000 0.0000 0.0000
vn 0.0000 0.0000 1.0000
vn 0.0000 0.0000 -1.0000
vn -0.7071 -0.7071 0.0000
vn -0.7070 0.7072 0.0000
vn 0.0000 -1.0000 0.0000
vn 0.0000 1.0000 0.0000
vn 1.0000 0.0000 0.0000
vn 0.7073 -0.7069 0.0000
vn 0.7067 0.7075 0.0000
usemtl Shape.186
s off
f 49//23 43//23 54//23
f 38//24 39//24 40//24
f 39//25 38//25 41//25
f 40//26 37//26 42//26
f 39//25 41//25 43//25
f 37//26 40//26 44//26
f 38//27 40//27 45//27
f 41//25 38//25 45//25
f 39//25 43//25 46//25
f 44//28 39//28 46//28
f 40//26 42//26 47//26
f 45//27 40//27 47//27
f 42//29 45//29 47//29
f 40//24 39//24 48//24
f 39//28 44//28 48//28
f 44//26 40//26 48//26
f 37//26 44//26 49//26
f 44//30 46//30 49//30
f 37//31 41//31 50//31
f 41//32 42//32 50//32
f 42//26 37//26 50//26
f 42//32 41//32 51//32
f 41//25 45//25 51//25
f 45//29 42//29 51//29
f 41//31 37//31 52//31
f 37//33 43//33 52//33
f 43//25 41//25 52//25
f 46//25 43//25 53//25
f 43//23 49//23 53//23
f 49//30 46//30 53//30
f 43//33 37//33 54//33
f 37//26 49//26 54//26
o Shape_IndexedFaceSet.002_Shape_IndexedFaceSet.185
v -72.265198 -34.034058 -68.729279
v -77.568542 -37.126465 0.220993
v -77.568542 -33.591766 0.220993
v -77.568542 -37.126465 -68.729279
v -72.265198 -36.684174 0.220993
v -73.592072 -38.011047 -68.729279
v -77.126251 -33.149994 -68.729279
v -73.592072 -32.707703 0.220993
v -76.684479 -38.011047 0.220993
v -73.592072 -32.707703 -68.729279
v -73.592072 -38.011047 0.220993
v -72.265198 -36.684174 -68.729279
v -72.265198 -34.034058 0.220993
v -76.242188 -32.707703 0.220993
v -76.684479 -38.011047 -68.729279
v -77.568542 -33.591766 -68.729279
v -76.242188 -32.707703 -68.729279
v -77.126251 -33.149994 0.220993
vn -0.4474 0.8943 0.0000
vn -1.0000 0.0000 0.0000
vn 0.0000 0.0000 1.0000
vn 0.0000 0.0000 -1.0000
vn -0.7073 -0.7069 0.0000
vn 0.7070 0.7072 0.0000
vn 0.7071 -0.7071 0.0000
vn 0.0000 -1.0000 0.0000
vn 1.0000 0.0000 0.0000
vn 0.0000 1.0000 0.0000
vn -0.7067 0.7075 0.0000
usemtl Shape.185
s off
f 68//34 61//34 72//34
f 56//35 57//35 58//35
f 57//36 56//36 59//36
f 58//37 55//37 60//37
f 55//37 58//37 61//37
f 57//36 59//36 62//36
f 56//38 58//38 63//38
f 59//36 56//36 63//36
f 55//37 61//37 64//37
f 62//39 55//39 64//39
f 60//40 59//40 65//40
f 59//36 63//36 65//36
f 63//41 60//41 65//41
f 55//42 59//42 66//42
f 59//40 60//40 66//40
f 60//37 55//37 66//37
f 59//42 55//42 67//42
f 55//39 62//39 67//39
f 62//36 59//36 67//36
f 57//36 62//36 68//36
f 62//43 64//43 68//43
f 58//37 60//37 69//37
f 63//38 58//38 69//38
f 60//41 63//41 69//41
f 58//35 57//35 70//35
f 57//44 61//44 70//44
f 61//37 58//37 70//37
f 64//37 61//37 71//37
f 61//34 68//34 71//34
f 68//43 64//43 71//43
f 61//44 57//44 72//44
f 57//36 68//36 72//36
o Shape_IndexedFaceSet.001_Shape_IndexedFaceSet.184
v 70.923645 40.220993 -72.264847
v -80.220993 0.441990 -69.171616
v -76.231926 32.705971 -68.729279
v 80.220993 0.441990 -69.171616
v -80.220993 0.441990 -72.264503
v -80.220993 40.220993 -72.264503
v 76.671669 38.005424 -68.729279
v 80.220993 0.441990 -72.264503
v -80.220993 40.220993 -69.171616
v 80.220993 40.220993 -69.171616
v 80.220993 40.220993 -72.264503
v -76.671669 38.005424 -68.729279
v 76.231926 32.705971 -68.729279
v 77.566849 33.585968 -68.729279
v -77.566849 33.585968 -68.729279
vn -0.1099 0.0223 0.9937
vn 0.0000 -0.0137 0.9999
vn 0.0000 -1.0000 0.0000
vn -1.0000 0.0000 0.0000
vn -0.0000 0.0000 -1.0000
vn 0.0000 1.0000 0.0000
vn 0.0000 0.1958 0.9806
vn 1.0000 0.0000 0.0000
vn 0.0000 0.0000 1.0000
vn 0.1099 0.0223 0.9937
vn 0.1644 0.0000 0.9864
vn 0.0083 -0.0127 0.9999
vn -0.0083 -0.0127 0.9999
vn -0.1644 0.0000 0.9864
usemtl Shape.184
s off
f 84//45 81//45 87//45
f 75//46 74//46 76//46
f 76//47 74//47 77//47
f 77//48 74//48 78//48
f 73//49 77//49 78//49
f 77//49 73//49 80//49
f 76//47 77//47 80//47
f 78//48 74//48 81//48
f 73//50 78//50 81//50
f 81//51 79//51 82//51
f 76//52 80//52 82//52
f 73//50 81//50 82//50
f 82//52 80//52 83//52
f 80//49 73//49 83//49
f 73//50 82//50 83//50
f 75//53 79//53 84//53
f 79//51 81//51 84//51
f 75//46 76//46 85//46
f 79//53 75//53 85//53
f 79//53 85//53 86//53
f 82//54 79//54 86//54
f 76//55 82//55 86//55
f 85//56 76//56 86//56
f 74//57 75//57 87//57
f 81//58 74//58 87//58
f 75//53 84//53 87//53
o Shape_IndexedFaceSet_Shape_IndexedFaceSet.183
v 67.829765 0.441990 -72.264847
v -80.220993 -40.220993 -69.171616
v -76.671669 -38.007935 -68.729279
v 80.220993 -40.220993 -69.171616
v -80.220993 -40.220993 -72.264503
v -80.220993 0.441990 -69.171616
v 80.220993 0.441990 -69.171616
v 80.220993 -40.220993 -72.264503
v -80.220993 0.441990 -72.264503
v 76.231926 -32.706142 -68.729279
v 80.220993 0.441990 -72.264503
v 76.671669 -38.007935 -68.729279
v -76.231926 -32.706142 -68.729279
v -77.566849 -33.589775 -68.729279
v 77.566849 -33.589775 -68.729279
vn 0.0000 0.0000 1.0000
vn 0.0000 -0.1960 0.9806
vn 0.0000 -1.0000 0.0000
vn -1.0000 0.0000 0.0000
vn 0.0000 1.0000 0.0000
vn 1.0000 0.0000 0.0000
vn 0.0000 -0.0000 -1.0000
vn 0.0000 0.0133 0.9999
vn -0.1099 -0.0223 0.9937
vn -0.1644 0.0000 0.9864
vn -0.0082 0.0124 0.9999
vn 0.1644 0.0000 0.9864
vn 0.0082 0.0124 0.9999
vn 0.1099 -0.0223 0.9937
usemtl Shape.183
s off
f 97//59 99//59 102//59
f 90//60 89//60 91//60
f 91//61 89//61 92//61
f 92//62 89//62 93//62
f 88//63 93//63 94//63
f 94//64 91//64 95//64
f 92//65 88//65 95//65
f 91//61 92//61 95//61
f 88//65 92//65 96//65
f 92//62 93//62 96//62
f 93//63 88//63 96//63
f 94//66 93//66 97//66
f 88//63 94//63 98//63
f 94//64 95//64 98//64
f 95//65 88//65 98//65
f 90//60 91//60 99//60
f 97//59 90//59 99//59
f 90//59 97//59 100//59
f 97//66 93//66 100//66
f 89//67 90//67 101//67
f 93//68 89//68 101//68
f 90//59 100//59 101//59
f 100//69 93//69 101//69
f 91//70 94//70 102//70
f 94//71 97//71 102//71
f 99//72 91//72 102//72
