# Blender v2.78 (sub 0) OBJ File: 'untitled.blend'
# www.blender.org
mtllib tray.mtl
o Shape_IndexedFaceSet.008_Shape_IndexedFaceSet.434
v -0.187554 -0.000564 -0.127259
v 0.187573 0.025308 -0.181590
v 0.187573 0.025308 -0.168651
v -0.187554 0.025308 -0.181590
v 0.187573 -0.000564 -0.142793
v -0.187554 0.017546 -0.181590
v 0.187573 0.007201 -0.129854
v -0.187554 0.007201 -0.129854
v 0.187573 0.017546 -0.181590
v -0.187554 -0.000564 -0.142793
v -0.187554 0.025308 -0.168651
v 0.187573 -0.000564 -0.127259
v 0.187573 0.004612 -0.127259
v -0.187554 0.004612 -0.127259
vn 0.0000 0.0000 1.0000
vn 0.0000 1.0000 0.0000
vn 1.0000 0.0000 0.0000
vn 0.0000 0.0000 -1.0000
vn -1.0000 0.0000 0.0000
vn 0.0000 0.9062 0.4229
vn 0.0000 -0.9061 -0.4230
vn 0.0000 -1.0000 0.0000
vn 0.0000 0.7079 0.7063
usemtl Shape.458
s off
f 1//1 13//1 14//1
f 3//2 2//2 4//2
f 2//3 3//3 5//3
f 4//4 2//4 6//4
f 1//5 4//5 6//5
f 5//3 3//3 7//3
f 4//5 1//5 8//5
f 7//6 3//6 8//6
f 2//3 5//3 9//3
f 6//4 2//4 9//4
f 5//7 6//7 9//7
f 5//8 1//8 10//8
f 6//7 5//7 10//7
f 1//5 6//5 10//5
f 3//2 4//2 11//2
f 8//6 3//6 11//6
f 4//5 8//5 11//5
f 1//8 5//8 12//8
f 5//3 7//3 12//3
f 12//3 7//3 13//3
f 7//9 8//9 13//9
f 1//1 12//1 13//1
f 13//9 8//9 14//9
f 8//5 1//5 14//5
o Shape_IndexedFaceSet.007_Shape_IndexedFaceSet.433
v -0.187573 -0.000564 0.162509
v 0.187536 0.004610 -0.127259
v 0.187573 0.004610 0.004691
v 0.187536 -0.000564 -0.127259
v -0.187536 0.004610 -0.127259
v 0.187573 0.004610 0.162509
v 0.187573 -0.000564 0.162509
v -0.187573 0.004610 0.162509
v -0.187536 -0.000564 -0.127259
vn 0.0000 0.0000 -1.0000
vn 1.0000 0.0000 -0.0003
vn 0.0000 1.0000 -0.0000
vn 1.0000 -0.0039 -0.0001
vn 0.0000 -1.0000 0.0000
vn 1.0000 0.0000 0.0000
vn 0.0000 0.0000 1.0000
vn -1.0000 0.0000 -0.0001
usemtl Shape.457
s off
f 19//10 18//10 23//10
f 16//11 17//11 18//11
f 17//12 16//12 19//12
f 16//10 18//10 19//10
f 17//12 19//12 20//12
f 18//13 17//13 21//13
f 15//14 18//14 21//14
f 17//15 20//15 21//15
f 20//16 15//16 21//16
f 19//17 15//17 22//17
f 15//16 20//16 22//16
f 20//12 19//12 22//12
f 18//14 15//14 23//14
f 15//17 19//17 23//17
o Shape_IndexedFaceSet.006_Shape_IndexedFaceSet.432
v 0.187554 0.025308 0.172863
v -0.187573 -0.000564 0.175439
v -0.187573 0.002027 0.178026
v 0.187554 -0.000564 0.175439
v -0.187573 0.007201 0.162509
v -0.187573 0.025308 0.185794
v 0.187554 -0.000564 0.162509
v 0.187554 0.017546 0.185794
v -0.187573 0.025308 0.172863
v -0.187573 -0.000564 0.162509
v 0.187554 0.025308 0.185794
v 0.187554 0.007201 0.162509
v -0.187573 0.017546 0.185794
v 0.187554 0.002027 0.178026
vn 1.0000 0.0000 0.0000
vn 0.0000 -0.7066 0.7077
vn -1.0000 0.0000 0.0000
vn 0.0000 -1.0000 0.0000
vn 0.0000 0.4964 -0.8681
vn 0.0000 1.0000 0.0000
vn 0.0000 0.0000 -1.0000
vn 0.0000 0.0000 1.0000
vn 0.0000 -0.4476 0.8942
usemtl Shape.456
s off
f 27//18 31//18 37//18
f 26//19 25//19 27//19
f 25//20 26//20 28//20
f 28//20 26//20 29//20
f 27//21 25//21 30//21
f 24//18 27//18 30//18
f 27//18 24//18 31//18
f 24//22 28//22 32//22
f 29//23 24//23 32//23
f 28//20 29//20 32//20
f 25//20 28//20 33//20
f 30//21 25//21 33//21
f 28//24 30//24 33//24
f 24//23 29//23 34//23
f 31//18 24//18 34//18
f 29//25 31//25 34//25
f 28//22 24//22 35//22
f 24//18 30//18 35//18
f 30//24 28//24 35//24
f 29//20 26//20 36//20
f 26//26 31//26 36//26
f 31//25 29//25 36//25
f 26//19 27//19 37//19
f 31//26 26//26 37//26
o Shape_IndexedFaceSet.005_Shape_IndexedFaceSet.431
v 0.187575 -0.000564 0.004689
v 0.197921 0.025308 -0.181590
v 0.197921 0.017546 -0.181590
v 0.187575 0.025308 -0.181590
v 0.197921 0.025308 0.004689
v 0.195334 -0.000564 -0.142770
v 0.197921 0.004612 0.004689
v 0.187575 -0.000564 -0.142770
v 0.190162 0.014955 0.004689
v 0.195334 -0.000564 0.004689
v 0.197921 0.004612 -0.147948
v 0.195334 0.025308 0.004689
v 0.187575 0.007201 0.004689
v 0.187575 0.017546 -0.181590
v 0.187575 0.025308 -0.168626
vn -0.9481 0.3163 0.0330
vn 0.0000 0.0000 -1.0000
vn 1.0000 0.0000 0.0000
vn 0.0000 1.0000 0.0000
vn 0.0000 0.0000 1.0000
vn -1.0000 0.0000 0.0000
vn 0.0000 -0.9062 -0.4228
vn 0.0000 -1.0000 0.0000
vn 0.8945 -0.4471 0.0000
vn 0.7544 -0.6127 -0.2356
vn -0.8939 0.4465 0.0400
usemtl Shape.455
s off
f 50//27 46//27 52//27
f 39//28 40//28 41//28
f 40//29 39//29 42//29
f 39//30 41//30 42//30
f 42//31 38//31 44//31
f 40//29 42//29 44//29
f 38//32 41//32 45//32
f 40//33 43//33 45//33
f 43//34 38//34 45//34
f 38//31 42//31 46//31
f 38//34 43//34 47//34
f 44//31 38//31 47//31
f 43//35 44//35 47//35
f 43//36 40//36 48//36
f 40//29 44//29 48//29
f 44//35 43//35 48//35
f 42//30 41//30 49//30
f 46//31 42//31 49//31
f 41//32 38//32 50//32
f 38//31 46//31 50//31
f 41//28 40//28 51//28
f 40//33 45//33 51//33
f 45//32 41//32 51//32
f 49//30 41//30 52//30
f 46//37 49//37 52//37
f 41//32 50//32 52//32
o Shape_IndexedFaceSet.004_Shape_IndexedFaceSet.430
v -0.195334 -0.000564 0.004689
v -0.187575 0.025308 -0.181590
v -0.197921 0.025308 -0.181590
v -0.197921 0.025308 0.004689
v -0.187575 0.007201 0.004689
v -0.187575 -0.000564 -0.142770
v -0.197921 0.004612 -0.147948
v -0.187575 -0.000564 0.004689
v -0.195334 0.025308 0.004689
v -0.197921 0.004612 0.004689
v -0.195334 -0.000564 -0.142770
v -0.197921 0.017546 -0.181590
v -0.187575 0.017546 -0.181590
v -0.190162 0.014955 0.004689
v -0.187575 0.025308 -0.168626
vn 0.9481 0.3163 0.0330
vn 0.0000 1.0000 0.0000
vn 0.0000 0.0000 1.0000
vn 1.0000 0.0000 0.0000
vn -1.0000 0.0000 0.0000
vn 0.0000 -1.0000 0.0000
vn -0.8945 -0.4471 0.0000
vn -0.7544 -0.6127 -0.2356
vn 0.0000 0.0000 -1.0000
vn 0.0000 -0.9062 -0.4228
vn 0.8939 0.4465 0.0400
usemtl Shape.454
s off
f 66//38 57//38 67//38
f 54//39 55//39 56//39
f 56//40 53//40 57//40
f 54//41 57//41 58//41
f 56//42 55//42 59//42
f 57//40 53//40 60//40
f 58//41 57//41 60//41
f 53//43 58//43 60//43
f 54//39 56//39 61//39
f 56//40 57//40 61//40
f 53//40 56//40 62//40
f 56//42 59//42 62//42
f 59//44 53//44 62//44
f 58//43 53//43 63//43
f 53//44 59//44 63//44
f 63//45 59//45 64//45
f 55//46 54//46 64//46
f 59//42 55//42 64//42
f 58//47 63//47 64//47
f 58//47 64//47 65//47
f 54//41 58//41 65//41
f 64//46 54//46 65//46
f 61//40 57//40 66//40
f 61//48 66//48 67//48
f 57//41 54//41 67//41
f 54//39 61//39 67//39
o Shape_IndexedFaceSet.003_Shape_IndexedFaceSet.429
v 0.187575 0.002027 0.178029
v 0.197921 0.025308 0.004689
v 0.197921 0.004612 0.004689
v 0.197921 0.025308 0.185794
v 0.187575 0.007201 0.004689
v 0.187575 0.025308 0.185794
v 0.195334 -0.000564 0.172852
v 0.187575 -0.000564 0.004689
v 0.197921 0.004612 0.172852
v 0.195334 0.025308 0.004689
v 0.195334 -0.000564 0.004689
v 0.187575 -0.000564 0.175441
v 0.190162 0.014955 0.004689
v 0.197921 0.017546 0.185794
v 0.187575 0.025308 0.172852
v 0.187575 0.017546 0.185794
vn 0.0000 -0.4475 0.8943
vn 1.0000 0.0000 0.0000
vn -0.0000 0.0000 -1.0000
vn 0.0000 1.0000 0.0000
vn -1.0000 -0.0000 0.0000
vn 0.8945 -0.4471 0.0000
vn 0.0000 -1.0000 0.0000
vn 0.2298 -0.6878 0.6886
vn 0.0000 0.0000 1.0000
vn 0.3079 -0.5819 0.7527
vn 0.8167 -0.4082 0.4079
vn -0.9480 0.3163 -0.0341
vn -0.8938 0.4465 -0.0412
usemtl Shape.453
s off
f 68//49 81//49 83//49
f 70//50 69//50 71//50
f 69//51 70//51 72//51
f 71//52 69//52 73//52
f 72//53 68//53 73//53
f 68//53 72//53 75//53
f 72//51 70//51 75//51
f 70//50 71//50 76//50
f 74//54 70//54 76//54
f 69//51 72//51 77//51
f 73//52 69//52 77//52
f 70//54 74//54 78//54
f 75//51 70//51 78//51
f 74//55 75//55 78//55
f 74//56 68//56 79//56
f 68//53 75//53 79//53
f 75//55 74//55 79//55
f 77//51 72//51 80//51
f 71//57 73//57 81//57
f 68//58 74//58 81//58
f 76//50 71//50 81//50
f 74//59 76//59 81//59
f 72//53 73//53 82//53
f 73//52 77//52 82//52
f 80//60 72//60 82//60
f 77//61 80//61 82//61
f 73//53 68//53 83//53
f 81//57 73//57 83//57
o Shape_IndexedFaceSet.002_Shape_IndexedFaceSet.428
v -0.187575 0.002027 0.178029
v -0.195334 0.025308 0.004689
v -0.197921 0.025308 0.004689
v -0.195334 -0.000564 0.004689
v -0.197921 0.025308 0.185794
v -0.197921 0.004612 0.172852
v -0.187575 0.025308 0.172852
v -0.187575 -0.000564 0.004689
v -0.195334 -0.000564 0.172852
v -0.187575 0.007201 0.004689
v -0.197921 0.004612 0.004689
v -0.187575 -0.000564 0.175441
v -0.187575 0.025308 0.185794
v -0.190162 0.014955 0.004689
v -0.197921 0.017546 0.185794
v -0.187575 0.017546 0.185794
vn 0.0000 -0.4475 0.8943
vn 0.0000 0.0000 -1.0000
vn 0.0000 1.0000 0.0000
vn -1.0000 0.0000 0.0000
vn 1.0000 -0.0000 0.0000
vn -0.8945 -0.4471 0.0000
vn 0.0000 -1.0000 0.0000
vn -0.2298 -0.6878 0.6886
vn 0.8938 0.4465 -0.0412
vn 0.9480 0.3163 -0.0341
vn -0.3079 -0.5819 0.7527
vn -0.8167 -0.4082 0.4079
vn 0.0000 0.0000 1.0000
usemtl Shape.452
s off
f 98//62 84//62 99//62
f 86//63 85//63 87//63
f 85//64 86//64 88//64
f 88//65 86//65 89//65
f 85//64 88//64 90//64
f 87//63 85//63 91//63
f 90//66 84//66 91//66
f 89//67 87//67 92//67
f 87//68 91//68 92//68
f 91//63 85//63 93//63
f 90//66 91//66 93//66
f 86//63 87//63 94//63
f 89//65 86//65 94//65
f 87//67 89//67 94//67
f 91//66 84//66 95//66
f 84//69 92//69 95//69
f 92//68 91//68 95//68
f 84//66 90//66 96//66
f 90//64 88//64 96//64
f 85//70 90//70 97//70
f 93//63 85//63 97//63
f 90//71 93//71 97//71
f 88//65 89//65 98//65
f 92//72 84//72 98//72
f 89//73 92//73 98//73
f 96//74 88//74 98//74
f 96//74 98//74 99//74
f 84//66 96//66 99//66
o Shape_IndexedFaceSet.001_Shape_IndexedFaceSet.427
v 0.205686 0.014960 -0.171233
v 0.197922 0.017548 0.185794
v 0.197922 0.025308 0.185794
v 0.223794 0.020134 0.183204
v 0.223794 0.025308 -0.181590
v 0.197922 0.025308 -0.181590
v 0.223794 0.017548 -0.179001
v 0.223794 0.025308 0.183204
v 0.205686 0.014960 0.180579
v 0.197922 0.014960 -0.173822
v 0.223794 0.017548 0.180579
v 0.197922 0.014960 0.183204
v 0.197922 0.017548 -0.181590
v 0.218617 0.017548 0.185794
v 0.221203 0.017548 -0.181590
v 0.221203 0.025308 0.185794
vn 0.5072 -0.1690 0.8451
vn 0.0000 1.0000 0.0000
vn -1.0000 0.0000 0.0000
vn 1.0000 0.0000 0.0000
vn 0.1415 -0.9899 0.0000
vn 0.0000 -1.0000 0.0000
vn 0.0000 0.0000 -1.0000
vn 0.0000 0.0000 1.0000
vn 0.5773 -0.5817 0.5731
vn 0.1401 -0.9803 0.1391
vn 0.0878 -0.9617 0.2596
vn 0.0000 -0.7074 0.7068
vn 0.0990 -0.9901 -0.0991
vn 0.6879 -0.2297 -0.6885
vn 0.0547 -0.9849 -0.1641
vn 0.0000 -0.9487 -0.3161
vn 0.7070 0.0000 0.7072
usemtl Shape.451
s off
f 113//75 103//75 115//75
f 102//76 104//76 105//76
f 101//77 102//77 105//77
f 104//78 103//78 106//78
f 103//78 104//78 107//78
f 104//76 102//76 107//76
f 100//79 106//79 108//79
f 101//77 105//77 109//77
f 100//80 108//80 109//80
f 106//78 103//78 110//78
f 108//79 106//79 110//79
f 101//77 109//77 111//77
f 109//80 108//80 111//80
f 105//81 104//81 112//81
f 109//77 105//77 112//77
f 102//82 101//82 113//82
f 110//83 103//83 113//83
f 108//84 110//84 113//84
f 111//85 108//85 113//85
f 101//86 111//86 113//86
f 106//87 100//87 114//87
f 104//88 106//88 114//88
f 100//89 109//89 114//89
f 112//81 104//81 114//81
f 109//90 112//90 114//90
f 107//76 102//76 115//76
f 103//91 107//91 115//91
f 102//82 113//82 115//82
o Shape_IndexedFaceSet_Shape_IndexedFaceSet.426
v -0.197922 0.014960 -0.173822
v -0.223794 0.020134 0.183204
v -0.223794 0.025308 0.183204
v -0.223794 0.025308 -0.181590
v -0.197922 0.025308 0.185794
v -0.197922 0.025308 -0.181590
v -0.197922 0.014960 0.183204
v -0.223794 0.017548 -0.179001
v -0.223794 0.017548 0.180579
v -0.205686 0.014960 -0.171233
v -0.205686 0.014960 0.180579
v -0.197922 0.017548 -0.181590
v -0.218617 0.017548 0.185794
v -0.221203 0.017548 -0.181590
v -0.221203 0.025308 0.185794
v -0.197922 0.017548 0.185794
vn 0.0000 -0.7074 0.7068
vn -1.0000 0.0000 0.0000
vn 0.0000 1.0000 0.0000
vn 1.0000 0.0000 0.0000
vn 0.0000 -1.0000 0.0000
vn -0.1415 -0.9899 0.0000
vn 0.0000 0.0000 -1.0000
vn -0.5773 -0.5817 0.5731
vn -0.1401 -0.9803 0.1391
vn -0.0878 -0.9617 0.2596
vn -0.6879 -0.2297 -0.6885
vn -0.0547 -0.9849 -0.1641
vn -0.0990 -0.9901 -0.0991
vn 0.0000 -0.9487 -0.3161
vn -0.7070 0.0000 0.7072
vn -0.5072 -0.1690 0.8451
vn 0.0000 0.0000 1.0000
usemtl Shape.450
s off
f 128//92 122//92 131//92
f 117//93 118//93 119//93
f 119//94 118//94 120//94
f 120//95 116//95 121//95
f 119//94 120//94 121//94
f 116//95 120//95 122//95
f 117//93 119//93 123//93
f 117//93 123//93 124//93
f 116//96 122//96 125//96
f 124//97 123//97 125//97
f 124//97 125//97 126//97
f 125//96 122//96 126//96
f 121//95 116//95 127//95
f 119//98 121//98 127//98
f 117//99 124//99 128//99
f 124//100 126//100 128//100
f 126//101 122//101 128//101
f 123//102 119//102 129//102
f 116//103 125//103 129//103
f 125//104 123//104 129//104
f 127//105 116//105 129//105
f 119//98 127//98 129//98
f 118//106 117//106 130//106
f 120//94 118//94 130//94
f 117//107 128//107 130//107
f 128//108 120//108 130//108
f 122//95 120//95 131//95
f 120//108 128//108 131//108
