# Blender v2.78 (sub 0) OBJ File: ''
# www.blender.org
mtllib OvenDoor.mtl
o Shape_IndexedFaceSet_Shape_IndexedFaceSet.254
v -0.015833 0.299595 0.434813
v -0.015833 0.299595 -0.025942
v -0.015836 0.249272 -0.042735
v 0.009305 0.295372 0.447395
v 0.009305 0.282821 0.451654
v 0.009305 -0.295372 -0.042735
v -0.015833 0.295372 0.447395
v 0.009305 -0.295372 0.447395
v 0.009305 0.295372 -0.038524
v -0.015836 -0.295372 -0.042735
v -0.015836 -0.299595 0.434813
v -0.015836 -0.282821 0.451654
v 0.009305 0.282821 -0.042735
v -0.015833 0.295372 -0.038524
v 0.009305 -0.299595 -0.034314
v 0.009305 0.299595 0.434813
v -0.015833 0.282821 -0.042735
v 0.009305 -0.282821 0.451654
v -0.015833 0.282821 0.451654
v 0.009305 -0.299595 0.434813
v -0.015836 -0.299595 -0.034314
v 0.009305 0.299595 -0.025942
v -0.015836 -0.295372 0.447395
vn -1.0000 0.0000 0.0000
vn -1.0000 0.0001 -0.0000
vn 1.0000 -0.0000 0.0000
vn 0.0000 0.3213 0.9470
vn 0.0000 0.3181 -0.9481
vn 0.0000 0.0000 -1.0000
vn 0.0000 0.9480 -0.3182
vn 0.0000 -0.8939 -0.4483
vn 0.0000 0.9480 0.3182
vn 0.0000 -0.0000 1.0000
vn 0.0000 -0.3213 0.9470
vn 0.0000 -0.9480 0.3182
vn 0.0000 -1.0000 -0.0000
vn 0.0000 1.0000 0.0000
vn -1.0000 0.0001 -0.0003
usemtl Shape.278
s 1
f 1//1 2//2 3//1
f 4//3 5//3 6//3
f 5//4 4//4 7//4
f 6//3 5//3 8//3
f 4//3 6//3 9//3
f 10//1 11//1 12//1
f 9//3 6//3 13//3
f 14//5 9//5 13//5
f 6//6 10//6 13//6
f 9//7 14//7 2//7
f 6//3 8//3 15//3
f 10//8 6//8 15//8
f 7//9 4//9 16//9
f 4//3 9//3 16//3
f 14//5 13//5 17//5
f 13//6 10//6 17//6
f 8//3 5//3 18//3
f 5//10 12//10 18//10
f 12//11 8//11 18//11
f 5//4 7//4 19//4
f 7//1 12//1 19//1
f 12//10 5//10 19//10
f 8//12 11//12 20//12
f 11//13 15//13 20//13
f 15//3 8//3 20//3
f 11//1 10//1 21//1
f 15//13 11//13 21//13
f 10//8 15//8 21//8
f 7//9 16//9 1//9
f 16//14 2//14 1//14
f 9//7 2//7 22//7
f 16//3 9//3 22//3
f 2//14 16//14 22//14
f 11//12 8//12 23//12
f 12//1 11//1 23//1
f 8//11 12//11 23//11
f 12//1 7//1 3//1
f 10//1 12//1 3//1
f 2//2 14//2 3//1
f 14//2 17//15 3//1
f 17//6 10//6 3//6
f 7//1 1//1 3//1
