# Blender v2.78 (sub 0) OBJ File: ''
# www.blender.org
mtllib OvenPanel.mtl
o Shape_IndexedFaceSet_Shape_IndexedFaceSet.246
v 0.010767 -0.292401 0.058432
v -0.009438 -0.293568 0.057312
v 0.010767 -0.293568 0.057312
v 0.010767 0.280089 0.062926
v 0.010767 0.283415 0.061794
v -0.010559 0.280089 0.062926
v 0.010767 -0.280089 0.062926
v 0.010767 0.280089 -0.052706
v -0.010559 -0.280089 -0.052706
v -0.010559 0.289017 -0.049333
v -0.010559 -0.280089 0.062926
v 0.010767 -0.289017 -0.049333
v -0.010559 -0.298061 0.044963
v 0.010767 0.298003 0.044963
v -0.010559 0.298061 0.044963
v 0.010767 0.298003 -0.034744
v -0.010559 0.280089 -0.052706
v 0.010767 -0.280089 -0.052706
v 0.010767 -0.298061 0.044963
v -0.010559 -0.298061 -0.034744
v -0.010559 0.298061 -0.034744
v 0.010767 -0.298061 -0.034744
v -0.010559 0.293568 0.057312
v 0.010767 0.293568 -0.047092
v -0.010559 -0.293510 -0.047092
v 0.010767 0.292401 0.058432
v 0.010767 -0.293568 -0.047092
v -0.010559 0.293568 -0.047092
v -0.010559 -0.292401 0.058432
v 0.010767 0.293568 0.057312
v -0.010559 0.292401 0.058432
v 0.009646 0.298061 0.044963
vn 0.0000 -0.6924 0.7215
vn 0.0000 0.3222 0.9467
vn 1.0000 0.0000 0.0000
vn 0.0000 -0.0000 1.0000
vn -1.0000 -0.0000 0.0000
vn 0.0000 0.0000 -1.0000
vn 0.0000 0.3534 -0.9355
vn 0.0000 -0.3534 -0.9355
vn 0.0000 -1.0000 0.0000
vn 0.0000 -0.9397 0.3419
vn 0.0150 0.3844 -0.9230
vn 0.0023 0.9410 -0.3385
vn 0.0026 0.9411 -0.3380
vn 0.0004 0.9399 -0.3414
vn -0.0156 -0.3859 -0.9224
vn 0.0000 -0.3429 0.9394
vn 0.0000 -0.9397 -0.3419
vn -0.0004 -0.9395 -0.3424
vn -0.0023 -0.9385 -0.3453
vn -0.0012 -0.4418 -0.8971
vn -0.0026 -0.9383 -0.3458
vn 0.0000 0.4418 -0.8971
vn 0.0000 0.9397 -0.3419
vn -0.4970 -0.8000 0.3362
vn 0.0000 0.9397 0.3419
vn 0.0000 0.6924 0.7215
vn -0.0036 0.3429 0.9394
vn -0.0031 0.3439 0.9390
vn -0.0006 0.3490 0.9371
vn 0.0000 0.3504 0.9366
vn 0.0517 0.9987 0.0000
vn 0.0006 1.0000 -0.0002
vn 0.0000 1.0000 0.0000
vn 0.0020 1.0000 -0.0005
vn 0.0027 1.0000 -0.0007
vn 0.0487 0.9400 0.3376
usemtl Shape.913
s 1
f 1//1 2//1 3//1
f 4//2 5//2 6//2
f 5//3 4//3 7//3
f 4//4 6//4 7//4
f 5//3 7//3 8//3
f 9//5 6//5 10//5
f 6//5 9//5 11//5
f 7//4 6//4 11//4
f 8//3 7//3 12//3
f 11//5 9//5 13//5
f 5//3 8//3 14//3
f 10//5 6//5 15//5
f 14//3 8//3 16//3
f 8//6 9//6 17//6
f 9//5 10//5 17//5
f 10//7 8//7 17//7
f 9//6 8//6 18//6
f 12//8 9//8 18//8
f 8//3 12//3 18//3
f 12//3 7//3 19//3
f 19//9 13//9 20//9
f 13//5 9//5 20//5
f 10//5 15//5 21//5
f 12//3 19//3 22//3
f 19//9 20//9 22//9
f 13//10 19//10 2//10
f 15//5 6//5 23//5
f 8//11 10//11 24//11
f 16//3 8//3 24//3
f 21//12 16//13 24//14
f 9//15 12//15 25//15
f 20//5 9//5 25//5
f 7//16 11//16 1//16
f 19//3 7//3 1//3
f 5//3 14//3 26//3
f 12//3 22//3 27//3
f 22//17 20//18 27//19
f 25//20 12//20 27//20
f 20//18 25//21 27//19
f 10//5 21//5 28//5
f 24//22 10//22 28//22
f 21//12 24//14 28//23
f 11//5 13//5 29//5
f 13//24 2//24 29//24
f 1//16 11//16 29//16
f 2//1 1//1 29//1
f 15//25 23//25 30//25
f 26//3 14//3 30//3
f 23//26 26//26 30//26
f 6//27 5//28 31//29
f 23//5 6//5 31//5
f 5//28 26//30 31//29
f 26//26 23//26 31//26
f 14//31 16//31 32//31
f 21//32 15//33 32//34
f 16//35 21//32 32//34
f 30//36 14//36 32//36
f 15//25 30//25 32//25
f 2//10 19//10 3//10
f 19//3 1//3 3//3
