# Blender v2.78 (sub 0) OBJ File: ''
# www.blender.org
mtllib OvenDoor.mtl
o Shape_IndexedFaceSet_Shape_IndexedFaceSet.238
v -0.014717 0.282815 -0.039690
v 0.006742 -0.276914 -0.041663
v -0.014717 -0.276972 -0.041663
v -0.014717 0.292574 -0.035793
v -0.014717 -0.296489 -0.035793
v -0.014717 -0.286730 0.447970
v -0.014717 0.294502 0.444072
v -0.014717 -0.298417 0.432379
v 0.006742 -0.292574 -0.041663
v 0.006742 -0.298475 -0.029922
v 0.006742 -0.294502 0.444072
v -0.014717 0.298475 -0.024099
v -0.014717 -0.292574 -0.041663
v 0.006740 0.280887 0.449943
v 0.006740 0.286730 0.447970
v -0.014717 0.280829 0.449943
v 0.006742 -0.280829 0.449943
v 0.006740 0.292574 -0.035745
v 0.006740 0.282815 -0.039690
v 0.006742 -0.298475 0.432379
v -0.014717 0.298475 0.432379
v -0.014717 -0.280887 0.449943
v -0.014717 -0.298417 -0.029922
v -0.014717 -0.294560 0.444072
v 0.006740 0.294560 0.444024
v 0.006740 0.298417 0.432331
v 0.006740 0.298417 -0.024051
v -0.012765 -0.298475 0.432379
v 0.004791 0.298475 -0.024099
vn -0.0000 0.0035 -1.0000
vn -0.0000 0.0018 -1.0000
vn -1.0000 0.0000 0.0000
vn 0.0401 -0.8928 -0.4487
vn 1.0000 -0.0000 0.0000
vn 0.0000 -0.8319 -0.5549
vn -0.0009 0.3199 0.9474
vn -0.0240 0.3944 0.9186
vn 0.0240 -0.3944 0.9186
vn 0.0000 -0.0000 1.0000
vn 0.0018 0.3741 -0.9274
vn 0.0021 0.3748 -0.9271
vn 0.0004 0.3715 -0.9284
vn 0.0000 0.3708 -0.9287
vn 0.0009 -0.3199 0.9474
vn -0.0026 -0.9501 -0.3120
vn 0.0012 -0.4457 0.8952
vn 0.0004 -0.9481 0.3180
vn 0.0026 -0.9468 0.3217
vn 0.0023 -0.9470 0.3212
vn 0.0008 0.4500 0.8930
vn 0.0027 0.9493 0.3145
vn -0.0018 0.9468 0.3217
vn -0.0010 0.9472 0.3205
vn 0.0033 0.9497 0.3133
vn 0.0000 0.0000 -1.0000
vn -0.0008 -1.0000 -0.0000
vn 0.0000 -1.0000 -0.0000
vn -0.0019 -1.0000 -0.0001
vn -0.0297 -0.9996 -0.0000
vn -0.0027 -1.0000 -0.0001
vn -0.0282 -0.9493 0.3131
vn 0.0000 -0.9483 0.3175
vn 0.0010 0.8921 -0.4519
vn 0.0008 0.8922 -0.4517
vn 0.0000 0.8927 -0.4506
vn 0.0000 0.8928 -0.4505
vn 0.0376 0.8939 -0.4467
vn 0.0297 0.9996 0.0000
vn 0.0009 1.0000 0.0000
vn 0.0027 1.0000 0.0001
vn 0.0019 1.0000 0.0001
vn 0.0000 1.0000 0.0000
usemtl Shape.905
s 1
f 1//1 2//2 3//2
f 4//3 5//3 6//3
f 4//3 6//3 7//3
f 6//3 5//3 8//3
f 5//4 9//4 10//4
f 9//5 11//5 10//5
f 4//3 7//3 12//3
f 5//3 4//3 1//3
f 9//6 5//6 13//6
f 5//3 1//3 13//3
f 14//7 15//7 16//7
f 15//8 7//8 16//8
f 7//3 6//3 16//3
f 15//5 14//5 17//5
f 6//9 11//9 17//9
f 11//5 9//5 17//5
f 14//10 16//10 17//10
f 4//11 18//12 19//13
f 1//14 4//11 19//13
f 10//5 11//5 20//5
f 12//3 7//3 21//3
f 16//3 6//3 22//3
f 6//15 17//15 22//15
f 17//10 16//10 22//10
f 8//3 5//3 23//3
f 5//16 10//16 23//16
f 11//17 6//17 24//17
f 6//3 8//3 24//3
f 20//18 11//19 24//20
f 7//21 15//21 25//21
f 15//5 17//5 25//5
f 17//5 26//5 25//5
f 21//22 7//23 25//24
f 26//25 21//22 25//24
f 9//26 13//26 2//2
f 17//5 9//5 2//5
f 26//5 17//5 2//5
f 18//5 27//5 2//5
f 27//5 26//5 2//5
f 19//5 18//5 2//5
f 1//1 19//1 2//2
f 10//27 20//28 28//29
f 8//30 23//30 28//30
f 23//31 10//27 28//29
f 24//32 8//32 28//32
f 20//18 24//20 28//33
f 18//34 4//35 29//36
f 4//35 12//37 29//36
f 27//38 18//38 29//38
f 26//39 27//39 29//39
f 21//40 26//41 29//42
f 12//43 21//40 29//42
f 13//3 1//3 3//3
f 2//2 13//26 3//2
