# Blender v2.78 (sub 0) OBJ File: ''
# www.blender.org
mtllib OvenPanel.mtl
o Shape_IndexedFaceSet_Shape_IndexedFaceSet.270
v 0.010660 -0.296010 0.056660
v -0.011377 -0.293319 0.059408
v -0.011377 -0.296069 0.056660
v 0.010660 0.287819 0.062167
v 0.010660 0.279568 0.064927
v 0.010660 -0.282260 -0.053522
v -0.011377 -0.282260 -0.053522
v -0.011377 -0.279510 0.064927
v -0.011377 0.290510 -0.050763
v 0.010660 0.282319 -0.053522
v 0.010660 -0.287760 0.062167
v -0.011377 0.279510 0.064927
v -0.011377 -0.298819 -0.036977
v 0.010660 0.298819 0.048393
v 0.010660 -0.298819 0.048393
v -0.011377 0.298819 0.048393
v 0.010660 0.298819 -0.036977
v -0.011377 -0.298819 0.048393
v -0.011377 0.282260 -0.053522
v 0.010660 -0.279510 0.064927
v 0.010660 -0.298819 -0.036977
v -0.011377 0.298819 -0.036977
v -0.011377 -0.290569 -0.050763
v -0.011377 0.296010 0.056660
v 0.010660 0.296069 -0.045255
v 0.010660 -0.296010 -0.045255
v 0.010660 0.296069 0.056660
v -0.011377 -0.296069 -0.045255
v 0.010660 -0.290510 -0.050763
v 0.010660 0.290569 -0.050763
v -0.011377 0.293260 0.059408
v -0.011377 0.296010 -0.045255
vn 0.0019 -0.7069 0.7074
vn 1.0000 -0.0000 0.0000
vn -1.0000 0.0000 0.0000
vn 0.0000 0.0000 -1.0000
vn -0.0008 0.3172 0.9483
vn -0.0000 -0.0000 1.0000
vn 0.0000 1.0000 0.0000
vn 0.0000 -1.0000 0.0000
vn 0.0000 -0.3173 0.9483
vn 0.0000 -0.3151 -0.9490
vn 0.0002 -0.3156 -0.9489
vn 0.0006 -0.3167 -0.9485
vn -0.0226 -0.3710 0.9283
vn -0.0005 0.9486 -0.3165
vn 0.0000 0.9490 -0.3153
vn -0.0020 0.9474 -0.3201
vn 0.0359 -0.5548 0.8312
vn 0.0000 0.9489 0.3156
vn -0.0005 0.9485 0.3168
vn -0.0020 0.9472 0.3205
vn -0.0025 0.9468 0.3217
vn 0.0005 -0.9486 -0.3165
vn 0.0000 -0.9490 -0.3153
vn 0.0020 -0.9474 -0.3201
vn 0.0025 -0.9470 -0.3213
vn 0.0019 -0.7076 -0.7066
vn 0.0008 -0.3172 -0.9484
vn -0.0008 0.3172 -0.9484
vn -0.0019 0.7076 -0.7066
vn -0.0242 0.3724 0.9278
vn 0.0329 0.5549 0.8313
vn -0.0019 0.7069 0.7074
vn -0.0025 0.9470 -0.3213
vn 0.0000 -0.9489 0.3156
vn 0.0005 -0.9485 0.3168
vn 0.0020 -0.9472 0.3205
vn 0.0025 -0.9468 0.3217
usemtl Shape.294
s 1
f 1//1 2//1 3//1
f 4//2 5//2 6//2
f 7//3 8//3 9//3
f 4//2 6//2 10//2
f 6//4 7//4 10//4
f 6//2 5//2 11//2
f 5//5 4//5 12//5
f 8//6 5//6 12//6
f 9//3 8//3 12//3
f 8//3 7//3 13//3
f 4//2 10//2 14//2
f 6//2 11//2 15//2
f 9//3 12//3 16//3
f 16//7 14//7 17//7
f 14//2 10//2 17//2
f 8//3 13//3 18//3
f 13//8 15//8 18//8
f 7//3 9//3 19//3
f 10//4 7//4 19//4
f 5//6 8//6 20//6
f 11//2 5//2 20//2
f 8//9 11//9 20//9
f 6//2 15//2 21//2
f 15//8 13//8 21//8
f 9//3 16//3 22//3
f 16//7 17//7 22//7
f 7//10 6//11 23//12
f 13//3 7//3 23//3
f 11//13 8//13 2//13
f 8//3 18//3 2//3
f 16//3 12//3 24//3
f 17//2 10//2 25//2
f 22//14 17//15 25//16
f 6//2 21//2 26//2
f 15//2 11//2 1//2
f 11//17 2//17 1//17
f 4//2 14//2 27//2
f 14//18 16//19 27//20
f 16//19 24//21 27//20
f 21//22 13//23 28//24
f 13//3 23//3 28//3
f 26//25 21//22 28//24
f 26//26 28//26 29//26
f 23//12 6//11 29//27
f 6//2 26//2 29//2
f 28//26 23//26 29//26
f 19//28 9//28 30//28
f 10//28 19//28 30//28
f 9//29 25//29 30//29
f 25//2 10//2 30//2
f 12//30 4//30 31//30
f 24//3 12//3 31//3
f 4//31 27//31 31//31
f 27//32 24//32 31//32
f 9//3 22//3 32//3
f 25//29 9//29 32//29
f 22//14 25//16 32//33
f 18//34 15//35 3//36
f 2//3 18//3 3//3
f 15//35 1//37 3//36
