# Blender v2.78 (sub 0) OBJ File: ''
# www.blender.org
mtllib OvenMain.mtl
o Shape_IndexedFaceSet.002_Shape_IndexedFaceSet.241
v -0.253895 0.226416 -0.272315
v 0.273068 0.226416 -0.300258
v -0.253895 0.226416 -0.300258
v 0.273068 0.226416 -0.272315
v 0.273068 -0.001147 -0.272315
v -0.253895 -0.001147 -0.300258
v 0.273068 -0.001147 -0.300258
v -0.253895 -0.001147 -0.272315
vn 0.0000 1.0000 0.0000
vn 1.0000 0.0000 0.0000
vn 0.0000 -0.0000 1.0000
vn 0.0000 -1.0000 -0.0000
vn 0.0000 0.0000 -1.0000
vn -1.0000 0.0000 0.0000
usemtl Shape.908
s 1
f 1//1 2//1 3//1
f 4//2 5//2 2//2
f 5//3 4//3 1//3
f 4//1 2//1 1//1
f 5//4 6//4 7//4
f 2//2 5//2 7//2
f 6//5 2//5 7//5
f 6//4 5//4 8//4
f 1//6 6//6 8//6
f 5//3 1//3 8//3
f 2//5 6//5 3//5
f 6//6 1//6 3//6
o Shape_IndexedFaceSet.006_Shape_IndexedFaceSet.245
v 0.273068 0.230412 -0.196458
v -0.253920 0.226419 -0.272296
v 0.273068 0.226419 -0.272296
v -0.253920 0.226419 -0.300258
v -0.253920 0.254362 -0.300258
v 0.273068 0.226419 -0.300258
v -0.253920 0.230412 -0.196458
v 0.273068 0.254362 -0.196458
v 0.273068 0.254362 -0.300258
v -0.253920 0.254362 -0.196458
vn 0.0000 -0.9986 0.0526
vn -1.0000 0.0000 0.0000
vn 0.0000 -1.0000 -0.0000
vn 0.0000 0.0000 -1.0000
vn 0.0000 1.0000 0.0000
vn 1.0000 0.0000 0.0000
vn 0.0000 -0.0000 1.0000
usemtl Shape.909
s 1
f 9//7 10//7 11//7
f 12//8 10//8 13//8
f 10//9 12//9 14//9
f 12//10 13//10 14//10
f 13//8 10//8 15//8
f 13//11 16//11 17//11
f 16//12 14//12 17//12
f 14//10 13//10 17//10
f 14//12 16//12 9//12
f 15//7 10//7 9//7
f 16//13 15//13 9//13
f 16//11 13//11 18//11
f 13//8 15//8 18//8
f 15//13 16//13 18//13
f 10//9 14//9 11//9
f 14//12 9//12 11//12
o Shape_IndexedFaceSet.001_Shape_IndexedFaceSet.240
v 0.273068 -0.252664 0.302560
v -0.281852 0.254337 0.302560
v -0.281852 -0.252664 0.302560
v 0.273068 0.254337 0.302560
v 0.273068 0.254337 0.178846
v -0.281852 -0.252664 0.178846
v 0.273068 -0.252664 0.178846
v -0.281852 0.254337 0.178846
vn 0.0000 -0.0000 1.0000
vn 0.0000 1.0000 0.0000
vn 1.0000 0.0000 0.0000
vn 0.0000 0.0000 -1.0000
vn 0.0000 -1.0000 -0.0000
vn -1.0000 0.0000 0.0000
usemtl Shape.911
s 1
f 19//14 20//14 21//14
f 22//15 23//15 20//15
f 23//16 22//16 19//16
f 22//14 20//14 19//14
f 24//17 23//17 25//17
f 19//18 24//18 25//18
f 23//16 19//16 25//16
f 23//17 24//17 26//17
f 20//15 23//15 26//15
f 24//19 20//19 26//19
f 20//19 24//19 21//19
f 24//18 19//18 21//18
o Shape_IndexedFaceSet.005_Shape_IndexedFaceSet.244
v 0.273068 -0.252659 0.178822
v -0.253920 -0.228710 0.178822
v -0.253920 -0.252659 0.178822
v -0.253920 -0.252659 -0.052715
v -0.253868 -0.252659 -0.268319
v 0.273068 -0.228710 0.178822
v 0.273068 -0.228710 -0.268319
v -0.253868 -0.228710 -0.268319
v 0.273068 -0.252659 -0.268319
vn 0.0000 -0.0000 1.0000
vn -0.0000 -1.0000 -0.0000
vn 1.0000 0.0000 0.0000
vn 0.0000 1.0000 0.0000
vn -1.0000 0.0000 -0.0002
vn -1.0000 0.0004 -0.0001
vn -1.0000 0.0006 -0.0001
vn 0.0000 0.0000 -1.0000
vn -1.0000 0.0007 -0.0001
vn -1.0000 0.0000 0.0000
usemtl Shape.907
s 1
f 27//20 28//20 29//20
f 30//21 31//21 27//21
f 32//22 27//22 33//22
f 27//20 32//20 28//20
f 32//23 33//23 28//23
f 31//24 30//25 34//26
f 33//27 31//27 34//27
f 28//23 33//23 34//23
f 30//25 28//28 34//26
f 27//21 31//21 35//21
f 33//22 27//22 35//22
f 31//27 33//27 35//27
f 30//21 27//21 29//21
f 28//28 30//25 29//29
o Shape_IndexedFaceSet_Shape_IndexedFaceSet.239
v -0.253920 -0.252664 0.178822
v -0.253925 -0.252664 -0.300258
v -0.253920 0.254313 -0.300258
v -0.253920 0.254313 -0.196432
v -0.253925 0.254362 0.178822
v -0.281858 0.254313 0.178822
v -0.281863 0.254313 -0.300258
v -0.281858 -0.252664 -0.300258
v -0.281863 -0.252664 0.178822
vn 1.0000 -0.0000 -0.0000
vn -0.0000 -0.0000 1.0000
vn -0.0018 1.0000 0.0000
vn -0.0005 1.0000 -0.0001
vn -0.0013 1.0000 -0.0000
vn 0.0000 -1.0000 -0.0000
vn 0.0000 0.0000 -1.0000
vn -1.0000 0.0000 0.0000
vn 0.9945 0.1045 -0.0000
vn 0.0000 1.0000 -0.0001
usemtl Shape.906
s 1
f 36//30 37//30 38//30
f 39//30 40//30 36//30
f 36//31 40//31 41//31
f 41//32 40//33 42//34
f 36//35 43//35 37//35
f 43//36 42//36 37//36
f 43//35 36//35 44//35
f 36//31 41//31 44//31
f 41//37 42//37 44//37
f 42//37 43//37 44//37
f 40//38 39//38 38//38
f 39//30 36//30 38//30
f 42//34 40//33 38//39
f 37//36 42//36 38//36
o Shape_IndexedFaceSet.003_Shape_IndexedFaceSet.242
v 0.273065 0.230408 -0.196458
v -0.253920 0.254362 -0.196458
v 0.273065 0.254362 -0.196458
v -0.253920 0.230408 -0.196458
v -0.253920 0.230408 0.178822
v 0.273065 0.254362 0.178822
v -0.253920 0.254362 0.178822
v 0.273065 0.230408 0.178822
vn 0.0000 0.0000 -1.0000
vn -1.0000 0.0000 0.0000
vn 0.0000 -1.0000 -0.0000
vn 0.0000 -0.0000 1.0000
vn 0.0000 1.0000 0.0000
vn 1.0000 0.0000 0.0000
usemtl Shape.910
s 1
f 45//40 46//40 47//40
f 48//41 49//41 46//41
f 49//42 48//42 45//42
f 48//40 46//40 45//40
f 49//43 50//43 51//43
f 46//41 49//41 51//41
f 50//44 46//44 51//44
f 50//43 49//43 52//43
f 45//45 50//45 52//45
f 49//42 45//42 52//42
f 46//44 50//44 47//44
f 50//45 45//45 47//45
o Shape_IndexedFaceSet.004_Shape_IndexedFaceSet.243
v -0.253920 -0.001147 -0.272315
v -0.253920 -0.252664 -0.268319
v -0.253920 -0.228709 -0.268319
v 0.273068 -0.228709 -0.268319
v 0.273068 -0.001147 -0.272315
v 0.273068 -0.001147 -0.300258
v -0.253920 -0.252664 -0.300258
v 0.273068 -0.252664 -0.300258
v -0.253920 -0.001147 -0.300258
v 0.273068 -0.252664 -0.268319
vn -1.0000 0.0000 0.0000
vn 0.0000 0.0176 0.9998
vn 1.0000 0.0000 0.0000
vn 0.0000 1.0000 0.0000
vn 0.0000 0.0000 -1.0000
vn 0.0000 -1.0000 0.0000
vn 0.0000 0.0000 1.0000
usemtl Shape.912
s 1
f 53//46 54//46 55//46
f 56//47 57//47 53//47
f 57//48 56//48 58//48
f 53//49 57//49 58//49
f 59//50 58//50 60//50
f 58//48 56//48 60//48
f 53//46 59//46 54//46
f 59//51 60//51 54//51
f 59//46 53//46 61//46
f 58//50 59//50 61//50
f 53//49 58//49 61//49
f 60//48 56//48 62//48
f 56//52 54//52 62//52
f 54//51 60//51 62//51
f 56//47 53//47 55//47
f 54//52 56//52 55//52
