# Blender v2.78 (sub 0) OBJ File: ''
# www.blender.org
mtllib OvenMain.mtl
o Shape_IndexedFaceSet.001_Shape_IndexedFaceSet.256
v 0.276175 -0.226893 0.172266
v -0.027973 -0.255421 0.172266
v -0.027973 -0.226893 0.172266
v 0.276175 -0.055804 0.200777
v 0.276175 -0.055804 0.181772
v -0.027973 -0.055804 0.200777
v 0.276175 -0.255421 0.200777
v -0.027973 -0.255421 0.200777
v 0.276175 -0.255421 0.172266
v -0.027973 -0.055804 0.181772
v -0.027973 0.229365 -0.084387
v 0.276175 0.219857 0.181743
v -0.027973 0.219857 0.181743
v -0.027973 0.257876 -0.084387
v 0.276175 0.229365 -0.084387
v -0.027973 0.257876 0.200780
v 0.276175 0.257876 0.200780
v 0.276175 0.219857 0.200780
v -0.027973 0.219857 0.200780
v 0.276175 0.257876 -0.084387
v -0.027973 -0.255421 0.172263
v 0.276175 -0.255421 -0.084387
v 0.276175 -0.255421 0.172263
v -0.027973 -0.255421 -0.084387
v -0.027973 -0.226904 -0.084387
v 0.276175 -0.226904 0.172263
v -0.027973 -0.226904 0.172263
v 0.276175 -0.226904 -0.084387
v -0.246601 0.257879 0.181769
v -0.027973 0.257879 -0.264993
v -0.246601 0.257879 -0.264993
v -0.027973 0.257879 0.181769
v -0.027973 0.229363 0.181769
v -0.246601 0.229363 -0.264993
v -0.246601 0.229363 0.181769
v -0.027973 0.229363 -0.264993
v 0.276175 -0.055804 0.200780
v -0.027973 0.219857 0.200780
v -0.027973 -0.055804 0.200780
v 0.276175 0.219857 0.200780
v 0.276175 0.219857 0.181769
v -0.027973 -0.055804 0.181769
v 0.276175 -0.055804 0.181769
v -0.027973 0.219857 0.181769
v 0.276175 -0.255421 0.200790
v -0.027973 0.257879 0.200790
v 0.276175 0.257879 0.200790
v -0.027973 -0.255421 0.200790
v -0.027973 -0.255421 0.305331
v 0.276175 0.257879 0.305331
v 0.276175 -0.255421 0.305331
v -0.027973 0.257879 0.305331
v -0.027973 0.067768 -0.274498
v 0.276175 0.229351 -0.264993
v -0.027973 0.229351 -0.264993
v 0.276175 0.257879 -0.264993
v 0.276175 0.257879 -0.303015
v -0.027973 0.257879 -0.264993
v 0.276175 0.067768 -0.303015
v -0.027973 0.257879 -0.303015
v 0.276175 0.067768 -0.274498
v -0.027973 0.067768 -0.303015
v -0.027973 -0.255421 0.181769
v -0.284623 0.257879 0.181769
v -0.027973 0.257879 0.181769
v -0.284623 -0.255421 0.181769
v -0.284623 -0.255421 0.305341
v -0.027973 0.257879 0.305341
v -0.027973 -0.255421 0.305341
v -0.284623 0.257879 0.305341
v -0.027973 -0.217399 -0.274448
v -0.246601 -0.217399 -0.303015
v -0.246601 -0.217399 -0.274448
v -0.027973 -0.255417 0.181769
v -0.027973 -0.226907 0.181769
v -0.246601 -0.226907 0.181769
v -0.027973 -0.255417 -0.303015
v -0.246601 -0.255417 -0.303015
v -0.027973 -0.217399 -0.303015
v -0.246601 -0.255417 0.181769
v -0.246601 -0.217399 -0.274506
v -0.027973 0.229314 -0.264993
v -0.246601 0.229314 -0.264993
v -0.246601 -0.217399 -0.303011
v -0.027973 -0.217399 -0.303011
v -0.246601 0.257879 -0.303015
v -0.027973 0.257879 -0.264993
v -0.246601 0.257879 -0.264993
v -0.027973 0.257879 -0.303015
v -0.027973 -0.217399 -0.274506
v 0.276175 -0.217399 -0.274504
v -0.027973 0.067768 -0.274504
v -0.027973 -0.217399 -0.274504
v 0.276175 0.067768 -0.274504
v 0.276175 0.067768 -0.303015
v -0.027973 -0.217399 -0.303015
v 0.276175 -0.217399 -0.303015
v -0.027973 0.067768 -0.303015
v -0.027973 0.229363 -0.084387
v 0.276175 0.229363 -0.264993
v 0.276175 0.229363 -0.084387
v -0.027973 0.229363 -0.264993
v -0.027973 0.257879 -0.264993
v 0.276175 0.257879 -0.084387
v -0.027973 0.257879 -0.084387
v 0.276175 0.257879 -0.264993
v 0.276175 -0.217399 -0.303015
v -0.027973 -0.217399 -0.274466
v 0.276175 -0.217399 -0.274466
v -0.027973 -0.255417 -0.303015
v -0.027973 -0.217399 -0.303015
v 0.276175 -0.255417 -0.303015
v -0.027973 -0.255417 -0.084387
v 0.276175 -0.226907 -0.084387
v 0.276175 -0.255417 -0.084387
v -0.027973 -0.226907 -0.084387
v -0.256109 -0.008276 0.181769
v -0.246604 -0.008276 -0.303015
v -0.246604 -0.008276 -0.274448
v -0.284619 -0.008276 -0.303015
v -0.284619 0.257879 -0.303015
v -0.284619 -0.008276 0.181769
v -0.246604 0.257879 -0.303015
v -0.246604 0.229351 0.181769
v -0.284619 0.257879 0.181769
v -0.246604 0.257879 0.181769
v -0.246604 -0.008301 -0.303015
v -0.256109 -0.008301 0.181769
v -0.246604 -0.008301 -0.274448
v -0.284619 -0.255421 -0.303015
v -0.284619 -0.008301 -0.303015
v -0.246604 -0.255421 -0.303015
v -0.284619 -0.255421 0.181769
v -0.246604 -0.226877 0.181769
v -0.284619 -0.008301 0.181769
v -0.246604 -0.255421 0.181769
vn 0.0000 0.0000 -1.0000
vn -1.0000 0.0000 0.0000
vn 0.0000 -1.0000 0.0000
vn 0.0000 -0.0000 1.0000
vn 1.0000 0.0000 0.0000
vn 0.0000 1.0000 0.0000
vn 0.0000 0.0555 -0.9985
vn 0.0000 -0.9994 -0.0357
vn 0.0000 -0.0587 0.9983
vn 0.0000 0.9998 0.0208
vn 0.0000 -0.0213 0.9998
vn 0.0000 0.9988 0.0500
vn 0.9990 -0.0400 0.0208
vn 0.9988 0.0434 0.0208
usemtl Shape.280
s 1
f 45//1 46//1 47//1
f 48//2 49//2 46//2
f 49//3 48//3 45//3
f 48//1 46//1 45//1
f 50//4 49//4 51//4
f 45//5 50//5 51//5
f 49//3 45//3 51//3
f 49//4 50//4 52//4
f 46//2 49//2 52//2
f 50//6 46//6 52//6
f 46//6 50//6 47//6
f 50//5 45//5 47//5
usemtl Shape.292
f 1//1 2//1 3//1
f 4//6 5//6 6//6
f 5//5 4//5 7//5
f 4//4 6//4 7//4
f 6//2 2//2 8//2
f 2//3 7//3 8//3
f 7//4 6//4 8//4
f 7//3 2//3 9//3
f 5//5 7//5 9//5
f 6//6 5//6 10//6
f 2//2 6//2 10//2
f 9//1 2//1 1//1
f 5//5 9//5 1//5
f 10//7 5//7 1//7
f 10//7 1//7 3//7
f 2//2 10//2 3//2
usemtl Shape.285
f 11//8 12//8 13//8
f 11//1 14//1 15//1
f 14//2 11//2 16//2
f 14//6 16//6 17//6
f 18//5 15//5 17//5
f 16//4 18//4 17//4
f 18//4 16//4 19//4
f 16//2 11//2 19//2
f 15//1 14//1 20//1
f 14//6 17//6 20//6
f 17//5 15//5 20//5
f 11//8 15//8 12//8
f 15//5 18//5 12//5
f 18//3 19//3 12//3
f 12//3 19//3 13//3
f 19//2 11//2 13//2
usemtl Shape.291
f 21//3 22//3 23//3
f 24//1 25//1 22//1
f 25//2 24//2 21//2
f 24//3 22//3 21//3
f 26//6 25//6 27//6
f 21//4 26//4 27//4
f 25//2 21//2 27//2
f 25//6 26//6 28//6
f 22//1 25//1 28//1
f 26//5 22//5 28//5
f 22//5 26//5 23//5
f 26//4 21//4 23//4
usemtl Shape.286
f 29//6 30//6 31//6
f 32//5 33//5 30//5
f 33//4 32//4 29//4
f 32//6 30//6 29//6
f 34//3 33//3 35//3
f 29//2 34//2 35//2
f 33//4 29//4 35//4
f 33//3 34//3 36//3
f 30//5 33//5 36//5
f 34//1 30//1 36//1
f 30//1 34//1 31//1
f 34//2 29//2 31//2
usemtl Shape.293
f 37//4 38//4 39//4
f 40//6 41//6 38//6
f 41//5 40//5 37//5
f 40//4 38//4 37//4
f 42//1 41//1 43//1
f 37//3 42//3 43//3
f 41//5 37//5 43//5
f 41//1 42//1 44//1
f 38//6 41//6 44//6
f 42//2 38//2 44//2
f 38//2 42//2 39//2
f 42//3 37//3 39//3
usemtl Shape.289
f 53//9 54//9 55//9
f 56//6 57//6 58//6
f 57//5 56//5 59//5
f 58//6 57//6 60//6
f 53//2 58//2 60//2
f 57//1 59//1 60//1
f 53//3 59//3 61//3
f 59//5 56//5 61//5
f 59//3 53//3 62//3
f 53//2 60//2 62//2
f 60//1 59//1 62//1
f 56//4 58//4 54//4
f 61//5 56//5 54//5
f 53//9 61//9 54//9
f 58//2 53//2 55//2
f 54//4 58//4 55//4
usemtl Shape.279
f 63//1 64//1 65//1
f 66//2 67//2 64//2
f 67//3 66//3 63//3
f 66//1 64//1 63//1
f 68//4 67//4 69//4
f 63//5 68//5 69//5
f 67//3 63//3 69//3
f 67//4 68//4 70//4
f 64//2 67//2 70//2
f 68//6 64//6 70//6
f 64//6 68//6 65//6
f 68//5 63//5 65//5
usemtl Shape.283
f 71//6 72//6 73//6
f 74//4 75//4 76//4
f 75//5 74//5 77//5
f 77//3 74//3 78//3
f 76//2 72//2 78//2
f 72//1 77//1 78//1
f 77//1 72//1 79//1
f 75//5 77//5 79//5
f 74//4 76//4 80//4
f 78//3 74//3 80//3
f 76//2 78//2 80//2
f 76//10 75//10 71//10
f 75//5 79//5 71//5
f 79//6 72//6 71//6
f 72//2 76//2 73//2
f 76//10 71//10 73//10
usemtl Shape.284
f 81//11 82//11 83//11
f 81//3 84//3 85//3
f 84//2 81//2 86//2
f 85//1 84//1 86//1
f 87//6 86//6 88//6
f 86//2 81//2 88//2
f 87//5 85//5 89//5
f 86//6 87//6 89//6
f 85//1 86//1 89//1
f 81//3 85//3 90//3
f 85//5 87//5 90//5
f 87//4 88//4 82//4
f 90//5 87//5 82//5
f 81//11 90//11 82//11
f 88//2 81//2 83//2
f 82//4 88//4 83//4
usemtl Shape.288
f 91//4 92//4 93//4
f 94//6 95//6 92//6
f 95//5 94//5 91//5
f 94//4 92//4 91//4
f 96//1 95//1 97//1
f 91//3 96//3 97//3
f 95//5 91//5 97//5
f 95//1 96//1 98//1
f 92//6 95//6 98//6
f 96//2 92//2 98//2
f 92//2 96//2 93//2
f 96//3 91//3 93//3
usemtl Shape.290
f 99//3 100//3 101//3
f 102//1 103//1 100//1
f 103//2 102//2 99//2
f 102//3 100//3 99//3
f 104//6 103//6 105//6
f 99//4 104//4 105//4
f 103//2 99//2 105//2
f 103//6 104//6 106//6
f 100//1 103//1 106//1
f 104//5 100//5 106//5
f 100//5 104//5 101//5
f 104//4 99//4 101//4
usemtl Shape.287
f 107//6 108//6 109//6
f 110//1 111//1 112//1
f 111//2 110//2 113//2
f 110//3 112//3 113//3
f 112//1 111//1 107//1
f 114//5 112//5 107//5
f 112//5 114//5 115//5
f 114//4 113//4 115//4
f 113//3 112//3 115//3
f 113//4 114//4 116//4
f 111//2 113//2 116//2
f 107//6 111//6 108//6
f 116//12 114//12 108//12
f 111//2 116//2 108//2
f 114//5 107//5 109//5
f 108//12 114//12 109//12
usemtl Shape.282
f 117//3 118//3 119//3
f 120//1 121//1 118//1
f 121//2 120//2 122//2
f 120//3 118//3 122//3
f 118//1 121//1 123//1
f 124//5 118//5 123//5
f 122//4 124//4 125//4
f 121//2 122//2 125//2
f 123//6 121//6 125//6
f 124//4 122//4 117//4
f 122//3 118//3 117//3
f 124//5 123//5 126//5
f 125//4 124//4 126//4
f 123//6 125//6 126//6
f 118//5 124//5 119//5
f 124//13 117//13 119//13
usemtl Shape.281
f 127//6 128//6 129//6
f 130//1 131//1 132//1
f 131//2 130//2 133//2
f 130//3 132//3 133//3
f 133//4 134//4 128//4
f 132//1 131//1 127//1
f 134//5 132//5 127//5
f 131//6 128//6 127//6
f 131//2 133//2 135//2
f 128//6 131//6 135//6
f 133//4 128//4 135//4
f 132//5 134//5 136//5
f 134//4 133//4 136//4
f 133//3 132//3 136//3
f 128//14 134//14 129//14
f 134//5 127//5 129//5
