# Blender v3.1.2 OBJ File: ''
# www.blender.org
mtllib wardrobe_door_handle.mtl
o SM_Kleiderschrank_TürLinks
v -0.006357 0.051710 0.007541
v -0.006357 -0.054304 0.007541
v -0.006357 0.051710 -0.007541
v -0.006357 -0.054304 -0.007541
v 0.027199 0.051710 0.007541
v 0.027199 0.051710 -0.007541
v 0.027199 -0.054304 0.007541
v 0.027199 -0.054304 -0.007541
v -0.020843 0.051710 -0.007541
v -0.020843 0.066297 0.007541
v -0.020843 0.066297 -0.007541
v -0.020843 0.051710 0.007541
v -0.020843 -0.054304 -0.007541
v -0.020843 -0.054304 0.007541
v -0.020843 -0.063703 -0.007541
v -0.020843 -0.063703 0.007541
v -0.006357 -0.063703 -0.007541
v -0.006357 -0.063703 0.007541
v 0.027199 -0.063703 0.007541
v 0.027199 -0.063703 -0.007541
v -0.006357 0.066297 -0.007541
v -0.006357 0.066297 0.007541
v 0.027199 0.066297 0.007541
v 0.027199 0.066297 -0.007541
vt 0.561523 0.740479
vt 0.437988 0.740479
vt 0.561523 0.726074
vt 0.437988 0.726074
vt -0.108948 0.726074
vt -0.061035 0.740479
vt -0.108948 0.740479
vt -0.061035 0.726074
vt 1.108398 0.740479
vt 1.060547 0.740479
vt 1.108398 0.726074
vt 1.060547 0.726074
vt 0.437988 0.726074
vt 0.427734 0.740479
vt 0.427734 0.726074
vt 0.437988 0.740479
vt 0.561523 0.726074
vt 0.561523 0.740479
vt 0.571777 0.726074
vt 0.571777 0.740479
vt -0.120056 0.740479
vt -0.120056 0.726074
vt -0.108948 0.726074
vt -0.108948 0.740479
vt -0.061035 0.740479
vt -0.061035 0.726074
vt 1.108398 0.726074
vt 1.119141 0.726074
vt 1.119141 0.740479
vt 1.108398 0.740479
vt 1.060547 0.740479
vt 1.060547 0.726074
vt 0.571777 1.061035
vt 0.571777 1.108948
vt 0.561523 1.061035
vt 0.561523 1.108948
vt 0.571777 1.120056
vt 0.561523 1.120056
vt 0.437988 1.120056
vt 0.437988 1.108948
vt 0.427734 1.120056
vt 0.427734 1.108948
vt 0.427734 1.061035
vt 0.437988 1.061035
vt 0.571777 1.108948
vt 0.561523 1.061035
vt 0.571777 1.061035
vt 0.561523 1.108948
vt 0.561523 1.120056
vt 0.571777 1.120056
vt 0.437988 1.120056
vt 0.437988 1.108948
vt 0.427734 1.120056
vt 0.427734 1.108948
vt 0.427734 1.061035
vt 0.437988 1.061035
vn 1.0000 0.0000 0.0000
vn 0.0000 -1.0000 0.0000
vn 0.0000 1.0000 0.0000
vn -1.0000 0.0000 0.0000
vn 0.0000 0.0000 1.0000
vn 0.0000 0.0000 -1.0000
usemtl M_Metal_Dark.001
s off
f 1/1/1 2/2/1 3/3/1
f 3/3/1 2/2/1 4/4/1
f 3/5/2 5/6/2 1/7/2
f 5/6/2 3/5/2 6/8/2
f 2/9/3 7/10/3 4/11/3
f 8/12/3 4/11/3 7/10/3
f 9/13/4 10/14/4 11/15/4
f 10/14/4 9/13/4 12/16/4
f 9/13/4 13/17/4 12/16/4
f 12/16/4 13/17/4 14/18/4
f 14/18/4 13/17/4 15/19/4
f 14/18/4 15/19/4 16/20/4
f 16/21/2 15/22/2 17/23/2
f 18/24/2 16/21/2 17/23/2
f 17/23/2 19/25/2 18/24/2
f 19/25/2 17/23/2 20/26/2
f 21/27/3 11/28/3 10/29/3
f 21/27/3 10/29/3 22/30/3
f 22/30/3 23/31/3 21/27/3
f 24/32/3 21/27/3 23/31/3
f 23/33/5 22/34/5 5/35/5
f 1/36/5 5/35/5 22/34/5
f 10/37/5 12/38/5 22/34/5
f 22/34/5 12/38/5 1/36/5
f 14/39/5 1/36/5 12/38/5
f 1/36/5 14/39/5 2/40/5
f 2/40/5 14/39/5 16/41/5
f 2/40/5 16/41/5 18/42/5
f 18/42/5 19/43/5 2/40/5
f 7/44/5 2/40/5 19/43/5
f 17/45/6 8/46/6 20/47/6
f 8/46/6 17/45/6 4/48/6
f 13/49/6 17/45/6 15/50/6
f 13/49/6 4/48/6 17/45/6
f 9/51/6 4/48/6 13/49/6
f 3/52/6 4/48/6 9/51/6
f 11/53/6 3/52/6 9/51/6
f 21/54/6 3/52/6 11/53/6
f 24/55/6 3/52/6 21/54/6
f 3/52/6 24/55/6 6/56/6
