# Blender 3.4.0
# www.blender.org
mtllib SM_Stove.mtl
o SM_Stove
v 0.393525 -0.253440 -0.002377
v 0.393525 0.253440 -0.002377
v 0.393470 0.254045 -0.002377
v 0.393305 -0.254540 -0.002377
v 0.393470 -0.254045 -0.002377
v 0.393305 0.254540 -0.002377
v 0.393030 0.254925 -0.002377
v 0.392645 -0.255200 -0.002377
v 0.393030 -0.254925 -0.002377
v 0.392150 0.255365 -0.002377
v 0.392645 0.255200 -0.002377
v 0.391545 -0.255420 -0.002377
v 0.392150 -0.255365 -0.002377
v -0.391545 -0.255420 -0.002377
v -0.392150 -0.255365 -0.002377
v 0.391545 0.255420 -0.002377
v -0.391545 0.255420 -0.002377
v -0.393030 -0.254925 -0.002377
v -0.392645 -0.255200 -0.002377
v -0.393525 0.253440 -0.002377
v -0.392645 0.255200 -0.002377
v -0.392150 0.255365 -0.002377
v -0.393470 -0.254045 -0.002377
v -0.393305 -0.254540 -0.002377
v -0.393525 -0.253440 -0.002377
v -0.393305 0.254540 -0.002377
v -0.393030 0.254925 -0.002377
v -0.393470 0.254045 -0.002377
v -0.393470 -0.254045 0.002377
v -0.393305 -0.254540 0.002377
v -0.393030 -0.254925 0.002377
v -0.393525 -0.253440 0.002377
v -0.393525 0.253440 0.002377
v -0.392645 -0.255200 0.002377
v -0.392150 -0.255365 0.002377
v 0.391545 -0.255420 0.002377
v -0.391545 -0.255420 0.002377
v 0.392150 -0.255365 0.002377
v 0.392645 -0.255200 0.002377
v -0.393305 0.254540 0.002377
v -0.393470 0.254045 0.002377
v 0.393305 -0.254540 0.002377
v 0.393030 -0.254925 0.002377
v -0.392645 0.255200 0.002377
v -0.393030 0.254925 0.002377
v 0.393470 0.254045 0.002377
v 0.393470 -0.254045 0.002377
v 0.393525 -0.253440 0.002377
v 0.393525 0.253440 0.002377
v -0.391545 0.255420 0.002377
v -0.392150 0.255365 0.002377
v 0.392150 0.255365 0.002377
v 0.391545 0.255420 0.002377
v 0.393030 0.254925 0.002377
v 0.393305 0.254540 0.002377
v 0.392645 0.255200 0.002377
v 0.392645 -0.255200 -0.002377
v 0.393030 -0.254925 -0.002377
v 0.393423 -0.255179 -0.001721
v 0.393038 -0.255456 -0.001721
v 0.393030 -0.254925 0.002377
v 0.392645 -0.255200 0.002377
v 0.393038 -0.255456 0.001721
v 0.393423 -0.255179 0.001721
v -0.392645 -0.255200 0.002377
v -0.393030 -0.254925 0.002377
v -0.393423 -0.255179 0.001721
v -0.393038 -0.255456 0.001721
v -0.393030 -0.254925 -0.002377
v -0.392645 -0.255200 -0.002377
v -0.393038 -0.255456 -0.001721
v -0.393423 -0.255179 -0.001721
v 0.393305 0.254540 -0.002377
v 0.393030 0.254925 -0.002377
v 0.393423 0.255179 -0.001721
v 0.393698 0.254794 -0.001721
v 0.393030 0.254925 0.002377
v 0.393305 0.254540 0.002377
v 0.393698 0.254794 0.001721
v 0.393423 0.255179 0.001721
v 0.393305 -0.254540 0.002377
v 0.393030 -0.254925 0.002377
v 0.393423 -0.255179 0.001721
v 0.393698 -0.254794 0.001721
v 0.393030 -0.254925 -0.002377
v 0.393305 -0.254540 -0.002377
v 0.393698 -0.254794 -0.001721
v 0.393423 -0.255179 -0.001721
v -0.392645 0.255200 -0.002377
v -0.393030 0.254925 -0.002377
v -0.393423 0.255179 -0.001721
v -0.393038 0.255456 -0.001721
v -0.393030 0.254925 0.002377
v -0.392645 0.255200 0.002377
v -0.393038 0.255456 0.001721
v -0.393423 0.255179 0.001721
v 0.392645 0.255200 0.002377
v 0.393030 0.254925 0.002377
v 0.393423 0.255179 0.001721
v 0.393038 0.255456 0.001721
v 0.393030 0.254925 -0.002377
v 0.392645 0.255200 -0.002377
v 0.393038 0.255456 -0.001721
v 0.393423 0.255179 -0.001721
v -0.393305 -0.254540 -0.002377
v -0.393030 -0.254925 -0.002377
v -0.393423 -0.255179 -0.001721
v -0.393698 -0.254794 -0.001721
v -0.393030 -0.254925 0.002377
v -0.393305 -0.254540 0.002377
v -0.393698 -0.254794 0.001721
v -0.393423 -0.255179 0.001721
v -0.393305 0.254540 0.002377
v -0.393030 0.254925 0.002377
v -0.393423 0.255179 0.001721
v -0.393698 0.254794 0.001721
v -0.393030 0.254925 -0.002377
v -0.393305 0.254540 -0.002377
v -0.393698 0.254794 -0.001721
v -0.393423 0.255179 -0.001721
v 0.393038 -0.255456 -0.001721
v 0.393423 -0.255179 -0.001721
v 0.393423 -0.255179 0.001721
v 0.393038 -0.255456 0.001721
v 0.392150 -0.255365 -0.002377
v 0.392645 -0.255200 -0.002377
v 0.392542 -0.255620 -0.001721
v 0.391545 -0.255420 -0.002377
v 0.392542 -0.255620 0.001721
v 0.392645 -0.255200 0.002377
v 0.392150 -0.255365 0.002377
v 0.391936 -0.255675 -0.001721
v -0.391545 -0.255420 -0.002377
v 0.391936 -0.255675 0.001721
v 0.391545 -0.255420 0.002377
v -0.391936 -0.255675 -0.001721
v -0.392150 -0.255365 -0.002377
v -0.391936 -0.255675 0.001721
v -0.391545 -0.255420 0.002377
v -0.392542 -0.255620 -0.001721
v -0.392645 -0.255200 -0.002377
v -0.393038 -0.255456 -0.001721
v -0.392542 -0.255620 0.001721
v -0.392150 -0.255365 0.002377
v -0.393038 -0.255456 0.001721
v -0.392645 -0.255200 0.002377
v -0.393423 -0.255179 -0.001721
v -0.393423 -0.255179 0.001721
v 0.393698 0.254794 -0.001721
v 0.393423 0.255179 -0.001721
v 0.393423 0.255179 0.001721
v 0.393698 0.254794 0.001721
v 0.393470 0.254045 -0.002377
v 0.393305 0.254540 -0.002377
v 0.393864 0.254299 -0.001721
v 0.393525 0.253440 -0.002377
v 0.393864 0.254299 0.001721
v 0.393305 0.254540 0.002377
v 0.393470 0.254045 0.002377
v 0.393918 0.253693 -0.001721
v 0.393525 -0.253440 -0.002377
v 0.393918 0.253693 0.001721
v 0.393525 0.253440 0.002377
v 0.393918 -0.253693 -0.001721
v 0.393470 -0.254045 -0.002377
v 0.393918 -0.253693 0.001721
v 0.393525 -0.253440 0.002377
v 0.393864 -0.254299 -0.001721
v 0.393305 -0.254540 -0.002377
v 0.393698 -0.254794 -0.001721
v 0.393864 -0.254299 0.001721
v 0.393470 -0.254045 0.002377
v 0.393698 -0.254794 0.001721
v 0.393305 -0.254540 0.002377
v 0.393423 -0.255179 -0.001721
v 0.393423 -0.255179 0.001721
v -0.393038 0.255456 -0.001721
v -0.393423 0.255179 -0.001721
v -0.393423 0.255179 0.001721
v -0.393038 0.255456 0.001721
v -0.392150 0.255365 -0.002377
v -0.392645 0.255200 -0.002377
v -0.392542 0.255620 -0.001721
v -0.391545 0.255420 -0.002377
v -0.392542 0.255620 0.001721
v -0.392645 0.255200 0.002377
v -0.392150 0.255365 0.002377
v -0.391936 0.255675 -0.001721
v 0.391545 0.255420 -0.002377
v -0.391936 0.255675 0.001721
v -0.391545 0.255420 0.002377
v 0.391936 0.255675 -0.001721
v 0.392150 0.255365 -0.002377
v 0.391936 0.255675 0.001721
v 0.391545 0.255420 0.002377
v 0.392542 0.255620 -0.001721
v 0.392645 0.255200 -0.002377
v 0.393038 0.255456 -0.001721
v 0.392542 0.255620 0.001721
v 0.392150 0.255365 0.002377
v 0.393038 0.255456 0.001721
v 0.392645 0.255200 0.002377
v 0.393423 0.255179 -0.001721
v 0.393423 0.255179 0.001721
v -0.393698 -0.254794 -0.001721
v -0.393423 -0.255179 -0.001721
v -0.393423 -0.255179 0.001721
v -0.393698 -0.254794 0.001721
v -0.393470 -0.254045 -0.002377
v -0.393305 -0.254540 -0.002377
v -0.393864 -0.254299 -0.001721
v -0.393525 -0.253440 -0.002377
v -0.393864 -0.254299 0.001721
v -0.393305 -0.254540 0.002377
v -0.393470 -0.254045 0.002377
v -0.393918 -0.253693 -0.001721
v -0.393525 0.253440 -0.002377
v -0.393918 -0.253693 0.001721
v -0.393525 -0.253440 0.002377
v -0.393918 0.253693 -0.001721
v -0.393470 0.254045 -0.002377
v -0.393918 0.253693 0.001721
v -0.393525 0.253440 0.002377
v -0.393864 0.254299 -0.001721
v -0.393305 0.254540 -0.002377
v -0.393698 0.254794 -0.001721
v -0.393864 0.254299 0.001721
v -0.393470 0.254045 0.002377
v -0.393698 0.254794 0.001721
v -0.393305 0.254540 0.002377
v -0.393423 0.255179 -0.001721
v -0.393423 0.255179 0.001721
vn -0.0472 -0.9791 0.1976
vn -0.2120 -0.9486 0.2349
vn -0.2120 -0.9486 -0.2349
vn 0.2120 -0.9486 0.2349
vn 0.0471 -0.9791 0.1976
vn 0.0472 -0.9791 -0.1976
vn -0.9370 -0.2050 0.2830
vn -0.8502 -0.4331 0.2991
vn -0.7295 -0.3608 0.5810
vn 0.1572 -0.8833 0.4416
vn 0.0309 -0.9258 0.3767
vn -0.8526 -0.0311 -0.5216
vn -0.8194 -0.1571 -0.5513
vn -0.9370 -0.2050 -0.2830
vn -0.8503 -0.4331 -0.2991
vn -0.8502 -0.4332 0.2991
vn 0.1572 0.8833 -0.4416
vn 0.0309 0.9258 -0.3767
vn 0.0471 0.9791 -0.1976
vn 0.4499 0.8517 0.2685
vn 0.2120 0.9486 0.2349
vn 0.1572 0.8833 0.4417
vn 0.0472 0.9791 0.1976
vn -0.0472 0.9791 0.1976
vn -0.0309 0.9258 0.3767
vn 0.0471 0.9791 0.1976
vn 0.0309 0.9258 0.3767
vn 0.1573 0.8833 0.4417
vn 0.3625 0.7730 0.5207
vn -0.6802 -0.6722 0.2924
vn -0.8503 -0.4331 0.2991
vn -0.8502 -0.4331 -0.2991
vn -0.0471 0.9791 0.1976
vn 0.0472 0.9791 -0.1976
vn 0.2120 0.9486 -0.2349
vn 0.1572 0.8833 0.4416
vn 0.6802 0.6722 -0.2924
vn 0.4499 0.8517 -0.2685
vn 0.6802 0.6722 0.2924
vn -0.7295 -0.3608 -0.5810
vn 0.3625 0.7730 -0.5207
vn 0.1572 0.8833 -0.4417
vn 0.4499 0.8517 -0.2686
vn -0.8503 0.4331 0.2991
vn -0.6802 0.6722 0.2924
vn -0.6802 0.6722 -0.2924
vn -0.8503 0.4331 -0.2991
vn -0.8502 0.4331 0.2991
vn -0.9370 0.2050 0.2830
vn -0.8194 0.1571 0.5513
vn -0.8502 0.4332 -0.2991
vn -0.6802 -0.6722 -0.2924
vn -0.9370 0.2050 -0.2830
vn -0.9601 0.0469 0.2758
vn -0.8526 0.0311 0.5216
vn -0.8502 0.4331 -0.2991
vn -0.7295 0.3608 -0.5810
vn -0.8194 0.1571 -0.5513
vn -0.9601 0.0469 -0.2758
vn -0.9601 0.0470 0.2758
vn -0.9601 0.0470 -0.2757
vn -0.8526 -0.0311 0.5216
vn -0.9601 0.0469 0.2757
vn -0.9601 -0.0469 0.2758
vn -0.9601 0.0470 -0.2758
vn -0.9601 0.0470 0.2757
vn -0.9601 -0.0470 0.2757
vn -0.8526 0.0311 -0.5216
vn -0.9601 -0.0470 -0.2758
vn -0.9601 -0.0470 0.2758
vn -0.9601 -0.0470 -0.2757
vn -0.8194 -0.1571 0.5513
vn -0.9601 -0.0469 -0.2757
vn -0.9601 -0.0469 -0.2758
vn -0.7295 0.3608 0.5810
vn 0.3625 -0.7730 -0.5207
vn 0.5720 -0.5879 -0.5720
vn 0.6802 -0.6722 -0.2924
vn 0.4499 -0.8517 -0.2686
vn 0.5720 -0.5879 0.5720
vn 0.3625 -0.7730 0.5207
vn 0.4499 -0.8517 0.2686
vn 0.6802 -0.6722 0.2924
vn -0.3625 -0.7730 0.5207
vn -0.5720 -0.5879 0.5720
vn -0.5720 -0.5879 -0.5720
vn -0.3625 -0.7730 -0.5207
vn -0.4499 -0.8517 -0.2686
vn 0.7295 0.3608 -0.5810
vn 0.5720 0.5879 -0.5720
vn 0.8503 0.4331 -0.2991
vn 0.5720 0.5879 0.5720
vn 0.7295 0.3608 0.5810
vn 0.8503 0.4331 0.2991
vn 0.8503 0.4332 0.2991
vn 0.7295 -0.3608 0.5810
vn 0.8503 -0.4331 0.2991
vn 0.7295 -0.3608 -0.5810
vn 0.8503 -0.4331 -0.2991
vn 0.8503 -0.4332 -0.2991
vn -0.3625 0.7730 -0.5207
vn -0.5720 0.5879 -0.5720
vn -0.4499 0.8517 -0.2686
vn -0.5720 0.5879 0.5720
vn -0.3625 0.7730 0.5207
vn -0.4499 0.8517 0.2686
vn 0.4499 0.8517 0.2686
vn -0.8503 -0.4332 0.2991
vn -0.8503 0.4332 -0.2991
vn 0.4499 -0.8517 -0.2685
vn 0.4499 -0.8517 0.2685
vn 0.1573 -0.8833 -0.4417
vn 0.2120 -0.9486 -0.2349
vn 0.1572 -0.8833 -0.4417
vn 0.0309 -0.9258 -0.3767
vn 0.1572 -0.8833 -0.4416
vn 0.1572 -0.8833 0.4417
vn 0.0471 -0.9791 -0.1976
vn -0.0309 -0.9258 -0.3767
vn -0.0472 -0.9791 -0.1976
vn -0.0471 -0.9791 -0.1976
vn 0.0472 -0.9791 0.1976
vn -0.1572 -0.8833 -0.4416
vn -0.0309 -0.9258 0.3767
vn -0.0471 -0.9791 0.1976
vn -0.1572 -0.8833 -0.4417
vn -0.4499 -0.8517 0.2686
vn -0.1572 -0.8833 0.4416
vn -0.4499 -0.8517 0.2685
vn -0.4499 -0.8517 -0.2685
vn -0.1572 -0.8833 0.4417
vn -0.1573 -0.8833 0.4417
vn 0.8502 0.4331 -0.2991
vn 0.8194 0.1571 -0.5513
vn 0.9370 0.2050 -0.2830
vn 0.8502 0.4332 0.2991
vn 0.8526 0.0311 -0.5216
vn 0.9370 0.2050 0.2830
vn 0.8502 0.4331 0.2991
vn 0.8194 0.1571 0.5513
vn 0.9601 0.0469 -0.2758
vn 0.8526 -0.0311 -0.5216
vn 0.9601 0.0469 -0.2757
vn 0.9601 0.0470 0.2757
vn 0.9601 0.0469 0.2758
vn 0.9601 0.0470 -0.2758
vn 0.8526 0.0311 0.5216
vn 0.9601 0.0470 -0.2757
vn 0.9601 -0.0470 -0.2757
vn 0.9601 -0.0469 -0.2758
vn 0.9601 0.0470 0.2758
vn 0.8194 -0.1571 -0.5513
vn 0.9601 -0.0470 0.2757
vn 0.9601 -0.0470 0.2758
vn 0.9601 -0.0470 -0.2758
vn 0.8526 -0.0311 0.5216
vn 0.9601 -0.0469 0.2757
vn 0.9370 -0.2050 -0.2830
vn 0.8502 -0.4331 -0.2991
vn 0.9370 -0.2050 0.2830
vn 0.9601 -0.0469 0.2758
vn 0.8194 -0.1571 0.5513
vn 0.8502 -0.4332 -0.2991
vn 0.8502 -0.4331 0.2991
vn -0.4499 0.8517 -0.2685
vn -0.4499 0.8517 0.2685
vn -0.1573 0.8833 -0.4417
vn -0.2120 0.9486 -0.2349
vn -0.1572 0.8833 -0.4417
vn -0.0309 0.9258 -0.3767
vn -0.1572 0.8833 -0.4416
vn -0.2120 0.9486 0.2349
vn -0.1572 0.8833 0.4417
vn -0.0471 0.9791 -0.1976
vn -0.0472 0.9791 -0.1976
vn -0.1572 0.8833 0.4416
vn -0.0000 -0.0000 1.0000
vt 0.999500 0.003900
vt 0.999500 0.996100
vt 0.999500 0.997400
vt 0.999500 0.001500
vt 0.999500 0.002900
vt 0.999500 0.998700
vt 0.999500 1.000000
vt 0.999000 0.000500
vt 0.999500 0.000500
vt 0.998000 1.000000
vt 0.999000 1.000000
vt 0.997100 0.000500
vt 0.998000 0.000500
vt 0.002500 0.000500
vt 0.001700 0.000500
vt 0.997100 1.000000
vt 0.002500 1.000000
vt -0.000000 0.000500
vt 0.000800 0.000500
vt -0.000000 0.996100
vt 0.000800 1.000000
vt 0.001700 1.000000
vt -0.000000 0.002900
vt -0.000000 0.001500
vt -0.000000 0.003900
vt -0.000000 0.998700
vt 0.000000 1.000000
vt -0.000000 0.997400
vt 0.000000 0.002900
vt 0.000000 0.001500
vt 0.000000 0.000000
vt 0.000000 0.003900
vt 0.000000 0.996100
vt 0.000800 0.000000
vt 0.001700 0.000000
vt 0.997100 0.000000
vt 0.002500 0.000000
vt 0.998000 0.000000
vt 0.999000 0.000000
vt 0.000000 0.998700
vt 0.000000 0.997400
vt 1.000000 0.001500
vt 1.000000 0.000000
vt 0.000800 1.000000
vt 0.000000 1.000000
vt 1.000000 0.997400
vt 1.000000 0.002900
vt 1.000000 0.003900
vt 1.000000 0.996100
vt 0.002500 1.000000
vt 0.001700 1.000000
vt 0.998000 1.000000
vt 0.997100 1.000000
vt 1.000000 1.000000
vt 1.000000 0.998700
vt 0.999000 1.000000
vt 0.999000 0.000000
vt 1.000000 0.000000
vt 1.000000 0.333500
vt 0.999000 0.333500
vt 1.000000 1.000000
vt 0.999000 1.000000
vt 0.999000 0.666700
vt 1.000000 0.666700
vt 0.000800 1.000000
vt 0.000000 1.000000
vt 0.000000 0.666700
vt 0.000800 0.666700
vt 0.000000 0.000000
vt 0.000800 0.000000
vt 0.000800 0.333500
vt 0.000000 0.333500
vt 0.998500 0.000000
vt 1.000000 0.000000
vt 1.000000 0.333500
vt 0.998500 0.333500
vt 1.000000 1.000000
vt 0.998500 1.000000
vt 0.998500 0.666700
vt 1.000000 0.666700
vt 0.001300 1.000000
vt 0.000000 1.000000
vt 0.000000 0.666700
vt 0.001300 0.666700
vt 0.000000 0.000000
vt 0.001300 0.000000
vt 0.001300 0.333500
vt 0.000000 0.333500
vt 0.999000 0.000000
vt 1.000000 0.000000
vt 1.000000 0.333500
vt 0.999000 0.333500
vt 1.000000 1.000000
vt 0.999000 1.000000
vt 0.999000 0.666700
vt 1.000000 0.666700
vt 0.000800 1.000000
vt 0.000000 1.000000
vt 0.000000 0.666700
vt 0.000800 0.666700
vt 0.000000 0.000000
vt 0.000800 0.000000
vt 0.000800 0.333500
vt 0.000000 0.333500
vt 0.998500 0.000000
vt 1.000000 0.000000
vt 1.000000 0.333500
vt 0.998500 0.333500
vt 1.000000 1.000000
vt 0.998500 1.000000
vt 0.998500 0.666700
vt 1.000000 0.666700
vt 0.001300 1.000000
vt 0.000000 1.000000
vt 0.000000 0.666700
vt 0.001300 0.666700
vt 0.000000 0.000000
vt 0.001300 0.000000
vt 0.001300 0.333500
vt 0.000000 0.333500
vt 0.999000 0.333500
vt 1.000000 0.333500
vt 1.000000 0.666700
vt 0.999000 0.666700
vt 0.998000 0.000000
vt 0.999000 0.000000
vt 0.998000 0.333500
vt 0.997100 0.000000
vt 0.998000 0.666700
vt 0.999000 1.000000
vt 0.998000 1.000000
vt 0.997100 0.333500
vt 0.002500 0.000000
vt 0.997100 0.666700
vt 0.997100 1.000000
vt 0.002500 0.333500
vt 0.001700 0.000000
vt 0.002500 0.666700
vt 0.002500 1.000000
vt 0.001700 0.333500
vt 0.000800 0.000000
vt 0.000800 0.333500
vt 0.001700 0.666700
vt 0.001700 1.000000
vt 0.000800 0.666700
vt 0.000800 1.000000
vt 0.000000 0.333500
vt 0.000000 0.666700
vt 0.998500 0.333500
vt 1.000000 0.333500
vt 1.000000 0.666700
vt 0.998500 0.666700
vt 0.997100 0.000000
vt 0.998500 0.000000
vt 0.997100 0.333500
vt 0.996100 0.000000
vt 0.997100 0.666700
vt 0.998500 1.000000
vt 0.997100 1.000000
vt 0.996100 0.333500
vt 0.003900 0.000000
vt 0.996100 0.666700
vt 0.996100 1.000000
vt 0.003900 0.333500
vt 0.002600 0.000000
vt 0.003900 0.666700
vt 0.003900 1.000000
vt 0.002600 0.333500
vt 0.001300 0.000000
vt 0.001300 0.333500
vt 0.002600 0.666700
vt 0.002600 1.000000
vt 0.001300 0.666700
vt 0.001300 1.000000
vt 0.000000 0.333500
vt 0.000000 0.666700
vt 0.999000 0.333500
vt 1.000000 0.333500
vt 1.000000 0.666700
vt 0.999000 0.666700
vt 0.998000 0.000000
vt 0.999000 0.000000
vt 0.998000 0.333500
vt 0.997100 0.000000
vt 0.998000 0.666700
vt 0.999000 1.000000
vt 0.998000 1.000000
vt 0.997100 0.333500
vt 0.002500 0.000000
vt 0.997100 0.666700
vt 0.997100 1.000000
vt 0.002500 0.333500
vt 0.001700 0.000000
vt 0.002500 0.666700
vt 0.002500 1.000000
vt 0.001700 0.333500
vt 0.000800 0.000000
vt 0.000800 0.333500
vt 0.001700 0.666700
vt 0.001700 1.000000
vt 0.000800 0.666700
vt 0.000800 1.000000
vt 0.000000 0.333500
vt 0.000000 0.666700
vt 0.998500 0.333500
vt 1.000000 0.333500
vt 1.000000 0.666700
vt 0.998500 0.666700
vt 0.997100 0.000000
vt 0.998500 0.000000
vt 0.997100 0.333500
vt 0.996100 0.000000
vt 0.997100 0.666700
vt 0.998500 1.000000
vt 0.997100 1.000000
vt 0.996100 0.333500
vt 0.003900 0.000000
vt 0.996100 0.666700
vt 0.996100 1.000000
vt 0.003900 0.333500
vt 0.002600 0.000000
vt 0.003900 0.666700
vt 0.003900 1.000000
vt 0.002600 0.333500
vt 0.001300 0.000000
vt 0.001300 0.333500
vt 0.002600 0.666700
vt 0.002600 1.000000
vt 0.001300 0.666700
vt 0.001300 1.000000
vt 0.000000 0.333500
vt 0.000000 0.666700
s 0
usemtl /Game/Materials_Laborraum/M_Basic_Black_02_M_Basic_Black_02
f 138/138/1 143/143/2 140/140/3
f 129/129/4 134/134/5 132/132/6
f 213/213/7 208/208/8 214/214/9
f 131/131/10 135/135/11 134/134/5
f 212/212/12 209/209/13 211/211/14
f 211/211/14 205/205/15 208/208/16
f 193/193/17 189/189/18 192/192/19
f 201/201/20 199/199/21 200/200/22
f 194/194/23 190/190/24 191/191/25
f 199/199/21 194/194/26 195/195/27
f 200/200/28 202/202/29 201/201/20
f 207/207/30 208/208/31 205/205/32
f 190/190/33 194/194/23 192/192/34
f 196/196/35 192/192/19 194/194/23
f 194/194/23 199/199/21 196/196/35
f 195/195/27 200/200/36 199/199/21
f 203/203/37 198/198/38 201/201/20
f 201/201/20 204/204/39 203/203/37
f 209/209/13 210/210/40 205/205/15
f 205/205/15 211/211/14 209/209/13
f 191/191/25 195/195/27 194/194/26
f 192/192/19 196/196/35 193/193/17
f 197/197/41 193/193/42 196/196/35
f 196/196/35 198/198/43 197/197/41
f 198/198/43 196/196/35 199/199/21
f 229/229/44 232/232/45 231/231/46
f 231/231/46 226/226/47 229/229/48
f 199/199/21 201/201/20 198/198/38
f 229/229/44 227/227/49 228/228/50
f 227/227/49 229/229/44 226/226/51
f 205/205/15 206/206/52 207/207/30
f 226/226/47 224/224/53 227/227/49
f 222/222/54 227/227/49 224/224/53
f 227/227/49 222/222/54 223/223/55
f 224/224/53 226/226/56 225/225/57
f 225/225/57 221/221/58 224/224/53
f 224/224/53 220/220/59 222/222/60
f 220/220/61 224/224/53 221/221/58
f 219/219/62 223/223/55 222/222/63
f 218/218/64 222/222/60 220/220/65
f 222/222/66 218/218/67 219/219/62
f 221/221/58 217/217/68 220/220/61
f 220/220/59 216/216/69 218/218/70
f 216/216/71 220/220/61 217/217/68
f 215/215/72 219/219/62 218/218/67
f 213/213/7 218/218/64 216/216/69
f 218/218/67 213/213/7 215/215/72
f 217/217/68 212/212/12 216/216/73
f 216/216/74 211/211/14 213/213/7
f 211/211/14 216/216/74 212/212/12
f 228/228/50 230/230/75 229/229/44
f 57/57/76 58/58/77 59/59/78
f 59/59/78 60/60/79 57/57/76
f 61/61/80 62/62/81 63/63/82
f 63/63/82 64/64/83 61/61/80
f 65/65/84 66/66/85 67/67/30
f 223/223/55 228/228/50 227/227/49
f 69/69/86 70/70/87 71/71/88
f 71/71/88 72/72/52 69/69/86
f 73/73/89 74/74/90 75/75/37
f 75/75/37 76/76/91 73/73/89
f 77/77/92 78/78/93 79/79/94
f 79/79/95 80/80/39 77/77/92
f 81/81/96 82/82/80 83/83/83
f 83/83/83 84/84/97 81/81/96
f 85/85/77 86/86/98 87/87/99
f 87/87/100 88/88/78 85/85/77
f 89/89/101 90/90/102 91/91/46
f 91/91/46 92/92/103 89/89/101
f 93/93/104 94/94/105 95/95/106
f 95/95/106 96/96/45 93/93/104
f 97/97/29 98/98/92 99/99/39
f 99/99/39 100/100/107 97/97/29
f 101/101/90 102/102/41 103/103/43
f 103/103/43 104/104/37 101/101/90
f 105/105/40 106/106/86 107/107/52
f 107/107/52 108/108/15 105/105/40
f 109/109/85 110/110/9 111/111/31
f 111/111/108 112/112/30 109/109/85
f 113/113/75 114/114/104 115/115/45
f 115/115/45 116/116/44 113/113/75
f 117/117/102 118/118/57 119/119/47
f 119/119/109 120/120/46 117/117/102
f 121/121/110 122/122/78 123/123/83
f 123/123/83 124/124/111 121/121/110
f 125/125/112 126/126/76 121/121/110
f 121/121/110 127/127/113 125/125/114
f 127/127/113 121/121/110 124/124/111
f 128/128/115 125/125/116 127/127/113
f 124/124/82 129/129/4 127/127/113
f 129/129/4 124/124/82 130/130/81
f 130/130/81 131/131/117 129/129/4
f 127/127/113 132/132/118 128/128/115
f 132/132/6 127/127/113 129/129/4
f 133/133/119 128/128/115 132/132/118
f 134/134/5 129/129/4 131/131/10
f 214/214/9 215/215/72 213/213/7
f 208/208/31 213/213/7 211/211/14
f 132/132/6 136/136/120 133/133/119
f 136/136/121 132/132/6 134/134/122
f 137/137/123 133/133/119 136/136/121
f 138/138/1 134/134/122 135/135/11
f 134/134/5 138/138/1 136/136/120
f 135/135/11 139/139/124 138/138/125
f 136/136/121 140/140/3 137/137/123
f 140/140/3 136/136/121 138/138/1
f 141/141/87 137/137/126 140/140/3
f 140/140/3 142/142/88 141/141/87
f 143/143/2 138/138/125 139/139/124
f 67/67/30 68/68/127 65/65/84
f 142/142/88 140/140/3 143/143/2
f 139/139/124 144/144/128 143/143/2
f 143/143/2 145/145/129 142/142/130
f 145/145/129 143/143/2 144/144/131
f 144/144/132 146/146/84 145/145/129
f 147/147/52 142/142/130 145/145/129
f 145/145/129 148/148/30 147/147/52
f 149/149/91 150/150/37 151/151/39
f 151/151/39 152/152/94 149/149/133
f 153/153/134 154/154/89 149/149/91
f 149/149/91 155/155/135 153/153/134
f 155/155/135 149/149/91 152/152/136
f 156/156/137 153/153/134 155/155/135
f 152/152/94 157/157/138 155/155/135
f 157/157/138 152/152/139 158/158/93
f 158/158/93 159/159/140 157/157/138
f 155/155/135 160/160/141 156/156/137
f 160/160/141 155/155/135 157/157/138
f 161/161/142 156/156/137 160/160/143
f 162/162/144 157/157/138 159/159/140
f 157/157/138 162/162/145 160/160/146
f 159/159/140 163/163/147 162/162/144
f 160/160/148 164/164/149 161/161/142
f 164/164/150 160/160/146 162/162/151
f 165/165/152 161/161/142 164/164/149
f 166/166/153 162/162/144 163/163/147
f 162/162/145 166/166/154 164/164/155
f 163/163/147 167/167/156 166/166/157
f 164/164/149 168/168/158 165/165/152
f 168/168/158 164/164/150 166/166/154
f 169/169/98 165/165/152 168/168/158
f 168/168/158 170/170/159 169/169/98
f 171/171/160 166/166/161 167/167/156
f 166/166/161 171/171/160 168/168/158
f 170/170/99 168/168/158 171/171/160
f 167/167/156 172/172/162 171/171/160
f 171/171/160 173/173/97 170/170/163
f 173/173/97 171/171/160 172/172/162
f 172/172/162 174/174/96 173/173/97
f 175/175/78 170/170/99 173/173/164
f 173/173/97 176/176/83 175/175/78
f 177/177/165 178/178/46 179/179/45
f 179/179/45 180/180/166 177/177/165
f 181/181/167 182/182/101 177/177/165
f 177/177/165 183/183/168 181/181/169
f 183/183/168 177/177/165 180/180/166
f 184/184/170 181/181/171 183/183/168
f 180/180/106 185/185/172 183/183/168
f 185/185/172 180/180/106 186/186/105
f 186/186/105 187/187/173 185/185/172
f 183/183/168 188/188/174 184/184/170
f 188/188/175 183/183/168 185/185/172
f 189/189/18 184/184/170 188/188/174
f 190/190/33 185/185/172 187/187/176
f 185/185/172 190/190/33 188/188/175
f 187/187/176 191/191/25 190/190/33
f 188/188/175 192/192/34 189/189/18
f 192/192/19 188/188/175 190/190/24
usemtl /Game/Materials_Laborraum/M_Stove_M_Stove
f 20/20/177 23/23/177 18/18/177
f 20/20/177 25/25/177 23/23/177
f 12/12/177 18/18/177 15/15/177
f 21/21/177 26/26/177 20/20/177
f 21/21/177 27/27/177 26/26/177
f 18/18/177 19/19/177 15/15/177
f 12/12/177 13/13/177 8/8/177
f 26/26/177 28/28/177 20/20/177
f 12/12/177 10/10/177 20/20/177
f 3/3/177 7/7/177 10/10/177
f 12/12/177 20/20/177 18/18/177
f 12/12/177 4/4/177 10/10/177
f 7/7/177 11/11/177 10/10/177
f 10/10/177 17/17/177 21/21/177
f 4/4/177 5/5/177 1/1/177
f 17/17/177 22/22/177 21/21/177
f 14/14/177 12/12/177 15/15/177
f 10/10/177 21/21/177 20/20/177
f 23/23/177 24/24/177 18/18/177
f 10/10/177 16/16/177 17/17/177
f 12/12/177 8/8/177 4/4/177
f 4/4/177 3/3/177 10/10/177
f 4/4/177 1/1/177 3/3/177
f 8/8/177 9/9/177 4/4/177
f 3/3/177 6/6/177 7/7/177
f 1/1/177 2/2/177 3/3/177
usemtl /Game/Materials_Laborraum/M_Glass_Stove_M_Glass_Stove
f 44/44/177 45/45/177 40/40/177
f 46/46/177 55/55/177 54/54/177
f 46/46/177 54/54/177 52/52/177
f 52/52/177 53/53/177 50/50/177
f 46/46/177 52/52/177 44/44/177
f 52/52/177 50/50/177 44/44/177
f 50/50/177 51/51/177 44/44/177
f 48/48/177 49/49/177 46/46/177
f 42/42/177 48/48/177 46/46/177
f 42/42/177 47/47/177 48/48/177
f 36/36/177 42/42/177 46/46/177
f 46/46/177 44/44/177 33/33/177
f 36/36/177 46/46/177 33/33/177
f 54/54/177 56/56/177 52/52/177
f 44/44/177 40/40/177 33/33/177
f 39/39/177 43/43/177 42/42/177
f 36/36/177 39/39/177 42/42/177
f 40/40/177 41/41/177 33/33/177
f 36/36/177 38/38/177 39/39/177
f 31/31/177 36/36/177 33/33/177
f 35/35/177 37/37/177 36/36/177
f 31/31/177 35/35/177 36/36/177
f 31/31/177 34/34/177 35/35/177
f 29/29/177 31/31/177 33/33/177
f 32/32/177 29/29/177 33/33/177
f 29/29/177 30/30/177 31/31/177
