# Blender v2.78 (sub 0) OBJ File: ''
# www.blender.org
mtllib big_table_1_translated.mtl
o Shape_IndexedFaceSet.004_Shape_IndexedFaceSet.171
v -0.771252 0.331491 -0.062716
v -0.775681 0.371264 -0.062716
v -0.775681 0.335909 -0.062716
v -0.722643 0.366846 -0.062716
v -0.722643 0.340327 -0.062716
v -0.722643 0.366846 -0.752210
v -0.775681 0.335909 -0.752210
v -0.766840 0.380106 -0.752210
v -0.735913 0.327068 -0.752210
v -0.735913 0.380106 -0.062716
v -0.735913 0.327068 -0.062716
v -0.735913 0.380106 -0.752210
v -0.722643 0.340327 -0.752210
v -0.762416 0.327068 -0.752210
v -0.775681 0.371264 -0.752210
v -0.766840 0.380106 -0.062716
vn 0.0000 -0.0000 1.0000
vn 1.0000 0.0000 0.0000
vn 0.0000 0.0000 -1.0000
vn 0.7068 0.7074 0.0000
vn 0.7068 -0.7074 -0.0000
vn 0.0000 1.0000 0.0000
vn -0.5546 -0.8321 -0.0018
vn -0.1242 -0.9922 0.0048
vn 0.0000 -1.0000 -0.0000
vn -1.0000 0.0000 0.0000
vn -0.7071 0.7071 0.0000
vn -0.7062 -0.7080 -0.0000
usemtl Shape.820
s 1
f 1//1 2//1 3//1
f 4//2 5//2 6//2
f 5//1 4//1 2//1
f 6//3 7//3 8//3
f 5//1 2//1 1//1
f 7//3 6//3 9//3
f 4//4 6//4 10//4
f 2//1 4//1 10//1
f 5//1 1//1 11//1
f 9//5 5//5 11//5
f 6//3 8//3 12//3
f 10//4 6//4 12//4
f 8//6 10//6 12//6
f 6//2 5//2 13//2
f 5//5 9//5 13//5
f 9//3 6//3 13//3
f 1//7 7//7 14//7
f 7//3 9//3 14//3
f 11//8 1//8 14//8
f 9//9 11//9 14//9
f 7//10 2//10 15//10
f 2//11 8//11 15//11
f 8//3 7//3 15//3
f 8//11 2//11 16//11
f 2//1 10//1 16//1
f 10//6 8//6 16//6
f 2//10 7//10 3//10
f 7//12 1//12 3//12
o Shape_IndexedFaceSet.003_Shape_IndexedFaceSet.170
v 0.762416 -0.327068 -0.752210
v 0.735913 -0.327068 -0.062716
v 0.762416 -0.327068 -0.062716
v 0.775681 -0.335909 -0.062716
v 0.775681 -0.371264 -0.062716
v 0.775681 -0.335909 -0.752210
v 0.722643 -0.340327 -0.752210
v 0.766840 -0.380106 -0.752210
v 0.722643 -0.366846 -0.062716
v 0.735913 -0.380106 -0.752210
v 0.735913 -0.380106 -0.062716
v 0.722643 -0.340327 -0.062716
v 0.722643 -0.366846 -0.752210
v 0.735913 -0.327068 -0.752210
v 0.775681 -0.371264 -0.752210
v 0.766840 -0.380106 -0.062716
vn 0.0000 1.0000 0.0000
vn 1.0000 0.0000 0.0000
vn -0.0000 0.0000 -1.0000
vn -0.0000 -0.0000 1.0000
vn -0.7068 -0.7074 -0.0000
vn 0.0000 -1.0000 -0.0000
vn 0.5546 0.8321 0.0000
vn -1.0000 -0.0000 0.0000
vn -0.7068 0.7074 0.0000
vn 0.7071 -0.7071 -0.0000
usemtl Shape.819
s 1
f 17//13 18//13 19//13
f 20//14 21//14 22//14
f 23//15 22//15 24//15
f 21//16 20//16 25//16
f 25//16 20//16 18//16
f 23//15 24//15 26//15
f 25//17 26//17 27//17
f 21//16 25//16 27//16
f 26//18 24//18 27//18
f 20//19 22//19 17//19
f 22//15 23//15 17//15
f 23//20 25//20 28//20
f 18//21 23//21 28//21
f 25//16 18//16 28//16
f 25//20 23//20 29//20
f 23//15 26//15 29//15
f 26//17 25//17 29//17
f 23//21 18//21 30//21
f 17//15 23//15 30//15
f 18//13 17//13 30//13
f 22//14 21//14 31//14
f 24//15 22//15 31//15
f 21//22 24//22 31//22
f 24//22 21//22 32//22
f 21//16 27//16 32//16
f 27//18 24//18 32//18
f 18//16 20//16 19//16
f 20//19 17//19 19//19
o Shape_IndexedFaceSet_Shape_IndexedFaceSet.167
v 0.762310 -0.327064 -0.062716
v -0.775659 -0.371215 -0.062716
v -0.762310 -0.327064 -0.062716
v 0.802200 -0.402205 -0.027357
v 0.802200 0.172374 -0.027357
v -0.802200 0.172374 -0.027357
v 0.802200 0.172374 -0.058296
v -0.802200 -0.402205 -0.027357
v -0.802200 0.172374 -0.058296
v -0.802200 -0.402205 -0.058296
v 0.766707 -0.380101 -0.062716
v 0.802200 -0.402205 -0.058296
vn 0.0000 0.0044 -1.0000
vn 0.0000 0.0000 -1.0000
vn 0.0000 0.0086 -1.0000
vn 0.0000 -0.0000 1.0000
vn 1.0000 0.0000 0.0000
vn 0.0000 1.0000 0.0000
vn -1.0000 -0.0000 0.0000
vn 0.0000 -1.0000 -0.0000
vn -0.0008 -0.1405 -0.9901
vn -0.1643 0.0000 -0.9864
vn 0.0000 -0.1961 -0.9806
vn 0.1236 0.0000 -0.9923
vn 0.0543 0.0045 -0.9985
vn 0.0000 0.0088 -1.0000
vn -0.0231 0.0070 -0.9997
usemtl Shape.821
s 1
f 33//23 34//24 35//25
f 36//26 37//26 38//26
f 37//27 36//27 39//27
f 38//28 37//28 39//28
f 36//26 38//26 40//26
f 38//28 39//28 41//28
f 40//29 38//29 41//29
f 40//29 41//29 42//29
f 36//30 40//30 42//30
f 34//31 43//31 42//31
f 41//32 34//32 42//32
f 42//33 43//33 44//33
f 39//27 36//27 44//27
f 43//34 39//34 44//34
f 36//30 42//30 44//30
f 43//24 34//24 33//23
f 39//35 43//35 33//35
f 41//36 39//36 33//23
f 41//36 33//23 35//25
f 34//37 41//37 35//37
o Shape_IndexedFaceSet.001_Shape_IndexedFaceSet.168
v -0.802200 0.402182 -0.058296
v 0.766704 0.380072 -0.062716
v -0.766707 0.380072 -0.062716
v 0.802197 0.172396 -0.027357
v 0.802197 0.402182 -0.027357
v -0.802200 0.402182 -0.027357
v -0.802200 0.172396 -0.027357
v -0.802200 0.172396 -0.058296
v 0.802197 0.172396 -0.058296
v -0.771105 0.331465 -0.062716
v 0.802197 0.402182 -0.058296
v 0.762307 0.327056 -0.062716
vn 0.0000 0.1960 -0.9806
vn 0.0000 -0.0000 1.0000
vn 0.0000 -1.0000 0.0000
vn -1.0000 0.0000 0.0000
vn 1.0000 -0.0000 0.0000
vn 0.0000 1.0000 0.0000
vn -0.1407 0.0000 -0.9900
vn 0.1236 0.0000 -0.9923
vn 0.0000 0.0000 -1.0000
vn -0.0000 -0.0283 -0.9996
vn -0.0001 -0.0278 -0.9996
vn -0.0001 -0.0280 -0.9996
vn 0.0835 -0.0069 -0.9965
vn 0.0000 -0.0286 -0.9996
vn -0.1171 0.0106 -0.9931
usemtl Shape.822
s 1
f 45//38 46//38 47//38
f 48//39 49//39 50//39
f 48//39 50//39 51//39
f 52//40 48//40 51//40
f 50//41 52//41 51//41
f 49//42 48//42 53//42
f 48//40 52//40 53//40
f 50//43 49//43 45//43
f 52//41 50//41 45//41
f 54//44 52//44 45//44
f 49//42 53//42 55//42
f 53//45 46//45 55//45
f 45//43 49//43 55//43
f 46//38 45//38 55//38
f 54//46 46//46 56//46
f 52//47 54//48 56//49
f 46//50 53//50 56//50
f 53//51 52//47 56//49
f 46//46 54//46 47//46
f 54//52 45//52 47//52
o Shape_IndexedFaceSet.005_Shape_IndexedFaceSet.172
v 0.771252 0.331491 -0.752210
v 0.775681 0.371264 -0.752210
v 0.775681 0.335909 -0.752210
v 0.775681 0.371264 -0.062716
v 0.775681 0.335909 -0.062716
v 0.722643 0.366846 -0.062716
v 0.722643 0.340327 -0.752210
v 0.735913 0.380106 -0.752210
v 0.735913 0.327068 -0.062716
v 0.766840 0.380106 -0.062716
v 0.735913 0.327068 -0.752210
v 0.735913 0.380106 -0.062716
v 0.722643 0.366846 -0.752210
v 0.722643 0.340327 -0.062716
v 0.762416 0.327068 -0.062716
v 0.766840 0.380106 -0.752210
vn 0.0000 0.0000 -1.0000
vn 1.0000 0.0000 0.0000
vn 0.0000 -0.0000 1.0000
vn 0.7071 0.7071 0.0000
vn -0.7068 -0.7074 -0.0000
vn -0.7068 0.7074 0.0000
vn 0.0000 1.0000 0.0000
vn -1.0000 0.0000 0.0000
vn 0.5546 -0.8321 0.0018
vn 0.1242 -0.9922 -0.0048
vn 0.0000 -1.0000 -0.0000
vn 0.7062 -0.7080 -0.0000
usemtl Shape.817
s 1
f 57//53 58//53 59//53
f 60//54 61//54 58//54
f 61//55 60//55 62//55
f 58//53 63//53 64//53
f 63//53 58//53 57//53
f 61//55 62//55 65//55
f 60//56 58//56 66//56
f 62//55 60//55 66//55
f 63//53 57//53 67//53
f 65//57 63//57 67//57
f 64//58 62//58 68//58
f 62//55 66//55 68//55
f 66//59 64//59 68//59
f 63//60 62//60 69//60
f 62//58 64//58 69//58
f 64//53 63//53 69//53
f 62//60 63//60 70//60
f 63//57 65//57 70//57
f 65//55 62//55 70//55
f 57//61 61//61 71//61
f 61//55 65//55 71//55
f 67//62 57//62 71//62
f 65//63 67//63 71//63
f 58//53 64//53 72//53
f 66//56 58//56 72//56
f 64//59 66//59 72//59
f 58//54 61//54 59//54
f 61//64 57//64 59//64
o Shape_IndexedFaceSet.002_Shape_IndexedFaceSet.169
v -0.762416 -0.327068 -0.062716
v -0.735913 -0.327068 -0.752210
v -0.762416 -0.327068 -0.752210
v -0.722643 -0.340327 -0.062716
v -0.722643 -0.366846 -0.062716
v -0.722643 -0.340327 -0.752210
v -0.775681 -0.335909 -0.752210
v -0.766840 -0.380106 -0.752210
v -0.775681 -0.371264 -0.062716
v -0.735913 -0.380106 -0.752210
v -0.735913 -0.380106 -0.062716
v -0.775681 -0.335909 -0.062716
v -0.722643 -0.366846 -0.752210
v -0.735913 -0.327068 -0.062716
v -0.775681 -0.371264 -0.752210
v -0.766840 -0.380106 -0.062716
vn 0.0000 1.0000 0.0000
vn 1.0000 0.0000 0.0000
vn 0.0000 0.0000 -1.0000
vn 0.0000 -0.0000 1.0000
vn 0.7068 0.7074 0.0000
vn 0.7068 -0.7074 -0.0000
vn 0.0000 -1.0000 -0.0000
vn -1.0000 0.0000 0.0000
vn -0.5546 0.8321 0.0000
vn -0.7071 -0.7071 -0.0000
usemtl Shape.818
s 1
f 73//65 74//65 75//65
f 76//66 77//66 78//66
f 79//67 78//67 80//67
f 77//68 76//68 81//68
f 81//68 76//68 73//68
f 80//67 78//67 82//67
f 76//69 78//69 74//69
f 78//67 79//67 74//67
f 77//68 81//68 83//68
f 82//70 77//70 83//70
f 80//71 82//71 83//71
f 79//72 81//72 84//72
f 73//73 79//73 84//73
f 81//68 73//68 84//68
f 78//66 77//66 85//66
f 77//70 82//70 85//70
f 82//67 78//67 85//67
f 73//68 76//68 86//68
f 76//69 74//69 86//69
f 74//65 73//65 86//65
f 79//67 80//67 87//67
f 80//74 81//74 87//74
f 81//72 79//72 87//72
f 81//74 80//74 88//74
f 83//68 81//68 88//68
f 80//71 83//71 88//71
f 79//73 73//73 75//73
f 74//67 79//67 75//67
