# Blender v2.78 (sub 0) OBJ File: ''
# www.blender.org
mtllib big_table_1.mtl
o Shape_IndexedFaceSet.001_Shape_IndexedFaceSet.186
v 0.776311 0.333730 0.676915
v 0.728992 0.324262 0.676915
v 0.766848 0.324262 0.676915
v 0.766848 0.324262 -0.004734
v 0.728992 0.324262 -0.004734
v 0.776311 0.381055 -0.004734
v 0.728992 0.381055 0.676915
v 0.719518 0.371587 -0.004734
v 0.776311 0.381055 0.676915
v 0.719518 0.333730 0.676915
v 0.728992 0.381055 -0.004734
v 0.776311 0.333730 -0.004734
v 0.719518 0.371587 0.676915
v 0.719518 0.333730 -0.004734
v 0.766758 -0.385703 0.676915
v -0.804661 -0.404729 0.686390
v -0.766695 -0.385703 0.676915
v 0.804724 -0.404729 0.724251
v 0.804724 0.144323 0.724251
v -0.804661 0.144323 0.724251
v 0.804724 0.144323 0.686390
v -0.804661 -0.404729 0.724251
v -0.804661 0.144323 0.686390
v -0.776147 -0.376244 0.676915
v 0.804724 -0.404729 0.686390
v 0.757305 -0.319436 0.676915
v -0.757242 -0.319436 0.676915
v 0.776311 -0.329000 -0.004734
v 0.738460 -0.319523 -0.004734
v 0.757380 -0.319523 -0.004734
v 0.738460 -0.385794 -0.004734
v 0.766848 -0.385794 -0.004734
v 0.738460 -0.385794 0.676915
v 0.719518 -0.338458 -0.004734
v 0.757380 -0.319523 0.676915
v 0.776311 -0.376316 0.676915
v 0.719518 -0.376316 0.676915
v 0.719518 -0.338458 0.676915
v 0.776311 -0.329000 0.676915
v 0.719518 -0.376316 -0.004734
v 0.776311 -0.376316 -0.004734
v 0.738460 -0.319523 0.676915
v 0.766848 -0.385794 0.676915
v 0.766724 0.324231 0.676915
v -0.804602 0.144429 0.686390
v -0.766796 0.324231 0.676915
v 0.804688 0.144429 0.724251
v 0.804688 0.409462 0.724251
v -0.804602 0.409462 0.724251
v -0.804602 0.144429 0.724251
v 0.804688 0.144429 0.686390
v -0.804602 0.409462 0.686390
v -0.776248 0.333701 0.676915
v 0.804688 0.409462 0.686390
v 0.776175 0.381026 0.676915
v -0.776248 0.381026 0.676915
v -0.728992 0.324262 0.676915
v -0.776311 0.333730 0.676915
v -0.766848 0.324262 0.676915
v -0.728992 0.324262 -0.004734
v -0.766848 0.324262 -0.004734
v -0.776311 0.381055 -0.004734
v -0.728992 0.381055 0.676915
v -0.719518 0.371587 -0.004734
v -0.776311 0.381055 0.676915
v -0.719518 0.333730 0.676915
v -0.728992 0.381055 -0.004734
v -0.776311 0.333730 -0.004734
v -0.719518 0.333730 -0.004734
v -0.719518 0.371587 0.676915
v -0.738460 -0.319523 0.676915
v -0.757380 -0.319523 -0.004734
v -0.757380 -0.319523 0.676915
v -0.766848 -0.385794 -0.004734
v -0.738460 -0.385794 -0.004734
v -0.766848 -0.385794 0.676915
v -0.776311 -0.329000 -0.004734
v -0.719518 -0.376316 0.676915
v -0.719518 -0.338458 -0.004734
v -0.776311 -0.329000 0.676915
v -0.776311 -0.376316 0.676915
v -0.719518 -0.376316 -0.004734
v -0.719518 -0.338458 0.676915
v -0.776311 -0.376316 -0.004734
v -0.738460 -0.319523 -0.004734
v -0.738460 -0.385794 0.676915
vn 0.0000 -0.0526 -0.9986
vn 0.0000 -0.0000 1.0000
vn 0.0000 -1.0000 0.0000
vn -1.0000 0.0000 0.0000
vn 1.0000 0.0000 0.0000
vn 0.0000 1.0000 0.0000
vn -0.3169 0.0000 -0.9484
vn 0.3153 0.0000 -0.9490
vn 0.0000 0.3161 -0.9487
vn 0.0000 0.0000 -1.0000
vn 0.1382 -0.0230 -0.9901
vn -0.0435 -0.0434 -0.9981
vn -0.7069 -0.7073 -0.0000
vn -0.7069 0.7073 0.0000
vn 0.7073 -0.7069 -0.0000
vn 0.0000 -0.4458 -0.8951
vn -0.3153 0.0000 -0.9490
vn 0.2421 0.0000 -0.9702
vn 0.0831 0.0119 -0.9965
vn 0.0000 0.0204 -0.9998
vn -0.0469 0.0156 -0.9988
vn -0.1619 -0.1618 -0.9735
vn -0.4475 -0.8943 -0.0000
vn -0.7070 0.7072 0.0000
vn 0.4477 0.8942 0.0000
vn 0.4476 0.8942 0.0000
vn 0.7077 -0.7065 -0.0000
vn 0.7069 -0.7073 -0.0000
vn 0.7069 0.7073 0.0000
vn -0.7073 -0.7069 -0.0000
vn -0.4476 0.8942 0.0000
vn -0.4477 0.8942 0.0000
vn -0.7077 -0.7065 -0.0000
vn 0.4475 -0.8943 -0.0000
vn 0.7070 0.7072 0.0000
usemtl Shape.210
s 1
f 44//1 45//1 46//1
f 47//2 48//2 49//2
f 47//2 49//2 50//2
f 45//3 47//3 50//3
f 49//4 45//4 50//4
f 48//5 47//5 51//5
f 47//3 45//3 51//3
f 49//6 48//6 52//6
f 45//4 49//4 52//4
f 53//7 45//7 52//7
f 48//5 51//5 54//5
f 51//8 55//8 54//8
f 52//6 48//6 54//6
f 55//9 52//9 54//9
f 53//10 55//10 44//10
f 55//11 51//11 44//11
f 51//1 45//1 44//1
f 55//10 53//10 56//10
f 53//7 52//7 56//7
f 52//9 55//9 56//9
f 45//12 53//12 46//12
f 53//10 44//10 46//10
usemtl Shape.214
f 1//2 2//2 3//2
f 4//10 5//10 6//10
f 5//3 4//3 2//3
f 1//2 7//2 2//2
f 6//10 5//10 8//10
f 6//6 7//6 9//6
f 7//2 1//2 9//2
f 1//5 6//5 9//5
f 5//13 2//13 10//13
f 2//2 7//2 10//2
f 7//6 6//6 11//6
f 8//14 7//14 11//14
f 6//10 8//10 11//10
f 4//10 6//10 12//10
f 6//5 1//5 12//5
f 1//15 4//15 12//15
f 7//14 8//14 13//14
f 10//2 7//2 13//2
f 8//4 10//4 13//4
f 8//10 5//10 14//10
f 5//13 10//13 14//13
f 10//4 8//4 14//4
f 4//15 1//15 3//15
f 2//3 4//3 3//3
usemtl Shape.209
f 15//16 16//16 17//16
f 18//2 19//2 20//2
f 19//5 18//5 21//5
f 20//6 19//6 21//6
f 18//2 20//2 22//2
f 20//6 21//6 23//6
f 22//4 20//4 23//4
f 22//4 23//4 16//4
f 18//3 22//3 16//3
f 23//17 24//17 16//17
f 16//16 15//16 25//16
f 21//5 18//5 25//5
f 15//18 21//18 25//18
f 18//3 16//3 25//3
f 15//10 24//10 26//10
f 21//19 15//19 26//19
f 23//20 21//20 26//20
f 23//20 26//20 27//20
f 24//21 23//21 27//21
f 26//10 24//10 27//10
f 24//10 15//10 17//10
f 16//22 24//22 17//22
usemtl Shape.212
f 28//10 29//10 30//10
f 31//3 32//3 33//3
f 32//10 31//10 34//10
f 32//10 34//10 28//10
f 35//2 33//2 36//2
f 31//23 33//23 37//23
f 33//2 35//2 37//2
f 34//4 37//4 38//4
f 37//2 35//2 38//2
f 28//10 34//10 29//10
f 34//24 38//24 29//24
f 28//25 35//26 39//26
f 35//2 36//2 39//2
f 36//5 28//5 39//5
f 34//10 31//10 40//10
f 31//23 37//23 40//23
f 37//4 34//4 40//4
f 32//10 28//10 41//10
f 36//27 32//27 41//27
f 28//5 36//5 41//5
f 38//2 35//2 42//2
f 35//6 29//6 42//6
f 29//24 38//24 42//24
f 33//3 32//3 43//3
f 32//27 36//27 43//27
f 36//2 33//2 43//2
f 35//26 28//25 30//25
f 29//6 35//6 30//6
usemtl Shape.213
f 57//2 58//2 59//2
f 60//10 61//10 62//10
f 61//3 60//3 57//3
f 63//2 58//2 57//2
f 60//10 62//10 64//10
f 63//6 62//6 65//6
f 58//2 63//2 65//2
f 62//4 58//4 65//4
f 63//2 57//2 66//2
f 57//28 60//28 66//28
f 62//6 63//6 67//6
f 64//10 62//10 67//10
f 63//29 64//29 67//29
f 62//10 61//10 68//10
f 58//4 62//4 68//4
f 61//30 58//30 68//30
f 60//10 64//10 69//10
f 66//28 60//28 69//28
f 64//5 66//5 69//5
f 64//29 63//29 70//29
f 63//2 66//2 70//2
f 66//5 64//5 70//5
f 58//30 61//30 59//30
f 61//3 57//3 59//3
usemtl Shape.211
f 71//6 72//6 73//6
f 74//3 75//3 76//3
f 75//10 74//10 77//10
f 71//2 76//2 78//2
f 75//10 77//10 79//10
f 76//2 71//2 80//2
f 77//31 80//32 72//31
f 79//10 77//10 72//10
f 74//33 76//33 81//33
f 76//2 80//2 81//2
f 80//4 77//4 81//4
f 78//34 75//34 82//34
f 75//10 79//10 82//10
f 79//5 78//5 82//5
f 71//2 78//2 83//2
f 79//35 71//35 83//35
f 78//5 79//5 83//5
f 77//10 74//10 84//10
f 74//33 81//33 84//33
f 81//4 77//4 84//4
f 71//35 79//35 85//35
f 72//6 71//6 85//6
f 79//10 72//10 85//10
f 76//3 75//3 86//3
f 75//34 78//34 86//34
f 78//2 76//2 86//2
f 80//2 71//2 73//2
f 72//31 80//32 73//32
