# Blender v2.78 (sub 0) OBJ File: ''
# www.blender.org
mtllib DishWasherDoor.mtl
o Shape_IndexedFaceSet_Shape_IndexedFaceSet.182
v 0.010957 0.297864 -0.033733
v 0.008490 0.297922 0.683733
v 0.010957 0.297864 0.683733
v -0.011233 -0.298674 -0.033733
v -0.008765 -0.298733 -0.033733
v -0.011233 -0.298674 0.683733
v 0.010957 -0.298733 0.683733
v -0.011233 0.297922 -0.033733
v 0.010957 -0.298733 -0.033733
v -0.011233 0.297922 0.683733
vn 0.0235 0.9997 0.0000
vn -0.0239 -0.9997 -0.0000
vn 0.0000 -0.0000 1.0000
vn -0.0027 -1.0000 0.0001
vn -0.0019 -1.0000 0.0001
vn -0.0008 -1.0000 0.0000
vn 0.0000 0.0000 -1.0000
vn -1.0000 0.0000 0.0000
vn 0.0018 1.0000 -0.0001
vn 0.0026 1.0000 -0.0001
vn 0.0007 1.0000 -0.0000
vn 0.0000 -1.0000 -0.0000
vn 1.0000 0.0000 0.0000
vn 0.0000 1.0000 0.0000
usemtl Shape.832
s 1
f 1//1 2//1 3//1
f 4//2 5//2 6//2
f 2//3 6//3 7//3
f 6//4 5//5 7//6
f 5//7 4//7 1//7
f 1//7 4//7 8//7
f 4//8 6//8 8//8
f 2//9 1//10 8//11
f 7//6 5//5 9//12
f 5//7 1//7 9//7
f 1//13 7//13 9//13
f 6//3 2//3 10//3
f 8//8 6//8 10//8
f 2//9 8//11 10//14
f 2//3 7//3 3//3
f 7//13 1//13 3//13
