# Blender v2.78 (sub 0) OBJ File: ''
# www.blender.org
mtllib DishWasher.mtl
o Shape_IndexedFaceSet.001_Shape_IndexedFaceSet.174
v 0.271011 0.019072 0.314867
v 0.271011 -0.229823 0.311207
v -0.259806 0.019072 0.311207
v 0.271011 -0.251804 0.336831
v 0.271011 0.019072 0.336831
v -0.281831 0.019072 0.336831
v -0.281831 -0.251804 0.311207
v 0.271011 -0.251804 0.311207
v -0.281831 0.019072 0.311207
v -0.281831 -0.251804 0.336831
vn 0.0069 0.0147 -0.9999
vn 0.0000 -0.0000 1.0000
vn 1.0000 0.0000 0.0000
vn 0.0000 1.0000 0.0000
vn 0.0000 -1.0000 -0.0000
vn -1.0000 0.0000 0.0000
vn -0.0000 0.0000 -1.0000
usemtl Shape.829
s 1
f 1//1 2//1 3//1
f 4//2 5//2 6//2
f 5//3 4//3 1//3
f 6//4 5//4 1//4
f 4//5 7//5 8//5
f 1//3 4//3 8//3
f 7//6 6//6 9//6
f 6//4 1//4 9//4
f 8//7 7//7 9//7
f 7//5 4//5 10//5
f 4//2 6//2 10//2
f 6//6 7//6 10//6
f 1//3 8//3 2//3
f 8//7 9//7 2//7
f 2//7 9//7 3//7
f 9//4 1//4 3//4
o Shape_IndexedFaceSet.007_Shape_IndexedFaceSet.180
v -0.259865 0.224126 0.018306
v -0.256205 0.224126 0.336831
v -0.256205 0.019098 0.314849
v -0.281831 0.224126 0.018306
v -0.281831 0.019098 0.018306
v -0.281831 0.019098 0.336831
v -0.259865 0.019098 0.018306
v -0.281831 0.224126 0.336831
v -0.256205 0.019098 0.336831
vn 0.9999 0.0008 -0.0117
vn 1.0000 0.0003 -0.0031
vn 0.9999 0.0004 -0.0122
vn -1.0000 -0.0000 0.0000
vn 0.0000 0.0000 -1.0000
vn 0.0000 -1.0000 -0.0000
vn 0.0000 1.0000 0.0000
vn 0.0000 -0.0000 1.0000
vn 0.9999 0.0000 -0.0123
vn 1.0000 0.0000 0.0000
usemtl Shape.831
s 1
f 11//8 12//9 13//10
f 14//11 15//11 16//11
f 15//12 14//12 17//12
f 16//13 15//13 17//13
f 12//14 14//14 18//14
f 14//11 16//11 18//11
f 16//15 12//15 18//15
f 12//15 16//15 19//15
f 16//13 17//13 19//13
f 14//14 12//14 11//14
f 17//12 14//12 11//12
f 17//16 11//8 13//10
f 12//9 19//17 13//10
f 19//13 17//13 13//13
o Shape_IndexedFaceSet.004_Shape_IndexedFaceSet.177
v -0.259867 0.019072 -0.311202
v -0.256207 -0.229823 0.311176
v -0.256207 -0.229850 -0.311202
v -0.281831 -0.251804 -0.311202
v -0.281831 0.019072 -0.311202
v -0.256207 -0.251804 -0.311202
v -0.281831 -0.251804 0.311176
v -0.259867 0.019072 0.311176
v -0.281831 0.019072 0.311176
v -0.256207 -0.251804 0.311176
vn 0.9999 0.0147 -0.0000
vn 0.0000 0.0000 -1.0000
vn -1.0000 -0.0000 0.0000
vn 0.0000 -1.0000 -0.0000
vn 0.0000 -0.0000 1.0000
vn 0.0000 1.0000 0.0000
vn 1.0000 0.0000 0.0000
vn -0.0002 0.0000 -1.0000
usemtl Shape.826
s 1
f 20//18 21//18 22//18
f 23//19 24//19 25//19
f 24//20 23//20 26//20
f 23//21 25//21 26//21
f 26//22 21//22 27//22
f 25//19 24//19 20//19
f 24//23 27//23 20//23
f 27//18 21//18 20//18
f 24//20 26//20 28//20
f 27//23 24//23 28//23
f 26//22 27//22 28//22
f 25//24 21//24 29//24
f 21//22 26//22 29//22
f 26//21 25//21 29//21
f 21//24 25//24 22//24
f 25//19 20//19 22//25
o Shape_IndexedFaceSet.006_Shape_IndexedFaceSet.179
v -0.256202 0.224126 0.336831
v 0.271011 0.224126 0.314863
v -0.256202 0.224126 0.314863
v 0.271011 0.224126 0.336831
v 0.271011 0.019098 0.336831
v -0.256202 0.019098 0.314863
v 0.271011 0.019098 0.314863
v -0.256202 0.019098 0.336831
vn 0.0000 1.0000 0.0000
vn 1.0000 0.0000 0.0000
vn 0.0000 -0.0000 1.0000
vn 0.0000 -1.0000 -0.0000
vn 0.0000 0.0000 -1.0000
vn -1.0000 0.0000 0.0000
usemtl Shape.827
s 1
f 30//26 31//26 32//26
f 33//27 34//27 31//27
f 34//28 33//28 30//28
f 33//26 31//26 30//26
f 34//29 35//29 36//29
f 31//27 34//27 36//27
f 35//30 31//30 36//30
f 35//29 34//29 37//29
f 30//31 35//31 37//31
f 34//28 30//28 37//28
f 31//30 35//30 32//30
f 35//31 30//31 32//31
o Shape_IndexedFaceSet.003_Shape_IndexedFaceSet.176
v 0.271011 0.227789 0.018306
v 0.271011 0.224126 0.314849
v -0.259860 0.224126 0.018306
v -0.281831 0.253412 0.018306
v -0.281831 0.224126 0.018306
v -0.281831 0.224126 0.336831
v 0.271011 0.224126 0.336831
v 0.271011 0.253412 0.336831
v -0.281831 0.253412 0.336831
v 0.271011 0.253412 0.018306
vn 0.0069 -0.9999 -0.0124
vn -1.0000 0.0000 0.0000
vn 0.0000 0.0000 -1.0000
vn 0.0000 -1.0000 -0.0000
vn 0.0000 -0.0000 1.0000
vn 1.0000 -0.0000 0.0000
vn 0.0000 1.0000 0.0000
vn 1.0000 -0.0001 0.0000
usemtl Shape.828
s 1
f 38//32 39//32 40//32
f 41//33 42//33 43//33
f 42//34 41//34 38//34
f 43//35 42//35 44//35
f 45//36 43//36 44//36
f 38//37 45//37 44//37
f 45//38 41//38 46//38
f 41//33 43//33 46//33
f 43//36 45//36 46//36
f 41//38 45//38 47//38
f 45//37 38//37 47//37
f 38//34 41//34 47//34
f 44//35 42//35 39//35
f 38//37 44//37 39//39
f 42//34 38//34 40//34
f 39//35 42//35 40//35
o Shape_IndexedFaceSet.002_Shape_IndexedFaceSet.175
v 0.270953 0.227787 -0.311202
v -0.256151 0.253415 -0.311202
v 0.270953 0.253415 -0.311202
v -0.256151 0.227787 -0.311202
v -0.256151 0.227787 0.018306
v 0.270953 0.253415 0.018306
v -0.256151 0.253415 0.018306
v 0.270953 0.227787 0.018306
vn 0.0000 0.0000 -1.0000
vn -1.0000 0.0000 0.0000
vn 0.0000 -1.0000 -0.0000
vn 0.0000 -0.0000 1.0000
vn 0.0000 1.0000 0.0000
vn 1.0000 0.0000 0.0000
usemtl Shape.825
s 1
f 48//40 49//40 50//40
f 51//41 52//41 49//41
f 52//42 51//42 48//42
f 51//40 49//40 48//40
f 52//43 53//43 54//43
f 49//41 52//41 54//41
f 53//44 49//44 54//44
f 53//43 52//43 55//43
f 48//45 53//45 55//45
f 52//42 48//42 55//42
f 49//44 53//44 50//44
f 53//45 48//45 50//45
o Shape_IndexedFaceSet_Shape_IndexedFaceSet.173
v 0.271011 -0.251804 -0.311210
v -0.281831 0.253415 -0.311210
v -0.281831 -0.251804 -0.311210
v 0.271011 0.253415 -0.311210
v 0.271011 0.253415 -0.336831
v -0.281831 -0.251804 -0.336831
v 0.271011 -0.251804 -0.336831
v -0.281831 0.253415 -0.336831
vn 0.0000 -0.0000 1.0000
vn 0.0000 1.0000 0.0000
vn 1.0000 0.0000 0.0000
vn 0.0000 0.0000 -1.0000
vn 0.0000 -1.0000 -0.0000
vn -1.0000 0.0000 0.0000
usemtl Shape.823
s 1
f 56//46 57//46 58//46
f 59//47 60//47 57//47
f 60//48 59//48 56//48
f 59//46 57//46 56//46
f 61//49 60//49 62//49
f 56//50 61//50 62//50
f 60//48 56//48 62//48
f 60//49 61//49 63//49
f 57//47 60//47 63//47
f 61//51 57//51 63//51
f 57//51 61//51 58//51
f 61//50 56//50 58//50
o Shape_IndexedFaceSet.005_Shape_IndexedFaceSet.178
v 0.271011 -0.229870 -0.311202
v 0.271011 -0.251831 0.311176
v 0.271011 -0.251831 -0.311202
v 0.271011 -0.229870 0.311176
v -0.256202 -0.229870 0.311176
v -0.256202 -0.251831 -0.311202
v -0.256202 -0.251831 0.311176
v -0.256202 -0.229870 -0.311202
vn 1.0000 0.0000 0.0000
vn 0.0000 0.0000 1.0000
vn 0.0000 1.0000 0.0000
vn -1.0000 0.0000 0.0000
vn 0.0000 -1.0000 -0.0000
vn 0.0000 0.0000 -1.0000
usemtl Shape.824
s 1
f 64//52 65//52 66//52
f 67//53 68//53 65//53
f 68//54 67//54 64//54
f 67//52 65//52 64//52
f 68//55 69//55 70//55
f 65//53 68//53 70//53
f 69//56 65//56 70//56
f 69//55 68//55 71//55
f 64//57 69//57 71//57
f 68//54 64//54 71//54
f 65//56 69//56 66//56
f 69//57 64//57 66//57
o Shape_IndexedFaceSet.008_Shape_IndexedFaceSet.181
v -0.256205 0.227773 -0.311202
v -0.256205 0.253392 0.018306
v -0.256205 0.227773 0.018306
v -0.281831 0.253415 -0.311202
v -0.281831 0.019098 -0.311202
v -0.281831 0.019098 0.018306
v -0.259865 0.019098 -0.311202
v -0.281831 0.253415 0.018306
v -0.256205 0.253392 -0.311202
v -0.259865 0.019098 0.018306
vn 1.0000 -0.0000 0.0000
vn -1.0000 0.0000 0.0000
vn 0.0000 0.0000 -1.0000
vn 0.0000 -1.0000 -0.0000
vn 0.0009 1.0000 0.0000
vn 0.0000 -0.0000 1.0000
vn 0.9998 -0.0175 -0.0000
usemtl Shape.830
s 1
f 72//58 73//58 74//58
f 75//59 76//59 77//59
f 76//60 75//60 78//60
f 77//61 76//61 78//61
f 73//62 75//62 79//62
f 75//59 77//59 79//59
f 77//63 73//63 79//63
f 75//62 73//62 80//62
f 78//60 75//60 80//60
f 73//63 77//63 81//63
f 77//61 78//61 81//61
f 81//64 78//64 72//64
f 80//58 73//58 72//58
f 78//60 80//60 72//60
f 73//63 81//63 74//63
f 81//64 72//64 74//64
