# Blender v2.78 (sub 0) OBJ File: ''
# www.blender.org
mtllib FridgeDoor_color.mtl
o Shape_IndexedFaceSet_Shape_IndexedFaceSet.207
v -0.000736 -0.000070 0.484755
v -0.000737 -0.599755 0.484755
v -0.000736 -0.514044 -0.087878
v -0.009755 -0.599696 -0.484755
v -0.005245 -0.599755 -0.484755
v -0.005245 -0.599755 0.484755
v -0.009755 -0.000012 0.484755
v -0.005245 -0.000012 -0.484755
v -0.000737 -0.599755 -0.484755
v -0.000736 -0.000070 -0.484755
v -0.009755 -0.000012 -0.484755
v -0.009755 -0.599696 0.484755
vn 1.0000 -0.0000 0.0000
vn -0.0131 -0.9999 -0.0000
vn -0.0065 -1.0000 -0.0000
vn 0.0000 -0.0000 1.0000
vn 0.0000 0.0000 -1.0000
vn 0.0019 1.0000 -0.0000
vn 0.0111 0.9999 -0.0000
vn 0.0064 1.0000 0.0000
vn 0.0000 -1.0000 -0.0000
vn 0.0129 0.9999 0.0000
vn -1.0000 0.0000 0.0000
vn 0.0000 1.0000 0.0000
usemtl Shape.231
s 1
f 1//1 2//1 3//1
f 4//2 5//3 6//3
f 6//4 1//4 7//4
f 5//5 4//5 8//5
f 7//6 1//7 8//8
f 6//3 5//3 9//9
f 5//5 8//5 9//5
f 8//8 1//7 10//10
f 9//5 8//5 10//5
f 4//11 7//11 11//11
f 8//5 4//5 11//5
f 7//6 8//8 11//12
f 4//2 6//3 12//2
f 6//4 7//4 12//4
f 7//11 4//11 12//11
f 1//4 6//4 2//4
f 6//3 9//9 2//9
f 2//1 9//1 3//1
f 10//1 1//1 3//1
f 9//1 10//1 3//1
