# Blender v2.78 (sub 0) OBJ File: ''
# www.blender.org
mtllib FridgeArea.mtl
o Shape_IndexedFaceSet.005_Shape_IndexedFaceSet.252
v -0.292786 -0.269354 -0.752786
v 0.225406 0.003644 -0.752786
v 0.225406 -0.269354 -0.752786
v 0.225406 0.003671 -0.652497
v 0.225406 0.003671 -0.596771
v 0.225406 -0.269354 -0.596786
v -0.292786 0.003644 -0.596786
v -0.292786 0.003644 -0.752786
v -0.292786 -0.269354 -0.596786
vn 0.0000 0.0000 -1.0000
vn 1.0000 0.0000 0.0000
vn -0.0001 1.0000 0.0000
vn -0.0000 1.0000 -0.0001
vn -1.0000 0.0000 0.0000
vn -0.0000 1.0000 -0.0000
vn 0.0000 1.0000 -0.0003
vn 0.0000 -0.0001 1.0000
vn -0.0000 -0.0000 1.0000
vn 0.0000 -1.0000 -0.0000
usemtl Shape.918
s 1
f 1//1 2//1 3//1
f 4//2 5//2 6//2
f 5//3 4//4 7//3
f 4//2 6//2 2//2
f 1//5 7//5 8//5
f 7//3 4//4 8//6
f 4//4 2//7 8//6
f 2//1 1//1 8//1
f 6//8 5//9 9//9
f 1//10 6//10 9//10
f 7//5 1//5 9//5
f 5//9 7//9 9//9
f 6//10 1//10 3//10
f 2//2 6//2 3//2
o Shape_IndexedFaceSet.004_Shape_IndexedFaceSet.251
v 0.292269 0.003672 0.729360
v -0.292750 0.276695 0.723786
v 0.292269 0.276695 0.723786
v 0.292269 0.304557 0.762786
v 0.292269 0.003672 0.762786
v 0.292269 0.304557 0.723786
v -0.292750 0.304557 0.762786
v -0.292750 0.003672 0.729360
v -0.292750 0.003672 0.762786
v -0.292750 0.304557 0.723786
vn 0.0000 -0.0204 -0.9998
vn 1.0000 0.0000 0.0000
vn 0.0000 -0.0000 1.0000
vn 0.0000 1.0000 0.0000
vn -1.0000 0.0000 0.0000
vn 0.0000 -1.0000 -0.0000
vn 0.0000 0.0000 -1.0000
usemtl Shape.916
s 1
f 10//11 11//11 12//11
f 13//12 14//12 15//12
f 14//13 13//13 16//13
f 13//14 15//14 16//14
f 16//15 11//15 17//15
f 15//12 14//12 10//12
f 14//16 17//16 10//16
f 17//11 11//11 10//11
f 14//13 16//13 18//13
f 17//16 14//16 18//16
f 16//15 17//15 18//15
f 15//17 11//17 19//17
f 11//15 16//15 19//15
f 16//14 15//14 19//14
f 11//17 15//17 12//17
f 15//12 10//12 12//12
o Shape_IndexedFaceSet.003_Shape_IndexedFaceSet.250
v 0.292269 0.276698 -0.591044
v 0.136155 0.271125 0.110902
v 0.136155 0.271125 -0.251139
v -0.292786 0.304554 0.723529
v 0.292269 0.304554 0.723529
v 0.292269 0.304554 -0.591044
v 0.292269 0.276698 0.723529
v -0.292786 0.304554 -0.591044
v -0.292786 0.276698 0.723529
v -0.292786 0.276698 -0.591044
v -0.292729 0.271125 -0.251139
v -0.292729 0.271125 0.110902
vn 0.0357 -0.9994 -0.0000
vn 0.0000 1.0000 0.0000
vn 0.0000 0.0000 1.0000
vn 1.0000 0.0000 0.0000
vn 0.0000 0.0000 -1.0000
vn -1.0000 0.0000 0.0000
vn -1.0000 -0.0072 -0.0000
vn 0.0000 -0.9999 -0.0164
vn -0.9999 -0.0102 -0.0000
vn 0.0000 -1.0000 0.0091
vn -0.0000 -1.0000 0.0003
vn 0.0000 -1.0000 0.0045
vn 0.0000 -1.0000 -0.0000
usemtl Shape.920
s 1
f 20//18 21//18 22//18
f 23//19 24//19 25//19
f 24//20 23//20 26//20
f 25//21 24//21 26//21
f 23//19 25//19 27//19
f 27//22 25//22 20//22
f 25//21 26//21 20//21
f 26//20 23//20 28//20
f 23//23 27//23 28//24
f 28//24 27//23 29//24
f 27//22 20//22 29//22
f 20//25 30//25 29//25
f 30//26 28//24 29//24
f 20//18 26//18 21//18
f 26//27 28//27 21//28
f 21//28 28//27 31//29
f 28//24 30//26 31//26
f 30//30 21//28 31//29
f 30//25 20//25 22//25
f 21//28 30//30 22//30
o Shape_IndexedFaceSet.006_Shape_IndexedFaceSet.253
v -0.292786 0.304557 -0.591199
v -0.292786 0.003672 -0.596798
v -0.292786 0.276695 -0.591199
v 0.292269 0.276695 -0.591199
v 0.292269 0.304557 -0.591199
v 0.225380 0.304557 -0.752770
v -0.292786 0.003672 -0.752770
v 0.225380 0.003672 -0.752770
v 0.225380 0.003672 -0.596798
v -0.292786 0.304557 -0.752770
v 0.292269 0.276695 -0.602365
vn -1.0000 0.0000 0.0000
vn 0.0000 0.0000 1.0000
vn 0.0000 1.0000 0.0000
vn 0.0000 0.0000 -1.0000
vn 0.9713 -0.2380 -0.0000
vn 0.0000 -1.0000 -0.0000
vn 0.0000 -0.0205 0.9998
vn 1.0000 0.0000 0.0000
vn 0.9133 0.1515 -0.3781
vn 0.9137 0.0000 -0.4064
usemtl Shape.921
s 1
f 32//31 33//31 34//31
f 35//32 36//32 32//32
f 32//33 36//33 37//33
f 38//34 37//34 39//34
f 35//35 40//35 39//35
f 40//36 38//36 39//36
f 38//31 32//31 41//31
f 37//34 38//34 41//34
f 32//33 37//33 41//33
f 32//31 38//31 33//31
f 40//37 35//37 33//37
f 38//36 40//36 33//36
f 36//38 35//38 42//38
f 37//39 36//39 42//39
f 39//40 37//40 42//40
f 35//35 39//35 42//35
f 35//32 32//32 34//32
f 33//37 35//37 34//37
o Shape_IndexedFaceSet.007_Shape_IndexedFaceSet.254
v -0.292786 0.271099 -0.251307
v -0.292786 -0.269354 -0.217878
v -0.292786 0.271099 -0.217878
v -0.292786 -0.269354 -0.251307
v 0.136255 -0.269354 -0.251307
v 0.136255 0.271099 -0.217878
v 0.136255 -0.269354 -0.217878
v 0.136255 0.271099 -0.251307
vn -1.0000 0.0000 0.0000
vn 0.0000 -1.0000 -0.0000
vn 0.0000 0.0000 -1.0000
vn 1.0000 0.0000 0.0000
vn 0.0000 -0.0000 1.0000
vn 0.0000 1.0000 0.0000
usemtl Shape.914
s 1
f 43//41 44//41 45//41
f 46//42 47//42 44//42
f 47//43 46//43 43//43
f 46//41 44//41 43//41
f 47//44 48//44 49//44
f 44//42 47//42 49//42
f 48//45 44//45 49//45
f 48//44 47//44 50//44
f 43//46 48//46 50//46
f 47//43 43//43 50//43
f 44//45 48//45 45//45
f 48//46 43//46 45//46
o Shape_IndexedFaceSet_Shape_IndexedFaceSet.247
v 0.225380 -0.269358 -0.752642
v 0.136213 -0.269358 0.110653
v 0.225380 -0.269358 -0.596691
v 0.225380 -0.302786 -0.752642
v -0.292786 -0.302786 -0.752642
v -0.292786 -0.274930 0.723617
v -0.292786 -0.302786 0.723617
v 0.292269 -0.274930 0.723617
v -0.292786 -0.269358 -0.752642
v 0.292269 -0.302786 0.723617
v 0.292269 -0.302786 -0.602183
v -0.292786 -0.269358 0.110653
v 0.292269 -0.274930 -0.602183
vn -0.0000 1.0000 0.0000
vn -0.0000 1.0000 0.0001
vn 0.0000 0.0000 -1.0000
vn -1.0000 0.0000 0.0000
vn 0.0000 0.0000 1.0000
vn 0.0000 -1.0000 -0.0000
vn 0.9138 0.0000 -0.4062
vn 1.0000 0.0000 0.0000
vn 0.0000 1.0000 0.0091
vn 0.0000 1.0000 0.0045
vn 0.0830 0.9965 0.0000
vn 0.0239 0.9997 0.0030
usemtl Shape.915
s 1
f 51//47 52//48 53//47
f 51//49 54//49 55//49
f 56//50 55//50 57//50
f 58//51 56//51 57//51
f 55//52 54//52 57//52
f 51//49 55//49 59//49
f 55//50 56//50 59//50
f 58//51 57//51 60//51
f 57//52 54//52 60//52
f 54//53 51//53 61//53
f 58//54 60//54 61//54
f 60//52 54//52 61//52
f 56//55 58//55 62//56
f 59//50 56//50 62//50
f 51//47 59//47 62//56
f 51//57 58//57 63//57
f 58//54 61//54 63//54
f 61//53 51//53 63//53
f 62//56 58//55 52//48
f 51//47 62//56 52//48
f 58//57 51//57 53//57
f 52//58 58//58 53//58
o Shape_IndexedFaceSet.002_Shape_IndexedFaceSet.249
v 0.292269 0.003612 0.729360
v 0.292269 -0.302756 0.723786
v 0.292269 -0.274891 0.723786
v 0.292269 -0.302756 0.762786
v 0.292269 0.003612 0.762786
v -0.292786 0.003612 0.762786
v -0.292786 -0.302756 0.762786
v -0.292786 -0.274891 0.723786
v -0.292786 0.003612 0.729360
v -0.292786 -0.302756 0.723786
vn 1.0000 0.0000 0.0000
vn 0.0000 -0.0000 1.0000
vn 0.0000 1.0000 0.0000
vn -1.0000 0.0000 0.0000
vn 0.0000 -1.0000 0.0000
vn 0.0000 0.0200 -0.9998
vn 0.0000 0.0000 -1.0000
usemtl Shape.917
s 1
f 64//59 65//59 66//59
f 67//60 68//60 69//60
f 68//59 67//59 64//59
f 69//61 68//61 64//61
f 64//59 67//59 65//59
f 67//60 69//60 70//60
f 69//62 71//62 70//62
f 65//63 67//63 70//63
f 71//62 69//62 72//62
f 64//64 71//64 72//64
f 69//61 64//61 72//61
f 71//65 65//65 73//65
f 70//62 71//62 73//62
f 65//63 70//63 73//63
f 71//64 64//64 66//64
f 65//65 71//65 66//65
o Shape_IndexedFaceSet.001_Shape_IndexedFaceSet.248
v -0.292786 0.271099 0.077435
v -0.292786 -0.269354 0.110864
v -0.292786 0.271099 0.110864
v -0.292786 -0.269354 0.077435
v 0.136255 -0.269354 0.077435
v 0.136255 0.271099 0.110864
v 0.136255 -0.269354 0.110864
v 0.136255 0.271099 0.077435
vn -1.0000 -0.0000 0.0000
vn 0.0000 -1.0000 0.0000
vn 0.0000 0.0000 -1.0000
vn 1.0000 -0.0000 0.0000
vn 0.0000 -0.0000 1.0000
vn 0.0000 1.0000 0.0000
usemtl Shape.919
s 1
f 74//66 75//66 76//66
f 77//67 78//67 75//67
f 78//68 77//68 74//68
f 77//66 75//66 74//66
f 78//69 79//69 80//69
f 75//67 78//67 80//67
f 79//70 75//70 80//70
f 79//69 78//69 81//69
f 74//71 79//71 81//71
f 78//68 74//68 81//68
f 75//70 79//70 76//70
f 79//71 74//71 76//71
