# Blender v2.78 (sub 0) OBJ File: ''
# www.blender.org
mtllib IslandArea.mtl
o Shape_IndexedFaceSet.007_Shape_IndexedFaceSet.262
v -0.267024 0.483501 0.388951
v -0.267024 0.523804 -0.312201
v -0.267024 0.523804 0.388951
v -0.275083 1.087853 0.388951
v -0.275083 1.087853 -0.312201
v -0.299261 1.087853 0.388951
v -0.299261 0.032200 0.388951
v -0.275083 0.032303 -0.312201
v -0.299261 1.087853 -0.312201
v -0.299261 0.032200 -0.312201
v -0.275083 0.032303 0.388951
v -0.267024 0.483501 -0.312201
vn 1.0000 -0.0000 0.0000
vn 0.0000 1.0000 0.0000
vn 0.0000 -0.0000 1.0000
vn 0.0000 0.0000 -1.0000
vn -1.0000 -0.0000 0.0000
vn 0.0043 -1.0000 -0.0000
vn 0.9998 -0.0179 -0.0000
vn 0.9999 0.0143 0.0000
usemtl Shape.928
s 1
f 1//1 2//1 3//1
f 4//2 5//2 6//2
f 4//3 6//3 7//3
f 5//4 8//4 9//4
f 6//2 5//2 9//2
f 7//5 6//5 9//5
f 4//3 7//3 1//3
f 8//6 7//6 10//6
f 9//4 8//4 10//4
f 7//5 9//5 10//5
f 7//6 8//6 11//6
f 8//7 1//7 11//7
f 1//3 7//3 11//3
f 8//4 5//4 2//4
f 5//8 4//8 2//8
f 2//1 1//1 12//1
f 1//7 8//7 12//7
f 8//4 2//4 12//4
f 4//3 1//3 3//3
f 2//8 4//8 3//8
o Shape_IndexedFaceSet.002_Shape_IndexedFaceSet.257
v 0.305121 1.095792 -0.312212
v 0.224538 0.032312 -0.425019
v 0.305121 1.095792 -0.425019
v -0.299193 0.032312 -0.425019
v -0.299193 0.032312 -0.312212
v -0.299193 1.136208 -0.425019
v 0.305121 1.136208 -0.312212
v -0.299193 1.136208 -0.312212
v 0.305121 1.136208 -0.425019
v 0.224538 0.032312 -0.320273
v 0.224538 0.483489 -0.312212
vn 0.9971 -0.0756 0.0000
vn 0.0000 -1.0000 -0.0000
vn 0.0000 0.0000 -1.0000
vn -1.0000 0.0000 0.0000
vn 0.0000 -0.0000 1.0000
vn 0.0000 1.0000 0.0000
vn 0.0154 -0.0179 0.9997
vn 1.0000 0.0000 0.0000
vn 0.1345 -0.0177 0.9908
usemtl Shape.927
s 1
f 13//9 14//9 15//9
f 16//10 14//10 17//10
f 14//11 16//11 18//11
f 16//12 17//12 18//12
f 17//13 19//13 20//13
f 19//14 18//14 20//14
f 18//12 17//12 20//12
f 18//14 19//14 21//14
f 14//11 18//11 21//11
f 17//10 14//10 22//10
f 17//15 22//15 23//15
f 19//13 17//13 23//13
f 19//13 23//13 13//13
f 21//16 19//16 13//16
f 22//9 14//9 13//9
f 23//17 22//17 13//17
f 14//11 21//11 15//11
f 21//16 13//16 15//16
o Shape_IndexedFaceSet.004_Shape_IndexedFaceSet.259
v 0.305180 1.095914 -0.312201
v 0.305180 1.095914 0.388951
v -0.275062 1.087853 -0.312201
v 0.305180 1.136208 0.388951
v 0.305180 1.136208 -0.312201
v -0.299261 1.136208 0.388951
v -0.299261 1.087853 -0.312201
v -0.299261 1.136208 -0.312201
v -0.299261 1.087853 0.388951
vn 0.0139 -0.9999 -0.0000
vn 0.0136 -0.9999 0.0003
vn 0.0137 -0.9999 0.0003
vn 1.0000 0.0000 0.0000
vn 0.0000 0.0000 1.0000
vn 0.0000 1.0000 0.0000
vn 0.0000 0.0000 -1.0000
vn -1.0000 0.0000 0.0000
vn 0.0038 -1.0000 0.0002
vn 0.0000 -1.0000 -0.0000
usemtl Shape.924
s 1
f 24//18 25//19 26//20
f 27//21 25//21 28//21
f 25//22 27//22 29//22
f 27//23 28//23 29//23
f 28//24 30//24 31//24
f 30//25 29//25 31//25
f 29//23 28//23 31//23
f 29//25 30//25 32//25
f 25//22 29//22 32//22
f 28//21 25//21 24//21
f 30//24 28//24 24//24
f 32//26 30//27 26//20
f 25//19 32//26 26//20
f 30//24 24//24 26//24
o Shape_IndexedFaceSet.001_Shape_IndexedFaceSet.256
v 0.224537 0.031982 -0.425019
v 0.305180 -1.096000 -0.312212
v 0.305180 -1.096000 -0.425019
v 0.305180 -1.136489 -0.425019
v -0.299261 -1.136489 -0.425019
v -0.299261 0.031982 -0.425019
v -0.299261 -1.136489 -0.312212
v 0.224537 -0.483856 -0.312212
v -0.299261 0.031982 -0.312212
v 0.305180 -1.136489 -0.312212
v 0.224537 0.031982 -0.320273
vn 0.9975 0.0713 0.0000
vn 0.0000 0.0000 -1.0000
vn 0.0000 -1.0000 0.0000
vn -1.0000 -0.0000 0.0000
vn 0.0000 -0.0000 1.0000
vn 0.0000 1.0000 0.0000
vn 0.0154 0.0156 0.9998
vn 1.0000 0.0000 0.0000
vn 0.1178 0.0155 0.9929
usemtl Shape.923
s 1
f 33//28 34//28 35//28
f 36//29 37//29 38//29
f 37//30 36//30 39//30
f 38//31 37//31 39//31
f 39//32 40//32 41//32
f 38//31 39//31 41//31
f 36//29 38//29 33//29
f 38//33 41//33 33//33
f 40//32 39//32 42//32
f 39//30 36//30 42//30
f 41//34 40//34 43//34
f 33//33 41//33 43//33
f 40//32 42//32 34//32
f 42//35 36//35 34//35
f 33//28 43//28 34//28
f 43//36 40//36 34//36
f 36//29 33//29 35//29
f 34//35 36//35 35//35
o Shape_IndexedFaceSet.003_Shape_IndexedFaceSet.258
v -0.275062 -1.080075 0.388951
v 0.305180 -1.096194 -0.312201
v -0.275062 -1.080075 -0.312201
v 0.305180 -1.096194 0.388951
v 0.305180 -1.136489 0.388951
v -0.299261 -1.080075 0.388951
v -0.299261 -1.136484 -0.312201
v -0.299261 -1.136484 0.388951
v -0.299261 -1.080075 -0.312201
v 0.305180 -1.136489 -0.312201
vn 0.0278 0.9996 0.0000
vn 1.0000 0.0000 0.0000
vn 0.0000 0.0000 1.0000
vn -0.0000 -1.0000 -0.0000
vn -1.0000 0.0000 0.0000
vn -0.0000 0.0000 -1.0000
vn 0.0000 1.0000 0.0000
usemtl Shape.929
s 1
f 44//37 45//37 46//37
f 47//38 48//38 45//38
f 48//39 47//39 49//39
f 50//40 48//40 51//40
f 49//41 50//41 51//41
f 48//39 49//39 51//39
f 45//42 50//42 52//42
f 50//41 49//41 52//41
f 48//40 50//40 53//40
f 45//38 48//38 53//38
f 50//42 45//42 53//42
f 47//37 45//37 44//37
f 49//39 47//39 44//39
f 52//43 49//43 44//43
f 52//43 44//43 46//43
f 45//42 52//42 46//42
o Shape_IndexedFaceSet.006_Shape_IndexedFaceSet.261
v 0.224588 -0.483693 -0.312201
v 0.224588 -0.515930 0.388951
v 0.224588 -0.515930 -0.312201
v 0.224588 -0.483693 0.388951
v -0.267024 -0.483693 0.388951
v -0.267024 -0.515930 -0.312201
v -0.267024 -0.515930 0.388951
v -0.267024 -0.483693 -0.312201
vn 1.0000 0.0000 0.0000
vn 0.0000 -0.0000 1.0000
vn 0.0000 1.0000 0.0000
vn -1.0000 -0.0000 0.0000
vn 0.0000 -1.0000 -0.0000
vn 0.0000 0.0000 -1.0000
usemtl Shape.926
s 1
f 54//44 55//44 56//44
f 57//45 58//45 55//45
f 58//46 57//46 54//46
f 57//44 55//44 54//44
f 58//47 59//47 60//47
f 55//45 58//45 60//45
f 59//48 55//48 60//48
f 59//47 58//47 61//47
f 54//49 59//49 61//49
f 58//46 54//46 61//46
f 55//48 59//48 56//48
f 59//49 54//49 56//49
o Shape_IndexedFaceSet.005_Shape_IndexedFaceSet.260
v -0.267024 -0.515933 0.388951
v -0.267024 -0.483709 -0.312201
v -0.267024 -0.483709 0.388951
v -0.275083 0.032096 0.388951
v -0.275083 0.032096 -0.312201
v -0.299261 0.031988 0.388951
v -0.275083 -1.079966 -0.312201
v -0.299261 0.031988 -0.312201
v -0.299261 -1.079966 0.388951
v -0.299261 -1.079966 -0.312201
v -0.275083 -1.079966 0.388951
v -0.267024 -0.515933 -0.312201
vn 1.0000 -0.0000 0.0000
vn -0.0045 1.0000 0.0000
vn 0.0000 0.0000 -1.0000
vn -0.0000 -0.0000 1.0000
vn -1.0000 0.0000 0.0000
vn 0.0000 -1.0000 -0.0000
vn 0.9999 -0.0143 -0.0000
vn 0.9999 0.0156 0.0000
vn -0.0002 -0.0000 1.0000
usemtl Shape.930
s 1
f 62//50 63//50 64//50
f 65//51 66//51 67//51
f 66//52 68//52 69//52
f 67//51 66//51 69//51
f 65//53 67//53 70//53
f 67//54 69//54 70//54
f 65//53 70//53 62//53
f 69//52 68//52 71//52
f 68//55 70//55 71//55
f 70//54 69//54 71//54
f 70//55 68//55 72//55
f 68//56 62//56 72//56
f 62//53 70//53 72//53
f 68//52 66//52 63//52
f 66//57 65//57 63//57
f 63//50 62//50 73//50
f 62//56 68//56 73//56
f 68//52 63//52 73//52
f 65//53 62//53 64//58
f 63//57 65//57 64//57
o Shape_IndexedFaceSet.008_Shape_IndexedFaceSet.263
v 0.224588 0.523708 -0.312201
v 0.224588 0.483420 0.388951
v 0.224588 0.483420 -0.312201
v 0.224588 0.523708 0.388951
v -0.267024 0.523708 0.388951
v -0.267024 0.483420 -0.312201
v -0.267024 0.483420 0.388951
v -0.267024 0.523708 -0.312201
vn 1.0000 0.0000 0.0000
vn 0.0000 -0.0000 1.0000
vn 0.0000 1.0000 0.0000
vn -1.0000 -0.0000 0.0000
vn 0.0000 -1.0000 -0.0000
vn 0.0000 0.0000 -1.0000
usemtl Shape.922
s 1
f 74//59 75//59 76//59
f 77//60 78//60 75//60
f 78//61 77//61 74//61
f 77//59 75//59 74//59
f 78//62 79//62 80//62
f 75//60 78//60 80//60
f 79//63 75//63 80//63
f 79//62 78//62 81//62
f 74//64 79//64 81//64
f 78//61 74//61 81//61
f 75//63 79//63 76//63
f 79//64 74//64 76//64
o Shape_IndexedFaceSet_Shape_IndexedFaceSet.255
v 0.401890 -1.232718 0.437301
v 0.401890 1.224617 0.397011
v 0.401890 1.224617 0.437301
v -0.404021 1.224617 0.437301
v 0.305175 1.224617 0.437306
v -0.404021 1.224617 0.397011
v -0.299180 -1.136244 0.388951
v -0.404021 -1.232718 0.397011
v -0.404021 -1.232718 0.437301
v 0.401890 -1.232718 0.397011
v 0.305175 1.135842 0.388951
v 0.305175 -1.136244 0.388951
v -0.299180 1.135842 0.388951
vn 1.0000 -0.0000 0.0000
vn 0.0000 1.0000 0.0000
vn -0.0767 0.0000 -0.9971
vn -1.0000 -0.0000 0.0000
vn 0.0000 -1.0000 0.0000
vn 0.0000 -0.0000 1.0000
vn 0.0000 -0.0833 -0.9965
vn 0.0830 0.0000 -0.9965
vn 0.0831 0.0000 -0.9965
vn 0.0000 0.0904 -0.9959
vn 0.0000 0.0000 -1.0000
vn 0.0001 -0.0000 1.0000
usemtl Shape.925
s 1
f 82//65 83//65 84//65
f 85//66 86//66 87//66
f 88//67 89//67 87//67
f 89//68 85//68 87//68
f 89//69 82//69 90//69
f 82//70 86//70 90//70
f 85//68 89//68 90//68
f 86//70 85//70 90//70
f 89//71 88//71 91//71
f 82//69 89//69 91//69
f 91//72 92//72 83//73
f 87//66 86//66 83//66
f 92//74 87//74 83//74
f 82//65 91//65 83//65
f 88//75 92//75 93//75
f 91//71 88//71 93//71
f 92//72 91//72 93//72
f 92//75 88//75 94//75
f 88//67 87//67 94//67
f 87//74 92//74 94//74
f 86//70 82//70 84//76
f 83//66 86//66 84//66
