# Blender v2.78 (sub 0) OBJ File: ''
# www.blender.org
mtllib SinkArea.mtl
o Shape_IndexedFaceSet.007_Shape_IndexedFaceSet.077
v -0.258893 -0.314663 -0.323589
v -0.258893 -0.991980 -0.309765
v -0.258893 -0.314663 -0.309765
v -0.258893 -0.991980 -0.323589
v 0.259564 -0.991980 -0.323589
v 0.259564 -0.314663 -0.309765
v 0.259564 -0.991980 -0.309765
v 0.259564 -0.314663 -0.323589
v -0.293450 0.867550 0.409168
v -0.231257 0.867550 0.443721
v -0.231257 0.867550 0.409168
v -0.293450 0.072584 0.409168
v -0.231250 0.072584 0.409168
v -0.293450 0.072584 0.443721
v -0.224342 0.418242 0.416081
v -0.231250 0.072584 0.443721
v -0.293450 0.867550 0.443721
v 0.273377 -0.183187 -0.302852
v 0.273377 -0.217708 -0.302852
v 0.273377 -0.183187 -0.323591
v 0.259506 0.141711 -0.309768
v -0.293456 -0.183187 -0.302852
v -0.258834 -0.314530 -0.323591
v -0.258834 0.141711 -0.323591
v 0.259506 -0.314530 -0.323591
v 0.259506 0.141711 -0.323591
v -0.258834 0.141711 -0.309768
v 0.259506 -0.314530 -0.309768
v -0.258834 -0.314530 -0.309768
v -0.293456 -0.217708 -0.323591
v -0.293456 -0.217708 -0.302852
v 0.294128 -0.998902 0.402197
v 0.294128 -1.033456 -0.323591
v 0.294128 -0.998894 -0.323591
v 0.294128 -1.033456 0.402197
v -0.293456 -0.998902 0.402197
v -0.293456 -0.998894 -0.323591
v -0.293456 -1.033456 -0.323591
v 0.259445 -0.991980 -0.323591
v -0.293456 -1.033456 0.402197
v -0.258832 -0.991980 -0.309737
v -0.293456 -0.888289 0.409166
v -0.293456 -0.183343 0.402248
v -0.293456 -0.217862 0.402248
v -0.293456 -0.888289 0.443721
v -0.293456 0.072581 0.443721
v 0.294070 0.044835 0.443725
v 0.294128 -0.888289 0.443721
v -0.293456 0.072581 0.409171
v 0.273364 -0.217862 0.402248
v 0.294128 -0.888289 0.409166
v 0.294128 0.072581 0.409171
v 0.294128 0.072581 0.443721
v 0.273364 -0.183343 0.402248
v -0.293448 1.033456 -0.413456
v -0.293448 -1.033456 -0.323599
v -0.293448 1.033456 -0.323599
v -0.293448 -1.033456 -0.413456
v 0.294121 -1.033456 -0.413456
v 0.294121 1.033456 -0.323599
v 0.294121 -1.033456 -0.323599
v 0.294121 1.033456 -0.413456
v 0.259503 0.985067 -0.309763
v -0.258832 0.985067 -0.323591
v 0.294127 0.998897 -0.323591
v -0.293456 1.033447 -0.323591
v -0.293456 0.998897 -0.323591
v -0.293456 0.998897 0.139564
v 0.294127 1.033447 0.139564
v 0.294127 1.033447 -0.323591
v 0.294127 0.998897 0.139564
v -0.293456 1.033447 0.139564
v -0.293456 0.418221 0.409106
v -0.224321 0.383658 0.416073
v -0.224321 0.418221 0.416073
v 0.231886 0.418221 0.416073
v 0.273389 0.418221 0.409106
v -0.293456 0.418221 -0.302852
v 0.273389 0.383658 -0.302852
v 0.273389 0.383658 0.409106
v -0.293456 0.383658 0.409106
v 0.273389 0.418221 -0.302852
v -0.293456 0.383658 -0.302852
v 0.231886 0.383658 0.416073
v 0.294128 0.998897 0.139564
v 0.294128 0.985067 0.443725
v 0.294128 0.985067 0.409158
v -0.293456 0.985067 0.409158
v -0.293456 0.998897 0.139564
v -0.293456 1.033447 0.139564
v 0.294128 1.033447 0.443725
v -0.293456 1.033447 0.443725
v 0.294128 1.033447 0.139564
v -0.293456 0.985067 0.443725
v 0.238836 0.072624 0.409168
v 0.238836 0.072624 0.443721
v 0.231925 0.383692 0.416081
v 0.294122 0.376726 0.443721
v 0.231919 0.874363 0.443721
v 0.294122 0.072624 0.409168
v 0.231919 0.874363 0.409168
v 0.294116 0.985018 0.409168
v 0.294116 0.985018 0.443721
v 0.294122 0.072624 0.443721
v 0.231919 0.985018 0.409168
v 0.231919 0.985018 0.443721
v 0.294128 -0.998873 0.402248
v -0.293456 -1.033442 0.402248
v -0.293456 -0.998873 0.402248
v 0.294128 -0.888303 0.443721
v 0.294128 -0.888303 0.409166
v -0.293456 -0.888303 0.443721
v 0.294128 -1.033442 0.443721
v -0.293456 -1.033442 0.443721
v 0.294128 -1.033442 0.402248
v -0.293456 -0.888303 0.409166
v 0.273389 -0.183188 -0.302852
v 0.273389 -0.217752 0.402197
v 0.273389 -0.217752 -0.302852
v 0.273389 -0.183188 0.402197
v -0.293456 -0.183188 0.402197
v -0.293456 -0.217752 -0.302852
v -0.293456 -0.217752 0.402197
v -0.293456 -0.183188 -0.302852
v 0.273389 0.383673 -0.302852
v 0.273389 0.418262 -0.323591
v 0.273389 0.418262 -0.302852
v 0.259518 0.141711 -0.323591
v -0.293431 0.383673 -0.323591
v -0.258864 0.985067 -0.323591
v 0.259518 0.985067 -0.309768
v 0.259518 0.985067 -0.323591
v -0.293431 0.383673 -0.302852
v -0.258864 0.141711 -0.309768
v -0.258864 0.985067 -0.309768
v 0.259518 0.141711 -0.309768
v -0.258864 0.141711 -0.323591
v -0.293431 0.418262 -0.302852
v -0.293405 0.867550 0.443721
v -0.293405 0.985067 0.409168
v -0.293405 0.867550 0.409168
v 0.231861 0.985056 0.443721
v 0.114353 0.985067 0.443721
v -0.231179 0.867550 0.409168
v 0.231861 0.874464 0.409168
v 0.231861 0.874464 0.443721
v 0.231861 0.985056 0.409168
v -0.293405 0.985067 0.443721
vn -1.0000 -0.0000 0.0000
vn -0.0000 -0.0000 1.0000
vn -0.0000 0.0001 1.0000
vn 0.0000 -1.0000 0.0000
vn 0.0000 -0.0103 -0.9999
vn 0.0000 -0.0052 -1.0000
vn 1.0000 -0.0000 0.0000
vn 0.0000 1.0000 0.0000
vn 0.0000 0.0270 -0.9996
vn 0.0694 -0.0000 0.9976
vn 0.3162 0.0000 -0.9487
vn 0.3161 0.0000 -0.9487
vn 0.0000 0.0000 -1.0000
vn 0.9998 -0.0200 0.0000
vn 0.9701 0.0000 0.2426
vn 0.7072 0.0000 -0.7070
vn 0.9999 0.0154 0.0000
vn 0.0000 0.0213 0.9998
vn 0.9991 0.0427 0.0000
vn -0.9944 0.1060 0.0000
vn -0.9830 0.0947 -0.1576
vn -0.9416 -0.3367 0.0000
vn 0.0000 -0.0712 0.9975
vn 0.9899 -0.1418 0.0000
vn 0.9796 -0.1035 -0.1722
vn 0.0000 1.0000 0.0097
vn 0.0001 1.0000 0.0096
vn -0.1958 0.9806 0.0000
vn -0.0113 0.9057 -0.4237
vn 0.0003 1.0000 0.0095
vn 0.1955 0.9807 0.0000
vn 0.0182 -0.7294 -0.6838
vn -0.0004 -0.9995 0.0302
vn -0.0003 -0.9995 0.0304
vn 0.0000 -0.9995 0.0308
vn -0.3709 -0.9287 0.0000
vn -0.0008 -0.9996 0.0298
vn 0.3709 -0.9287 0.0000
vn -0.1003 0.0000 0.9950
vn 0.1656 0.0000 0.9862
vn 0.0000 -0.9987 -0.0512
vn -0.9998 -0.0222 0.0000
vn 1.0000 0.0000 -0.0001
vn -0.9885 -0.0085 0.1512
vn -0.8531 -0.0074 -0.5217
vn 0.0000 0.0624 -0.9980
vn -0.9899 -0.1414 0.0000
vn 0.0000 -0.0286 0.9996
vn 0.9984 -0.0572 0.0000
vn -0.9938 0.0571 -0.0953
vn 0.0000 0.0121 0.9999
vn 0.0000 0.0122 0.9999
vn -0.9981 0.0609 0.0000
vn 0.9953 -0.0499 -0.0833
vn 0.9997 0.0245 0.0000
vn 0.0000 0.0061 1.0000
vn 0.0132 -0.9996 0.0237
vn 0.0149 -0.9999 0.0000
vn 0.0000 1.0000 0.0003
vn 0.0001 1.0000 0.0000
usemtl Shape.423
s 1
f 42//1 43//1 44//1
f 42//1 45//1 46//1
f 45//2 47//3 46//2
f 47//3 45//2 48//2
f 45//4 42//4 48//4
f 42//1 46//1 49//1
f 42//5 50//6 51//5
f 48//4 42//4 51//4
f 48//7 51//7 52//7
f 49//8 46//8 52//8
f 42//1 49//1 43//1
f 49//9 52//9 43//9
f 46//2 47//3 53//3
f 47//10 48//10 53//10
f 48//7 52//7 53//7
f 52//8 46//8 53//8
f 51//11 50//12 54//11
f 52//11 51//11 54//11
f 50//6 43//13 54//13
f 43//9 52//9 54//9
f 50//6 42//5 44//6
f 43//13 50//6 44//6
usemtl Shape.428
f 1//1 2//1 3//1
f 4//4 5//4 2//4
f 5//13 4//13 1//13
f 4//1 2//1 1//1
f 5//7 6//7 7//7
f 2//4 5//4 7//4
f 6//2 2//2 7//2
f 6//7 5//7 8//7
f 1//8 6//8 8//8
f 5//13 1//13 8//13
f 2//2 6//2 3//2
f 6//8 1//8 3//8
usemtl Shape.432
f 9//8 10//8 11//8
f 12//4 13//4 14//4
f 13//13 12//13 9//13
f 12//1 14//1 9//1
f 13//14 15//14 16//14
f 14//4 13//4 16//4
f 15//15 10//15 16//15
f 10//2 14//2 16//2
f 9//1 14//1 17//1
f 14//2 10//2 17//2
f 10//8 9//8 17//8
f 15//16 13//16 11//16
f 13//13 9//13 11//13
f 10//17 15//17 11//17
usemtl Shape.424
f 18//7 19//7 20//7
f 18//18 21//18 22//18
f 23//13 24//13 25//13
f 21//19 18//19 26//19
f 24//8 21//8 26//8
f 25//13 24//13 26//13
f 22//18 21//18 27//18
f 24//20 22//20 27//20
f 21//8 24//8 27//8
f 23//4 25//4 28//4
f 23//4 28//4 29//4
f 24//13 23//13 30//13
f 22//21 24//21 30//21
f 23//22 29//22 30//22
f 30//22 29//22 31//22
f 18//2 22//2 31//2
f 29//23 28//23 31//23
f 22//1 30//1 31//1
f 31//23 28//23 19//23
f 28//24 25//24 19//24
f 18//2 31//2 19//2
f 19//25 25//25 20//25
f 26//19 18//19 20//19
f 25//13 26//13 20//13
usemtl Shape.429
f 32//7 33//7 34//7
f 35//2 32//2 36//2
f 36//1 37//1 38//1
f 37//13 39//13 38//13
f 38//13 39//13 33//13
f 32//7 35//7 33//7
f 35//4 38//4 33//4
f 35//2 36//2 40//2
f 38//4 35//4 40//4
f 36//1 38//1 40//1
f 36//26 32//27 41//27
f 37//28 36//28 41//28
f 39//29 37//29 41//29
f 32//27 39//30 41//27
f 39//31 32//31 34//31
f 33//13 39//13 34//13
usemtl Shape.425
f 55//1 56//1 57//1
f 58//4 59//4 56//4
f 59//13 58//13 55//13
f 58//1 56//1 55//1
f 59//7 60//7 61//7
f 56//4 59//4 61//4
f 60//2 56//2 61//2
f 60//7 59//7 62//7
f 55//8 60//8 62//8
f 59//13 55//13 62//13
f 56//2 60//2 57//2
f 60//8 55//8 57//8
usemtl Shape.436
f 63//32 64//32 65//32
f 66//1 67//1 68//1
f 66//8 69//8 70//8
f 67//13 66//13 70//13
f 68//33 63//34 71//35
f 69//2 68//2 71//2
f 70//7 69//7 71//7
f 66//1 68//1 72//1
f 68//2 69//2 72//2
f 69//8 66//8 72//8
f 68//36 67//36 64//36
f 63//34 68//33 64//37
f 67//13 70//13 64//13
f 64//13 70//13 65//13
f 71//38 63//38 65//38
f 70//7 71//7 65//7
usemtl Shape.435
f 73//39 74//39 75//39
f 76//8 77//8 78//8
f 79//7 77//7 80//7
f 77//40 76//40 80//40
f 81//4 79//4 80//4
f 78//8 77//8 82//8
f 79//13 78//13 82//13
f 77//7 79//7 82//7
f 81//1 78//1 83//1
f 79//4 81//4 83//4
f 78//13 79//13 83//13
f 76//8 78//8 73//8
f 78//1 81//1 73//1
f 81//4 80//4 74//4
f 73//39 81//39 74//39
f 80//40 76//40 84//40
f 74//4 80//4 84//4
f 76//2 74//2 84//2
f 76//8 73//8 75//8
f 74//2 76//2 75//2
usemtl Shape.430
f 85//7 86//7 87//7
f 88//41 89//41 85//41
f 89//1 88//1 90//1
f 85//13 89//13 90//13
f 91//8 90//8 92//8
f 90//1 88//1 92//1
f 85//7 91//7 86//7
f 91//2 92//2 86//2
f 91//7 85//7 93//7
f 90//8 91//8 93//8
f 85//13 90//13 93//13
f 92//1 88//1 94//1
f 88//4 86//4 94//4
f 86//2 92//2 94//2
f 88//41 85//41 87//41
f 86//4 88//4 87//4
usemtl Shape.427
f 95//42 96//42 97//42
f 98//2 99//2 96//2
f 100//13 101//13 102//13
f 98//43 100//7 102//7
f 100//4 96//4 95//4
f 101//13 100//13 95//13
f 99//2 98//2 103//2
f 98//43 102//7 103//7
f 98//2 96//2 104//2
f 100//7 98//43 104//7
f 96//4 100//4 104//4
f 101//1 99//1 105//1
f 102//13 101//13 105//13
f 103//8 102//8 105//8
f 103//8 105//8 106//8
f 99//2 103//2 106//2
f 105//1 99//1 106//1
f 99//1 101//1 97//1
f 96//44 99//44 97//44
f 101//45 95//45 97//45
usemtl Shape.431
f 107//13 108//13 109//13
f 110//8 111//8 112//8
f 111//7 110//7 113//7
f 110//2 112//2 113//2
f 112//1 108//1 114//1
f 108//4 113//4 114//4
f 113//2 112//2 114//2
f 113//4 108//4 115//4
f 111//7 113//7 115//7
f 112//8 111//8 116//8
f 108//1 112//1 116//1
f 115//13 108//13 107//13
f 111//7 115//7 107//7
f 116//46 111//46 107//46
f 116//46 107//46 109//46
f 108//1 116//1 109//1
usemtl Shape.433
f 117//7 118//7 119//7
f 120//2 121//2 118//2
f 121//8 120//8 117//8
f 120//7 118//7 117//7
f 121//1 122//1 123//1
f 118//2 121//2 123//2
f 122//4 118//4 123//4
f 122//1 121//1 124//1
f 117//13 122//13 124//13
f 121//8 117//8 124//8
f 118//4 122//4 119//4
f 122//13 117//13 119//13
usemtl Shape.426
f 125//7 126//7 127//7
f 128//13 129//13 130//13
f 130//8 131//8 132//8
f 128//13 130//13 132//13
f 133//47 129//47 134//47
f 125//48 133//48 134//48
f 131//8 130//8 135//8
f 128//49 125//49 136//49
f 134//4 128//4 136//4
f 125//48 134//48 136//48
f 129//13 128//13 137//13
f 134//47 129//47 137//47
f 128//4 134//4 137//4
f 129//1 133//1 138//1
f 130//50 129//50 138//50
f 133//2 125//2 138//51
f 131//52 135//52 138//51
f 135//53 130//53 138//53
f 125//54 128//54 126//54
f 128//13 132//13 126//13
f 132//55 131//55 126//55
f 131//52 138//51 127//56
f 138//51 125//2 127//56
f 126//55 131//55 127//55
usemtl Shape.434
f 139//1 140//1 141//1
f 142//2 143//2 139//2
f 144//13 140//13 145//13
f 142//2 139//2 146//2
f 139//57 144//57 146//57
f 145//7 142//7 146//7
f 144//58 145//58 146//58
f 143//59 142//60 147//60
f 140//8 143//59 147//60
f 142//7 145//7 147//7
f 145//13 140//13 147//13
f 139//2 143//2 148//2
f 140//1 139//1 148//1
f 143//59 140//8 148//8
f 144//4 139//4 141//4
f 140//13 144//13 141//13
