#usda 1.0
(
    defaultPrim = "FloorLamp_ZLCL5DRVAII2SPTULU888888"
    metersPerUnit = 1
    upAxis = "Z"
)

def Xform "FloorLamp_ZLCL5DRVAII2SPTULU888888"
{
    over "Materials" (
        prepend references = [
            @./Materials/MI_66fa27790319cb00018960b1.usda@,
            @./Materials/MI_66fa2779781af100017d61c0.usda@
        ]
    )
    {
        over "MI_66fa2779781af100017d61c0"
        {
        }

        over "MI_66fa27790319cb00018960b1"
        {
        }
    }

    over "Geom"
    {
        over "body"
        {
            over "mesh_0000" (
                prepend apiSchemas = ["MaterialBindingAPI"]
            )
            {
                rel material:binding = </FloorLamp_ZLCL5DRVAII2SPTULU888888/Materials/MI_66fa2779781af100017d61c0>
            }

            over "mesh_0001" (
                prepend apiSchemas = ["MaterialBindingAPI"]
            )
            {
                rel material:binding = </FloorLamp_ZLCL5DRVAII2SPTULU888888/Materials/MI_66fa2779781af100017d61c0>
            }

            over "mesh_0002" (
                prepend apiSchemas = ["MaterialBindingAPI"]
            )
            {
                rel material:binding = </FloorLamp_ZLCL5DRVAII2SPTULU888888/Materials/MI_66fa2779781af100017d61c0>
            }

            over "mesh_0003" (
                prepend apiSchemas = ["MaterialBindingAPI"]
            )
            {
                rel material:binding = </FloorLamp_ZLCL5DRVAII2SPTULU888888/Materials/MI_66fa2779781af100017d61c0>
            }

            over "mesh_0004" (
                prepend apiSchemas = ["MaterialBindingAPI"]
            )
            {
                rel material:binding = </FloorLamp_ZLCL5DRVAII2SPTULU888888/Materials/MI_66fa27790319cb00018960b1>
            }

            over "mesh_0005" (
                prepend apiSchemas = ["MaterialBindingAPI"]
            )
            {
                rel material:binding = </FloorLamp_ZLCL5DRVAII2SPTULU888888/Materials/MI_66fa27790319cb00018960b1>
            }

            over "mesh_0006" (
                prepend apiSchemas = ["MaterialBindingAPI"]
            )
            {
                rel material:binding = </FloorLamp_ZLCL5DRVAII2SPTULU888888/Materials/MI_66fa2779781af100017d61c0>
            }

            over "mesh_0007" (
                prepend apiSchemas = ["MaterialBindingAPI"]
            )
            {
                rel material:binding = </FloorLamp_ZLCL5DRVAII2SPTULU888888/Materials/MI_66fa2779781af100017d61c0>
            }
        }
    }
}

