# USD → MuJoCo (world-space, simplified)
v 0.210387 0.143869 0.104946
v 0.216398 0.138504 0.104946
v 0.216327 0.138296 0.113590
v 0.222510 0.134840 0.104946
v 0.222470 0.134614 0.113590
v 0.228160 0.133416 0.104946
v 0.228146 0.133182 0.113590
v 0.233757 0.133638 0.104946
v 0.233765 0.133405 0.113590
v 0.239706 0.134914 0.104946
v 0.239743 0.134687 0.113590
v 0.245626 0.137399 0.104946
v 0.251133 0.141247 0.104946
v 0.256068 0.146323 0.104946
v 0.256184 0.146151 0.113590
v 0.260271 0.152488 0.104946
v 0.260407 0.152346 0.113590
v 0.263626 0.159542 0.104946
v 0.263778 0.159433 0.113590
v 0.266017 0.167280 0.104946
v 0.267386 0.175461 0.104946
v 0.267678 0.183840 0.104946
v 0.266898 0.192162 0.104946
v 0.267065 0.192211 0.113590
v 0.265053 0.200170 0.104946
v 0.265212 0.200257 0.113590
v 0.262216 0.207627 0.104946
v 0.258460 0.214299 0.104946
v 0.258587 0.214456 0.113590
v 0.253910 0.219996 0.104946
v 0.254015 0.220179 0.113590
v 0.248694 0.224526 0.104946
v 0.248773 0.224732 0.113590
v 0.242979 0.227772 0.104946
v 0.243030 0.227993 0.113590
v 0.236931 0.229615 0.104946
v 0.236955 0.229845 0.113590
v 0.230740 0.230020 0.104946
v 0.230733 0.230252 0.113590
v 0.224592 0.228952 0.104946
v 0.224556 0.229179 0.113590
v 0.218673 0.226468 0.104946
v 0.218607 0.226683 0.113590
v 0.213165 0.222619 0.104946
v 0.208230 0.217543 0.104946
v 0.208114 0.217717 0.113590
v 0.208114 0.217717 0.256082
v 0.204027 0.211378 0.104946
v 0.200673 0.204325 0.104946
v 0.200521 0.204434 0.113590
v 0.198281 0.196586 0.104946
v 0.198118 0.196658 0.113590
v 0.196912 0.188405 0.104946
v 0.196742 0.188437 0.113590
v 0.196742 0.188437 0.256082
v 0.196621 0.180027 0.104946
v 0.196449 0.180017 0.113590
v 0.197202 0.171913 0.104946
v 0.197033 0.171866 0.113590
v 0.198448 0.164526 0.104946
v 0.198285 0.164448 0.113590
v 0.200886 0.157482 0.104946
v 0.200734 0.157373 0.113590
v 0.205041 0.150396 0.104946
v 0.210284 0.143687 0.113590
v 0.228146 0.133182 0.184837
v 0.245691 0.137184 0.113590
v 0.251225 0.141051 0.113590
v 0.254015 0.220179 0.256082
v 0.213073 0.222815 0.113590
v 0.233765 0.133405 0.184837
v 0.258587 0.214456 0.256082
v 0.203892 0.211521 0.113590
v 0.204910 0.150250 0.113590
v 0.216327 0.138296 0.184837
v 0.210284 0.143687 0.184837
v 0.222470 0.134614 0.184837
v 0.221671 0.133216 0.196113
v 0.215528 0.136898 0.196113
v 0.209484 0.142290 0.196113
v 0.233190 0.132319 0.198232
v 0.227346 0.131784 0.196113
v 0.239743 0.134687 0.196827
v 0.262362 0.207752 0.113590
v 0.224556 0.229179 0.256082
v 0.203892 0.211521 0.256082
v 0.196449 0.180017 0.184837
v 0.197033 0.171866 0.184837
v 0.196401 0.170839 0.198232
v 0.198285 0.164448 0.184837
v 0.200734 0.157373 0.184837
v 0.199935 0.155975 0.196113
v 0.197485 0.163050 0.196113
v 0.204910 0.150250 0.184837
v 0.204111 0.148852 0.196113
v 0.122413 -0.010009 0.244388
v 0.128483 -0.015353 0.244386
v 0.134674 -0.018952 0.244382
v 0.133933 -0.020248 0.247093
v 0.127790 -0.016567 0.247093
v 0.121746 -0.011175 0.247093
v 0.140382 -0.020328 0.244371
v 0.139609 -0.021680 0.247093
v 0.144040 -0.019387 0.244735
v 0.144488 -0.020514 0.246886
v 0.239743 0.134687 0.208817
v 0.234326 0.131930 0.210753
v 0.267849 0.183849 0.113590
v 0.243030 0.227993 0.256082
v 0.196449 0.180017 0.196827
v 0.195838 0.172230 0.210753
v 0.110275 0.015966 0.244735
v 0.110521 0.010938 0.244371
v 0.109748 0.009585 0.247093
v 0.109357 0.016270 0.246886
v 0.112938 0.003806 0.244382
v 0.117066 -0.003399 0.244386
v 0.116373 -0.004613 0.247093
v 0.256184 0.146151 0.256082
v 0.266181 0.167210 0.113590
v 0.267556 0.175430 0.113590
v 0.230733 0.230252 0.256082
v 0.112197 0.002511 0.247093
v 0.133915 -0.020190 0.266119
v 0.127767 -0.016492 0.266110
v 0.121735 -0.011122 0.266050
v 0.144476 -0.020490 0.266033
v 0.139597 -0.021650 0.266048
v 0.239743 0.134687 0.256082
v 0.234326 0.131930 0.256610
v 0.245691 0.137184 0.256082
v 0.245626 0.137399 0.264727
v 0.239706 0.134914 0.264727
v 0.233949 0.132413 0.265857
v 0.251225 0.141051 0.256082
v 0.256068 0.146323 0.264727
v 0.251133 0.141247 0.264727
v 0.260407 0.152346 0.256082
v 0.263778 0.159433 0.256082
v 0.263626 0.159542 0.264727
v 0.260271 0.152488 0.264727
v 0.266181 0.167210 0.256082
v 0.267556 0.175430 0.256082
v 0.267386 0.175461 0.264727
v 0.266017 0.167280 0.264727
v 0.267849 0.183849 0.256082
v 0.267065 0.192211 0.256082
v 0.266898 0.192162 0.264727
v 0.267678 0.183840 0.264727
v 0.265212 0.200257 0.256082
v 0.262362 0.207752 0.256082
v 0.262216 0.207627 0.264727
v 0.265053 0.200170 0.264727
v 0.253910 0.219996 0.264727
v 0.258460 0.214299 0.264727
v 0.248773 0.224732 0.256082
v 0.242979 0.227772 0.264727
v 0.248694 0.224526 0.264727
v 0.236955 0.229845 0.256082
v 0.230740 0.230020 0.264727
v 0.236931 0.229615 0.264727
v 0.218607 0.226683 0.256082
v 0.218673 0.226468 0.264727
v 0.224592 0.228952 0.264727
v 0.213073 0.222815 0.256082
v 0.208230 0.217543 0.264727
v 0.213165 0.222619 0.264727
v 0.200521 0.204434 0.256082
v 0.200673 0.204325 0.264727
v 0.204027 0.211378 0.264727
v 0.198118 0.196658 0.256082
v 0.198281 0.196586 0.264727
v 0.196449 0.180017 0.256082
v 0.195838 0.172230 0.256610
v 0.196277 0.171857 0.265857
v 0.196934 0.188560 0.264535
v 0.112202 0.002591 0.266101
v 0.109761 0.009604 0.266033
v 0.109374 0.016270 0.266023
v 0.116368 -0.004559 0.266041
v 0.220210 0.140992 0.101018
v 0.221216 0.162810 0.100901
v 0.223837 0.160534 0.100901
v 0.226709 0.158903 0.100901
v 0.232157 0.137301 0.101075
v 0.229746 0.157977 0.100901
v 0.232857 0.157774 0.100901
v 0.246568 0.142404 0.101075
v 0.235946 0.158310 0.100901
v 0.238921 0.159559 0.100901
v 0.239020 0.146914 0.100901
v 0.241688 0.161492 0.100901
v 0.244166 0.164042 0.100901
v 0.259464 0.156766 0.101073
v 0.254906 0.163364 0.100901
v 0.246279 0.167140 0.100901
v 0.247964 0.170683 0.100901
v 0.249166 0.174571 0.100901
v 0.249853 0.178681 0.100901
v 0.265027 0.186425 0.101073
v 0.249999 0.182891 0.100901
v 0.249608 0.187072 0.100901
v 0.256903 0.210996 0.101075
v 0.248681 0.191095 0.100901
v 0.247255 0.194843 0.100901
v 0.257839 0.193951 0.100900
v 0.245369 0.198195 0.100901
v 0.243082 0.201056 0.100901
v 0.248197 0.218733 0.100975
v 0.240461 0.203333 0.100901
v 0.237590 0.204963 0.100901
v 0.240407 0.223779 0.100993
v 0.234552 0.205890 0.100901
v 0.231442 0.206092 0.100901
v 0.223180 0.224973 0.101073
v 0.228352 0.205556 0.100901
v 0.225379 0.204308 0.100901
v 0.222611 0.202374 0.100901
v 0.220132 0.199825 0.100901
v 0.215013 0.210486 0.100900
v 0.218020 0.196728 0.100901
v 0.216334 0.193183 0.100901
v 0.204835 0.207102 0.101073
v 0.215134 0.189295 0.100901
v 0.214445 0.185185 0.100901
v 0.205667 0.183507 0.100901
v 0.214300 0.180975 0.100901
v 0.214692 0.176794 0.100901
v 0.199286 0.177667 0.101072
v 0.212101 0.157489 0.100900
v 0.215618 0.172771 0.100901
v 0.217043 0.169024 0.100901
v 0.206122 0.154336 0.101074
v 0.218931 0.165672 0.100901
v 0.217035 0.141571 0.268770
v 0.211742 0.146240 0.268770
v 0.226984 0.136591 0.268776
v 0.222740 0.141070 0.270869
v 0.217566 0.144028 0.270869
v 0.212837 0.148154 0.270869
v 0.235915 0.137632 0.268761
v 0.236695 0.139738 0.270843
v 0.228209 0.139414 0.270869
v 0.231900 0.134448 0.268688
v 0.244527 0.141031 0.268770
v 0.244045 0.142625 0.270869
v 0.248268 0.141088 0.268598
v 0.252362 0.147029 0.268776
v 0.255090 0.147779 0.268596
v 0.253262 0.150501 0.270869
v 0.248906 0.146022 0.270869
v 0.259969 0.158496 0.268776
v 0.263005 0.159726 0.268366
v 0.259932 0.162169 0.270869
v 0.256971 0.155943 0.270869
v 0.265504 0.167745 0.268295
v 0.263254 0.168475 0.268770
v 0.264899 0.180427 0.268776
v 0.263252 0.176220 0.270869
v 0.262043 0.169000 0.270869
v 0.266347 0.180414 0.268598
v 0.266281 0.192222 0.268295
v 0.264064 0.191327 0.268770
v 0.262821 0.190961 0.270869
v 0.263509 0.183616 0.270869
v 0.262370 0.198682 0.268770
v 0.262287 0.203860 0.268598
v 0.259765 0.205533 0.268770
v 0.258689 0.204614 0.270869
v 0.261192 0.198029 0.270869
v 0.257910 0.213933 0.268291
v 0.253966 0.215020 0.268776
v 0.251356 0.215528 0.270869
v 0.255372 0.210502 0.270869
v 0.250212 0.221260 0.268598
v 0.242657 0.227081 0.268288
v 0.244301 0.223115 0.268777
v 0.241897 0.222081 0.271305
v 0.246752 0.219528 0.270869
v 0.236542 0.225727 0.268770
v 0.227566 0.225842 0.268776
v 0.231158 0.224178 0.271293
v 0.236597 0.223759 0.271303
v 0.230025 0.228422 0.268602
v 0.219771 0.222836 0.268770
v 0.220254 0.221242 0.270869
v 0.225754 0.223303 0.271281
v 0.216028 0.222777 0.268598
v 0.211933 0.216835 0.268776
v 0.211036 0.213366 0.270869
v 0.215392 0.217845 0.270869
v 0.206321 0.208978 0.268770
v 0.201767 0.198550 0.268776
v 0.204366 0.201698 0.270869
v 0.207327 0.207924 0.270869
v 0.198794 0.196124 0.268294
v 0.197477 0.188066 0.268295
v 0.199375 0.183224 0.268776
v 0.201047 0.187646 0.270869
v 0.202255 0.194866 0.270869
v 0.198120 0.169872 0.268618
v 0.201383 0.172970 0.270869
v 0.200790 0.180250 0.270869
v 0.200408 0.166220 0.268770
v 0.198248 0.163117 0.268770
v 0.203230 0.158709 0.268770
v 0.205284 0.159348 0.270869
v 0.202727 0.166096 0.270869
v 0.207074 0.152000 0.268770
v 0.208699 0.153314 0.270869
v 0.259861 0.205615 0.316203
v 0.254789 0.214209 0.316203
v 0.247398 0.221188 0.316203
v 0.213130 0.132704 0.205960
v 0.207087 0.138096 0.205960
v 0.219273 0.129023 0.205960
v 0.215808 0.122962 0.214636
v 0.209664 0.126644 0.214636
v 0.203622 0.132035 0.214636
v 0.224949 0.127591 0.205960
v 0.229029 0.127360 0.208609
v 0.225565 0.121300 0.216977
v 0.221484 0.121531 0.214636
v 0.225642 0.118978 0.226514
v 0.230390 0.127284 0.216559
v 0.230392 0.127290 0.259274
v 0.230190 0.127275 0.265435
v 0.230311 0.131489 0.268597
v 0.193515 0.165933 0.258818
v 0.193502 0.165907 0.216559
v 0.193898 0.164144 0.208609
v 0.190433 0.158084 0.216977
v 0.195088 0.158856 0.205960
v 0.197537 0.151782 0.205960
v 0.194073 0.145721 0.214636
v 0.191624 0.152796 0.214636
v 0.201714 0.144658 0.205960
v 0.198249 0.138597 0.214636
v 0.205664 0.119645 0.222401
v 0.199621 0.125037 0.222401
v 0.211808 0.115964 0.222401
v 0.207538 0.108497 0.228963
v 0.201394 0.112178 0.228963
v 0.195351 0.117569 0.228963
v 0.217483 0.114532 0.222401
v 0.221564 0.114301 0.224514
v 0.217294 0.106833 0.230881
v 0.213213 0.107064 0.228963
v 0.218655 0.106757 0.236631
v 0.219206 0.108033 0.266594
v 0.216855 0.103609 0.263807
v 0.193731 0.165950 0.265795
v 0.179277 0.141027 0.263853
v 0.188044 0.156362 0.227805
v 0.186433 0.151085 0.224514
v 0.182163 0.143618 0.230881
v 0.181767 0.145380 0.236631
v 0.187622 0.145798 0.222401
v 0.190071 0.138722 0.222401
v 0.185802 0.131255 0.228963
v 0.183353 0.138330 0.228963
v 0.194247 0.131599 0.222401
v 0.189977 0.124132 0.228963
v 0.197125 0.104710 0.234037
v 0.191082 0.110102 0.234037
v 0.203269 0.101029 0.234037
v 0.198999 0.093561 0.237572
v 0.189595 0.099727 0.237564
v 0.208944 0.099596 0.234037
v 0.213024 0.099366 0.235738
v 0.208756 0.091898 0.239069
v 0.204675 0.092129 0.237572
v 0.212757 0.096442 0.242187
v 0.194193 0.162772 0.268596
v 0.177893 0.136150 0.235738
v 0.173625 0.128683 0.239069
v 0.175205 0.133904 0.242671
v 0.179084 0.130862 0.234037
v 0.181532 0.123787 0.234037
v 0.177264 0.116320 0.237572
v 0.174814 0.123395 0.237572
v 0.185709 0.116664 0.234037
v 0.181439 0.109197 0.237572
v 0.182544 0.095166 0.239521
v 0.191864 0.087335 0.239521
v 0.180894 0.084939 0.240387
v 0.200406 0.084661 0.239521
v 0.204486 0.084431 0.240855
v 0.195622 0.076601 0.240388
v 0.205847 0.084354 0.244854
v 0.200401 0.074829 0.245409
v 0.167929 0.118716 0.241279
v 0.168101 0.121478 0.245044
v 0.170546 0.115255 0.239471
v 0.165870 0.106930 0.240364
v 0.177169 0.101729 0.239521
v 0.173012 0.080657 0.240679
v 0.191508 0.069169 0.240676
v 0.198728 0.074354 0.241829
v 0.177265 0.137192 0.266674
v 0.132679 0.059520 0.245484
v 0.160817 0.106279 0.241866
v 0.161810 0.100623 0.240678
v 0.224252 0.127631 0.268770
v 0.119368 0.031894 0.268596
v 0.160074 0.027120 0.240679
v 0.157080 0.019474 0.240630
v 0.153809 0.027885 0.240642
v 0.148047 0.034827 0.240592
v 0.167676 0.020039 0.241868
v 0.163295 0.019727 0.240680
v 0.111503 0.022161 0.266667
v 0.132122 0.056104 0.241867
v 0.134704 0.053260 0.240679
v 0.136216 0.042684 0.240610
v 0.154535 0.010466 0.240633
v 0.159239 0.005031 0.241866
v 0.155619 0.005296 0.240715
v 0.146840 -0.003543 0.240705
v 0.161684 0.007109 0.245423
v 0.142574 -0.015213 0.268770
v 0.123855 0.042131 0.241861
v 0.123870 0.036412 0.240727
v 0.133556 -0.006428 0.240570
v 0.134131 -0.013906 0.242375
v 0.124414 -0.006510 0.242457
v 0.140255 -0.009957 0.241049
v 0.146114 -0.010492 0.241180
v 0.142701 -0.016271 0.242392
v 0.147573 -0.015317 0.242968
v 0.148273 -0.016353 0.246067
v 0.148168 -0.016218 0.266668
v 0.146379 -0.015286 0.268596
v 0.140536 -0.020534 0.268371
v 0.130655 -0.015681 0.268596
v 0.113073 0.013899 0.268771
v 0.119889 -0.003394 0.268760
v 0.112570 0.019858 0.268595
v 0.111519 0.009808 0.268609
v 0.111356 0.022224 0.263860
v 0.111356 0.022223 0.246263
v 0.114958 0.028525 0.245599
v 0.115077 0.026366 0.242252
v 0.111727 0.020416 0.243333
v 0.116056 0.020980 0.241180
v 0.112840 0.014995 0.242392
v 0.119429 0.013351 0.240577
v 0.115160 0.007692 0.242434
v 0.119148 0.000241 0.242453
v 0.151990 0.025618 0.238536
v 0.146945 0.032780 0.238772
v 0.153428 0.016195 0.231404
v 0.148502 0.001654 0.233120
v 0.152044 0.008642 0.232144
v 0.126807 -0.002324 0.235220
v 0.132989 -0.007278 0.235135
v 0.139142 -0.008724 0.234756
v 0.118965 0.012370 0.234883
v 0.121702 0.004494 0.235214
v 0.123300 0.027583 0.233182
v 0.119954 0.020258 0.234152
v 0.134253 0.039382 0.240317
v 0.140559 0.037672 0.238675
v 0.133186 0.037328 0.231427
v 0.217887 0.144726 0.277772
v 0.233533 0.140057 0.277815
v 0.228146 0.140363 0.277602
v 0.238890 0.141037 0.278240
v 0.244030 0.143238 0.278369
v 0.248815 0.146623 0.278368
v 0.256732 0.156464 0.278382
v 0.259627 0.162624 0.278521
v 0.262875 0.176393 0.278707
v 0.263084 0.183593 0.277162
v 0.262405 0.190840 0.277162
v 0.260800 0.197812 0.277162
v 0.258330 0.204306 0.277162
v 0.255058 0.210116 0.277162
v 0.251097 0.215075 0.277162
v 0.251097 0.215075 0.284327
v 0.255058 0.210116 0.284184
v 0.246555 0.219020 0.277162
v 0.220147 0.220542 0.279276
v 0.215520 0.217360 0.277627
v 0.211190 0.212776 0.278456
v 0.207564 0.207397 0.278372
v 0.204668 0.201240 0.278372
v 0.201446 0.187357 0.278376
v 0.151863 0.041592 0.307472
v 0.159946 0.035187 0.307470
v 0.155688 0.034911 0.309052
v 0.150614 0.039317 0.309052
v 0.161245 0.031754 0.309052
v 0.150614 0.039317 0.313680
v 0.169434 0.032232 0.307547
v 0.172938 0.031370 0.309052
v 0.167127 0.029962 0.309052
v 0.232995 0.133978 0.287034
v 0.239498 0.136204 0.293216
v 0.234199 0.133435 0.294564
v 0.245256 0.138621 0.280246
v 0.239498 0.136204 0.308540
v 0.250613 0.142364 0.308540
v 0.262762 0.160156 0.280404
v 0.266407 0.175652 0.278978
v 0.265088 0.167683 0.280878
v 0.266702 0.183788 0.308540
v 0.265902 0.191957 0.281140
v 0.265943 0.191881 0.308540
v 0.264105 0.199733 0.282135
v 0.264150 0.199670 0.308540
v 0.257739 0.213411 0.308540
v 0.253313 0.218952 0.308540
v 0.248239 0.223357 0.308540
v 0.236812 0.228293 0.282226
v 0.230779 0.228702 0.308540
v 0.219043 0.225245 0.308540
v 0.224800 0.227663 0.308540
v 0.213686 0.221503 0.308540
v 0.208899 0.216551 0.277181
v 0.204799 0.210571 0.308540
v 0.199226 0.196139 0.276881
v 0.199210 0.196184 0.308540
v 0.197596 0.180079 0.286143
v 0.197636 0.171001 0.287034
v 0.196945 0.172441 0.294564
v 0.197596 0.180079 0.308540
v 0.141465 0.060412 0.307472
v 0.140013 0.058334 0.309090
v 0.139853 0.066133 0.308882
v 0.145641 0.049794 0.307470
v 0.142647 0.051190 0.309047
v 0.139271 0.066583 0.313576
v 0.146203 0.044837 0.309050
v 0.213030 0.148491 0.276049
v 0.217614 0.144511 0.276049
v 0.212513 0.147589 0.274691
v 0.222634 0.141658 0.276049
v 0.219328 0.141968 0.274691
v 0.216374 0.141356 0.274787
v 0.211404 0.145676 0.274787
v 0.227948 0.140039 0.276049
v 0.233387 0.139683 0.276049
v 0.230162 0.138448 0.274691
v 0.238788 0.140621 0.276049
v 0.238968 0.139507 0.274691
v 0.243990 0.142805 0.276049
v 0.244979 0.139491 0.274787
v 0.235868 0.136200 0.274785
v 0.248829 0.146186 0.276049
v 0.246393 0.142861 0.274691
v 0.253035 0.150862 0.276566
v 0.255256 0.151557 0.274624
v 0.254838 0.147897 0.274763
v 0.256858 0.156062 0.276049
v 0.259805 0.162260 0.276325
v 0.262132 0.160569 0.275102
v 0.258925 0.153840 0.274786
v 0.261696 0.164640 0.275311
v 0.263187 0.183925 0.279811
v 0.264277 0.179135 0.277799
v 0.262791 0.191473 0.280285
v 0.265963 0.186491 0.279164
v 0.260999 0.198079 0.281716
v 0.258431 0.204625 0.282632
v 0.260890 0.201568 0.281621
v 0.261363 0.206939 0.282434
v 0.263485 0.199329 0.281213
v 0.255345 0.210510 0.282981
v 0.251361 0.215491 0.283245
v 0.257613 0.213510 0.283125
v 0.246718 0.219544 0.282962
v 0.230878 0.225323 0.279914
v 0.239825 0.224305 0.281744
v 0.225468 0.222979 0.279804
v 0.223012 0.223711 0.278021
v 0.220308 0.221063 0.278287
v 0.219363 0.224384 0.277349
v 0.225034 0.226740 0.278705
v 0.212635 0.216623 0.275351
v 0.211134 0.213222 0.276325
v 0.211480 0.218455 0.275431
v 0.207440 0.207805 0.276049
v 0.204493 0.201607 0.276049
v 0.205143 0.205631 0.274667
v 0.202584 0.194708 0.276561
v 0.200852 0.192157 0.274691
v 0.201189 0.187620 0.276049
v 0.198221 0.184890 0.274785
v 0.199935 0.196080 0.274762
v 0.200934 0.180258 0.276049
v 0.201619 0.172947 0.276049
v 0.200158 0.177023 0.274691
v 0.203239 0.165910 0.276049
v 0.202459 0.165478 0.274691
v 0.205731 0.159358 0.276049
v 0.209032 0.153495 0.276049
v 0.206243 0.156062 0.274691
v 0.201824 0.165126 0.316203
v 0.200124 0.172507 0.316203
v 0.197919 0.171084 0.315045
v 0.199404 0.180176 0.316203
v 0.199672 0.187899 0.316203
v 0.198327 0.188146 0.314287
v 0.198048 0.180103 0.314287
v 0.200935 0.195438 0.316203
v 0.203138 0.202570 0.316203
v 0.201937 0.203426 0.314287
v 0.199642 0.195997 0.314287
v 0.208404 0.212720 0.316203
v 0.209191 0.216114 0.314287
v 0.205157 0.210196 0.314287
v 0.214653 0.219431 0.316203
v 0.222890 0.224632 0.316204
v 0.219214 0.224679 0.314287
v 0.213927 0.220985 0.314287
v 0.230850 0.226252 0.316203
v 0.230797 0.228087 0.314287
v 0.224896 0.227064 0.314287
v 0.239923 0.225174 0.316203
v 0.242543 0.225931 0.314287
v 0.236738 0.227699 0.314287
v 0.253036 0.218467 0.314287
v 0.248028 0.222815 0.314287
v 0.261009 0.206596 0.314287
v 0.257404 0.213000 0.314287
v 0.263705 0.194453 0.316203
v 0.265501 0.191750 0.314287
v 0.263732 0.199438 0.314287
v 0.264894 0.183691 0.316203
v 0.264109 0.171457 0.316203
v 0.265971 0.175721 0.314287
v 0.266250 0.183763 0.314287
v 0.261160 0.161296 0.316203
v 0.262362 0.160441 0.314287
v 0.264657 0.167869 0.314287
v 0.255891 0.151142 0.316203
v 0.255108 0.147753 0.314287
v 0.259141 0.153671 0.314287
v 0.249646 0.144435 0.316203
v 0.244571 0.140889 0.316203
v 0.245084 0.139188 0.314287
v 0.250371 0.142882 0.314287
v 0.239113 0.138598 0.316203
v 0.233448 0.137615 0.316203
v 0.232984 0.134370 0.315045
v 0.239402 0.136803 0.314287
v 0.213328 0.148640 0.277802
v 0.222872 0.141934 0.277686
v 0.261710 0.169223 0.277616
v 0.262405 0.190840 0.282742
v 0.246555 0.219020 0.284184
v 0.241522 0.221942 0.282793
v 0.236210 0.223563 0.281939
v 0.230800 0.223917 0.280909
v 0.201221 0.180056 0.278382
v 0.201925 0.172807 0.278154
v 0.203553 0.165822 0.277725
v 0.206047 0.159352 0.277668
v 0.209348 0.153566 0.277748
v 0.220787 0.135899 0.286077
v 0.215228 0.139056 0.286077
v 0.216059 0.140510 0.280246
v 0.221617 0.137352 0.280246
v 0.210154 0.143462 0.286077
v 0.210986 0.144916 0.280246
v 0.211090 0.145099 0.276234
v 0.216139 0.140715 0.276234
v 0.205729 0.149002 0.286077
v 0.206560 0.150455 0.280246
v 0.202075 0.155490 0.286077
v 0.202906 0.156944 0.280246
v 0.203052 0.157068 0.276234
v 0.206688 0.150611 0.276234
v 0.199318 0.162744 0.286077
v 0.200148 0.164197 0.280246
v 0.198355 0.171986 0.280246
v 0.198522 0.172035 0.276234
v 0.200307 0.164286 0.276234
v 0.197708 0.181228 0.276591
v 0.197897 0.188226 0.276904
v 0.201546 0.203484 0.276616
v 0.204797 0.210479 0.276812
v 0.213609 0.221301 0.277683
v 0.218944 0.225069 0.278780
v 0.224773 0.227609 0.280091
v 0.230654 0.228593 0.281060
v 0.242708 0.226484 0.282643
v 0.248175 0.223337 0.283103
v 0.253216 0.218985 0.283391
v 0.266668 0.183875 0.280046
v 0.262610 0.160264 0.276512
v 0.259500 0.153296 0.280246
v 0.255413 0.147300 0.280246
v 0.255297 0.147472 0.276234
v 0.259364 0.153438 0.276234
v 0.250613 0.142364 0.280246
v 0.245192 0.138836 0.276234
v 0.250520 0.142560 0.276234
v 0.239148 0.136048 0.285409
v 0.233559 0.135425 0.276856
v 0.239462 0.136431 0.276234
v 0.226668 0.134107 0.286077
v 0.227498 0.135560 0.280246
v 0.161245 0.031754 0.313680
v 0.155688 0.034911 0.313680
v 0.156968 0.037151 0.315572
v 0.149942 0.043548 0.315572
v 0.167127 0.029962 0.313680
v 0.172864 0.031383 0.313892
v 0.167631 0.032105 0.315590
v 0.245256 0.138621 0.308540
v 0.234199 0.133435 0.308964
v 0.255413 0.147300 0.308540
v 0.262762 0.160156 0.308540
v 0.259500 0.153296 0.308540
v 0.266421 0.175639 0.308540
v 0.265088 0.167683 0.308540
v 0.261392 0.206923 0.308540
v 0.242681 0.226515 0.308540
v 0.236800 0.228307 0.308540
v 0.208886 0.216567 0.308540
v 0.201536 0.203711 0.308540
v 0.197879 0.188228 0.308540
v 0.196945 0.172441 0.308964
v 0.142535 0.051345 0.313680
v 0.139776 0.058599 0.313680
v 0.143816 0.053586 0.315572
v 0.141057 0.060840 0.315572
v 0.140770 0.066824 0.315081
v 0.146188 0.044857 0.313680
v 0.230217 0.128637 0.298610
v 0.228707 0.128914 0.294370
v 0.230217 0.128637 0.310234
v 0.226893 0.122824 0.303154
v 0.225383 0.123101 0.300095
v 0.228707 0.128914 0.314710
v 0.224058 0.120791 0.315216
v 0.225043 0.119594 0.312408
v 0.224175 0.129747 0.316203
v 0.219745 0.121978 0.316198
v 0.226728 0.134714 0.316203
v 0.198944 0.161248 0.316203
v 0.194987 0.163756 0.314817
v 0.194513 0.166020 0.310234
v 0.194513 0.166020 0.298610
v 0.195091 0.164111 0.294370
v 0.191767 0.158298 0.300095
v 0.191190 0.160207 0.303154
v 0.196824 0.158384 0.292956
v 0.199583 0.151130 0.292956
v 0.196259 0.145317 0.299075
v 0.193500 0.152571 0.299075
v 0.203237 0.144642 0.292956
v 0.207662 0.139102 0.292956
v 0.204338 0.133289 0.299075
v 0.199914 0.138828 0.299075
v 0.212735 0.134696 0.292956
v 0.218295 0.131539 0.292956
v 0.214971 0.125726 0.299075
v 0.209412 0.128883 0.299075
v 0.224175 0.129747 0.292956
v 0.220851 0.123933 0.299075
v 0.222724 0.115531 0.306593
v 0.222059 0.117288 0.303466
v 0.218416 0.110915 0.305339
v 0.213884 0.111747 0.316203
v 0.189915 0.146267 0.316203
v 0.188444 0.152485 0.315348
v 0.183180 0.143283 0.315563
v 0.189412 0.157094 0.312381
v 0.188444 0.152485 0.303466
v 0.186401 0.151835 0.306919
v 0.190177 0.146758 0.302623
v 0.186533 0.140384 0.304578
v 0.194355 0.136466 0.302609
v 0.201014 0.127476 0.302623
v 0.197371 0.121102 0.304578
v 0.190734 0.130058 0.304570
v 0.208612 0.121277 0.302615
v 0.205025 0.114867 0.304574
v 0.217527 0.118120 0.302623
v 0.213884 0.111747 0.304578
v 0.212681 0.100918 0.306888
v 0.214825 0.101716 0.308625
v 0.218267 0.107735 0.313631
v 0.209600 0.104254 0.316203
v 0.204997 0.096201 0.316203
v 0.182225 0.144527 0.313654
v 0.183025 0.142984 0.306028
v 0.175913 0.130566 0.307246
v 0.178571 0.138134 0.308728
v 0.182250 0.132891 0.305916
v 0.177630 0.124380 0.306678
v 0.188097 0.119372 0.305910
v 0.190091 0.102937 0.306686
v 0.200694 0.107405 0.305914
v 0.207771 0.101027 0.306365
v 0.204924 0.087316 0.307472
v 0.206439 0.087047 0.309051
v 0.217455 0.109240 0.315563
v 0.200392 0.088149 0.316203
v 0.170708 0.124381 0.309052
v 0.171306 0.122509 0.307472
v 0.173042 0.116786 0.306946
v 0.180435 0.100392 0.306946
v 0.200110 0.087775 0.306944
v 0.192659 0.065889 0.307471
v 0.171825 0.039612 0.306948
v 0.152287 0.092162 0.313680
v 0.148922 0.086207 0.309059
v 0.150313 0.085753 0.307472
v 0.178290 0.037810 0.309087
v 0.176435 0.038000 0.307494
v 0.178292 0.037813 0.313680
v 0.176781 0.038091 0.315572
v 0.171983 0.038503 0.316203
v 0.152293 0.051165 0.316203
v 0.144898 0.067559 0.316203
v 0.143165 0.073287 0.315572
v 0.142339 0.074794 0.313619
v 0.143074 0.075619 0.309160
v 0.143574 0.072860 0.307472
v 0.144584 0.066006 0.306937
v 0.160447 0.043835 0.306946
v 0.152523 0.015701 0.230060
v 0.150423 0.024005 0.229998
v 0.145444 0.030895 0.230094
v 0.150959 0.007590 0.230951
v 0.132979 -0.006717 0.234355
v 0.127017 -0.001959 0.234450
v 0.138915 -0.008107 0.233940
v 0.119506 0.012214 0.233941
v 0.122114 0.004659 0.234357
v 0.123628 0.026840 0.231955
v 0.120426 0.019792 0.233063
v 0.139290 0.035446 0.230013
v 0.133117 0.036021 0.230063
v 0.148128 0.022158 0.230433
v 0.144153 0.028230 0.230508
v 0.149957 0.015131 0.230569
v 0.149948 0.015241 0.231818
v 0.148187 0.022197 0.231707
v 0.144287 0.028252 0.231786
v 0.146033 0.003273 0.233384
v 0.148843 0.008948 0.232467
v 0.133405 -0.003976 0.234146
v 0.128396 0.000456 0.235458
v 0.133483 -0.003521 0.235378
v 0.138568 -0.004665 0.235031
v 0.121793 0.012302 0.233824
v 0.122057 0.012624 0.235031
v 0.124274 0.006122 0.235378
v 0.122382 0.018807 0.233074
v 0.124917 0.024765 0.232140
v 0.125245 0.025040 0.233384
v 0.122681 0.019107 0.234302
v 0.133170 0.032498 0.230500
v 0.138977 0.031840 0.231707
v 0.133437 0.032529 0.231818
v 0.233421 0.133622 0.268226
v 0.229694 0.127351 0.268071
v 0.244551 0.137518 0.268081
v 0.255722 0.146839 0.268073
v 0.250858 0.141837 0.268073
v 0.259864 0.152915 0.268073
v 0.266876 0.175555 0.268073
v 0.267163 0.183812 0.268073
v 0.261781 0.207255 0.268073
v 0.264576 0.199906 0.268073
v 0.253594 0.219445 0.268073
v 0.248454 0.223909 0.268073
v 0.230761 0.229322 0.268073
v 0.236861 0.228924 0.268073
v 0.218868 0.225821 0.268073
v 0.224702 0.228271 0.268073
v 0.208576 0.217028 0.268073
v 0.213440 0.222030 0.268073
v 0.201293 0.204139 0.268366
v 0.204601 0.211085 0.268358
v 0.197135 0.180054 0.268073
v 0.197217 0.171052 0.268121
v 0.220539 0.111320 0.268074
v 0.181833 0.144239 0.268073
v 0.118822 0.034024 0.268073
v 0.144207 -0.019693 0.268073
v 0.134265 -0.019474 0.268073
v 0.128216 -0.015820 0.268073
v 0.122173 -0.010428 0.268073
v 0.116800 -0.003866 0.268073
v 0.112667 0.003140 0.268073
v 0.110348 0.009863 0.268073
v 0.110015 0.016107 0.268073
v 0.147937 -0.015668 0.268072
v 0.111886 0.021809 0.268067
v 0.222113 0.137701 0.274920
v 0.204786 0.154615 0.274793
v 0.200815 0.164509 0.274770
v 0.199053 0.172134 0.274772
v 0.202145 0.203279 0.274815
v 0.205383 0.210038 0.274786
v 0.233530 0.227913 0.280618
v 0.265730 0.175788 0.277355
v 0.264803 0.168279 0.276233
v 0.250246 0.143150 0.274815
v 0.227946 0.136018 0.274922
v 0.210700 0.144415 0.101599
v 0.216612 0.139131 0.101599
v 0.222629 0.135519 0.101599
v 0.229604 0.133916 0.101590
v 0.239596 0.135595 0.101599
v 0.245430 0.138044 0.101599
v 0.250858 0.141837 0.101599
v 0.255722 0.146839 0.101599
v 0.261428 0.155584 0.101591
v 0.265526 0.167493 0.101599
v 0.267241 0.178915 0.101592
v 0.266394 0.192013 0.101599
v 0.264576 0.199906 0.101599
v 0.260426 0.210221 0.101593
v 0.253594 0.219445 0.101599
v 0.248454 0.223909 0.101599
v 0.242821 0.227107 0.101599
v 0.236861 0.228924 0.101599
v 0.230761 0.229322 0.101599
v 0.222240 0.227586 0.101591
v 0.213440 0.222030 0.101599
v 0.208576 0.217028 0.101599
v 0.202871 0.208282 0.101591
v 0.198772 0.196375 0.101599
v 0.197423 0.188312 0.101599
v 0.197163 0.177148 0.101593
v 0.198938 0.164759 0.101599
v 0.201341 0.157807 0.101599
v 0.205435 0.150834 0.101599
v 0.147209 0.033363 0.240334
v 0.152281 0.026274 0.240334
v 0.154650 0.018114 0.240323
v 0.140865 0.038228 0.240334
v 0.139835 -0.007890 0.240389
v 0.127268 -0.001374 0.240521
v 0.122184 0.005407 0.240530
v 0.153129 0.010276 0.240359
v 0.149328 0.002864 0.240389
v 0.120575 0.021633 0.240604
v 0.124112 0.029262 0.240573
v 0.138513 -0.005079 0.233793
v 0.143335 -0.001520 0.232944
v 0.148869 0.008676 0.231177
v 0.128273 -0.000014 0.234228
v 0.124069 0.005701 0.234152
v 0.138770 0.031827 0.230441
v 0.154118 -0.003861 0.241887
v 0.150166 -0.003974 0.240757
v 0.148242 -0.016403 0.263868
v 0.118789 0.033130 0.241887
v 0.119515 0.028119 0.240757
v 0.144991 -0.003960 0.240411
v 0.144260 -0.005037 0.234119
v 0.128699 0.035844 0.240529
v 0.127735 0.033918 0.232166
v 0.143736 -0.004614 0.233063
v 0.127864 0.032802 0.230847
v 0.142680 -0.001832 0.234302
v 0.128530 0.029746 0.231167
v 0.128845 0.029888 0.232467
v 0.132977 0.033765 0.231649
v 0.140323 0.008029 0.233756
v 0.136083 0.017038 0.233603
v 0.138997 -0.006356 0.235244
v 0.143886 0.007071 0.233404
v 0.138367 0.012130 0.233639
v 0.136672 0.031407 0.231848
v 0.126489 0.012876 0.234845
v 0.134000 0.031351 0.232164
v 0.132480 0.029132 0.232539
v 0.131375 0.027323 0.232592
v 0.124185 0.016654 0.234409
v 0.126400 0.019326 0.233910
v 0.128814 0.018092 0.233987
v 0.124532 0.009356 0.235265
v 0.135728 -0.003308 0.235191
v 0.149619 0.018979 0.231801
v 0.128163 0.004608 0.235485
v 0.130362 0.002961 0.235045
v 0.137345 0.026218 0.232656
v 0.135694 0.022569 0.233140
v 0.137944 -0.003905 0.235208
v 0.139111 -0.002276 0.234769
v 0.140810 0.000020 0.234442
v 0.143662 0.003868 0.233712
v 0.147846 0.018385 0.232119
v 0.146229 0.012409 0.232638
v 0.144856 0.029285 0.231944
v 0.144045 0.024476 0.232250
v 0.130096 -0.000603 0.235375
v 0.134090 0.008068 0.234418
v 0.133031 0.003606 0.235083
v 0.136006 0.001716 0.234859
v 0.135802 0.005555 0.234373
v 0.125074 0.025259 0.233457
v 0.127852 0.023003 0.233353
v 0.146022 0.003182 0.233468
v 0.147957 0.012222 0.232537
v 0.146315 0.008354 0.232892
v 0.151092 0.014841 0.231646
v 0.144990 0.029311 0.232190
v 0.150949 0.013763 0.232008
v 0.137106 -0.005316 0.235579
v 0.132183 0.004205 0.235182
v 0.120745 0.012712 0.235406
v 0.135228 0.033425 0.231843
v 0.125004 0.025760 0.233657
v 0.125680 0.005629 0.235553
v 0.122756 0.008990 0.235568
v 0.138925 0.031973 0.231971
v 0.134452 0.025793 0.232809
v 0.141685 0.030724 0.232111
v 0.146976 0.025111 0.232035
v 0.150775 0.016439 0.231885
v 0.147952 0.020612 0.232145
v 0.133647 -0.003434 0.235631
v 0.128050 -0.000316 0.235752
v 0.122936 0.012808 0.235326
v 0.130789 0.025781 0.233076
v 0.124836 0.015386 0.234914
v 0.126733 0.015645 0.234263
v 0.126151 0.018194 0.234627
v 0.132223 0.019570 0.233464
v 0.131249 0.023112 0.233166
v 0.133941 0.024994 0.232780
v 0.135939 0.028587 0.232325
v 0.134224 0.014850 0.233996
v 0.139982 0.025369 0.232636
v 0.137707 0.021521 0.233193
v 0.131848 0.011004 0.234382
v 0.130064 0.007409 0.235118
v 0.135247 0.018942 0.233400
v 0.131197 0.015549 0.234006
v 0.129144 0.011671 0.234600
v 0.127304 0.008543 0.234901
v 0.139397 0.001369 0.234288
v 0.141189 0.004234 0.233879
v 0.142650 0.021724 0.232881
v 0.140342 0.015659 0.233265
v 0.138354 0.004743 0.234408
v 0.141915 0.011349 0.233558
v 0.132702 -0.001159 0.235346
v 0.145364 0.016644 0.232614
v 0.129088 0.021182 0.233643
v 0.124263 0.012422 0.234774
v 0.139296 0.029492 0.232386
v 0.149075 0.015079 0.232165
v 0.140848 0.018283 0.233290
v 0.145835 0.021031 0.232371
v 0.143413 0.019022 0.232684
v 0.135577 -0.000617 0.235016
v 0.122307 0.017809 0.234726
v 0.127120 0.016402 0.234591
v 0.123998 0.022916 0.234066
v 0.127559 0.028569 0.232989
v 0.129527 0.030618 0.232555
v 0.130124 0.025042 0.233303
v 0.132592 0.033983 0.231847
v 0.139786 -0.005826 0.235275
v 0.139822 0.002520 0.234652
v 0.142680 -0.001766 0.234524
v 0.145454 0.002042 0.233908
v 0.147258 0.005234 0.233336
v 0.144866 0.011273 0.233149
v 0.148703 0.008650 0.232753
v 0.136098 0.014261 0.233916
v 0.142491 0.028736 0.232100
v 0.143879 0.013870 0.232957
v 0.137601 0.010071 0.234150
f 1 2 3
f 3 65 1
f 2 4 5
f 5 3 2
f 3 5 77
f 4 6 7
f 7 5 4
f 6 8 9
f 9 7 6
f 9 66 7
f 66 77 5
f 5 7 66
f 8 10 11
f 11 9 8
f 10 12 67
f 67 11 10
f 67 83 11
f 9 11 83
f 12 13 68
f 68 67 12
f 13 14 15
f 15 68 13
f 68 15 119
f 14 16 17
f 17 15 14
f 16 18 19
f 19 17 16
f 19 138 17
f 138 119 15
f 15 17 138
f 18 20 120
f 120 19 18
f 20 21 121
f 121 120 20
f 21 22 108
f 108 121 21
f 22 23 24
f 24 108 22
f 23 25 26
f 26 24 23
f 25 27 84
f 84 26 25
f 27 28 29
f 29 84 27
f 28 30 31
f 31 29 28
f 29 31 69
f 30 32 33
f 33 31 30
f 32 34 35
f 35 33 32
f 33 69 31
f 34 36 37
f 37 35 34
f 36 38 39
f 39 37 36
f 38 40 41
f 41 39 38
f 40 42 43
f 43 41 40
f 42 44 70
f 70 43 42
f 44 45 46
f 46 70 44
f 70 46 47
f 45 48 73
f 73 46 45
f 48 49 50
f 50 73 48
f 73 50 168
f 73 47 46
f 49 51 52
f 52 50 49
f 51 53 54
f 54 52 51
f 55 171 52
f 52 54 55
f 171 168 50
f 50 52 171
f 53 56 57
f 57 54 53
f 56 58 59
f 59 57 56
f 57 55 54
f 58 60 61
f 61 59 58
f 60 62 63
f 63 61 60
f 62 64 74
f 74 63 62
f 64 1 65
f 65 74 64
f 65 3 75
f 77 75 3
f 66 9 71
f 83 71 9
f 69 72 29
f 84 29 72
f 35 156 33
f 69 33 156
f 55 57 87
f 59 87 57
f 67 68 135
f 119 135 68
f 41 43 162
f 162 85 41
f 39 41 85
f 70 162 43
f 168 86 73
f 47 73 86
f 87 59 88
f 61 88 59
f 75 76 65
f 78 79 75
f 75 77 78
f 79 80 76
f 76 75 79
f 81 82 66
f 66 71 81
f 82 78 77
f 77 66 82
f 83 81 71
f 26 84 151
f 72 151 84
f 156 35 109
f 37 109 35
f 47 165 70
f 162 70 165
f 89 110 87
f 87 88 89
f 55 87 110
f 88 61 90
f 61 63 91
f 91 90 61
f 92 93 90
f 90 91 92
f 93 89 88
f 88 90 93
f 63 74 94
f 94 91 63
f 74 65 76
f 76 94 74
f 80 95 94
f 94 76 80
f 95 92 91
f 91 94 95
f 96 97 100
f 100 101 96
f 97 98 99
f 99 100 97
f 98 102 103
f 103 99 98
f 102 104 105
f 105 103 102
f 81 83 106
f 106 107 81
f 67 106 83
f 109 37 159
f 37 39 122
f 122 159 37
f 85 122 39
f 110 89 111
f 112 113 114
f 114 115 112
f 113 116 123
f 123 114 113
f 123 178 114
f 178 179 115
f 115 114 178
f 116 117 118
f 118 123 116
f 117 96 101
f 101 118 117
f 100 126 101
f 124 125 100
f 100 99 124
f 126 100 125
f 99 103 128
f 103 105 127
f 127 128 103
f 128 124 99
f 67 129 106
f 129 130 107
f 107 106 129
f 138 19 139
f 120 139 19
f 121 108 146
f 24 146 108
f 146 24 147
f 151 150 26
f 150 147 24
f 24 26 150
f 55 110 173
f 111 173 110
f 173 111 174
f 178 123 177
f 123 118 180
f 118 101 126
f 126 180 118
f 180 177 123
f 129 67 131
f 132 133 129
f 129 131 132
f 133 134 130
f 130 129 133
f 135 131 67
f 136 137 135
f 135 119 136
f 137 132 131
f 131 135 137
f 140 141 138
f 138 139 140
f 141 136 119
f 119 138 141
f 139 120 142
f 120 121 143
f 143 142 120
f 144 145 142
f 142 143 144
f 145 140 139
f 139 142 145
f 146 143 121
f 148 149 146
f 146 147 148
f 149 144 143
f 143 146 149
f 152 153 150
f 150 151 152
f 153 148 147
f 147 150 153
f 154 155 72
f 72 69 154
f 155 152 151
f 151 72 155
f 157 158 156
f 156 109 157
f 158 154 69
f 69 156 158
f 160 161 159
f 159 122 160
f 161 157 109
f 109 159 161
f 163 164 85
f 85 162 163
f 164 160 122
f 122 85 164
f 166 167 165
f 165 47 166
f 167 163 162
f 162 165 167
f 169 170 86
f 86 168 169
f 170 166 47
f 47 86 170
f 176 172 171
f 171 55 176
f 172 169 168
f 168 171 172
f 175 176 173
f 173 174 175
f 55 173 176
f 181 233 230
f 182 183 230
f 183 184 181
f 181 230 183
f 181 191 185
f 184 186 191
f 191 181 184
f 186 187 191
f 188 185 191
f 187 189 191
f 189 190 191
f 194 188 191
f 191 195 194
f 190 192 191
f 192 193 195
f 195 191 192
f 193 196 195
f 196 197 195
f 200 194 195
f 195 206 200
f 197 198 195
f 198 199 206
f 206 195 198
f 199 201 206
f 201 202 206
f 203 200 206
f 202 204 206
f 204 205 206
f 206 209 203
f 205 207 206
f 207 208 209
f 209 206 207
f 208 210 209
f 210 211 209
f 211 213 212
f 212 209 211
f 213 214 212
f 212 220 215
f 214 216 220
f 220 212 214
f 216 217 220
f 223 215 220
f 217 218 220
f 218 219 220
f 219 221 220
f 221 222 220
f 229 223 226
f 220 226 223
f 222 224 226
f 226 220 222
f 224 225 226
f 225 227 226
f 227 228 226
f 233 229 230
f 226 230 229
f 228 231 230
f 230 226 228
f 231 232 230
f 232 234 230
f 234 182 230
f 235 236 404
f 238 239 235
f 235 237 238
f 239 240 236
f 236 235 239
f 244 241 237
f 241 242 243
f 243 237 241
f 237 243 238
f 244 247 245
f 245 241 244
f 246 242 241
f 241 245 246
f 248 245 247
f 247 249 248
f 250 251 248
f 251 246 245
f 245 248 251
f 249 253 252
f 252 248 249
f 254 255 252
f 255 250 248
f 248 252 255
f 253 256 257
f 257 252 253
f 256 261 258
f 258 257 256
f 259 260 257
f 257 258 259
f 260 254 252
f 252 257 260
f 261 262 263
f 263 258 261
f 264 265 258
f 258 263 264
f 265 259 258
f 262 267 266
f 266 263 262
f 268 266 267
f 269 270 266
f 266 268 269
f 270 264 263
f 263 266 270
f 267 271 272
f 272 268 267
f 271 275 272
f 273 274 272
f 274 269 268
f 268 272 274
f 277 272 275
f 275 276 277
f 278 279 277
f 279 273 272
f 272 277 279
f 276 284 280
f 280 277 276
f 281 280 284
f 282 283 280
f 280 281 282
f 283 278 277
f 277 280 283
f 284 288 285
f 285 281 284
f 286 287 281
f 281 285 286
f 287 282 281
f 289 285 288
f 288 880 289
f 290 291 289
f 291 286 285
f 285 289 291
f 880 879 292
f 292 289 880
f 293 292 879
f 294 295 292
f 292 293 294
f 295 290 289
f 289 292 295
f 879 296 293
f 296 297 298
f 298 293 296
f 299 300 293
f 293 298 299
f 300 294 293
f 297 301 298
f 302 303 298
f 303 299 298
f 304 298 301
f 305 304 301
f 305 306 304
f 306 307 308
f 308 304 306
f 302 298 304
f 304 308 302
f 309 306 305
f 309 404 236
f 240 310 309
f 309 236 240
f 310 307 306
f 306 309 310
f 602 645 631
f 631 630 602
f 630 627 602
f 627 311 602
f 311 312 602
f 312 313 602
f 610 607 602
f 607 606 602
f 606 603 602
f 80 79 314
f 314 315 80
f 79 78 316
f 316 314 79
f 317 318 314
f 314 316 317
f 318 319 315
f 315 314 318
f 78 82 320
f 320 316 78
f 82 81 321
f 321 320 82
f 322 323 320
f 320 321 322
f 323 317 316
f 316 320 323
f 81 107 325
f 325 321 81
f 324 322 321
f 321 325 324
f 107 130 326
f 326 325 107
f 326 324 325
f 130 134 327
f 327 326 130
f 328 244 404
f 244 237 404
f 237 235 404
f 305 404 309
f 305 301 374
f 175 174 329
f 329 352 175
f 174 111 329
f 330 329 111
f 111 89 331
f 331 330 111
f 332 354 330
f 330 331 332
f 329 330 354
f 89 93 333
f 333 331 89
f 93 92 334
f 334 333 93
f 335 336 333
f 333 334 335
f 336 332 331
f 331 333 336
f 92 95 337
f 337 334 92
f 95 80 315
f 315 337 95
f 319 338 337
f 337 315 319
f 338 335 334
f 334 337 338
f 319 318 339
f 339 340 319
f 318 317 341
f 341 339 318
f 342 343 339
f 339 341 342
f 343 344 340
f 340 339 343
f 317 323 345
f 345 341 317
f 323 322 346
f 346 345 323
f 347 348 345
f 345 346 347
f 348 342 341
f 341 345 348
f 324 346 322
f 349 347 346
f 346 324 349
f 326 327 350
f 350 351 326
f 351 349 324
f 324 326 351
f 352 329 353
f 354 332 355
f 356 357 354
f 354 355 356
f 357 353 329
f 329 354 357
f 332 336 358
f 358 355 332
f 336 335 359
f 359 358 336
f 360 361 358
f 358 359 360
f 361 356 355
f 355 358 361
f 335 338 362
f 362 359 335
f 338 319 340
f 340 362 338
f 344 363 362
f 362 340 344
f 363 360 359
f 359 362 363
f 344 343 364
f 364 365 344
f 343 342 366
f 366 364 343
f 367 368 364
f 364 366 367
f 365 364 368
f 342 348 369
f 369 366 342
f 348 347 370
f 370 369 348
f 371 372 369
f 369 370 371
f 372 367 366
f 366 369 372
f 347 349 373
f 373 370 347
f 373 371 370
f 351 373 349
f 353 400 352
f 353 357 377
f 357 356 375
f 375 377 357
f 377 375 376
f 356 361 378
f 378 375 356
f 361 360 379
f 379 378 361
f 380 381 378
f 378 379 380
f 381 376 375
f 375 378 381
f 360 363 382
f 382 379 360
f 363 344 365
f 365 382 363
f 368 383 382
f 382 365 368
f 383 380 379
f 379 382 383
f 385 384 368
f 368 367 385
f 389 386 385
f 384 385 386
f 367 372 387
f 387 385 367
f 372 371 388
f 388 387 372
f 399 389 387
f 387 388 399
f 385 387 389
f 371 373 390
f 390 388 371
f 391 399 388
f 388 390 391
f 373 351 390
f 432 955 351
f 351 350 432
f 955 391 390
f 390 351 955
f 353 377 393
f 377 376 392
f 392 393 377
f 376 381 394
f 394 392 376
f 381 380 394
f 392 394 395
f 380 383 396
f 396 394 380
f 383 368 384
f 384 396 383
f 386 395 396
f 396 384 386
f 394 396 395
f 386 389 398
f 398 397 386
f 397 398 411
f 399 398 389
f 399 411 398
f 401 353 393
f 393 392 402
f 402 401 393
f 392 395 403
f 403 402 392
f 397 403 395
f 395 386 397
f 403 397 406
f 411 406 397
f 411 399 410
f 391 410 399
f 328 404 421
f 305 374 405
f 401 402 413
f 403 413 402
f 406 414 403
f 413 403 414
f 410 391 420
f 955 420 391
f 421 433 328
f 421 404 436
f 305 436 404
f 405 436 305
f 400 353 440
f 440 412 400
f 401 440 353
f 408 406 407
f 408 409 406
f 411 407 406
f 409 415 414
f 414 406 409
f 407 411 418
f 418 416 407
f 411 410 417
f 417 418 411
f 418 419 416
f 420 417 410
f 401 413 422
f 413 414 423
f 423 422 413
f 414 415 960
f 960 423 414
f 423 960 946
f 941 424 425
f 425 426 941
f 424 427 425
f 98 97 425
f 97 96 426
f 426 425 97
f 427 428 429
f 429 425 427
f 430 429 428
f 104 102 429
f 429 430 104
f 102 98 425
f 425 429 102
f 105 104 430
f 430 431 105
f 431 955 127
f 127 105 431
f 955 432 127
f 435 434 421
f 421 437 435
f 433 421 434
f 439 437 436
f 436 438 439
f 412 440 179
f 440 442 441
f 440 441 179
f 442 443 444
f 444 441 442
f 112 115 441
f 441 444 112
f 115 179 441
f 443 445 446
f 446 444 443
f 445 447 448
f 448 446 445
f 116 113 446
f 446 448 116
f 113 112 444
f 444 446 113
f 447 942 449
f 449 448 447
f 942 941 426
f 426 449 942
f 96 117 449
f 449 426 96
f 117 116 448
f 448 449 117
f 450 938 452
f 452 827 450
f 827 828 451
f 451 450 827
f 938 943 454
f 454 452 938
f 943 944 453
f 453 454 943
f 455 456 424
f 424 941 455
f 456 457 940
f 940 424 456
f 941 942 459
f 942 447 458
f 458 459 942
f 459 455 941
f 447 945 461
f 461 458 447
f 945 946 460
f 460 461 945
f 463 464 462
f 828 837 463
f 463 451 828
f 464 463 837
f 240 239 465
f 465 648 240
f 239 238 649
f 649 465 239
f 238 243 467
f 467 649 238
f 243 242 466
f 466 467 243
f 468 466 242
f 242 246 469
f 469 468 242
f 246 251 470
f 470 469 246
f 251 250 552
f 552 470 251
f 250 255 471
f 471 552 250
f 255 254 472
f 472 471 255
f 254 260 650
f 650 472 254
f 260 259 473
f 473 650 260
f 259 265 474
f 474 473 259
f 265 264 475
f 475 474 265
f 651 560 474
f 474 475 651
f 473 474 560
f 264 270 476
f 476 475 264
f 270 269 477
f 477 476 270
f 476 651 475
f 269 274 478
f 478 477 269
f 274 273 479
f 479 478 274
f 480 481 478
f 478 479 480
f 477 478 481
f 273 279 482
f 482 479 273
f 278 482 279
f 653 652 482
f 482 278 653
f 652 480 479
f 479 482 652
f 655 654 283
f 283 282 655
f 654 653 278
f 278 283 654
f 287 286 483
f 483 575 287
f 575 655 282
f 282 287 575
f 286 291 484
f 484 483 286
f 291 290 485
f 485 484 291
f 290 295 486
f 486 485 290
f 295 294 487
f 487 486 295
f 294 300 586
f 586 487 294
f 300 299 488
f 488 586 300
f 299 303 656
f 656 488 299
f 303 302 657
f 657 656 303
f 302 308 658
f 658 657 302
f 308 307 659
f 659 658 308
f 307 310 660
f 660 659 307
f 310 240 648
f 648 660 310
f 489 490 491
f 491 492 489
f 493 491 490
f 491 494 492
f 490 495 497
f 497 493 490
f 496 497 495
f 497 496 710
f 498 700 499
f 499 500 498
f 501 499 700
f 501 502 499
f 500 499 502
f 501 697 503
f 714 503 697
f 714 693 716
f 504 716 693
f 505 691 507
f 691 508 509
f 509 507 691
f 508 510 511
f 511 509 508
f 567 511 510
f 567 571 512
f 571 690 513
f 513 512 571
f 690 689 514
f 514 513 690
f 688 514 689
f 516 686 518
f 517 518 686
f 520 683 521
f 723 521 683
f 681 523 522
f 723 522 523
f 681 524 527
f 524 525 526
f 526 527 524
f 530 528 529
f 528 531 532
f 532 529 528
f 529 533 530
f 534 532 531
f 531 489 492
f 492 534 531
f 534 492 494
f 535 536 539
f 539 537 535
f 536 538 539
f 896 540 539
f 540 541 537
f 537 539 540
f 538 542 544
f 544 539 538
f 542 543 544
f 549 906 544
f 906 896 539
f 539 544 906
f 543 545 546
f 546 544 543
f 545 547 551
f 551 546 545
f 548 549 546
f 546 551 548
f 544 546 549
f 547 550 551
f 550 552 553
f 553 551 550
f 551 553 554
f 554 548 551
f 552 555 553
f 555 556 559
f 559 553 555
f 557 558 553
f 553 559 557
f 558 554 553
f 556 650 559
f 650 473 561
f 561 559 650
f 903 904 559
f 559 561 903
f 904 557 559
f 473 560 561
f 562 561 560
f 561 562 563
f 563 903 561
f 562 564 566
f 564 565 566
f 567 568 566
f 568 563 562
f 562 566 568
f 569 566 565
f 690 571 569
f 569 570 690
f 571 567 566
f 566 569 571
f 572 653 574
f 574 689 572
f 689 690 570
f 570 572 689
f 653 654 574
f 654 655 573
f 573 574 654
f 574 573 579
f 655 575 576
f 576 573 655
f 575 577 576
f 578 579 576
f 573 576 579
f 577 484 580
f 580 576 577
f 484 581 580
f 582 578 576
f 576 580 582
f 581 583 585
f 585 580 581
f 583 584 585
f 590 901 585
f 901 582 580
f 580 585 901
f 584 586 587
f 587 585 584
f 586 588 587
f 589 590 587
f 585 587 590
f 588 591 593
f 593 587 588
f 591 592 593
f 899 589 593
f 587 593 589
f 592 594 595
f 595 593 592
f 594 596 598
f 598 595 594
f 898 899 595
f 595 598 898
f 593 595 899
f 596 597 598
f 597 535 537
f 537 598 597
f 541 897 598
f 598 537 541
f 897 898 598
f 599 645 600
f 601 743 599
f 599 600 601
f 645 599 743
f 602 600 645
f 604 605 602
f 602 603 604
f 605 601 600
f 600 602 605
f 608 609 606
f 606 607 608
f 609 604 603
f 603 606 609
f 611 612 610
f 612 608 607
f 607 610 612
f 613 610 602
f 614 613 602
f 615 616 613
f 613 614 615
f 616 611 610
f 610 613 616
f 617 614 602
f 618 619 614
f 614 617 618
f 619 615 614
f 620 617 602
f 621 622 620
f 622 618 617
f 617 620 622
f 313 620 602
f 623 624 313
f 313 312 623
f 624 621 620
f 620 313 624
f 625 626 312
f 312 311 625
f 626 623 312
f 628 629 627
f 629 625 311
f 311 627 629
f 632 633 630
f 630 631 632
f 633 628 627
f 627 630 633
f 631 645 634
f 635 636 631
f 631 634 635
f 636 632 631
f 637 634 645
f 638 639 637
f 639 635 634
f 634 637 639
f 640 637 645
f 642 643 640
f 640 641 642
f 643 638 637
f 637 640 643
f 640 645 644
f 644 641 640
f 646 647 644
f 644 645 646
f 647 642 641
f 641 644 647
f 742 646 645
f 538 536 465
f 465 649 538
f 536 535 648
f 648 465 536
f 543 542 467
f 467 466 543
f 542 538 649
f 649 467 542
f 547 545 468
f 468 469 547
f 545 543 466
f 466 468 545
f 552 550 470
f 550 547 469
f 469 470 550
f 556 555 471
f 471 472 556
f 552 471 555
f 650 556 472
f 560 651 562
f 651 476 564
f 476 477 565
f 565 564 476
f 564 562 651
f 481 565 477
f 570 569 481
f 481 480 570
f 565 481 569
f 653 572 652
f 572 570 480
f 480 652 572
f 575 483 577
f 484 485 581
f 484 577 483
f 584 583 486
f 486 487 584
f 583 581 485
f 485 486 583
f 586 488 588
f 586 584 487
f 592 591 656
f 656 657 592
f 591 588 488
f 488 656 591
f 596 594 658
f 658 659 596
f 594 592 657
f 657 658 594
f 535 597 660
f 660 648 535
f 597 596 659
f 659 660 597
f 661 662 663
f 663 664 661
f 662 665 666
f 666 663 662
f 667 668 663
f 663 666 667
f 668 896 664
f 664 663 668
f 665 669 670
f 670 666 665
f 669 671 672
f 672 670 669
f 673 674 670
f 670 672 673
f 674 667 666
f 666 670 674
f 671 675 676
f 676 672 671
f 675 525 677
f 677 676 675
f 678 679 676
f 676 677 678
f 679 673 672
f 672 676 679
f 525 524 680
f 680 677 525
f 681 680 524
f 680 678 677
f 522 723 682
f 683 682 723
f 520 519 684
f 519 517 685
f 685 684 519
f 686 685 517
f 686 516 687
f 515 687 516
f 692 904 506
f 506 504 692
f 505 506 904
f 693 714 694
f 695 696 693
f 693 694 695
f 696 692 504
f 504 693 696
f 697 694 714
f 698 699 697
f 697 501 698
f 699 695 694
f 694 697 699
f 700 498 701
f 701 702 700
f 702 698 501
f 501 700 702
f 498 703 704
f 704 701 498
f 703 661 664
f 664 704 703
f 896 906 704
f 704 664 896
f 701 704 906
f 493 705 706
f 706 491 493
f 705 711 707
f 707 706 705
f 708 494 706
f 706 707 708
f 491 706 494
f 709 497 710
f 711 709 710
f 711 705 709
f 705 493 497
f 497 709 705
f 501 712 502
f 712 642 647
f 647 502 712
f 646 713 502
f 502 647 646
f 713 500 502
f 714 638 643
f 643 503 714
f 642 712 503
f 503 643 642
f 712 501 503
f 504 715 716
f 715 635 639
f 639 716 715
f 638 714 716
f 716 639 638
f 505 717 718
f 718 506 505
f 717 632 636
f 636 718 717
f 635 715 718
f 718 636 635
f 715 504 506
f 506 718 715
f 509 628 633
f 633 507 509
f 632 717 507
f 507 633 632
f 717 505 507
f 567 719 511
f 719 625 629
f 629 511 719
f 628 509 511
f 511 629 628
f 513 623 626
f 626 512 513
f 625 719 512
f 512 626 625
f 719 567 512
f 688 720 514
f 720 621 624
f 624 514 720
f 623 513 514
f 514 624 623
f 721 515 516
f 516 618 622
f 622 721 516
f 621 720 721
f 721 622 621
f 720 688 515
f 515 721 720
f 517 615 619
f 619 518 517
f 618 516 518
f 518 619 618
f 520 722 519
f 722 611 616
f 616 519 722
f 615 517 519
f 519 616 615
f 723 608 612
f 612 521 723
f 611 722 521
f 521 612 611
f 722 520 521
f 681 724 523
f 724 604 609
f 609 523 724
f 608 723 523
f 523 609 608
f 526 725 527
f 725 601 605
f 605 527 725
f 604 724 527
f 527 605 604
f 724 681 527
f 532 726 727
f 727 529 532
f 726 728 729
f 729 727 726
f 730 533 727
f 727 729 730
f 529 727 533
f 731 534 494
f 708 731 494
f 728 726 731
f 731 708 728
f 726 532 534
f 534 731 726
f 498 500 732
f 732 733 498
f 734 732 500
f 732 734 735
f 735 736 733
f 733 732 735
f 500 713 734
f 713 646 737
f 737 734 713
f 738 739 734
f 734 737 738
f 739 735 734
f 646 742 740
f 740 737 646
f 768 740 742
f 768 741 740
f 741 738 737
f 737 740 741
f 743 742 645
f 742 743 768
f 743 601 744
f 601 725 745
f 745 744 601
f 725 526 745
f 744 745 771
f 746 745 526
f 526 525 747
f 747 746 526
f 748 749 746
f 746 747 748
f 749 771 745
f 745 746 749
f 525 675 750
f 750 747 525
f 675 671 751
f 751 750 675
f 752 753 750
f 750 751 752
f 753 748 747
f 747 750 753
f 671 669 754
f 754 751 671
f 669 665 755
f 755 754 669
f 756 757 754
f 754 755 756
f 757 752 751
f 751 754 757
f 665 662 758
f 758 755 665
f 662 661 759
f 759 758 662
f 760 761 758
f 758 759 760
f 761 756 755
f 755 758 761
f 661 703 762
f 762 759 661
f 703 498 733
f 733 762 703
f 736 763 762
f 762 733 736
f 763 760 759
f 759 762 763
f 736 735 764
f 764 765 736
f 739 764 735
f 764 766 765
f 801 786 739
f 739 738 801
f 786 764 739
f 768 767 741
f 767 801 738
f 738 741 767
f 743 744 769
f 769 768 743
f 768 769 770
f 771 769 744
f 789 770 769
f 769 771 789
f 771 749 773
f 749 748 772
f 772 773 749
f 773 772 790
f 773 789 771
f 748 753 774
f 774 772 748
f 753 752 776
f 776 774 753
f 779 775 774
f 774 776 779
f 775 790 772
f 772 774 775
f 752 757 776
f 757 756 777
f 777 776 757
f 778 779 776
f 776 777 778
f 756 761 780
f 780 777 756
f 761 760 780
f 781 778 777
f 777 780 781
f 760 763 782
f 782 780 760
f 763 736 765
f 765 782 763
f 766 783 782
f 782 765 766
f 783 781 780
f 780 782 783
f 766 764 785
f 785 784 766
f 786 785 764
f 801 767 787
f 767 768 802
f 802 787 767
f 787 802 788
f 801 787 788
f 789 773 792
f 790 792 773
f 792 790 791
f 790 775 793
f 775 779 795
f 795 793 775
f 793 795 794
f 794 791 790
f 790 793 794
f 779 778 795
f 796 794 795
f 778 781 797
f 797 795 778
f 795 797 796
f 781 783 798
f 798 797 781
f 783 766 784
f 784 798 783
f 798 796 797
f 784 785 800
f 800 799 784
f 800 808 799
f 786 800 785
f 801 815 786
f 800 786 815
f 801 788 802
f 801 802 817
f 819 817 802
f 768 819 802
f 789 792 803
f 792 791 804
f 804 803 792
f 791 794 805
f 805 804 791
f 806 805 794
f 794 796 806
f 825 805 806
f 807 806 796
f 806 807 825
f 796 798 807
f 798 784 799
f 799 807 798
f 808 809 807
f 807 799 808
f 809 825 807
f 808 800 813
f 815 813 800
f 770 819 768
f 819 770 820
f 803 810 789
f 810 820 770
f 770 789 810
f 803 804 812
f 805 812 804
f 813 814 808
f 815 801 816
f 817 816 801
f 810 803 811
f 822 821 810
f 810 811 822
f 820 810 821
f 812 811 803
f 812 805 824
f 825 824 805
f 809 808 814
f 710 496 813
f 813 815 710
f 496 495 814
f 814 813 496
f 815 816 710
f 711 710 816
f 816 817 711
f 708 707 818
f 707 711 817
f 817 818 707
f 728 708 818
f 819 818 817
f 730 729 819
f 819 820 730
f 729 728 818
f 818 819 729
f 533 730 820
f 820 821 533
f 811 812 823
f 823 822 811
f 822 823 530
f 530 533 821
f 821 822 530
f 824 823 812
f 531 528 824
f 528 530 823
f 823 824 528
f 489 531 824
f 824 825 489
f 490 489 825
f 809 814 495
f 495 490 825
f 825 809 495
f 827 452 826
f 452 454 829
f 829 826 452
f 454 453 829
f 457 456 830
f 830 832 457
f 456 455 831
f 831 830 456
f 455 459 834
f 834 831 455
f 459 458 833
f 833 834 459
f 458 461 836
f 836 833 458
f 461 460 835
f 835 836 461
f 837 838 464
f 837 858 838
f 842 843 839
f 839 841 842
f 843 844 840
f 840 839 843
f 845 846 949
f 949 948 845
f 846 842 841
f 841 949 846
f 848 849 847
f 847 950 848
f 849 850 947
f 947 847 849
f 852 853 951
f 951 851 852
f 853 848 950
f 950 951 853
f 856 857 854
f 854 855 856
f 857 852 851
f 851 854 857
f 844 859 952
f 952 840 844
f 859 860 858
f 858 952 859
f 861 862 134
f 328 862 861
f 861 244 328
f 863 133 132
f 863 247 244
f 244 861 863
f 861 134 133
f 133 863 861
f 136 864 865
f 865 137 136
f 864 249 247
f 247 865 864
f 247 863 865
f 863 132 137
f 137 865 863
f 140 253 866
f 866 141 140
f 249 864 866
f 866 253 249
f 864 136 141
f 141 866 864
f 144 867 256
f 256 145 144
f 867 261 256
f 253 140 145
f 145 256 253
f 148 262 868
f 868 149 148
f 261 868 262
f 261 867 868
f 867 144 149
f 149 868 867
f 152 869 870
f 870 153 152
f 267 870 869
f 870 267 262
f 262 148 153
f 153 870 262
f 154 871 271
f 271 155 154
f 871 275 271
f 267 869 271
f 869 152 155
f 155 271 869
f 157 276 872
f 872 158 157
f 275 872 276
f 275 871 872
f 871 154 158
f 158 872 871
f 160 873 874
f 874 161 160
f 284 874 873
f 874 284 276
f 276 157 161
f 161 874 276
f 163 875 876
f 876 164 163
f 875 288 284
f 284 876 875
f 284 873 876
f 873 160 164
f 164 876 873
f 166 877 878
f 878 167 166
f 877 880 288
f 288 878 877
f 288 875 878
f 875 163 167
f 167 878 875
f 169 879 880
f 880 170 169
f 877 166 170
f 170 880 877
f 176 297 296
f 296 172 176
f 879 169 172
f 172 296 879
f 175 882 881
f 881 176 175
f 301 881 882
f 881 301 297
f 176 881 297
f 862 327 134
f 882 374 301
f 882 175 352
f 327 862 883
f 883 350 327
f 328 883 862
f 352 884 882
f 374 882 884
f 884 352 400
f 328 894 883
f 894 432 350
f 350 883 894
f 884 405 374
f 894 328 433
f 412 885 884
f 884 400 412
f 405 884 885
f 127 886 434
f 434 128 127
f 435 887 434
f 887 124 128
f 128 434 887
f 124 887 888
f 888 125 124
f 435 888 887
f 435 889 888
f 889 126 125
f 125 888 889
f 126 889 890
f 890 180 126
f 889 435 437
f 437 890 889
f 439 891 890
f 890 437 439
f 891 177 180
f 180 890 891
f 177 891 892
f 892 178 177
f 439 892 891
f 439 893 892
f 893 179 178
f 178 892 893
f 434 886 894
f 894 433 434
f 886 127 432
f 432 894 886
f 179 893 895
f 895 412 179
f 893 439 438
f 438 895 893
f 668 540 896
f 667 541 540
f 540 668 667
f 541 667 674
f 674 897 541
f 897 674 673
f 897 673 679
f 679 898 897
f 678 899 898
f 898 679 678
f 899 678 680
f 680 589 899
f 589 680 681
f 589 681 522
f 522 590 589
f 682 900 590
f 590 522 682
f 590 900 901
f 900 682 683
f 683 901 900
f 520 582 901
f 901 683 520
f 582 520 684
f 685 578 582
f 582 684 685
f 578 685 686
f 686 579 578
f 687 902 579
f 579 686 687
f 902 574 579
f 902 687 515
f 902 515 688
f 574 902 688
f 574 688 689
f 510 568 567
f 508 563 568
f 568 510 508
f 563 508 691
f 505 903 563
f 563 691 505
f 903 505 904
f 692 557 904
f 557 692 696
f 696 558 557
f 695 554 558
f 558 696 695
f 554 695 699
f 699 905 554
f 698 548 905
f 905 699 698
f 554 905 548
f 548 698 702
f 702 549 548
f 549 702 701
f 549 701 906
f 1 907 908
f 908 2 1
f 907 233 181
f 181 908 907
f 181 909 908
f 909 4 2
f 2 908 909
f 4 909 910
f 910 6 4
f 909 181 185
f 185 910 909
f 910 8 6
f 8 910 911
f 911 10 8
f 185 911 910
f 188 912 911
f 911 185 188
f 912 12 10
f 10 911 912
f 12 912 913
f 913 13 12
f 188 913 912
f 194 914 913
f 913 188 194
f 914 14 13
f 13 913 914
f 14 914 915
f 915 16 14
f 194 915 914
f 915 18 16
f 18 915 916
f 916 20 18
f 194 916 915
f 200 917 916
f 916 194 200
f 917 21 20
f 20 916 917
f 917 22 21
f 200 918 917
f 918 23 22
f 22 917 918
f 23 918 919
f 919 25 23
f 200 919 918
f 203 920 919
f 919 200 203
f 920 27 25
f 25 919 920
f 920 28 27
f 203 921 920
f 921 30 28
f 28 920 921
f 30 921 922
f 922 32 30
f 921 203 209
f 209 922 921
f 212 923 922
f 922 209 212
f 923 34 32
f 32 922 923
f 34 923 924
f 924 36 34
f 212 924 923
f 215 925 924
f 924 212 215
f 925 38 36
f 36 924 925
f 38 925 926
f 926 40 38
f 215 926 925
f 926 42 40
f 42 926 927
f 927 44 42
f 215 927 926
f 223 928 927
f 927 215 223
f 928 45 44
f 44 927 928
f 45 928 929
f 929 48 45
f 223 929 928
f 929 49 48
f 49 929 930
f 930 51 49
f 223 930 929
f 229 931 930
f 930 223 229
f 931 53 51
f 51 930 931
f 53 931 932
f 932 56 53
f 229 932 931
f 932 58 56
f 58 932 933
f 933 60 58
f 229 933 932
f 233 934 933
f 933 229 233
f 934 62 60
f 60 933 934
f 62 934 935
f 935 64 62
f 233 935 934
f 233 907 935
f 907 1 64
f 64 935 907
f 451 936 937
f 937 450 451
f 936 409 408
f 408 937 936
f 407 938 937
f 937 408 407
f 450 937 938
f 939 463 462
f 415 939 462
f 409 936 939
f 939 415 409
f 936 451 463
f 463 939 936
f 940 427 424
f 938 407 416
f 416 943 938
f 419 944 943
f 943 416 419
f 826 841 839
f 839 827 826
f 840 828 827
f 827 839 840
f 832 947 948
f 948 962 832
f 949 829 962
f 962 948 949
f 831 950 847
f 847 830 831
f 947 832 830
f 830 847 947
f 833 851 951
f 951 834 833
f 950 831 834
f 834 951 950
f 855 835 965
f 828 840 952
f 952 837 828
f 837 952 858
f 417 953 954
f 954 418 417
f 953 430 428
f 428 954 953
f 427 419 954
f 954 428 427
f 418 954 419
f 430 953 431
f 953 417 420
f 420 431 953
f 431 420 955
f 436 437 421
f 405 438 436
f 401 442 440
f 422 956 442
f 442 401 422
f 956 443 442
f 946 945 957
f 957 423 946
f 945 447 445
f 445 957 945
f 443 956 957
f 957 445 443
f 956 422 423
f 423 957 956
f 944 958 959
f 959 453 944
f 940 959 958
f 959 940 457
f 946 960 961
f 961 460 946
f 960 462 464
f 464 961 960
f 453 959 962
f 962 829 453
f 959 457 832
f 832 962 959
f 460 961 963
f 963 835 460
f 961 464 838
f 838 963 961
f 858 965 963
f 963 838 858
f 835 963 965
f 850 964 948
f 948 947 850
f 964 845 948
f 860 966 965
f 965 858 860
f 966 856 855
f 855 965 966
f 895 885 412
f 438 405 885
f 885 895 438
f 958 944 419
f 419 427 940
f 940 958 419
f 960 415 462
f 826 829 949
f 949 841 826
f 833 836 854
f 854 851 833
f 836 835 855
f 855 854 836
f 973 975 967
f 1050 1002 1030
f 980 1050 1029
f 1047 971 968
f 969 972 1033
f 1038 1033 1029
f 1033 1039 1029
f 1047 968 972
f 1032 973 1052
f 986 1031 1032
f 1031 987 1030
f 1041 1014 1015
f 1015 981 1041
f 1041 974 1040
f 1040 980 1039
f 980 1040 1027
f 973 967 994
f 1031 1025 977
f 1030 1002 1025
f 1024 978 1051
f 1026 978 1027
f 1032 975 973
f 976 975 1032
f 977 976 1032
f 1032 1031 977
f 1030 1025 1031
f 1051 1026 974
f 1027 974 1026
f 1027 979 980
f 974 1041 1051
f 1041 981 1051
f 1027 1040 974
f 1057 982 1048
f 983 992 1055
f 1037 997 984
f 997 985 984
f 1037 984 1041
f 994 995 1073
f 1035 987 1034
f 1041 984 1014
f 1036 1037 1041
f 1036 1041 1040
f 1039 1036 1040
f 1033 1036 1039
f 986 1052 1073
f 986 1073 1034
f 1034 987 986
f 1038 987 1035
f 1038 969 1033
f 994 1073 973
f 1052 973 1073
f 986 987 1031
f 987 1029 1030
f 987 1038 1029
f 970 982 988
f 1006 1053 992
f 1053 1004 993
f 993 1004 1005
f 971 993 1005
f 1005 991 971
f 989 988 982
f 982 1057 989
f 990 989 1042
f 1057 1042 989
f 983 1006 992
f 993 971 1074
f 1074 971 1047
f 999 1000 1046
f 1046 1042 999
f 1053 993 1049
f 1049 992 1053
f 1074 1049 993
f 1034 1073 995
f 1034 995 1044
f 1035 1034 1044
f 1038 1035 1054
f 969 1038 1054
f 972 969 1045
f 1023 1014 996
f 984 985 996
f 996 1014 984
f 1037 1036 997
f 972 1075 1036
f 972 1036 1033
f 1054 1035 1056
f 1035 1044 1056
f 1045 969 1054
f 985 997 998
f 997 1075 1000
f 997 1036 1075
f 995 1055 1056
f 1045 1054 1056
f 972 1045 1047
f 999 1048 996
f 999 996 998
f 999 998 1000
f 998 997 1000
f 1075 1046 1000
f 994 983 995
f 1055 995 983
f 992 1049 1055
f 1056 1074 1045
f 1047 1045 1074
f 970 1048 982
f 970 996 1048
f 968 1043 1046
f 1046 1075 968
f 1024 981 1011
f 981 1015 1011
f 978 1024 1011
f 978 1011 1001
f 979 978 1001
f 1002 979 1001
f 1002 967 1025
f 967 1002 1001
f 977 1025 967
f 976 977 967
f 975 976 967
f 988 989 970
f 1003 970 989
f 989 990 1003
f 990 991 1003
f 991 1005 1003
f 1006 1003 1005
f 1005 1004 1006
f 1004 1053 1006
f 1065 1009 970
f 1009 1065 1066
f 1001 1011 1058
f 1011 1059 1058
f 1064 1012 967
f 1012 1064 1017
f 1014 1023 1010
f 994 967 1012
f 1012 1016 994
f 1016 1012 1017
f 1016 1018 994
f 1018 1007 994
f 1007 1019 994
f 983 994 1019
f 1019 1021 983
f 1020 983 1021
f 1006 983 1020
f 1020 1008 1006
f 1009 1022 970
f 996 970 1022
f 1022 1023 996
f 1023 1022 1010
f 978 979 1028
f 979 1002 1050
f 979 1027 1028
f 1029 1039 980
f 1030 1029 1050
f 1043 991 990
f 1043 971 991
f 1043 990 1042
f 1043 1042 1046
f 1057 999 1042
f 998 996 985
f 995 1056 1044
f 1048 999 1057
f 1049 1074 1056
f 981 1024 1051
f 1051 978 1026
f 1027 978 1028
f 980 979 1050
f 986 1032 1052
f 971 1043 968
f 1055 1049 1056
f 972 968 1075
f 1058 1060 1001
f 1058 1059 1060
f 1060 1013 1001
f 1013 1061 1001
f 1061 1013 1063
f 1061 1062 1001
f 1062 1061 1063
f 1063 1017 1062
f 967 1001 1062
f 1062 1064 967
f 1064 1062 1017
f 970 1003 1067
f 1067 1065 970
f 1065 1067 1066
f 1068 1067 1003
f 1068 1066 1067
f 1069 1068 1003
f 1071 1069 1003
f 1069 1071 1070
f 1003 1006 1071
f 1008 1071 1006
f 1071 1008 1070
f 1072 1007 1018
f 1016 1017 1072
f 1072 1018 1016
f 1017 1063 1072
f 1072 1063 1013
f 1013 1060 1072
f 1072 1060 1059
f 1011 1015 1072
f 1072 1059 1011
f 1014 1072 1015
f 1010 1072 1014
f 1072 1010 1022
f 1009 1072 1022
f 1072 1009 1066
f 1072 1066 1068
f 1069 1070 1072
f 1072 1068 1069
f 1072 1070 1008
f 1020 1021 1072
f 1072 1008 1020
f 1019 1007 1072
f 1072 1021 1019
