# USD → MuJoCo (world-space, simplified)
v -4.062792 7.790014 0.783303
v -4.088525 7.774215 0.782136
v -4.065633 7.687423 0.783714
v -4.091141 7.709067 0.782152
v -4.079057 7.725382 0.783108
v -4.074351 7.583288 0.783746
v -4.092294 7.617079 0.782224
v -4.085092 7.621092 0.783160
v -4.089209 7.561211 0.782174
v -4.082509 7.549830 0.783147
v -4.071447 7.540183 0.783742
v -4.074226 7.496042 0.782169
v -4.067786 7.497045 0.783424
v -4.058073 7.466733 0.782601
v -4.021041 7.417041 0.781759
v -4.012052 7.417332 0.783428
v -4.042381 7.444548 0.782728
v -4.035404 7.450638 0.783758
v -4.000023 7.401608 0.782606
v -3.933679 7.364363 0.782163
v -3.972216 7.386093 0.783136
v -3.970389 7.391980 0.783777
v -3.914220 7.359651 0.783135
v -3.873018 7.341784 0.782155
v -3.849542 7.334025 0.781431
v -3.858478 7.340632 0.783131
v -3.815084 7.329471 0.782626
v -3.873786 7.349749 0.783753
v -3.771032 7.325160 0.782126
v -3.795530 7.332911 0.783603
v -3.769470 7.645203 0.685909
v -3.805793 7.657739 0.708299
v -3.767790 7.658165 0.702025
v -3.842561 7.670800 0.733429
v -3.824491 7.652956 0.708238
v -3.811384 7.641271 0.692531
v -3.797336 7.644691 0.691651
v -3.815285 7.670128 0.725464
v -3.865731 7.651294 0.725073
v -3.873655 7.663023 0.737757
v -3.838821 7.650826 0.711852
v -3.827234 7.639807 0.697853
v -3.849258 7.666414 0.730963
v -3.909638 7.621758 0.734459
v -3.899827 7.635949 0.734368
v -3.870457 7.609749 0.708929
v -3.879711 7.625109 0.719059
v -3.857774 7.634905 0.710918
v -3.838993 7.633000 0.699549
v -3.888881 7.647400 0.734331
v -3.930616 7.583329 0.738177
v -3.894575 7.589608 0.719036
v -3.916023 7.606557 0.733865
v -3.895157 7.570942 0.717924
v -3.864713 7.587324 0.701476
v -3.941380 7.529029 0.743408
v -3.904267 7.523047 0.725164
v -3.902848 7.543229 0.722240
v -3.943058 7.545055 0.743457
v -3.863493 7.556045 0.699668
v -3.943191 7.561032 0.743559
v -3.903101 7.475396 0.737219
v -3.925741 7.486496 0.743704
v -3.863440 7.496320 0.711501
v -3.819095 7.520952 0.682147
v -3.878348 7.504669 0.716027
v -3.850921 7.535266 0.694547
v -3.896080 7.512290 0.722837
v -3.870119 7.452631 0.734593
v -3.823495 7.488258 0.697633
v -3.835265 7.492584 0.699887
v -3.862911 7.477237 0.718897
v -3.891540 7.454289 0.741705
v -3.811855 7.418469 0.741048
v -3.813315 7.431155 0.732157
v -3.825147 7.450805 0.721562
v -3.813770 7.479652 0.699996
v -3.838244 7.463669 0.716946
v -3.788890 7.451152 0.713271
v -3.768045 7.477616 0.692062
v -3.785962 7.638438 0.682676
v -3.777782 7.630890 0.674949
v -3.765939 7.636969 0.677153
v -3.818017 7.709005 0.777612
v -3.862597 7.697319 0.769350
v -3.839139 7.701744 0.770357
v -3.883590 7.701873 0.779059
v -3.817583 7.628593 0.686271
v -3.801849 7.629530 0.680638
v -3.803065 7.616426 0.674908
v -3.869172 7.680009 0.751870
v -3.897178 7.689297 0.770342
v -3.928947 7.685346 0.778306
v -3.901284 7.665380 0.751819
v -3.804781 7.601974 0.671395
v -3.822792 7.611704 0.681669
v -3.922823 7.652767 0.754167
v -3.939542 7.671206 0.772541
v -3.986185 7.632814 0.776818
v -3.967100 7.647017 0.772879
v -3.939418 7.633958 0.754160
v -3.832454 7.598049 0.683524
v -3.820298 7.593481 0.675773
v -3.950388 7.617186 0.754692
v -3.984567 7.621740 0.772930
v -3.991439 7.607107 0.772949
v -3.998472 7.582888 0.772620
v -3.973463 7.566433 0.759101
v -3.957152 7.597627 0.754000
v -3.826765 7.556330 0.678518
v -3.833651 7.581175 0.682202
v -3.985120 7.538810 0.764466
v -3.983163 7.520604 0.764455
v -3.969049 7.505521 0.759566
v -3.823193 7.537236 0.679331
v -3.802357 7.531148 0.673573
v -3.952044 7.492977 0.754164
v -3.951139 7.453376 0.765878
v -3.797658 7.514178 0.677909
v -3.923001 7.434536 0.763358
v -3.905396 7.414199 0.768691
v -3.863941 7.433381 0.744137
v -3.795058 7.498074 0.685121
v -3.774976 7.516280 0.673236
v -3.811739 7.504118 0.685875
v -3.870794 7.395562 0.771047
v -3.859838 7.377073 0.780825
v -3.851353 7.399336 0.763649
v -3.801180 7.371228 0.776863
v -3.792000 7.413141 0.742164
v -3.760628 7.414308 0.738668
v -3.757009 7.368432 0.776953
v -3.762909 7.627934 0.670848
v -3.773889 7.619505 0.669423
v -3.779082 7.599278 0.666691
v -3.803189 7.585715 0.669419
v -3.812613 7.559901 0.672231
v -3.808660 7.544979 0.672344
v -3.795854 7.552201 0.668917
v -3.785321 7.534650 0.669666
v -3.758319 7.522219 0.669775
v -4.018719 7.822044 0.775854
v -4.084981 7.820994 0.744219
v -4.103633 7.774852 0.775817
v -4.101142 7.684998 0.775913
v -4.100289 7.646460 0.775872
v -4.098499 7.601107 0.747572
v -3.974109 7.380285 0.777434
v -3.768534 7.322221 0.777643
v -3.880853 7.821514 0.732336
v -4.006386 7.804349 0.735839
v -3.925092 7.809105 0.737931
v -3.919556 7.792299 0.728971
v -4.084883 7.800823 0.738372
v -4.059476 7.802275 0.736383
v -4.031797 7.801626 0.734851
v -4.062697 7.789246 0.732026
v -3.979578 7.786572 0.725527
v -3.993298 7.780003 0.721942
v -4.020140 7.781262 0.724160
v -4.093013 7.772215 0.737889
v -4.068406 7.752465 0.728972
v -4.078245 7.770974 0.732565
v -4.086977 7.788920 0.736912
v -4.035154 7.763369 0.720319
v -4.031558 7.736967 0.717319
v -4.082065 7.758298 0.733630
v -4.022767 7.666982 0.715276
v -4.065469 7.678051 0.728779
v -4.087441 7.588648 0.737922
v -4.089409 7.628726 0.737926
v -4.078996 7.626180 0.733778
v -4.072203 7.587927 0.731880
v -4.064103 7.625220 0.728680
v -4.070896 7.501343 0.737908
v -4.060050 7.514883 0.731864
v -4.052508 7.494266 0.731840
v -4.066981 7.544169 0.731810
v -4.082184 7.544084 0.737916
v -4.008950 7.547671 0.712633
v -4.003679 7.523004 0.712689
v -4.028580 7.432912 0.737925
v -4.042694 7.450581 0.737925
v -4.017228 7.438962 0.731713
v -4.030580 7.456052 0.731766
v -4.055469 7.469956 0.737925
v -4.042524 7.474631 0.731806
v -3.994258 7.487087 0.714263
v -3.964129 7.382179 0.737991
v -3.957362 7.385709 0.733931
v -3.984115 7.396054 0.736685
v -4.008075 7.411922 0.737905
v -3.999262 7.418626 0.732086
v -3.981843 7.415002 0.728310
v -3.915644 7.359709 0.737914
v -3.907931 7.362725 0.733562
v -3.877713 7.347131 0.736363
v -3.875332 7.360441 0.726978
v -3.911547 7.375157 0.727631
v -3.895011 7.390472 0.716725
v -3.864784 7.374703 0.717506
v -3.823517 7.332937 0.736367
v -3.850876 7.344072 0.732234
v -3.853694 7.336302 0.739680
v -3.836003 7.370521 0.714691
v -3.839866 7.348953 0.726993
v -3.802881 7.342396 0.727050
v -3.804760 7.352340 0.720982
v -3.933556 7.750558 0.703363
v -4.018603 7.767107 0.717974
v -3.956585 7.745752 0.701442
v -4.024814 7.746672 0.715546
v -4.006782 7.749422 0.710863
v -3.988627 7.651685 0.703740
v -4.012409 7.590681 0.712390
v -4.005274 7.503554 0.715356
v -3.937246 7.519408 0.690065
v -3.972393 7.458028 0.713182
v -3.984176 7.471826 0.713868
v -3.953890 7.448610 0.709859
v -3.948660 7.395150 0.727252
v -3.968259 7.405193 0.728213
v -3.933000 7.443285 0.705232
v -3.908669 7.438684 0.700125
v -3.808682 7.373146 0.710628
v -3.811342 7.821972 0.689058
v -3.715243 7.821404 0.679335
v -3.732808 7.822018 0.686192
v -3.801881 7.821524 0.680248
v -3.833300 7.821453 0.683771
v -3.884396 7.736418 0.695449
v -3.853107 7.712608 0.683427
v -3.927596 7.713892 0.685571
v -3.964369 7.736042 0.698347
v -3.896739 7.692245 0.675581
v -3.911529 7.718412 0.686263
v -3.972810 7.720912 0.697831
v -3.980711 7.714993 0.700238
v -3.945702 7.713772 0.689261
v -3.912268 7.688519 0.677631
v -3.931334 7.695869 0.683535
v -3.915345 7.676886 0.678156
v -3.933793 7.642665 0.684637
v -3.906387 7.575394 0.676134
v -3.927563 7.541489 0.684537
v -3.933759 7.578079 0.685019
v -3.921095 7.486235 0.690225
v -3.917322 7.506123 0.685237
v -3.892081 7.474482 0.684137
v -3.877512 7.464158 0.683463
v -3.855522 7.401199 0.704094
v -3.880658 7.433807 0.695548
v -3.797332 7.449786 0.674833
v -3.804275 7.638533 0.658256
v -3.839619 7.643566 0.660252
v -3.868873 7.675317 0.669404
v -3.877101 7.667298 0.667908
v -3.885073 7.662258 0.669186
v -3.851049 7.637206 0.660787
v -3.875932 7.571626 0.667122
v -3.886939 7.539925 0.671472
v -3.869073 7.498175 0.671843
v -3.883954 7.522146 0.672223
v -3.823608 7.521339 0.657784
v -3.861413 7.539009 0.664471
v -3.839177 7.514708 0.661731
v -3.841685 7.487415 0.667745
v -3.819251 7.501190 0.660309
v -3.824973 7.469667 0.670588
v -3.810091 7.485332 0.663104
v -3.788797 7.473419 0.664488
v -3.783921 7.492519 0.658350
v -3.803753 7.624408 0.653927
v -3.806694 7.616066 0.652841
v -3.841219 7.568011 0.658850
v -3.794958 7.589854 0.649435
v -3.803778 7.587900 0.651284
v -3.837717 7.542475 0.658823
v -3.797414 7.555062 0.650558
v -3.772789 7.524739 0.651126
v -3.789741 7.590077 0.647110
v -3.790394 7.586819 0.609210
v -3.786828 7.554081 0.609573
v -3.772928 7.537951 0.609493
v -3.764141 7.533366 0.609434
v -3.753650 7.531422 0.646296
v -3.868297 7.752268 0.696118
v -3.840029 7.736510 0.678258
v -3.895513 7.796100 0.721488
v -3.884105 7.771095 0.708716
v -3.928699 7.812248 0.738953
v -3.910290 7.811658 0.738073
v -4.037477 7.810431 0.738677
v -3.980464 7.813164 0.739295
v -4.066500 7.809735 0.739268
v -4.086124 7.810034 0.740645
v -4.060720 7.814189 0.739765
v -4.104415 7.810099 0.775659
v -4.104223 7.810097 0.747612
v -4.026111 7.782677 0.783751
v -3.942179 7.822036 0.745034
v -4.103806 7.780954 0.747572
v -4.101800 7.710351 0.747577
v -4.094011 7.555364 0.747572
v -4.075625 7.488598 0.777430
v -4.051241 7.447730 0.777428
v -4.064488 7.467543 0.777419
v -4.021314 7.413827 0.777423
v -3.990478 7.389783 0.747572
v -4.102588 7.818137 0.747766
v -3.784784 7.616856 0.614700
v -3.783872 7.609560 0.610690
v -3.784979 7.602799 0.611064
v -3.791360 7.580289 0.646196
v -3.789902 7.561793 0.646255
v -3.791205 7.570533 0.608492
v -3.782983 7.547844 0.646392
v -3.783376 7.548424 0.609293
v -3.772212 7.537487 0.646507
v -3.764089 7.533249 0.646242
v -3.787319 7.724102 0.783288
v -3.903281 7.742990 0.783769
v -3.784211 7.731899 0.783573
v -3.897487 7.715045 0.783355
v -3.954345 7.718660 0.783718
v -3.968854 7.685559 0.783413
v -4.024734 7.591279 0.783295
v -4.023888 7.642478 0.783752
v -4.014292 7.628333 0.783443
v -4.024306 7.475780 0.783720
v -4.039742 7.540497 0.783705
v -3.979271 7.421353 0.783690
v -4.012498 7.472504 0.783251
v -3.882440 7.377851 0.783282
v -3.923306 7.390557 0.783623
v -3.840796 7.358133 0.783728
v -3.822998 7.359441 0.783504
v -3.898297 7.821774 0.739296
v -3.950573 7.821627 0.742191
v -4.019082 7.822028 0.745758
v -4.036440 7.821303 0.741538
v -4.060762 7.821770 0.744996
v -4.074365 7.820499 0.741751
v -4.102664 7.780554 0.744709
v -4.098855 7.784927 0.741449
v -4.101663 7.742565 0.744720
v -4.099152 7.764288 0.741545
v -4.095668 7.629713 0.741512
v -4.098820 7.630180 0.744685
v -4.099746 7.627021 0.747480
v -4.093503 7.587144 0.741537
v -4.096581 7.587146 0.744715
v -4.096713 7.578235 0.747572
v -4.089864 7.532573 0.746159
v -4.091991 7.555803 0.743056
v -4.071864 7.489356 0.741531
v -4.083063 7.520144 0.741545
v -4.075478 7.488468 0.746040
v -4.083897 7.510274 0.746158
v -4.064274 7.467820 0.745626
v -4.051051 7.447598 0.746033
v -4.060881 7.468491 0.741531
v -4.047821 7.448850 0.741531
v -4.026156 7.422713 0.741528
v -4.021186 7.414093 0.745619
v -4.036465 7.429543 0.746096
v -4.005893 7.400705 0.746018
v -4.003289 7.402317 0.741531
v -3.989286 7.390769 0.742988
v -3.966419 7.379051 0.741539
v -3.956254 7.371469 0.746002
v -3.973884 7.380230 0.746008
v -3.923159 7.356988 0.745915
v -3.877971 7.340492 0.744736
v -3.916237 7.356368 0.741507
v -3.897052 7.347038 0.746042
v -3.852694 7.333019 0.745891
v -3.822057 7.326712 0.744615
v -3.793274 7.323431 0.745880
v -3.802287 7.327077 0.739717
v -3.779964 7.325349 0.739705
v -3.759962 7.322084 0.745976
v -4.084624 7.818294 0.741100
v -4.096673 7.819784 0.743704
v -4.102722 7.807842 0.745137
v -3.909235 7.820691 0.737628
v -3.904575 7.819574 0.735038
v -3.894236 7.778976 0.718632
v -3.904363 7.795769 0.729872
v -3.904771 7.808788 0.735694
v -3.883054 7.759085 0.706706
v -3.889763 7.757313 0.707288
v -3.836158 7.692041 0.674853
v -3.849844 7.723278 0.684065
v -3.865017 7.732267 0.692349
v -3.820683 7.672835 0.668054
v -3.784175 7.617250 0.609865
v -3.784343 7.620434 0.645993
v -3.920547 7.820649 0.738949
v -3.882248 7.819793 0.709512
v -3.874807 7.820859 0.708685
v -3.865086 7.816947 0.694292
v -3.849293 7.814505 0.683697
v -3.849143 7.820204 0.686136
v -3.475216 7.821052 0.782149
v -4.018718 7.821054 0.782140
v -4.018890 7.821942 0.778396
v -4.082960 7.820977 0.778995
v -4.060360 7.821792 0.777489
v -4.056076 7.821171 0.781466
v -4.018653 7.821648 0.780523
v -4.101443 7.741549 0.778402
v -4.097641 7.778199 0.780521
v -4.102218 7.781118 0.778403
v -4.100343 7.691932 0.778414
v -4.097587 7.712506 0.780534
v -4.096673 7.579072 0.777564
v -4.099244 7.614108 0.775919
v -4.098625 7.614636 0.778494
v -4.095006 7.586202 0.780577
v -4.096902 7.633869 0.780605
v -4.083648 7.510104 0.777842
v -4.089603 7.532324 0.777840
v -4.077533 7.497076 0.780619
v -4.086064 7.530019 0.781496
v -4.091772 7.555308 0.780542
v -4.093972 7.555863 0.777572
v -4.036608 7.429662 0.777442
v -4.042557 7.438642 0.780580
v -4.062733 7.467775 0.780542
v -3.956528 7.371538 0.777433
v -3.990585 7.389932 0.777585
v -3.966559 7.377618 0.780531
v -3.983388 7.388083 0.781777
v -4.006081 7.400828 0.778819
v -3.906570 7.350439 0.777447
v -3.877259 7.340594 0.779366
v -3.916200 7.355281 0.780564
v -3.937285 7.362887 0.777424
v -3.815300 7.325739 0.777523
v -3.838248 7.329570 0.777423
v -3.822824 7.328047 0.780623
v -3.861119 7.335318 0.777430
v -3.787714 7.693126 0.752702
v -3.780783 7.608137 0.607842
v -3.788567 7.570973 0.605404
v -3.774797 7.613235 0.606640
v -3.780769 7.603618 0.606695
v -3.782967 7.595525 0.604936
v -3.784708 7.556929 0.604963
v -3.787871 7.614897 0.649722
v -3.784731 7.612412 0.647557
v -3.785049 7.602928 0.647037
v -3.792638 7.567767 0.648370
v -3.787111 7.552533 0.647794
v -3.788922 7.547041 0.649581
v -3.771765 7.535560 0.647914
v -3.767735 7.530450 0.649067
v -3.767818 7.605694 0.662512
v -3.765855 7.606692 0.662513
v -3.763934 7.607491 0.662514
v -3.762083 7.608120 0.662514
v -3.760326 7.608611 0.662515
v -3.776694 7.598887 0.665529
v -3.775168 7.599887 0.662506
v -3.773538 7.601517 0.662507
v -3.771725 7.603059 0.662509
v -3.769797 7.604468 0.662510
v -3.779605 7.592747 0.662499
v -3.778729 7.594671 0.662500
v -3.777724 7.596488 0.662502
v -3.776550 7.598218 0.662504
v -3.782147 7.584217 0.662494
v -3.781670 7.586378 0.662495
v -3.781082 7.588552 0.662496
v -3.780392 7.590691 0.662497
v -3.782782 7.575462 0.662491
v -3.782836 7.577810 0.662492
v -3.782741 7.580004 0.662492
v -3.782508 7.582116 0.662493
v -3.781018 7.564610 0.662489
v -3.781682 7.567382 0.662490
v -3.780826 7.562352 0.666062
v -3.782201 7.570168 0.662490
v -3.782569 7.572888 0.662491
v -3.776849 7.554938 0.662490
v -3.778137 7.557047 0.662489
v -3.779255 7.559395 0.662489
v -3.780212 7.561932 0.662489
v -3.770624 7.549042 0.662491
v -3.772197 7.550198 0.662490
v -3.773807 7.551545 0.662490
v -3.775381 7.553114 0.662490
v -3.759857 7.543124 0.665785
v -3.765022 7.545729 0.662492
v -3.766401 7.546418 0.662492
v -3.767766 7.547181 0.662491
v -3.769161 7.548046 0.662491
v -3.759292 7.543622 0.662492
v -3.760695 7.544012 0.662492
v -3.762138 7.544506 0.662492
v -3.763591 7.545085 0.662492
v -3.754221 7.543097 0.662492
v -3.755444 7.543117 0.662492
v -3.756684 7.543196 0.662492
v -3.757961 7.543358 0.662492
v -3.867392 7.809368 0.695382
v -3.884790 7.816477 0.709217
v -3.892967 7.817833 0.718046
v -4.018826 7.820065 0.783111
v -4.018260 7.818778 0.783601
v -4.017632 7.817261 0.783772
v -4.018941 7.818342 0.739415
v -3.943646 7.818646 0.739373
v -3.949194 7.820749 0.740275
v -4.060868 7.818479 0.739875
v -4.050360 7.819999 0.740151
v -4.046026 7.819070 0.783504
v -4.084656 7.818952 0.782195
v -4.077850 7.812185 0.782789
v -4.097233 7.804013 0.742091
v -4.095544 7.818572 0.780710
v -4.102095 7.817690 0.778295
v -4.098366 7.819596 0.777285
v -3.763948 7.688068 0.742299
v -3.755449 7.677480 0.727052
v -3.758562 7.619751 0.608486
v -3.750376 7.617326 0.605490
v -3.784186 7.620449 0.610140
v -3.782155 7.621925 0.613775
v -3.757566 7.622555 0.628507
v -3.750045 7.622803 0.614788
v -3.751076 7.622184 0.609589
v -3.781801 7.621686 0.647010
v -3.784681 7.621891 0.648914
v -3.752359 7.624328 0.649376
v -3.754220 7.622497 0.647049
v -3.784351 7.624258 0.650167
v -3.791703 7.635313 0.655583
v -3.766183 7.633883 0.654349
v -3.801002 7.654682 0.661897
v -3.758324 7.609430 0.665579
v -3.767335 7.606567 0.666027
v -3.781276 7.588682 0.665210
v -3.783183 7.576667 0.665156
v -3.785445 7.579552 0.666535
v -3.776541 7.553389 0.666147
v -3.768204 7.546860 0.666119
v -3.762884 7.685941 0.734330
v -3.764576 7.691615 0.738215
v -3.758178 7.683219 0.729353
v -3.763817 7.683474 0.735752
v -3.827245 7.717175 0.782870
v -3.798167 7.714520 0.781708
v -3.885618 7.710246 0.782942
v -3.851477 7.707864 0.779262
v -3.841681 7.712129 0.781720
v -3.952868 7.681667 0.782635
v -3.926870 7.698558 0.782997
v -3.949765 7.676048 0.779531
v -3.920593 7.693850 0.781253
v -3.888152 7.705309 0.781788
v -3.978018 7.667013 0.783071
v -4.002260 7.632849 0.782732
v -3.973438 7.664516 0.781985
v -3.984436 7.644712 0.779615
v -3.965504 7.660110 0.777983
v -4.020424 7.582387 0.782243
v -4.010019 7.608204 0.781457
v -4.015983 7.493437 0.782091
v -4.024398 7.512323 0.782806
v -4.020416 7.533287 0.780820
v -4.013319 7.514746 0.778668
v -4.015443 7.554115 0.778699
v -4.027629 7.545829 0.782871
v -3.998726 7.452736 0.783217
v -3.994452 7.454094 0.782053
v -3.978262 7.441656 0.780637
v -3.984030 7.464785 0.775560
v -4.005260 7.476934 0.780819
v -3.936539 7.402653 0.783093
v -3.936445 7.409384 0.780746
v -3.956121 7.422434 0.780804
v -3.971826 7.425668 0.783234
v -3.848239 7.368236 0.783012
v -3.891665 7.395745 0.776245
v -3.892125 7.385627 0.781964
v -3.805761 7.362652 0.782558
v -3.826864 7.374711 0.776915
v -3.843331 7.374347 0.779808
v -3.784347 7.711022 0.778832
v -3.794728 7.674399 0.727286
v -3.759116 7.458979 0.703966
v -3.762976 7.431824 0.724846
v -3.752276 7.508625 0.673797
v -3.751636 7.486280 0.685526
v -3.761492 7.498606 0.678955
v -3.754221 7.331034 0.733329
v -3.768620 7.337319 0.728676
v -3.791074 7.332106 0.733751
v -3.767668 7.344642 0.723792
v -3.764761 7.356765 0.716728
v -3.778957 7.369491 0.710645
v -3.774344 7.451258 0.672696
v -3.759787 7.489966 0.658108
v -3.765696 7.470215 0.664536
v -3.755364 7.523529 0.650425
v -3.755111 7.530085 0.648264
v -3.491683 7.820063 0.783124
v -3.821066 7.822033 0.740235
v -3.762767 7.323250 0.780494
v -3.790429 7.324003 0.780077
v -3.793434 7.323370 0.777235
v -3.758693 7.608993 0.662515
v -3.757151 7.609266 0.662515
v -3.755671 7.609430 0.662515
v -3.754221 7.609485 0.662515
v -3.760524 7.621942 0.609708
v -3.758744 7.616521 0.605253
v -3.757195 7.681246 0.731071
v -3.754221 7.361205 0.781705
v -3.759471 7.357732 0.783064
v -3.544425 7.768766 0.783448
v -3.545907 7.782208 0.783765
v -3.512920 7.779388 0.783552
v -3.426127 7.800421 0.782666
v -3.420853 7.770970 0.782358
v -3.437683 7.780358 0.783262
v -3.422934 7.740722 0.782845
v -3.445314 7.716084 0.783617
v -3.416836 7.692351 0.782142
v -3.425865 7.685123 0.783091
v -3.416165 7.612850 0.782196
v -3.438140 7.590021 0.783777
v -3.426843 7.604889 0.783493
v -3.421447 7.555602 0.782684
v -3.426659 7.525686 0.782649
v -3.435736 7.529416 0.783618
v -3.439268 7.487531 0.782600
v -3.460346 7.459345 0.783426
v -3.448344 7.468168 0.782158
v -3.469177 7.438228 0.782162
v -3.454830 7.481294 0.783776
v -3.518938 7.403162 0.783733
v -3.486074 7.424926 0.783134
v -3.514304 7.396026 0.782158
v -3.521681 7.394785 0.783134
v -3.538481 7.380394 0.781575
v -3.577402 7.370688 0.783615
v -3.573840 7.368050 0.783137
v -3.574759 7.364365 0.782163
v -3.627012 7.345455 0.782608
v -3.665815 7.333995 0.782480
v -3.652718 7.347292 0.783774
v -3.658298 7.341689 0.783613
v -3.690252 7.331757 0.783130
v -3.714734 7.326326 0.782184
v -3.719070 7.334664 0.783741
v -3.762819 7.327916 0.783109
v -3.672446 7.701639 0.769805
v -3.737230 7.653940 0.696829
v -3.734126 7.643339 0.684534
v -3.656356 7.673688 0.739574
v -3.700200 7.646450 0.696286
v -3.695346 7.664561 0.718187
v -3.630353 7.650525 0.730702
v -3.625360 7.672124 0.749537
v -3.629321 7.662239 0.739683
v -3.676336 7.652618 0.710741
v -3.684323 7.641137 0.697320
v -3.681942 7.629480 0.691129
v -3.602021 7.626143 0.734079
v -3.640630 7.621074 0.710779
v -3.678325 7.620261 0.688889
v -3.659015 7.610081 0.696660
v -3.577826 7.583329 0.738177
v -3.606552 7.583470 0.722499
v -3.584814 7.607535 0.738173
v -3.611532 7.605644 0.723071
v -3.632671 7.572480 0.706976
v -3.636782 7.594672 0.706556
v -3.587861 7.518422 0.734067
v -3.604125 7.551079 0.722829
v -3.583212 7.562594 0.734147
v -3.643778 7.561454 0.700351
v -3.624907 7.542306 0.712004
v -3.635145 7.527834 0.707946
v -3.622459 7.488416 0.724913
v -3.637576 7.478777 0.721753
v -3.630099 7.504667 0.716025
v -3.612363 7.512290 0.722837
v -3.644498 7.433380 0.744138
v -3.668805 7.472478 0.712098
v -3.671882 7.487913 0.702721
v -3.697116 7.490139 0.693022
v -3.683173 7.462110 0.714068
v -3.717737 7.463850 0.705115
v -3.741885 7.461159 0.702989
v -3.748931 7.642350 0.681542
v -3.724438 7.634743 0.679010
v -3.700318 7.633684 0.685549
v -3.741789 7.630074 0.672257
v -3.716393 7.625178 0.675421
v -3.668327 7.691092 0.756875
v -3.648700 7.685688 0.755188
v -3.643589 7.700195 0.773073
v -3.715934 7.612561 0.670878
v -3.583167 7.671177 0.766663
v -3.579353 7.685380 0.778386
v -3.608606 7.688399 0.770514
v -3.695583 7.619545 0.679943
v -3.693389 7.607194 0.676484
v -3.609064 7.640561 0.736352
v -3.586848 7.654124 0.754338
v -3.569022 7.633955 0.754160
v -3.536924 7.641142 0.772579
v -3.542896 7.660123 0.778008
v -3.678680 7.590930 0.680641
v -3.689956 7.590026 0.674686
v -3.558045 7.617186 0.754697
v -3.552571 7.604491 0.754660
v -3.547579 7.583188 0.753992
v -3.501258 7.581849 0.776694
v -3.507668 7.607515 0.777525
v -3.514592 7.622699 0.777636
v -3.680691 7.547646 0.679950
v -3.691818 7.564775 0.673627
v -3.680381 7.562899 0.678910
v -3.565382 7.545054 0.743458
v -3.543730 7.558972 0.754477
v -3.523306 7.538806 0.764475
v -3.567067 7.529030 0.743406
v -3.539389 7.505520 0.759568
v -3.525268 7.520602 0.764460
v -3.499949 7.495922 0.778663
v -3.490330 7.513500 0.780813
v -3.488025 7.533286 0.780820
v -3.496413 7.554230 0.777271
v -3.676547 7.502880 0.694203
v -3.679411 7.532669 0.683362
v -3.697783 7.542684 0.673171
v -3.699329 7.518245 0.679381
v -3.575847 7.499434 0.743519
v -3.582726 7.486506 0.743689
v -3.544520 7.472253 0.764779
v -3.599828 7.464780 0.743914
v -3.552807 7.433558 0.775816
v -3.562505 7.462342 0.760493
v -3.538716 7.433496 0.780817
v -3.518811 7.455067 0.780387
v -3.515053 7.480453 0.775365
v -3.695062 7.503046 0.686868
v -3.719142 7.523525 0.672849
v -3.616904 7.454290 0.741703
v -3.585439 7.434534 0.763360
v -3.628905 7.441741 0.744165
v -3.585251 7.404412 0.779835
v -3.565116 7.410944 0.782071
v -3.711495 7.509694 0.679532
v -3.686630 7.428526 0.735973
v -3.647400 7.384178 0.776562
v -3.740080 7.489962 0.684745
v -3.710165 7.420679 0.737019
v -3.689207 7.373480 0.776916
v -3.716625 7.369937 0.777172
v -3.666546 7.378095 0.776904
v -3.744885 7.620653 0.668804
v -3.714839 7.599142 0.668872
v -3.705429 7.592507 0.669778
v -3.705614 7.557423 0.669698
v -3.728151 7.551851 0.666917
v -3.726621 7.533309 0.669437
v -3.448390 7.821803 0.775968
v -3.411729 7.578235 0.775872
v -3.444036 7.467432 0.746149
v -3.487210 7.413762 0.746142
v -3.575550 7.360991 0.777641
v -3.611122 7.347104 0.777423
v -3.693183 7.325725 0.777496
v -3.698763 7.822035 0.741291
v -3.581923 7.787380 0.726014
v -3.607705 7.768930 0.714461
v -3.594666 7.805985 0.736193
v -3.423559 7.800823 0.738372
v -3.447334 7.803648 0.736959
v -3.476182 7.806895 0.737212
v -3.498145 7.790408 0.728361
v -3.445741 7.789248 0.732028
v -3.489834 7.767110 0.717975
v -3.520779 7.792025 0.728860
v -3.429356 7.757201 0.732510
v -3.415428 7.772213 0.737889
v -3.430200 7.770972 0.732563
v -3.473289 7.763368 0.720319
v -3.421464 7.788920 0.736912
v -3.423129 7.590883 0.736774
v -3.445879 7.597271 0.728448
v -3.419031 7.628808 0.737926
v -3.432276 7.638171 0.732591
v -3.437904 7.491378 0.739838
v -3.455932 7.494267 0.731841
v -3.448392 7.514882 0.731864
v -3.429827 7.513288 0.739848
v -3.442997 7.536073 0.731880
v -3.426257 7.544088 0.737916
v -3.439297 7.557767 0.731895
v -3.490374 7.417426 0.739800
v -3.505357 7.423851 0.731651
v -3.491214 7.438962 0.731713
v -3.475374 7.433321 0.739809
v -3.477861 7.456052 0.731766
v -3.461197 7.451269 0.739819
v -3.541148 7.440689 0.716192
v -3.530293 7.454148 0.715958
v -3.448496 7.470771 0.739829
v -3.465917 7.474631 0.731807
v -3.544410 7.383931 0.736751
v -3.518442 7.400910 0.736194
v -3.579273 7.383338 0.727916
v -3.598674 7.416061 0.709171
v -3.545180 7.400976 0.728495
v -3.604753 7.444692 0.696623
v -3.527206 7.415116 0.728159
v -3.505302 7.404305 0.739795
v -3.630729 7.347132 0.736363
v -3.608820 7.359211 0.733671
v -3.615052 7.367387 0.727315
v -3.572366 7.370532 0.736600
v -3.684924 7.332937 0.736367
v -3.655928 7.339310 0.736300
v -3.676578 7.347216 0.727006
v -3.647587 7.355208 0.726951
v -3.625764 7.751956 0.703590
v -3.478673 7.786591 0.727482
v -3.544075 7.736041 0.698346
v -3.551858 7.745752 0.701442
v -3.569168 7.754971 0.706032
v -3.476886 7.736964 0.717319
v -3.483593 7.746687 0.715558
v -3.510560 7.722347 0.706152
v -3.571916 7.704898 0.685565
v -3.501683 7.749410 0.710854
v -3.519798 7.651694 0.703746
v -3.485674 7.666985 0.715276
v -3.489251 7.565671 0.715268
v -3.484556 7.605923 0.715990
v -3.561102 7.592722 0.689618
v -3.503147 7.503550 0.715364
v -3.504762 7.523004 0.712689
v -3.501217 7.545915 0.712162
v -3.589751 7.466107 0.694252
v -3.581177 7.480998 0.693302
v -3.524266 7.471827 0.713868
v -3.514188 7.487087 0.714262
v -3.586263 7.508739 0.686445
v -3.596470 7.456373 0.695050
v -3.659004 7.376360 0.713897
v -3.634168 7.388809 0.712874
v -3.675309 7.364373 0.717403
v -3.697443 7.384209 0.705646
v -3.681736 7.821811 0.687093
v -3.691788 7.821019 0.678587
v -3.624332 7.740411 0.697535
v -3.665487 7.695040 0.676123
v -3.656136 7.708169 0.681529
v -3.643849 7.724353 0.689067
v -3.592994 7.698660 0.679677
v -3.584387 7.716354 0.686148
v -3.621672 7.686911 0.673365
v -3.602185 7.713159 0.683897
v -3.579712 7.736305 0.695465
v -3.574004 7.693876 0.684347
v -3.600570 7.676916 0.675877
v -3.574664 7.642610 0.684632
v -3.595286 7.585391 0.678105
v -3.571164 7.519402 0.690077
v -3.604005 7.527793 0.678124
v -3.581106 7.536184 0.684919
v -3.575529 7.558549 0.685386
v -3.618856 7.510028 0.675723
v -3.652438 7.452781 0.682998
v -3.664776 7.480511 0.670360
v -3.695827 7.446621 0.678043
v -3.683261 7.675831 0.669355
v -3.649525 7.657702 0.664284
v -3.625319 7.670308 0.669424
v -3.646017 7.644809 0.663450
v -3.623090 7.660092 0.669281
v -3.613822 7.571631 0.672518
v -3.639840 7.571437 0.665266
v -3.621480 7.545210 0.671157
v -3.631624 7.495249 0.674724
v -3.637521 7.525815 0.668184
v -3.659769 7.509908 0.664567
v -3.688055 7.514381 0.658214
v -3.659837 7.538889 0.661270
v -3.653010 7.487203 0.670879
v -3.682447 7.498923 0.661963
v -3.689373 7.464813 0.671495
v -3.706002 7.478224 0.664212
v -3.717630 7.462268 0.668942
v -3.720916 7.614936 0.649632
v -3.707429 7.637713 0.657840
v -3.706450 7.624063 0.653726
v -3.688684 7.631295 0.656378
v -3.712743 7.613032 0.651061
v -3.670101 7.630467 0.658380
v -3.663062 7.627582 0.659612
v -3.666324 7.568769 0.659031
v -3.708228 7.563640 0.650724
v -3.677796 7.534335 0.657770
v -3.718440 7.546533 0.649951
v -3.723925 7.550125 0.609408
v -3.732510 7.540486 0.609277
v -3.744143 7.533323 0.614076
v -3.754138 7.531293 0.609584
v -3.675637 7.703732 0.675368
v -3.670783 7.724921 0.677122
v -3.661244 7.733906 0.682490
v -3.646842 7.737546 0.691473
v -3.632518 7.756451 0.701768
v -3.619651 7.778508 0.713384
v -3.614074 7.779844 0.718913
v -3.613837 7.792872 0.720225
v -3.603075 7.809622 0.736567
v -3.491770 7.817211 0.783773
v -3.588289 7.812358 0.738699
v -3.564925 7.812123 0.738995
v -3.567483 7.814143 0.739273
v -3.558056 7.806287 0.736852
v -3.487832 7.813287 0.739317
v -3.446365 7.811776 0.739618
v -3.422318 7.810034 0.740645
v -3.456226 7.811538 0.783454
v -3.473471 7.822022 0.746114
v -3.411729 7.578235 0.747572
v -3.432863 7.488511 0.746157
v -3.502476 7.400694 0.746125
v -3.534332 7.380288 0.777440
v -3.534535 7.380221 0.746051
v -3.630590 7.340460 0.744724
v -3.670829 7.329436 0.777428
v -3.655947 7.333066 0.744472
v -3.712934 7.323565 0.777561
v -3.413145 7.820066 0.777417
v -3.723759 7.605728 0.610564
v -3.717810 7.585221 0.609026
v -3.718897 7.590586 0.646346
v -3.717188 7.580205 0.646278
v -3.717520 7.567815 0.646371
v -3.719084 7.560757 0.609467
v -3.719571 7.559040 0.646339
v -3.731164 7.541732 0.647299
v -3.740727 7.535082 0.608893
v -3.739076 7.535720 0.646392
v -3.743921 7.533425 0.646290
v -3.629935 7.737462 0.783736
v -3.655381 7.722549 0.783387
v -3.554180 7.747710 0.783339
v -3.605338 7.724784 0.783677
v -3.523391 7.716737 0.783750
v -3.524686 7.676253 0.783535
v -3.505526 7.661921 0.783635
v -3.460353 7.581471 0.783766
v -3.485615 7.614626 0.783552
v -3.472293 7.552898 0.783579
v -3.480638 7.511872 0.783379
v -3.486959 7.467432 0.783715
v -3.522006 7.438097 0.783368
v -3.583596 7.376016 0.783815
v -3.573931 7.400313 0.783339
v -3.613853 7.377019 0.783703
v -3.680531 7.355803 0.783733
v -3.578358 7.822026 0.743273
v -3.562826 7.821028 0.740714
v -3.587111 7.821717 0.740837
v -3.460568 7.821310 0.741704
v -3.407144 7.807436 0.744059
v -3.404445 7.788444 0.747715
v -3.409055 7.774263 0.741530
v -3.405647 7.785254 0.744705
v -3.408571 7.630208 0.747554
v -3.409622 7.630189 0.744685
v -3.409943 7.601107 0.747572
v -3.411861 7.587148 0.744715
v -3.414939 7.587146 0.741537
v -3.412774 7.629718 0.741512
v -3.414743 7.555861 0.745631
v -3.418828 7.533051 0.745630
v -3.424557 7.510248 0.746153
v -3.420501 7.541886 0.741548
v -3.457372 7.448016 0.745624
v -3.471973 7.429940 0.745621
v -3.517964 7.389783 0.747572
v -3.519156 7.390769 0.742988
v -3.552075 7.371467 0.746122
v -3.542026 7.379050 0.741539
v -3.583859 7.357527 0.746032
v -3.611343 7.347105 0.745909
v -3.603106 7.353909 0.739338
v -3.582102 7.360646 0.741530
v -3.682401 7.327677 0.743964
v -3.729016 7.322558 0.746002
v -3.737432 7.324895 0.739669
v -3.712774 7.329886 0.735933
v -3.698890 7.325065 0.744492
v -3.421179 7.820877 0.744345
v -3.423818 7.818294 0.741100
v -3.435946 7.821448 0.743350
v -3.609706 7.820735 0.734134
v -3.625381 7.821547 0.735780
v -3.612052 7.777574 0.718958
v -3.667664 7.704383 0.678361
v -3.658239 7.718522 0.684022
v -3.631566 7.749830 0.701168
v -3.707880 7.651822 0.661118
v -3.723736 7.616326 0.610297
v -3.724822 7.621512 0.646838
v -3.598858 7.820601 0.737682
v -3.603555 7.819059 0.734904
v -3.635372 7.821405 0.714297
v -3.616542 7.818096 0.717105
v -3.618954 7.819858 0.717970
v -3.678907 7.819880 0.676502
v -3.655926 7.820487 0.688506
v -3.636046 7.819635 0.701223
v -3.489832 7.821944 0.778384
v -3.490035 7.821646 0.780536
v -3.489412 7.822040 0.775877
v -3.425482 7.820977 0.778995
v -3.447644 7.821433 0.780593
v -3.404441 7.787686 0.775849
v -3.406090 7.786391 0.778396
v -3.411293 7.792894 0.780647
v -3.408110 7.649914 0.775945
v -3.406331 7.721465 0.775880
v -3.409224 7.635972 0.778544
v -3.407595 7.719215 0.778435
v -3.411691 7.736679 0.780709
v -3.410962 7.703064 0.780540
v -3.411874 7.617325 0.780655
v -3.408831 7.623881 0.775872
v -3.409958 7.601315 0.777398
v -3.412334 7.578197 0.778405
v -3.424513 7.510596 0.777579
v -3.433102 7.488395 0.777845
v -3.418535 7.532724 0.777412
v -3.414441 7.555437 0.777408
v -3.415678 7.562402 0.780593
v -3.420618 7.532691 0.780542
v -3.434668 7.488727 0.780542
v -3.428197 7.508568 0.781506
v -3.471832 7.429651 0.777417
v -3.487462 7.413715 0.777846
v -3.457200 7.447725 0.777419
v -3.443928 7.467717 0.777582
v -3.445709 7.467775 0.780542
v -3.458866 7.448071 0.780542
v -3.490766 7.413624 0.781556
v -3.473420 7.430108 0.780542
v -3.517719 7.390206 0.779069
v -3.502246 7.401039 0.778954
v -3.556389 7.369895 0.779635
v -3.642168 7.336753 0.777618
v -3.649378 7.335758 0.780565
v -3.602764 7.351372 0.780553
v -3.685618 7.328048 0.780623
v -3.404414 7.812202 0.775925
v -3.406260 7.803860 0.778448
v -3.724499 7.621072 0.610573
v -3.720883 7.595488 0.608776
v -3.717282 7.570152 0.608985
v -3.733980 7.611683 0.605040
v -3.724165 7.592897 0.604943
v -3.724557 7.555320 0.604969
v -3.721548 7.564110 0.604963
v -3.727777 7.550092 0.604928
v -3.739693 7.538668 0.604945
v -3.753452 7.534010 0.605042
v -3.718086 7.603309 0.649386
v -3.723119 7.602085 0.646367
v -3.716561 7.586408 0.647826
v -3.711434 7.587188 0.650069
v -3.716245 7.565507 0.648379
v -3.722796 7.551753 0.646397
v -3.721911 7.550267 0.648240
v -3.740602 7.533542 0.647771
v -3.738152 7.529067 0.650066
v -3.723761 7.616458 0.647975
v -3.748116 7.608611 0.662515
v -3.746359 7.608120 0.662514
v -3.744508 7.607491 0.662514
v -3.740624 7.605694 0.662512
v -3.742587 7.606692 0.662513
v -3.738645 7.604468 0.662510
v -3.736717 7.603059 0.662509
v -3.733274 7.599887 0.662506
v -3.734905 7.601517 0.662507
v -3.731892 7.598218 0.662504
v -3.730718 7.596488 0.662502
v -3.728837 7.592747 0.662499
v -3.729713 7.594671 0.662500
v -3.731666 7.598900 0.665849
v -3.728050 7.590691 0.662497
v -3.727360 7.588552 0.662496
v -3.726295 7.584217 0.662494
v -3.726772 7.586378 0.662495
v -3.725934 7.582116 0.662493
v -3.725701 7.580004 0.662492
v -3.725660 7.575462 0.662491
v -3.725606 7.577810 0.662492
v -3.725300 7.573045 0.666096
v -3.725873 7.572888 0.662491
v -3.726241 7.570168 0.662490
v -3.727424 7.564610 0.662489
v -3.726760 7.567382 0.662490
v -3.728230 7.561932 0.662489
v -3.729187 7.559395 0.662489
v -3.731593 7.554938 0.662490
v -3.730305 7.557047 0.662489
v -3.728785 7.559014 0.665664
v -3.733060 7.553114 0.662490
v -3.734635 7.551545 0.662490
v -3.737818 7.549042 0.662491
v -3.736245 7.550198 0.662490
v -3.739281 7.548046 0.662491
v -3.740675 7.547181 0.662491
v -3.743420 7.545729 0.662492
v -3.742042 7.546418 0.662492
v -3.744851 7.545085 0.662492
v -3.746304 7.544506 0.662492
v -3.749150 7.543622 0.662492
v -3.747748 7.544012 0.662492
v -3.750481 7.543358 0.662492
v -3.751758 7.543196 0.662492
v -3.752998 7.543117 0.662492
v -3.639348 7.816433 0.696637
v -3.654280 7.815387 0.686792
v -3.622179 7.817034 0.710691
v -3.491705 7.818774 0.783606
v -3.552959 7.818484 0.739403
v -3.584518 7.819781 0.739092
v -3.552981 7.820088 0.739947
v -3.447573 7.818479 0.739875
v -3.489501 7.818342 0.739415
v -3.455929 7.820033 0.740254
v -3.406916 7.818512 0.778077
v -3.461527 7.819104 0.783464
v -3.427699 7.819058 0.782335
v -3.404221 7.808300 0.747570
v -3.405831 7.817798 0.746019
v -3.411564 7.817987 0.743223
v -3.601403 7.811652 0.737518
v -3.413263 7.818805 0.780493
v -3.728038 7.693212 0.752387
v -3.752581 7.693920 0.751167
v -3.744992 7.680458 0.731653
v -3.727125 7.621929 0.616288
v -3.723710 7.623231 0.649843
v -3.719900 7.633199 0.654423
v -3.689975 7.686910 0.670923
v -3.748080 7.653398 0.660978
v -3.752923 7.678524 0.668177
v -3.752980 7.612077 0.666696
v -3.740729 7.606296 0.665816
v -3.750938 7.609623 0.665211
v -3.726203 7.586239 0.666123
v -3.733843 7.551850 0.665627
v -3.742507 7.545472 0.666189
v -3.750385 7.542784 0.666053
v -3.744395 7.685319 0.738195
v -3.744517 7.687513 0.733335
v -3.745602 7.688667 0.742147
v -3.710276 7.714482 0.781679
v -3.734190 7.710264 0.777848
v -3.687092 7.709129 0.777946
v -3.608012 7.706424 0.782962
v -3.620511 7.705163 0.781812
v -3.661316 7.716125 0.782934
v -3.665900 7.712190 0.781711
v -3.651462 7.707097 0.779310
v -3.624793 7.701165 0.778494
v -3.577763 7.703520 0.783400
v -3.560269 7.689013 0.783064
v -3.579893 7.692292 0.781898
v -3.547878 7.675056 0.781969
v -3.598256 7.694874 0.779421
v -3.520672 7.645782 0.781284
v -3.531297 7.668063 0.783077
v -3.558314 7.673665 0.778525
v -3.483157 7.584572 0.783229
v -3.493785 7.607980 0.782767
v -3.506184 7.632851 0.782732
v -3.492537 7.591192 0.781465
v -3.478861 7.544253 0.783141
v -3.488433 7.492554 0.783073
v -3.484804 7.564498 0.782082
v -3.500103 7.468391 0.783065
v -3.547540 7.419041 0.783049
v -3.609072 7.400211 0.775501
v -3.649349 7.371013 0.783156
v -3.615775 7.384181 0.782707
v -3.648961 7.374590 0.781917
v -3.631441 7.390572 0.775972
v -3.679484 7.365165 0.782871
v -3.740588 7.718893 0.782769
v -3.753030 7.714391 0.781495
v -3.722684 7.676997 0.729586
v -3.737319 7.417789 0.736427
v -3.733226 7.340079 0.726958
v -3.705561 7.342396 0.727050
v -3.722500 7.353498 0.719184
v -3.720834 7.368139 0.711621
v -3.748497 7.374404 0.707950
v -3.749981 7.447966 0.673950
v -3.733428 7.456765 0.670247
v -3.733339 7.480693 0.661193
v -3.721649 7.495162 0.657807
v -3.756893 7.350996 0.783713
v -3.660081 7.821929 0.738094
v -3.745553 7.322061 0.777275
v -3.721486 7.324067 0.780553
v -3.752771 7.609430 0.662515
v -3.751291 7.609266 0.662515
v -3.749749 7.608993 0.662515
v -3.751291 7.691430 0.746591
v -3.711021 7.361989 0.782526
v -3.758224 7.709573 0.776482
v -3.833064 7.704551 0.675537
v -3.833666 7.739869 0.675167
v -3.816134 7.723381 0.673805
v -3.834877 7.817200 0.676362
v -3.829196 7.819508 0.676271
v -3.824898 7.817559 0.674781
v -3.828440 7.802406 0.674013
v -3.808289 7.695820 0.672880
v -3.766513 7.705350 0.673976
v -3.833266 7.799018 0.675078
v -3.828798 7.729552 0.674155
v -3.818690 7.694092 0.672838
v -3.825799 7.705037 0.674172
v -3.800849 7.820309 0.676120
v -3.794538 7.818497 0.674788
v -3.829003 7.814305 0.674244
v -3.722425 7.820383 0.676125
v -3.676270 7.722175 0.674896
v -3.677323 7.764505 0.674330
v -3.684580 7.817696 0.674639
v -3.673799 7.816402 0.675892
v -3.679032 7.813786 0.674172
v -3.670983 7.775763 0.676873
v -3.687324 7.701142 0.673893
v -3.681818 7.708167 0.674214
v -3.742879 7.697746 0.673000
v -3.459815 7.771210 0.783647
v -3.469552 7.795692 0.783757
v -3.492321 7.740669 0.783754
v -3.547023 7.708615 0.783701
v -3.524741 7.729787 0.783196
v -3.495236 7.768197 0.783150
v -3.533550 7.763500 0.781672
v -3.771674 7.609324 0.604853
v -3.771763 7.609129 0.604853
v -3.771948 7.608740 0.604853
v -3.772374 7.608033 0.604853
v -3.773185 7.606884 0.604853
v -3.774523 7.605172 0.604853
v -3.776202 7.603037 0.604853
v -3.771612 7.610873 0.604912
v -3.778032 7.600623 0.604853
v -3.779827 7.598070 0.604853
v -3.781396 7.595522 0.604853
v -3.782741 7.592988 0.604853
v -3.783860 7.590478 0.604853
v -3.784753 7.588003 0.604853
v -3.785419 7.585572 0.604853
v -3.785891 7.583146 0.604853
v -3.786202 7.580686 0.604853
v -3.786386 7.578153 0.604853
v -3.786476 7.575507 0.604853
v -3.787167 7.585016 0.604983
v -3.786465 7.572831 0.604853
v -3.786349 7.570206 0.604853
v -3.786121 7.567713 0.604853
v -3.785775 7.565436 0.604853
v -3.785315 7.563321 0.604853
v -3.784745 7.561312 0.604853
v -3.784070 7.559357 0.604853
v -3.783293 7.557401 0.604853
v -3.782398 7.555460 0.604853
v -3.781371 7.553550 0.604853
v -3.780193 7.551684 0.604853
v -3.779320 7.548253 0.604948
v -3.778850 7.549879 0.604853
v -3.777368 7.548136 0.604853
v -3.775776 7.546458 0.604853
v -3.774101 7.544847 0.604853
v -3.772369 7.543303 0.604853
v -3.770596 7.541864 0.604853
v -3.768795 7.540564 0.604853
v -3.766978 7.539439 0.604853
v -3.767809 7.537882 0.604963
v -3.765161 7.538524 0.604853
v -3.763371 7.537793 0.604853
v -3.761636 7.537220 0.604853
v -3.759984 7.536776 0.604853
v -3.758443 7.536436 0.604853
v -3.756985 7.536197 0.604853
v -3.755583 7.536056 0.604853
v -3.754208 7.536010 0.604853
v -3.768476 7.610597 0.604853
v -3.770176 7.609959 0.604853
v -3.771118 7.609616 0.604853
v -3.771538 7.609445 0.604853
v -3.753786 7.614173 0.604853
v -3.758229 7.613753 0.604853
v -3.762295 7.612808 0.604853
v -3.765780 7.611651 0.604853
v -3.732952 7.606884 0.604853
v -3.733509 7.608033 0.604853
v -3.733809 7.608740 0.604853
v -3.733952 7.609129 0.604853
v -3.734040 7.609324 0.604853
v -3.734177 7.609445 0.604853
v -3.734639 7.609616 0.604853
v -3.735708 7.609959 0.604853
v -3.737661 7.610597 0.604853
v -3.728167 7.598070 0.604853
v -3.729539 7.600623 0.604853
v -3.730863 7.603037 0.604853
v -3.732035 7.605172 0.604853
v -3.720311 7.580008 0.605033
v -3.723662 7.588003 0.604853
v -3.724555 7.590478 0.604853
v -3.725632 7.592988 0.604853
v -3.726851 7.595522 0.604853
v -3.722030 7.578153 0.604853
v -3.722214 7.580686 0.604853
v -3.722525 7.583146 0.604853
v -3.722997 7.585572 0.604853
v -3.722294 7.567713 0.604853
v -3.722066 7.570206 0.604853
v -3.721950 7.572831 0.604853
v -3.721940 7.575507 0.604853
v -3.724346 7.559357 0.604853
v -3.723670 7.561312 0.604853
v -3.723100 7.563321 0.604853
v -3.722641 7.565436 0.604853
v -3.728223 7.551684 0.604853
v -3.727045 7.553550 0.604853
v -3.726017 7.555460 0.604853
v -3.725122 7.557401 0.604853
v -3.734315 7.544847 0.604853
v -3.732640 7.546458 0.604853
v -3.731047 7.548136 0.604853
v -3.729566 7.549879 0.604853
v -3.741438 7.539439 0.604853
v -3.739621 7.540564 0.604853
v -3.737820 7.541864 0.604853
v -3.736046 7.543303 0.604853
v -3.748432 7.536776 0.604853
v -3.746780 7.537220 0.604853
v -3.745045 7.537793 0.604853
v -3.743255 7.538524 0.604853
v -3.752833 7.536056 0.604853
v -3.751431 7.536197 0.604853
v -3.749973 7.536436 0.604853
v -3.740779 7.611651 0.604853
v -3.744728 7.612808 0.604853
v -3.749175 7.613753 0.604853
v -3.522730 7.738435 0.781712
v -3.504056 7.753765 0.781651
v -3.691293 7.790415 0.673924
v -3.690581 7.719679 0.673863
v -3.760952 7.700506 0.743344
v -3.744504 7.700348 0.734158
v -3.754587 7.692417 0.747087
v -3.763537 7.701818 0.737804
v -3.754053 7.701103 0.727217
v -3.746560 7.702321 0.742065
v -3.764138 7.690012 0.709423
v -3.762335 7.686725 0.704504
v -3.749188 7.683295 0.732055
v -3.749571 7.684322 0.705687
v -3.762680 7.700252 0.707669
v -3.764225 7.700034 0.737862
v -3.764129 7.698887 0.709486
v -3.744479 7.689137 0.704595
v -3.745098 7.700153 0.705066
v -3.763700 7.698589 0.704581
v -3.754924 7.702641 0.745730
v -3.750800 7.702527 0.732425
f 512 300 322
f 520 2 1
f 5 1 2
f 1 5 3
f 3 300 1
f 2 4 5
f 4 7 8
f 8 5 4
f 5 8 3
f 328 325 3
f 3 6 328
f 325 300 3
f 6 3 8
f 7 9 10
f 10 8 7
f 8 10 6
f 6 11 331
f 9 425 10
f 11 6 10
f 425 12 13
f 13 10 425
f 13 11 10
f 18 11 13
f 14 13 12
f 14 17 18
f 18 13 14
f 16 17 15
f 16 18 17
f 18 16 22
f 19 16 15
f 19 434 21
f 19 21 22
f 22 16 19
f 434 20 21
f 23 21 20
f 21 23 28
f 28 22 21
f 26 23 24
f 23 26 28
f 20 24 23
f 24 25 26
f 27 26 25
f 26 27 30
f 30 28 26
f 27 29 659
f 27 659 30
f 658 28 30
f 31 699 33
f 33 699 526
f 31 33 32
f 38 32 33
f 33 592 38
f 35 34 43
f 34 35 32
f 32 38 34
f 35 36 37
f 37 32 35
f 94 50 39
f 39 40 94
f 50 48 39
f 41 40 39
f 49 39 48
f 39 49 42
f 42 41 39
f 36 35 41
f 41 42 36
f 35 43 41
f 41 43 40
f 47 45 44
f 44 46 47
f 48 45 47
f 49 48 47
f 48 50 45
f 51 52 53
f 55 52 54
f 52 55 46
f 46 44 53
f 53 52 46
f 58 56 57
f 58 59 56
f 57 67 60
f 60 58 57
f 55 54 60
f 60 54 58
f 52 51 61
f 61 54 52
f 54 61 59
f 59 58 54
f 64 62 72
f 66 63 62
f 62 64 66
f 64 65 66
f 68 67 57
f 67 68 66
f 117 68 57
f 68 117 63
f 63 66 68
f 122 78 69
f 72 73 69
f 78 70 71
f 71 69 78
f 71 72 69
f 65 64 71
f 72 71 64
f 72 62 73
f 75 79 76
f 79 80 77
f 76 79 77
f 78 77 70
f 77 78 76
f 78 122 76
f 130 79 75
f 75 74 130
f 83 699 31
f 702 699 83
f 83 133 702
f 133 83 82
f 81 82 83
f 83 31 81
f 84 86 444
f 592 444 86
f 36 89 81
f 81 37 36
f 89 90 82
f 82 81 89
f 31 32 37
f 81 31 37
f 86 38 592
f 38 86 85
f 87 92 85
f 92 91 85
f 34 85 91
f 85 34 38
f 88 42 49
f 90 89 88
f 42 88 36
f 89 36 88
f 91 43 34
f 43 91 40
f 92 40 91
f 94 93 98
f 93 94 92
f 40 92 94
f 46 102 96
f 96 47 46
f 103 96 102
f 95 96 103
f 90 88 96
f 96 95 90
f 49 96 88
f 96 49 47
f 97 50 94
f 97 45 50
f 98 97 94
f 97 98 567
f 101 100 99
f 100 101 97
f 97 567 100
f 101 44 45
f 45 97 101
f 55 111 102
f 103 102 111
f 102 46 55
f 44 101 104
f 104 53 44
f 53 104 109
f 101 99 105
f 105 104 101
f 104 105 106
f 106 109 104
f 107 108 109
f 109 106 107
f 51 109 108
f 109 51 53
f 110 60 67
f 115 138 137
f 137 110 115
f 110 137 103
f 111 110 103
f 111 55 60
f 60 110 111
f 51 108 61
f 61 108 112
f 112 59 61
f 574 108 107
f 108 574 572
f 572 112 108
f 570 114 113
f 113 573 570
f 573 113 112
f 112 572 573
f 114 57 56
f 56 113 114
f 113 56 59
f 59 112 113
f 115 66 65
f 116 115 65
f 115 116 138
f 115 67 66
f 110 67 115
f 57 114 117
f 579 63 117
f 114 570 580
f 580 117 114
f 117 580 579
f 578 118 579
f 118 62 63
f 63 579 118
f 125 71 70
f 119 124 116
f 116 65 119
f 125 119 65
f 71 125 65
f 62 118 120
f 120 73 62
f 583 120 118
f 120 583 582
f 582 121 120
f 121 122 69
f 121 69 73
f 73 120 121
f 123 77 80
f 124 119 597
f 123 597 119
f 119 125 123
f 125 70 77
f 77 123 125
f 122 121 586
f 126 76 122
f 122 586 126
f 128 127 590
f 127 128 126
f 75 128 74
f 128 75 76
f 76 126 128
f 590 74 128
f 80 597 123
f 74 590 589
f 130 589 129
f 589 130 74
f 130 129 131
f 131 129 132
f 133 134 1164
f 767 702 133
f 134 133 82
f 134 82 90
f 134 135 543
f 95 135 134
f 90 95 134
f 546 135 136
f 135 95 136
f 136 95 103
f 137 139 136
f 139 483 546
f 546 136 139
f 136 103 137
f 138 140 139
f 483 139 547
f 547 139 140
f 139 137 138
f 140 116 124
f 116 140 138
f 140 548 547
f 124 141 140
f 548 140 141
f 302 303 144
f 145 144 303
f 146 350 418
f 147 418 350
f 147 353 417
f 427 417 353
f 353 304 427
f 354 427 304
f 148 432 309
f 435 309 432
f 439 373 436
f 441 378 440
f 613 440 378
f 151 152 153
f 155 157 154
f 157 155 160
f 156 160 155
f 153 158 151
f 156 151 158
f 158 159 156
f 160 210 157
f 160 156 159
f 163 167 161
f 163 162 167
f 164 154 157
f 164 163 161
f 165 157 210
f 165 212 163
f 157 165 164
f 163 164 165
f 166 163 212
f 163 166 162
f 171 161 167
f 167 172 171
f 172 167 169
f 162 169 167
f 166 168 169
f 166 169 162
f 170 171 172
f 172 173 170
f 173 172 174
f 169 174 172
f 168 215 174
f 174 169 168
f 173 174 215
f 176 177 175
f 175 179 178
f 178 176 175
f 179 170 173
f 173 178 179
f 215 180 178
f 178 173 215
f 181 216 177
f 177 176 181
f 180 181 176
f 176 178 180
f 192 182 184
f 184 193 192
f 182 183 185
f 185 184 182
f 186 175 177
f 177 187 186
f 183 186 187
f 187 185 183
f 216 188 187
f 187 177 216
f 188 219 185
f 185 187 188
f 218 220 193
f 193 184 218
f 219 218 184
f 184 185 219
f 191 190 189
f 190 191 222
f 222 221 190
f 191 192 193
f 191 193 194
f 194 222 191
f 220 223 194
f 194 193 220
f 222 194 223
f 197 195 196
f 197 196 198
f 199 198 196
f 195 189 190
f 190 196 195
f 196 190 221
f 221 199 196
f 221 200 199
f 200 201 198
f 198 199 200
f 202 204 203
f 206 207 202
f 202 203 206
f 197 203 204
f 203 197 198
f 201 205 206
f 206 198 201
f 198 206 203
f 207 206 208
f 208 206 205
f 230 150 226
f 150 610 226
f 780 226 610
f 226 780 228
f 392 209 153
f 395 231 392
f 210 160 211
f 211 234 210
f 160 159 211
f 158 153 209
f 159 158 209
f 209 211 159
f 209 392 231
f 212 238 166
f 210 213 165
f 213 210 234
f 212 165 213
f 213 237 212
f 238 212 237
f 168 166 238
f 238 214 168
f 168 214 215
f 215 214 246
f 215 246 180
f 181 217 216
f 217 248 188
f 219 188 248
f 188 216 217
f 223 224 222
f 224 252 221
f 221 222 224
f 201 200 251
f 200 221 252
f 251 200 252
f 205 225 208
f 205 201 251
f 251 253 205
f 225 205 253
f 229 230 226
f 229 228 227
f 229 226 228
f 395 232 231
f 234 211 233
f 236 233 211
f 231 236 209
f 236 231 232
f 211 209 236
f 393 235 236
f 236 232 393
f 233 236 235
f 238 237 241
f 234 239 213
f 239 234 233
f 237 213 239
f 239 241 237
f 240 233 235
f 233 240 239
f 241 239 240
f 242 241 240
f 241 242 238
f 238 243 214
f 242 244 243
f 243 238 242
f 246 214 243
f 246 243 244
f 217 181 245
f 181 180 245
f 246 245 180
f 244 261 245
f 245 246 244
f 263 245 261
f 245 263 217
f 220 218 247
f 247 249 220
f 218 219 247
f 248 247 219
f 248 217 263
f 249 247 262
f 262 248 263
f 248 262 247
f 252 224 250
f 223 220 249
f 224 223 249
f 249 250 224
f 250 269 252
f 251 252 269
f 253 251 269
f 256 393 396
f 256 396 254
f 256 257 235
f 235 393 256
f 254 255 256
f 255 259 257
f 257 256 255
f 242 240 258
f 240 235 257
f 257 258 240
f 257 259 258
f 258 260 244
f 244 242 258
f 260 258 259
f 259 275 260
f 261 244 260
f 260 265 261
f 275 278 265
f 265 260 275
f 278 264 265
f 266 265 264
f 263 261 265
f 265 266 263
f 262 263 266
f 269 250 267
f 262 267 249
f 250 249 267
f 266 268 267
f 267 262 266
f 268 270 267
f 268 272 270
f 269 267 270
f 271 606 604
f 604 253 271
f 269 271 253
f 271 270 272
f 271 269 270
f 272 605 271
f 273 539 451
f 273 254 539
f 259 255 274
f 273 274 255
f 255 254 273
f 274 273 451
f 451 277 274
f 274 277 259
f 259 277 275
f 277 279 275
f 278 275 279
f 279 264 278
f 264 279 456
f 264 280 268
f 268 266 264
f 280 264 456
f 272 268 280
f 280 607 272
f 452 311 313
f 453 313 281
f 282 314 281
f 316 314 282
f 285 320 284
f 320 285 916
f 394 288 1229
f 287 403 394
f 288 394 403
f 290 388 289
f 390 289 388
f 291 292 152
f 291 152 294
f 291 399 292
f 293 152 151
f 151 156 293
f 152 293 294
f 155 154 296
f 296 295 155
f 156 155 295
f 295 293 156
f 297 296 383
f 296 297 295
f 293 295 297
f 294 293 297
f 298 310 299
f 512 518 1
f 1 300 512
f 520 1 518
f 340 142 301
f 342 409 142
f 142 340 342
f 409 342 143
f 298 299 302
f 358 305 359
f 305 358 307
f 361 306 307
f 306 361 366
f 428 366 308
f 366 428 306
f 367 435 308
f 435 367 309
f 371 431 148
f 148 372 371
f 372 148 309
f 431 371 439
f 436 376 374
f 376 436 373
f 377 443 374
f 377 441 443
f 441 377 378
f 379 613 378
f 613 379 149
f 382 1221 149
f 312 313 311
f 313 453 452
f 282 281 313
f 314 316 315
f 315 316 283
f 318 317 283
f 315 283 317
f 317 284 319
f 317 318 284
f 319 284 320
f 323 324 321
f 324 323 325
f 323 322 325
f 300 325 322
f 325 326 324
f 328 329 326
f 326 325 328
f 6 331 328
f 328 327 329
f 331 327 328
f 330 11 18
f 11 330 331
f 332 584 576
f 332 576 333
f 333 330 332
f 330 22 332
f 18 22 330
f 22 335 332
f 581 332 335
f 332 581 584
f 22 336 335
f 334 335 336
f 28 1219 336
f 336 337 334
f 336 22 28
f 399 515 339
f 386 399 338
f 399 339 301
f 301 338 399
f 341 339 515
f 339 341 340
f 340 301 339
f 341 342 340
f 342 343 143
f 343 342 341
f 299 385 344
f 344 302 299
f 521 154 164
f 164 345 521
f 345 164 161
f 385 521 345
f 345 344 385
f 161 347 345
f 347 346 344
f 344 345 347
f 346 303 302
f 302 344 346
f 171 348 347
f 347 161 171
f 348 349 346
f 346 347 348
f 350 145 303
f 349 350 303
f 303 346 349
f 350 146 145
f 170 351 348
f 348 171 170
f 351 352 349
f 349 348 351
f 352 353 147
f 352 147 350
f 350 349 352
f 353 352 355
f 355 304 353
f 304 355 354
f 351 170 179
f 179 355 351
f 179 357 355
f 352 351 355
f 357 354 355
f 175 356 357
f 356 358 359
f 359 357 356
f 357 179 175
f 357 359 354
f 360 307 358
f 307 360 361
f 356 175 186
f 186 362 356
f 362 186 183
f 183 363 362
f 358 356 362
f 362 360 358
f 360 362 363
f 363 361 360
f 364 182 192
f 364 365 366
f 182 364 363
f 363 183 182
f 364 366 361
f 361 363 364
f 365 308 366
f 308 365 367
f 369 309 367
f 192 368 364
f 368 192 191
f 191 369 368
f 365 364 368
f 368 367 365
f 367 368 369
f 370 371 372
f 189 370 369
f 369 191 189
f 370 372 369
f 309 369 372
f 373 439 371
f 370 189 195
f 195 375 370
f 371 370 375
f 375 373 371
f 197 374 375
f 375 195 197
f 376 375 374
f 375 376 373
f 374 197 204
f 204 377 374
f 202 378 204
f 377 204 378
f 378 202 380
f 380 379 378
f 379 380 381
f 382 381 1004
f 381 382 379
f 382 149 379
f 143 343 383
f 383 384 143
f 385 299 310
f 310 384 385
f 150 387 386
f 150 386 338
f 152 292 389
f 389 153 152
f 292 390 389
f 389 390 388
f 287 395 391
f 391 290 287
f 392 391 395
f 153 389 392
f 388 392 389
f 392 388 391
f 290 391 388
f 1229 393 394
f 232 394 393
f 394 232 395
f 395 287 394
f 396 541 254
f 396 393 1229
f 541 396 1240
f 539 538 451
f 541 539 254
f 538 535 451
f 312 311 397
f 397 311 529
f 398 529 311
f 398 311 452
f 399 386 292
f 400 509 387
f 387 150 401
f 401 400 387
f 402 507 508
f 400 402 508
f 400 508 509
f 401 150 230
f 230 1233 404
f 1233 1232 404
f 507 402 403
f 403 404 1232
f 404 403 402
f 402 400 404
f 230 404 401
f 400 401 404
f 411 406 405
f 405 1028 411
f 407 411 1028
f 301 142 1029
f 407 1029 142
f 143 408 409
f 408 519 410
f 410 409 408
f 406 411 410
f 411 407 409
f 409 410 411
f 407 142 409
f 144 412 414
f 413 414 412
f 520 522 413
f 413 2 520
f 522 523 414
f 414 413 522
f 302 144 298
f 298 414 523
f 414 298 144
f 421 7 4
f 4 416 421
f 415 421 416
f 2 413 416
f 416 4 2
f 412 416 413
f 416 412 415
f 412 144 145
f 145 415 412
f 418 147 417
f 419 418 417
f 420 9 7
f 7 421 420
f 420 419 417
f 419 420 421
f 421 415 419
f 415 145 146
f 146 419 415
f 419 146 418
f 422 359 305
f 359 422 423
f 423 354 359
f 424 12 425
f 424 422 305
f 422 424 425
f 425 423 422
f 9 420 426
f 420 417 427
f 427 426 420
f 9 426 425
f 426 427 423
f 423 425 426
f 354 423 427
f 429 15 17
f 308 15 429
f 429 428 308
f 429 306 428
f 12 424 430
f 430 14 12
f 424 305 307
f 307 430 424
f 14 430 429
f 429 17 14
f 430 307 306
f 306 429 430
f 433 20 434
f 433 148 431
f 148 433 434
f 434 432 148
f 435 19 15
f 15 308 435
f 19 435 434
f 432 434 435
f 374 437 436
f 24 438 437
f 438 24 20
f 438 436 437
f 20 433 438
f 433 431 439
f 439 438 433
f 438 439 436
f 442 27 25
f 442 441 440
f 441 442 25
f 24 437 25
f 443 25 437
f 25 443 441
f 437 374 443
f 522 520 519
f 591 84 444
f 527 397 529
f 312 397 445
f 447 445 397
f 397 527 447
f 313 312 445
f 282 313 445
f 445 448 449
f 282 445 449
f 282 446 316
f 1269 448 447
f 619 1269 447
f 448 445 447
f 449 1281 282
f 446 282 1281
f 446 450 316
f 450 1293 283
f 283 316 450
f 284 318 1293
f 1293 1302 284
f 318 283 1293
f 1079 285 1302
f 285 284 1302
f 451 452 453
f 453 276 451
f 276 277 451
f 276 453 281
f 314 454 281
f 276 281 454
f 454 314 315
f 454 277 276
f 315 455 454
f 279 454 456
f 455 456 454
f 454 279 277
f 455 315 317
f 457 317 319
f 457 458 456
f 456 455 457
f 317 457 455
f 458 280 456
f 320 608 457
f 458 607 280
f 458 457 608
f 457 319 320
f 398 452 535
f 451 535 452
f 459 460 543
f 460 461 543
f 462 463 542
f 542 543 462
f 461 462 543
f 465 466 464
f 466 467 464
f 468 459 543
f 467 468 543
f 543 464 467
f 469 470 464
f 470 471 464
f 472 465 464
f 471 472 464
f 473 474 544
f 474 475 544
f 476 469 464
f 464 544 476
f 475 476 544
f 477 478 545
f 478 479 545
f 480 473 544
f 544 545 480
f 479 480 545
f 481 482 483
f 482 484 545
f 545 483 482
f 485 477 545
f 484 485 545
f 486 487 547
f 487 488 483
f 483 547 487
f 489 481 483
f 488 489 483
f 490 491 547
f 547 548 490
f 491 492 547
f 493 486 547
f 492 493 547
f 495 496 494
f 496 497 548
f 548 494 496
f 498 490 548
f 497 498 548
f 499 500 494
f 500 501 494
f 502 495 494
f 501 502 494
f 503 504 494
f 504 505 494
f 506 499 494
f 505 506 494
f 287 507 403
f 289 509 508
f 508 290 289
f 507 287 290
f 290 508 507
f 390 387 289
f 509 289 387
f 294 513 514
f 517 341 515
f 514 517 515
f 399 514 515
f 291 514 399
f 514 291 294
f 516 297 383
f 517 343 341
f 383 343 517
f 517 516 383
f 517 514 513
f 517 513 516
f 513 294 297
f 297 516 513
f 298 523 310
f 512 511 518
f 510 406 410
f 410 518 510
f 511 510 518
f 410 519 518
f 519 520 518
f 383 296 521
f 521 384 383
f 384 521 385
f 296 154 521
f 387 390 292
f 292 386 387
f 408 522 519
f 408 524 522
f 524 523 522
f 143 384 524
f 524 408 143
f 384 310 524
f 523 524 310
f 1156 1228 525
f 1228 444 525
f 525 592 552
f 526 552 33
f 528 619 527
f 447 527 619
f 529 530 618
f 531 532 530
f 532 533 618
f 618 530 532
f 529 398 530
f 534 530 398
f 534 531 530
f 531 534 537
f 535 534 398
f 538 534 535
f 534 538 536
f 536 537 534
f 541 540 539
f 539 540 538
f 540 536 538
f 540 541 1162
f 396 1229 1240
f 541 1240 1236
f 1162 541 1163
f 1236 1163 541
f 1254 1163 1236
f 134 543 1164
f 542 1164 543
f 135 464 543
f 546 545 544
f 135 544 464
f 544 135 546
f 545 546 483
f 550 525 549
f 549 620 551
f 550 549 1381
f 525 1377 1156
f 549 552 620
f 552 549 525
f 553 557 554
f 556 86 84
f 557 556 84
f 84 554 557
f 554 84 591
f 85 556 87
f 562 87 556
f 556 85 86
f 556 557 562
f 553 321 324
f 324 555 553
f 557 553 555
f 555 562 557
f 326 558 559
f 561 559 558
f 560 98 93
f 92 561 93
f 558 560 93
f 93 561 558
f 561 92 87
f 562 561 87
f 324 559 555
f 559 324 326
f 562 555 559
f 559 561 562
f 329 564 563
f 563 326 329
f 565 563 564
f 566 99 100
f 566 100 567
f 566 565 564
f 565 566 567
f 560 558 565
f 98 560 567
f 565 567 560
f 326 563 558
f 563 565 558
f 327 568 569
f 568 107 106
f 106 569 568
f 564 99 566
f 105 99 569
f 569 106 105
f 99 564 569
f 329 327 564
f 327 569 564
f 330 570 571
f 571 331 330
f 331 571 575
f 572 575 571
f 573 571 570
f 571 573 572
f 107 568 574
f 575 574 568
f 574 575 572
f 327 575 568
f 575 327 331
f 584 578 577
f 577 576 584
f 577 578 579
f 577 579 580
f 570 330 333
f 333 580 570
f 580 333 576
f 576 577 580
f 586 121 582
f 581 586 582
f 118 578 583
f 584 583 578
f 583 584 581
f 581 582 583
f 585 127 587
f 587 334 585
f 126 586 127
f 586 587 127
f 586 581 587
f 335 334 581
f 334 587 581
f 588 337 622
f 337 588 585
f 590 585 588
f 588 129 589
f 589 590 588
f 585 334 337
f 585 590 127
f 321 553 1206
f 554 1206 553
f 1228 1207 591
f 554 591 1207
f 1206 554 1207
f 525 444 592
f 33 552 592
f 593 80 79
f 130 131 594
f 594 79 130
f 79 594 593
f 595 124 597
f 597 596 595
f 596 80 593
f 596 597 80
f 1170 548 141
f 124 595 141
f 610 301 1029
f 1004 381 598
f 600 598 381
f 598 600 599
f 202 600 380
f 600 202 207
f 381 380 600
f 207 599 600
f 601 207 208
f 207 601 599
f 208 602 601
f 603 1214 602
f 225 603 208
f 603 602 208
f 225 604 603
f 604 1215 1214
f 1214 603 604
f 604 225 253
f 1215 604 606
f 606 271 605
f 605 272 607
f 458 608 607
f 286 320 916
f 320 286 608
f 336 1219 337
f 337 1219 622
f 28 658 1219
f 511 1140 609
f 405 406 510
f 510 609 405
f 609 510 511
f 1140 511 512
f 610 150 338
f 338 301 610
f 612 611 29
f 612 149 611
f 442 612 27
f 612 442 440
f 440 613 612
f 29 27 612
f 149 612 613
f 916 285 1079
f 463 614 542
f 614 615 542
f 616 617 1166
f 615 616 1166
f 1166 542 615
f 618 533 527
f 618 527 529
f 1170 494 548
f 526 620 552
f 132 129 588
f 588 621 132
f 588 622 621
f 1228 591 444
f 624 322 957
f 322 624 926
f 624 625 1256
f 623 625 624
f 628 627 626
f 632 631 629
f 630 632 629
f 630 1257 634
f 634 635 630
f 632 630 635
f 632 633 631
f 633 632 635
f 634 961 964
f 633 635 636
f 636 635 638
f 634 638 635
f 638 634 643
f 1052 637 639
f 643 639 637
f 637 638 643
f 638 637 636
f 640 641 639
f 639 643 640
f 640 642 641
f 640 643 644
f 645 1059 642
f 642 640 645
f 645 640 644
f 1059 645 647
f 647 646 1059
f 644 647 645
f 970 649 644
f 650 651 648
f 648 647 650
f 647 648 646
f 649 650 647
f 647 644 649
f 649 970 654
f 654 655 649
f 651 650 652
f 655 652 650
f 650 649 655
f 655 653 652
f 655 656 653
f 656 657 653
f 656 655 658
f 973 658 654
f 658 973 1219
f 655 654 658
f 659 29 657
f 657 656 659
f 659 658 30
f 658 659 656
f 526 699 661
f 704 660 1208
f 1208 661 704
f 665 661 662
f 664 669 663
f 665 664 663
f 665 704 661
f 662 664 665
f 664 670 669
f 663 669 667
f 669 668 667
f 668 669 670
f 670 671 666
f 666 668 670
f 713 673 672
f 673 671 674
f 713 666 671
f 671 673 713
f 676 678 679
f 679 677 676
f 677 679 681
f 672 679 678
f 679 672 673
f 679 673 675
f 681 679 675
f 681 680 677
f 682 732 686
f 732 729 683
f 683 686 732
f 686 687 682
f 684 676 677
f 677 680 684
f 684 683 729
f 683 684 680
f 680 685 683
f 686 726 687
f 686 683 685
f 688 689 746
f 688 744 690
f 682 691 743
f 691 682 687
f 744 743 691
f 691 690 744
f 690 691 687
f 690 739 688
f 692 756 693
f 756 754 694
f 694 693 756
f 754 746 689
f 689 694 754
f 688 739 689
f 694 689 739
f 694 695 693
f 696 697 760
f 693 696 692
f 696 693 695
f 697 696 695
f 697 698 763
f 763 760 697
f 662 661 699
f 700 699 702
f 699 700 662
f 660 1155 1208
f 1155 660 1176
f 1176 1175 1155
f 664 701 670
f 701 664 700
f 664 662 700
f 701 700 703
f 703 700 702
f 665 663 705
f 705 704 665
f 1182 706 705
f 704 705 706
f 706 660 704
f 674 671 711
f 701 671 670
f 701 711 671
f 703 707 711
f 711 701 703
f 712 711 707
f 710 705 663
f 667 710 663
f 668 666 708
f 708 667 668
f 708 709 667
f 709 710 667
f 710 1182 705
f 674 675 673
f 712 718 675
f 675 674 712
f 711 712 674
f 712 719 718
f 714 708 666
f 713 714 666
f 713 672 715
f 715 714 713
f 716 717 714
f 714 715 716
f 708 714 1190
f 717 1190 714
f 680 681 718
f 675 718 681
f 672 678 720
f 720 715 672
f 721 720 678
f 678 676 722
f 722 721 678
f 723 724 721
f 721 722 723
f 725 716 715
f 715 720 725
f 724 725 720
f 720 721 724
f 726 686 728
f 686 685 728
f 685 680 718
f 718 728 685
f 719 727 728
f 728 718 719
f 727 741 726
f 726 728 727
f 676 684 730
f 730 722 676
f 729 730 684
f 730 729 731
f 732 682 733
f 733 734 732
f 729 732 734
f 734 731 729
f 735 736 734
f 734 733 735
f 736 737 731
f 731 734 736
f 738 723 722
f 722 730 738
f 738 731 737
f 731 738 730
f 739 690 740
f 740 742 739
f 726 740 687
f 690 687 740
f 726 741 740
f 742 740 741
f 743 733 682
f 733 743 751
f 743 744 745
f 745 751 743
f 746 748 688
f 748 746 747
f 744 688 748
f 748 745 744
f 749 750 748
f 748 747 749
f 745 748 750
f 751 735 733
f 751 745 750
f 695 694 752
f 694 739 752
f 752 739 742
f 741 753 742
f 759 752 742
f 746 754 755
f 755 747 746
f 756 692 1200
f 1200 757 756
f 754 756 757
f 757 755 754
f 757 758 755
f 758 747 755
f 695 762 697
f 762 695 759
f 695 752 759
f 759 742 753
f 692 696 1204
f 1204 1200 692
f 761 760 766
f 696 760 761
f 761 1204 696
f 698 697 762
f 753 595 759
f 760 763 766
f 764 766 763
f 765 764 763
f 1209 765 763
f 132 765 1209
f 1209 131 132
f 767 133 1164
f 767 707 702
f 702 707 703
f 769 707 768
f 719 712 769
f 712 707 769
f 769 768 1167
f 1167 1112 769
f 741 727 770
f 727 719 769
f 769 770 727
f 770 769 1112
f 770 772 741
f 772 770 771
f 741 772 753
f 771 1169 772
f 595 753 772
f 1029 974 780
f 935 974 1029
f 1009 773 1007
f 773 1009 935
f 1032 979 1150
f 990 1045 937
f 1045 990 1047
f 1056 775 937
f 775 1056 1055
f 1061 994 1062
f 1062 938 776
f 938 1062 994
f 994 1061 939
f 1064 941 778
f 1003 944 1221
f 782 783 781
f 781 783 930
f 784 788 834
f 834 785 784
f 785 834 787
f 787 786 785
f 788 789 834
f 786 790 930
f 786 787 790
f 781 930 790
f 792 791 793
f 839 793 838
f 791 838 793
f 789 788 794
f 795 794 788
f 793 839 794
f 794 795 793
f 788 784 795
f 792 793 795
f 798 799 791
f 791 792 798
f 799 844 838
f 791 799 838
f 799 798 796
f 797 799 796
f 797 845 846
f 844 799 797
f 797 846 844
f 800 801 802
f 802 803 800
f 803 802 804
f 804 805 803
f 801 848 849
f 849 802 801
f 802 849 850
f 850 804 802
f 845 797 806
f 845 806 804
f 804 850 845
f 805 806 796
f 805 804 806
f 797 796 806
f 807 808 809
f 809 810 807
f 810 809 811
f 811 812 810
f 808 813 814
f 814 809 808
f 809 814 853
f 853 811 809
f 848 801 816
f 816 854 848
f 854 816 811
f 811 853 854
f 801 800 815
f 815 816 801
f 816 815 812
f 812 811 816
f 817 819 821
f 821 818 817
f 820 821 819
f 821 820 822
f 813 808 823
f 821 822 823
f 808 807 824
f 824 818 808
f 818 823 808
f 818 821 823
f 826 1000 825
f 825 832 827
f 827 826 825
f 832 857 858
f 858 827 832
f 820 819 827
f 827 858 820
f 1000 826 828
f 819 817 828
f 819 828 826
f 826 827 819
f 829 1211 831
f 831 830 829
f 1211 1212 859
f 859 831 1211
f 832 859 857
f 859 832 831
f 832 825 830
f 830 831 832
f 861 1220 1021
f 228 780 1220
f 1220 861 228
f 781 837 782
f 837 871 863
f 863 782 837
f 863 833 782
f 789 835 836
f 836 834 789
f 836 787 834
f 871 837 836
f 837 781 790
f 837 790 787
f 787 836 837
f 838 840 839
f 841 839 840
f 839 841 842
f 794 842 789
f 842 794 839
f 835 789 842
f 844 843 840
f 840 838 844
f 847 846 845
f 846 847 843
f 846 843 844
f 848 876 849
f 845 850 847
f 813 851 852
f 852 814 813
f 814 852 853
f 854 855 876
f 876 848 854
f 855 854 853
f 851 813 823
f 823 856 851
f 856 823 822
f 1212 1213 859
f 860 859 1213
f 883 857 860
f 859 860 857
f 862 227 861
f 227 228 861
f 866 833 863
f 868 836 835
f 835 867 868
f 836 868 871
f 870 871 868
f 869 868 867
f 869 870 868
f 864 865 870
f 870 869 864
f 865 866 870
f 866 863 871
f 871 870 866
f 840 872 841
f 867 841 872
f 872 873 867
f 842 841 835
f 867 835 841
f 873 872 874
f 872 840 843
f 843 874 872
f 875 847 879
f 873 874 875
f 847 875 874
f 874 843 847
f 878 849 876
f 849 878 879
f 879 850 849
f 891 878 877
f 891 879 878
f 876 877 878
f 879 889 875
f 879 891 889
f 879 847 850
f 892 852 851
f 852 892 880
f 855 880 877
f 877 876 855
f 853 852 855
f 852 880 855
f 820 881 822
f 882 822 881
f 822 882 897
f 892 851 856
f 856 897 892
f 897 856 822
f 883 858 857
f 858 883 881
f 899 881 883
f 881 820 858
f 860 1216 901
f 860 901 883
f 905 884 885
f 884 905 903
f 867 886 869
f 885 869 886
f 884 864 869
f 869 885 884
f 887 907 885
f 886 887 885
f 887 908 907
f 887 886 888
f 886 867 873
f 873 888 886
f 890 909 908
f 908 887 890
f 887 888 890
f 888 873 875
f 875 889 888
f 890 888 889
f 877 893 891
f 896 891 893
f 909 890 896
f 896 911 909
f 896 890 891
f 890 889 891
f 892 894 893
f 893 880 892
f 894 895 896
f 893 894 896
f 893 877 880
f 898 897 882
f 895 894 898
f 897 898 894
f 894 892 897
f 1218 898 900
f 898 882 900
f 882 881 899
f 899 900 882
f 1217 901 1216
f 901 1217 900
f 900 1217 1218
f 883 901 899
f 899 901 900
f 902 903 904
f 905 904 903
f 885 907 905
f 907 906 905
f 902 904 906
f 906 904 905
f 908 1083 1080
f 1080 907 908
f 906 907 1080
f 909 910 1083
f 1083 908 909
f 910 909 911
f 911 896 895
f 911 912 910
f 895 1088 912
f 912 911 895
f 895 898 1218
f 1218 1088 895
f 1218 607 1088
f 1089 946 1017
f 947 1071 948
f 1072 947 949
f 917 918 919
f 919 1014 917
f 920 1014 919
f 920 1137 921
f 924 923 922
f 924 1020 925
f 923 924 925
f 928 783 927
f 928 930 783
f 929 928 927
f 928 929 931
f 930 928 931
f 931 786 930
f 786 931 932
f 1008 933 932
f 933 784 785
f 785 932 933
f 932 785 786
f 626 1149 934
f 934 1256 626
f 934 1149 1148
f 926 1256 934
f 934 1148 926
f 1036 979 1032
f 936 984 1043
f 984 982 1042
f 1042 1043 984
f 1043 774 936
f 1035 1042 982
f 1048 936 774
f 996 940 939
f 994 939 940
f 941 999 778
f 998 778 999
f 996 777 998
f 1006 1002 942
f 943 942 1002
f 942 779 1006
f 941 1064 943
f 1064 942 943
f 382 1003 1221
f 944 1006 779
f 1003 1006 944
f 1089 1081 946
f 946 1081 1071
f 1081 948 1071
f 948 949 947
f 949 950 1072
f 950 952 951
f 951 1072 950
f 913 951 1085
f 951 952 1085
f 913 953 914
f 953 913 1085
f 914 955 954
f 953 955 914
f 915 954 955
f 916 954 915
f 955 956 915
f 321 958 323
f 957 322 323
f 957 323 958
f 960 1258 959
f 959 623 960
f 960 957 958
f 958 1183 960
f 1259 961 1257
f 634 1257 961
f 1258 962 961
f 962 963 961
f 965 963 962
f 963 965 964
f 964 961 963
f 966 965 1191
f 965 966 964
f 643 634 964
f 643 964 966
f 966 968 643
f 967 1196 968
f 968 966 967
f 644 643 968
f 1196 1198 968
f 969 968 1198
f 968 970 644
f 969 1199 970
f 971 970 1199
f 970 968 969
f 971 972 970
f 654 970 972
f 973 972 1201
f 972 973 654
f 1201 1205 973
f 1205 1219 973
f 974 977 975
f 977 974 935
f 975 1142 976
f 976 974 975
f 976 1220 974
f 1220 780 974
f 1009 977 935
f 1150 979 981
f 981 978 1150
f 795 784 978
f 792 795 978
f 978 980 792
f 980 978 981
f 982 979 1035
f 979 982 983
f 983 981 979
f 1036 1035 979
f 798 792 980
f 980 987 798
f 987 980 981
f 981 983 987
f 984 936 985
f 982 984 985
f 985 983 982
f 796 798 987
f 987 986 796
f 986 987 983
f 983 985 986
f 936 1048 988
f 1048 1047 989
f 989 988 1048
f 988 985 936
f 990 989 1047
f 803 805 991
f 800 803 990
f 990 937 800
f 803 991 989
f 989 990 803
f 805 796 986
f 986 991 805
f 991 986 985
f 985 988 991
f 988 989 991
f 775 1055 992
f 776 993 1053
f 1055 1053 993
f 993 992 1055
f 807 810 993
f 993 776 807
f 810 812 992
f 992 993 810
f 815 800 937
f 937 775 815
f 812 815 775
f 775 992 812
f 938 994 995
f 940 995 994
f 817 818 995
f 995 997 817
f 940 996 997
f 995 940 997
f 824 807 776
f 776 938 824
f 824 995 818
f 995 824 938
f 1000 941 825
f 941 1000 999
f 1000 1001 998
f 998 999 1000
f 828 817 997
f 997 1001 828
f 1001 997 996
f 996 998 1001
f 1000 828 1001
f 829 830 943
f 943 1002 829
f 830 825 941
f 941 943 830
f 1003 382 1004
f 1005 829 1002
f 1002 1006 1005
f 1004 1005 1006
f 1006 1003 1004
f 945 1147 1151
f 1151 1007 945
f 1008 1009 1007
f 1007 1152 1008
f 1007 1151 1152
f 1019 976 1142
f 1019 1020 1010
f 1010 1011 1019
f 1011 976 1019
f 925 1012 923
f 925 1153 783
f 1012 925 783
f 783 782 1012
f 921 922 1015
f 923 1015 922
f 1015 923 1012
f 782 833 1012
f 1012 833 1015
f 917 1014 1013
f 920 921 1015
f 1014 920 1015
f 833 866 1015
f 1014 1015 866
f 865 864 1013
f 866 865 1013
f 1013 1014 866
f 903 1016 884
f 1161 884 1016
f 917 1013 884
f 884 1161 917
f 1013 864 884
f 902 1159 1160
f 1160 903 902
f 903 1160 1016
f 1017 1070 1018
f 1018 1089 1017
f 1142 927 1019
f 1153 1019 927
f 1021 1011 1010
f 1010 1023 1021
f 1020 1022 1010
f 1023 1010 1022
f 1025 1021 1026
f 1023 1026 1021
f 1022 1139 1023
f 1026 1023 1139
f 1139 1137 1026
f 862 861 1024
f 1025 1024 861
f 1025 1249 1024
f 861 1021 1025
f 1137 1138 1026
f 1025 1026 1138
f 1249 1025 1138
f 407 1027 1029
f 1027 407 1028
f 773 1030 1007
f 1030 773 1031
f 773 935 1029
f 773 1029 1027
f 1027 1031 773
f 1031 1028 405
f 1031 1027 1028
f 1031 1149 1030
f 1036 1032 1033
f 1032 1150 1068
f 1032 1068 1069
f 1069 1033 1032
f 626 627 1034
f 1033 1069 1034
f 1039 1034 627
f 1034 1039 1033
f 1035 1036 1038
f 1038 1037 1035
f 1033 1038 1036
f 627 629 1039
f 629 631 1040
f 1040 1039 629
f 1038 1033 1039
f 1039 1040 1038
f 1041 1040 631
f 1040 1041 1037
f 1037 1038 1040
f 1043 1044 774
f 1043 1042 1037
f 1042 1035 1037
f 631 633 1041
f 633 636 1049
f 1049 1041 633
f 1041 1049 1044
f 1044 1043 1041
f 1043 1037 1041
f 1045 1046 937
f 1048 774 1044
f 636 637 1050
f 1050 1049 636
f 1048 1044 1049
f 1049 1050 1047
f 1047 1048 1049
f 1052 639 1051
f 1052 1051 1046
f 1046 1045 1052
f 1052 1050 637
f 1050 1052 1045
f 1045 1047 1050
f 1053 1054 776
f 1056 937 1046
f 639 641 1057
f 1057 1051 639
f 641 642 1058
f 1058 1057 641
f 1051 1057 1056
f 1056 1046 1051
f 1057 1058 1055
f 1055 1056 1057
f 1059 1060 642
f 1060 1059 1054
f 1054 1053 1060
f 1060 1058 642
f 1058 1060 1053
f 1053 1055 1058
f 939 1063 996
f 1062 776 1054
f 1059 646 1062
f 1061 1062 646
f 1062 1054 1059
f 648 651 1063
f 1063 939 648
f 648 1061 646
f 1061 648 939
f 778 998 777
f 777 996 1063
f 1066 1063 651
f 1063 1066 777
f 1065 1066 652
f 1066 1065 1064
f 1064 778 1066
f 651 652 1066
f 778 777 1066
f 652 653 1065
f 942 1064 1065
f 653 657 1067
f 779 942 1067
f 1067 1065 653
f 1065 1067 942
f 1147 1069 1068
f 1149 626 1034
f 1034 1154 1149
f 1154 1034 1069
f 1069 1147 1154
f 1070 1017 533
f 946 1071 1073
f 1073 1017 946
f 528 1017 1073
f 1073 1071 1074
f 947 1332 1074
f 1074 1071 947
f 1072 1332 947
f 1072 1076 1332
f 951 1075 1076
f 1076 1072 951
f 913 1077 1075
f 1075 951 913
f 913 914 1077
f 1078 914 954
f 1079 954 916
f 954 1079 1078
f 902 906 1080
f 902 1080 1089
f 1089 1082 1081
f 948 1081 1082
f 1082 1089 1080
f 949 948 1082
f 1080 1083 1082
f 950 949 1082
f 1082 1084 950
f 1083 910 1084
f 1083 1084 1082
f 1084 1086 952
f 952 950 1084
f 912 1084 910
f 1084 912 1086
f 1085 952 1086
f 1086 953 1085
f 1088 1086 912
f 1086 1088 953
f 955 953 1087
f 1087 953 1088
f 956 955 1087
f 1088 607 608
f 1088 608 1087
f 902 1089 1159
f 286 915 956
f 915 286 916
f 1166 1090 1091
f 1166 1091 1092
f 1165 1094 1093
f 1094 1165 1166
f 1166 1092 1094
f 1165 1093 1095
f 1165 1095 1096
f 1103 1098 1097
f 1098 1103 1165
f 1165 1096 1098
f 1103 1097 1099
f 1103 1099 1100
f 1103 1102 1101
f 1103 1100 1102
f 1103 1101 1104
f 1104 1167 1103
f 1167 1104 1105
f 1167 1107 1106
f 1167 1105 1107
f 1167 1106 1108
f 1167 1108 1109
f 1109 1112 1167
f 1112 1111 1110
f 1112 1109 1111
f 1112 1110 1113
f 1112 1113 1114
f 1121 1116 1115
f 1116 1121 1112
f 1112 1114 1116
f 1121 1115 1117
f 1121 1117 1118
f 1121 1120 1119
f 1121 1118 1120
f 1121 1119 1122
f 1122 1168 1121
f 1168 1122 1123
f 1124 1169 1168
f 1168 1125 1124
f 1168 1123 1125
f 1169 1124 1126
f 1169 1126 1127
f 1169 1129 1128
f 1169 1127 1129
f 1169 1128 1130
f 1169 1130 1131
f 1132 1170 1169
f 1169 1133 1132
f 1169 1131 1133
f 1170 1132 1134
f 1170 1134 1135
f 503 494 1170
f 1170 1136 503
f 1170 1135 1136
f 1137 920 1138
f 919 918 1251
f 1251 1138 919
f 920 919 1138
f 1138 1251 1249
f 1139 924 922
f 921 1139 922
f 1137 1139 921
f 924 1139 1022
f 1022 1020 924
f 931 929 1141
f 1141 1145 931
f 927 1142 929
f 1142 1141 929
f 1143 1142 975
f 1142 1143 1141
f 1008 932 1144
f 932 931 1145
f 1145 1144 932
f 975 977 1146
f 1146 1143 975
f 1143 1146 1145
f 1145 1141 1143
f 1144 1145 1146
f 1009 1146 977
f 1146 1009 1008
f 1008 1144 1146
f 1151 1147 1068
f 1148 1140 926
f 1031 405 1148
f 1148 1149 1031
f 609 1148 405
f 1148 609 1140
f 1152 933 1008
f 1152 1151 978
f 1068 1150 1151
f 1150 978 1151
f 978 784 933
f 933 1152 978
f 925 1020 1153
f 1020 1019 1153
f 1153 927 783
f 1007 1030 945
f 1149 1154 1030
f 1154 945 1030
f 1154 1147 945
f 926 512 322
f 926 624 1256
f 1156 1226 1155
f 1208 1171 1157
f 528 533 1017
f 533 528 527
f 533 1158 1070
f 532 1158 533
f 1158 532 531
f 1158 1018 1070
f 537 1018 531
f 1158 531 1018
f 1159 1089 1018
f 536 1160 1159
f 536 1159 1018
f 1018 537 536
f 1162 1016 1160
f 540 1160 536
f 1160 540 1162
f 1016 1162 1161
f 1163 1161 1162
f 1161 1163 1254
f 542 1166 1164
f 1165 1164 1166
f 767 1164 1165
f 707 767 1165
f 1165 1103 707
f 768 707 1103
f 1103 1167 768
f 1121 1168 771
f 771 770 1112
f 771 1112 1121
f 1169 771 1168
f 1171 1172 1383
f 1172 1171 1173
f 620 1383 551
f 1226 1156 1377
f 1171 1383 1157
f 1226 1173 1155
f 1206 1179 958
f 1179 1206 1174
f 1174 1180 1179
f 1175 1176 1174
f 1180 1174 1176
f 1183 958 1177
f 1179 1177 958
f 1177 1179 1180
f 1180 1178 1177
f 1181 1176 660
f 660 706 1181
f 1176 1181 1180
f 1178 1180 1181
f 1182 1181 706
f 1181 1182 1178
f 962 1183 1184
f 1177 1184 1183
f 1185 1186 1184
f 1184 1177 1185
f 1178 1185 1177
f 1182 710 1187
f 1182 1187 1178
f 1185 1178 1187
f 709 708 1190
f 709 1190 1186
f 1186 1185 709
f 709 1187 710
f 1187 709 1185
f 1189 1193 962
f 1193 1189 1188
f 1186 1188 1189
f 1184 1189 962
f 1189 1184 1186
f 1190 717 1186
f 717 716 1188
f 1188 1186 717
f 1191 965 1192
f 1194 1197 1191
f 1192 1194 1191
f 965 962 1193
f 1193 1192 965
f 725 1188 716
f 1188 725 1193
f 725 724 1192
f 1192 1193 725
f 1194 723 1197
f 724 723 1194
f 1194 1192 724
f 967 966 1195
f 1196 967 736
f 967 1195 737
f 737 736 967
f 1191 1195 966
f 1195 1191 1197
f 1197 737 1195
f 723 738 1197
f 737 1197 738
f 736 735 1196
f 750 749 969
f 1198 750 969
f 735 751 1198
f 1198 1196 735
f 751 750 1198
f 758 757 971
f 1199 969 749
f 1199 758 971
f 749 747 1199
f 758 1199 747
f 1201 972 1202
f 1202 1203 1201
f 971 1202 972
f 1202 971 757
f 1200 1204 1202
f 1202 757 1200
f 761 766 1203
f 1204 761 1203
f 1203 1202 1204
f 1205 1227 1219
f 1205 1201 1203
f 1205 1203 766
f 766 764 1205
f 764 765 1227
f 1227 1205 764
f 958 321 1206
f 1207 1174 1206
f 1175 1207 1228
f 1207 1175 1174
f 1155 1171 1208
f 1155 1175 1156
f 1171 1155 1173
f 661 1208 1157
f 131 1209 594
f 593 594 1209
f 1209 698 593
f 698 1209 763
f 596 593 698
f 698 762 596
f 762 759 595
f 595 596 762
f 595 772 141
f 772 1169 1170
f 1170 141 772
f 598 599 1210
f 1004 598 1005
f 1210 1005 598
f 601 602 1212
f 1212 1210 601
f 599 601 1210
f 1212 1211 1210
f 1211 829 1005
f 1005 1210 1211
f 1213 1212 602
f 1214 1213 602
f 1214 1215 1216
f 1216 1213 1214
f 860 1213 1216
f 1215 606 1216
f 606 605 1217
f 1216 606 1217
f 1218 605 607
f 1217 605 1218
f 780 610 1029
f 1087 286 956
f 286 1087 608
f 1140 512 926
f 1220 976 1011
f 1011 1021 1220
f 29 611 1222
f 1222 657 29
f 611 149 1221
f 1221 1222 611
f 1222 1221 944
f 657 1222 1067
f 779 1067 1222
f 1222 944 779
f 1166 617 1223
f 1166 1223 1224
f 1166 1225 1090
f 1166 1224 1225
f 620 526 1157
f 1157 1383 620
f 1219 1227 622
f 621 622 1227
f 1227 765 132
f 132 621 1227
f 526 661 1157
f 1156 1175 1228
f 1230 1229 288
f 1230 1241 1229
f 1231 1241 1239
f 1241 1230 1239
f 1244 1238 1232
f 1232 1233 1234
f 1234 1244 1232
f 1244 1235 1238
f 1241 1237 1254
f 1254 1236 1241
f 1238 1230 288
f 1232 1238 403
f 288 403 1238
f 1235 1231 1239
f 1230 1238 1239
f 1235 1239 1238
f 1240 1229 1241
f 1236 1240 1241
f 1241 1231 1237
f 230 229 1242
f 1242 1233 230
f 1233 1242 1243
f 1243 1234 1233
f 1245 1242 227
f 1242 1245 1243
f 229 227 1242
f 1234 1243 1244
f 1250 1235 1244
f 227 862 1245
f 1248 1243 1245
f 1024 1245 862
f 1245 1024 1248
f 1250 1244 1243
f 1243 1248 1250
f 918 917 1253
f 1253 1246 918
f 1253 1374 1247
f 1253 1247 1246
f 1374 1250 1247
f 1249 1248 1024
f 1250 1248 1249
f 1249 1251 1247
f 1251 918 1246
f 1246 1247 1251
f 1249 1247 1250
f 917 1161 1252
f 1252 1253 917
f 1161 1254 1252
f 1252 1254 1237
f 1231 1374 1237
f 1253 1237 1374
f 1252 1237 1253
f 1255 625 1260
f 1255 1256 625
f 1256 628 626
f 628 1256 1255
f 1260 1257 1255
f 629 627 628
f 628 630 629
f 630 628 1255
f 1255 1257 630
f 959 961 1259
f 961 959 1258
f 1258 960 1183
f 1183 962 1258
f 624 960 623
f 960 624 957
f 959 1261 623
f 1257 1260 1372
f 1372 1371 1257
f 1261 1260 625
f 1372 1260 1261
f 623 1261 625
f 1259 1257 1371
f 959 1259 1371
f 1371 1261 959
f 1262 1263 1269
f 1263 1264 1269
f 1265 1266 1269
f 1264 1265 1269
f 449 448 1269
f 1266 1267 1269
f 1267 1268 1269
f 1270 1271 449
f 1268 1270 449
f 449 1269 1268
f 1271 1272 449
f 1272 1273 449
f 1274 1275 1281
f 1281 449 1274
f 1273 1274 449
f 1275 1276 1281
f 1276 1277 1281
f 1278 1279 1281
f 1277 1278 1281
f 1279 1280 1281
f 1280 1282 446
f 446 1281 1280
f 1283 1284 446
f 1282 1283 446
f 1284 1285 446
f 1285 1286 450
f 450 446 1285
f 1287 1288 450
f 1286 1287 450
f 1288 1289 450
f 1289 1290 450
f 1291 1292 1293
f 1293 450 1291
f 1290 1291 450
f 1292 1294 1293
f 1294 1295 1293
f 1296 1297 1293
f 1295 1296 1293
f 1297 1298 1293
f 1298 1299 1302
f 1302 1293 1298
f 1300 1301 1302
f 1299 1300 1302
f 1301 1303 1302
f 1303 1304 1302
f 1305 1306 1302
f 1304 1305 1302
f 1306 1307 1302
f 1307 1308 1079
f 1079 1302 1307
f 1309 1310 1079
f 1308 1309 1079
f 1311 1312 1269
f 1312 1313 1269
f 1314 1262 1269
f 1313 1314 1269
f 1315 1316 619
f 619 528 1315
f 1316 1317 619
f 1318 1311 1269
f 1269 619 1318
f 1317 1318 619
f 1319 1320 1073
f 1320 1321 1073
f 1322 1323 1073
f 1321 1322 1073
f 1323 1324 1073
f 1324 1325 1073
f 1326 1327 1073
f 1325 1326 1073
f 1328 1329 1074
f 1329 1330 1074
f 1331 1319 1073
f 1330 1331 1073
f 1073 1074 1330
f 1333 1334 1074
f 1074 1332 1333
f 1334 1335 1074
f 1336 1328 1074
f 1335 1336 1074
f 1337 1338 1332
f 1338 1339 1332
f 1340 1333 1332
f 1339 1340 1332
f 1341 1342 1076
f 1342 1343 1332
f 1332 1076 1342
f 1344 1337 1332
f 1343 1344 1332
f 1345 1346 1075
f 1346 1347 1076
f 1076 1075 1346
f 1348 1341 1076
f 1347 1348 1076
f 1349 1350 1077
f 1350 1351 1077
f 1352 1345 1075
f 1351 1352 1075
f 1075 1077 1351
f 914 1078 1077
f 1353 1354 1077
f 1077 1078 1353
f 1354 1355 1077
f 1356 1349 1077
f 1355 1356 1077
f 1357 1358 1078
f 1358 1359 1078
f 1360 1353 1078
f 1359 1360 1078
f 1361 1362 1079
f 1362 1363 1078
f 1078 1079 1362
f 1364 1357 1078
f 1363 1364 1078
f 1310 1365 1079
f 1365 1366 1079
f 1367 1361 1079
f 1366 1367 1079
f 1327 1368 1073
f 1368 1369 1073
f 1370 1315 528
f 1369 1370 528
f 528 1073 1369
f 1261 1371 1372
f 1373 1235 1250
f 1373 1231 1235
f 1373 1250 1374
f 1373 1374 1231
f 1377 525 1375
f 1391 1377 1375
f 1382 1388 1389
f 1173 1376 1172
f 1376 1173 1380
f 1389 1390 1382
f 1375 550 1386
f 525 550 1375
f 1391 1380 1377
f 1226 1377 1380
f 1173 1226 1380
f 1378 1385 1379
f 1378 1386 1385
f 1386 1378 1375
f 1375 1378 1391
f 1392 1378 1379
f 1376 1380 1392
f 1392 1379 1376
f 551 1382 549
f 1381 549 1382
f 551 1383 1384
f 1383 1172 1384
f 1384 1172 1388
f 1389 1388 1376
f 1172 1376 1388
f 1376 1379 1389
f 1379 1385 1389
f 1385 1386 1387
f 550 1387 1386
f 1381 1387 550
f 551 1384 1382
f 1384 1388 1382
f 1385 1390 1389
f 1385 1387 1390
f 1390 1387 1381
f 1381 1382 1390
f 1391 1392 1380
f 1391 1378 1392
