# USD → MuJoCo (world-space, simplified)
v -3.539993 7.712434 0.784682
v -3.537894 7.710340 0.796429
v -3.543937 7.715732 0.796429
v -3.531751 7.706659 0.796429
v -3.523786 7.705573 0.784608
v -3.526075 7.705227 0.796429
v -3.508530 7.709228 0.796429
v -3.502987 7.713150 0.789226
v -3.498038 7.718220 0.789372
v -3.493819 7.724415 0.789363
v -3.490448 7.731490 0.789424
v -3.487151 7.744072 0.787752
v -3.487659 7.764687 0.784582
v -3.487156 7.764256 0.796429
v -3.489564 7.772619 0.784585
v -3.489009 7.772302 0.796429
v -3.492010 7.779891 0.788638
v -3.495656 7.786499 0.789337
v -3.500206 7.792223 0.796429
v -3.505448 7.796776 0.796429
v -3.512550 7.799976 0.784501
v -3.511191 7.800037 0.796429
v -3.517418 7.801795 0.788636
v -3.527080 7.801782 0.787750
v -3.523488 7.802296 0.796429
v -3.534170 7.798982 0.784536
v -3.535614 7.798727 0.796429
v -3.529665 7.801223 0.796429
v -3.541153 7.794821 0.789302
v -3.546105 7.789740 0.789404
v -3.555162 7.772038 0.787751
v -3.550326 7.783545 0.789393
v -3.557238 7.747719 0.784580
v -3.557188 7.743910 0.796429
v -3.555900 7.736475 0.789217
v -3.553352 7.729352 0.788637
v -3.520456 7.705449 0.796429
v -3.514478 7.706731 0.796429
v -3.488040 7.739254 0.796429
v -3.486665 7.747474 0.796429
v -3.487156 7.764256 0.938922
v -3.517266 7.801890 0.938922
v -3.529665 7.801223 0.938922
v -3.557460 7.760452 0.789292
v -3.557772 7.752062 0.796429
v -3.549311 7.722294 0.867676
v -3.508530 7.709228 0.938922
v -3.523488 7.802296 0.938922
v -3.557479 7.760481 0.938922
v -3.557188 7.743910 0.867676
v -3.553487 7.729418 0.867676
v -3.555936 7.736493 0.867676
v -3.537894 7.710340 0.867676
v -3.543937 7.715732 0.867676
v -3.531751 7.706659 0.867676
v -3.535130 7.706312 0.879026
v -3.547743 7.717511 0.878917
v -3.526075 7.705227 0.867676
v -3.520456 7.705449 0.867676
v -3.521031 7.704364 0.881071
v -3.526875 7.703829 0.878952
v -3.514872 7.706585 0.885396
v -3.498037 7.718195 0.938922
v -3.557772 7.752062 0.867676
v -3.557820 7.742883 0.881071
v -3.554286 7.728020 0.878952
v -3.556736 7.735095 0.878952
v -3.628530 7.556990 0.929709
v -3.620288 7.551796 0.929933
v -3.632480 7.560906 0.948865
v -3.614306 7.550477 0.928182
v -3.519895 7.703974 0.893592
v -3.486380 7.755901 0.789421
v -3.553700 7.776479 0.796429
v -3.556103 7.768703 0.796429
v -3.558383 7.744275 0.893592
v -3.557772 7.752062 0.879666
v -3.642024 7.574555 0.929933
v -3.633944 7.564546 0.926911
v -3.637848 7.567431 0.929933
v -3.493814 7.724391 0.938922
v -3.546107 7.789761 0.938922
v -3.644429 7.581828 0.928334
v -3.644849 7.588291 0.929448
v -3.622916 7.552936 0.948925
v -3.609912 7.551573 0.950941
v -3.614684 7.550561 0.951257
v -3.514478 7.706731 0.938922
v -3.519945 7.704024 0.946875
v -3.509555 7.709307 0.950109
v -3.502996 7.713095 0.938922
v -3.500947 7.715069 0.947598
v -3.490483 7.731462 0.946135
v -3.488040 7.739254 0.938922
v -3.486689 7.747452 0.946061
v -3.489043 7.737302 0.951158
v -3.486372 7.755894 0.938922
v -3.486619 7.759415 0.947598
v -3.489014 7.772290 0.945929
v -3.491859 7.779797 0.938922
v -3.495634 7.786500 0.938922
v -3.500206 7.792223 0.938922
v -3.505422 7.796690 0.946281
v -3.511191 7.800037 0.938922
v -3.535614 7.798727 0.938922
v -3.541148 7.794860 0.938922
v -3.543195 7.792886 0.947599
v -3.550311 7.783566 0.945985
v -3.553700 7.776479 0.938922
v -3.556103 7.768703 0.938922
v -3.557011 7.764320 0.947411
v -3.558173 7.744889 0.940574
v -3.644502 7.582349 0.950890
v -3.644772 7.588300 0.949193
v -3.642020 7.574747 0.949133
v -3.543247 7.719899 0.783829
v -3.533005 7.734855 0.783741
v -3.530384 7.732579 0.783741
v -3.527512 7.730947 0.783741
v -3.524475 7.730021 0.783741
v -3.521364 7.729818 0.783741
v -3.515744 7.710439 0.783837
v -3.518275 7.730354 0.783741
v -3.515300 7.731603 0.783741
v -3.512533 7.733537 0.783741
v -3.510055 7.736086 0.783741
v -3.495240 7.729159 0.783839
v -3.507942 7.739184 0.783741
v -3.506257 7.742728 0.783741
v -3.505055 7.746616 0.783741
v -3.504368 7.750726 0.783741
v -3.489194 7.758470 0.783912
v -3.504222 7.754936 0.783741
v -3.504613 7.759116 0.783741
v -3.505540 7.763139 0.783741
v -3.506966 7.766888 0.783741
v -3.496382 7.765995 0.783739
v -3.508852 7.770239 0.783741
v -3.511139 7.773100 0.783741
v -3.499344 7.785474 0.783835
v -3.513760 7.775378 0.783741
v -3.516631 7.777007 0.783741
v -3.519669 7.777935 0.783741
v -3.522779 7.778137 0.783741
v -3.525382 7.799136 0.783868
v -3.525869 7.777600 0.783741
v -3.528842 7.776352 0.783741
v -3.531610 7.774418 0.783741
v -3.534089 7.771869 0.783741
v -3.536201 7.768772 0.783741
v -3.537887 7.765228 0.783741
v -3.548472 7.779251 0.783812
v -3.539087 7.761340 0.783741
v -3.539776 7.757230 0.783741
v -3.539921 7.753020 0.783741
v -3.539529 7.748839 0.783741
v -3.554383 7.749766 0.783837
v -3.538603 7.744815 0.783741
v -3.537178 7.741068 0.783741
v -3.535290 7.737716 0.783741
v -3.539381 7.715159 0.951610
v -3.527042 7.708592 0.951627
v -3.528085 7.711774 0.953828
v -3.538817 7.717594 0.953737
v -3.518306 7.709676 0.951600
v -3.517526 7.711783 0.953682
v -3.503958 7.716702 0.951622
v -3.504924 7.717924 0.953777
v -3.494252 7.730540 0.951615
v -3.492946 7.737758 0.953742
v -3.497250 7.727988 0.953708
v -3.489246 7.749422 0.951692
v -3.490602 7.752255 0.953742
v -3.487940 7.764266 0.951134
v -3.491992 7.772333 0.951694
v -3.494133 7.773103 0.954198
v -3.495676 7.785666 0.950933
v -3.500542 7.785713 0.952399
v -3.501572 7.792965 0.951010
v -3.509920 7.795159 0.951616
v -3.510020 7.793122 0.954174
v -3.524055 7.798505 0.951623
v -3.517624 7.795804 0.954142
v -3.533582 7.793986 0.952416
v -3.525948 7.796069 0.954151
v -3.532204 7.799956 0.951132
v -3.542288 7.788879 0.951615
v -3.543579 7.785466 0.953775
v -3.548767 7.777688 0.952247
v -3.553907 7.774750 0.951085
v -3.554846 7.755269 0.951615
v -3.553174 7.759690 0.953708
v -3.551651 7.770573 0.952122
v -3.556107 7.741666 0.951439
v -3.552891 7.743312 0.953854
v -3.553203 7.735521 0.951625
v -3.547178 7.727756 0.953668
v -3.550976 7.775772 0.999043
v -3.553436 7.736747 0.999037
v -3.541091 7.704749 0.888799
v -3.550154 7.713356 0.888758
v -3.541030 7.695984 0.897588
v -3.553614 7.707321 0.897424
v -3.531363 7.699555 0.888872
v -3.525814 7.698466 0.893221
v -3.532737 7.693575 0.897475
v -3.523917 7.699181 0.899806
v -3.523905 7.699266 0.947756
v -3.526245 7.699450 0.951435
v -3.547147 7.724045 0.951610
v -3.560693 7.738001 0.941686
v -3.560637 7.737771 0.948200
v -3.560719 7.737951 0.899398
v -3.561024 7.734832 0.893851
v -3.559133 7.730901 0.888799
v -3.556684 7.723826 0.888799
v -3.561977 7.722908 0.896901
v -3.551612 7.693954 0.905244
v -3.540353 7.682827 0.908745
v -3.534897 7.679973 0.919103
v -3.568438 7.724451 0.914605
v -3.570189 7.718925 0.911307
v -3.568834 7.713869 0.909076
v -3.564121 7.704181 0.908214
v -3.558077 7.682449 0.914879
v -3.548661 7.667441 0.919084
v -3.536558 7.679564 0.913686
v -3.545092 7.662140 0.926875
v -3.540442 7.670587 0.949512
v -3.572435 7.717149 0.949477
v -3.582937 7.699090 0.928013
v -3.580579 7.700741 0.922298
v -3.574798 7.701676 0.916627
v -3.579257 7.694449 0.920296
v -3.569322 7.695790 0.915046
v -3.567991 7.674711 0.920395
v -3.571409 7.650056 0.923501
v -3.547841 7.659823 0.923348
v -3.555522 7.654045 0.922815
v -3.553851 7.646819 0.928253
v -3.591169 7.682234 0.924693
v -3.585170 7.684501 0.922788
v -3.568995 7.663401 0.922355
v -3.562459 7.641646 0.923518
v -3.558413 7.641310 0.924706
v -3.537777 7.674933 0.946684
v -3.574870 7.713201 0.946688
v -3.593067 7.671448 0.923523
v -3.590500 7.592372 0.923519
v -3.597092 7.589866 0.923462
v -3.603430 7.604095 0.923430
v -3.624592 7.626230 0.928264
v -3.633006 7.609436 0.924640
v -3.611465 7.612486 0.923495
v -3.601638 7.565475 0.924716
v -3.606435 7.563993 0.923694
v -3.607381 7.568501 0.923544
v -3.621440 7.613989 0.923460
v -3.633415 7.602993 0.923547
v -3.621431 7.554297 0.926717
v -3.611044 7.557472 0.924690
v -3.609656 7.551848 0.927506
v -3.605826 7.555902 0.928419
v -3.605979 7.555641 0.946697
v -3.606064 7.555812 0.949500
v -3.611640 7.556832 0.951610
v -3.606669 7.556226 0.951167
v -3.627221 7.557802 0.951579
v -3.640775 7.586863 0.951610
v -3.638423 7.568868 0.951015
v -3.641576 7.592155 0.951436
v -3.642717 7.594210 0.949507
v -3.642865 7.594269 0.946698
v -3.642660 7.594633 0.928840
v -3.641897 7.593524 0.925777
v -3.640293 7.588621 0.924616
v -3.640260 7.575444 0.926416
v -3.601977 7.598069 0.923119
v -3.607071 7.605189 0.923090
v -3.601085 7.588030 0.913007
v -3.602718 7.579449 0.913963
v -3.623345 7.565725 0.917887
v -3.615114 7.563471 0.916940
v -3.635063 7.584123 0.916931
v -3.632481 7.576396 0.917426
v -3.630959 7.599453 0.915022
v -3.634274 7.592248 0.916118
v -3.619954 7.611475 0.923153
v -3.613445 7.610105 0.923095
v -3.514121 7.713290 0.959560
v -3.494594 7.734669 0.961360
v -3.491501 7.762622 0.954122
v -3.496056 7.776556 0.965358
v -3.542971 7.785024 0.959672
v -3.548225 7.776693 0.961246
v -3.551637 7.766752 0.959400
v -3.549802 7.734738 0.959404
v -3.594275 7.607231 0.990309
v -3.600978 7.608671 0.991877
v -3.592976 7.603798 0.991891
v -3.603607 7.611362 0.996520
v -3.585673 7.602714 0.990740
v -3.581220 7.602873 0.993809
v -3.520458 7.705854 0.971084
v -3.487531 7.755843 0.962926
v -3.497302 7.786745 0.966810
v -3.500522 7.790453 0.996572
v -3.516539 7.800181 0.964545
v -3.523442 7.800746 0.991379
v -3.526741 7.800478 0.963438
v -3.535162 7.797277 0.961886
v -3.552668 7.775746 0.959745
v -3.556566 7.757538 0.959105
v -3.556461 7.743269 0.969321
v -3.557029 7.745311 0.976393
v -3.613918 7.630783 0.990720
v -3.614368 7.638178 0.991721
v -3.604363 7.615695 0.990309
v -3.610153 7.620114 0.991879
v -3.535939 7.716197 0.958217
v -3.537503 7.712010 0.957753
v -3.521491 7.710153 0.957534
v -3.518555 7.707818 0.957779
v -3.507761 7.716568 0.959637
v -3.509308 7.711752 0.957140
v -3.500553 7.723450 0.958121
v -3.499292 7.718859 0.957825
v -3.496752 7.729539 0.959452
v -3.492880 7.728844 0.957941
v -3.492708 7.738025 0.958625
v -3.492130 7.766459 0.963765
v -3.488314 7.763958 0.963126
v -3.503576 7.793725 0.966280
v -3.515098 7.795108 0.964817
v -3.522801 7.796128 0.963213
v -3.531587 7.794068 0.962049
v -3.531916 7.796923 0.960603
v -3.538701 7.789404 0.960466
v -3.541586 7.788667 0.958191
v -3.548728 7.776989 0.957909
v -3.554946 7.768218 0.957757
v -3.553849 7.741910 0.957314
v -3.556855 7.743762 0.997341
v -3.554787 7.764817 0.998854
v -3.556229 7.760149 0.996500
v -3.551155 7.778451 0.997133
v -3.545294 7.788547 0.996183
v -3.539025 7.792428 0.999043
v -3.538907 7.794794 0.996456
v -3.525663 7.798212 0.999043
v -3.521022 7.800298 0.997134
v -3.507128 7.796099 0.996715
v -3.511342 7.796329 0.999045
v -3.497137 7.783411 0.999044
v -3.490516 7.766498 0.999043
v -3.489827 7.770065 0.996848
v -3.489395 7.746938 0.999043
v -3.496421 7.725694 0.999043
v -3.490200 7.735590 0.995879
v -3.495939 7.723410 0.996464
v -3.508418 7.713514 0.999059
v -3.509266 7.711124 0.997005
v -3.522126 7.705774 0.997682
v -3.526280 7.707743 0.999042
v -3.531521 7.713960 0.959407
v -3.523618 7.711861 0.959419
v -3.491778 7.744688 0.962055
v -3.490910 7.752407 0.961460
v -3.502659 7.786946 0.966402
v -3.552810 7.761045 0.958195
v -3.552976 7.748663 0.959403
v -3.543197 7.722985 0.959412
v -3.536219 7.709135 0.968929
v -3.538079 7.712240 0.961904
v -3.546383 7.717925 0.968914
v -3.549164 7.724852 0.961794
v -3.554074 7.731858 0.968789
v -3.552714 7.732450 0.960400
v -3.542717 7.791491 0.958598
v -3.492858 7.778984 0.965274
v -3.490105 7.771742 0.964304
v -3.487813 7.747696 0.961818
v -3.489192 7.739952 0.959181
v -3.503608 7.714408 0.963085
v -3.510935 7.709537 0.966093
v -3.527553 7.706151 0.968916
v -3.596313 7.605278 0.996487
v -3.599344 7.609787 0.998413
v -3.585599 7.602166 0.997698
v -3.509409 7.710572 0.990972
v -3.503726 7.714499 0.996317
v -3.488201 7.746091 0.996853
v -3.487879 7.760248 0.996329
v -3.494768 7.782534 0.996314
v -3.513409 7.799428 0.991607
v -3.529392 7.799603 0.996211
v -3.549422 7.782616 0.991379
v -3.554090 7.772118 0.991481
v -3.615353 7.636404 0.996847
v -3.612183 7.631369 0.998863
v -3.609957 7.619737 0.996525
v -3.526880 7.698804 0.979898
v -3.525107 7.698833 0.983899
v -3.521056 7.704699 0.991873
v -3.532184 7.698709 0.999043
v -3.559708 7.738065 0.981450
v -3.559130 7.736156 0.977209
v -3.556662 7.727997 0.975585
v -3.559025 7.719128 0.981722
v -3.548940 7.713667 0.975778
v -3.545145 7.700671 0.981889
v -3.535154 7.702803 0.975683
v -3.533666 7.684140 0.989407
v -3.609322 7.639610 0.999042
v -3.559304 7.735555 0.997775
v -3.559579 7.738204 0.993918
v -3.564136 7.727397 0.985123
v -3.564263 7.729874 0.986711
v -3.565070 7.717138 0.986291
v -3.558168 7.705235 0.985443
v -3.546414 7.691660 0.986229
v -3.534653 7.693669 0.983845
v -3.538193 7.679951 0.988456
v -3.532621 7.685619 0.996262
v -3.532047 7.689539 0.998286
v -3.570712 7.715905 0.998391
v -3.574756 7.711761 0.991723
v -3.571624 7.717221 0.996455
v -3.574007 7.701295 0.989240
v -3.566972 7.677131 0.989525
v -3.563320 7.695861 0.988099
v -3.548630 7.673785 0.989055
v -3.575928 7.609860 0.996521
v -3.611054 7.645333 0.998412
v -3.582187 7.686909 0.989784
v -3.554575 7.659096 0.989782
v -3.546252 7.664611 0.990277
v -3.578068 7.703080 0.990254
v -3.583907 7.609965 0.989784
v -3.544682 7.664515 0.991827
v -3.575933 7.609851 0.991906
v -3.611634 7.647231 0.996527
v -3.611045 7.647947 0.992072
v -3.609559 7.637853 0.989776
v -3.577785 7.610044 0.990333
v -3.577435 7.610140 0.998412
v -3.582238 7.610549 0.999043
v -3.610439 7.645540 0.990309
v -3.603798 7.596049 0.912838
v -3.608777 7.602940 0.912934
v -3.622798 7.567709 0.916838
v -3.614931 7.607490 0.912852
v -3.621183 7.608764 0.913202
v -3.604388 7.590075 0.913284
v -3.610068 7.600274 0.913348
v -3.604273 7.587285 0.914658
v -3.606034 7.594241 0.914546
v -3.609934 7.600296 0.914626
v -3.608188 7.575318 0.916223
v -3.605378 7.580993 0.915307
v -3.625825 7.572500 0.918297
v -3.620738 7.568523 0.918217
v -3.615653 7.567379 0.917870
v -3.632428 7.584346 0.916664
v -3.632164 7.584668 0.917870
v -3.629947 7.578166 0.918217
v -3.631839 7.590851 0.915913
v -3.629304 7.596809 0.914980
v -3.628976 7.597085 0.916223
v -3.631540 7.591152 0.917142
v -3.621051 7.604543 0.913339
v -3.615244 7.603884 0.914546
v -3.620784 7.604573 0.914658
v -3.521101 7.705752 0.951307
v -3.556816 7.758649 0.951167
v -3.495056 7.723278 0.950985
v -3.505591 7.712044 0.951133
v -3.486932 7.752304 0.950931
v -3.491534 7.777970 0.950747
v -3.513766 7.800598 0.950791
v -3.524708 7.801679 0.951071
v -3.546257 7.788865 0.951021
v -3.557882 7.742761 0.950439
v -3.524696 7.699114 0.950918
v -3.565758 7.727877 0.950913
v -3.601959 7.563933 0.950912
v -3.643464 7.581588 0.951310
v -3.642271 7.594033 0.950911
v -3.548411 7.726676 0.957251
v -3.555759 7.745684 0.957663
v -3.549530 7.781934 0.957798
v -3.488181 7.750535 0.960646
v -3.527099 7.708389 0.957857
v -3.548681 7.721886 0.784570
v -3.531357 7.707090 0.784602
v -3.510652 7.708605 0.784603
v -3.501231 7.715653 0.784431
v -3.491153 7.730707 0.784426
v -3.486980 7.750959 0.784431
v -3.497044 7.788335 0.784530
v -3.506019 7.796537 0.784602
v -3.523460 7.801367 0.784438
v -3.542912 7.792303 0.784431
v -3.551350 7.780327 0.784431
v -3.556252 7.765145 0.784431
v -3.554407 7.733265 0.784432
v -3.599571 7.590158 0.923163
v -3.614386 7.564154 0.923229
v -3.623236 7.566878 0.923408
v -3.634695 7.583315 0.923336
v -3.601092 7.582320 0.923199
v -3.604893 7.574908 0.923228
v -3.633039 7.596255 0.923398
v -3.615708 7.566965 0.916632
v -3.610886 7.570524 0.915783
v -3.605351 7.580720 0.914017
v -3.628835 7.575168 0.917083
v -3.615451 7.603871 0.913281
v -3.603455 7.564402 0.951435
v -3.609230 7.568085 0.923250
v -3.610085 7.567002 0.916110
v -3.626569 7.605742 0.914172
v -3.611541 7.570212 0.917142
v -3.625691 7.601791 0.914006
v -3.625376 7.601933 0.915307
v -3.626136 7.607495 0.923350
v -3.618334 7.590483 0.916348
v -3.627323 7.583020 0.917668
v -3.622271 7.600412 0.915493
v -3.628474 7.588970 0.917180
v -3.624519 7.592731 0.916464
v -3.605490 7.590170 0.914912
v -3.626456 7.576303 0.918323
v -3.622430 7.572504 0.918250
v -3.617092 7.600452 0.915232
v -3.609304 7.601686 0.914985
v -3.621737 7.582016 0.917211
v -3.615564 7.575942 0.917165
v -3.609016 7.576981 0.916329
v -3.607716 7.585230 0.915411
v -3.629741 7.595431 0.916730
v -3.632346 7.582348 0.918380
v -3.620526 7.606086 0.914562
v -3.630159 7.583567 0.917944
v -3.620546 7.594212 0.916017
v -3.624076 7.585773 0.917130
v -3.614165 7.584983 0.916479
v -3.609683 7.593663 0.915325
v -3.617440 7.569076 0.917932
v -3.617968 7.587362 0.916715
v -3.613594 7.598408 0.915405
f 2 3 1
f 1 495 4
f 4 2 1
f 495 5 6
f 6 4 495
f 37 6 5
f 5 496 38
f 38 37 5
f 7 38 496
f 8 7 496
f 11 12 39
f 40 39 12
f 73 40 12
f 73 13 14
f 13 15 16
f 16 14 13
f 17 16 15
f 16 17 100
f 18 500 19
f 18 19 102
f 18 100 17
f 500 501 20
f 20 19 500
f 501 21 22
f 22 20 501
f 20 102 19
f 23 22 21
f 23 24 25
f 48 42 23
f 23 25 48
f 22 23 42
f 28 25 24
f 24 26 27
f 27 28 24
f 28 48 25
f 29 27 26
f 32 31 74
f 75 74 31
f 44 75 31
f 44 33 45
f 34 45 33
f 35 34 33
f 35 36 51
f 494 1 3
f 3 46 494
f 46 51 36
f 36 494 46
f 3 2 53
f 53 54 3
f 4 53 2
f 53 4 55
f 6 55 4
f 38 7 47
f 9 91 8
f 91 47 7
f 7 8 91
f 73 14 41
f 100 99 16
f 99 41 14
f 14 16 99
f 48 28 43
f 27 43 28
f 45 34 50
f 51 52 35
f 52 50 34
f 34 35 52
f 46 3 54
f 102 101 18
f 100 18 101
f 43 27 105
f 27 29 106
f 106 105 27
f 30 106 29
f 75 44 49
f 44 45 64
f 64 49 44
f 50 64 45
f 53 55 56
f 56 57 54
f 54 53 56
f 55 6 58
f 6 37 59
f 59 58 6
f 60 61 58
f 58 59 60
f 61 56 55
f 55 58 61
f 37 38 62
f 62 59 37
f 47 62 38
f 62 60 59
f 91 9 63
f 9 10 81
f 81 63 9
f 11 81 10
f 106 30 82
f 74 108 32
f 108 82 30
f 30 32 108
f 65 77 64
f 64 50 65
f 49 64 77
f 66 67 52
f 52 51 66
f 67 65 50
f 50 52 67
f 46 54 57
f 57 66 51
f 51 46 57
f 79 260 68
f 69 68 260
f 71 69 260
f 62 72 60
f 47 88 62
f 88 89 72
f 72 62 88
f 39 40 95
f 73 95 40
f 77 65 76
f 83 277 78
f 277 79 80
f 80 78 277
f 68 80 79
f 80 68 70
f 70 68 85
f 68 69 85
f 71 85 69
f 71 262 86
f 86 87 71
f 85 71 87
f 81 11 93
f 11 39 94
f 94 93 11
f 95 94 39
f 95 73 97
f 41 97 73
f 104 103 20
f 20 22 104
f 102 20 103
f 42 104 22
f 78 113 83
f 84 83 113
f 88 47 90
f 89 88 90
f 91 63 92
f 92 90 47
f 47 91 92
f 93 476 81
f 476 92 63
f 63 81 476
f 95 96 94
f 93 94 96
f 97 41 98
f 95 97 98
f 99 100 479
f 99 98 41
f 179 177 101
f 101 102 179
f 177 479 100
f 100 101 177
f 103 104 480
f 103 179 102
f 481 480 42
f 42 48 481
f 104 42 480
f 43 105 186
f 186 481 48
f 48 43 186
f 106 82 107
f 107 186 105
f 105 106 107
f 108 74 109
f 108 109 190
f 108 107 82
f 74 75 110
f 110 109 74
f 49 110 75
f 110 49 111
f 111 190 109
f 109 110 111
f 49 77 112
f 77 76 112
f 483 111 112
f 49 112 111
f 113 114 84
f 113 78 115
f 78 80 270
f 270 115 78
f 70 270 80
f 117 118 116
f 118 119 116
f 119 120 122
f 122 116 119
f 120 121 122
f 121 123 122
f 123 124 122
f 124 125 122
f 125 126 127
f 127 122 125
f 126 128 127
f 128 129 127
f 127 137 132
f 129 130 127
f 130 131 137
f 137 127 130
f 131 133 137
f 133 134 137
f 140 132 137
f 134 135 137
f 135 136 137
f 136 138 137
f 138 139 140
f 140 137 138
f 139 141 140
f 141 142 140
f 142 143 145
f 145 140 142
f 143 144 145
f 144 146 152
f 152 145 144
f 146 147 152
f 147 148 152
f 148 149 152
f 149 150 152
f 150 151 152
f 151 153 157
f 157 152 151
f 153 154 157
f 154 155 157
f 155 156 157
f 156 158 116
f 116 157 156
f 158 159 116
f 159 160 116
f 160 117 116
f 163 164 161
f 161 162 163
f 474 165 162
f 165 166 163
f 163 162 165
f 474 477 167
f 167 165 474
f 168 166 165
f 165 167 168
f 477 476 167
f 476 96 169
f 169 167 476
f 170 171 169
f 171 168 167
f 167 169 171
f 172 169 96
f 173 170 172
f 169 172 170
f 172 174 175
f 292 173 172
f 172 175 292
f 176 292 175
f 175 177 178
f 177 179 178
f 178 176 175
f 180 178 179
f 179 480 180
f 178 180 181
f 480 481 182
f 182 180 480
f 185 183 182
f 183 181 180
f 180 182 183
f 481 186 184
f 184 182 481
f 184 185 182
f 187 184 186
f 186 482 187
f 184 187 188
f 482 190 189
f 189 187 482
f 193 189 190
f 187 189 188
f 190 475 191
f 191 193 190
f 193 191 192
f 475 194 191
f 195 192 191
f 196 191 194
f 196 197 195
f 195 191 196
f 164 197 210
f 210 161 164
f 196 210 197
f 358 357 364
f 357 355 364
f 348 198 364
f 57 56 200
f 200 201 57
f 204 200 56
f 200 204 202
f 202 203 201
f 201 200 202
f 56 61 204
f 61 60 205
f 205 204 61
f 205 206 204
f 206 202 204
f 60 72 207
f 207 205 60
f 72 89 208
f 208 207 72
f 162 209 474
f 161 266 162
f 209 162 266
f 161 210 269
f 269 210 196
f 194 269 196
f 483 112 211
f 211 212 483
f 112 76 211
f 213 211 76
f 211 213 221
f 76 65 214
f 214 213 76
f 214 221 213
f 65 67 215
f 215 214 65
f 67 66 216
f 216 215 67
f 215 216 217
f 214 215 217
f 66 57 201
f 201 216 66
f 203 217 216
f 216 201 203
f 203 202 218
f 219 218 202
f 219 225 218
f 202 206 219
f 206 205 227
f 227 219 206
f 205 207 220
f 220 227 205
f 208 220 207
f 246 220 208
f 211 230 212
f 230 211 247
f 221 247 211
f 221 214 222
f 214 217 223
f 223 222 214
f 224 223 217
f 223 224 235
f 217 203 224
f 218 224 203
f 224 218 225
f 225 219 226
f 226 236 225
f 227 226 219
f 226 227 238
f 228 238 227
f 227 220 228
f 246 228 220
f 246 208 229
f 247 221 231
f 221 222 232
f 232 231 221
f 222 223 233
f 233 232 222
f 223 235 233
f 232 233 234
f 225 235 224
f 235 225 236
f 236 234 233
f 233 235 236
f 236 226 243
f 239 237 243
f 239 243 226
f 238 239 226
f 246 240 228
f 238 228 240
f 266 161 269
f 231 232 241
f 232 234 242
f 242 241 232
f 234 236 243
f 243 242 234
f 237 242 243
f 244 237 239
f 239 238 245
f 245 244 239
f 240 245 238
f 241 242 248
f 237 248 242
f 269 194 271
f 247 272 230
f 244 249 237
f 240 246 263
f 245 240 263
f 266 519 209
f 272 247 273
f 231 273 247
f 252 273 231
f 241 252 231
f 249 254 237
f 254 248 237
f 250 251 249
f 255 249 244
f 244 245 255
f 263 255 245
f 263 246 264
f 229 264 246
f 264 229 265
f 252 241 253
f 248 253 241
f 258 259 248
f 248 254 258
f 253 248 259
f 254 249 251
f 255 256 249
f 256 257 250
f 250 249 256
f 268 266 269
f 274 273 252
f 253 274 252
f 259 258 526
f 260 79 509
f 509 261 260
f 256 255 262
f 262 261 256
f 261 262 71
f 260 261 71
f 263 262 255
f 86 262 263
f 263 264 86
f 264 265 86
f 266 267 519
f 87 86 266
f 266 268 87
f 267 266 86
f 487 270 268
f 268 269 487
f 269 271 487
f 84 114 273
f 272 273 114
f 274 275 84
f 273 274 84
f 276 510 277
f 277 83 276
f 83 84 275
f 275 276 83
f 510 509 79
f 79 277 510
f 278 507 280
f 280 449 278
f 449 450 279
f 279 278 449
f 507 511 281
f 281 280 507
f 511 512 281
f 282 283 508
f 508 509 282
f 509 510 285
f 285 510 284
f 285 282 509
f 287 284 510
f 450 452 289
f 289 279 450
f 452 453 288
f 288 289 452
f 320 372 164
f 164 163 365
f 365 320 164
f 366 365 163
f 163 166 366
f 290 366 166
f 166 168 324
f 324 290 166
f 326 324 168
f 168 171 328
f 328 326 168
f 171 170 291
f 291 328 171
f 367 291 170
f 170 173 367
f 368 367 173
f 292 368 173
f 368 292 331
f 176 331 292
f 176 178 369
f 369 293 176
f 181 369 178
f 334 369 181
f 335 334 183
f 183 185 335
f 181 183 334
f 185 184 336
f 336 335 185
f 184 188 338
f 338 336 184
f 294 338 188
f 295 294 188
f 188 189 295
f 189 193 296
f 296 295 189
f 193 192 370
f 370 296 193
f 192 195 371
f 371 370 192
f 297 371 195
f 195 197 297
f 372 297 197
f 197 164 372
f 318 298 299
f 300 299 298
f 300 387 299
f 387 301 299
f 302 300 298
f 303 389 302
f 300 302 389
f 304 385 390
f 390 404 304
f 327 391 384
f 391 390 385
f 385 384 391
f 327 329 360
f 359 360 329
f 329 383 359
f 382 359 383
f 307 333 352
f 395 352 333
f 308 310 309
f 396 309 310
f 311 396 310
f 311 379 349
f 347 349 379
f 341 313 345
f 315 345 313
f 316 399 317
f 316 318 319
f 299 319 318
f 319 299 301
f 320 489 372
f 489 320 321
f 365 366 322
f 322 320 365
f 323 493 322
f 493 321 320
f 320 322 493
f 366 290 322
f 325 322 290
f 325 323 322
f 290 324 325
f 326 325 324
f 325 326 327
f 330 326 328
f 326 330 329
f 329 327 326
f 492 383 330
f 330 368 492
f 383 329 330
f 332 492 368
f 368 331 332
f 380 381 331
f 331 293 380
f 381 332 331
f 333 380 293
f 293 369 333
f 334 333 369
f 335 336 337
f 336 338 339
f 339 337 336
f 338 294 339
f 337 339 379
f 340 339 294
f 341 491 340
f 491 379 339
f 339 340 491
f 340 296 370
f 340 370 341
f 370 371 342
f 490 341 370
f 370 342 490
f 371 297 342
f 489 342 297
f 297 372 489
f 199 364 344
f 364 198 344
f 345 343 199
f 199 344 345
f 346 344 198
f 347 346 198
f 198 348 347
f 349 347 348
f 348 364 350
f 351 396 350
f 396 349 348
f 348 350 396
f 353 350 364
f 352 351 353
f 350 353 351
f 354 353 364
f 307 352 353
f 353 354 307
f 394 307 354
f 355 354 364
f 356 394 354
f 354 355 356
f 392 393 357
f 393 356 355
f 355 357 393
f 359 392 357
f 357 358 359
f 360 359 358
f 361 358 364
f 362 391 361
f 391 360 358
f 358 361 391
f 363 362 361
f 361 364 363
f 368 330 367
f 330 328 291
f 291 367 330
f 293 331 176
f 294 295 340
f 296 340 295
f 373 375 374
f 376 374 375
f 375 377 376
f 376 321 374
f 378 376 377
f 314 378 377
f 378 314 490
f 314 315 313
f 313 490 314
f 312 397 491
f 397 347 379
f 379 491 397
f 333 308 395
f 333 307 306
f 380 333 306
f 325 327 384
f 384 385 325
f 385 304 323
f 323 325 385
f 304 386 493
f 493 323 304
f 386 373 374
f 374 493 386
f 493 374 321
f 388 301 387
f 388 387 389
f 387 300 389
f 363 404 390
f 390 362 363
f 327 360 391
f 362 390 391
f 382 392 359
f 393 305 332
f 392 382 305
f 305 393 392
f 380 394 356
f 356 381 380
f 393 332 381
f 381 356 393
f 394 306 307
f 394 380 306
f 395 308 309
f 351 395 309
f 395 351 352
f 311 349 396
f 351 309 396
f 312 398 397
f 346 397 398
f 397 346 347
f 398 341 345
f 344 398 345
f 398 344 346
f 398 312 341
f 315 343 345
f 319 401 399
f 399 316 319
f 400 399 401
f 401 319 301
f 388 401 301
f 401 388 400
f 403 402 304
f 404 403 304
f 403 404 424
f 425 424 404
f 404 363 425
f 363 364 405
f 405 425 363
f 199 414 364
f 405 364 414
f 199 343 415
f 416 415 343
f 343 315 406
f 406 416 343
f 416 406 418
f 315 314 407
f 407 406 315
f 417 418 406
f 406 407 417
f 314 377 408
f 408 407 314
f 409 417 407
f 407 408 409
f 377 375 410
f 410 408 377
f 411 409 410
f 408 410 409
f 375 373 412
f 412 410 375
f 410 412 411
f 373 386 412
f 386 304 402
f 402 412 386
f 402 422 412
f 422 411 412
f 403 413 402
f 424 413 403
f 199 415 426
f 427 428 416
f 416 418 427
f 428 426 415
f 415 416 428
f 417 409 419
f 420 419 409
f 419 420 431
f 419 418 417
f 409 411 420
f 421 420 411
f 421 431 420
f 422 421 411
f 422 402 413
f 422 413 423
f 421 422 423
f 440 437 423
f 423 413 440
f 424 440 413
f 426 414 199
f 427 418 438
f 418 419 429
f 429 438 418
f 431 429 419
f 429 431 430
f 431 421 432
f 431 432 430
f 423 432 421
f 437 432 423
f 440 424 433
f 424 425 446
f 446 433 424
f 405 446 425
f 446 405 447
f 414 447 405
f 414 426 434
f 426 428 442
f 442 434 426
f 427 442 428
f 438 429 435
f 429 430 435
f 436 435 430
f 435 436 439
f 430 432 436
f 437 436 432
f 437 439 436
f 440 445 437
f 433 441 440
f 445 440 441
f 427 443 442
f 448 443 427
f 427 438 448
f 439 444 435
f 444 448 438
f 438 435 444
f 439 437 445
f 303 302 445
f 445 441 303
f 389 303 433
f 433 446 389
f 441 433 303
f 388 389 447
f 446 447 389
f 447 400 388
f 414 400 447
f 399 400 414
f 414 434 399
f 442 443 399
f 434 442 399
f 443 448 317
f 317 399 443
f 316 317 448
f 448 444 316
f 444 439 318
f 318 316 444
f 298 318 439
f 439 445 302
f 302 298 439
f 283 282 451
f 285 451 282
f 452 471 453
f 456 457 454
f 457 458 455
f 455 454 457
f 459 460 516
f 516 515 459
f 460 456 454
f 454 516 460
f 461 462 451
f 451 517 461
f 462 463 514
f 514 451 462
f 465 466 517
f 517 464 465
f 466 461 517
f 469 470 467
f 467 468 469
f 470 465 464
f 464 467 470
f 458 472 518
f 518 455 458
f 472 473 471
f 471 518 472
f 474 484 89
f 194 475 483
f 474 90 477
f 474 89 90
f 92 476 477
f 477 90 92
f 93 96 476
f 95 478 96
f 478 172 96
f 98 174 478
f 172 478 174
f 478 95 98
f 479 175 174
f 174 98 99
f 99 479 174
f 175 479 177
f 179 103 480
f 107 482 186
f 482 108 190
f 482 107 108
f 111 475 190
f 475 111 483
f 484 208 89
f 484 474 209
f 212 485 483
f 194 483 485
f 485 212 230
f 484 229 208
f 485 271 194
f 485 230 272
f 484 209 519
f 271 485 488
f 272 488 485
f 519 486 484
f 486 265 229
f 229 484 486
f 85 87 268
f 268 70 85
f 70 268 270
f 115 270 487
f 487 113 115
f 265 486 267
f 486 519 267
f 265 267 86
f 114 113 488
f 488 272 114
f 113 487 271
f 271 488 113
f 376 489 321
f 489 376 378
f 378 342 489
f 342 378 490
f 313 341 490
f 312 491 341
f 311 337 379
f 337 311 310
f 310 308 337
f 308 335 337
f 308 334 335
f 334 308 333
f 305 492 332
f 492 305 382
f 492 382 383
f 116 1 494
f 116 495 1
f 495 116 122
f 122 5 495
f 122 496 5
f 497 8 496
f 122 497 496
f 497 122 127
f 497 9 8
f 9 497 498
f 498 10 9
f 127 498 497
f 498 11 10
f 498 12 11
f 132 499 498
f 498 127 132
f 12 498 499
f 499 73 12
f 132 13 499
f 73 499 13
f 132 15 13
f 140 500 15
f 15 132 140
f 500 17 15
f 500 18 17
f 140 501 500
f 145 21 501
f 501 140 145
f 145 502 21
f 502 24 23
f 23 21 502
f 24 502 26
f 145 26 502
f 503 29 26
f 145 503 26
f 503 145 152
f 503 30 29
f 30 503 504
f 504 32 30
f 152 504 503
f 504 31 32
f 31 504 505
f 152 505 504
f 505 152 157
f 505 44 31
f 44 505 33
f 157 33 505
f 506 35 33
f 157 506 33
f 506 157 116
f 506 36 35
f 36 506 494
f 116 494 506
f 251 278 279
f 250 507 278
f 278 251 250
f 288 258 254
f 254 289 288
f 251 279 289
f 289 254 251
f 508 261 509
f 250 511 507
f 257 512 511
f 511 250 257
f 513 287 510
f 513 286 287
f 454 449 280
f 455 450 449
f 449 454 455
f 283 514 515
f 515 521 283
f 516 281 521
f 521 515 516
f 514 283 451
f 284 464 517
f 517 285 284
f 517 451 285
f 468 286 524
f 450 455 518
f 518 452 450
f 452 518 471
f 261 257 256
f 253 275 274
f 526 513 259
f 513 510 276
f 276 259 513
f 275 253 259
f 259 276 275
f 512 520 521
f 521 281 512
f 508 521 520
f 521 508 283
f 522 288 453
f 471 524 522
f 522 453 471
f 286 522 524
f 463 523 515
f 515 514 463
f 523 459 515
f 473 525 524
f 524 471 473
f 525 469 468
f 468 524 525
f 520 512 257
f 257 261 508
f 508 520 257
f 288 526 258
f 288 522 526
f 522 286 513
f 513 526 522
f 280 281 516
f 516 454 280
f 284 287 467
f 467 464 284
f 287 286 468
f 468 467 287
f 535 529 543
f 547 539 538
f 527 546 545
f 528 533 542
f 542 544 528
f 531 546 530
f 535 543 536
f 531 541 529
f 535 545 529
f 531 529 545
f 544 530 528
f 530 546 528
f 537 534 533
f 536 548 551
f 527 545 551
f 537 533 528
f 537 528 546
f 527 537 546
f 551 545 535
f 536 551 535
f 540 539 547
f 527 551 548
f 547 537 527
f 547 527 548
f 537 547 538
f 538 549 534
f 534 537 538
f 536 532 548
f 532 540 548
f 548 540 547
f 530 544 542
f 530 542 541
f 541 543 529
f 549 538 539
f 534 549 550
f 530 541 531
f 545 546 531
f 543 541 550
f 549 539 550
f 539 540 550
f 550 536 543
f 550 541 542
f 533 550 542
f 550 533 534
f 540 532 550
f 550 532 536
