# USD → MuJoCo (world-space)
v -0.169167 0.050000 2.525000
v -0.169167 -0.039286 -2.525000
v -0.169167 -0.039286 2.525000
v -0.169167 0.050000 -2.525000
v 0.169166 0.050000 -2.525000
v 0.169167 0.050000 2.525000
v 0.169167 -0.039286 2.525000
v 0.169166 -0.039286 -2.525000
vt -0.984252 94.488197
vt 0.000000 0.000000
vt 0.000000 94.488197
vt 0.000000 0.000000
vt -0.984252 94.488197
vt -0.984252 0.000000
vt -0.393701 94.488197
vt -23.228300 0.000000
vt -0.393701 0.000000
vt -23.228300 0.000000
vt -0.393701 94.488197
vt -23.228300 94.488197
vt 0.393701 0.984252
vt 23.228300 0.000000
vt 23.228300 0.984252
vt 23.228300 0.000000
vt 0.393701 0.984252
vt 0.393701 0.000000
vt -0.393701 0.000000
vt -23.228300 0.984252
vt -23.228300 0.000000
vt -23.228300 0.984252
vt -0.393701 0.000000
vt -0.393701 0.984252
vt 0.984252 0.000000
vt 0.000000 94.488197
vt 0.000000 0.000000
vt 0.000000 94.488197
vt 0.984252 0.000000
vt 0.984252 94.488197
f 1/1 2/2 3/3
f 2/4 1/5 4/6
f 1/7 5/8 4/9
f 5/10 1/11 6/12
f 1/13 7/14 6/15
f 7/16 1/17 3/18
f 2/19 5/20 8/21
f 5/22 2/23 4/24
f 5/25 7/26 8/27
f 7/28 5/29 6/30
