# USD → MuJoCo (world-space)
v -0.404777 -0.921561 -0.288063
v -0.392563 -0.917168 -0.288063
v -0.392563 -0.917168 -0.235604
v -0.404777 -0.921562 -0.235604
v -0.387505 -0.906562 -0.288063
v -0.387505 -0.906562 -0.235604
v -0.392563 -0.895955 -0.288063
v -0.392563 -0.895955 -0.235604
v -0.404777 -0.891561 -0.288063
v -0.404777 -0.891562 -0.235604
v -0.416989 -0.895955 -0.288063
v -0.416989 -0.895955 -0.235604
v -0.422048 -0.906561 -0.288063
v -0.422048 -0.906561 -0.235604
v -0.416989 -0.917168 -0.288063
v -0.416989 -0.917168 -0.235604
v -0.420617 -0.906561 -0.288809
v -0.415977 -0.896834 -0.288809
v -0.404777 -0.892805 -0.288809
v -0.393576 -0.896834 -0.288809
v -0.388936 -0.906562 -0.288809
v -0.393576 -0.916289 -0.288809
v -0.404777 -0.920318 -0.288809
v -0.415977 -0.916289 -0.288809
v -0.404774 0.884991 -0.288063
v -0.392561 0.889385 -0.288063
v -0.392561 0.889385 -0.235604
v -0.404774 0.884991 -0.235604
v -0.387503 0.899991 -0.288063
v -0.387503 0.899991 -0.235604
v -0.392561 0.910598 -0.288063
v -0.392561 0.910598 -0.235604
v -0.404774 0.914991 -0.288063
v -0.404774 0.914991 -0.235604
v -0.416987 0.910598 -0.288063
v -0.416987 0.910598 -0.235604
v -0.422046 0.899991 -0.288063
v -0.422046 0.899991 -0.235604
v -0.416987 0.889385 -0.288063
v -0.416987 0.889385 -0.235604
v -0.420614 0.899991 -0.288809
v -0.415975 0.909718 -0.288809
v -0.404774 0.913748 -0.288809
v -0.393573 0.909718 -0.288809
v -0.388934 0.899991 -0.288809
v -0.393573 0.890264 -0.288809
v -0.404774 0.886234 -0.288809
v -0.415975 0.890264 -0.288809
v -0.536264 0.954359 -0.238794
v -0.536264 0.845650 -0.238794
v -0.536264 0.845650 -0.219138
v -0.536264 0.954359 -0.219138
v -0.553532 0.954359 -0.238794
v -0.553532 0.845650 -0.238794
v -0.553532 0.845650 -0.219138
v -0.553532 0.954359 -0.219138
v -0.536266 -0.852203 -0.238794
v -0.536266 -0.960912 -0.238794
v -0.536266 -0.960912 -0.219138
v -0.536266 -0.852203 -0.219138
v -0.553534 -0.852203 -0.238794
v -0.553534 -0.960912 -0.238794
v -0.553534 -0.960912 -0.219138
v -0.553534 -0.852204 -0.219138
v 0.381486 -0.921562 -0.288063
v 0.381486 -0.921562 -0.235604
v 0.369272 -0.917169 -0.235604
v 0.369272 -0.917169 -0.288063
v 0.364214 -0.906562 -0.235604
v 0.364214 -0.906562 -0.288063
v 0.369272 -0.895956 -0.235604
v 0.369272 -0.895956 -0.288063
v 0.381486 -0.891562 -0.235604
v 0.381486 -0.891562 -0.288063
v 0.393699 -0.895956 -0.235604
v 0.393699 -0.895956 -0.288063
v 0.398758 -0.906562 -0.235604
v 0.398758 -0.906562 -0.288063
v 0.393699 -0.917169 -0.235604
v 0.393699 -0.917169 -0.288063
v 0.381486 -0.920319 -0.288809
v 0.370285 -0.916290 -0.288809
v 0.365645 -0.906562 -0.288809
v 0.370285 -0.896835 -0.288809
v 0.381486 -0.892806 -0.288809
v 0.392686 -0.896835 -0.288809
v 0.397326 -0.906562 -0.288809
v 0.392686 -0.916290 -0.288809
v 0.381488 0.884990 -0.288063
v 0.381488 0.884990 -0.235604
v 0.369276 0.889384 -0.235604
v 0.369276 0.889384 -0.288063
v 0.364216 0.899990 -0.235604
v 0.364216 0.899990 -0.288063
v 0.369276 0.910597 -0.235604
v 0.369276 0.910597 -0.288063
v 0.381488 0.914990 -0.235604
v 0.381488 0.914990 -0.288063
v 0.393702 0.910597 -0.235604
v 0.393702 0.910597 -0.288063
v 0.398760 0.899990 -0.235604
v 0.398760 0.899990 -0.288063
v 0.393702 0.889384 -0.235604
v 0.393702 0.889384 -0.288063
v 0.381488 0.886233 -0.288809
v 0.370288 0.890263 -0.288809
v 0.365647 0.899990 -0.288809
v 0.370288 0.909717 -0.288809
v 0.381488 0.913747 -0.288809
v 0.392688 0.909717 -0.288809
v 0.397328 0.899990 -0.288809
v 0.392688 0.890263 -0.288809
v 0.512978 0.954358 -0.238794
v 0.512978 0.954358 -0.219138
v 0.512977 0.845649 -0.219138
v 0.512977 0.845649 -0.238794
v 0.512976 -0.852205 -0.238794
v 0.512976 -0.852205 -0.219138
v 0.512974 -0.960913 -0.219138
v 0.512974 -0.960913 -0.238795
vt 0.750000 0.014005
vt 0.875000 0.014005
vt 0.875000 1.000000
vt 0.875000 1.000000
vt 0.750000 1.000000
vt 0.750000 0.014005
vt 0.875000 0.014005
vt 1.000000 0.014005
vt 1.000000 1.000000
vt 1.000000 1.000000
vt 0.875000 1.000000
vt 0.875000 0.014005
vt 0.000000 0.014005
vt 0.125000 0.014005
vt 0.125000 1.000000
vt 0.125000 1.000000
vt 0.000000 1.000000
vt 0.000000 0.014005
vt 0.125000 0.014005
vt 0.250000 0.014005
vt 0.250000 1.000000
vt 0.250000 1.000000
vt 0.125000 1.000000
vt 0.125000 0.014005
vt 0.250000 0.014005
vt 0.375000 0.014005
vt 0.375000 1.000000
vt 0.375000 1.000000
vt 0.250000 1.000000
vt 0.250000 0.014005
vt 0.375000 0.014005
vt 0.500000 0.014005
vt 0.500000 1.000000
vt 0.500000 1.000000
vt 0.375000 1.000000
vt 0.375000 0.014005
vt 0.500000 0.014005
vt 0.625000 0.014005
vt 0.625000 1.000000
vt 0.625000 1.000000
vt 0.500000 1.000000
vt 0.500000 0.014005
vt 0.625000 0.014005
vt 0.750000 0.014005
vt 0.750000 1.000000
vt 0.750000 1.000000
vt 0.625000 1.000000
vt 0.625000 0.014005
vt 0.958556 0.500000
vt 0.824248 0.175752
vt 0.500000 0.041444
vt 0.500000 0.041444
vt 0.175752 0.175752
vt 0.041444 0.500000
vt 0.041444 0.500000
vt 0.175752 0.824248
vt 0.500000 0.958556
vt 0.500000 0.041444
vt 0.041444 0.500000
vt 0.500000 0.958556
vt 0.958556 0.500000
vt 0.500000 0.041444
vt 0.500000 0.958556
vt 0.824248 0.824248
vt 0.958556 0.500000
vt 0.500000 0.958556
vt 0.146447 0.853553
vt 0.000000 0.500000
vt 0.146447 0.146447
vt 0.146447 0.146447
vt 0.500000 0.000000
vt 0.853554 0.146447
vt 0.853554 0.146447
vt 1.000000 0.500000
vt 0.853553 0.853553
vt 0.146447 0.146447
vt 0.853554 0.146447
vt 0.853553 0.853553
vt 0.146447 0.853553
vt 0.146447 0.146447
vt 0.853553 0.853553
vt 0.500000 1.000000
vt 0.146447 0.853553
vt 0.853553 0.853553
vt 0.750000 0.014005
vt 0.875000 0.014005
vt 0.875000 1.000000
vt 0.875000 1.000000
vt 0.750000 1.000000
vt 0.750000 0.014005
vt 0.875000 0.014005
vt 1.000000 0.014005
vt 1.000000 1.000000
vt 1.000000 1.000000
vt 0.875000 1.000000
vt 0.875000 0.014005
vt 0.000000 0.014005
vt 0.125000 0.014005
vt 0.125000 1.000000
vt 0.125000 1.000000
vt 0.000000 1.000000
vt 0.000000 0.014005
vt 0.125000 0.014005
vt 0.250000 0.014005
vt 0.250000 1.000000
vt 0.250000 1.000000
vt 0.125000 1.000000
vt 0.125000 0.014005
vt 0.250000 0.014005
vt 0.375000 0.014005
vt 0.375000 1.000000
vt 0.375000 1.000000
vt 0.250000 1.000000
vt 0.250000 0.014005
vt 0.375000 0.014005
vt 0.500000 0.014005
vt 0.500000 1.000000
vt 0.500000 1.000000
vt 0.375000 1.000000
vt 0.375000 0.014005
vt 0.500000 0.014005
vt 0.625000 0.014005
vt 0.625000 1.000000
vt 0.625000 1.000000
vt 0.500000 1.000000
vt 0.500000 0.014005
vt 0.625000 0.014005
vt 0.750000 0.014005
vt 0.750000 1.000000
vt 0.750000 1.000000
vt 0.625000 1.000000
vt 0.625000 0.014005
vt 0.958556 0.500000
vt 0.824248 0.175752
vt 0.500000 0.041444
vt 0.500000 0.041444
vt 0.175752 0.175752
vt 0.041444 0.500000
vt 0.041444 0.500000
vt 0.175752 0.824248
vt 0.500000 0.958555
vt 0.500000 0.041444
vt 0.041444 0.500000
vt 0.500000 0.958555
vt 0.958556 0.500000
vt 0.500000 0.041444
vt 0.500000 0.958555
vt 0.824248 0.824248
vt 0.958556 0.500000
vt 0.500000 0.958555
vt 0.146447 0.853553
vt 0.000000 0.500000
vt 0.146447 0.146447
vt 0.146447 0.146447
vt 0.500000 0.000000
vt 0.853554 0.146447
vt 0.853554 0.146447
vt 1.000000 0.500000
vt 0.853553 0.853553
vt 0.146447 0.146447
vt 0.853554 0.146447
vt 0.853553 0.853553
vt 0.146447 0.853553
vt 0.146447 0.146447
vt 0.853553 0.853553
vt 0.500000 1.000000
vt 0.146447 0.853553
vt 0.853553 0.853553
vt 0.375000 0.000000
vt 0.500000 0.000000
vt 0.500000 1.000000
vt 0.500000 1.000000
vt 0.375000 1.000000
vt 0.375000 0.000000
vt 0.500000 0.000000
vt 0.375000 0.000000
vt 0.375000 0.000000
vt 0.375000 0.000000
vt 0.500000 0.000000
vt 0.500000 0.000000
vt 0.500000 1.000000
vt 0.500000 0.000000
vt 0.500000 0.000000
vt 0.500000 0.000000
vt 0.500000 1.000000
vt 0.500000 1.000000
vt 0.375000 1.000000
vt 0.500000 1.000000
vt 0.500000 1.000000
vt 0.500000 1.000000
vt 0.375000 1.000000
vt 0.375000 1.000000
vt 0.375000 0.000000
vt 0.375000 1.000000
vt 0.375000 1.000000
vt 0.375000 1.000000
vt 0.375000 0.000000
vt 0.375000 0.000000
vt 0.375000 0.000000
vt 0.500000 0.000000
vt 0.500000 1.000000
vt 0.500000 1.000000
vt 0.375000 1.000000
vt 0.375000 0.000000
vt 0.500000 0.000000
vt 0.375000 0.000000
vt 0.375000 0.000000
vt 0.375000 0.000000
vt 0.500000 0.000000
vt 0.500000 0.000000
vt 0.500000 1.000000
vt 0.500000 0.000000
vt 0.500000 0.000000
vt 0.500000 0.000000
vt 0.500000 1.000000
vt 0.500000 1.000000
vt 0.375000 1.000000
vt 0.500000 1.000000
vt 0.500000 1.000000
vt 0.500000 1.000000
vt 0.375000 1.000000
vt 0.375000 1.000000
vt 0.375000 0.000000
vt 0.375000 1.000000
vt 0.375000 1.000000
vt 0.375000 1.000000
vt 0.375000 0.000000
vt 0.375000 0.000000
vt 0.750000 0.014005
vt 0.750000 1.000000
vt 0.875000 1.000000
vt 0.875000 1.000000
vt 0.875000 0.014005
vt 0.750000 0.014005
vt 0.875000 0.014005
vt 0.875000 1.000000
vt 1.000000 1.000000
vt 1.000000 1.000000
vt 1.000000 0.014005
vt 0.875000 0.014005
vt 0.000000 0.014005
vt 0.000000 1.000000
vt 0.125000 1.000000
vt 0.125000 1.000000
vt 0.125000 0.014005
vt 0.000000 0.014005
vt 0.125000 0.014005
vt 0.125000 1.000000
vt 0.250000 1.000000
vt 0.250000 1.000000
vt 0.250000 0.014005
vt 0.125000 0.014005
vt 0.250000 0.014005
vt 0.250000 1.000000
vt 0.375000 1.000000
vt 0.375000 1.000000
vt 0.375000 0.014005
vt 0.250000 0.014005
vt 0.375000 0.014005
vt 0.375000 1.000000
vt 0.500000 1.000000
vt 0.500000 1.000000
vt 0.500000 0.014005
vt 0.375000 0.014005
vt 0.500000 0.014005
vt 0.500000 1.000000
vt 0.625000 1.000000
vt 0.625000 1.000000
vt 0.625000 0.014005
vt 0.500000 0.014005
vt 0.625000 0.014005
vt 0.625000 1.000000
vt 0.750000 1.000000
vt 0.750000 1.000000
vt 0.750000 0.014005
vt 0.625000 0.014005
vt 0.500000 0.958556
vt 0.175752 0.824248
vt 0.041444 0.500000
vt 0.041444 0.500000
vt 0.175752 0.175752
vt 0.500000 0.041444
vt 0.500000 0.958556
vt 0.041444 0.500000
vt 0.500000 0.041444
vt 0.500000 0.041444
vt 0.824248 0.175752
vt 0.958556 0.500000
vt 0.500000 0.958556
vt 0.500000 0.041444
vt 0.958556 0.500000
vt 0.824248 0.824248
vt 0.500000 0.958556
vt 0.958556 0.500000
vt 0.853553 0.853553
vt 1.000000 0.500000
vt 0.853554 0.146447
vt 0.853554 0.146447
vt 0.500000 0.000000
vt 0.146447 0.146447
vt 0.853553 0.853553
vt 0.853554 0.146447
vt 0.146447 0.146447
vt 0.146447 0.146447
vt 0.000000 0.500000
vt 0.146447 0.853553
vt 0.853553 0.853553
vt 0.146447 0.146447
vt 0.146447 0.853553
vt 0.500000 1.000000
vt 0.853553 0.853553
vt 0.146447 0.853553
vt 0.750000 0.014005
vt 0.750000 1.000000
vt 0.875000 1.000000
vt 0.875000 1.000000
vt 0.875000 0.014005
vt 0.750000 0.014005
vt 0.875000 0.014005
vt 0.875000 1.000000
vt 1.000000 1.000000
vt 1.000000 1.000000
vt 1.000000 0.014005
vt 0.875000 0.014005
vt 0.000000 0.014005
vt 0.000000 1.000000
vt 0.125000 1.000000
vt 0.125000 1.000000
vt 0.125000 0.014005
vt 0.000000 0.014005
vt 0.125000 0.014005
vt 0.125000 1.000000
vt 0.250000 1.000000
vt 0.250000 1.000000
vt 0.250000 0.014005
vt 0.125000 0.014005
vt 0.250000 0.014005
vt 0.250000 1.000000
vt 0.375000 1.000000
vt 0.375000 1.000000
vt 0.375000 0.014005
vt 0.250000 0.014005
vt 0.375000 0.014005
vt 0.375000 1.000000
vt 0.500000 1.000000
vt 0.500000 1.000000
vt 0.500000 0.014005
vt 0.375000 0.014005
vt 0.500000 0.014005
vt 0.500000 1.000000
vt 0.625000 1.000000
vt 0.625000 1.000000
vt 0.625000 0.014005
vt 0.500000 0.014005
vt 0.625000 0.014005
vt 0.625000 1.000000
vt 0.750000 1.000000
vt 0.750000 1.000000
vt 0.750000 0.014005
vt 0.625000 0.014005
vt 0.500000 0.958556
vt 0.175752 0.824248
vt 0.041444 0.500000
vt 0.041444 0.500000
vt 0.175752 0.175752
vt 0.500000 0.041444
vt 0.500000 0.958556
vt 0.041444 0.500000
vt 0.500000 0.041444
vt 0.500000 0.041444
vt 0.824248 0.175752
vt 0.958556 0.500000
vt 0.500000 0.958556
vt 0.500000 0.041444
vt 0.958556 0.500000
vt 0.824248 0.824248
vt 0.500000 0.958556
vt 0.958556 0.500000
vt 0.853553 0.853553
vt 1.000000 0.500000
vt 0.853554 0.146447
vt 0.853554 0.146447
vt 0.500000 0.000000
vt 0.146447 0.146447
vt 0.853553 0.853553
vt 0.853554 0.146447
vt 0.146447 0.146447
vt 0.146447 0.146447
vt 0.000000 0.500000
vt 0.146447 0.853553
vt 0.853553 0.853553
vt 0.146447 0.146447
vt 0.146447 0.853553
vt 0.500000 1.000000
vt 0.853553 0.853553
vt 0.146447 0.853553
vt 0.375000 0.000000
vt 0.375000 1.000000
vt 0.500000 1.000000
vt 0.500000 1.000000
vt 0.500000 0.000000
vt 0.375000 0.000000
vt 0.500000 0.000000
vt 0.500000 0.000000
vt 0.375000 0.000000
vt 0.375000 0.000000
vt 0.375000 0.000000
vt 0.500000 0.000000
vt 0.500000 1.000000
vt 0.500000 1.000000
vt 0.500000 0.000000
vt 0.500000 0.000000
vt 0.500000 0.000000
vt 0.500000 1.000000
vt 0.375000 1.000000
vt 0.375000 1.000000
vt 0.500000 1.000000
vt 0.500000 1.000000
vt 0.500000 1.000000
vt 0.375000 1.000000
vt 0.375000 0.000000
vt 0.375000 0.000000
vt 0.375000 1.000000
vt 0.375000 1.000000
vt 0.375000 1.000000
vt 0.375000 0.000000
vt 0.375000 0.000000
vt 0.375000 1.000000
vt 0.500000 1.000000
vt 0.500000 1.000000
vt 0.500000 0.000000
vt 0.375000 0.000000
vt 0.500000 0.000000
vt 0.500000 0.000000
vt 0.375000 0.000000
vt 0.375000 0.000000
vt 0.375000 0.000000
vt 0.500000 0.000000
vt 0.500000 1.000000
vt 0.500000 1.000000
vt 0.500000 0.000000
vt 0.500000 0.000000
vt 0.500000 0.000000
vt 0.500000 1.000000
vt 0.375000 1.000000
vt 0.375000 1.000000
vt 0.500000 1.000000
vt 0.500000 1.000000
vt 0.500000 1.000000
vt 0.375000 1.000000
vt 0.375000 0.000000
vt 0.375000 0.000000
vt 0.375000 1.000000
vt 0.375000 1.000000
vt 0.375000 1.000000
vt 0.375000 0.000000
vt 0.516670 0.959756
vt 0.500000 0.958556
vt 0.175752 0.824248
vt 0.175752 0.824248
vt 0.163116 0.813309
vt 0.516670 0.959756
vt 0.186691 0.836884
vt 0.175752 0.824248
vt 0.041444 0.500000
vt 0.041444 0.500000
vt 0.040244 0.483330
vt 0.186691 0.836884
vt 0.040244 0.516670
vt 0.041444 0.500000
vt 0.175752 0.175752
vt 0.175752 0.175752
vt 0.186691 0.163116
vt 0.040244 0.516670
vt 0.163116 0.186691
vt 0.175752 0.175752
vt 0.500000 0.041444
vt 0.500000 0.041444
vt 0.516670 0.040244
vt 0.163116 0.186691
vt 0.483330 0.040244
vt 0.500000 0.041444
vt 0.824248 0.175752
vt 0.824248 0.175752
vt 0.836884 0.186691
vt 0.483330 0.040244
vt 0.813309 0.163116
vt 0.824248 0.175752
vt 0.958556 0.500000
vt 0.958556 0.500000
vt 0.959756 0.516670
vt 0.813309 0.163116
vt 0.959756 0.483330
vt 0.958556 0.500000
vt 0.824248 0.824248
vt 0.824248 0.824248
vt 0.813309 0.836884
vt 0.959756 0.483330
vt 0.836884 0.813309
vt 0.824248 0.824248
vt 0.500000 0.958556
vt 0.500000 0.958556
vt 0.483330 0.959756
vt 0.836884 0.813309
vt 0.516669 0.959755
vt 0.500000 0.958555
vt 0.175752 0.824248
vt 0.175752 0.824248
vt 0.163116 0.813309
vt 0.516669 0.959755
vt 0.186690 0.836883
vt 0.175752 0.824248
vt 0.041444 0.500000
vt 0.041444 0.500000
vt 0.040243 0.483330
vt 0.186690 0.836883
vt 0.040243 0.516670
vt 0.041444 0.500000
vt 0.175752 0.175752
vt 0.175752 0.175752
vt 0.186690 0.163116
vt 0.040243 0.516670
vt 0.163116 0.186691
vt 0.175752 0.175752
vt 0.500000 0.041444
vt 0.500000 0.041444
vt 0.516669 0.040245
vt 0.163116 0.186691
vt 0.483331 0.040245
vt 0.500000 0.041444
vt 0.824248 0.175752
vt 0.824248 0.175752
vt 0.836884 0.186691
vt 0.483331 0.040245
vt 0.813311 0.163117
vt 0.824248 0.175752
vt 0.958556 0.500000
vt 0.958556 0.500000
vt 0.959757 0.516670
vt 0.813311 0.163117
vt 0.959757 0.483330
vt 0.958556 0.500000
vt 0.824248 0.824248
vt 0.824248 0.824248
vt 0.813310 0.836883
vt 0.959757 0.483330
vt 0.836884 0.813309
vt 0.824248 0.824248
vt 0.500000 0.958555
vt 0.500000 0.958555
vt 0.483331 0.959755
vt 0.836884 0.813309
vt 0.133568 0.884650
vt 0.175752 0.824248
vt 0.500000 0.958556
vt 0.500000 0.958556
vt 0.487122 1.031100
vt 0.133568 0.884650
vt -0.031095 0.512879
vt 0.041444 0.500000
vt 0.175752 0.824248
vt 0.175752 0.824248
vt 0.115352 0.866432
vt -0.031095 0.512879
vt 0.115352 0.133568
vt 0.175752 0.175752
vt 0.041444 0.500000
vt 0.041444 0.500000
vt -0.031095 0.487121
vt 0.115352 0.133568
vt 0.487122 -0.031097
vt 0.500000 0.041444
vt 0.175752 0.175752
vt 0.175752 0.175752
vt 0.133568 0.115350
vt 0.487122 -0.031097
vt 0.866432 0.115350
vt 0.824248 0.175752
vt 0.500000 0.041444
vt 0.500000 0.041444
vt 0.512878 -0.031097
vt 0.866432 0.115350
vt 1.031090 0.487121
vt 0.958556 0.500000
vt 0.824248 0.175752
vt 0.824248 0.175752
vt 0.884648 0.133568
vt 1.031090 0.487121
vt 0.884648 0.866432
vt 0.824248 0.824248
vt 0.958556 0.500000
vt 0.958556 0.500000
vt 1.031090 0.512879
vt 0.884648 0.866432
vt 0.512878 1.031100
vt 0.500000 0.958556
vt 0.824248 0.824248
vt 0.824248 0.824248
vt 0.866432 0.884650
vt 0.512878 1.031100
vt 0.133569 0.884651
vt 0.175752 0.824248
vt 0.500000 0.958556
vt 0.500000 0.958556
vt 0.487122 1.031100
vt 0.133569 0.884651
vt -0.031094 0.512877
vt 0.041444 0.500000
vt 0.175752 0.824248
vt 0.175752 0.824248
vt 0.115352 0.866431
vt -0.031094 0.512877
vt 0.115352 0.133569
vt 0.175752 0.175752
vt 0.041444 0.500000
vt 0.041444 0.500000
vt -0.031094 0.487123
vt 0.115352 0.133569
vt 0.487123 -0.031097
vt 0.500000 0.041444
vt 0.175752 0.175752
vt 0.175752 0.175752
vt 0.133569 0.115349
vt 0.487123 -0.031097
vt 0.866431 0.115349
vt 0.824248 0.175752
vt 0.500000 0.041444
vt 0.500000 0.041444
vt 0.512878 -0.031097
vt 0.866431 0.115349
vt 1.031090 0.487123
vt 0.958556 0.500000
vt 0.824248 0.175752
vt 0.824248 0.175752
vt 0.884648 0.133570
vt 1.031090 0.487123
vt 0.884648 0.866431
vt 0.824248 0.824248
vt 0.958556 0.500000
vt 0.958556 0.500000
vt 1.031090 0.512877
vt 0.884648 0.866431
vt 0.512878 1.031100
vt 0.500000 0.958556
vt 0.824248 0.824248
vt 0.824248 0.824248
vt 0.866431 0.884651
vt 0.512878 1.031100
f 1/1 2/2 3/3
f 3/4 4/5 1/6
f 2/7 5/8 6/9
f 6/10 3/11 2/12
f 5/13 7/14 8/15
f 8/16 6/17 5/18
f 7/19 9/20 10/21
f 10/22 8/23 7/24
f 9/25 11/26 12/27
f 12/28 10/29 9/30
f 11/31 13/32 14/33
f 14/34 12/35 11/36
f 13/37 15/38 16/39
f 16/40 14/41 13/42
f 15/43 1/44 4/45
f 4/46 16/47 15/48
f 17/49 18/50 19/51
f 19/52 20/53 21/54
f 21/55 22/56 23/57
f 19/58 21/59 23/60
f 17/61 19/62 23/63
f 24/64 17/65 23/66
f 3/67 6/68 8/69
f 8/70 10/71 12/72
f 12/73 14/74 16/75
f 8/76 12/77 16/78
f 3/79 8/80 16/81
f 4/82 3/83 16/84
f 25/85 26/86 27/87
f 27/88 28/89 25/90
f 26/91 29/92 30/93
f 30/94 27/95 26/96
f 29/97 31/98 32/99
f 32/100 30/101 29/102
f 31/103 33/104 34/105
f 34/106 32/107 31/108
f 33/109 35/110 36/111
f 36/112 34/113 33/114
f 35/115 37/116 38/117
f 38/118 36/119 35/120
f 37/121 39/122 40/123
f 40/124 38/125 37/126
f 39/127 25/128 28/129
f 28/130 40/131 39/132
f 41/133 42/134 43/135
f 43/136 44/137 45/138
f 45/139 46/140 47/141
f 43/142 45/143 47/144
f 41/145 43/146 47/147
f 48/148 41/149 47/150
f 27/151 30/152 32/153
f 32/154 34/155 36/156
f 36/157 38/158 40/159
f 32/160 36/161 40/162
f 27/163 32/164 40/165
f 28/166 27/167 40/168
f 49/169 50/170 51/171
f 51/172 52/173 49/174
f 50/175 49/176 53/177
f 53/178 54/179 50/180
f 51/181 50/182 54/183
f 54/184 55/185 51/186
f 52/187 51/188 55/189
f 55/190 56/191 52/192
f 49/193 52/194 56/195
f 56/196 53/197 49/198
f 57/199 58/200 59/201
f 59/202 60/203 57/204
f 58/205 57/206 61/207
f 61/208 62/209 58/210
f 59/211 58/212 62/213
f 62/214 63/215 59/216
f 60/217 59/218 63/219
f 63/220 64/221 60/222
f 57/223 60/224 64/225
f 64/226 61/227 57/228
f 65/229 66/230 67/231
f 67/232 68/233 65/234
f 68/235 67/236 69/237
f 69/238 70/239 68/240
f 70/241 69/242 71/243
f 71/244 72/245 70/246
f 72/247 71/248 73/249
f 73/250 74/251 72/252
f 74/253 73/254 75/255
f 75/256 76/257 74/258
f 76/259 75/260 77/261
f 77/262 78/263 76/264
f 78/265 77/266 79/267
f 79/268 80/269 78/270
f 80/271 79/272 66/273
f 66/274 65/275 80/276
f 81/277 82/278 83/279
f 83/280 84/281 85/282
f 81/283 83/284 85/285
f 85/286 86/287 87/288
f 81/289 85/290 87/291
f 88/292 81/293 87/294
f 79/295 77/296 75/297
f 75/298 73/299 71/300
f 79/301 75/302 71/303
f 71/304 69/305 67/306
f 79/307 71/308 67/309
f 66/310 79/311 67/312
f 89/313 90/314 91/315
f 91/316 92/317 89/318
f 92/319 91/320 93/321
f 93/322 94/323 92/324
f 94/325 93/326 95/327
f 95/328 96/329 94/330
f 96/331 95/332 97/333
f 97/334 98/335 96/336
f 98/337 97/338 99/339
f 99/340 100/341 98/342
f 100/343 99/344 101/345
f 101/346 102/347 100/348
f 102/349 101/350 103/351
f 103/352 104/353 102/354
f 104/355 103/356 90/357
f 90/358 89/359 104/360
f 105/361 106/362 107/363
f 107/364 108/365 109/366
f 105/367 107/368 109/369
f 109/370 110/371 111/372
f 105/373 109/374 111/375
f 112/376 105/377 111/378
f 103/379 101/380 99/381
f 99/382 97/383 95/384
f 103/385 99/386 95/387
f 95/388 93/389 91/390
f 103/391 95/392 91/393
f 90/394 103/395 91/396
f 113/397 114/398 115/399
f 115/400 116/401 113/402
f 116/403 54/404 53/405
f 53/406 113/407 116/408
f 115/409 55/410 54/411
f 54/412 116/413 115/414
f 114/415 56/416 55/417
f 55/418 115/419 114/420
f 113/421 53/422 56/423
f 56/424 114/425 113/426
f 117/427 118/428 119/429
f 119/430 120/431 117/432
f 120/433 62/434 61/435
f 61/436 117/437 120/438
f 119/439 63/440 62/441
f 62/442 120/443 119/444
f 118/445 64/446 63/447
f 63/448 119/449 118/450
f 117/451 61/452 64/453
f 64/454 118/455 117/456
f 1/457 23/458 22/459
f 22/460 2/461 1/462
f 2/463 22/464 21/465
f 21/466 5/467 2/468
f 5/469 21/470 20/471
f 20/472 7/473 5/474
f 7/475 20/476 19/477
f 19/478 9/479 7/480
f 9/481 19/482 18/483
f 18/484 11/485 9/486
f 11/487 18/488 17/489
f 17/490 13/491 11/492
f 13/493 17/494 24/495
f 24/496 15/497 13/498
f 15/499 24/500 23/501
f 23/502 1/503 15/504
f 25/505 47/506 46/507
f 46/508 26/509 25/510
f 26/511 46/512 45/513
f 45/514 29/515 26/516
f 29/517 45/518 44/519
f 44/520 31/521 29/522
f 31/523 44/524 43/525
f 43/526 33/527 31/528
f 33/529 43/530 42/531
f 42/532 35/533 33/534
f 35/535 42/536 41/537
f 41/538 37/539 35/540
f 37/541 41/542 48/543
f 48/544 39/545 37/546
f 39/547 48/548 47/549
f 47/550 25/551 39/552
f 68/553 82/554 81/555
f 81/556 65/557 68/558
f 70/559 83/560 82/561
f 82/562 68/563 70/564
f 72/565 84/566 83/567
f 83/568 70/569 72/570
f 74/571 85/572 84/573
f 84/574 72/575 74/576
f 76/577 86/578 85/579
f 85/580 74/581 76/582
f 78/583 87/584 86/585
f 86/586 76/587 78/588
f 80/589 88/590 87/591
f 87/592 78/593 80/594
f 65/595 81/596 88/597
f 88/598 80/599 65/600
f 92/601 106/602 105/603
f 105/604 89/605 92/606
f 94/607 107/608 106/609
f 106/610 92/611 94/612
f 96/613 108/614 107/615
f 107/616 94/617 96/618
f 98/619 109/620 108/621
f 108/622 96/623 98/624
f 100/625 110/626 109/627
f 109/628 98/629 100/630
f 102/631 111/632 110/633
f 110/634 100/635 102/636
f 104/637 112/638 111/639
f 111/640 102/641 104/642
f 89/643 105/644 112/645
f 112/646 104/647 89/648
