# USD → MuJoCo (world-space, simplified)
v -4.356482 1.892461 0.379113
v -4.357943 1.889128 0.382338
v -4.349924 1.885812 0.379160
v -4.365369 1.889759 0.377802
v -4.365561 1.894652 0.379964
v -4.375170 1.893997 0.381013
v -4.389167 1.887214 0.379558
v -4.424782 1.886091 0.382347
v -4.423093 1.883699 0.381207
v -4.446786 1.881971 0.382361
v -4.475870 1.879925 0.383192
v -4.499866 1.878377 0.383115
v -4.519068 1.875789 0.384989
v -4.540355 1.882211 0.389926
v -4.565023 1.876141 0.387048
v -4.579301 1.874839 0.384953
v -4.594110 1.872383 0.385283
v -4.591362 1.879628 0.391964
v -4.661801 1.872907 0.385591
v -4.687213 1.873068 0.385580
v -4.697176 1.872148 0.385522
v -4.742361 1.871782 0.385918
v -4.371110 1.884447 0.391043
v -4.378133 1.878357 0.393651
v -4.376474 1.867483 0.388045
v -4.376219 1.847468 0.401244
v -4.380207 1.839125 0.407513
v -4.380500 1.834424 0.410546
v -4.382857 1.834632 0.415617
v -4.381308 1.823744 0.417432
v -4.380610 1.804357 0.430888
v -4.385662 1.782447 0.445327
v -4.383312 1.770421 0.454592
v -4.383800 1.725638 0.485192
v -4.385491 1.720744 0.487976
v -4.386395 1.716476 0.491255
v -4.382960 1.694689 0.507200
v -4.384219 1.683809 0.514429
v -4.383541 1.672305 0.528778
v -4.384149 1.653518 0.536264
v -4.384260 1.657456 0.545048
v -4.380948 1.647364 0.539760
v -4.381934 1.645498 0.548076
v -4.379277 1.634516 0.550449
v -4.381836 1.622495 0.558557
v -4.376792 1.612818 0.563221
v -4.376183 1.603685 0.570140
v -4.374782 1.599314 0.573185
v -4.363204 1.588990 0.579345
v -4.363451 1.588762 0.584052
v -4.358278 1.581821 0.582849
v -4.369390 1.583583 0.586312
v -4.408963 1.587700 0.578272
v -4.424504 1.588975 0.578323
v -4.439775 1.588858 0.578828
v -4.469958 1.591762 0.577833
v -4.485384 1.594726 0.574422
v -4.501141 1.593511 0.576597
v -4.552822 1.595049 0.576282
v -4.561313 1.609782 0.578923
v -4.567806 1.595121 0.576405
v -4.579916 1.607868 0.581825
v -4.647728 1.615872 0.578620
v -4.652270 1.599402 0.574346
v -4.672200 1.597917 0.577333
v -4.687633 1.598457 0.576343
v -4.705550 1.597238 0.576898
v -4.723136 1.599132 0.574537
v -4.724507 1.605700 0.576708
v -4.751447 1.614270 0.582235
v -4.775765 1.599542 0.574795
v -4.784148 1.599465 0.574517
v -4.798820 1.598469 0.577318
v -4.854602 1.597622 0.578547
v -4.868771 1.605408 0.578804
v -4.869326 1.599474 0.576315
v -4.876122 1.603159 0.578445
v -4.890244 1.595858 0.579411
v -4.899489 1.595201 0.580275
v -4.926967 1.608818 0.586726
v -4.961086 1.601941 0.589726
v -4.970736 1.593300 0.589266
v -4.960365 1.590639 0.584220
v -4.975813 1.585367 0.587982
v -4.981264 1.592126 0.588854
v -4.984095 1.597215 0.584999
v -4.980017 1.601536 0.582637
v -4.988213 1.590259 0.584067
v -4.974716 1.600996 0.577658
v -4.972651 1.605621 0.575994
v -4.970507 1.616492 0.566455
v -4.963134 1.631266 0.563523
v -4.963505 1.631867 0.554463
v -4.964273 1.636983 0.552561
v -4.961802 1.649554 0.541883
v -4.960619 1.667920 0.529787
v -4.959384 1.672641 0.524159
v -4.959882 1.686660 0.515351
v -4.956605 1.697551 0.507887
v -4.958497 1.707595 0.500193
v -4.953684 1.740452 0.487781
v -4.957582 1.760431 0.462836
v -4.958244 1.773868 0.453625
v -4.952910 1.793927 0.451849
v -4.958395 1.782279 0.447331
v -4.953467 1.789703 0.440385
v -4.956006 1.796073 0.438052
v -4.957457 1.808909 0.434612
v -4.960982 1.826382 0.418829
v -4.960829 1.831669 0.415225
v -4.966745 1.863784 0.395521
v -4.972205 1.877224 0.391851
v -4.984752 1.895473 0.385804
v -4.987443 1.899592 0.382641
v -4.977952 1.901091 0.382898
v -4.967600 1.900507 0.383098
v -4.970934 1.896337 0.381240
v -4.942937 1.896260 0.384406
v -4.907569 1.891908 0.387340
v -4.878186 1.887574 0.390618
v -4.875887 1.880989 0.384850
v -4.864261 1.881543 0.384327
v -4.863733 1.888071 0.390071
v -4.847456 1.879548 0.384890
v -4.808392 1.877387 0.389200
v -4.805154 1.874386 0.385745
v -4.797984 1.876333 0.385089
v -4.794946 1.883224 0.392215
v -4.787501 1.875294 0.385552
v -4.759077 1.875327 0.385702
v -4.365660 1.894135 0.384873
v -4.979379 1.599135 0.588387
v -4.369507 1.592885 0.586634
v -4.368783 1.600858 0.581208
v -4.977116 1.900630 0.387915
v -4.971537 1.893977 0.392101
v -4.384939 1.896308 0.384855
v -4.409451 1.895084 0.388055
v -4.491877 1.883489 0.386912
v -4.579308 1.884239 0.395219
v -4.375496 1.614624 0.577138
v -4.375873 1.614275 0.566531
v -4.385650 1.683572 0.525606
v -4.386666 1.689153 0.517439
v -4.383537 1.708100 0.497960
v -4.386887 1.735649 0.484212
v -4.386674 1.758029 0.470635
v -4.391725 1.773766 0.464456
v -4.964341 1.873291 0.397207
v -4.962754 1.873293 0.404902
v -4.966583 1.855846 0.402628
v -4.961776 1.854961 0.407810
v -4.955014 1.852776 0.415348
v -4.955346 1.834474 0.424030
v -4.949225 1.800931 0.443206
v -4.967358 1.902626 0.389182
v -4.959575 1.901992 0.387293
v -4.943716 1.900748 0.389199
v -4.894368 1.894982 0.393301
v -4.977520 1.606654 0.585412
v -4.971651 1.617975 0.581448
v -4.965080 1.633649 0.570413
v -4.828889 1.884688 0.390592
v -4.379954 1.856033 0.405812
v -4.387805 1.851798 0.411366
v -4.384205 1.842367 0.419035
v -4.384691 1.839166 0.421812
v -4.715335 1.875750 0.388395
v -4.726882 1.882822 0.394648
v -4.740958 1.885137 0.397989
v -4.700880 1.879935 0.393829
v -4.950644 1.769775 0.469437
v -4.951951 1.759137 0.473236
v -4.954372 1.779139 0.457442
v -4.951525 1.710621 0.513001
v -4.955674 1.682216 0.523597
v -4.956001 1.666429 0.543932
v -4.705376 1.610875 0.581950
v -4.687334 1.607799 0.579986
v -4.590972 1.613886 0.583684
v -4.498594 1.611786 0.583839
v -4.471757 1.603404 0.582119
v -4.433434 1.597675 0.582914
v -4.381658 1.594432 0.587660
v -4.384282 1.799875 0.440576
v -4.384495 1.818640 0.430341
v -4.387490 1.827812 0.427144
v -4.753388 1.884668 0.396053
v -4.972316 1.603386 0.589989
v -4.961420 1.606976 0.590661
v -4.851980 1.610239 0.583537
v -4.943403 1.609569 0.589381
v -4.919099 1.621368 0.589606
v -4.892425 1.607009 0.584658
v -4.374127 1.609914 0.582459
v -4.389306 1.666499 0.540914
v -4.391063 1.675174 0.536750
v -4.394567 1.703770 0.524770
v -4.394083 1.741604 0.493240
v -4.397645 1.599425 0.586128
v -4.956236 1.820609 0.433874
v -4.950964 1.834589 0.435026
v -4.957523 1.868497 0.408956
v -4.955113 1.866868 0.416081
v -4.954910 1.903235 0.393404
v -4.915452 1.899060 0.394754
v -4.831867 1.889523 0.396882
v -4.774620 1.886402 0.397516
v -4.380868 1.879646 0.401562
v -4.381302 1.867038 0.402310
v -4.368063 1.892853 0.387705
v -4.375162 1.897140 0.386188
v -4.384284 1.898024 0.390170
v -4.394732 1.898335 0.390821
v -4.430521 1.891924 0.388133
v -4.462970 1.887210 0.387557
v -4.379474 1.861993 0.404295
v -4.391045 1.792331 0.449417
v -4.960911 1.646935 0.561523
v -4.953651 1.657577 0.553280
v -4.630467 1.607108 0.579934
v -4.956411 1.718487 0.491856
v -4.783740 1.614835 0.579090
v -4.829265 1.605650 0.580001
v -4.954969 1.693889 0.521241
v -4.596049 1.885215 0.399079
v -4.609031 1.882682 0.394056
v -4.625363 1.878965 0.395166
v -4.957839 1.844580 0.419789
v -4.953694 1.718539 0.504883
v -4.663789 1.878565 0.391737
v -4.687232 1.883921 0.396738
v -4.646076 1.879274 0.390989
v -4.949878 1.616934 0.591087
v -4.948434 1.717252 0.514571
v -4.376062 1.604121 0.586730
v -4.378610 1.614207 0.584527
v -4.381627 1.627968 0.575935
v -4.385027 1.639793 0.561947
v -4.393175 1.662077 0.560912
v -4.391808 1.671802 0.549946
v -4.388319 1.686014 0.530238
v -4.961930 1.640435 0.571911
v -4.965197 1.625297 0.585665
v -4.387703 1.704284 0.512841
v -4.391630 1.724225 0.503089
v -4.395110 1.731183 0.499594
v -4.395299 1.735296 0.496020
v -4.968775 1.614623 0.588757
v -4.522406 1.610930 0.581569
v -4.509494 1.606214 0.581793
v -4.485489 1.611188 0.582414
v -4.477924 1.616271 0.586196
v -4.462379 1.615835 0.584943
v -4.448073 1.613391 0.584304
v -4.408530 1.607475 0.586086
v -4.393018 1.606775 0.588233
v -4.383929 1.867779 0.408740
v -4.374520 1.890150 0.393787
v -4.379272 1.894637 0.394497
v -4.441542 1.893825 0.392555
v -4.470431 1.892461 0.394848
v -4.504365 1.886236 0.391167
v -4.516706 1.891191 0.402156
v -4.586185 1.886126 0.401908
v -4.945185 1.808043 0.454486
v -4.943673 1.813580 0.447598
v -4.947177 1.811318 0.441400
v -4.945537 1.834419 0.440923
v -4.968907 1.892779 0.396098
v -4.970045 1.899517 0.392582
v -4.959736 1.900981 0.397437
v -4.849738 1.887524 0.392446
v -4.732523 1.626526 0.582056
v -4.942387 1.740565 0.500371
v -4.952479 1.753606 0.481173
v -4.951999 1.672692 0.548694
v -4.941333 1.790022 0.465483
v -4.640882 1.887650 0.404282
v -4.663339 1.885832 0.404339
v -4.389775 1.786343 0.457918
v -4.717625 1.614580 0.581191
v -4.394711 1.794599 0.459920
v -4.387601 1.632601 0.580274
v -4.605753 1.611881 0.583348
v -4.408393 1.898474 0.399693
v -4.403179 1.612147 0.588250
v -4.400398 1.789000 0.467708
v -4.387938 1.641544 0.573301
v -4.386469 1.650009 0.561620
v -4.398138 1.732724 0.507231
v -4.402365 1.741291 0.504044
v -4.383889 1.885322 0.403989
v -4.422800 1.897321 0.395187
v -4.457403 1.895904 0.400614
v -4.520445 1.883415 0.392733
v -4.520723 1.893229 0.406630
v -4.554782 1.885223 0.398652
v -4.569068 1.886630 0.399045
v -4.604606 1.890577 0.411114
v -4.953602 1.859445 0.422658
v -4.947122 1.728009 0.509528
v -4.957112 1.642365 0.579272
v -4.951105 1.775366 0.462825
v -4.935255 1.792238 0.471370
v -4.961620 1.893386 0.401105
v -4.959026 1.888581 0.404624
v -4.388061 1.813308 0.437574
v -4.945040 1.799514 0.460016
v -4.933306 1.902344 0.397628
v -4.943584 1.770187 0.482886
v -4.954622 1.657735 0.564146
v -4.881305 1.898579 0.403863
v -4.815362 1.885290 0.399778
v -4.799352 1.615961 0.583741
v -4.836579 1.624660 0.584784
v -4.398724 1.782578 0.472206
v -4.949748 1.708951 0.521177
v -4.760047 1.612587 0.581577
v -4.541035 1.610048 0.582612
v -4.394842 1.861735 0.416201
v -4.954123 1.626321 0.589711
v -4.942932 1.626764 0.591223
v -4.387491 1.615160 0.587456
v -4.389994 1.827834 0.435698
v -4.928153 1.625535 0.591092
v -4.388792 1.896044 0.398170
v -4.386531 1.622902 0.585015
v -4.400305 1.687800 0.544881
v -4.393044 1.882421 0.411237
v -4.436471 1.897624 0.403069
v -4.485727 1.891082 0.401837
v -4.918280 1.901669 0.405910
v -4.944844 1.901266 0.403504
v -4.953794 1.886209 0.410296
v -4.401261 1.620185 0.588695
v -4.429516 1.615042 0.587426
v -4.936565 1.785950 0.479725
v -4.941731 1.818881 0.445167
v -4.397893 1.861921 0.424292
v -4.870770 1.897470 0.402160
v -4.855497 1.894648 0.404634
v -4.395911 1.768953 0.477554
v -4.941218 1.761907 0.489557
v -4.951355 1.683090 0.541555
v -4.943080 1.690634 0.548456
v -4.942611 1.695601 0.538020
v -4.617728 1.625003 0.585703
v -4.639442 1.631699 0.583553
v -4.545014 1.629185 0.586724
v -4.398238 1.724551 0.512687
v -4.401824 1.705251 0.534243
v -4.884369 1.621678 0.587810
v -4.653169 1.886788 0.404249
v -4.400399 1.748268 0.497627
v -4.695263 1.888044 0.405894
v -4.572089 1.890624 0.406572
v -4.402735 1.630592 0.587272
v -4.396405 1.637535 0.582904
v -4.396634 1.654063 0.572644
v -4.713281 1.884496 0.404662
v -4.392601 1.891964 0.404723
v -4.403299 1.895739 0.405306
v -4.472907 1.895581 0.408327
v -4.735689 1.889643 0.406649
v -4.683012 1.623117 0.584319
v -4.394490 1.814855 0.447533
v -4.660429 1.632319 0.585407
v -4.605479 1.628639 0.586681
v -4.502876 1.894021 0.406084
v -4.537362 1.889825 0.399816
v -4.949174 1.640494 0.586090
v -4.418385 1.623336 0.588908
v -4.707012 1.889772 0.414420
v -4.936763 1.820725 0.457345
v -4.941474 1.826543 0.443986
v -4.935427 1.841587 0.446504
v -4.942043 1.851553 0.435730
v -4.775457 1.639394 0.585719
v -4.849072 1.635590 0.589781
v -4.865367 1.635159 0.590073
v -4.876802 1.634389 0.590476
v -4.936558 1.708542 0.538357
v -4.948798 1.882387 0.413812
v -4.948347 1.664768 0.568290
v -4.405783 1.740472 0.511224
v -4.940563 1.737462 0.509563
v -4.401150 1.839302 0.441209
v -4.397558 1.751126 0.492219
v -4.929510 1.635225 0.591415
v -4.693305 1.623370 0.584074
v -4.669276 1.624079 0.584965
v -4.907431 1.638200 0.591327
v -4.798955 1.890312 0.402687
v -4.397197 1.847184 0.433799
v -4.944016 1.883259 0.419461
v -4.400473 1.874098 0.420421
v -4.943542 1.675637 0.563883
v -4.647977 1.636007 0.584525
v -4.593729 1.629965 0.585930
v -4.584367 1.623413 0.585590
v -4.945384 1.653961 0.580195
v -4.410488 1.641082 0.585888
v -4.485129 1.894590 0.409989
v -4.927953 1.802923 0.473055
v -4.398600 1.755459 0.483778
v -4.685447 1.890709 0.413500
v -4.402763 1.715192 0.527878
v -4.589581 1.890036 0.420031
v -4.934642 1.734698 0.521033
v -4.799036 1.643397 0.589263
v -4.784381 1.649102 0.587989
v -4.878164 1.642675 0.591692
v -4.936605 1.758088 0.499759
v -4.928271 1.710868 0.548050
v -4.941597 1.844409 0.438973
v -4.936630 1.810202 0.463544
v -4.437265 1.629173 0.588827
v -4.489739 1.626968 0.588470
v -4.505425 1.631179 0.587128
v -4.879333 1.899525 0.411244
v -4.804880 1.894873 0.414614
v -4.761414 1.888099 0.404065
v -4.408486 1.763432 0.496724
v -4.725636 1.891495 0.414301
v -4.621126 1.888500 0.414788
v -4.660676 1.890074 0.419546
v -4.690922 1.646741 0.586894
v -4.528012 1.624970 0.586215
v -4.405245 1.647144 0.581876
v -4.407011 1.660823 0.575043
v -4.945898 1.895661 0.410331
v -4.409506 1.753237 0.503647
v -4.674784 1.650442 0.588500
v -4.938026 1.639166 0.589879
v -4.409162 1.782732 0.480563
v -4.410665 1.675663 0.567403
v -4.398812 1.676497 0.555603
v -4.658786 1.647998 0.587387
v -4.715783 1.891181 0.419600
v -4.748188 1.891517 0.413101
v -4.646552 1.647932 0.588614
v -4.406827 1.808650 0.465861
v -4.405550 1.813608 0.459927
v -4.401380 1.696096 0.541870
v -4.563406 1.629096 0.583332
v -4.467263 1.895987 0.412796
v -4.551584 1.892440 0.412489
v -4.841667 1.645474 0.590777
v -4.812244 1.618298 0.584018
v -4.770266 1.651633 0.588549
v -4.433547 1.637749 0.589063
v -4.413435 1.775974 0.491392
v -4.418968 1.716982 0.541850
v -4.576123 1.890974 0.410107
v -4.943895 1.855326 0.429677
v -4.930375 1.833997 0.452394
v -4.920488 1.753290 0.517859
v -4.790167 1.889291 0.402048
v -4.411785 1.795480 0.476902
v -4.854304 1.896966 0.416074
v -4.834559 1.896278 0.410980
v -4.821230 1.893759 0.413007
v -4.924181 1.821869 0.466449
v -4.928687 1.776093 0.492141
v -4.916279 1.645978 0.591056
v -4.410532 1.833132 0.452336
v -4.402256 1.855101 0.433548
v -4.722473 1.892800 0.424296
v -4.933049 1.891775 0.419825
v -4.446437 1.896077 0.413030
v -4.930959 1.652246 0.587370
v -4.413151 1.840811 0.450025
v -4.940187 1.869758 0.429348
v -4.895706 1.647338 0.591552
v -4.616570 1.654917 0.589684
v -4.420757 1.664104 0.579258
v -4.535102 1.893798 0.417438
v -4.558589 1.893274 0.416705
v -4.415065 1.770586 0.498222
v -4.912009 1.899894 0.414299
v -4.870904 1.898333 0.420446
v -4.774186 1.892407 0.412427
v -4.706545 1.646315 0.589135
v -4.820367 1.640144 0.587382
v -4.810477 1.660391 0.589449
v -4.419471 1.740386 0.523329
v -4.413373 1.804271 0.472648
v -4.408842 1.695951 0.550690
v -4.435401 1.647502 0.588007
v -4.483846 1.648460 0.589803
v -4.483362 1.635480 0.589676
v -4.926414 1.835706 0.458072
v -4.936207 1.666479 0.577419
v -4.641532 1.891215 0.416151
v -4.427756 1.802773 0.483232
v -4.758697 1.892210 0.423100
v -4.406742 1.877954 0.423946
v -4.408772 1.886789 0.418568
v -4.925621 1.898494 0.414416
v -4.570213 1.653649 0.589226
v -4.931104 1.722296 0.534168
v -4.442149 1.893474 0.419280
v -4.484221 1.895504 0.416110
v -4.420854 1.821923 0.468195
v -4.424547 1.783004 0.497482
v -4.509765 1.650723 0.589813
v -4.460946 1.642439 0.589686
v -4.910405 1.773778 0.511821
v -4.928056 1.761277 0.507637
v -4.921288 1.745527 0.525483
v -4.723120 1.654239 0.588484
v -4.757594 1.645352 0.589066
v -4.787011 1.659965 0.590940
v -4.628554 1.640445 0.586535
v -4.631135 1.665075 0.589522
v -4.790322 1.893538 0.425953
v -4.901639 1.657010 0.590265
v -4.924717 1.856621 0.444576
v -4.935464 1.860615 0.437254
v -4.929554 1.687039 0.567223
v -4.930284 1.788920 0.484812
v -4.822467 1.896776 0.421695
v -4.921003 1.804142 0.480894
v -4.705544 1.891534 0.427211
v -4.739441 1.892183 0.422536
v -4.925055 1.832884 0.461544
v -4.577052 1.656380 0.589528
v -4.913456 1.888882 0.429895
v -4.420300 1.894616 0.412957
v -4.464027 1.891518 0.426654
v -4.481742 1.894274 0.422074
v -4.505825 1.894532 0.419018
v -4.419864 1.751358 0.516493
v -4.911925 1.869045 0.446114
v -4.596873 1.660499 0.586864
v -4.915536 1.788717 0.494782
v -4.556164 1.654233 0.589524
v -4.779061 1.893539 0.423525
v -4.910168 1.739089 0.538703
v -4.744695 1.652467 0.588422
v -4.917296 1.818909 0.475113
v -4.422996 1.861574 0.443331
v -4.601961 1.892025 0.424538
v -4.581757 1.891049 0.430597
v -4.924921 1.665061 0.583097
v -4.460941 1.657155 0.588176
v -4.797016 1.655118 0.590599
v -4.540662 1.647205 0.588971
v -4.918316 1.713168 0.554473
v -4.424161 1.711111 0.550284
v -4.492616 1.891759 0.428879
v -4.434854 1.798208 0.492571
v -4.854101 1.663242 0.591218
v -4.544158 1.892921 0.424469
v -4.901590 1.797307 0.499415
v -4.426236 1.875015 0.435501
v -4.904376 1.668350 0.586597
v -4.432149 1.770796 0.510327
v -4.433758 1.746385 0.529341
v -4.917462 1.800475 0.488150
v -4.801662 1.893796 0.430760
v -4.618720 1.891065 0.427720
v -4.842304 1.895472 0.430080
v -4.895484 1.895069 0.426802
v -4.925077 1.878325 0.433688
v -4.913806 1.682937 0.577205
v -4.920979 1.845527 0.457189
v -4.897637 1.838392 0.474265
v -4.683087 1.891125 0.428654
v -4.740823 1.674026 0.590098
v -4.432689 1.843320 0.460985
v -4.908072 1.759903 0.523981
v -4.781369 1.892002 0.435139
v -4.443436 1.686425 0.574185
v -4.508586 1.665977 0.588963
v -4.556788 1.669391 0.589424
v -4.738864 1.890718 0.436248
v -4.680964 1.673690 0.588810
v -4.628020 1.684007 0.588094
v -4.703348 1.676805 0.589744
v -4.721390 1.671183 0.589361
v -4.757047 1.669938 0.590714
v -4.787362 1.673732 0.590902
v -4.899935 1.817412 0.487616
v -4.710524 1.890119 0.437708
v -4.617439 1.889391 0.438383
v -4.867476 1.893193 0.433888
v -4.892048 1.889783 0.435138
v -4.635322 1.891338 0.430485
v -4.437271 1.813971 0.482989
v -4.896383 1.686775 0.579881
v -4.871120 1.674034 0.588645
v -4.442519 1.874020 0.442390
v -4.653900 1.678708 0.589253
v -4.449999 1.666795 0.584431
v -4.503456 1.675189 0.587228
v -4.904753 1.872879 0.447161
v -4.823734 1.666860 0.590955
v -4.903919 1.718240 0.558411
v -4.435427 1.887514 0.426906
v -4.602894 1.886645 0.445804
v -4.858129 1.888845 0.441889
v -4.895181 1.708903 0.567652
v -4.822803 1.677658 0.590210
v -4.429410 1.696935 0.562999
v -4.451868 1.883943 0.435145
v -4.485977 1.887480 0.436256
v -4.507846 1.887442 0.438597
v -4.528784 1.890725 0.432903
v -4.904253 1.854051 0.460569
v -4.567362 1.889285 0.438167
v -4.445426 1.858565 0.455839
v -4.890257 1.792779 0.509400
v -4.605801 1.683122 0.588132
v -4.720212 1.691503 0.588022
v -4.452971 1.775221 0.518799
v -4.730026 1.885892 0.449305
v -4.758133 1.887033 0.447495
v -4.587659 1.684165 0.587772
v -4.444889 1.806988 0.492471
v -4.656498 1.889100 0.438313
v -4.468352 1.875442 0.448180
v -4.535182 1.884637 0.445476
v -4.563709 1.885370 0.446462
v -4.897448 1.882538 0.441564
v -4.604468 1.693288 0.586649
v -4.770552 1.686155 0.589622
v -4.554245 1.682133 0.587665
v -4.816528 1.688233 0.588424
v -4.897578 1.746662 0.540061
v -4.740890 1.688732 0.588675
v -4.443164 1.725638 0.549557
v -4.458439 1.816817 0.491488
v -4.807390 1.890938 0.440469
v -4.636070 1.886950 0.445338
v -4.503224 1.881065 0.447423
v -4.635309 1.688486 0.587785
v -4.688659 1.695558 0.587290
v -4.451497 1.741431 0.542017
v -4.675940 1.887349 0.444703
v -4.872757 1.683327 0.585474
v -4.885277 1.738376 0.551402
v -4.875131 1.796708 0.513165
v -4.845589 1.686359 0.587068
v -4.570608 1.701771 0.583533
v -4.602902 1.704609 0.583703
v -4.731664 1.704878 0.585320
v -4.768731 1.700916 0.586416
v -4.519733 1.688863 0.584560
v -4.798706 1.886024 0.449652
v -4.741970 1.880479 0.458630
v -4.454418 1.715490 0.560339
v -4.867857 1.724227 0.565135
v -4.803323 1.711553 0.580912
v -4.880627 1.846377 0.475734
v -4.861660 1.877452 0.454744
v -4.678841 1.880550 0.457938
v -4.548934 1.875668 0.459336
v -4.579034 1.880325 0.455534
v -4.679801 1.705879 0.584824
v -4.472653 1.686771 0.580018
v -4.672507 1.714294 0.582013
v -4.874946 1.869871 0.459129
v -4.471544 1.835406 0.482431
v -4.853626 1.798306 0.518404
v -4.631670 1.880106 0.458013
v -4.861602 1.841808 0.484787
v -4.865503 1.698291 0.579984
v -4.476120 1.714607 0.566256
v -4.865073 1.750087 0.549232
v -4.814269 1.880270 0.457082
v -4.607533 1.716301 0.579700
v -4.779778 1.876264 0.463651
v -4.478302 1.854160 0.469534
v -4.727534 1.717886 0.580847
v -4.767372 1.717448 0.580203
v -4.549726 1.711577 0.578305
v -4.480402 1.747947 0.546701
v -4.518929 1.867214 0.465005
v -4.479066 1.803461 0.507969
v -4.831479 1.862672 0.473173
v -4.836695 1.844613 0.487432
v -4.544647 1.723833 0.571704
v -4.689441 1.869411 0.472923
v -4.676980 1.874735 0.466226
v -4.668419 1.729727 0.575637
v -4.721428 1.730150 0.575484
v -4.601924 1.727487 0.574501
v -4.493351 1.824755 0.496221
v -4.745716 1.864407 0.477748
v -4.503768 1.778573 0.531240
v -4.626941 1.869688 0.471320
v -4.629822 1.734932 0.571997
v -4.499695 1.707131 0.574531
v -4.508993 1.739277 0.557890
v -4.737802 1.742091 0.568683
v -4.826073 1.721891 0.573266
v -4.833490 1.752872 0.553491
v -4.794673 1.864246 0.475370
v -4.836436 1.810321 0.513303
v -4.696472 1.854107 0.488560
v -4.564176 1.860055 0.477084
v -4.505712 1.856225 0.473419
v -4.532999 1.807158 0.516079
v -4.608137 1.861382 0.479215
v -4.812373 1.844998 0.490502
v -4.637609 1.752205 0.562596
v -4.556828 1.753210 0.555858
v -4.812707 1.778327 0.539619
v -4.532665 1.773783 0.539314
v -4.522954 1.842364 0.487903
v -4.700179 1.769674 0.552634
v -4.744442 1.846775 0.494126
v -4.684313 1.747446 0.566352
v -4.808632 1.817663 0.512077
v -4.599089 1.749294 0.562209
v -4.552928 1.824891 0.505469
v -4.769365 1.746349 0.564490
v -4.664891 1.854384 0.487967
v -4.637217 1.841075 0.498911
v -4.556848 1.761301 0.550622
v -4.793110 1.753573 0.557959
v -4.585577 1.841842 0.495042
v -4.751323 1.765940 0.553256
v -4.603158 1.767627 0.550910
v -4.578564 1.799725 0.526818
v -4.611149 1.821900 0.513020
v -4.774729 1.846090 0.493000
v -4.639861 1.776622 0.546965
v -4.557505 1.786898 0.533541
v -4.775935 1.792006 0.533818
v -4.584129 1.769876 0.547854
v -4.690862 1.832837 0.506744
v -4.728590 1.822215 0.514404
v -4.777408 1.823964 0.510427
v -4.679878 1.786547 0.541244
v -4.630527 1.805465 0.526376
v -4.735072 1.803304 0.528305
v -4.679263 1.816229 0.519678
v -4.678793 1.826865 0.372774
v -4.353401 1.880491 0.376470
v -4.353485 1.881201 0.378692
v -4.357870 1.872682 0.379447
v -4.366949 1.871861 0.385067
v -4.366113 1.861812 0.380257
v -4.373625 1.867980 0.386622
v -4.378190 1.863530 0.389229
v -4.379429 1.854829 0.394452
v -4.376066 1.842462 0.398529
v -4.376044 1.835865 0.402676
v -4.376931 1.828825 0.402716
v -4.382596 1.823986 0.410454
v -4.383023 1.814706 0.421822
v -4.380704 1.806250 0.427888
v -4.381734 1.790169 0.438753
v -4.380752 1.783412 0.437214
v -4.382639 1.776311 0.443444
v -4.382957 1.770746 0.452639
v -4.382553 1.767333 0.454280
v -4.385014 1.760583 0.459023
v -4.380818 1.749179 0.455243
v -4.380884 1.733890 0.468305
v -4.383926 1.713909 0.488757
v -4.382612 1.693039 0.506341
v -4.381686 1.678424 0.509234
v -4.383705 1.682864 0.513297
v -4.381378 1.666498 0.525271
v -4.382230 1.654839 0.530178
v -4.380658 1.646314 0.539109
v -4.379591 1.630576 0.550308
v -4.381547 1.620662 0.556668
v -4.375996 1.610754 0.563683
v -4.374607 1.597318 0.572117
v -4.368831 1.584174 0.572110
v -4.364223 1.578372 0.576902
v -4.359322 1.583411 0.580791
v -4.381490 1.573361 0.578731
v -4.401049 1.576021 0.576064
v -4.423940 1.588248 0.577629
v -4.438403 1.587696 0.578411
v -4.455131 1.590111 0.577216
v -4.461857 1.583060 0.574251
v -4.470125 1.590375 0.577056
v -4.485653 1.586512 0.571305
v -4.486224 1.593895 0.574070
v -4.501327 1.584913 0.572585
v -4.525372 1.593023 0.574777
v -4.556299 1.593614 0.575390
v -4.580591 1.582690 0.569663
v -4.587632 1.595654 0.575225
v -4.604997 1.593775 0.575570
v -4.651428 1.588763 0.571661
v -4.658386 1.596165 0.574330
v -4.688138 1.596752 0.575536
v -4.705839 1.596282 0.576476
v -4.743422 1.592911 0.574666
v -4.772796 1.597104 0.574360
v -4.830543 1.596076 0.576640
v -4.869725 1.596952 0.575874
v -4.878516 1.597934 0.576328
v -4.893213 1.594393 0.579514
v -4.915717 1.594331 0.579215
v -4.930136 1.591774 0.580384
v -4.944731 1.589611 0.582125
v -4.972433 1.585371 0.586492
v -4.971637 1.580670 0.582687
v -4.979346 1.581703 0.583087
v -4.988555 1.588985 0.584133
v -4.983332 1.588050 0.579376
v -4.977997 1.587652 0.574875
v -4.975542 1.598874 0.576760
v -4.974743 1.590639 0.572258
v -4.971638 1.591712 0.567268
v -4.966615 1.613179 0.556709
v -4.964948 1.633886 0.551027
v -4.960021 1.649492 0.531676
v -4.960797 1.681599 0.515573
v -4.957273 1.694714 0.507157
v -4.959479 1.714357 0.487602
v -4.959331 1.726820 0.483709
v -4.959465 1.725589 0.476606
v -4.958248 1.738402 0.476228
v -4.961069 1.734802 0.465843
v -4.960340 1.748438 0.460750
v -4.958654 1.759234 0.461241
v -4.959123 1.780706 0.446716
v -4.957290 1.785070 0.440093
v -4.955110 1.788603 0.439983
v -4.957148 1.797459 0.436045
v -4.961930 1.811969 0.421205
v -4.961810 1.828191 0.416140
v -4.968313 1.858164 0.395908
v -4.976377 1.876036 0.386818
v -4.982903 1.875859 0.382761
v -4.980739 1.881232 0.384598
v -4.988527 1.879168 0.381213
v -4.987257 1.884702 0.383871
v -4.989134 1.887326 0.379285
v -4.991507 1.896661 0.379299
v -4.968672 1.894469 0.381215
v -4.956165 1.891978 0.380986
v -4.940543 1.884831 0.380393
v -4.937119 1.889033 0.381547
v -4.917530 1.886421 0.382017
v -4.908872 1.881163 0.380357
v -4.892405 1.883691 0.383145
v -4.875819 1.880043 0.383651
v -4.876040 1.877286 0.381050
v -4.862343 1.880247 0.383886
v -4.820301 1.873191 0.382053
v -4.820883 1.876698 0.384468
v -4.805149 1.873891 0.385017
v -4.799277 1.872639 0.382458
v -4.796948 1.875058 0.384615
v -4.760549 1.868135 0.380876
v -4.741988 1.871372 0.384977
v -4.724771 1.872781 0.384542
v -4.695075 1.871569 0.384725
v -4.676880 1.871145 0.384500
v -4.672759 1.866065 0.380824
v -4.658754 1.865980 0.380403
v -4.643357 1.871446 0.384243
v -4.640891 1.867451 0.381339
v -4.624707 1.871590 0.384680
v -4.610587 1.872590 0.383914
v -4.593759 1.871843 0.384504
v -4.575917 1.873293 0.384026
v -4.561723 1.872791 0.384081
v -4.555701 1.868882 0.380669
v -4.522573 1.870487 0.380402
v -4.509728 1.875717 0.382728
v -4.509584 1.869946 0.379276
v -4.482125 1.877856 0.382019
v -4.465114 1.878940 0.381637
v -4.469242 1.874411 0.379647
v -4.435282 1.881378 0.380802
v -4.404821 1.883898 0.379887
v -4.397751 1.880790 0.378704
v -4.375472 1.887121 0.377859
v -4.352376 1.890411 0.375907
v -4.980129 1.883912 0.378514
v -4.978943 1.582960 0.577967
v -4.963161 1.623876 0.557703
v -4.961953 1.618336 0.547117
v -4.963579 1.641240 0.536857
v -4.981131 1.875036 0.378075
v -4.965293 1.581016 0.580752
v -4.949870 1.582248 0.578298
v -4.893250 1.585774 0.574548
v -4.878431 1.582210 0.569317
v -4.858094 1.592458 0.575793
v -4.838752 1.589332 0.573810
v -4.815206 1.597591 0.574555
v -4.796023 1.589476 0.573003
v -4.734719 1.586263 0.570663
v -4.720725 1.592059 0.572572
v -4.709120 1.588396 0.572576
v -4.682820 1.590389 0.572626
v -4.666080 1.588220 0.572395
v -4.639566 1.584113 0.570087
v -4.591803 1.591469 0.572778
v -4.555026 1.583472 0.571640
v -4.441850 1.577741 0.572469
v -4.424656 1.579465 0.573301
v -4.371619 1.573269 0.580592
v -4.375942 1.582945 0.564670
v -4.375875 1.602621 0.569395
v -4.377134 1.605173 0.558910
v -4.379249 1.622157 0.548425
v -4.380130 1.630970 0.543080
v -4.380814 1.643315 0.533685
v -4.360387 1.881676 0.375184
v -4.358985 1.872747 0.375614
v -4.361596 1.865514 0.377906
v -4.377754 1.846180 0.391045
v -4.380403 1.806984 0.414406
v -4.380771 1.790936 0.426599
v -4.380585 1.774180 0.435705
v -4.380827 1.757590 0.449282
v -4.381550 1.719308 0.480076
v -4.381548 1.702445 0.489803
v -4.381816 1.668539 0.507866
v -4.443477 1.876193 0.379233
v -4.472534 1.867598 0.377727
v -4.489818 1.866296 0.377616
v -4.690796 1.866431 0.380711
v -4.738224 1.862405 0.378337
v -4.743444 1.866229 0.380747
v -4.811108 1.865466 0.377839
v -4.829185 1.864648 0.377721
v -4.840206 1.869213 0.379226
v -4.893429 1.874604 0.379092
v -4.937314 1.862420 0.376716
v -4.970874 1.857765 0.390140
v -4.965976 1.839940 0.398657
v -4.962020 1.813792 0.411167
v -4.961574 1.806734 0.427261
v -4.961843 1.669021 0.510795
v -4.962531 1.660967 0.523410
v -4.365698 1.870021 0.374225
v -4.967182 1.841252 0.391659
v -4.367008 1.862310 0.374865
v -4.367710 1.855699 0.377278
v -4.371498 1.848757 0.379886
v -4.376901 1.834181 0.393707
v -4.972889 1.582828 0.571095
v -4.379513 1.819326 0.400427
v -4.380742 1.727613 0.465996
v -4.381503 1.694929 0.489645
v -4.965040 1.629383 0.544353
v -4.963840 1.623561 0.541318
v -4.962059 1.630010 0.533702
v -4.960574 1.637457 0.525987
v -4.959281 1.684210 0.507493
v -4.960694 1.687501 0.498456
v -4.381336 1.658292 0.519269
v -4.958735 1.834127 0.404155
v -4.965009 1.833056 0.397243
v -4.960744 1.700831 0.493286
v -4.961144 1.712981 0.481886
v -4.960452 1.748360 0.450382
v -4.960853 1.774634 0.441478
v -4.958232 1.788182 0.434737
v -4.960861 1.791595 0.422709
v -4.957560 1.798493 0.414059
v -4.765636 1.855680 0.375882
v -4.867127 1.866090 0.377451
v -4.376276 1.571592 0.574661
v -4.376040 1.573061 0.570565
v -4.982830 1.869481 0.380098
v -4.980062 1.864552 0.382815
v -4.973180 1.850832 0.386470
v -4.561270 1.863784 0.378096
v -4.589993 1.864661 0.379042
v -4.616920 1.861258 0.377580
v -4.380134 1.584949 0.558726
v -4.380079 1.609203 0.550236
v -4.382660 1.646858 0.519733
v -4.390370 1.570423 0.573234
v -4.827517 1.584917 0.570074
v -4.932688 1.580900 0.574948
v -4.961142 1.578024 0.576420
v -4.970794 1.579247 0.576506
v -4.814881 1.580486 0.566177
v -4.794145 1.583825 0.569307
v -4.768190 1.585232 0.569792
v -4.744951 1.585662 0.569695
v -4.731367 1.581985 0.567743
v -4.697233 1.577436 0.562903
v -4.533233 1.583724 0.570957
v -4.583286 1.576692 0.564217
v -4.598357 1.578233 0.564926
v -4.610664 1.585346 0.570703
v -4.374556 1.867916 0.374291
v -4.961708 1.581509 0.561984
v -4.963562 1.830249 0.388016
v -4.962976 1.588723 0.558105
v -4.957536 1.827050 0.405708
v -4.374864 1.853480 0.374464
v -4.412978 1.570447 0.569468
v -4.431166 1.571737 0.567912
v -4.377609 1.576033 0.565973
v -4.960772 1.818538 0.394772
v -4.958228 1.784239 0.425373
v -4.961046 1.776634 0.435981
v -4.958787 1.696207 0.481227
v -4.958965 1.671710 0.504529
v -4.536194 1.860050 0.376498
v -4.976733 1.862844 0.378085
v -4.972607 1.848877 0.383147
v -4.381545 1.823641 0.393481
v -4.382795 1.803869 0.405948
v -4.386244 1.779931 0.418770
v -4.381866 1.767159 0.434249
v -4.381870 1.742367 0.450930
v -4.381444 1.720349 0.465872
v -4.383750 1.626824 0.531498
v -4.385727 1.615718 0.538969
v -4.381883 1.610919 0.544315
v -4.380974 1.598332 0.551109
v -4.956125 1.799895 0.402445
v -4.829214 1.580299 0.566617
v -4.862280 1.580199 0.567785
v -4.883203 1.576020 0.565555
v -4.907227 1.582188 0.573207
v -4.933569 1.575374 0.568869
v -4.947894 1.576965 0.573140
v -4.961622 1.576674 0.570441
v -4.712938 1.579981 0.566524
v -4.658527 1.578681 0.566355
v -4.628425 1.577461 0.564083
v -4.520768 1.577903 0.567801
v -4.489954 1.571863 0.563129
v -4.477250 1.572897 0.564729
v -4.820759 1.855892 0.375638
v -4.696186 1.855334 0.375729
v -4.672625 1.856245 0.376246
v -4.642951 1.859206 0.377170
v -4.382410 1.859867 0.373676
v -4.376711 1.835541 0.384204
v -4.968782 1.868348 0.376709
v -4.388257 1.569370 0.568029
v -4.404890 1.567986 0.565273
v -4.422376 1.567865 0.563681
v -4.452197 1.568711 0.560719
v -4.470239 1.575815 0.568437
v -4.386322 1.791069 0.409160
v -4.966707 1.838212 0.383799
v -4.385067 1.763103 0.430066
v -4.383906 1.735215 0.450455
v -4.384248 1.702260 0.470645
v -4.383029 1.684849 0.489461
v -4.387503 1.646551 0.512167
v -4.672074 1.574875 0.560621
v -4.766390 1.576775 0.563087
v -4.967338 1.856218 0.377272
v -4.966586 1.845959 0.379556
v -4.444385 1.849864 0.374580
v -4.632722 1.841450 0.373084
v -4.944780 1.574641 0.566581
v -4.862130 1.572689 0.558616
v -4.963044 1.606025 0.548916
v -4.958479 1.632818 0.523311
v -4.961073 1.645139 0.522165
v -4.958466 1.713178 0.467009
v -4.957815 1.723722 0.459489
v -4.956520 1.771799 0.423498
v -4.958415 1.784027 0.419825
v -4.851562 1.575584 0.561046
v -4.817475 1.574880 0.560967
v -4.537050 1.574308 0.563702
v -4.552018 1.577397 0.566508
v -4.958648 1.810928 0.399953
v -4.646918 1.573552 0.559629
v -4.389571 1.572075 0.560588
v -4.413103 1.567690 0.559106
v -4.904632 1.852925 0.375184
v -4.376370 1.842181 0.377782
v -4.383626 1.807365 0.399058
v -4.389600 1.740169 0.438833
v -4.792885 1.861103 0.376914
v -4.400756 1.855673 0.374332
v -4.501254 1.571172 0.560020
v -4.684960 1.838470 0.372759
v -4.955178 1.589172 0.550154
v -4.958255 1.604284 0.541988
v -4.909871 1.572907 0.562237
v -4.485515 1.847873 0.374223
v -4.595770 1.850977 0.374764
v -4.957616 1.738346 0.448670
v -4.958001 1.761137 0.435560
v -4.954245 1.692485 0.473610
v -4.958329 1.674984 0.494784
v -4.955304 1.658096 0.500757
v -4.786958 1.842757 0.373373
v -4.387994 1.619037 0.529841
v -4.385904 1.661788 0.501059
v -4.743562 1.574175 0.558714
v -4.834388 1.572353 0.555871
v -4.567736 1.570242 0.554921
v -4.541026 1.569391 0.554551
v -4.384948 1.848859 0.373479
v -4.389430 1.828336 0.378843
v -4.386579 1.821670 0.384003
v -4.385671 1.582049 0.554166
v -4.392899 1.772747 0.414899
v -4.617876 1.572152 0.557236
v -4.956570 1.820978 0.386280
v -4.957952 1.831442 0.381926
v -4.953932 1.842194 0.378042
v -4.877124 1.849076 0.374509
v -4.447258 1.566661 0.554929
v -4.902728 1.572362 0.559526
v -4.424809 1.566890 0.558679
v -4.503715 1.567999 0.554862
v -4.413204 1.843311 0.373756
v -4.808932 1.571460 0.554736
v -4.798406 1.573301 0.558133
v -4.498935 1.843710 0.373585
v -4.566782 1.836451 0.372744
v -4.598803 1.834865 0.372532
v -4.700066 1.572789 0.557068
v -4.719488 1.573735 0.559222
v -4.668530 1.570956 0.554558
v -4.610276 1.568886 0.550644
v -4.586703 1.571125 0.557079
v -4.952746 1.735854 0.442823
v -4.950986 1.709651 0.457785
v -4.387569 1.638724 0.516018
v -4.387658 1.689425 0.474483
v -4.388766 1.723408 0.450741
v -4.955639 1.807937 0.394468
v -4.718240 1.841509 0.373125
v -4.392562 1.604284 0.535357
v -4.391794 1.596950 0.539902
v -4.451788 1.842992 0.373856
v -4.949650 1.576575 0.560219
v -4.746009 1.569864 0.550878
v -4.948335 1.667046 0.484931
v -4.950141 1.636380 0.511256
v -4.952315 1.616819 0.527548
v -4.472030 1.567697 0.558123
v -4.838044 1.835057 0.373595
v -4.951296 1.829154 0.380862
v -4.940711 1.852873 0.376137
v -4.887952 1.838645 0.374882
v -4.950297 1.751794 0.429438
v -4.838437 1.843586 0.373740
v -4.944204 1.635614 0.505736
v -4.767423 1.837772 0.372702
v -4.631297 1.831478 0.372517
v -4.946282 1.591717 0.541582
v -4.401765 1.607411 0.525061
v -4.483135 1.566294 0.549581
v -4.397632 1.670144 0.479641
v -4.395240 1.643929 0.502392
v -4.398229 1.627183 0.512986
v -4.394587 1.688745 0.469375
v -4.682453 1.568802 0.548670
v -4.646802 1.568785 0.548707
v -4.949244 1.778494 0.411345
v -4.401387 1.765436 0.413022
v -4.396645 1.725333 0.443187
v -4.392737 1.793907 0.398687
v -4.391025 1.814480 0.385672
v -4.402411 1.836036 0.374620
v -4.951175 1.803930 0.392861
v -4.774929 1.570070 0.550474
v -4.856911 1.569852 0.550305
v -4.480482 1.835711 0.373417
v -4.909199 1.572213 0.554193
v -4.947604 1.813567 0.386024
v -4.823077 1.569968 0.549862
v -4.455168 1.567104 0.548420
v -4.931389 1.573892 0.557336
v -4.712507 1.831652 0.372655
v -4.440558 1.569236 0.545797
v -4.420599 1.568956 0.552301
v -4.943852 1.770110 0.411776
v -4.394448 1.659627 0.490022
v -4.400845 1.690278 0.465265
v -4.397330 1.713155 0.451005
v -4.401227 1.780591 0.402606
v -4.639714 1.567870 0.543599
v -4.503656 1.566540 0.547526
v -4.940287 1.712837 0.447633
v -4.406315 1.757120 0.416538
v -4.911771 1.574288 0.547534
v -4.555577 1.828769 0.372857
v -4.499647 1.826663 0.373704
v -4.850552 1.824326 0.375200
v -4.566028 1.567921 0.548492
v -4.771893 1.568869 0.544365
v -4.791182 1.827503 0.373396
v -4.930615 1.577075 0.549699
v -4.405346 1.723790 0.440371
v -4.399094 1.814404 0.382331
v -4.944820 1.783601 0.402535
v -4.618020 1.824013 0.373015
v -4.918893 1.831478 0.377618
v -4.543564 1.567446 0.547125
v -4.751728 1.827390 0.373043
v -4.651191 1.819528 0.373600
v -4.936528 1.651529 0.487265
v -4.943007 1.740424 0.430898
v -4.451595 1.832966 0.373824
v -4.414943 1.775595 0.401090
v -4.600586 1.567731 0.546443
v -4.566885 1.567333 0.541546
v -4.503995 1.567693 0.539981
v -4.945626 1.684840 0.469577
v -4.402740 1.633150 0.504598
v -4.405816 1.652079 0.488331
v -4.832268 1.569575 0.542860
v -4.865676 1.571134 0.542475
v -4.930757 1.767279 0.406572
v -4.566058 1.820489 0.373719
v -4.737963 1.819092 0.374184
v -4.408033 1.687541 0.465052
v -4.407825 1.667065 0.478759
v -4.398297 1.575563 0.551725
v -4.532534 1.567830 0.537942
v -4.408985 1.590173 0.533576
v -4.932246 1.816037 0.382690
v -4.636527 1.567964 0.538780
v -4.934384 1.731377 0.432319
v -4.939566 1.690328 0.462303
v -4.561783 1.568149 0.536441
v -4.858812 1.572576 0.537417
v -4.884502 1.575697 0.537632
v -4.706905 1.568925 0.548283
v -4.573873 1.814129 0.374994
v -4.415695 1.674172 0.474066
v -4.937932 1.782817 0.399080
v -4.657328 1.568000 0.539755
v -4.702869 1.568071 0.540897
v -4.938732 1.583094 0.545742
v -4.740610 1.568470 0.539917
v -4.422366 1.821385 0.377342
v -4.777580 1.569028 0.538607
v -4.827792 1.570945 0.536378
v -4.471027 1.573178 0.534074
v -4.788947 1.818802 0.374719
v -4.883675 1.825958 0.376562
v -4.415355 1.600158 0.523060
v -4.415967 1.657158 0.484464
v -4.411178 1.639560 0.494811
v -4.643547 1.568829 0.534482
v -4.416125 1.575698 0.544339
v -4.498614 1.569980 0.535232
v -4.933603 1.608550 0.520225
v -4.414977 1.736373 0.428566
v -4.633475 1.806737 0.376799
v -4.748485 1.570891 0.530195
v -4.826988 1.811847 0.377511
v -4.410932 1.707163 0.450449
v -4.933481 1.666739 0.475575
v -4.916069 1.750123 0.414505
v -4.441228 1.576876 0.535655
v -4.415763 1.721962 0.439029
v -4.721840 1.808250 0.376722
v -4.779453 1.808567 0.377377
v -4.641807 1.570088 0.530599
v -4.929693 1.683259 0.463788
v -4.467243 1.818474 0.375885
v -4.418729 1.639354 0.492592
v -4.423951 1.627364 0.498929
v -4.927358 1.643353 0.488936
v -4.900518 1.580947 0.534596
v -4.498490 1.815017 0.376031
v -4.922533 1.711122 0.443089
v -4.822096 1.572707 0.531898
v -4.775835 1.571874 0.529583
v -4.918006 1.772647 0.400805
v -4.420658 1.754983 0.414008
v -4.424932 1.730113 0.432204
v -4.438066 1.765577 0.405203
v -4.550834 1.571079 0.529556
v -4.588614 1.569805 0.531451
v -4.921166 1.657823 0.479805
v -4.575720 1.572316 0.526714
v -4.927456 1.792594 0.391711
v -4.712408 1.569102 0.534462
v -4.720469 1.570880 0.529646
v -4.413856 1.801520 0.386020
v -4.574146 1.805553 0.377650
v -4.926098 1.589177 0.533777
v -4.437099 1.593537 0.521100
v -4.520723 1.571763 0.530315
v -4.495018 1.576763 0.526386
v -4.468512 1.581557 0.525322
v -4.914478 1.699688 0.450856
v -4.417717 1.705679 0.450897
v -4.868838 1.812051 0.379700
v -4.818074 1.795370 0.384126
v -4.919791 1.672248 0.470469
v -4.457663 1.802354 0.382650
v -4.715902 1.573399 0.524997
v -4.896371 1.799531 0.386834
v -4.432506 1.631675 0.495222
v -4.557989 1.576428 0.522273
v -4.637978 1.572140 0.526502
v -4.497667 1.804194 0.379872
v -4.864214 1.581390 0.526058
v -4.432257 1.782679 0.394843
v -4.919765 1.618651 0.505650
v -4.895832 1.749297 0.413962
v -4.904191 1.722910 0.433233
v -4.818347 1.576253 0.525949
v -4.680582 1.794778 0.381951
v -4.635868 1.575373 0.521897
v -4.756940 1.796033 0.382096
v -4.842564 1.796717 0.384680
v -4.722706 1.798819 0.380307
v -4.469302 1.791994 0.387612
v -4.902852 1.619994 0.500402
v -4.906061 1.597464 0.519273
v -4.758234 1.577145 0.521200
v -4.598256 1.575361 0.522430
v -4.514823 1.792925 0.384906
v -4.639707 1.789025 0.385094
v -4.586217 1.798176 0.380588
v -4.644172 1.579821 0.517094
v -4.915024 1.639594 0.489717
v -4.814710 1.580805 0.520561
v -4.442121 1.652162 0.487972
v -4.703255 1.576290 0.520947
v -4.455047 1.606415 0.507919
v -4.529804 1.578702 0.521110
v -4.592749 1.580690 0.516982
v -4.566050 1.788827 0.386160
v -4.850314 1.586786 0.518957
v -4.730538 1.580680 0.516996
v -4.870188 1.664411 0.480750
v -4.789138 1.585265 0.514918
v -4.654010 1.586038 0.512121
v -4.609991 1.779611 0.392461
v -4.734779 1.586331 0.512637
v -4.520420 1.594511 0.510377
v -4.564009 1.583962 0.515175
v -4.474515 1.643201 0.492536
v -4.885699 1.708506 0.446635
v -4.870176 1.769144 0.402473
v -4.702341 1.781266 0.390240
v -4.662007 1.593965 0.507578
v -4.689854 1.585806 0.512343
v -4.887255 1.625107 0.496364
v -4.462515 1.731387 0.433842
v -4.471052 1.774168 0.399447
v -4.846104 1.782496 0.393013
v -4.892694 1.678804 0.468722
v -4.462281 1.757294 0.411923
v -4.655613 1.779141 0.392142
v -4.869411 1.609657 0.504273
v -4.839884 1.593171 0.512732
v -4.868200 1.620255 0.498578
v -4.455579 1.619322 0.500029
v -4.546601 1.779255 0.393617
v -4.881512 1.782716 0.394542
v -4.708798 1.590940 0.509354
v -4.482021 1.731060 0.436097
v -4.496160 1.652802 0.489139
v -4.724072 1.598277 0.505884
v -4.618096 1.589295 0.510336
v -4.860317 1.626942 0.496174
v -4.483791 1.693124 0.464987
v -4.785567 1.786238 0.388294
v -4.625496 1.599757 0.505072
v -4.684653 1.769500 0.400310
v -4.500698 1.592525 0.512817
v -4.523313 1.606038 0.504509
v -4.574523 1.595007 0.507912
v -4.489175 1.640564 0.493362
v -4.760820 1.596180 0.507341
v -4.809939 1.596752 0.508650
v -4.878565 1.603285 0.509373
v -4.850101 1.641884 0.492189
v -4.491755 1.669805 0.480555
v -4.678121 1.601174 0.504451
v -4.552792 1.609861 0.502399
v -4.506534 1.777349 0.396358
v -4.842170 1.721066 0.443443
v -4.871664 1.644572 0.490398
v -4.572070 1.772334 0.399696
v -4.881274 1.729547 0.429623
v -4.482944 1.625000 0.497421
v -4.733713 1.769697 0.400843
v -4.850829 1.767524 0.403516
v -4.859048 1.754539 0.412974
v -4.735355 1.782524 0.389767
v -4.850387 1.738675 0.426212
v -4.624977 1.772726 0.399194
v -4.837780 1.657663 0.486489
v -4.519056 1.766019 0.406646
v -4.596454 1.759459 0.414193
v -4.710955 1.609090 0.502021
v -4.802791 1.773083 0.397893
v -4.643576 1.611763 0.501238
v -4.495176 1.713619 0.450303
v -4.740948 1.628107 0.498325
v -4.602094 1.609558 0.501876
v -4.824310 1.756727 0.411845
v -4.532457 1.620577 0.499484
v -4.847024 1.615287 0.500366
v -4.801748 1.616371 0.499990
v -4.840619 1.711389 0.451387
v -4.821982 1.610355 0.502328
v -4.569299 1.619128 0.499613
v -4.503514 1.748443 0.422502
v -4.492029 1.682036 0.473183
v -4.838136 1.747754 0.419685
v -4.627044 1.759401 0.415451
v -4.519086 1.698385 0.464132
v -4.821475 1.621817 0.498261
v -4.618445 1.616958 0.500094
v -4.639887 1.636510 0.496810
v -4.678139 1.613655 0.500826
v -4.753481 1.614820 0.500537
v -4.522969 1.672137 0.482051
v -4.701653 1.755492 0.415653
v -4.775338 1.758843 0.410116
v -4.550310 1.640021 0.495798
v -4.652795 1.628425 0.498535
v -4.559624 1.757268 0.417617
v -4.700943 1.631862 0.498087
v -4.676174 1.760422 0.410708
v -4.664672 1.740925 0.430860
v -4.821551 1.739654 0.428971
v -4.711112 1.742372 0.428719
v -4.602331 1.745648 0.427281
v -4.805890 1.637838 0.494606
v -4.526959 1.745157 0.427672
v -4.548434 1.656954 0.490568
v -4.583771 1.638372 0.496244
v -4.586703 1.651290 0.492255
v -4.625941 1.747012 0.427155
v -4.759424 1.743172 0.426756
v -4.638620 1.656161 0.490402
v -4.829829 1.681951 0.473728
v -4.829284 1.670175 0.480718
v -4.727852 1.754400 0.418057
v -4.762866 1.642741 0.494604
v -4.712633 1.641645 0.495594
v -4.724201 1.654418 0.490526
v -4.565665 1.738717 0.434398
v -4.811687 1.704856 0.458131
v -4.561618 1.707787 0.459371
v -4.809860 1.724793 0.442635
v -4.676136 1.654650 0.491621
v -4.694485 1.731384 0.439862
v -4.609322 1.731808 0.438610
v -4.561559 1.687031 0.474567
v -4.705754 1.662083 0.487376
v -4.725667 1.730286 0.438683
v -4.779699 1.661555 0.486232
v -4.594321 1.666499 0.485553
v -4.555302 1.672433 0.483334
v -4.651439 1.727330 0.442641
v -4.577495 1.699561 0.465707
v -4.723143 1.670756 0.481459
v -4.760825 1.728082 0.439546
v -4.772756 1.694378 0.465025
v -4.579204 1.719553 0.450435
v -4.786236 1.674241 0.478927
v -4.634999 1.669416 0.484005
v -4.727700 1.687134 0.470623
v -4.700933 1.714085 0.454413
v -4.679364 1.711637 0.457667
v -4.679783 1.677735 0.481319
v -4.691036 1.694139 0.470181
v -4.735085 1.702491 0.459445
v -4.631564 1.706264 0.457986
v -4.598484 1.682183 0.476299
v -4.610483 1.695677 0.466569
v -4.667289 1.686771 0.475679
v -4.637042 1.686916 0.473114
v -4.367572 1.887502 0.379575
v -4.410012 1.882864 0.382224
v -4.450608 1.878602 0.383450
v -4.473614 1.878874 0.383028
v -4.539635 1.875489 0.384193
v -4.538882 1.874808 0.383995
v -4.562787 1.872731 0.384837
v -4.572822 1.874009 0.384558
v -4.576666 1.871379 0.385546
v -4.604510 1.870221 0.385916
v -4.610560 1.873633 0.384728
v -4.625670 1.872102 0.385143
v -4.639120 1.872564 0.385131
v -4.679369 1.870895 0.385696
v -4.723573 1.873640 0.385202
v -4.367176 1.872903 0.385446
v -4.373935 1.869923 0.385965
v -4.379854 1.859983 0.392826
v -4.382334 1.863997 0.388917
v -4.380144 1.855427 0.395366
v -4.380204 1.840179 0.404699
v -4.383212 1.816174 0.422101
v -4.386537 1.815718 0.421123
v -4.382285 1.790533 0.439783
v -4.384752 1.795135 0.435636
v -4.383439 1.752086 0.466064
v -4.385014 1.741184 0.472781
v -4.386387 1.739208 0.473382
v -4.383809 1.729147 0.481812
v -4.387123 1.715358 0.489984
v -4.384445 1.699045 0.502572
v -4.385496 1.683332 0.513356
v -4.381866 1.668635 0.524940
v -4.386479 1.654543 0.533381
v -4.384206 1.657133 0.532643
v -4.381462 1.627083 0.553399
v -4.381757 1.636769 0.546610
v -4.384029 1.621706 0.556726
v -4.376533 1.598189 0.573343
v -4.359106 1.581440 0.582351
v -4.363639 1.577120 0.586431
v -4.366518 1.578024 0.584590
v -4.373758 1.578714 0.585134
v -4.384080 1.582004 0.582113
v -4.399473 1.585316 0.580373
v -4.406175 1.587886 0.577136
v -4.427998 1.590328 0.576619
v -4.472142 1.591749 0.576501
v -4.509860 1.593513 0.576783
v -4.505176 1.594478 0.574994
v -4.524381 1.595004 0.575369
v -4.542129 1.594092 0.576905
v -4.551358 1.595161 0.575003
v -4.574555 1.594962 0.576987
v -4.591991 1.597048 0.575441
v -4.579755 1.596708 0.574828
v -4.607939 1.596107 0.576730
v -4.602635 1.597912 0.574309
v -4.633480 1.596720 0.576123
v -4.647502 1.598157 0.573419
v -4.665117 1.597050 0.576484
v -4.663184 1.597614 0.574728
v -4.686014 1.597980 0.575591
v -4.699795 1.599014 0.574336
v -4.724906 1.600198 0.572321
v -4.750650 1.597704 0.577132
v -4.755106 1.599304 0.574721
v -4.784171 1.599810 0.572928
v -4.798976 1.597606 0.576598
v -4.814569 1.599799 0.575253
v -4.815004 1.599993 0.574335
v -4.835879 1.597455 0.577910
v -4.852439 1.597316 0.577523
v -4.869494 1.599053 0.575572
v -4.872405 1.600527 0.573692
v -4.877033 1.598664 0.576394
v -4.896458 1.596609 0.578103
v -4.914898 1.595347 0.579616
v -4.934894 1.593153 0.581562
v -4.920345 1.596206 0.577811
v -4.944463 1.591588 0.582960
v -4.962072 1.590399 0.583185
v -4.987883 1.585408 0.587552
v -4.987043 1.587434 0.585542
v -4.970145 1.605189 0.574089
v -4.962371 1.625514 0.559251
v -4.960973 1.642738 0.545670
v -4.959262 1.656094 0.536167
v -4.958897 1.660924 0.532777
v -4.957949 1.674790 0.522013
v -4.958733 1.685979 0.514589
v -4.955120 1.694983 0.507581
v -4.957444 1.708463 0.498208
v -4.956406 1.721065 0.488720
v -4.957154 1.723813 0.487629
v -4.956591 1.728806 0.483610
v -4.957825 1.741779 0.475583
v -4.956358 1.750168 0.469092
v -4.957153 1.761124 0.461160
v -4.953432 1.757300 0.462506
v -4.954726 1.781025 0.446799
v -4.954498 1.799289 0.434850
v -4.960095 1.809264 0.429904
v -4.960536 1.823892 0.419271
v -4.957512 1.837191 0.411785
v -4.952536 1.840240 0.408466
v -4.956762 1.841683 0.408397
v -4.970482 1.869917 0.391121
v -4.974605 1.875412 0.388617
v -4.977529 1.882560 0.383124
v -4.978082 1.880754 0.385598
v -4.992155 1.890254 0.383606
v -4.994938 1.894174 0.381614
v -4.991730 1.897301 0.379674
v -4.975626 1.894560 0.382857
v -4.942082 1.891314 0.381959
v -4.937037 1.888504 0.383721
v -4.915214 1.887555 0.382917
v -4.888199 1.884028 0.383825
v -4.900299 1.882691 0.384779
v -4.875763 1.879487 0.385127
v -4.829226 1.875203 0.386123
v -4.817962 1.877170 0.385156
v -4.806763 1.871421 0.386454
v -4.791762 1.872751 0.386356
v -4.758064 1.873248 0.385538
v -4.349255 1.887196 0.377676
v -4.358949 1.879823 0.380889
v -4.376129 1.846292 0.400830
v -4.380595 1.832647 0.409974
v -4.383760 1.829387 0.412809
v -4.381595 1.823602 0.416015
v -4.381244 1.820175 0.418165
v -4.385581 1.780829 0.444871
v -4.382867 1.748488 0.467362
v -4.384884 1.736509 0.474847
v -4.383183 1.725806 0.483107
v -4.383416 1.706890 0.496354
v -4.383547 1.651041 0.535851
v -4.358153 1.578832 0.583833
v -4.359650 1.576702 0.584119
v -4.369894 1.576699 0.585616
v -4.408474 1.586028 0.578415
v -4.505985 1.592118 0.576722
v -4.523167 1.595105 0.574416
v -4.544946 1.593075 0.576589
v -4.575204 1.594062 0.576536
v -4.595250 1.595947 0.575093
v -4.610119 1.595191 0.576287
v -4.630947 1.595478 0.575903
v -4.650326 1.597129 0.573713
v -4.667243 1.595875 0.576305
v -4.720560 1.597921 0.574363
v -4.738960 1.596960 0.575630
v -4.753810 1.597056 0.576379
v -4.782610 1.598163 0.574187
v -4.843793 1.596138 0.577814
v -4.859786 1.596749 0.577304
v -4.958251 1.589850 0.583340
v -4.978989 1.583611 0.588058
v -4.988647 1.584899 0.586440
v -4.972778 1.600608 0.577312
v -4.971968 1.604144 0.574228
v -4.970438 1.615686 0.565790
v -4.961866 1.650255 0.539960
v -4.960577 1.664677 0.529442
v -4.958986 1.675607 0.520865
v -4.959812 1.686144 0.514027
v -4.958984 1.706396 0.499330
v -4.956794 1.750160 0.468004
v -4.957903 1.781150 0.447108
v -4.960749 1.811767 0.427015
v -4.956842 1.835852 0.411072
v -4.957040 1.840570 0.407939
v -4.966058 1.851465 0.402501
v -4.966185 1.863175 0.394434
v -4.973447 1.871351 0.389662
v -4.992506 1.889354 0.382935
v -4.920541 1.887169 0.382782
v -4.761517 1.873915 0.384661
v -4.701966 1.870944 0.385583
v -4.644670 1.871312 0.385258
v -4.522858 1.874089 0.384351
v -4.500593 1.876912 0.383355
v -4.480745 1.878096 0.382794
v -4.429628 1.882083 0.381406
v -4.395266 1.885225 0.380169
v -4.365109 1.888677 0.377507
f 1 2 3
f 1 3 881
f 4 5 1
f 1 881 4
f 5 4 7
f 7 6 5
f 7 8 6
f 8 7 9
f 10 215 8
f 10 261 215
f 10 216 261
f 216 10 11
f 11 139 216
f 139 11 12
f 12 263 139
f 263 12 13
f 13 14 296
f 14 13 1482
f 14 1482 1484
f 1484 298 14
f 1484 15 298
f 15 1484 1485
f 15 1485 16
f 17 18 16
f 18 17 1488
f 1488 227 18
f 227 1488 1489
f 1489 228 227
f 228 1489 1490
f 1490 233 228
f 233 1490 19
f 19 231 233
f 231 19 20
f 20 232 231
f 232 20 21
f 21 171 232
f 21 168 171
f 168 21 1492
f 1492 169 168
f 169 1492 22
f 22 170 169
f 22 130 170
f 2 211 1605
f 1605 3 2
f 211 23 1605
f 1493 1605 23
f 23 24 25
f 25 1493 23
f 1495 25 24
f 1495 210 1497
f 217 26 1497
f 1497 210 217
f 26 217 164
f 165 27 26
f 26 164 165
f 29 1608 28
f 28 27 29
f 1608 29 30
f 187 1499 30
f 187 186 1499
f 31 1499 186
f 31 185 1501
f 32 218 281
f 32 281 33
f 147 1503 761
f 147 1504 1503
f 1504 147 406
f 146 1506 1504
f 1504 406 146
f 1506 146 34
f 245 144 37
f 38 37 144
f 144 143 38
f 1510 38 143
f 143 39 1510
f 1512 1510 39
f 41 42 40
f 42 41 43
f 42 43 44
f 239 1513 44
f 1513 239 45
f 142 46 45
f 134 49 48
f 49 134 50
f 50 51 49
f 51 50 52
f 1518 51 52
f 1520 1518 52
f 52 184 1521
f 1521 1520 52
f 184 200 1522
f 1522 1521 184
f 200 256 53
f 53 1522 200
f 256 183 54
f 54 53 256
f 55 54 183
f 782 55 183
f 782 182 56
f 57 56 182
f 57 182 252
f 252 181 58
f 58 57 252
f 251 1526 58
f 1526 251 250
f 250 1528 1526
f 1528 250 1529
f 61 59 60
f 61 62 1531
f 1532 1531 62
f 1532 62 180
f 1534 1532 180
f 180 285 1534
f 1534 285 221
f 221 1536 1534
f 63 64 1536
f 1536 221 63
f 179 67 66
f 67 179 178
f 178 68 67
f 68 178 69
f 1543 68 69
f 69 70 1543
f 70 319 1543
f 1543 319 71
f 223 73 72
f 224 1549 1547
f 1549 224 191
f 1549 191 74
f 75 76 74
f 77 1553 76
f 76 75 77
f 77 78 1553
f 78 77 194
f 78 194 79
f 1555 79 193
f 1555 193 80
f 80 1556 1555
f 192 1558 1556
f 81 83 1558
f 1558 192 81
f 83 81 82
f 82 84 83
f 84 82 85
f 1560 84 85
f 85 88 1560
f 88 85 86
f 88 86 87
f 89 88 87
f 87 90 89
f 91 162 92
f 1563 91 92
f 92 93 1563
f 93 92 94
f 94 220 1564
f 95 1564 220
f 1565 95 177
f 1566 1565 177
f 96 1566 177
f 176 1567 97
f 225 98 1567
f 1567 176 225
f 98 175 99
f 230 100 99
f 99 175 230
f 222 100 230
f 101 1574 1572
f 1574 101 276
f 1574 276 1575
f 1575 173 102
f 304 103 102
f 304 174 103
f 174 104 103
f 105 103 104
f 104 155 106
f 106 105 104
f 107 106 155
f 107 108 1580
f 108 201 1580
f 154 109 1580
f 1580 201 154
f 1582 153 1584
f 152 1652 1584
f 1584 153 152
f 1652 152 151
f 149 1585 111
f 112 1586 1585
f 1585 149 112
f 1586 112 1588
f 113 1589 1588
f 114 1590 1589
f 1589 113 114
f 114 115 1591
f 1591 1590 114
f 117 115 116
f 116 118 117
f 1593 117 118
f 1595 1593 118
f 118 119 1595
f 1596 1595 119
f 1596 120 121
f 120 123 122
f 122 121 120
f 123 273 124
f 124 122 123
f 273 163 124
f 1600 124 163
f 163 125 1600
f 126 1600 125
f 127 126 125
f 127 128 129
f 128 130 129
f 188 170 130
f 5 131 2
f 2 1 5
f 85 132 86
f 82 189 132
f 132 85 82
f 50 133 52
f 133 50 134
f 113 135 115
f 115 114 113
f 136 135 113
f 136 113 1588
f 112 270 136
f 136 1588 112
f 82 81 189
f 131 5 6
f 6 212 131
f 6 137 212
f 6 138 137
f 138 6 8
f 8 215 138
f 139 262 216
f 16 140 15
f 16 18 140
f 48 141 134
f 141 48 47
f 141 47 142
f 198 144 245
f 245 37 145
f 36 246 145
f 36 247 246
f 247 36 35
f 761 148 147
f 33 148 761
f 79 194 193
f 75 74 191
f 112 149 270
f 111 150 149
f 111 151 150
f 1582 229 153
f 229 1582 110
f 154 229 110
f 110 109 154
f 155 108 107
f 135 156 116
f 116 115 135
f 156 157 116
f 2 131 211
f 157 158 118
f 118 116 157
f 158 119 118
f 1596 119 159
f 120 1596 159
f 132 160 87
f 87 86 132
f 90 87 160
f 90 160 161
f 161 91 90
f 91 161 162
f 125 128 127
f 24 209 1495
f 210 1495 209
f 27 165 166
f 166 29 27
f 29 166 167
f 167 30 29
f 304 102 172
f 172 102 173
f 1575 276 173
f 98 225 175
f 97 96 345
f 220 94 219
f 1547 450 224
f 73 315 450
f 450 1547 73
f 315 73 223
f 223 72 71
f 70 69 274
f 69 178 282
f 179 66 65
f 60 59 320
f 320 59 1529
f 320 1529 250
f 58 181 251
f 782 255 182
f 782 183 255
f 31 308 185
f 167 187 30
f 218 1501 185
f 218 32 1501
f 188 130 208
f 128 208 130
f 281 218 283
f 184 52 133
f 160 132 189
f 81 190 189
f 175 235 230
f 81 192 190
f 1556 80 192
f 236 133 134
f 134 195 236
f 195 134 141
f 45 239 142
f 290 44 43
f 40 196 41
f 196 40 1512
f 39 197 196
f 196 1512 39
f 39 242 197
f 242 39 143
f 145 246 245
f 35 248 247
f 34 199 248
f 248 35 34
f 146 389 199
f 199 34 146
f 146 406 389
f 147 343 406
f 147 148 317
f 160 249 161
f 189 249 160
f 252 182 253
f 155 268 108
f 201 108 268
f 271 135 136
f 136 270 271
f 149 306 270
f 151 203 150
f 152 204 203
f 203 151 152
f 204 152 153
f 156 135 271
f 156 205 157
f 158 157 205
f 158 206 119
f 159 119 206
f 273 207 163
f 207 314 125
f 125 163 207
f 211 131 212
f 137 213 212
f 137 214 213
f 214 137 138
f 216 262 261
f 13 296 263
f 325 186 187
f 186 325 308
f 308 31 186
f 367 185 308
f 185 367 218
f 94 92 219
f 60 62 61
f 392 65 1538
f 65 392 179
f 101 1572 275
f 222 275 1572
f 224 316 191
f 220 277 177
f 177 95 220
f 277 96 177
f 345 347 97
f 97 347 176
f 318 175 225
f 148 33 281
f 226 18 227
f 228 233 279
f 299 15 140
f 15 299 298
f 14 298 371
f 14 371 296
f 230 275 222
f 231 354 233
f 184 133 236
f 189 190 249
f 190 234 249
f 234 190 192
f 444 218 367
f 104 174 309
f 195 237 236
f 141 238 237
f 237 195 141
f 238 141 142
f 238 142 239
f 44 290 239
f 43 240 290
f 41 241 240
f 240 43 41
f 241 41 196
f 143 144 242
f 242 144 198
f 162 243 219
f 219 92 162
f 244 243 162
f 162 161 244
f 317 343 147
f 249 244 161
f 182 255 254
f 255 183 337
f 200 184 257
f 164 258 165
f 258 164 217
f 258 217 210
f 210 209 258
f 259 209 24
f 24 23 259
f 23 211 259
f 212 260 259
f 259 211 212
f 260 212 213
f 138 294 214
f 215 261 294
f 294 138 215
f 264 263 296
f 18 265 140
f 265 18 226
f 104 266 155
f 266 267 155
f 229 301 153
f 268 155 267
f 268 376 201
f 376 269 201
f 392 1538 64
f 366 179 392
f 179 366 391
f 307 306 149
f 307 149 150
f 271 272 205
f 205 156 271
f 205 310 158
f 206 158 310
f 120 159 313
f 120 313 341
f 341 123 120
f 273 123 341
f 394 125 314
f 128 125 394
f 394 459 128
f 459 208 128
f 208 423 188
f 220 219 312
f 321 166 165
f 71 379 223
f 319 379 71
f 274 69 282
f 450 316 224
f 302 230 235
f 311 173 276
f 277 345 96
f 383 225 176
f 225 383 318
f 318 235 175
f 304 278 174
f 174 278 309
f 201 202 154
f 202 201 269
f 233 354 279
f 231 280 354
f 231 232 280
f 288 148 281
f 288 317 148
f 178 179 391
f 257 184 236
f 250 429 320
f 243 312 219
f 234 322 249
f 218 444 283
f 237 324 236
f 237 328 324
f 328 237 238
f 238 284 328
f 213 327 260
f 327 213 214
f 214 286 327
f 325 187 395
f 192 326 234
f 326 192 80
f 63 399 392
f 392 64 63
f 348 221 285
f 180 401 285
f 446 62 60
f 286 214 294
f 251 429 250
f 254 253 182
f 183 256 337
f 287 337 256
f 256 200 287
f 257 287 200
f 229 154 456
f 326 80 193
f 238 289 284
f 239 290 289
f 289 238 239
f 241 196 197
f 197 329 241
f 242 445 197
f 198 445 242
f 408 198 245
f 245 351 408
f 351 245 246
f 246 291 351
f 246 247 291
f 292 291 247
f 247 248 292
f 321 165 258
f 209 293 258
f 260 293 209
f 209 259 260
f 261 295 294
f 295 261 262
f 332 262 139
f 332 139 263
f 371 297 296
f 300 226 227
f 283 288 281
f 229 456 301
f 302 275 230
f 303 243 244
f 305 278 304
f 272 271 270
f 272 270 306
f 308 467 367
f 150 335 307
f 335 150 203
f 272 334 205
f 266 104 309
f 267 339 268
f 376 268 339
f 344 276 101
f 344 311 276
f 341 342 273
f 207 273 342
f 381 75 191
f 75 381 382
f 382 77 75
f 77 382 353
f 353 194 77
f 193 194 353
f 355 199 389
f 355 248 199
f 361 168 169
f 361 356 171
f 171 168 361
f 171 356 232
f 350 60 320
f 340 167 166
f 154 202 456
f 153 301 204
f 167 340 395
f 395 187 167
f 312 243 303
f 60 350 446
f 305 405 278
f 244 249 322
f 234 323 322
f 257 236 324
f 323 234 326
f 235 318 410
f 293 260 327
f 292 248 355
f 170 365 169
f 365 170 188
f 286 363 327
f 311 338 173
f 290 240 289
f 438 240 241
f 197 445 329
f 330 258 293
f 362 330 293
f 327 362 293
f 294 331 286
f 331 294 295
f 263 370 332
f 370 263 264
f 264 296 297
f 299 140 357
f 159 206 313
f 206 333 313
f 206 310 333
f 334 333 310
f 310 205 334
f 306 432 334
f 334 272 306
f 335 432 306
f 306 307 335
f 203 384 335
f 203 396 384
f 396 203 204
f 324 336 287
f 287 257 324
f 336 373 337
f 337 287 336
f 338 172 173
f 253 419 252
f 181 252 419
f 181 419 420
f 181 420 251
f 338 304 172
f 338 305 304
f 321 340 166
f 342 462 207
f 207 462 463
f 207 463 314
f 453 406 343
f 455 140 265
f 300 227 426
f 426 227 228
f 344 101 414
f 483 208 459
f 345 277 346
f 383 176 347
f 318 383 410
f 285 369 348
f 400 369 285
f 285 401 400
f 349 221 348
f 349 63 221
f 63 349 399
f 350 320 429
f 303 385 312
f 385 398 312
f 220 312 398
f 484 512 282
f 282 178 484
f 178 391 484
f 352 198 408
f 352 445 198
f 202 378 456
f 473 308 325
f 308 473 467
f 393 193 353
f 309 278 417
f 357 140 455
f 336 324 328
f 328 358 336
f 303 244 372
f 323 435 322
f 326 390 435
f 435 323 326
f 326 393 390
f 284 359 358
f 358 328 284
f 289 360 359
f 359 284 289
f 393 326 193
f 388 325 395
f 360 289 240
f 362 327 363
f 262 364 295
f 360 240 438
f 417 278 405
f 188 441 365
f 398 346 277
f 277 220 398
f 443 283 444
f 325 388 473
f 302 235 410
f 368 392 399
f 515 349 348
f 364 262 332
f 264 297 370
f 299 448 298
f 299 357 448
f 401 180 62
f 373 418 337
f 483 423 208
f 255 337 418
f 254 255 418
f 254 418 508
f 253 254 508
f 508 492 253
f 419 253 492
f 420 429 251
f 232 407 280
f 407 232 356
f 417 375 266
f 266 309 417
f 267 266 375
f 375 457 339
f 339 267 375
f 339 457 376
f 377 269 376
f 416 378 202
f 202 269 416
f 70 513 319
f 319 513 379
f 485 316 450
f 380 191 316
f 191 380 381
f 353 382 393
f 346 347 345
f 410 383 502
f 474 396 204
f 204 301 474
f 291 386 351
f 386 291 292
f 283 443 488
f 488 288 283
f 414 101 275
f 302 387 275
f 465 522 311
f 311 344 465
f 226 409 265
f 265 409 455
f 317 460 436
f 436 343 317
f 397 258 330
f 355 424 433
f 424 355 389
f 279 426 228
f 441 188 423
f 372 244 322
f 384 396 432
f 432 335 384
f 372 402 303
f 372 322 435
f 366 428 391
f 366 434 428
f 392 434 366
f 286 530 363
f 331 471 530
f 530 286 331
f 321 258 397
f 433 292 355
f 374 356 361
f 321 397 340
f 399 349 515
f 427 280 407
f 62 501 401
f 501 62 446
f 402 385 303
f 359 403 358
f 359 430 403
f 430 359 360
f 360 431 430
f 295 447 331
f 447 295 364
f 332 404 364
f 367 467 444
f 348 476 515
f 476 348 369
f 404 332 370
f 448 297 371
f 448 371 298
f 313 333 421
f 438 241 329
f 292 433 386
f 398 385 402
f 316 449 380
f 449 316 485
f 450 315 411
f 412 411 315
f 315 223 412
f 379 412 223
f 541 513 70
f 70 274 541
f 282 512 274
f 382 381 413
f 410 511 387
f 387 302 410
f 510 275 387
f 510 414 275
f 344 414 465
f 415 347 346
f 416 269 377
f 358 452 373
f 373 336 358
f 418 373 452
f 422 314 463
f 382 413 393
f 334 500 333
f 459 394 422
f 424 389 406
f 330 362 499
f 330 499 498
f 397 330 498
f 425 169 365
f 169 425 361
f 395 468 388
f 354 495 279
f 280 427 495
f 495 354 280
f 301 456 474
f 391 428 484
f 421 341 313
f 528 400 401
f 422 394 314
f 390 466 435
f 466 390 393
f 393 475 466
f 360 437 431
f 437 360 438
f 368 434 392
f 399 442 439
f 439 368 399
f 395 340 468
f 397 498 468
f 468 340 397
f 499 362 363
f 361 440 374
f 440 361 425
f 425 365 441
f 495 426 279
f 407 356 374
f 442 399 515
f 528 401 501
f 471 331 447
f 404 504 447
f 447 364 404
f 370 533 504
f 504 404 370
f 533 370 297
f 297 478 533
f 478 297 448
f 479 448 357
f 455 479 357
f 381 449 413
f 449 381 380
f 412 379 451
f 451 379 513
f 489 329 445
f 438 329 489
f 433 534 386
f 475 393 413
f 432 500 334
f 403 490 452
f 452 358 403
f 508 418 452
f 398 521 346
f 420 419 492
f 507 429 420
f 521 415 346
f 347 415 383
f 424 406 453
f 424 480 433
f 487 351 386
f 487 408 351
f 454 352 408
f 409 226 300
f 481 333 500
f 378 520 456
f 416 520 378
f 377 376 457
f 350 549 538
f 549 350 429
f 338 311 522
f 465 414 510
f 458 510 387
f 497 423 483
f 288 488 460
f 460 317 288
f 461 341 421
f 342 341 461
f 342 461 462
f 523 463 462
f 464 527 375
f 375 417 464
f 493 457 375
f 398 402 494
f 423 497 441
f 502 511 410
f 445 352 489
f 435 472 402
f 402 372 435
f 472 435 466
f 444 505 443
f 505 444 467
f 425 469 440
f 470 432 396
f 471 503 530
f 472 494 402
f 493 568 457
f 446 538 501
f 538 446 350
f 470 396 474
f 374 440 407
f 383 415 502
f 434 368 439
f 430 477 403
f 477 430 431
f 478 448 479
f 455 545 479
f 400 536 369
f 522 465 537
f 494 521 398
f 338 522 524
f 300 544 409
f 545 455 409
f 343 436 453
f 480 424 453
f 480 559 433
f 500 432 470
f 482 461 421
f 462 461 523
f 523 422 463
f 459 517 539
f 539 483 459
f 517 459 422
f 458 387 511
f 599 449 485
f 450 486 485
f 411 486 450
f 548 411 412
f 412 514 548
f 512 541 274
f 386 534 487
f 519 416 377
f 416 519 520
f 441 497 526
f 490 508 452
f 492 508 491
f 492 507 420
f 436 460 496
f 464 417 542
f 493 375 527
f 550 415 521
f 563 300 426
f 437 438 489
f 473 388 468
f 481 482 421
f 421 333 481
f 546 494 472
f 305 524 405
f 305 338 524
f 496 460 488
f 425 441 526
f 417 405 542
f 425 526 469
f 468 498 543
f 431 437 477
f 456 520 474
f 300 563 544
f 457 568 377
f 522 537 561
f 454 489 352
f 447 532 471
f 532 447 504
f 555 533 478
f 454 408 487
f 488 505 496
f 443 505 488
f 506 453 436
f 506 480 453
f 480 506 559
f 426 495 563
f 507 492 491
f 508 490 547
f 465 509 537
f 465 510 509
f 514 412 451
f 486 411 548
f 516 515 476
f 369 536 476
f 579 428 434
f 413 449 554
f 554 475 413
f 482 564 461
f 483 539 497
f 489 551 437
f 466 518 472
f 518 466 475
f 440 525 570
f 570 407 440
f 407 570 427
f 494 546 567
f 543 473 468
f 557 498 499
f 549 429 507
f 525 440 469
f 477 596 490
f 490 403 477
f 536 400 528
f 566 529 470
f 433 559 534
f 363 530 499
f 471 531 503
f 531 471 532
f 520 566 474
f 532 504 533
f 555 478 479
f 479 545 555
f 436 496 553
f 495 427 590
f 551 489 454
f 520 519 535
f 500 565 481
f 516 442 515
f 573 458 511
f 475 554 518
f 461 564 523
f 540 511 502
f 502 415 540
f 422 562 517
f 541 583 513
f 513 583 451
f 518 558 472
f 553 506 436
f 547 576 491
f 491 508 547
f 576 507 491
f 566 470 474
f 449 599 554
f 590 563 495
f 473 543 572
f 572 467 473
f 572 505 467
f 565 482 481
f 562 422 523
f 601 499 530
f 601 530 503
f 503 531 601
f 532 552 531
f 561 524 522
f 542 405 524
f 526 578 469
f 409 544 545
f 493 527 568
f 519 377 568
f 498 557 543
f 520 535 566
f 570 525 586
f 427 570 622
f 591 496 505
f 552 532 533
f 555 610 552
f 552 533 555
f 622 590 427
f 500 470 529
f 521 494 567
f 526 497 578
f 565 500 529
f 519 568 535
f 442 595 439
f 595 442 516
f 439 579 434
f 458 573 509
f 509 510 458
f 509 556 537
f 538 549 577
f 539 517 574
f 565 588 482
f 482 588 564
f 564 562 523
f 437 606 477
f 547 490 596
f 437 551 606
f 496 621 553
f 540 573 511
f 415 550 540
f 484 581 582
f 582 512 484
f 567 546 558
f 541 512 571
f 571 583 541
f 584 548 514
f 567 600 521
f 560 487 534
f 560 454 487
f 505 572 591
f 542 585 569
f 486 599 485
f 561 542 524
f 577 528 501
f 501 538 577
f 586 525 469
f 464 542 569
f 581 428 579
f 581 484 428
f 558 546 472
f 576 577 549
f 527 569 568
f 527 464 569
f 550 521 600
f 469 578 586
f 496 591 621
f 608 531 552
f 612 610 555
f 612 555 545
f 587 545 544
f 544 563 587
f 590 587 563
f 605 554 599
f 574 517 562
f 535 598 566
f 582 571 512
f 557 499 601
f 454 560 551
f 518 554 593
f 556 561 537
f 497 539 574
f 497 574 578
f 606 575 477
f 547 597 576
f 641 570 586
f 560 534 559
f 579 439 595
f 580 516 476
f 476 615 580
f 615 476 536
f 451 583 628
f 628 584 514
f 514 451 628
f 506 617 559
f 585 542 561
f 562 564 635
f 589 565 529
f 566 598 529
f 588 565 589
f 576 549 507
f 620 536 528
f 557 613 543
f 600 567 604
f 605 486 548
f 548 584 605
f 553 621 617
f 617 506 553
f 607 601 531
f 607 531 608
f 552 609 608
f 609 552 610
f 631 573 540
f 558 592 567
f 554 605 593
f 562 635 574
f 551 560 633
f 570 641 622
f 593 558 518
f 614 556 509
f 509 573 614
f 576 629 577
f 576 597 629
f 606 653 575
f 477 575 596
f 551 633 606
f 545 602 612
f 638 595 516
f 638 516 580
f 616 582 581
f 597 547 596
f 568 569 611
f 568 611 535
f 535 611 598
f 617 560 559
f 560 617 640
f 640 633 560
f 572 543 613
f 585 561 556
f 639 579 595
f 564 603 635
f 601 594 557
f 602 545 587
f 603 564 588
f 615 536 620
f 583 632 628
f 571 632 583
f 486 605 599
f 578 618 586
f 634 591 572
f 591 634 621
f 626 589 529
f 529 598 626
f 613 557 594
f 597 596 662
f 573 631 614
f 642 558 593
f 595 638 639
f 592 604 567
f 629 597 650
f 636 587 590
f 636 602 587
f 636 590 622
f 613 634 572
f 550 600 540
f 642 592 558
f 607 594 601
f 575 662 596
f 574 619 578
f 619 574 635
f 618 641 586
f 578 619 618
f 653 606 633
f 607 608 623
f 624 609 610
f 610 625 624
f 625 610 612
f 593 605 645
f 616 571 582
f 620 528 577
f 598 664 626
f 650 597 662
f 651 635 603
f 615 627 580
f 656 598 611
f 650 646 629
f 581 639 616
f 605 630 645
f 631 540 600
f 556 614 585
f 594 607 623
f 612 602 625
f 627 615 620
f 656 611 569
f 620 577 629
f 616 632 571
f 628 632 649
f 639 581 579
f 630 605 584
f 634 617 621
f 593 645 642
f 630 584 628
f 614 644 585
f 656 569 585
f 657 603 588
f 588 589 657
f 637 609 624
f 637 608 609
f 608 637 623
f 638 580 627
f 661 639 638
f 598 656 664
f 613 594 675
f 641 636 622
f 614 643 644
f 643 614 631
f 592 642 669
f 626 657 589
f 575 670 662
f 592 669 604
f 646 620 629
f 675 594 623
f 646 627 620
f 658 641 618
f 670 575 653
f 665 634 613
f 634 681 617
f 643 631 600
f 637 624 659
f 624 660 659
f 672 651 603
f 625 660 624
f 650 662 695
f 647 638 627
f 638 647 663
f 663 661 638
f 639 661 648
f 648 616 639
f 632 616 648
f 660 625 602
f 665 613 675
f 657 626 664
f 619 652 618
f 635 651 619
f 630 628 649
f 652 658 618
f 654 643 604
f 643 600 604
f 681 634 665
f 643 654 671
f 667 602 636
f 647 627 646
f 642 645 669
f 655 669 645
f 645 630 655
f 667 636 641
f 641 658 667
f 654 604 669
f 649 632 648
f 644 656 585
f 690 665 675
f 617 681 679
f 679 640 617
f 650 695 678
f 657 672 603
f 656 644 666
f 656 666 668
f 659 680 637
f 637 680 623
f 658 652 686
f 643 671 644
f 652 619 651
f 664 656 668
f 655 630 649
f 646 650 678
f 653 633 640
f 602 667 660
f 661 663 676
f 673 663 647
f 640 679 653
f 677 655 649
f 674 652 651
f 676 648 661
f 646 678 673
f 673 647 646
f 685 686 652
f 670 695 662
f 665 690 681
f 673 687 663
f 644 671 666
f 667 693 660
f 704 623 680
f 669 655 698
f 669 698 654
f 675 623 704
f 674 651 672
f 652 674 685
f 678 695 684
f 667 658 686
f 648 676 677
f 677 649 648
f 683 682 664
f 664 668 683
f 688 676 663
f 692 679 681
f 706 659 660
f 660 693 706
f 682 657 664
f 689 673 678
f 653 679 670
f 667 686 693
f 676 688 677
f 696 679 692
f 703 680 659
f 666 701 668
f 673 689 694
f 694 687 673
f 678 684 689
f 681 690 692
f 687 688 663
f 670 696 695
f 675 704 690
f 686 685 693
f 685 674 691
f 672 700 674
f 672 682 700
f 682 672 657
f 710 666 699
f 699 666 671
f 659 706 703
f 696 670 679
f 699 654 698
f 654 699 671
f 688 697 677
f 666 710 701
f 695 696 684
f 702 685 691
f 689 717 694
f 677 697 719
f 719 655 677
f 684 717 689
f 683 668 701
f 702 720 685
f 698 655 719
f 715 688 687
f 712 690 704
f 696 692 711
f 690 705 692
f 705 690 712
f 712 680 703
f 674 700 691
f 708 687 694
f 696 709 684
f 716 683 701
f 720 693 685
f 688 715 697
f 707 700 682
f 708 715 687
f 708 694 717
f 680 712 704
f 682 683 707
f 709 717 684
f 710 716 701
f 707 683 716
f 723 698 719
f 693 720 706
f 691 714 702
f 705 711 692
f 718 705 712
f 711 709 696
f 699 698 723
f 700 729 691
f 715 708 713
f 725 719 697
f 711 722 709
f 717 726 708
f 717 709 733
f 731 711 705
f 706 724 703
f 715 713 697
f 691 729 714
f 700 707 729
f 723 710 699
f 703 724 712
f 733 709 722
f 705 718 727
f 707 736 729
f 697 713 725
f 732 716 710
f 724 706 721
f 736 707 716
f 720 721 706
f 712 724 718
f 731 722 711
f 731 705 727
f 710 723 732
f 716 732 736
f 730 713 708
f 719 725 723
f 725 732 723
f 717 733 726
f 730 708 726
f 720 702 734
f 722 731 733
f 702 714 734
f 718 728 727
f 737 713 730
f 724 721 728
f 720 734 721
f 735 734 714
f 727 733 731
f 718 724 728
f 734 740 721
f 733 727 726
f 736 732 739
f 726 738 730
f 727 738 726
f 725 739 732
f 736 714 729
f 735 714 736
f 728 738 727
f 739 735 736
f 738 737 730
f 740 728 721
f 728 740 738
f 713 737 739
f 713 739 725
f 740 734 735
f 737 740 739
f 740 735 739
f 737 738 740
f 742 1604 743
f 743 744 742
f 744 743 745
f 745 746 744
f 746 745 747
f 748 945 747
f 748 916 945
f 916 748 749
f 749 750 916
f 750 749 1606
f 1606 751 750
f 751 1606 1607
f 1607 752 751
f 752 1607 1608
f 1608 753 752
f 753 1608 1609
f 753 1609 1610
f 754 917 1610
f 917 754 755
f 756 757 755
f 757 756 1611
f 1611 758 757
f 758 1611 759
f 761 762 760
f 762 761 1612
f 1612 763 762
f 763 1612 1613
f 763 1613 1614
f 1614 921 763
f 921 1614 764
f 1615 922 764
f 1615 765 922
f 766 765 767
f 766 767 768
f 769 1616 912
f 1616 770 912
f 911 912 770
f 770 771 911
f 910 911 771
f 772 910 771
f 909 772 773
f 908 909 773
f 774 777 775
f 776 775 777
f 1618 776 777
f 777 1617 1618
f 1619 906 1618
f 906 1619 1521
f 1521 778 906
f 778 1521 1620
f 1620 779 778
f 779 1620 780
f 780 905 779
f 905 780 781
f 783 781 782
f 782 784 783
f 1047 783 784
f 1035 1047 784
f 784 1525 1035
f 785 1035 1525
f 1525 786 785
f 787 785 786
f 786 1621 787
f 788 1623 991
f 903 991 1623
f 903 1623 789
f 1624 903 789
f 1624 790 903
f 790 1624 791
f 791 902 790
f 902 791 1625
f 792 902 1625
f 792 1626 994
f 1626 1627 994
f 901 994 1627
f 901 1627 1628
f 1628 793 901
f 793 1628 794
f 794 1629 900
f 900 793 794
f 900 1629 795
f 795 899 900
f 898 899 795
f 795 796 898
f 897 898 796
f 796 1630 897
f 896 897 1630
f 1630 1631 896
f 797 896 1631
f 1631 1632 797
f 987 797 1632
f 1632 798 987
f 895 798 1633
f 1633 1546 895
f 1546 894 895
f 799 981 894
f 799 1634 893
f 892 893 1634
f 892 1635 800
f 801 891 800
f 891 801 802
f 803 1026 890
f 890 802 803
f 803 804 1026
f 888 889 805
f 805 1636 888
f 1636 806 888
f 807 888 806
f 808 807 806
f 806 1637 808
f 808 1637 1638
f 810 1638 809
f 809 812 810
f 811 810 812
f 812 813 811
f 813 812 1640
f 1640 814 813
f 814 1640 1641
f 1641 815 814
f 815 1641 884
f 1564 951 816
f 951 1564 1642
f 1642 886 951
f 1643 817 1565
f 1643 940 817
f 940 1643 1644
f 940 1644 818
f 818 1645 955
f 955 1645 819
f 1646 960 819
f 1646 820 960
f 820 1646 1571
f 820 1571 821
f 823 822 821
f 823 824 822
f 824 823 1647
f 1647 825 824
f 1647 826 825
f 963 825 826
f 826 827 963
f 828 963 827
f 827 829 828
f 964 828 829
f 829 830 964
f 831 938 1649
f 1649 1581 831
f 832 831 1581
f 832 1650 999
f 958 999 1650
f 1650 1651 958
f 1651 1652 936
f 833 936 1652
f 833 1653 935
f 1653 1654 935
f 834 836 835
f 837 835 836
f 836 838 837
f 839 837 838
f 838 1655 839
f 1655 1590 839
f 839 1590 840
f 882 839 840
f 840 841 882
f 882 841 842
f 842 1042 882
f 842 843 1042
f 843 842 844
f 843 844 845
f 845 846 843
f 846 845 847
f 846 847 848
f 848 849 846
f 849 848 850
f 851 849 850
f 850 852 851
f 851 852 853
f 853 854 851
f 854 853 855
f 854 855 1657
f 1657 856 854
f 929 856 1657
f 1657 857 929
f 928 929 857
f 857 858 928
f 927 928 858
f 858 859 927
f 859 860 927
f 861 927 860
f 862 861 860
f 860 863 862
f 864 862 863
f 863 865 864
f 866 864 865
f 866 867 975
f 867 868 975
f 870 975 868
f 868 869 870
f 869 1483 870
f 871 870 1483
f 1483 1660 871
f 1660 872 871
f 873 871 872
f 872 874 873
f 876 873 874
f 874 875 876
f 924 876 875
f 875 877 924
f 879 924 877
f 877 878 879
f 878 880 879
f 913 879 880
f 880 1665 913
f 1665 881 913
f 742 913 881
f 742 881 1604
f 810 883 808
f 808 1638 810
f 883 810 811
f 93 885 884
f 816 951 885
f 885 93 816
f 882 887 837
f 837 839 882
f 883 984 807
f 807 808 883
f 887 971 835
f 835 837 887
f 888 807 984
f 889 888 983
f 889 982 805
f 804 805 982
f 1026 804 982
f 891 802 890
f 893 981 799
f 895 987 798
f 987 988 797
f 988 896 797
f 991 1033 788
f 1033 787 1621
f 1621 788 1033
f 904 781 783
f 781 904 1002
f 781 1002 905
f 776 1618 906
f 775 907 774
f 774 907 908
f 909 978 772
f 910 772 978
f 957 769 912
f 957 768 769
f 742 914 913
f 914 742 744
f 744 915 914
f 915 744 746
f 747 944 746
f 944 747 945
f 751 752 946
f 946 750 751
f 1610 917 1013
f 1013 753 1610
f 755 918 917
f 918 755 757
f 757 919 918
f 758 919 757
f 759 920 919
f 919 758 759
f 920 759 760
f 920 760 762
f 764 922 921
f 922 765 766
f 923 766 768
f 768 957 923
f 1083 924 879
f 876 924 925
f 925 926 876
f 873 876 926
f 975 870 974
f 975 976 866
f 864 866 976
f 862 864 1039
f 1082 854 856
f 1082 930 854
f 930 851 854
f 851 930 931
f 851 931 932
f 932 849 851
f 849 932 933
f 933 846 849
f 934 843 846
f 1654 834 972
f 971 972 834
f 834 835 971
f 935 1654 972
f 935 973 833
f 833 973 942
f 942 936 833
f 958 1651 936
f 831 832 937
f 999 937 832
f 965 1005 830
f 830 938 965
f 964 830 1005
f 964 1006 828
f 1006 963 828
f 822 961 821
f 820 821 961
f 820 961 960
f 819 960 956
f 955 819 956
f 1008 939 818
f 818 955 1008
f 940 818 939
f 1565 817 886
f 886 1642 1565
f 914 941 913
f 915 943 941
f 941 914 915
f 746 944 943
f 943 915 746
f 750 946 916
f 1039 864 976
f 811 947 984
f 984 883 811
f 947 811 813
f 947 813 814
f 752 948 946
f 753 1080 948
f 948 752 753
f 1080 753 1013
f 949 763 921
f 921 950 949
f 950 921 922
f 884 885 1063
f 1063 815 884
f 952 951 886
f 886 953 952
f 886 954 953
f 954 886 817
f 817 1065 954
f 1065 817 940
f 940 939 1065
f 950 922 766
f 766 923 950
f 958 936 959
f 942 959 936
f 961 822 1066
f 962 824 825
f 825 963 962
f 966 965 938
f 938 831 966
f 1039 1038 862
f 861 862 1038
f 1038 1037 927
f 927 861 1038
f 928 927 1037
f 856 929 928
f 967 1082 856
f 856 928 967
f 932 931 968
f 968 933 932
f 906 969 776
f 969 970 776
f 970 1003 775
f 775 776 970
f 775 1003 907
f 971 887 1010
f 882 1042 887
f 843 934 1042
f 934 846 933
f 972 973 935
f 941 995 913
f 879 913 995
f 924 1059 925
f 926 1009 873
f 871 873 1009
f 870 871 1009
f 1009 974 870
f 908 907 977
f 977 1021 909
f 909 908 977
f 978 909 1021
f 978 1020 910
f 1020 1019 910
f 911 910 1019
f 911 1019 1018
f 979 912 911
f 979 957 912
f 778 980 969
f 980 778 779
f 905 1001 980
f 980 779 905
f 905 1002 1001
f 904 783 1047
f 981 893 1023
f 1070 1023 893
f 893 892 1070
f 892 1024 1070
f 891 1024 892
f 892 800 891
f 982 889 1028
f 983 1028 889
f 984 983 888
f 981 985 894
f 895 894 985
f 987 895 986
f 989 1030 897
f 897 896 989
f 898 897 1030
f 1030 990 898
f 899 898 990
f 937 999 1074
f 937 966 831
f 902 992 790
f 902 993 992
f 792 994 993
f 993 902 792
f 1031 901 793
f 793 900 1031
f 900 899 1031
f 947 1029 984
f 947 996 1029
f 969 906 778
f 814 998 996
f 996 947 814
f 998 814 815
f 1010 887 1042
f 991 903 1073
f 998 815 1063
f 951 952 885
f 933 1078 934
f 933 968 1078
f 995 941 943
f 944 1000 943
f 945 1079 1000
f 1000 944 945
f 959 942 997
f 980 1043 970
f 970 969 980
f 980 1044 1043
f 1044 980 1001
f 1002 904 1047
f 879 995 1040
f 1040 1083 879
f 1004 958 959
f 999 958 1004
f 1005 1068 964
f 1006 964 1068
f 1006 1092 963
f 962 963 1092
f 1066 822 824
f 1066 1007 961
f 960 961 1007
f 956 960 1007
f 1007 1094 956
f 1094 1008 955
f 955 956 1094
f 925 1059 1089
f 1089 926 925
f 1009 1090 974
f 975 974 1090
f 976 975 1090
f 972 971 1010
f 1010 1011 973
f 973 972 1010
f 973 1011 942
f 1041 916 946
f 1012 946 948
f 918 1014 1013
f 1013 917 918
f 919 1015 1014
f 1014 918 919
f 1015 919 920
f 920 1016 1015
f 1016 920 762
f 1016 762 763
f 949 1017 1016
f 1016 763 949
f 1017 949 950
f 950 1053 1017
f 1053 950 923
f 957 979 1054
f 1018 979 911
f 1021 1020 978
f 916 1041 945
f 966 937 1022
f 931 1036 968
f 1024 891 1025
f 891 890 1025
f 1026 1025 890
f 1026 982 1027
f 1028 1027 982
f 1028 983 1029
f 985 981 1023
f 985 986 895
f 986 1056 987
f 988 987 1056
f 988 989 896
f 899 990 1055
f 899 1055 1031
f 901 1031 1032
f 1084 1034 787
f 1033 1084 787
f 991 1073 1072
f 1072 1033 991
f 1034 785 787
f 785 1034 1035
f 1036 931 930
f 967 928 1037
f 1032 993 994
f 994 901 1032
f 790 992 1073
f 1073 903 790
f 1040 995 943
f 1003 970 1043
f 1003 977 907
f 1079 945 1041
f 983 984 1029
f 1040 943 1000
f 1041 946 1012
f 948 1080 1012
f 1001 1045 1044
f 1045 1001 1002
f 1090 1060 976
f 1002 1046 1045
f 1046 1002 1047
f 968 1112 1078
f 942 1049 997
f 1048 1013 1014
f 1050 1014 1015
f 1016 1051 1050
f 1050 1015 1016
f 1051 1016 1017
f 1017 1052 1051
f 1052 1017 1053
f 1098 1053 923
f 957 1054 1098
f 1098 923 957
f 1018 1097 1130
f 1130 979 1018
f 1097 1018 1019
f 1019 1020 1135
f 1020 1136 1135
f 1136 1020 1021
f 1106 1136 1021
f 1021 977 1106
f 990 1030 1123
f 1124 1030 989
f 1099 1124 989
f 1099 989 988
f 1099 988 1056
f 1119 1056 986
f 1036 930 1082
f 1149 968 1036
f 1042 1057 1010
f 1057 1058 1011
f 1011 1010 1057
f 1059 924 1083
f 1039 976 1060
f 1060 1037 1038
f 1038 1039 1060
f 1058 1049 1011
f 942 1011 1049
f 1027 1028 1061
f 1029 1061 1028
f 1088 1026 1027
f 1088 1025 1026
f 1062 1024 1025
f 1087 1063 885
f 1087 885 952
f 1087 952 953
f 954 1064 953
f 1065 1064 954
f 939 1095 1065
f 1095 939 1008
f 1094 1095 1008
f 1067 1066 824
f 824 962 1067
f 1091 1067 962
f 1068 1092 1006
f 1068 1005 1069
f 1005 965 1069
f 1004 1074 999
f 1070 1024 1062
f 985 1023 1071
f 986 985 1071
f 1134 967 1037
f 967 1134 1151
f 1022 937 1074
f 1096 1082 967
f 966 1069 965
f 996 1138 1029
f 1000 1103 1040
f 1032 1031 1075
f 1143 1047 1035
f 1043 1076 1003
f 934 1146 1057
f 1057 1042 934
f 1076 1043 1044
f 1044 1077 1076
f 1077 1044 1045
f 1045 1115 1077
f 1115 1045 1046
f 1047 1143 1046
f 1146 934 1078
f 1003 1106 977
f 1041 1105 1079
f 1105 1041 1012
f 1012 1166 1105
f 1166 1012 1080
f 1080 1013 1048
f 1107 1014 1050
f 1081 1050 1051
f 1051 1132 1081
f 1052 1131 1132
f 1132 1051 1052
f 1096 1036 1082
f 1004 959 997
f 1083 1040 1103
f 1033 1072 1116
f 1116 1084 1033
f 1034 1143 1035
f 1060 1085 1037
f 1085 1134 1037
f 998 1086 996
f 998 1063 1086
f 953 1142 1087
f 1142 953 1064
f 1064 1065 1141
f 1114 1025 1088
f 1025 1114 1062
f 1089 1120 926
f 1009 926 1120
f 1090 1009 1120
f 1149 1036 1096
f 1149 1112 968
f 1092 1091 962
f 1066 1093 1007
f 1093 1094 1007
f 1119 986 1071
f 1019 1135 1097
f 1054 979 1130
f 1131 1053 1098
f 1131 1052 1053
f 1075 1031 1055
f 1123 1030 1124
f 1022 1074 1133
f 967 1151 1096
f 1070 1100 1023
f 1071 1023 1100
f 993 1108 1127
f 1127 992 993
f 993 1032 1108
f 1032 1075 1108
f 992 1127 1101
f 1101 1073 992
f 1101 1072 1073
f 1072 1101 1102
f 1106 1003 1076
f 1000 1079 1103
f 1104 1103 1079
f 1104 1079 1105
f 1080 1165 1166
f 1076 1077 1222
f 1165 1080 1048
f 1048 1107 1165
f 1107 1048 1014
f 1088 1027 1061
f 1061 1176 1088
f 1086 1063 1087
f 1107 1050 1081
f 997 1109 1004
f 1110 1109 997
f 997 1049 1110
f 1111 1110 1049
f 1049 1058 1111
f 1057 1111 1058
f 1146 1111 1057
f 1076 1222 1106
f 1116 1072 1102
f 1113 1115 1046
f 1114 1170 1062
f 1077 1115 1179
f 1116 1143 1084
f 1034 1084 1143
f 1083 1103 1117
f 1103 1167 1117
f 1117 1137 1059
f 1059 1083 1117
f 1100 1118 1071
f 1119 1071 1118
f 1056 1119 1139
f 1139 1099 1056
f 1137 1120 1089
f 1090 1120 1121
f 1121 1122 1090
f 1060 1090 1122
f 1122 1152 1060
f 1125 1055 990
f 990 1123 1125
f 1125 1075 1055
f 1075 1125 1126
f 1068 1069 1162
f 1162 1148 1068
f 1148 1092 1068
f 1148 1128 1091
f 1091 1092 1148
f 1128 1129 1067
f 1067 1091 1128
f 1066 1067 1129
f 1093 1066 1129
f 1074 1004 1133
f 1134 1085 1177
f 1098 1157 1181
f 1157 1098 1054
f 1181 1131 1098
f 1097 1135 1158
f 1158 1130 1097
f 1089 1059 1137
f 1138 1176 1061
f 1061 1029 1138
f 1139 1124 1099
f 1093 1140 1094
f 1095 1094 1140
f 1141 1065 1095
f 1141 1142 1064
f 1109 1133 1004
f 1149 1144 1112
f 1222 1077 1179
f 1108 1075 1126
f 1109 1110 1145
f 1110 1111 1145
f 1078 1147 1146
f 1147 1078 1112
f 1129 1212 1093
f 1141 1095 1150
f 1095 1140 1150
f 1046 1143 1113
f 1086 1153 1238
f 1238 996 1086
f 1238 1196 1138
f 1138 996 1238
f 1177 1151 1134
f 1152 741 1085
f 1085 1060 1152
f 1087 1142 1153
f 1142 1141 1150
f 1087 1153 1086
f 1114 1172 1170
f 1154 1135 1136
f 1116 1186 1155
f 1155 1143 1116
f 1202 1186 1116
f 1116 1102 1202
f 1156 1131 1181
f 1054 1130 1157
f 1213 1130 1158
f 1158 1135 1154
f 1131 1156 1159
f 1131 1159 1183
f 1132 1131 1183
f 1123 1232 1160
f 1160 1125 1123
f 1232 1123 1124
f 1139 1232 1124
f 1125 1160 1161
f 1161 1126 1125
f 1180 1148 1162
f 1163 1184 1107
f 1107 1081 1163
f 1164 1081 1132
f 1107 1184 1165
f 1105 1166 1104
f 1167 1103 1104
f 1173 1168 1133
f 1117 1207 1137
f 1022 1133 1168
f 1101 1126 1193
f 1126 1101 1127
f 1126 1127 1108
f 1101 1193 1202
f 1202 1102 1101
f 1119 1118 1169
f 1174 1169 1118
f 1174 1118 1100
f 1170 1174 1100
f 1100 1070 1170
f 1170 1070 1062
f 1121 1120 1171
f 1120 1137 1171
f 1113 1175 1179
f 1179 1115 1113
f 1114 1088 1172
f 1139 1119 1169
f 1069 966 1162
f 1138 1196 1176
f 1133 1109 1173
f 1085 741 1177
f 1206 1148 1180
f 1183 1164 1132
f 1179 1250 1222
f 1144 1149 1096
f 1172 1088 1176
f 1207 1171 1137
f 1109 1145 1173
f 1225 1173 1145
f 1111 1201 1145
f 1140 1093 1212
f 1106 1222 1136
f 1146 1201 1111
f 1170 1215 1174
f 1174 1215 1194
f 1203 1151 1177
f 1205 1150 1140
f 1167 1207 1117
f 1178 1179 1175
f 1214 1156 1181
f 1213 1157 1130
f 1159 1156 1182
f 1182 1183 1159
f 1165 1184 1198
f 1198 1166 1165
f 1198 1104 1166
f 1104 1198 1167
f 1112 1144 1147
f 1146 1147 1201
f 1161 1160 1185
f 1113 1143 1155
f 1128 1148 1206
f 1206 1187 1129
f 1129 1128 1206
f 1129 1187 1228
f 1228 1212 1129
f 1081 1164 1188
f 1188 1163 1081
f 1172 1189 1216
f 1216 1170 1172
f 1199 1022 1168
f 1199 1162 966
f 966 1022 1199
f 1190 1200 1122
f 1122 1121 1190
f 1121 1171 1190
f 1191 1190 1171
f 1152 1122 1200
f 1222 1154 1136
f 1144 1192 1147
f 1126 1161 1209
f 1126 1209 1193
f 1177 741 1219
f 1204 741 1152
f 1144 1195 1192
f 1150 1153 1142
f 1199 1180 1162
f 1144 1096 1195
f 1164 1183 1197
f 1194 1169 1174
f 1175 1113 1155
f 1163 1208 1184
f 1195 1096 1151
f 1266 1191 1171
f 1196 1189 1172
f 1172 1176 1196
f 1201 1225 1145
f 1177 1219 1203
f 1186 1211 1155
f 1147 1245 1201
f 1152 1200 1204
f 1227 1187 1206
f 1184 1208 1286
f 1286 1198 1184
f 1164 1197 1188
f 1185 1209 1161
f 1193 1209 1210
f 1210 1202 1193
f 1202 1210 1223
f 1237 1160 1232
f 1160 1237 1236
f 1236 1185 1160
f 1223 1211 1186
f 1186 1202 1223
f 1212 1205 1140
f 1158 1246 1213
f 1246 1158 1154
f 1214 1157 1213
f 1214 1181 1157
f 1216 1215 1170
f 1180 1235 1217
f 1199 1168 1235
f 1191 1218 1190
f 1200 1190 1218
f 1179 1178 1250
f 741 1204 1219
f 1257 1183 1182
f 1182 1220 1257
f 1220 1182 1156
f 1156 1221 1220
f 1221 1156 1214
f 1154 1222 1224
f 1195 1244 1256
f 1256 1192 1195
f 1194 1139 1169
f 1139 1194 1239
f 1252 1153 1150
f 1198 1240 1167
f 1173 1283 1235
f 1235 1168 1173
f 1206 1180 1217
f 1147 1192 1245
f 1183 1257 1197
f 1246 1154 1224
f 1216 1242 1215
f 1163 1188 1208
f 1251 1178 1175
f 1198 1286 1240
f 1194 1215 1241
f 1236 1226 1185
f 1205 1252 1150
f 1151 1244 1195
f 1244 1151 1203
f 1203 1219 1244
f 1175 1155 1211
f 1248 1214 1213
f 1248 1213 1246
f 1206 1217 1227
f 1240 1266 1207
f 1207 1167 1240
f 1250 1224 1222
f 1171 1207 1266
f 1235 1180 1199
f 1185 1226 1210
f 1210 1209 1185
f 1229 1223 1210
f 1216 1189 1231
f 1200 1218 1233
f 1233 1254 1204
f 1204 1200 1233
f 1220 1234 1294
f 1294 1257 1220
f 1234 1220 1221
f 1188 1253 1276
f 1253 1188 1197
f 1261 1253 1197
f 1178 1260 1250
f 1204 1262 1219
f 1288 1153 1252
f 1153 1288 1238
f 1271 1218 1191
f 1239 1194 1241
f 1265 1258 1212
f 1265 1212 1228
f 1205 1212 1258
f 1175 1211 1251
f 1231 1230 1216
f 1242 1216 1230
f 1260 1178 1243
f 1215 1242 1241
f 1178 1251 1243
f 1225 1283 1173
f 1197 1257 1261
f 1214 1247 1221
f 1214 1267 1247
f 1267 1214 1248
f 1248 1268 1267
f 1232 1139 1239
f 1271 1191 1266
f 1208 1188 1276
f 1249 1226 1236
f 1187 1227 1272
f 1228 1187 1272
f 1265 1228 1272
f 1233 1218 1271
f 1270 1231 1189
f 1196 1288 1270
f 1270 1189 1196
f 1237 1232 1239
f 1211 1223 1251
f 1229 1210 1226
f 1226 1249 1229
f 1221 1247 1234
f 1239 1241 1255
f 1295 1201 1245
f 1244 1263 1256
f 1284 1249 1236
f 1236 1237 1284
f 1269 1205 1258
f 1239 1255 1284
f 1225 1201 1295
f 1259 1227 1217
f 1275 1259 1217
f 1292 1260 1243
f 1279 1223 1229
f 1263 1244 1219
f 1219 1262 1263
f 1248 1246 1268
f 1246 1224 1289
f 1196 1238 1288
f 1252 1318 1288
f 1252 1205 1307
f 1250 1260 1289
f 1289 1224 1250
f 1306 1286 1208
f 1284 1237 1239
f 1270 1305 1231
f 1233 1271 1287
f 1287 1254 1233
f 1249 1284 1285
f 1285 1264 1249
f 1259 1272 1227
f 1265 1272 1293
f 1241 1242 1273
f 1241 1273 1274
f 1241 1274 1255
f 1251 1223 1290
f 1251 1290 1291
f 1367 1294 1234
f 1229 1249 1280
f 1249 1264 1280
f 1235 1283 1275
f 1277 1276 1253
f 1284 1255 1285
f 1253 1261 1277
f 1208 1278 1306
f 1229 1280 1279
f 1269 1307 1205
f 1297 1258 1265
f 1297 1281 1258
f 1275 1217 1235
f 1230 1310 1273
f 1273 1242 1230
f 1290 1223 1279
f 1303 1282 1280
f 1262 1204 1254
f 1303 1280 1264
f 1257 1294 1261
f 1278 1208 1276
f 1293 1297 1265
f 1251 1291 1243
f 1267 1327 1247
f 1267 1301 1327
f 1301 1267 1268
f 1281 1325 1269
f 1269 1258 1281
f 1256 1295 1192
f 1263 1262 1315
f 1295 1245 1192
f 1271 1304 1287
f 1271 1266 1304
f 1289 1268 1246
f 1310 1274 1273
f 1243 1291 1292
f 1277 1353 1278
f 1278 1276 1277
f 1240 1286 1298
f 1298 1266 1240
f 1287 1323 1254
f 1299 1264 1285
f 1264 1299 1303
f 1280 1282 1279
f 1252 1307 1318
f 1305 1230 1231
f 1298 1304 1266
f 1367 1349 1294
f 1261 1294 1277
f 1255 1299 1285
f 1310 1230 1305
f 1295 1300 1225
f 1234 1379 1367
f 1279 1302 1330
f 1330 1290 1279
f 1263 1315 1313
f 1300 1283 1225
f 1323 1287 1304
f 1247 1379 1234
f 1247 1327 1379
f 1298 1286 1306
f 1317 1307 1269
f 1330 1291 1290
f 1308 1259 1275
f 1309 1293 1272
f 1303 1312 1320
f 1320 1282 1303
f 1293 1309 1352
f 1318 1305 1270
f 1262 1254 1311
f 1311 1315 1262
f 1328 1312 1303
f 1303 1299 1328
f 1256 1263 1296
f 1323 1311 1254
f 1270 1288 1318
f 1319 1299 1255
f 1268 1329 1301
f 1293 1352 1297
f 1274 1319 1255
f 1294 1349 1277
f 1289 1329 1268
f 1278 1353 1350
f 1275 1283 1300
f 1256 1314 1295
f 1259 1308 1309
f 1309 1272 1259
f 1306 1278 1316
f 1317 1318 1307
f 1319 1274 1310
f 1310 1326 1319
f 1320 1312 1324
f 1343 1352 1309
f 1304 1316 1321
f 1311 1323 1322
f 1321 1323 1304
f 1313 1296 1263
f 1328 1334 1324
f 1312 1328 1324
f 1325 1317 1269
f 1304 1298 1316
f 1292 1289 1260
f 1275 1300 1360
f 1333 1326 1310
f 1310 1305 1333
f 1319 1328 1299
f 1330 1371 1291
f 1256 1296 1314
f 1332 1322 1323
f 1306 1316 1298
f 1316 1278 1350
f 1315 1391 1313
f 1335 1325 1281
f 1279 1282 1302
f 1349 1353 1277
f 1320 1302 1282
f 1320 1324 1331
f 1314 1300 1295
f 1347 1337 1324
f 1324 1334 1347
f 1332 1323 1321
f 1317 1325 1348
f 1309 1308 1386
f 1326 1333 1356
f 1328 1319 1334
f 1331 1302 1320
f 1315 1311 1391
f 1311 1345 1391
f 1345 1311 1322
f 1313 1368 1296
f 1305 1377 1333
f 1291 1371 1292
f 1342 1327 1301
f 1329 1358 1301
f 1302 1341 1330
f 1302 1331 1341
f 1308 1360 1344
f 1292 1329 1289
f 1337 1365 1324
f 1336 1319 1326
f 1336 1334 1319
f 1334 1339 1347
f 1341 1340 1330
f 1300 1314 1360
f 1308 1275 1360
f 1336 1326 1356
f 1349 1367 1362
f 1391 1368 1313
f 1343 1309 1386
f 1318 1377 1305
f 1297 1352 1281
f 1340 1371 1330
f 1379 1411 1367
f 1345 1322 1354
f 1377 1318 1317
f 1359 1332 1321
f 1321 1382 1359
f 1321 1350 1382
f 1321 1316 1350
f 1329 1292 1371
f 1360 1314 1351
f 1324 1365 1331
f 1322 1332 1338
f 1346 1337 1347
f 1347 1339 1361
f 1351 1314 1296
f 1368 1351 1296
f 1308 1390 1386
f 1338 1354 1322
f 1348 1355 1377
f 1377 1317 1348
f 1333 1377 1356
f 1335 1384 1325
f 1339 1334 1336
f 1336 1375 1339
f 1336 1376 1375
f 1338 1332 1359
f 1331 1373 1341
f 1347 1361 1346
f 1348 1325 1384
f 1337 1369 1365
f 1376 1336 1356
f 1371 1358 1329
f 1327 1363 1379
f 1363 1327 1342
f 1370 1388 1345
f 1361 1339 1364
f 1370 1345 1354
f 1343 1383 1407
f 1407 1352 1343
f 1331 1365 1373
f 1341 1373 1340
f 1339 1375 1364
f 1384 1366 1357
f 1357 1348 1384
f 1387 1301 1358
f 1301 1387 1342
f 1369 1337 1346
f 1390 1308 1344
f 1361 1364 1380
f 1380 1346 1361
f 1340 1373 1372
f 1391 1398 1368
f 1354 1393 1370
f 1344 1360 1351
f 1373 1365 1369
f 1346 1380 1369
f 1398 1351 1368
f 1386 1390 1392
f 1338 1393 1354
f 1338 1359 1385
f 1357 1355 1348
f 1384 1378 1366
f 1281 1352 1335
f 1388 1391 1345
f 1391 1388 1422
f 1390 1344 1389
f 1362 1410 1353
f 1362 1353 1349
f 1381 1372 1373
f 1338 1385 1393
f 1389 1344 1351
f 1340 1358 1371
f 1340 1372 1358
f 1389 1351 1398
f 1374 1363 1342
f 1374 1342 1387
f 1400 1362 1367
f 1350 1353 1382
f 1399 1369 1380
f 1421 1388 1370
f 1408 1375 1376
f 1394 1384 1335
f 1356 1377 1355
f 1366 1405 1357
f 1380 1364 1397
f 1352 1440 1335
f 1440 1352 1407
f 1376 1356 1355
f 1410 1395 1382
f 1382 1353 1410
f 1385 1396 1393
f 1398 1403 1389
f 1404 1372 1381
f 1420 1379 1363
f 1418 1399 1380
f 1343 1392 1383
f 1392 1343 1386
f 1370 1393 1427
f 1397 1364 1375
f 1375 1419 1397
f 1408 1376 1405
f 1406 1375 1408
f 1419 1375 1406
f 1405 1376 1355
f 1378 1384 1394
f 1395 1359 1382
f 1395 1385 1359
f 1390 1389 1403
f 1402 1373 1369
f 1405 1355 1357
f 1399 1402 1369
f 1416 1402 1399
f 1387 1358 1372
f 1397 1401 1418
f 1418 1380 1397
f 1393 1413 1427
f 1425 1396 1385
f 1373 1402 1381
f 1402 1409 1381
f 1390 1412 1392
f 1390 1403 1412
f 1396 1413 1393
f 1404 1387 1372
f 1404 1374 1387
f 1401 1397 1419
f 1420 1363 1434
f 1442 1388 1421
f 1406 1408 1415
f 1424 1416 1399
f 1335 1441 1394
f 1381 1409 1404
f 1401 1426 1418
f 1398 1422 1403
f 1410 1362 1400
f 1434 1363 1374
f 1416 1409 1402
f 1422 1398 1391
f 1367 1411 1400
f 1423 1374 1404
f 1425 1385 1395
f 1370 1427 1421
f 1404 1409 1423
f 1424 1399 1418
f 1378 1415 1366
f 1433 1410 1400
f 1408 1405 1415
f 1335 1440 1441
f 1434 1374 1423
f 1395 1410 1433
f 1406 1432 1443
f 1419 1406 1443
f 1417 1416 1424
f 1429 1392 1412
f 1414 1400 1411
f 1383 1392 1429
f 1415 1405 1366
f 1409 1435 1423
f 1427 1430 1421
f 1422 1388 1442
f 1406 1415 1432
f 1435 1409 1416
f 1432 1415 1378
f 1419 1443 1401
f 1426 1424 1418
f 1411 1420 1414
f 1425 1395 1433
f 1416 1417 1435
f 1400 1414 1433
f 1420 1411 1379
f 1427 1413 1428
f 1430 1442 1421
f 1383 1429 1449
f 1447 1440 1407
f 1443 1444 1401
f 1444 1426 1401
f 1383 1449 1407
f 1396 1431 1437
f 1437 1413 1396
f 1378 1394 1432
f 1407 1449 1447
f 1465 1440 1447
f 1424 1426 1417
f 1420 1434 1458
f 1444 1417 1426
f 1435 1417 1436
f 1422 1438 1429
f 1429 1403 1422
f 1428 1413 1437
f 1430 1455 1442
f 1451 1427 1428
f 1446 1431 1396
f 1396 1425 1446
f 1441 1440 1465
f 1394 1456 1432
f 1430 1427 1451
f 1450 1417 1444
f 1423 1435 1436
f 1443 1432 1456
f 1417 1439 1436
f 1456 1394 1441
f 1414 1448 1446
f 1414 1420 1453
f 1429 1412 1403
f 1433 1446 1425
f 1436 1434 1423
f 1445 1454 1444
f 1445 1444 1443
f 1458 1453 1420
f 1438 1422 1442
f 1454 1450 1444
f 1428 1437 1459
f 1455 1462 1442
f 1442 1462 1438
f 1443 1456 1445
f 1439 1417 1450
f 1446 1433 1414
f 1431 1446 1464
f 1414 1453 1448
f 1449 1429 1438
f 1447 1463 1465
f 1465 1456 1441
f 1436 1439 1457
f 1455 1430 1451
f 1461 1445 1456
f 1469 1451 1428
f 1437 1452 1459
f 1437 1431 1452
f 1462 1447 1449
f 1457 1434 1436
f 1431 1464 1452
f 1445 1461 1454
f 1438 1462 1449
f 1457 1458 1434
f 1470 1439 1450
f 1459 1469 1428
f 1463 1467 1465
f 1451 1469 1468
f 1466 1457 1439
f 1470 1450 1454
f 1464 1446 1448
f 1451 1468 1455
f 1460 1448 1453
f 1466 1439 1470
f 1462 1463 1447
f 1465 1461 1456
f 1459 1452 1473
f 1464 1448 1460
f 1460 1453 1474
f 1467 1461 1465
f 1470 1476 1466
f 1461 1470 1454
f 1474 1453 1458
f 1472 1462 1455
f 1466 1476 1477
f 1467 1463 1472
f 1474 1457 1466
f 1466 1477 1474
f 1462 1472 1463
f 1458 1457 1474
f 1470 1461 1471
f 1467 1471 1461
f 1475 1460 1474
f 1475 1473 1452
f 1472 1455 1468
f 1475 1452 1464
f 1469 1471 1468
f 1469 1459 1473
f 1475 1464 1460
f 1477 1475 1474
f 1476 1470 1471
f 1467 1472 1468
f 1475 1477 1473
f 1476 1469 1473
f 1471 1469 1476
f 1471 1467 1468
f 1477 1476 1473
f 1478 4 881
f 1478 7 4
f 7 1478 1479
f 1479 9 7
f 9 1479 1480
f 1480 1481 9
f 1481 1480 1661
f 12 1661 1660
f 1483 1482 1660
f 1483 1484 1482
f 1486 1485 1484
f 1487 17 1485
f 1485 1486 1487
f 1487 1488 17
f 865 1489 1488
f 1488 1487 865
f 1659 1490 1489
f 1489 865 1659
f 1490 1659 1491
f 21 1491 1658
f 1658 1492 21
f 1492 1658 22
f 1605 1493 1494
f 25 1496 1494
f 1496 25 1495
f 1496 1495 1497
f 30 1500 1608
f 1500 30 1499
f 1500 1499 31
f 31 1502 1500
f 1502 31 1501
f 1502 1501 1611
f 1503 1505 761
f 1505 1503 1504
f 1505 1506 1507
f 1510 1511 1509
f 1511 1510 1512
f 1511 42 1514
f 1514 1513 1515
f 47 1516 46
f 1516 47 48
f 1518 1519 1517
f 1517 51 1518
f 1518 1520 1519
f 1520 1521 1519
f 1522 1523 1521
f 1523 1522 53
f 1523 53 54
f 54 1524 1523
f 1524 54 55
f 1524 55 782
f 58 1527 57
f 1527 58 1526
f 1527 1526 1528
f 1528 1622 1527
f 1622 1528 1529
f 1529 1530 1622
f 1530 1529 59
f 1530 59 61
f 61 1533 1530
f 1533 61 1531
f 1533 1531 1532
f 1532 1535 1533
f 1535 1532 1534
f 1535 1534 1536
f 1536 1537 1535
f 1539 1538 1540
f 1540 1541 1539
f 1541 1540 67
f 1541 67 68
f 68 1542 1541
f 1542 68 1543
f 1543 1544 1542
f 1544 1543 71
f 71 1545 1544
f 1545 71 72
f 1545 72 1546
f 1547 1548 1546
f 1548 1547 1549
f 1549 1550 1548
f 1551 1552 1550
f 1552 1551 1553
f 1552 1553 78
f 78 1554 1552
f 1554 78 79
f 1554 79 1555
f 1555 1557 1554
f 1557 1555 1556
f 1557 1556 1558
f 1558 1559 1557
f 1559 84 1560
f 1560 1561 1559
f 1560 88 1561
f 1561 88 89
f 89 1639 1561
f 1639 89 1562
f 1562 91 1563
f 1564 95 1565
f 1566 97 1567
f 1572 1573 1571
f 1573 1572 1574
f 1573 1574 1575
f 1575 1577 1573
f 1577 1575 1576
f 1577 1576 105
f 105 1578 1577
f 1578 105 106
f 107 1579 106
f 1579 107 1580
f 1580 1581 1579
f 1581 1580 109
f 1581 109 110
f 1581 110 1582
f 1582 1583 1581
f 1583 1582 1584
f 1583 1584 1652
f 1585 1587 1653
f 1587 1585 1586
f 1587 1586 1588
f 1587 1588 1589
f 1589 1590 1587
f 1591 1592 1590
f 1591 117 1592
f 1592 117 1593
f 1593 1594 1592
f 1594 1593 1595
f 1595 1597 1594
f 1597 1595 1596
f 1597 1596 121
f 121 1598 1597
f 1598 121 122
f 1598 122 124
f 124 1599 1598
f 1599 124 1600
f 1599 1600 126
f 126 1601 1599
f 1601 126 127
f 127 1602 1601
f 1602 127 129
f 1602 129 1603
f 1494 747 745
f 745 1605 1494
f 1496 748 747
f 747 1494 1496
f 748 1496 1497
f 26 1606 1497
f 1606 26 1498
f 1498 1607 1606
f 1607 1498 1608
f 1500 1610 1609
f 1609 1608 1500
f 1500 754 1610
f 1502 755 754
f 754 1500 1502
f 1502 756 755
f 756 1502 1611
f 760 759 761
f 1505 1612 761
f 1505 1613 1612
f 1505 1614 1613
f 1614 1505 1507
f 1508 1615 1507
f 1508 765 1615
f 765 1508 1509
f 1509 767 765
f 1511 768 767
f 767 1509 1511
f 1514 770 1616
f 1616 1511 1514
f 1514 771 770
f 771 1514 1515
f 1515 772 771
f 772 1515 46
f 46 773 772
f 46 908 773
f 908 46 1516
f 777 1516 1517
f 1517 1617 777
f 1519 1618 1617
f 1617 1517 1519
f 1519 1619 1618
f 1619 1519 1521
f 1523 1620 1521
f 1524 780 1620
f 1620 1523 1524
f 1524 781 780
f 781 1524 782
f 1525 784 782
f 57 786 1525
f 786 57 1527
f 1527 1621 786
f 1621 1527 1622
f 1530 1623 1622
f 1530 789 1623
f 1530 1624 789
f 1624 1530 1533
f 1533 791 1624
f 1535 1625 791
f 791 1533 1535
f 1535 1626 1625
f 1537 1627 1626
f 1626 1535 1537
f 1537 1628 1627
f 1628 1537 1539
f 1629 1539 1541
f 1541 795 1629
f 1541 796 795
f 796 1541 1542
f 1542 1630 796
f 1542 1631 1630
f 1544 1632 1631
f 1631 1542 1544
f 1544 1545 1632
f 1633 1545 1546
f 1550 1634 1548
f 1550 1635 1634
f 1552 800 1635
f 1635 1550 1552
f 1552 801 800
f 801 1552 1554
f 1554 802 801
f 1557 803 802
f 802 1554 1557
f 1557 1636 803
f 1636 1557 1559
f 1559 806 1636
f 1559 1637 806
f 1561 1638 1637
f 1637 1559 1561
f 1561 809 1638
f 809 1561 1639
f 1562 1640 1639
f 1562 1641 1640
f 1641 1562 1563
f 1642 1564 1565
f 1566 1643 1565
f 1643 1566 1567
f 1568 1645 1644
f 1644 1567 1568
f 1569 819 1645
f 1645 1568 1569
f 1569 1646 819
f 1646 1569 1570
f 1646 1570 1571
f 1647 1573 1577
f 1577 1648 1647
f 1648 1577 1578
f 1648 1578 106
f 1579 830 106
f 1579 1649 830
f 1649 1579 1581
f 1583 1650 832
f 832 1581 1583
f 1583 1651 1650
f 1651 1583 1652
f 1587 1654 1653
f 1587 834 1654
f 1587 836 834
f 1590 1655 836
f 836 1587 1590
f 1590 1592 840
f 1592 841 840
f 841 1592 1594
f 1594 1656 841
f 1656 1594 1597
f 1597 847 1656
f 847 1597 1598
f 850 1598 1599
f 1599 852 850
f 852 1599 1601
f 1601 853 852
f 1602 855 853
f 853 1601 1602
f 1602 1657 855
f 1657 1602 1603
f 1658 859 858
f 858 22 1658
f 1491 859 1658
f 1487 866 865
f 1487 867 866
f 867 1487 1486
f 1486 868 867
f 868 1486 1484
f 1483 869 1484
f 1662 1661 1480
f 1480 1663 1662
f 1663 1480 1479
f 1479 1664 1663
f 1664 1479 1478
f 1478 1665 1664
f 1665 1478 881
f 3 1604 881
f 9 10 8
f 10 9 1481
f 1481 11 10
f 11 1481 1661
f 1661 12 11
f 13 12 1660
f 13 1660 1482
f 16 1485 17
f 19 1490 1491
f 1491 20 19
f 20 1491 21
f 1603 130 22
f 25 1494 1493
f 27 1498 26
f 28 1608 1498
f 1498 27 28
f 32 1611 1501
f 32 759 1611
f 759 32 33
f 33 761 759
f 1505 1504 1506
f 35 1507 1506
f 1506 34 35
f 1507 35 36
f 1507 36 145
f 145 1508 1507
f 1508 145 37
f 37 1509 1508
f 1509 37 38
f 38 1510 1509
f 40 1511 1512
f 1511 40 42
f 44 1513 1514
f 1514 42 44
f 1515 1513 45
f 1515 45 46
f 142 47 46
f 49 1517 1516
f 1516 48 49
f 1517 49 51
f 56 1525 782
f 1525 56 57
f 64 1537 1536
f 64 1539 1537
f 1539 64 1538
f 65 1540 1538
f 1540 65 66
f 1540 66 67
f 73 1546 72
f 73 1547 1546
f 1550 1549 74
f 74 1551 1550
f 1551 74 76
f 1551 76 1553
f 83 1559 1558
f 83 84 1559
f 90 1562 89
f 1562 90 91
f 93 94 1564
f 96 97 1566
f 98 1568 1567
f 99 1569 1568
f 1568 98 99
f 100 1570 1569
f 1569 99 100
f 1570 100 222
f 222 1571 1570
f 1571 222 1572
f 1576 1575 102
f 1576 102 103
f 103 105 1576
f 111 1653 1652
f 1652 151 111
f 1653 111 1585
f 115 117 1591
f 1603 129 130
f 3 743 1604
f 743 3 1605
f 743 1605 745
f 1497 749 748
f 749 1497 1606
f 764 1614 1507
f 764 1507 1615
f 1511 769 768
f 769 1511 1616
f 1516 774 908
f 774 1516 777
f 788 1621 1622
f 788 1622 1623
f 1626 792 1625
f 1539 794 1628
f 794 1539 1629
f 1545 798 1632
f 1545 1633 798
f 894 1546 1548
f 1548 799 894
f 799 1548 1634
f 1635 892 1634
f 804 803 1636
f 1636 805 804
f 812 809 1639
f 812 1639 1640
f 1563 884 1641
f 1563 93 884
f 816 93 1564
f 1567 1644 1643
f 1645 818 1644
f 1573 821 1571
f 1573 823 821
f 823 1573 1647
f 826 1647 1648
f 1648 827 826
f 1648 829 827
f 829 1648 106
f 829 106 830
f 1649 938 830
f 833 1652 1653
f 838 836 1655
f 841 844 842
f 844 841 1656
f 1656 845 844
f 1656 847 845
f 848 847 1598
f 848 1598 850
f 1603 857 1657
f 857 1603 22
f 857 22 858
f 1491 860 859
f 860 1491 1659
f 1659 863 860
f 863 1659 865
f 1484 869 868
f 1661 872 1660
f 872 1661 1662
f 1662 874 872
f 1662 875 874
f 875 1662 1663
f 1663 877 875
f 1663 878 877
f 878 1663 1664
f 1664 880 878
f 880 1664 1665
