# USD → MuJoCo (world-space)
v 0.028855 -0.076518 -0.132867
v 0.005858 -0.076518 0.129986
v 0.005858 0.084818 0.129986
v 0.028855 0.084818 -0.132866
v 0.006508 0.085945 0.130968
v 0.006441 -0.075918 0.130963
v 0.007668 -0.075098 0.131070
v 0.007724 0.086133 0.131075
v 0.006440 -0.077290 0.130962
v 0.007942 -0.078057 0.131094
v 0.008746 -0.077396 0.131164
v 0.007328 -0.076558 0.131040
v 0.009127 -0.079049 0.131198
v 0.008308 -0.079323 0.131126
v 0.007886 -0.080813 0.131089
v 0.007164 -0.082358 0.131026
v 0.007830 -0.082219 0.131084
v 0.008649 -0.080834 0.131156
v 0.007429 -0.084054 0.131049
v 0.008108 -0.083325 0.131108
v 0.010009 -0.086046 0.131275
v 0.010458 -0.085302 0.131314
v 0.013808 -0.087198 0.131607
v 0.014129 -0.086452 0.131635
v 0.017916 -0.087893 0.131966
v 0.018074 -0.087151 0.131980
v 0.022239 -0.088023 0.132345
v 0.022239 -0.087284 0.132345
v 0.005964 -0.076363 0.130689
v 0.005981 0.085603 0.130691
v 0.007352 -0.078619 0.130117
v 0.007459 -0.078478 0.130820
v 0.005964 -0.077739 0.130689
v 0.005858 -0.077889 0.129986
v 0.007816 -0.079501 0.130852
v 0.007705 -0.079562 0.130148
v 0.007271 -0.080739 0.130110
v 0.007384 -0.080757 0.130814
v 0.006527 -0.082410 0.130045
v 0.006646 -0.082396 0.130749
v 0.006903 -0.084761 0.130078
v 0.006994 -0.084584 0.130780
v 0.009715 -0.086620 0.130324
v 0.009749 -0.086393 0.131021
v 0.013620 -0.087771 0.130665
v 0.013627 -0.087546 0.131360
v 0.017865 -0.088462 0.131037
v 0.017837 -0.088239 0.131728
v 0.022319 -0.088588 0.131426
v 0.022259 -0.088366 0.132115
v 0.008309 0.085964 0.130895
v 0.008111 -0.074696 0.130877
v 0.008337 -0.074561 0.130203
v 0.008551 0.085233 0.130222
v 0.008335 -0.075911 0.130203
v 0.008109 -0.076053 0.130877
v 0.009268 -0.076991 0.130979
v 0.009496 -0.076857 0.130305
v 0.009890 -0.078831 0.130339
v 0.009659 -0.078884 0.131013
v 0.009307 -0.080943 0.130288
v 0.009073 -0.080919 0.130961
v 0.008260 -0.082203 0.130890
v 0.008499 -0.082195 0.130217
v 0.008297 -0.083123 0.130894
v 0.008509 -0.082951 0.130218
v 0.010668 -0.084874 0.131101
v 0.010822 -0.084650 0.130421
v 0.014302 -0.085991 0.131419
v 0.014429 -0.085767 0.130736
v 0.018193 -0.086725 0.131759
v 0.018286 -0.086501 0.131074
v 0.022259 -0.086860 0.132115
v 0.022319 -0.086637 0.131426
v 0.008977 0.079639 0.125328
v 0.008981 0.081987 0.125328
v 0.008554 0.087666 0.130222
v 0.009924 -0.076857 0.125411
v 0.008763 -0.075911 0.125309
v 0.010318 -0.078831 0.125445
v 0.008927 -0.082195 0.125324
v 0.009735 -0.080943 0.125394
v 0.008937 -0.082951 0.125324
v 0.011250 -0.084650 0.125527
v 0.014857 -0.085767 0.125842
v 0.018714 -0.086501 0.126180
v 0.022747 -0.086637 0.126533
v 0.008765 -0.074561 0.125309
v 0.031551 0.087666 -0.132631
v 0.031121 0.081987 -0.127737
v 0.036809 -0.075098 0.133619
v 0.038036 -0.075918 0.133727
v 0.037969 0.085945 0.133721
v 0.036753 0.086133 0.133614
v 0.038037 -0.077290 0.133727
v 0.037149 -0.076558 0.133649
v 0.035731 -0.077396 0.133525
v 0.036535 -0.078057 0.133595
v 0.035350 -0.079049 0.133492
v 0.036170 -0.079323 0.133563
v 0.036591 -0.080813 0.133600
v 0.035828 -0.080834 0.133534
v 0.036647 -0.082219 0.133605
v 0.037313 -0.082358 0.133663
v 0.036370 -0.083325 0.133581
v 0.037048 -0.084054 0.133640
v 0.034019 -0.085302 0.133375
v 0.034468 -0.086046 0.133415
v 0.030348 -0.086452 0.133054
v 0.030669 -0.087198 0.133082
v 0.026403 -0.087151 0.132709
v 0.026561 -0.087893 0.132723
v 0.038780 0.084818 0.132866
v 0.038537 0.085603 0.133539
v 0.038554 -0.076363 0.133541
v 0.038780 -0.076518 0.132867
v 0.061654 0.088069 -0.130691
v 0.038536 0.088069 0.133539
v 0.038780 0.087275 0.132866
v 0.061776 0.087275 -0.129986
v 0.037285 -0.078619 0.132736
v 0.038780 -0.077889 0.132867
v 0.038554 -0.077739 0.133541
v 0.037058 -0.078478 0.133410
v 0.036702 -0.079501 0.133379
v 0.037133 -0.080757 0.133416
v 0.037367 -0.080739 0.132743
v 0.036933 -0.079562 0.132705
v 0.038111 -0.082410 0.132808
v 0.037871 -0.082396 0.133481
v 0.037735 -0.084761 0.132775
v 0.037523 -0.084584 0.133451
v 0.034922 -0.086620 0.132529
v 0.034769 -0.086393 0.133210
v 0.031017 -0.087771 0.132187
v 0.030890 -0.087546 0.132870
v 0.026773 -0.088462 0.131816
v 0.026680 -0.088239 0.132502
v 0.036301 -0.074561 0.132650
v 0.036406 -0.074696 0.133353
v 0.036208 0.085964 0.133335
v 0.036087 0.085233 0.132631
v 0.036303 -0.075911 0.132650
v 0.035142 -0.076857 0.132548
v 0.035249 -0.076991 0.133252
v 0.036408 -0.076053 0.133353
v 0.034747 -0.078831 0.132514
v 0.034858 -0.078884 0.133217
v 0.035331 -0.080943 0.132565
v 0.036138 -0.082195 0.132635
v 0.036257 -0.082203 0.133340
v 0.035444 -0.080919 0.133269
v 0.036129 -0.082951 0.132635
v 0.036220 -0.083123 0.133337
v 0.033816 -0.084650 0.132432
v 0.033849 -0.084874 0.133129
v 0.030209 -0.085767 0.132117
v 0.030216 -0.085991 0.132811
v 0.026352 -0.086501 0.131779
v 0.026325 -0.086725 0.132471
v 0.061125 0.088410 -0.130968
v 0.037968 0.088410 0.133721
v 0.036083 0.087666 0.132631
v 0.036513 0.081987 0.127737
v 0.036517 0.079639 0.127737
v 0.035570 -0.076857 0.127655
v 0.036731 -0.075911 0.127756
v 0.035176 -0.078831 0.127620
v 0.036567 -0.082195 0.127742
v 0.035759 -0.080943 0.127671
v 0.036557 -0.082951 0.127741
v 0.034244 -0.084650 0.127538
v 0.030637 -0.085767 0.127223
v 0.026780 -0.086501 0.126885
v 0.036729 -0.074561 0.127756
v 0.036752 0.088588 0.133614
v 0.059909 0.088588 -0.131075
v 0.028855 -0.077889 -0.132867
v 0.030349 -0.078619 -0.132736
v 0.030702 -0.079562 -0.132705
v 0.030267 -0.080739 -0.132743
v 0.029524 -0.082410 -0.132808
v 0.029900 -0.084761 -0.132775
v 0.032712 -0.086620 -0.132529
v 0.036617 -0.087771 -0.132187
v 0.040861 -0.088462 -0.131816
v 0.045316 -0.088588 -0.131426
v 0.030825 -0.075098 -0.133619
v 0.029598 -0.075918 -0.133727
v 0.029665 0.085945 -0.133721
v 0.030881 0.086133 -0.133614
v 0.029598 -0.077290 -0.133727
v 0.030486 -0.076558 -0.133649
v 0.031903 -0.077396 -0.133525
v 0.031099 -0.078057 -0.133595
v 0.032285 -0.079049 -0.133492
v 0.031465 -0.079323 -0.133563
v 0.031044 -0.080813 -0.133600
v 0.031806 -0.080834 -0.133534
v 0.030987 -0.082219 -0.133605
v 0.030322 -0.082358 -0.133663
v 0.031265 -0.083325 -0.133581
v 0.030587 -0.084054 -0.133640
v 0.033615 -0.085302 -0.133375
v 0.033166 -0.086046 -0.133415
v 0.037286 -0.086452 -0.133054
v 0.036965 -0.087198 -0.133082
v 0.041231 -0.087151 -0.132709
v 0.041073 -0.087893 -0.132723
v 0.045396 -0.087284 -0.132345
v 0.045396 -0.088023 -0.132345
v 0.029098 0.085603 -0.133539
v 0.029081 -0.076363 -0.133541
v 0.005981 0.088069 0.130691
v 0.029098 0.088069 -0.133539
v 0.028855 0.087275 -0.132866
v 0.005858 0.087275 0.129986
v 0.029081 -0.077739 -0.133541
v 0.030577 -0.078478 -0.133410
v 0.030933 -0.079501 -0.133379
v 0.030502 -0.080757 -0.133416
v 0.029763 -0.082396 -0.133481
v 0.030112 -0.084584 -0.133451
v 0.032866 -0.086393 -0.133210
v 0.036744 -0.087546 -0.132870
v 0.040954 -0.088239 -0.132502
v 0.045376 -0.088366 -0.132115
v 0.031333 -0.074561 -0.132650
v 0.031228 -0.074696 -0.133353
v 0.031426 0.085964 -0.133335
v 0.031548 0.085233 -0.132631
v 0.031332 -0.075911 -0.132650
v 0.032492 -0.076857 -0.132548
v 0.032385 -0.076991 -0.133252
v 0.031226 -0.076053 -0.133353
v 0.032887 -0.078831 -0.132514
v 0.032776 -0.078884 -0.133217
v 0.032304 -0.080943 -0.132565
v 0.031496 -0.082195 -0.132635
v 0.031377 -0.082203 -0.133340
v 0.032190 -0.080919 -0.133269
v 0.031505 -0.082951 -0.132635
v 0.031414 -0.083123 -0.133337
v 0.033818 -0.084650 -0.132432
v 0.033785 -0.084874 -0.133129
v 0.037426 -0.085767 -0.132117
v 0.037419 -0.085991 -0.132811
v 0.041282 -0.086501 -0.131779
v 0.041310 -0.086725 -0.132471
v 0.045316 -0.086637 -0.131426
v 0.045376 -0.086860 -0.132115
v 0.006509 0.088410 0.130969
v 0.029667 0.088410 -0.133721
v 0.031118 0.079639 -0.127737
v 0.032064 -0.076857 -0.127655
v 0.030903 -0.075911 -0.127756
v 0.032459 -0.078831 -0.127620
v 0.031068 -0.082195 -0.127742
v 0.031876 -0.080943 -0.127671
v 0.031077 -0.082951 -0.127741
v 0.033390 -0.084650 -0.127539
v 0.036997 -0.085767 -0.127223
v 0.040854 -0.086501 -0.126886
v 0.044887 -0.086637 -0.126533
v 0.030905 -0.074561 -0.127756
v 0.007725 0.088588 0.131075
v 0.030882 0.088588 -0.133614
v 0.031429 0.088411 -0.133335
v 0.008312 0.088410 0.130895
v 0.061776 -0.076518 -0.129986
v 0.061776 0.084818 -0.129986
v 0.060282 -0.078619 -0.130117
v 0.061776 -0.077889 -0.129986
v 0.060364 -0.080739 -0.130110
v 0.059929 -0.079562 -0.130148
v 0.061107 -0.082410 -0.130045
v 0.060731 -0.084761 -0.130078
v 0.057919 -0.086620 -0.130324
v 0.054014 -0.087771 -0.130665
v 0.049770 -0.088462 -0.131037
v 0.061126 0.085945 -0.130968
v 0.061194 -0.075918 -0.130962
v 0.059966 -0.075098 -0.131070
v 0.059910 0.086133 -0.131075
v 0.061194 -0.077290 -0.130962
v 0.059693 -0.078057 -0.131094
v 0.058889 -0.077396 -0.131164
v 0.060306 -0.076558 -0.131040
v 0.058507 -0.079049 -0.131198
v 0.059327 -0.079323 -0.131126
v 0.059748 -0.080813 -0.131089
v 0.060470 -0.082358 -0.131026
v 0.059804 -0.082219 -0.131084
v 0.058985 -0.080834 -0.131156
v 0.060205 -0.084054 -0.131049
v 0.059527 -0.083325 -0.131108
v 0.057625 -0.086046 -0.131275
v 0.057177 -0.085302 -0.131314
v 0.053827 -0.087198 -0.131607
v 0.053506 -0.086452 -0.131635
v 0.049719 -0.087893 -0.131966
v 0.049561 -0.087151 -0.131980
v 0.061671 -0.076363 -0.130689
v 0.061654 0.085603 -0.130691
v 0.060175 -0.078478 -0.130820
v 0.061671 -0.077738 -0.130689
v 0.059819 -0.079501 -0.130851
v 0.060250 -0.080757 -0.130814
v 0.060988 -0.082396 -0.130749
v 0.060640 -0.084584 -0.130780
v 0.057886 -0.086393 -0.131021
v 0.054007 -0.087546 -0.131360
v 0.049797 -0.088239 -0.131728
v 0.059325 0.085964 -0.130895
v 0.059524 -0.074696 -0.130877
v 0.059298 -0.074561 -0.130203
v 0.059083 0.085233 -0.130222
v 0.059299 -0.075911 -0.130203
v 0.059525 -0.076053 -0.130877
v 0.058366 -0.076991 -0.130979
v 0.058139 -0.076857 -0.130305
v 0.057744 -0.078831 -0.130339
v 0.057975 -0.078884 -0.131013
v 0.058327 -0.080943 -0.130288
v 0.058561 -0.080919 -0.130961
v 0.059375 -0.082203 -0.130890
v 0.059135 -0.082195 -0.130217
v 0.059337 -0.083123 -0.130894
v 0.059126 -0.082951 -0.130218
v 0.056966 -0.084874 -0.131101
v 0.056813 -0.084650 -0.130421
v 0.053333 -0.085991 -0.131419
v 0.053206 -0.085767 -0.130736
v 0.049442 -0.086725 -0.131759
v 0.049349 -0.086501 -0.131074
v 0.058657 0.079639 -0.125328
v 0.058654 0.081987 -0.125328
v 0.059080 0.087666 -0.130222
v 0.057710 -0.076857 -0.125411
v 0.058871 -0.075911 -0.125309
v 0.057316 -0.078831 -0.125445
v 0.058707 -0.082195 -0.125324
v 0.057899 -0.080943 -0.125394
v 0.058698 -0.082951 -0.125324
v 0.056384 -0.084650 -0.125527
v 0.052777 -0.085767 -0.125842
v 0.048921 -0.086501 -0.126180
v 0.058869 -0.074561 -0.125309
v 0.036205 0.088410 0.133335
v 0.059322 0.088410 -0.130895
vt 0.436432 0.031317
vt 0.436432 0.967664
vt 0.052028 0.967656
vt 0.052028 0.967656
vt 0.052028 0.031324
vt 0.436432 0.031317
vt 0.050167 0.972317
vt 0.436067 0.972419
vt 0.435556 0.977240
vt 0.435556 0.977240
vt 0.050577 0.976906
vt 0.050167 0.972317
vt 0.439134 0.971205
vt 0.443638 0.973719
vt 0.443111 0.977277
vt 0.443111 0.977277
vt 0.438703 0.974918
vt 0.439134 0.971205
vt 0.447379 0.977157
vt 0.443111 0.977277
vt 0.443638 0.973719
vt 0.443638 0.973719
vt 0.447141 0.973896
vt 0.447379 0.977157
vt 0.450597 0.973099
vt 0.454044 0.971686
vt 0.454818 0.974297
vt 0.454818 0.974297
vt 0.451468 0.976113
vt 0.450597 0.973099
vt 0.454044 0.971686
vt 0.458175 0.971427
vt 0.458120 0.974528
vt 0.458120 0.974528
vt 0.454818 0.974297
vt 0.454044 0.971686
vt 0.458175 0.971427
vt 0.467335 0.971701
vt 0.467286 0.974411
vt 0.467286 0.974411
vt 0.458120 0.974528
vt 0.458175 0.971427
vt 0.467335 0.971701
vt 0.478103 0.971701
vt 0.478166 0.974388
vt 0.478166 0.974388
vt 0.467286 0.974411
vt 0.467335 0.971701
vt 0.478103 0.971701
vt 0.488988 0.971730
vt 0.489018 0.974414
vt 0.489018 0.974414
vt 0.478166 0.974388
vt 0.478103 0.971701
vt 0.488988 0.971730
vt 0.500009 0.971803
vt 0.500008 0.974485
vt 0.500008 0.974485
vt 0.489018 0.974414
vt 0.488988 0.971730
vt 0.052028 0.967656
vt 0.436432 0.967664
vt 0.436398 0.970240
vt 0.436398 0.970240
vt 0.050417 0.970152
vt 0.052028 0.967656
vt 0.444185 0.967955
vt 0.443972 0.971040
vt 0.439400 0.969303
vt 0.439400 0.969303
vt 0.439512 0.967342
vt 0.444185 0.967955
vt 0.446946 0.971296
vt 0.446788 0.968055
vt 0.449363 0.967842
vt 0.449363 0.967842
vt 0.449829 0.970677
vt 0.446946 0.971296
vt 0.452897 0.967448
vt 0.453287 0.969625
vt 0.449829 0.970677
vt 0.449829 0.970677
vt 0.449363 0.967842
vt 0.452897 0.967448
vt 0.458300 0.967406
vt 0.458288 0.969471
vt 0.453287 0.969625
vt 0.453287 0.969625
vt 0.452897 0.967448
vt 0.458300 0.967406
vt 0.467399 0.967658
vt 0.467242 0.970166
vt 0.458288 0.969471
vt 0.458288 0.969471
vt 0.458300 0.967406
vt 0.467399 0.967658
vt 0.478077 0.967673
vt 0.477991 0.970205
vt 0.467242 0.970166
vt 0.467242 0.970166
vt 0.467399 0.967658
vt 0.478077 0.967673
vt 0.488975 0.967693
vt 0.488932 0.970249
vt 0.477991 0.970205
vt 0.477991 0.970205
vt 0.478077 0.967673
vt 0.488975 0.967693
vt 0.500010 0.967722
vt 0.500009 0.970311
vt 0.488932 0.970249
vt 0.488932 0.970249
vt 0.488975 0.967693
vt 0.500010 0.967722
vt 0.051495 0.979117
vt 0.435168 0.979083
vt 0.435131 0.981552
vt 0.435131 0.981552
vt 0.053469 0.981578
vt 0.051495 0.979117
vt 0.438462 0.981329
vt 0.438581 0.978364
vt 0.442795 0.979426
vt 0.442795 0.979426
vt 0.442692 0.981708
vt 0.438462 0.981329
vt 0.447706 0.981315
vt 0.442692 0.981708
vt 0.442795 0.979426
vt 0.442795 0.979426
vt 0.447531 0.979091
vt 0.447706 0.981315
vt 0.452630 0.980216
vt 0.452158 0.977838
vt 0.455500 0.976304
vt 0.455500 0.976304
vt 0.456047 0.979126
vt 0.452630 0.980216
vt 0.456047 0.979126
vt 0.455500 0.976304
vt 0.458185 0.975888
vt 0.458185 0.975888
vt 0.458338 0.978744
vt 0.456047 0.979126
vt 0.458338 0.978744
vt 0.458185 0.975888
vt 0.467140 0.976060
vt 0.467140 0.976060
vt 0.467119 0.978586
vt 0.458338 0.978744
vt 0.467119 0.978586
vt 0.467140 0.976060
vt 0.478097 0.976160
vt 0.478097 0.976160
vt 0.478075 0.978647
vt 0.467119 0.978586
vt 0.478075 0.978647
vt 0.478097 0.976160
vt 0.489054 0.976145
vt 0.489054 0.976145
vt 0.489033 0.978697
vt 0.478075 0.978647
vt 0.489033 0.978697
vt 0.489054 0.976145
vt 0.500007 0.976203
vt 0.500007 0.976203
vt 0.500005 0.978748
vt 0.489033 0.978697
vt 0.436398 0.970240
vt 0.436067 0.972419
vt 0.050167 0.972317
vt 0.050167 0.972317
vt 0.050417 0.970152
vt 0.436398 0.970240
vt 0.443972 0.971040
vt 0.443638 0.973719
vt 0.439134 0.971205
vt 0.439134 0.971205
vt 0.439400 0.969303
vt 0.443972 0.971040
vt 0.447141 0.973896
vt 0.446946 0.971296
vt 0.449829 0.970677
vt 0.449829 0.970677
vt 0.450597 0.973099
vt 0.447141 0.973896
vt 0.453287 0.969625
vt 0.454044 0.971686
vt 0.450597 0.973099
vt 0.450597 0.973099
vt 0.449829 0.970677
vt 0.453287 0.969625
vt 0.458288 0.969471
vt 0.458175 0.971427
vt 0.454044 0.971686
vt 0.454044 0.971686
vt 0.453287 0.969625
vt 0.458288 0.969471
vt 0.467242 0.970166
vt 0.467335 0.971701
vt 0.458175 0.971427
vt 0.458175 0.971427
vt 0.458288 0.969471
vt 0.467242 0.970166
vt 0.477991 0.970205
vt 0.478103 0.971701
vt 0.467335 0.971701
vt 0.467335 0.971701
vt 0.467242 0.970166
vt 0.477991 0.970205
vt 0.488932 0.970249
vt 0.488988 0.971730
vt 0.478103 0.971701
vt 0.478103 0.971701
vt 0.477991 0.970205
vt 0.488932 0.970249
vt 0.500009 0.970311
vt 0.500009 0.971803
vt 0.488988 0.971730
vt 0.488988 0.971730
vt 0.488932 0.970249
vt 0.500009 0.970311
vt 0.050577 0.976906
vt 0.435556 0.977240
vt 0.435168 0.979083
vt 0.435168 0.979083
vt 0.051495 0.979117
vt 0.050577 0.976906
vt 0.438581 0.978364
vt 0.438703 0.974918
vt 0.443111 0.977277
vt 0.443111 0.977277
vt 0.442795 0.979426
vt 0.438581 0.978364
vt 0.447531 0.979091
vt 0.442795 0.979426
vt 0.443111 0.977277
vt 0.443111 0.977277
vt 0.447379 0.977157
vt 0.447531 0.979091
vt 0.452158 0.977838
vt 0.451468 0.976113
vt 0.454818 0.974297
vt 0.454818 0.974297
vt 0.455500 0.976304
vt 0.452158 0.977838
vt 0.455500 0.976304
vt 0.454818 0.974297
vt 0.458120 0.974528
vt 0.458120 0.974528
vt 0.458185 0.975888
vt 0.455500 0.976304
vt 0.458185 0.975888
vt 0.458120 0.974528
vt 0.467286 0.974411
vt 0.467286 0.974411
vt 0.467140 0.976060
vt 0.458185 0.975888
vt 0.467140 0.976060
vt 0.467286 0.974411
vt 0.478166 0.974388
vt 0.478166 0.974388
vt 0.478097 0.976160
vt 0.467140 0.976060
vt 0.478097 0.976160
vt 0.478166 0.974388
vt 0.489018 0.974414
vt 0.489018 0.974414
vt 0.489054 0.976145
vt 0.478097 0.976160
vt 0.489054 0.976145
vt 0.489018 0.974414
vt 0.500008 0.974485
vt 0.500008 0.974485
vt 0.500007 0.976203
vt 0.489054 0.976145
vt 0.447379 0.977157
vt 0.447141 0.973896
vt 0.450597 0.973099
vt 0.450597 0.973099
vt 0.451468 0.976113
vt 0.447379 0.977157
vt 0.444185 0.967955
vt 0.446788 0.968055
vt 0.446946 0.971296
vt 0.446946 0.971296
vt 0.443972 0.971040
vt 0.444185 0.967955
vt 0.447706 0.981315
vt 0.447531 0.979091
vt 0.452158 0.977838
vt 0.452158 0.977838
vt 0.452630 0.980216
vt 0.447706 0.981315
vt 0.443972 0.971040
vt 0.446946 0.971296
vt 0.447141 0.973896
vt 0.447141 0.973896
vt 0.443638 0.973719
vt 0.443972 0.971040
vt 0.447531 0.979091
vt 0.447379 0.977157
vt 0.451468 0.976113
vt 0.451468 0.976113
vt 0.452158 0.977838
vt 0.447531 0.979091
vt 0.438703 0.974918
vt 0.435556 0.977240
vt 0.436067 0.972419
vt 0.436067 0.972419
vt 0.439134 0.971205
vt 0.438703 0.974918
vt 0.439400 0.969303
vt 0.436398 0.970240
vt 0.436432 0.967664
vt 0.436432 0.967664
vt 0.439512 0.967342
vt 0.439400 0.969303
vt 0.438462 0.981329
vt 0.435131 0.981552
vt 0.435168 0.979083
vt 0.435168 0.979083
vt 0.438581 0.978364
vt 0.438462 0.981329
vt 0.439134 0.971205
vt 0.436067 0.972419
vt 0.436398 0.970240
vt 0.436398 0.970240
vt 0.439400 0.969303
vt 0.439134 0.971205
vt 0.438581 0.978364
vt 0.435168 0.979083
vt 0.435556 0.977240
vt 0.435556 0.977240
vt 0.438703 0.974918
vt 0.438581 0.978364
vt 0.053469 0.981578
vt 0.066803 0.998980
vt 0.061194 0.998981
vt 0.061194 0.998981
vt 0.047657 0.981578
vt 0.053469 0.981578
vt 0.443135 0.998978
vt 0.438570 0.998963
vt 0.438462 0.981329
vt 0.438462 0.981329
vt 0.442692 0.981708
vt 0.443135 0.998978
vt 0.448621 0.998519
vt 0.443135 0.998978
vt 0.442692 0.981708
vt 0.442692 0.981708
vt 0.447706 0.981315
vt 0.448621 0.998519
vt 0.457201 0.996633
vt 0.453858 0.997490
vt 0.452630 0.980216
vt 0.452630 0.980216
vt 0.456047 0.979126
vt 0.457201 0.996633
vt 0.459052 0.996302
vt 0.457201 0.996633
vt 0.456047 0.979126
vt 0.456047 0.979126
vt 0.458338 0.978744
vt 0.459052 0.996302
vt 0.467387 0.995994
vt 0.459052 0.996302
vt 0.458338 0.978744
vt 0.458338 0.978744
vt 0.467119 0.978586
vt 0.467387 0.995994
vt 0.478122 0.996033
vt 0.467387 0.995994
vt 0.467119 0.978586
vt 0.467119 0.978586
vt 0.478075 0.978647
vt 0.478122 0.996033
vt 0.489022 0.996114
vt 0.478122 0.996033
vt 0.478075 0.978647
vt 0.478075 0.978647
vt 0.489033 0.978697
vt 0.489022 0.996114
vt 0.499997 0.996160
vt 0.489022 0.996114
vt 0.489033 0.978697
vt 0.489033 0.978697
vt 0.500005 0.978748
vt 0.499997 0.996160
vt 0.453858 0.997490
vt 0.448621 0.998519
vt 0.447706 0.981315
vt 0.447706 0.981315
vt 0.452630 0.980216
vt 0.453858 0.997490
vt 0.438570 0.998963
vt 0.435165 0.998947
vt 0.435131 0.981552
vt 0.435131 0.981552
vt 0.438462 0.981329
vt 0.438570 0.998963
vt 0.036123 0.031319
vt 0.036123 0.967656
vt 0.022643 0.950223
vt 0.022643 0.950223
vt 0.022643 0.048751
vt 0.036123 0.031319
vt 0.564458 0.977363
vt 0.563949 0.972541
vt 0.949848 0.972439
vt 0.949848 0.972439
vt 0.949436 0.977029
vt 0.564458 0.977363
vt 0.560882 0.971323
vt 0.561311 0.975036
vt 0.556901 0.977390
vt 0.556901 0.977390
vt 0.556377 0.973830
vt 0.560882 0.971323
vt 0.552633 0.977263
vt 0.552874 0.974001
vt 0.556377 0.973830
vt 0.556377 0.973830
vt 0.556901 0.977390
vt 0.552633 0.977263
vt 0.549418 0.973197
vt 0.548545 0.976210
vt 0.545197 0.974387
vt 0.545197 0.974387
vt 0.545973 0.971777
vt 0.549418 0.973197
vt 0.545973 0.971777
vt 0.545197 0.974387
vt 0.541895 0.974613
vt 0.541895 0.974613
vt 0.541842 0.971511
vt 0.545973 0.971777
vt 0.541842 0.971511
vt 0.541895 0.974613
vt 0.532729 0.974477
vt 0.532729 0.974477
vt 0.532683 0.971767
vt 0.541842 0.971511
vt 0.532683 0.971767
vt 0.532729 0.974477
vt 0.521849 0.974433
vt 0.521849 0.974433
vt 0.521914 0.971746
vt 0.532683 0.971767
vt 0.521914 0.971746
vt 0.521849 0.974433
vt 0.510997 0.974436
vt 0.510997 0.974436
vt 0.511029 0.971752
vt 0.521914 0.971746
vt 0.511029 0.971752
vt 0.510997 0.974436
vt 0.500008 0.974485
vt 0.500008 0.974485
vt 0.500009 0.971803
vt 0.511029 0.971752
vt 0.947991 0.967777
vt 0.949600 0.970274
vt 0.563620 0.970361
vt 0.563620 0.970361
vt 0.563587 0.967784
vt 0.947991 0.967777
vt 0.955725 0.028990
vt 0.955725 0.970234
vt 0.953845 0.967777
vt 0.953845 0.967777
vt 0.953846 0.031445
vt 0.955725 0.028990
vt 0.555834 0.968065
vt 0.560507 0.967458
vt 0.560618 0.969420
vt 0.560618 0.969420
vt 0.556045 0.971151
vt 0.555834 0.968065
vt 0.553071 0.971400
vt 0.550189 0.970775
vt 0.550657 0.967939
vt 0.550657 0.967939
vt 0.553231 0.968158
vt 0.553071 0.971400
vt 0.547124 0.967537
vt 0.550657 0.967939
vt 0.550189 0.970775
vt 0.550189 0.970775
vt 0.546732 0.969714
vt 0.547124 0.967537
vt 0.541721 0.967487
vt 0.547124 0.967537
vt 0.546732 0.969714
vt 0.546732 0.969714
vt 0.541732 0.969555
vt 0.541721 0.967487
vt 0.532621 0.967721
vt 0.541721 0.967487
vt 0.541732 0.969555
vt 0.541732 0.969555
vt 0.532776 0.970231
vt 0.532621 0.967721
vt 0.521944 0.967717
vt 0.532621 0.967721
vt 0.532776 0.970231
vt 0.532776 0.970231
vt 0.522028 0.970249
vt 0.521944 0.967717
vt 0.511046 0.967715
vt 0.521944 0.967717
vt 0.522028 0.970249
vt 0.522028 0.970249
vt 0.511087 0.970271
vt 0.511046 0.967715
vt 0.500010 0.967722
vt 0.511046 0.967715
vt 0.511087 0.970271
vt 0.511087 0.970271
vt 0.500009 0.970311
vt 0.500010 0.967722
vt 0.564879 0.981674
vt 0.564843 0.979205
vt 0.948516 0.979239
vt 0.948516 0.979239
vt 0.946541 0.981700
vt 0.564879 0.981674
vt 0.561548 0.981448
vt 0.557318 0.981821
vt 0.557216 0.979539
vt 0.557216 0.979539
vt 0.561431 0.978483
vt 0.561548 0.981448
vt 0.552304 0.981421
vt 0.552480 0.979197
vt 0.557216 0.979539
vt 0.557216 0.979539
vt 0.557318 0.981821
vt 0.552304 0.981421
vt 0.547380 0.980312
vt 0.543964 0.979216
vt 0.544513 0.976394
vt 0.544513 0.976394
vt 0.547854 0.977935
vt 0.547380 0.980312
vt 0.543964 0.979216
vt 0.541674 0.978830
vt 0.541828 0.975974
vt 0.541828 0.975974
vt 0.544513 0.976394
vt 0.543964 0.979216
vt 0.541674 0.978830
vt 0.532893 0.978654
vt 0.532873 0.976127
vt 0.532873 0.976127
vt 0.541828 0.975974
vt 0.541674 0.978830
vt 0.532893 0.978654
vt 0.521936 0.978693
vt 0.521916 0.976205
vt 0.521916 0.976205
vt 0.532873 0.976127
vt 0.532893 0.978654
vt 0.521936 0.978693
vt 0.510978 0.978719
vt 0.510960 0.976168
vt 0.510960 0.976168
vt 0.521916 0.976205
vt 0.521936 0.978693
vt 0.510978 0.978719
vt 0.500005 0.978748
vt 0.500007 0.976203
vt 0.500007 0.976203
vt 0.510960 0.976168
vt 0.510978 0.978719
vt 0.949848 0.972439
vt 0.563949 0.972541
vt 0.563620 0.970361
vt 0.563620 0.970361
vt 0.949600 0.970274
vt 0.949848 0.972439
vt 0.957270 0.028173
vt 0.957270 0.971052
vt 0.955725 0.970234
vt 0.955725 0.970234
vt 0.955725 0.028990
vt 0.957270 0.028173
vt 0.556045 0.971151
vt 0.560618 0.969420
vt 0.560882 0.971323
vt 0.560882 0.971323
vt 0.556377 0.973830
vt 0.556045 0.971151
vt 0.552874 0.974001
vt 0.549418 0.973197
vt 0.550189 0.970775
vt 0.550189 0.970775
vt 0.553071 0.971400
vt 0.552874 0.974001
vt 0.546732 0.969714
vt 0.550189 0.970775
vt 0.549418 0.973197
vt 0.549418 0.973197
vt 0.545973 0.971777
vt 0.546732 0.969714
vt 0.541732 0.969555
vt 0.546732 0.969714
vt 0.545973 0.971777
vt 0.545973 0.971777
vt 0.541842 0.971511
vt 0.541732 0.969555
vt 0.532776 0.970231
vt 0.541732 0.969555
vt 0.541842 0.971511
vt 0.541842 0.971511
vt 0.532683 0.971767
vt 0.532776 0.970231
vt 0.522028 0.970249
vt 0.532776 0.970231
vt 0.532683 0.971767
vt 0.532683 0.971767
vt 0.521914 0.971746
vt 0.522028 0.970249
vt 0.511087 0.970271
vt 0.522028 0.970249
vt 0.521914 0.971746
vt 0.521914 0.971746
vt 0.511029 0.971752
vt 0.511087 0.970271
vt 0.500009 0.970311
vt 0.511087 0.970271
vt 0.511029 0.971752
vt 0.511029 0.971752
vt 0.500009 0.971803
vt 0.500009 0.970311
vt 0.564843 0.979205
vt 0.564458 0.977363
vt 0.949436 0.977029
vt 0.949436 0.977029
vt 0.948516 0.979239
vt 0.564843 0.979205
vt 0.561431 0.978483
vt 0.557216 0.979539
vt 0.556901 0.977390
vt 0.556901 0.977390
vt 0.561311 0.975036
vt 0.561431 0.978483
vt 0.552480 0.979197
vt 0.552633 0.977263
vt 0.556901 0.977390
vt 0.556901 0.977390
vt 0.557216 0.979539
vt 0.552480 0.979197
vt 0.547854 0.977935
vt 0.544513 0.976394
vt 0.545197 0.974387
vt 0.545197 0.974387
vt 0.548545 0.976210
vt 0.547854 0.977935
vt 0.544513 0.976394
vt 0.541828 0.975974
vt 0.541895 0.974613
vt 0.541895 0.974613
vt 0.545197 0.974387
vt 0.544513 0.976394
vt 0.541828 0.975974
vt 0.532873 0.976127
vt 0.532729 0.974477
vt 0.532729 0.974477
vt 0.541895 0.974613
vt 0.541828 0.975974
vt 0.532873 0.976127
vt 0.521916 0.976205
vt 0.521849 0.974433
vt 0.521849 0.974433
vt 0.532729 0.974477
vt 0.532873 0.976127
vt 0.521916 0.976205
vt 0.510960 0.976168
vt 0.510997 0.974436
vt 0.510997 0.974436
vt 0.521849 0.974433
vt 0.521916 0.976205
vt 0.510960 0.976168
vt 0.500007 0.976203
vt 0.500008 0.974485
vt 0.500008 0.974485
vt 0.510997 0.974436
vt 0.510960 0.976168
vt 0.552633 0.977263
vt 0.548545 0.976210
vt 0.549418 0.973197
vt 0.549418 0.973197
vt 0.552874 0.974001
vt 0.552633 0.977263
vt 0.555834 0.968065
vt 0.556045 0.971151
vt 0.553071 0.971400
vt 0.553071 0.971400
vt 0.553231 0.968158
vt 0.555834 0.968065
vt 0.552304 0.981421
vt 0.547380 0.980312
vt 0.547854 0.977935
vt 0.547854 0.977935
vt 0.552480 0.979197
vt 0.552304 0.981421
vt 0.556045 0.971151
vt 0.556377 0.973830
vt 0.552874 0.974001
vt 0.552874 0.974001
vt 0.553071 0.971400
vt 0.556045 0.971151
vt 0.552480 0.979197
vt 0.547854 0.977935
vt 0.548545 0.976210
vt 0.548545 0.976210
vt 0.552633 0.977263
vt 0.552480 0.979197
vt 0.561311 0.975036
vt 0.560882 0.971323
vt 0.563949 0.972541
vt 0.563949 0.972541
vt 0.564458 0.977363
vt 0.561311 0.975036
vt 0.560618 0.969420
vt 0.560507 0.967458
vt 0.563587 0.967784
vt 0.563587 0.967784
vt 0.563620 0.970361
vt 0.560618 0.969420
vt 0.561548 0.981448
vt 0.561431 0.978483
vt 0.564843 0.979205
vt 0.564843 0.979205
vt 0.564879 0.981674
vt 0.561548 0.981448
vt 0.560882 0.971323
vt 0.560618 0.969420
vt 0.563620 0.970361
vt 0.563620 0.970361
vt 0.563949 0.972541
vt 0.560882 0.971323
vt 0.561431 0.978483
vt 0.561311 0.975036
vt 0.564458 0.977363
vt 0.564458 0.977363
vt 0.564843 0.979205
vt 0.561431 0.978483
vt 0.946541 0.981700
vt 0.952353 0.981700
vt 0.938816 0.999102
vt 0.938816 0.999102
vt 0.933207 0.999101
vt 0.946541 0.981700
vt 0.556868 0.999092
vt 0.557318 0.981821
vt 0.561548 0.981448
vt 0.561548 0.981448
vt 0.561437 0.999082
vt 0.556868 0.999092
vt 0.551378 0.998624
vt 0.552304 0.981421
vt 0.557318 0.981821
vt 0.557318 0.981821
vt 0.556868 0.999092
vt 0.551378 0.998624
vt 0.542796 0.996722
vt 0.543964 0.979216
vt 0.547380 0.980312
vt 0.547380 0.980312
vt 0.546140 0.997586
vt 0.542796 0.996722
vt 0.540944 0.996386
vt 0.541674 0.978830
vt 0.543964 0.979216
vt 0.543964 0.979216
vt 0.542796 0.996722
vt 0.540944 0.996386
vt 0.532608 0.996061
vt 0.532893 0.978654
vt 0.541674 0.978830
vt 0.541674 0.978830
vt 0.540944 0.996386
vt 0.532608 0.996061
vt 0.521873 0.996079
vt 0.521936 0.978693
vt 0.532893 0.978654
vt 0.532893 0.978654
vt 0.532608 0.996061
vt 0.521873 0.996079
vt 0.510972 0.996137
vt 0.510978 0.978719
vt 0.521936 0.978693
vt 0.521936 0.978693
vt 0.521873 0.996079
vt 0.510972 0.996137
vt 0.499997 0.996160
vt 0.500005 0.978748
vt 0.510978 0.978719
vt 0.510978 0.978719
vt 0.510972 0.996137
vt 0.499997 0.996160
vt 0.546140 0.997586
vt 0.547380 0.980312
vt 0.552304 0.981421
vt 0.552304 0.981421
vt 0.551378 0.998624
vt 0.546140 0.997586
vt 0.561437 0.999082
vt 0.561548 0.981448
vt 0.564879 0.981674
vt 0.564879 0.981674
vt 0.564845 0.999068
vt 0.561437 0.999082
vt 0.960424 0.971052
vt 0.957270 0.971052
vt 0.957270 0.028173
vt 0.957270 0.028173
vt 0.960424 0.028174
vt 0.960424 0.971052
vt 0.439512 0.967342
vt 0.439512 0.031643
vt 0.444185 0.031037
vt 0.444185 0.031037
vt 0.444185 0.967955
vt 0.439512 0.967342
vt 0.446788 0.968055
vt 0.446789 0.030943
vt 0.449363 0.031161
vt 0.449363 0.031161
vt 0.449363 0.967842
vt 0.446788 0.968055
vt 0.449363 0.967842
vt 0.449363 0.031161
vt 0.452897 0.031564
vt 0.452897 0.031564
vt 0.452897 0.967448
vt 0.449363 0.967842
vt 0.452897 0.967448
vt 0.452897 0.031564
vt 0.458300 0.031613
vt 0.458300 0.031613
vt 0.458300 0.967406
vt 0.452897 0.967448
vt 0.458300 0.967406
vt 0.458300 0.031613
vt 0.467399 0.031378
vt 0.467399 0.031378
vt 0.467399 0.967658
vt 0.458300 0.967406
vt 0.467399 0.967658
vt 0.467399 0.031378
vt 0.478077 0.031382
vt 0.478077 0.031382
vt 0.478077 0.967673
vt 0.467399 0.967658
vt 0.478077 0.967673
vt 0.478077 0.031382
vt 0.488975 0.031383
vt 0.488975 0.031383
vt 0.488975 0.967693
vt 0.478077 0.967673
vt 0.488975 0.967693
vt 0.488975 0.031383
vt 0.500011 0.031376
vt 0.500011 0.031376
vt 0.500010 0.967722
vt 0.488975 0.967693
vt 0.435562 0.021739
vt 0.436071 0.026561
vt 0.050171 0.026663
vt 0.050171 0.026663
vt 0.050583 0.022073
vt 0.435562 0.021739
vt 0.439137 0.027779
vt 0.438708 0.024065
vt 0.443118 0.021712
vt 0.443118 0.021712
vt 0.443643 0.025272
vt 0.439137 0.027779
vt 0.447386 0.021839
vt 0.447145 0.025100
vt 0.443643 0.025272
vt 0.443643 0.025272
vt 0.443118 0.021712
vt 0.447386 0.021839
vt 0.450602 0.025904
vt 0.451475 0.022891
vt 0.454823 0.024713
vt 0.454823 0.024713
vt 0.454047 0.027324
vt 0.450602 0.025904
vt 0.454047 0.027324
vt 0.454823 0.024713
vt 0.458125 0.024487
vt 0.458125 0.024487
vt 0.458178 0.027589
vt 0.454047 0.027324
vt 0.458178 0.027589
vt 0.458125 0.024487
vt 0.467291 0.024622
vt 0.467291 0.024622
vt 0.467338 0.027332
vt 0.458178 0.027589
vt 0.467338 0.027332
vt 0.467291 0.024622
vt 0.478172 0.024665
vt 0.478172 0.024665
vt 0.478106 0.027353
vt 0.467338 0.027332
vt 0.478106 0.027353
vt 0.478172 0.024665
vt 0.489024 0.024661
vt 0.489024 0.024661
vt 0.488992 0.027346
vt 0.478106 0.027353
vt 0.488992 0.027346
vt 0.489024 0.024661
vt 0.500013 0.024613
vt 0.500013 0.024613
vt 0.500012 0.027295
vt 0.488992 0.027346
vt 0.052028 0.031324
vt 0.050419 0.028828
vt 0.436400 0.028740
vt 0.436400 0.028740
vt 0.436432 0.031317
vt 0.052028 0.031324
vt 0.044294 0.970111
vt 0.044294 0.028868
vt 0.046175 0.031324
vt 0.046175 0.031324
vt 0.046174 0.967656
vt 0.044294 0.970111
vt 0.444185 0.031037
vt 0.439512 0.031643
vt 0.439402 0.029681
vt 0.439402 0.029681
vt 0.443975 0.027951
vt 0.444185 0.031037
vt 0.446948 0.027701
vt 0.449831 0.028326
vt 0.449363 0.031161
vt 0.449363 0.031161
vt 0.446789 0.030943
vt 0.446948 0.027701
vt 0.452897 0.031564
vt 0.449363 0.031161
vt 0.449831 0.028326
vt 0.449831 0.028326
vt 0.453288 0.029386
vt 0.452897 0.031564
vt 0.458300 0.031613
vt 0.452897 0.031564
vt 0.453288 0.029386
vt 0.453288 0.029386
vt 0.458289 0.029545
vt 0.458300 0.031613
vt 0.467399 0.031378
vt 0.458300 0.031613
vt 0.458289 0.029545
vt 0.458289 0.029545
vt 0.467244 0.028869
vt 0.467399 0.031378
vt 0.478077 0.031382
vt 0.467399 0.031378
vt 0.467244 0.028869
vt 0.467244 0.028869
vt 0.477993 0.028850
vt 0.478077 0.031382
vt 0.488975 0.031383
vt 0.478077 0.031382
vt 0.477993 0.028850
vt 0.477993 0.028850
vt 0.488934 0.028827
vt 0.488975 0.031383
vt 0.500011 0.031376
vt 0.488975 0.031383
vt 0.488934 0.028827
vt 0.488934 0.028827
vt 0.500012 0.028787
vt 0.500011 0.031376
vt 0.435140 0.017428
vt 0.435176 0.019897
vt 0.051504 0.019863
vt 0.051504 0.019863
vt 0.053478 0.017402
vt 0.435140 0.017428
vt 0.438471 0.017654
vt 0.442702 0.017280
vt 0.442804 0.019562
vt 0.442804 0.019562
vt 0.438589 0.020619
vt 0.438471 0.017654
vt 0.447716 0.017680
vt 0.447540 0.019904
vt 0.442804 0.019562
vt 0.442804 0.019562
vt 0.442702 0.017280
vt 0.447716 0.017680
vt 0.452640 0.018789
vt 0.456056 0.019885
vt 0.455507 0.022706
vt 0.455507 0.022706
vt 0.452166 0.021166
vt 0.452640 0.018789
vt 0.456056 0.019885
vt 0.458346 0.020271
vt 0.458192 0.023127
vt 0.458192 0.023127
vt 0.455507 0.022706
vt 0.456056 0.019885
vt 0.458346 0.020271
vt 0.467127 0.020445
vt 0.467147 0.022972
vt 0.467147 0.022972
vt 0.458192 0.023127
vt 0.458346 0.020271
vt 0.467127 0.020445
vt 0.478084 0.020406
vt 0.478104 0.022893
vt 0.478104 0.022893
vt 0.467147 0.022972
vt 0.467127 0.020445
vt 0.478084 0.020406
vt 0.489043 0.020378
vt 0.489061 0.022930
vt 0.489061 0.022930
vt 0.478104 0.022893
vt 0.478084 0.020406
vt 0.489043 0.020378
vt 0.500015 0.020350
vt 0.500014 0.022894
vt 0.500014 0.022894
vt 0.489061 0.022930
vt 0.489043 0.020378
vt 0.050171 0.026663
vt 0.436071 0.026561
vt 0.436400 0.028740
vt 0.436400 0.028740
vt 0.050419 0.028828
vt 0.050171 0.026663
vt 0.042750 0.970928
vt 0.042750 0.028049
vt 0.044294 0.028868
vt 0.044294 0.028868
vt 0.044294 0.970111
vt 0.042750 0.970928
vt 0.443975 0.027951
vt 0.439402 0.029681
vt 0.439137 0.027779
vt 0.439137 0.027779
vt 0.443643 0.025272
vt 0.443975 0.027951
vt 0.447145 0.025100
vt 0.450602 0.025904
vt 0.449831 0.028326
vt 0.449831 0.028326
vt 0.446948 0.027701
vt 0.447145 0.025100
vt 0.453288 0.029386
vt 0.449831 0.028326
vt 0.450602 0.025904
vt 0.450602 0.025904
vt 0.454047 0.027324
vt 0.453288 0.029386
vt 0.458289 0.029545
vt 0.453288 0.029386
vt 0.454047 0.027324
vt 0.454047 0.027324
vt 0.458178 0.027589
vt 0.458289 0.029545
vt 0.467244 0.028869
vt 0.458289 0.029545
vt 0.458178 0.027589
vt 0.458178 0.027589
vt 0.467338 0.027332
vt 0.467244 0.028869
vt 0.477993 0.028850
vt 0.467244 0.028869
vt 0.467338 0.027332
vt 0.467338 0.027332
vt 0.478106 0.027353
vt 0.477993 0.028850
vt 0.488934 0.028827
vt 0.477993 0.028850
vt 0.478106 0.027353
vt 0.478106 0.027353
vt 0.488992 0.027346
vt 0.488934 0.028827
vt 0.500012 0.028787
vt 0.488934 0.028827
vt 0.488992 0.027346
vt 0.488992 0.027346
vt 0.500012 0.027295
vt 0.500012 0.028787
vt 0.435176 0.019897
vt 0.435562 0.021739
vt 0.050583 0.022073
vt 0.050583 0.022073
vt 0.051504 0.019863
vt 0.435176 0.019897
vt 0.438589 0.020619
vt 0.442804 0.019562
vt 0.443118 0.021712
vt 0.443118 0.021712
vt 0.438708 0.024065
vt 0.438589 0.020619
vt 0.447540 0.019904
vt 0.447386 0.021839
vt 0.443118 0.021712
vt 0.443118 0.021712
vt 0.442804 0.019562
vt 0.447540 0.019904
vt 0.452166 0.021166
vt 0.455507 0.022706
vt 0.454823 0.024713
vt 0.454823 0.024713
vt 0.451475 0.022891
vt 0.452166 0.021166
vt 0.455507 0.022706
vt 0.458192 0.023127
vt 0.458125 0.024487
vt 0.458125 0.024487
vt 0.454823 0.024713
vt 0.455507 0.022706
vt 0.458192 0.023127
vt 0.467147 0.022972
vt 0.467291 0.024622
vt 0.467291 0.024622
vt 0.458125 0.024487
vt 0.458192 0.023127
vt 0.467147 0.022972
vt 0.478104 0.022893
vt 0.478172 0.024665
vt 0.478172 0.024665
vt 0.467291 0.024622
vt 0.467147 0.022972
vt 0.478104 0.022893
vt 0.489061 0.022930
vt 0.489024 0.024661
vt 0.489024 0.024661
vt 0.478172 0.024665
vt 0.478104 0.022893
vt 0.489061 0.022930
vt 0.500014 0.022894
vt 0.500013 0.024613
vt 0.500013 0.024613
vt 0.489024 0.024661
vt 0.489061 0.022930
vt 0.444185 0.967955
vt 0.444185 0.031037
vt 0.446789 0.030943
vt 0.446789 0.030943
vt 0.446788 0.968055
vt 0.444185 0.967955
vt 0.447386 0.021839
vt 0.451475 0.022891
vt 0.450602 0.025904
vt 0.450602 0.025904
vt 0.447145 0.025100
vt 0.447386 0.021839
vt 0.444185 0.031037
vt 0.443975 0.027951
vt 0.446948 0.027701
vt 0.446948 0.027701
vt 0.446789 0.030943
vt 0.444185 0.031037
vt 0.447716 0.017680
vt 0.452640 0.018789
vt 0.452166 0.021166
vt 0.452166 0.021166
vt 0.447540 0.019904
vt 0.447716 0.017680
vt 0.443975 0.027951
vt 0.443643 0.025272
vt 0.447145 0.025100
vt 0.447145 0.025100
vt 0.446948 0.027701
vt 0.443975 0.027951
vt 0.447540 0.019904
vt 0.452166 0.021166
vt 0.451475 0.022891
vt 0.451475 0.022891
vt 0.447386 0.021839
vt 0.447540 0.019904
vt 0.438708 0.024065
vt 0.439137 0.027779
vt 0.436071 0.026561
vt 0.436071 0.026561
vt 0.435562 0.021739
vt 0.438708 0.024065
vt 0.439402 0.029681
vt 0.439512 0.031643
vt 0.436432 0.031317
vt 0.436432 0.031317
vt 0.436400 0.028740
vt 0.439402 0.029681
vt 0.438471 0.017654
vt 0.438589 0.020619
vt 0.435176 0.019897
vt 0.435176 0.019897
vt 0.435140 0.017428
vt 0.438471 0.017654
vt 0.439137 0.027779
vt 0.439402 0.029681
vt 0.436400 0.028740
vt 0.436400 0.028740
vt 0.436071 0.026561
vt 0.439137 0.027779
vt 0.438589 0.020619
vt 0.438708 0.024065
vt 0.435562 0.021739
vt 0.435562 0.021739
vt 0.435176 0.019897
vt 0.438589 0.020619
vt 0.053478 0.017402
vt 0.047666 0.017402
vt 0.061203 0.000000
vt 0.061203 0.000000
vt 0.066813 0.000001
vt 0.053478 0.017402
vt 0.443152 0.000010
vt 0.442702 0.017280
vt 0.438471 0.017654
vt 0.438471 0.017654
vt 0.438582 0.000020
vt 0.443152 0.000010
vt 0.448641 0.000477
vt 0.447716 0.017680
vt 0.442702 0.017280
vt 0.442702 0.017280
vt 0.443152 0.000010
vt 0.448641 0.000477
vt 0.457223 0.002379
vt 0.456056 0.019885
vt 0.452640 0.018789
vt 0.452640 0.018789
vt 0.453879 0.001515
vt 0.457223 0.002379
vt 0.459075 0.002714
vt 0.458346 0.020271
vt 0.456056 0.019885
vt 0.456056 0.019885
vt 0.457223 0.002379
vt 0.459075 0.002714
vt 0.467411 0.003038
vt 0.467127 0.020445
vt 0.458346 0.020271
vt 0.458346 0.020271
vt 0.459075 0.002714
vt 0.467411 0.003038
vt 0.478146 0.003020
vt 0.478084 0.020406
vt 0.467127 0.020445
vt 0.467127 0.020445
vt 0.467411 0.003038
vt 0.478146 0.003020
vt 0.489048 0.002961
vt 0.489043 0.020378
vt 0.478084 0.020406
vt 0.478084 0.020406
vt 0.478146 0.003020
vt 0.489048 0.002961
vt 0.500023 0.002937
vt 0.500015 0.020350
vt 0.489043 0.020378
vt 0.489043 0.020378
vt 0.489048 0.002961
vt 0.500023 0.002937
vt 0.453879 0.001515
vt 0.452640 0.018789
vt 0.447716 0.017680
vt 0.447716 0.017680
vt 0.448641 0.000477
vt 0.453879 0.001515
vt 0.438582 0.000020
vt 0.438471 0.017654
vt 0.435140 0.017428
vt 0.435140 0.017428
vt 0.435175 0.000034
vt 0.438582 0.000020
vt 0.042750 0.028049
vt 0.042750 0.970928
vt 0.039595 0.970927
vt 0.039595 0.970927
vt 0.039595 0.028049
vt 0.042750 0.028049
vt 0.036123 0.031319
vt 0.038006 0.028866
vt 0.038005 0.970109
vt 0.038005 0.970109
vt 0.036123 0.967656
vt 0.036123 0.031319
vt 0.038006 0.028866
vt 0.039595 0.028049
vt 0.039595 0.970927
vt 0.039595 0.970927
vt 0.038005 0.970109
vt 0.038006 0.028866
vt 0.439512 0.031643
vt 0.439512 0.967342
vt 0.436432 0.967664
vt 0.436432 0.967664
vt 0.436432 0.031317
vt 0.439512 0.031643
vt 0.563587 0.967784
vt 0.563588 0.031437
vt 0.947992 0.031445
vt 0.947992 0.031445
vt 0.947991 0.967777
vt 0.563587 0.967784
vt 0.555835 0.031146
vt 0.560507 0.031759
vt 0.560507 0.967458
vt 0.560507 0.967458
vt 0.555834 0.968065
vt 0.555835 0.031146
vt 0.550657 0.031259
vt 0.553232 0.031046
vt 0.553231 0.968158
vt 0.553231 0.968158
vt 0.550657 0.967939
vt 0.550657 0.031259
vt 0.547124 0.031652
vt 0.550657 0.031259
vt 0.550657 0.967939
vt 0.550657 0.967939
vt 0.547124 0.967537
vt 0.547124 0.031652
vt 0.541721 0.031694
vt 0.547124 0.031652
vt 0.547124 0.967537
vt 0.547124 0.967537
vt 0.541721 0.967487
vt 0.541721 0.031694
vt 0.532621 0.031442
vt 0.541721 0.031694
vt 0.541721 0.967487
vt 0.541721 0.967487
vt 0.532621 0.967721
vt 0.532621 0.031442
vt 0.521944 0.031426
vt 0.532621 0.031442
vt 0.532621 0.967721
vt 0.532621 0.967721
vt 0.521944 0.967717
vt 0.521944 0.031426
vt 0.511046 0.031405
vt 0.521944 0.031426
vt 0.521944 0.967717
vt 0.521944 0.967717
vt 0.511046 0.967715
vt 0.511046 0.031405
vt 0.500011 0.031376
vt 0.511046 0.031405
vt 0.511046 0.967715
vt 0.511046 0.967715
vt 0.500010 0.967722
vt 0.500011 0.031376
vt 0.949853 0.026784
vt 0.563953 0.026682
vt 0.564465 0.021860
vt 0.564465 0.021860
vt 0.949443 0.022194
vt 0.949853 0.026784
vt 0.560886 0.027896
vt 0.556382 0.025382
vt 0.556909 0.021823
vt 0.556909 0.021823
vt 0.561317 0.024182
vt 0.560886 0.027896
vt 0.552641 0.021942
vt 0.556909 0.021823
vt 0.556382 0.025382
vt 0.556382 0.025382
vt 0.552880 0.025204
vt 0.552641 0.021942
vt 0.549423 0.026001
vt 0.545976 0.027413
vt 0.545202 0.024803
vt 0.545202 0.024803
vt 0.548552 0.022987
vt 0.549423 0.026001
vt 0.545976 0.027413
vt 0.541845 0.027673
vt 0.541901 0.024572
vt 0.541901 0.024572
vt 0.545202 0.024803
vt 0.545976 0.027413
vt 0.541845 0.027673
vt 0.532686 0.027397
vt 0.532735 0.024688
vt 0.532735 0.024688
vt 0.541901 0.024572
vt 0.541845 0.027673
vt 0.532686 0.027397
vt 0.521918 0.027397
vt 0.521854 0.024710
vt 0.521854 0.024710
vt 0.532735 0.024688
vt 0.532686 0.027397
vt 0.521918 0.027397
vt 0.511032 0.027368
vt 0.511003 0.024684
vt 0.511003 0.024684
vt 0.521854 0.024710
vt 0.521918 0.027397
vt 0.511032 0.027368
vt 0.500012 0.027295
vt 0.500013 0.024613
vt 0.500013 0.024613
vt 0.511003 0.024684
vt 0.511032 0.027368
vt 0.947992 0.031445
vt 0.563588 0.031437
vt 0.563622 0.028862
vt 0.563622 0.028862
vt 0.949603 0.028949
vt 0.947992 0.031445
vt 0.555835 0.031146
vt 0.556048 0.028060
vt 0.560620 0.029797
vt 0.560620 0.029797
vt 0.560507 0.031759
vt 0.555835 0.031146
vt 0.553074 0.027804
vt 0.553232 0.031046
vt 0.550657 0.031259
vt 0.550657 0.031259
vt 0.550191 0.028424
vt 0.553074 0.027804
vt 0.547124 0.031652
vt 0.546733 0.029475
vt 0.550191 0.028424
vt 0.550191 0.028424
vt 0.550657 0.031259
vt 0.547124 0.031652
vt 0.541721 0.031694
vt 0.541733 0.029628
vt 0.546733 0.029475
vt 0.546733 0.029475
vt 0.547124 0.031652
vt 0.541721 0.031694
vt 0.532621 0.031442
vt 0.532778 0.028933
vt 0.541733 0.029628
vt 0.541733 0.029628
vt 0.541721 0.031694
vt 0.532621 0.031442
vt 0.521944 0.031426
vt 0.522030 0.028894
vt 0.532778 0.028933
vt 0.532778 0.028933
vt 0.532621 0.031442
vt 0.521944 0.031426
vt 0.511046 0.031405
vt 0.511089 0.028849
vt 0.522030 0.028894
vt 0.522030 0.028894
vt 0.521944 0.031426
vt 0.511046 0.031405
vt 0.500011 0.031376
vt 0.500012 0.028787
vt 0.511089 0.028849
vt 0.511089 0.028849
vt 0.511046 0.031405
vt 0.500011 0.031376
vt 0.948524 0.019983
vt 0.564852 0.020017
vt 0.564890 0.017547
vt 0.564890 0.017547
vt 0.946551 0.017522
vt 0.948524 0.019983
vt 0.561558 0.017771
vt 0.561439 0.020735
vt 0.557225 0.019674
vt 0.557225 0.019674
vt 0.557328 0.017392
vt 0.561558 0.017771
vt 0.552314 0.017784
vt 0.557328 0.017392
vt 0.557225 0.019674
vt 0.557225 0.019674
vt 0.552489 0.020008
vt 0.552314 0.017784
vt 0.547390 0.018884
vt 0.547862 0.021262
vt 0.544520 0.022796
vt 0.544520 0.022796
vt 0.543973 0.019974
vt 0.547390 0.018884
vt 0.543973 0.019974
vt 0.544520 0.022796
vt 0.541835 0.023211
vt 0.541835 0.023211
vt 0.541683 0.020355
vt 0.543973 0.019974
vt 0.541683 0.020355
vt 0.541835 0.023211
vt 0.532880 0.023039
vt 0.532880 0.023039
vt 0.532902 0.020512
vt 0.541683 0.020355
vt 0.532902 0.020512
vt 0.532880 0.023039
vt 0.521923 0.022938
vt 0.521923 0.022938
vt 0.521946 0.020451
vt 0.532902 0.020512
vt 0.521946 0.020451
vt 0.521923 0.022938
vt 0.510967 0.022953
vt 0.510967 0.022953
vt 0.510987 0.020401
vt 0.521946 0.020451
vt 0.510987 0.020401
vt 0.510967 0.022953
vt 0.500014 0.022894
vt 0.500014 0.022894
vt 0.500015 0.020350
vt 0.510987 0.020401
vt 0.563622 0.028862
vt 0.563953 0.026682
vt 0.949853 0.026784
vt 0.949853 0.026784
vt 0.949603 0.028949
vt 0.563622 0.028862
vt 0.556048 0.028060
vt 0.556382 0.025382
vt 0.560886 0.027896
vt 0.560886 0.027896
vt 0.560620 0.029797
vt 0.556048 0.028060
vt 0.552880 0.025204
vt 0.553074 0.027804
vt 0.550191 0.028424
vt 0.550191 0.028424
vt 0.549423 0.026001
vt 0.552880 0.025204
vt 0.546733 0.029475
vt 0.545976 0.027413
vt 0.549423 0.026001
vt 0.549423 0.026001
vt 0.550191 0.028424
vt 0.546733 0.029475
vt 0.541733 0.029628
vt 0.541845 0.027673
vt 0.545976 0.027413
vt 0.545976 0.027413
vt 0.546733 0.029475
vt 0.541733 0.029628
vt 0.532778 0.028933
vt 0.532686 0.027397
vt 0.541845 0.027673
vt 0.541845 0.027673
vt 0.541733 0.029628
vt 0.532778 0.028933
vt 0.522030 0.028894
vt 0.521918 0.027397
vt 0.532686 0.027397
vt 0.532686 0.027397
vt 0.532778 0.028933
vt 0.522030 0.028894
vt 0.511089 0.028849
vt 0.511032 0.027368
vt 0.521918 0.027397
vt 0.521918 0.027397
vt 0.522030 0.028894
vt 0.511089 0.028849
vt 0.500012 0.028787
vt 0.500012 0.027295
vt 0.511032 0.027368
vt 0.511032 0.027368
vt 0.511089 0.028849
vt 0.500012 0.028787
vt 0.949443 0.022194
vt 0.564465 0.021860
vt 0.564852 0.020017
vt 0.564852 0.020017
vt 0.948524 0.019983
vt 0.949443 0.022194
vt 0.561439 0.020735
vt 0.561317 0.024182
vt 0.556909 0.021823
vt 0.556909 0.021823
vt 0.557225 0.019674
vt 0.561439 0.020735
vt 0.552489 0.020008
vt 0.557225 0.019674
vt 0.556909 0.021823
vt 0.556909 0.021823
vt 0.552641 0.021942
vt 0.552489 0.020008
vt 0.547862 0.021262
vt 0.548552 0.022987
vt 0.545202 0.024803
vt 0.545202 0.024803
vt 0.544520 0.022796
vt 0.547862 0.021262
vt 0.544520 0.022796
vt 0.545202 0.024803
vt 0.541901 0.024572
vt 0.541901 0.024572
vt 0.541835 0.023211
vt 0.544520 0.022796
vt 0.541835 0.023211
vt 0.541901 0.024572
vt 0.532735 0.024688
vt 0.532735 0.024688
vt 0.532880 0.023039
vt 0.541835 0.023211
vt 0.532880 0.023039
vt 0.532735 0.024688
vt 0.521854 0.024710
vt 0.521854 0.024710
vt 0.521923 0.022938
vt 0.532880 0.023039
vt 0.521923 0.022938
vt 0.521854 0.024710
vt 0.511003 0.024684
vt 0.511003 0.024684
vt 0.510967 0.022953
vt 0.521923 0.022938
vt 0.510967 0.022953
vt 0.511003 0.024684
vt 0.500013 0.024613
vt 0.500013 0.024613
vt 0.500014 0.022894
vt 0.510967 0.022953
vt 0.553232 0.031046
vt 0.555835 0.031146
vt 0.555834 0.968065
vt 0.555834 0.968065
vt 0.553231 0.968158
vt 0.553232 0.031046
vt 0.552641 0.021942
vt 0.552880 0.025204
vt 0.549423 0.026001
vt 0.549423 0.026001
vt 0.548552 0.022987
vt 0.552641 0.021942
vt 0.555835 0.031146
vt 0.553232 0.031046
vt 0.553074 0.027804
vt 0.553074 0.027804
vt 0.556048 0.028060
vt 0.555835 0.031146
vt 0.552314 0.017784
vt 0.552489 0.020008
vt 0.547862 0.021262
vt 0.547862 0.021262
vt 0.547390 0.018884
vt 0.552314 0.017784
vt 0.556048 0.028060
vt 0.553074 0.027804
vt 0.552880 0.025204
vt 0.552880 0.025204
vt 0.556382 0.025382
vt 0.556048 0.028060
vt 0.552489 0.020008
vt 0.552641 0.021942
vt 0.548552 0.022987
vt 0.548552 0.022987
vt 0.547862 0.021262
vt 0.552489 0.020008
vt 0.561317 0.024182
vt 0.564465 0.021860
vt 0.563953 0.026682
vt 0.563953 0.026682
vt 0.560886 0.027896
vt 0.561317 0.024182
vt 0.560620 0.029797
vt 0.563622 0.028862
vt 0.563588 0.031437
vt 0.563588 0.031437
vt 0.560507 0.031759
vt 0.560620 0.029797
vt 0.561558 0.017771
vt 0.564890 0.017547
vt 0.564852 0.020017
vt 0.564852 0.020017
vt 0.561439 0.020735
vt 0.561558 0.017771
vt 0.560886 0.027896
vt 0.563953 0.026682
vt 0.563622 0.028862
vt 0.563622 0.028862
vt 0.560620 0.029797
vt 0.560886 0.027896
vt 0.561439 0.020735
vt 0.564852 0.020017
vt 0.564465 0.021860
vt 0.564465 0.021860
vt 0.561317 0.024182
vt 0.561439 0.020735
vt 0.946551 0.017522
vt 0.933217 0.000120
vt 0.938827 0.000119
vt 0.938827 0.000119
vt 0.952363 0.017521
vt 0.946551 0.017522
vt 0.556886 0.000121
vt 0.561451 0.000136
vt 0.561558 0.017771
vt 0.561558 0.017771
vt 0.557328 0.017392
vt 0.556886 0.000121
vt 0.551399 0.000580
vt 0.556886 0.000121
vt 0.557328 0.017392
vt 0.557328 0.017392
vt 0.552314 0.017784
vt 0.551399 0.000580
vt 0.542820 0.002466
vt 0.546162 0.001609
vt 0.547390 0.018884
vt 0.547390 0.018884
vt 0.543973 0.019974
vt 0.542820 0.002466
vt 0.540969 0.002797
vt 0.542820 0.002466
vt 0.543973 0.019974
vt 0.543973 0.019974
vt 0.541683 0.020355
vt 0.540969 0.002797
vt 0.532634 0.003105
vt 0.540969 0.002797
vt 0.541683 0.020355
vt 0.541683 0.020355
vt 0.532902 0.020512
vt 0.532634 0.003105
vt 0.521899 0.003065
vt 0.532634 0.003105
vt 0.532902 0.020512
vt 0.532902 0.020512
vt 0.521946 0.020451
vt 0.521899 0.003065
vt 0.510999 0.002983
vt 0.521899 0.003065
vt 0.521946 0.020451
vt 0.521946 0.020451
vt 0.510987 0.020401
vt 0.510999 0.002983
vt 0.500023 0.002937
vt 0.510999 0.002983
vt 0.510987 0.020401
vt 0.510987 0.020401
vt 0.500015 0.020350
vt 0.500023 0.002937
vt 0.546162 0.001609
vt 0.551399 0.000580
vt 0.552314 0.017784
vt 0.552314 0.017784
vt 0.547390 0.018884
vt 0.546162 0.001609
vt 0.561451 0.000136
vt 0.564855 0.000153
vt 0.564890 0.017547
vt 0.564890 0.017547
vt 0.561558 0.017771
vt 0.561451 0.000136
vt 0.962014 0.970235
vt 0.962014 0.028992
vt 0.963897 0.031445
vt 0.963897 0.031445
vt 0.963897 0.967782
vt 0.962014 0.970235
vt 0.960424 0.971052
vt 0.960424 0.028174
vt 0.962014 0.028992
vt 0.962014 0.028992
vt 0.962014 0.970235
vt 0.960424 0.971052
vt 0.563587 0.967784
vt 0.560507 0.967458
vt 0.560507 0.031759
vt 0.560507 0.031759
vt 0.563588 0.031437
vt 0.563587 0.967784
vt 0.963897 0.967782
vt 0.963897 0.031445
vt 0.977376 0.048878
vt 0.977376 0.048878
vt 0.977376 0.950350
vt 0.963897 0.967782
vt 0.052028 0.031324
vt 0.052028 0.967656
vt 0.046174 0.967656
vt 0.046174 0.967656
vt 0.046175 0.031324
vt 0.052028 0.031324
vt 0.044290 0.972315
vt 0.050167 0.972317
vt 0.050577 0.976906
vt 0.050577 0.976906
vt 0.044715 0.976901
vt 0.044290 0.972315
vt 0.046174 0.967656
vt 0.052028 0.967656
vt 0.050417 0.970152
vt 0.050417 0.970152
vt 0.044539 0.970151
vt 0.046174 0.967656
vt 0.051495 0.979117
vt 0.053469 0.981578
vt 0.047657 0.981578
vt 0.047657 0.981578
vt 0.045653 0.979117
vt 0.051495 0.979117
vt 0.044539 0.970151
vt 0.050417 0.970152
vt 0.050167 0.972317
vt 0.050167 0.972317
vt 0.044290 0.972315
vt 0.044539 0.970151
vt 0.050577 0.976906
vt 0.051495 0.979117
vt 0.045653 0.979117
vt 0.045653 0.979117
vt 0.044715 0.976901
vt 0.050577 0.976906
vt 0.066803 0.998980
vt 0.053469 0.981578
vt 0.435131 0.981552
vt 0.435131 0.981552
vt 0.435165 0.998947
vt 0.066803 0.998980
vt 0.949436 0.977029
vt 0.949848 0.972439
vt 0.955725 0.972437
vt 0.955725 0.972437
vt 0.955299 0.977024
vt 0.949436 0.977029
vt 0.949600 0.970274
vt 0.947991 0.967777
vt 0.953845 0.967777
vt 0.953845 0.967777
vt 0.955478 0.970273
vt 0.949600 0.970274
vt 0.952353 0.981700
vt 0.946541 0.981700
vt 0.948516 0.979239
vt 0.948516 0.979239
vt 0.954359 0.979240
vt 0.952353 0.981700
vt 0.949848 0.972439
vt 0.949600 0.970274
vt 0.955478 0.970273
vt 0.955478 0.970273
vt 0.955725 0.972437
vt 0.949848 0.972439
vt 0.954359 0.979240
vt 0.948516 0.979239
vt 0.949436 0.977029
vt 0.949436 0.977029
vt 0.955299 0.977024
vt 0.954359 0.979240
vt 0.564879 0.981674
vt 0.946541 0.981700
vt 0.933207 0.999101
vt 0.933207 0.999101
vt 0.564845 0.999068
vt 0.564879 0.981674
vt 0.050583 0.022073
vt 0.050171 0.026663
vt 0.044295 0.026665
vt 0.044295 0.026665
vt 0.044721 0.022078
vt 0.050583 0.022073
vt 0.050419 0.028828
vt 0.052028 0.031324
vt 0.046175 0.031324
vt 0.046175 0.031324
vt 0.044542 0.028829
vt 0.050419 0.028828
vt 0.047666 0.017402
vt 0.053478 0.017402
vt 0.051504 0.019863
vt 0.051504 0.019863
vt 0.045661 0.019862
vt 0.047666 0.017402
vt 0.050171 0.026663
vt 0.050419 0.028828
vt 0.044542 0.028829
vt 0.044542 0.028829
vt 0.044295 0.026665
vt 0.050171 0.026663
vt 0.045661 0.019862
vt 0.051504 0.019863
vt 0.050583 0.022073
vt 0.050583 0.022073
vt 0.044721 0.022078
vt 0.045661 0.019862
vt 0.435140 0.017428
vt 0.053478 0.017402
vt 0.066813 0.000001
vt 0.066813 0.000001
vt 0.435175 0.000034
vt 0.435140 0.017428
vt 0.947991 0.967777
vt 0.947992 0.031445
vt 0.953846 0.031445
vt 0.953846 0.031445
vt 0.953845 0.967777
vt 0.947991 0.967777
vt 0.955730 0.026786
vt 0.949853 0.026784
vt 0.949443 0.022194
vt 0.949443 0.022194
vt 0.955305 0.022199
vt 0.955730 0.026786
vt 0.953846 0.031445
vt 0.947992 0.031445
vt 0.949603 0.028949
vt 0.949603 0.028949
vt 0.955481 0.028950
vt 0.953846 0.031445
vt 0.948524 0.019983
vt 0.946551 0.017522
vt 0.952363 0.017521
vt 0.952363 0.017521
vt 0.954367 0.019983
vt 0.948524 0.019983
vt 0.955481 0.028950
vt 0.949603 0.028949
vt 0.949853 0.026784
vt 0.949853 0.026784
vt 0.955730 0.026786
vt 0.955481 0.028950
vt 0.949443 0.022194
vt 0.948524 0.019983
vt 0.954367 0.019983
vt 0.954367 0.019983
vt 0.955305 0.022199
vt 0.949443 0.022194
vt 0.933217 0.000120
vt 0.946551 0.017522
vt 0.564890 0.017547
vt 0.564890 0.017547
vt 0.564855 0.000153
vt 0.933217 0.000120
f 1/1 2/2 3/3
f 3/4 4/5 1/6
f 5/7 6/8 7/9
f 7/10 8/11 5/12
f 9/13 10/14 11/15
f 11/16 12/17 9/18
f 13/19 11/20 10/21
f 10/22 14/23 13/24
f 15/25 16/26 17/27
f 17/28 18/29 15/30
f 16/31 19/32 20/33
f 20/34 17/35 16/36
f 19/37 21/38 22/39
f 22/40 20/41 19/42
f 21/43 23/44 24/45
f 24/46 22/47 21/48
f 23/49 25/50 26/51
f 26/52 24/53 23/54
f 25/55 27/56 28/57
f 28/58 26/59 25/60
f 3/61 2/62 29/63
f 29/64 30/65 3/66
f 31/67 32/68 33/69
f 33/70 34/71 31/72
f 35/73 36/74 37/75
f 37/76 38/77 35/78
f 39/79 40/80 38/81
f 38/82 37/83 39/84
f 41/85 42/86 40/87
f 40/88 39/89 41/90
f 43/91 44/92 42/93
f 42/94 41/95 43/96
f 45/97 46/98 44/99
f 44/100 43/101 45/102
f 47/103 48/104 46/105
f 46/106 45/107 47/108
f 49/109 50/110 48/111
f 48/112 47/113 49/114
f 51/115 52/116 53/117
f 53/118 54/119 51/120
f 55/121 56/122 57/123
f 57/124 58/125 55/126
f 59/127 58/128 57/129
f 57/130 60/131 59/132
f 61/133 62/134 63/135
f 63/136 64/137 61/138
f 64/139 63/140 65/141
f 65/142 66/143 64/144
f 66/145 65/146 67/147
f 67/148 68/149 66/150
f 68/151 67/152 69/153
f 69/154 70/155 68/156
f 70/157 69/158 71/159
f 71/160 72/161 70/162
f 72/163 71/164 73/165
f 73/166 74/167 72/168
f 29/169 6/170 5/171
f 5/172 30/173 29/174
f 32/175 10/176 9/177
f 9/178 33/179 32/180
f 14/181 35/182 38/183
f 38/184 15/185 14/186
f 40/187 16/188 15/189
f 15/190 38/191 40/192
f 42/193 19/194 16/195
f 16/196 40/197 42/198
f 44/199 21/200 19/201
f 19/202 42/203 44/204
f 46/205 23/206 21/207
f 21/208 44/209 46/210
f 48/211 25/212 23/213
f 23/214 46/215 48/216
f 50/217 27/218 25/219
f 25/220 48/221 50/222
f 8/223 7/224 52/225
f 52/226 51/227 8/228
f 56/229 12/230 11/231
f 11/232 57/233 56/234
f 60/235 57/236 11/237
f 11/238 13/239 60/240
f 62/241 18/242 17/243
f 17/244 63/245 62/246
f 63/247 17/248 20/249
f 20/250 65/251 63/252
f 65/253 20/254 22/255
f 22/256 67/257 65/258
f 67/259 22/260 24/261
f 24/262 69/263 67/264
f 69/265 24/266 26/267
f 26/268 71/269 69/270
f 71/271 26/272 28/273
f 28/274 73/275 71/276
f 13/277 14/278 15/279
f 15/280 18/281 13/282
f 31/283 36/284 35/285
f 35/286 32/287 31/288
f 59/289 60/290 62/291
f 62/292 61/293 59/294
f 32/295 35/296 14/297
f 14/298 10/299 32/300
f 60/301 13/302 18/303
f 18/304 62/305 60/306
f 12/307 7/308 6/309
f 6/310 9/311 12/312
f 33/313 29/314 2/315
f 2/316 34/317 33/318
f 55/319 53/320 52/321
f 52/322 56/323 55/324
f 9/325 6/326 29/327
f 29/328 33/329 9/330
f 56/331 52/332 7/333
f 7/334 12/335 56/336
f 54/337 75/338 76/339
f 76/340 77/341 54/342
f 78/343 79/344 55/345
f 55/346 58/347 78/348
f 80/349 78/350 58/351
f 58/352 59/353 80/354
f 81/355 82/356 61/357
f 61/358 64/359 81/360
f 83/361 81/362 64/363
f 64/364 66/365 83/366
f 84/367 83/368 66/369
f 66/370 68/371 84/372
f 85/373 84/374 68/375
f 68/376 70/377 85/378
f 86/379 85/380 70/381
f 70/382 72/383 86/384
f 87/385 86/386 72/387
f 72/388 74/389 87/390
f 82/391 80/392 59/393
f 59/394 61/395 82/396
f 79/397 88/398 53/399
f 53/400 55/401 79/402
f 89/403 77/404 76/405
f 76/406 90/407 89/408
f 91/409 92/410 93/411
f 93/412 94/413 91/414
f 95/415 96/416 97/417
f 97/418 98/419 95/420
f 99/421 100/422 98/423
f 98/424 97/425 99/426
f 101/427 102/428 103/429
f 103/430 104/431 101/432
f 104/433 103/434 105/435
f 105/436 106/437 104/438
f 106/439 105/440 107/441
f 107/442 108/443 106/444
f 108/445 107/446 109/447
f 109/448 110/449 108/450
f 110/451 109/452 111/453
f 111/454 112/455 110/456
f 112/457 111/458 28/459
f 28/460 27/461 112/462
f 113/463 114/464 115/465
f 115/466 116/467 113/468
f 117/469 118/470 119/471
f 119/472 120/473 117/474
f 121/475 122/476 123/477
f 123/478 124/479 121/480
f 125/481 126/482 127/483
f 127/484 128/485 125/486
f 129/487 127/488 126/489
f 126/490 130/491 129/492
f 131/493 129/494 130/495
f 130/496 132/497 131/498
f 133/499 131/500 132/501
f 132/502 134/503 133/504
f 135/505 133/506 134/507
f 134/508 136/509 135/510
f 137/511 135/512 136/513
f 136/514 138/515 137/516
f 49/517 137/518 138/519
f 138/520 50/521 49/522
f 139/523 140/524 141/525
f 141/526 142/527 139/528
f 143/529 144/530 145/531
f 145/532 146/533 143/534
f 147/535 148/536 145/537
f 145/538 144/539 147/540
f 149/541 150/542 151/543
f 151/544 152/545 149/546
f 150/547 153/548 154/549
f 154/550 151/551 150/552
f 153/553 155/554 156/555
f 156/556 154/557 153/558
f 155/559 157/560 158/561
f 158/562 156/563 155/564
f 157/565 159/566 160/567
f 160/568 158/569 157/570
f 159/571 74/572 73/573
f 73/574 160/575 159/576
f 93/577 92/578 115/579
f 115/580 114/581 93/582
f 161/583 162/584 118/585
f 118/586 117/587 161/588
f 124/589 123/590 95/591
f 95/592 98/593 124/594
f 100/595 101/596 126/597
f 126/598 125/599 100/600
f 130/601 126/602 101/603
f 101/604 104/605 130/606
f 132/607 130/608 104/609
f 104/610 106/611 132/612
f 134/613 132/614 106/615
f 106/616 108/617 134/618
f 136/619 134/620 108/621
f 108/622 110/623 136/624
f 138/625 136/626 110/627
f 110/628 112/629 138/630
f 50/631 138/632 112/633
f 112/634 27/635 50/636
f 140/637 91/638 94/639
f 94/640 141/641 140/642
f 146/643 145/644 97/645
f 97/646 96/647 146/648
f 148/649 99/650 97/651
f 97/652 145/653 148/654
f 152/655 151/656 103/657
f 103/658 102/659 152/660
f 151/661 154/662 105/663
f 105/664 103/665 151/666
f 154/667 156/668 107/669
f 107/670 105/671 154/672
f 156/673 158/674 109/675
f 109/676 107/677 156/678
f 158/679 160/680 111/681
f 111/682 109/683 158/684
f 160/685 73/686 28/687
f 28/688 111/689 160/690
f 99/691 102/692 101/693
f 101/694 100/695 99/696
f 121/697 124/698 125/699
f 125/700 128/701 121/702
f 147/703 149/704 152/705
f 152/706 148/707 147/708
f 124/709 98/710 100/711
f 100/712 125/713 124/714
f 148/715 152/716 102/717
f 102/718 99/719 148/720
f 96/721 95/722 92/723
f 92/724 91/725 96/726
f 123/727 122/728 116/729
f 116/730 115/731 123/732
f 143/733 146/734 140/735
f 140/736 139/737 143/738
f 95/739 123/740 115/741
f 115/742 92/743 95/744
f 146/745 96/746 91/747
f 91/748 140/749 146/750
f 142/751 163/752 164/753
f 164/754 165/755 142/756
f 166/757 144/758 143/759
f 143/760 167/761 166/762
f 168/763 147/764 144/765
f 144/766 166/767 168/768
f 169/769 150/770 149/771
f 149/772 170/773 169/774
f 171/775 153/776 150/777
f 150/778 169/779 171/780
f 172/781 155/782 153/783
f 153/784 171/785 172/786
f 173/787 157/788 155/789
f 155/790 172/791 173/792
f 174/793 159/794 157/795
f 157/796 173/797 174/798
f 87/799 74/800 159/801
f 159/802 174/803 87/804
f 170/805 149/806 147/807
f 147/808 168/809 170/810
f 167/811 143/812 139/813
f 139/814 175/815 167/816
f 176/817 162/818 161/819
f 161/820 177/821 176/822
f 34/823 178/824 179/825
f 179/826 31/827 34/828
f 36/829 180/830 181/831
f 181/832 37/833 36/834
f 37/835 181/836 182/837
f 182/838 39/839 37/840
f 39/841 182/842 183/843
f 183/844 41/845 39/846
f 41/847 183/848 184/849
f 184/850 43/851 41/852
f 43/853 184/854 185/855
f 185/856 45/857 43/858
f 45/859 185/860 186/861
f 186/862 47/863 45/864
f 47/865 186/866 187/867
f 187/868 49/869 47/870
f 188/871 189/872 190/873
f 190/874 191/875 188/876
f 192/877 193/878 194/879
f 194/880 195/881 192/882
f 196/883 197/884 195/885
f 195/886 194/887 196/888
f 198/889 199/890 200/891
f 200/892 201/893 198/894
f 201/895 200/896 202/897
f 202/898 203/899 201/900
f 203/901 202/902 204/903
f 204/904 205/905 203/906
f 205/907 204/908 206/909
f 206/910 207/911 205/912
f 207/913 206/914 208/915
f 208/916 209/917 207/918
f 209/919 208/920 210/921
f 210/922 211/923 209/924
f 4/925 212/926 213/927
f 213/928 1/929 4/930
f 214/931 215/932 216/933
f 216/934 217/935 214/936
f 179/937 178/938 218/939
f 218/940 219/941 179/942
f 220/943 221/944 181/945
f 181/946 180/947 220/948
f 182/949 181/950 221/951
f 221/952 222/953 182/954
f 183/955 182/956 222/957
f 222/958 223/959 183/960
f 184/961 183/962 223/963
f 223/964 224/965 184/966
f 185/967 184/968 224/969
f 224/970 225/971 185/972
f 186/973 185/974 225/975
f 225/976 226/977 186/978
f 187/979 186/980 226/981
f 226/982 227/983 187/984
f 228/985 229/986 230/987
f 230/988 231/989 228/990
f 232/991 233/992 234/993
f 234/994 235/995 232/996
f 236/997 237/998 234/999
f 234/1000 233/1001 236/1002
f 238/1003 239/1004 240/1005
f 240/1006 241/1007 238/1008
f 239/1009 242/1010 243/1011
f 243/1012 240/1013 239/1014
f 242/1015 244/1016 245/1017
f 245/1018 243/1019 242/1020
f 244/1021 246/1022 247/1023
f 247/1024 245/1025 244/1026
f 246/1027 248/1028 249/1029
f 249/1030 247/1031 246/1032
f 248/1033 250/1034 251/1035
f 251/1036 249/1037 248/1038
f 190/1039 189/1040 213/1041
f 213/1042 212/1043 190/1044
f 252/1045 253/1046 215/1047
f 215/1048 214/1049 252/1050
f 219/1051 218/1052 192/1053
f 192/1054 195/1055 219/1056
f 197/1057 198/1058 221/1059
f 221/1060 220/1061 197/1062
f 222/1063 221/1064 198/1065
f 198/1066 201/1067 222/1068
f 223/1069 222/1070 201/1071
f 201/1072 203/1073 223/1074
f 224/1075 223/1076 203/1077
f 203/1078 205/1079 224/1080
f 225/1081 224/1082 205/1083
f 205/1084 207/1085 225/1086
f 226/1087 225/1088 207/1089
f 207/1090 209/1091 226/1092
f 227/1093 226/1094 209/1095
f 209/1096 211/1097 227/1098
f 229/1099 188/1100 191/1101
f 191/1102 230/1103 229/1104
f 235/1105 234/1106 194/1107
f 194/1108 193/1109 235/1110
f 237/1111 196/1112 194/1113
f 194/1114 234/1115 237/1116
f 241/1117 240/1118 200/1119
f 200/1120 199/1121 241/1122
f 240/1123 243/1124 202/1125
f 202/1126 200/1127 240/1128
f 243/1129 245/1130 204/1131
f 204/1132 202/1133 243/1134
f 245/1135 247/1136 206/1137
f 206/1138 204/1139 245/1140
f 247/1141 249/1142 208/1143
f 208/1144 206/1145 247/1146
f 249/1147 251/1148 210/1149
f 210/1150 208/1151 249/1152
f 31/1153 179/1154 180/1155
f 180/1156 36/1157 31/1158
f 196/1159 199/1160 198/1161
f 198/1162 197/1163 196/1164
f 179/1165 219/1166 220/1167
f 220/1168 180/1169 179/1170
f 236/1171 238/1172 241/1173
f 241/1174 237/1175 236/1176
f 219/1177 195/1178 197/1179
f 197/1180 220/1181 219/1182
f 237/1183 241/1184 199/1185
f 199/1186 196/1187 237/1188
f 193/1189 192/1190 189/1191
f 189/1192 188/1193 193/1194
f 218/1195 178/1196 1/1197
f 1/1198 213/1199 218/1200
f 232/1201 235/1202 229/1203
f 229/1204 228/1205 232/1206
f 192/1207 218/1208 213/1209
f 213/1210 189/1211 192/1212
f 235/1213 193/1214 188/1215
f 188/1216 229/1217 235/1218
f 231/1219 89/1220 90/1221
f 90/1222 254/1223 231/1224
f 255/1225 233/1226 232/1227
f 232/1228 256/1229 255/1230
f 257/1231 236/1232 233/1233
f 233/1234 255/1235 257/1236
f 258/1237 239/1238 238/1239
f 238/1240 259/1241 258/1242
f 260/1243 242/1244 239/1245
f 239/1246 258/1247 260/1248
f 261/1249 244/1250 242/1251
f 242/1252 260/1253 261/1254
f 262/1255 246/1256 244/1257
f 244/1258 261/1259 262/1260
f 263/1261 248/1262 246/1263
f 246/1264 262/1265 263/1266
f 264/1267 250/1268 248/1269
f 248/1270 263/1271 264/1272
f 259/1273 238/1274 236/1275
f 236/1276 257/1277 259/1278
f 256/1279 232/1280 228/1281
f 228/1282 265/1283 256/1284
f 253/1285 252/1286 266/1287
f 266/1288 267/1289 253/1290
f 89/1291 268/1292 269/1293
f 269/1294 77/1295 89/1296
f 268/1297 267/1298 266/1299
f 266/1300 269/1301 268/1302
f 178/1303 34/1304 2/1305
f 2/1306 1/1307 178/1308
f 116/1309 270/1310 271/1311
f 271/1312 113/1313 116/1314
f 272/1315 273/1316 122/1317
f 122/1318 121/1319 272/1320
f 274/1321 275/1322 128/1323
f 128/1324 127/1325 274/1326
f 276/1327 274/1328 127/1329
f 127/1330 129/1331 276/1332
f 277/1333 276/1334 129/1335
f 129/1336 131/1337 277/1338
f 278/1339 277/1340 131/1341
f 131/1342 133/1343 278/1344
f 279/1345 278/1346 133/1347
f 133/1348 135/1349 279/1350
f 280/1351 279/1352 135/1353
f 135/1354 137/1355 280/1356
f 187/1357 280/1358 137/1359
f 137/1360 49/1361 187/1362
f 281/1363 282/1364 283/1365
f 283/1366 284/1367 281/1368
f 285/1369 286/1370 287/1371
f 287/1372 288/1373 285/1374
f 289/1375 287/1376 286/1377
f 286/1378 290/1379 289/1380
f 291/1381 292/1382 293/1383
f 293/1384 294/1385 291/1386
f 292/1387 295/1388 296/1389
f 296/1390 293/1391 292/1392
f 295/1393 297/1394 298/1395
f 298/1396 296/1397 295/1398
f 297/1399 299/1400 300/1401
f 300/1402 298/1403 297/1404
f 299/1405 301/1406 302/1407
f 302/1408 300/1409 299/1410
f 301/1411 211/1412 210/1413
f 210/1414 302/1415 301/1416
f 271/1417 270/1418 303/1419
f 303/1420 304/1421 271/1422
f 272/1423 305/1424 306/1425
f 306/1426 273/1427 272/1428
f 307/1429 275/1430 274/1431
f 274/1432 308/1433 307/1434
f 276/1435 309/1436 308/1437
f 308/1438 274/1439 276/1440
f 277/1441 310/1442 309/1443
f 309/1444 276/1445 277/1446
f 278/1447 311/1448 310/1449
f 310/1450 277/1451 278/1452
f 279/1453 312/1454 311/1455
f 311/1456 278/1457 279/1458
f 280/1459 313/1460 312/1461
f 312/1462 279/1463 280/1464
f 187/1465 227/1466 313/1467
f 313/1468 280/1469 187/1470
f 314/1471 315/1472 316/1473
f 316/1474 317/1475 314/1476
f 318/1477 319/1478 320/1479
f 320/1480 321/1481 318/1482
f 322/1483 321/1484 320/1485
f 320/1486 323/1487 322/1488
f 324/1489 325/1490 326/1491
f 326/1492 327/1493 324/1494
f 327/1495 326/1496 328/1497
f 328/1498 329/1499 327/1500
f 329/1501 328/1502 330/1503
f 330/1504 331/1505 329/1506
f 331/1507 330/1508 332/1509
f 332/1510 333/1511 331/1512
f 333/1513 332/1514 334/1515
f 334/1516 335/1517 333/1518
f 335/1519 334/1520 251/1521
f 251/1522 250/1523 335/1524
f 303/1525 282/1526 281/1527
f 281/1528 304/1529 303/1530
f 305/1531 286/1532 285/1533
f 285/1534 306/1535 305/1536
f 290/1537 307/1538 308/1539
f 308/1540 291/1541 290/1542
f 309/1543 292/1544 291/1545
f 291/1546 308/1547 309/1548
f 310/1549 295/1550 292/1551
f 292/1552 309/1553 310/1554
f 311/1555 297/1556 295/1557
f 295/1558 310/1559 311/1560
f 312/1561 299/1562 297/1563
f 297/1564 311/1565 312/1566
f 313/1567 301/1568 299/1569
f 299/1570 312/1571 313/1572
f 227/1573 211/1574 301/1575
f 301/1576 313/1577 227/1578
f 284/1579 283/1580 315/1581
f 315/1582 314/1583 284/1584
f 319/1585 288/1586 287/1587
f 287/1588 320/1589 319/1590
f 323/1591 320/1592 287/1593
f 287/1594 289/1595 323/1596
f 325/1597 294/1598 293/1599
f 293/1600 326/1601 325/1602
f 326/1603 293/1604 296/1605
f 296/1606 328/1607 326/1608
f 328/1609 296/1610 298/1611
f 298/1612 330/1613 328/1614
f 330/1615 298/1616 300/1617
f 300/1618 332/1619 330/1620
f 332/1621 300/1622 302/1623
f 302/1624 334/1625 332/1626
f 334/1627 302/1628 210/1629
f 210/1630 251/1631 334/1632
f 275/1633 272/1634 121/1635
f 121/1636 128/1637 275/1638
f 289/1639 290/1640 291/1641
f 291/1642 294/1643 289/1644
f 272/1645 275/1646 307/1647
f 307/1648 305/1649 272/1650
f 322/1651 323/1652 325/1653
f 325/1654 324/1655 322/1656
f 305/1657 307/1658 290/1659
f 290/1660 286/1661 305/1662
f 323/1663 289/1664 294/1665
f 294/1666 325/1667 323/1668
f 288/1669 283/1670 282/1671
f 282/1672 285/1673 288/1674
f 306/1675 303/1676 270/1677
f 270/1678 273/1679 306/1680
f 318/1681 316/1682 315/1683
f 315/1684 319/1685 318/1686
f 285/1687 282/1688 303/1689
f 303/1690 306/1691 285/1692
f 319/1693 315/1694 283/1695
f 283/1696 288/1697 319/1698
f 317/1699 336/1700 337/1701
f 337/1702 338/1703 317/1704
f 339/1705 340/1706 318/1707
f 318/1708 321/1709 339/1710
f 341/1711 339/1712 321/1713
f 321/1714 322/1715 341/1716
f 342/1717 343/1718 324/1719
f 324/1720 327/1721 342/1722
f 344/1723 342/1724 327/1725
f 327/1726 329/1727 344/1728
f 345/1729 344/1730 329/1731
f 329/1732 331/1733 345/1734
f 346/1735 345/1736 331/1737
f 331/1738 333/1739 346/1740
f 347/1741 346/1742 333/1743
f 333/1744 335/1745 347/1746
f 264/1747 347/1748 335/1749
f 335/1750 250/1751 264/1752
f 343/1753 341/1754 322/1755
f 322/1756 324/1757 343/1758
f 340/1759 348/1760 316/1761
f 316/1762 318/1763 340/1764
f 349/1765 350/1766 338/1767
f 338/1768 163/1769 349/1770
f 176/1771 177/1772 350/1773
f 350/1774 349/1775 176/1776
f 116/1777 122/1778 273/1779
f 273/1780 270/1781 116/1782
f 163/1783 338/1784 337/1785
f 337/1786 164/1787 163/1788
f 4/1789 3/1790 217/1791
f 217/1792 216/1793 4/1794
f 252/1795 5/1796 8/1797
f 8/1798 266/1799 252/1800
f 217/1801 3/1802 30/1803
f 30/1804 214/1805 217/1806
f 51/1807 54/1808 77/1809
f 77/1810 269/1811 51/1812
f 214/1813 30/1814 5/1815
f 5/1816 252/1817 214/1818
f 8/1819 51/1820 269/1821
f 269/1822 266/1823 8/1824
f 75/1825 54/1826 53/1827
f 53/1828 88/1829 75/1830
f 94/1831 93/1832 162/1833
f 162/1834 176/1835 94/1836
f 114/1837 113/1838 119/1839
f 119/1840 118/1841 114/1842
f 163/1843 142/1844 141/1845
f 141/1846 349/1847 163/1848
f 93/1849 114/1850 118/1851
f 118/1852 162/1853 93/1854
f 349/1855 141/1856 94/1857
f 94/1858 176/1859 349/1860
f 139/1861 142/1862 165/1863
f 165/1864 175/1865 139/1866
f 191/1867 190/1868 253/1869
f 253/1870 267/1871 191/1872
f 212/1873 4/1874 216/1875
f 216/1876 215/1877 212/1878
f 89/1879 231/1880 230/1881
f 230/1882 268/1883 89/1884
f 190/1885 212/1886 215/1887
f 215/1888 253/1889 190/1890
f 268/1891 230/1892 191/1893
f 191/1894 267/1895 268/1896
f 228/1897 231/1898 254/1899
f 254/1900 265/1901 228/1902
f 113/1903 271/1904 120/1905
f 120/1906 119/1907 113/1908
f 161/1909 281/1910 284/1911
f 284/1912 177/1913 161/1914
f 120/1915 271/1916 304/1917
f 304/1918 117/1919 120/1920
f 314/1921 317/1922 338/1923
f 338/1924 350/1925 314/1926
f 117/1927 304/1928 281/1929
f 281/1930 161/1931 117/1932
f 284/1933 314/1934 350/1935
f 350/1936 177/1937 284/1938
f 336/1939 317/1940 316/1941
f 316/1942 348/1943 336/1944
