# USD → MuJoCo (world-space)
v 0.012767 -0.085395 0.127167
v 0.012767 0.086163 0.127167
v 0.007926 0.086875 0.126743
v 0.007926 -0.083679 0.126743
v 0.017675 -0.086375 0.127596
v 0.017675 0.085731 0.127596
v 0.022616 -0.086693 0.128028
v 0.022616 0.085586 0.128028
v 0.027557 -0.086375 0.128461
v 0.027557 0.085731 0.128461
v 0.032465 -0.085395 0.128890
v 0.032465 0.086163 0.128890
v 0.037307 -0.083679 0.129314
v 0.037307 0.086875 0.129314
v 0.023969 0.086163 -0.000862
v 0.019127 0.086875 -0.001285
v 0.028876 0.085731 -0.000432
v 0.033817 0.085586 0.000000
v 0.038758 0.085731 0.000432
v 0.043666 0.086163 0.000862
v 0.048508 0.086875 0.001285
v 0.035169 -0.085395 -0.128890
v 0.030328 -0.083679 -0.129314
v 0.030328 0.086875 -0.129314
v 0.035169 0.086163 -0.128890
v 0.040077 -0.086375 -0.128461
v 0.040077 0.085731 -0.128461
v 0.045018 -0.086693 -0.128028
v 0.045018 0.085586 -0.128028
v 0.049959 -0.086375 -0.127596
v 0.049959 0.085731 -0.127596
v 0.054867 -0.085395 -0.127167
v 0.054867 0.086163 -0.127167
v 0.059709 -0.083679 -0.126743
v 0.059709 0.086875 -0.126743
vt 0.165029 0.013812
vt 0.165029 0.992618
vt 0.000419 0.999803
vt 0.000419 0.999803
vt 0.000419 0.031000
vt 0.165029 0.013812
vt 0.331883 0.003454
vt 0.331883 0.988288
vt 0.165029 0.992618
vt 0.165029 0.992618
vt 0.165029 0.013812
vt 0.331883 0.003454
vt 0.499864 -0.000006
vt 0.499864 0.986842
vt 0.331883 0.988288
vt 0.331883 0.988288
vt 0.331883 0.003454
vt 0.499864 -0.000006
vt 0.667846 0.003454
vt 0.667846 0.988289
vt 0.499864 0.986842
vt 0.499864 0.986842
vt 0.499864 -0.000006
vt 0.667846 0.003454
vt 0.834702 0.013813
vt 0.834702 0.992619
vt 0.667846 0.988289
vt 0.667846 0.988289
vt 0.667846 0.003454
vt 0.834702 0.013813
vt 0.999312 0.031001
vt 0.999312 0.999804
vt 0.834702 0.992619
vt 0.834702 0.992619
vt 0.834702 0.013813
vt 0.999312 0.031001
vt 0.832985 0.181472
vt 0.999545 0.181474
vt 0.999293 0.909998
vt 0.999293 0.909998
vt 0.832733 0.909996
vt 0.832985 0.181472
vt 0.666426 0.181469
vt 0.832985 0.181472
vt 0.832733 0.909996
vt 0.832733 0.909996
vt 0.666171 0.909993
vt 0.666426 0.181469
vt 0.499867 0.181467
vt 0.666426 0.181469
vt 0.666171 0.909993
vt 0.666171 0.909993
vt 0.499609 0.909991
vt 0.499867 0.181467
vt 0.333308 0.181464
vt 0.499867 0.181467
vt 0.499609 0.909991
vt 0.499609 0.909991
vt 0.333047 0.909988
vt 0.333308 0.181464
vt 0.166749 0.181461
vt 0.333308 0.181464
vt 0.333047 0.909988
vt 0.333047 0.909988
vt 0.166487 0.909985
vt 0.166749 0.181461
vt 0.000189 0.181459
vt 0.166749 0.181461
vt 0.166487 0.909985
vt 0.166487 0.909985
vt -0.000073 0.909982
vt 0.000189 0.181459
vt 0.165029 0.013812
vt 0.000419 0.031000
vt 0.000419 0.999803
vt 0.000419 0.999803
vt 0.165029 0.992618
vt 0.165029 0.013812
vt 0.331883 0.003454
vt 0.165029 0.013812
vt 0.165029 0.992618
vt 0.165029 0.992618
vt 0.331883 0.988288
vt 0.331883 0.003454
vt 0.499864 -0.000006
vt 0.331883 0.003454
vt 0.331883 0.988288
vt 0.331883 0.988288
vt 0.499864 0.986842
vt 0.499864 -0.000006
vt 0.667846 0.003454
vt 0.499864 -0.000006
vt 0.499864 0.986842
vt 0.499864 0.986842
vt 0.667846 0.988289
vt 0.667846 0.003454
vt 0.834702 0.013813
vt 0.667846 0.003454
vt 0.667846 0.988289
vt 0.667846 0.988289
vt 0.834702 0.992619
vt 0.834702 0.013813
vt 0.999312 0.031001
vt 0.834702 0.013813
vt 0.834702 0.992619
vt 0.834702 0.992619
vt 0.999312 0.999804
vt 0.999312 0.031001
vt 0.832985 0.181472
vt 0.832733 0.909996
vt 0.999293 0.909998
vt 0.999293 0.909998
vt 0.999545 0.181474
vt 0.832985 0.181472
vt 0.666426 0.181469
vt 0.666171 0.909993
vt 0.832733 0.909996
vt 0.832733 0.909996
vt 0.832985 0.181472
vt 0.666426 0.181469
vt 0.499867 0.181467
vt 0.499609 0.909991
vt 0.666171 0.909993
vt 0.666171 0.909993
vt 0.666426 0.181469
vt 0.499867 0.181467
vt 0.333308 0.181464
vt 0.333047 0.909988
vt 0.499609 0.909991
vt 0.499609 0.909991
vt 0.499867 0.181467
vt 0.333308 0.181464
vt 0.166749 0.181461
vt 0.166487 0.909985
vt 0.333047 0.909988
vt 0.333047 0.909988
vt 0.333308 0.181464
vt 0.166749 0.181461
vt 0.000189 0.181459
vt -0.000073 0.909982
vt 0.166487 0.909985
vt 0.166487 0.909985
vt 0.166749 0.181461
vt 0.000189 0.181459
f 1/1 2/2 3/3
f 3/4 4/5 1/6
f 5/7 6/8 2/9
f 2/10 1/11 5/12
f 7/13 8/14 6/15
f 6/16 5/17 7/18
f 9/19 10/20 8/21
f 8/22 7/23 9/24
f 11/25 12/26 10/27
f 10/28 9/29 11/30
f 13/31 14/32 12/33
f 12/34 11/35 13/36
f 15/37 16/38 3/39
f 3/40 2/41 15/42
f 17/43 15/44 2/45
f 2/46 6/47 17/48
f 18/49 17/50 6/51
f 6/52 8/53 18/54
f 19/55 18/56 8/57
f 8/58 10/59 19/60
f 20/61 19/62 10/63
f 10/64 12/65 20/66
f 21/67 20/68 12/69
f 12/70 14/71 21/72
f 22/73 23/74 24/75
f 24/76 25/77 22/78
f 26/79 22/80 25/81
f 25/82 27/83 26/84
f 28/85 26/86 27/87
f 27/88 29/89 28/90
f 30/91 28/92 29/93
f 29/94 31/95 30/96
f 32/97 30/98 31/99
f 31/100 33/101 32/102
f 34/103 32/104 33/105
f 33/106 35/107 34/108
f 15/109 25/110 24/111
f 24/112 16/113 15/114
f 17/115 27/116 25/117
f 25/118 15/119 17/120
f 18/121 29/122 27/123
f 27/124 17/125 18/126
f 19/127 31/128 29/129
f 29/130 18/131 19/132
f 20/133 33/134 31/135
f 31/136 19/137 20/138
f 21/139 35/140 33/141
f 33/142 20/143 21/144
