# USD → MuJoCo (world-space)
v 0.077224 0.074949 0.103120
v 0.077224 -0.073436 0.103120
v 0.077224 -0.073436 -0.110206
v 0.077224 0.074949 -0.110206
v 0.050638 -0.073436 0.103120
v 0.050638 0.074949 0.103120
v 0.050638 0.074949 -0.110206
v 0.050638 -0.073436 -0.110206
v 0.061631 -0.078739 0.103120
v 0.061631 -0.078739 -0.110206
v 0.066231 -0.078739 -0.110206
v 0.066231 -0.078739 0.103120
v 0.075762 -0.072275 0.103120
v 0.075762 0.074949 0.103120
v 0.075762 0.074949 -0.110206
v 0.075762 -0.072275 -0.110206
v 0.052101 0.074949 0.103120
v 0.052101 -0.072275 0.103120
v 0.052101 -0.072275 -0.110206
v 0.052101 0.074949 -0.110206
v 0.065939 -0.077554 0.103120
v 0.065939 -0.077554 -0.110206
v 0.061924 -0.077554 -0.110206
v 0.061924 -0.077554 0.103120
v 0.076069 -0.072519 -0.111355
v 0.076069 0.074949 -0.111355
v 0.076916 0.074949 -0.111355
v 0.076916 -0.073191 -0.111355
v 0.076069 0.078129 -0.110206
v 0.076069 0.078129 0.103120
v 0.076916 0.078129 0.103120
v 0.076916 0.078129 -0.110206
v 0.076069 0.074949 0.104269
v 0.076069 -0.072519 0.104269
v 0.076916 -0.073191 0.104269
v 0.076916 0.074949 0.104269
v 0.051793 0.074949 -0.111355
v 0.051793 -0.072519 -0.111355
v 0.050946 -0.073191 -0.111355
v 0.050946 0.074949 -0.111355
v 0.051793 -0.072519 0.104269
v 0.051793 0.074949 0.104269
v 0.050946 0.074949 0.104269
v 0.050946 -0.073191 0.104269
v 0.051793 0.078129 0.103120
v 0.051793 0.078129 -0.110206
v 0.050946 0.078129 -0.110206
v 0.050946 0.078129 0.103120
v 0.066000 -0.077803 -0.111355
v 0.066169 -0.078490 -0.111355
v 0.061693 -0.078490 -0.111355
v 0.061862 -0.077803 -0.111355
v 0.061862 -0.077803 0.104269
v 0.061693 -0.078490 0.104269
v 0.066169 -0.078490 0.104269
v 0.066000 -0.077803 0.104269
v 0.077025 -0.077435 -0.110206
v 0.077224 -0.076627 -0.110206
v 0.077224 -0.076627 0.103120
v 0.077025 -0.077435 0.103120
v 0.050838 -0.077435 0.103120
v 0.050638 -0.076627 0.103120
v 0.050638 -0.076627 -0.110206
v 0.050838 -0.077435 -0.110206
v 0.075562 -0.076250 0.103120
v 0.075762 -0.075442 0.103120
v 0.075762 -0.075442 -0.110206
v 0.075562 -0.076250 -0.110206
v 0.052300 -0.076250 -0.110206
v 0.052101 -0.075442 -0.110206
v 0.052101 -0.075442 0.103120
v 0.052300 -0.076250 0.103120
v 0.075870 -0.076500 -0.111355
v 0.076069 -0.075692 -0.111355
v 0.076916 -0.076378 -0.111355
v 0.076717 -0.077186 -0.111355
v 0.075870 -0.076500 0.104269
v 0.076717 -0.077186 0.104269
v 0.076916 -0.076378 0.104269
v 0.076069 -0.075692 0.104269
v 0.051992 -0.076500 -0.111355
v 0.051146 -0.077186 -0.111355
v 0.050946 -0.076378 -0.111355
v 0.051793 -0.075692 -0.111355
v 0.051992 -0.076500 0.104269
v 0.051793 -0.075692 0.104269
v 0.050946 -0.076378 0.104269
v 0.051146 -0.077186 0.104269
v 0.076427 -0.077920 -0.110206
v 0.076427 -0.077920 0.103120
v 0.075430 -0.078145 -0.110206
v 0.075430 -0.078145 0.103120
v 0.051436 -0.077920 0.103120
v 0.051436 -0.077920 -0.110206
v 0.052433 -0.078145 0.103120
v 0.052433 -0.078145 -0.110206
v 0.074964 -0.076735 0.103120
v 0.074964 -0.076735 -0.110206
v 0.073968 -0.076960 0.103120
v 0.073968 -0.076960 -0.110206
v 0.052898 -0.076735 -0.110206
v 0.052898 -0.076735 0.103120
v 0.053895 -0.076960 -0.110206
v 0.053895 -0.076960 0.103120
v 0.075272 -0.076984 -0.111355
v 0.076119 -0.077671 -0.111355
v 0.075122 -0.077896 -0.111355
v 0.074275 -0.077210 -0.111355
v 0.076119 -0.077671 0.104269
v 0.075272 -0.076984 0.104269
v 0.075122 -0.077896 0.104269
v 0.074275 -0.077210 0.104269
v 0.051744 -0.077671 -0.111355
v 0.052590 -0.076984 -0.111355
v 0.052740 -0.077896 -0.111355
v 0.053587 -0.077210 -0.111355
v 0.052590 -0.076984 0.104269
v 0.051744 -0.077671 0.104269
v 0.052740 -0.077896 0.104269
v 0.053587 -0.077210 0.104269
v 0.077224 0.077069 0.103120
v 0.077224 0.077069 -0.110206
v 0.050638 0.077069 -0.110206
v 0.050638 0.077069 0.103120
v 0.075762 0.077069 -0.110206
v 0.075762 0.077069 0.103120
v 0.052101 0.077069 0.103120
v 0.052101 0.077069 -0.110206
v 0.076916 0.077069 -0.111355
v 0.076069 0.077069 -0.111355
v 0.076069 0.077069 0.104269
v 0.076916 0.077069 0.104269
v 0.051793 0.077069 -0.111355
v 0.050946 0.077069 -0.111355
v 0.050946 0.077069 0.104269
v 0.051793 0.077069 0.104269
v 0.077224 0.078129 0.103120
v 0.077224 0.078129 -0.110206
v 0.050638 0.078129 -0.110206
v 0.050638 0.078129 0.103120
v 0.075762 0.078129 -0.110206
v 0.075762 0.078129 0.103120
v 0.052101 0.078129 0.103120
v 0.052101 0.078129 -0.110206
v 0.076916 0.078129 -0.111355
v 0.076069 0.078129 -0.111355
v 0.076069 0.078129 0.104269
v 0.076916 0.078129 0.104269
v 0.051793 0.078129 -0.111355
v 0.050946 0.078129 -0.111355
v 0.050946 0.078129 0.104269
v 0.051793 0.078129 0.104269
v 0.077224 0.074949 0.104269
v 0.077224 -0.073436 0.104269
v 0.077224 -0.073436 0.104014
v 0.077224 0.074949 0.104014
v 0.077224 -0.073436 -0.111355
v 0.077224 0.074949 -0.111355
v 0.077224 0.074949 -0.111100
v 0.077224 -0.073436 -0.111100
v 0.050638 -0.073436 0.104269
v 0.050638 0.074949 0.104269
v 0.050638 0.074949 0.104014
v 0.050638 -0.073436 0.104014
v 0.050638 0.074949 -0.111355
v 0.050638 -0.073436 -0.111355
v 0.050638 -0.073436 -0.111100
v 0.050638 0.074949 -0.111100
v 0.061631 -0.078739 0.104269
v 0.061631 -0.078739 0.104014
v 0.066231 -0.078739 0.104014
v 0.066231 -0.078739 0.104269
v 0.066231 -0.078739 -0.111355
v 0.066231 -0.078739 -0.111100
v 0.061631 -0.078739 -0.111100
v 0.061631 -0.078739 -0.111355
v 0.075762 -0.072275 0.104269
v 0.075762 0.074949 0.104269
v 0.075762 0.074949 0.104014
v 0.075762 -0.072275 0.104014
v 0.075762 0.074949 -0.111355
v 0.075762 -0.072275 -0.111355
v 0.075762 -0.072275 -0.111100
v 0.075762 0.074949 -0.111100
v 0.052101 0.074949 0.104269
v 0.052101 -0.072275 0.104269
v 0.052101 -0.072275 0.104014
v 0.052101 0.074949 0.104014
v 0.052101 -0.072275 -0.111355
v 0.052101 0.074949 -0.111355
v 0.052101 0.074949 -0.111100
v 0.052101 -0.072275 -0.111100
v 0.065939 -0.077554 0.104269
v 0.065939 -0.077554 0.104014
v 0.061924 -0.077554 0.104014
v 0.061924 -0.077554 0.104269
v 0.061924 -0.077554 -0.111355
v 0.061924 -0.077554 -0.111100
v 0.065939 -0.077554 -0.111100
v 0.065939 -0.077554 -0.111355
v 0.076069 0.078129 -0.111100
v 0.076916 0.078129 -0.111100
v 0.076916 0.078129 0.104014
v 0.076069 0.078129 0.104014
v 0.051793 0.078129 0.104014
v 0.050946 0.078129 0.104014
v 0.050946 0.078129 -0.111100
v 0.051793 0.078129 -0.111100
v 0.077025 -0.077435 -0.111355
v 0.077224 -0.076627 -0.111355
v 0.077224 -0.076627 -0.111100
v 0.077025 -0.077435 -0.111100
v 0.077224 -0.076627 0.104269
v 0.077025 -0.077435 0.104269
v 0.077025 -0.077435 0.104014
v 0.077224 -0.076627 0.104014
v 0.050838 -0.077435 0.104269
v 0.050638 -0.076627 0.104269
v 0.050638 -0.076627 0.104014
v 0.050838 -0.077435 0.104014
v 0.050638 -0.076627 -0.111355
v 0.050838 -0.077435 -0.111355
v 0.050838 -0.077435 -0.111100
v 0.050638 -0.076627 -0.111100
v 0.075562 -0.076250 0.104269
v 0.075762 -0.075442 0.104269
v 0.075762 -0.075442 0.104014
v 0.075562 -0.076250 0.104014
v 0.075762 -0.075442 -0.111355
v 0.075562 -0.076250 -0.111355
v 0.075562 -0.076250 -0.111100
v 0.075762 -0.075442 -0.111100
v 0.052300 -0.076250 -0.111355
v 0.052101 -0.075442 -0.111355
v 0.052101 -0.075442 -0.111100
v 0.052300 -0.076250 -0.111100
v 0.052101 -0.075442 0.104269
v 0.052300 -0.076250 0.104269
v 0.052300 -0.076250 0.104014
v 0.052101 -0.075442 0.104014
v 0.076427 -0.077920 -0.111355
v 0.076427 -0.077920 -0.111100
v 0.076427 -0.077920 0.104269
v 0.076427 -0.077920 0.104014
v 0.075430 -0.078145 -0.111355
v 0.075430 -0.078145 -0.111100
v 0.075430 -0.078145 0.104269
v 0.075430 -0.078145 0.104014
v 0.051436 -0.077920 0.104269
v 0.051436 -0.077920 0.104014
v 0.051436 -0.077920 -0.111355
v 0.051436 -0.077920 -0.111100
v 0.052433 -0.078145 0.104269
v 0.052433 -0.078145 0.104014
v 0.052433 -0.078145 -0.111355
v 0.052433 -0.078145 -0.111100
v 0.074964 -0.076735 0.104269
v 0.074964 -0.076735 0.104014
v 0.074964 -0.076735 -0.111355
v 0.074964 -0.076735 -0.111100
v 0.073968 -0.076960 0.104269
v 0.073968 -0.076960 0.104014
v 0.073968 -0.076960 -0.111355
v 0.073968 -0.076960 -0.111100
v 0.052898 -0.076735 -0.111355
v 0.052898 -0.076735 -0.111100
v 0.052898 -0.076735 0.104269
v 0.052898 -0.076735 0.104014
v 0.053895 -0.076960 -0.111355
v 0.053895 -0.076960 -0.111100
v 0.053895 -0.076960 0.104269
v 0.053895 -0.076960 0.104014
v 0.077224 0.077069 0.104269
v 0.077224 0.077069 0.104014
v 0.077224 0.077069 -0.111355
v 0.077224 0.077069 -0.111100
v 0.050638 0.077069 -0.111355
v 0.050638 0.077069 -0.111100
v 0.050638 0.077069 0.104269
v 0.050638 0.077069 0.104014
v 0.075762 0.077069 -0.111355
v 0.075762 0.077069 -0.111100
v 0.075762 0.077069 0.104269
v 0.075762 0.077069 0.104014
v 0.052101 0.077069 0.104269
v 0.052101 0.077069 0.104014
v 0.052101 0.077069 -0.111355
v 0.052101 0.077069 -0.111100
v 0.077224 0.078129 0.104269
v 0.077224 0.078129 0.104014
v 0.077224 0.078129 -0.111355
v 0.077224 0.078129 -0.111100
v 0.050638 0.078129 -0.111355
v 0.050638 0.078129 -0.111100
v 0.050638 0.078129 0.104269
v 0.050638 0.078129 0.104014
v 0.075762 0.078129 -0.111355
v 0.075762 0.078129 -0.111100
v 0.075762 0.078129 0.104269
v 0.075762 0.078129 0.104014
v 0.052101 0.078129 0.104269
v 0.052101 0.078129 0.104014
v 0.052101 0.078129 -0.111355
v 0.052101 0.078129 -0.111100
v 0.057032 -0.078535 -0.110206
v 0.057032 -0.078535 0.103120
v 0.070830 -0.078535 0.103120
v 0.070830 -0.078535 -0.110206
v 0.069953 -0.077350 -0.110206
v 0.069953 -0.077350 0.103120
v 0.057910 -0.077350 0.103120
v 0.057910 -0.077350 -0.110206
v 0.070646 -0.078286 -0.111355
v 0.070138 -0.077600 -0.111355
v 0.057217 -0.078286 -0.111355
v 0.057725 -0.077600 -0.111355
v 0.057217 -0.078286 0.104269
v 0.057725 -0.077600 0.104269
v 0.070646 -0.078286 0.104269
v 0.070138 -0.077600 0.104269
v 0.057032 -0.078535 0.104014
v 0.057032 -0.078535 0.104269
v 0.070830 -0.078535 0.104269
v 0.070830 -0.078535 0.104014
v 0.070830 -0.078535 -0.111100
v 0.070830 -0.078535 -0.111355
v 0.057032 -0.078535 -0.111355
v 0.057032 -0.078535 -0.111100
v 0.069953 -0.077350 0.104014
v 0.069953 -0.077350 0.104269
v 0.057910 -0.077350 0.104269
v 0.057910 -0.077350 0.104014
v 0.057910 -0.077350 -0.111100
v 0.057910 -0.077350 -0.111355
v 0.069953 -0.077350 -0.111355
v 0.069953 -0.077350 -0.111100
vt 0.871441 0.458564
vt 0.871441 0.430662
vt 0.974278 0.430662
vt 0.974278 0.430662
vt 0.974278 0.458564
vt 0.871441 0.458564
vt 0.871441 0.488092
vt 0.871441 0.460191
vt 0.974278 0.460191
vt 0.974278 0.460191
vt 0.974278 0.488092
vt 0.871441 0.488092
vt 0.502648 0.450496
vt 0.996282 0.450496
vt 0.996282 0.460916
vt 0.996282 0.460916
vt 0.502648 0.460916
vt 0.502648 0.450496
vt 0.869505 0.472157
vt 0.869505 0.471880
vt 0.870533 0.471880
vt 0.870533 0.471880
vt 0.870533 0.472157
vt 0.869505 0.472157
vt 0.869505 0.472485
vt 0.869505 0.472208
vt 0.870533 0.472208
vt 0.870533 0.472208
vt 0.870533 0.472485
vt 0.869505 0.472485
vt 0.869505 0.472179
vt 0.870533 0.472179
vt 0.870533 0.472186
vt 0.870533 0.472186
vt 0.869505 0.472186
vt 0.869505 0.472179
vt 0.873108 0.472260
vt 0.873108 0.471882
vt 0.873114 0.471882
vt 0.873114 0.471882
vt 0.873114 0.472260
vt 0.873108 0.472260
vt 0.874556 0.471877
vt 0.874556 0.472493
vt 0.874551 0.472493
vt 0.874551 0.472493
vt 0.874551 0.471877
vt 0.874556 0.471877
vt 0.871665 0.472710
vt 0.871665 0.472333
vt 0.871671 0.472333
vt 0.871671 0.472333
vt 0.871671 0.472710
vt 0.871665 0.472710
vt 0.873108 0.472710
vt 0.873108 0.472333
vt 0.873114 0.472333
vt 0.873114 0.472333
vt 0.873114 0.472710
vt 0.873108 0.472710
vt 0.871665 0.472260
vt 0.871665 0.471882
vt 0.871671 0.471882
vt 0.871671 0.471882
vt 0.871671 0.472260
vt 0.871665 0.472260
vt 0.875994 0.472493
vt 0.875994 0.471877
vt 0.875998 0.471877
vt 0.875998 0.471877
vt 0.875998 0.472493
vt 0.875994 0.472493
vt 0.873108 0.472292
vt 0.873114 0.472292
vt 0.873114 0.472301
vt 0.873114 0.472301
vt 0.873108 0.472301
vt 0.873108 0.472292
vt 0.871665 0.472292
vt 0.871671 0.472292
vt 0.871671 0.472301
vt 0.871671 0.472301
vt 0.871665 0.472301
vt 0.871665 0.472292
vt 0.974278 0.429907
vt 0.974278 0.430062
vt 0.871441 0.430062
vt 0.871441 0.430062
vt 0.871441 0.429907
vt 0.974278 0.429907
vt 0.871441 0.488848
vt 0.871441 0.488693
vt 0.974278 0.488693
vt 0.974278 0.488693
vt 0.974278 0.488848
vt 0.871441 0.488848
vt 0.869505 0.472164
vt 0.869505 0.472163
vt 0.870533 0.472163
vt 0.870533 0.472163
vt 0.870533 0.472164
vt 0.869505 0.472164
vt 0.870533 0.472201
vt 0.870533 0.472202
vt 0.869505 0.472202
vt 0.869505 0.472202
vt 0.869505 0.472201
vt 0.870533 0.472201
vt 0.873108 0.472270
vt 0.873108 0.472268
vt 0.873114 0.472268
vt 0.873114 0.472268
vt 0.873114 0.472270
vt 0.873108 0.472270
vt 0.871665 0.472322
vt 0.871671 0.472322
vt 0.871671 0.472325
vt 0.871671 0.472325
vt 0.871665 0.472325
vt 0.871665 0.472322
vt 0.873108 0.472322
vt 0.873114 0.472322
vt 0.873114 0.472325
vt 0.873114 0.472325
vt 0.873108 0.472325
vt 0.873108 0.472322
vt 0.871665 0.472270
vt 0.871665 0.472268
vt 0.871671 0.472268
vt 0.871671 0.472268
vt 0.871671 0.472270
vt 0.871665 0.472270
vt 0.996282 0.484173
vt 0.996282 0.486090
vt 0.502648 0.486090
vt 0.502648 0.486090
vt 0.502648 0.484173
vt 0.996282 0.484173
vt 0.996282 0.481829
vt 0.996282 0.484173
vt 0.502648 0.484173
vt 0.502648 0.484173
vt 0.502648 0.481829
vt 0.996282 0.481829
vt 0.502648 0.427239
vt 0.502648 0.425322
vt 0.996282 0.425322
vt 0.996282 0.425322
vt 0.996282 0.427239
vt 0.502648 0.427239
vt 0.502648 0.429583
vt 0.502648 0.427239
vt 0.996282 0.427239
vt 0.996282 0.427239
vt 0.996282 0.429583
vt 0.502648 0.429583
vt 0.869505 0.472166
vt 0.869505 0.472164
vt 0.870533 0.472164
vt 0.870533 0.472164
vt 0.870533 0.472166
vt 0.869505 0.472166
vt 0.869505 0.472167
vt 0.869505 0.472166
vt 0.870533 0.472166
vt 0.870533 0.472166
vt 0.870533 0.472167
vt 0.869505 0.472167
vt 0.870533 0.472199
vt 0.870533 0.472201
vt 0.869505 0.472201
vt 0.869505 0.472201
vt 0.869505 0.472199
vt 0.870533 0.472199
vt 0.870533 0.472198
vt 0.870533 0.472199
vt 0.869505 0.472199
vt 0.869505 0.472199
vt 0.869505 0.472198
vt 0.870533 0.472198
vt 0.873108 0.472272
vt 0.873108 0.472270
vt 0.873114 0.472270
vt 0.873114 0.472270
vt 0.873114 0.472272
vt 0.873108 0.472272
vt 0.873114 0.472274
vt 0.873108 0.472274
vt 0.873108 0.472272
vt 0.873108 0.472272
vt 0.873114 0.472272
vt 0.873114 0.472274
vt 0.871671 0.472321
vt 0.871671 0.472322
vt 0.871665 0.472322
vt 0.871665 0.472322
vt 0.871665 0.472321
vt 0.871671 0.472321
vt 0.871671 0.472319
vt 0.871671 0.472321
vt 0.871665 0.472321
vt 0.871665 0.472321
vt 0.871665 0.472319
vt 0.871671 0.472319
vt 0.873114 0.472321
vt 0.873114 0.472322
vt 0.873108 0.472322
vt 0.873108 0.472322
vt 0.873108 0.472321
vt 0.873114 0.472321
vt 0.873114 0.472319
vt 0.873114 0.472321
vt 0.873108 0.472321
vt 0.873108 0.472321
vt 0.873108 0.472319
vt 0.873114 0.472319
vt 0.871665 0.472272
vt 0.871665 0.472270
vt 0.871671 0.472270
vt 0.871671 0.472270
vt 0.871671 0.472272
vt 0.871665 0.472272
vt 0.871671 0.472274
vt 0.871665 0.472274
vt 0.871665 0.472272
vt 0.871665 0.472272
vt 0.871671 0.472272
vt 0.871671 0.472274
vt 0.871441 0.458962
vt 0.871441 0.458564
vt 0.974278 0.458564
vt 0.974278 0.458564
vt 0.974278 0.458962
vt 0.871441 0.458962
vt 0.974278 0.430062
vt 0.974278 0.430662
vt 0.871441 0.430662
vt 0.871441 0.430662
vt 0.871441 0.430062
vt 0.974278 0.430062
vt 0.871441 0.488693
vt 0.871441 0.488092
vt 0.974278 0.488092
vt 0.974278 0.488092
vt 0.974278 0.488693
vt 0.871441 0.488693
vt 0.974278 0.459792
vt 0.974278 0.460191
vt 0.871441 0.460191
vt 0.871441 0.460191
vt 0.871441 0.459792
vt 0.974278 0.459792
vt 0.869505 0.472163
vt 0.869505 0.472157
vt 0.870533 0.472157
vt 0.870533 0.472157
vt 0.870533 0.472163
vt 0.869505 0.472163
vt 0.870533 0.471876
vt 0.870533 0.471880
vt 0.869505 0.471880
vt 0.869505 0.471880
vt 0.869505 0.471876
vt 0.870533 0.471876
vt 0.869505 0.472489
vt 0.869505 0.472485
vt 0.870533 0.472485
vt 0.870533 0.472485
vt 0.870533 0.472489
vt 0.869505 0.472489
vt 0.870533 0.472202
vt 0.870533 0.472208
vt 0.869505 0.472208
vt 0.869505 0.472208
vt 0.869505 0.472202
vt 0.870533 0.472202
vt 0.873108 0.472268
vt 0.873108 0.472260
vt 0.873114 0.472260
vt 0.873114 0.472260
vt 0.873114 0.472268
vt 0.873108 0.472268
vt 0.873114 0.471877
vt 0.873114 0.471882
vt 0.873108 0.471882
vt 0.873108 0.471882
vt 0.873108 0.471877
vt 0.873114 0.471877
vt 0.871665 0.472716
vt 0.871665 0.472710
vt 0.871671 0.472710
vt 0.871671 0.472710
vt 0.871671 0.472716
vt 0.871665 0.472716
vt 0.871665 0.472325
vt 0.871671 0.472325
vt 0.871671 0.472333
vt 0.871671 0.472333
vt 0.871665 0.472333
vt 0.871665 0.472325
vt 0.873108 0.472716
vt 0.873108 0.472710
vt 0.873114 0.472710
vt 0.873114 0.472710
vt 0.873114 0.472716
vt 0.873108 0.472716
vt 0.873108 0.472325
vt 0.873114 0.472325
vt 0.873114 0.472333
vt 0.873114 0.472333
vt 0.873108 0.472333
vt 0.873108 0.472325
vt 0.871665 0.472268
vt 0.871665 0.472260
vt 0.871671 0.472260
vt 0.871671 0.472260
vt 0.871671 0.472268
vt 0.871665 0.472268
vt 0.871671 0.471877
vt 0.871671 0.471882
vt 0.871665 0.471882
vt 0.871665 0.471882
vt 0.871665 0.471877
vt 0.871671 0.471877
vt 0.871441 0.459162
vt 0.871441 0.458962
vt 0.974278 0.458962
vt 0.974278 0.458962
vt 0.974278 0.459162
vt 0.871441 0.459162
vt 0.974278 0.459593
vt 0.974278 0.459792
vt 0.871441 0.459792
vt 0.871441 0.459792
vt 0.871441 0.459593
vt 0.974278 0.459593
vt 0.870533 0.471874
vt 0.870533 0.471876
vt 0.869505 0.471876
vt 0.869505 0.471876
vt 0.869505 0.471874
vt 0.870533 0.471874
vt 0.869505 0.472491
vt 0.869505 0.472489
vt 0.870533 0.472489
vt 0.870533 0.472489
vt 0.870533 0.472491
vt 0.869505 0.472491
vt 0.873114 0.471874
vt 0.873114 0.471877
vt 0.873108 0.471877
vt 0.873108 0.471877
vt 0.873108 0.471874
vt 0.873114 0.471874
vt 0.871665 0.472718
vt 0.871665 0.472716
vt 0.871671 0.472716
vt 0.871671 0.472716
vt 0.871671 0.472718
vt 0.871665 0.472718
vt 0.873108 0.472718
vt 0.873108 0.472716
vt 0.873114 0.472716
vt 0.873114 0.472716
vt 0.873114 0.472718
vt 0.873108 0.472718
vt 0.871671 0.471874
vt 0.871671 0.471877
vt 0.871665 0.471877
vt 0.871665 0.471877
vt 0.871665 0.471874
vt 0.871671 0.471874
vt 0.870887 0.458564
vt 0.870887 0.430662
vt 0.871010 0.430662
vt 0.871010 0.430662
vt 0.871010 0.458564
vt 0.870887 0.458564
vt 0.974832 0.430662
vt 0.974832 0.458564
vt 0.974710 0.458564
vt 0.974710 0.458564
vt 0.974710 0.430662
vt 0.974832 0.430662
vt 0.870887 0.488092
vt 0.870887 0.460191
vt 0.871010 0.460191
vt 0.871010 0.460191
vt 0.871010 0.488092
vt 0.870887 0.488092
vt 0.974832 0.460191
vt 0.974832 0.488092
vt 0.974710 0.488092
vt 0.974710 0.488092
vt 0.974710 0.460191
vt 0.974832 0.460191
vt 0.499989 0.450496
vt 0.500578 0.450496
vt 0.500578 0.460916
vt 0.500578 0.460916
vt 0.499989 0.460916
vt 0.499989 0.450496
vt 0.998941 0.460916
vt 0.998352 0.460916
vt 0.998352 0.450496
vt 0.998352 0.450496
vt 0.998941 0.450496
vt 0.998941 0.460916
vt 0.869499 0.472157
vt 0.869499 0.471880
vt 0.869500 0.471880
vt 0.869500 0.471880
vt 0.869500 0.472157
vt 0.869499 0.472157
vt 0.870539 0.471880
vt 0.870539 0.472157
vt 0.870537 0.472157
vt 0.870537 0.472157
vt 0.870537 0.471880
vt 0.870539 0.471880
vt 0.869499 0.472485
vt 0.869499 0.472208
vt 0.869500 0.472208
vt 0.869500 0.472208
vt 0.869500 0.472485
vt 0.869499 0.472485
vt 0.870539 0.472208
vt 0.870539 0.472485
vt 0.870537 0.472485
vt 0.870537 0.472485
vt 0.870537 0.472208
vt 0.870539 0.472208
vt 0.869499 0.472179
vt 0.869500 0.472179
vt 0.869500 0.472186
vt 0.869500 0.472186
vt 0.869499 0.472186
vt 0.869499 0.472179
vt 0.870539 0.472186
vt 0.870537 0.472186
vt 0.870537 0.472179
vt 0.870537 0.472179
vt 0.870539 0.472179
vt 0.870539 0.472186
vt 0.874556 0.471874
vt 0.874556 0.471875
vt 0.874551 0.471875
vt 0.874551 0.471875
vt 0.874551 0.471874
vt 0.874556 0.471874
vt 0.874551 0.472497
vt 0.874551 0.472496
vt 0.874556 0.472496
vt 0.874556 0.472496
vt 0.874556 0.472497
vt 0.874551 0.472497
vt 0.875994 0.472497
vt 0.875994 0.472496
vt 0.875998 0.472496
vt 0.875998 0.472496
vt 0.875998 0.472497
vt 0.875994 0.472497
vt 0.875998 0.471874
vt 0.875998 0.471875
vt 0.875994 0.471875
vt 0.875994 0.471875
vt 0.875994 0.471874
vt 0.875998 0.471874
vt 0.974832 0.429907
vt 0.974832 0.430062
vt 0.974710 0.430062
vt 0.974710 0.430062
vt 0.974710 0.429907
vt 0.974832 0.429907
vt 0.870887 0.430062
vt 0.870887 0.429907
vt 0.871010 0.429907
vt 0.871010 0.429907
vt 0.871010 0.430062
vt 0.870887 0.430062
vt 0.870887 0.488848
vt 0.870887 0.488693
vt 0.871010 0.488693
vt 0.871010 0.488693
vt 0.871010 0.488848
vt 0.870887 0.488848
vt 0.974832 0.488693
vt 0.974832 0.488848
vt 0.974710 0.488848
vt 0.974710 0.488848
vt 0.974710 0.488693
vt 0.974832 0.488693
vt 0.869499 0.472164
vt 0.869499 0.472163
vt 0.869500 0.472163
vt 0.869500 0.472163
vt 0.869500 0.472164
vt 0.869499 0.472164
vt 0.870539 0.472163
vt 0.870539 0.472164
vt 0.870537 0.472164
vt 0.870537 0.472164
vt 0.870537 0.472163
vt 0.870539 0.472163
vt 0.870539 0.472201
vt 0.870539 0.472202
vt 0.870537 0.472202
vt 0.870537 0.472202
vt 0.870537 0.472201
vt 0.870539 0.472201
vt 0.869499 0.472202
vt 0.869499 0.472201
vt 0.869500 0.472201
vt 0.869500 0.472201
vt 0.869500 0.472202
vt 0.869499 0.472202
vt 0.998941 0.484173
vt 0.998941 0.486090
vt 0.998352 0.486090
vt 0.998352 0.486090
vt 0.998352 0.484173
vt 0.998941 0.484173
vt 0.499989 0.486090
vt 0.499989 0.484173
vt 0.500578 0.484173
vt 0.500578 0.484173
vt 0.500578 0.486090
vt 0.499989 0.486090
vt 0.998941 0.481829
vt 0.998941 0.484173
vt 0.998352 0.484173
vt 0.998352 0.484173
vt 0.998352 0.481829
vt 0.998941 0.481829
vt 0.499989 0.484173
vt 0.499989 0.481829
vt 0.500578 0.481829
vt 0.500578 0.481829
vt 0.500578 0.484173
vt 0.499989 0.484173
vt 0.499989 0.427239
vt 0.499989 0.425322
vt 0.500578 0.425322
vt 0.500578 0.425322
vt 0.500578 0.427239
vt 0.499989 0.427239
vt 0.998941 0.425322
vt 0.998941 0.427239
vt 0.998352 0.427239
vt 0.998352 0.427239
vt 0.998352 0.425322
vt 0.998941 0.425322
vt 0.499989 0.429583
vt 0.499989 0.427239
vt 0.500578 0.427239
vt 0.500578 0.427239
vt 0.500578 0.429583
vt 0.499989 0.429583
vt 0.998941 0.427239
vt 0.998941 0.429583
vt 0.998352 0.429583
vt 0.998352 0.429583
vt 0.998352 0.427239
vt 0.998941 0.427239
vt 0.869499 0.472166
vt 0.869499 0.472164
vt 0.869500 0.472164
vt 0.869500 0.472164
vt 0.869500 0.472166
vt 0.869499 0.472166
vt 0.870539 0.472164
vt 0.870539 0.472166
vt 0.870537 0.472166
vt 0.870537 0.472166
vt 0.870537 0.472164
vt 0.870539 0.472164
vt 0.869499 0.472167
vt 0.869499 0.472166
vt 0.869500 0.472166
vt 0.869500 0.472166
vt 0.869500 0.472167
vt 0.869499 0.472167
vt 0.870539 0.472166
vt 0.870539 0.472167
vt 0.870537 0.472167
vt 0.870537 0.472167
vt 0.870537 0.472166
vt 0.870539 0.472166
vt 0.870539 0.472199
vt 0.870539 0.472201
vt 0.870537 0.472201
vt 0.870537 0.472201
vt 0.870537 0.472199
vt 0.870539 0.472199
vt 0.869499 0.472201
vt 0.869499 0.472199
vt 0.869500 0.472199
vt 0.869500 0.472199
vt 0.869500 0.472201
vt 0.869499 0.472201
vt 0.870539 0.472198
vt 0.870539 0.472199
vt 0.870537 0.472199
vt 0.870537 0.472199
vt 0.870537 0.472198
vt 0.870539 0.472198
vt 0.869499 0.472199
vt 0.869499 0.472198
vt 0.869500 0.472198
vt 0.869500 0.472198
vt 0.869500 0.472199
vt 0.869499 0.472199
vt 0.870887 0.458962
vt 0.870887 0.458564
vt 0.871010 0.458564
vt 0.871010 0.458564
vt 0.871010 0.458962
vt 0.870887 0.458962
vt 0.974832 0.458564
vt 0.974832 0.458962
vt 0.974710 0.458962
vt 0.974710 0.458962
vt 0.974710 0.458564
vt 0.974832 0.458564
vt 0.974832 0.430062
vt 0.974832 0.430662
vt 0.974710 0.430662
vt 0.974710 0.430662
vt 0.974710 0.430062
vt 0.974832 0.430062
vt 0.870887 0.430662
vt 0.870887 0.430062
vt 0.871010 0.430062
vt 0.871010 0.430062
vt 0.871010 0.430662
vt 0.870887 0.430662
vt 0.870887 0.488693
vt 0.870887 0.488092
vt 0.871010 0.488092
vt 0.871010 0.488092
vt 0.871010 0.488693
vt 0.870887 0.488693
vt 0.974832 0.488092
vt 0.974832 0.488693
vt 0.974710 0.488693
vt 0.974710 0.488693
vt 0.974710 0.488092
vt 0.974832 0.488092
vt 0.974832 0.459792
vt 0.974832 0.460191
vt 0.974710 0.460191
vt 0.974710 0.460191
vt 0.974710 0.459792
vt 0.974832 0.459792
vt 0.870887 0.460191
vt 0.870887 0.459792
vt 0.871010 0.459792
vt 0.871010 0.459792
vt 0.871010 0.460191
vt 0.870887 0.460191
vt 0.869499 0.472163
vt 0.869499 0.472157
vt 0.869500 0.472157
vt 0.869500 0.472157
vt 0.869500 0.472163
vt 0.869499 0.472163
vt 0.870539 0.472157
vt 0.870539 0.472163
vt 0.870537 0.472163
vt 0.870537 0.472163
vt 0.870537 0.472157
vt 0.870539 0.472157
vt 0.870539 0.471876
vt 0.870539 0.471880
vt 0.870537 0.471880
vt 0.870537 0.471880
vt 0.870537 0.471876
vt 0.870539 0.471876
vt 0.869499 0.471880
vt 0.869499 0.471876
vt 0.869500 0.471876
vt 0.869500 0.471876
vt 0.869500 0.471880
vt 0.869499 0.471880
vt 0.869499 0.472489
vt 0.869499 0.472485
vt 0.869500 0.472485
vt 0.869500 0.472485
vt 0.869500 0.472489
vt 0.869499 0.472489
vt 0.870539 0.472485
vt 0.870539 0.472489
vt 0.870537 0.472489
vt 0.870537 0.472489
vt 0.870537 0.472485
vt 0.870539 0.472485
vt 0.870539 0.472202
vt 0.870539 0.472208
vt 0.870537 0.472208
vt 0.870537 0.472208
vt 0.870537 0.472202
vt 0.870539 0.472202
vt 0.869499 0.472208
vt 0.869499 0.472202
vt 0.869500 0.472202
vt 0.869500 0.472202
vt 0.869500 0.472208
vt 0.869499 0.472208
vt 0.870887 0.459162
vt 0.870887 0.458962
vt 0.871010 0.458962
vt 0.871010 0.458962
vt 0.871010 0.459162
vt 0.870887 0.459162
vt 0.974832 0.458962
vt 0.974832 0.459162
vt 0.974710 0.459162
vt 0.974710 0.459162
vt 0.974710 0.458962
vt 0.974832 0.458962
vt 0.974832 0.459593
vt 0.974832 0.459792
vt 0.974710 0.459792
vt 0.974710 0.459792
vt 0.974710 0.459593
vt 0.974832 0.459593
vt 0.870887 0.459792
vt 0.870887 0.459593
vt 0.871010 0.459593
vt 0.871010 0.459593
vt 0.871010 0.459792
vt 0.870887 0.459792
vt 0.870539 0.471874
vt 0.870539 0.471876
vt 0.870537 0.471876
vt 0.870537 0.471876
vt 0.870537 0.471874
vt 0.870539 0.471874
vt 0.869499 0.471876
vt 0.869499 0.471874
vt 0.869500 0.471874
vt 0.869500 0.471874
vt 0.869500 0.471876
vt 0.869499 0.471876
vt 0.869499 0.472491
vt 0.869499 0.472489
vt 0.869500 0.472489
vt 0.869500 0.472489
vt 0.869500 0.472491
vt 0.869499 0.472491
vt 0.870539 0.472489
vt 0.870539 0.472491
vt 0.870537 0.472491
vt 0.870537 0.472491
vt 0.870537 0.472489
vt 0.870539 0.472489
vt 0.871010 0.458564
vt 0.871010 0.430662
vt 0.871441 0.430662
vt 0.871441 0.430662
vt 0.871441 0.458564
vt 0.871010 0.458564
vt 0.974710 0.430662
vt 0.974710 0.458564
vt 0.974278 0.458564
vt 0.974278 0.458564
vt 0.974278 0.430662
vt 0.974710 0.430662
vt 0.871010 0.488092
vt 0.871010 0.460191
vt 0.871441 0.460191
vt 0.871441 0.460191
vt 0.871441 0.488092
vt 0.871010 0.488092
vt 0.974710 0.460191
vt 0.974710 0.488092
vt 0.974278 0.488092
vt 0.974278 0.488092
vt 0.974278 0.460191
vt 0.974710 0.460191
vt 0.500578 0.450496
vt 0.502648 0.450496
vt 0.502648 0.460916
vt 0.502648 0.460916
vt 0.500578 0.460916
vt 0.500578 0.450496
vt 0.998352 0.460916
vt 0.996282 0.460916
vt 0.996282 0.450496
vt 0.996282 0.450496
vt 0.998352 0.450496
vt 0.998352 0.460916
vt 0.869500 0.472157
vt 0.869500 0.471880
vt 0.869505 0.471880
vt 0.869505 0.471880
vt 0.869505 0.472157
vt 0.869500 0.472157
vt 0.870537 0.471880
vt 0.870537 0.472157
vt 0.870533 0.472157
vt 0.870533 0.472157
vt 0.870533 0.471880
vt 0.870537 0.471880
vt 0.869500 0.472485
vt 0.869500 0.472208
vt 0.869505 0.472208
vt 0.869505 0.472208
vt 0.869505 0.472485
vt 0.869500 0.472485
vt 0.870537 0.472208
vt 0.870537 0.472485
vt 0.870533 0.472485
vt 0.870533 0.472485
vt 0.870533 0.472208
vt 0.870537 0.472208
vt 0.869500 0.472179
vt 0.869505 0.472179
vt 0.869505 0.472186
vt 0.869505 0.472186
vt 0.869500 0.472186
vt 0.869500 0.472179
vt 0.870537 0.472186
vt 0.870533 0.472186
vt 0.870533 0.472179
vt 0.870533 0.472179
vt 0.870537 0.472179
vt 0.870537 0.472186
vt 0.874556 0.471875
vt 0.874556 0.471877
vt 0.874551 0.471877
vt 0.874551 0.471877
vt 0.874551 0.471875
vt 0.874556 0.471875
vt 0.874551 0.472496
vt 0.874551 0.472493
vt 0.874556 0.472493
vt 0.874556 0.472493
vt 0.874556 0.472496
vt 0.874551 0.472496
vt 0.875994 0.472496
vt 0.875994 0.472493
vt 0.875998 0.472493
vt 0.875998 0.472493
vt 0.875998 0.472496
vt 0.875994 0.472496
vt 0.875998 0.471875
vt 0.875998 0.471877
vt 0.875994 0.471877
vt 0.875994 0.471877
vt 0.875994 0.471875
vt 0.875998 0.471875
vt 0.974710 0.429907
vt 0.974710 0.430062
vt 0.974278 0.430062
vt 0.974278 0.430062
vt 0.974278 0.429907
vt 0.974710 0.429907
vt 0.871010 0.430062
vt 0.871010 0.429907
vt 0.871441 0.429907
vt 0.871441 0.429907
vt 0.871441 0.430062
vt 0.871010 0.430062
vt 0.871010 0.488848
vt 0.871010 0.488693
vt 0.871441 0.488693
vt 0.871441 0.488693
vt 0.871441 0.488848
vt 0.871010 0.488848
vt 0.974710 0.488693
vt 0.974710 0.488848
vt 0.974278 0.488848
vt 0.974278 0.488848
vt 0.974278 0.488693
vt 0.974710 0.488693
vt 0.869500 0.472164
vt 0.869500 0.472163
vt 0.869505 0.472163
vt 0.869505 0.472163
vt 0.869505 0.472164
vt 0.869500 0.472164
vt 0.870537 0.472163
vt 0.870537 0.472164
vt 0.870533 0.472164
vt 0.870533 0.472164
vt 0.870533 0.472163
vt 0.870537 0.472163
vt 0.870537 0.472201
vt 0.870537 0.472202
vt 0.870533 0.472202
vt 0.870533 0.472202
vt 0.870533 0.472201
vt 0.870537 0.472201
vt 0.869500 0.472202
vt 0.869500 0.472201
vt 0.869505 0.472201
vt 0.869505 0.472201
vt 0.869505 0.472202
vt 0.869500 0.472202
vt 0.998352 0.484173
vt 0.998352 0.486090
vt 0.996282 0.486090
vt 0.996282 0.486090
vt 0.996282 0.484173
vt 0.998352 0.484173
vt 0.500578 0.486090
vt 0.500578 0.484173
vt 0.502648 0.484173
vt 0.502648 0.484173
vt 0.502648 0.486090
vt 0.500578 0.486090
vt 0.998352 0.481829
vt 0.998352 0.484173
vt 0.996282 0.484173
vt 0.996282 0.484173
vt 0.996282 0.481829
vt 0.998352 0.481829
vt 0.500578 0.484173
vt 0.500578 0.481829
vt 0.502648 0.481829
vt 0.502648 0.481829
vt 0.502648 0.484173
vt 0.500578 0.484173
vt 0.500578 0.427239
vt 0.500578 0.425322
vt 0.502648 0.425322
vt 0.502648 0.425322
vt 0.502648 0.427239
vt 0.500578 0.427239
vt 0.998352 0.425322
vt 0.998352 0.427239
vt 0.996282 0.427239
vt 0.996282 0.427239
vt 0.996282 0.425322
vt 0.998352 0.425322
vt 0.500578 0.429583
vt 0.500578 0.427239
vt 0.502648 0.427239
vt 0.502648 0.427239
vt 0.502648 0.429583
vt 0.500578 0.429583
vt 0.998352 0.427239
vt 0.998352 0.429583
vt 0.996282 0.429583
vt 0.996282 0.429583
vt 0.996282 0.427239
vt 0.998352 0.427239
vt 0.869500 0.472166
vt 0.869500 0.472164
vt 0.869505 0.472164
vt 0.869505 0.472164
vt 0.869505 0.472166
vt 0.869500 0.472166
vt 0.870537 0.472164
vt 0.870537 0.472166
vt 0.870533 0.472166
vt 0.870533 0.472166
vt 0.870533 0.472164
vt 0.870537 0.472164
vt 0.869500 0.472167
vt 0.869500 0.472166
vt 0.869505 0.472166
vt 0.869505 0.472166
vt 0.869505 0.472167
vt 0.869500 0.472167
vt 0.870537 0.472166
vt 0.870537 0.472167
vt 0.870533 0.472167
vt 0.870533 0.472167
vt 0.870533 0.472166
vt 0.870537 0.472166
vt 0.870537 0.472199
vt 0.870537 0.472201
vt 0.870533 0.472201
vt 0.870533 0.472201
vt 0.870533 0.472199
vt 0.870537 0.472199
vt 0.869500 0.472201
vt 0.869500 0.472199
vt 0.869505 0.472199
vt 0.869505 0.472199
vt 0.869505 0.472201
vt 0.869500 0.472201
vt 0.870537 0.472198
vt 0.870537 0.472199
vt 0.870533 0.472199
vt 0.870533 0.472199
vt 0.870533 0.472198
vt 0.870537 0.472198
vt 0.869500 0.472199
vt 0.869500 0.472198
vt 0.869505 0.472198
vt 0.869505 0.472198
vt 0.869505 0.472199
vt 0.869500 0.472199
vt 0.871010 0.458962
vt 0.871010 0.458564
vt 0.871441 0.458564
vt 0.871441 0.458564
vt 0.871441 0.458962
vt 0.871010 0.458962
vt 0.974710 0.458564
vt 0.974710 0.458962
vt 0.974278 0.458962
vt 0.974278 0.458962
vt 0.974278 0.458564
vt 0.974710 0.458564
vt 0.974710 0.430062
vt 0.974710 0.430662
vt 0.974278 0.430662
vt 0.974278 0.430662
vt 0.974278 0.430062
vt 0.974710 0.430062
vt 0.871010 0.430662
vt 0.871010 0.430062
vt 0.871441 0.430062
vt 0.871441 0.430062
vt 0.871441 0.430662
vt 0.871010 0.430662
vt 0.871010 0.488693
vt 0.871010 0.488092
vt 0.871441 0.488092
vt 0.871441 0.488092
vt 0.871441 0.488693
vt 0.871010 0.488693
vt 0.974710 0.488092
vt 0.974710 0.488693
vt 0.974278 0.488693
vt 0.974278 0.488693
vt 0.974278 0.488092
vt 0.974710 0.488092
vt 0.974710 0.459792
vt 0.974710 0.460191
vt 0.974278 0.460191
vt 0.974278 0.460191
vt 0.974278 0.459792
vt 0.974710 0.459792
vt 0.871010 0.460191
vt 0.871010 0.459792
vt 0.871441 0.459792
vt 0.871441 0.459792
vt 0.871441 0.460191
vt 0.871010 0.460191
vt 0.869500 0.472163
vt 0.869500 0.472157
vt 0.869505 0.472157
vt 0.869505 0.472157
vt 0.869505 0.472163
vt 0.869500 0.472163
vt 0.870537 0.472157
vt 0.870537 0.472163
vt 0.870533 0.472163
vt 0.870533 0.472163
vt 0.870533 0.472157
vt 0.870537 0.472157
vt 0.870537 0.471876
vt 0.870537 0.471880
vt 0.870533 0.471880
vt 0.870533 0.471880
vt 0.870533 0.471876
vt 0.870537 0.471876
vt 0.869500 0.471880
vt 0.869500 0.471876
vt 0.869505 0.471876
vt 0.869505 0.471876
vt 0.869505 0.471880
vt 0.869500 0.471880
vt 0.869500 0.472489
vt 0.869500 0.472485
vt 0.869505 0.472485
vt 0.869505 0.472485
vt 0.869505 0.472489
vt 0.869500 0.472489
vt 0.870537 0.472485
vt 0.870537 0.472489
vt 0.870533 0.472489
vt 0.870533 0.472489
vt 0.870533 0.472485
vt 0.870537 0.472485
vt 0.870537 0.472202
vt 0.870537 0.472208
vt 0.870533 0.472208
vt 0.870533 0.472208
vt 0.870533 0.472202
vt 0.870537 0.472202
vt 0.869500 0.472208
vt 0.869500 0.472202
vt 0.869505 0.472202
vt 0.869505 0.472202
vt 0.869505 0.472208
vt 0.869500 0.472208
vt 0.871010 0.459162
vt 0.871010 0.458962
vt 0.871441 0.458962
vt 0.871441 0.458962
vt 0.871441 0.459162
vt 0.871010 0.459162
vt 0.974710 0.458962
vt 0.974710 0.459162
vt 0.974278 0.459162
vt 0.974278 0.459162
vt 0.974278 0.458962
vt 0.974710 0.458962
vt 0.974710 0.459593
vt 0.974710 0.459792
vt 0.974278 0.459792
vt 0.974278 0.459792
vt 0.974278 0.459593
vt 0.974710 0.459593
vt 0.871010 0.459792
vt 0.871010 0.459593
vt 0.871441 0.459593
vt 0.871441 0.459593
vt 0.871441 0.459792
vt 0.871010 0.459792
vt 0.870537 0.471874
vt 0.870537 0.471876
vt 0.870533 0.471876
vt 0.870533 0.471876
vt 0.870533 0.471874
vt 0.870537 0.471874
vt 0.869500 0.471876
vt 0.869500 0.471874
vt 0.869505 0.471874
vt 0.869505 0.471874
vt 0.869505 0.471876
vt 0.869500 0.471876
vt 0.869500 0.472491
vt 0.869500 0.472489
vt 0.869505 0.472489
vt 0.869505 0.472489
vt 0.869505 0.472491
vt 0.869500 0.472491
vt 0.870537 0.472489
vt 0.870537 0.472491
vt 0.870533 0.472491
vt 0.870533 0.472491
vt 0.870533 0.472489
vt 0.870537 0.472489
vt 0.873106 0.472260
vt 0.873106 0.471882
vt 0.873108 0.471882
vt 0.873108 0.471882
vt 0.873108 0.472260
vt 0.873106 0.472260
vt 0.873115 0.471882
vt 0.873115 0.472260
vt 0.873114 0.472260
vt 0.873114 0.472260
vt 0.873114 0.471882
vt 0.873115 0.471882
vt 0.874557 0.471877
vt 0.874557 0.472493
vt 0.874556 0.472493
vt 0.874556 0.472493
vt 0.874556 0.471877
vt 0.874557 0.471877
vt 0.874549 0.472493
vt 0.874549 0.471877
vt 0.874551 0.471877
vt 0.874551 0.471877
vt 0.874551 0.472493
vt 0.874549 0.472493
vt 0.871663 0.472710
vt 0.871663 0.472333
vt 0.871665 0.472333
vt 0.871665 0.472333
vt 0.871665 0.472710
vt 0.871663 0.472710
vt 0.871673 0.472333
vt 0.871673 0.472710
vt 0.871671 0.472710
vt 0.871671 0.472710
vt 0.871671 0.472333
vt 0.871673 0.472333
vt 0.873106 0.472710
vt 0.873106 0.472333
vt 0.873108 0.472333
vt 0.873108 0.472333
vt 0.873108 0.472710
vt 0.873106 0.472710
vt 0.873115 0.472333
vt 0.873115 0.472710
vt 0.873114 0.472710
vt 0.873114 0.472710
vt 0.873114 0.472333
vt 0.873115 0.472333
vt 0.871663 0.472260
vt 0.871663 0.471882
vt 0.871665 0.471882
vt 0.871665 0.471882
vt 0.871665 0.472260
vt 0.871663 0.472260
vt 0.871673 0.471882
vt 0.871673 0.472260
vt 0.871671 0.472260
vt 0.871671 0.472260
vt 0.871671 0.471882
vt 0.871673 0.471882
vt 0.875992 0.472493
vt 0.875992 0.471877
vt 0.875994 0.471877
vt 0.875994 0.471877
vt 0.875994 0.472493
vt 0.875992 0.472493
vt 0.876000 0.471877
vt 0.876000 0.472493
vt 0.875998 0.472493
vt 0.875998 0.472493
vt 0.875998 0.471877
vt 0.876000 0.471877
vt 0.873106 0.472292
vt 0.873108 0.472292
vt 0.873108 0.472301
vt 0.873108 0.472301
vt 0.873106 0.472301
vt 0.873106 0.472292
vt 0.873115 0.472301
vt 0.873114 0.472301
vt 0.873114 0.472292
vt 0.873114 0.472292
vt 0.873115 0.472292
vt 0.873115 0.472301
vt 0.871663 0.472292
vt 0.871665 0.472292
vt 0.871665 0.472301
vt 0.871665 0.472301
vt 0.871663 0.472301
vt 0.871663 0.472292
vt 0.871673 0.472301
vt 0.871671 0.472301
vt 0.871671 0.472292
vt 0.871671 0.472292
vt 0.871673 0.472292
vt 0.871673 0.472301
vt 0.873106 0.472270
vt 0.873106 0.472268
vt 0.873108 0.472268
vt 0.873108 0.472268
vt 0.873108 0.472270
vt 0.873106 0.472270
vt 0.873115 0.472268
vt 0.873115 0.472270
vt 0.873114 0.472270
vt 0.873114 0.472270
vt 0.873114 0.472268
vt 0.873115 0.472268
vt 0.871671 0.472322
vt 0.871673 0.472322
vt 0.871673 0.472325
vt 0.871673 0.472325
vt 0.871671 0.472325
vt 0.871671 0.472322
vt 0.871665 0.472325
vt 0.871663 0.472325
vt 0.871663 0.472322
vt 0.871663 0.472322
vt 0.871665 0.472322
vt 0.871665 0.472325
vt 0.873114 0.472322
vt 0.873115 0.472322
vt 0.873115 0.472325
vt 0.873115 0.472325
vt 0.873114 0.472325
vt 0.873114 0.472322
vt 0.873108 0.472325
vt 0.873106 0.472325
vt 0.873106 0.472322
vt 0.873106 0.472322
vt 0.873108 0.472322
vt 0.873108 0.472325
vt 0.871663 0.472270
vt 0.871663 0.472268
vt 0.871665 0.472268
vt 0.871665 0.472268
vt 0.871665 0.472270
vt 0.871663 0.472270
vt 0.871673 0.472268
vt 0.871673 0.472270
vt 0.871671 0.472270
vt 0.871671 0.472270
vt 0.871671 0.472268
vt 0.871673 0.472268
vt 0.873106 0.472272
vt 0.873106 0.472270
vt 0.873108 0.472270
vt 0.873108 0.472270
vt 0.873108 0.472272
vt 0.873106 0.472272
vt 0.873115 0.472270
vt 0.873115 0.472272
vt 0.873114 0.472272
vt 0.873114 0.472272
vt 0.873114 0.472270
vt 0.873115 0.472270
vt 0.873108 0.472274
vt 0.873106 0.472274
vt 0.873106 0.472272
vt 0.873106 0.472272
vt 0.873108 0.472272
vt 0.873108 0.472274
vt 0.873114 0.472272
vt 0.873115 0.472272
vt 0.873115 0.472274
vt 0.873115 0.472274
vt 0.873114 0.472274
vt 0.873114 0.472272
vt 0.871673 0.472321
vt 0.871673 0.472322
vt 0.871671 0.472322
vt 0.871671 0.472322
vt 0.871671 0.472321
vt 0.871673 0.472321
vt 0.871663 0.472322
vt 0.871663 0.472321
vt 0.871665 0.472321
vt 0.871665 0.472321
vt 0.871665 0.472322
vt 0.871663 0.472322
vt 0.871673 0.472319
vt 0.871673 0.472321
vt 0.871671 0.472321
vt 0.871671 0.472321
vt 0.871671 0.472319
vt 0.871673 0.472319
vt 0.871663 0.472321
vt 0.871663 0.472319
vt 0.871665 0.472319
vt 0.871665 0.472319
vt 0.871665 0.472321
vt 0.871663 0.472321
vt 0.873115 0.472321
vt 0.873115 0.472322
vt 0.873114 0.472322
vt 0.873114 0.472322
vt 0.873114 0.472321
vt 0.873115 0.472321
vt 0.873106 0.472322
vt 0.873106 0.472321
vt 0.873108 0.472321
vt 0.873108 0.472321
vt 0.873108 0.472322
vt 0.873106 0.472322
vt 0.873115 0.472319
vt 0.873115 0.472321
vt 0.873114 0.472321
vt 0.873114 0.472321
vt 0.873114 0.472319
vt 0.873115 0.472319
vt 0.873106 0.472321
vt 0.873106 0.472319
vt 0.873108 0.472319
vt 0.873108 0.472319
vt 0.873108 0.472321
vt 0.873106 0.472321
vt 0.871663 0.472272
vt 0.871663 0.472270
vt 0.871665 0.472270
vt 0.871665 0.472270
vt 0.871665 0.472272
vt 0.871663 0.472272
vt 0.871673 0.472270
vt 0.871673 0.472272
vt 0.871671 0.472272
vt 0.871671 0.472272
vt 0.871671 0.472270
vt 0.871673 0.472270
vt 0.871665 0.472274
vt 0.871663 0.472274
vt 0.871663 0.472272
vt 0.871663 0.472272
vt 0.871665 0.472272
vt 0.871665 0.472274
vt 0.871671 0.472272
vt 0.871673 0.472272
vt 0.871673 0.472274
vt 0.871673 0.472274
vt 0.871671 0.472274
vt 0.871671 0.472272
vt 0.873106 0.472268
vt 0.873106 0.472260
vt 0.873108 0.472260
vt 0.873108 0.472260
vt 0.873108 0.472268
vt 0.873106 0.472268
vt 0.873115 0.472260
vt 0.873115 0.472268
vt 0.873114 0.472268
vt 0.873114 0.472268
vt 0.873114 0.472260
vt 0.873115 0.472260
vt 0.873115 0.471877
vt 0.873115 0.471882
vt 0.873114 0.471882
vt 0.873114 0.471882
vt 0.873114 0.471877
vt 0.873115 0.471877
vt 0.873106 0.471882
vt 0.873106 0.471877
vt 0.873108 0.471877
vt 0.873108 0.471877
vt 0.873108 0.471882
vt 0.873106 0.471882
vt 0.871663 0.472716
vt 0.871663 0.472710
vt 0.871665 0.472710
vt 0.871665 0.472710
vt 0.871665 0.472716
vt 0.871663 0.472716
vt 0.871673 0.472710
vt 0.871673 0.472716
vt 0.871671 0.472716
vt 0.871671 0.472716
vt 0.871671 0.472710
vt 0.871673 0.472710
vt 0.871671 0.472325
vt 0.871673 0.472325
vt 0.871673 0.472333
vt 0.871673 0.472333
vt 0.871671 0.472333
vt 0.871671 0.472325
vt 0.871665 0.472333
vt 0.871663 0.472333
vt 0.871663 0.472325
vt 0.871663 0.472325
vt 0.871665 0.472325
vt 0.871665 0.472333
vt 0.873106 0.472716
vt 0.873106 0.472710
vt 0.873108 0.472710
vt 0.873108 0.472710
vt 0.873108 0.472716
vt 0.873106 0.472716
vt 0.873115 0.472710
vt 0.873115 0.472716
vt 0.873114 0.472716
vt 0.873114 0.472716
vt 0.873114 0.472710
vt 0.873115 0.472710
vt 0.873114 0.472325
vt 0.873115 0.472325
vt 0.873115 0.472333
vt 0.873115 0.472333
vt 0.873114 0.472333
vt 0.873114 0.472325
vt 0.873108 0.472333
vt 0.873106 0.472333
vt 0.873106 0.472325
vt 0.873106 0.472325
vt 0.873108 0.472325
vt 0.873108 0.472333
vt 0.871663 0.472268
vt 0.871663 0.472260
vt 0.871665 0.472260
vt 0.871665 0.472260
vt 0.871665 0.472268
vt 0.871663 0.472268
vt 0.871673 0.472260
vt 0.871673 0.472268
vt 0.871671 0.472268
vt 0.871671 0.472268
vt 0.871671 0.472260
vt 0.871673 0.472260
vt 0.871673 0.471877
vt 0.871673 0.471882
vt 0.871671 0.471882
vt 0.871671 0.471882
vt 0.871671 0.471877
vt 0.871673 0.471877
vt 0.871663 0.471882
vt 0.871663 0.471877
vt 0.871665 0.471877
vt 0.871665 0.471877
vt 0.871665 0.471882
vt 0.871663 0.471882
vt 0.873115 0.471874
vt 0.873115 0.471877
vt 0.873114 0.471877
vt 0.873114 0.471877
vt 0.873114 0.471874
vt 0.873115 0.471874
vt 0.873106 0.471877
vt 0.873106 0.471874
vt 0.873108 0.471874
vt 0.873108 0.471874
vt 0.873108 0.471877
vt 0.873106 0.471877
vt 0.871663 0.472718
vt 0.871663 0.472716
vt 0.871665 0.472716
vt 0.871665 0.472716
vt 0.871665 0.472718
vt 0.871663 0.472718
vt 0.871673 0.472716
vt 0.871673 0.472718
vt 0.871671 0.472718
vt 0.871671 0.472718
vt 0.871671 0.472716
vt 0.871673 0.472716
vt 0.873106 0.472718
vt 0.873106 0.472716
vt 0.873108 0.472716
vt 0.873108 0.472716
vt 0.873108 0.472718
vt 0.873106 0.472718
vt 0.873115 0.472716
vt 0.873115 0.472718
vt 0.873114 0.472718
vt 0.873114 0.472718
vt 0.873114 0.472716
vt 0.873115 0.472716
vt 0.871673 0.471874
vt 0.871673 0.471877
vt 0.871671 0.471877
vt 0.871671 0.471877
vt 0.871671 0.471874
vt 0.871673 0.471874
vt 0.871663 0.471877
vt 0.871663 0.471874
vt 0.871665 0.471874
vt 0.871665 0.471874
vt 0.871665 0.471877
vt 0.871663 0.471877
vt 0.874557 0.471874
vt 0.874557 0.471875
vt 0.874556 0.471875
vt 0.874556 0.471875
vt 0.874556 0.471874
vt 0.874557 0.471874
vt 0.874549 0.471875
vt 0.874549 0.471874
vt 0.874551 0.471874
vt 0.874551 0.471874
vt 0.874551 0.471875
vt 0.874549 0.471875
vt 0.874549 0.472497
vt 0.874549 0.472496
vt 0.874551 0.472496
vt 0.874551 0.472496
vt 0.874551 0.472497
vt 0.874549 0.472497
vt 0.874557 0.472496
vt 0.874557 0.472497
vt 0.874556 0.472497
vt 0.874556 0.472497
vt 0.874556 0.472496
vt 0.874557 0.472496
vt 0.875992 0.472497
vt 0.875992 0.472496
vt 0.875994 0.472496
vt 0.875994 0.472496
vt 0.875994 0.472497
vt 0.875992 0.472497
vt 0.876000 0.472496
vt 0.876000 0.472497
vt 0.875998 0.472497
vt 0.875998 0.472497
vt 0.875998 0.472496
vt 0.876000 0.472496
vt 0.876000 0.471874
vt 0.876000 0.471875
vt 0.875998 0.471875
vt 0.875998 0.471875
vt 0.875998 0.471874
vt 0.876000 0.471874
vt 0.875992 0.471875
vt 0.875992 0.471874
vt 0.875994 0.471874
vt 0.875994 0.471874
vt 0.875994 0.471875
vt 0.875992 0.471875
vt 0.874557 0.471875
vt 0.874557 0.471877
vt 0.874556 0.471877
vt 0.874556 0.471877
vt 0.874556 0.471875
vt 0.874557 0.471875
vt 0.874549 0.471877
vt 0.874549 0.471875
vt 0.874551 0.471875
vt 0.874551 0.471875
vt 0.874551 0.471877
vt 0.874549 0.471877
vt 0.874549 0.472496
vt 0.874549 0.472493
vt 0.874551 0.472493
vt 0.874551 0.472493
vt 0.874551 0.472496
vt 0.874549 0.472496
vt 0.874557 0.472493
vt 0.874557 0.472496
vt 0.874556 0.472496
vt 0.874556 0.472496
vt 0.874556 0.472493
vt 0.874557 0.472493
vt 0.875992 0.472496
vt 0.875992 0.472493
vt 0.875994 0.472493
vt 0.875994 0.472493
vt 0.875994 0.472496
vt 0.875992 0.472496
vt 0.876000 0.472493
vt 0.876000 0.472496
vt 0.875998 0.472496
vt 0.875998 0.472496
vt 0.875998 0.472493
vt 0.876000 0.472493
vt 0.876000 0.471875
vt 0.876000 0.471877
vt 0.875998 0.471877
vt 0.875998 0.471877
vt 0.875998 0.471875
vt 0.876000 0.471875
vt 0.875992 0.471877
vt 0.875992 0.471875
vt 0.875994 0.471875
vt 0.875994 0.471875
vt 0.875994 0.471877
vt 0.875992 0.471877
vt 0.502648 0.429583
vt 0.996282 0.429583
vt 0.996282 0.440060
vt 0.996282 0.440060
vt 0.502648 0.440060
vt 0.502648 0.429583
vt 0.502648 0.440060
vt 0.996282 0.440060
vt 0.996282 0.450496
vt 0.996282 0.450496
vt 0.502648 0.450496
vt 0.502648 0.440060
vt 0.996282 0.481829
vt 0.502648 0.481829
vt 0.502648 0.471352
vt 0.502648 0.471352
vt 0.996282 0.471352
vt 0.996282 0.481829
vt 0.996282 0.471352
vt 0.502648 0.471352
vt 0.502648 0.460916
vt 0.502648 0.460916
vt 0.996282 0.460916
vt 0.996282 0.471352
vt 0.869505 0.472167
vt 0.870533 0.472167
vt 0.870533 0.472173
vt 0.870533 0.472173
vt 0.869505 0.472173
vt 0.869505 0.472167
vt 0.869505 0.472173
vt 0.870533 0.472173
vt 0.870533 0.472179
vt 0.870533 0.472179
vt 0.869505 0.472179
vt 0.869505 0.472173
vt 0.870533 0.472198
vt 0.869505 0.472198
vt 0.869505 0.472192
vt 0.869505 0.472192
vt 0.870533 0.472192
vt 0.870533 0.472198
vt 0.870533 0.472192
vt 0.869505 0.472192
vt 0.869505 0.472186
vt 0.869505 0.472186
vt 0.870533 0.472186
vt 0.870533 0.472192
vt 0.873108 0.472274
vt 0.873114 0.472274
vt 0.873114 0.472283
vt 0.873114 0.472283
vt 0.873108 0.472283
vt 0.873108 0.472274
vt 0.873108 0.472283
vt 0.873114 0.472283
vt 0.873114 0.472292
vt 0.873114 0.472292
vt 0.873108 0.472292
vt 0.873108 0.472283
vt 0.873114 0.472310
vt 0.873114 0.472319
vt 0.873108 0.472319
vt 0.873108 0.472319
vt 0.873108 0.472310
vt 0.873114 0.472310
vt 0.873114 0.472301
vt 0.873114 0.472310
vt 0.873108 0.472310
vt 0.873108 0.472310
vt 0.873108 0.472301
vt 0.873114 0.472301
vt 0.871665 0.472274
vt 0.871671 0.472274
vt 0.871671 0.472283
vt 0.871671 0.472283
vt 0.871665 0.472283
vt 0.871665 0.472274
vt 0.871665 0.472283
vt 0.871671 0.472283
vt 0.871671 0.472292
vt 0.871671 0.472292
vt 0.871665 0.472292
vt 0.871665 0.472283
vt 0.871671 0.472310
vt 0.871671 0.472319
vt 0.871665 0.472319
vt 0.871665 0.472319
vt 0.871665 0.472310
vt 0.871671 0.472310
vt 0.871671 0.472301
vt 0.871671 0.472310
vt 0.871665 0.472310
vt 0.871665 0.472310
vt 0.871665 0.472301
vt 0.871671 0.472301
vt 0.499989 0.429583
vt 0.500578 0.429583
vt 0.500578 0.440060
vt 0.500578 0.440060
vt 0.499989 0.440060
vt 0.499989 0.429583
vt 0.499989 0.440060
vt 0.500578 0.440060
vt 0.500578 0.450496
vt 0.500578 0.450496
vt 0.499989 0.450496
vt 0.499989 0.440060
vt 0.500578 0.481829
vt 0.499989 0.481829
vt 0.499989 0.471352
vt 0.499989 0.471352
vt 0.500578 0.471352
vt 0.500578 0.481829
vt 0.500578 0.471352
vt 0.499989 0.471352
vt 0.499989 0.460916
vt 0.499989 0.460916
vt 0.500578 0.460916
vt 0.500578 0.471352
vt 0.998941 0.481829
vt 0.998352 0.481829
vt 0.998352 0.471352
vt 0.998352 0.471352
vt 0.998941 0.471352
vt 0.998941 0.481829
vt 0.998941 0.471352
vt 0.998352 0.471352
vt 0.998352 0.460916
vt 0.998352 0.460916
vt 0.998941 0.460916
vt 0.998941 0.471352
vt 0.998352 0.429583
vt 0.998941 0.429583
vt 0.998941 0.440060
vt 0.998941 0.440060
vt 0.998352 0.440060
vt 0.998352 0.429583
vt 0.998352 0.440060
vt 0.998941 0.440060
vt 0.998941 0.450496
vt 0.998941 0.450496
vt 0.998352 0.450496
vt 0.998352 0.440060
vt 0.869499 0.472167
vt 0.869500 0.472167
vt 0.869500 0.472173
vt 0.869500 0.472173
vt 0.869499 0.472173
vt 0.869499 0.472167
vt 0.869499 0.472173
vt 0.869500 0.472173
vt 0.869500 0.472179
vt 0.869500 0.472179
vt 0.869499 0.472179
vt 0.869499 0.472173
vt 0.869500 0.472198
vt 0.869499 0.472198
vt 0.869499 0.472192
vt 0.869499 0.472192
vt 0.869500 0.472192
vt 0.869500 0.472198
vt 0.869500 0.472192
vt 0.869499 0.472192
vt 0.869499 0.472186
vt 0.869499 0.472186
vt 0.869500 0.472186
vt 0.869500 0.472192
vt 0.870539 0.472198
vt 0.870537 0.472198
vt 0.870537 0.472192
vt 0.870537 0.472192
vt 0.870539 0.472192
vt 0.870539 0.472198
vt 0.870539 0.472192
vt 0.870537 0.472192
vt 0.870537 0.472186
vt 0.870537 0.472186
vt 0.870539 0.472186
vt 0.870539 0.472192
vt 0.870537 0.472167
vt 0.870539 0.472167
vt 0.870539 0.472173
vt 0.870539 0.472173
vt 0.870537 0.472173
vt 0.870537 0.472167
vt 0.870537 0.472173
vt 0.870539 0.472173
vt 0.870539 0.472179
vt 0.870539 0.472179
vt 0.870537 0.472179
vt 0.870537 0.472173
vt 0.500578 0.429583
vt 0.502648 0.429583
vt 0.502648 0.440060
vt 0.502648 0.440060
vt 0.500578 0.440060
vt 0.500578 0.429583
vt 0.500578 0.440060
vt 0.502648 0.440060
vt 0.502648 0.450496
vt 0.502648 0.450496
vt 0.500578 0.450496
vt 0.500578 0.440060
vt 0.502648 0.481829
vt 0.500578 0.481829
vt 0.500578 0.471352
vt 0.500578 0.471352
vt 0.502648 0.471352
vt 0.502648 0.481829
vt 0.502648 0.471352
vt 0.500578 0.471352
vt 0.500578 0.460916
vt 0.500578 0.460916
vt 0.502648 0.460916
vt 0.502648 0.471352
vt 0.998352 0.481829
vt 0.996282 0.481829
vt 0.996282 0.471352
vt 0.996282 0.471352
vt 0.998352 0.471352
vt 0.998352 0.481829
vt 0.998352 0.471352
vt 0.996282 0.471352
vt 0.996282 0.460916
vt 0.996282 0.460916
vt 0.998352 0.460916
vt 0.998352 0.471352
vt 0.996282 0.429583
vt 0.998352 0.429583
vt 0.998352 0.440060
vt 0.998352 0.440060
vt 0.996282 0.440060
vt 0.996282 0.429583
vt 0.996282 0.440060
vt 0.998352 0.440060
vt 0.998352 0.450496
vt 0.998352 0.450496
vt 0.996282 0.450496
vt 0.996282 0.440060
vt 0.869500 0.472167
vt 0.869505 0.472167
vt 0.869505 0.472173
vt 0.869505 0.472173
vt 0.869500 0.472173
vt 0.869500 0.472167
vt 0.869500 0.472173
vt 0.869505 0.472173
vt 0.869505 0.472179
vt 0.869505 0.472179
vt 0.869500 0.472179
vt 0.869500 0.472173
vt 0.869505 0.472198
vt 0.869500 0.472198
vt 0.869500 0.472192
vt 0.869500 0.472192
vt 0.869505 0.472192
vt 0.869505 0.472198
vt 0.869505 0.472192
vt 0.869500 0.472192
vt 0.869500 0.472186
vt 0.869500 0.472186
vt 0.869505 0.472186
vt 0.869505 0.472192
vt 0.870537 0.472198
vt 0.870533 0.472198
vt 0.870533 0.472192
vt 0.870533 0.472192
vt 0.870537 0.472192
vt 0.870537 0.472198
vt 0.870537 0.472192
vt 0.870533 0.472192
vt 0.870533 0.472186
vt 0.870533 0.472186
vt 0.870537 0.472186
vt 0.870537 0.472192
vt 0.870533 0.472167
vt 0.870537 0.472167
vt 0.870537 0.472173
vt 0.870537 0.472173
vt 0.870533 0.472173
vt 0.870533 0.472167
vt 0.870533 0.472173
vt 0.870537 0.472173
vt 0.870537 0.472179
vt 0.870537 0.472179
vt 0.870533 0.472179
vt 0.870533 0.472173
vt 0.873106 0.472274
vt 0.873108 0.472274
vt 0.873108 0.472283
vt 0.873108 0.472283
vt 0.873106 0.472283
vt 0.873106 0.472274
vt 0.873106 0.472283
vt 0.873108 0.472283
vt 0.873108 0.472292
vt 0.873108 0.472292
vt 0.873106 0.472292
vt 0.873106 0.472283
vt 0.873108 0.472310
vt 0.873108 0.472319
vt 0.873106 0.472319
vt 0.873106 0.472319
vt 0.873106 0.472310
vt 0.873108 0.472310
vt 0.873108 0.472301
vt 0.873108 0.472310
vt 0.873106 0.472310
vt 0.873106 0.472310
vt 0.873106 0.472301
vt 0.873108 0.472301
vt 0.873115 0.472310
vt 0.873115 0.472319
vt 0.873114 0.472319
vt 0.873114 0.472319
vt 0.873114 0.472310
vt 0.873115 0.472310
vt 0.873115 0.472301
vt 0.873115 0.472310
vt 0.873114 0.472310
vt 0.873114 0.472310
vt 0.873114 0.472301
vt 0.873115 0.472301
vt 0.873114 0.472274
vt 0.873115 0.472274
vt 0.873115 0.472283
vt 0.873115 0.472283
vt 0.873114 0.472283
vt 0.873114 0.472274
vt 0.873114 0.472283
vt 0.873115 0.472283
vt 0.873115 0.472292
vt 0.873115 0.472292
vt 0.873114 0.472292
vt 0.873114 0.472283
vt 0.871663 0.472274
vt 0.871665 0.472274
vt 0.871665 0.472283
vt 0.871665 0.472283
vt 0.871663 0.472283
vt 0.871663 0.472274
vt 0.871663 0.472283
vt 0.871665 0.472283
vt 0.871665 0.472292
vt 0.871665 0.472292
vt 0.871663 0.472292
vt 0.871663 0.472283
vt 0.871665 0.472310
vt 0.871665 0.472319
vt 0.871663 0.472319
vt 0.871663 0.472319
vt 0.871663 0.472310
vt 0.871665 0.472310
vt 0.871665 0.472301
vt 0.871665 0.472310
vt 0.871663 0.472310
vt 0.871663 0.472310
vt 0.871663 0.472301
vt 0.871665 0.472301
vt 0.871673 0.472310
vt 0.871673 0.472319
vt 0.871671 0.472319
vt 0.871671 0.472319
vt 0.871671 0.472310
vt 0.871673 0.472310
vt 0.871673 0.472301
vt 0.871673 0.472310
vt 0.871671 0.472310
vt 0.871671 0.472310
vt 0.871671 0.472301
vt 0.871673 0.472301
vt 0.871671 0.472274
vt 0.871673 0.472274
vt 0.871673 0.472283
vt 0.871673 0.472283
vt 0.871671 0.472283
vt 0.871671 0.472274
vt 0.871671 0.472283
vt 0.871673 0.472283
vt 0.871673 0.472292
vt 0.871673 0.472292
vt 0.871671 0.472292
vt 0.871671 0.472283
f 1/1 2/2 3/3
f 3/4 4/5 1/6
f 5/7 6/8 7/9
f 7/10 8/11 5/12
f 9/13 10/14 11/15
f 11/16 12/17 9/18
f 13/19 14/20 15/21
f 15/22 16/23 13/24
f 17/25 18/26 19/27
f 19/28 20/29 17/30
f 21/31 22/32 23/33
f 23/34 24/35 21/36
f 25/37 26/38 27/39
f 27/40 28/41 25/42
f 29/43 30/44 31/45
f 31/46 32/47 29/48
f 33/49 34/50 35/51
f 35/52 36/53 33/54
f 37/55 38/56 39/57
f 39/58 40/59 37/60
f 41/61 42/62 43/63
f 43/64 44/65 41/66
f 45/67 46/68 47/69
f 47/70 48/71 45/72
f 49/73 50/74 51/75
f 51/76 52/77 49/78
f 53/79 54/80 55/81
f 55/82 56/83 53/84
f 57/85 58/86 59/87
f 59/88 60/89 57/90
f 61/91 62/92 63/93
f 63/94 64/95 61/96
f 65/97 66/98 67/99
f 67/100 68/101 65/102
f 69/103 70/104 71/105
f 71/106 72/107 69/108
f 73/109 74/110 75/111
f 75/112 76/113 73/114
f 77/115 78/116 79/117
f 79/118 80/119 77/120
f 81/121 82/122 83/123
f 83/124 84/125 81/126
f 85/127 86/128 87/129
f 87/130 88/131 85/132
f 89/133 57/134 60/135
f 60/136 90/137 89/138
f 91/139 89/140 90/141
f 90/142 92/143 91/144
f 93/145 61/146 64/147
f 64/148 94/149 93/150
f 95/151 93/152 94/153
f 94/154 96/155 95/156
f 97/157 65/158 68/159
f 68/160 98/161 97/162
f 99/163 97/164 98/165
f 98/166 100/167 99/168
f 101/169 69/170 72/171
f 72/172 102/173 101/174
f 103/175 101/176 102/177
f 102/178 104/179 103/180
f 105/181 73/182 76/183
f 76/184 106/185 105/186
f 107/187 108/188 105/189
f 105/190 106/191 107/192
f 109/193 78/194 77/195
f 77/196 110/197 109/198
f 111/199 109/200 110/201
f 110/202 112/203 111/204
f 113/205 82/206 81/207
f 81/208 114/209 113/210
f 115/211 113/212 114/213
f 114/214 116/215 115/216
f 117/217 85/218 88/219
f 88/220 118/221 117/222
f 119/223 120/224 117/225
f 117/226 118/227 119/228
f 121/229 1/230 4/231
f 4/232 122/233 121/234
f 58/235 3/236 2/237
f 2/238 59/239 58/240
f 62/241 5/242 8/243
f 8/244 63/245 62/246
f 123/247 7/248 6/249
f 6/250 124/251 123/252
f 66/253 13/254 16/255
f 16/256 67/257 66/258
f 125/259 15/260 14/261
f 14/262 126/263 125/264
f 127/265 17/266 20/267
f 20/268 128/269 127/270
f 70/271 19/272 18/273
f 18/274 71/275 70/276
f 74/277 25/278 28/279
f 28/280 75/281 74/282
f 129/283 27/284 26/285
f 26/286 130/287 129/288
f 131/289 33/290 36/291
f 36/292 132/293 131/294
f 80/295 79/296 35/297
f 35/298 34/299 80/300
f 133/301 37/302 40/303
f 40/304 134/305 133/306
f 84/307 83/308 39/309
f 39/310 38/311 84/312
f 86/313 41/314 44/315
f 44/316 87/317 86/318
f 135/319 43/320 42/321
f 42/322 136/323 135/324
f 137/325 121/326 122/327
f 122/328 138/329 137/330
f 139/331 123/332 124/333
f 124/334 140/335 139/336
f 141/337 125/338 126/339
f 126/340 142/341 141/342
f 143/343 127/344 128/345
f 128/346 144/347 143/348
f 145/349 129/350 130/351
f 130/352 146/353 145/354
f 147/355 131/356 132/357
f 132/358 148/359 147/360
f 149/361 133/362 134/363
f 134/364 150/365 149/366
f 151/367 135/368 136/369
f 136/370 152/371 151/372
f 153/373 154/374 155/375
f 155/376 156/377 153/378
f 157/379 158/380 159/381
f 159/382 160/383 157/384
f 161/385 162/386 163/387
f 163/388 164/389 161/390
f 165/391 166/392 167/393
f 167/394 168/395 165/396
f 169/397 170/398 171/399
f 171/400 172/401 169/402
f 173/403 174/404 175/405
f 175/406 176/407 173/408
f 177/409 178/410 179/411
f 179/412 180/413 177/414
f 181/415 182/416 183/417
f 183/418 184/419 181/420
f 185/421 186/422 187/423
f 187/424 188/425 185/426
f 189/427 190/428 191/429
f 191/430 192/431 189/432
f 193/433 194/434 195/435
f 195/436 196/437 193/438
f 197/439 198/440 199/441
f 199/442 200/443 197/444
f 146/445 201/446 202/447
f 202/448 145/449 146/450
f 148/451 203/452 204/453
f 204/454 147/455 148/456
f 152/457 205/458 206/459
f 206/460 151/461 152/462
f 150/463 207/464 208/465
f 208/466 149/467 150/468
f 209/469 210/470 211/471
f 211/472 212/473 209/474
f 213/475 214/476 215/477
f 215/478 216/479 213/480
f 217/481 218/482 219/483
f 219/484 220/485 217/486
f 221/487 222/488 223/489
f 223/490 224/491 221/492
f 225/493 226/494 227/495
f 227/496 228/497 225/498
f 229/499 230/500 231/501
f 231/502 232/503 229/504
f 233/505 234/506 235/507
f 235/508 236/509 233/510
f 237/511 238/512 239/513
f 239/514 240/515 237/516
f 241/517 209/518 212/519
f 212/520 242/521 241/522
f 214/523 243/524 244/525
f 244/526 215/527 214/528
f 245/529 241/530 242/531
f 242/532 246/533 245/534
f 243/535 247/536 248/537
f 248/538 244/539 243/540
f 249/541 217/542 220/543
f 220/544 250/545 249/546
f 222/547 251/548 252/549
f 252/550 223/551 222/552
f 253/553 249/554 250/555
f 250/556 254/557 253/558
f 251/559 255/560 256/561
f 256/562 252/563 251/564
f 257/565 225/566 228/567
f 228/568 258/569 257/570
f 230/571 259/572 260/573
f 260/574 231/575 230/576
f 261/577 257/578 258/579
f 258/580 262/581 261/582
f 259/583 263/584 264/585
f 264/586 260/587 259/588
f 265/589 233/590 236/591
f 236/592 266/593 265/594
f 238/595 267/596 268/597
f 268/598 239/599 238/600
f 269/601 265/602 266/603
f 266/604 270/605 269/606
f 267/607 271/608 272/609
f 272/610 268/611 267/612
f 273/613 153/614 156/615
f 156/616 274/617 273/618
f 158/619 275/620 276/621
f 276/622 159/623 158/624
f 210/625 157/626 160/627
f 160/628 211/629 210/630
f 154/631 213/632 216/633
f 216/634 155/635 154/636
f 218/637 161/638 164/639
f 164/640 219/641 218/642
f 166/643 221/644 224/645
f 224/646 167/647 166/648
f 277/649 165/650 168/651
f 168/652 278/653 277/654
f 162/655 279/656 280/657
f 280/658 163/659 162/660
f 226/661 177/662 180/663
f 180/664 227/665 226/666
f 182/667 229/668 232/669
f 232/670 183/671 182/672
f 281/673 181/674 184/675
f 184/676 282/677 281/678
f 178/679 283/680 284/681
f 284/682 179/683 178/684
f 285/685 185/686 188/687
f 188/688 286/689 285/690
f 190/691 287/692 288/693
f 288/694 191/695 190/696
f 234/697 189/698 192/699
f 192/700 235/701 234/702
f 186/703 237/704 240/705
f 240/706 187/707 186/708
f 289/709 273/710 274/711
f 274/712 290/713 289/714
f 275/715 291/716 292/717
f 292/718 276/719 275/720
f 293/721 277/722 278/723
f 278/724 294/725 293/726
f 279/727 295/728 296/729
f 296/730 280/731 279/732
f 297/733 281/734 282/735
f 282/736 298/737 297/738
f 283/739 299/740 300/741
f 300/742 284/743 283/744
f 301/745 285/746 286/747
f 286/748 302/749 301/750
f 287/751 303/752 304/753
f 304/754 288/755 287/756
f 156/757 155/758 2/759
f 2/760 1/761 156/762
f 160/763 159/764 4/765
f 4/766 3/767 160/768
f 164/769 163/770 6/771
f 6/772 5/773 164/774
f 168/775 167/776 8/777
f 8/778 7/779 168/780
f 170/781 9/782 12/783
f 12/784 171/785 170/786
f 174/787 11/788 10/789
f 10/790 175/791 174/792
f 180/793 179/794 14/795
f 14/796 13/797 180/798
f 184/799 183/800 16/801
f 16/802 15/803 184/804
f 188/805 187/806 18/807
f 18/808 17/809 188/810
f 192/811 191/812 20/813
f 20/814 19/815 192/816
f 194/817 21/818 24/819
f 24/820 195/821 194/822
f 198/823 23/824 22/825
f 22/826 199/827 198/828
f 201/829 29/830 32/831
f 32/832 202/833 201/834
f 203/835 31/836 30/837
f 30/838 204/839 203/840
f 205/841 45/842 48/843
f 48/844 206/845 205/846
f 207/847 47/848 46/849
f 46/850 208/851 207/852
f 212/853 211/854 58/855
f 58/856 57/857 212/858
f 216/859 215/860 60/861
f 60/862 59/863 216/864
f 220/865 219/866 62/867
f 62/868 61/869 220/870
f 224/871 223/872 64/873
f 64/874 63/875 224/876
f 228/877 227/878 66/879
f 66/880 65/881 228/882
f 232/883 231/884 68/885
f 68/886 67/887 232/888
f 236/889 235/890 70/891
f 70/892 69/893 236/894
f 240/895 239/896 72/897
f 72/898 71/899 240/900
f 242/901 212/902 57/903
f 57/904 89/905 242/906
f 215/907 244/908 90/909
f 90/910 60/911 215/912
f 246/913 242/914 89/915
f 89/916 91/917 246/918
f 244/919 248/920 92/921
f 92/922 90/923 244/924
f 250/925 220/926 61/927
f 61/928 93/929 250/930
f 223/931 252/932 94/933
f 94/934 64/935 223/936
f 254/937 250/938 93/939
f 93/940 95/941 254/942
f 252/943 256/944 96/945
f 96/946 94/947 252/948
f 258/949 228/950 65/951
f 65/952 97/953 258/954
f 231/955 260/956 98/957
f 98/958 68/959 231/960
f 262/961 258/962 97/963
f 97/964 99/965 262/966
f 260/967 264/968 100/969
f 100/970 98/971 260/972
f 266/973 236/974 69/975
f 69/976 101/977 266/978
f 239/979 268/980 102/981
f 102/982 72/983 239/984
f 270/985 266/986 101/987
f 101/988 103/989 270/990
f 268/991 272/992 104/993
f 104/994 102/995 268/996
f 274/997 156/998 1/999
f 1/1000 121/1001 274/1002
f 159/1003 276/1004 122/1005
f 122/1006 4/1007 159/1008
f 211/1009 160/1010 3/1011
f 3/1012 58/1013 211/1014
f 155/1015 216/1016 59/1017
f 59/1018 2/1019 155/1020
f 219/1021 164/1022 5/1023
f 5/1024 62/1025 219/1026
f 167/1027 224/1028 63/1029
f 63/1030 8/1031 167/1032
f 278/1033 168/1034 7/1035
f 7/1036 123/1037 278/1038
f 163/1039 280/1040 124/1041
f 124/1042 6/1043 163/1044
f 227/1045 180/1046 13/1047
f 13/1048 66/1049 227/1050
f 183/1051 232/1052 67/1053
f 67/1054 16/1055 183/1056
f 282/1057 184/1058 15/1059
f 15/1060 125/1061 282/1062
f 179/1063 284/1064 126/1065
f 126/1066 14/1067 179/1068
f 286/1069 188/1070 17/1071
f 17/1072 127/1073 286/1074
f 191/1075 288/1076 128/1077
f 128/1078 20/1079 191/1080
f 235/1081 192/1082 19/1083
f 19/1084 70/1085 235/1086
f 187/1087 240/1088 71/1089
f 71/1090 18/1091 187/1092
f 290/1093 274/1094 121/1095
f 121/1096 137/1097 290/1098
f 276/1099 292/1100 138/1101
f 138/1102 122/1103 276/1104
f 294/1105 278/1106 123/1107
f 123/1108 139/1109 294/1110
f 280/1111 296/1112 140/1113
f 140/1114 124/1115 280/1116
f 298/1117 282/1118 125/1119
f 125/1120 141/1121 298/1122
f 284/1123 300/1124 142/1125
f 142/1126 126/1127 284/1128
f 302/1129 286/1130 127/1131
f 127/1132 143/1133 302/1134
f 288/1135 304/1136 144/1137
f 144/1138 128/1139 288/1140
f 182/1141 181/1142 26/1143
f 26/1144 25/1145 182/1146
f 158/1147 157/1148 28/1149
f 28/1150 27/1151 158/1152
f 141/1153 142/1154 30/1155
f 30/1156 29/1157 141/1158
f 137/1159 138/1160 32/1161
f 32/1162 31/1163 137/1164
f 178/1165 177/1166 34/1167
f 34/1168 33/1169 178/1170
f 154/1171 153/1172 36/1173
f 36/1174 35/1175 154/1176
f 190/1177 189/1178 38/1179
f 38/1180 37/1181 190/1182
f 166/1183 165/1184 40/1185
f 40/1186 39/1187 166/1188
f 186/1189 185/1190 42/1191
f 42/1192 41/1193 186/1194
f 162/1195 161/1196 44/1197
f 44/1198 43/1199 162/1200
f 143/1201 144/1202 46/1203
f 46/1204 45/1205 143/1206
f 139/1207 140/1208 48/1209
f 48/1210 47/1211 139/1212
f 200/1213 49/1214 52/1215
f 52/1216 197/1217 200/1218
f 176/1219 51/1220 50/1221
f 50/1222 173/1223 176/1224
f 196/1225 53/1226 56/1227
f 56/1228 193/1229 196/1230
f 172/1231 55/1232 54/1233
f 54/1234 169/1235 172/1236
f 230/1237 229/1238 74/1239
f 74/1240 73/1241 230/1242
f 210/1243 209/1244 76/1245
f 76/1246 75/1247 210/1248
f 78/1249 214/1250 213/1251
f 213/1252 79/1253 78/1254
f 80/1255 226/1256 225/1257
f 225/1258 77/1259 80/1260
f 82/1261 222/1262 221/1263
f 221/1264 83/1265 82/1266
f 84/1267 234/1268 233/1269
f 233/1270 81/1271 84/1272
f 238/1273 237/1274 86/1275
f 86/1276 85/1277 238/1278
f 218/1279 217/1280 88/1281
f 88/1282 87/1283 218/1284
f 259/1285 230/1286 73/1287
f 73/1288 105/1289 259/1290
f 209/1291 241/1292 106/1293
f 106/1294 76/1295 209/1296
f 108/1297 263/1298 259/1299
f 259/1300 105/1301 108/1302
f 106/1303 241/1304 245/1305
f 245/1306 107/1307 106/1308
f 243/1309 214/1310 78/1311
f 78/1312 109/1313 243/1314
f 225/1315 257/1316 110/1317
f 110/1318 77/1319 225/1320
f 247/1321 243/1322 109/1323
f 109/1324 111/1325 247/1326
f 257/1327 261/1328 112/1329
f 112/1330 110/1331 257/1332
f 251/1333 222/1334 82/1335
f 82/1336 113/1337 251/1338
f 233/1339 265/1340 114/1341
f 114/1342 81/1343 233/1344
f 255/1345 251/1346 113/1347
f 113/1348 115/1349 255/1350
f 265/1351 269/1352 116/1353
f 116/1354 114/1355 265/1356
f 267/1357 238/1358 85/1359
f 85/1360 117/1361 267/1362
f 217/1363 249/1364 118/1365
f 118/1366 88/1367 217/1368
f 120/1369 271/1370 267/1371
f 267/1372 117/1373 120/1374
f 118/1375 249/1376 253/1377
f 253/1378 119/1379 118/1380
f 229/1381 182/1382 25/1383
f 25/1384 74/1385 229/1386
f 157/1387 210/1388 75/1389
f 75/1390 28/1391 157/1392
f 275/1393 158/1394 27/1395
f 27/1396 129/1397 275/1398
f 181/1399 281/1400 130/1401
f 130/1402 26/1403 181/1404
f 283/1405 178/1406 33/1407
f 33/1408 131/1409 283/1410
f 153/1411 273/1412 132/1413
f 132/1414 36/1415 153/1416
f 79/1417 213/1418 154/1419
f 154/1420 35/1421 79/1422
f 34/1423 177/1424 226/1425
f 226/1426 80/1427 34/1428
f 287/1429 190/1430 37/1431
f 37/1432 133/1433 287/1434
f 165/1435 277/1436 134/1437
f 134/1438 40/1439 165/1440
f 83/1441 221/1442 166/1443
f 166/1444 39/1445 83/1446
f 38/1447 189/1448 234/1449
f 234/1450 84/1451 38/1452
f 237/1453 186/1454 41/1455
f 41/1456 86/1457 237/1458
f 161/1459 218/1460 87/1461
f 87/1462 44/1463 161/1464
f 279/1465 162/1466 43/1467
f 43/1468 135/1469 279/1470
f 185/1471 285/1472 136/1473
f 136/1474 42/1475 185/1476
f 291/1477 275/1478 129/1479
f 129/1480 145/1481 291/1482
f 281/1483 297/1484 146/1485
f 146/1486 130/1487 281/1488
f 299/1489 283/1490 131/1491
f 131/1492 147/1493 299/1494
f 273/1495 289/1496 148/1497
f 148/1498 132/1499 273/1500
f 303/1501 287/1502 133/1503
f 133/1504 149/1505 303/1506
f 277/1507 293/1508 150/1509
f 150/1510 134/1511 277/1512
f 295/1513 279/1514 135/1515
f 135/1516 151/1517 295/1518
f 285/1519 301/1520 152/1521
f 152/1522 136/1523 285/1524
f 297/1525 298/1526 201/1527
f 201/1528 146/1529 297/1530
f 292/1531 291/1532 145/1533
f 145/1534 202/1535 292/1536
f 289/1537 290/1538 203/1539
f 203/1540 148/1541 289/1542
f 300/1543 299/1544 147/1545
f 147/1546 204/1547 300/1548
f 301/1549 302/1550 205/1551
f 205/1552 152/1553 301/1554
f 296/1555 295/1556 151/1557
f 151/1558 206/1559 296/1560
f 293/1561 294/1562 207/1563
f 207/1564 150/1565 293/1566
f 304/1567 303/1568 149/1569
f 149/1570 208/1571 304/1572
f 298/1573 141/1574 29/1575
f 29/1576 201/1577 298/1578
f 138/1579 292/1580 202/1581
f 202/1582 32/1583 138/1584
f 290/1585 137/1586 31/1587
f 31/1588 203/1589 290/1590
f 142/1591 300/1592 204/1593
f 204/1594 30/1595 142/1596
f 302/1597 143/1598 45/1599
f 45/1600 205/1601 302/1602
f 140/1603 296/1604 206/1605
f 206/1606 48/1607 140/1608
f 294/1609 139/1610 47/1611
f 47/1612 207/1613 294/1614
f 144/1615 304/1616 208/1617
f 208/1618 46/1619 144/1620
f 95/1621 96/1622 305/1623
f 305/1624 306/1625 95/1626
f 306/1627 305/1628 10/1629
f 10/1630 9/1631 306/1632
f 91/1633 92/1634 307/1635
f 307/1636 308/1637 91/1638
f 308/1639 307/1640 12/1641
f 12/1642 11/1643 308/1644
f 99/1645 100/1646 309/1647
f 309/1648 310/1649 99/1650
f 310/1651 309/1652 22/1653
f 22/1654 21/1655 310/1656
f 103/1657 104/1658 311/1659
f 311/1660 312/1661 103/1662
f 312/1663 311/1664 24/1665
f 24/1666 23/1667 312/1668
f 108/1669 107/1670 313/1671
f 313/1672 314/1673 108/1674
f 314/1675 313/1676 50/1677
f 50/1678 49/1679 314/1680
f 315/1681 115/1682 116/1683
f 116/1684 316/1685 315/1686
f 51/1687 315/1688 316/1689
f 316/1690 52/1691 51/1692
f 120/1693 119/1694 317/1695
f 317/1696 318/1697 120/1698
f 318/1699 317/1700 54/1701
f 54/1702 53/1703 318/1704
f 319/1705 111/1706 112/1707
f 112/1708 320/1709 319/1710
f 55/1711 319/1712 320/1713
f 320/1714 56/1715 55/1716
f 253/1717 254/1718 321/1719
f 321/1720 322/1721 253/1722
f 322/1723 321/1724 170/1725
f 170/1726 169/1727 322/1728
f 248/1729 247/1730 323/1731
f 323/1732 324/1733 248/1734
f 324/1735 323/1736 172/1737
f 172/1738 171/1739 324/1740
f 245/1741 246/1742 325/1743
f 325/1744 326/1745 245/1746
f 326/1747 325/1748 174/1749
f 174/1750 173/1751 326/1752
f 256/1753 255/1754 327/1755
f 327/1756 328/1757 256/1758
f 328/1759 327/1760 176/1761
f 176/1762 175/1763 328/1764
f 261/1765 262/1766 329/1767
f 329/1768 330/1769 261/1770
f 330/1771 329/1772 194/1773
f 194/1774 193/1775 330/1776
f 272/1777 271/1778 331/1779
f 331/1780 332/1781 272/1782
f 332/1783 331/1784 196/1785
f 196/1786 195/1787 332/1788
f 269/1789 270/1790 333/1791
f 333/1792 334/1793 269/1794
f 334/1795 333/1796 198/1797
f 198/1798 197/1799 334/1800
f 264/1801 263/1802 335/1803
f 335/1804 336/1805 264/1806
f 336/1807 335/1808 200/1809
f 200/1810 199/1811 336/1812
f 254/1813 95/1814 306/1815
f 306/1816 321/1817 254/1818
f 321/1819 306/1820 9/1821
f 9/1822 170/1823 321/1824
f 92/1825 248/1826 324/1827
f 324/1828 307/1829 92/1830
f 307/1831 324/1832 171/1833
f 171/1834 12/1835 307/1836
f 246/1837 91/1838 308/1839
f 308/1840 325/1841 246/1842
f 325/1843 308/1844 11/1845
f 11/1846 174/1847 325/1848
f 96/1849 256/1850 328/1851
f 328/1852 305/1853 96/1854
f 305/1855 328/1856 175/1857
f 175/1858 10/1859 305/1860
f 262/1861 99/1862 310/1863
f 310/1864 329/1865 262/1866
f 329/1867 310/1868 21/1869
f 21/1870 194/1871 329/1872
f 104/1873 272/1874 332/1875
f 332/1876 311/1877 104/1878
f 311/1879 332/1880 195/1881
f 195/1882 24/1883 311/1884
f 270/1885 103/1886 312/1887
f 312/1888 333/1889 270/1890
f 333/1891 312/1892 23/1893
f 23/1894 198/1895 333/1896
f 100/1897 264/1898 336/1899
f 336/1900 309/1901 100/1902
f 309/1903 336/1904 199/1905
f 199/1906 22/1907 309/1908
f 263/1909 108/1910 314/1911
f 314/1912 335/1913 263/1914
f 335/1915 314/1916 49/1917
f 49/1918 200/1919 335/1920
f 316/1921 116/1922 269/1923
f 269/1924 334/1925 316/1926
f 52/1927 316/1928 334/1929
f 334/1930 197/1931 52/1932
f 327/1933 255/1934 115/1935
f 115/1936 315/1937 327/1938
f 176/1939 327/1940 315/1941
f 315/1942 51/1943 176/1944
f 107/1945 245/1946 326/1947
f 326/1948 313/1949 107/1950
f 313/1951 326/1952 173/1953
f 173/1954 50/1955 313/1956
f 271/1957 120/1958 318/1959
f 318/1960 331/1961 271/1962
f 331/1963 318/1964 53/1965
f 53/1966 196/1967 331/1968
f 320/1969 112/1970 261/1971
f 261/1972 330/1973 320/1974
f 56/1975 320/1976 330/1977
f 330/1978 193/1979 56/1980
f 323/1981 247/1982 111/1983
f 111/1984 319/1985 323/1986
f 172/1987 323/1988 319/1989
f 319/1990 55/1991 172/1992
f 119/1993 253/1994 322/1995
f 322/1996 317/1997 119/1998
f 317/1999 322/2000 169/2001
f 169/2002 54/2003 317/2004
