# USD → MuJoCo (world-space)
v 0.112464 -0.085744 -0.018784
v 0.112464 0.085010 -0.018784
v 0.112464 0.085010 -0.009404
v 0.112464 -0.085744 -0.009404
v -0.112269 -0.085744 -0.009404
v -0.112269 0.085010 -0.009404
v -0.112269 0.085010 -0.018784
v -0.112269 -0.085744 -0.018784
v 0.110144 0.086214 -0.018784
v -0.109949 0.086214 -0.018784
v -0.109949 0.086214 -0.009404
v 0.110144 0.086214 -0.009404
v 0.112464 0.086214 -0.009404
v 0.112464 0.085719 -0.009404
v 0.112464 0.085720 -0.018784
v 0.112464 0.086214 -0.018784
v -0.112269 0.086214 -0.018784
v -0.112269 0.085720 -0.018784
v -0.112269 0.085720 -0.009404
v -0.112269 0.086214 -0.009404
v 0.112002 0.086214 -0.018784
v 0.112002 0.086214 -0.009404
v -0.111807 0.086214 -0.009404
v -0.111807 0.086214 -0.018784
v 0.112464 0.085010 -0.000023
v 0.112464 -0.084819 -0.000023
v 0.112464 -0.084819 -0.028165
v 0.112464 0.085010 -0.028165
v -0.112268 0.085010 -0.028165
v -0.112269 -0.084819 -0.028165
v -0.112268 -0.084819 -0.000023
v -0.112268 0.085010 -0.000023
v -0.109949 0.086214 -0.000023
v 0.110144 0.086214 -0.000023
v 0.110144 0.086214 -0.028165
v -0.109949 0.086214 -0.028165
v 0.112464 0.085720 -0.028165
v 0.112464 0.086214 -0.028165
v 0.112464 0.086214 -0.000023
v 0.112464 0.085720 -0.000023
v -0.112269 0.085720 -0.000023
v -0.112269 0.086214 -0.000023
v -0.112268 0.086214 -0.028165
v -0.112268 0.085720 -0.028165
v 0.112002 0.086214 -0.000023
v 0.112002 0.086214 -0.028165
v -0.111806 0.086214 -0.028165
v -0.111807 0.086214 -0.000023
vt 0.000500 0.134871
vt 0.705805 0.134871
vt 0.705805 0.168228
vt 0.705805 0.168228
vt 0.000500 0.168228
vt 0.000500 0.134871
vt 0.000500 0.235885
vt 0.705805 0.235885
vt 0.705805 0.269242
vt 0.705805 0.269242
vt 0.000500 0.269242
vt 0.000500 0.235885
vt 0.010812 0.033857
vt 0.989189 0.033857
vt 0.989189 0.067214
vt 0.989189 0.067214
vt 0.010811 0.067214
vt 0.010812 0.033857
vt 0.710804 0.168228
vt 0.708750 0.168228
vt 0.708750 0.134871
vt 0.708750 0.134871
vt 0.710804 0.134871
vt 0.710804 0.168228
vt 0.710804 0.269242
vt 0.708750 0.269242
vt 0.708750 0.235885
vt 0.708750 0.235885
vt 0.710804 0.235885
vt 0.710804 0.269242
vt 0.000500 0.033857
vt 0.002554 0.033857
vt 0.002554 0.067214
vt 0.002554 0.067214
vt 0.000500 0.067214
vt 0.000500 0.033857
vt 0.999500 0.067214
vt 0.997446 0.067214
vt 0.997446 0.033857
vt 0.997446 0.033857
vt 0.999500 0.033857
vt 0.999500 0.067214
vt 0.989189 0.033857
vt 0.997446 0.033857
vt 0.997446 0.067214
vt 0.997446 0.067214
vt 0.989189 0.067214
vt 0.989189 0.033857
vt 0.010811 0.067214
vt 0.002554 0.067214
vt 0.002554 0.033857
vt 0.002554 0.033857
vt 0.010812 0.033857
vt 0.010811 0.067214
vt 0.705805 0.134871
vt 0.708750 0.134871
vt 0.708750 0.168228
vt 0.708750 0.168228
vt 0.705805 0.168228
vt 0.705805 0.134871
vt 0.705805 0.235885
vt 0.708750 0.235885
vt 0.708750 0.269242
vt 0.708750 0.269242
vt 0.705805 0.269242
vt 0.705805 0.235885
vt 0.000500 0.168228
vt 0.705805 0.168228
vt 0.705805 0.201585
vt 0.705805 0.201585
vt 0.000500 0.201585
vt 0.000500 0.168228
vt 0.705805 0.134871
vt 0.000500 0.134871
vt 0.000500 0.101514
vt 0.000500 0.101514
vt 0.705805 0.101514
vt 0.705805 0.134871
vt 0.000500 0.269242
vt 0.705805 0.269242
vt 0.705805 0.302599
vt 0.705805 0.302599
vt 0.000500 0.302599
vt 0.000500 0.269242
vt 0.705805 0.235885
vt 0.000500 0.235885
vt 0.000500 0.202528
vt 0.000500 0.202528
vt 0.705805 0.202528
vt 0.705805 0.235885
vt 0.010811 0.067214
vt 0.989189 0.067214
vt 0.989189 0.100571
vt 0.989189 0.100571
vt 0.010811 0.100571
vt 0.010811 0.067214
vt 0.989189 0.033857
vt 0.010812 0.033857
vt 0.010812 0.000500
vt 0.010812 0.000500
vt 0.989189 0.000500
vt 0.989189 0.033857
vt 0.710804 0.134871
vt 0.708750 0.134871
vt 0.708750 0.101514
vt 0.708750 0.101514
vt 0.710804 0.101514
vt 0.710804 0.134871
vt 0.708750 0.168228
vt 0.710804 0.168228
vt 0.710804 0.201585
vt 0.710804 0.201585
vt 0.708750 0.201585
vt 0.708750 0.168228
vt 0.710804 0.235885
vt 0.708750 0.235885
vt 0.708750 0.202528
vt 0.708750 0.202528
vt 0.710804 0.202528
vt 0.710804 0.235885
vt 0.708750 0.269242
vt 0.710804 0.269242
vt 0.710804 0.302599
vt 0.710804 0.302599
vt 0.708750 0.302599
vt 0.708750 0.269242
vt 0.000500 0.067214
vt 0.002554 0.067214
vt 0.002554 0.100571
vt 0.002554 0.100571
vt 0.000500 0.100571
vt 0.000500 0.067214
vt 0.002554 0.033857
vt 0.000500 0.033857
vt 0.000500 0.000500
vt 0.000500 0.000500
vt 0.002554 0.000500
vt 0.002554 0.033857
vt 0.999500 0.033857
vt 0.997446 0.033857
vt 0.997446 0.000500
vt 0.997446 0.000500
vt 0.999500 0.000500
vt 0.999500 0.033857
vt 0.997446 0.067214
vt 0.999500 0.067214
vt 0.999500 0.100571
vt 0.999500 0.100571
vt 0.997446 0.100571
vt 0.997446 0.067214
vt 0.989189 0.067214
vt 0.997446 0.067214
vt 0.997446 0.100571
vt 0.997446 0.100571
vt 0.989189 0.100571
vt 0.989189 0.067214
vt 0.997446 0.033857
vt 0.989189 0.033857
vt 0.989189 0.000500
vt 0.989189 0.000500
vt 0.997446 0.000500
vt 0.997446 0.033857
vt 0.010812 0.033857
vt 0.002554 0.033857
vt 0.002554 0.000500
vt 0.002554 0.000500
vt 0.010812 0.000500
vt 0.010812 0.033857
vt 0.002554 0.067214
vt 0.010811 0.067214
vt 0.010811 0.100571
vt 0.010811 0.100571
vt 0.002554 0.100571
vt 0.002554 0.067214
vt 0.705805 0.168228
vt 0.708750 0.168228
vt 0.708750 0.201585
vt 0.708750 0.201585
vt 0.705805 0.201585
vt 0.705805 0.168228
vt 0.708750 0.134871
vt 0.705805 0.134871
vt 0.705805 0.101514
vt 0.705805 0.101514
vt 0.708750 0.101514
vt 0.708750 0.134871
vt 0.705805 0.269242
vt 0.708750 0.269242
vt 0.708750 0.302599
vt 0.708750 0.302599
vt 0.705805 0.302599
vt 0.705805 0.269242
vt 0.708750 0.235885
vt 0.705805 0.235885
vt 0.705805 0.202528
vt 0.705805 0.202528
vt 0.708750 0.202528
vt 0.708750 0.235885
f 1/1 2/2 3/3
f 3/4 4/5 1/6
f 5/7 6/8 7/9
f 7/10 8/11 5/12
f 9/13 10/14 11/15
f 11/16 12/17 9/18
f 13/19 14/20 15/21
f 15/22 16/23 13/24
f 17/25 18/26 19/27
f 19/28 20/29 17/30
f 16/31 21/32 22/33
f 22/34 13/35 16/36
f 20/37 23/38 24/39
f 24/40 17/41 20/42
f 10/43 24/44 23/45
f 23/46 11/47 10/48
f 12/49 22/50 21/51
f 21/52 9/53 12/54
f 2/55 15/56 14/57
f 14/58 3/59 2/60
f 6/61 19/62 18/63
f 18/64 7/65 6/66
f 4/67 3/68 25/69
f 25/70 26/71 4/72
f 2/73 1/74 27/75
f 27/76 28/77 2/78
f 8/79 7/80 29/81
f 29/82 30/83 8/84
f 6/85 5/86 31/87
f 31/88 32/89 6/90
f 12/91 11/92 33/93
f 33/94 34/95 12/96
f 10/97 9/98 35/99
f 35/100 36/101 10/102
f 16/103 15/104 37/105
f 37/106 38/107 16/108
f 14/109 13/110 39/111
f 39/112 40/113 14/114
f 20/115 19/116 41/117
f 41/118 42/119 20/120
f 18/121 17/122 43/123
f 43/124 44/125 18/126
f 13/127 22/128 45/129
f 45/130 39/131 13/132
f 21/133 16/134 38/135
f 38/136 46/137 21/138
f 17/139 24/140 47/141
f 47/142 43/143 17/144
f 23/145 20/146 42/147
f 42/148 48/149 23/150
f 11/151 23/152 48/153
f 48/154 33/155 11/156
f 24/157 10/158 36/159
f 36/160 47/161 24/162
f 9/163 21/164 46/165
f 46/166 35/167 9/168
f 22/169 12/170 34/171
f 34/172 45/173 22/174
f 3/175 14/176 40/177
f 40/178 25/179 3/180
f 15/181 2/182 28/183
f 28/184 37/185 15/186
f 7/187 18/188 44/189
f 44/190 29/191 7/192
f 19/193 6/194 32/195
f 32/196 41/197 19/198
