# USD → MuJoCo (world-space)
v -0.106866 0.080021 0.106462
v -0.070417 0.080021 0.106461
v -0.070417 0.080021 -0.108181
v -0.106867 0.080021 -0.108181
v -0.106867 -0.072972 0.106462
v -0.106867 -0.072972 -0.108181
v -0.070417 -0.072972 0.106461
v -0.070417 -0.072972 -0.108181
v -0.062519 0.080021 0.106461
v -0.026070 0.080021 0.106461
v -0.026070 0.080021 -0.108181
v -0.062519 0.080021 -0.108181
v -0.062519 -0.072972 0.106461
v -0.062520 -0.072972 -0.108181
v -0.026070 -0.072972 0.106461
v -0.026070 -0.072972 -0.108181
vt 0.000000 0.000000
vt 0.000000 0.000000
vt 0.000000 0.000000
vt 0.000000 0.000000
vt 0.000000 0.000000
vt 0.000000 0.000000
vt 0.000000 0.000000
vt 0.000000 0.000000
vt 0.000000 0.000000
vt 0.000000 0.000000
vt 0.000000 0.000000
vt 0.000000 0.000000
vt 0.000000 0.000000
vt 0.000000 0.000000
vt 0.000000 0.000000
vt 0.000000 0.000000
vt 0.000000 0.000000
vt 0.000000 0.000000
vt 0.000000 0.000000
vt 0.000000 0.000000
vt 0.000000 0.000000
vt 0.000000 0.000000
vt 0.000000 0.000000
vt 0.000000 0.000000
vt 0.000000 0.000000
vt 0.000000 0.000000
vt 0.000000 0.000000
vt 0.000000 0.000000
vt 0.000000 0.000000
vt 0.000000 0.000000
vt 0.000000 0.000000
vt 0.000000 0.000000
vt 0.000000 0.000000
vt 0.000000 0.000000
vt 0.000000 0.000000
vt 0.000000 0.000000
vt 0.000000 0.000000
vt 0.000000 0.000000
vt 0.000000 0.000000
vt 0.000000 0.000000
vt 0.000000 0.000000
vt 0.000000 0.000000
vt 0.000000 0.000000
vt 0.000000 0.000000
vt 0.000000 0.000000
vt 0.000000 0.000000
vt 0.000000 0.000000
vt 0.000000 0.000000
vt 0.000000 0.000000
vt 0.000000 0.000000
vt 0.000000 0.000000
vt 0.000000 0.000000
vt 0.000000 0.000000
vt 0.000000 0.000000
vt 0.000000 0.000000
vt 0.000000 0.000000
vt 0.000000 0.000000
vt 0.000000 0.000000
vt 0.000000 0.000000
vt 0.000000 0.000000
vt 0.000000 0.000000
vt 0.000000 0.000000
vt 0.000000 0.000000
vt 0.000000 0.000000
vt 0.000000 0.000000
vt 0.000000 0.000000
vt 0.000000 0.000000
vt 0.000000 0.000000
vt 0.000000 0.000000
vt 0.000000 0.000000
vt 0.000000 0.000000
vt 0.000000 0.000000
f 1/1 2/2 3/3
f 3/4 4/5 1/6
f 5/7 1/8 4/9
f 4/10 6/11 5/12
f 7/13 5/14 6/15
f 6/16 8/17 7/18
f 2/19 7/20 8/21
f 8/22 3/23 2/24
f 9/25 10/26 11/27
f 11/28 12/29 9/30
f 13/31 9/32 12/33
f 12/34 14/35 13/36
f 15/37 13/38 14/39
f 14/40 16/41 15/42
f 10/43 15/44 16/45
f 16/46 11/47 10/48
f 6/49 4/50 3/51
f 3/52 8/53 6/54
f 14/55 12/56 11/57
f 11/58 16/59 14/60
f 2/61 1/62 5/63
f 5/64 7/65 2/66
f 10/67 9/68 13/69
f 13/70 15/71 10/72
