# USD → MuJoCo (world-space)
v -0.106298 -0.053185 -0.101960
v -0.106298 0.044801 -0.101961
v -0.096334 -0.053430 -0.103105
v -0.096334 0.044801 -0.103106
v -0.087690 0.044801 0.043559
v -0.087690 -0.053185 0.043560
v -0.077726 0.044801 0.042414
v -0.077726 -0.053430 0.042415
v -0.117290 0.044801 -0.100697
v -0.117290 -0.052483 -0.100697
v -0.098682 0.044801 0.044823
v -0.098682 -0.052483 0.044823
v -0.095306 -0.052483 -0.103223
v -0.095306 0.044801 -0.103224
v -0.076698 -0.052483 0.042296
v -0.076698 0.044801 0.042296
v -0.116262 -0.053430 -0.100815
v -0.116262 0.044801 -0.100816
v -0.097654 0.044801 0.044704
v -0.097654 -0.053430 0.044705
vt 0.348021 0.311694
vt 0.348021 0.311694
vt 0.341032 0.311694
vt 0.341032 0.311694
vt 0.341032 0.311694
vt 0.348021 0.311694
vt 0.349883 0.444014
vt 0.349883 0.444014
vt 0.342893 0.444014
vt 0.342893 0.444014
vt 0.342893 0.444014
vt 0.349883 0.444014
vt 0.349883 0.444014
vt 0.348021 0.311694
vt 0.342893 0.444014
vt 0.341032 0.311694
vt 0.342893 0.444014
vt 0.348021 0.311694
vt 0.355732 0.311694
vt 0.355732 0.311694
vt 0.357594 0.444014
vt 0.357594 0.444014
vt 0.357594 0.444014
vt 0.355732 0.311694
vt 0.340310 0.311694
vt 0.340310 0.311694
vt 0.342172 0.444014
vt 0.342172 0.444014
vt 0.342172 0.444014
vt 0.340310 0.311694
vt 0.355732 0.311694
vt 0.355732 0.311694
vt 0.355011 0.311694
vt 0.355011 0.311694
vt 0.355011 0.311694
vt 0.355732 0.311694
vt 0.355011 0.311694
vt 0.355011 0.311694
vt 0.348021 0.311694
vt 0.348021 0.311694
vt 0.348021 0.311694
vt 0.355011 0.311694
vt 0.340310 0.311694
vt 0.340310 0.311694
vt 0.341032 0.311694
vt 0.341032 0.311694
vt 0.341032 0.311694
vt 0.340310 0.311694
vt 0.357594 0.444014
vt 0.357594 0.444014
vt 0.356872 0.444014
vt 0.356872 0.444014
vt 0.356872 0.444014
vt 0.357594 0.444014
vt 0.356872 0.444014
vt 0.356872 0.444014
vt 0.349883 0.444014
vt 0.349883 0.444014
vt 0.349883 0.444014
vt 0.356872 0.444014
vt 0.342172 0.444014
vt 0.342172 0.444014
vt 0.342893 0.444014
vt 0.342893 0.444014
vt 0.342893 0.444014
vt 0.342172 0.444014
vt 0.357594 0.444014
vt 0.355732 0.311694
vt 0.356872 0.444014
vt 0.355011 0.311694
vt 0.356872 0.444014
vt 0.355732 0.311694
vt 0.356872 0.444014
vt 0.355011 0.311694
vt 0.349883 0.444014
vt 0.348021 0.311694
vt 0.349883 0.444014
vt 0.355011 0.311694
vt 0.340310 0.311694
vt 0.342172 0.444014
vt 0.341032 0.311694
vt 0.342893 0.444014
vt 0.341032 0.311694
vt 0.342172 0.444014
f 1/1 2/2 3/3
f 4/4 3/5 2/6
f 5/7 6/8 7/9
f 8/10 7/11 6/12
f 6/13 1/14 8/15
f 3/16 8/17 1/18
f 9/19 10/20 11/21
f 12/22 11/23 10/24
f 13/25 14/26 15/27
f 16/28 15/29 14/30
f 10/31 9/32 17/33
f 18/34 17/35 9/36
f 17/37 18/38 1/39
f 2/40 1/41 18/42
f 14/43 13/44 4/45
f 3/46 4/47 13/48
f 11/49 12/50 19/51
f 20/52 19/53 12/54
f 19/55 20/56 5/57
f 6/58 5/59 20/60
f 15/61 16/62 8/63
f 7/64 8/65 16/66
f 12/67 10/68 20/69
f 17/70 20/71 10/72
f 20/73 17/74 6/75
f 1/76 6/77 17/78
f 13/79 15/80 3/81
f 8/82 3/83 15/84
