# USD → MuJoCo (world-space)
v -0.014183 -0.058432 0.120125
v -0.012609 -0.059738 0.120125
v -0.011950 0.126979 0.120125
v -0.011950 0.127205 0.120125
v -0.012608 -0.064336 0.120125
v -0.013747 -0.063151 0.120125
v -0.015565 -0.064507 0.120124
v -0.014533 -0.065579 0.120125
v -0.016054 -0.067192 0.120125
v -0.015003 -0.067639 0.120125
v -0.014462 -0.070073 0.120124
v -0.015441 -0.070109 0.120125
v -0.014390 -0.072383 0.120125
v -0.013536 -0.072612 0.120125
v -0.014746 -0.074205 0.120125
v -0.013876 -0.075412 0.120125
v -0.017761 -0.077483 0.120125
v -0.017185 -0.078720 0.120125
v -0.022470 -0.079397 0.120125
v -0.022058 -0.080643 0.120124
v -0.027530 -0.080564 0.120125
v -0.027327 -0.081807 0.120125
v -0.032872 -0.080787 0.120125
v -0.032872 -0.082024 0.120125
v -0.011765 -0.060453 0.119887
v -0.011765 -0.060712 0.119173
v -0.011950 0.125631 0.119173
v -0.011950 0.126569 0.119887
v -0.013674 -0.066493 0.119173
v -0.011765 -0.065307 0.119173
v -0.011765 -0.065062 0.119887
v -0.013889 -0.066262 0.119887
v -0.014346 -0.067930 0.119887
v -0.013793 -0.069982 0.119887
v -0.013570 -0.069954 0.119173
v -0.014127 -0.068029 0.119173
v -0.012616 -0.072697 0.119173
v -0.012846 -0.072674 0.119887
v -0.013098 -0.076583 0.119173
v -0.013293 -0.076289 0.119887
v -0.016706 -0.079677 0.119173
v -0.016826 -0.079299 0.119887
v -0.021715 -0.081602 0.119173
v -0.021801 -0.081225 0.119887
v -0.027159 -0.082762 0.119173
v -0.027201 -0.082386 0.119887
v -0.032872 -0.082973 0.119173
v -0.032872 -0.082600 0.119887
v -0.014941 -0.057593 0.119173
v -0.014728 -0.057796 0.119887
v -0.014980 0.127004 0.119887
v -0.015213 0.126131 0.119173
v -0.014935 -0.062106 0.119173
v -0.016424 -0.063634 0.119173
v -0.016209 -0.063851 0.119887
v -0.014723 -0.062335 0.119887
v -0.016930 -0.066838 0.119173
v -0.016711 -0.066925 0.119887
v -0.016182 -0.070287 0.119173
v -0.015146 -0.072344 0.119173
v -0.014916 -0.072356 0.119887
v -0.015959 -0.070249 0.119887
v -0.015158 -0.073589 0.119173
v -0.014963 -0.073872 0.119887
v -0.018125 -0.076399 0.119173
v -0.018005 -0.076770 0.119887
v -0.022752 -0.078255 0.119173
v -0.022666 -0.078628 0.119887
v -0.027699 -0.079479 0.119173
v -0.027656 -0.079852 0.119887
v -0.032872 -0.079705 0.119173
v -0.032872 -0.080077 0.119887
v -0.012608 -0.062117 0.120125
v -0.014182 -0.060797 0.120125
v -0.011765 -0.063086 0.119173
v -0.011765 -0.062836 0.119887
v -0.014725 -0.060150 0.119887
v -0.014937 -0.059934 0.119173
v -0.015211 0.119444 0.114103
v -0.014941 -0.057677 0.114103
v -0.016424 -0.063634 0.114103
v -0.014935 -0.062106 0.114103
v -0.016930 -0.066838 0.114103
v -0.015146 -0.072344 0.114103
v -0.016182 -0.070287 0.114103
v -0.015158 -0.073589 0.114103
v -0.018125 -0.076399 0.114103
v -0.022752 -0.078255 0.114103
v -0.027699 -0.079479 0.114103
v -0.032872 -0.079705 0.114103
v -0.014937 -0.059934 0.114103
v -0.011950 0.126979 -0.133668
v -0.012609 -0.059738 -0.133668
v -0.014183 -0.058432 -0.133668
v -0.011950 0.127205 -0.133668
v -0.012608 -0.064336 -0.133668
v -0.014533 -0.065579 -0.133668
v -0.015565 -0.064507 -0.133668
v -0.013747 -0.063151 -0.133668
v -0.016054 -0.067192 -0.133668
v -0.015003 -0.067639 -0.133668
v -0.014462 -0.070074 -0.133668
v -0.013536 -0.072612 -0.133668
v -0.014390 -0.072383 -0.133668
v -0.015441 -0.070109 -0.133668
v -0.013876 -0.075412 -0.133668
v -0.014746 -0.074205 -0.133668
v -0.017185 -0.078720 -0.133668
v -0.017761 -0.077483 -0.133668
v -0.022058 -0.080643 -0.133668
v -0.022470 -0.079397 -0.133668
v -0.027327 -0.081807 -0.133668
v -0.027530 -0.080564 -0.133668
v -0.032872 -0.082024 -0.133668
v -0.032872 -0.080787 -0.133668
v -0.011950 0.125631 -0.132717
v -0.011765 -0.060712 -0.132717
v -0.011765 -0.060453 -0.133430
v -0.011950 0.126569 -0.133430
v -0.013674 -0.066493 -0.132717
v -0.013889 -0.066262 -0.133430
v -0.011765 -0.065062 -0.133430
v -0.011765 -0.065307 -0.132717
v -0.014346 -0.067930 -0.133430
v -0.014127 -0.068029 -0.132717
v -0.013570 -0.069954 -0.132717
v -0.013793 -0.069982 -0.133430
v -0.012616 -0.072697 -0.132717
v -0.012846 -0.072674 -0.133430
v -0.013098 -0.076583 -0.132717
v -0.013293 -0.076289 -0.133430
v -0.016706 -0.079677 -0.132717
v -0.016826 -0.079298 -0.133430
v -0.021715 -0.081602 -0.132717
v -0.021801 -0.081224 -0.133430
v -0.027159 -0.082762 -0.132717
v -0.027201 -0.082386 -0.133430
v -0.032872 -0.082973 -0.132717
v -0.032872 -0.082600 -0.133430
v -0.014728 -0.057796 -0.133430
v -0.014941 -0.057593 -0.132717
v -0.015213 0.126131 -0.132717
v -0.014980 0.127004 -0.133430
v -0.014935 -0.062106 -0.132717
v -0.014723 -0.062335 -0.133430
v -0.016209 -0.063851 -0.133430
v -0.016424 -0.063634 -0.132717
v -0.016930 -0.066838 -0.132717
v -0.016711 -0.066925 -0.133430
v -0.016182 -0.070287 -0.132717
v -0.015959 -0.070249 -0.133430
v -0.014916 -0.072356 -0.133430
v -0.015146 -0.072344 -0.132717
v -0.014963 -0.073872 -0.133430
v -0.015158 -0.073589 -0.132717
v -0.018005 -0.076770 -0.133430
v -0.018125 -0.076399 -0.132717
v -0.022666 -0.078628 -0.133430
v -0.022752 -0.078255 -0.132717
v -0.027656 -0.079852 -0.133430
v -0.027699 -0.079479 -0.132717
v -0.032872 -0.080077 -0.133430
v -0.032872 -0.079705 -0.132717
v -0.014182 -0.060797 -0.133668
v -0.012608 -0.062117 -0.133668
v -0.011765 -0.062836 -0.133430
v -0.011765 -0.063086 -0.132717
v -0.014937 -0.059934 -0.132717
v -0.014725 -0.060150 -0.133430
v -0.015211 0.119444 -0.127646
v -0.014941 -0.057677 -0.127646
v -0.016424 -0.063634 -0.127646
v -0.014935 -0.062106 -0.127646
v -0.016930 -0.066838 -0.127646
v -0.015146 -0.072344 -0.127646
v -0.016182 -0.070287 -0.127646
v -0.015158 -0.073589 -0.127646
v -0.018125 -0.076399 -0.127646
v -0.022752 -0.078255 -0.127646
v -0.027699 -0.079479 -0.127646
v -0.032872 -0.079705 -0.127646
v -0.014937 -0.059934 -0.127646
v -0.011950 0.128005 -0.132717
v -0.011950 0.128952 -0.133430
v -0.011950 0.128952 0.119887
v -0.011950 0.128005 0.119173
v -0.011950 0.129358 -0.133668
v -0.011950 0.129358 0.120125
v -0.011950 0.129571 0.120125
v -0.011950 0.129571 -0.133668
v -0.015216 0.128471 0.119173
v -0.014983 0.129359 0.119887
v -0.014983 0.129359 -0.133430
v -0.015216 0.128471 -0.132717
v -0.015214 0.121701 0.114103
v -0.015214 0.121701 -0.127646
v -0.051561 -0.058432 0.120125
v -0.053795 0.127205 0.120125
v -0.053795 0.126979 0.120125
v -0.053135 -0.059738 0.120125
v -0.053137 -0.064336 0.120125
v -0.051211 -0.065579 0.120125
v -0.050180 -0.064507 0.120124
v -0.051998 -0.063151 0.120125
v -0.049690 -0.067192 0.120125
v -0.050742 -0.067639 0.120125
v -0.051282 -0.070073 0.120125
v -0.052208 -0.072612 0.120125
v -0.051354 -0.072383 0.120125
v -0.050304 -0.070109 0.120125
v -0.051868 -0.075412 0.120125
v -0.050998 -0.074205 0.120125
v -0.048559 -0.078720 0.120125
v -0.047984 -0.077483 0.120125
v -0.043687 -0.080643 0.120124
v -0.043275 -0.079397 0.120125
v -0.038417 -0.081807 0.120125
v -0.038215 -0.080564 0.120125
v -0.053979 -0.060453 0.119887
v -0.053795 0.126569 0.119887
v -0.053795 0.125631 0.119173
v -0.053979 -0.060712 0.119173
v -0.052070 -0.066493 0.119173
v -0.051855 -0.066262 0.119887
v -0.053979 -0.065062 0.119887
v -0.053979 -0.065307 0.119173
v -0.051398 -0.067930 0.119887
v -0.051617 -0.068029 0.119173
v -0.052175 -0.069954 0.119173
v -0.051952 -0.069982 0.119887
v -0.053128 -0.072697 0.119173
v -0.052898 -0.072674 0.119887
v -0.052646 -0.076583 0.119173
v -0.052452 -0.076289 0.119887
v -0.049039 -0.079677 0.119173
v -0.048919 -0.079298 0.119887
v -0.044030 -0.081602 0.119173
v -0.043944 -0.081225 0.119887
v -0.038586 -0.082762 0.119173
v -0.038544 -0.082386 0.119887
v -0.050804 -0.057593 0.119173
v -0.050532 0.126131 0.119173
v -0.050765 0.127004 0.119887
v -0.051017 -0.057796 0.119887
v -0.050810 -0.062106 0.119173
v -0.051022 -0.062335 0.119887
v -0.049536 -0.063851 0.119887
v -0.049321 -0.063634 0.119173
v -0.048815 -0.066838 0.119173
v -0.049034 -0.066925 0.119887
v -0.049563 -0.070287 0.119173
v -0.049786 -0.070249 0.119887
v -0.050829 -0.072356 0.119887
v -0.050599 -0.072344 0.119173
v -0.050781 -0.073872 0.119887
v -0.050587 -0.073589 0.119173
v -0.047740 -0.076770 0.119887
v -0.047620 -0.076399 0.119173
v -0.043079 -0.078628 0.119887
v -0.042993 -0.078255 0.119173
v -0.038088 -0.079852 0.119887
v -0.038046 -0.079479 0.119173
v -0.051562 -0.060797 0.120125
v -0.053136 -0.062117 0.120125
v -0.053979 -0.062836 0.119887
v -0.053979 -0.063086 0.119173
v -0.050807 -0.059934 0.119173
v -0.051020 -0.060150 0.119887
v -0.050804 -0.057677 0.114103
v -0.050534 0.119444 0.114103
v -0.049321 -0.063634 0.114103
v -0.050810 -0.062106 0.114103
v -0.048815 -0.066838 0.114103
v -0.050599 -0.072344 0.114103
v -0.049563 -0.070287 0.114103
v -0.050587 -0.073589 0.114103
v -0.047620 -0.076399 0.114103
v -0.042993 -0.078255 0.114103
v -0.038046 -0.079479 0.114103
v -0.050807 -0.059934 0.114103
v -0.053795 0.126979 -0.133668
v -0.053795 0.127205 -0.133668
v -0.051561 -0.058432 -0.133668
v -0.053135 -0.059738 -0.133668
v -0.053137 -0.064336 -0.133668
v -0.051998 -0.063151 -0.133668
v -0.050180 -0.064507 -0.133668
v -0.051211 -0.065579 -0.133668
v -0.049690 -0.067192 -0.133668
v -0.050742 -0.067639 -0.133668
v -0.051282 -0.070073 -0.133668
v -0.050304 -0.070109 -0.133668
v -0.051354 -0.072383 -0.133668
v -0.052208 -0.072611 -0.133668
v -0.050998 -0.074205 -0.133668
v -0.051868 -0.075412 -0.133668
v -0.047984 -0.077483 -0.133668
v -0.048559 -0.078720 -0.133668
v -0.043275 -0.079397 -0.133668
v -0.043687 -0.080643 -0.133668
v -0.038215 -0.080564 -0.133668
v -0.038417 -0.081807 -0.133668
v -0.053795 0.125631 -0.132717
v -0.053795 0.126569 -0.133430
v -0.053979 -0.060453 -0.133430
v -0.053979 -0.060712 -0.132717
v -0.052070 -0.066492 -0.132717
v -0.053979 -0.065307 -0.132717
v -0.053979 -0.065062 -0.133430
v -0.051855 -0.066262 -0.133430
v -0.051398 -0.067930 -0.133430
v -0.051952 -0.069982 -0.133430
v -0.052175 -0.069954 -0.132717
v -0.051617 -0.068029 -0.132717
v -0.053128 -0.072697 -0.132717
v -0.052898 -0.072674 -0.133430
v -0.052646 -0.076583 -0.132717
v -0.052452 -0.076289 -0.133430
v -0.049039 -0.079677 -0.132717
v -0.048919 -0.079298 -0.133430
v -0.044030 -0.081602 -0.132717
v -0.043944 -0.081224 -0.133430
v -0.038586 -0.082762 -0.132717
v -0.038544 -0.082386 -0.133430
v -0.051017 -0.057796 -0.133430
v -0.050765 0.127004 -0.133430
v -0.050532 0.126131 -0.132717
v -0.050804 -0.057593 -0.132717
v -0.050810 -0.062106 -0.132717
v -0.049321 -0.063634 -0.132717
v -0.049536 -0.063851 -0.133430
v -0.051022 -0.062335 -0.133430
v -0.048815 -0.066838 -0.132717
v -0.049034 -0.066925 -0.133430
v -0.049563 -0.070287 -0.132717
v -0.050599 -0.072344 -0.132717
v -0.050829 -0.072356 -0.133430
v -0.049786 -0.070249 -0.133430
v -0.050587 -0.073589 -0.132717
v -0.050781 -0.073872 -0.133430
v -0.047620 -0.076399 -0.132717
v -0.047740 -0.076770 -0.133430
v -0.042993 -0.078255 -0.132717
v -0.043079 -0.078628 -0.133430
v -0.038046 -0.079479 -0.132717
v -0.038088 -0.079852 -0.133430
v -0.053136 -0.062117 -0.133668
v -0.051562 -0.060797 -0.133668
v -0.053979 -0.063086 -0.132717
v -0.053979 -0.062836 -0.133430
v -0.051020 -0.060150 -0.133430
v -0.050807 -0.059934 -0.132717
v -0.050534 0.119444 -0.127646
v -0.050804 -0.057677 -0.127646
v -0.049321 -0.063634 -0.127646
v -0.050810 -0.062106 -0.127646
v -0.048815 -0.066838 -0.127646
v -0.050599 -0.072344 -0.127646
v -0.049563 -0.070287 -0.127646
v -0.050587 -0.073589 -0.127646
v -0.047620 -0.076399 -0.127646
v -0.042993 -0.078255 -0.127646
v -0.038046 -0.079479 -0.127646
v -0.050807 -0.059934 -0.127646
v -0.053795 0.128005 -0.132717
v -0.053795 0.128005 0.119173
v -0.053795 0.128952 0.119887
v -0.053795 0.128952 -0.133430
v -0.053795 0.129358 0.120125
v -0.053795 0.129358 -0.133668
v -0.053795 0.129571 0.120125
v -0.053795 0.129571 -0.133668
v -0.050528 0.128471 0.119173
v -0.050528 0.128471 -0.132717
v -0.050761 0.129359 -0.133430
v -0.050761 0.129359 0.119887
v -0.050531 0.121701 0.114103
v -0.050531 0.121701 -0.127646
vt 0.592127 0.956282
vt 0.590728 0.947082
vt 0.970442 0.941528
vt 0.970442 0.941528
vt 0.970188 0.941912
vt 0.592127 0.956282
vt 0.581159 0.944053
vt 0.581946 0.951161
vt 0.575845 0.956555
vt 0.575845 0.956555
vt 0.574801 0.949935
vt 0.581159 0.944053
vt 0.569781 0.956558
vt 0.569697 0.950668
vt 0.574801 0.949935
vt 0.574801 0.949935
vt 0.575845 0.956555
vt 0.569781 0.956558
vt 0.563908 0.949523
vt 0.563174 0.954737
vt 0.556885 0.952192
vt 0.556885 0.952192
vt 0.557700 0.947644
vt 0.563908 0.949523
vt 0.557700 0.947644
vt 0.556885 0.952192
vt 0.551820 0.952422
vt 0.551820 0.952422
vt 0.551800 0.946486
vt 0.557700 0.947644
vt 0.551800 0.946486
vt 0.551820 0.952422
vt 0.538751 0.952555
vt 0.538751 0.952555
vt 0.538971 0.947732
vt 0.551800 0.946486
vt 0.538971 0.947732
vt 0.538751 0.952555
vt 0.521962 0.952776
vt 0.521962 0.952776
vt 0.522393 0.948261
vt 0.538971 0.947732
vt 0.522393 0.948261
vt 0.521962 0.952776
vt 0.504483 0.952862
vt 0.504483 0.952862
vt 0.504736 0.948522
vt 0.522393 0.948261
vt 0.504736 0.948522
vt 0.504483 0.952862
vt 0.486292 0.952815
vt 0.486292 0.952815
vt 0.486294 0.948545
vt 0.504736 0.948522
vt 0.590220 0.941444
vt 0.590514 0.938083
vt 0.969280 0.937627
vt 0.969280 0.937627
vt 0.970406 0.940610
vt 0.590220 0.941444
vt 0.573732 0.941681
vt 0.580817 0.938944
vt 0.581091 0.939932
vt 0.581091 0.939932
vt 0.574117 0.945220
vt 0.573732 0.941681
vt 0.569681 0.946361
vt 0.564636 0.945683
vt 0.565108 0.942712
vt 0.565108 0.942712
vt 0.569725 0.942849
vt 0.569681 0.946361
vt 0.558978 0.941901
vt 0.565108 0.942712
vt 0.564636 0.945683
vt 0.564636 0.945683
vt 0.558517 0.944173
vt 0.558978 0.941901
vt 0.551612 0.941427
vt 0.558978 0.941901
vt 0.558517 0.944173
vt 0.558517 0.944173
vt 0.551634 0.943054
vt 0.551612 0.941427
vt 0.538978 0.942479
vt 0.551612 0.941427
vt 0.551634 0.943054
vt 0.551634 0.943054
vt 0.539148 0.945205
vt 0.538978 0.942479
vt 0.522608 0.943073
vt 0.538978 0.942479
vt 0.539148 0.945205
vt 0.539148 0.945205
vt 0.522655 0.945893
vt 0.522608 0.943073
vt 0.504886 0.943403
vt 0.522608 0.943073
vt 0.522655 0.945893
vt 0.522655 0.945893
vt 0.504890 0.946258
vt 0.504886 0.943403
vt 0.486307 0.943429
vt 0.504886 0.943403
vt 0.504890 0.946258
vt 0.504890 0.946258
vt 0.486295 0.946307
vt 0.486307 0.943429
vt 0.592850 0.961683
vt 0.592783 0.959229
vt 0.968739 0.958675
vt 0.968739 0.958675
vt 0.966634 0.961562
vt 0.592850 0.961683
vt 0.582662 0.961207
vt 0.576516 0.962516
vt 0.576389 0.960326
vt 0.576389 0.960326
vt 0.582404 0.957645
vt 0.582662 0.961207
vt 0.569609 0.962108
vt 0.569769 0.959859
vt 0.576389 0.960326
vt 0.576389 0.960326
vt 0.576516 0.962516
vt 0.569609 0.962108
vt 0.561859 0.960152
vt 0.555614 0.958327
vt 0.556132 0.955313
vt 0.556132 0.955313
vt 0.562355 0.957555
vt 0.561859 0.960152
vt 0.555614 0.958327
vt 0.551649 0.957705
vt 0.551771 0.954523
vt 0.551771 0.954523
vt 0.556132 0.955313
vt 0.555614 0.958327
vt 0.551649 0.957705
vt 0.538861 0.957818
vt 0.538858 0.955180
vt 0.538858 0.955180
vt 0.551771 0.954523
vt 0.551649 0.957705
vt 0.538861 0.957818
vt 0.521931 0.958173
vt 0.521925 0.955535
vt 0.521925 0.955535
vt 0.538858 0.955180
vt 0.538861 0.957818
vt 0.521931 0.958173
vt 0.504362 0.958216
vt 0.504348 0.955475
vt 0.504348 0.955475
vt 0.521925 0.955535
vt 0.521931 0.958173
vt 0.504362 0.958216
vt 0.486296 0.958132
vt 0.486295 0.955390
vt 0.486295 0.955390
vt 0.504348 0.955475
vt 0.504362 0.958216
vt 0.590728 0.947082
vt 0.590220 0.941444
vt 0.970406 0.940610
vt 0.970406 0.940610
vt 0.970442 0.941528
vt 0.590728 0.947082
vt 0.574117 0.945220
vt 0.581091 0.939932
vt 0.581159 0.944053
vt 0.581159 0.944053
vt 0.574801 0.949935
vt 0.574117 0.945220
vt 0.569697 0.950668
vt 0.563908 0.949523
vt 0.564636 0.945683
vt 0.564636 0.945683
vt 0.569681 0.946361
vt 0.569697 0.950668
vt 0.558517 0.944173
vt 0.564636 0.945683
vt 0.563908 0.949523
vt 0.563908 0.949523
vt 0.557700 0.947644
vt 0.558517 0.944173
vt 0.551634 0.943054
vt 0.558517 0.944173
vt 0.557700 0.947644
vt 0.557700 0.947644
vt 0.551800 0.946486
vt 0.551634 0.943054
vt 0.539148 0.945205
vt 0.551634 0.943054
vt 0.551800 0.946486
vt 0.551800 0.946486
vt 0.538971 0.947732
vt 0.539148 0.945205
vt 0.522655 0.945893
vt 0.539148 0.945205
vt 0.538971 0.947732
vt 0.538971 0.947732
vt 0.522393 0.948261
vt 0.522655 0.945893
vt 0.504890 0.946258
vt 0.522655 0.945893
vt 0.522393 0.948261
vt 0.522393 0.948261
vt 0.504736 0.948522
vt 0.504890 0.946258
vt 0.486295 0.946307
vt 0.504890 0.946258
vt 0.504736 0.948522
vt 0.504736 0.948522
vt 0.486294 0.948545
vt 0.486295 0.946307
vt 0.592783 0.959229
vt 0.592127 0.956282
vt 0.970188 0.941912
vt 0.970188 0.941912
vt 0.968739 0.958675
vt 0.592783 0.959229
vt 0.582404 0.957645
vt 0.576389 0.960326
vt 0.575845 0.956555
vt 0.575845 0.956555
vt 0.581946 0.951161
vt 0.582404 0.957645
vt 0.569769 0.959859
vt 0.569781 0.956558
vt 0.575845 0.956555
vt 0.575845 0.956555
vt 0.576389 0.960326
vt 0.569769 0.959859
vt 0.562355 0.957555
vt 0.556132 0.955313
vt 0.556885 0.952192
vt 0.556885 0.952192
vt 0.563174 0.954737
vt 0.562355 0.957555
vt 0.556132 0.955313
vt 0.551771 0.954523
vt 0.551820 0.952422
vt 0.551820 0.952422
vt 0.556885 0.952192
vt 0.556132 0.955313
vt 0.551771 0.954523
vt 0.538858 0.955180
vt 0.538751 0.952555
vt 0.538751 0.952555
vt 0.551820 0.952422
vt 0.551771 0.954523
vt 0.538858 0.955180
vt 0.521925 0.955535
vt 0.521962 0.952776
vt 0.521962 0.952776
vt 0.538751 0.952555
vt 0.538858 0.955180
vt 0.521925 0.955535
vt 0.504348 0.955475
vt 0.504483 0.952862
vt 0.504483 0.952862
vt 0.521962 0.952776
vt 0.521925 0.955535
vt 0.504348 0.955475
vt 0.486295 0.955390
vt 0.486292 0.952815
vt 0.486292 0.952815
vt 0.504483 0.952862
vt 0.504348 0.955475
vt 0.569781 0.956558
vt 0.563174 0.954737
vt 0.563908 0.949523
vt 0.563908 0.949523
vt 0.569697 0.950668
vt 0.569781 0.956558
vt 0.573732 0.941681
vt 0.574117 0.945220
vt 0.569681 0.946361
vt 0.569681 0.946361
vt 0.569725 0.942849
vt 0.573732 0.941681
vt 0.569609 0.962108
vt 0.561859 0.960152
vt 0.562355 0.957555
vt 0.562355 0.957555
vt 0.569769 0.959859
vt 0.569609 0.962108
vt 0.574117 0.945220
vt 0.574801 0.949935
vt 0.569697 0.950668
vt 0.569697 0.950668
vt 0.569681 0.946361
vt 0.574117 0.945220
vt 0.569769 0.959859
vt 0.562355 0.957555
vt 0.563174 0.954737
vt 0.563174 0.954737
vt 0.569781 0.956558
vt 0.569769 0.959859
vt 0.581946 0.951161
vt 0.581159 0.944053
vt 0.585866 0.945838
vt 0.585866 0.945838
vt 0.586762 0.955199
vt 0.581946 0.951161
vt 0.581091 0.939932
vt 0.580817 0.938944
vt 0.585602 0.938441
vt 0.585602 0.938441
vt 0.585481 0.940844
vt 0.581091 0.939932
vt 0.582662 0.961207
vt 0.582404 0.957645
vt 0.587506 0.958590
vt 0.587506 0.958590
vt 0.587670 0.961390
vt 0.582662 0.961207
vt 0.581159 0.944053
vt 0.581091 0.939932
vt 0.585481 0.940844
vt 0.585481 0.940844
vt 0.585866 0.945838
vt 0.581159 0.944053
vt 0.582404 0.957645
vt 0.581946 0.951161
vt 0.586762 0.955199
vt 0.586762 0.955199
vt 0.587506 0.958590
vt 0.582404 0.957645
vt 0.592850 0.961683
vt 0.966634 0.961562
vt 0.952950 0.978787
vt 0.952950 0.978787
vt 0.592517 0.978746
vt 0.592850 0.961683
vt 0.576351 0.979335
vt 0.576516 0.962516
vt 0.582662 0.961207
vt 0.582662 0.961207
vt 0.582769 0.978725
vt 0.576351 0.979335
vt 0.568668 0.978939
vt 0.569609 0.962108
vt 0.576516 0.962516
vt 0.576516 0.962516
vt 0.576351 0.979335
vt 0.568668 0.978939
vt 0.554261 0.975470
vt 0.555614 0.958327
vt 0.561859 0.960152
vt 0.561859 0.960152
vt 0.560360 0.977083
vt 0.554261 0.975470
vt 0.551025 0.974997
vt 0.551649 0.957705
vt 0.555614 0.958327
vt 0.555614 0.958327
vt 0.554261 0.975470
vt 0.551025 0.974997
vt 0.538831 0.974880
vt 0.538861 0.957818
vt 0.551649 0.957705
vt 0.551649 0.957705
vt 0.551025 0.974997
vt 0.538831 0.974880
vt 0.522024 0.975249
vt 0.521931 0.958173
vt 0.538861 0.957818
vt 0.538861 0.957818
vt 0.538831 0.974880
vt 0.522024 0.975249
vt 0.504394 0.975350
vt 0.504362 0.958216
vt 0.521931 0.958173
vt 0.521931 0.958173
vt 0.522024 0.975249
vt 0.504394 0.975350
vt 0.486248 0.975270
vt 0.486296 0.958132
vt 0.504362 0.958216
vt 0.504362 0.958216
vt 0.504394 0.975350
vt 0.486248 0.975270
vt 0.560360 0.977083
vt 0.561859 0.960152
vt 0.569609 0.962108
vt 0.569609 0.962108
vt 0.568668 0.978939
vt 0.560360 0.977083
vt 0.582769 0.978725
vt 0.582662 0.961207
vt 0.587670 0.961390
vt 0.587670 0.961390
vt 0.587550 0.978575
vt 0.582769 0.978725
vt 0.971114 0.082166
vt 0.591473 0.076702
vt 0.593099 0.067533
vt 0.593099 0.067533
vt 0.971013 0.081882
vt 0.971114 0.082166
vt 0.582147 0.079326
vt 0.576153 0.073086
vt 0.577224 0.066538
vt 0.577224 0.066538
vt 0.583086 0.072243
vt 0.582147 0.079326
vt 0.571261 0.066531
vt 0.577224 0.066538
vt 0.576153 0.073086
vt 0.576153 0.073086
vt 0.571231 0.072402
vt 0.571261 0.066531
vt 0.565612 0.073800
vt 0.559515 0.075869
vt 0.558600 0.071269
vt 0.558600 0.071269
vt 0.564777 0.068562
vt 0.565612 0.073800
vt 0.559515 0.075869
vt 0.553638 0.077055
vt 0.553586 0.071072
vt 0.553586 0.071072
vt 0.558600 0.071269
vt 0.559515 0.075869
vt 0.553638 0.077055
vt 0.540797 0.075642
vt 0.540542 0.070801
vt 0.540542 0.070801
vt 0.553586 0.071072
vt 0.553638 0.077055
vt 0.540797 0.075642
vt 0.524202 0.074829
vt 0.523760 0.070310
vt 0.523760 0.070310
vt 0.540542 0.070801
vt 0.540797 0.075642
vt 0.524202 0.074829
vt 0.506534 0.074273
vt 0.506282 0.069933
vt 0.506282 0.069933
vt 0.523760 0.070310
vt 0.524202 0.074829
vt 0.506534 0.074273
vt 0.488088 0.073943
vt 0.488090 0.069672
vt 0.488090 0.069672
vt 0.506282 0.069933
vt 0.506534 0.074273
vt 0.969415 0.085893
vt 0.590749 0.085460
vt 0.590728 0.082262
vt 0.590728 0.082262
vt 0.970849 0.082989
vt 0.969415 0.085893
vt 0.575127 0.081432
vt 0.575472 0.077779
vt 0.581970 0.083506
vt 0.581970 0.083506
vt 0.581572 0.084434
vt 0.575127 0.081432
vt 0.571330 0.076733
vt 0.571631 0.080358
vt 0.567310 0.080713
vt 0.567310 0.080713
vt 0.566513 0.077697
vt 0.571330 0.076733
vt 0.561181 0.081636
vt 0.560483 0.079385
vt 0.566513 0.077697
vt 0.566513 0.077697
vt 0.567310 0.080713
vt 0.561181 0.081636
vt 0.553643 0.082109
vt 0.553563 0.080505
vt 0.560483 0.079385
vt 0.560483 0.079385
vt 0.561181 0.081636
vt 0.553643 0.082109
vt 0.540868 0.080874
vt 0.541019 0.078171
vt 0.553563 0.080505
vt 0.553563 0.080505
vt 0.553643 0.082109
vt 0.540868 0.080874
vt 0.524424 0.079999
vt 0.524480 0.077193
vt 0.541019 0.078171
vt 0.541019 0.078171
vt 0.540868 0.080874
vt 0.524424 0.079999
vt 0.506665 0.079381
vt 0.506689 0.076534
vt 0.524480 0.077193
vt 0.524480 0.077193
vt 0.524424 0.079999
vt 0.506665 0.079381
vt 0.488074 0.079059
vt 0.488086 0.076181
vt 0.506689 0.076534
vt 0.506689 0.076534
vt 0.506665 0.079381
vt 0.488074 0.079059
vt 0.593867 0.064572
vt 0.593997 0.062084
vt 0.967766 0.062218
vt 0.967766 0.062218
vt 0.969803 0.065124
vt 0.593867 0.064572
vt 0.583957 0.062238
vt 0.583648 0.065785
vt 0.577777 0.062838
vt 0.577777 0.062838
vt 0.577902 0.060730
vt 0.583957 0.062238
vt 0.571078 0.061082
vt 0.577902 0.060730
vt 0.577777 0.062838
vt 0.577777 0.062838
vt 0.571236 0.063270
vt 0.571078 0.061082
vt 0.563420 0.063154
vt 0.563927 0.065748
vt 0.557797 0.068113
vt 0.557797 0.068113
vt 0.557255 0.065072
vt 0.563420 0.063154
vt 0.557255 0.065072
vt 0.557797 0.068113
vt 0.553494 0.068928
vt 0.553494 0.068928
vt 0.553350 0.065712
vt 0.557255 0.065072
vt 0.553350 0.065712
vt 0.553494 0.068928
vt 0.540617 0.068159
vt 0.540617 0.068159
vt 0.540603 0.065509
vt 0.553350 0.065712
vt 0.540603 0.065509
vt 0.540617 0.068159
vt 0.523705 0.067551
vt 0.523705 0.067551
vt 0.523701 0.064914
vt 0.540603 0.065509
vt 0.523701 0.064914
vt 0.523705 0.067551
vt 0.506137 0.067319
vt 0.506137 0.067319
vt 0.506148 0.064580
vt 0.523701 0.064914
vt 0.506148 0.064580
vt 0.506137 0.067319
vt 0.488087 0.067097
vt 0.488087 0.067097
vt 0.488086 0.064355
vt 0.506148 0.064580
vt 0.970849 0.082989
vt 0.590728 0.082262
vt 0.591473 0.076702
vt 0.591473 0.076702
vt 0.971114 0.082166
vt 0.970849 0.082989
vt 0.575472 0.077779
vt 0.576153 0.073086
vt 0.582147 0.079326
vt 0.582147 0.079326
vt 0.581970 0.083506
vt 0.575472 0.077779
vt 0.571231 0.072402
vt 0.571330 0.076733
vt 0.566513 0.077697
vt 0.566513 0.077697
vt 0.565612 0.073800
vt 0.571231 0.072402
vt 0.560483 0.079385
vt 0.559515 0.075869
vt 0.565612 0.073800
vt 0.565612 0.073800
vt 0.566513 0.077697
vt 0.560483 0.079385
vt 0.553563 0.080505
vt 0.553638 0.077055
vt 0.559515 0.075869
vt 0.559515 0.075869
vt 0.560483 0.079385
vt 0.553563 0.080505
vt 0.541019 0.078171
vt 0.540797 0.075642
vt 0.553638 0.077055
vt 0.553638 0.077055
vt 0.553563 0.080505
vt 0.541019 0.078171
vt 0.524480 0.077193
vt 0.524202 0.074829
vt 0.540797 0.075642
vt 0.540797 0.075642
vt 0.541019 0.078171
vt 0.524480 0.077193
vt 0.506689 0.076534
vt 0.506534 0.074273
vt 0.524202 0.074829
vt 0.524202 0.074829
vt 0.524480 0.077193
vt 0.506689 0.076534
vt 0.488086 0.076181
vt 0.488088 0.073943
vt 0.506534 0.074273
vt 0.506534 0.074273
vt 0.506689 0.076534
vt 0.488086 0.076181
vt 0.593099 0.067533
vt 0.593867 0.064572
vt 0.969803 0.065124
vt 0.969803 0.065124
vt 0.971013 0.081882
vt 0.593099 0.067533
vt 0.583648 0.065785
vt 0.583086 0.072243
vt 0.577224 0.066538
vt 0.577224 0.066538
vt 0.577777 0.062838
vt 0.583648 0.065785
vt 0.571236 0.063270
vt 0.577777 0.062838
vt 0.577224 0.066538
vt 0.577224 0.066538
vt 0.571261 0.066531
vt 0.571236 0.063270
vt 0.563927 0.065748
vt 0.564777 0.068562
vt 0.558600 0.071269
vt 0.558600 0.071269
vt 0.557797 0.068113
vt 0.563927 0.065748
vt 0.557797 0.068113
vt 0.558600 0.071269
vt 0.553586 0.071072
vt 0.553586 0.071072
vt 0.553494 0.068928
vt 0.557797 0.068113
vt 0.553494 0.068928
vt 0.553586 0.071072
vt 0.540542 0.070801
vt 0.540542 0.070801
vt 0.540617 0.068159
vt 0.553494 0.068928
vt 0.540617 0.068159
vt 0.540542 0.070801
vt 0.523760 0.070310
vt 0.523760 0.070310
vt 0.523705 0.067551
vt 0.540617 0.068159
vt 0.523705 0.067551
vt 0.523760 0.070310
vt 0.506282 0.069933
vt 0.506282 0.069933
vt 0.506137 0.067319
vt 0.523705 0.067551
vt 0.506137 0.067319
vt 0.506282 0.069933
vt 0.488090 0.069672
vt 0.488090 0.069672
vt 0.488087 0.067097
vt 0.506137 0.067319
vt 0.571261 0.066531
vt 0.571231 0.072402
vt 0.565612 0.073800
vt 0.565612 0.073800
vt 0.564777 0.068562
vt 0.571261 0.066531
vt 0.575127 0.081432
vt 0.571631 0.080358
vt 0.571330 0.076733
vt 0.571330 0.076733
vt 0.575472 0.077779
vt 0.575127 0.081432
vt 0.571078 0.061082
vt 0.571236 0.063270
vt 0.563927 0.065748
vt 0.563927 0.065748
vt 0.563420 0.063154
vt 0.571078 0.061082
vt 0.575472 0.077779
vt 0.571330 0.076733
vt 0.571231 0.072402
vt 0.571231 0.072402
vt 0.576153 0.073086
vt 0.575472 0.077779
vt 0.571236 0.063270
vt 0.571261 0.066531
vt 0.564777 0.068562
vt 0.564777 0.068562
vt 0.563927 0.065748
vt 0.571236 0.063270
vt 0.583086 0.072243
vt 0.587841 0.068357
vt 0.586697 0.077632
vt 0.586697 0.077632
vt 0.582147 0.079326
vt 0.583086 0.072243
vt 0.581970 0.083506
vt 0.586120 0.082527
vt 0.585989 0.084911
vt 0.585989 0.084911
vt 0.581572 0.084434
vt 0.581970 0.083506
vt 0.583957 0.062238
vt 0.588879 0.062173
vt 0.588662 0.064987
vt 0.588662 0.064987
vt 0.583648 0.065785
vt 0.583957 0.062238
vt 0.582147 0.079326
vt 0.586697 0.077632
vt 0.586120 0.082527
vt 0.586120 0.082527
vt 0.581970 0.083506
vt 0.582147 0.079326
vt 0.583648 0.065785
vt 0.588662 0.064987
vt 0.587841 0.068357
vt 0.587841 0.068357
vt 0.583086 0.072243
vt 0.583648 0.065785
vt 0.954103 0.045004
vt 0.967766 0.062218
vt 0.593997 0.062084
vt 0.593997 0.062084
vt 0.593754 0.044997
vt 0.954103 0.045004
vt 0.577775 0.043951
vt 0.584113 0.044724
vt 0.583957 0.062238
vt 0.583957 0.062238
vt 0.577902 0.060730
vt 0.577775 0.043951
vt 0.570126 0.044291
vt 0.577775 0.043951
vt 0.577902 0.060730
vt 0.577902 0.060730
vt 0.571078 0.061082
vt 0.570126 0.044291
vt 0.555861 0.047925
vt 0.561872 0.046235
vt 0.563420 0.063154
vt 0.563420 0.063154
vt 0.557255 0.065072
vt 0.555861 0.047925
vt 0.552725 0.048408
vt 0.555861 0.047925
vt 0.557255 0.065072
vt 0.557255 0.065072
vt 0.553350 0.065712
vt 0.552725 0.048408
vt 0.540619 0.048444
vt 0.552725 0.048408
vt 0.553350 0.065712
vt 0.553350 0.065712
vt 0.540603 0.065509
vt 0.540619 0.048444
vt 0.523874 0.047841
vt 0.540619 0.048444
vt 0.540603 0.065509
vt 0.540603 0.065509
vt 0.523701 0.064914
vt 0.523874 0.047841
vt 0.506273 0.047448
vt 0.523874 0.047841
vt 0.523701 0.064914
vt 0.523701 0.064914
vt 0.506148 0.064580
vt 0.506273 0.047448
vt 0.488134 0.047217
vt 0.506273 0.047448
vt 0.506148 0.064580
vt 0.506148 0.064580
vt 0.488086 0.064355
vt 0.488134 0.047217
vt 0.561872 0.046235
vt 0.570126 0.044291
vt 0.571078 0.061082
vt 0.571078 0.061082
vt 0.563420 0.063154
vt 0.561872 0.046235
vt 0.584113 0.044724
vt 0.588846 0.044972
vt 0.588879 0.062173
vt 0.588879 0.062173
vt 0.583957 0.062238
vt 0.584113 0.044724
vt 0.974003 0.086213
vt 0.975994 0.084028
vt 0.975994 0.939844
vt 0.975994 0.939844
vt 0.973932 0.937643
vt 0.974003 0.086213
vt 0.975994 0.084028
vt 0.976909 0.083231
vt 0.976909 0.940654
vt 0.976909 0.940654
vt 0.975994 0.939844
vt 0.975994 0.084028
vt 0.977416 0.940660
vt 0.976909 0.940654
vt 0.976909 0.083231
vt 0.976909 0.083231
vt 0.977416 0.083237
vt 0.977416 0.940660
vt 0.969280 0.937627
vt 0.590514 0.938083
vt 0.590749 0.085460
vt 0.590749 0.085460
vt 0.969415 0.085893
vt 0.969280 0.937627
vt 0.575127 0.081432
vt 0.581572 0.084434
vt 0.580817 0.938944
vt 0.580817 0.938944
vt 0.573732 0.941681
vt 0.575127 0.081432
vt 0.571631 0.080358
vt 0.569725 0.942849
vt 0.565108 0.942712
vt 0.565108 0.942712
vt 0.567310 0.080713
vt 0.571631 0.080358
vt 0.561181 0.081636
vt 0.567310 0.080713
vt 0.565108 0.942712
vt 0.565108 0.942712
vt 0.558978 0.941901
vt 0.561181 0.081636
vt 0.553643 0.082109
vt 0.561181 0.081636
vt 0.558978 0.941901
vt 0.558978 0.941901
vt 0.551612 0.941427
vt 0.553643 0.082109
vt 0.540868 0.080874
vt 0.553643 0.082109
vt 0.551612 0.941427
vt 0.551612 0.941427
vt 0.538978 0.942479
vt 0.540868 0.080874
vt 0.524424 0.079999
vt 0.540868 0.080874
vt 0.538978 0.942479
vt 0.538978 0.942479
vt 0.522608 0.943073
vt 0.524424 0.079999
vt 0.506665 0.079381
vt 0.524424 0.079999
vt 0.522608 0.943073
vt 0.522608 0.943073
vt 0.504886 0.943403
vt 0.506665 0.079381
vt 0.488074 0.079059
vt 0.506665 0.079381
vt 0.504886 0.943403
vt 0.504886 0.943403
vt 0.486307 0.943429
vt 0.488074 0.079059
vt 0.571631 0.080358
vt 0.575127 0.081432
vt 0.573732 0.941681
vt 0.573732 0.941681
vt 0.569725 0.942849
vt 0.571631 0.080358
vt 0.989411 0.937454
vt 0.987417 0.939861
vt 0.987417 0.084046
vt 0.987417 0.084046
vt 0.989411 0.086460
vt 0.989411 0.937454
vt 0.987417 0.939861
vt 0.977416 0.940660
vt 0.977416 0.083237
vt 0.977416 0.083237
vt 0.987417 0.084046
vt 0.987417 0.939861
vt 0.585602 0.938441
vt 0.580817 0.938944
vt 0.581572 0.084434
vt 0.581572 0.084434
vt 0.585989 0.084911
vt 0.585602 0.938441
vt 1.003190 0.920325
vt 0.989411 0.937454
vt 0.989411 0.086460
vt 0.989411 0.086460
vt 1.003190 0.103591
vt 1.003190 0.920325
vt 0.970188 0.941912
vt 0.970442 0.941528
vt 0.975310 0.942383
vt 0.975310 0.942383
vt 0.975239 0.942802
vt 0.970188 0.941912
vt 0.590728 0.947082
vt 0.592127 0.956282
vt 0.586762 0.955199
vt 0.586762 0.955199
vt 0.585866 0.945838
vt 0.590728 0.947082
vt 0.970406 0.940610
vt 0.969280 0.937627
vt 0.973932 0.937643
vt 0.973932 0.937643
vt 0.975203 0.941018
vt 0.970406 0.940610
vt 0.590514 0.938083
vt 0.590220 0.941444
vt 0.585481 0.940844
vt 0.585481 0.940844
vt 0.585602 0.938441
vt 0.590514 0.938083
vt 0.971432 0.961798
vt 0.966634 0.961562
vt 0.968739 0.958675
vt 0.968739 0.958675
vt 0.973465 0.959380
vt 0.971432 0.961798
vt 0.592783 0.959229
vt 0.592850 0.961683
vt 0.587670 0.961390
vt 0.587670 0.961390
vt 0.587506 0.958590
vt 0.592783 0.959229
vt 0.970442 0.941528
vt 0.970406 0.940610
vt 0.975203 0.941018
vt 0.975203 0.941018
vt 0.975310 0.942383
vt 0.970442 0.941528
vt 0.590220 0.941444
vt 0.590728 0.947082
vt 0.585866 0.945838
vt 0.585866 0.945838
vt 0.585481 0.940844
vt 0.590220 0.941444
vt 0.973465 0.959380
vt 0.968739 0.958675
vt 0.970188 0.941912
vt 0.970188 0.941912
vt 0.975239 0.942802
vt 0.973465 0.959380
vt 0.592127 0.956282
vt 0.592783 0.959229
vt 0.587506 0.958590
vt 0.587506 0.958590
vt 0.586762 0.955199
vt 0.592127 0.956282
vt 0.592850 0.961683
vt 0.592517 0.978746
vt 0.587550 0.978575
vt 0.587550 0.978575
vt 0.587670 0.961390
vt 0.592850 0.961683
vt 0.957613 0.978808
vt 0.952950 0.978787
vt 0.966634 0.961562
vt 0.966634 0.961562
vt 0.971432 0.961798
vt 0.957613 0.978808
vt 0.975978 0.081935
vt 0.971114 0.082166
vt 0.971013 0.081882
vt 0.971013 0.081882
vt 0.976014 0.081386
vt 0.975978 0.081935
vt 0.587841 0.068357
vt 0.593099 0.067533
vt 0.591473 0.076702
vt 0.591473 0.076702
vt 0.586697 0.077632
vt 0.587841 0.068357
vt 0.974003 0.086213
vt 0.969415 0.085893
vt 0.970849 0.082989
vt 0.970849 0.082989
vt 0.975642 0.083260
vt 0.974003 0.086213
vt 0.586120 0.082527
vt 0.590728 0.082262
vt 0.590749 0.085460
vt 0.590749 0.085460
vt 0.585989 0.084911
vt 0.586120 0.082527
vt 0.969803 0.065124
vt 0.967766 0.062218
vt 0.972563 0.062061
vt 0.972563 0.062061
vt 0.974557 0.064618
vt 0.969803 0.065124
vt 0.588879 0.062173
vt 0.593997 0.062084
vt 0.593867 0.064572
vt 0.593867 0.064572
vt 0.588662 0.064987
vt 0.588879 0.062173
vt 0.975642 0.083260
vt 0.970849 0.082989
vt 0.971114 0.082166
vt 0.971114 0.082166
vt 0.975978 0.081935
vt 0.975642 0.083260
vt 0.586697 0.077632
vt 0.591473 0.076702
vt 0.590728 0.082262
vt 0.590728 0.082262
vt 0.586120 0.082527
vt 0.586697 0.077632
vt 0.971013 0.081882
vt 0.969803 0.065124
vt 0.974557 0.064618
vt 0.974557 0.064618
vt 0.976014 0.081386
vt 0.971013 0.081882
vt 0.588662 0.064987
vt 0.593867 0.064572
vt 0.593099 0.067533
vt 0.593099 0.067533
vt 0.587841 0.068357
vt 0.588662 0.064987
vt 0.593754 0.044997
vt 0.593997 0.062084
vt 0.588879 0.062173
vt 0.588879 0.062173
vt 0.588846 0.044972
vt 0.593754 0.044997
vt 0.967766 0.062218
vt 0.954103 0.045004
vt 0.958751 0.045002
vt 0.958751 0.045002
vt 0.972563 0.062061
vt 0.967766 0.062218
vt 0.969280 0.937627
vt 0.969415 0.085893
vt 0.974003 0.086213
vt 0.974003 0.086213
vt 0.973932 0.937643
vt 0.969280 0.937627
vt 0.590749 0.085460
vt 0.590514 0.938083
vt 0.585602 0.938441
vt 0.585602 0.938441
vt 0.585989 0.084911
vt 0.590749 0.085460
vt 0.381287 0.955033
vt 0.003371 0.940683
vt 0.003270 0.940399
vt 0.003270 0.940399
vt 0.382911 0.945863
vt 0.381287 0.955033
vt 0.392237 0.943235
vt 0.398233 0.949470
vt 0.397164 0.956019
vt 0.397164 0.956019
vt 0.391299 0.950319
vt 0.392237 0.943235
vt 0.403127 0.956019
vt 0.397164 0.956019
vt 0.398233 0.949470
vt 0.398233 0.949470
vt 0.403156 0.950148
vt 0.403127 0.956019
vt 0.408773 0.948740
vt 0.414869 0.946658
vt 0.415785 0.951259
vt 0.415785 0.951259
vt 0.409610 0.953977
vt 0.408773 0.948740
vt 0.414869 0.946658
vt 0.420745 0.945464
vt 0.420799 0.951449
vt 0.420799 0.951449
vt 0.415785 0.951259
vt 0.414869 0.946658
vt 0.420745 0.945464
vt 0.433587 0.946859
vt 0.433842 0.951703
vt 0.433842 0.951703
vt 0.420799 0.951449
vt 0.420745 0.945464
vt 0.433587 0.946859
vt 0.450181 0.947661
vt 0.450623 0.952181
vt 0.450623 0.952181
vt 0.433842 0.951703
vt 0.433587 0.946859
vt 0.450181 0.947661
vt 0.467848 0.948214
vt 0.468101 0.952554
vt 0.468101 0.952554
vt 0.450623 0.952181
vt 0.450181 0.947661
vt 0.467848 0.948214
vt 0.486294 0.948545
vt 0.486292 0.952815
vt 0.486292 0.952815
vt 0.468101 0.952554
vt 0.467848 0.948214
vt 0.383654 0.940301
vt 0.003533 0.939575
vt 0.004966 0.936668
vt 0.004966 0.936668
vt 0.383632 0.937102
vt 0.383654 0.940301
vt 0.399256 0.941126
vt 0.398912 0.944777
vt 0.392413 0.939056
vt 0.392413 0.939056
vt 0.392811 0.938128
vt 0.399256 0.941126
vt 0.403055 0.945818
vt 0.402752 0.942195
vt 0.407074 0.941830
vt 0.407074 0.941830
vt 0.407871 0.944845
vt 0.403055 0.945818
vt 0.413203 0.940890
vt 0.413900 0.943142
vt 0.407871 0.944845
vt 0.407871 0.944845
vt 0.407074 0.941830
vt 0.413203 0.940890
vt 0.420740 0.940404
vt 0.420820 0.942012
vt 0.413900 0.943142
vt 0.413900 0.943142
vt 0.413203 0.940890
vt 0.420740 0.940404
vt 0.433515 0.941623
vt 0.433364 0.944329
vt 0.420820 0.942012
vt 0.420820 0.942012
vt 0.420740 0.940404
vt 0.433515 0.941623
vt 0.449958 0.942490
vt 0.449903 0.945297
vt 0.433364 0.944329
vt 0.433364 0.944329
vt 0.433515 0.941623
vt 0.449958 0.942490
vt 0.467717 0.943106
vt 0.467693 0.945953
vt 0.449903 0.945297
vt 0.449903 0.945297
vt 0.449958 0.942490
vt 0.467717 0.943106
vt 0.486307 0.943429
vt 0.486295 0.946307
vt 0.467693 0.945953
vt 0.467693 0.945953
vt 0.467717 0.943106
vt 0.486307 0.943429
vt 0.380391 0.960482
vt 0.006621 0.960348
vt 0.004583 0.957441
vt 0.004583 0.957441
vt 0.380520 0.957994
vt 0.380391 0.960482
vt 0.390431 0.960325
vt 0.390740 0.956777
vt 0.396612 0.959718
vt 0.396612 0.959718
vt 0.396486 0.961827
vt 0.390431 0.960325
vt 0.403311 0.961467
vt 0.396486 0.961827
vt 0.396612 0.959718
vt 0.396612 0.959718
vt 0.403153 0.959281
vt 0.403311 0.961467
vt 0.410968 0.959383
vt 0.410461 0.956790
vt 0.416588 0.954414
vt 0.416588 0.954414
vt 0.417131 0.957456
vt 0.410968 0.959383
vt 0.417131 0.957456
vt 0.416588 0.954414
vt 0.420891 0.953593
vt 0.420891 0.953593
vt 0.421036 0.956810
vt 0.417131 0.957456
vt 0.421036 0.956810
vt 0.420891 0.953593
vt 0.433767 0.954347
vt 0.433767 0.954347
vt 0.433782 0.956997
vt 0.421036 0.956810
vt 0.433782 0.956997
vt 0.433767 0.954347
vt 0.450679 0.954941
vt 0.450679 0.954941
vt 0.450683 0.957579
vt 0.433782 0.956997
vt 0.450683 0.957579
vt 0.450679 0.954941
vt 0.468246 0.955168
vt 0.468246 0.955168
vt 0.468235 0.957907
vt 0.450683 0.957579
vt 0.468235 0.957907
vt 0.468246 0.955168
vt 0.486295 0.955390
vt 0.486295 0.955390
vt 0.486296 0.958132
vt 0.468235 0.957907
vt 0.382911 0.945863
vt 0.003270 0.940399
vt 0.003533 0.939575
vt 0.003533 0.939575
vt 0.383654 0.940301
vt 0.382911 0.945863
vt 0.398912 0.944777
vt 0.398233 0.949470
vt 0.392237 0.943235
vt 0.392237 0.943235
vt 0.392413 0.939056
vt 0.398912 0.944777
vt 0.403156 0.950148
vt 0.403055 0.945818
vt 0.407871 0.944845
vt 0.407871 0.944845
vt 0.408773 0.948740
vt 0.403156 0.950148
vt 0.413900 0.943142
vt 0.414869 0.946658
vt 0.408773 0.948740
vt 0.408773 0.948740
vt 0.407871 0.944845
vt 0.413900 0.943142
vt 0.420820 0.942012
vt 0.420745 0.945464
vt 0.414869 0.946658
vt 0.414869 0.946658
vt 0.413900 0.943142
vt 0.420820 0.942012
vt 0.433364 0.944329
vt 0.433587 0.946859
vt 0.420745 0.945464
vt 0.420745 0.945464
vt 0.420820 0.942012
vt 0.433364 0.944329
vt 0.449903 0.945297
vt 0.450181 0.947661
vt 0.433587 0.946859
vt 0.433587 0.946859
vt 0.433364 0.944329
vt 0.449903 0.945297
vt 0.467693 0.945953
vt 0.467848 0.948214
vt 0.450181 0.947661
vt 0.450181 0.947661
vt 0.449903 0.945297
vt 0.467693 0.945953
vt 0.486295 0.946307
vt 0.486294 0.948545
vt 0.467848 0.948214
vt 0.467848 0.948214
vt 0.467693 0.945953
vt 0.486295 0.946307
vt 0.380520 0.957994
vt 0.004583 0.957441
vt 0.003371 0.940683
vt 0.003371 0.940683
vt 0.381287 0.955033
vt 0.380520 0.957994
vt 0.390740 0.956777
vt 0.391299 0.950319
vt 0.397164 0.956019
vt 0.397164 0.956019
vt 0.396612 0.959718
vt 0.390740 0.956777
vt 0.403153 0.959281
vt 0.396612 0.959718
vt 0.397164 0.956019
vt 0.397164 0.956019
vt 0.403127 0.956019
vt 0.403153 0.959281
vt 0.410461 0.956790
vt 0.409610 0.953977
vt 0.415785 0.951259
vt 0.415785 0.951259
vt 0.416588 0.954414
vt 0.410461 0.956790
vt 0.416588 0.954414
vt 0.415785 0.951259
vt 0.420799 0.951449
vt 0.420799 0.951449
vt 0.420891 0.953593
vt 0.416588 0.954414
vt 0.420891 0.953593
vt 0.420799 0.951449
vt 0.433842 0.951703
vt 0.433842 0.951703
vt 0.433767 0.954347
vt 0.420891 0.953593
vt 0.433767 0.954347
vt 0.433842 0.951703
vt 0.450623 0.952181
vt 0.450623 0.952181
vt 0.450679 0.954941
vt 0.433767 0.954347
vt 0.450679 0.954941
vt 0.450623 0.952181
vt 0.468101 0.952554
vt 0.468101 0.952554
vt 0.468246 0.955168
vt 0.450679 0.954941
vt 0.468246 0.955168
vt 0.468101 0.952554
vt 0.486292 0.952815
vt 0.486292 0.952815
vt 0.486295 0.955390
vt 0.468246 0.955168
vt 0.403127 0.956019
vt 0.403156 0.950148
vt 0.408773 0.948740
vt 0.408773 0.948740
vt 0.409610 0.953977
vt 0.403127 0.956019
vt 0.399256 0.941126
vt 0.402752 0.942195
vt 0.403055 0.945818
vt 0.403055 0.945818
vt 0.398912 0.944777
vt 0.399256 0.941126
vt 0.403311 0.961467
vt 0.403153 0.959281
vt 0.410461 0.956790
vt 0.410461 0.956790
vt 0.410968 0.959383
vt 0.403311 0.961467
vt 0.398912 0.944777
vt 0.403055 0.945818
vt 0.403156 0.950148
vt 0.403156 0.950148
vt 0.398233 0.949470
vt 0.398912 0.944777
vt 0.403153 0.959281
vt 0.403127 0.956019
vt 0.409610 0.953977
vt 0.409610 0.953977
vt 0.410461 0.956790
vt 0.403153 0.959281
vt 0.391299 0.950319
vt 0.386545 0.954207
vt 0.387687 0.944931
vt 0.387687 0.944931
vt 0.392237 0.943235
vt 0.391299 0.950319
vt 0.392413 0.939056
vt 0.388263 0.940035
vt 0.388393 0.937651
vt 0.388393 0.937651
vt 0.392811 0.938128
vt 0.392413 0.939056
vt 0.390431 0.960325
vt 0.385509 0.960391
vt 0.385725 0.957578
vt 0.385725 0.957578
vt 0.390740 0.956777
vt 0.390431 0.960325
vt 0.392237 0.943235
vt 0.387687 0.944931
vt 0.388263 0.940035
vt 0.388263 0.940035
vt 0.392413 0.939056
vt 0.392237 0.943235
vt 0.390740 0.956777
vt 0.385725 0.957578
vt 0.386545 0.954207
vt 0.386545 0.954207
vt 0.391299 0.950319
vt 0.390740 0.956777
vt 0.380391 0.960482
vt 0.380634 0.977569
vt 0.020284 0.977561
vt 0.020284 0.977561
vt 0.006621 0.960348
vt 0.380391 0.960482
vt 0.396619 0.978606
vt 0.390278 0.977838
vt 0.390431 0.960325
vt 0.390431 0.960325
vt 0.396486 0.961827
vt 0.396619 0.978606
vt 0.404270 0.978256
vt 0.396619 0.978606
vt 0.396486 0.961827
vt 0.396486 0.961827
vt 0.403311 0.961467
vt 0.404270 0.978256
vt 0.418534 0.974601
vt 0.412524 0.976300
vt 0.410968 0.959383
vt 0.410968 0.959383
vt 0.417131 0.957456
vt 0.418534 0.974601
vt 0.421668 0.974113
vt 0.418534 0.974601
vt 0.417131 0.957456
vt 0.417131 0.957456
vt 0.421036 0.956810
vt 0.421668 0.974113
vt 0.433771 0.974063
vt 0.421668 0.974113
vt 0.421036 0.956810
vt 0.421036 0.956810
vt 0.433782 0.956997
vt 0.433771 0.974063
vt 0.450514 0.974652
vt 0.433771 0.974063
vt 0.433782 0.956997
vt 0.433782 0.956997
vt 0.450683 0.957579
vt 0.450514 0.974652
vt 0.468111 0.975039
vt 0.450514 0.974652
vt 0.450683 0.957579
vt 0.450683 0.957579
vt 0.468235 0.957907
vt 0.468111 0.975039
vt 0.486248 0.975270
vt 0.468111 0.975039
vt 0.468235 0.957907
vt 0.468235 0.957907
vt 0.486296 0.958132
vt 0.486248 0.975270
vt 0.412524 0.976300
vt 0.404270 0.978256
vt 0.403311 0.961467
vt 0.403311 0.961467
vt 0.410968 0.959383
vt 0.412524 0.976300
vt 0.390278 0.977838
vt 0.385543 0.977592
vt 0.385509 0.960391
vt 0.385509 0.960391
vt 0.390431 0.960325
vt 0.390278 0.977838
vt 0.003936 0.081031
vt 0.004189 0.080648
vt 0.382249 0.066274
vt 0.382249 0.066274
vt 0.383649 0.075474
vt 0.003936 0.081031
vt 0.393219 0.078496
vt 0.392431 0.071389
vt 0.398530 0.065989
vt 0.398530 0.065989
vt 0.399576 0.072609
vt 0.393219 0.078496
vt 0.404595 0.065981
vt 0.404681 0.071870
vt 0.399576 0.072609
vt 0.399576 0.072609
vt 0.398530 0.065989
vt 0.404595 0.065981
vt 0.410470 0.073008
vt 0.411203 0.067794
vt 0.417493 0.070331
vt 0.417493 0.070331
vt 0.416680 0.074879
vt 0.410470 0.073008
vt 0.416680 0.074879
vt 0.417493 0.070331
vt 0.422559 0.070097
vt 0.422559 0.070097
vt 0.422580 0.076032
vt 0.416680 0.074879
vt 0.422580 0.076032
vt 0.422559 0.070097
vt 0.435628 0.069954
vt 0.435628 0.069954
vt 0.435409 0.074776
vt 0.422580 0.076032
vt 0.435409 0.074776
vt 0.435628 0.069954
vt 0.452418 0.069722
vt 0.452418 0.069722
vt 0.451988 0.074237
vt 0.435409 0.074776
vt 0.451988 0.074237
vt 0.452418 0.069722
vt 0.469898 0.069629
vt 0.469898 0.069629
vt 0.469645 0.073969
vt 0.451988 0.074237
vt 0.469645 0.073969
vt 0.469898 0.069629
vt 0.488090 0.069672
vt 0.488090 0.069672
vt 0.488088 0.073943
vt 0.469645 0.073969
vt 0.005099 0.084932
vt 0.003973 0.081949
vt 0.384159 0.081113
vt 0.384159 0.081113
vt 0.383865 0.084475
vt 0.005099 0.084932
vt 0.400647 0.080862
vt 0.393562 0.083604
vt 0.393289 0.082617
vt 0.393289 0.082617
vt 0.400261 0.077323
vt 0.400647 0.080862
vt 0.404698 0.076176
vt 0.409744 0.076848
vt 0.409272 0.079819
vt 0.409272 0.079819
vt 0.404654 0.079687
vt 0.404698 0.076176
vt 0.415402 0.080621
vt 0.409272 0.079819
vt 0.409744 0.076848
vt 0.409744 0.076848
vt 0.415863 0.078350
vt 0.415402 0.080621
vt 0.422769 0.081089
vt 0.415402 0.080621
vt 0.415863 0.078350
vt 0.415863 0.078350
vt 0.422747 0.079464
vt 0.422769 0.081089
vt 0.435403 0.080028
vt 0.422769 0.081089
vt 0.422747 0.079464
vt 0.422747 0.079464
vt 0.435233 0.077303
vt 0.435403 0.080028
vt 0.451773 0.079426
vt 0.435403 0.080028
vt 0.435233 0.077303
vt 0.435233 0.077303
vt 0.451726 0.076605
vt 0.451773 0.079426
vt 0.469495 0.079089
vt 0.451773 0.079426
vt 0.451726 0.076605
vt 0.451726 0.076605
vt 0.469491 0.076233
vt 0.469495 0.079089
vt 0.488074 0.079059
vt 0.469495 0.079089
vt 0.469491 0.076233
vt 0.469491 0.076233
vt 0.488086 0.076181
vt 0.488074 0.079059
vt 0.381592 0.063328
vt 0.005636 0.063884
vt 0.007741 0.060996
vt 0.007741 0.060996
vt 0.381525 0.060874
vt 0.381592 0.063328
vt 0.391712 0.061343
vt 0.397858 0.060029
vt 0.397986 0.062218
vt 0.397986 0.062218
vt 0.391971 0.064904
vt 0.391712 0.061343
vt 0.404766 0.060432
vt 0.404606 0.062681
vt 0.397986 0.062218
vt 0.397986 0.062218
vt 0.397858 0.060029
vt 0.404766 0.060432
vt 0.412517 0.062378
vt 0.418764 0.064197
vt 0.418246 0.067210
vt 0.418246 0.067210
vt 0.412021 0.064976
vt 0.412517 0.062378
vt 0.418764 0.064197
vt 0.422729 0.064815
vt 0.422608 0.067996
vt 0.422608 0.067996
vt 0.418246 0.067210
vt 0.418764 0.064197
vt 0.422729 0.064815
vt 0.435518 0.064692
vt 0.435521 0.067329
vt 0.435521 0.067329
vt 0.422608 0.067996
vt 0.422729 0.064815
vt 0.435518 0.064692
vt 0.452448 0.064326
vt 0.452455 0.066964
vt 0.452455 0.066964
vt 0.435521 0.067329
vt 0.435518 0.064692
vt 0.452448 0.064326
vt 0.470018 0.064275
vt 0.470033 0.067016
vt 0.470033 0.067016
vt 0.452455 0.066964
vt 0.452448 0.064326
vt 0.470018 0.064275
vt 0.488086 0.064355
vt 0.488087 0.067097
vt 0.488087 0.067097
vt 0.470033 0.067016
vt 0.470018 0.064275
vt 0.003973 0.081949
vt 0.003936 0.081031
vt 0.383649 0.075474
vt 0.383649 0.075474
vt 0.384159 0.081113
vt 0.003973 0.081949
vt 0.400261 0.077323
vt 0.393289 0.082617
vt 0.393219 0.078496
vt 0.393219 0.078496
vt 0.399576 0.072609
vt 0.400261 0.077323
vt 0.404681 0.071870
vt 0.410470 0.073008
vt 0.409744 0.076848
vt 0.409744 0.076848
vt 0.404698 0.076176
vt 0.404681 0.071870
vt 0.415863 0.078350
vt 0.409744 0.076848
vt 0.410470 0.073008
vt 0.410470 0.073008
vt 0.416680 0.074879
vt 0.415863 0.078350
vt 0.422747 0.079464
vt 0.415863 0.078350
vt 0.416680 0.074879
vt 0.416680 0.074879
vt 0.422580 0.076032
vt 0.422747 0.079464
vt 0.435233 0.077303
vt 0.422747 0.079464
vt 0.422580 0.076032
vt 0.422580 0.076032
vt 0.435409 0.074776
vt 0.435233 0.077303
vt 0.451726 0.076605
vt 0.435233 0.077303
vt 0.435409 0.074776
vt 0.435409 0.074776
vt 0.451988 0.074237
vt 0.451726 0.076605
vt 0.469491 0.076233
vt 0.451726 0.076605
vt 0.451988 0.074237
vt 0.451988 0.074237
vt 0.469645 0.073969
vt 0.469491 0.076233
vt 0.488086 0.076181
vt 0.469491 0.076233
vt 0.469645 0.073969
vt 0.469645 0.073969
vt 0.488088 0.073943
vt 0.488086 0.076181
vt 0.382249 0.066274
vt 0.004189 0.080648
vt 0.005636 0.063884
vt 0.005636 0.063884
vt 0.381592 0.063328
vt 0.382249 0.066274
vt 0.391971 0.064904
vt 0.397986 0.062218
vt 0.398530 0.065989
vt 0.398530 0.065989
vt 0.392431 0.071389
vt 0.391971 0.064904
vt 0.404606 0.062681
vt 0.404595 0.065981
vt 0.398530 0.065989
vt 0.398530 0.065989
vt 0.397986 0.062218
vt 0.404606 0.062681
vt 0.412021 0.064976
vt 0.418246 0.067210
vt 0.417493 0.070331
vt 0.417493 0.070331
vt 0.411203 0.067794
vt 0.412021 0.064976
vt 0.418246 0.067210
vt 0.422608 0.067996
vt 0.422559 0.070097
vt 0.422559 0.070097
vt 0.417493 0.070331
vt 0.418246 0.067210
vt 0.422608 0.067996
vt 0.435521 0.067329
vt 0.435628 0.069954
vt 0.435628 0.069954
vt 0.422559 0.070097
vt 0.422608 0.067996
vt 0.435521 0.067329
vt 0.452455 0.066964
vt 0.452418 0.069722
vt 0.452418 0.069722
vt 0.435628 0.069954
vt 0.435521 0.067329
vt 0.452455 0.066964
vt 0.470033 0.067016
vt 0.469898 0.069629
vt 0.469898 0.069629
vt 0.452418 0.069722
vt 0.452455 0.066964
vt 0.470033 0.067016
vt 0.488087 0.067097
vt 0.488090 0.069672
vt 0.488090 0.069672
vt 0.469898 0.069629
vt 0.470033 0.067016
vt 0.404595 0.065981
vt 0.411203 0.067794
vt 0.410470 0.073008
vt 0.410470 0.073008
vt 0.404681 0.071870
vt 0.404595 0.065981
vt 0.400647 0.080862
vt 0.400261 0.077323
vt 0.404698 0.076176
vt 0.404698 0.076176
vt 0.404654 0.079687
vt 0.400647 0.080862
vt 0.404766 0.060432
vt 0.412517 0.062378
vt 0.412021 0.064976
vt 0.412021 0.064976
vt 0.404606 0.062681
vt 0.404766 0.060432
vt 0.400261 0.077323
vt 0.399576 0.072609
vt 0.404681 0.071870
vt 0.404681 0.071870
vt 0.404698 0.076176
vt 0.400261 0.077323
vt 0.404606 0.062681
vt 0.412021 0.064976
vt 0.411203 0.067794
vt 0.411203 0.067794
vt 0.404595 0.065981
vt 0.404606 0.062681
vt 0.392431 0.071389
vt 0.393219 0.078496
vt 0.388512 0.076715
vt 0.388512 0.076715
vt 0.387614 0.067355
vt 0.392431 0.071389
vt 0.393289 0.082617
vt 0.393562 0.083604
vt 0.388776 0.084113
vt 0.388776 0.084113
vt 0.388898 0.081709
vt 0.393289 0.082617
vt 0.391712 0.061343
vt 0.391971 0.064904
vt 0.386869 0.063964
vt 0.386869 0.063964
vt 0.386704 0.061163
vt 0.391712 0.061343
vt 0.393219 0.078496
vt 0.393289 0.082617
vt 0.388898 0.081709
vt 0.388898 0.081709
vt 0.388512 0.076715
vt 0.393219 0.078496
vt 0.391971 0.064904
vt 0.392431 0.071389
vt 0.387614 0.067355
vt 0.387614 0.067355
vt 0.386869 0.063964
vt 0.391971 0.064904
vt 0.021424 0.043771
vt 0.381857 0.043810
vt 0.381525 0.060874
vt 0.381525 0.060874
vt 0.007741 0.060996
vt 0.021424 0.043771
vt 0.398020 0.043210
vt 0.397858 0.060029
vt 0.391712 0.061343
vt 0.391712 0.061343
vt 0.391604 0.043826
vt 0.398020 0.043210
vt 0.405702 0.043599
vt 0.404766 0.060432
vt 0.397858 0.060029
vt 0.397858 0.060029
vt 0.398020 0.043210
vt 0.405702 0.043599
vt 0.420111 0.047053
vt 0.418764 0.064197
vt 0.412517 0.062378
vt 0.412517 0.062378
vt 0.414010 0.045447
vt 0.420111 0.047053
vt 0.423348 0.047523
vt 0.422729 0.064815
vt 0.418764 0.064197
vt 0.418764 0.064197
vt 0.420111 0.047053
vt 0.423348 0.047523
vt 0.435543 0.047630
vt 0.435518 0.064692
vt 0.422729 0.064815
vt 0.422729 0.064815
vt 0.423348 0.047523
vt 0.435543 0.047630
vt 0.452352 0.047250
vt 0.452448 0.064326
vt 0.435518 0.064692
vt 0.435518 0.064692
vt 0.435543 0.047630
vt 0.452352 0.047250
vt 0.469985 0.047141
vt 0.470018 0.064275
vt 0.452448 0.064326
vt 0.452448 0.064326
vt 0.452352 0.047250
vt 0.469985 0.047141
vt 0.488134 0.047217
vt 0.488086 0.064355
vt 0.470018 0.064275
vt 0.470018 0.064275
vt 0.469985 0.047141
vt 0.488134 0.047217
vt 0.414010 0.045447
vt 0.412517 0.062378
vt 0.404766 0.060432
vt 0.404766 0.060432
vt 0.405702 0.043599
vt 0.414010 0.045447
vt 0.391604 0.043826
vt 0.391712 0.061343
vt 0.386704 0.061163
vt 0.386704 0.061163
vt 0.386823 0.043978
vt 0.391604 0.043826
vt 0.000449 0.084921
vt 0.000378 0.936350
vt -0.001613 0.938537
vt -0.001613 0.938537
vt -0.001613 0.082721
vt 0.000449 0.084921
vt -0.001613 0.082721
vt -0.001613 0.938537
vt -0.002527 0.939334
vt -0.002527 0.939334
vt -0.002527 0.081911
vt -0.001613 0.082721
vt -0.003034 0.939328
vt -0.003034 0.081906
vt -0.002527 0.081911
vt -0.002527 0.081911
vt -0.002527 0.939334
vt -0.003034 0.939328
vt 0.005099 0.084932
vt 0.383865 0.084475
vt 0.383632 0.937102
vt 0.383632 0.937102
vt 0.004966 0.936668
vt 0.005099 0.084932
vt 0.399256 0.941126
vt 0.392811 0.938128
vt 0.393562 0.083604
vt 0.393562 0.083604
vt 0.400647 0.080862
vt 0.399256 0.941126
vt 0.407074 0.941830
vt 0.402752 0.942195
vt 0.404654 0.079687
vt 0.404654 0.079687
vt 0.409272 0.079819
vt 0.407074 0.941830
vt 0.413203 0.940890
vt 0.407074 0.941830
vt 0.409272 0.079819
vt 0.409272 0.079819
vt 0.415402 0.080621
vt 0.413203 0.940890
vt 0.420740 0.940404
vt 0.413203 0.940890
vt 0.415402 0.080621
vt 0.415402 0.080621
vt 0.422769 0.081089
vt 0.420740 0.940404
vt 0.433515 0.941623
vt 0.420740 0.940404
vt 0.422769 0.081089
vt 0.422769 0.081089
vt 0.435403 0.080028
vt 0.433515 0.941623
vt 0.449958 0.942490
vt 0.433515 0.941623
vt 0.435403 0.080028
vt 0.435403 0.080028
vt 0.451773 0.079426
vt 0.449958 0.942490
vt 0.467717 0.943106
vt 0.449958 0.942490
vt 0.451773 0.079426
vt 0.451773 0.079426
vt 0.469495 0.079089
vt 0.467717 0.943106
vt 0.467717 0.943106
vt 0.469495 0.079089
vt 0.488074 0.079059
vt 0.488074 0.079059
vt 0.486307 0.943429
vt 0.467717 0.943106
vt 0.402752 0.942195
vt 0.399256 0.941126
vt 0.400647 0.080862
vt 0.400647 0.080862
vt 0.404654 0.079687
vt 0.402752 0.942195
vt -0.015028 0.936108
vt -0.015028 0.085113
vt -0.013035 0.082705
vt -0.013035 0.082705
vt -0.013035 0.938521
vt -0.015028 0.936108
vt -0.013035 0.938521
vt -0.013035 0.082705
vt -0.003034 0.081906
vt -0.003034 0.081906
vt -0.003034 0.939328
vt -0.013035 0.938521
vt 0.393562 0.083604
vt 0.392811 0.938128
vt 0.388393 0.937651
vt 0.388393 0.937651
vt 0.388776 0.084113
vt 0.393562 0.083604
vt -0.028806 0.918977
vt -0.028807 0.102242
vt -0.015028 0.085113
vt -0.015028 0.085113
vt -0.015028 0.936108
vt -0.028806 0.918977
vt 0.003371 0.940683
vt -0.001630 0.941180
vt -0.001594 0.940630
vt -0.001594 0.940630
vt 0.003270 0.940399
vt 0.003371 0.940683
vt 0.382911 0.945863
vt 0.387687 0.944931
vt 0.386545 0.954207
vt 0.386545 0.954207
vt 0.381287 0.955033
vt 0.382911 0.945863
vt 0.003533 0.939575
vt -0.001259 0.939304
vt 0.000378 0.936350
vt 0.000378 0.936350
vt 0.004966 0.936668
vt 0.003533 0.939575
vt 0.383632 0.937102
vt 0.388393 0.937651
vt 0.388263 0.940035
vt 0.388263 0.940035
vt 0.383654 0.940301
vt 0.383632 0.937102
vt 0.001824 0.960505
vt -0.000170 0.957949
vt 0.004583 0.957441
vt 0.004583 0.957441
vt 0.006621 0.960348
vt 0.001824 0.960505
vt 0.380520 0.957994
vt 0.385725 0.957578
vt 0.385509 0.960391
vt 0.385509 0.960391
vt 0.380391 0.960482
vt 0.380520 0.957994
vt 0.003270 0.940399
vt -0.001594 0.940630
vt -0.001259 0.939304
vt -0.001259 0.939304
vt 0.003533 0.939575
vt 0.003270 0.940399
vt 0.383654 0.940301
vt 0.388263 0.940035
vt 0.387687 0.944931
vt 0.387687 0.944931
vt 0.382911 0.945863
vt 0.383654 0.940301
vt -0.000170 0.957949
vt -0.001630 0.941180
vt 0.003371 0.940683
vt 0.003371 0.940683
vt 0.004583 0.957441
vt -0.000170 0.957949
vt 0.381287 0.955033
vt 0.386545 0.954207
vt 0.385725 0.957578
vt 0.385725 0.957578
vt 0.380520 0.957994
vt 0.381287 0.955033
vt 0.380391 0.960482
vt 0.385509 0.960391
vt 0.385543 0.977592
vt 0.385543 0.977592
vt 0.380634 0.977569
vt 0.380391 0.960482
vt 0.015636 0.977564
vt 0.001824 0.960505
vt 0.006621 0.960348
vt 0.006621 0.960348
vt 0.020284 0.977561
vt 0.015636 0.977564
vt -0.000933 0.080184
vt -0.000863 0.079763
vt 0.004189 0.080648
vt 0.004189 0.080648
vt 0.003936 0.081031
vt -0.000933 0.080184
vt 0.387614 0.067355
vt 0.388512 0.076715
vt 0.383649 0.075474
vt 0.383649 0.075474
vt 0.382249 0.066274
vt 0.387614 0.067355
vt 0.000449 0.084921
vt -0.000825 0.081549
vt 0.003973 0.081949
vt 0.003973 0.081949
vt 0.005099 0.084932
vt 0.000449 0.084921
vt 0.388898 0.081709
vt 0.388776 0.084113
vt 0.383865 0.084475
vt 0.383865 0.084475
vt 0.384159 0.081113
vt 0.388898 0.081709
vt 0.005636 0.063884
vt 0.000909 0.063180
vt 0.002943 0.060761
vt 0.002943 0.060761
vt 0.007741 0.060996
vt 0.005636 0.063884
vt 0.386704 0.061163
vt 0.386869 0.063964
vt 0.381592 0.063328
vt 0.381592 0.063328
vt 0.381525 0.060874
vt 0.386704 0.061163
vt -0.000825 0.081549
vt -0.000933 0.080184
vt 0.003936 0.081031
vt 0.003936 0.081031
vt 0.003973 0.081949
vt -0.000825 0.081549
vt 0.388512 0.076715
vt 0.388898 0.081709
vt 0.384159 0.081113
vt 0.384159 0.081113
vt 0.383649 0.075474
vt 0.388512 0.076715
vt 0.004189 0.080648
vt -0.000863 0.079763
vt 0.000909 0.063180
vt 0.000909 0.063180
vt 0.005636 0.063884
vt 0.004189 0.080648
vt 0.386869 0.063964
vt 0.387614 0.067355
vt 0.382249 0.066274
vt 0.382249 0.066274
vt 0.381592 0.063328
vt 0.386869 0.063964
vt 0.381857 0.043810
vt 0.386823 0.043978
vt 0.386704 0.061163
vt 0.386704 0.061163
vt 0.381525 0.060874
vt 0.381857 0.043810
vt 0.007741 0.060996
vt 0.002943 0.060761
vt 0.016762 0.043749
vt 0.016762 0.043749
vt 0.021424 0.043771
vt 0.007741 0.060996
vt 0.004966 0.936668
vt 0.000378 0.936350
vt 0.000449 0.084921
vt 0.000449 0.084921
vt 0.005099 0.084932
vt 0.004966 0.936668
vt 0.383632 0.937102
vt 0.383865 0.084475
vt 0.388776 0.084113
vt 0.388776 0.084113
vt 0.388393 0.937651
vt 0.383632 0.937102
f 1/1 2/2 3/3
f 3/4 4/5 1/6
f 5/7 6/8 7/9
f 7/10 8/11 5/12
f 9/13 10/14 8/15
f 8/16 7/17 9/18
f 11/19 12/20 13/21
f 13/22 14/23 11/24
f 14/25 13/26 15/27
f 15/28 16/29 14/30
f 16/31 15/32 17/33
f 17/34 18/35 16/36
f 18/37 17/38 19/39
f 19/40 20/41 18/42
f 20/43 19/44 21/45
f 21/46 22/47 20/48
f 22/49 21/50 23/51
f 23/52 24/53 22/54
f 25/55 26/56 27/57
f 27/58 28/59 25/60
f 29/61 30/62 31/63
f 31/64 32/65 29/66
f 33/67 34/68 35/69
f 35/70 36/71 33/72
f 37/73 35/74 34/75
f 34/76 38/77 37/78
f 39/79 37/80 38/81
f 38/82 40/83 39/84
f 41/85 39/86 40/87
f 40/88 42/89 41/90
f 43/91 41/92 42/93
f 42/94 44/95 43/96
f 45/97 43/98 44/99
f 44/100 46/101 45/102
f 47/103 45/104 46/105
f 46/106 48/107 47/108
f 49/109 50/110 51/111
f 51/112 52/113 49/114
f 53/115 54/116 55/117
f 55/118 56/119 53/120
f 57/121 58/122 55/123
f 55/124 54/125 57/126
f 59/127 60/128 61/129
f 61/130 62/131 59/132
f 60/133 63/134 64/135
f 64/136 61/137 60/138
f 63/139 65/140 66/141
f 66/142 64/143 63/144
f 65/145 67/146 68/147
f 68/148 66/149 65/150
f 67/151 69/152 70/153
f 70/154 68/155 67/156
f 69/157 71/158 72/159
f 72/160 70/161 69/162
f 2/163 25/164 28/165
f 28/166 3/167 2/168
f 32/169 31/170 5/171
f 5/172 8/173 32/174
f 10/175 11/176 34/177
f 34/178 33/179 10/180
f 38/181 34/182 11/183
f 11/184 14/185 38/186
f 40/187 38/188 14/189
f 14/190 16/191 40/192
f 42/193 40/194 16/195
f 16/196 18/197 42/198
f 44/199 42/200 18/201
f 18/202 20/203 44/204
f 46/205 44/206 20/207
f 20/208 22/209 46/210
f 48/211 46/212 22/213
f 22/214 24/215 48/216
f 50/217 1/218 4/219
f 4/220 51/221 50/222
f 56/223 55/224 7/225
f 7/226 6/227 56/228
f 58/229 9/230 7/231
f 7/232 55/233 58/234
f 62/235 61/236 13/237
f 13/238 12/239 62/240
f 61/241 64/242 15/243
f 15/244 13/245 61/246
f 64/247 66/248 17/249
f 17/250 15/251 64/252
f 66/253 68/254 19/255
f 19/256 17/257 66/258
f 68/259 70/260 21/261
f 21/262 19/263 68/264
f 70/265 72/266 23/267
f 23/268 21/269 70/270
f 9/271 12/272 11/273
f 11/274 10/275 9/276
f 29/277 32/278 33/279
f 33/280 36/281 29/282
f 57/283 59/284 62/285
f 62/286 58/287 57/288
f 32/289 8/290 10/291
f 10/292 33/293 32/294
f 58/295 62/296 12/297
f 12/298 9/299 58/300
f 6/301 5/302 73/303
f 73/304 74/305 6/306
f 31/307 30/308 75/309
f 75/310 76/311 31/312
f 53/313 56/314 77/315
f 77/316 78/317 53/318
f 5/319 31/320 76/321
f 76/322 73/323 5/324
f 56/325 6/326 74/327
f 74/328 77/329 56/330
f 49/331 52/332 79/333
f 79/334 80/335 49/336
f 81/337 54/338 53/339
f 53/340 82/341 81/342
f 83/343 57/344 54/345
f 54/346 81/347 83/348
f 84/349 60/350 59/351
f 59/352 85/353 84/354
f 86/355 63/356 60/357
f 60/358 84/359 86/360
f 87/361 65/362 63/363
f 63/364 86/365 87/366
f 88/367 67/368 65/369
f 65/370 87/371 88/372
f 89/373 69/374 67/375
f 67/376 88/377 89/378
f 90/379 71/380 69/381
f 69/382 89/383 90/384
f 85/385 59/386 57/387
f 57/388 83/389 85/390
f 82/391 53/392 78/393
f 78/394 91/395 82/396
f 92/397 93/398 94/399
f 94/400 95/401 92/402
f 96/403 97/404 98/405
f 98/406 99/407 96/408
f 100/409 98/410 97/411
f 97/412 101/413 100/414
f 102/415 103/416 104/417
f 104/418 105/419 102/420
f 103/421 106/422 107/423
f 107/424 104/425 103/426
f 106/427 108/428 109/429
f 109/430 107/431 106/432
f 108/433 110/434 111/435
f 111/436 109/437 108/438
f 110/439 112/440 113/441
f 113/442 111/443 110/444
f 112/445 114/446 115/447
f 115/448 113/449 112/450
f 116/451 117/452 118/453
f 118/454 119/455 116/456
f 120/457 121/458 122/459
f 122/460 123/461 120/462
f 124/463 125/464 126/465
f 126/466 127/467 124/468
f 128/469 129/470 127/471
f 127/472 126/473 128/474
f 130/475 131/476 129/477
f 129/478 128/479 130/480
f 132/481 133/482 131/483
f 131/484 130/485 132/486
f 134/487 135/488 133/489
f 133/490 132/491 134/492
f 136/493 137/494 135/495
f 135/496 134/497 136/498
f 138/499 139/500 137/501
f 137/502 136/503 138/504
f 140/505 141/506 142/507
f 142/508 143/509 140/510
f 144/511 145/512 146/513
f 146/514 147/515 144/516
f 148/517 147/518 146/519
f 146/520 149/521 148/522
f 150/523 151/524 152/525
f 152/526 153/527 150/528
f 153/529 152/530 154/531
f 154/532 155/533 153/534
f 155/535 154/536 156/537
f 156/538 157/539 155/540
f 157/541 156/542 158/543
f 158/544 159/545 157/546
f 159/547 158/548 160/549
f 160/550 161/551 159/552
f 161/553 160/554 162/555
f 162/556 163/557 161/558
f 119/559 118/560 93/561
f 93/562 92/563 119/564
f 121/565 97/566 96/567
f 96/568 122/569 121/570
f 101/571 124/572 127/573
f 127/574 102/575 101/576
f 129/577 103/578 102/579
f 102/580 127/581 129/582
f 131/583 106/584 103/585
f 103/586 129/587 131/588
f 133/589 108/590 106/591
f 106/592 131/593 133/594
f 135/595 110/596 108/597
f 108/598 133/599 135/600
f 137/601 112/602 110/603
f 110/604 135/605 137/606
f 139/607 114/608 112/609
f 112/610 137/611 139/612
f 94/613 140/614 143/615
f 143/616 95/617 94/618
f 145/619 99/620 98/621
f 98/622 146/623 145/624
f 149/625 146/626 98/627
f 98/628 100/629 149/630
f 151/631 105/632 104/633
f 104/634 152/635 151/636
f 152/637 104/638 107/639
f 107/640 154/641 152/642
f 154/643 107/644 109/645
f 109/646 156/647 154/648
f 156/649 109/650 111/651
f 111/652 158/653 156/654
f 158/655 111/656 113/657
f 113/658 160/659 158/660
f 160/661 113/662 115/663
f 115/664 162/665 160/666
f 100/667 101/668 102/669
f 102/670 105/671 100/672
f 120/673 125/674 124/675
f 124/676 121/677 120/678
f 148/679 149/680 151/681
f 151/682 150/683 148/684
f 121/685 124/686 101/687
f 101/688 97/689 121/690
f 149/691 100/692 105/693
f 105/694 151/695 149/696
f 99/697 164/698 165/699
f 165/700 96/701 99/702
f 122/703 166/704 167/705
f 167/706 123/707 122/708
f 144/709 168/710 169/711
f 169/712 145/713 144/714
f 96/715 165/716 166/717
f 166/718 122/719 96/720
f 145/721 169/722 164/723
f 164/724 99/725 145/726
f 170/727 142/728 141/729
f 141/730 171/731 170/732
f 172/733 173/734 144/735
f 144/736 147/737 172/738
f 174/739 172/740 147/741
f 147/742 148/743 174/744
f 175/745 176/746 150/747
f 150/748 153/749 175/750
f 177/751 175/752 153/753
f 153/754 155/755 177/756
f 178/757 177/758 155/759
f 155/760 157/761 178/762
f 179/763 178/764 157/765
f 157/766 159/767 179/768
f 180/769 179/770 159/771
f 159/772 161/773 180/774
f 181/775 180/776 161/777
f 161/778 163/779 181/780
f 176/781 174/782 148/783
f 148/784 150/785 176/786
f 173/787 182/788 168/789
f 168/790 144/791 173/792
f 183/793 184/794 185/795
f 185/796 186/797 183/798
f 184/799 187/800 188/801
f 188/802 185/803 184/804
f 189/805 188/806 187/807
f 187/808 190/809 189/810
f 27/811 26/812 117/813
f 117/814 116/815 27/816
f 120/817 123/818 30/819
f 30/820 29/821 120/822
f 125/823 36/824 35/825
f 35/826 126/827 125/828
f 128/829 126/830 35/831
f 35/832 37/833 128/834
f 130/835 128/836 37/837
f 37/838 39/839 130/840
f 132/841 130/842 39/843
f 39/844 41/845 132/846
f 134/847 132/848 41/849
f 41/850 43/851 134/852
f 136/853 134/854 43/855
f 43/856 45/857 136/858
f 138/859 136/860 45/861
f 45/862 47/863 138/864
f 125/865 120/866 29/867
f 29/868 36/869 125/870
f 191/871 192/872 193/873
f 193/874 194/875 191/876
f 192/877 189/878 190/879
f 190/880 193/881 192/882
f 75/883 30/884 123/885
f 123/886 167/887 75/888
f 195/889 191/890 194/891
f 194/892 196/893 195/894
f 4/895 3/896 188/897
f 188/898 189/899 4/900
f 2/901 1/902 74/903
f 74/904 73/905 2/906
f 28/907 27/908 186/909
f 186/910 185/911 28/912
f 26/913 25/914 76/915
f 76/916 75/917 26/918
f 191/919 52/920 51/921
f 51/922 192/923 191/924
f 50/925 49/926 78/927
f 78/928 77/929 50/930
f 3/931 28/932 185/933
f 185/934 188/935 3/936
f 25/937 2/938 73/939
f 73/940 76/941 25/942
f 192/943 51/944 4/945
f 4/946 189/947 192/948
f 1/949 50/950 77/951
f 77/952 74/953 1/954
f 49/955 80/956 91/957
f 91/958 78/959 49/960
f 195/961 79/962 52/963
f 52/964 191/965 195/966
f 187/967 92/968 95/969
f 95/970 190/971 187/972
f 164/973 94/974 93/975
f 93/976 165/977 164/978
f 183/979 116/980 119/981
f 119/982 184/983 183/984
f 166/985 118/986 117/987
f 117/988 167/989 166/990
f 143/991 142/992 194/993
f 194/994 193/995 143/996
f 168/997 141/998 140/999
f 140/1000 169/1001 168/1002
f 184/1003 119/1004 92/1005
f 92/1006 187/1007 184/1008
f 165/1009 93/1010 118/1011
f 118/1012 166/1013 165/1014
f 95/1015 143/1016 193/1017
f 193/1018 190/1019 95/1020
f 169/1021 140/1022 94/1023
f 94/1024 164/1025 169/1026
f 171/1027 141/1028 168/1029
f 168/1030 182/1031 171/1032
f 142/1033 170/1034 196/1035
f 196/1036 194/1037 142/1038
f 27/1039 116/1040 183/1041
f 183/1042 186/1043 27/1044
f 117/1045 26/1046 75/1047
f 75/1048 167/1049 117/1050
f 197/1051 198/1052 199/1053
f 199/1054 200/1055 197/1056
f 201/1057 202/1058 203/1059
f 203/1060 204/1061 201/1062
f 205/1063 203/1064 202/1065
f 202/1066 206/1067 205/1068
f 207/1069 208/1070 209/1071
f 209/1072 210/1073 207/1074
f 208/1075 211/1076 212/1077
f 212/1078 209/1079 208/1080
f 211/1081 213/1082 214/1083
f 214/1084 212/1085 211/1086
f 213/1087 215/1088 216/1089
f 216/1090 214/1091 213/1092
f 215/1093 217/1094 218/1095
f 218/1096 216/1097 215/1098
f 217/1099 24/1100 23/1101
f 23/1102 218/1103 217/1104
f 219/1105 220/1106 221/1107
f 221/1108 222/1109 219/1110
f 223/1111 224/1112 225/1113
f 225/1114 226/1115 223/1116
f 227/1117 228/1118 229/1119
f 229/1120 230/1121 227/1122
f 231/1123 232/1124 230/1125
f 230/1126 229/1127 231/1128
f 233/1129 234/1130 232/1131
f 232/1132 231/1133 233/1134
f 235/1135 236/1136 234/1137
f 234/1138 233/1139 235/1140
f 237/1141 238/1142 236/1143
f 236/1144 235/1145 237/1146
f 239/1147 240/1148 238/1149
f 238/1150 237/1151 239/1152
f 47/1153 48/1154 240/1155
f 240/1156 239/1157 47/1158
f 241/1159 242/1160 243/1161
f 243/1162 244/1163 241/1164
f 245/1165 246/1166 247/1167
f 247/1168 248/1169 245/1170
f 249/1171 248/1172 247/1173
f 247/1174 250/1175 249/1176
f 251/1177 252/1178 253/1179
f 253/1180 254/1181 251/1182
f 254/1183 253/1184 255/1185
f 255/1186 256/1187 254/1188
f 256/1189 255/1190 257/1191
f 257/1192 258/1193 256/1194
f 258/1195 257/1196 259/1197
f 259/1198 260/1199 258/1200
f 260/1201 259/1202 261/1203
f 261/1204 262/1205 260/1206
f 262/1207 261/1208 72/1209
f 72/1210 71/1211 262/1212
f 200/1213 199/1214 220/1215
f 220/1216 219/1217 200/1218
f 224/1219 202/1220 201/1221
f 201/1222 225/1223 224/1224
f 206/1225 227/1226 230/1227
f 230/1228 207/1229 206/1230
f 232/1231 208/1232 207/1233
f 207/1234 230/1235 232/1236
f 234/1237 211/1238 208/1239
f 208/1240 232/1241 234/1242
f 236/1243 213/1244 211/1245
f 211/1246 234/1247 236/1248
f 238/1249 215/1250 213/1251
f 213/1252 236/1253 238/1254
f 240/1255 217/1256 215/1257
f 215/1258 238/1259 240/1260
f 48/1261 24/1262 217/1263
f 217/1264 240/1265 48/1266
f 244/1267 243/1268 198/1269
f 198/1270 197/1271 244/1272
f 246/1273 204/1274 203/1275
f 203/1276 247/1277 246/1278
f 250/1279 247/1280 203/1281
f 203/1282 205/1283 250/1284
f 252/1285 210/1286 209/1287
f 209/1288 253/1289 252/1290
f 253/1291 209/1292 212/1293
f 212/1294 255/1295 253/1296
f 255/1297 212/1298 214/1299
f 214/1300 257/1301 255/1302
f 257/1303 214/1304 216/1305
f 216/1306 259/1307 257/1308
f 259/1309 216/1310 218/1311
f 218/1312 261/1313 259/1314
f 261/1315 218/1316 23/1317
f 23/1318 72/1319 261/1320
f 205/1321 206/1322 207/1323
f 207/1324 210/1325 205/1326
f 223/1327 228/1328 227/1329
f 227/1330 224/1331 223/1332
f 249/1333 250/1334 252/1335
f 252/1336 251/1337 249/1338
f 224/1339 227/1340 206/1341
f 206/1342 202/1343 224/1344
f 250/1345 205/1346 210/1347
f 210/1348 252/1349 250/1350
f 204/1351 263/1352 264/1353
f 264/1354 201/1355 204/1356
f 225/1357 265/1358 266/1359
f 266/1360 226/1361 225/1362
f 245/1363 267/1364 268/1365
f 268/1366 246/1367 245/1368
f 201/1369 264/1370 265/1371
f 265/1372 225/1373 201/1374
f 246/1375 268/1376 263/1377
f 263/1378 204/1379 246/1380
f 241/1381 269/1382 270/1383
f 270/1384 242/1385 241/1386
f 271/1387 272/1388 245/1389
f 245/1390 248/1391 271/1392
f 273/1393 271/1394 248/1395
f 248/1396 249/1397 273/1398
f 274/1399 275/1400 251/1401
f 251/1402 254/1403 274/1404
f 276/1405 274/1406 254/1407
f 254/1408 256/1409 276/1410
f 277/1411 276/1412 256/1413
f 256/1414 258/1415 277/1416
f 278/1417 277/1418 258/1419
f 258/1420 260/1421 278/1422
f 279/1423 278/1424 260/1425
f 260/1426 262/1427 279/1428
f 90/1429 279/1430 262/1431
f 262/1432 71/1433 90/1434
f 275/1435 273/1436 249/1437
f 249/1438 251/1439 275/1440
f 272/1441 280/1442 267/1443
f 267/1444 245/1445 272/1446
f 281/1447 282/1448 283/1449
f 283/1450 284/1451 281/1452
f 285/1453 286/1454 287/1455
f 287/1456 288/1457 285/1458
f 289/1459 290/1460 288/1461
f 288/1462 287/1463 289/1464
f 291/1465 292/1466 293/1467
f 293/1468 294/1469 291/1470
f 294/1471 293/1472 295/1473
f 295/1474 296/1475 294/1476
f 296/1477 295/1478 297/1479
f 297/1480 298/1481 296/1482
f 298/1483 297/1484 299/1485
f 299/1486 300/1487 298/1488
f 300/1489 299/1490 301/1491
f 301/1492 302/1493 300/1494
f 302/1495 301/1496 115/1497
f 115/1498 114/1499 302/1500
f 303/1501 304/1502 305/1503
f 305/1504 306/1505 303/1506
f 307/1507 308/1508 309/1509
f 309/1510 310/1511 307/1512
f 311/1513 312/1514 313/1515
f 313/1516 314/1517 311/1518
f 315/1519 313/1520 312/1521
f 312/1522 316/1523 315/1524
f 317/1525 315/1526 316/1527
f 316/1528 318/1529 317/1530
f 319/1531 317/1532 318/1533
f 318/1534 320/1535 319/1536
f 321/1537 319/1538 320/1539
f 320/1540 322/1541 321/1542
f 323/1543 321/1544 322/1545
f 322/1546 324/1547 323/1548
f 138/1549 323/1550 324/1551
f 324/1552 139/1553 138/1554
f 325/1555 326/1556 327/1557
f 327/1558 328/1559 325/1560
f 329/1561 330/1562 331/1563
f 331/1564 332/1565 329/1566
f 333/1567 334/1568 331/1569
f 331/1570 330/1571 333/1572
f 335/1573 336/1574 337/1575
f 337/1576 338/1577 335/1578
f 336/1579 339/1580 340/1581
f 340/1582 337/1583 336/1584
f 339/1585 341/1586 342/1587
f 342/1588 340/1589 339/1590
f 341/1591 343/1592 344/1593
f 344/1594 342/1595 341/1596
f 343/1597 345/1598 346/1599
f 346/1600 344/1601 343/1602
f 345/1603 163/1604 162/1605
f 162/1606 346/1607 345/1608
f 304/1609 281/1610 284/1611
f 284/1612 305/1613 304/1614
f 310/1615 309/1616 285/1617
f 285/1618 288/1619 310/1620
f 290/1621 291/1622 312/1623
f 312/1624 311/1625 290/1626
f 316/1627 312/1628 291/1629
f 291/1630 294/1631 316/1632
f 318/1633 316/1634 294/1635
f 294/1636 296/1637 318/1638
f 320/1639 318/1640 296/1641
f 296/1642 298/1643 320/1644
f 322/1645 320/1646 298/1647
f 298/1648 300/1649 322/1650
f 324/1651 322/1652 300/1653
f 300/1654 302/1655 324/1656
f 139/1657 324/1658 302/1659
f 302/1660 114/1661 139/1662
f 283/1663 282/1664 326/1665
f 326/1666 325/1667 283/1668
f 332/1669 331/1670 287/1671
f 287/1672 286/1673 332/1674
f 334/1675 289/1676 287/1677
f 287/1678 331/1679 334/1680
f 338/1681 337/1682 293/1683
f 293/1684 292/1685 338/1686
f 337/1687 340/1688 295/1689
f 295/1690 293/1691 337/1692
f 340/1693 342/1694 297/1695
f 297/1696 295/1697 340/1698
f 342/1699 344/1700 299/1701
f 299/1702 297/1703 342/1704
f 344/1705 346/1706 301/1707
f 301/1708 299/1709 344/1710
f 346/1711 162/1712 115/1713
f 115/1714 301/1715 346/1716
f 289/1717 292/1718 291/1719
f 291/1720 290/1721 289/1722
f 307/1723 310/1724 311/1725
f 311/1726 314/1727 307/1728
f 333/1729 335/1730 338/1731
f 338/1732 334/1733 333/1734
f 310/1735 288/1736 290/1737
f 290/1738 311/1739 310/1740
f 334/1741 338/1742 292/1743
f 292/1744 289/1745 334/1746
f 286/1747 285/1748 347/1749
f 347/1750 348/1751 286/1752
f 309/1753 308/1754 349/1755
f 349/1756 350/1757 309/1758
f 329/1759 332/1760 351/1761
f 351/1762 352/1763 329/1764
f 285/1765 309/1766 350/1767
f 350/1768 347/1769 285/1770
f 332/1771 286/1772 348/1773
f 348/1774 351/1775 332/1776
f 353/1777 354/1778 328/1779
f 328/1780 327/1781 353/1782
f 355/1783 330/1784 329/1785
f 329/1786 356/1787 355/1788
f 357/1789 333/1790 330/1791
f 330/1792 355/1793 357/1794
f 358/1795 336/1796 335/1797
f 335/1798 359/1799 358/1800
f 360/1801 339/1802 336/1803
f 336/1804 358/1805 360/1806
f 361/1807 341/1808 339/1809
f 339/1810 360/1811 361/1812
f 362/1813 343/1814 341/1815
f 341/1816 361/1817 362/1818
f 363/1819 345/1820 343/1821
f 343/1822 362/1823 363/1824
f 181/1825 163/1826 345/1827
f 345/1828 363/1829 181/1830
f 359/1831 335/1832 333/1833
f 333/1834 357/1835 359/1836
f 356/1837 329/1838 352/1839
f 352/1840 364/1841 356/1842
f 365/1843 366/1844 367/1845
f 367/1846 368/1847 365/1848
f 368/1849 367/1850 369/1851
f 369/1852 370/1853 368/1854
f 371/1855 372/1856 370/1857
f 370/1858 369/1859 371/1860
f 303/1861 306/1862 222/1863
f 222/1864 221/1865 303/1866
f 223/1867 226/1868 308/1869
f 308/1870 307/1871 223/1872
f 229/1873 228/1874 314/1875
f 314/1876 313/1877 229/1878
f 231/1879 229/1880 313/1881
f 313/1882 315/1883 231/1884
f 233/1885 231/1886 315/1887
f 315/1888 317/1889 233/1890
f 235/1891 233/1892 317/1893
f 317/1894 319/1895 235/1896
f 237/1897 235/1898 319/1899
f 319/1900 321/1901 237/1902
f 239/1903 237/1904 321/1905
f 321/1906 323/1907 239/1908
f 239/1909 323/1910 138/1911
f 138/1912 47/1913 239/1914
f 228/1915 223/1916 307/1917
f 307/1918 314/1919 228/1920
f 373/1921 374/1922 375/1923
f 375/1924 376/1925 373/1926
f 376/1927 375/1928 372/1929
f 372/1930 371/1931 376/1932
f 308/1933 226/1934 266/1935
f 266/1936 349/1937 308/1938
f 377/1939 378/1940 374/1941
f 374/1942 373/1943 377/1944
f 198/1945 371/1946 369/1947
f 369/1948 199/1949 198/1950
f 200/1951 264/1952 263/1953
f 263/1954 197/1955 200/1956
f 220/1957 367/1958 366/1959
f 366/1960 221/1961 220/1962
f 222/1963 266/1964 265/1965
f 265/1966 219/1967 222/1968
f 373/1969 376/1970 243/1971
f 243/1972 242/1973 373/1974
f 244/1975 268/1976 267/1977
f 267/1978 241/1979 244/1980
f 199/1981 369/1982 367/1983
f 367/1984 220/1985 199/1986
f 219/1987 265/1988 264/1989
f 264/1990 200/1991 219/1992
f 376/1993 371/1994 198/1995
f 198/1996 243/1997 376/1998
f 197/1999 263/2000 268/2001
f 268/2002 244/2003 197/2004
f 241/2005 267/2006 280/2007
f 280/2008 269/2009 241/2010
f 377/2011 373/2012 242/2013
f 242/2014 270/2015 377/2016
f 370/2017 372/2018 282/2019
f 282/2020 281/2021 370/2022
f 348/2023 347/2024 284/2025
f 284/2026 283/2027 348/2028
f 365/2029 368/2030 304/2031
f 304/2032 303/2033 365/2034
f 350/2035 349/2036 306/2037
f 306/2038 305/2039 350/2040
f 326/2041 375/2042 374/2043
f 374/2044 327/2045 326/2046
f 352/2047 351/2048 325/2049
f 325/2050 328/2051 352/2052
f 368/2053 370/2054 281/2055
f 281/2056 304/2057 368/2058
f 347/2059 350/2060 305/2061
f 305/2062 284/2063 347/2064
f 282/2065 372/2066 375/2067
f 375/2068 326/2069 282/2070
f 351/2071 348/2072 283/2073
f 283/2074 325/2075 351/2076
f 354/2077 364/2078 352/2079
f 352/2080 328/2081 354/2082
f 327/2083 374/2084 378/2085
f 378/2086 353/2087 327/2088
f 221/2089 366/2090 365/2091
f 365/2092 303/2093 221/2094
f 222/2095 306/2096 349/2097
f 349/2098 266/2099 222/2100
