# USD → MuJoCo (world-space)
v 0.003333 0.101454 -0.007339
v 0.003324 0.103718 -0.007337
v -0.016045 0.103550 0.096092
v -0.016036 0.101286 0.096090
v 0.021874 0.101614 -0.106342
v 0.021865 0.103878 -0.106340
v 0.003342 0.099369 -0.007341
v 0.021882 0.099529 -0.106344
v -0.016028 0.099201 0.096088
v 0.005020 -0.088373 -0.007300
v 0.005686 -0.088265 -0.007150
v -0.016104 -0.088362 0.109423
v -0.014398 -0.088541 0.096387
v 0.023604 -0.088213 -0.106540
v 0.026510 -0.087994 -0.118129
v 0.004473 -0.088679 -0.007423
v 0.023058 -0.088518 -0.106663
v -0.014945 -0.088847 0.096263
v 0.011232 -0.089269 -0.005910
v 0.005971 -0.089306 -0.007089
v -0.013357 -0.089438 0.096618
v -0.008115 -0.089419 0.097793
v 0.029749 -0.089125 -0.105165
v 0.024471 -0.089180 -0.106348
v 0.020775 -0.089362 -0.003766
v 0.039353 -0.089201 -0.103008
v 0.001365 -0.089530 0.099922
v 0.030247 -0.089255 -0.001638
v 0.010747 -0.089429 0.102029
v 0.048912 -0.089088 -0.100860
v 0.035190 -0.089245 -0.000529
v 0.053891 -0.089083 -0.099743
v 0.015651 -0.089414 0.103130
v 0.035827 -0.088396 -0.000385
v 0.036418 -0.088721 -0.000253
v 0.017000 -0.088888 0.103433
v 0.016409 -0.088564 0.103301
v 0.054412 -0.088235 -0.099625
v 0.055003 -0.088560 -0.099493
v 0.035131 -0.088256 -0.000541
v 0.055873 -0.087980 -0.111538
v 0.013259 -0.088348 0.116013
v 0.003998 -0.089057 -0.007531
v 0.022470 -0.088951 -0.106796
v -0.015302 -0.089167 0.096182
v 0.036849 -0.089138 -0.000157
v 0.055531 -0.088973 -0.099375
v 0.017171 -0.089255 0.103471
v 0.028047 0.101667 -0.139307
v 0.028038 0.103931 -0.139305
v 0.028013 0.103931 -0.139171
v 0.028022 0.101667 -0.139173
v 0.028137 0.101668 -0.139785
v 0.028128 0.103932 -0.139783
v 0.028055 0.099582 -0.139309
v 0.028145 0.099583 -0.139787
v 0.028030 0.099582 -0.139175
v -0.022490 0.007490 0.132464
v -0.022220 -0.060404 0.132402
v -0.022104 -0.060404 0.132319
v -0.022374 0.007491 0.132381
v -0.022591 0.007490 0.132999
v -0.022320 -0.060405 0.132938
v -0.022760 0.075251 0.132525
v -0.022860 0.075250 0.133061
v -0.022644 0.075251 0.132442
v 0.029668 -0.084447 -0.139278
v 0.029006 -0.083953 -0.139426
v 0.029084 -0.083953 -0.139311
v 0.029743 -0.084447 -0.139164
v 0.029758 -0.084446 -0.139756
v 0.029095 -0.083953 -0.139904
v 0.030329 -0.085096 -0.139131
v 0.030418 -0.085096 -0.139609
v 0.030400 -0.085107 -0.139018
v -0.021243 -0.084887 0.132577
v -0.020582 -0.085536 0.132724
v -0.020474 -0.085547 0.132639
v -0.021131 -0.084887 0.132493
v -0.021343 -0.084888 0.133113
v -0.020683 -0.085537 0.133260
v -0.021905 -0.084394 0.132429
v -0.022006 -0.084394 0.132965
v -0.021790 -0.084393 0.132346
v 0.029734 -0.088160 -0.139270
v 0.030314 -0.087905 -0.139139
v 0.029823 -0.088159 -0.139748
v 0.030403 -0.087904 -0.139617
v 0.029187 -0.088465 -0.139393
v 0.029277 -0.088465 -0.139871
v -0.021177 -0.088600 0.132585
v -0.021723 -0.088905 0.132462
v -0.021277 -0.088601 0.133121
v -0.021824 -0.088906 0.132998
v -0.020597 -0.088346 0.132716
v -0.020698 -0.088346 0.133252
v 0.035856 -0.089078 -0.137900
v 0.030572 -0.089138 -0.139084
v 0.035945 -0.089077 -0.138378
v 0.030661 -0.089137 -0.139562
v 0.045480 -0.089148 -0.135739
v 0.045569 -0.089147 -0.136217
v -0.014869 -0.089471 0.133997
v -0.005411 -0.089588 0.136121
v -0.014969 -0.089472 0.134533
v -0.005511 -0.089589 0.136657
v -0.020104 -0.089484 0.132824
v -0.020204 -0.089485 0.133360
v 0.055068 -0.089033 -0.133584
v 0.055157 -0.089033 -0.134062
v 0.060059 -0.089030 -0.132465
v 0.060149 -0.089029 -0.132942
v 0.003939 -0.089489 0.138222
v 0.008830 -0.089473 0.139319
v 0.003838 -0.089490 0.138757
v 0.008729 -0.089474 0.139855
v 0.060541 -0.088182 -0.132355
v 0.061132 -0.088507 -0.132223
v 0.060631 -0.088182 -0.132833
v 0.061222 -0.088506 -0.132701
v 0.059932 -0.087895 -0.132492
v 0.060021 -0.087894 -0.132970
v 0.009630 -0.088622 0.139500
v 0.009021 -0.088335 0.139364
v 0.009530 -0.088623 0.140036
v 0.008920 -0.088336 0.139899
v 0.010222 -0.088947 0.139632
v 0.010121 -0.088948 0.140168
v 0.060540 -0.084399 -0.132349
v 0.059885 -0.085040 -0.132497
v 0.059779 -0.085052 -0.132423
v 0.060431 -0.084400 -0.132276
v 0.060630 -0.084399 -0.132827
v 0.059975 -0.085040 -0.132975
v 0.061199 -0.083920 -0.132200
v 0.061288 -0.083920 -0.132678
v 0.061086 -0.083921 -0.132128
v 0.009630 -0.084840 0.139507
v 0.010288 -0.084361 0.139655
v 0.010212 -0.084361 0.139529
v 0.009557 -0.084840 0.139381
v 0.009529 -0.084841 0.140042
v 0.010188 -0.084362 0.140191
v 0.008974 -0.085480 0.139358
v 0.008874 -0.085481 0.139894
v 0.008905 -0.085491 0.139234
v 0.061052 0.007953 -0.132068
v 0.061323 -0.059941 -0.132129
v 0.061208 -0.059941 -0.132057
v 0.060938 0.007953 -0.131996
v 0.061142 0.007954 -0.132545
v 0.061412 -0.059940 -0.132607
v 0.060782 0.075713 -0.132006
v 0.060872 0.075714 -0.132484
v 0.060668 0.075713 -0.131935
v 0.009768 0.101249 0.139873
v 0.009759 0.103514 0.139875
v 0.009787 0.103514 0.139724
v 0.009796 0.101250 0.139722
v 0.009668 0.101248 0.140408
v 0.009659 0.103513 0.140411
v 0.009776 0.099164 0.139871
v 0.009676 0.099164 0.140407
v 0.009805 0.099165 0.139720
v 0.028784 -0.083328 -0.139474
v 0.028691 -0.059964 -0.139453
v 0.028770 -0.059964 -0.139338
v 0.028863 -0.083328 -0.139359
v 0.028873 -0.083327 -0.139952
v 0.028780 -0.059963 -0.139931
v -0.022127 -0.083768 0.132381
v -0.022010 -0.083768 0.132298
v -0.022227 -0.083769 0.132917
v 0.010505 -0.083742 0.139705
v 0.010412 -0.060381 0.139726
v 0.010334 -0.060381 0.139600
v 0.010427 -0.083742 0.139578
v 0.010404 -0.083743 0.140241
v 0.010311 -0.060382 0.140262
v 0.061416 -0.083302 -0.132150
v 0.061301 -0.083303 -0.132079
v 0.061505 -0.083302 -0.132628
v -0.020402 -0.088135 0.132760
v -0.020294 -0.088228 0.132675
v -0.020502 -0.088136 0.133296
v -0.020394 -0.087665 0.132763
v -0.020494 -0.087666 0.133299
v -0.020286 -0.087742 0.132678
v 0.030535 -0.086190 -0.139087
v 0.030605 -0.086234 -0.138974
v 0.030624 -0.086190 -0.139564
v 0.030517 -0.087225 -0.139092
v 0.030607 -0.087224 -0.139570
v 0.030588 -0.087302 -0.138979
v 0.008777 -0.086585 0.139312
v 0.008709 -0.086628 0.139187
v 0.008676 -0.086586 0.139848
v 0.008802 -0.087635 0.139316
v 0.008702 -0.087636 0.139852
v 0.008734 -0.087712 0.139191
v 0.059724 -0.087672 -0.132538
v 0.059619 -0.087765 -0.132464
v 0.059814 -0.087671 -0.133016
v 0.059713 -0.087194 -0.132540
v 0.059802 -0.087194 -0.133017
v 0.059608 -0.087272 -0.132466
v -0.022039 -0.089206 0.132390
v -0.022139 -0.089207 0.132926
v 0.028562 -0.088916 -0.139535
v 0.028651 -0.088916 -0.140013
v 0.010356 -0.089315 0.139662
v 0.010256 -0.089316 0.140197
v 0.061693 -0.088919 -0.132098
v 0.061782 -0.088918 -0.132575
v 0.035976 0.098630 -0.000017
v 0.035974 0.099391 -0.000017
v 0.054514 0.099551 -0.099020
v 0.054517 0.098790 -0.099020
v 0.016607 0.098463 0.103411
v 0.016604 0.099223 0.103412
v 0.035880 0.098555 -0.000039
v 0.016511 0.098388 0.103389
v 0.054420 0.098716 -0.099042
v 0.061002 0.098846 -0.133647
v 0.061257 0.098849 -0.135009
v 0.061257 0.098749 -0.135009
v 0.061002 0.098746 -0.133647
v 0.060999 0.099607 -0.133646
v 0.061254 0.099609 -0.135009
v 0.060780 0.098844 -0.132463
v 0.060777 0.099605 -0.132462
v 0.060780 0.098744 -0.132463
v 0.009431 0.098200 0.141735
v 0.009141 0.098197 0.143284
v 0.009141 0.098298 0.143284
v 0.009431 0.098301 0.141735
v 0.009522 0.075270 0.141714
v 0.009232 0.075268 0.143263
v 0.009680 0.098202 0.140406
v 0.009771 0.075272 0.140385
v 0.009680 0.098303 0.140406
v 0.028371 0.098623 -0.140971
v 0.028626 0.098625 -0.142334
v 0.028625 0.098726 -0.142334
v 0.028370 0.098724 -0.140971
v 0.028462 0.075694 -0.140992
v 0.028717 0.075696 -0.142354
v 0.028149 0.098621 -0.139787
v 0.028240 0.075692 -0.139808
v 0.028148 0.098722 -0.139787
v -0.023201 0.098378 0.134411
v -0.023492 0.098376 0.135960
v -0.023491 0.098276 0.135960
v -0.023201 0.098278 0.134411
v -0.023205 0.099139 0.134411
v -0.023495 0.099137 0.135961
v -0.022953 0.098380 0.133082
v -0.022956 0.099141 0.133082
v -0.022952 0.098280 0.133082
v 0.003345 0.098608 -0.007342
v 0.003442 0.098533 -0.007320
v 0.021982 0.098693 -0.106323
v 0.021885 0.098768 -0.106344
v -0.016025 0.098440 0.096087
v -0.015927 0.098366 0.096109
v 0.028370 0.098824 -0.140971
v 0.028625 0.098826 -0.142334
v 0.028622 0.099587 -0.142333
v 0.028367 0.099585 -0.140971
v 0.028148 0.098822 -0.139787
v -0.023213 0.101224 0.134413
v -0.023503 0.101222 0.135963
v -0.023222 0.103488 0.134415
v -0.023512 0.103486 0.135965
v -0.022964 0.101226 0.133084
v -0.022973 0.103490 0.133087
v 0.009430 0.098401 0.141735
v 0.009140 0.098398 0.143284
v 0.009137 0.099159 0.143285
v 0.009427 0.099161 0.141735
v 0.009679 0.098403 0.140406
v 0.035965 0.101476 -0.000015
v 0.035956 0.103740 -0.000013
v 0.054497 0.103900 -0.099016
v 0.054506 0.101636 -0.099018
v 0.016596 0.101308 0.103414
v 0.016587 0.103573 0.103416
v 0.060990 0.101692 -0.133645
v 0.061245 0.101694 -0.135007
v 0.060981 0.103956 -0.133643
v 0.061236 0.103959 -0.135005
v 0.060769 0.101690 -0.132461
v 0.060760 0.103955 -0.132458
v -0.022839 0.007487 0.134328
v -0.022569 -0.060407 0.134267
v -0.023130 0.007485 0.135878
v -0.022860 -0.060410 0.135816
v -0.023109 0.075248 0.134390
v -0.023400 0.075245 0.135939
v -0.021592 -0.084890 0.134442
v -0.020932 -0.085540 0.134589
v -0.021882 -0.084893 0.135992
v -0.021222 -0.085542 0.136139
v -0.022254 -0.084397 0.134294
v -0.022545 -0.084399 0.135844
v -0.021526 -0.088603 0.134450
v -0.022073 -0.088908 0.134327
v -0.021816 -0.088605 0.136000
v -0.022363 -0.088911 0.135877
v -0.020947 -0.088348 0.134581
v -0.021237 -0.088351 0.136130
v -0.015217 -0.089474 0.135862
v -0.005760 -0.089591 0.137986
v -0.015506 -0.089476 0.137412
v -0.006050 -0.089594 0.139535
v -0.020452 -0.089487 0.134689
v -0.020741 -0.089489 0.136239
v 0.003588 -0.089492 0.140086
v 0.008478 -0.089476 0.141183
v 0.003296 -0.089495 0.141636
v 0.008186 -0.089479 0.142732
v 0.009281 -0.088625 0.141365
v 0.008671 -0.088338 0.141228
v 0.008991 -0.088628 0.142914
v 0.008381 -0.088341 0.142778
v 0.009872 -0.088950 0.141497
v 0.009582 -0.088953 0.143046
v 0.009280 -0.084843 0.141371
v 0.009939 -0.084364 0.141520
v 0.008990 -0.084845 0.142921
v 0.009649 -0.084366 0.143070
v 0.008625 -0.085484 0.141223
v 0.008335 -0.085486 0.142773
v 0.009419 0.101246 0.141737
v 0.009410 0.103511 0.141739
v 0.009129 0.101244 0.143287
v 0.009120 0.103508 0.143289
v -0.022476 -0.083771 0.134246
v -0.022767 -0.083774 0.135795
v 0.010155 -0.083745 0.141570
v 0.010063 -0.060384 0.141591
v 0.009865 -0.083748 0.143119
v 0.009772 -0.060387 0.143141
v -0.020751 -0.088138 0.134625
v -0.021041 -0.088141 0.136175
v -0.020743 -0.087668 0.134628
v -0.021033 -0.087670 0.136177
v 0.008427 -0.086588 0.141177
v 0.008137 -0.086590 0.142726
v 0.008453 -0.087638 0.141180
v 0.008163 -0.087640 0.142730
v -0.022387 -0.089208 0.134255
v -0.022675 -0.089210 0.135806
v 0.010006 -0.089319 0.141526
v 0.009714 -0.089321 0.143075
v 0.010141 0.007513 0.139788
v 0.010041 0.007512 0.140323
v 0.010064 0.007513 0.139661
v 0.009872 0.075273 0.139849
v 0.009794 0.075273 0.139722
v -0.022852 0.098381 0.132546
v -0.022855 0.099142 0.132547
v -0.022824 0.098382 0.132395
v -0.022827 0.099142 0.132396
v -0.022852 0.098281 0.132546
v -0.022762 0.098282 0.132413
v -0.022864 0.101227 0.132548
v -0.022873 0.103491 0.132551
v -0.022835 0.101227 0.132398
v -0.022844 0.103492 0.132400
v 0.009779 0.098404 0.139870
v 0.009780 0.098304 0.139870
v 0.009808 0.098404 0.139719
v 0.009745 0.098304 0.139709
v 0.028359 0.101670 -0.140969
v 0.028349 0.103934 -0.140967
v 0.028614 0.101672 -0.142331
v 0.028605 0.103936 -0.142329
v 0.029980 -0.084444 -0.140940
v 0.029317 -0.083951 -0.141088
v 0.030235 -0.084442 -0.142302
v 0.029572 -0.083949 -0.142450
v 0.030640 -0.085094 -0.140793
v 0.030895 -0.085092 -0.142155
v 0.030045 -0.088157 -0.140932
v 0.030625 -0.087903 -0.140801
v 0.030300 -0.088155 -0.142294
v 0.030880 -0.087900 -0.142164
v 0.029499 -0.088463 -0.141055
v 0.029754 -0.088460 -0.142417
v 0.036166 -0.089076 -0.139562
v 0.030882 -0.089136 -0.140747
v 0.036421 -0.089073 -0.140925
v 0.031136 -0.089134 -0.142109
v 0.045791 -0.089145 -0.137401
v 0.046046 -0.089143 -0.138763
v 0.055380 -0.089031 -0.135246
v 0.055636 -0.089028 -0.136608
v 0.060372 -0.089027 -0.134126
v 0.060629 -0.089025 -0.135488
v 0.060852 -0.088180 -0.134017
v 0.061444 -0.088504 -0.133885
v 0.061107 -0.088177 -0.135379
v 0.061699 -0.088502 -0.135247
v 0.060243 -0.087892 -0.134154
v 0.060498 -0.087890 -0.135516
v 0.060852 -0.084397 -0.134011
v 0.060197 -0.085037 -0.134159
v 0.061107 -0.084395 -0.135373
v 0.060452 -0.085035 -0.135521
v 0.061510 -0.083918 -0.133862
v 0.061765 -0.083916 -0.135224
v 0.061364 0.007956 -0.133730
v 0.061634 -0.059938 -0.133791
v 0.061619 0.007958 -0.135092
v 0.061889 -0.059936 -0.135153
v 0.061094 0.075716 -0.133668
v 0.061349 0.075718 -0.135030
v 0.029095 -0.083325 -0.141136
v 0.029002 -0.059961 -0.141115
v 0.029350 -0.083323 -0.142499
v 0.029257 -0.059959 -0.142477
v 0.061727 -0.083300 -0.133812
v 0.061982 -0.083297 -0.135174
v 0.030846 -0.086188 -0.140749
v 0.031101 -0.086185 -0.142111
v 0.030829 -0.087222 -0.140754
v 0.031084 -0.087220 -0.142117
v 0.060036 -0.087669 -0.134200
v 0.060291 -0.087667 -0.135562
v 0.060024 -0.087192 -0.134201
v 0.060279 -0.087190 -0.135564
v 0.028871 -0.088914 -0.141197
v 0.029125 -0.088913 -0.142560
v 0.062005 -0.088916 -0.133759
v 0.062262 -0.088914 -0.135121
v 0.060690 0.098844 -0.131985
v 0.060687 0.099604 -0.131985
v 0.060665 0.098843 -0.131851
v 0.060662 0.099604 -0.131850
v 0.060691 0.098744 -0.131985
v 0.060604 0.098744 -0.131869
v 0.028420 0.007931 -0.139392
v 0.028510 0.007931 -0.139870
v 0.028500 0.007930 -0.139276
v 0.028151 0.075691 -0.139330
v 0.028230 0.075691 -0.139215
v 0.028059 0.098821 -0.139309
v 0.028059 0.098721 -0.139309
v 0.028034 0.098821 -0.139175
v 0.028097 0.098721 -0.139165
v 0.060679 0.101689 -0.131983
v 0.060670 0.103954 -0.131981
v 0.060654 0.101689 -0.131849
v 0.060645 0.103954 -0.131846
v -0.022851 0.098180 0.132546
v -0.022952 0.098180 0.133082
v -0.022735 0.098181 0.132463
v 0.060691 0.098643 -0.131985
v 0.060781 0.098644 -0.132463
v 0.060577 0.098643 -0.131914
v 0.009792 0.007510 0.141652
v 0.009502 0.007507 0.143202
v 0.028732 0.007933 -0.141054
v 0.028987 0.007935 -0.142416
v -0.023201 0.098177 0.134410
v -0.023491 0.098175 0.135960
v 0.009780 0.098203 0.139870
v 0.009703 0.098203 0.139743
v 0.061003 0.098646 -0.133647
v 0.061258 0.098648 -0.135010
v 0.028060 0.098621 -0.139310
v 0.028139 0.098621 -0.139194
v 0.027993 0.101667 -0.139019
v 0.027984 0.103931 -0.139017
v 0.028002 0.099582 -0.139021
v -0.022803 0.101228 0.132224
v -0.022794 0.099143 0.132222
v -0.022812 0.103492 0.132226
v 0.009840 0.098404 0.139545
v 0.009837 0.099165 0.139546
v 0.009743 0.098329 0.139523
v 0.060637 0.098843 -0.131698
v 0.060540 0.098768 -0.131720
v 0.060633 0.099604 -0.131697
v -0.022792 0.098382 0.132221
v -0.022694 0.098307 0.132243
v 0.028005 0.098821 -0.139022
v 0.028102 0.098746 -0.139000
v 0.009829 0.101250 0.139548
v 0.009820 0.103514 0.139550
v 0.060625 0.101689 -0.131695
v 0.060616 0.103953 -0.131693
v -0.020376 -0.086630 0.132769
v -0.020477 -0.086631 0.133304
v -0.020269 -0.086674 0.132683
v 0.030509 -0.087695 -0.139095
v 0.030599 -0.087694 -0.139573
v 0.030580 -0.087788 -0.138982
v 0.008814 -0.088112 0.139317
v 0.008713 -0.088113 0.139853
v 0.008746 -0.088205 0.139193
v 0.059688 -0.086144 -0.132543
v 0.059777 -0.086144 -0.133021
v 0.059583 -0.086188 -0.132470
v -0.020725 -0.086633 0.134633
v -0.021016 -0.086636 0.136183
v 0.008464 -0.088115 0.141182
v 0.008174 -0.088118 0.142732
v 0.030821 -0.087693 -0.140757
v 0.031076 -0.087690 -0.142119
v 0.059999 -0.086142 -0.134205
v 0.060254 -0.086139 -0.135567
vt 0.012391 0.501407
vt 0.006990 0.501407
vt 0.006990 0.859760
vt 0.006990 0.859760
vt 0.012391 0.859760
vt 0.012391 0.501407
vt 0.012391 0.143055
vt 0.006990 0.143055
vt 0.006990 0.501407
vt 0.006990 0.501407
vt 0.012391 0.501407
vt 0.012391 0.143055
vt 0.012391 0.501407
vt 0.017373 0.501407
vt 0.017373 0.143055
vt 0.017373 0.143055
vt 0.012391 0.143055
vt 0.012391 0.501407
vt 0.012391 0.859760
vt 0.017373 0.859760
vt 0.017373 0.501407
vt 0.017373 0.501407
vt 0.012391 0.501407
vt 0.012391 0.859760
vt 0.469898 0.501407
vt 0.469512 0.501407
vt 0.469341 0.905637
vt 0.469341 0.905637
vt 0.469898 0.862376
vt 0.469898 0.501407
vt 0.469898 0.140439
vt 0.469341 0.097178
vt 0.469512 0.501407
vt 0.469512 0.501407
vt 0.469898 0.501407
vt 0.469898 0.140439
vt 0.469898 0.501407
vt 0.470975 0.501407
vt 0.470975 0.140439
vt 0.470975 0.140439
vt 0.469898 0.140439
vt 0.469898 0.501407
vt 0.469898 0.862376
vt 0.470975 0.862376
vt 0.470975 0.501407
vt 0.470975 0.501407
vt 0.469898 0.501407
vt 0.469898 0.862376
vt 0.488891 0.501407
vt 0.477684 0.501407
vt 0.477684 0.862376
vt 0.477684 0.862376
vt 0.488891 0.862376
vt 0.488891 0.501407
vt 0.488891 0.140439
vt 0.477684 0.140439
vt 0.477684 0.501407
vt 0.477684 0.501407
vt 0.488891 0.501407
vt 0.488891 0.140439
vt 0.488891 0.501407
vt 0.502651 0.501407
vt 0.502651 0.140439
vt 0.502651 0.140439
vt 0.488891 0.140439
vt 0.488891 0.501407
vt 0.488891 0.862376
vt 0.502651 0.862376
vt 0.502651 0.501407
vt 0.502651 0.501407
vt 0.488891 0.501407
vt 0.488891 0.862376
vt 0.515355 0.501407
vt 0.502651 0.501407
vt 0.502651 0.862376
vt 0.502651 0.862376
vt 0.515355 0.862376
vt 0.515355 0.501407
vt 0.515355 0.140439
vt 0.502651 0.140439
vt 0.502651 0.501407
vt 0.502651 0.501407
vt 0.515355 0.501407
vt 0.515355 0.140439
vt 0.515355 0.501407
vt 0.525000 0.501407
vt 0.525000 0.140439
vt 0.525000 0.140439
vt 0.515355 0.140439
vt 0.515355 0.501407
vt 0.515355 0.862376
vt 0.525000 0.862376
vt 0.525000 0.501407
vt 0.525000 0.501407
vt 0.515355 0.501407
vt 0.515355 0.862376
vt 0.532422 0.501407
vt 0.531322 0.501407
vt 0.531322 0.862376
vt 0.531322 0.862376
vt 0.532422 0.862376
vt 0.532422 0.501407
vt 0.532422 0.140439
vt 0.531322 0.140439
vt 0.531322 0.501407
vt 0.531322 0.501407
vt 0.532422 0.501407
vt 0.532422 0.140439
vt 0.532422 0.501407
vt 0.532808 0.501407
vt 0.532979 0.097178
vt 0.532979 0.097178
vt 0.532422 0.140439
vt 0.532422 0.501407
vt 0.532422 0.862376
vt 0.532979 0.905637
vt 0.532808 0.501407
vt 0.532808 0.501407
vt 0.532422 0.501407
vt 0.532422 0.862376
vt 0.472641 0.501407
vt 0.477684 0.501407
vt 0.477684 0.140439
vt 0.477684 0.140439
vt 0.472641 0.140439
vt 0.472641 0.501407
vt 0.472641 0.862376
vt 0.477684 0.862376
vt 0.477684 0.501407
vt 0.477684 0.501407
vt 0.472641 0.501407
vt 0.472641 0.862376
vt 0.472641 0.501407
vt 0.470975 0.501407
vt 0.470975 0.862376
vt 0.470975 0.862376
vt 0.472641 0.862376
vt 0.472641 0.501407
vt 0.472641 0.140439
vt 0.470975 0.140439
vt 0.470975 0.501407
vt 0.470975 0.501407
vt 0.472641 0.501407
vt 0.472641 0.140439
vt 0.529585 0.501407
vt 0.531322 0.501407
vt 0.531322 0.140439
vt 0.531322 0.140439
vt 0.529585 0.140439
vt 0.529585 0.501407
vt 0.529585 0.862376
vt 0.531322 0.862376
vt 0.531322 0.501407
vt 0.531322 0.501407
vt 0.529585 0.501407
vt 0.529585 0.862376
vt 0.529585 0.501407
vt 0.525000 0.501407
vt 0.525000 0.862376
vt 0.525000 0.862376
vt 0.529585 0.862376
vt 0.529585 0.501407
vt 0.529585 0.140439
vt 0.525000 0.140439
vt 0.525000 0.501407
vt 0.525000 0.501407
vt 0.529585 0.501407
vt 0.529585 0.140439
vt 0.012391 0.019809
vt 0.006990 0.019809
vt 0.006990 0.020654
vt 0.006990 0.020654
vt 0.012391 0.020654
vt 0.012391 0.019809
vt 0.012391 0.018047
vt 0.006990 0.018047
vt 0.006990 0.019809
vt 0.006990 0.019809
vt 0.012391 0.019809
vt 0.012391 0.018047
vt 0.012391 0.019809
vt 0.017373 0.019809
vt 0.017373 0.018047
vt 0.017373 0.018047
vt 0.012391 0.018047
vt 0.012391 0.019809
vt 0.012391 0.020654
vt 0.017373 0.020654
vt 0.017373 0.019809
vt 0.017373 0.019809
vt 0.012391 0.019809
vt 0.012391 0.020654
vt 0.240457 0.983005
vt 0.405055 0.983005
vt 0.405655 0.982661
vt 0.405655 0.982661
vt 0.242083 0.982661
vt 0.240457 0.983005
vt 0.240457 0.984768
vt 0.405055 0.984768
vt 0.405055 0.983005
vt 0.405055 0.983005
vt 0.240457 0.983005
vt 0.240457 0.984768
vt 0.240457 0.983005
vt 0.076062 0.983005
vt 0.076062 0.984768
vt 0.076062 0.984768
vt 0.240457 0.984768
vt 0.240457 0.983005
vt 0.242083 0.982661
vt 0.078713 0.982661
vt 0.076062 0.983005
vt 0.076062 0.983005
vt 0.240457 0.983005
vt 0.242083 0.982661
vt 0.464687 0.019809
vt 0.463026 0.019809
vt 0.463265 0.020154
vt 0.463265 0.020154
vt 0.464915 0.020154
vt 0.464687 0.019809
vt 0.464687 0.018047
vt 0.463026 0.018047
vt 0.463026 0.019809
vt 0.463026 0.019809
vt 0.464687 0.019809
vt 0.464687 0.018047
vt 0.464687 0.019809
vt 0.466181 0.019809
vt 0.466181 0.018047
vt 0.466181 0.018047
vt 0.464687 0.018047
vt 0.464687 0.019809
vt 0.464915 0.020154
vt 0.466400 0.020154
vt 0.466181 0.019809
vt 0.466181 0.019809
vt 0.464687 0.019809
vt 0.464915 0.020154
vt 0.464687 0.983005
vt 0.466181 0.983005
vt 0.466400 0.982661
vt 0.466400 0.982661
vt 0.464915 0.982661
vt 0.464687 0.983005
vt 0.464687 0.984768
vt 0.466181 0.984768
vt 0.466181 0.983005
vt 0.466181 0.983005
vt 0.464687 0.983005
vt 0.464687 0.984768
vt 0.464687 0.983005
vt 0.463026 0.983005
vt 0.463026 0.984768
vt 0.463026 0.984768
vt 0.464687 0.984768
vt 0.464687 0.983005
vt 0.464915 0.982661
vt 0.463265 0.982661
vt 0.463026 0.983005
vt 0.463026 0.983005
vt 0.464687 0.983005
vt 0.464915 0.982661
vt 0.469898 0.019809
vt 0.469267 0.019809
vt 0.469341 0.097178
vt 0.469341 0.097178
vt 0.469898 0.140439
vt 0.469898 0.019809
vt 0.469898 0.018047
vt 0.469267 0.018047
vt 0.469267 0.019809
vt 0.469267 0.019809
vt 0.469898 0.019809
vt 0.469898 0.018047
vt 0.469898 0.019809
vt 0.470975 0.019809
vt 0.470975 0.018047
vt 0.470975 0.018047
vt 0.469898 0.018047
vt 0.469898 0.019809
vt 0.469898 0.140439
vt 0.470975 0.140439
vt 0.470975 0.019809
vt 0.470975 0.019809
vt 0.469898 0.019809
vt 0.469898 0.140439
vt 0.469898 0.983005
vt 0.470975 0.983005
vt 0.470975 0.862376
vt 0.470975 0.862376
vt 0.469898 0.862376
vt 0.469898 0.983005
vt 0.469898 0.984768
vt 0.470975 0.984768
vt 0.470975 0.983005
vt 0.470975 0.983005
vt 0.469898 0.983005
vt 0.469898 0.984768
vt 0.469898 0.983005
vt 0.469267 0.983005
vt 0.469267 0.984768
vt 0.469267 0.984768
vt 0.469898 0.984768
vt 0.469898 0.983005
vt 0.469898 0.862376
vt 0.469341 0.905637
vt 0.469267 0.983005
vt 0.469267 0.983005
vt 0.469898 0.983005
vt 0.469898 0.862376
vt 0.488891 0.019809
vt 0.477684 0.019809
vt 0.477684 0.140439
vt 0.477684 0.140439
vt 0.488891 0.140439
vt 0.488891 0.019809
vt 0.488891 0.018047
vt 0.477684 0.018047
vt 0.477684 0.019809
vt 0.477684 0.019809
vt 0.488891 0.019809
vt 0.488891 0.018047
vt 0.488891 0.019809
vt 0.502651 0.019809
vt 0.502651 0.018047
vt 0.502651 0.018047
vt 0.488891 0.018047
vt 0.488891 0.019809
vt 0.488891 0.140439
vt 0.502651 0.140439
vt 0.502651 0.019809
vt 0.502651 0.019809
vt 0.488891 0.019809
vt 0.488891 0.140439
vt 0.488891 0.983005
vt 0.502651 0.983005
vt 0.502651 0.862376
vt 0.502651 0.862376
vt 0.488891 0.862376
vt 0.488891 0.983005
vt 0.488891 0.984768
vt 0.502651 0.984768
vt 0.502651 0.983005
vt 0.502651 0.983005
vt 0.488891 0.983005
vt 0.488891 0.984768
vt 0.488891 0.983005
vt 0.477684 0.983005
vt 0.477684 0.984768
vt 0.477684 0.984768
vt 0.488891 0.984768
vt 0.488891 0.983005
vt 0.488891 0.862376
vt 0.477684 0.862376
vt 0.477684 0.983005
vt 0.477684 0.983005
vt 0.488891 0.983005
vt 0.488891 0.862376
vt 0.515355 0.019809
vt 0.502651 0.019809
vt 0.502651 0.140439
vt 0.502651 0.140439
vt 0.515355 0.140439
vt 0.515355 0.019809
vt 0.515355 0.018047
vt 0.502651 0.018047
vt 0.502651 0.019809
vt 0.502651 0.019809
vt 0.515355 0.019809
vt 0.515355 0.018047
vt 0.515355 0.019809
vt 0.525000 0.019809
vt 0.525000 0.018047
vt 0.525000 0.018047
vt 0.515355 0.018047
vt 0.515355 0.019809
vt 0.515355 0.140439
vt 0.525000 0.140439
vt 0.525000 0.019809
vt 0.525000 0.019809
vt 0.515355 0.019809
vt 0.515355 0.140439
vt 0.515355 0.983005
vt 0.525000 0.983005
vt 0.525000 0.862376
vt 0.525000 0.862376
vt 0.515355 0.862376
vt 0.515355 0.983005
vt 0.515355 0.984768
vt 0.525000 0.984768
vt 0.525000 0.983005
vt 0.525000 0.983005
vt 0.515355 0.983005
vt 0.515355 0.984768
vt 0.515355 0.983005
vt 0.502651 0.983005
vt 0.502651 0.984768
vt 0.502651 0.984768
vt 0.515355 0.984768
vt 0.515355 0.983005
vt 0.515355 0.862376
vt 0.502651 0.862376
vt 0.502651 0.983005
vt 0.502651 0.983005
vt 0.515355 0.983005
vt 0.515355 0.862376
vt 0.532422 0.019809
vt 0.531322 0.019809
vt 0.531322 0.140439
vt 0.531322 0.140439
vt 0.532422 0.140439
vt 0.532422 0.019809
vt 0.532422 0.018047
vt 0.531322 0.018047
vt 0.531322 0.019809
vt 0.531322 0.019809
vt 0.532422 0.019809
vt 0.532422 0.018047
vt 0.532422 0.019809
vt 0.533053 0.019809
vt 0.533053 0.018047
vt 0.533053 0.018047
vt 0.532422 0.018047
vt 0.532422 0.019809
vt 0.532422 0.140439
vt 0.532979 0.097178
vt 0.533053 0.019809
vt 0.533053 0.019809
vt 0.532422 0.019809
vt 0.532422 0.140439
vt 0.532422 0.983005
vt 0.533053 0.983005
vt 0.532979 0.905637
vt 0.532979 0.905637
vt 0.532422 0.862376
vt 0.532422 0.983005
vt 0.532422 0.984768
vt 0.533053 0.984768
vt 0.533053 0.983005
vt 0.533053 0.983005
vt 0.532422 0.983005
vt 0.532422 0.984768
vt 0.532422 0.983005
vt 0.531322 0.983005
vt 0.531322 0.984768
vt 0.531322 0.984768
vt 0.532422 0.984768
vt 0.532422 0.983005
vt 0.532422 0.862376
vt 0.531322 0.862376
vt 0.531322 0.983005
vt 0.531322 0.983005
vt 0.532422 0.983005
vt 0.532422 0.862376
vt 0.537633 0.019809
vt 0.536139 0.019809
vt 0.535920 0.020154
vt 0.535920 0.020154
vt 0.537405 0.020154
vt 0.537633 0.019809
vt 0.537633 0.018047
vt 0.536139 0.018047
vt 0.536139 0.019809
vt 0.536139 0.019809
vt 0.537633 0.019809
vt 0.537633 0.018047
vt 0.537633 0.019809
vt 0.539292 0.019809
vt 0.539292 0.018047
vt 0.539292 0.018047
vt 0.537633 0.018047
vt 0.537633 0.019809
vt 0.537405 0.020154
vt 0.539053 0.020154
vt 0.539292 0.019809
vt 0.539292 0.019809
vt 0.537633 0.019809
vt 0.537405 0.020154
vt 0.537633 0.983005
vt 0.539292 0.983005
vt 0.539053 0.982661
vt 0.539053 0.982661
vt 0.537405 0.982661
vt 0.537633 0.983005
vt 0.537633 0.984768
vt 0.539292 0.984768
vt 0.539292 0.983005
vt 0.539292 0.983005
vt 0.537633 0.983005
vt 0.537633 0.984768
vt 0.537633 0.983005
vt 0.536139 0.983005
vt 0.536139 0.984768
vt 0.536139 0.984768
vt 0.537633 0.984768
vt 0.537633 0.983005
vt 0.537405 0.982661
vt 0.535920 0.982661
vt 0.536139 0.983005
vt 0.536139 0.983005
vt 0.537633 0.983005
vt 0.537405 0.982661
vt 0.760743 0.019809
vt 0.596973 0.019809
vt 0.596373 0.020154
vt 0.596373 0.020154
vt 0.759117 0.020154
vt 0.760743 0.019809
vt 0.760743 0.018047
vt 0.596973 0.018047
vt 0.596973 0.019809
vt 0.596973 0.019809
vt 0.760743 0.019809
vt 0.760743 0.018047
vt 0.760743 0.019809
vt 0.924311 0.019809
vt 0.924311 0.018047
vt 0.924311 0.018047
vt 0.760743 0.018047
vt 0.760743 0.019809
vt 0.759117 0.020154
vt 0.921660 0.020154
vt 0.924311 0.019809
vt 0.924311 0.019809
vt 0.760743 0.019809
vt 0.759117 0.020154
vt 0.987661 0.983005
vt 0.993035 0.983005
vt 0.993035 0.982160
vt 0.993035 0.982160
vt 0.987661 0.982160
vt 0.987661 0.983005
vt 0.987661 0.984768
vt 0.993035 0.984768
vt 0.993035 0.983005
vt 0.993035 0.983005
vt 0.987661 0.983005
vt 0.987661 0.984768
vt 0.987661 0.983005
vt 0.982704 0.983005
vt 0.982704 0.984768
vt 0.982704 0.984768
vt 0.987661 0.984768
vt 0.987661 0.983005
vt 0.987661 0.982160
vt 0.982704 0.982160
vt 0.982704 0.983005
vt 0.982704 0.983005
vt 0.987661 0.983005
vt 0.987661 0.982160
vt 0.461197 0.019809
vt 0.405055 0.019809
vt 0.405655 0.020154
vt 0.405655 0.020154
vt 0.461447 0.020154
vt 0.461197 0.019809
vt 0.461197 0.018047
vt 0.405055 0.018047
vt 0.405055 0.019809
vt 0.405055 0.019809
vt 0.461197 0.019809
vt 0.461197 0.018047
vt 0.461197 0.019809
vt 0.463026 0.019809
vt 0.463026 0.018047
vt 0.463026 0.018047
vt 0.461197 0.018047
vt 0.461197 0.019809
vt 0.461447 0.020154
vt 0.463265 0.020154
vt 0.463026 0.019809
vt 0.463026 0.019809
vt 0.461197 0.019809
vt 0.461447 0.020154
vt 0.461197 0.983005
vt 0.463026 0.983005
vt 0.463265 0.982661
vt 0.463265 0.982661
vt 0.461447 0.982661
vt 0.461197 0.983005
vt 0.461197 0.984768
vt 0.463026 0.984768
vt 0.463026 0.983005
vt 0.463026 0.983005
vt 0.461197 0.983005
vt 0.461197 0.984768
vt 0.461197 0.983005
vt 0.405055 0.983005
vt 0.405055 0.984768
vt 0.405055 0.984768
vt 0.461197 0.984768
vt 0.461197 0.983005
vt 0.461447 0.982661
vt 0.405655 0.982661
vt 0.405055 0.983005
vt 0.405055 0.983005
vt 0.461197 0.983005
vt 0.461447 0.982661
vt 0.541114 0.983005
vt 0.596973 0.983005
vt 0.596373 0.982661
vt 0.596373 0.982661
vt 0.540864 0.982661
vt 0.541114 0.983005
vt 0.541114 0.984768
vt 0.596973 0.984768
vt 0.596973 0.983005
vt 0.596973 0.983005
vt 0.541114 0.983005
vt 0.541114 0.984768
vt 0.541114 0.983005
vt 0.539292 0.983005
vt 0.539292 0.984768
vt 0.539292 0.984768
vt 0.541114 0.984768
vt 0.541114 0.983005
vt 0.540864 0.982661
vt 0.539053 0.982661
vt 0.539292 0.983005
vt 0.539292 0.983005
vt 0.541114 0.983005
vt 0.540864 0.982661
vt 0.541114 0.019809
vt 0.539292 0.019809
vt 0.539053 0.020154
vt 0.539053 0.020154
vt 0.540864 0.020154
vt 0.541114 0.019809
vt 0.541114 0.018047
vt 0.539292 0.018047
vt 0.539292 0.019809
vt 0.539292 0.019809
vt 0.541114 0.019809
vt 0.541114 0.018047
vt 0.541114 0.019809
vt 0.596973 0.019809
vt 0.596973 0.018047
vt 0.596973 0.018047
vt 0.541114 0.018047
vt 0.541114 0.019809
vt 0.540864 0.020154
vt 0.596373 0.020154
vt 0.596973 0.019809
vt 0.596973 0.019809
vt 0.541114 0.019809
vt 0.540864 0.020154
vt 0.468938 0.983005
vt 0.469267 0.983005
vt 0.469341 0.905637
vt 0.469341 0.905637
vt 0.469139 0.982661
vt 0.468938 0.983005
vt 0.468938 0.984768
vt 0.469267 0.984768
vt 0.469267 0.983005
vt 0.469267 0.983005
vt 0.468938 0.983005
vt 0.468938 0.984768
vt 0.468938 0.983005
vt 0.468492 0.983005
vt 0.468492 0.984768
vt 0.468492 0.984768
vt 0.468938 0.984768
vt 0.468938 0.983005
vt 0.469139 0.982661
vt 0.468696 0.982661
vt 0.468492 0.983005
vt 0.468492 0.983005
vt 0.468938 0.983005
vt 0.469139 0.982661
vt 0.467512 0.019809
vt 0.466181 0.019809
vt 0.466400 0.020154
vt 0.466400 0.020154
vt 0.467722 0.020154
vt 0.467512 0.019809
vt 0.467512 0.018047
vt 0.466181 0.018047
vt 0.466181 0.019809
vt 0.466181 0.019809
vt 0.467512 0.019809
vt 0.467512 0.018047
vt 0.467512 0.019809
vt 0.468492 0.019809
vt 0.468492 0.018047
vt 0.468492 0.018047
vt 0.467512 0.018047
vt 0.467512 0.019809
vt 0.467722 0.020154
vt 0.468696 0.020154
vt 0.468492 0.019809
vt 0.468492 0.019809
vt 0.467512 0.019809
vt 0.467722 0.020154
vt 0.534809 0.983005
vt 0.536139 0.983005
vt 0.535920 0.982661
vt 0.535920 0.982661
vt 0.534598 0.982661
vt 0.534809 0.983005
vt 0.534809 0.984768
vt 0.536139 0.984768
vt 0.536139 0.983005
vt 0.536139 0.983005
vt 0.534809 0.983005
vt 0.534809 0.984768
vt 0.534809 0.983005
vt 0.533828 0.983005
vt 0.533828 0.984768
vt 0.533828 0.984768
vt 0.534809 0.984768
vt 0.534809 0.983005
vt 0.534598 0.982661
vt 0.533624 0.982661
vt 0.533828 0.983005
vt 0.533828 0.983005
vt 0.534809 0.983005
vt 0.534598 0.982661
vt 0.533382 0.019809
vt 0.533053 0.019809
vt 0.532979 0.097178
vt 0.532979 0.097178
vt 0.533181 0.020154
vt 0.533382 0.019809
vt 0.533382 0.018047
vt 0.533053 0.018047
vt 0.533053 0.019809
vt 0.533053 0.019809
vt 0.533382 0.019809
vt 0.533382 0.018047
vt 0.533382 0.019809
vt 0.533828 0.019809
vt 0.533828 0.018047
vt 0.533828 0.018047
vt 0.533382 0.018047
vt 0.533382 0.019809
vt 0.533181 0.020154
vt 0.533624 0.020154
vt 0.533828 0.019809
vt 0.533828 0.019809
vt 0.533382 0.019809
vt 0.533181 0.020154
vt 0.472641 0.983005
vt 0.477684 0.983005
vt 0.477684 0.862376
vt 0.477684 0.862376
vt 0.472641 0.862376
vt 0.472641 0.983005
vt 0.472641 0.984768
vt 0.477684 0.984768
vt 0.477684 0.983005
vt 0.477684 0.983005
vt 0.472641 0.983005
vt 0.472641 0.984768
vt 0.472641 0.983005
vt 0.470975 0.983005
vt 0.470975 0.984768
vt 0.470975 0.984768
vt 0.472641 0.984768
vt 0.472641 0.983005
vt 0.472641 0.862376
vt 0.470975 0.862376
vt 0.470975 0.983005
vt 0.470975 0.983005
vt 0.472641 0.983005
vt 0.472641 0.862376
vt 0.472641 0.019809
vt 0.470975 0.019809
vt 0.470975 0.140439
vt 0.470975 0.140439
vt 0.472641 0.140439
vt 0.472641 0.019809
vt 0.472641 0.018047
vt 0.470975 0.018047
vt 0.470975 0.019809
vt 0.470975 0.019809
vt 0.472641 0.019809
vt 0.472641 0.018047
vt 0.472641 0.019809
vt 0.477684 0.019809
vt 0.477684 0.018047
vt 0.477684 0.018047
vt 0.472641 0.018047
vt 0.472641 0.019809
vt 0.472641 0.140439
vt 0.477684 0.140439
vt 0.477684 0.019809
vt 0.477684 0.019809
vt 0.472641 0.019809
vt 0.472641 0.140439
vt 0.529585 0.983005
vt 0.531322 0.983005
vt 0.531322 0.862376
vt 0.531322 0.862376
vt 0.529585 0.862376
vt 0.529585 0.983005
vt 0.529585 0.984768
vt 0.531322 0.984768
vt 0.531322 0.983005
vt 0.531322 0.983005
vt 0.529585 0.983005
vt 0.529585 0.984768
vt 0.529585 0.983005
vt 0.525000 0.983005
vt 0.525000 0.984768
vt 0.525000 0.984768
vt 0.529585 0.984768
vt 0.529585 0.983005
vt 0.529585 0.862376
vt 0.525000 0.862376
vt 0.525000 0.983005
vt 0.525000 0.983005
vt 0.529585 0.983005
vt 0.529585 0.862376
vt 0.529585 0.019809
vt 0.525000 0.019809
vt 0.525000 0.140439
vt 0.525000 0.140439
vt 0.529585 0.140439
vt 0.529585 0.019809
vt 0.529585 0.018047
vt 0.525000 0.018047
vt 0.525000 0.019809
vt 0.525000 0.019809
vt 0.529585 0.019809
vt 0.529585 0.018047
vt 0.529585 0.019809
vt 0.531322 0.019809
vt 0.531322 0.018047
vt 0.531322 0.018047
vt 0.529585 0.018047
vt 0.529585 0.019809
vt 0.529585 0.140439
vt 0.531322 0.140439
vt 0.531322 0.019809
vt 0.531322 0.019809
vt 0.529585 0.019809
vt 0.529585 0.140439
vt 0.980894 0.501407
vt 0.982704 0.501407
vt 0.982704 0.143055
vt 0.982704 0.143055
vt 0.980894 0.143055
vt 0.980894 0.501407
vt 0.980894 0.859760
vt 0.982704 0.859760
vt 0.982704 0.501407
vt 0.982704 0.501407
vt 0.980894 0.501407
vt 0.980894 0.859760
vt 0.980894 0.501407
vt 0.977712 0.501407
vt 0.977712 0.859760
vt 0.977712 0.859760
vt 0.980894 0.859760
vt 0.980894 0.501407
vt 0.980894 0.143055
vt 0.977712 0.143055
vt 0.977712 0.501407
vt 0.977712 0.501407
vt 0.980894 0.501407
vt 0.980894 0.143055
vt 0.980894 0.013679
vt 0.980894 0.008385
vt 0.980442 0.008385
vt 0.980442 0.008385
vt 0.980442 0.013679
vt 0.980894 0.013679
vt 0.982704 0.013679
vt 0.982704 0.008385
vt 0.980894 0.008385
vt 0.980894 0.008385
vt 0.980894 0.013679
vt 0.982704 0.013679
vt 0.980894 0.013679
vt 0.980894 0.018047
vt 0.982704 0.018047
vt 0.982704 0.018047
vt 0.982704 0.013679
vt 0.980894 0.013679
vt 0.980442 0.013679
vt 0.980442 0.018047
vt 0.980894 0.018047
vt 0.980894 0.018047
vt 0.980894 0.013679
vt 0.980442 0.013679
vt 0.979563 0.989136
vt 0.979563 0.994430
vt 0.980442 0.994430
vt 0.980442 0.994430
vt 0.980443 0.989136
vt 0.979563 0.989136
vt 0.924311 0.989136
vt 0.924311 0.994430
vt 0.979563 0.994430
vt 0.979563 0.994430
vt 0.979563 0.989136
vt 0.924311 0.989136
vt 0.979563 0.989136
vt 0.979563 0.984768
vt 0.924311 0.984768
vt 0.924311 0.984768
vt 0.924311 0.989136
vt 0.979563 0.989136
vt 0.980443 0.989136
vt 0.980442 0.984768
vt 0.979563 0.984768
vt 0.979563 0.984768
vt 0.979563 0.989136
vt 0.980443 0.989136
vt 0.020531 0.013679
vt 0.020531 0.008385
vt 0.019646 0.008385
vt 0.019646 0.008385
vt 0.019646 0.013679
vt 0.020531 0.013679
vt 0.076062 0.013679
vt 0.076062 0.008385
vt 0.020531 0.008385
vt 0.020531 0.008385
vt 0.020531 0.013679
vt 0.076062 0.013679
vt 0.020531 0.013679
vt 0.020531 0.018047
vt 0.076062 0.018047
vt 0.076062 0.018047
vt 0.076062 0.013679
vt 0.020531 0.013679
vt 0.019646 0.013679
vt 0.019646 0.018047
vt 0.020531 0.018047
vt 0.020531 0.018047
vt 0.020531 0.013679
vt 0.019646 0.013679
vt 0.019193 0.989136
vt 0.019193 0.994430
vt 0.019646 0.994430
vt 0.019646 0.994430
vt 0.019646 0.989136
vt 0.019193 0.989136
vt 0.017373 0.989136
vt 0.017373 0.994430
vt 0.019193 0.994430
vt 0.019193 0.994430
vt 0.019193 0.989136
vt 0.017373 0.989136
vt 0.019193 0.989136
vt 0.019193 0.984768
vt 0.017373 0.984768
vt 0.017373 0.984768
vt 0.017373 0.989136
vt 0.019193 0.989136
vt 0.019646 0.989136
vt 0.019646 0.984768
vt 0.019193 0.984768
vt 0.019193 0.984768
vt 0.019193 0.989136
vt 0.019646 0.989136
vt 0.019193 0.501407
vt 0.022375 0.501407
vt 0.022375 0.143055
vt 0.022375 0.143055
vt 0.019193 0.143055
vt 0.019193 0.501407
vt 0.019193 0.859760
vt 0.022375 0.859760
vt 0.022375 0.501407
vt 0.022375 0.501407
vt 0.019193 0.501407
vt 0.019193 0.859760
vt 0.019193 0.501407
vt 0.017373 0.501407
vt 0.017373 0.859760
vt 0.017373 0.859760
vt 0.019193 0.859760
vt 0.019193 0.501407
vt 0.019193 0.143055
vt 0.017373 0.143055
vt 0.017373 0.501407
vt 0.017373 0.501407
vt 0.019193 0.501407
vt 0.019193 0.143055
vt 0.019193 0.013679
vt 0.019193 0.008385
vt 0.017373 0.008385
vt 0.017373 0.008385
vt 0.017373 0.013679
vt 0.019193 0.013679
vt 0.019646 0.013679
vt 0.019646 0.008385
vt 0.019193 0.008385
vt 0.019193 0.008385
vt 0.019193 0.013679
vt 0.019646 0.013679
vt 0.019193 0.013679
vt 0.019193 0.018047
vt 0.019646 0.018047
vt 0.019646 0.018047
vt 0.019646 0.013679
vt 0.019193 0.013679
vt 0.017373 0.013679
vt 0.017373 0.018047
vt 0.019193 0.018047
vt 0.019193 0.018047
vt 0.019193 0.013679
vt 0.017373 0.013679
vt 0.012391 0.989136
vt 0.012391 0.994430
vt 0.017373 0.994430
vt 0.017373 0.994430
vt 0.017373 0.989136
vt 0.012391 0.989136
vt 0.006990 0.989136
vt 0.006990 0.994430
vt 0.012391 0.994430
vt 0.012391 0.994430
vt 0.012391 0.989136
vt 0.006990 0.989136
vt 0.012391 0.989136
vt 0.012391 0.984768
vt 0.006990 0.984768
vt 0.006990 0.984768
vt 0.006990 0.989136
vt 0.012391 0.989136
vt 0.017373 0.989136
vt 0.017373 0.984768
vt 0.012391 0.984768
vt 0.012391 0.984768
vt 0.012391 0.989136
vt 0.017373 0.989136
vt 0.980894 0.989136
vt 0.980894 0.994430
vt 0.982704 0.994430
vt 0.982704 0.994430
vt 0.982704 0.989136
vt 0.980894 0.989136
vt 0.980443 0.989136
vt 0.980442 0.994430
vt 0.980894 0.994430
vt 0.980894 0.994430
vt 0.980894 0.989136
vt 0.980443 0.989136
vt 0.980894 0.989136
vt 0.980894 0.984768
vt 0.980442 0.984768
vt 0.980442 0.984768
vt 0.980443 0.989136
vt 0.980894 0.989136
vt 0.982704 0.989136
vt 0.982704 0.984768
vt 0.980894 0.984768
vt 0.980894 0.984768
vt 0.980894 0.989136
vt 0.982704 0.989136
vt 0.987661 0.501407
vt 0.993035 0.501407
vt 0.993035 0.143055
vt 0.993035 0.143055
vt 0.987661 0.143055
vt 0.987661 0.501407
vt 0.987661 0.859760
vt 0.993035 0.859760
vt 0.993035 0.501407
vt 0.993035 0.501407
vt 0.987661 0.501407
vt 0.987661 0.859760
vt 0.987661 0.501407
vt 0.982704 0.501407
vt 0.982704 0.859760
vt 0.982704 0.859760
vt 0.987661 0.859760
vt 0.987661 0.501407
vt 0.987661 0.143055
vt 0.982704 0.143055
vt 0.982704 0.501407
vt 0.982704 0.501407
vt 0.987661 0.501407
vt 0.987661 0.143055
vt 0.987661 0.013679
vt 0.987661 0.008385
vt 0.982704 0.008385
vt 0.982704 0.008385
vt 0.982704 0.013679
vt 0.987661 0.013679
vt 0.993035 0.013679
vt 0.993035 0.008385
vt 0.987661 0.008385
vt 0.987661 0.008385
vt 0.987661 0.013679
vt 0.993035 0.013679
vt 0.987661 0.013679
vt 0.987661 0.018047
vt 0.993035 0.018047
vt 0.993035 0.018047
vt 0.993035 0.013679
vt 0.987661 0.013679
vt 0.982704 0.013679
vt 0.982704 0.018047
vt 0.987661 0.018047
vt 0.987661 0.018047
vt 0.987661 0.013679
vt 0.982704 0.013679
vt 0.240457 0.989136
vt 0.405055 0.989136
vt 0.405055 0.984768
vt 0.405055 0.984768
vt 0.240457 0.984768
vt 0.240457 0.989136
vt 0.240457 0.994430
vt 0.405055 0.994430
vt 0.405055 0.989136
vt 0.405055 0.989136
vt 0.240457 0.989136
vt 0.240457 0.994430
vt 0.240457 0.989136
vt 0.076062 0.989136
vt 0.076062 0.994430
vt 0.076062 0.994430
vt 0.240457 0.994430
vt 0.240457 0.989136
vt 0.240457 0.984768
vt 0.076062 0.984768
vt 0.076062 0.989136
vt 0.076062 0.989136
vt 0.240457 0.989136
vt 0.240457 0.984768
vt 0.464687 0.989136
vt 0.466181 0.989136
vt 0.466181 0.984768
vt 0.466181 0.984768
vt 0.464687 0.984768
vt 0.464687 0.989136
vt 0.464687 0.994430
vt 0.466181 0.994430
vt 0.466181 0.989136
vt 0.466181 0.989136
vt 0.464687 0.989136
vt 0.464687 0.994430
vt 0.464687 0.989136
vt 0.463026 0.989136
vt 0.463026 0.994430
vt 0.463026 0.994430
vt 0.464687 0.994430
vt 0.464687 0.989136
vt 0.464687 0.984768
vt 0.463026 0.984768
vt 0.463026 0.989136
vt 0.463026 0.989136
vt 0.464687 0.989136
vt 0.464687 0.984768
vt 0.469898 0.989136
vt 0.470975 0.989136
vt 0.470975 0.984768
vt 0.470975 0.984768
vt 0.469898 0.984768
vt 0.469898 0.989136
vt 0.469898 0.994430
vt 0.470975 0.994430
vt 0.470975 0.989136
vt 0.470975 0.989136
vt 0.469898 0.989136
vt 0.469898 0.994430
vt 0.469898 0.989136
vt 0.469267 0.989136
vt 0.469267 0.994430
vt 0.469267 0.994430
vt 0.469898 0.994430
vt 0.469898 0.989136
vt 0.469898 0.984768
vt 0.469267 0.984768
vt 0.469267 0.989136
vt 0.469267 0.989136
vt 0.469898 0.989136
vt 0.469898 0.984768
vt 0.488891 0.989136
vt 0.502651 0.989136
vt 0.502651 0.984768
vt 0.502651 0.984768
vt 0.488891 0.984768
vt 0.488891 0.989136
vt 0.488891 0.994430
vt 0.502651 0.994430
vt 0.502651 0.989136
vt 0.502651 0.989136
vt 0.488891 0.989136
vt 0.488891 0.994430
vt 0.488891 0.989136
vt 0.477684 0.989136
vt 0.477684 0.994430
vt 0.477684 0.994430
vt 0.488891 0.994430
vt 0.488891 0.989136
vt 0.488891 0.984768
vt 0.477684 0.984768
vt 0.477684 0.989136
vt 0.477684 0.989136
vt 0.488891 0.989136
vt 0.488891 0.984768
vt 0.515355 0.989136
vt 0.525000 0.989136
vt 0.525000 0.984768
vt 0.525000 0.984768
vt 0.515355 0.984768
vt 0.515355 0.989136
vt 0.515355 0.994430
vt 0.525000 0.994430
vt 0.525000 0.989136
vt 0.525000 0.989136
vt 0.515355 0.989136
vt 0.515355 0.994430
vt 0.515355 0.989136
vt 0.502651 0.989136
vt 0.502651 0.994430
vt 0.502651 0.994430
vt 0.515355 0.994430
vt 0.515355 0.989136
vt 0.515355 0.984768
vt 0.502651 0.984768
vt 0.502651 0.989136
vt 0.502651 0.989136
vt 0.515355 0.989136
vt 0.515355 0.984768
vt 0.532422 0.989136
vt 0.533053 0.989136
vt 0.533053 0.984768
vt 0.533053 0.984768
vt 0.532422 0.984768
vt 0.532422 0.989136
vt 0.532422 0.994430
vt 0.533053 0.994430
vt 0.533053 0.989136
vt 0.533053 0.989136
vt 0.532422 0.989136
vt 0.532422 0.994430
vt 0.532422 0.989136
vt 0.531322 0.989136
vt 0.531322 0.994430
vt 0.531322 0.994430
vt 0.532422 0.994430
vt 0.532422 0.989136
vt 0.532422 0.984768
vt 0.531322 0.984768
vt 0.531322 0.989136
vt 0.531322 0.989136
vt 0.532422 0.989136
vt 0.532422 0.984768
vt 0.537633 0.989136
vt 0.539292 0.989136
vt 0.539292 0.984768
vt 0.539292 0.984768
vt 0.537633 0.984768
vt 0.537633 0.989136
vt 0.537633 0.994430
vt 0.539292 0.994430
vt 0.539292 0.989136
vt 0.539292 0.989136
vt 0.537633 0.989136
vt 0.537633 0.994430
vt 0.537633 0.989136
vt 0.536139 0.989136
vt 0.536139 0.994430
vt 0.536139 0.994430
vt 0.537633 0.994430
vt 0.537633 0.989136
vt 0.537633 0.984768
vt 0.536139 0.984768
vt 0.536139 0.989136
vt 0.536139 0.989136
vt 0.537633 0.989136
vt 0.537633 0.984768
vt 0.987661 0.989136
vt 0.993035 0.989136
vt 0.993035 0.984768
vt 0.993035 0.984768
vt 0.987661 0.984768
vt 0.987661 0.989136
vt 0.987661 0.994430
vt 0.993035 0.994430
vt 0.993035 0.989136
vt 0.993035 0.989136
vt 0.987661 0.989136
vt 0.987661 0.994430
vt 0.987661 0.989136
vt 0.982704 0.989136
vt 0.982704 0.994430
vt 0.982704 0.994430
vt 0.987661 0.994430
vt 0.987661 0.989136
vt 0.987661 0.984768
vt 0.982704 0.984768
vt 0.982704 0.989136
vt 0.982704 0.989136
vt 0.987661 0.989136
vt 0.987661 0.984768
vt 0.461197 0.989136
vt 0.463026 0.989136
vt 0.463026 0.984768
vt 0.463026 0.984768
vt 0.461197 0.984768
vt 0.461197 0.989136
vt 0.461197 0.994430
vt 0.463026 0.994430
vt 0.463026 0.989136
vt 0.463026 0.989136
vt 0.461197 0.989136
vt 0.461197 0.994430
vt 0.461197 0.989136
vt 0.405055 0.989136
vt 0.405055 0.994430
vt 0.405055 0.994430
vt 0.461197 0.994430
vt 0.461197 0.989136
vt 0.461197 0.984768
vt 0.405055 0.984768
vt 0.405055 0.989136
vt 0.405055 0.989136
vt 0.461197 0.989136
vt 0.461197 0.984768
vt 0.541114 0.989136
vt 0.596973 0.989136
vt 0.596973 0.984768
vt 0.596973 0.984768
vt 0.541114 0.984768
vt 0.541114 0.989136
vt 0.541114 0.994430
vt 0.596973 0.994430
vt 0.596973 0.989136
vt 0.596973 0.989136
vt 0.541114 0.989136
vt 0.541114 0.994430
vt 0.541114 0.989136
vt 0.539292 0.989136
vt 0.539292 0.994430
vt 0.539292 0.994430
vt 0.541114 0.994430
vt 0.541114 0.989136
vt 0.541114 0.984768
vt 0.539292 0.984768
vt 0.539292 0.989136
vt 0.539292 0.989136
vt 0.541114 0.989136
vt 0.541114 0.984768
vt 0.468938 0.989136
vt 0.469267 0.989136
vt 0.469267 0.984768
vt 0.469267 0.984768
vt 0.468938 0.984768
vt 0.468938 0.989136
vt 0.468938 0.994430
vt 0.469267 0.994430
vt 0.469267 0.989136
vt 0.469267 0.989136
vt 0.468938 0.989136
vt 0.468938 0.994430
vt 0.468938 0.989136
vt 0.468492 0.989136
vt 0.468492 0.994430
vt 0.468492 0.994430
vt 0.468938 0.994430
vt 0.468938 0.989136
vt 0.468938 0.984768
vt 0.468492 0.984768
vt 0.468492 0.989136
vt 0.468492 0.989136
vt 0.468938 0.989136
vt 0.468938 0.984768
vt 0.534809 0.989136
vt 0.536139 0.989136
vt 0.536139 0.984768
vt 0.536139 0.984768
vt 0.534809 0.984768
vt 0.534809 0.989136
vt 0.534809 0.994430
vt 0.536139 0.994430
vt 0.536139 0.989136
vt 0.536139 0.989136
vt 0.534809 0.989136
vt 0.534809 0.994430
vt 0.534809 0.989136
vt 0.533828 0.989136
vt 0.533828 0.994430
vt 0.533828 0.994430
vt 0.534809 0.994430
vt 0.534809 0.989136
vt 0.534809 0.984768
vt 0.533828 0.984768
vt 0.533828 0.989136
vt 0.533828 0.989136
vt 0.534809 0.989136
vt 0.534809 0.984768
vt 0.472641 0.989136
vt 0.477684 0.989136
vt 0.477684 0.984768
vt 0.477684 0.984768
vt 0.472641 0.984768
vt 0.472641 0.989136
vt 0.472641 0.994430
vt 0.477684 0.994430
vt 0.477684 0.989136
vt 0.477684 0.989136
vt 0.472641 0.989136
vt 0.472641 0.994430
vt 0.472641 0.989136
vt 0.470975 0.989136
vt 0.470975 0.994430
vt 0.470975 0.994430
vt 0.472641 0.994430
vt 0.472641 0.989136
vt 0.472641 0.984768
vt 0.470975 0.984768
vt 0.470975 0.989136
vt 0.470975 0.989136
vt 0.472641 0.989136
vt 0.472641 0.984768
vt 0.529585 0.989136
vt 0.531322 0.989136
vt 0.531322 0.984768
vt 0.531322 0.984768
vt 0.529585 0.984768
vt 0.529585 0.989136
vt 0.529585 0.994430
vt 0.531322 0.994430
vt 0.531322 0.989136
vt 0.531322 0.989136
vt 0.529585 0.989136
vt 0.529585 0.994430
vt 0.529585 0.989136
vt 0.525000 0.989136
vt 0.525000 0.994430
vt 0.525000 0.994430
vt 0.529585 0.994430
vt 0.529585 0.989136
vt 0.529585 0.984768
vt 0.525000 0.984768
vt 0.525000 0.989136
vt 0.525000 0.989136
vt 0.529585 0.989136
vt 0.529585 0.984768
vt 0.760743 0.983005
vt 0.596973 0.983005
vt 0.596973 0.984768
vt 0.596973 0.984768
vt 0.760743 0.984768
vt 0.760743 0.983005
vt 0.759117 0.982661
vt 0.596373 0.982661
vt 0.596973 0.983005
vt 0.596973 0.983005
vt 0.760743 0.983005
vt 0.759117 0.982661
vt 0.760743 0.983005
vt 0.924311 0.983005
vt 0.921660 0.982661
vt 0.921660 0.982661
vt 0.759117 0.982661
vt 0.760743 0.983005
vt 0.760743 0.984768
vt 0.924311 0.984768
vt 0.924311 0.983005
vt 0.924311 0.983005
vt 0.760743 0.983005
vt 0.760743 0.984768
vt 0.019193 0.983005
vt 0.017373 0.983005
vt 0.017373 0.984768
vt 0.017373 0.984768
vt 0.019193 0.984768
vt 0.019193 0.983005
vt 0.019193 0.982160
vt 0.017373 0.982160
vt 0.017373 0.983005
vt 0.017373 0.983005
vt 0.019193 0.983005
vt 0.019193 0.982160
vt 0.019193 0.983005
vt 0.019646 0.983005
vt 0.021490 0.982299
vt 0.021490 0.982299
vt 0.019193 0.982160
vt 0.019193 0.983005
vt 0.019193 0.984768
vt 0.019646 0.984768
vt 0.019646 0.983005
vt 0.019646 0.983005
vt 0.019193 0.983005
vt 0.019193 0.984768
vt 0.012391 0.983005
vt 0.006990 0.983005
vt 0.006990 0.984768
vt 0.006990 0.984768
vt 0.012391 0.984768
vt 0.012391 0.983005
vt 0.012391 0.982160
vt 0.006990 0.982160
vt 0.006990 0.983005
vt 0.006990 0.983005
vt 0.012391 0.983005
vt 0.012391 0.982160
vt 0.012391 0.983005
vt 0.017373 0.983005
vt 0.017373 0.982160
vt 0.017373 0.982160
vt 0.012391 0.982160
vt 0.012391 0.983005
vt 0.012391 0.984768
vt 0.017373 0.984768
vt 0.017373 0.983005
vt 0.017373 0.983005
vt 0.012391 0.983005
vt 0.012391 0.984768
vt 0.980894 0.983005
vt 0.980443 0.983005
vt 0.980442 0.984768
vt 0.980442 0.984768
vt 0.980894 0.984768
vt 0.980894 0.983005
vt 0.980894 0.982160
vt 0.978598 0.982299
vt 0.980443 0.983005
vt 0.980443 0.983005
vt 0.980894 0.983005
vt 0.980894 0.982160
vt 0.980894 0.983005
vt 0.982704 0.983005
vt 0.982704 0.982160
vt 0.982704 0.982160
vt 0.980894 0.982160
vt 0.980894 0.983005
vt 0.980894 0.984768
vt 0.982704 0.984768
vt 0.982704 0.983005
vt 0.982704 0.983005
vt 0.980894 0.983005
vt 0.980894 0.984768
vt 0.012391 0.013679
vt 0.006990 0.013679
vt 0.006990 0.018047
vt 0.006990 0.018047
vt 0.012391 0.018047
vt 0.012391 0.013679
vt 0.012391 0.008385
vt 0.006990 0.008385
vt 0.006990 0.013679
vt 0.006990 0.013679
vt 0.012391 0.013679
vt 0.012391 0.008385
vt 0.012391 0.013679
vt 0.017373 0.013679
vt 0.017373 0.008385
vt 0.017373 0.008385
vt 0.012391 0.008385
vt 0.012391 0.013679
vt 0.012391 0.018047
vt 0.017373 0.018047
vt 0.017373 0.013679
vt 0.017373 0.013679
vt 0.012391 0.013679
vt 0.012391 0.018047
vt 0.464687 0.013679
vt 0.463026 0.013679
vt 0.463026 0.018047
vt 0.463026 0.018047
vt 0.464687 0.018047
vt 0.464687 0.013679
vt 0.464687 0.008385
vt 0.463026 0.008385
vt 0.463026 0.013679
vt 0.463026 0.013679
vt 0.464687 0.013679
vt 0.464687 0.008385
vt 0.464687 0.013679
vt 0.466181 0.013679
vt 0.466181 0.008385
vt 0.466181 0.008385
vt 0.464687 0.008385
vt 0.464687 0.013679
vt 0.464687 0.018047
vt 0.466181 0.018047
vt 0.466181 0.013679
vt 0.466181 0.013679
vt 0.464687 0.013679
vt 0.464687 0.018047
vt 0.469898 0.013679
vt 0.469267 0.013679
vt 0.469267 0.018047
vt 0.469267 0.018047
vt 0.469898 0.018047
vt 0.469898 0.013679
vt 0.469898 0.008385
vt 0.469267 0.008385
vt 0.469267 0.013679
vt 0.469267 0.013679
vt 0.469898 0.013679
vt 0.469898 0.008385
vt 0.469898 0.013679
vt 0.470975 0.013679
vt 0.470975 0.008385
vt 0.470975 0.008385
vt 0.469898 0.008385
vt 0.469898 0.013679
vt 0.469898 0.018047
vt 0.470975 0.018047
vt 0.470975 0.013679
vt 0.470975 0.013679
vt 0.469898 0.013679
vt 0.469898 0.018047
vt 0.488891 0.013679
vt 0.477684 0.013679
vt 0.477684 0.018047
vt 0.477684 0.018047
vt 0.488891 0.018047
vt 0.488891 0.013679
vt 0.488891 0.008385
vt 0.477684 0.008385
vt 0.477684 0.013679
vt 0.477684 0.013679
vt 0.488891 0.013679
vt 0.488891 0.008385
vt 0.488891 0.013679
vt 0.502651 0.013679
vt 0.502651 0.008385
vt 0.502651 0.008385
vt 0.488891 0.008385
vt 0.488891 0.013679
vt 0.488891 0.018047
vt 0.502651 0.018047
vt 0.502651 0.013679
vt 0.502651 0.013679
vt 0.488891 0.013679
vt 0.488891 0.018047
vt 0.515355 0.013679
vt 0.502651 0.013679
vt 0.502651 0.018047
vt 0.502651 0.018047
vt 0.515355 0.018047
vt 0.515355 0.013679
vt 0.515355 0.008385
vt 0.502651 0.008385
vt 0.502651 0.013679
vt 0.502651 0.013679
vt 0.515355 0.013679
vt 0.515355 0.008385
vt 0.515355 0.013679
vt 0.525000 0.013679
vt 0.525000 0.008385
vt 0.525000 0.008385
vt 0.515355 0.008385
vt 0.515355 0.013679
vt 0.515355 0.018047
vt 0.525000 0.018047
vt 0.525000 0.013679
vt 0.525000 0.013679
vt 0.515355 0.013679
vt 0.515355 0.018047
vt 0.532422 0.013679
vt 0.531322 0.013679
vt 0.531322 0.018047
vt 0.531322 0.018047
vt 0.532422 0.018047
vt 0.532422 0.013679
vt 0.532422 0.008385
vt 0.531322 0.008385
vt 0.531322 0.013679
vt 0.531322 0.013679
vt 0.532422 0.013679
vt 0.532422 0.008385
vt 0.532422 0.013679
vt 0.533053 0.013679
vt 0.533053 0.008385
vt 0.533053 0.008385
vt 0.532422 0.008385
vt 0.532422 0.013679
vt 0.532422 0.018047
vt 0.533053 0.018047
vt 0.533053 0.013679
vt 0.533053 0.013679
vt 0.532422 0.013679
vt 0.532422 0.018047
vt 0.537633 0.013679
vt 0.536139 0.013679
vt 0.536139 0.018047
vt 0.536139 0.018047
vt 0.537633 0.018047
vt 0.537633 0.013679
vt 0.537633 0.008385
vt 0.536139 0.008385
vt 0.536139 0.013679
vt 0.536139 0.013679
vt 0.537633 0.013679
vt 0.537633 0.008385
vt 0.537633 0.013679
vt 0.539292 0.013679
vt 0.539292 0.008385
vt 0.539292 0.008385
vt 0.537633 0.008385
vt 0.537633 0.013679
vt 0.537633 0.018047
vt 0.539292 0.018047
vt 0.539292 0.013679
vt 0.539292 0.013679
vt 0.537633 0.013679
vt 0.537633 0.018047
vt 0.760743 0.013679
vt 0.596973 0.013679
vt 0.596973 0.018047
vt 0.596973 0.018047
vt 0.760743 0.018047
vt 0.760743 0.013679
vt 0.760743 0.008385
vt 0.596973 0.008385
vt 0.596973 0.013679
vt 0.596973 0.013679
vt 0.760743 0.013679
vt 0.760743 0.008385
vt 0.760743 0.013679
vt 0.924311 0.013679
vt 0.924311 0.008385
vt 0.924311 0.008385
vt 0.760743 0.008385
vt 0.760743 0.013679
vt 0.760743 0.018047
vt 0.924311 0.018047
vt 0.924311 0.013679
vt 0.924311 0.013679
vt 0.760743 0.013679
vt 0.760743 0.018047
vt 0.461197 0.013679
vt 0.405055 0.013679
vt 0.405055 0.018047
vt 0.405055 0.018047
vt 0.461197 0.018047
vt 0.461197 0.013679
vt 0.461197 0.008385
vt 0.405055 0.008385
vt 0.405055 0.013679
vt 0.405055 0.013679
vt 0.461197 0.013679
vt 0.461197 0.008385
vt 0.461197 0.013679
vt 0.463026 0.013679
vt 0.463026 0.008385
vt 0.463026 0.008385
vt 0.461197 0.008385
vt 0.461197 0.013679
vt 0.461197 0.018047
vt 0.463026 0.018047
vt 0.463026 0.013679
vt 0.463026 0.013679
vt 0.461197 0.013679
vt 0.461197 0.018047
vt 0.541114 0.013679
vt 0.539292 0.013679
vt 0.539292 0.018047
vt 0.539292 0.018047
vt 0.541114 0.018047
vt 0.541114 0.013679
vt 0.541114 0.008385
vt 0.539292 0.008385
vt 0.539292 0.013679
vt 0.539292 0.013679
vt 0.541114 0.013679
vt 0.541114 0.008385
vt 0.541114 0.013679
vt 0.596973 0.013679
vt 0.596973 0.008385
vt 0.596973 0.008385
vt 0.541114 0.008385
vt 0.541114 0.013679
vt 0.541114 0.018047
vt 0.596973 0.018047
vt 0.596973 0.013679
vt 0.596973 0.013679
vt 0.541114 0.013679
vt 0.541114 0.018047
vt 0.467512 0.013679
vt 0.466181 0.013679
vt 0.466181 0.018047
vt 0.466181 0.018047
vt 0.467512 0.018047
vt 0.467512 0.013679
vt 0.467512 0.008385
vt 0.466181 0.008385
vt 0.466181 0.013679
vt 0.466181 0.013679
vt 0.467512 0.013679
vt 0.467512 0.008385
vt 0.467512 0.013679
vt 0.468492 0.013679
vt 0.468492 0.008385
vt 0.468492 0.008385
vt 0.467512 0.008385
vt 0.467512 0.013679
vt 0.467512 0.018047
vt 0.468492 0.018047
vt 0.468492 0.013679
vt 0.468492 0.013679
vt 0.467512 0.013679
vt 0.467512 0.018047
vt 0.533382 0.013679
vt 0.533053 0.013679
vt 0.533053 0.018047
vt 0.533053 0.018047
vt 0.533382 0.018047
vt 0.533382 0.013679
vt 0.533382 0.008385
vt 0.533053 0.008385
vt 0.533053 0.013679
vt 0.533053 0.013679
vt 0.533382 0.013679
vt 0.533382 0.008385
vt 0.533382 0.013679
vt 0.533828 0.013679
vt 0.533828 0.008385
vt 0.533828 0.008385
vt 0.533382 0.008385
vt 0.533382 0.013679
vt 0.533382 0.018047
vt 0.533828 0.018047
vt 0.533828 0.013679
vt 0.533828 0.013679
vt 0.533382 0.013679
vt 0.533382 0.018047
vt 0.472641 0.013679
vt 0.470975 0.013679
vt 0.470975 0.018047
vt 0.470975 0.018047
vt 0.472641 0.018047
vt 0.472641 0.013679
vt 0.472641 0.008385
vt 0.470975 0.008385
vt 0.470975 0.013679
vt 0.470975 0.013679
vt 0.472641 0.013679
vt 0.472641 0.008385
vt 0.472641 0.013679
vt 0.477684 0.013679
vt 0.477684 0.008385
vt 0.477684 0.008385
vt 0.472641 0.008385
vt 0.472641 0.013679
vt 0.472641 0.018047
vt 0.477684 0.018047
vt 0.477684 0.013679
vt 0.477684 0.013679
vt 0.472641 0.013679
vt 0.472641 0.018047
vt 0.529585 0.013679
vt 0.525000 0.013679
vt 0.525000 0.018047
vt 0.525000 0.018047
vt 0.529585 0.018047
vt 0.529585 0.013679
vt 0.529585 0.008385
vt 0.525000 0.008385
vt 0.525000 0.013679
vt 0.525000 0.013679
vt 0.529585 0.013679
vt 0.529585 0.008385
vt 0.529585 0.013679
vt 0.531322 0.013679
vt 0.531322 0.008385
vt 0.531322 0.008385
vt 0.529585 0.008385
vt 0.529585 0.013679
vt 0.529585 0.018047
vt 0.531322 0.018047
vt 0.531322 0.013679
vt 0.531322 0.013679
vt 0.529585 0.013679
vt 0.529585 0.018047
vt 0.980894 0.019809
vt 0.982704 0.019809
vt 0.982704 0.018047
vt 0.982704 0.018047
vt 0.980894 0.018047
vt 0.980894 0.019809
vt 0.980894 0.020654
vt 0.982704 0.020654
vt 0.982704 0.019809
vt 0.982704 0.019809
vt 0.980894 0.019809
vt 0.980894 0.020654
vt 0.980894 0.019809
vt 0.980442 0.019809
vt 0.978598 0.020516
vt 0.978598 0.020516
vt 0.980894 0.020654
vt 0.980894 0.019809
vt 0.980894 0.018047
vt 0.980442 0.018047
vt 0.980442 0.019809
vt 0.980442 0.019809
vt 0.980894 0.019809
vt 0.980894 0.018047
vt 0.240457 0.019809
vt 0.405055 0.019809
vt 0.405055 0.018047
vt 0.405055 0.018047
vt 0.240457 0.018047
vt 0.240457 0.019809
vt 0.242083 0.020154
vt 0.405655 0.020154
vt 0.405055 0.019809
vt 0.405055 0.019809
vt 0.240457 0.019809
vt 0.242083 0.020154
vt 0.240457 0.019809
vt 0.076062 0.019809
vt 0.078713 0.020154
vt 0.078713 0.020154
vt 0.242083 0.020154
vt 0.240457 0.019809
vt 0.240457 0.018047
vt 0.076062 0.018047
vt 0.076062 0.019809
vt 0.076062 0.019809
vt 0.240457 0.019809
vt 0.240457 0.018047
vt 0.019193 0.019809
vt 0.019646 0.019809
vt 0.019646 0.018047
vt 0.019646 0.018047
vt 0.019193 0.018047
vt 0.019193 0.019809
vt 0.019193 0.020654
vt 0.021490 0.020516
vt 0.019646 0.019809
vt 0.019646 0.019809
vt 0.019193 0.019809
vt 0.019193 0.020654
vt 0.019193 0.019809
vt 0.017373 0.019809
vt 0.017373 0.020654
vt 0.017373 0.020654
vt 0.019193 0.020654
vt 0.019193 0.019809
vt 0.019193 0.018047
vt 0.017373 0.018047
vt 0.017373 0.019809
vt 0.017373 0.019809
vt 0.019193 0.019809
vt 0.019193 0.018047
vt 0.987661 0.019809
vt 0.993035 0.019809
vt 0.993035 0.018047
vt 0.993035 0.018047
vt 0.987661 0.018047
vt 0.987661 0.019809
vt 0.987661 0.020654
vt 0.993035 0.020654
vt 0.993035 0.019809
vt 0.993035 0.019809
vt 0.987661 0.019809
vt 0.987661 0.020654
vt 0.987661 0.019809
vt 0.982704 0.019809
vt 0.982704 0.020654
vt 0.982704 0.020654
vt 0.987661 0.020654
vt 0.987661 0.019809
vt 0.987661 0.018047
vt 0.982704 0.018047
vt 0.982704 0.019809
vt 0.982704 0.019809
vt 0.987661 0.019809
vt 0.987661 0.018047
vt 0.020531 0.983005
vt 0.020531 0.984768
vt 0.076062 0.984768
vt 0.076062 0.984768
vt 0.076062 0.983005
vt 0.020531 0.983005
vt 0.019646 0.983005
vt 0.019646 0.984768
vt 0.020531 0.984768
vt 0.020531 0.984768
vt 0.020531 0.983005
vt 0.019646 0.983005
vt 0.020531 0.983005
vt 0.023528 0.982661
vt 0.021490 0.982299
vt 0.021490 0.982299
vt 0.019646 0.983005
vt 0.020531 0.983005
vt 0.076062 0.983005
vt 0.078713 0.982661
vt 0.023528 0.982661
vt 0.023528 0.982661
vt 0.020531 0.983005
vt 0.076062 0.983005
vt 0.979563 0.019809
vt 0.979563 0.018047
vt 0.924311 0.018047
vt 0.924311 0.018047
vt 0.924311 0.019809
vt 0.979563 0.019809
vt 0.980442 0.019809
vt 0.980442 0.018047
vt 0.979563 0.018047
vt 0.979563 0.018047
vt 0.979563 0.019809
vt 0.980442 0.019809
vt 0.979563 0.019809
vt 0.976566 0.020154
vt 0.978598 0.020516
vt 0.978598 0.020516
vt 0.980442 0.019809
vt 0.979563 0.019809
vt 0.924311 0.019809
vt 0.921660 0.020154
vt 0.976566 0.020154
vt 0.976566 0.020154
vt 0.979563 0.019809
vt 0.924311 0.019809
vt 0.760743 0.989136
vt 0.760743 0.994430
vt 0.924311 0.994430
vt 0.924311 0.994430
vt 0.924311 0.989136
vt 0.760743 0.989136
vt 0.596973 0.989136
vt 0.596973 0.994430
vt 0.760743 0.994430
vt 0.760743 0.994430
vt 0.760743 0.989136
vt 0.596973 0.989136
vt 0.760743 0.989136
vt 0.760743 0.984768
vt 0.596973 0.984768
vt 0.596973 0.984768
vt 0.596973 0.989136
vt 0.760743 0.989136
vt 0.924311 0.989136
vt 0.924311 0.984768
vt 0.760743 0.984768
vt 0.760743 0.984768
vt 0.760743 0.989136
vt 0.924311 0.989136
vt 0.240457 0.013679
vt 0.240457 0.008385
vt 0.076062 0.008385
vt 0.076062 0.008385
vt 0.076062 0.013679
vt 0.240457 0.013679
vt 0.405055 0.013679
vt 0.405055 0.008385
vt 0.240457 0.008385
vt 0.240457 0.008385
vt 0.240457 0.013679
vt 0.405055 0.013679
vt 0.240457 0.013679
vt 0.240457 0.018047
vt 0.405055 0.018047
vt 0.405055 0.018047
vt 0.405055 0.013679
vt 0.240457 0.013679
vt 0.076062 0.013679
vt 0.076062 0.018047
vt 0.240457 0.018047
vt 0.240457 0.018047
vt 0.240457 0.013679
vt 0.076062 0.013679
vt 0.020531 0.989136
vt 0.020531 0.994430
vt 0.076062 0.994430
vt 0.076062 0.994430
vt 0.076062 0.989136
vt 0.020531 0.989136
vt 0.019646 0.989136
vt 0.019646 0.994430
vt 0.020531 0.994430
vt 0.020531 0.994430
vt 0.020531 0.989136
vt 0.019646 0.989136
vt 0.020531 0.989136
vt 0.020531 0.984768
vt 0.019646 0.984768
vt 0.019646 0.984768
vt 0.019646 0.989136
vt 0.020531 0.989136
vt 0.076062 0.989136
vt 0.076062 0.984768
vt 0.020531 0.984768
vt 0.020531 0.984768
vt 0.020531 0.989136
vt 0.076062 0.989136
vt 0.979563 0.983005
vt 0.976566 0.982661
vt 0.921660 0.982661
vt 0.921660 0.982661
vt 0.924311 0.983005
vt 0.979563 0.983005
vt 0.980443 0.983005
vt 0.978598 0.982299
vt 0.976566 0.982661
vt 0.976566 0.982661
vt 0.979563 0.983005
vt 0.980443 0.983005
vt 0.979563 0.983005
vt 0.979563 0.984768
vt 0.980442 0.984768
vt 0.980442 0.984768
vt 0.980443 0.983005
vt 0.979563 0.983005
vt 0.924311 0.983005
vt 0.924311 0.984768
vt 0.979563 0.984768
vt 0.979563 0.984768
vt 0.979563 0.983005
vt 0.924311 0.983005
vt 0.979563 0.013679
vt 0.979563 0.008385
vt 0.924311 0.008385
vt 0.924311 0.008385
vt 0.924311 0.013679
vt 0.979563 0.013679
vt 0.980442 0.013679
vt 0.980442 0.008385
vt 0.979563 0.008385
vt 0.979563 0.008385
vt 0.979563 0.013679
vt 0.980442 0.013679
vt 0.979563 0.013679
vt 0.979563 0.018047
vt 0.980442 0.018047
vt 0.980442 0.018047
vt 0.980442 0.013679
vt 0.979563 0.013679
vt 0.924311 0.013679
vt 0.924311 0.018047
vt 0.979563 0.018047
vt 0.979563 0.018047
vt 0.979563 0.013679
vt 0.924311 0.013679
vt 0.020531 0.019809
vt 0.023528 0.020154
vt 0.078713 0.020154
vt 0.078713 0.020154
vt 0.076062 0.019809
vt 0.020531 0.019809
vt 0.019646 0.019809
vt 0.021490 0.020516
vt 0.023528 0.020154
vt 0.023528 0.020154
vt 0.020531 0.019809
vt 0.019646 0.019809
vt 0.020531 0.019809
vt 0.020531 0.018047
vt 0.019646 0.018047
vt 0.019646 0.018047
vt 0.019646 0.019809
vt 0.020531 0.019809
vt 0.076062 0.019809
vt 0.076062 0.018047
vt 0.020531 0.018047
vt 0.020531 0.018047
vt 0.020531 0.019809
vt 0.076062 0.019809
vt 0.012391 0.022270
vt 0.006990 0.022270
vt 0.006990 0.143055
vt 0.006990 0.143055
vt 0.012391 0.143055
vt 0.012391 0.022270
vt 0.012391 0.020654
vt 0.006990 0.020654
vt 0.006990 0.022270
vt 0.006990 0.022270
vt 0.012391 0.022270
vt 0.012391 0.020654
vt 0.012391 0.022270
vt 0.017373 0.022270
vt 0.017373 0.020654
vt 0.017373 0.020654
vt 0.012391 0.020654
vt 0.012391 0.022270
vt 0.012391 0.143055
vt 0.017373 0.143055
vt 0.017373 0.022270
vt 0.017373 0.022270
vt 0.012391 0.022270
vt 0.012391 0.143055
vt 0.012391 0.980545
vt 0.017373 0.980545
vt 0.017373 0.859760
vt 0.017373 0.859760
vt 0.012391 0.859760
vt 0.012391 0.980545
vt 0.012391 0.982160
vt 0.017373 0.982160
vt 0.017373 0.980545
vt 0.017373 0.980545
vt 0.012391 0.980545
vt 0.012391 0.982160
vt 0.012391 0.980545
vt 0.006990 0.980545
vt 0.006990 0.982160
vt 0.006990 0.982160
vt 0.012391 0.982160
vt 0.012391 0.980545
vt 0.012391 0.859760
vt 0.006990 0.859760
vt 0.006990 0.980545
vt 0.006990 0.980545
vt 0.012391 0.980545
vt 0.012391 0.859760
vt 0.980894 0.980545
vt 0.982704 0.980545
vt 0.982704 0.859760
vt 0.982704 0.859760
vt 0.980894 0.859760
vt 0.980894 0.980545
vt 0.980894 0.982160
vt 0.982704 0.982160
vt 0.982704 0.980545
vt 0.982704 0.980545
vt 0.980894 0.980545
vt 0.980894 0.982160
vt 0.980894 0.980545
vt 0.977712 0.980545
vt 0.978598 0.982299
vt 0.978598 0.982299
vt 0.980894 0.982160
vt 0.980894 0.980545
vt 0.980894 0.859760
vt 0.977712 0.859760
vt 0.977712 0.980545
vt 0.977712 0.980545
vt 0.980894 0.980545
vt 0.980894 0.859760
vt 0.980894 0.022270
vt 0.977712 0.022270
vt 0.977712 0.143055
vt 0.977712 0.143055
vt 0.980894 0.143055
vt 0.980894 0.022270
vt 0.980894 0.020654
vt 0.978598 0.020516
vt 0.977712 0.022270
vt 0.977712 0.022270
vt 0.980894 0.022270
vt 0.980894 0.020654
vt 0.980894 0.022270
vt 0.982704 0.022270
vt 0.982704 0.020654
vt 0.982704 0.020654
vt 0.980894 0.020654
vt 0.980894 0.022270
vt 0.980894 0.143055
vt 0.982704 0.143055
vt 0.982704 0.022270
vt 0.982704 0.022270
vt 0.980894 0.022270
vt 0.980894 0.143055
vt 0.019193 0.980545
vt 0.022375 0.980545
vt 0.022375 0.859760
vt 0.022375 0.859760
vt 0.019193 0.859760
vt 0.019193 0.980545
vt 0.019193 0.982160
vt 0.021490 0.982299
vt 0.022375 0.980545
vt 0.022375 0.980545
vt 0.019193 0.980545
vt 0.019193 0.982160
vt 0.019193 0.980545
vt 0.017373 0.980545
vt 0.017373 0.982160
vt 0.017373 0.982160
vt 0.019193 0.982160
vt 0.019193 0.980545
vt 0.019193 0.859760
vt 0.017373 0.859760
vt 0.017373 0.980545
vt 0.017373 0.980545
vt 0.019193 0.980545
vt 0.019193 0.859760
vt 0.019193 0.022270
vt 0.017373 0.022270
vt 0.017373 0.143055
vt 0.017373 0.143055
vt 0.019193 0.143055
vt 0.019193 0.022270
vt 0.019193 0.020654
vt 0.017373 0.020654
vt 0.017373 0.022270
vt 0.017373 0.022270
vt 0.019193 0.022270
vt 0.019193 0.020654
vt 0.019193 0.022270
vt 0.022375 0.022270
vt 0.021490 0.020516
vt 0.021490 0.020516
vt 0.019193 0.020654
vt 0.019193 0.022270
vt 0.019193 0.143055
vt 0.022375 0.143055
vt 0.022375 0.022270
vt 0.022375 0.022270
vt 0.019193 0.022270
vt 0.019193 0.143055
vt 0.987661 0.980545
vt 0.993035 0.980545
vt 0.993035 0.859760
vt 0.993035 0.859760
vt 0.987661 0.859760
vt 0.987661 0.980545
vt 0.987661 0.982160
vt 0.993035 0.982160
vt 0.993035 0.980545
vt 0.993035 0.980545
vt 0.987661 0.980545
vt 0.987661 0.982160
vt 0.987661 0.980545
vt 0.982704 0.980545
vt 0.982704 0.982160
vt 0.982704 0.982160
vt 0.987661 0.982160
vt 0.987661 0.980545
vt 0.987661 0.859760
vt 0.982704 0.859760
vt 0.982704 0.980545
vt 0.982704 0.980545
vt 0.987661 0.980545
vt 0.987661 0.859760
vt 0.987661 0.022270
vt 0.982704 0.022270
vt 0.982704 0.143055
vt 0.982704 0.143055
vt 0.987661 0.143055
vt 0.987661 0.022270
vt 0.987661 0.020654
vt 0.982704 0.020654
vt 0.982704 0.022270
vt 0.982704 0.022270
vt 0.987661 0.022270
vt 0.987661 0.020654
vt 0.987661 0.022270
vt 0.993035 0.022270
vt 0.993035 0.020654
vt 0.993035 0.020654
vt 0.987661 0.020654
vt 0.987661 0.022270
vt 0.987661 0.143055
vt 0.993035 0.143055
vt 0.993035 0.022270
vt 0.993035 0.022270
vt 0.987661 0.022270
vt 0.987661 0.143055
vt 0.467512 0.983005
vt 0.467512 0.984768
vt 0.468492 0.984768
vt 0.468492 0.984768
vt 0.468492 0.983005
vt 0.467512 0.983005
vt 0.466181 0.983005
vt 0.466181 0.984768
vt 0.467512 0.984768
vt 0.467512 0.984768
vt 0.467512 0.983005
vt 0.466181 0.983005
vt 0.467512 0.983005
vt 0.467722 0.982661
vt 0.466400 0.982661
vt 0.466400 0.982661
vt 0.466181 0.983005
vt 0.467512 0.983005
vt 0.468492 0.983005
vt 0.468696 0.982661
vt 0.467722 0.982661
vt 0.467722 0.982661
vt 0.467512 0.983005
vt 0.468492 0.983005
vt 0.468938 0.019809
vt 0.468938 0.018047
vt 0.468492 0.018047
vt 0.468492 0.018047
vt 0.468492 0.019809
vt 0.468938 0.019809
vt 0.469267 0.019809
vt 0.469267 0.018047
vt 0.468938 0.018047
vt 0.468938 0.018047
vt 0.468938 0.019809
vt 0.469267 0.019809
vt 0.468938 0.019809
vt 0.469139 0.020154
vt 0.469341 0.097178
vt 0.469341 0.097178
vt 0.469267 0.019809
vt 0.468938 0.019809
vt 0.468492 0.019809
vt 0.468696 0.020154
vt 0.469139 0.020154
vt 0.469139 0.020154
vt 0.468938 0.019809
vt 0.468492 0.019809
vt 0.533382 0.983005
vt 0.533382 0.984768
vt 0.533828 0.984768
vt 0.533828 0.984768
vt 0.533828 0.983005
vt 0.533382 0.983005
vt 0.533053 0.983005
vt 0.533053 0.984768
vt 0.533382 0.984768
vt 0.533382 0.984768
vt 0.533382 0.983005
vt 0.533053 0.983005
vt 0.533382 0.983005
vt 0.533181 0.982661
vt 0.532979 0.905637
vt 0.532979 0.905637
vt 0.533053 0.983005
vt 0.533382 0.983005
vt 0.533828 0.983005
vt 0.533624 0.982661
vt 0.533181 0.982661
vt 0.533181 0.982661
vt 0.533382 0.983005
vt 0.533828 0.983005
vt 0.534809 0.019809
vt 0.534809 0.018047
vt 0.533828 0.018047
vt 0.533828 0.018047
vt 0.533828 0.019809
vt 0.534809 0.019809
vt 0.536139 0.019809
vt 0.536139 0.018047
vt 0.534809 0.018047
vt 0.534809 0.018047
vt 0.534809 0.019809
vt 0.536139 0.019809
vt 0.534809 0.019809
vt 0.534598 0.020154
vt 0.535920 0.020154
vt 0.535920 0.020154
vt 0.536139 0.019809
vt 0.534809 0.019809
vt 0.533828 0.019809
vt 0.533624 0.020154
vt 0.534598 0.020154
vt 0.534598 0.020154
vt 0.534809 0.019809
vt 0.533828 0.019809
vt 0.467512 0.989136
vt 0.467512 0.994430
vt 0.468492 0.994430
vt 0.468492 0.994430
vt 0.468492 0.989136
vt 0.467512 0.989136
vt 0.466181 0.989136
vt 0.466181 0.994430
vt 0.467512 0.994430
vt 0.467512 0.994430
vt 0.467512 0.989136
vt 0.466181 0.989136
vt 0.467512 0.989136
vt 0.467512 0.984768
vt 0.466181 0.984768
vt 0.466181 0.984768
vt 0.466181 0.989136
vt 0.467512 0.989136
vt 0.468492 0.989136
vt 0.468492 0.984768
vt 0.467512 0.984768
vt 0.467512 0.984768
vt 0.467512 0.989136
vt 0.468492 0.989136
vt 0.533382 0.989136
vt 0.533382 0.994430
vt 0.533828 0.994430
vt 0.533828 0.994430
vt 0.533828 0.989136
vt 0.533382 0.989136
vt 0.533053 0.989136
vt 0.533053 0.994430
vt 0.533382 0.994430
vt 0.533382 0.994430
vt 0.533382 0.989136
vt 0.533053 0.989136
vt 0.533382 0.989136
vt 0.533382 0.984768
vt 0.533053 0.984768
vt 0.533053 0.984768
vt 0.533053 0.989136
vt 0.533382 0.989136
vt 0.533828 0.989136
vt 0.533828 0.984768
vt 0.533382 0.984768
vt 0.533382 0.984768
vt 0.533382 0.989136
vt 0.533828 0.989136
vt 0.468938 0.013679
vt 0.468938 0.008385
vt 0.468492 0.008385
vt 0.468492 0.008385
vt 0.468492 0.013679
vt 0.468938 0.013679
vt 0.469267 0.013679
vt 0.469267 0.008385
vt 0.468938 0.008385
vt 0.468938 0.008385
vt 0.468938 0.013679
vt 0.469267 0.013679
vt 0.468938 0.013679
vt 0.468938 0.018047
vt 0.469267 0.018047
vt 0.469267 0.018047
vt 0.469267 0.013679
vt 0.468938 0.013679
vt 0.468492 0.013679
vt 0.468492 0.018047
vt 0.468938 0.018047
vt 0.468938 0.018047
vt 0.468938 0.013679
vt 0.468492 0.013679
vt 0.534809 0.013679
vt 0.534809 0.008385
vt 0.533828 0.008385
vt 0.533828 0.008385
vt 0.533828 0.013679
vt 0.534809 0.013679
vt 0.536139 0.013679
vt 0.536139 0.008385
vt 0.534809 0.008385
vt 0.534809 0.008385
vt 0.534809 0.013679
vt 0.536139 0.013679
vt 0.534809 0.013679
vt 0.534809 0.018047
vt 0.536139 0.018047
vt 0.536139 0.018047
vt 0.536139 0.013679
vt 0.534809 0.013679
vt 0.533828 0.013679
vt 0.533828 0.018047
vt 0.534809 0.018047
vt 0.534809 0.018047
vt 0.534809 0.013679
vt 0.533828 0.013679
f 1/1 2/2 3/3
f 3/4 4/5 1/6
f 5/7 6/8 2/9
f 2/10 1/11 5/12
f 1/13 7/14 8/15
f 8/16 5/17 1/18
f 4/19 9/20 7/21
f 7/22 1/23 4/24
f 10/25 11/26 12/27
f 12/28 13/29 10/30
f 14/31 15/32 11/33
f 11/34 10/35 14/36
f 10/37 16/38 17/39
f 17/40 14/41 10/42
f 13/43 18/44 16/45
f 16/46 10/47 13/48
f 19/49 20/50 21/51
f 21/52 22/53 19/54
f 23/55 24/56 20/57
f 20/58 19/59 23/60
f 19/61 25/62 26/63
f 26/64 23/65 19/66
f 22/67 27/68 25/69
f 25/70 19/71 22/72
f 28/73 25/74 27/75
f 27/76 29/77 28/78
f 30/79 26/80 25/81
f 25/82 28/83 30/84
f 28/85 31/86 32/87
f 32/88 30/89 28/90
f 29/91 33/92 31/93
f 31/94 28/95 29/96
f 34/97 35/98 36/99
f 36/100 37/101 34/102
f 38/103 39/104 35/105
f 35/106 34/107 38/108
f 34/109 40/110 41/111
f 41/112 38/113 34/114
f 37/115 42/116 40/117
f 40/118 34/119 37/120
f 43/121 20/122 24/123
f 24/124 44/125 43/126
f 45/127 21/128 20/129
f 20/130 43/131 45/132
f 43/133 16/134 18/135
f 18/136 45/137 43/138
f 44/139 17/140 16/141
f 16/142 43/143 44/144
f 46/145 35/146 39/147
f 39/148 47/149 46/150
f 48/151 36/152 35/153
f 35/154 46/155 48/156
f 46/157 31/158 33/159
f 33/160 48/161 46/162
f 47/163 32/164 31/165
f 31/166 46/167 47/168
f 49/169 50/170 51/171
f 51/172 52/173 49/174
f 53/175 54/176 50/177
f 50/178 49/179 53/180
f 49/181 55/182 56/183
f 56/184 53/185 49/186
f 52/187 57/188 55/189
f 55/190 49/191 52/192
f 58/193 59/194 60/195
f 60/196 61/197 58/198
f 62/199 63/200 59/201
f 59/202 58/203 62/204
f 58/205 64/206 65/207
f 65/208 62/209 58/210
f 61/211 66/212 64/213
f 64/214 58/215 61/216
f 67/217 68/218 69/219
f 69/220 70/221 67/222
f 71/223 72/224 68/225
f 68/226 67/227 71/228
f 67/229 73/230 74/231
f 74/232 71/233 67/234
f 70/235 75/236 73/237
f 73/238 67/239 70/240
f 76/241 77/242 78/243
f 78/244 79/245 76/246
f 80/247 81/248 77/249
f 77/250 76/251 80/252
f 76/253 82/254 83/255
f 83/256 80/257 76/258
f 79/259 84/260 82/261
f 82/262 76/263 79/264
f 85/265 86/266 15/267
f 15/268 14/269 85/270
f 87/271 88/272 86/273
f 86/274 85/275 87/276
f 85/277 89/278 90/279
f 90/280 87/281 85/282
f 14/283 17/284 89/285
f 89/286 85/287 14/288
f 91/289 92/290 18/291
f 18/292 13/293 91/294
f 93/295 94/296 92/297
f 92/298 91/299 93/300
f 91/301 95/302 96/303
f 96/304 93/305 91/306
f 13/307 12/308 95/309
f 95/310 91/311 13/312
f 97/313 98/314 24/315
f 24/316 23/317 97/318
f 99/319 100/320 98/321
f 98/322 97/323 99/324
f 97/325 101/326 102/327
f 102/328 99/329 97/330
f 23/331 26/332 101/333
f 101/334 97/335 23/336
f 103/337 104/338 27/339
f 27/340 22/341 103/342
f 105/343 106/344 104/345
f 104/346 103/347 105/348
f 103/349 107/350 108/351
f 108/352 105/353 103/354
f 22/355 21/356 107/357
f 107/358 103/359 22/360
f 109/361 101/362 26/363
f 26/364 30/365 109/366
f 110/367 102/368 101/369
f 101/370 109/371 110/372
f 109/373 111/374 112/375
f 112/376 110/377 109/378
f 30/379 32/380 111/381
f 111/382 109/383 30/384
f 113/385 114/386 33/387
f 33/388 29/389 113/390
f 115/391 116/392 114/393
f 114/394 113/395 115/396
f 113/397 104/398 106/399
f 106/400 115/401 113/402
f 29/403 27/404 104/405
f 104/406 113/407 29/408
f 117/409 118/410 39/411
f 39/412 38/413 117/414
f 119/415 120/416 118/417
f 118/418 117/419 119/420
f 117/421 121/422 122/423
f 122/424 119/425 117/426
f 38/427 41/428 121/429
f 121/430 117/431 38/432
f 123/433 124/434 42/435
f 42/436 37/437 123/438
f 125/439 126/440 124/441
f 124/442 123/443 125/444
f 123/445 127/446 128/447
f 128/448 125/449 123/450
f 37/451 36/452 127/453
f 127/454 123/455 37/456
f 129/457 130/458 131/459
f 131/460 132/461 129/462
f 133/463 134/464 130/465
f 130/466 129/467 133/468
f 129/469 135/470 136/471
f 136/472 133/473 129/474
f 132/475 137/476 135/477
f 135/478 129/479 132/480
f 138/481 139/482 140/483
f 140/484 141/485 138/486
f 142/487 143/488 139/489
f 139/490 138/491 142/492
f 138/493 144/494 145/495
f 145/496 142/497 138/498
f 141/499 146/500 144/501
f 144/502 138/503 141/504
f 147/505 148/506 149/507
f 149/508 150/509 147/510
f 151/511 152/512 148/513
f 148/514 147/515 151/516
f 147/517 153/518 154/519
f 154/520 151/521 147/522
f 150/523 155/524 153/525
f 153/526 147/527 150/528
f 156/529 157/530 158/531
f 158/532 159/533 156/534
f 160/535 161/536 157/537
f 157/538 156/539 160/540
f 156/541 162/542 163/543
f 163/544 160/545 156/546
f 159/547 164/548 162/549
f 162/550 156/551 159/552
f 165/553 166/554 167/555
f 167/556 168/557 165/558
f 169/559 170/560 166/561
f 166/562 165/563 169/564
f 165/565 68/566 72/567
f 72/568 169/569 165/570
f 168/571 69/572 68/573
f 68/574 165/575 168/576
f 171/577 82/578 84/579
f 84/580 172/581 171/582
f 173/583 83/584 82/585
f 82/586 171/587 173/588
f 171/589 59/590 63/591
f 63/592 173/593 171/594
f 172/595 60/596 59/597
f 59/598 171/599 172/600
f 174/601 175/602 176/603
f 176/604 177/605 174/606
f 178/607 179/608 175/609
f 175/610 174/611 178/612
f 174/613 139/614 143/615
f 143/616 178/617 174/618
f 177/619 140/620 139/621
f 139/622 174/623 177/624
f 180/625 135/626 137/627
f 137/628 181/629 180/630
f 182/631 136/632 135/633
f 135/634 180/635 182/636
f 180/637 148/638 152/639
f 152/640 182/641 180/642
f 181/643 149/644 148/645
f 148/646 180/647 181/648
f 183/649 95/650 12/651
f 12/652 184/653 183/654
f 185/655 96/656 95/657
f 95/658 183/659 185/660
f 183/661 186/662 187/663
f 187/664 185/665 183/666
f 184/667 188/668 186/669
f 186/670 183/671 184/672
f 189/673 73/674 75/675
f 75/676 190/677 189/678
f 191/679 74/680 73/681
f 73/682 189/683 191/684
f 189/685 192/686 193/687
f 193/688 191/689 189/690
f 190/691 194/692 192/693
f 192/694 189/695 190/696
f 195/697 144/698 146/699
f 146/700 196/701 195/702
f 197/703 145/704 144/705
f 144/706 195/707 197/708
f 195/709 198/710 199/711
f 199/712 197/713 195/714
f 196/715 200/716 198/717
f 198/718 195/719 196/720
f 201/721 121/722 41/723
f 41/724 202/725 201/726
f 203/727 122/728 121/729
f 121/730 201/731 203/732
f 201/733 204/734 205/735
f 205/736 203/737 201/738
f 202/739 206/740 204/741
f 204/742 201/743 202/744
f 207/745 107/746 21/747
f 21/748 45/749 207/750
f 208/751 108/752 107/753
f 107/754 207/755 208/756
f 207/757 92/758 94/759
f 94/760 208/761 207/762
f 45/763 18/764 92/765
f 92/766 207/767 45/768
f 209/769 89/770 17/771
f 17/772 44/773 209/774
f 210/775 90/776 89/777
f 89/778 209/779 210/780
f 209/781 98/782 100/783
f 100/784 210/785 209/786
f 44/787 24/788 98/789
f 98/790 209/791 44/792
f 211/793 127/794 36/795
f 36/796 48/797 211/798
f 212/799 128/800 127/801
f 127/802 211/803 212/804
f 211/805 114/806 116/807
f 116/808 212/809 211/810
f 48/811 33/812 114/813
f 114/814 211/815 48/816
f 213/817 111/818 32/819
f 32/820 47/821 213/822
f 214/823 112/824 111/825
f 111/826 213/827 214/828
f 213/829 118/830 120/831
f 120/832 214/833 213/834
f 47/835 39/836 118/837
f 118/838 213/839 47/840
f 215/841 216/842 217/843
f 217/844 218/845 215/846
f 219/847 220/848 216/849
f 216/850 215/851 219/852
f 215/853 221/854 222/855
f 222/856 219/857 215/858
f 218/859 223/860 221/861
f 221/862 215/863 218/864
f 224/865 225/866 226/867
f 226/868 227/869 224/870
f 228/871 229/872 225/873
f 225/874 224/875 228/876
f 224/877 230/878 231/879
f 231/880 228/881 224/882
f 227/883 232/884 230/885
f 230/886 224/887 227/888
f 233/889 234/890 235/891
f 235/892 236/893 233/894
f 237/895 238/896 234/897
f 234/898 233/899 237/900
f 233/901 239/902 240/903
f 240/904 237/905 233/906
f 236/907 241/908 239/909
f 239/910 233/911 236/912
f 242/913 243/914 244/915
f 244/916 245/917 242/918
f 246/919 247/920 243/921
f 243/922 242/923 246/924
f 242/925 248/926 249/927
f 249/928 246/929 242/930
f 245/931 250/932 248/933
f 248/934 242/935 245/936
f 251/937 252/938 253/939
f 253/940 254/941 251/942
f 255/943 256/944 252/945
f 252/946 251/947 255/948
f 251/949 257/950 258/951
f 258/952 255/953 251/954
f 254/955 259/956 257/957
f 257/958 251/959 254/960
f 260/961 261/962 262/963
f 262/964 263/965 260/966
f 264/967 265/968 261/969
f 261/970 260/971 264/972
f 260/973 7/974 9/975
f 9/976 264/977 260/978
f 263/979 8/980 7/981
f 7/982 260/983 263/984
f 266/985 267/986 268/987
f 268/988 269/989 266/990
f 245/991 244/992 267/993
f 267/994 266/995 245/996
f 266/997 270/998 250/999
f 250/1000 245/1001 266/1002
f 269/1003 56/1004 270/1005
f 270/1006 266/1007 269/1008
f 271/1009 272/1010 256/1011
f 256/1012 255/1013 271/1014
f 273/1015 274/1016 272/1017
f 272/1018 271/1019 273/1020
f 271/1021 275/1022 276/1023
f 276/1024 273/1025 271/1026
f 255/1027 258/1028 275/1029
f 275/1030 271/1031 255/1032
f 277/1033 278/1034 279/1035
f 279/1036 280/1037 277/1038
f 236/1039 235/1040 278/1041
f 278/1042 277/1043 236/1044
f 277/1045 281/1046 241/1047
f 241/1048 236/1049 277/1050
f 280/1051 163/1052 281/1053
f 281/1054 277/1055 280/1056
f 282/1057 283/1058 284/1059
f 284/1060 285/1061 282/1062
f 286/1063 287/1064 283/1065
f 283/1066 282/1067 286/1068
f 282/1069 216/1070 220/1071
f 220/1072 286/1073 282/1074
f 285/1075 217/1076 216/1077
f 216/1078 282/1079 285/1080
f 288/1081 289/1082 229/1083
f 229/1084 228/1085 288/1086
f 290/1087 291/1088 289/1089
f 289/1090 288/1091 290/1092
f 288/1093 292/1094 293/1095
f 293/1096 290/1097 288/1098
f 228/1099 231/1100 292/1101
f 292/1102 288/1103 228/1104
f 294/1105 295/1106 63/1107
f 63/1108 62/1109 294/1110
f 296/1111 297/1112 295/1113
f 295/1114 294/1115 296/1116
f 294/1117 298/1118 299/1119
f 299/1120 296/1121 294/1122
f 62/1123 65/1124 298/1125
f 298/1126 294/1127 62/1128
f 300/1129 301/1130 81/1131
f 81/1132 80/1133 300/1134
f 302/1135 303/1136 301/1137
f 301/1138 300/1139 302/1140
f 300/1141 304/1142 305/1143
f 305/1144 302/1145 300/1146
f 80/1147 83/1148 304/1149
f 304/1150 300/1151 80/1152
f 306/1153 307/1154 94/1155
f 94/1156 93/1157 306/1158
f 308/1159 309/1160 307/1161
f 307/1162 306/1163 308/1164
f 306/1165 310/1166 311/1167
f 311/1168 308/1169 306/1170
f 93/1171 96/1172 310/1173
f 310/1174 306/1175 93/1176
f 312/1177 313/1178 106/1179
f 106/1180 105/1181 312/1182
f 314/1183 315/1184 313/1185
f 313/1186 312/1187 314/1188
f 312/1189 316/1190 317/1191
f 317/1192 314/1193 312/1194
f 105/1195 108/1196 316/1197
f 316/1198 312/1199 105/1200
f 318/1201 319/1202 116/1203
f 116/1204 115/1205 318/1206
f 320/1207 321/1208 319/1209
f 319/1210 318/1211 320/1212
f 318/1213 313/1214 315/1215
f 315/1216 320/1217 318/1218
f 115/1219 106/1220 313/1221
f 313/1222 318/1223 115/1224
f 322/1225 323/1226 126/1227
f 126/1228 125/1229 322/1230
f 324/1231 325/1232 323/1233
f 323/1234 322/1235 324/1236
f 322/1237 326/1238 327/1239
f 327/1240 324/1241 322/1242
f 125/1243 128/1244 326/1245
f 326/1246 322/1247 125/1248
f 328/1249 329/1250 143/1251
f 143/1252 142/1253 328/1254
f 330/1255 331/1256 329/1257
f 329/1258 328/1259 330/1260
f 328/1261 332/1262 333/1263
f 333/1264 330/1265 328/1266
f 142/1267 145/1268 332/1269
f 332/1270 328/1271 142/1272
f 334/1273 335/1274 161/1275
f 161/1276 160/1277 334/1278
f 336/1279 337/1280 335/1281
f 335/1282 334/1283 336/1284
f 334/1285 280/1286 279/1287
f 279/1288 336/1289 334/1290
f 160/1291 163/1292 280/1293
f 280/1294 334/1295 160/1296
f 338/1297 304/1298 83/1299
f 83/1300 173/1301 338/1302
f 339/1303 305/1304 304/1305
f 304/1306 338/1307 339/1308
f 338/1309 295/1310 297/1311
f 297/1312 339/1313 338/1314
f 173/1315 63/1316 295/1317
f 295/1318 338/1319 173/1320
f 340/1321 341/1322 179/1323
f 179/1324 178/1325 340/1326
f 342/1327 343/1328 341/1329
f 341/1330 340/1331 342/1332
f 340/1333 329/1334 331/1335
f 331/1336 342/1337 340/1338
f 178/1339 143/1340 329/1341
f 329/1342 340/1343 178/1344
f 344/1345 310/1346 96/1347
f 96/1348 185/1349 344/1350
f 345/1351 311/1352 310/1353
f 310/1354 344/1355 345/1356
f 344/1357 346/1358 347/1359
f 347/1360 345/1361 344/1362
f 185/1363 187/1364 346/1365
f 346/1366 344/1367 185/1368
f 348/1369 332/1370 145/1371
f 145/1372 197/1373 348/1374
f 349/1375 333/1376 332/1377
f 332/1378 348/1379 349/1380
f 348/1381 350/1382 351/1383
f 351/1384 349/1385 348/1386
f 197/1387 199/1388 350/1389
f 350/1390 348/1391 197/1392
f 352/1393 316/1394 108/1395
f 108/1396 208/1397 352/1398
f 353/1399 317/1400 316/1401
f 316/1402 352/1403 353/1404
f 352/1405 307/1406 309/1407
f 309/1408 353/1409 352/1410
f 208/1411 94/1412 307/1413
f 307/1414 352/1415 208/1416
f 354/1417 326/1418 128/1419
f 128/1420 212/1421 354/1422
f 355/1423 327/1424 326/1425
f 326/1426 354/1427 355/1428
f 354/1429 319/1430 321/1431
f 321/1432 355/1433 354/1434
f 212/1435 116/1436 319/1437
f 319/1438 354/1439 212/1440
f 356/1441 175/1442 179/1443
f 179/1444 357/1445 356/1446
f 358/1447 176/1448 175/1449
f 175/1450 356/1451 358/1452
f 356/1453 359/1454 360/1455
f 360/1456 358/1457 356/1458
f 357/1459 240/1460 359/1461
f 359/1462 356/1463 357/1464
f 361/1465 362/1466 258/1467
f 258/1468 257/1469 361/1470
f 363/1471 364/1472 362/1473
f 362/1474 361/1475 363/1476
f 361/1477 365/1478 366/1479
f 366/1480 363/1481 361/1482
f 257/1483 259/1484 365/1485
f 365/1486 361/1487 257/1488
f 367/1489 368/1490 276/1491
f 276/1492 275/1493 367/1494
f 369/1495 370/1496 368/1497
f 368/1498 367/1499 369/1500
f 367/1501 362/1502 364/1503
f 364/1504 369/1505 367/1506
f 275/1507 258/1508 362/1509
f 362/1510 367/1511 275/1512
f 371/1513 372/1514 241/1515
f 241/1516 281/1517 371/1518
f 373/1519 374/1520 372/1521
f 372/1522 371/1523 373/1524
f 371/1525 162/1526 164/1527
f 164/1528 373/1529 371/1530
f 281/1531 163/1532 162/1533
f 162/1534 371/1535 281/1536
f 375/1537 376/1538 54/1539
f 54/1540 53/1541 375/1542
f 377/1543 378/1544 376/1545
f 376/1546 375/1547 377/1548
f 375/1549 269/1550 268/1551
f 268/1552 377/1553 375/1554
f 53/1555 56/1556 269/1557
f 269/1558 375/1559 53/1560
f 379/1561 380/1562 72/1563
f 72/1564 71/1565 379/1566
f 381/1567 382/1568 380/1569
f 380/1570 379/1571 381/1572
f 379/1573 383/1574 384/1575
f 384/1576 381/1577 379/1578
f 71/1579 74/1580 383/1581
f 383/1582 379/1583 71/1584
f 385/1585 386/1586 88/1587
f 88/1588 87/1589 385/1590
f 387/1591 388/1592 386/1593
f 386/1594 385/1595 387/1596
f 385/1597 389/1598 390/1599
f 390/1600 387/1601 385/1602
f 87/1603 90/1604 389/1605
f 389/1606 385/1607 87/1608
f 391/1609 392/1610 100/1611
f 100/1612 99/1613 391/1614
f 393/1615 394/1616 392/1617
f 392/1618 391/1619 393/1620
f 391/1621 395/1622 396/1623
f 396/1624 393/1625 391/1626
f 99/1627 102/1628 395/1629
f 395/1630 391/1631 99/1632
f 397/1633 395/1634 102/1635
f 102/1636 110/1637 397/1638
f 398/1639 396/1640 395/1641
f 395/1642 397/1643 398/1644
f 397/1645 399/1646 400/1647
f 400/1648 398/1649 397/1650
f 110/1651 112/1652 399/1653
f 399/1654 397/1655 110/1656
f 401/1657 402/1658 120/1659
f 120/1660 119/1661 401/1662
f 403/1663 404/1664 402/1665
f 402/1666 401/1667 403/1668
f 401/1669 405/1670 406/1671
f 406/1672 403/1673 401/1674
f 119/1675 122/1676 405/1677
f 405/1678 401/1679 119/1680
f 407/1681 408/1682 134/1683
f 134/1684 133/1685 407/1686
f 409/1687 410/1688 408/1689
f 408/1690 407/1691 409/1692
f 407/1693 411/1694 412/1695
f 412/1696 409/1697 407/1698
f 133/1699 136/1700 411/1701
f 411/1702 407/1703 133/1704
f 413/1705 414/1706 152/1707
f 152/1708 151/1709 413/1710
f 415/1711 416/1712 414/1713
f 414/1714 413/1715 415/1716
f 413/1717 417/1718 418/1719
f 418/1720 415/1721 413/1722
f 151/1723 154/1724 417/1725
f 417/1726 413/1727 151/1728
f 419/1729 420/1730 170/1731
f 170/1732 169/1733 419/1734
f 421/1735 422/1736 420/1737
f 420/1738 419/1739 421/1740
f 419/1741 380/1742 382/1743
f 382/1744 421/1745 419/1746
f 169/1747 72/1748 380/1749
f 380/1750 419/1751 169/1752
f 423/1753 411/1754 136/1755
f 136/1756 182/1757 423/1758
f 424/1759 412/1760 411/1761
f 411/1762 423/1763 424/1764
f 423/1765 414/1766 416/1767
f 416/1768 424/1769 423/1770
f 182/1771 152/1772 414/1773
f 414/1774 423/1775 182/1776
f 425/1777 383/1778 74/1779
f 74/1780 191/1781 425/1782
f 426/1783 384/1784 383/1785
f 383/1786 425/1787 426/1788
f 425/1789 427/1790 428/1791
f 428/1792 426/1793 425/1794
f 191/1795 193/1796 427/1797
f 427/1798 425/1799 191/1800
f 429/1801 405/1802 122/1803
f 122/1804 203/1805 429/1806
f 430/1807 406/1808 405/1809
f 405/1810 429/1811 430/1812
f 429/1813 431/1814 432/1815
f 432/1816 430/1817 429/1818
f 203/1819 205/1820 431/1821
f 431/1822 429/1823 203/1824
f 433/1825 389/1826 90/1827
f 90/1828 210/1829 433/1830
f 434/1831 390/1832 389/1833
f 389/1834 433/1835 434/1836
f 433/1837 392/1838 394/1839
f 394/1840 434/1841 433/1842
f 210/1843 100/1844 392/1845
f 392/1846 433/1847 210/1848
f 435/1849 399/1850 112/1851
f 112/1852 214/1853 435/1854
f 436/1855 400/1856 399/1857
f 399/1858 435/1859 436/1860
f 435/1861 402/1862 404/1863
f 404/1864 436/1865 435/1866
f 214/1867 120/1868 402/1869
f 402/1870 435/1871 214/1872
f 437/1873 438/1874 231/1875
f 231/1876 230/1877 437/1878
f 439/1879 440/1880 438/1881
f 438/1882 437/1883 439/1884
f 437/1885 441/1886 442/1887
f 442/1888 439/1889 437/1890
f 230/1891 232/1892 441/1893
f 441/1894 437/1895 230/1896
f 443/1897 166/1898 170/1899
f 170/1900 444/1901 443/1902
f 445/1903 167/1904 166/1905
f 166/1906 443/1907 445/1908
f 443/1909 446/1910 447/1911
f 447/1912 445/1913 443/1914
f 444/1915 249/1916 446/1917
f 446/1918 443/1919 444/1920
f 448/1921 449/1922 250/1923
f 250/1924 270/1925 448/1926
f 450/1927 451/1928 449/1929
f 449/1930 448/1931 450/1932
f 448/1933 55/1934 57/1935
f 57/1936 450/1937 448/1938
f 270/1939 56/1940 55/1941
f 55/1942 448/1943 270/1944
f 452/1945 453/1946 293/1947
f 293/1948 292/1949 452/1950
f 454/1951 455/1952 453/1953
f 453/1954 452/1955 454/1956
f 452/1957 438/1958 440/1959
f 440/1960 454/1961 452/1962
f 292/1963 231/1964 438/1965
f 438/1966 452/1967 292/1968
f 456/1969 457/1970 65/1971
f 65/1972 64/1973 456/1974
f 365/1975 259/1976 457/1977
f 457/1978 456/1979 365/1980
f 456/1981 458/1982 366/1983
f 366/1984 365/1985 456/1986
f 64/1987 66/1988 458/1989
f 458/1990 456/1991 64/1992
f 459/1993 460/1994 154/1995
f 154/1996 153/1997 459/1998
f 441/1999 232/2000 460/2001
f 460/2002 459/2003 441/2004
f 459/2005 461/2006 442/2007
f 442/2008 441/2009 459/2010
f 153/2011 155/2012 461/2013
f 461/2014 459/2015 153/2016
f 462/2017 463/2018 238/2019
f 238/2020 237/2021 462/2022
f 341/2023 343/2024 463/2025
f 463/2026 462/2027 341/2028
f 462/2029 357/2030 179/2031
f 179/2032 341/2033 462/2034
f 237/2035 240/2036 357/2037
f 357/2038 462/2039 237/2040
f 464/2041 465/2042 247/2043
f 247/2044 246/2045 464/2046
f 420/2047 422/2048 465/2049
f 465/2050 464/2051 420/2052
f 464/2053 444/2054 170/2055
f 170/2056 420/2057 464/2058
f 246/2059 249/2060 444/2061
f 444/2062 464/2063 246/2064
f 466/2065 467/2066 299/2067
f 299/2068 298/2069 466/2070
f 254/2071 253/2072 467/2073
f 467/2074 466/2075 254/2076
f 466/2077 457/2078 259/2079
f 259/2080 254/2081 466/2082
f 298/2083 65/2084 457/2085
f 457/2086 466/2087 298/2088
f 468/2089 469/2090 360/2091
f 360/2092 359/2093 468/2094
f 372/2095 374/2096 469/2097
f 469/2098 468/2099 372/2100
f 468/2101 239/2102 241/2103
f 241/2104 372/2105 468/2106
f 359/2107 240/2108 239/2109
f 239/2110 468/2111 359/2112
f 470/2113 471/2114 418/2115
f 418/2116 417/2117 470/2118
f 227/2119 226/2120 471/2121
f 471/2122 470/2123 227/2124
f 470/2125 460/2126 232/2127
f 232/2128 227/2129 470/2130
f 417/2131 154/2132 460/2133
f 460/2134 470/2135 417/2136
f 472/2137 473/2138 447/2139
f 447/2140 446/2141 472/2142
f 449/2143 451/2144 473/2145
f 473/2146 472/2147 449/2148
f 472/2149 248/2150 250/2151
f 250/2152 449/2153 472/2154
f 446/2155 249/2156 248/2157
f 248/2158 472/2159 446/2160
f 474/2161 475/2162 6/2163
f 6/2164 5/2165 474/2166
f 52/2167 51/2168 475/2169
f 475/2170 474/2171 52/2172
f 474/2173 476/2174 57/2175
f 57/2176 52/2177 474/2178
f 5/2179 8/2180 476/2181
f 476/2182 474/2183 5/2184
f 477/2185 478/2186 9/2187
f 9/2188 4/2189 477/2190
f 369/2191 364/2192 478/2193
f 478/2194 477/2195 369/2196
f 477/2197 479/2198 370/2199
f 370/2200 369/2201 477/2202
f 4/2203 3/2204 479/2205
f 479/2206 477/2207 4/2208
f 480/2209 481/2210 220/2211
f 220/2212 219/2213 480/2214
f 373/2215 164/2216 481/2217
f 481/2218 480/2219 373/2220
f 480/2221 482/2222 374/2223
f 374/2224 373/2225 480/2226
f 219/2227 222/2228 482/2229
f 482/2230 480/2231 219/2232
f 483/2233 484/2234 223/2235
f 223/2236 218/2237 483/2238
f 439/2239 442/2240 484/2241
f 484/2242 483/2243 439/2244
f 483/2245 485/2246 440/2247
f 440/2248 439/2249 483/2250
f 218/2251 217/2252 485/2253
f 485/2254 483/2255 218/2256
f 486/2257 487/2258 265/2259
f 265/2260 264/2261 486/2262
f 363/2263 366/2264 487/2265
f 487/2266 486/2267 363/2268
f 486/2269 478/2270 364/2271
f 364/2272 363/2273 486/2274
f 264/2275 9/2276 478/2277
f 478/2278 486/2279 264/2280
f 488/2281 476/2282 8/2283
f 8/2284 263/2285 488/2286
f 450/2287 57/2288 476/2289
f 476/2290 488/2291 450/2292
f 488/2293 489/2294 451/2295
f 451/2296 450/2297 488/2298
f 263/2299 262/2300 489/2301
f 489/2302 488/2303 263/2304
f 490/2305 491/2306 287/2307
f 287/2308 286/2309 490/2310
f 159/2311 158/2312 491/2313
f 491/2314 490/2315 159/2316
f 490/2317 481/2318 164/2319
f 164/2320 159/2321 490/2322
f 286/2323 220/2324 481/2325
f 481/2326 490/2327 286/2328
f 492/2329 485/2330 217/2331
f 217/2332 285/2333 492/2334
f 454/2335 440/2336 485/2337
f 485/2338 492/2339 454/2340
f 492/2341 493/2342 455/2343
f 455/2344 454/2345 492/2346
f 285/2347 284/2348 493/2349
f 493/2350 492/2351 285/2352
f 494/2353 495/2354 187/2355
f 187/2356 186/2357 494/2358
f 77/2359 81/2360 495/2361
f 495/2362 494/2363 77/2364
f 494/2365 496/2366 78/2367
f 78/2368 77/2369 494/2370
f 186/2371 188/2372 496/2373
f 496/2374 494/2375 186/2376
f 497/2377 498/2378 193/2379
f 193/2380 192/2381 497/2382
f 86/2383 88/2384 498/2385
f 498/2386 497/2387 86/2388
f 497/2389 499/2390 15/2391
f 15/2392 86/2393 497/2394
f 192/2395 194/2396 499/2397
f 499/2398 497/2399 192/2400
f 500/2401 501/2402 199/2403
f 199/2404 198/2405 500/2406
f 124/2407 126/2408 501/2409
f 501/2410 500/2411 124/2412
f 500/2413 502/2414 42/2415
f 42/2416 124/2417 500/2418
f 198/2419 200/2420 502/2421
f 502/2422 500/2423 198/2424
f 503/2425 504/2426 205/2427
f 205/2428 204/2429 503/2430
f 130/2431 134/2432 504/2433
f 504/2434 503/2435 130/2436
f 503/2437 505/2438 131/2439
f 131/2440 130/2441 503/2442
f 204/2443 206/2444 505/2445
f 505/2446 503/2447 204/2448
f 506/2449 507/2450 347/2451
f 347/2452 346/2453 506/2454
f 301/2455 303/2456 507/2457
f 507/2458 506/2459 301/2460
f 506/2461 495/2462 81/2463
f 81/2464 301/2465 506/2466
f 346/2467 187/2468 495/2469
f 495/2470 506/2471 346/2472
f 508/2473 509/2474 351/2475
f 351/2476 350/2477 508/2478
f 323/2479 325/2480 509/2481
f 509/2482 508/2483 323/2484
f 508/2485 501/2486 126/2487
f 126/2488 323/2489 508/2490
f 350/2491 199/2492 501/2493
f 501/2494 508/2495 350/2496
f 510/2497 511/2498 428/2499
f 428/2500 427/2501 510/2502
f 386/2503 388/2504 511/2505
f 511/2506 510/2507 386/2508
f 510/2509 498/2510 88/2511
f 88/2512 386/2513 510/2514
f 427/2515 193/2516 498/2517
f 498/2518 510/2519 427/2520
f 512/2521 513/2522 432/2523
f 432/2524 431/2525 512/2526
f 408/2527 410/2528 513/2529
f 513/2530 512/2531 408/2532
f 512/2533 504/2534 134/2535
f 134/2536 408/2537 512/2538
f 431/2539 205/2540 504/2541
f 504/2542 512/2543 431/2544
