# USD → MuJoCo (world-space)
v -2.031416 2.831668 0.514392
v -2.031416 2.830739 0.514392
v -2.031238 2.830623 0.514392
v -2.031153 2.831839 0.514392
v -2.024944 2.830623 0.514392
v -2.024765 2.830739 0.514392
v -2.024765 2.831668 0.514392
v -2.025028 2.831839 0.514392
vt 0.140171 0.763177
vt 0.904875 0.763177
vt 1.000000 0.750269
vt 0.000000 0.744157
vt 0.140171 0.763177
vt 1.000000 0.750269
vt 0.000000 0.744157
vt 1.000000 0.750269
vt 1.000000 0.296346
vt 0.000000 0.744157
vt 1.000000 0.296346
vt 0.904875 0.283439
vt 0.000000 0.744157
vt 0.904875 0.283439
vt 0.140171 0.283439
vt 0.000000 0.744157
vt 0.140171 0.283439
vt 0.000000 0.302458
f 1/1 2/2 3/3
f 4/4 1/5 3/6
f 4/7 3/8 5/9
f 4/10 5/11 6/12
f 4/13 6/14 7/15
f 4/16 7/17 8/18
