# USD → MuJoCo (world-space)
v 0.058139 -0.080022 0.075419
v 0.057757 -0.080022 0.075063
v 0.057757 -0.079623 0.075063
v 0.058139 -0.079623 0.075419
v 0.057326 -0.080022 0.076081
v 0.057326 -0.079623 0.076081
v 0.056992 -0.080022 0.075521
v 0.056992 -0.079623 0.075521
v 0.049537 -0.080022 0.075521
v 0.049537 -0.079623 0.075521
v 0.048820 -0.080022 0.075980
v 0.048820 -0.079623 0.075980
v 0.048868 -0.080022 0.070428
v 0.048868 -0.079623 0.070428
v 0.048820 -0.080022 0.064621
v 0.048820 -0.079623 0.064621
v 0.049537 -0.080022 0.064927
v 0.049537 -0.079623 0.064927
v 0.049537 -0.080022 0.065895
v 0.049537 -0.079623 0.065895
v 0.057087 -0.080022 0.065895
v 0.057087 -0.079623 0.065895
v 0.057087 -0.080022 0.064621
v 0.057087 -0.079623 0.064621
v 0.057804 -0.080022 0.064876
v 0.057804 -0.079623 0.064876
v 0.057757 -0.080022 0.066964
v 0.057757 -0.079623 0.066964
v 0.051741 -0.080022 0.074383
v 0.051735 -0.080022 0.075216
v 0.051735 -0.079623 0.075216
v 0.051741 -0.079623 0.074383
v 0.051731 -0.080022 0.073602
v 0.051731 -0.079623 0.073602
v 0.051706 -0.080022 0.072874
v 0.051706 -0.079623 0.072874
v 0.051665 -0.080022 0.072197
v 0.051665 -0.079623 0.072197
v 0.051608 -0.080022 0.071572
v 0.051608 -0.079623 0.071572
v 0.051536 -0.080022 0.071000
v 0.051536 -0.079623 0.071000
v 0.051449 -0.080022 0.070479
v 0.051449 -0.079623 0.070479
v 0.051328 -0.080022 0.069990
v 0.051328 -0.079623 0.069990
v 0.051156 -0.080022 0.069514
v 0.051156 -0.079623 0.069514
v 0.050934 -0.080022 0.069050
v 0.050934 -0.079623 0.069050
v 0.050661 -0.080022 0.068599
v 0.050661 -0.079623 0.068599
v 0.050337 -0.080022 0.068161
v 0.050337 -0.079623 0.068161
v 0.049962 -0.080022 0.067735
v 0.049962 -0.079623 0.067735
v 0.049537 -0.080022 0.067321
v 0.049537 -0.079623 0.067321
v 0.049537 -0.080022 0.075216
v 0.049537 -0.079623 0.075216
v 0.054172 -0.080022 0.069358
v 0.054172 -0.080022 0.075216
v 0.054172 -0.079623 0.075216
v 0.054172 -0.079623 0.069358
v 0.054179 -0.080022 0.069088
v 0.054179 -0.079623 0.069088
v 0.054227 -0.080022 0.068859
v 0.054227 -0.079623 0.068859
v 0.054316 -0.080022 0.068672
v 0.054316 -0.079623 0.068672
v 0.054446 -0.080022 0.068527
v 0.054446 -0.079623 0.068527
v 0.054616 -0.080022 0.068423
v 0.054616 -0.079623 0.068423
v 0.054828 -0.080022 0.068360
v 0.054828 -0.079623 0.068360
v 0.055080 -0.080022 0.068340
v 0.055080 -0.079623 0.068340
v 0.056084 -0.080022 0.068339
v 0.056084 -0.079623 0.068339
v 0.056336 -0.080022 0.068333
v 0.056336 -0.079623 0.068333
v 0.056544 -0.080022 0.068342
v 0.056544 -0.079623 0.068342
v 0.056710 -0.080022 0.068366
v 0.056710 -0.079623 0.068366
v 0.056833 -0.080022 0.068406
v 0.056833 -0.079623 0.068406
v 0.056913 -0.080022 0.068462
v 0.056913 -0.079623 0.068462
v 0.056950 -0.080022 0.068533
v 0.056950 -0.079623 0.068533
v 0.056944 -0.080022 0.068620
v 0.056944 -0.079623 0.068620
v 0.056914 -0.080022 0.068710
v 0.056914 -0.079623 0.068710
v 0.056876 -0.080022 0.068792
v 0.056876 -0.079623 0.068792
v 0.056831 -0.080022 0.068866
v 0.056831 -0.079623 0.068866
v 0.056780 -0.080022 0.068932
v 0.056780 -0.079623 0.068932
v 0.056722 -0.080022 0.068989
v 0.056722 -0.079623 0.068989
v 0.056657 -0.080022 0.069038
v 0.056657 -0.079623 0.069038
v 0.056586 -0.080022 0.069078
v 0.056586 -0.079623 0.069078
v 0.056506 -0.080022 0.069108
v 0.056506 -0.079623 0.069108
v 0.056418 -0.080022 0.069124
v 0.056418 -0.079623 0.069124
v 0.056321 -0.080022 0.069126
v 0.056321 -0.079623 0.069126
v 0.056215 -0.080022 0.069116
v 0.056215 -0.079623 0.069116
v 0.056100 -0.080022 0.069091
v 0.056100 -0.079623 0.069091
v 0.055977 -0.080022 0.069053
v 0.055977 -0.079623 0.069053
v 0.055845 -0.080022 0.069002
v 0.055845 -0.079623 0.069002
v 0.055367 -0.080022 0.069002
v 0.055367 -0.079623 0.069002
v 0.055216 -0.080022 0.069008
v 0.055216 -0.079623 0.069008
v 0.055090 -0.080022 0.069056
v 0.055090 -0.079623 0.069056
v 0.054990 -0.080022 0.069145
v 0.054990 -0.079623 0.069145
v 0.054915 -0.080022 0.069276
v 0.054915 -0.079623 0.069276
v 0.054865 -0.080022 0.069449
v 0.054865 -0.079623 0.069449
v 0.054840 -0.080022 0.069663
v 0.054840 -0.079623 0.069663
v 0.054841 -0.080022 0.069919
v 0.054841 -0.079623 0.069919
v 0.054841 -0.080022 0.075216
v 0.054841 -0.079623 0.075216
v 0.057087 -0.080022 0.075216
v 0.057087 -0.079623 0.075216
v 0.057087 -0.080022 0.066200
v 0.057087 -0.079623 0.066200
v 0.049537 -0.080022 0.066200
v 0.049537 -0.079623 0.066200
v 0.049537 -0.080022 0.067015
v 0.049537 -0.079623 0.067015
v 0.050091 -0.080022 0.067404
v 0.050091 -0.079623 0.067404
v 0.050579 -0.080022 0.067812
v 0.050579 -0.079623 0.067812
v 0.051000 -0.080022 0.068239
v 0.051000 -0.079623 0.068239
v 0.051355 -0.080022 0.068687
v 0.051355 -0.079623 0.068687
v 0.051644 -0.080022 0.069154
v 0.051644 -0.079623 0.069154
v 0.051866 -0.080022 0.069641
v 0.051866 -0.079623 0.069641
v 0.052022 -0.080022 0.070148
v 0.052022 -0.079623 0.070148
v 0.052135 -0.080022 0.070694
v 0.052135 -0.079623 0.070694
v 0.052229 -0.080022 0.071299
v 0.052229 -0.079623 0.071299
v 0.052303 -0.080022 0.071964
v 0.052303 -0.079623 0.071964
v 0.052358 -0.080022 0.072688
v 0.052358 -0.079623 0.072688
v 0.052393 -0.080022 0.073471
v 0.052393 -0.079623 0.073471
v 0.052408 -0.080022 0.074314
v 0.052408 -0.079623 0.074314
v 0.052404 -0.080022 0.075216
v 0.052404 -0.079623 0.075216
v 0.048342 -0.080022 0.057846
v 0.047960 -0.080022 0.058253
v 0.047960 -0.079623 0.058253
v 0.048342 -0.079623 0.057846
v 0.049012 -0.080022 0.057948
v 0.049012 -0.079623 0.057948
v 0.052787 -0.080022 0.057948
v 0.052787 -0.079623 0.057948
v 0.052752 -0.080022 0.057471
v 0.052752 -0.079623 0.057471
v 0.052703 -0.080022 0.057000
v 0.052703 -0.079623 0.057000
v 0.052639 -0.080022 0.056535
v 0.052639 -0.079623 0.056535
v 0.052560 -0.080022 0.056077
v 0.052560 -0.079623 0.056077
v 0.052467 -0.080022 0.055624
v 0.052467 -0.079623 0.055624
v 0.052359 -0.080022 0.055179
v 0.052359 -0.079623 0.055179
v 0.052237 -0.080022 0.054739
v 0.052237 -0.079623 0.054739
v 0.052093 -0.080022 0.054310
v 0.052093 -0.079623 0.054310
v 0.051921 -0.080022 0.053895
v 0.051921 -0.079623 0.053895
v 0.051721 -0.080022 0.053495
v 0.051721 -0.079623 0.053495
v 0.051492 -0.080022 0.053109
v 0.051492 -0.079623 0.053109
v 0.051235 -0.080022 0.052738
v 0.051235 -0.079623 0.052738
v 0.050950 -0.080022 0.052381
v 0.050950 -0.079623 0.052381
v 0.050636 -0.080022 0.052039
v 0.050636 -0.079623 0.052039
v 0.050298 -0.080022 0.051713
v 0.050298 -0.079623 0.051713
v 0.049938 -0.080022 0.051403
v 0.049938 -0.079623 0.051403
v 0.049557 -0.080022 0.051110
v 0.049557 -0.079623 0.051110
v 0.049154 -0.080022 0.050834
v 0.049154 -0.079623 0.050834
v 0.048730 -0.080022 0.050574
v 0.048730 -0.079623 0.050574
v 0.048284 -0.080022 0.050331
v 0.048284 -0.079623 0.050331
v 0.047817 -0.080022 0.050104
v 0.047817 -0.079623 0.050104
v 0.047865 -0.080022 0.049900
v 0.047865 -0.079623 0.049900
v 0.048514 -0.080022 0.050147
v 0.048514 -0.079623 0.050147
v 0.049125 -0.080022 0.050422
v 0.049125 -0.079623 0.050422
v 0.049696 -0.080022 0.050725
v 0.049696 -0.079623 0.050725
v 0.050228 -0.080022 0.051056
v 0.050228 -0.079623 0.051056
v 0.050722 -0.080022 0.051415
v 0.050722 -0.079623 0.051415
v 0.051176 -0.080022 0.051802
v 0.051176 -0.079623 0.051802
v 0.051592 -0.080022 0.052218
v 0.051592 -0.079623 0.052218
v 0.051968 -0.080022 0.052680
v 0.051968 -0.079623 0.052680
v 0.052306 -0.080022 0.053207
v 0.052306 -0.079623 0.053207
v 0.052604 -0.080022 0.053800
v 0.052604 -0.079623 0.053800
v 0.052864 -0.080022 0.054459
v 0.052864 -0.079623 0.054459
v 0.053084 -0.080022 0.055183
v 0.053084 -0.079623 0.055183
v 0.053265 -0.080022 0.055972
v 0.053265 -0.079623 0.055972
v 0.053408 -0.080022 0.056827
v 0.053408 -0.079623 0.056827
v 0.053558 -0.080022 0.056277
v 0.053558 -0.079623 0.056277
v 0.053736 -0.080022 0.055734
v 0.053736 -0.079623 0.055734
v 0.053940 -0.080022 0.055196
v 0.053940 -0.079623 0.055196
v 0.054172 -0.080022 0.054665
v 0.054172 -0.079623 0.054665
v 0.054432 -0.080022 0.054140
v 0.054432 -0.079623 0.054140
v 0.054719 -0.080022 0.053621
v 0.054719 -0.079623 0.053621
v 0.055033 -0.080022 0.053109
v 0.055033 -0.079623 0.053109
v 0.055369 -0.080022 0.052615
v 0.055369 -0.079623 0.052615
v 0.055723 -0.080022 0.052153
v 0.055723 -0.079623 0.052153
v 0.056095 -0.080022 0.051721
v 0.056095 -0.079623 0.051721
v 0.056484 -0.080022 0.051321
v 0.056484 -0.079623 0.051321
v 0.056890 -0.080022 0.050952
v 0.056890 -0.079623 0.050952
v 0.057315 -0.080022 0.050614
v 0.057315 -0.079623 0.050614
v 0.057757 -0.080022 0.050308
v 0.057757 -0.079623 0.050308
v 0.057860 -0.080022 0.050471
v 0.057860 -0.079623 0.050471
v 0.057979 -0.080022 0.050611
v 0.057979 -0.079623 0.050611
v 0.058113 -0.080022 0.050729
v 0.058113 -0.079623 0.050729
v 0.058263 -0.080022 0.050823
v 0.058263 -0.079623 0.050823
v 0.058429 -0.080022 0.050895
v 0.058429 -0.079623 0.050895
v 0.058611 -0.080022 0.050944
v 0.058611 -0.079623 0.050944
v 0.058808 -0.080022 0.050970
v 0.058808 -0.079623 0.050970
v 0.058808 -0.080022 0.051174
v 0.058808 -0.079623 0.051174
v 0.058173 -0.080022 0.051388
v 0.058173 -0.079623 0.051388
v 0.057581 -0.080022 0.051654
v 0.057581 -0.079623 0.051654
v 0.057030 -0.080022 0.051970
v 0.057030 -0.079623 0.051970
v 0.056522 -0.080022 0.052338
v 0.056522 -0.079623 0.052338
v 0.056055 -0.080022 0.052756
v 0.056055 -0.079623 0.052756
v 0.055630 -0.080022 0.053225
v 0.055630 -0.079623 0.053225
v 0.055248 -0.080022 0.053746
v 0.055248 -0.079623 0.053746
v 0.054902 -0.080022 0.054291
v 0.054902 -0.079623 0.054291
v 0.054588 -0.080022 0.054835
v 0.054588 -0.079623 0.054835
v 0.054307 -0.080022 0.055378
v 0.054307 -0.079623 0.055378
v 0.054058 -0.080022 0.055920
v 0.054058 -0.079623 0.055920
v 0.053841 -0.080022 0.056461
v 0.053841 -0.079623 0.056461
v 0.053656 -0.080022 0.057001
v 0.053656 -0.079623 0.057001
v 0.053503 -0.080022 0.057540
v 0.053503 -0.079623 0.057540
v 0.053503 -0.080022 0.057948
v 0.053503 -0.079623 0.057948
v 0.058855 -0.080022 0.057948
v 0.058855 -0.079623 0.057948
v 0.057804 -0.080022 0.059068
v 0.057804 -0.079623 0.059068
v 0.057040 -0.080022 0.058253
v 0.057040 -0.079623 0.058253
v 0.053503 -0.080022 0.058253
v 0.053503 -0.079623 0.058253
v 0.053503 -0.080022 0.060902
v 0.053503 -0.079623 0.060902
v 0.053886 -0.080022 0.061309
v 0.053886 -0.079623 0.061309
v 0.052739 -0.080022 0.061870
v 0.052739 -0.079623 0.061870
v 0.052787 -0.080022 0.058253
v 0.052787 -0.079623 0.058253
v 0.056466 -0.080022 0.041444
v 0.057183 -0.080022 0.040731
v 0.057183 -0.079623 0.040731
v 0.056466 -0.079623 0.041444
v 0.055988 -0.080022 0.040934
v 0.055988 -0.079623 0.040934
v 0.053647 -0.080022 0.040934
v 0.053647 -0.079623 0.040934
v 0.053647 -0.080022 0.044092
v 0.053647 -0.079623 0.044092
v 0.058712 -0.080022 0.044092
v 0.058712 -0.079623 0.044092
v 0.057757 -0.080022 0.045111
v 0.057757 -0.079623 0.045111
v 0.057087 -0.080022 0.044398
v 0.057087 -0.079623 0.044398
v 0.053647 -0.080022 0.044398
v 0.053647 -0.079623 0.044398
v 0.053647 -0.080022 0.046333
v 0.053647 -0.079623 0.046333
v 0.054077 -0.080022 0.046690
v 0.054077 -0.079623 0.046690
v 0.052930 -0.080022 0.047250
v 0.052930 -0.079623 0.047250
v 0.052978 -0.080022 0.044398
v 0.052978 -0.079623 0.044398
v 0.047960 -0.080022 0.044398
v 0.047960 -0.079623 0.044398
v 0.048390 -0.080022 0.043939
v 0.048390 -0.079623 0.043939
v 0.048542 -0.080022 0.043980
v 0.048542 -0.079623 0.043980
v 0.048698 -0.080022 0.044014
v 0.048698 -0.079623 0.044014
v 0.048858 -0.080022 0.044042
v 0.048858 -0.079623 0.044042
v 0.049022 -0.080022 0.044064
v 0.049022 -0.079623 0.044064
v 0.049190 -0.080022 0.044080
v 0.049190 -0.079623 0.044080
v 0.049362 -0.080022 0.044089
v 0.049362 -0.079623 0.044089
v 0.049537 -0.080022 0.044092
v 0.049537 -0.079623 0.044092
v 0.052978 -0.080022 0.044092
v 0.052978 -0.079623 0.044092
v 0.052978 -0.080022 0.040934
v 0.052978 -0.079623 0.040934
v 0.050732 -0.080022 0.040934
v 0.050732 -0.079623 0.040934
v 0.050015 -0.080022 0.041393
v 0.050015 -0.079623 0.041393
v 0.050063 -0.080022 0.038413
v 0.050063 -0.079623 0.038413
v 0.050015 -0.080022 0.035434
v 0.050015 -0.079623 0.035434
v 0.050732 -0.080022 0.035688
v 0.050732 -0.079623 0.035688
v 0.050732 -0.080022 0.036656
v 0.050732 -0.079623 0.036656
v 0.056084 -0.080022 0.036656
v 0.056084 -0.079623 0.036656
v 0.056084 -0.080022 0.035586
v 0.056084 -0.079623 0.035586
v 0.056801 -0.080022 0.035892
v 0.056801 -0.079623 0.035892
v 0.056788 -0.080022 0.036094
v 0.056788 -0.079623 0.036094
v 0.056777 -0.080022 0.036291
v 0.056777 -0.079623 0.036291
v 0.056769 -0.080022 0.036484
v 0.056769 -0.079623 0.036484
v 0.056762 -0.080022 0.036674
v 0.056762 -0.079623 0.036674
v 0.056757 -0.080022 0.036859
v 0.056757 -0.079623 0.036859
v 0.056754 -0.080022 0.037040
v 0.056754 -0.079623 0.037040
v 0.056753 -0.080022 0.037216
v 0.056753 -0.079623 0.037216
v 0.056753 -0.080022 0.040374
v 0.056753 -0.079623 0.040374
v 0.056084 -0.080022 0.036961
v 0.056084 -0.080022 0.040629
v 0.056084 -0.079623 0.040629
v 0.056084 -0.079623 0.036961
v 0.050732 -0.080022 0.036961
v 0.050732 -0.079623 0.036961
v 0.050732 -0.080022 0.040629
v 0.050732 -0.079623 0.040629
vt 0.000000 0.000000
vt 0.000000 0.000000
vt 0.000000 0.000000
vt 0.000000 0.000000
vt 0.000000 0.000000
vt 0.000000 0.000000
vt 0.000000 0.000000
vt 0.000000 0.000000
vt 0.000000 0.000000
vt 0.000000 0.000000
vt 0.000000 0.000000
vt 0.000000 0.000000
vt 0.000000 0.000000
vt 0.000000 0.000000
vt 0.000000 0.000000
vt 0.000000 0.000000
vt 0.000000 0.000000
vt 0.000000 0.000000
vt 0.000000 0.000000
vt 0.000000 0.000000
vt 0.000000 0.000000
vt 0.000000 0.000000
vt 0.000000 0.000000
vt 0.000000 0.000000
vt 0.000000 0.000000
vt 0.000000 0.000000
vt 0.000000 0.000000
vt 0.000000 0.000000
vt 0.000000 0.000000
vt 0.000000 0.000000
vt 0.000000 0.000000
vt 0.000000 0.000000
vt 0.000000 0.000000
vt 0.000000 0.000000
vt 0.000000 0.000000
vt 0.000000 0.000000
vt 0.000000 0.000000
vt 0.000000 0.000000
vt 0.000000 0.000000
vt 0.000000 0.000000
vt 0.000000 0.000000
vt 0.000000 0.000000
vt 0.000000 0.000000
vt 0.000000 0.000000
vt 0.000000 0.000000
vt 0.000000 0.000000
vt 0.000000 0.000000
vt 0.000000 0.000000
vt 0.000000 0.000000
vt 0.000000 0.000000
vt 0.000000 0.000000
vt 0.000000 0.000000
vt 0.000000 0.000000
vt 0.000000 0.000000
vt 0.000000 0.000000
vt 0.000000 0.000000
vt 0.000000 0.000000
vt 0.000000 0.000000
vt 0.000000 0.000000
vt 0.000000 0.000000
vt 0.000000 0.000000
vt 0.000000 0.000000
vt 0.000000 0.000000
vt 0.000000 0.000000
vt 0.000000 0.000000
vt 0.000000 0.000000
vt 0.000000 0.000000
vt 0.000000 0.000000
vt 0.000000 0.000000
vt 0.000000 0.000000
vt 0.000000 0.000000
vt 0.000000 0.000000
vt 0.000000 0.000000
vt 0.000000 0.000000
vt 0.000000 0.000000
vt 0.000000 0.000000
vt 0.000000 0.000000
vt 0.000000 0.000000
vt 0.000000 0.000000
vt 0.000000 0.000000
vt 0.000000 0.000000
vt 0.000000 0.000000
vt 0.000000 0.000000
vt 0.000000 0.000000
vt 0.000000 0.000000
vt 0.000000 0.000000
vt 0.000000 0.000000
vt 0.000000 0.000000
vt 0.000000 0.000000
vt 0.000000 0.000000
vt 0.000000 0.000000
vt 0.000000 0.000000
vt 0.000000 0.000000
vt 0.000000 0.000000
vt 0.000000 0.000000
vt 0.000000 0.000000
vt 0.000000 0.000000
vt 0.000000 0.000000
vt 0.000000 0.000000
vt 0.000000 0.000000
vt 0.000000 0.000000
vt 0.000000 0.000000
vt 0.000000 0.000000
vt 0.000000 0.000000
vt 0.000000 0.000000
vt 0.000000 0.000000
vt 0.000000 0.000000
vt 0.000000 0.000000
vt 0.000000 0.000000
vt 0.000000 0.000000
vt 0.000000 0.000000
vt 0.000000 0.000000
vt 0.000000 0.000000
vt 0.000000 0.000000
vt 0.000000 0.000000
vt 0.000000 0.000000
vt 0.000000 0.000000
vt 0.000000 0.000000
vt 0.000000 0.000000
vt 0.000000 0.000000
vt 0.000000 0.000000
vt 0.000000 0.000000
vt 0.000000 0.000000
vt 0.000000 0.000000
vt 0.000000 0.000000
vt 0.000000 0.000000
vt 0.000000 0.000000
vt 0.000000 0.000000
vt 0.000000 0.000000
vt 0.000000 0.000000
vt 0.000000 0.000000
vt 0.000000 0.000000
vt 0.000000 0.000000
vt 0.000000 0.000000
vt 0.000000 0.000000
vt 0.000000 0.000000
vt 0.000000 0.000000
vt 0.000000 0.000000
vt 0.000000 0.000000
vt 0.000000 0.000000
vt 0.000000 0.000000
vt 0.000000 0.000000
vt 0.000000 0.000000
vt 0.000000 0.000000
vt 0.000000 0.000000
vt 0.000000 0.000000
vt 0.000000 0.000000
vt 0.000000 0.000000
vt 0.000000 0.000000
vt 0.000000 0.000000
vt 0.000000 0.000000
vt 0.000000 0.000000
vt 0.000000 0.000000
vt 0.000000 0.000000
vt 0.000000 0.000000
vt 0.000000 0.000000
vt 0.000000 0.000000
vt 0.000000 0.000000
vt 0.000000 0.000000
vt 0.000000 0.000000
vt 0.000000 0.000000
vt 0.000000 0.000000
vt 0.000000 0.000000
vt 0.000000 0.000000
vt 0.000000 0.000000
vt 0.000000 0.000000
vt 0.000000 0.000000
vt 0.000000 0.000000
vt 0.000000 0.000000
vt 0.000000 0.000000
vt 0.000000 0.000000
vt 0.000000 0.000000
vt 0.000000 0.000000
vt 0.000000 0.000000
vt 0.000000 0.000000
vt 0.000000 0.000000
vt 0.000000 0.000000
vt 0.000000 0.000000
vt 0.000000 0.000000
vt 0.000000 0.000000
vt 0.000000 0.000000
vt 0.000000 0.000000
vt 0.000000 0.000000
vt 0.000000 0.000000
vt 0.000000 0.000000
vt 0.000000 0.000000
vt 0.000000 0.000000
vt 0.000000 0.000000
vt 0.000000 0.000000
vt 0.000000 0.000000
vt 0.000000 0.000000
vt 0.000000 0.000000
vt 0.000000 0.000000
vt 0.000000 0.000000
vt 0.000000 0.000000
vt 0.000000 0.000000
vt 0.000000 0.000000
vt 0.000000 0.000000
vt 0.000000 0.000000
vt 0.000000 0.000000
vt 0.000000 0.000000
vt 0.000000 0.000000
vt 0.000000 0.000000
vt 0.000000 0.000000
vt 0.000000 0.000000
vt 0.000000 0.000000
vt 0.000000 0.000000
vt 0.000000 0.000000
vt 0.000000 0.000000
vt 0.000000 0.000000
vt 0.000000 0.000000
vt 0.000000 0.000000
vt 0.000000 0.000000
vt 0.000000 0.000000
vt 0.000000 0.000000
vt 0.000000 0.000000
vt 0.000000 0.000000
vt 0.000000 0.000000
vt 0.000000 0.000000
vt 0.000000 0.000000
vt 0.000000 0.000000
vt 0.000000 0.000000
vt 0.000000 0.000000
vt 0.000000 0.000000
vt 0.000000 0.000000
vt 0.000000 0.000000
vt 0.000000 0.000000
vt 0.000000 0.000000
vt 0.000000 0.000000
vt 0.000000 0.000000
vt 0.000000 0.000000
vt 0.000000 0.000000
vt 0.000000 0.000000
vt 0.000000 0.000000
vt 0.000000 0.000000
vt 0.000000 0.000000
vt 0.000000 0.000000
vt 0.000000 0.000000
vt 0.000000 0.000000
vt 0.000000 0.000000
vt 0.000000 0.000000
vt 0.000000 0.000000
vt 0.000000 0.000000
vt 0.000000 0.000000
vt 0.000000 0.000000
vt 0.000000 0.000000
vt 0.000000 0.000000
vt 0.000000 0.000000
vt 0.000000 0.000000
vt 0.000000 0.000000
vt 0.000000 0.000000
vt 0.000000 0.000000
vt 0.000000 0.000000
vt 0.000000 0.000000
vt 0.000000 0.000000
vt 0.000000 0.000000
vt 0.000000 0.000000
vt 0.000000 0.000000
vt 0.000000 0.000000
vt 0.000000 0.000000
vt 0.000000 0.000000
vt 0.000000 0.000000
vt 0.000000 0.000000
vt 0.000000 0.000000
vt 0.000000 0.000000
vt 0.000000 0.000000
vt 0.000000 0.000000
vt 0.000000 0.000000
vt 0.000000 0.000000
vt 0.000000 0.000000
vt 0.000000 0.000000
vt 0.000000 0.000000
vt 0.000000 0.000000
vt 0.000000 0.000000
vt 0.000000 0.000000
vt 0.000000 0.000000
vt 0.000000 0.000000
vt 0.000000 0.000000
vt 0.000000 0.000000
vt 0.000000 0.000000
vt 0.000000 0.000000
vt 0.000000 0.000000
vt 0.000000 0.000000
vt 0.000000 0.000000
vt 0.000000 0.000000
vt 0.000000 0.000000
vt 0.000000 0.000000
vt 0.000000 0.000000
vt 0.000000 0.000000
vt 0.000000 0.000000
vt 0.000000 0.000000
vt 0.000000 0.000000
vt 0.000000 0.000000
vt 0.000000 0.000000
vt 0.000000 0.000000
vt 0.000000 0.000000
vt 0.000000 0.000000
vt 0.000000 0.000000
vt 0.000000 0.000000
vt 0.000000 0.000000
vt 0.000000 0.000000
vt 0.000000 0.000000
vt 0.000000 0.000000
vt 0.000000 0.000000
vt 0.000000 0.000000
vt 0.000000 0.000000
vt 0.000000 0.000000
vt 0.000000 0.000000
vt 0.000000 0.000000
vt 0.000000 0.000000
vt 0.000000 0.000000
vt 0.000000 0.000000
vt 0.000000 0.000000
vt 0.000000 0.000000
vt 0.000000 0.000000
vt 0.000000 0.000000
vt 0.000000 0.000000
vt 0.000000 0.000000
vt 0.000000 0.000000
vt 0.000000 0.000000
vt 0.000000 0.000000
vt 0.000000 0.000000
vt 0.000000 0.000000
vt 0.000000 0.000000
vt 0.000000 0.000000
vt 0.000000 0.000000
vt 0.000000 0.000000
vt 0.000000 0.000000
vt 0.000000 0.000000
vt 0.000000 0.000000
vt 0.000000 0.000000
vt 0.000000 0.000000
vt 0.000000 0.000000
vt 0.000000 0.000000
vt 0.000000 0.000000
vt 0.000000 0.000000
vt 0.000000 0.000000
vt 0.000000 0.000000
vt 0.000000 0.000000
vt 0.000000 0.000000
vt 0.000000 0.000000
vt 0.000000 0.000000
vt 0.000000 0.000000
vt 0.000000 0.000000
vt 0.000000 0.000000
vt 0.000000 0.000000
vt 0.000000 0.000000
vt 0.000000 0.000000
vt 0.000000 0.000000
vt 0.000000 0.000000
vt 0.000000 0.000000
vt 0.000000 0.000000
vt 0.000000 0.000000
vt 0.000000 0.000000
vt 0.000000 0.000000
vt 0.000000 0.000000
vt 0.000000 0.000000
vt 0.000000 0.000000
vt 0.000000 0.000000
vt 0.000000 0.000000
vt 0.000000 0.000000
vt 0.000000 0.000000
vt 0.000000 0.000000
vt 0.000000 0.000000
vt 0.000000 0.000000
vt 0.000000 0.000000
vt 0.000000 0.000000
vt 0.000000 0.000000
vt 0.000000 0.000000
vt 0.000000 0.000000
vt 0.000000 0.000000
vt 0.000000 0.000000
vt 0.000000 0.000000
vt 0.000000 0.000000
vt 0.000000 0.000000
vt 0.000000 0.000000
vt 0.000000 0.000000
vt 0.000000 0.000000
vt 0.000000 0.000000
vt 0.000000 0.000000
vt 0.000000 0.000000
vt 0.000000 0.000000
vt 0.000000 0.000000
vt 0.000000 0.000000
vt 0.000000 0.000000
vt 0.000000 0.000000
vt 0.000000 0.000000
vt 0.000000 0.000000
vt 0.000000 0.000000
vt 0.000000 0.000000
vt 0.000000 0.000000
vt 0.000000 0.000000
vt 0.000000 0.000000
vt 0.000000 0.000000
vt 0.000000 0.000000
vt 0.000000 0.000000
vt 0.000000 0.000000
vt 0.000000 0.000000
vt 0.000000 0.000000
vt 0.000000 0.000000
vt 0.000000 0.000000
vt 0.000000 0.000000
vt 0.000000 0.000000
vt 0.000000 0.000000
vt 0.000000 0.000000
vt 0.000000 0.000000
vt 0.000000 0.000000
vt 0.000000 0.000000
vt 0.000000 0.000000
vt 0.000000 0.000000
vt 0.000000 0.000000
vt 0.000000 0.000000
vt 0.000000 0.000000
vt 0.000000 0.000000
vt 0.000000 0.000000
vt 0.000000 0.000000
vt 0.000000 0.000000
vt 0.000000 0.000000
vt 0.000000 0.000000
vt 0.000000 0.000000
vt 0.000000 0.000000
vt 0.000000 0.000000
vt 0.000000 0.000000
vt 0.000000 0.000000
vt 0.000000 0.000000
vt 0.000000 0.000000
vt 0.000000 0.000000
vt 0.000000 0.000000
vt 0.000000 0.000000
vt 0.000000 0.000000
vt 0.000000 0.000000
vt 0.000000 0.000000
vt 0.000000 0.000000
vt 0.000000 0.000000
vt 0.000000 0.000000
vt 0.000000 0.000000
vt 0.000000 0.000000
vt 0.000000 0.000000
vt 0.000000 0.000000
vt 0.000000 0.000000
vt 0.000000 0.000000
vt 0.000000 0.000000
vt 0.000000 0.000000
vt 0.000000 0.000000
vt 0.000000 0.000000
vt 0.000000 0.000000
vt 0.000000 0.000000
vt 0.000000 0.000000
vt 0.000000 0.000000
vt 0.000000 0.000000
vt 0.000000 0.000000
vt 0.000000 0.000000
vt 0.000000 0.000000
vt 0.000000 0.000000
vt 0.000000 0.000000
vt 0.000000 0.000000
vt 0.000000 0.000000
vt 0.000000 0.000000
vt 0.000000 0.000000
vt 0.000000 0.000000
vt 0.000000 0.000000
vt 0.000000 0.000000
vt 0.000000 0.000000
vt 0.000000 0.000000
vt 0.000000 0.000000
vt 0.000000 0.000000
vt 0.000000 0.000000
vt 0.000000 0.000000
vt 0.000000 0.000000
vt 0.000000 0.000000
vt 0.000000 0.000000
vt 0.000000 0.000000
vt 0.000000 0.000000
vt 0.000000 0.000000
vt 0.000000 0.000000
vt 0.000000 0.000000
vt 0.000000 0.000000
vt 0.000000 0.000000
vt 0.000000 0.000000
vt 0.000000 0.000000
vt 0.000000 0.000000
vt 0.000000 0.000000
vt 0.000000 0.000000
vt 0.000000 0.000000
vt 0.000000 0.000000
vt 0.000000 0.000000
vt 0.000000 0.000000
vt 0.000000 0.000000
vt 0.000000 0.000000
vt 0.000000 0.000000
vt 0.000000 0.000000
vt 0.000000 0.000000
vt 0.000000 0.000000
vt 0.000000 0.000000
vt 0.000000 0.000000
vt 0.000000 0.000000
vt 0.000000 0.000000
vt 0.000000 0.000000
vt 0.000000 0.000000
vt 0.000000 0.000000
vt 0.000000 0.000000
vt 0.000000 0.000000
vt 0.000000 0.000000
vt 0.000000 0.000000
vt 0.000000 0.000000
vt 0.000000 0.000000
vt 0.000000 0.000000
vt 0.000000 0.000000
vt 0.000000 0.000000
vt 0.000000 0.000000
vt 0.000000 0.000000
vt 0.000000 0.000000
vt 0.000000 0.000000
vt 0.000000 0.000000
vt 0.000000 0.000000
vt 0.000000 0.000000
vt 0.000000 0.000000
vt 0.000000 0.000000
vt 0.000000 0.000000
vt 0.000000 0.000000
vt 0.000000 0.000000
vt 0.000000 0.000000
vt 0.000000 0.000000
vt 0.000000 0.000000
vt 0.000000 0.000000
vt 0.000000 0.000000
vt 0.000000 0.000000
vt 0.000000 0.000000
vt 0.000000 0.000000
vt 0.000000 0.000000
vt 0.000000 0.000000
vt 0.000000 0.000000
vt 0.000000 0.000000
vt 0.000000 0.000000
vt 0.000000 0.000000
vt 0.000000 0.000000
vt 0.000000 0.000000
vt 0.000000 0.000000
vt 0.000000 0.000000
vt 0.000000 0.000000
vt 0.000000 0.000000
vt 0.000000 0.000000
vt 0.000000 0.000000
vt 0.000000 0.000000
vt 0.000000 0.000000
vt 0.000000 0.000000
vt 0.000000 0.000000
vt 0.000000 0.000000
vt 0.000000 0.000000
vt 0.000000 0.000000
vt 0.000000 0.000000
vt 0.000000 0.000000
vt 0.000000 0.000000
vt 0.000000 0.000000
vt 0.000000 0.000000
vt 0.000000 0.000000
vt 0.000000 0.000000
vt 0.000000 0.000000
vt 0.000000 0.000000
vt 0.000000 0.000000
vt 0.000000 0.000000
vt 0.000000 0.000000
vt 0.000000 0.000000
vt 0.000000 0.000000
vt 0.000000 0.000000
vt 0.000000 0.000000
vt 0.000000 0.000000
vt 0.000000 0.000000
vt 0.000000 0.000000
vt 0.000000 0.000000
vt 0.000000 0.000000
vt 0.000000 0.000000
vt 0.000000 0.000000
vt 0.000000 0.000000
vt 0.000000 0.000000
vt 0.000000 0.000000
vt 0.000000 0.000000
vt 0.000000 0.000000
vt 0.000000 0.000000
vt 0.000000 0.000000
vt 0.000000 0.000000
vt 0.000000 0.000000
vt 0.000000 0.000000
vt 0.000000 0.000000
vt 0.000000 0.000000
vt 0.000000 0.000000
vt 0.000000 0.000000
vt 0.000000 0.000000
vt 0.000000 0.000000
vt 0.000000 0.000000
vt 0.000000 0.000000
vt 0.000000 0.000000
vt 0.000000 0.000000
vt 0.000000 0.000000
vt 0.000000 0.000000
vt 0.000000 0.000000
vt 0.000000 0.000000
vt 0.000000 0.000000
vt 0.000000 0.000000
vt 0.000000 0.000000
vt 0.000000 0.000000
vt 0.000000 0.000000
vt 0.000000 0.000000
vt 0.000000 0.000000
vt 0.000000 0.000000
vt 0.000000 0.000000
vt 0.000000 0.000000
vt 0.000000 0.000000
vt 0.000000 0.000000
vt 0.000000 0.000000
vt 0.000000 0.000000
vt 0.000000 0.000000
vt 0.000000 0.000000
vt 0.000000 0.000000
vt 0.000000 0.000000
vt 0.000000 0.000000
vt 0.000000 0.000000
vt 0.000000 0.000000
vt 0.000000 0.000000
vt 0.000000 0.000000
vt 0.000000 0.000000
vt 0.000000 0.000000
vt 0.000000 0.000000
vt 0.000000 0.000000
vt 0.000000 0.000000
vt 0.000000 0.000000
vt 0.000000 0.000000
vt 0.000000 0.000000
vt 0.000000 0.000000
vt 0.000000 0.000000
vt 0.000000 0.000000
vt 0.000000 0.000000
vt 0.000000 0.000000
vt 0.000000 0.000000
vt 0.000000 0.000000
vt 0.000000 0.000000
vt 0.000000 0.000000
vt 0.000000 0.000000
vt 0.000000 0.000000
vt 0.000000 0.000000
vt 0.000000 0.000000
vt 0.000000 0.000000
vt 0.000000 0.000000
vt 0.000000 0.000000
vt 0.000000 0.000000
vt 0.000000 0.000000
vt 0.000000 0.000000
vt 0.000000 0.000000
vt 0.000000 0.000000
vt 0.000000 0.000000
vt 0.000000 0.000000
vt 0.000000 0.000000
vt 0.000000 0.000000
vt 0.000000 0.000000
vt 0.000000 0.000000
vt 0.000000 0.000000
vt 0.000000 0.000000
vt 0.000000 0.000000
vt 0.000000 0.000000
vt 0.000000 0.000000
vt 0.000000 0.000000
vt 0.000000 0.000000
vt 0.000000 0.000000
vt 0.000000 0.000000
vt 0.000000 0.000000
vt 0.000000 0.000000
vt 0.000000 0.000000
vt 0.000000 0.000000
vt 0.000000 0.000000
vt 0.000000 0.000000
vt 0.000000 0.000000
vt 0.000000 0.000000
vt 0.000000 0.000000
vt 0.000000 0.000000
vt 0.000000 0.000000
vt 0.000000 0.000000
vt 0.000000 0.000000
vt 0.000000 0.000000
vt 0.000000 0.000000
vt 0.000000 0.000000
vt 0.000000 0.000000
vt 0.000000 0.000000
vt 0.000000 0.000000
vt 0.000000 0.000000
vt 0.000000 0.000000
vt 0.000000 0.000000
vt 0.000000 0.000000
vt 0.000000 0.000000
vt 0.000000 0.000000
vt 0.000000 0.000000
vt 0.000000 0.000000
vt 0.000000 0.000000
vt 0.000000 0.000000
vt 0.000000 0.000000
vt 0.000000 0.000000
vt 0.000000 0.000000
vt 0.000000 0.000000
vt 0.000000 0.000000
vt 0.000000 0.000000
vt 0.000000 0.000000
vt 0.000000 0.000000
vt 0.000000 0.000000
vt 0.000000 0.000000
vt 0.000000 0.000000
vt 0.000000 0.000000
vt 0.000000 0.000000
vt 0.000000 0.000000
vt 0.000000 0.000000
vt 0.000000 0.000000
vt 0.000000 0.000000
vt 0.000000 0.000000
vt 0.000000 0.000000
vt 0.000000 0.000000
vt 0.000000 0.000000
vt 0.000000 0.000000
vt 0.000000 0.000000
vt 0.000000 0.000000
vt 0.000000 0.000000
vt 0.000000 0.000000
vt 0.000000 0.000000
vt 0.000000 0.000000
vt 0.000000 0.000000
vt 0.000000 0.000000
vt 0.000000 0.000000
vt 0.000000 0.000000
vt 0.000000 0.000000
vt 0.000000 0.000000
vt 0.000000 0.000000
vt 0.000000 0.000000
vt 0.000000 0.000000
vt 0.000000 0.000000
vt 0.000000 0.000000
vt 0.000000 0.000000
vt 0.000000 0.000000
vt 0.000000 0.000000
vt 0.000000 0.000000
vt 0.000000 0.000000
vt 0.000000 0.000000
vt 0.000000 0.000000
vt 0.000000 0.000000
vt 0.000000 0.000000
vt 0.000000 0.000000
vt 0.000000 0.000000
vt 0.000000 0.000000
vt 0.000000 0.000000
vt 0.000000 0.000000
vt 0.000000 0.000000
vt 0.000000 0.000000
vt 0.000000 0.000000
vt 0.000000 0.000000
vt 0.000000 0.000000
vt 0.000000 0.000000
vt 0.000000 0.000000
vt 0.000000 0.000000
vt 0.000000 0.000000
vt 0.000000 0.000000
vt 0.000000 0.000000
vt 0.000000 0.000000
vt 0.000000 0.000000
vt 0.000000 0.000000
vt 0.000000 0.000000
vt 0.000000 0.000000
vt 0.000000 0.000000
vt 0.000000 0.000000
vt 0.000000 0.000000
vt 0.000000 0.000000
vt 0.000000 0.000000
vt 0.000000 0.000000
vt 0.000000 0.000000
vt 0.000000 0.000000
vt 0.000000 0.000000
vt 0.000000 0.000000
vt 0.000000 0.000000
vt 0.000000 0.000000
vt 0.000000 0.000000
vt 0.000000 0.000000
vt 0.000000 0.000000
vt 0.000000 0.000000
vt 0.000000 0.000000
vt 0.000000 0.000000
vt 0.000000 0.000000
vt 0.000000 0.000000
vt 0.000000 0.000000
vt 0.000000 0.000000
vt 0.000000 0.000000
vt 0.000000 0.000000
vt 0.000000 0.000000
vt 0.000000 0.000000
vt 0.000000 0.000000
vt 0.000000 0.000000
vt 0.000000 0.000000
vt 0.000000 0.000000
vt 0.000000 0.000000
vt 0.000000 0.000000
vt 0.000000 0.000000
vt 0.000000 0.000000
vt 0.000000 0.000000
vt 0.000000 0.000000
vt 0.000000 0.000000
vt 0.000000 0.000000
vt 0.000000 0.000000
vt 0.000000 0.000000
vt 0.000000 0.000000
vt 0.000000 0.000000
vt 0.000000 0.000000
vt 0.000000 0.000000
vt 0.000000 0.000000
vt 0.000000 0.000000
vt 0.000000 0.000000
vt 0.000000 0.000000
vt 0.000000 0.000000
vt 0.000000 0.000000
vt 0.000000 0.000000
vt 0.000000 0.000000
vt 0.000000 0.000000
vt 0.000000 0.000000
vt 0.000000 0.000000
vt 0.000000 0.000000
vt 0.000000 0.000000
vt 0.000000 0.000000
vt 0.000000 0.000000
vt 0.000000 0.000000
vt 0.000000 0.000000
vt 0.000000 0.000000
vt 0.000000 0.000000
vt 0.000000 0.000000
vt 0.000000 0.000000
vt 0.000000 0.000000
vt 0.000000 0.000000
vt 0.000000 0.000000
vt 0.000000 0.000000
vt 0.000000 0.000000
vt 0.000000 0.000000
vt 0.000000 0.000000
vt 0.000000 0.000000
vt 0.000000 0.000000
vt 0.000000 0.000000
vt 0.000000 0.000000
vt 0.000000 0.000000
vt 0.000000 0.000000
vt 0.000000 0.000000
vt 0.000000 0.000000
vt 0.000000 0.000000
vt 0.000000 0.000000
vt 0.000000 0.000000
vt 0.000000 0.000000
vt 0.000000 0.000000
vt 0.000000 0.000000
vt 0.000000 0.000000
vt 0.000000 0.000000
vt 0.000000 0.000000
vt 0.000000 0.000000
vt 0.000000 0.000000
vt 0.000000 0.000000
vt 0.000000 0.000000
vt 0.000000 0.000000
vt 0.000000 0.000000
vt 0.000000 0.000000
vt 0.000000 0.000000
vt 0.000000 0.000000
vt 0.000000 0.000000
vt 0.000000 0.000000
vt 0.000000 0.000000
vt 0.000000 0.000000
vt 0.000000 0.000000
vt 0.000000 0.000000
vt 0.000000 0.000000
vt 0.000000 0.000000
vt 0.000000 0.000000
vt 0.000000 0.000000
vt 0.000000 0.000000
vt 0.000000 0.000000
vt 0.000000 0.000000
vt 0.000000 0.000000
vt 0.000000 0.000000
vt 0.000000 0.000000
vt 0.000000 0.000000
vt 0.000000 0.000000
vt 0.000000 0.000000
vt 0.000000 0.000000
vt 0.000000 0.000000
vt 0.000000 0.000000
vt 0.000000 0.000000
vt 0.000000 0.000000
vt 0.000000 0.000000
vt 0.000000 0.000000
vt 0.000000 0.000000
vt 0.000000 0.000000
vt 0.000000 0.000000
vt 0.000000 0.000000
vt 0.000000 0.000000
vt 0.000000 0.000000
vt 0.000000 0.000000
vt 0.000000 0.000000
vt 0.000000 0.000000
vt 0.000000 0.000000
vt 0.000000 0.000000
vt 0.000000 0.000000
vt 0.000000 0.000000
vt 0.000000 0.000000
vt 0.000000 0.000000
vt 0.000000 0.000000
vt 0.000000 0.000000
vt 0.000000 0.000000
vt 0.000000 0.000000
vt 0.000000 0.000000
vt 0.000000 0.000000
vt 0.000000 0.000000
vt 0.000000 0.000000
vt 0.000000 0.000000
vt 0.000000 0.000000
vt 0.000000 0.000000
vt 0.000000 0.000000
vt 0.000000 0.000000
vt 0.000000 0.000000
vt 0.000000 0.000000
vt 0.000000 0.000000
vt 0.000000 0.000000
vt 0.000000 0.000000
vt 0.000000 0.000000
vt 0.000000 0.000000
vt 0.000000 0.000000
vt 0.000000 0.000000
vt 0.000000 0.000000
vt 0.000000 0.000000
vt 0.000000 0.000000
vt 0.000000 0.000000
vt 0.000000 0.000000
vt 0.000000 0.000000
vt 0.000000 0.000000
vt 0.000000 0.000000
vt 0.000000 0.000000
vt 0.000000 0.000000
vt 0.000000 0.000000
vt 0.000000 0.000000
vt 0.000000 0.000000
vt 0.000000 0.000000
vt 0.000000 0.000000
vt 0.000000 0.000000
vt 0.000000 0.000000
vt 0.000000 0.000000
vt 0.000000 0.000000
vt 0.000000 0.000000
vt 0.000000 0.000000
vt 0.000000 0.000000
vt 0.000000 0.000000
vt 0.000000 0.000000
vt 0.000000 0.000000
vt 0.000000 0.000000
vt 0.000000 0.000000
vt 0.000000 0.000000
vt 0.000000 0.000000
vt 0.000000 0.000000
vt 0.000000 0.000000
vt 0.000000 0.000000
vt 0.000000 0.000000
vt 0.000000 0.000000
vt 0.000000 0.000000
vt 0.000000 0.000000
vt 0.000000 0.000000
vt 0.000000 0.000000
vt 0.000000 0.000000
vt 0.000000 0.000000
vt 0.000000 0.000000
vt 0.000000 0.000000
vt 0.000000 0.000000
vt 0.000000 0.000000
vt 0.000000 0.000000
vt 0.000000 0.000000
vt 0.000000 0.000000
vt 0.000000 0.000000
vt 0.000000 0.000000
vt 0.000000 0.000000
vt 0.000000 0.000000
vt 0.000000 0.000000
vt 0.000000 0.000000
vt 0.000000 0.000000
vt 0.000000 0.000000
vt 0.000000 0.000000
vt 0.000000 0.000000
vt 0.000000 0.000000
vt 0.000000 0.000000
vt 0.000000 0.000000
vt 0.000000 0.000000
vt 0.000000 0.000000
vt 0.000000 0.000000
vt 0.000000 0.000000
vt 0.000000 0.000000
vt 0.000000 0.000000
vt 0.000000 0.000000
vt 0.000000 0.000000
vt 0.000000 0.000000
vt 0.000000 0.000000
vt 0.000000 0.000000
vt 0.000000 0.000000
vt 0.000000 0.000000
vt 0.000000 0.000000
vt 0.000000 0.000000
vt 0.000000 0.000000
vt 0.000000 0.000000
vt 0.000000 0.000000
vt 0.000000 0.000000
vt 0.000000 0.000000
vt 0.000000 0.000000
vt 0.000000 0.000000
vt 0.000000 0.000000
vt 0.000000 0.000000
vt 0.000000 0.000000
vt 0.000000 0.000000
vt 0.000000 0.000000
vt 0.000000 0.000000
vt 0.000000 0.000000
vt 0.000000 0.000000
vt 0.000000 0.000000
vt 0.000000 0.000000
vt 0.000000 0.000000
vt 0.000000 0.000000
vt 0.000000 0.000000
vt 0.000000 0.000000
vt 0.000000 0.000000
vt 0.000000 0.000000
vt 0.000000 0.000000
vt 0.000000 0.000000
vt 0.000000 0.000000
vt 0.000000 0.000000
vt 0.000000 0.000000
vt 0.000000 0.000000
vt 0.000000 0.000000
vt 0.000000 0.000000
vt 0.000000 0.000000
vt 0.000000 0.000000
vt 0.000000 0.000000
vt 0.000000 0.000000
vt 0.000000 0.000000
vt 0.000000 0.000000
vt 0.000000 0.000000
vt 0.000000 0.000000
vt 0.000000 0.000000
vt 0.000000 0.000000
vt 0.000000 0.000000
vt 0.000000 0.000000
vt 0.000000 0.000000
vt 0.000000 0.000000
vt 0.000000 0.000000
vt 0.000000 0.000000
vt 0.000000 0.000000
vt 0.000000 0.000000
vt 0.000000 0.000000
vt 0.000000 0.000000
vt 0.000000 0.000000
vt 0.000000 0.000000
vt 0.000000 0.000000
vt 0.000000 0.000000
vt 0.000000 0.000000
vt 0.000000 0.000000
vt 0.000000 0.000000
vt 0.000000 0.000000
vt 0.000000 0.000000
vt 0.000000 0.000000
vt 0.000000 0.000000
vt 0.000000 0.000000
vt 0.000000 0.000000
vt 0.000000 0.000000
vt 0.000000 0.000000
vt 0.000000 0.000000
vt 0.000000 0.000000
vt 0.000000 0.000000
vt 0.000000 0.000000
vt 0.000000 0.000000
vt 0.000000 0.000000
vt 0.000000 0.000000
vt 0.000000 0.000000
vt 0.000000 0.000000
vt 0.000000 0.000000
vt 0.000000 0.000000
vt 0.000000 0.000000
vt 0.000000 0.000000
vt 0.000000 0.000000
vt 0.000000 0.000000
vt 0.000000 0.000000
vt 0.000000 0.000000
vt 0.000000 0.000000
vt 0.000000 0.000000
vt 0.000000 0.000000
vt 0.000000 0.000000
vt 0.000000 0.000000
vt 0.000000 0.000000
vt 0.000000 0.000000
vt 0.000000 0.000000
vt 0.000000 0.000000
vt 0.000000 0.000000
vt 0.000000 0.000000
vt 0.000000 0.000000
vt 0.000000 0.000000
vt 0.000000 0.000000
vt 0.000000 0.000000
vt 0.000000 0.000000
vt 0.000000 0.000000
vt 0.000000 0.000000
vt 0.000000 0.000000
vt 0.000000 0.000000
vt 0.000000 0.000000
vt 0.000000 0.000000
vt 0.000000 0.000000
vt 0.000000 0.000000
vt 0.000000 0.000000
vt 0.000000 0.000000
vt 0.000000 0.000000
vt 0.000000 0.000000
vt 0.000000 0.000000
vt 0.000000 0.000000
vt 0.000000 0.000000
vt 0.000000 0.000000
vt 0.000000 0.000000
vt 0.000000 0.000000
vt 0.000000 0.000000
vt 0.000000 0.000000
vt 0.000000 0.000000
vt 0.000000 0.000000
vt 0.000000 0.000000
vt 0.000000 0.000000
vt 0.000000 0.000000
vt 0.000000 0.000000
vt 0.000000 0.000000
vt 0.000000 0.000000
vt 0.000000 0.000000
vt 0.000000 0.000000
vt 0.000000 0.000000
vt 0.000000 0.000000
vt 0.000000 0.000000
vt 0.000000 0.000000
vt 0.000000 0.000000
vt 0.000000 0.000000
vt 0.000000 0.000000
vt 0.000000 0.000000
vt 0.000000 0.000000
vt 0.000000 0.000000
vt 0.000000 0.000000
vt 0.000000 0.000000
vt 0.000000 0.000000
vt 0.000000 0.000000
vt 0.000000 0.000000
vt 0.000000 0.000000
vt 0.000000 0.000000
vt 0.000000 0.000000
vt 0.000000 0.000000
vt 0.000000 0.000000
vt 0.000000 0.000000
vt 0.000000 0.000000
vt 0.000000 0.000000
vt 0.000000 0.000000
vt 0.000000 0.000000
vt 0.000000 0.000000
vt 0.000000 0.000000
vt 0.000000 0.000000
vt 0.000000 0.000000
vt 0.000000 0.000000
vt 0.000000 0.000000
vt 0.000000 0.000000
vt 0.000000 0.000000
vt 0.000000 0.000000
vt 0.000000 0.000000
vt 0.000000 0.000000
vt 0.000000 0.000000
vt 0.000000 0.000000
vt 0.000000 0.000000
vt 0.000000 0.000000
vt 0.000000 0.000000
vt 0.000000 0.000000
vt 0.000000 0.000000
vt 0.000000 0.000000
vt 0.000000 0.000000
vt 0.000000 0.000000
vt 0.000000 0.000000
vt 0.000000 0.000000
vt 0.000000 0.000000
vt 0.000000 0.000000
vt 0.000000 0.000000
vt 0.000000 0.000000
vt 0.000000 0.000000
vt 0.000000 0.000000
vt 0.000000 0.000000
vt 0.000000 0.000000
vt 0.000000 0.000000
vt 0.000000 0.000000
vt 0.000000 0.000000
vt 0.000000 0.000000
vt 0.000000 0.000000
vt 0.000000 0.000000
vt 0.000000 0.000000
vt 0.000000 0.000000
vt 0.000000 0.000000
vt 0.000000 0.000000
vt 0.000000 0.000000
vt 0.000000 0.000000
vt 0.000000 0.000000
vt 0.000000 0.000000
vt 0.000000 0.000000
vt 0.000000 0.000000
vt 0.000000 0.000000
vt 0.000000 0.000000
vt 0.000000 0.000000
vt 0.000000 0.000000
vt 0.000000 0.000000
vt 0.000000 0.000000
vt 0.000000 0.000000
vt 0.000000 0.000000
vt 0.000000 0.000000
vt 0.000000 0.000000
vt 0.000000 0.000000
vt 0.000000 0.000000
vt 0.000000 0.000000
vt 0.000000 0.000000
vt 0.000000 0.000000
vt 0.000000 0.000000
vt 0.000000 0.000000
vt 0.000000 0.000000
vt 0.000000 0.000000
vt 0.000000 0.000000
vt 0.000000 0.000000
vt 0.000000 0.000000
vt 0.000000 0.000000
vt 0.000000 0.000000
vt 0.000000 0.000000
vt 0.000000 0.000000
vt 0.000000 0.000000
vt 0.000000 0.000000
vt 0.000000 0.000000
vt 0.000000 0.000000
vt 0.000000 0.000000
vt 0.000000 0.000000
vt 0.000000 0.000000
vt 0.000000 0.000000
vt 0.000000 0.000000
vt 0.000000 0.000000
vt 0.000000 0.000000
vt 0.000000 0.000000
vt 0.000000 0.000000
vt 0.000000 0.000000
vt 0.000000 0.000000
vt 0.000000 0.000000
vt 0.000000 0.000000
vt 0.000000 0.000000
vt 0.000000 0.000000
vt 0.000000 0.000000
vt 0.000000 0.000000
vt 0.000000 0.000000
vt 0.000000 0.000000
vt 0.000000 0.000000
vt 0.000000 0.000000
vt 0.000000 0.000000
vt 0.000000 0.000000
vt 0.000000 0.000000
vt 0.000000 0.000000
vt 0.000000 0.000000
vt 0.000000 0.000000
vt 0.000000 0.000000
vt 0.000000 0.000000
vt 0.000000 0.000000
vt 0.000000 0.000000
vt 0.000000 0.000000
vt 0.000000 0.000000
vt 0.000000 0.000000
vt 0.000000 0.000000
vt 0.000000 0.000000
vt 0.000000 0.000000
vt 0.000000 0.000000
vt 0.000000 0.000000
vt 0.000000 0.000000
vt 0.000000 0.000000
vt 0.000000 0.000000
vt 0.000000 0.000000
vt 0.000000 0.000000
vt 0.000000 0.000000
vt 0.000000 0.000000
vt 0.000000 0.000000
vt 0.000000 0.000000
vt 0.000000 0.000000
vt 0.000000 0.000000
vt 0.000000 0.000000
vt 0.000000 0.000000
vt 0.000000 0.000000
vt 0.000000 0.000000
vt 0.000000 0.000000
vt 0.000000 0.000000
vt 0.000000 0.000000
vt 0.000000 0.000000
vt 0.000000 0.000000
vt 0.000000 0.000000
vt 0.000000 0.000000
vt 0.000000 0.000000
vt 0.000000 0.000000
vt 0.000000 0.000000
vt 0.000000 0.000000
vt 0.000000 0.000000
vt 0.000000 0.000000
vt 0.000000 0.000000
vt 0.000000 0.000000
vt 0.000000 0.000000
vt 0.000000 0.000000
vt 0.000000 0.000000
vt 0.000000 0.000000
vt 0.000000 0.000000
vt 0.000000 0.000000
vt 0.000000 0.000000
vt 0.000000 0.000000
vt 0.000000 0.000000
vt 0.000000 0.000000
vt 0.000000 0.000000
vt 0.000000 0.000000
vt 0.000000 0.000000
vt 0.000000 0.000000
vt 0.000000 0.000000
vt 0.000000 0.000000
vt 0.000000 0.000000
vt 0.000000 0.000000
vt 0.000000 0.000000
vt 0.000000 0.000000
vt 0.000000 0.000000
vt 0.000000 0.000000
vt 0.000000 0.000000
vt 0.000000 0.000000
vt 0.000000 0.000000
vt 0.000000 0.000000
vt 0.000000 0.000000
vt 0.000000 0.000000
vt 0.000000 0.000000
vt 0.000000 0.000000
vt 0.000000 0.000000
vt 0.000000 0.000000
vt 0.000000 0.000000
vt 0.000000 0.000000
vt 0.000000 0.000000
vt 0.000000 0.000000
vt 0.000000 0.000000
vt 0.000000 0.000000
vt 0.000000 0.000000
vt 0.000000 0.000000
vt 0.000000 0.000000
vt 0.000000 0.000000
vt 0.000000 0.000000
vt 0.000000 0.000000
vt 0.000000 0.000000
vt 0.000000 0.000000
vt 0.000000 0.000000
vt 0.000000 0.000000
vt 0.000000 0.000000
vt 0.000000 0.000000
vt 0.000000 0.000000
vt 0.000000 0.000000
vt 0.000000 0.000000
vt 0.000000 0.000000
vt 0.000000 0.000000
vt 0.000000 0.000000
vt 0.000000 0.000000
vt 0.000000 0.000000
vt 0.000000 0.000000
vt 0.000000 0.000000
vt 0.000000 0.000000
vt 0.000000 0.000000
vt 0.000000 0.000000
vt 0.000000 0.000000
vt 0.000000 0.000000
vt 0.000000 0.000000
vt 0.000000 0.000000
vt 0.000000 0.000000
vt 0.000000 0.000000
vt 0.000000 0.000000
vt 0.000000 0.000000
vt 0.000000 0.000000
vt 0.000000 0.000000
vt 0.000000 0.000000
vt 0.000000 0.000000
vt 0.000000 0.000000
vt 0.000000 0.000000
vt 0.000000 0.000000
vt 0.000000 0.000000
vt 0.000000 0.000000
vt 0.000000 0.000000
vt 0.000000 0.000000
vt 0.000000 0.000000
vt 0.000000 0.000000
vt 0.000000 0.000000
vt 0.000000 0.000000
vt 0.000000 0.000000
vt 0.000000 0.000000
vt 0.000000 0.000000
vt 0.000000 0.000000
vt 0.000000 0.000000
vt 0.000000 0.000000
vt 0.000000 0.000000
vt 0.000000 0.000000
vt 0.000000 0.000000
vt 0.000000 0.000000
vt 0.000000 0.000000
vt 0.000000 0.000000
vt 0.000000 0.000000
vt 0.000000 0.000000
vt 0.000000 0.000000
vt 0.000000 0.000000
vt 0.000000 0.000000
vt 0.000000 0.000000
vt 0.000000 0.000000
vt 0.000000 0.000000
vt 0.000000 0.000000
vt 0.000000 0.000000
vt 0.000000 0.000000
vt 0.000000 0.000000
vt 0.000000 0.000000
vt 0.000000 0.000000
vt 0.000000 0.000000
vt 0.000000 0.000000
vt 0.000000 0.000000
vt 0.000000 0.000000
vt 0.000000 0.000000
vt 0.000000 0.000000
vt 0.000000 0.000000
vt 0.000000 0.000000
vt 0.000000 0.000000
vt 0.000000 0.000000
vt 0.000000 0.000000
vt 0.000000 0.000000
vt 0.000000 0.000000
vt 0.000000 0.000000
vt 0.000000 0.000000
vt 0.000000 0.000000
vt 0.000000 0.000000
vt 0.000000 0.000000
vt 0.000000 0.000000
vt 0.000000 0.000000
vt 0.000000 0.000000
vt 0.000000 0.000000
vt 0.000000 0.000000
vt 0.000000 0.000000
vt 0.000000 0.000000
vt 0.000000 0.000000
vt 0.000000 0.000000
vt 0.000000 0.000000
vt 0.000000 0.000000
vt 0.000000 0.000000
vt 0.000000 0.000000
vt 0.000000 0.000000
vt 0.000000 0.000000
vt 0.000000 0.000000
vt 0.000000 0.000000
vt 0.000000 0.000000
vt 0.000000 0.000000
vt 0.000000 0.000000
vt 0.000000 0.000000
vt 0.000000 0.000000
vt 0.000000 0.000000
vt 0.000000 0.000000
vt 0.000000 0.000000
vt 0.000000 0.000000
vt 0.000000 0.000000
vt 0.000000 0.000000
vt 0.000000 0.000000
vt 0.000000 0.000000
vt 0.000000 0.000000
vt 0.000000 0.000000
vt 0.000000 0.000000
vt 0.000000 0.000000
vt 0.000000 0.000000
vt 0.000000 0.000000
vt 0.000000 0.000000
vt 0.000000 0.000000
vt 0.000000 0.000000
vt 0.000000 0.000000
vt 0.000000 0.000000
vt 0.000000 0.000000
vt 0.000000 0.000000
vt 0.000000 0.000000
vt 0.000000 0.000000
vt 0.000000 0.000000
vt 0.000000 0.000000
vt 0.000000 0.000000
vt 0.000000 0.000000
vt 0.000000 0.000000
vt 0.000000 0.000000
vt 0.000000 0.000000
vt 0.000000 0.000000
vt 0.000000 0.000000
vt 0.000000 0.000000
vt 0.000000 0.000000
vt 0.000000 0.000000
vt 0.000000 0.000000
vt 0.000000 0.000000
vt 0.000000 0.000000
vt 0.000000 0.000000
vt 0.000000 0.000000
vt 0.000000 0.000000
vt 0.000000 0.000000
vt 0.000000 0.000000
vt 0.000000 0.000000
vt 0.000000 0.000000
vt 0.000000 0.000000
vt 0.000000 0.000000
vt 0.000000 0.000000
vt 0.000000 0.000000
vt 0.000000 0.000000
vt 0.000000 0.000000
vt 0.000000 0.000000
vt 0.000000 0.000000
vt 0.000000 0.000000
vt 0.000000 0.000000
vt 0.000000 0.000000
vt 0.000000 0.000000
vt 0.000000 0.000000
vt 0.000000 0.000000
vt 0.000000 0.000000
vt 0.000000 0.000000
vt 0.000000 0.000000
vt 0.000000 0.000000
vt 0.000000 0.000000
vt 0.000000 0.000000
vt 0.000000 0.000000
vt 0.000000 0.000000
vt 0.000000 0.000000
vt 0.000000 0.000000
vt 0.000000 0.000000
vt 0.000000 0.000000
vt 0.000000 0.000000
vt 0.000000 0.000000
vt 0.000000 0.000000
vt 0.000000 0.000000
vt 0.000000 0.000000
vt 0.000000 0.000000
vt 0.000000 0.000000
vt 0.000000 0.000000
vt 0.000000 0.000000
vt 0.000000 0.000000
vt 0.000000 0.000000
vt 0.000000 0.000000
vt 0.000000 0.000000
vt 0.000000 0.000000
vt 0.000000 0.000000
vt 0.000000 0.000000
vt 0.000000 0.000000
vt 0.000000 0.000000
vt 0.000000 0.000000
vt 0.000000 0.000000
vt 0.000000 0.000000
vt 0.000000 0.000000
vt 0.000000 0.000000
vt 0.000000 0.000000
vt 0.000000 0.000000
vt 0.000000 0.000000
vt 0.000000 0.000000
vt 0.000000 0.000000
vt 0.000000 0.000000
vt 0.000000 0.000000
vt 0.000000 0.000000
vt 0.000000 0.000000
vt 0.000000 0.000000
vt 0.000000 0.000000
vt 0.000000 0.000000
vt 0.000000 0.000000
vt 0.000000 0.000000
vt 0.000000 0.000000
vt 0.000000 0.000000
vt 0.000000 0.000000
vt 0.000000 0.000000
vt 0.000000 0.000000
vt 0.000000 0.000000
vt 0.000000 0.000000
vt 0.000000 0.000000
vt 0.000000 0.000000
vt 0.000000 0.000000
vt 0.000000 0.000000
vt 0.000000 0.000000
vt 0.000000 0.000000
vt 0.000000 0.000000
vt 0.000000 0.000000
vt 0.000000 0.000000
vt 0.000000 0.000000
vt 0.000000 0.000000
vt 0.000000 0.000000
vt 0.000000 0.000000
vt 0.000000 0.000000
vt 0.000000 0.000000
vt 0.000000 0.000000
vt 0.000000 0.000000
vt 0.000000 0.000000
vt 0.000000 0.000000
vt 0.000000 0.000000
vt 0.000000 0.000000
vt 0.000000 0.000000
vt 0.000000 0.000000
vt 0.000000 0.000000
vt 0.000000 0.000000
vt 0.000000 0.000000
vt 0.000000 0.000000
vt 0.000000 0.000000
vt 0.000000 0.000000
vt 0.000000 0.000000
vt 0.000000 0.000000
vt 0.000000 0.000000
vt 0.000000 0.000000
vt 0.000000 0.000000
vt 0.000000 0.000000
vt 0.000000 0.000000
vt 0.000000 0.000000
vt 0.000000 0.000000
vt 0.000000 0.000000
vt 0.000000 0.000000
vt 0.000000 0.000000
vt 0.000000 0.000000
vt 0.000000 0.000000
vt 0.000000 0.000000
vt 0.000000 0.000000
vt 0.000000 0.000000
vt 0.000000 0.000000
vt 0.000000 0.000000
vt 0.000000 0.000000
vt 0.000000 0.000000
vt 0.000000 0.000000
vt 0.000000 0.000000
vt 0.000000 0.000000
vt 0.000000 0.000000
vt 0.000000 0.000000
vt 0.000000 0.000000
vt 0.000000 0.000000
vt 0.000000 0.000000
vt 0.000000 0.000000
vt 0.000000 0.000000
vt 0.000000 0.000000
vt 0.000000 0.000000
vt 0.000000 0.000000
vt 0.000000 0.000000
vt 0.000000 0.000000
vt 0.000000 0.000000
vt 0.000000 0.000000
vt 0.000000 0.000000
vt 0.000000 0.000000
vt 0.000000 0.000000
vt 0.000000 0.000000
vt 0.000000 0.000000
vt 0.000000 0.000000
vt 0.000000 0.000000
vt 0.000000 0.000000
vt 0.000000 0.000000
vt 0.000000 0.000000
vt 0.000000 0.000000
vt 0.000000 0.000000
vt 0.000000 0.000000
vt 0.000000 0.000000
vt 0.000000 0.000000
vt 0.000000 0.000000
vt 0.000000 0.000000
vt 0.000000 0.000000
vt 0.000000 0.000000
vt 0.000000 0.000000
vt 0.000000 0.000000
vt 0.000000 0.000000
vt 0.000000 0.000000
vt 0.000000 0.000000
vt 0.000000 0.000000
vt 0.000000 0.000000
vt 0.000000 0.000000
vt 0.000000 0.000000
vt 0.000000 0.000000
vt 0.000000 0.000000
vt 0.000000 0.000000
vt 0.000000 0.000000
vt 0.000000 0.000000
vt 0.000000 0.000000
vt 0.000000 0.000000
vt 0.000000 0.000000
vt 0.000000 0.000000
vt 0.000000 0.000000
vt 0.000000 0.000000
vt 0.000000 0.000000
vt 0.000000 0.000000
vt 0.000000 0.000000
vt 0.000000 0.000000
vt 0.000000 0.000000
vt 0.000000 0.000000
vt 0.000000 0.000000
vt 0.000000 0.000000
vt 0.000000 0.000000
vt 0.000000 0.000000
vt 0.000000 0.000000
vt 0.000000 0.000000
vt 0.000000 0.000000
vt 0.000000 0.000000
vt 0.000000 0.000000
vt 0.000000 0.000000
vt 0.000000 0.000000
vt 0.000000 0.000000
vt 0.000000 0.000000
vt 0.000000 0.000000
vt 0.000000 0.000000
vt 0.000000 0.000000
vt 0.000000 0.000000
vt 0.000000 0.000000
vt 0.000000 0.000000
vt 0.000000 0.000000
vt 0.000000 0.000000
vt 0.000000 0.000000
vt 0.000000 0.000000
vt 0.000000 0.000000
vt 0.000000 0.000000
vt 0.000000 0.000000
vt 0.000000 0.000000
vt 0.000000 0.000000
vt 0.000000 0.000000
vt 0.000000 0.000000
vt 0.000000 0.000000
vt 0.000000 0.000000
vt 0.000000 0.000000
vt 0.000000 0.000000
vt 0.000000 0.000000
vt 0.000000 0.000000
vt 0.000000 0.000000
vt 0.000000 0.000000
vt 0.000000 0.000000
vt 0.000000 0.000000
vt 0.000000 0.000000
vt 0.000000 0.000000
vt 0.000000 0.000000
vt 0.000000 0.000000
vt 0.000000 0.000000
vt 0.000000 0.000000
vt 0.000000 0.000000
vt 0.000000 0.000000
vt 0.000000 0.000000
vt 0.000000 0.000000
vt 0.000000 0.000000
vt 0.000000 0.000000
vt 0.000000 0.000000
vt 0.000000 0.000000
vt 0.000000 0.000000
vt 0.000000 0.000000
vt 0.000000 0.000000
vt 0.000000 0.000000
vt 0.000000 0.000000
vt 0.000000 0.000000
vt 0.000000 0.000000
vt 0.000000 0.000000
vt 0.000000 0.000000
vt 0.000000 0.000000
vt 0.000000 0.000000
vt 0.000000 0.000000
vt 0.000000 0.000000
vt 0.000000 0.000000
vt 0.000000 0.000000
vt 0.000000 0.000000
vt 0.000000 0.000000
vt 0.000000 0.000000
vt 0.000000 0.000000
vt 0.000000 0.000000
vt 0.000000 0.000000
vt 0.000000 0.000000
vt 0.000000 0.000000
vt 0.000000 0.000000
vt 0.000000 0.000000
vt 0.000000 0.000000
vt 0.000000 0.000000
vt 0.000000 0.000000
vt 0.000000 0.000000
vt 0.000000 0.000000
vt 0.000000 0.000000
vt 0.000000 0.000000
vt 0.000000 0.000000
vt 0.000000 0.000000
vt 0.000000 0.000000
vt 0.000000 0.000000
vt 0.000000 0.000000
vt 0.000000 0.000000
vt 0.000000 0.000000
vt 0.000000 0.000000
vt 0.000000 0.000000
vt 0.000000 0.000000
vt 0.000000 0.000000
vt 0.000000 0.000000
vt 0.000000 0.000000
vt 0.000000 0.000000
vt 0.000000 0.000000
vt 0.000000 0.000000
vt 0.000000 0.000000
vt 0.000000 0.000000
vt 0.000000 0.000000
vt 0.000000 0.000000
vt 0.000000 0.000000
vt 0.000000 0.000000
vt 0.000000 0.000000
vt 0.000000 0.000000
vt 0.000000 0.000000
vt 0.000000 0.000000
vt 0.000000 0.000000
vt 0.000000 0.000000
vt 0.000000 0.000000
vt 0.000000 0.000000
vt 0.000000 0.000000
vt 0.000000 0.000000
vt 0.000000 0.000000
vt 0.000000 0.000000
vt 0.000000 0.000000
vt 0.000000 0.000000
vt 0.000000 0.000000
vt 0.000000 0.000000
vt 0.000000 0.000000
vt 0.000000 0.000000
vt 0.000000 0.000000
vt 0.000000 0.000000
vt 0.000000 0.000000
vt 0.000000 0.000000
vt 0.000000 0.000000
vt 0.000000 0.000000
vt 0.000000 0.000000
vt 0.000000 0.000000
vt 0.000000 0.000000
vt 0.000000 0.000000
vt 0.000000 0.000000
vt 0.000000 0.000000
vt 0.000000 0.000000
vt 0.000000 0.000000
vt 0.000000 0.000000
vt 0.000000 0.000000
vt 0.000000 0.000000
vt 0.000000 0.000000
vt 0.000000 0.000000
vt 0.000000 0.000000
vt 0.000000 0.000000
vt 0.000000 0.000000
vt 0.000000 0.000000
vt 0.000000 0.000000
vt 0.000000 0.000000
vt 0.000000 0.000000
vt 0.000000 0.000000
vt 0.000000 0.000000
vt 0.000000 0.000000
vt 0.000000 0.000000
vt 0.000000 0.000000
vt 0.000000 0.000000
vt 0.000000 0.000000
vt 0.000000 0.000000
vt 0.000000 0.000000
vt 0.000000 0.000000
vt 0.000000 0.000000
vt 0.000000 0.000000
vt 0.000000 0.000000
vt 0.000000 0.000000
vt 0.000000 0.000000
vt 0.000000 0.000000
vt 0.000000 0.000000
vt 0.000000 0.000000
vt 0.000000 0.000000
vt 0.000000 0.000000
vt 0.000000 0.000000
vt 0.000000 0.000000
vt 0.000000 0.000000
vt 0.000000 0.000000
vt 0.000000 0.000000
vt 0.000000 0.000000
vt 0.000000 0.000000
vt 0.000000 0.000000
vt 0.000000 0.000000
vt 0.000000 0.000000
vt 0.000000 0.000000
vt 0.000000 0.000000
vt 0.000000 0.000000
vt 0.000000 0.000000
vt 0.000000 0.000000
vt 0.000000 0.000000
vt 0.000000 0.000000
vt 0.000000 0.000000
vt 0.000000 0.000000
vt 0.000000 0.000000
vt 0.000000 0.000000
vt 0.000000 0.000000
vt 0.000000 0.000000
vt 0.000000 0.000000
vt 0.000000 0.000000
vt 0.000000 0.000000
vt 0.000000 0.000000
vt 0.000000 0.000000
vt 0.000000 0.000000
vt 0.000000 0.000000
vt 0.000000 0.000000
vt 0.000000 0.000000
vt 0.000000 0.000000
vt 0.000000 0.000000
vt 0.000000 0.000000
vt 0.000000 0.000000
vt 0.000000 0.000000
vt 0.000000 0.000000
vt 0.000000 0.000000
vt 0.000000 0.000000
vt 0.000000 0.000000
vt 0.000000 0.000000
vt 0.000000 0.000000
vt 0.000000 0.000000
vt 0.000000 0.000000
vt 0.000000 0.000000
vt 0.000000 0.000000
vt 0.000000 0.000000
vt 0.000000 0.000000
vt 0.000000 0.000000
vt 0.000000 0.000000
vt 0.000000 0.000000
vt 0.000000 0.000000
vt 0.000000 0.000000
vt 0.000000 0.000000
vt 0.000000 0.000000
vt 0.000000 0.000000
vt 0.000000 0.000000
vt 0.000000 0.000000
vt 0.000000 0.000000
vt 0.000000 0.000000
vt 0.000000 0.000000
vt 0.000000 0.000000
vt 0.000000 0.000000
vt 0.000000 0.000000
vt 0.000000 0.000000
vt 0.000000 0.000000
vt 0.000000 0.000000
vt 0.000000 0.000000
vt 0.000000 0.000000
vt 0.000000 0.000000
vt 0.000000 0.000000
vt 0.000000 0.000000
vt 0.000000 0.000000
vt 0.000000 0.000000
vt 0.000000 0.000000
vt 0.000000 0.000000
vt 0.000000 0.000000
vt 0.000000 0.000000
vt 0.000000 0.000000
vt 0.000000 0.000000
vt 0.000000 0.000000
vt 0.000000 0.000000
vt 0.000000 0.000000
vt 0.000000 0.000000
vt 0.000000 0.000000
vt 0.000000 0.000000
vt 0.000000 0.000000
vt 0.000000 0.000000
vt 0.000000 0.000000
vt 0.000000 0.000000
vt 0.000000 0.000000
vt 0.000000 0.000000
vt 0.000000 0.000000
vt 0.000000 0.000000
vt 0.000000 0.000000
vt 0.000000 0.000000
vt 0.000000 0.000000
vt 0.000000 0.000000
vt 0.000000 0.000000
vt 0.000000 0.000000
vt 0.000000 0.000000
vt 0.000000 0.000000
vt 0.000000 0.000000
vt 0.000000 0.000000
vt 0.000000 0.000000
vt 0.000000 0.000000
vt 0.000000 0.000000
vt 0.000000 0.000000
vt 0.000000 0.000000
vt 0.000000 0.000000
vt 0.000000 0.000000
vt 0.000000 0.000000
vt 0.000000 0.000000
vt 0.000000 0.000000
vt 0.000000 0.000000
vt 0.000000 0.000000
vt 0.000000 0.000000
vt 0.000000 0.000000
vt 0.000000 0.000000
vt 0.000000 0.000000
vt 0.000000 0.000000
vt 0.000000 0.000000
vt 0.000000 0.000000
vt 0.000000 0.000000
vt 0.000000 0.000000
vt 0.000000 0.000000
vt 0.000000 0.000000
vt 0.000000 0.000000
vt 0.000000 0.000000
vt 0.000000 0.000000
vt 0.000000 0.000000
vt 0.000000 0.000000
vt 0.000000 0.000000
vt 0.000000 0.000000
vt 0.000000 0.000000
vt 0.000000 0.000000
vt 0.000000 0.000000
vt 0.000000 0.000000
vt 0.000000 0.000000
vt 0.000000 0.000000
vt 0.000000 0.000000
vt 0.000000 0.000000
vt 0.000000 0.000000
vt 0.000000 0.000000
vt 0.000000 0.000000
vt 0.000000 0.000000
vt 0.000000 0.000000
vt 0.000000 0.000000
vt 0.000000 0.000000
vt 0.000000 0.000000
vt 0.000000 0.000000
vt 0.000000 0.000000
vt 0.000000 0.000000
vt 0.000000 0.000000
vt 0.000000 0.000000
vt 0.000000 0.000000
vt 0.000000 0.000000
vt 0.000000 0.000000
vt 0.000000 0.000000
vt 0.000000 0.000000
vt 0.000000 0.000000
vt 0.000000 0.000000
vt 0.000000 0.000000
vt 0.000000 0.000000
vt 0.000000 0.000000
vt 0.000000 0.000000
vt 0.000000 0.000000
vt 0.000000 0.000000
vt 0.000000 0.000000
vt 0.000000 0.000000
vt 0.000000 0.000000
vt 0.000000 0.000000
vt 0.000000 0.000000
vt 0.000000 0.000000
vt 0.000000 0.000000
vt 0.000000 0.000000
vt 0.000000 0.000000
vt 0.000000 0.000000
vt 0.000000 0.000000
vt 0.000000 0.000000
vt 0.000000 0.000000
vt 0.000000 0.000000
vt 0.000000 0.000000
vt 0.000000 0.000000
vt 0.000000 0.000000
vt 0.000000 0.000000
vt 0.000000 0.000000
vt 0.000000 0.000000
vt 0.000000 0.000000
vt 0.000000 0.000000
vt 0.000000 0.000000
vt 0.000000 0.000000
vt 0.000000 0.000000
vt 0.000000 0.000000
vt 0.000000 0.000000
vt 0.000000 0.000000
vt 0.000000 0.000000
vt 0.000000 0.000000
vt 0.000000 0.000000
vt 0.000000 0.000000
vt 0.000000 0.000000
vt 0.000000 0.000000
vt 0.000000 0.000000
vt 0.000000 0.000000
vt 0.000000 0.000000
vt 0.000000 0.000000
vt 0.000000 0.000000
vt 0.000000 0.000000
vt 0.000000 0.000000
vt 0.000000 0.000000
vt 0.000000 0.000000
vt 0.000000 0.000000
vt 0.000000 0.000000
vt 0.000000 0.000000
vt 0.000000 0.000000
vt 0.000000 0.000000
vt 0.000000 0.000000
vt 0.000000 0.000000
vt 0.000000 0.000000
vt 0.000000 0.000000
vt 0.000000 0.000000
vt 0.000000 0.000000
vt 0.000000 0.000000
vt 0.000000 0.000000
vt 0.000000 0.000000
vt 0.000000 0.000000
vt 0.000000 0.000000
vt 0.000000 0.000000
vt 0.000000 0.000000
vt 0.000000 0.000000
vt 0.000000 0.000000
vt 0.000000 0.000000
vt 0.000000 0.000000
vt 0.000000 0.000000
vt 0.000000 0.000000
vt 0.000000 0.000000
vt 0.000000 0.000000
vt 0.000000 0.000000
vt 0.000000 0.000000
vt 0.000000 0.000000
vt 0.000000 0.000000
vt 0.000000 0.000000
vt 0.000000 0.000000
vt 0.000000 0.000000
vt 0.000000 0.000000
vt 0.000000 0.000000
vt 0.000000 0.000000
vt 0.000000 0.000000
vt 0.000000 0.000000
vt 0.000000 0.000000
vt 0.000000 0.000000
vt 0.000000 0.000000
vt 0.000000 0.000000
vt 0.000000 0.000000
vt 0.000000 0.000000
vt 0.000000 0.000000
vt 0.000000 0.000000
vt 0.000000 0.000000
vt 0.000000 0.000000
vt 0.000000 0.000000
vt 0.000000 0.000000
vt 0.000000 0.000000
vt 0.000000 0.000000
vt 0.000000 0.000000
vt 0.000000 0.000000
vt 0.000000 0.000000
vt 0.000000 0.000000
vt 0.000000 0.000000
vt 0.000000 0.000000
vt 0.000000 0.000000
vt 0.000000 0.000000
vt 0.000000 0.000000
vt 0.000000 0.000000
vt 0.000000 0.000000
vt 0.000000 0.000000
vt 0.000000 0.000000
vt 0.000000 0.000000
vt 0.000000 0.000000
vt 0.000000 0.000000
vt 0.000000 0.000000
vt 0.000000 0.000000
vt 0.000000 0.000000
vt 0.000000 0.000000
vt 0.000000 0.000000
vt 0.000000 0.000000
vt 0.000000 0.000000
vt 0.000000 0.000000
vt 0.000000 0.000000
vt 0.000000 0.000000
vt 0.000000 0.000000
vt 0.000000 0.000000
vt 0.000000 0.000000
vt 0.000000 0.000000
vt 0.000000 0.000000
vt 0.000000 0.000000
vt 0.000000 0.000000
vt 0.000000 0.000000
vt 0.000000 0.000000
vt 0.000000 0.000000
vt 0.000000 0.000000
vt 0.000000 0.000000
vt 0.000000 0.000000
vt 0.000000 0.000000
vt 0.000000 0.000000
vt 0.000000 0.000000
vt 0.000000 0.000000
vt 0.000000 0.000000
vt 0.000000 0.000000
vt 0.000000 0.000000
vt 0.000000 0.000000
vt 0.000000 0.000000
vt 0.000000 0.000000
vt 0.000000 0.000000
vt 0.000000 0.000000
vt 0.000000 0.000000
vt 0.000000 0.000000
vt 0.000000 0.000000
vt 0.000000 0.000000
vt 0.000000 0.000000
vt 0.000000 0.000000
vt 0.000000 0.000000
vt 0.000000 0.000000
vt 0.000000 0.000000
vt 0.000000 0.000000
vt 0.000000 0.000000
vt 0.000000 0.000000
vt 0.000000 0.000000
vt 0.000000 0.000000
vt 0.000000 0.000000
vt 0.000000 0.000000
vt 0.000000 0.000000
vt 0.000000 0.000000
vt 0.000000 0.000000
vt 0.000000 0.000000
vt 0.000000 0.000000
vt 0.000000 0.000000
vt 0.000000 0.000000
vt 0.000000 0.000000
vt 0.000000 0.000000
vt 0.000000 0.000000
vt 0.000000 0.000000
vt 0.000000 0.000000
vt 0.000000 0.000000
vt 0.000000 0.000000
vt 0.000000 0.000000
vt 0.000000 0.000000
vt 0.000000 0.000000
vt 0.000000 0.000000
vt 0.000000 0.000000
vt 0.000000 0.000000
vt 0.000000 0.000000
vt 0.000000 0.000000
vt 0.000000 0.000000
vt 0.000000 0.000000
vt 0.000000 0.000000
vt 0.000000 0.000000
vt 0.000000 0.000000
vt 0.000000 0.000000
vt 0.000000 0.000000
vt 0.000000 0.000000
vt 0.000000 0.000000
vt 0.000000 0.000000
vt 0.000000 0.000000
vt 0.000000 0.000000
vt 0.000000 0.000000
vt 0.000000 0.000000
vt 0.000000 0.000000
vt 0.000000 0.000000
vt 0.000000 0.000000
vt 0.000000 0.000000
vt 0.000000 0.000000
vt 0.000000 0.000000
vt 0.000000 0.000000
vt 0.000000 0.000000
vt 0.000000 0.000000
vt 0.000000 0.000000
vt 0.000000 0.000000
vt 0.000000 0.000000
vt 0.000000 0.000000
vt 0.000000 0.000000
vt 0.000000 0.000000
vt 0.000000 0.000000
vt 0.000000 0.000000
vt 0.000000 0.000000
vt 0.000000 0.000000
vt 0.000000 0.000000
vt 0.000000 0.000000
vt 0.000000 0.000000
vt 0.000000 0.000000
vt 0.000000 0.000000
vt 0.000000 0.000000
vt 0.000000 0.000000
vt 0.000000 0.000000
vt 0.000000 0.000000
vt 0.000000 0.000000
vt 0.000000 0.000000
vt 0.000000 0.000000
vt 0.000000 0.000000
vt 0.000000 0.000000
vt 0.000000 0.000000
vt 0.000000 0.000000
vt 0.000000 0.000000
vt 0.000000 0.000000
vt 0.000000 0.000000
vt 0.000000 0.000000
vt 0.000000 0.000000
vt 0.000000 0.000000
vt 0.000000 0.000000
vt 0.000000 0.000000
vt 0.000000 0.000000
vt 0.000000 0.000000
vt 0.000000 0.000000
vt 0.000000 0.000000
vt 0.000000 0.000000
vt 0.000000 0.000000
vt 0.000000 0.000000
vt 0.000000 0.000000
vt 0.000000 0.000000
vt 0.000000 0.000000
vt 0.000000 0.000000
vt 0.000000 0.000000
vt 0.000000 0.000000
vt 0.000000 0.000000
vt 0.000000 0.000000
vt 0.000000 0.000000
vt 0.000000 0.000000
vt 0.000000 0.000000
vt 0.000000 0.000000
vt 0.000000 0.000000
vt 0.000000 0.000000
vt 0.000000 0.000000
vt 0.000000 0.000000
vt 0.000000 0.000000
vt 0.000000 0.000000
vt 0.000000 0.000000
vt 0.000000 0.000000
vt 0.000000 0.000000
vt 0.000000 0.000000
vt 0.000000 0.000000
vt 0.000000 0.000000
vt 0.000000 0.000000
vt 0.000000 0.000000
vt 0.000000 0.000000
vt 0.000000 0.000000
vt 0.000000 0.000000
vt 0.000000 0.000000
vt 0.000000 0.000000
vt 0.000000 0.000000
vt 0.000000 0.000000
vt 0.000000 0.000000
vt 0.000000 0.000000
vt 0.000000 0.000000
vt 0.000000 0.000000
vt 0.000000 0.000000
vt 0.000000 0.000000
vt 0.000000 0.000000
vt 0.000000 0.000000
vt 0.000000 0.000000
vt 0.000000 0.000000
vt 0.000000 0.000000
vt 0.000000 0.000000
vt 0.000000 0.000000
vt 0.000000 0.000000
vt 0.000000 0.000000
vt 0.000000 0.000000
vt 0.000000 0.000000
vt 0.000000 0.000000
vt 0.000000 0.000000
vt 0.000000 0.000000
vt 0.000000 0.000000
vt 0.000000 0.000000
vt 0.000000 0.000000
vt 0.000000 0.000000
vt 0.000000 0.000000
vt 0.000000 0.000000
vt 0.000000 0.000000
vt 0.000000 0.000000
vt 0.000000 0.000000
vt 0.000000 0.000000
vt 0.000000 0.000000
vt 0.000000 0.000000
vt 0.000000 0.000000
vt 0.000000 0.000000
vt 0.000000 0.000000
vt 0.000000 0.000000
vt 0.000000 0.000000
vt 0.000000 0.000000
vt 0.000000 0.000000
vt 0.000000 0.000000
vt 0.000000 0.000000
vt 0.000000 0.000000
vt 0.000000 0.000000
vt 0.000000 0.000000
vt 0.000000 0.000000
vt 0.000000 0.000000
vt 0.000000 0.000000
vt 0.000000 0.000000
vt 0.000000 0.000000
vt 0.000000 0.000000
vt 0.000000 0.000000
vt 0.000000 0.000000
vt 0.000000 0.000000
vt 0.000000 0.000000
vt 0.000000 0.000000
vt 0.000000 0.000000
vt 0.000000 0.000000
vt 0.000000 0.000000
vt 0.000000 0.000000
vt 0.000000 0.000000
vt 0.000000 0.000000
vt 0.000000 0.000000
vt 0.000000 0.000000
vt 0.000000 0.000000
vt 0.000000 0.000000
vt 0.000000 0.000000
vt 0.000000 0.000000
vt 0.000000 0.000000
vt 0.000000 0.000000
vt 0.000000 0.000000
vt 0.000000 0.000000
vt 0.000000 0.000000
vt 0.000000 0.000000
vt 0.000000 0.000000
vt 0.000000 0.000000
vt 0.000000 0.000000
vt 0.000000 0.000000
vt 0.000000 0.000000
vt 0.000000 0.000000
vt 0.000000 0.000000
vt 0.000000 0.000000
vt 0.000000 0.000000
vt 0.000000 0.000000
vt 0.000000 0.000000
vt 0.000000 0.000000
vt 0.000000 0.000000
vt 0.000000 0.000000
vt 0.000000 0.000000
vt 0.000000 0.000000
vt 0.000000 0.000000
vt 0.000000 0.000000
vt 0.000000 0.000000
vt 0.000000 0.000000
vt 0.000000 0.000000
vt 0.000000 0.000000
vt 0.000000 0.000000
vt 0.000000 0.000000
vt 0.000000 0.000000
vt 0.000000 0.000000
vt 0.000000 0.000000
vt 0.000000 0.000000
vt 0.000000 0.000000
vt 0.000000 0.000000
vt 0.000000 0.000000
vt 0.000000 0.000000
vt 0.000000 0.000000
vt 0.000000 0.000000
vt 0.000000 0.000000
vt 0.000000 0.000000
vt 0.000000 0.000000
vt 0.000000 0.000000
vt 0.000000 0.000000
vt 0.000000 0.000000
vt 0.000000 0.000000
vt 0.000000 0.000000
vt 0.000000 0.000000
vt 0.000000 0.000000
vt 0.000000 0.000000
vt 0.000000 0.000000
vt 0.000000 0.000000
vt 0.000000 0.000000
vt 0.000000 0.000000
vt 0.000000 0.000000
vt 0.000000 0.000000
vt 0.000000 0.000000
vt 0.000000 0.000000
vt 0.000000 0.000000
vt 0.000000 0.000000
vt 0.000000 0.000000
vt 0.000000 0.000000
vt 0.000000 0.000000
vt 0.000000 0.000000
vt 0.000000 0.000000
vt 0.000000 0.000000
vt 0.000000 0.000000
vt 0.000000 0.000000
vt 0.000000 0.000000
vt 0.000000 0.000000
vt 0.000000 0.000000
vt 0.000000 0.000000
vt 0.000000 0.000000
vt 0.000000 0.000000
vt 0.000000 0.000000
vt 0.000000 0.000000
vt 0.000000 0.000000
vt 0.000000 0.000000
vt 0.000000 0.000000
vt 0.000000 0.000000
vt 0.000000 0.000000
vt 0.000000 0.000000
vt 0.000000 0.000000
vt 0.000000 0.000000
vt 0.000000 0.000000
vt 0.000000 0.000000
vt 0.000000 0.000000
vt 0.000000 0.000000
vt 0.000000 0.000000
vt 0.000000 0.000000
vt 0.000000 0.000000
vt 0.000000 0.000000
vt 0.000000 0.000000
vt 0.000000 0.000000
vt 0.000000 0.000000
vt 0.000000 0.000000
vt 0.000000 0.000000
vt 0.000000 0.000000
vt 0.000000 0.000000
vt 0.000000 0.000000
vt 0.000000 0.000000
vt 0.000000 0.000000
vt 0.000000 0.000000
vt 0.000000 0.000000
vt 0.000000 0.000000
vt 0.000000 0.000000
vt 0.000000 0.000000
vt 0.000000 0.000000
vt 0.000000 0.000000
vt 0.000000 0.000000
vt 0.000000 0.000000
vt 0.000000 0.000000
vt 0.000000 0.000000
vt 0.000000 0.000000
vt 0.000000 0.000000
vt 0.000000 0.000000
vt 0.000000 0.000000
vt 0.000000 0.000000
vt 0.000000 0.000000
vt 0.000000 0.000000
vt 0.000000 0.000000
vt 0.000000 0.000000
vt 0.000000 0.000000
vt 0.000000 0.000000
vt 0.000000 0.000000
vt 0.000000 0.000000
vt 0.000000 0.000000
vt 0.000000 0.000000
vt 0.000000 0.000000
vt 0.000000 0.000000
vt 0.000000 0.000000
vt 0.000000 0.000000
vt 0.000000 0.000000
vt 0.000000 0.000000
vt 0.000000 0.000000
vt 0.000000 0.000000
vt 0.000000 0.000000
vt 0.000000 0.000000
vt 0.000000 0.000000
vt 0.000000 0.000000
vt 0.000000 0.000000
vt 0.000000 0.000000
vt 0.000000 0.000000
vt 0.000000 0.000000
vt 0.000000 0.000000
vt 0.000000 0.000000
vt 0.000000 0.000000
vt 0.000000 0.000000
vt 0.000000 0.000000
vt 0.000000 0.000000
vt 0.000000 0.000000
vt 0.000000 0.000000
vt 0.000000 0.000000
vt 0.000000 0.000000
vt 0.000000 0.000000
vt 0.000000 0.000000
vt 0.000000 0.000000
vt 0.000000 0.000000
vt 0.000000 0.000000
vt 0.000000 0.000000
vt 0.000000 0.000000
vt 0.000000 0.000000
vt 0.000000 0.000000
vt 0.000000 0.000000
vt 0.000000 0.000000
vt 0.000000 0.000000
vt 0.000000 0.000000
vt 0.000000 0.000000
vt 0.000000 0.000000
vt 0.000000 0.000000
vt 0.000000 0.000000
vt 0.000000 0.000000
vt 0.000000 0.000000
vt 0.000000 0.000000
vt 0.000000 0.000000
vt 0.000000 0.000000
vt 0.000000 0.000000
vt 0.000000 0.000000
vt 0.000000 0.000000
vt 0.000000 0.000000
vt 0.000000 0.000000
vt 0.000000 0.000000
vt 0.000000 0.000000
vt 0.000000 0.000000
vt 0.000000 0.000000
vt 0.000000 0.000000
vt 0.000000 0.000000
vt 0.000000 0.000000
vt 0.000000 0.000000
vt 0.000000 0.000000
vt 0.000000 0.000000
vt 0.000000 0.000000
vt 0.000000 0.000000
vt 0.000000 0.000000
vt 0.000000 0.000000
vt 0.000000 0.000000
vt 0.000000 0.000000
vt 0.000000 0.000000
vt 0.000000 0.000000
vt 0.000000 0.000000
vt 0.000000 0.000000
vt 0.000000 0.000000
vt 0.000000 0.000000
vt 0.000000 0.000000
vt 0.000000 0.000000
vt 0.000000 0.000000
vt 0.000000 0.000000
vt 0.000000 0.000000
vt 0.000000 0.000000
vt 0.000000 0.000000
vt 0.000000 0.000000
vt 0.000000 0.000000
vt 0.000000 0.000000
vt 0.000000 0.000000
vt 0.000000 0.000000
vt 0.000000 0.000000
vt 0.000000 0.000000
vt 0.000000 0.000000
vt 0.000000 0.000000
vt 0.000000 0.000000
vt 0.000000 0.000000
vt 0.000000 0.000000
vt 0.000000 0.000000
vt 0.000000 0.000000
vt 0.000000 0.000000
vt 0.000000 0.000000
vt 0.000000 0.000000
vt 0.000000 0.000000
vt 0.000000 0.000000
vt 0.000000 0.000000
vt 0.000000 0.000000
vt 0.000000 0.000000
vt 0.000000 0.000000
vt 0.000000 0.000000
vt 0.000000 0.000000
vt 0.000000 0.000000
vt 0.000000 0.000000
vt 0.000000 0.000000
vt 0.000000 0.000000
vt 0.000000 0.000000
vt 0.000000 0.000000
vt 0.000000 0.000000
vt 0.000000 0.000000
vt 0.000000 0.000000
vt 0.000000 0.000000
vt 0.000000 0.000000
vt 0.000000 0.000000
vt 0.000000 0.000000
vt 0.000000 0.000000
f 1/1 2/2 3/3
f 3/4 4/5 1/6
f 5/7 1/8 4/9
f 4/10 6/11 5/12
f 7/13 5/14 6/15
f 6/16 8/17 7/18
f 9/19 7/20 8/21
f 8/22 10/23 9/24
f 11/25 9/26 10/27
f 10/28 12/29 11/30
f 13/31 11/32 12/33
f 12/34 14/35 13/36
f 15/37 13/38 14/39
f 14/40 16/41 15/42
f 17/43 15/44 16/45
f 16/46 18/47 17/48
f 19/49 17/50 18/51
f 18/52 20/53 19/54
f 21/55 19/56 20/57
f 20/58 22/59 21/60
f 23/61 21/62 22/63
f 22/64 24/65 23/66
f 25/67 23/68 24/69
f 24/70 26/71 25/72
f 27/73 25/74 26/75
f 26/76 28/77 27/78
f 2/79 27/80 28/81
f 28/82 3/83 2/84
f 29/85 30/86 31/87
f 31/88 32/89 29/90
f 33/91 29/92 32/93
f 32/94 34/95 33/96
f 35/97 33/98 34/99
f 34/100 36/101 35/102
f 37/103 35/104 36/105
f 36/106 38/107 37/108
f 39/109 37/110 38/111
f 38/112 40/113 39/114
f 41/115 39/116 40/117
f 40/118 42/119 41/120
f 43/121 41/122 42/123
f 42/124 44/125 43/126
f 45/127 43/128 44/129
f 44/130 46/131 45/132
f 47/133 45/134 46/135
f 46/136 48/137 47/138
f 49/139 47/140 48/141
f 48/142 50/143 49/144
f 51/145 49/146 50/147
f 50/148 52/149 51/150
f 53/151 51/152 52/153
f 52/154 54/155 53/156
f 55/157 53/158 54/159
f 54/160 56/161 55/162
f 57/163 55/164 56/165
f 56/166 58/167 57/168
f 59/169 57/170 58/171
f 58/172 60/173 59/174
f 30/175 59/176 60/177
f 60/178 31/179 30/180
f 61/181 62/182 63/183
f 63/184 64/185 61/186
f 65/187 61/188 64/189
f 64/190 66/191 65/192
f 67/193 65/194 66/195
f 66/196 68/197 67/198
f 69/199 67/200 68/201
f 68/202 70/203 69/204
f 71/205 69/206 70/207
f 70/208 72/209 71/210
f 73/211 71/212 72/213
f 72/214 74/215 73/216
f 75/217 73/218 74/219
f 74/220 76/221 75/222
f 77/223 75/224 76/225
f 76/226 78/227 77/228
f 79/229 77/230 78/231
f 78/232 80/233 79/234
f 81/235 79/236 80/237
f 80/238 82/239 81/240
f 83/241 81/242 82/243
f 82/244 84/245 83/246
f 85/247 83/248 84/249
f 84/250 86/251 85/252
f 87/253 85/254 86/255
f 86/256 88/257 87/258
f 89/259 87/260 88/261
f 88/262 90/263 89/264
f 91/265 89/266 90/267
f 90/268 92/269 91/270
f 93/271 91/272 92/273
f 92/274 94/275 93/276
f 95/277 93/278 94/279
f 94/280 96/281 95/282
f 97/283 95/284 96/285
f 96/286 98/287 97/288
f 99/289 97/290 98/291
f 98/292 100/293 99/294
f 101/295 99/296 100/297
f 100/298 102/299 101/300
f 103/301 101/302 102/303
f 102/304 104/305 103/306
f 105/307 103/308 104/309
f 104/310 106/311 105/312
f 107/313 105/314 106/315
f 106/316 108/317 107/318
f 109/319 107/320 108/321
f 108/322 110/323 109/324
f 111/325 109/326 110/327
f 110/328 112/329 111/330
f 113/331 111/332 112/333
f 112/334 114/335 113/336
f 115/337 113/338 114/339
f 114/340 116/341 115/342
f 117/343 115/344 116/345
f 116/346 118/347 117/348
f 119/349 117/350 118/351
f 118/352 120/353 119/354
f 121/355 119/356 120/357
f 120/358 122/359 121/360
f 123/361 121/362 122/363
f 122/364 124/365 123/366
f 125/367 123/368 124/369
f 124/370 126/371 125/372
f 127/373 125/374 126/375
f 126/376 128/377 127/378
f 129/379 127/380 128/381
f 128/382 130/383 129/384
f 131/385 129/386 130/387
f 130/388 132/389 131/390
f 133/391 131/392 132/393
f 132/394 134/395 133/396
f 135/397 133/398 134/399
f 134/400 136/401 135/402
f 137/403 135/404 136/405
f 136/406 138/407 137/408
f 139/409 137/410 138/411
f 138/412 140/413 139/414
f 141/415 139/416 140/417
f 140/418 142/419 141/420
f 143/421 141/422 142/423
f 142/424 144/425 143/426
f 145/427 143/428 144/429
f 144/430 146/431 145/432
f 147/433 145/434 146/435
f 146/436 148/437 147/438
f 149/439 147/440 148/441
f 148/442 150/443 149/444
f 151/445 149/446 150/447
f 150/448 152/449 151/450
f 153/451 151/452 152/453
f 152/454 154/455 153/456
f 155/457 153/458 154/459
f 154/460 156/461 155/462
f 157/463 155/464 156/465
f 156/466 158/467 157/468
f 159/469 157/470 158/471
f 158/472 160/473 159/474
f 161/475 159/476 160/477
f 160/478 162/479 161/480
f 163/481 161/482 162/483
f 162/484 164/485 163/486
f 165/487 163/488 164/489
f 164/490 166/491 165/492
f 167/493 165/494 166/495
f 166/496 168/497 167/498
f 169/499 167/500 168/501
f 168/502 170/503 169/504
f 171/505 169/506 170/507
f 170/508 172/509 171/510
f 173/511 171/512 172/513
f 172/514 174/515 173/516
f 175/517 173/518 174/519
f 174/520 176/521 175/522
f 62/523 175/524 176/525
f 176/526 63/527 62/528
f 177/529 178/530 179/531
f 179/532 180/533 177/534
f 181/535 177/536 180/537
f 180/538 182/539 181/540
f 183/541 181/542 182/543
f 182/544 184/545 183/546
f 185/547 183/548 184/549
f 184/550 186/551 185/552
f 187/553 185/554 186/555
f 186/556 188/557 187/558
f 189/559 187/560 188/561
f 188/562 190/563 189/564
f 191/565 189/566 190/567
f 190/568 192/569 191/570
f 193/571 191/572 192/573
f 192/574 194/575 193/576
f 195/577 193/578 194/579
f 194/580 196/581 195/582
f 197/583 195/584 196/585
f 196/586 198/587 197/588
f 199/589 197/590 198/591
f 198/592 200/593 199/594
f 201/595 199/596 200/597
f 200/598 202/599 201/600
f 203/601 201/602 202/603
f 202/604 204/605 203/606
f 205/607 203/608 204/609
f 204/610 206/611 205/612
f 207/613 205/614 206/615
f 206/616 208/617 207/618
f 209/619 207/620 208/621
f 208/622 210/623 209/624
f 211/625 209/626 210/627
f 210/628 212/629 211/630
f 213/631 211/632 212/633
f 212/634 214/635 213/636
f 215/637 213/638 214/639
f 214/640 216/641 215/642
f 217/643 215/644 216/645
f 216/646 218/647 217/648
f 219/649 217/650 218/651
f 218/652 220/653 219/654
f 221/655 219/656 220/657
f 220/658 222/659 221/660
f 223/661 221/662 222/663
f 222/664 224/665 223/666
f 225/667 223/668 224/669
f 224/670 226/671 225/672
f 227/673 225/674 226/675
f 226/676 228/677 227/678
f 229/679 227/680 228/681
f 228/682 230/683 229/684
f 231/685 229/686 230/687
f 230/688 232/689 231/690
f 233/691 231/692 232/693
f 232/694 234/695 233/696
f 235/697 233/698 234/699
f 234/700 236/701 235/702
f 237/703 235/704 236/705
f 236/706 238/707 237/708
f 239/709 237/710 238/711
f 238/712 240/713 239/714
f 241/715 239/716 240/717
f 240/718 242/719 241/720
f 243/721 241/722 242/723
f 242/724 244/725 243/726
f 245/727 243/728 244/729
f 244/730 246/731 245/732
f 247/733 245/734 246/735
f 246/736 248/737 247/738
f 249/739 247/740 248/741
f 248/742 250/743 249/744
f 251/745 249/746 250/747
f 250/748 252/749 251/750
f 253/751 251/752 252/753
f 252/754 254/755 253/756
f 255/757 253/758 254/759
f 254/760 256/761 255/762
f 257/763 255/764 256/765
f 256/766 258/767 257/768
f 259/769 257/770 258/771
f 258/772 260/773 259/774
f 261/775 259/776 260/777
f 260/778 262/779 261/780
f 263/781 261/782 262/783
f 262/784 264/785 263/786
f 265/787 263/788 264/789
f 264/790 266/791 265/792
f 267/793 265/794 266/795
f 266/796 268/797 267/798
f 269/799 267/800 268/801
f 268/802 270/803 269/804
f 271/805 269/806 270/807
f 270/808 272/809 271/810
f 273/811 271/812 272/813
f 272/814 274/815 273/816
f 275/817 273/818 274/819
f 274/820 276/821 275/822
f 277/823 275/824 276/825
f 276/826 278/827 277/828
f 279/829 277/830 278/831
f 278/832 280/833 279/834
f 281/835 279/836 280/837
f 280/838 282/839 281/840
f 283/841 281/842 282/843
f 282/844 284/845 283/846
f 285/847 283/848 284/849
f 284/850 286/851 285/852
f 287/853 285/854 286/855
f 286/856 288/857 287/858
f 289/859 287/860 288/861
f 288/862 290/863 289/864
f 291/865 289/866 290/867
f 290/868 292/869 291/870
f 293/871 291/872 292/873
f 292/874 294/875 293/876
f 295/877 293/878 294/879
f 294/880 296/881 295/882
f 297/883 295/884 296/885
f 296/886 298/887 297/888
f 299/889 297/890 298/891
f 298/892 300/893 299/894
f 301/895 299/896 300/897
f 300/898 302/899 301/900
f 303/901 301/902 302/903
f 302/904 304/905 303/906
f 305/907 303/908 304/909
f 304/910 306/911 305/912
f 307/913 305/914 306/915
f 306/916 308/917 307/918
f 309/919 307/920 308/921
f 308/922 310/923 309/924
f 311/925 309/926 310/927
f 310/928 312/929 311/930
f 313/931 311/932 312/933
f 312/934 314/935 313/936
f 315/937 313/938 314/939
f 314/940 316/941 315/942
f 317/943 315/944 316/945
f 316/946 318/947 317/948
f 319/949 317/950 318/951
f 318/952 320/953 319/954
f 321/955 319/956 320/957
f 320/958 322/959 321/960
f 323/961 321/962 322/963
f 322/964 324/965 323/966
f 325/967 323/968 324/969
f 324/970 326/971 325/972
f 327/973 325/974 326/975
f 326/976 328/977 327/978
f 329/979 327/980 328/981
f 328/982 330/983 329/984
f 331/985 329/986 330/987
f 330/988 332/989 331/990
f 333/991 331/992 332/993
f 332/994 334/995 333/996
f 335/997 333/998 334/999
f 334/1000 336/1001 335/1002
f 337/1003 335/1004 336/1005
f 336/1006 338/1007 337/1008
f 339/1009 337/1010 338/1011
f 338/1012 340/1013 339/1014
f 341/1015 339/1016 340/1017
f 340/1018 342/1019 341/1020
f 343/1021 341/1022 342/1023
f 342/1024 344/1025 343/1026
f 345/1027 343/1028 344/1029
f 344/1030 346/1031 345/1032
f 178/1033 345/1034 346/1035
f 346/1036 179/1037 178/1038
f 347/1039 348/1040 349/1041
f 349/1042 350/1043 347/1044
f 351/1045 347/1046 350/1047
f 350/1048 352/1049 351/1050
f 353/1051 351/1052 352/1053
f 352/1054 354/1055 353/1056
f 355/1057 353/1058 354/1059
f 354/1060 356/1061 355/1062
f 357/1063 355/1064 356/1065
f 356/1066 358/1067 357/1068
f 359/1069 357/1070 358/1071
f 358/1072 360/1073 359/1074
f 361/1075 359/1076 360/1077
f 360/1078 362/1079 361/1080
f 363/1081 361/1082 362/1083
f 362/1084 364/1085 363/1086
f 365/1087 363/1088 364/1089
f 364/1090 366/1091 365/1092
f 367/1093 365/1094 366/1095
f 366/1096 368/1097 367/1098
f 369/1099 367/1100 368/1101
f 368/1102 370/1103 369/1104
f 371/1105 369/1106 370/1107
f 370/1108 372/1109 371/1110
f 373/1111 371/1112 372/1113
f 372/1114 374/1115 373/1116
f 375/1117 373/1118 374/1119
f 374/1120 376/1121 375/1122
f 377/1123 375/1124 376/1125
f 376/1126 378/1127 377/1128
f 379/1129 377/1130 378/1131
f 378/1132 380/1133 379/1134
f 381/1135 379/1136 380/1137
f 380/1138 382/1139 381/1140
f 383/1141 381/1142 382/1143
f 382/1144 384/1145 383/1146
f 385/1147 383/1148 384/1149
f 384/1150 386/1151 385/1152
f 387/1153 385/1154 386/1155
f 386/1156 388/1157 387/1158
f 389/1159 387/1160 388/1161
f 388/1162 390/1163 389/1164
f 391/1165 389/1166 390/1167
f 390/1168 392/1169 391/1170
f 393/1171 391/1172 392/1173
f 392/1174 394/1175 393/1176
f 395/1177 393/1178 394/1179
f 394/1180 396/1181 395/1182
f 397/1183 395/1184 396/1185
f 396/1186 398/1187 397/1188
f 399/1189 397/1190 398/1191
f 398/1192 400/1193 399/1194
f 401/1195 399/1196 400/1197
f 400/1198 402/1199 401/1200
f 403/1201 401/1202 402/1203
f 402/1204 404/1205 403/1206
f 405/1207 403/1208 404/1209
f 404/1210 406/1211 405/1212
f 407/1213 405/1214 406/1215
f 406/1216 408/1217 407/1218
f 409/1219 407/1220 408/1221
f 408/1222 410/1223 409/1224
f 411/1225 409/1226 410/1227
f 410/1228 412/1229 411/1230
f 413/1231 411/1232 412/1233
f 412/1234 414/1235 413/1236
f 415/1237 413/1238 414/1239
f 414/1240 416/1241 415/1242
f 417/1243 415/1244 416/1245
f 416/1246 418/1247 417/1248
f 419/1249 417/1250 418/1251
f 418/1252 420/1253 419/1254
f 421/1255 419/1256 420/1257
f 420/1258 422/1259 421/1260
f 423/1261 421/1262 422/1263
f 422/1264 424/1265 423/1266
f 425/1267 423/1268 424/1269
f 424/1270 426/1271 425/1272
f 427/1273 425/1274 426/1275
f 426/1276 428/1277 427/1278
f 348/1279 427/1280 428/1281
f 428/1282 349/1283 348/1284
f 429/1285 430/1286 431/1287
f 431/1288 432/1289 429/1290
f 433/1291 429/1292 432/1293
f 432/1294 434/1295 433/1296
f 435/1297 433/1298 434/1299
f 434/1300 436/1301 435/1302
f 430/1303 435/1304 436/1305
f 436/1306 431/1307 430/1308
f 32/1309 31/1310 176/1311
f 32/1312 176/1313 174/1314
f 34/1315 32/1316 174/1317
f 34/1318 174/1319 172/1320
f 36/1321 34/1322 172/1323
f 36/1324 172/1325 170/1326
f 38/1327 36/1328 170/1329
f 38/1330 170/1331 168/1332
f 40/1333 38/1334 168/1335
f 40/1336 168/1337 166/1338
f 42/1339 40/1340 166/1341
f 42/1342 166/1343 164/1344
f 44/1345 42/1346 164/1347
f 44/1348 164/1349 162/1350
f 46/1351 44/1352 162/1353
f 46/1354 162/1355 160/1356
f 48/1357 46/1358 160/1359
f 48/1360 160/1361 158/1362
f 50/1363 48/1364 158/1365
f 50/1366 158/1367 156/1368
f 52/1369 50/1370 156/1371
f 52/1372 156/1373 154/1374
f 54/1375 52/1376 154/1377
f 54/1378 154/1379 152/1380
f 56/1381 54/1382 152/1383
f 56/1384 152/1385 150/1386
f 58/1387 56/1388 150/1389
f 58/1390 150/1391 148/1392
f 142/1393 140/1394 4/1395
f 142/1396 4/1397 3/1398
f 144/1399 142/1400 3/1401
f 144/1402 3/1403 28/1404
f 26/1405 24/1406 22/1407
f 28/1408 26/1409 22/1410
f 144/1411 28/1412 22/1413
f 144/1414 22/1415 20/1416
f 146/1417 144/1418 20/1419
f 18/1420 16/1421 14/1422
f 20/1423 18/1424 14/1425
f 146/1426 20/1427 14/1428
f 148/1429 146/1430 14/1431
f 58/1432 148/1433 14/1434
f 60/1435 58/1436 14/1437
f 14/1438 12/1439 10/1440
f 60/1441 14/1442 10/1443
f 31/1444 60/1445 10/1446
f 31/1447 10/1448 8/1449
f 8/1450 6/1451 4/1452
f 31/1453 8/1454 4/1455
f 176/1456 31/1457 4/1458
f 63/1459 176/1460 4/1461
f 63/1462 4/1463 140/1464
f 63/1465 140/1466 138/1467
f 63/1468 138/1469 136/1470
f 63/1471 136/1472 134/1473
f 64/1474 63/1475 134/1476
f 64/1477 134/1478 132/1479
f 66/1480 64/1481 132/1482
f 68/1483 66/1484 132/1485
f 68/1486 132/1487 130/1488
f 70/1489 68/1490 130/1491
f 72/1492 70/1493 130/1494
f 74/1495 72/1496 130/1497
f 74/1498 130/1499 128/1500
f 76/1501 74/1502 128/1503
f 78/1504 76/1505 128/1506
f 78/1507 128/1508 126/1509
f 78/1510 126/1511 124/1512
f 78/1513 124/1514 122/1515
f 80/1516 78/1517 122/1518
f 80/1519 122/1520 120/1521
f 80/1522 120/1523 118/1524
f 80/1525 118/1526 116/1527
f 82/1528 80/1529 116/1530
f 82/1531 116/1532 114/1533
f 82/1534 114/1535 112/1536
f 82/1537 112/1538 110/1539
f 82/1540 110/1541 108/1542
f 82/1543 108/1544 106/1545
f 82/1546 106/1547 104/1548
f 84/1549 82/1550 104/1551
f 84/1552 104/1553 102/1554
f 84/1555 102/1556 100/1557
f 84/1558 100/1559 98/1560
f 86/1561 84/1562 98/1563
f 86/1564 98/1565 96/1566
f 88/1567 86/1568 96/1569
f 88/1570 96/1571 94/1572
f 90/1573 88/1574 94/1575
f 90/1576 94/1577 92/1578
f 286/1579 284/1580 282/1581
f 230/1582 228/1583 226/1584
f 230/1585 226/1586 224/1587
f 230/1588 224/1589 222/1590
f 232/1591 230/1592 222/1593
f 232/1594 222/1595 220/1596
f 234/1597 232/1598 220/1599
f 234/1600 220/1601 218/1602
f 236/1603 234/1604 218/1605
f 236/1606 218/1607 216/1608
f 236/1609 216/1610 214/1611
f 238/1612 236/1613 214/1614
f 238/1615 214/1616 212/1617
f 240/1618 238/1619 212/1620
f 240/1621 212/1622 210/1623
f 242/1624 240/1625 210/1626
f 242/1627 210/1628 208/1629
f 244/1630 242/1631 208/1632
f 244/1633 208/1634 206/1635
f 246/1636 244/1637 206/1638
f 246/1639 206/1640 204/1641
f 246/1642 204/1643 202/1644
f 248/1645 246/1646 202/1647
f 248/1648 202/1649 200/1650
f 250/1651 248/1652 200/1653
f 250/1654 200/1655 198/1656
f 252/1657 250/1658 198/1659
f 252/1660 198/1661 196/1662
f 252/1663 196/1664 194/1665
f 254/1666 252/1667 194/1668
f 254/1669 194/1670 192/1671
f 254/1672 192/1673 190/1674
f 256/1675 254/1676 190/1677
f 256/1678 190/1679 188/1680
f 256/1681 188/1682 186/1683
f 182/1684 180/1685 179/1686
f 182/1687 179/1688 346/1689
f 184/1690 182/1691 346/1692
f 344/1693 342/1694 340/1695
f 346/1696 344/1697 340/1698
f 346/1699 340/1700 338/1701
f 336/1702 334/1703 332/1704
f 336/1705 332/1706 330/1707
f 338/1708 336/1709 330/1710
f 346/1711 338/1712 330/1713
f 346/1714 330/1715 328/1716
f 184/1717 346/1718 328/1719
f 186/1720 184/1721 328/1722
f 186/1723 328/1724 326/1725
f 256/1726 186/1727 326/1728
f 256/1729 326/1730 324/1731
f 258/1732 256/1733 324/1734
f 258/1735 324/1736 322/1737
f 260/1738 258/1739 322/1740
f 260/1741 322/1742 320/1743
f 262/1744 260/1745 320/1746
f 264/1747 262/1748 320/1749
f 264/1750 320/1751 318/1752
f 266/1753 264/1754 318/1755
f 266/1756 318/1757 316/1758
f 268/1759 266/1760 316/1761
f 268/1762 316/1763 314/1764
f 270/1765 268/1766 314/1767
f 270/1768 314/1769 312/1770
f 272/1771 270/1772 312/1773
f 272/1774 312/1775 310/1776
f 274/1777 272/1778 310/1779
f 274/1780 310/1781 308/1782
f 276/1783 274/1784 308/1785
f 278/1786 276/1787 308/1788
f 278/1789 308/1790 306/1791
f 280/1792 278/1793 306/1794
f 280/1795 306/1796 304/1797
f 282/1798 280/1799 304/1800
f 286/1801 282/1802 304/1803
f 288/1804 286/1805 304/1806
f 290/1807 288/1808 304/1809
f 290/1810 304/1811 302/1812
f 292/1813 290/1814 302/1815
f 294/1816 292/1817 302/1818
f 296/1819 294/1820 302/1821
f 296/1822 302/1823 300/1824
f 296/1825 300/1826 298/1827
f 412/1828 410/1829 408/1830
f 414/1831 412/1832 408/1833
f 416/1834 414/1835 408/1836
f 418/1837 416/1838 408/1839
f 420/1840 418/1841 408/1842
f 422/1843 420/1844 408/1845
f 404/1846 402/1847 400/1848
f 406/1849 404/1850 400/1851
f 400/1852 398/1853 396/1854
f 396/1855 394/1856 436/1857
f 400/1858 396/1859 436/1860
f 400/1861 436/1862 434/1863
f 406/1864 400/1865 434/1866
f 406/1867 434/1868 432/1869
f 408/1870 406/1871 432/1872
f 422/1873 408/1874 432/1875
f 424/1876 422/1877 432/1878
f 426/1879 424/1880 432/1881
f 428/1882 426/1883 432/1884
f 428/1885 432/1886 431/1887
f 349/1888 428/1889 431/1890
f 350/1891 349/1892 431/1893
f 352/1894 350/1895 431/1896
f 352/1897 431/1898 436/1899
f 354/1900 352/1901 436/1902
f 354/1903 436/1904 394/1905
f 354/1906 394/1907 392/1908
f 356/1909 354/1910 392/1911
f 378/1912 376/1913 374/1914
f 380/1915 378/1916 374/1917
f 382/1918 380/1919 374/1920
f 384/1921 382/1922 374/1923
f 386/1924 384/1925 374/1926
f 388/1927 386/1928 374/1929
f 390/1930 388/1931 374/1932
f 390/1933 374/1934 372/1935
f 392/1936 390/1937 372/1938
f 370/1939 368/1940 366/1941
f 372/1942 370/1943 366/1944
f 372/1945 366/1946 364/1947
f 392/1948 372/1949 364/1950
f 356/1951 392/1952 364/1953
f 356/1954 364/1955 362/1956
f 358/1957 356/1958 362/1959
f 358/1960 362/1961 360/1962
f 89/1963 91/1964 93/1965
f 1/1966 5/1967 7/1968
f 9/1969 11/1970 13/1971
f 13/1972 15/1973 17/1974
f 13/1975 17/1976 19/1977
f 21/1978 23/1979 25/1980
f 21/1981 25/1982 27/1983
f 1/1984 139/1985 141/1986
f 2/1987 1/1988 141/1989
f 2/1990 141/1991 143/1992
f 27/1993 2/1994 143/1995
f 21/1996 27/1997 143/1998
f 19/1999 21/2000 143/2001
f 19/2002 143/2003 145/2004
f 13/2005 19/2006 145/2007
f 13/2008 145/2009 147/2010
f 175/2011 30/2012 29/2013
f 173/2014 175/2015 29/2016
f 173/2017 29/2018 33/2019
f 171/2020 173/2021 33/2022
f 171/2023 33/2024 35/2025
f 169/2026 171/2027 35/2028
f 169/2029 35/2030 37/2031
f 167/2032 169/2033 37/2034
f 167/2035 37/2036 39/2037
f 165/2038 167/2039 39/2040
f 165/2041 39/2042 41/2043
f 163/2044 165/2045 41/2046
f 163/2047 41/2048 43/2049
f 161/2050 163/2051 43/2052
f 161/2053 43/2054 45/2055
f 159/2056 161/2057 45/2058
f 159/2059 45/2060 47/2061
f 157/2062 159/2063 47/2064
f 157/2065 47/2066 49/2067
f 155/2068 157/2069 49/2070
f 155/2071 49/2072 51/2073
f 153/2074 155/2075 51/2076
f 153/2077 51/2078 53/2079
f 151/2080 153/2081 53/2082
f 151/2083 53/2084 55/2085
f 149/2086 151/2087 55/2088
f 149/2089 55/2090 57/2091
f 147/2092 149/2093 57/2094
f 13/2095 147/2096 57/2097
f 13/2098 57/2099 59/2100
f 9/2101 13/2102 59/2103
f 9/2104 59/2105 30/2106
f 7/2107 9/2108 30/2109
f 1/2110 7/2111 30/2112
f 1/2113 30/2114 175/2115
f 1/2116 175/2117 62/2118
f 139/2119 1/2120 62/2121
f 137/2122 139/2123 62/2124
f 135/2125 137/2126 62/2127
f 133/2128 135/2129 62/2130
f 133/2131 62/2132 61/2133
f 131/2134 133/2135 61/2136
f 131/2137 61/2138 65/2139
f 131/2140 65/2141 67/2142
f 129/2143 131/2144 67/2145
f 129/2146 67/2147 69/2148
f 129/2149 69/2150 71/2151
f 129/2152 71/2153 73/2154
f 127/2155 129/2156 73/2157
f 127/2158 73/2159 75/2160
f 127/2161 75/2162 77/2163
f 125/2164 127/2165 77/2166
f 123/2167 125/2168 77/2169
f 121/2170 123/2171 77/2172
f 121/2173 77/2174 79/2175
f 119/2176 121/2177 79/2178
f 117/2179 119/2180 79/2181
f 115/2182 117/2183 79/2184
f 115/2185 79/2186 81/2187
f 113/2188 115/2189 81/2190
f 111/2191 113/2192 81/2193
f 109/2194 111/2195 81/2196
f 107/2197 109/2198 81/2199
f 105/2200 107/2201 81/2202
f 103/2203 105/2204 81/2205
f 103/2206 81/2207 83/2208
f 101/2209 103/2210 83/2211
f 99/2212 101/2213 83/2214
f 97/2215 99/2216 83/2217
f 97/2218 83/2219 85/2220
f 95/2221 97/2222 85/2223
f 95/2224 85/2225 87/2226
f 93/2227 95/2228 87/2229
f 89/2230 93/2231 87/2232
f 295/2233 297/2234 299/2235
f 295/2236 299/2237 301/2238
f 331/2239 333/2240 335/2241
f 329/2242 331/2243 335/2244
f 329/2245 335/2246 337/2247
f 339/2248 341/2249 343/2250
f 339/2251 343/2252 345/2253
f 337/2254 339/2255 345/2256
f 329/2257 337/2258 345/2259
f 327/2260 329/2261 345/2262
f 178/2263 177/2264 181/2265
f 345/2266 178/2267 181/2268
f 345/2269 181/2270 183/2271
f 327/2272 345/2273 183/2274
f 327/2275 183/2276 185/2277
f 325/2278 327/2279 185/2280
f 225/2281 227/2282 229/2283
f 223/2284 225/2285 229/2286
f 221/2287 223/2288 229/2289
f 221/2290 229/2291 231/2292
f 219/2293 221/2294 231/2295
f 219/2296 231/2297 233/2298
f 217/2299 219/2300 233/2301
f 217/2302 233/2303 235/2304
f 215/2305 217/2306 235/2307
f 213/2308 215/2309 235/2310
f 213/2311 235/2312 237/2313
f 211/2314 213/2315 237/2316
f 211/2317 237/2318 239/2319
f 209/2320 211/2321 239/2322
f 209/2323 239/2324 241/2325
f 207/2326 209/2327 241/2328
f 207/2329 241/2330 243/2331
f 205/2332 207/2333 243/2334
f 205/2335 243/2336 245/2337
f 203/2338 205/2339 245/2340
f 201/2341 203/2342 245/2343
f 201/2344 245/2345 247/2346
f 199/2347 201/2348 247/2349
f 199/2350 247/2351 249/2352
f 197/2353 199/2354 249/2355
f 197/2356 249/2357 251/2358
f 195/2359 197/2360 251/2361
f 193/2362 195/2363 251/2364
f 193/2365 251/2366 253/2367
f 191/2368 193/2369 253/2370
f 189/2371 191/2372 253/2373
f 189/2374 253/2375 255/2376
f 187/2377 189/2378 255/2379
f 185/2380 187/2381 255/2382
f 325/2383 185/2384 255/2385
f 323/2386 325/2387 255/2388
f 323/2389 255/2390 257/2391
f 321/2392 323/2393 257/2394
f 321/2395 257/2396 259/2397
f 319/2398 321/2399 259/2400
f 319/2401 259/2402 261/2403
f 319/2404 261/2405 263/2406
f 317/2407 319/2408 263/2409
f 317/2410 263/2411 265/2412
f 315/2413 317/2414 265/2415
f 315/2416 265/2417 267/2418
f 313/2419 315/2420 267/2421
f 313/2422 267/2423 269/2424
f 311/2425 313/2426 269/2427
f 311/2428 269/2429 271/2430
f 309/2431 311/2432 271/2433
f 309/2434 271/2435 273/2436
f 307/2437 309/2438 273/2439
f 307/2440 273/2441 275/2442
f 307/2443 275/2444 277/2445
f 305/2446 307/2447 277/2448
f 305/2449 277/2450 279/2451
f 303/2452 305/2453 279/2454
f 303/2455 279/2456 281/2457
f 281/2458 283/2459 285/2460
f 303/2461 281/2462 285/2463
f 303/2464 285/2465 287/2466
f 303/2467 287/2468 289/2469
f 301/2470 303/2471 289/2472
f 301/2473 289/2474 291/2475
f 301/2476 291/2477 293/2478
f 295/2479 301/2480 293/2481
f 357/2482 359/2483 361/2484
f 365/2485 367/2486 369/2487
f 365/2488 369/2489 371/2490
f 363/2491 365/2492 371/2493
f 373/2494 375/2495 377/2496
f 373/2497 377/2498 379/2499
f 373/2500 379/2501 381/2502
f 373/2503 381/2504 383/2505
f 373/2506 383/2507 385/2508
f 373/2509 385/2510 387/2511
f 373/2512 387/2513 389/2514
f 371/2515 373/2516 389/2517
f 371/2518 389/2519 391/2520
f 363/2521 371/2522 391/2523
f 435/2524 393/2525 395/2526
f 395/2527 397/2528 399/2529
f 435/2530 395/2531 399/2532
f 433/2533 435/2534 399/2535
f 399/2536 401/2537 403/2538
f 399/2539 403/2540 405/2541
f 433/2542 399/2543 405/2544
f 429/2545 433/2546 405/2547
f 429/2548 405/2549 407/2550
f 407/2551 409/2552 411/2553
f 407/2554 411/2555 413/2556
f 407/2557 413/2558 415/2559
f 407/2560 415/2561 417/2562
f 407/2563 417/2564 419/2565
f 407/2566 419/2567 421/2568
f 429/2569 407/2570 421/2571
f 429/2572 421/2573 423/2574
f 429/2575 423/2576 425/2577
f 429/2578 425/2579 427/2580
f 430/2581 429/2582 427/2583
f 430/2584 427/2585 348/2586
f 430/2587 348/2588 347/2589
f 430/2590 347/2591 351/2592
f 435/2593 430/2594 351/2595
f 435/2596 351/2597 353/2598
f 393/2599 435/2600 353/2601
f 391/2602 393/2603 353/2604
f 391/2605 353/2606 355/2607
f 363/2608 391/2609 355/2610
f 361/2611 363/2612 355/2613
f 357/2614 361/2615 355/2616
