# USD → MuJoCo (world-space)
v 0.104217 -0.077751 0.038712
v -0.104217 -0.077751 0.038712
v -0.104217 -0.077751 0.018443
v 0.104217 -0.077751 0.018443
v -0.105843 0.068928 0.038712
v -0.105843 0.068928 0.018443
v -0.105843 -0.076862 0.018443
v -0.105843 -0.076862 0.038712
v 0.105843 0.068890 0.018443
v 0.105843 0.068890 0.038712
v 0.105843 -0.076862 0.038712
v 0.105843 -0.076862 0.018443
v -0.105504 -0.077751 0.038712
v -0.105504 -0.077751 0.018443
v -0.105843 -0.077751 0.038712
v -0.105843 -0.077751 0.018443
v 0.105483 -0.077751 0.018443
v 0.105483 -0.077751 0.038712
v 0.105843 -0.077751 0.018443
v 0.105843 -0.077751 0.038712
v -0.105843 -0.077527 0.018443
v -0.105843 -0.077527 0.038712
v 0.105843 -0.077527 0.038712
v 0.105843 -0.077527 0.018443
v -0.105436 0.069612 0.038712
v 0.105175 0.069612 0.038712
v 0.105175 0.069612 0.018443
v -0.105436 0.069612 0.018443
v -0.105843 0.069471 0.038712
v -0.105843 0.069471 0.018443
v -0.105843 0.069612 0.038712
v -0.105843 0.069612 0.018443
v 0.105843 0.069471 0.018443
v 0.105843 0.069471 0.038712
v 0.105843 0.069612 0.018443
v 0.105843 0.069612 0.038712
v 0.105664 0.069612 0.038712
v 0.105664 0.069612 0.018443
v -0.105745 0.069612 0.018443
v -0.105745 0.069612 0.038712
vt 0.008173 0.000500
vt 0.991827 0.000500
vt 0.991827 0.099013
vt 0.991827 0.099013
vt 0.008173 0.099013
vt 0.008173 0.000500
vt 0.661479 0.206907
vt 0.661479 0.305420
vt 0.004506 0.305420
vt 0.004506 0.305420
vt 0.004506 0.206907
vt 0.661479 0.206907
vt 0.003754 0.405757
vt 0.003754 0.307244
vt 0.660557 0.307244
vt 0.660557 0.307244
vt 0.660557 0.405757
vt 0.003754 0.405757
vt 0.997904 0.000500
vt 0.997904 0.099013
vt 0.991827 0.099013
vt 0.991827 0.099013
vt 0.991827 0.000500
vt 0.997904 0.000500
vt 0.999500 0.000500
vt 0.999500 0.099013
vt 0.997904 0.099013
vt 0.997904 0.099013
vt 0.997904 0.000500
vt 0.999500 0.000500
vt 0.002198 0.099013
vt 0.002198 0.000500
vt 0.008173 0.000500
vt 0.008173 0.000500
vt 0.008173 0.099013
vt 0.002198 0.099013
vt 0.000500 0.099013
vt 0.000500 0.000500
vt 0.002198 0.000500
vt 0.002198 0.000500
vt 0.002198 0.099013
vt 0.000500 0.099013
vt 0.001512 0.305420
vt 0.001512 0.206907
vt 0.004506 0.206907
vt 0.004506 0.206907
vt 0.004506 0.305420
vt 0.001512 0.305420
vt 0.000500 0.305420
vt 0.000500 0.206907
vt 0.001512 0.206907
vt 0.001512 0.206907
vt 0.001512 0.305420
vt 0.000500 0.305420
vt 0.663550 0.307244
vt 0.663550 0.405757
vt 0.660557 0.405757
vt 0.660557 0.405757
vt 0.660557 0.307244
vt 0.663550 0.307244
vt 0.664562 0.307244
vt 0.664562 0.405757
vt 0.663550 0.405757
vt 0.663550 0.405757
vt 0.663550 0.307244
vt 0.664562 0.307244
vt 0.997580 0.205084
vt 0.003651 0.205084
vt 0.003651 0.106570
vt 0.003651 0.106570
vt 0.997580 0.106570
vt 0.997580 0.205084
vt 0.663924 0.206907
vt 0.663924 0.305420
vt 0.661479 0.305420
vt 0.661479 0.305420
vt 0.661479 0.206907
vt 0.663924 0.206907
vt 0.664562 0.206907
vt 0.664563 0.305420
vt 0.663924 0.305420
vt 0.663924 0.305420
vt 0.663924 0.206907
vt 0.664562 0.206907
vt 0.001138 0.405757
vt 0.001138 0.307244
vt 0.003754 0.307244
vt 0.003754 0.307244
vt 0.003754 0.405757
vt 0.001138 0.405757
vt 0.000500 0.405757
vt 0.000500 0.307244
vt 0.001138 0.307244
vt 0.001138 0.307244
vt 0.001138 0.405757
vt 0.000500 0.405757
vt 0.001345 0.205084
vt 0.001345 0.106570
vt 0.003651 0.106570
vt 0.003651 0.106570
vt 0.003651 0.205084
vt 0.001345 0.205084
vt 0.000500 0.205084
vt 0.000500 0.106570
vt 0.001345 0.106570
vt 0.001345 0.106570
vt 0.001345 0.205084
vt 0.000500 0.205084
vt 0.999041 0.106570
vt 0.999041 0.205084
vt 0.997580 0.205084
vt 0.997580 0.205084
vt 0.997580 0.106570
vt 0.999041 0.106570
vt 0.999500 0.106570
vt 0.999500 0.205084
vt 0.999041 0.205084
vt 0.999041 0.205084
vt 0.999041 0.106570
vt 0.999500 0.106570
f 1/1 2/2 3/3
f 3/4 4/5 1/6
f 5/7 6/8 7/9
f 7/10 8/11 5/12
f 9/13 10/14 11/15
f 11/16 12/17 9/18
f 13/19 14/20 3/21
f 3/22 2/23 13/24
f 15/25 16/26 14/27
f 14/28 13/29 15/30
f 17/31 18/32 1/33
f 1/34 4/35 17/36
f 19/37 20/38 18/39
f 18/40 17/41 19/42
f 21/43 22/44 8/45
f 8/46 7/47 21/48
f 16/49 15/50 22/51
f 22/52 21/53 16/54
f 23/55 24/56 12/57
f 12/58 11/59 23/60
f 20/61 19/62 24/63
f 24/64 23/65 20/66
f 25/67 26/68 27/69
f 27/70 28/71 25/72
f 29/73 30/74 6/75
f 6/76 5/77 29/78
f 31/79 32/80 30/81
f 30/82 29/83 31/84
f 33/85 34/86 10/87
f 10/88 9/89 33/90
f 35/91 36/92 34/93
f 34/94 33/95 35/96
f 37/97 38/98 27/99
f 27/100 26/101 37/102
f 36/103 35/104 38/105
f 38/106 37/107 36/108
f 39/109 40/110 25/111
f 25/112 28/113 39/114
f 32/115 31/116 40/117
f 40/118 39/119 32/120
