# USD → MuJoCo (world-space)
v 0.077636 0.014153 -0.132622
v 0.077636 -0.114019 -0.132622
v 0.077636 -0.114019 0.126644
v 0.077636 0.014153 0.126644
v 0.079745 0.015030 0.127550
v 0.078428 0.014902 0.127550
v 0.078354 -0.113624 0.127550
v 0.079683 -0.113079 0.127550
v 0.078353 -0.114504 0.127550
v 0.079979 -0.114975 0.127550
v 0.080850 -0.114541 0.127550
v 0.079315 -0.114021 0.127550
v 0.081264 -0.115600 0.127550
v 0.080376 -0.115785 0.127550
v 0.079919 -0.116746 0.127550
v 0.079137 -0.117745 0.127550
v 0.079859 -0.117650 0.127550
v 0.080746 -0.116753 0.127550
v 0.079424 -0.118832 0.127550
v 0.080159 -0.118359 0.127550
v 0.082219 -0.120103 0.127550
v 0.082705 -0.119622 0.127550
v 0.086334 -0.120844 0.127550
v 0.086682 -0.120361 0.127550
v 0.090784 -0.121298 0.127550
v 0.090955 -0.120816 0.127550
v 0.095467 -0.121385 0.127550
v 0.095467 -0.120904 0.127550
v 0.077815 -0.113917 0.127323
v 0.077834 0.014674 0.127323
v 0.079254 -0.115344 0.126644
v 0.079435 -0.115251 0.127323
v 0.077815 -0.114798 0.127323
v 0.077636 -0.114897 0.126644
v 0.079821 -0.115905 0.127323
v 0.079636 -0.115945 0.126644
v 0.079166 -0.116706 0.126644
v 0.079354 -0.116716 0.127323
v 0.078360 -0.117785 0.126644
v 0.078554 -0.117774 0.127323
v 0.078767 -0.119289 0.126644
v 0.078932 -0.119175 0.127323
v 0.081814 -0.120473 0.126644
v 0.081915 -0.120327 0.127323
v 0.086044 -0.121215 0.126644
v 0.086117 -0.121069 0.127323
v 0.090642 -0.121668 0.126644
v 0.090677 -0.121523 0.127323
v 0.095467 -0.121753 0.126644
v 0.095467 -0.121608 0.127323
v 0.080556 0.014437 0.126644
v 0.080359 0.014919 0.127323
v 0.080141 -0.112814 0.127323
v 0.080320 -0.112725 0.126644
v 0.080319 -0.113592 0.126644
v 0.080139 -0.113686 0.127323
v 0.081395 -0.114275 0.127323
v 0.081576 -0.114187 0.126644
v 0.082003 -0.115454 0.126644
v 0.081818 -0.115490 0.127323
v 0.081372 -0.116819 0.126644
v 0.081183 -0.116805 0.127323
v 0.080302 -0.117637 0.127323
v 0.080497 -0.117630 0.126644
v 0.080343 -0.118228 0.127323
v 0.080507 -0.118116 0.126644
v 0.082911 -0.119345 0.127323
v 0.083012 -0.119200 0.126644
v 0.086847 -0.120062 0.127323
v 0.086920 -0.119917 0.126644
v 0.091062 -0.120539 0.127323
v 0.091098 -0.120394 0.126644
v 0.095467 -0.120628 0.127323
v 0.095467 -0.120483 0.126644
v 0.080320 -0.112725 0.121817
v 0.080554 0.009734 0.121817
v 0.081576 -0.114187 0.121817
v 0.080319 -0.113592 0.121817
v 0.082003 -0.115454 0.121817
v 0.080497 -0.117630 0.121817
v 0.081372 -0.116819 0.121817
v 0.080507 -0.118116 0.121817
v 0.083012 -0.119200 0.121817
v 0.086920 -0.119917 0.121817
v 0.091098 -0.120394 0.121817
v 0.095467 -0.120483 0.121817
v 0.080556 0.014437 -0.132622
v 0.080554 0.009734 -0.127795
v 0.111188 0.015030 0.127550
v 0.111250 -0.113079 0.127550
v 0.112580 -0.113624 0.127550
v 0.112506 0.014902 0.127550
v 0.112580 -0.114504 0.127550
v 0.111618 -0.114021 0.127550
v 0.110083 -0.114541 0.127550
v 0.110954 -0.114975 0.127550
v 0.109670 -0.115600 0.127550
v 0.110557 -0.115785 0.127550
v 0.111014 -0.116746 0.127550
v 0.110187 -0.116753 0.127550
v 0.111075 -0.117650 0.127550
v 0.111796 -0.117745 0.127550
v 0.110774 -0.118359 0.127550
v 0.111509 -0.118832 0.127550
v 0.108228 -0.119622 0.127550
v 0.108714 -0.120103 0.127550
v 0.104252 -0.120361 0.127550
v 0.104599 -0.120844 0.127550
v 0.099978 -0.120816 0.127550
v 0.100149 -0.121298 0.127550
v 0.113298 0.014153 0.126644
v 0.113100 0.014674 0.127323
v 0.113118 -0.113917 0.127323
v 0.113298 -0.114019 0.126644
v 0.113100 0.014674 -0.133302
v 0.113298 0.014153 -0.132622
v 0.111679 -0.115344 0.126644
v 0.113298 -0.114897 0.126644
v 0.113118 -0.114798 0.127323
v 0.111498 -0.115251 0.127323
v 0.111112 -0.115905 0.127323
v 0.111579 -0.116716 0.127323
v 0.111767 -0.116706 0.126644
v 0.111297 -0.115945 0.126644
v 0.112573 -0.117785 0.126644
v 0.112379 -0.117774 0.127323
v 0.112166 -0.119289 0.126644
v 0.112002 -0.119175 0.127323
v 0.109119 -0.120473 0.126644
v 0.109018 -0.120327 0.127323
v 0.104889 -0.121215 0.126644
v 0.104817 -0.121069 0.127323
v 0.100292 -0.121668 0.126644
v 0.100256 -0.121523 0.127323
v 0.110377 0.014437 0.126644
v 0.110613 -0.112725 0.126644
v 0.110792 -0.112814 0.127323
v 0.110574 0.014919 0.127323
v 0.110615 -0.113592 0.126644
v 0.109357 -0.114187 0.126644
v 0.109539 -0.114275 0.127323
v 0.110794 -0.113686 0.127323
v 0.108930 -0.115454 0.126644
v 0.109115 -0.115490 0.127323
v 0.109562 -0.116819 0.126644
v 0.110437 -0.117630 0.126644
v 0.110631 -0.117637 0.127323
v 0.109750 -0.116805 0.127323
v 0.110426 -0.118116 0.126644
v 0.110591 -0.118228 0.127323
v 0.107921 -0.119200 0.126644
v 0.108022 -0.119345 0.127323
v 0.104013 -0.119917 0.126644
v 0.104086 -0.120062 0.127323
v 0.099836 -0.120394 0.126644
v 0.099871 -0.120539 0.127323
v 0.112506 0.014902 -0.133528
v 0.110379 0.009734 0.121817
v 0.110613 -0.112725 0.121817
v 0.109357 -0.114187 0.121817
v 0.110615 -0.113592 0.121817
v 0.108930 -0.115454 0.121817
v 0.110437 -0.117630 0.121817
v 0.109562 -0.116819 0.121817
v 0.110426 -0.118116 0.121817
v 0.107921 -0.119200 0.121817
v 0.104013 -0.119917 0.121817
v 0.099836 -0.120394 0.121817
v 0.111188 0.015030 -0.133528
v 0.077636 -0.114897 -0.132622
v 0.079254 -0.115344 -0.132622
v 0.079636 -0.115945 -0.132622
v 0.079166 -0.116706 -0.132622
v 0.078360 -0.117785 -0.132622
v 0.078767 -0.119289 -0.132622
v 0.081814 -0.120473 -0.132622
v 0.086044 -0.121215 -0.132622
v 0.090642 -0.121668 -0.132622
v 0.095467 -0.121753 -0.132622
v 0.079745 0.015030 -0.133528
v 0.079683 -0.113079 -0.133528
v 0.078354 -0.113624 -0.133528
v 0.078428 0.014902 -0.133528
v 0.078353 -0.114504 -0.133528
v 0.079315 -0.114021 -0.133528
v 0.080850 -0.114541 -0.133528
v 0.079979 -0.114975 -0.133528
v 0.081264 -0.115600 -0.133528
v 0.080376 -0.115785 -0.133528
v 0.079919 -0.116746 -0.133528
v 0.080746 -0.116753 -0.133528
v 0.079859 -0.117650 -0.133528
v 0.079137 -0.117745 -0.133528
v 0.080159 -0.118359 -0.133528
v 0.079424 -0.118832 -0.133528
v 0.082705 -0.119622 -0.133528
v 0.082219 -0.120103 -0.133528
v 0.086682 -0.120361 -0.133528
v 0.086334 -0.120844 -0.133528
v 0.090955 -0.120816 -0.133528
v 0.090784 -0.121298 -0.133528
v 0.095467 -0.120904 -0.133528
v 0.095467 -0.121385 -0.133528
v 0.077834 0.014674 -0.133302
v 0.077815 -0.113917 -0.133302
v 0.077815 -0.114798 -0.133302
v 0.079435 -0.115251 -0.133302
v 0.079821 -0.115905 -0.133302
v 0.079354 -0.116716 -0.133302
v 0.078554 -0.117774 -0.133302
v 0.078932 -0.119175 -0.133302
v 0.081915 -0.120327 -0.133302
v 0.086117 -0.121069 -0.133302
v 0.090677 -0.121523 -0.133302
v 0.095467 -0.121608 -0.133302
v 0.080320 -0.112725 -0.132622
v 0.080141 -0.112814 -0.133302
v 0.080359 0.014919 -0.133302
v 0.080319 -0.113592 -0.132622
v 0.081576 -0.114187 -0.132622
v 0.081395 -0.114275 -0.133302
v 0.080139 -0.113686 -0.133302
v 0.082003 -0.115454 -0.132622
v 0.081818 -0.115490 -0.133302
v 0.081372 -0.116819 -0.132622
v 0.080497 -0.117630 -0.132622
v 0.080302 -0.117637 -0.133302
v 0.081183 -0.116805 -0.133302
v 0.080507 -0.118116 -0.132622
v 0.080343 -0.118228 -0.133302
v 0.083012 -0.119200 -0.132622
v 0.082911 -0.119345 -0.133302
v 0.086920 -0.119917 -0.132622
v 0.086847 -0.120062 -0.133302
v 0.091098 -0.120394 -0.132622
v 0.091062 -0.120539 -0.133302
v 0.095467 -0.120483 -0.132622
v 0.095467 -0.120628 -0.133302
v 0.080320 -0.112725 -0.127796
v 0.081576 -0.114187 -0.127796
v 0.080319 -0.113592 -0.127796
v 0.082003 -0.115454 -0.127796
v 0.080497 -0.117630 -0.127796
v 0.081372 -0.116819 -0.127796
v 0.080507 -0.118116 -0.127796
v 0.083012 -0.119200 -0.127796
v 0.086920 -0.119917 -0.127796
v 0.091098 -0.120394 -0.127796
v 0.095467 -0.120483 -0.127796
v 0.113298 -0.114019 -0.132622
v 0.111679 -0.115344 -0.132622
v 0.113298 -0.114897 -0.132622
v 0.111767 -0.116706 -0.132622
v 0.111297 -0.115945 -0.132622
v 0.112573 -0.117785 -0.132622
v 0.112166 -0.119289 -0.132622
v 0.109119 -0.120473 -0.132622
v 0.104889 -0.121215 -0.132622
v 0.100292 -0.121668 -0.132622
v 0.112580 -0.113624 -0.133528
v 0.111250 -0.113079 -0.133528
v 0.112580 -0.114504 -0.133528
v 0.110954 -0.114975 -0.133528
v 0.110083 -0.114541 -0.133528
v 0.111618 -0.114021 -0.133528
v 0.109670 -0.115600 -0.133528
v 0.110557 -0.115785 -0.133528
v 0.111014 -0.116746 -0.133528
v 0.111796 -0.117745 -0.133528
v 0.111075 -0.117650 -0.133528
v 0.110187 -0.116753 -0.133528
v 0.111509 -0.118832 -0.133528
v 0.110774 -0.118359 -0.133528
v 0.108714 -0.120103 -0.133528
v 0.108228 -0.119622 -0.133528
v 0.104599 -0.120844 -0.133528
v 0.104252 -0.120361 -0.133528
v 0.100149 -0.121298 -0.133528
v 0.099978 -0.120816 -0.133528
v 0.113118 -0.113917 -0.133302
v 0.111498 -0.115251 -0.133302
v 0.113118 -0.114798 -0.133302
v 0.111112 -0.115905 -0.133302
v 0.111579 -0.116716 -0.133302
v 0.112379 -0.117774 -0.133302
v 0.112002 -0.119175 -0.133302
v 0.109018 -0.120327 -0.133302
v 0.104817 -0.121069 -0.133302
v 0.100256 -0.121523 -0.133302
v 0.110377 0.014437 -0.132622
v 0.110574 0.014919 -0.133302
v 0.110792 -0.112814 -0.133302
v 0.110613 -0.112725 -0.132622
v 0.110615 -0.113592 -0.132622
v 0.110794 -0.113686 -0.133302
v 0.109539 -0.114275 -0.133302
v 0.109357 -0.114187 -0.132622
v 0.108930 -0.115454 -0.132622
v 0.109115 -0.115490 -0.133302
v 0.109562 -0.116819 -0.132622
v 0.109750 -0.116805 -0.133302
v 0.110631 -0.117637 -0.133302
v 0.110437 -0.117630 -0.132622
v 0.110591 -0.118228 -0.133302
v 0.110426 -0.118116 -0.132622
v 0.108022 -0.119345 -0.133302
v 0.107921 -0.119200 -0.132622
v 0.104086 -0.120062 -0.133302
v 0.104013 -0.119917 -0.132622
v 0.099871 -0.120539 -0.133302
v 0.099836 -0.120394 -0.132622
v 0.110613 -0.112725 -0.127796
v 0.110379 0.009734 -0.127795
v 0.109357 -0.114187 -0.127796
v 0.110615 -0.113592 -0.127796
v 0.108930 -0.115454 -0.127796
v 0.110437 -0.117630 -0.127796
v 0.109562 -0.116819 -0.127796
v 0.110426 -0.118116 -0.127796
v 0.107921 -0.119200 -0.127796
v 0.104013 -0.119917 -0.127796
v 0.099836 -0.120394 -0.127796
vt 0.020390 0.033351
vt 0.429918 0.033355
vt 0.429918 0.968992
vt 0.429918 0.968992
vt 0.020390 0.968996
vt 0.020390 0.033351
vt 0.019628 0.978252
vt 0.019226 0.973633
vt 0.429849 0.973674
vt 0.429849 0.973674
vt 0.429339 0.978557
vt 0.019628 0.978252
vt 0.432031 0.972381
vt 0.436351 0.975182
vt 0.436040 0.978748
vt 0.436040 0.978748
vt 0.431848 0.976129
vt 0.432031 0.972381
vt 0.439291 0.978808
vt 0.436040 0.978748
vt 0.436351 0.975182
vt 0.436351 0.975182
vt 0.439120 0.975477
vt 0.439291 0.978808
vt 0.442138 0.974329
vt 0.445465 0.972735
vt 0.446183 0.975248
vt 0.446183 0.975248
vt 0.442713 0.977237
vt 0.442138 0.974329
vt 0.445465 0.972735
vt 0.448507 0.972292
vt 0.448966 0.975292
vt 0.448966 0.975292
vt 0.446183 0.975248
vt 0.445465 0.972735
vt 0.448507 0.972292
vt 0.457243 0.973144
vt 0.457758 0.975281
vt 0.457758 0.975281
vt 0.448966 0.975292
vt 0.448507 0.972292
vt 0.457243 0.973144
vt 0.469313 0.972935
vt 0.469849 0.974852
vt 0.469849 0.974852
vt 0.457758 0.975281
vt 0.457243 0.973144
vt 0.469313 0.972935
vt 0.482283 0.972915
vt 0.482573 0.974739
vt 0.482573 0.974739
vt 0.469849 0.974852
vt 0.469313 0.972935
vt 0.482283 0.972915
vt 0.495886 0.972657
vt 0.495886 0.974374
vt 0.495886 0.974374
vt 0.482573 0.974739
vt 0.482283 0.972915
vt 0.020390 0.968996
vt 0.429918 0.968992
vt 0.430010 0.971518
vt 0.430010 0.971518
vt 0.019224 0.971460
vt 0.020390 0.968996
vt 0.436813 0.969342
vt 0.436561 0.972486
vt 0.432080 0.970514
vt 0.432080 0.970514
vt 0.432154 0.968644
vt 0.436813 0.969342
vt 0.438967 0.972784
vt 0.438765 0.969448
vt 0.441102 0.969198
vt 0.441102 0.969198
vt 0.441624 0.972024
vt 0.438967 0.972784
vt 0.444462 0.968736
vt 0.444874 0.970806
vt 0.441624 0.972024
vt 0.441624 0.972024
vt 0.441102 0.969198
vt 0.444462 0.968736
vt 0.448284 0.968611
vt 0.448337 0.970474
vt 0.444874 0.970806
vt 0.444874 0.970806
vt 0.444462 0.968736
vt 0.448284 0.968611
vt 0.457075 0.969090
vt 0.456979 0.971729
vt 0.448337 0.970474
vt 0.448337 0.970474
vt 0.448284 0.968611
vt 0.457075 0.969090
vt 0.469039 0.969066
vt 0.469035 0.971657
vt 0.456979 0.971729
vt 0.456979 0.971729
vt 0.457075 0.969090
vt 0.469039 0.969066
vt 0.482121 0.969073
vt 0.482130 0.971673
vt 0.469035 0.971657
vt 0.469035 0.971657
vt 0.469039 0.969066
vt 0.482121 0.969073
vt 0.495886 0.969026
vt 0.495886 0.971526
vt 0.482130 0.971673
vt 0.482130 0.971673
vt 0.482121 0.969073
vt 0.495886 0.969026
vt 0.022266 0.982905
vt 0.020542 0.980462
vt 0.429103 0.980413
vt 0.429103 0.980413
vt 0.429136 0.982870
vt 0.022266 0.982905
vt 0.431806 0.982639
vt 0.431909 0.979626
vt 0.435882 0.980842
vt 0.435882 0.980842
vt 0.435815 0.983050
vt 0.431806 0.982639
vt 0.439601 0.982711
vt 0.435815 0.983050
vt 0.435882 0.980842
vt 0.435882 0.980842
vt 0.439371 0.980674
vt 0.439601 0.982711
vt 0.443851 0.981349
vt 0.443243 0.978914
vt 0.446788 0.977197
vt 0.446788 0.977197
vt 0.447480 0.980025
vt 0.443851 0.981349
vt 0.447480 0.980025
vt 0.446788 0.977197
vt 0.449085 0.976689
vt 0.449085 0.976689
vt 0.449427 0.979557
vt 0.447480 0.980025
vt 0.449427 0.979557
vt 0.449085 0.976689
vt 0.457868 0.976636
vt 0.457868 0.976636
vt 0.458004 0.979111
vt 0.449427 0.979557
vt 0.458004 0.979111
vt 0.457868 0.976636
vt 0.470012 0.976245
vt 0.470012 0.976245
vt 0.470108 0.978719
vt 0.458004 0.979111
vt 0.470108 0.978719
vt 0.470012 0.976245
vt 0.482738 0.976039
vt 0.482738 0.976039
vt 0.482780 0.978498
vt 0.470108 0.978719
vt 0.482780 0.978498
vt 0.482738 0.976039
vt 0.495885 0.975712
vt 0.495885 0.975712
vt 0.495885 0.978316
vt 0.482780 0.978498
vt 0.019224 0.971460
vt 0.430010 0.971518
vt 0.429849 0.973674
vt 0.429849 0.973674
vt 0.019226 0.973633
vt 0.019224 0.971460
vt 0.436561 0.972486
vt 0.436351 0.975182
vt 0.432031 0.972381
vt 0.432031 0.972381
vt 0.432080 0.970514
vt 0.436561 0.972486
vt 0.439120 0.975477
vt 0.438967 0.972784
vt 0.441624 0.972024
vt 0.441624 0.972024
vt 0.442138 0.974329
vt 0.439120 0.975477
vt 0.444874 0.970806
vt 0.445465 0.972735
vt 0.442138 0.974329
vt 0.442138 0.974329
vt 0.441624 0.972024
vt 0.444874 0.970806
vt 0.448337 0.970474
vt 0.448507 0.972292
vt 0.445465 0.972735
vt 0.445465 0.972735
vt 0.444874 0.970806
vt 0.448337 0.970474
vt 0.456979 0.971729
vt 0.457243 0.973144
vt 0.448507 0.972292
vt 0.448507 0.972292
vt 0.448337 0.970474
vt 0.456979 0.971729
vt 0.469035 0.971657
vt 0.469313 0.972935
vt 0.457243 0.973144
vt 0.457243 0.973144
vt 0.456979 0.971729
vt 0.469035 0.971657
vt 0.482130 0.971673
vt 0.482283 0.972915
vt 0.469313 0.972935
vt 0.469313 0.972935
vt 0.469035 0.971657
vt 0.482130 0.971673
vt 0.495886 0.971526
vt 0.495886 0.972657
vt 0.482283 0.972915
vt 0.482283 0.972915
vt 0.482130 0.971673
vt 0.495886 0.971526
vt 0.020542 0.980462
vt 0.019628 0.978252
vt 0.429339 0.978557
vt 0.429339 0.978557
vt 0.429103 0.980413
vt 0.020542 0.980462
vt 0.431909 0.979626
vt 0.431848 0.976129
vt 0.436040 0.978748
vt 0.436040 0.978748
vt 0.435882 0.980842
vt 0.431909 0.979626
vt 0.439371 0.980674
vt 0.435882 0.980842
vt 0.436040 0.978748
vt 0.436040 0.978748
vt 0.439291 0.978808
vt 0.439371 0.980674
vt 0.443243 0.978914
vt 0.442713 0.977237
vt 0.446183 0.975248
vt 0.446183 0.975248
vt 0.446788 0.977197
vt 0.443243 0.978914
vt 0.446788 0.977197
vt 0.446183 0.975248
vt 0.448966 0.975292
vt 0.448966 0.975292
vt 0.449085 0.976689
vt 0.446788 0.977197
vt 0.449085 0.976689
vt 0.448966 0.975292
vt 0.457758 0.975281
vt 0.457758 0.975281
vt 0.457868 0.976636
vt 0.449085 0.976689
vt 0.457868 0.976636
vt 0.457758 0.975281
vt 0.469849 0.974852
vt 0.469849 0.974852
vt 0.470012 0.976245
vt 0.457868 0.976636
vt 0.470012 0.976245
vt 0.469849 0.974852
vt 0.482573 0.974739
vt 0.482573 0.974739
vt 0.482738 0.976039
vt 0.470012 0.976245
vt 0.482738 0.976039
vt 0.482573 0.974739
vt 0.495886 0.974374
vt 0.495886 0.974374
vt 0.495885 0.975712
vt 0.482738 0.976039
vt 0.439291 0.978808
vt 0.439120 0.975477
vt 0.442138 0.974329
vt 0.442138 0.974329
vt 0.442713 0.977237
vt 0.439291 0.978808
vt 0.436813 0.969342
vt 0.438765 0.969448
vt 0.438967 0.972784
vt 0.438967 0.972784
vt 0.436561 0.972486
vt 0.436813 0.969342
vt 0.439601 0.982711
vt 0.439371 0.980674
vt 0.443243 0.978914
vt 0.443243 0.978914
vt 0.443851 0.981349
vt 0.439601 0.982711
vt 0.436561 0.972486
vt 0.438967 0.972784
vt 0.439120 0.975477
vt 0.439120 0.975477
vt 0.436351 0.975182
vt 0.436561 0.972486
vt 0.439371 0.980674
vt 0.439291 0.978808
vt 0.442713 0.977237
vt 0.442713 0.977237
vt 0.443243 0.978914
vt 0.439371 0.980674
vt 0.431848 0.976129
vt 0.429339 0.978557
vt 0.429849 0.973674
vt 0.429849 0.973674
vt 0.432031 0.972381
vt 0.431848 0.976129
vt 0.432080 0.970514
vt 0.430010 0.971518
vt 0.429918 0.968992
vt 0.429918 0.968992
vt 0.432154 0.968644
vt 0.432080 0.970514
vt 0.431806 0.982639
vt 0.429136 0.982870
vt 0.429103 0.980413
vt 0.429103 0.980413
vt 0.431909 0.979626
vt 0.431806 0.982639
vt 0.432031 0.972381
vt 0.429849 0.973674
vt 0.430010 0.971518
vt 0.430010 0.971518
vt 0.432080 0.970514
vt 0.432031 0.972381
vt 0.431909 0.979626
vt 0.429103 0.980413
vt 0.429339 0.978557
vt 0.429339 0.978557
vt 0.431848 0.976129
vt 0.431909 0.979626
vt 0.429136 0.982870
vt 0.429190 1.000260
vt 0.036130 1.000290
vt 0.036130 1.000290
vt 0.022266 0.982905
vt 0.429136 0.982870
vt 0.436555 1.000250
vt 0.432004 1.000280
vt 0.431806 0.982639
vt 0.431806 0.982639
vt 0.435815 0.983050
vt 0.436555 1.000250
vt 0.441000 0.999767
vt 0.436555 1.000250
vt 0.435815 0.983050
vt 0.435815 0.983050
vt 0.439601 0.982711
vt 0.441000 0.999767
vt 0.449276 0.997495
vt 0.445728 0.998595
vt 0.443851 0.981349
vt 0.443851 0.981349
vt 0.447480 0.980025
vt 0.449276 0.997495
vt 0.450659 0.997084
vt 0.449276 0.997495
vt 0.447480 0.980025
vt 0.447480 0.980025
vt 0.449427 0.979557
vt 0.450659 0.997084
vt 0.458660 0.996491
vt 0.450659 0.997084
vt 0.449427 0.979557
vt 0.449427 0.979557
vt 0.458004 0.979111
vt 0.458660 0.996491
vt 0.470418 0.996111
vt 0.458660 0.996491
vt 0.458004 0.979111
vt 0.458004 0.979111
vt 0.470108 0.978719
vt 0.470418 0.996111
vt 0.482918 0.995893
vt 0.470418 0.996111
vt 0.470108 0.978719
vt 0.470108 0.978719
vt 0.482780 0.978498
vt 0.482918 0.995893
vt 0.495883 0.995777
vt 0.482918 0.995893
vt 0.482780 0.978498
vt 0.482780 0.978498
vt 0.495885 0.978316
vt 0.495883 0.995777
vt 0.445728 0.998595
vt 0.441000 0.999767
vt 0.439601 0.982711
vt 0.439601 0.982711
vt 0.443851 0.981349
vt 0.445728 0.998595
vt 0.432004 1.000280
vt 0.429190 1.000260
vt 0.429136 0.982870
vt 0.429136 0.982870
vt 0.431806 0.982639
vt 0.432004 1.000280
vt 0.009655 0.033333
vt 0.009655 0.969009
vt -0.004115 0.951589
vt -0.004115 0.951589
vt -0.004115 0.050754
vt 0.009655 0.033333
vt 0.972142 0.978285
vt 0.562430 0.978590
vt 0.561922 0.973707
vt 0.561922 0.973707
vt 0.972545 0.973667
vt 0.972142 0.978285
vt 0.559740 0.972412
vt 0.559922 0.976161
vt 0.555730 0.978777
vt 0.555730 0.978777
vt 0.555419 0.975211
vt 0.559740 0.972412
vt 0.552478 0.978836
vt 0.552650 0.975505
vt 0.555419 0.975211
vt 0.555419 0.975211
vt 0.555730 0.978777
vt 0.552478 0.978836
vt 0.549633 0.974355
vt 0.549057 0.977263
vt 0.545588 0.975271
vt 0.545588 0.975271
vt 0.546307 0.972758
vt 0.549633 0.974355
vt 0.546307 0.972758
vt 0.545588 0.975271
vt 0.542805 0.975312
vt 0.542805 0.975312
vt 0.543265 0.972313
vt 0.546307 0.972758
vt 0.543265 0.972313
vt 0.542805 0.975312
vt 0.534013 0.975296
vt 0.534013 0.975296
vt 0.534529 0.973160
vt 0.543265 0.972313
vt 0.534529 0.973160
vt 0.534013 0.975296
vt 0.521922 0.974860
vt 0.521922 0.974860
vt 0.522459 0.972944
vt 0.534529 0.973160
vt 0.522459 0.972944
vt 0.521922 0.974860
vt 0.509199 0.974740
vt 0.509199 0.974740
vt 0.509489 0.972916
vt 0.522459 0.972944
vt 0.509489 0.972916
vt 0.509199 0.974740
vt 0.495886 0.974374
vt 0.495886 0.974374
vt 0.495886 0.972657
vt 0.509489 0.972916
vt 0.971382 0.969030
vt 0.972547 0.971493
vt 0.561761 0.971551
vt 0.561761 0.971551
vt 0.561854 0.969025
vt 0.971382 0.969030
vt 0.973017 0.030918
vt 0.973017 0.971497
vt 0.971382 0.969030
vt 0.971382 0.969030
vt 0.971382 0.033384
vt 0.973017 0.030918
vt 0.554960 0.969372
vt 0.559618 0.968676
vt 0.559692 0.970546
vt 0.559692 0.970546
vt 0.555211 0.972515
vt 0.554960 0.969372
vt 0.552804 0.972811
vt 0.550148 0.972050
vt 0.550671 0.969224
vt 0.550671 0.969224
vt 0.553008 0.969476
vt 0.552804 0.972811
vt 0.547311 0.968759
vt 0.550671 0.969224
vt 0.550148 0.972050
vt 0.550148 0.972050
vt 0.546898 0.970828
vt 0.547311 0.968759
vt 0.543490 0.968630
vt 0.547311 0.968759
vt 0.546898 0.970828
vt 0.546898 0.970828
vt 0.543436 0.970494
vt 0.543490 0.968630
vt 0.534698 0.969105
vt 0.543490 0.968630
vt 0.543436 0.970494
vt 0.543436 0.970494
vt 0.534793 0.971744
vt 0.534698 0.969105
vt 0.522735 0.969075
vt 0.534698 0.969105
vt 0.534793 0.971744
vt 0.534793 0.971744
vt 0.522738 0.971666
vt 0.522735 0.969075
vt 0.509652 0.969077
vt 0.522735 0.969075
vt 0.522738 0.971666
vt 0.522738 0.971666
vt 0.509642 0.971675
vt 0.509652 0.969077
vt 0.495886 0.969026
vt 0.509652 0.969077
vt 0.509642 0.971675
vt 0.509642 0.971675
vt 0.495886 0.971526
vt 0.495886 0.969026
vt 0.969503 0.982937
vt 0.562632 0.982902
vt 0.562666 0.980445
vt 0.562666 0.980445
vt 0.971227 0.980495
vt 0.969503 0.982937
vt 0.559962 0.982669
vt 0.555953 0.983080
vt 0.555887 0.980872
vt 0.555887 0.980872
vt 0.559860 0.979657
vt 0.559962 0.982669
vt 0.552167 0.982739
vt 0.552397 0.980702
vt 0.555887 0.980872
vt 0.555887 0.980872
vt 0.555953 0.983080
vt 0.552167 0.982739
vt 0.547917 0.981373
vt 0.544288 0.980047
vt 0.544982 0.977220
vt 0.544982 0.977220
vt 0.548526 0.978939
vt 0.547917 0.981373
vt 0.544288 0.980047
vt 0.542342 0.979578
vt 0.542685 0.976710
vt 0.542685 0.976710
vt 0.544982 0.977220
vt 0.544288 0.980047
vt 0.542342 0.979578
vt 0.533766 0.979125
vt 0.533903 0.976651
vt 0.533903 0.976651
vt 0.542685 0.976710
vt 0.542342 0.979578
vt 0.533766 0.979125
vt 0.521662 0.978727
vt 0.521758 0.976253
vt 0.521758 0.976253
vt 0.533903 0.976651
vt 0.533766 0.979125
vt 0.521662 0.978727
vt 0.508990 0.978500
vt 0.509032 0.976041
vt 0.509032 0.976041
vt 0.521758 0.976253
vt 0.521662 0.978727
vt 0.508990 0.978500
vt 0.495885 0.978316
vt 0.495885 0.975712
vt 0.495885 0.975712
vt 0.509032 0.976041
vt 0.508990 0.978500
vt 0.972547 0.971493
vt 0.972545 0.973667
vt 0.561922 0.973707
vt 0.561922 0.973707
vt 0.561761 0.971551
vt 0.972547 0.971493
vt 0.974882 0.030101
vt 0.974882 0.972315
vt 0.973017 0.971497
vt 0.973017 0.971497
vt 0.973017 0.030918
vt 0.974882 0.030101
vt 0.555211 0.972515
vt 0.559692 0.970546
vt 0.559740 0.972412
vt 0.559740 0.972412
vt 0.555419 0.975211
vt 0.555211 0.972515
vt 0.552650 0.975505
vt 0.549633 0.974355
vt 0.550148 0.972050
vt 0.550148 0.972050
vt 0.552804 0.972811
vt 0.552650 0.975505
vt 0.546898 0.970828
vt 0.550148 0.972050
vt 0.549633 0.974355
vt 0.549633 0.974355
vt 0.546307 0.972758
vt 0.546898 0.970828
vt 0.543436 0.970494
vt 0.546898 0.970828
vt 0.546307 0.972758
vt 0.546307 0.972758
vt 0.543265 0.972313
vt 0.543436 0.970494
vt 0.534793 0.971744
vt 0.543436 0.970494
vt 0.543265 0.972313
vt 0.543265 0.972313
vt 0.534529 0.973160
vt 0.534793 0.971744
vt 0.522738 0.971666
vt 0.534793 0.971744
vt 0.534529 0.973160
vt 0.534529 0.973160
vt 0.522459 0.972944
vt 0.522738 0.971666
vt 0.509642 0.971675
vt 0.522738 0.971666
vt 0.522459 0.972944
vt 0.522459 0.972944
vt 0.509489 0.972916
vt 0.509642 0.971675
vt 0.495886 0.971526
vt 0.509642 0.971675
vt 0.509489 0.972916
vt 0.509489 0.972916
vt 0.495886 0.972657
vt 0.495886 0.971526
vt 0.971227 0.980495
vt 0.562666 0.980445
vt 0.562430 0.978590
vt 0.562430 0.978590
vt 0.972142 0.978285
vt 0.971227 0.980495
vt 0.559860 0.979657
vt 0.555887 0.980872
vt 0.555730 0.978777
vt 0.555730 0.978777
vt 0.559922 0.976161
vt 0.559860 0.979657
vt 0.552397 0.980702
vt 0.552478 0.978836
vt 0.555730 0.978777
vt 0.555730 0.978777
vt 0.555887 0.980872
vt 0.552397 0.980702
vt 0.548526 0.978939
vt 0.544982 0.977220
vt 0.545588 0.975271
vt 0.545588 0.975271
vt 0.549057 0.977263
vt 0.548526 0.978939
vt 0.544982 0.977220
vt 0.542685 0.976710
vt 0.542805 0.975312
vt 0.542805 0.975312
vt 0.545588 0.975271
vt 0.544982 0.977220
vt 0.542685 0.976710
vt 0.533903 0.976651
vt 0.534013 0.975296
vt 0.534013 0.975296
vt 0.542805 0.975312
vt 0.542685 0.976710
vt 0.533903 0.976651
vt 0.521758 0.976253
vt 0.521922 0.974860
vt 0.521922 0.974860
vt 0.534013 0.975296
vt 0.533903 0.976651
vt 0.521758 0.976253
vt 0.509032 0.976041
vt 0.509199 0.974740
vt 0.509199 0.974740
vt 0.521922 0.974860
vt 0.521758 0.976253
vt 0.509032 0.976041
vt 0.495885 0.975712
vt 0.495886 0.974374
vt 0.495886 0.974374
vt 0.509199 0.974740
vt 0.509032 0.976041
vt 0.552478 0.978836
vt 0.549057 0.977263
vt 0.549633 0.974355
vt 0.549633 0.974355
vt 0.552650 0.975505
vt 0.552478 0.978836
vt 0.554960 0.969372
vt 0.555211 0.972515
vt 0.552804 0.972811
vt 0.552804 0.972811
vt 0.553008 0.969476
vt 0.554960 0.969372
vt 0.552167 0.982739
vt 0.547917 0.981373
vt 0.548526 0.978939
vt 0.548526 0.978939
vt 0.552397 0.980702
vt 0.552167 0.982739
vt 0.555211 0.972515
vt 0.555419 0.975211
vt 0.552650 0.975505
vt 0.552650 0.975505
vt 0.552804 0.972811
vt 0.555211 0.972515
vt 0.552397 0.980702
vt 0.548526 0.978939
vt 0.549057 0.977263
vt 0.549057 0.977263
vt 0.552478 0.978836
vt 0.552397 0.980702
vt 0.559922 0.976161
vt 0.559740 0.972412
vt 0.561922 0.973707
vt 0.561922 0.973707
vt 0.562430 0.978590
vt 0.559922 0.976161
vt 0.559692 0.970546
vt 0.559618 0.968676
vt 0.561854 0.969025
vt 0.561854 0.969025
vt 0.561761 0.971551
vt 0.559692 0.970546
vt 0.559962 0.982669
vt 0.559860 0.979657
vt 0.562666 0.980445
vt 0.562666 0.980445
vt 0.562632 0.982902
vt 0.559962 0.982669
vt 0.559740 0.972412
vt 0.559692 0.970546
vt 0.561761 0.971551
vt 0.561761 0.971551
vt 0.561922 0.973707
vt 0.559740 0.972412
vt 0.559860 0.979657
vt 0.559922 0.976161
vt 0.562430 0.978590
vt 0.562430 0.978590
vt 0.562666 0.980445
vt 0.559860 0.979657
vt 0.562632 0.982902
vt 0.969503 0.982937
vt 0.955639 1.000320
vt 0.955639 1.000320
vt 0.562578 1.000290
vt 0.562632 0.982902
vt 0.555210 1.000280
vt 0.555953 0.983080
vt 0.559962 0.982669
vt 0.559962 0.982669
vt 0.559763 1.000310
vt 0.555210 1.000280
vt 0.550763 0.999794
vt 0.552167 0.982739
vt 0.555953 0.983080
vt 0.555953 0.983080
vt 0.555210 1.000280
vt 0.550763 0.999794
vt 0.542486 0.997517
vt 0.544288 0.980047
vt 0.547917 0.981373
vt 0.547917 0.981373
vt 0.546035 0.998619
vt 0.542486 0.997517
vt 0.541104 0.997104
vt 0.542342 0.979578
vt 0.544288 0.980047
vt 0.544288 0.980047
vt 0.542486 0.997517
vt 0.541104 0.997104
vt 0.533103 0.996505
vt 0.533766 0.979125
vt 0.542342 0.979578
vt 0.542342 0.979578
vt 0.541104 0.997104
vt 0.533103 0.996505
vt 0.521346 0.996118
vt 0.521662 0.978727
vt 0.533766 0.979125
vt 0.533766 0.979125
vt 0.533103 0.996505
vt 0.521346 0.996118
vt 0.508848 0.995895
vt 0.508990 0.978500
vt 0.521662 0.978727
vt 0.521662 0.978727
vt 0.521346 0.996118
vt 0.508848 0.995895
vt 0.495883 0.995777
vt 0.495885 0.978316
vt 0.508990 0.978500
vt 0.508990 0.978500
vt 0.508848 0.995895
vt 0.495883 0.995777
vt 0.546035 0.998619
vt 0.547917 0.981373
vt 0.552167 0.982739
vt 0.552167 0.982739
vt 0.550763 0.999794
vt 0.546035 0.998619
vt 0.559763 1.000310
vt 0.559962 0.982669
vt 0.562632 0.982902
vt 0.562632 0.982902
vt 0.562578 1.000290
vt 0.559763 1.000310
vt 0.978760 0.972315
vt 0.974882 0.972315
vt 0.974882 0.030101
vt 0.974882 0.030101
vt 0.978760 0.030102
vt 0.978760 0.972315
vt 0.432154 0.968644
vt 0.432154 0.033704
vt 0.436813 0.033008
vt 0.436813 0.033008
vt 0.436813 0.969342
vt 0.432154 0.968644
vt 0.438765 0.969448
vt 0.438765 0.032904
vt 0.441102 0.033155
vt 0.441102 0.033155
vt 0.441102 0.969198
vt 0.438765 0.969448
vt 0.441102 0.969198
vt 0.441102 0.033155
vt 0.444462 0.033619
vt 0.444462 0.033619
vt 0.444462 0.968736
vt 0.441102 0.969198
vt 0.444462 0.968736
vt 0.444462 0.033619
vt 0.448284 0.033748
vt 0.448284 0.033748
vt 0.448284 0.968611
vt 0.444462 0.968736
vt 0.448284 0.968611
vt 0.448284 0.033748
vt 0.457075 0.033273
vt 0.457075 0.033273
vt 0.457075 0.969090
vt 0.448284 0.968611
vt 0.457075 0.969090
vt 0.457075 0.033273
vt 0.469039 0.033301
vt 0.469039 0.033301
vt 0.469039 0.969066
vt 0.457075 0.969090
vt 0.469039 0.969066
vt 0.469039 0.033301
vt 0.482122 0.033299
vt 0.482122 0.033299
vt 0.482121 0.969073
vt 0.469039 0.969066
vt 0.482121 0.969073
vt 0.482122 0.033299
vt 0.495887 0.033349
vt 0.495887 0.033349
vt 0.495886 0.969026
vt 0.482121 0.969073
vt 0.019630 0.024095
vt 0.429342 0.023790
vt 0.429851 0.028673
vt 0.429851 0.028673
vt 0.019227 0.028714
vt 0.019630 0.024095
vt 0.432033 0.029968
vt 0.431851 0.026219
vt 0.436043 0.023603
vt 0.436043 0.023603
vt 0.436353 0.027169
vt 0.432033 0.029968
vt 0.439294 0.023544
vt 0.439122 0.026875
vt 0.436353 0.027169
vt 0.436353 0.027169
vt 0.436043 0.023603
vt 0.439294 0.023544
vt 0.442140 0.028024
vt 0.442715 0.025116
vt 0.446185 0.027108
vt 0.446185 0.027108
vt 0.445466 0.029621
vt 0.442140 0.028024
vt 0.445466 0.029621
vt 0.446185 0.027108
vt 0.448968 0.027066
vt 0.448968 0.027066
vt 0.448509 0.030065
vt 0.445466 0.029621
vt 0.448509 0.030065
vt 0.448968 0.027066
vt 0.457760 0.027081
vt 0.457760 0.027081
vt 0.457245 0.029218
vt 0.448509 0.030065
vt 0.457245 0.029218
vt 0.457760 0.027081
vt 0.469852 0.027515
vt 0.469852 0.027515
vt 0.469315 0.029432
vt 0.457245 0.029218
vt 0.469315 0.029432
vt 0.469852 0.027515
vt 0.482575 0.027635
vt 0.482575 0.027635
vt 0.482285 0.029459
vt 0.469315 0.029432
vt 0.482285 0.029459
vt 0.482575 0.027635
vt 0.495888 0.028001
vt 0.495888 0.028001
vt 0.495888 0.029718
vt 0.482285 0.029459
vt 0.020390 0.033351
vt 0.019225 0.030887
vt 0.430011 0.030829
vt 0.430011 0.030829
vt 0.429918 0.033355
vt 0.020390 0.033351
vt 0.018755 0.971462
vt 0.018755 0.030883
vt 0.020390 0.033351
vt 0.020390 0.033351
vt 0.020390 0.968996
vt 0.018755 0.971462
vt 0.436813 0.033008
vt 0.432154 0.033704
vt 0.432080 0.031834
vt 0.432080 0.031834
vt 0.436562 0.029865
vt 0.436813 0.033008
vt 0.438969 0.029568
vt 0.441626 0.030330
vt 0.441102 0.033155
vt 0.441102 0.033155
vt 0.438765 0.032904
vt 0.438969 0.029568
vt 0.444462 0.033619
vt 0.441102 0.033155
vt 0.441626 0.030330
vt 0.441626 0.030330
vt 0.444875 0.031550
vt 0.444462 0.033619
vt 0.448284 0.033748
vt 0.444462 0.033619
vt 0.444875 0.031550
vt 0.444875 0.031550
vt 0.448337 0.031884
vt 0.448284 0.033748
vt 0.457075 0.033273
vt 0.448284 0.033748
vt 0.448337 0.031884
vt 0.448337 0.031884
vt 0.456981 0.030633
vt 0.457075 0.033273
vt 0.469039 0.033301
vt 0.457075 0.033273
vt 0.456981 0.030633
vt 0.456981 0.030633
vt 0.469036 0.030710
vt 0.469039 0.033301
vt 0.482122 0.033299
vt 0.469039 0.033301
vt 0.469036 0.030710
vt 0.469036 0.030710
vt 0.482132 0.030700
vt 0.482122 0.033299
vt 0.495887 0.033349
vt 0.482122 0.033299
vt 0.482132 0.030700
vt 0.482132 0.030700
vt 0.495888 0.030849
vt 0.495887 0.033349
vt 0.022270 0.019443
vt 0.429140 0.019478
vt 0.429106 0.021935
vt 0.429106 0.021935
vt 0.020545 0.021885
vt 0.022270 0.019443
vt 0.431810 0.019710
vt 0.435819 0.019300
vt 0.435886 0.021508
vt 0.435886 0.021508
vt 0.431912 0.022722
vt 0.431810 0.019710
vt 0.439605 0.019640
vt 0.439375 0.021677
vt 0.435886 0.021508
vt 0.435886 0.021508
vt 0.435819 0.019300
vt 0.439605 0.019640
vt 0.443855 0.021006
vt 0.447484 0.022331
vt 0.446790 0.025158
vt 0.446790 0.025158
vt 0.443247 0.023439
vt 0.443855 0.021006
vt 0.447484 0.022331
vt 0.449431 0.022800
vt 0.449088 0.025668
vt 0.449088 0.025668
vt 0.446790 0.025158
vt 0.447484 0.022331
vt 0.449431 0.022800
vt 0.458007 0.023251
vt 0.457871 0.025726
vt 0.457871 0.025726
vt 0.449088 0.025668
vt 0.449431 0.022800
vt 0.458007 0.023251
vt 0.470111 0.023648
vt 0.470015 0.026122
vt 0.470015 0.026122
vt 0.457871 0.025726
vt 0.458007 0.023251
vt 0.470111 0.023648
vt 0.482784 0.023874
vt 0.482741 0.026334
vt 0.482741 0.026334
vt 0.470015 0.026122
vt 0.470111 0.023648
vt 0.482784 0.023874
vt 0.495889 0.024058
vt 0.495888 0.026662
vt 0.495888 0.026662
vt 0.482741 0.026334
vt 0.482784 0.023874
vt 0.019225 0.030887
vt 0.019227 0.028714
vt 0.429851 0.028673
vt 0.429851 0.028673
vt 0.430011 0.030829
vt 0.019225 0.030887
vt 0.016889 0.972279
vt 0.016889 0.030065
vt 0.018755 0.030883
vt 0.018755 0.030883
vt 0.018755 0.971462
vt 0.016889 0.972279
vt 0.436562 0.029865
vt 0.432080 0.031834
vt 0.432033 0.029968
vt 0.432033 0.029968
vt 0.436353 0.027169
vt 0.436562 0.029865
vt 0.439122 0.026875
vt 0.442140 0.028024
vt 0.441626 0.030330
vt 0.441626 0.030330
vt 0.438969 0.029568
vt 0.439122 0.026875
vt 0.444875 0.031550
vt 0.441626 0.030330
vt 0.442140 0.028024
vt 0.442140 0.028024
vt 0.445466 0.029621
vt 0.444875 0.031550
vt 0.448337 0.031884
vt 0.444875 0.031550
vt 0.445466 0.029621
vt 0.445466 0.029621
vt 0.448509 0.030065
vt 0.448337 0.031884
vt 0.456981 0.030633
vt 0.448337 0.031884
vt 0.448509 0.030065
vt 0.448509 0.030065
vt 0.457245 0.029218
vt 0.456981 0.030633
vt 0.469036 0.030710
vt 0.456981 0.030633
vt 0.457245 0.029218
vt 0.457245 0.029218
vt 0.469315 0.029432
vt 0.469036 0.030710
vt 0.482132 0.030700
vt 0.469036 0.030710
vt 0.469315 0.029432
vt 0.469315 0.029432
vt 0.482285 0.029459
vt 0.482132 0.030700
vt 0.495888 0.030849
vt 0.482132 0.030700
vt 0.482285 0.029459
vt 0.482285 0.029459
vt 0.495888 0.029718
vt 0.495888 0.030849
vt 0.020545 0.021885
vt 0.429106 0.021935
vt 0.429342 0.023790
vt 0.429342 0.023790
vt 0.019630 0.024095
vt 0.020545 0.021885
vt 0.431912 0.022722
vt 0.435886 0.021508
vt 0.436043 0.023603
vt 0.436043 0.023603
vt 0.431851 0.026219
vt 0.431912 0.022722
vt 0.439375 0.021677
vt 0.439294 0.023544
vt 0.436043 0.023603
vt 0.436043 0.023603
vt 0.435886 0.021508
vt 0.439375 0.021677
vt 0.443247 0.023439
vt 0.446790 0.025158
vt 0.446185 0.027108
vt 0.446185 0.027108
vt 0.442715 0.025116
vt 0.443247 0.023439
vt 0.446790 0.025158
vt 0.449088 0.025668
vt 0.448968 0.027066
vt 0.448968 0.027066
vt 0.446185 0.027108
vt 0.446790 0.025158
vt 0.449088 0.025668
vt 0.457871 0.025726
vt 0.457760 0.027081
vt 0.457760 0.027081
vt 0.448968 0.027066
vt 0.449088 0.025668
vt 0.457871 0.025726
vt 0.470015 0.026122
vt 0.469852 0.027515
vt 0.469852 0.027515
vt 0.457760 0.027081
vt 0.457871 0.025726
vt 0.470015 0.026122
vt 0.482741 0.026334
vt 0.482575 0.027635
vt 0.482575 0.027635
vt 0.469852 0.027515
vt 0.470015 0.026122
vt 0.482741 0.026334
vt 0.495888 0.026662
vt 0.495888 0.028001
vt 0.495888 0.028001
vt 0.482575 0.027635
vt 0.482741 0.026334
vt 0.436813 0.969342
vt 0.436813 0.033008
vt 0.438765 0.032904
vt 0.438765 0.032904
vt 0.438765 0.969448
vt 0.436813 0.969342
vt 0.439294 0.023544
vt 0.442715 0.025116
vt 0.442140 0.028024
vt 0.442140 0.028024
vt 0.439122 0.026875
vt 0.439294 0.023544
vt 0.436813 0.033008
vt 0.436562 0.029865
vt 0.438969 0.029568
vt 0.438969 0.029568
vt 0.438765 0.032904
vt 0.436813 0.033008
vt 0.439605 0.019640
vt 0.443855 0.021006
vt 0.443247 0.023439
vt 0.443247 0.023439
vt 0.439375 0.021677
vt 0.439605 0.019640
vt 0.436562 0.029865
vt 0.436353 0.027169
vt 0.439122 0.026875
vt 0.439122 0.026875
vt 0.438969 0.029568
vt 0.436562 0.029865
vt 0.439375 0.021677
vt 0.443247 0.023439
vt 0.442715 0.025116
vt 0.442715 0.025116
vt 0.439294 0.023544
vt 0.439375 0.021677
vt 0.431851 0.026219
vt 0.432033 0.029968
vt 0.429851 0.028673
vt 0.429851 0.028673
vt 0.429342 0.023790
vt 0.431851 0.026219
vt 0.432080 0.031834
vt 0.432154 0.033704
vt 0.429918 0.033355
vt 0.429918 0.033355
vt 0.430011 0.030829
vt 0.432080 0.031834
vt 0.431810 0.019710
vt 0.431912 0.022722
vt 0.429106 0.021935
vt 0.429106 0.021935
vt 0.429140 0.019478
vt 0.431810 0.019710
vt 0.432033 0.029968
vt 0.432080 0.031834
vt 0.430011 0.030829
vt 0.430011 0.030829
vt 0.429851 0.028673
vt 0.432033 0.029968
vt 0.431912 0.022722
vt 0.431851 0.026219
vt 0.429342 0.023790
vt 0.429342 0.023790
vt 0.429106 0.021935
vt 0.431912 0.022722
vt 0.429140 0.019478
vt 0.022270 0.019443
vt 0.036134 0.002058
vt 0.036134 0.002058
vt 0.429194 0.002093
vt 0.429140 0.019478
vt 0.436561 0.002096
vt 0.435819 0.019300
vt 0.431810 0.019710
vt 0.431810 0.019710
vt 0.432009 0.002074
vt 0.436561 0.002096
vt 0.441008 0.002585
vt 0.439605 0.019640
vt 0.435819 0.019300
vt 0.435819 0.019300
vt 0.436561 0.002096
vt 0.441008 0.002585
vt 0.449285 0.004862
vt 0.447484 0.022331
vt 0.443855 0.021006
vt 0.443855 0.021006
vt 0.445737 0.003760
vt 0.449285 0.004862
vt 0.450668 0.005274
vt 0.449431 0.022800
vt 0.447484 0.022331
vt 0.447484 0.022331
vt 0.449285 0.004862
vt 0.450668 0.005274
vt 0.458669 0.005871
vt 0.458007 0.023251
vt 0.449431 0.022800
vt 0.449431 0.022800
vt 0.450668 0.005274
vt 0.458669 0.005871
vt 0.470426 0.006257
vt 0.470111 0.023648
vt 0.458007 0.023251
vt 0.458007 0.023251
vt 0.458669 0.005871
vt 0.470426 0.006257
vt 0.482925 0.006479
vt 0.482784 0.023874
vt 0.470111 0.023648
vt 0.470111 0.023648
vt 0.470426 0.006257
vt 0.482925 0.006479
vt 0.495890 0.006598
vt 0.495889 0.024058
vt 0.482784 0.023874
vt 0.482784 0.023874
vt 0.482925 0.006479
vt 0.495890 0.006598
vt 0.445737 0.003760
vt 0.443855 0.021006
vt 0.439605 0.019640
vt 0.439605 0.019640
vt 0.441008 0.002585
vt 0.445737 0.003760
vt 0.432009 0.002074
vt 0.431810 0.019710
vt 0.429140 0.019478
vt 0.429140 0.019478
vt 0.429194 0.002093
vt 0.432009 0.002074
vt 0.016889 0.030065
vt 0.016889 0.972279
vt 0.013011 0.972278
vt 0.013011 0.972278
vt 0.013011 0.030065
vt 0.016889 0.030065
vt 0.009655 0.033333
vt 0.011182 0.030882
vt 0.011182 0.971461
vt 0.011182 0.971461
vt 0.009655 0.969009
vt 0.009655 0.033333
vt 0.011182 0.030882
vt 0.013011 0.030065
vt 0.013011 0.972278
vt 0.013011 0.972278
vt 0.011182 0.971461
vt 0.011182 0.030882
vt 0.432154 0.033704
vt 0.432154 0.968644
vt 0.429918 0.968992
vt 0.429918 0.968992
vt 0.429918 0.033355
vt 0.432154 0.033704
vt 0.561854 0.969025
vt 0.561854 0.033388
vt 0.971382 0.033384
vt 0.971382 0.033384
vt 0.971382 0.969030
vt 0.561854 0.969025
vt 0.554960 0.033037
vt 0.559618 0.033735
vt 0.559618 0.968676
vt 0.559618 0.968676
vt 0.554960 0.969372
vt 0.554960 0.033037
vt 0.550671 0.033181
vt 0.553008 0.032931
vt 0.553008 0.969476
vt 0.553008 0.969476
vt 0.550671 0.969224
vt 0.550671 0.033181
vt 0.547311 0.033642
vt 0.550671 0.033181
vt 0.550671 0.969224
vt 0.550671 0.969224
vt 0.547311 0.968759
vt 0.547311 0.033642
vt 0.543490 0.033768
vt 0.547311 0.033642
vt 0.547311 0.968759
vt 0.547311 0.968759
vt 0.543490 0.968630
vt 0.543490 0.033768
vt 0.534699 0.033288
vt 0.543490 0.033768
vt 0.543490 0.968630
vt 0.543490 0.968630
vt 0.534698 0.969105
vt 0.534699 0.033288
vt 0.522735 0.033310
vt 0.534699 0.033288
vt 0.534698 0.969105
vt 0.534698 0.969105
vt 0.522735 0.969075
vt 0.522735 0.033310
vt 0.509653 0.033302
vt 0.522735 0.033310
vt 0.522735 0.969075
vt 0.522735 0.969075
vt 0.509652 0.969077
vt 0.509653 0.033302
vt 0.495887 0.033349
vt 0.509653 0.033302
vt 0.509652 0.969077
vt 0.509652 0.969077
vt 0.495886 0.969026
vt 0.495887 0.033349
vt 0.972145 0.024128
vt 0.972547 0.028747
vt 0.561924 0.028706
vt 0.561924 0.028706
vt 0.562434 0.023823
vt 0.972145 0.024128
vt 0.559742 0.029999
vt 0.555422 0.027198
vt 0.555734 0.023632
vt 0.555734 0.023632
vt 0.559925 0.026251
vt 0.559742 0.029999
vt 0.552483 0.023572
vt 0.555734 0.023632
vt 0.555422 0.027198
vt 0.555422 0.027198
vt 0.552653 0.026902
vt 0.552483 0.023572
vt 0.549635 0.028050
vt 0.546309 0.029644
vt 0.545591 0.027131
vt 0.545591 0.027131
vt 0.549061 0.025142
vt 0.549635 0.028050
vt 0.546309 0.029644
vt 0.543266 0.030087
vt 0.542808 0.027087
vt 0.542808 0.027087
vt 0.545591 0.027131
vt 0.546309 0.029644
vt 0.543266 0.030087
vt 0.534530 0.029233
vt 0.534016 0.027097
vt 0.534016 0.027097
vt 0.542808 0.027087
vt 0.543266 0.030087
vt 0.534530 0.029233
vt 0.522460 0.029441
vt 0.521924 0.027524
vt 0.521924 0.027524
vt 0.534016 0.027097
vt 0.534530 0.029233
vt 0.522460 0.029441
vt 0.509490 0.029461
vt 0.509201 0.027636
vt 0.509201 0.027636
vt 0.521924 0.027524
vt 0.522460 0.029441
vt 0.509490 0.029461
vt 0.495888 0.029718
vt 0.495888 0.028001
vt 0.495888 0.028001
vt 0.509201 0.027636
vt 0.509490 0.029461
vt 0.971382 0.033384
vt 0.561854 0.033388
vt 0.561763 0.030862
vt 0.561763 0.030862
vt 0.972549 0.030920
vt 0.971382 0.033384
vt 0.554960 0.033037
vt 0.555212 0.029894
vt 0.559693 0.031865
vt 0.559693 0.031865
vt 0.559618 0.033735
vt 0.554960 0.033037
vt 0.552806 0.029596
vt 0.553008 0.032931
vt 0.550671 0.033181
vt 0.550671 0.033181
vt 0.550149 0.030355
vt 0.552806 0.029596
vt 0.547311 0.033642
vt 0.546899 0.031573
vt 0.550149 0.030355
vt 0.550149 0.030355
vt 0.550671 0.033181
vt 0.547311 0.033642
vt 0.543490 0.033768
vt 0.543437 0.031905
vt 0.546899 0.031573
vt 0.546899 0.031573
vt 0.547311 0.033642
vt 0.543490 0.033768
vt 0.534699 0.033288
vt 0.534794 0.030649
vt 0.543437 0.031905
vt 0.543437 0.031905
vt 0.543490 0.033768
vt 0.534699 0.033288
vt 0.522735 0.033310
vt 0.522739 0.030720
vt 0.534794 0.030649
vt 0.534794 0.030649
vt 0.534699 0.033288
vt 0.522735 0.033310
vt 0.509653 0.033302
vt 0.509644 0.030702
vt 0.522739 0.030720
vt 0.522739 0.030720
vt 0.522735 0.033310
vt 0.509653 0.033302
vt 0.495887 0.033349
vt 0.495888 0.030849
vt 0.509644 0.030702
vt 0.509644 0.030702
vt 0.509653 0.033302
vt 0.495887 0.033349
vt 0.969507 0.019475
vt 0.971231 0.021917
vt 0.562670 0.021967
vt 0.562670 0.021967
vt 0.562638 0.019510
vt 0.969507 0.019475
vt 0.559967 0.019741
vt 0.559865 0.022753
vt 0.555892 0.021537
vt 0.555892 0.021537
vt 0.555958 0.019329
vt 0.559967 0.019741
vt 0.552172 0.019668
vt 0.555958 0.019329
vt 0.555892 0.021537
vt 0.555892 0.021537
vt 0.552402 0.021705
vt 0.552172 0.019668
vt 0.547922 0.021031
vt 0.548530 0.023465
vt 0.544986 0.025181
vt 0.544986 0.025181
vt 0.544293 0.022354
vt 0.547922 0.021031
vt 0.544293 0.022354
vt 0.544986 0.025181
vt 0.542688 0.025689
vt 0.542688 0.025689
vt 0.542346 0.022822
vt 0.544293 0.022354
vt 0.542346 0.022822
vt 0.542688 0.025689
vt 0.533906 0.025742
vt 0.533906 0.025742
vt 0.533770 0.023267
vt 0.542346 0.022822
vt 0.533770 0.023267
vt 0.533906 0.025742
vt 0.521761 0.026131
vt 0.521761 0.026131
vt 0.521666 0.023658
vt 0.533770 0.023267
vt 0.521666 0.023658
vt 0.521761 0.026131
vt 0.509035 0.026336
vt 0.509035 0.026336
vt 0.508993 0.023877
vt 0.521666 0.023658
vt 0.508993 0.023877
vt 0.509035 0.026336
vt 0.495888 0.026662
vt 0.495888 0.026662
vt 0.495889 0.024058
vt 0.508993 0.023877
vt 0.972549 0.030920
vt 0.561763 0.030862
vt 0.561924 0.028706
vt 0.561924 0.028706
vt 0.972547 0.028747
vt 0.972549 0.030920
vt 0.555212 0.029894
vt 0.555422 0.027198
vt 0.559742 0.029999
vt 0.559742 0.029999
vt 0.559693 0.031865
vt 0.555212 0.029894
vt 0.552653 0.026902
vt 0.552806 0.029596
vt 0.550149 0.030355
vt 0.550149 0.030355
vt 0.549635 0.028050
vt 0.552653 0.026902
vt 0.546899 0.031573
vt 0.546309 0.029644
vt 0.549635 0.028050
vt 0.549635 0.028050
vt 0.550149 0.030355
vt 0.546899 0.031573
vt 0.543437 0.031905
vt 0.543266 0.030087
vt 0.546309 0.029644
vt 0.546309 0.029644
vt 0.546899 0.031573
vt 0.543437 0.031905
vt 0.534794 0.030649
vt 0.534530 0.029233
vt 0.543266 0.030087
vt 0.543266 0.030087
vt 0.543437 0.031905
vt 0.534794 0.030649
vt 0.522739 0.030720
vt 0.522460 0.029441
vt 0.534530 0.029233
vt 0.534530 0.029233
vt 0.534794 0.030649
vt 0.522739 0.030720
vt 0.509644 0.030702
vt 0.509490 0.029461
vt 0.522460 0.029441
vt 0.522460 0.029441
vt 0.522739 0.030720
vt 0.509644 0.030702
vt 0.495888 0.030849
vt 0.495888 0.029718
vt 0.509490 0.029461
vt 0.509490 0.029461
vt 0.509644 0.030702
vt 0.495888 0.030849
vt 0.971231 0.021917
vt 0.972145 0.024128
vt 0.562434 0.023823
vt 0.562434 0.023823
vt 0.562670 0.021967
vt 0.971231 0.021917
vt 0.559865 0.022753
vt 0.559925 0.026251
vt 0.555734 0.023632
vt 0.555734 0.023632
vt 0.555892 0.021537
vt 0.559865 0.022753
vt 0.552402 0.021705
vt 0.555892 0.021537
vt 0.555734 0.023632
vt 0.555734 0.023632
vt 0.552483 0.023572
vt 0.552402 0.021705
vt 0.548530 0.023465
vt 0.549061 0.025142
vt 0.545591 0.027131
vt 0.545591 0.027131
vt 0.544986 0.025181
vt 0.548530 0.023465
vt 0.544986 0.025181
vt 0.545591 0.027131
vt 0.542808 0.027087
vt 0.542808 0.027087
vt 0.542688 0.025689
vt 0.544986 0.025181
vt 0.542688 0.025689
vt 0.542808 0.027087
vt 0.534016 0.027097
vt 0.534016 0.027097
vt 0.533906 0.025742
vt 0.542688 0.025689
vt 0.533906 0.025742
vt 0.534016 0.027097
vt 0.521924 0.027524
vt 0.521924 0.027524
vt 0.521761 0.026131
vt 0.533906 0.025742
vt 0.521761 0.026131
vt 0.521924 0.027524
vt 0.509201 0.027636
vt 0.509201 0.027636
vt 0.509035 0.026336
vt 0.521761 0.026131
vt 0.509035 0.026336
vt 0.509201 0.027636
vt 0.495888 0.028001
vt 0.495888 0.028001
vt 0.495888 0.026662
vt 0.509035 0.026336
vt 0.553008 0.032931
vt 0.554960 0.033037
vt 0.554960 0.969372
vt 0.554960 0.969372
vt 0.553008 0.969476
vt 0.553008 0.032931
vt 0.552483 0.023572
vt 0.552653 0.026902
vt 0.549635 0.028050
vt 0.549635 0.028050
vt 0.549061 0.025142
vt 0.552483 0.023572
vt 0.554960 0.033037
vt 0.553008 0.032931
vt 0.552806 0.029596
vt 0.552806 0.029596
vt 0.555212 0.029894
vt 0.554960 0.033037
vt 0.552172 0.019668
vt 0.552402 0.021705
vt 0.548530 0.023465
vt 0.548530 0.023465
vt 0.547922 0.021031
vt 0.552172 0.019668
vt 0.555212 0.029894
vt 0.552806 0.029596
vt 0.552653 0.026902
vt 0.552653 0.026902
vt 0.555422 0.027198
vt 0.555212 0.029894
vt 0.552402 0.021705
vt 0.552483 0.023572
vt 0.549061 0.025142
vt 0.549061 0.025142
vt 0.548530 0.023465
vt 0.552402 0.021705
vt 0.559925 0.026251
vt 0.562434 0.023823
vt 0.561924 0.028706
vt 0.561924 0.028706
vt 0.559742 0.029999
vt 0.559925 0.026251
vt 0.559693 0.031865
vt 0.561763 0.030862
vt 0.561854 0.033388
vt 0.561854 0.033388
vt 0.559618 0.033735
vt 0.559693 0.031865
vt 0.559967 0.019741
vt 0.562638 0.019510
vt 0.562670 0.021967
vt 0.562670 0.021967
vt 0.559865 0.022753
vt 0.559967 0.019741
vt 0.559742 0.029999
vt 0.561924 0.028706
vt 0.561763 0.030862
vt 0.561763 0.030862
vt 0.559693 0.031865
vt 0.559742 0.029999
vt 0.559865 0.022753
vt 0.562670 0.021967
vt 0.562434 0.023823
vt 0.562434 0.023823
vt 0.559925 0.026251
vt 0.559865 0.022753
vt 0.562638 0.019510
vt 0.562584 0.002124
vt 0.955644 0.002089
vt 0.955644 0.002089
vt 0.969507 0.019475
vt 0.562638 0.019510
vt 0.555219 0.002125
vt 0.559770 0.002104
vt 0.559967 0.019741
vt 0.559967 0.019741
vt 0.555958 0.019329
vt 0.555219 0.002125
vt 0.550774 0.002612
vt 0.555219 0.002125
vt 0.555958 0.019329
vt 0.555958 0.019329
vt 0.552172 0.019668
vt 0.550774 0.002612
vt 0.542498 0.004884
vt 0.546046 0.003784
vt 0.547922 0.021031
vt 0.547922 0.021031
vt 0.544293 0.022354
vt 0.542498 0.004884
vt 0.541115 0.005295
vt 0.542498 0.004884
vt 0.544293 0.022354
vt 0.544293 0.022354
vt 0.542346 0.022822
vt 0.541115 0.005295
vt 0.533114 0.005887
vt 0.541115 0.005295
vt 0.542346 0.022822
vt 0.542346 0.022822
vt 0.533770 0.023267
vt 0.533114 0.005887
vt 0.521356 0.006266
vt 0.533114 0.005887
vt 0.533770 0.023267
vt 0.533770 0.023267
vt 0.521666 0.023658
vt 0.521356 0.006266
vt 0.508856 0.006483
vt 0.521356 0.006266
vt 0.521666 0.023658
vt 0.521666 0.023658
vt 0.508993 0.023877
vt 0.508856 0.006483
vt 0.495890 0.006598
vt 0.508856 0.006483
vt 0.508993 0.023877
vt 0.508993 0.023877
vt 0.495889 0.024058
vt 0.495890 0.006598
vt 0.546046 0.003784
vt 0.550774 0.002612
vt 0.552172 0.019668
vt 0.552172 0.019668
vt 0.547922 0.021031
vt 0.546046 0.003784
vt 0.559770 0.002104
vt 0.562584 0.002124
vt 0.562638 0.019510
vt 0.562638 0.019510
vt 0.559967 0.019741
vt 0.559770 0.002104
vt 0.980588 0.971498
vt 0.980588 0.030919
vt 0.982115 0.033371
vt 0.982115 0.033371
vt 0.982115 0.969047
vt 0.980588 0.971498
vt 0.978760 0.972315
vt 0.978760 0.030102
vt 0.980588 0.030919
vt 0.980588 0.030919
vt 0.980588 0.971498
vt 0.978760 0.972315
vt 0.561854 0.969025
vt 0.559618 0.968676
vt 0.559618 0.033735
vt 0.559618 0.033735
vt 0.561854 0.033388
vt 0.561854 0.969025
vt 0.982115 0.969047
vt 0.982115 0.033371
vt 0.995885 0.050791
vt 0.995885 0.050791
vt 0.995885 0.951627
vt 0.982115 0.969047
f 1/1 2/2 3/3
f 3/4 4/5 1/6
f 5/7 6/8 7/9
f 7/10 8/11 5/12
f 9/13 10/14 11/15
f 11/16 12/17 9/18
f 13/19 11/20 10/21
f 10/22 14/23 13/24
f 15/25 16/26 17/27
f 17/28 18/29 15/30
f 16/31 19/32 20/33
f 20/34 17/35 16/36
f 19/37 21/38 22/39
f 22/40 20/41 19/42
f 21/43 23/44 24/45
f 24/46 22/47 21/48
f 23/49 25/50 26/51
f 26/52 24/53 23/54
f 25/55 27/56 28/57
f 28/58 26/59 25/60
f 4/61 3/62 29/63
f 29/64 30/65 4/66
f 31/67 32/68 33/69
f 33/70 34/71 31/72
f 35/73 36/74 37/75
f 37/76 38/77 35/78
f 39/79 40/80 38/81
f 38/82 37/83 39/84
f 41/85 42/86 40/87
f 40/88 39/89 41/90
f 43/91 44/92 42/93
f 42/94 41/95 43/96
f 45/97 46/98 44/99
f 44/100 43/101 45/102
f 47/103 48/104 46/105
f 46/106 45/107 47/108
f 49/109 50/110 48/111
f 48/112 47/113 49/114
f 51/115 52/116 53/117
f 53/118 54/119 51/120
f 55/121 56/122 57/123
f 57/124 58/125 55/126
f 59/127 58/128 57/129
f 57/130 60/131 59/132
f 61/133 62/134 63/135
f 63/136 64/137 61/138
f 64/139 63/140 65/141
f 65/142 66/143 64/144
f 66/145 65/146 67/147
f 67/148 68/149 66/150
f 68/151 67/152 69/153
f 69/154 70/155 68/156
f 70/157 69/158 71/159
f 71/160 72/161 70/162
f 72/163 71/164 73/165
f 73/166 74/167 72/168
f 30/169 29/170 7/171
f 7/172 6/173 30/174
f 32/175 10/176 9/177
f 9/178 33/179 32/180
f 14/181 35/182 38/183
f 38/184 15/185 14/186
f 40/187 16/188 15/189
f 15/190 38/191 40/192
f 42/193 19/194 16/195
f 16/196 40/197 42/198
f 44/199 21/200 19/201
f 19/202 42/203 44/204
f 46/205 23/206 21/207
f 21/208 44/209 46/210
f 48/211 25/212 23/213
f 23/214 46/215 48/216
f 50/217 27/218 25/219
f 25/220 48/221 50/222
f 52/223 5/224 8/225
f 8/226 53/227 52/228
f 56/229 12/230 11/231
f 11/232 57/233 56/234
f 60/235 57/236 11/237
f 11/238 13/239 60/240
f 62/241 18/242 17/243
f 17/244 63/245 62/246
f 63/247 17/248 20/249
f 20/250 65/251 63/252
f 65/253 20/254 22/255
f 22/256 67/257 65/258
f 67/259 22/260 24/261
f 24/262 69/263 67/264
f 69/265 24/266 26/267
f 26/268 71/269 69/270
f 71/271 26/272 28/273
f 28/274 73/275 71/276
f 13/277 14/278 15/279
f 15/280 18/281 13/282
f 31/283 36/284 35/285
f 35/286 32/287 31/288
f 59/289 60/290 62/291
f 62/292 61/293 59/294
f 32/295 35/296 14/297
f 14/298 10/299 32/300
f 60/301 13/302 18/303
f 18/304 62/305 60/306
f 12/307 8/308 7/309
f 7/310 9/311 12/312
f 33/313 29/314 3/315
f 3/316 34/317 33/318
f 55/319 54/320 53/321
f 53/322 56/323 55/324
f 9/325 7/326 29/327
f 29/328 33/329 9/330
f 56/331 53/332 8/333
f 8/334 12/335 56/336
f 54/337 75/338 76/339
f 76/340 51/341 54/342
f 77/343 78/344 55/345
f 55/346 58/347 77/348
f 79/349 77/350 58/351
f 58/352 59/353 79/354
f 80/355 81/356 61/357
f 61/358 64/359 80/360
f 82/361 80/362 64/363
f 64/364 66/365 82/366
f 83/367 82/368 66/369
f 66/370 68/371 83/372
f 84/373 83/374 68/375
f 68/376 70/377 84/378
f 85/379 84/380 70/381
f 70/382 72/383 85/384
f 86/385 85/386 72/387
f 72/388 74/389 86/390
f 81/391 79/392 59/393
f 59/394 61/395 81/396
f 78/397 75/398 54/399
f 54/400 55/401 78/402
f 87/403 51/404 76/405
f 76/406 88/407 87/408
f 89/409 90/410 91/411
f 91/412 92/413 89/414
f 93/415 94/416 95/417
f 95/418 96/419 93/420
f 97/421 98/422 96/423
f 96/424 95/425 97/426
f 99/427 100/428 101/429
f 101/430 102/431 99/432
f 102/433 101/434 103/435
f 103/436 104/437 102/438
f 104/439 103/440 105/441
f 105/442 106/443 104/444
f 106/445 105/446 107/447
f 107/448 108/449 106/450
f 108/451 107/452 109/453
f 109/454 110/455 108/456
f 110/457 109/458 28/459
f 28/460 27/461 110/462
f 111/463 112/464 113/465
f 113/466 114/467 111/468
f 115/469 112/470 111/471
f 111/472 116/473 115/474
f 117/475 118/476 119/477
f 119/478 120/479 117/480
f 121/481 122/482 123/483
f 123/484 124/485 121/486
f 125/487 123/488 122/489
f 122/490 126/491 125/492
f 127/493 125/494 126/495
f 126/496 128/497 127/498
f 129/499 127/500 128/501
f 128/502 130/503 129/504
f 131/505 129/506 130/507
f 130/508 132/509 131/510
f 133/511 131/512 132/513
f 132/514 134/515 133/516
f 49/517 133/518 134/519
f 134/520 50/521 49/522
f 135/523 136/524 137/525
f 137/526 138/527 135/528
f 139/529 140/530 141/531
f 141/532 142/533 139/534
f 143/535 144/536 141/537
f 141/538 140/539 143/540
f 145/541 146/542 147/543
f 147/544 148/545 145/546
f 146/547 149/548 150/549
f 150/550 147/551 146/552
f 149/553 151/554 152/555
f 152/556 150/557 149/558
f 151/559 153/560 154/561
f 154/562 152/563 151/564
f 153/565 155/566 156/567
f 156/568 154/569 153/570
f 155/571 74/572 73/573
f 73/574 156/575 155/576
f 112/577 92/578 91/579
f 91/580 113/581 112/582
f 157/583 92/584 112/585
f 112/586 115/587 157/588
f 120/589 119/590 93/591
f 93/592 96/593 120/594
f 98/595 99/596 122/597
f 122/598 121/599 98/600
f 126/601 122/602 99/603
f 99/604 102/605 126/606
f 128/607 126/608 102/609
f 102/610 104/611 128/612
f 130/613 128/614 104/615
f 104/616 106/617 130/618
f 132/619 130/620 106/621
f 106/622 108/623 132/624
f 134/625 132/626 108/627
f 108/628 110/629 134/630
f 50/631 134/632 110/633
f 110/634 27/635 50/636
f 138/637 137/638 90/639
f 90/640 89/641 138/642
f 142/643 141/644 95/645
f 95/646 94/647 142/648
f 144/649 97/650 95/651
f 95/652 141/653 144/654
f 148/655 147/656 101/657
f 101/658 100/659 148/660
f 147/661 150/662 103/663
f 103/664 101/665 147/666
f 150/667 152/668 105/669
f 105/670 103/671 150/672
f 152/673 154/674 107/675
f 107/676 105/677 152/678
f 154/679 156/680 109/681
f 109/682 107/683 154/684
f 156/685 73/686 28/687
f 28/688 109/689 156/690
f 97/691 100/692 99/693
f 99/694 98/695 97/696
f 117/697 120/698 121/699
f 121/700 124/701 117/702
f 143/703 145/704 148/705
f 148/706 144/707 143/708
f 120/709 96/710 98/711
f 98/712 121/713 120/714
f 144/715 148/716 100/717
f 100/718 97/719 144/720
f 94/721 93/722 91/723
f 91/724 90/725 94/726
f 119/727 118/728 114/729
f 114/730 113/731 119/732
f 139/733 142/734 137/735
f 137/736 136/737 139/738
f 93/739 119/740 113/741
f 113/742 91/743 93/744
f 142/745 94/746 90/747
f 90/748 137/749 142/750
f 136/751 135/752 158/753
f 158/754 159/755 136/756
f 160/757 140/758 139/759
f 139/760 161/761 160/762
f 162/763 143/764 140/765
f 140/766 160/767 162/768
f 163/769 146/770 145/771
f 145/772 164/773 163/774
f 165/775 149/776 146/777
f 146/778 163/779 165/780
f 166/781 151/782 149/783
f 149/784 165/785 166/786
f 167/787 153/788 151/789
f 151/790 166/791 167/792
f 168/793 155/794 153/795
f 153/796 167/797 168/798
f 86/799 74/800 155/801
f 155/802 168/803 86/804
f 164/805 145/806 143/807
f 143/808 162/809 164/810
f 161/811 139/812 136/813
f 136/814 159/815 161/816
f 89/817 92/818 157/819
f 157/820 169/821 89/822
f 34/823 170/824 171/825
f 171/826 31/827 34/828
f 36/829 172/830 173/831
f 173/832 37/833 36/834
f 37/835 173/836 174/837
f 174/838 39/839 37/840
f 39/841 174/842 175/843
f 175/844 41/845 39/846
f 41/847 175/848 176/849
f 176/850 43/851 41/852
f 43/853 176/854 177/855
f 177/856 45/857 43/858
f 45/859 177/860 178/861
f 178/862 47/863 45/864
f 47/865 178/866 179/867
f 179/868 49/869 47/870
f 180/871 181/872 182/873
f 182/874 183/875 180/876
f 184/877 185/878 186/879
f 186/880 187/881 184/882
f 188/883 189/884 187/885
f 187/886 186/887 188/888
f 190/889 191/890 192/891
f 192/892 193/893 190/894
f 193/895 192/896 194/897
f 194/898 195/899 193/900
f 195/901 194/902 196/903
f 196/904 197/905 195/906
f 197/907 196/908 198/909
f 198/910 199/911 197/912
f 199/913 198/914 200/915
f 200/916 201/917 199/918
f 201/919 200/920 202/921
f 202/922 203/923 201/924
f 1/925 204/926 205/927
f 205/928 2/929 1/930
f 30/931 204/932 1/933
f 1/934 4/935 30/936
f 171/937 170/938 206/939
f 206/940 207/941 171/942
f 208/943 209/944 173/945
f 173/946 172/947 208/948
f 174/949 173/950 209/951
f 209/952 210/953 174/954
f 175/955 174/956 210/957
f 210/958 211/959 175/960
f 176/961 175/962 211/963
f 211/964 212/965 176/966
f 177/967 176/968 212/969
f 212/970 213/971 177/972
f 178/973 177/974 213/975
f 213/976 214/977 178/978
f 179/979 178/980 214/981
f 214/982 215/983 179/984
f 87/985 216/986 217/987
f 217/988 218/989 87/990
f 219/991 220/992 221/993
f 221/994 222/995 219/996
f 223/997 224/998 221/999
f 221/1000 220/1001 223/1002
f 225/1003 226/1004 227/1005
f 227/1006 228/1007 225/1008
f 226/1009 229/1010 230/1011
f 230/1012 227/1013 226/1014
f 229/1015 231/1016 232/1017
f 232/1018 230/1019 229/1020
f 231/1021 233/1022 234/1023
f 234/1024 232/1025 231/1026
f 233/1027 235/1028 236/1029
f 236/1030 234/1031 233/1032
f 235/1033 237/1034 238/1035
f 238/1036 236/1037 235/1038
f 204/1039 183/1040 182/1041
f 182/1042 205/1043 204/1044
f 6/1045 183/1046 204/1047
f 204/1048 30/1049 6/1050
f 207/1051 206/1052 184/1053
f 184/1054 187/1055 207/1056
f 189/1057 190/1058 209/1059
f 209/1060 208/1061 189/1062
f 210/1063 209/1064 190/1065
f 190/1066 193/1067 210/1068
f 211/1069 210/1070 193/1071
f 193/1072 195/1073 211/1074
f 212/1075 211/1076 195/1077
f 195/1078 197/1079 212/1080
f 213/1081 212/1082 197/1083
f 197/1084 199/1085 213/1086
f 214/1087 213/1088 199/1089
f 199/1090 201/1091 214/1092
f 215/1093 214/1094 201/1095
f 201/1096 203/1097 215/1098
f 218/1099 217/1100 181/1101
f 181/1102 180/1103 218/1104
f 222/1105 221/1106 186/1107
f 186/1108 185/1109 222/1110
f 224/1111 188/1112 186/1113
f 186/1114 221/1115 224/1116
f 228/1117 227/1118 192/1119
f 192/1120 191/1121 228/1122
f 227/1123 230/1124 194/1125
f 194/1126 192/1127 227/1128
f 230/1129 232/1130 196/1131
f 196/1132 194/1133 230/1134
f 232/1135 234/1136 198/1137
f 198/1138 196/1139 232/1140
f 234/1141 236/1142 200/1143
f 200/1144 198/1145 234/1146
f 236/1147 238/1148 202/1149
f 202/1150 200/1151 236/1152
f 31/1153 171/1154 172/1155
f 172/1156 36/1157 31/1158
f 188/1159 191/1160 190/1161
f 190/1162 189/1163 188/1164
f 171/1165 207/1166 208/1167
f 208/1168 172/1169 171/1170
f 223/1171 225/1172 228/1173
f 228/1174 224/1175 223/1176
f 207/1177 187/1178 189/1179
f 189/1180 208/1181 207/1182
f 224/1183 228/1184 191/1185
f 191/1186 188/1187 224/1188
f 185/1189 184/1190 182/1191
f 182/1192 181/1193 185/1194
f 206/1195 170/1196 2/1197
f 2/1198 205/1199 206/1200
f 219/1201 222/1202 217/1203
f 217/1204 216/1205 219/1206
f 184/1207 206/1208 205/1209
f 205/1210 182/1211 184/1212
f 222/1213 185/1214 181/1215
f 181/1216 217/1217 222/1218
f 216/1219 87/1220 88/1221
f 88/1222 239/1223 216/1224
f 240/1225 220/1226 219/1227
f 219/1228 241/1229 240/1230
f 242/1231 223/1232 220/1233
f 220/1234 240/1235 242/1236
f 243/1237 226/1238 225/1239
f 225/1240 244/1241 243/1242
f 245/1243 229/1244 226/1245
f 226/1246 243/1247 245/1248
f 246/1249 231/1250 229/1251
f 229/1252 245/1253 246/1254
f 247/1255 233/1256 231/1257
f 231/1258 246/1259 247/1260
f 248/1261 235/1262 233/1263
f 233/1264 247/1265 248/1266
f 249/1267 237/1268 235/1269
f 235/1270 248/1271 249/1272
f 244/1273 225/1274 223/1275
f 223/1276 242/1277 244/1278
f 241/1279 219/1280 216/1281
f 216/1282 239/1283 241/1284
f 183/1285 6/1286 5/1287
f 5/1288 180/1289 183/1290
f 87/1291 218/1292 52/1293
f 52/1294 51/1295 87/1296
f 218/1297 180/1298 5/1299
f 5/1300 52/1301 218/1302
f 170/1303 34/1304 3/1305
f 3/1306 2/1307 170/1308
f 114/1309 250/1310 116/1311
f 116/1312 111/1313 114/1314
f 251/1315 252/1316 118/1317
f 118/1318 117/1319 251/1320
f 253/1321 254/1322 124/1323
f 124/1324 123/1325 253/1326
f 255/1327 253/1328 123/1329
f 123/1330 125/1331 255/1332
f 256/1333 255/1334 125/1335
f 125/1336 127/1337 256/1338
f 257/1339 256/1340 127/1341
f 127/1342 129/1343 257/1344
f 258/1345 257/1346 129/1347
f 129/1348 131/1349 258/1350
f 259/1351 258/1352 131/1353
f 131/1354 133/1355 259/1356
f 179/1357 259/1358 133/1359
f 133/1360 49/1361 179/1362
f 169/1363 157/1364 260/1365
f 260/1366 261/1367 169/1368
f 262/1369 263/1370 264/1371
f 264/1372 265/1373 262/1374
f 266/1375 264/1376 263/1377
f 263/1378 267/1379 266/1380
f 268/1381 269/1382 270/1383
f 270/1384 271/1385 268/1386
f 269/1387 272/1388 273/1389
f 273/1390 270/1391 269/1392
f 272/1393 274/1394 275/1395
f 275/1396 273/1397 272/1398
f 274/1399 276/1400 277/1401
f 277/1402 275/1403 274/1404
f 276/1405 278/1406 279/1407
f 279/1408 277/1409 276/1410
f 278/1411 203/1412 202/1413
f 202/1414 279/1415 278/1416
f 116/1417 250/1418 280/1419
f 280/1420 115/1421 116/1422
f 251/1423 281/1424 282/1425
f 282/1426 252/1427 251/1428
f 283/1429 254/1430 253/1431
f 253/1432 284/1433 283/1434
f 255/1435 285/1436 284/1437
f 284/1438 253/1439 255/1440
f 256/1441 286/1442 285/1443
f 285/1444 255/1445 256/1446
f 257/1447 287/1448 286/1449
f 286/1450 256/1451 257/1452
f 258/1453 288/1454 287/1455
f 287/1456 257/1457 258/1458
f 259/1459 289/1460 288/1461
f 288/1462 258/1463 259/1464
f 179/1465 215/1466 289/1467
f 289/1468 259/1469 179/1470
f 290/1471 291/1472 292/1473
f 292/1474 293/1475 290/1476
f 294/1477 295/1478 296/1479
f 296/1480 297/1481 294/1482
f 298/1483 297/1484 296/1485
f 296/1486 299/1487 298/1488
f 300/1489 301/1490 302/1491
f 302/1492 303/1493 300/1494
f 303/1495 302/1496 304/1497
f 304/1498 305/1499 303/1500
f 305/1501 304/1502 306/1503
f 306/1504 307/1505 305/1506
f 307/1507 306/1508 308/1509
f 308/1510 309/1511 307/1512
f 309/1513 308/1514 310/1515
f 310/1516 311/1517 309/1518
f 311/1519 310/1520 238/1521
f 238/1522 237/1523 311/1524
f 115/1525 280/1526 260/1527
f 260/1528 157/1529 115/1530
f 281/1531 263/1532 262/1533
f 262/1534 282/1535 281/1536
f 267/1537 283/1538 284/1539
f 284/1540 268/1541 267/1542
f 285/1543 269/1544 268/1545
f 268/1546 284/1547 285/1548
f 286/1549 272/1550 269/1551
f 269/1552 285/1553 286/1554
f 287/1555 274/1556 272/1557
f 272/1558 286/1559 287/1560
f 288/1561 276/1562 274/1563
f 274/1564 287/1565 288/1566
f 289/1567 278/1568 276/1569
f 276/1570 288/1571 289/1572
f 215/1573 203/1574 278/1575
f 278/1576 289/1577 215/1578
f 291/1579 169/1580 261/1581
f 261/1582 292/1583 291/1584
f 295/1585 265/1586 264/1587
f 264/1588 296/1589 295/1590
f 299/1591 296/1592 264/1593
f 264/1594 266/1595 299/1596
f 301/1597 271/1598 270/1599
f 270/1600 302/1601 301/1602
f 302/1603 270/1604 273/1605
f 273/1606 304/1607 302/1608
f 304/1609 273/1610 275/1611
f 275/1612 306/1613 304/1614
f 306/1615 275/1616 277/1617
f 277/1618 308/1619 306/1620
f 308/1621 277/1622 279/1623
f 279/1624 310/1625 308/1626
f 310/1627 279/1628 202/1629
f 202/1630 238/1631 310/1632
f 254/1633 251/1634 117/1635
f 117/1636 124/1637 254/1638
f 266/1639 267/1640 268/1641
f 268/1642 271/1643 266/1644
f 251/1645 254/1646 283/1647
f 283/1648 281/1649 251/1650
f 298/1651 299/1652 301/1653
f 301/1654 300/1655 298/1656
f 281/1657 283/1658 267/1659
f 267/1660 263/1661 281/1662
f 299/1663 266/1664 271/1665
f 271/1666 301/1667 299/1668
f 265/1669 261/1670 260/1671
f 260/1672 262/1673 265/1674
f 282/1675 280/1676 250/1677
f 250/1678 252/1679 282/1680
f 294/1681 293/1682 292/1683
f 292/1684 295/1685 294/1686
f 262/1687 260/1688 280/1689
f 280/1690 282/1691 262/1692
f 295/1693 292/1694 261/1695
f 261/1696 265/1697 295/1698
f 293/1699 312/1700 313/1701
f 313/1702 290/1703 293/1704
f 314/1705 315/1706 294/1707
f 294/1708 297/1709 314/1710
f 316/1711 314/1712 297/1713
f 297/1714 298/1715 316/1716
f 317/1717 318/1718 300/1719
f 300/1720 303/1721 317/1722
f 319/1723 317/1724 303/1725
f 303/1726 305/1727 319/1728
f 320/1729 319/1730 305/1731
f 305/1732 307/1733 320/1734
f 321/1735 320/1736 307/1737
f 307/1738 309/1739 321/1740
f 322/1741 321/1742 309/1743
f 309/1744 311/1745 322/1746
f 249/1747 322/1748 311/1749
f 311/1750 237/1751 249/1752
f 318/1753 316/1754 298/1755
f 298/1756 300/1757 318/1758
f 315/1759 312/1760 293/1761
f 293/1762 294/1763 315/1764
f 138/1765 291/1766 290/1767
f 290/1768 135/1769 138/1770
f 89/1771 169/1772 291/1773
f 291/1774 138/1775 89/1776
f 114/1777 118/1778 252/1779
f 252/1780 250/1781 114/1782
f 135/1783 290/1784 313/1785
f 313/1786 158/1787 135/1788
