# USD → MuJoCo (world-space)
v -0.043714 -0.073149 0.036320
v -0.043829 -0.072970 0.036320
v -0.043829 -0.072970 0.076464
v -0.043714 -0.073149 0.076464
v -0.044929 -0.073234 0.076464
v -0.044758 -0.072970 0.076464
v -0.044758 -0.072970 0.036320
v -0.044929 -0.073234 0.036320
v -0.043829 -0.079622 0.076464
v -0.044758 -0.079622 0.076464
v -0.044758 -0.079622 0.036320
v -0.043829 -0.079622 0.036320
v -0.044929 -0.079358 0.076464
v -0.044929 -0.079358 0.036320
v -0.043714 -0.079443 0.076464
v -0.043714 -0.079443 0.036320
v -0.029750 -0.079622 0.077477
v -0.029750 -0.079622 0.078618
v -0.029879 -0.079423 0.078380
v -0.029934 -0.079338 0.078047
v -0.029879 -0.079423 0.077715
v -0.028821 -0.079622 0.077108
v -0.028821 -0.079622 0.078987
v -0.028864 -0.079622 0.079004
v -0.029181 -0.079622 0.079004
v -0.029478 -0.079622 0.078888
v -0.029720 -0.079622 0.078672
v -0.029720 -0.079622 0.077423
v -0.029478 -0.079622 0.077206
v -0.029181 -0.079622 0.077091
v -0.028864 -0.079622 0.077091
v -0.029478 -0.072970 0.077206
v -0.029720 -0.072970 0.077423
v -0.029750 -0.072970 0.077477
v -0.029750 -0.072970 0.078618
v -0.029720 -0.072970 0.078672
v -0.028864 -0.072970 0.079004
v -0.028821 -0.072970 0.078987
v -0.028821 -0.072970 0.077108
v -0.029181 -0.072970 0.079004
v -0.029478 -0.072970 0.078888
v -0.028864 -0.072970 0.077091
v -0.029181 -0.072970 0.077091
v -0.029879 -0.073170 0.077715
v -0.029934 -0.073255 0.078047
v -0.029879 -0.073170 0.078380
v -0.028213 -0.078682 0.077628
v -0.028213 -0.078682 0.078466
v -0.028324 -0.078854 0.078672
v -0.028567 -0.079229 0.078888
v -0.028567 -0.079229 0.077206
v -0.028324 -0.078854 0.077423
v -0.028213 -0.073911 0.077628
v -0.028324 -0.073739 0.077423
v -0.028567 -0.073364 0.077206
v -0.028567 -0.073364 0.078888
v -0.028324 -0.073739 0.078672
v -0.028213 -0.073911 0.078466
v -0.028166 -0.078754 0.077715
v -0.028111 -0.078840 0.078047
v -0.028166 -0.078754 0.078380
v -0.028111 -0.073753 0.078047
v -0.028166 -0.073838 0.077715
v -0.028166 -0.073838 0.078380
v -0.058301 -0.073801 0.077715
v -0.058460 -0.073556 0.077423
v -0.058703 -0.073179 0.077205
v -0.058838 -0.072970 0.077154
v -0.058838 -0.072970 0.078941
v -0.058702 -0.073181 0.078888
v -0.058460 -0.073556 0.078672
v -0.058301 -0.073801 0.078380
v -0.058246 -0.073886 0.078047
v -0.059856 -0.079485 0.078672
v -0.060014 -0.079240 0.078380
v -0.060069 -0.079155 0.078047
v -0.060014 -0.079240 0.077715
v -0.059856 -0.079485 0.077423
v -0.059767 -0.079622 0.077344
v -0.059767 -0.079622 0.078751
v -0.059856 -0.073108 0.078672
v -0.059767 -0.072970 0.078751
v -0.059767 -0.072970 0.077344
v -0.059856 -0.073108 0.077423
v -0.060014 -0.073353 0.077715
v -0.060069 -0.073438 0.078047
v -0.060014 -0.073353 0.078380
v -0.058838 -0.079622 0.077154
v -0.058838 -0.079622 0.078941
v -0.058999 -0.079622 0.079004
v -0.059316 -0.079622 0.079004
v -0.059613 -0.079622 0.078888
v -0.059613 -0.079622 0.077206
v -0.059316 -0.079622 0.077091
v -0.058999 -0.079622 0.077091
v -0.058999 -0.072970 0.077091
v -0.059316 -0.072970 0.077091
v -0.059613 -0.072970 0.077206
v -0.059613 -0.072970 0.078888
v -0.058999 -0.072970 0.079004
v -0.059316 -0.072970 0.079004
v -0.058246 -0.078706 0.078047
v -0.058301 -0.078791 0.078380
v -0.058460 -0.079036 0.078672
v -0.058702 -0.079412 0.078888
v -0.058703 -0.079414 0.077205
v -0.058460 -0.079036 0.077423
v -0.058301 -0.078791 0.077715
v -0.039643 -0.079622 0.032535
v -0.040470 -0.079622 0.032535
v -0.040470 -0.079622 0.011816
v -0.039643 -0.079622 0.011816
v -0.048118 -0.072970 0.032535
v -0.048129 -0.072970 0.011816
v -0.048148 -0.072970 0.032535
v -0.044758 -0.079622 0.011816
v -0.043829 -0.079622 0.011816
v -0.043829 -0.079622 0.013111
v -0.044758 -0.079622 0.013111
v -0.043829 -0.072970 0.011816
v -0.044758 -0.072970 0.011816
v -0.044758 -0.072970 0.013111
v -0.043829 -0.072970 0.013111
v -0.041685 -0.079622 0.011816
v -0.041078 -0.078681 0.011816
v -0.041078 -0.078681 0.013111
v -0.041685 -0.079622 0.013111
v -0.042614 -0.079622 0.011816
v -0.042614 -0.079622 0.013111
v -0.045973 -0.079622 0.011816
v -0.045366 -0.078681 0.011816
v -0.045366 -0.078681 0.013111
v -0.045973 -0.079622 0.013111
v -0.046903 -0.079622 0.011816
v -0.046903 -0.079622 0.013111
v -0.042614 -0.072970 0.011816
v -0.043222 -0.073911 0.011816
v -0.043222 -0.073911 0.013111
v -0.042614 -0.072970 0.013111
v -0.041685 -0.072970 0.011816
v -0.041685 -0.072970 0.013111
v -0.046903 -0.072970 0.013111
v -0.046903 -0.072970 0.011816
v -0.047510 -0.073911 0.011816
v -0.046903 -0.072970 0.032535
v -0.046903 -0.072970 0.031241
v -0.046933 -0.073017 0.031241
v -0.047510 -0.073911 0.032535
v -0.046933 -0.073017 0.013111
v -0.045973 -0.072970 0.011816
v -0.045973 -0.072970 0.013111
v -0.043222 -0.078681 0.011816
v -0.043222 -0.078681 0.013111
v -0.048118 -0.079622 0.011816
v -0.047510 -0.078681 0.011816
v -0.047510 -0.078681 0.032535
v -0.048118 -0.079622 0.032535
v -0.041078 -0.073911 0.011816
v -0.041078 -0.073911 0.013111
v -0.045366 -0.073911 0.011816
v -0.045366 -0.073911 0.013111
v -0.040858 -0.073571 0.013111
v -0.040470 -0.072970 0.011816
v -0.048148 -0.079622 0.032535
v -0.048148 -0.079622 0.011816
v -0.039643 -0.072970 0.032535
v -0.039643 -0.072970 0.011816
v -0.040470 -0.072970 0.032535
v -0.045973 -0.079622 0.032535
v -0.045973 -0.079622 0.031241
v -0.045366 -0.078682 0.031241
v -0.045366 -0.078682 0.032535
v -0.042614 -0.072970 0.032535
v -0.042614 -0.072970 0.031241
v -0.043222 -0.073911 0.031241
v -0.043222 -0.073911 0.032535
v -0.043829 -0.079622 0.031241
v -0.043222 -0.078681 0.031241
v -0.043222 -0.078681 0.032535
v -0.043829 -0.079622 0.032535
v -0.044758 -0.072970 0.031241
v -0.045366 -0.073911 0.031241
v -0.045366 -0.073911 0.032535
v -0.044758 -0.072970 0.032535
v -0.041685 -0.079622 0.032535
v -0.041685 -0.079622 0.031241
v -0.041078 -0.078682 0.031241
v -0.041078 -0.078682 0.032535
v -0.040858 -0.079022 0.013111
v -0.046933 -0.079575 0.031241
v -0.046903 -0.079622 0.031241
v -0.046903 -0.079622 0.032535
v -0.046933 -0.079575 0.013111
v -0.040858 -0.079022 0.031241
v -0.044758 -0.079622 0.031241
v -0.044758 -0.079622 0.032535
v -0.043829 -0.072970 0.031241
v -0.043829 -0.072970 0.032535
v -0.042614 -0.079622 0.031241
v -0.042614 -0.079622 0.032535
v -0.041685 -0.072970 0.031241
v -0.041685 -0.072970 0.032535
v -0.041078 -0.073911 0.031241
v -0.041078 -0.073911 0.032535
v -0.045973 -0.072970 0.031241
v -0.045973 -0.072970 0.032535
v -0.039541 -0.072970 -0.003774
v -0.040001 -0.072970 -0.004264
v -0.040470 -0.072970 -0.004582
v -0.040470 -0.072970 0.007475
v -0.040001 -0.072970 0.007156
v -0.039541 -0.072970 0.006667
v -0.040001 -0.079622 -0.004264
v -0.039541 -0.079622 -0.003774
v -0.039541 -0.079622 0.006667
v -0.040001 -0.079622 0.007156
v -0.040470 -0.079622 0.007475
v -0.040470 -0.079622 -0.004582
v -0.043829 -0.072970 0.008708
v -0.043222 -0.073911 0.008633
v -0.043222 -0.073911 -0.005741
v -0.043829 -0.072970 -0.005815
v -0.042721 -0.079458 -0.005679
v -0.042614 -0.079622 -0.005639
v -0.042614 -0.079622 0.008531
v -0.042721 -0.079458 0.008572
v -0.043222 -0.078681 0.008633
v -0.043222 -0.078681 -0.005741
v -0.048118 -0.072970 0.007475
v -0.047510 -0.073911 0.007887
v -0.047510 -0.073911 -0.004994
v -0.048118 -0.072970 -0.004582
v -0.049654 -0.073910 -0.003126
v -0.050262 -0.072970 -0.002107
v -0.050262 -0.072970 0.005000
v -0.049654 -0.073911 0.006018
v -0.049650 -0.073904 0.006023
v -0.049047 -0.072970 0.006667
v -0.049047 -0.072970 -0.003774
v -0.049653 -0.078683 0.006020
v -0.050262 -0.079622 0.005000
v -0.050262 -0.079622 -0.002107
v -0.049653 -0.078683 -0.003126
v -0.050462 -0.072970 -0.001771
v -0.050979 -0.072970 -0.000231
v -0.051161 -0.072970 0.001446
v -0.050979 -0.072970 0.003123
v -0.050462 -0.072970 0.004663
v -0.050462 -0.079622 0.004663
v -0.050979 -0.079622 0.003123
v -0.051161 -0.079622 0.001446
v -0.050979 -0.079622 -0.000231
v -0.050462 -0.079622 -0.001771
v -0.048587 -0.079622 0.007156
v -0.049047 -0.079622 0.006667
v -0.049047 -0.079622 -0.003774
v -0.048587 -0.079622 -0.004264
v -0.048118 -0.079622 -0.004582
v -0.048118 -0.079622 0.007475
v -0.047510 -0.078681 -0.004994
v -0.047510 -0.078681 0.007887
v -0.048587 -0.072970 0.007156
v -0.048587 -0.072970 -0.004264
v -0.046903 -0.079622 0.008177
v -0.047312 -0.078988 0.008021
v -0.047312 -0.078988 -0.005128
v -0.046903 -0.079622 -0.005284
v -0.046903 -0.072970 0.008177
v -0.046903 -0.072970 -0.005284
v -0.047312 -0.073605 -0.005128
v -0.047312 -0.073605 0.008021
v -0.045973 -0.079622 -0.005639
v -0.045973 -0.079622 0.008531
v -0.045366 -0.078681 0.008633
v -0.045867 -0.079458 0.008572
v -0.045867 -0.079458 -0.005679
v -0.045366 -0.078681 -0.005741
v -0.045973 -0.072970 -0.005639
v -0.045973 -0.072970 0.008531
v -0.045366 -0.073911 0.008633
v -0.045366 -0.073911 -0.005741
v -0.045867 -0.073135 -0.005679
v -0.045867 -0.073135 0.008572
v -0.044758 -0.072970 -0.005815
v -0.044758 -0.072970 0.008708
v -0.044758 -0.079622 -0.005815
v -0.044758 -0.079622 0.008708
v -0.043829 -0.079622 0.008708
v -0.044294 -0.079622 0.008765
v -0.044294 -0.079622 -0.005873
v -0.043829 -0.079622 -0.005815
v -0.044294 -0.072970 -0.005873
v -0.044294 -0.072970 0.008765
v -0.042614 -0.072970 0.008531
v -0.042614 -0.072970 -0.005639
v -0.042721 -0.073135 -0.005679
v -0.042721 -0.073135 0.008572
v -0.041685 -0.079622 -0.005284
v -0.041685 -0.079622 0.008177
v -0.041078 -0.078681 0.007887
v -0.041276 -0.078988 0.008021
v -0.041276 -0.078988 -0.005128
v -0.041078 -0.078681 -0.004994
v -0.041685 -0.072970 -0.005284
v -0.041685 -0.072970 0.008177
v -0.041078 -0.073911 0.007887
v -0.041078 -0.073911 -0.004994
v -0.041276 -0.073605 -0.005128
v -0.041276 -0.073605 0.008021
v -0.038936 -0.078685 -0.003128
v -0.038935 -0.078683 0.006019
v -0.037427 -0.072970 0.001446
v -0.037609 -0.072970 -0.000231
v -0.038126 -0.072970 -0.001771
v -0.038326 -0.072970 -0.002107
v -0.038326 -0.072970 0.004999
v -0.038126 -0.072970 0.004663
v -0.037609 -0.072970 0.003123
v -0.037609 -0.079622 0.003123
v -0.038126 -0.079622 0.004663
v -0.038326 -0.079622 0.004999
v -0.038326 -0.079622 -0.002107
v -0.038126 -0.079622 -0.001771
v -0.037609 -0.079622 -0.000231
v -0.037427 -0.079622 0.001446
v -0.038934 -0.073910 0.006018
v -0.038936 -0.073908 -0.003128
v -0.059613 -0.079622 -0.013545
v -0.059767 -0.079622 -0.013682
v -0.059767 -0.079622 -0.015089
v -0.059613 -0.079622 -0.015227
v -0.058838 -0.079622 -0.015280
v -0.058838 -0.079622 -0.013492
v -0.058999 -0.079622 -0.013429
v -0.058999 -0.079622 -0.015342
v -0.059313 -0.079622 -0.013429
v -0.059316 -0.079622 -0.015342
v -0.060014 -0.079240 -0.014052
v -0.060069 -0.079155 -0.014386
v -0.060014 -0.079240 -0.014718
v -0.059856 -0.079485 -0.015010
v -0.059856 -0.079485 -0.013761
v -0.058999 -0.072970 -0.015342
v -0.059316 -0.072970 -0.015342
v -0.059613 -0.072970 -0.015227
v -0.059767 -0.072970 -0.015089
v -0.059767 -0.072970 -0.013682
v -0.059613 -0.072970 -0.013545
v -0.059314 -0.072970 -0.013429
v -0.058999 -0.072970 -0.013429
v -0.058838 -0.072970 -0.013492
v -0.058838 -0.072970 -0.015280
v -0.059856 -0.073108 -0.013761
v -0.059856 -0.073108 -0.015010
v -0.060014 -0.073353 -0.014718
v -0.060069 -0.073438 -0.014386
v -0.060014 -0.073352 -0.014052
v -0.058702 -0.073181 -0.015227
v -0.058700 -0.073184 -0.013545
v -0.058459 -0.073558 -0.013762
v -0.058301 -0.073801 -0.014053
v -0.058246 -0.073886 -0.014386
v -0.058301 -0.073801 -0.014718
v -0.058460 -0.073556 -0.015010
v -0.058700 -0.079408 -0.013545
v -0.058694 -0.079399 -0.013552
v -0.058694 -0.079399 -0.013552
v -0.058693 -0.079398 -0.013553
v -0.058459 -0.079035 -0.013762
v -0.058301 -0.078791 -0.014718
v -0.058246 -0.078706 -0.014386
v -0.058301 -0.078791 -0.014053
v -0.058702 -0.079412 -0.015227
v -0.058460 -0.079036 -0.015010
v -0.028821 -0.079622 -0.015325
v -0.028567 -0.079229 -0.015227
v -0.028324 -0.078854 -0.015010
v -0.028213 -0.078681 -0.014805
v -0.028213 -0.078681 -0.013967
v -0.028324 -0.078854 -0.013761
v -0.028567 -0.079229 -0.013545
v -0.028821 -0.079622 -0.013446
v -0.029755 -0.079614 -0.013826
v -0.029879 -0.079423 -0.014054
v -0.029934 -0.079338 -0.014386
v -0.029879 -0.079423 -0.014718
v -0.029752 -0.079619 -0.014952
v -0.028864 -0.079622 -0.013429
v -0.028864 -0.079622 -0.015342
v -0.029176 -0.079622 -0.013429
v -0.029181 -0.079622 -0.015342
v -0.029478 -0.079622 -0.015227
v -0.029478 -0.079622 -0.013545
v -0.029725 -0.079622 -0.013768
v -0.029720 -0.079622 -0.015010
v -0.029753 -0.079618 -0.013821
v -0.029752 -0.072974 -0.014952
v -0.029879 -0.073170 -0.014718
v -0.029934 -0.073255 -0.014386
v -0.029879 -0.073170 -0.014053
v -0.029753 -0.072975 -0.013821
v -0.028567 -0.073364 -0.015227
v -0.028821 -0.072970 -0.015325
v -0.028821 -0.072970 -0.013446
v -0.028565 -0.073367 -0.013545
v -0.028324 -0.073739 -0.013761
v -0.028213 -0.073911 -0.013967
v -0.028213 -0.073911 -0.014805
v -0.028324 -0.073739 -0.015010
v -0.028166 -0.078754 -0.014054
v -0.028166 -0.078754 -0.014718
v -0.028111 -0.078840 -0.014386
v -0.028166 -0.073838 -0.014718
v -0.028166 -0.073838 -0.014053
v -0.028111 -0.073753 -0.014386
v -0.028821 -0.079622 -0.015325
v -0.028864 -0.079622 -0.015342
v -0.028864 -0.072970 -0.015342
v -0.028821 -0.072970 -0.015325
v -0.028567 -0.073364 -0.015227
v -0.028567 -0.079229 -0.015227
v -0.029181 -0.079622 -0.015342
v -0.029181 -0.072970 -0.015342
v -0.029478 -0.079622 -0.015227
v -0.029478 -0.072970 -0.015227
v -0.029720 -0.079622 -0.015010
v -0.029720 -0.072970 -0.015010
v -0.029750 -0.079622 -0.014956
v -0.029879 -0.079423 -0.014718
v -0.029879 -0.073170 -0.014718
v -0.029750 -0.072970 -0.014956
v -0.029750 -0.079622 -0.013815
v -0.029720 -0.079622 -0.013761
v -0.029720 -0.072970 -0.013761
v -0.029750 -0.072970 -0.013815
v -0.029879 -0.073170 -0.014053
v -0.029879 -0.079423 -0.014053
v -0.029478 -0.079622 -0.013545
v -0.029478 -0.072970 -0.013545
v -0.029181 -0.079622 -0.013429
v -0.029181 -0.072970 -0.013429
v -0.028864 -0.079622 -0.013429
v -0.028864 -0.072970 -0.013429
v -0.028821 -0.079622 -0.013446
v -0.028567 -0.079229 -0.013545
v -0.028567 -0.073364 -0.013545
v -0.028821 -0.072970 -0.013446
v -0.039643 -0.072970 0.011816
v -0.041078 -0.073911 0.032535
v -0.041685 -0.072970 0.032535
v -0.043222 -0.073911 0.032535
v -0.045366 -0.073911 0.032535
v -0.045973 -0.072970 0.032535
v -0.048148 -0.072970 0.011816
v -0.028213 -0.073911 -0.013967
v -0.028324 -0.073739 -0.013761
v -0.028324 -0.078854 -0.013761
v -0.028213 -0.078681 -0.013967
v -0.028166 -0.078754 -0.014053
v -0.028324 -0.078854 -0.015010
v -0.028324 -0.073739 -0.015010
v -0.029934 -0.079338 -0.014386
v -0.029934 -0.073255 -0.014386
v -0.040858 -0.073571 0.031241
v -0.048118 -0.072970 0.011816
v -0.047510 -0.073911 0.011816
v -0.028111 -0.073753 -0.014386
v -0.028111 -0.078840 -0.014386
v -0.028166 -0.078754 -0.014718
v -0.028166 -0.073838 -0.014718
v -0.028213 -0.073911 -0.014805
v -0.028213 -0.078681 -0.014805
v -0.029725 -0.072970 -0.013771
v -0.029478 -0.072970 -0.015227
v -0.029720 -0.072970 -0.015010
v -0.028864 -0.072970 -0.015342
v -0.029181 -0.072970 -0.015342
v -0.029478 -0.072970 -0.013545
v -0.029177 -0.072970 -0.013428
v -0.028864 -0.072970 -0.013429
v -0.045366 -0.073911 0.011816
v -0.041078 -0.073911 0.011816
v -0.043222 -0.073911 0.011816
v -0.047510 -0.073911 0.032535
vt 0.505305 0.500000
vt 0.504248 0.500000
vt 0.504248 0.500000
vt 0.504248 0.500000
vt 0.505305 0.500000
vt 0.505305 0.500000
vt 0.494194 0.500000
vt 0.495752 0.500000
vt 0.495752 0.500000
vt 0.495752 0.500000
vt 0.494194 0.500000
vt 0.494194 0.500000
vt 0.504248 0.551925
vt 0.495752 0.551925
vt 0.495752 0.505431
vt 0.495752 0.505431
vt 0.504248 0.505431
vt 0.504248 0.551925
vt 0.495752 0.505431
vt 0.495752 0.551925
vt 0.494194 0.551941
vt 0.494194 0.551941
vt 0.494194 0.505432
vt 0.495752 0.505431
vt 0.495752 0.500000
vt 0.504248 0.500000
vt 0.504248 0.500000
vt 0.504248 0.500000
vt 0.495752 0.500000
vt 0.495752 0.500000
vt 0.505305 0.551936
vt 0.504248 0.551925
vt 0.504248 0.505431
vt 0.504248 0.505431
vt 0.505305 0.505442
vt 0.505305 0.551936
vt 0.633007 0.553098
vt 0.633007 0.554418
vt 0.631828 0.554154
vt 0.631828 0.554154
vt 0.631325 0.553774
vt 0.631828 0.553384
vt 0.633007 0.553098
vt 0.631828 0.554154
vt 0.631828 0.553384
vt 0.641503 0.552670
vt 0.641503 0.554847
vt 0.641105 0.554866
vt 0.641503 0.552670
vt 0.641105 0.554866
vt 0.638211 0.554866
vt 0.641503 0.552670
vt 0.638211 0.554866
vt 0.635492 0.554732
vt 0.633275 0.554481
vt 0.633007 0.554418
vt 0.633007 0.553098
vt 0.633007 0.553098
vt 0.633275 0.553035
vt 0.635492 0.552784
vt 0.633275 0.554481
vt 0.633007 0.553098
vt 0.635492 0.552784
vt 0.635492 0.554732
vt 0.633275 0.554481
vt 0.635492 0.552784
vt 0.641503 0.552670
vt 0.635492 0.554732
vt 0.635492 0.552784
vt 0.635492 0.552784
vt 0.638211 0.552651
vt 0.641105 0.552651
vt 0.641503 0.552670
vt 0.635492 0.552784
vt 0.641105 0.552651
vt 0.635492 0.500000
vt 0.633275 0.500000
vt 0.633007 0.500000
vt 0.635492 0.500000
vt 0.633007 0.500000
vt 0.633007 0.500000
vt 0.635492 0.500000
vt 0.633007 0.500000
vt 0.633275 0.500000
vt 0.641105 0.500000
vt 0.641503 0.500000
vt 0.641503 0.500000
vt 0.638211 0.500000
vt 0.641105 0.500000
vt 0.641503 0.500000
vt 0.635492 0.500000
vt 0.638211 0.500000
vt 0.641503 0.500000
vt 0.633275 0.500000
vt 0.635492 0.500000
vt 0.641503 0.500000
vt 0.635492 0.500000
vt 0.633275 0.500000
vt 0.641503 0.500000
vt 0.641503 0.500000
vt 0.641105 0.500000
vt 0.638211 0.500000
vt 0.635492 0.500000
vt 0.641503 0.500000
vt 0.638211 0.500000
vt 0.633007 0.500000
vt 0.631828 0.500000
vt 0.631325 0.500000
vt 0.633007 0.500000
vt 0.631325 0.500000
vt 0.631828 0.500000
vt 0.633007 0.500000
vt 0.631828 0.500000
vt 0.633007 0.500000
vt 0.647059 0.553329
vt 0.647059 0.554301
vt 0.646042 0.554529
vt 0.647059 0.553329
vt 0.646042 0.554529
vt 0.643825 0.554757
vt 0.643825 0.554757
vt 0.641503 0.554847
vt 0.641503 0.552670
vt 0.647059 0.553329
vt 0.643825 0.554757
vt 0.641503 0.552670
vt 0.641503 0.552670
vt 0.643825 0.552809
vt 0.646042 0.553083
vt 0.647059 0.553329
vt 0.641503 0.552670
vt 0.646042 0.553083
vt 0.647059 0.500000
vt 0.646042 0.500000
vt 0.643825 0.500000
vt 0.647059 0.500000
vt 0.643825 0.500000
vt 0.641503 0.500000
vt 0.647059 0.500000
vt 0.641503 0.500000
vt 0.641503 0.500000
vt 0.647059 0.500000
vt 0.641503 0.500000
vt 0.643825 0.500000
vt 0.647059 0.500000
vt 0.643825 0.500000
vt 0.646042 0.500000
vt 0.647059 0.500000
vt 0.646042 0.500000
vt 0.647059 0.500000
vt 0.647059 0.553329
vt 0.647489 0.553426
vt 0.647992 0.553805
vt 0.647059 0.553329
vt 0.647992 0.553805
vt 0.647489 0.554196
vt 0.647059 0.553329
vt 0.647489 0.554196
vt 0.647059 0.554301
vt 0.647992 0.500000
vt 0.647489 0.500000
vt 0.647059 0.500000
vt 0.647992 0.500000
vt 0.647059 0.500000
vt 0.647059 0.500000
vt 0.647992 0.500000
vt 0.647059 0.500000
vt 0.647489 0.500000
vt 0.371901 0.500000
vt 0.370454 0.500000
vt 0.368214 0.500000
vt 0.368214 0.500000
vt 0.366993 0.500000
vt 0.366993 0.500000
vt 0.371901 0.500000
vt 0.368214 0.500000
vt 0.366993 0.500000
vt 0.371901 0.500000
vt 0.366993 0.500000
vt 0.368236 0.500000
vt 0.371901 0.500000
vt 0.368236 0.500000
vt 0.370453 0.500000
vt 0.370453 0.500000
vt 0.371901 0.500000
vt 0.372403 0.500000
vt 0.371901 0.500000
vt 0.370453 0.500000
vt 0.372403 0.500000
vt 0.357686 0.554489
vt 0.356239 0.554165
vt 0.355736 0.553786
vt 0.355736 0.553786
vt 0.356239 0.553395
vt 0.357686 0.553041
vt 0.355736 0.553786
vt 0.357686 0.553041
vt 0.358497 0.552943
vt 0.357686 0.554489
vt 0.355736 0.553786
vt 0.358497 0.552943
vt 0.357686 0.554489
vt 0.358497 0.552943
vt 0.358497 0.554573
vt 0.357686 0.500000
vt 0.358497 0.500000
vt 0.358497 0.500000
vt 0.357686 0.500000
vt 0.356239 0.500000
vt 0.355736 0.500000
vt 0.358497 0.500000
vt 0.357686 0.500000
vt 0.355736 0.500000
vt 0.358497 0.500000
vt 0.355736 0.500000
vt 0.356239 0.500000
vt 0.357686 0.500000
vt 0.358497 0.500000
vt 0.356239 0.500000
vt 0.366993 0.552723
vt 0.366993 0.554794
vt 0.365517 0.554866
vt 0.366993 0.552723
vt 0.365517 0.554866
vt 0.362623 0.554866
vt 0.366993 0.552723
vt 0.362623 0.554866
vt 0.359903 0.554732
vt 0.359903 0.554732
vt 0.358497 0.554573
vt 0.358497 0.552943
vt 0.358497 0.552943
vt 0.359903 0.552784
vt 0.362623 0.552650
vt 0.358497 0.552943
vt 0.362623 0.552650
vt 0.365517 0.552651
vt 0.359903 0.554732
vt 0.358497 0.552943
vt 0.365517 0.552651
vt 0.366993 0.552723
vt 0.359903 0.554732
vt 0.365517 0.552651
vt 0.365517 0.500000
vt 0.362623 0.500000
vt 0.359903 0.500000
vt 0.365517 0.500000
vt 0.359903 0.500000
vt 0.358497 0.500000
vt 0.365517 0.500000
vt 0.358497 0.500000
vt 0.358497 0.500000
vt 0.365517 0.500000
vt 0.358497 0.500000
vt 0.359903 0.500000
vt 0.365517 0.500000
vt 0.366993 0.500000
vt 0.366993 0.500000
vt 0.362623 0.500000
vt 0.365517 0.500000
vt 0.366993 0.500000
vt 0.359903 0.500000
vt 0.362623 0.500000
vt 0.366993 0.500000
vt 0.365517 0.500000
vt 0.359903 0.500000
vt 0.366993 0.500000
vt 0.372403 0.553814
vt 0.371901 0.554194
vt 0.370453 0.554517
vt 0.368237 0.554745
vt 0.366993 0.554794
vt 0.366993 0.552723
vt 0.366993 0.552723
vt 0.368214 0.552793
vt 0.370454 0.553070
vt 0.366993 0.552723
vt 0.370454 0.553070
vt 0.371901 0.553424
vt 0.368237 0.554745
vt 0.366993 0.552723
vt 0.371901 0.553424
vt 0.370453 0.554517
vt 0.368237 0.554745
vt 0.371901 0.553424
vt 0.372403 0.553814
vt 0.370453 0.554517
vt 0.371901 0.553424
vt 0.542533 0.501048
vt 0.534967 0.501048
vt 0.534967 0.477051
vt 0.534967 0.477051
vt 0.542533 0.477051
vt 0.542533 0.501048
vt 0.465033 0.500000
vt 0.465033 0.500000
vt 0.464755 0.500000
vt 0.495752 0.477051
vt 0.504248 0.477051
vt 0.504248 0.478551
vt 0.504248 0.478551
vt 0.495752 0.478551
vt 0.495752 0.477051
vt 0.504248 0.500000
vt 0.495752 0.500000
vt 0.495752 0.500000
vt 0.495752 0.500000
vt 0.504248 0.500000
vt 0.504248 0.500000
vt 0.523856 0.477051
vt 0.529412 0.477027
vt 0.529412 0.478528
vt 0.529412 0.478528
vt 0.523856 0.478551
vt 0.523856 0.477051
vt 0.515360 0.477051
vt 0.523856 0.477051
vt 0.523856 0.478551
vt 0.523856 0.478551
vt 0.515360 0.478551
vt 0.515360 0.477051
vt 0.484641 0.477051
vt 0.490196 0.477027
vt 0.490196 0.478528
vt 0.490196 0.478528
vt 0.484641 0.478551
vt 0.484641 0.477051
vt 0.476144 0.477051
vt 0.484641 0.477051
vt 0.484641 0.478551
vt 0.484641 0.478551
vt 0.476144 0.478551
vt 0.476144 0.477051
vt 0.515360 0.500000
vt 0.509804 0.500000
vt 0.509804 0.500000
vt 0.509804 0.500000
vt 0.515360 0.500000
vt 0.515360 0.500000
vt 0.523856 0.500000
vt 0.515360 0.500000
vt 0.515360 0.500000
vt 0.515360 0.500000
vt 0.523856 0.500000
vt 0.523856 0.500000
vt 0.476144 0.500000
vt 0.476144 0.500000
vt 0.470588 0.500000
vt 0.476144 0.500000
vt 0.476144 0.500000
vt 0.475866 0.500000
vt 0.470588 0.500000
vt 0.476144 0.500000
vt 0.475866 0.500000
vt 0.470588 0.500000
vt 0.475866 0.500000
vt 0.475866 0.500000
vt 0.470588 0.500000
vt 0.470588 0.500000
vt 0.475866 0.500000
vt 0.476144 0.500000
vt 0.470588 0.500000
vt 0.475866 0.500000
vt 0.484641 0.500000
vt 0.476144 0.500000
vt 0.476144 0.500000
vt 0.476144 0.500000
vt 0.484641 0.500000
vt 0.484641 0.500000
vt 0.509804 0.477027
vt 0.515360 0.477051
vt 0.515360 0.478551
vt 0.515360 0.478551
vt 0.509804 0.478528
vt 0.509804 0.477027
vt 0.465033 0.477051
vt 0.470588 0.477027
vt 0.470588 0.501049
vt 0.470588 0.501049
vt 0.465033 0.501048
vt 0.465033 0.477051
vt 0.529412 0.500000
vt 0.523856 0.500000
vt 0.523856 0.500000
vt 0.523856 0.500000
vt 0.529412 0.500000
vt 0.529412 0.500000
vt 0.470588 0.500000
vt 0.465033 0.500000
vt 0.465033 0.500000
vt 0.465033 0.500000
vt 0.470588 0.500000
vt 0.470588 0.500000
vt 0.490196 0.500000
vt 0.484641 0.500000
vt 0.484641 0.500000
vt 0.484641 0.500000
vt 0.490196 0.500000
vt 0.490196 0.500000
vt 0.531422 0.500000
vt 0.534967 0.500000
vt 0.529412 0.500000
vt 0.529412 0.500000
vt 0.529412 0.500000
vt 0.531422 0.500000
vt 0.464755 0.501048
vt 0.464755 0.477051
vt 0.465033 0.477051
vt 0.465033 0.477051
vt 0.465033 0.501048
vt 0.464755 0.501048
vt 0.542533 0.500000
vt 0.542533 0.500000
vt 0.534967 0.500000
vt 0.534967 0.500000
vt 0.534967 0.500000
vt 0.542533 0.500000
vt 0.484641 0.501048
vt 0.484641 0.499548
vt 0.490196 0.499548
vt 0.490196 0.499548
vt 0.490196 0.501049
vt 0.484641 0.501048
vt 0.495752 0.478551
vt 0.490196 0.478528
vt 0.490196 0.477027
vt 0.490196 0.477027
vt 0.495752 0.477051
vt 0.495752 0.478551
vt 0.515360 0.500000
vt 0.515360 0.500000
vt 0.509804 0.500000
vt 0.509804 0.500000
vt 0.509804 0.500000
vt 0.515360 0.500000
vt 0.504248 0.500000
vt 0.509804 0.500000
vt 0.509804 0.500000
vt 0.509804 0.500000
vt 0.504248 0.500000
vt 0.504248 0.500000
vt 0.504248 0.499548
vt 0.509804 0.499548
vt 0.509804 0.501049
vt 0.509804 0.501049
vt 0.504248 0.501048
vt 0.504248 0.499548
vt 0.495752 0.500000
vt 0.490196 0.500000
vt 0.490196 0.500000
vt 0.490196 0.500000
vt 0.495752 0.500000
vt 0.495752 0.500000
vt 0.523856 0.501048
vt 0.523856 0.499548
vt 0.529412 0.499548
vt 0.529412 0.499548
vt 0.529412 0.501049
vt 0.523856 0.501048
vt 0.531422 0.478517
vt 0.529412 0.478528
vt 0.529412 0.477027
vt 0.529412 0.477027
vt 0.534967 0.477051
vt 0.531422 0.478517
vt 0.475866 0.499548
vt 0.476144 0.499548
vt 0.476144 0.501048
vt 0.475866 0.499548
vt 0.476144 0.501048
vt 0.470588 0.501049
vt 0.476144 0.477051
vt 0.476144 0.478551
vt 0.475866 0.478551
vt 0.470588 0.477027
vt 0.476144 0.477051
vt 0.475866 0.478551
vt 0.470588 0.501049
vt 0.470588 0.477027
vt 0.475866 0.478551
vt 0.475866 0.499548
vt 0.470588 0.501049
vt 0.475866 0.478551
vt 0.509804 0.478528
vt 0.504248 0.478551
vt 0.504248 0.477051
vt 0.504248 0.477051
vt 0.509804 0.477027
vt 0.509804 0.478528
vt 0.490196 0.500000
vt 0.495752 0.500000
vt 0.495752 0.500000
vt 0.495752 0.500000
vt 0.490196 0.500000
vt 0.490196 0.500000
vt 0.531422 0.478517
vt 0.534967 0.477051
vt 0.534967 0.501048
vt 0.534967 0.501048
vt 0.531422 0.499537
vt 0.531422 0.478517
vt 0.490196 0.499548
vt 0.495752 0.499548
vt 0.495752 0.501048
vt 0.495752 0.501048
vt 0.490196 0.501049
vt 0.490196 0.499548
vt 0.509804 0.500000
vt 0.504248 0.500000
vt 0.504248 0.500000
vt 0.504248 0.500000
vt 0.509804 0.500000
vt 0.509804 0.500000
vt 0.531422 0.499537
vt 0.534967 0.501048
vt 0.529412 0.501049
vt 0.529412 0.501049
vt 0.529412 0.499548
vt 0.531422 0.499537
vt 0.495752 0.499548
vt 0.504248 0.499548
vt 0.504248 0.501048
vt 0.504248 0.501048
vt 0.495752 0.501048
vt 0.495752 0.499548
vt 0.504248 0.500000
vt 0.495752 0.500000
vt 0.495752 0.500000
vt 0.495752 0.500000
vt 0.504248 0.500000
vt 0.504248 0.500000
vt 0.515360 0.499548
vt 0.523856 0.499548
vt 0.523856 0.501048
vt 0.523856 0.501048
vt 0.515360 0.501048
vt 0.515360 0.499548
vt 0.509804 0.499548
vt 0.515360 0.499548
vt 0.515360 0.501048
vt 0.515360 0.501048
vt 0.509804 0.501049
vt 0.509804 0.499548
vt 0.476144 0.499548
vt 0.484641 0.499548
vt 0.484641 0.501048
vt 0.484641 0.501048
vt 0.476144 0.501048
vt 0.476144 0.499548
vt 0.523856 0.500000
vt 0.515360 0.500000
vt 0.515360 0.500000
vt 0.515360 0.500000
vt 0.523856 0.500000
vt 0.523856 0.500000
vt 0.529412 0.500000
vt 0.523856 0.500000
vt 0.523856 0.500000
vt 0.523856 0.500000
vt 0.529412 0.500000
vt 0.529412 0.500000
vt 0.484641 0.500000
vt 0.476144 0.500000
vt 0.476144 0.500000
vt 0.476144 0.500000
vt 0.484641 0.500000
vt 0.484641 0.500000
vt 0.490196 0.500000
vt 0.484641 0.500000
vt 0.484641 0.500000
vt 0.484641 0.500000
vt 0.490196 0.500000
vt 0.490196 0.500000
vt 0.543464 0.500000
vt 0.539263 0.500000
vt 0.534967 0.500000
vt 0.543464 0.500000
vt 0.534967 0.500000
vt 0.534967 0.500000
vt 0.543464 0.500000
vt 0.534967 0.500000
vt 0.539263 0.500000
vt 0.543464 0.500000
vt 0.539263 0.500000
vt 0.543464 0.500000
vt 0.539263 0.458428
vt 0.543464 0.458996
vt 0.543464 0.471087
vt 0.543464 0.471087
vt 0.539263 0.471655
vt 0.534967 0.472023
vt 0.539263 0.458428
vt 0.543464 0.471087
vt 0.534967 0.472023
vt 0.539263 0.458428
vt 0.534967 0.472023
vt 0.534967 0.458060
vt 0.504248 0.500000
vt 0.509804 0.500000
vt 0.509804 0.500000
vt 0.509804 0.500000
vt 0.504248 0.500000
vt 0.504248 0.500000
vt 0.514388 0.456779
vt 0.515360 0.456836
vt 0.515360 0.473247
vt 0.514388 0.456779
vt 0.515360 0.473247
vt 0.514388 0.473289
vt 0.514388 0.473289
vt 0.509804 0.473337
vt 0.509804 0.456672
vt 0.514388 0.456779
vt 0.514388 0.473289
vt 0.509804 0.456672
vt 0.465033 0.500000
vt 0.470588 0.500000
vt 0.470588 0.500000
vt 0.470588 0.500000
vt 0.465033 0.500000
vt 0.465033 0.500000
vt 0.450980 0.500000
vt 0.445425 0.500000
vt 0.445425 0.500000
vt 0.450980 0.500000
vt 0.445425 0.500000
vt 0.450980 0.500000
vt 0.450980 0.500000
vt 0.450980 0.500000
vt 0.451051 0.500000
vt 0.450980 0.500000
vt 0.451051 0.500000
vt 0.456536 0.500000
vt 0.450980 0.500000
vt 0.456536 0.500000
vt 0.456536 0.500000
vt 0.450980 0.470306
vt 0.445425 0.469157
vt 0.445425 0.460926
vt 0.445425 0.460926
vt 0.450980 0.459705
vt 0.450980 0.470306
vt 0.445425 0.500000
vt 0.443590 0.500000
vt 0.438862 0.500000
vt 0.437202 0.500000
vt 0.438862 0.500000
vt 0.443590 0.500000
vt 0.438862 0.500000
vt 0.437202 0.500000
vt 0.443590 0.500000
vt 0.445425 0.500000
vt 0.438862 0.500000
vt 0.443590 0.500000
vt 0.445425 0.500000
vt 0.443590 0.500000
vt 0.445425 0.500000
vt 0.443590 0.468767
vt 0.438862 0.466984
vt 0.437202 0.465041
vt 0.443590 0.468767
vt 0.437202 0.465041
vt 0.438862 0.463099
vt 0.438862 0.463099
vt 0.443590 0.461316
vt 0.445425 0.460926
vt 0.438862 0.463099
vt 0.445425 0.460926
vt 0.445425 0.469157
vt 0.443590 0.468767
vt 0.438862 0.463099
vt 0.445425 0.469157
vt 0.460736 0.471654
vt 0.456536 0.471088
vt 0.456536 0.458995
vt 0.456536 0.458995
vt 0.460736 0.458428
vt 0.465033 0.458060
vt 0.460736 0.471654
vt 0.456536 0.458995
vt 0.465033 0.458060
vt 0.460736 0.471654
vt 0.465033 0.458060
vt 0.465033 0.472024
vt 0.450980 0.470306
vt 0.450980 0.459705
vt 0.456536 0.458995
vt 0.456536 0.458995
vt 0.456536 0.471088
vt 0.450980 0.470306
vt 0.465033 0.458060
vt 0.470588 0.457537
vt 0.470588 0.472471
vt 0.470588 0.472471
vt 0.465033 0.472024
vt 0.465033 0.458060
vt 0.456536 0.500000
vt 0.456536 0.500000
vt 0.460736 0.500000
vt 0.456536 0.500000
vt 0.460736 0.500000
vt 0.465033 0.500000
vt 0.456536 0.500000
vt 0.465033 0.500000
vt 0.465033 0.500000
vt 0.456536 0.500000
vt 0.465033 0.500000
vt 0.460736 0.500000
vt 0.476144 0.472837
vt 0.472396 0.472636
vt 0.470588 0.472471
vt 0.476144 0.472837
vt 0.470588 0.472471
vt 0.470588 0.457537
vt 0.476144 0.472837
vt 0.470588 0.457537
vt 0.472396 0.457391
vt 0.476144 0.472837
vt 0.472396 0.457391
vt 0.476144 0.457246
vt 0.476144 0.500000
vt 0.476144 0.500000
vt 0.472396 0.500000
vt 0.472396 0.500000
vt 0.470588 0.500000
vt 0.470588 0.500000
vt 0.476144 0.500000
vt 0.472396 0.500000
vt 0.470588 0.500000
vt 0.476144 0.500000
vt 0.470588 0.500000
vt 0.472396 0.500000
vt 0.476144 0.472837
vt 0.476144 0.457246
vt 0.484641 0.456836
vt 0.484641 0.456836
vt 0.484641 0.473247
vt 0.476144 0.472837
vt 0.490196 0.473337
vt 0.485610 0.473290
vt 0.484641 0.473247
vt 0.490196 0.473337
vt 0.484641 0.473247
vt 0.484641 0.456836
vt 0.490196 0.473337
vt 0.484641 0.456836
vt 0.485610 0.456784
vt 0.490196 0.473337
vt 0.485610 0.456784
vt 0.490196 0.456672
vt 0.484641 0.500000
vt 0.476144 0.500000
vt 0.476144 0.500000
vt 0.476144 0.500000
vt 0.484641 0.500000
vt 0.484641 0.500000
vt 0.490196 0.500000
vt 0.490196 0.500000
vt 0.485610 0.500000
vt 0.485610 0.500000
vt 0.484641 0.500000
vt 0.484641 0.500000
vt 0.490196 0.500000
vt 0.485610 0.500000
vt 0.484641 0.500000
vt 0.490196 0.500000
vt 0.484641 0.500000
vt 0.485610 0.500000
vt 0.495752 0.500000
vt 0.490196 0.500000
vt 0.490196 0.500000
vt 0.490196 0.500000
vt 0.495752 0.500000
vt 0.495752 0.500000
vt 0.490196 0.456672
vt 0.495752 0.456631
vt 0.495752 0.473452
vt 0.495752 0.473452
vt 0.490196 0.473337
vt 0.490196 0.456672
vt 0.504248 0.473452
vt 0.499999 0.473518
vt 0.495752 0.473452
vt 0.504248 0.473452
vt 0.495752 0.473452
vt 0.495752 0.456631
vt 0.504248 0.473452
vt 0.495752 0.456631
vt 0.499999 0.456565
vt 0.504248 0.473452
vt 0.499999 0.456565
vt 0.504248 0.456631
vt 0.504248 0.500000
vt 0.504248 0.500000
vt 0.499999 0.500000
vt 0.499999 0.500000
vt 0.495752 0.500000
vt 0.495752 0.500000
vt 0.504248 0.500000
vt 0.499999 0.500000
vt 0.495752 0.500000
vt 0.504248 0.500000
vt 0.495752 0.500000
vt 0.499999 0.500000
vt 0.504248 0.456631
vt 0.509804 0.456672
vt 0.509804 0.473337
vt 0.509804 0.473337
vt 0.504248 0.473452
vt 0.504248 0.456631
vt 0.515360 0.500000
vt 0.515360 0.500000
vt 0.514388 0.500000
vt 0.514388 0.500000
vt 0.509804 0.500000
vt 0.509804 0.500000
vt 0.515360 0.500000
vt 0.514388 0.500000
vt 0.509804 0.500000
vt 0.515360 0.500000
vt 0.509804 0.500000
vt 0.514388 0.500000
vt 0.515360 0.456836
vt 0.523856 0.457246
vt 0.523856 0.472837
vt 0.523856 0.472837
vt 0.515360 0.473247
vt 0.515360 0.456836
vt 0.529412 0.472471
vt 0.527602 0.472639
vt 0.523856 0.472837
vt 0.529412 0.472471
vt 0.523856 0.472837
vt 0.523856 0.457246
vt 0.529412 0.472471
vt 0.523856 0.457246
vt 0.527602 0.457401
vt 0.529412 0.472471
vt 0.527602 0.457401
vt 0.529412 0.457538
vt 0.523856 0.500000
vt 0.515360 0.500000
vt 0.515360 0.500000
vt 0.515360 0.500000
vt 0.523856 0.500000
vt 0.523856 0.500000
vt 0.529412 0.500000
vt 0.529412 0.500000
vt 0.527602 0.500000
vt 0.527602 0.500000
vt 0.523856 0.500000
vt 0.523856 0.500000
vt 0.529412 0.500000
vt 0.527602 0.500000
vt 0.523856 0.500000
vt 0.529412 0.500000
vt 0.523856 0.500000
vt 0.527602 0.500000
vt 0.529412 0.457538
vt 0.534967 0.458060
vt 0.534967 0.472023
vt 0.534967 0.472023
vt 0.529412 0.472471
vt 0.529412 0.457538
vt 0.534967 0.500000
vt 0.529412 0.500000
vt 0.529412 0.500000
vt 0.529412 0.500000
vt 0.534967 0.500000
vt 0.534967 0.500000
vt 0.543464 0.458996
vt 0.548964 0.459696
vt 0.549020 0.470304
vt 0.549020 0.470304
vt 0.543464 0.471087
vt 0.543464 0.458996
vt 0.562797 0.500000
vt 0.561137 0.500000
vt 0.556409 0.500000
vt 0.556409 0.500000
vt 0.554575 0.500000
vt 0.554575 0.500000
vt 0.554575 0.500000
vt 0.556409 0.500000
vt 0.561137 0.500000
vt 0.556409 0.500000
vt 0.554575 0.500000
vt 0.561137 0.500000
vt 0.562797 0.500000
vt 0.556409 0.500000
vt 0.561137 0.500000
vt 0.561137 0.466984
vt 0.556409 0.468767
vt 0.554575 0.469156
vt 0.561137 0.466984
vt 0.554575 0.469156
vt 0.554575 0.460926
vt 0.561137 0.466984
vt 0.554575 0.460926
vt 0.556409 0.461316
vt 0.556409 0.461316
vt 0.561137 0.463099
vt 0.562797 0.465042
vt 0.561137 0.466984
vt 0.556409 0.461316
vt 0.562797 0.465042
vt 0.543464 0.500000
vt 0.543464 0.500000
vt 0.549020 0.500000
vt 0.554575 0.500000
vt 0.554575 0.500000
vt 0.549020 0.500000
vt 0.549020 0.500000
vt 0.554575 0.500000
vt 0.549020 0.500000
vt 0.543464 0.500000
vt 0.549020 0.500000
vt 0.549020 0.500000
vt 0.554575 0.469156
vt 0.549020 0.470304
vt 0.548964 0.459696
vt 0.548964 0.459696
vt 0.554575 0.460926
vt 0.554575 0.469156
vt 0.359903 0.447679
vt 0.358497 0.447520
vt 0.358497 0.445890
vt 0.359903 0.447679
vt 0.358497 0.445890
vt 0.359903 0.445731
vt 0.366993 0.445670
vt 0.366993 0.447741
vt 0.365517 0.447813
vt 0.365517 0.445598
vt 0.366993 0.445670
vt 0.365517 0.447813
vt 0.365517 0.445598
vt 0.365517 0.447813
vt 0.362687 0.447813
vt 0.362623 0.445598
vt 0.365517 0.445598
vt 0.362687 0.447813
vt 0.359903 0.445731
vt 0.362623 0.445598
vt 0.362687 0.447813
vt 0.359903 0.447679
vt 0.359903 0.445731
vt 0.362687 0.447813
vt 0.356250 0.447074
vt 0.355736 0.446676
vt 0.356239 0.446297
vt 0.356250 0.447074
vt 0.356239 0.446297
vt 0.357686 0.445974
vt 0.357686 0.445974
vt 0.358497 0.445890
vt 0.358497 0.447520
vt 0.356250 0.447074
vt 0.357686 0.445974
vt 0.358497 0.447520
vt 0.356250 0.447074
vt 0.358497 0.447520
vt 0.357686 0.447420
vt 0.365517 0.500000
vt 0.362623 0.500000
vt 0.359903 0.500000
vt 0.359903 0.500000
vt 0.358497 0.500000
vt 0.358497 0.500000
vt 0.358497 0.500000
vt 0.359903 0.500000
vt 0.362623 0.500000
vt 0.359903 0.500000
vt 0.358497 0.500000
vt 0.362623 0.500000
vt 0.362623 0.500000
vt 0.365517 0.500000
vt 0.366993 0.500000
vt 0.359903 0.500000
vt 0.362623 0.500000
vt 0.366993 0.500000
vt 0.365517 0.500000
vt 0.359903 0.500000
vt 0.366993 0.500000
vt 0.365517 0.500000
vt 0.366993 0.500000
vt 0.366993 0.500000
vt 0.357686 0.500000
vt 0.358497 0.500000
vt 0.358497 0.500000
vt 0.357686 0.500000
vt 0.356239 0.500000
vt 0.355736 0.500000
vt 0.358497 0.500000
vt 0.357686 0.500000
vt 0.355736 0.500000
vt 0.357686 0.500000
vt 0.358497 0.500000
vt 0.355736 0.500000
vt 0.357686 0.500000
vt 0.355736 0.500000
vt 0.356239 0.500000
vt 0.368236 0.500000
vt 0.366993 0.500000
vt 0.366993 0.500000
vt 0.368237 0.500000
vt 0.370470 0.500000
vt 0.371901 0.500000
vt 0.366993 0.500000
vt 0.368237 0.500000
vt 0.371901 0.500000
vt 0.368236 0.500000
vt 0.366993 0.500000
vt 0.371901 0.500000
vt 0.371901 0.500000
vt 0.372403 0.500000
vt 0.371901 0.500000
vt 0.368236 0.500000
vt 0.371901 0.500000
vt 0.371901 0.500000
vt 0.368236 0.500000
vt 0.371901 0.500000
vt 0.370454 0.500000
vt 0.368313 0.447665
vt 0.368310 0.447661
vt 0.368312 0.447660
vt 0.368313 0.447665
vt 0.368312 0.447660
vt 0.368320 0.447659
vt 0.368313 0.447665
vt 0.368320 0.447659
vt 0.370469 0.447393
vt 0.371901 0.446270
vt 0.372403 0.446650
vt 0.371901 0.447041
vt 0.371901 0.446270
vt 0.371901 0.447041
vt 0.370469 0.447393
vt 0.368310 0.447661
vt 0.368313 0.447665
vt 0.366993 0.447741
vt 0.366993 0.447741
vt 0.366993 0.445670
vt 0.368237 0.445719
vt 0.368310 0.447661
vt 0.366993 0.447741
vt 0.368237 0.445719
vt 0.368312 0.447660
vt 0.368310 0.447661
vt 0.368237 0.445719
vt 0.368312 0.447660
vt 0.368237 0.445719
vt 0.370454 0.445947
vt 0.368320 0.447659
vt 0.368312 0.447660
vt 0.370454 0.445947
vt 0.370469 0.447393
vt 0.368320 0.447659
vt 0.370454 0.445947
vt 0.371901 0.446270
vt 0.370469 0.447393
vt 0.370454 0.445947
vt 0.641503 0.445617
vt 0.643825 0.445708
vt 0.646042 0.445936
vt 0.646042 0.445936
vt 0.647059 0.446163
vt 0.647059 0.447135
vt 0.647059 0.447135
vt 0.646042 0.447383
vt 0.643825 0.447658
vt 0.646042 0.445936
vt 0.647059 0.447135
vt 0.643825 0.447658
vt 0.641503 0.445617
vt 0.646042 0.445936
vt 0.643825 0.447658
vt 0.641503 0.445617
vt 0.643825 0.447658
vt 0.641503 0.447794
vt 0.632957 0.447354
vt 0.631828 0.447080
vt 0.631325 0.446690
vt 0.632957 0.447354
vt 0.631325 0.446690
vt 0.631828 0.446310
vt 0.632957 0.447354
vt 0.631828 0.446310
vt 0.632979 0.446051
vt 0.641503 0.445617
vt 0.641503 0.447794
vt 0.641105 0.447813
vt 0.641105 0.445598
vt 0.641503 0.445617
vt 0.641105 0.447813
vt 0.641105 0.445598
vt 0.641105 0.447813
vt 0.638275 0.447813
vt 0.638211 0.445598
vt 0.641105 0.445598
vt 0.638275 0.447813
vt 0.635492 0.445731
vt 0.638211 0.445598
vt 0.638275 0.447813
vt 0.635492 0.445731
vt 0.638275 0.447813
vt 0.635492 0.447679
vt 0.635492 0.445731
vt 0.635492 0.447679
vt 0.633229 0.447423
vt 0.633275 0.445982
vt 0.635492 0.445731
vt 0.633229 0.447423
vt 0.632979 0.446051
vt 0.633275 0.445982
vt 0.633229 0.447423
vt 0.632979 0.446051
vt 0.633229 0.447423
vt 0.633007 0.447366
vt 0.632957 0.447354
vt 0.632979 0.446051
vt 0.633007 0.447366
vt 0.633007 0.500000
vt 0.631828 0.500000
vt 0.631325 0.500000
vt 0.631325 0.500000
vt 0.631828 0.500000
vt 0.632957 0.500000
vt 0.633007 0.500000
vt 0.631325 0.500000
vt 0.632957 0.500000
vt 0.643825 0.500000
vt 0.641503 0.500000
vt 0.641503 0.500000
vt 0.641503 0.500000
vt 0.643825 0.500000
vt 0.646042 0.500000
vt 0.643825 0.500000
vt 0.641503 0.500000
vt 0.646042 0.500000
vt 0.646042 0.500000
vt 0.647059 0.500000
vt 0.647059 0.500000
vt 0.643825 0.500000
vt 0.646042 0.500000
vt 0.647059 0.500000
vt 0.643825 0.500000
vt 0.647059 0.500000
vt 0.646042 0.500000
vt 0.647489 0.447038
vt 0.647059 0.447135
vt 0.647059 0.446163
vt 0.647489 0.447038
vt 0.647059 0.446163
vt 0.647489 0.446268
vt 0.647489 0.447038
vt 0.647489 0.446268
vt 0.647992 0.446658
vt 0.647489 0.500000
vt 0.647059 0.500000
vt 0.647059 0.500000
vt 0.647489 0.500000
vt 0.647059 0.500000
vt 0.647489 0.500000
vt 0.647489 0.500000
vt 0.647489 0.500000
vt 0.647992 0.500000
vt 0.140232 0.763177
vt 0.000000 0.744149
vt 0.000000 0.302467
vt 0.140232 0.763177
vt 0.000000 0.302467
vt 0.140232 0.283439
vt 0.904936 0.283439
vt 1.000000 0.296337
vt 1.000000 0.750278
vt 0.904936 0.283439
vt 1.000000 0.750278
vt 0.904936 0.763177
vt 0.140232 0.283439
vt 0.904936 0.283439
vt 0.904936 0.763177
vt 0.140232 0.763177
vt 0.140232 0.283439
vt 0.904936 0.763177
vt 0.095064 0.763177
vt 0.000000 0.750278
vt 0.000000 0.296338
vt 0.095064 0.763177
vt 0.000000 0.296338
vt 0.095064 0.283439
vt 0.859768 0.283439
vt 1.000000 0.302467
vt 1.000000 0.744149
vt 0.859768 0.283439
vt 1.000000 0.744149
vt 0.859768 0.763177
vt 0.095064 0.283439
vt 0.859768 0.283439
vt 0.859768 0.763177
vt 0.095064 0.763177
vt 0.095064 0.283439
vt 0.859768 0.763177
vt 0.108823 -14.000000
vt 1.108820 -14.000000
vt 2.108820 -14.000000
vt 0.108823 -14.000000
vt 2.108820 -14.000000
vt 1.108830 -14.000000
vt 0.108823 -14.000000
vt 1.108830 -14.000000
vt 0.108823 -14.000000
vt -4.950000 -14.000000
vt -2.420580 -14.000000
vt -1.420590 -14.000000
vt -3.420590 -14.000000
vt -4.950000 -14.000000
vt -1.420590 -14.000000
vt -2.420590 -14.000000
vt -3.420590 -14.000000
vt -1.420590 -14.000000
vt -1.420590 -14.000000
vt -2.420590 -14.000000
vt -1.420590 -14.000000
vt 0.108823 -14.000000
vt -1.420590 -14.000000
vt -1.420590 -14.000000
vt 0.108823 -14.000000
vt 0.108823 -14.000000
vt -1.420590 -14.000000
vt -1.420590 14.000000
vt -2.420580 14.000000
vt -3.420590 14.000000
vt -1.420590 14.000000
vt -3.420590 14.000000
vt -2.420590 14.000000
vt -1.420590 14.000000
vt -2.420590 14.000000
vt -1.420590 14.000000
vt 3.638230 14.000000
vt 1.108820 14.000000
vt 0.108823 14.000000
vt 2.108820 14.000000
vt 3.638230 14.000000
vt 0.108823 14.000000
vt 1.108830 14.000000
vt 2.108820 14.000000
vt 0.108823 14.000000
vt 0.108823 14.000000
vt 1.108830 14.000000
vt 0.108823 14.000000
vt -1.420590 14.000000
vt 0.108823 14.000000
vt 0.108823 14.000000
vt -1.420590 14.000000
vt -1.420590 14.000000
vt 0.108823 14.000000
vt 1.764840 11.099900
vt 2.590030 11.004700
vt 2.590030 11.004700
vt 1.764840 11.099900
vt 2.590030 11.004700
vt 1.764830 11.099900
vt 0.764829 11.215300
vt -0.000000 11.303600
vt -0.000000 11.303600
vt 0.764829 11.215300
vt -0.000000 11.303600
vt 0.764829 11.215300
vt 1.764830 11.099900
vt 0.764829 11.215300
vt 0.764829 11.215300
vt 1.764840 11.099900
vt 1.764830 11.099900
vt 0.764829 11.215300
vt -1.764580 -11.100000
vt -2.590030 -11.004700
vt -2.590030 -11.004700
vt -1.764580 -11.100000
vt -2.590030 -11.004700
vt -1.764580 -11.100000
vt -0.764579 -11.215400
vt 0.000001 -11.303600
vt 0.000001 -11.303600
vt -0.764579 -11.215400
vt 0.000001 -11.303600
vt -0.764579 -11.215400
vt -1.764580 -11.100000
vt -0.764579 -11.215400
vt -0.764579 -11.215400
vt -1.764580 -11.100000
vt -1.764580 -11.100000
vt -0.764579 -11.215400
vt -0.764581 11.215400
vt -0.000000 11.303600
vt -0.000000 11.303600
vt -0.764581 11.215400
vt -0.000000 11.303600
vt -0.764581 11.215400
vt -1.764580 11.100000
vt -2.590030 11.004700
vt -2.590030 11.004700
vt -1.764580 11.100000
vt -2.590030 11.004700
vt -1.764580 11.100000
vt -0.764581 11.215400
vt -1.764580 11.100000
vt -1.764580 11.100000
vt -0.764581 11.215400
vt -0.764581 11.215400
vt -1.764580 11.100000
vt 0.764829 -11.215300
vt 0.000001 -11.303600
vt 0.000001 -11.303600
vt 0.764829 -11.215300
vt 0.000001 -11.303600
vt 0.764829 -11.215300
vt 1.764830 -11.099900
vt 2.590030 -11.004700
vt 2.590030 -11.004700
vt 1.764830 -11.099900
vt 2.590030 -11.004700
vt 1.764830 -11.099900
vt 0.764829 -11.215300
vt 1.764830 -11.099900
vt 1.764830 -11.099900
vt 0.764829 -11.215300
vt 0.764829 -11.215300
vt 1.764830 -11.099900
vt 0.535906 0.190138
vt 0.527778 0.190138
vt 0.527778 0.575306
vt 0.535906 0.190138
vt 0.527778 0.575306
vt 0.535906 0.575306
vt 0.535906 0.575306
vt 0.583333 0.552542
vt 0.583333 0.212903
vt 0.535906 0.190138
vt 0.535906 0.575306
vt 0.583333 0.212903
vt 0.472222 0.190138
vt 0.472222 0.575306
vt 0.527778 0.575306
vt 0.527778 0.575306
vt 0.527778 0.190138
vt 0.472222 0.190138
vt 0.416667 0.190138
vt 0.416667 0.575306
vt 0.472222 0.575306
vt 0.472222 0.575306
vt 0.472222 0.190138
vt 0.416667 0.190138
vt 0.361111 0.190138
vt 0.361111 0.575306
vt 0.416667 0.575306
vt 0.416667 0.575306
vt 0.416667 0.190138
vt 0.361111 0.190138
vt 0.350818 0.190138
vt 0.305556 0.201698
vt 0.305556 0.563747
vt 0.350818 0.190138
vt 0.305556 0.563747
vt 0.350818 0.575306
vt 0.350818 0.190138
vt 0.350818 0.575306
vt 0.361111 0.575306
vt 0.350818 0.190138
vt 0.361111 0.575306
vt 0.361111 0.190138
vt 0.149179 0.190138
vt 0.138889 0.190138
vt 0.138889 0.575306
vt 0.149179 0.190138
vt 0.138889 0.575306
vt 0.149179 0.575306
vt 0.149179 0.575306
vt 0.194444 0.563747
vt 0.194444 0.201698
vt 0.149179 0.190138
vt 0.149179 0.575306
vt 0.194444 0.201698
vt 0.083333 0.190138
vt 0.083333 0.575306
vt 0.138889 0.575306
vt 0.138889 0.575306
vt 0.138889 0.190138
vt 0.083333 0.190138
vt 0.027778 0.190138
vt 0.027778 0.575306
vt 0.083333 0.575306
vt 0.083333 0.575306
vt 0.083333 0.190138
vt 0.027778 0.190138
vt -0.027778 0.190138
vt -0.027778 0.575306
vt 0.027778 0.575306
vt 0.027778 0.575306
vt 0.027778 0.190138
vt -0.027778 0.190138
vt 0.964097 0.190138
vt 0.916667 0.212903
vt 0.916667 0.552542
vt 0.964097 0.190138
vt 0.916667 0.552542
vt 0.964097 0.575306
vt 0.964097 0.190138
vt 0.964097 0.575306
vt 0.972222 0.575306
vt 0.964097 0.190138
vt 0.972222 0.575306
vt 0.972222 0.190138
vt 0.535906 0.190140
vt 0.527778 0.190140
vt 0.527778 0.575307
vt 0.535906 0.190140
vt 0.527778 0.575307
vt 0.535906 0.575307
vt 0.535906 0.575307
vt 0.583333 0.552543
vt 0.583333 0.212904
vt 0.535906 0.190140
vt 0.535906 0.575307
vt 0.583333 0.212904
vt 0.472222 0.190140
vt 0.472222 0.575307
vt 0.527778 0.575307
vt 0.527778 0.575307
vt 0.527778 0.190140
vt 0.472222 0.190140
vt 0.416667 0.190140
vt 0.416667 0.575307
vt 0.472222 0.575307
vt 0.472222 0.575307
vt 0.472222 0.190140
vt 0.416667 0.190140
vt 0.361111 0.190140
vt 0.361111 0.575307
vt 0.416667 0.575307
vt 0.416667 0.575307
vt 0.416667 0.190140
vt 0.361111 0.190140
vt 0.350816 0.190140
vt 0.305556 0.201699
vt 0.305556 0.563748
vt 0.350816 0.190140
vt 0.305556 0.563748
vt 0.350816 0.575307
vt 0.350816 0.190140
vt 0.350816 0.575307
vt 0.361111 0.575307
vt 0.350816 0.190140
vt 0.361111 0.575307
vt 0.361111 0.190140
vt 0.149182 0.190140
vt 0.138889 0.190140
vt 0.138889 0.575307
vt 0.149182 0.190140
vt 0.138889 0.575307
vt 0.149182 0.575307
vt 0.149182 0.575307
vt 0.194445 0.563748
vt 0.194445 0.201699
vt 0.149182 0.190140
vt 0.149182 0.575307
vt 0.194445 0.201699
vt 0.083333 0.190140
vt 0.083333 0.575307
vt 0.138889 0.575307
vt 0.138889 0.575307
vt 0.138889 0.190140
vt 0.083333 0.190140
vt 0.027778 0.190140
vt 0.027778 0.575307
vt 0.083333 0.575307
vt 0.083333 0.575307
vt 0.083333 0.190140
vt 0.027778 0.190140
vt -0.027778 0.190140
vt -0.027778 0.575307
vt 0.027778 0.575307
vt 0.027778 0.575307
vt 0.027778 0.190140
vt -0.027778 0.190140
vt 0.964096 0.190140
vt 0.916667 0.212904
vt 0.916667 0.552543
vt 0.964096 0.190140
vt 0.916667 0.552543
vt 0.964097 0.575307
vt 0.964096 0.190140
vt 0.964097 0.575307
vt 0.972222 0.575307
vt 0.964096 0.190140
vt 0.972222 0.575307
vt 0.972222 0.190140
vt 11.303600 0.000000
vt 11.004700 2.590030
vt 11.004700 2.590030
vt 11.004700 2.590030
vt 11.303600 0.000000
vt 11.303600 0.000000
vt 11.004700 2.590030
vt 10.153700 4.968560
vt 10.153700 4.968560
vt 10.153700 4.968560
vt 11.004700 2.590030
vt 11.004700 2.590030
vt 9.823640 5.487390
vt 10.153700 4.968560
vt 10.153700 4.968560
vt 9.823640 5.487390
vt 10.153700 4.968560
vt 9.823650 5.487370
vt 9.823650 5.487370
vt 8.823650 7.059390
vt 8.818530 7.067440
vt 9.823640 5.487390
vt 9.823650 5.487370
vt 8.818530 7.067440
vt 10.153700 -4.968560
vt 11.004700 -2.590030
vt 11.004700 -2.590030
vt 11.004700 -2.590030
vt 10.153700 -4.968560
vt 10.153700 -4.968560
vt 11.004700 -2.590030
vt 11.303600 0.000000
vt 11.303600 0.000000
vt 11.303600 0.000000
vt 11.004700 -2.590030
vt 11.004700 -2.590030
vt 5.638230 -16.000000
vt 4.638240 -16.000000
vt 7.000000 -16.000000
vt 7.000000 -16.000000
vt 7.000000 -16.000000
vt 5.638230 -16.000000
vt 7.000000 16.000000
vt 7.000000 -16.000000
vt 7.000000 -16.000000
vt 7.000000 -16.000000
vt 7.000000 16.000000
vt 7.000000 16.000000
vt 7.823660 8.062310
vt 8.818530 7.067440
vt 8.823650 7.059390
vt 7.823660 8.062310
vt 8.823650 7.059390
vt 7.823660 8.062310
vt 7.823660 8.062310
vt 7.067440 8.818530
vt 7.067440 8.818530
vt 7.823660 8.062310
vt 7.823660 8.062310
vt 7.067440 8.818530
vt 4.968560 -10.153700
vt 4.968560 -10.153700
vt 5.294230 -9.946510
vt 6.294250 -9.310380
vt 7.067440 -8.818530
vt 7.067440 -8.818530
vt 6.294250 -9.310380
vt 7.067440 -8.818530
vt 6.294250 -9.310370
vt 5.294230 -9.946510
vt 6.294250 -9.310380
vt 6.294250 -9.310370
vt 5.294230 -9.946510
vt 6.294250 -9.310370
vt 5.294230 -9.946510
vt 4.968560 -10.153700
vt 5.294230 -9.946510
vt 5.294230 -9.946510
vt -4.950000 16.000000
vt -2.420580 16.000000
vt -1.420590 16.000000
vt 3.638230 16.000000
vt 4.638240 16.000000
vt 5.638230 16.000000
vt 2.108820 16.000000
vt 3.638230 16.000000
vt 5.638230 16.000000
vt 2.108820 16.000000
vt 5.638230 16.000000
vt 4.638230 16.000000
vt 1.108820 16.000000
vt 2.108820 16.000000
vt 4.638230 16.000000
vt 1.108820 16.000000
vt 4.638230 16.000000
vt 3.638230 16.000000
vt 0.108823 16.000000
vt 1.108820 16.000000
vt 3.638230 16.000000
vt 0.108823 16.000000
vt 3.638230 16.000000
vt 2.108820 16.000000
vt 0.108823 16.000000
vt 2.108820 16.000000
vt 1.108830 16.000000
vt 0.108823 16.000000
vt 1.108830 16.000000
vt 0.108823 16.000000
vt -1.420590 16.000000
vt 0.108823 16.000000
vt 0.108823 16.000000
vt -1.420590 16.000000
vt 0.108823 16.000000
vt -1.420590 16.000000
vt -1.420590 16.000000
vt -1.420590 16.000000
vt -2.420590 16.000000
vt -1.420590 16.000000
vt -2.420590 16.000000
vt -3.420590 16.000000
vt -4.950000 16.000000
vt -1.420590 16.000000
vt -3.420590 16.000000
vt 6.294210 9.310400
vt 7.067440 8.818530
vt 7.067440 8.818530
vt 6.294210 9.310400
vt 7.067440 8.818530
vt 6.294220 9.310390
vt 5.294230 9.946510
vt 4.968560 10.153700
vt 4.968560 10.153700
vt 5.294230 9.946510
vt 4.968560 10.153700
vt 5.294230 9.946510
vt 6.294220 9.310390
vt 5.294230 9.946510
vt 5.294230 9.946510
vt 6.294210 9.310400
vt 6.294220 9.310390
vt 5.294230 9.946510
vt 7.823650 -8.062320
vt 7.067440 -8.818530
vt 7.067440 -8.818530
vt 7.823650 -8.062320
vt 7.067440 -8.818530
vt 7.823640 -8.062330
vt 9.823640 -5.487380
vt 10.153700 -4.968560
vt 10.153700 -4.968560
vt 9.823640 -5.487380
vt 10.153700 -4.968560
vt 9.823650 -5.487370
vt 8.818530 -7.067440
vt 9.823640 -5.487380
vt 9.823650 -5.487370
vt 8.818530 -7.067440
vt 9.823650 -5.487370
vt 8.823650 -7.059390
vt 7.823640 -8.062330
vt 8.818530 -7.067440
vt 8.823650 -7.059390
vt 7.823650 -8.062320
vt 7.823640 -8.062330
vt 8.823650 -7.059390
vt 4.294230 10.395000
vt 4.968560 10.153700
vt 4.968560 10.153700
vt 4.294230 10.395000
vt 4.968560 10.153700
vt 4.294230 10.395000
vt 2.764810 10.942200
vt 2.590030 11.004700
vt 2.590030 11.004700
vt 2.764810 10.942200
vt 2.590030 11.004700
vt 2.764820 10.942200
vt 4.294230 10.395000
vt 2.764810 10.942200
vt 2.764820 10.942200
vt 4.294230 10.395000
vt 4.294230 10.395000
vt 2.764820 10.942200
vt 2.764840 -10.942200
vt 2.590030 -11.004700
vt 2.590030 -11.004700
vt 2.764840 -10.942200
vt 2.590030 -11.004700
vt 2.764840 -10.942200
vt 4.294250 -10.395000
vt 4.968560 -10.153700
vt 4.968560 -10.153700
vt 4.294250 -10.395000
vt 4.968560 -10.153700
vt 4.294250 -10.395000
vt 2.764840 -10.942200
vt 4.294250 -10.395000
vt 4.294250 -10.395000
vt 2.764840 -10.942200
vt 2.764840 -10.942200
vt 4.294250 -10.395000
vt 0.557939 0.190138
vt 0.527778 0.190138
vt 0.527778 0.575306
vt 0.557939 0.190138
vt 0.527778 0.575306
vt 0.557940 0.575306
vt 0.557940 0.575306
vt 0.583333 0.563118
vt 0.583333 0.202326
vt 0.557939 0.190138
vt 0.557940 0.575306
vt 0.583333 0.202326
vt 0.472222 0.190138
vt 0.472222 0.575306
vt 0.527778 0.575306
vt 0.527778 0.575306
vt 0.527778 0.190138
vt 0.472222 0.190138
vt 0.416667 0.190138
vt 0.416667 0.575306
vt 0.472222 0.575306
vt 0.472222 0.575306
vt 0.472222 0.190138
vt 0.416667 0.190138
vt 0.381420 0.190139
vt 0.361111 0.198086
vt 0.361111 0.567359
vt 0.381420 0.190139
vt 0.361111 0.567359
vt 0.381424 0.575306
vt 0.381420 0.190139
vt 0.381424 0.575306
vt 0.416667 0.575306
vt 0.381420 0.190139
vt 0.416667 0.575306
vt 0.416667 0.190138
vt 0.118578 0.190138
vt 0.083333 0.190138
vt 0.083333 0.575306
vt 0.118578 0.190138
vt 0.083333 0.575306
vt 0.118576 0.575306
vt 0.118576 0.575306
vt 0.138889 0.567359
vt 0.138889 0.198086
vt 0.118578 0.190138
vt 0.118576 0.575306
vt 0.138889 0.198086
vt 0.027778 0.190138
vt 0.027778 0.575306
vt 0.083333 0.575306
vt 0.083333 0.575306
vt 0.083333 0.190138
vt 0.027778 0.190138
vt -0.027778 0.190138
vt -0.027778 0.575306
vt 0.027778 0.575306
vt 0.027778 0.575306
vt 0.027778 0.190138
vt -0.027778 0.190138
vt 0.942061 0.190138
vt 0.916667 0.202326
vt 0.916667 0.563118
vt 0.942061 0.190138
vt 0.916667 0.563118
vt 0.942062 0.575306
vt 0.942061 0.190138
vt 0.942062 0.575306
vt 0.972222 0.575306
vt 0.942061 0.190138
vt 0.972222 0.575306
vt 0.972222 0.190138
vt 0.557941 0.190140
vt 0.527778 0.190140
vt 0.527778 0.575307
vt 0.557941 0.190140
vt 0.527778 0.575307
vt 0.557941 0.575307
vt 0.557941 0.575307
vt 0.583333 0.563119
vt 0.583333 0.202328
vt 0.557941 0.190140
vt 0.557941 0.575307
vt 0.583333 0.202328
vt 0.472222 0.190140
vt 0.472222 0.575307
vt 0.527778 0.575307
vt 0.527778 0.575307
vt 0.527778 0.190140
vt 0.472222 0.190140
vt 0.416667 0.190140
vt 0.416667 0.575307
vt 0.472222 0.575307
vt 0.472222 0.575307
vt 0.472222 0.190140
vt 0.416667 0.190140
vt 0.381421 0.190140
vt 0.361111 0.198088
vt 0.361111 0.567359
vt 0.381421 0.190140
vt 0.361111 0.567359
vt 0.381422 0.575308
vt 0.381421 0.190140
vt 0.381422 0.575308
vt 0.416667 0.575307
vt 0.381421 0.190140
vt 0.416667 0.575307
vt 0.416667 0.190140
vt 0.118575 0.190140
vt 0.083333 0.190140
vt 0.083333 0.575307
vt 0.118575 0.190140
vt 0.083333 0.575307
vt 0.118575 0.575307
vt 0.118575 0.575307
vt 0.138889 0.567359
vt 0.138889 0.198088
vt 0.118575 0.190140
vt 0.118575 0.575307
vt 0.138889 0.198088
vt 0.027778 0.190140
vt 0.027778 0.575307
vt 0.083333 0.575307
vt 0.083333 0.575307
vt 0.083333 0.190140
vt 0.027778 0.190140
vt -0.027778 0.190140
vt -0.027778 0.575307
vt 0.027778 0.575307
vt 0.027778 0.575307
vt 0.027778 0.190140
vt -0.027778 0.190140
vt 0.942061 0.190140
vt 0.916667 0.202328
vt 0.916667 0.563119
vt 0.942061 0.190140
vt 0.916667 0.563119
vt 0.942062 0.575307
vt 0.942061 0.190140
vt 0.942062 0.575307
vt 0.972222 0.575307
vt 0.942061 0.190140
vt 0.972222 0.575307
vt 0.972222 0.190140
vt -10.153700 4.968560
vt -11.004700 2.590030
vt -11.004700 2.590030
vt -11.004700 2.590030
vt -10.153700 4.968560
vt -10.153700 4.968560
vt -11.303600 -0.000001
vt -11.004700 2.590030
vt -11.004700 2.590030
vt -11.004700 2.590030
vt -11.303600 -0.000001
vt -11.303600 -0.000001
vt -11.303600 -0.000001
vt -11.004700 -2.590030
vt -11.004700 -2.590030
vt -11.004700 -2.590030
vt -11.303600 -0.000001
vt -11.303600 -0.000001
vt -11.004700 -2.590030
vt -10.153700 -4.968560
vt -10.153700 -4.968560
vt -10.153700 -4.968560
vt -11.004700 -2.590030
vt -11.004700 -2.590030
vt -9.823410 -5.487740
vt -10.153700 -4.968560
vt -10.153700 -4.968560
vt -9.823410 -5.487740
vt -10.153700 -4.968560
vt -9.823410 -5.487740
vt -9.823410 -5.487740
vt -8.823400 -7.059780
vt -8.818530 -7.067440
vt -9.823410 -5.487740
vt -9.823410 -5.487740
vt -8.818530 -7.067440
vt -6.950000 16.000000
vt -5.950000 16.000000
vt -7.000000 16.000000
vt -7.000000 16.000000
vt -7.000000 16.000000
vt -6.950000 16.000000
vt -7.000000 -16.000000
vt -7.000000 16.000000
vt -7.000000 16.000000
vt -7.000000 16.000000
vt -7.000000 -16.000000
vt -7.000000 -16.000000
vt -4.968560 10.153700
vt -4.968560 10.153700
vt -5.294000 9.946650
vt -6.293980 9.310540
vt -7.067440 8.818530
vt -7.067440 8.818530
vt -6.293980 9.310540
vt -7.067440 8.818530
vt -6.293980 9.310550
vt -5.294000 9.946650
vt -6.293980 9.310540
vt -6.293980 9.310550
vt -5.294000 9.946650
vt -6.293980 9.310550
vt -5.294000 9.946660
vt -4.968560 10.153700
vt -5.294000 9.946650
vt -5.294000 9.946660
vt -7.823390 -8.062580
vt -8.818530 -7.067440
vt -8.823400 -7.059780
vt -7.823390 -8.062580
vt -8.823400 -7.059780
vt -7.823390 -8.062580
vt -7.823390 -8.062580
vt -7.067440 -8.818530
vt -7.067440 -8.818530
vt -7.823390 -8.062580
vt -7.823390 -8.062580
vt -7.067440 -8.818530
vt -7.823420 8.062550
vt -7.067440 8.818530
vt -7.067440 8.818530
vt -7.823420 8.062550
vt -7.067440 8.818530
vt -7.823420 8.062550
vt -9.823380 5.487790
vt -10.153700 4.968560
vt -10.153700 4.968560
vt -9.823380 5.487790
vt -10.153700 4.968560
vt -9.823380 5.487790
vt -8.823400 7.059780
vt -9.823380 5.487790
vt -9.823380 5.487790
vt -8.823400 7.059780
vt -9.823380 5.487790
vt -8.823390 7.059800
vt -8.818530 7.067440
vt -8.823400 7.059780
vt -8.823390 7.059800
vt -7.823420 8.062550
vt -8.818530 7.067440
vt -8.823390 7.059800
vt -7.823420 8.062550
vt -7.823420 8.062550
vt -8.823390 7.059800
vt -6.294020 -9.310520
vt -7.067440 -8.818530
vt -7.067440 -8.818530
vt -6.294020 -9.310520
vt -7.067440 -8.818530
vt -6.294000 -9.310530
vt -5.294000 -9.946660
vt -4.968560 -10.153700
vt -4.968560 -10.153700
vt -5.294000 -9.946660
vt -4.968560 -10.153700
vt -5.293990 -9.946660
vt -6.294000 -9.310530
vt -5.294000 -9.946660
vt -5.293990 -9.946660
vt -6.294020 -9.310520
vt -6.294000 -9.310530
vt -5.293990 -9.946660
vt -2.764570 10.942300
vt -2.590030 11.004700
vt -2.590030 11.004700
vt -2.764570 10.942300
vt -2.590030 11.004700
vt -2.764570 10.942300
vt -4.293980 10.395000
vt -4.968560 10.153700
vt -4.968560 10.153700
vt -4.293980 10.395000
vt -4.968560 10.153700
vt -4.293980 10.395000
vt -2.764570 10.942300
vt -4.293980 10.395000
vt -4.293980 10.395000
vt -2.764570 10.942300
vt -2.764570 10.942300
vt -4.293980 10.395000
vt -4.294000 -10.395000
vt -4.968560 -10.153700
vt -4.968560 -10.153700
vt -4.294000 -10.395000
vt -4.968560 -10.153700
vt -4.294000 -10.395000
vt -2.764590 -10.942300
vt -2.590030 -11.004700
vt -2.590030 -11.004700
vt -2.764590 -10.942300
vt -2.590030 -11.004700
vt -2.764600 -10.942300
vt -4.294000 -10.395000
vt -2.764590 -10.942300
vt -2.764600 -10.942300
vt -4.294000 -10.395000
vt -4.294000 -10.395000
vt -2.764600 -10.942300
vt -4.950000 -14.000000
vt -5.000000 -14.000000
vt -5.000000 -14.000000
vt -4.950000 -14.000000
vt -5.000000 -14.000000
vt -4.950000 -14.000000
vt -4.950000 -14.000000
vt -4.950000 -14.000000
vt -3.420590 -14.000000
vt -4.950000 -14.000000
vt -3.420590 -14.000000
vt -2.420580 -14.000000
vt -4.950000 14.000000
vt -5.000000 14.000000
vt -5.000000 14.000000
vt -4.950000 14.000000
vt -5.000000 14.000000
vt -4.950000 14.000000
vt -4.950000 14.000000
vt -3.420590 14.000000
vt -2.420580 14.000000
vt -4.950000 14.000000
vt -4.950000 14.000000
vt -2.420580 14.000000
vt -4.950000 14.000000
vt -2.420580 14.000000
vt -3.420590 14.000000
vt 1.000000 0.750278
vt 0.000000 0.750278
vt 0.000000 0.296337
vt 0.000000 0.296337
vt 1.000000 0.296338
vt 1.000000 0.750278
vt 1.000000 0.744149
vt 0.000000 0.744149
vt 0.000000 0.302467
vt 0.000000 0.302467
vt 1.000000 0.302467
vt 1.000000 0.744149
vt 0.822078 0.520836
vt 0.861111 0.530804
vt 0.861111 0.234640
vt 0.822078 0.520836
vt 0.861111 0.234640
vt 0.822076 0.244609
vt 0.822076 0.244609
vt 0.805556 0.240390
vt 0.805556 0.525055
vt 0.822078 0.520836
vt 0.822076 0.244609
vt 0.805556 0.525055
vt 0.822073 0.520838
vt 0.861111 0.530805
vt 0.861111 0.234642
vt 0.822073 0.520838
vt 0.861111 0.234642
vt 0.822077 0.244610
vt 0.822077 0.244610
vt 0.805556 0.240392
vt 0.805556 0.525055
vt 0.822073 0.520838
vt 0.822077 0.244610
vt 0.805556 0.525055
vt 0.638889 0.234640
vt 0.583333 0.212903
vt 0.583333 0.552542
vt 0.583333 0.552542
vt 0.638889 0.530804
vt 0.638889 0.234640
vt 0.916667 0.212903
vt 0.861111 0.234640
vt 0.861111 0.530804
vt 0.861111 0.530804
vt 0.916667 0.552542
vt 0.916667 0.212903
vt 0.638889 0.234642
vt 0.583333 0.212904
vt 0.583333 0.552543
vt 0.583333 0.552543
vt 0.638889 0.530805
vt 0.638889 0.234642
vt 0.916667 0.212904
vt 0.861111 0.234642
vt 0.861111 0.530805
vt 0.861111 0.530805
vt 0.916667 0.552543
vt 0.916667 0.212904
vt 0.250000 0.206625
vt 0.194444 0.201698
vt 0.194444 0.563747
vt 0.194444 0.563747
vt 0.250000 0.558820
vt 0.250000 0.206625
vt 0.250000 0.206626
vt 0.194445 0.201699
vt 0.194445 0.563748
vt 0.194445 0.563748
vt 0.250000 0.558821
vt 0.250000 0.206626
vt 2.108820 14.000000
vt 1.108820 14.000000
vt 3.638230 14.000000
vt 5.000000 14.000000
vt 5.000000 14.000000
vt 4.638240 14.000000
vt 4.638230 14.000000
vt 5.000000 14.000000
vt 4.638240 14.000000
vt 4.638230 14.000000
vt 4.638240 14.000000
vt 3.638230 14.000000
vt 3.638230 14.000000
vt 4.638230 14.000000
vt 3.638230 14.000000
vt 2.108820 14.000000
vt 3.638230 14.000000
vt 3.638230 14.000000
vt 2.108820 -14.000000
vt 1.108820 -14.000000
vt 2.108820 -14.000000
vt 4.638240 -14.000000
vt 5.000000 -14.000000
vt 5.000000 -14.000000
vt 4.638240 -14.000000
vt 5.000000 -14.000000
vt 4.638230 -14.000000
vt 3.638230 -14.000000
vt 4.638240 -14.000000
vt 4.638230 -14.000000
vt 2.108820 -14.000000
vt 3.638230 -14.000000
vt 4.638230 -14.000000
vt 2.108820 -14.000000
vt 4.638230 -14.000000
vt 3.638230 -14.000000
vt 2.108820 -14.000000
vt 2.108820 -14.000000
vt 3.638230 -14.000000
vt 0.194444 0.212274
vt 0.138889 0.198086
vt 0.138889 0.567359
vt 0.138889 0.567359
vt 0.194445 0.553171
vt 0.194444 0.212274
vt 0.194444 0.212276
vt 0.138889 0.198088
vt 0.138889 0.567359
vt 0.138889 0.567359
vt 0.194444 0.553171
vt 0.194444 0.212276
vt 0.638889 0.224064
vt 0.583333 0.202326
vt 0.583333 0.563118
vt 0.583333 0.563118
vt 0.638889 0.541381
vt 0.638889 0.224064
vt 0.861111 0.224064
vt 0.805556 0.238252
vt 0.805556 0.527193
vt 0.805556 0.527193
vt 0.861111 0.541381
vt 0.861111 0.224064
vt 0.638889 0.224065
vt 0.583333 0.202328
vt 0.583333 0.563119
vt 0.583333 0.563119
vt 0.638889 0.541382
vt 0.638889 0.224065
vt 0.861111 0.224065
vt 0.805556 0.238253
vt 0.805556 0.527194
vt 0.805556 0.527194
vt 0.861111 0.541382
vt 0.861111 0.224065
vt -3.420590 -16.000000
vt -2.420580 -16.000000
vt -3.420590 -16.000000
vt -4.950000 -16.000000
vt -5.950000 -16.000000
vt -6.950000 -16.000000
vt -4.950000 -16.000000
vt -6.950000 -16.000000
vt -5.949990 -16.000000
vt -3.420590 -16.000000
vt -4.950000 -16.000000
vt -5.949990 -16.000000
vt -3.420590 -16.000000
vt -5.949990 -16.000000
vt -4.950000 -16.000000
vt -3.420590 -16.000000
vt -3.420590 -16.000000
vt -4.950000 -16.000000
vt 0.750000 0.529982
vt 0.805556 0.525055
vt 0.805556 0.240390
vt 0.805556 0.240390
vt 0.750000 0.235463
vt 0.750000 0.529982
vt 0.694444 0.240390
vt 0.694444 0.525055
vt 0.750000 0.529982
vt 0.750000 0.529982
vt 0.750000 0.235463
vt 0.694444 0.240390
vt 0.638889 0.234640
vt 0.638889 0.530804
vt 0.677924 0.520836
vt 0.694444 0.525055
vt 0.694444 0.240390
vt 0.677924 0.244609
vt 0.677924 0.520836
vt 0.694444 0.525055
vt 0.677924 0.244609
vt 0.638889 0.234640
vt 0.677924 0.520836
vt 0.677924 0.244609
vt 0.750000 0.529983
vt 0.805556 0.525055
vt 0.805556 0.240392
vt 0.805556 0.240392
vt 0.750000 0.235464
vt 0.750000 0.529983
vt 0.694444 0.240392
vt 0.694444 0.525055
vt 0.750000 0.529983
vt 0.750000 0.529983
vt 0.750000 0.235464
vt 0.694444 0.240392
vt 0.638889 0.234642
vt 0.638889 0.530805
vt 0.677923 0.520836
vt 0.694444 0.525055
vt 0.694444 0.240392
vt 0.677923 0.244612
vt 0.677923 0.520836
vt 0.694444 0.525055
vt 0.677923 0.244612
vt 0.638889 0.234642
vt 0.677923 0.520836
vt 0.677923 0.244612
vt 0.250000 0.206625
vt 0.250000 0.558820
vt 0.305556 0.563747
vt 0.305556 0.563747
vt 0.305556 0.201698
vt 0.250000 0.206625
vt 0.250000 0.206626
vt 0.250000 0.558821
vt 0.305556 0.563748
vt 0.305556 0.563748
vt 0.305556 0.201699
vt 0.250000 0.206626
vt 5.000000 14.000000
vt 5.000000 -14.000000
vt 5.000000 -14.000000
vt 5.000000 -14.000000
vt 5.000000 14.000000
vt 5.000000 14.000000
vt 0.305556 0.212274
vt 0.305556 0.553171
vt 0.361111 0.567359
vt 0.361111 0.567359
vt 0.361111 0.198086
vt 0.305556 0.212274
vt 0.250000 0.217201
vt 0.250000 0.548243
vt 0.305556 0.553171
vt 0.305556 0.553171
vt 0.305556 0.212274
vt 0.250000 0.217201
vt 0.194444 0.212274
vt 0.194445 0.553171
vt 0.250000 0.548243
vt 0.250000 0.548243
vt 0.250000 0.217201
vt 0.194444 0.212274
vt 0.305556 0.212276
vt 0.305556 0.553171
vt 0.361111 0.567359
vt 0.361111 0.567359
vt 0.361111 0.198088
vt 0.305556 0.212276
vt 0.250000 0.217203
vt 0.250000 0.548244
vt 0.305556 0.553171
vt 0.305556 0.553171
vt 0.305556 0.212276
vt 0.250000 0.217203
vt 0.194444 0.212276
vt 0.194444 0.553171
vt 0.250000 0.548244
vt 0.250000 0.548244
vt 0.250000 0.217203
vt 0.194444 0.212276
vt 0.750000 0.522265
vt 0.805556 0.527193
vt 0.805556 0.238252
vt 0.805556 0.238252
vt 0.750000 0.243180
vt 0.750000 0.522265
vt 0.694444 0.238252
vt 0.694444 0.527193
vt 0.750000 0.522265
vt 0.750000 0.522265
vt 0.750000 0.243180
vt 0.694444 0.238252
vt 0.638889 0.224064
vt 0.638889 0.541381
vt 0.694444 0.527193
vt 0.694444 0.527193
vt 0.694444 0.238252
vt 0.638889 0.224064
vt 0.861111 0.224064
vt 0.861111 0.541381
vt 0.916667 0.563118
vt 0.916667 0.563118
vt 0.916667 0.202326
vt 0.861111 0.224064
vt 0.750000 0.522266
vt 0.805556 0.527194
vt 0.805556 0.238253
vt 0.805556 0.238253
vt 0.750000 0.243181
vt 0.750000 0.522266
vt 0.694444 0.238253
vt 0.694444 0.527194
vt 0.750000 0.522266
vt 0.750000 0.522266
vt 0.750000 0.243181
vt 0.694444 0.238253
vt 0.638889 0.224065
vt 0.638889 0.541382
vt 0.694444 0.527194
vt 0.694444 0.527194
vt 0.694444 0.238253
vt 0.638889 0.224065
vt 0.861111 0.224065
vt 0.861111 0.541382
vt 0.916667 0.563119
vt 0.916667 0.563119
vt 0.916667 0.202328
vt 0.861111 0.224065
vt -5.000000 14.000000
vt -5.000000 -14.000000
vt -5.000000 -14.000000
vt -5.000000 -14.000000
vt -5.000000 14.000000
vt -5.000000 14.000000
vt 0.529412 0.500000
vt 0.534967 0.500000
vt 0.531422 0.500000
vt 0.531422 0.500000
vt 0.529412 0.500000
vt 0.529412 0.500000
vt 0.534967 0.500000
vt 0.531422 0.500000
vt 0.531422 0.500000
vt 0.531422 0.500000
vt 0.534967 0.500000
vt 0.534967 0.500000
vt 0.633229 0.500000
vt 0.635492 0.500000
vt 0.633275 0.500000
vt 0.633229 0.500000
vt 0.633275 0.500000
vt 0.633007 0.500000
vt 0.633229 0.500000
vt 0.633007 0.500000
vt 0.632957 0.500000
vt 0.641503 0.500000
vt 0.641106 0.500000
vt 0.638211 0.500000
vt 0.635492 0.500000
vt 0.633229 0.500000
vt 0.635492 0.500000
vt 0.638211 0.500000
vt 0.635492 0.500000
vt 0.635492 0.500000
vt 0.641503 0.500000
vt 0.638211 0.500000
vt 0.635492 0.500000
vt 0.635492 0.500000
vt 0.638211 0.500000
vt 0.641106 0.500000
vt 0.641503 0.500000
vt 0.635492 0.500000
vt 0.641106 0.500000
vt 0.641503 0.500000
vt 0.641106 0.500000
vt 0.641503 0.500000
vt 0.633229 0.500000
vt 0.632957 0.500000
vt 0.635492 0.500000
vt -1.420590 -16.000000
vt -2.420580 -16.000000
vt -3.420590 -16.000000
vt -1.420590 -16.000000
vt -3.420590 -16.000000
vt -2.420590 -16.000000
vt -1.420590 -16.000000
vt -2.420590 -16.000000
vt -1.420590 -16.000000
vt 7.000000 -16.000000
vt 4.638240 -16.000000
vt 3.638230 -16.000000
vt 5.638230 -16.000000
vt 7.000000 -16.000000
vt 3.638230 -16.000000
vt 5.638230 -16.000000
vt 3.638230 -16.000000
vt 2.108820 -16.000000
vt 4.638230 -16.000000
vt 5.638230 -16.000000
vt 2.108820 -16.000000
vt 4.638230 -16.000000
vt 2.108820 -16.000000
vt 1.108820 -16.000000
vt 3.638230 -16.000000
vt 4.638230 -16.000000
vt 1.108820 -16.000000
vt 3.638230 -16.000000
vt 1.108820 -16.000000
vt 0.108823 -16.000000
vt 2.108820 -16.000000
vt 3.638230 -16.000000
vt 0.108823 -16.000000
vt 1.108830 -16.000000
vt 2.108820 -16.000000
vt 0.108823 -16.000000
vt 0.108823 -16.000000
vt 1.108830 -16.000000
vt 0.108823 -16.000000
vt -1.420590 -16.000000
vt 0.108823 -16.000000
vt 0.108823 -16.000000
vt -1.420590 -16.000000
vt -1.420590 -16.000000
vt 0.108823 -16.000000
vt 7.000000 16.000000
vt 7.000000 16.000000
vt 5.638230 16.000000
vt 7.000000 16.000000
vt 5.638230 16.000000
vt 4.638240 16.000000
vt 7.000000 16.000000
vt 4.638240 16.000000
vt 5.638230 16.000000
vt -3.420590 16.000000
vt -2.420580 16.000000
vt -4.950000 16.000000
vt -3.420590 16.000000
vt -4.950000 16.000000
vt -5.949990 16.000000
vt -7.000000 16.000000
vt -5.950000 16.000000
vt -4.950000 16.000000
vt -6.950000 16.000000
vt -7.000000 16.000000
vt -4.950000 16.000000
vt -5.949990 16.000000
vt -6.950000 16.000000
vt -4.950000 16.000000
vt -3.420590 16.000000
vt -5.949990 16.000000
vt -4.950000 16.000000
vt -7.000000 -16.000000
vt -7.000000 -16.000000
vt -6.950000 -16.000000
vt -7.000000 -16.000000
vt -6.950000 -16.000000
vt -5.950000 -16.000000
vt -7.000000 -16.000000
vt -5.950000 -16.000000
vt -6.950000 -16.000000
f 1/1 2/2 3/3
f 3/4 4/5 1/6
f 5/7 6/8 7/9
f 7/10 8/11 5/12
f 9/13 10/14 11/15
f 11/16 12/17 9/18
f 11/19 10/20 13/21
f 13/22 14/23 11/24
f 6/25 3/26 2/27
f 2/28 7/29 6/30
f 15/31 9/32 12/33
f 12/34 16/35 15/36
f 17/37 18/38 19/39
f 19/40 20/41 21/42
f 17/43 19/44 21/45
f 22/46 23/47 24/48
f 22/49 24/50 25/51
f 22/52 25/53 26/54
f 27/55 18/56 17/57
f 17/58 28/59 29/60
f 27/61 17/62 29/63
f 26/64 27/65 29/66
f 22/67 26/68 29/69
f 29/70 30/71 31/72
f 22/73 29/74 31/75
f 32/76 33/77 34/78
f 32/79 34/80 35/81
f 32/82 35/83 36/84
f 37/85 38/86 39/87
f 40/88 37/89 39/90
f 41/91 40/92 39/93
f 36/94 41/95 39/96
f 32/97 36/98 39/99
f 39/100 42/101 43/102
f 32/103 39/104 43/105
f 34/106 44/107 45/108
f 34/109 45/110 46/111
f 34/112 46/113 35/114
f 47/115 48/116 49/117
f 47/118 49/119 50/120
f 50/121 23/122 22/123
f 47/124 50/125 22/126
f 22/127 51/128 52/129
f 47/130 22/131 52/132
f 53/133 54/134 55/135
f 53/136 55/137 39/138
f 53/139 39/140 38/141
f 53/142 38/143 56/144
f 53/145 56/146 57/147
f 53/148 57/149 58/150
f 47/151 59/152 60/153
f 47/154 60/155 61/156
f 47/157 61/158 48/159
f 62/160 63/161 53/162
f 62/163 53/164 58/165
f 62/166 58/167 64/168
f 65/169 66/170 67/171
f 67/172 68/173 69/174
f 65/175 67/176 69/177
f 65/178 69/179 70/180
f 65/181 70/182 71/183
f 71/184 72/185 73/186
f 65/187 71/188 73/189
f 74/190 75/191 76/192
f 76/193 77/194 78/195
f 76/196 78/197 79/198
f 74/199 76/200 79/201
f 74/202 79/203 80/204
f 81/205 82/206 83/207
f 84/208 85/209 86/210
f 83/211 84/212 86/213
f 83/214 86/215 87/216
f 81/217 83/218 87/219
f 88/220 89/221 90/222
f 88/223 90/224 91/225
f 88/226 91/227 92/228
f 92/229 80/230 79/231
f 79/232 93/233 94/234
f 79/235 94/236 95/237
f 92/238 79/239 95/240
f 88/241 92/242 95/243
f 96/244 97/245 98/246
f 96/247 98/248 83/249
f 96/250 83/251 82/252
f 96/253 82/254 99/255
f 100/256 69/257 68/258
f 101/259 100/260 68/261
f 99/262 101/263 68/264
f 96/265 99/266 68/267
f 102/268 103/269 104/270
f 105/271 89/272 88/273
f 88/274 106/275 107/276
f 88/277 107/278 108/279
f 105/280 88/281 108/282
f 104/283 105/284 108/285
f 102/286 104/287 108/288
f 109/289 110/290 111/291
f 111/292 112/293 109/294
f 113/295 114/296 115/297
f 116/298 117/299 118/300
f 118/301 119/302 116/303
f 120/304 121/305 122/306
f 122/307 123/308 120/309
f 124/310 125/311 126/312
f 126/313 127/314 124/315
f 128/316 124/317 127/318
f 127/319 129/320 128/321
f 130/322 131/323 132/324
f 132/325 133/326 130/327
f 134/328 130/329 133/330
f 133/331 135/332 134/333
f 136/334 137/335 138/336
f 138/337 139/338 136/339
f 140/340 136/341 139/342
f 139/343 141/344 140/345
f 142/346 143/347 144/348
f 145/349 146/350 147/351
f 148/352 145/353 147/354
f 148/355 147/356 149/357
f 144/358 148/359 149/360
f 142/361 144/362 149/363
f 150/364 143/365 142/366
f 142/367 151/368 150/369
f 152/370 128/371 129/372
f 129/373 153/374 152/375
f 154/376 155/377 156/378
f 156/379 157/380 154/381
f 158/382 140/383 141/384
f 141/385 159/386 158/387
f 144/388 114/389 113/390
f 113/391 148/392 144/393
f 160/394 150/395 151/396
f 151/397 161/398 160/399
f 162/400 163/401 158/402
f 158/403 159/404 162/405
f 164/406 165/407 154/408
f 154/409 157/410 164/411
f 166/412 167/413 163/414
f 163/415 168/416 166/417
f 169/418 170/419 171/420
f 171/421 172/422 169/423
f 119/424 132/425 131/426
f 131/427 116/428 119/429
f 173/430 174/431 175/432
f 175/433 176/434 173/435
f 123/436 138/437 137/438
f 137/439 120/440 123/441
f 177/442 178/443 179/444
f 179/445 180/446 177/447
f 181/448 182/449 183/450
f 183/451 184/452 181/453
f 185/454 186/455 187/456
f 187/457 188/458 185/459
f 189/460 126/461 125/462
f 125/463 111/464 189/465
f 190/466 191/467 192/468
f 190/469 192/470 156/471
f 134/472 135/473 193/474
f 155/475 134/476 193/477
f 156/478 155/479 193/480
f 190/481 156/482 193/483
f 153/484 118/485 117/486
f 117/487 152/488 153/489
f 161/490 122/491 121/492
f 121/493 160/494 161/495
f 189/496 111/497 110/498
f 110/499 194/500 189/501
f 171/502 195/503 196/504
f 196/505 172/506 171/507
f 175/508 197/509 198/510
f 198/511 176/512 175/513
f 194/514 110/515 188/516
f 188/517 187/518 194/519
f 195/520 177/521 180/522
f 180/523 196/524 195/525
f 197/526 181/527 184/528
f 184/529 198/530 197/531
f 199/532 186/533 185/534
f 185/535 200/536 199/537
f 178/538 199/539 200/540
f 200/541 179/542 178/543
f 191/544 170/545 169/546
f 169/547 192/548 191/549
f 201/550 174/551 173/552
f 173/553 202/554 201/555
f 203/556 201/557 202/558
f 202/559 204/560 203/561
f 205/562 146/563 145/564
f 145/565 206/566 205/567
f 182/568 205/569 206/570
f 206/571 183/572 182/573
f 207/574 208/575 209/576
f 207/577 209/578 210/579
f 207/580 210/581 211/582
f 207/583 211/584 212/585
f 213/586 214/587 215/588
f 215/589 216/590 217/591
f 213/592 215/593 217/594
f 213/595 217/596 218/597
f 219/598 220/599 221/600
f 221/601 222/602 219/603
f 223/604 224/605 225/606
f 223/607 225/608 226/609
f 226/610 227/611 228/612
f 223/613 226/614 228/615
f 229/616 230/617 231/618
f 231/619 232/620 229/621
f 233/622 234/623 235/624
f 233/625 235/626 236/627
f 233/628 236/629 237/630
f 233/631 237/632 238/633
f 233/634 238/635 239/636
f 240/637 241/638 242/639
f 242/640 243/641 240/642
f 234/643 244/644 245/645
f 246/646 247/647 248/648
f 245/649 246/650 248/651
f 234/652 245/653 248/654
f 234/655 248/656 235/657
f 249/658 250/659 251/660
f 249/661 251/662 252/663
f 252/664 253/665 242/666
f 252/667 242/668 241/669
f 249/670 252/671 241/672
f 254/673 255/674 256/675
f 256/676 257/677 258/678
f 254/679 256/680 258/681
f 254/682 258/683 259/684
f 240/685 243/686 256/687
f 256/688 255/689 240/690
f 258/691 260/692 261/693
f 261/694 259/695 258/696
f 239/697 238/698 262/699
f 239/700 262/701 229/702
f 239/703 229/704 232/705
f 239/706 232/707 263/708
f 264/709 265/710 261/711
f 264/712 261/713 260/714
f 264/715 260/716 266/717
f 264/718 266/719 267/720
f 268/721 269/722 270/723
f 270/724 231/725 230/726
f 268/727 270/728 230/729
f 268/730 230/731 271/732
f 264/733 267/734 272/735
f 272/736 273/737 264/738
f 274/739 275/740 273/741
f 274/742 273/743 272/744
f 274/745 272/746 276/747
f 274/748 276/749 277/750
f 278/751 269/752 268/753
f 268/754 279/755 278/756
f 280/757 281/758 282/759
f 282/760 278/761 279/762
f 280/763 282/764 279/765
f 280/766 279/767 283/768
f 284/769 281/770 280/771
f 280/772 285/773 284/774
f 277/775 286/776 287/777
f 287/778 274/779 277/780
f 288/781 289/782 287/783
f 288/784 287/785 286/786
f 288/787 286/788 290/789
f 288/790 290/791 291/792
f 219/793 222/794 292/795
f 292/796 284/797 285/798
f 219/799 292/800 285/801
f 219/802 285/803 293/804
f 291/805 228/806 227/807
f 227/808 288/809 291/810
f 294/811 295/812 296/813
f 296/814 221/815 220/816
f 294/817 296/818 220/819
f 294/820 220/821 297/822
f 224/823 298/824 299/825
f 299/826 225/827 224/828
f 300/829 301/830 299/831
f 300/832 299/833 298/834
f 300/835 298/836 302/837
f 300/838 302/839 303/840
f 304/841 295/842 294/843
f 294/844 305/845 304/846
f 306/847 307/848 308/849
f 308/850 304/851 305/852
f 306/853 308/854 305/855
f 306/856 305/857 309/858
f 303/859 218/860 217/861
f 217/862 300/863 303/864
f 209/865 307/866 306/867
f 306/868 210/869 209/870
f 214/871 310/872 311/873
f 311/874 215/875 214/876
f 312/877 313/878 314/879
f 314/880 315/881 316/882
f 316/883 317/884 318/885
f 314/886 316/887 318/888
f 312/889 314/890 318/891
f 319/892 320/893 321/894
f 319/895 321/896 322/897
f 319/898 322/899 323/900
f 323/901 324/902 325/903
f 319/904 323/905 325/906
f 207/907 212/908 326/909
f 316/910 315/911 327/912
f 326/913 316/914 327/915
f 207/916 326/917 327/918
f 321/919 311/920 310/921
f 310/922 322/923 321/924
f 328/925 329/926 330/927
f 328/928 330/929 331/930
f 332/931 333/932 334/933
f 335/934 332/935 334/936
f 335/937 334/938 336/939
f 337/940 335/941 336/942
f 331/943 337/944 336/945
f 328/946 331/947 336/948
f 338/949 339/950 340/951
f 338/952 340/953 341/954
f 341/955 330/956 329/957
f 338/958 341/959 329/960
f 338/961 329/962 342/963
f 343/964 344/965 345/966
f 345/967 346/968 347/969
f 347/970 348/971 349/972
f 345/973 347/974 349/975
f 349/976 350/977 351/978
f 345/979 349/980 351/981
f 343/982 345/983 351/984
f 343/985 351/986 352/987
f 353/988 347/989 346/990
f 354/991 355/992 356/993
f 346/994 354/995 356/996
f 353/997 346/998 356/999
f 353/1000 356/1001 357/1002
f 358/1003 352/1004 351/1005
f 359/1006 360/1007 361/1008
f 351/1009 359/1010 361/1011
f 358/1012 351/1013 361/1014
f 361/1015 362/1016 363/1017
f 358/1018 361/1019 363/1020
f 358/1021 363/1022 364/1023
f 365/1024 366/1025 367/1026
f 365/1027 367/1028 368/1029
f 365/1030 368/1031 369/1032
f 370/1033 371/1034 372/1035
f 370/1036 372/1037 369/1038
f 366/1039 365/1040 333/1041
f 333/1042 332/1043 373/1044
f 366/1045 333/1046 373/1047
f 367/1048 366/1049 373/1050
f 367/1051 373/1052 374/1053
f 368/1054 367/1055 374/1056
f 369/1057 368/1058 374/1059
f 370/1060 369/1061 374/1062
f 375/1063 376/1064 377/1065
f 377/1066 378/1067 379/1068
f 379/1069 380/1070 381/1071
f 377/1072 379/1073 381/1074
f 375/1075 377/1076 381/1077
f 375/1078 381/1079 382/1080
f 383/1081 384/1082 385/1083
f 383/1084 385/1085 386/1086
f 383/1087 386/1088 387/1089
f 375/1090 382/1091 388/1092
f 389/1093 375/1094 388/1095
f 389/1096 388/1097 390/1098
f 391/1099 389/1100 390/1101
f 392/1102 391/1103 390/1104
f 392/1105 390/1106 393/1107
f 392/1108 393/1109 394/1110
f 395/1111 392/1112 394/1113
f 387/1114 395/1115 394/1116
f 387/1117 394/1118 396/1119
f 383/1120 387/1121 396/1122
f 397/1123 398/1124 399/1125
f 399/1126 400/1127 401/1128
f 397/1129 399/1130 401/1131
f 402/1132 403/1133 404/1134
f 404/1135 405/1136 406/1137
f 402/1138 404/1139 406/1140
f 406/1141 407/1142 408/1143
f 402/1144 406/1145 408/1146
f 402/1147 408/1148 409/1149
f 410/1150 379/1151 378/1152
f 410/1153 378/1154 411/1155
f 410/1156 411/1157 412/1158
f 413/1159 408/1160 407/1161
f 413/1162 407/1163 414/1164
f 413/1165 414/1166 415/1167
f 11/1168 14/1169 8/1170
f 11/1171 8/1172 7/1173
f 2/1174 1/1175 16/1176
f 2/1177 16/1178 12/1179
f 7/1180 2/1181 12/1182
f 11/1183 7/1184 12/1185
f 9/1186 15/1187 4/1188
f 9/1189 4/1190 3/1191
f 6/1192 5/1193 13/1194
f 6/1195 13/1196 10/1197
f 3/1198 6/1199 10/1200
f 9/1201 3/1202 10/1203
f 118/1204 153/1205 139/1206
f 118/1207 139/1208 138/1209
f 118/1210 138/1211 123/1212
f 142/1213 132/1214 119/1215
f 151/1216 142/1217 119/1218
f 161/1219 151/1220 119/1221
f 122/1222 161/1223 119/1224
f 123/1225 122/1226 119/1227
f 118/1228 123/1229 119/1230
f 195/1231 171/1232 205/1233
f 195/1234 205/1235 182/1236
f 195/1237 182/1238 181/1239
f 201/1240 178/1241 177/1242
f 174/1243 201/1244 177/1245
f 175/1246 174/1247 177/1248
f 197/1249 175/1250 177/1251
f 181/1252 197/1253 177/1254
f 195/1255 181/1256 177/1257
f 227/1258 226/1259 297/1260
f 227/1261 297/1262 220/1263
f 219/1264 293/1265 289/1266
f 219/1267 289/1268 288/1269
f 220/1270 219/1271 288/1272
f 227/1273 220/1274 288/1275
f 277/1276 276/1277 282/1278
f 277/1279 282/1280 281/1281
f 284/1282 292/1283 290/1284
f 284/1285 290/1286 286/1287
f 281/1288 284/1289 286/1290
f 277/1291 281/1292 286/1293
f 287/1294 289/1295 293/1296
f 287/1297 293/1298 285/1299
f 280/1300 283/1301 275/1302
f 280/1303 275/1304 274/1305
f 285/1306 280/1307 274/1308
f 287/1309 285/1310 274/1311
f 291/1312 290/1313 292/1314
f 291/1315 292/1316 222/1317
f 221/1318 296/1319 223/1320
f 221/1321 223/1322 228/1323
f 222/1324 221/1325 228/1326
f 291/1327 222/1328 228/1329
f 22/1330 31/1331 42/1332
f 22/1333 42/1334 39/1335
f 39/1336 55/1337 51/1338
f 22/1339 39/1340 51/1341
f 30/1342 43/1343 42/1344
f 42/1345 31/1346 30/1347
f 29/1348 32/1349 43/1350
f 43/1351 30/1352 29/1353
f 28/1354 33/1355 32/1356
f 32/1357 29/1358 28/1359
f 17/1360 21/1361 44/1362
f 17/1363 44/1364 34/1365
f 17/1366 34/1367 33/1368
f 17/1369 33/1370 28/1371
f 18/1372 27/1373 36/1374
f 18/1375 36/1376 35/1377
f 35/1378 46/1379 19/1380
f 18/1381 35/1382 19/1383
f 26/1384 41/1385 36/1386
f 36/1387 27/1388 26/1389
f 25/1390 40/1391 41/1392
f 41/1393 26/1394 25/1395
f 24/1396 37/1397 40/1398
f 40/1399 25/1400 24/1401
f 23/1402 50/1403 56/1404
f 23/1405 56/1406 38/1407
f 23/1408 38/1409 37/1410
f 23/1411 37/1412 24/1413
f 416/1414 417/1415 418/1416
f 416/1417 418/1418 419/1419
f 419/1420 420/1421 421/1422
f 416/1423 419/1424 421/1425
f 422/1426 423/1427 418/1428
f 418/1429 417/1430 422/1431
f 424/1432 425/1433 423/1434
f 423/1435 422/1436 424/1437
f 426/1438 427/1439 425/1440
f 425/1441 424/1442 426/1443
f 428/1444 429/1445 430/1446
f 428/1447 430/1448 431/1449
f 428/1450 431/1451 427/1452
f 428/1453 427/1454 426/1455
f 432/1456 433/1457 434/1458
f 432/1459 434/1460 435/1461
f 435/1462 436/1463 437/1464
f 432/1465 435/1466 437/1467
f 438/1468 439/1469 434/1470
f 434/1471 433/1472 438/1473
f 440/1474 441/1475 439/1476
f 439/1477 438/1478 440/1479
f 442/1480 443/1481 441/1482
f 441/1483 440/1484 442/1485
f 444/1486 445/1487 446/1488
f 444/1489 446/1490 447/1491
f 444/1492 447/1493 443/1494
f 444/1495 443/1496 442/1497
f 312/1498 318/1499 319/1500
f 319/1501 325/1502 312/1503
f 318/1504 317/1505 320/1506
f 320/1507 319/1508 318/1509
f 321/1510 320/1511 317/1512
f 321/1513 317/1514 316/1515
f 316/1516 326/1517 311/1518
f 321/1519 316/1520 311/1521
f 314/1522 313/1523 324/1524
f 324/1525 323/1526 314/1527
f 313/1528 312/1529 325/1530
f 325/1531 324/1532 313/1533
f 111/1534 125/1535 448/1536
f 448/1537 112/1538 111/1539
f 109/1540 112/1541 448/1542
f 448/1543 166/1544 109/1545
f 215/1546 311/1547 326/1548
f 215/1549 326/1550 212/1551
f 212/1552 211/1553 216/1554
f 215/1555 212/1556 216/1557
f 302/1558 308/1559 307/1560
f 209/1561 208/1562 213/1563
f 209/1564 213/1565 218/1566
f 307/1567 209/1568 218/1569
f 307/1570 218/1571 303/1572
f 302/1573 307/1574 303/1575
f 145/1576 172/1577 196/1578
f 185/1579 188/1580 168/1581
f 200/1582 185/1583 168/1584
f 200/1585 168/1586 449/1587
f 179/1588 200/1589 449/1590
f 179/1591 449/1592 450/1593
f 180/1594 179/1595 450/1596
f 180/1597 450/1598 173/1599
f 180/1600 173/1601 451/1602
f 180/1603 451/1604 198/1605
f 196/1606 180/1607 198/1608
f 196/1609 198/1610 184/1611
f 196/1612 184/1613 452/1614
f 196/1615 452/1616 453/1617
f 145/1618 196/1619 453/1620
f 217/1621 216/1622 211/1623
f 217/1624 211/1625 210/1626
f 306/1627 309/1628 301/1629
f 306/1630 301/1631 300/1632
f 210/1633 306/1634 300/1635
f 217/1636 210/1637 300/1638
f 214/1639 213/1640 208/1641
f 214/1642 208/1643 207/1644
f 315/1645 314/1646 323/1647
f 315/1648 323/1649 322/1650
f 327/1651 315/1652 322/1653
f 327/1654 322/1655 310/1656
f 207/1657 327/1658 310/1659
f 214/1660 207/1661 310/1662
f 299/1663 301/1664 309/1665
f 299/1666 309/1667 305/1668
f 294/1669 297/1670 226/1671
f 294/1672 226/1673 225/1674
f 305/1675 294/1676 225/1677
f 299/1678 305/1679 225/1680
f 224/1681 223/1682 296/1683
f 224/1684 296/1685 295/1686
f 304/1687 308/1688 302/1689
f 304/1690 302/1691 298/1692
f 295/1693 304/1694 298/1695
f 224/1696 295/1697 298/1698
f 88/1699 95/1700 96/1701
f 88/1702 96/1703 68/1704
f 68/1705 67/1706 106/1707
f 88/1708 68/1709 106/1710
f 94/1711 97/1712 96/1713
f 96/1714 95/1715 94/1716
f 93/1717 98/1718 97/1719
f 97/1720 94/1721 93/1722
f 79/1723 78/1724 84/1725
f 79/1726 84/1727 83/1728
f 79/1729 83/1730 98/1731
f 79/1732 98/1733 93/1734
f 80/1735 92/1736 99/1737
f 80/1738 99/1739 82/1740
f 82/1741 81/1742 74/1743
f 80/1744 82/1745 74/1746
f 91/1747 101/1748 99/1749
f 99/1750 92/1751 91/1752
f 90/1753 100/1754 101/1755
f 101/1756 91/1757 90/1758
f 89/1759 105/1760 70/1761
f 89/1762 70/1763 69/1764
f 89/1765 69/1766 100/1767
f 89/1768 100/1769 90/1770
f 332/1771 335/1772 343/1773
f 332/1774 343/1775 352/1776
f 352/1777 358/1778 373/1779
f 332/1780 352/1781 373/1782
f 337/1783 344/1784 343/1785
f 343/1786 335/1787 337/1788
f 331/1789 345/1790 344/1791
f 344/1792 337/1793 331/1794
f 330/1795 341/1796 354/1797
f 330/1798 354/1799 346/1800
f 330/1801 346/1802 345/1803
f 330/1804 345/1805 331/1806
f 329/1807 328/1808 348/1809
f 329/1810 348/1811 347/1812
f 347/1813 353/1814 342/1815
f 329/1816 347/1817 342/1818
f 336/1819 349/1820 348/1821
f 348/1822 328/1823 336/1824
f 334/1825 350/1826 349/1827
f 349/1828 336/1829 334/1830
f 333/1831 365/1832 359/1833
f 333/1834 359/1835 351/1836
f 333/1837 351/1838 350/1839
f 333/1840 350/1841 334/1842
f 248/1843 247/1844 250/1845
f 250/1846 249/1847 248/1848
f 251/1849 250/1850 247/1851
f 247/1852 246/1853 251/1854
f 246/1855 245/1856 252/1857
f 252/1858 251/1859 246/1860
f 245/1861 244/1862 253/1863
f 253/1864 252/1865 245/1866
f 242/1867 253/1868 244/1869
f 242/1870 244/1871 234/1872
f 234/1873 233/1874 243/1875
f 242/1876 234/1877 243/1878
f 157/1879 156/1880 115/1881
f 115/1882 164/1883 157/1884
f 165/1885 164/1886 115/1887
f 115/1888 454/1889 165/1890
f 265/1891 271/1892 230/1893
f 229/1894 262/1895 254/1896
f 229/1897 254/1898 259/1899
f 230/1900 229/1901 259/1902
f 230/1903 259/1904 261/1905
f 265/1906 230/1907 261/1908
f 256/1909 243/1910 233/1911
f 256/1912 233/1913 239/1914
f 239/1915 263/1916 257/1917
f 256/1918 239/1919 257/1920
f 255/1921 254/1922 262/1923
f 255/1924 262/1925 238/1926
f 235/1927 248/1928 249/1929
f 235/1930 249/1931 241/1932
f 236/1933 235/1934 241/1935
f 236/1936 241/1937 240/1938
f 237/1939 236/1940 240/1941
f 238/1942 237/1943 240/1944
f 255/1945 238/1946 240/1947
f 258/1948 257/1949 263/1950
f 258/1951 263/1952 232/1953
f 231/1954 270/1955 266/1956
f 231/1957 266/1958 260/1959
f 232/1960 231/1961 260/1962
f 258/1963 232/1964 260/1965
f 273/1966 275/1967 283/1968
f 273/1969 283/1970 279/1971
f 268/1972 271/1973 265/1974
f 268/1975 265/1976 264/1977
f 279/1978 268/1979 264/1980
f 273/1981 279/1982 264/1983
f 267/1984 266/1985 270/1986
f 267/1987 270/1988 269/1989
f 278/1990 282/1991 276/1992
f 278/1993 276/1994 272/1995
f 269/1996 278/1997 272/1998
f 267/1999 269/2000 272/2001
f 142/2002 149/2003 193/2004
f 142/2005 193/2006 135/2007
f 142/2008 135/2009 133/2010
f 142/2011 133/2012 132/2013
f 191/2014 190/2015 147/2016
f 191/2017 147/2018 146/2019
f 146/2020 205/2021 171/2022
f 191/2023 146/2024 171/2025
f 191/2026 171/2027 170/2028
f 15/2029 16/2030 1/2031
f 1/2032 4/2033 15/2034
f 14/2035 13/2036 5/2037
f 5/2038 8/2039 14/2040
f 58/2041 57/2042 49/2043
f 58/2044 49/2045 48/2046
f 48/2047 61/2048 64/2049
f 58/2050 48/2051 64/2052
f 455/2053 456/2054 457/2055
f 455/2056 457/2057 458/2058
f 458/2059 459/2060 414/2061
f 455/2062 458/2063 414/2064
f 52/2065 51/2066 55/2067
f 55/2068 54/2069 52/2070
f 50/2071 49/2072 57/2073
f 57/2074 56/2075 50/2076
f 460/2077 421/2078 420/2079
f 420/2080 461/2081 460/2082
f 445/2083 457/2084 456/2085
f 456/2086 446/2087 445/2088
f 20/2089 19/2090 46/2091
f 46/2092 45/2093 20/2094
f 462/2095 437/2096 436/2097
f 436/2098 463/2099 462/2100
f 199/2101 178/2102 201/2103
f 464/2104 194/2105 187/2106
f 203/2107 464/2108 187/2109
f 203/2110 187/2111 186/2112
f 201/2113 203/2114 186/2115
f 199/2116 201/2117 186/2118
f 139/2119 153/2120 129/2121
f 126/2122 189/2123 162/2124
f 126/2125 162/2126 159/2127
f 127/2128 126/2129 159/2130
f 129/2131 127/2132 159/2133
f 129/2134 159/2135 141/2136
f 139/2137 129/2138 141/2139
f 75/2140 74/2141 81/2142
f 81/2143 87/2144 75/2145
f 338/2146 342/2147 353/2148
f 353/2149 357/2150 338/2151
f 107/2152 106/2153 67/2154
f 67/2155 66/2156 107/2157
f 104/2158 103/2159 72/2160
f 72/2161 71/2162 104/2163
f 374/2164 373/2165 358/2166
f 358/2167 364/2168 374/2169
f 369/2170 372/2171 361/2172
f 361/2173 360/2174 369/2175
f 150/2176 131/2177 130/2178
f 134/2179 155/2180 465/2181
f 134/2182 465/2183 466/2184
f 130/2185 134/2186 466/2187
f 130/2188 466/2189 143/2190
f 150/2191 130/2192 143/2193
f 62/2194 64/2195 61/2196
f 61/2197 60/2198 62/2199
f 59/2200 63/2201 62/2202
f 62/2203 60/2204 59/2205
f 52/2206 54/2207 53/2208
f 63/2209 59/2210 47/2211
f 53/2212 63/2213 47/2214
f 52/2215 53/2216 47/2217
f 467/2218 414/2219 459/2220
f 459/2221 468/2222 467/2223
f 469/2224 470/2225 467/2226
f 467/2227 468/2228 469/2229
f 460/2230 461/2231 471/2232
f 470/2233 469/2234 472/2235
f 471/2236 470/2237 472/2238
f 460/2239 471/2240 472/2241
f 20/2242 45/2243 44/2244
f 44/2245 21/2246 20/2247
f 462/2248 463/2249 430/2250
f 430/2251 429/2252 462/2253
f 464/2254 162/2255 189/2256
f 189/2257 194/2258 464/2259
f 77/2260 85/2261 84/2262
f 84/2263 78/2264 77/2265
f 76/2266 86/2267 85/2268
f 85/2269 77/2270 76/2271
f 75/2272 87/2273 86/2274
f 86/2275 76/2276 75/2277
f 340/2278 355/2279 354/2280
f 354/2281 341/2282 340/2283
f 339/2284 356/2285 355/2286
f 355/2287 340/2288 339/2289
f 338/2290 357/2291 356/2292
f 356/2293 339/2294 338/2295
f 73/2296 72/2297 103/2298
f 103/2299 102/2300 73/2301
f 108/2302 65/2303 73/2304
f 73/2305 102/2306 108/2307
f 107/2308 66/2309 65/2310
f 65/2311 108/2312 107/2313
f 104/2314 71/2315 70/2316
f 70/2317 105/2318 104/2319
f 362/2320 361/2321 372/2322
f 372/2323 371/2324 362/2325
f 370/2326 363/2327 362/2328
f 362/2329 371/2330 370/2331
f 374/2332 364/2333 363/2334
f 363/2335 370/2336 374/2337
f 369/2338 360/2339 359/2340
f 359/2341 365/2342 369/2343
f 190/2344 193/2345 149/2346
f 149/2347 147/2348 190/2349
f 204/2350 168/2351 464/2352
f 464/2353 203/2354 204/2355
f 163/2356 162/2357 464/2358
f 464/2359 168/2360 163/2361
f 473/2362 474/2363 475/2364
f 473/2365 475/2366 397/2367
f 473/2368 397/2369 401/2370
f 403/2371 476/2372 477/2373
f 474/2374 473/2375 478/2376
f 477/2377 474/2378 478/2379
f 403/2380 477/2381 478/2382
f 478/2383 479/2384 480/2385
f 403/2386 478/2387 480/2388
f 403/2389 480/2390 404/2391
f 473/2392 401/2393 478/2394
f 116/2395 131/2396 150/2397
f 116/2398 150/2399 481/2400
f 116/2401 481/2402 121/2403
f 448/2404 125/2405 124/2406
f 163/2407 448/2408 124/2409
f 163/2410 124/2411 128/2412
f 482/2413 163/2414 128/2415
f 482/2416 128/2417 152/2418
f 140/2419 482/2420 152/2421
f 140/2422 152/2423 117/2424
f 136/2425 140/2426 117/2427
f 483/2428 136/2429 117/2430
f 120/2431 483/2432 117/2433
f 121/2434 120/2435 117/2436
f 116/2437 121/2438 117/2439
f 109/2440 166/2441 168/2442
f 109/2443 168/2444 188/2445
f 109/2446 188/2447 110/2448
f 169/2449 172/2450 145/2451
f 169/2452 145/2453 484/2454
f 115/2455 156/2456 192/2457
f 113/2458 115/2459 192/2460
f 484/2461 113/2462 192/2463
f 169/2464 484/2465 192/2466
f 165/2467 454/2468 465/2469
f 165/2470 465/2471 155/2472
f 165/2473 155/2474 154/2475
