# USD → MuJoCo (world-space)
v -0.101242 0.013671 0.091813
v -0.109921 0.015109 0.091813
v -0.109921 -0.052331 0.091813
v -0.101561 -0.054401 0.091813
v -0.098067 -0.054988 0.091813
v -0.095712 -0.055355 0.091813
v -0.095712 0.013000 0.091813
v -0.098067 0.013259 0.091813
v -0.090109 -0.055912 0.091813
v -0.087460 -0.056039 0.091813
v -0.087460 0.012516 0.091813
v -0.090109 0.012607 0.091813
v -0.081563 -0.056039 0.091813
v -0.078914 -0.055912 0.091813
v -0.078914 0.012607 0.091813
v -0.081563 0.012516 0.091813
v -0.073036 0.013014 0.091813
v -0.073036 -0.055335 0.091813
v -0.070407 -0.054945 0.091813
v -0.070407 0.013288 0.091813
v -0.064586 0.014117 0.092191
v -0.064586 -0.053758 0.092002
v -0.061994 -0.053084 0.092002
v -0.061994 0.014586 0.092191
v -0.101353 0.081742 -0.009657
v -0.109921 0.082549 -0.009657
v -0.109921 0.082549 0.091813
v -0.101354 0.081742 0.091813
v -0.098067 0.081505 -0.016660
v -0.098067 0.081505 0.091813
v -0.095712 0.081355 0.091813
v -0.095712 0.081354 -0.022063
v -0.090109 0.081125 -0.028153
v -0.090109 0.081125 0.091813
v -0.087460 0.081072 0.091813
v -0.087460 0.081072 -0.028153
v -0.081563 0.081072 -0.028153
v -0.081563 0.081072 0.091813
v -0.078914 0.081125 0.091813
v -0.078914 0.081125 -0.028153
v -0.073036 0.081363 -0.028153
v -0.073036 0.081363 0.091813
v -0.070407 0.081522 0.091813
v -0.070407 0.081522 -0.028153
v -0.064586 0.081993 -0.028153
v -0.064586 0.081993 0.092380
v -0.061994 0.082256 0.092380
v -0.061994 0.082256 -0.028153
v -0.109921 -0.119771 -0.129624
v -0.109921 0.082549 -0.129624
v -0.101354 0.081742 -0.129624
v -0.101561 -0.122473 -0.129624
v -0.098067 -0.123234 -0.129624
v -0.098067 0.081505 -0.129624
v -0.095712 0.081355 -0.129624
v -0.095712 -0.123710 -0.129624
v -0.090109 -0.124431 -0.129624
v -0.090109 0.081125 -0.129624
v -0.087460 0.081072 -0.129624
v -0.087460 -0.124595 -0.129624
v -0.081563 -0.124595 -0.129624
v -0.081563 0.081072 -0.129624
v -0.078914 0.081125 -0.129624
v -0.078914 -0.124431 -0.129624
v -0.073036 -0.123684 -0.129624
v -0.073036 0.081363 -0.129624
v -0.070407 0.081522 -0.129624
v -0.070407 -0.123179 -0.129624
v -0.064586 -0.121634 -0.129624
v -0.064586 0.081993 -0.129624
v -0.061994 0.082256 -0.129624
v -0.061994 -0.120754 -0.129624
v -0.101561 -0.122473 0.091813
v -0.101141 -0.122616 0.086791
v -0.101309 0.078161 0.088262
v -0.101073 0.081674 0.091813
v -0.100721 -0.122697 0.091813
v -0.101349 0.076694 -0.009657
v -0.101073 0.081674 -0.010571
v -0.101309 0.078161 -0.126073
v -0.101141 -0.122616 -0.124602
v -0.100721 -0.122696 -0.129624
v -0.101073 0.081674 -0.129624
v -0.095512 -0.055387 0.091870
v -0.093058 -0.055770 0.091870
v -0.093058 0.012708 0.091927
v -0.095512 0.012978 0.091927
v -0.098267 0.013281 0.091813
v -0.101040 0.013551 0.091813
v -0.100721 -0.054573 0.091813
v -0.098267 -0.054956 0.091813
v -0.087228 -0.056049 0.091968
v -0.084480 -0.056181 0.091968
v -0.084447 0.012415 0.092123
v -0.087196 0.012509 0.092123
v -0.090309 -0.124418 0.091813
v -0.090309 0.081129 0.091813
v -0.093058 0.081185 0.091984
v -0.093058 -0.124247 0.091813
v -0.078714 -0.055902 0.091813
v -0.075966 -0.055770 0.091813
v -0.075966 0.012707 0.091813
v -0.078714 0.012613 0.091813
v -0.081763 -0.124607 0.091813
v -0.081763 0.081068 0.091813
v -0.084415 0.081012 0.092277
v -0.084512 -0.124778 0.091813
v -0.070207 0.013309 0.091813
v -0.070207 -0.054916 0.091813
v -0.067477 -0.054511 0.091813
v -0.067477 0.013595 0.091813
v -0.073236 -0.123723 0.091813
v -0.073236 0.081350 0.091813
v -0.075966 0.081185 0.091813
v -0.075966 -0.124247 0.091813
v -0.061794 0.014622 0.091813
v -0.061794 -0.053032 0.091813
v -0.059103 -0.052331 0.091813
v -0.059103 0.015109 0.091813
v -0.064786 -0.121702 0.091813
v -0.064785 0.081973 0.091813
v -0.067477 0.081700 0.091813
v -0.067477 -0.122616 0.091813
v -0.095513 0.081342 -0.022521
v -0.095512 0.081342 0.091984
v -0.093058 0.081185 -0.028153
v -0.098267 0.081518 0.091813
v -0.098267 0.081518 -0.016203
v -0.087260 0.081068 -0.028153
v -0.087164 0.081068 0.092277
v -0.084512 0.081012 -0.028153
v -0.090309 0.081129 -0.028153
v -0.078714 0.081129 -0.028153
v -0.078714 0.081129 0.091813
v -0.075966 0.081185 -0.028153
v -0.081763 0.081068 -0.028153
v -0.070207 0.081534 -0.028153
v -0.070207 0.081534 0.091813
v -0.067477 0.081700 -0.028153
v -0.073236 0.081350 -0.028153
v -0.061795 0.082276 -0.028153
v -0.061794 0.082276 0.091813
v -0.059103 0.082549 0.091813
v -0.059103 0.082549 -0.028153
v -0.064785 0.081973 -0.028153
v -0.095512 -0.123751 -0.129624
v -0.095512 0.081342 -0.129624
v -0.093058 0.081185 -0.129624
v -0.093058 -0.124247 -0.129624
v -0.098267 0.081518 -0.129624
v -0.098267 -0.123193 -0.129624
v -0.087260 -0.124607 -0.129624
v -0.087260 0.081068 -0.129624
v -0.084512 0.081012 -0.129624
v -0.084512 -0.124778 -0.129624
v -0.090309 0.081129 -0.129624
v -0.090309 -0.124418 -0.129624
v -0.078714 -0.124418 -0.129624
v -0.078714 0.081129 -0.129624
v -0.075966 0.081185 -0.129624
v -0.075966 -0.124247 -0.129624
v -0.081763 0.081068 -0.129624
v -0.081763 -0.124607 -0.129624
v -0.070207 -0.123140 -0.129624
v -0.070207 0.081534 -0.129624
v -0.067477 0.081700 -0.129624
v -0.067477 -0.122616 -0.129624
v -0.073236 0.081350 -0.129624
v -0.073236 -0.123723 -0.129624
v -0.059103 -0.119771 -0.129624
v -0.061794 -0.120686 -0.129624
v -0.061794 0.082276 -0.129624
v -0.059103 0.082549 -0.129624
v -0.064785 0.081973 -0.129624
v -0.064786 -0.121702 -0.129624
v -0.095712 -0.123710 0.091813
v -0.095612 -0.123730 0.090813
v -0.095657 0.080642 0.091106
v -0.098167 -0.123214 0.090813
v -0.098067 -0.123234 0.091813
v -0.098212 0.080806 0.091106
v -0.087460 -0.124595 0.091813
v -0.087360 -0.124601 0.090813
v -0.087375 0.080363 0.091106
v -0.090209 -0.124424 0.090813
v -0.090109 -0.124431 0.091813
v -0.090223 0.080420 0.091106
v -0.078914 -0.124431 0.091813
v -0.078814 -0.124424 0.090813
v -0.078800 0.080420 0.091106
v -0.081663 -0.124601 0.090813
v -0.081563 -0.124595 0.091813
v -0.081649 0.080363 0.091106
v -0.070407 -0.123179 0.091813
v -0.070307 -0.123160 0.090813
v -0.070264 0.080822 0.091106
v -0.073136 -0.123704 0.090813
v -0.073036 -0.123684 0.091813
v -0.073093 0.080651 0.091106
v -0.061994 -0.120754 0.091813
v -0.061894 -0.120720 0.090813
v -0.061823 0.081563 0.091106
v -0.064686 -0.121668 0.090813
v -0.064586 -0.121634 0.091813
v -0.064614 0.081279 0.091106
v -0.095676 0.080350 -0.022292
v -0.098231 0.080513 -0.016431
v -0.087381 0.080070 -0.028153
v -0.090229 0.080128 -0.028153
v -0.078794 0.080128 -0.028153
v -0.081643 0.080070 -0.028153
v -0.070246 0.080530 -0.028153
v -0.073076 0.080358 -0.028153
v -0.061793 0.081271 -0.028153
v -0.064585 0.080988 -0.028153
v -0.095657 0.080642 -0.128917
v -0.095612 -0.123730 -0.128624
v -0.098212 0.080806 -0.128917
v -0.098167 -0.123213 -0.128624
v -0.087375 0.080363 -0.128917
v -0.087360 -0.124601 -0.128624
v -0.090223 0.080420 -0.128917
v -0.090209 -0.124424 -0.128624
v -0.078800 0.080420 -0.128917
v -0.078814 -0.124424 -0.128624
v -0.081649 0.080363 -0.128917
v -0.081663 -0.124601 -0.128624
v -0.070264 0.080822 -0.128917
v -0.070307 -0.123160 -0.128624
v -0.073093 0.080651 -0.128917
v -0.073136 -0.123704 -0.128624
v -0.061823 0.081563 -0.128917
v -0.061894 -0.120720 -0.128624
v -0.064614 0.081280 -0.128917
v -0.064686 -0.121668 -0.128624
v -0.095512 -0.123751 0.091813
v -0.098267 -0.123193 0.091813
v -0.087260 -0.124607 0.091813
v -0.078714 -0.124418 0.091813
v -0.070207 -0.123140 0.091813
v -0.061794 -0.120686 0.091813
v -0.109921 -0.119771 0.091813
v -0.059103 -0.119771 0.091813
vt 0.156787 0.666876
vt 0.000419 0.676869
vt 0.000419 0.353934
vt 0.000419 0.353934
vt 0.156780 0.340775
vt 0.156787 0.666876
vt 0.228217 0.336919
vt 0.276947 0.334481
vt 0.276947 0.662097
vt 0.276947 0.662097
vt 0.228215 0.663949
vt 0.228217 0.336919
vt 0.389842 0.330769
vt 0.441905 0.329905
vt 0.441905 0.658623
vt 0.441905 0.658623
vt 0.389842 0.659279
vt 0.389842 0.330769
vt 0.557824 0.329905
vt 0.609886 0.330770
vt 0.609887 0.659280
vt 0.609887 0.659280
vt 0.557824 0.658623
vt 0.557824 0.329905
vt 0.725429 0.662198
vt 0.725430 0.334614
vt 0.777118 0.337200
vt 0.777118 0.337200
vt 0.777119 0.664162
vt 0.725429 0.662198
vt 0.891534 0.669982
vt 0.891536 0.344865
vt 0.942478 0.349152
vt 0.942478 0.349152
vt 0.942480 0.673238
vt 0.891534 0.669982
vt 0.841296 0.181472
vt 0.999545 0.181474
vt 0.999293 0.909998
vt 0.999293 0.909998
vt 0.841065 0.909996
vt 0.841296 0.181472
vt 0.769920 0.181471
vt 0.769660 0.909995
vt 0.721011 0.909994
vt 0.721011 0.909994
vt 0.721265 0.181470
vt 0.769920 0.181471
vt 0.608958 0.181468
vt 0.608702 0.909993
vt 0.557079 0.909992
vt 0.557079 0.909992
vt 0.557335 0.181468
vt 0.608958 0.181468
vt 0.442399 0.181466
vt 0.442140 0.909990
vt 0.390517 0.909989
vt 0.390517 0.909989
vt 0.390776 0.181465
vt 0.442399 0.181466
vt 0.275830 0.181463
vt 0.275567 0.909987
vt 0.223967 0.909986
vt 0.223967 0.909986
vt 0.224227 0.181462
vt 0.275830 0.181463
vt 0.109250 0.181460
vt 0.108983 0.909984
vt 0.057431 0.909984
vt 0.057431 0.909984
vt 0.057688 0.181460
vt 0.109250 0.181460
vt 0.000419 0.031000
vt 0.000419 0.999803
vt 0.156794 0.992977
vt 0.156794 0.992977
vt 0.156773 0.014674
vt 0.000419 0.031000
vt 0.228220 0.009889
vt 0.228213 0.990978
vt 0.276947 0.989714
vt 0.276947 0.989714
vt 0.276947 0.006864
vt 0.228220 0.009889
vt 0.389842 0.002260
vt 0.389842 0.987789
vt 0.441905 0.987341
vt 0.441905 0.987341
vt 0.441905 0.001187
vt 0.389842 0.002260
vt 0.557824 0.001188
vt 0.557823 0.987341
vt 0.609887 0.987789
vt 0.609887 0.987789
vt 0.609886 0.002260
vt 0.557824 0.001188
vt 0.725430 0.007029
vt 0.725429 0.989783
vt 0.777120 0.991125
vt 0.777120 0.991125
vt 0.777118 0.010238
vt 0.725430 0.007029
vt 0.891538 0.019748
vt 0.891533 0.995100
vt 0.942481 0.997324
vt 0.942481 0.997324
vt 0.942476 0.025066
vt 0.891538 0.019748
vt 0.999293 0.909998
vt 0.999545 0.181474
vt 0.841296 0.181472
vt 0.841296 0.181472
vt 0.841065 0.909996
vt 0.999293 0.909998
vt 0.769660 0.909995
vt 0.769920 0.181471
vt 0.721265 0.181470
vt 0.721265 0.181470
vt 0.721011 0.909994
vt 0.769660 0.909995
vt 0.608702 0.909993
vt 0.608958 0.181468
vt 0.557335 0.181468
vt 0.557335 0.181468
vt 0.557079 0.909992
vt 0.608702 0.909993
vt 0.442140 0.909990
vt 0.442399 0.181466
vt 0.390776 0.181465
vt 0.390776 0.181465
vt 0.390517 0.909989
vt 0.442140 0.909990
vt 0.275567 0.909987
vt 0.275830 0.181463
vt 0.224227 0.181462
vt 0.224227 0.181462
vt 0.223967 0.909986
vt 0.275567 0.909987
vt 0.108983 0.909984
vt 0.109250 0.181460
vt 0.057688 0.181460
vt 0.057688 0.181460
vt 0.057431 0.909984
vt 0.108983 0.909984
vt 0.156773 0.014674
vt 0.165029 0.013812
vt 0.165029 0.992618
vt 0.165029 0.992618
vt 0.156794 0.992977
vt 0.156773 0.014674
vt 0.173277 0.992404
vt 0.165029 0.992618
vt 0.165029 0.013812
vt 0.165029 0.013812
vt 0.173284 0.013300
vt 0.173277 0.992404
vt 0.841065 0.909996
vt 0.832733 0.909996
vt 0.832985 0.181472
vt 0.832985 0.181472
vt 0.841296 0.181472
vt 0.841065 0.909996
vt 0.824759 0.181471
vt 0.832985 0.181472
vt 0.832733 0.909996
vt 0.832733 0.909996
vt 0.824499 0.909995
vt 0.824759 0.181471
vt 0.156794 0.992977
vt 0.165029 0.992618
vt 0.165029 0.013812
vt 0.165029 0.013812
vt 0.156773 0.014674
vt 0.156794 0.992977
vt 0.173284 0.013300
vt 0.165029 0.013812
vt 0.165029 0.992618
vt 0.165029 0.992618
vt 0.173277 0.992404
vt 0.173284 0.013300
vt 0.841296 0.181472
vt 0.832985 0.181472
vt 0.832733 0.909996
vt 0.832733 0.909996
vt 0.841065 0.909996
vt 0.841296 0.181472
vt 0.824499 0.909995
vt 0.832733 0.909996
vt 0.832985 0.181472
vt 0.832985 0.181472
vt 0.824759 0.181471
vt 0.824499 0.909995
vt 0.281084 0.334274
vt 0.331883 0.331732
vt 0.331883 0.660010
vt 0.331883 0.660010
vt 0.281083 0.661940
vt 0.281084 0.334274
vt 0.224079 0.664106
vt 0.173279 0.666036
vt 0.173282 0.339668
vt 0.173282 0.339668
vt 0.224080 0.337126
vt 0.224079 0.664106
vt 0.445836 0.329840
vt 0.499864 0.328943
vt 0.499864 0.657892
vt 0.499864 0.657892
vt 0.445836 0.658573
vt 0.445836 0.329840
vt 0.385911 0.002341
vt 0.385911 0.987823
vt 0.331883 0.988288
vt 0.331883 0.988288
vt 0.331883 0.003454
vt 0.385911 0.002341
vt 0.613818 0.330835
vt 0.667846 0.331732
vt 0.667846 0.660010
vt 0.667846 0.660010
vt 0.613818 0.659329
vt 0.613818 0.330835
vt 0.553892 0.001107
vt 0.553893 0.987307
vt 0.499864 0.986842
vt 0.499864 0.986842
vt 0.499864 -0.000006
vt 0.553892 0.001107
vt 0.781048 0.664312
vt 0.781048 0.337397
vt 0.834702 0.340082
vt 0.834702 0.340082
vt 0.834702 0.666350
vt 0.781048 0.664312
vt 0.721499 0.006785
vt 0.721501 0.989681
vt 0.667846 0.988289
vt 0.667846 0.988289
vt 0.667846 0.003454
vt 0.721499 0.006785
vt 0.946404 0.673489
vt 0.946406 0.349483
vt 0.999312 0.353935
vt 0.999312 0.353935
vt 0.999312 0.676870
vt 0.946404 0.673489
vt 0.887606 0.019337
vt 0.887611 0.994929
vt 0.834702 0.992619
vt 0.834702 0.992619
vt 0.834702 0.013813
vt 0.887606 0.019337
vt 0.717142 0.181470
vt 0.716884 0.909994
vt 0.666171 0.909993
vt 0.666171 0.909993
vt 0.666426 0.181469
vt 0.717142 0.181470
vt 0.773787 0.909995
vt 0.774043 0.181471
vt 0.824759 0.181471
vt 0.824759 0.181471
vt 0.824499 0.909995
vt 0.773787 0.909995
vt 0.553438 0.181468
vt 0.553181 0.909992
vt 0.499609 0.909991
vt 0.499609 0.909991
vt 0.499867 0.181467
vt 0.553438 0.181468
vt 0.612599 0.909993
vt 0.612855 0.181468
vt 0.666426 0.181469
vt 0.666426 0.181469
vt 0.666171 0.909993
vt 0.612599 0.909993
vt 0.386879 0.181465
vt 0.386619 0.909989
vt 0.333047 0.909988
vt 0.333047 0.909988
vt 0.333308 0.181464
vt 0.386879 0.181465
vt 0.446037 0.909990
vt 0.446296 0.181466
vt 0.499867 0.181467
vt 0.499867 0.181467
vt 0.499609 0.909991
vt 0.446037 0.909990
vt 0.220310 0.181462
vt 0.220047 0.909986
vt 0.166487 0.909985
vt 0.166487 0.909985
vt 0.166749 0.181461
vt 0.220310 0.181462
vt 0.279488 0.909987
vt 0.279747 0.181463
vt 0.333308 0.181464
vt 0.333308 0.181464
vt 0.333047 0.909988
vt 0.279488 0.909987
vt 0.053730 0.181459
vt 0.053463 0.909983
vt -0.000073 0.909982
vt -0.000073 0.909982
vt 0.000189 0.181459
vt 0.053730 0.181459
vt 0.112951 0.909984
vt 0.113208 0.181460
vt 0.166749 0.181461
vt 0.166749 0.181461
vt 0.166487 0.909985
vt 0.112951 0.909984
vt 0.281086 0.006607
vt 0.281081 0.989606
vt 0.331883 0.988288
vt 0.331883 0.988288
vt 0.331883 0.003454
vt 0.281086 0.006607
vt 0.224078 0.991086
vt 0.224081 0.010146
vt 0.173284 0.013300
vt 0.173284 0.013300
vt 0.173277 0.992404
vt 0.224078 0.991086
vt 0.445836 0.001106
vt 0.445836 0.987307
vt 0.499864 0.986842
vt 0.499864 0.986842
vt 0.499864 -0.000006
vt 0.445836 0.001106
vt 0.385911 0.987823
vt 0.385911 0.002341
vt 0.331883 0.003454
vt 0.331883 0.003454
vt 0.331883 0.988288
vt 0.385911 0.987823
vt 0.613818 0.002341
vt 0.613818 0.987823
vt 0.667846 0.988289
vt 0.667846 0.988289
vt 0.667846 0.003454
vt 0.613818 0.002341
vt 0.553893 0.987307
vt 0.553892 0.001107
vt 0.499864 -0.000006
vt 0.499864 -0.000006
vt 0.499864 0.986842
vt 0.553893 0.987307
vt 0.781049 0.010482
vt 0.781047 0.991226
vt 0.834702 0.992619
vt 0.834702 0.992619
vt 0.834702 0.013813
vt 0.781049 0.010482
vt 0.721501 0.989681
vt 0.721499 0.006785
vt 0.667846 0.003454
vt 0.667846 0.003454
vt 0.667846 0.988289
vt 0.721501 0.989681
vt 0.999312 0.031001
vt 0.946408 0.025477
vt 0.946403 0.997495
vt 0.946403 0.997495
vt 0.999312 0.999804
vt 0.999312 0.031001
vt 0.834702 0.992619
vt 0.887611 0.994929
vt 0.887606 0.019337
vt 0.887606 0.019337
vt 0.834702 0.013813
vt 0.834702 0.992619
vt 0.716884 0.909994
vt 0.717142 0.181470
vt 0.666426 0.181469
vt 0.666426 0.181469
vt 0.666171 0.909993
vt 0.716884 0.909994
vt 0.774043 0.181471
vt 0.773787 0.909995
vt 0.824499 0.909995
vt 0.824499 0.909995
vt 0.824759 0.181471
vt 0.774043 0.181471
vt 0.553181 0.909992
vt 0.553438 0.181468
vt 0.499867 0.181467
vt 0.499867 0.181467
vt 0.499609 0.909991
vt 0.553181 0.909992
vt 0.612855 0.181468
vt 0.612599 0.909993
vt 0.666171 0.909993
vt 0.666171 0.909993
vt 0.666426 0.181469
vt 0.612855 0.181468
vt 0.386619 0.909989
vt 0.386879 0.181465
vt 0.333308 0.181464
vt 0.333308 0.181464
vt 0.333047 0.909988
vt 0.386619 0.909989
vt 0.446296 0.181466
vt 0.446037 0.909990
vt 0.499609 0.909991
vt 0.499609 0.909991
vt 0.499867 0.181467
vt 0.446296 0.181466
vt 0.220047 0.909986
vt 0.220310 0.181462
vt 0.166749 0.181461
vt 0.166749 0.181461
vt 0.166487 0.909985
vt 0.220047 0.909986
vt 0.279747 0.181463
vt 0.279488 0.909987
vt 0.333047 0.909988
vt 0.333047 0.909988
vt 0.333308 0.181464
vt 0.279747 0.181463
vt 0.053463 0.909983
vt 0.053730 0.181459
vt 0.000189 0.181459
vt 0.000189 0.181459
vt -0.000073 0.909982
vt 0.053463 0.909983
vt 0.113208 0.181460
vt 0.112951 0.909984
vt 0.166487 0.909985
vt 0.166487 0.909985
vt 0.166749 0.181461
vt 0.113208 0.181460
vt 0.276947 0.006864
vt 0.279016 0.006736
vt 0.279014 0.989660
vt 0.279014 0.989660
vt 0.276947 0.989714
vt 0.276947 0.006864
vt 0.226150 0.010018
vt 0.228220 0.009889
vt 0.228213 0.990978
vt 0.228213 0.990978
vt 0.226145 0.991032
vt 0.226150 0.010018
vt 0.441905 0.001187
vt 0.443870 0.001147
vt 0.443870 0.987324
vt 0.443870 0.987324
vt 0.441905 0.987341
vt 0.441905 0.001187
vt 0.387876 0.002300
vt 0.389842 0.002260
vt 0.389842 0.987789
vt 0.389842 0.987789
vt 0.387876 0.987806
vt 0.387876 0.002300
vt 0.609886 0.002260
vt 0.611852 0.002301
vt 0.611852 0.987806
vt 0.611852 0.987806
vt 0.609887 0.987789
vt 0.609886 0.002260
vt 0.555858 0.001147
vt 0.557824 0.001188
vt 0.557823 0.987341
vt 0.557823 0.987341
vt 0.555858 0.987324
vt 0.555858 0.001147
vt 0.777118 0.010238
vt 0.779083 0.010360
vt 0.779083 0.991176
vt 0.779083 0.991176
vt 0.777120 0.991125
vt 0.777118 0.010238
vt 0.723465 0.006907
vt 0.725430 0.007029
vt 0.725429 0.989783
vt 0.725429 0.989783
vt 0.723465 0.989732
vt 0.723465 0.006907
vt 0.942476 0.025066
vt 0.944442 0.025271
vt 0.944442 0.997409
vt 0.944442 0.997409
vt 0.942481 0.997324
vt 0.942476 0.025066
vt 0.889572 0.019542
vt 0.891538 0.019748
vt 0.891533 0.995100
vt 0.891533 0.995100
vt 0.889572 0.995014
vt 0.889572 0.019542
vt 0.721011 0.909994
vt 0.718947 0.909994
vt 0.719204 0.181470
vt 0.719204 0.181470
vt 0.721265 0.181470
vt 0.721011 0.909994
vt 0.771723 0.909995
vt 0.769660 0.909995
vt 0.769920 0.181471
vt 0.769920 0.181471
vt 0.771982 0.181471
vt 0.771723 0.909995
vt 0.557079 0.909992
vt 0.555130 0.909992
vt 0.555387 0.181468
vt 0.555387 0.181468
vt 0.557335 0.181468
vt 0.557079 0.909992
vt 0.610650 0.909993
vt 0.608702 0.909993
vt 0.608958 0.181468
vt 0.608958 0.181468
vt 0.610906 0.181468
vt 0.610650 0.909993
vt 0.390517 0.909989
vt 0.388568 0.909989
vt 0.388828 0.181465
vt 0.388828 0.181465
vt 0.390776 0.181465
vt 0.390517 0.909989
vt 0.444088 0.909990
vt 0.442140 0.909990
vt 0.442399 0.181466
vt 0.442399 0.181466
vt 0.444347 0.181466
vt 0.444088 0.909990
vt 0.223967 0.909986
vt 0.222007 0.909986
vt 0.222268 0.181462
vt 0.222268 0.181462
vt 0.224227 0.181462
vt 0.223967 0.909986
vt 0.277527 0.909987
vt 0.275567 0.909987
vt 0.275830 0.181463
vt 0.275830 0.181463
vt 0.277788 0.181463
vt 0.277527 0.909987
vt 0.057431 0.909984
vt 0.055447 0.909983
vt 0.055709 0.181459
vt 0.055709 0.181459
vt 0.057688 0.181460
vt 0.057431 0.909984
vt 0.110967 0.909984
vt 0.108983 0.909984
vt 0.109250 0.181460
vt 0.109250 0.181460
vt 0.111229 0.181460
vt 0.110967 0.909984
vt 0.276947 0.989714
vt 0.279014 0.989660
vt 0.279016 0.006736
vt 0.279016 0.006736
vt 0.276947 0.006864
vt 0.276947 0.989714
vt 0.226145 0.991032
vt 0.228213 0.990978
vt 0.228220 0.009889
vt 0.228220 0.009889
vt 0.226150 0.010018
vt 0.226145 0.991032
vt 0.441905 0.987341
vt 0.443870 0.987324
vt 0.443870 0.001147
vt 0.443870 0.001147
vt 0.441905 0.001187
vt 0.441905 0.987341
vt 0.387876 0.987806
vt 0.389842 0.987789
vt 0.389842 0.002260
vt 0.389842 0.002260
vt 0.387876 0.002300
vt 0.387876 0.987806
vt 0.609887 0.987789
vt 0.611852 0.987806
vt 0.611852 0.002301
vt 0.611852 0.002301
vt 0.609886 0.002260
vt 0.609887 0.987789
vt 0.555858 0.987324
vt 0.557823 0.987341
vt 0.557824 0.001188
vt 0.557824 0.001188
vt 0.555858 0.001147
vt 0.555858 0.987324
vt 0.777120 0.991125
vt 0.779083 0.991176
vt 0.779083 0.010360
vt 0.779083 0.010360
vt 0.777118 0.010238
vt 0.777120 0.991125
vt 0.723465 0.989732
vt 0.725429 0.989783
vt 0.725430 0.007029
vt 0.725430 0.007029
vt 0.723465 0.006907
vt 0.723465 0.989732
vt 0.942481 0.997324
vt 0.944442 0.997409
vt 0.944442 0.025271
vt 0.944442 0.025271
vt 0.942476 0.025066
vt 0.942481 0.997324
vt 0.889572 0.995014
vt 0.891533 0.995100
vt 0.891538 0.019748
vt 0.891538 0.019748
vt 0.889572 0.019542
vt 0.889572 0.995014
vt 0.721265 0.181470
vt 0.719204 0.181470
vt 0.718947 0.909994
vt 0.718947 0.909994
vt 0.721011 0.909994
vt 0.721265 0.181470
vt 0.771982 0.181471
vt 0.769920 0.181471
vt 0.769660 0.909995
vt 0.769660 0.909995
vt 0.771723 0.909995
vt 0.771982 0.181471
vt 0.557335 0.181468
vt 0.555387 0.181468
vt 0.555130 0.909992
vt 0.555130 0.909992
vt 0.557079 0.909992
vt 0.557335 0.181468
vt 0.610906 0.181468
vt 0.608958 0.181468
vt 0.608702 0.909993
vt 0.608702 0.909993
vt 0.610650 0.909993
vt 0.610906 0.181468
vt 0.390776 0.181465
vt 0.388828 0.181465
vt 0.388568 0.909989
vt 0.388568 0.909989
vt 0.390517 0.909989
vt 0.390776 0.181465
vt 0.444347 0.181466
vt 0.442399 0.181466
vt 0.442140 0.909990
vt 0.442140 0.909990
vt 0.444088 0.909990
vt 0.444347 0.181466
vt 0.224227 0.181462
vt 0.222268 0.181462
vt 0.222007 0.909986
vt 0.222007 0.909986
vt 0.223967 0.909986
vt 0.224227 0.181462
vt 0.277788 0.181463
vt 0.275830 0.181463
vt 0.275567 0.909987
vt 0.275567 0.909987
vt 0.277527 0.909987
vt 0.277788 0.181463
vt 0.057688 0.181460
vt 0.055709 0.181459
vt 0.055447 0.909983
vt 0.055447 0.909983
vt 0.057431 0.909984
vt 0.057688 0.181460
vt 0.111229 0.181460
vt 0.109250 0.181460
vt 0.108983 0.909984
vt 0.108983 0.909984
vt 0.110967 0.909984
vt 0.111229 0.181460
vt 0.281081 0.989606
vt 0.279014 0.989660
vt 0.279016 0.006736
vt 0.279016 0.006736
vt 0.281086 0.006607
vt 0.281081 0.989606
vt 0.224081 0.010146
vt 0.226150 0.010018
vt 0.226145 0.991032
vt 0.226145 0.991032
vt 0.224078 0.991086
vt 0.224081 0.010146
vt 0.445836 0.987307
vt 0.443870 0.987324
vt 0.443870 0.001147
vt 0.443870 0.001147
vt 0.445836 0.001106
vt 0.445836 0.987307
vt 0.385911 0.002341
vt 0.387876 0.002300
vt 0.387876 0.987806
vt 0.387876 0.987806
vt 0.385911 0.987823
vt 0.385911 0.002341
vt 0.613818 0.987823
vt 0.611852 0.987806
vt 0.611852 0.002301
vt 0.611852 0.002301
vt 0.613818 0.002341
vt 0.613818 0.987823
vt 0.553892 0.001107
vt 0.555858 0.001147
vt 0.555858 0.987324
vt 0.555858 0.987324
vt 0.553893 0.987307
vt 0.553892 0.001107
vt 0.781047 0.991226
vt 0.779083 0.991176
vt 0.779083 0.010360
vt 0.779083 0.010360
vt 0.781049 0.010482
vt 0.781047 0.991226
vt 0.721499 0.006785
vt 0.723465 0.006907
vt 0.723465 0.989732
vt 0.723465 0.989732
vt 0.721501 0.989681
vt 0.721499 0.006785
vt 0.946403 0.997495
vt 0.944442 0.997409
vt 0.944442 0.025271
vt 0.944442 0.025271
vt 0.946408 0.025477
vt 0.946403 0.997495
vt 0.887606 0.019337
vt 0.889572 0.019542
vt 0.889572 0.995014
vt 0.889572 0.995014
vt 0.887611 0.994929
vt 0.887606 0.019337
vt 0.717142 0.181470
vt 0.719204 0.181470
vt 0.718947 0.909994
vt 0.718947 0.909994
vt 0.716884 0.909994
vt 0.717142 0.181470
vt 0.773787 0.909995
vt 0.771723 0.909995
vt 0.771982 0.181471
vt 0.771982 0.181471
vt 0.774043 0.181471
vt 0.773787 0.909995
vt 0.553438 0.181468
vt 0.555387 0.181468
vt 0.555130 0.909992
vt 0.555130 0.909992
vt 0.553181 0.909992
vt 0.553438 0.181468
vt 0.612599 0.909993
vt 0.610650 0.909993
vt 0.610906 0.181468
vt 0.610906 0.181468
vt 0.612855 0.181468
vt 0.612599 0.909993
vt 0.386879 0.181465
vt 0.388828 0.181465
vt 0.388568 0.909989
vt 0.388568 0.909989
vt 0.386619 0.909989
vt 0.386879 0.181465
vt 0.446037 0.909990
vt 0.444088 0.909990
vt 0.444347 0.181466
vt 0.444347 0.181466
vt 0.446296 0.181466
vt 0.446037 0.909990
vt 0.220310 0.181462
vt 0.222268 0.181462
vt 0.222007 0.909986
vt 0.222007 0.909986
vt 0.220047 0.909986
vt 0.220310 0.181462
vt 0.279488 0.909987
vt 0.277527 0.909987
vt 0.277788 0.181463
vt 0.277788 0.181463
vt 0.279747 0.181463
vt 0.279488 0.909987
vt 0.053730 0.181459
vt 0.055709 0.181459
vt 0.055447 0.909983
vt 0.055447 0.909983
vt 0.053463 0.909983
vt 0.053730 0.181459
vt 0.112951 0.909984
vt 0.110967 0.909984
vt 0.111229 0.181460
vt 0.111229 0.181460
vt 0.113208 0.181460
vt 0.112951 0.909984
vt 0.281086 0.006607
vt 0.279016 0.006736
vt 0.279014 0.989660
vt 0.279014 0.989660
vt 0.281081 0.989606
vt 0.281086 0.006607
vt 0.224078 0.991086
vt 0.226145 0.991032
vt 0.226150 0.010018
vt 0.226150 0.010018
vt 0.224081 0.010146
vt 0.224078 0.991086
vt 0.445836 0.001106
vt 0.443870 0.001147
vt 0.443870 0.987324
vt 0.443870 0.987324
vt 0.445836 0.987307
vt 0.445836 0.001106
vt 0.385911 0.987823
vt 0.387876 0.987806
vt 0.387876 0.002300
vt 0.387876 0.002300
vt 0.385911 0.002341
vt 0.385911 0.987823
vt 0.613818 0.002341
vt 0.611852 0.002301
vt 0.611852 0.987806
vt 0.611852 0.987806
vt 0.613818 0.987823
vt 0.613818 0.002341
vt 0.553893 0.987307
vt 0.555858 0.987324
vt 0.555858 0.001147
vt 0.555858 0.001147
vt 0.553892 0.001107
vt 0.553893 0.987307
vt 0.781049 0.010482
vt 0.779083 0.010360
vt 0.779083 0.991176
vt 0.779083 0.991176
vt 0.781047 0.991226
vt 0.781049 0.010482
vt 0.721501 0.989681
vt 0.723465 0.989732
vt 0.723465 0.006907
vt 0.723465 0.006907
vt 0.721499 0.006785
vt 0.721501 0.989681
vt 0.946408 0.025477
vt 0.944442 0.025271
vt 0.944442 0.997409
vt 0.944442 0.997409
vt 0.946403 0.997495
vt 0.946408 0.025477
vt 0.887611 0.994929
vt 0.889572 0.995014
vt 0.889572 0.019542
vt 0.889572 0.019542
vt 0.887606 0.019337
vt 0.887611 0.994929
vt 0.716884 0.909994
vt 0.718947 0.909994
vt 0.719204 0.181470
vt 0.719204 0.181470
vt 0.717142 0.181470
vt 0.716884 0.909994
vt 0.774043 0.181471
vt 0.771982 0.181471
vt 0.771723 0.909995
vt 0.771723 0.909995
vt 0.773787 0.909995
vt 0.774043 0.181471
vt 0.553181 0.909992
vt 0.555130 0.909992
vt 0.555387 0.181468
vt 0.555387 0.181468
vt 0.553438 0.181468
vt 0.553181 0.909992
vt 0.612855 0.181468
vt 0.610906 0.181468
vt 0.610650 0.909993
vt 0.610650 0.909993
vt 0.612599 0.909993
vt 0.612855 0.181468
vt 0.386619 0.909989
vt 0.388568 0.909989
vt 0.388828 0.181465
vt 0.388828 0.181465
vt 0.386879 0.181465
vt 0.386619 0.909989
vt 0.446296 0.181466
vt 0.444347 0.181466
vt 0.444088 0.909990
vt 0.444088 0.909990
vt 0.446037 0.909990
vt 0.446296 0.181466
vt 0.220047 0.909986
vt 0.222007 0.909986
vt 0.222268 0.181462
vt 0.222268 0.181462
vt 0.220310 0.181462
vt 0.220047 0.909986
vt 0.279747 0.181463
vt 0.277788 0.181463
vt 0.277527 0.909987
vt 0.277527 0.909987
vt 0.279488 0.909987
vt 0.279747 0.181463
vt 0.053463 0.909983
vt 0.055447 0.909983
vt 0.055709 0.181459
vt 0.055709 0.181459
vt 0.053730 0.181459
vt 0.053463 0.909983
vt 0.113208 0.181460
vt 0.111229 0.181460
vt 0.110967 0.909984
vt 0.110967 0.909984
vt 0.112951 0.909984
vt 0.113208 0.181460
vt 0.156780 0.340775
vt 0.000419 0.353934
vt 0.000419 0.031000
vt 0.000419 0.031000
vt 0.156773 0.014674
vt 0.156780 0.340775
vt 0.000419 0.676869
vt 0.156787 0.666876
vt 0.156794 0.992977
vt 0.156794 0.992977
vt 0.000419 0.999803
vt 0.000419 0.676869
vt 0.228215 0.663949
vt 0.276947 0.662097
vt 0.276947 0.989714
vt 0.276947 0.989714
vt 0.228213 0.990978
vt 0.228215 0.663949
vt 0.276947 0.334481
vt 0.228217 0.336919
vt 0.228220 0.009889
vt 0.228220 0.009889
vt 0.276947 0.006864
vt 0.276947 0.334481
vt 0.389842 0.659279
vt 0.441905 0.658623
vt 0.441905 0.987341
vt 0.441905 0.987341
vt 0.389842 0.987789
vt 0.389842 0.659279
vt 0.441905 0.329905
vt 0.389842 0.330769
vt 0.389842 0.002260
vt 0.389842 0.002260
vt 0.441905 0.001187
vt 0.441905 0.329905
vt 0.557824 0.658623
vt 0.609887 0.659280
vt 0.609887 0.987789
vt 0.609887 0.987789
vt 0.557823 0.987341
vt 0.557824 0.658623
vt 0.609886 0.330770
vt 0.557824 0.329905
vt 0.557824 0.001188
vt 0.557824 0.001188
vt 0.609886 0.002260
vt 0.609886 0.330770
vt 0.725429 0.989783
vt 0.725429 0.662198
vt 0.777119 0.664162
vt 0.777119 0.664162
vt 0.777120 0.991125
vt 0.725429 0.989783
vt 0.777118 0.010238
vt 0.777118 0.337200
vt 0.725430 0.334614
vt 0.725430 0.334614
vt 0.725430 0.007029
vt 0.777118 0.010238
vt 0.891533 0.995100
vt 0.891534 0.669982
vt 0.942480 0.673238
vt 0.942480 0.673238
vt 0.942481 0.997324
vt 0.891533 0.995100
vt 0.942476 0.025066
vt 0.942478 0.349152
vt 0.891536 0.344865
vt 0.891536 0.344865
vt 0.891538 0.019748
vt 0.942476 0.025066
vt 0.281083 0.661940
vt 0.331883 0.660010
vt 0.331883 0.988288
vt 0.331883 0.988288
vt 0.281081 0.989606
vt 0.281083 0.661940
vt 0.331883 0.331732
vt 0.281084 0.334274
vt 0.281086 0.006607
vt 0.281086 0.006607
vt 0.331883 0.003454
vt 0.331883 0.331732
vt 0.224080 0.337126
vt 0.173282 0.339668
vt 0.173284 0.013300
vt 0.173284 0.013300
vt 0.224081 0.010146
vt 0.224080 0.337126
vt 0.173279 0.666036
vt 0.224079 0.664106
vt 0.224078 0.991086
vt 0.224078 0.991086
vt 0.173277 0.992404
vt 0.173279 0.666036
vt 0.445836 0.658573
vt 0.499864 0.657892
vt 0.499864 0.986842
vt 0.499864 0.986842
vt 0.445836 0.987307
vt 0.445836 0.658573
vt 0.499864 0.328943
vt 0.445836 0.329840
vt 0.445836 0.001106
vt 0.445836 0.001106
vt 0.499864 -0.000006
vt 0.499864 0.328943
vt 0.613818 0.659329
vt 0.667846 0.660010
vt 0.667846 0.988289
vt 0.667846 0.988289
vt 0.613818 0.987823
vt 0.613818 0.659329
vt 0.667846 0.331732
vt 0.613818 0.330835
vt 0.613818 0.002341
vt 0.613818 0.002341
vt 0.667846 0.003454
vt 0.667846 0.331732
vt 0.781047 0.991226
vt 0.781048 0.664312
vt 0.834702 0.666350
vt 0.834702 0.666350
vt 0.834702 0.992619
vt 0.781047 0.991226
vt 0.834702 0.013813
vt 0.834702 0.340082
vt 0.781048 0.337397
vt 0.781048 0.337397
vt 0.781049 0.010482
vt 0.834702 0.013813
vt 0.946403 0.997495
vt 0.946404 0.673489
vt 0.999312 0.676870
vt 0.999312 0.676870
vt 0.999312 0.999804
vt 0.946403 0.997495
vt 0.999312 0.031001
vt 0.999312 0.353935
vt 0.946406 0.349483
vt 0.946406 0.349483
vt 0.946408 0.025477
vt 0.999312 0.031001
f 1/1 2/2 3/3
f 3/4 4/5 1/6
f 5/7 6/8 7/9
f 7/10 8/11 5/12
f 9/13 10/14 11/15
f 11/16 12/17 9/18
f 13/19 14/20 15/21
f 15/22 16/23 13/24
f 17/25 18/26 19/27
f 19/28 20/29 17/30
f 21/31 22/32 23/33
f 23/34 24/35 21/36
f 25/37 26/38 27/39
f 27/40 28/41 25/42
f 29/43 30/44 31/45
f 31/46 32/47 29/48
f 33/49 34/50 35/51
f 35/52 36/53 33/54
f 37/55 38/56 39/57
f 39/58 40/59 37/60
f 41/61 42/62 43/63
f 43/64 44/65 41/66
f 45/67 46/68 47/69
f 47/70 48/71 45/72
f 49/73 50/74 51/75
f 51/76 52/77 49/78
f 53/79 54/80 55/81
f 55/82 56/83 53/84
f 57/85 58/86 59/87
f 59/88 60/89 57/90
f 61/91 62/92 63/93
f 63/94 64/95 61/96
f 65/97 66/98 67/99
f 67/100 68/101 65/102
f 69/103 70/104 71/105
f 71/106 72/107 69/108
f 50/109 26/110 25/111
f 25/112 51/113 50/114
f 54/115 29/116 32/117
f 32/118 55/119 54/120
f 58/121 33/122 36/123
f 36/124 59/125 58/126
f 62/127 37/128 40/129
f 40/130 63/131 62/132
f 66/133 41/134 44/135
f 44/136 67/137 66/138
f 70/139 45/140 48/141
f 48/142 71/143 70/144
f 73/145 74/146 75/147
f 75/148 28/149 73/150
f 76/151 75/152 74/153
f 74/154 77/155 76/156
f 28/157 75/158 78/159
f 78/160 25/161 28/162
f 79/163 78/164 75/165
f 75/166 76/167 79/168
f 51/169 80/170 81/171
f 81/172 52/173 51/174
f 82/175 81/176 80/177
f 80/178 83/179 82/180
f 25/181 78/182 80/183
f 80/184 51/185 25/186
f 83/187 80/188 78/189
f 78/190 79/191 83/192
f 84/193 85/194 86/195
f 86/196 87/197 84/198
f 88/199 89/200 90/201
f 90/202 91/203 88/204
f 92/205 93/206 94/207
f 94/208 95/209 92/210
f 96/211 97/212 98/213
f 98/214 99/215 96/216
f 100/217 101/218 102/219
f 102/220 103/221 100/222
f 104/223 105/224 106/225
f 106/226 107/227 104/228
f 108/229 109/230 110/231
f 110/232 111/233 108/234
f 112/235 113/236 114/237
f 114/238 115/239 112/240
f 116/241 117/242 118/243
f 118/244 119/245 116/246
f 120/247 121/248 122/249
f 122/250 123/251 120/252
f 124/253 125/254 98/255
f 98/256 126/257 124/258
f 127/259 128/260 79/261
f 79/262 76/263 127/264
f 129/265 130/266 106/267
f 106/268 131/269 129/270
f 97/271 132/272 126/273
f 126/274 98/275 97/276
f 133/277 134/278 114/279
f 114/280 135/281 133/282
f 105/283 136/284 131/285
f 131/286 106/287 105/288
f 137/289 138/290 122/291
f 122/292 139/293 137/294
f 113/295 140/296 135/297
f 135/298 114/299 113/300
f 141/301 142/302 143/303
f 143/304 144/305 141/306
f 121/307 145/308 139/309
f 139/310 122/311 121/312
f 146/313 147/314 148/315
f 148/316 149/317 146/318
f 150/319 151/320 82/321
f 82/322 83/323 150/324
f 152/325 153/326 154/327
f 154/328 155/329 152/330
f 156/331 157/332 149/333
f 149/334 148/335 156/336
f 158/337 159/338 160/339
f 160/340 161/341 158/342
f 162/343 163/344 155/345
f 155/346 154/347 162/348
f 164/349 165/350 166/351
f 166/352 167/353 164/354
f 168/355 169/356 161/357
f 161/358 160/359 168/360
f 170/361 171/362 172/363
f 172/364 173/365 170/366
f 166/367 174/368 175/369
f 175/370 167/371 166/372
f 147/373 124/374 126/375
f 126/376 148/377 147/378
f 128/379 150/380 83/381
f 83/382 79/383 128/384
f 153/385 129/386 131/387
f 131/388 154/389 153/390
f 132/391 156/392 148/393
f 148/394 126/395 132/396
f 159/397 133/398 135/399
f 135/400 160/401 159/402
f 136/403 162/404 154/405
f 154/406 131/407 136/408
f 165/409 137/410 139/411
f 139/412 166/413 165/414
f 140/415 168/416 160/417
f 160/418 135/419 140/420
f 172/421 141/422 144/423
f 144/424 173/425 172/426
f 145/427 174/428 166/429
f 166/430 139/431 145/432
f 176/433 177/434 178/435
f 178/436 31/437 176/438
f 179/439 180/440 30/441
f 30/442 181/443 179/444
f 182/445 183/446 184/447
f 184/448 35/449 182/450
f 185/451 186/452 34/453
f 34/454 187/455 185/456
f 188/457 189/458 190/459
f 190/460 39/461 188/462
f 191/463 192/464 38/465
f 38/466 193/467 191/468
f 194/469 195/470 196/471
f 196/472 43/473 194/474
f 197/475 198/476 42/477
f 42/478 199/479 197/480
f 200/481 201/482 202/483
f 202/484 47/485 200/486
f 203/487 204/488 46/489
f 46/490 205/491 203/492
f 31/493 178/494 206/495
f 206/496 32/497 31/498
f 181/499 30/500 29/501
f 29/502 207/503 181/504
f 35/505 184/506 208/507
f 208/508 36/509 35/510
f 187/511 34/512 33/513
f 33/514 209/515 187/516
f 39/517 190/518 210/519
f 210/520 40/521 39/522
f 193/523 38/524 37/525
f 37/526 211/527 193/528
f 43/529 196/530 212/531
f 212/532 44/533 43/534
f 199/535 42/536 41/537
f 41/538 213/539 199/540
f 47/541 202/542 214/543
f 214/544 48/545 47/546
f 205/547 46/548 45/549
f 45/550 215/551 205/552
f 55/553 216/554 217/555
f 217/556 56/557 55/558
f 218/559 54/560 53/561
f 53/562 219/563 218/564
f 59/565 220/566 221/567
f 221/568 60/569 59/570
f 222/571 58/572 57/573
f 57/574 223/575 222/576
f 63/577 224/578 225/579
f 225/580 64/581 63/582
f 226/583 62/584 61/585
f 61/586 227/587 226/588
f 67/589 228/590 229/591
f 229/592 68/593 67/594
f 230/595 66/596 65/597
f 65/598 231/599 230/600
f 71/601 232/602 233/603
f 233/604 72/605 71/606
f 234/607 70/608 69/609
f 69/610 235/611 234/612
f 32/613 206/614 216/615
f 216/616 55/617 32/618
f 207/619 29/620 54/621
f 54/622 218/623 207/624
f 36/625 208/626 220/627
f 220/628 59/629 36/630
f 209/631 33/632 58/633
f 58/634 222/635 209/636
f 40/637 210/638 224/639
f 224/640 63/641 40/642
f 211/643 37/644 62/645
f 62/646 226/647 211/648
f 44/649 212/650 228/651
f 228/652 67/653 44/654
f 213/655 41/656 66/657
f 66/658 230/659 213/660
f 48/661 214/662 232/663
f 232/664 71/665 48/666
f 215/667 45/668 70/669
f 70/670 234/671 215/672
f 125/673 178/674 177/675
f 177/676 236/677 125/678
f 237/679 179/680 181/681
f 181/682 127/683 237/684
f 130/685 184/686 183/687
f 183/688 238/689 130/690
f 96/691 185/692 187/693
f 187/694 97/695 96/696
f 134/697 190/698 189/699
f 189/700 239/701 134/702
f 104/703 191/704 193/705
f 193/706 105/707 104/708
f 138/709 196/710 195/711
f 195/712 240/713 138/714
f 112/715 197/716 199/717
f 199/718 113/719 112/720
f 142/721 202/722 201/723
f 201/724 241/725 142/726
f 120/727 203/728 205/729
f 205/730 121/731 120/732
f 124/733 206/734 178/735
f 178/736 125/737 124/738
f 127/739 181/740 207/741
f 207/742 128/743 127/744
f 129/745 208/746 184/747
f 184/748 130/749 129/750
f 97/751 187/752 209/753
f 209/754 132/755 97/756
f 133/757 210/758 190/759
f 190/760 134/761 133/762
f 105/763 193/764 211/765
f 211/766 136/767 105/768
f 137/769 212/770 196/771
f 196/772 138/773 137/774
f 113/775 199/776 213/777
f 213/778 140/779 113/780
f 141/781 214/782 202/783
f 202/784 142/785 141/786
f 121/787 205/788 215/789
f 215/790 145/791 121/792
f 146/793 217/794 216/795
f 216/796 147/797 146/798
f 150/799 218/800 219/801
f 219/802 151/803 150/804
f 152/805 221/806 220/807
f 220/808 153/809 152/810
f 156/811 222/812 223/813
f 223/814 157/815 156/816
f 158/817 225/818 224/819
f 224/820 159/821 158/822
f 162/823 226/824 227/825
f 227/826 163/827 162/828
f 164/829 229/830 228/831
f 228/832 165/833 164/834
f 168/835 230/836 231/837
f 231/838 169/839 168/840
f 171/841 233/842 232/843
f 232/844 172/845 171/846
f 174/847 234/848 235/849
f 235/850 175/851 174/852
f 147/853 216/854 206/855
f 206/856 124/857 147/858
f 128/859 207/860 218/861
f 218/862 150/863 128/864
f 153/865 220/866 208/867
f 208/868 129/869 153/870
f 132/871 209/872 222/873
f 222/874 156/875 132/876
f 159/877 224/878 210/879
f 210/880 133/881 159/882
f 136/883 211/884 226/885
f 226/886 162/887 136/888
f 165/889 228/890 212/891
f 212/892 137/893 165/894
f 140/895 213/896 230/897
f 230/898 168/899 140/900
f 172/901 232/902 214/903
f 214/904 141/905 172/906
f 145/907 215/908 234/909
f 234/910 174/911 145/912
f 4/913 3/914 242/915
f 242/916 73/917 4/918
f 2/919 1/920 28/921
f 28/922 27/923 2/924
f 8/925 7/926 31/927
f 31/928 30/929 8/930
f 6/931 5/932 180/933
f 180/934 176/935 6/936
f 12/937 11/938 35/939
f 35/940 34/941 12/942
f 10/943 9/944 186/945
f 186/946 182/947 10/948
f 16/949 15/950 39/951
f 39/952 38/953 16/954
f 14/955 13/956 192/957
f 192/958 188/959 14/960
f 42/961 17/962 20/963
f 20/964 43/965 42/966
f 194/967 19/968 18/969
f 18/970 198/971 194/972
f 46/973 21/974 24/975
f 24/976 47/977 46/978
f 200/979 23/980 22/981
f 22/982 204/983 200/984
f 87/985 86/986 98/987
f 98/988 125/989 87/990
f 85/991 84/992 236/993
f 236/994 99/995 85/996
f 91/997 90/998 77/999
f 77/1000 237/1001 91/1002
f 89/1003 88/1004 127/1005
f 127/1006 76/1007 89/1008
f 95/1009 94/1010 106/1011
f 106/1012 130/1013 95/1014
f 93/1015 92/1016 238/1017
f 238/1018 107/1019 93/1020
f 103/1021 102/1022 114/1023
f 114/1024 134/1025 103/1026
f 101/1027 100/1028 239/1029
f 239/1030 115/1031 101/1032
f 138/1033 108/1034 111/1035
f 111/1036 122/1037 138/1038
f 123/1039 110/1040 109/1041
f 109/1042 240/1043 123/1044
f 142/1045 116/1046 119/1047
f 119/1048 143/1049 142/1050
f 243/1051 118/1052 117/1053
f 117/1054 241/1055 243/1056
