# USD → MuJoCo (world-space)
v -1.849079 2.604938 0.647888
v -1.849003 2.604930 0.647842
v -1.848844 2.609765 0.646758
v -1.848920 2.609774 0.646805
v -1.849183 2.596084 0.649877
v -1.849107 2.596076 0.649830
v -1.871980 2.604837 0.647870
v -1.872069 2.595983 0.649858
v -1.871842 2.609682 0.646784
v -1.848752 2.578778 0.508138
v -1.848855 2.569924 0.510127
v -1.848695 2.551391 0.411122
v -1.848591 2.560245 0.409134
v -1.848919 2.598140 0.611569
v -1.849023 2.589285 0.613557
v -1.848593 2.583603 0.507057
v -1.848760 2.602973 0.610485
v -1.848432 2.565063 0.408054
v -1.939219 2.553696 0.376220
v -2.007033 2.553396 0.376165
v -2.007017 2.558281 0.375070
v -1.939143 2.558551 0.375132
v -1.939266 2.544842 0.378208
v -2.007041 2.544542 0.378154
v -1.871540 2.553995 0.376274
v -1.871629 2.545141 0.378263
v -1.871403 2.558821 0.375193
v -2.030370 2.553293 0.376146
v -2.030993 2.553166 0.376174
v -2.030999 2.557998 0.375091
v -2.030374 2.558188 0.375049
v -2.030363 2.544439 0.378135
v -2.030985 2.544436 0.378134
v -2.031483 2.552793 0.376257
v -2.032256 2.552421 0.376339
v -2.032226 2.556866 0.375342
v -2.031491 2.557431 0.375217
v -2.031471 2.544434 0.378134
v -2.032262 2.544430 0.378133
v -2.035286 2.552311 0.376357
v -2.035535 2.558421 0.408994
v -2.035708 2.562822 0.408008
v -2.035477 2.556708 0.375372
v -2.035450 2.544415 0.378130
v -2.035707 2.550523 0.410767
v -2.034633 2.552308 0.376359
v -2.034767 2.544417 0.378131
v -2.034883 2.556702 0.375374
v -2.035760 2.576993 0.508204
v -2.035863 2.596396 0.611858
v -2.036037 2.600812 0.610869
v -2.035928 2.581401 0.507216
v -2.035936 2.569094 0.509978
v -2.036036 2.588498 0.613632
v -2.033901 2.603144 0.647958
v -2.032696 2.603263 0.647934
v -2.032665 2.607728 0.646933
v -2.034018 2.607550 0.646971
v -2.033970 2.595265 0.649728
v -2.032702 2.595272 0.649729
v -2.035073 2.603149 0.647954
v -2.035207 2.595259 0.649726
v -2.035323 2.607563 0.646965
v -2.031922 2.603634 0.647852
v -2.031433 2.604007 0.647769
v -2.031439 2.608859 0.646681
v -2.031931 2.608292 0.646808
v -2.031911 2.595275 0.649729
v -2.031425 2.595278 0.649730
v -2.030809 2.604134 0.647742
v -2.007473 2.604237 0.647761
v -2.007457 2.609142 0.646661
v -2.030814 2.609049 0.646640
v -2.030803 2.595280 0.649730
v -2.007481 2.595383 0.649749
v -1.848845 2.580082 0.653469
v -1.848769 2.580074 0.653423
v -1.848825 2.582237 0.652937
v -1.848901 2.582245 0.652983
v -1.848845 2.579797 0.653569
v -1.848744 2.579755 0.653535
v -1.871775 2.579991 0.653448
v -1.871775 2.579706 0.653548
v -1.871823 2.582154 0.652963
v -1.849068 2.587231 0.651865
v -1.848992 2.587223 0.651819
v -1.871969 2.587130 0.651847
v -1.939557 2.611576 0.646237
v -2.007452 2.611305 0.646176
v -1.939582 2.609413 0.646722
v -1.939557 2.611874 0.646207
v -2.007452 2.611604 0.646145
v -1.871796 2.611845 0.646299
v -1.871797 2.612144 0.646268
v -1.848518 2.553912 0.513721
v -1.848493 2.553620 0.513787
v -1.848332 2.535080 0.414784
v -1.848357 2.535372 0.414718
v -1.848685 2.573281 0.617150
v -1.848660 2.572990 0.617215
v -1.848574 2.556075 0.513236
v -1.848741 2.575444 0.616664
v -1.848413 2.537534 0.414233
v -1.848741 2.561071 0.512115
v -1.848581 2.542538 0.413111
v -1.848908 2.580432 0.615545
v -1.848539 2.585766 0.506572
v -1.848515 2.586058 0.506506
v -1.848682 2.605428 0.609935
v -1.848707 2.605136 0.610000
v -1.848379 2.567226 0.407569
v -1.848355 2.567518 0.407503
v -1.939096 2.528860 0.381796
v -2.006989 2.528589 0.381734
v -2.006998 2.530753 0.381249
v -1.939124 2.531023 0.381310
v -1.939095 2.528562 0.381830
v -2.006989 2.528292 0.381768
v -1.871335 2.529130 0.381857
v -1.871335 2.528832 0.381891
v -1.871384 2.531293 0.381372
v -1.939208 2.535989 0.380197
v -2.007022 2.535689 0.380142
v -1.871529 2.536288 0.380251
v -1.848427 2.561075 0.374728
v -1.848351 2.561083 0.374769
v -1.848404 2.558920 0.375254
v -1.848480 2.558912 0.375214
v -1.848427 2.561361 0.374632
v -1.848327 2.561404 0.374661
v -1.871357 2.560984 0.374707
v -1.871357 2.561270 0.374611
v -2.030351 2.528497 0.381713
v -2.030969 2.528709 0.381664
v -2.030971 2.530845 0.381185
v -2.030352 2.530660 0.381228
v -2.030350 2.528199 0.381747
v -2.030969 2.528415 0.381698
v -2.030357 2.535585 0.380123
v -2.030977 2.535706 0.380095
v -2.030376 2.560351 0.374563
v -2.007012 2.560444 0.374585
v -2.030376 2.560637 0.374467
v -2.007012 2.560730 0.374488
v -2.031001 2.560134 0.374611
v -2.031001 2.560416 0.374515
v -2.031448 2.529353 0.381519
v -2.032132 2.529994 0.381374
v -2.032179 2.531966 0.380931
v -2.031451 2.531408 0.381058
v -2.031448 2.529070 0.381550
v -2.032099 2.529721 0.381403
v -2.031460 2.536075 0.380011
v -2.032229 2.536440 0.379928
v -2.031494 2.559486 0.374756
v -2.031495 2.559757 0.374662
v -2.032187 2.558840 0.374899
v -2.032155 2.559100 0.374808
v -2.035092 2.530149 0.381334
v -2.035307 2.536258 0.413971
v -2.035691 2.538208 0.413532
v -2.035458 2.532099 0.380895
v -2.034813 2.529881 0.381362
v -2.035028 2.533627 0.402288
v -2.034553 2.530161 0.381332
v -2.034320 2.529892 0.381360
v -2.034858 2.532110 0.380894
v -2.035275 2.536520 0.379904
v -2.035524 2.542627 0.412541
v -2.034618 2.536528 0.379903
v -2.033411 2.558637 0.374943
v -2.033578 2.556689 0.375380
v -2.033282 2.558895 0.374852
v -2.034583 2.558654 0.374937
v -2.034350 2.558912 0.374847
v -2.035522 2.554836 0.513180
v -2.035635 2.574248 0.616832
v -2.036019 2.576199 0.616393
v -2.035911 2.556786 0.512741
v -2.035304 2.554369 0.513285
v -2.035396 2.576241 0.629839
v -2.035751 2.561198 0.511752
v -2.035853 2.580602 0.615406
v -2.035542 2.583355 0.506779
v -2.035328 2.564775 0.407570
v -2.035313 2.583814 0.506676
v -2.035042 2.562990 0.395697
v -2.035656 2.602766 0.610431
v -2.035410 2.605604 0.623249
v -2.033806 2.581048 0.652919
v -2.032572 2.580855 0.652965
v -2.032618 2.582828 0.652522
v -2.033979 2.582995 0.652482
v -2.033676 2.580791 0.653013
v -2.032539 2.580595 0.653060
v -2.034993 2.581022 0.652923
v -2.034760 2.580766 0.653017
v -2.035298 2.582972 0.652485
v -2.033880 2.587387 0.651497
v -2.032669 2.587281 0.651524
v -2.035058 2.587369 0.651498
v -2.035555 2.609523 0.646525
v -2.035917 2.607569 0.646963
v -2.035276 2.609794 0.646501
v -2.035022 2.609515 0.646528
v -2.034790 2.609786 0.646504
v -2.031888 2.580214 0.653110
v -2.031409 2.579570 0.653255
v -2.031411 2.581706 0.652776
v -2.031891 2.582269 0.652649
v -2.031888 2.579943 0.653207
v -2.031409 2.579288 0.653355
v -2.031900 2.586916 0.651607
v -2.031417 2.586548 0.651690
v -2.031934 2.610347 0.646347
v -2.032627 2.609701 0.646490
v -2.031935 2.610631 0.646319
v -2.032595 2.609974 0.646465
v -2.031441 2.610995 0.646202
v -2.031441 2.611290 0.646172
v -2.030790 2.579358 0.653304
v -2.007429 2.579451 0.653325
v -2.007437 2.581614 0.652840
v -2.030792 2.581521 0.652819
v -2.030790 2.579073 0.653404
v -2.007429 2.579166 0.653426
v -2.030797 2.586427 0.651719
v -2.007462 2.586530 0.651738
v -2.030816 2.611212 0.646154
v -2.030816 2.611511 0.646124
v -1.939658 2.604537 0.647815
v -1.939706 2.595683 0.649804
v -1.848639 2.554097 0.376293
v -1.848743 2.545243 0.378281
v -1.848564 2.554105 0.376334
v -1.848667 2.545251 0.378322
v -1.939535 2.579721 0.653387
v -1.939535 2.579436 0.653487
v -1.939563 2.581884 0.652901
v -1.939647 2.586830 0.651792
v -1.848867 2.611937 0.646319
v -1.848867 2.612235 0.646289
v -1.848791 2.611928 0.646273
v -1.848766 2.612262 0.646239
v -1.848406 2.529221 0.381878
v -1.848405 2.528924 0.381912
v -1.848330 2.529229 0.381919
v -1.848304 2.528896 0.381957
v -1.848462 2.531384 0.381392
v -1.848386 2.531392 0.381433
v -1.848629 2.536390 0.380270
v -1.848553 2.536397 0.380310
v -1.939117 2.560714 0.374646
v -1.939118 2.561000 0.374549
v -1.848978 2.604904 0.647703
v -1.849081 2.596050 0.649692
v -1.848818 2.609739 0.646620
v -1.848539 2.554128 0.376456
v -1.848379 2.558943 0.375377
v -1.848642 2.545274 0.378444
v -1.848744 2.580048 0.653284
v -1.848719 2.579757 0.653349
v -1.848800 2.582211 0.652798
v -1.848305 2.529252 0.382041
v -1.848361 2.531415 0.381555
v -1.848279 2.528960 0.382106
v -1.848967 2.587197 0.651680
v -1.848528 2.536421 0.380433
v -1.848326 2.561106 0.374891
v -1.848302 2.561398 0.374826
v -1.848765 2.611902 0.646134
v -1.848741 2.612194 0.646069
v -2.033462 2.552302 0.376363
v -2.033530 2.544424 0.378132
v -2.035725 2.603152 0.647953
v -2.035889 2.595256 0.649726
v -2.033367 2.530186 0.381328
v -2.033236 2.529917 0.381356
v -2.033539 2.532133 0.380891
v -2.033440 2.536546 0.379901
v -2.035115 2.558661 0.374934
v -2.034836 2.558920 0.374844
v -2.035532 2.581011 0.652925
v -2.035253 2.580755 0.653019
v -2.035897 2.582961 0.652486
v -2.035714 2.587361 0.651499
v -2.033851 2.609499 0.646534
v -2.033721 2.609769 0.646509
vt 0.111824 0.749030
vt 0.111514 0.749030
vt 0.110847 0.939078
vt 0.110847 0.939078
vt 0.111157 0.939078
vt 0.111824 0.749030
vt 0.112269 0.500001
vt 0.111959 0.500001
vt 0.111514 0.749030
vt 0.111514 0.749030
vt 0.111824 0.749030
vt 0.112269 0.500001
vt 0.111824 0.749030
vt 0.205838 0.749029
vt 0.206227 0.500001
vt 0.206227 0.500001
vt 0.112269 0.500001
vt 0.111824 0.749030
vt 0.111157 0.939078
vt 0.205254 0.939078
vt 0.205838 0.749029
vt 0.205838 0.749029
vt 0.111824 0.749030
vt 0.111157 0.939078
vt 0.499992 0.749030
vt 0.499992 0.500001
vt 0.129395 0.500001
vt 0.129395 0.500001
vt 0.129395 0.749030
vt 0.499992 0.749030
vt 0.870590 0.749030
vt 0.870590 0.500001
vt 0.499992 0.500001
vt 0.499992 0.500001
vt 0.499992 0.749030
vt 0.870590 0.749030
vt 0.499992 0.749030
vt 0.499992 0.939078
vt 0.870590 0.939078
vt 0.870590 0.939078
vt 0.870590 0.749030
vt 0.499992 0.749030
vt 0.129395 0.749030
vt 0.129395 0.939079
vt 0.499992 0.939078
vt 0.499992 0.939078
vt 0.499992 0.749030
vt 0.129395 0.749030
vt 0.512947 0.749029
vt 0.231131 0.749028
vt 0.231214 0.939077
vt 0.231214 0.939077
vt 0.513281 0.939078
vt 0.512947 0.749029
vt 0.512725 0.500000
vt 0.231076 0.500000
vt 0.231131 0.749028
vt 0.231131 0.749028
vt 0.512947 0.749029
vt 0.512725 0.500000
vt 0.512947 0.749029
vt 0.794162 0.749030
vt 0.793773 0.500001
vt 0.793773 0.500001
vt 0.512725 0.500000
vt 0.512947 0.749029
vt 0.513281 0.939078
vt 0.794746 0.939078
vt 0.794162 0.749030
vt 0.794162 0.749030
vt 0.512947 0.749029
vt 0.513281 0.939078
vt 0.135311 0.749028
vt 0.132762 0.745513
vt 0.132754 0.932880
vt 0.132754 0.932880
vt 0.135308 0.939077
vt 0.135311 0.749028
vt 0.135314 0.499999
vt 0.132773 0.499998
vt 0.132762 0.745513
vt 0.132762 0.745513
vt 0.135311 0.749028
vt 0.135314 0.499999
vt 0.135311 0.749028
vt 0.231131 0.749028
vt 0.231076 0.500000
vt 0.231076 0.500000
vt 0.135314 0.499999
vt 0.135311 0.749028
vt 0.135308 0.939077
vt 0.231214 0.939077
vt 0.231131 0.749028
vt 0.231131 0.749028
vt 0.135311 0.749028
vt 0.135308 0.939077
vt 0.130761 0.734968
vt 0.127602 0.724532
vt 0.127740 0.895890
vt 0.127740 0.895890
vt 0.130742 0.914289
vt 0.130761 0.734968
vt 0.130787 0.499995
vt 0.127556 0.499993
vt 0.127602 0.724532
vt 0.127602 0.724532
vt 0.130761 0.734968
vt 0.130787 0.499995
vt 0.130761 0.734968
vt 0.132762 0.745513
vt 0.132773 0.499998
vt 0.132773 0.499998
vt 0.130787 0.499995
vt 0.130761 0.734968
vt 0.130742 0.914289
vt 0.132754 0.932880
vt 0.132762 0.745513
vt 0.132762 0.745513
vt 0.130761 0.734968
vt 0.130742 0.914289
vt 0.113060 0.004833
vt 0.112262 0.128624
vt 0.113747 0.128624
vt 0.113747 0.128624
vt 0.114474 0.004833
vt 0.113060 0.004833
vt 0.995167 0.500008
vt 0.871376 0.500009
vt 0.871376 0.721891
vt 0.871376 0.721891
vt 0.995167 0.721845
vt 0.995167 0.500008
vt 0.113060 0.721845
vt 0.115722 0.721688
vt 0.115156 0.500005
vt 0.115156 0.500005
vt 0.112372 0.500008
vt 0.113060 0.721845
vt 0.114474 0.891141
vt 0.116895 0.890868
vt 0.115722 0.721688
vt 0.115722 0.721688
vt 0.113060 0.721845
vt 0.114474 0.891141
vt 0.111995 0.500000
vt 0.112262 0.871376
vt 0.113747 0.871376
vt 0.113747 0.871376
vt 0.113505 0.500000
vt 0.111995 0.500000
vt 0.500000 0.500009
vt 0.128624 0.500009
vt 0.128624 0.721891
vt 0.128624 0.721891
vt 0.500000 0.721907
vt 0.500000 0.500009
vt 0.500000 0.721907
vt 0.871376 0.721891
vt 0.871376 0.500009
vt 0.871376 0.500009
vt 0.500000 0.500009
vt 0.500000 0.721907
vt 0.113505 0.500000
vt 0.113747 0.128624
vt 0.112262 0.128624
vt 0.112262 0.128624
vt 0.111995 0.500000
vt 0.113505 0.500000
vt 0.878421 0.721344
vt 0.872398 0.724531
vt 0.872260 0.895890
vt 0.872260 0.895890
vt 0.877779 0.890266
vt 0.878421 0.721344
vt 0.878718 0.499998
vt 0.872444 0.499993
vt 0.872398 0.724531
vt 0.872398 0.724531
vt 0.878421 0.721344
vt 0.878718 0.499998
vt 0.878421 0.721344
vt 0.884278 0.721688
vt 0.884844 0.500005
vt 0.884844 0.500005
vt 0.878718 0.499998
vt 0.878421 0.721344
vt 0.877779 0.890266
vt 0.883105 0.890867
vt 0.884278 0.721688
vt 0.884278 0.721688
vt 0.878421 0.721344
vt 0.877779 0.890266
vt 0.869239 0.734967
vt 0.867238 0.745513
vt 0.867246 0.932879
vt 0.867246 0.932879
vt 0.869258 0.914289
vt 0.869239 0.734967
vt 0.869213 0.499994
vt 0.867227 0.499998
vt 0.867238 0.745513
vt 0.867238 0.745513
vt 0.869239 0.734967
vt 0.869213 0.499994
vt 0.869239 0.734967
vt 0.872398 0.724531
vt 0.872444 0.499993
vt 0.872444 0.499993
vt 0.869213 0.499994
vt 0.869239 0.734967
vt 0.869258 0.914289
vt 0.872260 0.895890
vt 0.872398 0.724531
vt 0.872398 0.724531
vt 0.869239 0.734967
vt 0.869258 0.914289
vt 0.864689 0.749028
vt 0.768869 0.749028
vt 0.768786 0.939076
vt 0.768786 0.939076
vt 0.864692 0.939076
vt 0.864689 0.749028
vt 0.864686 0.499999
vt 0.768924 0.499999
vt 0.768869 0.749028
vt 0.768869 0.749028
vt 0.864689 0.749028
vt 0.864686 0.499999
vt 0.864689 0.749028
vt 0.867238 0.745513
vt 0.867227 0.499998
vt 0.867227 0.499998
vt 0.864686 0.499999
vt 0.864689 0.749028
vt 0.864692 0.939076
vt 0.867246 0.932879
vt 0.867238 0.745513
vt 0.867238 0.745513
vt 0.864689 0.749028
vt 0.864692 0.939076
vt 0.110935 -0.011164
vt 0.110625 -0.011164
vt 0.110847 0.060924
vt 0.110847 0.060924
vt 0.111157 0.060924
vt 0.110935 -0.011164
vt 0.889065 0.995286
vt 0.889478 0.995143
vt 0.889375 0.995011
vt 0.889375 0.995011
vt 0.889065 0.995168
vt 0.889065 0.995286
vt 0.889065 0.995168
vt 0.794940 0.995168
vt 0.794940 0.995286
vt 0.794940 0.995286
vt 0.889065 0.995286
vt 0.889065 0.995168
vt 0.111157 0.060924
vt 0.205254 0.060923
vt 0.205060 -0.011164
vt 0.205060 -0.011164
vt 0.110935 -0.011164
vt 0.111157 0.060924
vt 0.111824 0.250972
vt 0.111514 0.250972
vt 0.111959 0.500001
vt 0.111959 0.500001
vt 0.112269 0.500001
vt 0.111824 0.250972
vt 0.111157 0.060924
vt 0.110847 0.060924
vt 0.111514 0.250972
vt 0.111514 0.250972
vt 0.111824 0.250972
vt 0.111157 0.060924
vt 0.111824 0.250972
vt 0.205838 0.250972
vt 0.205254 0.060923
vt 0.205254 0.060923
vt 0.111157 0.060924
vt 0.111824 0.250972
vt 0.112269 0.500001
vt 0.206227 0.500001
vt 0.205838 0.250972
vt 0.205838 0.250972
vt 0.111824 0.250972
vt 0.112269 0.500001
vt 0.486608 1.011164
vt 0.768759 1.011164
vt 0.768786 0.939076
vt 0.768786 0.939076
vt 0.486719 0.939077
vt 0.486608 1.011164
vt 0.486608 0.995286
vt 0.768759 0.995286
vt 0.768759 0.995168
vt 0.768759 0.995168
vt 0.486608 0.995168
vt 0.486608 0.995286
vt 0.486608 0.995168
vt 0.205060 0.995168
vt 0.205060 0.995286
vt 0.205060 0.995286
vt 0.486608 0.995286
vt 0.486608 0.995168
vt 0.486719 0.939077
vt 0.205254 0.939078
vt 0.205060 1.011165
vt 0.205060 1.011165
vt 0.486608 1.011164
vt 0.486719 0.939077
vt 0.889479 0.499992
vt 0.889580 0.499992
vt 0.889580 0.129395
vt 0.889580 0.129395
vt 0.889479 0.129395
vt 0.889479 0.499992
vt 0.889479 0.870590
vt 0.889580 0.870590
vt 0.889580 0.499992
vt 0.889580 0.499992
vt 0.889479 0.499992
vt 0.889479 0.870590
vt 0.499992 -0.011164
vt 0.499992 0.060924
vt 0.870590 0.060924
vt 0.870590 0.060924
vt 0.870590 -0.011164
vt 0.499992 -0.011164
vt 0.129395 -0.011163
vt 0.129395 0.060924
vt 0.499992 0.060924
vt 0.499992 0.060924
vt 0.499992 -0.011164
vt 0.129395 -0.011163
vt 0.499992 0.250972
vt 0.499992 0.060924
vt 0.129395 0.060924
vt 0.129395 0.060924
vt 0.129395 0.250972
vt 0.499992 0.250972
vt 0.870590 0.250972
vt 0.870590 0.060924
vt 0.499992 0.060924
vt 0.499992 0.060924
vt 0.499992 0.250972
vt 0.870590 0.250972
vt 0.499992 0.250972
vt 0.499992 0.500001
vt 0.870590 0.500001
vt 0.870590 0.500001
vt 0.870590 0.250972
vt 0.499992 0.250972
vt 0.129395 0.250972
vt 0.129395 0.500001
vt 0.499992 0.500001
vt 0.499992 0.500001
vt 0.499992 0.250972
vt 0.129395 0.250972
vt 0.110521 0.499992
vt 0.110420 0.499992
vt 0.110420 0.870590
vt 0.110420 0.870590
vt 0.110521 0.870590
vt 0.110521 0.499992
vt 0.110521 0.129395
vt 0.110420 0.129395
vt 0.110420 0.499992
vt 0.110420 0.499992
vt 0.110521 0.499992
vt 0.110521 0.129395
vt 0.499992 1.011166
vt 0.499992 0.939078
vt 0.129395 0.939079
vt 0.129395 0.939079
vt 0.129395 1.011166
vt 0.499992 1.011166
vt 0.870590 1.011165
vt 0.870590 0.939078
vt 0.499992 0.939078
vt 0.499992 0.939078
vt 0.499992 1.011166
vt 0.870590 1.011165
vt 0.513392 -0.011164
vt 0.231245 -0.011165
vt 0.231216 0.060922
vt 0.231216 0.060922
vt 0.513281 0.060923
vt 0.513392 -0.011164
vt 0.513392 0.004714
vt 0.231245 0.004714
vt 0.231245 0.004833
vt 0.231245 0.004833
vt 0.513392 0.004833
vt 0.513392 0.004714
vt 0.513392 0.004833
vt 0.794940 0.004833
vt 0.794940 0.004714
vt 0.794940 0.004714
vt 0.513392 0.004714
vt 0.513392 0.004833
vt 0.513281 0.060923
vt 0.794746 0.060924
vt 0.794940 -0.011163
vt 0.794940 -0.011163
vt 0.513392 -0.011164
vt 0.513281 0.060923
vt 0.512947 0.250971
vt 0.231132 0.250971
vt 0.231076 0.500000
vt 0.231076 0.500000
vt 0.512725 0.500000
vt 0.512947 0.250971
vt 0.513281 0.060923
vt 0.231216 0.060922
vt 0.231132 0.250971
vt 0.231132 0.250971
vt 0.512947 0.250971
vt 0.513281 0.060923
vt 0.512947 0.250971
vt 0.794162 0.250972
vt 0.794746 0.060924
vt 0.794746 0.060924
vt 0.513281 0.060923
vt 0.512947 0.250971
vt 0.512725 0.500000
vt 0.793773 0.500001
vt 0.794162 0.250972
vt 0.794162 0.250972
vt 0.512947 0.250971
vt 0.512725 0.500000
vt 0.889065 1.011166
vt 0.889375 1.011166
vt 0.889153 0.939079
vt 0.889153 0.939079
vt 0.888843 0.939079
vt 0.889065 1.011166
vt 0.110935 0.004714
vt 0.110522 0.004856
vt 0.110625 0.004987
vt 0.110625 0.004987
vt 0.110935 0.004833
vt 0.110935 0.004714
vt 0.110935 0.004833
vt 0.205060 0.004833
vt 0.205060 0.004714
vt 0.205060 0.004714
vt 0.110935 0.004714
vt 0.110935 0.004833
vt 0.888843 0.939079
vt 0.794746 0.939078
vt 0.794940 1.011166
vt 0.794940 1.011166
vt 0.889065 1.011166
vt 0.888843 0.939079
vt 0.135321 -0.011165
vt 0.132795 -0.003954
vt 0.132792 0.067117
vt 0.132792 0.067117
vt 0.135320 0.060922
vt 0.135321 -0.011165
vt 0.135321 0.004714
vt 0.132795 0.004714
vt 0.132795 0.004833
vt 0.132795 0.004833
vt 0.135321 0.004833
vt 0.135321 0.004714
vt 0.135321 0.004833
vt 0.231245 0.004833
vt 0.231245 0.004714
vt 0.231245 0.004714
vt 0.135321 0.004714
vt 0.135321 0.004833
vt 0.135320 0.060922
vt 0.231216 0.060922
vt 0.231245 -0.011165
vt 0.231245 -0.011165
vt 0.135321 -0.011165
vt 0.135320 0.060922
vt 0.135317 0.250970
vt 0.132784 0.254483
vt 0.132773 0.499998
vt 0.132773 0.499998
vt 0.135314 0.499999
vt 0.135317 0.250970
vt 0.135320 0.060922
vt 0.132792 0.067117
vt 0.132784 0.254483
vt 0.132784 0.254483
vt 0.135317 0.250970
vt 0.135320 0.060922
vt 0.135317 0.250970
vt 0.231132 0.250971
vt 0.231216 0.060922
vt 0.231216 0.060922
vt 0.135320 0.060922
vt 0.135317 0.250970
vt 0.135314 0.499999
vt 0.231076 0.500000
vt 0.231132 0.250971
vt 0.231132 0.250971
vt 0.135317 0.250970
vt 0.135314 0.499999
vt 0.135307 1.011164
vt 0.231241 1.011164
vt 0.231214 0.939077
vt 0.231214 0.939077
vt 0.135308 0.939077
vt 0.135307 1.011164
vt 0.864693 0.004714
vt 0.768759 0.004714
vt 0.768759 0.004833
vt 0.768759 0.004833
vt 0.864693 0.004833
vt 0.864693 0.004714
vt 0.864693 0.004833
vt 0.867249 0.004833
vt 0.867249 0.004714
vt 0.867249 0.004714
vt 0.864693 0.004714
vt 0.864693 0.004833
vt 0.135308 0.939077
vt 0.132754 0.932880
vt 0.132751 1.003950
vt 0.132751 1.003950
vt 0.135307 1.011164
vt 0.135308 0.939077
vt 0.130839 0.017682
vt 0.128047 0.039099
vt 0.127863 0.104097
vt 0.127863 0.104097
vt 0.130832 0.085700
vt 0.130839 0.017682
vt 0.130840 0.004714
vt 0.128181 0.004714
vt 0.128047 0.004833
vt 0.128047 0.004833
vt 0.130839 0.004833
vt 0.130840 0.004714
vt 0.130839 0.004833
vt 0.132795 0.004833
vt 0.132795 0.004714
vt 0.132795 0.004714
vt 0.130840 0.004714
vt 0.130839 0.004833
vt 0.130832 0.085700
vt 0.132792 0.067117
vt 0.132795 -0.003954
vt 0.132795 -0.003954
vt 0.130839 0.017682
vt 0.130832 0.085700
vt 0.130812 0.265022
vt 0.127672 0.275455
vt 0.127556 0.499993
vt 0.127556 0.499993
vt 0.130787 0.499995
vt 0.130812 0.265022
vt 0.130832 0.085700
vt 0.127863 0.104097
vt 0.127672 0.275455
vt 0.127672 0.275455
vt 0.130812 0.265022
vt 0.130832 0.085700
vt 0.130812 0.265022
vt 0.132784 0.254483
vt 0.132792 0.067117
vt 0.132792 0.067117
vt 0.130832 0.085700
vt 0.130812 0.265022
vt 0.130787 0.499995
vt 0.132773 0.499998
vt 0.132784 0.254483
vt 0.132784 0.254483
vt 0.130812 0.265022
vt 0.130787 0.499995
vt 0.130734 0.982308
vt 0.132751 1.003950
vt 0.132754 0.932880
vt 0.132754 0.932880
vt 0.130742 0.914289
vt 0.130734 0.982308
vt 0.869267 0.004714
vt 0.867249 0.004714
vt 0.867249 0.004833
vt 0.867249 0.004833
vt 0.869266 0.004833
vt 0.869267 0.004714
vt 0.869266 0.004833
vt 0.872097 0.004833
vt 0.871965 0.004714
vt 0.871965 0.004714
vt 0.869267 0.004714
vt 0.869266 0.004833
vt 0.130742 0.914289
vt 0.127740 0.895890
vt 0.127903 0.960888
vt 0.127903 0.960888
vt 0.130734 0.982308
vt 0.130742 0.914289
vt 0.884031 0.004833
vt 0.884691 0.128624
vt 0.886249 0.128624
vt 0.886249 0.128624
vt 0.885515 0.004833
vt 0.884031 0.004833
vt 0.882893 0.004714
vt 0.883632 0.083984
vt 0.884691 0.128624
vt 0.884691 0.128624
vt 0.884031 0.004833
vt 0.882893 0.004714
vt 0.115969 0.004833
vt 0.118169 0.004833
vt 0.119118 0.004714
vt 0.119118 0.004714
vt 0.117107 0.004714
vt 0.115969 0.004833
vt 0.114485 0.108876
vt 0.116930 0.109143
vt 0.118169 0.044972
vt 0.118169 0.044972
vt 0.115969 0.044660
vt 0.114485 0.108876
vt 0.995167 0.278172
vt 0.871376 0.278127
vt 0.871376 0.500009
vt 0.871376 0.500009
vt 0.995167 0.500008
vt 0.995167 0.278172
vt 0.885515 0.004833
vt 0.886249 0.128624
vt 0.887736 0.128624
vt 0.887736 0.128624
vt 0.886933 0.004833
vt 0.885515 0.004833
vt 0.113067 0.278172
vt 0.115743 0.278322
vt 0.116930 0.109143
vt 0.116930 0.109143
vt 0.114485 0.108876
vt 0.113067 0.278172
vt 0.112372 0.500008
vt 0.115156 0.500005
vt 0.115743 0.278322
vt 0.115743 0.278322
vt 0.113067 0.278172
vt 0.112372 0.500008
vt 0.122906 0.954341
vt 0.127903 0.960888
vt 0.127740 0.895890
vt 0.127740 0.895890
vt 0.122221 0.890267
vt 0.122906 0.954341
vt 0.876564 0.004714
vt 0.871965 0.004714
vt 0.872097 0.004833
vt 0.872097 0.004833
vt 0.877094 0.004833
vt 0.876564 0.004714
vt 0.877094 0.004833
vt 0.881872 0.004833
vt 0.880924 0.004714
vt 0.880924 0.004714
vt 0.876564 0.004714
vt 0.877094 0.004833
vt 0.122221 0.890267
vt 0.116895 0.890868
vt 0.118128 0.955039
vt 0.118128 0.955039
vt 0.122906 0.954341
vt 0.122221 0.890267
vt 0.884911 0.500000
vt 0.884691 0.871376
vt 0.886249 0.871376
vt 0.886249 0.871376
vt 0.886493 0.500000
vt 0.884911 0.500000
vt 0.884023 0.500000
vt 0.883632 0.916016
vt 0.884691 0.871376
vt 0.884691 0.871376
vt 0.884911 0.500000
vt 0.884023 0.500000
vt 0.884911 0.500000
vt 0.884691 0.128624
vt 0.883632 0.083984
vt 0.883632 0.083984
vt 0.884023 0.500000
vt 0.884911 0.500000
vt 0.886493 0.500000
vt 0.886249 0.128624
vt 0.884691 0.128624
vt 0.884691 0.128624
vt 0.884911 0.500000
vt 0.886493 0.500000
vt 0.500000 0.278112
vt 0.128624 0.278127
vt 0.128624 0.500009
vt 0.128624 0.500009
vt 0.500000 0.500009
vt 0.500000 0.278112
vt 0.886493 0.500000
vt 0.886249 0.871376
vt 0.887736 0.871376
vt 0.887736 0.871376
vt 0.888004 0.500000
vt 0.886493 0.500000
vt 0.888004 0.500000
vt 0.887736 0.128624
vt 0.886249 0.128624
vt 0.886249 0.128624
vt 0.886493 0.500000
vt 0.888004 0.500000
vt 0.500000 0.500009
vt 0.871376 0.500009
vt 0.871376 0.278127
vt 0.871376 0.278127
vt 0.500000 0.278112
vt 0.500000 0.500009
vt 0.115087 0.500000
vt 0.115305 0.128624
vt 0.113747 0.128624
vt 0.113747 0.128624
vt 0.113505 0.500000
vt 0.115087 0.500000
vt 0.116020 0.500000
vt 0.116394 0.083984
vt 0.115305 0.128624
vt 0.115305 0.128624
vt 0.115087 0.500000
vt 0.116020 0.500000
vt 0.115087 0.500000
vt 0.115305 0.871376
vt 0.116394 0.916016
vt 0.116394 0.916016
vt 0.116020 0.500000
vt 0.115087 0.500000
vt 0.113505 0.500000
vt 0.113747 0.871376
vt 0.115305 0.871376
vt 0.115305 0.871376
vt 0.115087 0.500000
vt 0.113505 0.500000
vt 0.876991 0.045656
vt 0.871953 0.039098
vt 0.872136 0.104096
vt 0.872136 0.104096
vt 0.877690 0.109730
vt 0.876991 0.045656
vt 0.123541 0.995286
vt 0.128181 0.995286
vt 0.128047 0.995168
vt 0.128047 0.995168
vt 0.123009 0.995168
vt 0.123541 0.995286
vt 0.123009 0.995168
vt 0.118169 0.995168
vt 0.119118 0.995286
vt 0.119118 0.995286
vt 0.123541 0.995286
vt 0.123009 0.995168
vt 0.877690 0.109730
vt 0.883070 0.109143
vt 0.881831 0.044971
vt 0.881831 0.044971
vt 0.876991 0.045656
vt 0.877690 0.109730
vt 0.878370 0.278652
vt 0.872328 0.275455
vt 0.872444 0.499993
vt 0.872444 0.499993
vt 0.878718 0.499998
vt 0.878370 0.278652
vt 0.877690 0.109730
vt 0.872136 0.104096
vt 0.872328 0.275455
vt 0.872328 0.275455
vt 0.878370 0.278652
vt 0.877690 0.109730
vt 0.878370 0.278652
vt 0.884257 0.278322
vt 0.883070 0.109143
vt 0.883070 0.109143
vt 0.877690 0.109730
vt 0.878370 0.278652
vt 0.878718 0.499998
vt 0.884844 0.500005
vt 0.884257 0.278322
vt 0.884257 0.278322
vt 0.878370 0.278652
vt 0.878718 0.499998
vt 0.115956 0.995168
vt 0.115305 0.871376
vt 0.113747 0.871376
vt 0.113747 0.871376
vt 0.114474 0.995168
vt 0.115956 0.995168
vt 0.117094 0.995286
vt 0.116394 0.916016
vt 0.115305 0.871376
vt 0.115305 0.871376
vt 0.115956 0.995168
vt 0.117094 0.995286
vt 0.884044 0.995168
vt 0.881872 0.995168
vt 0.880924 0.995286
vt 0.880924 0.995286
vt 0.882906 0.995286
vt 0.884044 0.995168
vt 0.885526 0.891140
vt 0.883105 0.890867
vt 0.881872 0.955039
vt 0.881872 0.955039
vt 0.884044 0.955356
vt 0.885526 0.891140
vt 0.869161 0.017681
vt 0.867205 -0.003954
vt 0.867208 0.067116
vt 0.867208 0.067116
vt 0.869168 0.085700
vt 0.869161 0.017681
vt 0.130840 0.995286
vt 0.132795 0.995286
vt 0.132795 0.995168
vt 0.132795 0.995168
vt 0.130839 0.995168
vt 0.130840 0.995286
vt 0.130839 0.995168
vt 0.128047 0.995168
vt 0.128181 0.995286
vt 0.128181 0.995286
vt 0.130840 0.995286
vt 0.130839 0.995168
vt 0.869168 0.085700
vt 0.872136 0.104096
vt 0.871953 0.039098
vt 0.871953 0.039098
vt 0.869161 0.017681
vt 0.869168 0.085700
vt 0.869188 0.265021
vt 0.867216 0.254483
vt 0.867227 0.499998
vt 0.867227 0.499998
vt 0.869213 0.499994
vt 0.869188 0.265021
vt 0.869168 0.085700
vt 0.867208 0.067116
vt 0.867216 0.254483
vt 0.867216 0.254483
vt 0.869188 0.265021
vt 0.869168 0.085700
vt 0.869188 0.265021
vt 0.872328 0.275455
vt 0.872136 0.104096
vt 0.872136 0.104096
vt 0.869168 0.085700
vt 0.869188 0.265021
vt 0.869213 0.499994
vt 0.872444 0.499993
vt 0.872328 0.275455
vt 0.872328 0.275455
vt 0.869188 0.265021
vt 0.869213 0.499994
vt 0.869266 0.982307
vt 0.872097 0.960888
vt 0.872260 0.895890
vt 0.872260 0.895890
vt 0.869258 0.914289
vt 0.869266 0.982307
vt 0.869267 0.995286
vt 0.871965 0.995286
vt 0.872097 0.995168
vt 0.872097 0.995168
vt 0.869266 0.995168
vt 0.869267 0.995286
vt 0.869266 0.995168
vt 0.867249 0.995168
vt 0.867249 0.995286
vt 0.867249 0.995286
vt 0.869267 0.995286
vt 0.869266 0.995168
vt 0.869258 0.914289
vt 0.867246 0.932879
vt 0.867249 1.003949
vt 0.867249 1.003949
vt 0.869266 0.982307
vt 0.869258 0.914289
vt 0.864679 -0.011166
vt 0.768755 -0.011166
vt 0.768784 0.060922
vt 0.768784 0.060922
vt 0.864680 0.060921
vt 0.864679 -0.011166
vt 0.135321 0.995286
vt 0.231245 0.995286
vt 0.231245 0.995168
vt 0.231245 0.995168
vt 0.135321 0.995168
vt 0.135321 0.995286
vt 0.135321 0.995168
vt 0.132795 0.995168
vt 0.132795 0.995286
vt 0.132795 0.995286
vt 0.135321 0.995286
vt 0.135321 0.995168
vt 0.864680 0.060921
vt 0.867208 0.067116
vt 0.867205 -0.003954
vt 0.867205 -0.003954
vt 0.864679 -0.011166
vt 0.864680 0.060921
vt 0.864683 0.250970
vt 0.768868 0.250970
vt 0.768924 0.499999
vt 0.768924 0.499999
vt 0.864686 0.499999
vt 0.864683 0.250970
vt 0.864680 0.060921
vt 0.768784 0.060922
vt 0.768868 0.250970
vt 0.768868 0.250970
vt 0.864683 0.250970
vt 0.864680 0.060921
vt 0.864683 0.250970
vt 0.867216 0.254483
vt 0.867208 0.067116
vt 0.867208 0.067116
vt 0.864680 0.060921
vt 0.864683 0.250970
vt 0.864686 0.499999
vt 0.867227 0.499998
vt 0.867216 0.254483
vt 0.867216 0.254483
vt 0.864683 0.250970
vt 0.864686 0.499999
vt 0.864693 1.011163
vt 0.867249 1.003949
vt 0.867246 0.932879
vt 0.867246 0.932879
vt 0.864692 0.939076
vt 0.864693 1.011163
vt 0.864693 0.995286
vt 0.867249 0.995286
vt 0.867249 0.995168
vt 0.867249 0.995168
vt 0.864693 0.995168
vt 0.864693 0.995286
vt 0.864693 0.995168
vt 0.768759 0.995168
vt 0.768759 0.995286
vt 0.768759 0.995286
vt 0.864693 0.995286
vt 0.864693 0.995168
vt 0.864692 0.939076
vt 0.768786 0.939076
vt 0.768759 1.011164
vt 0.768759 1.011164
vt 0.864693 1.011163
vt 0.864692 0.939076
vt 0.487053 0.749029
vt 0.487275 0.500000
vt 0.206227 0.500001
vt 0.206227 0.500001
vt 0.205838 0.749029
vt 0.487053 0.749029
vt 0.768869 0.749028
vt 0.768924 0.499999
vt 0.487275 0.500000
vt 0.487275 0.500000
vt 0.487053 0.749029
vt 0.768869 0.749028
vt 0.487053 0.749029
vt 0.486719 0.939077
vt 0.768786 0.939076
vt 0.768786 0.939076
vt 0.768869 0.749028
vt 0.487053 0.749029
vt 0.205838 0.749029
vt 0.205254 0.939078
vt 0.486719 0.939077
vt 0.486719 0.939077
vt 0.487053 0.749029
vt 0.205838 0.749029
vt 0.888176 0.749030
vt 0.887731 0.500001
vt 0.793773 0.500001
vt 0.793773 0.500001
vt 0.794162 0.749030
vt 0.888176 0.749030
vt 0.888486 0.749030
vt 0.888041 0.500001
vt 0.887731 0.500001
vt 0.887731 0.500001
vt 0.888176 0.749030
vt 0.888486 0.749030
vt 0.888176 0.749030
vt 0.888843 0.939079
vt 0.889153 0.939079
vt 0.889153 0.939079
vt 0.888486 0.749030
vt 0.888176 0.749030
vt 0.794162 0.749030
vt 0.794746 0.939078
vt 0.888843 0.939079
vt 0.888843 0.939079
vt 0.888176 0.749030
vt 0.794162 0.749030
vt 0.513392 0.995168
vt 0.513392 0.995286
vt 0.794940 0.995286
vt 0.794940 0.995286
vt 0.794940 0.995168
vt 0.513392 0.995168
vt 0.231245 0.995168
vt 0.231245 0.995286
vt 0.513392 0.995286
vt 0.513392 0.995286
vt 0.513392 0.995168
vt 0.231245 0.995168
vt 0.486608 -0.011165
vt 0.486719 0.060922
vt 0.768784 0.060922
vt 0.768784 0.060922
vt 0.768755 -0.011166
vt 0.486608 -0.011165
vt 0.205060 -0.011164
vt 0.205254 0.060923
vt 0.486719 0.060922
vt 0.486719 0.060922
vt 0.486608 -0.011165
vt 0.205060 -0.011164
vt 0.487053 0.250971
vt 0.486719 0.060922
vt 0.205254 0.060923
vt 0.205254 0.060923
vt 0.205838 0.250972
vt 0.487053 0.250971
vt 0.768868 0.250970
vt 0.768784 0.060922
vt 0.486719 0.060922
vt 0.486719 0.060922
vt 0.487053 0.250971
vt 0.768868 0.250970
vt 0.487053 0.250971
vt 0.487275 0.500000
vt 0.768924 0.499999
vt 0.768924 0.499999
vt 0.768868 0.250970
vt 0.487053 0.250971
vt 0.205838 0.250972
vt 0.206227 0.500001
vt 0.487275 0.500000
vt 0.487275 0.500000
vt 0.487053 0.250971
vt 0.205838 0.250972
vt 0.110935 0.995168
vt 0.110935 0.995286
vt 0.205060 0.995286
vt 0.205060 0.995286
vt 0.205060 0.995168
vt 0.110935 0.995168
vt 0.110625 0.995011
vt 0.110522 0.995143
vt 0.110935 0.995286
vt 0.110935 0.995286
vt 0.110935 0.995168
vt 0.110625 0.995011
vt 0.110935 1.011165
vt 0.111157 0.939078
vt 0.110847 0.939078
vt 0.110847 0.939078
vt 0.110625 1.011165
vt 0.110935 1.011165
vt 0.205060 1.011165
vt 0.205254 0.939078
vt 0.111157 0.939078
vt 0.111157 0.939078
vt 0.110935 1.011165
vt 0.205060 1.011165
vt 0.889065 0.004833
vt 0.889065 0.004714
vt 0.794940 0.004714
vt 0.794940 0.004714
vt 0.794940 0.004833
vt 0.889065 0.004833
vt 0.889375 0.004987
vt 0.889478 0.004856
vt 0.889065 0.004714
vt 0.889065 0.004714
vt 0.889065 0.004833
vt 0.889375 0.004987
vt 0.889065 -0.011163
vt 0.888843 0.060924
vt 0.889153 0.060924
vt 0.889153 0.060924
vt 0.889375 -0.011163
vt 0.889065 -0.011163
vt 0.794940 -0.011163
vt 0.794746 0.060924
vt 0.888843 0.060924
vt 0.888843 0.060924
vt 0.889065 -0.011163
vt 0.794940 -0.011163
vt 0.888176 0.250973
vt 0.888843 0.060924
vt 0.794746 0.060924
vt 0.794746 0.060924
vt 0.794162 0.250972
vt 0.888176 0.250973
vt 0.888486 0.250973
vt 0.889153 0.060924
vt 0.888843 0.060924
vt 0.888843 0.060924
vt 0.888176 0.250973
vt 0.888486 0.250973
vt 0.888176 0.250973
vt 0.887731 0.500001
vt 0.888041 0.500001
vt 0.888041 0.500001
vt 0.888486 0.250973
vt 0.888176 0.250973
vt 0.794162 0.250972
vt 0.793773 0.500001
vt 0.887731 0.500001
vt 0.887731 0.500001
vt 0.888176 0.250973
vt 0.794162 0.250972
vt 0.486608 0.004833
vt 0.486608 0.004714
vt 0.205060 0.004714
vt 0.205060 0.004714
vt 0.205060 0.004833
vt 0.486608 0.004833
vt 0.768759 0.004833
vt 0.768759 0.004714
vt 0.486608 0.004714
vt 0.486608 0.004714
vt 0.486608 0.004833
vt 0.768759 0.004833
vt 0.513392 1.011165
vt 0.513281 0.939078
vt 0.231214 0.939077
vt 0.231214 0.939077
vt 0.231241 1.011164
vt 0.513392 1.011165
vt 0.794940 1.011166
vt 0.794746 0.939078
vt 0.513281 0.939078
vt 0.513281 0.939078
vt 0.513392 1.011165
vt 0.794940 1.011166
vt 0.994541 0.749030
vt 0.994541 0.500001
vt 0.870590 0.500001
vt 0.870590 0.500001
vt 0.870590 0.749030
vt 0.994541 0.749030
vt 0.995011 0.749030
vt 0.995011 0.500001
vt 0.994541 0.500001
vt 0.994541 0.500001
vt 0.994541 0.749030
vt 0.995011 0.749030
vt 0.994541 0.749030
vt 0.994541 0.939078
vt 0.995011 0.939078
vt 0.995011 0.939078
vt 0.995011 0.749030
vt 0.994541 0.749030
vt 0.870590 0.749030
vt 0.870590 0.939078
vt 0.994541 0.939078
vt 0.994541 0.939078
vt 0.994541 0.749030
vt 0.870590 0.749030
vt 0.005451 0.749030
vt 0.005451 0.939079
vt 0.129395 0.939079
vt 0.129395 0.939079
vt 0.129395 0.749030
vt 0.005451 0.749030
vt 0.004987 0.749030
vt 0.004987 0.939079
vt 0.005451 0.939079
vt 0.005451 0.939079
vt 0.005451 0.749030
vt 0.004987 0.749030
vt 0.005451 0.749030
vt 0.005451 0.500001
vt 0.004987 0.500001
vt 0.004987 0.500001
vt 0.004987 0.749030
vt 0.005451 0.749030
vt 0.129395 0.749030
vt 0.129395 0.500001
vt 0.005451 0.500001
vt 0.005451 0.500001
vt 0.005451 0.749030
vt 0.129395 0.749030
vt 0.889479 0.994541
vt 0.889580 0.994541
vt 0.889580 0.870590
vt 0.889580 0.870590
vt 0.889479 0.870590
vt 0.889479 0.994541
vt 0.889375 0.995011
vt 0.889478 0.995143
vt 0.889580 0.994541
vt 0.889580 0.994541
vt 0.889479 0.994541
vt 0.889375 0.995011
vt 0.994541 -0.011164
vt 0.994541 0.060924
vt 0.995011 0.060924
vt 0.995011 0.060924
vt 0.995011 -0.011164
vt 0.994541 -0.011164
vt 0.870590 -0.011164
vt 0.870590 0.060924
vt 0.994541 0.060924
vt 0.994541 0.060924
vt 0.994541 -0.011164
vt 0.870590 -0.011164
vt 0.005451 -0.011163
vt 0.005451 0.060924
vt 0.129395 0.060924
vt 0.129395 0.060924
vt 0.129395 -0.011163
vt 0.005451 -0.011163
vt 0.004987 -0.011163
vt 0.004987 0.060924
vt 0.005451 0.060924
vt 0.005451 0.060924
vt 0.005451 -0.011163
vt 0.004987 -0.011163
vt 0.889479 0.005451
vt 0.889580 0.005451
vt 0.889478 0.004856
vt 0.889478 0.004856
vt 0.889375 0.004987
vt 0.889479 0.005451
vt 0.889479 0.129395
vt 0.889580 0.129395
vt 0.889580 0.005451
vt 0.889580 0.005451
vt 0.889479 0.005451
vt 0.889479 0.129395
vt 0.994541 0.250972
vt 0.994541 0.060924
vt 0.870590 0.060924
vt 0.870590 0.060924
vt 0.870590 0.250972
vt 0.994541 0.250972
vt 0.995011 0.250972
vt 0.995011 0.060924
vt 0.994541 0.060924
vt 0.994541 0.060924
vt 0.994541 0.250972
vt 0.995011 0.250972
vt 0.994541 0.250972
vt 0.994541 0.500001
vt 0.995011 0.500001
vt 0.995011 0.500001
vt 0.995011 0.250972
vt 0.994541 0.250972
vt 0.870590 0.250972
vt 0.870590 0.500001
vt 0.994541 0.500001
vt 0.994541 0.500001
vt 0.994541 0.250972
vt 0.870590 0.250972
vt 0.005451 0.250973
vt 0.005451 0.500001
vt 0.129395 0.500001
vt 0.129395 0.500001
vt 0.129395 0.250972
vt 0.005451 0.250973
vt 0.004987 0.250973
vt 0.004987 0.500001
vt 0.005451 0.500001
vt 0.005451 0.500001
vt 0.005451 0.250973
vt 0.004987 0.250973
vt 0.005451 0.250973
vt 0.005451 0.060924
vt 0.004987 0.060924
vt 0.004987 0.060924
vt 0.004987 0.250973
vt 0.005451 0.250973
vt 0.129395 0.250972
vt 0.129395 0.060924
vt 0.005451 0.060924
vt 0.005451 0.060924
vt 0.005451 0.250973
vt 0.129395 0.250972
vt 0.110521 0.005451
vt 0.110420 0.005451
vt 0.110420 0.129395
vt 0.110420 0.129395
vt 0.110521 0.129395
vt 0.110521 0.005451
vt 0.110625 0.004987
vt 0.110522 0.004856
vt 0.110420 0.005451
vt 0.110420 0.005451
vt 0.110521 0.005451
vt 0.110625 0.004987
vt 0.005451 1.011166
vt 0.005451 0.939079
vt 0.004987 0.939079
vt 0.004987 0.939079
vt 0.004987 1.011166
vt 0.005451 1.011166
vt 0.129395 1.011166
vt 0.129395 0.939079
vt 0.005451 0.939079
vt 0.005451 0.939079
vt 0.005451 1.011166
vt 0.129395 1.011166
vt 0.994541 1.011165
vt 0.994541 0.939078
vt 0.870590 0.939078
vt 0.870590 0.939078
vt 0.870590 1.011165
vt 0.994541 1.011165
vt 0.995011 1.011165
vt 0.995011 0.939078
vt 0.994541 0.939078
vt 0.994541 0.939078
vt 0.994541 1.011165
vt 0.995011 1.011165
vt 0.110521 0.994541
vt 0.110420 0.994541
vt 0.110522 0.995143
vt 0.110522 0.995143
vt 0.110625 0.995011
vt 0.110521 0.994541
vt 0.110521 0.870590
vt 0.110420 0.870590
vt 0.110420 0.994541
vt 0.110420 0.994541
vt 0.110521 0.994541
vt 0.110521 0.870590
vt 0.121579 0.721345
vt 0.121282 0.499999
vt 0.115156 0.500005
vt 0.115156 0.500005
vt 0.115722 0.721688
vt 0.121579 0.721345
vt 0.127602 0.724532
vt 0.127556 0.499993
vt 0.121282 0.499999
vt 0.121282 0.499999
vt 0.121579 0.721345
vt 0.127602 0.724532
vt 0.121579 0.721345
vt 0.122221 0.890267
vt 0.127740 0.895890
vt 0.127740 0.895890
vt 0.127602 0.724532
vt 0.121579 0.721345
vt 0.115722 0.721688
vt 0.116895 0.890868
vt 0.122221 0.890267
vt 0.122221 0.890267
vt 0.121579 0.721345
vt 0.115722 0.721688
vt 0.886940 0.721844
vt 0.887628 0.500008
vt 0.884844 0.500005
vt 0.884844 0.500005
vt 0.884278 0.721688
vt 0.886940 0.721844
vt 0.128624 0.721891
vt 0.128624 0.500009
vt 0.004832 0.500008
vt 0.004832 0.500008
vt 0.004832 0.721844
vt 0.128624 0.721891
vt 0.113060 0.995168
vt 0.114474 0.995168
vt 0.113747 0.871376
vt 0.113747 0.871376
vt 0.112262 0.871376
vt 0.113060 0.995168
vt 0.884278 0.721688
vt 0.883105 0.890867
vt 0.885526 0.891140
vt 0.885526 0.891140
vt 0.886940 0.721844
vt 0.884278 0.721688
vt 0.123009 0.004833
vt 0.123541 0.004714
vt 0.119118 0.004714
vt 0.119118 0.004714
vt 0.118169 0.004833
vt 0.123009 0.004833
vt 0.128047 0.004833
vt 0.128181 0.004714
vt 0.123541 0.004714
vt 0.123541 0.004714
vt 0.123009 0.004833
vt 0.128047 0.004833
vt 0.123009 0.045657
vt 0.122310 0.109731
vt 0.127863 0.104097
vt 0.127863 0.104097
vt 0.128047 0.039099
vt 0.123009 0.045657
vt 0.118169 0.044972
vt 0.116930 0.109143
vt 0.122310 0.109731
vt 0.122310 0.109731
vt 0.123009 0.045657
vt 0.118169 0.044972
vt 0.121630 0.278653
vt 0.122310 0.109731
vt 0.116930 0.109143
vt 0.116930 0.109143
vt 0.115743 0.278322
vt 0.121630 0.278653
vt 0.127672 0.275455
vt 0.127863 0.104097
vt 0.122310 0.109731
vt 0.122310 0.109731
vt 0.121630 0.278653
vt 0.127672 0.275455
vt 0.121630 0.278653
vt 0.121282 0.499999
vt 0.127556 0.499993
vt 0.127556 0.499993
vt 0.127672 0.275455
vt 0.121630 0.278653
vt 0.115743 0.278322
vt 0.115156 0.500005
vt 0.121282 0.499999
vt 0.121282 0.499999
vt 0.121630 0.278653
vt 0.115743 0.278322
vt 0.884044 0.004833
vt 0.882906 0.004714
vt 0.880924 0.004714
vt 0.880924 0.004714
vt 0.881872 0.004833
vt 0.884044 0.004833
vt 0.115305 0.128624
vt 0.116394 0.083984
vt 0.117094 0.004714
vt 0.117094 0.004714
vt 0.115956 0.004833
vt 0.115305 0.128624
vt 0.115956 0.004833
vt 0.114474 0.004833
vt 0.113747 0.128624
vt 0.113747 0.128624
vt 0.115305 0.128624
vt 0.115956 0.004833
vt 0.118128 0.955039
vt 0.116895 0.890868
vt 0.114474 0.891141
vt 0.114474 0.891141
vt 0.115956 0.955356
vt 0.118128 0.955039
vt 0.115969 0.995168
vt 0.117107 0.995286
vt 0.119118 0.995286
vt 0.119118 0.995286
vt 0.118169 0.995168
vt 0.115969 0.995168
vt 0.884691 0.871376
vt 0.883632 0.916016
vt 0.882893 0.995286
vt 0.882893 0.995286
vt 0.884031 0.995168
vt 0.884691 0.871376
vt 0.884031 0.995168
vt 0.885515 0.995168
vt 0.886249 0.871376
vt 0.886249 0.871376
vt 0.884691 0.871376
vt 0.884031 0.995168
vt 0.881831 0.044971
vt 0.883070 0.109143
vt 0.885515 0.108876
vt 0.885515 0.108876
vt 0.884031 0.044660
vt 0.881831 0.044971
vt 0.886933 0.278172
vt 0.885515 0.108876
vt 0.883070 0.109143
vt 0.883070 0.109143
vt 0.884257 0.278322
vt 0.886933 0.278172
vt 0.887736 0.871376
vt 0.886249 0.871376
vt 0.885515 0.995168
vt 0.885515 0.995168
vt 0.886933 0.995168
vt 0.887736 0.871376
vt 0.004832 0.278172
vt 0.004832 0.500008
vt 0.128624 0.500009
vt 0.128624 0.500009
vt 0.128624 0.278127
vt 0.004832 0.278172
vt 0.884257 0.278322
vt 0.884844 0.500005
vt 0.887628 0.500008
vt 0.887628 0.500008
vt 0.886933 0.278172
vt 0.884257 0.278322
vt 0.877094 0.995168
vt 0.876564 0.995286
vt 0.880924 0.995286
vt 0.880924 0.995286
vt 0.881872 0.995168
vt 0.877094 0.995168
vt 0.872097 0.995168
vt 0.871965 0.995286
vt 0.876564 0.995286
vt 0.876564 0.995286
vt 0.877094 0.995168
vt 0.872097 0.995168
vt 0.877094 0.954340
vt 0.877779 0.890266
vt 0.872260 0.895890
vt 0.872260 0.895890
vt 0.872097 0.960888
vt 0.877094 0.954340
vt 0.881872 0.955039
vt 0.883105 0.890867
vt 0.877779 0.890266
vt 0.877779 0.890266
vt 0.877094 0.954340
vt 0.881872 0.955039
f 1/1 2/2 3/3
f 3/4 4/5 1/6
f 5/7 6/8 2/9
f 2/10 1/11 5/12
f 1/13 7/14 8/15
f 8/16 5/17 1/18
f 4/19 9/20 7/21
f 7/22 1/23 4/24
f 10/25 11/26 12/27
f 12/28 13/29 10/30
f 14/31 15/32 11/33
f 11/34 10/35 14/36
f 10/37 16/38 17/39
f 17/40 14/41 10/42
f 13/43 18/44 16/45
f 16/46 10/47 13/48
f 19/49 20/50 21/51
f 21/52 22/53 19/54
f 23/55 24/56 20/57
f 20/58 19/59 23/60
f 19/61 25/62 26/63
f 26/64 23/65 19/66
f 22/67 27/68 25/69
f 25/70 19/71 22/72
f 28/73 29/74 30/75
f 30/76 31/77 28/78
f 32/79 33/80 29/81
f 29/82 28/83 32/84
f 28/85 20/86 24/87
f 24/88 32/89 28/90
f 31/91 21/92 20/93
f 20/94 28/95 31/96
f 34/97 35/98 36/99
f 36/100 37/101 34/102
f 38/103 39/104 35/105
f 35/106 34/107 38/108
f 34/109 29/110 33/111
f 33/112 38/113 34/114
f 37/115 30/116 29/117
f 29/118 34/119 37/120
f 40/121 41/122 42/123
f 42/124 43/125 40/126
f 44/127 45/128 41/129
f 41/130 40/131 44/132
f 40/133 46/134 47/135
f 47/136 44/137 40/138
f 43/139 48/140 46/141
f 46/142 40/143 43/144
f 49/145 50/146 51/147
f 51/148 52/149 49/150
f 53/151 54/152 50/153
f 50/154 49/155 53/156
f 49/157 41/158 45/159
f 45/160 53/161 49/162
f 52/163 42/164 41/165
f 41/166 49/167 52/168
f 55/169 56/170 57/171
f 57/172 58/173 55/174
f 59/175 60/176 56/177
f 56/178 55/179 59/180
f 55/181 61/182 62/183
f 62/184 59/185 55/186
f 58/187 63/188 61/189
f 61/190 55/191 58/192
f 64/193 65/194 66/195
f 66/196 67/197 64/198
f 68/199 69/200 65/201
f 65/202 64/203 68/204
f 64/205 56/206 60/207
f 60/208 68/209 64/210
f 67/211 57/212 56/213
f 56/214 64/215 67/216
f 70/217 71/218 72/219
f 72/220 73/221 70/222
f 74/223 75/224 71/225
f 71/226 70/227 74/228
f 70/229 65/230 69/231
f 69/232 74/233 70/234
f 73/235 66/236 65/237
f 65/238 70/239 73/240
f 76/241 77/242 78/243
f 78/244 79/245 76/246
f 80/247 81/248 77/249
f 77/250 76/251 80/252
f 76/253 82/254 83/255
f 83/256 80/257 76/258
f 79/259 84/260 82/261
f 82/262 76/263 79/264
f 85/265 86/266 6/267
f 6/268 5/269 85/270
f 79/271 78/272 86/273
f 86/274 85/275 79/276
f 85/277 87/278 84/279
f 84/280 79/281 85/282
f 5/283 8/284 87/285
f 87/286 85/287 5/288
f 88/289 89/290 72/291
f 72/292 90/293 88/294
f 91/295 92/296 89/297
f 89/298 88/299 91/300
f 88/301 93/302 94/303
f 94/304 91/305 88/306
f 90/307 9/308 93/309
f 93/310 88/311 90/312
f 95/313 96/314 97/315
f 97/316 98/317 95/318
f 99/319 100/320 96/321
f 96/322 95/323 99/324
f 95/325 101/326 102/327
f 102/328 99/329 95/330
f 98/331 103/332 101/333
f 101/334 95/335 98/336
f 104/337 101/338 103/339
f 103/340 105/341 104/342
f 106/343 102/344 101/345
f 101/346 104/347 106/348
f 104/349 11/350 15/351
f 15/352 106/353 104/354
f 105/355 12/356 11/357
f 11/358 104/359 105/360
f 107/361 108/362 109/363
f 109/364 110/365 107/366
f 111/367 112/368 108/369
f 108/370 107/371 111/372
f 107/373 16/374 18/375
f 18/376 111/377 107/378
f 110/379 17/380 16/381
f 16/382 107/383 110/384
f 113/385 114/386 115/387
f 115/388 116/389 113/390
f 117/391 118/392 114/393
f 114/394 113/395 117/396
f 113/397 119/398 120/399
f 120/400 117/401 113/402
f 116/403 121/404 119/405
f 119/406 113/407 116/408
f 122/409 123/410 24/411
f 24/412 23/413 122/414
f 116/415 115/416 123/417
f 123/418 122/419 116/420
f 122/421 124/422 121/423
f 121/424 116/425 122/426
f 23/427 26/428 124/429
f 124/430 122/431 23/432
f 125/433 126/434 127/435
f 127/436 128/437 125/438
f 129/439 130/440 126/441
f 126/442 125/443 129/444
f 125/445 131/446 132/447
f 132/448 129/449 125/450
f 128/451 27/452 131/453
f 131/454 125/455 128/456
f 133/457 134/458 135/459
f 135/460 136/461 133/462
f 137/463 138/464 134/465
f 134/466 133/467 137/468
f 133/469 114/470 118/471
f 118/472 137/473 133/474
f 136/475 115/476 114/477
f 114/478 133/479 136/480
f 139/481 140/482 33/483
f 33/484 32/485 139/486
f 136/487 135/488 140/489
f 140/490 139/491 136/492
f 139/493 123/494 115/495
f 115/496 136/497 139/498
f 32/499 24/500 123/501
f 123/502 139/503 32/504
f 141/505 142/506 21/507
f 21/508 31/509 141/510
f 143/511 144/512 142/513
f 142/514 141/515 143/516
f 141/517 145/518 146/519
f 146/520 143/521 141/522
f 31/523 30/524 145/525
f 145/526 141/527 31/528
f 147/529 148/530 149/531
f 149/532 150/533 147/534
f 151/535 152/536 148/537
f 148/538 147/539 151/540
f 147/541 134/542 138/543
f 138/544 151/545 147/546
f 150/547 135/548 134/549
f 134/550 147/551 150/552
f 153/553 154/554 39/555
f 39/556 38/557 153/558
f 150/559 149/560 154/561
f 154/562 153/563 150/564
f 153/565 140/566 135/567
f 135/568 150/569 153/570
f 38/571 33/572 140/573
f 140/574 153/575 38/576
f 155/577 145/578 30/579
f 30/580 37/581 155/582
f 156/583 146/584 145/585
f 145/586 155/587 156/588
f 155/589 157/590 158/591
f 158/592 156/593 155/594
f 37/595 36/596 157/597
f 157/598 155/599 37/600
f 159/601 160/602 161/603
f 161/604 162/605 159/606
f 163/607 164/608 160/609
f 160/610 159/611 163/612
f 159/613 165/614 166/615
f 166/616 163/617 159/618
f 162/619 167/620 165/621
f 165/622 159/623 162/624
f 168/625 169/626 45/627
f 45/628 44/629 168/630
f 162/631 161/632 169/633
f 169/634 168/635 162/636
f 168/637 170/638 167/639
f 167/640 162/641 168/642
f 44/643 47/644 170/645
f 170/646 168/647 44/648
f 171/649 157/650 36/651
f 36/652 172/653 171/654
f 173/655 158/656 157/657
f 157/658 171/659 173/660
f 171/661 174/662 175/663
f 175/664 173/665 171/666
f 172/667 48/668 174/669
f 174/670 171/671 172/672
f 176/673 177/674 178/675
f 178/676 179/677 176/678
f 180/679 181/680 177/681
f 177/682 176/683 180/684
f 176/685 160/686 164/687
f 164/688 180/689 176/690
f 179/691 161/692 160/693
f 160/694 176/695 179/696
f 182/697 183/698 54/699
f 54/700 53/701 182/702
f 179/703 178/704 183/705
f 183/706 182/707 179/708
f 182/709 169/710 161/711
f 161/712 179/713 182/714
f 53/715 45/716 169/717
f 169/718 182/719 53/720
f 184/721 185/722 42/723
f 42/724 52/725 184/726
f 186/727 187/728 185/729
f 185/730 184/731 186/732
f 184/733 188/734 189/735
f 189/736 186/737 184/738
f 52/739 51/740 188/741
f 188/742 184/743 52/744
f 190/745 191/746 192/747
f 192/748 193/749 190/750
f 194/751 195/752 191/753
f 191/754 190/755 194/756
f 190/757 196/758 197/759
f 197/760 194/761 190/762
f 193/763 198/764 196/765
f 196/766 190/767 193/768
f 199/769 200/770 60/771
f 60/772 59/773 199/774
f 193/775 192/776 200/777
f 200/778 199/779 193/780
f 199/781 201/782 198/783
f 198/784 193/785 199/786
f 59/787 62/788 201/789
f 201/790 199/791 59/792
f 202/793 188/794 51/795
f 51/796 203/797 202/798
f 204/799 189/800 188/801
f 188/802 202/803 204/804
f 202/805 205/806 206/807
f 206/808 204/809 202/810
f 203/811 63/812 205/813
f 205/814 202/815 203/816
f 207/817 208/818 209/819
f 209/820 210/821 207/822
f 211/823 212/824 208/825
f 208/826 207/827 211/828
f 207/829 191/830 195/831
f 195/832 211/833 207/834
f 210/835 192/836 191/837
f 191/838 207/839 210/840
f 213/841 214/842 69/843
f 69/844 68/845 213/846
f 210/847 209/848 214/849
f 214/850 213/851 210/852
f 213/853 200/854 192/855
f 192/856 210/857 213/858
f 68/859 60/860 200/861
f 200/862 213/863 68/864
f 215/865 216/866 57/867
f 57/868 67/869 215/870
f 217/871 218/872 216/873
f 216/874 215/875 217/876
f 215/877 219/878 220/879
f 220/880 217/881 215/882
f 67/883 66/884 219/885
f 219/886 215/887 67/888
f 221/889 222/890 223/891
f 223/892 224/893 221/894
f 225/895 226/896 222/897
f 222/898 221/899 225/900
f 221/901 208/902 212/903
f 212/904 225/905 221/906
f 224/907 209/908 208/909
f 208/910 221/911 224/912
f 227/913 228/914 75/915
f 75/916 74/917 227/918
f 224/919 223/920 228/921
f 228/922 227/923 224/924
f 227/925 214/926 209/927
f 209/928 224/929 227/930
f 74/931 69/932 214/933
f 214/934 227/935 74/936
f 229/937 219/938 66/939
f 66/940 73/941 229/942
f 230/943 220/944 219/945
f 219/946 229/947 230/948
f 229/949 89/950 92/951
f 92/952 230/953 229/954
f 73/955 72/956 89/957
f 89/958 229/959 73/960
f 231/961 232/962 8/963
f 8/964 7/965 231/966
f 71/967 75/968 232/969
f 232/970 231/971 71/972
f 231/973 90/974 72/975
f 72/976 71/977 231/978
f 7/979 9/980 90/981
f 90/982 231/983 7/984
f 233/985 234/986 26/987
f 26/988 25/989 233/990
f 235/991 236/992 234/993
f 234/994 233/995 235/996
f 233/997 128/998 127/999
f 127/1000 235/1001 233/1002
f 25/1003 27/1004 128/1005
f 128/1006 233/1007 25/1008
f 237/1009 238/1010 83/1011
f 83/1012 82/1013 237/1014
f 222/1015 226/1016 238/1017
f 238/1018 237/1019 222/1020
f 237/1021 239/1022 223/1023
f 223/1024 222/1025 237/1026
f 82/1027 84/1028 239/1029
f 239/1030 237/1031 82/1032
f 240/1033 239/1034 84/1035
f 84/1036 87/1037 240/1038
f 228/1039 223/1040 239/1041
f 239/1042 240/1043 228/1044
f 240/1045 232/1046 75/1047
f 75/1048 228/1049 240/1050
f 87/1051 8/1052 232/1053
f 232/1054 240/1055 87/1056
f 241/1057 242/1058 94/1059
f 94/1060 93/1061 241/1062
f 243/1063 244/1064 242/1065
f 242/1066 241/1067 243/1068
f 241/1069 4/1070 3/1071
f 3/1072 243/1073 241/1074
f 93/1075 9/1076 4/1077
f 4/1078 241/1079 93/1080
f 245/1081 246/1082 120/1083
f 120/1084 119/1085 245/1086
f 247/1087 248/1088 246/1089
f 246/1090 245/1091 247/1092
f 245/1093 249/1094 250/1095
f 250/1096 247/1097 245/1098
f 119/1099 121/1100 249/1101
f 249/1102 245/1103 119/1104
f 251/1105 249/1106 121/1107
f 121/1108 124/1109 251/1110
f 252/1111 250/1112 249/1113
f 249/1114 251/1115 252/1116
f 251/1117 234/1118 236/1119
f 236/1120 252/1121 251/1122
f 124/1123 26/1124 234/1125
f 234/1126 251/1127 124/1128
f 253/1129 254/1130 132/1131
f 132/1132 131/1133 253/1134
f 142/1135 144/1136 254/1137
f 254/1138 253/1139 142/1140
f 253/1141 22/1142 21/1143
f 21/1144 142/1145 253/1146
f 131/1147 27/1148 22/1149
f 22/1150 253/1151 131/1152
f 255/1153 256/1154 15/1155
f 15/1156 14/1157 255/1158
f 2/1159 6/1160 256/1161
f 256/1162 255/1163 2/1164
f 255/1165 257/1166 3/1167
f 3/1168 2/1169 255/1170
f 14/1171 17/1172 257/1173
f 257/1174 255/1175 14/1176
f 258/1177 259/1178 18/1179
f 18/1180 13/1181 258/1182
f 235/1183 127/1184 259/1185
f 259/1186 258/1187 235/1188
f 258/1189 260/1190 236/1191
f 236/1192 235/1193 258/1194
f 13/1195 12/1196 260/1197
f 260/1198 258/1199 13/1200
f 261/1201 262/1202 100/1203
f 100/1204 99/1205 261/1206
f 77/1207 81/1208 262/1209
f 262/1210 261/1211 77/1212
f 261/1213 263/1214 78/1215
f 78/1216 77/1217 261/1218
f 99/1219 102/1220 263/1221
f 263/1222 261/1223 99/1224
f 264/1225 265/1226 103/1227
f 103/1228 98/1229 264/1230
f 247/1231 250/1232 265/1233
f 265/1234 264/1235 247/1236
f 264/1237 266/1238 248/1239
f 248/1240 247/1241 264/1242
f 98/1243 97/1244 266/1245
f 266/1246 264/1247 98/1248
f 267/1249 263/1250 102/1251
f 102/1252 106/1253 267/1254
f 86/1255 78/1256 263/1257
f 263/1258 267/1259 86/1260
f 267/1261 256/1262 6/1263
f 6/1264 86/1265 267/1266
f 106/1267 15/1268 256/1269
f 256/1270 267/1271 106/1272
f 268/1273 260/1274 12/1275
f 12/1276 105/1277 268/1278
f 252/1279 236/1280 260/1281
f 260/1282 268/1283 252/1284
f 268/1285 265/1286 250/1287
f 250/1288 252/1289 268/1290
f 105/1291 103/1292 265/1293
f 265/1294 268/1295 105/1296
f 269/1297 270/1298 112/1299
f 112/1300 111/1301 269/1302
f 126/1303 130/1304 270/1305
f 270/1306 269/1307 126/1308
f 269/1309 259/1310 127/1311
f 127/1312 126/1313 269/1314
f 111/1315 18/1316 259/1317
f 259/1318 269/1319 111/1320
f 271/1321 257/1322 17/1323
f 17/1324 110/1325 271/1326
f 243/1327 3/1328 257/1329
f 257/1330 271/1331 243/1332
f 271/1333 272/1334 244/1335
f 244/1336 243/1337 271/1338
f 110/1339 109/1340 272/1341
f 272/1342 271/1343 110/1344
f 273/1345 274/1346 47/1347
f 47/1348 46/1349 273/1350
f 35/1351 39/1352 274/1353
f 274/1354 273/1355 35/1356
f 273/1357 172/1358 36/1359
f 36/1360 35/1361 273/1362
f 46/1363 48/1364 172/1365
f 172/1366 273/1367 46/1368
f 275/1369 276/1370 62/1371
f 62/1372 61/1373 275/1374
f 50/1375 54/1376 276/1377
f 276/1378 275/1379 50/1380
f 275/1381 203/1382 51/1383
f 51/1384 50/1385 275/1386
f 61/1387 63/1388 203/1389
f 203/1390 275/1391 61/1392
f 277/1393 278/1394 166/1395
f 166/1396 165/1397 277/1398
f 148/1399 152/1400 278/1401
f 278/1402 277/1403 148/1404
f 277/1405 279/1406 149/1407
f 149/1408 148/1409 277/1410
f 165/1411 167/1412 279/1413
f 279/1414 277/1415 165/1416
f 280/1417 279/1418 167/1419
f 167/1420 170/1421 280/1422
f 154/1423 149/1424 279/1425
f 279/1426 280/1427 154/1428
f 280/1429 274/1430 39/1431
f 39/1432 154/1433 280/1434
f 170/1435 47/1436 274/1437
f 274/1438 280/1439 170/1440
f 281/1441 282/1442 175/1443
f 175/1444 174/1445 281/1446
f 185/1447 187/1448 282/1449
f 282/1450 281/1451 185/1452
f 281/1453 43/1454 42/1455
f 42/1456 185/1457 281/1458
f 174/1459 48/1460 43/1461
f 43/1462 281/1463 174/1464
f 283/1465 284/1466 197/1467
f 197/1468 196/1469 283/1470
f 177/1471 181/1472 284/1473
f 284/1474 283/1475 177/1476
f 283/1477 285/1478 178/1479
f 178/1480 177/1481 283/1482
f 196/1483 198/1484 285/1485
f 285/1486 283/1487 196/1488
f 286/1489 285/1490 198/1491
f 198/1492 201/1493 286/1494
f 183/1495 178/1496 285/1497
f 285/1498 286/1499 183/1500
f 286/1501 276/1502 54/1503
f 54/1504 183/1505 286/1506
f 201/1507 62/1508 276/1509
f 276/1510 286/1511 201/1512
f 287/1513 288/1514 206/1515
f 206/1516 205/1517 287/1518
f 216/1519 218/1520 288/1521
f 288/1522 287/1523 216/1524
f 287/1525 58/1526 57/1527
f 57/1528 216/1529 287/1530
f 205/1531 63/1532 58/1533
f 58/1534 287/1535 205/1536
