# USD → MuJoCo (world-space)
v -0.027782 0.076950 0.108758
v -0.027782 -0.075444 0.108758
v -0.027782 -0.075444 -0.110175
v -0.027782 0.076950 -0.110175
v -0.057489 -0.075444 0.108758
v -0.057489 0.076950 0.108758
v -0.057489 0.076950 -0.110176
v -0.057489 -0.075444 -0.110175
v -0.032521 -0.080216 0.108758
v -0.052749 -0.080216 0.108758
v -0.052749 -0.080216 -0.110175
v -0.032521 -0.080216 -0.110175
v -0.029416 -0.074252 0.108758
v -0.029416 0.076950 0.108758
v -0.029416 0.076950 -0.110176
v -0.029416 -0.074252 -0.110175
v -0.055855 0.076950 0.108758
v -0.055855 -0.074252 0.108758
v -0.055855 -0.074252 -0.110175
v -0.055855 0.076950 -0.110175
v -0.051463 -0.078999 0.108758
v -0.033808 -0.078999 0.108758
v -0.033808 -0.078999 -0.110175
v -0.051463 -0.078999 -0.110175
v -0.029072 -0.074503 -0.111355
v -0.029072 0.076950 -0.111355
v -0.028125 0.076950 -0.111355
v -0.028125 -0.075193 -0.111355
v -0.029072 0.080216 -0.110176
v -0.029072 0.080216 0.108758
v -0.028125 0.080216 0.108758
v -0.028125 0.080216 -0.110175
v -0.029072 0.076950 0.109938
v -0.029072 -0.074503 0.109938
v -0.028125 -0.075193 0.109938
v -0.028125 0.076950 0.109938
v -0.056199 0.076950 -0.111355
v -0.056199 -0.074503 -0.111355
v -0.057145 -0.075193 -0.111355
v -0.057145 0.076950 -0.111355
v -0.056199 -0.074503 0.109938
v -0.056199 0.076950 0.109938
v -0.057145 0.076950 0.109938
v -0.057145 -0.075193 0.109938
v -0.056199 0.080216 0.108758
v -0.056199 0.080216 -0.110175
v -0.057145 0.080216 -0.110176
v -0.057145 0.080216 0.108758
v -0.051733 -0.079255 -0.111355
v -0.033537 -0.079255 -0.111355
v -0.032792 -0.079960 -0.111355
v -0.052478 -0.079960 -0.111355
v -0.033537 -0.079255 0.109938
v -0.051733 -0.079255 0.109938
v -0.052478 -0.079960 0.109938
v -0.032792 -0.079960 0.109938
v -0.028004 -0.079552 -0.110175
v -0.027782 -0.078722 -0.110175
v -0.027782 -0.078722 0.108758
v -0.028004 -0.079552 0.108758
v -0.057266 -0.079552 0.108758
v -0.057489 -0.078722 0.108758
v -0.057489 -0.078722 -0.110175
v -0.057266 -0.079552 -0.110175
v -0.029638 -0.078335 0.108758
v -0.029416 -0.077505 0.108758
v -0.029416 -0.077505 -0.110175
v -0.029638 -0.078335 -0.110175
v -0.055632 -0.078335 -0.110175
v -0.055855 -0.077505 -0.110175
v -0.055855 -0.077505 0.108758
v -0.055632 -0.078335 0.108758
v -0.029294 -0.078591 -0.111355
v -0.029072 -0.077761 -0.111355
v -0.028125 -0.078466 -0.111355
v -0.028348 -0.079296 -0.111355
v -0.029294 -0.078591 0.109938
v -0.028348 -0.079296 0.109938
v -0.028125 -0.078466 0.109938
v -0.029072 -0.077761 0.109938
v -0.055976 -0.078591 -0.111355
v -0.056922 -0.079296 -0.111355
v -0.057145 -0.078466 -0.111355
v -0.056199 -0.077761 -0.111355
v -0.055976 -0.078591 0.109938
v -0.056199 -0.077761 0.109938
v -0.057145 -0.078466 0.109938
v -0.056922 -0.079296 0.109938
v -0.028673 -0.080050 -0.110175
v -0.028673 -0.080050 0.108758
v -0.029787 -0.080216 -0.110175
v -0.029787 -0.080216 0.108758
v -0.056598 -0.080050 0.108758
v -0.056598 -0.080050 -0.110175
v -0.055484 -0.080216 0.108758
v -0.055484 -0.080216 -0.110175
v -0.030307 -0.078833 0.108758
v -0.030307 -0.078833 -0.110175
v -0.031421 -0.078999 0.108758
v -0.031421 -0.078999 -0.110175
v -0.054964 -0.078833 -0.110175
v -0.054964 -0.078833 0.108758
v -0.053850 -0.078999 -0.110175
v -0.053850 -0.078999 0.108758
v -0.029963 -0.079089 -0.111355
v -0.029017 -0.079794 -0.111355
v -0.030131 -0.079960 -0.111355
v -0.031077 -0.079255 -0.111355
v -0.029017 -0.079794 0.109938
v -0.029963 -0.079089 0.109938
v -0.030131 -0.079960 0.109938
v -0.031077 -0.079255 0.109938
v -0.056254 -0.079794 -0.111355
v -0.055308 -0.079089 -0.111355
v -0.055140 -0.079960 -0.111355
v -0.054194 -0.079255 -0.111355
v -0.055308 -0.079089 0.109938
v -0.056254 -0.079794 0.109938
v -0.055140 -0.079960 0.109938
v -0.054194 -0.079255 0.109938
v -0.027782 0.079127 0.108758
v -0.027782 0.079127 -0.110175
v -0.057489 0.079127 -0.110176
v -0.057489 0.079127 0.108758
v -0.029416 0.079127 -0.110176
v -0.029416 0.079127 0.108758
v -0.055855 0.079127 0.108758
v -0.055855 0.079127 -0.110175
v -0.028125 0.079127 -0.111355
v -0.029072 0.079127 -0.111355
v -0.029072 0.079127 0.109938
v -0.028125 0.079127 0.109938
v -0.056199 0.079127 -0.111355
v -0.057145 0.079127 -0.111355
v -0.057145 0.079127 0.109938
v -0.056199 0.079127 0.109938
v -0.027782 0.080216 0.108758
v -0.027782 0.080216 -0.110175
v -0.057489 0.080216 -0.110176
v -0.057489 0.080216 0.108758
v -0.029416 0.080216 -0.110176
v -0.029416 0.080216 0.108758
v -0.055855 0.080216 0.108758
v -0.055855 0.080216 -0.110175
v -0.028125 0.080216 -0.111355
v -0.029072 0.080216 -0.111355
v -0.029072 0.080216 0.109938
v -0.028125 0.080216 0.109938
v -0.056199 0.080216 -0.111355
v -0.057145 0.080216 -0.111355
v -0.057145 0.080216 0.109938
v -0.056199 0.080216 0.109938
v -0.027782 0.076950 0.109938
v -0.027782 -0.075444 0.109938
v -0.027782 -0.075444 0.109676
v -0.027782 0.076950 0.109676
v -0.027782 -0.075444 -0.111355
v -0.027782 0.076950 -0.111355
v -0.027782 0.076950 -0.111094
v -0.027782 -0.075444 -0.111094
v -0.057489 -0.075444 0.109938
v -0.057489 0.076950 0.109938
v -0.057489 0.076950 0.109676
v -0.057489 -0.075444 0.109676
v -0.057489 0.076950 -0.111355
v -0.057489 -0.075444 -0.111355
v -0.057489 -0.075444 -0.111094
v -0.057489 0.076950 -0.111094
v -0.032521 -0.080216 0.109938
v -0.052749 -0.080216 0.109938
v -0.052749 -0.080216 0.109676
v -0.032521 -0.080216 0.109676
v -0.052749 -0.080216 -0.111355
v -0.032521 -0.080216 -0.111355
v -0.032521 -0.080216 -0.111094
v -0.052749 -0.080216 -0.111094
v -0.029416 -0.074252 0.109938
v -0.029416 0.076950 0.109938
v -0.029416 0.076950 0.109676
v -0.029416 -0.074252 0.109676
v -0.029416 0.076950 -0.111355
v -0.029416 -0.074252 -0.111355
v -0.029416 -0.074252 -0.111094
v -0.029416 0.076950 -0.111094
v -0.055855 0.076950 0.109938
v -0.055855 -0.074252 0.109938
v -0.055855 -0.074252 0.109676
v -0.055855 0.076950 0.109676
v -0.055855 -0.074252 -0.111355
v -0.055855 0.076950 -0.111355
v -0.055855 0.076950 -0.111094
v -0.055855 -0.074252 -0.111094
v -0.051463 -0.078999 0.109938
v -0.033808 -0.078999 0.109938
v -0.033808 -0.078999 0.109676
v -0.051463 -0.078999 0.109676
v -0.033808 -0.078999 -0.111355
v -0.051463 -0.078999 -0.111355
v -0.051463 -0.078999 -0.111094
v -0.033808 -0.078999 -0.111094
v -0.029072 0.080216 -0.111094
v -0.028125 0.080216 -0.111094
v -0.028125 0.080216 0.109676
v -0.029072 0.080216 0.109676
v -0.056199 0.080216 0.109676
v -0.057145 0.080216 0.109676
v -0.057145 0.080216 -0.111094
v -0.056199 0.080216 -0.111094
v -0.028004 -0.079552 -0.111355
v -0.027782 -0.078722 -0.111355
v -0.027782 -0.078722 -0.111094
v -0.028004 -0.079552 -0.111094
v -0.027782 -0.078722 0.109938
v -0.028004 -0.079552 0.109938
v -0.028004 -0.079552 0.109676
v -0.027782 -0.078722 0.109676
v -0.057266 -0.079552 0.109938
v -0.057489 -0.078722 0.109938
v -0.057489 -0.078722 0.109676
v -0.057266 -0.079552 0.109676
v -0.057489 -0.078722 -0.111355
v -0.057266 -0.079552 -0.111355
v -0.057266 -0.079552 -0.111094
v -0.057489 -0.078722 -0.111094
v -0.029638 -0.078335 0.109938
v -0.029416 -0.077505 0.109938
v -0.029416 -0.077505 0.109676
v -0.029638 -0.078335 0.109676
v -0.029416 -0.077505 -0.111355
v -0.029638 -0.078335 -0.111355
v -0.029638 -0.078335 -0.111094
v -0.029416 -0.077505 -0.111094
v -0.055632 -0.078335 -0.111355
v -0.055855 -0.077505 -0.111355
v -0.055855 -0.077505 -0.111094
v -0.055632 -0.078335 -0.111094
v -0.055855 -0.077505 0.109938
v -0.055632 -0.078335 0.109938
v -0.055632 -0.078335 0.109676
v -0.055855 -0.077505 0.109676
v -0.028673 -0.080050 -0.111355
v -0.028673 -0.080050 -0.111094
v -0.028673 -0.080050 0.109938
v -0.028673 -0.080050 0.109676
v -0.029787 -0.080216 -0.111355
v -0.029787 -0.080216 -0.111094
v -0.029787 -0.080216 0.109938
v -0.029787 -0.080216 0.109676
v -0.056598 -0.080050 0.109938
v -0.056598 -0.080050 0.109676
v -0.056598 -0.080050 -0.111355
v -0.056598 -0.080050 -0.111094
v -0.055484 -0.080216 0.109938
v -0.055484 -0.080216 0.109676
v -0.055484 -0.080216 -0.111355
v -0.055484 -0.080216 -0.111094
v -0.030307 -0.078833 0.109938
v -0.030307 -0.078833 0.109676
v -0.030307 -0.078833 -0.111355
v -0.030307 -0.078833 -0.111094
v -0.031421 -0.078999 0.109938
v -0.031421 -0.078999 0.109676
v -0.031421 -0.078999 -0.111355
v -0.031421 -0.078999 -0.111094
v -0.054964 -0.078833 -0.111355
v -0.054964 -0.078833 -0.111094
v -0.054964 -0.078833 0.109938
v -0.054964 -0.078833 0.109676
v -0.053850 -0.078999 -0.111355
v -0.053850 -0.078999 -0.111094
v -0.053850 -0.078999 0.109938
v -0.053850 -0.078999 0.109676
v -0.027782 0.079127 0.109938
v -0.027782 0.079127 0.109676
v -0.027782 0.079127 -0.111355
v -0.027782 0.079127 -0.111094
v -0.057489 0.079127 -0.111355
v -0.057489 0.079127 -0.111094
v -0.057489 0.079127 0.109938
v -0.057489 0.079127 0.109676
v -0.029416 0.079127 -0.111355
v -0.029416 0.079127 -0.111094
v -0.029416 0.079127 0.109938
v -0.029416 0.079127 0.109676
v -0.055855 0.079127 0.109938
v -0.055855 0.079127 0.109676
v -0.055855 0.079127 -0.111355
v -0.055855 0.079127 -0.111094
v -0.027782 0.080216 0.109938
v -0.027782 0.080216 0.109676
v -0.027782 0.080216 -0.111355
v -0.027782 0.080216 -0.111094
v -0.057489 0.080216 -0.111355
v -0.057489 0.080216 -0.111094
v -0.057489 0.080216 0.109938
v -0.057489 0.080216 0.109676
v -0.029416 0.080216 -0.111355
v -0.029416 0.080216 -0.111094
v -0.029416 0.080216 0.109938
v -0.029416 0.080216 0.109676
v -0.055855 0.080216 0.109938
v -0.055855 0.080216 0.109676
v -0.055855 0.080216 -0.111355
v -0.055855 0.080216 -0.111094
vt 0.961584 0.641815
vt 0.961584 0.628443
vt 0.970955 0.628443
vt 0.970955 0.628443
vt 0.970955 0.641815
vt 0.961584 0.641815
vt 0.971081 0.641910
vt 0.971081 0.628538
vt 0.980452 0.628538
vt 0.980452 0.628538
vt 0.980452 0.641910
vt 0.971081 0.641910
vt 0.514755 0.642465
vt 0.514755 0.606686
vt 0.993028 0.606686
vt 0.993028 0.606686
vt 0.993028 0.642465
vt 0.514755 0.642465
vt 0.975533 0.627752
vt 0.969219 0.627752
vt 0.969219 0.608061
vt 0.969219 0.608061
vt 0.975533 0.608061
vt 0.975533 0.627752
vt 0.968912 0.627752
vt 0.962597 0.627752
vt 0.962597 0.608061
vt 0.962597 0.608061
vt 0.968912 0.608061
vt 0.968912 0.627752
vt 0.962062 0.627851
vt 0.961511 0.627851
vt 0.961511 0.608061
vt 0.961511 0.608061
vt 0.962062 0.608061
vt 0.962062 0.627851
vt 0.961303 0.621576
vt 0.961303 0.608241
vt 0.961340 0.608241
vt 0.961340 0.608241
vt 0.961340 0.621576
vt 0.961303 0.621576
vt 0.962274 0.627807
vt 0.962274 0.608061
vt 0.962304 0.608061
vt 0.962304 0.608061
vt 0.962304 0.627807
vt 0.962274 0.627807
vt 0.961222 0.637650
vt 0.961222 0.624316
vt 0.961259 0.624316
vt 0.961259 0.624316
vt 0.961259 0.637650
vt 0.961222 0.637650
vt 0.961303 0.637479
vt 0.961303 0.624145
vt 0.961340 0.624145
vt 0.961340 0.624145
vt 0.961340 0.637479
vt 0.961303 0.637479
vt 0.961222 0.621746
vt 0.961222 0.608412
vt 0.961259 0.608412
vt 0.961259 0.608412
vt 0.961259 0.621746
vt 0.961222 0.621746
vt 0.962356 0.627807
vt 0.962356 0.608061
vt 0.962385 0.608061
vt 0.962385 0.608061
vt 0.962385 0.627807
vt 0.962356 0.627807
vt 0.961303 0.623480
vt 0.961303 0.622241
vt 0.961340 0.622241
vt 0.961340 0.622241
vt 0.961340 0.623480
vt 0.961303 0.623480
vt 0.961222 0.623651
vt 0.961222 0.622411
vt 0.961259 0.622411
vt 0.961259 0.622411
vt 0.961259 0.623651
vt 0.961222 0.623651
vt 0.970955 0.628081
vt 0.970955 0.628155
vt 0.961584 0.628155
vt 0.961584 0.628155
vt 0.961584 0.628081
vt 0.970955 0.628081
vt 0.971081 0.642272
vt 0.971081 0.642198
vt 0.980452 0.642198
vt 0.980452 0.642198
vt 0.980452 0.642272
vt 0.971081 0.642272
vt 0.975704 0.627752
vt 0.975669 0.627752
vt 0.975669 0.608061
vt 0.975669 0.608061
vt 0.975704 0.608061
vt 0.975704 0.627752
vt 0.962426 0.608061
vt 0.962461 0.608061
vt 0.962461 0.627752
vt 0.962461 0.627752
vt 0.962426 0.627752
vt 0.962426 0.608061
vt 0.961303 0.621937
vt 0.961303 0.621863
vt 0.961340 0.621863
vt 0.961340 0.621863
vt 0.961340 0.621937
vt 0.961303 0.621937
vt 0.961222 0.623954
vt 0.961259 0.623954
vt 0.961259 0.624029
vt 0.961259 0.624029
vt 0.961222 0.624029
vt 0.961222 0.623954
vt 0.961303 0.623784
vt 0.961340 0.623784
vt 0.961340 0.623858
vt 0.961340 0.623858
vt 0.961303 0.623858
vt 0.961303 0.623784
vt 0.961222 0.622108
vt 0.961222 0.622033
vt 0.961259 0.622033
vt 0.961259 0.622033
vt 0.961259 0.622108
vt 0.961222 0.622108
vt 0.993028 0.649312
vt 0.993028 0.650984
vt 0.514755 0.650984
vt 0.514755 0.650984
vt 0.514755 0.649312
vt 0.993028 0.649312
vt 0.993028 0.647303
vt 0.993028 0.649312
vt 0.514755 0.649312
vt 0.514755 0.649312
vt 0.514755 0.647303
vt 0.993028 0.647303
vt 0.514755 0.599839
vt 0.514755 0.598167
vt 0.993028 0.598167
vt 0.993028 0.598167
vt 0.993028 0.599839
vt 0.514755 0.599839
vt 0.514755 0.601848
vt 0.514755 0.599839
vt 0.993028 0.599839
vt 0.993028 0.599839
vt 0.993028 0.601848
vt 0.514755 0.601848
vt 0.961400 0.627851
vt 0.961371 0.627851
vt 0.961371 0.608061
vt 0.961371 0.608061
vt 0.961400 0.608061
vt 0.961400 0.627851
vt 0.961436 0.627851
vt 0.961400 0.627851
vt 0.961400 0.608061
vt 0.961400 0.608061
vt 0.961436 0.608061
vt 0.961436 0.627851
vt 0.962173 0.608061
vt 0.962202 0.608061
vt 0.962202 0.627851
vt 0.962202 0.627851
vt 0.962173 0.627851
vt 0.962173 0.608061
vt 0.962137 0.608061
vt 0.962173 0.608061
vt 0.962173 0.627851
vt 0.962173 0.627851
vt 0.962137 0.627851
vt 0.962137 0.608061
vt 0.961303 0.621999
vt 0.961303 0.621937
vt 0.961340 0.621937
vt 0.961340 0.621937
vt 0.961340 0.621999
vt 0.961303 0.621999
vt 0.961340 0.622073
vt 0.961303 0.622073
vt 0.961303 0.621999
vt 0.961303 0.621999
vt 0.961340 0.621999
vt 0.961340 0.622073
vt 0.961259 0.623893
vt 0.961259 0.623954
vt 0.961222 0.623954
vt 0.961222 0.623954
vt 0.961222 0.623893
vt 0.961259 0.623893
vt 0.961259 0.623818
vt 0.961259 0.623893
vt 0.961222 0.623893
vt 0.961222 0.623893
vt 0.961222 0.623818
vt 0.961259 0.623818
vt 0.961340 0.623722
vt 0.961340 0.623784
vt 0.961303 0.623784
vt 0.961303 0.623784
vt 0.961303 0.623722
vt 0.961340 0.623722
vt 0.961340 0.623648
vt 0.961340 0.623722
vt 0.961303 0.623722
vt 0.961303 0.623722
vt 0.961303 0.623648
vt 0.961340 0.623648
vt 0.961222 0.622169
vt 0.961222 0.622108
vt 0.961259 0.622108
vt 0.961259 0.622108
vt 0.961259 0.622169
vt 0.961222 0.622169
vt 0.961259 0.622244
vt 0.961222 0.622244
vt 0.961222 0.622169
vt 0.961222 0.622169
vt 0.961259 0.622169
vt 0.961259 0.622244
vt 0.514755 0.647303
vt 0.514755 0.642465
vt 0.993028 0.642465
vt 0.993028 0.642465
vt 0.993028 0.647303
vt 0.514755 0.647303
vt 0.993028 0.601848
vt 0.993028 0.606686
vt 0.514755 0.606686
vt 0.514755 0.606686
vt 0.514755 0.601848
vt 0.993028 0.601848
vt 0.962137 0.627851
vt 0.962062 0.627851
vt 0.962062 0.608061
vt 0.962062 0.608061
vt 0.962137 0.608061
vt 0.962137 0.627851
vt 0.961436 0.608061
vt 0.961511 0.608061
vt 0.961511 0.627851
vt 0.961511 0.627851
vt 0.961436 0.627851
vt 0.961436 0.608061
vt 0.961303 0.623648
vt 0.961303 0.623480
vt 0.961340 0.623480
vt 0.961340 0.623480
vt 0.961340 0.623648
vt 0.961303 0.623648
vt 0.961303 0.622073
vt 0.961340 0.622073
vt 0.961340 0.622241
vt 0.961340 0.622241
vt 0.961303 0.622241
vt 0.961303 0.622073
vt 0.961222 0.623818
vt 0.961222 0.623651
vt 0.961259 0.623651
vt 0.961259 0.623651
vt 0.961259 0.623818
vt 0.961222 0.623818
vt 0.961222 0.622244
vt 0.961259 0.622244
vt 0.961259 0.622411
vt 0.961259 0.622411
vt 0.961222 0.622411
vt 0.961222 0.622244
vt 0.961584 0.642006
vt 0.961584 0.641815
vt 0.970955 0.641815
vt 0.970955 0.641815
vt 0.970955 0.642006
vt 0.961584 0.642006
vt 0.970955 0.628155
vt 0.970955 0.628443
vt 0.961584 0.628443
vt 0.961584 0.628443
vt 0.961584 0.628155
vt 0.970955 0.628155
vt 0.971081 0.642198
vt 0.971081 0.641910
vt 0.980452 0.641910
vt 0.980452 0.641910
vt 0.980452 0.642198
vt 0.971081 0.642198
vt 0.980452 0.628347
vt 0.980452 0.628538
vt 0.971081 0.628538
vt 0.971081 0.628538
vt 0.971081 0.628347
vt 0.980452 0.628347
vt 0.975669 0.627752
vt 0.975533 0.627752
vt 0.975533 0.608061
vt 0.975533 0.608061
vt 0.975669 0.608061
vt 0.975669 0.627752
vt 0.969128 0.608061
vt 0.969219 0.608061
vt 0.969219 0.627752
vt 0.969219 0.627752
vt 0.969128 0.627752
vt 0.969128 0.608061
vt 0.969003 0.627752
vt 0.968912 0.627752
vt 0.968912 0.608061
vt 0.968912 0.608061
vt 0.969003 0.608061
vt 0.969003 0.627752
vt 0.962461 0.608061
vt 0.962597 0.608061
vt 0.962597 0.627752
vt 0.962597 0.627752
vt 0.962461 0.627752
vt 0.962461 0.608061
vt 0.961303 0.621863
vt 0.961303 0.621576
vt 0.961340 0.621576
vt 0.961340 0.621576
vt 0.961340 0.621863
vt 0.961303 0.621863
vt 0.961340 0.608050
vt 0.961340 0.608241
vt 0.961303 0.608241
vt 0.961303 0.608241
vt 0.961303 0.608050
vt 0.961340 0.608050
vt 0.961222 0.637841
vt 0.961222 0.637650
vt 0.961259 0.637650
vt 0.961259 0.637650
vt 0.961259 0.637841
vt 0.961222 0.637841
vt 0.961222 0.624029
vt 0.961259 0.624029
vt 0.961259 0.624316
vt 0.961259 0.624316
vt 0.961222 0.624316
vt 0.961222 0.624029
vt 0.961303 0.637671
vt 0.961303 0.637479
vt 0.961340 0.637479
vt 0.961340 0.637479
vt 0.961340 0.637671
vt 0.961303 0.637671
vt 0.961303 0.623858
vt 0.961340 0.623858
vt 0.961340 0.624145
vt 0.961340 0.624145
vt 0.961303 0.624145
vt 0.961303 0.623858
vt 0.961222 0.622033
vt 0.961222 0.621746
vt 0.961259 0.621746
vt 0.961259 0.621746
vt 0.961259 0.622033
vt 0.961222 0.622033
vt 0.961259 0.608221
vt 0.961259 0.608412
vt 0.961222 0.608412
vt 0.961222 0.608412
vt 0.961222 0.608221
vt 0.961259 0.608221
vt 0.961584 0.642102
vt 0.961584 0.642006
vt 0.970955 0.642006
vt 0.970955 0.642006
vt 0.970955 0.642102
vt 0.961584 0.642102
vt 0.980452 0.628251
vt 0.980452 0.628347
vt 0.971081 0.628347
vt 0.971081 0.628347
vt 0.971081 0.628251
vt 0.980452 0.628251
vt 0.969082 0.608061
vt 0.969128 0.608061
vt 0.969128 0.627752
vt 0.969128 0.627752
vt 0.969082 0.627752
vt 0.969082 0.608061
vt 0.969048 0.627752
vt 0.969003 0.627752
vt 0.969003 0.608061
vt 0.969003 0.608061
vt 0.969048 0.608061
vt 0.969048 0.627752
vt 0.961340 0.607955
vt 0.961340 0.608050
vt 0.961303 0.608050
vt 0.961303 0.608050
vt 0.961303 0.607955
vt 0.961340 0.607955
vt 0.961222 0.637937
vt 0.961222 0.637841
vt 0.961259 0.637841
vt 0.961259 0.637841
vt 0.961259 0.637937
vt 0.961222 0.637937
vt 0.961303 0.637766
vt 0.961303 0.637671
vt 0.961340 0.637671
vt 0.961340 0.637671
vt 0.961340 0.637766
vt 0.961303 0.637766
vt 0.961259 0.608125
vt 0.961259 0.608221
vt 0.961222 0.608221
vt 0.961222 0.608221
vt 0.961222 0.608125
vt 0.961259 0.608125
vt 0.961533 0.641815
vt 0.961533 0.628443
vt 0.961544 0.628443
vt 0.961544 0.628443
vt 0.961544 0.641815
vt 0.961533 0.641815
vt 0.971005 0.628443
vt 0.971005 0.641815
vt 0.970994 0.641815
vt 0.970994 0.641815
vt 0.970994 0.628443
vt 0.971005 0.628443
vt 0.971030 0.641910
vt 0.971030 0.628538
vt 0.971041 0.628538
vt 0.971041 0.628538
vt 0.971041 0.641910
vt 0.971030 0.641910
vt 0.980503 0.628538
vt 0.980503 0.641910
vt 0.980491 0.641910
vt 0.980491 0.641910
vt 0.980491 0.628538
vt 0.980503 0.628538
vt 0.512179 0.642465
vt 0.512179 0.606686
vt 0.512750 0.606686
vt 0.512750 0.606686
vt 0.512750 0.642465
vt 0.512179 0.642465
vt 0.995604 0.606686
vt 0.995604 0.642465
vt 0.995033 0.642465
vt 0.995033 0.642465
vt 0.995033 0.606686
vt 0.995604 0.606686
vt 0.975533 0.627858
vt 0.969219 0.627858
vt 0.969219 0.627835
vt 0.969219 0.627835
vt 0.975533 0.627835
vt 0.975533 0.627858
vt 0.969219 0.607955
vt 0.975533 0.607955
vt 0.975533 0.607978
vt 0.975533 0.607978
vt 0.969219 0.607978
vt 0.969219 0.607955
vt 0.968912 0.627858
vt 0.962597 0.627858
vt 0.962597 0.627835
vt 0.962597 0.627835
vt 0.968912 0.627835
vt 0.968912 0.627858
vt 0.962597 0.607955
vt 0.968912 0.607955
vt 0.968912 0.607978
vt 0.968912 0.607978
vt 0.962597 0.607978
vt 0.962597 0.607955
vt 0.962062 0.627958
vt 0.961511 0.627958
vt 0.961511 0.627934
vt 0.961511 0.627934
vt 0.962062 0.627934
vt 0.962062 0.627958
vt 0.961511 0.607955
vt 0.962062 0.607955
vt 0.962062 0.607978
vt 0.962062 0.607978
vt 0.961511 0.607978
vt 0.961511 0.607955
vt 0.962274 0.627913
vt 0.962274 0.627889
vt 0.962304 0.627889
vt 0.962304 0.627889
vt 0.962304 0.627913
vt 0.962274 0.627913
vt 0.962304 0.607955
vt 0.962304 0.607978
vt 0.962274 0.607978
vt 0.962274 0.607978
vt 0.962274 0.607955
vt 0.962304 0.607955
vt 0.962356 0.627913
vt 0.962356 0.627889
vt 0.962385 0.627889
vt 0.962385 0.627889
vt 0.962385 0.627913
vt 0.962356 0.627913
vt 0.962385 0.607955
vt 0.962385 0.607978
vt 0.962356 0.607978
vt 0.962356 0.607978
vt 0.962356 0.607955
vt 0.962385 0.607955
vt 0.971005 0.628081
vt 0.971005 0.628155
vt 0.970994 0.628155
vt 0.970994 0.628155
vt 0.970994 0.628081
vt 0.971005 0.628081
vt 0.961533 0.628155
vt 0.961533 0.628081
vt 0.961544 0.628081
vt 0.961544 0.628081
vt 0.961544 0.628155
vt 0.961533 0.628155
vt 0.971030 0.642272
vt 0.971030 0.642198
vt 0.971041 0.642198
vt 0.971041 0.642198
vt 0.971041 0.642272
vt 0.971030 0.642272
vt 0.980503 0.642198
vt 0.980503 0.642272
vt 0.980491 0.642272
vt 0.980491 0.642272
vt 0.980491 0.642198
vt 0.980503 0.642198
vt 0.975704 0.627858
vt 0.975669 0.627858
vt 0.975669 0.627835
vt 0.975669 0.627835
vt 0.975704 0.627835
vt 0.975704 0.627858
vt 0.975669 0.607955
vt 0.975704 0.607955
vt 0.975704 0.607978
vt 0.975704 0.607978
vt 0.975669 0.607978
vt 0.975669 0.607955
vt 0.962426 0.607955
vt 0.962461 0.607955
vt 0.962461 0.607978
vt 0.962461 0.607978
vt 0.962426 0.607978
vt 0.962426 0.607955
vt 0.962461 0.627858
vt 0.962426 0.627858
vt 0.962426 0.627835
vt 0.962426 0.627835
vt 0.962461 0.627835
vt 0.962461 0.627858
vt 0.995604 0.649312
vt 0.995604 0.650984
vt 0.995033 0.650984
vt 0.995033 0.650984
vt 0.995033 0.649312
vt 0.995604 0.649312
vt 0.512179 0.650984
vt 0.512179 0.649312
vt 0.512750 0.649312
vt 0.512750 0.649312
vt 0.512750 0.650984
vt 0.512179 0.650984
vt 0.995604 0.647303
vt 0.995604 0.649312
vt 0.995033 0.649312
vt 0.995033 0.649312
vt 0.995033 0.647303
vt 0.995604 0.647303
vt 0.512179 0.649312
vt 0.512179 0.647303
vt 0.512750 0.647303
vt 0.512750 0.647303
vt 0.512750 0.649312
vt 0.512179 0.649312
vt 0.512179 0.599839
vt 0.512179 0.598167
vt 0.512750 0.598167
vt 0.512750 0.598167
vt 0.512750 0.599839
vt 0.512179 0.599839
vt 0.995604 0.598167
vt 0.995604 0.599839
vt 0.995033 0.599839
vt 0.995033 0.599839
vt 0.995033 0.598167
vt 0.995604 0.598167
vt 0.512179 0.601848
vt 0.512179 0.599839
vt 0.512750 0.599839
vt 0.512750 0.599839
vt 0.512750 0.601848
vt 0.512179 0.601848
vt 0.995604 0.599839
vt 0.995604 0.601848
vt 0.995033 0.601848
vt 0.995033 0.601848
vt 0.995033 0.599839
vt 0.995604 0.599839
vt 0.961400 0.627958
vt 0.961371 0.627958
vt 0.961371 0.627934
vt 0.961371 0.627934
vt 0.961400 0.627934
vt 0.961400 0.627958
vt 0.961371 0.607955
vt 0.961400 0.607955
vt 0.961400 0.607978
vt 0.961400 0.607978
vt 0.961371 0.607978
vt 0.961371 0.607955
vt 0.961436 0.627958
vt 0.961400 0.627958
vt 0.961400 0.627934
vt 0.961400 0.627934
vt 0.961436 0.627934
vt 0.961436 0.627958
vt 0.961400 0.607955
vt 0.961436 0.607955
vt 0.961436 0.607978
vt 0.961436 0.607978
vt 0.961400 0.607978
vt 0.961400 0.607955
vt 0.962173 0.607955
vt 0.962202 0.607955
vt 0.962202 0.607978
vt 0.962202 0.607978
vt 0.962173 0.607978
vt 0.962173 0.607955
vt 0.962202 0.627958
vt 0.962173 0.627958
vt 0.962173 0.627934
vt 0.962173 0.627934
vt 0.962202 0.627934
vt 0.962202 0.627958
vt 0.962137 0.607955
vt 0.962173 0.607955
vt 0.962173 0.607978
vt 0.962173 0.607978
vt 0.962137 0.607978
vt 0.962137 0.607955
vt 0.962173 0.627958
vt 0.962137 0.627958
vt 0.962137 0.627934
vt 0.962137 0.627934
vt 0.962173 0.627934
vt 0.962173 0.627958
vt 0.512179 0.647303
vt 0.512179 0.642465
vt 0.512750 0.642465
vt 0.512750 0.642465
vt 0.512750 0.647303
vt 0.512179 0.647303
vt 0.995604 0.642465
vt 0.995604 0.647303
vt 0.995033 0.647303
vt 0.995033 0.647303
vt 0.995033 0.642465
vt 0.995604 0.642465
vt 0.995604 0.601848
vt 0.995604 0.606686
vt 0.995033 0.606686
vt 0.995033 0.606686
vt 0.995033 0.601848
vt 0.995604 0.601848
vt 0.512179 0.606686
vt 0.512179 0.601848
vt 0.512750 0.601848
vt 0.512750 0.601848
vt 0.512750 0.606686
vt 0.512179 0.606686
vt 0.962137 0.627958
vt 0.962062 0.627958
vt 0.962062 0.627934
vt 0.962062 0.627934
vt 0.962137 0.627934
vt 0.962137 0.627958
vt 0.962062 0.607955
vt 0.962137 0.607955
vt 0.962137 0.607978
vt 0.962137 0.607978
vt 0.962062 0.607978
vt 0.962062 0.607955
vt 0.961436 0.607955
vt 0.961511 0.607955
vt 0.961511 0.607978
vt 0.961511 0.607978
vt 0.961436 0.607978
vt 0.961436 0.607955
vt 0.961511 0.627958
vt 0.961436 0.627958
vt 0.961436 0.627934
vt 0.961436 0.627934
vt 0.961511 0.627934
vt 0.961511 0.627958
vt 0.961533 0.642006
vt 0.961533 0.641815
vt 0.961544 0.641815
vt 0.961544 0.641815
vt 0.961544 0.642006
vt 0.961533 0.642006
vt 0.971005 0.641815
vt 0.971005 0.642006
vt 0.970994 0.642006
vt 0.970994 0.642006
vt 0.970994 0.641815
vt 0.971005 0.641815
vt 0.971005 0.628155
vt 0.971005 0.628443
vt 0.970994 0.628443
vt 0.970994 0.628443
vt 0.970994 0.628155
vt 0.971005 0.628155
vt 0.961533 0.628443
vt 0.961533 0.628155
vt 0.961544 0.628155
vt 0.961544 0.628155
vt 0.961544 0.628443
vt 0.961533 0.628443
vt 0.971030 0.642198
vt 0.971030 0.641910
vt 0.971041 0.641910
vt 0.971041 0.641910
vt 0.971041 0.642198
vt 0.971030 0.642198
vt 0.980503 0.641910
vt 0.980503 0.642198
vt 0.980491 0.642198
vt 0.980491 0.642198
vt 0.980491 0.641910
vt 0.980503 0.641910
vt 0.980503 0.628347
vt 0.980503 0.628538
vt 0.980491 0.628538
vt 0.980491 0.628538
vt 0.980491 0.628347
vt 0.980503 0.628347
vt 0.971030 0.628538
vt 0.971030 0.628347
vt 0.971041 0.628347
vt 0.971041 0.628347
vt 0.971041 0.628538
vt 0.971030 0.628538
vt 0.975669 0.627858
vt 0.975533 0.627858
vt 0.975533 0.627835
vt 0.975533 0.627835
vt 0.975669 0.627835
vt 0.975669 0.627858
vt 0.975533 0.607955
vt 0.975669 0.607955
vt 0.975669 0.607978
vt 0.975669 0.607978
vt 0.975533 0.607978
vt 0.975533 0.607955
vt 0.969128 0.607955
vt 0.969219 0.607955
vt 0.969219 0.607978
vt 0.969219 0.607978
vt 0.969128 0.607978
vt 0.969128 0.607955
vt 0.969219 0.627858
vt 0.969128 0.627858
vt 0.969128 0.627835
vt 0.969128 0.627835
vt 0.969219 0.627835
vt 0.969219 0.627858
vt 0.969003 0.627858
vt 0.968912 0.627858
vt 0.968912 0.627835
vt 0.968912 0.627835
vt 0.969003 0.627835
vt 0.969003 0.627858
vt 0.968912 0.607955
vt 0.969003 0.607955
vt 0.969003 0.607978
vt 0.969003 0.607978
vt 0.968912 0.607978
vt 0.968912 0.607955
vt 0.962461 0.607955
vt 0.962597 0.607955
vt 0.962597 0.607978
vt 0.962597 0.607978
vt 0.962461 0.607978
vt 0.962461 0.607955
vt 0.962597 0.627858
vt 0.962461 0.627858
vt 0.962461 0.627835
vt 0.962461 0.627835
vt 0.962597 0.627835
vt 0.962597 0.627858
vt 0.961533 0.642102
vt 0.961533 0.642006
vt 0.961544 0.642006
vt 0.961544 0.642006
vt 0.961544 0.642102
vt 0.961533 0.642102
vt 0.971005 0.642006
vt 0.971005 0.642102
vt 0.970994 0.642102
vt 0.970994 0.642102
vt 0.970994 0.642006
vt 0.971005 0.642006
vt 0.980503 0.628251
vt 0.980503 0.628347
vt 0.980491 0.628347
vt 0.980491 0.628347
vt 0.980491 0.628251
vt 0.980503 0.628251
vt 0.971030 0.628347
vt 0.971030 0.628251
vt 0.971041 0.628251
vt 0.971041 0.628251
vt 0.971041 0.628347
vt 0.971030 0.628347
vt 0.969082 0.607955
vt 0.969128 0.607955
vt 0.969128 0.607978
vt 0.969128 0.607978
vt 0.969082 0.607978
vt 0.969082 0.607955
vt 0.969128 0.627858
vt 0.969082 0.627858
vt 0.969082 0.627835
vt 0.969082 0.627835
vt 0.969128 0.627835
vt 0.969128 0.627858
vt 0.969048 0.627858
vt 0.969003 0.627858
vt 0.969003 0.627835
vt 0.969003 0.627835
vt 0.969048 0.627835
vt 0.969048 0.627858
vt 0.969003 0.607955
vt 0.969048 0.607955
vt 0.969048 0.607978
vt 0.969048 0.607978
vt 0.969003 0.607978
vt 0.969003 0.607955
vt 0.961544 0.641815
vt 0.961544 0.628443
vt 0.961584 0.628443
vt 0.961584 0.628443
vt 0.961584 0.641815
vt 0.961544 0.641815
vt 0.970994 0.628443
vt 0.970994 0.641815
vt 0.970955 0.641815
vt 0.970955 0.641815
vt 0.970955 0.628443
vt 0.970994 0.628443
vt 0.971041 0.641910
vt 0.971041 0.628538
vt 0.971081 0.628538
vt 0.971081 0.628538
vt 0.971081 0.641910
vt 0.971041 0.641910
vt 0.980491 0.628538
vt 0.980491 0.641910
vt 0.980452 0.641910
vt 0.980452 0.641910
vt 0.980452 0.628538
vt 0.980491 0.628538
vt 0.512750 0.642465
vt 0.512750 0.606686
vt 0.514755 0.606686
vt 0.514755 0.606686
vt 0.514755 0.642465
vt 0.512750 0.642465
vt 0.995033 0.606686
vt 0.995033 0.642465
vt 0.993028 0.642465
vt 0.993028 0.642465
vt 0.993028 0.606686
vt 0.995033 0.606686
vt 0.975533 0.627835
vt 0.969219 0.627835
vt 0.969219 0.627752
vt 0.969219 0.627752
vt 0.975533 0.627752
vt 0.975533 0.627835
vt 0.969219 0.607978
vt 0.975533 0.607978
vt 0.975533 0.608061
vt 0.975533 0.608061
vt 0.969219 0.608061
vt 0.969219 0.607978
vt 0.968912 0.627835
vt 0.962597 0.627835
vt 0.962597 0.627752
vt 0.962597 0.627752
vt 0.968912 0.627752
vt 0.968912 0.627835
vt 0.962597 0.607978
vt 0.968912 0.607978
vt 0.968912 0.608061
vt 0.968912 0.608061
vt 0.962597 0.608061
vt 0.962597 0.607978
vt 0.962062 0.627934
vt 0.961511 0.627934
vt 0.961511 0.627851
vt 0.961511 0.627851
vt 0.962062 0.627851
vt 0.962062 0.627934
vt 0.961511 0.607978
vt 0.962062 0.607978
vt 0.962062 0.608061
vt 0.962062 0.608061
vt 0.961511 0.608061
vt 0.961511 0.607978
vt 0.962274 0.627889
vt 0.962274 0.627807
vt 0.962304 0.627807
vt 0.962304 0.627807
vt 0.962304 0.627889
vt 0.962274 0.627889
vt 0.962304 0.607978
vt 0.962304 0.608061
vt 0.962274 0.608061
vt 0.962274 0.608061
vt 0.962274 0.607978
vt 0.962304 0.607978
vt 0.962356 0.627889
vt 0.962356 0.627807
vt 0.962385 0.627807
vt 0.962385 0.627807
vt 0.962385 0.627889
vt 0.962356 0.627889
vt 0.962385 0.607978
vt 0.962385 0.608061
vt 0.962356 0.608061
vt 0.962356 0.608061
vt 0.962356 0.607978
vt 0.962385 0.607978
vt 0.970994 0.628081
vt 0.970994 0.628155
vt 0.970955 0.628155
vt 0.970955 0.628155
vt 0.970955 0.628081
vt 0.970994 0.628081
vt 0.961544 0.628155
vt 0.961544 0.628081
vt 0.961584 0.628081
vt 0.961584 0.628081
vt 0.961584 0.628155
vt 0.961544 0.628155
vt 0.971041 0.642272
vt 0.971041 0.642198
vt 0.971081 0.642198
vt 0.971081 0.642198
vt 0.971081 0.642272
vt 0.971041 0.642272
vt 0.980491 0.642198
vt 0.980491 0.642272
vt 0.980452 0.642272
vt 0.980452 0.642272
vt 0.980452 0.642198
vt 0.980491 0.642198
vt 0.975704 0.627835
vt 0.975669 0.627835
vt 0.975669 0.627752
vt 0.975669 0.627752
vt 0.975704 0.627752
vt 0.975704 0.627835
vt 0.975669 0.607978
vt 0.975704 0.607978
vt 0.975704 0.608061
vt 0.975704 0.608061
vt 0.975669 0.608061
vt 0.975669 0.607978
vt 0.962426 0.607978
vt 0.962461 0.607978
vt 0.962461 0.608061
vt 0.962461 0.608061
vt 0.962426 0.608061
vt 0.962426 0.607978
vt 0.962461 0.627835
vt 0.962426 0.627835
vt 0.962426 0.627752
vt 0.962426 0.627752
vt 0.962461 0.627752
vt 0.962461 0.627835
vt 0.995033 0.649312
vt 0.995033 0.650984
vt 0.993028 0.650984
vt 0.993028 0.650984
vt 0.993028 0.649312
vt 0.995033 0.649312
vt 0.512750 0.650984
vt 0.512750 0.649312
vt 0.514755 0.649312
vt 0.514755 0.649312
vt 0.514755 0.650984
vt 0.512750 0.650984
vt 0.995033 0.647303
vt 0.995033 0.649312
vt 0.993028 0.649312
vt 0.993028 0.649312
vt 0.993028 0.647303
vt 0.995033 0.647303
vt 0.512750 0.649312
vt 0.512750 0.647303
vt 0.514755 0.647303
vt 0.514755 0.647303
vt 0.514755 0.649312
vt 0.512750 0.649312
vt 0.512750 0.599839
vt 0.512750 0.598167
vt 0.514755 0.598167
vt 0.514755 0.598167
vt 0.514755 0.599839
vt 0.512750 0.599839
vt 0.995033 0.598167
vt 0.995033 0.599839
vt 0.993028 0.599839
vt 0.993028 0.599839
vt 0.993028 0.598167
vt 0.995033 0.598167
vt 0.512750 0.601848
vt 0.512750 0.599839
vt 0.514755 0.599839
vt 0.514755 0.599839
vt 0.514755 0.601848
vt 0.512750 0.601848
vt 0.995033 0.599839
vt 0.995033 0.601848
vt 0.993028 0.601848
vt 0.993028 0.601848
vt 0.993028 0.599839
vt 0.995033 0.599839
vt 0.961400 0.627934
vt 0.961371 0.627934
vt 0.961371 0.627851
vt 0.961371 0.627851
vt 0.961400 0.627851
vt 0.961400 0.627934
vt 0.961371 0.607978
vt 0.961400 0.607978
vt 0.961400 0.608061
vt 0.961400 0.608061
vt 0.961371 0.608061
vt 0.961371 0.607978
vt 0.961436 0.627934
vt 0.961400 0.627934
vt 0.961400 0.627851
vt 0.961400 0.627851
vt 0.961436 0.627851
vt 0.961436 0.627934
vt 0.961400 0.607978
vt 0.961436 0.607978
vt 0.961436 0.608061
vt 0.961436 0.608061
vt 0.961400 0.608061
vt 0.961400 0.607978
vt 0.962173 0.607978
vt 0.962202 0.607978
vt 0.962202 0.608061
vt 0.962202 0.608061
vt 0.962173 0.608061
vt 0.962173 0.607978
vt 0.962202 0.627934
vt 0.962173 0.627934
vt 0.962173 0.627851
vt 0.962173 0.627851
vt 0.962202 0.627851
vt 0.962202 0.627934
vt 0.962137 0.607978
vt 0.962173 0.607978
vt 0.962173 0.608061
vt 0.962173 0.608061
vt 0.962137 0.608061
vt 0.962137 0.607978
vt 0.962173 0.627934
vt 0.962137 0.627934
vt 0.962137 0.627851
vt 0.962137 0.627851
vt 0.962173 0.627851
vt 0.962173 0.627934
vt 0.512750 0.647303
vt 0.512750 0.642465
vt 0.514755 0.642465
vt 0.514755 0.642465
vt 0.514755 0.647303
vt 0.512750 0.647303
vt 0.995033 0.642465
vt 0.995033 0.647303
vt 0.993028 0.647303
vt 0.993028 0.647303
vt 0.993028 0.642465
vt 0.995033 0.642465
vt 0.995033 0.601848
vt 0.995033 0.606686
vt 0.993028 0.606686
vt 0.993028 0.606686
vt 0.993028 0.601848
vt 0.995033 0.601848
vt 0.512750 0.606686
vt 0.512750 0.601848
vt 0.514755 0.601848
vt 0.514755 0.601848
vt 0.514755 0.606686
vt 0.512750 0.606686
vt 0.962137 0.627934
vt 0.962062 0.627934
vt 0.962062 0.627851
vt 0.962062 0.627851
vt 0.962137 0.627851
vt 0.962137 0.627934
vt 0.962062 0.607978
vt 0.962137 0.607978
vt 0.962137 0.608061
vt 0.962137 0.608061
vt 0.962062 0.608061
vt 0.962062 0.607978
vt 0.961436 0.607978
vt 0.961511 0.607978
vt 0.961511 0.608061
vt 0.961511 0.608061
vt 0.961436 0.608061
vt 0.961436 0.607978
vt 0.961511 0.627934
vt 0.961436 0.627934
vt 0.961436 0.627851
vt 0.961436 0.627851
vt 0.961511 0.627851
vt 0.961511 0.627934
vt 0.961544 0.642006
vt 0.961544 0.641815
vt 0.961584 0.641815
vt 0.961584 0.641815
vt 0.961584 0.642006
vt 0.961544 0.642006
vt 0.970994 0.641815
vt 0.970994 0.642006
vt 0.970955 0.642006
vt 0.970955 0.642006
vt 0.970955 0.641815
vt 0.970994 0.641815
vt 0.970994 0.628155
vt 0.970994 0.628443
vt 0.970955 0.628443
vt 0.970955 0.628443
vt 0.970955 0.628155
vt 0.970994 0.628155
vt 0.961544 0.628443
vt 0.961544 0.628155
vt 0.961584 0.628155
vt 0.961584 0.628155
vt 0.961584 0.628443
vt 0.961544 0.628443
vt 0.971041 0.642198
vt 0.971041 0.641910
vt 0.971081 0.641910
vt 0.971081 0.641910
vt 0.971081 0.642198
vt 0.971041 0.642198
vt 0.980491 0.641910
vt 0.980491 0.642198
vt 0.980452 0.642198
vt 0.980452 0.642198
vt 0.980452 0.641910
vt 0.980491 0.641910
vt 0.980491 0.628347
vt 0.980491 0.628538
vt 0.980452 0.628538
vt 0.980452 0.628538
vt 0.980452 0.628347
vt 0.980491 0.628347
vt 0.971041 0.628538
vt 0.971041 0.628347
vt 0.971081 0.628347
vt 0.971081 0.628347
vt 0.971081 0.628538
vt 0.971041 0.628538
vt 0.975669 0.627835
vt 0.975533 0.627835
vt 0.975533 0.627752
vt 0.975533 0.627752
vt 0.975669 0.627752
vt 0.975669 0.627835
vt 0.975533 0.607978
vt 0.975669 0.607978
vt 0.975669 0.608061
vt 0.975669 0.608061
vt 0.975533 0.608061
vt 0.975533 0.607978
vt 0.969128 0.607978
vt 0.969219 0.607978
vt 0.969219 0.608061
vt 0.969219 0.608061
vt 0.969128 0.608061
vt 0.969128 0.607978
vt 0.969219 0.627835
vt 0.969128 0.627835
vt 0.969128 0.627752
vt 0.969128 0.627752
vt 0.969219 0.627752
vt 0.969219 0.627835
vt 0.969003 0.627835
vt 0.968912 0.627835
vt 0.968912 0.627752
vt 0.968912 0.627752
vt 0.969003 0.627752
vt 0.969003 0.627835
vt 0.968912 0.607978
vt 0.969003 0.607978
vt 0.969003 0.608061
vt 0.969003 0.608061
vt 0.968912 0.608061
vt 0.968912 0.607978
vt 0.962461 0.607978
vt 0.962597 0.607978
vt 0.962597 0.608061
vt 0.962597 0.608061
vt 0.962461 0.608061
vt 0.962461 0.607978
vt 0.962597 0.627835
vt 0.962461 0.627835
vt 0.962461 0.627752
vt 0.962461 0.627752
vt 0.962597 0.627752
vt 0.962597 0.627835
vt 0.961544 0.642102
vt 0.961544 0.642006
vt 0.961584 0.642006
vt 0.961584 0.642006
vt 0.961584 0.642102
vt 0.961544 0.642102
vt 0.970994 0.642006
vt 0.970994 0.642102
vt 0.970955 0.642102
vt 0.970955 0.642102
vt 0.970955 0.642006
vt 0.970994 0.642006
vt 0.980491 0.628251
vt 0.980491 0.628347
vt 0.980452 0.628347
vt 0.980452 0.628347
vt 0.980452 0.628251
vt 0.980491 0.628251
vt 0.971041 0.628347
vt 0.971041 0.628251
vt 0.971081 0.628251
vt 0.971081 0.628251
vt 0.971081 0.628347
vt 0.971041 0.628347
vt 0.969082 0.607978
vt 0.969128 0.607978
vt 0.969128 0.608061
vt 0.969128 0.608061
vt 0.969082 0.608061
vt 0.969082 0.607978
vt 0.969128 0.627835
vt 0.969082 0.627835
vt 0.969082 0.627752
vt 0.969082 0.627752
vt 0.969128 0.627752
vt 0.969128 0.627835
vt 0.969048 0.627835
vt 0.969003 0.627835
vt 0.969003 0.627752
vt 0.969003 0.627752
vt 0.969048 0.627752
vt 0.969048 0.627835
vt 0.969003 0.607978
vt 0.969048 0.607978
vt 0.969048 0.608061
vt 0.969048 0.608061
vt 0.969003 0.608061
vt 0.969003 0.607978
vt 0.961290 0.621576
vt 0.961290 0.608241
vt 0.961303 0.608241
vt 0.961303 0.608241
vt 0.961303 0.621576
vt 0.961290 0.621576
vt 0.961353 0.608241
vt 0.961353 0.621576
vt 0.961340 0.621576
vt 0.961340 0.621576
vt 0.961340 0.608241
vt 0.961353 0.608241
vt 0.962264 0.627807
vt 0.962264 0.608061
vt 0.962274 0.608061
vt 0.962274 0.608061
vt 0.962274 0.627807
vt 0.962264 0.627807
vt 0.962315 0.608061
vt 0.962315 0.627807
vt 0.962304 0.627807
vt 0.962304 0.627807
vt 0.962304 0.608061
vt 0.962315 0.608061
vt 0.961208 0.637650
vt 0.961208 0.624316
vt 0.961222 0.624316
vt 0.961222 0.624316
vt 0.961222 0.637650
vt 0.961208 0.637650
vt 0.961272 0.624316
vt 0.961272 0.637650
vt 0.961259 0.637650
vt 0.961259 0.637650
vt 0.961259 0.624316
vt 0.961272 0.624316
vt 0.961290 0.637479
vt 0.961290 0.624145
vt 0.961303 0.624145
vt 0.961303 0.624145
vt 0.961303 0.637479
vt 0.961290 0.637479
vt 0.961353 0.624145
vt 0.961353 0.637479
vt 0.961340 0.637479
vt 0.961340 0.637479
vt 0.961340 0.624145
vt 0.961353 0.624145
vt 0.961208 0.621746
vt 0.961208 0.608412
vt 0.961222 0.608412
vt 0.961222 0.608412
vt 0.961222 0.621746
vt 0.961208 0.621746
vt 0.961272 0.608412
vt 0.961272 0.621746
vt 0.961259 0.621746
vt 0.961259 0.621746
vt 0.961259 0.608412
vt 0.961272 0.608412
vt 0.962345 0.627807
vt 0.962345 0.608061
vt 0.962356 0.608061
vt 0.962356 0.608061
vt 0.962356 0.627807
vt 0.962345 0.627807
vt 0.962396 0.608061
vt 0.962396 0.627807
vt 0.962385 0.627807
vt 0.962385 0.627807
vt 0.962385 0.608061
vt 0.962396 0.608061
vt 0.961290 0.623480
vt 0.961290 0.622241
vt 0.961303 0.622241
vt 0.961303 0.622241
vt 0.961303 0.623480
vt 0.961290 0.623480
vt 0.961353 0.622241
vt 0.961353 0.623480
vt 0.961340 0.623480
vt 0.961340 0.623480
vt 0.961340 0.622241
vt 0.961353 0.622241
vt 0.961208 0.623651
vt 0.961208 0.622411
vt 0.961222 0.622411
vt 0.961222 0.622411
vt 0.961222 0.623651
vt 0.961208 0.623651
vt 0.961272 0.622411
vt 0.961272 0.623651
vt 0.961259 0.623651
vt 0.961259 0.623651
vt 0.961259 0.622411
vt 0.961272 0.622411
vt 0.961290 0.621937
vt 0.961290 0.621863
vt 0.961303 0.621863
vt 0.961303 0.621863
vt 0.961303 0.621937
vt 0.961290 0.621937
vt 0.961353 0.621863
vt 0.961353 0.621937
vt 0.961340 0.621937
vt 0.961340 0.621937
vt 0.961340 0.621863
vt 0.961353 0.621863
vt 0.961259 0.623954
vt 0.961272 0.623954
vt 0.961272 0.624029
vt 0.961272 0.624029
vt 0.961259 0.624029
vt 0.961259 0.623954
vt 0.961222 0.624029
vt 0.961208 0.624029
vt 0.961208 0.623954
vt 0.961208 0.623954
vt 0.961222 0.623954
vt 0.961222 0.624029
vt 0.961340 0.623784
vt 0.961353 0.623784
vt 0.961353 0.623858
vt 0.961353 0.623858
vt 0.961340 0.623858
vt 0.961340 0.623784
vt 0.961303 0.623858
vt 0.961290 0.623858
vt 0.961290 0.623784
vt 0.961290 0.623784
vt 0.961303 0.623784
vt 0.961303 0.623858
vt 0.961208 0.622108
vt 0.961208 0.622033
vt 0.961222 0.622033
vt 0.961222 0.622033
vt 0.961222 0.622108
vt 0.961208 0.622108
vt 0.961272 0.622033
vt 0.961272 0.622108
vt 0.961259 0.622108
vt 0.961259 0.622108
vt 0.961259 0.622033
vt 0.961272 0.622033
vt 0.961290 0.621999
vt 0.961290 0.621937
vt 0.961303 0.621937
vt 0.961303 0.621937
vt 0.961303 0.621999
vt 0.961290 0.621999
vt 0.961353 0.621937
vt 0.961353 0.621999
vt 0.961340 0.621999
vt 0.961340 0.621999
vt 0.961340 0.621937
vt 0.961353 0.621937
vt 0.961303 0.622073
vt 0.961290 0.622073
vt 0.961290 0.621999
vt 0.961290 0.621999
vt 0.961303 0.621999
vt 0.961303 0.622073
vt 0.961340 0.621999
vt 0.961353 0.621999
vt 0.961353 0.622073
vt 0.961353 0.622073
vt 0.961340 0.622073
vt 0.961340 0.621999
vt 0.961272 0.623893
vt 0.961272 0.623954
vt 0.961259 0.623954
vt 0.961259 0.623954
vt 0.961259 0.623893
vt 0.961272 0.623893
vt 0.961208 0.623954
vt 0.961208 0.623893
vt 0.961222 0.623893
vt 0.961222 0.623893
vt 0.961222 0.623954
vt 0.961208 0.623954
vt 0.961272 0.623818
vt 0.961272 0.623893
vt 0.961259 0.623893
vt 0.961259 0.623893
vt 0.961259 0.623818
vt 0.961272 0.623818
vt 0.961208 0.623893
vt 0.961208 0.623818
vt 0.961222 0.623818
vt 0.961222 0.623818
vt 0.961222 0.623893
vt 0.961208 0.623893
vt 0.961353 0.623722
vt 0.961353 0.623784
vt 0.961340 0.623784
vt 0.961340 0.623784
vt 0.961340 0.623722
vt 0.961353 0.623722
vt 0.961290 0.623784
vt 0.961290 0.623722
vt 0.961303 0.623722
vt 0.961303 0.623722
vt 0.961303 0.623784
vt 0.961290 0.623784
vt 0.961353 0.623648
vt 0.961353 0.623722
vt 0.961340 0.623722
vt 0.961340 0.623722
vt 0.961340 0.623648
vt 0.961353 0.623648
vt 0.961290 0.623722
vt 0.961290 0.623648
vt 0.961303 0.623648
vt 0.961303 0.623648
vt 0.961303 0.623722
vt 0.961290 0.623722
vt 0.961208 0.622169
vt 0.961208 0.622108
vt 0.961222 0.622108
vt 0.961222 0.622108
vt 0.961222 0.622169
vt 0.961208 0.622169
vt 0.961272 0.622108
vt 0.961272 0.622169
vt 0.961259 0.622169
vt 0.961259 0.622169
vt 0.961259 0.622108
vt 0.961272 0.622108
vt 0.961222 0.622244
vt 0.961208 0.622244
vt 0.961208 0.622169
vt 0.961208 0.622169
vt 0.961222 0.622169
vt 0.961222 0.622244
vt 0.961259 0.622169
vt 0.961272 0.622169
vt 0.961272 0.622244
vt 0.961272 0.622244
vt 0.961259 0.622244
vt 0.961259 0.622169
vt 0.961290 0.623648
vt 0.961290 0.623480
vt 0.961303 0.623480
vt 0.961303 0.623480
vt 0.961303 0.623648
vt 0.961290 0.623648
vt 0.961353 0.623480
vt 0.961353 0.623648
vt 0.961340 0.623648
vt 0.961340 0.623648
vt 0.961340 0.623480
vt 0.961353 0.623480
vt 0.961340 0.622073
vt 0.961353 0.622073
vt 0.961353 0.622241
vt 0.961353 0.622241
vt 0.961340 0.622241
vt 0.961340 0.622073
vt 0.961303 0.622241
vt 0.961290 0.622241
vt 0.961290 0.622073
vt 0.961290 0.622073
vt 0.961303 0.622073
vt 0.961303 0.622241
vt 0.961208 0.623818
vt 0.961208 0.623651
vt 0.961222 0.623651
vt 0.961222 0.623651
vt 0.961222 0.623818
vt 0.961208 0.623818
vt 0.961272 0.623651
vt 0.961272 0.623818
vt 0.961259 0.623818
vt 0.961259 0.623818
vt 0.961259 0.623651
vt 0.961272 0.623651
vt 0.961259 0.622244
vt 0.961272 0.622244
vt 0.961272 0.622411
vt 0.961272 0.622411
vt 0.961259 0.622411
vt 0.961259 0.622244
vt 0.961222 0.622411
vt 0.961208 0.622411
vt 0.961208 0.622244
vt 0.961208 0.622244
vt 0.961222 0.622244
vt 0.961222 0.622411
vt 0.961290 0.621863
vt 0.961290 0.621576
vt 0.961303 0.621576
vt 0.961303 0.621576
vt 0.961303 0.621863
vt 0.961290 0.621863
vt 0.961353 0.621576
vt 0.961353 0.621863
vt 0.961340 0.621863
vt 0.961340 0.621863
vt 0.961340 0.621576
vt 0.961353 0.621576
vt 0.961353 0.608050
vt 0.961353 0.608241
vt 0.961340 0.608241
vt 0.961340 0.608241
vt 0.961340 0.608050
vt 0.961353 0.608050
vt 0.961290 0.608241
vt 0.961290 0.608050
vt 0.961303 0.608050
vt 0.961303 0.608050
vt 0.961303 0.608241
vt 0.961290 0.608241
vt 0.961208 0.637841
vt 0.961208 0.637650
vt 0.961222 0.637650
vt 0.961222 0.637650
vt 0.961222 0.637841
vt 0.961208 0.637841
vt 0.961272 0.637650
vt 0.961272 0.637841
vt 0.961259 0.637841
vt 0.961259 0.637841
vt 0.961259 0.637650
vt 0.961272 0.637650
vt 0.961259 0.624029
vt 0.961272 0.624029
vt 0.961272 0.624316
vt 0.961272 0.624316
vt 0.961259 0.624316
vt 0.961259 0.624029
vt 0.961222 0.624316
vt 0.961208 0.624316
vt 0.961208 0.624029
vt 0.961208 0.624029
vt 0.961222 0.624029
vt 0.961222 0.624316
vt 0.961290 0.637671
vt 0.961290 0.637479
vt 0.961303 0.637479
vt 0.961303 0.637479
vt 0.961303 0.637671
vt 0.961290 0.637671
vt 0.961353 0.637479
vt 0.961353 0.637671
vt 0.961340 0.637671
vt 0.961340 0.637671
vt 0.961340 0.637479
vt 0.961353 0.637479
vt 0.961340 0.623858
vt 0.961353 0.623858
vt 0.961353 0.624145
vt 0.961353 0.624145
vt 0.961340 0.624145
vt 0.961340 0.623858
vt 0.961303 0.624145
vt 0.961290 0.624145
vt 0.961290 0.623858
vt 0.961290 0.623858
vt 0.961303 0.623858
vt 0.961303 0.624145
vt 0.961208 0.622033
vt 0.961208 0.621746
vt 0.961222 0.621746
vt 0.961222 0.621746
vt 0.961222 0.622033
vt 0.961208 0.622033
vt 0.961272 0.621746
vt 0.961272 0.622033
vt 0.961259 0.622033
vt 0.961259 0.622033
vt 0.961259 0.621746
vt 0.961272 0.621746
vt 0.961272 0.608221
vt 0.961272 0.608412
vt 0.961259 0.608412
vt 0.961259 0.608412
vt 0.961259 0.608221
vt 0.961272 0.608221
vt 0.961208 0.608412
vt 0.961208 0.608221
vt 0.961222 0.608221
vt 0.961222 0.608221
vt 0.961222 0.608412
vt 0.961208 0.608412
vt 0.961353 0.607955
vt 0.961353 0.608050
vt 0.961340 0.608050
vt 0.961340 0.608050
vt 0.961340 0.607955
vt 0.961353 0.607955
vt 0.961290 0.608050
vt 0.961290 0.607955
vt 0.961303 0.607955
vt 0.961303 0.607955
vt 0.961303 0.608050
vt 0.961290 0.608050
vt 0.961208 0.637937
vt 0.961208 0.637841
vt 0.961222 0.637841
vt 0.961222 0.637841
vt 0.961222 0.637937
vt 0.961208 0.637937
vt 0.961272 0.637841
vt 0.961272 0.637937
vt 0.961259 0.637937
vt 0.961259 0.637937
vt 0.961259 0.637841
vt 0.961272 0.637841
vt 0.961290 0.637766
vt 0.961290 0.637671
vt 0.961303 0.637671
vt 0.961303 0.637671
vt 0.961303 0.637766
vt 0.961290 0.637766
vt 0.961353 0.637671
vt 0.961353 0.637766
vt 0.961340 0.637766
vt 0.961340 0.637766
vt 0.961340 0.637671
vt 0.961353 0.637671
vt 0.961272 0.608125
vt 0.961272 0.608221
vt 0.961259 0.608221
vt 0.961259 0.608221
vt 0.961259 0.608125
vt 0.961272 0.608125
vt 0.961208 0.608221
vt 0.961208 0.608125
vt 0.961222 0.608125
vt 0.961222 0.608125
vt 0.961222 0.608221
vt 0.961208 0.608221
vt 0.962264 0.627913
vt 0.962264 0.627889
vt 0.962274 0.627889
vt 0.962274 0.627889
vt 0.962274 0.627913
vt 0.962264 0.627913
vt 0.962315 0.627889
vt 0.962315 0.627913
vt 0.962304 0.627913
vt 0.962304 0.627913
vt 0.962304 0.627889
vt 0.962315 0.627889
vt 0.962315 0.607955
vt 0.962315 0.607978
vt 0.962304 0.607978
vt 0.962304 0.607978
vt 0.962304 0.607955
vt 0.962315 0.607955
vt 0.962264 0.607978
vt 0.962264 0.607955
vt 0.962274 0.607955
vt 0.962274 0.607955
vt 0.962274 0.607978
vt 0.962264 0.607978
vt 0.962345 0.627913
vt 0.962345 0.627889
vt 0.962356 0.627889
vt 0.962356 0.627889
vt 0.962356 0.627913
vt 0.962345 0.627913
vt 0.962396 0.627889
vt 0.962396 0.627913
vt 0.962385 0.627913
vt 0.962385 0.627913
vt 0.962385 0.627889
vt 0.962396 0.627889
vt 0.962396 0.607955
vt 0.962396 0.607978
vt 0.962385 0.607978
vt 0.962385 0.607978
vt 0.962385 0.607955
vt 0.962396 0.607955
vt 0.962345 0.607978
vt 0.962345 0.607955
vt 0.962356 0.607955
vt 0.962356 0.607955
vt 0.962356 0.607978
vt 0.962345 0.607978
vt 0.962264 0.627889
vt 0.962264 0.627807
vt 0.962274 0.627807
vt 0.962274 0.627807
vt 0.962274 0.627889
vt 0.962264 0.627889
vt 0.962315 0.627807
vt 0.962315 0.627889
vt 0.962304 0.627889
vt 0.962304 0.627889
vt 0.962304 0.627807
vt 0.962315 0.627807
vt 0.962315 0.607978
vt 0.962315 0.608061
vt 0.962304 0.608061
vt 0.962304 0.608061
vt 0.962304 0.607978
vt 0.962315 0.607978
vt 0.962264 0.608061
vt 0.962264 0.607978
vt 0.962274 0.607978
vt 0.962274 0.607978
vt 0.962274 0.608061
vt 0.962264 0.608061
vt 0.962345 0.627889
vt 0.962345 0.627807
vt 0.962356 0.627807
vt 0.962356 0.627807
vt 0.962356 0.627889
vt 0.962345 0.627889
vt 0.962396 0.627807
vt 0.962396 0.627889
vt 0.962385 0.627889
vt 0.962385 0.627889
vt 0.962385 0.627807
vt 0.962396 0.627807
vt 0.962396 0.607978
vt 0.962396 0.608061
vt 0.962385 0.608061
vt 0.962385 0.608061
vt 0.962385 0.607978
vt 0.962396 0.607978
vt 0.962345 0.608061
vt 0.962345 0.607978
vt 0.962356 0.607978
vt 0.962356 0.607978
vt 0.962356 0.608061
vt 0.962345 0.608061
f 1/1 2/2 3/3
f 3/4 4/5 1/6
f 5/7 6/8 7/9
f 7/10 8/11 5/12
f 9/13 10/14 11/15
f 11/16 12/17 9/18
f 13/19 14/20 15/21
f 15/22 16/23 13/24
f 17/25 18/26 19/27
f 19/28 20/29 17/30
f 21/31 22/32 23/33
f 23/34 24/35 21/36
f 25/37 26/38 27/39
f 27/40 28/41 25/42
f 29/43 30/44 31/45
f 31/46 32/47 29/48
f 33/49 34/50 35/51
f 35/52 36/53 33/54
f 37/55 38/56 39/57
f 39/58 40/59 37/60
f 41/61 42/62 43/63
f 43/64 44/65 41/66
f 45/67 46/68 47/69
f 47/70 48/71 45/72
f 49/73 50/74 51/75
f 51/76 52/77 49/78
f 53/79 54/80 55/81
f 55/82 56/83 53/84
f 57/85 58/86 59/87
f 59/88 60/89 57/90
f 61/91 62/92 63/93
f 63/94 64/95 61/96
f 65/97 66/98 67/99
f 67/100 68/101 65/102
f 69/103 70/104 71/105
f 71/106 72/107 69/108
f 73/109 74/110 75/111
f 75/112 76/113 73/114
f 77/115 78/116 79/117
f 79/118 80/119 77/120
f 81/121 82/122 83/123
f 83/124 84/125 81/126
f 85/127 86/128 87/129
f 87/130 88/131 85/132
f 89/133 57/134 60/135
f 60/136 90/137 89/138
f 91/139 89/140 90/141
f 90/142 92/143 91/144
f 93/145 61/146 64/147
f 64/148 94/149 93/150
f 95/151 93/152 94/153
f 94/154 96/155 95/156
f 97/157 65/158 68/159
f 68/160 98/161 97/162
f 99/163 97/164 98/165
f 98/166 100/167 99/168
f 101/169 69/170 72/171
f 72/172 102/173 101/174
f 103/175 101/176 102/177
f 102/178 104/179 103/180
f 105/181 73/182 76/183
f 76/184 106/185 105/186
f 107/187 108/188 105/189
f 105/190 106/191 107/192
f 109/193 78/194 77/195
f 77/196 110/197 109/198
f 111/199 109/200 110/201
f 110/202 112/203 111/204
f 113/205 82/206 81/207
f 81/208 114/209 113/210
f 115/211 113/212 114/213
f 114/214 116/215 115/216
f 117/217 85/218 88/219
f 88/220 118/221 117/222
f 119/223 120/224 117/225
f 117/226 118/227 119/228
f 92/229 9/230 12/231
f 12/232 91/233 92/234
f 96/235 11/236 10/237
f 10/238 95/239 96/240
f 104/241 21/242 24/243
f 24/244 103/245 104/246
f 100/247 23/248 22/249
f 22/250 99/251 100/252
f 116/253 49/254 52/255
f 52/256 115/257 116/258
f 108/259 107/260 51/261
f 51/262 50/263 108/264
f 112/265 53/266 56/267
f 56/268 111/269 112/270
f 120/271 119/272 55/273
f 55/274 54/275 120/276
f 121/277 1/278 4/279
f 4/280 122/281 121/282
f 58/283 3/284 2/285
f 2/286 59/287 58/288
f 62/289 5/290 8/291
f 8/292 63/293 62/294
f 123/295 7/296 6/297
f 6/298 124/299 123/300
f 66/301 13/302 16/303
f 16/304 67/305 66/306
f 125/307 15/308 14/309
f 14/310 126/311 125/312
f 127/313 17/314 20/315
f 20/316 128/317 127/318
f 70/319 19/320 18/321
f 18/322 71/323 70/324
f 74/325 25/326 28/327
f 28/328 75/329 74/330
f 129/331 27/332 26/333
f 26/334 130/335 129/336
f 131/337 33/338 36/339
f 36/340 132/341 131/342
f 80/343 79/344 35/345
f 35/346 34/347 80/348
f 133/349 37/350 40/351
f 40/352 134/353 133/354
f 84/355 83/356 39/357
f 39/358 38/359 84/360
f 86/361 41/362 44/363
f 44/364 87/365 86/366
f 135/367 43/368 42/369
f 42/370 136/371 135/372
f 137/373 121/374 122/375
f 122/376 138/377 137/378
f 139/379 123/380 124/381
f 124/382 140/383 139/384
f 141/385 125/386 126/387
f 126/388 142/389 141/390
f 143/391 127/392 128/393
f 128/394 144/395 143/396
f 145/397 129/398 130/399
f 130/400 146/401 145/402
f 147/403 131/404 132/405
f 132/406 148/407 147/408
f 149/409 133/410 134/411
f 134/412 150/413 149/414
f 151/415 135/416 136/417
f 136/418 152/419 151/420
f 153/421 154/422 155/423
f 155/424 156/425 153/426
f 157/427 158/428 159/429
f 159/430 160/431 157/432
f 161/433 162/434 163/435
f 163/436 164/437 161/438
f 165/439 166/440 167/441
f 167/442 168/443 165/444
f 169/445 170/446 171/447
f 171/448 172/449 169/450
f 173/451 174/452 175/453
f 175/454 176/455 173/456
f 177/457 178/458 179/459
f 179/460 180/461 177/462
f 181/463 182/464 183/465
f 183/466 184/467 181/468
f 185/469 186/470 187/471
f 187/472 188/473 185/474
f 189/475 190/476 191/477
f 191/478 192/479 189/480
f 193/481 194/482 195/483
f 195/484 196/485 193/486
f 197/487 198/488 199/489
f 199/490 200/491 197/492
f 146/493 201/494 202/495
f 202/496 145/497 146/498
f 148/499 203/500 204/501
f 204/502 147/503 148/504
f 152/505 205/506 206/507
f 206/508 151/509 152/510
f 150/511 207/512 208/513
f 208/514 149/515 150/516
f 209/517 210/518 211/519
f 211/520 212/521 209/522
f 213/523 214/524 215/525
f 215/526 216/527 213/528
f 217/529 218/530 219/531
f 219/532 220/533 217/534
f 221/535 222/536 223/537
f 223/538 224/539 221/540
f 225/541 226/542 227/543
f 227/544 228/545 225/546
f 229/547 230/548 231/549
f 231/550 232/551 229/552
f 233/553 234/554 235/555
f 235/556 236/557 233/558
f 237/559 238/560 239/561
f 239/562 240/563 237/564
f 241/565 209/566 212/567
f 212/568 242/569 241/570
f 214/571 243/572 244/573
f 244/574 215/575 214/576
f 245/577 241/578 242/579
f 242/580 246/581 245/582
f 243/583 247/584 248/585
f 248/586 244/587 243/588
f 249/589 217/590 220/591
f 220/592 250/593 249/594
f 222/595 251/596 252/597
f 252/598 223/599 222/600
f 253/601 249/602 250/603
f 250/604 254/605 253/606
f 251/607 255/608 256/609
f 256/610 252/611 251/612
f 257/613 225/614 228/615
f 228/616 258/617 257/618
f 230/619 259/620 260/621
f 260/622 231/623 230/624
f 261/625 257/626 258/627
f 258/628 262/629 261/630
f 259/631 263/632 264/633
f 264/634 260/635 259/636
f 265/637 233/638 236/639
f 236/640 266/641 265/642
f 238/643 267/644 268/645
f 268/646 239/647 238/648
f 269/649 265/650 266/651
f 266/652 270/653 269/654
f 267/655 271/656 272/657
f 272/658 268/659 267/660
f 247/661 169/662 172/663
f 172/664 248/665 247/666
f 174/667 245/668 246/669
f 246/670 175/671 174/672
f 255/673 173/674 176/675
f 176/676 256/677 255/678
f 170/679 253/680 254/681
f 254/682 171/683 170/684
f 271/685 193/686 196/687
f 196/688 272/689 271/690
f 198/691 269/692 270/693
f 270/694 199/695 198/696
f 263/697 197/698 200/699
f 200/700 264/701 263/702
f 194/703 261/704 262/705
f 262/706 195/707 194/708
f 273/709 153/710 156/711
f 156/712 274/713 273/714
f 158/715 275/716 276/717
f 276/718 159/719 158/720
f 210/721 157/722 160/723
f 160/724 211/725 210/726
f 154/727 213/728 216/729
f 216/730 155/731 154/732
f 218/733 161/734 164/735
f 164/736 219/737 218/738
f 166/739 221/740 224/741
f 224/742 167/743 166/744
f 277/745 165/746 168/747
f 168/748 278/749 277/750
f 162/751 279/752 280/753
f 280/754 163/755 162/756
f 226/757 177/758 180/759
f 180/760 227/761 226/762
f 182/763 229/764 232/765
f 232/766 183/767 182/768
f 281/769 181/770 184/771
f 184/772 282/773 281/774
f 178/775 283/776 284/777
f 284/778 179/779 178/780
f 285/781 185/782 188/783
f 188/784 286/785 285/786
f 190/787 287/788 288/789
f 288/790 191/791 190/792
f 234/793 189/794 192/795
f 192/796 235/797 234/798
f 186/799 237/800 240/801
f 240/802 187/803 186/804
f 289/805 273/806 274/807
f 274/808 290/809 289/810
f 275/811 291/812 292/813
f 292/814 276/815 275/816
f 293/817 277/818 278/819
f 278/820 294/821 293/822
f 279/823 295/824 296/825
f 296/826 280/827 279/828
f 297/829 281/830 282/831
f 282/832 298/833 297/834
f 283/835 299/836 300/837
f 300/838 284/839 283/840
f 301/841 285/842 286/843
f 286/844 302/845 301/846
f 287/847 303/848 304/849
f 304/850 288/851 287/852
f 156/853 155/854 2/855
f 2/856 1/857 156/858
f 160/859 159/860 4/861
f 4/862 3/863 160/864
f 164/865 163/866 6/867
f 6/868 5/869 164/870
f 168/871 167/872 8/873
f 8/874 7/875 168/876
f 172/877 171/878 10/879
f 10/880 9/881 172/882
f 176/883 175/884 12/885
f 12/886 11/887 176/888
f 180/889 179/890 14/891
f 14/892 13/893 180/894
f 184/895 183/896 16/897
f 16/898 15/899 184/900
f 188/901 187/902 18/903
f 18/904 17/905 188/906
f 192/907 191/908 20/909
f 20/910 19/911 192/912
f 196/913 195/914 22/915
f 22/916 21/917 196/918
f 200/919 199/920 24/921
f 24/922 23/923 200/924
f 201/925 29/926 32/927
f 32/928 202/929 201/930
f 203/931 31/932 30/933
f 30/934 204/935 203/936
f 205/937 45/938 48/939
f 48/940 206/941 205/942
f 207/943 47/944 46/945
f 46/946 208/947 207/948
f 212/949 211/950 58/951
f 58/952 57/953 212/954
f 216/955 215/956 60/957
f 60/958 59/959 216/960
f 220/961 219/962 62/963
f 62/964 61/965 220/966
f 224/967 223/968 64/969
f 64/970 63/971 224/972
f 228/973 227/974 66/975
f 66/976 65/977 228/978
f 232/979 231/980 68/981
f 68/982 67/983 232/984
f 236/985 235/986 70/987
f 70/988 69/989 236/990
f 240/991 239/992 72/993
f 72/994 71/995 240/996
f 242/997 212/998 57/999
f 57/1000 89/1001 242/1002
f 215/1003 244/1004 90/1005
f 90/1006 60/1007 215/1008
f 246/1009 242/1010 89/1011
f 89/1012 91/1013 246/1014
f 244/1015 248/1016 92/1017
f 92/1018 90/1019 244/1020
f 250/1021 220/1022 61/1023
f 61/1024 93/1025 250/1026
f 223/1027 252/1028 94/1029
f 94/1030 64/1031 223/1032
f 254/1033 250/1034 93/1035
f 93/1036 95/1037 254/1038
f 252/1039 256/1040 96/1041
f 96/1042 94/1043 252/1044
f 258/1045 228/1046 65/1047
f 65/1048 97/1049 258/1050
f 231/1051 260/1052 98/1053
f 98/1054 68/1055 231/1056
f 262/1057 258/1058 97/1059
f 97/1060 99/1061 262/1062
f 260/1063 264/1064 100/1065
f 100/1066 98/1067 260/1068
f 266/1069 236/1070 69/1071
f 69/1072 101/1073 266/1074
f 239/1075 268/1076 102/1077
f 102/1078 72/1079 239/1080
f 270/1081 266/1082 101/1083
f 101/1084 103/1085 270/1086
f 268/1087 272/1088 104/1089
f 104/1090 102/1091 268/1092
f 248/1093 172/1094 9/1095
f 9/1096 92/1097 248/1098
f 175/1099 246/1100 91/1101
f 91/1102 12/1103 175/1104
f 256/1105 176/1106 11/1107
f 11/1108 96/1109 256/1110
f 171/1111 254/1112 95/1113
f 95/1114 10/1115 171/1116
f 272/1117 196/1118 21/1119
f 21/1120 104/1121 272/1122
f 199/1123 270/1124 103/1125
f 103/1126 24/1127 199/1128
f 264/1129 200/1130 23/1131
f 23/1132 100/1133 264/1134
f 195/1135 262/1136 99/1137
f 99/1138 22/1139 195/1140
f 274/1141 156/1142 1/1143
f 1/1144 121/1145 274/1146
f 159/1147 276/1148 122/1149
f 122/1150 4/1151 159/1152
f 211/1153 160/1154 3/1155
f 3/1156 58/1157 211/1158
f 155/1159 216/1160 59/1161
f 59/1162 2/1163 155/1164
f 219/1165 164/1166 5/1167
f 5/1168 62/1169 219/1170
f 167/1171 224/1172 63/1173
f 63/1174 8/1175 167/1176
f 278/1177 168/1178 7/1179
f 7/1180 123/1181 278/1182
f 163/1183 280/1184 124/1185
f 124/1186 6/1187 163/1188
f 227/1189 180/1190 13/1191
f 13/1192 66/1193 227/1194
f 183/1195 232/1196 67/1197
f 67/1198 16/1199 183/1200
f 282/1201 184/1202 15/1203
f 15/1204 125/1205 282/1206
f 179/1207 284/1208 126/1209
f 126/1210 14/1211 179/1212
f 286/1213 188/1214 17/1215
f 17/1216 127/1217 286/1218
f 191/1219 288/1220 128/1221
f 128/1222 20/1223 191/1224
f 235/1225 192/1226 19/1227
f 19/1228 70/1229 235/1230
f 187/1231 240/1232 71/1233
f 71/1234 18/1235 187/1236
f 290/1237 274/1238 121/1239
f 121/1240 137/1241 290/1242
f 276/1243 292/1244 138/1245
f 138/1246 122/1247 276/1248
f 294/1249 278/1250 123/1251
f 123/1252 139/1253 294/1254
f 280/1255 296/1256 140/1257
f 140/1258 124/1259 280/1260
f 298/1261 282/1262 125/1263
f 125/1264 141/1265 298/1266
f 284/1267 300/1268 142/1269
f 142/1270 126/1271 284/1272
f 302/1273 286/1274 127/1275
f 127/1276 143/1277 302/1278
f 288/1279 304/1280 144/1281
f 144/1282 128/1283 288/1284
f 182/1285 181/1286 26/1287
f 26/1288 25/1289 182/1290
f 158/1291 157/1292 28/1293
f 28/1294 27/1295 158/1296
f 141/1297 142/1298 30/1299
f 30/1300 29/1301 141/1302
f 137/1303 138/1304 32/1305
f 32/1306 31/1307 137/1308
f 178/1309 177/1310 34/1311
f 34/1312 33/1313 178/1314
f 154/1315 153/1316 36/1317
f 36/1318 35/1319 154/1320
f 190/1321 189/1322 38/1323
f 38/1324 37/1325 190/1326
f 166/1327 165/1328 40/1329
f 40/1330 39/1331 166/1332
f 186/1333 185/1334 42/1335
f 42/1336 41/1337 186/1338
f 162/1339 161/1340 44/1341
f 44/1342 43/1343 162/1344
f 143/1345 144/1346 46/1347
f 46/1348 45/1349 143/1350
f 139/1351 140/1352 48/1353
f 48/1354 47/1355 139/1356
f 198/1357 197/1358 50/1359
f 50/1360 49/1361 198/1362
f 174/1363 173/1364 52/1365
f 52/1366 51/1367 174/1368
f 194/1369 193/1370 54/1371
f 54/1372 53/1373 194/1374
f 170/1375 169/1376 56/1377
f 56/1378 55/1379 170/1380
f 230/1381 229/1382 74/1383
f 74/1384 73/1385 230/1386
f 210/1387 209/1388 76/1389
f 76/1390 75/1391 210/1392
f 78/1393 214/1394 213/1395
f 213/1396 79/1397 78/1398
f 80/1399 226/1400 225/1401
f 225/1402 77/1403 80/1404
f 82/1405 222/1406 221/1407
f 221/1408 83/1409 82/1410
f 84/1411 234/1412 233/1413
f 233/1414 81/1415 84/1416
f 238/1417 237/1418 86/1419
f 86/1420 85/1421 238/1422
f 218/1423 217/1424 88/1425
f 88/1426 87/1427 218/1428
f 259/1429 230/1430 73/1431
f 73/1432 105/1433 259/1434
f 209/1435 241/1436 106/1437
f 106/1438 76/1439 209/1440
f 108/1441 263/1442 259/1443
f 259/1444 105/1445 108/1446
f 106/1447 241/1448 245/1449
f 245/1450 107/1451 106/1452
f 243/1453 214/1454 78/1455
f 78/1456 109/1457 243/1458
f 225/1459 257/1460 110/1461
f 110/1462 77/1463 225/1464
f 247/1465 243/1466 109/1467
f 109/1468 111/1469 247/1470
f 257/1471 261/1472 112/1473
f 112/1474 110/1475 257/1476
f 251/1477 222/1478 82/1479
f 82/1480 113/1481 251/1482
f 233/1483 265/1484 114/1485
f 114/1486 81/1487 233/1488
f 255/1489 251/1490 113/1491
f 113/1492 115/1493 255/1494
f 265/1495 269/1496 116/1497
f 116/1498 114/1499 265/1500
f 267/1501 238/1502 85/1503
f 85/1504 117/1505 267/1506
f 217/1507 249/1508 118/1509
f 118/1510 88/1511 217/1512
f 120/1513 271/1514 267/1515
f 267/1516 117/1517 120/1518
f 118/1519 249/1520 253/1521
f 253/1522 119/1523 118/1524
f 269/1525 198/1526 49/1527
f 49/1528 116/1529 269/1530
f 173/1531 255/1532 115/1533
f 115/1534 52/1535 173/1536
f 107/1537 245/1538 174/1539
f 174/1540 51/1541 107/1542
f 50/1543 197/1544 263/1545
f 263/1546 108/1547 50/1548
f 261/1549 194/1550 53/1551
f 53/1552 112/1553 261/1554
f 169/1555 247/1556 111/1557
f 111/1558 56/1559 169/1560
f 119/1561 253/1562 170/1563
f 170/1564 55/1565 119/1566
f 54/1567 193/1568 271/1569
f 271/1570 120/1571 54/1572
f 229/1573 182/1574 25/1575
f 25/1576 74/1577 229/1578
f 157/1579 210/1580 75/1581
f 75/1582 28/1583 157/1584
f 275/1585 158/1586 27/1587
f 27/1588 129/1589 275/1590
f 181/1591 281/1592 130/1593
f 130/1594 26/1595 181/1596
f 283/1597 178/1598 33/1599
f 33/1600 131/1601 283/1602
f 153/1603 273/1604 132/1605
f 132/1606 36/1607 153/1608
f 79/1609 213/1610 154/1611
f 154/1612 35/1613 79/1614
f 34/1615 177/1616 226/1617
f 226/1618 80/1619 34/1620
f 287/1621 190/1622 37/1623
f 37/1624 133/1625 287/1626
f 165/1627 277/1628 134/1629
f 134/1630 40/1631 165/1632
f 83/1633 221/1634 166/1635
f 166/1636 39/1637 83/1638
f 38/1639 189/1640 234/1641
f 234/1642 84/1643 38/1644
f 237/1645 186/1646 41/1647
f 41/1648 86/1649 237/1650
f 161/1651 218/1652 87/1653
f 87/1654 44/1655 161/1656
f 279/1657 162/1658 43/1659
f 43/1660 135/1661 279/1662
f 185/1663 285/1664 136/1665
f 136/1666 42/1667 185/1668
f 291/1669 275/1670 129/1671
f 129/1672 145/1673 291/1674
f 281/1675 297/1676 146/1677
f 146/1678 130/1679 281/1680
f 299/1681 283/1682 131/1683
f 131/1684 147/1685 299/1686
f 273/1687 289/1688 148/1689
f 148/1690 132/1691 273/1692
f 303/1693 287/1694 133/1695
f 133/1696 149/1697 303/1698
f 277/1699 293/1700 150/1701
f 150/1702 134/1703 277/1704
f 295/1705 279/1706 135/1707
f 135/1708 151/1709 295/1710
f 285/1711 301/1712 152/1713
f 152/1714 136/1715 285/1716
f 297/1717 298/1718 201/1719
f 201/1720 146/1721 297/1722
f 292/1723 291/1724 145/1725
f 145/1726 202/1727 292/1728
f 289/1729 290/1730 203/1731
f 203/1732 148/1733 289/1734
f 300/1735 299/1736 147/1737
f 147/1738 204/1739 300/1740
f 301/1741 302/1742 205/1743
f 205/1744 152/1745 301/1746
f 296/1747 295/1748 151/1749
f 151/1750 206/1751 296/1752
f 293/1753 294/1754 207/1755
f 207/1756 150/1757 293/1758
f 304/1759 303/1760 149/1761
f 149/1762 208/1763 304/1764
f 298/1765 141/1766 29/1767
f 29/1768 201/1769 298/1770
f 138/1771 292/1772 202/1773
f 202/1774 32/1775 138/1776
f 290/1777 137/1778 31/1779
f 31/1780 203/1781 290/1782
f 142/1783 300/1784 204/1785
f 204/1786 30/1787 142/1788
f 302/1789 143/1790 45/1791
f 45/1792 205/1793 302/1794
f 140/1795 296/1796 206/1797
f 206/1798 48/1799 140/1800
f 294/1801 139/1802 47/1803
f 47/1804 207/1805 294/1806
f 144/1807 304/1808 208/1809
f 208/1810 46/1811 144/1812
