# USD → MuJoCo (world-space)
v -0.025847 0.078999 -0.110386
v 0.005990 0.078999 -0.110386
v 0.005990 -0.078351 -0.110386
v -0.025847 -0.078351 -0.110386
v 0.005990 0.078999 0.110642
v -0.025847 0.078999 0.110642
v -0.025847 -0.078351 0.110642
v 0.005990 -0.078351 0.110641
v -0.025847 -0.079467 -0.108104
v 0.005990 -0.079467 -0.108104
v 0.005990 -0.079467 0.108360
v -0.025847 -0.079467 0.108360
v 0.005990 -0.079467 -0.110386
v -0.025847 -0.079467 -0.110386
v -0.025847 -0.079008 -0.110386
v 0.005990 -0.079008 -0.110386
v -0.025847 -0.079467 0.110642
v 0.005990 -0.079467 0.110641
v 0.005990 -0.079008 0.110641
v -0.025847 -0.079008 0.110642
v 0.005990 -0.079467 -0.109931
v -0.025847 -0.079467 -0.109931
v -0.025847 -0.079467 0.110187
v 0.005990 -0.079467 0.110187
vt 0.000500 0.201585
vt 0.000500 0.101514
vt 0.705805 0.101514
vt 0.705805 0.101514
vt 0.705805 0.201585
vt 0.000500 0.201585
vt 0.000500 0.302599
vt 0.000500 0.202528
vt 0.705805 0.202528
vt 0.705805 0.202528
vt 0.705805 0.302599
vt 0.000500 0.302599
vt 0.010811 0.100571
vt 0.010812 0.000500
vt 0.989189 0.000500
vt 0.989189 0.000500
vt 0.989189 0.100571
vt 0.010811 0.100571
vt 0.710804 0.101514
vt 0.710804 0.201585
vt 0.708750 0.201585
vt 0.708750 0.201585
vt 0.708750 0.101514
vt 0.710804 0.101514
vt 0.710804 0.202528
vt 0.710804 0.302599
vt 0.708750 0.302599
vt 0.708750 0.302599
vt 0.708750 0.202528
vt 0.710804 0.202528
vt 0.000500 0.100571
vt 0.000500 0.000500
vt 0.002554 0.000500
vt 0.002554 0.000500
vt 0.002554 0.100571
vt 0.000500 0.100571
vt 0.999500 0.000500
vt 0.999500 0.100571
vt 0.997446 0.100571
vt 0.997446 0.100571
vt 0.997446 0.000500
vt 0.999500 0.000500
vt 0.989189 0.100571
vt 0.989189 0.000500
vt 0.997446 0.000500
vt 0.997446 0.000500
vt 0.997446 0.100571
vt 0.989189 0.100571
vt 0.010812 0.000500
vt 0.010811 0.100571
vt 0.002554 0.100571
vt 0.002554 0.100571
vt 0.002554 0.000500
vt 0.010812 0.000500
vt 0.705805 0.201585
vt 0.705805 0.101514
vt 0.708750 0.101514
vt 0.708750 0.101514
vt 0.708750 0.201585
vt 0.705805 0.201585
vt 0.705805 0.302599
vt 0.705805 0.202528
vt 0.708750 0.202528
vt 0.708750 0.202528
vt 0.708750 0.302599
vt 0.705805 0.302599
f 1/1 2/2 3/3
f 3/4 4/5 1/6
f 5/7 6/8 7/9
f 7/10 8/11 5/12
f 9/13 10/14 11/15
f 11/16 12/17 9/18
f 13/19 14/20 15/21
f 15/22 16/23 13/24
f 17/25 18/26 19/27
f 19/28 20/29 17/30
f 14/31 13/32 21/33
f 21/34 22/35 14/36
f 18/37 17/38 23/39
f 23/40 24/41 18/42
f 12/43 11/44 24/45
f 24/46 23/47 12/48
f 10/49 9/50 22/51
f 22/52 21/53 10/54
f 4/55 3/56 16/57
f 16/58 15/59 4/60
f 8/61 7/62 20/63
f 20/64 19/65 8/66
