# USD → MuJoCo (world-space)
v 0.044581 -0.077989 -0.099204
v 0.044581 0.073597 -0.099204
v 0.048729 -0.080120 -0.097967
v 0.048729 0.072960 -0.097967
v 0.052934 -0.081343 -0.096714
v 0.052934 0.072574 -0.096713
v 0.057168 -0.081741 -0.095451
v 0.057168 0.072445 -0.095451
v 0.061401 0.072574 -0.094189
v 0.061401 -0.081343 -0.094190
v 0.065606 0.072960 -0.092936
v 0.065606 -0.080120 -0.092936
v 0.069755 -0.077989 -0.091699
v 0.069755 0.073597 -0.091699
v 0.022498 0.072960 -0.009971
v 0.018349 0.073596 -0.011208
v 0.021921 0.072574 0.007322
v 0.026155 0.072445 0.008584
v 0.030388 0.072574 0.009846
v 0.034593 0.072960 0.011100
v 0.038742 0.073596 0.012336
v -0.008515 0.072960 0.094065
v -0.012664 0.073596 0.092828
v -0.008515 -0.080121 0.094065
v -0.012663 -0.077990 0.092828
v -0.004310 0.072574 0.095319
v -0.004310 -0.081343 0.095318
v -0.000077 -0.081741 0.096580
v -0.000077 0.072445 0.096580
v 0.004157 -0.081343 0.097842
v 0.004157 0.072574 0.097842
v 0.008362 0.072960 0.099096
v 0.008362 -0.080121 0.099096
v 0.012510 0.073596 0.100333
v 0.012511 -0.077990 0.100332
v 0.057272 0.072927 -0.097669
v 0.056929 -0.081741 -0.096518
v 0.061514 0.073056 -0.094610
v 0.061577 -0.081343 -0.094779
v 0.026155 0.073127 0.008584
v 0.030372 0.073256 0.009842
v -0.000252 -0.081741 0.097170
v -0.000201 0.072927 0.096998
v 0.003981 -0.081343 0.098432
v 0.004021 0.073056 0.098256
vt 0.000419 0.030999
vt 0.000419 0.999803
vt 0.165029 0.013812
vt 0.165029 0.992618
vt 0.165029 0.013812
vt 0.000419 0.999803
vt 0.165029 0.013812
vt 0.165029 0.992618
vt 0.331883 0.003454
vt 0.331883 0.988288
vt 0.331883 0.003454
vt 0.165029 0.992618
vt 0.499864 -0.000006
vt 0.331883 0.003454
vt 0.499864 0.986842
vt 0.331883 0.988288
vt 0.499864 0.986842
vt 0.331883 0.003454
vt 0.667846 0.988289
vt 0.667846 0.003454
vt 0.499864 0.986842
vt 0.499864 -0.000006
vt 0.499864 0.986842
vt 0.667846 0.003454
vt 0.834702 0.992619
vt 0.834702 0.013813
vt 0.667846 0.988289
vt 0.667846 0.003454
vt 0.667846 0.988289
vt 0.834702 0.013813
vt 0.834702 0.013813
vt 0.834702 0.992619
vt 0.999312 0.031001
vt 0.999312 0.999804
vt 0.999312 0.031001
vt 0.834702 0.992619
vt 0.832733 0.909996
vt 0.999293 0.909998
vt 0.832985 0.181472
vt 0.999545 0.181474
vt 0.832985 0.181472
vt 0.999293 0.909998
vt 0.666171 0.909993
vt 0.832733 0.909996
vt 0.666426 0.181469
vt 0.832985 0.181472
vt 0.666426 0.181469
vt 0.832733 0.909996
vt 0.499609 0.909991
vt 0.666171 0.909993
vt 0.499867 0.181467
vt 0.666426 0.181469
vt 0.499867 0.181467
vt 0.666171 0.909993
vt 0.333308 0.181464
vt 0.333047 0.909988
vt 0.499867 0.181467
vt 0.499609 0.909991
vt 0.499867 0.181467
vt 0.333047 0.909988
vt 0.166749 0.181461
vt 0.166487 0.909985
vt 0.333308 0.181464
vt 0.333047 0.909988
vt 0.333308 0.181464
vt 0.166487 0.909985
vt -0.000073 0.909982
vt 0.166487 0.909985
vt 0.000189 0.181459
vt 0.166749 0.181461
vt 0.000189 0.181459
vt 0.166487 0.909985
vt 0.165029 0.992618
vt 0.000419 0.999803
vt 0.165029 0.013812
vt 0.000419 0.030999
vt 0.165029 0.013812
vt 0.000419 0.999803
vt 0.331883 0.988288
vt 0.165029 0.992618
vt 0.331883 0.003454
vt 0.165029 0.013812
vt 0.331883 0.003454
vt 0.165029 0.992618
vt 0.499864 -0.000006
vt 0.499864 0.986842
vt 0.331883 0.003454
vt 0.331883 0.988288
vt 0.331883 0.003454
vt 0.499864 0.986842
vt 0.667846 0.003454
vt 0.667846 0.988289
vt 0.499864 -0.000006
vt 0.499864 0.986842
vt 0.499864 -0.000006
vt 0.667846 0.988289
vt 0.834702 0.992619
vt 0.667846 0.988289
vt 0.834702 0.013813
vt 0.667846 0.003454
vt 0.834702 0.013813
vt 0.667846 0.988289
vt 0.999312 0.999804
vt 0.834702 0.992619
vt 0.999312 0.031001
vt 0.834702 0.013813
vt 0.999312 0.031001
vt 0.834702 0.992619
vt 0.999545 0.181474
vt 0.999293 0.909998
vt 0.832985 0.181472
vt 0.832733 0.909996
vt 0.832985 0.181472
vt 0.999293 0.909998
vt 0.832985 0.181472
vt 0.832733 0.909996
vt 0.666426 0.181469
vt 0.666171 0.909993
vt 0.666426 0.181469
vt 0.832733 0.909996
vt 0.499609 0.909991
vt 0.499867 0.181467
vt 0.666171 0.909993
vt 0.666426 0.181469
vt 0.666171 0.909993
vt 0.499867 0.181467
vt 0.333047 0.909988
vt 0.333308 0.181464
vt 0.499609 0.909991
vt 0.499867 0.181467
vt 0.499609 0.909991
vt 0.333308 0.181464
vt 0.166487 0.909985
vt 0.166749 0.181461
vt 0.333047 0.909988
vt 0.333308 0.181464
vt 0.333047 0.909988
vt 0.166749 0.181461
vt 0.166749 0.181461
vt 0.166487 0.909985
vt 0.000189 0.181459
vt -0.000073 0.909982
vt 0.000189 0.181459
vt 0.166487 0.909985
vt 0.499864 0.986842
vt 0.499864 0.986842
vt 0.499864 -0.000006
vt 0.499864 -0.000006
vt 0.499864 -0.000006
vt 0.499864 0.986842
vt 0.667846 0.988289
vt 0.667846 0.988289
vt 0.667846 0.003454
vt 0.667846 0.003454
vt 0.667846 0.003454
vt 0.667846 0.988289
vt 0.499864 -0.000006
vt 0.499864 -0.000006
vt 0.499864 0.986842
vt 0.499864 0.986842
vt 0.499864 0.986842
vt 0.499864 -0.000006
vt 0.667846 0.003454
vt 0.667846 0.003454
vt 0.667846 0.988289
vt 0.667846 0.988289
vt 0.667846 0.988289
vt 0.667846 0.003454
vt 0.499867 0.181467
vt 0.499867 0.181467
vt 0.499609 0.909991
vt 0.499609 0.909991
vt 0.499609 0.909991
vt 0.499867 0.181467
vt 0.333308 0.181464
vt 0.333308 0.181464
vt 0.333047 0.909988
vt 0.333047 0.909988
vt 0.333047 0.909988
vt 0.333308 0.181464
vt 0.499609 0.909991
vt 0.499609 0.909991
vt 0.499867 0.181467
vt 0.499867 0.181467
vt 0.499867 0.181467
vt 0.499609 0.909991
vt 0.333047 0.909988
vt 0.333047 0.909988
vt 0.333308 0.181464
vt 0.333308 0.181464
vt 0.333308 0.181464
vt 0.333047 0.909988
vt 0.499864 -0.000006
vt 0.499864 -0.000006
vt 0.499864 0.986842
vt 0.499864 0.986842
vt 0.499864 0.986842
vt 0.499864 -0.000006
vt 0.667846 0.003454
vt 0.667846 0.003454
vt 0.667846 0.988289
vt 0.667846 0.988289
vt 0.667846 0.988289
vt 0.667846 0.003454
vt 0.499864 -0.000006
vt 0.499864 -0.000006
vt 0.499864 0.986842
vt 0.499864 0.986842
vt 0.499864 0.986842
vt 0.499864 -0.000006
vt 0.667846 0.988289
vt 0.667846 0.988289
vt 0.667846 0.003454
vt 0.667846 0.003454
vt 0.667846 0.003454
vt 0.667846 0.988289
vt 0.499609 0.909991
vt 0.499609 0.909991
vt 0.499867 0.181467
vt 0.499867 0.181467
vt 0.499867 0.181467
vt 0.499609 0.909991
vt 0.333047 0.909988
vt 0.333047 0.909988
vt 0.333308 0.181464
vt 0.333308 0.181464
vt 0.333308 0.181464
vt 0.333047 0.909988
vt 0.499609 0.909991
vt 0.499609 0.909991
vt 0.499867 0.181467
vt 0.499867 0.181467
vt 0.499867 0.181467
vt 0.499609 0.909991
vt 0.333308 0.181464
vt 0.333308 0.181464
vt 0.333047 0.909988
vt 0.333047 0.909988
vt 0.333047 0.909988
vt 0.333308 0.181464
f 1/1 2/2 3/3
f 4/4 3/5 2/6
f 3/7 4/8 5/9
f 6/10 5/11 4/12
f 7/13 5/14 8/15
f 6/16 8/17 5/18
f 9/19 10/20 8/21
f 7/22 8/23 10/24
f 11/25 12/26 9/27
f 10/28 9/29 12/30
f 12/31 11/32 13/33
f 14/34 13/35 11/36
f 4/37 2/38 15/39
f 16/40 15/41 2/42
f 6/43 4/44 17/45
f 15/46 17/47 4/48
f 8/49 6/50 18/51
f 17/52 18/53 6/54
f 19/55 9/56 18/57
f 8/58 18/59 9/60
f 20/61 11/62 19/63
f 9/64 19/65 11/66
f 14/67 11/68 21/69
f 20/70 21/71 11/72
f 22/73 23/74 24/75
f 25/76 24/77 23/78
f 26/79 22/80 27/81
f 24/82 27/83 22/84
f 28/85 29/86 27/87
f 26/88 27/89 29/90
f 30/91 31/92 28/93
f 29/94 28/95 31/96
f 32/97 31/98 33/99
f 30/100 33/101 31/102
f 34/103 32/104 35/105
f 33/106 35/107 32/108
f 16/109 23/110 15/111
f 22/112 15/113 23/114
f 15/115 22/116 17/117
f 26/118 17/119 22/120
f 29/121 18/122 26/123
f 17/124 26/125 18/126
f 31/127 19/128 29/129
f 18/130 29/131 19/132
f 32/133 20/134 31/135
f 19/136 31/137 20/138
f 20/139 32/140 21/141
f 34/142 21/143 32/144
f 8/145 36/146 7/147
f 37/148 7/149 36/150
f 9/151 38/152 10/153
f 39/154 10/155 38/156
f 7/157 37/158 8/159
f 36/160 8/161 37/162
f 10/163 39/164 9/165
f 38/166 9/167 39/168
f 18/169 40/170 8/171
f 36/172 8/173 40/174
f 19/175 41/176 9/177
f 38/178 9/179 41/180
f 8/181 36/182 18/183
f 40/184 18/185 36/186
f 9/187 38/188 19/189
f 41/190 19/191 38/192
f 28/193 42/194 29/195
f 43/196 29/197 42/198
f 30/199 44/200 31/201
f 45/202 31/203 44/204
f 42/205 28/206 43/207
f 29/208 43/209 28/210
f 31/211 45/212 30/213
f 44/214 30/215 45/216
f 29/217 43/218 18/219
f 40/220 18/221 43/222
f 31/223 45/224 19/225
f 41/226 19/227 45/228
f 43/229 29/230 40/231
f 18/232 40/233 29/234
f 19/235 41/236 31/237
f 45/238 31/239 41/240
