# USD → MuJoCo (world-space, simplified)
v 0.045844 -0.014736 0.003304
v 0.046796 -0.014737 0.003179
v 0.047618 -0.014680 0.003692
v 0.047229 -0.014681 0.003841
v 0.047782 -0.014733 0.002775
v 0.048338 -0.014678 0.003276
v 0.047989 -0.014679 0.003503
v 0.048308 -0.014730 0.002346
v 0.048662 -0.014676 0.003014
v 0.048956 -0.014674 0.002719
v 0.048850 -0.014727 0.001555
v 0.049445 -0.014670 0.002046
v 0.049218 -0.014672 0.002396
v 0.049783 -0.014666 0.001287
v 0.049634 -0.014668 0.001675
v 0.049217 -0.014719 0.000266
v 0.049956 -0.014660 0.000473
v 0.049891 -0.014663 0.000885
v 0.049957 -0.014655 -0.000356
v 0.049978 -0.014658 0.000057
v 0.049136 -0.014711 -0.000798
v 0.048890 -0.014707 -0.001431
v 0.049445 -0.014646 -0.001932
v 0.049634 -0.014648 -0.001561
v 0.049218 -0.014644 -0.002281
v 0.048517 -0.014704 -0.001999
v 0.048958 -0.014642 -0.002603
v 0.048035 -0.014701 -0.002478
v 0.048338 -0.014638 -0.003161
v 0.048662 -0.014640 -0.002899
v 0.047194 -0.014699 -0.002935
v 0.047618 -0.014636 -0.003577
v 0.047989 -0.014637 -0.003388
v 0.046830 -0.014634 -0.003834
v 0.047229 -0.014635 -0.003726
v 0.046156 -0.014696 -0.003190
v 0.045477 -0.014696 -0.003151
v 0.045173 -0.014634 -0.003834
v 0.045584 -0.014634 -0.003899
v 0.044822 -0.014698 -0.002972
v 0.044771 -0.014635 -0.003726
v 0.044237 -0.014705 -0.002502
v 0.043379 -0.014693 -0.002302
v 0.043338 -0.014640 -0.002899
v 0.043192 -0.014716 -0.001339
v 0.042787 -0.014713 -0.000437
v 0.042811 -0.014721 0.000522
v 0.042782 -0.014672 0.002396
v 0.043281 -0.014729 0.001782
v 0.043042 -0.014674 0.002718
v 0.044004 -0.014739 0.002274
v 0.043927 -0.014725 0.002910
v 0.043336 -0.014676 0.003012
v 0.044508 -0.014741 0.002641
v 0.044822 -0.014735 0.003087
v 0.045267 -0.014729 0.003506
v 0.046000 -0.014747 0.000057
v 0.046000 0.011822 0.001974
v 0.046155 0.010695 0.001689
v 0.046000 0.009253 0.000205
v 0.045845 0.010695 0.001689
v 0.046364 0.011822 0.001936
v 0.046458 0.010695 0.001624
v 0.046713 0.011823 0.001822
v 0.046742 0.010696 0.001498
v 0.047031 0.011824 0.001639
v 0.046993 0.010697 0.001316
v 0.047303 0.011826 0.001394
v 0.047200 0.010699 0.001086
v 0.047519 0.011827 0.001097
v 0.047355 0.010700 0.000817
v 0.047668 0.011829 0.000762
v 0.047451 0.010702 0.000522
v 0.047744 0.011832 0.000404
v 0.047484 0.010704 0.000214
v 0.047744 0.011834 0.000037
v 0.047451 0.010706 -0.000095
v 0.047668 0.011836 -0.000321
v 0.047355 0.010707 -0.000390
v 0.047519 0.011838 -0.000656
v 0.047200 0.010709 -0.000658
v 0.047303 0.011840 -0.000953
v 0.046993 0.010711 -0.000889
v 0.047031 0.011842 -0.001198
v 0.046742 0.010712 -0.001071
v 0.046713 0.011843 -0.001381
v 0.046458 0.010713 -0.001197
v 0.046364 0.011844 -0.001495
v 0.046155 0.010713 -0.001262
v 0.046000 0.011844 -0.001533
v 0.045845 0.010713 -0.001262
v 0.045635 0.011844 -0.001495
v 0.045541 0.010713 -0.001197
v 0.045287 0.011843 -0.001381
v 0.045258 0.010712 -0.001071
v 0.044969 0.011842 -0.001198
v 0.045007 0.010711 -0.000889
v 0.044697 0.011840 -0.000953
v 0.044800 0.010709 -0.000658
v 0.044481 0.011838 -0.000656
v 0.044645 0.010707 -0.000390
v 0.044332 0.011836 -0.000321
v 0.044549 0.010706 -0.000095
v 0.044256 0.011834 0.000037
v 0.044516 0.010704 0.000214
v 0.044256 0.011832 0.000404
v 0.044549 0.010702 0.000522
v 0.044332 0.011829 0.000762
v 0.044645 0.010700 0.000817
v 0.044481 0.011827 0.001097
v 0.044800 0.010699 0.001086
v 0.044697 0.011826 0.001394
v 0.045007 0.010697 0.001316
v 0.044969 0.011824 0.001639
v 0.045258 0.010696 0.001498
v 0.045287 0.011823 0.001822
v 0.045541 0.010695 0.001624
v 0.045635 0.011822 0.001936
v -0.045807 -0.014744 0.003190
v -0.044822 -0.014735 0.003087
v -0.044382 -0.014680 0.003692
v -0.044771 -0.014681 0.003841
v -0.044001 -0.014733 0.002580
v -0.044011 -0.014679 0.003503
v -0.043270 -0.014730 0.001543
v -0.042782 -0.014672 0.002396
v -0.042756 -0.014720 0.000680
v -0.042044 -0.014661 0.000473
v -0.042755 -0.014715 -0.000127
v -0.042044 -0.014656 -0.000358
v -0.042022 -0.014658 0.000058
v -0.042864 -0.014711 -0.000798
v -0.042555 -0.014646 -0.001932
v -0.042366 -0.014648 -0.001561
v -0.042782 -0.014644 -0.002281
v -0.043390 -0.014714 -0.001681
v -0.043042 -0.014642 -0.002603
v -0.043965 -0.014701 -0.002478
v -0.043662 -0.014638 -0.003161
v -0.043338 -0.014640 -0.002899
v -0.044806 -0.014699 -0.002935
v -0.044382 -0.014636 -0.003577
v -0.044011 -0.014637 -0.003388
v -0.045170 -0.014634 -0.003834
v -0.044771 -0.014635 -0.003726
v -0.045844 -0.014696 -0.003190
v -0.046523 -0.014696 -0.003151
v -0.046827 -0.014634 -0.003834
v -0.046416 -0.014634 -0.003899
v -0.047178 -0.014698 -0.002972
v -0.047618 -0.014636 -0.003577
v -0.047229 -0.014635 -0.003726
v -0.048002 -0.014709 -0.002359
v -0.048734 -0.014705 -0.001701
v -0.049101 -0.014712 -0.000816
v -0.049245 -0.014717 0.000241
v -0.049957 -0.014661 0.000471
v -0.049978 -0.014658 0.000057
v -0.049136 -0.014721 0.000912
v -0.049783 -0.014666 0.001287
v -0.049891 -0.014663 0.000885
v -0.049634 -0.014668 0.001676
v -0.048719 -0.014729 0.001782
v -0.048956 -0.014674 0.002719
v -0.049218 -0.014672 0.002396
v -0.047763 -0.014736 0.002616
v -0.048340 -0.014678 0.003275
v -0.048662 -0.014676 0.003014
v -0.047992 -0.014679 0.003502
v -0.047178 -0.014735 0.003087
v -0.046733 -0.014729 0.003506
v -0.046000 -0.014747 0.000057
v -0.046000 0.011822 0.001974
v -0.045845 0.010695 0.001689
v -0.046000 0.009252 0.000205
v -0.046155 0.010695 0.001689
v -0.045635 0.011822 0.001936
v -0.045542 0.010695 0.001624
v -0.045287 0.011823 0.001822
v -0.045258 0.010696 0.001498
v -0.044969 0.011824 0.001639
v -0.045007 0.010697 0.001316
v -0.044697 0.011826 0.001394
v -0.044800 0.010698 0.001086
v -0.044481 0.011827 0.001097
v -0.044645 0.010700 0.000817
v -0.044332 0.011829 0.000762
v -0.044549 0.010702 0.000522
v -0.044256 0.011832 0.000404
v -0.044516 0.010704 0.000214
v -0.044256 0.011834 0.000037
v -0.044549 0.010706 -0.000095
v -0.044332 0.011836 -0.000321
v -0.044645 0.010707 -0.000390
v -0.044481 0.011838 -0.000656
v -0.044800 0.010709 -0.000658
v -0.044697 0.011840 -0.000953
v -0.045007 0.010711 -0.000889
v -0.044969 0.011842 -0.001198
v -0.045258 0.010712 -0.001071
v -0.045287 0.011843 -0.001381
v -0.045542 0.010713 -0.001197
v -0.045635 0.011843 -0.001495
v -0.045845 0.010713 -0.001262
v -0.046000 0.011844 -0.001533
v -0.046155 0.010713 -0.001262
v -0.046365 0.011843 -0.001495
v -0.046458 0.010713 -0.001197
v -0.046713 0.011843 -0.001381
v -0.046742 0.010712 -0.001071
v -0.047031 0.011842 -0.001198
v -0.046993 0.010711 -0.000889
v -0.047303 0.011840 -0.000953
v -0.047200 0.010709 -0.000658
v -0.047519 0.011838 -0.000656
v -0.047355 0.010707 -0.000390
v -0.047668 0.011836 -0.000321
v -0.047451 0.010706 -0.000095
v -0.047744 0.011834 0.000037
v -0.047484 0.010704 0.000214
v -0.047744 0.011832 0.000404
v -0.047451 0.010702 0.000522
v -0.047668 0.011829 0.000762
v -0.047355 0.010700 0.000817
v -0.047519 0.011827 0.001097
v -0.047200 0.010698 0.001086
v -0.047303 0.011826 0.001394
v -0.046993 0.010697 0.001316
v -0.047031 0.011824 0.001639
v -0.046742 0.010696 0.001498
v -0.046713 0.011823 0.001822
v -0.046458 0.010695 0.001624
v -0.046365 0.011822 0.001936
v 0.049097 0.021240 0.002394
v 0.048306 0.021245 0.000748
v 0.045915 0.021262 -0.001982
v 0.043396 0.021269 -0.002314
v 0.044465 0.021239 0.002076
v -0.042609 0.021241 0.001929
v -0.042615 0.021259 -0.001283
v -0.049361 0.021261 -0.001084
v -0.049292 0.021242 0.001951
v -0.044811 0.021230 0.003858
v 0.046340 0.020857 0.002238
v 0.046897 0.020883 0.002036
v 0.047428 0.020868 0.001664
v 0.047713 0.020888 0.001265
v 0.047713 0.015052 0.001229
v 0.047600 0.015051 0.001403
v 0.047854 0.020909 0.000960
v 0.047881 0.015055 0.000852
v 0.047807 0.015054 0.001045
v 0.047965 0.020893 0.000431
v 0.047967 0.015057 0.000447
v 0.047935 0.015056 0.000652
v 0.047950 0.020915 -0.000059
v 0.047978 0.015059 0.000240
v 0.047844 0.020898 -0.000432
v 0.047529 0.020881 -0.000999
v 0.047255 0.020975 -0.001273
v 0.046611 0.020905 -0.001605
v 0.046309 0.020917 -0.001676
v 0.045871 0.020917 -0.001696
v 0.045071 0.020878 -0.001485
v 0.044676 0.020903 -0.001194
v 0.044400 0.015066 -0.000922
v 0.044130 0.020917 -0.000358
v 0.044119 0.015062 -0.000371
v 0.044033 0.020895 0.000070
v 0.044033 0.015060 0.000034
v 0.044065 0.015061 -0.000171
v 0.044026 0.020904 0.000380
v 0.044133 0.020909 0.000917
v 0.044355 0.020907 0.001376
v 0.044602 0.020905 0.001674
v 0.045124 0.020918 0.002065
v 0.045690 0.020899 0.002230
v -0.045897 0.020904 0.002251
v -0.045489 0.020882 0.002184
v -0.045103 0.020894 0.002037
v -0.044572 0.020869 0.001664
v -0.044227 0.020900 0.001151
v -0.044287 0.015052 0.001229
v -0.044400 0.015051 0.001403
v -0.044059 0.020930 0.000663
v -0.044119 0.015055 0.000852
v -0.044193 0.015054 0.001045
v -0.044033 0.015057 0.000447
v -0.044065 0.015056 0.000652
v -0.044022 0.020894 0.000276
v -0.044022 0.015059 0.000240
v -0.044209 0.020910 -0.000549
v -0.044463 0.020924 -0.000968
v -0.044939 0.020983 -0.001408
v -0.045691 0.020906 -0.001675
v -0.046000 0.020906 -0.001702
v -0.046309 0.020906 -0.001675
v -0.046732 0.020916 -0.001559
v -0.047685 0.020873 -0.000785
v -0.047600 0.015066 -0.000922
v -0.047909 0.020908 -0.000235
v -0.047881 0.015062 -0.000371
v -0.047967 0.015060 0.000034
v -0.047935 0.015061 -0.000171
v -0.047952 0.020903 0.000586
v -0.047760 0.020888 0.001173
v -0.047569 0.020909 0.001480
v -0.047470 0.020886 0.001600
v -0.047324 0.020885 0.001746
v -0.047076 0.020884 0.001933
v -0.046488 0.020855 0.002207
v 0.048128 0.021174 0.003480
v 0.049949 0.021048 0.000706
v 0.044124 0.021184 -0.003117
v 0.043273 0.021161 -0.002448
v 0.042121 0.021036 -0.000580
v 0.042051 0.021016 -0.000151
v 0.043199 0.021023 0.003100
v 0.043652 0.021005 0.003480
v 0.045395 0.020992 0.004208
v -0.043299 0.021140 0.003075
v -0.042189 0.021176 0.000075
v -0.042272 0.021244 -0.000251
v 0.047852 0.021134 0.001183
v 0.048129 0.021202 -0.000132
v 0.045498 0.020967 -0.001645
v 0.044035 0.021108 0.000892
v 0.044554 0.021080 0.001719
v -0.045983 0.021210 0.002492
v -0.044026 0.021017 0.000040
v -0.045092 0.021149 -0.001613
v -0.045857 0.021047 -0.001725
v -0.046497 0.021057 -0.001674
v -0.047919 0.021122 -0.000459
v 0.049817 0.021230 0.000368
v 0.045998 0.021275 -0.003450
v 0.045485 0.021206 -0.003543
v 0.042684 0.021235 -0.001612
v 0.044019 0.021229 0.003446
v -0.042158 0.021155 0.000478
v -0.044067 0.021203 -0.003052
v -0.045191 0.021106 -0.003610
v -0.048741 0.021254 -0.002295
v -0.049596 0.021180 -0.001187
v -0.049681 0.021159 0.001556
v -0.049308 0.021148 0.002306
v -0.046701 0.021211 0.003997
v 0.048058 0.021193 0.000729
v 0.046921 0.020943 -0.001475
v 0.044400 0.020931 -0.000900
v 0.045564 0.021130 0.002303
v -0.044307 0.021112 0.001445
v -0.046697 0.021026 0.002167
v -0.042370 0.020992 0.001895
v -0.049885 0.021043 -0.000542
v -0.049847 0.021170 -0.000204
v -0.049972 0.021013 0.000279
v -0.049778 0.021000 0.001511
v 0.047376 0.021206 0.001943
v 0.047314 0.021109 0.001859
v 0.044024 0.021248 -0.000779
v 0.043950 0.021131 0.000087
v -0.043844 0.021220 0.000568
v -0.044031 0.021258 -0.000925
v -0.046415 0.021264 -0.001946
v -0.048046 0.021110 0.000346
v 0.049475 0.021240 0.001700
v 0.048685 0.021268 -0.002235
v 0.044233 0.021260 -0.003055
v -0.044831 0.021274 -0.003305
v -0.047295 0.021269 -0.003256
v -0.047970 0.020917 0.000147
v -0.047897 0.020928 0.000852
v -0.047212 0.021019 0.001877
v -0.045823 0.021046 0.002313
v 0.049558 0.021166 -0.001313
v 0.044414 0.021052 -0.003365
v 0.042073 0.021017 0.000907
v 0.042774 0.021008 0.002595
v -0.046386 0.021192 -0.003584
v -0.049437 0.021075 -0.001712
v 0.047445 0.021253 -0.001442
v 0.044879 0.021150 -0.001441
v 0.044361 0.021216 -0.001115
v 0.044266 0.021122 -0.000875
v -0.044181 0.021127 -0.000666
v -0.047669 0.021088 0.001464
v 0.046296 0.021177 0.004041
v 0.047355 0.021229 0.003758
v 0.048680 0.021209 -0.002484
v 0.047557 0.021260 -0.003142
v 0.046893 0.021197 -0.003433
v 0.042230 0.021250 0.000499
v 0.042761 0.021216 0.002251
v 0.045069 0.021222 0.003942
v -0.042370 0.021079 -0.001332
v -0.043013 0.021224 -0.002136
v -0.046937 0.021214 -0.003451
v -0.048669 0.021101 -0.002662
v -0.049719 0.021056 -0.001130
v -0.049738 0.021244 0.000361
v -0.048319 0.021215 0.003289
v 0.046365 0.021016 0.002243
v 0.047752 0.021069 -0.000754
v 0.046315 0.021102 -0.001745
v 0.044980 0.021127 0.002064
v -0.044888 0.021131 0.002021
v -0.045287 0.020965 -0.001578
v -0.047166 0.020942 -0.001322
v -0.047413 0.021173 -0.001308
v 0.046002 0.021007 0.004252
v 0.046417 0.021008 0.004230
v 0.046828 0.021008 0.004164
v 0.047230 0.021009 0.004056
v 0.047619 0.021010 0.003907
v 0.047989 0.021011 0.003718
v 0.048338 0.021012 0.003491
v 0.048661 0.021005 0.003229
v 0.048955 0.021006 0.002935
v 0.049217 0.021035 0.002611
v 0.049443 0.021010 0.002263
v 0.049632 0.021013 0.001892
v 0.049781 0.021015 0.001504
v 0.049888 0.021018 0.001102
v 0.049972 0.020953 0.000277
v 0.049955 0.016497 -0.000166
v 0.049926 0.021035 -0.000358
v 0.049890 0.016499 -0.000578
v 0.049782 0.016502 -0.000980
v 0.049782 0.021058 -0.000937
v 0.048949 0.020953 -0.002387
v 0.048658 0.021041 -0.002678
v 0.048334 0.021061 -0.002940
v 0.047987 0.021035 -0.003165
v 0.047614 0.020947 -0.003357
v 0.047248 0.021046 -0.003494
v 0.046827 0.016518 -0.003641
v 0.046850 0.021040 -0.003603
v 0.046413 0.021037 -0.003673
v 0.046416 0.016519 -0.003706
v 0.046000 0.016519 -0.003727
v 0.045998 0.021037 -0.003695
v 0.045578 0.021032 -0.003675
v 0.044787 0.021037 -0.003505
v 0.044771 0.009859 -0.003574
v 0.044382 0.016517 -0.003384
v 0.044010 0.021033 -0.003163
v 0.043659 0.020957 -0.002935
v 0.043356 0.021060 -0.002687
v 0.043339 0.009854 -0.002747
v 0.043045 0.016510 -0.002412
v 0.042896 0.021040 -0.002209
v 0.042783 0.016509 -0.002088
v 0.042556 0.021023 -0.001707
v 0.042377 0.021023 -0.001351
v 0.042367 0.016504 -0.001368
v 0.042218 0.016502 -0.000980
v 0.042222 0.020960 -0.000951
v 0.042110 0.016499 -0.000578
v 0.042045 0.016497 -0.000166
v 0.042026 0.020937 0.000283
v 0.042045 0.016491 0.000665
v 0.042110 0.016489 0.001076
v 0.042222 0.020928 0.001510
v 0.042364 0.021031 0.001876
v 0.042367 0.016484 0.001867
v 0.042559 0.021010 0.002266
v 0.043045 0.016478 0.002910
v 0.043339 0.016476 0.003204
v 0.043663 0.016474 0.003466
v 0.044018 0.020915 0.003722
v 0.044382 0.016472 0.003882
v 0.044584 0.021032 0.003993
v 0.044771 0.016471 0.004031
v 0.045173 0.016470 0.004139
v 0.045584 0.016470 0.004204
v -0.045998 0.020998 0.004252
v -0.045599 0.021027 0.004229
v -0.045584 0.016469 0.004204
v -0.045173 0.016470 0.004139
v -0.044961 0.021015 0.004116
v -0.044771 0.016471 0.004031
v -0.044381 0.021010 0.003907
v -0.044032 0.021011 0.003727
v -0.044011 0.009814 0.003653
v -0.043663 0.016474 0.003466
v -0.043489 0.021020 0.003361
v -0.043339 0.016476 0.003204
v -0.043045 0.021016 0.002935
v -0.042782 0.009821 0.002546
v -0.042556 0.016482 0.002237
v -0.042646 0.020989 0.002414
v -0.042218 0.020929 0.001499
v -0.042112 0.021018 0.001101
v -0.042051 0.021048 0.000706
v -0.042028 0.021032 0.000298
v -0.042047 0.021025 -0.000117
v -0.042110 0.021027 -0.000528
v -0.042110 0.016499 -0.000578
v -0.042218 0.016502 -0.000980
v -0.042216 0.021030 -0.000930
v -0.042367 0.016504 -0.001368
v -0.042559 0.021035 -0.001712
v -0.042775 0.021030 -0.002042
v -0.043048 0.021032 -0.002384
v -0.043345 0.020955 -0.002681
v -0.043666 0.021060 -0.002940
v -0.044015 0.021037 -0.003166
v -0.044385 0.021038 -0.003355
v -0.044752 0.021046 -0.003494
v -0.045173 0.016518 -0.003641
v -0.045566 0.021066 -0.003671
v -0.045584 0.016519 -0.003706
v -0.046000 0.016519 -0.003727
v -0.045982 0.021066 -0.003695
v -0.046418 0.021047 -0.003675
v -0.046832 0.020960 -0.003610
v -0.047230 0.021046 -0.003502
v -0.047618 0.009858 -0.003425
v -0.047599 0.021064 -0.003359
v -0.047970 0.021063 -0.003172
v -0.047988 0.016515 -0.003195
v -0.048337 0.016514 -0.002968
v -0.048320 0.021061 -0.002947
v -0.048661 0.016512 -0.002706
v -0.048955 0.016510 -0.002412
v -0.048940 0.021058 -0.002394
v -0.049201 0.021037 -0.002075
v -0.049217 0.016509 -0.002088
v -0.049444 0.016506 -0.001739
v -0.049633 0.016504 -0.001368
v -0.049782 0.016502 -0.000980
v -0.049890 0.016499 -0.000578
v -0.049953 0.020939 -0.000133
v -0.049955 0.016491 0.000665
v -0.049922 0.021011 0.000932
v -0.049890 0.016489 0.001076
v -0.049634 0.009826 0.001826
v -0.049444 0.016482 0.002237
v -0.049527 0.020947 0.002115
v -0.049212 0.020922 0.002618
v -0.048952 0.021006 0.002938
v -0.048674 0.021005 0.003215
v -0.048337 0.016474 0.003466
v -0.048156 0.021010 0.003619
v -0.047988 0.016473 0.003693
v -0.047615 0.021000 0.003909
v -0.047241 0.021028 0.004050
v -0.047229 0.016471 0.004031
v -0.046827 0.016470 0.004139
v -0.046610 0.021006 0.004207
v -0.046416 0.016469 0.004204
v 0.046370 0.021220 0.002492
v 0.044620 0.021257 -0.001520
v 0.043770 0.021243 0.000306
v -0.044392 0.021237 0.002040
v -0.044945 0.021254 -0.001702
v -0.048044 0.021248 -0.000799
v -0.048052 0.021221 0.001104
v -0.047163 0.021235 0.002210
v 0.046825 -0.014682 0.003950
v 0.046413 -0.014682 0.004014
v 0.045997 -0.014682 0.004036
v 0.047618 0.003155 0.003801
v 0.047229 0.003154 0.003951
v 0.048338 0.003158 0.003386
v 0.047989 0.003156 0.003612
v 0.048956 0.003161 0.002829
v 0.048662 0.003159 0.003123
v 0.049445 0.003165 0.002156
v 0.049218 0.003163 0.002505
v 0.049783 0.003170 0.001397
v 0.049634 0.003167 0.001785
v 0.049956 0.009833 0.000624
v 0.049891 0.003172 0.000994
v 0.049977 0.009836 0.000208
v 0.049785 -0.014650 -0.001170
v 0.049892 -0.014653 -0.000767
v 0.049441 0.020936 -0.001715
v 0.049631 0.020934 -0.001344
v 0.049214 0.021006 -0.002063
v 0.048338 0.003197 -0.003051
v 0.048662 0.003195 -0.002789
v 0.047989 0.003198 -0.003278
v 0.047229 0.009859 -0.003574
v 0.046003 -0.014634 -0.003921
v 0.046418 -0.014634 -0.003899
v 0.045170 0.020948 -0.003612
v 0.045584 0.003201 -0.003789
v 0.044384 -0.014635 -0.003578
v 0.043663 -0.014638 -0.003163
v 0.044013 -0.014637 -0.003389
v 0.043045 -0.014642 -0.002607
v 0.042556 -0.014645 -0.001934
v 0.042783 -0.014644 -0.002283
v 0.042217 -0.014650 -0.001174
v 0.042366 -0.014648 -0.001563
v 0.042043 -0.014655 -0.000361
v 0.042109 -0.014653 -0.000772
v 0.042043 -0.014660 0.000471
v 0.042021 -0.014658 0.000055
v 0.042215 -0.014665 0.001284
v 0.042108 -0.014663 0.000882
v 0.042553 -0.014670 0.002044
v 0.042364 -0.014668 0.001674
v 0.042782 0.009821 0.002546
v 0.043660 -0.014678 0.003275
v 0.044379 -0.014680 0.003691
v 0.044008 -0.014679 0.003502
v 0.045170 -0.014682 0.003948
v 0.044768 -0.014681 0.003841
v 0.045582 -0.014682 0.004014
v -0.045175 -0.014682 0.003950
v -0.045587 -0.014682 0.004014
v -0.046003 -0.014682 0.004036
v -0.044382 0.003155 0.003801
v -0.044771 0.003154 0.003951
v -0.043663 -0.014678 0.003277
v -0.043045 -0.014674 0.002721
v -0.043340 -0.014676 0.003016
v -0.042556 -0.014670 0.002049
v -0.042217 -0.014666 0.001289
v -0.042366 -0.014668 0.001678
v -0.042044 0.009833 0.000624
v -0.042109 -0.014663 0.000887
v -0.042044 0.009838 -0.000208
v -0.042023 0.009836 0.000208
v -0.042215 -0.014650 -0.001170
v -0.042108 -0.014653 -0.000767
v -0.042555 0.003190 -0.001822
v -0.042366 0.003187 -0.001451
v -0.042782 0.009850 -0.002130
v -0.043662 0.003197 -0.003051
v -0.043338 0.003195 -0.002789
v -0.044382 0.003200 -0.003467
v -0.044011 0.003198 -0.003278
v -0.044771 0.009859 -0.003574
v -0.045997 -0.014634 -0.003921
v -0.045582 -0.014634 -0.003899
v -0.046827 0.003201 -0.003724
v -0.046416 0.003201 -0.003789
v -0.047229 0.003201 -0.003616
v -0.048336 -0.014638 -0.003163
v -0.047987 -0.014637 -0.003389
v -0.048955 -0.014642 -0.002607
v -0.048660 -0.014640 -0.002901
v -0.049445 -0.014646 -0.001934
v -0.049217 -0.014644 -0.002283
v -0.049783 -0.014650 -0.001174
v -0.049634 -0.014648 -0.001563
v -0.049957 -0.014655 -0.000361
v -0.049891 -0.014653 -0.000772
v -0.049977 0.009836 0.000208
v -0.049783 0.003170 0.001397
v -0.049891 0.003172 0.000994
v -0.049447 -0.014670 0.002044
v -0.048956 0.003161 0.002829
v -0.049218 0.003163 0.002505
v -0.048661 0.009817 0.003164
v -0.047621 -0.014680 0.003691
v -0.046830 -0.014682 0.003948
v -0.047232 -0.014681 0.003841
v -0.046418 -0.014682 0.004014
v 0.046411 0.015047 0.002175
v 0.046207 0.015047 0.002208
v 0.046000 0.015047 0.002218
v 0.046805 0.015047 0.002047
v 0.046611 0.015047 0.002122
v 0.047163 0.015049 0.001841
v 0.046989 0.015048 0.001953
v 0.047470 0.015050 0.001564
v 0.047324 0.015049 0.001710
v 0.047967 0.015060 0.000034
v 0.047881 0.015062 -0.000371
v 0.047935 0.015061 -0.000171
v 0.047713 0.015065 -0.000749
v 0.047807 0.015063 -0.000564
v 0.047470 0.015067 -0.001083
v 0.047600 0.015066 -0.000922
v 0.047163 0.015068 -0.001360
v 0.047324 0.015067 -0.001230
v 0.046805 0.015069 -0.001567
v 0.046989 0.015069 -0.001473
v 0.046411 0.015071 -0.001695
v 0.046611 0.015070 -0.001641
v 0.046000 0.015071 -0.001738
v 0.046207 0.015071 -0.001727
v 0.045589 0.015070 -0.001694
v 0.045793 0.015071 -0.001727
v 0.045195 0.015069 -0.001567
v 0.045389 0.015070 -0.001641
v 0.044837 0.015068 -0.001360
v 0.045011 0.015069 -0.001473
v 0.044530 0.015066 -0.001083
v 0.044676 0.015067 -0.001230
v 0.044287 0.015065 -0.000749
v 0.044193 0.015063 -0.000564
v 0.044033 0.015057 0.000447
v 0.044022 0.015059 0.000240
v 0.044119 0.015055 0.000852
v 0.044065 0.015056 0.000652
v 0.044287 0.015052 0.001229
v 0.044193 0.015054 0.001045
v 0.044530 0.015050 0.001564
v 0.044400 0.015051 0.001403
v 0.044837 0.015049 0.001841
v 0.044676 0.015049 0.001710
v 0.045195 0.015047 0.002047
v 0.045011 0.015048 0.001953
v 0.045589 0.015046 0.002175
v 0.045389 0.015047 0.002122
v 0.045793 0.015047 0.002208
v -0.045589 0.015046 0.002175
v -0.045793 0.015047 0.002208
v -0.046000 0.015047 0.002218
v -0.045195 0.015047 0.002047
v -0.045389 0.015047 0.002122
v -0.044837 0.015049 0.001841
v -0.045011 0.015048 0.001953
v -0.044530 0.015050 0.001564
v -0.044676 0.015049 0.001710
v -0.044033 0.015060 0.000034
v -0.044119 0.015062 -0.000371
v -0.044065 0.015061 -0.000171
v -0.044287 0.015065 -0.000749
v -0.044193 0.015063 -0.000564
v -0.044530 0.015067 -0.001083
v -0.044400 0.015066 -0.000922
v -0.044837 0.015068 -0.001360
v -0.044676 0.015067 -0.001230
v -0.045195 0.015069 -0.001567
v -0.045011 0.015069 -0.001473
v -0.045589 0.015070 -0.001695
v -0.045389 0.015070 -0.001641
v -0.046000 0.015071 -0.001738
v -0.045793 0.015071 -0.001727
v -0.046411 0.015070 -0.001694
v -0.046207 0.015071 -0.001727
v -0.046805 0.015069 -0.001567
v -0.046611 0.015070 -0.001641
v -0.047163 0.015068 -0.001360
v -0.046989 0.015069 -0.001473
v -0.047470 0.015066 -0.001083
v -0.047324 0.015067 -0.001230
v -0.047713 0.015065 -0.000749
v -0.047807 0.015063 -0.000564
v -0.047967 0.015057 0.000447
v -0.047978 0.015059 0.000240
v -0.047881 0.015055 0.000852
v -0.047935 0.015056 0.000652
v -0.047713 0.015052 0.001229
v -0.047807 0.015054 0.001045
v -0.047470 0.015050 0.001564
v -0.047600 0.015051 0.001403
v -0.047163 0.015049 0.001841
v -0.047324 0.015049 0.001710
v -0.046805 0.015047 0.002047
v -0.046989 0.015048 0.001953
v -0.046411 0.015046 0.002175
v -0.046611 0.015047 0.002122
v -0.046207 0.015047 0.002208
v -0.073139 -0.016390 0.005819
v -0.086612 -0.015364 0.005906
v -0.086612 -0.016389 0.005815
v -0.073139 -0.017385 0.005553
v -0.086612 -0.017384 0.005549
v -0.073139 -0.015364 0.005910
v -0.073139 -0.018318 0.005117
v -0.086612 -0.018316 0.005114
v -0.073139 -0.019162 0.004527
v -0.086612 -0.019160 0.004524
v 0.073138 -0.018318 0.005117
v -0.073139 -0.019890 0.003798
v -0.086612 -0.019887 0.003796
v -0.073139 -0.020482 0.002955
v -0.086612 -0.020478 0.002953
v -0.073139 -0.020916 0.002021
v -0.086612 -0.020913 0.002020
v -0.073139 -0.021183 0.001026
v -0.086612 -0.021180 0.001025
v 0.073138 -0.020916 0.002021
v -0.073139 -0.021273 0.000000
v -0.086612 -0.021269 0.000000
v -0.073139 -0.021183 -0.001026
v -0.086612 -0.021180 -0.001025
v -0.073139 -0.020916 -0.002021
v -0.086612 -0.020913 -0.002020
v -0.073139 -0.020482 -0.002955
v -0.086612 -0.020478 -0.002953
v -0.086612 -0.019887 -0.003796
v -0.086612 -0.019160 -0.004524
v -0.073139 -0.018318 -0.005117
v -0.086612 -0.018316 -0.005114
v -0.073139 -0.017385 -0.005553
v -0.086612 -0.017384 -0.005549
v -0.073139 -0.016390 -0.005819
v -0.086612 -0.016389 -0.005815
v -0.086612 -0.015364 -0.005906
v -0.086612 -0.014338 -0.005815
v -0.086612 -0.013344 -0.005549
v -0.073139 -0.012409 -0.005117
v -0.086612 -0.012411 -0.005114
v -0.073087 -0.011565 -0.004527
v -0.086612 -0.011568 -0.004524
v -0.072286 -0.010837 -0.003798
v -0.086612 -0.010840 -0.003796
v -0.073139 -0.010246 -0.002955
v -0.086612 -0.010249 -0.002953
v -0.073139 -0.009811 -0.002021
v -0.086612 -0.009815 -0.002020
v -0.073139 -0.009544 -0.001026
v -0.086612 -0.009548 -0.001025
v 0.073138 -0.009544 -0.001026
v -0.073139 -0.009455 0.000000
v -0.086612 -0.009459 0.000000
v -0.073139 -0.009544 0.001026
v -0.086612 -0.009548 0.001025
v 0.073138 -0.009544 0.001026
v -0.073139 -0.009811 0.002021
v -0.086612 -0.009815 0.002020
v -0.073057 -0.010246 0.002955
v -0.086612 -0.010249 0.002953
v -0.072265 -0.010837 0.003798
v -0.086612 -0.010840 0.003796
v -0.073139 -0.011565 0.004527
v -0.086612 -0.011568 0.004524
v -0.086612 -0.012411 0.005114
v -0.073139 -0.013342 0.005553
v -0.086612 -0.013344 0.005549
v -0.073139 -0.014338 0.005819
v -0.086612 -0.014338 0.005815
v 0.073138 -0.019890 0.003798
v 0.073138 -0.021273 0.000000
v 0.073138 -0.016390 -0.005819
v -0.073139 -0.014338 -0.005819
v 0.073138 -0.012409 -0.005117
v -0.073139 -0.019162 -0.004527
v -0.073139 -0.019890 -0.003798
v -0.073139 -0.015364 -0.005910
v -0.073139 -0.013342 -0.005553
v -0.073139 -0.012409 0.005117
v 0.073138 -0.016390 0.005819
v 0.073138 -0.015364 0.005910
v 0.073138 -0.017385 0.005553
v 0.086612 -0.017384 0.005549
v 0.086612 -0.016389 0.005815
v 0.086612 -0.015364 0.005906
v 0.073138 -0.019162 0.004527
v 0.086612 -0.019160 0.004524
v 0.086612 -0.018316 0.005114
v 0.073138 -0.020482 0.002955
v 0.086612 -0.020478 0.002953
v 0.086612 -0.019887 0.003796
v 0.073138 -0.021183 0.001026
v 0.086612 -0.021180 0.001025
v 0.086612 -0.020913 0.002020
v 0.073138 -0.021183 -0.001026
v 0.086612 -0.021180 -0.001025
v 0.086612 -0.021269 0.000000
v 0.073138 -0.020916 -0.002021
v 0.073138 -0.020482 -0.002955
v 0.086612 -0.020478 -0.002953
v 0.086612 -0.020913 -0.002020
v 0.073138 -0.019890 -0.003798
v 0.073138 -0.019162 -0.004527
v 0.086612 -0.019160 -0.004524
v 0.086612 -0.019887 -0.003796
v 0.073138 -0.018318 -0.005117
v 0.073138 -0.017385 -0.005553
v 0.086612 -0.017384 -0.005549
v 0.086612 -0.018316 -0.005114
v 0.073138 -0.015364 -0.005910
v 0.086612 -0.015364 -0.005906
v 0.086612 -0.016389 -0.005815
v 0.073138 -0.014338 -0.005819
v 0.073138 -0.013342 -0.005553
v 0.086612 -0.013344 -0.005549
v 0.086612 -0.014338 -0.005815
v 0.073138 -0.011565 -0.004527
v 0.086612 -0.011568 -0.004524
v 0.086612 -0.012411 -0.005114
v 0.073138 -0.010837 -0.003798
v 0.072864 -0.010246 -0.002955
v 0.086612 -0.010249 -0.002953
v 0.086612 -0.010840 -0.003796
v 0.073138 -0.009811 -0.002021
v 0.086612 -0.009548 -0.001025
v 0.086612 -0.009815 -0.002020
v 0.073138 -0.009455 0.000000
v 0.086612 -0.009548 0.001025
v 0.086612 -0.009459 0.000000
v 0.073138 -0.009811 0.002021
v 0.073138 -0.010246 0.002955
v 0.086612 -0.010249 0.002953
v 0.086612 -0.009815 0.002020
v 0.073138 -0.010837 0.003798
v 0.072926 -0.011565 0.004527
v 0.086612 -0.011568 0.004524
v 0.086612 -0.010840 0.003796
v 0.073138 -0.012409 0.005117
v 0.073138 -0.013342 0.005553
v 0.086612 -0.013344 0.005549
v 0.086612 -0.012411 0.005114
v 0.073138 -0.014338 0.005819
v 0.086612 -0.014338 0.005815
v -0.091900 -0.015364 0.000000
v -0.091927 -0.012451 0.003030
v -0.091913 -0.012098 0.000985
v -0.091912 -0.012712 -0.002100
v -0.091925 -0.015358 -0.004154
v -0.091927 -0.013662 -0.003874
v -0.091917 -0.017339 -0.002868
v -0.091917 -0.018720 -0.000927
v -0.091916 -0.018439 0.001818
v -0.091913 -0.015300 0.003442
v 0.091900 -0.015364 0.000000
v 0.091913 -0.018095 0.002043
v 0.091913 -0.018769 -0.000191
v 0.091913 -0.017850 -0.002335
v 0.091909 -0.014143 -0.003112
v 0.091913 -0.012099 -0.000986
v 0.091912 -0.012712 0.002100
v 0.091909 -0.015446 0.003342
v -0.091879 -0.015351 0.005367
v -0.091879 -0.017187 0.005047
v -0.091879 -0.020006 0.002694
v -0.091863 -0.020677 0.000956
v -0.091881 -0.020572 -0.001366
v -0.091879 -0.020018 -0.002672
v -0.091879 -0.018823 -0.004103
v -0.091879 -0.015376 -0.005367
v -0.091872 -0.012270 -0.004419
v -0.091881 -0.010495 -0.002300
v -0.091881 -0.010156 0.001368
v -0.091879 -0.010709 0.002671
v 0.091881 -0.016785 0.005194
v 0.091879 -0.020018 0.002672
v 0.091879 -0.020646 -0.000945
v 0.091879 -0.018803 -0.004119
v 0.091879 -0.015351 -0.005367
v 0.091863 -0.010680 -0.002684
v 0.091880 -0.010155 -0.001366
v 0.091880 -0.010496 0.002302
v -0.091235 -0.016384 0.005784
v -0.091235 -0.015364 0.005874
v -0.091362 -0.016375 0.005734
v -0.091362 -0.015364 0.005823
v -0.091362 -0.017355 0.005472
v -0.091235 -0.017373 0.005519
v -0.091235 -0.018300 0.005086
v -0.091362 -0.018275 0.005043
v -0.091362 -0.019107 0.004461
v -0.091235 -0.019139 0.004499
v -0.091235 -0.019863 0.003775
v -0.091362 -0.019824 0.003743
v -0.091362 -0.020407 0.002912
v -0.091235 -0.020450 0.002937
v -0.091235 -0.020883 0.002009
v -0.091362 -0.020835 0.001992
v -0.091418 -0.021069 0.001006
v -0.091235 -0.021148 0.001020
v -0.091235 -0.021236 0.000000
v -0.091362 -0.021186 0.000000
v -0.091362 -0.021099 -0.001011
v -0.091235 -0.021148 -0.001020
v -0.091235 -0.020883 -0.002009
v -0.091362 -0.020835 -0.001992
v -0.091362 -0.020407 -0.002912
v -0.091235 -0.020450 -0.002937
v -0.091235 -0.019863 -0.003775
v -0.091362 -0.019824 -0.003743
v -0.091362 -0.019107 -0.004461
v -0.091235 -0.019139 -0.004499
v -0.091235 -0.018300 -0.005086
v -0.091362 -0.018275 -0.005043
v -0.091362 -0.017355 -0.005472
v -0.091235 -0.017373 -0.005519
v -0.091235 -0.016384 -0.005784
v -0.091362 -0.016375 -0.005734
v -0.091362 -0.015364 -0.005823
v -0.091235 -0.015364 -0.005874
v -0.091235 -0.014344 -0.005784
v -0.091362 -0.014353 -0.005734
v -0.091362 -0.013372 -0.005472
v -0.091235 -0.013355 -0.005519
v -0.091235 -0.012427 -0.005086
v -0.091362 -0.012452 -0.005043
v -0.091362 -0.011621 -0.004461
v -0.091235 -0.011588 -0.004499
v -0.091235 -0.010865 -0.003775
v -0.091362 -0.010903 -0.003743
v -0.091362 -0.010320 -0.002912
v -0.091235 -0.010277 -0.002937
v -0.091235 -0.009845 -0.002009
v -0.091362 -0.009892 -0.001992
v -0.091362 -0.009629 -0.001011
v -0.091235 -0.009579 -0.001020
v -0.091235 -0.009491 0.000000
v -0.091362 -0.009541 0.000000
v -0.091362 -0.009629 0.001011
v -0.091235 -0.009579 0.001020
v -0.091235 -0.009845 0.002009
v -0.091362 -0.009892 0.001992
v -0.091362 -0.010320 0.002912
v -0.091235 -0.010277 0.002937
v -0.091235 -0.010865 0.003775
v -0.091362 -0.010903 0.003743
v -0.091362 -0.011621 0.004461
v -0.091235 -0.011588 0.004499
v -0.091235 -0.012427 0.005086
v -0.091362 -0.012452 0.005043
v -0.091362 -0.013372 0.005472
v -0.091235 -0.013355 0.005519
v -0.091235 -0.014344 0.005784
v -0.091362 -0.014353 0.005734
v 0.091206 -0.016387 0.005803
v 0.091206 -0.017380 0.005538
v 0.091206 -0.015364 0.005894
v 0.091206 -0.018310 0.005103
v 0.091206 -0.019152 0.004515
v 0.091298 -0.019843 0.003759
v 0.091298 -0.020429 0.002924
v 0.091298 -0.020859 0.002000
v 0.091298 -0.021123 0.001016
v 0.091298 -0.021211 0.000000
v 0.091298 -0.021123 -0.001016
v 0.091298 -0.020859 -0.002000
v 0.091298 -0.020429 -0.002924
v 0.091298 -0.019843 -0.003759
v 0.091298 -0.019123 -0.004480
v 0.091298 -0.018288 -0.005064
v 0.091298 -0.017364 -0.005496
v 0.091298 -0.016379 -0.005759
v 0.091298 -0.015364 -0.005848
v 0.091298 -0.014348 -0.005759
v 0.091298 -0.013363 -0.005496
v 0.091298 -0.012440 -0.005064
v 0.091298 -0.011604 -0.004480
v 0.091235 -0.010277 -0.002937
v 0.091298 -0.010884 -0.003759
v 0.091418 -0.010347 -0.002896
v 0.091298 -0.009869 -0.002000
v 0.091207 -0.009560 -0.001023
v 0.091206 -0.009826 0.002016
v 0.091206 -0.010260 0.002947
v 0.091206 -0.010849 0.003788
v 0.091428 -0.011635 0.004446
v 0.091206 -0.012417 0.005103
v 0.091206 -0.013348 0.005538
v 0.091206 -0.014341 0.005803
v -0.091879 -0.016283 0.005287
v -0.091879 -0.018036 0.004654
v -0.091881 -0.019150 0.003828
v -0.091879 -0.020402 0.001848
v -0.091880 -0.020729 0.000013
v -0.091879 -0.019482 -0.003439
v -0.091879 -0.018058 -0.004641
v -0.091881 -0.016785 -0.005194
v -0.091879 -0.014445 -0.005287
v -0.091879 -0.013540 -0.005047
v -0.091879 -0.011262 -0.003460
v -0.091879 -0.010081 -0.000945
v -0.091879 -0.009998 -0.000012
v -0.091881 -0.011544 0.003795
v -0.091879 -0.012670 0.004641
v -0.091881 -0.013943 0.005194
v 0.091879 -0.015376 0.005367
v 0.091879 -0.018058 0.004641
v 0.091879 -0.018823 0.004103
v 0.091879 -0.019482 0.003439
v 0.091879 -0.020651 0.000919
v 0.091879 -0.020411 0.001824
v 0.091880 -0.020729 -0.000012
v 0.091880 -0.020232 -0.002300
v 0.091879 -0.019466 -0.003459
v 0.091881 -0.017614 -0.004892
v 0.091881 -0.013943 -0.005194
v 0.091881 -0.011543 -0.003795
v 0.091879 -0.009998 0.000014
v 0.091879 -0.010081 0.000945
v 0.091831 -0.011208 0.003527
v 0.091879 -0.011924 0.004120
v 0.091879 -0.012691 0.004654
v 0.091881 -0.013988 0.005206
v -0.091155 -0.016387 0.005804
v -0.091155 -0.015364 0.005894
v -0.091155 -0.017380 0.005539
v -0.091155 -0.018311 0.005104
v -0.091155 -0.019153 0.004515
v -0.091155 -0.019878 0.003788
v -0.091155 -0.020468 0.002947
v -0.091155 -0.020902 0.002016
v -0.091155 -0.021168 0.001023
v -0.091155 -0.021257 0.000000
v -0.091155 -0.021168 -0.001024
v -0.091155 -0.020902 -0.002016
v -0.091155 -0.020468 -0.002947
v -0.091155 -0.019878 -0.003788
v -0.091155 -0.019153 -0.004515
v -0.091155 -0.018311 -0.005104
v -0.091155 -0.017380 -0.005539
v -0.091155 -0.016387 -0.005804
v -0.091155 -0.015364 -0.005894
v -0.091155 -0.014340 -0.005804
v -0.091155 -0.013348 -0.005539
v -0.091155 -0.012417 -0.005104
v -0.091155 -0.011575 -0.004515
v -0.091155 -0.010849 -0.003788
v -0.091155 -0.010259 -0.002947
v -0.091155 -0.009826 -0.002016
v -0.091155 -0.009559 -0.001024
v -0.091155 -0.009470 0.000000
v -0.091155 -0.009559 0.001023
v -0.091155 -0.009826 0.002016
v -0.091155 -0.010259 0.002947
v -0.091155 -0.010849 0.003788
v -0.091155 -0.011575 0.004515
v -0.091155 -0.012417 0.005104
v -0.091155 -0.013348 0.005539
v -0.091155 -0.014340 0.005804
v 0.091155 -0.019878 0.003788
v 0.091155 -0.020468 0.002947
v 0.091155 -0.020902 0.002016
v 0.091155 -0.021168 0.001023
v 0.091155 -0.021257 0.000000
v 0.091155 -0.021168 -0.001024
v 0.091155 -0.020902 -0.002016
v 0.091155 -0.020468 -0.002947
v 0.091155 -0.019878 -0.003788
v 0.091155 -0.019152 -0.004515
v 0.091155 -0.018311 -0.005104
v 0.091155 -0.017380 -0.005539
v 0.091155 -0.016387 -0.005804
v 0.091155 -0.015364 -0.005894
v 0.091155 -0.014340 -0.005804
v 0.091155 -0.013348 -0.005539
v 0.091155 -0.012417 -0.005104
v 0.091155 -0.011575 -0.004515
v 0.091155 -0.010849 -0.003788
v 0.091155 -0.010259 -0.002947
v 0.091155 -0.009826 -0.002016
v 0.091205 -0.009470 -0.000000
v 0.091207 -0.009560 0.001024
v 0.091155 -0.011575 0.004515
v -0.091516 -0.016358 0.005641
v -0.091516 -0.015364 0.005729
v -0.091516 -0.017323 0.005384
v -0.091516 -0.018228 0.004961
v -0.091516 -0.019046 0.004389
v -0.091516 -0.019752 0.003682
v -0.091516 -0.020325 0.002865
v -0.091516 -0.020747 0.001959
v -0.091525 -0.021088 -0.000511
v -0.091516 -0.020747 -0.001959
v -0.091516 -0.020325 -0.002865
v -0.091516 -0.019752 -0.003682
v -0.091516 -0.019046 -0.004389
v -0.091516 -0.018228 -0.004961
v -0.091516 -0.017323 -0.005384
v -0.091516 -0.016358 -0.005641
v -0.091516 -0.015364 -0.005729
v -0.091516 -0.014369 -0.005641
v -0.091516 -0.013404 -0.005384
v -0.091516 -0.012499 -0.004961
v -0.091516 -0.011681 -0.004389
v -0.091516 -0.010976 -0.003682
v -0.091516 -0.010402 -0.002865
v -0.091516 -0.009981 -0.001959
v -0.091516 -0.009722 -0.000995
v -0.091516 -0.009635 0.000000
v -0.091516 -0.009722 0.000995
v -0.091516 -0.009981 0.001959
v -0.091516 -0.010402 0.002865
v -0.091516 -0.010976 0.003682
v -0.091516 -0.011681 0.004389
v -0.091516 -0.012499 0.004961
v -0.091516 -0.013404 0.005384
v -0.091516 -0.014369 0.005641
v 0.091516 -0.016358 0.005641
v 0.091516 -0.017323 0.005384
v 0.091516 -0.015364 0.005729
v 0.091516 -0.018228 0.004961
v 0.091516 -0.019046 0.004389
v 0.091516 -0.019752 0.003682
v 0.091516 -0.020325 0.002865
v 0.091516 -0.020746 0.001959
v 0.091516 -0.021006 0.000995
v 0.091516 -0.021092 0.000000
v 0.091516 -0.021006 -0.000995
v 0.091516 -0.020746 -0.001959
v 0.091516 -0.020325 -0.002865
v 0.091516 -0.019752 -0.003682
v 0.091516 -0.019046 -0.004389
v 0.091516 -0.018228 -0.004961
v 0.091516 -0.017323 -0.005384
v 0.091516 -0.016358 -0.005641
v 0.091516 -0.015364 -0.005729
v 0.091516 -0.014369 -0.005641
v 0.091516 -0.013404 -0.005384
v 0.091830 -0.012612 -0.004706
v 0.091521 -0.011306 -0.004074
v 0.091516 -0.009981 -0.001959
v 0.091516 -0.009722 -0.000995
v 0.091516 -0.009635 0.000000
v 0.091516 -0.009722 0.000995
v 0.091516 -0.009981 0.001959
v 0.091516 -0.010402 0.002865
v 0.091516 -0.012499 0.004961
v 0.091516 -0.013404 0.005384
v 0.091516 -0.014369 0.005641
v -0.091991 -0.018886 0.003697
v -0.091979 -0.020195 0.001315
v -0.091990 -0.020342 -0.001188
v -0.091984 -0.019487 -0.002634
v -0.091984 -0.018568 -0.003818
v -0.091990 -0.016789 -0.004914
v -0.091967 -0.017361 -0.004282
v -0.091984 -0.014079 -0.004796
v -0.091985 -0.010769 -0.001899
v -0.091991 -0.010400 0.001202
v -0.091984 -0.011853 0.003511
v -0.091984 -0.013265 0.004500
v -0.091985 -0.015310 0.004971
v 0.091974 -0.017287 0.004568
v 0.091979 -0.015821 0.004986
v 0.091975 -0.018467 0.003878
v 0.091985 -0.019659 0.002851
v 0.091967 -0.019646 0.001997
v 0.091979 -0.020353 0.000417
v 0.091991 -0.019938 -0.002270
v 0.091951 -0.016243 -0.005195
v 0.091991 -0.012334 -0.004111
v 0.091991 -0.010400 -0.001202
v 0.091990 -0.010787 0.002290
v 0.091991 -0.013319 0.004679
v -0.091974 -0.016827 0.004736
v -0.091952 -0.014273 0.004547
v -0.091952 -0.010881 0.001329
v -0.091941 -0.011084 -0.001474
v -0.091984 -0.012488 -0.004204
v -0.091952 -0.019122 -0.002782
v -0.091950 -0.019911 -0.000398
v -0.091952 -0.018756 0.003218
v 0.091952 -0.019652 -0.001863
v 0.091979 -0.018219 -0.004113
v 0.091936 -0.016615 -0.004020
v 0.091979 -0.015233 -0.005024
v 0.091952 -0.012784 -0.003900
v 0.091952 -0.010881 -0.001329
v 0.091941 -0.011084 0.001474
v 0.091952 -0.013277 0.004184
f 1 2 562
f 562 563 1
f 561 562 2
f 4 561 2
f 3 4 2
f 2 5 7
f 7 3 2
f 6 7 5
f 5 8 9
f 9 6 5
f 10 9 8
f 8 11 13
f 13 10 8
f 12 13 11
f 15 12 11
f 14 15 11
f 11 16 18
f 18 14 11
f 17 18 16
f 20 17 16
f 19 20 16
f 16 21 578
f 578 19 16
f 577 578 21
f 21 22 24
f 24 577 21
f 23 24 22
f 22 26 25
f 25 23 22
f 27 25 26
f 26 28 30
f 30 27 26
f 29 30 28
f 28 31 33
f 33 29 28
f 32 33 31
f 35 32 31
f 34 35 31
f 31 36 587
f 587 34 31
f 586 587 36
f 36 37 39
f 39 586 36
f 38 39 37
f 37 40 41
f 41 38 37
f 590 41 40
f 40 42 592
f 592 590 40
f 591 592 42
f 44 591 42
f 42 43 593
f 593 44 42
f 43 45 595
f 595 593 43
f 594 595 45
f 597 594 45
f 596 597 45
f 45 46 599
f 599 596 45
f 598 599 46
f 46 47 601
f 601 598 46
f 600 601 47
f 603 600 47
f 602 603 47
f 47 49 605
f 605 602 47
f 604 605 49
f 48 604 49
f 50 48 49
f 49 51 53
f 53 50 49
f 51 52 607
f 607 53 51
f 52 54 609
f 609 607 52
f 54 55 608
f 608 609 54
f 611 608 55
f 55 56 610
f 610 611 55
f 56 1 612
f 612 610 56
f 563 612 1
f 56 55 57
f 57 1 56
f 54 57 55
f 52 51 57
f 57 54 52
f 49 57 51
f 47 57 49
f 46 57 47
f 57 46 45
f 43 42 57
f 57 45 43
f 57 42 40
f 37 57 40
f 57 37 36
f 31 57 36
f 28 57 31
f 57 28 26
f 22 57 26
f 57 22 21
f 16 57 21
f 11 57 16
f 8 57 11
f 57 8 5
f 2 57 5
f 1 57 2
f 58 59 60
f 60 61 58
f 59 62 63
f 63 60 59
f 64 65 60
f 60 63 64
f 65 66 67
f 67 60 65
f 68 69 60
f 60 67 68
f 69 70 71
f 71 60 69
f 72 73 60
f 60 71 72
f 73 74 75
f 75 60 73
f 76 77 60
f 60 75 76
f 77 78 79
f 79 60 77
f 80 81 60
f 60 79 80
f 81 82 83
f 83 60 81
f 84 85 60
f 60 83 84
f 85 86 87
f 87 60 85
f 88 89 60
f 60 87 88
f 89 90 91
f 91 60 89
f 92 93 60
f 60 91 92
f 93 94 95
f 95 60 93
f 96 97 60
f 60 95 96
f 97 98 99
f 99 60 97
f 100 101 60
f 60 99 100
f 101 102 103
f 103 60 101
f 104 105 60
f 60 103 104
f 105 106 107
f 107 60 105
f 108 109 60
f 60 107 108
f 109 110 111
f 111 60 109
f 112 113 60
f 60 111 112
f 113 114 115
f 115 60 113
f 116 117 60
f 60 115 116
f 117 118 61
f 61 60 117
f 614 615 119
f 613 614 119
f 119 120 122
f 122 613 119
f 121 122 120
f 120 123 124
f 124 121 120
f 618 124 123
f 620 618 123
f 619 620 123
f 123 125 126
f 126 619 123
f 621 126 125
f 623 621 125
f 125 127 622
f 622 623 125
f 625 622 127
f 128 625 127
f 127 129 131
f 131 128 127
f 130 131 129
f 129 132 629
f 629 130 129
f 628 629 132
f 132 136 134
f 134 628 132
f 133 134 136
f 135 133 136
f 137 135 136
f 136 138 140
f 140 137 136
f 139 140 138
f 138 141 143
f 143 139 138
f 142 143 141
f 145 142 141
f 144 145 141
f 141 146 639
f 639 144 141
f 638 639 146
f 146 147 149
f 149 638 146
f 148 149 147
f 147 150 152
f 152 148 147
f 151 152 150
f 150 153 644
f 644 151 150
f 643 644 153
f 646 643 153
f 645 646 153
f 153 154 648
f 648 645 153
f 647 648 154
f 154 155 650
f 650 647 154
f 649 650 155
f 652 649 155
f 651 652 155
f 155 156 158
f 158 651 155
f 157 158 156
f 156 159 161
f 161 157 156
f 160 161 159
f 159 163 162
f 162 160 159
f 656 162 163
f 165 656 163
f 164 165 163
f 163 166 168
f 168 164 163
f 167 168 166
f 169 167 166
f 166 170 660
f 660 169 166
f 662 660 170
f 170 171 661
f 661 662 170
f 171 119 663
f 663 661 171
f 615 663 119
f 171 170 172
f 172 119 171
f 166 172 170
f 163 172 166
f 159 172 163
f 172 159 156
f 155 172 156
f 154 172 155
f 172 154 153
f 172 153 150
f 147 172 150
f 172 147 146
f 141 172 146
f 138 172 141
f 172 138 136
f 172 136 132
f 129 172 132
f 172 129 127
f 125 172 127
f 123 172 125
f 120 172 123
f 172 120 119
f 173 174 175
f 175 176 173
f 174 177 178
f 178 175 174
f 179 180 175
f 175 178 179
f 180 181 182
f 182 175 180
f 183 184 175
f 175 182 183
f 184 185 186
f 186 175 184
f 187 188 175
f 175 186 187
f 188 189 190
f 190 175 188
f 191 192 175
f 175 190 191
f 192 193 194
f 194 175 192
f 195 196 175
f 175 194 195
f 196 197 198
f 198 175 196
f 199 200 175
f 175 198 199
f 200 201 202
f 202 175 200
f 203 204 175
f 175 202 203
f 204 205 206
f 206 175 204
f 207 208 175
f 175 206 207
f 208 209 210
f 210 175 208
f 211 212 175
f 175 210 211
f 212 213 214
f 214 175 212
f 215 216 175
f 175 214 215
f 216 217 218
f 218 175 216
f 219 220 175
f 175 218 219
f 220 221 222
f 222 175 220
f 223 224 175
f 175 222 223
f 224 225 226
f 226 175 224
f 227 228 175
f 175 226 227
f 228 229 230
f 230 175 228
f 231 232 175
f 175 230 231
f 232 233 176
f 176 175 232
f 234 553 389
f 234 367 235
f 368 235 367
f 368 336 382
f 336 236 382
f 393 339 238
f 339 395 389
f 389 238 339
f 238 389 553
f 364 239 240
f 370 364 240
f 365 370 371
f 370 365 557
f 241 365 371
f 242 243 560
f 664 665 244
f 665 666 244
f 403 360 245
f 245 244 403
f 667 668 244
f 244 245 667
f 668 664 244
f 246 245 360
f 669 670 245
f 245 246 669
f 670 667 245
f 671 672 246
f 672 669 246
f 360 324 246
f 247 246 324
f 248 249 246
f 246 247 248
f 249 671 246
f 250 247 324
f 251 252 250
f 252 248 247
f 247 250 252
f 250 348 253
f 254 255 253
f 255 251 250
f 250 253 255
f 256 253 348
f 673 257 253
f 253 256 673
f 257 254 253
f 256 404 258
f 674 675 256
f 256 258 674
f 675 673 256
f 259 258 404
f 676 677 258
f 258 259 676
f 677 674 258
f 404 260 259
f 678 679 259
f 679 676 259
f 680 681 259
f 259 260 680
f 681 678 259
f 682 683 349
f 683 680 260
f 260 349 683
f 349 405 261
f 262 261 405
f 684 685 261
f 261 262 684
f 685 682 349
f 349 261 685
f 686 687 262
f 262 263 686
f 687 684 262
f 688 689 263
f 263 326 688
f 689 686 263
f 690 691 264
f 691 688 326
f 326 264 691
f 326 383 264
f 692 693 264
f 693 690 264
f 383 350 265
f 265 264 383
f 694 695 265
f 265 350 694
f 695 692 264
f 264 265 695
f 696 266 350
f 266 694 350
f 268 697 267
f 697 696 350
f 350 267 697
f 269 267 362
f 270 271 267
f 267 269 270
f 271 268 267
f 272 269 362
f 698 699 272
f 699 270 269
f 269 272 699
f 272 327 273
f 700 701 273
f 701 698 272
f 272 273 701
f 702 703 273
f 273 274 702
f 703 700 273
f 704 705 274
f 274 275 704
f 705 702 274
f 328 406 276
f 276 275 328
f 706 707 275
f 275 276 706
f 707 704 275
f 708 709 276
f 709 706 276
f 710 711 276
f 276 277 710
f 711 708 276
f 351 403 244
f 244 277 351
f 666 712 277
f 277 244 666
f 712 710 277
f 278 375 279
f 713 714 278
f 278 279 713
f 714 715 278
f 280 279 375
f 716 717 279
f 279 280 716
f 717 713 279
f 281 280 407
f 718 719 280
f 280 281 718
f 719 716 280
f 407 352 281
f 720 721 281
f 721 718 281
f 282 281 352
f 283 284 281
f 281 282 283
f 284 720 281
f 286 287 282
f 282 285 286
f 287 283 282
f 288 289 285
f 289 286 285
f 285 330 290
f 722 291 290
f 290 330 722
f 291 288 285
f 285 290 291
f 330 386 292
f 723 724 330
f 330 292 723
f 724 722 330
f 725 726 292
f 726 723 292
f 727 728 293
f 728 725 292
f 292 293 728
f 293 331 294
f 729 730 294
f 730 727 293
f 293 294 730
f 731 732 294
f 732 729 294
f 295 408 332
f 733 734 408
f 408 295 733
f 734 731 294
f 294 408 734
f 296 295 332
f 735 736 295
f 295 296 735
f 736 733 295
f 332 333 297
f 297 296 332
f 737 738 297
f 738 735 296
f 296 297 738
f 298 297 333
f 739 740 298
f 740 737 297
f 297 298 740
f 741 742 409
f 742 739 298
f 298 409 742
f 743 744 409
f 409 299 743
f 744 741 409
f 745 300 299
f 300 743 299
f 302 746 299
f 299 301 302
f 746 745 299
f 303 304 301
f 301 372 303
f 304 302 301
f 747 748 372
f 372 305 747
f 748 303 372
f 749 750 305
f 305 373 749
f 750 747 305
f 373 387 306
f 751 752 306
f 752 749 373
f 373 306 752
f 307 306 387
f 753 754 307
f 307 308 753
f 754 751 306
f 306 307 754
f 307 374 309
f 309 308 307
f 310 309 374
f 755 756 309
f 309 310 755
f 756 753 308
f 308 309 756
f 374 353 311
f 311 310 374
f 757 758 310
f 310 311 757
f 758 755 310
f 353 375 311
f 759 760 311
f 760 757 311
f 278 311 375
f 715 761 311
f 311 278 715
f 761 759 311
f 388 412 413
f 388 413 414
f 388 414 415
f 415 389 388
f 416 312 389
f 389 415 416
f 312 416 417
f 581 390 376
f 434 391 390
f 392 438 439
f 442 337 392
f 392 439 442
f 337 442 443
f 377 369 337
f 369 377 314
f 369 314 449
f 369 449 315
f 338 455 316
f 316 393 338
f 393 316 317
f 393 378 465
f 393 465 394
f 395 320 411
f 412 388 395
f 395 411 412
f 481 243 478
f 243 481 483
f 243 483 484
f 243 484 487
f 487 321 243
f 321 487 489
f 492 239 321
f 496 340 495
f 397 240 396
f 397 507 341
f 342 512 515
f 515 370 342
f 370 515 380
f 398 520 521
f 398 521 524
f 524 371 398
f 371 524 399
f 399 527 343
f 357 401 356
f 401 357 536
f 401 536 345
f 403 351 553
f 403 553 359
f 382 260 404
f 326 236 383
f 384 385 383
f 375 329 407
f 332 331 365
f 332 365 333
f 334 558 366
f 374 387 560
f 560 353 374
f 353 560 329
f 312 234 389
f 390 368 376
f 392 336 391
f 336 392 337
f 336 337 369
f 369 315 237
f 321 239 243
f 340 323 239
f 323 340 322
f 240 323 396
f 341 370 397
f 342 370 341
f 399 343 371
f 250 324 348
f 325 256 348
f 256 325 404
f 349 260 382
f 349 382 405
f 385 350 383
f 385 267 350
f 267 385 362
f 273 327 328
f 328 274 273
f 328 275 274
f 351 276 406
f 351 277 276
f 285 363 330
f 444 337 443
f 337 444 377
f 377 447 314
f 452 315 449
f 315 452 454
f 454 338 315
f 338 454 455
f 320 395 473
f 382 404 325
f 555 327 362
f 327 555 238
f 238 351 406
f 352 556 363
f 366 558 559
f 387 559 560
f 388 389 395
f 335 368 367
f 376 368 335
f 336 368 391
f 368 390 391
f 336 369 237
f 237 338 393
f 393 394 339
f 323 240 239
f 240 397 370
f 370 380 371
f 343 241 371
f 241 343 344
f 344 401 241
f 401 344 356
f 401 242 241
f 242 401 345
f 242 345 346
f 242 346 402
f 402 243 242
f 243 402 347
f 405 263 262
f 263 405 326
f 327 272 362
f 407 280 375
f 282 352 363
f 363 285 282
f 386 293 292
f 293 386 557
f 293 557 331
f 408 294 331
f 298 333 409
f 410 299 409
f 334 299 410
f 334 301 299
f 301 334 366
f 366 372 301
f 366 305 372
f 366 373 305
f 307 387 374
f 418 312 417
f 312 418 419
f 312 419 420
f 421 234 420
f 234 421 422
f 234 422 423
f 423 367 234
f 367 423 424
f 367 424 313
f 335 427 430
f 432 390 581
f 390 432 433
f 434 390 433
f 436 391 434
f 391 436 438
f 438 392 391
f 378 393 317
f 467 394 465
f 394 467 379
f 394 379 318
f 354 239 492
f 239 354 494
f 239 494 495
f 497 340 496
f 498 322 340
f 340 497 498
f 322 498 501
f 501 323 322
f 323 501 396
f 504 397 503
f 396 503 397
f 397 504 505
f 508 341 507
f 341 508 509
f 341 509 510
f 341 510 342
f 516 380 515
f 398 380 518
f 398 518 520
f 528 343 527
f 343 528 381
f 400 344 381
f 543 402 346
f 346 542 543
f 402 543 545
f 402 545 547
f 402 547 548
f 551 347 548
f 347 551 477
f 347 477 478
f 236 405 382
f 361 385 384
f 385 361 362
f 238 328 327
f 328 238 406
f 330 363 386
f 386 364 557
f 333 365 410
f 334 410 558
f 420 234 312
f 313 335 367
f 335 430 376
f 237 315 338
f 318 339 394
f 339 318 319
f 339 319 473
f 339 473 395
f 347 478 243
f 239 495 340
f 398 371 380
f 343 381 344
f 355 356 344
f 402 548 347
f 403 359 360
f 236 326 405
f 408 331 332
f 410 409 333
f 559 373 366
f 559 387 373
f 329 375 353
f 574 313 424
f 335 313 425
f 425 427 335
f 313 574 576
f 576 425 313
f 426 427 425
f 425 576 426
f 427 426 428
f 429 430 427
f 427 428 429
f 376 430 580
f 430 429 580
f 376 580 579
f 376 579 581
f 431 432 581
f 435 436 434
f 585 436 435
f 437 438 436
f 436 585 437
f 438 437 440
f 440 439 438
f 441 442 439
f 439 440 441
f 442 441 443
f 588 444 443
f 445 444 588
f 446 377 444
f 444 445 446
f 377 446 447
f 448 449 314
f 314 447 448
f 450 449 448
f 451 452 449
f 449 450 451
f 452 451 453
f 452 453 454
f 456 455 454
f 457 458 455
f 455 456 457
f 458 316 455
f 458 457 459
f 459 316 458
f 460 317 316
f 316 459 460
f 461 378 317
f 317 460 461
f 462 378 461
f 378 462 463
f 378 463 464
f 464 465 378
f 466 465 464
f 465 466 467
f 606 379 467
f 468 318 379
f 379 606 468
f 318 468 469
f 470 319 318
f 318 469 470
f 471 473 319
f 319 470 471
f 472 473 471
f 473 472 474
f 475 320 473
f 473 474 475
f 320 475 476
f 320 476 411
f 479 478 477
f 480 481 478
f 478 479 480
f 481 480 482
f 481 482 483
f 485 484 483
f 486 487 484
f 484 485 486
f 487 486 488
f 487 488 489
f 321 489 492
f 490 492 489
f 492 490 491
f 492 491 354
f 493 494 354
f 624 495 494
f 495 624 627
f 627 496 495
f 626 497 496
f 496 627 626
f 497 626 499
f 499 498 497
f 500 501 498
f 498 499 500
f 501 500 502
f 502 396 501
f 396 502 503
f 632 504 503
f 504 632 505
f 397 505 506
f 506 507 397
f 637 510 509
f 511 342 510
f 510 637 511
f 342 511 513
f 513 512 342
f 514 515 512
f 512 513 514
f 515 514 516
f 517 518 380
f 380 516 517
f 519 520 518
f 520 519 522
f 522 521 520
f 523 524 521
f 521 522 523
f 524 523 525
f 525 399 524
f 526 527 399
f 399 525 526
f 527 526 529
f 529 528 527
f 530 381 528
f 528 529 530
f 381 530 531
f 531 400 381
f 400 531 532
f 344 400 355
f 400 532 533
f 533 355 400
f 355 533 534
f 534 356 355
f 356 534 357
f 653 357 534
f 535 536 357
f 357 653 535
f 536 535 537
f 536 537 358
f 345 536 358
f 540 345 358
f 538 540 358
f 540 538 539
f 540 346 345
f 346 540 541
f 541 542 346
f 540 539 541
f 659 543 542
f 544 545 543
f 543 659 544
f 545 544 546
f 545 546 547
f 549 548 547
f 550 551 548
f 548 549 550
f 551 550 552
f 551 552 477
f 234 359 553
f 359 324 360
f 359 234 235
f 324 359 235
f 235 348 324
f 235 325 348
f 325 235 368
f 368 382 325
f 383 236 554
f 336 554 236
f 554 384 383
f 237 361 554
f 554 336 237
f 384 554 361
f 555 362 361
f 237 555 361
f 555 237 393
f 555 393 238
f 553 351 238
f 243 556 329
f 329 560 243
f 556 407 329
f 556 352 407
f 239 363 556
f 556 243 239
f 364 386 363
f 363 239 364
f 557 364 370
f 557 365 331
f 410 365 558
f 558 365 241
f 558 241 242
f 242 559 558
f 559 242 560
f 561 413 412
f 412 562 561
f 411 563 562
f 562 412 411
f 3 564 565
f 565 4 3
f 564 415 414
f 414 565 564
f 413 561 565
f 565 414 413
f 4 565 561
f 6 566 567
f 567 7 6
f 566 417 416
f 416 567 566
f 415 564 567
f 567 416 415
f 564 3 7
f 7 567 564
f 10 568 569
f 569 9 10
f 568 419 418
f 418 569 568
f 417 566 569
f 569 418 417
f 566 6 9
f 9 569 566
f 12 570 571
f 571 13 12
f 570 421 420
f 420 571 570
f 419 568 571
f 571 420 419
f 568 10 13
f 13 571 568
f 14 572 573
f 573 15 14
f 572 423 422
f 422 573 572
f 421 570 573
f 573 422 421
f 570 12 15
f 15 573 570
f 17 574 575
f 575 18 17
f 424 575 574
f 423 572 575
f 575 424 423
f 572 14 18
f 18 575 572
f 576 20 19
f 19 426 576
f 574 17 20
f 20 576 574
f 577 429 428
f 428 578 577
f 426 19 578
f 578 428 426
f 23 579 580
f 580 24 23
f 429 577 580
f 24 580 577
f 581 25 27
f 27 431 581
f 579 23 25
f 25 581 579
f 29 582 583
f 583 30 29
f 582 433 432
f 432 583 582
f 431 27 583
f 583 432 431
f 30 583 27
f 32 435 584
f 584 33 32
f 434 584 435
f 433 582 584
f 584 434 433
f 582 29 33
f 33 584 582
f 585 35 34
f 34 437 585
f 435 32 35
f 35 585 435
f 586 441 440
f 440 587 586
f 437 34 587
f 587 440 437
f 38 588 589
f 589 39 38
f 443 589 588
f 441 586 589
f 589 443 441
f 39 589 586
f 445 41 590
f 590 446 445
f 588 38 41
f 41 445 588
f 591 448 447
f 447 592 591
f 446 590 592
f 592 447 446
f 450 44 593
f 593 451 450
f 448 591 450
f 44 450 591
f 594 454 453
f 453 595 594
f 451 593 595
f 595 453 451
f 596 457 456
f 456 597 596
f 454 594 597
f 597 456 454
f 598 460 459
f 459 599 598
f 457 596 599
f 599 459 457
f 600 462 461
f 461 601 600
f 460 598 601
f 601 461 460
f 602 464 463
f 463 603 602
f 462 600 603
f 603 463 462
f 604 467 466
f 466 605 604
f 464 602 605
f 605 466 464
f 606 48 50
f 50 468 606
f 467 604 606
f 48 606 604
f 607 470 469
f 469 53 607
f 468 50 53
f 53 469 468
f 608 472 471
f 471 609 608
f 470 607 609
f 609 471 470
f 610 475 474
f 474 611 610
f 472 608 611
f 611 474 472
f 563 411 476
f 476 612 563
f 475 610 612
f 612 476 475
f 613 480 479
f 479 614 613
f 477 615 614
f 614 479 477
f 121 616 617
f 617 122 121
f 616 483 482
f 482 617 616
f 480 613 617
f 617 482 480
f 122 617 613
f 485 124 618
f 618 486 485
f 483 616 485
f 616 121 124
f 124 485 616
f 619 489 488
f 488 620 619
f 486 618 620
f 620 488 486
f 490 126 621
f 621 491 490
f 489 619 490
f 126 490 619
f 622 493 354
f 354 623 622
f 491 621 623
f 623 354 491
f 128 624 625
f 494 625 624
f 493 622 625
f 625 494 493
f 130 626 627
f 627 131 130
f 624 128 131
f 131 627 624
f 628 500 499
f 499 629 628
f 629 499 626
f 626 130 629
f 133 630 631
f 631 134 133
f 630 503 502
f 502 631 630
f 500 628 631
f 631 502 500
f 134 631 628
f 632 135 137
f 137 505 632
f 503 630 632
f 630 133 135
f 135 632 630
f 139 633 634
f 634 140 139
f 633 507 506
f 506 634 633
f 505 137 634
f 634 506 505
f 140 634 137
f 142 635 636
f 636 143 142
f 635 509 508
f 508 636 635
f 507 633 636
f 636 508 507
f 633 139 143
f 143 636 633
f 637 145 144
f 144 511 637
f 509 635 637
f 635 142 145
f 145 637 635
f 638 514 513
f 513 639 638
f 511 144 639
f 639 513 511
f 148 640 641
f 641 149 148
f 640 517 516
f 516 641 640
f 514 638 641
f 641 516 514
f 149 641 638
f 151 519 642
f 642 152 151
f 518 642 519
f 517 640 642
f 642 518 517
f 640 148 152
f 152 642 640
f 643 523 522
f 522 644 643
f 644 522 519
f 519 151 644
f 645 526 525
f 525 646 645
f 523 643 646
f 646 525 523
f 647 530 529
f 529 648 647
f 526 645 648
f 648 529 526
f 649 532 531
f 531 650 649
f 530 647 650
f 650 531 530
f 651 534 533
f 533 652 651
f 532 649 652
f 652 533 532
f 653 158 157
f 157 535 653
f 534 651 653
f 158 653 651
f 160 654 655
f 655 161 160
f 654 358 537
f 537 655 654
f 535 157 655
f 655 537 535
f 161 655 157
f 538 162 656
f 656 539 538
f 358 654 538
f 654 160 162
f 162 538 654
f 164 657 658
f 658 165 164
f 657 542 541
f 541 658 657
f 539 656 658
f 658 541 539
f 165 658 656
f 659 168 167
f 167 544 659
f 542 657 659
f 657 164 168
f 168 659 657
f 660 547 546
f 546 169 660
f 544 167 169
f 169 546 544
f 661 550 549
f 549 662 661
f 547 660 662
f 662 549 547
f 615 477 552
f 552 663 615
f 550 661 663
f 663 552 550
f 664 62 59
f 59 665 664
f 58 666 665
f 665 59 58
f 667 64 63
f 63 668 667
f 62 664 668
f 668 63 62
f 669 66 65
f 65 670 669
f 64 667 670
f 670 65 64
f 671 68 67
f 67 672 671
f 66 669 672
f 672 67 66
f 248 70 69
f 69 249 248
f 68 671 249
f 249 69 68
f 251 72 71
f 71 252 251
f 70 248 252
f 252 71 70
f 254 74 73
f 73 255 254
f 72 251 255
f 255 73 72
f 673 76 75
f 75 257 673
f 74 254 257
f 257 75 74
f 674 78 77
f 77 675 674
f 76 673 675
f 675 77 76
f 676 80 79
f 79 677 676
f 78 674 677
f 677 79 78
f 678 82 81
f 81 679 678
f 80 676 679
f 679 81 80
f 680 84 83
f 83 681 680
f 82 678 681
f 681 83 82
f 682 86 85
f 85 683 682
f 84 680 683
f 683 85 84
f 684 88 87
f 87 685 684
f 86 682 685
f 685 87 86
f 686 90 89
f 89 687 686
f 88 684 687
f 687 89 88
f 688 92 91
f 91 689 688
f 90 686 689
f 689 91 90
f 690 94 93
f 93 691 690
f 92 688 691
f 691 93 92
f 692 96 95
f 95 693 692
f 94 690 693
f 693 95 94
f 694 98 97
f 97 695 694
f 96 692 695
f 695 97 96
f 696 100 99
f 99 266 696
f 98 694 266
f 266 99 98
f 268 102 101
f 101 697 268
f 100 696 697
f 697 101 100
f 270 104 103
f 103 271 270
f 102 268 271
f 271 103 102
f 698 106 105
f 105 699 698
f 104 270 699
f 699 105 104
f 700 108 107
f 107 701 700
f 106 698 701
f 701 107 106
f 702 110 109
f 109 703 702
f 108 700 703
f 703 109 108
f 704 112 111
f 111 705 704
f 110 702 705
f 705 111 110
f 706 114 113
f 113 707 706
f 112 704 707
f 707 113 112
f 708 116 115
f 115 709 708
f 114 706 709
f 709 115 114
f 710 118 117
f 117 711 710
f 116 708 711
f 711 117 116
f 666 58 61
f 61 712 666
f 118 710 712
f 712 61 118
f 713 177 174
f 174 714 713
f 173 715 714
f 714 174 173
f 716 179 178
f 178 717 716
f 177 713 717
f 717 178 177
f 718 181 180
f 180 719 718
f 179 716 719
f 719 180 179
f 720 183 182
f 182 721 720
f 181 718 721
f 721 182 181
f 283 185 184
f 184 284 283
f 183 720 284
f 284 184 183
f 286 187 186
f 186 287 286
f 185 283 287
f 287 186 185
f 288 189 188
f 188 289 288
f 187 286 289
f 289 188 187
f 722 191 190
f 190 291 722
f 189 288 291
f 291 190 189
f 723 193 192
f 192 724 723
f 191 722 724
f 724 192 191
f 725 195 194
f 194 726 725
f 193 723 726
f 726 194 193
f 727 197 196
f 196 728 727
f 195 725 728
f 728 196 195
f 729 199 198
f 198 730 729
f 197 727 730
f 730 198 197
f 731 201 200
f 200 732 731
f 199 729 732
f 732 200 199
f 733 203 202
f 202 734 733
f 201 731 734
f 734 202 201
f 735 205 204
f 204 736 735
f 203 733 736
f 736 204 203
f 737 207 206
f 206 738 737
f 205 735 738
f 738 206 205
f 739 209 208
f 208 740 739
f 207 737 740
f 740 208 207
f 741 211 210
f 210 742 741
f 209 739 742
f 742 210 209
f 743 213 212
f 212 744 743
f 211 741 744
f 744 212 211
f 745 215 214
f 214 300 745
f 213 743 300
f 300 214 213
f 302 217 216
f 216 746 302
f 215 745 746
f 746 216 215
f 303 219 218
f 218 304 303
f 217 302 304
f 304 218 217
f 747 221 220
f 220 748 747
f 219 303 748
f 748 220 219
f 749 223 222
f 222 750 749
f 221 747 750
f 750 222 221
f 751 225 224
f 224 752 751
f 223 749 752
f 752 224 223
f 753 227 226
f 226 754 753
f 225 751 754
f 754 226 225
f 755 229 228
f 228 756 755
f 227 753 756
f 756 228 227
f 757 231 230
f 230 758 757
f 229 755 758
f 758 230 229
f 759 233 232
f 232 760 759
f 231 757 760
f 760 232 231
f 715 173 176
f 176 761 715
f 233 759 761
f 761 176 233
f 762 767 763
f 763 764 762
f 765 762 764
f 764 766 765
f 762 765 844
f 768 765 766
f 766 769 768
f 770 768 769
f 769 771 770
f 770 772 768
f 765 768 772
f 772 844 765
f 773 770 771
f 771 774 773
f 775 773 774
f 774 776 775
f 775 832 773
f 770 773 832
f 777 775 776
f 776 778 777
f 779 777 778
f 778 780 779
f 779 781 777
f 775 777 781
f 782 779 780
f 780 783 782
f 784 782 783
f 783 785 784
f 784 833 782
f 779 782 833
f 786 784 785
f 785 787 786
f 788 786 787
f 787 789 788
f 788 860 786
f 784 786 860
f 838 788 789
f 789 790 838
f 837 838 790
f 790 791 837
f 792 837 791
f 791 793 792
f 794 792 793
f 793 795 794
f 792 794 869
f 796 794 795
f 795 797 796
f 839 796 797
f 797 798 839
f 839 834 796
f 794 796 834
f 834 869 794
f 835 839 798
f 798 799 835
f 840 835 799
f 799 800 840
f 801 840 800
f 800 802 801
f 803 801 802
f 802 804 803
f 803 836 801
f 840 801 836
f 805 803 804
f 804 806 805
f 807 805 806
f 806 808 807
f 805 807 883
f 809 807 808
f 808 810 809
f 811 809 810
f 810 812 811
f 809 811 813
f 809 883 807
f 814 811 812
f 812 815 814
f 816 814 815
f 815 817 816
f 814 816 818
f 814 813 811
f 819 816 817
f 817 820 819
f 821 819 820
f 820 822 821
f 821 892 819
f 816 819 892
f 892 818 816
f 823 821 822
f 822 824 823
f 825 823 824
f 824 826 825
f 823 825 897
f 841 825 826
f 826 827 841
f 828 841 827
f 827 829 828
f 841 897 825
f 830 828 829
f 829 831 830
f 767 830 831
f 831 763 767
f 842 843 767
f 767 762 842
f 844 842 762
f 842 844 845
f 845 846 842
f 843 842 846
f 846 847 843
f 772 770 848
f 772 848 849
f 849 850 772
f 844 772 850
f 850 845 844
f 832 848 770
f 832 775 851
f 832 851 852
f 852 853 832
f 848 832 853
f 853 849 848
f 781 851 775
f 781 779 854
f 781 854 855
f 855 856 781
f 851 781 856
f 856 852 851
f 833 854 779
f 833 784 857
f 833 857 858
f 858 859 833
f 854 833 859
f 859 855 854
f 860 857 784
f 860 788 861
f 860 861 862
f 862 863 860
f 857 860 863
f 863 858 857
f 864 861 788
f 788 838 864
f 865 864 838
f 838 837 865
f 864 865 866
f 866 867 864
f 861 864 867
f 867 862 861
f 868 865 837
f 837 792 868
f 869 868 792
f 868 869 870
f 870 871 868
f 865 868 871
f 871 866 865
f 834 839 872
f 834 872 873
f 873 874 834
f 869 834 874
f 874 870 869
f 875 872 839
f 839 835 875
f 876 875 835
f 835 840 876
f 875 876 877
f 877 878 875
f 872 875 878
f 878 873 872
f 836 876 840
f 836 803 879
f 836 879 880
f 880 881 836
f 876 836 881
f 881 877 876
f 882 879 803
f 803 805 882
f 883 882 805
f 882 883 884
f 884 885 882
f 879 882 885
f 885 880 879
f 883 809 886
f 813 886 809
f 886 813 887
f 887 888 886
f 883 886 888
f 888 884 883
f 813 814 889
f 818 889 814
f 889 818 890
f 890 891 889
f 813 889 891
f 891 887 813
f 892 821 893
f 892 893 894
f 894 895 892
f 818 892 895
f 895 890 818
f 896 893 821
f 821 823 896
f 897 896 823
f 896 897 898
f 898 899 896
f 893 896 899
f 899 894 893
f 897 841 900
f 901 900 841
f 841 828 901
f 900 901 902
f 902 903 900
f 897 900 903
f 903 898 897
f 904 901 828
f 828 830 904
f 843 904 830
f 830 767 843
f 904 843 847
f 847 905 904
f 901 904 905
f 905 902 901
f 907 906 915
f 906 907 908
f 906 908 1239
f 1239 909 906
f 909 911 906
f 910 906 911
f 912 906 910
f 913 906 912
f 914 906 913
f 915 906 914
f 916 923 917
f 916 917 918
f 916 918 919
f 916 919 1246
f 1246 920 916
f 916 920 921
f 916 921 1250
f 1250 922 916
f 922 923 916
f 1051 1145 1146
f 1146 924 1051
f 1145 1051 925
f 925 1147 1145
f 1052 1148 1147
f 1147 925 1052
f 1148 1052 1053
f 1053 1149 1148
f 1053 1150 1149
f 1150 1053 926
f 926 1151 1150
f 1054 1152 1151
f 1151 926 1054
f 1152 1054 927
f 1055 1153 927
f 1153 1055 928
f 928 1154 1153
f 1154 928 929
f 929 1155 1154
f 1056 1156 1155
f 1155 929 1056
f 1156 1056 930
f 930 1157 1156
f 1057 1158 1157
f 1157 930 1057
f 1158 1057 1058
f 1058 1159 1158
f 1058 1160 1159
f 1160 1058 931
f 931 1161 1160
f 1059 1162 1161
f 1161 931 1059
f 1162 1059 1060
f 1060 1163 1162
f 932 1164 1163
f 1163 1060 932
f 932 1165 1164
f 1061 1166 1165
f 1165 932 1061
f 1166 1061 933
f 933 1167 1166
f 933 1168 1167
f 1168 933 1062
f 1062 1169 1168
f 1063 1170 1169
f 1169 1062 1063
f 1170 1063 934
f 934 1171 1170
f 934 1172 1171
f 1172 934 935
f 935 1173 1172
f 1064 1174 1173
f 1173 935 1064
f 1064 1175 1174
f 1065 1176 1175
f 1175 1064 1065
f 1176 1065 1066
f 1066 1177 1176
f 1066 1178 1177
f 1178 1066 924
f 924 1146 1178
f 936 1179 1180
f 1179 936 1067
f 1067 1181 1179
f 1068 1182 1183
f 1183 1069 1068
f 1182 1068 936
f 936 1180 1182
f 1070 1184 1185
f 1185 937 1070
f 1184 1070 1069
f 1069 1183 1184
f 1072 1186 1187
f 1187 1071 1072
f 1186 1072 937
f 937 1185 1186
f 1073 1188 1189
f 1189 938 1073
f 1188 1073 1071
f 1071 1187 1188
f 1074 1190 1191
f 1190 1074 938
f 938 1189 1190
f 1075 1192 1193
f 1193 939 1075
f 1192 1075 1074
f 1074 1191 1192
f 1076 1194 1195
f 1194 1076 939
f 939 1193 1194
f 1231 1196 1197
f 1197 940 1231
f 1196 1231 1076
f 1076 1195 1196
f 1077 1198 1199
f 1198 1077 940
f 940 1197 1198
f 1201 1078 1200
f 1077 1199 1200
f 1078 1201 941
f 942 1202 1203
f 1202 942 941
f 1079 1204 1205
f 1205 1080 1079
f 1204 1079 942
f 942 1203 1204
f 943 1206 1207
f 1206 943 1080
f 1080 1205 1206
f 1047 1082 1081
f 943 1207 1081
f 1083 1208 1209
f 1209 1084 1083
f 1208 1083 1082
f 1082 1047 1208
f 1084 1210 1181
f 1181 1067 1084
f 1084 1209 1210
f 946 944 945
f 945 947 946
f 944 946 948
f 948 949 944
f 951 950 949
f 949 948 951
f 950 951 952
f 952 953 950
f 955 954 953
f 953 952 955
f 954 955 956
f 956 957 954
f 959 958 957
f 957 956 959
f 958 959 960
f 960 961 958
f 963 962 961
f 961 960 963
f 962 963 964
f 964 965 962
f 967 966 965
f 965 964 967
f 966 967 968
f 968 969 966
f 971 970 969
f 969 968 971
f 970 971 972
f 972 973 970
f 975 974 973
f 973 972 975
f 974 975 976
f 976 977 974
f 979 978 977
f 977 976 979
f 978 979 980
f 980 981 978
f 983 982 981
f 981 980 983
f 982 983 984
f 984 985 982
f 987 986 985
f 985 984 987
f 986 987 988
f 988 989 986
f 991 990 989
f 989 988 991
f 990 991 992
f 992 993 990
f 995 994 993
f 993 992 995
f 994 995 996
f 996 997 994
f 999 998 997
f 997 996 999
f 998 999 1000
f 1000 1001 998
f 1003 1002 1001
f 1001 1000 1003
f 1002 1003 1004
f 1004 1005 1002
f 1007 1006 1005
f 1005 1004 1007
f 1006 1007 1008
f 1008 1009 1006
f 1011 1010 1009
f 1009 1008 1011
f 1010 1011 1012
f 1012 1013 1010
f 1015 1014 1013
f 1013 1012 1015
f 1014 1015 947
f 947 945 1014
f 1039 1041 1040
f 1041 1039 1042
f 1240 932 1060
f 1085 764 763
f 763 1086 1085
f 944 1085 1086
f 1086 945 944
f 1085 944 949
f 949 1087 1085
f 764 1085 1087
f 1087 766 764
f 1088 769 766
f 766 1087 1088
f 950 1088 1087
f 1087 949 950
f 1088 950 953
f 953 1089 1088
f 769 1088 1089
f 1089 771 769
f 1090 774 771
f 771 1089 1090
f 954 1090 1089
f 1089 953 954
f 1090 954 957
f 957 1091 1090
f 774 1090 1091
f 1091 776 774
f 1092 778 776
f 776 1091 1092
f 958 1092 1091
f 1091 957 958
f 1092 958 961
f 961 1093 1092
f 778 1092 1093
f 1093 780 778
f 1094 783 780
f 780 1093 1094
f 962 1094 1093
f 1093 961 962
f 1094 962 965
f 965 1095 1094
f 783 1094 1095
f 1095 785 783
f 1096 787 785
f 785 1095 1096
f 966 1096 1095
f 1095 965 966
f 1096 966 969
f 969 1097 1096
f 787 1096 1097
f 1097 789 787
f 1098 790 789
f 789 1097 1098
f 970 1098 1097
f 1097 969 970
f 1098 970 973
f 973 1099 1098
f 790 1098 1099
f 1099 791 790
f 1100 793 791
f 791 1099 1100
f 974 1100 1099
f 1099 973 974
f 1100 974 977
f 977 1101 1100
f 793 1100 1101
f 1101 795 793
f 1102 797 795
f 795 1101 1102
f 978 1102 1101
f 1101 977 978
f 1102 978 981
f 981 1103 1102
f 797 1102 1103
f 1103 798 797
f 1104 799 798
f 798 1103 1104
f 982 1104 1103
f 1103 981 982
f 1104 982 985
f 985 1105 1104
f 799 1104 1105
f 1105 800 799
f 1106 802 800
f 800 1105 1106
f 986 1106 1105
f 1105 985 986
f 1106 986 989
f 989 1107 1106
f 802 1106 1107
f 1107 804 802
f 1108 806 804
f 804 1107 1108
f 990 1108 1107
f 1107 989 990
f 1108 990 993
f 993 1109 1108
f 806 1108 1109
f 1109 808 806
f 1110 810 808
f 808 1109 1110
f 994 1110 1109
f 1109 993 994
f 1110 994 997
f 997 1111 1110
f 810 1110 1111
f 1111 812 810
f 1112 815 812
f 812 1111 1112
f 998 1112 1111
f 1111 997 998
f 1112 998 1001
f 1001 1113 1112
f 815 1112 1113
f 1113 817 815
f 1114 820 817
f 817 1113 1114
f 1002 1114 1113
f 1113 1001 1002
f 1114 1002 1005
f 1005 1115 1114
f 820 1114 1115
f 1115 822 820
f 1116 824 822
f 822 1115 1116
f 1006 1116 1115
f 1115 1005 1006
f 1116 1006 1009
f 1009 1117 1116
f 824 1116 1117
f 1117 826 824
f 1118 827 826
f 826 1117 1118
f 1010 1118 1117
f 1117 1009 1010
f 1118 1010 1013
f 1013 1119 1118
f 827 1118 1119
f 1119 829 827
f 1120 831 829
f 829 1119 1120
f 1014 1120 1119
f 1119 1013 1014
f 1120 1014 945
f 945 1086 1120
f 831 1120 1086
f 1086 763 831
f 1016 846 845
f 845 1017 1016
f 846 1016 1018
f 1018 847 846
f 1019 850 849
f 849 1020 1019
f 850 1019 1017
f 1017 845 850
f 1121 853 852
f 852 1122 1121
f 1021 1121 1122
f 1122 1022 1021
f 1121 1021 1020
f 853 1121 1020
f 1020 849 853
f 1123 856 855
f 855 1124 1123
f 1023 1123 1124
f 1124 1024 1023
f 1123 1023 1022
f 1022 1122 1123
f 856 1123 1122
f 1122 852 856
f 1125 859 858
f 858 1126 1125
f 1025 1125 1126
f 1126 1026 1025
f 1125 1025 1024
f 1024 1124 1125
f 859 1125 1124
f 1124 855 859
f 1127 863 862
f 862 1128 1127
f 1027 1127 1128
f 1128 1028 1027
f 1127 1027 1026
f 1026 1126 1127
f 863 1127 1126
f 1126 858 863
f 1129 867 866
f 866 1130 1129
f 1029 1129 1130
f 1130 1030 1029
f 1129 1029 1028
f 1028 1128 1129
f 867 1129 1128
f 1128 862 867
f 1131 871 870
f 870 1132 1131
f 1031 1131 1132
f 1132 1032 1031
f 1131 1031 1030
f 1030 1130 1131
f 871 1131 1130
f 1130 866 871
f 1133 874 873
f 873 1134 1133
f 1033 1133 1134
f 1134 1034 1033
f 1133 1033 1032
f 1032 1132 1133
f 874 1133 1132
f 1132 870 874
f 1135 878 877
f 877 1136 1135
f 1035 1135 1136
f 1136 1036 1035
f 1135 1035 1034
f 1034 1134 1135
f 878 1135 1134
f 1134 873 878
f 1137 881 880
f 880 1138 1137
f 1037 1137 1138
f 1138 1038 1037
f 1137 1037 1036
f 1036 1136 1137
f 881 1137 1136
f 1136 877 881
f 1139 885 884
f 884 1140 1139
f 1040 1139 1140
f 1140 1039 1040
f 1139 1040 1038
f 1038 1138 1139
f 885 1139 1138
f 1138 880 885
f 1141 888 887
f 887 1043 1141
f 1042 1141 1043
f 1141 1042 1039
f 1039 1140 1141
f 888 1141 1140
f 1140 884 888
f 1142 891 890
f 890 1143 1142
f 891 1142 1043
f 1043 887 891
f 1044 895 894
f 894 1045 1044
f 895 1044 1143
f 1143 890 895
f 1046 899 898
f 898 1144 1046
f 1144 1047 1046
f 899 1046 1045
f 1045 894 899
f 1048 903 902
f 902 1049 1048
f 1047 1144 1048
f 903 1048 1144
f 1144 898 903
f 1050 905 847
f 847 1018 1050
f 905 1050 1049
f 1049 902 905
f 1145 946 947
f 947 1146 1145
f 946 1145 1147
f 1147 948 946
f 1148 951 948
f 948 1147 1148
f 951 1148 1149
f 1149 952 951
f 1150 955 952
f 952 1149 1150
f 955 1150 1151
f 1151 956 955
f 1152 959 956
f 956 1151 1152
f 927 960 1152
f 959 1152 960
f 1153 963 960
f 960 927 1153
f 1153 964 963
f 1154 967 964
f 964 1153 1154
f 967 1154 1155
f 1155 968 967
f 1156 971 968
f 968 1155 1156
f 971 1156 1157
f 1157 972 971
f 1158 975 972
f 972 1157 1158
f 975 1158 1159
f 1159 976 975
f 1160 979 976
f 976 1159 1160
f 979 1160 1161
f 1161 980 979
f 1162 983 980
f 980 1161 1162
f 983 1162 1163
f 1163 984 983
f 1164 987 984
f 984 1163 1164
f 987 1164 1165
f 1165 988 987
f 1166 991 988
f 988 1165 1166
f 991 1166 1167
f 1167 992 991
f 1168 995 992
f 992 1167 1168
f 995 1168 1169
f 1169 996 995
f 1170 999 996
f 996 1169 1170
f 999 1170 1171
f 1171 1000 999
f 1172 1003 1000
f 1000 1171 1172
f 1003 1172 1173
f 1173 1004 1003
f 1174 1007 1004
f 1004 1173 1174
f 1007 1174 1175
f 1175 1008 1007
f 1176 1011 1008
f 1008 1175 1176
f 1011 1176 1177
f 1177 1012 1011
f 1178 1015 1012
f 1012 1177 1178
f 1015 1178 1146
f 1146 947 1015
f 1179 1016 1017
f 1017 1180 1179
f 1016 1179 1181
f 1181 1018 1016
f 1182 1019 1020
f 1020 1183 1182
f 1019 1182 1180
f 1180 1017 1019
f 1184 1021 1022
f 1022 1185 1184
f 1021 1184 1183
f 1183 1020 1021
f 1186 1023 1024
f 1024 1187 1186
f 1023 1186 1185
f 1185 1022 1023
f 1188 1025 1026
f 1026 1189 1188
f 1025 1188 1187
f 1187 1024 1025
f 1190 1027 1028
f 1028 1191 1190
f 1027 1190 1189
f 1189 1026 1027
f 1192 1029 1030
f 1030 1193 1192
f 1029 1192 1191
f 1191 1028 1029
f 1194 1031 1032
f 1032 1195 1194
f 1031 1194 1193
f 1193 1030 1031
f 1196 1033 1034
f 1034 1197 1196
f 1033 1196 1195
f 1195 1032 1033
f 1198 1035 1036
f 1036 1199 1198
f 1035 1198 1197
f 1197 1034 1035
f 1200 1037 1038
f 1038 1201 1200
f 1037 1200 1199
f 1199 1036 1037
f 1201 1040 1041
f 1041 941 1201
f 1201 1038 1040
f 1202 1042 1043
f 1043 1203 1202
f 941 1041 1202
f 1042 1202 1041
f 1204 1142 1143
f 1143 1205 1204
f 1142 1204 1203
f 1203 1043 1142
f 1206 1044 1045
f 1045 1207 1206
f 1044 1206 1205
f 1205 1143 1044
f 1081 1046 1047
f 1046 1081 1207
f 1207 1045 1046
f 1208 1048 1049
f 1049 1209 1208
f 1048 1208 1047
f 1210 1050 1018
f 1018 1181 1210
f 1050 1210 1209
f 1209 1049 1050
f 1223 1051 924
f 1051 1223 1236
f 1236 925 1051
f 1211 1052 925
f 925 1236 1211
f 1211 1053 1052
f 1211 926 1053
f 1212 1054 926
f 926 1211 1212
f 1212 927 1054
f 1213 1055 927
f 927 1212 1213
f 1213 928 1055
f 1213 929 928
f 1214 1056 929
f 929 1213 1214
f 1056 1214 1215
f 1215 930 1056
f 1216 1057 930
f 930 1215 1216
f 1217 1216 1215
f 1216 1058 1057
f 1216 931 1058
f 1218 1059 931
f 931 1216 1218
f 1218 1060 1059
f 1060 1218 1240
f 1240 1061 932
f 1061 1240 1219
f 1219 933 1061
f 1219 1062 933
f 1220 1063 1062
f 1062 1219 1220
f 1219 1239 1220
f 1220 934 1063
f 1220 935 934
f 1221 1064 935
f 935 1220 1221
f 1222 1065 1064
f 1064 1221 1222
f 1222 1066 1065
f 1066 1222 1223
f 1223 924 1066
f 936 1224 1225
f 1225 1067 936
f 1226 1068 1069
f 1069 1227 1226
f 1068 1226 1224
f 1224 936 1068
f 1227 1070 937
f 1227 1228 1226
f 1227 1069 1070
f 1227 1072 1071
f 1071 1229 1227
f 1228 1227 1229
f 1227 937 1072
f 1229 1073 938
f 938 1230 1229
f 1229 1071 1073
f 1230 938 1074
f 1230 1075 939
f 939 1245 1230
f 1230 1074 1075
f 1076 1231 1245
f 1231 1247 1245
f 1245 939 1076
f 940 1247 1231
f 1077 1232 1247
f 1247 940 1077
f 1232 1200 1078
f 1232 1077 1200
f 1232 1078 941
f 941 1233 1232
f 1233 941 942
f 1233 1079 1080
f 1080 1234 1233
f 1234 1250 1233
f 1233 942 1079
f 1234 1080 943
f 1234 1081 1082
f 1082 1235 1234
f 1234 943 1081
f 1235 1083 1084
f 1235 1082 1083
f 1235 1084 1067
f 1067 1225 1235
f 1237 1236 1223
f 1236 1237 915
f 1223 1222 1237
f 907 1237 1222
f 1222 1221 907
f 907 915 1237
f 1238 907 1221
f 1221 1220 1238
f 907 1238 908
f 1239 1238 1220
f 1239 908 1238
f 1219 1240 1239
f 1239 1240 909
f 1240 1218 911
f 911 909 1240
f 910 911 1218
f 1218 1216 910
f 1217 910 1216
f 910 1217 912
f 1217 1215 1241
f 1217 1241 912
f 1215 1214 1241
f 913 912 1241
f 1242 1241 1214
f 1214 1213 1242
f 1241 1242 913
f 1212 1242 1213
f 1242 1212 914
f 914 913 1242
f 1212 1211 1243
f 1212 1243 914
f 1236 1243 1211
f 1243 1236 915
f 915 914 1243
f 1225 1224 923
f 1224 1226 917
f 917 923 1224
f 1226 1228 917
f 1228 1229 918
f 918 917 1228
f 1229 1230 1244
f 1229 1244 918
f 919 918 1244
f 1245 1244 1230
f 1244 1245 919
f 1245 1247 1246
f 1246 919 1245
f 1246 1247 920
f 1247 1232 1248
f 1247 1248 920
f 1249 1248 1232
f 1232 1233 1249
f 1248 1249 921
f 921 920 1248
f 1250 1249 1233
f 1250 921 1249
f 1251 1250 1234
f 1234 1235 1251
f 1250 1251 922
f 923 922 1251
f 1225 1251 1235
f 1251 1225 923
