# USD → MuJoCo (world-space, simplified)
v 1.718561 7.652293 0.096820
v 1.720761 7.661376 0.098042
v 1.720048 7.659822 0.098042
v 1.721722 7.660736 0.098023
v 1.720862 7.658675 0.098028
v 1.719445 7.657629 0.098032
v 1.720434 7.656905 0.098032
v 1.720297 7.655283 0.098037
v 1.720348 7.653815 0.098040
v 1.719274 7.653502 0.098039
v 1.720546 7.652580 0.098044
v 1.720895 7.651240 0.098047
v 1.720368 7.649586 0.098055
v 1.721663 7.649430 0.098052
v 1.721905 7.647026 0.098058
v 1.722753 7.647726 0.098056
v 1.724257 7.646088 0.098060
v 1.726053 7.644760 0.098064
v 1.727359 7.642776 0.098092
v 1.728050 7.643780 0.098067
v 1.728594 7.642447 0.098070
v 1.729810 7.643281 0.098068
v 1.729810 7.642095 0.098101
v 1.731391 7.641887 0.098104
v 1.731613 7.643024 0.098069
v 1.732620 7.641919 0.098072
v 1.733449 7.643075 0.098069
v 1.733919 7.641998 0.098099
v 1.735495 7.642210 0.098094
v 1.735433 7.643413 0.098068
v 1.736690 7.642670 0.098070
v 1.737516 7.644208 0.098066
v 1.738935 7.645014 0.098064
v 1.740523 7.646256 0.098061
v 1.741205 7.645339 0.098075
v 1.742435 7.646672 0.098093
v 1.743113 7.647606 0.098058
v 1.742121 7.648091 0.098057
v 1.743049 7.649676 0.098053
v 1.743868 7.648674 0.098093
v 1.744865 7.651277 0.098049
v 1.743745 7.651348 0.098048
v 1.744122 7.652952 0.098044
v 1.745305 7.652521 0.098055
v 1.744214 7.653586 0.098043
v 1.744270 7.654155 0.098041
v 1.745406 7.655375 0.098038
v 1.744296 7.655748 0.098037
v 1.745441 7.656660 0.098045
v 1.745408 7.654113 0.098073
v 1.743948 7.657949 0.098032
v 1.744287 7.660412 0.098022
v 1.743289 7.659863 0.098027
v 1.744187 7.660576 0.098060
v 1.742691 7.663003 0.098019
v 1.742314 7.661644 0.098022
v 1.741059 7.663229 0.098018
v 1.739853 7.664336 0.098015
v 1.738544 7.665268 0.098012
v 1.740660 7.665165 0.098031
v 1.738757 7.666412 0.098013
v 1.736728 7.666172 0.098010
v 1.736003 7.667581 0.098006
v 1.734982 7.666709 0.098008
v 1.734787 7.667933 0.098035
v 1.732784 7.667021 0.098008
v 1.730151 7.666831 0.098008
v 1.727905 7.667357 0.098006
v 1.728008 7.666226 0.098009
v 1.725832 7.665146 0.098012
v 1.726731 7.666892 0.098042
v 1.725220 7.666096 0.098028
v 1.724077 7.663760 0.098015
v 1.722134 7.663370 0.098033
v 1.723444 7.664673 0.098016
v 1.722973 7.662574 0.098018
v 1.720115 7.661892 0.093304
v 1.720930 7.661505 0.093311
v 1.720043 7.661773 0.096795
v 1.745879 7.658411 0.096805
v 1.745917 7.658116 0.035830
v 1.746035 7.657732 0.096808
v 1.746159 7.656885 0.035833
v 1.745847 7.658504 0.079181
v 1.745843 7.658545 0.093322
v 1.745729 7.658804 0.035828
v 1.745430 7.659838 0.079178
v 1.745692 7.658894 0.023323
v 1.745730 7.658777 0.026400
v 1.745418 7.659712 0.023320
v 1.745042 7.660757 0.079176
v 1.745081 7.660520 0.023319
v 1.745027 7.660648 0.026399
v 1.745026 7.660675 0.035823
v 1.744981 7.660946 0.096798
v 1.744674 7.661394 0.035821
v 1.744485 7.661901 0.096797
v 1.744151 7.662292 0.035819
v 1.744163 7.662437 0.096795
v 1.744093 7.662519 0.079171
v 1.743563 7.663154 0.035817
v 1.743134 7.663827 0.079168
v 1.743483 7.663221 0.023312
v 1.743561 7.663126 0.026391
v 1.742961 7.663878 0.023309
v 1.742625 7.664407 0.079166
v 1.742352 7.664541 0.023309
v 1.742227 7.664873 0.096789
v 1.742260 7.664643 0.026384
v 1.742260 7.664670 0.035813
v 1.741691 7.665219 0.035811
v 1.741300 7.665739 0.096794
v 1.741172 7.665781 0.079162
v 1.741171 7.665822 0.093297
v 1.740545 7.666270 0.079161
v 1.740705 7.666030 0.035809
v 1.740034 7.666497 0.035808
v 1.740035 7.666471 0.026384
v 1.739925 7.666540 0.023306
v 1.739203 7.667141 0.079159
v 1.738986 7.667093 0.023300
v 1.739067 7.667260 0.096782
v 1.738308 7.667645 0.096781
v 1.738412 7.667387 0.023301
v 1.738293 7.667452 0.026381
v 1.738292 7.667479 0.035805
v 1.737534 7.667989 0.096779
v 1.737727 7.667729 0.035805
v 1.737391 7.667990 0.079156
v 1.736429 7.668334 0.079155
v 1.736593 7.668159 0.035803
v 1.735576 7.668436 0.035803
v 1.735450 7.668430 0.023298
v 1.735577 7.668409 0.026379
v 1.735096 7.668669 0.079155
v 1.734948 7.668746 0.096778
v 1.734586 7.668604 0.023295
v 1.733734 7.668714 0.023297
v 1.734109 7.668885 0.096781
v 1.733604 7.668736 0.026378
v 1.733603 7.668763 0.035802
v 1.733192 7.668795 0.035801
v 1.733258 7.668966 0.096777
v 1.733112 7.668924 0.079154
v 1.733111 7.668965 0.093290
v 1.731864 7.668953 0.079154
v 1.732005 7.668832 0.035801
v 1.730723 7.668734 0.035801
v 1.730719 7.668859 0.079154
v 1.730570 7.668892 0.096777
v 1.730594 7.668683 0.023297
v 1.729726 7.668764 0.096781
v 1.729727 7.668553 0.023297
v 1.728895 7.668579 0.096778
v 1.728885 7.668364 0.023298
v 1.728752 7.668532 0.093292
v 1.728753 7.668492 0.079155
v 1.728757 7.668367 0.035802
v 1.727654 7.668168 0.079155
v 1.727527 7.667996 0.035803
v 1.726498 7.667690 0.079156
v 1.726432 7.667533 0.035804
v 1.726362 7.667679 0.096780
v 1.726060 7.667356 0.035805
v 1.730834 7.667751 0.021679
v 1.728994 7.667415 0.021705
v 1.726061 7.667328 0.026380
v 1.725944 7.667261 0.023300
v 1.725598 7.667297 0.096784
v 1.725187 7.666849 0.023298
v 1.724865 7.666864 0.096782
v 1.724741 7.666734 0.079159
v 1.724740 7.666775 0.093295
v 1.724447 7.666377 0.023303
v 1.724408 7.666514 0.079159
v 1.724339 7.666312 0.026383
v 1.724338 7.666339 0.035807
v 1.723619 7.665944 0.079161
v 1.723489 7.665712 0.035809
v 1.722844 7.665276 0.079162
v 1.722587 7.664905 0.035811
v 1.722729 7.665228 0.096785
v 1.722151 7.664467 0.035812
v 1.722152 7.664440 0.026387
v 1.722062 7.664336 0.023308
v 1.721562 7.664003 0.096798
v 1.721629 7.663851 0.023307
v 1.721468 7.663865 0.093304
v 1.721470 7.663825 0.079166
v 1.721101 7.663352 0.079167
v 1.720955 7.662998 0.023313
v 1.720881 7.662923 0.035816
v 1.720526 7.662536 0.079169
v 1.720422 7.662242 0.035817
v 1.720116 7.661851 0.079171
v 1.719796 7.661129 0.035820
v 1.719665 7.661049 0.096798
v 1.719466 7.660417 0.035822
v 1.719410 7.660261 0.023319
v 1.719258 7.660047 0.079175
v 1.719257 7.660088 0.093312
v 1.719022 7.659226 0.023320
v 1.718995 7.659327 0.079177
v 1.718837 7.658622 0.023322
v 1.718789 7.658535 0.035827
v 1.718763 7.658530 0.079179
v 1.718802 7.658505 0.026402
v 1.718579 7.657753 0.079181
v 1.718421 7.656707 0.035831
v 1.718551 7.657658 0.096805
v 1.718414 7.656838 0.096809
v 1.718329 7.655693 0.035834
v 1.718331 7.655970 0.096809
v 1.718322 7.655812 0.093323
v 1.718323 7.655771 0.079186
v 1.718323 7.655527 0.023330
v 1.718330 7.655666 0.026403
v 1.718301 7.654646 0.023330
v 1.718341 7.653790 0.023334
v 1.718292 7.654596 0.079189
v 1.718347 7.653695 0.035839
v 1.718350 7.653668 0.026415
v 1.718389 7.653380 0.079192
v 1.718503 7.652446 0.035842
v 1.718403 7.653284 0.096816
v 1.718388 7.653421 0.093329
v 1.718580 7.657794 0.093312
v 1.719311 7.660235 0.096799
v 1.722843 7.665317 0.093299
v 1.726497 7.667731 0.093293
v 1.730718 7.668899 0.093290
v 1.737390 7.668031 0.093293
v 1.739197 7.667173 0.093295
v 1.742523 7.664567 0.096789
v 1.742624 7.664448 0.093303
v 1.744084 7.662552 0.093311
v 1.745040 7.660798 0.093315
v 1.746194 7.656738 0.096809
v 1.746210 7.656580 0.093322
v 1.745323 7.656415 0.093324
v 1.746213 7.656539 0.079186
v 1.746258 7.655975 0.035835
v 1.746307 7.655149 0.079190
v 1.746269 7.655809 0.023331
v 1.746309 7.654950 0.023332
v 1.746277 7.654149 0.079193
v 1.746281 7.653991 0.025389
v 1.746278 7.653977 0.035840
v 1.746276 7.654190 0.093324
v 1.746266 7.654052 0.096817
v 1.746187 7.652966 0.035843
v 1.746183 7.653184 0.096820
v 1.746046 7.652363 0.096821
v 1.746021 7.652167 0.079198
v 1.746018 7.652208 0.093333
v 1.745818 7.651136 0.035848
v 1.745807 7.651111 0.026421
v 1.745780 7.650963 0.023336
v 1.745669 7.650780 0.079201
v 1.745342 7.649873 0.079203
v 1.745341 7.649914 0.093340
v 1.745286 7.649786 0.096827
v 1.745200 7.649341 0.023349
v 1.745141 7.649254 0.035852
v 1.745142 7.649227 0.026429
v 1.744812 7.648542 0.035854
v 1.744931 7.648971 0.096831
v 1.744554 7.648249 0.096831
v 1.744484 7.648068 0.079208
v 1.744482 7.648109 0.093345
v 1.744184 7.647427 0.035857
v 1.744073 7.647383 0.079210
v 1.743727 7.646747 0.035859
v 1.743499 7.646567 0.079212
v 1.743728 7.646720 0.026436
v 1.743653 7.646598 0.023357
v 1.743130 7.646096 0.079213
v 1.743129 7.646136 0.093350
v 1.742976 7.645743 0.023355
v 1.743036 7.646029 0.096837
v 1.742468 7.645396 0.096838
v 1.742547 7.645263 0.023358
v 1.742457 7.645176 0.026438
v 1.742457 7.645204 0.035863
v 1.742020 7.644766 0.035864
v 1.741868 7.644794 0.096839
v 1.741756 7.644644 0.079217
v 1.741755 7.644685 0.093353
v 1.741117 7.643957 0.035866
v 1.740979 7.643974 0.079218
v 1.740269 7.643332 0.035867
v 1.739860 7.643184 0.079220
v 1.740163 7.643218 0.023363
v 1.739732 7.643157 0.096844
v 1.739858 7.643226 0.093357
v 1.739271 7.642663 0.023364
v 1.739007 7.642729 0.096848
v 1.738665 7.642338 0.023365
v 1.738547 7.642315 0.035870
v 1.738548 7.642288 0.026445
v 1.738176 7.642137 0.035870
v 1.738235 7.642343 0.096846
v 1.738101 7.642271 0.093359
v 1.738102 7.642230 0.079222
v 1.737082 7.641675 0.035871
v 1.736947 7.641753 0.079224
v 1.735851 7.641304 0.035872
v 1.735847 7.641428 0.079224
v 1.735725 7.641235 0.023368
v 1.735846 7.641469 0.093361
v 1.735702 7.641442 0.096848
v 1.734883 7.641045 0.023368
v 1.734871 7.641258 0.096851
v 1.734016 7.640916 0.023368
v 1.734027 7.641129 0.096849
v 1.733881 7.641061 0.079225
v 1.733885 7.640937 0.035873
v 1.732605 7.640839 0.035873
v 1.732737 7.640967 0.079225
v 1.731488 7.640996 0.079225
v 1.731415 7.640875 0.035873
v 1.731437 7.641042 0.094524
v 1.733880 7.641102 0.093362
v 1.731487 7.641036 0.093362
v 1.731004 7.640908 0.035873
v 1.730914 7.641091 0.096849
v 1.730875 7.640884 0.023368
v 1.730298 7.641165 0.096849
v 1.730199 7.640969 0.023367
v 1.729163 7.641163 0.023369
v 1.729649 7.641275 0.096848
v 1.729504 7.641251 0.079224
v 1.729032 7.641207 0.026448
v 1.729031 7.641235 0.035872
v 1.728018 7.641510 0.035871
v 1.728174 7.641586 0.079223
v 1.727209 7.641930 0.079222
v 1.726880 7.641941 0.035870
v 1.727066 7.642031 0.096845
v 1.726315 7.642191 0.035869
v 1.726289 7.642377 0.096845
v 1.726316 7.642164 0.026445
v 1.726198 7.642212 0.023365
v 1.725410 7.642620 0.023362
v 1.725530 7.642762 0.096844
v 1.725401 7.642828 0.093357
v 1.725397 7.642779 0.079220
v 1.724059 7.643647 0.079218
v 1.724573 7.643173 0.035866
v 1.724573 7.643146 0.026444
v 1.724684 7.643065 0.023362
v 1.723902 7.643641 0.035865
v 1.723428 7.644139 0.079216
v 1.722916 7.644453 0.035863
v 1.723426 7.644180 0.093352
v 1.723312 7.644284 0.096840
v 1.722698 7.644824 0.096840
v 1.722348 7.645000 0.035862
v 1.722074 7.645455 0.096837
v 1.722257 7.645058 0.023357
v 1.721975 7.645513 0.079213
v 1.721650 7.645718 0.023353
v 1.721460 7.646101 0.079211
v 1.721126 7.646377 0.023354
v 1.721044 7.646517 0.035858
v 1.721048 7.646491 0.026433
v 1.721974 7.645553 0.093343
v 1.720507 7.647401 0.079208
v 1.720434 7.647584 0.096831
v 1.720514 7.647449 0.093339
v 1.720114 7.648118 0.096831
v 1.720231 7.647737 0.035854
v 1.719579 7.648994 0.035851
v 1.719616 7.649076 0.096827
v 1.719557 7.649204 0.093340
v 1.719558 7.649163 0.079203
v 1.719168 7.650086 0.079201
v 1.719528 7.649079 0.023347
v 1.719190 7.649890 0.023343
v 1.718917 7.650705 0.023342
v 1.718879 7.650867 0.035846
v 1.718879 7.650839 0.026424
v 1.718736 7.651388 0.035845
v 1.718753 7.651415 0.079197
v 1.718718 7.651610 0.096821
v 1.718755 7.651457 0.093338
v 1.719582 7.648968 0.026427
v 1.722348 7.644973 0.026437
v 1.731005 7.640881 0.026448
v 1.733772 7.641857 0.021758
v 1.735851 7.641276 0.026448
v 1.746279 7.653950 0.026416
v 1.746258 7.655948 0.026409
v 1.744790 7.658452 0.035829
v 1.745319 7.655998 0.035835
v 1.745256 7.655938 0.026411
v 1.745102 7.657186 0.021695
v 1.744791 7.658425 0.026406
v 1.719709 7.658334 0.021698
v 1.721647 7.657242 0.021693
v 1.719338 7.653864 0.021702
v 1.720966 7.661184 0.021683
v 1.724717 7.662420 0.021680
v 1.722784 7.663648 0.021676
v 1.723835 7.664672 0.021675
v 1.726420 7.666478 0.021679
v 1.729625 7.665351 0.021683
v 1.732170 7.667801 0.021667
v 1.733640 7.667718 0.021667
v 1.737990 7.666492 0.021668
v 1.740593 7.664824 0.021675
v 1.741642 7.663837 0.021677
v 1.743527 7.661385 0.021685
v 1.742644 7.659950 0.021688
v 1.744487 7.659363 0.021682
v 1.745274 7.655725 0.021698
v 1.745295 7.654128 0.021702
v 1.743983 7.654697 0.021702
v 1.745148 7.652667 0.021707
v 1.737743 7.644629 0.021727
v 1.736907 7.642629 0.021732
v 1.735474 7.642192 0.021731
v 1.733570 7.643257 0.021730
v 1.732406 7.641789 0.021734
v 1.730969 7.641869 0.021732
v 1.726736 7.643055 0.021756
v 1.725230 7.643879 0.021725
v 1.724037 7.644747 0.021726
v 1.726459 7.644563 0.021726
v 1.722954 7.645744 0.021722
v 1.721929 7.646968 0.021720
v 1.721098 7.648176 0.021717
v 1.719861 7.650980 0.021707
v 1.721404 7.650791 0.021729
v 1.719503 7.652434 0.021706
v 1.721654 7.662332 0.021707
v 1.721655 7.662287 0.035817
v 1.720968 7.661222 0.035820
v 1.720412 7.660083 0.035823
v 1.720332 7.660003 0.021723
v 1.719738 7.658166 0.035795
v 1.719332 7.655704 0.035834
v 1.719460 7.656935 0.035831
v 1.719317 7.655548 0.021696
v 1.719353 7.653678 0.026411
v 1.719348 7.653705 0.035839
v 1.719770 7.651209 0.035845
v 1.719818 7.651191 0.026421
v 1.720521 7.649321 0.026426
v 1.720438 7.649489 0.021713
v 1.721808 7.647170 0.035856
v 1.720471 7.649295 0.035850
v 1.721809 7.647143 0.026432
v 1.723110 7.645625 0.026435
v 1.725065 7.644046 0.035864
v 1.723081 7.645586 0.035860
v 1.725066 7.644019 0.026439
v 1.729122 7.642241 0.035654
v 1.726805 7.642989 0.035867
v 1.729299 7.642063 0.021744
v 1.731169 7.641869 0.026446
v 1.731169 7.641896 0.035870
v 1.733698 7.641851 0.035870
v 1.735667 7.642262 0.026445
v 1.738037 7.643178 0.035867
v 1.735709 7.642230 0.035870
v 1.738144 7.643182 0.021735
v 1.739730 7.644081 0.021740
v 1.739759 7.644194 0.035865
v 1.741725 7.645784 0.035861
v 1.741772 7.645874 0.021724
v 1.742974 7.647240 0.021730
v 1.742952 7.647384 0.035857
v 1.744255 7.649549 0.035852
v 1.744252 7.649649 0.021713
v 1.744844 7.651353 0.021742
v 1.745275 7.653967 0.035840
v 1.744932 7.651481 0.035847
v 1.745276 7.653940 0.026410
v 1.746286 7.654072 0.023336
v 1.722926 7.663804 0.026389
v 1.725015 7.665549 0.021672
v 1.724849 7.665449 0.026385
v 1.724849 7.665476 0.035809
v 1.722884 7.663886 0.035813
v 1.726571 7.666466 0.026383
v 1.728894 7.667441 0.035805
v 1.726570 7.666493 0.035807
v 1.733440 7.667748 0.026378
v 1.733439 7.667779 0.035804
v 1.730906 7.667795 0.035804
v 1.735282 7.667531 0.021679
v 1.737800 7.666579 0.026383
v 1.737803 7.666678 0.035807
v 1.735444 7.667439 0.035710
v 1.739543 7.665597 0.026388
v 1.739376 7.665694 0.021673
v 1.741499 7.663991 0.026390
v 1.741522 7.664058 0.035814
v 1.739544 7.665629 0.035810
v 1.742800 7.662474 0.026394
v 1.742685 7.662625 0.021680
v 1.744088 7.660295 0.026394
v 1.744087 7.660323 0.035824
v 1.743496 7.661472 0.035821
v 1.742799 7.662501 0.035818
v 1.723967 7.646727 0.021985
v 1.728646 7.643783 0.022206
v 1.733381 7.643300 0.022393
v 1.736996 7.644258 0.022543
v 1.740860 7.646957 0.022714
v 1.741796 7.647964 0.021719
v 1.742578 7.660291 0.023232
v 1.740204 7.662921 0.023374
v 1.738630 7.664646 0.021655
v 1.735317 7.666032 0.023587
v 1.730354 7.666157 0.023784
v 1.732049 7.666388 0.021826
v 1.727262 7.665185 0.023917
v 1.726940 7.665015 0.022046
v 1.723297 7.662115 0.022228
v 1.723746 7.662583 0.024086
v 1.720973 7.657050 0.022466
v 1.721216 7.658273 0.024298
v 1.720841 7.653467 0.022615
v 1.721699 7.650175 0.024636
v 1.724690 7.646054 0.024854
v 1.727969 7.644135 0.025006
v 1.732148 7.643202 0.025171
v 1.735992 7.643903 0.025328
v 1.739146 7.645435 0.023578
v 1.740384 7.646357 0.025516
v 1.742769 7.649692 0.023777
v 1.743839 7.654447 0.023963
v 1.743687 7.656560 0.025923
v 1.742966 7.659394 0.024138
v 1.742447 7.660378 0.026066
v 1.739834 7.663571 0.024340
v 1.739995 7.663404 0.026218
v 1.736561 7.665574 0.026367
v 1.734491 7.666286 0.024560
v 1.731876 7.666391 0.026548
v 1.725039 7.663821 0.024961
v 1.721328 7.658463 0.027116
v 1.720823 7.653041 0.027345
v 1.720788 7.652907 0.025463
v 1.723041 7.647828 0.027578
v 1.723772 7.646867 0.025743
v 1.728847 7.643787 0.025981
v 1.732881 7.643292 0.028027
v 1.739094 7.645297 0.026397
v 1.737825 7.644550 0.028231
v 1.742670 7.649635 0.026600
v 1.741796 7.648167 0.028423
v 1.743695 7.652676 0.028612
v 1.743853 7.654270 0.026784
v 1.743448 7.657615 0.028794
v 1.743245 7.658542 0.026934
v 1.742213 7.660762 0.028910
v 1.739036 7.664226 0.029093
v 1.734482 7.666223 0.029272
v 1.728425 7.665804 0.029520
v 1.723518 7.662385 0.029754
v 1.722498 7.660928 0.027940
v 1.721084 7.657520 0.028099
v 1.721423 7.658685 0.029934
v 1.720703 7.654616 0.030109
v 1.720785 7.654202 0.028241
v 1.721487 7.650795 0.030263
v 1.721792 7.649983 0.028413
v 1.723929 7.646893 0.028573
v 1.722938 7.648106 0.030393
v 1.724716 7.646145 0.030506
v 1.728246 7.643849 0.028786
v 1.728669 7.643775 0.030689
v 1.734009 7.643364 0.030900
v 1.734741 7.643516 0.029044
v 1.738107 7.644861 0.029185
v 1.740294 7.646495 0.029282
v 1.738532 7.645073 0.031092
v 1.741194 7.647478 0.031215
v 1.743419 7.651552 0.031393
v 1.743273 7.651097 0.029488
v 1.743744 7.656989 0.031590
v 1.742209 7.661014 0.029858
v 1.741654 7.661623 0.031776
v 1.739686 7.663642 0.031886
v 1.738093 7.664791 0.030076
v 1.735763 7.665792 0.030167
v 1.737688 7.665034 0.031978
v 1.733932 7.666249 0.032121
v 1.732077 7.666392 0.030307
v 1.729412 7.666068 0.032304
v 1.724374 7.663185 0.032541
v 1.726789 7.665074 0.030532
v 1.722598 7.661095 0.030759
v 1.722431 7.660932 0.032655
v 1.720651 7.655708 0.031007
v 1.720856 7.656441 0.032861
v 1.722003 7.649546 0.031260
v 1.730962 7.643329 0.031717
v 1.728424 7.643890 0.033507
v 1.732553 7.643327 0.033668
v 1.736243 7.643916 0.033820
v 1.739176 7.645482 0.032056
v 1.740590 7.646719 0.034009
v 1.743087 7.650700 0.034185
v 1.743881 7.655194 0.032472
v 1.742566 7.660248 0.032655
v 1.743948 7.655407 0.034364
v 1.742254 7.660692 0.034562
v 1.739205 7.664143 0.034740
v 1.735848 7.665788 0.034876
v 1.732701 7.666400 0.034997
v 1.729467 7.665980 0.035131
v 1.728901 7.665828 0.033268
v 1.728011 7.665500 0.035194
v 1.726648 7.664858 0.033368
v 1.726304 7.664654 0.035271
v 1.723864 7.662758 0.033502
v 1.724062 7.662899 0.035380
v 1.721938 7.659956 0.035529
v 1.721271 7.658435 0.033716
v 1.720778 7.655804 0.035717
v 1.721105 7.652046 0.035848
v 1.722618 7.648546 0.034137
v 1.722317 7.649073 0.035851
v 1.724863 7.645952 0.035859
v 1.726216 7.644918 0.034354
v 1.729323 7.643648 0.035866
v 1.733069 7.643353 0.035867
v 1.737564 7.644465 0.034816
v 1.738026 7.644513 0.035864
v 1.742062 7.648555 0.035035
v 1.742659 7.649592 0.035851
v 1.744014 7.654715 0.035279
v 1.743743 7.653465 0.035842
v 1.743579 7.657733 0.035831
v 1.739950 7.663671 0.035742
v 1.741793 7.661621 0.035541
v 1.731690 7.643269 0.034575
v 1.720828 7.652915 0.033944
v 1.740220 7.663195 0.032800
v 1.725752 7.645227 0.031505
v 1.743827 7.655776 0.029666
v 1.737631 7.665078 0.027267
v 1.741242 7.662138 0.027089
v 1.733100 7.643270 0.026149
v 1.721532 7.659339 0.025190
v 1.728673 7.665761 0.024796
v 1.730029 7.643459 0.023201
v 1.722211 7.649110 0.022798
v 1.721536 7.654110 0.035814
v 1.739280 7.663152 0.034714
v 1.738199 7.645709 0.033918
v 1.729093 7.644378 0.033524
v 1.724484 7.646354 0.033321
v 1.721479 7.650414 0.033104
v 1.721958 7.651960 0.033050
v 1.721565 7.655878 0.032883
v 1.731542 7.665596 0.032221
v 1.740743 7.648021 0.031219
v 1.739799 7.662627 0.029029
v 1.727780 7.644062 0.027827
v 1.727392 7.645142 0.027795
v 1.723261 7.648925 0.027541
v 1.721820 7.657274 0.027903
v 1.723398 7.662195 0.026937
v 1.738187 7.664077 0.026292
v 1.742828 7.657038 0.025946
v 1.743549 7.651935 0.025755
v 1.720811 7.654039 0.024478
v 1.725602 7.663233 0.024018
v 1.730735 7.665565 0.023773
v 1.735190 7.665112 0.023586
v 1.743345 7.651353 0.022904
v 1.741913 7.649877 0.022827
v 1.722283 7.650725 0.021785
v 1.728440 7.644602 0.022187
v 1.733312 7.644090 0.022886
v 1.738266 7.645750 0.022612
v 1.743541 7.656505 0.023098
v 1.742147 7.659601 0.023218
v 1.721652 7.656644 0.024365
v 1.722263 7.650688 0.024624
v 1.725211 7.646739 0.025267
v 1.728527 7.644737 0.025016
v 1.733066 7.644034 0.025208
v 1.739444 7.646480 0.025491
v 1.742854 7.652444 0.025767
v 1.741715 7.659941 0.026066
v 1.732379 7.665623 0.026830
v 1.727980 7.665298 0.026717
v 1.722967 7.660449 0.027006
v 1.721689 7.653054 0.027350
v 1.733465 7.644043 0.028052
v 1.738712 7.646119 0.028289
v 1.741922 7.649933 0.028483
v 1.742594 7.658068 0.028811
v 1.733904 7.665602 0.029292
v 1.728099 7.664712 0.029551
v 1.724324 7.662099 0.029742
v 1.721506 7.654283 0.030125
v 1.722758 7.649863 0.030321
v 1.724432 7.647560 0.030452
v 1.727029 7.645407 0.031008
v 1.734413 7.644026 0.030919
v 1.743038 7.653419 0.031465
v 1.742402 7.658579 0.031658
v 1.739694 7.662718 0.031863
v 1.735834 7.664965 0.032043
v 1.723658 7.661450 0.032608
v 1.723762 7.648213 0.033238
v 1.734106 7.644274 0.033735
v 1.741925 7.649955 0.034140
v 1.743087 7.654528 0.034334
v 1.734201 7.665441 0.034935
v 1.722388 7.659266 0.035778
v 1.720538 7.652469 0.035842
v 1.720356 7.653635 0.035839
v 1.720300 7.655001 0.035836
v 1.720421 7.656605 0.035832
v 1.720833 7.658386 0.035827
v 1.721666 7.660444 0.035822
v 1.723029 7.662465 0.035817
v 1.724298 7.663779 0.035814
v 1.725530 7.663228 0.035703
v 1.726242 7.665225 0.035810
v 1.729219 7.665156 0.035650
v 1.728659 7.666273 0.035808
v 1.730441 7.666688 0.035807
v 1.732259 7.666838 0.035806
v 1.734634 7.665398 0.035823
v 1.734475 7.666647 0.035807
v 1.736616 7.666039 0.035809
v 1.738618 7.665054 0.035811
v 1.739951 7.664078 0.035814
v 1.740981 7.663137 0.035817
v 1.742252 7.661564 0.035821
v 1.720897 7.651060 0.035846
v 1.721818 7.648963 0.035851
v 1.723346 7.646816 0.035857
v 1.724986 7.645322 0.035861
v 1.726693 7.644215 0.035864
v 1.728552 7.643438 0.035866
v 1.729925 7.643079 0.035867
v 1.731745 7.642839 0.035868
v 1.733557 7.642907 0.035868
v 1.735565 7.643269 0.035867
v 1.737630 7.644082 0.035865
v 1.739547 7.645242 0.035862
v 1.741458 7.647052 0.035858
v 1.742511 7.648523 0.035854
v 1.743099 7.649588 0.035851
v 1.743787 7.651286 0.035847
v 1.744139 7.652843 0.035843
v 1.744219 7.653407 0.035842
v 1.744280 7.654049 0.035840
v 1.744293 7.655695 0.035836
v 1.743824 7.658288 0.035829
v 1.743064 7.660152 0.035824
v 1.727679 7.664511 0.022029
v 1.723328 7.660946 0.022265
v 1.725415 7.645512 0.023005
v 1.733735 7.643398 0.023348
v 1.740464 7.647719 0.023663
v 1.743280 7.654122 0.023951
v 1.731336 7.665565 0.024688
v 1.728350 7.644790 0.025948
v 1.732241 7.666440 0.027473
v 1.729895 7.665359 0.027579
v 1.726316 7.664775 0.027727
v 1.734075 7.644153 0.029019
v 1.741927 7.648510 0.029376
v 1.742858 7.656877 0.029708
v 1.721712 7.657090 0.030435
v 1.722041 7.651428 0.031187
v 1.735183 7.643670 0.031889
v 1.738115 7.645503 0.032025
v 1.742716 7.649713 0.032258
v 1.739942 7.662531 0.032786
v 1.736868 7.665474 0.032954
v 1.735130 7.665228 0.033012
v 1.732118 7.666375 0.033133
v 1.730934 7.665483 0.033188
v 1.727789 7.664556 0.033334
v 1.721744 7.656923 0.033774
v 1.732622 7.644077 0.034612
v 1.736464 7.644926 0.034781
v 1.739903 7.662579 0.035620
v 1.742278 7.658835 0.034862
v 1.743224 7.654009 0.035253
v 1.740361 7.647603 0.034966
v 1.726232 7.645655 0.034338
v 1.721889 7.651806 0.033997
v 1.723957 7.661782 0.033531
v 1.742894 7.657131 0.032543
v 1.742517 7.651226 0.032309
v 1.730909 7.644083 0.031710
v 1.724045 7.647984 0.031366
v 1.722751 7.659869 0.030803
v 1.725751 7.663347 0.030607
v 1.730267 7.665452 0.030392
v 1.734861 7.665240 0.030195
v 1.738358 7.663727 0.030046
v 1.741400 7.660583 0.029862
v 1.742847 7.652457 0.029536
v 1.739864 7.646957 0.029282
v 1.728071 7.644814 0.028766
v 1.723384 7.648691 0.028494
v 1.721602 7.653489 0.028272
v 1.724472 7.662379 0.027843
v 1.737828 7.664088 0.027244
v 1.740899 7.661242 0.027070
v 1.742747 7.657566 0.026905
v 1.742786 7.652054 0.026693
v 1.739172 7.646319 0.026420
v 1.733154 7.644043 0.026152
v 1.722534 7.650181 0.025590
v 1.721500 7.656097 0.025332
v 1.723232 7.660531 0.024642
v 1.726142 7.663687 0.024931
v 1.736382 7.664781 0.024479
v 1.740953 7.661385 0.024246
v 1.729030 7.644558 0.023149
v 1.725306 7.646615 0.022507
v 1.723335 7.648845 0.022832
v 1.721423 7.654176 0.022587
v 1.719481 7.651812 0.098069
v 1.719589 7.651644 0.098043
v 1.720351 7.649594 0.079202
v 1.719598 7.651565 0.079197
v 1.721101 7.648015 0.098077
v 1.721306 7.647880 0.093344
v 1.722729 7.646075 0.098060
v 1.722594 7.646208 0.093348
v 1.722555 7.646146 0.079211
v 1.721308 7.647840 0.079207
v 1.723770 7.644928 0.098092
v 1.723968 7.644841 0.098058
v 1.725953 7.643533 0.098102
v 1.725788 7.643642 0.093355
v 1.725755 7.643567 0.079218
v 1.724048 7.644794 0.079215
v 1.727548 7.642685 0.093348
v 1.729602 7.642048 0.093359
v 1.729613 7.642121 0.079222
v 1.727594 7.642740 0.079220
v 1.731339 7.641056 0.096849
v 1.731604 7.641930 0.093359
v 1.733714 7.641988 0.093359
v 1.733710 7.641901 0.079223
v 1.731605 7.641890 0.079223
v 1.735680 7.642355 0.093358
v 1.737866 7.643137 0.098104
v 1.737669 7.643062 0.093357
v 1.737679 7.642976 0.079220
v 1.735681 7.642314 0.079222
v 1.739358 7.643948 0.098111
v 1.741129 7.645226 0.079215
v 1.739427 7.643978 0.079218
v 1.743667 7.648496 0.093344
v 1.743702 7.648424 0.079207
v 1.742475 7.646715 0.079211
v 1.744452 7.650128 0.098052
v 1.744526 7.650301 0.093339
v 1.745123 7.652324 0.093332
v 1.745166 7.652264 0.079197
v 1.744527 7.650260 0.079202
v 1.745381 7.654306 0.093331
v 1.745369 7.656375 0.079187
v 1.745382 7.654265 0.079192
v 1.744988 7.658300 0.098037
v 1.744298 7.660334 0.079177
v 1.744957 7.658338 0.079182
v 1.743495 7.662015 0.098043
v 1.743291 7.662121 0.093309
v 1.741886 7.663975 0.098044
v 1.742004 7.663793 0.093304
v 1.742046 7.663774 0.079168
v 1.743292 7.662080 0.079172
v 1.738842 7.666352 0.079161
v 1.740552 7.665126 0.079164
v 1.737239 7.667253 0.098030
v 1.737003 7.667217 0.093292
v 1.734996 7.667953 0.093293
v 1.734999 7.667814 0.079157
v 1.737004 7.667176 0.079158
v 1.733094 7.668097 0.098043
v 1.730783 7.668073 0.098023
v 1.730885 7.667972 0.079156
v 1.732994 7.668077 0.079156
v 1.729105 7.667750 0.098030
v 1.728918 7.667646 0.093294
v 1.726928 7.666939 0.093295
v 1.726921 7.666944 0.079158
v 1.728919 7.667605 0.079157
v 1.723497 7.664660 0.079164
v 1.725158 7.665966 0.079161
v 1.720898 7.661496 0.079172
v 1.722125 7.663205 0.079168
v 1.719450 7.657645 0.079182
v 1.720069 7.659662 0.079176
v 1.719122 7.655925 0.098058
v 1.719164 7.655731 0.098033
v 1.719276 7.653546 0.079192
v 1.719172 7.655653 0.079187
f 385 829 1
f 2 3 4
f 3 5 4
f 5 3 7
f 7 3 6
f 7 6 904
f 7 904 8
f 8 904 905
f 8 905 9
f 9 905 10
f 9 10 829
f 9 829 11
f 11 829 12
f 12 829 830
f 12 830 14
f 14 830 13
f 14 13 833
f 15 16 833
f 833 16 14
f 16 15 835
f 16 835 17
f 17 835 839
f 17 839 840
f 17 840 18
f 18 840 841
f 18 841 19
f 18 19 20
f 20 19 21
f 20 21 22
f 22 21 23
f 22 23 25
f 25 23 24
f 25 24 26
f 25 26 27
f 27 26 28
f 27 28 30
f 30 28 29
f 31 30 29
f 30 31 32
f 32 31 855
f 32 855 859
f 32 859 33
f 33 859 35
f 33 35 34
f 34 35 36
f 34 36 38
f 38 36 37
f 38 37 40
f 38 40 39
f 39 40 865
f 41 42 865
f 865 42 39
f 42 41 44
f 42 44 43
f 43 44 45
f 45 44 46
f 46 44 50
f 46 50 47
f 46 47 48
f 48 47 49
f 48 49 51
f 49 873 51
f 51 873 52
f 51 52 53
f 53 52 54
f 53 54 876
f 53 876 56
f 55 56 876
f 56 55 57
f 57 55 878
f 57 878 60
f 57 60 58
f 58 60 59
f 59 60 61
f 59 61 884
f 59 884 62
f 62 884 63
f 62 63 64
f 64 63 65
f 64 65 66
f 66 65 889
f 66 889 890
f 66 890 67
f 67 890 893
f 68 67 893
f 67 68 69
f 69 68 71
f 69 71 70
f 70 71 72
f 70 72 73
f 73 72 75
f 73 75 74
f 73 74 76
f 76 74 4
f 4 74 2
f 78 77 79
f 78 79 2
f 81 80 82
f 81 82 83
f 80 81 84
f 80 84 85
f 84 81 86
f 84 86 87
f 87 86 88
f 87 88 90
f 86 89 88
f 87 90 92
f 87 92 91
f 93 94 92
f 92 94 91
f 96 95 94
f 94 95 237
f 95 96 97
f 97 96 98
f 97 98 99
f 99 98 100
f 100 98 101
f 100 101 102
f 102 101 103
f 102 103 105
f 101 104 103
f 102 105 106
f 106 105 107
f 106 107 234
f 234 107 108
f 108 107 109
f 109 110 108
f 110 111 108
f 108 111 112
f 112 111 113
f 112 113 114
f 111 116 113
f 113 116 115
f 115 116 117
f 115 117 120
f 120 117 118
f 120 118 119
f 120 119 121
f 120 121 122
f 122 121 124
f 122 124 123
f 124 125 123
f 123 125 126
f 123 126 127
f 127 126 128
f 127 128 129
f 129 128 131
f 129 131 130
f 130 131 132
f 130 132 135
f 135 132 133
f 132 134 133
f 135 133 137
f 135 137 136
f 136 137 139
f 139 137 138
f 139 138 140
f 140 141 139
f 139 141 143
f 143 141 142
f 143 142 144
f 143 144 145
f 142 147 144
f 144 147 146
f 146 147 148
f 146 148 149
f 149 148 151
f 149 151 150
f 150 151 153
f 150 153 152
f 152 153 154
f 154 153 155
f 154 155 156
f 156 155 157
f 157 155 158
f 157 158 159
f 159 158 160
f 159 160 161
f 161 160 162
f 161 162 163
f 163 162 164
f 163 164 169
f 169 164 168
f 148 165 151
f 155 166 158
f 164 167 168
f 169 168 170
f 169 170 171
f 171 170 173
f 173 170 172
f 170 174 172
f 172 174 175
f 176 177 174
f 174 177 175
f 175 177 178
f 178 177 179
f 178 179 180
f 180 179 181
f 180 181 182
f 182 181 183
f 182 183 186
f 186 183 184
f 186 184 185
f 186 185 187
f 186 187 188
f 188 187 189
f 189 187 191
f 189 191 190
f 190 191 192
f 192 191 436
f 190 192 193
f 193 192 194
f 193 194 195
f 195 194 196
f 195 196 77
f 77 196 79
f 79 196 197
f 197 196 198
f 197 198 228
f 228 198 199
f 440 199 198
f 202 203 199
f 199 203 200
f 199 200 228
f 228 200 201
f 203 202 204
f 204 205 206
f 204 206 203
f 204 207 205
f 206 205 208
f 208 205 209
f 208 209 210
f 210 209 211
f 211 209 213
f 213 209 212
f 213 212 214
f 214 212 217
f 214 217 215
f 215 217 216
f 215 216 220
f 220 216 218
f 220 218 219
f 220 219 221
f 221 219 222
f 220 221 223
f 223 221 224
f 223 224 225
f 225 224 1
f 223 225 226
f 210 227 208
f 180 182 229
f 163 230 161
f 150 231 149
f 136 886 135
f 129 232 127
f 122 233 120
f 106 234 235
f 100 236 99
f 237 91 94
f 49 238 82
f 49 82 873
f 873 82 80
f 240 239 238
f 240 238 49
f 83 82 238
f 83 238 241
f 241 238 239
f 83 241 242
f 242 241 243
f 242 243 244
f 244 243 245
f 245 243 480
f 480 243 246
f 480 246 247
f 247 246 249
f 247 249 248
f 248 249 250
f 248 250 251
f 251 250 252
f 251 252 253
f 251 253 254
f 254 253 255
f 251 254 256
f 256 254 259
f 256 259 258
f 256 258 257
f 258 259 263
f 263 259 260
f 263 260 262
f 262 260 261
f 263 262 264
f 263 264 265
f 262 267 264
f 264 267 266
f 266 267 268
f 266 268 269
f 269 268 270
f 266 269 271
f 271 269 272
f 271 272 273
f 273 272 274
f 273 274 275
f 275 274 276
f 276 274 277
f 276 277 279
f 279 277 278
f 279 278 280
f 279 280 282
f 282 280 281
f 282 281 283
f 283 281 284
f 284 281 286
f 284 286 285
f 285 286 287
f 287 286 288
f 285 287 289
f 289 287 290
f 289 290 291
f 291 290 292
f 291 292 293
f 293 292 294
f 292 295 294
f 293 294 296
f 296 294 297
f 296 297 298
f 298 297 299
f 298 299 300
f 297 302 299
f 299 302 301
f 303 304 302
f 302 304 301
f 301 304 305
f 305 304 306
f 305 306 307
f 307 306 308
f 307 308 309
f 309 308 310
f 309 310 311
f 309 311 312
f 312 311 313
f 312 313 315
f 312 315 314
f 314 315 316
f 314 316 317
f 317 316 319
f 317 319 318
f 318 319 320
f 318 320 321
f 321 320 322
f 321 322 849
f 315 323 316
f 320 324 322
f 321 849 325
f 325 849 326
f 325 326 327
f 327 326 328
f 327 328 329
f 329 328 331
f 329 331 330
f 846 332 331
f 331 332 330
f 330 332 333
f 333 332 334
f 332 336 334
f 334 336 335
f 335 336 337
f 335 337 338
f 338 337 339
f 845 339 337
f 338 339 340
f 340 339 341
f 340 341 342
f 342 341 343
f 343 341 345
f 343 345 344
f 346 347 345
f 345 347 344
f 348 349 347
f 347 349 350
f 347 350 351
f 349 348 352
f 352 348 353
f 352 353 354
f 354 353 356
f 354 356 357
f 353 355 356
f 354 357 358
f 358 357 359
f 358 359 360
f 360 359 361
f 360 361 362
f 362 361 363
f 362 363 364
f 364 363 365
f 364 365 366
f 359 367 361
f 363 368 365
f 365 368 372
f 372 368 369
f 369 368 370
f 372 369 371
f 372 371 374
f 372 374 373
f 375 376 374
f 374 376 373
f 377 378 376
f 378 377 379
f 379 377 380
f 380 377 381
f 380 381 382
f 377 384 381
f 381 384 383
f 383 384 385
f 385 384 386
f 383 385 1
f 383 1 224
f 387 373 378
f 378 373 376
f 360 388 358
f 351 344 347
f 327 389 325
f 317 390 314
f 309 391 307
f 293 468 291
f 248 392 247
f 242 244 393
f 86 81 394
f 394 81 395
f 395 81 83
f 395 83 242
f 398 89 394
f 394 89 86
f 416 397 396
f 396 397 395
f 395 397 394
f 394 397 398
f 398 397 415
f 402 400 440
f 440 400 399
f 399 400 444
f 444 400 401
f 401 400 435
f 435 400 434
f 400 402 403
f 403 402 436
f 403 436 404
f 403 404 405
f 403 405 482
f 403 482 407
f 407 482 406
f 407 406 166
f 407 166 165
f 407 165 408
f 407 408 409
f 407 409 492
f 407 492 515
f 515 492 410
f 515 410 497
f 515 497 411
f 515 411 412
f 515 412 502
f 515 502 414
f 414 502 413
f 414 413 415
f 414 415 418
f 418 415 397
f 418 397 416
f 418 416 417
f 418 417 419
f 418 419 476
f 418 476 475
f 418 475 512
f 512 475 472
f 512 472 471
f 512 471 468
f 512 468 420
f 420 468 467
f 420 467 421
f 420 421 423
f 423 421 422
f 423 422 390
f 423 390 424
f 423 424 425
f 423 425 429
f 429 425 460
f 429 460 426
f 429 426 427
f 429 427 428
f 429 428 430
f 429 430 431
f 429 431 432
f 429 432 434
f 434 432 450
f 434 450 433
f 434 433 435
f 434 400 678
f 436 402 437
f 437 402 438
f 438 402 439
f 439 402 440
f 192 436 437
f 439 198 438
f 438 198 196
f 438 196 194
f 438 194 437
f 437 194 192
f 439 440 198
f 199 440 399
f 199 399 202
f 202 399 204
f 207 204 441
f 441 204 399
f 207 441 205
f 442 212 443
f 443 212 209
f 443 209 205
f 443 205 441
f 444 217 442
f 442 217 212
f 441 399 443
f 443 399 444
f 444 442 443
f 217 444 216
f 216 444 218
f 218 444 401
f 218 401 219
f 445 222 219
f 445 219 401
f 222 445 221
f 221 445 446
f 381 383 447
f 447 383 224
f 447 224 446
f 446 224 221
f 448 382 447
f 447 382 381
f 448 447 435
f 448 435 433
f 382 448 433
f 382 433 380
f 380 433 379
f 379 433 450
f 379 450 378
f 387 378 449
f 449 378 450
f 387 449 373
f 373 449 452
f 451 365 372
f 451 372 452
f 452 372 373
f 453 366 451
f 451 366 365
f 450 432 449
f 449 432 452
f 452 432 451
f 451 432 453
f 453 432 431
f 366 453 431
f 366 431 364
f 364 431 362
f 362 431 430
f 362 430 360
f 454 388 360
f 454 360 430
f 388 454 358
f 358 454 456
f 349 352 455
f 455 352 456
f 456 352 354
f 456 354 358
f 457 350 455
f 455 350 349
f 430 428 454
f 454 428 456
f 456 428 455
f 455 428 457
f 457 428 427
f 350 457 351
f 351 457 427
f 351 427 344
f 344 427 426
f 344 426 343
f 342 343 426
f 342 426 340
f 340 426 459
f 458 334 459
f 459 334 335
f 459 335 338
f 459 338 340
f 458 333 334
f 426 460 459
f 459 460 458
f 333 458 460
f 333 460 330
f 330 460 329
f 329 460 425
f 329 425 327
f 389 327 461
f 461 327 425
f 389 461 325
f 325 461 462
f 317 318 463
f 463 318 321
f 463 321 462
f 462 321 325
f 463 390 317
f 425 424 461
f 461 424 462
f 462 424 463
f 463 424 390
f 314 390 312
f 312 390 422
f 312 422 309
f 391 309 464
f 464 309 422
f 391 464 307
f 307 464 466
f 299 301 465
f 465 301 466
f 466 301 305
f 466 305 307
f 467 300 465
f 465 300 299
f 422 421 464
f 464 421 466
f 466 421 465
f 465 421 467
f 300 467 298
f 298 467 296
f 296 467 468
f 296 468 293
f 291 468 469
f 284 285 470
f 470 285 289
f 470 289 291
f 470 291 469
f 471 283 470
f 470 283 284
f 469 468 470
f 470 468 471
f 471 282 283
f 282 471 279
f 279 471 276
f 276 471 472
f 472 275 276
f 275 472 273
f 273 472 473
f 474 264 266
f 474 266 271
f 474 271 473
f 473 271 273
f 475 265 474
f 474 265 264
f 473 472 474
f 474 472 475
f 265 475 263
f 263 475 258
f 258 475 476
f 476 257 258
f 257 476 256
f 256 476 478
f 477 248 478
f 478 248 251
f 478 251 256
f 479 392 477
f 477 392 248
f 476 419 478
f 478 419 477
f 477 419 479
f 479 419 417
f 392 479 247
f 247 479 480
f 480 479 417
f 480 417 245
f 245 417 416
f 245 416 244
f 396 393 416
f 416 393 244
f 393 396 242
f 242 396 395
f 435 447 446
f 435 446 445
f 435 445 401
f 185 404 187
f 187 404 436
f 187 436 191
f 404 185 481
f 481 185 184
f 482 405 483
f 483 405 484
f 484 405 485
f 485 405 481
f 481 405 404
f 176 174 483
f 483 174 482
f 176 483 177
f 177 483 484
f 183 181 485
f 485 181 179
f 485 179 177
f 485 177 484
f 481 184 485
f 485 184 183
f 168 406 170
f 170 406 482
f 170 482 174
f 167 486 168
f 168 486 406
f 166 406 487
f 487 406 486
f 486 488 487
f 158 166 487
f 164 162 488
f 488 162 487
f 487 162 160
f 487 160 158
f 486 167 488
f 488 167 164
f 151 165 153
f 153 165 166
f 153 166 155
f 409 408 489
f 489 408 490
f 490 408 491
f 491 408 165
f 489 140 138
f 489 138 409
f 140 489 141
f 141 489 490
f 148 147 491
f 491 147 490
f 490 147 142
f 490 142 141
f 491 165 148
f 133 492 137
f 137 492 409
f 137 409 138
f 134 495 492
f 134 492 133
f 410 492 493
f 493 492 494
f 494 492 495
f 125 124 493
f 493 124 410
f 125 493 126
f 126 493 494
f 495 132 494
f 494 132 131
f 494 131 128
f 494 128 126
f 495 134 132
f 119 497 410
f 119 410 121
f 121 410 124
f 118 496 497
f 118 497 119
f 412 411 498
f 498 411 499
f 499 411 500
f 500 411 496
f 496 411 497
f 498 109 107
f 498 107 412
f 109 498 110
f 110 498 499
f 117 116 500
f 500 116 499
f 499 116 111
f 499 111 110
f 496 118 500
f 500 118 117
f 103 502 105
f 105 502 412
f 105 412 107
f 104 501 502
f 104 502 103
f 415 413 503
f 503 413 504
f 504 413 505
f 505 413 501
f 501 413 502
f 501 506 505
f 93 92 503
f 503 92 415
f 93 503 94
f 94 503 504
f 506 101 98
f 506 98 505
f 505 98 96
f 505 96 94
f 505 94 504
f 501 104 506
f 506 104 101
f 88 415 90
f 90 415 92
f 89 398 88
f 88 398 415
f 434 507 429
f 429 507 508
f 429 508 423
f 423 508 509
f 423 509 510
f 423 510 420
f 420 510 511
f 420 511 512
f 511 676 512
f 512 676 418
f 676 682 418
f 418 682 513
f 418 513 414
f 515 513 514
f 515 516 518
f 514 516 515
f 517 518 516
f 517 519 520
f 517 520 518
f 521 522 524
f 521 524 523
f 520 519 522
f 520 522 521
f 672 523 524
f 525 526 652
f 525 672 526
f 652 526 527
f 764 652 527
f 528 764 527
f 651 528 529
f 651 529 765
f 530 765 529
f 531 530 532
f 531 532 533
f 533 532 671
f 671 534 533
f 534 671 535
f 534 535 536
f 536 535 537
f 536 537 538
f 538 537 539
f 538 540 541
f 539 540 538
f 540 542 541
f 541 542 650
f 650 693 543
f 668 543 693
f 543 668 649
f 546 649 544
f 546 544 545
f 547 546 545
f 547 548 546
f 548 547 664
f 664 550 549
f 648 550 552
f 648 552 551
f 551 552 554
f 551 554 553
f 553 554 555
f 553 555 556
f 556 557 558
f 555 557 556
f 557 559 558
f 559 560 647
f 647 560 646
f 770 561 562
f 562 772 770
f 772 563 564
f 562 563 772
f 563 566 564
f 564 566 565
f 572 570 569
f 570 572 571
f 571 572 573
f 571 573 574
f 575 574 573
f 575 576 574
f 577 580 578
f 579 580 581
f 579 581 774
f 576 580 577
f 578 580 579
f 582 774 581
f 774 582 583
f 645 582 584
f 585 584 586
f 587 585 586
f 587 590 588
f 589 591 592
f 588 590 589
f 590 591 589
f 593 595 592
f 595 594 597
f 595 597 596
f 593 594 595
f 598 597 599
f 598 658 600
f 598 599 658
f 644 657 602
f 601 602 603
f 604 606 605
f 606 780 605
f 780 606 607
f 780 607 608
f 608 607 610
f 608 610 609
f 609 610 611
f 643 612 782
f 782 614 784
f 784 615 616
f 614 615 784
f 615 617 616
f 617 619 618
f 618 619 620
f 620 619 621
f 621 622 620
f 620 622 623
f 622 624 623
f 624 642 623
f 628 629 626
f 628 630 629
f 641 630 631
f 641 631 633
f 641 633 632
f 632 633 634
f 634 633 635
f 634 635 636
f 636 635 637
f 636 637 638
f 636 638 640
f 640 638 639
f 641 629 630
f 628 626 627
f 626 642 627
f 627 642 625
f 625 642 624
f 618 616 617
f 614 782 613
f 613 782 612
f 612 643 611
f 643 609 611
f 605 778 604
f 778 601 604
f 604 601 603
f 602 601 644
f 644 600 657
f 657 600 658
f 598 596 597
f 593 592 591
f 587 588 585
f 584 585 645
f 582 645 583
f 577 574 576
f 569 570 567
f 567 570 568
f 567 568 565
f 567 565 566
f 561 770 646
f 561 646 560
f 647 558 559
f 550 648 549
f 664 549 548
f 544 649 668
f 693 650 542
f 531 765 530
f 528 651 764
f 672 525 523
f 515 414 513
f 653 625 624
f 621 619 622
f 619 617 615
f 729 615 717
f 717 615 613
f 615 614 613
f 613 612 654
f 654 612 611
f 610 607 716
f 606 604 655
f 655 604 603
f 603 602 656
f 657 658 713
f 660 659 599
f 660 599 597
f 660 597 712
f 658 599 659
f 593 591 661
f 590 587 591
f 591 587 711
f 710 586 709
f 708 584 582
f 662 581 580
f 705 573 572
f 566 563 702
f 563 562 702
f 700 561 560
f 663 560 559
f 559 557 699
f 552 550 696
f 696 550 664
f 545 544 695
f 695 544 667
f 542 540 692
f 692 540 669
f 535 671 670
f 690 671 689
f 688 530 529
f 687 529 528
f 687 528 527
f 685 527 526
f 522 519 673
f 519 517 674
f 517 516 674
f 674 516 675
f 516 514 675
f 676 511 677
f 511 510 681
f 681 510 509
f 434 678 507
f 507 678 826
f 507 826 679
f 507 679 508
f 508 679 509
f 679 680 509
f 680 681 509
f 511 681 677
f 677 682 676
f 683 513 682
f 513 683 514
f 519 674 673
f 673 821 522
f 522 821 524
f 524 821 684
f 524 684 672
f 684 685 672
f 672 685 526
f 685 686 527
f 527 686 687
f 688 529 687
f 688 689 530
f 530 689 532
f 532 689 671
f 671 690 670
f 535 670 537
f 537 670 691
f 691 539 537
f 539 691 669
f 539 669 540
f 542 692 693
f 694 544 668
f 544 694 667
f 545 695 666
f 545 666 547
f 666 665 547
f 547 665 664
f 664 665 696
f 696 697 552
f 552 697 554
f 554 697 698
f 554 698 555
f 698 557 555
f 559 699 663
f 560 663 700
f 561 700 562
f 562 700 701
f 562 701 702
f 566 702 776
f 566 776 703
f 566 703 567
f 567 703 704
f 567 704 569
f 569 704 705
f 705 706 573
f 573 706 575
f 706 707 575
f 707 576 575
f 707 580 576
f 580 707 662
f 662 582 581
f 582 662 708
f 708 709 584
f 584 709 586
f 586 710 587
f 587 710 711
f 661 591 711
f 661 594 593
f 594 712 597
f 713 658 659
f 713 656 657
f 657 656 602
f 603 656 714
f 714 655 603
f 606 655 715
f 715 607 606
f 607 715 716
f 610 716 791
f 610 791 611
f 791 654 611
f 654 717 613
f 615 729 619
f 729 727 619
f 619 727 622
f 622 727 718
f 622 718 624
f 718 653 624
f 572 569 705
f 719 625 720
f 720 625 653
f 720 653 721
f 721 653 718
f 721 718 722
f 722 718 723
f 723 718 724
f 724 718 725
f 725 718 727
f 725 727 726
f 726 727 728
f 728 727 729
f 728 729 730
f 730 729 731
f 731 729 732
f 732 729 733
f 732 733 734
f 734 733 639
f 734 639 735
f 735 639 736
f 736 639 737
f 737 639 738
f 738 639 739
f 739 639 638
f 740 625 719
f 625 740 627
f 627 740 741
f 627 741 742
f 627 742 628
f 628 742 743
f 628 743 744
f 628 744 630
f 630 744 745
f 630 745 746
f 630 746 747
f 630 747 631
f 631 747 748
f 631 748 749
f 631 749 633
f 633 749 750
f 633 750 751
f 633 751 752
f 633 752 635
f 635 752 753
f 635 753 754
f 635 754 755
f 635 755 637
f 637 755 756
f 637 756 757
f 637 757 758
f 637 758 759
f 637 759 638
f 638 759 760
f 638 760 761
f 638 761 739
f 760 759 51
f 51 759 48
f 48 759 758
f 48 758 46
f 46 758 757
f 46 757 45
f 45 757 756
f 45 756 43
f 43 756 755
f 43 755 42
f 42 755 754
f 42 754 39
f 39 754 753
f 39 753 38
f 38 753 752
f 38 752 34
f 34 752 751
f 34 751 33
f 33 751 750
f 33 750 32
f 32 750 749
f 32 749 30
f 30 749 748
f 30 748 27
f 27 748 747
f 27 747 25
f 25 747 746
f 25 746 22
f 22 746 745
f 22 745 20
f 20 745 744
f 20 744 18
f 18 744 743
f 18 743 17
f 17 743 742
f 17 742 16
f 16 742 741
f 16 741 14
f 14 741 740
f 14 740 12
f 12 740 11
f 11 740 719
f 11 719 9
f 9 719 720
f 9 720 721
f 9 721 8
f 8 721 722
f 8 722 7
f 7 722 723
f 7 723 5
f 5 723 724
f 5 724 4
f 4 724 725
f 4 725 76
f 76 725 73
f 73 725 726
f 73 726 70
f 70 726 728
f 70 728 69
f 69 728 730
f 69 730 67
f 67 730 731
f 67 731 732
f 67 732 66
f 66 732 734
f 66 734 64
f 64 734 735
f 64 735 62
f 62 735 736
f 62 736 59
f 59 736 58
f 58 736 737
f 58 737 738
f 58 738 57
f 57 738 739
f 57 739 56
f 56 739 761
f 56 761 53
f 53 761 760
f 53 760 51
f 515 518 407
f 407 518 762
f 762 518 520
f 762 520 521
f 762 521 763
f 763 521 523
f 763 523 828
f 651 765 825
f 825 765 680
f 766 531 533
f 767 533 534
f 536 538 824
f 823 541 768
f 768 541 650
f 649 546 820
f 820 546 819
f 686 548 769
f 769 548 549
f 770 772 771
f 771 772 812
f 812 564 667
f 568 570 811
f 811 570 810
f 810 570 571
f 574 577 773
f 578 579 774
f 578 774 808
f 808 774 807
f 774 583 807
f 807 583 645
f 807 645 775
f 775 645 585
f 775 585 806
f 588 589 805
f 805 589 804
f 592 595 803
f 596 598 801
f 801 598 776
f 776 598 777
f 777 598 600
f 601 778 779
f 778 605 779
f 608 609 797
f 609 781 797
f 609 643 781
f 781 643 782
f 781 782 783
f 782 784 783
f 783 784 785
f 784 616 785
f 785 616 786
f 618 620 796
f 620 623 796
f 796 623 787
f 629 641 794
f 794 641 788
f 788 641 632
f 788 632 789
f 792 634 636
f 640 639 790
f 639 733 790
f 640 790 791
f 640 791 636
f 636 791 792
f 634 792 793
f 634 793 632
f 632 793 789
f 629 794 626
f 626 794 795
f 626 795 642
f 642 795 623
f 795 787 623
f 796 786 618
f 618 786 616
f 608 797 798
f 608 798 780
f 780 798 605
f 605 798 779
f 779 799 601
f 799 644 601
f 644 799 706
f 644 706 800
f 644 800 600
f 600 800 777
f 801 802 596
f 596 802 595
f 595 802 803
f 803 804 592
f 592 804 589
f 588 805 585
f 585 805 806
f 578 808 577
f 808 773 577
f 574 773 809
f 574 809 571
f 571 809 810
f 568 811 565
f 565 811 667
f 565 667 564
f 564 812 772
f 770 771 692
f 770 692 646
f 646 692 813
f 646 813 647
f 647 813 814
f 814 815 647
f 647 815 558
f 558 815 556
f 556 815 816
f 556 816 553
f 816 817 553
f 553 817 551
f 551 817 818
f 551 818 648
f 818 769 648
f 648 769 549
f 548 686 819
f 548 819 546
f 820 821 649
f 649 821 822
f 649 822 543
f 543 822 650
f 822 768 650
f 541 823 538
f 538 823 824
f 824 767 536
f 536 767 534
f 533 767 766
f 766 765 531
f 651 825 764
f 825 826 764
f 764 826 827
f 827 652 764
f 652 827 828
f 828 525 652
f 525 828 523
f 407 762 403
f 403 762 763
f 403 763 400
f 400 763 828
f 400 828 678
f 678 828 827
f 678 827 826
f 679 826 825
f 679 825 680
f 680 765 681
f 681 765 766
f 681 766 677
f 677 766 767
f 677 767 682
f 682 767 683
f 683 767 824
f 683 824 514
f 514 824 823
f 514 823 675
f 675 823 674
f 674 823 768
f 674 768 822
f 674 822 673
f 673 822 821
f 821 820 684
f 684 820 685
f 820 819 685
f 685 819 686
f 686 769 687
f 687 769 688
f 688 769 818
f 688 818 689
f 689 818 817
f 689 817 816
f 689 816 690
f 690 816 815
f 690 815 670
f 670 815 691
f 691 815 814
f 691 814 669
f 669 814 813
f 669 813 692
f 692 771 693
f 771 812 693
f 693 812 668
f 668 812 694
f 694 812 667
f 667 811 695
f 695 811 810
f 695 810 666
f 666 810 665
f 665 810 809
f 665 809 696
f 696 809 773
f 696 773 697
f 697 773 808
f 697 808 698
f 698 808 807
f 698 807 557
f 557 807 775
f 557 775 699
f 699 775 806
f 699 806 663
f 663 806 805
f 663 805 700
f 700 805 804
f 700 804 803
f 700 803 701
f 701 803 802
f 701 802 702
f 702 802 801
f 702 801 776
f 703 776 777
f 703 777 704
f 704 777 800
f 704 800 705
f 705 800 706
f 706 799 707
f 707 799 779
f 707 779 662
f 662 779 798
f 662 798 708
f 708 798 797
f 708 797 709
f 709 797 781
f 709 781 710
f 710 781 711
f 711 781 783
f 711 783 661
f 661 783 785
f 661 785 786
f 661 786 594
f 594 786 796
f 594 796 712
f 712 796 787
f 712 787 660
f 660 787 795
f 660 795 659
f 659 795 713
f 713 795 794
f 713 794 656
f 656 794 788
f 656 788 714
f 714 788 789
f 714 789 655
f 655 789 793
f 655 793 715
f 715 793 792
f 715 792 716
f 716 792 791
f 791 790 654
f 654 790 733
f 654 733 717
f 717 733 729
f 829 385 386
f 829 386 830
f 13 830 832
f 13 832 831
f 375 374 13
f 375 13 376
f 376 13 831
f 832 384 377
f 832 377 831
f 831 377 376
f 830 386 832
f 832 386 384
f 13 374 833
f 833 374 371
f 833 371 369
f 833 369 834
f 834 369 370
f 835 15 836
f 836 15 837
f 837 15 838
f 838 15 834
f 834 15 833
f 836 367 835
f 835 367 359
f 835 359 839
f 367 836 361
f 361 836 837
f 838 368 837
f 837 368 363
f 837 363 361
f 834 370 838
f 838 370 368
f 359 357 839
f 839 357 356
f 839 356 840
f 840 356 355
f 841 840 842
f 842 840 843
f 840 844 843
f 346 345 842
f 842 345 841
f 346 842 347
f 347 842 843
f 353 348 844
f 844 348 843
f 843 348 347
f 840 355 844
f 844 355 353
f 841 345 19
f 19 345 341
f 19 341 339
f 19 339 845
f 23 21 846
f 846 21 847
f 847 21 848
f 848 21 845
f 845 21 19
f 846 331 23
f 332 846 847
f 337 336 848
f 848 336 847
f 847 336 332
f 848 845 337
f 331 328 23
f 23 328 24
f 24 328 326
f 24 326 849
f 849 322 850
f 850 322 324
f 28 26 851
f 851 26 852
f 852 26 853
f 853 26 850
f 850 26 24
f 24 849 850
f 323 315 851
f 851 315 28
f 323 851 316
f 316 851 852
f 320 319 853
f 853 319 852
f 852 319 316
f 850 324 853
f 853 324 320
f 315 313 28
f 28 313 29
f 29 313 311
f 29 311 854
f 854 311 310
f 855 31 856
f 856 31 857
f 857 31 858
f 858 31 854
f 854 31 29
f 303 302 856
f 856 302 855
f 303 856 304
f 304 856 857
f 308 306 858
f 858 306 857
f 857 306 304
f 854 310 858
f 858 310 308
f 302 297 855
f 855 297 859
f 859 297 294
f 859 294 295
f 860 35 859
f 859 861 860
f 288 286 35
f 287 288 860
f 860 288 35
f 861 292 860
f 860 292 290
f 860 290 287
f 859 295 861
f 861 295 292
f 35 286 281
f 35 281 36
f 36 281 280
f 36 280 278
f 40 37 862
f 862 37 863
f 863 37 864
f 864 37 36
f 270 268 862
f 862 268 40
f 270 862 269
f 269 862 863
f 277 274 864
f 864 274 863
f 863 274 272
f 863 272 269
f 36 278 864
f 864 278 277
f 268 267 40
f 40 267 262
f 40 262 865
f 865 262 866
f 866 262 261
f 44 41 867
f 867 41 868
f 868 41 869
f 869 41 866
f 866 41 865
f 867 255 253
f 867 253 44
f 255 867 254
f 254 867 868
f 260 259 869
f 869 259 868
f 868 259 254
f 866 261 869
f 869 261 260
f 253 252 44
f 44 252 50
f 50 252 250
f 50 250 870
f 870 250 249
f 49 47 240
f 240 47 871
f 871 47 872
f 872 47 870
f 870 47 50
f 241 239 871
f 871 239 240
f 246 243 872
f 872 243 871
f 871 243 241
f 870 249 872
f 872 249 246
f 873 80 85
f 874 52 873
f 873 875 874
f 52 237 54
f 54 237 95
f 237 52 91
f 91 52 874
f 875 84 874
f 874 84 87
f 874 87 91
f 873 85 875
f 875 85 84
f 54 95 876
f 876 95 97
f 876 97 99
f 876 99 236
f 876 236 877
f 878 55 879
f 879 55 880
f 880 55 881
f 881 55 877
f 877 55 876
f 235 234 879
f 879 234 878
f 235 879 106
f 106 879 880
f 881 100 880
f 880 100 102
f 880 102 106
f 877 236 881
f 881 236 100
f 234 108 878
f 878 108 60
f 60 108 112
f 60 112 114
f 61 60 882
f 882 60 883
f 233 122 61
f 233 61 120
f 120 61 882
f 113 115 883
f 883 115 882
f 882 115 120
f 60 114 883
f 883 114 113
f 61 122 884
f 884 122 123
f 884 123 127
f 884 127 232
f 884 232 885
f 65 63 886
f 886 63 887
f 887 63 888
f 888 63 885
f 885 63 884
f 886 136 65
f 135 886 887
f 129 130 888
f 888 130 887
f 887 130 135
f 885 232 888
f 888 232 129
f 136 139 65
f 65 139 889
f 889 139 143
f 889 143 145
f 891 890 892
f 892 890 889
f 231 150 890
f 149 231 891
f 891 231 890
f 144 146 892
f 892 146 891
f 891 146 149
f 889 145 892
f 892 145 144
f 150 152 890
f 890 152 893
f 893 152 154
f 893 154 894
f 894 154 156
f 71 68 895
f 895 68 896
f 896 68 897
f 897 68 894
f 894 68 893
f 230 163 895
f 895 163 71
f 230 895 161
f 161 895 896
f 157 159 897
f 897 159 896
f 896 159 161
f 897 894 157
f 157 894 156
f 163 169 71
f 71 169 72
f 72 169 171
f 72 171 173
f 75 72 898
f 898 72 899
f 229 182 75
f 229 75 180
f 180 75 898
f 899 172 175
f 899 175 178
f 899 178 898
f 180 898 178
f 72 173 899
f 899 173 172
f 75 182 74
f 74 182 186
f 74 186 188
f 2 74 78
f 78 74 900
f 900 74 901
f 77 78 195
f 195 78 900
f 189 190 901
f 901 190 900
f 900 190 193
f 900 193 195
f 74 188 901
f 901 188 189
f 79 197 2
f 2 197 3
f 3 197 228
f 3 228 201
f 6 3 902
f 902 3 903
f 6 227 210
f 227 6 208
f 208 6 902
f 200 203 903
f 903 203 902
f 902 203 206
f 902 206 208
f 3 201 903
f 903 201 200
f 210 211 6
f 6 211 904
f 904 211 213
f 904 213 905
f 905 213 214
f 10 905 906
f 906 905 907
f 226 225 10
f 223 226 906
f 906 226 10
f 215 220 907
f 907 220 906
f 906 220 223
f 905 214 907
f 907 214 215
f 1 829 225
f 225 829 10
