# USD → MuJoCo (world-space, simplified)
v 1.269480 7.651814 0.098069
v 1.268716 7.651610 0.096821
v 1.270807 7.661354 0.098057
v 1.270051 7.659956 0.098046
v 1.271633 7.660553 0.098023
v 1.269713 7.658686 0.098028
v 1.270798 7.658485 0.098028
v 1.269407 7.657496 0.098059
v 1.270409 7.656700 0.098033
v 1.270297 7.655281 0.098037
v 1.269191 7.654654 0.098038
v 1.270348 7.653813 0.098040
v 1.269278 7.653396 0.098071
v 1.270761 7.651626 0.098046
v 1.269934 7.650655 0.098048
v 1.271751 7.649254 0.098052
v 1.270365 7.649428 0.098072
v 1.273128 7.647250 0.098057
v 1.274288 7.646085 0.098060
v 1.275375 7.645205 0.098063
v 1.274916 7.644188 0.098065
v 1.272687 7.645980 0.098095
v 1.275953 7.643533 0.098102
v 1.276768 7.644368 0.098065
v 1.277876 7.643864 0.098066
v 1.278594 7.642447 0.098070
v 1.279409 7.643363 0.098068
v 1.279815 7.642136 0.098106
v 1.281021 7.643088 0.098069
v 1.282620 7.641919 0.098072
v 1.281879 7.643032 0.098069
v 1.282457 7.643024 0.098069
v 1.283919 7.641998 0.098099
v 1.283645 7.643092 0.098069
v 1.285503 7.642212 0.098094
v 1.285825 7.643526 0.098068
v 1.286690 7.642670 0.098070
v 1.287866 7.643137 0.098104
v 1.287889 7.644396 0.098066
v 1.289380 7.643930 0.098085
v 1.289596 7.645471 0.098063
v 1.291203 7.645355 0.098093
v 1.292434 7.646672 0.098093
v 1.291095 7.646846 0.098060
v 1.293113 7.647606 0.098058
v 1.292465 7.648592 0.098055
v 1.293828 7.648658 0.098085
v 1.293614 7.650961 0.098049
v 1.295144 7.652400 0.098049
v 1.294124 7.652926 0.098044
v 1.294309 7.654737 0.098040
v 1.295406 7.655375 0.098038
v 1.294227 7.656365 0.098036
v 1.295475 7.654102 0.098065
v 1.295023 7.658353 0.098025
v 1.293903 7.658145 0.098031
v 1.293275 7.659873 0.098027
v 1.294235 7.660446 0.098027
v 1.292431 7.661476 0.098022
v 1.292689 7.663005 0.098019
v 1.291315 7.662933 0.098019
v 1.291921 7.664013 0.098032
v 1.290603 7.663671 0.098017
v 1.289709 7.664455 0.098015
v 1.289742 7.665798 0.098011
v 1.288654 7.666519 0.098049
v 1.288022 7.665575 0.098012
v 1.285969 7.666443 0.098009
v 1.286004 7.667581 0.098006
v 1.284565 7.666790 0.098008
v 1.284787 7.667933 0.098035
v 1.283761 7.666916 0.098008
v 1.283087 7.668138 0.098012
v 1.282375 7.667017 0.098008
v 1.280352 7.666859 0.098008
v 1.280774 7.668073 0.098040
v 1.278579 7.666422 0.098009
v 1.277905 7.667357 0.098006
v 1.276893 7.665734 0.098010
v 1.276701 7.666944 0.098038
v 1.275324 7.666141 0.098041
v 1.275498 7.664898 0.098012
v 1.274331 7.665417 0.098011
v 1.274225 7.663904 0.098015
v 1.273437 7.664679 0.098042
v 1.272189 7.663475 0.098041
v 1.272842 7.662418 0.098019
v 1.271483 7.662421 0.098018
v 1.270115 7.661892 0.093307
v 1.270930 7.661505 0.093309
v 1.270043 7.661773 0.096795
v 1.295879 7.658411 0.096805
v 1.296006 7.657750 0.035831
v 1.295847 7.658504 0.079181
v 1.295843 7.658545 0.093321
v 1.295729 7.658804 0.035828
v 1.295431 7.659836 0.079178
v 1.295692 7.658894 0.023323
v 1.295730 7.658777 0.026400
v 1.295419 7.659709 0.023320
v 1.295042 7.660757 0.079176
v 1.295081 7.660520 0.023319
v 1.295027 7.660648 0.026399
v 1.295026 7.660675 0.035823
v 1.294978 7.660942 0.096799
v 1.294588 7.661720 0.096798
v 1.294488 7.661749 0.035820
v 1.294163 7.662437 0.096795
v 1.294085 7.662512 0.079171
v 1.293563 7.663154 0.035817
v 1.293483 7.663221 0.023312
v 1.293561 7.663126 0.026391
v 1.292960 7.663879 0.023309
v 1.293384 7.663526 0.079168
v 1.292625 7.664407 0.079166
v 1.292523 7.664567 0.096789
v 1.291914 7.665184 0.096789
v 1.292352 7.664541 0.023309
v 1.292260 7.664643 0.026386
v 1.292259 7.664670 0.035813
v 1.291692 7.665218 0.035811
v 1.291285 7.665737 0.096786
v 1.291171 7.665822 0.093299
v 1.291172 7.665781 0.079162
v 1.290545 7.666270 0.079161
v 1.290704 7.666030 0.035809
v 1.290035 7.666497 0.035808
v 1.290035 7.666471 0.026382
v 1.289927 7.666539 0.023305
v 1.289712 7.666825 0.079160
v 1.289198 7.667132 0.079159
v 1.289182 7.666984 0.023302
v 1.289064 7.667262 0.096781
v 1.288415 7.667389 0.023302
v 1.288308 7.667645 0.096781
v 1.288293 7.667452 0.026380
v 1.288292 7.667479 0.035805
v 1.287531 7.667990 0.096779
v 1.287727 7.667729 0.035805
v 1.287391 7.667990 0.079156
v 1.286430 7.668333 0.079155
v 1.286593 7.668159 0.035803
v 1.285576 7.668436 0.035803
v 1.285450 7.668430 0.023298
v 1.285577 7.668409 0.026378
v 1.285096 7.668669 0.079155
v 1.284948 7.668746 0.096778
v 1.284586 7.668604 0.023295
v 1.284282 7.668859 0.096779
v 1.283734 7.668714 0.023298
v 1.283260 7.668969 0.096778
v 1.283603 7.668766 0.035802
v 1.283112 7.668924 0.079154
v 1.283111 7.668965 0.093290
v 1.281864 7.668953 0.079154
v 1.282005 7.668832 0.035801
v 1.280723 7.668734 0.035801
v 1.280719 7.668859 0.079154
v 1.280570 7.668892 0.096777
v 1.280594 7.668683 0.023297
v 1.279726 7.668764 0.096781
v 1.279727 7.668553 0.023297
v 1.278885 7.668364 0.023298
v 1.278895 7.668579 0.096778
v 1.278752 7.668532 0.093291
v 1.278753 7.668492 0.079155
v 1.278757 7.668367 0.035802
v 1.277654 7.668168 0.079155
v 1.277527 7.667996 0.035803
v 1.276498 7.667690 0.079156
v 1.276432 7.667533 0.035804
v 1.276362 7.667679 0.096780
v 1.276060 7.667356 0.035805
v 1.275944 7.667261 0.023300
v 1.278757 7.668340 0.026378
v 1.276061 7.667328 0.026378
v 1.275780 7.667391 0.096783
v 1.274865 7.666869 0.096781
v 1.275186 7.666848 0.023298
v 1.274740 7.666775 0.093295
v 1.274740 7.666736 0.079159
v 1.274448 7.666377 0.023303
v 1.274339 7.666312 0.026383
v 1.274338 7.666339 0.035807
v 1.273620 7.665944 0.079161
v 1.273488 7.665711 0.035809
v 1.272844 7.665276 0.079162
v 1.272587 7.664905 0.035811
v 1.272729 7.665227 0.096785
v 1.272151 7.664467 0.035812
v 1.272130 7.664625 0.096788
v 1.272151 7.664440 0.026383
v 1.272019 7.664301 0.023300
v 1.271561 7.663993 0.096789
v 1.271468 7.663865 0.093303
v 1.271470 7.663825 0.079166
v 1.271101 7.663352 0.079167
v 1.270957 7.663001 0.023314
v 1.270882 7.662896 0.026388
v 1.270881 7.662923 0.035816
v 1.270526 7.662536 0.079169
v 1.270422 7.662242 0.035817
v 1.270117 7.661851 0.079171
v 1.269796 7.661130 0.035820
v 1.269665 7.661050 0.096798
v 1.269466 7.660417 0.035822
v 1.269409 7.660257 0.023319
v 1.269466 7.660389 0.026394
v 1.269258 7.660047 0.079175
v 1.269311 7.660235 0.096799
v 1.269257 7.660088 0.093312
v 1.269024 7.659231 0.023320
v 1.268994 7.659325 0.079177
v 1.268837 7.658622 0.023322
v 1.268797 7.658533 0.035827
v 1.268763 7.658530 0.079179
v 1.268802 7.658505 0.026401
v 1.268579 7.657753 0.079181
v 1.268443 7.656888 0.035831
v 1.268536 7.657640 0.096811
v 1.268329 7.655693 0.035834
v 1.268327 7.655972 0.096809
v 1.268322 7.655812 0.093323
v 1.268323 7.655771 0.079186
v 1.268323 7.655527 0.023330
v 1.268330 7.655666 0.026403
v 1.268301 7.654647 0.023331
v 1.268341 7.653790 0.023334
v 1.268293 7.654595 0.079189
v 1.268350 7.653695 0.035839
v 1.268350 7.653668 0.026415
v 1.268405 7.653157 0.035840
v 1.268389 7.653380 0.079192
v 1.268505 7.652592 0.096819
v 1.268405 7.653284 0.096816
v 1.268388 7.653421 0.093329
v 1.268580 7.657794 0.093312
v 1.272843 7.665317 0.093301
v 1.276497 7.667731 0.093293
v 1.280718 7.668899 0.093290
v 1.287390 7.668031 0.093293
v 1.289197 7.667174 0.093296
v 1.292624 7.664448 0.093304
v 1.294084 7.662552 0.093310
v 1.295040 7.660798 0.093312
v 1.296067 7.657579 0.096809
v 1.295463 7.656441 0.093325
v 1.296192 7.656737 0.096810
v 1.295300 7.656627 0.098035
v 1.296202 7.656513 0.035834
v 1.296213 7.656539 0.079186
v 1.296258 7.655975 0.035835
v 1.296307 7.655148 0.079190
v 1.296269 7.655809 0.023331
v 1.296309 7.654952 0.023332
v 1.296277 7.654149 0.079193
v 1.296276 7.654190 0.093329
v 1.296281 7.653977 0.035840
v 1.296270 7.654050 0.096816
v 1.296061 7.652382 0.096826
v 1.296018 7.652208 0.093333
v 1.296098 7.652369 0.035844
v 1.296021 7.652167 0.079198
v 1.295668 7.650778 0.079201
v 1.295806 7.651138 0.035848
v 1.295772 7.650976 0.023344
v 1.295511 7.650141 0.023345
v 1.295342 7.649873 0.079203
v 1.295341 7.649914 0.093342
v 1.295286 7.649786 0.096827
v 1.295194 7.649338 0.023348
v 1.295141 7.649254 0.035852
v 1.295142 7.649227 0.026430
v 1.294931 7.648970 0.096831
v 1.294812 7.648543 0.035854
v 1.294554 7.648249 0.096831
v 1.294484 7.648068 0.079208
v 1.294482 7.648109 0.093345
v 1.294185 7.647428 0.035857
v 1.294075 7.647386 0.079210
v 1.293727 7.646747 0.035859
v 1.293654 7.646601 0.023357
v 1.293499 7.646567 0.079212
v 1.293131 7.646096 0.079213
v 1.292973 7.645739 0.023355
v 1.293129 7.646136 0.093349
v 1.293036 7.646028 0.096836
v 1.292468 7.645396 0.096838
v 1.292547 7.645263 0.023358
v 1.292457 7.645176 0.026438
v 1.292457 7.645204 0.035863
v 1.291867 7.644794 0.096839
v 1.292020 7.644766 0.035864
v 1.291756 7.644644 0.079217
v 1.291754 7.644685 0.093353
v 1.291116 7.643957 0.035866
v 1.290978 7.643974 0.079218
v 1.290269 7.643332 0.035867
v 1.289860 7.643184 0.079220
v 1.290163 7.643218 0.023363
v 1.289732 7.643157 0.096844
v 1.289858 7.643226 0.093357
v 1.289269 7.642663 0.023364
v 1.289008 7.642729 0.096848
v 1.288665 7.642338 0.023365
v 1.288547 7.642315 0.035870
v 1.288548 7.642288 0.026445
v 1.288235 7.642343 0.096846
v 1.288175 7.642137 0.035870
v 1.288101 7.642271 0.093359
v 1.288102 7.642230 0.079222
v 1.287082 7.641675 0.035871
v 1.286947 7.641753 0.079224
v 1.285851 7.641304 0.035872
v 1.285847 7.641428 0.079224
v 1.285725 7.641235 0.023368
v 1.285846 7.641469 0.093361
v 1.285702 7.641442 0.096848
v 1.284883 7.641045 0.023368
v 1.284871 7.641258 0.096851
v 1.284016 7.640916 0.023368
v 1.284027 7.641129 0.096849
v 1.283881 7.641061 0.079225
v 1.283885 7.640937 0.035873
v 1.282737 7.640967 0.079225
v 1.282605 7.640839 0.035873
v 1.281488 7.640996 0.079225
v 1.281415 7.640875 0.035873
v 1.281487 7.641036 0.093362
v 1.283880 7.641102 0.093362
v 1.281339 7.641056 0.096849
v 1.281004 7.640908 0.035873
v 1.280476 7.641139 0.096851
v 1.280875 7.640884 0.023368
v 1.280199 7.640969 0.023367
v 1.279160 7.641164 0.023368
v 1.279649 7.641275 0.096848
v 1.279504 7.641251 0.079224
v 1.279031 7.641235 0.035872
v 1.278018 7.641510 0.035871
v 1.278174 7.641585 0.079223
v 1.277209 7.641930 0.079222
v 1.276880 7.641941 0.035870
v 1.277207 7.641970 0.093360
v 1.277063 7.642032 0.096844
v 1.276315 7.642191 0.035869
v 1.276289 7.642377 0.096845
v 1.276316 7.642164 0.026445
v 1.276198 7.642212 0.023365
v 1.275907 7.642566 0.096844
v 1.275635 7.642499 0.023362
v 1.275530 7.642766 0.096844
v 1.274682 7.643061 0.023364
v 1.275397 7.642779 0.079220
v 1.274573 7.643173 0.035866
v 1.273901 7.643641 0.035865
v 1.274058 7.643648 0.079218
v 1.273428 7.644139 0.079216
v 1.272915 7.644453 0.035863
v 1.273427 7.644180 0.093353
v 1.273312 7.644284 0.096840
v 1.272700 7.644822 0.096840
v 1.272348 7.645000 0.035862
v 1.272257 7.645058 0.023357
v 1.271975 7.645513 0.079213
v 1.271650 7.645718 0.023353
v 1.271462 7.646099 0.079211
v 1.271047 7.646518 0.035858
v 1.271126 7.646377 0.023354
v 1.272074 7.645455 0.096837
v 1.271974 7.645554 0.093349
v 1.270563 7.647207 0.035856
v 1.270507 7.647401 0.079208
v 1.270434 7.647584 0.096831
v 1.270514 7.647449 0.093344
v 1.270008 7.648303 0.096831
v 1.269931 7.648280 0.035853
v 1.269619 7.649079 0.096827
v 1.269582 7.648995 0.035851
v 1.269557 7.649204 0.093335
v 1.269558 7.649163 0.079203
v 1.269528 7.649079 0.023347
v 1.269191 7.649889 0.023343
v 1.269169 7.650085 0.079201
v 1.268917 7.650705 0.023342
v 1.268878 7.650867 0.035846
v 1.268879 7.650839 0.026423
v 1.268753 7.651415 0.079197
v 1.268755 7.651457 0.093334
v 1.268601 7.651919 0.035844
v 1.270444 7.649347 0.021749
v 1.272349 7.644973 0.026436
v 1.281005 7.640881 0.026448
v 1.283772 7.641857 0.021758
v 1.285851 7.641276 0.026448
v 1.292957 7.647257 0.021753
v 1.295807 7.651111 0.026423
v 1.296279 7.653950 0.026416
v 1.296259 7.655948 0.026406
v 1.294790 7.658452 0.035829
v 1.295319 7.655998 0.035835
v 1.295291 7.655722 0.021698
v 1.295256 7.655938 0.026409
v 1.295102 7.657184 0.021695
v 1.294748 7.658610 0.021689
v 1.294791 7.658425 0.026403
v 1.269708 7.658336 0.021697
v 1.272029 7.658302 0.021691
v 1.269331 7.653744 0.021704
v 1.271701 7.652837 0.021704
v 1.271656 7.662401 0.021684
v 1.272781 7.663763 0.021685
v 1.274858 7.662544 0.021680
v 1.274912 7.665487 0.021677
v 1.277758 7.666981 0.021669
v 1.278847 7.665055 0.021674
v 1.279134 7.667405 0.021666
v 1.280848 7.667759 0.021698
v 1.282170 7.667801 0.021667
v 1.286632 7.667062 0.021669
v 1.289507 7.665704 0.021686
v 1.291566 7.663930 0.021679
v 1.294235 7.660171 0.021694
v 1.295288 7.654127 0.021703
v 1.295148 7.652667 0.021707
v 1.294767 7.651018 0.021696
v 1.293628 7.648379 0.021718
v 1.291826 7.645941 0.021722
v 1.290749 7.644896 0.021727
v 1.286907 7.642629 0.021732
v 1.288727 7.645141 0.021726
v 1.285475 7.642191 0.021732
v 1.282405 7.641789 0.021734
v 1.283978 7.643342 0.021730
v 1.280967 7.641862 0.021730
v 1.279272 7.642080 0.021742
v 1.276729 7.643045 0.021732
v 1.277185 7.644173 0.021727
v 1.274038 7.644747 0.021726
v 1.272963 7.645750 0.021722
v 1.271829 7.646948 0.021731
v 1.272235 7.648899 0.021794
v 1.271609 7.662225 0.035773
v 1.270371 7.660105 0.035823
v 1.270361 7.659940 0.021689
v 1.269672 7.658178 0.035822
v 1.269332 7.655704 0.035834
v 1.269324 7.655549 0.021718
v 1.269352 7.653705 0.035839
v 1.269739 7.651281 0.035833
v 1.269766 7.651033 0.021718
v 1.270520 7.649348 0.035850
v 1.271737 7.647154 0.035848
v 1.273110 7.645625 0.026434
v 1.275065 7.644046 0.035864
v 1.273081 7.645586 0.035860
v 1.275091 7.643919 0.021774
v 1.279170 7.642132 0.035829
v 1.276805 7.642989 0.035867
v 1.281169 7.641869 0.026446
v 1.281169 7.641896 0.035870
v 1.283698 7.641851 0.035870
v 1.285667 7.642262 0.026446
v 1.288037 7.643178 0.035867
v 1.285709 7.642230 0.035870
v 1.288144 7.643182 0.021735
v 1.289734 7.644071 0.021761
v 1.289759 7.644194 0.035865
v 1.291725 7.645784 0.035861
v 1.291683 7.645813 0.026436
v 1.292952 7.647384 0.035857
v 1.294196 7.649587 0.035851
v 1.293654 7.648471 0.035854
v 1.294196 7.649560 0.026429
v 1.294862 7.651444 0.026422
v 1.295275 7.653967 0.035840
v 1.294932 7.651481 0.035847
v 1.295276 7.653940 0.026410
v 1.296286 7.654072 0.023336
v 1.272939 7.663930 0.035801
v 1.274848 7.665476 0.035809
v 1.276571 7.666466 0.026382
v 1.276391 7.666365 0.021670
v 1.278942 7.667355 0.026380
v 1.278894 7.667441 0.035805
v 1.276570 7.666493 0.035807
v 1.283513 7.667778 0.021691
v 1.283439 7.667779 0.035804
v 1.280906 7.667795 0.035804
v 1.285413 7.667420 0.026381
v 1.285219 7.667460 0.021668
v 1.287876 7.666536 0.021683
v 1.287800 7.666606 0.035807
v 1.286630 7.667099 0.035806
v 1.285412 7.667448 0.035805
v 1.291507 7.664028 0.035814
v 1.289558 7.665648 0.035810
v 1.292735 7.662553 0.021702
v 1.294073 7.660352 0.035730
v 1.292861 7.662533 0.035818
v 1.279039 7.643470 0.022224
v 1.285433 7.643682 0.022477
v 1.289349 7.645614 0.022644
v 1.293121 7.650380 0.021713
v 1.293827 7.656000 0.023077
v 1.293783 7.656270 0.021698
v 1.292077 7.661077 0.021685
v 1.285687 7.665883 0.023573
v 1.287605 7.665173 0.021659
v 1.282668 7.666287 0.021800
v 1.280329 7.666212 0.023785
v 1.274072 7.662980 0.022179
v 1.272986 7.661828 0.024130
v 1.270768 7.656275 0.024387
v 1.270979 7.651935 0.022672
v 1.273574 7.647579 0.022885
v 1.273477 7.647298 0.024779
v 1.275405 7.645578 0.023002
v 1.277336 7.644379 0.024982
v 1.281243 7.643319 0.025134
v 1.285145 7.643607 0.025293
v 1.284138 7.643324 0.023364
v 1.289475 7.645658 0.023589
v 1.290130 7.646167 0.025504
v 1.293244 7.651035 0.025719
v 1.292605 7.649494 0.023767
v 1.293847 7.653991 0.023947
v 1.293361 7.658083 0.024090
v 1.293859 7.655835 0.025897
v 1.291443 7.661954 0.024252
v 1.288649 7.664467 0.026284
v 1.282914 7.666450 0.026505
v 1.278111 7.665555 0.026707
v 1.274834 7.663757 0.024971
v 1.274137 7.663018 0.026892
v 1.270770 7.654625 0.025395
v 1.271583 7.650418 0.025564
v 1.270772 7.655070 0.027264
v 1.274613 7.646161 0.025789
v 1.274313 7.646390 0.027659
v 1.281537 7.643238 0.027972
v 1.286616 7.643940 0.026294
v 1.291188 7.647397 0.026506
v 1.287627 7.644428 0.028224
v 1.292287 7.648910 0.026569
v 1.292301 7.648849 0.028455
v 1.293629 7.652651 0.026723
v 1.293583 7.652523 0.028604
v 1.293795 7.655886 0.026842
v 1.293865 7.655236 0.028704
v 1.292849 7.659674 0.028862
v 1.286666 7.665519 0.029192
v 1.283200 7.666294 0.029323
v 1.279748 7.666080 0.027577
v 1.275844 7.664397 0.027750
v 1.272570 7.661051 0.027934
v 1.272608 7.661121 0.029818
v 1.279200 7.666009 0.029487
v 1.275190 7.663906 0.029669
v 1.270789 7.656366 0.028152
v 1.271464 7.650780 0.030265
v 1.271329 7.651169 0.028360
v 1.273460 7.647340 0.028545
v 1.273755 7.647060 0.030450
v 1.277312 7.644338 0.028748
v 1.278237 7.643881 0.030673
v 1.282592 7.643322 0.030843
v 1.286808 7.644096 0.029129
v 1.291186 7.647319 0.029325
v 1.289430 7.645673 0.031128
v 1.292371 7.649109 0.031292
v 1.293736 7.652490 0.029546
v 1.293839 7.653649 0.031475
v 1.293310 7.658315 0.031639
v 1.293039 7.659506 0.029793
v 1.291418 7.661924 0.031792
v 1.289353 7.663917 0.031903
v 1.289460 7.663849 0.030012
v 1.285984 7.665823 0.032045
v 1.285830 7.665902 0.030165
v 1.282531 7.666317 0.032176
v 1.279892 7.666124 0.032284
v 1.278507 7.665785 0.030457
v 1.274163 7.663016 0.030660
v 1.272288 7.660654 0.032668
v 1.271636 7.659314 0.030845
v 1.270605 7.654909 0.032926
v 1.270767 7.655145 0.031029
v 1.271670 7.650144 0.031232
v 1.272710 7.648225 0.033210
v 1.277836 7.644063 0.033484
v 1.284753 7.643548 0.031872
v 1.288233 7.644928 0.032019
v 1.290336 7.646566 0.032111
v 1.292185 7.648708 0.034101
v 1.293614 7.652635 0.034262
v 1.293850 7.654444 0.032444
v 1.293783 7.656694 0.034409
v 1.290522 7.663017 0.032787
v 1.291658 7.661676 0.034606
v 1.288273 7.664748 0.034783
v 1.286535 7.665585 0.032965
v 1.283221 7.666410 0.034978
v 1.281051 7.666412 0.033176
v 1.278819 7.665819 0.035159
v 1.275599 7.664233 0.035302
v 1.274751 7.663551 0.033457
v 1.273087 7.661755 0.035440
v 1.274463 7.663723 0.033460
v 1.271669 7.659266 0.035562
v 1.271595 7.659151 0.033681
v 1.270756 7.655679 0.035722
v 1.272750 7.648157 0.035854
v 1.272578 7.648512 0.034138
v 1.276954 7.644586 0.035863
v 1.280665 7.643420 0.035866
v 1.280182 7.643468 0.034514
v 1.283748 7.643407 0.035866
v 1.287479 7.644440 0.035864
v 1.286884 7.644253 0.034789
v 1.290366 7.646483 0.034940
v 1.291422 7.647665 0.035856
v 1.293275 7.651059 0.035142
v 1.293594 7.652250 0.035845
v 1.293398 7.658706 0.035828
v 1.290381 7.663281 0.035626
v 1.289157 7.664167 0.035810
v 1.283856 7.643417 0.034662
v 1.276089 7.645085 0.034346
v 1.270677 7.654225 0.033893
v 1.293227 7.658661 0.032591
v 1.292716 7.649713 0.032257
v 1.279112 7.643615 0.031649
v 1.281061 7.666238 0.030349
v 1.284577 7.666165 0.027384
v 1.289531 7.663870 0.027184
v 1.292662 7.659996 0.026990
v 1.279723 7.643470 0.026015
v 1.281581 7.666414 0.024673
v 1.278760 7.643762 0.023151
v 1.280792 7.665696 0.035079
v 1.286148 7.664839 0.034857
v 1.288398 7.645002 0.033912
v 1.283998 7.643374 0.033727
v 1.273584 7.648411 0.033226
v 1.271522 7.653804 0.032973
v 1.272531 7.659489 0.032710
v 1.275419 7.664161 0.032484
v 1.282072 7.665582 0.032198
v 1.292452 7.658996 0.031674
v 1.285550 7.643748 0.030964
v 1.270676 7.655919 0.030057
v 1.290230 7.663205 0.029033
v 1.277572 7.644318 0.027816
v 1.271414 7.650795 0.027435
v 1.271530 7.659059 0.027089
v 1.277134 7.664285 0.026769
v 1.291898 7.661299 0.026107
v 1.292999 7.655644 0.025894
v 1.271335 7.651202 0.024593
v 1.276600 7.664800 0.023948
v 1.274431 7.662347 0.024077
v 1.281386 7.665717 0.023745
v 1.289802 7.663301 0.023397
v 1.292076 7.661083 0.023269
v 1.293279 7.650976 0.022890
v 1.273594 7.648421 0.021915
v 1.278440 7.644602 0.022187
v 1.285128 7.644339 0.022470
v 1.291920 7.648461 0.022782
v 1.291850 7.649456 0.022810
v 1.293055 7.655908 0.023077
v 1.291015 7.661263 0.023300
v 1.271721 7.656901 0.024353
v 1.271759 7.652710 0.024536
v 1.273447 7.648616 0.024730
v 1.277662 7.645025 0.024980
v 1.282008 7.644079 0.025162
v 1.285776 7.644611 0.025328
v 1.292427 7.650766 0.025696
v 1.289483 7.662865 0.026220
v 1.285998 7.664962 0.027321
v 1.283414 7.665680 0.026485
v 1.273679 7.661251 0.026961
v 1.271737 7.657041 0.027174
v 1.272034 7.651275 0.027424
v 1.276125 7.645849 0.027735
v 1.282271 7.643992 0.028001
v 1.286500 7.644944 0.028188
v 1.290320 7.647501 0.028367
v 1.292478 7.651417 0.028550
v 1.293108 7.655617 0.028721
v 1.291664 7.660103 0.028900
v 1.288051 7.664065 0.029124
v 1.283389 7.665479 0.029313
v 1.279055 7.665148 0.029505
v 1.274964 7.662662 0.030239
v 1.272080 7.658749 0.029921
v 1.271872 7.651929 0.030224
v 1.273675 7.648469 0.030398
v 1.276865 7.645409 0.030599
v 1.281350 7.644140 0.030788
v 1.284367 7.644292 0.030919
v 1.288628 7.646025 0.031113
v 1.292039 7.650179 0.031322
v 1.292973 7.653729 0.032095
v 1.288730 7.663420 0.031913
v 1.285833 7.664965 0.032043
v 1.276742 7.664169 0.032441
v 1.278126 7.644845 0.033481
v 1.283859 7.644121 0.033724
v 1.288811 7.646222 0.033948
v 1.291989 7.650063 0.034144
v 1.293016 7.654047 0.034314
v 1.292387 7.658871 0.034496
v 1.289152 7.663136 0.034716
v 1.274456 7.662284 0.035774
v 1.273609 7.661192 0.035447
v 1.270333 7.653837 0.035839
v 1.271060 7.652377 0.035844
v 1.270312 7.655406 0.035835
v 1.270459 7.656811 0.035831
v 1.271647 7.656946 0.035745
v 1.270947 7.658769 0.035826
v 1.271971 7.660972 0.035821
v 1.273420 7.662925 0.035816
v 1.274917 7.664295 0.035812
v 1.279808 7.665449 0.035810
v 1.276605 7.665410 0.035810
v 1.278660 7.666273 0.035808
v 1.280442 7.666688 0.035807
v 1.282259 7.666838 0.035806
v 1.283695 7.666746 0.035807
v 1.284576 7.665300 0.035811
v 1.284497 7.666625 0.035807
v 1.285287 7.666450 0.035808
v 1.286430 7.666103 0.035809
v 1.288090 7.665354 0.035811
v 1.289623 7.664347 0.035813
v 1.290556 7.663542 0.035815
v 1.291255 7.662828 0.035817
v 1.292369 7.661400 0.035821
v 1.270624 7.652037 0.035843
v 1.271202 7.650246 0.035848
v 1.272030 7.648623 0.035852
v 1.273345 7.646817 0.035857
v 1.274985 7.645323 0.035861
v 1.276515 7.644318 0.035864
v 1.278560 7.643423 0.035866
v 1.280110 7.643046 0.035867
v 1.281131 7.642899 0.035868
v 1.281885 7.642853 0.035868
v 1.282751 7.642849 0.035868
v 1.284164 7.642982 0.035868
v 1.286144 7.643455 0.035867
v 1.287995 7.644270 0.035865
v 1.289701 7.645369 0.035862
v 1.291179 7.646752 0.035858
v 1.292423 7.648353 0.035854
v 1.293441 7.650333 0.035850
v 1.293989 7.652068 0.035845
v 1.294199 7.653243 0.035842
v 1.294317 7.654681 0.035838
v 1.294220 7.656288 0.035834
v 1.293875 7.658087 0.035830
v 1.293239 7.659785 0.035825
v 1.287068 7.664451 0.035762
v 1.275982 7.663582 0.022111
v 1.277753 7.665397 0.022009
v 1.271160 7.658041 0.022421
v 1.280830 7.644149 0.023224
v 1.286190 7.644645 0.023458
v 1.290237 7.647568 0.023653
v 1.287229 7.665275 0.024458
v 1.283787 7.665644 0.024584
v 1.271362 7.658625 0.025221
v 1.275512 7.646457 0.025808
v 1.272319 7.650674 0.028393
v 1.282167 7.643271 0.028939
v 1.281299 7.644064 0.028901
v 1.290925 7.648322 0.029346
v 1.293044 7.653366 0.029574
v 1.271819 7.657845 0.030905
v 1.274713 7.646125 0.031448
v 1.292742 7.657593 0.032561
v 1.287012 7.664585 0.032936
v 1.281587 7.665591 0.033159
v 1.274361 7.662136 0.033508
v 1.271521 7.656557 0.033793
v 1.282622 7.644077 0.034612
v 1.293749 7.657150 0.035366
v 1.293127 7.655836 0.035323
v 1.290721 7.661659 0.035569
v 1.292028 7.650145 0.035087
v 1.288063 7.645593 0.034852
v 1.276725 7.645427 0.034361
v 1.272487 7.650331 0.034066
v 1.277668 7.664505 0.033340
v 1.290749 7.661476 0.032735
v 1.291717 7.649398 0.032228
v 1.286785 7.644902 0.031968
v 1.281567 7.644105 0.031737
v 1.276302 7.645754 0.031511
v 1.272175 7.650911 0.031209
v 1.279987 7.665528 0.030402
v 1.288497 7.663695 0.030041
v 1.292204 7.659202 0.029797
v 1.286741 7.644946 0.029139
v 1.275870 7.646078 0.028660
v 1.271571 7.656398 0.028145
v 1.273485 7.660958 0.027917
v 1.276917 7.664192 0.027720
v 1.281459 7.665521 0.027510
v 1.290166 7.662176 0.027120
v 1.292253 7.658923 0.026429
v 1.293070 7.654815 0.026804
v 1.292048 7.650111 0.026606
v 1.289280 7.646646 0.025925
v 1.284968 7.644400 0.026232
v 1.280101 7.644195 0.026022
v 1.271968 7.651251 0.025538
v 1.272062 7.658462 0.025220
v 1.276423 7.663984 0.024914
v 1.290028 7.662404 0.024303
v 1.292657 7.657808 0.024088
v 1.292830 7.651990 0.023863
v 1.276618 7.645628 0.023042
v 1.271572 7.652580 0.022653
v 1.272482 7.659301 0.022349
v 1.269642 7.651622 0.093335
v 1.270350 7.649635 0.093340
v 1.270305 7.649585 0.079202
v 1.269643 7.651582 0.079197
v 1.271200 7.647949 0.098089
v 1.272563 7.646177 0.098057
v 1.272592 7.646164 0.079211
v 1.271285 7.647824 0.079207
v 1.273892 7.644976 0.098063
v 1.274047 7.644835 0.093351
v 1.275728 7.643514 0.093356
v 1.275773 7.643579 0.079218
v 1.274045 7.644791 0.079215
v 1.277358 7.642776 0.098092
v 1.277595 7.642785 0.093357
v 1.279602 7.642047 0.093359
v 1.279613 7.642121 0.079222
v 1.277594 7.642740 0.079220
v 1.281385 7.641850 0.098095
v 1.281603 7.641930 0.093359
v 1.283714 7.641988 0.093359
v 1.283716 7.641943 0.079223
v 1.281604 7.641862 0.079223
v 1.285680 7.642355 0.093359
v 1.287669 7.643062 0.093357
v 1.287679 7.642976 0.079220
v 1.285681 7.642314 0.079222
v 1.291118 7.645243 0.079215
v 1.289429 7.643973 0.079218
v 1.293667 7.648496 0.093344
v 1.293702 7.648424 0.079207
v 1.292475 7.646715 0.079211
v 1.294543 7.650208 0.098059
v 1.294574 7.650247 0.079202
v 1.295124 7.652284 0.079197
v 1.295381 7.654306 0.093331
v 1.295369 7.656375 0.079187
v 1.295382 7.654265 0.079192
v 1.295132 7.658166 0.098060
v 1.294298 7.660334 0.079177
v 1.294957 7.658338 0.079182
v 1.293495 7.662015 0.098043
v 1.293291 7.662121 0.093309
v 1.292004 7.663793 0.093305
v 1.292008 7.663755 0.079168
v 1.293315 7.662096 0.079172
v 1.290781 7.665129 0.098036
v 1.290551 7.665166 0.093301
v 1.288809 7.666359 0.093297
v 1.288842 7.666352 0.079161
v 1.290552 7.665126 0.079164
v 1.287229 7.667235 0.098030
v 1.287003 7.667217 0.093292
v 1.284996 7.667953 0.093293
v 1.284999 7.667814 0.079157
v 1.287004 7.667176 0.079158
v 1.280885 7.667972 0.079156
v 1.282994 7.668077 0.079156
v 1.279105 7.667750 0.098030
v 1.278918 7.667646 0.093294
v 1.276928 7.666939 0.093295
v 1.276921 7.666944 0.079158
v 1.278919 7.667605 0.079157
v 1.275172 7.665983 0.093297
v 1.273477 7.664697 0.079164
v 1.275173 7.665943 0.079161
v 1.272124 7.663245 0.093304
v 1.270898 7.661496 0.079172
v 1.272125 7.663205 0.079168
v 1.270072 7.659700 0.093311
v 1.269475 7.657677 0.093318
v 1.269450 7.657645 0.079182
v 1.270069 7.659662 0.079176
v 1.269122 7.655925 0.098058
v 1.269217 7.655695 0.093323
v 1.269275 7.653587 0.093329
v 1.269276 7.653546 0.079192
v 1.269172 7.655653 0.079187
f 2 1 234
f 3 4 5
f 6 7 4
f 4 7 5
f 7 6 8
f 7 8 9
f 9 8 903
f 9 903 10
f 10 903 11
f 10 11 12
f 12 11 13
f 12 13 1
f 12 1 14
f 14 1 15
f 14 15 16
f 16 15 17
f 16 17 834
f 835 16 834
f 16 835 18
f 18 835 22
f 18 22 19
f 19 22 838
f 19 838 20
f 20 838 21
f 20 21 24
f 24 21 23
f 24 23 843
f 24 843 25
f 25 843 26
f 25 26 27
f 27 26 28
f 27 28 848
f 27 848 29
f 29 848 30
f 29 30 31
f 31 30 32
f 32 30 34
f 34 30 33
f 34 33 35
f 34 35 36
f 37 36 35
f 36 37 39
f 39 37 38
f 39 38 40
f 39 40 41
f 41 40 42
f 41 42 44
f 44 42 43
f 44 43 45
f 44 45 46
f 46 45 47
f 46 47 48
f 48 47 862
f 48 862 50
f 50 862 49
f 50 49 54
f 50 54 51
f 51 54 52
f 51 52 53
f 53 52 249
f 53 249 868
f 53 868 56
f 56 868 55
f 56 55 57
f 57 55 58
f 57 58 871
f 57 871 59
f 60 59 871
f 59 60 61
f 61 60 62
f 61 62 63
f 63 62 876
f 63 876 64
f 64 876 65
f 64 65 67
f 67 65 66
f 67 66 881
f 67 881 68
f 68 881 69
f 68 69 70
f 70 69 71
f 70 71 72
f 72 71 73
f 72 73 74
f 74 73 75
f 75 73 76
f 75 76 888
f 78 77 888
f 888 77 75
f 77 78 79
f 79 78 80
f 79 80 81
f 79 81 82
f 82 81 83
f 82 83 84
f 84 83 85
f 84 85 86
f 84 86 87
f 87 86 88
f 87 88 5
f 5 88 3
f 89 91 90
f 90 91 3
f 93 92 246
f 92 93 94
f 92 94 95
f 94 93 96
f 94 96 97
f 97 96 98
f 97 98 100
f 96 99 98
f 97 100 102
f 97 102 101
f 103 104 102
f 102 104 101
f 107 105 104
f 105 107 106
f 106 107 108
f 108 107 109
f 109 107 114
f 114 107 110
f 114 110 111
f 114 111 113
f 110 112 111
f 114 113 115
f 115 113 118
f 115 118 116
f 116 118 117
f 117 118 119
f 119 120 117
f 120 121 117
f 117 121 122
f 122 121 123
f 123 121 124
f 121 126 124
f 124 126 125
f 125 126 127
f 125 127 130
f 130 127 129
f 127 128 129
f 130 129 131
f 131 129 132
f 131 132 242
f 242 132 133
f 133 132 134
f 133 134 135
f 135 134 136
f 135 136 137
f 135 137 138
f 138 137 139
f 138 139 140
f 140 139 142
f 140 142 141
f 141 142 143
f 141 143 146
f 146 143 144
f 143 145 144
f 146 144 148
f 146 148 147
f 147 148 149
f 149 148 150
f 149 150 151
f 487 152 150
f 150 152 151
f 151 152 153
f 151 153 154
f 152 156 153
f 153 156 155
f 155 156 157
f 155 157 158
f 158 157 160
f 158 160 159
f 159 160 162
f 159 162 161
f 161 162 164
f 164 162 163
f 164 163 165
f 165 163 166
f 166 163 167
f 166 167 168
f 168 167 169
f 168 169 170
f 170 169 171
f 170 171 172
f 172 171 173
f 172 173 177
f 177 173 176
f 177 176 174
f 157 418 160
f 163 175 167
f 177 174 179
f 177 179 178
f 178 179 181
f 178 181 180
f 179 182 181
f 183 184 182
f 182 184 181
f 181 184 185
f 185 184 186
f 185 186 187
f 187 186 188
f 187 188 189
f 189 188 190
f 189 190 191
f 191 190 192
f 191 192 193
f 191 193 194
f 194 193 195
f 195 193 196
f 196 193 198
f 196 198 197
f 197 198 199
f 197 199 200
f 197 200 201
f 201 200 202
f 201 202 203
f 203 202 204
f 203 204 91
f 91 204 205
f 205 204 206
f 205 206 210
f 210 206 207
f 206 208 207
f 212 213 207
f 207 213 209
f 207 209 210
f 210 209 211
f 213 212 214
f 217 215 214
f 214 215 216
f 214 216 213
f 216 215 218
f 218 215 219
f 218 219 220
f 220 219 222
f 222 219 221
f 222 221 223
f 223 221 226
f 223 226 224
f 224 226 225
f 224 225 229
f 229 225 227
f 229 227 228
f 229 228 230
f 230 228 231
f 230 232 229
f 229 232 233
f 233 232 235
f 235 232 234
f 234 232 390
f 233 235 236
f 220 237 218
f 203 91 89
f 189 238 187
f 172 239 170
f 159 240 158
f 147 883 146
f 241 138 140
f 116 243 115
f 109 244 108
f 245 101 105
f 105 101 104
f 248 246 868
f 868 246 92
f 247 248 249
f 249 248 868
f 93 246 250
f 250 246 248
f 250 248 251
f 248 247 251
f 250 251 252
f 252 251 253
f 252 253 254
f 254 253 255
f 255 253 479
f 479 253 256
f 479 256 257
f 479 257 258
f 258 257 259
f 258 259 262
f 262 259 260
f 262 260 263
f 263 260 261
f 262 263 264
f 262 264 265
f 265 264 266
f 266 264 267
f 267 264 268
f 267 268 269
f 269 270 267
f 267 270 271
f 271 270 272
f 271 272 273
f 270 274 272
f 272 274 275
f 275 274 276
f 275 276 277
f 277 276 278
f 275 277 279
f 279 277 280
f 279 280 281
f 281 280 283
f 281 283 282
f 282 283 284
f 282 284 285
f 285 284 286
f 286 287 285
f 285 287 289
f 289 287 288
f 289 288 290
f 290 288 291
f 291 288 292
f 291 292 293
f 293 292 294
f 294 292 295
f 293 294 296
f 296 294 297
f 296 297 298
f 298 297 299
f 298 299 300
f 300 299 301
f 299 302 301
f 300 301 303
f 303 301 304
f 303 304 305
f 305 304 306
f 305 306 307
f 304 308 306
f 306 308 309
f 310 311 308
f 308 311 309
f 309 311 312
f 312 311 313
f 312 313 314
f 314 313 315
f 314 315 316
f 316 315 317
f 316 317 318
f 316 318 319
f 319 318 320
f 319 320 322
f 319 322 321
f 321 322 323
f 321 323 324
f 324 323 325
f 324 325 326
f 326 325 327
f 326 327 328
f 328 327 329
f 322 330 323
f 329 331 328
f 328 331 332
f 332 331 333
f 332 333 334
f 334 333 335
f 335 333 337
f 335 337 336
f 845 338 337
f 337 338 336
f 336 338 339
f 336 339 458
f 338 341 339
f 339 341 340
f 340 341 342
f 340 342 343
f 343 342 344
f 343 344 345
f 343 345 346
f 346 345 347
f 346 347 348
f 348 347 349
f 349 347 350
f 349 350 351
f 351 350 352
f 840 354 352
f 352 354 351
f 351 354 353
f 357 355 354
f 354 355 353
f 355 357 356
f 356 357 358
f 356 358 359
f 359 358 361
f 359 361 362
f 360 361 358
f 359 362 363
f 363 362 370
f 363 370 364
f 364 370 365
f 364 365 366
f 366 365 367
f 366 367 369
f 369 367 368
f 369 368 453
f 365 370 371
f 367 373 368
f 368 373 372
f 372 373 374
f 374 373 375
f 372 374 376
f 372 376 377
f 377 376 378
f 377 378 379
f 379 378 380
f 380 381 379
f 384 382 381
f 382 384 383
f 383 384 385
f 385 384 386
f 385 386 387
f 384 388 386
f 386 388 390
f 390 388 2
f 2 388 389
f 390 2 234
f 391 379 382
f 382 379 381
f 364 392 363
f 457 353 355
f 334 393 332
f 324 394 321
f 316 395 314
f 300 467 298
f 281 282 396
f 266 397 265
f 258 398 479
f 254 399 252
f 96 93 400
f 400 93 401
f 401 93 250
f 401 250 252
f 406 99 400
f 400 99 96
f 402 404 403
f 403 404 401
f 401 404 400
f 400 404 406
f 406 404 405
f 411 408 445
f 445 408 407
f 407 408 448
f 448 408 409
f 409 408 410
f 409 410 451
f 451 410 442
f 408 411 413
f 413 411 412
f 413 412 414
f 413 414 416
f 416 414 483
f 416 483 415
f 416 415 417
f 416 417 418
f 416 418 419
f 416 419 509
f 509 419 487
f 509 487 491
f 491 420 509
f 509 420 492
f 509 492 421
f 509 421 507
f 507 421 422
f 507 422 498
f 507 498 423
f 507 423 405
f 507 405 506
f 506 405 404
f 506 404 402
f 506 402 424
f 506 424 504
f 504 424 425
f 504 425 426
f 504 426 427
f 504 427 396
f 504 396 428
f 504 428 431
f 431 428 429
f 431 429 467
f 431 467 466
f 431 466 430
f 431 430 434
f 434 430 432
f 434 432 394
f 434 394 433
f 434 433 438
f 438 433 435
f 438 435 436
f 438 436 437
f 438 437 457
f 438 457 439
f 438 439 440
f 438 440 441
f 438 441 442
f 442 441 391
f 442 391 451
f 443 411 444
f 444 411 445
f 443 199 411
f 411 199 198
f 199 443 200
f 444 206 204
f 444 204 202
f 444 202 443
f 443 202 200
f 445 208 444
f 444 208 206
f 208 445 207
f 207 445 212
f 212 445 407
f 212 407 214
f 446 217 407
f 407 217 214
f 217 446 215
f 447 221 446
f 446 221 219
f 446 219 215
f 448 226 447
f 447 226 221
f 446 407 448
f 448 447 446
f 226 448 225
f 225 448 227
f 227 448 409
f 227 409 228
f 231 228 409
f 231 409 230
f 230 409 449
f 386 390 450
f 450 390 232
f 450 232 449
f 449 232 230
f 450 387 386
f 387 450 451
f 387 451 385
f 385 451 383
f 383 451 391
f 383 391 382
f 379 391 452
f 368 372 453
f 453 372 377
f 453 377 379
f 453 379 452
f 391 441 452
f 452 441 453
f 369 453 441
f 369 441 366
f 366 441 440
f 366 440 364
f 454 392 364
f 454 364 440
f 392 454 363
f 363 454 456
f 355 356 455
f 455 356 456
f 456 356 359
f 456 359 363
f 455 457 355
f 440 439 454
f 454 439 456
f 456 439 455
f 455 439 457
f 353 457 437
f 353 437 351
f 351 437 349
f 348 349 437
f 348 437 346
f 346 437 459
f 458 339 459
f 459 339 340
f 459 340 343
f 459 343 346
f 437 436 459
f 436 458 459
f 458 436 336
f 336 436 435
f 336 435 335
f 335 435 334
f 393 334 460
f 460 334 435
f 393 460 332
f 332 460 461
f 324 326 462
f 462 326 328
f 462 328 461
f 461 328 332
f 462 394 324
f 435 433 460
f 460 433 461
f 461 433 462
f 462 433 394
f 321 394 319
f 319 394 432
f 319 432 316
f 395 316 463
f 463 316 432
f 395 463 314
f 314 463 465
f 306 309 464
f 464 309 465
f 465 309 312
f 465 312 314
f 466 307 464
f 464 307 306
f 432 430 463
f 463 430 465
f 465 430 464
f 464 430 466
f 307 466 305
f 305 466 303
f 303 466 467
f 303 467 300
f 298 467 468
f 291 293 469
f 469 293 296
f 469 296 298
f 469 298 468
f 470 290 469
f 469 290 291
f 467 429 468
f 468 429 469
f 469 429 470
f 470 429 428
f 428 289 470
f 470 289 290
f 289 428 285
f 285 428 396
f 285 396 282
f 281 396 471
f 472 272 473
f 473 272 275
f 473 275 279
f 473 279 471
f 471 279 281
f 474 273 472
f 472 273 272
f 396 427 471
f 471 427 473
f 473 427 474
f 474 427 426
f 474 472 473
f 273 474 271
f 271 474 426
f 271 426 267
f 267 426 266
f 397 266 475
f 475 266 426
f 397 475 265
f 265 475 477
f 476 258 477
f 477 258 262
f 477 262 265
f 478 398 476
f 476 398 258
f 426 425 475
f 475 425 477
f 477 425 476
f 476 425 478
f 478 425 424
f 398 478 479
f 479 478 424
f 479 424 255
f 255 424 402
f 255 402 254
f 403 399 254
f 403 254 402
f 399 403 252
f 252 403 401
f 451 450 449
f 451 449 409
f 193 412 198
f 198 412 411
f 412 192 480
f 412 193 192
f 414 412 481
f 481 412 480
f 183 182 414
f 183 414 184
f 184 414 481
f 190 188 480
f 480 188 186
f 480 186 184
f 480 184 481
f 480 192 190
f 174 483 179
f 179 483 414
f 179 414 182
f 176 482 174
f 174 482 483
f 417 415 484
f 484 415 485
f 485 415 482
f 482 415 483
f 482 486 485
f 175 163 484
f 484 163 417
f 175 484 167
f 167 484 485
f 173 171 486
f 486 171 485
f 485 171 169
f 485 169 167
f 482 176 486
f 486 176 173
f 160 418 162
f 162 418 417
f 162 417 163
f 487 419 488
f 488 419 489
f 489 419 418
f 152 487 488
f 157 156 489
f 489 156 488
f 488 156 152
f 489 418 157
f 144 491 148
f 148 491 487
f 148 487 150
f 145 490 144
f 144 490 491
f 492 420 493
f 493 420 494
f 494 420 495
f 495 420 490
f 490 420 491
f 492 136 134
f 136 492 137
f 137 492 493
f 495 143 494
f 494 143 142
f 494 142 139
f 494 139 493
f 493 139 137
f 490 145 495
f 495 145 143
f 129 421 132
f 132 421 492
f 132 492 134
f 128 421 129
f 422 421 496
f 496 421 497
f 422 119 118
f 119 422 120
f 120 422 496
f 127 126 497
f 497 126 121
f 497 121 496
f 496 121 120
f 421 128 497
f 497 128 127
f 111 498 113
f 113 498 422
f 113 422 118
f 112 498 111
f 499 423 500
f 500 423 498
f 103 102 499
f 499 102 423
f 103 499 104
f 500 110 107
f 500 107 104
f 500 104 499
f 498 112 500
f 500 112 110
f 98 405 100
f 100 405 423
f 100 423 102
f 99 406 405
f 99 405 98
f 438 442 501
f 438 501 434
f 434 501 502
f 434 502 431
f 431 502 503
f 431 503 670
f 431 670 504
f 666 504 670
f 504 666 505
f 507 506 665
f 505 665 506
f 509 665 664
f 507 665 509
f 509 664 508
f 508 511 510
f 510 511 769
f 511 661 769
f 769 661 512
f 770 513 514
f 512 661 513
f 770 514 515
f 515 514 660
f 517 515 660
f 516 517 518
f 518 517 519
f 518 519 640
f 640 519 520
f 520 522 640
f 522 520 521
f 522 521 524
f 522 524 523
f 524 526 523
f 524 525 526
f 525 527 526
f 525 529 527
f 527 529 528
f 528 529 658
f 531 774 530
f 774 531 532
f 639 533 534
f 535 534 533
f 534 535 776
f 776 535 656
f 776 656 538
f 536 776 538
f 536 655 537
f 536 538 655
f 537 655 540
f 540 654 539
f 638 654 541
f 542 541 544
f 543 544 546
f 542 544 543
f 543 546 545
f 547 548 550
f 549 550 551
f 549 551 637
f 653 552 636
f 635 552 553
f 635 553 558
f 635 558 554
f 555 558 559
f 555 559 556
f 556 559 557
f 557 652 556
f 556 652 560
f 564 563 561
f 561 563 562
f 563 564 565
f 565 564 566
f 565 566 779
f 566 567 779
f 651 779 567
f 779 651 568
f 569 570 571
f 651 570 568
f 568 570 569
f 569 571 572
f 575 573 574
f 574 576 575
f 576 578 575
f 580 578 579
f 578 577 579
f 579 581 580
f 581 634 580
f 581 582 634
f 634 582 583
f 583 648 584
f 584 648 585
f 583 582 648
f 586 585 587
f 588 587 589
f 589 587 590
f 784 591 633
f 633 591 644
f 633 644 592
f 592 644 643
f 593 643 594
f 594 643 595
f 595 632 594
f 632 595 596
f 632 596 597
f 597 598 631
f 600 599 631
f 601 603 602
f 602 603 604
f 603 605 604
f 605 606 609
f 609 606 607
f 607 606 608
f 609 608 611
f 611 608 610
f 611 610 612
f 630 612 720
f 629 613 615
f 629 615 617
f 617 615 616
f 620 619 621
f 621 619 622
f 621 622 623
f 623 622 624
f 623 624 791
f 791 624 625
f 791 625 626
f 626 625 627
f 620 628 619
f 619 628 618
f 628 617 618
f 618 617 616
f 629 614 613
f 613 614 630
f 613 630 720
f 630 611 612
f 609 607 608
f 609 604 605
f 601 602 599
f 601 599 600
f 600 631 598
f 598 597 596
f 593 592 643
f 591 784 590
f 784 589 590
f 587 588 586
f 586 584 585
f 577 578 576
f 573 575 572
f 573 572 571
f 561 562 652
f 652 562 560
f 558 555 554
f 552 635 636
f 653 636 637
f 653 637 551
f 550 549 547
f 548 547 546
f 546 547 545
f 542 638 541
f 654 638 539
f 540 539 537
f 533 639 532
f 532 639 774
f 531 530 658
f 658 530 528
f 516 515 517
f 770 512 513
f 510 509 508
f 506 504 505
f 723 720 612
f 608 606 605
f 641 603 642
f 605 603 641
f 603 601 642
f 642 601 716
f 601 600 716
f 598 596 714
f 595 643 712
f 644 591 710
f 590 587 646
f 646 587 647
f 647 587 585
f 582 581 709
f 709 581 649
f 579 577 581
f 581 577 708
f 650 577 576
f 576 574 650
f 650 574 573
f 705 573 571
f 571 570 704
f 698 557 697
f 557 559 697
f 559 558 696
f 553 552 694
f 694 552 653
f 694 653 551
f 551 550 692
f 550 548 692
f 690 546 544
f 541 654 687
f 687 654 540
f 540 655 686
f 655 538 686
f 538 656 685
f 657 535 533
f 531 658 681
f 529 525 659
f 677 520 519
f 513 661 662
f 661 511 663
f 511 508 663
f 663 508 664
f 666 670 671
f 670 503 502
f 410 667 442
f 442 667 668
f 442 668 501
f 668 669 501
f 501 669 502
f 669 670 502
f 666 671 672
f 666 672 505
f 673 665 672
f 672 665 505
f 665 673 664
f 661 663 662
f 513 662 514
f 514 662 674
f 514 674 660
f 660 674 675
f 675 676 660
f 660 676 517
f 517 676 677
f 517 677 519
f 678 520 677
f 520 678 521
f 521 678 679
f 521 679 524
f 524 679 818
f 524 818 680
f 524 680 525
f 525 680 659
f 529 659 815
f 529 815 658
f 658 815 681
f 531 681 683
f 531 683 532
f 532 683 657
f 532 657 533
f 535 657 684
f 684 656 535
f 656 684 685
f 685 686 538
f 540 686 687
f 541 687 688
f 541 688 544
f 544 688 689
f 689 690 544
f 546 690 548
f 548 690 691
f 548 691 692
f 551 692 693
f 551 693 694
f 694 695 553
f 695 696 553
f 553 696 558
f 559 696 697
f 698 652 557
f 652 698 699
f 652 699 561
f 561 699 700
f 561 700 564
f 700 701 564
f 564 701 566
f 701 702 566
f 702 567 566
f 567 702 703
f 567 703 651
f 651 703 704
f 651 704 570
f 571 704 705
f 573 705 706
f 706 650 573
f 650 707 577
f 577 707 708
f 649 581 708
f 582 709 648
f 648 709 585
f 585 709 647
f 590 646 645
f 645 710 590
f 590 710 591
f 644 710 711
f 644 711 643
f 643 711 712
f 595 712 713
f 595 713 596
f 596 713 714
f 598 714 715
f 598 715 600
f 600 715 716
f 605 641 717
f 605 717 608
f 717 718 608
f 608 718 610
f 718 723 610
f 610 723 612
f 743 720 719
f 719 720 721
f 721 720 722
f 722 720 724
f 724 720 723
f 724 723 725
f 725 723 717
f 725 717 726
f 726 717 727
f 727 717 728
f 727 728 729
f 729 728 730
f 730 728 731
f 731 728 732
f 732 728 733
f 733 728 734
f 733 734 735
f 735 734 736
f 736 734 627
f 736 627 737
f 737 627 738
f 738 627 739
f 739 627 740
f 740 627 741
f 741 627 625
f 741 625 742
f 720 743 744
f 720 744 613
f 613 744 745
f 613 745 746
f 613 746 747
f 613 747 615
f 615 747 748
f 615 748 749
f 615 749 616
f 616 749 750
f 616 750 751
f 616 751 752
f 616 752 753
f 616 753 618
f 618 753 754
f 618 754 755
f 618 755 619
f 619 755 756
f 619 756 757
f 619 757 622
f 622 757 758
f 622 758 759
f 622 759 760
f 622 760 624
f 624 760 761
f 624 761 762
f 624 762 763
f 624 763 625
f 625 763 764
f 625 764 765
f 625 765 766
f 625 766 742
f 767 627 734
f 765 764 56
f 56 764 53
f 53 764 763
f 53 763 51
f 51 763 762
f 51 762 50
f 50 762 761
f 50 761 48
f 48 761 760
f 48 760 46
f 46 760 759
f 46 759 758
f 46 758 44
f 44 758 757
f 44 757 41
f 41 757 756
f 41 756 39
f 39 756 755
f 39 755 36
f 36 755 754
f 36 754 34
f 34 754 753
f 34 753 32
f 32 753 752
f 32 752 31
f 31 752 751
f 31 751 29
f 29 751 750
f 29 750 27
f 27 750 749
f 27 749 25
f 25 749 748
f 25 748 24
f 24 748 20
f 20 748 747
f 20 747 19
f 19 747 746
f 19 746 18
f 18 746 745
f 18 745 16
f 16 745 744
f 16 744 14
f 14 744 743
f 14 743 12
f 12 743 719
f 12 719 10
f 10 719 721
f 10 721 9
f 9 721 722
f 9 722 7
f 7 722 724
f 7 724 5
f 5 724 725
f 5 725 87
f 87 725 726
f 87 726 84
f 84 726 727
f 84 727 82
f 82 727 729
f 82 729 79
f 79 729 730
f 79 730 77
f 77 730 75
f 75 730 731
f 75 731 732
f 75 732 74
f 74 732 733
f 74 733 72
f 72 733 735
f 72 735 70
f 70 735 736
f 70 736 68
f 68 736 737
f 68 737 67
f 67 737 738
f 67 738 739
f 67 739 64
f 64 739 740
f 64 740 63
f 63 740 741
f 63 741 61
f 61 741 742
f 61 742 59
f 59 742 766
f 59 766 57
f 57 766 765
f 57 765 56
f 510 769 768
f 512 770 829
f 640 522 771
f 523 526 773
f 773 526 826
f 526 527 826
f 826 527 825
f 530 774 824
f 774 639 775
f 775 639 823
f 776 536 822
f 822 536 821
f 536 537 821
f 537 539 777
f 777 539 820
f 820 539 638
f 556 560 811
f 811 560 810
f 560 562 778
f 778 562 563
f 778 563 809
f 779 568 780
f 780 568 808
f 568 569 781
f 569 572 781
f 781 572 782
f 782 572 807
f 806 578 634
f 578 580 634
f 783 586 588
f 783 588 804
f 588 589 804
f 592 593 801
f 801 593 594
f 801 594 800
f 594 632 800
f 597 631 785
f 631 599 799
f 799 599 786
f 786 599 602
f 602 604 786
f 786 604 787
f 787 604 798
f 609 611 788
f 788 611 789
f 789 611 630
f 614 629 796
f 629 617 796
f 796 617 790
f 617 628 790
f 628 620 790
f 790 620 795
f 623 791 792
f 626 627 767
f 767 793 626
f 793 792 626
f 626 792 791
f 623 792 794
f 621 794 795
f 621 795 620
f 614 796 797
f 614 797 630
f 630 797 789
f 609 788 798
f 609 798 604
f 631 799 785
f 597 785 706
f 597 706 632
f 632 706 800
f 592 801 802
f 592 802 633
f 802 803 633
f 803 802 701
f 633 803 784
f 803 804 784
f 784 804 589
f 586 783 584
f 783 697 584
f 697 805 584
f 584 805 583
f 583 805 634
f 578 806 575
f 806 807 575
f 575 807 572
f 568 781 808
f 779 780 565
f 565 780 809
f 565 809 563
f 560 778 810
f 556 811 812
f 556 812 555
f 555 812 554
f 554 812 813
f 554 813 635
f 813 682 635
f 635 682 636
f 636 682 814
f 636 814 637
f 637 814 815
f 637 815 816
f 637 816 549
f 549 816 547
f 547 816 817
f 817 545 547
f 545 817 818
f 545 818 543
f 543 819 542
f 542 819 820
f 542 820 638
f 537 777 821
f 822 823 776
f 776 823 534
f 534 823 639
f 774 775 824
f 530 824 825
f 825 528 530
f 528 825 527
f 523 773 772
f 523 772 522
f 522 772 771
f 640 771 827
f 640 827 518
f 518 827 516
f 516 828 515
f 515 828 770
f 828 829 770
f 512 829 768
f 512 768 769
f 794 621 623
f 509 510 416
f 416 510 768
f 416 768 413
f 413 768 829
f 413 829 408
f 408 829 828
f 408 828 410
f 410 828 667
f 667 828 516
f 667 516 827
f 667 827 668
f 668 827 771
f 668 771 669
f 669 771 772
f 669 772 670
f 670 772 773
f 670 773 671
f 671 773 826
f 671 826 672
f 672 826 825
f 672 825 673
f 673 825 824
f 673 824 664
f 664 824 775
f 664 775 663
f 663 775 823
f 663 823 662
f 662 823 822
f 662 822 674
f 674 822 821
f 674 821 675
f 675 821 676
f 676 821 777
f 676 777 677
f 677 777 820
f 677 820 678
f 678 820 819
f 678 819 679
f 679 819 543
f 679 543 818
f 680 818 817
f 680 817 816
f 680 816 659
f 816 815 659
f 815 814 681
f 681 814 682
f 681 682 683
f 683 682 813
f 683 813 812
f 683 812 657
f 657 812 684
f 684 812 811
f 684 811 685
f 685 811 810
f 685 810 686
f 686 810 778
f 686 778 687
f 687 778 809
f 687 809 780
f 687 780 688
f 688 780 808
f 688 808 689
f 689 808 690
f 690 808 781
f 690 781 691
f 691 781 782
f 691 782 692
f 692 782 807
f 692 807 693
f 693 807 694
f 694 807 806
f 694 806 634
f 694 634 695
f 695 634 805
f 695 805 696
f 696 805 697
f 698 697 783
f 698 783 699
f 699 783 804
f 699 804 700
f 700 804 803
f 700 803 701
f 701 802 702
f 702 802 703
f 703 802 801
f 703 801 704
f 704 801 800
f 704 800 705
f 705 800 706
f 650 706 785
f 650 785 799
f 650 799 707
f 707 799 786
f 707 786 708
f 708 786 649
f 649 786 787
f 649 787 709
f 709 787 798
f 709 798 788
f 709 788 647
f 647 788 789
f 647 789 646
f 789 797 646
f 646 797 645
f 645 797 796
f 645 796 710
f 710 796 790
f 710 790 711
f 711 790 795
f 711 795 712
f 712 795 713
f 713 795 794
f 713 794 714
f 714 794 792
f 714 792 715
f 715 792 793
f 715 793 716
f 716 793 767
f 716 767 642
f 642 767 734
f 642 734 641
f 641 734 728
f 641 728 717
f 718 717 723
f 1 2 830
f 830 2 389
f 17 15 831
f 831 15 832
f 832 15 833
f 833 15 830
f 830 15 1
f 831 380 378
f 831 378 17
f 380 831 381
f 381 831 832
f 833 388 832
f 832 388 384
f 832 384 381
f 830 389 833
f 833 389 388
f 378 376 17
f 17 376 834
f 834 376 374
f 834 374 375
f 836 835 837
f 837 835 834
f 371 370 835
f 835 370 22
f 371 835 365
f 365 835 836
f 837 373 367
f 837 367 836
f 836 367 365
f 834 375 837
f 837 375 373
f 370 362 22
f 22 362 361
f 22 361 838
f 838 361 839
f 839 361 360
f 23 21 840
f 840 21 841
f 841 21 842
f 842 21 839
f 839 21 838
f 840 352 23
f 354 840 841
f 358 357 842
f 842 357 841
f 841 357 354
f 839 360 842
f 842 360 358
f 352 350 23
f 23 350 843
f 843 350 347
f 843 347 345
f 843 345 344
f 843 344 844
f 28 26 845
f 845 26 846
f 846 26 847
f 847 26 844
f 844 26 843
f 845 337 28
f 338 845 846
f 342 341 847
f 847 341 846
f 846 341 338
f 844 344 847
f 847 344 342
f 337 333 28
f 28 333 848
f 848 333 331
f 848 331 329
f 848 329 849
f 33 30 850
f 850 30 851
f 851 30 852
f 852 30 849
f 849 30 848
f 330 322 850
f 850 322 33
f 330 850 323
f 323 850 851
f 327 325 852
f 852 325 851
f 851 325 323
f 849 329 852
f 852 329 327
f 322 320 33
f 33 320 35
f 35 320 318
f 35 318 853
f 853 318 317
f 38 37 854
f 854 37 855
f 855 37 856
f 856 37 853
f 853 37 35
f 310 308 854
f 854 308 38
f 310 854 311
f 311 854 855
f 315 313 856
f 856 313 855
f 855 313 311
f 853 317 856
f 856 317 315
f 308 304 38
f 38 304 40
f 40 304 301
f 40 301 302
f 42 40 857
f 857 40 858
f 295 292 42
f 294 295 857
f 857 295 42
f 858 299 857
f 857 299 297
f 857 297 294
f 40 302 858
f 858 302 299
f 42 292 288
f 42 288 43
f 43 288 287
f 43 287 286
f 47 45 859
f 859 45 860
f 860 45 861
f 861 45 43
f 278 276 859
f 859 276 47
f 278 859 277
f 277 859 860
f 284 283 861
f 861 283 860
f 860 283 280
f 860 280 277
f 43 286 861
f 861 286 284
f 276 274 47
f 47 274 862
f 862 274 270
f 862 270 269
f 49 862 863
f 49 863 864
f 49 261 260
f 261 49 263
f 263 49 864
f 268 264 863
f 863 264 263
f 863 263 864
f 862 269 863
f 863 269 268
f 49 260 54
f 54 260 259
f 54 259 865
f 865 259 257
f 249 52 247
f 247 52 866
f 866 52 867
f 867 52 865
f 865 52 54
f 251 247 866
f 256 253 867
f 867 253 866
f 866 253 251
f 865 257 867
f 867 257 256
f 868 92 55
f 55 92 95
f 58 55 869
f 55 870 869
f 245 105 58
f 245 58 101
f 101 58 869
f 870 94 869
f 869 94 97
f 869 97 101
f 55 95 870
f 870 95 94
f 105 106 58
f 58 106 871
f 871 106 108
f 871 108 244
f 871 244 872
f 62 60 873
f 873 60 874
f 874 60 875
f 875 60 872
f 872 60 871
f 873 243 116
f 873 116 62
f 243 873 115
f 115 873 874
f 875 109 114
f 875 114 874
f 874 114 115
f 872 244 875
f 875 244 109
f 116 117 62
f 62 117 876
f 876 117 122
f 876 122 123
f 876 123 877
f 66 65 878
f 878 65 879
f 879 65 880
f 880 65 877
f 877 65 876
f 878 242 66
f 66 242 133
f 242 878 131
f 131 878 879
f 124 125 880
f 880 125 879
f 879 125 130
f 879 130 131
f 877 123 880
f 880 123 124
f 66 133 135
f 66 135 881
f 881 135 138
f 881 138 882
f 882 138 241
f 71 69 883
f 883 69 884
f 884 69 885
f 885 69 882
f 882 69 881
f 883 147 71
f 146 883 884
f 140 141 885
f 885 141 884
f 884 141 146
f 882 241 885
f 885 241 140
f 147 149 71
f 71 149 73
f 73 149 151
f 73 151 154
f 76 73 886
f 886 73 887
f 240 159 76
f 158 240 886
f 886 240 76
f 153 155 887
f 887 155 886
f 886 155 158
f 73 154 887
f 887 154 153
f 159 161 76
f 76 161 888
f 888 161 164
f 888 164 889
f 889 164 165
f 80 78 890
f 890 78 891
f 891 78 892
f 892 78 889
f 889 78 888
f 239 172 890
f 890 172 80
f 239 890 170
f 170 890 891
f 166 168 892
f 892 168 891
f 891 168 170
f 892 889 166
f 166 889 165
f 172 177 80
f 80 177 178
f 80 178 81
f 81 178 893
f 893 178 180
f 85 83 894
f 894 83 895
f 895 83 893
f 893 83 81
f 85 238 189
f 238 85 187
f 187 85 894
f 895 181 894
f 894 181 185
f 187 894 185
f 893 180 895
f 895 180 181
f 85 189 191
f 85 191 86
f 86 191 194
f 86 194 896
f 896 194 195
f 3 88 90
f 90 88 897
f 897 88 898
f 898 88 896
f 896 88 86
f 89 90 203
f 203 90 897
f 196 197 898
f 898 197 897
f 897 197 201
f 897 201 203
f 896 195 898
f 898 195 196
f 91 205 3
f 3 205 4
f 4 205 210
f 4 210 899
f 899 210 211
f 8 6 900
f 900 6 901
f 901 6 902
f 902 6 899
f 899 6 4
f 900 237 8
f 8 237 220
f 237 900 218
f 218 900 901
f 209 213 902
f 902 213 901
f 901 213 216
f 901 216 218
f 899 211 902
f 902 211 209
f 8 220 903
f 903 220 222
f 903 222 904
f 904 222 223
f 13 11 905
f 905 11 906
f 906 11 907
f 907 11 904
f 904 11 903
f 236 235 905
f 905 235 13
f 233 236 906
f 906 236 905
f 224 229 907
f 907 229 906
f 906 229 233
f 904 223 907
f 907 223 224
f 234 1 13
f 234 13 235
