# USD → MuJoCo (world-space, simplified)
v 1.200577 7.242706 0.956256
v 1.201457 7.239365 0.956190
v 1.151790 7.561883 0.762497
v 1.167925 7.562056 0.765252
v 1.167851 7.573605 0.767282
v 1.152404 7.574059 0.765252
v 1.176518 7.573312 0.770249
v 1.152685 7.582016 0.768980
v 1.168627 7.580743 0.770330
v 1.181631 7.562979 0.773908
v 1.180304 7.573738 0.774277
v 1.177813 7.582709 0.782931
v 1.176570 7.580956 0.774712
v 1.153084 7.589140 0.778549
v 1.152921 7.586657 0.773552
v 1.168058 7.584826 0.774277
v 1.168722 7.587354 0.781509
v 1.183866 7.593906 0.956088
v 1.187273 7.597354 0.956258
v 1.181704 7.237792 0.956205
v 1.152039 7.240302 0.955162
v 1.164166 7.238703 0.956022
v 1.182549 7.481911 0.772838
v 1.177988 7.480948 0.767730
v 1.154504 7.457484 0.759718
v 1.169349 7.441556 0.763117
v 1.186552 7.506921 0.954961
v 1.186800 7.506921 0.955612
v 1.153450 7.593906 0.955364
v 1.169315 7.592314 0.955310
v 1.153583 7.592237 0.953635
v 1.169349 7.589679 0.953701
v 1.179984 7.586024 0.954498
v 1.168561 7.588571 0.947369
v 1.177944 7.583354 0.947732
v 1.178586 7.584263 0.952689
v 1.183025 7.575830 0.952640
v 1.182557 7.575061 0.947779
v 1.183571 7.576066 0.954161
v 1.185314 7.569026 0.955077
v 1.184255 7.589407 0.955848
v 1.153598 7.241888 0.952381
v 1.168609 7.244933 0.948260
v 1.177968 7.250444 0.948032
v 1.182643 7.260139 0.948664
v 1.182544 7.260354 0.940911
v 1.177788 7.250609 0.935665
v 1.184582 7.563251 0.951677
v 1.151685 7.591625 0.944345
v 1.176609 7.601947 0.956262
v 1.177518 7.595572 0.956116
v 1.186456 7.575632 0.955994
v 1.187710 7.246029 0.956210
v 1.186319 7.275662 0.955652
v 1.186531 7.260838 0.955936
v 1.187099 7.294449 0.955997
v 1.185389 7.243128 0.956007
v 1.199328 7.664429 0.956262
v 1.201011 7.638863 0.956228
v 1.201770 7.572706 0.956146
v 1.072874 7.594767 0.953465
v 0.932710 7.594831 0.953897
v 1.186444 7.668583 0.956244
v 1.186444 7.670547 0.956190
v 1.182945 7.276141 0.778549
v 1.181424 7.276439 0.773552
v 1.180304 7.261553 0.774277
v 1.181424 7.260955 0.778911
v 1.177137 7.276742 0.768980
v 1.176518 7.261961 0.770249
v 1.176570 7.252699 0.774712
v 1.174137 7.255325 0.771667
v 1.167925 7.276928 0.765252
v 1.151790 7.277363 0.762497
v 1.152404 7.261445 0.765252
v 1.167851 7.261749 0.767282
v 1.152685 7.251776 0.768980
v 1.167771 7.252748 0.770249
v 1.153084 7.244465 0.778548
v 1.168058 7.248410 0.774277
v 1.152921 7.246737 0.773552
v 1.183555 7.259464 0.954431
v 1.180261 7.248134 0.954448
v 1.184970 7.275533 0.954244
v 1.178586 7.249675 0.952689
v 1.169302 7.244347 0.952640
v 1.153630 7.241404 0.954055
v 1.169481 7.243537 0.954161
v 1.170623 7.241441 0.955439
v 1.024811 7.419342 0.717305
v 1.187222 7.386622 0.956002
v 1.188812 7.235707 0.956262
v 1.197385 7.214473 0.956262
v 0.822682 7.214832 0.956254
v 0.818151 7.213401 0.956190
v 1.196448 7.213520 0.956123
v 1.199774 7.217489 0.955992
v 1.201441 7.662079 0.956020
v 1.190120 7.671866 0.955868
v 1.202130 7.239365 0.955902
v 1.202298 7.239365 0.955153
v 1.202256 7.239365 0.955607
v 1.190559 7.212114 0.955612
v 1.186444 7.212723 0.956082
v 1.202122 7.616680 0.955900
v 1.202296 7.618889 0.955345
v 1.197561 7.670860 0.955865
v 1.193653 7.671939 0.955839
v 1.202223 7.636354 0.955574
v 1.201913 7.639906 0.956012
v 1.192364 7.212178 0.955394
v 1.202103 7.231175 0.956080
v 1.201193 7.221990 0.955880
v 1.200190 7.667261 0.956235
v 1.201807 7.656949 0.946638
v 1.188155 7.672044 0.955153
v 1.194051 7.671913 0.947622
v 1.201883 7.226590 0.947165
v 1.201877 7.239365 0.956082
v 1.184466 7.352943 0.778186
v 1.177800 7.361610 0.767716
v 1.151412 7.359901 0.759756
v 1.168142 7.361552 0.763227
v 1.149868 7.328574 0.760018
v 1.167444 7.326697 0.763425
v 1.167622 7.299805 0.764034
v 1.150553 7.301152 0.760844
v 1.177512 7.303565 0.768126
v 1.184020 7.304448 0.778214
v 1.182275 7.306310 0.773027
v 1.150625 7.514307 0.759808
v 1.167893 7.513961 0.763299
v 1.177657 7.521360 0.767807
v 1.184466 7.506921 0.778186
v 1.184035 7.541174 0.778144
v 1.182487 7.523262 0.772880
v 1.182097 7.546122 0.773117
v 1.177222 7.558011 0.768608
v 1.150553 7.544590 0.760844
v 1.167622 7.545456 0.764034
v 1.186552 7.352943 0.954961
v 1.186754 7.328305 0.955598
v 1.186396 7.506438 0.953499
v 1.186220 7.325284 0.954125
v 1.185634 7.298512 0.952698
v 1.186353 7.298656 0.955371
v 1.186197 7.527029 0.953304
v 1.186442 7.541683 0.955337
v 1.185449 7.558125 0.954059
v 1.036892 7.275292 0.759742
v 1.003199 7.315748 0.756589
v 1.185618 7.506921 0.783406
v 1.186194 7.506921 0.789566
v 1.185442 7.527011 0.783421
v 1.186006 7.527021 0.789570
v 1.186194 7.527024 0.797746
v 1.184466 7.563041 0.797746
v 1.185618 7.546383 0.797747
v 1.184068 7.563069 0.785125
v 1.185190 7.546856 0.785403
v 1.186394 7.353244 0.953583
v 1.187892 7.323867 0.956197
v 1.187162 7.541716 0.956007
v 1.187820 7.562601 0.956199
v 1.188864 7.568562 0.956262
v 1.202152 7.239367 0.946532
v 1.008683 7.588419 0.772711
v 1.072586 7.588488 0.772827
v 1.065806 7.583185 0.767729
v 1.101215 7.588304 0.772899
v 1.101116 7.591376 0.778222
v 1.100909 7.582924 0.767838
v 1.064518 7.562194 0.759748
v 1.063548 7.574741 0.763219
v 1.097785 7.560964 0.760018
v 1.099882 7.574162 0.763425
v 1.128282 7.574119 0.764034
v 1.126733 7.561247 0.760844
v 1.129036 7.582619 0.768219
v 1.129321 7.590631 0.778331
v 1.129317 7.587754 0.773117
v 1.072217 7.239326 0.952478
v 1.101579 7.239585 0.952468
v 1.101274 7.239483 0.953960
v 1.129959 7.239494 0.955283
v 1.129594 7.240123 0.953992
v 1.129767 7.240355 0.952410
v 1.071602 7.261149 0.763222
v 1.091207 7.278581 0.759921
v 1.072392 7.250806 0.767711
v 1.072433 7.242194 0.778186
v 1.072586 7.245063 0.772827
v 1.101116 7.242422 0.778222
v 1.123020 7.245547 0.772999
v 1.129321 7.243103 0.778331
v 1.124187 7.251193 0.768100
v 1.126733 7.278407 0.760844
v 1.123744 7.261584 0.763863
v 1.126673 7.593534 0.944497
v 1.072688 7.595443 0.955612
v 1.101346 7.595365 0.955616
v 1.094745 7.596118 0.956002
v 1.125766 7.595782 0.955964
v 1.153076 7.597970 0.956198
v 1.072821 7.595034 0.954958
v 1.101358 7.594878 0.954969
v 1.101363 7.594481 0.953309
v 1.129560 7.593772 0.953623
v 1.129624 7.594408 0.954994
v 1.072178 7.240473 0.783406
v 1.100930 7.240736 0.783421
v 1.100627 7.239893 0.789570
v 1.071190 7.239326 0.797746
v 1.129065 7.240736 0.789581
v 1.153140 7.243103 0.783551
v 1.129241 7.241525 0.783464
v 1.026422 7.476118 0.755639
v 1.036699 7.436585 0.756100
v 1.109795 7.238225 0.956004
v 1.146961 7.237266 0.956198
v 1.186444 7.212044 0.955153
v 0.818151 7.212316 0.955902
v 0.818151 7.671744 0.955902
v 0.816979 7.671969 0.955607
v 0.818151 7.212044 0.948757
v 1.026685 7.391634 0.756208
v 1.032031 7.404581 0.756134
v 1.064506 7.544460 0.757662
v 1.052885 7.526919 0.756616
v 1.094267 7.542279 0.757973
v 1.087553 7.518722 0.756703
v 1.101670 7.487379 0.756619
v 1.126207 7.498273 0.757651
v 1.122600 7.522688 0.757973
v 1.124066 7.543005 0.758930
v 1.026277 7.396317 0.755344
v 1.002298 7.378855 0.755673
v 1.008938 7.380181 0.755617
v 1.030443 7.467311 0.755367
v 1.033590 7.457646 0.755620
v 1.035507 7.447315 0.755699
v 1.182544 7.417019 0.772825
v 1.178113 7.421464 0.767697
v 1.169016 7.397763 0.763222
v 1.154332 7.409341 0.759737
v 1.178010 7.397617 0.767711
v 1.182562 7.359163 0.772868
v 1.202282 7.239519 0.947838
v 1.036823 7.451765 0.756252
v 1.082693 7.432840 0.756262
v 1.105662 7.415196 0.756604
v 1.130905 7.404905 0.757638
v 1.035436 7.425285 0.755641
v 1.033445 7.414776 0.755360
v 1.030387 7.405013 0.755291
v 1.131928 7.455966 0.757635
v 1.062359 7.358177 0.756261
v 1.089823 7.340808 0.756665
v 1.061459 7.329452 0.756610
v 1.087212 7.304204 0.757824
v 1.124066 7.303525 0.758930
v 1.123096 7.338819 0.757814
v 1.021258 7.485525 0.756168
v 1.063547 7.504211 0.756269
v 1.029088 7.476841 0.756159
v 1.039302 7.418339 0.756252
v 1.030311 7.380905 0.756262
v 1.035579 7.418772 0.756136
v 1.002298 7.498322 0.756229
v 1.015378 7.488982 0.755894
v 1.025008 7.398470 0.750089
v 1.008597 7.383553 0.749806
v 1.030917 7.459841 0.749817
v 1.033878 7.435973 0.749793
v 1.033499 7.446481 0.749812
v 1.033242 7.425760 0.749795
v 1.031453 7.415909 0.749795
v 1.028277 7.406008 0.749787
v 1.022703 7.402496 0.749524
v 1.030957 7.436144 0.749590
v 1.030415 7.445357 0.749719
v 1.030402 7.426919 0.749662
v 1.028796 7.418044 0.749655
v 1.013219 7.480586 0.720664
v 1.013293 7.479239 0.718200
v 1.002298 7.484514 0.720524
v 1.007858 7.483485 0.720551
v 1.002298 7.483749 0.718736
v 1.007761 7.482755 0.718736
v 1.005097 7.480960 0.717647
v 1.021284 7.469560 0.717721
v 1.030307 7.445204 0.719426
v 1.027733 7.454273 0.718204
v 1.025078 7.462258 0.717981
v 1.024214 7.452799 0.717338
v 1.029009 7.440023 0.717813
v 1.026017 7.409554 0.719011
v 1.022648 7.402584 0.718966
v 1.028763 7.418013 0.719183
v 1.030344 7.426881 0.719241
v 1.027977 7.421068 0.717811
v 1.022239 7.405414 0.717475
v 1.018393 7.475963 0.749570
v 1.022750 7.469887 0.749652
v 1.013385 7.480572 0.749704
v 1.007956 7.483505 0.749726
v 1.028820 7.454268 0.749660
v 1.026222 7.462681 0.749667
v 1.026194 7.409794 0.749682
v 1.018170 7.475993 0.719467
v 1.022579 7.469922 0.721412
v 1.026101 7.462604 0.721589
v 1.028715 7.454200 0.721171
v 1.030877 7.436035 0.719314
v 1.035468 7.436193 0.753776
v 1.024955 7.473667 0.749811
v 1.029052 7.406497 0.750508
v 1.031945 7.415796 0.750508
v 1.033738 7.425806 0.750507
v 1.014601 7.485736 0.749930
v 1.008912 7.492422 0.755899
v 1.002298 7.490416 0.750321
v 1.020139 7.480434 0.749824
v 1.168124 7.245065 0.934608
v 1.168134 7.245064 0.888229
v 1.177811 7.250608 0.869460
v 1.182544 7.260354 0.855413
v 1.177815 7.583203 0.886305
v 1.168319 7.588486 0.855108
v 1.182544 7.575051 0.852024
v 1.055583 7.594763 0.903481
v 1.016600 7.594763 0.899562
v 1.010407 7.594763 0.899562
v 1.010058 7.594763 0.899153
v 1.009603 7.594763 0.898829
v 1.008519 7.594763 0.898536
v 1.009078 7.594763 0.898615
v 1.151472 7.242195 0.891931
v 1.184466 7.563041 0.941323
v 1.064854 7.594763 0.932188
v 1.016600 7.594763 0.926346
v 1.016816 7.594763 0.925935
v 1.016924 7.594763 0.925168
v 1.016960 7.594763 0.921286
v 1.016960 7.594763 0.923725
v 1.151935 7.242188 0.943033
v 1.127999 7.240454 0.797673
v 1.152663 7.242166 0.792125
v 1.184466 7.275842 0.797746
v 1.151945 7.591619 0.859151
v 1.152905 7.591633 0.797803
v 1.168685 7.588499 0.797917
v 1.182544 7.575056 0.797948
v 1.186194 7.325366 0.797746
v 1.185618 7.298589 0.797746
v 1.125996 7.593492 0.893848
v 1.065662 7.594763 0.890581
v 1.099843 7.594453 0.797804
v 1.128675 7.593513 0.797748
v 1.184468 7.275834 0.946920
v 1.168117 7.588486 0.932548
v 1.094035 7.594428 0.918814
v 1.010407 7.594763 0.926346
v 1.010058 7.594763 0.926719
v 1.009603 7.594763 0.927025
v 1.008519 7.594763 0.927312
v 1.009078 7.594763 0.927233
v 1.185624 7.546377 0.951300
v 1.125973 7.240477 0.939121
v 1.095664 7.239614 0.937039
v 1.003046 7.594763 0.903348
v 1.003871 7.594763 0.910779
v 1.003579 7.594763 0.910195
v 1.003201 7.594763 0.909903
v 1.002298 7.594763 0.909806
v 1.002764 7.594763 0.909806
v 1.010297 7.594763 0.894026
v 1.006630 7.594763 0.899562
v 1.003490 7.594763 0.897926
v 1.012714 7.594763 0.899562
v 1.013074 7.594763 0.899153
v 1.013542 7.594763 0.898829
v 1.014657 7.594763 0.898536
v 1.014081 7.594763 0.898615
v 1.006420 7.594763 0.900033
v 1.006315 7.594763 0.900872
v 1.006280 7.594763 0.902388
v 1.006280 7.594763 0.904888
v 1.012355 7.594763 0.921286
v 1.011955 7.594763 0.917530
v 1.012355 7.594763 0.917530
v 1.012355 7.594763 0.913111
v 1.010757 7.594763 0.921286
v 1.010757 7.594763 0.917530
v 1.011482 7.594763 0.920514
v 1.010757 7.594763 0.913111
v 1.010757 7.594763 0.904888
v 1.010757 7.594763 0.908679
v 1.012355 7.594763 0.904888
v 1.012355 7.594763 0.908679
v 1.003871 7.594763 0.915060
v 1.003579 7.594763 0.915644
v 1.003201 7.594763 0.915936
v 1.002298 7.594763 0.916033
v 1.002764 7.594763 0.916033
v 1.006630 7.594763 0.926346
v 1.012714 7.594763 0.926346
v 1.013074 7.594763 0.926719
v 1.013542 7.594763 0.927025
v 1.014657 7.594763 0.927312
v 1.014081 7.594763 0.927233
v 1.016960 7.594763 0.917530
v 1.016960 7.594763 0.913111
v 1.016960 7.594763 0.904888
v 1.016960 7.594763 0.908679
v 1.016960 7.594763 0.902388
v 1.016924 7.594763 0.900872
v 1.016816 7.594763 0.900033
v 1.012355 7.594763 0.902388
v 1.012391 7.594763 0.900872
v 1.010757 7.594763 0.902388
v 1.010722 7.594763 0.900872
v 1.010617 7.594763 0.900033
v 1.011735 7.594763 0.898935
v 1.012498 7.594763 0.900033
v 1.010757 7.594763 0.923725
v 1.010722 7.594763 0.925168
v 1.012355 7.594763 0.923725
v 1.012391 7.594763 0.925168
v 1.012498 7.594763 0.925935
v 1.010617 7.594763 0.925935
v 1.011622 7.594763 0.927389
v 1.006280 7.594763 0.921286
v 1.006280 7.594763 0.923725
v 1.006315 7.594763 0.925168
v 1.006420 7.594763 0.925935
v 1.004045 7.594763 0.911752
v 1.004104 7.594763 0.912920
v 1.005481 7.594763 0.920421
v 1.006280 7.594763 0.908679
v 1.005447 7.594763 0.906813
v 1.006280 7.594763 0.913111
v 1.006280 7.594763 0.917530
v 1.004045 7.594763 0.914087
v 1.015233 7.594763 0.898615
v 1.015772 7.594763 0.898829
v 1.016240 7.594763 0.899153
v 1.015233 7.594763 0.927233
v 1.015772 7.594763 0.927025
v 1.016240 7.594763 0.926719
v 1.007959 7.594763 0.898615
v 1.007434 7.594763 0.898829
v 1.006980 7.594763 0.899153
v 1.007959 7.594763 0.927233
v 1.007434 7.594763 0.927025
v 1.006980 7.594763 0.926719
v 1.199949 7.220998 0.944950
v 1.198651 7.215714 0.946378
v 1.197688 7.216544 0.944945
v 1.201236 7.648605 0.945102
v 0.818161 7.215363 0.944942
v 1.186440 7.671421 0.945737
v 0.818131 7.669884 0.945017
v 1.188117 7.670794 0.945259
v 1.189433 7.668726 0.944942
v 1.201044 7.238544 0.945021
v 1.201938 7.618463 0.945735
v 1.201578 7.618620 0.945259
v 1.201048 7.595605 0.945021
v 1.195945 7.669794 0.945035
v 1.188087 7.212668 0.945737
v 1.188115 7.213293 0.945260
v 1.188672 7.215384 0.944942
v 1.201762 7.650217 0.945767
v 1.200364 7.644468 0.944942
v 1.195229 7.213110 0.945832
v 1.192646 7.214189 0.945021
v 1.201934 7.239372 0.945737
v 1.201444 7.227172 0.945435
v 1.201569 7.239379 0.945260
v 1.200360 7.239294 0.944942
v 1.192940 7.225111 0.944942
v 1.193473 7.225152 0.944942
v 1.193808 7.225235 0.944942
v 1.194002 7.225371 0.944942
v 1.194111 7.225572 0.944942
v 1.194875 7.648406 0.944942
v 1.194848 7.654123 0.944942
v 1.194794 7.657115 0.944942
v 1.194734 7.658262 0.944942
v 1.194688 7.658445 0.944942
v 1.153347 7.225188 0.944942
v 1.168868 7.225188 0.944942
v 1.178013 7.225188 0.944942
v 1.182703 7.225188 0.944942
v 1.184861 7.225188 0.944942
v 1.189294 7.658854 0.944942
v 1.188364 7.658886 0.944942
v 1.187452 7.658900 0.944942
v 1.186346 7.658905 0.944942
v 1.184829 7.658902 0.944942
v 1.194623 7.563041 0.944942
v 1.194623 7.575046 0.944942
v 1.194623 7.583302 0.944942
v 1.194623 7.588719 0.944942
v 1.194624 7.592206 0.944942
v 1.194580 7.235292 0.944942
v 1.194608 7.236645 0.944942
v 1.194621 7.237942 0.944942
v 1.194625 7.239521 0.944942
v 1.194623 7.241718 0.944942
v 1.194623 7.436182 0.944942
v 1.194623 7.447165 0.944942
v 1.194623 7.458940 0.944942
v 1.194623 7.472297 0.944942
v 1.194623 7.488027 0.944942
v 1.182690 7.658901 0.944942
v 1.178010 7.658900 0.944942
v 1.200409 7.661493 0.944943
v 1.168868 7.658900 0.944942
v 1.153347 7.658900 0.944942
v 1.194626 7.594671 0.944942
v 1.194633 7.597231 0.944942
v 1.194651 7.601006 0.944942
v 1.194686 7.607112 0.944942
v 1.193789 7.658624 0.944942
v 1.192859 7.658671 0.944942
v 1.191697 7.658733 0.944942
v 1.190457 7.658799 0.944942
v 1.186408 7.225187 0.944942
v 1.187531 7.225185 0.944942
v 1.188415 7.225177 0.944942
v 1.189246 7.225163 0.944942
v 1.194744 7.616671 0.944942
v 1.194806 7.627914 0.944942
v 1.194855 7.639081 0.944942
v 1.190211 7.225138 0.944942
v 1.191213 7.225114 0.944942
v 1.192155 7.225102 0.944942
v 1.194676 7.658545 0.944942
v 1.194592 7.658589 0.944942
v 1.194331 7.658607 0.944942
v 1.194623 7.244873 0.944942
v 1.194623 7.250560 0.944942
v 1.194623 7.260358 0.944942
v 1.194623 7.275842 0.944942
v 1.194351 7.228148 0.944942
v 1.194411 7.229753 0.944942
v 1.194474 7.231626 0.944942
v 1.194533 7.233545 0.944942
v 1.194190 7.225845 0.944942
v 1.194250 7.226297 0.944942
v 1.194300 7.227030 0.944942
v 1.194623 7.298589 0.944942
v 1.194623 7.325366 0.944942
v 1.194623 7.352943 0.944942
v 1.194623 7.378088 0.944942
v 1.194623 7.506921 0.944942
v 1.194623 7.527024 0.944942
v 1.194623 7.546383 0.944942
v 1.047516 7.225188 0.944942
v 1.072688 7.225188 0.944942
v 1.101334 7.225188 0.944942
v 1.129528 7.225188 0.944942
v 1.129528 7.658900 0.944942
v 1.101334 7.658900 0.944942
v 1.072688 7.658900 0.944942
v 1.047516 7.658900 0.944942
v 1.194623 7.397568 0.944942
v 1.194623 7.412799 0.944942
v 1.194623 7.425199 0.944942
v 1.002298 7.225188 0.944942
v 1.008980 7.225188 0.944942
v 1.017511 7.225188 0.944942
v 1.029740 7.225188 0.944942
v 1.200711 7.665167 0.945347
v 1.186444 7.212044 0.948757
v 1.186444 7.671982 0.947565
v 1.191438 7.672044 0.948757
v 1.202298 7.616154 0.948026
v 1.202154 7.618313 0.946529
v 1.193415 7.671529 0.945966
v 1.189376 7.212113 0.947502
v 1.202204 7.638825 0.947258
v 1.191358 7.212167 0.947366
v 1.198229 7.670237 0.945963
v 1.200558 7.219695 0.946425
v 1.186387 7.506921 0.797746
v 1.099346 7.239608 0.797579
v 1.063582 7.239326 0.934429
v 1.186387 7.352943 0.797746
v 1.168590 7.245024 0.792526
v 1.177903 7.250567 0.792369
v 1.182529 7.260336 0.791992
v 1.182097 7.260597 0.783696
v 1.184077 7.275593 0.785303
v 1.177499 7.251187 0.781499
v 1.168538 7.246045 0.781304
v 1.177924 7.583257 0.798114
v 1.153100 7.591376 0.789603
v 1.168738 7.588304 0.789639
v 1.153140 7.590631 0.783551
v 1.182181 7.574612 0.782508
v 1.186006 7.325369 0.789570
v 1.186194 7.352943 0.789566
v 1.185618 7.352943 0.783406
v 1.185442 7.325378 0.783421
v 1.185189 7.297930 0.785398
v 1.129065 7.593220 0.789581
v 1.100626 7.594142 0.789596
v 1.070894 7.594763 0.798079
v 1.100930 7.593220 0.783421
v 1.129241 7.592358 0.783464
v 1.002298 7.594763 0.800585
v 1.069964 7.594466 0.789899
v 1.070311 7.593532 0.783466
v 0.989695 7.593500 0.783384
v 1.013429 7.575830 0.763135
v 1.005814 7.565464 0.759637
v 1.072570 7.239270 0.953950
v 0.995138 7.259518 0.763127
v 0.971061 7.245069 0.772817
v 1.035697 7.245065 0.772825
v 1.035716 7.250544 0.767711
v 1.035689 7.260083 0.763229
v 1.002298 7.551554 0.757567
v 1.002298 7.493758 0.755954
v 1.021115 7.483018 0.755068
v 1.018074 7.423808 0.717005
v 1.005012 7.377416 0.756139
v 0.994903 7.375357 0.756231
v 1.013273 7.377110 0.756234
v 1.015363 7.383375 0.755962
v 1.002298 7.484548 0.749723
v 1.002298 7.388173 0.718600
v 1.008159 7.392489 0.717613
v 1.008168 7.389184 0.719082
v 1.013592 7.392169 0.719040
v 1.002298 7.387860 0.749406
v 1.018508 7.396740 0.719020
v 1.016335 7.396396 0.717834
v 1.017722 7.389917 0.749785
v 1.008113 7.388341 0.749760
v 1.013381 7.391846 0.749621
v 1.018374 7.396452 0.749627
v 1.007954 7.388920 0.748806
v 1.002298 7.382222 0.749889
v 1.014630 7.386576 0.750102
v 1.021129 7.389092 0.755363
v 1.020143 7.391861 0.750005
v 0.932073 7.239326 0.952481
v 1.002298 7.658900 0.944942
v 1.008980 7.658900 0.944942
v 1.017511 7.658900 0.944942
v 1.029740 7.658900 0.944942
v 0.852806 7.561883 0.762497
v 0.852192 7.574059 0.765252
v 0.836745 7.573605 0.767282
v 0.836670 7.562056 0.765252
v 0.851911 7.582016 0.768980
v 0.836825 7.580923 0.770249
v 0.828275 7.574028 0.770339
v 0.851674 7.586657 0.773552
v 0.851512 7.589140 0.778549
v 0.835929 7.585200 0.775021
v 0.828025 7.580956 0.774712
v 0.821650 7.562715 0.778549
v 0.824292 7.573738 0.774277
v 0.804963 7.218298 0.956261
v 0.823301 7.243222 0.955557
v 0.817140 7.237327 0.956254
v 0.853007 7.238467 0.956013
v 0.833361 7.239642 0.955905
v 0.820130 7.352944 0.778186
v 0.822047 7.481912 0.772838
v 0.826583 7.464838 0.767636
v 0.850732 7.471090 0.759731
v 0.835297 7.457495 0.763187
v 0.817796 7.506921 0.955612
v 0.817802 7.332745 0.955615
v 0.835281 7.592314 0.955310
v 0.851008 7.593466 0.955042
v 0.822376 7.588220 0.955276
v 0.835115 7.590163 0.954161
v 0.850965 7.592497 0.954055
v 0.824552 7.585827 0.954449
v 0.818037 7.563211 0.955826
v 0.819035 7.559804 0.954686
v 0.819460 7.575729 0.955461
v 0.819897 7.563259 0.953115
v 0.821287 7.575974 0.953815
v 0.821985 7.575153 0.948117
v 0.826010 7.584263 0.952689
v 0.852444 7.591665 0.947087
v 0.851126 7.592017 0.952559
v 0.835294 7.589272 0.952640
v 0.851235 7.241880 0.952304
v 0.835397 7.244516 0.952133
v 0.852986 7.242198 0.941325
v 0.826772 7.250593 0.946575
v 0.822042 7.260427 0.942263
v 0.820000 7.275118 0.952024
v 0.821882 7.260040 0.949866
v 0.820129 7.563039 0.943187
v 0.826727 7.583318 0.947092
v 0.851975 7.595469 0.955955
v 0.821850 7.594441 0.956049
v 0.846403 7.597894 0.956199
v 0.817007 7.597615 0.956258
v 0.812297 7.212790 0.956087
v 0.818151 7.212723 0.956082
v 0.819516 7.259266 0.955450
v 0.817860 7.275617 0.955909
v 0.810119 7.671843 0.955872
v 0.813411 7.670454 0.956190
v 0.818151 7.671295 0.956082
v 0.804045 7.665462 0.956253
v 0.804119 7.601950 0.956262
v 0.802847 7.644169 0.956086
v 0.931907 7.595443 0.955612
v 0.932500 7.595038 0.954965
v 0.803139 7.239365 0.956190
v 0.824292 7.261553 0.774277
v 0.823171 7.276439 0.773552
v 0.828025 7.252699 0.774712
v 0.827458 7.276742 0.768980
v 0.828277 7.261015 0.770343
v 0.836153 7.246737 0.778911
v 0.851512 7.244465 0.778548
v 0.851674 7.246737 0.773552
v 0.836538 7.248410 0.774277
v 0.851911 7.251776 0.768980
v 0.836825 7.252748 0.770249
v 0.852806 7.277363 0.762497
v 0.836670 7.276928 0.765252
v 0.836745 7.261749 0.767282
v 0.852192 7.261445 0.765252
v 0.824301 7.248087 0.954517
v 0.819409 7.275477 0.954563
v 0.851552 7.240246 0.955261
v 0.850965 7.241404 0.954055
v 0.835061 7.243009 0.954698
v 0.826010 7.249675 0.952689
v 0.821492 7.259070 0.953332
v 0.983786 7.412734 0.717125
v 0.994912 7.398350 0.717256
v 0.818978 7.506919 0.783406
v 0.817393 7.310709 0.956004
v 0.815732 7.562083 0.956262
v 0.837838 7.235700 0.956262
v 1.088407 7.238775 0.955613
v 0.806524 7.214773 0.955954
v 0.802748 7.656394 0.955680
v 0.804091 7.666598 0.956152
v 0.802298 7.239365 0.955153
v 0.802466 7.239365 0.955902
v 0.802340 7.239365 0.955607
v 0.802302 7.614799 0.955475
v 0.813159 7.672044 0.955153
v 0.802474 7.616674 0.955900
v 0.802439 7.643124 0.955745
v 0.802606 7.228307 0.955907
v 0.807690 7.213920 0.945613
v 0.802298 7.239365 0.948757
v 0.802444 7.239367 0.946532
v 0.807407 7.671028 0.956003
v 0.813654 7.212210 0.946510
v 0.802469 7.646963 0.947254
v 0.810222 7.212620 0.955603
v 0.814218 7.212120 0.955476
v 0.803732 7.220197 0.953637
v 0.804539 7.218258 0.945924
v 0.802718 7.239365 0.956082
v 0.820282 7.325397 0.778222
v 0.822082 7.332667 0.772894
v 0.826866 7.353188 0.767711
v 0.822499 7.298829 0.773117
v 0.827083 7.303566 0.768126
v 0.854043 7.301152 0.760844
v 0.854728 7.328574 0.760018
v 0.836930 7.303528 0.763897
v 0.853686 7.355388 0.759742
v 0.836702 7.353921 0.763222
v 0.854400 7.520088 0.759912
v 0.836392 7.498176 0.763209
v 0.837039 7.542208 0.763849
v 0.826939 7.521362 0.767807
v 0.854043 7.544590 0.760844
v 0.827405 7.557549 0.768570
v 0.820560 7.541177 0.778144
v 0.822957 7.557891 0.773201
v 0.820130 7.506921 0.778186
v 0.822109 7.523255 0.772880
v 0.818398 7.325359 0.954026
v 0.818243 7.298656 0.955370
v 0.818209 7.506942 0.953434
v 0.818209 7.352903 0.953504
v 0.817910 7.540687 0.955624
v 0.818369 7.538754 0.954761
v 0.818051 7.518030 0.954960
v 0.944602 7.301107 0.757656
v 1.003323 7.293749 0.757558
v 0.948707 7.327120 0.756624
v 0.998011 7.273424 0.759669
v 0.945620 7.356034 0.756262
v 0.819153 7.527011 0.783421
v 0.818401 7.506920 0.789566
v 0.818589 7.527021 0.789570
v 0.820527 7.563069 0.785124
v 0.819406 7.546855 0.785403
v 0.818401 7.527024 0.797746
v 0.817404 7.536475 0.956007
v 0.816749 7.560184 0.956199
v 0.815760 7.246483 0.956262
v 0.816740 7.277946 0.956198
v 0.802662 7.239372 0.945737
v 0.932163 7.591625 0.778186
v 0.932462 7.588512 0.772869
v 0.903480 7.591376 0.778222
v 0.903381 7.588304 0.772899
v 0.938790 7.583185 0.767729
v 0.903686 7.582924 0.767838
v 0.875275 7.590631 0.778331
v 0.875279 7.587754 0.773117
v 0.875560 7.582619 0.768219
v 0.877863 7.561247 0.760844
v 0.876314 7.574119 0.764034
v 0.906812 7.560964 0.760018
v 0.904714 7.574162 0.763425
v 0.940077 7.562194 0.759748
v 0.941047 7.574741 0.763219
v 0.932025 7.239270 0.953950
v 0.902656 7.239554 0.953641
v 0.875418 7.240394 0.951927
v 0.875002 7.240123 0.953992
v 0.883368 7.238945 0.955623
v 0.884475 7.239431 0.954990
v 0.931907 7.238771 0.955612
v 0.931907 7.239104 0.954961
v 0.947551 7.276991 0.759707
v 0.947999 7.260835 0.763169
v 0.906812 7.278934 0.760018
v 0.904714 7.261642 0.763425
v 0.910422 7.250891 0.767822
v 0.877863 7.278407 0.760844
v 0.876314 7.261575 0.764034
v 0.875560 7.251270 0.768219
v 0.875275 7.243103 0.778331
v 0.875279 7.245732 0.773117
v 0.903480 7.242422 0.778222
v 0.932163 7.242194 0.778186
v 0.908575 7.245154 0.772877
v 0.878578 7.593513 0.942102
v 0.879702 7.595123 0.955570
v 0.881611 7.596028 0.956002
v 0.903238 7.594878 0.954969
v 0.874972 7.594408 0.954993
v 0.875036 7.593772 0.953623
v 0.903232 7.594481 0.953309
v 0.932282 7.594763 0.952418
v 0.932418 7.240473 0.783406
v 0.903665 7.240736 0.783421
v 0.932816 7.239613 0.789566
v 0.903968 7.239893 0.789570
v 0.851326 7.242785 0.785122
v 0.875355 7.241525 0.783464
v 0.875530 7.240736 0.789581
v 0.934133 7.239326 0.797678
v 0.973129 7.472770 0.756233
v 0.963436 7.448562 0.756258
v 0.911734 7.238225 0.956004
v 0.884124 7.237261 0.956198
v 0.815164 7.212045 0.955192
v 1.188096 7.671794 0.946532
v 0.978243 7.388434 0.756208
v 0.970893 7.391168 0.756257
v 0.940090 7.544460 0.757662
v 0.910329 7.542279 0.757973
v 0.920047 7.520291 0.756670
v 0.880529 7.543005 0.758930
v 0.875445 7.479484 0.757653
v 0.881471 7.517460 0.757812
v 0.907870 7.497909 0.756612
v 0.940971 7.504487 0.756261
v 0.983399 7.388972 0.755600
v 0.975599 7.400274 0.755684
v 0.995482 7.379776 0.755984
v 0.989255 7.383607 0.755620
v 0.970802 7.457551 0.755977
v 0.978190 7.476100 0.755600
v 0.826612 7.389889 0.767722
v 0.822049 7.391685 0.772833
v 0.850211 7.412299 0.759718
v 0.835560 7.395644 0.763224
v 0.818044 7.352943 0.954961
v 0.905039 7.372946 0.756620
v 0.876711 7.373153 0.757665
v 0.931512 7.378652 0.756262
v 0.971444 7.407543 0.756143
v 0.968930 7.425152 0.756019
v 0.923411 7.451350 0.756262
v 0.872044 7.443342 0.757633
v 0.897972 7.448208 0.756602
v 0.917042 7.337659 0.756703
v 0.881996 7.331733 0.757973
v 0.880529 7.303525 0.758930
v 0.910329 7.304723 0.757973
v 0.978967 7.483662 0.756226
v 0.984459 7.391826 0.749846
v 0.975832 7.406508 0.749787
v 0.990029 7.387303 0.749788
v 0.996026 7.383349 0.749937
v 0.970648 7.435629 0.749792
v 0.972980 7.415585 0.749801
v 0.986221 7.396451 0.749699
v 0.981893 7.402496 0.749524
v 0.991214 7.391845 0.749695
v 0.996638 7.388911 0.749670
v 0.978370 7.462560 0.749260
v 0.981869 7.469914 0.749265
v 0.974204 7.426948 0.749268
v 0.975805 7.418061 0.749252
v 0.978203 7.409815 0.749662
v 0.978408 7.409801 0.745647
v 0.982167 7.469910 0.719445
v 0.988910 7.477970 0.718699
v 0.991412 7.480593 0.720613
v 0.993263 7.478659 0.717659
v 0.996834 7.482755 0.718736
v 0.973718 7.436035 0.719314
v 0.974400 7.445143 0.719262
v 0.975876 7.454185 0.721440
v 0.976067 7.434737 0.717601
v 0.983279 7.454317 0.717104
v 0.976769 7.450000 0.717817
v 0.982673 7.467764 0.717681
v 0.977605 7.458592 0.718729
v 0.978488 7.462539 0.721450
v 0.981947 7.402584 0.718966
v 0.979112 7.408630 0.718271
v 0.976619 7.421068 0.717811
v 0.974251 7.426881 0.719241
v 0.974217 7.422778 0.749779
v 0.979891 7.467679 0.749779
v 0.988755 7.479676 0.749777
v 0.986220 7.475962 0.749247
v 0.991214 7.480559 0.749232
v 0.973639 7.436144 0.749590
v 0.975713 7.454559 0.749665
v 0.986379 7.475999 0.721037
v 0.996737 7.483485 0.720551
v 0.974196 7.445599 0.749732
v 0.975833 7.418013 0.719183
v 0.974102 7.467373 0.755517
v 0.971009 7.414716 0.755668
v 0.968339 7.436261 0.755999
v 0.969004 7.447214 0.755997
v 0.971238 7.446243 0.749797
v 0.972840 7.456409 0.749919
v 0.979644 7.473660 0.749801
v 0.975750 7.465523 0.749855
v 0.978764 7.396675 0.753865
v 0.970977 7.425841 0.750139
v 0.984596 7.480584 0.749805
v 0.989966 7.485887 0.750159
v 0.996006 7.489141 0.750154
v 0.852785 7.242201 0.867894
v 0.836477 7.245081 0.941949
v 0.826757 7.250607 0.849503
v 0.826797 7.583240 0.876423
v 0.853095 7.591622 0.888216
v 0.836438 7.588479 0.882857
v 0.910803 7.594427 0.918311
v 0.987996 7.594763 0.899562
v 0.938977 7.594763 0.890620
v 0.996077 7.594763 0.898536
v 0.995517 7.594763 0.898615
v 0.994993 7.594763 0.898829
v 0.994538 7.594763 0.899153
v 0.994188 7.594763 0.899562
v 0.987636 7.594763 0.921286
v 0.987636 7.594763 0.923725
v 0.987672 7.594763 0.925168
v 0.987780 7.594763 0.925935
v 0.987996 7.594763 0.926346
v 0.949013 7.594763 0.903481
v 0.878750 7.240476 0.935275
v 0.818400 7.527037 0.951893
v 0.905249 7.239608 0.797579
v 0.851771 7.242177 0.797860
v 0.835902 7.245054 0.797814
v 0.836180 7.245063 0.840903
v 0.826669 7.250596 0.797948
v 0.822046 7.575014 0.910603
v 0.820130 7.563041 0.797746
v 0.822056 7.575080 0.798610
v 0.826675 7.583236 0.791741
v 0.826722 7.583244 0.833290
v 0.852378 7.591626 0.841061
v 0.836125 7.588488 0.833169
v 0.818973 7.298579 0.952606
v 0.878511 7.593490 0.891471
v 0.904856 7.594454 0.797771
v 0.836209 7.588551 0.947068
v 0.939742 7.594763 0.932188
v 0.994188 7.594763 0.926346
v 0.994538 7.594763 0.926719
v 0.994993 7.594763 0.927025
v 0.995517 7.594763 0.927233
v 0.996077 7.594763 0.927312
v 0.818972 7.546377 0.951300
v 0.908932 7.239614 0.937039
v 1.001832 7.594763 0.909806
v 1.001395 7.594763 0.909903
v 1.001016 7.594763 0.910195
v 1.000725 7.594763 0.910779
v 0.997966 7.594763 0.899562
v 0.991881 7.594763 0.899562
v 0.991522 7.594763 0.899153
v 0.991054 7.594763 0.898829
v 0.990514 7.594763 0.898615
v 0.989939 7.594763 0.898536
v 0.998774 7.594763 0.901953
v 0.998175 7.594763 0.900033
v 0.998280 7.594763 0.900872
v 0.998315 7.594763 0.904888
v 0.998315 7.594763 0.902388
v 0.999343 7.594763 0.908785
v 0.992241 7.594763 0.921286
v 0.992241 7.594763 0.917530
v 0.992241 7.594763 0.913111
v 0.992241 7.594763 0.908679
v 0.992241 7.594763 0.904888
v 0.993020 7.594763 0.899939
v 0.993839 7.594763 0.904888
v 0.993839 7.594763 0.908679
v 0.992940 7.594763 0.908679
v 0.993439 7.594763 0.904888
v 0.993839 7.594763 0.913111
v 0.993839 7.594763 0.917530
v 0.993839 7.594763 0.921286
v 1.000725 7.594763 0.915060
v 1.001016 7.594763 0.915644
v 1.001395 7.594763 0.915936
v 1.001832 7.594763 0.916033
v 0.997966 7.594763 0.926346
v 0.989939 7.594763 0.927312
v 0.990514 7.594763 0.927233
v 0.991054 7.594763 0.927025
v 0.991522 7.594763 0.926719
v 0.991881 7.594763 0.926346
v 0.992946 7.594763 0.924745
v 0.820129 7.275843 0.943645
v 0.987636 7.594763 0.904888
v 0.987636 7.594763 0.908679
v 0.987636 7.594763 0.913111
v 0.987636 7.594763 0.917530
v 0.939400 7.239326 0.934297
v 0.987780 7.594763 0.900033
v 0.987672 7.594763 0.900872
v 0.987636 7.594763 0.902388
v 0.992241 7.594763 0.902388
v 0.992205 7.594763 0.900872
v 0.992097 7.594763 0.900033
v 0.993979 7.594763 0.900033
v 0.993874 7.594763 0.900872
v 0.993839 7.594763 0.902388
v 0.993839 7.594763 0.923725
v 0.993874 7.594763 0.925168
v 0.993979 7.594763 0.925935
v 0.992097 7.594763 0.925935
v 0.992205 7.594763 0.925168
v 0.992241 7.594763 0.923725
v 0.998175 7.594763 0.925935
v 0.998280 7.594763 0.925168
v 0.998315 7.594763 0.921286
v 0.998315 7.594763 0.923725
v 1.000550 7.594763 0.911752
v 1.000492 7.594763 0.912920
v 1.000550 7.594763 0.914087
v 0.999313 7.594763 0.913541
v 1.002298 7.594763 0.951995
v 0.998315 7.594763 0.917530
v 0.998315 7.594763 0.913111
v 0.998315 7.594763 0.908679
v 0.989363 7.594763 0.898615
v 0.988823 7.594763 0.898829
v 0.993817 7.594763 0.891209
v 0.988356 7.594763 0.899153
v 0.988356 7.594763 0.926719
v 0.988823 7.594763 0.927025
v 0.989363 7.594763 0.927233
v 0.997616 7.594763 0.899153
v 0.997161 7.594763 0.898829
v 0.996637 7.594763 0.898615
v 0.996637 7.594763 0.927233
v 0.997161 7.594763 0.927025
v 0.997616 7.594763 0.926719
v 0.810891 7.214099 0.944998
v 0.816889 7.670796 0.945260
v 0.818156 7.671421 0.945737
v 0.803027 7.239379 0.945260
v 0.803551 7.238544 0.945021
v 0.803209 7.229000 0.945214
v 0.802658 7.618456 0.945735
v 0.810296 7.670046 0.945034
v 0.818157 7.214184 0.945021
v 0.818153 7.212668 0.945737
v 0.818155 7.213293 0.945260
v 0.802930 7.645486 0.945436
v 0.803909 7.653715 0.944959
v 0.803020 7.626230 0.945259
v 0.803546 7.617020 0.945021
v 0.802600 7.229266 0.946597
v 0.805112 7.221291 0.944943
v 0.804236 7.237224 0.944942
v 0.810485 7.225572 0.944942
v 0.810594 7.225371 0.944942
v 0.810788 7.225235 0.944942
v 0.811656 7.225111 0.944942
v 0.811123 7.225152 0.944942
v 0.809907 7.658445 0.944942
v 0.809861 7.658262 0.944942
v 0.809801 7.657115 0.944942
v 0.809721 7.648406 0.944942
v 0.809748 7.654123 0.944942
v 0.819735 7.225188 0.944942
v 0.821892 7.225188 0.944942
v 0.826583 7.225188 0.944942
v 0.851249 7.225188 0.944942
v 0.835727 7.225188 0.944942
v 0.819766 7.658902 0.944942
v 0.818250 7.658905 0.944942
v 0.817143 7.658900 0.944942
v 0.815301 7.658854 0.944942
v 0.816231 7.658886 0.944942
v 0.804232 7.644468 0.944942
v 0.809972 7.592206 0.944942
v 0.809972 7.588719 0.944942
v 0.809973 7.583302 0.944942
v 0.809973 7.563041 0.944942
v 0.809973 7.575046 0.944942
v 0.809972 7.241718 0.944942
v 0.809971 7.239521 0.944942
v 0.809975 7.237942 0.944942
v 0.810016 7.235292 0.944942
v 0.809988 7.236645 0.944942
v 0.809973 7.488027 0.944942
v 0.809973 7.472297 0.944942
v 0.809973 7.458940 0.944942
v 0.809973 7.436182 0.944942
v 0.809973 7.447165 0.944942
v 0.851249 7.658900 0.944942
v 0.835727 7.658900 0.944942
v 0.826586 7.658900 0.944942
v 0.821905 7.658901 0.944942
v 0.809909 7.607112 0.944942
v 0.809944 7.601006 0.944942
v 0.809963 7.597231 0.944942
v 0.809970 7.594671 0.944942
v 0.814139 7.658799 0.944942
v 0.812899 7.658733 0.944942
v 0.810807 7.658624 0.944942
v 0.811736 7.658671 0.944942
v 0.805621 7.666060 0.944942
v 0.815350 7.225163 0.944942
v 0.816181 7.225177 0.944942
v 0.817065 7.225185 0.944942
v 0.818188 7.225187 0.944942
v 0.809741 7.639081 0.944942
v 0.809790 7.627914 0.944942
v 0.809852 7.616671 0.944942
v 0.812441 7.225102 0.944942
v 0.813383 7.225114 0.944942
v 0.814385 7.225138 0.944942
v 0.810264 7.658607 0.944942
v 0.810003 7.658589 0.944942
v 0.809920 7.658545 0.944942
v 0.809973 7.275842 0.944942
v 0.809973 7.260358 0.944942
v 0.809973 7.250560 0.944942
v 0.809972 7.244873 0.944942
v 0.810062 7.233545 0.944942
v 0.810121 7.231626 0.944942
v 0.810245 7.228148 0.944942
v 0.810184 7.229753 0.944942
v 0.810295 7.227030 0.944942
v 0.810345 7.226297 0.944942
v 0.810406 7.225845 0.944942
v 0.809973 7.378088 0.944942
v 0.809973 7.352943 0.944942
v 0.809973 7.325366 0.944942
v 0.809973 7.298589 0.944942
v 0.809973 7.546383 0.944942
v 0.809973 7.527024 0.944942
v 0.809973 7.506921 0.944942
v 0.875068 7.225188 0.944942
v 0.903262 7.225188 0.944942
v 0.957080 7.225188 0.944942
v 0.931907 7.225188 0.944942
v 0.957080 7.658900 0.944942
v 0.931907 7.658900 0.944942
v 0.903262 7.658900 0.944942
v 0.875068 7.658900 0.944942
v 0.809973 7.425199 0.944942
v 0.809973 7.412799 0.944942
v 0.809973 7.397568 0.944942
v 0.974856 7.225188 0.944942
v 0.987085 7.225188 0.944942
v 0.995616 7.225188 0.944942
v 0.804168 7.664948 0.945077
v 0.803302 7.663166 0.945823
v 0.813408 7.672037 0.947641
v 0.802335 7.239366 0.947565
v 0.840479 7.671794 0.946532
v 0.802442 7.618341 0.946529
v 0.818152 7.212295 0.946532
v 0.818151 7.212106 0.947565
v 0.802298 7.617360 0.948034
v 0.808497 7.671479 0.946226
v 0.805434 7.668934 0.945593
v 1.186444 7.212295 0.946532
v 0.818978 7.546383 0.797747
v 0.818209 7.506921 0.797746
v 0.876596 7.240454 0.797673
v 0.827013 7.250898 0.782521
v 0.835912 7.245405 0.785860
v 0.821077 7.275578 0.781191
v 0.820134 7.275857 0.792218
v 0.822497 7.260384 0.783124
v 0.822052 7.260347 0.797851
v 0.822425 7.574769 0.782960
v 0.827077 7.582450 0.780856
v 0.851456 7.590631 0.783551
v 0.835938 7.587754 0.783696
v 0.851599 7.591587 0.791804
v 0.835878 7.588462 0.791677
v 0.819071 7.298145 0.791139
v 0.818401 7.325366 0.797746
v 0.818498 7.331594 0.789449
v 0.820089 7.297202 0.780968
v 0.819153 7.325378 0.783421
v 0.818978 7.352943 0.783406
v 0.818209 7.352943 0.797746
v 0.875736 7.593462 0.791909
v 0.903970 7.594142 0.789596
v 0.875355 7.592358 0.783464
v 0.903665 7.593220 0.783421
v 0.932878 7.593517 0.783428
v 0.933372 7.594457 0.789706
v 0.933591 7.594763 0.798086
v 0.990776 7.594444 0.790179
v 1.072433 7.591625 0.778186
v 1.002298 7.583312 0.767506
v 0.981152 7.564687 0.759739
v 0.985207 7.575802 0.763205
v 1.088023 7.239114 0.954958
v 0.980878 7.250508 0.767639
v 1.000918 7.536269 0.756593
v 1.003735 7.522282 0.756268
v 0.995616 7.492429 0.755915
v 0.989350 7.489295 0.755942
v 0.983379 7.483343 0.755621
v 1.008548 7.466809 0.717079
v 1.002491 7.337105 0.756267
v 1.006631 7.489404 0.749778
v 0.996644 7.483499 0.749551
v 0.993379 7.391276 0.718195
v 0.985926 7.399900 0.717593
v 0.986088 7.396740 0.719020
v 0.993917 7.389832 0.720442
v 0.989946 7.386396 0.750323
v 0.995616 7.658900 0.944942
v 0.987085 7.658900 0.944942
v 0.974856 7.658900 0.944942
v 1.071780 7.239613 0.789566
f 165 1 58
f 58 19 165
f 59 58 1
f 2 59 1
f 3 4 5
f 5 6 3
f 4 138 7
f 7 5 4
f 6 5 9
f 9 8 6
f 5 7 9
f 603 11 10
f 11 603 12
f 12 13 11
f 138 10 11
f 11 7 138
f 7 11 13
f 13 9 7
f 14 15 16
f 16 17 14
f 15 8 9
f 9 16 15
f 17 16 13
f 13 12 17
f 9 13 16
f 119 2 112
f 2 1 112
f 18 41 19
f 89 20 57
f 89 21 22
f 220 20 22
f 89 22 20
f 20 220 92
f 57 20 92
f 132 131 25
f 25 26 132
f 24 132 26
f 26 243 24
f 120 23 242
f 243 242 23
f 23 24 243
f 28 27 141
f 143 141 27
f 141 143 161
f 29 31 32
f 32 30 29
f 33 18 30
f 30 32 33
f 31 49 34
f 34 32 31
f 32 34 35
f 35 36 32
f 36 33 32
f 37 38 48
f 48 149 39
f 39 37 48
f 38 37 36
f 36 35 38
f 37 39 33
f 33 36 37
f 40 52 41
f 40 39 149
f 39 40 41
f 41 33 39
f 33 41 18
f 43 346 42
f 46 47 44
f 360 46 45
f 44 45 46
f 346 43 324
f 47 324 43
f 43 44 47
f 38 339 48
f 50 19 58
f 19 50 51
f 204 51 50
f 29 30 51
f 51 203 29
f 30 18 51
f 203 51 204
f 51 18 19
f 52 164 165
f 165 19 52
f 52 19 41
f 104 93 95
f 93 104 96
f 94 95 93
f 55 56 54
f 56 55 53
f 55 57 53
f 114 107 108
f 114 63 58
f 99 716 64
f 108 99 64
f 64 114 108
f 114 64 63
f 59 110 98
f 110 59 60
f 60 2 119
f 2 60 59
f 98 114 58
f 58 59 98
f 1082 61 62
f 200 721 205
f 61 205 721
f 721 62 61
f 65 66 67
f 67 68 65
f 66 69 70
f 70 67 66
f 68 67 71
f 71 597 68
f 67 70 72
f 72 71 67
f 73 74 75
f 75 76 73
f 76 75 77
f 77 78 76
f 69 73 76
f 76 70 69
f 70 76 78
f 78 72 70
f 79 598 80
f 80 81 79
f 598 597 71
f 71 80 598
f 81 80 78
f 78 77 81
f 80 71 72
f 72 78 80
f 54 84 82
f 82 55 54
f 55 82 83
f 83 57 55
f 84 360 45
f 45 82 84
f 82 45 44
f 44 85 82
f 85 83 82
f 86 43 42
f 42 87 88
f 88 86 42
f 43 86 85
f 85 44 43
f 86 88 83
f 83 85 86
f 87 21 89
f 89 88 87
f 88 89 57
f 57 83 88
f 302 90 629
f 746 636 302
f 629 746 302
f 588 153 605
f 152 605 153
f 112 1 93
f 1 92 93
f 57 92 53
f 113 112 97
f 93 97 112
f 97 93 96
f 458 97 96
f 221 225 577
f 99 108 116
f 116 224 99
f 223 716 99
f 224 223 99
f 101 102 112
f 100 119 112
f 102 100 112
f 222 104 711
f 119 100 105
f 105 60 119
f 100 102 106
f 106 105 100
f 105 106 109
f 580 106 101
f 101 106 102
f 104 222 103
f 104 103 96
f 111 96 103
f 103 221 111
f 105 110 60
f 109 110 105
f 584 109 106
f 115 98 109
f 109 584 115
f 110 109 98
f 98 576 114
f 116 108 579
f 101 112 118
f 579 108 117
f 107 117 108
f 585 221 577
f 221 585 111
f 584 106 580
f 96 111 476
f 585 476 111
f 114 586 107
f 112 113 118
f 97 587 113
f 587 118 113
f 1 165 92
f 120 247 130
f 130 129 120
f 247 121 128
f 128 130 247
f 123 122 124
f 124 125 123
f 121 123 125
f 125 128 121
f 74 73 126
f 126 127 74
f 73 69 128
f 128 126 73
f 127 126 125
f 125 124 127
f 128 125 126
f 66 65 129
f 129 130 66
f 69 66 130
f 130 128 69
f 132 24 133
f 23 120 134
f 134 136 23
f 136 134 135
f 24 23 136
f 136 133 24
f 137 135 10
f 138 137 10
f 135 137 136
f 137 138 133
f 133 136 137
f 4 3 139
f 139 140 4
f 140 139 131
f 131 132 140
f 138 4 140
f 138 140 132
f 132 133 138
f 141 142 28
f 142 141 144
f 141 161 144
f 360 84 145
f 84 54 146
f 142 144 146
f 146 145 84
f 145 146 144
f 27 28 148
f 143 27 148
f 148 147 143
f 52 40 148
f 149 148 40
f 148 149 147
f 149 48 368
f 149 368 147
f 802 804 150
f 152 134 120
f 134 152 154
f 154 135 134
f 152 153 155
f 155 154 152
f 153 588 156
f 156 155 153
f 157 159 160
f 160 158 157
f 158 160 155
f 155 156 158
f 159 10 135
f 135 160 159
f 135 154 160
f 154 155 160
f 354 144 591
f 161 591 144
f 144 354 145
f 28 91 163
f 163 148 28
f 162 163 91
f 165 164 162
f 148 163 52
f 164 52 163
f 163 162 164
f 162 92 165
f 91 28 142
f 142 56 91
f 162 91 56
f 56 146 54
f 56 53 162
f 56 142 146
f 92 162 53
f 1253 167 168
f 169 168 167
f 1253 168 170
f 170 171 1253
f 168 169 172
f 172 170 168
f 174 173 175
f 175 176 174
f 169 174 176
f 176 172 169
f 3 6 177
f 177 178 3
f 6 8 179
f 179 177 6
f 178 177 176
f 176 175 178
f 177 179 172
f 172 176 177
f 15 14 180
f 180 181 15
f 181 180 171
f 171 170 181
f 8 15 181
f 181 179 8
f 179 181 170
f 170 172 179
f 94 92 750
f 94 93 92
f 182 590 651
f 590 182 183
f 182 620 184
f 184 183 182
f 1257 184 620
f 21 87 186
f 186 185 21
f 1257 751 185
f 185 186 184
f 184 1257 185
f 87 42 187
f 187 186 87
f 186 187 183
f 183 184 186
f 150 625 188
f 188 189 150
f 625 624 190
f 190 188 625
f 189 188 198
f 188 190 196
f 196 198 188
f 623 851 191
f 191 192 623
f 192 191 193
f 193 194 192
f 624 623 192
f 192 190 624
f 190 192 194
f 194 196 190
f 79 81 194
f 194 195 79
f 81 77 196
f 196 194 81
f 194 193 195
f 75 74 197
f 197 198 75
f 198 197 189
f 77 75 198
f 198 196 77
f 61 340 362
f 362 207 61
f 207 362 199
f 204 50 718
f 202 200 201
f 202 201 203
f 204 202 203
f 200 205 206
f 206 201 200
f 205 61 207
f 207 206 205
f 49 31 208
f 208 199 49
f 199 208 207
f 203 209 29
f 209 203 201
f 201 206 209
f 31 29 209
f 209 208 31
f 208 209 206
f 206 207 208
f 210 191 851
f 191 210 211
f 211 193 191
f 210 1276 212
f 212 211 210
f 1276 213 589
f 589 212 1276
f 214 347 348
f 347 214 212
f 212 589 347
f 215 79 195
f 195 216 215
f 216 195 193
f 193 211 216
f 348 215 216
f 216 214 348
f 214 216 211
f 211 212 214
f 718 50 58
f 265 240 249
f 249 264 265
f 218 249 241
f 240 241 249
f 22 21 185
f 185 219 22
f 219 185 751
f 220 22 219
f 173 228 230
f 230 175 173
f 228 229 231
f 231 230 228
f 264 231 229
f 264 232 231
f 131 234 233
f 232 233 234
f 234 231 232
f 3 178 235
f 235 139 3
f 178 175 230
f 230 235 178
f 139 235 234
f 234 131 139
f 235 230 231
f 231 234 235
f 226 236 649
f 226 649 633
f 239 265 217
f 265 239 240
f 241 275 315
f 275 241 240
f 315 218 241
f 26 25 245
f 122 123 244
f 244 245 122
f 123 121 246
f 246 244 123
f 245 244 26
f 244 246 243
f 243 26 244
f 120 242 247
f 247 246 121
f 246 247 242
f 242 243 246
f 143 591 161
f 25 256 252
f 252 245 25
f 251 252 256
f 252 122 245
f 218 315 253
f 254 268 253
f 236 226 227
f 227 255 236
f 255 227 268
f 268 254 255
f 250 264 249
f 264 250 232
f 251 232 250
f 232 251 256
f 25 131 233
f 233 256 25
f 256 233 232
f 250 267 257
f 250 257 258
f 258 251 250
f 257 267 1265
f 257 1265 151
f 151 259 257
f 259 258 257
f 150 189 260
f 260 802 150
f 802 260 259
f 259 151 802
f 258 259 260
f 197 74 127
f 127 261 197
f 261 127 124
f 124 262 261
f 189 197 261
f 261 260 189
f 260 261 262
f 262 258 260
f 122 252 262
f 252 251 258
f 258 262 252
f 262 124 122
f 264 263 265
f 266 267 250
f 250 249 266
f 218 253 268
f 218 268 266
f 266 249 218
f 226 267 227
f 268 227 267
f 267 266 268
f 269 263 264
f 264 1260 269
f 627 321 269
f 321 270 269
f 263 217 265
f 263 269 270
f 271 278 642
f 642 650 271
f 642 648 650
f 648 642 272
f 312 308 304
f 308 312 307
f 310 291 311
f 310 284 285
f 287 286 288
f 288 289 287
f 284 287 289
f 289 285 284
f 290 291 285
f 289 288 290
f 285 289 290
f 285 291 310
f 292 313 293
f 312 311 291
f 291 294 312
f 313 312 294
f 294 293 313
f 294 295 293
f 295 90 296
f 314 292 296
f 296 293 295
f 293 296 292
f 279 309 297
f 297 298 279
f 299 297 309
f 301 296 90
f 296 301 300
f 300 314 296
f 299 300 301
f 298 297 302
f 302 301 90
f 301 302 297
f 297 299 301
f 305 316 323
f 306 323 1266
f 306 305 323
f 316 304 273
f 274 275 281
f 304 308 273
f 308 307 275
f 275 273 308
f 281 275 307
f 274 282 276
f 282 283 277
f 277 276 282
f 309 277 283
f 277 309 278
f 304 316 303
f 305 303 316
f 281 280 274
f 309 279 278
f 282 274 280
f 304 303 310
f 310 311 304
f 305 310 303
f 310 305 284
f 634 287 306
f 305 306 287
f 287 284 305
f 287 634 286
f 280 281 292
f 292 314 280
f 281 307 313
f 313 292 281
f 312 304 311
f 312 313 307
f 309 283 299
f 282 280 314
f 314 300 282
f 283 282 300
f 300 299 283
f 275 240 273
f 239 273 240
f 628 270 320
f 321 627 322
f 321 320 270
f 239 217 316
f 316 273 239
f 275 274 315
f 236 255 317
f 317 271 236
f 255 254 318
f 318 317 255
f 315 319 253
f 254 253 319
f 319 318 254
f 274 276 319
f 319 315 274
f 276 277 318
f 318 319 276
f 271 317 278
f 277 278 317
f 317 318 277
f 217 628 323
f 323 316 217
f 320 323 628
f 322 1266 321
f 320 321 1266
f 338 324 325
f 324 47 326
f 326 325 324
f 360 327 46
f 46 326 47
f 326 46 327
f 592 348 338
f 338 325 592
f 326 592 325
f 339 38 330
f 328 330 38
f 361 49 350
f 350 329 361
f 328 361 329
f 356 350 49
f 331 332 357
f 362 331 357
f 377 333 334
f 377 334 335
f 377 337 336
f 377 335 337
f 340 341 342
f 342 331 340
f 331 342 343
f 362 340 331
f 331 345 344
f 331 343 345
f 369 346 338
f 347 338 348
f 590 370 589
f 338 347 369
f 370 369 347
f 347 589 370
f 592 326 593
f 327 360 349
f 327 593 326
f 349 594 327
f 593 327 594
f 351 352 329
f 329 350 351
f 352 599 328
f 328 329 352
f 353 157 339
f 339 330 353
f 599 353 330
f 330 328 599
f 355 349 360
f 356 362 358
f 1088 611 357
f 362 357 611
f 611 358 362
f 359 351 350
f 350 356 359
f 358 359 356
f 324 338 346
f 38 35 328
f 49 361 34
f 35 34 361
f 361 328 35
f 340 61 341
f 49 199 356
f 362 356 199
f 432 364 363
f 432 365 364
f 1082 366 367
f 1082 367 365
f 365 432 1082
f 368 48 339
f 591 143 588
f 147 588 143
f 590 183 370
f 187 42 346
f 346 369 187
f 183 187 369
f 369 370 183
f 371 372 373
f 371 373 374
f 371 376 375
f 371 374 376
f 377 378 379
f 372 371 379
f 379 441 372
f 377 381 380
f 377 382 381
f 377 383 384
f 377 384 382
f 377 424 333
f 377 380 424
f 378 385 441
f 441 379 378
f 385 386 441
f 387 388 441
f 386 387 441
f 389 395 390
f 390 391 389
f 391 390 424
f 424 392 391
f 390 395 424
f 395 393 394
f 395 394 396
f 396 424 395
f 424 398 397
f 424 396 398
f 424 399 400
f 424 400 392
f 439 402 401
f 439 403 402
f 1082 404 405
f 1082 405 403
f 403 439 1082
f 432 407 408
f 432 408 409
f 1082 411 410
f 411 1082 432
f 432 409 411
f 360 145 355
f 354 355 145
f 331 344 412
f 331 412 413
f 331 415 414
f 331 413 415
f 331 414 416
f 331 416 417
f 331 418 332
f 331 417 418
f 424 419 399
f 424 420 419
f 424 397 421
f 424 421 422
f 424 423 333
f 424 422 423
f 424 380 425
f 424 425 420
f 395 426 393
f 395 427 426
f 395 389 428
f 395 428 429
f 432 430 407
f 430 432 395
f 395 429 430
f 432 363 431
f 432 431 427
f 427 395 432
f 439 433 434
f 439 434 435
f 406 1082 439
f 439 436 406
f 439 435 436
f 441 437 372
f 437 441 439
f 439 438 437
f 441 388 440
f 441 440 442
f 442 439 441
f 439 443 433
f 439 442 443
f 439 401 444
f 439 444 438
f 377 445 383
f 377 446 445
f 357 332 447
f 357 447 446
f 446 377 357
f 357 377 1088
f 1082 410 448
f 1082 448 449
f 341 61 1082
f 1082 450 341
f 1082 449 450
f 377 336 451
f 377 451 452
f 377 453 378
f 377 452 453
f 1082 454 366
f 1082 455 454
f 1082 406 456
f 1082 456 455
f 459 457 458
f 459 476 477
f 458 476 459
f 115 474 460
f 460 519 115
f 576 115 519
f 519 460 475
f 462 582 464
f 470 463 464
f 463 470 465
f 481 475 469
f 479 480 478
f 466 469 480
f 480 479 466
f 457 466 479
f 469 466 481
f 457 481 466
f 464 1100 462
f 1100 464 463
f 480 468 478
f 468 480 469
f 467 478 468
f 470 464 582
f 582 586 470
f 465 470 519
f 461 473 477
f 469 460 468
f 474 467 468
f 468 460 474
f 460 469 475
f 476 471 472
f 476 472 477
f 473 459 477
f 576 470 586
f 470 576 519
f 479 587 457
f 587 458 457
f 519 1165 465
f 482 483 459
f 483 484 459
f 485 486 459
f 484 485 459
f 487 488 519
f 519 475 487
f 488 489 519
f 490 491 519
f 489 490 519
f 492 493 473
f 493 494 473
f 495 496 473
f 494 495 473
f 497 498 519
f 498 499 519
f 500 501 519
f 499 500 519
f 502 503 475
f 503 504 475
f 505 506 475
f 504 505 475
f 507 508 457
f 508 509 481
f 481 457 508
f 510 511 481
f 509 510 481
f 512 513 475
f 513 514 475
f 515 516 475
f 514 515 475
f 501 517 519
f 517 518 519
f 520 521 519
f 518 520 519
f 506 522 475
f 522 523 475
f 524 525 475
f 523 524 475
f 526 527 519
f 527 528 519
f 529 497 519
f 528 529 519
f 496 530 473
f 530 531 459
f 459 473 530
f 532 533 459
f 531 532 459
f 525 534 475
f 534 535 475
f 536 487 475
f 535 536 475
f 533 537 459
f 537 538 459
f 539 482 459
f 538 539 459
f 491 540 519
f 540 541 519
f 542 526 519
f 541 542 519
f 511 543 481
f 543 544 481
f 545 546 481
f 544 545 481
f 547 548 457
f 548 549 457
f 550 507 457
f 549 550 457
f 486 551 459
f 551 552 459
f 553 547 457
f 457 459 553
f 552 553 459
f 546 554 481
f 554 555 481
f 556 557 481
f 555 556 481
f 516 558 475
f 558 559 475
f 560 502 475
f 559 560 475
f 561 562 461
f 562 563 461
f 564 492 473
f 563 564 473
f 473 461 563
f 521 565 519
f 565 566 1165
f 1165 519 565
f 567 568 1165
f 566 567 1165
f 557 569 481
f 569 570 481
f 571 512 475
f 475 481 571
f 570 571 481
f 572 573 461
f 573 574 461
f 575 561 461
f 574 575 461
f 476 458 96
f 576 586 114
f 115 576 98
f 117 578 579
f 582 874 117
f 582 462 874
f 578 117 874
f 118 248 101
f 479 478 166
f 166 118 479
f 118 166 248
f 478 467 581
f 581 166 478
f 166 581 580
f 580 248 166
f 117 107 586
f 586 582 117
f 585 577 583
f 583 1222 471
f 467 474 584
f 584 581 467
f 584 580 581
f 584 474 115
f 471 476 585
f 585 583 471
f 580 101 248
f 458 587 97
f 587 479 118
f 158 339 157
f 158 156 147
f 588 147 156
f 339 158 368
f 147 368 158
f 589 213 590
f 594 349 596
f 65 68 595
f 595 596 65
f 597 595 68
f 596 595 594
f 595 597 593
f 593 594 595
f 598 79 215
f 598 215 348
f 348 592 598
f 597 598 592
f 592 593 597
f 157 353 603
f 603 159 157
f 353 599 12
f 12 603 353
f 352 351 600
f 600 601 352
f 599 352 601
f 601 12 599
f 17 602 14
f 602 17 601
f 601 600 602
f 12 601 17
f 603 10 159
f 349 355 608
f 608 596 349
f 355 354 604
f 604 608 355
f 591 588 605
f 354 591 605
f 605 604 354
f 606 152 120
f 120 129 607
f 607 606 120
f 152 606 605
f 606 607 604
f 604 605 606
f 129 65 596
f 596 608 129
f 608 607 129
f 608 604 607
f 351 359 609
f 609 600 351
f 359 358 610
f 610 609 359
f 358 611 615
f 615 610 358
f 1253 171 612
f 612 616 1253
f 616 612 610
f 610 615 616
f 180 14 602
f 602 613 180
f 613 602 600
f 600 609 613
f 171 180 613
f 613 612 171
f 612 613 609
f 609 610 612
f 611 1088 614
f 611 614 615
f 1252 615 614
f 616 617 1253
f 617 616 615
f 615 1252 617
f 173 174 618
f 618 619 173
f 174 169 1254
f 1254 618 174
f 167 1254 169
f 95 711 104
f 651 832 620
f 1257 620 832
f 620 182 651
f 804 621 625
f 625 150 804
f 621 1258 624
f 624 625 621
f 851 623 622
f 1258 622 623
f 623 624 1258
f 579 759 116
f 224 116 759
f 626 1259 229
f 1260 229 1259
f 229 1260 264
f 228 173 619
f 619 626 228
f 229 228 626
f 263 628 217
f 628 263 270
f 1264 291 290
f 90 295 629
f 629 295 1264
f 295 294 291
f 295 291 1264
f 630 238 237
f 630 631 632
f 238 630 633
f 632 633 630
f 1265 632 631
f 632 1265 267
f 267 226 632
f 633 632 226
f 1266 634 306
f 320 1266 323
f 637 636 635
f 641 302 636
f 636 637 638
f 638 641 636
f 635 639 646
f 646 637 635
f 637 646 644
f 644 638 637
f 279 298 640
f 640 645 279
f 645 640 638
f 638 644 645
f 298 302 641
f 641 640 298
f 641 638 640
f 272 643 918
f 643 272 642
f 642 644 643
f 645 642 278
f 642 645 644
f 643 646 639
f 646 643 644
f 639 918 643
f 278 279 645
f 647 237 238
f 238 272 647
f 272 238 633
f 633 648 272
f 236 271 649
f 648 633 649
f 650 649 271
f 649 650 648
f 1165 653 652
f 1165 654 653
f 1165 568 655
f 1165 655 654
f 749 709 718
f 656 657 658
f 658 659 656
f 657 660 661
f 661 658 657
f 659 658 662
f 662 789 659
f 658 661 662
f 663 664 665
f 1233 666 665
f 660 663 665
f 665 661 660
f 661 665 666
f 666 662 661
f 667 791 668
f 668 1232 667
f 791 789 662
f 662 668 791
f 1232 668 666
f 666 1233 1232
f 662 666 668
f 762 722 773
f 669 718 722
f 722 762 669
f 671 673 670
f 672 740 673
f 671 672 673
f 892 675 674
f 675 892 676
f 893 677 678
f 785 678 677
f 678 785 676
f 679 680 800
f 58 717 718
f 717 58 63
f 681 682 706
f 681 707 683
f 682 681 684
f 684 685 682
f 681 683 686
f 686 684 681
f 687 688 689
f 688 690 691
f 691 689 688
f 689 691 686
f 686 683 689
f 692 691 690
f 691 692 705
f 705 693 691
f 693 686 691
f 694 695 696
f 696 1004 694
f 695 685 684
f 684 696 695
f 1004 696 693
f 693 705 1004
f 696 684 686
f 686 693 696
f 697 699 968
f 968 698 697
f 698 968 700
f 1053 702 703
f 703 701 1053
f 701 703 700
f 690 704 692
f 994 692 704
f 692 994 705
f 707 681 706
f 708 707 706
f 707 708 709
f 718 709 708
f 749 813 709
f 813 687 689
f 689 709 813
f 709 689 683
f 707 709 683
f 710 711 95
f 710 95 94
f 94 669 710
f 669 94 750
f 671 670 712
f 713 815 671
f 671 712 713
f 814 671 815
f 754 717 766
f 766 715 714
f 715 766 717
f 716 715 64
f 715 716 714
f 63 64 715
f 715 717 63
f 669 671 814
f 773 722 719
f 718 719 722
f 718 717 719
f 720 200 202
f 860 1082 62
f 200 720 721
f 669 814 718
f 1228 1230 723
f 723 724 1228
f 1230 1226 725
f 725 723 1230
f 724 723 727
f 727 726 724
f 723 725 727
f 728 729 730
f 730 731 728
f 731 730 732
f 732 733 731
f 1226 728 731
f 731 725 1226
f 725 731 733
f 733 727 725
f 734 735 736
f 736 737 734
f 735 726 727
f 727 736 735
f 737 736 733
f 733 732 737
f 727 733 736
f 712 739 713
f 739 712 744
f 738 744 712
f 670 738 712
f 742 673 740
f 740 741 742
f 673 742 670
f 738 670 742
f 700 743 698
f 741 697 698
f 698 742 741
f 742 698 743
f 743 738 742
f 744 703 702
f 702 739 744
f 703 744 743
f 743 700 703
f 738 743 744
f 1269 746 745
f 629 745 746
f 629 934 745
f 934 933 745
f 747 1243 674
f 1243 747 807
f 750 671 669
f 669 752 710
f 719 717 753
f 753 761 719
f 754 753 717
f 753 754 1212
f 714 716 223
f 714 223 224
f 714 224 759
f 762 773 756
f 762 756 757
f 762 757 755
f 1219 764 755
f 773 719 760
f 760 756 773
f 756 760 758
f 758 757 756
f 757 758 755
f 755 758 1219
f 710 222 711
f 873 103 222
f 222 710 770
f 770 873 222
f 767 225 873
f 873 770 767
f 761 760 719
f 761 758 760
f 753 768 761
f 761 1219 758
f 769 770 710
f 710 752 769
f 754 766 1221
f 752 669 771
f 762 771 669
f 768 753 1212
f 1114 762 755
f 759 1213 714
f 761 768 1219
f 767 770 769
f 766 1220 1221
f 772 752 771
f 814 749 718
f 775 892 674
f 674 774 775
f 892 775 776
f 776 891 892
f 778 776 775
f 1241 1228 724
f 724 777 1241
f 777 724 726
f 726 778 777
f 774 1241 777
f 777 775 774
f 775 777 778
f 734 779 781
f 781 735 734
f 779 780 781
f 735 781 778
f 778 726 735
f 782 893 894
f 894 783 782
f 783 894 891
f 891 776 783
f 780 782 783
f 783 781 780
f 781 783 776
f 776 778 781
f 677 784 785
f 786 785 784
f 787 676 785
f 785 786 787
f 788 656 659
f 659 786 788
f 786 659 789
f 784 788 786
f 789 787 786
f 667 790 791
f 793 791 790
f 791 793 787
f 787 789 791
f 792 674 675
f 675 793 792
f 793 675 676
f 676 787 793
f 790 792 793
f 794 895 680
f 794 797 895
f 795 713 739
f 739 1001 795
f 795 794 680
f 794 795 1001
f 1001 739 702
f 796 988 799
f 690 688 1011
f 988 1011 688
f 688 799 988
f 687 798 799
f 799 688 687
f 800 799 798
f 798 679 800
f 796 799 800
f 840 804 802
f 802 801 840
f 801 802 803
f 151 803 802
f 805 1265 876
f 1265 805 803
f 803 151 1265
f 674 792 747
f 792 790 806
f 806 747 792
f 747 806 808
f 808 807 747
f 790 667 809
f 809 810 790
f 810 806 790
f 810 808 806
f 995 1223 810
f 810 809 995
f 1223 811 808
f 808 810 1223
f 811 1224 807
f 807 808 811
f 1001 702 1053
f 812 748 679
f 679 798 812
f 748 812 813
f 813 815 748
f 687 812 798
f 812 687 813
f 815 813 749
f 749 814 815
f 713 795 748
f 795 680 748
f 713 748 815
f 817 819 820
f 820 818 817
f 818 820 822
f 822 821 818
f 823 664 663
f 663 824 823
f 824 663 660
f 660 825 824
f 819 823 824
f 824 820 819
f 820 824 825
f 825 822 820
f 656 826 827
f 827 657 656
f 826 828 829
f 829 827 826
f 657 827 825
f 825 660 657
f 827 829 822
f 822 825 827
f 828 830 831
f 831 829 828
f 829 831 821
f 821 822 829
f 833 832 651
f 834 697 741
f 741 835 834
f 833 834 835
f 740 836 837
f 740 837 835
f 835 741 740
f 833 835 837
f 838 751 1257
f 1257 839 838
f 839 1257 832
f 836 838 839
f 839 837 836
f 837 839 832
f 832 833 837
f 840 842 843
f 843 841 840
f 844 1258 841
f 841 843 844
f 845 734 737
f 737 846 845
f 846 737 732
f 732 847 846
f 842 845 846
f 846 843 842
f 843 846 847
f 847 844 843
f 729 848 849
f 849 730 729
f 848 850 852
f 852 849 848
f 730 849 847
f 847 732 730
f 849 852 844
f 844 847 849
f 622 852 851
f 852 622 1258
f 1258 844 852
f 850 851 852
f 853 973 859
f 973 1005 860
f 860 859 973
f 708 204 718
f 706 854 855
f 706 855 708
f 202 855 720
f 855 202 204
f 204 708 855
f 854 720 855
f 720 854 856
f 856 721 720
f 721 856 859
f 859 62 721
f 854 706 682
f 682 857 854
f 857 682 685
f 685 858 857
f 857 856 854
f 856 857 858
f 858 859 856
f 694 853 858
f 858 695 694
f 859 858 853
f 858 685 695
f 859 860 62
f 861 210 851
f 851 850 862
f 862 861 851
f 210 861 863
f 863 1276 210
f 861 862 864
f 864 863 861
f 848 729 865
f 865 866 848
f 865 867 866
f 850 848 866
f 866 862 850
f 862 866 867
f 867 864 862
f 990 1225 867
f 867 865 990
f 1225 989 864
f 864 867 1225
f 868 590 213
f 868 213 1276
f 1276 863 868
f 989 868 863
f 863 864 989
f 869 954 890
f 954 869 889
f 870 889 869
f 870 956 957
f 870 957 889
f 751 838 871
f 871 219 751
f 838 836 871
f 219 871 872
f 872 220 219
f 836 740 672
f 671 872 672
f 672 871 836
f 871 672 872
f 872 671 750
f 220 872 92
f 750 92 872
f 221 873 225
f 873 221 103
f 1101 1215 874
f 578 874 1215
f 874 462 1101
f 830 828 878
f 878 877 830
f 879 1259 877
f 877 878 879
f 826 656 788
f 788 880 826
f 880 788 784
f 784 882 880
f 828 826 880
f 880 878 828
f 878 880 882
f 882 879 878
f 677 881 882
f 882 784 677
f 883 882 881
f 882 883 879
f 870 884 901
f 883 901 884
f 884 879 883
f 884 1259 879
f 885 962 886
f 237 912 887
f 888 887 912
f 891 676 892
f 678 894 893
f 894 678 676
f 676 891 894
f 895 800 680
f 800 895 797
f 797 796 800
f 680 679 748
f 897 902 893
f 902 897 896
f 896 903 902
f 898 870 901
f 898 901 903
f 903 896 898
f 955 899 886
f 962 910 886
f 955 886 910
f 901 883 903
f 677 902 881
f 881 903 883
f 903 881 902
f 902 677 893
f 898 896 904
f 904 805 898
f 897 893 782
f 897 782 780
f 780 905 897
f 896 897 905
f 905 904 896
f 734 845 906
f 906 779 734
f 845 842 907
f 907 906 845
f 779 906 905
f 905 780 779
f 906 907 904
f 904 905 906
f 842 840 801
f 801 907 842
f 907 801 803
f 803 904 907
f 904 803 805
f 869 890 908
f 869 908 884
f 870 869 884
f 876 898 805
f 875 886 899
f 876 875 899
f 870 900 956
f 899 955 900
f 900 870 876
f 876 899 900
f 876 870 898
f 884 908 1260
f 1260 908 269
f 908 890 1263
f 908 1263 1262
f 1262 269 908
f 269 1261 627
f 269 1262 1261
f 909 910 962
f 909 1272 911
f 912 911 1272
f 647 911 912
f 958 961 959
f 914 913 963
f 919 949 932
f 952 932 949
f 916 924 923
f 922 923 924
f 926 950 925
f 926 927 950
f 936 926 925
f 926 936 928
f 290 288 929
f 929 928 290
f 928 929 926
f 288 286 951
f 951 929 288
f 929 951 927
f 927 926 929
f 937 932 931
f 934 935 933
f 935 934 936
f 930 933 935
f 935 931 930
f 935 937 931
f 936 925 937
f 937 935 936
f 938 937 925
f 937 938 932
f 916 939 940
f 940 924 916
f 924 940 953
f 940 1269 745
f 745 941 940
f 941 953 940
f 933 930 942
f 942 941 933
f 941 745 933
f 941 942 953
f 964 960 945
f 964 945 1266
f 958 913 952
f 944 960 961
f 961 958 944
f 914 943 913
f 960 944 945
f 944 920 946
f 946 945 944
f 945 946 947
f 945 947 1267
f 1266 1267 634
f 1267 1266 945
f 913 948 952
f 949 958 952
f 944 919 920
f 919 944 949
f 958 949 944
f 910 916 923
f 923 914 910
f 914 923 943
f 922 943 923
f 943 921 948
f 943 922 921
f 948 913 943
f 950 946 920
f 946 950 947
f 920 925 950
f 927 947 950
f 286 634 951
f 947 927 951
f 1267 951 634
f 951 1267 947
f 948 930 952
f 931 952 930
f 952 931 932
f 925 920 938
f 919 938 920
f 938 919 932
f 953 922 924
f 930 948 921
f 921 942 930
f 942 921 922
f 922 953 942
f 959 889 957
f 889 959 954
f 914 955 910
f 900 963 956
f 963 900 955
f 955 914 963
f 322 627 1261
f 1261 966 322
f 966 1261 965
f 956 913 958
f 958 957 956
f 957 958 959
f 960 890 954
f 954 961 960
f 961 954 959
f 913 956 963
f 890 960 964
f 964 1263 890
f 1263 964 965
f 699 967 968
f 969 700 968
f 700 969 701
f 1088 974 986
f 986 975 1088
f 975 986 973
f 976 977 1088
f 977 978 1088
f 979 980 1088
f 978 979 1088
f 981 982 986
f 982 983 986
f 984 985 1005
f 1005 986 984
f 986 1005 973
f 983 984 986
f 967 699 987
f 987 1225 967
f 1225 987 1012
f 1012 989 1225
f 868 1058 590
f 1058 868 989
f 989 1012 1058
f 992 968 967
f 968 992 969
f 991 992 990
f 992 991 993
f 993 969 992
f 967 990 992
f 701 1231 1229
f 1231 701 969
f 969 993 1231
f 996 994 995
f 994 996 998
f 998 970 994
f 997 998 996
f 1236 999 1000
f 1000 1237 1236
f 1237 1000 998
f 998 997 1237
f 999 971 972
f 972 1000 999
f 1000 972 970
f 970 998 1000
f 1239 794 1001
f 797 1244 796
f 1244 797 794
f 794 1239 1244
f 971 999 1002
f 1003 973 1002
f 999 1236 1245
f 1245 1002 999
f 1002 1245 1003
f 975 1251 1088
f 1251 975 1003
f 973 1003 975
f 1088 1251 614
f 970 705 994
f 971 694 1004
f 1004 972 971
f 972 1004 705
f 705 970 972
f 694 971 853
f 985 860 1005
f 1006 1007 1082
f 1007 1008 1082
f 1009 1010 1082
f 1008 1009 1082
f 704 690 1011
f 834 987 699
f 987 834 1012
f 699 697 834
f 833 1012 834
f 1012 833 651
f 651 1058 1012
f 375 1013 371
f 1013 1014 371
f 1015 1016 371
f 1014 1015 371
f 371 1017 1088
f 371 1088 379
f 1018 1019 1088
f 1019 1020 1088
f 1021 1022 1088
f 1020 1021 1088
f 980 1034 1088
f 1034 1018 1088
f 1017 371 1023
f 1023 1024 1017
f 1023 1025 1024
f 371 1016 1028
f 1026 1027 371
f 371 1028 1026
f 1027 1025 1023
f 1023 371 1027
f 1029 1030 1052
f 1030 1031 1052
f 1032 1033 1034
f 1034 1037 1032
f 1031 1032 1037
f 1037 1052 1031
f 1035 1036 1037
f 1037 1038 1035
f 1036 1039 1052
f 1052 1037 1036
f 1037 1034 1038
f 1040 1041 1052
f 1039 1040 1052
f 1042 1043 1082
f 1043 1044 1082
f 1045 404 1082
f 1044 1045 1082
f 1047 1048 1082
f 1048 1049 1082
f 1050 1051 1082
f 1049 1050 1082
f 1051 1052 1082
f 1052 1006 1082
f 1229 1053 701
f 704 995 994
f 1053 1229 1001
f 1054 1055 986
f 1055 1056 986
f 1057 981 986
f 1056 1057 986
f 995 704 1011
f 1002 853 971
f 853 1002 973
f 974 1059 986
f 1059 1060 986
f 1061 1054 986
f 1060 1061 986
f 1033 1062 1034
f 1062 1063 1034
f 1064 1018 1034
f 1063 1064 1034
f 980 1065 1034
f 1065 1066 1034
f 1067 1035 1038
f 1038 1034 1067
f 1066 1067 1034
f 1041 1068 1052
f 1068 1069 1052
f 1070 1006 1052
f 1069 1070 1052
f 1051 1071 1052
f 1071 1072 1052
f 1073 1029 1052
f 1072 1073 1052
f 1082 1046 1074
f 1082 1074 1075
f 1082 1077 1076
f 1082 1075 1077
f 1016 1078 1028
f 1078 1079 1081
f 1081 1028 1078
f 1080 1042 1082
f 1082 1081 1080
f 1079 1080 1081
f 1076 1083 1082
f 1083 1084 1081
f 1081 1082 1083
f 1085 1026 1028
f 1084 1085 1028
f 1028 1081 1084
f 1022 1086 1088
f 1086 1087 1088
f 1089 974 1088
f 1087 1089 1088
f 985 1090 1082
f 1082 860 985
f 1090 1091 1082
f 1092 1047 1082
f 1091 1092 1082
f 1017 1093 1088
f 1093 1094 1088
f 377 379 1088
f 1095 976 1088
f 1094 1095 1088
f 1010 1096 1082
f 1096 1097 1082
f 1098 1046 1082
f 1097 1098 1082
f 1211 1165 1111
f 1111 1110 1212
f 1111 1212 1211
f 1100 1220 1101
f 1165 1106 463
f 1220 1100 1106
f 1100 463 1106
f 1102 1113 1103
f 816 1102 1104
f 1103 1104 1102
f 1116 1103 1113
f 1116 1104 1103
f 1165 463 465
f 1113 1137 1116
f 816 1112 1102
f 1112 816 1105
f 1113 1102 1112
f 461 1107 1099
f 1108 1109 472
f 1109 1108 767
f 767 1099 1109
f 1107 472 1109
f 1107 1109 1099
f 1111 1112 1110
f 1137 1113 1111
f 1112 1105 1110
f 1112 1111 1113
f 1099 767 763
f 1099 1115 461
f 1220 1106 1221
f 1165 1221 1106
f 1221 1165 1211
f 1104 1116 1115
f 1104 772 1114
f 1115 772 1104
f 1099 763 1115
f 772 1115 763
f 472 471 1108
f 1100 1101 462
f 461 477 1107
f 472 1107 477
f 1115 1117 1118
f 1115 1118 1119
f 1115 1121 1120
f 1115 1119 1121
f 1165 1122 1123
f 1165 1123 1124
f 1124 1111 1165
f 1125 1137 1111
f 1111 1126 1125
f 1111 1124 1126
f 461 1127 1128
f 461 1128 1129
f 461 1131 1130
f 461 1129 1131
f 1165 1132 1133
f 1165 1133 1134
f 1165 1136 1135
f 1165 1134 1136
f 1137 1138 1139
f 1137 1139 1140
f 1140 1116 1137
f 1116 1142 1141
f 1116 1140 1142
f 1116 1143 1144
f 1116 1144 1145
f 1116 1147 1146
f 1116 1145 1147
f 1116 1148 1149
f 1116 1149 1150
f 1116 1152 1151
f 1116 1150 1152
f 1165 1153 1154
f 1165 1154 1155
f 1165 1156 1132
f 1165 1155 1156
f 1137 1157 1158
f 1137 1158 1159
f 1137 1160 1138
f 1137 1159 1160
f 1165 1135 1161
f 1165 1161 1162
f 1165 1164 1163
f 1165 1162 1164
f 461 1166 1167
f 461 1167 1168
f 461 1169 1127
f 461 1168 1169
f 1137 1125 1170
f 1137 1170 1171
f 1137 1172 1157
f 1137 1171 1172
f 1115 1120 1173
f 1115 1173 1174
f 461 1175 1166
f 1175 461 1115
f 1115 1174 1175
f 1165 1163 1176
f 1165 1176 1177
f 1165 1178 1122
f 1165 1177 1178
f 1116 1179 1180
f 1116 1180 1181
f 1116 1182 1143
f 1116 1181 1182
f 1116 1146 1183
f 1116 1183 1184
f 1116 1186 1185
f 1116 1184 1186
f 1116 1185 1187
f 1187 1115 1116
f 1115 1187 1188
f 1115 1189 1117
f 1115 1188 1189
f 1116 1190 1191
f 1116 1191 1192
f 1116 1193 1179
f 1116 1192 1193
f 1116 1141 1194
f 1116 1194 1195
f 1116 1196 1148
f 1116 1195 1196
f 461 1130 1197
f 461 1197 1198
f 461 1200 1199
f 461 1198 1200
f 1165 1201 1202
f 1165 1202 1203
f 1165 1204 1153
f 1165 1203 1204
f 1116 1151 1205
f 1116 1205 1206
f 1116 1207 1190
f 1116 1206 1207
f 461 1199 1208
f 461 1208 1209
f 461 1210 572
f 461 1209 1210
f 763 752 772
f 763 769 752
f 1212 754 1221
f 1211 1212 1221
f 1101 1213 1215
f 1213 1101 1220
f 578 1215 1213
f 755 764 1114
f 764 1214 1114
f 765 816 1104
f 1104 1114 765
f 1214 765 1114
f 579 1213 759
f 578 1213 579
f 816 765 1216
f 1216 1105 816
f 765 1214 1219
f 1219 1216 765
f 764 1219 1214
f 1220 714 1213
f 1220 766 714
f 1108 1217 767
f 1217 1218 767
f 1218 225 767
f 1110 768 1212
f 1105 1216 768
f 768 1110 1105
f 1216 1219 768
f 769 763 767
f 762 1114 771
f 772 771 1114
f 225 1218 583
f 1108 1222 1217
f 1222 1108 471
f 1218 1217 1222
f 1222 583 1218
f 583 577 225
f 988 811 1223
f 1011 1223 995
f 1223 1011 988
f 796 1224 988
f 811 988 1224
f 990 967 1225
f 990 865 1227
f 1227 991 990
f 991 1227 1226
f 1226 993 991
f 865 729 728
f 728 1227 865
f 1227 728 1226
f 1228 1229 1230
f 1231 1230 1229
f 1230 1231 993
f 993 1226 1230
f 995 809 1232
f 1232 996 995
f 996 1232 997
f 809 667 1232
f 1233 997 1232
f 664 1234 1235
f 1235 665 664
f 1234 1236 1237
f 1237 1235 1234
f 665 1235 1233
f 1235 1237 997
f 997 1233 1235
f 1238 1001 1229
f 1001 1238 1239
f 1240 1239 1238
f 774 1242 1241
f 1229 1228 1241
f 1241 1238 1229
f 1238 1241 1242
f 1242 1240 1238
f 1243 807 1240
f 674 1243 1242
f 1242 774 674
f 1240 1242 1243
f 1224 796 1244
f 807 1224 1244
f 1244 1240 807
f 1240 1244 1239
f 1246 1003 1245
f 1234 664 823
f 823 1247 1234
f 1247 823 819
f 819 1248 1247
f 1236 1234 1247
f 1247 1245 1236
f 1245 1247 1248
f 1248 1246 1245
f 817 1249 1248
f 1248 819 817
f 1249 1250 1246
f 1246 1248 1249
f 1250 1251 1003
f 1003 1246 1250
f 1251 1250 1252
f 1252 614 1251
f 817 617 1249
f 617 817 1253
f 1250 1249 617
f 617 1252 1250
f 818 167 817
f 167 818 821
f 821 1254 167
f 1253 817 167
f 830 1255 1256
f 1256 831 830
f 831 1256 1254
f 1254 821 831
f 618 1256 619
f 1256 618 1254
f 1255 619 1256
f 804 840 841
f 841 621 804
f 621 841 1258
f 619 1255 626
f 1255 830 877
f 877 626 1255
f 626 877 1259
f 884 1260 1259
f 1263 965 1262
f 1261 1262 965
f 290 928 1264
f 934 1264 928
f 928 936 934
f 934 629 1264
f 887 630 237
f 887 888 875
f 630 887 631
f 887 875 631
f 885 886 875
f 876 631 875
f 888 885 875
f 876 1265 631
f 966 1266 322
f 966 965 964
f 964 1266 966
f 636 746 1268
f 1268 635 636
f 1269 940 939
f 939 1270 1269
f 1269 1268 746
f 1268 1269 1270
f 916 915 1270
f 1270 939 916
f 915 917 1271
f 1271 1270 915
f 1270 1271 1268
f 918 639 635
f 635 1271 918
f 635 1268 1271
f 917 918 1271
f 911 272 918
f 917 911 918
f 910 909 915
f 909 911 917
f 917 915 909
f 911 647 272
f 915 916 910
f 912 1272 888
f 962 885 909
f 1272 909 885
f 885 888 1272
f 912 237 647
f 651 590 1058
f 652 1273 1165
f 1273 1274 1165
f 1275 1201 1165
f 1274 1275 1165
