# USD → MuJoCo (world-space, simplified)
v 1.268697 7.238626 0.096830
v 1.270752 7.248378 0.098052
v 1.271371 7.247002 0.098025
v 1.270745 7.245287 0.098029
v 1.269411 7.244640 0.098028
v 1.270378 7.243505 0.098034
v 1.270294 7.241875 0.098038
v 1.269191 7.241654 0.098038
v 1.269278 7.240396 0.098071
v 1.270419 7.240210 0.098042
v 1.270955 7.238049 0.098048
v 1.270375 7.236591 0.098004
v 1.271856 7.236079 0.098053
v 1.271067 7.235054 0.098082
v 1.271906 7.234025 0.098058
v 1.272687 7.232980 0.098096
v 1.273381 7.233937 0.098058
v 1.274910 7.231193 0.098065
v 1.275063 7.232443 0.098062
v 1.276062 7.231766 0.098064
v 1.275943 7.230510 0.098107
v 1.277139 7.231184 0.098066
v 1.278594 7.229447 0.098070
v 1.279013 7.230454 0.098068
v 1.281206 7.230066 0.098069
v 1.277368 7.229793 0.098092
v 1.279815 7.229136 0.098106
v 1.282632 7.228919 0.098072
v 1.283236 7.230042 0.098069
v 1.285639 7.229300 0.098065
v 1.285630 7.230475 0.098068
v 1.287757 7.230051 0.098102
v 1.288066 7.231469 0.098066
v 1.289605 7.232502 0.098063
v 1.290322 7.231654 0.098065
v 1.291297 7.232409 0.098093
v 1.292395 7.233565 0.098093
v 1.290814 7.233538 0.098061
v 1.293113 7.234606 0.098058
v 1.292233 7.235264 0.098056
v 1.294866 7.238281 0.098049
v 1.293137 7.236849 0.098052
v 1.293862 7.238735 0.098047
v 1.295249 7.239527 0.098074
v 1.294212 7.240538 0.098043
v 1.295406 7.242374 0.098038
v 1.294300 7.241748 0.098040
v 1.295278 7.244435 0.098065
v 1.294219 7.243556 0.098035
v 1.293878 7.245168 0.098031
v 1.294641 7.246433 0.098028
v 1.293301 7.246869 0.098027
v 1.294232 7.247601 0.098046
v 1.292195 7.248811 0.098022
v 1.292005 7.250894 0.098033
v 1.290649 7.250675 0.098017
v 1.288873 7.252049 0.098013
v 1.288763 7.253427 0.098046
v 1.287472 7.252848 0.098011
v 1.285580 7.253561 0.098009
v 1.286007 7.254580 0.098006
v 1.284787 7.254934 0.098035
v 1.283982 7.253890 0.098008
v 1.283215 7.255226 0.098004
v 1.287221 7.254221 0.098035
v 1.282379 7.254017 0.098008
v 1.281901 7.255107 0.098005
v 1.280746 7.253908 0.098008
v 1.279100 7.254781 0.098033
v 1.279731 7.253728 0.098008
v 1.277913 7.254360 0.098006
v 1.278196 7.253303 0.098009
v 1.276701 7.253943 0.098038
v 1.276527 7.252531 0.098011
v 1.274329 7.252417 0.098011
v 1.275165 7.251673 0.098013
v 1.273502 7.250198 0.098017
v 1.272255 7.248592 0.098021
v 1.270115 7.248892 0.093307
v 1.270930 7.248505 0.093309
v 1.270043 7.248773 0.096795
v 1.295879 7.245411 0.096805
v 1.296036 7.244728 0.096808
v 1.295827 7.245457 0.035829
v 1.295844 7.245504 0.079181
v 1.295843 7.245544 0.093321
v 1.295729 7.245804 0.035828
v 1.295692 7.245893 0.023323
v 1.295730 7.245777 0.026400
v 1.295494 7.246674 0.079178
v 1.295420 7.246706 0.023320
v 1.295081 7.247520 0.023319
v 1.295042 7.247757 0.079176
v 1.295027 7.247648 0.026399
v 1.295026 7.247675 0.035823
v 1.294978 7.247942 0.096799
v 1.294589 7.248719 0.096798
v 1.294578 7.248580 0.035821
v 1.294031 7.249476 0.035818
v 1.294085 7.249512 0.079171
v 1.293563 7.250154 0.035817
v 1.293483 7.250221 0.023312
v 1.293561 7.250125 0.026391
v 1.292960 7.250879 0.023309
v 1.293386 7.250523 0.079168
v 1.292625 7.251407 0.079166
v 1.292352 7.251541 0.023309
v 1.292523 7.251566 0.096789
v 1.292227 7.251873 0.096789
v 1.292260 7.251643 0.026392
v 1.292259 7.251670 0.035813
v 1.291701 7.252210 0.035811
v 1.291299 7.252739 0.096794
v 1.291172 7.252781 0.079162
v 1.291171 7.252821 0.093299
v 1.290541 7.253273 0.079161
v 1.290717 7.253021 0.035809
v 1.290035 7.253498 0.035808
v 1.289927 7.253538 0.023305
v 1.289498 7.252636 0.021685
v 1.289203 7.254141 0.079159
v 1.288985 7.254094 0.023300
v 1.289067 7.254260 0.096782
v 1.288308 7.254644 0.096781
v 1.288411 7.254386 0.023301
v 1.288293 7.254452 0.026381
v 1.288292 7.254479 0.035805
v 1.287531 7.254990 0.096779
v 1.287727 7.254729 0.035805
v 1.287391 7.254990 0.079156
v 1.286431 7.255333 0.079155
v 1.286593 7.255158 0.035803
v 1.285576 7.255436 0.035803
v 1.285450 7.255430 0.023298
v 1.285577 7.255409 0.026378
v 1.285096 7.255669 0.079155
v 1.284590 7.255603 0.023295
v 1.284948 7.255746 0.096778
v 1.284302 7.255857 0.096779
v 1.283683 7.255930 0.096778
v 1.283734 7.255714 0.023297
v 1.283604 7.255736 0.026377
v 1.283603 7.255763 0.035802
v 1.283258 7.255966 0.096777
v 1.283192 7.255795 0.035801
v 1.283112 7.255924 0.079154
v 1.283111 7.255966 0.093291
v 1.282067 7.255953 0.079154
v 1.282208 7.255830 0.035801
v 1.280723 7.255739 0.035801
v 1.280719 7.255861 0.079154
v 1.280570 7.255892 0.096777
v 1.280594 7.255682 0.023297
v 1.279726 7.255764 0.096781
v 1.279735 7.255555 0.023297
v 1.278895 7.255579 0.096778
v 1.278885 7.255363 0.023298
v 1.278752 7.255532 0.093291
v 1.278753 7.255492 0.079155
v 1.278757 7.255367 0.035802
v 1.277653 7.255167 0.079155
v 1.277531 7.254998 0.035803
v 1.276498 7.254690 0.079156
v 1.276060 7.254358 0.035805
v 1.276359 7.254681 0.096781
v 1.275944 7.254261 0.023301
v 1.280724 7.255707 0.026377
v 1.278757 7.255340 0.026378
v 1.275437 7.254205 0.096782
v 1.275190 7.253850 0.023298
v 1.274865 7.253864 0.096782
v 1.274740 7.253775 0.093295
v 1.274447 7.253377 0.023303
v 1.274740 7.253736 0.079159
v 1.274339 7.253312 0.026383
v 1.274338 7.253339 0.035807
v 1.273622 7.252946 0.079161
v 1.273489 7.252713 0.035809
v 1.272844 7.252276 0.079162
v 1.272587 7.251904 0.035811
v 1.272729 7.252227 0.096785
v 1.272151 7.251467 0.035812
v 1.272152 7.251440 0.026387
v 1.272062 7.251336 0.023308
v 1.271636 7.250859 0.023307
v 1.271560 7.251001 0.096799
v 1.271468 7.250865 0.093303
v 1.271470 7.250824 0.079166
v 1.271101 7.250352 0.079167
v 1.270955 7.249999 0.023313
v 1.270881 7.249923 0.035816
v 1.270882 7.249896 0.026388
v 1.270527 7.249537 0.079169
v 1.270419 7.249237 0.035817
v 1.270117 7.248851 0.079171
v 1.269796 7.248129 0.035820
v 1.269666 7.248050 0.096798
v 1.269466 7.247416 0.035822
v 1.269409 7.247258 0.023319
v 1.269467 7.247389 0.026396
v 1.269258 7.247046 0.079175
v 1.269311 7.247235 0.096799
v 1.269257 7.247087 0.093312
v 1.269024 7.246231 0.023320
v 1.268837 7.245622 0.023322
v 1.268933 7.246145 0.079178
v 1.268802 7.245505 0.026402
v 1.268790 7.245534 0.035827
v 1.268579 7.244753 0.079181
v 1.268420 7.243703 0.035831
v 1.268551 7.244658 0.096805
v 1.268413 7.243836 0.096809
v 1.268331 7.242970 0.096809
v 1.268329 7.242693 0.035834
v 1.268322 7.242812 0.093323
v 1.268323 7.242771 0.079186
v 1.268323 7.242527 0.023330
v 1.268330 7.242666 0.026414
v 1.268293 7.241788 0.079189
v 1.268301 7.241647 0.023331
v 1.268341 7.240789 0.023334
v 1.268350 7.240777 0.079191
v 1.268350 7.240695 0.035839
v 1.268350 7.240668 0.026415
v 1.268422 7.239992 0.035841
v 1.268389 7.240380 0.079192
v 1.268403 7.240283 0.096816
v 1.268388 7.240421 0.093330
v 1.268580 7.244793 0.093318
v 1.272843 7.252316 0.093301
v 1.276860 7.254064 0.093298
v 1.280718 7.255899 0.093290
v 1.287050 7.254316 0.093281
v 1.289197 7.254173 0.093295
v 1.292624 7.251448 0.093297
v 1.294084 7.249553 0.093308
v 1.294163 7.249437 0.096795
v 1.295040 7.247797 0.093312
v 1.296194 7.243738 0.096809
v 1.295323 7.243414 0.093321
v 1.296210 7.243580 0.093333
v 1.296076 7.244400 0.035832
v 1.296211 7.243539 0.079186
v 1.296260 7.242976 0.035835
v 1.296308 7.242321 0.079190
v 1.296309 7.241952 0.023332
v 1.296277 7.241149 0.079193
v 1.296286 7.241072 0.023336
v 1.296276 7.241189 0.093329
v 1.296278 7.240977 0.035840
v 1.296270 7.241050 0.096816
v 1.296165 7.239782 0.035843
v 1.296061 7.239381 0.096826
v 1.296021 7.239167 0.079198
v 1.296018 7.239208 0.093328
v 1.295810 7.238137 0.035848
v 1.295668 7.237779 0.079201
v 1.295781 7.237967 0.023335
v 1.295358 7.236741 0.023347
v 1.295342 7.236873 0.079203
v 1.295286 7.236786 0.096827
v 1.295341 7.236914 0.093340
v 1.295141 7.236254 0.035852
v 1.295194 7.236338 0.023348
v 1.295142 7.236227 0.026429
v 1.294813 7.235543 0.035854
v 1.294932 7.235973 0.096831
v 1.294554 7.235249 0.096831
v 1.294484 7.235068 0.079208
v 1.294482 7.235109 0.093345
v 1.294183 7.234426 0.035857
v 1.294074 7.234385 0.079210
v 1.293727 7.233747 0.035859
v 1.293499 7.233567 0.079212
v 1.293654 7.233600 0.023357
v 1.293131 7.233096 0.079213
v 1.293129 7.233136 0.093350
v 1.293036 7.233028 0.096836
v 1.292560 7.232262 0.023348
v 1.292468 7.232396 0.096838
v 1.292457 7.232176 0.026438
v 1.292457 7.232203 0.035863
v 1.291868 7.231794 0.096839
v 1.292020 7.231766 0.035864
v 1.291756 7.231644 0.079217
v 1.291755 7.231685 0.093355
v 1.291108 7.230949 0.035866
v 1.290981 7.230976 0.079218
v 1.290269 7.230332 0.035867
v 1.289860 7.230184 0.079220
v 1.290161 7.230216 0.023364
v 1.289448 7.230978 0.093362
v 1.289732 7.230157 0.096844
v 1.289252 7.229653 0.023364
v 1.288998 7.229724 0.096848
v 1.288665 7.229338 0.023365
v 1.288547 7.229315 0.035870
v 1.288548 7.229288 0.026445
v 1.288236 7.229342 0.096846
v 1.288175 7.229137 0.035870
v 1.288101 7.229270 0.093359
v 1.288102 7.229230 0.079222
v 1.287082 7.228674 0.035871
v 1.286943 7.228751 0.079224
v 1.285851 7.228303 0.035872
v 1.285847 7.228428 0.079224
v 1.285846 7.228469 0.093360
v 1.285725 7.228235 0.023368
v 1.285702 7.228442 0.096848
v 1.284874 7.228044 0.023368
v 1.284871 7.228258 0.096851
v 1.284016 7.227916 0.023369
v 1.284027 7.228129 0.096849
v 1.283881 7.228061 0.079225
v 1.283885 7.227937 0.035873
v 1.282743 7.227968 0.079225
v 1.282612 7.227839 0.035873
v 1.281488 7.227995 0.079225
v 1.281415 7.227875 0.035873
v 1.281339 7.228055 0.096849
v 1.283880 7.228102 0.093362
v 1.281589 7.228822 0.093350
v 1.281004 7.227908 0.035873
v 1.280699 7.228113 0.096850
v 1.280875 7.227884 0.023368
v 1.280443 7.227935 0.023368
v 1.279653 7.228270 0.096847
v 1.279825 7.228031 0.023366
v 1.279504 7.228294 0.093360
v 1.279504 7.228251 0.079224
v 1.279160 7.228168 0.023368
v 1.279031 7.228235 0.035872
v 1.279032 7.228208 0.026447
v 1.278018 7.228511 0.035871
v 1.278177 7.228585 0.079223
v 1.277209 7.228930 0.079222
v 1.276880 7.228941 0.035870
v 1.277066 7.229032 0.096845
v 1.277207 7.228970 0.093359
v 1.276315 7.229191 0.035869
v 1.276316 7.229164 0.026445
v 1.276097 7.229468 0.096846
v 1.276187 7.229207 0.023355
v 1.275530 7.229766 0.096844
v 1.274682 7.230061 0.023364
v 1.275397 7.229779 0.079220
v 1.274550 7.230163 0.035866
v 1.274058 7.230648 0.079218
v 1.273428 7.231139 0.079216
v 1.273255 7.231161 0.035864
v 1.273312 7.231285 0.096840
v 1.273426 7.231180 0.093353
v 1.272702 7.231820 0.096840
v 1.272770 7.231589 0.035863
v 1.272348 7.232000 0.035862
v 1.272257 7.232058 0.023357
v 1.271975 7.232513 0.079213
v 1.271654 7.232714 0.023354
v 1.271470 7.233089 0.079211
v 1.271044 7.233517 0.035858
v 1.271126 7.233377 0.023354
v 1.271047 7.233491 0.026436
v 1.272074 7.232455 0.096837
v 1.271974 7.232553 0.093349
v 1.270507 7.234401 0.079208
v 1.270434 7.234584 0.096831
v 1.270514 7.234449 0.093346
v 1.270120 7.234921 0.035854
v 1.270009 7.235301 0.096831
v 1.269582 7.235995 0.035851
v 1.269619 7.236079 0.096827
v 1.269557 7.236204 0.093340
v 1.269558 7.236163 0.079203
v 1.269169 7.237083 0.079201
v 1.269528 7.236079 0.023347
v 1.269190 7.236889 0.023343
v 1.268917 7.237705 0.023342
v 1.268878 7.237866 0.035846
v 1.268879 7.237839 0.026422
v 1.268753 7.238415 0.079197
v 1.268755 7.238457 0.093329
v 1.268641 7.238754 0.035844
v 1.269582 7.235969 0.026427
v 1.272349 7.231973 0.026436
v 1.281005 7.227880 0.026448
v 1.283773 7.228854 0.021744
v 1.285851 7.228276 0.026448
v 1.290270 7.230305 0.026441
v 1.293134 7.234207 0.026431
v 1.296279 7.240950 0.026416
v 1.296266 7.242873 0.023452
v 1.294790 7.245452 0.035829
v 1.295319 7.242998 0.035835
v 1.295316 7.241925 0.021694
v 1.295256 7.242938 0.026409
v 1.295102 7.244184 0.021695
v 1.294487 7.246363 0.021682
v 1.294791 7.245425 0.026407
v 1.271750 7.243939 0.021694
v 1.269468 7.243952 0.021694
v 1.269324 7.240865 0.021700
v 1.269503 7.239433 0.021706
v 1.271627 7.237172 0.021755
v 1.274367 7.249316 0.021681
v 1.272776 7.250654 0.021675
v 1.273836 7.251673 0.021675
v 1.275012 7.252554 0.021671
v 1.277757 7.253981 0.021669
v 1.279917 7.254576 0.021663
v 1.282174 7.254801 0.021667
v 1.283864 7.254714 0.021658
v 1.286631 7.254062 0.021669
v 1.287985 7.253485 0.021670
v 1.290860 7.251585 0.021676
v 1.292188 7.250250 0.021672
v 1.293528 7.248384 0.021685
v 1.294014 7.242408 0.021700
v 1.294908 7.238257 0.021722
v 1.292458 7.236229 0.021716
v 1.294283 7.236729 0.021713
v 1.293629 7.235380 0.021718
v 1.292848 7.234169 0.021718
v 1.287504 7.231319 0.021728
v 1.286909 7.229629 0.021732
v 1.282402 7.228789 0.021734
v 1.280969 7.228869 0.021732
v 1.279330 7.229053 0.021745
v 1.280327 7.230299 0.021730
v 1.276734 7.230053 0.021742
v 1.274808 7.232961 0.021723
v 1.273043 7.232659 0.021725
v 1.271929 7.233968 0.021720
v 1.271097 7.235178 0.021717
v 1.269873 7.237985 0.021708
v 1.271673 7.249428 0.021685
v 1.271581 7.249292 0.035812
v 1.270412 7.247084 0.035823
v 1.270366 7.246939 0.021701
v 1.269747 7.245172 0.026403
v 1.269789 7.245357 0.021688
v 1.269332 7.242703 0.035834
v 1.269672 7.245188 0.035828
v 1.269322 7.242463 0.021698
v 1.269333 7.242676 0.026408
v 1.269353 7.240678 0.026415
v 1.269352 7.240705 0.035839
v 1.269747 7.238209 0.035845
v 1.269818 7.238191 0.026421
v 1.270521 7.236320 0.026426
v 1.270433 7.236488 0.021711
v 1.270508 7.236341 0.035850
v 1.271786 7.234154 0.035856
v 1.271809 7.234143 0.026431
v 1.275039 7.231022 0.035861
v 1.273100 7.232642 0.035860
v 1.275102 7.230883 0.021740
v 1.279163 7.229231 0.035774
v 1.276805 7.229989 0.035867
v 1.281169 7.228869 0.026446
v 1.281169 7.228896 0.035870
v 1.283698 7.228851 0.035870
v 1.285667 7.229261 0.026445
v 1.285474 7.229197 0.021733
v 1.288037 7.230177 0.035867
v 1.285709 7.229229 0.035870
v 1.288144 7.230182 0.021735
v 1.289744 7.231051 0.021741
v 1.289759 7.231194 0.035865
v 1.291724 7.232784 0.035861
v 1.291763 7.232880 0.021742
v 1.292952 7.234384 0.035857
v 1.294196 7.236587 0.035851
v 1.293653 7.235471 0.035854
v 1.294196 7.236560 0.026429
v 1.295275 7.240967 0.035840
v 1.294936 7.238489 0.035839
v 1.295276 7.240940 0.026405
v 1.272926 7.250803 0.026389
v 1.274849 7.252449 0.026385
v 1.274848 7.252476 0.035809
v 1.272884 7.250886 0.035813
v 1.276498 7.253450 0.021688
v 1.278942 7.254355 0.026380
v 1.278941 7.254382 0.035805
v 1.276549 7.253560 0.035807
v 1.280908 7.254722 0.026378
v 1.283440 7.254747 0.026380
v 1.283439 7.254775 0.035804
v 1.280911 7.254817 0.035804
v 1.285413 7.254420 0.026382
v 1.287801 7.253579 0.026383
v 1.287800 7.253606 0.035807
v 1.286629 7.254098 0.035806
v 1.285412 7.254447 0.035805
v 1.291499 7.250991 0.026390
v 1.291498 7.251019 0.035814
v 1.289589 7.252676 0.035810
v 1.292800 7.249474 0.026390
v 1.294088 7.247296 0.026404
v 1.294087 7.247323 0.035824
v 1.293495 7.248473 0.035821
v 1.292799 7.249501 0.035818
v 1.275258 7.232616 0.022056
v 1.280327 7.230329 0.022271
v 1.286929 7.231091 0.022539
v 1.291779 7.235082 0.022766
v 1.293657 7.244209 0.023118
v 1.293644 7.239573 0.022953
v 1.292187 7.247284 0.023240
v 1.291739 7.248549 0.021684
v 1.289155 7.250659 0.023423
v 1.286965 7.252508 0.021665
v 1.286366 7.252674 0.023549
v 1.280724 7.253296 0.023767
v 1.278962 7.252903 0.021955
v 1.275848 7.251320 0.022096
v 1.272748 7.248386 0.022263
v 1.275807 7.251380 0.023984
v 1.272750 7.248291 0.024154
v 1.271533 7.245859 0.024270
v 1.270700 7.242176 0.024433
v 1.272254 7.235855 0.024694
v 1.274172 7.233516 0.022937
v 1.277011 7.231505 0.024967
v 1.283380 7.230280 0.023333
v 1.285329 7.230668 0.025300
v 1.289156 7.232379 0.023571
v 1.289157 7.232472 0.025463
v 1.292636 7.236571 0.023770
v 1.293792 7.240131 0.025802
v 1.293863 7.241150 0.023953
v 1.293235 7.245893 0.026005
v 1.290414 7.250035 0.026196
v 1.289762 7.250640 0.024344
v 1.286312 7.252709 0.026379
v 1.276054 7.251582 0.026799
v 1.273882 7.249678 0.025022
v 1.272635 7.248171 0.026986
v 1.271883 7.246801 0.025166
v 1.271188 7.244905 0.027141
v 1.270935 7.243654 0.025309
v 1.270895 7.239509 0.025480
v 1.271414 7.237795 0.027434
v 1.270778 7.241847 0.027271
v 1.273673 7.234158 0.027617
v 1.277107 7.231461 0.025913
v 1.276668 7.231715 0.027779
v 1.281817 7.230214 0.027984
v 1.281852 7.230253 0.026099
v 1.286058 7.230927 0.028158
v 1.285974 7.230863 0.026268
v 1.288918 7.232341 0.028281
v 1.290105 7.233173 0.026443
v 1.292312 7.235873 0.028455
v 1.293381 7.238295 0.026670
v 1.293775 7.240466 0.028641
v 1.293795 7.242886 0.026842
v 1.293507 7.244415 0.028787
v 1.291996 7.248234 0.028929
v 1.288756 7.251374 0.029104
v 1.283605 7.253398 0.027421
v 1.278429 7.252681 0.027635
v 1.283806 7.253437 0.029297
v 1.276781 7.251890 0.027708
v 1.276474 7.251723 0.029608
v 1.276288 7.251603 0.027731
v 1.275946 7.251390 0.029634
v 1.275517 7.251088 0.027766
v 1.273858 7.249682 0.027850
v 1.278234 7.252603 0.029529
v 1.274933 7.250645 0.029682
v 1.272423 7.247969 0.029827
v 1.270789 7.243366 0.028151
v 1.270683 7.242337 0.030082
v 1.271387 7.238065 0.030254
v 1.273435 7.234378 0.030431
v 1.282693 7.230283 0.028959
v 1.282350 7.230182 0.030832
v 1.287196 7.231384 0.031033
v 1.289947 7.233118 0.029266
v 1.290314 7.233520 0.031171
v 1.291896 7.235466 0.031261
v 1.291153 7.234992 0.029342
v 1.293722 7.244034 0.031594
v 1.292111 7.247847 0.031743
v 1.290495 7.250013 0.029960
v 1.286352 7.252670 0.030145
v 1.285683 7.252917 0.032057
v 1.281706 7.253329 0.032210
v 1.273836 7.249740 0.030677
v 1.273369 7.249213 0.032589
v 1.271054 7.244522 0.032814
v 1.271854 7.236766 0.031250
v 1.270807 7.241081 0.032959
v 1.274936 7.232913 0.033348
v 1.277864 7.231208 0.033483
v 1.281718 7.230263 0.033635
v 1.285338 7.230672 0.031895
v 1.286335 7.231006 0.033824
v 1.290685 7.233939 0.032131
v 1.289546 7.232831 0.033961
v 1.291424 7.234808 0.034058
v 1.292247 7.235979 0.032226
v 1.293150 7.237826 0.034190
v 1.293747 7.243699 0.032521
v 1.293921 7.242705 0.034376
v 1.291710 7.248601 0.034602
v 1.289773 7.250595 0.032823
v 1.279445 7.253008 0.033245
v 1.276651 7.251860 0.033368
v 1.273253 7.249181 0.033534
v 1.272761 7.248510 0.035454
v 1.270756 7.242680 0.035722
v 1.271557 7.237397 0.035857
v 1.272387 7.235870 0.034120
v 1.273957 7.233900 0.035857
v 1.277530 7.231208 0.035864
v 1.282836 7.230305 0.035867
v 1.287684 7.231492 0.035864
v 1.292380 7.235961 0.035853
v 1.293911 7.241926 0.035838
v 1.290043 7.250578 0.035685
v 1.287848 7.231631 0.034829
v 1.282016 7.230229 0.034586
v 1.276197 7.231915 0.034354
v 1.270864 7.243720 0.033791
v 1.285374 7.253113 0.033011
v 1.292175 7.247868 0.032682
v 1.288810 7.232306 0.032043
v 1.280221 7.230438 0.031687
v 1.270766 7.241421 0.031059
v 1.277986 7.252548 0.030480
v 1.293507 7.238681 0.029513
v 1.273139 7.234729 0.028524
v 1.271204 7.238605 0.028343
v 1.289110 7.251143 0.027203
v 1.292391 7.247624 0.027015
v 1.273167 7.234668 0.025699
v 1.276812 7.251974 0.024878
v 1.281609 7.253344 0.024673
v 1.292867 7.246593 0.024147
v 1.278752 7.230792 0.023150
v 1.271325 7.237999 0.022711
v 1.270822 7.243222 0.022502
v 1.276833 7.251984 0.035246
v 1.280863 7.253340 0.035071
v 1.287227 7.251432 0.034813
v 1.287249 7.252427 0.034825
v 1.280023 7.231239 0.033560
v 1.271677 7.237082 0.033120
v 1.275124 7.233771 0.033329
v 1.272306 7.246152 0.032728
v 1.276436 7.250906 0.032458
v 1.277676 7.252459 0.032381
v 1.290106 7.250376 0.031868
v 1.293435 7.238618 0.031396
v 1.290875 7.235293 0.031837
v 1.277052 7.231541 0.030624
v 1.274520 7.249279 0.029731
v 1.280562 7.231204 0.027926
v 1.276620 7.232664 0.027756
v 1.272767 7.236589 0.027504
v 1.271564 7.241411 0.027293
v 1.275845 7.250360 0.026835
v 1.280856 7.253316 0.026590
v 1.293066 7.244043 0.025944
v 1.281733 7.230272 0.025154
v 1.272880 7.247182 0.024193
v 1.277919 7.251781 0.023902
v 1.283126 7.252498 0.023670
v 1.291017 7.235408 0.022758
v 1.272004 7.238236 0.021736
v 1.275514 7.233422 0.022042
v 1.280130 7.231208 0.022255
v 1.286276 7.231676 0.022522
v 1.292910 7.239878 0.022959
v 1.292708 7.244686 0.023143
v 1.271486 7.241384 0.024466
v 1.272983 7.236366 0.024691
v 1.277367 7.232084 0.024968
v 1.282274 7.231087 0.025173
v 1.286032 7.231681 0.025339
v 1.290382 7.234615 0.025544
v 1.291555 7.234918 0.025581
v 1.288206 7.251052 0.026291
v 1.280340 7.252555 0.026617
v 1.278221 7.251796 0.027658
v 1.272880 7.247190 0.027019
v 1.285543 7.231476 0.028141
v 1.291226 7.235486 0.028417
v 1.292783 7.244443 0.028787
v 1.289746 7.249766 0.029033
v 1.283798 7.252545 0.029296
v 1.278456 7.251885 0.029534
v 1.271481 7.243541 0.030027
v 1.272558 7.237208 0.030304
v 1.276363 7.232691 0.030574
v 1.282537 7.231026 0.030838
v 1.287355 7.232299 0.031054
v 1.291557 7.236389 0.031284
v 1.292968 7.240113 0.031450
v 1.292588 7.245152 0.031641
v 1.289604 7.249816 0.031869
v 1.271779 7.238957 0.033049
v 1.284497 7.231332 0.033752
v 1.287927 7.232644 0.033909
v 1.290993 7.235494 0.034069
v 1.292944 7.239857 0.034266
v 1.292321 7.247185 0.034541
v 1.291533 7.247568 0.034573
v 1.282215 7.252636 0.035022
v 1.277126 7.251299 0.035252
v 1.273246 7.247683 0.035757
v 1.270428 7.240033 0.035841
v 1.270301 7.241595 0.035837
v 1.270368 7.243203 0.035833
v 1.270719 7.244997 0.035828
v 1.271251 7.246527 0.035824
v 1.272084 7.248146 0.035820
v 1.273040 7.249464 0.035817
v 1.274138 7.250639 0.035814
v 1.277345 7.251542 0.035812
v 1.275738 7.251887 0.035811
v 1.277703 7.252930 0.035808
v 1.279453 7.253487 0.035807
v 1.284837 7.252482 0.035821
v 1.280643 7.253714 0.035807
v 1.282256 7.253839 0.035806
v 1.283882 7.253725 0.035807
v 1.285468 7.253415 0.035808
v 1.286999 7.252873 0.035809
v 1.288440 7.252154 0.035811
v 1.290404 7.250718 0.035815
v 1.292020 7.248895 0.035820
v 1.271017 7.237674 0.035847
v 1.272028 7.235626 0.035852
v 1.273345 7.233818 0.035857
v 1.274991 7.232318 0.035861
v 1.276160 7.231531 0.035863
v 1.277610 7.230786 0.035865
v 1.279732 7.230104 0.035867
v 1.281532 7.229866 0.035868
v 1.283163 7.229863 0.035868
v 1.285565 7.230268 0.035867
v 1.288184 7.231352 0.035864
v 1.289661 7.232361 0.035862
v 1.290908 7.233449 0.035859
v 1.292307 7.235188 0.035855
v 1.293193 7.236775 0.035851
v 1.293901 7.238678 0.035846
v 1.294229 7.240458 0.035842
v 1.294313 7.242494 0.035836
v 1.293968 7.244690 0.035831
v 1.293254 7.246806 0.035825
v 1.271533 7.242803 0.035801
v 1.283083 7.253136 0.021718
v 1.278899 7.252057 0.021701
v 1.284778 7.231253 0.023395
v 1.292549 7.245308 0.024107
v 1.285975 7.252740 0.024504
v 1.279229 7.231495 0.025985
v 1.273627 7.248350 0.027898
v 1.277354 7.231275 0.028753
v 1.283679 7.231126 0.029002
v 1.286338 7.231019 0.029111
v 1.293587 7.244745 0.029731
v 1.292866 7.244375 0.029725
v 1.287575 7.251222 0.030083
v 1.281919 7.253347 0.030314
v 1.271494 7.245955 0.030862
v 1.271968 7.245368 0.030880
v 1.275306 7.232584 0.031482
v 1.288581 7.233008 0.032050
v 1.293579 7.239334 0.032365
v 1.289204 7.250099 0.032828
v 1.281562 7.252594 0.032659
v 1.276466 7.250941 0.033397
v 1.271009 7.239469 0.033963
v 1.282225 7.230999 0.034593
v 1.292266 7.235827 0.035047
v 1.293872 7.241137 0.035260
v 1.292644 7.247224 0.035639
v 1.290720 7.248660 0.035569
v 1.292756 7.244340 0.035378
v 1.292923 7.239728 0.035201
v 1.290907 7.235369 0.035002
v 1.287554 7.232407 0.034832
v 1.276199 7.232848 0.034333
v 1.272552 7.237215 0.034071
v 1.271553 7.241428 0.033888
v 1.272471 7.246422 0.033654
v 1.285732 7.251997 0.032538
v 1.292535 7.245527 0.032596
v 1.292864 7.239596 0.032369
v 1.283288 7.231060 0.031812
v 1.278724 7.231694 0.031619
v 1.274889 7.233967 0.031427
v 1.271938 7.238674 0.031175
v 1.275826 7.250463 0.030601
v 1.281716 7.252704 0.030324
v 1.290572 7.248665 0.029919
v 1.292792 7.239513 0.029538
v 1.288582 7.232999 0.029223
v 1.279230 7.231503 0.028813
v 1.273977 7.234702 0.028546
v 1.271602 7.240488 0.028272
v 1.272576 7.247898 0.027938
v 1.283982 7.252567 0.027403
v 1.289735 7.249682 0.027147
v 1.293076 7.243729 0.026874
v 1.292468 7.238365 0.026661
v 1.290519 7.234792 0.026494
v 1.286360 7.231811 0.026295
v 1.282619 7.231094 0.026129
v 1.275298 7.233612 0.025796
v 1.271915 7.238512 0.025526
v 1.271820 7.244287 0.025275
v 1.273996 7.248726 0.025048
v 1.277318 7.251299 0.024875
v 1.281454 7.252590 0.024682
v 1.288345 7.250937 0.024396
v 1.292763 7.238591 0.023847
v 1.289312 7.233631 0.023605
v 1.278232 7.231702 0.023118
v 1.272007 7.238444 0.022703
v 1.271694 7.243775 0.022471
v 1.273924 7.248654 0.022227
v 1.269561 7.238713 0.098066
v 1.270351 7.236594 0.079202
v 1.269598 7.238565 0.079197
v 1.271307 7.234880 0.093346
v 1.272594 7.233208 0.093348
v 1.272555 7.233146 0.079211
v 1.271308 7.234839 0.079207
v 1.273892 7.231976 0.098063
v 1.274047 7.231835 0.093351
v 1.275728 7.230515 0.093359
v 1.275773 7.230579 0.079218
v 1.274045 7.231791 0.079215
v 1.277595 7.229784 0.093357
v 1.279620 7.229188 0.093359
v 1.279601 7.229106 0.079222
v 1.277596 7.229744 0.079220
v 1.281386 7.228850 0.098095
v 1.283714 7.228989 0.093360
v 1.283716 7.228943 0.079223
v 1.281604 7.228862 0.079223
v 1.285128 7.229132 0.098111
v 1.287673 7.230017 0.079220
v 1.285689 7.229289 0.079222
v 1.289274 7.230888 0.098099
v 1.291099 7.232305 0.093351
v 1.291100 7.232264 0.079215
v 1.289455 7.230941 0.079218
v 1.292474 7.233756 0.093348
v 1.293790 7.235674 0.098091
v 1.293667 7.235496 0.093344
v 1.293668 7.235456 0.079207
v 1.292513 7.233690 0.079211
v 1.294548 7.237078 0.098073
v 1.294526 7.237301 0.093339
v 1.295123 7.239325 0.093334
v 1.295166 7.239264 0.079197
v 1.294527 7.237260 0.079202
v 1.295408 7.241113 0.098073
v 1.295381 7.241306 0.093329
v 1.295329 7.243375 0.079187
v 1.295410 7.241264 0.079192
v 1.294955 7.245379 0.093317
v 1.294248 7.247366 0.093314
v 1.294249 7.247326 0.079177
v 1.295000 7.245354 0.079182
v 1.293396 7.249080 0.098054
v 1.292008 7.250756 0.079168
v 1.293315 7.249096 0.079172
v 1.290656 7.252164 0.098012
v 1.288842 7.253353 0.079161
v 1.290552 7.252126 0.079164
v 1.284996 7.254953 0.093293
v 1.284979 7.254772 0.079157
v 1.287017 7.254220 0.079158
v 1.283194 7.255073 0.098005
v 1.282994 7.255071 0.093292
v 1.280669 7.255070 0.098034
v 1.280884 7.255013 0.093293
v 1.280882 7.255000 0.079156
v 1.282996 7.255035 0.079156
v 1.278918 7.254646 0.093293
v 1.276921 7.253943 0.079158
v 1.278919 7.254605 0.079157
v 1.275323 7.253140 0.098041
v 1.275172 7.252983 0.093298
v 1.273285 7.251631 0.098044
v 1.273499 7.251697 0.093301
v 1.273477 7.251697 0.079164
v 1.275173 7.252943 0.079161
v 1.272135 7.250366 0.098015
v 1.270898 7.248496 0.079172
v 1.272125 7.250205 0.079168
v 1.270099 7.246809 0.098035
v 1.269450 7.244645 0.079182
v 1.270069 7.246662 0.079176
v 1.269122 7.242927 0.098058
v 1.269217 7.242695 0.093326
v 1.269275 7.240587 0.093329
v 1.269276 7.240546 0.079192
v 1.269172 7.242653 0.079187
f 2 3 78
f 3 2 900
f 5 3 900
f 3 5 4
f 4 5 6
f 6 5 903
f 6 903 8
f 6 8 7
f 7 8 10
f 10 8 9
f 10 9 828
f 10 828 11
f 11 828 12
f 11 12 13
f 13 12 14
f 15 13 14
f 13 15 17
f 17 15 16
f 17 16 835
f 17 835 19
f 19 835 18
f 19 18 20
f 20 18 21
f 20 21 22
f 22 21 26
f 22 26 24
f 24 26 23
f 24 23 27
f 24 27 844
f 24 844 25
f 25 844 28
f 25 28 29
f 29 28 848
f 29 848 31
f 30 31 848
f 31 30 33
f 33 30 32
f 33 32 851
f 33 851 35
f 33 35 34
f 34 35 38
f 38 35 36
f 38 36 37
f 38 37 39
f 38 39 40
f 40 39 856
f 40 856 42
f 42 856 860
f 41 43 860
f 860 43 42
f 43 41 44
f 43 44 45
f 45 44 865
f 45 865 47
f 47 865 46
f 47 46 49
f 49 46 48
f 49 48 50
f 50 48 51
f 50 51 52
f 52 51 53
f 52 53 873
f 55 54 873
f 873 54 52
f 54 55 56
f 56 55 876
f 56 876 57
f 57 876 59
f 59 876 58
f 59 58 65
f 59 65 61
f 59 61 60
f 60 61 62
f 60 62 63
f 63 62 64
f 63 64 882
f 63 882 66
f 66 882 67
f 66 67 68
f 68 67 884
f 68 884 70
f 70 884 69
f 71 72 69
f 69 72 70
f 72 71 73
f 72 73 74
f 74 73 891
f 74 891 76
f 76 891 75
f 76 75 77
f 77 75 893
f 77 893 897
f 77 897 78
f 78 897 2
f 79 81 80
f 80 81 2
f 242 82 83
f 242 84 82
f 82 84 85
f 82 85 86
f 85 84 90
f 90 84 87
f 90 87 88
f 90 88 91
f 87 89 88
f 90 91 92
f 90 92 93
f 94 95 92
f 92 95 93
f 98 96 95
f 96 98 97
f 97 98 237
f 237 98 99
f 237 99 100
f 100 99 105
f 105 99 101
f 105 101 102
f 105 102 104
f 101 103 102
f 105 104 106
f 106 104 107
f 106 107 108
f 108 107 109
f 109 107 110
f 110 111 109
f 111 112 109
f 109 112 113
f 113 112 114
f 113 114 115
f 112 117 114
f 114 117 116
f 116 117 118
f 116 118 121
f 121 118 119
f 120 119 118
f 121 119 122
f 121 122 123
f 123 122 125
f 123 125 124
f 125 126 124
f 124 126 127
f 124 127 128
f 128 127 129
f 128 129 130
f 130 129 132
f 130 132 131
f 131 132 133
f 131 133 136
f 136 133 134
f 133 135 134
f 136 134 137
f 136 137 138
f 138 137 139
f 139 137 141
f 139 141 140
f 142 143 141
f 141 143 140
f 140 143 144
f 144 143 145
f 144 145 147
f 147 145 146
f 145 149 146
f 146 149 148
f 148 149 150
f 148 150 151
f 151 150 153
f 151 153 152
f 152 153 155
f 152 155 154
f 154 155 156
f 156 155 157
f 156 157 158
f 158 157 159
f 159 157 160
f 159 160 161
f 161 160 162
f 161 162 163
f 163 162 164
f 163 164 165
f 165 164 166
f 150 167 153
f 157 168 160
f 164 482 166
f 165 166 169
f 169 166 170
f 169 170 171
f 171 170 174
f 171 174 172
f 170 173 174
f 175 176 173
f 173 176 174
f 174 176 177
f 177 176 178
f 177 178 179
f 179 178 180
f 179 180 181
f 181 180 182
f 181 182 186
f 186 182 183
f 186 183 184
f 186 184 185
f 186 185 187
f 187 185 188
f 188 185 190
f 188 190 189
f 189 190 191
f 191 190 192
f 189 191 193
f 193 191 194
f 193 194 195
f 195 194 196
f 195 196 81
f 81 196 197
f 197 196 198
f 197 198 202
f 202 198 199
f 198 200 199
f 204 206 199
f 199 206 201
f 199 201 202
f 202 201 203
f 206 204 205
f 205 208 206
f 205 207 208
f 206 208 209
f 209 208 210
f 209 210 211
f 211 210 212
f 212 210 213
f 213 210 214
f 213 214 215
f 215 214 218
f 215 218 216
f 216 218 217
f 216 217 219
f 219 217 220
f 219 220 221
f 219 221 222
f 222 221 223
f 223 221 224
f 223 225 222
f 222 225 226
f 226 225 227
f 227 225 1
f 1 225 382
f 226 227 228
f 209 211 229
f 195 81 79
f 181 230 179
f 165 231 163
f 152 232 151
f 138 879 136
f 233 128 130
f 123 234 121
f 108 235 106
f 236 237 100
f 238 93 96
f 96 93 95
f 48 239 83
f 48 83 82
f 240 241 239
f 240 239 48
f 242 83 239
f 242 239 243
f 243 239 241
f 242 243 244
f 244 243 245
f 244 245 391
f 391 245 246
f 246 245 248
f 248 245 247
f 248 247 390
f 390 247 249
f 390 249 250
f 250 249 251
f 250 251 252
f 252 251 253
f 252 253 254
f 254 253 255
f 252 254 256
f 256 254 257
f 256 257 258
f 258 257 259
f 259 257 260
f 259 260 261
f 261 260 262
f 259 261 264
f 264 261 263
f 264 263 265
f 261 267 263
f 263 267 266
f 266 267 268
f 266 268 269
f 269 268 270
f 266 269 271
f 271 269 272
f 271 272 273
f 273 272 274
f 273 274 275
f 275 274 276
f 275 276 279
f 279 276 277
f 279 277 278
f 279 278 280
f 279 280 281
f 281 280 282
f 282 280 283
f 282 283 284
f 284 283 285
f 285 283 286
f 284 285 287
f 287 285 288
f 287 288 289
f 289 288 290
f 289 290 388
f 388 290 291
f 291 290 293
f 290 292 293
f 291 293 294
f 294 293 295
f 294 295 296
f 296 295 297
f 296 297 298
f 295 299 297
f 297 299 300
f 301 302 299
f 299 302 300
f 300 302 303
f 303 302 304
f 303 304 305
f 305 304 306
f 305 306 308
f 308 306 307
f 308 307 309
f 308 309 310
f 310 309 311
f 310 311 313
f 310 313 312
f 312 313 314
f 312 314 315
f 315 314 316
f 315 316 317
f 317 316 318
f 317 318 319
f 319 318 320
f 313 321 314
f 318 322 320
f 319 320 323
f 323 320 324
f 323 324 325
f 325 324 326
f 326 324 327
f 326 327 328
f 328 327 329
f 329 330 328
f 328 330 331
f 331 330 332
f 331 332 333
f 330 335 332
f 332 335 334
f 334 335 336
f 334 336 337
f 337 336 338
f 339 338 336
f 337 338 340
f 340 338 342
f 340 342 341
f 341 342 343
f 343 342 344
f 837 346 344
f 344 346 343
f 343 346 345
f 348 347 346
f 346 347 345
f 347 348 349
f 347 349 350
f 350 349 351
f 350 351 353
f 349 352 351
f 350 353 354
f 354 353 355
f 355 353 363
f 355 363 356
f 356 363 357
f 356 357 358
f 358 357 359
f 358 359 361
f 361 359 360
f 361 360 362
f 357 363 364
f 359 365 360
f 360 365 368
f 368 365 366
f 366 365 367
f 368 366 369
f 368 369 371
f 368 371 370
f 372 373 371
f 371 373 370
f 374 375 373
f 375 374 376
f 376 374 377
f 377 374 378
f 377 378 379
f 374 380 378
f 378 380 382
f 382 380 1
f 1 380 381
f 383 370 375
f 375 370 373
f 356 384 355
f 454 345 347
f 325 385 323
f 315 386 312
f 308 387 305
f 275 389 273
f 258 476 256
f 87 84 392
f 392 84 393
f 393 84 242
f 393 242 244
f 398 89 392
f 392 89 87
f 394 396 395
f 395 396 393
f 393 396 392
f 392 396 398
f 398 396 397
f 435 404 438
f 438 404 399
f 438 399 440
f 440 399 400
f 400 399 443
f 443 399 401
f 401 399 672
f 401 672 402
f 404 435 405
f 404 405 406
f 404 406 407
f 404 407 482
f 404 482 408
f 404 408 757
f 757 408 409
f 757 409 410
f 757 410 756
f 756 410 411
f 756 411 512
f 411 412 512
f 512 412 413
f 512 413 120
f 512 120 414
f 512 414 510
f 510 414 415
f 510 415 416
f 510 416 397
f 510 397 417
f 417 397 396
f 417 396 394
f 417 394 418
f 417 418 419
f 419 418 420
f 419 420 421
f 419 421 422
f 419 422 470
f 419 470 423
f 423 470 467
f 423 467 466
f 423 466 424
f 423 424 463
f 423 463 386
f 423 386 428
f 428 386 425
f 428 425 426
f 428 426 427
f 428 427 429
f 428 429 430
f 430 429 456
f 430 456 431
f 430 431 432
f 430 432 433
f 430 433 403
f 403 433 450
f 403 450 434
f 403 434 402
f 436 435 437
f 437 435 438
f 436 192 435
f 435 192 190
f 192 436 191
f 437 198 436
f 436 198 196
f 436 196 194
f 436 194 191
f 438 200 437
f 437 200 198
f 200 438 199
f 199 438 440
f 199 440 204
f 204 440 205
f 207 205 439
f 439 205 440
f 207 439 208
f 208 439 442
f 441 214 442
f 442 214 210
f 442 210 208
f 444 218 441
f 441 218 214
f 440 400 439
f 439 400 442
f 442 400 444
f 444 400 443
f 444 441 442
f 218 444 217
f 217 444 443
f 217 443 220
f 220 443 401
f 220 401 221
f 224 221 445
f 445 221 401
f 224 445 223
f 223 445 446
f 378 382 447
f 447 382 225
f 447 225 446
f 446 225 223
f 448 379 447
f 447 379 378
f 448 447 402
f 448 402 434
f 379 448 434
f 379 434 377
f 377 434 376
f 376 434 450
f 376 450 375
f 383 375 449
f 449 375 450
f 383 449 370
f 370 449 451
f 452 360 368
f 452 368 451
f 451 368 370
f 453 362 452
f 452 362 360
f 450 433 449
f 449 433 451
f 451 433 452
f 452 433 453
f 453 433 432
f 362 453 361
f 361 453 432
f 361 432 358
f 358 432 431
f 358 431 356
f 431 384 356
f 384 431 355
f 355 431 455
f 454 347 350
f 454 350 455
f 455 350 354
f 455 354 355
f 431 456 455
f 455 456 454
f 454 456 345
f 345 456 343
f 343 456 429
f 341 343 429
f 341 429 340
f 340 429 458
f 457 332 458
f 458 332 334
f 458 334 337
f 458 337 340
f 457 333 332
f 429 427 458
f 458 427 457
f 333 457 331
f 331 457 427
f 331 427 328
f 328 427 426
f 328 426 326
f 326 426 325
f 385 325 459
f 459 325 426
f 385 459 323
f 323 459 460
f 315 317 461
f 461 317 319
f 461 319 460
f 460 319 323
f 461 386 315
f 426 425 459
f 459 425 460
f 460 425 461
f 461 425 386
f 312 386 310
f 310 386 463
f 310 463 308
f 387 308 462
f 462 308 463
f 387 462 305
f 305 462 465
f 297 300 464
f 464 300 465
f 465 300 303
f 465 303 305
f 466 298 464
f 464 298 297
f 463 424 462
f 462 424 465
f 465 424 464
f 464 424 466
f 298 466 296
f 296 466 294
f 294 466 467
f 294 467 291
f 467 388 291
f 388 467 289
f 289 467 468
f 282 284 469
f 469 284 287
f 469 287 289
f 469 289 468
f 470 281 469
f 469 281 282
f 468 467 469
f 469 467 470
f 470 279 281
f 279 470 422
f 279 422 275
f 389 275 422
f 273 389 471
f 472 263 473
f 473 263 266
f 473 266 271
f 473 271 471
f 471 271 273
f 474 265 472
f 472 265 263
f 422 421 389
f 389 421 471
f 471 421 473
f 473 421 474
f 474 421 420
f 474 472 473
f 265 474 264
f 264 474 420
f 264 420 259
f 259 420 258
f 258 420 418
f 476 258 418
f 475 250 476
f 476 250 252
f 476 252 256
f 477 390 475
f 475 390 250
f 476 418 475
f 475 418 477
f 477 418 394
f 248 390 477
f 248 477 394
f 248 394 246
f 246 394 391
f 395 391 394
f 391 395 244
f 244 395 393
f 402 447 446
f 402 446 445
f 445 401 402
f 184 405 185
f 185 405 190
f 190 405 435
f 405 184 478
f 478 184 183
f 407 406 479
f 479 406 480
f 480 406 481
f 481 406 478
f 478 406 405
f 175 173 479
f 479 173 407
f 175 479 176
f 176 479 480
f 182 180 481
f 481 180 178
f 481 178 176
f 481 176 480
f 478 183 481
f 481 183 182
f 166 482 170
f 170 482 407
f 170 407 173
f 409 408 483
f 483 408 484
f 484 408 485
f 485 408 482
f 168 157 483
f 483 157 409
f 168 483 160
f 160 483 484
f 485 164 162
f 485 162 484
f 484 162 160
f 485 482 164
f 153 409 155
f 155 409 157
f 167 486 153
f 153 486 409
f 411 410 487
f 487 410 488
f 488 410 489
f 489 410 486
f 486 410 409
f 142 141 487
f 487 141 411
f 142 487 143
f 143 487 488
f 489 150 149
f 489 149 145
f 489 145 488
f 488 145 143
f 486 167 489
f 489 167 150
f 134 411 137
f 137 411 141
f 135 490 134
f 134 490 411
f 413 412 491
f 491 412 492
f 492 412 493
f 493 412 494
f 494 412 490
f 490 412 411
f 126 125 491
f 491 125 413
f 126 491 127
f 127 491 492
f 494 133 493
f 493 133 132
f 493 132 129
f 493 129 492
f 492 129 127
f 490 135 494
f 494 135 133
f 119 120 122
f 122 120 413
f 122 413 125
f 415 414 495
f 495 414 496
f 496 414 497
f 497 414 120
f 495 110 107
f 495 107 415
f 110 495 111
f 111 495 496
f 118 117 497
f 497 117 112
f 497 112 111
f 497 111 496
f 497 120 118
f 102 415 104
f 104 415 107
f 103 498 102
f 102 498 415
f 397 416 499
f 499 416 500
f 500 416 501
f 501 416 498
f 498 416 415
f 498 502 501
f 94 92 499
f 499 92 397
f 94 499 95
f 95 499 500
f 502 101 99
f 502 99 501
f 501 99 98
f 501 98 95
f 501 95 500
f 498 103 502
f 502 103 101
f 88 397 91
f 91 397 92
f 89 398 88
f 88 398 397
f 430 403 503
f 430 503 428
f 428 503 504
f 428 504 505
f 428 505 423
f 423 505 506
f 508 419 506
f 419 508 417
f 508 507 417
f 417 507 510
f 510 507 509
f 510 509 511
f 511 512 510
f 513 512 511
f 514 512 513
f 512 514 756
f 756 514 515
f 515 514 518
f 515 518 516
f 516 518 517
f 517 518 519
f 520 521 644
f 644 521 643
f 643 521 522
f 523 522 524
f 524 642 523
f 642 524 667
f 642 667 525
f 525 526 527
f 527 526 528
f 527 528 684
f 684 530 529
f 530 531 529
f 531 530 532
f 531 532 641
f 641 533 534
f 534 533 535
f 535 760 534
f 760 535 640
f 640 535 665
f 640 665 639
f 665 536 639
f 539 538 540
f 541 540 544
f 542 544 543
f 543 638 542
f 638 543 545
f 545 547 638
f 546 548 549
f 546 547 548
f 551 548 550
f 553 551 552
f 553 552 554
f 550 552 551
f 553 554 555
f 557 558 637
f 637 558 559
f 556 558 557
f 559 636 637
f 559 560 636
f 561 563 562
f 562 563 570
f 564 562 570
f 564 570 565
f 565 567 566
f 566 567 568
f 568 571 569
f 569 571 572
f 567 571 568
f 569 572 807
f 807 572 573
f 572 574 573
f 635 575 634
f 634 575 576
f 763 576 658
f 763 658 578
f 578 577 763
f 577 578 765
f 579 765 578
f 765 579 580
f 580 581 582
f 580 579 581
f 582 583 580
f 583 582 633
f 633 582 656
f 633 656 584
f 633 584 766
f 766 584 585
f 587 586 655
f 587 588 769
f 655 588 587
f 588 589 769
f 589 654 769
f 769 654 632
f 632 654 590
f 590 654 591
f 590 591 770
f 770 591 592
f 770 592 631
f 594 631 592
f 631 594 650
f 631 650 593
f 630 596 597
f 630 597 598
f 598 597 599
f 598 599 629
f 629 601 600
f 600 601 602
f 602 603 600
f 602 604 603
f 604 606 774
f 774 606 605
f 628 709 607
f 606 709 605
f 605 709 628
f 628 607 608
f 627 648 646
f 627 646 609
f 646 645 609
f 610 645 611
f 611 645 612
f 611 612 626
f 626 612 613
f 778 613 614
f 616 625 615
f 625 616 617
f 624 617 618
f 624 618 619
f 623 619 620
f 623 620 780
f 780 620 781
f 781 620 621
f 781 621 782
f 619 623 624
f 624 625 617
f 616 615 614
f 614 615 778
f 613 778 626
f 610 609 645
f 648 627 608
f 648 608 607
f 774 603 604
f 601 629 599
f 596 630 772
f 596 772 595
f 772 593 595
f 595 593 650
f 585 586 766
f 763 634 576
f 575 635 574
f 574 635 573
f 566 564 565
f 563 561 636
f 563 636 560
f 556 557 555
f 556 555 554
f 548 551 549
f 546 638 547
f 544 542 541
f 540 541 539
f 539 537 538
f 538 537 536
f 536 537 639
f 533 641 532
f 526 525 667
f 523 643 522
f 520 644 517
f 520 517 519
f 419 423 506
f 586 585 655
f 527 684 529
f 755 614 613
f 645 646 711
f 711 646 648
f 711 648 647
f 648 607 710
f 606 604 708
f 602 601 706
f 601 599 706
f 705 599 597
f 597 596 649
f 595 650 651
f 650 594 704
f 704 594 592
f 704 592 652
f 652 592 591
f 653 591 654
f 654 589 776
f 588 655 792
f 655 585 703
f 703 585 702
f 582 579 657
f 582 581 579
f 572 571 565
f 572 565 659
f 571 567 565
f 693 563 560
f 559 558 691
f 558 556 554
f 690 554 552
f 552 550 689
f 550 548 689
f 548 547 660
f 660 547 661
f 545 543 662
f 544 540 663
f 664 665 686
f 538 536 664
f 664 536 665
f 665 535 686
f 686 535 685
f 532 530 666
f 668 521 520
f 520 519 668
f 668 519 669
f 519 518 669
f 518 514 669
f 669 514 670
f 514 513 670
f 670 513 511
f 671 508 506
f 672 403 402
f 403 672 673
f 403 673 503
f 503 673 674
f 503 674 504
f 674 675 504
f 504 675 505
f 505 675 671
f 505 671 506
f 671 676 508
f 508 676 507
f 507 676 677
f 677 509 507
f 521 668 678
f 521 678 522
f 678 679 522
f 679 680 522
f 522 680 524
f 680 667 524
f 667 680 681
f 667 681 526
f 526 681 682
f 526 682 528
f 682 683 528
f 528 683 684
f 684 666 530
f 666 533 532
f 533 666 685
f 533 685 535
f 538 664 688
f 540 538 663
f 663 662 544
f 544 662 543
f 662 661 545
f 545 661 547
f 548 660 689
f 552 689 690
f 690 558 554
f 559 691 692
f 559 692 560
f 560 692 693
f 563 693 694
f 563 694 570
f 570 694 565
f 565 694 659
f 659 695 572
f 695 574 572
f 574 695 575
f 575 695 696
f 575 696 576
f 576 696 697
f 576 697 658
f 658 697 578
f 697 698 578
f 578 698 699
f 699 579 578
f 579 699 657
f 582 657 700
f 700 656 582
f 656 700 701
f 656 701 584
f 701 702 584
f 584 702 585
f 703 792 655
f 776 589 792
f 792 589 588
f 776 653 654
f 653 652 591
f 650 704 651
f 595 651 596
f 596 651 649
f 597 649 705
f 599 705 706
f 602 706 707
f 707 604 602
f 604 707 708
f 606 708 709
f 709 710 607
f 648 710 647
f 711 712 645
f 645 712 612
f 712 713 612
f 612 755 613
f 714 614 755
f 714 755 715
f 715 755 716
f 716 755 717
f 717 755 718
f 718 755 713
f 718 713 719
f 719 713 720
f 720 713 722
f 720 722 721
f 721 722 723
f 723 722 724
f 724 722 725
f 725 722 727
f 727 722 726
f 727 726 728
f 728 726 729
f 729 726 730
f 730 726 622
f 730 622 731
f 731 622 732
f 732 622 733
f 733 622 782
f 733 782 734
f 734 782 754
f 735 614 714
f 614 735 736
f 614 736 737
f 614 737 616
f 616 737 738
f 616 738 617
f 617 738 739
f 617 739 740
f 617 740 741
f 617 741 618
f 618 741 742
f 618 742 743
f 618 743 744
f 618 744 619
f 619 744 745
f 619 745 746
f 619 746 747
f 619 747 620
f 620 747 748
f 620 748 749
f 620 749 750
f 620 750 621
f 621 750 751
f 621 751 752
f 621 752 753
f 621 753 782
f 782 753 754
f 753 752 49
f 49 752 47
f 47 752 751
f 47 751 45
f 45 751 750
f 45 750 43
f 43 750 749
f 43 749 42
f 42 749 748
f 42 748 40
f 40 748 747
f 40 747 38
f 38 747 746
f 38 746 34
f 34 746 745
f 34 745 33
f 33 745 744
f 33 744 31
f 31 744 29
f 29 744 743
f 29 743 742
f 29 742 25
f 25 742 741
f 25 741 24
f 24 741 740
f 24 740 22
f 22 740 739
f 22 739 20
f 20 739 738
f 20 738 19
f 19 738 17
f 17 738 737
f 17 737 736
f 17 736 13
f 13 736 735
f 13 735 11
f 11 735 10
f 10 735 714
f 10 714 715
f 10 715 7
f 7 715 716
f 7 716 6
f 6 716 717
f 6 717 4
f 4 717 718
f 4 718 3
f 3 718 719
f 3 719 78
f 78 719 720
f 78 720 77
f 77 720 721
f 77 721 76
f 76 721 723
f 76 723 74
f 74 723 724
f 74 724 72
f 72 724 725
f 72 725 70
f 70 725 727
f 70 727 68
f 68 727 728
f 68 728 66
f 66 728 729
f 66 729 63
f 63 729 730
f 63 730 60
f 60 730 731
f 60 731 59
f 59 731 732
f 59 732 57
f 57 732 733
f 57 733 56
f 56 733 734
f 56 734 54
f 54 734 754
f 54 754 52
f 52 754 753
f 52 753 50
f 50 753 49
f 756 515 757
f 757 515 516
f 757 516 827
f 517 644 827
f 642 525 824
f 758 525 823
f 823 527 822
f 527 529 822
f 529 531 822
f 822 531 759
f 760 640 820
f 639 537 539
f 539 541 542
f 539 542 817
f 817 542 816
f 638 546 815
f 815 546 761
f 761 546 549
f 564 566 568
f 564 568 569
f 569 807 564
f 573 635 806
f 806 635 805
f 805 635 634
f 577 765 764
f 580 583 803
f 583 633 802
f 802 633 766
f 802 766 767
f 586 587 768
f 769 632 800
f 800 632 799
f 771 770 631
f 771 631 798
f 631 593 798
f 630 598 795
f 795 598 773
f 598 629 773
f 773 629 603
f 629 600 603
f 774 605 793
f 605 628 793
f 628 775 793
f 775 627 792
f 628 608 775
f 775 608 627
f 792 627 776
f 776 627 609
f 776 609 777
f 610 611 777
f 791 611 626
f 791 626 790
f 625 624 779
f 624 623 779
f 780 781 785
f 781 782 784
f 726 783 622
f 783 784 622
f 622 784 782
f 784 785 781
f 780 785 786
f 780 786 787
f 780 787 623
f 623 787 779
f 625 779 788
f 625 788 615
f 615 788 789
f 615 789 778
f 789 790 778
f 778 790 626
f 791 777 611
f 610 777 609
f 774 793 794
f 794 657 774
f 774 657 603
f 603 657 773
f 630 795 796
f 796 772 630
f 772 796 797
f 772 797 593
f 593 797 798
f 770 771 590
f 590 771 799
f 590 799 632
f 769 800 587
f 587 800 768
f 586 768 801
f 586 801 766
f 766 801 767
f 580 803 765
f 803 764 765
f 577 764 804
f 577 804 763
f 763 804 805
f 763 805 634
f 573 806 807
f 807 762 564
f 564 762 687
f 564 687 562
f 562 687 808
f 562 808 561
f 561 808 636
f 808 809 636
f 636 809 637
f 637 809 810
f 637 810 557
f 557 810 555
f 555 810 811
f 811 812 555
f 555 812 553
f 553 812 813
f 553 813 551
f 551 813 814
f 551 814 549
f 814 761 549
f 638 815 816
f 638 816 542
f 817 818 539
f 539 818 639
f 639 818 819
f 639 819 640
f 819 820 640
f 820 821 760
f 760 821 534
f 534 821 759
f 759 641 534
f 641 759 531
f 527 823 525
f 525 758 824
f 642 824 523
f 523 824 643
f 643 825 826
f 643 826 644
f 644 826 827
f 517 827 516
f 404 757 827
f 404 827 826
f 404 826 399
f 399 826 672
f 672 826 825
f 672 825 643
f 672 643 673
f 673 643 824
f 673 824 674
f 674 824 758
f 674 758 675
f 675 758 823
f 675 823 671
f 671 823 822
f 671 822 676
f 676 822 677
f 677 822 759
f 677 759 509
f 509 759 821
f 509 821 511
f 511 821 670
f 670 821 820
f 670 820 669
f 669 820 819
f 669 819 818
f 669 818 668
f 668 818 817
f 668 817 678
f 678 817 816
f 678 816 679
f 679 816 815
f 679 815 680
f 680 815 761
f 680 761 681
f 681 761 814
f 681 814 682
f 682 814 813
f 682 813 683
f 683 813 812
f 683 812 684
f 684 812 811
f 684 811 666
f 666 811 810
f 666 810 809
f 666 809 685
f 685 809 808
f 685 808 686
f 686 808 687
f 686 687 664
f 664 687 762
f 664 762 688
f 688 762 807
f 688 807 538
f 538 807 663
f 663 807 806
f 663 806 662
f 662 806 805
f 662 805 661
f 661 805 804
f 661 804 660
f 660 804 764
f 660 764 689
f 689 764 803
f 689 803 690
f 690 803 583
f 690 583 802
f 690 802 558
f 558 802 767
f 558 767 691
f 691 767 692
f 692 767 801
f 692 801 768
f 692 768 693
f 693 768 800
f 693 800 694
f 694 800 799
f 694 799 659
f 659 799 771
f 659 771 695
f 695 771 798
f 695 798 696
f 696 798 797
f 696 797 697
f 697 797 796
f 697 796 698
f 698 796 795
f 698 795 699
f 699 795 773
f 699 773 657
f 700 657 794
f 700 794 701
f 701 794 793
f 701 793 702
f 702 793 703
f 703 793 775
f 703 775 792
f 776 777 653
f 653 777 652
f 652 777 791
f 652 791 790
f 652 790 704
f 704 790 789
f 704 789 651
f 651 789 788
f 651 788 649
f 649 788 779
f 649 779 705
f 705 779 787
f 705 787 706
f 706 787 786
f 706 786 707
f 707 786 785
f 707 785 708
f 708 785 784
f 708 784 709
f 709 784 710
f 710 784 783
f 710 783 647
f 647 783 726
f 647 726 711
f 711 726 722
f 711 722 712
f 712 722 713
f 612 713 755
f 828 1 381
f 12 828 830
f 12 830 829
f 372 371 12
f 12 371 14
f 372 12 373
f 373 12 829
f 830 380 374
f 830 374 829
f 829 374 373
f 828 381 830
f 830 381 380
f 371 369 14
f 14 369 366
f 14 366 831
f 831 366 367
f 16 15 832
f 832 15 833
f 833 15 834
f 834 15 831
f 831 15 14
f 364 363 832
f 832 363 16
f 364 832 357
f 357 832 833
f 834 365 833
f 833 365 359
f 833 359 357
f 831 367 834
f 834 367 365
f 363 353 16
f 16 353 351
f 16 351 835
f 835 351 352
f 835 352 836
f 21 18 837
f 837 18 838
f 838 18 839
f 839 18 836
f 836 18 835
f 837 344 21
f 346 837 838
f 349 348 839
f 839 348 838
f 838 348 346
f 836 352 839
f 839 352 349
f 344 342 21
f 21 342 26
f 26 342 338
f 26 338 840
f 840 338 339
f 27 23 841
f 841 23 842
f 842 23 843
f 843 23 840
f 840 23 26
f 841 329 27
f 27 329 327
f 329 841 330
f 330 841 842
f 336 335 843
f 843 335 842
f 842 335 330
f 840 339 843
f 843 339 336
f 27 327 844
f 844 327 324
f 844 324 320
f 844 320 322
f 848 28 845
f 845 28 846
f 846 28 847
f 847 28 322
f 322 28 844
f 321 313 845
f 845 313 848
f 321 845 314
f 314 845 846
f 318 316 847
f 847 316 846
f 846 316 314
f 847 322 318
f 313 311 848
f 848 311 309
f 848 309 30
f 30 309 307
f 32 30 849
f 849 30 850
f 301 299 32
f 301 32 302
f 302 32 849
f 306 304 850
f 850 304 849
f 849 304 302
f 30 307 850
f 850 307 306
f 299 295 32
f 32 295 851
f 851 295 293
f 851 293 292
f 36 35 852
f 852 35 853
f 853 35 854
f 854 35 292
f 292 35 851
f 852 286 36
f 36 286 283
f 285 286 853
f 853 286 852
f 854 290 288
f 854 288 853
f 853 288 285
f 854 292 290
f 36 283 280
f 36 280 37
f 37 280 278
f 37 278 855
f 855 278 277
f 856 39 857
f 857 39 858
f 858 39 859
f 859 39 855
f 855 39 37
f 270 268 857
f 857 268 856
f 270 857 269
f 269 857 858
f 276 274 859
f 859 274 272
f 859 272 858
f 858 272 269
f 855 277 859
f 859 277 276
f 268 267 856
f 856 267 860
f 860 267 261
f 860 261 861
f 861 261 262
f 44 41 862
f 862 41 863
f 863 41 864
f 864 41 861
f 861 41 860
f 862 255 44
f 44 255 253
f 255 862 254
f 254 862 863
f 260 257 864
f 864 257 863
f 863 257 254
f 861 262 864
f 864 262 260
f 44 253 251
f 44 251 865
f 865 251 866
f 866 251 249
f 48 46 240
f 240 46 867
f 867 46 868
f 868 46 866
f 866 46 865
f 243 241 867
f 867 241 240
f 247 245 868
f 868 245 867
f 867 245 243
f 866 249 868
f 868 249 247
f 48 82 869
f 869 82 86
f 53 51 870
f 870 51 871
f 871 51 872
f 872 51 869
f 869 51 48
f 238 96 870
f 870 96 53
f 238 870 93
f 93 870 871
f 85 90 872
f 872 90 871
f 871 90 93
f 869 86 872
f 872 86 85
f 96 97 53
f 53 97 873
f 873 97 237
f 873 237 236
f 874 55 875
f 875 55 873
f 55 235 108
f 235 55 106
f 106 55 874
f 875 100 105
f 875 105 874
f 874 105 106
f 873 236 875
f 875 236 100
f 108 109 55
f 55 109 113
f 55 113 876
f 876 113 115
f 58 876 877
f 877 876 878
f 234 123 58
f 234 58 121
f 121 58 877
f 114 116 878
f 878 116 877
f 877 116 121
f 876 115 878
f 878 115 114
f 58 123 124
f 58 124 65
f 65 124 128
f 65 128 233
f 62 61 879
f 879 61 880
f 880 61 881
f 881 61 233
f 233 61 65
f 879 138 62
f 136 879 880
f 130 131 881
f 881 131 136
f 881 136 880
f 881 233 130
f 138 139 62
f 62 139 64
f 64 139 140
f 64 140 144
f 64 144 882
f 882 144 147
f 882 147 883
f 884 67 885
f 885 67 886
f 886 67 887
f 887 67 883
f 883 67 882
f 232 152 885
f 885 152 884
f 151 232 886
f 886 232 885
f 146 148 887
f 887 148 886
f 886 148 151
f 883 147 887
f 887 147 146
f 152 154 884
f 884 154 69
f 69 154 156
f 69 156 888
f 888 156 158
f 73 71 231
f 231 71 889
f 889 71 890
f 890 71 888
f 888 71 69
f 231 165 73
f 163 231 889
f 159 161 890
f 890 161 889
f 889 161 163
f 890 888 159
f 159 888 158
f 73 165 169
f 73 169 891
f 891 169 171
f 891 171 892
f 892 171 172
f 893 75 894
f 894 75 895
f 895 75 896
f 896 75 892
f 892 75 891
f 894 230 893
f 893 230 181
f 230 894 179
f 179 894 895
f 896 174 895
f 895 174 177
f 179 895 177
f 892 172 896
f 896 172 174
f 893 181 186
f 893 186 897
f 897 186 187
f 2 897 80
f 80 897 898
f 898 897 899
f 79 80 195
f 195 80 898
f 188 189 899
f 899 189 898
f 898 189 193
f 898 193 195
f 897 187 899
f 899 187 188
f 81 197 2
f 2 197 900
f 900 197 202
f 900 202 203
f 901 5 902
f 902 5 900
f 229 211 5
f 229 5 209
f 209 5 901
f 201 206 902
f 902 206 901
f 901 206 209
f 900 203 902
f 902 203 201
f 211 212 5
f 5 212 903
f 903 212 213
f 903 213 904
f 904 213 215
f 9 8 905
f 905 8 906
f 906 8 907
f 907 8 904
f 904 8 903
f 905 228 9
f 9 228 227
f 226 228 906
f 906 228 905
f 216 219 907
f 907 219 222
f 907 222 906
f 906 222 226
f 904 215 907
f 907 215 216
f 1 828 227
f 227 828 9
