# USD → MuJoCo (world-space, simplified)
v 0.003265 -0.014736 -0.046523
v 0.002895 -0.014742 -0.046922
v 0.002960 -0.014734 -0.047463
v 0.002910 -0.014725 -0.048073
v 0.002274 -0.014739 -0.047996
v 0.002114 -0.014729 -0.048517
v 0.001820 -0.014719 -0.049054
v 0.001209 -0.014723 -0.049040
v 0.000552 -0.014719 -0.049213
v 0.000057 -0.014725 -0.048984
v -0.000311 -0.014706 -0.049507
v -0.000563 -0.014721 -0.048918
v -0.001033 -0.014701 -0.049354
v -0.001156 -0.014718 -0.048726
v -0.001706 -0.014697 -0.049054
v -0.001697 -0.014714 -0.048414
v -0.002231 -0.014702 -0.048309
v -0.002661 -0.014700 -0.047782
v -0.003164 -0.014688 -0.047434
v -0.003086 -0.014697 -0.046828
v -0.003190 -0.014696 -0.046156
v -0.002910 -0.014707 -0.045688
v -0.003392 -0.014687 -0.045267
v -0.002780 -0.014708 -0.045078
v -0.002846 -0.014699 -0.044537
v -0.002478 -0.014701 -0.043965
v -0.001931 -0.014706 -0.043411
v -0.001094 -0.014709 -0.042960
v -0.000437 -0.014714 -0.042787
v -0.000358 -0.014656 -0.042044
v -0.000770 -0.014653 -0.042109
v 0.000241 -0.014718 -0.042755
v 0.000943 -0.014726 -0.043021
v 0.002044 -0.014670 -0.042553
v 0.001674 -0.014668 -0.042364
v 0.001815 -0.014727 -0.043266
v 0.002718 -0.014675 -0.043042
v 0.002565 -0.014733 -0.043983
v 0.003087 -0.014735 -0.044822
v 0.003506 -0.014729 -0.045267
v 0.003304 -0.014736 -0.045844
v 0.000057 -0.014747 -0.046000
v 0.001974 0.011822 -0.046000
v 0.001689 0.010695 -0.046155
v 0.000205 0.009252 -0.046000
v 0.001689 0.010695 -0.045845
v 0.001936 0.011822 -0.046365
v 0.001625 0.010695 -0.046458
v 0.001822 0.011823 -0.046713
v 0.001498 0.010696 -0.046742
v 0.001639 0.011824 -0.047031
v 0.001316 0.010697 -0.046993
v 0.001394 0.011826 -0.047303
v 0.001086 0.010698 -0.047200
v 0.001097 0.011827 -0.047519
v 0.000817 0.010700 -0.047355
v 0.000762 0.011829 -0.047668
v 0.000522 0.010702 -0.047451
v 0.000404 0.011832 -0.047744
v 0.000214 0.010704 -0.047484
v 0.000037 0.011834 -0.047744
v -0.000095 0.010705 -0.047451
v -0.000321 0.011836 -0.047668
v -0.000390 0.010707 -0.047355
v -0.000656 0.011838 -0.047519
v -0.000658 0.010709 -0.047200
v -0.000953 0.011840 -0.047303
v -0.000889 0.010711 -0.046993
v -0.001198 0.011842 -0.047031
v -0.001071 0.010712 -0.046742
v -0.001381 0.011843 -0.046713
v -0.001197 0.010713 -0.046458
v -0.001495 0.011843 -0.046365
v -0.001262 0.010713 -0.046155
v -0.001533 0.011844 -0.046000
v -0.001262 0.010713 -0.045845
v -0.001495 0.011843 -0.045635
v -0.001197 0.010713 -0.045542
v -0.001381 0.011843 -0.045287
v -0.001071 0.010712 -0.045258
v -0.001198 0.011842 -0.044969
v -0.000889 0.010711 -0.045007
v -0.000953 0.011840 -0.044697
v -0.000658 0.010709 -0.044800
v -0.000656 0.011838 -0.044481
v -0.000390 0.010707 -0.044645
v -0.000321 0.011836 -0.044332
v -0.000095 0.010705 -0.044549
v 0.000037 0.011834 -0.044256
v 0.000214 0.010704 -0.044516
v 0.000404 0.011832 -0.044256
v 0.000522 0.010702 -0.044549
v 0.000762 0.011829 -0.044332
v 0.000817 0.010700 -0.044645
v 0.001097 0.011827 -0.044481
v 0.001086 0.010698 -0.044800
v 0.001394 0.011826 -0.044697
v 0.001316 0.010697 -0.045007
v 0.001639 0.011824 -0.044969
v 0.001498 0.010696 -0.045258
v 0.001822 0.011823 -0.045287
v 0.001625 0.010695 -0.045542
v 0.001936 0.011822 -0.045635
v 0.003265 -0.014736 0.045477
v 0.004036 -0.014683 0.046000
v 0.002927 -0.014738 0.044807
v 0.002628 -0.014728 0.043809
v 0.001556 -0.014727 0.043149
v 0.000552 -0.014719 0.042787
v 0.000476 -0.014661 0.042043
v 0.000884 -0.014663 0.042109
v -0.000127 -0.014715 0.042755
v -0.000356 -0.014655 0.042043
v 0.000058 -0.014658 0.042022
v -0.000563 -0.014721 0.043082
v -0.000767 -0.014653 0.042108
v -0.001033 -0.014701 0.042646
v -0.001156 -0.014718 0.043274
v -0.001706 -0.014697 0.042946
v -0.001697 -0.014714 0.043586
v -0.002231 -0.014702 0.043692
v -0.002661 -0.014700 0.044218
v -0.003164 -0.014688 0.044566
v -0.003086 -0.014697 0.045172
v -0.003190 -0.014696 0.045844
v -0.002910 -0.014707 0.046312
v -0.003392 -0.014687 0.046733
v -0.002780 -0.014708 0.046922
v -0.002846 -0.014699 0.047463
v -0.002478 -0.014701 0.048035
v -0.002002 -0.014699 0.048677
v -0.000814 -0.014713 0.049102
v 0.000241 -0.014718 0.049245
v 0.000912 -0.014722 0.049136
v 0.001287 -0.014666 0.049783
v 0.000884 -0.014663 0.049891
v 0.001676 -0.014668 0.049634
v 0.002047 -0.014670 0.049445
v 0.001780 -0.014728 0.048722
v 0.002396 -0.014673 0.049218
v 0.002274 -0.014739 0.047996
v 0.002775 -0.014733 0.047782
v 0.003297 -0.014732 0.046956
v 0.003304 -0.014736 0.046156
v 0.000057 -0.014747 0.046000
v 0.001974 0.011822 0.046000
v 0.001689 0.010695 0.045845
v 0.000205 0.009252 0.046000
v 0.001689 0.010695 0.046155
v 0.001936 0.011822 0.045635
v 0.001625 0.010695 0.045542
v 0.001822 0.011823 0.045287
v 0.001498 0.010696 0.045258
v 0.001639 0.011824 0.044969
v 0.001316 0.010697 0.045007
v 0.001394 0.011826 0.044697
v 0.001086 0.010698 0.044800
v 0.001097 0.011827 0.044481
v 0.000817 0.010700 0.044645
v 0.000762 0.011829 0.044332
v 0.000522 0.010702 0.044549
v 0.000404 0.011832 0.044256
v 0.000214 0.010704 0.044516
v 0.000037 0.011834 0.044256
v -0.000095 0.010705 0.044549
v -0.000321 0.011836 0.044332
v -0.000390 0.010707 0.044645
v -0.000656 0.011838 0.044481
v -0.000658 0.010709 0.044800
v -0.000953 0.011840 0.044697
v -0.000889 0.010711 0.045007
v -0.001198 0.011841 0.044969
v -0.001071 0.010712 0.045258
v -0.001381 0.011843 0.045287
v -0.001197 0.010713 0.045542
v -0.001495 0.011843 0.045635
v -0.001262 0.010713 0.045845
v -0.001533 0.011844 0.046000
v -0.001262 0.010713 0.046155
v -0.001495 0.011843 0.046365
v -0.001197 0.010713 0.046458
v -0.001381 0.011843 0.046713
v -0.001071 0.010712 0.046742
v -0.001198 0.011841 0.047031
v -0.000889 0.010711 0.046993
v -0.000953 0.011840 0.047303
v -0.000658 0.010709 0.047200
v -0.000656 0.011838 0.047519
v -0.000390 0.010707 0.047355
v -0.000321 0.011836 0.047668
v -0.000095 0.010705 0.047451
v 0.000037 0.011834 0.047744
v 0.000214 0.010704 0.047484
v 0.000404 0.011832 0.047744
v 0.000522 0.010702 0.047451
v 0.000762 0.011829 0.047668
v 0.000817 0.010700 0.047355
v 0.001097 0.011827 0.047519
v 0.001086 0.010698 0.047200
v 0.001394 0.011826 0.047303
v 0.001316 0.010697 0.046993
v 0.001639 0.011824 0.047031
v 0.001498 0.010696 0.046742
v 0.001822 0.011823 0.046713
v 0.001625 0.010695 0.046458
v 0.001936 0.011822 0.046365
v -0.001019 0.021254 -0.044185
v 0.001691 0.021245 -0.042615
v 0.002877 0.021235 0.045399
v 0.001039 0.021247 0.042336
v -0.001265 0.021254 0.044387
v -0.003389 0.021275 0.046476
v -0.002047 0.021260 0.045875
v -0.001920 0.021263 0.049031
v 0.000652 0.021251 0.049685
v 0.002157 0.021239 0.047651
v 0.002227 0.020882 -0.046309
v 0.002158 0.020882 -0.046611
v 0.002028 0.020902 -0.046921
v 0.001811 0.020884 -0.047243
v 0.001519 0.020886 -0.047535
v 0.001710 0.015049 -0.047324
v 0.001170 0.020975 -0.047788
v 0.000986 0.020909 -0.047847
v 0.000852 0.015055 -0.047881
v 0.000652 0.015056 -0.047935
v -0.000059 0.020915 -0.047950
v -0.000335 0.020897 -0.047881
v -0.001222 0.020903 -0.047280
v -0.001360 0.015068 -0.047163
v -0.001230 0.015068 -0.047324
v -0.001484 0.020905 -0.046897
v -0.001603 0.020972 -0.046666
v -0.001675 0.020906 -0.046309
v -0.001679 0.020916 -0.045743
v -0.001568 0.020905 -0.045292
v -0.001444 0.020956 -0.045007
v -0.001112 0.020884 -0.044572
v -0.000696 0.020964 -0.044263
v -0.000749 0.015065 -0.044287
v -0.000564 0.015063 -0.044193
v -0.000205 0.020962 -0.044068
v 0.000034 0.015060 -0.044033
v 0.000276 0.020894 -0.044022
v 0.000819 0.020872 -0.044084
v 0.000447 0.015057 -0.044033
v 0.000240 0.015059 -0.044022
v 0.000652 0.015056 -0.044065
v 0.001265 0.020888 -0.044287
v 0.001708 0.020943 -0.044616
v 0.001989 0.020883 -0.045011
v 0.002133 0.020902 -0.045315
v 0.002227 0.020882 -0.045691
v 0.002238 0.020862 0.045659
v 0.002037 0.020894 0.045103
v 0.001796 0.020895 0.044736
v 0.001521 0.020908 0.044463
v 0.001710 0.015049 0.044676
v 0.000964 0.020864 0.044131
v 0.000852 0.015055 0.044119
v 0.000484 0.020940 0.044025
v 0.000652 0.015056 0.044065
v 0.000173 0.020917 0.044025
v -0.000135 0.020896 0.044065
v -0.001325 0.020926 0.044836
v -0.001360 0.015068 0.044837
v -0.001437 0.020905 0.045011
v -0.001654 0.020979 0.045512
v -0.001702 0.020906 0.046000
v -0.001738 0.015070 0.046000
v -0.001727 0.015071 0.045793
v -0.001639 0.020937 0.046545
v -0.001288 0.020914 0.047200
v -0.001473 0.015069 0.046989
v -0.000664 0.020916 0.047733
v -0.000371 0.015062 0.047881
v 0.000034 0.015059 0.047967
v -0.000171 0.015061 0.047935
v 0.000380 0.020893 0.047973
v 0.000447 0.015057 0.047967
v 0.000240 0.015059 0.047978
v 0.000788 0.020902 0.047909
v 0.000652 0.015056 0.047935
v 0.001306 0.020893 0.047681
v 0.001788 0.020911 0.047274
v 0.002036 0.020883 0.046897
v 0.002165 0.020930 0.046613
v 0.002229 0.020904 0.046309
v 0.004040 0.021185 -0.045532
v 0.004041 0.021048 -0.047263
v 0.001686 0.021026 -0.049719
v 0.001262 0.021166 -0.049750
v 0.003555 0.021230 -0.044125
v 0.004199 0.020993 0.045344
v 0.001499 0.020987 0.042218
v 0.001102 0.020994 0.042115
v 0.000451 0.020999 0.042027
v -0.003671 0.021048 0.045573
v -0.003598 0.021190 0.045926
v -0.003462 0.021176 0.046983
v 0.002167 0.021235 0.049242
v 0.003630 0.020979 0.048137
v 0.004126 0.021143 0.046471
v 0.001578 0.021207 -0.047791
v 0.000348 0.021217 -0.048166
v -0.001384 0.021047 -0.047141
v -0.001725 0.021182 -0.045425
v 0.001561 0.021064 -0.044439
v 0.001411 0.021129 0.044259
v 0.000293 0.021123 0.043915
v -0.001125 0.021021 0.044597
v -0.001795 0.021135 0.045923
v -0.001681 0.021109 0.046676
v -0.001004 0.021102 0.047588
v 0.001370 0.021205 0.047925
v 0.003923 0.021229 -0.046871
v 0.003449 0.021138 -0.048237
v 0.000622 0.021251 -0.049690
v -0.001579 0.021262 -0.049252
v -0.003383 0.021275 -0.045576
v -0.000551 0.021247 -0.042338
v 0.004034 0.021191 0.045803
v 0.003938 0.021134 0.044674
v 0.003505 0.021217 0.044036
v 0.002959 0.021229 0.043349
v 0.001921 0.021156 0.042489
v -0.001278 0.021246 0.042570
v -0.002289 0.021268 0.043309
v -0.003081 0.021271 0.044400
v 0.003639 0.021171 0.047853
v 0.003886 0.021228 0.046784
v 0.004161 0.021048 0.046826
v 0.000496 0.020922 -0.047974
v -0.000482 0.020937 -0.047832
v -0.001772 0.021142 -0.046148
v 0.002258 0.020920 -0.045948
v 0.001825 0.021004 0.044744
v -0.000337 0.020945 0.044112
v -0.000726 0.020947 0.044290
v -0.000949 0.020949 0.047556
v -0.000340 0.020976 0.047894
v 0.000017 0.020943 0.047969
v 0.002016 0.021200 0.047197
v 0.004199 0.020976 -0.046658
v -0.000637 0.021020 -0.049851
v -0.001403 0.021164 -0.049515
v -0.002366 0.021048 -0.048965
v -0.002661 0.021050 -0.048674
v -0.003160 0.021190 -0.047783
v -0.001850 0.021187 -0.042758
v -0.001174 0.021159 -0.042386
v 0.000394 0.021162 -0.042129
v 0.001879 0.021041 -0.042366
v 0.002622 0.021151 -0.042914
v 0.003390 0.020981 -0.043526
v 0.002855 0.021047 0.042981
v -0.002062 0.021052 0.042791
v -0.003672 0.021049 0.046419
v -0.001380 0.021152 0.049531
v 0.000836 0.021144 0.049871
v -0.000598 0.021253 -0.048057
v -0.001673 0.021213 -0.046933
v -0.001911 0.021257 -0.046510
v -0.001612 0.021245 -0.044861
v -0.001282 0.021123 -0.044635
v 0.002076 0.021232 -0.044645
v 0.002255 0.021099 0.045386
v 0.002387 0.021231 0.045092
v 0.001888 0.021239 0.044409
v -0.001698 0.021241 0.046933
v -0.001060 0.021256 0.047845
v 0.000167 0.021132 0.048064
v 0.002348 0.021132 0.046092
v 0.002680 0.021225 -0.048953
v -0.002689 0.021263 -0.048334
v -0.003071 0.021261 -0.044302
v -0.002480 0.021267 -0.043463
v 0.003914 0.021220 0.045472
v 0.000011 0.021249 0.042267
v -0.000402 0.021242 0.049713
v 0.003058 0.021233 0.048503
v -0.001642 0.021177 0.045176
v 0.001078 0.021063 0.047883
v 0.003905 0.020972 -0.047622
v 0.002360 0.021143 -0.045912
v -0.001497 0.021242 -0.047339
v -0.000282 0.021219 -0.043919
v 0.000579 0.021225 -0.043827
v 0.002167 0.021123 -0.045113
v -0.003540 0.021193 -0.046777
v -0.003572 0.021146 -0.045284
v 0.001641 0.021170 -0.042368
v -0.001363 0.021056 0.042385
v -0.003429 0.021259 0.045278
v -0.002881 0.021255 0.048079
v 0.002217 0.021027 -0.046499
v 0.001779 0.021050 -0.047342
v -0.000854 0.021014 -0.047632
v 0.000798 0.021095 -0.044016
v 0.004251 0.020970 -0.046006
v 0.004204 0.016469 -0.046416
v 0.004139 0.016470 -0.046827
v 0.004031 0.016470 -0.047229
v 0.003715 0.020915 -0.047993
v 0.003491 0.021002 -0.048338
v 0.003226 0.020918 -0.048664
v 0.002910 0.016478 -0.048955
v 0.002768 0.021010 -0.049100
v 0.002587 0.016479 -0.049217
v 0.002237 0.016482 -0.049444
v 0.002243 0.021133 -0.049449
v 0.001867 0.016484 -0.049633
v 0.001478 0.016487 -0.049782
v 0.001076 0.016489 -0.049890
v 0.000665 0.016491 -0.049955
v 0.000865 0.020974 -0.049933
v 0.000275 0.021015 -0.049974
v -0.000166 0.016497 -0.049955
v -0.000187 0.021098 -0.049941
v -0.000578 0.016499 -0.049890
v -0.000957 0.020943 -0.049778
v -0.001346 0.020947 -0.049628
v -0.001739 0.016506 -0.049444
v -0.001692 0.021044 -0.049450
v -0.002065 0.020951 -0.049212
v -0.002412 0.016510 -0.048955
v -0.002706 0.016512 -0.048661
v -0.002968 0.016514 -0.048337
v -0.003064 0.021059 -0.048157
v -0.003195 0.016515 -0.047988
v -0.003357 0.020959 -0.047611
v -0.003533 0.016517 -0.047229
v -0.003640 0.016518 -0.046827
v -0.003575 0.020982 -0.046992
v -0.003676 0.021056 -0.046414
v -0.003698 0.020961 -0.045994
v -0.003675 0.021056 -0.045605
v -0.003706 0.016518 -0.045584
v -0.003610 0.020961 -0.045168
v -0.003507 0.021055 -0.044792
v -0.003533 0.016517 -0.044771
v -0.003384 0.016516 -0.044382
v -0.003262 0.021060 -0.044185
v -0.003195 0.016515 -0.044012
v -0.002968 0.016514 -0.043663
v -0.002948 0.021052 -0.043681
v -0.002706 0.016512 -0.043339
v -0.002412 0.016510 -0.043045
v -0.002526 0.021056 -0.043179
v -0.002075 0.021046 -0.042799
v -0.002088 0.016508 -0.042783
v -0.001739 0.016506 -0.042556
v -0.001726 0.021044 -0.042570
v -0.001368 0.016504 -0.042367
v -0.000980 0.016501 -0.042218
v -0.001114 0.020966 -0.042274
v -0.000543 0.020942 -0.042111
v -0.000208 0.009838 -0.042044
v -0.000158 0.021035 -0.042052
v 0.000256 0.021032 -0.042028
v 0.000249 0.016494 -0.042023
v 0.000665 0.016491 -0.042045
v 0.000934 0.020954 -0.042078
v 0.001076 0.016489 -0.042110
v 0.001478 0.016487 -0.042218
v 0.001487 0.021009 -0.042216
v 0.001867 0.016484 -0.042367
v 0.002237 0.016482 -0.042556
v 0.002452 0.021042 -0.042671
v 0.002587 0.016479 -0.042783
v 0.002941 0.020978 -0.043051
v 0.003204 0.016476 -0.043339
v 0.003466 0.016474 -0.043663
v 0.003693 0.016473 -0.044012
v 0.003882 0.016472 -0.044382
v 0.003836 0.020978 -0.044226
v 0.004055 0.020976 -0.044774
v 0.004031 0.016470 -0.044771
v 0.004139 0.016470 -0.045173
v 0.004210 0.020976 -0.045410
v 0.004204 0.016469 -0.045584
v 0.004248 0.021000 0.045996
v 0.004186 0.009811 0.046000
v 0.004204 0.016469 0.045584
v 0.004139 0.016470 0.045173
v 0.004055 0.020912 0.044766
v 0.003882 0.016471 0.044383
v 0.003911 0.021028 0.044397
v 0.003717 0.020932 0.044014
v 0.003693 0.016473 0.044012
v 0.003466 0.016474 0.043663
v 0.003502 0.020996 0.043680
v 0.003238 0.021033 0.043353
v 0.003204 0.016476 0.043339
v 0.002910 0.016478 0.043045
v 0.002608 0.020922 0.042781
v 0.002259 0.020924 0.042555
v 0.001891 0.021006 0.042368
v 0.001035 0.009830 0.042110
v 0.000665 0.016491 0.042045
v 0.000249 0.016494 0.042023
v -0.000166 0.016497 0.042045
v -0.000378 0.021006 0.042077
v -0.000578 0.016499 0.042110
v -0.000980 0.016501 0.042218
v -0.000926 0.021104 0.042216
v -0.001368 0.016504 0.042367
v -0.001716 0.020949 0.042561
v -0.002088 0.016508 0.042783
v -0.002412 0.016510 0.043045
v -0.002559 0.021020 0.043212
v -0.002706 0.016512 0.043339
v -0.002968 0.016514 0.043663
v -0.002927 0.021076 0.043654
v -0.003195 0.016515 0.044012
v -0.003384 0.016516 0.044383
v -0.003276 0.021067 0.044214
v -0.003496 0.021074 0.044759
v -0.003533 0.016517 0.044771
v -0.003640 0.016518 0.045173
v -0.003605 0.021074 0.045161
v -0.003706 0.016518 0.045584
v -0.003698 0.020961 0.046006
v -0.003706 0.016518 0.046416
v -0.003610 0.020961 0.046833
v -0.003507 0.021039 0.047209
v -0.003533 0.016517 0.047229
v -0.003384 0.016516 0.047618
v -0.003351 0.021021 0.047617
v -0.003195 0.016515 0.047988
v -0.002968 0.016514 0.048337
v -0.003039 0.021020 0.048196
v -0.002672 0.021012 0.048664
v -0.002378 0.021010 0.048958
v -0.002054 0.021008 0.049219
v -0.001739 0.016506 0.049444
v -0.001497 0.020969 0.049560
v -0.001368 0.016504 0.049633
v -0.000945 0.021001 0.049782
v -0.000544 0.020942 0.049889
v -0.000136 0.021018 0.049953
v 0.000323 0.021106 0.049969
v 0.000249 0.016494 0.049977
v 0.000698 0.020934 0.049952
v 0.001109 0.020989 0.049886
v 0.001511 0.020928 0.049778
v 0.001907 0.021009 0.049621
v 0.002612 0.020984 0.049213
v 0.002546 0.009821 0.049218
v 0.002910 0.016478 0.048955
v 0.003115 0.020999 0.048785
v 0.003204 0.016476 0.048661
v 0.003466 0.016474 0.048337
v 0.003693 0.016473 0.047988
v 0.003910 0.020913 0.047611
v 0.004058 0.020992 0.047226
v 0.004139 0.016470 0.046827
v 0.004230 0.020991 0.046413
v 0.002411 0.021235 -0.046692
v 0.000862 0.021208 0.043883
v -0.000252 0.021238 0.043828
v 0.000455 0.021242 0.048318
v 0.002401 0.021199 0.046510
v 0.003950 -0.014682 -0.046825
v 0.004014 -0.014682 -0.046413
v 0.004036 -0.014683 -0.045997
v 0.003693 -0.014680 -0.047617
v 0.003842 -0.014681 -0.047227
v 0.003278 -0.014678 -0.048336
v 0.003505 -0.014679 -0.047987
v 0.002722 -0.014675 -0.048955
v 0.003016 -0.014677 -0.048660
v 0.002049 -0.014670 -0.049444
v 0.002398 -0.014673 -0.049217
v 0.001289 -0.014666 -0.049783
v 0.001678 -0.014668 -0.049634
v 0.000476 -0.014661 -0.049957
v 0.000887 -0.014663 -0.049891
v -0.000356 -0.014655 -0.049957
v 0.000060 -0.014658 -0.049979
v -0.001169 -0.014650 -0.049785
v -0.000767 -0.014653 -0.049892
v -0.001930 -0.014646 -0.049447
v -0.001559 -0.014648 -0.049636
v -0.002603 -0.014642 -0.048958
v -0.002279 -0.014644 -0.049220
v -0.003160 -0.014638 -0.048341
v -0.002898 -0.014640 -0.048664
v -0.003576 -0.014635 -0.047621
v -0.003387 -0.014637 -0.047991
v -0.003834 -0.014634 -0.046830
v -0.003725 -0.014635 -0.047232
v -0.003921 -0.014634 -0.046003
v -0.003899 -0.014634 -0.046418
v -0.003835 -0.014634 -0.045175
v -0.003900 -0.014634 -0.045587
v -0.003578 -0.014635 -0.044384
v -0.003727 -0.014635 -0.044773
v -0.003163 -0.014638 -0.043664
v -0.003389 -0.014637 -0.044013
v -0.002607 -0.014642 -0.043045
v -0.002901 -0.014640 -0.043339
v -0.001934 -0.014646 -0.042556
v -0.002283 -0.014644 -0.042783
v -0.001175 -0.014650 -0.042217
v -0.001563 -0.014648 -0.042366
v -0.000660 0.003182 -0.042109
v 0.000471 -0.014661 -0.042043
v 0.000055 -0.014658 -0.042021
v 0.001284 -0.014665 -0.042215
v 0.000882 -0.014663 -0.042108
v 0.002394 -0.014673 -0.042780
v 0.003275 -0.014678 -0.043660
v 0.003012 -0.014677 -0.043336
v 0.003691 -0.014680 -0.044379
v 0.003502 -0.014679 -0.044008
v 0.003949 -0.014682 -0.045170
v 0.003840 -0.014681 -0.044768
v 0.004014 -0.014682 -0.045582
v 0.003950 -0.014682 0.045175
v 0.004014 -0.014683 0.045587
v 0.003693 -0.014680 0.044384
v 0.003842 -0.014681 0.044773
v 0.003277 -0.014678 0.043663
v 0.003504 -0.014679 0.044013
v 0.002721 -0.014675 0.043045
v 0.003016 -0.014677 0.043340
v 0.002049 -0.014670 0.042556
v 0.002398 -0.014673 0.042783
v 0.001289 -0.014666 0.042217
v 0.001678 -0.014668 0.042366
v 0.000167 0.003177 0.042022
v -0.001170 -0.014650 0.042215
v -0.001930 -0.014646 0.042553
v -0.001558 -0.014648 0.042364
v -0.002603 -0.014642 0.043042
v -0.002279 -0.014644 0.042780
v -0.003160 -0.014638 0.043659
v -0.002897 -0.014640 0.043336
v -0.003576 -0.014635 0.044379
v -0.003387 -0.014637 0.044009
v -0.003834 -0.014634 0.045170
v -0.003726 -0.014635 0.044768
v -0.003921 -0.014634 0.045997
v -0.003899 -0.014634 0.045582
v -0.003835 -0.014634 0.046825
v -0.003900 -0.014634 0.046413
v -0.003578 -0.014635 0.047616
v -0.003727 -0.014635 0.047227
v -0.003163 -0.014638 0.048336
v -0.003389 -0.014637 0.047987
v -0.002607 -0.014642 0.048955
v -0.002901 -0.014640 0.048661
v -0.001934 -0.014646 0.049445
v -0.002283 -0.014644 0.049217
v -0.001174 -0.014650 0.049783
v -0.001563 -0.014648 0.049634
v -0.000361 -0.014655 0.049957
v -0.000772 -0.014653 0.049891
v 0.000471 -0.014661 0.049957
v 0.000055 -0.014658 0.049979
v 0.001397 0.003170 0.049783
v 0.000994 0.003172 0.049891
v 0.002268 0.020913 0.049441
v 0.001826 0.009825 0.049634
v 0.002718 -0.014675 0.048958
v 0.003275 -0.014678 0.048340
v 0.003012 -0.014677 0.048664
v 0.003691 -0.014680 0.047620
v 0.003502 -0.014679 0.047992
v 0.003949 -0.014682 0.046830
v 0.003840 -0.014681 0.047232
v 0.004014 -0.014683 0.046418
v 0.002175 0.015047 -0.046411
v 0.002208 0.015047 -0.046207
v 0.002218 0.015046 -0.046000
v 0.002047 0.015047 -0.046805
v 0.002122 0.015047 -0.046611
v 0.001841 0.015049 -0.047163
v 0.001953 0.015048 -0.046989
v 0.001564 0.015050 -0.047470
v 0.001229 0.015052 -0.047713
v 0.001403 0.015051 -0.047600
v 0.001045 0.015053 -0.047807
v 0.000447 0.015057 -0.047967
v 0.000034 0.015060 -0.047967
v 0.000240 0.015059 -0.047978
v -0.000371 0.015062 -0.047881
v -0.000171 0.015061 -0.047935
v -0.000749 0.015065 -0.047713
v -0.000564 0.015063 -0.047807
v -0.001083 0.015067 -0.047470
v -0.000922 0.015066 -0.047600
v -0.001567 0.015069 -0.046805
v -0.001473 0.015069 -0.046989
v -0.001695 0.015070 -0.046411
v -0.001641 0.015070 -0.046611
v -0.001738 0.015070 -0.046000
v -0.001727 0.015071 -0.046207
v -0.001694 0.015070 -0.045589
v -0.001727 0.015071 -0.045793
v -0.001567 0.015069 -0.045195
v -0.001641 0.015070 -0.045389
v -0.001360 0.015068 -0.044837
v -0.001473 0.015069 -0.045011
v -0.001083 0.015067 -0.044530
v -0.001230 0.015068 -0.044676
v -0.000922 0.015066 -0.044400
v -0.000371 0.015062 -0.044119
v -0.000171 0.015061 -0.044065
v 0.000852 0.015055 -0.044119
v 0.001229 0.015052 -0.044287
v 0.001045 0.015053 -0.044193
v 0.001564 0.015050 -0.044530
v 0.001403 0.015051 -0.044400
v 0.001841 0.015049 -0.044837
v 0.001710 0.015049 -0.044676
v 0.002047 0.015047 -0.045195
v 0.001953 0.015048 -0.045011
v 0.002175 0.015046 -0.045589
v 0.002122 0.015047 -0.045389
v 0.002208 0.015047 -0.045793
v 0.002175 0.015047 0.045589
v 0.002208 0.015047 0.045793
v 0.002218 0.015045 0.046000
v 0.002047 0.015047 0.045195
v 0.002122 0.015047 0.045389
v 0.001841 0.015049 0.044837
v 0.001953 0.015048 0.045011
v 0.001564 0.015050 0.044530
v 0.001229 0.015052 0.044287
v 0.001403 0.015051 0.044400
v 0.001045 0.015053 0.044193
v 0.000447 0.015057 0.044033
v 0.000034 0.015059 0.044033
v 0.000240 0.015059 0.044022
v -0.000371 0.015062 0.044119
v -0.000171 0.015061 0.044065
v -0.000749 0.015065 0.044287
v -0.000564 0.015063 0.044193
v -0.001083 0.015066 0.044530
v -0.000922 0.015066 0.044400
v -0.001230 0.015068 0.044676
v -0.001567 0.015069 0.045195
v -0.001473 0.015069 0.045011
v -0.001695 0.015070 0.045589
v -0.001641 0.015070 0.045389
v -0.001694 0.015070 0.046411
v -0.001727 0.015070 0.046207
v -0.001567 0.015069 0.046805
v -0.001641 0.015070 0.046611
v -0.001360 0.015068 0.047163
v -0.001083 0.015066 0.047470
v -0.001230 0.015068 0.047324
v -0.000749 0.015065 0.047713
v -0.000922 0.015066 0.047600
v -0.000564 0.015063 0.047807
v 0.000852 0.015055 0.047881
v 0.001229 0.015052 0.047713
v 0.001045 0.015053 0.047807
v 0.001564 0.015050 0.047470
v 0.001403 0.015051 0.047600
v 0.001841 0.015049 0.047163
v 0.001710 0.015049 0.047324
v 0.002047 0.015047 0.046805
v 0.001953 0.015048 0.046989
v 0.002175 0.015046 0.046411
v 0.002122 0.015047 0.046611
v 0.002208 0.015047 0.046207
v 0.005906 -0.015364 0.086612
v 0.005815 -0.016389 0.086612
v 0.005553 -0.017385 0.073138
v 0.005549 -0.017384 0.086612
v 0.005909 -0.015364 0.073068
v 0.005117 -0.018318 0.073138
v 0.005114 -0.018316 0.086612
v 0.004527 -0.019163 0.073138
v 0.004524 -0.019160 0.086612
v 0.003796 -0.019887 0.086612
v 0.002955 -0.020482 0.073138
v 0.002953 -0.020478 0.086612
v 0.002021 -0.020916 0.073138
v 0.002020 -0.020913 0.086612
v 0.001026 -0.021183 0.073138
v 0.001025 -0.021180 0.086612
v 0.001026 -0.021183 -0.073138
v -0.000000 -0.021273 0.073138
v -0.000000 -0.021269 0.086612
v -0.001026 -0.021180 0.086612
v -0.002021 -0.020916 0.073138
v -0.002020 -0.020913 0.086612
v -0.002955 -0.020482 0.073138
v -0.002953 -0.020478 0.086612
v -0.003796 -0.019887 0.086612
v -0.004527 -0.019163 0.073138
v -0.004524 -0.019160 0.086612
v -0.005117 -0.018318 0.073138
v -0.005114 -0.018316 0.086612
v -0.005553 -0.017385 0.073138
v -0.005550 -0.017384 0.086612
v -0.005553 -0.017385 -0.073138
v -0.005819 -0.016390 0.073138
v -0.005815 -0.016389 0.086612
v -0.005910 -0.015364 0.073138
v -0.005906 -0.015364 0.086612
v -0.005819 -0.014338 0.073138
v -0.005815 -0.014338 0.086612
v -0.005550 -0.013344 0.086612
v -0.005819 -0.014337 -0.072998
v -0.005114 -0.012412 0.086612
v -0.004524 -0.011568 0.086612
v -0.003796 -0.010840 0.086612
v -0.002953 -0.010249 0.086612
v -0.003798 -0.010838 0.073138
v -0.002020 -0.009815 0.086612
v -0.001027 -0.009544 0.071331
v -0.001026 -0.009548 0.086612
v -0.000000 -0.009455 0.073138
v -0.000000 -0.009459 0.086612
v 0.001029 -0.009547 0.085745
v 0.002021 -0.009811 0.073112
v 0.002020 -0.009815 0.086612
v 0.002953 -0.010249 0.086612
v 0.003798 -0.010838 0.073138
v 0.003796 -0.010840 0.086612
v 0.004527 -0.011565 0.073096
v 0.004524 -0.011568 0.086612
v 0.005117 -0.012410 0.073138
v 0.005114 -0.012412 0.086612
v 0.005549 -0.013344 0.086612
v 0.005819 -0.014338 0.073138
v 0.005815 -0.014338 0.086612
v 0.003798 -0.019890 0.073138
v -0.001026 -0.021183 0.073138
v -0.002955 -0.010246 0.073138
v -0.002021 -0.009811 0.073138
v 0.001026 -0.009544 0.041342
v 0.002955 -0.010246 0.073138
v 0.005553 -0.013343 0.073115
v -0.003798 -0.019890 0.073138
v -0.005910 -0.015364 -0.073138
v -0.000000 -0.009455 -0.003436
v 0.005819 -0.016390 0.072948
v 0.005117 -0.018318 -0.045942
v 0.004527 -0.019163 -0.036800
v 0.003798 -0.019890 -0.055085
v -0.000000 -0.021273 -0.073138
v -0.002955 -0.020482 -0.073138
v -0.003798 -0.019890 -0.045942
v -0.004527 -0.019163 -0.036800
v -0.005117 -0.018318 -0.055085
v -0.005553 -0.013343 0.073136
v -0.004527 -0.011565 0.073178
v -0.005117 -0.012410 0.073082
v 0.003798 -0.010838 -0.073138
v 0.005819 -0.016390 -0.073138
v 0.005909 -0.015364 -0.073138
v 0.005553 -0.017385 -0.073138
v 0.005549 -0.017384 -0.086612
v 0.005815 -0.016389 -0.086612
v 0.005906 -0.015364 -0.086612
v 0.005117 -0.018318 -0.073138
v 0.004527 -0.019162 -0.064112
v 0.004524 -0.019160 -0.086612
v 0.005114 -0.018316 -0.086612
v 0.002955 -0.020482 -0.073138
v 0.002953 -0.020478 -0.086612
v 0.003799 -0.019887 -0.085536
v 0.002021 -0.020916 -0.073138
v 0.001025 -0.021180 -0.086612
v 0.002020 -0.020913 -0.086612
v -0.001026 -0.021183 -0.073138
v -0.001026 -0.021180 -0.086612
v -0.000000 -0.021269 -0.086612
v -0.002021 -0.020916 -0.073138
v -0.002953 -0.020478 -0.086612
v -0.002020 -0.020913 -0.086612
v -0.003798 -0.019890 -0.073138
v -0.004527 -0.019162 -0.064112
v -0.004524 -0.019160 -0.086612
v -0.003796 -0.019887 -0.086612
v -0.005550 -0.017384 -0.086612
v -0.005114 -0.018320 -0.085472
v -0.005819 -0.016390 -0.073138
v -0.005906 -0.015364 -0.086612
v -0.005815 -0.016389 -0.086612
v -0.005553 -0.013343 -0.073138
v -0.005550 -0.013344 -0.086612
v -0.005815 -0.014338 -0.086612
v -0.005117 -0.012409 -0.073138
v -0.004527 -0.011565 -0.073138
v -0.004524 -0.011568 -0.086612
v -0.005114 -0.012412 -0.086612
v -0.003798 -0.010838 -0.073138
v -0.002955 -0.010246 -0.073138
v -0.002953 -0.010249 -0.086612
v -0.003796 -0.010840 -0.086612
v -0.002021 -0.009811 -0.073138
v -0.001026 -0.009544 -0.073138
v -0.001026 -0.009548 -0.086612
v -0.002020 -0.009815 -0.086612
v -0.000000 -0.009455 -0.073138
v 0.001026 -0.009544 -0.073138
v 0.001025 -0.009548 -0.086612
v -0.000000 -0.009459 -0.086612
v 0.002021 -0.009811 -0.073138
v 0.002955 -0.010246 -0.073138
v 0.002953 -0.010249 -0.086612
v 0.002020 -0.009815 -0.086612
v 0.004527 -0.011565 -0.073138
v 0.004524 -0.011568 -0.086612
v 0.003796 -0.010840 -0.086612
v 0.005117 -0.012409 -0.073316
v 0.005553 -0.013343 -0.073138
v 0.005549 -0.013344 -0.086612
v 0.005114 -0.012412 -0.086612
v 0.005819 -0.014337 -0.072628
v 0.005815 -0.014338 -0.086612
v -0.000000 -0.015364 0.091900
v -0.000095 -0.011959 0.091913
v -0.002443 -0.012882 0.091917
v -0.003467 -0.015033 0.091917
v 0.003330 -0.016238 0.091912
v -0.000000 -0.015364 -0.091900
v 0.003727 -0.017644 -0.091932
v 0.002042 -0.018098 -0.091913
v -0.000192 -0.018771 -0.091913
v -0.003170 -0.016428 -0.091909
v -0.002854 -0.013493 -0.091913
v 0.002443 -0.012882 -0.091917
v 0.005366 -0.015351 0.091879
v 0.004119 -0.018804 0.091879
v 0.003459 -0.019466 0.091879
v 0.001848 -0.020401 0.091880
v -0.005366 -0.014923 0.091881
v -0.003827 -0.011577 0.091881
v -0.000497 -0.010002 0.091881
v 0.002259 -0.010477 0.091881
v 0.004103 -0.011905 0.091879
v 0.005366 -0.015376 -0.091879
v 0.004888 -0.017645 -0.091872
v 0.003065 -0.019791 -0.091881
v 0.000920 -0.020651 -0.091879
v -0.000499 -0.020724 -0.091881
v -0.004653 -0.018036 -0.091879
v -0.005047 -0.017187 -0.091880
v -0.005366 -0.015351 -0.091879
v -0.005193 -0.013943 -0.091881
v -0.004103 -0.011905 -0.091879
v -0.001824 -0.010317 -0.091879
v -0.000920 -0.010077 -0.091879
v 0.000945 -0.010081 -0.091879
v 0.002300 -0.010495 -0.091881
v 0.004119 -0.011924 -0.091879
v 0.004892 -0.013114 -0.091881
v 0.005803 -0.016387 0.091206
v 0.005894 -0.015364 0.091206
v 0.005538 -0.017380 0.091206
v 0.005103 -0.018310 0.091206
v 0.004515 -0.019152 0.091206
v 0.003788 -0.019878 0.091206
v 0.002947 -0.020468 0.091207
v 0.001986 -0.020815 0.091427
v 0.001016 -0.021124 0.091298
v -0.000000 -0.021237 0.091235
v -0.000000 -0.021156 0.091418
v -0.001016 -0.021124 0.091298
v -0.002000 -0.020859 0.091298
v -0.002924 -0.020429 0.091298
v -0.003759 -0.019843 0.091298
v -0.004480 -0.019123 0.091298
v -0.005064 -0.018288 0.091298
v -0.005496 -0.017364 0.091298
v -0.005759 -0.016379 0.091298
v -0.005848 -0.015364 0.091298
v -0.005803 -0.014341 0.091206
v -0.005538 -0.013348 0.091206
v -0.005103 -0.012418 0.091206
v -0.004515 -0.011576 0.091206
v -0.003788 -0.010850 0.091207
v -0.002947 -0.010260 0.091206
v -0.002016 -0.009826 0.091206
v -0.001023 -0.009560 0.091205
v -0.000000 -0.009471 0.091206
v 0.001023 -0.009560 0.091206
v 0.002015 -0.009826 0.091206
v 0.002947 -0.010260 0.091206
v 0.003788 -0.010850 0.091207
v 0.004515 -0.011575 0.091206
v 0.005103 -0.012418 0.091206
v 0.005538 -0.013348 0.091206
v 0.005803 -0.014340 0.091206
v 0.005784 -0.016384 -0.091235
v 0.005519 -0.017373 -0.091235
v 0.005734 -0.016375 -0.091362
v 0.005472 -0.017356 -0.091362
v 0.005823 -0.015364 -0.091362
v 0.005873 -0.015364 -0.091235
v 0.005086 -0.018300 -0.091235
v 0.004499 -0.019139 -0.091235
v 0.005043 -0.018275 -0.091362
v 0.004461 -0.019107 -0.091362
v 0.003775 -0.019863 -0.091235
v 0.002937 -0.020451 -0.091235
v 0.003743 -0.019824 -0.091362
v 0.002912 -0.020407 -0.091362
v 0.002009 -0.020883 -0.091235
v 0.001020 -0.021148 -0.091235
v 0.001991 -0.020835 -0.091362
v 0.001011 -0.021099 -0.091362
v -0.000000 -0.021237 -0.091235
v -0.001020 -0.021148 -0.091235
v -0.000000 -0.021186 -0.091362
v -0.001011 -0.021099 -0.091362
v -0.002009 -0.020883 -0.091235
v -0.002937 -0.020451 -0.091235
v -0.001992 -0.020835 -0.091362
v -0.002896 -0.020381 -0.091418
v -0.003775 -0.019863 -0.091235
v -0.004499 -0.019139 -0.091235
v -0.003743 -0.019824 -0.091362
v -0.004461 -0.019107 -0.091362
v -0.005086 -0.018300 -0.091235
v -0.005519 -0.017373 -0.091235
v -0.005043 -0.018275 -0.091362
v -0.005472 -0.017356 -0.091362
v -0.005784 -0.016384 -0.091235
v -0.005874 -0.015364 -0.091235
v -0.005734 -0.016375 -0.091362
v -0.005823 -0.015364 -0.091362
v -0.005784 -0.014344 -0.091235
v -0.005519 -0.013355 -0.091235
v -0.005734 -0.014353 -0.091362
v -0.005472 -0.013372 -0.091362
v -0.005086 -0.012427 -0.091235
v -0.004499 -0.011589 -0.091235
v -0.005043 -0.012453 -0.091362
v -0.004461 -0.011621 -0.091362
v -0.003775 -0.010865 -0.091235
v -0.002937 -0.010277 -0.091235
v -0.003743 -0.010903 -0.091362
v -0.002912 -0.010320 -0.091362
v -0.002009 -0.009845 -0.091235
v -0.001020 -0.009580 -0.091235
v -0.001992 -0.009892 -0.091362
v -0.001011 -0.009629 -0.091362
v -0.000000 -0.009491 -0.091235
v 0.001020 -0.009580 -0.091235
v -0.000000 -0.009541 -0.091362
v 0.001011 -0.009629 -0.091362
v 0.002009 -0.009845 -0.091235
v 0.002937 -0.010277 -0.091235
v 0.001991 -0.009892 -0.091362
v 0.002912 -0.010320 -0.091362
v 0.003775 -0.010865 -0.091235
v 0.004499 -0.011589 -0.091235
v 0.003743 -0.010903 -0.091362
v 0.004461 -0.011621 -0.091362
v 0.005086 -0.012427 -0.091235
v 0.005519 -0.013355 -0.091235
v 0.005043 -0.012453 -0.091362
v 0.005472 -0.013372 -0.091362
v 0.005784 -0.014344 -0.091235
v 0.005734 -0.014353 -0.091362
v 0.005286 -0.016283 0.091879
v 0.004891 -0.017614 0.091881
v 0.002694 -0.020005 0.091879
v 0.000975 -0.020727 0.091831
v 0.000020 -0.020762 0.091862
v -0.001365 -0.020572 0.091881
v -0.004872 -0.017656 0.091881
v -0.005282 -0.016308 0.091879
v -0.005047 -0.013540 0.091879
v -0.004653 -0.012692 0.091879
v -0.002694 -0.010723 0.091880
v -0.001848 -0.010326 0.091879
v 0.000919 -0.010077 0.091879
v 0.003438 -0.011245 0.091879
v 0.004872 -0.013072 0.091881
v 0.005282 -0.014419 0.091879
v 0.005282 -0.016308 -0.091879
v 0.001822 -0.020410 -0.091880
v -0.002716 -0.020029 -0.091863
v -0.003828 -0.019151 -0.091881
v -0.005287 -0.016283 -0.091879
v -0.004641 -0.012670 -0.091879
v -0.003065 -0.010937 -0.091881
v 0.000013 -0.009998 -0.091879
v 0.003459 -0.011262 -0.091880
v 0.005286 -0.014445 -0.091879
v 0.002016 -0.020902 0.091155
v 0.001023 -0.021168 0.091155
v -0.000000 -0.021257 0.091155
v -0.001023 -0.021168 0.091155
v -0.002016 -0.020902 0.091155
v -0.002947 -0.020468 0.091155
v -0.003788 -0.019878 0.091155
v -0.004515 -0.019153 0.091155
v -0.005104 -0.018311 0.091155
v -0.005539 -0.017380 0.091155
v -0.005804 -0.016387 0.091155
v -0.005894 -0.015364 0.091155
v 0.005804 -0.016387 -0.091155
v 0.005539 -0.017380 -0.091155
v 0.005894 -0.015364 -0.091155
v 0.005104 -0.018311 -0.091155
v 0.004515 -0.019153 -0.091155
v 0.003788 -0.019878 -0.091155
v 0.002947 -0.020468 -0.091155
v 0.002016 -0.020902 -0.091155
v 0.001023 -0.021168 -0.091155
v -0.000000 -0.021257 -0.091155
v -0.001023 -0.021168 -0.091155
v -0.002016 -0.020902 -0.091155
v -0.002947 -0.020468 -0.091155
v -0.003788 -0.019878 -0.091155
v -0.004515 -0.019153 -0.091155
v -0.005104 -0.018311 -0.091155
v -0.005539 -0.017380 -0.091155
v -0.005804 -0.016387 -0.091155
v -0.005894 -0.015364 -0.091155
v -0.005804 -0.014340 -0.091155
v -0.005539 -0.013348 -0.091155
v -0.005104 -0.012417 -0.091155
v -0.004515 -0.011575 -0.091155
v -0.003788 -0.010849 -0.091155
v -0.002947 -0.010259 -0.091155
v -0.002016 -0.009826 -0.091155
v -0.001023 -0.009559 -0.091155
v -0.000000 -0.009470 -0.091155
v 0.001023 -0.009559 -0.091155
v 0.002016 -0.009826 -0.091155
v 0.002947 -0.010259 -0.091155
v 0.003788 -0.010849 -0.091155
v 0.004515 -0.011575 -0.091155
v 0.005104 -0.012417 -0.091155
v 0.005539 -0.013348 -0.091155
v 0.005804 -0.014340 -0.091155
v 0.004103 -0.018823 -0.091879
v 0.005641 -0.016359 0.091516
v 0.005729 -0.015364 0.091516
v 0.005384 -0.017323 0.091516
v 0.004961 -0.018228 0.091516
v 0.004389 -0.019047 0.091516
v 0.003682 -0.019752 0.091516
v 0.002865 -0.020325 0.091516
v -0.001486 -0.020915 0.091525
v -0.002701 -0.020099 0.091831
v -0.003482 -0.019559 0.091830
v -0.004157 -0.018891 0.091830
v -0.004961 -0.018228 0.091516
v -0.005384 -0.017323 0.091516
v -0.005641 -0.016359 0.091516
v -0.005729 -0.015364 0.091516
v -0.005641 -0.014369 0.091516
v -0.005384 -0.013404 0.091516
v -0.004961 -0.012500 0.091516
v -0.004389 -0.011681 0.091516
v -0.003682 -0.010976 0.091516
v -0.002865 -0.010402 0.091516
v -0.001959 -0.009981 0.091516
v -0.000995 -0.009722 0.091516
v -0.000000 -0.009635 0.091516
v 0.000995 -0.009722 0.091516
v 0.001959 -0.009981 0.091516
v 0.002865 -0.010402 0.091516
v 0.003682 -0.010976 0.091516
v 0.004389 -0.011681 0.091516
v 0.004961 -0.012500 0.091516
v 0.005384 -0.013404 0.091516
v 0.005641 -0.014369 0.091516
v 0.005641 -0.016359 -0.091516
v 0.005384 -0.017323 -0.091516
v 0.005729 -0.015364 -0.091516
v 0.004961 -0.018228 -0.091516
v 0.004389 -0.019046 -0.091516
v 0.003682 -0.019752 -0.091516
v 0.002865 -0.020325 -0.091516
v 0.001959 -0.020747 -0.091516
v 0.000995 -0.021006 -0.091516
v -0.000000 -0.021092 -0.091516
v -0.000995 -0.021006 -0.091516
v -0.001892 -0.020476 -0.091830
v -0.003682 -0.019752 -0.091516
v -0.004389 -0.019046 -0.091516
v -0.004961 -0.018228 -0.091516
v -0.005384 -0.017323 -0.091516
v -0.005641 -0.016359 -0.091516
v -0.005729 -0.015364 -0.091516
v -0.005641 -0.014369 -0.091516
v -0.005384 -0.013404 -0.091516
v -0.004961 -0.012500 -0.091516
v -0.004389 -0.011681 -0.091516
v -0.003682 -0.010976 -0.091516
v -0.002865 -0.010402 -0.091516
v -0.001959 -0.009981 -0.091516
v -0.000995 -0.009722 -0.091516
v -0.000000 -0.009635 -0.091516
v 0.000995 -0.009722 -0.091516
v 0.001959 -0.009981 -0.091516
v 0.002865 -0.010402 -0.091516
v 0.003682 -0.010976 -0.091516
v 0.004389 -0.011681 -0.091516
v 0.004961 -0.012500 -0.091516
v 0.005384 -0.013404 -0.091516
v 0.005641 -0.014369 -0.091516
v 0.004679 -0.017409 0.091991
v 0.004950 -0.015119 0.091974
v 0.002848 -0.019431 0.091984
v 0.001392 -0.020112 0.091984
v 0.000440 -0.020389 0.091985
v -0.000866 -0.020272 0.091984
v -0.002097 -0.019909 0.091979
v -0.004719 -0.017197 0.091991
v -0.004890 -0.014721 0.091984
v -0.004067 -0.012516 0.091984
v -0.002626 -0.011036 0.091991
v -0.001101 -0.010532 0.091974
v 0.000417 -0.010375 0.091979
v 0.002439 -0.011032 0.091984
v 0.003634 -0.011995 0.091974
v 0.004620 -0.013565 0.091984
v 0.004826 -0.017137 -0.091991
v 0.002897 -0.019511 -0.091980
v 0.000772 -0.020368 -0.091991
v -0.001285 -0.020160 -0.091984
v -0.003718 -0.018881 -0.091990
v -0.004899 -0.013923 -0.091990
v -0.003356 -0.011696 -0.091984
v -0.001360 -0.010432 -0.091987
v 0.002256 -0.010773 -0.091990
v 0.003818 -0.012160 -0.091984
v 0.002710 -0.011493 -0.091967
v 0.004695 -0.013772 -0.091984
v 0.003884 -0.013738 0.091936
v 0.002433 -0.012068 0.091921
v -0.003218 -0.011972 0.091952
v -0.004646 -0.014834 0.091952
v -0.003658 -0.017562 0.091928
v -0.003106 -0.019314 0.091973
v -0.000983 -0.019301 0.091921
v 0.001708 -0.019295 0.091928
v 0.004184 -0.017451 0.091952
v 0.004144 -0.015155 -0.091925
v -0.000285 -0.020031 -0.091952
v -0.002848 -0.018881 -0.091941
v -0.004955 -0.016055 -0.091973
v -0.003900 -0.012784 -0.091952
v -0.001527 -0.011297 -0.091930
v 0.000715 -0.011275 -0.091925
v 0.004184 -0.013276 -0.091952
f 41 1 565
f 565 566 41
f 564 565 1
f 1 2 568
f 568 564 1
f 2 3 567
f 567 568 2
f 570 567 3
f 3 4 569
f 569 570 3
f 4 5 572
f 572 569 4
f 5 6 571
f 571 572 5
f 574 571 6
f 6 7 573
f 573 574 6
f 7 8 576
f 576 573 7
f 575 576 8
f 8 9 578
f 578 575 8
f 577 578 9
f 9 10 580
f 580 577 9
f 10 11 579
f 579 580 10
f 11 12 582
f 582 579 11
f 12 13 581
f 581 582 12
f 13 14 584
f 584 581 13
f 14 15 583
f 583 584 14
f 15 16 586
f 586 583 15
f 16 17 585
f 585 586 16
f 588 585 17
f 17 18 587
f 587 588 17
f 590 587 18
f 18 19 589
f 589 590 18
f 19 20 592
f 592 589 19
f 591 592 20
f 20 21 594
f 594 591 20
f 593 594 21
f 21 22 596
f 596 593 21
f 22 23 595
f 595 596 22
f 23 24 598
f 598 595 23
f 24 25 597
f 597 598 24
f 600 597 25
f 25 26 599
f 599 600 25
f 602 599 26
f 26 27 601
f 601 602 26
f 604 601 27
f 603 604 27
f 27 28 606
f 606 603 27
f 605 606 28
f 28 29 31
f 31 605 28
f 30 31 29
f 29 32 609
f 609 30 29
f 608 609 32
f 32 33 611
f 611 608 32
f 610 611 33
f 35 610 33
f 33 36 34
f 34 35 33
f 612 34 36
f 36 38 37
f 37 612 36
f 614 37 38
f 613 614 38
f 616 613 38
f 38 39 615
f 615 616 38
f 618 615 39
f 39 40 617
f 617 618 39
f 40 41 619
f 619 617 40
f 566 619 41
f 40 39 42
f 42 41 40
f 38 42 39
f 36 42 38
f 36 33 42
f 42 33 32
f 29 42 32
f 42 29 28
f 27 42 28
f 27 26 42
f 25 42 26
f 25 24 42
f 24 23 22
f 22 42 24
f 42 22 21
f 20 42 21
f 19 18 42
f 42 20 19
f 17 42 18
f 17 16 42
f 16 15 14
f 14 42 16
f 13 12 42
f 42 14 13
f 12 11 10
f 10 42 12
f 42 10 9
f 8 42 9
f 7 6 42
f 42 8 7
f 5 42 6
f 4 3 42
f 42 5 4
f 2 42 3
f 42 2 1
f 41 42 1
f 43 44 45
f 45 46 43
f 44 47 48
f 48 45 44
f 49 50 45
f 45 48 49
f 50 51 52
f 52 45 50
f 53 54 45
f 45 52 53
f 54 55 56
f 56 45 54
f 57 58 45
f 45 56 57
f 58 59 60
f 60 45 58
f 61 62 45
f 45 60 61
f 62 63 64
f 64 45 62
f 65 66 45
f 45 64 65
f 66 67 68
f 68 45 66
f 69 70 45
f 45 68 69
f 70 71 72
f 72 45 70
f 73 74 45
f 45 72 73
f 74 75 76
f 76 45 74
f 77 78 45
f 45 76 77
f 78 79 80
f 80 45 78
f 81 82 45
f 45 80 81
f 82 83 84
f 84 45 82
f 85 86 45
f 45 84 85
f 86 87 88
f 88 45 86
f 89 90 45
f 45 88 89
f 90 91 92
f 92 45 90
f 93 94 45
f 45 92 93
f 94 95 96
f 96 45 94
f 97 98 45
f 45 96 97
f 98 99 100
f 100 45 98
f 101 102 45
f 45 100 101
f 102 103 46
f 46 45 102
f 144 104 621
f 621 105 144
f 620 621 104
f 104 106 623
f 623 620 104
f 622 623 106
f 625 622 106
f 106 107 624
f 624 625 106
f 627 624 107
f 626 627 107
f 107 108 629
f 629 626 107
f 628 629 108
f 631 628 108
f 630 631 108
f 108 109 111
f 111 630 108
f 110 111 109
f 109 112 114
f 114 110 109
f 113 114 112
f 112 115 116
f 116 113 112
f 115 117 633
f 633 116 115
f 117 118 635
f 635 633 117
f 118 119 634
f 634 635 118
f 119 120 637
f 637 634 119
f 120 121 636
f 636 637 120
f 639 636 121
f 121 122 638
f 638 639 121
f 641 638 122
f 122 123 640
f 640 641 122
f 123 124 643
f 643 640 123
f 642 643 124
f 124 125 645
f 645 642 124
f 644 645 125
f 125 126 647
f 647 644 125
f 126 127 646
f 646 647 126
f 127 128 649
f 649 646 127
f 128 129 648
f 648 649 128
f 651 648 129
f 129 130 650
f 650 651 129
f 653 650 130
f 130 131 652
f 652 653 130
f 655 652 131
f 654 655 131
f 131 132 657
f 657 654 131
f 656 657 132
f 659 656 132
f 658 659 132
f 132 133 661
f 661 658 132
f 660 661 133
f 133 134 136
f 136 660 133
f 135 136 134
f 134 139 137
f 137 135 134
f 138 137 139
f 140 138 139
f 666 140 139
f 139 141 668
f 668 666 139
f 141 142 667
f 667 668 141
f 670 667 142
f 142 143 669
f 669 670 142
f 672 669 143
f 671 672 143
f 143 144 673
f 673 671 143
f 105 673 144
f 145 144 143
f 142 145 143
f 142 141 145
f 139 145 141
f 134 145 139
f 145 134 133
f 132 145 133
f 131 145 132
f 131 130 145
f 129 145 130
f 129 128 145
f 128 127 126
f 126 145 128
f 145 126 125
f 124 145 125
f 123 122 145
f 145 124 123
f 121 145 122
f 121 120 145
f 120 119 118
f 118 145 120
f 117 115 145
f 145 118 117
f 112 145 115
f 145 112 109
f 108 145 109
f 107 145 108
f 107 106 145
f 145 106 104
f 144 145 104
f 146 147 148
f 148 149 146
f 147 150 151
f 151 148 147
f 152 153 148
f 148 151 152
f 153 154 155
f 155 148 153
f 156 157 148
f 148 155 156
f 157 158 159
f 159 148 157
f 160 161 148
f 148 159 160
f 161 162 163
f 163 148 161
f 164 165 148
f 148 163 164
f 165 166 167
f 167 148 165
f 168 169 148
f 148 167 168
f 169 170 171
f 171 148 169
f 172 173 148
f 148 171 172
f 173 174 175
f 175 148 173
f 176 177 148
f 148 175 176
f 177 178 179
f 179 148 177
f 180 181 148
f 148 179 180
f 181 182 183
f 183 148 181
f 184 185 148
f 148 183 184
f 185 186 187
f 187 148 185
f 188 189 148
f 148 187 188
f 189 190 191
f 191 148 189
f 192 193 148
f 148 191 192
f 193 194 195
f 195 148 193
f 196 197 148
f 148 195 196
f 197 198 199
f 199 148 197
f 200 201 148
f 148 199 200
f 201 202 203
f 203 148 201
f 204 205 148
f 148 203 204
f 205 206 149
f 149 148 205
f 316 559 293
f 318 316 374
f 361 318 319
f 320 377 207
f 208 207 377
f 366 208 293
f 293 559 366
f 209 381 331
f 331 325 209
f 369 368 209
f 369 209 325
f 210 369 325
f 328 210 379
f 211 328 329
f 213 211 329
f 329 212 213
f 371 212 214
f 215 371 214
f 216 215 301
f 301 381 216
f 209 216 381
f 336 396 217
f 674 675 217
f 675 676 336
f 336 217 675
f 218 217 396
f 219 218 396
f 677 678 218
f 218 219 677
f 678 674 217
f 217 218 678
f 219 397 220
f 679 680 219
f 219 220 679
f 680 677 219
f 221 220 397
f 681 222 220
f 220 221 681
f 222 679 220
f 223 221 397
f 682 683 221
f 221 223 682
f 683 681 221
f 225 684 224
f 684 682 223
f 223 224 684
f 685 226 333
f 226 225 224
f 224 333 226
f 686 687 333
f 333 227 686
f 687 685 333
f 227 334 228
f 688 689 227
f 227 228 688
f 689 686 227
f 690 691 334
f 334 398 690
f 691 688 228
f 228 334 691
f 692 693 398
f 398 229 692
f 693 690 398
f 398 306 229
f 230 231 229
f 231 692 229
f 232 229 306
f 306 233 232
f 694 695 232
f 695 230 229
f 229 232 695
f 233 335 234
f 696 697 233
f 233 234 696
f 697 694 232
f 232 233 697
f 235 234 335
f 698 699 234
f 234 235 698
f 699 696 234
f 700 701 235
f 701 698 235
f 236 235 307
f 307 237 236
f 702 703 236
f 703 700 235
f 235 236 703
f 704 705 237
f 237 238 704
f 705 702 236
f 236 237 705
f 237 365 238
f 706 707 238
f 707 704 238
f 365 239 238
f 240 708 238
f 238 239 240
f 708 706 238
f 709 241 242
f 241 240 239
f 239 242 241
f 243 710 242
f 710 709 242
f 242 399 244
f 245 244 399
f 246 247 244
f 244 245 246
f 247 243 242
f 242 244 247
f 711 248 245
f 248 246 245
f 399 308 249
f 249 245 399
f 712 713 245
f 245 249 712
f 713 711 245
f 250 249 308
f 714 715 250
f 715 712 249
f 249 250 715
f 716 717 250
f 717 714 250
f 250 389 251
f 252 251 389
f 718 719 251
f 251 252 718
f 719 716 250
f 250 251 719
f 252 385 253
f 720 721 252
f 252 253 720
f 721 718 252
f 385 336 253
f 676 722 253
f 253 336 676
f 722 720 253
f 373 367 254
f 723 724 254
f 724 725 254
f 726 727 254
f 254 255 726
f 727 723 254
f 256 255 337
f 728 729 255
f 255 256 728
f 729 726 255
f 730 258 256
f 256 257 730
f 258 728 256
f 257 309 259
f 731 732 257
f 257 259 731
f 732 730 257
f 309 310 259
f 260 733 259
f 733 731 259
f 310 261 259
f 734 262 259
f 259 261 734
f 262 260 259
f 735 736 263
f 736 734 261
f 261 263 736
f 263 338 264
f 737 738 264
f 264 338 737
f 738 735 263
f 263 264 738
f 739 740 339
f 740 737 338
f 338 339 740
f 741 742 339
f 339 311 741
f 742 739 339
f 266 743 311
f 311 265 266
f 743 741 311
f 265 382 267
f 268 267 382
f 744 745 267
f 267 268 744
f 745 266 265
f 265 267 745
f 746 747 268
f 747 744 268
f 312 313 269
f 269 268 312
f 270 271 268
f 268 269 270
f 271 746 268
f 272 269 313
f 748 749 272
f 749 270 269
f 269 272 749
f 750 751 272
f 751 748 272
f 272 313 273
f 752 274 273
f 274 750 272
f 272 273 274
f 753 754 273
f 273 340 753
f 754 752 273
f 755 756 275
f 756 753 340
f 340 275 756
f 276 757 275
f 275 341 276
f 757 755 275
f 277 278 341
f 341 342 277
f 278 276 341
f 342 372 279
f 372 383 279
f 280 281 279
f 281 277 342
f 342 279 281
f 282 279 383
f 758 283 282
f 283 280 279
f 279 282 283
f 759 760 284
f 760 758 282
f 282 284 760
f 285 284 383
f 761 762 284
f 284 285 761
f 762 759 284
f 763 764 285
f 764 761 285
f 286 285 343
f 343 287 286
f 765 766 286
f 766 763 285
f 285 286 766
f 767 768 287
f 287 288 767
f 768 765 286
f 286 287 768
f 288 373 254
f 725 769 288
f 288 254 725
f 769 767 288
f 289 400 344
f 344 316 289
f 316 344 290
f 290 384 317
f 319 346 347
f 348 375 319
f 319 347 348
f 375 348 429
f 429 349 375
f 390 437 391
f 391 440 443
f 443 376 391
f 376 443 446
f 449 377 376
f 376 446 449
f 450 350 377
f 377 449 450
f 350 450 453
f 321 351 459
f 460 352 321
f 321 459 460
f 392 469 354
f 354 471 355
f 355 293 354
f 293 355 476
f 293 476 477
f 480 289 293
f 293 477 480
f 289 480 400
f 323 294 488
f 295 210 326
f 210 295 296
f 210 296 297
f 297 379 210
f 503 506 379
f 379 297 503
f 393 327 506
f 511 328 357
f 328 511 514
f 529 395 300
f 395 529 532
f 395 532 533
f 534 214 395
f 395 533 534
f 214 534 535
f 214 535 359
f 359 539 380
f 547 301 360
f 301 547 548
f 551 381 301
f 301 548 551
f 302 330 551
f 233 362 335
f 316 290 317
f 346 319 419
f 392 208 352
f 323 378 322
f 359 380 214
f 215 380 542
f 215 360 301
f 332 331 330
f 332 303 331
f 219 396 397
f 223 333 224
f 333 223 305
f 305 227 333
f 361 334 227
f 227 305 361
f 334 361 398
f 307 235 335
f 387 242 239
f 242 387 388
f 388 399 242
f 250 308 389
f 252 389 385
f 336 385 396
f 363 335 362
f 366 399 388
f 389 366 385
f 368 369 367
f 213 312 382
f 312 213 370
f 562 315 372
f 374 316 317
f 292 318 374
f 419 319 318
f 375 320 319
f 375 349 390
f 390 320 375
f 376 377 320
f 377 350 351
f 377 351 321
f 321 208 377
f 321 352 208
f 208 392 354
f 354 293 208
f 293 289 316
f 378 323 324
f 324 325 331
f 331 378 324
f 326 210 325
f 328 379 327
f 329 394 212
f 394 299 212
f 212 300 395
f 395 214 212
f 380 215 214
f 381 330 331
f 322 378 331
f 331 303 322
f 367 255 254
f 367 337 255
f 337 257 256
f 257 337 309
f 263 261 310
f 310 338 263
f 382 265 311
f 268 382 312
f 314 273 313
f 314 340 273
f 275 340 341
f 383 284 282
f 288 287 373
f 405 317 384
f 408 374 317
f 408 411 374
f 374 411 291
f 292 416 417
f 292 417 419
f 345 346 419
f 346 345 424
f 466 392 352
f 392 466 353
f 492 324 323
f 324 492 493
f 356 325 493
f 356 498 326
f 298 394 521
f 526 300 358
f 541 380 539
f 380 541 542
f 547 360 545
f 556 330 302
f 330 556 332
f 332 558 303
f 396 385 559
f 397 559 304
f 223 304 305
f 398 361 386
f 386 306 398
f 306 386 362
f 364 365 307
f 308 399 366
f 308 366 389
f 310 560 561
f 311 211 382
f 313 312 370
f 313 370 371
f 562 372 371
f 291 292 374
f 318 292 419
f 391 320 390
f 391 376 320
f 392 353 469
f 322 482 294
f 322 294 323
f 493 325 324
f 356 326 325
f 379 506 327
f 327 393 357
f 327 357 328
f 514 329 328
f 329 514 517
f 518 329 517
f 329 518 521
f 329 521 394
f 298 299 394
f 358 212 299
f 212 358 300
f 360 215 542
f 381 551 330
f 482 322 303
f 396 559 397
f 304 223 397
f 362 233 306
f 365 237 307
f 239 365 207
f 239 207 387
f 369 337 367
f 337 369 309
f 560 310 309
f 561 338 310
f 561 339 338
f 339 561 211
f 211 311 339
f 371 314 313
f 340 314 371
f 371 341 340
f 341 371 372
f 372 342 341
f 315 383 372
f 315 285 383
f 285 315 343
f 563 287 343
f 287 563 373
f 401 344 400
f 344 401 402
f 344 402 403
f 403 290 344
f 290 403 384
f 404 405 384
f 317 405 406
f 406 408 317
f 407 408 406
f 408 407 409
f 410 411 408
f 408 409 410
f 411 410 412
f 412 291 411
f 291 412 413
f 292 291 416
f 291 413 414
f 414 416 291
f 416 414 415
f 416 415 417
f 418 419 417
f 419 418 420
f 420 345 419
f 345 420 421
f 345 421 422
f 422 424 345
f 423 424 422
f 346 424 425
f 425 347 346
f 424 423 425
f 426 347 425
f 347 426 427
f 427 348 347
f 428 429 348
f 348 427 428
f 429 428 430
f 429 430 431
f 349 429 431
f 349 431 434
f 434 390 349
f 432 434 431
f 434 432 433
f 434 435 390
f 434 433 435
f 436 437 390
f 390 435 436
f 438 437 436
f 437 438 439
f 439 440 391
f 391 437 439
f 441 440 439
f 442 443 440
f 440 441 442
f 443 442 444
f 445 446 443
f 443 444 445
f 446 445 447
f 447 449 446
f 449 447 448
f 449 448 451
f 451 450 449
f 452 453 450
f 450 451 452
f 350 453 456
f 456 351 350
f 453 452 454
f 454 456 453
f 456 454 455
f 351 456 457
f 457 459 351
f 456 455 457
f 458 459 457
f 459 458 461
f 461 460 459
f 462 463 460
f 460 461 462
f 352 460 463
f 463 466 352
f 463 462 464
f 465 466 463
f 463 464 465
f 466 465 467
f 467 353 466
f 468 469 353
f 353 467 468
f 469 468 470
f 469 470 471
f 354 469 471
f 472 355 471
f 355 472 473
f 355 473 474
f 474 476 355
f 476 474 475
f 476 475 478
f 478 477 476
f 479 480 477
f 477 478 479
f 480 479 481
f 480 481 400
f 482 483 484
f 484 294 482
f 294 484 485
f 486 488 294
f 294 485 486
f 487 488 486
f 323 488 489
f 489 492 323
f 488 487 490
f 490 489 488
f 491 492 489
f 489 490 491
f 492 491 494
f 494 493 492
f 495 356 493
f 493 494 495
f 356 495 496
f 497 498 356
f 356 496 497
f 326 498 295
f 499 296 295
f 500 297 296
f 296 499 500
f 297 500 501
f 502 503 297
f 297 501 502
f 503 502 504
f 505 506 503
f 503 504 505
f 506 505 507
f 507 393 506
f 393 507 508
f 393 508 357
f 509 357 508
f 510 511 357
f 357 509 510
f 511 510 512
f 513 514 511
f 511 512 513
f 514 513 515
f 515 517 514
f 517 515 516
f 517 516 519
f 519 518 517
f 520 521 518
f 518 519 520
f 521 520 522
f 522 298 521
f 298 522 523
f 523 299 298
f 299 523 358
f 524 358 523
f 358 524 525
f 525 526 358
f 527 526 525
f 528 529 526
f 526 527 528
f 300 526 529
f 529 528 530
f 530 532 529
f 532 530 531
f 532 531 533
f 536 537 535
f 537 359 535
f 537 536 538
f 537 538 539
f 359 537 539
f 540 541 539
f 543 542 541
f 542 543 544
f 360 542 544
f 360 544 545
f 546 547 545
f 665 547 546
f 547 665 664
f 547 664 548
f 549 548 664
f 550 551 548
f 548 549 550
f 551 550 552
f 553 302 551
f 551 552 553
f 302 553 554
f 302 554 555
f 555 556 302
f 557 332 556
f 332 557 558
f 483 482 558
f 303 558 482
f 316 304 559
f 304 316 318
f 318 305 304
f 318 361 305
f 319 386 361
f 319 363 386
f 362 386 363
f 335 363 307
f 363 319 320
f 320 307 363
f 320 364 307
f 364 320 207
f 365 364 207
f 208 387 207
f 208 388 387
f 208 366 388
f 385 366 559
f 373 563 368
f 209 368 563
f 368 367 373
f 560 309 369
f 560 369 210
f 210 561 560
f 561 210 328
f 328 211 561
f 211 213 382
f 370 213 212
f 370 212 371
f 562 371 215
f 562 215 216
f 216 343 562
f 315 562 343
f 216 563 343
f 563 216 209
f 564 402 401
f 401 565 564
f 400 566 565
f 565 401 400
f 567 384 403
f 403 568 567
f 402 564 568
f 568 403 402
f 569 405 404
f 404 570 569
f 384 567 570
f 570 404 384
f 571 407 406
f 406 572 571
f 405 569 572
f 572 406 405
f 573 410 409
f 409 574 573
f 407 571 574
f 574 409 407
f 575 413 412
f 412 576 575
f 410 573 576
f 576 412 410
f 577 415 414
f 414 578 577
f 413 575 578
f 578 414 413
f 579 418 417
f 417 580 579
f 415 577 580
f 580 417 415
f 581 421 420
f 420 582 581
f 418 579 582
f 582 420 418
f 583 423 422
f 422 584 583
f 421 581 584
f 584 422 421
f 585 426 425
f 425 586 585
f 423 583 586
f 586 425 423
f 587 428 427
f 427 588 587
f 426 585 588
f 588 427 426
f 589 431 430
f 430 590 589
f 428 587 590
f 590 430 428
f 591 433 432
f 432 592 591
f 431 589 592
f 592 432 431
f 593 436 435
f 435 594 593
f 433 591 594
f 594 435 433
f 595 439 438
f 438 596 595
f 436 593 596
f 596 438 436
f 597 442 441
f 441 598 597
f 439 595 598
f 598 441 439
f 599 445 444
f 444 600 599
f 442 597 600
f 600 444 442
f 601 448 447
f 447 602 601
f 445 599 602
f 602 447 445
f 603 452 451
f 451 604 603
f 448 601 604
f 604 451 448
f 605 455 454
f 454 606 605
f 452 603 606
f 606 454 452
f 30 458 607
f 607 31 30
f 457 607 458
f 455 605 607
f 607 457 455
f 31 607 605
f 608 462 461
f 461 609 608
f 609 461 458
f 458 30 609
f 610 465 464
f 464 611 610
f 462 608 611
f 611 464 462
f 34 468 467
f 467 35 34
f 465 610 35
f 35 467 465
f 37 471 470
f 470 612 37
f 468 34 612
f 612 470 468
f 613 473 472
f 472 614 613
f 471 37 614
f 614 472 471
f 615 475 474
f 474 616 615
f 473 613 616
f 616 474 473
f 617 479 478
f 478 618 617
f 475 615 618
f 618 478 475
f 566 400 481
f 481 619 566
f 479 617 619
f 619 481 479
f 620 485 484
f 484 621 620
f 621 484 483
f 483 105 621
f 622 487 486
f 486 623 622
f 485 620 623
f 623 486 485
f 624 491 490
f 490 625 624
f 487 622 625
f 625 490 487
f 626 495 494
f 494 627 626
f 491 624 627
f 627 494 491
f 628 497 496
f 496 629 628
f 495 626 629
f 629 496 495
f 630 295 498
f 498 631 630
f 497 628 631
f 631 498 497
f 499 111 110
f 110 500 499
f 295 630 499
f 111 499 630
f 632 114 113
f 113 502 501
f 501 632 113
f 500 110 632
f 632 501 500
f 114 632 110
f 633 505 504
f 504 116 633
f 502 113 116
f 116 504 502
f 634 508 507
f 507 635 634
f 505 633 635
f 635 507 505
f 636 510 509
f 509 637 636
f 508 634 637
f 637 509 508
f 638 513 512
f 512 639 638
f 510 636 639
f 639 512 510
f 640 516 515
f 515 641 640
f 513 638 641
f 641 515 513
f 642 520 519
f 519 643 642
f 516 640 643
f 643 519 516
f 644 523 522
f 522 645 644
f 520 642 645
f 645 522 520
f 646 525 524
f 524 647 646
f 523 644 647
f 647 524 523
f 648 528 527
f 527 649 648
f 525 646 649
f 649 527 525
f 650 531 530
f 530 651 650
f 528 648 651
f 651 530 528
f 652 534 533
f 533 653 652
f 531 650 653
f 653 533 531
f 654 536 535
f 535 655 654
f 534 652 655
f 655 535 534
f 656 539 538
f 538 657 656
f 536 654 657
f 657 538 536
f 658 541 540
f 540 659 658
f 539 656 659
f 659 540 539
f 660 544 543
f 543 661 660
f 541 658 661
f 661 543 541
f 135 662 663
f 663 136 135
f 662 546 545
f 545 663 662
f 544 660 663
f 663 545 544
f 136 663 660
f 138 664 665
f 665 137 138
f 546 662 665
f 662 135 137
f 137 665 662
f 549 140 666
f 666 550 549
f 664 138 140
f 140 549 664
f 667 553 552
f 552 668 667
f 550 666 668
f 668 552 550
f 669 555 554
f 554 670 669
f 553 667 670
f 670 554 553
f 671 557 556
f 556 672 671
f 555 669 672
f 672 556 555
f 105 483 673
f 558 673 483
f 557 671 673
f 673 558 557
f 674 47 44
f 44 675 674
f 43 676 675
f 675 44 43
f 677 49 48
f 48 678 677
f 47 674 678
f 678 48 47
f 679 51 50
f 50 680 679
f 49 677 680
f 680 50 49
f 681 53 52
f 52 222 681
f 51 679 222
f 222 52 51
f 682 55 54
f 54 683 682
f 53 681 683
f 683 54 53
f 225 57 56
f 56 684 225
f 55 682 684
f 684 56 55
f 685 59 58
f 58 226 685
f 57 225 226
f 226 58 57
f 686 61 60
f 60 687 686
f 59 685 687
f 687 60 59
f 688 63 62
f 62 689 688
f 61 686 689
f 689 62 61
f 690 65 64
f 64 691 690
f 63 688 691
f 691 64 63
f 692 67 66
f 66 693 692
f 65 690 693
f 693 66 65
f 230 69 68
f 68 231 230
f 67 692 231
f 231 68 67
f 694 71 70
f 70 695 694
f 69 230 695
f 695 70 69
f 696 73 72
f 72 697 696
f 71 694 697
f 697 72 71
f 698 75 74
f 74 699 698
f 73 696 699
f 699 74 73
f 700 77 76
f 76 701 700
f 75 698 701
f 701 76 75
f 702 79 78
f 78 703 702
f 77 700 703
f 703 78 77
f 704 81 80
f 80 705 704
f 79 702 705
f 705 80 79
f 706 83 82
f 82 707 706
f 81 704 707
f 707 82 81
f 240 85 84
f 84 708 240
f 83 706 708
f 708 84 83
f 709 87 86
f 86 241 709
f 85 240 241
f 241 86 85
f 243 89 88
f 88 710 243
f 87 709 710
f 710 88 87
f 246 91 90
f 90 247 246
f 89 243 247
f 247 90 89
f 711 93 92
f 92 248 711
f 91 246 248
f 248 92 91
f 712 95 94
f 94 713 712
f 93 711 713
f 713 94 93
f 714 97 96
f 96 715 714
f 95 712 715
f 715 96 95
f 716 99 98
f 98 717 716
f 97 714 717
f 717 98 97
f 718 101 100
f 100 719 718
f 99 716 719
f 719 100 99
f 720 103 102
f 102 721 720
f 101 718 721
f 721 102 101
f 676 43 46
f 46 722 676
f 103 720 722
f 722 46 103
f 723 150 147
f 147 724 723
f 146 725 724
f 724 147 146
f 726 152 151
f 151 727 726
f 150 723 727
f 727 151 150
f 728 154 153
f 153 729 728
f 152 726 729
f 729 153 152
f 730 156 155
f 155 258 730
f 154 728 258
f 258 155 154
f 731 158 157
f 157 732 731
f 156 730 732
f 732 157 156
f 260 160 159
f 159 733 260
f 158 731 733
f 733 159 158
f 734 162 161
f 161 262 734
f 160 260 262
f 262 161 160
f 735 164 163
f 163 736 735
f 162 734 736
f 736 163 162
f 737 166 165
f 165 738 737
f 164 735 738
f 738 165 164
f 739 168 167
f 167 740 739
f 166 737 740
f 740 167 166
f 741 170 169
f 169 742 741
f 168 739 742
f 742 169 168
f 266 172 171
f 171 743 266
f 170 741 743
f 743 171 170
f 744 174 173
f 173 745 744
f 172 266 745
f 745 173 172
f 746 176 175
f 175 747 746
f 174 744 747
f 747 175 174
f 270 178 177
f 177 271 270
f 176 746 271
f 271 177 176
f 748 180 179
f 179 749 748
f 178 270 749
f 749 179 178
f 750 182 181
f 181 751 750
f 180 748 751
f 751 181 180
f 752 184 183
f 183 274 752
f 182 750 274
f 274 183 182
f 753 186 185
f 185 754 753
f 184 752 754
f 754 185 184
f 755 188 187
f 187 756 755
f 186 753 756
f 756 187 186
f 276 190 189
f 189 757 276
f 188 755 757
f 757 189 188
f 277 192 191
f 191 278 277
f 190 276 278
f 278 191 190
f 280 194 193
f 193 281 280
f 192 277 281
f 281 193 192
f 758 196 195
f 195 283 758
f 194 280 283
f 283 195 194
f 759 198 197
f 197 760 759
f 196 758 760
f 760 197 196
f 761 200 199
f 199 762 761
f 198 759 762
f 762 199 198
f 763 202 201
f 201 764 763
f 200 761 764
f 764 201 200
f 765 204 203
f 203 766 765
f 202 763 766
f 766 203 202
f 767 206 205
f 205 768 767
f 204 765 768
f 768 205 204
f 725 146 149
f 149 769 725
f 206 767 769
f 769 149 206
f 843 774 770
f 770 771 843
f 772 843 771
f 771 773 772
f 843 772 858
f 775 772 773
f 773 776 775
f 777 775 776
f 776 778 777
f 775 858 772
f 833 777 778
f 778 779 833
f 780 833 779
f 779 781 780
f 782 780 781
f 781 783 782
f 784 782 783
f 783 785 784
f 782 784 786
f 786 869 782
f 780 782 869
f 787 784 785
f 785 788 787
f 834 787 788
f 788 789 834
f 834 847 787
f 784 787 847
f 847 786 784
f 790 834 789
f 789 791 790
f 792 790 791
f 791 793 792
f 790 792 848
f 848 875 790
f 834 790 875
f 840 792 793
f 793 794 840
f 795 840 794
f 794 796 795
f 840 848 792
f 797 795 796
f 796 798 797
f 799 797 798
f 798 800 799
f 797 799 801
f 802 799 800
f 800 803 802
f 804 802 803
f 803 805 804
f 802 804 841
f 802 801 799
f 806 804 805
f 805 807 806
f 852 806 807
f 807 808 852
f 852 809 806
f 804 806 809
f 809 841 804
f 854 852 808
f 808 810 854
f 853 854 810
f 810 811 853
f 814 853 811
f 811 812 814
f 835 814 812
f 812 813 835
f 836 835 813
f 813 815 836
f 816 836 815
f 815 817 816
f 818 816 817
f 817 819 818
f 820 818 819
f 818 820 837
f 837 842 818
f 816 818 842
f 820 822 821
f 838 821 822
f 822 823 838
f 821 837 820
f 824 838 823
f 823 825 824
f 826 824 825
f 825 827 826
f 826 855 824
f 838 824 855
f 828 826 827
f 827 829 828
f 839 828 829
f 829 830 839
f 839 913 828
f 826 828 913
f 831 839 830
f 830 832 831
f 774 831 832
f 832 770 774
f 774 917 831
f 839 831 917
f 842 837 903
f 821 903 837
f 858 775 844
f 845 844 775
f 775 777 845
f 844 845 863
f 833 845 777
f 780 846 833
f 845 833 846
f 846 863 845
f 848 840 849
f 850 849 840
f 840 795 850
f 849 850 879
f 797 850 795
f 801 851 797
f 850 797 851
f 851 879 850
f 856 857 774
f 774 843 856
f 858 856 843
f 856 858 859
f 859 860 856
f 857 856 860
f 860 861 857
f 858 844 862
f 863 862 844
f 862 863 864
f 864 865 862
f 858 862 865
f 865 859 858
f 863 846 868
f 866 868 846
f 846 780 866
f 868 866 867
f 868 864 863
f 869 866 780
f 869 786 870
f 870 871 869
f 866 869 871
f 871 867 866
f 847 834 872
f 847 872 873
f 873 874 847
f 786 847 874
f 874 870 786
f 875 872 834
f 875 848 876
f 876 877 875
f 872 875 877
f 877 873 872
f 848 849 878
f 879 878 849
f 878 879 880
f 880 881 878
f 848 878 881
f 881 876 848
f 879 851 883
f 801 883 851
f 883 801 882
f 883 880 879
f 801 802 884
f 841 884 802
f 884 841 885
f 885 886 884
f 801 884 886
f 886 882 801
f 809 852 887
f 809 887 888
f 888 889 809
f 841 809 889
f 889 885 841
f 890 887 852
f 852 854 890
f 891 890 854
f 854 853 891
f 890 891 892
f 892 893 890
f 887 890 893
f 893 888 887
f 894 891 853
f 853 814 894
f 895 894 814
f 814 835 895
f 894 895 896
f 896 897 894
f 891 894 897
f 897 892 891
f 898 895 835
f 835 836 898
f 899 898 836
f 836 816 899
f 898 899 900
f 900 901 898
f 895 898 901
f 901 896 895
f 902 899 816
f 816 842 902
f 903 902 842
f 902 903 904
f 904 905 902
f 899 902 905
f 905 900 899
f 903 821 906
f 907 906 821
f 821 838 907
f 906 907 908
f 908 909 906
f 903 906 909
f 909 904 903
f 855 907 838
f 855 826 910
f 855 910 911
f 911 912 855
f 907 855 912
f 912 908 907
f 913 910 826
f 913 839 914
f 913 914 915
f 915 916 913
f 910 913 916
f 916 911 910
f 917 914 839
f 917 774 857
f 917 857 861
f 861 918 917
f 914 917 918
f 918 915 914
f 919 923 1235
f 1235 1236 919
f 1236 920 919
f 921 919 920
f 922 919 921
f 1239 919 922
f 1239 1241 919
f 1242 919 1241
f 923 919 1242
f 925 924 1244
f 924 925 926
f 924 926 927
f 924 927 1246
f 1246 928 924
f 924 928 929
f 924 929 1249
f 1250 924 1249
f 930 924 1250
f 1244 924 930
f 1065 1140 1141
f 1141 931 1065
f 1140 1065 1066
f 1066 1142 1140
f 1066 1143 1142
f 1143 1066 932
f 932 1144 1143
f 933 1145 1144
f 1144 932 933
f 1145 933 1067
f 1067 1146 1145
f 934 963 1146
f 1146 1067 934
f 963 934 1068
f 1070 1147 1069
f 1147 1070 1148
f 1071 1151 1150
f 1071 1152 1151
f 1072 1153 1152
f 1152 1071 1072
f 1153 1072 935
f 935 1154 1153
f 935 1155 1154
f 1155 935 1073
f 1073 1156 1155
f 1074 1157 1156
f 1156 1073 1074
f 1157 1074 936
f 936 1158 1157
f 936 1159 1158
f 1159 936 1075
f 1075 1160 1159
f 1076 1161 1160
f 1160 1075 1076
f 1161 1076 937
f 937 1162 1161
f 937 1163 1162
f 1163 937 1077
f 1077 1164 1163
f 938 1165 1164
f 1164 1077 938
f 938 1166 1165
f 1078 1167 1166
f 1166 938 1078
f 1167 1078 939
f 939 1168 1167
f 1079 1169 1168
f 1168 939 1079
f 1079 1170 1169
f 1080 1171 1170
f 1170 1079 1080
f 1171 1080 931
f 931 1141 1171
f 1081 1172 1173
f 1173 941 1081
f 1172 1081 940
f 940 1174 1172
f 941 1175 1176
f 1176 1139 941
f 941 1173 1175
f 942 1177 1178
f 1177 942 1139
f 1139 1176 1177
f 1082 1179 1180
f 1180 943 1082
f 1179 1082 942
f 942 1178 1179
f 944 1181 1182
f 1181 944 943
f 943 1180 1181
f 944 1182 1183
f 1084 1184 1185
f 1184 1084 1083
f 945 1186 1187
f 1187 946 945
f 1186 945 1084
f 1084 1185 1186
f 1085 1188 1189
f 1189 947 1085
f 1188 1085 946
f 946 1187 1188
f 948 1190 1191
f 1190 948 947
f 947 1189 1190
f 1086 1192 1193
f 1193 949 1086
f 1192 1086 948
f 948 1191 1192
f 1087 1194 1195
f 1194 1087 949
f 949 1193 1194
f 950 1196 1197
f 1197 951 950
f 1196 950 1087
f 1087 1195 1196
f 1088 1198 1199
f 1199 952 1088
f 1198 1088 951
f 951 1197 1198
f 953 1200 1201
f 1200 953 952
f 952 1199 1200
f 1089 1202 1203
f 1203 954 1089
f 1202 1089 953
f 953 1201 1202
f 955 1204 1205
f 1204 955 954
f 954 1203 1204
f 1090 1206 1174
f 1174 940 1090
f 1206 1090 955
f 955 1205 1206
f 966 965 964
f 965 966 967
f 995 993 994
f 994 996 995
f 993 995 997
f 997 998 993
f 1001 999 1000
f 1000 1002 1001
f 999 1001 996
f 996 994 999
f 1005 1003 1004
f 1004 1006 1005
f 1003 1005 1002
f 1002 1000 1003
f 1009 1007 1008
f 1008 1010 1009
f 1007 1009 1006
f 1006 1004 1007
f 1013 1011 1012
f 1012 1014 1013
f 1011 1013 1010
f 1010 1008 1011
f 1017 1015 1016
f 1016 1018 1017
f 1015 1017 1014
f 1014 1012 1015
f 1021 1019 1020
f 1020 1022 1021
f 1019 1021 1018
f 1018 1016 1019
f 1025 1023 1024
f 1024 1026 1025
f 1023 1025 1022
f 1022 1020 1023
f 1029 1027 1028
f 1028 1030 1029
f 1027 1029 1026
f 1026 1024 1027
f 1033 1031 1032
f 1032 1034 1033
f 1031 1033 1030
f 1030 1028 1031
f 1037 1035 1036
f 1036 1038 1037
f 1035 1037 1034
f 1034 1032 1035
f 1041 1039 1040
f 1040 1042 1041
f 1039 1041 1038
f 1038 1036 1039
f 1045 1043 1044
f 1044 1046 1045
f 1043 1045 1042
f 1042 1040 1043
f 1049 1047 1048
f 1048 1050 1049
f 1047 1049 1046
f 1046 1044 1047
f 1053 1051 1052
f 1052 1054 1053
f 1051 1053 1050
f 1050 1048 1051
f 1057 1055 1056
f 1056 1058 1057
f 1055 1057 1054
f 1054 1052 1055
f 1061 1059 1060
f 1060 1062 1061
f 1059 1061 1058
f 1058 1056 1059
f 1064 1063 998
f 998 997 1064
f 1063 1064 1062
f 1062 1060 1063
f 1223 941 1139
f 956 771 770
f 770 957 956
f 771 956 958
f 958 773 771
f 959 776 773
f 773 958 959
f 776 959 960
f 960 778 776
f 961 779 778
f 778 960 961
f 779 961 962
f 962 781 779
f 1091 783 781
f 781 962 1091
f 963 1091 962
f 1091 963 964
f 964 1092 1091
f 783 1091 1092
f 1092 785 783
f 1093 788 785
f 785 1092 1093
f 965 1093 1092
f 1092 964 965
f 1093 965 967
f 967 1094 1093
f 788 1093 1094
f 1094 789 788
f 1095 791 789
f 789 1094 1095
f 968 1095 1094
f 1094 967 968
f 1095 968 969
f 969 1096 1095
f 791 1095 1096
f 1096 793 791
f 1097 794 793
f 793 1096 1097
f 970 1097 1096
f 1096 969 970
f 1097 970 971
f 971 1098 1097
f 794 1097 1098
f 1098 796 794
f 1099 798 796
f 796 1098 1099
f 972 1099 1098
f 1098 971 972
f 1099 972 973
f 973 1100 1099
f 798 1099 1100
f 1100 800 798
f 1101 803 800
f 800 1100 1101
f 974 1101 1100
f 1100 973 974
f 1101 974 975
f 975 1102 1101
f 803 1101 1102
f 1102 805 803
f 976 807 805
f 805 1102 976
f 1102 975 976
f 807 976 977
f 977 808 807
f 978 810 808
f 808 977 978
f 810 978 979
f 979 811 810
f 980 812 811
f 811 979 980
f 812 980 981
f 981 813 812
f 982 815 813
f 813 981 982
f 815 982 983
f 983 817 815
f 984 819 817
f 817 983 984
f 819 984 985
f 985 820 819
f 986 822 820
f 820 985 986
f 822 986 987
f 987 823 822
f 988 825 823
f 823 987 988
f 825 988 989
f 989 827 825
f 990 829 827
f 827 989 990
f 829 990 991
f 991 830 829
f 992 832 830
f 830 991 992
f 832 992 957
f 957 770 832
f 1103 860 859
f 859 1104 1103
f 993 1103 1104
f 1104 994 993
f 1103 993 998
f 998 1105 1103
f 860 1103 1105
f 1105 861 860
f 1106 865 864
f 864 1107 1106
f 999 1106 1107
f 1107 1000 999
f 1106 999 994
f 994 1104 1106
f 865 1106 1104
f 1104 859 865
f 1108 868 867
f 867 1109 1108
f 1003 1108 1109
f 1109 1004 1003
f 1108 1003 1000
f 1000 1107 1108
f 868 1108 1107
f 1107 864 868
f 1110 871 870
f 870 1111 1110
f 1007 1110 1111
f 1111 1008 1007
f 1110 1007 1004
f 1004 1109 1110
f 871 1110 1109
f 1109 867 871
f 1112 874 873
f 873 1113 1112
f 1011 1112 1113
f 1113 1012 1011
f 1112 1011 1008
f 1008 1111 1112
f 874 1112 1111
f 1111 870 874
f 1114 877 876
f 876 1115 1114
f 1015 1114 1115
f 1115 1016 1015
f 1114 1015 1012
f 1012 1113 1114
f 877 1114 1113
f 1113 873 877
f 1116 881 880
f 880 1117 1116
f 1019 1116 1117
f 1117 1020 1019
f 1116 1019 1016
f 1016 1115 1116
f 881 1116 1115
f 1115 876 881
f 1118 883 882
f 882 1119 1118
f 1023 1118 1119
f 1119 1024 1023
f 1118 1023 1020
f 1020 1117 1118
f 883 1118 1117
f 1117 880 883
f 1120 886 885
f 885 1121 1120
f 1027 1120 1121
f 1121 1028 1027
f 1120 1027 1024
f 1024 1119 1120
f 886 1120 1119
f 1119 882 886
f 1122 889 888
f 888 1123 1122
f 1031 1122 1123
f 1123 1032 1031
f 1122 1031 1028
f 1028 1121 1122
f 889 1122 1121
f 1121 885 889
f 1124 893 892
f 892 1125 1124
f 1035 1124 1125
f 1125 1036 1035
f 1124 1035 1032
f 1032 1123 1124
f 893 1124 1123
f 1123 888 893
f 1126 897 896
f 896 1127 1126
f 1039 1126 1127
f 1127 1040 1039
f 1126 1039 1036
f 1036 1125 1126
f 897 1126 1125
f 1125 892 897
f 1128 901 900
f 900 1129 1128
f 1043 1128 1129
f 1129 1044 1043
f 1128 1043 1040
f 1040 1127 1128
f 901 1128 1127
f 1127 896 901
f 1130 905 904
f 904 1131 1130
f 1047 1130 1131
f 1131 1048 1047
f 1130 1047 1044
f 1044 1129 1130
f 905 1130 1129
f 1129 900 905
f 1132 909 908
f 908 1133 1132
f 1051 1132 1133
f 1133 1052 1051
f 1132 1051 1048
f 1048 1131 1132
f 909 1132 1131
f 1131 904 909
f 1134 912 911
f 911 1135 1134
f 1055 1134 1135
f 1135 1056 1055
f 1134 1055 1052
f 1052 1133 1134
f 912 1134 1133
f 1133 908 912
f 1136 916 915
f 915 1137 1136
f 1059 1136 1137
f 1137 1060 1059
f 1136 1059 1056
f 1056 1135 1136
f 916 1136 1135
f 1135 911 916
f 1138 918 861
f 861 1105 1138
f 1063 1138 1105
f 1105 998 1063
f 1138 1063 1060
f 1060 1137 1138
f 918 1138 1137
f 1137 915 918
f 1140 956 957
f 957 1141 1140
f 956 1140 1142
f 1142 958 956
f 1143 959 958
f 958 1142 1143
f 959 1143 1144
f 1144 960 959
f 1145 961 960
f 960 1144 1145
f 961 1145 1146
f 1146 962 961
f 962 1146 963
f 1068 964 963
f 964 1068 966
f 1069 966 1068
f 966 1069 1147
f 1147 967 966
f 1147 968 967
f 968 1147 1148
f 1148 969 968
f 1149 970 969
f 969 1148 1149
f 970 1149 1150
f 1150 971 970
f 1151 972 971
f 971 1150 1151
f 972 1151 1152
f 1152 973 972
f 1153 974 973
f 973 1152 1153
f 974 1153 1154
f 1154 975 974
f 1155 976 975
f 975 1154 1155
f 976 1155 1156
f 1156 977 976
f 1157 978 977
f 977 1156 1157
f 978 1157 1158
f 1158 979 978
f 1159 980 979
f 979 1158 1159
f 980 1159 1160
f 1160 981 980
f 1161 982 981
f 981 1160 1161
f 982 1161 1162
f 1162 983 982
f 1163 984 983
f 983 1162 1163
f 984 1163 1164
f 1164 985 984
f 1165 986 985
f 985 1164 1165
f 986 1165 1166
f 1166 987 986
f 1167 988 987
f 987 1166 1167
f 988 1167 1168
f 1168 989 988
f 1169 990 989
f 989 1168 1169
f 990 1169 1170
f 1170 991 990
f 1171 992 991
f 991 1170 1171
f 992 1171 1141
f 1141 957 992
f 1172 995 996
f 996 1173 1172
f 995 1172 1174
f 1174 997 995
f 1175 1001 1002
f 1002 1176 1175
f 1001 1175 1173
f 1173 996 1001
f 1177 1005 1006
f 1006 1178 1177
f 1005 1177 1176
f 1176 1002 1005
f 1179 1009 1010
f 1010 1180 1179
f 1009 1179 1178
f 1178 1006 1009
f 1181 1013 1014
f 1014 1182 1181
f 1013 1181 1180
f 1180 1010 1013
f 1183 1017 1018
f 1018 1083 1183
f 1017 1183 1182
f 1182 1014 1017
f 1184 1021 1022
f 1022 1185 1184
f 1083 1018 1184
f 1021 1184 1018
f 1186 1025 1026
f 1026 1187 1186
f 1025 1186 1185
f 1185 1022 1025
f 1188 1029 1030
f 1030 1189 1188
f 1029 1188 1187
f 1187 1026 1029
f 1190 1033 1034
f 1034 1191 1190
f 1033 1190 1189
f 1189 1030 1033
f 1192 1037 1038
f 1038 1193 1192
f 1037 1192 1191
f 1191 1034 1037
f 1194 1041 1042
f 1042 1195 1194
f 1041 1194 1193
f 1193 1038 1041
f 1196 1045 1046
f 1046 1197 1196
f 1045 1196 1195
f 1195 1042 1045
f 1198 1049 1050
f 1050 1199 1198
f 1049 1198 1197
f 1197 1046 1049
f 1200 1053 1054
f 1054 1201 1200
f 1053 1200 1199
f 1199 1050 1053
f 1202 1057 1058
f 1058 1203 1202
f 1057 1202 1201
f 1201 1054 1057
f 1204 1061 1062
f 1062 1205 1204
f 1061 1204 1203
f 1203 1058 1061
f 1206 1064 997
f 997 1174 1206
f 1064 1206 1205
f 1205 1062 1064
f 1207 1065 931
f 931 1208 1207
f 1207 1066 1065
f 1207 932 1066
f 1209 933 932
f 932 1207 1209
f 1209 1067 933
f 1210 934 1067
f 1067 1209 1210
f 934 1210 1211
f 1211 1068 934
f 1211 1069 1068
f 1211 1210 1212
f 1069 1211 1212
f 1212 1070 1069
f 1070 1212 1213
f 1213 1148 1070
f 1240 1149 1148
f 1148 1213 1240
f 1240 1150 1149
f 1214 1071 1150
f 1150 1240 1214
f 1214 1072 1071
f 1072 1214 1215
f 1215 935 1072
f 1215 1073 935
f 1216 1074 1073
f 1073 1215 1216
f 1216 936 1074
f 936 1216 1217
f 1217 1075 936
f 1217 1076 1075
f 1076 1217 1218
f 1218 937 1076
f 937 1218 1219
f 1219 1077 937
f 1220 938 1077
f 1077 1219 1220
f 1220 1078 938
f 1078 1220 1221
f 1221 939 1078
f 1222 1079 939
f 939 1221 1222
f 1222 1080 1079
f 1080 1222 1208
f 1208 931 1080
f 1223 1081 941
f 1223 940 1081
f 1139 1224 1223
f 1224 1139 942
f 1225 1082 943
f 1082 1225 1224
f 1224 942 1082
f 944 1226 1225
f 1225 943 944
f 1226 1183 1083
f 1083 1227 1226
f 1227 1246 1226
f 1226 944 1183
f 1227 1083 1084
f 1227 945 946
f 946 1247 1227
f 1227 1084 945
f 1247 1085 947
f 947 1228 1247
f 1247 946 1085
f 1228 947 948
f 1228 1086 949
f 949 1229 1228
f 1228 948 1086
f 1229 949 1087
f 1230 950 951
f 950 1230 1229
f 1229 1087 950
f 1230 1088 952
f 952 1231 1230
f 1230 951 1088
f 1231 952 953
f 1231 1089 954
f 954 1232 1231
f 1233 1231 1232
f 1231 953 1089
f 955 1234 1232
f 1232 954 955
f 1234 1090 940
f 940 1223 1234
f 1234 955 1090
f 1208 1243 1207
f 1243 1208 923
f 1235 1208 1222
f 1235 923 1208
f 1221 1235 1222
f 1235 1221 1236
f 1236 1221 1220
f 1219 1236 1220
f 1236 1219 920
f 1219 1218 920
f 1237 1218 1217
f 1218 1237 921
f 921 920 1218
f 1217 1216 1237
f 1238 1237 1216
f 1216 1215 1238
f 1237 1238 922
f 922 921 1237
f 1215 1214 1238
f 1239 1238 1214
f 1239 922 1238
f 1214 1240 1239
f 1239 1240 1241
f 1213 1212 1241
f 1241 1240 1213
f 1212 1210 1241
f 1242 1241 1210
f 1210 1209 1242
f 1243 1242 1209
f 1209 1207 1243
f 1242 1243 923
f 925 1244 1223
f 1223 1224 925
f 925 1224 926
f 1245 1224 1225
f 1224 1245 927
f 927 926 1224
f 1225 1226 1245
f 1246 1245 1226
f 1246 927 1245
f 1247 1246 1227
f 1246 1247 928
f 1248 1247 1228
f 1247 1248 929
f 929 928 1247
f 1228 1229 1248
f 1229 1230 1248
f 1249 1248 1230
f 1249 929 1248
f 1250 1249 1230
f 1230 1231 1250
f 1233 1250 1231
f 1250 1233 930
f 1233 1232 1251
f 1233 1251 930
f 1232 1234 1251
f 1244 930 1251
f 1244 1251 1234
f 1234 1223 1244
