# USD → MuJoCo (world-space, simplified)
v 0.045844 -0.014736 0.003304
v 0.046312 -0.014743 0.003024
v 0.046828 -0.014736 0.003201
v 0.047463 -0.014734 0.002960
v 0.048073 -0.014725 0.002910
v 0.048308 -0.014730 0.002345
v 0.048734 -0.014727 0.001815
v 0.049040 -0.014723 0.001209
v 0.049098 -0.014722 0.000304
v 0.049213 -0.014713 -0.000437
v 0.049354 -0.014701 -0.001033
v 0.048613 -0.014714 -0.001679
v 0.048035 -0.014701 -0.002478
v 0.048338 -0.014638 -0.003161
v 0.048662 -0.014640 -0.002899
v 0.047194 -0.014699 -0.002935
v 0.047618 -0.014636 -0.003577
v 0.047989 -0.014637 -0.003388
v 0.046830 -0.014634 -0.003834
v 0.047229 -0.014635 -0.003726
v 0.046156 -0.014696 -0.003190
v 0.045477 -0.014696 -0.003151
v 0.045173 -0.014634 -0.003834
v 0.045584 -0.014634 -0.003899
v 0.044575 -0.014700 -0.002832
v 0.044382 -0.014636 -0.003577
v 0.044771 -0.014635 -0.003726
v 0.044011 -0.014637 -0.003388
v 0.043338 -0.014640 -0.002899
v 0.043691 -0.014702 -0.002231
v 0.043045 -0.014642 -0.002607
v 0.043586 -0.014714 -0.001697
v 0.042783 -0.014644 -0.002283
v 0.043110 -0.014707 -0.001431
v 0.042646 -0.014701 -0.001033
v 0.042787 -0.014713 -0.000437
v 0.042811 -0.014721 0.000522
v 0.043270 -0.014730 0.001543
v 0.043691 -0.014730 0.002345
v 0.043042 -0.014674 0.002718
v 0.042780 -0.014672 0.002394
v 0.044218 -0.014733 0.002775
v 0.044822 -0.014735 0.003087
v 0.045267 -0.014729 0.003506
v 0.046000 -0.014747 0.000057
v 0.046000 0.011822 0.001974
v 0.046155 0.010695 0.001689
v 0.046000 0.009253 0.000205
v 0.045845 0.010695 0.001689
v 0.046364 0.011822 0.001936
v 0.046458 0.010695 0.001624
v 0.046713 0.011823 0.001822
v 0.046742 0.010696 0.001498
v 0.047031 0.011824 0.001639
v 0.046993 0.010697 0.001316
v 0.047303 0.011826 0.001394
v 0.047200 0.010699 0.001086
v 0.047519 0.011827 0.001097
v 0.047355 0.010700 0.000817
v 0.047668 0.011829 0.000762
v 0.047451 0.010702 0.000522
v 0.047744 0.011832 0.000404
v 0.047484 0.010704 0.000214
v 0.047744 0.011834 0.000037
v 0.047451 0.010706 -0.000095
v 0.047668 0.011836 -0.000321
v 0.047355 0.010707 -0.000390
v 0.047519 0.011838 -0.000656
v 0.047200 0.010709 -0.000658
v 0.047303 0.011840 -0.000953
v 0.046993 0.010711 -0.000889
v 0.047031 0.011842 -0.001198
v 0.046742 0.010712 -0.001071
v 0.046713 0.011843 -0.001381
v 0.046458 0.010713 -0.001197
v 0.046364 0.011844 -0.001495
v 0.046155 0.010713 -0.001262
v 0.046000 0.011844 -0.001533
v 0.045845 0.010713 -0.001262
v 0.045635 0.011844 -0.001495
v 0.045541 0.010713 -0.001197
v 0.045287 0.011843 -0.001381
v 0.045258 0.010712 -0.001071
v 0.044969 0.011842 -0.001198
v 0.045007 0.010711 -0.000889
v 0.044697 0.011840 -0.000953
v 0.044800 0.010709 -0.000658
v 0.044481 0.011838 -0.000656
v 0.044645 0.010707 -0.000390
v 0.044332 0.011836 -0.000321
v 0.044549 0.010706 -0.000095
v 0.044256 0.011834 0.000037
v 0.044516 0.010704 0.000214
v 0.044256 0.011832 0.000404
v 0.044549 0.010702 0.000522
v 0.044332 0.011829 0.000762
v 0.044645 0.010700 0.000817
v 0.044481 0.011827 0.001097
v 0.044800 0.010699 0.001086
v 0.044697 0.011826 0.001394
v 0.045007 0.010697 0.001316
v 0.044969 0.011824 0.001639
v 0.045258 0.010696 0.001498
v 0.045287 0.011823 0.001822
v 0.045541 0.010695 0.001624
v 0.045635 0.011822 0.001936
v -0.046156 -0.014736 0.003304
v -0.045688 -0.014743 0.003024
v -0.045172 -0.014736 0.003201
v -0.044232 -0.014730 0.002935
v -0.043692 -0.014730 0.002345
v -0.043150 -0.014727 0.001555
v -0.042787 -0.014719 0.000552
v -0.042044 -0.014661 0.000473
v -0.042044 -0.014656 -0.000358
v -0.042022 -0.014658 0.000058
v -0.042904 -0.014721 -0.000470
v -0.043110 -0.014707 -0.001431
v -0.042555 -0.014646 -0.001932
v -0.042366 -0.014648 -0.001561
v -0.042782 -0.014644 -0.002281
v -0.043695 -0.014704 -0.002190
v -0.043042 -0.014642 -0.002603
v -0.043662 -0.014638 -0.003161
v -0.043338 -0.014640 -0.002899
v -0.044537 -0.014698 -0.002846
v -0.044382 -0.014636 -0.003577
v -0.044011 -0.014637 -0.003388
v -0.045172 -0.014697 -0.003086
v -0.045170 -0.014634 -0.003834
v -0.044771 -0.014635 -0.003726
v -0.046129 -0.014698 -0.003162
v -0.046825 -0.014634 -0.003835
v -0.046413 -0.014634 -0.003900
v -0.047178 -0.014698 -0.002972
v -0.047616 -0.014635 -0.003578
v -0.047227 -0.014635 -0.003727
v -0.047492 -0.014709 -0.002527
v -0.048073 -0.014690 -0.002796
v -0.047987 -0.014637 -0.003389
v -0.047996 -0.014711 -0.002160
v -0.048621 -0.014693 -0.002302
v -0.048414 -0.014714 -0.001697
v -0.048890 -0.014707 -0.001431
v -0.049283 -0.014707 -0.000735
v -0.049245 -0.014717 0.000241
v -0.049957 -0.014661 0.000471
v -0.049136 -0.014721 0.000912
v -0.049783 -0.014666 0.001287
v -0.049891 -0.014663 0.000884
v -0.049634 -0.014668 0.001676
v -0.049445 -0.014670 0.002046
v -0.048719 -0.014729 0.001782
v -0.047996 -0.014739 0.002274
v -0.047782 -0.014733 0.002775
v -0.046956 -0.014732 0.003297
v -0.046000 -0.014747 0.000057
v -0.046000 0.011822 0.001974
v -0.045845 0.010695 0.001689
v -0.046000 0.009252 0.000205
v -0.046155 0.010695 0.001689
v -0.045635 0.011822 0.001936
v -0.045542 0.010695 0.001624
v -0.045287 0.011823 0.001822
v -0.045258 0.010696 0.001498
v -0.044969 0.011824 0.001639
v -0.045007 0.010697 0.001316
v -0.044697 0.011826 0.001394
v -0.044800 0.010698 0.001086
v -0.044481 0.011827 0.001097
v -0.044645 0.010700 0.000817
v -0.044332 0.011829 0.000762
v -0.044549 0.010702 0.000522
v -0.044256 0.011832 0.000404
v -0.044516 0.010704 0.000214
v -0.044256 0.011834 0.000037
v -0.044549 0.010706 -0.000095
v -0.044332 0.011836 -0.000321
v -0.044645 0.010707 -0.000390
v -0.044481 0.011838 -0.000656
v -0.044800 0.010709 -0.000658
v -0.044697 0.011840 -0.000953
v -0.045007 0.010711 -0.000889
v -0.044969 0.011842 -0.001198
v -0.045258 0.010712 -0.001071
v -0.045287 0.011843 -0.001381
v -0.045542 0.010713 -0.001197
v -0.045635 0.011843 -0.001495
v -0.045845 0.010713 -0.001262
v -0.046000 0.011844 -0.001533
v -0.046155 0.010713 -0.001262
v -0.046365 0.011843 -0.001495
v -0.046458 0.010713 -0.001197
v -0.046713 0.011843 -0.001381
v -0.046742 0.010712 -0.001071
v -0.047031 0.011842 -0.001198
v -0.046993 0.010711 -0.000889
v -0.047303 0.011840 -0.000953
v -0.047200 0.010709 -0.000658
v -0.047519 0.011838 -0.000656
v -0.047355 0.010707 -0.000390
v -0.047668 0.011836 -0.000321
v -0.047451 0.010706 -0.000095
v -0.047744 0.011834 0.000037
v -0.047484 0.010704 0.000214
v -0.047744 0.011832 0.000404
v -0.047451 0.010702 0.000522
v -0.047668 0.011829 0.000762
v -0.047355 0.010700 0.000817
v -0.047519 0.011827 0.001097
v -0.047200 0.010698 0.001086
v -0.047303 0.011826 0.001394
v -0.046993 0.010697 0.001316
v -0.047031 0.011824 0.001639
v -0.046742 0.010696 0.001498
v -0.046713 0.011823 0.001822
v -0.046458 0.010695 0.001624
v -0.046365 0.011822 0.001936
v 0.047769 0.021232 0.003564
v 0.047647 0.021236 0.001927
v 0.049380 0.021263 -0.001271
v 0.045468 0.021259 -0.001927
v 0.045914 0.021275 -0.003387
v 0.042369 0.021257 -0.000196
v -0.043332 0.021249 0.000666
v -0.044053 0.021237 -0.000799
v -0.047452 0.021261 -0.001656
v -0.049713 0.021252 0.000476
v -0.046652 0.021233 0.002511
v 0.046129 0.020901 0.002251
v 0.046512 0.020913 0.002188
v 0.047107 0.020851 0.001931
v 0.047538 0.020906 0.001521
v 0.047760 0.020888 0.001173
v 0.047908 0.020891 0.000788
v 0.047970 0.020894 0.000225
v 0.047967 0.015057 0.000447
v 0.047908 0.020897 -0.000235
v 0.047849 0.020941 -0.000433
v 0.047529 0.020881 -0.000999
v 0.047055 0.020919 -0.001396
v 0.046805 0.020927 -0.001532
v 0.046341 0.020925 -0.001668
v 0.045896 0.020917 -0.001697
v 0.045538 0.020936 -0.001649
v 0.045389 0.020905 -0.001605
v 0.045195 0.020905 -0.001531
v 0.044901 0.020923 -0.001369
v 0.044433 0.020929 -0.000952
v 0.044400 0.015066 -0.000922
v 0.044144 0.020918 -0.000408
v 0.044119 0.015062 -0.000371
v 0.044033 0.015060 0.000034
v 0.044065 0.015061 -0.000171
v 0.044046 0.020898 0.000534
v 0.044467 0.020949 0.001548
v 0.044837 0.020884 0.001877
v 0.045139 0.020898 0.002052
v 0.045641 0.020890 0.002215
v -0.045793 0.020882 0.002243
v -0.045071 0.020859 0.002037
v -0.045389 0.015047 0.002122
v -0.044600 0.020916 0.001676
v -0.044213 0.020989 0.001157
v -0.044026 0.020904 0.000380
v -0.044033 0.015057 0.000447
v -0.044049 0.020896 -0.000033
v -0.044143 0.020927 -0.000409
v -0.044358 0.021023 -0.000838
v -0.044603 0.020914 -0.001121
v -0.044837 0.020904 -0.001324
v -0.045144 0.020971 -0.001518
v -0.045489 0.020906 -0.001632
v -0.045897 0.020925 -0.001699
v -0.046309 0.020906 -0.001675
v -0.046861 0.020910 -0.001498
v -0.047264 0.020914 -0.001243
v -0.047536 0.020913 -0.000967
v -0.047822 0.020915 -0.000478
v -0.047600 0.015066 -0.000922
v -0.047881 0.015062 -0.000371
v -0.047964 0.020912 0.000109
v -0.047967 0.015060 0.000034
v -0.047935 0.015061 -0.000171
v -0.047952 0.020903 0.000586
v -0.047761 0.020899 0.001174
v -0.047537 0.020908 0.001521
v -0.047064 0.020927 0.001960
v -0.046103 0.020893 0.002250
v 0.048744 0.021150 0.003014
v 0.049235 0.021029 -0.002028
v 0.048491 0.021057 -0.002823
v 0.047859 0.021184 -0.003131
v 0.042437 0.021179 0.001734
v 0.044372 0.021028 0.003900
v 0.045164 0.021036 0.004160
v -0.046348 0.021227 0.004013
v -0.042051 0.021048 0.000706
v -0.042220 0.021233 0.000205
v -0.042244 0.021158 -0.000745
v -0.049457 0.021014 0.002233
v -0.045947 0.021021 0.002283
v -0.043970 0.021078 0.000138
v -0.045486 0.021142 -0.001713
v -0.047827 0.021133 -0.000699
v -0.047967 0.021164 0.001113
v -0.047313 0.021124 0.001901
v -0.046551 0.021128 0.002290
v 0.046565 0.021133 0.004114
v 0.049777 0.021235 0.000453
v 0.047189 0.021240 -0.003358
v 0.043947 0.021223 -0.002949
v 0.043516 0.021264 -0.002547
v 0.042532 0.021231 -0.001193
v 0.042202 0.021216 0.000756
v 0.045471 0.021213 0.004006
v -0.045284 0.021229 0.003960
v -0.042785 0.021238 0.002207
v -0.042368 0.021184 0.001357
v -0.042657 0.021262 -0.001487
v -0.044137 0.021187 -0.003121
v -0.049811 0.021171 -0.000433
v -0.049773 0.021161 0.001167
v 0.048034 0.021060 0.000156
v 0.047505 0.021028 -0.001043
v 0.045228 0.021048 -0.001589
v 0.044147 0.020909 0.000967
v 0.045564 0.021130 0.002303
v -0.045462 0.020925 0.002181
v -0.044901 0.021026 0.001970
v -0.046360 0.021057 -0.001701
v 0.049664 0.021159 0.001545
v 0.042544 0.020984 0.002237
v 0.043995 0.021002 0.003707
v -0.046833 0.021032 -0.003609
v -0.049718 0.021046 -0.001133
v -0.049954 0.021024 0.000658
v -0.049778 0.021000 0.001511
v 0.047573 0.021130 0.001601
v 0.048094 0.021212 -0.000329
v 0.044745 0.021146 -0.001403
v 0.043892 0.021225 -0.000335
v 0.043938 0.021122 0.000587
v 0.043846 0.021236 0.000644
v 0.044657 0.021235 0.002230
v -0.044635 0.021235 0.002056
v -0.043811 0.021228 0.000051
v -0.045184 0.021255 -0.001810
v -0.046311 0.021243 -0.001932
v 0.049180 0.021238 0.002279
v 0.042988 0.021238 0.002502
v -0.043707 0.021199 0.003355
v -0.044303 0.021268 -0.003085
v -0.049163 0.021240 0.002289
v -0.047667 0.021226 0.003653
v 0.044786 0.021099 0.001936
v -0.046536 0.020904 0.002177
v 0.046820 0.021032 -0.003612
v 0.044770 0.021034 -0.003502
v 0.044486 0.021185 -0.003295
v 0.044012 0.021033 -0.003161
v 0.042451 0.021074 -0.001517
v -0.042107 0.021007 -0.000514
v -0.043256 0.021189 -0.002461
v -0.048742 0.021182 -0.002477
v 0.046442 0.021193 0.002411
v 0.048088 0.021218 0.000986
v 0.044298 0.021096 -0.000856
v 0.044266 0.021109 0.001425
v -0.045513 0.021229 0.002438
v -0.043966 0.021158 0.000795
v 0.046846 0.021221 0.003940
v 0.048946 0.021264 -0.002055
v 0.045789 0.021189 -0.003599
v 0.043352 0.021064 0.003233
v 0.044114 0.021212 0.003560
v -0.045961 0.021231 -0.003580
v -0.047130 0.021274 -0.003305
v -0.049218 0.021257 -0.001716
v -0.048544 0.021118 0.003240
v 0.046977 0.021058 0.002050
v 0.047902 0.021026 0.000893
v 0.046830 0.021110 -0.001586
v 0.045932 0.021061 -0.001735
v 0.044031 0.021009 0.000015
v -0.044323 0.021115 0.001510
v -0.044066 0.020962 0.000742
v -0.044776 0.021141 -0.001369
v -0.047208 0.021159 -0.001410
v -0.048053 0.021112 0.000091
v -0.047900 0.020943 0.000853
v 0.045807 0.021007 0.004250
v 0.046417 0.020998 0.004230
v 0.046000 0.016469 0.004226
v 0.046827 0.016470 0.004139
v 0.047064 0.020934 0.004109
v 0.047229 0.016471 0.004031
v 0.047617 0.016472 0.003882
v 0.047597 0.021010 0.003914
v 0.047968 0.021011 0.003727
v 0.047988 0.016473 0.003693
v 0.048337 0.016474 0.003466
v 0.048318 0.021012 0.003503
v 0.048642 0.021005 0.003243
v 0.048661 0.016476 0.003204
v 0.048955 0.016478 0.002910
v 0.049099 0.021016 0.002770
v 0.049217 0.016479 0.002587
v 0.049443 0.021010 0.002263
v 0.049620 0.021022 0.001911
v 0.049633 0.016484 0.001867
v 0.049782 0.016487 0.001478
v 0.049772 0.021024 0.001524
v 0.049889 0.020932 0.001097
v 0.049955 0.016491 0.000665
v 0.049972 0.021037 0.000475
v 0.049977 0.016494 0.000249
v 0.049955 0.016497 -0.000166
v 0.049953 0.021035 -0.000118
v 0.049890 0.021037 -0.000529
v 0.049890 0.016499 -0.000578
v 0.049782 0.016502 -0.000980
v 0.049753 0.021125 -0.001013
v 0.049633 0.016504 -0.001368
v 0.049444 0.016506 -0.001739
v 0.049536 0.021077 -0.001542
v 0.049217 0.016509 -0.002088
v 0.048949 0.020953 -0.002387
v 0.048661 0.016512 -0.002706
v 0.048337 0.016514 -0.002968
v 0.047985 0.021037 -0.003166
v 0.047614 0.021038 -0.003355
v 0.047225 0.020947 -0.003506
v 0.046409 0.020962 -0.003677
v 0.046000 0.016519 -0.003727
v 0.046019 0.021040 -0.003695
v 0.045584 0.016519 -0.003706
v 0.045173 0.016518 -0.003641
v 0.045361 0.021051 -0.003648
v 0.044380 0.020947 -0.003354
v 0.044011 0.009857 -0.003236
v 0.043659 0.020957 -0.002935
v 0.043356 0.021035 -0.002688
v 0.043045 0.016510 -0.002412
v 0.043042 0.021094 -0.002372
v 0.042790 0.021077 -0.002061
v 0.042783 0.016509 -0.002088
v 0.042556 0.016506 -0.001739
v 0.042367 0.016504 -0.001368
v 0.042218 0.016502 -0.000980
v 0.042155 0.021064 -0.000737
v 0.042110 0.016499 -0.000578
v 0.042045 0.016497 -0.000166
v 0.042050 0.021081 -0.000127
v 0.042029 0.021078 0.000287
v 0.042023 0.016494 0.000249
v 0.042045 0.016491 0.000665
v 0.042050 0.021060 0.000688
v 0.042114 0.020931 0.001109
v 0.042218 0.016487 0.001478
v 0.042217 0.021034 0.001488
v 0.042364 0.021031 0.001876
v 0.042367 0.016484 0.001867
v 0.042556 0.016482 0.002237
v 0.042786 0.020938 0.002611
v 0.042783 0.016479 0.002587
v 0.043045 0.016478 0.002910
v 0.043034 0.021006 0.002920
v 0.043339 0.016476 0.003204
v 0.043669 0.020916 0.003496
v 0.044012 0.016473 0.003693
v 0.044382 0.016472 0.003882
v 0.044752 0.020999 0.004048
v 0.044771 0.016471 0.004031
v 0.045173 0.016470 0.004139
v 0.045584 0.016470 0.004204
v -0.045782 0.021014 0.004248
v -0.046000 0.016469 0.004226
v -0.045584 0.016469 0.004204
v -0.045173 0.016470 0.004139
v -0.045194 0.021008 0.004167
v -0.044771 0.016471 0.004031
v -0.044383 0.016472 0.003882
v -0.044563 0.021007 0.003986
v -0.044032 0.021011 0.003727
v -0.044012 0.016473 0.003693
v -0.043663 0.016474 0.003466
v -0.043682 0.021012 0.003503
v -0.043339 0.016476 0.003204
v -0.043045 0.016478 0.002910
v -0.043170 0.021060 0.003072
v -0.042772 0.021078 0.002589
v -0.042783 0.016479 0.002587
v -0.042557 0.021019 0.002263
v -0.042368 0.021013 0.001892
v -0.042221 0.020994 0.001507
v -0.042111 0.020932 0.001097
v -0.042028 0.021032 0.000298
v -0.042047 0.021025 -0.000117
v -0.042110 0.016499 -0.000578
v -0.042218 0.016502 -0.000980
v -0.042300 0.020967 -0.001182
v -0.042367 0.016504 -0.001368
v -0.042559 0.021035 -0.001712
v -0.042775 0.021030 -0.002042
v -0.043045 0.016510 -0.002412
v -0.043035 0.021033 -0.002367
v -0.043339 0.016512 -0.002706
v -0.043663 0.016514 -0.002968
v -0.043524 0.020996 -0.002835
v -0.044015 0.021037 -0.003166
v -0.044389 0.021030 -0.003356
v -0.044775 0.021036 -0.003501
v -0.044771 0.009859 -0.003574
v -0.045173 0.016518 -0.003641
v -0.045174 0.020977 -0.003609
v -0.045565 0.021040 -0.003671
v -0.045584 0.016519 -0.003706
v -0.046000 0.016519 -0.003727
v -0.046234 0.021097 -0.003693
v -0.046416 0.016519 -0.003706
v -0.047234 0.020959 -0.003501
v -0.047618 0.016517 -0.003384
v -0.047596 0.021061 -0.003360
v -0.047964 0.021037 -0.003175
v -0.047988 0.016515 -0.003195
v -0.048337 0.016514 -0.002968
v -0.048335 0.020973 -0.002937
v -0.048664 0.021096 -0.002667
v -0.048661 0.016512 -0.002706
v -0.048958 0.020953 -0.002378
v -0.049219 0.020951 -0.002055
v -0.049444 0.016506 -0.001739
v -0.049430 0.021035 -0.001727
v -0.049633 0.016504 -0.001368
v -0.049782 0.016502 -0.000980
v -0.049889 0.020942 -0.000544
v -0.049953 0.020939 -0.000133
v -0.049971 0.021063 0.000272
v -0.049977 0.016494 0.000249
v -0.049955 0.016491 0.000665
v -0.049886 0.020932 0.001109
v -0.049445 0.009823 0.002197
v -0.049212 0.020922 0.002618
v -0.048955 0.016478 0.002910
v -0.048804 0.021014 0.003098
v -0.048661 0.016476 0.003204
v -0.048334 0.021003 0.003494
v -0.047982 0.020915 0.003722
v -0.047618 0.016472 0.003882
v -0.047413 0.021008 0.003995
v -0.047229 0.016471 0.004031
v -0.046827 0.016470 0.004139
v -0.046846 0.021008 0.004158
v -0.046436 0.021008 0.004225
v -0.046416 0.016469 0.004204
v 0.047777 0.021251 -0.001089
v 0.046827 0.021254 -0.001840
v 0.044417 0.021246 -0.001277
v -0.043898 0.021234 0.001039
v -0.048089 0.021243 -0.000503
v -0.048192 0.021238 0.000895
v -0.047642 0.021229 0.001797
v 0.046825 -0.014682 0.003950
v 0.046413 -0.014682 0.004014
v 0.045997 -0.014682 0.004036
v 0.047616 -0.014680 0.003693
v 0.047227 -0.014681 0.003842
v 0.048337 -0.014678 0.003278
v 0.047987 -0.014679 0.003504
v 0.048955 -0.014674 0.002721
v 0.048660 -0.014676 0.003016
v 0.049444 -0.014670 0.002049
v 0.049217 -0.014672 0.002398
v 0.049783 -0.014666 0.001289
v 0.049634 -0.014668 0.001678
v 0.049957 -0.014660 0.000476
v 0.049891 -0.014663 0.000887
v 0.049957 -0.014655 -0.000356
v 0.049979 -0.014658 0.000060
v 0.049785 -0.014650 -0.001170
v 0.049892 -0.014653 -0.000767
v 0.049447 -0.014645 -0.001930
v 0.049636 -0.014648 -0.001558
v 0.048958 -0.014642 -0.002603
v 0.049220 -0.014644 -0.002279
v 0.048338 0.003197 -0.003051
v 0.048662 0.003195 -0.002789
v 0.047618 0.003200 -0.003467
v 0.047989 0.003198 -0.003278
v 0.046003 -0.014634 -0.003921
v 0.046418 -0.014634 -0.003899
v 0.045173 0.003201 -0.003724
v 0.045584 0.003201 -0.003789
v 0.044771 0.003201 -0.003616
v 0.043663 -0.014638 -0.003163
v 0.043339 0.009854 -0.002747
v 0.042556 -0.014645 -0.001934
v 0.042217 -0.014650 -0.001174
v 0.042366 -0.014648 -0.001563
v 0.042043 -0.014655 -0.000361
v 0.042109 -0.014653 -0.000772
v 0.042043 -0.014660 0.000471
v 0.042021 -0.014658 0.000055
v 0.042215 -0.014665 0.001284
v 0.042108 -0.014663 0.000882
v 0.042553 -0.014670 0.002044
v 0.042364 -0.014668 0.001674
v 0.043660 -0.014678 0.003275
v 0.043336 -0.014676 0.003012
v 0.044379 -0.014680 0.003691
v 0.044008 -0.014679 0.003502
v 0.045170 -0.014682 0.003949
v 0.044768 -0.014681 0.003841
v 0.045582 -0.014682 0.004014
v -0.045175 -0.014682 0.003950
v -0.045587 -0.014682 0.004014
v -0.046003 -0.014682 0.004036
v -0.044384 -0.014680 0.003693
v -0.044773 -0.014681 0.003842
v -0.043663 -0.014678 0.003277
v -0.044013 -0.014679 0.003504
v -0.043045 -0.014674 0.002721
v -0.043340 -0.014676 0.003016
v -0.042556 -0.014670 0.002049
v -0.042783 -0.014672 0.002398
v -0.042217 -0.014666 0.001289
v -0.042366 -0.014668 0.001678
v -0.042044 0.009833 0.000624
v -0.042109 -0.014663 0.000887
v -0.042044 0.009838 -0.000208
v -0.042023 0.009836 0.000208
v -0.042215 -0.014650 -0.001170
v -0.042108 -0.014653 -0.000767
v -0.042555 0.003190 -0.001822
v -0.042366 0.003187 -0.001451
v -0.042782 0.009850 -0.002130
v -0.043662 0.003197 -0.003051
v -0.043338 0.003195 -0.002789
v -0.044382 0.003200 -0.003467
v -0.044011 0.003198 -0.003278
v -0.045997 -0.014634 -0.003921
v -0.045582 -0.014634 -0.003899
v -0.048337 -0.014638 -0.003163
v -0.048955 -0.014642 -0.002607
v -0.048660 -0.014640 -0.002901
v -0.049445 -0.014646 -0.001934
v -0.049217 -0.014644 -0.002283
v -0.049783 -0.014650 -0.001174
v -0.049634 -0.014648 -0.001563
v -0.049957 -0.014655 -0.000361
v -0.049891 -0.014653 -0.000772
v -0.049979 -0.014658 0.000055
v -0.049783 0.003170 0.001397
v -0.049891 0.003172 0.000994
v -0.049631 0.020915 0.001897
v -0.048958 -0.014674 0.002718
v -0.049220 -0.014672 0.002394
v -0.048340 -0.014678 0.003275
v -0.048664 -0.014676 0.003012
v -0.047621 -0.014680 0.003691
v -0.047992 -0.014679 0.003502
v -0.046830 -0.014682 0.003949
v -0.047232 -0.014681 0.003841
v -0.046418 -0.014682 0.004014
v 0.046411 0.015047 0.002175
v 0.046207 0.015047 0.002208
v 0.046000 0.015046 0.002218
v 0.046805 0.015047 0.002047
v 0.046611 0.015047 0.002122
v 0.047163 0.015049 0.001841
v 0.046989 0.015048 0.001953
v 0.047470 0.015050 0.001564
v 0.047324 0.015049 0.001710
v 0.047713 0.015052 0.001229
v 0.047600 0.015051 0.001403
v 0.047881 0.015055 0.000852
v 0.047807 0.015054 0.001045
v 0.047935 0.015056 0.000652
v 0.047967 0.015060 0.000034
v 0.047978 0.015059 0.000240
v 0.047881 0.015062 -0.000371
v 0.047935 0.015061 -0.000171
v 0.047713 0.015065 -0.000749
v 0.047807 0.015063 -0.000564
v 0.047470 0.015067 -0.001083
v 0.047600 0.015066 -0.000922
v 0.047163 0.015068 -0.001360
v 0.047324 0.015067 -0.001230
v 0.046805 0.015070 -0.001567
v 0.046989 0.015069 -0.001473
v 0.046411 0.015071 -0.001695
v 0.046611 0.015070 -0.001641
v 0.046000 0.015071 -0.001738
v 0.046207 0.015071 -0.001727
v 0.045589 0.015070 -0.001694
v 0.045793 0.015071 -0.001727
v 0.045195 0.015069 -0.001567
v 0.045389 0.015070 -0.001641
v 0.044837 0.015068 -0.001360
v 0.045011 0.015069 -0.001473
v 0.044530 0.015066 -0.001083
v 0.044676 0.015067 -0.001230
v 0.044287 0.015065 -0.000749
v 0.044193 0.015063 -0.000564
v 0.044033 0.015057 0.000447
v 0.044022 0.015059 0.000240
v 0.044119 0.015055 0.000852
v 0.044065 0.015056 0.000652
v 0.044287 0.015052 0.001229
v 0.044193 0.015054 0.001045
v 0.044530 0.015050 0.001564
v 0.044400 0.015051 0.001403
v 0.044837 0.015049 0.001841
v 0.044676 0.015049 0.001710
v 0.045195 0.015047 0.002047
v 0.045011 0.015048 0.001953
v 0.045589 0.015046 0.002175
v 0.045389 0.015047 0.002122
v 0.045793 0.015047 0.002208
v -0.045589 0.015047 0.002175
v -0.045793 0.015047 0.002208
v -0.046000 0.015046 0.002218
v -0.045195 0.015047 0.002047
v -0.044837 0.015049 0.001841
v -0.045011 0.015048 0.001953
v -0.044530 0.015050 0.001564
v -0.044676 0.015049 0.001710
v -0.044287 0.015052 0.001229
v -0.044400 0.015051 0.001403
v -0.044119 0.015055 0.000852
v -0.044193 0.015054 0.001045
v -0.044065 0.015056 0.000652
v -0.044033 0.015060 0.000034
v -0.044022 0.015059 0.000240
v -0.044119 0.015062 -0.000371
v -0.044065 0.015061 -0.000171
v -0.044287 0.015065 -0.000749
v -0.044193 0.015063 -0.000564
v -0.044530 0.015067 -0.001083
v -0.044400 0.015066 -0.000922
v -0.044837 0.015068 -0.001360
v -0.044676 0.015067 -0.001230
v -0.045195 0.015070 -0.001567
v -0.045011 0.015069 -0.001473
v -0.045589 0.015070 -0.001695
v -0.045389 0.015070 -0.001641
v -0.046000 0.015071 -0.001738
v -0.045793 0.015071 -0.001727
v -0.046411 0.015070 -0.001694
v -0.046207 0.015071 -0.001727
v -0.046805 0.015069 -0.001567
v -0.046611 0.015070 -0.001641
v -0.047163 0.015068 -0.001360
v -0.046989 0.015069 -0.001473
v -0.047470 0.015066 -0.001083
v -0.047324 0.015067 -0.001230
v -0.047713 0.015065 -0.000749
v -0.047807 0.015063 -0.000564
v -0.047967 0.015057 0.000447
v -0.047978 0.015059 0.000240
v -0.047881 0.015055 0.000852
v -0.047935 0.015056 0.000652
v -0.047713 0.015052 0.001229
v -0.047807 0.015054 0.001045
v -0.047470 0.015050 0.001564
v -0.047600 0.015051 0.001403
v -0.047163 0.015049 0.001841
v -0.047324 0.015049 0.001710
v -0.046805 0.015047 0.002047
v -0.046989 0.015048 0.001953
v -0.046411 0.015046 0.002175
v -0.046611 0.015047 0.002122
v -0.046207 0.015047 0.002208
v -0.073139 -0.016390 0.005819
v -0.086612 -0.015364 0.005906
v -0.086612 -0.016389 0.005815
v -0.073139 -0.017385 0.005553
v -0.086612 -0.017384 0.005549
v -0.073139 -0.015364 0.005910
v -0.073139 -0.018318 0.005117
v -0.086612 -0.018316 0.005114
v -0.086612 -0.019160 0.004524
v 0.073138 -0.018318 0.005117
v -0.073139 -0.019890 0.003798
v -0.086612 -0.019887 0.003796
v -0.073139 -0.020482 0.002955
v -0.086612 -0.020478 0.002953
v -0.086612 -0.020913 0.002020
v -0.073139 -0.021183 0.001026
v -0.086612 -0.021180 0.001025
v -0.073139 -0.021273 0.000000
v -0.086612 -0.021269 0.000000
v -0.073139 -0.021183 -0.001026
v -0.086612 -0.021180 -0.001025
v -0.073139 -0.020916 -0.002021
v -0.086612 -0.020913 -0.002020
v -0.073139 -0.020482 -0.002955
v -0.086612 -0.020478 -0.002953
v -0.073139 -0.019890 -0.003798
v -0.086612 -0.019887 -0.003796
v -0.073139 -0.019162 -0.004527
v -0.086612 -0.019160 -0.004524
v -0.073139 -0.018318 -0.005117
v -0.086612 -0.018316 -0.005114
v -0.073139 -0.017385 -0.005553
v -0.086612 -0.017384 -0.005550
v -0.086612 -0.016389 -0.005815
v -0.086612 -0.015364 -0.005906
v -0.073139 -0.014338 -0.005819
v -0.086612 -0.014338 -0.005815
v -0.073139 -0.013342 -0.005553
v -0.086612 -0.013344 -0.005550
v -0.086612 -0.012411 -0.005114
v -0.073085 -0.011565 -0.004527
v -0.086612 -0.011568 -0.004524
v -0.073139 -0.012409 -0.005117
v -0.072271 -0.010837 -0.003798
v -0.086612 -0.010840 -0.003796
v -0.073139 -0.010246 -0.002955
v -0.086612 -0.010249 -0.002953
v -0.073139 -0.009811 -0.002021
v -0.086612 -0.009815 -0.002020
v -0.073139 -0.009544 -0.001026
v -0.086612 -0.009548 -0.001025
v 0.073138 -0.009811 -0.002021
v -0.086612 -0.009459 0.000000
v -0.086612 -0.009548 0.001025
v -0.086612 -0.009815 0.002020
v -0.073059 -0.010246 0.002955
v -0.086612 -0.010249 0.002953
v -0.072269 -0.010837 0.003798
v -0.086612 -0.010840 0.003796
v -0.073139 -0.011565 0.004527
v -0.086612 -0.011568 0.004524
v -0.086612 -0.012411 0.005114
v -0.073139 -0.013342 0.005553
v -0.086612 -0.013344 0.005549
v -0.073139 -0.014338 0.005819
v -0.086612 -0.014338 0.005815
v -0.073139 -0.015364 -0.005910
v -0.073139 -0.020916 0.002021
v -0.073139 -0.016390 -0.005819
v 0.073138 -0.014338 -0.005819
v -0.073139 -0.009811 0.002021
v -0.073139 -0.019162 0.004527
v 0.073138 -0.020916 -0.002021
v 0.037032 -0.019162 -0.004527
v 0.073138 -0.013342 -0.005553
v -0.073139 -0.009544 0.001026
v -0.073139 -0.009455 -0.000000
v -0.073139 -0.012409 0.005117
v 0.073138 -0.016390 0.005819
v 0.073138 -0.015364 0.005910
v 0.073138 -0.017385 0.005553
v 0.086612 -0.017384 0.005549
v 0.086612 -0.016389 0.005815
v 0.086612 -0.015364 0.005906
v 0.073138 -0.019162 0.004527
v 0.086612 -0.019160 0.004524
v 0.086612 -0.018316 0.005114
v 0.073138 -0.019890 0.003798
v 0.073138 -0.020482 0.002955
v 0.086612 -0.020478 0.002953
v 0.086612 -0.019887 0.003796
v 0.073138 -0.020916 0.002021
v 0.073138 -0.021183 0.001026
v 0.086612 -0.021180 0.001025
v 0.086612 -0.020913 0.002020
v 0.073138 -0.021273 0.000000
v 0.073138 -0.021183 -0.001026
v 0.086612 -0.021180 -0.001025
v 0.086612 -0.021269 0.000000
v 0.073138 -0.020482 -0.002955
v 0.086612 -0.020478 -0.002953
v 0.086612 -0.020913 -0.002020
v 0.073138 -0.019890 -0.003798
v 0.085493 -0.019163 -0.004523
v 0.086612 -0.019887 -0.003796
v 0.073138 -0.018318 -0.005117
v 0.073138 -0.017385 -0.005553
v 0.086612 -0.017384 -0.005550
v 0.086612 -0.018316 -0.005114
v 0.073138 -0.016390 -0.005819
v 0.073138 -0.015364 -0.005910
v 0.086612 -0.015364 -0.005906
v 0.086612 -0.016389 -0.005815
v 0.086612 -0.013344 -0.005550
v 0.086612 -0.014338 -0.005815
v 0.073138 -0.012409 -0.005117
v 0.073138 -0.011565 -0.004527
v 0.086612 -0.011568 -0.004524
v 0.086612 -0.012411 -0.005114
v 0.073138 -0.010837 -0.003798
v 0.072863 -0.010246 -0.002955
v 0.086612 -0.010249 -0.002953
v 0.086612 -0.010840 -0.003796
v 0.073138 -0.009544 -0.001026
v 0.086612 -0.009548 -0.001025
v 0.086612 -0.009815 -0.002020
v 0.073138 -0.009455 0.000000
v 0.073138 -0.009544 0.001026
v 0.086612 -0.009548 0.001025
v 0.086612 -0.009459 0.000000
v 0.073138 -0.009811 0.002021
v 0.073138 -0.010246 0.002955
v 0.086612 -0.010249 0.002953
v 0.086612 -0.009815 0.002020
v 0.073138 -0.010837 0.003798
v 0.072926 -0.011565 0.004527
v 0.086612 -0.011568 0.004524
v 0.086612 -0.010840 0.003796
v 0.073138 -0.012409 0.005117
v 0.073138 -0.013342 0.005553
v 0.086612 -0.013344 0.005549
v 0.086612 -0.012411 0.005114
v 0.073138 -0.014338 0.005819
v 0.086612 -0.014338 0.005815
v -0.091900 -0.015364 0.000000
v -0.091927 -0.012451 0.003030
v -0.091913 -0.012098 0.000985
v -0.091913 -0.012229 -0.001344
v -0.091913 -0.013826 -0.003045
v -0.091930 -0.016074 -0.004289
v -0.091915 -0.017413 -0.002660
v -0.091917 -0.018720 -0.000927
v -0.091916 -0.018439 0.001818
v -0.091913 -0.015300 0.003442
v 0.091900 -0.015364 0.000000
v 0.091913 -0.018095 0.002043
v 0.091913 -0.018769 -0.000191
v 0.091913 -0.017850 -0.002335
v 0.091909 -0.014143 -0.003112
v 0.091913 -0.012099 -0.000986
v 0.091912 -0.012712 0.002100
v 0.091909 -0.015446 0.003342
v -0.091879 -0.015351 0.005367
v -0.091879 -0.017187 0.005047
v -0.091879 -0.020006 0.002694
v -0.091879 -0.020651 -0.000920
v -0.091881 -0.019791 -0.003065
v -0.091879 -0.018823 -0.004103
v -0.091872 -0.015834 -0.005374
v -0.091879 -0.013540 -0.005047
v -0.091881 -0.011577 -0.003828
v -0.091879 -0.010723 -0.002695
v -0.091881 -0.010156 0.001368
v -0.091879 -0.010709 0.002671
v 0.091881 -0.016785 0.005193
v 0.091879 -0.020018 0.002672
v 0.091879 -0.020646 -0.000945
v 0.091879 -0.018803 -0.004119
v 0.091879 -0.015351 -0.005367
v 0.091863 -0.010680 -0.002684
v 0.091880 -0.010155 -0.001366
v 0.091880 -0.010496 0.002302
v -0.091235 -0.016384 0.005784
v -0.091235 -0.015364 0.005874
v -0.091362 -0.016375 0.005734
v -0.091362 -0.015364 0.005823
v -0.091362 -0.017355 0.005472
v -0.091235 -0.017373 0.005519
v -0.091235 -0.018300 0.005086
v -0.091362 -0.018275 0.005043
v -0.091362 -0.019107 0.004461
v -0.091235 -0.019139 0.004499
v -0.091235 -0.019863 0.003775
v -0.091362 -0.019824 0.003743
v -0.091362 -0.020407 0.002912
v -0.091235 -0.020450 0.002937
v -0.091235 -0.020883 0.002009
v -0.091362 -0.020835 0.001991
v -0.091418 -0.021069 0.001006
v -0.091235 -0.021148 0.001020
v -0.091235 -0.021236 0.000000
v -0.091362 -0.021186 0.000000
v -0.091362 -0.021099 -0.001011
v -0.091235 -0.021148 -0.001020
v -0.091235 -0.020883 -0.002009
v -0.091362 -0.020835 -0.001992
v -0.091362 -0.020407 -0.002912
v -0.091235 -0.020450 -0.002937
v -0.091235 -0.019863 -0.003775
v -0.091362 -0.019824 -0.003743
v -0.091362 -0.019107 -0.004461
v -0.091235 -0.019139 -0.004499
v -0.091235 -0.018300 -0.005086
v -0.091362 -0.018275 -0.005043
v -0.091362 -0.017355 -0.005472
v -0.091235 -0.017373 -0.005519
v -0.091235 -0.016384 -0.005784
v -0.091362 -0.016375 -0.005734
v -0.091362 -0.015364 -0.005823
v -0.091235 -0.015364 -0.005874
v -0.091235 -0.014344 -0.005784
v -0.091362 -0.014353 -0.005734
v -0.091362 -0.013372 -0.005472
v -0.091235 -0.013355 -0.005519
v -0.091235 -0.012427 -0.005086
v -0.091362 -0.012452 -0.005043
v -0.091362 -0.011621 -0.004461
v -0.091235 -0.011588 -0.004499
v -0.091235 -0.010865 -0.003775
v -0.091362 -0.010903 -0.003743
v -0.091362 -0.010320 -0.002912
v -0.091235 -0.010277 -0.002937
v -0.091235 -0.009845 -0.002009
v -0.091362 -0.009892 -0.001992
v -0.091362 -0.009629 -0.001011
v -0.091235 -0.009579 -0.001020
v -0.091235 -0.009491 0.000000
v -0.091362 -0.009541 0.000000
v -0.091362 -0.009629 0.001011
v -0.091235 -0.009579 0.001020
v -0.091235 -0.009845 0.002009
v -0.091362 -0.009892 0.001991
v -0.091362 -0.010320 0.002912
v -0.091235 -0.010277 0.002937
v -0.091235 -0.010865 0.003775
v -0.091362 -0.010903 0.003743
v -0.091362 -0.011621 0.004461
v -0.091235 -0.011588 0.004499
v -0.091235 -0.012427 0.005086
v -0.091362 -0.012452 0.005043
v -0.091362 -0.013372 0.005472
v -0.091235 -0.013355 0.005519
v -0.091235 -0.014344 0.005784
v -0.091362 -0.014353 0.005734
v 0.091206 -0.016387 0.005803
v 0.091206 -0.017380 0.005538
v 0.091206 -0.015364 0.005894
v 0.091206 -0.018310 0.005103
v 0.091206 -0.019152 0.004515
v 0.091206 -0.019878 0.003788
v 0.091206 -0.020468 0.002947
v 0.091206 -0.020901 0.002015
v 0.091206 -0.021168 0.001023
v 0.091206 -0.021256 -0.000000
v 0.091206 -0.021168 -0.001023
v 0.091206 -0.020901 -0.002016
v 0.091206 -0.020468 -0.002947
v 0.091206 -0.019878 -0.003788
v 0.091207 -0.019152 -0.004515
v 0.091206 -0.018310 -0.005104
v 0.091298 -0.017364 -0.005496
v 0.091298 -0.016379 -0.005759
v 0.091298 -0.015364 -0.005848
v 0.091298 -0.014348 -0.005759
v 0.091298 -0.013363 -0.005496
v 0.091298 -0.012440 -0.005064
v 0.091298 -0.011604 -0.004480
v 0.091235 -0.010277 -0.002937
v 0.091298 -0.010884 -0.003759
v 0.091418 -0.010347 -0.002896
v 0.091298 -0.009869 -0.002000
v 0.091207 -0.009560 -0.001023
v 0.091206 -0.009826 0.002015
v 0.091206 -0.010260 0.002947
v 0.091206 -0.010849 0.003788
v 0.091428 -0.011635 0.004446
v 0.091206 -0.012417 0.005103
v 0.091206 -0.013348 0.005538
v 0.091206 -0.014341 0.005803
v -0.091879 -0.016283 0.005287
v -0.091879 -0.018036 0.004654
v -0.091881 -0.019150 0.003828
v -0.091871 -0.020597 0.001348
v -0.091879 -0.020411 -0.001823
v -0.091879 -0.018058 -0.004641
v -0.091879 -0.017211 -0.005039
v -0.091879 -0.014445 -0.005287
v -0.091879 -0.012692 -0.004654
v -0.091879 -0.010325 -0.001847
v -0.091879 -0.010081 -0.000945
v -0.091879 -0.009998 -0.000012
v -0.091881 -0.011544 0.003795
v -0.091879 -0.012670 0.004641
v -0.091881 -0.013943 0.005194
v 0.091879 -0.015376 0.005367
v 0.091879 -0.018058 0.004641
v 0.091879 -0.018822 0.004103
v 0.091879 -0.019482 0.003439
v 0.091879 -0.020651 0.000919
v 0.091879 -0.020411 0.001824
v 0.091880 -0.020729 -0.000012
v 0.091880 -0.020232 -0.002300
v 0.091879 -0.019466 -0.003459
v 0.091881 -0.017614 -0.004892
v 0.091881 -0.013943 -0.005194
v 0.091881 -0.011544 -0.003795
v 0.091879 -0.009998 0.000014
v 0.091879 -0.010081 0.000945
v 0.091831 -0.011208 0.003527
v 0.091879 -0.011924 0.004120
v 0.091879 -0.012691 0.004654
v 0.091881 -0.013987 0.005206
v -0.091155 -0.016387 0.005804
v -0.091155 -0.015364 0.005894
v -0.091155 -0.017380 0.005539
v -0.091155 -0.018311 0.005104
v -0.091155 -0.019153 0.004515
v -0.091155 -0.019878 0.003788
v -0.091155 -0.020468 0.002947
v -0.091155 -0.020902 0.002016
v -0.091155 -0.021168 0.001023
v -0.091155 -0.021257 0.000000
v -0.091155 -0.021168 -0.001024
v -0.091155 -0.020902 -0.002016
v -0.091155 -0.020468 -0.002947
v -0.091155 -0.019878 -0.003788
v -0.091155 -0.019153 -0.004515
v -0.091155 -0.018311 -0.005104
v -0.091155 -0.017380 -0.005539
v -0.091155 -0.016387 -0.005804
v -0.091155 -0.015364 -0.005894
v -0.091155 -0.014340 -0.005804
v -0.091155 -0.013348 -0.005539
v -0.091155 -0.012417 -0.005104
v -0.091155 -0.011575 -0.004515
v -0.091155 -0.010849 -0.003788
v -0.091155 -0.010259 -0.002947
v -0.091155 -0.009826 -0.002016
v -0.091155 -0.009559 -0.001024
v -0.091155 -0.009470 0.000000
v -0.091155 -0.009559 0.001023
v -0.091155 -0.009826 0.002016
v -0.091155 -0.010259 0.002947
v -0.091155 -0.010849 0.003788
v -0.091155 -0.011575 0.004515
v -0.091155 -0.012417 0.005104
v -0.091155 -0.013348 0.005539
v -0.091155 -0.014340 0.005804
v 0.091155 -0.017380 -0.005539
v 0.091155 -0.016387 -0.005804
v 0.091155 -0.015364 -0.005894
v 0.091155 -0.014340 -0.005804
v 0.091155 -0.013348 -0.005539
v 0.091155 -0.012417 -0.005104
v 0.091155 -0.011575 -0.004515
v 0.091155 -0.010849 -0.003788
v 0.091155 -0.010259 -0.002947
v 0.091155 -0.009826 -0.002016
v 0.091205 -0.009470 -0.000000
v 0.091207 -0.009560 0.001024
v 0.091155 -0.011575 0.004515
v -0.091516 -0.016358 0.005641
v -0.091516 -0.015364 0.005729
v -0.091516 -0.017323 0.005384
v -0.091516 -0.018228 0.004961
v -0.091516 -0.019046 0.004389
v -0.091516 -0.019752 0.003682
v -0.091516 -0.020325 0.002865
v -0.091516 -0.020747 0.001959
v -0.091831 -0.020814 0.000029
v -0.091516 -0.021006 -0.000995
v -0.091516 -0.020747 -0.001959
v -0.091516 -0.020325 -0.002865
v -0.091516 -0.019752 -0.003682
v -0.091516 -0.019046 -0.004389
v -0.091516 -0.018228 -0.004961
v -0.091516 -0.017323 -0.005384
v -0.091516 -0.016358 -0.005641
v -0.091516 -0.015364 -0.005729
v -0.091516 -0.014369 -0.005641
v -0.091516 -0.013404 -0.005384
v -0.091516 -0.012499 -0.004961
v -0.091516 -0.011681 -0.004389
v -0.091516 -0.010976 -0.003682
v -0.091516 -0.010402 -0.002865
v -0.091516 -0.009981 -0.001959
v -0.091516 -0.009722 -0.000995
v -0.091516 -0.009635 0.000000
v -0.091516 -0.009722 0.000995
v -0.091516 -0.009981 0.001959
v -0.091516 -0.010402 0.002865
v -0.091516 -0.010976 0.003682
v -0.091516 -0.011681 0.004389
v -0.091516 -0.012499 0.004961
v -0.091516 -0.013404 0.005384
v -0.091516 -0.014369 0.005641
v 0.091516 -0.016358 0.005641
v 0.091516 -0.017323 0.005384
v 0.091516 -0.015364 0.005729
v 0.091516 -0.018228 0.004961
v 0.091516 -0.019046 0.004389
v 0.091516 -0.019752 0.003682
v 0.091516 -0.020325 0.002865
v 0.091516 -0.020746 0.001959
v 0.091516 -0.021006 0.000995
v 0.091516 -0.021092 0.000000
v 0.091516 -0.021006 -0.000995
v 0.091516 -0.020746 -0.001959
v 0.091516 -0.020325 -0.002865
v 0.091516 -0.019752 -0.003682
v 0.091516 -0.019046 -0.004389
v 0.091516 -0.018228 -0.004961
v 0.091516 -0.017323 -0.005384
v 0.091516 -0.016358 -0.005641
v 0.091516 -0.015364 -0.005729
v 0.091516 -0.014369 -0.005641
v 0.091516 -0.013404 -0.005384
v 0.091830 -0.012612 -0.004706
v 0.091521 -0.011306 -0.004074
v 0.091516 -0.009981 -0.001959
v 0.091516 -0.009722 -0.000995
v 0.091516 -0.009635 0.000000
v 0.091516 -0.009722 0.000995
v 0.091516 -0.009981 0.001959
v 0.091516 -0.010402 0.002865
v 0.091516 -0.012499 0.004961
v 0.091516 -0.013404 0.005384
v 0.091516 -0.014369 0.005641
v -0.091991 -0.018886 0.003697
v -0.091979 -0.020195 0.001315
v -0.091991 -0.019617 -0.002827
v -0.091984 -0.017462 -0.004500
v -0.091991 -0.015812 -0.005071
v -0.091974 -0.013900 -0.004736
v -0.091991 -0.011841 -0.003697
v -0.091979 -0.010533 -0.001316
v -0.091991 -0.010400 0.001202
v -0.091984 -0.011853 0.003511
v -0.091984 -0.013265 0.004500
v -0.091985 -0.015310 0.004971
v 0.091974 -0.017287 0.004568
v 0.091979 -0.015821 0.004986
v 0.091975 -0.018466 0.003878
v 0.091985 -0.019659 0.002851
v 0.091967 -0.019646 0.001997
v 0.091979 -0.020353 0.000417
v 0.091991 -0.019938 -0.002270
v 0.091951 -0.016243 -0.005195
v 0.091991 -0.012334 -0.004111
v 0.091991 -0.010400 -0.001202
v 0.091990 -0.010787 0.002290
v 0.091991 -0.013319 0.004679
v -0.091974 -0.016827 0.004736
v -0.091952 -0.014272 0.004547
v -0.091952 -0.010881 0.001329
v -0.091952 -0.011972 -0.003218
v -0.091952 -0.019122 -0.002782
v -0.091979 -0.020353 -0.000416
v -0.091952 -0.018756 0.003218
v 0.091952 -0.019652 -0.001863
v 0.091979 -0.018219 -0.004113
v 0.091936 -0.016615 -0.004020
v 0.091979 -0.015233 -0.005025
v 0.091952 -0.012784 -0.003900
v 0.091952 -0.010881 -0.001329
v 0.091941 -0.011084 0.001474
v 0.091952 -0.013277 0.004184
f 1 2 565
f 565 566 1
f 2 3 564
f 564 565 2
f 568 564 3
f 3 4 567
f 567 568 3
f 570 567 4
f 4 5 569
f 569 570 4
f 5 6 572
f 572 569 5
f 571 572 6
f 6 7 574
f 574 571 6
f 573 574 7
f 7 8 576
f 576 573 7
f 575 576 8
f 8 9 578
f 578 575 8
f 577 578 9
f 580 577 9
f 9 10 579
f 579 580 9
f 582 579 10
f 10 11 581
f 581 582 10
f 11 12 584
f 584 581 11
f 583 584 12
f 586 583 12
f 585 586 12
f 12 13 15
f 15 585 12
f 14 15 13
f 13 16 18
f 18 14 13
f 17 18 16
f 20 17 16
f 19 20 16
f 16 21 592
f 592 19 16
f 591 592 21
f 21 22 24
f 24 591 21
f 23 24 22
f 22 25 27
f 27 23 22
f 26 27 25
f 28 26 25
f 596 28 25
f 25 30 29
f 29 596 25
f 31 29 30
f 30 32 33
f 33 31 30
f 32 34 598
f 598 33 32
f 600 598 34
f 34 35 599
f 599 600 34
f 35 36 602
f 602 599 35
f 601 602 36
f 36 37 604
f 604 601 36
f 603 604 37
f 606 603 37
f 605 606 37
f 37 38 608
f 608 605 37
f 607 608 38
f 41 607 38
f 38 39 40
f 40 41 38
f 610 40 39
f 39 42 609
f 609 610 39
f 612 609 42
f 42 43 611
f 611 612 42
f 614 611 43
f 43 44 613
f 613 614 43
f 44 1 615
f 615 613 44
f 566 615 1
f 44 43 45
f 45 1 44
f 42 45 43
f 42 39 45
f 38 45 39
f 37 45 38
f 36 45 37
f 35 34 45
f 45 36 35
f 32 45 34
f 45 32 30
f 25 45 30
f 22 45 25
f 45 22 21
f 16 45 21
f 13 45 16
f 45 13 12
f 11 10 45
f 45 12 11
f 9 45 10
f 8 45 9
f 45 8 7
f 6 45 7
f 5 4 45
f 45 6 5
f 3 45 4
f 3 2 45
f 1 45 2
f 46 47 48
f 48 49 46
f 47 50 51
f 51 48 47
f 52 53 48
f 48 51 52
f 53 54 55
f 55 48 53
f 56 57 48
f 48 55 56
f 57 58 59
f 59 48 57
f 60 61 48
f 48 59 60
f 61 62 63
f 63 48 61
f 64 65 48
f 48 63 64
f 65 66 67
f 67 48 65
f 68 69 48
f 48 67 68
f 69 70 71
f 71 48 69
f 72 73 48
f 48 71 72
f 73 74 75
f 75 48 73
f 76 77 48
f 48 75 76
f 77 78 79
f 79 48 77
f 80 81 48
f 48 79 80
f 81 82 83
f 83 48 81
f 84 85 48
f 48 83 84
f 85 86 87
f 87 48 85
f 88 89 48
f 48 87 88
f 89 90 91
f 91 48 89
f 92 93 48
f 48 91 92
f 93 94 95
f 95 48 93
f 96 97 48
f 48 95 96
f 97 98 99
f 99 48 97
f 100 101 48
f 48 99 100
f 101 102 103
f 103 48 101
f 104 105 48
f 48 103 104
f 105 106 49
f 49 48 105
f 107 108 617
f 617 618 107
f 108 109 616
f 616 617 108
f 620 616 109
f 109 110 619
f 619 620 109
f 622 619 110
f 621 622 110
f 110 111 624
f 624 621 110
f 623 624 111
f 111 112 626
f 626 623 111
f 625 626 112
f 628 625 112
f 627 628 112
f 112 113 630
f 630 627 112
f 114 630 113
f 113 117 116
f 116 114 113
f 115 116 117
f 634 115 117
f 633 634 117
f 117 118 120
f 120 633 117
f 119 120 118
f 118 122 121
f 121 119 118
f 123 121 122
f 125 123 122
f 124 125 122
f 122 126 128
f 128 124 122
f 127 128 126
f 126 129 131
f 131 127 126
f 130 131 129
f 129 132 643
f 643 130 129
f 642 643 132
f 134 642 132
f 133 134 132
f 132 135 137
f 137 133 132
f 136 137 135
f 135 138 140
f 140 136 135
f 138 139 644
f 644 140 138
f 139 141 646
f 646 644 139
f 141 142 645
f 645 646 141
f 142 143 648
f 648 645 142
f 143 144 647
f 647 648 143
f 650 647 144
f 144 145 649
f 649 650 144
f 652 649 145
f 651 652 145
f 145 146 653
f 653 651 145
f 147 653 146
f 146 148 150
f 150 147 146
f 149 150 148
f 148 153 151
f 151 149 148
f 152 151 153
f 658 152 153
f 657 658 153
f 153 154 660
f 660 657 153
f 154 155 659
f 659 660 154
f 662 659 155
f 155 156 661
f 661 662 155
f 664 661 156
f 663 664 156
f 156 107 665
f 665 663 156
f 618 665 107
f 157 107 156
f 155 157 156
f 155 154 157
f 153 157 154
f 148 157 153
f 157 148 146
f 145 157 146
f 145 144 157
f 143 157 144
f 142 141 157
f 157 143 142
f 141 139 138
f 138 157 141
f 157 138 135
f 132 157 135
f 129 157 132
f 157 129 126
f 122 157 126
f 118 157 122
f 157 118 117
f 157 117 113
f 112 157 113
f 111 157 112
f 157 111 110
f 109 157 110
f 109 108 157
f 107 157 108
f 158 159 160
f 160 161 158
f 159 162 163
f 163 160 159
f 164 165 160
f 160 163 164
f 165 166 167
f 167 160 165
f 168 169 160
f 160 167 168
f 169 170 171
f 171 160 169
f 172 173 160
f 160 171 172
f 173 174 175
f 175 160 173
f 176 177 160
f 160 175 176
f 177 178 179
f 179 160 177
f 180 181 160
f 160 179 180
f 181 182 183
f 183 160 181
f 184 185 160
f 160 183 184
f 185 186 187
f 187 160 185
f 188 189 160
f 160 187 188
f 189 190 191
f 191 160 189
f 192 193 160
f 160 191 192
f 193 194 195
f 195 160 193
f 196 197 160
f 160 195 196
f 197 198 199
f 199 160 197
f 200 201 160
f 160 199 200
f 201 202 203
f 203 160 201
f 204 205 160
f 160 203 204
f 205 206 207
f 207 160 205
f 208 209 160
f 160 207 208
f 209 210 211
f 211 160 209
f 212 213 160
f 160 211 212
f 213 214 215
f 215 160 213
f 216 217 160
f 160 215 216
f 217 218 161
f 161 160 217
f 219 350 220
f 557 221 373
f 373 223 557
f 345 224 351
f 370 229 317
f 346 317 318
f 225 346 318
f 318 320 225
f 225 320 226
f 378 320 353
f 378 227 349
f 378 379 227
f 228 227 379
f 562 228 354
f 354 355 297
f 229 354 297
f 297 317 229
f 666 667 230
f 230 231 666
f 667 668 230
f 669 670 231
f 231 232 669
f 670 666 231
f 671 672 232
f 672 669 232
f 381 339 232
f 233 232 339
f 673 674 232
f 232 233 673
f 674 671 232
f 233 382 234
f 675 676 233
f 233 234 675
f 676 673 233
f 235 234 382
f 677 678 234
f 234 235 677
f 678 675 234
f 382 324 236
f 236 235 382
f 237 679 235
f 235 236 237
f 679 677 235
f 680 681 236
f 681 237 236
f 324 239 238
f 238 236 324
f 682 683 238
f 683 680 236
f 236 238 683
f 239 325 240
f 684 685 239
f 239 240 684
f 685 682 238
f 238 239 685
f 686 687 240
f 687 684 240
f 241 240 325
f 688 689 240
f 240 241 688
f 689 686 240
f 690 691 241
f 241 242 690
f 691 688 241
f 692 693 243
f 693 690 242
f 242 243 693
f 243 384 244
f 694 695 243
f 243 244 694
f 695 692 243
f 696 697 244
f 244 245 696
f 697 694 244
f 245 326 247
f 247 246 245
f 698 699 246
f 246 247 698
f 699 696 245
f 245 246 699
f 248 247 326
f 700 701 248
f 701 698 247
f 247 248 701
f 248 341 249
f 341 368 249
f 702 703 249
f 703 700 248
f 248 249 703
f 704 250 249
f 250 702 249
f 252 705 251
f 705 704 249
f 249 251 705
f 253 254 385
f 254 252 251
f 251 385 254
f 706 707 255
f 707 253 385
f 385 255 707
f 327 255 343
f 708 709 255
f 255 327 708
f 709 706 255
f 710 711 327
f 327 256 710
f 711 708 327
f 712 713 256
f 713 710 256
f 257 256 356
f 714 715 256
f 256 257 714
f 715 712 256
f 258 257 356
f 716 717 258
f 717 714 257
f 257 258 717
f 718 719 259
f 719 716 258
f 258 259 719
f 230 259 328
f 668 720 259
f 259 230 668
f 720 718 259
f 260 289 302
f 329 260 302
f 721 722 260
f 260 329 721
f 722 723 289
f 289 260 722
f 724 262 261
f 262 721 329
f 329 261 262
f 329 330 261
f 725 726 261
f 726 724 261
f 263 261 330
f 727 728 263
f 728 725 261
f 261 263 728
f 263 386 264
f 729 730 264
f 730 727 263
f 263 264 730
f 731 732 264
f 732 729 264
f 266 733 387
f 387 265 266
f 733 731 264
f 264 387 733
f 265 303 267
f 734 735 265
f 265 267 734
f 735 266 265
f 268 267 303
f 736 737 267
f 267 268 736
f 737 734 267
f 738 739 268
f 268 269 738
f 739 736 268
f 740 741 269
f 269 270 740
f 741 738 269
f 271 270 388
f 742 743 270
f 270 271 742
f 743 740 270
f 272 271 388
f 744 745 272
f 745 742 271
f 271 272 745
f 272 304 273
f 746 747 273
f 747 744 272
f 272 273 747
f 274 273 304
f 748 749 274
f 749 746 273
f 273 274 749
f 274 331 275
f 750 751 275
f 751 748 274
f 274 275 751
f 276 275 331
f 752 753 276
f 753 750 275
f 275 276 753
f 277 276 389
f 754 755 276
f 276 277 754
f 755 752 276
f 756 757 277
f 277 278 756
f 757 754 277
f 279 278 305
f 758 280 278
f 278 279 758
f 280 756 278
f 281 759 279
f 759 758 279
f 283 284 282
f 284 281 279
f 279 282 284
f 760 761 282
f 282 285 760
f 761 283 282
f 762 763 285
f 285 391 762
f 763 760 285
f 764 765 286
f 765 762 391
f 391 286 765
f 766 767 287
f 767 764 286
f 286 287 767
f 768 769 288
f 769 766 287
f 287 288 769
f 770 771 288
f 771 768 288
f 772 773 357
f 773 770 288
f 288 357 773
f 723 774 289
f 774 772 357
f 357 289 774
f 399 372 309
f 400 219 372
f 372 399 400
f 219 400 403
f 219 403 290
f 410 350 290
f 350 410 413
f 350 413 332
f 416 310 332
f 310 416 419
f 310 419 420
f 310 420 423
f 291 373 221
f 221 426 291
f 311 358 374
f 359 360 374
f 312 360 361
f 314 362 451
f 461 294 315
f 294 461 462
f 297 477 481
f 481 317 297
f 485 352 317
f 317 484 485
f 352 485 488
f 352 488 491
f 494 318 492
f 498 299 298
f 353 364 321
f 321 512 513
f 513 353 321
f 353 513 377
f 335 378 377
f 378 335 524
f 378 524 525
f 378 525 529
f 337 228 539
f 228 337 323
f 323 338 301
f 301 354 323
f 555 297 355
f 355 554 555
f 297 555 477
f 381 220 339
f 382 367 324
f 557 325 340
f 558 383 325
f 325 557 558
f 558 222 383
f 222 326 384
f 326 222 341
f 559 368 341
f 385 342 343
f 370 302 308
f 346 330 370
f 346 386 330
f 349 331 304
f 305 561 390
f 374 223 311
f 223 374 360
f 312 445 313
f 454 224 314
f 224 454 455
f 224 455 315
f 315 294 351
f 351 375 376
f 309 372 316
f 318 352 492
f 300 320 299
f 529 365 378
f 354 380 355
f 366 231 230
f 231 366 381
f 367 382 233
f 233 339 367
f 340 325 239
f 383 241 325
f 243 383 384
f 326 245 384
f 341 248 326
f 368 251 249
f 251 368 385
f 327 343 369
f 369 256 327
f 369 356 256
f 328 258 356
f 328 259 258
f 366 230 328
f 329 302 370
f 386 263 330
f 331 274 304
f 220 381 366
f 367 339 220
f 324 367 340
f 344 343 342
f 344 369 343
f 345 328 356
f 560 371 386
f 371 560 347
f 347 303 371
f 390 561 562
f 562 306 390
f 563 307 306
f 229 308 307
f 350 332 310
f 221 350 310
f 423 221 310
f 373 293 311
f 223 373 311
f 360 313 223
f 313 360 312
f 313 224 223
f 224 313 314
f 315 351 224
f 351 376 316
f 351 316 372
f 372 219 351
f 317 352 318
f 318 319 299
f 320 318 299
f 364 353 320
f 378 353 377
f 365 379 378
f 228 379 322
f 354 228 323
f 381 232 231
f 383 242 241
f 383 243 242
f 384 245 244
f 343 255 385
f 303 265 387
f 270 269 388
f 276 331 389
f 305 278 277
f 277 389 305
f 279 305 390
f 390 282 279
f 391 285 282
f 282 390 391
f 306 286 391
f 306 287 286
f 287 306 307
f 307 288 287
f 308 357 288
f 288 307 308
f 357 308 302
f 302 289 357
f 404 290 403
f 290 404 407
f 290 407 409
f 290 409 410
f 292 373 291
f 431 293 292
f 293 431 432
f 436 374 358
f 374 436 439
f 374 439 359
f 443 312 361
f 312 443 445
f 314 451 454
f 333 294 462
f 294 333 468
f 468 351 294
f 351 468 375
f 334 376 375
f 376 334 295
f 473 376 295
f 376 473 296
f 392 316 296
f 393 309 316
f 316 392 393
f 484 317 481
f 495 318 494
f 318 495 496
f 496 319 318
f 319 496 298
f 499 299 498
f 299 499 363
f 363 300 299
f 320 300 504
f 505 320 504
f 320 505 507
f 320 507 364
f 364 510 511
f 364 511 321
f 517 377 513
f 377 517 520
f 379 365 534
f 379 534 336
f 546 354 301
f 546 380 354
f 380 546 548
f 551 355 380
f 355 551 554
f 368 559 342
f 342 385 368
f 369 344 345
f 303 347 269
f 226 269 347
f 269 226 388
f 348 304 388
f 331 349 389
f 290 350 219
f 426 221 423
f 373 292 293
f 446 313 445
f 313 446 362
f 313 362 314
f 458 315 455
f 296 316 376
f 319 298 299
f 379 336 322
f 322 539 228
f 340 239 324
f 222 384 383
f 329 370 330
f 371 387 264
f 264 386 371
f 371 303 387
f 268 303 269
f 272 388 304
f 306 391 390
f 392 394 393
f 395 396 393
f 309 393 396
f 396 399 309
f 396 395 397
f 398 399 396
f 396 397 398
f 399 398 401
f 401 400 399
f 402 403 400
f 400 401 402
f 403 402 405
f 405 404 403
f 406 407 404
f 404 405 406
f 407 406 408
f 407 408 409
f 411 410 409
f 412 413 410
f 410 411 412
f 332 413 414
f 414 416 332
f 413 412 414
f 415 416 414
f 416 415 417
f 418 419 416
f 416 417 418
f 419 418 421
f 421 420 419
f 422 423 420
f 420 421 422
f 423 422 424
f 424 426 423
f 426 424 425
f 426 425 427
f 427 291 426
f 291 427 428
f 428 292 291
f 429 292 428
f 292 429 430
f 292 430 431
f 293 432 433
f 433 311 293
f 311 433 358
f 434 436 358
f 435 436 434
f 436 435 437
f 437 439 436
f 439 437 438
f 439 438 359
f 440 360 359
f 360 440 361
f 441 361 440
f 361 441 442
f 442 443 361
f 597 443 442
f 444 445 443
f 443 597 444
f 445 444 447
f 447 446 445
f 448 362 446
f 446 447 448
f 362 448 449
f 450 451 362
f 362 449 450
f 451 450 452
f 453 454 451
f 451 452 453
f 454 453 456
f 456 455 454
f 457 458 455
f 455 456 457
f 315 458 459
f 459 461 315
f 458 457 459
f 460 461 459
f 461 460 463
f 463 462 461
f 464 333 462
f 462 463 464
f 465 468 333
f 333 464 466
f 466 465 333
f 467 468 465
f 465 466 467
f 468 467 469
f 469 375 468
f 375 469 470
f 470 334 375
f 471 334 470
f 472 295 334
f 334 471 472
f 295 472 474
f 474 473 295
f 475 296 473
f 473 474 475
f 296 475 476
f 476 392 296
f 392 476 394
f 477 478 479
f 480 481 477
f 477 479 480
f 481 480 482
f 482 484 481
f 484 482 483
f 484 483 486
f 486 485 484
f 487 488 485
f 485 486 487
f 488 487 489
f 489 491 488
f 491 489 490
f 491 492 352
f 491 490 493
f 493 492 491
f 492 493 494
f 497 298 496
f 629 298 497
f 298 629 632
f 632 498 298
f 631 499 498
f 498 632 631
f 499 631 500
f 500 363 499
f 501 502 363
f 363 500 501
f 502 300 363
f 502 504 300
f 502 501 503
f 502 503 504
f 637 505 504
f 506 507 505
f 505 637 506
f 364 507 510
f 507 506 508
f 508 510 507
f 510 508 509
f 510 509 511
f 321 511 512
f 514 513 512
f 515 516 513
f 513 514 515
f 516 517 513
f 516 515 518
f 518 517 516
f 519 520 517
f 517 518 519
f 520 519 521
f 520 521 335
f 377 520 335
f 522 524 335
f 523 524 522
f 524 523 526
f 526 525 524
f 527 528 525
f 525 526 527
f 528 529 525
f 528 527 530
f 530 529 528
f 529 530 531
f 365 529 531
f 365 531 532
f 532 534 365
f 533 534 532
f 534 533 535
f 535 336 534
f 336 535 536
f 537 322 336
f 336 536 537
f 538 539 322
f 322 537 538
f 540 539 538
f 541 337 539
f 539 540 541
f 542 323 337
f 337 541 542
f 323 542 338
f 656 301 338
f 543 301 656
f 544 546 301
f 301 543 544
f 545 546 544
f 546 545 547
f 546 547 548
f 380 548 549
f 549 551 380
f 550 551 549
f 551 550 552
f 553 554 551
f 551 552 553
f 554 553 556
f 556 555 554
f 478 477 555
f 555 556 478
f 219 366 345
f 366 219 220
f 350 367 220
f 367 350 221
f 221 340 367
f 221 557 340
f 558 557 223
f 223 222 558
f 223 559 222
f 559 341 222
f 559 223 224
f 224 342 559
f 224 344 342
f 344 224 345
f 345 356 369
f 345 351 219
f 345 366 328
f 317 346 370
f 386 346 560
f 560 346 225
f 225 347 560
f 347 225 226
f 320 348 226
f 348 388 226
f 348 320 378
f 304 348 349
f 378 349 348
f 389 349 227
f 227 305 389
f 305 227 561
f 561 227 228
f 228 562 561
f 306 562 563
f 354 563 562
f 307 563 229
f 354 229 563
f 308 229 370
f 564 395 393
f 393 565 564
f 394 566 565
f 565 393 394
f 567 398 397
f 397 568 567
f 395 564 568
f 568 397 395
f 569 402 401
f 401 570 569
f 398 567 570
f 570 401 398
f 571 406 405
f 405 572 571
f 402 569 572
f 572 405 402
f 573 409 408
f 408 574 573
f 406 571 574
f 574 408 406
f 575 412 411
f 411 576 575
f 409 573 576
f 576 411 409
f 577 415 414
f 414 578 577
f 412 575 578
f 578 414 412
f 579 418 417
f 417 580 579
f 415 577 580
f 580 417 415
f 581 422 421
f 421 582 581
f 418 579 582
f 582 421 418
f 583 425 424
f 424 584 583
f 422 581 584
f 584 424 422
f 585 428 427
f 427 586 585
f 425 583 586
f 586 427 425
f 14 587 588
f 588 15 14
f 587 430 429
f 429 588 587
f 428 585 588
f 588 429 428
f 15 588 585
f 17 589 590
f 590 18 17
f 589 432 431
f 431 590 589
f 430 587 590
f 590 431 430
f 587 14 18
f 18 590 587
f 433 20 19
f 19 358 433
f 432 589 433
f 589 17 20
f 20 433 589
f 591 435 434
f 434 592 591
f 358 19 592
f 592 434 358
f 23 593 594
f 594 24 23
f 593 438 437
f 437 594 593
f 435 591 594
f 594 437 435
f 24 594 591
f 26 440 595
f 595 27 26
f 359 595 440
f 438 593 595
f 595 359 438
f 593 23 27
f 27 595 593
f 441 28 596
f 596 442 441
f 440 26 28
f 28 441 440
f 597 29 31
f 31 444 597
f 442 596 597
f 29 597 596
f 598 448 447
f 447 33 598
f 444 31 33
f 33 447 444
f 599 450 449
f 449 600 599
f 448 598 600
f 600 449 448
f 601 453 452
f 452 602 601
f 450 599 602
f 602 452 450
f 603 457 456
f 456 604 603
f 453 601 604
f 604 456 453
f 605 460 459
f 459 606 605
f 457 603 606
f 606 459 457
f 607 464 463
f 463 608 607
f 460 605 608
f 608 463 460
f 40 467 466
f 466 41 40
f 464 607 41
f 41 466 464
f 609 470 469
f 469 610 609
f 467 40 610
f 610 469 467
f 611 472 471
f 471 612 611
f 470 609 612
f 612 471 470
f 613 475 474
f 474 614 613
f 472 611 614
f 614 474 472
f 566 394 476
f 476 615 566
f 475 613 615
f 615 476 475
f 616 480 479
f 479 617 616
f 478 618 617
f 617 479 478
f 619 483 482
f 482 620 619
f 480 616 620
f 620 482 480
f 621 487 486
f 486 622 621
f 483 619 622
f 622 486 483
f 623 490 489
f 489 624 623
f 487 621 624
f 624 489 487
f 625 494 493
f 493 626 625
f 490 623 626
f 626 493 490
f 627 496 495
f 495 628 627
f 494 625 628
f 628 495 494
f 114 629 630
f 497 630 629
f 496 627 630
f 630 497 496
f 115 631 632
f 632 116 115
f 629 114 116
f 116 632 629
f 633 501 500
f 500 634 633
f 634 500 631
f 631 115 634
f 119 635 636
f 636 120 119
f 635 504 503
f 503 636 635
f 501 633 636
f 636 503 501
f 120 636 633
f 637 121 123
f 123 506 637
f 504 635 637
f 635 119 121
f 121 637 635
f 124 638 639
f 639 125 124
f 638 509 508
f 508 639 638
f 506 123 639
f 639 508 506
f 125 639 123
f 127 640 641
f 641 128 127
f 640 512 511
f 511 641 640
f 509 638 641
f 641 511 509
f 638 124 128
f 128 641 638
f 514 131 130
f 130 515 514
f 512 640 514
f 640 127 131
f 131 514 640
f 642 519 518
f 518 643 642
f 515 130 643
f 643 518 515
f 133 335 521
f 521 134 133
f 519 642 134
f 134 521 519
f 136 523 522
f 522 137 136
f 335 133 137
f 137 522 335
f 644 527 526
f 526 140 644
f 523 136 140
f 140 526 523
f 645 531 530
f 530 646 645
f 527 644 646
f 646 530 527
f 647 533 532
f 532 648 647
f 531 645 648
f 648 532 531
f 649 536 535
f 535 650 649
f 533 647 650
f 650 535 533
f 651 538 537
f 537 652 651
f 536 649 652
f 652 537 536
f 147 541 540
f 540 653 147
f 538 651 653
f 653 540 538
f 149 654 655
f 655 150 149
f 654 338 542
f 542 655 654
f 541 147 655
f 655 542 541
f 150 655 147
f 152 543 656
f 656 151 152
f 338 654 656
f 654 149 151
f 151 656 654
f 657 545 544
f 544 658 657
f 658 544 543
f 543 152 658
f 659 548 547
f 547 660 659
f 545 657 660
f 660 547 545
f 661 550 549
f 549 662 661
f 548 659 662
f 662 549 548
f 663 553 552
f 552 664 663
f 550 661 664
f 664 552 550
f 618 478 556
f 556 665 618
f 553 663 665
f 665 556 553
f 666 50 47
f 47 667 666
f 46 668 667
f 667 47 46
f 669 52 51
f 51 670 669
f 50 666 670
f 670 51 50
f 671 54 53
f 53 672 671
f 52 669 672
f 672 53 52
f 673 56 55
f 55 674 673
f 54 671 674
f 674 55 54
f 675 58 57
f 57 676 675
f 56 673 676
f 676 57 56
f 677 60 59
f 59 678 677
f 58 675 678
f 678 59 58
f 237 62 61
f 61 679 237
f 60 677 679
f 679 61 60
f 680 64 63
f 63 681 680
f 62 237 681
f 681 63 62
f 682 66 65
f 65 683 682
f 64 680 683
f 683 65 64
f 684 68 67
f 67 685 684
f 66 682 685
f 685 67 66
f 686 70 69
f 69 687 686
f 68 684 687
f 687 69 68
f 688 72 71
f 71 689 688
f 70 686 689
f 689 71 70
f 690 74 73
f 73 691 690
f 72 688 691
f 691 73 72
f 692 76 75
f 75 693 692
f 74 690 693
f 693 75 74
f 694 78 77
f 77 695 694
f 76 692 695
f 695 77 76
f 696 80 79
f 79 697 696
f 78 694 697
f 697 79 78
f 698 82 81
f 81 699 698
f 80 696 699
f 699 81 80
f 700 84 83
f 83 701 700
f 82 698 701
f 701 83 82
f 702 86 85
f 85 703 702
f 84 700 703
f 703 85 84
f 704 88 87
f 87 250 704
f 86 702 250
f 250 87 86
f 252 90 89
f 89 705 252
f 88 704 705
f 705 89 88
f 253 92 91
f 91 254 253
f 90 252 254
f 254 91 90
f 706 94 93
f 93 707 706
f 92 253 707
f 707 93 92
f 708 96 95
f 95 709 708
f 94 706 709
f 709 95 94
f 710 98 97
f 97 711 710
f 96 708 711
f 711 97 96
f 712 100 99
f 99 713 712
f 98 710 713
f 713 99 98
f 714 102 101
f 101 715 714
f 100 712 715
f 715 101 100
f 716 104 103
f 103 717 716
f 102 714 717
f 717 103 102
f 718 106 105
f 105 719 718
f 104 716 719
f 719 105 104
f 668 46 49
f 49 720 668
f 106 718 720
f 720 49 106
f 721 162 159
f 159 722 721
f 158 723 722
f 722 159 158
f 724 164 163
f 163 262 724
f 162 721 262
f 262 163 162
f 725 166 165
f 165 726 725
f 164 724 726
f 726 165 164
f 727 168 167
f 167 728 727
f 166 725 728
f 728 167 166
f 729 170 169
f 169 730 729
f 168 727 730
f 730 169 168
f 731 172 171
f 171 732 731
f 170 729 732
f 732 171 170
f 266 174 173
f 173 733 266
f 172 731 733
f 733 173 172
f 734 176 175
f 175 735 734
f 174 266 735
f 735 175 174
f 736 178 177
f 177 737 736
f 176 734 737
f 737 177 176
f 738 180 179
f 179 739 738
f 178 736 739
f 739 179 178
f 740 182 181
f 181 741 740
f 180 738 741
f 741 181 180
f 742 184 183
f 183 743 742
f 182 740 743
f 743 183 182
f 744 186 185
f 185 745 744
f 184 742 745
f 745 185 184
f 746 188 187
f 187 747 746
f 186 744 747
f 747 187 186
f 748 190 189
f 189 749 748
f 188 746 749
f 749 189 188
f 750 192 191
f 191 751 750
f 190 748 751
f 751 191 190
f 752 194 193
f 193 753 752
f 192 750 753
f 753 193 192
f 754 196 195
f 195 755 754
f 194 752 755
f 755 195 194
f 756 198 197
f 197 757 756
f 196 754 757
f 757 197 196
f 758 200 199
f 199 280 758
f 198 756 280
f 280 199 198
f 281 202 201
f 201 759 281
f 200 758 759
f 759 201 200
f 283 204 203
f 203 284 283
f 202 281 284
f 284 203 202
f 760 206 205
f 205 761 760
f 204 283 761
f 761 205 204
f 762 208 207
f 207 763 762
f 206 760 763
f 763 207 206
f 764 210 209
f 209 765 764
f 208 762 765
f 765 209 208
f 766 212 211
f 211 767 766
f 210 764 767
f 767 211 210
f 768 214 213
f 213 769 768
f 212 766 769
f 769 213 212
f 770 216 215
f 215 771 770
f 214 768 771
f 771 215 214
f 772 218 217
f 217 773 772
f 216 770 773
f 773 217 216
f 723 158 161
f 161 774 723
f 218 772 774
f 774 161 218
f 775 780 776
f 776 777 775
f 778 775 777
f 777 779 778
f 775 778 855
f 781 778 779
f 779 782 781
f 846 781 782
f 782 783 846
f 846 784 781
f 778 781 784
f 784 855 778
f 785 846 783
f 783 786 785
f 787 785 786
f 786 788 787
f 787 862 785
f 846 785 862
f 842 787 788
f 788 789 842
f 790 842 789
f 789 791 790
f 792 790 791
f 791 793 792
f 794 792 793
f 793 795 794
f 792 794 871
f 796 794 795
f 795 797 796
f 798 796 797
f 797 799 798
f 798 847 796
f 794 796 847
f 847 871 794
f 800 798 799
f 799 801 800
f 802 800 801
f 801 803 802
f 800 802 848
f 848 877 800
f 798 800 877
f 804 802 803
f 803 805 804
f 806 804 805
f 805 807 806
f 804 806 881
f 804 848 802
f 843 806 807
f 807 808 843
f 841 843 808
f 808 809 841
f 843 881 806
f 810 841 809
f 809 811 810
f 812 810 811
f 811 813 812
f 810 812 849
f 849 844 810
f 841 810 844
f 817 812 813
f 813 814 817
f 815 817 814
f 814 816 815
f 817 849 812
f 818 815 816
f 816 819 818
f 820 818 819
f 819 821 820
f 818 820 895
f 822 820 821
f 821 823 822
f 824 822 823
f 823 825 824
f 822 824 898
f 898 826 822
f 820 822 826
f 826 895 820
f 851 824 825
f 825 827 851
f 850 851 827
f 827 828 850
f 851 898 824
f 845 850 828
f 828 829 845
f 830 845 829
f 829 831 830
f 832 830 831
f 831 833 832
f 834 832 833
f 833 835 834
f 832 834 910
f 852 834 835
f 835 836 852
f 837 852 836
f 836 838 837
f 852 910 834
f 839 837 838
f 838 840 839
f 780 839 840
f 840 776 780
f 853 854 780
f 780 775 853
f 855 853 775
f 853 855 856
f 856 857 853
f 854 853 857
f 857 858 854
f 784 846 859
f 784 859 860
f 860 861 784
f 855 784 861
f 861 856 855
f 862 859 846
f 862 787 863
f 862 863 864
f 864 865 862
f 859 862 865
f 865 860 859
f 866 863 787
f 787 842 866
f 867 866 842
f 842 790 867
f 866 867 868
f 868 869 866
f 863 866 869
f 869 864 863
f 870 867 790
f 790 792 870
f 871 870 792
f 870 871 872
f 872 873 870
f 867 870 873
f 873 868 867
f 847 798 874
f 847 874 875
f 875 876 847
f 871 847 876
f 876 872 871
f 877 874 798
f 877 848 878
f 878 879 877
f 874 877 879
f 879 875 874
f 880 878 848
f 848 804 880
f 881 880 804
f 880 881 882
f 882 883 880
f 878 880 883
f 881 843 884
f 885 884 843
f 843 841 885
f 884 885 886
f 886 887 884
f 881 884 887
f 887 882 881
f 844 885 841
f 844 849 888
f 888 889 844
f 885 844 889
f 889 886 885
f 849 817 890
f 891 890 817
f 817 815 891
f 890 891 892
f 892 893 890
f 849 890 893
f 893 888 849
f 894 891 815
f 815 818 894
f 895 894 818
f 894 895 896
f 896 897 894
f 891 894 897
f 897 892 891
f 826 898 899
f 899 900 826
f 895 826 900
f 900 896 895
f 898 851 901
f 902 901 851
f 851 850 902
f 901 902 903
f 903 904 901
f 898 901 904
f 904 899 898
f 905 902 850
f 850 845 905
f 906 905 845
f 845 830 906
f 905 906 907
f 907 908 905
f 902 905 908
f 908 903 902
f 909 906 830
f 830 832 909
f 910 909 832
f 909 910 911
f 911 912 909
f 906 909 912
f 912 907 906
f 910 852 913
f 914 913 852
f 852 837 914
f 913 914 915
f 915 916 913
f 910 913 916
f 916 911 910
f 917 914 837
f 837 839 917
f 854 917 839
f 839 780 854
f 917 854 858
f 858 918 917
f 914 917 918
f 918 915 914
f 920 919 928
f 919 920 921
f 919 921 922
f 919 922 923
f 919 923 924
f 925 919 924
f 926 919 925
f 927 919 926
f 928 919 927
f 929 936 930
f 929 930 931
f 929 931 932
f 929 932 1246
f 1246 933 929
f 929 933 934
f 929 934 1250
f 1250 935 929
f 935 936 929
f 1064 1146 1147
f 1147 937 1064
f 1146 1064 938
f 938 1148 1146
f 1065 1149 1148
f 1148 938 1065
f 1149 1065 1066
f 1066 1150 1149
f 1066 1151 1150
f 1151 1066 939
f 939 1152 1151
f 1067 1153 1152
f 1152 939 1067
f 940 1155 1154
f 1068 1156 1155
f 1155 940 1068
f 1156 1068 941
f 941 1157 1156
f 941 1158 1157
f 1158 941 942
f 942 1159 1158
f 1069 1160 1159
f 1159 942 1069
f 1160 1069 1070
f 1070 1161 1160
f 943 1162 1161
f 1161 1070 943
f 943 1163 1162
f 1071 1164 1163
f 1163 943 1071
f 1164 1071 944
f 944 1165 1164
f 1072 1166 1165
f 1165 944 1072
f 1166 1072 945
f 945 1167 1166
f 945 1168 1167
f 1168 945 946
f 946 1169 1168
f 1073 1170 1169
f 1169 946 1073
f 1170 1073 1074
f 1074 1171 1170
f 1075 1172 1171
f 1171 1074 1075
f 1172 1075 947
f 947 1173 1172
f 947 1174 1173
f 1174 947 948
f 948 1175 1174
f 1076 1176 1175
f 1175 948 1076
f 1076 1177 1176
f 1077 1178 1177
f 1177 1076 1077
f 1178 1077 1078
f 1078 1179 1178
f 1078 1180 1179
f 1180 1078 937
f 937 1147 1180
f 949 1181 1182
f 1181 949 1079
f 1079 1183 1181
f 1080 1184 1185
f 1185 1081 1080
f 1184 1080 949
f 949 1182 1184
f 1082 1186 1187
f 1187 950 1082
f 1186 1082 1081
f 1081 1185 1186
f 1084 1188 1189
f 1189 1083 1084
f 1188 1084 950
f 950 1187 1188
f 1085 1190 1191
f 1191 951 1085
f 1190 1085 1083
f 1083 1189 1190
f 1086 1192 1193
f 1192 1086 951
f 951 1191 1192
f 1087 1194 1195
f 1195 952 1087
f 1194 1087 1086
f 1086 1193 1194
f 1088 1196 1197
f 1196 1088 952
f 952 1195 1196
f 1232 1198 1199
f 1199 953 1232
f 1198 1232 1088
f 1088 1197 1198
f 1089 1200 1201
f 1200 1089 953
f 953 1199 1200
f 1203 1090 1202
f 1089 1201 1202
f 1090 1203 954
f 955 1204 1205
f 1204 955 954
f 1091 1206 1207
f 1207 1092 1091
f 1206 1091 955
f 955 1205 1206
f 956 1208 1209
f 1208 956 1092
f 1092 1207 1208
f 1060 1094 1093
f 956 1209 1093
f 1095 1210 1211
f 1211 1096 1095
f 1210 1095 1094
f 1094 1060 1210
f 1096 1212 1183
f 1183 1079 1096
f 1096 1211 1212
f 959 957 958
f 958 960 959
f 957 959 961
f 961 962 957
f 964 963 962
f 962 961 964
f 963 964 965
f 965 966 963
f 968 967 966
f 966 965 968
f 967 968 969
f 969 970 967
f 972 971 970
f 970 969 972
f 971 972 973
f 973 974 971
f 976 975 974
f 974 973 976
f 975 976 977
f 977 978 975
f 980 979 978
f 978 977 980
f 979 980 981
f 981 982 979
f 984 983 982
f 982 981 984
f 983 984 985
f 985 986 983
f 988 987 986
f 986 985 988
f 987 988 989
f 989 990 987
f 992 991 990
f 990 989 992
f 991 992 993
f 993 994 991
f 996 995 994
f 994 993 996
f 995 996 997
f 997 998 995
f 1000 999 998
f 998 997 1000
f 999 1000 1001
f 1001 1002 999
f 1004 1003 1002
f 1002 1001 1004
f 1003 1004 1005
f 1005 1006 1003
f 1008 1007 1006
f 1006 1005 1008
f 1007 1008 1009
f 1009 1010 1007
f 1012 1011 1010
f 1010 1009 1012
f 1011 1012 1013
f 1013 1014 1011
f 1016 1015 1014
f 1014 1013 1016
f 1015 1016 1017
f 1017 1018 1015
f 1020 1019 1018
f 1018 1017 1020
f 1019 1020 1021
f 1021 1022 1019
f 1024 1023 1022
f 1022 1021 1024
f 1023 1024 1025
f 1025 1026 1023
f 1028 1027 1026
f 1026 1025 1028
f 1027 1028 960
f 960 958 1027
f 1052 1054 1053
f 1054 1052 1055
f 1217 943 1070
f 1097 777 776
f 776 1098 1097
f 957 1097 1098
f 1098 958 957
f 1097 957 962
f 962 1099 1097
f 777 1097 1099
f 1099 779 777
f 1100 782 779
f 779 1099 1100
f 963 1100 1099
f 1099 962 963
f 1100 963 966
f 966 1101 1100
f 782 1100 1101
f 1101 783 782
f 1102 786 783
f 783 1101 1102
f 967 1102 1101
f 1101 966 967
f 1102 967 970
f 970 1103 1102
f 786 1102 1103
f 1103 788 786
f 1104 789 788
f 788 1103 1104
f 971 1104 1103
f 1103 970 971
f 1104 971 974
f 974 1105 1104
f 789 1104 1105
f 1105 791 789
f 1106 793 791
f 791 1105 1106
f 975 1106 1105
f 1105 974 975
f 1106 975 978
f 978 1107 1106
f 793 1106 1107
f 1107 795 793
f 1108 797 795
f 795 1107 1108
f 979 1108 1107
f 1107 978 979
f 1108 979 982
f 982 1109 1108
f 797 1108 1109
f 1109 799 797
f 1110 801 799
f 799 1109 1110
f 983 1110 1109
f 1109 982 983
f 1110 983 986
f 986 1111 1110
f 801 1110 1111
f 1111 803 801
f 1112 805 803
f 803 1111 1112
f 987 1112 1111
f 1111 986 987
f 1112 987 990
f 990 1113 1112
f 805 1112 1113
f 1113 807 805
f 1114 808 807
f 807 1113 1114
f 991 1114 1113
f 1113 990 991
f 1114 991 994
f 994 1115 1114
f 808 1114 1115
f 1115 809 808
f 1116 811 809
f 809 1115 1116
f 995 1116 1115
f 1115 994 995
f 1116 995 998
f 998 1117 1116
f 811 1116 1117
f 1117 813 811
f 1118 814 813
f 813 1117 1118
f 999 1118 1117
f 1117 998 999
f 1118 999 1002
f 1002 1119 1118
f 814 1118 1119
f 1119 816 814
f 1120 819 816
f 816 1119 1120
f 1003 1120 1119
f 1119 1002 1003
f 1120 1003 1006
f 1006 1121 1120
f 819 1120 1121
f 1121 821 819
f 1122 823 821
f 821 1121 1122
f 1007 1122 1121
f 1121 1006 1007
f 1122 1007 1010
f 1010 1123 1122
f 823 1122 1123
f 1123 825 823
f 1124 827 825
f 825 1123 1124
f 1011 1124 1123
f 1123 1010 1011
f 1124 1011 1014
f 1014 1125 1124
f 827 1124 1125
f 1125 828 827
f 1126 829 828
f 828 1125 1126
f 1015 1126 1125
f 1125 1014 1015
f 1126 1015 1018
f 1018 1127 1126
f 829 1126 1127
f 1127 831 829
f 1128 833 831
f 831 1127 1128
f 1019 1128 1127
f 1127 1018 1019
f 1128 1019 1022
f 1022 1129 1128
f 833 1128 1129
f 1129 835 833
f 1130 836 835
f 835 1129 1130
f 1023 1130 1129
f 1129 1022 1023
f 1130 1023 1026
f 1026 1131 1130
f 836 1130 1131
f 1131 838 836
f 1132 840 838
f 838 1131 1132
f 1027 1132 1131
f 1131 1026 1027
f 1132 1027 958
f 958 1098 1132
f 840 1132 1098
f 1098 776 840
f 1029 857 856
f 856 1030 1029
f 857 1029 1031
f 1031 858 857
f 1032 861 860
f 860 1033 1032
f 861 1032 1030
f 1030 856 861
f 1034 865 864
f 864 1035 1034
f 865 1034 1033
f 1033 860 865
f 1036 869 868
f 868 1037 1036
f 869 1036 1035
f 1035 864 869
f 1038 873 872
f 872 1039 1038
f 873 1038 1037
f 1037 868 873
f 1040 876 875
f 875 1041 1040
f 876 1040 1039
f 1039 872 876
f 1042 879 878
f 878 1043 1042
f 879 1042 1041
f 1041 875 879
f 1044 883 882
f 882 1133 1044
f 1133 1045 1044
f 883 1044 1043
f 1043 878 883
f 1134 887 886
f 886 1135 1134
f 1046 1134 1135
f 1135 1047 1046
f 1134 1046 1045
f 1045 1133 1134
f 887 1134 1133
f 1133 882 887
f 1136 889 888
f 888 1137 1136
f 1048 1136 1137
f 1137 1049 1048
f 1136 1048 1047
f 1047 1135 1136
f 889 1136 1135
f 1135 886 889
f 1138 893 892
f 892 1139 1138
f 1050 1138 1139
f 1139 1051 1050
f 1138 1050 1049
f 1049 1137 1138
f 893 1138 1137
f 1137 888 893
f 1140 897 896
f 896 1141 1140
f 1053 1140 1141
f 1141 1052 1053
f 1140 1053 1051
f 1051 1139 1140
f 897 1140 1139
f 1139 892 897
f 1142 900 899
f 899 1056 1142
f 1055 1142 1056
f 1142 1055 1052
f 1052 1141 1142
f 900 1142 1141
f 1141 896 900
f 1143 904 903
f 903 1144 1143
f 904 1143 1056
f 1056 899 904
f 1057 908 907
f 907 1058 1057
f 908 1057 1144
f 1144 903 908
f 1059 912 911
f 911 1145 1059
f 1145 1060 1059
f 912 1059 1058
f 1058 907 912
f 1061 916 915
f 915 1062 1061
f 1060 1145 1061
f 916 1061 1145
f 1145 911 916
f 1063 918 858
f 858 1031 1063
f 918 1063 1062
f 1062 915 918
f 1146 959 960
f 960 1147 1146
f 959 1146 1148
f 1148 961 959
f 1149 964 961
f 961 1148 1149
f 964 1149 1150
f 1150 965 964
f 1151 968 965
f 965 1150 1151
f 968 1151 1152
f 1152 969 968
f 1153 972 969
f 969 1152 1153
f 1067 973 1153
f 972 1153 973
f 1154 976 973
f 973 1067 1154
f 976 1154 1155
f 1155 977 976
f 1156 980 977
f 977 1155 1156
f 980 1156 1157
f 1157 981 980
f 1158 984 981
f 981 1157 1158
f 984 1158 1159
f 1159 985 984
f 1160 988 985
f 985 1159 1160
f 988 1160 1161
f 1161 989 988
f 1162 992 989
f 989 1161 1162
f 992 1162 1163
f 1163 993 992
f 1164 996 993
f 993 1163 1164
f 996 1164 1165
f 1165 997 996
f 1166 1000 997
f 997 1165 1166
f 1000 1166 1167
f 1167 1001 1000
f 1168 1004 1001
f 1001 1167 1168
f 1004 1168 1169
f 1169 1005 1004
f 1170 1008 1005
f 1005 1169 1170
f 1008 1170 1171
f 1171 1009 1008
f 1172 1012 1009
f 1009 1171 1172
f 1012 1172 1173
f 1173 1013 1012
f 1174 1016 1013
f 1013 1173 1174
f 1016 1174 1175
f 1175 1017 1016
f 1176 1020 1017
f 1017 1175 1176
f 1020 1176 1177
f 1177 1021 1020
f 1178 1024 1021
f 1021 1177 1178
f 1024 1178 1179
f 1179 1025 1024
f 1180 1028 1025
f 1025 1179 1180
f 1028 1180 1147
f 1147 960 1028
f 1181 1029 1030
f 1030 1182 1181
f 1029 1181 1183
f 1183 1031 1029
f 1184 1032 1033
f 1033 1185 1184
f 1032 1184 1182
f 1182 1030 1032
f 1186 1034 1035
f 1035 1187 1186
f 1034 1186 1185
f 1185 1033 1034
f 1188 1036 1037
f 1037 1189 1188
f 1036 1188 1187
f 1187 1035 1036
f 1190 1038 1039
f 1039 1191 1190
f 1038 1190 1189
f 1189 1037 1038
f 1192 1040 1041
f 1041 1193 1192
f 1040 1192 1191
f 1191 1039 1040
f 1194 1042 1043
f 1043 1195 1194
f 1042 1194 1193
f 1193 1041 1042
f 1196 1044 1045
f 1045 1197 1196
f 1044 1196 1195
f 1195 1043 1044
f 1198 1046 1047
f 1047 1199 1198
f 1046 1198 1197
f 1197 1045 1046
f 1200 1048 1049
f 1049 1201 1200
f 1048 1200 1199
f 1199 1047 1048
f 1202 1050 1051
f 1051 1203 1202
f 1050 1202 1201
f 1201 1049 1050
f 1203 1053 1054
f 1054 954 1203
f 1203 1051 1053
f 1204 1055 1056
f 1056 1205 1204
f 954 1054 1204
f 1055 1204 1054
f 1206 1143 1144
f 1144 1207 1206
f 1143 1206 1205
f 1205 1056 1143
f 1208 1057 1058
f 1058 1209 1208
f 1057 1208 1207
f 1207 1144 1057
f 1093 1059 1060
f 1059 1093 1209
f 1209 1058 1059
f 1210 1061 1062
f 1062 1211 1210
f 1061 1210 1060
f 1212 1063 1031
f 1031 1183 1212
f 1063 1212 1211
f 1211 1062 1063
f 1224 1064 937
f 1064 1224 1237
f 1237 938 1064
f 1213 1065 938
f 938 1237 1213
f 1213 1066 1065
f 1213 939 1066
f 1214 1067 939
f 939 1213 1214
f 1242 1154 1067
f 1067 1214 1242
f 1242 940 1154
f 1215 1068 940
f 940 1242 1215
f 1215 941 1068
f 1215 942 941
f 1216 1069 942
f 942 1215 1216
f 1216 1070 1069
f 1070 1216 1217
f 1217 1071 943
f 1071 1217 1218
f 1218 944 1071
f 1219 1072 944
f 944 1218 1219
f 1219 945 1072
f 1219 946 945
f 1220 1073 946
f 946 1219 1220
f 1220 1074 1073
f 1221 1075 1074
f 1074 1220 1221
f 1221 947 1075
f 1221 948 947
f 1222 1076 948
f 948 1221 1222
f 1223 1077 1076
f 1076 1222 1223
f 1223 1078 1077
f 1078 1223 1224
f 1224 937 1078
f 949 1225 1226
f 1226 1079 949
f 1227 1080 1081
f 1081 1228 1227
f 1080 1227 1225
f 1225 949 1080
f 1228 1082 950
f 1228 1229 1227
f 1228 1081 1082
f 1228 1084 1083
f 1083 1230 1228
f 1229 1228 1230
f 1228 950 1084
f 1230 1085 951
f 951 1231 1230
f 1230 1083 1085
f 1231 951 1086
f 1231 1087 952
f 952 1245 1231
f 1231 1086 1087
f 1088 1232 1245
f 1232 1247 1245
f 1245 952 1088
f 953 1247 1232
f 1089 1233 1247
f 1247 953 1089
f 1233 1202 1090
f 1233 1089 1202
f 1233 1090 954
f 954 1234 1233
f 1234 954 955
f 1234 1091 1092
f 1092 1235 1234
f 1235 1250 1234
f 1234 955 1091
f 1235 1092 956
f 1235 1093 1094
f 1094 1236 1235
f 1235 956 1093
f 1236 1095 1096
f 1236 1094 1095
f 1236 1096 1079
f 1079 1226 1236
f 1238 1237 1224
f 1237 1238 928
f 1224 1223 1238
f 920 1238 1223
f 1223 1222 920
f 920 928 1238
f 1239 920 1222
f 1222 1221 1239
f 920 1239 921
f 1220 1239 1221
f 1239 1220 922
f 922 921 1239
f 1220 1219 1240
f 1220 1240 922
f 923 922 1240
f 1218 1240 1219
f 1240 1218 923
f 924 1218 1217
f 924 923 1218
f 1217 1216 924
f 1241 924 1216
f 1216 1215 1241
f 924 1241 925
f 926 925 1241
f 1242 1241 1215
f 1241 1242 926
f 1242 1214 927
f 927 926 1242
f 1214 1213 1243
f 1214 1243 927
f 1237 1243 1213
f 1243 1237 928
f 928 927 1243
f 1226 1225 936
f 1225 1227 930
f 930 936 1225
f 1227 1229 930
f 1229 1230 931
f 931 930 1229
f 1230 1231 1244
f 1230 1244 931
f 932 931 1244
f 1245 1244 1231
f 1244 1245 932
f 1245 1247 1246
f 1246 932 1245
f 1246 1247 933
f 1247 1233 1248
f 1247 1248 933
f 1249 1248 1233
f 1233 1234 1249
f 1248 1249 934
f 934 933 1248
f 1250 1249 1234
f 1250 934 1249
f 1251 1250 1235
f 1235 1236 1251
f 1250 1251 935
f 936 935 1251
f 1226 1251 1236
f 1251 1226 936
