# USD → MuJoCo (world-space, simplified)
v 0.045844 -0.014736 0.003304
v 0.046312 -0.014743 0.003024
v 0.046733 -0.014729 0.003506
v 0.046922 -0.014742 0.002895
v 0.047463 -0.014734 0.002960
v 0.048073 -0.014725 0.002910
v 0.048308 -0.014730 0.002345
v 0.048734 -0.014727 0.001815
v 0.049040 -0.014723 0.001209
v 0.049098 -0.014722 0.000304
v 0.049213 -0.014713 -0.000437
v 0.049354 -0.014701 -0.001033
v 0.048613 -0.014714 -0.001679
v 0.048958 -0.014642 -0.002603
v 0.048338 -0.014638 -0.003161
v 0.048662 -0.014640 -0.002899
v 0.047679 -0.014708 -0.002592
v 0.046827 -0.014634 -0.003834
v 0.047229 -0.014635 -0.003726
v 0.046416 -0.014634 -0.003899
v 0.046458 -0.014705 -0.003044
v 0.046000 -0.014634 -0.003921
v 0.045477 -0.014696 -0.003151
v 0.045173 -0.014634 -0.003834
v 0.045584 -0.014634 -0.003899
v 0.044771 -0.014635 -0.003726
v 0.044665 -0.014703 -0.002750
v 0.044384 -0.014635 -0.003578
v 0.044013 -0.014637 -0.003389
v 0.043965 -0.014701 -0.002478
v 0.043379 -0.014693 -0.002302
v 0.043266 -0.014705 -0.001701
v 0.042899 -0.014712 -0.000816
v 0.042044 -0.014656 -0.000358
v 0.042109 -0.014653 -0.000770
v 0.042755 -0.014717 0.000241
v 0.042044 -0.014660 0.000473
v 0.042022 -0.014658 0.000057
v 0.042109 -0.014663 0.000884
v 0.042215 -0.014665 0.001284
v 0.042364 -0.014668 0.001674
v 0.043166 -0.014731 0.001319
v 0.043691 -0.014730 0.002345
v 0.044218 -0.014733 0.002775
v 0.044822 -0.014735 0.003087
v 0.045267 -0.014729 0.003506
v 0.046000 -0.014747 0.000057
v 0.046000 0.011822 0.001974
v 0.046155 0.010695 0.001689
v 0.046000 0.009253 0.000205
v 0.045845 0.010695 0.001689
v 0.046364 0.011822 0.001936
v 0.046458 0.010695 0.001624
v 0.046713 0.011823 0.001822
v 0.046742 0.010696 0.001498
v 0.047031 0.011824 0.001639
v 0.046993 0.010697 0.001316
v 0.047303 0.011826 0.001394
v 0.047200 0.010699 0.001086
v 0.047519 0.011827 0.001097
v 0.047355 0.010700 0.000817
v 0.047668 0.011829 0.000762
v 0.047451 0.010702 0.000522
v 0.047744 0.011832 0.000404
v 0.047484 0.010704 0.000214
v 0.047744 0.011834 0.000037
v 0.047451 0.010706 -0.000095
v 0.047668 0.011836 -0.000321
v 0.047355 0.010707 -0.000390
v 0.047519 0.011838 -0.000656
v 0.047200 0.010709 -0.000658
v 0.047303 0.011840 -0.000953
v 0.046993 0.010711 -0.000889
v 0.047031 0.011842 -0.001198
v 0.046742 0.010712 -0.001071
v 0.046713 0.011843 -0.001381
v 0.046458 0.010713 -0.001197
v 0.046364 0.011844 -0.001495
v 0.046155 0.010713 -0.001262
v 0.046000 0.011844 -0.001533
v 0.045845 0.010713 -0.001262
v 0.045635 0.011844 -0.001495
v 0.045541 0.010713 -0.001197
v 0.045287 0.011843 -0.001381
v 0.045258 0.010712 -0.001071
v 0.044969 0.011842 -0.001198
v 0.045007 0.010711 -0.000889
v 0.044697 0.011840 -0.000953
v 0.044800 0.010709 -0.000658
v 0.044481 0.011838 -0.000656
v 0.044645 0.010707 -0.000390
v 0.044332 0.011836 -0.000321
v 0.044549 0.010706 -0.000095
v 0.044256 0.011834 0.000037
v 0.044516 0.010704 0.000214
v 0.044256 0.011832 0.000404
v 0.044549 0.010702 0.000522
v 0.044332 0.011829 0.000762
v 0.044645 0.010700 0.000817
v 0.044481 0.011827 0.001097
v 0.044800 0.010699 0.001086
v 0.044697 0.011826 0.001394
v 0.045007 0.010697 0.001316
v 0.044969 0.011824 0.001639
v 0.045258 0.010696 0.001498
v 0.045287 0.011823 0.001822
v 0.045541 0.010695 0.001624
v 0.045635 0.011822 0.001936
v -0.045807 -0.014744 0.003190
v -0.044771 -0.014681 0.003841
v -0.044382 -0.014680 0.003692
v -0.044546 -0.014741 0.002842
v -0.044011 -0.014679 0.003503
v -0.043662 -0.014678 0.003276
v -0.043692 -0.014730 0.002345
v -0.043338 -0.014676 0.003014
v -0.043150 -0.014727 0.001555
v -0.042784 -0.014719 0.000263
v -0.042044 -0.014661 0.000473
v -0.042864 -0.014711 -0.000798
v -0.042782 -0.014644 -0.002281
v -0.043390 -0.014714 -0.001681
v -0.043042 -0.014642 -0.002603
v -0.043662 -0.014638 -0.003161
v -0.043338 -0.014640 -0.002899
v -0.044011 -0.014637 -0.003388
v -0.044321 -0.014708 -0.002592
v -0.045173 -0.014634 -0.003834
v -0.044771 -0.014635 -0.003726
v -0.045584 -0.014634 -0.003899
v -0.045542 -0.014705 -0.003044
v -0.046000 -0.014634 -0.003921
v -0.046523 -0.014696 -0.003151
v -0.046827 -0.014634 -0.003834
v -0.046416 -0.014634 -0.003899
v -0.047229 -0.014635 -0.003726
v -0.047335 -0.014703 -0.002750
v -0.047616 -0.014635 -0.003578
v -0.047987 -0.014637 -0.003389
v -0.048035 -0.014701 -0.002478
v -0.048621 -0.014693 -0.002302
v -0.048734 -0.014705 -0.001701
v -0.049101 -0.014712 -0.000816
v -0.049891 -0.014653 -0.000770
v -0.049956 -0.014656 -0.000358
v -0.049245 -0.014717 0.000241
v -0.049957 -0.014661 0.000471
v -0.049978 -0.014658 0.000057
v -0.049136 -0.014721 0.000912
v -0.049783 -0.014666 0.001287
v -0.049891 -0.014663 0.000884
v -0.048726 -0.014732 0.001271
v -0.049634 -0.014668 0.001676
v -0.049445 -0.014670 0.002047
v -0.048734 -0.014727 0.001815
v -0.048308 -0.014730 0.002345
v -0.047782 -0.014733 0.002775
v -0.046956 -0.014732 0.003297
v -0.046000 -0.014747 0.000057
v -0.046000 0.011822 0.001974
v -0.045845 0.010695 0.001689
v -0.046000 0.009252 0.000205
v -0.046155 0.010695 0.001689
v -0.045635 0.011822 0.001936
v -0.045542 0.010695 0.001624
v -0.045287 0.011823 0.001822
v -0.045258 0.010696 0.001498
v -0.044969 0.011824 0.001639
v -0.045007 0.010697 0.001316
v -0.044697 0.011826 0.001394
v -0.044800 0.010698 0.001086
v -0.044481 0.011827 0.001097
v -0.044645 0.010700 0.000817
v -0.044332 0.011829 0.000762
v -0.044549 0.010702 0.000522
v -0.044256 0.011832 0.000404
v -0.044516 0.010704 0.000214
v -0.044256 0.011834 0.000037
v -0.044549 0.010706 -0.000095
v -0.044332 0.011836 -0.000321
v -0.044645 0.010707 -0.000390
v -0.044481 0.011838 -0.000656
v -0.044800 0.010709 -0.000658
v -0.044697 0.011840 -0.000953
v -0.045007 0.010711 -0.000889
v -0.044969 0.011842 -0.001198
v -0.045258 0.010712 -0.001071
v -0.045287 0.011843 -0.001381
v -0.045542 0.010713 -0.001197
v -0.045635 0.011843 -0.001495
v -0.045845 0.010713 -0.001262
v -0.046000 0.011844 -0.001533
v -0.046155 0.010713 -0.001262
v -0.046365 0.011843 -0.001495
v -0.046458 0.010713 -0.001197
v -0.046713 0.011843 -0.001381
v -0.046742 0.010712 -0.001071
v -0.047031 0.011842 -0.001198
v -0.046993 0.010711 -0.000889
v -0.047303 0.011840 -0.000953
v -0.047200 0.010709 -0.000658
v -0.047519 0.011838 -0.000656
v -0.047355 0.010707 -0.000390
v -0.047668 0.011836 -0.000321
v -0.047451 0.010706 -0.000095
v -0.047744 0.011834 0.000037
v -0.047484 0.010704 0.000214
v -0.047744 0.011832 0.000404
v -0.047451 0.010702 0.000522
v -0.047668 0.011829 0.000762
v -0.047355 0.010700 0.000817
v -0.047519 0.011827 0.001097
v -0.047200 0.010698 0.001086
v -0.047303 0.011826 0.001394
v -0.046993 0.010697 0.001316
v -0.047031 0.011824 0.001639
v -0.046742 0.010696 0.001498
v -0.046713 0.011823 0.001822
v -0.046458 0.010695 0.001624
v -0.046365 0.011822 0.001936
v 0.048967 0.021266 -0.002017
v 0.045708 0.021275 -0.003381
v 0.042535 0.021242 0.001745
v 0.044955 0.021230 0.003892
v -0.042568 0.021240 0.001872
v -0.045829 0.021229 0.004008
v -0.043833 0.021254 -0.000592
v -0.046300 0.021275 -0.003429
v -0.049134 0.021265 -0.001801
v 0.046537 0.020898 0.002180
v 0.046805 0.020883 0.002083
v 0.047565 0.020862 0.001507
v 0.047470 0.015050 0.001564
v 0.047713 0.015052 0.001229
v 0.047600 0.015051 0.001403
v 0.047967 0.015057 0.000447
v 0.047987 0.020953 0.000139
v 0.047967 0.015060 0.000034
v 0.047978 0.015059 0.000240
v 0.047844 0.020898 -0.000432
v 0.047935 0.015061 -0.000171
v 0.047529 0.020881 -0.000999
v 0.047077 0.020923 -0.001383
v 0.046685 0.020925 -0.001580
v 0.046309 0.020917 -0.001676
v 0.045820 0.020917 -0.001688
v 0.045487 0.020956 -0.001639
v 0.045195 0.020905 -0.001531
v 0.044924 0.020904 -0.001380
v 0.044676 0.020903 -0.001194
v 0.044287 0.015065 -0.000749
v 0.044400 0.015066 -0.000922
v 0.044130 0.020917 -0.000358
v 0.044119 0.015062 -0.000371
v 0.044193 0.015063 -0.000564
v 0.044033 0.020895 0.000070
v 0.044038 0.020965 0.000616
v 0.044469 0.020950 0.001550
v 0.044837 0.020884 0.001877
v 0.045011 0.020884 0.001989
v 0.045279 0.020898 0.002118
v 0.045921 0.020873 0.002266
v -0.045870 0.020973 0.002266
v -0.045261 0.020979 0.002126
v -0.045195 0.015047 0.002047
v -0.044757 0.020885 0.001811
v -0.044079 0.021071 0.000987
v -0.044240 0.020888 0.001173
v -0.044287 0.015052 0.001229
v -0.044400 0.015051 0.001403
v -0.044087 0.020902 0.000762
v -0.044030 0.020900 0.000225
v -0.044033 0.015057 0.000447
v -0.044033 0.015060 0.000034
v -0.044022 0.015059 0.000240
v -0.044091 0.020908 -0.000235
v -0.044345 0.020928 -0.000831
v -0.044757 0.020903 -0.001259
v -0.045103 0.020916 -0.001484
v -0.045438 0.020936 -0.001618
v -0.045897 0.020925 -0.001699
v -0.046545 0.020938 -0.001639
v -0.046989 0.020905 -0.001437
v -0.047425 0.020946 -0.001115
v -0.047713 0.015065 -0.000749
v -0.047600 0.015066 -0.000922
v -0.047822 0.020915 -0.000478
v -0.047881 0.015062 -0.000371
v -0.047807 0.015063 -0.000564
v -0.047990 0.020922 0.000200
v -0.047935 0.015061 -0.000171
v -0.047844 0.020890 0.000984
v -0.047658 0.020909 0.001353
v -0.047471 0.020908 0.001601
v -0.047324 0.020885 0.001746
v -0.047163 0.020884 0.001877
v -0.046898 0.020905 0.002038
v -0.046284 0.020962 0.002248
v 0.047546 0.021211 0.003733
v 0.048672 0.021236 0.002911
v 0.049410 0.021180 -0.001571
v 0.048346 0.021070 -0.002928
v 0.048099 0.021255 -0.002865
v -0.046014 0.021026 0.004249
v -0.045085 0.021213 0.003931
v -0.043357 0.021014 0.003243
v -0.042051 0.021048 0.000706
v -0.042197 0.021220 0.000022
v -0.049457 0.021014 0.002233
v 0.047030 0.021072 0.002058
v 0.047454 0.021092 -0.001132
v 0.046703 0.021238 -0.001805
v 0.045228 0.021048 -0.001589
v 0.043938 0.021122 0.000587
v 0.044554 0.021080 0.001719
v -0.045128 0.021077 0.002115
v -0.043977 0.021077 0.000221
v -0.047827 0.021133 -0.000699
v -0.047988 0.021141 0.000886
v -0.047569 0.021237 0.001845
v 0.049847 0.021163 0.000745
v 0.049750 0.021230 -0.000467
v 0.047422 0.021196 -0.003332
v 0.044508 0.021262 -0.003163
v 0.043505 0.021251 -0.002575
v 0.042174 0.021218 0.000061
v -0.042227 0.021059 0.001511
v -0.042370 0.021079 -0.001332
v -0.042608 0.021261 -0.001252
v -0.044360 0.021270 -0.003042
v -0.049811 0.021171 -0.000433
v -0.049773 0.021161 0.001167
v 0.046132 0.021024 0.002289
v 0.047056 0.020918 0.001949
v 0.046289 0.021073 -0.001724
v 0.044400 0.020931 -0.000900
v 0.044174 0.020928 0.001047
v 0.045609 0.021191 0.002367
v -0.044477 0.020931 0.001543
v 0.046505 0.021137 0.004124
v -0.045591 0.021032 -0.003676
v -0.049775 0.021044 -0.000954
v -0.049954 0.021024 0.000658
v -0.049778 0.021000 0.001511
v 0.046835 0.021222 0.002352
v 0.048190 0.021238 0.000408
v 0.047914 0.021253 -0.000927
v 0.043946 0.021228 -0.000448
v 0.044466 0.021237 0.002065
v -0.044367 0.021236 0.001933
v -0.044227 0.021191 0.001525
v -0.045184 0.021255 -0.001810
v -0.046161 0.021160 -0.001781
v -0.046499 0.021140 0.002293
v 0.049367 0.021230 0.001979
v 0.043788 0.021227 0.003316
v -0.048264 0.021248 -0.002806
v -0.049714 0.021251 0.000471
v -0.049014 0.021233 0.002564
v -0.047230 0.021037 0.001881
v 0.046820 0.021032 -0.003612
v 0.044401 0.021064 -0.003359
v 0.044045 0.021047 -0.003180
v 0.042283 0.021055 -0.001138
v -0.042107 0.021007 -0.000514
v -0.045226 0.021265 -0.003438
v -0.048742 0.021182 -0.002477
v 0.045065 0.021155 -0.001568
v 0.044266 0.021122 -0.000875
v 0.043860 0.021228 0.000836
v -0.045555 0.021206 0.002423
v -0.044692 0.021186 0.001981
v -0.044213 0.021167 -0.000815
v -0.044776 0.021141 -0.001369
v -0.045486 0.021142 -0.001713
v -0.047042 0.021167 0.002134
v 0.046222 0.021261 -0.003500
v 0.045398 0.021175 -0.003523
v 0.042476 0.021261 -0.001010
v 0.043267 0.021153 0.003030
v -0.043663 0.021230 0.003232
v -0.042798 0.021248 -0.001751
v -0.043655 0.021212 -0.002784
v -0.044382 0.021061 -0.003349
v -0.047372 0.021195 -0.003347
v -0.049552 0.021054 -0.001511
v -0.047443 0.021217 0.003778
v 0.047767 0.021118 0.001339
v 0.047880 0.020916 0.000887
v 0.048057 0.021130 0.000394
v 0.047931 0.021090 -0.000401
v 0.044013 0.021035 -0.000011
v 0.044980 0.021127 0.002064
v -0.046935 0.021048 -0.001536
v -0.048053 0.021112 0.000091
v -0.047924 0.020943 0.000767
v -0.047713 0.021041 0.001331
v 0.046220 0.021006 0.004248
v 0.046000 0.016469 0.004226
v 0.046416 0.016470 0.004204
v 0.046833 0.020913 0.004163
v 0.047208 0.021009 0.004061
v 0.047229 0.016471 0.004031
v 0.047617 0.016472 0.003882
v 0.047817 0.021009 0.003815
v 0.047988 0.016473 0.003693
v 0.048338 0.021003 0.003491
v 0.048661 0.021005 0.003229
v 0.048955 0.016478 0.002910
v 0.048936 0.021086 0.002951
v 0.049216 0.021009 0.002612
v 0.049444 0.016482 0.002237
v 0.049437 0.021050 0.002268
v 0.049633 0.016484 0.001867
v 0.049782 0.016487 0.001478
v 0.049717 0.021030 0.001692
v 0.049890 0.016489 0.001076
v 0.049955 0.016491 0.000665
v 0.049930 0.021035 0.000887
v 0.049974 0.020937 0.000270
v 0.049955 0.016497 -0.000166
v 0.049948 0.021081 -0.000148
v 0.049890 0.021037 -0.000529
v 0.049890 0.016499 -0.000578
v 0.049778 0.020944 -0.000957
v 0.049630 0.021073 -0.001333
v 0.049633 0.016504 -0.001368
v 0.049444 0.016506 -0.001739
v 0.049450 0.021044 -0.001691
v 0.049217 0.016509 -0.002088
v 0.048955 0.016510 -0.002412
v 0.049069 0.021011 -0.002252
v 0.048338 0.009856 -0.003010
v 0.047985 0.021037 -0.003166
v 0.047614 0.021038 -0.003355
v 0.047222 0.020959 -0.003505
v 0.046409 0.020962 -0.003677
v 0.045998 0.021040 -0.003697
v 0.045582 0.021040 -0.003675
v 0.045171 0.021039 -0.003610
v 0.044791 0.021039 -0.003507
v 0.044382 0.016517 -0.003384
v 0.044012 0.016515 -0.003195
v 0.043659 0.020957 -0.002935
v 0.043339 0.016512 -0.002706
v 0.043045 0.016510 -0.002412
v 0.043169 0.021076 -0.002515
v 0.042790 0.021077 -0.002061
v 0.042783 0.016509 -0.002088
v 0.042556 0.016506 -0.001739
v 0.042563 0.021075 -0.001713
v 0.042367 0.016504 -0.001368
v 0.042218 0.016502 -0.000980
v 0.042112 0.021021 -0.000547
v 0.042047 0.021018 -0.000136
v 0.042026 0.021016 0.000279
v 0.042048 0.021006 0.000699
v 0.042116 0.021007 0.001105
v 0.042110 0.009830 0.001035
v 0.042218 0.016487 0.001478
v 0.042300 0.021006 0.001734
v 0.042367 0.016484 0.001867
v 0.042556 0.016482 0.002237
v 0.042672 0.021008 0.002455
v 0.042783 0.016479 0.002587
v 0.043045 0.016478 0.002910
v 0.043034 0.021006 0.002920
v 0.043339 0.016476 0.003204
v 0.043663 0.016474 0.003466
v 0.043527 0.020939 0.003391
v 0.044014 0.021002 0.003720
v 0.044382 0.016472 0.003882
v 0.044372 0.021028 0.003900
v 0.044771 0.016471 0.004031
v 0.045173 0.016470 0.004139
v 0.044985 0.021007 0.004123
v 0.045627 0.021063 0.004229
v 0.045584 0.016470 0.004204
v -0.045605 0.021008 0.004230
v -0.046000 0.016469 0.004226
v -0.045584 0.016469 0.004204
v -0.045173 0.016470 0.004139
v -0.045194 0.021008 0.004167
v -0.044793 0.020999 0.004062
v -0.044771 0.016471 0.004031
v -0.044383 0.016472 0.003882
v -0.044403 0.021010 0.003914
v -0.044027 0.021030 0.003724
v -0.044012 0.016473 0.003693
v -0.043662 0.021012 0.003491
v -0.043339 0.009817 0.003164
v -0.043045 0.016478 0.002910
v -0.043062 0.021016 0.002950
v -0.042799 0.021018 0.002629
v -0.042783 0.016479 0.002587
v -0.042556 0.016482 0.002237
v -0.042451 0.021030 0.002072
v -0.042367 0.016484 0.001867
v -0.042218 0.016487 0.001478
v -0.042111 0.020932 0.001097
v -0.042044 0.009833 0.000624
v -0.042023 0.016494 0.000249
v -0.042045 0.016497 -0.000166
v -0.042029 0.021043 0.000055
v -0.042110 0.016499 -0.000578
v -0.042222 0.020944 -0.000957
v -0.042367 0.016504 -0.001368
v -0.042559 0.021035 -0.001712
v -0.042775 0.021030 -0.002042
v -0.043045 0.016510 -0.002412
v -0.043199 0.021046 -0.002546
v -0.043339 0.016512 -0.002706
v -0.043666 0.021060 -0.002940
v -0.044023 0.021099 -0.003166
v -0.044011 0.009857 -0.003236
v -0.044383 0.016517 -0.003384
v -0.044776 0.021032 -0.003504
v -0.045180 0.020960 -0.003612
v -0.046006 0.021032 -0.003697
v -0.046422 0.021032 -0.003675
v -0.046830 0.020948 -0.003612
v -0.047207 0.021046 -0.003507
v -0.047618 0.016517 -0.003384
v -0.047597 0.021045 -0.003360
v -0.047988 0.021033 -0.003161
v -0.047988 0.016515 -0.003195
v -0.048337 0.016514 -0.002968
v -0.048531 0.020977 -0.002791
v -0.048661 0.016512 -0.002706
v -0.048958 0.020953 -0.002378
v -0.049219 0.020951 -0.002055
v -0.049444 0.016506 -0.001739
v -0.049633 0.016504 -0.001368
v -0.049782 0.016502 -0.000980
v -0.049971 0.021063 0.000272
v -0.049955 0.016491 0.000665
v -0.049886 0.020932 0.001109
v -0.049445 0.009823 0.002197
v -0.049212 0.020922 0.002618
v -0.048955 0.016478 0.002910
v -0.048966 0.021006 0.002920
v -0.048661 0.016476 0.003204
v -0.048337 0.016474 0.003466
v -0.048492 0.021012 0.003377
v -0.047990 0.021042 0.003714
v -0.047988 0.016473 0.003693
v -0.047618 0.016472 0.003882
v -0.047413 0.021008 0.003995
v -0.047229 0.016471 0.004031
v -0.046827 0.016470 0.004139
v -0.046846 0.021008 0.004158
v -0.046436 0.021008 0.004225
v -0.046416 0.016469 0.004204
v 0.047764 0.021219 0.001609
v 0.045777 0.021263 -0.001922
v 0.044490 0.021237 -0.001317
v -0.046501 0.021234 0.002496
v -0.043725 0.021249 0.000608
v -0.046295 0.021261 -0.001995
v -0.047315 0.021230 -0.001471
v -0.048089 0.021243 -0.000503
v -0.048192 0.021243 0.001133
v 0.046825 -0.014682 0.003950
v 0.046413 -0.014682 0.004014
v 0.045997 -0.014682 0.004036
v 0.047616 -0.014680 0.003693
v 0.047227 -0.014681 0.003842
v 0.048337 -0.014678 0.003278
v 0.047987 -0.014679 0.003504
v 0.048955 -0.014674 0.002722
v 0.048660 -0.014676 0.003016
v 0.049444 -0.014670 0.002049
v 0.049217 -0.014672 0.002398
v 0.049783 -0.014665 0.001289
v 0.049634 -0.014668 0.001678
v 0.049957 -0.014660 0.000476
v 0.049891 -0.014663 0.000887
v 0.049957 -0.014655 -0.000356
v 0.049979 -0.014658 0.000060
v 0.049785 -0.014650 -0.001170
v 0.049892 -0.014653 -0.000767
v 0.049447 -0.014645 -0.001930
v 0.049636 -0.014648 -0.001558
v 0.049220 -0.014644 -0.002279
v 0.048658 0.020942 -0.002681
v 0.047621 -0.014635 -0.003576
v 0.047991 -0.014637 -0.003387
v 0.046827 0.003201 -0.003724
v 0.047229 0.003201 -0.003616
v 0.046000 0.003201 -0.003811
v 0.046416 0.003201 -0.003789
v 0.045173 0.003201 -0.003724
v 0.045584 0.003201 -0.003789
v 0.044771 0.009859 -0.003574
v 0.043663 -0.014638 -0.003163
v 0.043045 -0.014642 -0.002607
v 0.043340 -0.014640 -0.002901
v 0.042556 -0.014645 -0.001934
v 0.042783 -0.014644 -0.002283
v 0.042217 -0.014650 -0.001174
v 0.042366 -0.014648 -0.001563
v 0.042044 0.003180 -0.000249
v 0.042109 0.003182 -0.000660
v 0.042044 0.003175 0.000583
v 0.042022 0.003177 0.000167
v 0.042553 -0.014670 0.002044
v 0.043042 -0.014674 0.002718
v 0.042780 -0.014672 0.002394
v 0.043660 -0.014678 0.003275
v 0.043336 -0.014676 0.003013
v 0.044379 -0.014680 0.003691
v 0.044009 -0.014679 0.003502
v 0.045170 -0.014682 0.003949
v 0.044768 -0.014681 0.003840
v 0.045582 -0.014682 0.004014
v -0.045175 -0.014682 0.003950
v -0.045587 -0.014682 0.004014
v -0.046003 -0.014682 0.004036
v -0.044382 0.003155 0.003801
v -0.044771 0.003154 0.003951
v -0.043662 0.003157 0.003386
v -0.044011 0.003156 0.003612
v -0.043045 -0.014674 0.002721
v -0.042556 -0.014670 0.002049
v -0.042783 -0.014672 0.002398
v -0.042217 -0.014665 0.001289
v -0.042366 -0.014668 0.001678
v -0.042109 -0.014663 0.000887
v -0.042043 -0.014655 -0.000356
v -0.042021 -0.014658 0.000060
v -0.042215 -0.014650 -0.001170
v -0.042108 -0.014653 -0.000767
v -0.042553 -0.014646 -0.001930
v -0.042364 -0.014648 -0.001558
v -0.042782 0.009850 -0.002130
v -0.043662 0.003197 -0.003051
v -0.043338 0.003195 -0.002789
v -0.044379 -0.014635 -0.003576
v -0.045173 0.003201 -0.003724
v -0.044771 0.003201 -0.003616
v -0.046000 0.003201 -0.003811
v -0.045584 0.003201 -0.003789
v -0.046416 0.003201 -0.003789
v -0.047229 0.009859 -0.003574
v -0.048336 -0.014638 -0.003163
v -0.048955 -0.014642 -0.002607
v -0.048660 -0.014640 -0.002901
v -0.049445 -0.014646 -0.001934
v -0.049217 -0.014644 -0.002283
v -0.049783 -0.014650 -0.001174
v -0.049634 -0.014648 -0.001563
v -0.049955 0.020927 -0.000135
v -0.049890 0.020929 -0.000546
v -0.049977 0.009836 0.000208
v -0.049783 0.003170 0.001397
v -0.049891 0.003172 0.000994
v -0.049631 0.020915 0.001897
v -0.048958 -0.014674 0.002718
v -0.049220 -0.014672 0.002394
v -0.048340 -0.014678 0.003275
v -0.048664 -0.014676 0.003012
v -0.047621 -0.014680 0.003691
v -0.047992 -0.014679 0.003502
v -0.046830 -0.014682 0.003949
v -0.047232 -0.014681 0.003840
v -0.046418 -0.014682 0.004014
v 0.046411 0.015046 0.002175
v 0.046207 0.015047 0.002208
v 0.046000 0.015046 0.002218
v 0.046805 0.015047 0.002047
v 0.046611 0.015047 0.002122
v 0.047163 0.015049 0.001841
v 0.046989 0.015048 0.001953
v 0.047324 0.015049 0.001710
v 0.047881 0.015055 0.000852
v 0.047807 0.015054 0.001045
v 0.047935 0.015056 0.000652
v 0.047881 0.015062 -0.000371
v 0.047713 0.015065 -0.000749
v 0.047807 0.015063 -0.000564
v 0.047470 0.015066 -0.001083
v 0.047600 0.015066 -0.000922
v 0.047163 0.015068 -0.001360
v 0.047324 0.015067 -0.001230
v 0.046805 0.015070 -0.001567
v 0.046989 0.015069 -0.001473
v 0.046411 0.015071 -0.001695
v 0.046611 0.015070 -0.001641
v 0.046000 0.015070 -0.001738
v 0.046207 0.015071 -0.001727
v 0.045589 0.015070 -0.001694
v 0.045793 0.015071 -0.001727
v 0.045195 0.015070 -0.001567
v 0.045389 0.015070 -0.001641
v 0.044837 0.015068 -0.001360
v 0.045011 0.015069 -0.001473
v 0.044530 0.015066 -0.001083
v 0.044676 0.015067 -0.001230
v 0.044033 0.015060 0.000034
v 0.044065 0.015061 -0.000171
v 0.044033 0.015057 0.000447
v 0.044022 0.015059 0.000240
v 0.044119 0.015055 0.000852
v 0.044065 0.015056 0.000652
v 0.044287 0.015052 0.001229
v 0.044193 0.015054 0.001045
v 0.044530 0.015050 0.001564
v 0.044400 0.015051 0.001403
v 0.044837 0.015049 0.001841
v 0.044676 0.015049 0.001710
v 0.045195 0.015047 0.002047
v 0.045011 0.015048 0.001953
v 0.045589 0.015046 0.002175
v 0.045389 0.015047 0.002122
v 0.045793 0.015047 0.002208
v -0.045589 0.015046 0.002175
v -0.045793 0.015047 0.002208
v -0.046000 0.015046 0.002218
v -0.045389 0.015047 0.002122
v -0.044837 0.015049 0.001841
v -0.045011 0.015048 0.001953
v -0.044530 0.015050 0.001564
v -0.044676 0.015049 0.001710
v -0.044119 0.015055 0.000852
v -0.044193 0.015054 0.001045
v -0.044065 0.015056 0.000652
v -0.044119 0.015062 -0.000371
v -0.044065 0.015061 -0.000171
v -0.044287 0.015065 -0.000749
v -0.044193 0.015063 -0.000564
v -0.044530 0.015066 -0.001083
v -0.044400 0.015066 -0.000922
v -0.044837 0.015068 -0.001360
v -0.044676 0.015067 -0.001230
v -0.045195 0.015070 -0.001567
v -0.045011 0.015069 -0.001473
v -0.045589 0.015070 -0.001695
v -0.045389 0.015070 -0.001641
v -0.046000 0.015070 -0.001738
v -0.045793 0.015071 -0.001727
v -0.046411 0.015070 -0.001694
v -0.046207 0.015071 -0.001727
v -0.046805 0.015070 -0.001567
v -0.046611 0.015070 -0.001641
v -0.047163 0.015068 -0.001360
v -0.046989 0.015069 -0.001473
v -0.047470 0.015066 -0.001083
v -0.047324 0.015067 -0.001230
v -0.047967 0.015060 0.000034
v -0.047967 0.015057 0.000447
v -0.047978 0.015059 0.000240
v -0.047881 0.015055 0.000852
v -0.047935 0.015056 0.000652
v -0.047713 0.015052 0.001229
v -0.047807 0.015054 0.001045
v -0.047470 0.015050 0.001564
v -0.047600 0.015051 0.001403
v -0.047163 0.015049 0.001841
v -0.047324 0.015049 0.001710
v -0.046805 0.015047 0.002047
v -0.046989 0.015048 0.001953
v -0.046411 0.015046 0.002175
v -0.046611 0.015047 0.002122
v -0.046207 0.015047 0.002208
v -0.073139 -0.015364 0.005910
v -0.086612 -0.015364 0.005906
v -0.086612 -0.016389 0.005815
v -0.073139 -0.017385 0.005553
v -0.086612 -0.017384 0.005549
v -0.073139 -0.018318 0.005117
v -0.086612 -0.018316 0.005114
v -0.073139 -0.019162 0.004527
v -0.086612 -0.019160 0.004524
v -0.073139 -0.019890 0.003798
v -0.086612 -0.019887 0.003796
v -0.086612 -0.020478 0.002953
v -0.073139 -0.020916 0.002021
v -0.086612 -0.020913 0.002020
v -0.086612 -0.021180 0.001025
v 0.073138 -0.020916 0.002021
v -0.073139 -0.021273 0.000000
v -0.086612 -0.021269 0.000000
v -0.086612 -0.021180 -0.001025
v -0.086612 -0.020913 -0.002020
v -0.085473 -0.020478 -0.002956
v -0.086612 -0.019887 -0.003796
v -0.073139 -0.019162 -0.004527
v -0.086612 -0.019160 -0.004524
v -0.086612 -0.018316 -0.005114
v -0.073139 -0.017385 -0.005553
v -0.086612 -0.017384 -0.005550
v -0.073139 -0.018318 -0.005117
v -0.073139 -0.016390 -0.005819
v -0.086612 -0.016389 -0.005815
v -0.086612 -0.015364 -0.005906
v -0.073139 -0.014338 -0.005819
v -0.086612 -0.014338 -0.005815
v -0.073139 -0.013342 -0.005553
v -0.086612 -0.013344 -0.005550
v -0.073139 -0.012409 -0.005117
v -0.086612 -0.012411 -0.005114
v -0.073139 -0.011565 -0.004527
v -0.086612 -0.011568 -0.004524
v -0.072271 -0.010837 -0.003798
v -0.086612 -0.010840 -0.003796
v -0.073139 -0.010246 -0.002955
v -0.086612 -0.010249 -0.002953
v -0.073139 -0.009811 -0.002021
v -0.086612 -0.009815 -0.002020
v -0.073139 -0.009544 -0.001026
v -0.086612 -0.009548 -0.001025
v -0.073139 -0.009455 0.000000
v -0.086612 -0.009459 0.000000
v -0.073139 -0.009544 0.001026
v -0.086612 -0.009548 0.001025
v -0.073139 -0.009811 0.002021
v -0.086612 -0.009815 0.002020
v -0.073058 -0.010246 0.002955
v -0.086612 -0.010249 0.002953
v -0.072272 -0.010837 0.003798
v -0.086612 -0.010840 0.003796
v -0.073139 -0.011565 0.004527
v -0.086612 -0.011568 0.004524
v -0.073139 -0.012409 0.005117
v -0.086612 -0.012411 0.005114
v -0.073139 -0.013342 0.005553
v -0.086612 -0.013344 0.005549
v -0.086612 -0.014338 0.005815
v -0.073139 -0.014338 0.005819
v -0.073139 -0.021183 -0.001026
v -0.073139 -0.020916 -0.002021
v 0.072793 -0.011565 -0.004527
v 0.073138 -0.017385 -0.005553
v 0.073138 -0.012409 0.005117
v -0.073139 -0.016390 0.005819
v -0.073139 -0.020482 0.002955
v 0.073138 -0.019890 0.003798
v -0.073139 -0.021183 0.001026
v -0.033871 -0.020482 -0.002955
v -0.073139 -0.019890 -0.003798
v -0.073139 -0.015364 -0.005910
v 0.073138 -0.013342 -0.005553
v 0.073138 -0.014338 -0.005819
v 0.073138 -0.013342 0.005553
v 0.073138 -0.016390 0.005819
v 0.073138 -0.015364 0.005910
v 0.073138 -0.017385 0.005553
v 0.086612 -0.017384 0.005549
v 0.086612 -0.016389 0.005815
v 0.086612 -0.015364 0.005906
v 0.073138 -0.018318 0.005117
v 0.073138 -0.019162 0.004527
v 0.086612 -0.019160 0.004524
v 0.086612 -0.018316 0.005114
v 0.073138 -0.020482 0.002955
v 0.086612 -0.020478 0.002953
v 0.086612 -0.019887 0.003796
v 0.073138 -0.021183 0.001026
v 0.086612 -0.021180 0.001025
v 0.086612 -0.020913 0.002020
v 0.073138 -0.021273 0.000000
v 0.073138 -0.021183 -0.001026
v 0.086612 -0.021180 -0.001025
v 0.086612 -0.021269 0.000000
v 0.073138 -0.020916 -0.002021
v 0.073138 -0.020482 -0.002955
v 0.086612 -0.020478 -0.002953
v 0.086612 -0.020913 -0.002020
v 0.073138 -0.019890 -0.003798
v 0.073138 -0.019162 -0.004527
v 0.086612 -0.019160 -0.004524
v 0.086612 -0.019887 -0.003796
v 0.073138 -0.018318 -0.005117
v 0.086612 -0.017384 -0.005550
v 0.086612 -0.018316 -0.005114
v 0.073138 -0.016390 -0.005819
v 0.073138 -0.015364 -0.005910
v 0.086612 -0.015364 -0.005906
v 0.086612 -0.016389 -0.005815
v 0.086612 -0.013344 -0.005550
v 0.086612 -0.014338 -0.005815
v 0.073138 -0.012409 -0.005117
v 0.086612 -0.011568 -0.004524
v 0.086612 -0.012411 -0.005114
v 0.073138 -0.010837 -0.003798
v 0.072863 -0.010246 -0.002955
v 0.086612 -0.010249 -0.002953
v 0.086612 -0.010840 -0.003796
v 0.073138 -0.009811 -0.002021
v 0.073138 -0.009544 -0.001026
v 0.086612 -0.009548 -0.001025
v 0.086612 -0.009815 -0.002020
v 0.073138 -0.009455 -0.000000
v 0.073138 -0.009544 0.001026
v 0.086612 -0.009548 0.001025
v 0.086612 -0.009459 0.000000
v 0.073138 -0.009811 0.002021
v 0.073138 -0.010246 0.002955
v 0.086612 -0.010249 0.002953
v 0.086612 -0.009815 0.002020
v 0.073138 -0.010837 0.003798
v 0.072927 -0.011565 0.004527
v 0.086612 -0.011568 0.004524
v 0.086612 -0.010840 0.003796
v 0.086612 -0.013344 0.005549
v 0.086612 -0.012411 0.005114
v 0.073138 -0.014338 0.005819
v 0.086612 -0.014338 0.005815
v -0.091900 -0.015364 0.000000
v -0.091927 -0.012451 0.003030
v -0.091913 -0.012098 0.000985
v -0.091913 -0.012229 -0.001344
v -0.091913 -0.013826 -0.003045
v -0.091930 -0.016074 -0.004289
v -0.091915 -0.017413 -0.002660
v -0.091917 -0.018720 -0.000927
v -0.091916 -0.018439 0.001818
v -0.091913 -0.015300 0.003442
v 0.091900 -0.015364 0.000000
v 0.091913 -0.018095 0.002043
v 0.091913 -0.018769 -0.000191
v 0.091913 -0.017850 -0.002335
v 0.091909 -0.014143 -0.003112
v 0.091913 -0.012099 -0.000986
v 0.091912 -0.012712 0.002100
v 0.091909 -0.015446 0.003342
v -0.091879 -0.015351 0.005367
v -0.091879 -0.017187 0.005047
v -0.091879 -0.020006 0.002694
v -0.091879 -0.020651 -0.000920
v -0.091881 -0.019791 -0.003065
v -0.091879 -0.018823 -0.004103
v -0.091872 -0.015834 -0.005374
v -0.091879 -0.013540 -0.005047
v -0.091881 -0.011577 -0.003827
v -0.091879 -0.010723 -0.002695
v -0.091881 -0.010156 0.001368
v -0.091879 -0.010709 0.002671
v 0.091881 -0.016785 0.005193
v 0.091879 -0.020018 0.002672
v 0.091879 -0.020646 -0.000945
v 0.091879 -0.018803 -0.004119
v 0.091879 -0.015351 -0.005367
v 0.091863 -0.010680 -0.002684
v 0.091880 -0.010155 -0.001366
v 0.091880 -0.010496 0.002302
v -0.091235 -0.016384 0.005784
v -0.091235 -0.015364 0.005874
v -0.091362 -0.016375 0.005734
v -0.091362 -0.015364 0.005823
v -0.091362 -0.017355 0.005472
v -0.091235 -0.017373 0.005519
v -0.091235 -0.018300 0.005086
v -0.091362 -0.018275 0.005043
v -0.091362 -0.019107 0.004461
v -0.091235 -0.019139 0.004499
v -0.091235 -0.019863 0.003775
v -0.091362 -0.019824 0.003743
v -0.091362 -0.020407 0.002912
v -0.091235 -0.020450 0.002937
v -0.091235 -0.020883 0.002009
v -0.091362 -0.020835 0.001991
v -0.091418 -0.021069 0.001006
v -0.091235 -0.021148 0.001020
v -0.091235 -0.021236 0.000000
v -0.091362 -0.021186 0.000000
v -0.091362 -0.021099 -0.001011
v -0.091235 -0.021148 -0.001020
v -0.091235 -0.020883 -0.002009
v -0.091362 -0.020835 -0.001992
v -0.091362 -0.020407 -0.002912
v -0.091235 -0.020450 -0.002937
v -0.091235 -0.019863 -0.003775
v -0.091362 -0.019824 -0.003743
v -0.091362 -0.019107 -0.004461
v -0.091235 -0.019139 -0.004499
v -0.091235 -0.018300 -0.005086
v -0.091362 -0.018275 -0.005043
v -0.091362 -0.017355 -0.005472
v -0.091235 -0.017373 -0.005519
v -0.091235 -0.016384 -0.005784
v -0.091362 -0.016375 -0.005734
v -0.091362 -0.015364 -0.005823
v -0.091235 -0.015364 -0.005874
v -0.091235 -0.014344 -0.005784
v -0.091362 -0.014353 -0.005734
v -0.091362 -0.013372 -0.005472
v -0.091235 -0.013355 -0.005519
v -0.091235 -0.012427 -0.005086
v -0.091362 -0.012452 -0.005043
v -0.091362 -0.011621 -0.004461
v -0.091235 -0.011588 -0.004499
v -0.091235 -0.010865 -0.003775
v -0.091362 -0.010903 -0.003743
v -0.091362 -0.010320 -0.002912
v -0.091235 -0.010277 -0.002937
v -0.091235 -0.009845 -0.002009
v -0.091362 -0.009892 -0.001992
v -0.091362 -0.009629 -0.001011
v -0.091235 -0.009579 -0.001020
v -0.091235 -0.009491 0.000000
v -0.091362 -0.009541 0.000000
v -0.091362 -0.009629 0.001011
v -0.091235 -0.009579 0.001020
v -0.091235 -0.009845 0.002009
v -0.091362 -0.009892 0.001991
v -0.091362 -0.010320 0.002912
v -0.091235 -0.010277 0.002937
v -0.091235 -0.010865 0.003775
v -0.091362 -0.010903 0.003743
v -0.091362 -0.011621 0.004461
v -0.091235 -0.011588 0.004499
v -0.091235 -0.012427 0.005086
v -0.091362 -0.012452 0.005043
v -0.091362 -0.013372 0.005472
v -0.091235 -0.013355 0.005519
v -0.091235 -0.014344 0.005784
v -0.091362 -0.014353 0.005734
v 0.091206 -0.016387 0.005803
v 0.091206 -0.017380 0.005538
v 0.091206 -0.015364 0.005894
v 0.091206 -0.018310 0.005103
v 0.091206 -0.019152 0.004515
v 0.091206 -0.019878 0.003788
v 0.091298 -0.020429 0.002924
v 0.091298 -0.020859 0.002000
v 0.091298 -0.021123 0.001016
v 0.091298 -0.021211 0.000000
v 0.091298 -0.021123 -0.001016
v 0.091298 -0.020859 -0.002000
v 0.091298 -0.020429 -0.002924
v 0.091298 -0.019843 -0.003759
v 0.091298 -0.019123 -0.004480
v 0.091298 -0.018288 -0.005064
v 0.091298 -0.017364 -0.005496
v 0.091298 -0.016379 -0.005759
v 0.091298 -0.015364 -0.005848
v 0.091298 -0.014348 -0.005759
v 0.091298 -0.013363 -0.005496
v 0.091298 -0.012440 -0.005064
v 0.091298 -0.011604 -0.004480
v 0.091235 -0.010277 -0.002937
v 0.091298 -0.010884 -0.003759
v 0.091418 -0.010347 -0.002896
v 0.091298 -0.009869 -0.002000
v 0.091207 -0.009560 -0.001023
v 0.091206 -0.009826 0.002015
v 0.091206 -0.010260 0.002947
v 0.091206 -0.010849 0.003788
v 0.091428 -0.011635 0.004446
v 0.091206 -0.012417 0.005103
v 0.091206 -0.013348 0.005538
v 0.091206 -0.014341 0.005803
v -0.091879 -0.016283 0.005287
v -0.091879 -0.018036 0.004654
v -0.091881 -0.019150 0.003828
v -0.091871 -0.020597 0.001348
v -0.091879 -0.020411 -0.001823
v -0.091879 -0.018058 -0.004641
v -0.091879 -0.017211 -0.005039
v -0.091879 -0.014445 -0.005287
v -0.091879 -0.012692 -0.004654
v -0.091879 -0.010325 -0.001847
v -0.091879 -0.010081 -0.000945
v -0.091879 -0.009998 -0.000012
v -0.091881 -0.011544 0.003795
v -0.091879 -0.012670 0.004641
v -0.091881 -0.013943 0.005194
v 0.091879 -0.015376 0.005367
v 0.091879 -0.018058 0.004641
v 0.091879 -0.018823 0.004103
v 0.091879 -0.019482 0.003439
v 0.091879 -0.020651 0.000919
v 0.091879 -0.020411 0.001824
v 0.091880 -0.020729 -0.000012
v 0.091880 -0.020232 -0.002300
v 0.091879 -0.019466 -0.003459
v 0.091881 -0.017614 -0.004892
v 0.091881 -0.013943 -0.005194
v 0.091881 -0.011543 -0.003795
v 0.091879 -0.009998 0.000014
v 0.091879 -0.010081 0.000945
v 0.091831 -0.011208 0.003527
v 0.091879 -0.011924 0.004119
v 0.091879 -0.012691 0.004654
v 0.091881 -0.013988 0.005206
v -0.091155 -0.016387 0.005804
v -0.091155 -0.015364 0.005894
v -0.091155 -0.017380 0.005539
v -0.091155 -0.018311 0.005104
v -0.091155 -0.019153 0.004515
v -0.091155 -0.019878 0.003788
v -0.091155 -0.020468 0.002947
v -0.091155 -0.020902 0.002016
v -0.091155 -0.021168 0.001024
v -0.091155 -0.021257 0.000000
v -0.091155 -0.021168 -0.001024
v -0.091155 -0.020902 -0.002016
v -0.091155 -0.020468 -0.002947
v -0.091155 -0.019878 -0.003788
v -0.091155 -0.019153 -0.004515
v -0.091155 -0.018311 -0.005104
v -0.091155 -0.017380 -0.005539
v -0.091155 -0.016387 -0.005804
v -0.091155 -0.015364 -0.005894
v -0.091155 -0.014340 -0.005804
v -0.091155 -0.013348 -0.005539
v -0.091155 -0.012417 -0.005104
v -0.091155 -0.011575 -0.004515
v -0.091155 -0.010849 -0.003788
v -0.091155 -0.010259 -0.002947
v -0.091155 -0.009826 -0.002016
v -0.091155 -0.009559 -0.001024
v -0.091155 -0.009470 0.000000
v -0.091155 -0.009559 0.001024
v -0.091155 -0.009826 0.002016
v -0.091155 -0.010259 0.002947
v -0.091155 -0.010849 0.003788
v -0.091155 -0.011575 0.004515
v -0.091155 -0.012417 0.005104
v -0.091155 -0.013348 0.005539
v -0.091155 -0.014340 0.005804
v 0.091155 -0.020468 0.002947
v 0.091155 -0.020902 0.002016
v 0.091155 -0.021168 0.001024
v 0.091155 -0.021257 0.000000
v 0.091155 -0.021168 -0.001024
v 0.091155 -0.020902 -0.002016
v 0.091155 -0.020468 -0.002947
v 0.091155 -0.019878 -0.003788
v 0.091155 -0.019152 -0.004515
v 0.091155 -0.018311 -0.005104
v 0.091155 -0.017380 -0.005539
v 0.091155 -0.016387 -0.005804
v 0.091155 -0.015364 -0.005894
v 0.091155 -0.014340 -0.005804
v 0.091155 -0.013348 -0.005539
v 0.091155 -0.012417 -0.005104
v 0.091155 -0.011575 -0.004515
v 0.091155 -0.010849 -0.003788
v 0.091155 -0.010259 -0.002947
v 0.091155 -0.009826 -0.002016
v 0.091205 -0.009470 -0.000000
v 0.091207 -0.009560 0.001024
v 0.091155 -0.011575 0.004515
v -0.091516 -0.016358 0.005641
v -0.091516 -0.015364 0.005729
v -0.091516 -0.017323 0.005384
v -0.091516 -0.018228 0.004961
v -0.091516 -0.019046 0.004389
v -0.091516 -0.019752 0.003682
v -0.091516 -0.020325 0.002865
v -0.091516 -0.020747 0.001959
v -0.091831 -0.020814 0.000029
v -0.091516 -0.021006 -0.000995
v -0.091516 -0.020747 -0.001959
v -0.091516 -0.020325 -0.002865
v -0.091516 -0.019752 -0.003682
v -0.091516 -0.019046 -0.004389
v -0.091516 -0.018228 -0.004961
v -0.091516 -0.017323 -0.005384
v -0.091516 -0.016358 -0.005641
v -0.091516 -0.015364 -0.005729
v -0.091516 -0.014369 -0.005641
v -0.091516 -0.013404 -0.005384
v -0.091516 -0.012499 -0.004961
v -0.091516 -0.011681 -0.004389
v -0.091516 -0.010976 -0.003682
v -0.091516 -0.010402 -0.002865
v -0.091516 -0.009981 -0.001959
v -0.091516 -0.009722 -0.000995
v -0.091516 -0.009635 0.000000
v -0.091516 -0.009722 0.000995
v -0.091516 -0.009981 0.001959
v -0.091516 -0.010402 0.002865
v -0.091516 -0.010976 0.003682
v -0.091516 -0.011681 0.004389
v -0.091516 -0.012499 0.004961
v -0.091516 -0.013404 0.005384
v -0.091516 -0.014369 0.005641
v 0.091516 -0.016358 0.005641
v 0.091516 -0.017323 0.005384
v 0.091516 -0.015364 0.005729
v 0.091516 -0.018228 0.004961
v 0.091516 -0.019046 0.004389
v 0.091516 -0.019752 0.003682
v 0.091516 -0.020325 0.002865
v 0.091516 -0.020746 0.001959
v 0.091516 -0.021006 0.000995
v 0.091516 -0.021092 0.000000
v 0.091516 -0.021006 -0.000995
v 0.091516 -0.020746 -0.001959
v 0.091516 -0.020325 -0.002865
v 0.091516 -0.019752 -0.003682
v 0.091516 -0.019046 -0.004389
v 0.091516 -0.018228 -0.004961
v 0.091516 -0.017323 -0.005384
v 0.091516 -0.016358 -0.005641
v 0.091516 -0.015364 -0.005729
v 0.091516 -0.014369 -0.005641
v 0.091516 -0.013404 -0.005384
v 0.091830 -0.012612 -0.004706
v 0.091521 -0.011306 -0.004074
v 0.091516 -0.009981 -0.001959
v 0.091516 -0.009722 -0.000995
v 0.091516 -0.009635 0.000000
v 0.091516 -0.009722 0.000995
v 0.091516 -0.009981 0.001959
v 0.091516 -0.010402 0.002865
v 0.091516 -0.012499 0.004961
v 0.091516 -0.013404 0.005384
v 0.091516 -0.014369 0.005641
v -0.091991 -0.018886 0.003697
v -0.091979 -0.020195 0.001315
v -0.091991 -0.019617 -0.002827
v -0.091984 -0.017462 -0.004500
v -0.091991 -0.015812 -0.005071
v -0.091974 -0.013900 -0.004736
v -0.091991 -0.011841 -0.003697
v -0.091979 -0.010533 -0.001316
v -0.091991 -0.010400 0.001202
v -0.091984 -0.011853 0.003511
v -0.091984 -0.013265 0.004500
v -0.091985 -0.015310 0.004971
v 0.091974 -0.017287 0.004568
v 0.091979 -0.015821 0.004986
v 0.091975 -0.018466 0.003878
v 0.091985 -0.019659 0.002851
v 0.091967 -0.019646 0.001997
v 0.091979 -0.020353 0.000417
v 0.091991 -0.019938 -0.002270
v 0.091951 -0.016243 -0.005195
v 0.091991 -0.012334 -0.004111
v 0.091991 -0.010400 -0.001202
v 0.091990 -0.010787 0.002290
v 0.091991 -0.013319 0.004679
v -0.091974 -0.016827 0.004736
v -0.091952 -0.014273 0.004547
v -0.091952 -0.010881 0.001329
v -0.091952 -0.011972 -0.003218
v -0.091952 -0.019122 -0.002782
v -0.091979 -0.020353 -0.000416
v -0.091952 -0.018756 0.003218
v 0.091952 -0.019652 -0.001863
v 0.091979 -0.018219 -0.004113
v 0.091936 -0.016615 -0.004020
v 0.091979 -0.015233 -0.005024
v 0.091952 -0.012784 -0.003900
v 0.091952 -0.010881 -0.001329
v 0.091941 -0.011084 0.001474
v 0.091952 -0.013277 0.004184
f 1 2 564
f 564 565 1
f 2 3 563
f 563 564 2
f 3 4 567
f 567 563 3
f 4 5 566
f 566 567 4
f 569 566 5
f 5 6 568
f 568 569 5
f 6 7 571
f 571 568 6
f 570 571 7
f 7 8 573
f 573 570 7
f 572 573 8
f 8 9 575
f 575 572 8
f 574 575 9
f 9 10 577
f 577 574 9
f 576 577 10
f 579 576 10
f 10 11 578
f 578 579 10
f 581 578 11
f 11 12 580
f 580 581 11
f 12 13 583
f 583 580 12
f 582 583 13
f 584 582 13
f 14 584 13
f 13 17 16
f 16 14 13
f 15 16 17
f 587 15 17
f 586 587 17
f 17 21 19
f 19 586 17
f 18 19 21
f 20 18 21
f 22 20 21
f 21 23 25
f 25 22 21
f 24 25 23
f 23 27 26
f 26 24 23
f 28 26 27
f 29 28 27
f 27 30 595
f 595 29 27
f 597 595 30
f 30 31 596
f 596 597 30
f 31 32 599
f 599 596 31
f 598 599 32
f 32 33 601
f 601 598 32
f 600 601 33
f 35 600 33
f 34 35 33
f 33 36 38
f 38 34 33
f 37 38 36
f 36 42 39
f 39 37 36
f 40 39 42
f 41 40 42
f 606 41 42
f 608 606 42
f 42 43 607
f 607 608 42
f 610 607 43
f 43 44 609
f 609 610 43
f 612 609 44
f 44 45 611
f 611 612 44
f 614 611 45
f 45 46 613
f 613 614 45
f 46 1 615
f 615 613 46
f 565 615 1
f 46 45 47
f 47 1 46
f 44 47 45
f 44 43 47
f 42 47 43
f 47 42 36
f 33 47 36
f 32 47 33
f 31 30 47
f 47 32 31
f 27 47 30
f 23 47 27
f 47 23 21
f 47 21 17
f 47 17 13
f 12 11 47
f 47 13 12
f 10 47 11
f 9 47 10
f 47 9 8
f 7 47 8
f 6 5 47
f 47 7 6
f 4 47 5
f 3 2 47
f 47 4 3
f 1 47 2
f 48 49 50
f 50 51 48
f 49 52 53
f 53 50 49
f 54 55 50
f 50 53 54
f 55 56 57
f 57 50 55
f 58 59 50
f 50 57 58
f 59 60 61
f 61 50 59
f 62 63 50
f 50 61 62
f 63 64 65
f 65 50 63
f 66 67 50
f 50 65 66
f 67 68 69
f 69 50 67
f 70 71 50
f 50 69 70
f 71 72 73
f 73 50 71
f 74 75 50
f 50 73 74
f 75 76 77
f 77 50 75
f 78 79 50
f 50 77 78
f 79 80 81
f 81 50 79
f 82 83 50
f 50 81 82
f 83 84 85
f 85 50 83
f 86 87 50
f 50 85 86
f 87 88 89
f 89 50 87
f 90 91 50
f 50 89 90
f 91 92 93
f 93 50 91
f 94 95 50
f 50 93 94
f 95 96 97
f 97 50 95
f 98 99 50
f 50 97 98
f 99 100 101
f 101 50 99
f 102 103 50
f 50 101 102
f 103 104 105
f 105 50 103
f 106 107 50
f 50 105 106
f 107 108 51
f 51 50 107
f 617 618 109
f 616 617 109
f 109 112 110
f 110 616 109
f 111 110 112
f 113 111 112
f 114 113 112
f 112 115 116
f 116 114 112
f 623 116 115
f 115 117 625
f 625 623 115
f 624 625 117
f 627 624 117
f 626 627 117
f 117 118 628
f 628 626 117
f 119 628 118
f 630 119 118
f 629 630 118
f 118 120 632
f 632 629 118
f 631 632 120
f 120 122 634
f 634 631 120
f 633 634 122
f 121 633 122
f 123 121 122
f 122 127 125
f 125 123 122
f 124 125 127
f 126 124 127
f 638 126 127
f 127 131 129
f 129 638 127
f 128 129 131
f 130 128 131
f 132 130 131
f 131 133 135
f 135 132 131
f 134 135 133
f 133 137 136
f 136 134 133
f 138 136 137
f 139 138 137
f 137 140 645
f 645 139 137
f 647 645 140
f 140 141 646
f 646 647 140
f 141 142 649
f 649 646 141
f 648 649 142
f 142 143 651
f 651 648 142
f 650 651 143
f 144 650 143
f 145 144 143
f 143 146 148
f 148 145 143
f 147 148 146
f 146 149 151
f 151 147 146
f 150 151 149
f 149 152 153
f 153 150 149
f 152 155 154
f 154 153 152
f 659 154 155
f 155 156 658
f 658 659 155
f 661 658 156
f 156 157 660
f 660 661 156
f 663 660 157
f 157 158 662
f 662 663 157
f 665 662 158
f 664 665 158
f 158 109 666
f 666 664 158
f 618 666 109
f 159 109 158
f 157 159 158
f 157 156 159
f 155 159 156
f 155 152 159
f 149 159 152
f 159 149 146
f 143 159 146
f 142 159 143
f 141 140 159
f 159 142 141
f 137 159 140
f 133 159 137
f 159 133 131
f 159 131 127
f 159 127 122
f 159 122 120
f 118 159 120
f 117 159 118
f 115 159 117
f 159 115 112
f 159 112 109
f 160 161 162
f 162 163 160
f 161 164 165
f 165 162 161
f 166 167 162
f 162 165 166
f 167 168 169
f 169 162 167
f 170 171 162
f 162 169 170
f 171 172 173
f 173 162 171
f 174 175 162
f 162 173 174
f 175 176 177
f 177 162 175
f 178 179 162
f 162 177 178
f 179 180 181
f 181 162 179
f 182 183 162
f 162 181 182
f 183 184 185
f 185 162 183
f 186 187 162
f 162 185 186
f 187 188 189
f 189 162 187
f 190 191 162
f 162 189 190
f 191 192 193
f 193 162 191
f 194 195 162
f 162 193 194
f 195 196 197
f 197 162 195
f 198 199 162
f 162 197 198
f 199 200 201
f 201 162 199
f 202 203 162
f 162 201 202
f 203 204 205
f 205 162 203
f 206 207 162
f 162 205 206
f 207 208 209
f 209 162 207
f 210 211 162
f 162 209 210
f 211 212 213
f 213 162 211
f 214 215 162
f 162 213 214
f 215 216 217
f 217 162 215
f 218 219 162
f 162 217 218
f 219 220 163
f 163 162 219
f 221 222 347
f 222 379 555
f 223 224 349
f 225 226 381
f 350 226 225
f 558 350 225
f 225 329 558
f 558 329 227
f 330 366 228
f 228 329 330
f 228 229 559
f 358 359 226
f 320 562 358
f 358 226 320
f 557 320 226
f 230 262 333
f 667 668 262
f 262 230 667
f 668 669 262
f 230 334 231
f 670 671 230
f 230 231 670
f 671 667 230
f 672 673 334
f 673 670 231
f 231 334 673
f 334 310 232
f 310 388 232
f 233 674 232
f 674 672 334
f 334 232 674
f 234 235 232
f 235 233 232
f 389 232 388
f 675 676 389
f 676 234 232
f 232 389 676
f 389 390 237
f 236 677 389
f 389 237 236
f 677 675 389
f 238 239 237
f 239 236 237
f 237 391 240
f 678 241 237
f 237 240 678
f 241 238 237
f 242 240 391
f 679 680 240
f 240 242 679
f 680 678 240
f 391 311 242
f 681 682 242
f 682 679 242
f 243 242 311
f 683 684 242
f 242 243 683
f 684 681 242
f 685 686 243
f 243 244 685
f 686 683 243
f 244 335 245
f 687 688 244
f 244 245 687
f 688 685 244
f 689 690 245
f 245 246 689
f 690 687 245
f 691 692 246
f 692 689 246
f 247 313 248
f 693 694 247
f 247 248 693
f 694 691 246
f 246 247 694
f 313 368 249
f 249 248 313
f 695 696 249
f 696 693 248
f 248 249 696
f 368 336 250
f 250 249 368
f 697 698 250
f 250 336 697
f 698 695 249
f 249 250 698
f 251 252 336
f 252 697 336
f 254 255 253
f 255 251 336
f 336 253 255
f 256 253 392
f 699 700 253
f 253 256 699
f 700 254 253
f 257 256 392
f 701 702 257
f 702 699 256
f 256 257 702
f 314 337 257
f 703 704 257
f 704 701 257
f 705 706 337
f 337 258 705
f 706 703 257
f 257 337 706
f 707 708 258
f 708 705 258
f 315 393 259
f 259 258 315
f 709 710 258
f 258 259 709
f 710 707 258
f 260 259 393
f 261 260 393
f 711 712 260
f 260 261 711
f 712 709 259
f 259 260 712
f 713 714 261
f 261 262 713
f 714 711 261
f 338 333 262
f 669 715 262
f 715 713 262
f 716 717 263
f 263 264 716
f 717 718 298
f 298 263 717
f 265 719 264
f 719 716 264
f 266 264 316
f 720 721 264
f 264 266 720
f 721 265 264
f 316 339 266
f 722 723 266
f 266 339 722
f 723 720 266
f 339 267 268
f 269 270 339
f 339 268 269
f 270 722 339
f 271 268 267
f 724 725 268
f 268 271 724
f 725 269 268
f 273 726 271
f 271 272 273
f 726 724 271
f 274 275 272
f 275 273 272
f 276 272 317
f 727 728 276
f 728 274 272
f 272 276 728
f 729 730 277
f 730 727 276
f 276 277 730
f 731 732 277
f 732 729 277
f 277 374 278
f 733 734 278
f 734 731 277
f 277 278 734
f 279 278 374
f 735 736 279
f 736 733 278
f 278 279 736
f 737 738 280
f 738 735 279
f 279 280 738
f 281 280 375
f 739 740 281
f 740 737 280
f 280 281 740
f 281 353 282
f 353 394 282
f 741 742 282
f 742 739 281
f 281 282 742
f 743 744 282
f 744 741 282
f 282 394 283
f 284 283 394
f 745 746 283
f 283 284 745
f 746 743 282
f 282 283 746
f 747 748 284
f 748 745 284
f 287 284 318
f 285 286 284
f 284 287 285
f 286 747 284
f 288 289 287
f 289 285 287
f 749 291 290
f 291 288 287
f 287 290 291
f 750 751 290
f 751 749 290
f 396 397 292
f 752 753 396
f 396 292 752
f 753 750 290
f 290 396 753
f 293 292 397
f 754 755 292
f 292 293 754
f 755 752 292
f 756 757 293
f 293 294 756
f 757 754 293
f 294 360 295
f 296 295 360
f 758 759 295
f 295 296 758
f 759 756 294
f 294 295 759
f 297 296 360
f 760 761 297
f 761 758 296
f 296 297 761
f 297 354 298
f 762 763 298
f 763 760 297
f 297 298 763
f 718 764 298
f 764 762 298
f 340 402 299
f 416 355 413
f 355 416 419
f 419 321 355
f 422 423 322
f 429 301 426
f 221 301 432
f 323 361 377
f 362 324 378
f 324 362 363
f 324 363 325
f 364 379 451
f 326 457 458
f 458 223 326
f 223 458 461
f 304 479 483
f 483 226 304
f 226 483 305
f 305 487 488
f 306 381 488
f 488 490 306
f 381 306 493
f 381 493 494
f 381 494 497
f 497 225 381
f 504 308 307
f 382 329 328
f 511 383 382
f 383 511 513
f 383 513 514
f 517 366 384
f 519 228 366
f 366 341 519
f 228 519 520
f 228 520 385
f 385 525 357
f 343 358 535
f 358 343 332
f 332 344 309
f 309 359 332
f 387 551 552
f 387 552 304
f 333 338 345
f 345 310 333
f 310 345 554
f 554 388 310
f 347 311 391
f 335 312 555
f 368 313 555
f 556 369 368
f 348 392 369
f 392 348 314
f 371 316 263
f 372 351 316
f 394 560 318
f 318 561 395
f 320 397 319
f 376 360 320
f 224 477 340
f 422 322 321
f 222 377 378
f 378 324 222
f 329 308 328
f 230 333 310
f 237 390 391
f 312 243 311
f 312 244 243
f 244 312 335
f 369 336 368
f 369 253 336
f 253 369 392
f 337 314 370
f 337 370 315
f 315 258 337
f 338 261 393
f 338 262 261
f 316 264 263
f 351 339 316
f 353 281 375
f 346 391 390
f 391 346 347
f 370 314 348
f 349 338 393
f 350 372 371
f 267 351 558
f 558 317 267
f 558 227 317
f 395 561 562
f 562 319 395
f 562 320 319
f 340 299 224
f 224 299 300
f 355 221 300
f 321 322 355
f 221 355 322
f 221 322 301
f 303 222 221
f 222 303 377
f 377 303 323
f 222 324 325
f 325 379 222
f 223 379 326
f 356 223 380
f 356 224 223
f 305 381 226
f 329 225 308
f 382 330 329
f 383 330 382
f 385 357 228
f 367 229 357
f 228 357 229
f 358 229 331
f 359 358 332
f 387 226 359
f 310 334 230
f 335 246 245
f 246 335 247
f 314 257 392
f 271 267 317
f 317 272 271
f 373 276 317
f 373 277 276
f 277 373 374
f 280 279 374
f 284 394 318
f 287 318 395
f 395 290 287
f 290 395 319
f 319 396 290
f 397 294 293
f 294 397 360
f 297 360 354
f 298 354 263
f 477 398 340
f 405 299 402
f 299 405 407
f 408 410 299
f 299 407 408
f 300 410 411
f 300 411 413
f 221 432 302
f 434 303 302
f 303 434 435
f 435 323 303
f 438 377 361
f 377 438 439
f 377 439 440
f 440 378 377
f 378 440 441
f 378 441 362
f 447 325 363
f 454 379 364
f 379 454 455
f 455 326 379
f 326 455 456
f 464 223 461
f 223 464 467
f 467 380 223
f 471 356 380
f 356 471 473
f 476 224 473
f 224 476 477
f 484 305 483
f 305 484 487
f 225 497 327
f 308 504 365
f 308 365 328
f 509 382 508
f 328 508 382
f 382 509 511
f 384 383 514
f 522 385 520
f 385 522 524
f 229 367 386
f 541 359 309
f 359 541 544
f 359 544 545
f 548 387 545
f 387 548 551
f 346 390 388
f 348 369 556
f 349 315 370
f 315 349 393
f 316 371 372
f 317 227 373
f 373 227 374
f 352 375 374
f 394 353 560
f 410 300 299
f 355 300 413
f 426 301 322
f 221 302 303
f 448 325 447
f 325 448 451
f 325 451 379
f 356 473 224
f 488 381 305
f 307 225 327
f 225 307 308
f 384 330 383
f 330 384 366
f 229 386 342
f 229 342 331
f 331 535 358
f 545 387 359
f 304 226 387
f 389 388 390
f 555 247 335
f 247 555 313
f 339 351 267
f 280 374 375
f 319 397 396
f 320 360 397
f 376 354 360
f 263 354 371
f 398 399 400
f 398 400 401
f 401 402 340
f 340 398 401
f 403 402 401
f 404 405 402
f 402 403 404
f 405 404 406
f 405 406 407
f 409 410 408
f 410 409 411
f 412 413 411
f 413 412 414
f 414 416 413
f 416 414 415
f 416 415 417
f 417 419 416
f 419 417 418
f 321 419 420
f 420 422 321
f 419 418 420
f 421 422 420
f 422 421 424
f 424 423 422
f 423 424 425
f 425 426 322
f 322 423 425
f 427 426 425
f 428 429 426
f 426 427 428
f 301 429 432
f 429 428 430
f 430 432 429
f 432 430 431
f 585 302 432
f 432 431 585
f 433 302 585
f 302 433 434
f 323 435 436
f 323 436 361
f 437 438 361
f 594 441 440
f 442 362 441
f 441 594 442
f 362 442 443
f 443 363 362
f 363 443 444
f 444 447 363
f 445 447 444
f 447 445 446
f 447 446 449
f 449 448 447
f 450 451 448
f 448 449 450
f 451 450 452
f 452 364 451
f 364 452 453
f 364 453 454
f 326 456 457
f 459 458 457
f 460 461 458
f 458 459 460
f 461 460 462
f 463 464 461
f 461 462 463
f 464 463 465
f 466 467 464
f 464 465 466
f 380 467 470
f 467 466 468
f 468 470 467
f 470 468 469
f 470 471 380
f 470 469 471
f 472 473 471
f 473 472 474
f 474 476 473
f 476 474 475
f 476 475 478
f 478 477 476
f 399 398 477
f 477 478 399
f 304 480 481
f 481 479 304
f 482 483 479
f 479 481 482
f 483 482 485
f 485 484 483
f 486 487 484
f 484 485 486
f 487 486 489
f 489 488 487
f 488 489 490
f 491 306 490
f 492 493 306
f 306 491 492
f 493 492 495
f 495 494 493
f 496 497 494
f 494 495 496
f 497 496 498
f 499 327 497
f 497 498 499
f 500 307 327
f 327 499 500
f 501 307 500
f 307 501 502
f 502 504 307
f 504 502 503
f 504 503 505
f 505 365 504
f 365 505 506
f 506 328 365
f 507 328 506
f 328 507 508
f 635 509 508
f 510 511 509
f 509 635 510
f 511 510 512
f 511 512 513
f 515 514 513
f 516 384 514
f 514 515 516
f 384 516 517
f 518 366 517
f 366 518 341
f 521 522 520
f 644 522 521
f 523 524 522
f 522 644 523
f 385 524 525
f 524 523 526
f 526 525 524
f 527 528 525
f 525 526 527
f 528 357 525
f 528 367 357
f 528 527 529
f 528 529 530
f 367 528 530
f 367 530 531
f 531 386 367
f 532 386 531
f 386 532 533
f 534 342 386
f 386 533 534
f 653 331 342
f 342 534 653
f 652 535 331
f 331 653 652
f 654 535 652
f 536 343 535
f 535 654 536
f 537 332 343
f 343 536 537
f 332 537 344
f 657 309 344
f 538 309 657
f 539 541 309
f 309 538 539
f 540 541 539
f 541 540 542
f 542 544 541
f 544 542 543
f 544 543 546
f 546 545 544
f 547 548 545
f 545 546 547
f 548 547 549
f 550 551 548
f 548 549 550
f 551 550 553
f 553 552 551
f 480 304 552
f 552 553 480
f 224 345 338
f 300 554 345
f 345 224 300
f 300 346 554
f 388 554 346
f 346 300 221
f 221 347 346
f 347 312 311
f 312 347 222
f 222 555 312
f 368 555 556
f 379 348 556
f 556 555 379
f 379 370 348
f 370 379 223
f 370 223 349
f 224 338 349
f 557 371 354
f 226 371 557
f 226 350 371
f 372 350 351
f 351 350 558
f 329 352 227
f 352 374 227
f 352 329 228
f 375 352 559
f 228 559 352
f 559 353 375
f 559 560 353
f 229 560 559
f 229 561 560
f 318 560 561
f 561 229 358
f 358 562 561
f 557 376 320
f 557 354 376
f 563 401 400
f 400 564 563
f 399 565 564
f 564 400 399
f 566 404 403
f 403 567 566
f 401 563 567
f 567 403 401
f 568 407 406
f 406 569 568
f 404 566 569
f 569 406 404
f 570 409 408
f 408 571 570
f 407 568 571
f 571 408 407
f 572 412 411
f 411 573 572
f 409 570 573
f 573 411 409
f 574 415 414
f 414 575 574
f 412 572 575
f 575 414 412
f 576 418 417
f 417 577 576
f 415 574 577
f 577 417 415
f 578 421 420
f 420 579 578
f 418 576 579
f 579 420 418
f 580 425 424
f 424 581 580
f 421 578 581
f 581 424 421
f 582 428 427
f 427 583 582
f 425 580 583
f 583 427 425
f 14 431 430
f 430 584 14
f 428 582 584
f 584 430 428
f 15 433 585
f 585 16 15
f 431 14 585
f 16 585 14
f 586 435 434
f 434 587 586
f 587 434 433
f 433 15 587
f 18 588 589
f 589 19 18
f 588 361 436
f 436 589 588
f 435 586 589
f 589 436 435
f 19 589 586
f 22 590 591
f 591 20 22
f 590 438 437
f 437 591 590
f 361 588 591
f 591 437 361
f 588 18 20
f 20 591 588
f 24 592 593
f 593 25 24
f 592 440 439
f 439 593 592
f 438 590 593
f 593 439 438
f 590 22 25
f 25 593 590
f 594 26 28
f 28 442 594
f 440 592 594
f 592 24 26
f 26 594 592
f 595 444 443
f 443 29 595
f 442 28 29
f 29 443 442
f 596 446 445
f 445 597 596
f 444 595 597
f 597 445 444
f 598 450 449
f 449 599 598
f 446 596 599
f 599 449 446
f 600 453 452
f 452 601 600
f 450 598 601
f 601 452 450
f 34 602 603
f 603 35 34
f 602 455 454
f 454 603 602
f 453 600 603
f 603 454 453
f 35 603 600
f 37 604 605
f 605 38 37
f 604 457 456
f 456 605 604
f 455 602 605
f 605 456 455
f 602 34 38
f 38 605 602
f 459 39 40
f 40 460 459
f 457 604 459
f 604 37 39
f 39 459 604
f 606 463 462
f 462 41 606
f 460 40 41
f 41 462 460
f 607 466 465
f 465 608 607
f 463 606 608
f 608 465 463
f 609 469 468
f 468 610 609
f 466 607 610
f 610 468 466
f 611 472 471
f 471 612 611
f 469 609 612
f 612 471 469
f 613 475 474
f 474 614 613
f 472 611 614
f 614 474 472
f 565 399 478
f 478 615 565
f 475 613 615
f 615 478 475
f 616 482 481
f 481 617 616
f 480 618 617
f 617 481 480
f 111 619 620
f 620 110 111
f 619 486 485
f 485 620 619
f 482 616 620
f 620 485 482
f 110 620 616
f 114 621 622
f 622 113 114
f 621 490 489
f 489 622 621
f 486 619 622
f 622 489 486
f 619 111 113
f 113 622 619
f 491 116 623
f 623 492 491
f 490 621 491
f 621 114 116
f 116 491 621
f 624 496 495
f 495 625 624
f 492 623 625
f 625 495 492
f 626 499 498
f 498 627 626
f 496 624 627
f 627 498 496
f 119 501 628
f 500 628 501
f 499 626 628
f 628 500 499
f 629 503 502
f 502 630 629
f 630 502 501
f 501 119 630
f 631 506 505
f 505 632 631
f 503 629 632
f 632 505 503
f 633 508 507
f 507 634 633
f 506 631 634
f 634 507 506
f 635 121 123
f 123 510 635
f 508 633 635
f 121 635 633
f 124 636 637
f 637 125 124
f 636 513 512
f 512 637 636
f 510 123 637
f 637 512 510
f 125 637 123
f 515 126 638
f 638 516 515
f 513 636 515
f 636 124 126
f 126 515 636
f 128 639 640
f 640 129 128
f 639 518 517
f 517 640 639
f 516 638 640
f 640 517 516
f 129 640 638
f 132 641 642
f 642 130 132
f 641 519 341
f 341 642 641
f 518 639 642
f 642 341 518
f 639 128 130
f 130 642 639
f 134 521 643
f 643 135 134
f 520 643 521
f 519 641 643
f 643 520 519
f 641 132 135
f 135 643 641
f 644 136 138
f 138 523 644
f 521 134 136
f 136 644 521
f 645 527 526
f 526 139 645
f 523 138 139
f 139 526 523
f 646 530 529
f 529 647 646
f 527 645 647
f 647 529 527
f 648 532 531
f 531 649 648
f 530 646 649
f 649 531 530
f 650 534 533
f 533 651 650
f 532 648 651
f 651 533 532
f 145 652 653
f 653 144 145
f 534 650 653
f 144 653 650
f 654 148 147
f 147 536 654
f 652 145 148
f 148 654 652
f 150 655 656
f 656 151 150
f 655 344 537
f 537 656 655
f 536 147 656
f 656 537 536
f 151 656 147
f 154 538 657
f 657 153 154
f 344 655 657
f 655 150 153
f 153 657 655
f 658 540 539
f 539 659 658
f 659 539 538
f 538 154 659
f 660 543 542
f 542 661 660
f 540 658 661
f 661 542 540
f 662 547 546
f 546 663 662
f 543 660 663
f 663 546 543
f 664 550 549
f 549 665 664
f 547 662 665
f 665 549 547
f 618 480 553
f 553 666 618
f 550 664 666
f 666 553 550
f 667 52 49
f 49 668 667
f 48 669 668
f 668 49 48
f 670 54 53
f 53 671 670
f 52 667 671
f 671 53 52
f 672 56 55
f 55 673 672
f 54 670 673
f 673 55 54
f 233 58 57
f 57 674 233
f 56 672 674
f 674 57 56
f 234 60 59
f 59 235 234
f 58 233 235
f 235 59 58
f 675 62 61
f 61 676 675
f 60 234 676
f 676 61 60
f 236 64 63
f 63 677 236
f 62 675 677
f 677 63 62
f 238 66 65
f 65 239 238
f 64 236 239
f 239 65 64
f 678 68 67
f 67 241 678
f 66 238 241
f 241 67 66
f 679 70 69
f 69 680 679
f 68 678 680
f 680 69 68
f 681 72 71
f 71 682 681
f 70 679 682
f 682 71 70
f 683 74 73
f 73 684 683
f 72 681 684
f 684 73 72
f 685 76 75
f 75 686 685
f 74 683 686
f 686 75 74
f 687 78 77
f 77 688 687
f 76 685 688
f 688 77 76
f 689 80 79
f 79 690 689
f 78 687 690
f 690 79 78
f 691 82 81
f 81 692 691
f 80 689 692
f 692 81 80
f 693 84 83
f 83 694 693
f 82 691 694
f 694 83 82
f 695 86 85
f 85 696 695
f 84 693 696
f 696 85 84
f 697 88 87
f 87 698 697
f 86 695 698
f 698 87 86
f 251 90 89
f 89 252 251
f 88 697 252
f 252 89 88
f 254 92 91
f 91 255 254
f 90 251 255
f 255 91 90
f 699 94 93
f 93 700 699
f 92 254 700
f 700 93 92
f 701 96 95
f 95 702 701
f 94 699 702
f 702 95 94
f 703 98 97
f 97 704 703
f 96 701 704
f 704 97 96
f 705 100 99
f 99 706 705
f 98 703 706
f 706 99 98
f 707 102 101
f 101 708 707
f 100 705 708
f 708 101 100
f 709 104 103
f 103 710 709
f 102 707 710
f 710 103 102
f 711 106 105
f 105 712 711
f 104 709 712
f 712 105 104
f 713 108 107
f 107 714 713
f 106 711 714
f 714 107 106
f 669 48 51
f 51 715 669
f 108 713 715
f 715 51 108
f 716 164 161
f 161 717 716
f 160 718 717
f 717 161 160
f 265 166 165
f 165 719 265
f 164 716 719
f 719 165 164
f 720 168 167
f 167 721 720
f 166 265 721
f 721 167 166
f 722 170 169
f 169 723 722
f 168 720 723
f 723 169 168
f 269 172 171
f 171 270 269
f 170 722 270
f 270 171 170
f 724 174 173
f 173 725 724
f 172 269 725
f 725 173 172
f 273 176 175
f 175 726 273
f 174 724 726
f 726 175 174
f 274 178 177
f 177 275 274
f 176 273 275
f 275 177 176
f 727 180 179
f 179 728 727
f 178 274 728
f 728 179 178
f 729 182 181
f 181 730 729
f 180 727 730
f 730 181 180
f 731 184 183
f 183 732 731
f 182 729 732
f 732 183 182
f 733 186 185
f 185 734 733
f 184 731 734
f 734 185 184
f 735 188 187
f 187 736 735
f 186 733 736
f 736 187 186
f 737 190 189
f 189 738 737
f 188 735 738
f 738 189 188
f 739 192 191
f 191 740 739
f 190 737 740
f 740 191 190
f 741 194 193
f 193 742 741
f 192 739 742
f 742 193 192
f 743 196 195
f 195 744 743
f 194 741 744
f 744 195 194
f 745 198 197
f 197 746 745
f 196 743 746
f 746 197 196
f 747 200 199
f 199 748 747
f 198 745 748
f 748 199 198
f 285 202 201
f 201 286 285
f 200 747 286
f 286 201 200
f 288 204 203
f 203 289 288
f 202 285 289
f 289 203 202
f 749 206 205
f 205 291 749
f 204 288 291
f 291 205 204
f 750 208 207
f 207 751 750
f 206 749 751
f 751 207 206
f 752 210 209
f 209 753 752
f 208 750 753
f 753 209 208
f 754 212 211
f 211 755 754
f 210 752 755
f 755 211 210
f 756 214 213
f 213 757 756
f 212 754 757
f 757 213 212
f 758 216 215
f 215 759 758
f 214 756 759
f 759 215 214
f 760 218 217
f 217 761 760
f 216 758 761
f 761 217 216
f 762 220 219
f 219 763 762
f 218 760 763
f 763 219 218
f 718 160 163
f 163 764 718
f 220 762 764
f 764 163 220
f 835 765 766
f 766 767 835
f 768 835 767
f 767 769 768
f 770 768 769
f 769 771 770
f 772 770 771
f 771 773 772
f 770 772 852
f 852 851 770
f 768 770 851
f 774 772 773
f 773 775 774
f 836 774 775
f 775 776 836
f 836 837 774
f 772 774 837
f 837 852 772
f 777 836 776
f 776 778 777
f 838 777 778
f 778 779 838
f 838 780 777
f 836 777 780
f 781 838 779
f 779 782 781
f 830 781 782
f 782 783 830
f 830 861 781
f 838 781 861
f 831 830 783
f 783 784 831
f 785 831 784
f 831 785 839
f 785 786 840
f 787 840 786
f 786 788 787
f 840 787 870
f 840 839 785
f 792 787 788
f 788 789 792
f 790 792 789
f 789 791 790
f 792 790 833
f 792 870 787
f 793 790 791
f 791 794 793
f 841 793 794
f 794 795 841
f 793 833 790
f 796 841 795
f 795 797 796
f 798 796 797
f 797 799 798
f 796 798 842
f 842 843 796
f 841 796 843
f 800 798 799
f 799 801 800
f 802 800 801
f 801 803 802
f 800 802 832
f 832 882 800
f 798 800 882
f 882 842 798
f 804 802 803
f 803 805 804
f 806 804 805
f 805 807 806
f 804 806 886
f 804 832 802
f 808 806 807
f 807 809 808
f 810 808 809
f 809 811 810
f 808 810 890
f 808 886 806
f 812 810 811
f 811 813 812
f 814 812 813
f 813 815 814
f 812 814 894
f 894 893 812
f 810 812 893
f 893 890 810
f 816 814 815
f 815 817 816
f 818 816 817
f 817 819 818
f 816 894 814
f 820 818 819
f 819 821 820
f 822 820 821
f 821 823 822
f 820 822 902
f 824 822 823
f 823 825 824
f 826 824 825
f 825 827 826
f 824 826 844
f 844 834 824
f 822 824 834
f 834 902 822
f 829 826 827
f 827 828 829
f 765 829 828
f 828 766 765
f 829 844 826
f 845 846 765
f 765 835 845
f 847 845 835
f 835 768 847
f 845 847 848
f 848 849 845
f 846 845 849
f 849 850 846
f 851 847 768
f 851 852 853
f 853 854 851
f 847 851 854
f 854 848 847
f 837 836 855
f 837 855 856
f 856 857 837
f 852 837 857
f 857 853 852
f 780 855 836
f 780 838 858
f 780 858 859
f 859 860 780
f 855 780 860
f 860 856 855
f 861 858 838
f 861 830 862
f 861 862 863
f 863 864 861
f 858 861 864
f 864 859 858
f 865 862 830
f 830 831 865
f 866 865 831
f 831 839 866
f 865 866 867
f 867 868 865
f 862 865 868
f 868 863 862
f 869 866 839
f 839 840 869
f 870 869 840
f 869 870 871
f 871 872 869
f 866 869 872
f 872 867 866
f 870 792 873
f 833 873 792
f 873 833 874
f 874 875 873
f 870 873 875
f 875 871 870
f 833 793 876
f 877 876 793
f 793 841 877
f 876 877 878
f 878 879 876
f 833 876 879
f 879 874 833
f 843 877 841
f 843 842 880
f 880 881 843
f 877 843 881
f 881 878 877
f 882 832 883
f 883 884 882
f 842 882 884
f 884 880 842
f 832 804 885
f 886 885 804
f 885 886 887
f 887 888 885
f 832 885 888
f 888 883 832
f 886 808 889
f 890 889 808
f 889 890 891
f 891 892 889
f 886 889 892
f 892 887 886
f 893 894 895
f 895 896 893
f 890 893 896
f 896 891 890
f 894 816 897
f 898 897 816
f 816 818 898
f 897 898 899
f 899 900 897
f 894 897 900
f 900 895 894
f 901 898 818
f 818 820 901
f 902 901 820
f 901 902 903
f 903 904 901
f 898 901 904
f 904 899 898
f 834 844 905
f 905 906 834
f 902 834 906
f 906 903 902
f 844 829 907
f 846 907 829
f 829 765 846
f 907 846 850
f 850 908 907
f 844 907 908
f 908 905 844
f 910 909 918
f 909 910 911
f 909 911 912
f 909 912 913
f 909 913 914
f 915 909 914
f 916 909 915
f 917 909 916
f 918 909 917
f 919 926 920
f 919 920 921
f 919 921 922
f 919 922 1246
f 1246 923 919
f 919 923 924
f 919 924 1250
f 1250 925 919
f 925 926 919
f 1054 1146 1147
f 1147 927 1054
f 1146 1054 928
f 928 1148 1146
f 1055 1149 1148
f 1148 928 1055
f 1149 1055 1056
f 1056 1150 1149
f 1056 1151 1150
f 1151 1056 929
f 929 1152 1151
f 1057 1153 1152
f 1152 929 1057
f 930 1155 1154
f 1058 1156 1155
f 1155 930 1058
f 1156 1058 931
f 931 1157 1156
f 931 1158 1157
f 1158 931 932
f 932 1159 1158
f 1059 1160 1159
f 1159 932 1059
f 1160 1059 1060
f 1060 1161 1160
f 933 1162 1161
f 1161 1060 933
f 933 1163 1162
f 1061 1164 1163
f 1163 933 1061
f 1164 1061 934
f 934 1165 1164
f 1062 1166 1165
f 1165 934 1062
f 1166 1062 935
f 935 1167 1166
f 935 1168 1167
f 1168 935 936
f 936 1169 1168
f 1063 1170 1169
f 1169 936 1063
f 1170 1063 1064
f 1064 1171 1170
f 1065 1172 1171
f 1171 1064 1065
f 1172 1065 937
f 937 1173 1172
f 937 1174 1173
f 1174 937 938
f 938 1175 1174
f 1066 1176 1175
f 1175 938 1066
f 1066 1177 1176
f 1067 1178 1177
f 1177 1066 1067
f 1178 1067 1068
f 1068 1179 1178
f 1068 1180 1179
f 1180 1068 927
f 927 1147 1180
f 939 1181 1182
f 1181 939 1069
f 1069 1183 1181
f 1070 1184 1185
f 1185 1071 1070
f 1184 1070 939
f 939 1182 1184
f 1072 1186 1187
f 1187 940 1072
f 1186 1072 1071
f 1071 1185 1186
f 1074 1188 1189
f 1189 1073 1074
f 1188 1074 940
f 940 1187 1188
f 1075 1190 1191
f 1191 941 1075
f 1190 1075 1073
f 1073 1189 1190
f 1076 1192 1193
f 1192 1076 941
f 941 1191 1192
f 1077 1194 1195
f 1195 942 1077
f 1194 1077 1076
f 1076 1193 1194
f 1078 1196 1197
f 1196 1078 942
f 942 1195 1196
f 1232 1198 1199
f 1199 943 1232
f 1198 1232 1078
f 1078 1197 1198
f 1079 1200 1201
f 1200 1079 943
f 943 1199 1200
f 1203 1080 1202
f 1079 1201 1202
f 1080 1203 944
f 945 1204 1205
f 1204 945 944
f 1081 1206 1207
f 1207 1082 1081
f 1206 1081 945
f 945 1205 1206
f 946 1208 1209
f 1208 946 1082
f 1082 1207 1208
f 1050 1084 1083
f 946 1209 1083
f 1085 1210 1211
f 1211 1086 1085
f 1210 1085 1084
f 1084 1050 1210
f 1086 1212 1183
f 1183 1069 1086
f 1086 1211 1212
f 949 947 948
f 948 950 949
f 947 949 951
f 951 952 947
f 954 953 952
f 952 951 954
f 953 954 955
f 955 956 953
f 958 957 956
f 956 955 958
f 957 958 959
f 959 960 957
f 962 961 960
f 960 959 962
f 961 962 963
f 963 964 961
f 966 965 964
f 964 963 966
f 965 966 967
f 967 968 965
f 970 969 968
f 968 967 970
f 969 970 971
f 971 972 969
f 974 973 972
f 972 971 974
f 973 974 975
f 975 976 973
f 978 977 976
f 976 975 978
f 977 978 979
f 979 980 977
f 982 981 980
f 980 979 982
f 981 982 983
f 983 984 981
f 986 985 984
f 984 983 986
f 985 986 987
f 987 988 985
f 990 989 988
f 988 987 990
f 989 990 991
f 991 992 989
f 994 993 992
f 992 991 994
f 993 994 995
f 995 996 993
f 998 997 996
f 996 995 998
f 997 998 999
f 999 1000 997
f 1002 1001 1000
f 1000 999 1002
f 1001 1002 1003
f 1003 1004 1001
f 1006 1005 1004
f 1004 1003 1006
f 1005 1006 1007
f 1007 1008 1005
f 1010 1009 1008
f 1008 1007 1010
f 1009 1010 1011
f 1011 1012 1009
f 1014 1013 1012
f 1012 1011 1014
f 1013 1014 1015
f 1015 1016 1013
f 1018 1017 1016
f 1016 1015 1018
f 1017 1018 950
f 950 948 1017
f 1042 1044 1043
f 1044 1042 1045
f 1217 933 1060
f 1087 767 766
f 766 1088 1087
f 947 1087 1088
f 1088 948 947
f 1087 947 952
f 952 1089 1087
f 767 1087 1089
f 1089 769 767
f 1090 771 769
f 769 1089 1090
f 953 1090 1089
f 1089 952 953
f 1090 953 956
f 956 1091 1090
f 771 1090 1091
f 1091 773 771
f 1092 775 773
f 773 1091 1092
f 957 1092 1091
f 1091 956 957
f 1092 957 960
f 960 1093 1092
f 775 1092 1093
f 1093 776 775
f 1094 778 776
f 776 1093 1094
f 961 1094 1093
f 1093 960 961
f 1094 961 964
f 964 1095 1094
f 778 1094 1095
f 1095 779 778
f 1096 782 779
f 779 1095 1096
f 965 1096 1095
f 1095 964 965
f 1096 965 968
f 968 1097 1096
f 782 1096 1097
f 1097 783 782
f 1098 784 783
f 783 1097 1098
f 969 1098 1097
f 1097 968 969
f 1098 969 972
f 972 1099 1098
f 784 1098 1099
f 1099 785 784
f 1100 786 785
f 785 1099 1100
f 973 1100 1099
f 1099 972 973
f 1100 973 976
f 976 1101 1100
f 786 1100 1101
f 1101 788 786
f 1102 789 788
f 788 1101 1102
f 977 1102 1101
f 1101 976 977
f 1102 977 980
f 980 1103 1102
f 789 1102 1103
f 1103 791 789
f 1104 794 791
f 791 1103 1104
f 981 1104 1103
f 1103 980 981
f 1104 981 984
f 984 1105 1104
f 794 1104 1105
f 1105 795 794
f 1106 797 795
f 795 1105 1106
f 985 1106 1105
f 1105 984 985
f 1106 985 988
f 988 1107 1106
f 797 1106 1107
f 1107 799 797
f 1108 801 799
f 799 1107 1108
f 989 1108 1107
f 1107 988 989
f 1108 989 992
f 992 1109 1108
f 801 1108 1109
f 1109 803 801
f 1110 805 803
f 803 1109 1110
f 993 1110 1109
f 1109 992 993
f 1110 993 996
f 996 1111 1110
f 805 1110 1111
f 1111 807 805
f 1112 809 807
f 807 1111 1112
f 997 1112 1111
f 1111 996 997
f 1112 997 1000
f 1000 1113 1112
f 809 1112 1113
f 1113 811 809
f 1114 813 811
f 811 1113 1114
f 1001 1114 1113
f 1113 1000 1001
f 1114 1001 1004
f 1004 1115 1114
f 813 1114 1115
f 1115 815 813
f 1116 817 815
f 815 1115 1116
f 1005 1116 1115
f 1115 1004 1005
f 1116 1005 1008
f 1008 1117 1116
f 817 1116 1117
f 1117 819 817
f 1118 821 819
f 819 1117 1118
f 1009 1118 1117
f 1117 1008 1009
f 1118 1009 1012
f 1012 1119 1118
f 821 1118 1119
f 1119 823 821
f 1120 825 823
f 823 1119 1120
f 1013 1120 1119
f 1119 1012 1013
f 1120 1013 1016
f 1016 1121 1120
f 825 1120 1121
f 1121 827 825
f 1122 828 827
f 827 1121 1122
f 1017 1122 1121
f 1121 1016 1017
f 1122 1017 948
f 948 1088 1122
f 828 1122 1088
f 1088 766 828
f 1019 849 848
f 848 1020 1019
f 849 1019 1021
f 1021 850 849
f 1022 854 853
f 853 1023 1022
f 854 1022 1020
f 1020 848 854
f 1024 857 856
f 856 1123 1024
f 1123 1025 1024
f 857 1024 1023
f 1023 853 857
f 1124 860 859
f 859 1125 1124
f 1026 1124 1125
f 1125 1027 1026
f 1124 1026 1025
f 1025 1123 1124
f 860 1124 1123
f 1123 856 860
f 1126 864 863
f 863 1127 1126
f 1028 1126 1127
f 1127 1029 1028
f 1126 1028 1027
f 1027 1125 1126
f 864 1126 1125
f 1125 859 864
f 1128 868 867
f 867 1129 1128
f 1030 1128 1129
f 1129 1031 1030
f 1128 1030 1029
f 1029 1127 1128
f 868 1128 1127
f 1127 863 868
f 1130 872 871
f 871 1131 1130
f 1032 1130 1131
f 1131 1033 1032
f 1130 1032 1031
f 1031 1129 1130
f 872 1130 1129
f 1129 867 872
f 1132 875 874
f 874 1133 1132
f 1034 1132 1133
f 1133 1035 1034
f 1132 1034 1033
f 1033 1131 1132
f 875 1132 1131
f 1131 871 875
f 1134 879 878
f 878 1135 1134
f 1036 1134 1135
f 1135 1037 1036
f 1134 1036 1035
f 1035 1133 1134
f 879 1134 1133
f 1133 874 879
f 1136 881 880
f 880 1137 1136
f 1038 1136 1137
f 1137 1039 1038
f 1136 1038 1037
f 1037 1135 1136
f 881 1136 1135
f 1135 878 881
f 1138 884 883
f 883 1139 1138
f 1040 1138 1139
f 1139 1041 1040
f 1138 1040 1039
f 1039 1137 1138
f 884 1138 1137
f 1137 880 884
f 1140 888 887
f 887 1141 1140
f 1043 1140 1141
f 1141 1042 1043
f 1140 1043 1041
f 1041 1139 1140
f 888 1140 1139
f 1139 883 888
f 1142 892 891
f 891 1046 1142
f 1045 1142 1046
f 1142 1045 1042
f 1042 1141 1142
f 892 1142 1141
f 1141 887 892
f 1143 896 895
f 895 1144 1143
f 896 1143 1046
f 1046 891 896
f 1047 900 899
f 899 1048 1047
f 900 1047 1144
f 1144 895 900
f 1049 904 903
f 903 1145 1049
f 1145 1050 1049
f 904 1049 1048
f 1048 899 904
f 1051 906 905
f 905 1052 1051
f 1050 1145 1051
f 906 1051 1145
f 1145 903 906
f 1053 908 850
f 850 1021 1053
f 908 1053 1052
f 1052 905 908
f 1146 949 950
f 950 1147 1146
f 949 1146 1148
f 1148 951 949
f 1149 954 951
f 951 1148 1149
f 954 1149 1150
f 1150 955 954
f 1151 958 955
f 955 1150 1151
f 958 1151 1152
f 1152 959 958
f 1153 962 959
f 959 1152 1153
f 1057 963 1153
f 962 1153 963
f 1154 966 963
f 963 1057 1154
f 966 1154 1155
f 1155 967 966
f 1156 970 967
f 967 1155 1156
f 970 1156 1157
f 1157 971 970
f 1158 974 971
f 971 1157 1158
f 974 1158 1159
f 1159 975 974
f 1160 978 975
f 975 1159 1160
f 978 1160 1161
f 1161 979 978
f 1162 982 979
f 979 1161 1162
f 982 1162 1163
f 1163 983 982
f 1164 986 983
f 983 1163 1164
f 986 1164 1165
f 1165 987 986
f 1166 990 987
f 987 1165 1166
f 990 1166 1167
f 1167 991 990
f 1168 994 991
f 991 1167 1168
f 994 1168 1169
f 1169 995 994
f 1170 998 995
f 995 1169 1170
f 998 1170 1171
f 1171 999 998
f 1172 1002 999
f 999 1171 1172
f 1002 1172 1173
f 1173 1003 1002
f 1174 1006 1003
f 1003 1173 1174
f 1006 1174 1175
f 1175 1007 1006
f 1176 1010 1007
f 1007 1175 1176
f 1010 1176 1177
f 1177 1011 1010
f 1178 1014 1011
f 1011 1177 1178
f 1014 1178 1179
f 1179 1015 1014
f 1180 1018 1015
f 1015 1179 1180
f 1018 1180 1147
f 1147 950 1018
f 1181 1019 1020
f 1020 1182 1181
f 1019 1181 1183
f 1183 1021 1019
f 1184 1022 1023
f 1023 1185 1184
f 1022 1184 1182
f 1182 1020 1022
f 1186 1024 1025
f 1025 1187 1186
f 1024 1186 1185
f 1185 1023 1024
f 1188 1026 1027
f 1027 1189 1188
f 1026 1188 1187
f 1187 1025 1026
f 1190 1028 1029
f 1029 1191 1190
f 1028 1190 1189
f 1189 1027 1028
f 1192 1030 1031
f 1031 1193 1192
f 1030 1192 1191
f 1191 1029 1030
f 1194 1032 1033
f 1033 1195 1194
f 1032 1194 1193
f 1193 1031 1032
f 1196 1034 1035
f 1035 1197 1196
f 1034 1196 1195
f 1195 1033 1034
f 1198 1036 1037
f 1037 1199 1198
f 1036 1198 1197
f 1197 1035 1036
f 1200 1038 1039
f 1039 1201 1200
f 1038 1200 1199
f 1199 1037 1038
f 1202 1040 1041
f 1041 1203 1202
f 1040 1202 1201
f 1201 1039 1040
f 1203 1043 1044
f 1044 944 1203
f 1203 1041 1043
f 1204 1045 1046
f 1046 1205 1204
f 944 1044 1204
f 1045 1204 1044
f 1206 1143 1144
f 1144 1207 1206
f 1143 1206 1205
f 1205 1046 1143
f 1208 1047 1048
f 1048 1209 1208
f 1047 1208 1207
f 1207 1144 1047
f 1083 1049 1050
f 1049 1083 1209
f 1209 1048 1049
f 1210 1051 1052
f 1052 1211 1210
f 1051 1210 1050
f 1212 1053 1021
f 1021 1183 1212
f 1053 1212 1211
f 1211 1052 1053
f 1224 1054 927
f 1054 1224 1237
f 1237 928 1054
f 1213 1055 928
f 928 1237 1213
f 1213 1056 1055
f 1213 929 1056
f 1214 1057 929
f 929 1213 1214
f 1242 1154 1057
f 1057 1214 1242
f 1242 930 1154
f 1215 1058 930
f 930 1242 1215
f 1215 931 1058
f 1215 932 931
f 1216 1059 932
f 932 1215 1216
f 1216 1060 1059
f 1060 1216 1217
f 1217 1061 933
f 1061 1217 1218
f 1218 934 1061
f 1219 1062 934
f 934 1218 1219
f 1219 935 1062
f 1219 936 935
f 1220 1063 936
f 936 1219 1220
f 1220 1064 1063
f 1221 1065 1064
f 1064 1220 1221
f 1221 937 1065
f 1221 938 937
f 1222 1066 938
f 938 1221 1222
f 1223 1067 1066
f 1066 1222 1223
f 1223 1068 1067
f 1068 1223 1224
f 1224 927 1068
f 939 1225 1226
f 1226 1069 939
f 1227 1070 1071
f 1071 1228 1227
f 1070 1227 1225
f 1225 939 1070
f 1228 1072 940
f 1228 1229 1227
f 1228 1071 1072
f 1228 1074 1073
f 1073 1230 1228
f 1229 1228 1230
f 1228 940 1074
f 1230 1075 941
f 941 1231 1230
f 1230 1073 1075
f 1231 941 1076
f 1231 1077 942
f 942 1245 1231
f 1231 1076 1077
f 1078 1232 1245
f 1232 1247 1245
f 1245 942 1078
f 943 1247 1232
f 1079 1233 1247
f 1247 943 1079
f 1233 1202 1080
f 1233 1079 1202
f 1233 1080 944
f 944 1234 1233
f 1234 944 945
f 1234 1081 1082
f 1082 1235 1234
f 1235 1250 1234
f 1234 945 1081
f 1235 1082 946
f 1235 1083 1084
f 1084 1236 1235
f 1235 946 1083
f 1236 1085 1086
f 1236 1084 1085
f 1236 1086 1069
f 1069 1226 1236
f 1238 1237 1224
f 1237 1238 918
f 1224 1223 1238
f 910 1238 1223
f 1223 1222 910
f 910 918 1238
f 1239 910 1222
f 1222 1221 1239
f 910 1239 911
f 1220 1239 1221
f 1239 1220 912
f 912 911 1239
f 1220 1219 1240
f 1220 1240 912
f 913 912 1240
f 1218 1240 1219
f 1240 1218 913
f 914 1218 1217
f 914 913 1218
f 1217 1216 914
f 1241 914 1216
f 1216 1215 1241
f 914 1241 915
f 916 915 1241
f 1242 1241 1215
f 1241 1242 916
f 1242 1214 917
f 917 916 1242
f 1214 1213 1243
f 1214 1243 917
f 1237 1243 1213
f 1243 1237 918
f 918 917 1243
f 1226 1225 926
f 1225 1227 920
f 920 926 1225
f 1227 1229 920
f 1229 1230 921
f 921 920 1229
f 1230 1231 1244
f 1230 1244 921
f 922 921 1244
f 1245 1244 1231
f 1244 1245 922
f 1245 1247 1246
f 1246 922 1245
f 1246 1247 923
f 1247 1233 1248
f 1247 1248 923
f 1249 1248 1233
f 1233 1234 1249
f 1248 1249 924
f 924 923 1248
f 1250 1249 1234
f 1250 924 1249
f 1251 1250 1235
f 1235 1236 1251
f 1250 1251 925
f 926 925 1251
f 1226 1251 1236
f 1251 1226 926
