# USD → MuJoCo (world-space, simplified)
v 1.608716 7.238610 0.096820
v 1.610752 7.248378 0.098052
v 1.611632 7.247552 0.098023
v 1.610108 7.246919 0.098050
v 1.610927 7.245858 0.098028
v 1.609713 7.245687 0.098028
v 1.610462 7.244109 0.098032
v 1.609407 7.244496 0.098059
v 1.610290 7.242087 0.098037
v 1.610356 7.240815 0.098040
v 1.609274 7.240501 0.098039
v 1.609479 7.238821 0.098069
v 1.610612 7.239213 0.098045
v 1.609934 7.237656 0.098048
v 1.611098 7.237705 0.098048
v 1.611492 7.236791 0.098051
v 1.611899 7.236031 0.098053
v 1.611041 7.234993 0.098055
v 1.610301 7.236395 0.098052
v 1.612404 7.235215 0.098055
v 1.611906 7.234026 0.098058
v 1.613281 7.234097 0.098058
v 1.614565 7.232821 0.098061
v 1.614911 7.231192 0.098065
v 1.616752 7.231351 0.098065
v 1.615953 7.230533 0.098102
v 1.618643 7.230590 0.098067
v 1.617485 7.229774 0.098086
v 1.620209 7.230194 0.098068
v 1.619676 7.229130 0.098104
v 1.621836 7.230029 0.098069
v 1.622632 7.228919 0.098072
v 1.623641 7.230080 0.098069
v 1.623928 7.228959 0.098101
v 1.625497 7.229248 0.098099
v 1.626690 7.229670 0.098070
v 1.626015 7.230593 0.098068
v 1.628242 7.231576 0.098065
v 1.630067 7.232859 0.098062
v 1.631312 7.232397 0.098094
v 1.632423 7.233683 0.098071
v 1.631229 7.233999 0.098059
v 1.632234 7.235266 0.098056
v 1.633113 7.234606 0.098058
v 1.633049 7.236676 0.098053
v 1.633790 7.235674 0.098091
v 1.634866 7.238280 0.098049
v 1.633812 7.238537 0.098048
v 1.635249 7.239527 0.098074
v 1.634263 7.240927 0.098042
v 1.634251 7.243354 0.098036
v 1.635371 7.243524 0.098033
v 1.635114 7.245215 0.098054
v 1.633830 7.245349 0.098031
v 1.634641 7.246433 0.098028
v 1.633211 7.247051 0.098026
v 1.633519 7.248993 0.098048
v 1.632085 7.248976 0.098021
v 1.632692 7.250001 0.098019
v 1.630910 7.250377 0.098017
v 1.631902 7.250994 0.098050
v 1.630000 7.251211 0.098015
v 1.629742 7.252798 0.098011
v 1.628890 7.252050 0.098013
v 1.628644 7.253496 0.098044
v 1.627239 7.254252 0.098030
v 1.626927 7.253098 0.098010
v 1.625179 7.253658 0.098009
v 1.626006 7.254580 0.098006
v 1.623982 7.253890 0.098008
v 1.622379 7.254017 0.098008
v 1.621901 7.255107 0.098005
v 1.620747 7.253908 0.098008
v 1.620677 7.255031 0.098032
v 1.619165 7.253602 0.098008
v 1.618915 7.254714 0.098003
v 1.617259 7.252910 0.098010
v 1.615500 7.251911 0.098012
v 1.615163 7.253049 0.098007
v 1.614076 7.250759 0.098015
v 1.613437 7.251679 0.098043
v 1.612842 7.249417 0.098019
v 1.612190 7.250475 0.098041
v 1.615314 7.253224 0.098038
v 1.611484 7.249423 0.098018
v 1.610115 7.248892 0.093307
v 1.610930 7.248505 0.093309
v 1.610043 7.248773 0.096795
v 1.635881 7.245411 0.096806
v 1.635847 7.245505 0.079181
v 1.635843 7.245544 0.093321
v 1.635729 7.245804 0.035828
v 1.635692 7.245893 0.023323
v 1.635730 7.245777 0.026400
v 1.635419 7.246708 0.023320
v 1.635430 7.246839 0.079178
v 1.635081 7.247520 0.023319
v 1.635042 7.247757 0.079176
v 1.635027 7.247648 0.026399
v 1.635026 7.247675 0.035823
v 1.634978 7.247942 0.096799
v 1.634587 7.248723 0.096798
v 1.634488 7.248750 0.035820
v 1.634085 7.249512 0.079171
v 1.633563 7.250154 0.035817
v 1.633632 7.250183 0.079169
v 1.632837 7.249496 0.035773
v 1.633483 7.250221 0.023312
v 1.632961 7.250878 0.023309
v 1.633001 7.250982 0.079167
v 1.632625 7.251407 0.079166
v 1.632523 7.251573 0.096788
v 1.632352 7.251541 0.023309
v 1.631585 7.250967 0.021695
v 1.632259 7.251670 0.035813
v 1.631700 7.252211 0.035811
v 1.631307 7.252733 0.096792
v 1.631171 7.252821 0.093297
v 1.631172 7.252781 0.079162
v 1.630543 7.253272 0.079161
v 1.630716 7.253021 0.035809
v 1.630034 7.253498 0.035808
v 1.630035 7.253470 0.026383
v 1.629925 7.253540 0.023306
v 1.629203 7.254141 0.079159
v 1.628984 7.254094 0.023300
v 1.629067 7.254260 0.096782
v 1.628308 7.254644 0.096781
v 1.628412 7.254386 0.023301
v 1.628333 7.254430 0.025354
v 1.628293 7.254452 0.026381
v 1.628292 7.254479 0.035805
v 1.627727 7.254729 0.035805
v 1.627391 7.254990 0.079156
v 1.626592 7.255159 0.035803
v 1.626431 7.255333 0.079155
v 1.625576 7.255436 0.035803
v 1.625096 7.255669 0.079155
v 1.625449 7.255434 0.023299
v 1.624948 7.255746 0.096778
v 1.624416 7.255629 0.023297
v 1.623734 7.255714 0.023297
v 1.624122 7.255883 0.096780
v 1.623604 7.255736 0.026377
v 1.623603 7.255763 0.035802
v 1.623192 7.255795 0.035801
v 1.623258 7.255966 0.096777
v 1.623112 7.255924 0.079154
v 1.623111 7.255965 0.093290
v 1.621861 7.255953 0.079154
v 1.622002 7.255832 0.035801
v 1.620723 7.255734 0.035801
v 1.620719 7.255858 0.079154
v 1.620570 7.255892 0.096777
v 1.620594 7.255682 0.023297
v 1.619725 7.255764 0.096781
v 1.619735 7.255555 0.023297
v 1.618895 7.255579 0.096778
v 1.618885 7.255363 0.023298
v 1.618752 7.255532 0.093293
v 1.618753 7.255492 0.079155
v 1.618757 7.255367 0.035802
v 1.617653 7.255167 0.079155
v 1.617531 7.254998 0.035803
v 1.616498 7.254690 0.079156
v 1.616432 7.254534 0.035804
v 1.616362 7.254679 0.096780
v 1.616060 7.254355 0.035805
v 1.620834 7.254752 0.021679
v 1.618994 7.254415 0.021705
v 1.616061 7.254328 0.026380
v 1.615944 7.254261 0.023301
v 1.615590 7.254292 0.096784
v 1.615191 7.253851 0.023298
v 1.614865 7.253864 0.096782
v 1.614740 7.253775 0.093295
v 1.614447 7.253377 0.023303
v 1.614740 7.253736 0.079159
v 1.614339 7.253312 0.026383
v 1.614338 7.253339 0.035807
v 1.613622 7.252946 0.079161
v 1.613490 7.252713 0.035809
v 1.612844 7.252276 0.079162
v 1.612587 7.251904 0.035811
v 1.612730 7.252228 0.096785
v 1.612151 7.251467 0.035812
v 1.612130 7.251625 0.096788
v 1.612152 7.251440 0.026387
v 1.612062 7.251336 0.023308
v 1.611561 7.250994 0.096789
v 1.611637 7.250860 0.023307
v 1.611468 7.250865 0.093304
v 1.611470 7.250824 0.079166
v 1.611101 7.250352 0.079167
v 1.610955 7.249998 0.023313
v 1.610881 7.249923 0.035816
v 1.610882 7.249896 0.026391
v 1.610528 7.249539 0.079169
v 1.610419 7.249237 0.035817
v 1.610116 7.248851 0.079171
v 1.609795 7.248128 0.035820
v 1.609665 7.248049 0.096798
v 1.609466 7.247416 0.035822
v 1.609409 7.247258 0.023319
v 1.609467 7.247389 0.026397
v 1.609247 7.247048 0.079175
v 1.609311 7.247235 0.096799
v 1.609257 7.247087 0.093312
v 1.609023 7.246230 0.023320
v 1.608837 7.245622 0.023322
v 1.608797 7.245533 0.035827
v 1.608817 7.245722 0.079179
v 1.608802 7.245505 0.026404
v 1.608579 7.244753 0.079181
v 1.608536 7.244639 0.096811
v 1.608443 7.243888 0.035831
v 1.608327 7.242971 0.096809
v 1.608329 7.242693 0.035834
v 1.608322 7.242812 0.093323
v 1.608328 7.242620 0.025383
v 1.608323 7.242771 0.079186
v 1.608323 7.242527 0.023330
v 1.608330 7.242666 0.026409
v 1.608301 7.241646 0.023330
v 1.608341 7.240789 0.023334
v 1.608292 7.241594 0.079189
v 1.608347 7.240695 0.035839
v 1.608389 7.240380 0.079192
v 1.608390 7.240264 0.096823
v 1.608388 7.240421 0.093330
v 1.608580 7.244793 0.093316
v 1.612843 7.252316 0.093299
v 1.616497 7.254731 0.093293
v 1.632624 7.251448 0.093296
v 1.634084 7.249553 0.093308
v 1.634163 7.249437 0.096795
v 1.635041 7.247797 0.093312
v 1.636204 7.243778 0.096814
v 1.636210 7.243580 0.093333
v 1.636048 7.244569 0.035831
v 1.636211 7.243539 0.079186
v 1.636260 7.242976 0.035835
v 1.636308 7.242324 0.079190
v 1.636269 7.242809 0.023331
v 1.636309 7.241951 0.023332
v 1.636277 7.241149 0.079193
v 1.636286 7.241072 0.023336
v 1.636276 7.241189 0.093329
v 1.636278 7.240977 0.035840
v 1.636266 7.241052 0.096816
v 1.636210 7.240179 0.035842
v 1.636184 7.240184 0.096820
v 1.636046 7.239363 0.096821
v 1.636021 7.239167 0.079198
v 1.636018 7.239208 0.093329
v 1.636046 7.239152 0.035845
v 1.635810 7.238137 0.035848
v 1.635669 7.237780 0.079201
v 1.635772 7.237977 0.023344
v 1.635512 7.237143 0.023345
v 1.635342 7.236873 0.079203
v 1.635341 7.236914 0.093341
v 1.635286 7.236786 0.096827
v 1.635141 7.236254 0.035852
v 1.635194 7.236338 0.023348
v 1.635142 7.236227 0.026429
v 1.634812 7.235542 0.035854
v 1.634933 7.235974 0.096831
v 1.634484 7.235068 0.079208
v 1.634554 7.235249 0.096831
v 1.634482 7.235109 0.093345
v 1.634183 7.234425 0.035857
v 1.634072 7.234381 0.079210
v 1.633727 7.233747 0.035859
v 1.633728 7.233720 0.026436
v 1.633653 7.233598 0.023357
v 1.633499 7.233567 0.079212
v 1.633130 7.233096 0.079213
v 1.633129 7.233136 0.093350
v 1.632592 7.232298 0.023350
v 1.633036 7.233027 0.096836
v 1.632468 7.232396 0.096838
v 1.632457 7.232176 0.026442
v 1.632457 7.232203 0.035863
v 1.631868 7.231794 0.096839
v 1.632020 7.231766 0.035864
v 1.631756 7.231644 0.079217
v 1.631755 7.231685 0.093355
v 1.631108 7.230949 0.035866
v 1.630981 7.230976 0.079218
v 1.630269 7.230332 0.035867
v 1.629860 7.230184 0.079220
v 1.630270 7.230305 0.026441
v 1.630162 7.230222 0.023363
v 1.629732 7.230157 0.096844
v 1.629858 7.230227 0.093357
v 1.629417 7.229747 0.023361
v 1.628999 7.229724 0.096848
v 1.628665 7.229338 0.023365
v 1.628547 7.229315 0.035870
v 1.628548 7.229288 0.026445
v 1.628235 7.229342 0.096846
v 1.628175 7.229137 0.035870
v 1.628101 7.229270 0.093359
v 1.628102 7.229230 0.079222
v 1.627082 7.228674 0.035871
v 1.626943 7.228751 0.079224
v 1.625851 7.228303 0.035872
v 1.625847 7.228428 0.079224
v 1.625846 7.228469 0.093361
v 1.625725 7.228235 0.023368
v 1.625702 7.228442 0.096848
v 1.624874 7.228044 0.023368
v 1.624872 7.228258 0.096851
v 1.624016 7.227916 0.023369
v 1.624027 7.228129 0.096849
v 1.623881 7.228061 0.079225
v 1.623885 7.227937 0.035873
v 1.622612 7.227839 0.035873
v 1.622743 7.227968 0.079225
v 1.621488 7.227995 0.079225
v 1.621415 7.227875 0.035873
v 1.621339 7.228055 0.096849
v 1.623880 7.228102 0.093362
v 1.621487 7.228036 0.093362
v 1.621004 7.227908 0.035873
v 1.620488 7.228137 0.096851
v 1.620875 7.227884 0.023368
v 1.620035 7.227993 0.023365
v 1.619649 7.228275 0.096848
v 1.619504 7.228294 0.093361
v 1.619504 7.228251 0.079224
v 1.619160 7.228168 0.023368
v 1.619031 7.228235 0.035872
v 1.619032 7.228208 0.026447
v 1.618018 7.228511 0.035871
v 1.618176 7.228585 0.079223
v 1.617209 7.228930 0.079222
v 1.616880 7.228941 0.035870
v 1.617066 7.229032 0.096845
v 1.617208 7.228970 0.093359
v 1.616315 7.229191 0.035869
v 1.616095 7.229469 0.096846
v 1.616316 7.229164 0.026445
v 1.616194 7.229209 0.023365
v 1.615530 7.229766 0.096844
v 1.615401 7.229828 0.093357
v 1.615402 7.229787 0.079220
v 1.615233 7.229725 0.023363
v 1.614888 7.230095 0.079219
v 1.614573 7.230173 0.035866
v 1.614684 7.230065 0.023362
v 1.613900 7.230642 0.035865
v 1.614057 7.230649 0.079218
v 1.613428 7.231139 0.079216
v 1.613255 7.231161 0.035864
v 1.613312 7.231285 0.096840
v 1.613426 7.231180 0.093351
v 1.612700 7.231821 0.096840
v 1.612343 7.231992 0.035862
v 1.612074 7.232455 0.096837
v 1.612257 7.232058 0.023357
v 1.611975 7.232513 0.079213
v 1.611654 7.232714 0.023354
v 1.611469 7.233089 0.079211
v 1.611126 7.233377 0.023354
v 1.611044 7.233517 0.035858
v 1.611739 7.234082 0.026434
v 1.611974 7.232553 0.093351
v 1.610507 7.234401 0.079208
v 1.610514 7.234449 0.093344
v 1.610120 7.234919 0.035854
v 1.610434 7.234584 0.096831
v 1.610010 7.235300 0.096831
v 1.609619 7.236079 0.096827
v 1.609581 7.235995 0.035851
v 1.609557 7.236204 0.093340
v 1.609558 7.236163 0.079203
v 1.609528 7.236079 0.023347
v 1.609190 7.236890 0.023343
v 1.609106 7.237247 0.079200
v 1.608876 7.237866 0.035846
v 1.608917 7.237705 0.023342
v 1.609782 7.238235 0.035773
v 1.608756 7.238416 0.079197
v 1.608755 7.238457 0.093327
v 1.608531 7.239270 0.035843
v 1.609582 7.235969 0.026427
v 1.612349 7.231973 0.026438
v 1.615095 7.230925 0.021752
v 1.621005 7.227880 0.026448
v 1.623772 7.228857 0.021751
v 1.625851 7.228276 0.026448
v 1.636279 7.240950 0.026416
v 1.636259 7.242949 0.026414
v 1.634790 7.245452 0.035829
v 1.635319 7.242998 0.035835
v 1.634763 7.245522 0.021700
v 1.635256 7.242938 0.026410
v 1.635102 7.244185 0.021695
v 1.610964 7.248182 0.021683
v 1.611877 7.244951 0.021692
v 1.609468 7.243952 0.021694
v 1.609315 7.242462 0.021697
v 1.609290 7.240728 0.021728
v 1.612776 7.250654 0.021675
v 1.615580 7.250219 0.021741
v 1.613836 7.251673 0.021675
v 1.615009 7.252561 0.021670
v 1.620611 7.252594 0.021711
v 1.616383 7.253467 0.021675
v 1.622174 7.254801 0.021667
v 1.627605 7.252134 0.021669
v 1.626631 7.254062 0.021669
v 1.627985 7.253485 0.021670
v 1.631702 7.248594 0.021684
v 1.634177 7.247101 0.021686
v 1.635276 7.242725 0.021699
v 1.635295 7.241127 0.021702
v 1.635148 7.239667 0.021707
v 1.632313 7.236002 0.021716
v 1.633630 7.235381 0.021718
v 1.631841 7.232830 0.021731
v 1.628529 7.230378 0.021714
v 1.626909 7.229629 0.021732
v 1.627504 7.231319 0.021728
v 1.622402 7.228789 0.021734
v 1.620327 7.230299 0.021730
v 1.620746 7.228877 0.021718
v 1.617949 7.229538 0.021732
v 1.614225 7.233424 0.021870
v 1.612414 7.235636 0.021782
v 1.612939 7.232658 0.021736
v 1.611096 7.235178 0.021717
v 1.609772 7.238001 0.021722
v 1.611701 7.249313 0.021701
v 1.611655 7.249287 0.035817
v 1.610968 7.248222 0.035820
v 1.610412 7.247084 0.035823
v 1.610355 7.246942 0.021686
v 1.609747 7.245172 0.026399
v 1.609801 7.245351 0.021691
v 1.609332 7.242703 0.035834
v 1.609672 7.245188 0.035828
v 1.609333 7.242676 0.026410
v 1.609286 7.240669 0.035839
v 1.610521 7.236320 0.026426
v 1.610438 7.236489 0.021713
v 1.610520 7.236348 0.035850
v 1.611747 7.234139 0.035856
v 1.611929 7.233968 0.021720
v 1.615049 7.231023 0.035864
v 1.613125 7.232620 0.035848
v 1.616734 7.230053 0.021742
v 1.616808 7.230064 0.035867
v 1.619195 7.229223 0.035869
v 1.618000 7.229563 0.035868
v 1.619196 7.229196 0.026445
v 1.621169 7.228869 0.026446
v 1.621169 7.228896 0.035870
v 1.623698 7.228851 0.035870
v 1.625591 7.229224 0.021745
v 1.628043 7.230165 0.035867
v 1.625677 7.229262 0.035870
v 1.628038 7.230151 0.026441
v 1.629760 7.231167 0.026442
v 1.629759 7.231194 0.035865
v 1.631666 7.232741 0.035849
v 1.632918 7.234268 0.021722
v 1.632952 7.234384 0.035857
v 1.634196 7.236587 0.035851
v 1.633654 7.235472 0.035854
v 1.634283 7.236728 0.021713
v 1.634197 7.236560 0.026428
v 1.634896 7.238351 0.021744
v 1.634861 7.238472 0.035847
v 1.635275 7.240967 0.035840
v 1.635143 7.239709 0.035844
v 1.635276 7.240940 0.026409
v 1.612926 7.250803 0.026389
v 1.614849 7.252449 0.026385
v 1.614848 7.252476 0.035809
v 1.612884 7.250886 0.035813
v 1.616571 7.253466 0.026382
v 1.618894 7.254441 0.035805
v 1.616570 7.253493 0.035807
v 1.623640 7.254715 0.021668
v 1.623440 7.254747 0.026380
v 1.623439 7.254779 0.035804
v 1.620906 7.254795 0.035804
v 1.625304 7.254447 0.021668
v 1.627801 7.253579 0.026383
v 1.627803 7.253678 0.035807
v 1.625430 7.254493 0.035765
v 1.629507 7.252705 0.021685
v 1.631498 7.251019 0.035814
v 1.629589 7.252676 0.035810
v 1.632782 7.249648 0.021688
v 1.634088 7.247296 0.026400
v 1.634137 7.247379 0.035824
v 1.619538 7.230475 0.022242
v 1.626665 7.230947 0.022527
v 1.633742 7.240063 0.021706
v 1.633662 7.239550 0.022952
v 1.633605 7.244233 0.021695
v 1.633656 7.244021 0.023111
v 1.631849 7.248378 0.023283
v 1.628963 7.251194 0.023440
v 1.626240 7.252659 0.023554
v 1.622236 7.253382 0.023705
v 1.620274 7.253378 0.021897
v 1.618787 7.252759 0.023851
v 1.614256 7.250186 0.022171
v 1.611735 7.246342 0.024247
v 1.614008 7.250113 0.024063
v 1.611004 7.244163 0.024346
v 1.610796 7.242885 0.022515
v 1.615034 7.232792 0.022985
v 1.612466 7.235778 0.024703
v 1.615713 7.232217 0.024908
v 1.620111 7.230468 0.025088
v 1.623798 7.230371 0.023350
v 1.624139 7.230420 0.025251
v 1.627671 7.231567 0.025398
v 1.630215 7.233375 0.023621
v 1.631415 7.234632 0.025571
v 1.633144 7.237458 0.023809
v 1.633473 7.238784 0.025749
v 1.633811 7.243539 0.024036
v 1.633694 7.243824 0.025932
v 1.632257 7.247639 0.024192
v 1.632324 7.247497 0.026073
v 1.629578 7.250890 0.026243
v 1.625040 7.252993 0.026425
v 1.621183 7.253357 0.026577
v 1.620804 7.253359 0.024704
v 1.617042 7.252082 0.026755
v 1.613941 7.249758 0.026905
v 1.611212 7.245387 0.027120
v 1.610750 7.242046 0.025378
v 1.611321 7.238263 0.025530
v 1.610951 7.239603 0.027363
v 1.613681 7.234124 0.027619
v 1.618314 7.230783 0.027850
v 1.616959 7.231512 0.025905
v 1.622879 7.230185 0.026140
v 1.627380 7.231484 0.028213
v 1.624442 7.230458 0.028090
v 1.630715 7.233845 0.028359
v 1.632880 7.237188 0.028510
v 1.633526 7.238996 0.026698
v 1.633775 7.240466 0.028641
v 1.633449 7.244893 0.028797
v 1.631076 7.249449 0.028988
v 1.631371 7.249031 0.027082
v 1.627942 7.251865 0.027253
v 1.625105 7.253006 0.029247
v 1.621710 7.253325 0.029382
v 1.616913 7.252148 0.029586
v 1.617699 7.252472 0.027666
v 1.613605 7.249424 0.027861
v 1.612903 7.248578 0.029795
v 1.610783 7.242105 0.028203
v 1.611048 7.244496 0.029988
v 1.610899 7.240150 0.030167
v 1.614979 7.232916 0.028634
v 1.618258 7.231005 0.030673
v 1.618948 7.230721 0.028812
v 1.626061 7.230880 0.030986
v 1.629900 7.233116 0.029265
v 1.630164 7.233292 0.031164
v 1.632327 7.236114 0.029404
v 1.632732 7.236884 0.031324
v 1.633820 7.240345 0.029578
v 1.633929 7.241562 0.031510
v 1.633399 7.244967 0.029741
v 1.631709 7.248531 0.031773
v 1.631853 7.248337 0.029876
v 1.633168 7.245654 0.031655
v 1.628760 7.251418 0.031933
v 1.623629 7.253426 0.030248
v 1.623768 7.253358 0.032127
v 1.618409 7.252748 0.032349
v 1.618181 7.252578 0.030474
v 1.613248 7.249184 0.030706
v 1.614503 7.250354 0.032528
v 1.611261 7.245719 0.032762
v 1.610944 7.239775 0.031123
v 1.612150 7.236227 0.031275
v 1.610873 7.240369 0.032988
v 1.611958 7.236601 0.033145
v 1.618848 7.230808 0.033524
v 1.624251 7.230331 0.031850
v 1.622429 7.230298 0.033664
v 1.630995 7.234247 0.034032
v 1.633150 7.237826 0.034190
v 1.633881 7.241936 0.034349
v 1.633757 7.244075 0.032536
v 1.632766 7.246887 0.034526
v 1.630598 7.249979 0.032783
v 1.627069 7.252329 0.034830
v 1.623304 7.253341 0.034975
v 1.622547 7.253344 0.033117
v 1.619434 7.253021 0.035132
v 1.615726 7.251333 0.035297
v 1.613533 7.249454 0.033520
v 1.613124 7.248797 0.035437
v 1.611690 7.246284 0.033674
v 1.610784 7.243027 0.033821
v 1.611063 7.239319 0.035855
v 1.612148 7.236345 0.035850
v 1.614581 7.233232 0.035859
v 1.619935 7.230531 0.034504
v 1.618335 7.230972 0.035865
v 1.623717 7.230299 0.035867
v 1.628245 7.231894 0.034845
v 1.629521 7.232743 0.035861
v 1.632747 7.236524 0.035079
v 1.633310 7.237893 0.035847
v 1.632625 7.247259 0.035623
v 1.630627 7.250015 0.035612
v 1.628589 7.251567 0.035798
v 1.614503 7.233055 0.034271
v 1.611288 7.238338 0.034010
v 1.618206 7.252713 0.033298
v 1.633137 7.237716 0.032299
v 1.630359 7.233406 0.032108
v 1.618260 7.230966 0.031613
v 1.614898 7.232984 0.031458
v 1.610843 7.243654 0.030966
v 1.628899 7.251302 0.030039
v 1.625342 7.230580 0.029068
v 1.611703 7.236997 0.028409
v 1.611432 7.245726 0.028044
v 1.623501 7.253350 0.027424
v 1.633731 7.244032 0.026881
v 1.627278 7.231426 0.026324
v 1.613082 7.234794 0.025693
v 1.615627 7.251223 0.024933
v 1.627076 7.231291 0.023487
v 1.619977 7.230483 0.023200
v 1.611471 7.237393 0.022736
v 1.611636 7.246199 0.022368
v 1.610821 7.243676 0.035681
v 1.611873 7.246686 0.035539
v 1.618342 7.252003 0.035188
v 1.629880 7.250529 0.034705
v 1.627582 7.251161 0.034796
v 1.627289 7.231340 0.033864
v 1.615050 7.232807 0.033355
v 1.612153 7.245878 0.032742
v 1.623679 7.252669 0.032129
v 1.615369 7.232608 0.030542
v 1.612363 7.235816 0.030353
v 1.627696 7.251983 0.029150
v 1.633150 7.242353 0.028710
v 1.628826 7.233190 0.028294
v 1.612063 7.236546 0.027494
v 1.611774 7.244304 0.027162
v 1.614830 7.249710 0.026882
v 1.631076 7.248097 0.026120
v 1.629713 7.233783 0.025506
v 1.610905 7.239603 0.024534
v 1.631655 7.234939 0.022758
v 1.624225 7.231096 0.022430
v 1.612065 7.238096 0.021728
v 1.618101 7.231830 0.022171
v 1.630020 7.234169 0.022697
v 1.632842 7.239351 0.022937
v 1.632008 7.246391 0.023213
v 1.629499 7.249872 0.023393
v 1.625707 7.251976 0.023565
v 1.620208 7.252529 0.023796
v 1.614112 7.248915 0.024098
v 1.611965 7.244701 0.024314
v 1.611690 7.239063 0.024562
v 1.616525 7.232503 0.024929
v 1.623466 7.231035 0.025225
v 1.632931 7.239699 0.025778
v 1.632756 7.244293 0.025956
v 1.627645 7.251151 0.026312
v 1.622722 7.252608 0.026892
v 1.619344 7.252130 0.026664
v 1.611781 7.239579 0.027369
v 1.613533 7.235522 0.027566
v 1.618951 7.231354 0.027863
v 1.624883 7.231398 0.028115
v 1.631972 7.237055 0.028489
v 1.630874 7.248507 0.028965
v 1.626575 7.251684 0.029186
v 1.621940 7.252619 0.029375
v 1.615371 7.250316 0.029678
v 1.611816 7.244438 0.029983
v 1.612007 7.238275 0.030252
v 1.615529 7.233421 0.030525
v 1.622539 7.230304 0.030840
v 1.624536 7.231103 0.030925
v 1.629990 7.234273 0.031180
v 1.632224 7.237676 0.031344
v 1.633133 7.243652 0.031584
v 1.629693 7.249719 0.031863
v 1.616756 7.251146 0.032441
v 1.611697 7.239982 0.033007
v 1.612827 7.236807 0.033154
v 1.615124 7.233771 0.033329
v 1.620023 7.231239 0.033560
v 1.625658 7.231565 0.033803
v 1.630392 7.234619 0.034026
v 1.632944 7.239856 0.034266
v 1.632796 7.244086 0.034429
v 1.631003 7.248318 0.034610
v 1.624284 7.252419 0.034931
v 1.613020 7.247383 0.035491
v 1.610668 7.238838 0.035844
v 1.610382 7.240433 0.035840
v 1.610301 7.241597 0.035837
v 1.610352 7.243007 0.035833
v 1.610707 7.244995 0.035828
v 1.611958 7.245170 0.035828
v 1.611580 7.247261 0.035822
v 1.612773 7.249143 0.035818
v 1.615432 7.250195 0.035815
v 1.613995 7.250498 0.035814
v 1.615402 7.251660 0.035811
v 1.617153 7.252679 0.035809
v 1.619264 7.252121 0.035810
v 1.619053 7.253391 0.035807
v 1.620643 7.253714 0.035807
v 1.623184 7.252587 0.035810
v 1.622460 7.253844 0.035806
v 1.624290 7.253664 0.035807
v 1.625857 7.253301 0.035808
v 1.627380 7.252704 0.035810
v 1.628791 7.251938 0.035812
v 1.629952 7.251077 0.035814
v 1.630980 7.250138 0.035817
v 1.632483 7.248235 0.035822
v 1.611129 7.237459 0.035848
v 1.611543 7.236518 0.035850
v 1.611904 7.235852 0.035852
v 1.612473 7.234944 0.035854
v 1.613352 7.233843 0.035857
v 1.614510 7.232701 0.035860
v 1.616162 7.231519 0.035863
v 1.617608 7.230797 0.035865
v 1.618752 7.230378 0.035866
v 1.620329 7.229995 0.035867
v 1.621933 7.229846 0.035868
v 1.623767 7.229915 0.035868
v 1.626142 7.230454 0.035867
v 1.628357 7.231460 0.035864
v 1.630166 7.232759 0.035861
v 1.631580 7.234208 0.035857
v 1.632732 7.235875 0.035853
v 1.633585 7.237708 0.035849
v 1.634028 7.239257 0.035845
v 1.634279 7.240869 0.035841
v 1.634241 7.243302 0.035834
v 1.633628 7.245862 0.035828
v 1.629099 7.233474 0.023595
v 1.630901 7.248232 0.024241
v 1.628390 7.251819 0.024413
v 1.612059 7.247371 0.025141
v 1.615299 7.233611 0.025796
v 1.619229 7.231496 0.025985
v 1.629602 7.233643 0.026440
v 1.630923 7.233931 0.026480
v 1.616680 7.251087 0.027731
v 1.633159 7.240621 0.029586
v 1.618738 7.252024 0.030461
v 1.611453 7.240837 0.031084
v 1.626461 7.252608 0.032968
v 1.620119 7.252538 0.033223
v 1.614945 7.249673 0.033476
v 1.611975 7.245234 0.033713
v 1.623938 7.231197 0.034668
v 1.623873 7.230389 0.034662
v 1.633737 7.243804 0.035520
v 1.627068 7.251451 0.035762
v 1.631231 7.248112 0.035537
v 1.633104 7.242093 0.035296
v 1.631822 7.236637 0.035065
v 1.628116 7.232754 0.034857
v 1.618568 7.231635 0.034442
v 1.614091 7.234858 0.034197
v 1.611818 7.239200 0.033981
v 1.627137 7.251538 0.032931
v 1.631079 7.248063 0.032712
v 1.633121 7.242938 0.032499
v 1.632420 7.238260 0.032309
v 1.630360 7.234593 0.032138
v 1.626107 7.231749 0.031938
v 1.621299 7.231072 0.031726
v 1.615995 7.233013 0.031494
v 1.613128 7.236270 0.031294
v 1.612750 7.246868 0.030803
v 1.624497 7.252428 0.030210
v 1.629205 7.250090 0.030002
v 1.631990 7.246548 0.029815
v 1.631317 7.236014 0.029379
v 1.628169 7.232659 0.029203
v 1.622757 7.231057 0.028962
v 1.618101 7.231879 0.028766
v 1.614169 7.234736 0.028549
v 1.611485 7.240294 0.028279
v 1.612679 7.246747 0.027982
v 1.626920 7.251688 0.027286
v 1.631418 7.247582 0.027034
v 1.632875 7.243739 0.026875
v 1.632847 7.239449 0.026709
v 1.623678 7.231118 0.026175
v 1.612258 7.237785 0.025560
v 1.611557 7.242232 0.025369
v 1.612680 7.246740 0.025155
v 1.615652 7.250244 0.024957
v 1.621176 7.252709 0.024693
v 1.627814 7.251092 0.024418
v 1.632729 7.244556 0.023743
v 1.632713 7.238325 0.023836
v 1.625281 7.231431 0.023418
v 1.620225 7.231206 0.023199
v 1.613455 7.235523 0.022580
v 1.611409 7.241924 0.022556
v 1.612955 7.247094 0.022308
v 1.609642 7.238622 0.093331
v 1.610433 7.236466 0.098052
v 1.610350 7.236635 0.093339
v 1.610305 7.236585 0.079202
v 1.609643 7.238582 0.079197
v 1.611198 7.235063 0.098055
v 1.611307 7.234880 0.093346
v 1.612729 7.233075 0.098060
v 1.612594 7.233208 0.093348
v 1.612592 7.233164 0.079211
v 1.611285 7.234824 0.079207
v 1.613932 7.231891 0.098119
v 1.615788 7.230642 0.093355
v 1.615773 7.230580 0.079218
v 1.614045 7.231791 0.079215
v 1.619601 7.229106 0.079222
v 1.617596 7.229744 0.079220
v 1.621396 7.228917 0.098103
v 1.621603 7.228930 0.093359
v 1.623714 7.228989 0.093359
v 1.623710 7.228901 0.079223
v 1.621605 7.228889 0.079223
v 1.625680 7.229355 0.093359
v 1.627866 7.230137 0.098104
v 1.627669 7.230062 0.093357
v 1.627673 7.230017 0.079220
v 1.625689 7.229289 0.079222
v 1.629367 7.230941 0.098090
v 1.631124 7.232338 0.098051
v 1.631129 7.232225 0.079215
v 1.629427 7.230978 0.079218
v 1.633667 7.235496 0.093344
v 1.633690 7.235439 0.079207
v 1.632478 7.233712 0.079211
v 1.634548 7.237078 0.098073
v 1.634526 7.237301 0.093339
v 1.635123 7.239325 0.093334
v 1.635166 7.239264 0.079197
v 1.634527 7.237260 0.079202
v 1.635391 7.241220 0.098052
v 1.635324 7.243374 0.079187
v 1.635428 7.241267 0.079192
v 1.634956 7.245379 0.093320
v 1.634164 7.247562 0.098025
v 1.634248 7.247366 0.093313
v 1.634249 7.247326 0.079177
v 1.635000 7.245354 0.079182
v 1.633291 7.249121 0.093309
v 1.632004 7.250793 0.093304
v 1.632008 7.250756 0.079168
v 1.633315 7.249096 0.079172
v 1.630768 7.252115 0.098036
v 1.630551 7.252166 0.093300
v 1.628831 7.253405 0.093309
v 1.628842 7.253353 0.079161
v 1.630552 7.252126 0.079164
v 1.627531 7.254990 0.096779
v 1.627050 7.254315 0.093281
v 1.624782 7.254893 0.098041
v 1.624996 7.254953 0.093293
v 1.624987 7.254798 0.079157
v 1.627006 7.254180 0.079158
v 1.623098 7.255113 0.098049
v 1.620857 7.255153 0.093293
v 1.620882 7.255000 0.079156
v 1.622996 7.255035 0.079156
v 1.619094 7.254816 0.098028
v 1.616871 7.253926 0.097961
v 1.616930 7.253898 0.079158
v 1.618897 7.254646 0.079157
v 1.613497 7.251659 0.079164
v 1.615158 7.252965 0.079161
v 1.612124 7.250245 0.093306
v 1.610898 7.248496 0.079172
v 1.612125 7.250205 0.079168
v 1.610072 7.246700 0.093315
v 1.609475 7.244677 0.093318
v 1.609450 7.244645 0.079182
v 1.610069 7.246662 0.079176
v 1.609122 7.242926 0.098058
v 1.609164 7.242731 0.098033
v 1.609276 7.240546 0.079192
v 1.609172 7.242653 0.079187
f 1 12 229
f 3 2 4
f 6 5 4
f 4 5 3
f 5 6 7
f 7 6 8
f 7 8 904
f 7 904 9
f 9 904 905
f 9 905 10
f 10 905 11
f 10 11 13
f 13 11 12
f 13 12 14
f 13 14 15
f 15 14 16
f 16 14 826
f 16 826 18
f 16 18 17
f 17 18 830
f 826 19 18
f 21 20 830
f 830 20 17
f 20 21 22
f 22 21 832
f 22 832 23
f 23 832 836
f 23 836 24
f 23 24 25
f 25 24 26
f 25 26 28
f 25 28 27
f 27 28 29
f 29 28 30
f 29 30 842
f 29 842 31
f 31 842 32
f 31 32 33
f 33 32 34
f 33 34 35
f 36 37 35
f 35 37 33
f 37 36 38
f 38 36 848
f 38 848 852
f 38 852 39
f 39 852 853
f 39 853 40
f 39 40 42
f 42 40 41
f 42 41 44
f 42 44 43
f 43 44 46
f 43 46 45
f 45 46 859
f 47 48 859
f 859 48 45
f 48 47 49
f 48 49 50
f 50 49 864
f 50 864 52
f 50 52 51
f 51 52 53
f 51 53 54
f 54 53 55
f 54 55 56
f 56 55 868
f 56 868 57
f 59 58 57
f 57 58 56
f 58 59 60
f 60 59 61
f 60 61 876
f 60 876 62
f 62 876 63
f 62 63 64
f 64 63 65
f 64 65 67
f 67 65 66
f 67 66 69
f 67 69 68
f 68 69 883
f 68 883 70
f 70 883 887
f 70 887 71
f 71 887 72
f 71 72 73
f 73 72 74
f 73 74 891
f 73 891 75
f 76 75 891
f 75 76 77
f 77 76 892
f 77 892 84
f 77 84 78
f 78 84 79
f 78 79 80
f 80 79 81
f 80 81 83
f 80 83 82
f 82 83 85
f 82 85 3
f 3 85 2
f 86 88 87
f 87 88 2
f 240 89 238
f 89 240 90
f 89 90 91
f 90 240 92
f 90 92 96
f 96 92 93
f 96 93 95
f 92 94 93
f 96 95 97
f 96 97 98
f 99 100 97
f 97 100 98
f 103 101 100
f 101 103 102
f 102 103 236
f 236 103 104
f 104 103 106
f 106 103 105
f 106 105 108
f 106 108 109
f 107 108 105
f 106 109 110
f 110 109 111
f 111 109 113
f 111 113 112
f 114 115 113
f 113 115 112
f 115 116 112
f 112 116 117
f 117 116 118
f 118 116 119
f 116 121 119
f 119 121 120
f 120 121 122
f 120 122 125
f 125 122 123
f 125 123 124
f 125 124 126
f 125 126 127
f 127 126 129
f 127 129 128
f 128 129 130
f 130 131 128
f 128 131 132
f 128 132 881
f 881 132 133
f 881 133 134
f 134 133 135
f 134 135 136
f 136 135 137
f 136 137 138
f 138 137 139
f 494 139 137
f 138 139 140
f 140 139 141
f 140 141 143
f 143 141 142
f 144 145 142
f 142 145 143
f 143 145 147
f 147 145 146
f 147 146 148
f 147 148 149
f 146 151 148
f 148 151 150
f 150 151 152
f 150 152 153
f 153 152 155
f 153 155 154
f 154 155 157
f 154 157 156
f 156 157 158
f 158 157 159
f 158 159 160
f 160 159 161
f 161 159 162
f 161 162 163
f 163 162 164
f 163 164 165
f 165 164 166
f 165 166 167
f 167 166 168
f 167 168 173
f 173 168 172
f 152 169 155
f 159 170 162
f 168 171 172
f 173 172 174
f 173 174 175
f 175 174 178
f 175 178 176
f 174 177 178
f 179 180 177
f 177 180 178
f 178 180 181
f 181 180 182
f 181 182 183
f 183 182 184
f 183 184 185
f 185 184 186
f 185 186 187
f 187 186 188
f 187 188 189
f 187 189 190
f 190 189 191
f 190 191 192
f 192 191 193
f 193 191 195
f 193 195 194
f 194 195 196
f 196 195 197
f 194 196 198
f 198 196 199
f 198 199 200
f 200 199 201
f 200 201 88
f 88 201 202
f 202 201 203
f 202 203 207
f 207 203 204
f 203 205 204
f 209 206 204
f 204 206 207
f 207 206 208
f 206 209 212
f 212 209 210
f 213 211 210
f 210 211 212
f 212 211 214
f 214 211 216
f 214 216 215
f 215 216 217
f 217 216 218
f 217 218 219
f 219 218 220
f 219 220 221
f 221 220 222
f 218 223 220
f 221 222 226
f 226 222 224
f 226 224 225
f 226 225 227
f 227 225 405
f 226 227 228
f 228 227 387
f 228 387 229
f 228 229 230
f 215 231 214
f 200 88 86
f 183 185 232
f 167 233 165
f 154 888 153
f 140 884 138
f 882 881 134
f 127 878 125
f 112 234 111
f 235 236 104
f 237 98 101
f 101 98 100
f 52 238 53
f 53 238 89
f 52 239 238
f 240 238 241
f 241 238 239
f 240 241 242
f 242 241 243
f 242 243 244
f 244 243 245
f 245 243 247
f 247 243 246
f 247 246 394
f 394 246 248
f 394 248 249
f 249 248 250
f 249 250 251
f 251 250 252
f 251 252 256
f 256 252 253
f 256 253 254
f 254 253 255
f 256 254 257
f 257 254 258
f 257 258 259
f 259 258 260
f 260 258 261
f 260 261 262
f 262 263 260
f 260 263 265
f 265 263 264
f 265 264 266
f 263 268 264
f 264 268 267
f 267 268 270
f 267 270 269
f 269 270 271
f 267 269 272
f 272 269 273
f 272 273 274
f 274 273 277
f 274 277 275
f 275 277 276
f 276 277 278
f 276 278 280
f 280 278 279
f 279 281 280
f 280 281 282
f 280 282 283
f 283 282 284
f 284 282 285
f 284 285 286
f 286 285 287
f 287 285 288
f 286 287 289
f 289 287 290
f 289 290 291
f 291 290 292
f 291 292 293
f 293 292 294
f 294 292 297
f 297 292 295
f 292 296 295
f 297 295 298
f 297 298 299
f 299 298 300
f 299 300 301
f 298 302 300
f 300 302 303
f 304 305 302
f 302 305 303
f 303 305 306
f 306 305 307
f 306 307 308
f 308 307 309
f 308 309 311
f 311 309 310
f 311 310 312
f 311 312 313
f 313 312 314
f 313 314 316
f 313 316 315
f 315 316 317
f 315 317 318
f 318 317 320
f 318 320 319
f 319 320 321
f 319 321 322
f 322 321 323
f 316 324 317
f 321 325 323
f 322 323 326
f 326 323 327
f 326 327 328
f 328 327 329
f 329 327 330
f 331 332 330
f 330 332 329
f 329 332 333
f 333 332 334
f 333 334 335
f 332 337 334
f 334 337 336
f 336 337 338
f 336 338 339
f 339 338 340
f 341 340 338
f 339 340 342
f 342 340 343
f 342 343 344
f 344 343 345
f 345 343 346
f 345 346 349
f 347 348 346
f 346 348 349
f 349 348 350
f 354 351 350
f 350 351 352
f 351 354 353
f 353 354 355
f 353 355 356
f 356 355 357
f 356 357 359
f 355 358 357
f 356 359 360
f 360 359 361
f 360 361 362
f 362 361 363
f 362 363 364
f 364 363 365
f 364 365 366
f 366 365 367
f 366 367 368
f 363 361 369
f 365 370 367
f 367 370 372
f 372 370 373
f 373 370 371
f 372 373 374
f 372 374 375
f 372 375 376
f 376 375 377
f 377 378 376
f 381 379 378
f 379 381 380
f 380 381 383
f 383 381 382
f 383 382 384
f 382 381 385
f 382 385 386
f 382 386 387
f 387 386 1
f 387 1 229
f 388 376 379
f 379 376 378
f 360 362 389
f 390 352 351
f 352 349 350
f 328 391 326
f 318 392 315
f 311 393 308
f 259 475 257
f 244 395 242
f 92 240 396
f 396 240 397
f 397 240 242
f 398 94 396
f 396 94 92
f 418 400 399
f 399 400 397
f 397 400 396
f 396 400 398
f 401 402 440
f 440 402 442
f 442 402 403
f 403 402 404
f 404 402 405
f 405 402 666
f 405 666 435
f 402 401 436
f 402 436 407
f 407 436 406
f 407 406 408
f 407 408 409
f 407 409 410
f 410 409 411
f 410 411 170
f 410 170 169
f 410 169 412
f 410 412 487
f 410 487 491
f 410 491 413
f 491 414 413
f 413 414 415
f 413 415 495
f 413 495 416
f 416 495 114
f 416 114 498
f 416 498 417
f 416 417 505
f 505 417 398
f 505 398 400
f 505 400 418
f 505 418 503
f 503 418 419
f 503 419 420
f 503 420 475
f 503 475 473
f 503 473 421
f 421 473 422
f 421 422 469
f 421 469 423
f 421 423 426
f 426 423 424
f 426 424 425
f 426 425 462
f 426 462 392
f 426 392 428
f 428 392 427
f 428 427 429
f 428 429 430
f 428 430 454
f 428 454 431
f 431 454 390
f 431 390 433
f 431 433 432
f 432 433 451
f 432 451 434
f 432 434 448
f 432 448 435
f 432 435 666
f 436 401 437
f 437 401 438
f 438 401 439
f 439 401 440
f 197 195 436
f 197 436 196
f 196 436 437
f 439 203 438
f 438 203 201
f 438 201 199
f 438 199 437
f 437 199 196
f 440 205 439
f 439 205 203
f 205 440 204
f 204 440 209
f 209 440 442
f 209 442 210
f 441 213 210
f 441 210 442
f 213 441 211
f 211 441 444
f 443 218 444
f 444 218 216
f 444 216 211
f 445 223 443
f 443 223 218
f 442 403 441
f 441 403 444
f 444 403 445
f 445 403 404
f 445 443 444
f 223 445 220
f 220 445 404
f 220 404 222
f 222 404 224
f 224 404 405
f 224 405 225
f 227 405 446
f 384 382 446
f 446 382 387
f 446 387 227
f 384 446 435
f 383 384 435
f 383 435 380
f 380 435 448
f 380 448 379
f 388 379 447
f 447 379 448
f 388 447 376
f 376 447 449
f 450 367 372
f 450 372 376
f 450 376 449
f 450 368 367
f 448 434 447
f 447 434 449
f 449 434 450
f 450 434 368
f 368 434 451
f 366 368 451
f 366 451 364
f 364 451 433
f 364 433 362
f 453 389 433
f 433 389 362
f 389 453 360
f 351 353 452
f 452 353 356
f 452 356 453
f 453 356 360
f 452 390 351
f 453 433 452
f 452 433 390
f 352 390 349
f 349 390 454
f 349 454 345
f 344 345 454
f 344 454 342
f 342 454 455
f 456 334 457
f 457 334 336
f 457 336 339
f 457 339 455
f 455 339 342
f 458 335 456
f 456 335 334
f 454 430 455
f 455 430 457
f 457 430 458
f 458 430 429
f 458 456 457
f 335 458 333
f 333 458 429
f 333 429 329
f 329 429 328
f 391 328 459
f 459 328 429
f 391 459 326
f 326 459 460
f 318 319 461
f 461 319 322
f 461 322 460
f 460 322 326
f 461 392 318
f 429 427 459
f 459 427 460
f 460 427 461
f 461 427 392
f 315 392 313
f 313 392 462
f 313 462 311
f 393 311 462
f 393 462 308
f 308 462 464
f 300 303 463
f 463 303 306
f 463 306 464
f 464 306 308
f 465 301 463
f 463 301 300
f 462 425 464
f 464 425 463
f 463 425 465
f 465 425 424
f 301 465 299
f 299 465 424
f 299 424 297
f 297 424 294
f 466 293 294
f 466 294 424
f 293 466 291
f 291 466 467
f 284 286 468
f 468 286 289
f 468 289 291
f 468 291 467
f 468 283 284
f 424 423 466
f 466 423 467
f 467 423 468
f 423 283 468
f 423 280 283
f 280 423 469
f 280 469 276
f 469 275 276
f 275 469 274
f 274 469 470
f 471 264 472
f 472 264 267
f 472 267 272
f 472 272 470
f 470 272 274
f 474 266 471
f 471 266 264
f 469 422 470
f 470 422 472
f 472 422 474
f 474 422 473
f 474 471 472
f 266 474 265
f 265 474 473
f 265 473 260
f 260 473 475
f 260 475 259
f 257 475 476
f 477 249 478
f 478 249 251
f 478 251 256
f 478 256 476
f 476 256 257
f 479 394 477
f 477 394 249
f 475 420 476
f 476 420 478
f 478 420 477
f 477 420 479
f 479 420 419
f 394 479 247
f 247 479 419
f 247 419 245
f 245 419 418
f 245 418 244
f 399 395 244
f 399 244 418
f 395 399 242
f 242 399 397
f 435 446 405
f 189 406 191
f 191 406 195
f 195 406 436
f 406 189 480
f 480 189 188
f 409 408 481
f 481 408 482
f 482 408 483
f 483 408 480
f 480 408 406
f 179 177 481
f 481 177 409
f 179 481 180
f 180 481 482
f 186 184 483
f 483 184 182
f 483 182 180
f 483 180 482
f 480 188 483
f 483 188 186
f 172 411 174
f 174 411 409
f 174 409 177
f 171 484 172
f 172 484 411
f 170 411 485
f 485 411 484
f 484 486 485
f 162 170 485
f 168 166 486
f 486 166 485
f 485 166 164
f 485 164 162
f 484 171 486
f 486 171 168
f 155 169 157
f 157 169 170
f 157 170 159
f 487 412 488
f 488 412 489
f 489 412 490
f 490 412 169
f 144 142 488
f 488 142 487
f 144 488 145
f 145 488 489
f 152 151 490
f 490 151 489
f 489 151 146
f 489 146 145
f 490 169 152
f 139 491 141
f 141 491 487
f 141 487 142
f 494 491 139
f 415 414 492
f 492 414 493
f 493 414 494
f 494 414 491
f 131 130 492
f 492 130 129
f 492 129 415
f 131 492 132
f 132 492 493
f 494 137 493
f 493 137 135
f 493 135 133
f 493 133 132
f 124 495 126
f 126 495 415
f 126 415 129
f 123 495 124
f 114 495 496
f 496 495 497
f 115 114 496
f 122 121 497
f 497 121 116
f 497 116 115
f 497 115 496
f 495 123 497
f 497 123 122
f 108 498 109
f 109 498 114
f 109 114 113
f 108 107 498
f 417 498 499
f 499 498 500
f 500 498 107
f 99 97 499
f 499 97 417
f 99 499 100
f 100 499 500
f 107 105 103
f 107 103 500
f 500 103 100
f 93 398 95
f 95 398 417
f 95 417 97
f 94 398 93
f 431 501 428
f 428 501 502
f 428 502 426
f 426 502 664
f 504 421 664
f 504 503 421
f 503 504 506
f 506 505 503
f 505 506 507
f 416 507 508
f 508 413 416
f 413 509 510
f 413 510 511
f 413 508 509
f 511 510 512
f 512 515 511
f 511 515 513
f 643 515 514
f 643 516 517
f 517 516 663
f 517 663 642
f 663 519 642
f 642 519 520
f 642 520 518
f 521 523 641
f 641 523 522
f 640 523 524
f 640 524 525
f 524 526 525
f 527 526 528
f 528 530 529
f 529 530 531
f 530 532 531
f 531 533 762
f 762 533 534
f 536 534 535
f 639 537 538
f 763 538 539
f 540 539 542
f 540 542 541
f 542 658 541
f 658 638 541
f 638 658 543
f 638 543 545
f 545 543 544
f 545 544 546
f 546 544 548
f 637 547 767
f 547 549 767
f 767 549 550
f 767 550 551
f 552 553 636
f 636 553 554
f 636 554 555
f 554 655 556
f 557 558 635
f 558 559 560
f 560 559 561
f 561 559 562
f 563 564 565
f 633 565 654
f 633 654 566
f 566 654 653
f 653 567 568
f 568 567 696
f 632 696 569
f 632 569 571
f 570 632 571
f 570 571 572
f 571 573 572
f 574 573 575
f 576 575 579
f 576 579 578
f 578 579 577
f 577 580 631
f 577 631 578
f 631 580 581
f 581 580 582
f 583 584 581
f 583 586 584
f 584 586 585
f 588 590 591
f 587 590 630
f 630 590 588
f 588 591 589
f 589 650 629
f 629 650 628
f 592 594 628
f 628 594 593
f 593 594 649
f 593 649 627
f 627 649 595
f 595 596 627
f 627 596 626
f 596 597 626
f 597 598 626
f 598 597 599
f 598 599 600
f 600 647 601
f 772 601 602
f 772 602 603
f 602 604 603
f 604 605 625
f 625 605 606
f 606 605 607
f 606 607 645
f 645 608 606
f 623 612 614
f 623 614 613
f 614 615 613
f 616 615 617
f 616 617 618
f 618 617 619
f 618 619 778
f 621 620 622
f 615 616 777
f 615 777 613
f 612 623 611
f 611 623 624
f 611 624 610
f 610 624 609
f 610 609 644
f 609 608 644
f 644 608 645
f 604 625 603
f 772 600 601
f 647 600 599
f 592 628 650
f 650 589 591
f 630 585 587
f 587 585 586
f 583 581 582
f 575 576 574
f 574 572 573
f 696 632 568
f 653 568 566
f 565 633 563
f 563 634 564
f 564 634 562
f 562 634 561
f 560 635 558
f 557 635 556
f 557 556 655
f 554 556 555
f 552 636 551
f 552 551 550
f 547 637 548
f 548 637 546
f 539 540 763
f 763 639 538
f 537 639 536
f 537 536 535
f 534 536 762
f 533 531 532
f 529 527 528
f 640 522 523
f 521 641 520
f 520 641 518
f 516 643 514
f 643 513 515
f 507 416 505
f 421 426 664
f 525 526 527
f 607 605 645
f 605 604 646
f 646 602 712
f 604 602 646
f 602 601 647
f 602 647 648
f 711 647 599
f 597 596 709
f 708 595 649
f 707 649 594
f 594 592 706
f 703 587 651
f 591 590 703
f 703 590 587
f 702 583 652
f 583 582 652
f 580 577 701
f 701 577 700
f 575 573 699
f 573 571 698
f 562 559 692
f 690 557 655
f 689 554 553
f 553 552 656
f 656 552 550
f 547 548 657
f 685 544 543
f 685 543 658
f 685 658 684
f 542 539 659
f 539 538 660
f 660 538 537
f 683 537 535
f 535 534 682
f 682 534 681
f 530 528 680
f 528 526 679
f 679 526 662
f 674 515 512
f 512 510 673
f 673 510 672
f 510 509 508
f 510 508 672
f 508 507 671
f 668 664 502
f 665 502 501
f 432 666 822
f 432 822 431
f 822 667 431
f 431 667 501
f 501 667 665
f 502 665 668
f 668 669 664
f 669 504 664
f 504 669 818
f 504 818 506
f 670 507 506
f 670 506 818
f 507 670 671
f 671 672 508
f 673 674 512
f 515 674 514
f 514 674 675
f 514 675 516
f 516 675 676
f 516 676 663
f 663 676 519
f 519 676 677
f 677 520 519
f 678 521 677
f 677 521 520
f 521 678 523
f 678 662 523
f 523 662 524
f 524 662 526
f 528 679 680
f 530 680 532
f 532 680 661
f 661 533 532
f 661 681 533
f 533 681 534
f 535 682 683
f 537 683 660
f 659 539 660
f 659 684 542
f 542 684 658
f 544 685 686
f 544 686 548
f 548 686 687
f 687 657 548
f 547 657 549
f 549 657 688
f 549 688 550
f 688 656 550
f 553 656 689
f 554 689 655
f 655 689 690
f 690 691 557
f 557 691 558
f 558 691 559
f 559 691 692
f 562 692 693
f 693 564 562
f 564 693 694
f 564 694 565
f 565 694 654
f 654 694 695
f 654 695 653
f 653 695 567
f 695 696 567
f 696 697 569
f 697 571 569
f 697 698 571
f 699 573 698
f 575 699 700
f 575 700 579
f 579 700 577
f 580 701 652
f 652 582 580
f 583 702 586
f 702 651 586
f 586 651 587
f 591 703 704
f 704 650 591
f 650 704 705
f 650 705 592
f 592 705 706
f 594 706 707
f 649 707 708
f 708 596 595
f 596 708 709
f 597 709 710
f 597 710 599
f 599 710 711
f 647 711 648
f 648 712 602
f 605 646 645
f 645 713 644
f 713 610 644
f 714 610 715
f 715 610 719
f 715 719 716
f 716 719 717
f 717 719 718
f 718 719 720
f 720 719 721
f 721 719 722
f 721 722 723
f 723 722 724
f 724 722 725
f 725 722 726
f 725 726 727
f 727 726 728
f 728 726 729
f 728 729 730
f 730 729 731
f 731 729 732
f 732 729 622
f 732 622 733
f 733 622 734
f 734 622 735
f 735 622 736
f 736 622 620
f 736 620 737
f 610 714 738
f 610 738 611
f 611 738 739
f 611 739 740
f 611 740 741
f 611 741 612
f 612 741 742
f 612 742 743
f 612 743 744
f 612 744 614
f 614 744 745
f 614 745 746
f 614 746 747
f 614 747 615
f 615 747 748
f 615 748 749
f 615 749 750
f 615 750 617
f 617 750 751
f 617 751 752
f 617 752 753
f 617 753 619
f 619 753 754
f 619 754 755
f 619 755 756
f 619 756 757
f 619 757 778
f 778 757 758
f 778 758 759
f 778 759 620
f 620 759 737
f 779 622 729
f 51 758 757
f 51 757 50
f 50 757 756
f 50 756 48
f 48 756 755
f 48 755 45
f 45 755 754
f 45 754 43
f 43 754 753
f 43 753 42
f 42 753 752
f 42 752 39
f 39 752 751
f 39 751 38
f 38 751 750
f 38 750 37
f 37 750 749
f 37 749 33
f 33 749 748
f 33 748 31
f 31 748 747
f 31 747 29
f 29 747 746
f 29 746 27
f 27 746 745
f 27 745 25
f 25 745 744
f 25 744 23
f 23 744 743
f 23 743 742
f 23 742 22
f 22 742 741
f 22 741 20
f 20 741 740
f 20 740 17
f 17 740 739
f 17 739 16
f 16 739 738
f 16 738 15
f 15 738 714
f 15 714 13
f 13 714 715
f 13 715 10
f 10 715 716
f 10 716 9
f 9 716 717
f 9 717 7
f 7 717 718
f 7 718 5
f 5 718 720
f 5 720 3
f 3 720 721
f 3 721 82
f 82 721 723
f 82 723 80
f 80 723 724
f 80 724 78
f 78 724 725
f 78 725 77
f 77 725 727
f 77 727 75
f 75 727 728
f 75 728 73
f 73 728 730
f 73 730 71
f 71 730 70
f 70 730 731
f 70 731 68
f 68 731 732
f 68 732 67
f 67 732 733
f 67 733 734
f 67 734 64
f 64 734 735
f 64 735 62
f 62 735 736
f 62 736 60
f 60 736 58
f 58 736 737
f 58 737 56
f 56 737 759
f 56 759 54
f 54 759 758
f 54 758 51
f 413 511 410
f 410 511 407
f 407 511 513
f 513 643 824
f 824 643 517
f 522 640 820
f 820 640 760
f 760 640 525
f 760 525 819
f 525 527 819
f 819 527 529
f 819 529 818
f 529 531 761
f 531 762 761
f 763 540 813
f 540 541 812
f 638 545 764
f 764 545 765
f 766 637 767
f 563 633 805
f 805 633 804
f 568 632 802
f 570 572 801
f 572 574 800
f 800 574 769
f 576 578 799
f 631 581 797
f 585 630 796
f 796 630 771
f 630 588 771
f 771 588 589
f 771 589 795
f 593 627 792
f 792 627 791
f 598 788 789
f 788 598 600
f 788 600 787
f 787 600 772
f 772 603 787
f 787 603 773
f 773 603 625
f 625 606 774
f 606 608 775
f 775 608 609
f 785 624 623
f 623 613 784
f 784 613 776
f 776 613 777
f 618 778 781
f 778 620 781
f 779 621 622
f 779 780 621
f 621 780 620
f 780 781 620
f 618 781 782
f 618 782 783
f 618 783 616
f 616 783 777
f 777 783 776
f 623 784 785
f 785 786 624
f 624 786 609
f 786 775 609
f 775 774 606
f 774 773 625
f 598 789 626
f 626 789 790
f 626 790 627
f 790 791 627
f 792 793 593
f 593 793 628
f 793 794 628
f 628 794 629
f 794 795 629
f 629 795 589
f 796 584 585
f 584 770 797
f 584 797 581
f 797 798 631
f 631 798 578
f 798 799 578
f 576 799 769
f 576 769 574
f 572 800 801
f 570 801 632
f 801 802 632
f 568 802 803
f 568 803 566
f 566 803 804
f 566 804 633
f 563 805 634
f 805 806 634
f 634 806 561
f 561 806 768
f 561 768 560
f 560 768 682
f 560 682 635
f 682 807 635
f 635 807 556
f 556 807 555
f 555 807 808
f 555 808 636
f 636 808 809
f 636 809 810
f 636 810 551
f 810 766 551
f 551 766 767
f 766 811 637
f 637 811 546
f 811 765 546
f 546 765 545
f 638 764 812
f 638 812 541
f 540 812 813
f 763 813 814
f 814 815 763
f 763 815 639
f 639 815 536
f 536 815 816
f 536 816 817
f 536 817 762
f 762 817 761
f 818 529 761
f 522 820 641
f 641 820 821
f 518 641 822
f 822 642 518
f 822 823 642
f 823 517 642
f 517 823 824
f 513 824 407
f 407 824 402
f 402 824 823
f 402 823 666
f 666 823 822
f 822 641 667
f 667 641 821
f 667 821 665
f 665 821 820
f 665 820 668
f 668 820 760
f 668 760 819
f 668 819 669
f 669 819 818
f 670 818 761
f 670 761 671
f 671 761 817
f 671 817 672
f 672 817 816
f 672 816 673
f 673 816 815
f 673 815 674
f 674 815 814
f 674 814 675
f 675 814 813
f 675 813 676
f 813 812 676
f 676 812 677
f 677 812 764
f 677 764 765
f 677 765 678
f 678 765 811
f 678 811 766
f 678 766 662
f 662 766 679
f 679 766 810
f 679 810 809
f 679 809 680
f 680 809 808
f 680 808 661
f 661 808 807
f 661 807 681
f 681 807 682
f 683 682 768
f 683 768 660
f 660 768 806
f 660 806 659
f 659 806 805
f 659 805 684
f 684 805 685
f 685 805 804
f 685 804 686
f 686 804 803
f 686 803 802
f 686 802 687
f 687 802 801
f 687 801 657
f 657 801 800
f 657 800 688
f 688 800 769
f 688 769 656
f 656 769 799
f 656 799 689
f 689 799 798
f 689 798 690
f 690 798 797
f 690 797 691
f 691 797 770
f 691 770 692
f 692 770 584
f 692 584 796
f 692 796 693
f 693 796 771
f 693 771 694
f 694 771 795
f 694 795 695
f 695 795 794
f 695 794 696
f 696 794 793
f 696 793 697
f 697 793 792
f 697 792 791
f 697 791 698
f 698 791 699
f 699 791 790
f 699 790 700
f 700 790 789
f 700 789 788
f 700 788 701
f 701 788 787
f 701 787 652
f 652 787 773
f 652 773 702
f 702 773 774
f 702 774 651
f 651 774 775
f 651 775 703
f 703 775 786
f 703 786 704
f 704 786 785
f 704 785 705
f 705 785 784
f 705 784 706
f 706 784 776
f 706 776 707
f 707 776 783
f 707 783 708
f 708 783 782
f 708 782 709
f 709 782 781
f 709 781 710
f 710 781 780
f 710 780 711
f 711 780 648
f 648 780 779
f 648 779 712
f 712 779 729
f 712 729 646
f 646 729 726
f 646 726 722
f 646 722 645
f 645 722 713
f 713 722 719
f 713 719 610
f 12 1 825
f 825 1 386
f 826 14 827
f 827 14 828
f 828 14 829
f 829 14 825
f 825 14 12
f 827 377 826
f 826 377 375
f 826 375 19
f 377 827 378
f 378 827 828
f 385 381 829
f 829 381 828
f 828 381 378
f 825 386 829
f 829 386 385
f 375 374 19
f 19 374 18
f 18 374 373
f 18 373 830
f 830 373 831
f 831 373 371
f 832 21 833
f 833 21 834
f 834 21 835
f 835 21 831
f 831 21 830
f 833 369 832
f 832 369 361
f 832 361 836
f 369 833 363
f 363 833 834
f 835 370 365
f 835 365 834
f 834 365 363
f 831 371 835
f 835 371 370
f 361 359 836
f 836 359 357
f 836 357 358
f 26 24 837
f 837 24 838
f 838 24 839
f 839 24 836
f 347 346 837
f 837 346 26
f 347 837 348
f 348 837 838
f 355 354 839
f 839 354 838
f 838 354 350
f 838 350 348
f 836 358 839
f 839 358 355
f 346 343 26
f 26 343 28
f 28 343 340
f 28 340 341
f 30 28 840
f 840 28 841
f 331 330 30
f 331 30 332
f 332 30 840
f 338 337 841
f 841 337 840
f 840 337 332
f 28 341 841
f 841 341 338
f 330 327 30
f 30 327 842
f 842 327 323
f 842 323 843
f 843 323 325
f 34 32 844
f 844 32 845
f 845 32 846
f 846 32 843
f 843 32 842
f 324 316 844
f 844 316 34
f 324 844 317
f 317 844 845
f 321 320 846
f 846 320 845
f 845 320 317
f 843 325 846
f 846 325 321
f 316 314 34
f 34 314 35
f 35 314 312
f 35 312 847
f 847 312 310
f 848 36 849
f 849 36 850
f 850 36 851
f 851 36 847
f 847 36 35
f 304 302 849
f 849 302 848
f 304 849 305
f 305 849 850
f 309 307 851
f 851 307 850
f 850 307 305
f 847 310 851
f 851 310 309
f 302 298 848
f 848 298 852
f 852 298 295
f 852 295 296
f 854 853 852
f 852 855 854
f 853 288 40
f 40 288 285
f 287 288 854
f 854 288 853
f 855 292 854
f 854 292 290
f 854 290 287
f 852 296 855
f 855 296 292
f 40 285 282
f 40 282 281
f 40 281 41
f 41 281 279
f 46 44 856
f 856 44 857
f 857 44 858
f 858 44 41
f 271 270 856
f 856 270 46
f 271 856 269
f 269 856 857
f 278 277 858
f 858 277 857
f 857 277 273
f 857 273 269
f 41 279 858
f 858 279 278
f 270 268 46
f 46 268 859
f 859 268 263
f 859 263 860
f 860 263 262
f 49 47 861
f 861 47 862
f 862 47 863
f 863 47 860
f 860 47 859
f 861 255 49
f 49 255 253
f 255 861 254
f 254 861 862
f 261 258 863
f 863 258 862
f 862 258 254
f 860 262 863
f 863 262 261
f 253 252 49
f 49 252 864
f 864 252 250
f 864 250 248
f 865 52 866
f 866 52 864
f 241 239 865
f 865 239 52
f 246 243 866
f 866 243 865
f 865 243 241
f 864 248 866
f 866 248 246
f 53 89 867
f 867 89 91
f 868 55 869
f 869 55 870
f 870 55 871
f 871 55 867
f 867 55 53
f 237 101 869
f 869 101 868
f 868 101 57
f 237 869 98
f 98 869 870
f 871 90 96
f 871 96 870
f 870 96 98
f 867 91 871
f 871 91 90
f 101 102 57
f 57 102 236
f 57 236 872
f 872 236 235
f 61 59 873
f 873 59 874
f 874 59 875
f 875 59 872
f 872 59 57
f 873 234 61
f 61 234 112
f 234 873 111
f 111 873 874
f 875 104 106
f 875 106 874
f 874 106 110
f 874 110 111
f 872 235 875
f 875 235 104
f 61 112 117
f 61 117 876
f 876 117 118
f 876 118 877
f 65 63 878
f 878 63 879
f 879 63 880
f 880 63 877
f 877 63 876
f 878 127 65
f 125 878 879
f 119 120 880
f 880 120 879
f 879 120 125
f 877 118 880
f 880 118 119
f 65 127 66
f 66 127 128
f 66 128 881
f 883 69 884
f 884 69 885
f 885 69 886
f 886 69 882
f 882 69 66
f 66 881 882
f 884 140 883
f 138 884 885
f 134 136 886
f 886 136 885
f 885 136 138
f 886 882 134
f 140 143 883
f 883 143 887
f 887 143 147
f 887 147 149
f 74 72 888
f 888 72 889
f 889 72 890
f 890 72 887
f 888 154 74
f 153 888 889
f 148 150 890
f 890 150 889
f 889 150 153
f 887 149 890
f 890 149 148
f 154 156 74
f 74 156 891
f 891 156 158
f 891 158 160
f 891 160 76
f 892 76 893
f 893 76 894
f 233 167 892
f 892 167 84
f 233 892 165
f 165 892 893
f 161 163 894
f 894 163 893
f 893 163 165
f 894 76 161
f 161 76 160
f 167 173 84
f 84 173 175
f 84 175 79
f 79 175 176
f 81 79 895
f 895 79 896
f 232 185 81
f 232 81 183
f 183 81 895
f 896 178 181
f 896 181 895
f 183 895 181
f 79 176 896
f 896 176 178
f 81 185 187
f 81 187 83
f 83 187 190
f 83 190 897
f 897 190 192
f 2 85 87
f 87 85 898
f 898 85 899
f 899 85 897
f 897 85 83
f 86 87 200
f 200 87 898
f 193 194 899
f 899 194 898
f 898 194 198
f 898 198 200
f 897 192 899
f 899 192 193
f 88 202 2
f 2 202 4
f 4 202 207
f 4 207 900
f 900 207 208
f 8 6 901
f 901 6 902
f 902 6 903
f 903 6 900
f 900 6 4
f 901 231 8
f 8 231 215
f 231 901 214
f 214 901 902
f 903 206 212
f 903 212 902
f 902 212 214
f 900 208 903
f 903 208 206
f 8 215 904
f 904 215 217
f 904 217 905
f 905 217 219
f 11 905 906
f 906 905 907
f 11 230 229
f 228 230 906
f 906 230 11
f 221 226 907
f 907 226 906
f 906 226 228
f 905 219 907
f 907 219 221
f 229 12 11
