# USD → MuJoCo (world-space, simplified)
v 2.208716 7.651611 0.096821
v 2.209154 7.653368 0.098052
v 2.212250 7.661604 0.098021
v 2.211046 7.659260 0.098027
v 2.209712 7.658684 0.098028
v 2.209407 7.657496 0.098059
v 2.210398 7.656709 0.098033
v 2.209191 7.654655 0.098038
v 2.210297 7.654418 0.098039
v 2.210534 7.652613 0.098043
v 2.210833 7.651468 0.098046
v 2.209934 7.650656 0.098048
v 2.211386 7.649978 0.098050
v 2.210703 7.648705 0.098083
v 2.211904 7.647028 0.098058
v 2.212401 7.648219 0.098055
v 2.213279 7.647099 0.098058
v 2.214415 7.645957 0.098061
v 2.215035 7.644112 0.098066
v 2.215721 7.644980 0.098063
v 2.215929 7.643478 0.098098
v 2.212687 7.645980 0.098095
v 2.217299 7.644093 0.098066
v 2.219041 7.643470 0.098068
v 2.218594 7.642447 0.098070
v 2.219810 7.642095 0.098101
v 2.220413 7.643165 0.098068
v 2.221551 7.641849 0.098077
v 2.222620 7.641919 0.098072
v 2.222020 7.643019 0.098069
v 2.223449 7.643075 0.098069
v 2.225128 7.642131 0.098111
v 2.225629 7.642315 0.098064
v 2.225041 7.643328 0.098068
v 2.227152 7.644028 0.098067
v 2.227896 7.643085 0.098100
v 2.228935 7.645015 0.098064
v 2.230073 7.645875 0.098062
v 2.231148 7.645296 0.098061
v 2.233114 7.647607 0.098058
v 2.231371 7.647136 0.098059
v 2.232350 7.648461 0.098056
v 2.234531 7.650089 0.098075
v 2.233831 7.648656 0.098084
v 2.233051 7.649659 0.098053
v 2.234865 7.651278 0.098049
v 2.233800 7.651545 0.098048
v 2.235241 7.652526 0.098062
v 2.234277 7.653923 0.098042
v 2.235406 7.655375 0.098038
v 2.234252 7.656158 0.098036
v 2.233948 7.657951 0.098032
v 2.235475 7.654103 0.098065
v 2.234641 7.659434 0.098028
v 2.233434 7.659496 0.098028
v 2.233435 7.661984 0.098046
v 2.234238 7.660606 0.098055
v 2.232741 7.660949 0.098024
v 2.232689 7.663006 0.098019
v 2.231592 7.662621 0.098019
v 2.231962 7.664062 0.098025
v 2.229743 7.665798 0.098011
v 2.230032 7.664208 0.098015
v 2.228654 7.666519 0.098049
v 2.230637 7.665130 0.098023
v 2.228021 7.665576 0.098012
v 2.225969 7.666443 0.098009
v 2.226004 7.667581 0.098006
v 2.224782 7.667893 0.098041
v 2.224182 7.666864 0.098008
v 2.223212 7.668179 0.098028
v 2.222959 7.666987 0.098008
v 2.221965 7.667004 0.098008
v 2.221899 7.668108 0.098005
v 2.220658 7.668126 0.098016
v 2.220352 7.666859 0.098008
v 2.218579 7.666422 0.098009
v 2.216893 7.665734 0.098010
v 2.215335 7.664789 0.098013
v 2.214329 7.665416 0.098011
v 2.215308 7.666169 0.098037
v 2.213330 7.664592 0.098048
v 2.213781 7.663488 0.098016
v 2.212122 7.663353 0.098035
v 2.210115 7.661892 0.093307
v 2.210043 7.661773 0.096795
v 2.210883 7.661470 0.098022
v 2.235879 7.658411 0.096805
v 2.235844 7.658504 0.079181
v 2.235843 7.658545 0.093321
v 2.235729 7.658804 0.035828
v 2.235678 7.659079 0.079180
v 2.235692 7.658894 0.023323
v 2.235730 7.658777 0.026400
v 2.235348 7.660043 0.079177
v 2.235420 7.659708 0.023320
v 2.235081 7.660520 0.023319
v 2.235042 7.660757 0.079176
v 2.235027 7.660648 0.026399
v 2.235026 7.660675 0.035823
v 2.234978 7.660942 0.096799
v 2.234590 7.661717 0.096798
v 2.234488 7.661749 0.035820
v 2.234093 7.662519 0.079171
v 2.233563 7.663154 0.035817
v 2.233483 7.663221 0.023312
v 2.233561 7.663126 0.026392
v 2.233134 7.663827 0.079168
v 2.232961 7.663878 0.023309
v 2.232625 7.664407 0.079166
v 2.232352 7.664541 0.023309
v 2.232523 7.664567 0.096789
v 2.232227 7.664873 0.096789
v 2.232260 7.664643 0.026388
v 2.232260 7.664670 0.035813
v 2.231692 7.665218 0.035811
v 2.231300 7.665739 0.096794
v 2.231178 7.665802 0.079162
v 2.231171 7.665822 0.093297
v 2.230058 7.666508 0.035808
v 2.230035 7.666471 0.026384
v 2.229927 7.666539 0.023305
v 2.229203 7.667141 0.079159
v 2.229067 7.667260 0.096782
v 2.228987 7.667093 0.023300
v 2.228308 7.667645 0.096781
v 2.228411 7.667387 0.023301
v 2.228293 7.667452 0.026381
v 2.228292 7.667479 0.035805
v 2.227534 7.667989 0.096779
v 2.227727 7.667729 0.035805
v 2.227391 7.667990 0.079156
v 2.226430 7.668333 0.079155
v 2.226593 7.668159 0.035803
v 2.225576 7.668436 0.035803
v 2.225577 7.668409 0.026379
v 2.225450 7.668430 0.023298
v 2.225096 7.668669 0.079155
v 2.224948 7.668746 0.096778
v 2.224586 7.668604 0.023295
v 2.224283 7.668859 0.096779
v 2.223683 7.668930 0.096778
v 2.223734 7.668714 0.023298
v 2.223513 7.667778 0.021691
v 2.223603 7.668763 0.035802
v 2.223192 7.668795 0.035801
v 2.223258 7.668966 0.096777
v 2.223112 7.668924 0.079154
v 2.223111 7.668965 0.093290
v 2.222074 7.668953 0.079154
v 2.222204 7.668830 0.035801
v 2.220723 7.668738 0.035801
v 2.220719 7.668861 0.079154
v 2.220594 7.668683 0.023297
v 2.220570 7.668892 0.096777
v 2.219727 7.668764 0.096781
v 2.219727 7.668553 0.023297
v 2.218895 7.668579 0.096778
v 2.218885 7.668364 0.023298
v 2.218752 7.668532 0.093291
v 2.218753 7.668492 0.079155
v 2.218757 7.668367 0.035802
v 2.217655 7.668168 0.079155
v 2.217528 7.667996 0.035803
v 2.216498 7.667690 0.079156
v 2.216059 7.667358 0.035805
v 2.216359 7.667681 0.096781
v 2.215944 7.667261 0.023300
v 2.218757 7.668340 0.026378
v 2.215449 7.667212 0.096782
v 2.215185 7.666848 0.023298
v 2.214865 7.666864 0.096782
v 2.214740 7.666775 0.093295
v 2.214447 7.666377 0.023303
v 2.214740 7.666736 0.079159
v 2.214339 7.666312 0.026383
v 2.214338 7.666339 0.035807
v 2.213619 7.665944 0.079161
v 2.213490 7.665713 0.035809
v 2.212844 7.665276 0.079162
v 2.212736 7.665047 0.035810
v 2.212439 7.664762 0.035811
v 2.212427 7.664930 0.096787
v 2.212151 7.664467 0.035812
v 2.211559 7.664000 0.096799
v 2.212152 7.664440 0.026387
v 2.212050 7.664337 0.023298
v 2.211468 7.663865 0.093303
v 2.211470 7.663825 0.079166
v 2.210957 7.663001 0.023314
v 2.211101 7.663352 0.079167
v 2.210881 7.662896 0.026389
v 2.210881 7.662923 0.035816
v 2.210526 7.662536 0.079169
v 2.210424 7.662245 0.035817
v 2.210117 7.661851 0.079171
v 2.209797 7.661131 0.035820
v 2.209666 7.661051 0.096798
v 2.209466 7.660417 0.035822
v 2.209409 7.660257 0.023319
v 2.209467 7.660389 0.026393
v 2.209248 7.660048 0.079175
v 2.209311 7.660235 0.096799
v 2.209257 7.660088 0.093312
v 2.209023 7.659227 0.023320
v 2.208837 7.658622 0.023322
v 2.208802 7.658505 0.026401
v 2.208817 7.658722 0.079179
v 2.208797 7.658533 0.035827
v 2.208579 7.657753 0.079181
v 2.208536 7.657640 0.096811
v 2.208443 7.656888 0.035831
v 2.208329 7.655693 0.035834
v 2.208327 7.655972 0.096809
v 2.208322 7.655812 0.093323
v 2.208328 7.655620 0.025383
v 2.208323 7.655771 0.079186
v 2.208323 7.655527 0.023330
v 2.208330 7.655666 0.026409
v 2.208301 7.654647 0.023331
v 2.208341 7.653790 0.023334
v 2.208292 7.654594 0.079189
v 2.208350 7.653695 0.035839
v 2.208350 7.653668 0.026415
v 2.208405 7.653157 0.035840
v 2.208389 7.653380 0.079192
v 2.208405 7.653284 0.096816
v 2.208505 7.652595 0.096819
v 2.208388 7.653421 0.093339
v 2.208580 7.657794 0.093312
v 2.212734 7.665226 0.096786
v 2.212843 7.665317 0.093299
v 2.216496 7.667731 0.093293
v 2.220718 7.668899 0.093290
v 2.227390 7.668031 0.093293
v 2.232624 7.664448 0.093306
v 2.234084 7.662552 0.093308
v 2.234163 7.662437 0.096795
v 2.235040 7.660798 0.093312
v 2.236067 7.657579 0.096809
v 2.235462 7.656441 0.093325
v 2.236192 7.656737 0.096810
v 2.235300 7.656627 0.098035
v 2.236006 7.657751 0.035831
v 2.236202 7.656513 0.035834
v 2.236213 7.656539 0.079186
v 2.236258 7.655975 0.035835
v 2.236307 7.655149 0.079190
v 2.236269 7.655809 0.023331
v 2.236309 7.654955 0.023332
v 2.236277 7.654149 0.079193
v 2.236286 7.654072 0.023336
v 2.236276 7.654190 0.093329
v 2.236281 7.653977 0.035840
v 2.236270 7.654050 0.096816
v 2.236181 7.652971 0.035843
v 2.236153 7.652983 0.096820
v 2.236046 7.652363 0.096821
v 2.236017 7.652208 0.093334
v 2.236008 7.651952 0.035846
v 2.236021 7.652167 0.079198
v 2.235669 7.650781 0.079201
v 2.235806 7.651138 0.035848
v 2.235781 7.650967 0.023335
v 2.235358 7.649741 0.023347
v 2.235342 7.649873 0.079203
v 2.235341 7.649914 0.093340
v 2.235286 7.649786 0.096827
v 2.235142 7.649254 0.035852
v 2.235194 7.649338 0.023348
v 2.235142 7.649227 0.026428
v 2.234812 7.648543 0.035854
v 2.234932 7.648973 0.096831
v 2.234555 7.648249 0.096831
v 2.234483 7.648109 0.093340
v 2.234483 7.648068 0.079208
v 2.234186 7.647430 0.035857
v 2.234074 7.647384 0.079210
v 2.233727 7.646747 0.035859
v 2.233728 7.646720 0.026436
v 2.233653 7.646598 0.023357
v 2.233499 7.646567 0.079212
v 2.233130 7.646096 0.079213
v 2.233129 7.646136 0.093350
v 2.233034 7.646032 0.096837
v 2.232560 7.645262 0.023348
v 2.232618 7.645555 0.096840
v 2.232457 7.645176 0.026438
v 2.232456 7.645204 0.035863
v 2.231868 7.644794 0.096839
v 2.232020 7.644766 0.035864
v 2.231756 7.644644 0.079217
v 2.231755 7.644685 0.093355
v 2.231117 7.643957 0.035866
v 2.230977 7.643973 0.079218
v 2.230269 7.643332 0.035867
v 2.229860 7.643184 0.079220
v 2.230163 7.643218 0.023363
v 2.229732 7.643157 0.096844
v 2.229857 7.643226 0.093357
v 2.229270 7.642663 0.023364
v 2.229007 7.642729 0.096848
v 2.228665 7.642338 0.023365
v 2.228547 7.642315 0.035870
v 2.228548 7.642288 0.026445
v 2.228175 7.642137 0.035870
v 2.228235 7.642343 0.096846
v 2.228101 7.642271 0.093359
v 2.228102 7.642230 0.079222
v 2.227083 7.641675 0.035871
v 2.226948 7.641753 0.079224
v 2.225851 7.641304 0.035872
v 2.225847 7.641428 0.079224
v 2.225725 7.641235 0.023368
v 2.225846 7.641469 0.093361
v 2.225702 7.641442 0.096848
v 2.224883 7.641045 0.023368
v 2.224870 7.641257 0.096851
v 2.224016 7.640916 0.023368
v 2.224027 7.641129 0.096849
v 2.223881 7.641061 0.079225
v 2.223885 7.640937 0.035873
v 2.222737 7.640967 0.079225
v 2.222605 7.640839 0.035873
v 2.221488 7.640996 0.079225
v 2.221004 7.640905 0.035873
v 2.221339 7.641056 0.096849
v 2.223880 7.641102 0.093362
v 2.220475 7.641139 0.096851
v 2.221005 7.640880 0.026448
v 2.220875 7.640884 0.023368
v 2.220199 7.640969 0.023367
v 2.219649 7.641275 0.096848
v 2.219504 7.641294 0.093361
v 2.219504 7.641251 0.079224
v 2.219160 7.641164 0.023368
v 2.219031 7.641235 0.035872
v 2.218019 7.641510 0.035871
v 2.218175 7.641585 0.079223
v 2.217209 7.641930 0.079222
v 2.217069 7.642035 0.096846
v 2.217207 7.641970 0.093359
v 2.216880 7.641941 0.035870
v 2.216676 7.642200 0.096845
v 2.216315 7.642191 0.035869
v 2.216289 7.642377 0.096845
v 2.216316 7.642164 0.026445
v 2.216198 7.642212 0.023365
v 2.215530 7.642762 0.096844
v 2.215633 7.642500 0.023362
v 2.215728 7.643514 0.093356
v 2.215402 7.642787 0.079220
v 2.215052 7.642835 0.023363
v 2.215058 7.642989 0.079220
v 2.214719 7.643200 0.079219
v 2.214573 7.643173 0.035866
v 2.214684 7.643065 0.023362
v 2.213902 7.643641 0.035865
v 2.214060 7.643647 0.079218
v 2.213428 7.644139 0.079216
v 2.212917 7.644451 0.035863
v 2.213312 7.644284 0.096840
v 2.213427 7.644180 0.093350
v 2.212698 7.644824 0.096840
v 2.212348 7.645000 0.035862
v 2.212074 7.645455 0.096837
v 2.212257 7.645058 0.023357
v 2.211975 7.645513 0.079213
v 2.211649 7.645719 0.023353
v 2.211214 7.646397 0.079210
v 2.211126 7.646377 0.023354
v 2.211044 7.646517 0.035858
v 2.211047 7.646491 0.026430
v 2.211973 7.645553 0.093346
v 2.210119 7.647922 0.035854
v 2.210515 7.647408 0.079208
v 2.210514 7.647449 0.093338
v 2.210434 7.647584 0.096831
v 2.210010 7.648300 0.096831
v 2.209619 7.649079 0.096827
v 2.209582 7.648995 0.035851
v 2.209557 7.649204 0.093340
v 2.209558 7.649163 0.079203
v 2.209528 7.649079 0.023347
v 2.209191 7.649889 0.023343
v 2.209169 7.650085 0.079201
v 2.208917 7.650705 0.023342
v 2.208879 7.650867 0.035846
v 2.208879 7.650839 0.026424
v 2.208753 7.651415 0.079197
v 2.208755 7.651457 0.093338
v 2.208602 7.651917 0.035844
v 2.209582 7.648968 0.026427
v 2.212349 7.644973 0.026435
v 2.214574 7.643146 0.026443
v 2.223772 7.641857 0.021758
v 2.225852 7.641276 0.026448
v 2.229734 7.644071 0.021761
v 2.236259 7.655948 0.026406
v 2.234790 7.658452 0.035829
v 2.235319 7.655998 0.035835
v 2.235256 7.655938 0.026412
v 2.235102 7.657184 0.021695
v 2.234282 7.659905 0.021674
v 2.234791 7.658425 0.026406
v 2.210266 7.659935 0.021691
v 2.209784 7.658360 0.021690
v 2.211657 7.656579 0.021695
v 2.209467 7.656951 0.021694
v 2.209337 7.653864 0.021702
v 2.209503 7.652433 0.021706
v 2.211760 7.662424 0.021679
v 2.212798 7.663776 0.021683
v 2.214772 7.662723 0.021721
v 2.214914 7.665483 0.021693
v 2.216509 7.666459 0.021676
v 2.217758 7.666981 0.021669
v 2.219136 7.667392 0.021668
v 2.220983 7.665535 0.021690
v 2.220828 7.667779 0.021675
v 2.226632 7.667062 0.021669
v 2.227990 7.666492 0.021668
v 2.230593 7.664824 0.021675
v 2.231810 7.663690 0.021664
v 2.233528 7.661384 0.021685
v 2.235287 7.655724 0.021697
v 2.235288 7.654127 0.021703
v 2.235148 7.652668 0.021707
v 2.234291 7.649726 0.021712
v 2.233629 7.648379 0.021718
v 2.232843 7.647173 0.021720
v 2.231765 7.645879 0.021732
v 2.230748 7.644896 0.021727
v 2.226907 7.642629 0.021732
v 2.225963 7.643866 0.021729
v 2.225474 7.642192 0.021731
v 2.222193 7.643228 0.021730
v 2.222405 7.641789 0.021734
v 2.220964 7.641856 0.021732
v 2.216751 7.643026 0.021738
v 2.217832 7.644138 0.021727
v 2.216619 7.643097 0.021727
v 2.214038 7.644747 0.021726
v 2.212970 7.645754 0.021723
v 2.211829 7.646951 0.021732
v 2.213877 7.646715 0.021820
v 2.210330 7.649685 0.021697
v 2.211656 7.662260 0.026391
v 2.211585 7.662303 0.035817
v 2.210425 7.660113 0.035728
v 2.209747 7.658172 0.026405
v 2.209332 7.655704 0.035834
v 2.209672 7.658188 0.035828
v 2.209333 7.655676 0.026410
v 2.209306 7.655462 0.021696
v 2.209353 7.653678 0.026415
v 2.209352 7.653705 0.035839
v 2.209747 7.651209 0.035845
v 2.209818 7.651191 0.026418
v 2.210521 7.649321 0.026426
v 2.210520 7.649348 0.035850
v 2.211734 7.647165 0.035851
v 2.213110 7.645625 0.026433
v 2.215065 7.644046 0.035864
v 2.213081 7.645586 0.035860
v 2.215234 7.643895 0.021728
v 2.215066 7.644019 0.026439
v 2.216805 7.642989 0.035867
v 2.219196 7.642223 0.035869
v 2.219255 7.642140 0.021745
v 2.221169 7.641869 0.026445
v 2.221169 7.641896 0.035870
v 2.223698 7.641851 0.035870
v 2.225667 7.642262 0.026445
v 2.228037 7.643178 0.035867
v 2.225709 7.642230 0.035870
v 2.228038 7.643150 0.026443
v 2.228221 7.643221 0.021729
v 2.229759 7.644194 0.035865
v 2.231725 7.645784 0.035861
v 2.232953 7.647357 0.026433
v 2.232952 7.647384 0.035857
v 2.234196 7.649587 0.035851
v 2.233653 7.648470 0.035854
v 2.234196 7.649560 0.026427
v 2.234901 7.651350 0.021768
v 2.234861 7.651472 0.035847
v 2.235275 7.653967 0.035840
v 2.235143 7.652709 0.035844
v 2.235276 7.653940 0.026410
v 2.236279 7.653950 0.026416
v 2.214788 7.665515 0.035809
v 2.212925 7.663831 0.035813
v 2.218942 7.667355 0.026378
v 2.218941 7.667382 0.035805
v 2.216549 7.666560 0.035807
v 2.223439 7.667779 0.035804
v 2.220911 7.667800 0.035801
v 2.225413 7.667420 0.026381
v 2.225219 7.667460 0.021668
v 2.227801 7.666579 0.026383
v 2.227803 7.666678 0.035807
v 2.225412 7.667448 0.035805
v 2.229450 7.665649 0.021694
v 2.231499 7.663991 0.026390
v 2.231498 7.664018 0.035814
v 2.229589 7.665677 0.035810
v 2.232800 7.662474 0.026395
v 2.234088 7.660295 0.026400
v 2.234087 7.660323 0.035824
v 2.232861 7.662533 0.035818
v 2.224129 7.643369 0.022424
v 2.228173 7.644852 0.022592
v 2.229214 7.645532 0.021725
v 2.230983 7.647269 0.022722
v 2.233121 7.650380 0.021713
v 2.233819 7.653052 0.022972
v 2.233783 7.656271 0.021698
v 2.233064 7.659166 0.023187
v 2.231645 7.661837 0.021683
v 2.229653 7.663831 0.023411
v 2.226895 7.665391 0.021662
v 2.223937 7.666282 0.023642
v 2.221651 7.666385 0.021842
v 2.216527 7.664800 0.022064
v 2.215077 7.663800 0.024018
v 2.212072 7.660193 0.024207
v 2.210897 7.652768 0.022641
v 2.210734 7.655309 0.024427
v 2.212222 7.648891 0.024692
v 2.216082 7.645105 0.024923
v 2.219308 7.643630 0.025059
v 2.224535 7.643426 0.025267
v 2.226803 7.644168 0.023475
v 2.227691 7.644643 0.025400
v 2.229895 7.646121 0.023611
v 2.230228 7.646464 0.025513
v 2.228877 7.645370 0.025452
v 2.231731 7.648164 0.025595
v 2.232525 7.649305 0.023760
v 2.233645 7.652198 0.025766
v 2.232906 7.659571 0.024145
v 2.233378 7.658285 0.025981
v 2.230888 7.662586 0.026170
v 2.226370 7.665732 0.026377
v 2.224686 7.666142 0.026432
v 2.221657 7.666323 0.024670
v 2.219893 7.666087 0.026630
v 2.217128 7.665094 0.026751
v 2.211161 7.657935 0.025254
v 2.212866 7.661709 0.026962
v 2.210860 7.656386 0.027208
v 2.211241 7.651342 0.027410
v 2.212679 7.648464 0.025658
v 2.214798 7.645944 0.025801
v 2.213856 7.646870 0.027631
v 2.220702 7.643250 0.026055
v 2.218274 7.643917 0.027847
v 2.224418 7.643372 0.028088
v 2.227091 7.644214 0.026316
v 2.231814 7.648070 0.026532
v 2.230099 7.646167 0.028329
v 2.232973 7.650384 0.028518
v 2.233731 7.653322 0.028634
v 2.233313 7.658681 0.028825
v 2.233270 7.658560 0.026934
v 2.230919 7.662461 0.028993
v 2.230187 7.663328 0.027151
v 2.227939 7.664971 0.029142
v 2.223551 7.666293 0.029309
v 2.219487 7.666031 0.029475
v 2.220820 7.666242 0.027532
v 2.216749 7.664979 0.027708
v 2.215731 7.664301 0.029644
v 2.213422 7.662163 0.027877
v 2.213092 7.661799 0.029784
v 2.211329 7.658426 0.029947
v 2.210731 7.654622 0.030112
v 2.211383 7.651070 0.030254
v 2.211883 7.649926 0.028416
v 2.213852 7.646828 0.030460
v 2.216224 7.645013 0.028700
v 2.217986 7.644120 0.030662
v 2.219291 7.643696 0.028827
v 2.222557 7.643200 0.030841
v 2.223684 7.643311 0.029000
v 2.227947 7.644734 0.029178
v 2.228025 7.644767 0.031068
v 2.231262 7.647522 0.031218
v 2.233454 7.651709 0.031400
v 2.233709 7.653008 0.029564
v 2.233772 7.656629 0.031579
v 2.230989 7.662668 0.029935
v 2.227748 7.665036 0.031978
v 2.225330 7.666075 0.030182
v 2.222792 7.666402 0.032166
v 2.219132 7.665938 0.030431
v 2.217329 7.665325 0.032396
v 2.214476 7.663388 0.030642
v 2.212500 7.661059 0.032649
v 2.210937 7.656835 0.032844
v 2.211257 7.651074 0.033077
v 2.213026 7.647986 0.031339
v 2.213538 7.647820 0.033246
v 2.216232 7.644935 0.031528
v 2.220876 7.643353 0.031715
v 2.225732 7.643824 0.031913
v 2.222126 7.643270 0.033651
v 2.225815 7.643862 0.033802
v 2.229492 7.645701 0.033955
v 2.228794 7.645242 0.032042
v 2.232774 7.649668 0.032257
v 2.233918 7.655599 0.034373
v 2.233757 7.657075 0.032536
v 2.232632 7.659933 0.034529
v 2.230822 7.662640 0.032768
v 2.231158 7.662227 0.034633
v 2.229419 7.663870 0.034727
v 2.226878 7.665449 0.034839
v 2.228177 7.664726 0.032899
v 2.223862 7.666232 0.034953
v 2.222117 7.666379 0.033134
v 2.220390 7.666238 0.035090
v 2.217126 7.665232 0.033345
v 2.213450 7.662250 0.033528
v 2.216095 7.664610 0.035279
v 2.213087 7.661756 0.035440
v 2.210986 7.657580 0.035641
v 2.211159 7.651510 0.035855
v 2.213187 7.647797 0.035854
v 2.216043 7.645059 0.035862
v 2.217154 7.644486 0.034395
v 2.220952 7.643339 0.035866
v 2.226860 7.644186 0.034787
v 2.226600 7.643988 0.035865
v 2.231432 7.647580 0.034991
v 2.230975 7.647198 0.035857
v 2.233444 7.651648 0.035399
v 2.233949 7.655621 0.035836
v 2.233816 7.656160 0.035333
v 2.231685 7.661736 0.035594
v 2.221696 7.643264 0.034575
v 2.213457 7.647348 0.034201
v 2.210796 7.652864 0.033948
v 2.211359 7.658609 0.033707
v 2.211393 7.658772 0.030871
v 2.233677 7.657011 0.029710
v 2.213435 7.647396 0.028543
v 2.210806 7.653060 0.028286
v 2.211287 7.658419 0.028059
v 2.233839 7.653770 0.026766
v 2.210809 7.653318 0.025449
v 2.213435 7.662210 0.025047
v 2.217077 7.665142 0.024866
v 2.226332 7.665675 0.024492
v 2.230009 7.663376 0.024329
v 2.233847 7.653991 0.023947
v 2.224205 7.643423 0.023367
v 2.218836 7.643654 0.023155
v 2.213544 7.647140 0.022899
v 2.224818 7.665347 0.034911
v 2.232950 7.650210 0.034165
v 2.222269 7.644009 0.033654
v 2.216741 7.644592 0.033439
v 2.211638 7.656270 0.032864
v 2.213799 7.661678 0.032597
v 2.225761 7.665163 0.032047
v 2.231634 7.661750 0.031781
v 2.232549 7.658357 0.028822
v 2.232994 7.653766 0.028649
v 2.212034 7.651275 0.027424
v 2.230815 7.661399 0.026137
v 2.214743 7.662600 0.024060
v 2.218898 7.665851 0.023846
v 2.229134 7.663052 0.023408
v 2.219441 7.643588 0.022237
v 2.212229 7.650665 0.021759
v 2.212961 7.648390 0.021835
v 2.219626 7.644347 0.022234
v 2.227433 7.645337 0.022575
v 2.230398 7.647741 0.023194
v 2.233128 7.654907 0.023040
v 2.231670 7.660209 0.023248
v 2.225116 7.665317 0.023590
v 2.219478 7.665184 0.023831
v 2.212259 7.658575 0.024272
v 2.211494 7.654411 0.024465
v 2.215516 7.646388 0.024870
v 2.220667 7.644105 0.025104
v 2.227429 7.645147 0.025400
v 2.232009 7.650029 0.025661
v 2.233106 7.656234 0.025916
v 2.225934 7.665154 0.026386
v 2.216896 7.664176 0.026780
v 2.213536 7.661027 0.026973
v 2.211737 7.657034 0.027175
v 2.216525 7.645511 0.027755
v 2.222008 7.644087 0.027991
v 2.231535 7.649083 0.028444
v 2.228815 7.663527 0.029086
v 2.222953 7.665609 0.029332
v 2.216863 7.664216 0.029608
v 2.212801 7.659956 0.029857
v 2.211591 7.655720 0.030062
v 2.211456 7.653422 0.031101
v 2.212183 7.650912 0.030269
v 2.215924 7.646062 0.030549
v 2.220689 7.644183 0.030759
v 2.229083 7.646300 0.031131
v 2.232447 7.651155 0.031365
v 2.233047 7.655891 0.031558
v 2.231171 7.661072 0.031772
v 2.219326 7.665216 0.032321
v 2.211965 7.651701 0.033061
v 2.217430 7.645234 0.033450
v 2.226745 7.645054 0.033854
v 2.230478 7.647732 0.034032
v 2.232944 7.652857 0.034266
v 2.232387 7.658872 0.034496
v 2.229151 7.663136 0.034716
v 2.219826 7.665310 0.035122
v 2.210536 7.652432 0.035842
v 2.210280 7.654646 0.035837
v 2.210520 7.657205 0.035830
v 2.211624 7.656782 0.035785
v 2.211312 7.659713 0.035824
v 2.214023 7.661803 0.035723
v 2.212644 7.661983 0.035818
v 2.214138 7.663640 0.035814
v 2.217305 7.664359 0.035751
v 2.215737 7.664887 0.035811
v 2.217889 7.666013 0.035808
v 2.220237 7.666659 0.035807
v 2.221858 7.666821 0.035806
v 2.222893 7.666812 0.035807
v 2.222671 7.665663 0.035809
v 2.224082 7.666701 0.035807
v 2.226041 7.666249 0.035808
v 2.228090 7.665354 0.035811
v 2.230259 7.663860 0.035815
v 2.211122 7.650429 0.035848
v 2.212030 7.648622 0.035852
v 2.212706 7.647635 0.035855
v 2.213351 7.646844 0.035857
v 2.214514 7.645697 0.035860
v 2.216335 7.644411 0.035863
v 2.217984 7.643644 0.035865
v 2.219538 7.643155 0.035867
v 2.221341 7.642876 0.035868
v 2.222534 7.642846 0.035868
v 2.223968 7.642948 0.035868
v 2.225547 7.643287 0.035867
v 2.227083 7.643823 0.035866
v 2.228688 7.644673 0.035864
v 2.230005 7.645629 0.035861
v 2.231320 7.646902 0.035858
v 2.232166 7.648002 0.035855
v 2.232824 7.649050 0.035853
v 2.233733 7.651093 0.035848
v 2.234293 7.653872 0.035841
v 2.234246 7.656094 0.035835
v 2.233923 7.657887 0.035830
v 2.233322 7.659606 0.035826
v 2.232262 7.661574 0.035821
v 2.213295 7.661998 0.022230
v 2.211125 7.657812 0.022432
v 2.223249 7.644089 0.022844
v 2.227022 7.645073 0.023497
v 2.233087 7.655685 0.024008
v 2.219873 7.665342 0.024752
v 2.225268 7.666028 0.027357
v 2.217753 7.664637 0.027679
v 2.211967 7.658086 0.028064
v 2.215190 7.646699 0.028617
v 2.220240 7.644168 0.028855
v 2.225065 7.644445 0.028636
v 2.231967 7.648343 0.029371
v 2.210872 7.652387 0.031137
v 2.224634 7.644330 0.031413
v 2.229213 7.646492 0.032080
v 2.231834 7.660295 0.032670
v 2.225708 7.665826 0.032997
v 2.222116 7.665741 0.033134
v 2.212933 7.660229 0.033612
v 2.222092 7.644036 0.034588
v 2.226465 7.644926 0.034782
v 2.228802 7.663652 0.035712
v 2.232655 7.658174 0.035409
v 2.232806 7.652346 0.035184
v 2.230361 7.647602 0.034966
v 2.217875 7.645050 0.034409
v 2.214331 7.647541 0.034218
v 2.211417 7.653500 0.033926
v 2.216385 7.663827 0.033402
v 2.227795 7.664082 0.032900
v 2.233115 7.656349 0.032514
v 2.232168 7.650507 0.032276
v 2.217589 7.645039 0.031572
v 2.213783 7.648282 0.031348
v 2.212747 7.659864 0.030804
v 2.216258 7.663770 0.030580
v 2.220281 7.665360 0.030389
v 2.225279 7.665262 0.030179
v 2.230621 7.661780 0.029922
v 2.233100 7.656065 0.029677
v 2.231456 7.648766 0.029373
v 2.227885 7.645650 0.028643
v 2.211889 7.651651 0.028348
v 2.214233 7.661880 0.027865
v 2.223443 7.665560 0.027425
v 2.229211 7.663247 0.027178
v 2.231991 7.659394 0.026981
v 2.233249 7.654412 0.026789
v 2.230320 7.647435 0.026479
v 2.225729 7.644624 0.026266
v 2.221037 7.644062 0.026060
v 2.215017 7.646694 0.025786
v 2.212711 7.649977 0.024826
v 2.211637 7.656650 0.025306
v 2.214390 7.662265 0.025021
v 2.225780 7.665063 0.024504
v 2.230952 7.661386 0.024247
v 2.232331 7.650885 0.023812
v 2.217549 7.645158 0.023085
v 2.213841 7.648066 0.022875
v 2.211824 7.652356 0.022664
v 2.211891 7.658116 0.022409
v 2.209562 7.651825 0.098073
v 2.209642 7.651622 0.093335
v 2.210350 7.649635 0.093339
v 2.210305 7.649585 0.079202
v 2.209643 7.651582 0.079197
v 2.211307 7.647880 0.093344
v 2.212594 7.646208 0.093348
v 2.212555 7.646146 0.079211
v 2.211308 7.647840 0.079207
v 2.213970 7.644907 0.098045
v 2.215790 7.643602 0.079218
v 2.215073 7.644037 0.079217
v 2.214045 7.644791 0.079215
v 2.217389 7.642836 0.098101
v 2.217595 7.642785 0.093357
v 2.219620 7.642189 0.093359
v 2.219613 7.642121 0.079222
v 2.217594 7.642740 0.079220
v 2.223714 7.641988 0.093358
v 2.223716 7.641943 0.079223
v 2.221604 7.641862 0.079223
v 2.227686 7.643081 0.098055
v 2.227679 7.642976 0.079220
v 2.225681 7.642314 0.079222
v 2.229347 7.643971 0.098080
v 2.231311 7.645397 0.098094
v 2.231129 7.645225 0.079215
v 2.229427 7.643978 0.079218
v 2.232374 7.646586 0.098092
v 2.232474 7.646756 0.093349
v 2.233667 7.648496 0.093343
v 2.233668 7.648456 0.079207
v 2.232513 7.646689 0.079211
v 2.234526 7.650301 0.093339
v 2.235123 7.652324 0.093332
v 2.235166 7.652264 0.079197
v 2.234527 7.650260 0.079202
v 2.235381 7.654306 0.093329
v 2.235369 7.656375 0.079187
v 2.235382 7.654265 0.079192
v 2.235132 7.658166 0.098060
v 2.234956 7.658379 0.093320
v 2.234248 7.660367 0.093313
v 2.234249 7.660326 0.079177
v 2.235001 7.658353 0.079182
v 2.233291 7.662121 0.093309
v 2.232004 7.663793 0.093307
v 2.232027 7.663768 0.079168
v 2.233297 7.662083 0.079172
v 2.228831 7.666405 0.093307
v 2.228842 7.666352 0.079161
v 2.230552 7.665126 0.079164
v 2.227113 7.667234 0.098037
v 2.224996 7.667954 0.093293
v 2.224998 7.667814 0.079157
v 2.227004 7.667176 0.079158
v 2.222994 7.668071 0.093290
v 2.220884 7.668013 0.093294
v 2.220882 7.668000 0.079156
v 2.222996 7.668035 0.079156
v 2.218974 7.667709 0.098030
v 2.216847 7.666980 0.098017
v 2.216921 7.666944 0.079158
v 2.218919 7.667605 0.079157
v 2.215172 7.665983 0.093297
v 2.213499 7.664697 0.093301
v 2.213497 7.664660 0.079164
v 2.215158 7.665966 0.079161
v 2.210898 7.661496 0.079172
v 2.212125 7.663205 0.079168
v 2.210048 7.659949 0.098046
v 2.210072 7.659700 0.093313
v 2.209475 7.657677 0.093318
v 2.209450 7.657645 0.079182
v 2.210069 7.659662 0.079176
v 2.209122 7.655927 0.098058
v 2.209217 7.655695 0.093326
v 2.209275 7.653587 0.093327
v 2.209276 7.653546 0.079192
v 2.209172 7.655653 0.079187
f 1 828 2
f 1 2 228
f 87 898 3
f 3 898 4
f 5 4 898
f 4 5 7
f 7 5 6
f 7 6 903
f 7 903 8
f 7 8 9
f 9 8 2
f 9 2 10
f 10 2 828
f 10 828 12
f 10 12 11
f 11 12 13
f 13 12 14
f 15 16 14
f 14 16 13
f 16 15 17
f 17 15 22
f 17 22 18
f 18 22 837
f 18 837 19
f 18 19 20
f 20 19 23
f 23 19 21
f 23 21 841
f 23 841 25
f 23 25 24
f 24 25 27
f 27 25 26
f 27 26 28
f 27 28 30
f 30 28 29
f 30 29 31
f 31 29 32
f 31 32 34
f 33 34 32
f 34 33 35
f 35 33 849
f 35 849 36
f 35 36 37
f 37 36 852
f 37 852 39
f 37 39 38
f 38 39 853
f 38 853 41
f 41 853 856
f 41 856 40
f 41 40 42
f 42 40 45
f 45 40 44
f 45 44 43
f 46 47 43
f 43 47 45
f 47 46 48
f 47 48 49
f 49 48 53
f 49 53 50
f 49 50 51
f 51 50 243
f 51 243 868
f 51 868 52
f 52 868 54
f 52 54 55
f 55 54 57
f 55 57 58
f 58 57 56
f 59 58 56
f 58 59 60
f 60 59 61
f 60 61 63
f 63 61 65
f 63 65 62
f 63 62 66
f 66 62 64
f 66 64 880
f 66 880 67
f 67 880 68
f 67 68 70
f 70 68 69
f 70 69 71
f 70 71 72
f 72 71 74
f 72 74 73
f 73 74 76
f 76 74 75
f 76 75 888
f 889 77 888
f 888 77 76
f 77 889 78
f 78 889 81
f 78 81 79
f 79 81 80
f 79 80 83
f 83 80 82
f 83 82 84
f 83 84 3
f 3 84 87
f 85 86 87
f 244 88 240
f 88 244 89
f 88 89 90
f 89 244 92
f 92 244 91
f 92 91 93
f 92 93 96
f 91 94 93
f 92 96 95
f 95 96 97
f 95 97 98
f 99 100 97
f 97 100 98
f 103 101 100
f 101 103 102
f 102 103 238
f 238 103 104
f 104 103 105
f 104 105 108
f 108 105 106
f 108 106 109
f 105 107 106
f 108 109 110
f 110 109 111
f 110 111 112
f 112 111 113
f 114 115 111
f 111 115 113
f 115 116 113
f 113 116 117
f 117 116 118
f 117 118 119
f 116 120 118
f 118 120 123
f 123 120 122
f 120 121 122
f 123 122 125
f 123 125 124
f 124 125 127
f 124 127 126
f 127 128 126
f 126 128 129
f 126 129 130
f 130 129 131
f 130 131 132
f 132 131 134
f 132 134 133
f 133 134 135
f 133 135 138
f 138 135 136
f 138 136 137
f 138 137 140
f 138 140 139
f 139 140 141
f 141 140 143
f 141 143 142
f 144 145 143
f 143 145 142
f 142 145 147
f 147 145 146
f 147 146 148
f 147 148 149
f 146 151 148
f 148 151 150
f 150 151 152
f 150 152 153
f 153 152 154
f 153 154 155
f 155 154 157
f 155 157 156
f 156 157 158
f 158 157 159
f 158 159 160
f 160 159 161
f 161 159 162
f 161 162 163
f 163 162 164
f 163 164 165
f 165 164 166
f 165 166 167
f 167 166 168
f 152 498 154
f 159 169 162
f 166 416 168
f 167 168 170
f 170 168 171
f 170 171 172
f 172 171 175
f 172 175 173
f 171 174 175
f 176 177 174
f 174 177 175
f 175 177 178
f 178 177 179
f 178 179 180
f 180 179 181
f 180 181 231
f 231 181 182
f 231 182 183
f 183 182 184
f 183 184 185
f 185 184 186
f 185 186 187
f 185 187 188
f 188 187 189
f 189 187 190
f 189 190 191
f 191 190 192
f 191 192 193
f 191 193 194
f 194 193 195
f 194 195 196
f 196 195 197
f 196 197 86
f 86 197 198
f 198 197 199
f 198 199 203
f 203 199 200
f 199 201 200
f 205 202 200
f 200 202 203
f 203 202 204
f 202 205 208
f 208 205 206
f 207 209 206
f 206 209 208
f 208 209 210
f 210 209 212
f 210 212 211
f 211 212 214
f 214 212 213
f 214 213 215
f 215 213 216
f 215 216 217
f 217 216 218
f 213 219 216
f 217 218 222
f 222 218 220
f 222 220 221
f 222 221 223
f 223 221 224
f 223 225 222
f 222 225 226
f 226 225 227
f 227 225 228
f 228 225 392
f 227 229 226
f 211 230 210
f 196 86 85
f 180 231 232
f 167 233 165
f 155 234 153
f 139 881 138
f 132 235 130
f 124 877 123
f 112 236 110
f 237 238 104
f 239 98 101
f 101 98 100
f 242 240 868
f 868 240 88
f 241 242 243
f 243 242 868
f 244 240 245
f 245 240 242
f 245 242 246
f 242 241 246
f 245 246 247
f 247 246 248
f 247 248 249
f 249 248 250
f 250 248 252
f 252 248 251
f 252 251 491
f 491 251 253
f 491 253 254
f 254 253 255
f 254 255 256
f 256 255 257
f 256 257 260
f 260 257 258
f 260 258 261
f 258 259 261
f 260 261 262
f 260 262 263
f 263 262 264
f 264 262 265
f 265 262 266
f 265 266 268
f 268 266 267
f 265 268 270
f 270 268 269
f 270 269 271
f 268 273 269
f 269 273 272
f 272 273 274
f 272 274 275
f 272 275 276
f 272 276 277
f 277 276 278
f 277 278 279
f 279 278 282
f 279 282 280
f 280 282 281
f 281 282 283
f 281 283 286
f 286 283 284
f 286 284 285
f 286 285 287
f 286 287 288
f 288 287 289
f 289 287 290
f 289 290 291
f 291 290 292
f 292 290 293
f 291 292 294
f 294 292 295
f 294 295 296
f 296 295 297
f 296 297 298
f 298 297 299
f 297 300 299
f 298 299 301
f 301 299 302
f 301 302 303
f 303 302 304
f 303 304 305
f 302 307 304
f 304 307 306
f 308 309 307
f 307 309 306
f 306 309 310
f 310 309 311
f 310 311 312
f 312 311 313
f 312 313 314
f 314 313 315
f 314 315 316
f 314 316 317
f 317 316 318
f 317 318 320
f 317 320 319
f 319 320 321
f 319 321 322
f 322 321 323
f 322 323 324
f 324 323 325
f 324 325 326
f 326 325 327
f 320 328 321
f 325 28 327
f 326 327 329
f 326 329 330
f 330 329 331
f 331 329 332
f 332 329 333
f 332 333 336
f 334 335 333
f 333 335 336
f 336 335 337
f 336 337 470
f 335 339 337
f 337 339 338
f 338 339 340
f 338 340 343
f 343 340 341
f 340 342 341
f 343 341 344
f 343 344 345
f 345 344 346
f 345 346 347
f 347 346 348
f 348 346 349
f 348 349 350
f 351 352 349
f 349 352 350
f 350 352 353
f 353 352 354
f 353 354 355
f 359 356 355
f 355 356 357
f 356 359 358
f 358 359 360
f 358 360 361
f 361 360 362
f 361 362 364
f 360 363 362
f 361 364 365
f 365 364 366
f 365 366 367
f 367 366 368
f 367 368 369
f 369 368 370
f 369 370 371
f 371 370 372
f 371 372 373
f 366 374 368
f 372 370 375
f 375 370 376
f 375 376 378
f 378 376 377
f 375 378 379
f 375 379 380
f 375 380 381
f 382 383 380
f 380 383 381
f 386 384 383
f 384 386 385
f 385 386 387
f 387 386 388
f 387 388 389
f 386 390 388
f 388 390 392
f 392 390 1
f 1 390 391
f 392 1 228
f 393 381 384
f 384 381 383
f 367 394 365
f 356 395 357
f 357 353 355
f 322 396 319
f 314 397 312
f 298 398 296
f 264 486 263
f 249 399 247
f 91 244 400
f 400 244 401
f 401 244 245
f 401 245 247
f 405 94 400
f 400 94 91
f 426 403 402
f 402 403 401
f 401 403 400
f 400 403 405
f 405 403 404
f 406 414 408
f 406 408 407
f 407 408 409
f 409 408 455
f 455 408 410
f 410 408 677
f 410 677 411
f 411 677 678
f 414 406 412
f 414 412 413
f 414 413 415
f 414 415 416
f 414 416 417
f 414 417 419
f 419 417 418
f 419 418 420
f 419 420 144
f 419 144 500
f 419 500 522
f 500 421 522
f 522 421 422
f 522 422 504
f 522 504 423
f 522 423 520
f 520 423 424
f 520 424 425
f 520 425 404
f 520 404 518
f 518 404 403
f 518 403 426
f 518 426 427
f 518 427 516
f 516 427 428
f 516 428 486
f 516 486 429
f 516 429 430
f 516 430 431
f 516 431 432
f 516 432 514
f 514 432 433
f 514 433 398
f 514 398 478
f 514 478 434
f 514 434 435
f 435 434 436
f 435 436 437
f 437 436 396
f 437 396 438
f 437 438 439
f 437 439 470
f 437 470 441
f 441 470 440
f 441 440 442
f 441 442 466
f 441 466 446
f 446 466 443
f 446 443 444
f 446 444 445
f 446 445 678
f 678 445 447
f 678 447 411
f 412 406 448
f 448 406 449
f 449 406 450
f 448 192 190
f 448 190 412
f 192 448 193
f 193 448 449
f 450 199 449
f 449 199 197
f 449 197 195
f 449 195 193
f 450 201 199
f 201 450 406
f 201 406 200
f 200 406 407
f 200 407 205
f 205 407 206
f 451 207 206
f 451 206 407
f 207 451 209
f 209 451 453
f 452 213 453
f 453 213 212
f 453 212 209
f 454 219 452
f 452 219 213
f 407 409 451
f 451 409 453
f 453 409 454
f 454 409 455
f 454 452 453
f 219 454 216
f 216 454 455
f 216 455 218
f 218 455 220
f 220 455 410
f 220 410 221
f 224 221 456
f 456 221 410
f 224 456 223
f 223 456 457
f 388 392 458
f 458 392 225
f 458 225 457
f 457 225 223
f 459 389 458
f 458 389 388
f 459 458 411
f 459 411 447
f 389 459 387
f 387 459 447
f 387 447 385
f 385 447 384
f 393 384 460
f 460 384 447
f 393 460 381
f 381 460 461
f 462 372 375
f 462 375 381
f 462 381 461
f 462 373 372
f 447 445 460
f 460 445 461
f 461 445 462
f 373 462 445
f 373 445 371
f 371 445 369
f 369 445 444
f 369 444 367
f 463 394 367
f 463 367 444
f 394 463 365
f 365 463 465
f 356 358 464
f 464 358 465
f 465 358 361
f 465 361 365
f 467 395 464
f 464 395 356
f 444 443 463
f 463 443 465
f 465 443 464
f 464 443 467
f 467 443 466
f 395 467 357
f 357 467 466
f 357 466 353
f 353 466 442
f 353 442 350
f 350 442 348
f 347 348 440
f 440 348 442
f 347 440 345
f 345 440 468
f 469 337 468
f 468 337 338
f 468 338 343
f 468 343 345
f 469 470 337
f 468 440 470
f 470 469 468
f 336 470 439
f 336 439 332
f 332 439 331
f 471 330 331
f 471 331 439
f 330 471 326
f 326 471 472
f 322 324 473
f 473 324 326
f 473 326 472
f 473 396 322
f 439 438 471
f 471 438 472
f 472 438 473
f 473 438 396
f 319 396 317
f 317 396 436
f 317 436 314
f 397 314 474
f 474 314 436
f 397 474 312
f 312 474 476
f 304 306 475
f 475 306 476
f 476 306 310
f 476 310 312
f 477 305 475
f 475 305 304
f 436 434 474
f 474 434 476
f 476 434 475
f 475 434 477
f 477 434 478
f 305 477 303
f 303 477 478
f 303 478 301
f 301 478 398
f 301 398 298
f 296 398 479
f 289 291 480
f 480 291 294
f 480 294 296
f 480 296 479
f 432 288 480
f 480 288 289
f 398 433 479
f 479 433 480
f 480 433 432
f 432 286 288
f 286 432 431
f 286 431 281
f 481 280 281
f 481 281 431
f 280 481 279
f 279 481 482
f 483 269 484
f 484 269 272
f 484 272 277
f 484 277 482
f 482 277 279
f 485 271 483
f 483 271 269
f 431 430 481
f 481 430 482
f 482 430 484
f 484 430 485
f 485 430 429
f 485 483 484
f 271 485 270
f 270 485 429
f 270 429 265
f 265 429 264
f 264 429 486
f 263 486 487
f 488 254 489
f 489 254 256
f 489 256 260
f 489 260 487
f 487 260 263
f 490 491 488
f 488 491 254
f 486 428 487
f 487 428 489
f 489 428 488
f 488 428 490
f 490 428 427
f 252 491 490
f 252 490 427
f 252 427 250
f 250 427 426
f 250 426 249
f 402 399 426
f 426 399 249
f 399 402 247
f 247 402 401
f 411 458 457
f 411 457 456
f 456 410 411
f 187 413 412
f 187 412 190
f 413 187 186
f 415 413 492
f 492 413 493
f 176 174 415
f 176 415 177
f 177 415 492
f 184 182 493
f 493 182 181
f 493 181 492
f 492 181 179
f 492 179 177
f 413 186 493
f 493 186 184
f 168 416 171
f 171 416 415
f 171 415 174
f 418 417 494
f 494 417 495
f 495 417 496
f 496 417 416
f 169 159 494
f 494 159 418
f 169 494 162
f 162 494 495
f 496 166 164
f 496 164 495
f 495 164 162
f 496 416 166
f 154 420 157
f 157 420 418
f 157 418 159
f 498 420 154
f 144 420 497
f 497 420 498
f 145 144 497
f 498 152 151
f 498 151 497
f 497 151 146
f 497 146 145
f 137 500 140
f 140 500 144
f 140 144 143
f 136 499 500
f 136 500 137
f 422 421 501
f 501 421 502
f 502 421 503
f 503 421 499
f 499 421 500
f 128 127 501
f 501 127 422
f 128 501 129
f 129 501 502
f 503 135 502
f 502 135 134
f 502 134 131
f 502 131 129
f 499 136 503
f 503 136 135
f 122 504 422
f 122 422 125
f 125 422 127
f 121 504 122
f 424 423 505
f 505 423 506
f 506 423 507
f 507 423 504
f 114 111 505
f 505 111 424
f 114 505 115
f 115 505 506
f 507 120 116
f 507 116 115
f 507 115 506
f 504 121 507
f 507 121 120
f 106 424 109
f 109 424 111
f 107 508 106
f 106 508 424
f 404 425 509
f 509 425 510
f 510 425 511
f 511 425 508
f 508 425 424
f 99 97 509
f 509 97 404
f 99 509 100
f 100 509 510
f 511 105 103
f 511 103 100
f 511 100 510
f 508 107 511
f 511 107 105
f 93 404 96
f 96 404 97
f 94 405 93
f 93 405 404
f 441 446 676
f 441 676 437
f 437 676 512
f 437 512 435
f 435 512 513
f 435 513 514
f 514 513 515
f 514 515 516
f 516 515 517
f 518 517 519
f 520 518 519
f 520 519 521
f 522 523 524
f 521 523 522
f 524 523 674
f 674 525 524
f 525 674 526
f 525 526 765
f 765 527 766
f 765 526 527
f 766 527 529
f 766 529 528
f 528 530 660
f 528 529 530
f 660 530 531
f 660 531 659
f 659 533 658
f 534 533 535
f 535 538 534
f 534 538 536
f 536 537 539
f 536 539 540
f 538 537 536
f 540 539 541
f 541 657 540
f 657 543 542
f 542 543 544
f 657 541 543
f 655 545 547
f 547 545 546
f 548 547 546
f 548 549 654
f 654 549 551
f 550 551 552
f 552 652 550
f 552 553 652
f 553 554 652
f 553 556 554
f 554 556 555
f 556 558 555
f 555 558 557
f 558 559 557
f 559 562 560
f 560 562 561
f 561 562 563
f 651 563 564
f 565 651 564
f 566 651 565
f 565 567 568
f 572 570 571
f 571 573 572
f 573 574 575
f 575 574 576
f 571 574 573
f 650 576 577
f 650 577 578
f 580 649 579
f 580 579 581
f 581 648 580
f 582 583 584
f 584 583 585
f 585 586 584
f 588 586 585
f 587 588 777
f 777 588 589
f 777 590 591
f 589 590 777
f 591 590 592
f 591 592 647
f 647 592 668
f 647 668 593
f 593 594 595
f 595 594 596
f 595 596 597
f 596 598 597
f 599 598 600
f 599 600 646
f 646 600 601
f 601 778 646
f 601 602 778
f 602 603 778
f 603 604 605
f 604 664 605
f 607 608 609
f 611 609 610
f 611 610 612
f 662 612 610
f 662 613 612
f 613 614 612
f 614 613 615
f 614 615 781
f 781 615 617
f 617 616 781
f 616 618 620
f 620 618 619
f 782 621 622
f 622 621 623
f 622 623 624
f 623 626 624
f 625 624 626
f 625 626 627
f 625 627 645
f 645 627 628
f 645 628 644
f 643 631 632
f 632 631 633
f 642 635 634
f 634 635 636
f 636 635 637
f 636 637 638
f 638 639 640
f 640 639 641
f 635 642 633
f 642 632 633
f 631 643 630
f 630 643 629
f 629 643 644
f 629 644 628
f 621 782 619
f 619 782 620
f 618 616 617
f 611 607 609
f 607 606 608
f 608 606 664
f 606 605 664
f 604 603 602
f 599 597 598
f 594 593 668
f 587 586 588
f 583 582 581
f 581 582 648
f 579 649 578
f 578 649 650
f 576 650 575
f 570 572 771
f 570 771 569
f 568 569 771
f 569 568 567
f 568 566 565
f 563 651 561
f 559 560 557
f 551 550 653
f 551 653 654
f 548 654 547
f 545 655 656
f 545 656 544
f 544 656 542
f 533 534 658
f 533 659 532
f 532 659 531
f 522 520 521
f 518 516 517
f 629 628 725
f 721 621 661
f 721 623 621
f 621 619 618
f 621 618 661
f 661 618 720
f 618 617 720
f 720 617 615
f 613 662 718
f 717 610 716
f 610 609 716
f 716 609 608
f 663 608 715
f 715 608 664
f 714 601 665
f 665 601 600
f 665 600 666
f 714 602 601
f 598 596 713
f 596 594 667
f 594 668 712
f 589 588 709
f 577 576 703
f 703 576 702
f 576 574 702
f 702 574 571
f 669 565 670
f 565 564 670
f 699 562 807
f 562 559 807
f 698 559 558
f 558 556 697
f 697 556 553
f 697 553 671
f 671 553 552
f 551 549 694
f 694 549 548
f 546 545 693
f 543 541 692
f 539 537 535
f 535 537 538
f 533 532 689
f 689 532 531
f 527 526 673
f 526 674 673
f 685 674 684
f 674 523 684
f 523 521 684
f 684 521 675
f 680 513 512
f 446 678 679
f 446 679 676
f 676 679 512
f 679 767 512
f 767 680 512
f 513 680 681
f 513 681 515
f 515 682 517
f 517 682 519
f 683 519 682
f 683 675 519
f 519 675 521
f 674 685 673
f 527 673 686
f 527 686 529
f 529 686 687
f 529 687 530
f 687 818 530
f 688 530 818
f 530 688 531
f 531 688 689
f 533 689 690
f 533 690 535
f 535 690 539
f 539 690 691
f 539 691 541
f 691 692 541
f 672 544 543
f 672 543 692
f 672 693 544
f 544 693 545
f 548 546 694
f 551 694 695
f 551 695 696
f 551 696 552
f 696 671 552
f 558 697 698
f 698 776 559
f 776 807 559
f 562 699 563
f 699 670 563
f 563 670 564
f 565 669 567
f 669 700 567
f 567 700 569
f 569 700 570
f 700 701 570
f 570 701 571
f 571 701 702
f 703 578 577
f 703 704 578
f 578 704 706
f 578 706 579
f 579 706 581
f 581 706 707
f 581 707 583
f 583 707 708
f 583 708 585
f 585 708 779
f 585 779 709
f 709 588 585
f 710 590 589
f 710 589 709
f 590 710 711
f 590 711 592
f 711 712 592
f 592 712 668
f 594 712 667
f 667 713 596
f 598 713 666
f 598 666 600
f 604 602 714
f 604 715 664
f 663 716 608
f 717 662 610
f 662 717 718
f 613 718 719
f 613 719 615
f 615 719 720
f 623 721 626
f 721 730 626
f 626 730 727
f 626 727 627
f 627 727 628
f 727 725 628
f 722 629 725
f 722 725 723
f 723 725 724
f 724 725 726
f 726 725 727
f 726 727 728
f 728 727 729
f 729 727 731
f 731 727 730
f 731 730 732
f 732 730 736
f 732 736 733
f 733 736 734
f 734 736 735
f 735 736 737
f 737 736 738
f 739 738 787
f 739 787 740
f 740 787 641
f 740 641 764
f 741 629 722
f 629 741 742
f 629 742 630
f 630 742 743
f 630 743 744
f 630 744 631
f 631 744 745
f 631 745 746
f 631 746 747
f 631 747 748
f 631 748 633
f 633 748 749
f 633 749 750
f 633 750 751
f 633 751 635
f 635 751 752
f 635 752 753
f 635 753 754
f 635 754 755
f 635 755 637
f 637 755 756
f 637 756 757
f 637 757 758
f 637 758 638
f 638 758 759
f 638 759 639
f 639 759 760
f 639 760 761
f 639 761 762
f 639 762 763
f 639 763 641
f 641 763 764
f 787 738 736
f 762 761 52
f 52 761 51
f 51 761 760
f 51 760 49
f 49 760 759
f 49 759 47
f 47 759 45
f 45 759 758
f 45 758 42
f 42 758 757
f 42 757 41
f 41 757 756
f 41 756 755
f 41 755 38
f 38 755 37
f 37 755 754
f 37 754 35
f 35 754 753
f 35 753 752
f 35 752 34
f 34 752 751
f 34 751 31
f 31 751 750
f 31 750 30
f 30 750 749
f 30 749 27
f 27 749 748
f 27 748 24
f 24 748 747
f 24 747 23
f 23 747 746
f 23 746 20
f 20 746 745
f 20 745 18
f 18 745 744
f 18 744 17
f 17 744 743
f 17 743 16
f 16 743 742
f 16 742 13
f 13 742 741
f 13 741 11
f 11 741 722
f 11 722 10
f 10 722 9
f 9 722 723
f 9 723 7
f 7 723 724
f 7 724 4
f 4 724 726
f 4 726 3
f 3 726 728
f 3 728 83
f 83 728 729
f 83 729 79
f 79 729 731
f 79 731 78
f 78 731 732
f 78 732 77
f 77 732 733
f 77 733 76
f 76 733 734
f 76 734 73
f 73 734 735
f 73 735 72
f 72 735 737
f 72 737 70
f 70 737 738
f 70 738 67
f 67 738 66
f 66 738 739
f 66 739 740
f 66 740 63
f 63 740 60
f 60 740 764
f 60 764 58
f 58 764 763
f 58 763 55
f 55 763 762
f 55 762 52
f 419 522 524
f 419 524 525
f 419 525 414
f 765 766 827
f 826 766 528
f 826 528 660
f 658 534 768
f 536 540 681
f 540 823 681
f 540 657 823
f 823 657 769
f 542 656 822
f 656 655 822
f 655 547 821
f 821 547 770
f 550 652 819
f 817 555 557
f 817 557 816
f 560 561 814
f 572 573 772
f 575 650 773
f 808 649 580
f 808 580 774
f 774 580 582
f 648 582 580
f 775 586 776
f 587 777 806
f 777 591 806
f 806 591 805
f 805 591 647
f 805 593 804
f 593 595 803
f 802 597 801
f 599 646 800
f 800 646 705
f 705 646 778
f 798 605 606
f 779 607 780
f 607 611 780
f 780 611 612
f 614 781 796
f 781 616 795
f 795 616 620
f 795 620 782
f 795 782 783
f 782 622 783
f 783 622 794
f 624 625 794
f 794 625 784
f 625 645 784
f 784 645 793
f 644 793 645
f 632 642 785
f 785 642 634
f 785 634 786
f 638 640 789
f 640 641 788
f 641 787 788
f 788 789 640
f 638 789 636
f 636 789 790
f 636 790 634
f 634 790 786
f 632 785 791
f 632 791 792
f 632 792 643
f 643 792 793
f 643 793 644
f 624 794 622
f 614 796 612
f 612 796 797
f 612 797 780
f 606 607 798
f 605 798 603
f 603 798 799
f 603 799 778
f 778 799 705
f 800 801 599
f 599 801 597
f 597 802 595
f 595 802 803
f 593 803 804
f 593 805 647
f 587 806 807
f 587 807 586
f 807 776 586
f 586 775 584
f 584 775 582
f 582 775 774
f 649 808 773
f 649 773 650
f 773 809 575
f 575 809 573
f 809 772 573
f 772 810 572
f 572 810 771
f 810 811 771
f 771 811 568
f 568 811 812
f 568 812 566
f 566 812 813
f 566 813 651
f 813 814 561
f 813 561 651
f 560 814 815
f 560 815 816
f 560 816 557
f 555 817 554
f 554 817 818
f 652 554 819
f 819 554 687
f 819 820 550
f 550 820 653
f 653 820 654
f 654 820 770
f 654 770 547
f 655 821 822
f 822 769 542
f 542 769 657
f 536 681 768
f 536 768 534
f 658 768 767
f 658 824 659
f 659 824 660
f 824 825 660
f 660 825 826
f 826 827 766
f 765 827 414
f 765 414 525
f 414 827 408
f 408 827 826
f 408 826 677
f 677 826 825
f 677 825 678
f 678 825 824
f 678 824 679
f 679 824 658
f 679 658 767
f 767 768 680
f 680 768 681
f 681 823 515
f 515 823 682
f 682 823 769
f 682 769 683
f 683 769 822
f 683 822 675
f 675 822 821
f 675 821 684
f 684 821 770
f 684 770 685
f 685 770 673
f 673 770 820
f 673 820 686
f 686 820 819
f 686 819 687
f 687 554 818
f 818 817 688
f 688 817 689
f 689 817 816
f 689 816 690
f 690 816 815
f 690 815 814
f 690 814 691
f 691 814 813
f 691 813 692
f 692 813 812
f 692 812 672
f 672 812 811
f 672 811 693
f 693 811 810
f 693 810 546
f 546 810 772
f 546 772 694
f 694 772 809
f 694 809 695
f 695 809 773
f 695 773 696
f 696 773 808
f 696 808 671
f 671 808 774
f 671 774 697
f 697 774 775
f 697 775 698
f 698 775 776
f 807 806 699
f 699 806 670
f 670 806 805
f 670 805 669
f 669 805 804
f 669 804 700
f 700 804 803
f 700 803 701
f 701 803 802
f 701 802 702
f 702 802 801
f 702 801 703
f 703 801 800
f 703 800 704
f 704 800 705
f 704 705 706
f 706 705 799
f 706 799 707
f 707 799 798
f 707 798 708
f 708 798 607
f 708 607 779
f 709 779 780
f 709 780 797
f 709 797 710
f 710 797 796
f 710 796 711
f 711 796 712
f 712 796 781
f 712 781 795
f 712 795 667
f 667 795 783
f 667 783 713
f 713 783 794
f 713 794 666
f 666 794 784
f 666 784 665
f 665 784 793
f 665 793 714
f 714 793 792
f 714 792 604
f 604 792 715
f 715 792 791
f 715 791 663
f 663 791 785
f 663 785 786
f 663 786 716
f 716 786 790
f 716 790 717
f 717 790 789
f 717 789 718
f 718 789 788
f 718 788 719
f 719 788 787
f 719 787 720
f 720 787 661
f 661 787 736
f 661 736 721
f 721 736 730
f 828 1 829
f 829 1 391
f 14 12 830
f 830 12 831
f 831 12 832
f 832 12 829
f 829 12 828
f 382 380 830
f 830 380 14
f 382 830 383
f 383 830 831
f 832 390 831
f 831 390 386
f 831 386 383
f 829 391 832
f 832 391 390
f 380 379 14
f 14 379 378
f 14 378 833
f 833 378 377
f 22 15 834
f 834 15 835
f 835 15 836
f 836 15 833
f 833 15 14
f 834 374 22
f 22 374 366
f 374 834 368
f 368 834 835
f 836 376 835
f 835 376 370
f 835 370 368
f 833 377 836
f 836 377 376
f 366 364 22
f 22 364 362
f 22 362 837
f 837 362 363
f 21 19 351
f 351 19 838
f 838 19 839
f 839 19 840
f 840 19 837
f 351 349 21
f 352 351 838
f 360 359 840
f 840 359 839
f 839 359 355
f 839 355 354
f 839 354 838
f 838 354 352
f 837 363 840
f 840 363 360
f 21 349 346
f 21 346 344
f 21 344 841
f 841 344 341
f 841 341 342
f 841 342 842
f 26 25 843
f 843 25 844
f 844 25 845
f 845 25 842
f 842 25 841
f 334 333 843
f 843 333 26
f 334 843 335
f 335 843 844
f 340 339 845
f 845 339 844
f 844 339 335
f 842 342 845
f 845 342 340
f 333 329 26
f 26 329 28
f 28 329 327
f 32 29 846
f 846 29 847
f 847 29 848
f 848 29 28
f 328 320 846
f 846 320 32
f 328 846 321
f 321 846 847
f 325 323 848
f 848 323 847
f 847 323 321
f 848 28 325
f 320 318 32
f 32 318 316
f 32 316 33
f 33 316 315
f 850 849 33
f 850 33 851
f 308 307 849
f 849 307 36
f 308 849 309
f 309 849 850
f 313 311 851
f 851 311 850
f 850 311 309
f 33 315 851
f 851 315 313
f 307 302 36
f 36 302 852
f 852 302 299
f 852 299 300
f 854 39 852
f 852 855 854
f 39 293 853
f 853 293 290
f 292 293 854
f 854 293 39
f 855 297 854
f 854 297 295
f 854 295 292
f 852 300 855
f 855 300 297
f 853 290 287
f 853 287 856
f 856 287 285
f 856 285 857
f 857 285 284
f 44 40 858
f 858 40 859
f 859 40 860
f 860 40 857
f 857 40 856
f 858 275 44
f 44 275 274
f 275 858 276
f 276 858 859
f 283 282 860
f 860 282 278
f 860 278 859
f 859 278 276
f 857 284 860
f 860 284 283
f 274 273 44
f 44 273 43
f 43 273 268
f 43 268 861
f 861 268 267
f 48 46 862
f 862 46 863
f 863 46 864
f 864 46 861
f 861 46 43
f 259 258 862
f 862 258 48
f 259 862 261
f 261 862 863
f 266 262 864
f 864 262 863
f 863 262 261
f 861 267 864
f 864 267 266
f 258 257 48
f 48 257 53
f 53 257 255
f 53 255 865
f 865 255 253
f 243 50 241
f 241 50 866
f 866 50 867
f 867 50 865
f 865 50 53
f 246 241 866
f 251 248 867
f 867 248 866
f 866 248 246
f 865 253 867
f 867 253 251
f 868 88 869
f 869 88 90
f 57 54 870
f 870 54 871
f 871 54 872
f 872 54 869
f 869 54 868
f 239 101 870
f 870 101 57
f 239 870 98
f 98 870 871
f 89 92 872
f 872 92 95
f 872 95 871
f 871 95 98
f 869 90 872
f 872 90 89
f 101 102 57
f 57 102 56
f 56 102 238
f 56 238 873
f 873 238 237
f 61 59 874
f 874 59 875
f 875 59 876
f 876 59 873
f 873 59 56
f 874 236 112
f 874 112 61
f 236 874 110
f 110 874 875
f 876 104 875
f 875 104 108
f 875 108 110
f 873 237 876
f 876 237 104
f 112 113 61
f 61 113 117
f 61 117 65
f 65 117 119
f 64 62 877
f 877 62 878
f 878 62 879
f 879 62 65
f 877 124 64
f 123 877 878
f 879 118 878
f 878 118 123
f 65 119 879
f 879 119 118
f 64 124 126
f 64 126 880
f 880 126 130
f 880 130 235
f 69 68 881
f 881 68 882
f 882 68 883
f 883 68 880
f 881 139 69
f 138 881 882
f 132 133 883
f 883 133 882
f 882 133 138
f 880 235 883
f 883 235 132
f 139 141 69
f 69 141 71
f 71 141 142
f 71 142 147
f 71 147 884
f 884 147 149
f 75 74 885
f 885 74 886
f 886 74 887
f 887 74 884
f 884 74 71
f 234 155 885
f 885 155 75
f 153 234 886
f 886 234 885
f 148 150 887
f 887 150 886
f 886 150 153
f 884 149 887
f 887 149 148
f 155 156 75
f 75 156 888
f 888 156 158
f 888 158 160
f 890 889 891
f 891 889 888
f 233 167 889
f 233 889 165
f 165 889 890
f 161 163 891
f 891 163 890
f 890 163 165
f 891 888 161
f 161 888 160
f 889 167 170
f 889 170 81
f 81 170 172
f 81 172 892
f 892 172 173
f 82 80 893
f 893 80 894
f 894 80 895
f 895 80 892
f 892 80 81
f 232 231 893
f 893 231 82
f 232 893 180
f 180 893 894
f 895 175 178
f 895 178 894
f 180 894 178
f 892 173 895
f 895 173 175
f 231 183 82
f 82 183 84
f 84 183 185
f 84 185 188
f 87 84 896
f 896 84 897
f 85 87 196
f 196 87 896
f 189 191 897
f 897 191 896
f 896 191 194
f 896 194 196
f 84 188 897
f 897 188 189
f 86 198 87
f 87 198 898
f 898 198 203
f 898 203 899
f 899 203 204
f 6 5 900
f 900 5 901
f 901 5 902
f 902 5 899
f 899 5 898
f 900 230 6
f 6 230 211
f 230 900 210
f 210 900 901
f 902 202 208
f 902 208 901
f 901 208 210
f 899 204 902
f 902 204 202
f 6 211 903
f 903 211 214
f 903 214 904
f 904 214 215
f 2 8 905
f 905 8 906
f 906 8 907
f 907 8 904
f 904 8 903
f 905 229 227
f 905 227 2
f 226 229 906
f 906 229 905
f 217 222 907
f 907 222 906
f 906 222 226
f 904 215 907
f 907 215 217
f 228 2 227
