# USD → MuJoCo (world-space, simplified)
v 1.608562 7.652292 0.096820
v 1.610807 7.661354 0.098057
v 1.611935 7.661068 0.098022
v 1.611127 7.659446 0.098026
v 1.609713 7.658686 0.098028
v 1.610596 7.657688 0.098030
v 1.609407 7.657496 0.098059
v 1.610385 7.656493 0.098034
v 1.610290 7.655087 0.098037
v 1.609274 7.653502 0.098039
v 1.610419 7.653210 0.098042
v 1.609934 7.650656 0.098048
v 1.610895 7.651242 0.098047
v 1.611752 7.649253 0.098052
v 1.610364 7.649390 0.098089
v 1.611209 7.647937 0.098049
v 1.613003 7.647410 0.098057
v 1.612626 7.646163 0.098061
v 1.614563 7.645822 0.098061
v 1.614917 7.644187 0.098065
v 1.615931 7.643486 0.098088
v 1.616577 7.644452 0.098065
v 1.618443 7.643651 0.098067
v 1.619809 7.642076 0.098102
v 1.621396 7.641917 0.098103
v 1.620402 7.643155 0.098068
v 1.622620 7.641919 0.098072
v 1.622233 7.643020 0.098069
v 1.625648 7.643499 0.098068
v 1.624042 7.643132 0.098069
v 1.625640 7.642300 0.098065
v 1.627757 7.643050 0.098102
v 1.627152 7.644027 0.098067
v 1.628934 7.645014 0.098064
v 1.629381 7.643935 0.098066
v 1.631297 7.645409 0.098093
v 1.630523 7.646256 0.098061
v 1.632395 7.646565 0.098093
v 1.633113 7.647606 0.098058
v 1.631997 7.647930 0.098057
v 1.632861 7.649315 0.098054
v 1.633845 7.648651 0.098086
v 1.633538 7.650774 0.098050
v 1.634047 7.652529 0.098045
v 1.634275 7.654132 0.098041
v 1.635406 7.655375 0.098038
v 1.634276 7.655952 0.098037
v 1.635475 7.654102 0.098065
v 1.633948 7.657949 0.098032
v 1.635023 7.658353 0.098025
v 1.633495 7.662015 0.098043
v 1.634235 7.660446 0.098027
v 1.633346 7.662148 0.098018
v 1.632072 7.661980 0.098021
v 1.633132 7.660235 0.098026
v 1.631058 7.663229 0.098018
v 1.631983 7.663879 0.098041
v 1.629392 7.664710 0.098014
v 1.629742 7.665798 0.098011
v 1.627986 7.665574 0.098012
v 1.628644 7.666496 0.098044
v 1.627112 7.667254 0.098025
v 1.626728 7.666172 0.098010
v 1.624588 7.666804 0.098008
v 1.624788 7.667952 0.098036
v 1.622761 7.666999 0.098008
v 1.620754 7.666932 0.098008
v 1.620777 7.668058 0.098034
v 1.619100 7.667781 0.098033
v 1.618769 7.666478 0.098009
v 1.617905 7.667357 0.098006
v 1.615623 7.666392 0.098050
v 1.617074 7.665830 0.098010
v 1.615193 7.666071 0.098004
v 1.614837 7.664440 0.098014
v 1.613285 7.664631 0.098044
v 1.612223 7.663442 0.098047
v 1.612967 7.662585 0.098018
v 1.611483 7.662420 0.098018
v 1.610115 7.661892 0.093307
v 1.610930 7.661505 0.093309
v 1.610043 7.661773 0.096795
v 1.635879 7.658411 0.096805
v 1.635871 7.658283 0.035829
v 1.635847 7.658504 0.079181
v 1.635843 7.658545 0.093321
v 1.635729 7.658804 0.035828
v 1.635430 7.659838 0.079178
v 1.635692 7.658894 0.023323
v 1.635730 7.658777 0.026400
v 1.635418 7.659711 0.023320
v 1.635081 7.660520 0.023319
v 1.635042 7.660757 0.079176
v 1.635027 7.660648 0.026399
v 1.635026 7.660675 0.035823
v 1.635041 7.660798 0.093310
v 1.634980 7.660948 0.096798
v 1.634674 7.661394 0.035821
v 1.634485 7.661901 0.096797
v 1.634040 7.662470 0.035818
v 1.634093 7.662519 0.079171
v 1.633561 7.663152 0.035817
v 1.633134 7.663827 0.079168
v 1.633483 7.663221 0.023312
v 1.633561 7.663126 0.026390
v 1.632961 7.663878 0.023309
v 1.632625 7.664407 0.079166
v 1.632523 7.664573 0.096788
v 1.632352 7.664541 0.023309
v 1.632259 7.664670 0.035813
v 1.631691 7.665219 0.035811
v 1.631307 7.665733 0.096792
v 1.631171 7.665822 0.093299
v 1.631172 7.665781 0.079162
v 1.630546 7.666269 0.079161
v 1.630704 7.666031 0.035809
v 1.630034 7.666497 0.035808
v 1.630035 7.666471 0.026381
v 1.629927 7.666539 0.023305
v 1.629203 7.667141 0.079159
v 1.628986 7.667093 0.023300
v 1.629067 7.667260 0.096782
v 1.628308 7.667645 0.096781
v 1.628412 7.667387 0.023301
v 1.628293 7.667452 0.026381
v 1.628292 7.667479 0.035805
v 1.627531 7.667990 0.096779
v 1.627727 7.667729 0.035805
v 1.627391 7.667990 0.079156
v 1.626429 7.668334 0.079155
v 1.626593 7.668159 0.035803
v 1.625576 7.668436 0.035803
v 1.625450 7.668430 0.023298
v 1.625577 7.668409 0.026377
v 1.625096 7.668669 0.079155
v 1.624948 7.668746 0.096778
v 1.624586 7.668604 0.023295
v 1.624282 7.668859 0.096779
v 1.623734 7.668714 0.023298
v 1.623260 7.668969 0.096778
v 1.623603 7.668766 0.035802
v 1.623112 7.668924 0.079154
v 1.623111 7.668965 0.093290
v 1.621864 7.668953 0.079154
v 1.622005 7.668832 0.035801
v 1.620723 7.668734 0.035801
v 1.620719 7.668859 0.079154
v 1.620594 7.668683 0.023297
v 1.620570 7.668892 0.096777
v 1.619726 7.668764 0.096781
v 1.619727 7.668553 0.023297
v 1.618895 7.668579 0.096778
v 1.618885 7.668364 0.023298
v 1.618752 7.668532 0.093292
v 1.618753 7.668492 0.079155
v 1.618757 7.668367 0.035802
v 1.617654 7.668168 0.079155
v 1.617527 7.667996 0.035803
v 1.616498 7.667690 0.079156
v 1.616496 7.667731 0.093295
v 1.616060 7.667358 0.035805
v 1.616356 7.667681 0.096780
v 1.620833 7.667758 0.021704
v 1.618757 7.668340 0.026378
v 1.616551 7.666500 0.026377
v 1.615944 7.667261 0.023300
v 1.615451 7.667213 0.096782
v 1.615342 7.666937 0.023300
v 1.614811 7.666615 0.023302
v 1.614865 7.666864 0.096782
v 1.614740 7.666775 0.093295
v 1.614447 7.666377 0.023303
v 1.614740 7.666736 0.079159
v 1.614339 7.666312 0.026383
v 1.614338 7.666339 0.035807
v 1.613620 7.665945 0.079161
v 1.613488 7.665712 0.035809
v 1.612844 7.665276 0.079162
v 1.612587 7.664905 0.035811
v 1.612730 7.665228 0.096785
v 1.612151 7.664467 0.035812
v 1.612130 7.664625 0.096788
v 1.612152 7.664440 0.026387
v 1.612062 7.664336 0.023308
v 1.611561 7.663993 0.096789
v 1.611629 7.663851 0.023307
v 1.611468 7.663865 0.093303
v 1.611470 7.663825 0.079166
v 1.611101 7.663352 0.079167
v 1.610955 7.662999 0.023313
v 1.610881 7.662923 0.035816
v 1.610882 7.662896 0.026390
v 1.610527 7.662538 0.079169
v 1.610422 7.662242 0.035817
v 1.610116 7.661851 0.079171
v 1.609796 7.661129 0.035820
v 1.609665 7.661049 0.096798
v 1.609466 7.660417 0.035822
v 1.610332 7.660003 0.021723
v 1.609410 7.660261 0.023319
v 1.609258 7.660047 0.079175
v 1.609311 7.660235 0.096799
v 1.609257 7.660088 0.093312
v 1.609023 7.659230 0.023320
v 1.608837 7.658622 0.023322
v 1.608931 7.659140 0.079178
v 1.608797 7.658533 0.035827
v 1.608579 7.657753 0.079181
v 1.608561 7.657516 0.035829
v 1.608551 7.657658 0.096805
v 1.608445 7.657042 0.096808
v 1.608397 7.656489 0.035832
v 1.608329 7.655693 0.035834
v 1.608327 7.655972 0.096809
v 1.608322 7.655812 0.093323
v 1.608328 7.655620 0.025383
v 1.608323 7.655771 0.079186
v 1.608323 7.655527 0.023330
v 1.608330 7.655666 0.026409
v 1.608293 7.654787 0.079189
v 1.608301 7.654646 0.023330
v 1.608341 7.653790 0.023334
v 1.608386 7.653380 0.079192
v 1.608350 7.653668 0.026415
v 1.608350 7.653695 0.035839
v 1.608403 7.653284 0.096816
v 1.608388 7.653421 0.093329
v 1.608580 7.657794 0.093312
v 1.613461 7.664732 0.093311
v 1.620718 7.668899 0.093290
v 1.625094 7.668707 0.093291
v 1.627390 7.668031 0.093293
v 1.632624 7.664448 0.093304
v 1.634084 7.662552 0.093308
v 1.634163 7.662437 0.096795
v 1.636192 7.656737 0.096810
v 1.636067 7.657581 0.096809
v 1.636210 7.656580 0.093322
v 1.635323 7.656415 0.093323
v 1.636136 7.657058 0.035832
v 1.636213 7.656539 0.079186
v 1.636258 7.655975 0.035835
v 1.636269 7.655809 0.023331
v 1.636309 7.654950 0.023332
v 1.636307 7.655149 0.079190
v 1.636277 7.654149 0.079193
v 1.636286 7.654072 0.023336
v 1.636279 7.653950 0.026416
v 1.636276 7.654190 0.093329
v 1.636281 7.653977 0.035840
v 1.636270 7.654050 0.096816
v 1.636059 7.652368 0.096827
v 1.636018 7.652208 0.093334
v 1.636098 7.652370 0.035844
v 1.636021 7.652167 0.079198
v 1.635668 7.650780 0.079201
v 1.635806 7.651138 0.035848
v 1.635780 7.650963 0.023336
v 1.635342 7.649873 0.079203
v 1.635341 7.649914 0.093340
v 1.635286 7.649786 0.096827
v 1.635141 7.649254 0.035852
v 1.635199 7.649338 0.023349
v 1.635142 7.649227 0.026429
v 1.634931 7.648971 0.096831
v 1.634812 7.648541 0.035854
v 1.634554 7.648249 0.096831
v 1.634484 7.648068 0.079208
v 1.634482 7.648109 0.093345
v 1.634184 7.647427 0.035857
v 1.634073 7.647383 0.079210
v 1.633727 7.646747 0.035859
v 1.633499 7.646567 0.079212
v 1.633654 7.646601 0.023357
v 1.633130 7.646096 0.079213
v 1.633129 7.646136 0.093350
v 1.632976 7.645743 0.023355
v 1.633036 7.646028 0.096836
v 1.632547 7.645263 0.023358
v 1.632468 7.645396 0.096838
v 1.632457 7.645176 0.026438
v 1.632457 7.645204 0.035863
v 1.632020 7.644766 0.035864
v 1.631756 7.644644 0.079217
v 1.631868 7.644794 0.096839
v 1.631116 7.643956 0.035866
v 1.630979 7.643974 0.079218
v 1.630269 7.643332 0.035867
v 1.629860 7.643184 0.079220
v 1.630162 7.643222 0.023363
v 1.629729 7.643140 0.096850
v 1.629858 7.643226 0.093357
v 1.629421 7.642749 0.023361
v 1.628665 7.642338 0.023365
v 1.628238 7.642340 0.096846
v 1.628548 7.642313 0.035870
v 1.628029 7.643136 0.035799
v 1.628101 7.642271 0.093359
v 1.628102 7.642230 0.079222
v 1.627082 7.641675 0.035871
v 1.626947 7.641753 0.079224
v 1.625851 7.641304 0.035872
v 1.625847 7.641428 0.079224
v 1.625725 7.641235 0.023368
v 1.625846 7.641469 0.093361
v 1.625702 7.641442 0.096848
v 1.624883 7.641045 0.023368
v 1.624871 7.641258 0.096851
v 1.624027 7.641129 0.096849
v 1.624016 7.640916 0.023368
v 1.623881 7.641061 0.079225
v 1.623885 7.640937 0.035873
v 1.622737 7.640967 0.079225
v 1.622605 7.640839 0.035873
v 1.621488 7.640996 0.079225
v 1.621415 7.640875 0.035873
v 1.621339 7.641056 0.096849
v 1.623880 7.641102 0.093362
v 1.621589 7.641821 0.093350
v 1.621004 7.640908 0.035873
v 1.620476 7.641139 0.096851
v 1.620875 7.640884 0.023368
v 1.619649 7.641275 0.096848
v 1.620026 7.640994 0.023365
v 1.619504 7.641294 0.093361
v 1.619504 7.641251 0.079224
v 1.619160 7.641169 0.023368
v 1.619031 7.641235 0.035872
v 1.619032 7.641208 0.026447
v 1.618018 7.641510 0.035871
v 1.618174 7.641586 0.079223
v 1.617209 7.641930 0.079222
v 1.616880 7.641941 0.035870
v 1.617208 7.641970 0.093359
v 1.617066 7.642031 0.096845
v 1.616315 7.642191 0.035869
v 1.616289 7.642377 0.096845
v 1.616316 7.642164 0.026445
v 1.616187 7.642207 0.023355
v 1.615530 7.642762 0.096844
v 1.615750 7.643562 0.093349
v 1.615402 7.642787 0.079220
v 1.614683 7.643060 0.023364
v 1.614888 7.643095 0.079219
v 1.614573 7.643173 0.035866
v 1.613900 7.643642 0.035865
v 1.614057 7.643649 0.079218
v 1.613428 7.644139 0.079216
v 1.613255 7.644161 0.035864
v 1.613312 7.644284 0.096840
v 1.613426 7.644180 0.093349
v 1.612698 7.644824 0.096840
v 1.612343 7.644992 0.035862
v 1.612074 7.645455 0.096837
v 1.612257 7.645058 0.023357
v 1.611975 7.645513 0.079213
v 1.611650 7.645718 0.023353
v 1.611462 7.646099 0.079211
v 1.611126 7.646377 0.023354
v 1.611044 7.646517 0.035858
v 1.611048 7.646491 0.026433
v 1.611974 7.645553 0.093342
v 1.610850 7.646912 0.079209
v 1.610515 7.647408 0.079208
v 1.610514 7.647449 0.093339
v 1.610458 7.647377 0.035855
v 1.610434 7.647584 0.096831
v 1.610112 7.648121 0.096831
v 1.609933 7.648276 0.035853
v 1.609616 7.649076 0.096827
v 1.609581 7.648995 0.035851
v 1.609557 7.649204 0.093340
v 1.609558 7.649163 0.079203
v 1.609528 7.649079 0.023347
v 1.609190 7.649889 0.023343
v 1.609105 7.650249 0.079200
v 1.608878 7.650867 0.035846
v 1.608917 7.650705 0.023342
v 1.608781 7.651213 0.035845
v 1.608756 7.651416 0.079197
v 1.608718 7.651610 0.096821
v 1.608755 7.651457 0.093338
v 1.608498 7.652433 0.035842
v 1.609582 7.648968 0.026424
v 1.612348 7.644973 0.026437
v 1.614573 7.643146 0.026445
v 1.621005 7.640881 0.026448
v 1.625611 7.642200 0.021750
v 1.630270 7.643304 0.026443
v 1.633727 7.646720 0.026434
v 1.635807 7.651111 0.026421
v 1.636259 7.655948 0.026406
v 1.634858 7.658461 0.035829
v 1.635255 7.655965 0.035835
v 1.634791 7.658425 0.026404
v 1.635256 7.655938 0.026409
v 1.635102 7.657186 0.021695
v 1.634740 7.658606 0.021690
v 1.609784 7.658360 0.021690
v 1.609468 7.656951 0.021694
v 1.609315 7.655462 0.021697
v 1.611535 7.655337 0.021698
v 1.609334 7.653864 0.021702
v 1.609433 7.652935 0.021704
v 1.611926 7.651975 0.021726
v 1.612620 7.659477 0.021688
v 1.610965 7.661184 0.021683
v 1.612776 7.663653 0.021675
v 1.613835 7.664672 0.021675
v 1.616253 7.663821 0.021717
v 1.615009 7.665561 0.021670
v 1.617758 7.666981 0.021669
v 1.619135 7.667411 0.021667
v 1.622170 7.667801 0.021667
v 1.622006 7.665634 0.021701
v 1.626632 7.667062 0.021669
v 1.626228 7.665610 0.021672
v 1.627990 7.666492 0.021668
v 1.631585 7.663966 0.021695
v 1.629587 7.663815 0.021678
v 1.632479 7.660233 0.021687
v 1.633527 7.661385 0.021685
v 1.634174 7.660100 0.021687
v 1.633771 7.656436 0.021697
v 1.635276 7.655725 0.021699
v 1.635295 7.654128 0.021702
v 1.635148 7.652667 0.021707
v 1.633121 7.650380 0.021713
v 1.630749 7.644897 0.021727
v 1.628277 7.644804 0.021727
v 1.629596 7.644038 0.021728
v 1.628220 7.643132 0.021742
v 1.622406 7.641789 0.021734
v 1.621657 7.643129 0.021730
v 1.617944 7.642540 0.021732
v 1.616619 7.643097 0.021727
v 1.615161 7.643940 0.021746
v 1.616452 7.644855 0.021726
v 1.614038 7.644747 0.021726
v 1.612421 7.646339 0.021714
v 1.611098 7.648176 0.021717
v 1.610433 7.649488 0.021711
v 1.612838 7.648013 0.021717
v 1.611773 7.662409 0.021680
v 1.611656 7.662260 0.026393
v 1.611652 7.662290 0.035817
v 1.610371 7.660105 0.035823
v 1.609680 7.658195 0.026406
v 1.609747 7.658199 0.035828
v 1.609332 7.655704 0.035834
v 1.609459 7.656934 0.035831
v 1.609333 7.655676 0.026410
v 1.609353 7.653678 0.026411
v 1.609726 7.651196 0.035824
v 1.609286 7.653669 0.035839
v 1.609832 7.651063 0.021716
v 1.610521 7.649321 0.026426
v 1.611808 7.647170 0.035856
v 1.610471 7.649295 0.035850
v 1.611809 7.647143 0.026435
v 1.613110 7.645625 0.026435
v 1.615049 7.644023 0.035864
v 1.613100 7.645642 0.035860
v 1.616808 7.643037 0.026442
v 1.619195 7.642218 0.035869
v 1.616799 7.643018 0.035867
v 1.619727 7.642052 0.021717
v 1.619196 7.642196 0.026444
v 1.621169 7.641869 0.026446
v 1.621169 7.641896 0.035870
v 1.623698 7.641851 0.035870
v 1.623772 7.641857 0.021758
v 1.625709 7.642230 0.035870
v 1.629760 7.644167 0.026441
v 1.629794 7.644164 0.035865
v 1.631686 7.645836 0.035861
v 1.631769 7.645876 0.021722
v 1.632974 7.647241 0.021730
v 1.632952 7.647384 0.035857
v 1.634255 7.649549 0.035852
v 1.634247 7.649650 0.021718
v 1.634846 7.651352 0.021723
v 1.635275 7.653967 0.035840
v 1.634932 7.651481 0.035847
v 1.635276 7.653940 0.026412
v 1.612926 7.663804 0.026389
v 1.614849 7.665449 0.026385
v 1.614846 7.665480 0.035809
v 1.612895 7.663866 0.035813
v 1.616392 7.666362 0.021670
v 1.618942 7.667355 0.026380
v 1.618941 7.667382 0.035805
v 1.616549 7.666560 0.035807
v 1.623514 7.667785 0.021704
v 1.623418 7.667843 0.035804
v 1.620907 7.667749 0.035804
v 1.625413 7.667420 0.026379
v 1.625219 7.667469 0.021667
v 1.627801 7.666579 0.026383
v 1.627800 7.666606 0.035807
v 1.626630 7.667099 0.035806
v 1.625412 7.667448 0.035805
v 1.629507 7.665706 0.021682
v 1.631522 7.664058 0.035814
v 1.629544 7.665629 0.035810
v 1.632800 7.662474 0.026394
v 1.632681 7.662621 0.021681
v 1.634088 7.660295 0.026400
v 1.634087 7.660323 0.035824
v 1.633495 7.661473 0.035821
v 1.632799 7.662501 0.035818
v 1.613348 7.647340 0.021946
v 1.619390 7.643459 0.022237
v 1.626038 7.643806 0.022503
v 1.630167 7.646337 0.022681
v 1.633359 7.650987 0.022891
v 1.633703 7.656837 0.023106
v 1.631609 7.661735 0.023300
v 1.628256 7.664665 0.023473
v 1.624543 7.666143 0.023617
v 1.622816 7.666334 0.021796
v 1.619238 7.665971 0.023831
v 1.617097 7.665179 0.022038
v 1.612810 7.661397 0.022262
v 1.611318 7.658241 0.022411
v 1.611754 7.659456 0.024242
v 1.610732 7.654967 0.022553
v 1.610700 7.655176 0.024433
v 1.611688 7.650255 0.024633
v 1.614294 7.646363 0.022946
v 1.615028 7.645660 0.024876
v 1.619511 7.643610 0.025066
v 1.619671 7.643523 0.023187
v 1.623052 7.643296 0.025207
v 1.627328 7.644361 0.025384
v 1.628689 7.645075 0.023555
v 1.630430 7.646637 0.025522
v 1.632450 7.649213 0.023755
v 1.633845 7.653971 0.023946
v 1.633950 7.654844 0.025863
v 1.633282 7.658325 0.024096
v 1.632745 7.659724 0.026039
v 1.630621 7.662845 0.026185
v 1.626500 7.665645 0.026372
v 1.621296 7.666337 0.026572
v 1.623543 7.666402 0.024595
v 1.614745 7.663670 0.024973
v 1.613169 7.661880 0.026953
v 1.611938 7.659853 0.025163
v 1.611678 7.659261 0.027079
v 1.610826 7.656222 0.027216
v 1.611257 7.651432 0.025523
v 1.610937 7.653021 0.027341
v 1.612540 7.648696 0.025648
v 1.615054 7.645771 0.025814
v 1.614076 7.646581 0.027646
v 1.618870 7.643813 0.025982
v 1.618021 7.644097 0.027835
v 1.627575 7.644549 0.028221
v 1.622709 7.643166 0.028019
v 1.631551 7.647738 0.028404
v 1.632028 7.648332 0.026546
v 1.633730 7.653337 0.026749
v 1.633497 7.652038 0.028586
v 1.633597 7.658059 0.026914
v 1.633849 7.655539 0.028715
v 1.632764 7.659819 0.028869
v 1.626464 7.665613 0.029202
v 1.622736 7.666312 0.029341
v 1.619421 7.666016 0.029478
v 1.615723 7.664334 0.027755
v 1.614991 7.663801 0.029678
v 1.610804 7.655624 0.030068
v 1.611179 7.651582 0.030230
v 1.611006 7.651775 0.028334
v 1.614300 7.646384 0.028600
v 1.613955 7.646741 0.030466
v 1.618555 7.643858 0.030686
v 1.622009 7.643316 0.030819
v 1.625804 7.643783 0.030974
v 1.629306 7.645576 0.029236
v 1.630100 7.646245 0.031159
v 1.631927 7.648510 0.029377
v 1.632678 7.649775 0.031319
v 1.633587 7.657493 0.031608
v 1.631579 7.661737 0.031782
v 1.631781 7.661452 0.029880
v 1.629563 7.663731 0.031892
v 1.628485 7.664580 0.030058
v 1.628096 7.664785 0.031961
v 1.624773 7.666110 0.030205
v 1.625396 7.665920 0.032066
v 1.620209 7.666181 0.032271
v 1.619700 7.666130 0.030405
v 1.617469 7.665259 0.032391
v 1.616178 7.664544 0.032450
v 1.616328 7.664654 0.030555
v 1.615255 7.663896 0.030607
v 1.614691 7.663442 0.030635
v 1.613655 7.662410 0.030691
v 1.615399 7.664011 0.032487
v 1.614816 7.663544 0.032515
v 1.614072 7.662843 0.032554
v 1.612113 7.660381 0.032682
v 1.610879 7.656321 0.032866
v 1.610748 7.654706 0.031047
v 1.611459 7.650932 0.031200
v 1.610911 7.653026 0.033001
v 1.611650 7.650459 0.033108
v 1.612738 7.648420 0.033205
v 1.612627 7.648563 0.031310
v 1.613881 7.647012 0.033282
v 1.620538 7.643418 0.031701
v 1.620082 7.643383 0.033570
v 1.625168 7.643626 0.031889
v 1.625525 7.643707 0.033791
v 1.629008 7.645450 0.033938
v 1.630280 7.646359 0.032107
v 1.632112 7.648606 0.034096
v 1.633787 7.656743 0.032526
v 1.632436 7.660408 0.034549
v 1.631875 7.661272 0.032702
v 1.627727 7.665152 0.032920
v 1.628777 7.664509 0.034761
v 1.622955 7.666404 0.034987
v 1.618820 7.665819 0.035159
v 1.614895 7.663778 0.035337
v 1.613450 7.662250 0.033528
v 1.611309 7.658474 0.033713
v 1.611083 7.657740 0.035633
v 1.612146 7.649410 0.035850
v 1.614103 7.646675 0.035857
v 1.618582 7.643732 0.034457
v 1.619398 7.643510 0.035866
v 1.624954 7.643606 0.035866
v 1.629146 7.645529 0.035604
v 1.632628 7.649147 0.035064
v 1.631907 7.648372 0.035854
v 1.633769 7.653059 0.035842
v 1.633240 7.658825 0.035828
v 1.632554 7.660131 0.035478
v 1.625084 7.643577 0.034712
v 1.613180 7.647639 0.034184
v 1.610803 7.653128 0.033938
v 1.616967 7.665133 0.033352
v 1.633137 7.650717 0.032300
v 1.616595 7.644749 0.031545
v 1.633787 7.656600 0.029695
v 1.624733 7.643514 0.029043
v 1.612633 7.661108 0.027930
v 1.619739 7.666083 0.027577
v 1.624580 7.666164 0.027383
v 1.629641 7.663794 0.027179
v 1.626380 7.643824 0.026284
v 1.610761 7.655956 0.025341
v 1.629802 7.663795 0.024346
v 1.623765 7.643353 0.023349
v 1.610972 7.652498 0.035846
v 1.624270 7.665386 0.034932
v 1.628146 7.663903 0.034771
v 1.631915 7.659840 0.034541
v 1.633995 7.654619 0.034337
v 1.622003 7.643988 0.033643
v 1.615568 7.645454 0.033380
v 1.614069 7.647952 0.033256
v 1.611569 7.656011 0.032877
v 1.613541 7.661204 0.032620
v 1.623140 7.666302 0.032152
v 1.619065 7.665163 0.032332
v 1.624838 7.665332 0.032083
v 1.629694 7.662717 0.031863
v 1.633746 7.653290 0.031461
v 1.628318 7.645762 0.031096
v 1.611662 7.659424 0.029899
v 1.615522 7.663136 0.029678
v 1.629789 7.663538 0.029055
v 1.633156 7.655487 0.028714
v 1.611876 7.649928 0.027475
v 1.617534 7.665306 0.026734
v 1.630508 7.661723 0.026577
v 1.632763 7.657843 0.025975
v 1.632733 7.649776 0.025666
v 1.612476 7.659198 0.024241
v 1.614206 7.663111 0.024059
v 1.614556 7.662230 0.024077
v 1.623802 7.665555 0.023642
v 1.613585 7.648444 0.021915
v 1.618440 7.644602 0.022187
v 1.625521 7.644412 0.022489
v 1.630238 7.647509 0.022711
v 1.632890 7.652340 0.022935
v 1.632755 7.657315 0.023129
v 1.631145 7.660975 0.023288
v 1.617842 7.664623 0.023908
v 1.611525 7.654933 0.024443
v 1.612318 7.650806 0.024620
v 1.615187 7.646616 0.024852
v 1.620151 7.644240 0.025083
v 1.626111 7.644602 0.026077
v 1.627276 7.645151 0.025395
v 1.631579 7.649220 0.025625
v 1.632893 7.653109 0.025794
v 1.625934 7.665154 0.026386
v 1.619070 7.665123 0.026677
v 1.613095 7.660526 0.027001
v 1.611440 7.654405 0.027293
v 1.616525 7.645511 0.027755
v 1.623465 7.644043 0.028052
v 1.628712 7.646119 0.028289
v 1.631922 7.649933 0.028483
v 1.628051 7.664065 0.029125
v 1.623389 7.665479 0.029313
v 1.619388 7.665213 0.029489
v 1.612138 7.658839 0.029916
v 1.611825 7.652190 0.030213
v 1.615524 7.646150 0.030532
v 1.622535 7.644025 0.030838
v 1.632039 7.650179 0.031322
v 1.633114 7.656667 0.031585
v 1.612152 7.651193 0.033085
v 1.616846 7.645543 0.033422
v 1.626745 7.645054 0.033854
v 1.631316 7.648603 0.034079
v 1.633080 7.654660 0.034339
v 1.619628 7.665337 0.035132
v 1.612485 7.660685 0.035491
v 1.610331 7.653633 0.035839
v 1.610352 7.656007 0.035833
v 1.610579 7.657410 0.035830
v 1.612045 7.658304 0.035764
v 1.611085 7.659148 0.035825
v 1.611798 7.660634 0.035822
v 1.612646 7.661985 0.035818
v 1.614580 7.664058 0.035813
v 1.616486 7.664119 0.035813
v 1.616966 7.665596 0.035809
v 1.618672 7.666267 0.035808
v 1.620636 7.666736 0.035807
v 1.622675 7.666824 0.035806
v 1.624475 7.666647 0.035807
v 1.626617 7.666039 0.035809
v 1.627937 7.665423 0.035810
v 1.629297 7.664603 0.035813
v 1.630981 7.663137 0.035817
v 1.631901 7.662035 0.035819
v 1.632470 7.661215 0.035822
v 1.610785 7.651451 0.035845
v 1.611364 7.649874 0.035849
v 1.612466 7.647934 0.035854
v 1.613772 7.646391 0.035858
v 1.614986 7.645322 0.035861
v 1.616339 7.644422 0.035863
v 1.617799 7.643713 0.035865
v 1.619339 7.643209 0.035867
v 1.621338 7.642865 0.035868
v 1.623359 7.642883 0.035868
v 1.624758 7.643095 0.035867
v 1.625730 7.643343 0.035867
v 1.627271 7.643899 0.035866
v 1.629037 7.644901 0.035863
v 1.630619 7.646163 0.035860
v 1.632075 7.647851 0.035856
v 1.633205 7.649775 0.035851
v 1.633889 7.651675 0.035846
v 1.634209 7.653264 0.035842
v 1.634313 7.655494 0.035836
v 1.633923 7.657888 0.035830
v 1.633244 7.659796 0.035825
v 1.623858 7.665623 0.035826
v 1.613832 7.661516 0.022233
v 1.611430 7.650798 0.022722
v 1.627361 7.645280 0.023513
v 1.630947 7.648350 0.023694
v 1.632805 7.657423 0.024072
v 1.618350 7.644790 0.025948
v 1.612058 7.658004 0.028068
v 1.610954 7.657166 0.028116
v 1.619616 7.643545 0.028839
v 1.621019 7.643960 0.028888
v 1.633273 7.651097 0.029489
v 1.619681 7.665346 0.030413
v 1.611687 7.659478 0.030838
v 1.611864 7.651791 0.031170
v 1.613913 7.646973 0.031398
v 1.629311 7.663021 0.032823
v 1.624240 7.665512 0.033048
v 1.621950 7.666380 0.033140
v 1.618623 7.664958 0.033294
v 1.628204 7.645860 0.034862
v 1.633816 7.656160 0.035331
v 1.629508 7.663975 0.035716
v 1.629350 7.663006 0.035650
v 1.631917 7.659646 0.035473
v 1.633114 7.655300 0.035303
v 1.631717 7.649406 0.035054
v 1.623686 7.644075 0.034656
v 1.617971 7.644939 0.034415
v 1.614371 7.647578 0.034218
v 1.612312 7.650831 0.034042
v 1.611508 7.656153 0.033811
v 1.614221 7.662070 0.033458
v 1.632350 7.658847 0.032609
v 1.632960 7.652848 0.032379
v 1.630361 7.647594 0.032139
v 1.625497 7.644485 0.031911
v 1.620646 7.644201 0.031697
v 1.615652 7.646219 0.031476
v 1.611790 7.657207 0.030934
v 1.614309 7.662175 0.030682
v 1.627205 7.664668 0.030103
v 1.631933 7.659673 0.029819
v 1.633085 7.655087 0.029642
v 1.632229 7.650619 0.029455
v 1.628528 7.645846 0.029218
v 1.614666 7.647109 0.028588
v 1.611555 7.653034 0.028290
v 1.613920 7.661626 0.027881
v 1.618106 7.664766 0.027663
v 1.623932 7.665543 0.027404
v 1.628349 7.663705 0.027219
v 1.632697 7.657827 0.026915
v 1.632926 7.653107 0.026735
v 1.631196 7.648636 0.026535
v 1.619910 7.643742 0.026017
v 1.614332 7.647516 0.025737
v 1.612094 7.651429 0.025532
v 1.611548 7.655142 0.025373
v 1.612630 7.659616 0.025161
v 1.615351 7.662989 0.024973
v 1.619839 7.665686 0.024752
v 1.623787 7.665644 0.024584
v 1.628509 7.663559 0.023890
v 1.632803 7.652407 0.023880
v 1.623070 7.644067 0.023321
v 1.618261 7.644773 0.023118
v 1.614110 7.647772 0.022894
v 1.612078 7.651476 0.022702
v 1.611559 7.655034 0.022550
v 1.612071 7.657997 0.022412
v 1.609481 7.651812 0.098069
v 1.609642 7.651622 0.093334
v 1.610350 7.649635 0.093339
v 1.610347 7.649592 0.079202
v 1.609617 7.651574 0.079197
v 1.612573 7.646152 0.079211
v 1.611304 7.647837 0.079207
v 1.613946 7.644887 0.098108
v 1.615773 7.643579 0.079218
v 1.614045 7.644791 0.079215
v 1.617477 7.642781 0.098105
v 1.619621 7.642147 0.098068
v 1.619613 7.642121 0.079222
v 1.617594 7.642740 0.079220
v 1.623714 7.641988 0.093360
v 1.623716 7.641943 0.079223
v 1.621604 7.641862 0.079223
v 1.625128 7.642131 0.098111
v 1.627679 7.642976 0.079220
v 1.625681 7.642314 0.079222
v 1.631202 7.645207 0.093352
v 1.631129 7.645226 0.079215
v 1.629427 7.643978 0.079218
v 1.632474 7.646756 0.093350
v 1.633667 7.648496 0.093344
v 1.633702 7.648424 0.079207
v 1.632475 7.646715 0.079211
v 1.634504 7.650217 0.098060
v 1.635189 7.652386 0.098043
v 1.635166 7.652264 0.079197
v 1.634527 7.650260 0.079202
v 1.635381 7.654306 0.093331
v 1.635324 7.656374 0.079187
v 1.635428 7.654267 0.079192
v 1.635192 7.657842 0.098074
v 1.634249 7.660326 0.079177
v 1.635000 7.658353 0.079182
v 1.632046 7.663774 0.079168
v 1.633292 7.662080 0.079172
v 1.630768 7.665114 0.098036
v 1.630551 7.665166 0.093300
v 1.628831 7.666405 0.093307
v 1.628842 7.666352 0.079161
v 1.630552 7.665126 0.079164
v 1.624977 7.667813 0.093293
v 1.624979 7.667772 0.079157
v 1.627017 7.667220 0.079158
v 1.623087 7.668137 0.098004
v 1.620882 7.668000 0.079156
v 1.622996 7.668035 0.079156
v 1.618918 7.667646 0.093294
v 1.616928 7.666939 0.093292
v 1.616921 7.666944 0.079158
v 1.618919 7.667605 0.079157
v 1.613497 7.664660 0.079164
v 1.615158 7.665966 0.079161
v 1.612124 7.663245 0.093304
v 1.610898 7.661496 0.079172
v 1.612125 7.663205 0.079168
v 1.610048 7.659949 0.098046
v 1.610072 7.659700 0.093313
v 1.609475 7.657677 0.093318
v 1.609450 7.657645 0.079182
v 1.610069 7.659662 0.079176
v 1.609122 7.655927 0.098058
v 1.609163 7.655768 0.098030
v 1.609276 7.653546 0.079192
v 1.609172 7.655653 0.079187
f 381 840 1
f 2 899 3
f 3 899 4
f 5 4 899
f 4 5 6
f 6 5 7
f 6 7 8
f 8 7 904
f 8 904 9
f 9 904 905
f 9 905 11
f 11 905 10
f 11 10 840
f 11 840 13
f 13 840 12
f 13 12 14
f 14 12 15
f 14 15 16
f 14 16 17
f 17 16 18
f 17 18 19
f 19 18 847
f 19 847 20
f 19 20 22
f 22 20 21
f 22 21 850
f 22 850 23
f 23 850 851
f 23 851 26
f 26 851 24
f 26 24 25
f 26 25 27
f 26 27 28
f 28 27 30
f 30 27 857
f 31 29 857
f 857 29 30
f 29 31 33
f 33 31 32
f 33 32 34
f 34 32 35
f 34 35 37
f 37 35 36
f 37 36 38
f 37 38 40
f 40 38 39
f 40 39 41
f 41 39 42
f 41 42 43
f 43 42 867
f 868 43 867
f 43 868 44
f 44 868 48
f 44 48 45
f 45 48 46
f 45 46 47
f 47 46 874
f 47 874 49
f 49 874 50
f 49 50 55
f 55 50 52
f 55 52 51
f 53 54 51
f 51 54 55
f 54 53 56
f 56 53 57
f 56 57 879
f 56 879 58
f 58 879 59
f 58 59 60
f 60 59 61
f 60 61 62
f 60 62 63
f 63 62 64
f 64 62 65
f 64 65 887
f 64 887 66
f 66 887 67
f 67 887 68
f 67 68 69
f 71 70 69
f 69 70 67
f 70 71 73
f 73 71 72
f 73 72 75
f 75 72 74
f 75 74 76
f 75 76 78
f 78 76 77
f 78 77 79
f 78 79 3
f 3 79 2
f 80 82 81
f 81 82 2
f 84 83 237
f 84 237 240
f 83 84 85
f 83 85 86
f 85 84 87
f 85 87 88
f 88 87 89
f 88 89 91
f 87 90 89
f 88 91 92
f 88 92 93
f 94 95 92
f 92 95 93
f 98 97 95
f 95 97 96
f 97 98 99
f 99 98 100
f 99 100 235
f 235 100 101
f 101 100 102
f 101 102 103
f 103 102 104
f 103 104 106
f 102 105 104
f 103 106 107
f 107 106 109
f 107 109 108
f 419 110 109
f 109 110 108
f 110 111 108
f 108 111 112
f 112 111 113
f 113 111 114
f 111 116 114
f 114 116 115
f 115 116 117
f 115 117 120
f 120 117 119
f 117 118 119
f 120 119 121
f 120 121 122
f 122 121 124
f 122 124 123
f 124 125 123
f 123 125 126
f 123 126 127
f 127 126 128
f 127 128 129
f 129 128 131
f 129 131 130
f 130 131 132
f 130 132 135
f 135 132 133
f 132 134 133
f 135 133 137
f 135 137 136
f 136 137 138
f 138 137 139
f 138 139 140
f 494 141 139
f 139 141 140
f 140 141 142
f 140 142 143
f 141 145 142
f 142 145 144
f 144 145 146
f 144 146 147
f 147 146 148
f 147 148 149
f 149 148 151
f 149 151 150
f 150 151 152
f 152 151 153
f 152 153 154
f 154 153 155
f 155 153 156
f 155 156 157
f 157 156 158
f 157 158 159
f 159 158 161
f 159 161 160
f 160 161 162
f 162 161 166
f 146 163 148
f 153 164 156
f 161 165 166
f 162 166 167
f 167 166 168
f 167 168 170
f 170 168 169
f 170 169 171
f 171 169 173
f 169 172 173
f 174 175 172
f 172 175 173
f 173 175 176
f 176 175 177
f 176 177 178
f 178 177 179
f 178 179 180
f 180 179 181
f 180 181 182
f 182 181 183
f 182 183 184
f 182 184 185
f 185 184 186
f 185 186 187
f 187 186 188
f 188 186 190
f 188 190 189
f 189 190 191
f 191 190 192
f 189 191 193
f 193 191 194
f 193 194 195
f 195 194 196
f 195 196 82
f 82 196 197
f 197 196 198
f 197 198 202
f 202 198 200
f 199 200 198
f 204 206 200
f 200 206 201
f 200 201 202
f 202 201 203
f 206 204 205
f 205 207 206
f 205 448 207
f 206 207 208
f 208 207 209
f 208 209 210
f 210 209 211
f 211 209 212
f 211 212 214
f 214 212 213
f 214 213 215
f 215 213 216
f 215 216 217
f 217 216 218
f 213 219 216
f 217 218 220
f 220 218 221
f 220 221 222
f 220 222 223
f 223 222 224
f 223 224 225
f 225 383 223
f 223 383 226
f 226 383 1
f 223 226 227
f 210 228 208
f 195 82 80
f 178 180 229
f 149 230 147
f 136 231 135
f 232 127 129
f 122 881 120
f 108 233 107
f 234 235 101
f 96 93 95
f 236 237 874
f 874 237 83
f 239 238 236
f 239 236 874
f 240 237 236
f 240 236 241
f 241 236 238
f 240 241 242
f 242 241 245
f 242 245 243
f 243 245 244
f 244 245 247
f 247 245 246
f 247 246 248
f 248 246 249
f 248 249 250
f 250 249 251
f 250 251 254
f 254 251 252
f 254 252 255
f 252 253 255
f 254 255 256
f 254 256 257
f 257 256 258
f 257 258 391
f 258 256 263
f 263 256 259
f 263 259 261
f 261 259 260
f 263 261 262
f 263 262 264
f 261 265 262
f 262 265 266
f 266 265 267
f 266 267 268
f 268 267 269
f 266 268 270
f 270 268 271
f 270 271 272
f 272 271 273
f 272 273 274
f 274 273 275
f 274 275 277
f 277 275 276
f 276 278 277
f 277 278 279
f 279 278 280
f 279 280 281
f 281 280 282
f 282 280 285
f 282 285 283
f 283 285 284
f 284 285 860
f 283 284 286
f 286 284 287
f 286 287 288
f 288 287 289
f 288 289 290
f 290 289 293
f 293 289 291
f 289 292 291
f 293 291 294
f 294 291 295
f 294 295 296
f 294 296 297
f 298 299 295
f 295 299 296
f 296 299 300
f 300 299 301
f 300 301 302
f 302 301 303
f 302 303 304
f 304 303 305
f 304 305 306
f 304 306 307
f 307 306 308
f 307 308 309
f 307 309 310
f 310 309 311
f 310 311 312
f 312 311 313
f 312 313 314
f 314 313 315
f 314 315 316
f 316 315 317
f 309 318 311
f 315 319 317
f 316 317 320
f 320 317 321
f 320 321 322
f 322 321 324
f 324 321 323
f 324 323 325
f 325 326 324
f 324 326 327
f 327 326 328
f 327 328 329
f 326 331 328
f 328 331 330
f 330 331 332
f 330 332 333
f 333 332 335
f 334 335 332
f 333 335 336
f 336 335 337
f 336 337 338
f 338 337 339
f 339 337 340
f 341 342 340
f 340 342 339
f 339 342 343
f 343 342 344
f 347 345 344
f 344 345 343
f 345 347 346
f 346 347 348
f 346 348 349
f 349 348 350
f 349 350 352
f 348 351 350
f 349 352 353
f 353 352 354
f 353 354 355
f 355 354 356
f 355 356 357
f 357 356 358
f 357 358 359
f 359 358 360
f 359 360 361
f 354 362 356
f 358 363 360
f 360 363 366
f 366 363 364
f 366 364 367
f 367 364 365
f 366 367 368
f 366 368 369
f 369 368 370
f 369 370 371
f 372 373 370
f 370 373 371
f 376 374 373
f 373 374 384
f 374 376 375
f 375 376 378
f 378 376 377
f 378 377 454
f 377 376 379
f 379 376 380
f 379 380 381
f 381 380 382
f 379 381 383
f 383 381 1
f 384 371 373
f 355 385 353
f 345 386 343
f 322 387 320
f 312 472 310
f 304 388 302
f 290 389 288
f 272 274 390
f 243 392 242
f 87 84 393
f 393 84 240
f 393 240 394
f 394 240 242
f 395 90 393
f 393 90 87
f 425 397 396
f 396 397 394
f 394 397 393
f 393 397 395
f 395 397 398
f 407 406 199
f 199 406 399
f 399 406 402
f 399 402 400
f 400 402 401
f 401 402 403
f 403 402 404
f 404 402 405
f 404 405 456
f 406 407 444
f 406 444 410
f 410 444 408
f 410 408 409
f 410 409 411
f 410 411 490
f 410 490 412
f 410 412 415
f 415 412 413
f 415 413 163
f 415 163 414
f 415 414 494
f 415 494 498
f 415 498 417
f 498 416 417
f 417 416 420
f 420 416 418
f 420 418 503
f 420 503 419
f 420 419 507
f 420 507 421
f 421 507 422
f 421 422 423
f 421 423 398
f 421 398 424
f 424 398 397
f 424 397 425
f 424 425 426
f 424 426 428
f 428 426 427
f 428 427 482
f 428 482 481
f 428 481 478
f 428 478 477
f 428 477 430
f 430 477 429
f 430 429 431
f 430 431 432
f 430 432 388
f 430 388 434
f 434 388 472
f 434 472 433
f 434 433 467
f 434 467 435
f 434 435 438
f 438 435 436
f 438 436 437
f 438 437 439
f 438 439 443
f 443 439 440
f 443 440 441
f 443 441 442
f 443 442 456
f 443 456 405
f 444 407 445
f 445 407 446
f 446 407 447
f 447 407 199
f 445 192 444
f 444 192 190
f 192 445 191
f 191 445 446
f 447 198 196
f 447 196 194
f 447 194 446
f 446 194 191
f 447 199 198
f 200 199 399
f 200 399 204
f 204 399 205
f 448 205 399
f 207 448 449
f 450 213 451
f 451 213 212
f 451 212 209
f 451 209 449
f 449 209 207
f 452 219 450
f 450 219 213
f 399 400 448
f 448 400 449
f 449 400 451
f 451 400 452
f 452 400 401
f 452 450 451
f 219 452 216
f 216 452 401
f 216 401 218
f 218 401 221
f 221 401 403
f 221 403 222
f 453 224 222
f 453 222 403
f 224 453 225
f 225 453 455
f 377 379 454
f 454 379 455
f 455 379 383
f 455 383 225
f 454 455 456
f 456 455 404
f 454 456 378
f 378 456 375
f 375 456 442
f 375 442 374
f 457 384 442
f 442 384 374
f 384 457 371
f 371 457 459
f 458 360 366
f 458 366 459
f 459 366 369
f 459 369 371
f 460 361 458
f 458 361 360
f 442 441 457
f 457 441 459
f 459 441 458
f 458 441 460
f 460 441 440
f 361 460 359
f 359 460 440
f 359 440 357
f 357 440 355
f 461 385 355
f 461 355 440
f 385 461 353
f 353 461 463
f 345 346 462
f 462 346 349
f 462 349 463
f 463 349 353
f 437 386 462
f 462 386 345
f 440 439 461
f 461 439 463
f 463 439 462
f 462 439 437
f 386 437 343
f 343 437 436
f 343 436 339
f 338 339 464
f 464 339 436
f 338 464 336
f 336 464 466
f 465 328 330
f 465 330 466
f 466 330 333
f 466 333 336
f 468 329 465
f 465 329 328
f 436 435 464
f 464 435 466
f 466 435 465
f 465 435 468
f 468 435 467
f 329 468 327
f 327 468 467
f 327 467 324
f 324 467 322
f 387 322 469
f 469 322 467
f 387 469 320
f 320 469 470
f 312 314 471
f 471 314 316
f 471 316 470
f 470 316 320
f 471 472 312
f 467 433 469
f 469 433 470
f 470 433 471
f 471 433 472
f 310 472 307
f 307 472 388
f 307 388 304
f 302 388 473
f 297 296 473
f 473 296 300
f 473 300 302
f 388 432 473
f 473 432 297
f 294 297 432
f 294 432 293
f 293 432 431
f 293 431 290
f 389 290 474
f 474 290 431
f 389 474 288
f 288 474 475
f 282 283 476
f 476 283 286
f 476 286 475
f 475 286 288
f 477 281 476
f 476 281 282
f 431 429 474
f 474 429 475
f 475 429 476
f 476 429 477
f 477 279 281
f 279 477 277
f 277 477 274
f 274 477 478
f 390 274 478
f 390 478 272
f 272 478 479
f 480 262 266
f 480 266 270
f 480 270 479
f 479 270 272
f 481 264 480
f 480 264 262
f 479 478 480
f 480 478 481
f 264 481 263
f 263 481 258
f 258 481 482
f 482 391 258
f 391 482 257
f 257 482 484
f 483 250 484
f 484 250 254
f 484 254 257
f 485 248 483
f 483 248 250
f 482 427 484
f 484 427 483
f 483 427 485
f 485 427 426
f 248 485 247
f 247 485 426
f 247 426 244
f 244 426 425
f 244 425 243
f 396 392 243
f 396 243 425
f 392 396 242
f 242 396 394
f 404 455 453
f 404 453 403
f 184 408 186
f 186 408 190
f 190 408 444
f 408 184 486
f 486 184 183
f 411 409 487
f 487 409 488
f 488 409 489
f 489 409 486
f 486 409 408
f 174 172 487
f 487 172 411
f 174 487 175
f 175 487 488
f 181 179 489
f 489 179 177
f 489 177 488
f 488 177 175
f 486 183 489
f 489 183 181
f 166 490 168
f 168 490 411
f 168 411 169
f 169 411 172
f 166 165 490
f 413 412 491
f 491 412 492
f 492 412 493
f 493 412 165
f 165 412 490
f 164 153 491
f 491 153 413
f 164 491 156
f 156 491 492
f 493 161 158
f 493 158 492
f 492 158 156
f 493 165 161
f 148 163 151
f 151 163 413
f 151 413 153
f 494 414 495
f 495 414 496
f 496 414 163
f 141 494 495
f 146 145 496
f 496 145 495
f 495 145 141
f 496 163 146
f 133 498 137
f 137 498 494
f 137 494 139
f 134 497 133
f 133 497 498
f 418 416 499
f 499 416 500
f 500 416 501
f 501 416 502
f 502 416 497
f 497 416 498
f 125 124 499
f 499 124 418
f 125 499 126
f 126 499 500
f 502 132 501
f 501 132 131
f 501 131 128
f 501 128 500
f 500 128 126
f 497 134 502
f 502 134 132
f 119 503 418
f 119 418 121
f 121 418 124
f 118 503 119
f 419 503 504
f 504 503 505
f 110 419 504
f 117 116 505
f 505 116 504
f 504 116 111
f 504 111 110
f 503 118 505
f 505 118 117
f 104 507 106
f 106 507 419
f 106 419 109
f 105 506 507
f 105 507 104
f 423 422 508
f 508 422 509
f 509 422 510
f 510 422 506
f 506 422 507
f 506 511 510
f 94 92 508
f 508 92 423
f 94 508 95
f 95 508 509
f 102 100 511
f 511 100 510
f 510 100 98
f 510 98 95
f 510 95 509
f 506 105 511
f 511 105 102
f 89 398 91
f 91 398 423
f 91 423 92
f 90 395 398
f 90 398 89
f 443 405 512
f 443 512 438
f 438 512 513
f 438 513 434
f 434 513 514
f 434 514 430
f 430 514 515
f 430 515 428
f 515 516 428
f 516 517 424
f 424 517 421
f 421 517 518
f 519 420 518
f 420 519 417
f 417 520 521
f 519 520 417
f 522 521 520
f 523 522 684
f 523 684 524
f 524 684 526
f 524 526 525
f 526 528 525
f 527 528 771
f 771 528 529
f 529 531 530
f 533 532 534
f 534 657 533
f 535 657 534
f 657 535 536
f 536 535 537
f 536 537 538
f 537 682 538
f 682 539 538
f 682 540 539
f 539 540 541
f 541 540 542
f 656 542 543
f 656 544 546
f 546 544 545
f 830 545 679
f 547 679 548
f 547 548 549
f 549 550 655
f 655 550 551
f 655 553 552
f 552 553 678
f 551 553 655
f 678 554 552
f 554 556 555
f 556 558 555
f 555 558 557
f 557 558 560
f 560 824 557
f 824 560 654
f 654 560 559
f 559 561 654
f 654 561 562
f 561 564 562
f 562 564 563
f 563 564 566
f 566 565 563
f 565 566 567
f 676 568 653
f 652 569 651
f 651 569 570
f 568 569 652
f 571 572 650
f 571 570 572
f 650 572 674
f 777 573 575
f 574 575 573
f 577 575 574
f 575 577 576
f 576 578 778
f 579 778 578
f 580 649 579
f 649 580 581
f 581 580 582
f 581 582 583
f 584 583 582
f 583 584 780
f 584 672 780
f 648 585 587
f 587 585 586
f 586 589 587
f 588 590 589
f 589 590 592
f 589 592 591
f 668 594 591
f 597 596 598
f 600 599 603
f 600 603 604
f 593 595 594
f 595 596 597
f 596 601 598
f 598 601 599
f 599 601 602
f 599 602 603
f 782 604 605
f 606 608 607
f 605 608 606
f 608 609 607
f 609 610 611
f 612 664 784
f 664 647 784
f 613 614 615
f 615 614 616
f 615 616 618
f 616 617 618
f 618 617 619
f 618 619 646
f 619 662 646
f 662 620 646
f 662 621 620
f 622 624 623
f 623 624 625
f 623 625 787
f 625 626 787
f 626 627 645
f 628 645 627
f 627 726 628
f 628 726 629
f 629 630 644
f 658 644 630
f 643 631 632
f 643 632 633
f 632 634 633
f 642 635 636
f 637 636 638
f 637 638 639
f 637 639 790
f 790 639 640
f 790 640 641
f 641 640 791
f 635 642 634
f 642 633 634
f 643 644 631
f 631 644 658
f 630 629 726
f 626 645 787
f 624 622 621
f 622 620 621
f 613 647 614
f 614 647 664
f 784 611 612
f 612 611 610
f 611 607 609
f 605 606 782
f 782 600 604
f 597 594 595
f 593 594 668
f 668 591 592
f 588 589 586
f 585 648 672
f 672 648 780
f 649 778 579
f 578 576 577
f 573 777 674
f 777 650 674
f 570 571 651
f 568 652 653
f 676 653 567
f 567 653 565
f 556 554 678
f 550 549 548
f 679 547 830
f 545 830 546
f 544 656 543
f 542 656 541
f 532 533 531
f 531 533 530
f 530 771 529
f 528 527 525
f 523 521 522
f 420 421 518
f 424 428 516
f 658 630 730
f 725 626 659
f 626 625 659
f 659 625 624
f 661 624 621
f 619 617 723
f 723 617 722
f 722 617 616
f 663 614 721
f 721 614 664
f 612 610 609
f 720 609 666
f 666 609 605
f 666 605 604
f 666 604 667
f 609 608 605
f 604 603 601
f 601 603 602
f 604 601 595
f 595 601 596
f 593 668 669
f 592 590 668
f 590 588 668
f 668 588 670
f 671 586 719
f 584 582 673
f 714 674 675
f 674 572 675
f 711 569 568
f 567 566 677
f 677 566 564
f 559 560 709
f 560 558 707
f 707 558 556
f 707 556 678
f 707 678 553
f 553 551 706
f 548 679 704
f 545 544 703
f 534 532 698
f 698 532 531
f 683 528 526
f 683 526 684
f 684 522 685
f 685 522 694
f 694 522 686
f 522 520 686
f 520 519 686
f 692 518 517
f 692 517 516
f 516 515 691
f 691 515 690
f 515 514 689
f 405 687 512
f 512 687 688
f 512 688 513
f 688 689 513
f 513 689 514
f 515 689 690
f 516 691 692
f 518 692 693
f 518 693 519
f 693 832 519
f 519 832 686
f 694 686 831
f 685 683 684
f 528 683 695
f 528 695 529
f 529 695 696
f 529 696 531
f 531 696 697
f 531 697 698
f 534 698 699
f 699 700 534
f 534 700 535
f 535 700 537
f 537 700 701
f 537 701 682
f 701 702 682
f 682 702 540
f 540 702 681
f 540 681 542
f 681 543 542
f 543 681 680
f 680 703 543
f 543 703 544
f 545 703 704
f 545 704 679
f 705 550 548
f 550 705 706
f 550 706 551
f 560 707 708
f 708 709 560
f 559 709 561
f 561 709 710
f 561 710 564
f 710 677 564
f 567 677 676
f 676 711 568
f 711 712 569
f 712 713 569
f 569 713 570
f 570 713 675
f 570 675 572
f 674 714 573
f 573 714 715
f 573 715 574
f 574 715 716
f 577 716 578
f 578 716 579
f 716 717 579
f 579 717 580
f 580 717 673
f 580 673 582
f 584 673 718
f 584 718 672
f 672 718 719
f 672 719 585
f 585 719 586
f 586 671 588
f 588 671 670
f 670 669 668
f 593 669 595
f 669 801 595
f 595 801 667
f 595 667 604
f 665 612 720
f 720 612 609
f 665 721 612
f 612 721 664
f 663 616 614
f 663 722 616
f 619 723 662
f 662 723 724
f 662 724 661
f 662 661 621
f 661 660 624
f 624 660 659
f 626 725 627
f 627 725 726
f 726 730 630
f 577 574 716
f 727 658 728
f 728 658 729
f 729 658 730
f 729 730 731
f 731 730 732
f 732 730 733
f 733 730 735
f 733 735 734
f 734 735 736
f 736 735 737
f 737 735 738
f 738 735 769
f 738 769 739
f 739 769 740
f 740 769 741
f 741 769 791
f 741 791 742
f 742 791 743
f 743 791 744
f 744 791 745
f 745 791 640
f 745 640 746
f 747 658 727
f 658 747 748
f 658 748 631
f 631 748 749
f 631 749 632
f 632 749 750
f 632 750 751
f 632 751 752
f 632 752 634
f 634 752 753
f 634 753 754
f 634 754 755
f 634 755 756
f 634 756 635
f 635 756 757
f 635 757 758
f 635 758 759
f 635 759 636
f 636 759 760
f 636 760 761
f 636 761 638
f 638 761 762
f 638 762 763
f 638 763 639
f 639 763 764
f 639 764 765
f 639 765 766
f 639 766 640
f 640 766 767
f 640 767 768
f 640 768 746
f 767 766 49
f 49 766 47
f 47 766 45
f 45 766 765
f 45 765 44
f 44 765 764
f 44 764 43
f 43 764 763
f 43 763 41
f 41 763 762
f 41 762 40
f 40 762 761
f 40 761 37
f 37 761 760
f 37 760 34
f 34 760 759
f 34 759 33
f 33 759 758
f 33 758 29
f 29 758 757
f 29 757 30
f 30 757 756
f 30 756 28
f 28 756 755
f 28 755 26
f 26 755 754
f 26 754 23
f 23 754 753
f 23 753 22
f 22 753 752
f 22 752 751
f 22 751 19
f 19 751 750
f 19 750 17
f 17 750 749
f 17 749 14
f 14 749 748
f 14 748 13
f 13 748 747
f 13 747 11
f 11 747 727
f 11 727 9
f 9 727 728
f 9 728 8
f 8 728 729
f 8 729 6
f 6 729 731
f 6 731 4
f 4 731 732
f 4 732 3
f 3 732 733
f 3 733 78
f 78 733 734
f 78 734 75
f 75 734 736
f 75 736 73
f 73 736 737
f 73 737 70
f 70 737 738
f 70 738 67
f 67 738 739
f 67 739 66
f 66 739 740
f 66 740 64
f 64 740 741
f 64 741 63
f 63 741 742
f 63 742 60
f 60 742 743
f 60 743 58
f 58 743 744
f 58 744 56
f 56 744 745
f 56 745 54
f 54 745 746
f 54 746 55
f 55 746 768
f 55 768 767
f 55 767 49
f 417 521 415
f 415 521 523
f 415 523 410
f 410 523 770
f 524 525 770
f 770 525 839
f 533 657 835
f 835 657 834
f 657 536 772
f 536 538 773
f 538 539 833
f 833 539 774
f 831 546 830
f 655 552 826
f 825 555 775
f 775 555 557
f 817 650 776
f 816 575 815
f 815 575 576
f 778 649 779
f 581 583 814
f 583 780 813
f 813 780 812
f 812 780 648
f 589 591 810
f 781 594 809
f 597 598 600
f 600 598 599
f 597 600 782
f 808 782 606
f 808 606 783
f 606 607 783
f 783 607 784
f 607 611 784
f 806 647 613
f 615 618 805
f 805 618 804
f 802 620 622
f 622 785 802
f 785 623 786
f 622 623 785
f 623 787 786
f 786 787 788
f 645 628 801
f 628 629 801
f 801 629 800
f 644 800 629
f 797 633 796
f 796 633 642
f 789 642 636
f 636 637 789
f 637 790 794
f 791 769 792
f 791 792 793
f 791 793 641
f 641 793 790
f 790 793 794
f 637 794 795
f 637 795 789
f 642 789 796
f 633 797 798
f 633 798 643
f 643 798 799
f 643 799 644
f 644 799 800
f 801 788 645
f 645 788 787
f 620 802 803
f 803 802 719
f 620 803 646
f 803 804 646
f 646 804 618
f 615 805 806
f 615 806 613
f 806 807 647
f 647 807 784
f 784 807 783
f 782 808 809
f 782 809 597
f 597 809 594
f 594 781 810
f 594 810 591
f 589 810 587
f 810 811 587
f 587 811 812
f 587 812 648
f 813 814 583
f 581 814 649
f 814 779 649
f 778 779 576
f 576 779 815
f 575 816 777
f 777 816 776
f 777 776 650
f 650 817 571
f 817 818 571
f 571 818 651
f 818 819 651
f 651 819 652
f 819 820 652
f 652 820 653
f 653 820 680
f 653 680 821
f 653 821 565
f 565 821 563
f 563 821 822
f 563 822 562
f 822 823 562
f 562 823 699
f 562 699 654
f 654 699 824
f 824 775 557
f 555 825 554
f 554 825 826
f 554 826 552
f 655 826 827
f 655 827 828
f 828 549 655
f 549 828 829
f 549 829 547
f 547 829 830
f 546 831 656
f 656 831 832
f 656 832 541
f 541 774 539
f 833 773 538
f 536 773 772
f 657 772 834
f 533 835 530
f 835 836 530
f 530 836 837
f 530 837 771
f 837 838 527
f 837 527 771
f 527 838 525
f 838 839 525
f 524 770 523
f 410 770 406
f 406 770 839
f 406 839 402
f 402 839 838
f 402 838 837
f 402 837 405
f 405 837 687
f 687 837 836
f 687 836 688
f 688 836 835
f 688 835 834
f 688 834 689
f 689 834 772
f 689 772 690
f 690 772 773
f 690 773 691
f 691 773 833
f 691 833 774
f 691 774 692
f 692 774 693
f 693 774 541
f 693 541 832
f 832 831 686
f 694 831 830
f 694 830 829
f 694 829 685
f 685 829 828
f 685 828 683
f 683 828 695
f 695 828 827
f 695 827 826
f 695 826 696
f 696 826 825
f 696 825 697
f 697 825 775
f 697 775 698
f 698 775 824
f 698 824 699
f 700 699 823
f 700 823 701
f 701 823 822
f 701 822 702
f 702 822 681
f 681 822 821
f 681 821 680
f 680 820 703
f 703 820 819
f 703 819 704
f 704 819 818
f 704 818 548
f 548 818 817
f 548 817 705
f 705 817 776
f 705 776 706
f 706 776 816
f 706 816 553
f 553 816 815
f 553 815 707
f 707 815 779
f 707 779 708
f 708 779 814
f 708 814 709
f 709 814 710
f 710 814 813
f 710 813 677
f 677 813 812
f 677 812 811
f 677 811 676
f 676 811 711
f 711 811 810
f 711 810 712
f 712 810 781
f 712 781 713
f 713 781 809
f 713 809 675
f 675 809 714
f 714 809 808
f 808 783 714
f 714 783 715
f 715 783 716
f 716 783 807
f 716 807 806
f 716 806 717
f 717 806 805
f 717 805 673
f 673 805 804
f 673 804 718
f 718 804 803
f 718 803 719
f 719 802 671
f 671 802 785
f 671 785 670
f 670 785 786
f 670 786 669
f 669 786 788
f 669 788 801
f 667 801 800
f 667 800 666
f 666 800 720
f 800 799 720
f 720 799 665
f 665 799 798
f 665 798 721
f 721 798 797
f 721 797 663
f 663 797 796
f 663 796 722
f 722 796 789
f 722 789 723
f 723 789 795
f 723 795 724
f 724 795 794
f 724 794 661
f 661 794 793
f 661 793 792
f 661 792 660
f 660 792 769
f 660 769 659
f 659 769 725
f 769 735 725
f 725 735 726
f 726 735 730
f 840 381 382
f 840 382 841
f 15 12 842
f 842 12 843
f 843 12 844
f 844 12 841
f 841 12 840
f 372 370 842
f 842 370 15
f 372 842 373
f 373 842 843
f 380 376 844
f 844 376 843
f 843 376 373
f 841 382 844
f 844 382 380
f 15 370 368
f 15 368 367
f 15 367 16
f 16 367 365
f 18 16 845
f 845 16 846
f 18 362 354
f 362 18 356
f 356 18 845
f 846 364 363
f 846 363 845
f 845 363 358
f 845 358 356
f 16 365 846
f 846 365 364
f 354 352 18
f 18 352 847
f 847 352 350
f 847 350 351
f 21 20 341
f 341 20 848
f 848 20 849
f 849 20 847
f 341 340 21
f 342 341 848
f 348 347 849
f 849 347 848
f 848 347 344
f 848 344 342
f 847 351 849
f 849 351 348
f 21 340 850
f 850 340 337
f 850 337 335
f 850 335 334
f 852 851 853
f 853 851 850
f 851 325 24
f 24 325 323
f 325 851 326
f 326 851 852
f 332 331 853
f 853 331 852
f 852 331 326
f 850 334 853
f 853 334 332
f 323 321 24
f 24 321 25
f 25 321 317
f 25 317 319
f 857 27 854
f 854 27 855
f 855 27 856
f 856 27 319
f 319 27 25
f 318 309 854
f 854 309 857
f 318 854 311
f 311 854 855
f 315 313 856
f 856 313 855
f 855 313 311
f 856 319 315
f 309 308 857
f 857 308 306
f 857 306 31
f 31 306 305
f 32 31 858
f 858 31 859
f 298 295 32
f 298 32 299
f 299 32 858
f 303 301 859
f 859 301 858
f 858 301 299
f 31 305 859
f 859 305 303
f 32 295 291
f 32 291 35
f 35 291 292
f 36 35 860
f 860 35 861
f 35 862 861
f 860 285 36
f 284 860 861
f 862 289 861
f 861 289 287
f 861 287 284
f 35 292 862
f 862 292 289
f 36 285 280
f 36 280 38
f 38 280 278
f 38 278 863
f 863 278 276
f 42 39 864
f 864 39 865
f 865 39 866
f 866 39 863
f 863 39 38
f 269 267 864
f 864 267 42
f 269 864 268
f 268 864 865
f 275 273 866
f 866 273 865
f 865 273 271
f 865 271 268
f 863 276 866
f 866 276 275
f 267 265 42
f 42 265 867
f 867 265 261
f 867 261 260
f 869 868 870
f 870 868 867
f 253 252 868
f 253 868 255
f 255 868 869
f 259 256 870
f 870 256 869
f 869 256 255
f 867 260 870
f 870 260 259
f 868 252 48
f 48 252 251
f 48 251 871
f 871 251 249
f 874 46 239
f 239 46 872
f 872 46 873
f 873 46 871
f 871 46 48
f 241 238 872
f 872 238 239
f 246 245 873
f 873 245 241
f 873 241 872
f 871 249 873
f 873 249 246
f 874 83 50
f 50 83 86
f 52 50 875
f 875 50 876
f 52 96 97
f 96 52 93
f 93 52 875
f 876 85 88
f 876 88 875
f 875 88 93
f 50 86 876
f 876 86 85
f 52 97 51
f 51 97 99
f 51 99 235
f 51 235 53
f 53 235 234
f 57 53 877
f 877 53 878
f 57 233 108
f 233 57 107
f 107 57 877
f 878 101 877
f 877 101 103
f 877 103 107
f 53 234 878
f 878 234 101
f 57 108 112
f 57 112 879
f 879 112 113
f 879 113 880
f 61 59 881
f 881 59 882
f 882 59 883
f 883 59 880
f 880 59 879
f 881 122 61
f 120 881 882
f 114 115 883
f 883 115 882
f 882 115 120
f 880 113 883
f 883 113 114
f 61 122 62
f 62 122 123
f 62 123 127
f 62 127 232
f 65 62 884
f 884 62 885
f 885 62 886
f 231 136 884
f 884 136 65
f 231 884 135
f 135 884 885
f 129 130 886
f 886 130 135
f 886 135 885
f 62 232 886
f 886 232 129
f 136 138 65
f 65 138 140
f 65 140 887
f 887 140 143
f 68 887 888
f 888 887 889
f 230 149 68
f 147 230 888
f 888 230 68
f 142 144 889
f 889 144 888
f 888 144 147
f 887 143 889
f 889 143 142
f 149 150 68
f 68 150 69
f 69 150 152
f 69 152 890
f 890 152 154
f 72 71 891
f 891 71 892
f 892 71 893
f 893 71 890
f 890 71 69
f 891 160 162
f 891 162 72
f 160 891 159
f 159 891 892
f 155 157 893
f 893 157 892
f 892 157 159
f 893 890 155
f 155 890 154
f 72 162 167
f 72 167 170
f 72 170 74
f 74 170 171
f 76 74 229
f 229 74 894
f 894 74 895
f 229 180 76
f 178 229 894
f 895 173 176
f 895 176 894
f 178 894 176
f 74 171 895
f 895 171 173
f 76 180 182
f 76 182 185
f 76 185 77
f 77 185 896
f 896 185 187
f 2 79 81
f 81 79 897
f 897 79 898
f 898 79 896
f 896 79 77
f 80 81 195
f 195 81 897
f 188 189 898
f 898 189 897
f 897 189 193
f 897 193 195
f 896 187 898
f 898 187 188
f 82 197 2
f 2 197 899
f 899 197 202
f 899 202 900
f 900 202 203
f 7 5 901
f 901 5 902
f 902 5 903
f 903 5 900
f 900 5 899
f 901 228 7
f 7 228 210
f 228 901 208
f 208 901 902
f 201 206 903
f 903 206 902
f 902 206 208
f 900 203 903
f 903 203 201
f 210 211 7
f 7 211 904
f 904 211 214
f 904 214 905
f 905 214 215
f 10 905 906
f 906 905 907
f 227 226 10
f 223 227 906
f 906 227 10
f 217 220 907
f 907 220 223
f 907 223 906
f 905 215 907
f 907 215 217
f 1 840 226
f 226 840 10
