# USD → MuJoCo (world-space, simplified)
v 1.158716 7.651610 0.096821
v 1.159154 7.653368 0.098052
v 1.161833 7.660898 0.098022
v 1.161058 7.659252 0.098027
v 1.159712 7.658685 0.098028
v 1.160596 7.657690 0.098030
v 1.159348 7.657502 0.098059
v 1.160334 7.656101 0.098035
v 1.159191 7.654654 0.098038
v 1.159189 7.655916 0.098067
v 1.160336 7.653813 0.098040
v 1.160883 7.651238 0.098047
v 1.161676 7.649427 0.098052
v 1.160324 7.649570 0.098049
v 1.162401 7.648219 0.098055
v 1.163278 7.647100 0.098058
v 1.162596 7.646130 0.098091
v 1.164414 7.645957 0.098061
v 1.166221 7.644653 0.098064
v 1.167876 7.643864 0.098066
v 1.169222 7.643416 0.098068
v 1.168594 7.642447 0.098070
v 1.169810 7.642095 0.098101
v 1.171209 7.643054 0.098069
v 1.167358 7.642776 0.098092
v 1.173041 7.643043 0.098069
v 1.172620 7.641919 0.098072
v 1.173901 7.643132 0.098069
v 1.175503 7.642212 0.098094
v 1.175432 7.643413 0.098068
v 1.176690 7.642670 0.098070
v 1.179326 7.643767 0.098068
v 1.177866 7.643137 0.098104
v 1.177516 7.644208 0.098066
v 1.178462 7.644726 0.098065
v 1.179256 7.643924 0.098067
v 1.179112 7.645139 0.098064
v 1.180322 7.644654 0.098065
v 1.180075 7.645876 0.098062
v 1.181231 7.646988 0.098059
v 1.182463 7.646658 0.098078
v 1.182454 7.648602 0.098055
v 1.183142 7.649874 0.098052
v 1.183868 7.648674 0.098093
v 1.184865 7.651278 0.098049
v 1.183744 7.651347 0.098048
v 1.185190 7.652533 0.098073
v 1.184188 7.653326 0.098043
v 1.184307 7.654942 0.098039
v 1.185347 7.656638 0.098066
v 1.184185 7.656757 0.098035
v 1.185068 7.658249 0.098045
v 1.183604 7.659116 0.098029
v 1.184235 7.660446 0.098027
v 1.182632 7.661127 0.098023
v 1.182689 7.663005 0.098019
v 1.181592 7.662621 0.098019
v 1.181925 7.664020 0.098044
v 1.180032 7.664208 0.098015
v 1.180656 7.665164 0.098012
v 1.178367 7.665368 0.098012
v 1.178757 7.666412 0.098013
v 1.177097 7.666008 0.098010
v 1.176003 7.667581 0.098006
v 1.175771 7.666500 0.098009
v 1.173796 7.666930 0.098008
v 1.174782 7.667893 0.098041
v 1.171759 7.667000 0.098008
v 1.173090 7.668140 0.098022
v 1.170777 7.668058 0.098034
v 1.170339 7.666848 0.098008
v 1.169100 7.667781 0.098033
v 1.168968 7.666542 0.098008
v 1.167905 7.667357 0.098006
v 1.167625 7.666062 0.098010
v 1.166711 7.666926 0.098040
v 1.166006 7.665247 0.098012
v 1.165219 7.666093 0.098017
v 1.164670 7.664272 0.098014
v 1.163642 7.663338 0.098016
v 1.163444 7.664673 0.098016
v 1.162600 7.662084 0.098019
v 1.161483 7.662421 0.098018
v 1.160115 7.661892 0.093307
v 1.160931 7.661505 0.093309
v 1.160043 7.661773 0.096795
v 1.160807 7.661354 0.098057
v 1.185879 7.658411 0.096805
v 1.185844 7.658504 0.079181
v 1.185843 7.658545 0.093321
v 1.185729 7.658804 0.035828
v 1.185495 7.659671 0.079178
v 1.185692 7.658894 0.023323
v 1.185419 7.659709 0.023320
v 1.185042 7.660757 0.079176
v 1.185081 7.660520 0.023319
v 1.185027 7.660648 0.026399
v 1.185026 7.660675 0.035823
v 1.184978 7.660942 0.096799
v 1.184588 7.661720 0.096798
v 1.184488 7.661749 0.035820
v 1.184163 7.662437 0.096795
v 1.184085 7.662512 0.079171
v 1.183563 7.663154 0.035817
v 1.183630 7.663185 0.079169
v 1.183483 7.663221 0.023312
v 1.182960 7.663879 0.023309
v 1.183001 7.663982 0.079167
v 1.182625 7.664407 0.079166
v 1.182227 7.664873 0.096789
v 1.182352 7.664541 0.023309
v 1.182260 7.664643 0.026388
v 1.182259 7.664670 0.035813
v 1.181691 7.665218 0.035811
v 1.181300 7.665739 0.096794
v 1.181172 7.665781 0.079162
v 1.181171 7.665822 0.093297
v 1.180545 7.666270 0.079161
v 1.180704 7.666031 0.035809
v 1.180035 7.666497 0.035808
v 1.180035 7.666471 0.026382
v 1.179927 7.666539 0.023305
v 1.179712 7.666825 0.079160
v 1.179198 7.667132 0.079159
v 1.179182 7.666984 0.023302
v 1.179067 7.667255 0.096782
v 1.178800 7.667191 0.023302
v 1.178502 7.667552 0.096783
v 1.178412 7.667387 0.023301
v 1.178293 7.667452 0.026380
v 1.178292 7.667479 0.035805
v 1.177534 7.667989 0.096779
v 1.177727 7.667729 0.035805
v 1.177391 7.667990 0.079156
v 1.176430 7.668333 0.079155
v 1.176594 7.668158 0.035803
v 1.175576 7.668436 0.035803
v 1.175449 7.668430 0.023298
v 1.175577 7.668409 0.026378
v 1.175096 7.668669 0.079155
v 1.174804 7.668564 0.023296
v 1.174948 7.668746 0.096778
v 1.174108 7.668885 0.096781
v 1.173737 7.668718 0.023299
v 1.173603 7.668763 0.035802
v 1.173259 7.668966 0.096777
v 1.173192 7.668795 0.035801
v 1.173112 7.668924 0.079154
v 1.173111 7.668965 0.093290
v 1.172074 7.668953 0.079154
v 1.172204 7.668830 0.035801
v 1.170723 7.668738 0.035801
v 1.170719 7.668861 0.079154
v 1.170594 7.668683 0.023297
v 1.170570 7.668892 0.096777
v 1.169727 7.668553 0.023297
v 1.169726 7.668764 0.096781
v 1.168895 7.668579 0.096778
v 1.168885 7.668364 0.023298
v 1.168752 7.668532 0.093291
v 1.168753 7.668492 0.079155
v 1.168757 7.668367 0.035802
v 1.167654 7.668168 0.079155
v 1.167527 7.667996 0.035803
v 1.166498 7.667690 0.079156
v 1.166059 7.667358 0.035805
v 1.166359 7.667681 0.096781
v 1.168995 7.667408 0.021680
v 1.165944 7.667261 0.023300
v 1.165450 7.667212 0.096782
v 1.165187 7.666849 0.023298
v 1.164865 7.666864 0.096782
v 1.164741 7.666734 0.079159
v 1.164740 7.666775 0.093294
v 1.164447 7.666377 0.023303
v 1.164408 7.666514 0.079159
v 1.164339 7.666312 0.026383
v 1.164338 7.666339 0.035807
v 1.163620 7.665945 0.079161
v 1.163489 7.665712 0.035809
v 1.162844 7.665276 0.079162
v 1.162843 7.665317 0.093298
v 1.162587 7.664905 0.035811
v 1.162727 7.665226 0.096784
v 1.162151 7.664467 0.035812
v 1.162130 7.664625 0.096788
v 1.162152 7.664440 0.026387
v 1.162062 7.664336 0.023308
v 1.161561 7.663993 0.096789
v 1.161627 7.663848 0.023307
v 1.161468 7.663865 0.093303
v 1.161470 7.663825 0.079166
v 1.161101 7.663352 0.079167
v 1.160957 7.663001 0.023314
v 1.160882 7.662896 0.026387
v 1.160881 7.662923 0.035816
v 1.160526 7.662536 0.079169
v 1.160422 7.662242 0.035817
v 1.160117 7.661851 0.079171
v 1.159796 7.661130 0.035820
v 1.159665 7.661050 0.096798
v 1.159466 7.660417 0.035822
v 1.159415 7.660260 0.023318
v 1.159252 7.659858 0.023319
v 1.159467 7.660389 0.026394
v 1.159258 7.660047 0.079175
v 1.159311 7.660235 0.096799
v 1.159257 7.660088 0.093312
v 1.158830 7.658635 0.023314
v 1.158801 7.658532 0.035827
v 1.158932 7.659141 0.079178
v 1.158802 7.658505 0.026401
v 1.158579 7.657753 0.079181
v 1.158599 7.657716 0.035829
v 1.158551 7.657658 0.096805
v 1.158413 7.656835 0.096809
v 1.158397 7.656489 0.035832
v 1.158329 7.655693 0.035834
v 1.158331 7.655970 0.096810
v 1.158322 7.655812 0.093326
v 1.158323 7.655771 0.079186
v 1.158323 7.655527 0.023330
v 1.158330 7.655666 0.026403
v 1.158301 7.654648 0.023330
v 1.158293 7.654596 0.079189
v 1.158350 7.653695 0.035839
v 1.158341 7.653790 0.023334
v 1.158350 7.653668 0.026415
v 1.158405 7.653157 0.035840
v 1.158389 7.653380 0.079192
v 1.158405 7.653284 0.096816
v 1.158505 7.652592 0.096819
v 1.158388 7.653421 0.093339
v 1.158580 7.657794 0.093312
v 1.166860 7.667064 0.093296
v 1.170718 7.668899 0.093290
v 1.177390 7.668031 0.093292
v 1.179197 7.667173 0.093295
v 1.182523 7.664567 0.096789
v 1.182624 7.664448 0.093303
v 1.184084 7.662552 0.093310
v 1.185040 7.660798 0.093312
v 1.186192 7.656737 0.096810
v 1.186067 7.657581 0.096809
v 1.186210 7.656580 0.093324
v 1.185321 7.656461 0.098023
v 1.186048 7.657570 0.035831
v 1.186211 7.656539 0.079186
v 1.186260 7.655976 0.035835
v 1.186308 7.655323 0.079190
v 1.186309 7.654952 0.023332
v 1.186277 7.654149 0.079193
v 1.186286 7.654072 0.023336
v 1.186281 7.653991 0.025389
v 1.186276 7.654190 0.093329
v 1.186278 7.653977 0.035840
v 1.186270 7.654050 0.096816
v 1.186210 7.653179 0.035842
v 1.186153 7.652984 0.096820
v 1.186021 7.652167 0.079198
v 1.186046 7.652363 0.096821
v 1.186018 7.652208 0.093334
v 1.186046 7.652150 0.035845
v 1.185810 7.651137 0.035848
v 1.185669 7.650780 0.079201
v 1.185807 7.651111 0.026420
v 1.185772 7.650976 0.023344
v 1.185587 7.650373 0.023344
v 1.185358 7.649741 0.023347
v 1.185342 7.649873 0.079203
v 1.185341 7.649914 0.093342
v 1.185304 7.649829 0.095665
v 1.185286 7.649786 0.096827
v 1.185141 7.649254 0.035852
v 1.185194 7.649338 0.023348
v 1.185142 7.649227 0.026428
v 1.184812 7.648541 0.035854
v 1.184931 7.648970 0.096831
v 1.184554 7.648249 0.096831
v 1.184500 7.648055 0.079208
v 1.184184 7.647427 0.035857
v 1.183727 7.646747 0.035859
v 1.183728 7.646720 0.026435
v 1.183653 7.646598 0.023357
v 1.183499 7.646567 0.079212
v 1.183131 7.646096 0.079213
v 1.182560 7.645262 0.023348
v 1.183129 7.646136 0.093350
v 1.183037 7.646020 0.096847
v 1.182457 7.645176 0.026438
v 1.182457 7.645204 0.035863
v 1.181870 7.644795 0.096838
v 1.182020 7.644766 0.035864
v 1.181754 7.644685 0.093351
v 1.181756 7.644644 0.079217
v 1.181116 7.643957 0.035866
v 1.180978 7.643974 0.079218
v 1.180269 7.643332 0.035867
v 1.179860 7.643184 0.079220
v 1.180162 7.643222 0.023363
v 1.179857 7.643226 0.093357
v 1.179732 7.643157 0.096844
v 1.179421 7.642749 0.023361
v 1.179160 7.642816 0.096846
v 1.178619 7.642529 0.096845
v 1.178665 7.642338 0.023365
v 1.178547 7.642315 0.035870
v 1.178548 7.642288 0.026445
v 1.178236 7.642343 0.096846
v 1.178175 7.642137 0.035870
v 1.178101 7.642271 0.093359
v 1.178102 7.642230 0.079222
v 1.177082 7.641675 0.035871
v 1.176947 7.641753 0.079224
v 1.175851 7.641304 0.035872
v 1.175847 7.641428 0.079224
v 1.175725 7.641235 0.023368
v 1.175846 7.641469 0.093361
v 1.175702 7.641442 0.096848
v 1.174883 7.641045 0.023368
v 1.174871 7.641258 0.096851
v 1.174016 7.640916 0.023368
v 1.174027 7.641129 0.096849
v 1.173881 7.641061 0.079225
v 1.173885 7.640937 0.035873
v 1.172605 7.640839 0.035873
v 1.172737 7.640967 0.079225
v 1.171488 7.640996 0.079225
v 1.173880 7.641102 0.093362
v 1.171487 7.641036 0.093361
v 1.171004 7.640905 0.035873
v 1.171335 7.641052 0.096849
v 1.170875 7.640884 0.023368
v 1.170298 7.641165 0.096849
v 1.170199 7.640969 0.023367
v 1.169649 7.641275 0.096848
v 1.169504 7.641251 0.079224
v 1.169160 7.641164 0.023368
v 1.169031 7.641235 0.035872
v 1.168018 7.641510 0.035871
v 1.168174 7.641585 0.079223
v 1.167209 7.641930 0.079222
v 1.166880 7.641941 0.035870
v 1.167066 7.642031 0.096845
v 1.166315 7.642191 0.035869
v 1.166289 7.642377 0.096845
v 1.166316 7.642164 0.026445
v 1.166187 7.642207 0.023355
v 1.165530 7.642762 0.096844
v 1.165401 7.642828 0.093357
v 1.165402 7.642787 0.079220
v 1.164683 7.643060 0.023364
v 1.164888 7.643095 0.079219
v 1.164573 7.643173 0.035866
v 1.163901 7.643641 0.035865
v 1.164058 7.643648 0.079218
v 1.163428 7.644139 0.079216
v 1.162914 7.644454 0.035863
v 1.163427 7.644180 0.093353
v 1.163312 7.644284 0.096840
v 1.162699 7.644822 0.096840
v 1.162348 7.645000 0.035862
v 1.162074 7.645455 0.096837
v 1.162257 7.645058 0.023357
v 1.161975 7.645513 0.079213
v 1.161650 7.645718 0.023353
v 1.161462 7.646099 0.079211
v 1.161047 7.646518 0.035858
v 1.161126 7.646377 0.023354
v 1.161808 7.647043 0.021752
v 1.161974 7.645553 0.093343
v 1.160563 7.647206 0.035856
v 1.160507 7.647401 0.079208
v 1.160434 7.647584 0.096831
v 1.160514 7.647449 0.093339
v 1.160114 7.648118 0.096831
v 1.160036 7.648092 0.035853
v 1.159616 7.649076 0.096827
v 1.159578 7.648994 0.035851
v 1.159557 7.649204 0.093340
v 1.159558 7.649163 0.079203
v 1.159528 7.649079 0.023347
v 1.159191 7.649887 0.023343
v 1.159169 7.650085 0.079201
v 1.158917 7.650705 0.023342
v 1.158878 7.650867 0.035846
v 1.158879 7.650839 0.026423
v 1.158753 7.651415 0.079197
v 1.158755 7.651457 0.093334
v 1.158601 7.651921 0.035844
v 1.162349 7.644973 0.026436
v 1.164574 7.643146 0.026443
v 1.173885 7.640910 0.026448
v 1.175851 7.641276 0.026448
v 1.180270 7.643304 0.026443
v 1.186279 7.653950 0.026416
v 1.186266 7.655873 0.023451
v 1.184838 7.658459 0.035807
v 1.185319 7.655998 0.035835
v 1.185342 7.655861 0.021711
v 1.184765 7.658523 0.021696
v 1.160333 7.659859 0.021687
v 1.159789 7.658357 0.021688
v 1.159468 7.656952 0.021694
v 1.159335 7.653864 0.021701
v 1.159503 7.652434 0.021706
v 1.162335 7.659138 0.021689
v 1.162776 7.663653 0.021675
v 1.163834 7.664672 0.021675
v 1.166389 7.666466 0.021679
v 1.170833 7.667758 0.021704
v 1.172170 7.667801 0.021667
v 1.173513 7.667779 0.021691
v 1.172179 7.665633 0.021713
v 1.176632 7.667062 0.021669
v 1.177983 7.666482 0.021670
v 1.179507 7.665704 0.021686
v 1.182189 7.663250 0.021672
v 1.183527 7.661386 0.021684
v 1.184175 7.660101 0.021687
v 1.185295 7.654128 0.021702
v 1.185148 7.652666 0.021707
v 1.184826 7.651229 0.021709
v 1.183529 7.651492 0.021710
v 1.184252 7.649482 0.021720
v 1.182913 7.647273 0.021727
v 1.180302 7.644548 0.021727
v 1.177269 7.644356 0.021728
v 1.179596 7.644038 0.021728
v 1.176907 7.642629 0.021732
v 1.173904 7.641889 0.021731
v 1.172406 7.641789 0.021734
v 1.172595 7.643203 0.021730
v 1.170964 7.641856 0.021732
v 1.167944 7.642540 0.021732
v 1.166729 7.643045 0.021732
v 1.166392 7.644703 0.021726
v 1.163591 7.645150 0.021725
v 1.162963 7.645750 0.021722
v 1.161098 7.648176 0.021717
v 1.160445 7.649347 0.021731
v 1.159876 7.650986 0.021709
v 1.161579 7.654099 0.021699
v 1.161631 7.662351 0.021687
v 1.161652 7.662290 0.035817
v 1.160371 7.660105 0.035823
v 1.160412 7.660057 0.026399
v 1.159747 7.658172 0.026403
v 1.159747 7.658199 0.035828
v 1.159332 7.655704 0.035834
v 1.159460 7.656937 0.035831
v 1.159321 7.655549 0.021700
v 1.159353 7.653678 0.026415
v 1.159352 7.653705 0.035839
v 1.159747 7.651209 0.035845
v 1.159818 7.651191 0.026419
v 1.160520 7.649348 0.035850
v 1.161747 7.647139 0.035856
v 1.163110 7.645625 0.026434
v 1.165049 7.644023 0.035864
v 1.163100 7.645642 0.035860
v 1.165148 7.643922 0.021736
v 1.166802 7.643051 0.035867
v 1.169188 7.642195 0.035869
v 1.169254 7.642134 0.021780
v 1.171158 7.641798 0.026448
v 1.171176 7.641850 0.035870
v 1.173701 7.641917 0.035870
v 1.173701 7.641894 0.026446
v 1.175667 7.642262 0.026445
v 1.175474 7.642197 0.021733
v 1.178037 7.643178 0.035867
v 1.175709 7.642230 0.035870
v 1.178221 7.643221 0.021729
v 1.178038 7.643150 0.026444
v 1.179760 7.644167 0.026441
v 1.179759 7.644194 0.035865
v 1.181725 7.645784 0.035861
v 1.181778 7.645865 0.021732
v 1.183026 7.647368 0.035857
v 1.184196 7.649587 0.035851
v 1.184196 7.649560 0.026429
v 1.184862 7.651444 0.026424
v 1.184861 7.651472 0.035847
v 1.185275 7.653967 0.035840
v 1.185142 7.652706 0.035844
v 1.185276 7.653940 0.026412
v 1.162926 7.663804 0.026389
v 1.165015 7.665549 0.021672
v 1.164849 7.665449 0.026385
v 1.164848 7.665476 0.035809
v 1.162884 7.663886 0.035813
v 1.168941 7.667382 0.035805
v 1.166569 7.666564 0.035799
v 1.173439 7.667779 0.035804
v 1.170906 7.667795 0.035804
v 1.175413 7.667420 0.026381
v 1.175219 7.667460 0.021668
v 1.177801 7.666579 0.026383
v 1.177809 7.666652 0.035807
v 1.175413 7.667452 0.035805
v 1.181499 7.663991 0.026392
v 1.181498 7.664018 0.035814
v 1.179589 7.665677 0.035810
v 1.182800 7.662474 0.026393
v 1.184088 7.660295 0.026394
v 1.184087 7.660323 0.035824
v 1.182865 7.662535 0.035816
v 1.161680 7.650028 0.021755
v 1.169051 7.643620 0.022219
v 1.175775 7.643657 0.022491
v 1.180533 7.646682 0.021722
v 1.180678 7.646819 0.022705
v 1.182721 7.649872 0.022842
v 1.184026 7.655002 0.023043
v 1.183573 7.657434 0.021695
v 1.182350 7.660060 0.023231
v 1.180940 7.662685 0.021681
v 1.180350 7.663194 0.023376
v 1.175213 7.666048 0.023591
v 1.170203 7.666263 0.021902
v 1.169816 7.666077 0.023806
v 1.163372 7.662087 0.022225
v 1.165206 7.663895 0.024013
v 1.162421 7.660824 0.024177
v 1.160805 7.653870 0.022598
v 1.160914 7.656810 0.024363
v 1.161645 7.650239 0.022745
v 1.161076 7.651886 0.024559
v 1.162961 7.648046 0.024740
v 1.164219 7.646551 0.022937
v 1.166482 7.644748 0.024945
v 1.172880 7.643258 0.023312
v 1.170657 7.643415 0.025110
v 1.174774 7.643495 0.025277
v 1.176953 7.644226 0.023482
v 1.178264 7.644946 0.025425
v 1.181206 7.647387 0.025560
v 1.181011 7.647211 0.023663
v 1.183253 7.651130 0.025722
v 1.183415 7.651414 0.023848
v 1.183858 7.654967 0.025867
v 1.183762 7.656603 0.024038
v 1.182698 7.659763 0.024154
v 1.183154 7.658944 0.026006
v 1.180066 7.663515 0.024332
v 1.181126 7.662220 0.026154
v 1.178452 7.664610 0.026293
v 1.175399 7.665921 0.024526
v 1.172705 7.666440 0.026514
v 1.170021 7.666281 0.024737
v 1.165500 7.664301 0.026822
v 1.165253 7.664752 0.026817
v 1.161530 7.659059 0.027089
v 1.160745 7.654611 0.027281
v 1.161064 7.651970 0.025500
v 1.164880 7.645789 0.027695
v 1.163018 7.647892 0.025689
v 1.171545 7.643207 0.027973
v 1.177831 7.644637 0.026345
v 1.177819 7.644546 0.028232
v 1.182128 7.648576 0.026555
v 1.182309 7.648833 0.028454
v 1.183710 7.653108 0.028626
v 1.183724 7.657302 0.026890
v 1.182355 7.660543 0.028900
v 1.183670 7.656814 0.028759
v 1.178467 7.664686 0.029121
v 1.173486 7.666328 0.029310
v 1.168959 7.665985 0.027610
v 1.169337 7.665973 0.029481
v 1.165042 7.663866 0.029673
v 1.161659 7.659387 0.029902
v 1.163349 7.662280 0.027874
v 1.160785 7.655518 0.030072
v 1.160826 7.652763 0.028297
v 1.161241 7.651299 0.030242
v 1.163181 7.647666 0.028528
v 1.164009 7.646748 0.030467
v 1.166284 7.645024 0.028699
v 1.167149 7.644532 0.028739
v 1.167731 7.644279 0.030649
v 1.168674 7.643906 0.028802
v 1.170913 7.643410 0.030776
v 1.167022 7.644616 0.030619
v 1.169165 7.643748 0.030707
v 1.173616 7.643342 0.030885
v 1.174741 7.643516 0.029044
v 1.178848 7.645291 0.029217
v 1.177519 7.644532 0.031048
v 1.182871 7.649942 0.029441
v 1.182097 7.648371 0.031261
v 1.183883 7.654338 0.031499
v 1.182657 7.660001 0.029817
v 1.181654 7.661623 0.031776
v 1.179063 7.664247 0.030034
v 1.178113 7.664865 0.031963
v 1.173192 7.666349 0.032151
v 1.173755 7.666376 0.030243
v 1.168449 7.665664 0.032348
v 1.164906 7.663744 0.030622
v 1.163096 7.661953 0.032604
v 1.160726 7.655998 0.032882
v 1.161336 7.651200 0.033075
v 1.161118 7.651685 0.031164
v 1.169033 7.643738 0.033529
v 1.170295 7.643444 0.031691
v 1.175168 7.643626 0.031889
v 1.177235 7.644345 0.033862
v 1.178807 7.645305 0.032043
v 1.181524 7.647830 0.032175
v 1.183850 7.654445 0.032444
v 1.183628 7.652225 0.034248
v 1.183377 7.658285 0.034464
v 1.182871 7.659823 0.032634
v 1.181245 7.662170 0.034630
v 1.176808 7.665628 0.034840
v 1.172118 7.666375 0.033133
v 1.167824 7.665490 0.035201
v 1.163827 7.662633 0.033507
v 1.164237 7.663116 0.035369
v 1.161695 7.659437 0.033668
v 1.161955 7.659969 0.035529
v 1.160746 7.655624 0.035725
v 1.161429 7.650799 0.035857
v 1.164223 7.646540 0.035858
v 1.164619 7.646092 0.034274
v 1.167638 7.644299 0.035864
v 1.171172 7.643328 0.035866
v 1.175066 7.643638 0.035866
v 1.176475 7.644008 0.034771
v 1.179431 7.645717 0.035861
v 1.181348 7.647453 0.034987
v 1.183238 7.650609 0.035848
v 1.183466 7.658276 0.035402
v 1.183552 7.657896 0.035830
v 1.179975 7.663563 0.035698
v 1.171914 7.643748 0.034581
v 1.169121 7.643732 0.034475
v 1.161404 7.650867 0.034028
v 1.177605 7.665200 0.032925
v 1.183176 7.651374 0.032324
v 1.160806 7.655976 0.030995
v 1.183842 7.655640 0.029661
v 1.165426 7.645590 0.028658
v 1.161085 7.657520 0.028100
v 1.174884 7.666087 0.027373
v 1.180139 7.663429 0.027155
v 1.183648 7.652848 0.026730
v 1.172897 7.643243 0.026141
v 1.167009 7.644437 0.025908
v 1.160893 7.656909 0.025300
v 1.162503 7.660894 0.025114
v 1.164918 7.663711 0.024967
v 1.167895 7.644075 0.023118
v 1.175718 7.665845 0.021675
v 1.171162 7.666292 0.035059
v 1.172306 7.665575 0.035016
v 1.176536 7.664755 0.034841
v 1.182903 7.652864 0.034266
v 1.181281 7.647540 0.034047
v 1.172954 7.643331 0.033684
v 1.172004 7.643988 0.033643
v 1.165568 7.645455 0.033380
v 1.163071 7.647908 0.033230
v 1.162764 7.649420 0.033166
v 1.161523 7.655523 0.033233
v 1.163013 7.660283 0.032668
v 1.166498 7.664761 0.032433
v 1.170287 7.666147 0.032269
v 1.170292 7.665352 0.032731
v 1.183253 7.658435 0.031644
v 1.166368 7.644982 0.030589
v 1.183110 7.655751 0.028725
v 1.161581 7.650440 0.027450
v 1.161533 7.654804 0.027276
v 1.165504 7.663151 0.026851
v 1.182763 7.657843 0.025975
v 1.182427 7.650766 0.025696
v 1.167251 7.665120 0.023919
v 1.169984 7.665330 0.023808
v 1.176275 7.664986 0.023545
v 1.164724 7.646102 0.022025
v 1.162534 7.650250 0.021817
v 1.165310 7.646591 0.022030
v 1.169689 7.644334 0.022236
v 1.175128 7.644339 0.022470
v 1.179368 7.646698 0.022667
v 1.181394 7.649107 0.022790
v 1.182878 7.652615 0.022947
v 1.181284 7.660801 0.023278
v 1.165370 7.663097 0.024029
v 1.161886 7.657955 0.024304
v 1.163395 7.648714 0.025170
v 1.167873 7.644905 0.024989
v 1.174525 7.644148 0.025272
v 1.179190 7.646564 0.025486
v 1.178187 7.664077 0.026292
v 1.170743 7.665567 0.026600
v 1.162552 7.659463 0.027056
v 1.162637 7.649942 0.027488
v 1.171467 7.643944 0.027967
v 1.176746 7.645038 0.028199
v 1.181406 7.648688 0.028428
v 1.181327 7.660698 0.028928
v 1.177563 7.664289 0.029146
v 1.171938 7.665619 0.029375
v 1.165603 7.663458 0.029667
v 1.161891 7.657794 0.029966
v 1.162008 7.651274 0.030252
v 1.165924 7.646062 0.030549
v 1.176316 7.644701 0.031006
v 1.181031 7.648470 0.031241
v 1.182952 7.652853 0.032143
v 1.182986 7.656817 0.031592
v 1.175391 7.665329 0.032062
v 1.166435 7.663905 0.032458
v 1.176569 7.644972 0.034135
v 1.180669 7.647919 0.034042
v 1.182600 7.658256 0.034472
v 1.179981 7.662344 0.034671
v 1.167475 7.664517 0.035235
v 1.160828 7.651254 0.035845
v 1.160346 7.653635 0.035839
v 1.160329 7.655801 0.035834
v 1.160661 7.657798 0.035829
v 1.161624 7.656782 0.035785
v 1.161483 7.660083 0.035823
v 1.162774 7.662145 0.035818
v 1.164592 7.662524 0.035747
v 1.164140 7.663641 0.035814
v 1.165904 7.665001 0.035811
v 1.169745 7.665275 0.035810
v 1.167536 7.665843 0.035809
v 1.169049 7.666389 0.035807
v 1.170648 7.666715 0.035807
v 1.171676 7.666810 0.035806
v 1.173150 7.665524 0.035810
v 1.173268 7.666806 0.035807
v 1.175468 7.666415 0.035808
v 1.177371 7.665719 0.035810
v 1.178958 7.664823 0.035812
v 1.180244 7.663836 0.035815
v 1.181518 7.662538 0.035818
v 1.182577 7.661047 0.035822
v 1.161632 7.649333 0.035850
v 1.162471 7.647947 0.035854
v 1.163350 7.646845 0.035857
v 1.164667 7.645561 0.035860
v 1.166515 7.644318 0.035864
v 1.167984 7.643644 0.035865
v 1.169931 7.643054 0.035867
v 1.172142 7.642838 0.035868
v 1.173333 7.642888 0.035868
v 1.173907 7.642953 0.035868
v 1.175565 7.643269 0.035867
v 1.177629 7.644082 0.035865
v 1.178467 7.644547 0.035864
v 1.179197 7.645015 0.035863
v 1.180152 7.645759 0.035861
v 1.181318 7.646901 0.035858
v 1.182526 7.648529 0.035854
v 1.183522 7.650522 0.035849
v 1.184161 7.652865 0.035843
v 1.184312 7.654880 0.035838
v 1.184144 7.656904 0.035833
v 1.183485 7.659244 0.035827
v 1.166073 7.664489 0.022085
v 1.167081 7.664296 0.021701
v 1.162610 7.659871 0.022321
v 1.161160 7.658041 0.022422
v 1.182804 7.652407 0.023880
v 1.174244 7.665515 0.024565
v 1.161805 7.652264 0.024936
v 1.166565 7.645490 0.025870
v 1.162300 7.650482 0.028400
v 1.170864 7.643386 0.028888
v 1.182483 7.651088 0.029478
v 1.182971 7.656404 0.029690
v 1.168606 7.665744 0.030454
v 1.168529 7.664930 0.030470
v 1.161824 7.659704 0.030827
v 1.161603 7.655749 0.031001
v 1.164605 7.646012 0.031449
v 1.173816 7.644097 0.031835
v 1.178431 7.645987 0.032045
v 1.182586 7.657977 0.032576
v 1.180499 7.661845 0.032256
v 1.175287 7.665297 0.033006
v 1.167125 7.665232 0.033345
v 1.160776 7.655505 0.033842
v 1.162125 7.658558 0.033698
v 1.183676 7.652654 0.035205
v 1.178242 7.664021 0.035756
v 1.182165 7.659186 0.035452
v 1.183111 7.653434 0.035231
v 1.180361 7.647603 0.034966
v 1.167917 7.644977 0.033855
v 1.165162 7.646681 0.034275
v 1.162313 7.650831 0.034042
v 1.165996 7.663686 0.033418
v 1.170695 7.644183 0.030760
v 1.168866 7.644633 0.031625
v 1.164890 7.646966 0.031427
v 1.162040 7.651428 0.031186
v 1.163308 7.661052 0.030744
v 1.173174 7.665552 0.030264
v 1.177934 7.664049 0.030068
v 1.181400 7.660583 0.029862
v 1.179753 7.647069 0.029281
v 1.175992 7.644667 0.029105
v 1.170240 7.644168 0.028855
v 1.165858 7.646194 0.028109
v 1.161671 7.656786 0.028127
v 1.163920 7.661625 0.027881
v 1.168135 7.664769 0.027662
v 1.173044 7.665563 0.027441
v 1.178979 7.663477 0.027192
v 1.182837 7.657451 0.026901
v 1.182381 7.650642 0.026632
v 1.178657 7.646110 0.026400
v 1.173686 7.644051 0.026175
v 1.162062 7.658462 0.025220
v 1.165330 7.663013 0.024973
v 1.168930 7.665008 0.024797
v 1.179616 7.662740 0.024325
v 1.182745 7.657833 0.024088
v 1.181357 7.649029 0.023726
v 1.178336 7.645638 0.023553
v 1.175043 7.644292 0.023408
v 1.169512 7.644406 0.023167
v 1.166092 7.646030 0.023014
v 1.163020 7.649271 0.022808
v 1.161569 7.653866 0.022601
v 1.159606 7.651728 0.098044
v 1.160305 7.649585 0.079202
v 1.159643 7.651582 0.079197
v 1.161101 7.648015 0.098077
v 1.161228 7.647911 0.098049
v 1.162592 7.646164 0.079211
v 1.161285 7.647824 0.079207
v 1.163965 7.644904 0.098076
v 1.165816 7.643580 0.098065
v 1.165773 7.643579 0.079218
v 1.164045 7.644791 0.079215
v 1.167548 7.642685 0.093354
v 1.169602 7.642047 0.093359
v 1.169613 7.642121 0.079222
v 1.167594 7.642740 0.079220
v 1.171391 7.641887 0.098104
v 1.171604 7.641930 0.093358
v 1.173919 7.641998 0.098099
v 1.173714 7.641988 0.093359
v 1.173710 7.641901 0.079223
v 1.171605 7.641890 0.079223
v 1.175680 7.642355 0.093359
v 1.177669 7.643062 0.093357
v 1.177679 7.642976 0.079220
v 1.175681 7.642314 0.079222
v 1.179426 7.644018 0.093355
v 1.181182 7.645373 0.098074
v 1.181129 7.645226 0.079215
v 1.179427 7.643978 0.079218
v 1.183796 7.648435 0.093346
v 1.183702 7.648424 0.079207
v 1.182475 7.646715 0.079211
v 1.184452 7.650128 0.098052
v 1.184526 7.650301 0.093340
v 1.185123 7.652324 0.093334
v 1.185166 7.652264 0.079197
v 1.184527 7.650260 0.079202
v 1.185475 7.654103 0.098065
v 1.185416 7.654291 0.098038
v 1.185324 7.656374 0.079187
v 1.185428 7.654267 0.079192
v 1.184955 7.658379 0.093319
v 1.184298 7.660334 0.079177
v 1.184957 7.658338 0.079182
v 1.183495 7.662015 0.098043
v 1.183291 7.662121 0.093309
v 1.182003 7.663793 0.093304
v 1.182008 7.663755 0.079168
v 1.183315 7.662096 0.079172
v 1.178842 7.666352 0.079161
v 1.180552 7.665126 0.079164
v 1.177120 7.667247 0.098043
v 1.174996 7.667954 0.093293
v 1.174979 7.667772 0.079157
v 1.177017 7.667220 0.079158
v 1.170882 7.668000 0.079156
v 1.172996 7.668035 0.079156
v 1.168918 7.667646 0.093293
v 1.166921 7.666944 0.079158
v 1.168919 7.667605 0.079157
v 1.163477 7.664697 0.079164
v 1.165173 7.665943 0.079161
v 1.162144 7.663376 0.098051
v 1.160898 7.661496 0.079172
v 1.162125 7.663205 0.079168
v 1.160076 7.659822 0.098066
v 1.159475 7.657677 0.093318
v 1.159450 7.657645 0.079182
v 1.160069 7.659662 0.079176
v 1.159217 7.655695 0.093326
v 1.159275 7.653587 0.093326
v 1.159276 7.653546 0.079192
v 1.159172 7.655653 0.079187
f 1 835 2
f 1 2 232
f 87 900 3
f 3 900 4
f 5 4 900
f 4 5 6
f 6 5 7
f 6 7 8
f 8 7 10
f 8 10 9
f 8 9 11
f 11 9 2
f 11 2 12
f 12 2 835
f 12 835 14
f 12 14 13
f 13 14 838
f 839 15 838
f 838 15 13
f 15 839 16
f 16 839 17
f 16 17 18
f 18 17 842
f 18 842 843
f 18 843 19
f 19 843 25
f 19 25 20
f 20 25 22
f 20 22 21
f 21 22 23
f 21 23 24
f 24 23 850
f 24 850 27
f 24 27 26
f 26 27 852
f 26 852 28
f 28 852 30
f 30 852 29
f 31 30 29
f 30 31 34
f 34 31 33
f 34 33 32
f 34 32 35
f 35 32 36
f 35 36 37
f 37 36 38
f 37 38 39
f 39 38 861
f 39 861 40
f 40 861 41
f 40 41 42
f 42 41 44
f 42 44 43
f 43 44 867
f 45 46 867
f 867 46 43
f 46 45 47
f 46 47 48
f 48 47 872
f 48 872 49
f 49 872 873
f 49 873 51
f 51 873 246
f 51 246 50
f 51 50 52
f 51 52 53
f 53 52 54
f 53 54 879
f 53 879 55
f 56 55 879
f 55 56 57
f 57 56 58
f 57 58 59
f 59 58 60
f 59 60 61
f 61 60 62
f 61 62 886
f 61 886 63
f 63 886 64
f 63 64 65
f 65 64 66
f 66 64 67
f 66 67 69
f 66 69 68
f 68 69 70
f 68 70 71
f 71 70 72
f 74 73 72
f 72 73 71
f 73 74 75
f 75 74 76
f 75 76 77
f 77 76 78
f 77 78 79
f 79 78 80
f 80 78 81
f 80 81 897
f 80 897 83
f 80 83 82
f 82 83 3
f 3 83 87
f 84 86 85
f 85 86 87
f 247 88 244
f 88 247 89
f 88 89 90
f 89 247 92
f 92 247 91
f 92 91 93
f 92 93 94
f 398 93 91
f 92 94 96
f 92 96 95
f 97 98 96
f 96 98 95
f 101 99 98
f 99 101 100
f 100 101 102
f 102 101 103
f 103 101 105
f 105 101 104
f 105 104 106
f 105 106 107
f 508 106 104
f 105 107 108
f 108 107 109
f 109 107 111
f 109 111 239
f 239 111 110
f 112 113 111
f 111 113 110
f 113 114 110
f 110 114 115
f 115 114 116
f 115 116 117
f 114 119 116
f 116 119 118
f 118 119 120
f 118 120 123
f 123 120 122
f 120 121 122
f 123 122 124
f 124 122 125
f 124 125 126
f 126 125 127
f 126 127 128
f 128 127 129
f 128 129 130
f 128 130 131
f 128 131 132
f 132 131 133
f 132 133 134
f 134 133 136
f 134 136 135
f 135 136 137
f 135 137 140
f 140 137 138
f 137 139 138
f 140 138 141
f 140 141 142
f 142 141 143
f 143 141 144
f 413 145 144
f 144 145 143
f 143 145 146
f 146 145 147
f 146 147 148
f 146 148 149
f 147 151 148
f 148 151 150
f 150 151 152
f 150 152 153
f 153 152 154
f 153 154 155
f 155 154 156
f 155 156 157
f 157 156 158
f 158 156 159
f 158 159 160
f 160 159 161
f 161 159 162
f 161 162 163
f 163 162 164
f 163 164 165
f 165 164 166
f 165 166 167
f 167 166 169
f 152 411 154
f 159 168 162
f 166 494 169
f 167 169 170
f 170 169 171
f 170 171 172
f 172 171 174
f 174 171 173
f 171 175 173
f 173 175 176
f 177 178 175
f 175 178 176
f 176 178 179
f 179 178 180
f 179 180 181
f 181 180 183
f 181 183 182
f 182 183 184
f 184 183 185
f 184 185 186
f 186 185 187
f 186 187 188
f 186 188 189
f 189 188 190
f 189 190 191
f 191 190 192
f 192 190 194
f 192 194 193
f 193 194 195
f 193 195 196
f 193 196 197
f 197 196 198
f 197 198 199
f 199 198 200
f 199 200 86
f 86 200 201
f 201 200 202
f 201 202 207
f 207 202 203
f 207 203 204
f 202 205 203
f 209 211 204
f 204 211 206
f 204 206 207
f 207 206 208
f 212 210 209
f 209 210 211
f 210 214 211
f 211 214 213
f 213 214 215
f 215 214 216
f 216 214 217
f 216 217 219
f 219 217 218
f 219 218 220
f 220 218 223
f 220 223 221
f 221 223 222
f 221 222 225
f 225 222 224
f 225 224 227
f 225 227 226
f 226 227 228
f 226 229 225
f 225 229 230
f 230 229 231
f 231 229 232
f 232 229 390
f 231 233 230
f 215 234 213
f 199 86 84
f 167 235 165
f 155 236 153
f 142 887 140
f 134 237 132
f 126 238 124
f 109 239 240
f 103 241 102
f 242 95 99
f 99 95 98
f 243 244 50
f 50 244 52
f 52 244 88
f 246 245 50
f 50 245 243
f 247 244 243
f 247 243 248
f 248 243 245
f 247 248 249
f 249 248 250
f 249 250 397
f 397 250 251
f 251 250 253
f 253 250 252
f 253 252 254
f 254 252 255
f 254 255 256
f 256 255 257
f 256 257 258
f 258 257 259
f 258 259 263
f 263 259 261
f 263 261 260
f 261 262 260
f 263 260 264
f 264 260 265
f 264 265 267
f 264 267 266
f 267 265 268
f 268 265 269
f 269 265 270
f 269 270 271
f 271 272 269
f 269 272 273
f 269 273 275
f 275 273 274
f 275 274 276
f 273 278 274
f 274 278 277
f 277 278 279
f 277 279 280
f 280 279 864
f 277 280 281
f 281 280 282
f 282 280 285
f 282 285 283
f 283 285 284
f 284 285 286
f 284 286 287
f 287 286 288
f 287 288 289
f 287 289 290
f 290 289 291
f 291 289 292
f 291 292 293
f 293 292 294
f 293 294 295
f 293 295 296
f 296 295 297
f 296 297 298
f 298 297 299
f 298 299 300
f 300 299 303
f 303 299 302
f 299 301 302
f 303 302 304
f 303 304 306
f 306 304 305
f 306 305 307
f 306 307 308
f 305 309 307
f 307 309 310
f 311 312 309
f 309 312 310
f 310 312 313
f 313 312 314
f 313 314 315
f 315 314 316
f 315 316 317
f 317 316 318
f 317 318 319
f 317 319 320
f 320 319 321
f 320 321 323
f 320 323 322
f 322 323 324
f 322 324 325
f 325 324 327
f 325 327 326
f 326 327 328
f 326 328 331
f 331 328 330
f 323 329 324
f 330 332 331
f 331 332 333
f 333 332 334
f 333 334 335
f 335 334 336
f 335 336 338
f 847 337 336
f 336 337 338
f 338 337 339
f 338 339 465
f 337 341 339
f 339 341 340
f 340 341 342
f 340 342 343
f 343 342 344
f 846 344 342
f 343 344 345
f 345 344 346
f 345 346 347
f 347 346 348
f 348 346 349
f 350 351 349
f 349 351 348
f 348 351 352
f 352 351 353
f 356 354 353
f 353 354 352
f 354 356 355
f 355 356 357
f 355 357 358
f 358 357 360
f 358 360 361
f 357 359 360
f 358 361 362
f 362 361 363
f 362 363 364
f 364 363 365
f 364 365 366
f 366 365 367
f 366 367 369
f 369 367 368
f 369 368 370
f 363 371 365
f 367 373 368
f 368 373 372
f 372 373 374
f 374 373 375
f 372 374 376
f 372 376 377
f 377 376 378
f 377 378 379
f 380 381 378
f 378 381 379
f 384 382 381
f 382 384 383
f 383 384 385
f 385 384 386
f 385 386 387
f 384 388 386
f 386 388 390
f 390 388 1
f 1 388 389
f 390 1 232
f 441 379 382
f 382 379 381
f 364 391 362
f 354 392 352
f 333 466 331
f 325 393 322
f 317 394 315
f 300 395 298
f 256 396 254
f 91 247 398
f 398 247 399
f 399 247 249
f 399 400 398
f 398 400 401
f 444 407 402
f 402 407 403
f 403 407 404
f 404 407 443
f 404 443 452
f 452 443 405
f 405 443 406
f 407 444 408
f 407 408 769
f 769 408 409
f 769 409 489
f 769 489 410
f 769 410 168
f 769 168 414
f 414 168 411
f 414 411 412
f 414 412 413
f 414 413 498
f 414 498 656
f 498 415 656
f 656 415 416
f 656 416 417
f 656 417 518
f 518 417 418
f 518 418 419
f 518 419 420
f 518 420 516
f 516 420 401
f 516 401 400
f 516 400 424
f 424 400 421
f 424 421 422
f 424 422 423
f 424 423 425
f 424 425 426
f 424 426 512
f 512 426 479
f 512 479 427
f 512 427 428
f 428 427 429
f 428 429 474
f 428 474 430
f 428 430 471
f 428 471 433
f 433 471 431
f 433 431 432
f 433 432 434
f 433 434 465
f 433 465 437
f 437 465 435
f 437 435 436
f 437 436 462
f 437 462 438
f 437 438 439
f 437 439 370
f 437 370 509
f 509 370 440
f 509 440 441
f 509 441 442
f 509 442 406
f 445 444 446
f 446 444 447
f 447 444 402
f 444 195 194
f 195 444 196
f 196 444 445
f 446 202 200
f 446 200 198
f 446 198 445
f 445 198 196
f 447 205 446
f 446 205 202
f 205 447 203
f 203 447 402
f 203 402 204
f 204 402 403
f 204 403 209
f 448 212 403
f 403 212 209
f 212 448 210
f 210 448 449
f 450 218 451
f 451 218 217
f 451 217 214
f 451 214 449
f 449 214 210
f 452 223 450
f 450 223 218
f 403 404 448
f 448 404 449
f 449 404 451
f 451 404 452
f 452 450 451
f 223 452 222
f 222 452 224
f 224 452 405
f 224 405 227
f 228 227 453
f 453 227 405
f 228 453 226
f 226 453 454
f 386 390 455
f 455 390 229
f 455 229 454
f 454 229 226
f 456 387 455
f 455 387 386
f 456 455 406
f 456 406 442
f 387 456 385
f 385 456 442
f 385 442 383
f 383 442 441
f 383 441 382
f 379 441 457
f 368 372 458
f 458 372 377
f 458 377 379
f 458 379 457
f 458 370 368
f 441 440 457
f 457 440 458
f 458 440 370
f 369 370 366
f 366 370 439
f 366 439 364
f 459 391 364
f 459 364 439
f 391 459 362
f 362 459 461
f 354 355 460
f 460 355 358
f 460 358 461
f 461 358 362
f 462 392 460
f 460 392 354
f 439 438 459
f 459 438 461
f 461 438 460
f 460 438 462
f 392 462 352
f 352 462 436
f 352 436 348
f 347 348 436
f 347 436 345
f 345 436 463
f 464 339 340
f 464 340 463
f 463 340 343
f 463 343 345
f 464 465 339
f 436 435 463
f 463 435 464
f 464 435 465
f 338 465 434
f 338 434 335
f 335 434 333
f 466 333 434
f 331 466 467
f 325 326 468
f 468 326 467
f 467 326 331
f 469 393 468
f 468 393 325
f 434 432 466
f 466 432 467
f 467 432 468
f 468 432 469
f 469 432 431
f 393 469 322
f 322 469 431
f 322 431 320
f 320 431 471
f 320 471 317
f 394 317 470
f 470 317 471
f 394 470 315
f 315 470 473
f 307 310 472
f 472 310 473
f 473 310 313
f 473 313 315
f 475 308 472
f 472 308 307
f 471 430 470
f 470 430 473
f 473 430 472
f 472 430 475
f 475 430 474
f 308 475 306
f 306 475 474
f 306 474 303
f 303 474 429
f 303 429 300
f 395 300 476
f 476 300 429
f 395 476 298
f 298 476 477
f 291 293 478
f 478 293 296
f 478 296 298
f 478 298 477
f 479 290 478
f 478 290 291
f 429 427 476
f 476 427 477
f 477 427 478
f 478 427 479
f 479 287 290
f 287 479 426
f 287 426 284
f 426 283 284
f 283 426 282
f 282 426 480
f 481 274 480
f 480 274 277
f 480 277 281
f 480 281 282
f 482 276 481
f 481 276 274
f 426 425 480
f 480 425 482
f 482 481 480
f 276 482 275
f 275 482 425
f 275 425 269
f 269 425 423
f 269 423 268
f 268 423 267
f 483 266 267
f 483 267 423
f 266 483 264
f 264 483 484
f 485 256 486
f 486 256 258
f 486 258 263
f 486 263 484
f 484 263 264
f 487 396 485
f 485 396 256
f 423 422 483
f 483 422 484
f 484 422 486
f 486 422 485
f 485 422 487
f 487 422 421
f 396 487 254
f 254 487 253
f 253 487 421
f 253 421 251
f 251 421 400
f 251 400 397
f 397 400 249
f 249 400 399
f 406 455 454
f 406 454 453
f 453 405 406
f 188 408 190
f 190 408 194
f 194 408 444
f 408 188 488
f 488 188 187
f 489 409 490
f 490 409 491
f 491 409 492
f 492 409 488
f 488 409 408
f 177 175 490
f 490 175 489
f 177 490 178
f 178 490 491
f 185 183 492
f 492 183 180
f 492 180 178
f 492 178 491
f 488 187 492
f 492 187 185
f 169 410 171
f 171 410 489
f 171 489 175
f 169 494 410
f 168 410 493
f 493 410 494
f 162 168 493
f 494 166 164
f 494 164 493
f 493 164 162
f 154 411 156
f 156 411 168
f 156 168 159
f 413 412 495
f 495 412 496
f 496 412 411
f 145 413 495
f 496 152 151
f 496 151 495
f 495 151 147
f 495 147 145
f 496 411 152
f 138 498 141
f 141 498 413
f 141 413 144
f 139 497 138
f 138 497 498
f 416 415 499
f 499 415 500
f 500 415 501
f 501 415 497
f 497 415 498
f 499 130 129
f 499 129 416
f 130 499 131
f 131 499 500
f 501 137 136
f 501 136 500
f 500 136 133
f 500 133 131
f 497 139 501
f 501 139 137
f 122 417 125
f 125 417 416
f 125 416 127
f 127 416 129
f 121 417 122
f 418 417 502
f 502 417 503
f 503 417 504
f 112 111 502
f 502 111 418
f 112 502 113
f 113 502 503
f 120 119 504
f 504 119 114
f 504 114 113
f 504 113 503
f 417 121 504
f 504 121 120
f 106 418 107
f 107 418 111
f 508 505 106
f 106 505 418
f 420 419 506
f 506 419 507
f 507 419 508
f 508 419 505
f 505 419 418
f 97 96 506
f 506 96 420
f 97 506 98
f 98 506 507
f 508 104 101
f 508 101 98
f 508 98 507
f 93 401 94
f 94 401 420
f 94 420 96
f 398 401 93
f 437 509 683
f 437 683 510
f 437 510 433
f 433 510 511
f 433 511 428
f 428 511 513
f 428 513 512
f 424 512 513
f 514 424 513
f 515 424 514
f 515 516 424
f 516 515 517
f 516 517 518
f 517 519 518
f 518 519 656
f 656 519 520
f 522 521 520
f 521 680 768
f 522 680 521
f 768 680 524
f 768 524 523
f 524 525 523
f 771 527 526
f 527 529 526
f 526 529 528
f 530 528 529
f 531 530 532
f 655 532 534
f 533 534 535
f 536 535 537
f 536 537 829
f 829 537 538
f 829 538 539
f 541 538 540
f 542 541 540
f 541 542 543
f 543 542 545
f 543 545 544
f 546 545 547
f 549 548 550
f 549 550 551
f 551 552 654
f 654 552 653
f 653 552 553
f 653 553 554
f 653 554 652
f 652 554 555
f 652 555 556
f 556 555 675
f 675 558 556
f 558 675 557
f 558 557 651
f 651 557 559
f 559 650 651
f 650 559 561
f 650 561 560
f 562 560 561
f 562 561 563
f 564 565 649
f 567 565 564
f 565 567 566
f 566 568 648
f 569 571 570
f 570 571 572
f 570 572 574
f 572 573 574
f 574 573 646
f 576 575 577
f 576 577 578
f 579 578 577
f 578 579 645
f 673 645 579
f 673 580 645
f 581 673 585
f 581 585 582
f 581 582 583
f 583 586 777
f 777 586 584
f 582 586 583
f 584 587 777
f 590 588 587
f 588 590 589
f 589 592 591
f 589 590 592
f 591 592 593
f 644 593 672
f 594 672 595
f 597 596 595
f 596 597 599
f 599 597 598
f 599 670 780
f 600 780 670
f 780 600 669
f 669 602 601
f 643 782 603
f 605 603 604
f 643 603 605
f 604 665 605
f 665 784 605
f 665 664 784
f 607 606 662
f 607 662 608
f 608 662 609
f 608 609 610
f 610 661 611
f 610 609 661
f 611 613 642
f 642 613 612
f 612 614 615
f 613 614 612
f 615 614 616
f 615 616 641
f 641 617 618
f 618 617 657
f 618 657 790
f 790 657 619
f 620 790 621
f 790 619 621
f 620 621 623
f 622 623 624
f 640 625 627
f 627 625 626
f 627 626 628
f 627 628 639
f 639 628 629
f 639 629 638
f 631 630 632
f 631 632 633
f 633 632 634
f 633 634 793
f 793 634 636
f 793 636 635
f 635 636 637
f 631 638 630
f 630 638 629
f 625 640 624
f 624 640 791
f 791 622 624
f 622 620 623
f 617 641 616
f 613 611 661
f 606 607 784
f 606 784 664
f 603 782 602
f 782 601 602
f 601 780 669
f 670 599 598
f 595 596 594
f 672 594 644
f 593 644 591
f 588 777 587
f 673 581 580
f 575 576 646
f 575 646 573
f 569 570 647
f 569 647 568
f 568 647 648
f 566 648 565
f 649 562 564
f 564 562 563
f 552 551 553
f 553 551 550
f 549 546 548
f 548 546 547
f 545 546 544
f 541 539 538
f 535 536 533
f 533 655 534
f 655 531 532
f 531 528 530
f 527 771 525
f 771 523 525
f 520 521 656
f 625 624 727
f 658 657 617
f 658 617 659
f 617 616 659
f 661 609 719
f 719 609 718
f 718 609 662
f 662 606 663
f 663 606 798
f 798 606 664
f 666 604 667
f 667 604 603
f 667 603 668
f 668 603 602
f 670 669 600
f 670 598 716
f 598 597 716
f 788 595 715
f 592 590 713
f 584 586 673
f 673 586 582
f 582 585 673
f 573 572 708
f 569 568 706
f 566 567 674
f 674 567 564
f 704 563 561
f 561 559 702
f 559 557 702
f 702 557 813
f 557 675 701
f 555 554 676
f 677 553 699
f 677 699 816
f 699 550 698
f 548 547 698
f 695 534 532
f 524 680 525
f 525 680 692
f 680 522 681
f 681 522 682
f 522 520 682
f 520 519 682
f 514 688 689
f 514 513 688
f 688 513 511
f 686 510 683
f 684 509 443
f 443 509 406
f 509 684 685
f 509 685 683
f 683 685 686
f 686 687 510
f 510 687 511
f 687 688 511
f 514 689 690
f 690 515 514
f 515 690 517
f 517 691 519
f 691 682 519
f 680 681 692
f 692 693 525
f 525 693 527
f 527 693 774
f 527 774 529
f 774 694 529
f 694 530 529
f 530 694 695
f 530 695 532
f 534 695 696
f 534 696 535
f 535 696 537
f 537 696 697
f 537 697 538
f 538 697 679
f 538 679 540
f 540 679 542
f 542 679 678
f 542 678 545
f 678 547 545
f 547 678 698
f 548 698 550
f 550 699 553
f 553 677 700
f 700 554 553
f 554 700 676
f 676 701 555
f 555 701 675
f 557 701 813
f 561 702 703
f 561 703 704
f 563 704 564
f 564 704 674
f 566 674 705
f 566 705 568
f 705 706 568
f 706 707 569
f 569 707 571
f 571 707 708
f 571 708 572
f 708 709 573
f 573 709 575
f 575 709 710
f 575 710 577
f 577 710 579
f 579 710 711
f 579 711 673
f 673 711 802
f 673 802 584
f 802 587 584
f 587 802 712
f 587 712 590
f 590 712 713
f 592 713 714
f 592 715 593
f 593 715 672
f 672 715 595
f 595 788 597
f 597 788 716
f 716 671 670
f 671 717 670
f 670 717 669
f 717 668 669
f 669 668 602
f 666 665 604
f 666 798 665
f 665 798 664
f 663 718 662
f 719 613 661
f 613 719 660
f 660 720 613
f 613 720 614
f 614 720 616
f 616 720 721
f 616 721 659
f 657 658 722
f 722 658 733
f 657 722 619
f 619 722 621
f 722 730 621
f 621 730 623
f 730 727 623
f 623 727 624
f 723 625 724
f 724 625 727
f 724 727 725
f 725 727 726
f 726 727 728
f 728 727 730
f 728 730 729
f 729 730 731
f 731 730 732
f 732 730 734
f 734 730 733
f 734 733 735
f 735 733 736
f 736 733 737
f 737 733 738
f 737 738 739
f 739 738 740
f 740 738 794
f 740 794 741
f 741 794 637
f 741 637 742
f 742 637 743
f 743 637 744
f 744 637 745
f 745 637 636
f 625 723 746
f 625 746 747
f 625 747 626
f 626 747 748
f 626 748 749
f 626 749 750
f 626 750 628
f 628 750 751
f 628 751 752
f 628 752 629
f 629 752 753
f 629 753 754
f 629 754 630
f 630 754 755
f 630 755 756
f 630 756 757
f 630 757 632
f 632 757 758
f 632 758 759
f 632 759 760
f 632 760 761
f 632 761 634
f 634 761 762
f 634 762 763
f 634 763 764
f 634 764 765
f 634 765 636
f 636 765 766
f 636 766 767
f 636 767 745
f 51 766 765
f 51 765 49
f 49 765 764
f 49 764 48
f 48 764 46
f 46 764 763
f 46 763 43
f 43 763 762
f 43 762 42
f 42 762 761
f 42 761 40
f 40 761 760
f 40 760 39
f 39 760 759
f 39 759 37
f 37 759 758
f 37 758 35
f 35 758 757
f 35 757 34
f 34 757 756
f 34 756 30
f 30 756 755
f 30 755 28
f 28 755 754
f 28 754 26
f 26 754 753
f 26 753 24
f 24 753 752
f 24 752 21
f 21 752 751
f 21 751 20
f 20 751 750
f 20 750 19
f 19 750 749
f 19 749 18
f 18 749 748
f 18 748 16
f 16 748 747
f 16 747 15
f 15 747 746
f 15 746 13
f 13 746 12
f 12 746 723
f 12 723 11
f 11 723 724
f 11 724 725
f 11 725 8
f 8 725 726
f 8 726 6
f 6 726 4
f 4 726 728
f 4 728 3
f 3 728 729
f 3 729 82
f 82 729 80
f 80 729 731
f 80 731 79
f 79 731 732
f 79 732 77
f 77 732 734
f 77 734 75
f 75 734 735
f 75 735 73
f 73 735 71
f 71 735 736
f 71 736 68
f 68 736 737
f 68 737 739
f 68 739 66
f 66 739 740
f 66 740 65
f 65 740 741
f 65 741 63
f 63 741 61
f 61 741 742
f 61 742 59
f 59 742 743
f 59 743 744
f 59 744 57
f 57 744 745
f 57 745 55
f 55 745 767
f 55 767 53
f 53 767 766
f 53 766 51
f 414 521 769
f 769 521 768
f 769 768 770
f 414 656 521
f 523 771 770
f 655 533 831
f 533 536 830
f 829 539 828
f 539 541 828
f 772 541 543
f 772 543 827
f 544 546 826
f 549 551 773
f 773 551 825
f 823 652 774
f 652 556 774
f 775 558 651
f 574 646 815
f 815 646 814
f 776 576 578
f 776 578 645
f 581 583 580
f 580 583 645
f 645 583 777
f 777 588 812
f 812 588 811
f 589 591 810
f 778 591 644
f 778 644 779
f 779 644 594
f 779 594 809
f 596 599 808
f 807 599 780
f 782 643 806
f 806 643 783
f 783 643 805
f 643 605 805
f 785 608 786
f 608 610 786
f 786 610 611
f 786 611 642
f 612 615 787
f 788 615 641
f 788 641 789
f 641 618 789
f 789 618 671
f 618 790 671
f 671 790 801
f 790 620 801
f 620 622 792
f 792 791 667
f 792 622 791
f 639 799 627
f 639 638 798
f 638 631 718
f 631 633 797
f 793 635 796
f 637 794 795
f 637 795 635
f 635 795 796
f 793 796 797
f 797 718 631
f 639 798 799
f 627 799 640
f 640 799 800
f 640 800 667
f 640 667 791
f 792 801 620
f 615 788 787
f 612 787 714
f 714 787 715
f 612 714 642
f 608 785 607
f 607 785 803
f 803 784 607
f 784 803 804
f 784 804 605
f 605 804 805
f 782 806 601
f 806 781 601
f 601 781 780
f 780 781 807
f 599 807 808
f 596 808 809
f 596 809 594
f 778 810 591
f 589 810 811
f 589 811 588
f 777 812 645
f 645 812 813
f 813 776 645
f 576 776 814
f 576 814 646
f 574 815 570
f 815 816 570
f 816 817 570
f 570 817 647
f 647 817 818
f 647 818 648
f 648 818 819
f 648 819 565
f 565 819 820
f 565 820 649
f 820 562 649
f 562 820 821
f 562 821 560
f 560 821 650
f 821 822 650
f 822 775 650
f 650 775 651
f 558 775 694
f 558 694 556
f 556 694 774
f 652 823 653
f 823 824 653
f 653 824 654
f 654 824 551
f 551 824 825
f 549 773 546
f 546 773 826
f 544 826 827
f 827 543 544
f 772 828 541
f 829 830 536
f 533 830 831
f 831 832 655
f 655 832 531
f 531 832 833
f 833 528 531
f 528 833 834
f 834 526 528
f 526 834 771
f 771 834 770
f 523 770 768
f 797 633 793
f 769 770 407
f 407 770 834
f 407 834 443
f 443 834 684
f 684 834 833
f 684 833 685
f 685 833 832
f 685 832 686
f 686 832 831
f 686 831 830
f 686 830 687
f 687 830 688
f 688 830 829
f 688 829 828
f 688 828 689
f 689 828 690
f 690 828 772
f 690 772 827
f 690 827 517
f 517 827 691
f 691 827 826
f 691 826 682
f 682 826 773
f 682 773 681
f 681 773 825
f 681 825 692
f 692 825 824
f 692 824 823
f 692 823 693
f 693 823 774
f 694 775 695
f 695 775 822
f 695 822 696
f 696 822 821
f 696 821 697
f 697 821 820
f 697 820 679
f 679 820 819
f 679 819 678
f 678 819 818
f 678 818 698
f 698 818 817
f 698 817 699
f 699 817 816
f 677 816 815
f 677 815 700
f 700 815 814
f 700 814 676
f 676 814 776
f 676 776 701
f 701 776 813
f 813 812 702
f 702 812 811
f 702 811 703
f 703 811 704
f 704 811 810
f 704 810 778
f 704 778 674
f 674 778 779
f 674 779 809
f 674 809 705
f 705 809 808
f 705 808 706
f 706 808 807
f 706 807 707
f 707 807 781
f 707 781 708
f 708 781 806
f 708 806 709
f 709 806 783
f 709 783 710
f 710 783 805
f 710 805 804
f 710 804 711
f 711 804 803
f 711 803 802
f 802 803 785
f 802 785 712
f 712 785 786
f 712 786 713
f 713 786 642
f 713 642 714
f 592 714 715
f 788 715 787
f 716 788 789
f 716 789 671
f 671 801 717
f 717 801 668
f 668 801 792
f 668 792 667
f 667 800 666
f 666 800 799
f 666 799 798
f 663 798 638
f 663 638 718
f 718 797 719
f 719 797 796
f 719 796 660
f 660 796 720
f 720 796 795
f 720 795 721
f 721 795 794
f 721 794 659
f 659 794 738
f 659 738 658
f 658 738 733
f 722 733 730
f 835 1 389
f 836 14 837
f 837 14 835
f 380 378 14
f 380 14 381
f 381 14 836
f 837 388 836
f 836 388 384
f 836 384 381
f 835 389 837
f 837 389 388
f 14 378 838
f 838 378 376
f 838 376 374
f 838 374 839
f 839 374 375
f 17 839 840
f 840 839 841
f 17 371 363
f 371 17 365
f 365 17 840
f 841 373 367
f 841 367 840
f 840 367 365
f 839 375 841
f 841 375 373
f 363 361 17
f 17 361 842
f 842 361 360
f 842 360 359
f 844 843 845
f 845 843 842
f 350 349 843
f 350 843 351
f 351 843 844
f 357 356 845
f 845 356 844
f 844 356 353
f 844 353 351
f 842 359 845
f 845 359 357
f 843 349 25
f 25 349 346
f 25 346 344
f 25 344 846
f 23 22 847
f 847 22 848
f 848 22 849
f 849 22 846
f 846 22 25
f 847 336 23
f 337 847 848
f 342 341 849
f 849 341 848
f 848 341 337
f 849 846 342
f 336 334 23
f 23 334 850
f 850 334 332
f 850 332 330
f 850 330 851
f 852 27 853
f 853 27 854
f 854 27 855
f 855 27 851
f 851 27 850
f 329 323 853
f 853 323 852
f 329 853 324
f 324 853 854
f 328 327 855
f 855 327 854
f 854 327 324
f 851 330 855
f 855 330 328
f 323 321 852
f 852 321 29
f 29 321 319
f 29 319 856
f 856 319 318
f 33 31 857
f 857 31 858
f 858 31 859
f 859 31 856
f 856 31 29
f 311 309 857
f 857 309 33
f 311 857 312
f 312 857 858
f 316 314 859
f 859 314 858
f 858 314 312
f 856 318 859
f 859 318 316
f 309 305 33
f 33 305 32
f 32 305 304
f 32 304 302
f 32 302 36
f 36 302 860
f 860 302 301
f 861 38 862
f 862 38 860
f 860 38 36
f 860 863 862
f 861 294 292
f 295 294 862
f 862 294 861
f 863 299 862
f 862 299 297
f 862 297 295
f 860 301 863
f 863 301 299
f 861 292 41
f 41 292 289
f 41 289 288
f 44 41 864
f 864 41 865
f 865 41 866
f 864 279 44
f 280 864 865
f 286 285 866
f 866 285 865
f 865 285 280
f 41 288 866
f 866 288 286
f 279 278 44
f 44 278 273
f 44 273 867
f 867 273 272
f 867 272 868
f 868 272 271
f 47 45 869
f 869 45 870
f 870 45 871
f 871 45 868
f 868 45 867
f 262 261 869
f 869 261 47
f 262 869 260
f 260 869 870
f 270 265 871
f 871 265 870
f 870 265 260
f 868 271 871
f 871 271 270
f 261 259 47
f 47 259 872
f 872 259 257
f 872 257 873
f 873 257 255
f 874 246 875
f 875 246 873
f 248 245 874
f 874 245 246
f 252 250 875
f 875 250 874
f 874 250 248
f 873 255 875
f 875 255 252
f 52 88 876
f 876 88 90
f 54 52 877
f 877 52 876
f 876 878 877
f 242 99 54
f 242 54 95
f 95 54 877
f 89 92 878
f 878 92 877
f 877 92 95
f 876 90 878
f 878 90 89
f 99 100 54
f 54 100 879
f 879 100 102
f 879 102 241
f 879 241 880
f 58 56 881
f 881 56 882
f 882 56 883
f 883 56 880
f 880 56 879
f 240 239 881
f 881 239 58
f 240 881 109
f 109 881 882
f 883 103 105
f 883 105 882
f 882 105 108
f 882 108 109
f 880 241 883
f 883 241 103
f 239 110 58
f 58 110 115
f 58 115 60
f 60 115 117
f 62 60 884
f 884 60 885
f 238 126 62
f 238 62 124
f 124 62 884
f 116 118 885
f 885 118 884
f 884 118 123
f 884 123 124
f 60 117 885
f 885 117 116
f 126 128 62
f 62 128 886
f 886 128 132
f 886 132 237
f 67 64 887
f 887 64 888
f 888 64 889
f 889 64 886
f 887 142 67
f 140 887 888
f 134 135 889
f 889 135 140
f 889 140 888
f 886 237 889
f 889 237 134
f 142 143 67
f 67 143 69
f 69 143 146
f 69 146 149
f 70 69 890
f 890 69 891
f 236 155 70
f 153 236 890
f 890 236 70
f 148 150 891
f 891 150 890
f 890 150 153
f 69 149 891
f 891 149 148
f 155 157 70
f 70 157 72
f 72 157 158
f 72 158 892
f 892 158 160
f 76 74 235
f 235 74 893
f 893 74 894
f 894 74 892
f 892 74 72
f 235 167 76
f 165 235 893
f 161 163 894
f 894 163 893
f 893 163 165
f 894 892 161
f 161 892 160
f 76 167 170
f 76 170 78
f 78 170 172
f 78 172 174
f 81 78 895
f 895 78 896
f 81 182 184
f 182 81 181
f 181 81 895
f 896 173 895
f 895 173 176
f 895 176 179
f 181 895 179
f 78 174 896
f 896 174 173
f 81 184 897
f 897 184 186
f 897 186 189
f 897 189 191
f 87 83 85
f 85 83 898
f 898 83 899
f 899 83 897
f 84 85 199
f 199 85 898
f 192 193 899
f 899 193 898
f 898 193 197
f 898 197 199
f 897 191 899
f 899 191 192
f 86 201 87
f 87 201 900
f 900 201 207
f 900 207 208
f 7 5 901
f 901 5 902
f 902 5 903
f 903 5 900
f 901 234 7
f 7 234 215
f 234 901 213
f 213 901 902
f 206 211 903
f 903 211 902
f 902 211 213
f 900 208 903
f 903 208 206
f 215 216 7
f 7 216 10
f 10 216 219
f 10 219 904
f 904 219 220
f 2 9 905
f 905 9 906
f 906 9 907
f 907 9 904
f 904 9 10
f 905 233 231
f 905 231 2
f 230 233 906
f 906 233 905
f 221 225 907
f 907 225 906
f 906 225 230
f 904 220 907
f 907 220 221
f 232 2 231
