# USD → MuJoCo (world-space, simplified)
v 1.717806 7.106028 0.880563
v 1.718725 7.106090 0.879610
v 1.717634 7.106034 0.878822
v 1.717982 7.106065 0.877674
v 1.715591 7.106028 0.877361
v 1.713147 7.106124 0.876381
v 1.712778 7.106126 0.876568
v 1.712813 7.106054 0.877736
v 1.711658 7.106067 0.879554
v 1.711129 7.106137 0.881631
v 1.711991 7.106060 0.881170
v 1.711318 7.106135 0.882002
v 1.714350 7.106049 0.883035
v 1.716782 7.106037 0.882337
v 1.718093 7.106089 0.882204
v 1.717721 7.106096 0.882677
v 1.714397 7.106025 0.880407
v 1.716681 7.132594 0.880015
v 1.716462 7.131526 0.879801
v 1.714912 7.130024 0.880015
v 1.716396 7.131467 0.880170
v 1.716332 7.131467 0.879557
v 1.716530 7.132595 0.879302
v 1.716206 7.131468 0.879273
v 1.716346 7.132596 0.878984
v 1.716023 7.131469 0.879022
v 1.716101 7.132598 0.878712
v 1.715793 7.131530 0.878727
v 1.715524 7.131473 0.878660
v 1.715470 7.132602 0.878347
v 1.715229 7.131474 0.878564
v 1.715111 7.132604 0.878271
v 1.714921 7.131476 0.878531
v 1.714745 7.132607 0.878271
v 1.714612 7.131478 0.878564
v 1.714386 7.132608 0.878347
v 1.714317 7.131480 0.878660
v 1.714051 7.132610 0.878496
v 1.714049 7.131482 0.878815
v 1.713755 7.132612 0.878712
v 1.713818 7.131483 0.879022
v 1.713509 7.132614 0.878984
v 1.713549 7.131544 0.879282
v 1.713510 7.131485 0.879557
v 1.713213 7.132616 0.879650
v 1.713370 7.131545 0.879904
v 1.713446 7.131485 0.880170
v 1.713213 7.132616 0.880380
v 1.713510 7.131485 0.880473
v 1.713326 7.132615 0.880728
v 1.713636 7.131484 0.880757
v 1.713509 7.132614 0.881046
v 1.713800 7.131542 0.881094
v 1.714049 7.131482 0.881215
v 1.714051 7.132610 0.881534
v 1.714317 7.131480 0.881370
v 1.714386 7.132608 0.881683
v 1.714612 7.131478 0.881466
v 1.714745 7.132606 0.881759
v 1.714973 7.131535 0.881570
v 1.715229 7.131474 0.881466
v 1.715470 7.132602 0.881683
v 1.715524 7.131473 0.881370
v 1.715805 7.132600 0.881534
v 1.715793 7.131471 0.881215
v 1.716101 7.132598 0.881318
v 1.716111 7.131528 0.881017
v 1.716206 7.131468 0.880757
v 1.716530 7.132595 0.880728
v 1.716332 7.131467 0.880473
v 1.716643 7.132595 0.880380
v 1.718655 7.106055 0.971183
v 1.717991 7.106062 0.969687
v 1.717734 7.106068 0.969367
v 1.715913 7.106034 0.969301
v 1.715183 7.106112 0.968058
v 1.714767 7.106114 0.968036
v 1.713646 7.106061 0.968994
v 1.711844 7.106099 0.969314
v 1.711551 7.106134 0.969666
v 1.712020 7.106052 0.971280
v 1.710981 7.106137 0.970785
v 1.710834 7.106134 0.971368
v 1.710787 7.106139 0.972015
v 1.710809 7.106139 0.972431
v 1.710911 7.106133 0.973024
v 1.711131 7.106107 0.973636
v 1.712701 7.106055 0.974196
v 1.712774 7.106126 0.975460
v 1.712427 7.106129 0.975233
v 1.713144 7.106124 0.975649
v 1.715611 7.106040 0.974937
v 1.717232 7.106037 0.973904
v 1.717922 7.106034 0.972718
v 1.715286 7.106019 0.971919
v 1.716681 7.132594 0.972015
v 1.716396 7.131467 0.971860
v 1.714912 7.130024 0.972015
v 1.716396 7.131467 0.972170
v 1.716643 7.132595 0.971650
v 1.716332 7.131467 0.971557
v 1.716530 7.132595 0.971302
v 1.716242 7.131527 0.971193
v 1.716023 7.131469 0.971022
v 1.716101 7.132598 0.970712
v 1.715793 7.131471 0.970815
v 1.715805 7.132600 0.970496
v 1.715524 7.131473 0.970660
v 1.715470 7.132602 0.970347
v 1.715194 7.131533 0.970484
v 1.714921 7.131476 0.970531
v 1.714745 7.132606 0.970271
v 1.714612 7.131478 0.970564
v 1.714386 7.132608 0.970347
v 1.714318 7.131480 0.970660
v 1.714051 7.132610 0.970496
v 1.713966 7.131541 0.970788
v 1.713818 7.131483 0.971022
v 1.713509 7.132614 0.970984
v 1.713549 7.131544 0.971282
v 1.713510 7.131485 0.971557
v 1.713213 7.132616 0.971650
v 1.713370 7.131545 0.971904
v 1.713446 7.131485 0.972170
v 1.713213 7.132616 0.972380
v 1.713510 7.131485 0.972474
v 1.713326 7.132615 0.972728
v 1.713636 7.131484 0.972757
v 1.713509 7.132614 0.973046
v 1.713818 7.131483 0.973008
v 1.713755 7.132612 0.973318
v 1.714049 7.131482 0.973215
v 1.714051 7.132610 0.973534
v 1.714318 7.131480 0.973370
v 1.714386 7.132608 0.973683
v 1.714612 7.131478 0.973466
v 1.714745 7.132606 0.973759
v 1.714973 7.131535 0.973570
v 1.715229 7.131474 0.973466
v 1.715470 7.132602 0.973683
v 1.715601 7.131531 0.973414
v 1.715793 7.131471 0.973215
v 1.716101 7.132598 0.973318
v 1.716111 7.131528 0.973017
v 1.716206 7.131468 0.972757
v 1.716530 7.132595 0.972728
v 1.716332 7.131467 0.972474
v 1.716643 7.132595 0.972380
v 1.717178 7.142004 0.879402
v 1.711944 7.142041 0.969819
v 1.712940 7.142032 0.973063
v 1.716758 7.141777 0.879105
v 1.716330 7.136065 0.878595
v 1.715716 7.141829 0.878151
v 1.715482 7.135579 0.878108
v 1.714336 7.135835 0.878134
v 1.714721 7.135846 0.878043
v 1.714067 7.141840 0.878239
v 1.713384 7.141915 0.878798
v 1.713347 7.135840 0.878852
v 1.713010 7.141794 0.879744
v 1.713127 7.135855 0.879226
v 1.713515 7.141649 0.881372
v 1.714267 7.136121 0.881877
v 1.715084 7.141688 0.882005
v 1.715992 7.141901 0.881766
v 1.716549 7.141739 0.881246
v 1.716976 7.141716 0.971935
v 1.716648 7.141828 0.970882
v 1.716542 7.135835 0.970833
v 1.715568 7.141677 0.970079
v 1.714422 7.141804 0.970100
v 1.715136 7.135843 0.970039
v 1.712993 7.141758 0.971830
v 1.712963 7.135857 0.972035
v 1.713021 7.141854 0.972398
v 1.713354 7.135854 0.973197
v 1.713830 7.141669 0.973648
v 1.715081 7.136073 0.973992
v 1.715333 7.141700 0.973994
v 1.715489 7.136070 0.973921
v 1.716559 7.141835 0.973306
v 1.716821 7.141646 0.972803
v 1.718471 7.141985 0.878130
v 1.716213 7.141812 0.876235
v 1.718556 7.141983 0.881361
v 1.718474 7.141989 0.973613
v 1.713039 7.142021 0.880991
v 1.716803 7.141775 0.880823
v 1.713995 7.142027 0.969795
v 1.717200 7.141996 0.876933
v 1.711487 7.142044 0.881377
v 1.714836 7.142003 0.883968
v 1.717269 7.142008 0.883041
v 1.718810 7.141990 0.879037
v 1.718595 7.142002 0.970607
v 1.717638 7.141829 0.969056
v 1.717234 7.141999 0.968768
v 1.711653 7.142041 0.973939
v 1.714759 7.141759 0.878028
v 1.716391 7.142004 0.970273
v 1.713300 7.141757 0.973078
v 1.711879 7.141928 0.877536
v 1.711391 7.142042 0.878529
v 1.712787 7.142036 0.883129
v 1.718432 7.141849 0.881996
v 1.718959 7.141742 0.972009
v 1.718691 7.141744 0.970567
v 1.713904 7.141800 0.968188
v 1.711643 7.141831 0.969858
v 1.711353 7.141829 0.970401
v 1.711096 7.141828 0.972845
v 1.715205 7.141861 0.975983
v 1.717091 7.141759 0.975388
v 1.717648 7.141750 0.974964
v 1.718097 7.141753 0.974490
v 1.718708 7.141744 0.973419
v 1.718901 7.141748 0.972707
v 1.714964 7.142015 0.877788
v 1.716956 7.141971 0.880948
v 1.717216 7.141986 0.972094
v 1.712860 7.142011 0.971582
v 1.713944 7.141947 0.973810
v 1.715523 7.141999 0.974159
v 1.713778 7.142031 0.968455
v 1.716626 7.142010 0.975455
v 1.713473 7.141769 0.970673
v 1.711095 7.141854 0.971191
v 1.711146 7.142018 0.971935
v 1.712985 7.141984 0.879311
v 1.714449 7.142005 0.882157
v 1.714385 7.142026 0.876222
v 1.716984 7.141726 0.879990
v 1.718959 7.141770 0.880013
v 1.718894 7.141859 0.879278
v 1.718762 7.141685 0.878781
v 1.718501 7.137994 0.878192
v 1.718199 7.141775 0.877677
v 1.717632 7.141802 0.877036
v 1.717113 7.137993 0.876665
v 1.716688 7.141817 0.876421
v 1.715582 7.141764 0.876080
v 1.714983 7.141804 0.876041
v 1.714567 7.141807 0.876063
v 1.714156 7.141809 0.876128
v 1.713633 7.141804 0.876274
v 1.712885 7.141809 0.876637
v 1.712434 7.106129 0.876788
v 1.712323 7.141820 0.877063
v 1.711855 7.138131 0.877524
v 1.711539 7.141730 0.878033
v 1.711324 7.137289 0.878398
v 1.711110 7.138006 0.879003
v 1.711115 7.141900 0.879013
v 1.711002 7.137290 0.879599
v 1.711009 7.141733 0.880021
v 1.711031 7.138025 0.880657
v 1.711100 7.141956 0.880881
v 1.710975 7.106137 0.881235
v 1.711354 7.141826 0.881634
v 1.711544 7.141826 0.882004
v 1.711878 7.138082 0.882534
v 1.712096 7.106102 0.882969
v 1.712184 7.141875 0.882867
v 1.712416 7.106129 0.883229
v 1.713002 7.141721 0.883460
v 1.713373 7.141719 0.883648
v 1.713972 7.141813 0.883864
v 1.714770 7.138019 0.883992
v 1.715405 7.141706 0.883967
v 1.716030 7.141713 0.883855
v 1.716521 7.141849 0.883683
v 1.716746 7.106103 0.883468
v 1.717243 7.141818 0.883288
v 1.717648 7.141693 0.882965
v 1.718616 7.141772 0.881630
v 1.718765 7.141771 0.881241
v 1.718873 7.141685 0.880835
v 1.718937 7.141770 0.880429
v 1.718911 7.141743 0.971368
v 1.718308 7.141732 0.969827
v 1.717933 7.141690 0.969351
v 1.717124 7.141769 0.968659
v 1.716396 7.141710 0.968294
v 1.715603 7.106109 0.968123
v 1.715776 7.141842 0.968109
v 1.715152 7.137921 0.968038
v 1.714360 7.106117 0.968055
v 1.714757 7.141840 0.968046
v 1.713948 7.106119 0.968119
v 1.713728 7.137274 0.968233
v 1.713362 7.141719 0.968387
v 1.712968 7.137279 0.968571
v 1.712786 7.141864 0.968704
v 1.712441 7.138092 0.968933
v 1.712060 7.141841 0.969320
v 1.711204 7.141720 0.973247
v 1.711449 7.141789 0.973842
v 1.711904 7.141811 0.974535
v 1.712327 7.141804 0.974970
v 1.712578 7.130622 0.975233
v 1.712917 7.141839 0.975412
v 1.713484 7.142019 0.975659
v 1.713554 7.138161 0.975739
v 1.714067 7.141831 0.975885
v 1.714571 7.141790 0.975968
v 1.715190 7.138113 0.975990
v 1.715817 7.141761 0.975901
v 1.716432 7.141784 0.975722
v 1.717096 7.106100 0.975242
v 1.717912 7.137248 0.974676
v 1.718174 7.137247 0.974352
v 1.718429 7.141745 0.973997
v 1.718723 7.106090 0.972442
v 1.716525 7.141914 0.878708
v 1.718656 7.106061 0.879185
v 1.718743 7.106090 0.880018
v 1.718400 7.106092 0.878399
v 1.718549 7.106091 0.878788
v 1.718212 7.106093 0.878028
v 1.717437 7.106098 0.877064
v 1.717731 7.106096 0.877360
v 1.716942 7.106105 0.876679
v 1.715997 7.106107 0.876232
v 1.716385 7.106104 0.876381
v 1.715183 7.106112 0.876058
v 1.715595 7.106109 0.876124
v 1.714351 7.106117 0.876058
v 1.714768 7.106114 0.876036
v 1.713538 7.106122 0.876230
v 1.713940 7.106119 0.876123
v 1.713298 7.130618 0.876382
v 1.712104 7.106131 0.877057
v 1.711547 7.106134 0.877675
v 1.711810 7.106133 0.877351
v 1.711129 7.106107 0.878400
v 1.711320 7.106135 0.878024
v 1.710919 7.106143 0.878975
v 1.710786 7.106139 0.880012
v 1.710808 7.106139 0.879597
v 1.710873 7.106138 0.880840
v 1.710808 7.106139 0.880428
v 1.711545 7.106134 0.882352
v 1.711807 7.106133 0.882676
v 1.712773 7.106126 0.883460
v 1.713533 7.106122 0.883798
v 1.713144 7.106124 0.883649
v 1.714347 7.106117 0.883972
v 1.713935 7.106119 0.883906
v 1.715178 7.106112 0.883972
v 1.714762 7.106114 0.883994
v 1.715992 7.106107 0.883800
v 1.715589 7.106109 0.883907
v 1.716381 7.106104 0.883651
v 1.717425 7.106098 0.882973
v 1.717101 7.106100 0.883235
v 1.718202 7.141781 0.882351
v 1.717940 7.141783 0.882674
v 1.718398 7.106092 0.881635
v 1.718656 7.106090 0.880845
v 1.718548 7.106091 0.881247
v 1.718721 7.106090 0.880433
v 1.718722 7.106090 0.971602
v 1.718743 7.106090 0.972018
v 1.718400 7.106092 0.970399
v 1.718549 7.106091 0.970788
v 1.718212 7.106093 0.970028
v 1.717429 7.106098 0.969060
v 1.716756 7.106102 0.968571
v 1.717105 7.106100 0.968798
v 1.715997 7.106107 0.968232
v 1.716385 7.106104 0.968381
v 1.713538 7.106122 0.968230
v 1.712778 7.106126 0.968568
v 1.713149 7.106124 0.968379
v 1.712104 7.106131 0.969057
v 1.712428 7.106129 0.968795
v 1.711131 7.106137 0.970394
v 1.711323 7.106135 0.970015
v 1.711201 7.141720 0.970790
v 1.711008 7.141785 0.972016
v 1.711030 7.141808 0.971601
v 1.711030 7.141721 0.972434
v 1.711545 7.106134 0.974352
v 1.711318 7.106135 0.974002
v 1.712101 7.106131 0.974970
v 1.711807 7.106133 0.974676
v 1.713547 7.106087 0.975803
v 1.714346 7.106117 0.975972
v 1.713935 7.106119 0.975906
v 1.715178 7.106112 0.975972
v 1.714762 7.106114 0.975994
v 1.715992 7.106107 0.975800
v 1.715589 7.106109 0.975907
v 1.716752 7.106102 0.975462
v 1.716381 7.106104 0.975651
v 1.717425 7.106098 0.974973
v 1.717982 7.106094 0.974355
v 1.717720 7.106096 0.974679
v 1.718398 7.106092 0.973635
v 1.718209 7.106093 0.974007
v 1.718656 7.106090 0.972845
v 1.718548 7.106091 0.973247
v 1.716885 7.135832 0.879583
v 1.716755 7.135819 0.879210
v 1.716595 7.136064 0.878913
v 1.715923 7.135842 0.878286
v 1.715155 7.135829 0.878048
v 1.714025 7.136079 0.878263
v 1.713563 7.135595 0.878598
v 1.713785 7.135838 0.878415
v 1.713013 7.135843 0.879604
v 1.713027 7.135594 0.880504
v 1.712963 7.135856 0.880035
v 1.713117 7.136065 0.880782
v 1.713303 7.136084 0.881117
v 1.713634 7.135852 0.881503
v 1.713959 7.135838 0.881728
v 1.714667 7.136075 0.881976
v 1.715559 7.135827 0.881896
v 1.715175 7.135843 0.881987
v 1.715873 7.136067 0.881767
v 1.716218 7.136065 0.881537
v 1.716755 7.135820 0.880820
v 1.716565 7.135835 0.881166
v 1.716883 7.135819 0.880426
v 1.716829 7.135819 0.880626
v 1.716929 7.136061 0.880091
v 1.716865 7.135571 0.971526
v 1.716925 7.135570 0.971935
v 1.716755 7.135819 0.971210
v 1.716211 7.135574 0.970491
v 1.715937 7.135825 0.970302
v 1.715633 7.136069 0.970156
v 1.714660 7.135584 0.970055
v 1.714336 7.135835 0.970134
v 1.714025 7.136079 0.970263
v 1.713681 7.136081 0.970493
v 1.713392 7.136083 0.970790
v 1.713172 7.136084 0.971141
v 1.713029 7.136085 0.971529
v 1.713013 7.135842 0.972426
v 1.713141 7.135842 0.972820
v 1.713066 7.135843 0.972626
v 1.713624 7.135839 0.973485
v 1.714336 7.135835 0.973896
v 1.713972 7.135851 0.973744
v 1.714667 7.136075 0.973976
v 1.715873 7.136067 0.973767
v 1.716218 7.136065 0.973537
v 1.716506 7.136064 0.973240
v 1.716727 7.136062 0.972889
v 1.716883 7.135819 0.972426
v 1.716829 7.135819 0.972626
v 1.716915 7.135819 0.972222
v 1.720617 7.105409 0.999083
v 1.720260 7.103387 0.999153
v 1.720260 7.103387 0.852876
v 1.719825 7.102454 0.999153
v 1.719234 7.101610 0.999153
v 1.718505 7.100882 0.999153
v 1.716728 7.099856 0.999153
v 1.715734 7.099589 0.999153
v 1.713681 7.099589 1.010428
v 1.712684 7.099859 1.011423
v 1.711751 7.100294 1.011477
v 1.710908 7.100886 1.011548
v 1.710181 7.101624 1.017205
v 1.709590 7.102458 1.011482
v 1.709155 7.103391 1.011436
v 1.709154 7.103387 0.852876
v 1.708890 7.104386 1.011502
v 1.708808 7.105420 1.017288
v 1.708891 7.106437 1.011511
v 1.709154 7.107430 0.999153
v 1.708888 7.106435 0.853017
v 1.709590 7.108363 0.999153
v 1.710184 7.109208 1.011532
v 1.710913 7.109935 1.011569
v 1.711756 7.110526 1.011638
v 1.712686 7.110961 0.999153
v 1.712701 7.110956 1.017288
v 1.713684 7.111227 1.011527
v 1.714707 7.111317 0.997613
v 1.715734 7.111228 0.999153
v 1.716728 7.110961 0.999127
v 1.718505 7.109935 0.999153
v 1.719234 7.109207 0.999153
v 1.719825 7.108363 0.999153
v 1.720260 7.107430 0.999153
v 1.711753 7.110526 0.852876
v 1.713681 7.111228 0.958157
v 1.719234 7.109207 0.853024
v 1.717662 7.100291 0.999153
v 1.714707 7.099500 0.999153
v 1.717662 7.110526 0.999153
v 1.720526 7.106435 0.998642
v 1.720526 7.104383 0.998963
v 1.718505 7.100883 0.841028
v 1.711753 7.100291 0.852876
v 1.710180 7.101609 0.998061
v 1.708798 7.105409 0.999153
v 1.708888 7.104383 0.852876
v 1.709590 7.108363 0.852425
v 1.713681 7.111228 0.880073
v 1.719825 7.108363 0.852699
v 1.720526 7.104383 0.852876
v 1.720617 7.105409 0.852876
v 1.719825 7.102454 0.852865
v 1.719234 7.101610 0.853827
v 1.717664 7.100294 0.840547
v 1.716730 7.099859 0.840600
v 1.715736 7.099591 0.840542
v 1.714707 7.099500 0.852876
v 1.713681 7.099589 0.852876
v 1.712686 7.099856 0.852876
v 1.710909 7.100882 0.852877
v 1.710180 7.101610 0.852876
v 1.709590 7.102454 0.852885
v 1.708798 7.105409 0.852876
v 1.709154 7.107430 0.853019
v 1.710180 7.109207 0.852914
v 1.710909 7.109935 0.852876
v 1.712686 7.110961 0.852876
v 1.713681 7.111228 0.852876
v 1.713671 7.111217 0.834742
v 1.714704 7.111315 0.840725
v 1.715733 7.111228 0.841790
v 1.717658 7.110526 0.840385
v 1.716725 7.110960 0.840420
v 1.719219 7.109210 0.834742
v 1.718505 7.109935 0.841534
v 1.720260 7.107430 0.852916
v 1.719810 7.108368 0.834742
v 1.720526 7.106435 0.852876
v 1.709470 7.105997 1.017975
v 1.717595 7.103257 0.834111
v 1.712243 7.102328 0.834104
v 1.712508 7.108035 0.834103
v 1.711091 7.109250 1.017973
v 1.719890 7.106741 0.834057
v 1.719596 7.103127 0.834143
v 1.709993 7.103099 0.834032
v 1.709782 7.107741 0.834123
v 1.713182 7.110466 0.834037
v 1.716149 7.110664 0.834123
v 1.719810 7.102449 1.017288
v 1.719219 7.101608 1.017289
v 1.717647 7.100294 1.017289
v 1.715722 7.099597 1.017205
v 1.713258 7.099678 1.017307
v 1.711388 7.100514 1.017229
v 1.709380 7.102845 1.017306
v 1.708905 7.106427 1.017302
v 1.709168 7.107437 1.017289
v 1.709603 7.108366 1.017205
v 1.711259 7.110210 1.017306
v 1.713680 7.111210 1.017302
v 1.714718 7.111308 1.017205
v 1.718508 7.109920 1.017289
v 1.719822 7.108347 1.017288
v 1.720255 7.107415 1.017288
v 1.720519 7.106423 1.017204
v 1.720519 7.104396 0.834742
v 1.720607 7.105420 0.834742
v 1.718495 7.100894 0.834809
v 1.717649 7.100305 0.834728
v 1.716156 7.099678 0.834723
v 1.713695 7.099597 0.834741
v 1.712701 7.099862 0.834741
v 1.710907 7.109920 0.834741
v 1.711747 7.110512 0.834742
v 1.712680 7.110949 0.834826
v 1.715307 7.111290 0.834723
v 1.716726 7.110943 0.834728
v 1.720247 7.107437 0.834742
v 1.719098 7.102387 1.017994
v 1.715579 7.100173 1.017992
v 1.712829 7.110486 1.017900
v 1.719287 7.108069 1.017982
v 1.711250 7.101215 0.834141
v 1.711736 7.109727 0.834032
v 1.718293 7.109292 0.834068
v 1.716714 7.099862 1.017289
v 1.714697 7.099509 1.017244
v 1.711767 7.100294 0.834786
v 1.710181 7.109191 0.834741
v 1.718442 7.101459 0.834163
v 1.720514 7.104373 1.017288
v 1.720607 7.105397 1.017288
v 1.720247 7.103380 1.017289
v 1.718490 7.100882 1.017288
v 1.711186 7.101183 1.017851
v 1.708907 7.104382 1.017302
v 1.709822 7.107800 1.017866
v 1.710192 7.109192 1.017302
v 1.715503 7.110811 1.017874
v 1.715743 7.111217 1.017288
v 1.716736 7.110948 1.017288
v 1.717667 7.110512 1.017288
v 1.719234 7.109192 1.017288
v 1.720009 7.105658 1.017995
v 1.720255 7.103402 0.834741
v 1.719822 7.102469 0.834742
v 1.719234 7.101625 0.834742
v 1.714719 7.099510 0.834742
v 1.710925 7.100882 0.834741
v 1.710195 7.101608 0.834742
v 1.709605 7.102449 0.834742
v 1.709168 7.103380 0.834741
v 1.708900 7.104373 0.834741
v 1.708808 7.105397 0.834742
v 1.708896 7.106421 0.834742
v 1.709160 7.107416 0.834742
v 1.709593 7.108347 0.834742
v 1.718157 7.110209 0.834724
v 1.720514 7.106445 0.834742
v 1.717323 7.100892 1.018001
v 1.713411 7.100322 1.017994
v 1.717467 7.109883 1.017997
v 1.719707 7.103736 0.834032
v 1.713310 7.100351 0.834035
v 1.709446 7.105299 0.834038
v 1.715751 7.108829 1.017920
v 1.709767 7.103477 1.017975
v 1.715396 7.101261 1.017935
v 1.718616 7.103904 1.017938
v 1.716052 7.100261 0.834032
f 2 317 1
f 316 2 1
f 316 3 319
f 318 319 3
f 320 318 3
f 4 320 3
f 4 5 322
f 321 322 5
f 323 321 5
f 325 323 5
f 324 325 5
f 327 324 5
f 326 327 5
f 329 326 5
f 328 329 5
f 331 328 5
f 330 331 5
f 5 8 6
f 6 330 5
f 7 6 8
f 248 7 8
f 333 248 8
f 335 333 8
f 334 335 8
f 337 334 8
f 336 337 8
f 336 9 338
f 340 338 9
f 339 340 9
f 9 11 342
f 342 339 9
f 341 342 11
f 259 341 11
f 10 259 11
f 12 10 11
f 343 12 11
f 344 343 11
f 263 344 11
f 263 17 265
f 17 13 345
f 345 265 17
f 347 345 13
f 346 347 13
f 349 346 13
f 348 349 13
f 351 348 13
f 350 351 13
f 353 350 13
f 352 353 13
f 13 14 354
f 354 352 13
f 273 354 14
f 356 273 14
f 355 356 14
f 16 355 14
f 15 16 14
f 14 1 359
f 359 15 14
f 361 359 1
f 360 361 1
f 362 360 1
f 317 362 1
f 14 17 1
f 13 17 14
f 263 11 17
f 17 11 9
f 336 8 17
f 17 9 336
f 17 8 5
f 4 3 17
f 17 5 4
f 316 1 17
f 17 3 316
f 18 19 20
f 20 21 18
f 22 20 19
f 23 24 20
f 20 22 23
f 24 25 26
f 26 20 24
f 27 28 20
f 20 26 27
f 29 20 28
f 30 31 20
f 20 29 30
f 31 32 33
f 33 20 31
f 34 35 20
f 20 33 34
f 35 36 37
f 37 20 35
f 38 39 20
f 20 37 38
f 39 40 41
f 41 20 39
f 42 43 20
f 20 41 42
f 44 20 43
f 45 46 20
f 20 44 45
f 47 20 46
f 48 49 20
f 20 47 48
f 49 50 51
f 51 20 49
f 52 53 20
f 20 51 52
f 54 20 53
f 55 56 20
f 20 54 55
f 56 57 58
f 58 20 56
f 59 60 20
f 20 58 59
f 61 20 60
f 62 63 20
f 20 61 62
f 63 64 65
f 65 20 63
f 66 67 20
f 20 65 66
f 68 20 67
f 69 70 20
f 20 68 69
f 70 71 21
f 21 20 70
f 94 72 363
f 363 364 94
f 72 95 366
f 95 73 365
f 365 366 95
f 367 365 73
f 368 74 75
f 370 368 75
f 369 370 75
f 372 369 75
f 371 372 75
f 285 371 75
f 76 285 75
f 77 76 75
f 288 77 75
f 75 78 290
f 290 288 75
f 373 290 78
f 375 373 78
f 374 375 78
f 78 79 377
f 377 374 78
f 376 377 79
f 80 79 81
f 379 80 81
f 378 379 81
f 82 378 81
f 83 82 81
f 84 83 81
f 85 84 81
f 86 85 81
f 87 86 81
f 87 88 385
f 384 385 88
f 387 384 88
f 386 387 88
f 90 386 88
f 89 90 88
f 91 89 88
f 388 91 88
f 388 92 389
f 389 390 388
f 392 389 92
f 391 392 92
f 394 391 92
f 393 394 92
f 396 393 92
f 395 396 92
f 310 395 92
f 397 310 92
f 92 93 399
f 399 397 92
f 398 399 93
f 401 398 93
f 93 94 400
f 400 401 93
f 403 400 94
f 402 403 94
f 314 402 94
f 364 314 94
f 93 95 94
f 92 95 93
f 388 95 92
f 388 88 95
f 87 81 95
f 95 88 87
f 95 81 79
f 78 95 79
f 75 95 78
f 74 73 95
f 95 75 74
f 94 95 72
f 96 97 98
f 98 99 96
f 97 100 101
f 101 98 97
f 102 103 98
f 98 101 102
f 104 98 103
f 105 106 98
f 98 104 105
f 106 107 108
f 108 98 106
f 109 110 98
f 98 108 109
f 111 98 110
f 112 113 98
f 98 111 112
f 113 114 115
f 115 98 113
f 116 117 98
f 98 115 116
f 118 98 117
f 119 120 98
f 98 118 119
f 121 98 120
f 122 123 98
f 98 121 122
f 124 98 123
f 125 126 98
f 98 124 125
f 126 127 128
f 128 98 126
f 129 130 98
f 98 128 129
f 130 131 132
f 132 98 130
f 133 134 98
f 98 132 133
f 134 135 136
f 136 98 134
f 137 138 98
f 98 136 137
f 139 98 138
f 140 141 98
f 98 139 140
f 142 98 141
f 143 144 98
f 98 142 143
f 145 98 144
f 146 147 98
f 98 145 146
f 147 148 99
f 99 98 147
f 195 184 149
f 219 184 232
f 232 204 219
f 204 192 188
f 192 205 188
f 231 205 193
f 193 194 231
f 198 201 196
f 190 201 198
f 198 225 190
f 225 150 222
f 151 222 150
f 150 199 151
f 199 303 151
f 303 226 224
f 221 224 226
f 226 196 221
f 404 428 233
f 405 404 152
f 233 152 404
f 406 405 152
f 153 406 152
f 152 315 153
f 315 154 407
f 407 153 315
f 155 407 154
f 408 155 154
f 154 200 408
f 157 408 200
f 156 157 200
f 409 156 200
f 200 158 409
f 158 159 410
f 410 411 158
f 411 409 158
f 160 410 159
f 162 160 159
f 161 159 230
f 412 162 161
f 159 161 162
f 414 412 161
f 161 188 415
f 413 414 415
f 161 415 414
f 163 415 188
f 415 163 416
f 417 416 163
f 188 231 163
f 164 163 231
f 418 417 163
f 163 164 418
f 231 165 164
f 164 165 419
f 421 419 165
f 420 421 165
f 165 166 420
f 422 420 166
f 166 167 423
f 423 422 166
f 425 423 167
f 424 425 167
f 167 189 424
f 426 427 189
f 189 233 426
f 427 424 189
f 428 426 233
f 429 430 168
f 169 168 221
f 431 429 169
f 168 169 429
f 170 431 169
f 432 170 169
f 171 169 201
f 433 432 171
f 169 171 432
f 434 433 171
f 173 434 171
f 435 173 171
f 171 172 435
f 436 435 172
f 172 227 437
f 437 436 172
f 438 437 227
f 439 438 227
f 440 439 227
f 174 227 222
f 441 440 227
f 227 174 441
f 175 441 174
f 442 175 174
f 174 176 442
f 443 444 176
f 176 202 443
f 444 442 176
f 177 443 202
f 445 177 178
f 202 178 177
f 447 445 178
f 446 447 178
f 178 223 446
f 180 223 224
f 223 180 448
f 448 446 223
f 179 448 180
f 181 179 180
f 180 182 449
f 449 181 180
f 450 449 182
f 182 183 451
f 451 450 182
f 452 451 183
f 182 168 183
f 453 454 183
f 454 452 183
f 430 455 168
f 455 453 183
f 183 168 455
f 239 191 184
f 242 232 185
f 232 242 243
f 232 243 244
f 232 244 245
f 232 245 246
f 232 246 247
f 232 247 249
f 249 203 232
f 260 192 258
f 192 260 261
f 192 261 264
f 268 193 205
f 274 194 272
f 194 358 357
f 194 357 206
f 196 207 280
f 196 280 208
f 286 198 283
f 209 225 289
f 210 150 296
f 150 210 211
f 308 226 213
f 226 308 309
f 214 226 309
f 226 214 215
f 226 215 216
f 216 187 226
f 187 216 313
f 187 313 217
f 187 217 218
f 207 196 187
f 187 218 207
f 272 194 193
f 198 286 289
f 289 225 198
f 233 149 152
f 200 154 219
f 165 231 166
f 220 167 166
f 167 220 189
f 176 174 222
f 158 219 159
f 182 224 221
f 191 232 184
f 203 204 232
f 204 258 192
f 205 192 264
f 186 194 206
f 186 195 194
f 294 150 225
f 229 199 150
f 303 213 226
f 187 196 226
f 178 202 223
f 224 182 180
f 184 238 239
f 191 239 241
f 191 241 185
f 276 186 206
f 186 276 277
f 186 279 234
f 234 195 186
f 195 234 235
f 281 196 208
f 225 209 294
f 382 229 228
f 229 382 381
f 299 199 298
f 199 299 300
f 199 300 302
f 302 303 199
f 303 305 306
f 303 306 213
f 161 230 188
f 189 220 149
f 151 202 176
f 191 185 232
f 198 196 197
f 296 150 294
f 150 211 228
f 228 229 150
f 199 229 212
f 149 315 152
f 200 219 158
f 233 189 149
f 201 169 221
f 190 171 201
f 190 172 171
f 227 172 190
f 227 190 222
f 151 223 202
f 221 168 182
f 2 235 234
f 195 235 236
f 237 184 236
f 195 236 184
f 184 237 238
f 322 239 238
f 239 322 321
f 239 321 240
f 240 241 239
f 246 332 247
f 247 248 249
f 250 203 249
f 204 203 251
f 251 254 204
f 203 250 251
f 252 254 251
f 254 252 253
f 254 253 255
f 254 255 256
f 256 258 204
f 204 254 256
f 257 258 256
f 258 257 259
f 258 259 260
f 262 264 261
f 264 262 263
f 264 263 265
f 264 265 266
f 205 264 266
f 205 266 267
f 267 268 205
f 269 193 268
f 193 269 270
f 193 270 271
f 271 272 193
f 273 274 272
f 275 358 194
f 194 274 275
f 278 279 186
f 186 277 278
f 196 281 282
f 282 197 196
f 283 198 197
f 284 286 283
f 286 284 285
f 286 285 287
f 287 289 286
f 289 287 288
f 289 288 290
f 290 209 289
f 209 290 291
f 209 291 292
f 293 294 292
f 209 292 294
f 294 293 295
f 295 296 294
f 80 210 296
f 210 80 379
f 210 379 211
f 380 228 211
f 383 229 381
f 229 383 212
f 297 199 212
f 199 297 298
f 301 302 300
f 304 303 302
f 304 305 303
f 307 213 306
f 213 307 308
f 214 310 215
f 311 216 215
f 216 311 312
f 216 312 313
f 218 314 207
f 184 315 149
f 315 184 219
f 219 154 315
f 204 230 159
f 159 219 204
f 230 204 188
f 231 188 205
f 166 231 194
f 194 220 166
f 220 194 195
f 195 149 220
f 221 196 201
f 225 222 190
f 151 176 222
f 223 151 303
f 303 224 223
f 316 235 2
f 234 317 2
f 318 237 236
f 236 319 318
f 235 316 319
f 319 236 235
f 4 238 237
f 237 320 4
f 237 318 320
f 238 4 322
f 323 240 321
f 324 185 241
f 241 325 324
f 240 323 325
f 325 241 240
f 242 327 326
f 185 324 327
f 327 242 185
f 328 244 243
f 243 329 328
f 242 326 329
f 329 243 242
f 330 246 245
f 245 331 330
f 244 328 331
f 331 245 244
f 332 6 7
f 7 247 332
f 246 330 332
f 6 332 330
f 333 249 248
f 247 7 248
f 250 335 334
f 249 333 335
f 335 250 249
f 336 252 251
f 251 337 336
f 250 334 337
f 337 251 250
f 252 336 338
f 338 253 252
f 339 256 255
f 255 340 339
f 253 338 340
f 340 255 253
f 257 342 341
f 256 339 342
f 342 257 256
f 10 260 259
f 257 341 259
f 343 262 261
f 261 12 343
f 260 10 12
f 12 261 260
f 262 344 263
f 262 343 344
f 345 266 265
f 346 268 267
f 267 347 346
f 266 345 347
f 347 267 266
f 348 269 268
f 268 349 348
f 268 346 349
f 350 270 269
f 269 351 350
f 269 348 351
f 271 353 352
f 270 350 353
f 353 271 270
f 272 354 273
f 271 352 354
f 354 272 271
f 355 275 274
f 274 356 355
f 356 274 273
f 15 357 358
f 358 16 15
f 275 355 358
f 16 358 355
f 206 15 359
f 359 276 206
f 15 206 357
f 360 278 277
f 277 361 360
f 276 359 361
f 361 277 276
f 317 234 279
f 279 362 317
f 278 360 362
f 362 279 278
f 280 363 72
f 207 364 363
f 363 280 207
f 208 366 365
f 280 72 366
f 366 208 280
f 281 367 73
f 208 365 367
f 367 281 208
f 368 197 282
f 282 74 368
f 281 73 74
f 74 282 281
f 283 370 369
f 197 368 370
f 370 283 197
f 284 372 371
f 283 369 372
f 372 284 283
f 76 287 285
f 284 371 285
f 287 77 288
f 287 76 77
f 373 291 290
f 374 293 292
f 292 375 374
f 291 373 375
f 375 292 291
f 295 377 376
f 293 374 377
f 377 295 293
f 296 79 80
f 295 376 296
f 79 296 376
f 378 211 379
f 83 228 380
f 380 82 83
f 211 378 380
f 82 380 378
f 84 381 382
f 382 83 84
f 83 382 228
f 86 212 383
f 383 85 86
f 381 84 85
f 85 383 381
f 297 86 87
f 87 298 297
f 86 297 212
f 384 299 298
f 298 385 384
f 298 87 385
f 386 300 299
f 299 387 386
f 299 384 387
f 301 90 89
f 89 302 301
f 300 386 301
f 90 301 386
f 304 91 388
f 302 89 91
f 91 304 302
f 389 306 305
f 305 390 389
f 304 388 390
f 390 305 304
f 307 392 391
f 306 389 392
f 392 307 306
f 393 309 308
f 308 394 393
f 307 391 394
f 394 308 307
f 395 214 309
f 309 396 395
f 309 393 396
f 397 215 310
f 214 395 310
f 398 312 311
f 311 399 398
f 215 397 399
f 399 311 215
f 400 217 313
f 313 401 400
f 312 398 401
f 401 313 312
f 402 218 217
f 217 403 402
f 217 400 403
f 364 207 314
f 218 402 314
f 18 428 404
f 404 19 18
f 405 23 22
f 22 404 405
f 404 22 19
f 406 25 24
f 23 405 406
f 406 24 23
f 153 27 26
f 25 406 153
f 153 26 25
f 27 153 407
f 407 28 27
f 155 30 29
f 29 407 155
f 407 29 28
f 408 32 31
f 31 155 408
f 155 31 30
f 157 34 33
f 32 408 157
f 157 33 32
f 156 36 35
f 35 157 156
f 157 35 34
f 409 38 37
f 36 156 409
f 409 37 36
f 410 40 39
f 39 411 410
f 38 409 411
f 411 39 38
f 160 42 41
f 41 410 160
f 410 41 40
f 42 160 162
f 162 43 42
f 412 45 44
f 44 162 412
f 162 44 43
f 45 412 414
f 414 46 45
f 413 48 47
f 47 414 413
f 414 47 46
f 415 50 49
f 49 413 415
f 413 49 48
f 416 52 51
f 50 415 416
f 416 51 50
f 52 416 417
f 417 53 52
f 418 55 54
f 54 417 418
f 417 54 53
f 164 57 56
f 55 418 164
f 164 56 55
f 419 59 58
f 57 164 419
f 419 58 57
f 59 419 421
f 421 60 59
f 420 62 61
f 61 421 420
f 421 61 60
f 422 64 63
f 62 420 422
f 422 63 62
f 423 66 65
f 64 422 423
f 423 65 64
f 66 423 425
f 425 67 66
f 424 69 68
f 68 425 424
f 425 68 67
f 426 71 70
f 70 427 426
f 69 424 427
f 427 70 69
f 428 18 21
f 71 426 428
f 428 21 71
f 429 100 97
f 97 430 429
f 430 97 96
f 431 102 101
f 101 429 431
f 429 101 100
f 102 431 170
f 170 103 102
f 432 105 104
f 104 170 432
f 170 104 103
f 433 107 106
f 106 432 433
f 432 106 105
f 434 109 108
f 107 433 434
f 434 108 107
f 109 434 173
f 173 110 109
f 435 112 111
f 111 173 435
f 173 111 110
f 436 114 113
f 113 435 436
f 435 113 112
f 437 116 115
f 114 436 437
f 437 115 114
f 116 437 438
f 438 117 116
f 439 119 118
f 117 438 439
f 439 118 117
f 119 439 440
f 440 120 119
f 441 122 121
f 120 440 441
f 441 121 120
f 122 441 175
f 175 123 122
f 442 125 124
f 124 175 442
f 175 124 123
f 443 127 126
f 126 444 443
f 125 442 444
f 444 126 125
f 177 129 128
f 127 443 177
f 177 128 127
f 445 131 130
f 130 177 445
f 177 130 129
f 447 133 132
f 131 445 447
f 447 132 131
f 446 135 134
f 134 447 446
f 447 134 133
f 448 137 136
f 135 446 448
f 448 136 135
f 137 448 179
f 179 138 137
f 181 140 139
f 138 179 181
f 181 139 138
f 140 181 449
f 449 141 140
f 450 143 142
f 141 449 450
f 450 142 141
f 143 450 451
f 451 144 143
f 452 146 145
f 144 451 452
f 452 145 144
f 453 148 147
f 147 454 453
f 146 452 454
f 454 147 146
f 430 96 99
f 99 455 430
f 148 453 455
f 455 99 148
f 498 456 590
f 590 589 498
f 457 498 589
f 589 591 457
f 498 457 458
f 459 457 591
f 591 547 459
f 460 459 547
f 547 548 460
f 459 460 510
f 510 509 459
f 457 459 509
f 509 458 457
f 461 460 548
f 548 592 461
f 494 461 592
f 592 549 494
f 461 510 460
f 462 494 549
f 549 584 462
f 463 462 584
f 584 550 463
f 495 463 550
f 550 585 495
f 464 495 585
f 465 466 500
f 500 516 465
f 464 465 516
f 467 468 501
f 501 517 467
f 466 467 517
f 517 500 466
f 469 501 468
f 469 470 471
f 471 519 469
f 501 469 519
f 472 473 502
f 502 503 472
f 470 472 503
f 503 471 470
f 474 502 473
f 474 555 475
f 474 475 521
f 521 476 474
f 502 474 476
f 477 475 555
f 555 556 477
f 478 477 556
f 477 478 522
f 522 504 477
f 475 477 504
f 504 521 475
f 479 480 491
f 491 523 479
f 478 479 523
f 523 522 478
f 480 482 481
f 483 481 482
f 481 483 492
f 481 491 480
f 483 559 484
f 485 484 559
f 559 598 485
f 484 485 528
f 484 492 483
f 486 485 598
f 598 599 486
f 496 486 599
f 599 600 496
f 486 528 485
f 487 496 600
f 600 560 487
f 488 487 560
f 560 601 488
f 487 488 493
f 493 532 487
f 496 487 532
f 489 488 601
f 601 561 489
f 490 489 561
f 561 562 490
f 489 490 533
f 533 506 489
f 488 489 506
f 506 493 488
f 497 490 562
f 562 563 497
f 456 497 563
f 563 590 456
f 497 533 490
f 494 499 461
f 510 461 499
f 481 492 505
f 484 505 492
f 507 508 456
f 456 498 507
f 458 507 498
f 507 458 603
f 603 564 507
f 508 507 564
f 564 565 508
f 509 510 605
f 605 604 509
f 458 509 604
f 604 603 458
f 499 494 511
f 499 605 510
f 512 511 494
f 494 462 512
f 513 512 462
f 462 463 513
f 514 513 463
f 463 495 514
f 515 514 495
f 495 464 515
f 514 515 569
f 569 606 514
f 513 514 606
f 516 515 464
f 516 500 586
f 586 570 516
f 515 516 570
f 570 569 515
f 517 501 518
f 517 518 608
f 608 607 517
f 500 517 607
f 607 586 500
f 519 518 501
f 519 471 610
f 610 609 519
f 518 519 609
f 609 608 518
f 503 502 520
f 503 520 612
f 612 611 503
f 471 503 611
f 611 610 471
f 476 520 502
f 476 521 614
f 614 613 476
f 520 476 613
f 613 612 520
f 504 522 587
f 587 615 504
f 521 504 615
f 615 614 521
f 523 491 572
f 572 571 523
f 522 523 571
f 571 587 522
f 491 481 524
f 525 524 481
f 481 505 525
f 524 525 526
f 526 573 524
f 491 524 573
f 573 572 491
f 527 525 505
f 505 484 527
f 528 527 484
f 527 526 525
f 528 486 530
f 529 530 486
f 486 496 529
f 532 529 496
f 532 493 531
f 506 533 576
f 576 534 506
f 493 506 534
f 534 531 493
f 533 497 535
f 508 535 497
f 497 456 508
f 535 508 565
f 565 617 535
f 533 535 617
f 617 576 533
f 624 627 580
f 536 624 540
f 625 624 536
f 625 626 624
f 627 624 626
f 537 538 539
f 583 537 539
f 541 537 583
f 602 589 590
f 589 602 577
f 577 591 589
f 577 547 591
f 577 548 547
f 577 592 548
f 592 577 618
f 618 549 592
f 578 584 549
f 549 618 578
f 619 551 578
f 551 619 593
f 625 553 593
f 625 594 553
f 594 625 536
f 536 473 594
f 536 554 473
f 554 536 595
f 595 555 554
f 540 596 595
f 540 557 596
f 557 540 579
f 579 482 557
f 579 558 482
f 558 579 597
f 597 599 598
f 599 597 620
f 620 600 599
f 620 560 600
f 560 620 580
f 580 601 560
f 580 561 601
f 580 562 561
f 562 580 602
f 621 564 603
f 603 542 621
f 564 621 541
f 541 565 564
f 542 604 605
f 605 588 542
f 542 603 604
f 567 628 588
f 628 567 568
f 628 606 569
f 569 622 628
f 628 568 606
f 622 570 581
f 622 569 570
f 581 607 608
f 543 609 610
f 609 543 581
f 581 608 609
f 623 611 612
f 611 623 543
f 543 610 611
f 544 613 614
f 613 544 623
f 623 612 613
f 544 615 587
f 544 614 615
f 582 571 572
f 571 582 544
f 544 587 571
f 582 572 545
f 574 546 545
f 545 526 574
f 546 575 616
f 546 574 575
f 583 616 531
f 616 583 546
f 541 534 576
f 534 541 583
f 583 531 534
f 541 617 565
f 541 576 617
f 621 542 588
f 551 464 585
f 551 465 464
f 465 551 552
f 552 466 465
f 552 467 466
f 467 552 468
f 553 469 468
f 553 470 469
f 594 472 470
f 470 553 594
f 472 594 473
f 554 474 473
f 474 554 555
f 596 478 556
f 557 479 478
f 478 596 557
f 557 480 479
f 480 557 482
f 558 483 482
f 483 558 559
f 566 499 511
f 511 567 566
f 499 566 605
f 568 512 513
f 512 568 567
f 567 511 512
f 568 513 606
f 574 527 528
f 527 574 526
f 575 530 529
f 529 616 575
f 530 575 574
f 574 528 530
f 616 532 531
f 616 529 532
f 578 550 584
f 550 578 585
f 585 578 551
f 593 552 551
f 593 468 552
f 468 593 553
f 595 556 555
f 556 595 596
f 597 559 558
f 559 597 598
f 602 563 562
f 563 602 590
f 588 566 567
f 566 588 605
f 586 581 570
f 581 586 607
f 545 573 526
f 573 545 572
f 593 619 625
f 536 540 595
f 620 597 579
f 579 540 620
f 621 588 628
f 581 543 622
f 544 582 623
f 546 583 545
f 602 627 577
f 580 627 602
f 624 580 620
f 540 624 620
f 619 578 626
f 626 625 619
f 578 618 626
f 627 626 618
f 618 577 627
f 537 541 621
f 628 537 621
f 538 537 628
f 628 622 538
f 543 538 622
f 543 623 538
f 539 538 623
f 623 582 539
f 582 545 539
f 583 539 545
