# USD → MuJoCo (world-space, simplified)
v 1.720060 7.247001 0.098051
v 1.721371 7.247002 0.098025
v 1.720687 7.245095 0.098029
v 1.719192 7.241828 0.098038
v 1.720290 7.242702 0.098036
v 1.720396 7.240411 0.098041
v 1.720775 7.238627 0.098046
v 1.720307 7.236616 0.098048
v 1.721736 7.236248 0.098052
v 1.720364 7.236390 0.098089
v 1.722593 7.233138 0.098066
v 1.723140 7.234253 0.098057
v 1.724269 7.233093 0.098060
v 1.724911 7.231192 0.098065
v 1.725953 7.230533 0.098102
v 1.726040 7.231752 0.098064
v 1.728245 7.230715 0.098067
v 1.728594 7.229447 0.098070
v 1.729817 7.230279 0.098068
v 1.729812 7.229110 0.098106
v 1.731507 7.228893 0.098083
v 1.731013 7.230089 0.098069
v 1.733032 7.230020 0.098069
v 1.733779 7.229001 0.098075
v 1.735823 7.230525 0.098068
v 1.735605 7.229285 0.098088
v 1.738065 7.231484 0.098066
v 1.739256 7.230924 0.098067
v 1.740321 7.231653 0.098065
v 1.739914 7.232723 0.098063
v 1.738061 7.230099 0.098083
v 1.741304 7.232401 0.098084
v 1.741496 7.234292 0.098059
v 1.742344 7.235453 0.098056
v 1.743113 7.234606 0.098058
v 1.742684 7.236007 0.098054
v 1.743049 7.236676 0.098053
v 1.744546 7.237072 0.098073
v 1.743836 7.235652 0.098076
v 1.744866 7.238279 0.098049
v 1.743812 7.238537 0.098048
v 1.745190 7.239532 0.098073
v 1.744238 7.240729 0.098042
v 1.745406 7.242374 0.098038
v 1.744303 7.242152 0.098039
v 1.744160 7.243957 0.098034
v 1.745278 7.244435 0.098064
v 1.743711 7.245736 0.098030
v 1.744641 7.246435 0.098028
v 1.743117 7.247234 0.098026
v 1.744224 7.247772 0.098038
v 1.742692 7.250001 0.098019
v 1.742085 7.248976 0.098021
v 1.740910 7.250377 0.098017
v 1.741925 7.251019 0.098044
v 1.740002 7.251209 0.098015
v 1.739741 7.252799 0.098011
v 1.739051 7.251935 0.098013
v 1.738668 7.253551 0.098040
v 1.737646 7.252758 0.098011
v 1.737209 7.254192 0.098039
v 1.735963 7.253445 0.098009
v 1.736006 7.254580 0.098006
v 1.734188 7.253863 0.098008
v 1.734788 7.254952 0.098036
v 1.732767 7.253999 0.098008
v 1.733087 7.255137 0.098004
v 1.731151 7.253963 0.098008
v 1.730777 7.255058 0.098034
v 1.727912 7.254360 0.098006
v 1.729547 7.253689 0.098008
v 1.728005 7.253225 0.098009
v 1.726711 7.253927 0.098040
v 1.726178 7.252343 0.098011
v 1.724529 7.251169 0.098014
v 1.724329 7.252417 0.098011
v 1.723367 7.250028 0.098017
v 1.725308 7.253169 0.098037
v 1.723330 7.251592 0.098048
v 1.722134 7.250370 0.098033
v 1.722365 7.248766 0.098020
v 1.720115 7.248892 0.093307
v 1.720899 7.248464 0.097974
v 1.720043 7.248773 0.096795
v 1.745879 7.245411 0.096805
v 1.745827 7.245457 0.035829
v 1.745844 7.245504 0.079181
v 1.745729 7.245804 0.035828
v 1.745692 7.245893 0.023323
v 1.745730 7.245777 0.026400
v 1.745494 7.246675 0.079178
v 1.745419 7.246710 0.023320
v 1.745081 7.247520 0.023319
v 1.745042 7.247757 0.079176
v 1.745027 7.247648 0.026399
v 1.745026 7.247675 0.035823
v 1.744978 7.247942 0.096799
v 1.744587 7.248723 0.096798
v 1.744577 7.248581 0.035821
v 1.744163 7.249437 0.096795
v 1.744031 7.249476 0.035818
v 1.744085 7.249512 0.079171
v 1.743563 7.250154 0.035817
v 1.743483 7.250221 0.023312
v 1.743561 7.250125 0.026391
v 1.742961 7.250878 0.023309
v 1.743387 7.250522 0.079168
v 1.742625 7.251407 0.079166
v 1.742352 7.251541 0.023309
v 1.742525 7.251571 0.096788
v 1.742260 7.251643 0.026388
v 1.742260 7.251670 0.035813
v 1.741700 7.252211 0.035811
v 1.741299 7.252739 0.096794
v 1.741172 7.252781 0.079162
v 1.741171 7.252821 0.093297
v 1.740542 7.253272 0.079161
v 1.740717 7.253021 0.035809
v 1.740034 7.253498 0.035808
v 1.740035 7.253470 0.026383
v 1.739925 7.253540 0.023306
v 1.739203 7.254141 0.079159
v 1.738423 7.254392 0.023291
v 1.739067 7.254260 0.096782
v 1.738308 7.254644 0.096781
v 1.738293 7.254452 0.026381
v 1.738292 7.254479 0.035805
v 1.737534 7.254989 0.096779
v 1.737727 7.254729 0.035805
v 1.737391 7.254990 0.079156
v 1.736592 7.255159 0.035803
v 1.736430 7.255333 0.079155
v 1.735576 7.255436 0.035803
v 1.735577 7.255409 0.026379
v 1.735450 7.255430 0.023298
v 1.735096 7.255669 0.079155
v 1.734590 7.255603 0.023295
v 1.734948 7.255746 0.096778
v 1.733734 7.255714 0.023297
v 1.734122 7.255883 0.096780
v 1.733604 7.255736 0.026377
v 1.733603 7.255763 0.035802
v 1.733258 7.255966 0.096777
v 1.733192 7.255795 0.035801
v 1.733112 7.255924 0.079154
v 1.733111 7.255965 0.093290
v 1.731861 7.255953 0.079154
v 1.732002 7.255832 0.035801
v 1.730723 7.255734 0.035801
v 1.730719 7.255858 0.079154
v 1.730570 7.255892 0.096777
v 1.730594 7.255682 0.023297
v 1.729725 7.255764 0.096781
v 1.729735 7.255555 0.023297
v 1.728895 7.255579 0.096778
v 1.728885 7.255363 0.023298
v 1.728752 7.255532 0.093291
v 1.728753 7.255492 0.079155
v 1.728757 7.255367 0.035802
v 1.727653 7.255167 0.079155
v 1.727531 7.254998 0.035803
v 1.726498 7.254690 0.079156
v 1.726432 7.254534 0.035804
v 1.726362 7.254679 0.096780
v 1.726060 7.254355 0.035805
v 1.725978 7.254492 0.096781
v 1.725944 7.254261 0.023301
v 1.728995 7.254408 0.021691
v 1.726061 7.254328 0.026380
v 1.725436 7.254205 0.096782
v 1.725191 7.253851 0.023298
v 1.724865 7.253864 0.096782
v 1.724740 7.253775 0.093295
v 1.724740 7.253736 0.079159
v 1.724447 7.253377 0.023303
v 1.724339 7.253312 0.026383
v 1.724338 7.253339 0.035807
v 1.723622 7.252946 0.079161
v 1.723490 7.252714 0.035809
v 1.722844 7.252276 0.079162
v 1.722587 7.251904 0.035811
v 1.722729 7.252228 0.096785
v 1.722151 7.251467 0.035812
v 1.722129 7.251625 0.096788
v 1.722152 7.251440 0.026387
v 1.722050 7.251337 0.023298
v 1.721561 7.250993 0.096789
v 1.721468 7.250865 0.093303
v 1.721470 7.250824 0.079166
v 1.720957 7.250000 0.023313
v 1.721101 7.250352 0.079167
v 1.720881 7.249896 0.026390
v 1.720881 7.249923 0.035816
v 1.720526 7.249537 0.079169
v 1.720419 7.249237 0.035817
v 1.720116 7.248851 0.079171
v 1.719796 7.248129 0.035820
v 1.719665 7.248049 0.096798
v 1.719466 7.247416 0.035822
v 1.719409 7.247258 0.023319
v 1.719467 7.247389 0.026397
v 1.719258 7.247046 0.079175
v 1.719311 7.247235 0.096799
v 1.719257 7.247087 0.093312
v 1.719022 7.246226 0.023320
v 1.718996 7.246330 0.079177
v 1.718837 7.245622 0.023322
v 1.718802 7.245505 0.026404
v 1.718801 7.245532 0.035827
v 1.718763 7.245530 0.079179
v 1.718652 7.244933 0.035828
v 1.718579 7.244753 0.079181
v 1.718517 7.244593 0.096815
v 1.718421 7.243706 0.035831
v 1.718331 7.242970 0.096809
v 1.718329 7.242693 0.035834
v 1.718322 7.242812 0.093323
v 1.718323 7.242771 0.079186
v 1.718323 7.242527 0.023330
v 1.718330 7.242666 0.026414
v 1.718301 7.241646 0.023330
v 1.718341 7.240789 0.023334
v 1.718292 7.241596 0.079189
v 1.718350 7.240695 0.035839
v 1.718350 7.240668 0.026412
v 1.718405 7.240158 0.035840
v 1.718389 7.240380 0.079192
v 1.718403 7.240283 0.096816
v 1.718601 7.238920 0.035844
v 1.718388 7.240421 0.093328
v 1.718580 7.244793 0.093317
v 1.722843 7.252316 0.093299
v 1.726497 7.254731 0.093293
v 1.730718 7.255899 0.093290
v 1.735094 7.255707 0.093291
v 1.737390 7.255031 0.093293
v 1.742102 7.250896 0.093303
v 1.744084 7.249553 0.093305
v 1.745041 7.247797 0.093312
v 1.746192 7.243737 0.096810
v 1.746067 7.244581 0.096809
v 1.746210 7.243580 0.093333
v 1.745323 7.243414 0.093321
v 1.746077 7.244399 0.035832
v 1.746213 7.243539 0.079186
v 1.746260 7.242976 0.035835
v 1.746266 7.242873 0.023452
v 1.746309 7.241951 0.023332
v 1.746307 7.242150 0.079190
v 1.746277 7.241149 0.079193
v 1.746281 7.240991 0.025389
v 1.746276 7.241189 0.093329
v 1.746278 7.240977 0.035840
v 1.746270 7.241050 0.096816
v 1.746210 7.240180 0.035842
v 1.746152 7.239977 0.096820
v 1.746046 7.239363 0.096821
v 1.746021 7.239167 0.079198
v 1.746018 7.239208 0.093331
v 1.746045 7.239149 0.035845
v 1.745810 7.238137 0.035848
v 1.745669 7.237781 0.079201
v 1.745772 7.237977 0.023344
v 1.745512 7.237144 0.023345
v 1.745342 7.236873 0.079203
v 1.745341 7.236914 0.093343
v 1.745286 7.236786 0.096827
v 1.745194 7.236338 0.023348
v 1.745141 7.236254 0.035852
v 1.745142 7.236227 0.026429
v 1.744812 7.235543 0.035854
v 1.744933 7.235974 0.096831
v 1.744554 7.235249 0.096831
v 1.744483 7.235109 0.093342
v 1.744484 7.235068 0.079208
v 1.744183 7.234425 0.035857
v 1.744072 7.234381 0.079210
v 1.743727 7.233747 0.035859
v 1.743654 7.233601 0.023357
v 1.743499 7.233567 0.079212
v 1.743130 7.233096 0.079213
v 1.742976 7.232743 0.023355
v 1.743129 7.233136 0.093350
v 1.743036 7.233027 0.096836
v 1.742468 7.232396 0.096838
v 1.742547 7.232263 0.023358
v 1.742457 7.232176 0.026438
v 1.742457 7.232203 0.035863
v 1.742170 7.232091 0.096839
v 1.742168 7.231909 0.035863
v 1.741863 7.231796 0.096840
v 1.741872 7.231623 0.035864
v 1.741755 7.231685 0.093354
v 1.741756 7.231644 0.079217
v 1.741109 7.230950 0.035866
v 1.740981 7.230977 0.079218
v 1.740269 7.230332 0.035867
v 1.739860 7.230184 0.079220
v 1.740162 7.230222 0.023363
v 1.739732 7.230157 0.096844
v 1.739448 7.230978 0.093360
v 1.739417 7.229746 0.023361
v 1.738997 7.229724 0.096848
v 1.738665 7.229338 0.023365
v 1.738547 7.229315 0.035870
v 1.738548 7.229288 0.026445
v 1.738235 7.229342 0.096846
v 1.738176 7.229137 0.035870
v 1.738101 7.229270 0.093359
v 1.738102 7.229230 0.079222
v 1.737082 7.228674 0.035871
v 1.736943 7.228751 0.079224
v 1.735851 7.228303 0.035872
v 1.735847 7.228428 0.079224
v 1.735846 7.228469 0.093362
v 1.735725 7.228235 0.023368
v 1.735702 7.228442 0.096848
v 1.734874 7.228044 0.023368
v 1.734872 7.228258 0.096851
v 1.734027 7.228129 0.096849
v 1.734016 7.227916 0.023369
v 1.733881 7.228061 0.079225
v 1.733885 7.227937 0.035873
v 1.732612 7.227839 0.035873
v 1.732743 7.227968 0.079225
v 1.731488 7.227995 0.079225
v 1.731004 7.227905 0.035873
v 1.731337 7.228052 0.096849
v 1.733880 7.228102 0.093362
v 1.731487 7.228036 0.093362
v 1.730875 7.227884 0.023368
v 1.730315 7.228162 0.096849
v 1.730034 7.227993 0.023365
v 1.729649 7.228275 0.096848
v 1.729504 7.228251 0.079224
v 1.729160 7.228168 0.023368
v 1.729031 7.228235 0.035872
v 1.729032 7.228207 0.026448
v 1.728018 7.228511 0.035871
v 1.728176 7.228585 0.079223
v 1.727209 7.228930 0.079222
v 1.726880 7.228941 0.035870
v 1.727066 7.229032 0.096845
v 1.726315 7.229191 0.035869
v 1.726316 7.229164 0.026445
v 1.726095 7.229469 0.096846
v 1.726187 7.229207 0.023355
v 1.725530 7.229766 0.096844
v 1.724682 7.230061 0.023364
v 1.725397 7.229779 0.079220
v 1.724573 7.230173 0.035866
v 1.723902 7.230641 0.035865
v 1.724059 7.230647 0.079218
v 1.723428 7.231139 0.079216
v 1.722915 7.231453 0.035863
v 1.723312 7.231285 0.096840
v 1.723426 7.231180 0.093352
v 1.722700 7.231821 0.096840
v 1.722348 7.232000 0.035862
v 1.722074 7.232455 0.096837
v 1.722257 7.232058 0.023357
v 1.721975 7.232513 0.079213
v 1.721654 7.232714 0.023354
v 1.721214 7.233397 0.079210
v 1.721044 7.233517 0.035858
v 1.721126 7.233377 0.023354
v 1.721048 7.233491 0.026436
v 1.721974 7.232553 0.093350
v 1.720515 7.234408 0.079208
v 1.720434 7.234584 0.096831
v 1.720514 7.234449 0.093347
v 1.720120 7.234919 0.035854
v 1.720011 7.235298 0.096831
v 1.719619 7.236079 0.096827
v 1.719581 7.235995 0.035851
v 1.719557 7.236204 0.093340
v 1.719558 7.236163 0.079203
v 1.719169 7.237084 0.079201
v 1.719528 7.236079 0.023347
v 1.719190 7.236891 0.023343
v 1.718917 7.237705 0.023342
v 1.718879 7.237866 0.035846
v 1.718879 7.237839 0.026423
v 1.718753 7.238415 0.079197
v 1.718697 7.238626 0.096830
v 1.719582 7.235969 0.026427
v 1.722348 7.231973 0.026437
v 1.724574 7.230146 0.026442
v 1.731005 7.227880 0.026448
v 1.735851 7.228276 0.026448
v 1.740270 7.230305 0.026443
v 1.742957 7.234257 0.021753
v 1.746279 7.240950 0.026416
v 1.744795 7.245453 0.035829
v 1.745286 7.243046 0.035820
v 1.745354 7.242809 0.021709
v 1.744765 7.245523 0.021696
v 1.721750 7.243939 0.021694
v 1.719468 7.243954 0.021694
v 1.719503 7.239434 0.021706
v 1.720964 7.248182 0.021683
v 1.723328 7.247721 0.021685
v 1.722547 7.250397 0.021666
v 1.723836 7.251673 0.021675
v 1.725687 7.250238 0.021678
v 1.725012 7.252554 0.021671
v 1.728720 7.252068 0.021706
v 1.726416 7.253478 0.021678
v 1.733522 7.254741 0.021669
v 1.735218 7.254453 0.021668
v 1.733157 7.252583 0.021716
v 1.736631 7.254062 0.021669
v 1.738302 7.253342 0.021659
v 1.740595 7.251822 0.021675
v 1.740448 7.249943 0.021680
v 1.741640 7.250835 0.021678
v 1.743128 7.246112 0.021690
v 1.743528 7.248384 0.021685
v 1.744175 7.247101 0.021687
v 1.745295 7.241127 0.021702
v 1.745148 7.239666 0.021707
v 1.744895 7.238351 0.021728
v 1.741826 7.232941 0.021722
v 1.740751 7.231898 0.021726
v 1.739596 7.231038 0.021728
v 1.738221 7.230221 0.021729
v 1.736909 7.229629 0.021732
v 1.737849 7.231626 0.021727
v 1.731139 7.230070 0.021730
v 1.731090 7.228858 0.021745
v 1.729133 7.229121 0.021741
v 1.726734 7.230053 0.021742
v 1.724038 7.231747 0.021726
v 1.724945 7.232883 0.021723
v 1.722970 7.232754 0.021723
v 1.721097 7.235178 0.021717
v 1.720435 7.236488 0.021713
v 1.722655 7.235160 0.021815
v 1.719870 7.237984 0.021708
v 1.721656 7.249260 0.026389
v 1.721655 7.249287 0.035817
v 1.720968 7.248222 0.035820
v 1.720412 7.247084 0.035823
v 1.720366 7.246939 0.021701
v 1.719747 7.245172 0.026399
v 1.719787 7.245358 0.021689
v 1.719747 7.245199 0.035828
v 1.719264 7.242719 0.035834
v 1.719315 7.242462 0.021697
v 1.719333 7.242676 0.026408
v 1.719353 7.240678 0.026419
v 1.719335 7.240864 0.021701
v 1.719352 7.240705 0.035839
v 1.719747 7.238209 0.035845
v 1.719818 7.238191 0.026421
v 1.720521 7.236320 0.026429
v 1.720520 7.236348 0.035850
v 1.721747 7.234139 0.035856
v 1.721918 7.233958 0.021717
v 1.721809 7.234143 0.026431
v 1.723110 7.232625 0.026435
v 1.725065 7.231046 0.035864
v 1.723082 7.232586 0.035860
v 1.725159 7.230936 0.021732
v 1.729195 7.229223 0.035869
v 1.726805 7.229989 0.035867
v 1.729196 7.229196 0.026445
v 1.733694 7.228899 0.035862
v 1.731176 7.228850 0.035870
v 1.733808 7.228810 0.021743
v 1.735667 7.229261 0.026446
v 1.735475 7.229182 0.021730
v 1.738037 7.230177 0.035867
v 1.735709 7.229229 0.035870
v 1.738038 7.230151 0.026443
v 1.739760 7.231167 0.026441
v 1.739823 7.231154 0.035865
v 1.741682 7.232840 0.035861
v 1.741683 7.232813 0.026436
v 1.743026 7.234368 0.035857
v 1.744196 7.236587 0.035851
v 1.744311 7.236603 0.021723
v 1.744861 7.238472 0.035847
v 1.745275 7.240967 0.035840
v 1.745143 7.239709 0.035844
v 1.745276 7.240940 0.026405
v 1.746286 7.241072 0.023336
v 1.722926 7.250803 0.026389
v 1.724849 7.252449 0.026385
v 1.724813 7.252507 0.035809
v 1.722922 7.250834 0.035813
v 1.726571 7.253466 0.026381
v 1.728894 7.254441 0.035805
v 1.726570 7.253493 0.035807
v 1.730803 7.254779 0.021676
v 1.733439 7.254775 0.035804
v 1.730911 7.254822 0.035801
v 1.735413 7.254420 0.026382
v 1.737800 7.253579 0.026383
v 1.737800 7.253606 0.035807
v 1.736629 7.254098 0.035806
v 1.735412 7.254447 0.035805
v 1.739543 7.252598 0.026386
v 1.741499 7.250991 0.026390
v 1.741522 7.251058 0.035814
v 1.739545 7.252629 0.035810
v 1.742800 7.249474 0.026392
v 1.742691 7.249631 0.021679
v 1.744088 7.247296 0.026404
v 1.744087 7.247323 0.035824
v 1.743496 7.248472 0.035821
v 1.742799 7.249501 0.035818
v 1.728662 7.230746 0.022209
v 1.734307 7.230387 0.022431
v 1.739619 7.232738 0.022654
v 1.741534 7.234785 0.021719
v 1.742277 7.236044 0.022806
v 1.743780 7.239847 0.021706
v 1.743734 7.239710 0.022959
v 1.743001 7.246599 0.023203
v 1.739798 7.250546 0.023399
v 1.737786 7.251964 0.021670
v 1.736449 7.252638 0.023546
v 1.732438 7.253476 0.021811
v 1.731537 7.253347 0.023734
v 1.726524 7.251787 0.022063
v 1.723466 7.249210 0.022219
v 1.727375 7.252266 0.023912
v 1.722542 7.247910 0.024172
v 1.720825 7.243218 0.022502
v 1.720703 7.240670 0.024493
v 1.721469 7.237333 0.022739
v 1.722899 7.234910 0.024743
v 1.724883 7.232952 0.022975
v 1.727418 7.231337 0.024984
v 1.733559 7.230170 0.025226
v 1.738265 7.231945 0.025425
v 1.739990 7.233231 0.023615
v 1.740516 7.233730 0.025526
v 1.741915 7.235413 0.023719
v 1.743074 7.237740 0.023819
v 1.742326 7.236098 0.025636
v 1.744004 7.240974 0.025833
v 1.743917 7.241881 0.023980
v 1.743199 7.245507 0.024106
v 1.742727 7.246816 0.026042
v 1.739578 7.250890 0.026243
v 1.739670 7.250709 0.024348
v 1.734321 7.253170 0.026452
v 1.732452 7.253304 0.024639
v 1.730984 7.253241 0.026584
v 1.726697 7.252046 0.026768
v 1.722858 7.248482 0.026971
v 1.721324 7.245337 0.027121
v 1.720760 7.242166 0.025373
v 1.721786 7.236784 0.025591
v 1.720731 7.241251 0.027298
v 1.724968 7.232920 0.027692
v 1.730611 7.230269 0.026051
v 1.733067 7.230316 0.028034
v 1.735464 7.230735 0.026247
v 1.738232 7.231919 0.026365
v 1.740979 7.234216 0.026492
v 1.736661 7.231121 0.028184
v 1.739949 7.233199 0.028327
v 1.742809 7.237010 0.026616
v 1.742859 7.236972 0.028502
v 1.743922 7.242332 0.028709
v 1.743361 7.245137 0.026919
v 1.742563 7.247169 0.028883
v 1.740455 7.249968 0.029020
v 1.737254 7.252285 0.029169
v 1.732532 7.253384 0.029349
v 1.726914 7.252148 0.029587
v 1.726972 7.252204 0.027697
v 1.723304 7.249038 0.029771
v 1.720876 7.244248 0.028113
v 1.721490 7.245905 0.029924
v 1.720683 7.241195 0.030126
v 1.722089 7.236427 0.030326
v 1.723642 7.234003 0.028562
v 1.725468 7.232332 0.030553
v 1.729609 7.230477 0.028839
v 1.731174 7.230329 0.030785
v 1.734997 7.230579 0.029054
v 1.738626 7.232141 0.029207
v 1.740025 7.233180 0.031158
v 1.735794 7.230774 0.030975
v 1.742261 7.236014 0.029399
v 1.743950 7.241767 0.031516
v 1.741092 7.249317 0.029924
v 1.742103 7.248124 0.031750
v 1.737619 7.252152 0.031984
v 1.737385 7.252221 0.030105
v 1.734051 7.253203 0.030230
v 1.732405 7.253382 0.032182
v 1.725389 7.251074 0.030599
v 1.722590 7.248069 0.032648
v 1.722481 7.247906 0.030768
v 1.721087 7.244466 0.030929
v 1.720799 7.240487 0.031098
v 1.720795 7.242376 0.032906
v 1.721267 7.238210 0.033072
v 1.723165 7.234819 0.033236
v 1.726265 7.231891 0.033418
v 1.730874 7.230327 0.031715
v 1.731736 7.230275 0.033635
v 1.738790 7.232265 0.032045
v 1.739627 7.232795 0.033963
v 1.741922 7.235457 0.032202
v 1.742491 7.236418 0.034131
v 1.743865 7.240308 0.032403
v 1.742950 7.246573 0.032626
v 1.743905 7.240903 0.034312
v 1.742766 7.246888 0.034526
v 1.739880 7.250529 0.034705
v 1.735952 7.252848 0.034873
v 1.734688 7.253153 0.033032
v 1.729718 7.253129 0.033232
v 1.730474 7.253258 0.035087
v 1.727099 7.252107 0.035234
v 1.725017 7.250824 0.033444
v 1.724340 7.250204 0.035365
v 1.722386 7.247709 0.035492
v 1.721704 7.246529 0.033663
v 1.720770 7.242273 0.033850
v 1.720774 7.241470 0.035774
v 1.721146 7.244847 0.035627
v 1.721645 7.237231 0.035856
v 1.725324 7.232521 0.035860
v 1.724841 7.233047 0.034281
v 1.727883 7.231160 0.034425
v 1.731625 7.230186 0.035867
v 1.732697 7.230233 0.034614
v 1.737852 7.231603 0.035864
v 1.738547 7.232021 0.034859
v 1.741679 7.235057 0.035855
v 1.743539 7.238830 0.035172
v 1.743594 7.239262 0.035844
v 1.743543 7.244799 0.035493
v 1.741273 7.249321 0.035628
v 1.738895 7.251862 0.035799
v 1.721683 7.236974 0.034065
v 1.722052 7.236431 0.031266
v 1.729746 7.253137 0.030404
v 1.743710 7.244279 0.029714
v 1.743501 7.239045 0.029526
v 1.721065 7.238989 0.028327
v 1.732859 7.253358 0.027449
v 1.738742 7.251574 0.027223
v 1.742046 7.247969 0.027033
v 1.725317 7.232574 0.025826
v 1.723947 7.249830 0.025014
v 1.735739 7.252832 0.024513
v 1.738260 7.231946 0.023538
v 1.733820 7.230257 0.023351
v 1.728447 7.230907 0.023138
v 1.721841 7.246617 0.022347
v 1.721239 7.245087 0.032789
v 1.721609 7.242743 0.032888
v 1.726467 7.251966 0.032434
v 1.732603 7.252618 0.032174
v 1.741490 7.247487 0.031743
v 1.742092 7.237301 0.031545
v 1.742654 7.236694 0.031316
v 1.742566 7.244932 0.028807
v 1.739026 7.233148 0.028298
v 1.728599 7.230813 0.027860
v 1.728894 7.231607 0.027857
v 1.722018 7.236426 0.027496
v 1.721506 7.243405 0.027206
v 1.724830 7.249710 0.026882
v 1.741270 7.235931 0.025608
v 1.721368 7.245470 0.024287
v 1.724247 7.250032 0.024063
v 1.724818 7.249524 0.024061
v 1.730073 7.252518 0.023802
v 1.722004 7.238237 0.021735
v 1.725417 7.233513 0.022036
v 1.729616 7.231349 0.022233
v 1.734995 7.231316 0.022464
v 1.739062 7.233450 0.022652
v 1.741417 7.236094 0.022790
v 1.742972 7.240135 0.022970
v 1.742140 7.246609 0.023218
v 1.737092 7.251519 0.023511
v 1.722476 7.246198 0.024241
v 1.721494 7.241412 0.024465
v 1.723262 7.235884 0.025040
v 1.727642 7.232038 0.024978
v 1.733466 7.231035 0.025225
v 1.738712 7.233110 0.025461
v 1.743106 7.240346 0.025806
v 1.741481 7.247779 0.026099
v 1.735123 7.252355 0.026417
v 1.729469 7.252172 0.026660
v 1.724825 7.234017 0.027655
v 1.733065 7.231081 0.028035
v 1.743060 7.239955 0.028617
v 1.741197 7.247868 0.028936
v 1.737999 7.250981 0.029124
v 1.732874 7.252590 0.029626
v 1.726865 7.251217 0.029608
v 1.723542 7.248260 0.030181
v 1.721606 7.243000 0.030050
v 1.722183 7.237913 0.030269
v 1.726127 7.232887 0.030559
v 1.732474 7.230943 0.030836
v 1.738626 7.233022 0.031111
v 1.743125 7.242360 0.031538
v 1.737782 7.251145 0.031963
v 1.726864 7.251225 0.032436
v 1.722719 7.246839 0.032691
v 1.722057 7.238299 0.033078
v 1.725124 7.233771 0.033329
v 1.730151 7.231199 0.033565
v 1.737108 7.231477 0.033861
v 1.739643 7.233680 0.033983
v 1.742944 7.239856 0.034266
v 1.742387 7.245872 0.034499
v 1.738760 7.250492 0.034741
v 1.733102 7.252682 0.034980
v 1.727596 7.251501 0.035229
v 1.723740 7.248473 0.035433
v 1.721624 7.243750 0.035787
v 1.720404 7.240232 0.035840
v 1.720289 7.242394 0.035835
v 1.720662 7.244799 0.035829
v 1.721326 7.246713 0.035824
v 1.722098 7.248151 0.035820
v 1.723028 7.249463 0.035817
v 1.724387 7.249170 0.035818
v 1.724443 7.250912 0.035813
v 1.726422 7.252317 0.035810
v 1.730375 7.252631 0.035809
v 1.728853 7.253339 0.035807
v 1.730643 7.253714 0.035807
v 1.732256 7.253839 0.035806
v 1.734079 7.253702 0.035807
v 1.736588 7.251707 0.035793
v 1.735858 7.253301 0.035808
v 1.737556 7.252625 0.035810
v 1.740399 7.250704 0.035815
v 1.741776 7.249219 0.035819
v 1.720678 7.238842 0.035844
v 1.721277 7.237054 0.035849
v 1.722356 7.235105 0.035854
v 1.723907 7.233231 0.035859
v 1.726157 7.231506 0.035863
v 1.728365 7.230495 0.035866
v 1.729915 7.230081 0.035867
v 1.731947 7.229824 0.035868
v 1.733959 7.229956 0.035868
v 1.735953 7.230385 0.035867
v 1.738178 7.231365 0.035864
v 1.740015 7.232623 0.035861
v 1.741580 7.234208 0.035857
v 1.742393 7.235341 0.035855
v 1.742689 7.235828 0.035853
v 1.742997 7.236391 0.035852
v 1.743585 7.237708 0.035849
v 1.744028 7.239259 0.035845
v 1.744255 7.240663 0.035841
v 1.744300 7.242491 0.035836
v 1.744019 7.244495 0.035831
v 1.743477 7.246234 0.035827
v 1.742783 7.247695 0.035823
v 1.732812 7.230880 0.023309
v 1.743073 7.240436 0.023923
v 1.742165 7.247813 0.024198
v 1.728974 7.252139 0.024794
v 1.728304 7.252752 0.024811
v 1.722092 7.247126 0.025150
v 1.727123 7.232292 0.025895
v 1.743846 7.241185 0.026781
v 1.723026 7.248627 0.027903
v 1.723349 7.247734 0.027928
v 1.724020 7.234665 0.028549
v 1.736234 7.231780 0.029116
v 1.741675 7.236415 0.029401
v 1.743118 7.241691 0.029626
v 1.741990 7.246548 0.029814
v 1.728738 7.252024 0.030461
v 1.722125 7.245549 0.030871
v 1.725622 7.232316 0.031499
v 1.735361 7.230706 0.031898
v 1.741434 7.247611 0.032689
v 1.739247 7.251111 0.032852
v 1.737913 7.251022 0.032895
v 1.732515 7.252697 0.033118
v 1.726466 7.250941 0.033397
v 1.730906 7.231154 0.034537
v 1.736644 7.231848 0.034789
v 1.741231 7.248112 0.035537
v 1.743104 7.242093 0.035296
v 1.741615 7.235925 0.035036
v 1.727166 7.232402 0.034377
v 1.724756 7.234215 0.034243
v 1.722175 7.237920 0.034036
v 1.721596 7.242613 0.033835
v 1.722679 7.246764 0.033636
v 1.743117 7.242362 0.032479
v 1.739601 7.233658 0.032095
v 1.730095 7.231185 0.031677
v 1.724277 7.234483 0.031391
v 1.721664 7.239927 0.031123
v 1.737883 7.251222 0.030073
v 1.730497 7.231094 0.028866
v 1.722062 7.238427 0.027828
v 1.721671 7.243785 0.028127
v 1.727006 7.251323 0.027714
v 1.732249 7.252554 0.027476
v 1.737262 7.251473 0.027271
v 1.741418 7.247582 0.027034
v 1.742962 7.243351 0.026861
v 1.742554 7.238291 0.026659
v 1.740283 7.234645 0.026483
v 1.738302 7.232923 0.026385
v 1.733692 7.230996 0.026173
v 1.721773 7.239310 0.025493
v 1.723446 7.248142 0.025082
v 1.734880 7.252290 0.024539
v 1.739418 7.249918 0.024336
v 1.742268 7.245939 0.024134
v 1.740946 7.235350 0.023694
v 1.738020 7.232717 0.023544
v 1.726617 7.232629 0.023042
v 1.722285 7.237404 0.022748
v 1.721694 7.243775 0.022471
v 1.723649 7.248232 0.022247
v 1.719611 7.238709 0.098050
v 1.718755 7.238457 0.093328
v 1.720351 7.236594 0.079202
v 1.719598 7.238565 0.079197
v 1.721254 7.234974 0.098029
v 1.722592 7.233164 0.079211
v 1.721285 7.234824 0.079207
v 1.723829 7.231914 0.098087
v 1.724047 7.231835 0.093350
v 1.725728 7.230514 0.093359
v 1.725773 7.230580 0.079218
v 1.724045 7.231791 0.079215
v 1.727358 7.229776 0.098092
v 1.727548 7.229685 0.093355
v 1.729602 7.229048 0.093361
v 1.729602 7.229106 0.079222
v 1.727596 7.229744 0.079220
v 1.733710 7.228901 0.079223
v 1.731605 7.228889 0.079223
v 1.737669 7.230062 0.093354
v 1.737679 7.229976 0.079220
v 1.735681 7.229315 0.079222
v 1.741099 7.232305 0.093353
v 1.741100 7.232264 0.079215
v 1.739455 7.230941 0.079218
v 1.742421 7.233538 0.098084
v 1.742474 7.233756 0.093350
v 1.743667 7.235496 0.093346
v 1.743690 7.235439 0.079207
v 1.742478 7.233712 0.079211
v 1.744526 7.237301 0.093337
v 1.745123 7.239325 0.093334
v 1.745166 7.239264 0.079197
v 1.744527 7.237260 0.079202
v 1.745475 7.241102 0.098065
v 1.745381 7.241306 0.093331
v 1.745324 7.243374 0.079187
v 1.745428 7.241267 0.079192
v 1.744956 7.245379 0.093315
v 1.745843 7.245544 0.093321
v 1.744248 7.247366 0.093312
v 1.744249 7.247326 0.079177
v 1.745000 7.245354 0.079182
v 1.743399 7.248966 0.098021
v 1.743291 7.249121 0.093309
v 1.742008 7.250756 0.079168
v 1.743315 7.249096 0.079172
v 1.740637 7.252130 0.098024
v 1.738831 7.253405 0.093309
v 1.738842 7.253353 0.079161
v 1.740552 7.252126 0.079164
v 1.737003 7.254217 0.093298
v 1.734977 7.254813 0.093293
v 1.734987 7.254798 0.079157
v 1.737006 7.254180 0.079158
v 1.730882 7.255000 0.079156
v 1.732996 7.255035 0.079156
v 1.728974 7.254709 0.098030
v 1.726928 7.253939 0.093295
v 1.726921 7.253943 0.079158
v 1.728919 7.254605 0.079157
v 1.725172 7.252983 0.093300
v 1.723499 7.251697 0.093301
v 1.723497 7.251659 0.079164
v 1.725158 7.252965 0.079161
v 1.720898 7.248496 0.079172
v 1.722125 7.250205 0.079168
v 1.720072 7.246700 0.093315
v 1.719411 7.244640 0.098028
v 1.719450 7.244645 0.079182
v 1.720069 7.246662 0.079176
v 1.719122 7.242926 0.098058
v 1.719217 7.242695 0.093323
v 1.719209 7.240381 0.098073
v 1.719275 7.240568 0.098028
v 1.719231 7.240545 0.079192
v 1.719218 7.242655 0.079187
f 385 831 904
f 83 1 2
f 83 2 81
f 899 2 1
f 2 899 3
f 3 899 5
f 5 899 902
f 5 902 4
f 5 4 6
f 6 4 905
f 6 905 904
f 6 904 7
f 7 904 831
f 7 831 8
f 7 8 9
f 9 8 10
f 9 10 835
f 11 9 835
f 9 11 12
f 12 11 13
f 13 11 838
f 13 838 14
f 13 14 16
f 16 14 15
f 16 15 843
f 16 843 17
f 17 843 18
f 17 18 19
f 19 18 20
f 19 20 22
f 22 20 21
f 22 21 23
f 23 21 24
f 23 24 26
f 23 26 25
f 25 26 27
f 27 26 31
f 27 31 28
f 27 28 29
f 27 29 30
f 30 29 32
f 30 32 856
f 30 856 33
f 33 856 35
f 33 35 34
f 34 35 36
f 36 35 39
f 36 39 37
f 37 39 38
f 40 41 38
f 38 41 37
f 41 40 42
f 41 42 43
f 43 42 865
f 43 865 44
f 43 44 45
f 45 44 46
f 46 44 47
f 46 47 49
f 46 49 48
f 48 49 50
f 50 49 51
f 50 51 874
f 52 53 874
f 874 53 50
f 53 52 54
f 54 52 55
f 54 55 56
f 56 55 878
f 56 878 57
f 56 57 58
f 58 57 60
f 60 57 59
f 60 59 61
f 60 61 62
f 62 61 63
f 62 63 64
f 64 63 65
f 64 65 67
f 64 67 66
f 66 67 68
f 68 67 69
f 68 69 71
f 71 69 888
f 70 71 888
f 71 70 72
f 72 70 73
f 72 73 74
f 74 73 78
f 74 78 76
f 74 76 75
f 75 76 79
f 75 79 80
f 75 80 77
f 77 80 81
f 81 80 83
f 82 84 83
f 83 84 1
f 244 85 241
f 244 86 85
f 85 86 87
f 85 87 870
f 87 86 91
f 91 86 88
f 91 88 89
f 91 89 92
f 88 90 89
f 91 92 93
f 91 93 94
f 95 96 93
f 93 96 94
f 99 97 96
f 97 99 98
f 98 99 100
f 100 99 101
f 100 101 102
f 102 101 107
f 107 101 103
f 107 103 104
f 107 104 106
f 103 105 104
f 107 106 108
f 108 106 109
f 108 109 110
f 111 112 109
f 109 112 110
f 112 113 110
f 110 113 114
f 114 113 115
f 114 115 116
f 113 118 115
f 115 118 117
f 117 118 119
f 117 119 122
f 122 119 120
f 122 120 121
f 122 121 123
f 122 123 124
f 124 123 125
f 123 126 125
f 125 126 127
f 125 127 128
f 128 127 129
f 128 129 130
f 130 129 131
f 130 131 132
f 132 131 133
f 132 133 136
f 136 133 134
f 136 134 135
f 136 135 137
f 136 137 138
f 138 137 140
f 140 137 139
f 141 142 139
f 139 142 140
f 140 142 143
f 143 142 144
f 143 144 145
f 143 145 146
f 144 148 145
f 145 148 147
f 147 148 149
f 147 149 150
f 150 149 152
f 150 152 151
f 151 152 154
f 151 154 153
f 153 154 155
f 155 154 156
f 155 156 157
f 157 156 158
f 158 156 159
f 158 159 160
f 160 159 161
f 160 161 162
f 162 161 163
f 162 163 164
f 164 163 165
f 164 165 166
f 166 165 169
f 166 169 167
f 149 497 152
f 156 168 159
f 166 167 170
f 170 167 171
f 170 171 172
f 172 171 174
f 172 174 173
f 171 175 174
f 176 177 175
f 175 177 174
f 174 177 178
f 178 177 179
f 178 179 180
f 180 179 181
f 180 181 182
f 182 181 183
f 182 183 184
f 184 183 185
f 184 185 186
f 184 186 187
f 187 186 188
f 188 186 189
f 189 186 190
f 189 190 191
f 191 190 192
f 191 192 193
f 191 193 194
f 194 193 195
f 194 195 196
f 196 195 197
f 196 197 84
f 84 197 198
f 198 197 199
f 198 199 203
f 203 199 200
f 199 201 200
f 205 206 200
f 200 206 202
f 200 202 203
f 203 202 204
f 206 205 207
f 208 209 207
f 207 209 210
f 207 210 206
f 209 211 210
f 210 211 212
f 212 211 214
f 212 214 213
f 213 214 215
f 215 214 216
f 215 216 217
f 217 216 220
f 217 220 218
f 218 220 219
f 218 219 223
f 223 219 221
f 223 221 222
f 223 222 224
f 224 222 225
f 224 226 223
f 223 226 227
f 227 226 228
f 228 226 229
f 228 229 385
f 228 230 227
f 213 231 212
f 196 84 82
f 180 182 232
f 164 233 162
f 151 234 150
f 138 235 136
f 130 236 128
f 124 879 122
f 108 110 237
f 102 238 100
f 239 94 97
f 97 94 96
f 240 241 47
f 47 241 85
f 243 242 240
f 243 240 47
f 244 241 240
f 244 240 245
f 245 240 242
f 244 245 246
f 246 245 249
f 246 249 247
f 247 249 248
f 248 249 487
f 487 249 250
f 487 250 251
f 251 250 252
f 251 252 253
f 253 252 254
f 253 254 255
f 255 254 256
f 255 256 260
f 260 256 257
f 260 257 258
f 258 257 259
f 260 258 261
f 261 258 262
f 261 262 263
f 263 262 264
f 264 262 265
f 264 265 266
f 264 266 267
f 264 267 268
f 268 267 269
f 268 269 270
f 267 272 269
f 269 272 271
f 271 272 273
f 271 273 274
f 271 274 275
f 271 275 276
f 276 275 277
f 276 277 278
f 278 277 280
f 278 280 279
f 279 280 281
f 279 281 282
f 282 281 283
f 283 284 282
f 282 284 286
f 286 284 285
f 286 285 287
f 287 285 288
f 288 285 289
f 288 289 290
f 290 289 291
f 290 291 292
f 292 291 293
f 292 293 294
f 292 294 295
f 295 294 296
f 295 296 297
f 297 296 298
f 297 298 299
f 299 298 302
f 302 298 300
f 298 301 300
f 302 300 303
f 302 303 304
f 304 303 305
f 304 305 306
f 303 307 305
f 305 307 308
f 309 310 307
f 307 310 308
f 308 310 311
f 311 310 312
f 311 312 313
f 313 312 314
f 313 314 316
f 316 314 315
f 316 315 317
f 316 317 318
f 318 317 319
f 318 319 320
f 318 320 321
f 321 320 322
f 321 322 323
f 323 322 325
f 323 325 324
f 324 325 326
f 324 326 327
f 327 326 328
f 320 329 322
f 326 330 328
f 327 328 331
f 331 328 332
f 331 332 333
f 333 332 334
f 845 335 334
f 334 335 333
f 333 335 336
f 336 335 338
f 338 335 337
f 335 340 337
f 337 340 339
f 339 340 341
f 339 341 342
f 342 341 343
f 844 343 341
f 342 343 344
f 344 343 346
f 344 346 345
f 345 346 347
f 347 346 348
f 840 350 348
f 348 350 347
f 347 350 349
f 353 351 350
f 350 351 349
f 351 353 352
f 352 353 354
f 352 354 355
f 355 354 356
f 355 356 358
f 354 357 356
f 355 358 359
f 359 358 360
f 359 360 361
f 361 360 362
f 361 362 363
f 363 362 364
f 363 364 366
f 366 364 365
f 366 365 367
f 360 368 362
f 365 364 372
f 372 364 369
f 372 369 370
f 370 369 371
f 372 370 373
f 372 373 374
f 372 374 375
f 376 377 374
f 374 377 375
f 378 379 377
f 379 378 380
f 380 378 381
f 381 378 382
f 381 382 383
f 378 384 382
f 382 384 229
f 229 384 385
f 385 384 832
f 386 375 379
f 379 375 377
f 361 387 359
f 388 349 351
f 331 389 327
f 323 468 321
f 316 390 313
f 299 391 297
f 278 279 392
f 263 422 261
f 253 393 251
f 88 86 394
f 394 86 244
f 394 244 395
f 395 244 246
f 397 90 394
f 394 90 88
f 395 396 394
f 394 396 397
f 401 402 444
f 444 402 398
f 444 398 446
f 446 398 399
f 399 398 449
f 449 398 678
f 449 678 452
f 452 678 400
f 400 678 438
f 402 401 403
f 402 403 404
f 402 404 405
f 405 404 406
f 405 406 407
f 407 406 408
f 407 408 168
f 407 168 495
f 407 495 411
f 411 495 409
f 411 409 410
f 411 410 522
f 410 412 522
f 522 412 413
f 522 413 414
f 522 414 415
f 415 414 416
f 415 416 508
f 415 508 417
f 417 508 418
f 417 418 419
f 417 419 397
f 417 397 396
f 417 396 518
f 518 396 420
f 518 420 421
f 518 421 422
f 518 422 482
f 518 482 516
f 516 482 392
f 516 392 423
f 516 423 424
f 516 424 428
f 428 424 425
f 428 425 426
f 428 426 427
f 428 427 429
f 429 427 472
f 429 472 470
f 429 470 430
f 429 430 431
f 429 431 432
f 429 432 464
f 429 464 434
f 434 464 433
f 434 433 435
f 434 435 459
f 434 459 438
f 438 459 436
f 438 436 437
f 438 437 439
f 438 439 400
f 403 401 440
f 440 401 441
f 441 401 442
f 442 401 443
f 443 401 444
f 440 192 190
f 440 190 403
f 192 440 193
f 193 440 441
f 443 199 442
f 442 199 197
f 442 197 195
f 442 195 441
f 441 195 193
f 444 201 443
f 443 201 199
f 201 444 200
f 200 444 446
f 200 446 205
f 205 446 207
f 445 208 207
f 445 207 446
f 208 445 209
f 209 445 447
f 448 216 214
f 448 214 211
f 448 211 447
f 447 211 209
f 450 220 448
f 448 220 216
f 446 399 445
f 445 399 447
f 447 399 448
f 448 399 450
f 450 399 449
f 220 450 219
f 219 450 449
f 219 449 221
f 221 449 452
f 221 452 222
f 451 225 222
f 451 222 452
f 225 451 224
f 224 451 453
f 382 229 454
f 454 229 226
f 454 226 453
f 453 226 224
f 455 383 454
f 454 383 382
f 455 454 400
f 455 400 439
f 383 455 439
f 383 439 381
f 381 439 380
f 380 439 437
f 380 437 379
f 386 379 456
f 456 379 437
f 386 456 375
f 375 456 457
f 458 365 372
f 458 372 375
f 458 375 457
f 460 367 458
f 458 367 365
f 437 436 456
f 456 436 457
f 457 436 458
f 458 436 460
f 460 436 459
f 367 460 366
f 366 460 459
f 366 459 363
f 363 459 435
f 363 435 361
f 461 387 361
f 461 361 435
f 387 461 359
f 359 461 463
f 351 352 462
f 462 352 463
f 463 352 355
f 463 355 359
f 464 388 462
f 462 388 351
f 435 433 461
f 461 433 463
f 463 433 462
f 462 433 464
f 388 464 349
f 349 464 347
f 347 464 432
f 345 347 432
f 345 432 344
f 344 432 466
f 465 337 466
f 466 337 339
f 466 339 342
f 466 342 344
f 467 338 465
f 465 338 337
f 432 431 466
f 466 431 467
f 467 465 466
f 338 467 336
f 336 467 431
f 336 431 333
f 333 431 430
f 333 430 331
f 389 331 430
f 389 430 327
f 327 430 469
f 323 324 468
f 468 324 469
f 469 324 327
f 430 470 469
f 469 470 468
f 468 470 321
f 321 470 318
f 318 470 472
f 318 472 316
f 390 316 471
f 471 316 472
f 390 471 313
f 313 471 474
f 305 308 473
f 473 308 474
f 474 308 311
f 474 311 313
f 475 306 473
f 473 306 305
f 472 427 471
f 471 427 474
f 474 427 473
f 473 427 475
f 475 427 426
f 306 475 304
f 304 475 426
f 304 426 302
f 302 426 425
f 302 425 299
f 391 299 476
f 476 299 425
f 391 476 297
f 297 476 477
f 288 290 478
f 478 290 292
f 478 292 477
f 477 292 295
f 477 295 297
f 479 287 478
f 478 287 288
f 425 424 476
f 476 424 477
f 477 424 479
f 479 424 423
f 479 478 477
f 423 286 479
f 479 286 287
f 286 423 282
f 282 423 392
f 282 392 279
f 278 392 480
f 481 269 480
f 480 269 271
f 480 271 276
f 480 276 278
f 482 270 481
f 481 270 269
f 392 482 480
f 482 481 480
f 270 482 268
f 268 482 264
f 264 482 422
f 264 422 263
f 261 422 483
f 484 253 485
f 485 253 255
f 485 255 260
f 485 260 483
f 483 260 261
f 486 393 484
f 484 393 253
f 422 421 483
f 483 421 485
f 485 421 484
f 484 421 486
f 486 421 420
f 393 486 251
f 251 486 487
f 487 486 420
f 487 420 248
f 248 420 396
f 248 396 247
f 395 247 396
f 247 395 246
f 400 454 453
f 400 453 451
f 400 451 452
f 186 403 190
f 403 186 488
f 488 186 185
f 406 404 489
f 489 404 490
f 490 404 491
f 491 404 488
f 488 404 403
f 176 175 489
f 489 175 406
f 176 489 177
f 177 489 490
f 183 181 491
f 491 181 179
f 491 179 490
f 490 179 177
f 488 185 491
f 491 185 183
f 167 408 171
f 171 408 406
f 171 406 175
f 169 492 167
f 167 492 408
f 168 408 493
f 493 408 492
f 492 494 493
f 159 168 493
f 165 163 494
f 494 163 493
f 493 163 161
f 493 161 159
f 492 169 494
f 494 169 165
f 152 495 154
f 154 495 168
f 154 168 156
f 497 495 152
f 409 495 496
f 496 495 497
f 141 139 409
f 141 409 142
f 142 409 496
f 149 148 497
f 497 148 144
f 497 144 496
f 496 144 142
f 135 410 137
f 137 410 409
f 137 409 139
f 134 498 135
f 135 498 410
f 413 412 499
f 499 412 500
f 500 412 501
f 501 412 502
f 502 412 498
f 498 412 410
f 126 123 499
f 499 123 413
f 126 499 127
f 127 499 500
f 502 133 501
f 501 133 131
f 501 131 129
f 501 129 500
f 500 129 127
f 498 134 502
f 502 134 133
f 121 413 123
f 120 503 121
f 121 503 413
f 416 414 504
f 504 414 505
f 505 414 506
f 506 414 503
f 503 414 413
f 111 109 504
f 504 109 416
f 111 504 112
f 112 504 505
f 119 118 506
f 506 118 505
f 505 118 113
f 505 113 112
f 503 120 506
f 506 120 119
f 104 508 106
f 106 508 416
f 106 416 109
f 105 507 508
f 105 508 104
f 419 418 509
f 509 418 510
f 510 418 511
f 511 418 507
f 507 418 508
f 507 512 511
f 95 93 509
f 509 93 419
f 95 509 96
f 96 509 510
f 512 103 101
f 512 101 511
f 511 101 99
f 511 99 96
f 511 96 510
f 507 105 512
f 512 105 103
f 89 397 92
f 92 397 419
f 92 419 93
f 90 397 89
f 434 438 513
f 434 513 429
f 429 513 514
f 429 514 428
f 428 514 515
f 428 515 516
f 516 515 517
f 518 516 517
f 518 517 519
f 518 519 520
f 518 520 417
f 415 520 521
f 417 520 415
f 521 522 415
f 523 522 521
f 524 523 525
f 522 523 524
f 524 525 528
f 526 675 527
f 658 529 674
f 526 528 675
f 527 675 529
f 674 531 530
f 530 531 532
f 532 531 533
f 532 533 534
f 534 533 535
f 535 657 534
f 657 535 536
f 656 536 537
f 656 537 655
f 655 537 538
f 538 539 540
f 537 539 538
f 539 542 540
f 542 543 541
f 543 544 541
f 544 543 546
f 544 546 545
f 545 546 770
f 547 654 548
f 654 547 549
f 654 549 550
f 549 551 550
f 551 552 772
f 772 552 653
f 553 773 653
f 773 553 554
f 555 554 557
f 555 557 556
f 556 557 670
f 556 670 558
f 556 558 652
f 668 652 558
f 652 668 559
f 560 559 668
f 561 560 564
f 562 565 563
f 564 565 562
f 563 565 567
f 563 567 566
f 566 567 775
f 775 568 569
f 569 568 570
f 569 570 651
f 650 571 572
f 573 574 575
f 575 574 576
f 575 576 776
f 579 648 577
f 648 579 580
f 648 580 581
f 581 580 582
f 583 582 584
f 584 588 585
f 584 585 583
f 586 588 587
f 586 587 589
f 585 588 586
f 665 589 587
f 589 665 647
f 647 665 590
f 592 591 646
f 592 593 591
f 594 593 595
f 595 593 596
f 596 645 595
f 596 661 645
f 597 661 599
f 599 661 598
f 599 598 659
f 600 602 601
f 659 602 600
f 601 602 603
f 601 603 644
f 785 604 605
f 606 605 607
f 607 717 786
f 786 717 608
f 608 717 609
f 608 609 610
f 611 612 610
f 612 614 613
f 613 614 615
f 788 616 617
f 620 618 617
f 618 620 619
f 620 621 619
f 619 621 622
f 622 621 623
f 623 624 625
f 626 628 627
f 630 631 643
f 631 630 632
f 632 630 633
f 634 635 636
f 636 635 637
f 636 637 796
f 796 637 638
f 638 637 639
f 638 639 640
f 635 634 633
f 634 632 633
f 630 643 629
f 629 643 627
f 627 643 626
f 626 625 628
f 628 625 624
f 625 622 623
f 617 618 788
f 616 788 615
f 788 613 615
f 614 612 611
f 611 610 609
f 786 606 607
f 605 606 785
f 785 644 604
f 604 644 603
f 600 599 659
f 597 645 661
f 593 594 591
f 592 646 590
f 590 646 647
f 582 583 581
f 579 577 578
f 578 577 776
f 578 776 576
f 575 649 573
f 573 649 572
f 572 649 650
f 571 650 651
f 571 651 570
f 568 775 567
f 562 561 564
f 560 561 559
f 554 555 773
f 553 653 552
f 772 550 551
f 547 548 770
f 547 770 546
f 541 540 542
f 656 657 536
f 674 530 658
f 658 527 529
f 528 526 524
f 725 629 627
f 627 628 624
f 621 624 623
f 722 620 617
f 617 616 721
f 720 616 615
f 611 609 718
f 718 609 717
f 716 607 605
f 605 604 715
f 714 602 660
f 660 602 659
f 660 659 713
f 713 659 598
f 603 602 714
f 712 598 661
f 712 661 662
f 661 596 662
f 711 596 593
f 590 665 664
f 665 587 709
f 707 582 580
f 578 576 704
f 704 576 703
f 576 574 703
f 666 570 568
f 666 568 699
f 667 567 565
f 565 564 667
f 560 668 669
f 669 668 558
f 669 558 697
f 697 670 809
f 670 557 671
f 557 554 671
f 553 552 672
f 695 551 549
f 695 549 547
f 543 542 693
f 693 542 673
f 687 674 529
f 529 675 676
f 675 528 676
f 528 525 677
f 525 523 677
f 677 523 686
f 523 521 686
f 519 517 683
f 517 515 682
f 682 515 514
f 438 678 679
f 438 679 513
f 513 679 680
f 513 680 514
f 680 681 514
f 514 681 682
f 517 682 683
f 683 684 519
f 684 685 519
f 519 685 520
f 520 685 521
f 685 686 521
f 528 677 676
f 676 687 529
f 674 687 688
f 674 688 531
f 531 688 533
f 688 689 533
f 533 689 690
f 533 690 535
f 691 536 690
f 690 536 535
f 691 692 536
f 536 692 537
f 537 692 539
f 539 692 542
f 542 692 673
f 543 693 694
f 543 694 546
f 694 547 546
f 547 694 695
f 551 695 696
f 551 696 552
f 552 696 672
f 671 553 672
f 553 671 554
f 671 809 670
f 670 697 558
f 560 669 698
f 560 698 564
f 564 698 667
f 667 699 567
f 567 699 568
f 666 700 570
f 570 700 571
f 700 701 571
f 571 701 572
f 701 702 572
f 572 702 573
f 573 702 574
f 574 702 703
f 704 705 578
f 578 705 579
f 579 705 706
f 579 706 580
f 580 706 707
f 582 707 584
f 584 707 708
f 584 708 588
f 588 708 709
f 709 587 588
f 665 709 664
f 590 664 710
f 590 710 592
f 710 663 592
f 663 711 592
f 592 711 593
f 662 596 711
f 712 713 598
f 714 604 603
f 604 714 715
f 605 715 716
f 716 717 607
f 611 718 719
f 611 719 614
f 614 719 720
f 614 720 615
f 720 721 616
f 721 722 617
f 722 723 620
f 620 723 621
f 621 723 724
f 621 724 624
f 624 724 725
f 624 725 627
f 745 629 726
f 726 629 725
f 726 725 727
f 727 725 728
f 728 725 729
f 729 725 732
f 729 732 730
f 730 732 731
f 731 732 733
f 733 732 734
f 734 732 735
f 734 735 736
f 736 735 737
f 737 735 738
f 738 735 739
f 739 735 740
f 739 740 741
f 741 740 642
f 741 642 742
f 743 642 641
f 743 641 744
f 744 641 767
f 629 745 746
f 629 746 747
f 629 747 630
f 630 747 748
f 630 748 749
f 630 749 750
f 630 750 633
f 633 750 751
f 633 751 752
f 633 752 753
f 633 753 754
f 633 754 635
f 635 754 755
f 635 755 756
f 635 756 637
f 637 756 757
f 637 757 758
f 637 758 759
f 637 759 760
f 637 760 761
f 637 761 639
f 639 761 762
f 639 762 763
f 639 763 764
f 639 764 640
f 640 764 765
f 640 765 766
f 640 766 641
f 641 766 767
f 46 765 764
f 46 764 45
f 45 764 763
f 45 763 43
f 43 763 762
f 43 762 41
f 41 762 761
f 41 761 37
f 37 761 760
f 37 760 759
f 37 759 36
f 36 759 758
f 36 758 34
f 34 758 757
f 34 757 33
f 33 757 756
f 33 756 30
f 30 756 755
f 30 755 27
f 27 755 754
f 27 754 25
f 25 754 753
f 25 753 23
f 23 753 752
f 23 752 22
f 22 752 751
f 22 751 19
f 19 751 750
f 19 750 17
f 17 750 749
f 17 749 16
f 16 749 748
f 16 748 13
f 13 748 12
f 12 748 747
f 12 747 9
f 9 747 746
f 9 746 7
f 7 746 745
f 7 745 6
f 6 745 726
f 6 726 727
f 6 727 5
f 5 727 728
f 5 728 3
f 3 728 729
f 3 729 2
f 2 729 730
f 2 730 81
f 81 730 731
f 81 731 77
f 77 731 733
f 77 733 75
f 75 733 734
f 75 734 74
f 74 734 72
f 72 734 736
f 72 736 71
f 71 736 737
f 71 737 68
f 68 737 738
f 68 738 66
f 66 738 739
f 66 739 64
f 64 739 741
f 64 741 62
f 62 741 742
f 62 742 60
f 60 742 642
f 60 642 58
f 58 642 743
f 58 743 56
f 56 743 54
f 54 743 744
f 54 744 53
f 53 744 767
f 53 767 50
f 50 767 766
f 50 766 48
f 48 766 765
f 48 765 46
f 522 524 411
f 411 524 407
f 407 524 526
f 407 526 830
f 527 658 830
f 830 658 829
f 658 530 829
f 829 530 532
f 657 656 768
f 656 655 768
f 768 655 826
f 538 540 655
f 655 540 825
f 540 541 825
f 541 544 769
f 545 770 824
f 824 770 823
f 654 550 822
f 822 550 771
f 771 550 772
f 773 555 820
f 555 556 820
f 556 652 774
f 774 652 559
f 774 559 819
f 561 562 563
f 651 775 569
f 777 776 810
f 577 648 809
f 809 648 778
f 778 648 581
f 583 585 808
f 808 585 779
f 780 589 647
f 780 647 781
f 781 647 646
f 783 645 597
f 599 600 784
f 784 600 601
f 784 601 806
f 806 644 805
f 601 644 806
f 803 608 610
f 612 613 802
f 613 788 787
f 787 788 789
f 789 788 790
f 788 618 790
f 790 618 619
f 790 619 791
f 622 625 791
f 801 625 800
f 800 625 626
f 632 634 792
f 792 634 793
f 634 636 793
f 638 640 795
f 740 641 642
f 740 794 641
f 641 794 640
f 794 795 640
f 638 795 796
f 796 793 636
f 792 797 632
f 632 797 631
f 631 797 798
f 631 798 799
f 631 799 643
f 643 799 626
f 799 800 626
f 801 791 625
f 622 791 619
f 613 787 802
f 612 802 664
f 612 664 610
f 664 803 610
f 786 608 804
f 786 804 606
f 804 785 606
f 785 804 805
f 785 805 644
f 784 704 599
f 599 704 597
f 704 783 597
f 645 783 702
f 645 702 595
f 702 807 595
f 595 807 594
f 594 807 591
f 807 782 591
f 591 782 646
f 646 782 781
f 586 589 779
f 586 779 585
f 583 808 581
f 581 808 778
f 577 809 810
f 577 810 776
f 776 777 811
f 776 811 575
f 575 811 812
f 575 812 649
f 812 813 649
f 649 813 650
f 650 813 814
f 650 814 651
f 651 814 815
f 651 815 775
f 775 815 816
f 816 566 775
f 566 816 563
f 563 816 817
f 563 817 818
f 563 818 561
f 561 818 819
f 561 819 559
f 556 774 689
f 556 689 820
f 773 821 653
f 653 821 772
f 772 821 771
f 654 822 548
f 822 823 548
f 548 823 770
f 545 824 544
f 544 824 769
f 769 825 541
f 655 825 826
f 657 768 827
f 657 827 534
f 534 827 532
f 532 827 828
f 532 828 829
f 527 830 526
f 405 407 830
f 405 830 402
f 402 830 829
f 402 829 398
f 398 829 678
f 678 829 828
f 678 828 679
f 679 828 827
f 679 827 680
f 680 827 768
f 680 768 681
f 681 768 826
f 681 826 682
f 682 826 825
f 682 825 683
f 683 825 769
f 683 769 684
f 684 769 685
f 685 769 824
f 685 824 823
f 685 823 686
f 686 823 822
f 686 822 677
f 677 822 771
f 677 771 676
f 676 771 821
f 676 821 687
f 687 821 773
f 687 773 688
f 688 773 820
f 688 820 689
f 689 774 690
f 690 774 819
f 690 819 691
f 691 819 692
f 692 819 818
f 692 818 817
f 692 817 673
f 673 817 816
f 673 816 693
f 693 816 815
f 693 815 694
f 694 815 814
f 694 814 813
f 694 813 695
f 695 813 812
f 695 812 696
f 696 812 811
f 696 811 672
f 672 811 777
f 672 777 671
f 671 777 810
f 671 810 809
f 809 778 697
f 697 778 669
f 669 778 808
f 669 808 698
f 698 808 779
f 698 779 667
f 667 779 589
f 667 589 780
f 667 780 699
f 699 780 781
f 699 781 666
f 666 781 782
f 666 782 700
f 700 782 807
f 700 807 701
f 701 807 702
f 702 783 703
f 703 783 704
f 704 784 705
f 705 784 806
f 705 806 706
f 706 806 805
f 706 805 707
f 707 805 804
f 707 804 708
f 708 804 608
f 708 608 709
f 709 608 803
f 709 803 664
f 710 664 802
f 710 802 787
f 710 787 663
f 663 787 711
f 711 787 789
f 711 789 790
f 711 790 662
f 662 790 712
f 712 790 791
f 712 791 713
f 713 791 801
f 713 801 660
f 660 801 800
f 660 800 714
f 714 800 799
f 714 799 715
f 715 799 798
f 715 798 797
f 715 797 716
f 716 797 792
f 716 792 793
f 716 793 717
f 717 793 718
f 718 793 796
f 718 796 719
f 719 796 795
f 719 795 720
f 720 795 794
f 720 794 721
f 721 794 740
f 721 740 722
f 722 740 735
f 722 735 723
f 723 735 732
f 723 732 724
f 724 732 725
f 831 385 832
f 8 834 833
f 834 8 831
f 376 374 8
f 8 374 10
f 376 8 377
f 377 8 833
f 834 384 378
f 834 378 833
f 833 378 377
f 831 832 834
f 834 832 384
f 374 373 10
f 10 373 370
f 10 370 835
f 835 370 371
f 836 11 837
f 837 11 835
f 11 368 360
f 368 11 362
f 362 11 836
f 837 369 364
f 837 364 836
f 836 364 362
f 835 371 837
f 837 371 369
f 360 358 11
f 11 358 838
f 838 358 356
f 838 356 357
f 838 357 839
f 15 14 840
f 840 14 841
f 841 14 842
f 842 14 839
f 839 14 838
f 840 348 15
f 350 840 841
f 354 353 842
f 842 353 841
f 841 353 350
f 839 357 842
f 842 357 354
f 348 346 15
f 15 346 843
f 843 346 343
f 843 343 844
f 20 18 845
f 845 18 846
f 846 18 847
f 847 18 844
f 844 18 843
f 845 334 20
f 335 845 846
f 341 340 847
f 847 340 846
f 846 340 335
f 847 844 341
f 334 332 20
f 20 332 21
f 21 332 328
f 21 328 330
f 24 21 848
f 848 21 849
f 329 320 24
f 329 24 322
f 322 24 848
f 326 325 849
f 849 325 848
f 848 325 322
f 21 330 849
f 849 330 326
f 320 319 24
f 24 319 26
f 26 319 317
f 26 317 315
f 31 26 850
f 850 26 851
f 851 26 852
f 309 307 850
f 850 307 31
f 309 850 310
f 310 850 851
f 314 312 852
f 852 312 851
f 851 312 310
f 26 315 852
f 852 315 314
f 307 303 31
f 31 303 300
f 31 300 28
f 28 300 301
f 32 29 853
f 853 29 854
f 854 29 855
f 855 29 301
f 301 29 28
f 853 293 291
f 853 291 32
f 294 293 854
f 854 293 853
f 855 298 296
f 855 296 854
f 854 296 294
f 855 301 298
f 291 289 32
f 32 289 856
f 856 289 285
f 856 285 284
f 856 284 857
f 857 284 283
f 39 35 858
f 858 35 859
f 859 35 860
f 860 35 857
f 857 35 856
f 858 274 273
f 858 273 39
f 274 858 275
f 275 858 859
f 281 280 860
f 860 280 859
f 859 280 277
f 859 277 275
f 857 283 860
f 860 283 281
f 273 272 39
f 39 272 38
f 38 272 267
f 38 267 861
f 861 267 266
f 42 40 862
f 862 40 863
f 863 40 864
f 864 40 861
f 861 40 38
f 862 259 42
f 42 259 257
f 259 862 258
f 258 862 863
f 265 262 864
f 864 262 863
f 863 262 258
f 861 266 864
f 864 266 265
f 257 256 42
f 42 256 865
f 865 256 254
f 865 254 866
f 866 254 252
f 47 44 243
f 243 44 867
f 867 44 868
f 868 44 866
f 866 44 865
f 245 242 867
f 867 242 243
f 250 249 868
f 868 249 245
f 868 245 867
f 866 252 868
f 868 252 250
f 47 85 869
f 869 85 870
f 51 49 871
f 871 49 872
f 872 49 873
f 873 49 869
f 869 49 47
f 239 97 871
f 871 97 51
f 239 871 94
f 94 871 872
f 87 91 873
f 873 91 872
f 872 91 94
f 869 870 873
f 873 870 87
f 97 98 51
f 51 98 100
f 51 100 874
f 874 100 238
f 874 238 875
f 55 52 237
f 237 52 876
f 876 52 877
f 877 52 875
f 875 52 874
f 237 110 55
f 108 237 876
f 877 102 107
f 877 107 876
f 876 107 108
f 875 238 877
f 877 238 102
f 55 110 114
f 55 114 878
f 878 114 116
f 59 57 879
f 879 57 880
f 880 57 881
f 881 57 878
f 879 124 59
f 122 879 880
f 115 117 881
f 881 117 880
f 880 117 122
f 878 116 881
f 881 116 115
f 59 124 125
f 59 125 128
f 59 128 61
f 61 128 882
f 882 128 236
f 65 63 883
f 883 63 884
f 884 63 885
f 885 63 882
f 882 63 61
f 235 138 883
f 883 138 65
f 235 883 136
f 136 883 884
f 130 132 885
f 885 132 884
f 884 132 136
f 882 236 885
f 885 236 130
f 138 140 65
f 65 140 67
f 67 140 143
f 67 143 146
f 69 67 886
f 886 67 887
f 234 151 69
f 150 234 886
f 886 234 69
f 145 147 887
f 887 147 886
f 886 147 150
f 67 146 887
f 887 146 145
f 151 153 69
f 69 153 888
f 888 153 155
f 888 155 157
f 73 70 889
f 889 70 890
f 890 70 891
f 891 70 888
f 233 164 889
f 889 164 73
f 233 889 162
f 162 889 890
f 158 160 891
f 891 160 890
f 890 160 162
f 891 888 158
f 158 888 157
f 164 166 73
f 73 166 170
f 73 170 78
f 78 170 172
f 78 172 892
f 892 172 173
f 79 76 893
f 893 76 894
f 894 76 895
f 895 76 892
f 892 76 78
f 232 182 893
f 893 182 79
f 232 893 180
f 180 893 894
f 895 174 178
f 895 178 894
f 180 894 178
f 892 173 895
f 895 173 174
f 79 182 80
f 80 182 184
f 80 184 187
f 80 187 188
f 83 80 896
f 896 80 897
f 82 83 196
f 196 83 896
f 189 191 897
f 897 191 896
f 896 191 194
f 896 194 196
f 80 188 897
f 897 188 189
f 84 198 1
f 1 198 203
f 1 203 898
f 898 203 204
f 900 899 901
f 901 899 898
f 898 899 1
f 899 231 213
f 231 899 212
f 212 899 900
f 202 206 901
f 901 206 900
f 900 206 210
f 900 210 212
f 898 204 901
f 901 204 202
f 899 213 902
f 902 213 215
f 902 215 903
f 903 215 217
f 906 905 4
f 906 4 907
f 907 4 903
f 903 4 902
f 905 230 904
f 904 230 228
f 227 230 906
f 906 230 905
f 218 223 907
f 907 223 906
f 906 223 227
f 903 217 907
f 907 217 218
f 385 904 228
