# USD → MuJoCo (world-space, simplified)
v -0.131438 7.239291 0.096820
v -0.129300 7.248401 0.098031
v -0.128285 7.247667 0.098023
v -0.128470 7.247307 0.098024
v -0.128712 7.246787 0.098025
v -0.129950 7.246819 0.098024
v -0.129265 7.245294 0.098029
v -0.130598 7.244634 0.098062
v -0.129615 7.243494 0.098034
v -0.129704 7.242281 0.098037
v -0.130809 7.241654 0.098038
v -0.129616 7.240409 0.098041
v -0.130811 7.242916 0.098067
v -0.129105 7.238242 0.098047
v -0.128508 7.236790 0.098051
v -0.129632 7.236586 0.098055
v -0.127717 7.235385 0.098054
v -0.128094 7.234026 0.098058
v -0.126189 7.233500 0.098059
v -0.127374 7.233162 0.098061
v -0.124453 7.232092 0.098063
v -0.126064 7.231860 0.098081
v -0.123050 7.231272 0.098065
v -0.124163 7.230609 0.098068
v -0.121180 7.230518 0.098067
v -0.120191 7.229076 0.098102
v -0.118792 7.230054 0.098069
v -0.117146 7.230036 0.098069
v -0.117368 7.228919 0.098072
v -0.114872 7.229132 0.098111
v -0.115555 7.230198 0.098069
v -0.114361 7.229300 0.098065
v -0.113219 7.230871 0.098067
v -0.110619 7.230935 0.098066
v -0.111067 7.232000 0.098064
v -0.109480 7.233268 0.098061
v -0.107579 7.233538 0.098084
v -0.108818 7.232373 0.098074
v -0.106887 7.234607 0.098058
v -0.108376 7.234455 0.098058
v -0.107547 7.235617 0.098055
v -0.105777 7.236350 0.098083
v -0.105134 7.238280 0.098049
v -0.106686 7.237208 0.098051
v -0.106044 7.239135 0.098046
v -0.104519 7.241071 0.098070
v -0.105762 7.240730 0.098042
v -0.104594 7.242374 0.098038
v -0.105698 7.242152 0.098039
v -0.105840 7.243957 0.098034
v -0.104612 7.243679 0.098072
v -0.104967 7.245322 0.098024
v -0.106410 7.246112 0.098029
v -0.107078 7.247601 0.098025
v -0.105765 7.247446 0.098027
v -0.107697 7.248643 0.098022
v -0.107309 7.250002 0.098019
v -0.108543 7.249774 0.098019
v -0.108038 7.251062 0.098025
v -0.110121 7.251344 0.098015
v -0.111234 7.253436 0.098052
v -0.112165 7.252667 0.098011
v -0.115187 7.254932 0.098023
v -0.114224 7.253510 0.098009
v -0.116613 7.253974 0.098008
v -0.119144 7.255073 0.098002
v -0.118454 7.253984 0.098008
v -0.120442 7.253715 0.098008
v -0.123105 7.253996 0.098004
v -0.122559 7.252987 0.098010
v -0.123289 7.253927 0.098040
v -0.124335 7.252029 0.098012
v -0.124781 7.253093 0.098017
v -0.125776 7.250890 0.098015
v -0.126556 7.251673 0.098017
v -0.126765 7.249886 0.098017
v -0.127745 7.248592 0.098021
v -0.128516 7.249423 0.098018
v -0.129885 7.248892 0.093301
v -0.129070 7.248505 0.093309
v -0.129957 7.248773 0.096795
v -0.104121 7.245411 0.096805
v -0.104157 7.245544 0.093321
v -0.104153 7.245505 0.079181
v -0.104271 7.245804 0.035828
v -0.104570 7.246838 0.079178
v -0.104308 7.245893 0.023323
v -0.104270 7.245777 0.026400
v -0.104581 7.246707 0.023320
v -0.104919 7.247520 0.023319
v -0.104958 7.247757 0.079176
v -0.104973 7.247648 0.026399
v -0.104974 7.247675 0.035823
v -0.105022 7.247942 0.096799
v -0.105412 7.248720 0.096798
v -0.105422 7.248580 0.035821
v -0.105837 7.249437 0.096795
v -0.105969 7.249476 0.035818
v -0.105915 7.249512 0.079171
v -0.106437 7.250154 0.035817
v -0.106517 7.250221 0.023312
v -0.106439 7.250125 0.026390
v -0.107039 7.250879 0.023309
v -0.106614 7.250523 0.079168
v -0.107375 7.251407 0.079166
v -0.107477 7.251566 0.096789
v -0.107773 7.251873 0.096789
v -0.107648 7.251541 0.023309
v -0.107740 7.251643 0.026388
v -0.107741 7.251670 0.035813
v -0.108299 7.252210 0.035811
v -0.108701 7.252739 0.096794
v -0.108828 7.252781 0.079162
v -0.108829 7.252821 0.093298
v -0.109458 7.253273 0.079161
v -0.109284 7.253021 0.035809
v -0.109966 7.253498 0.035808
v -0.109965 7.253470 0.026383
v -0.110073 7.253539 0.023305
v -0.110288 7.253825 0.079160
v -0.110802 7.254133 0.079159
v -0.110818 7.253983 0.023302
v -0.110933 7.254256 0.096782
v -0.111585 7.254389 0.023302
v -0.111503 7.254554 0.096783
v -0.111707 7.254452 0.026381
v -0.111708 7.254479 0.035805
v -0.112079 7.254821 0.096781
v -0.112273 7.254729 0.035805
v -0.112609 7.254990 0.079156
v -0.113570 7.255333 0.079155
v -0.113408 7.255159 0.035803
v -0.114424 7.255436 0.035803
v -0.114551 7.255430 0.023298
v -0.114423 7.255409 0.026378
v -0.114904 7.255669 0.079155
v -0.114976 7.255521 0.023298
v -0.115052 7.255746 0.096778
v -0.115584 7.255629 0.023297
v -0.115878 7.255883 0.096780
v -0.116266 7.255714 0.023297
v -0.116396 7.255736 0.026377
v -0.116397 7.255763 0.035802
v -0.116808 7.255795 0.035801
v -0.116742 7.255966 0.096777
v -0.116888 7.255924 0.079154
v -0.116889 7.255965 0.093290
v -0.117933 7.255953 0.079154
v -0.117792 7.255830 0.035801
v -0.119277 7.255739 0.035801
v -0.119281 7.255861 0.079154
v -0.119406 7.255682 0.023297
v -0.119430 7.255892 0.096777
v -0.120275 7.255764 0.096781
v -0.120265 7.255555 0.023297
v -0.121105 7.255579 0.096778
v -0.121115 7.255363 0.023298
v -0.121248 7.255532 0.093291
v -0.121247 7.255492 0.079155
v -0.121243 7.255367 0.035802
v -0.122348 7.255167 0.079155
v -0.122469 7.254998 0.035803
v -0.123502 7.254690 0.079156
v -0.123568 7.254534 0.035804
v -0.123638 7.254679 0.096780
v -0.123940 7.254355 0.035805
v -0.124022 7.254492 0.096781
v -0.124056 7.254261 0.023301
v -0.121243 7.255340 0.026378
v -0.123939 7.254328 0.026381
v -0.124809 7.253851 0.023298
v -0.125132 7.253881 0.096788
v -0.125260 7.253775 0.093295
v -0.125260 7.253736 0.079159
v -0.125553 7.253377 0.023303
v -0.125661 7.253312 0.026383
v -0.125662 7.253339 0.035807
v -0.126378 7.252946 0.079161
v -0.126510 7.252713 0.035809
v -0.127156 7.252276 0.079162
v -0.127157 7.252316 0.093297
v -0.127413 7.251904 0.035811
v -0.127273 7.252226 0.096784
v -0.127849 7.251467 0.035812
v -0.127848 7.251440 0.026387
v -0.128029 7.251456 0.096789
v -0.127950 7.251337 0.023298
v -0.128437 7.250989 0.096789
v -0.128532 7.250865 0.093303
v -0.128530 7.250824 0.079166
v -0.128899 7.250352 0.079167
v -0.129119 7.249923 0.035816
v -0.129045 7.249998 0.023313
v -0.129473 7.249537 0.079169
v -0.129581 7.249237 0.035817
v -0.129884 7.248851 0.079171
v -0.130205 7.248128 0.035820
v -0.130335 7.248049 0.096798
v -0.130534 7.247416 0.035822
v -0.130585 7.247261 0.023318
v -0.130533 7.247389 0.026397
v -0.130742 7.247046 0.079175
v -0.130743 7.247087 0.093316
v -0.130905 7.246450 0.023319
v -0.131163 7.245622 0.023322
v -0.131067 7.246145 0.079178
v -0.131198 7.245505 0.026402
v -0.131203 7.245533 0.035827
v -0.131421 7.244753 0.079181
v -0.131438 7.244524 0.035829
v -0.131587 7.243837 0.096809
v -0.131603 7.243490 0.035832
v -0.131671 7.242693 0.035834
v -0.131669 7.242970 0.096809
v -0.131678 7.242812 0.093323
v -0.131677 7.242771 0.079186
v -0.131677 7.242527 0.023330
v -0.131670 7.242666 0.026414
v -0.131707 7.241789 0.079189
v -0.131699 7.241648 0.023330
v -0.131651 7.240777 0.079191
v -0.131659 7.240789 0.023334
v -0.131650 7.240695 0.035839
v -0.130710 7.240728 0.021728
v -0.131611 7.240380 0.079192
v -0.131597 7.240283 0.096816
v -0.131528 7.239611 0.035842
v -0.131612 7.240421 0.093328
v -0.131449 7.244658 0.096805
v -0.131420 7.244793 0.093318
v -0.130689 7.247235 0.096799
v -0.123504 7.254731 0.093292
v -0.119282 7.255899 0.093290
v -0.114906 7.255707 0.093292
v -0.112950 7.254316 0.093290
v -0.112472 7.254986 0.096780
v -0.110803 7.254173 0.093295
v -0.107376 7.251448 0.093296
v -0.105916 7.249553 0.093304
v -0.104960 7.247797 0.093312
v -0.103808 7.243737 0.096810
v -0.103933 7.244579 0.096809
v -0.103790 7.243580 0.093323
v -0.104677 7.243414 0.093323
v -0.103994 7.244749 0.035831
v -0.103798 7.243513 0.035834
v -0.103787 7.243539 0.079186
v -0.103742 7.242975 0.035835
v -0.103693 7.242148 0.079190
v -0.103731 7.242809 0.023331
v -0.103691 7.241951 0.023332
v -0.103723 7.241149 0.079193
v -0.103721 7.240950 0.026416
v -0.103724 7.241189 0.093329
v -0.103719 7.240977 0.035840
v -0.103730 7.241050 0.096816
v -0.103902 7.239370 0.035844
v -0.103939 7.239382 0.096826
v -0.103979 7.239167 0.079198
v -0.103982 7.239208 0.093328
v -0.104331 7.237780 0.079201
v -0.104194 7.238138 0.035848
v -0.104219 7.237967 0.023335
v -0.104658 7.236873 0.079203
v -0.104659 7.236914 0.093340
v -0.104714 7.236786 0.096827
v -0.104800 7.236341 0.023349
v -0.104859 7.236254 0.035852
v -0.104858 7.236227 0.026430
v -0.105067 7.235974 0.096831
v -0.105188 7.235542 0.035854
v -0.105446 7.235249 0.096831
v -0.105518 7.235109 0.093341
v -0.105517 7.235068 0.079208
v -0.105817 7.234425 0.035857
v -0.105927 7.234383 0.079210
v -0.106273 7.233747 0.035859
v -0.106346 7.233600 0.023357
v -0.106501 7.233567 0.079212
v -0.106870 7.233096 0.079213
v -0.107409 7.232298 0.023350
v -0.106871 7.233136 0.093350
v -0.106964 7.233028 0.096836
v -0.107532 7.232396 0.096838
v -0.107543 7.232176 0.026443
v -0.107543 7.232203 0.035863
v -0.108130 7.231795 0.096838
v -0.107980 7.231766 0.035864
v -0.108245 7.231685 0.093354
v -0.108244 7.231644 0.079217
v -0.108892 7.230950 0.035866
v -0.109019 7.230976 0.079218
v -0.109731 7.230332 0.035867
v -0.110140 7.230184 0.079220
v -0.109838 7.230222 0.023363
v -0.110143 7.230227 0.093357
v -0.110583 7.229747 0.023361
v -0.110271 7.230141 0.096850
v -0.111335 7.229338 0.023365
v -0.111452 7.229288 0.026445
v -0.111759 7.229341 0.096846
v -0.111452 7.229313 0.035870
v -0.111899 7.229270 0.093361
v -0.111898 7.229230 0.079222
v -0.112918 7.228674 0.035871
v -0.113057 7.228751 0.079224
v -0.114149 7.228303 0.035872
v -0.114153 7.228428 0.079224
v -0.114154 7.228469 0.093361
v -0.114275 7.228235 0.023368
v -0.114298 7.228442 0.096848
v -0.115126 7.228043 0.023368
v -0.115128 7.228258 0.096851
v -0.115973 7.228129 0.096849
v -0.115984 7.227916 0.023369
v -0.116119 7.228061 0.079225
v -0.116115 7.227937 0.035873
v -0.117388 7.227839 0.035873
v -0.117257 7.227968 0.079225
v -0.118512 7.227995 0.079225
v -0.118585 7.227875 0.035873
v -0.118661 7.228055 0.096849
v -0.116120 7.228102 0.093362
v -0.118411 7.228822 0.093358
v -0.118996 7.227908 0.035873
v -0.119512 7.228137 0.096851
v -0.119125 7.227884 0.023368
v -0.119966 7.227993 0.023365
v -0.120351 7.228275 0.096848
v -0.120496 7.228294 0.093361
v -0.120496 7.228251 0.079224
v -0.120840 7.228168 0.023368
v -0.120969 7.228235 0.035872
v -0.120968 7.228208 0.026447
v -0.121982 7.228511 0.035871
v -0.121824 7.228585 0.079223
v -0.122791 7.228930 0.079222
v -0.122793 7.228970 0.093359
v -0.123120 7.228941 0.035870
v -0.122934 7.229032 0.096845
v -0.123685 7.229191 0.035869
v -0.123905 7.229469 0.096846
v -0.123684 7.229164 0.026447
v -0.123806 7.229209 0.023366
v -0.124470 7.229766 0.096844
v -0.124599 7.229828 0.093357
v -0.124598 7.229787 0.079220
v -0.124768 7.229725 0.023363
v -0.125112 7.230095 0.079219
v -0.125427 7.230173 0.035866
v -0.125317 7.230065 0.023362
v -0.126099 7.230641 0.035865
v -0.125942 7.230648 0.079218
v -0.126572 7.231139 0.079216
v -0.126745 7.231161 0.035864
v -0.126574 7.231180 0.093353
v -0.126688 7.231285 0.096840
v -0.127299 7.231821 0.096840
v -0.127657 7.231992 0.035862
v -0.127926 7.232455 0.096837
v -0.127743 7.232058 0.023357
v -0.128025 7.232513 0.079213
v -0.128346 7.232714 0.023354
v -0.128531 7.233090 0.079211
v -0.128874 7.233377 0.023354
v -0.128956 7.233517 0.035858
v -0.128953 7.233491 0.026436
v -0.128026 7.232553 0.093350
v -0.129493 7.234401 0.079208
v -0.129424 7.234194 0.035856
v -0.129486 7.234449 0.093344
v -0.129969 7.235086 0.035853
v -0.129566 7.234584 0.096831
v -0.129990 7.235300 0.096831
v -0.130381 7.236079 0.096827
v -0.130419 7.235995 0.035851
v -0.130443 7.236204 0.093342
v -0.130442 7.236163 0.079203
v -0.130831 7.237084 0.079201
v -0.130472 7.236079 0.023347
v -0.130810 7.236890 0.023343
v -0.131083 7.237705 0.023342
v -0.131122 7.237866 0.035846
v -0.131121 7.237839 0.026422
v -0.131247 7.238415 0.079197
v -0.131282 7.238610 0.096821
v -0.131245 7.238457 0.093334
v -0.131264 7.238388 0.035845
v -0.130418 7.235969 0.026426
v -0.127652 7.231973 0.026436
v -0.125426 7.230146 0.026444
v -0.118995 7.227880 0.026448
v -0.116228 7.228857 0.021751
v -0.114389 7.229200 0.021758
v -0.109730 7.230305 0.026443
v -0.106273 7.233720 0.026435
v -0.104193 7.238111 0.026423
v -0.103741 7.242949 0.026414
v -0.105210 7.245452 0.035829
v -0.104681 7.242998 0.035835
v -0.104744 7.242938 0.026409
v -0.104898 7.244184 0.021695
v -0.105260 7.245606 0.021690
v -0.105209 7.245425 0.026402
v -0.129035 7.248183 0.021683
v -0.129964 7.246116 0.021682
v -0.128359 7.243066 0.021696
v -0.130532 7.243953 0.021694
v -0.128024 7.238369 0.021732
v -0.130228 7.238000 0.021719
v -0.127035 7.247264 0.021686
v -0.127162 7.250715 0.021677
v -0.126164 7.251673 0.021675
v -0.122243 7.253981 0.021669
v -0.122312 7.251672 0.021675
v -0.119166 7.254751 0.021679
v -0.117826 7.254801 0.021667
v -0.116358 7.254728 0.021665
v -0.114782 7.254453 0.021668
v -0.115173 7.253064 0.021696
v -0.113369 7.254062 0.021669
v -0.108327 7.250923 0.021688
v -0.107675 7.247585 0.021686
v -0.106472 7.248384 0.021685
v -0.105825 7.247101 0.021687
v -0.105957 7.241501 0.021702
v -0.104684 7.241925 0.021694
v -0.104852 7.239666 0.021707
v -0.108907 7.233964 0.021721
v -0.105748 7.236482 0.021720
v -0.108164 7.232828 0.021736
v -0.110299 7.231096 0.021730
v -0.111776 7.230131 0.021737
v -0.115370 7.230380 0.021730
v -0.117598 7.228789 0.021734
v -0.119030 7.228872 0.021732
v -0.120671 7.229053 0.021746
v -0.123266 7.230053 0.021742
v -0.122966 7.231269 0.021727
v -0.125962 7.231747 0.021726
v -0.127030 7.232754 0.021723
v -0.128082 7.233958 0.021717
v -0.127590 7.235852 0.021715
v -0.128903 7.235178 0.021717
v -0.129564 7.236489 0.021712
v -0.128351 7.249336 0.021717
v -0.128345 7.249287 0.035817
v -0.129032 7.248223 0.035820
v -0.129588 7.247084 0.035823
v -0.129588 7.247056 0.026402
v -0.130253 7.245172 0.026398
v -0.130253 7.245199 0.035828
v -0.130668 7.242703 0.035834
v -0.130540 7.243937 0.035831
v -0.130679 7.242548 0.021700
v -0.130192 7.238250 0.035794
v -0.130714 7.240669 0.035839
v -0.128195 7.234167 0.035856
v -0.129503 7.236298 0.035843
v -0.128191 7.234143 0.026432
v -0.126890 7.232625 0.026435
v -0.124951 7.231023 0.035864
v -0.126900 7.232642 0.035860
v -0.124769 7.230889 0.021726
v -0.124934 7.231019 0.026439
v -0.120805 7.229223 0.035869
v -0.123195 7.229989 0.035867
v -0.120804 7.229196 0.026445
v -0.118831 7.228869 0.026446
v -0.118831 7.228896 0.035870
v -0.116303 7.228851 0.035870
v -0.111988 7.230153 0.035856
v -0.114323 7.229262 0.035870
v -0.110241 7.231194 0.035865
v -0.108334 7.232741 0.035849
v -0.107089 7.234274 0.021732
v -0.107048 7.234384 0.035857
v -0.105804 7.236587 0.035851
v -0.106346 7.235472 0.035854
v -0.105804 7.236560 0.026429
v -0.105146 7.238349 0.021712
v -0.104725 7.240967 0.035840
v -0.105068 7.238481 0.035847
v -0.104724 7.240940 0.026405
v -0.103714 7.241072 0.023336
v -0.124985 7.252550 0.021673
v -0.125151 7.252449 0.026385
v -0.125152 7.252476 0.035809
v -0.127116 7.250886 0.035813
v -0.123429 7.253466 0.026381
v -0.123617 7.253376 0.021669
v -0.120864 7.254392 0.021668
v -0.121058 7.254355 0.026380
v -0.121106 7.254441 0.035805
v -0.123430 7.253493 0.035807
v -0.116561 7.254747 0.026380
v -0.116561 7.254775 0.035804
v -0.119089 7.254817 0.035804
v -0.114587 7.254420 0.026381
v -0.112125 7.253536 0.021683
v -0.112200 7.253606 0.035807
v -0.113371 7.254098 0.035806
v -0.114588 7.254447 0.035805
v -0.110550 7.252652 0.021677
v -0.108526 7.251041 0.035719
v -0.110411 7.252676 0.035810
v -0.107200 7.249474 0.026394
v -0.107315 7.249625 0.021680
v -0.105912 7.247296 0.026404
v -0.105913 7.247323 0.035824
v -0.106505 7.248473 0.035821
v -0.107201 7.249501 0.035818
v -0.126900 7.234856 0.021923
v -0.122934 7.231355 0.022143
v -0.117427 7.230248 0.022360
v -0.113152 7.231159 0.022536
v -0.108905 7.234228 0.022726
v -0.106343 7.244209 0.023118
v -0.111158 7.251376 0.021677
v -0.112518 7.252135 0.023505
v -0.116766 7.253330 0.023667
v -0.118398 7.253290 0.021846
v -0.122875 7.252162 0.022037
v -0.126310 7.249524 0.024091
v -0.126535 7.249210 0.022219
v -0.128364 7.246198 0.022368
v -0.129097 7.243515 0.022488
v -0.129242 7.242142 0.024433
v -0.128964 7.238774 0.022679
v -0.128333 7.237164 0.024634
v -0.125598 7.233390 0.024835
v -0.123029 7.231589 0.023074
v -0.123115 7.231648 0.024959
v -0.120894 7.230742 0.025050
v -0.117877 7.230279 0.023283
v -0.118820 7.230358 0.025131
v -0.114665 7.230600 0.025300
v -0.109905 7.233103 0.023612
v -0.110246 7.232975 0.025491
v -0.107255 7.236754 0.025665
v -0.106879 7.237712 0.023819
v -0.106234 7.240581 0.025817
v -0.106419 7.244359 0.024063
v -0.106823 7.246238 0.026016
v -0.108448 7.248879 0.024246
v -0.113418 7.252588 0.024483
v -0.117764 7.253475 0.026532
v -0.117640 7.253311 0.024643
v -0.123619 7.251826 0.026784
v -0.126517 7.249388 0.025040
v -0.127018 7.248635 0.026964
v -0.128979 7.244372 0.025279
v -0.128915 7.244736 0.027150
v -0.129168 7.240397 0.025444
v -0.129134 7.240357 0.027332
v -0.128638 7.238251 0.027417
v -0.128381 7.237534 0.025562
v -0.126981 7.234890 0.025688
v -0.125868 7.233565 0.027648
v -0.123191 7.231554 0.025899
v -0.120574 7.230486 0.027892
v -0.116541 7.230196 0.026163
v -0.107738 7.235869 0.026566
v -0.114127 7.230761 0.028150
v -0.109132 7.234025 0.028369
v -0.107401 7.236651 0.028486
v -0.106070 7.241438 0.028676
v -0.106229 7.243450 0.026862
v -0.107185 7.246766 0.028866
v -0.108273 7.248633 0.027061
v -0.115540 7.253260 0.029273
v -0.119963 7.253274 0.027563
v -0.120079 7.253090 0.029457
v -0.125500 7.250426 0.027814
v -0.123681 7.251739 0.029615
v -0.126696 7.249038 0.029771
v -0.128031 7.246974 0.027986
v -0.128760 7.245319 0.029952
v -0.129219 7.242876 0.028171
v -0.128990 7.239069 0.030209
v -0.126492 7.234311 0.030434
v -0.121965 7.231005 0.030666
v -0.115107 7.230530 0.029051
v -0.111714 7.231964 0.029193
v -0.108411 7.234853 0.029348
v -0.107268 7.236885 0.031324
v -0.106025 7.242019 0.031526
v -0.108828 7.249289 0.031809
v -0.110885 7.251131 0.030028
v -0.111905 7.251785 0.031960
v -0.116860 7.253468 0.032151
v -0.114873 7.253049 0.030189
v -0.120429 7.253078 0.030411
v -0.123845 7.251732 0.032449
v -0.126451 7.249678 0.030685
v -0.127987 7.247231 0.032690
v -0.128974 7.244246 0.030940
v -0.129184 7.240377 0.031101
v -0.128323 7.237082 0.033120
v -0.128004 7.236564 0.031260
v -0.125064 7.232913 0.033348
v -0.115853 7.230300 0.031846
v -0.119748 7.230296 0.033576
v -0.113419 7.231068 0.033834
v -0.111190 7.232306 0.032043
v -0.109922 7.233287 0.033983
v -0.106875 7.237590 0.034181
v -0.106737 7.238001 0.032312
v -0.106144 7.242241 0.034360
v -0.106180 7.242118 0.032469
v -0.106542 7.244747 0.032559
v -0.107593 7.247716 0.034559
v -0.112932 7.252329 0.034830
v -0.120737 7.253016 0.033252
v -0.119137 7.253340 0.035071
v -0.125639 7.250178 0.033483
v -0.125906 7.250064 0.035373
v -0.128331 7.246264 0.035562
v -0.127970 7.247104 0.033635
v -0.129166 7.243171 0.035701
v -0.128697 7.237907 0.035859
v -0.125780 7.233610 0.035858
v -0.122074 7.231077 0.035864
v -0.122420 7.231310 0.034411
v -0.116157 7.230327 0.035866
v -0.109981 7.233142 0.034920
v -0.111495 7.232108 0.035863
v -0.108481 7.234810 0.035856
v -0.106037 7.240655 0.035841
v -0.106701 7.238054 0.035141
v -0.106215 7.243323 0.035338
v -0.107540 7.247512 0.035823
v -0.107446 7.247131 0.035478
v -0.110660 7.251089 0.035719
v -0.113661 7.231043 0.034766
v -0.117984 7.230229 0.034587
v -0.128798 7.238784 0.033988
v -0.129250 7.242902 0.033825
v -0.116074 7.253251 0.033062
v -0.108429 7.248925 0.032727
v -0.108782 7.234508 0.032158
v -0.121636 7.230938 0.031618
v -0.107037 7.246666 0.029800
v -0.106214 7.240077 0.029567
v -0.121662 7.230825 0.028788
v -0.126429 7.234200 0.028554
v -0.128671 7.238169 0.028362
v -0.113318 7.252609 0.027307
v -0.114391 7.230751 0.023426
v -0.120704 7.230694 0.023171
v -0.126075 7.233788 0.022922
v -0.128313 7.243333 0.035689
v -0.115486 7.253115 0.034928
v -0.110703 7.250969 0.034733
v -0.114145 7.252089 0.034870
v -0.112766 7.232255 0.033878
v -0.120977 7.231589 0.033518
v -0.129273 7.242114 0.032917
v -0.128422 7.242703 0.033373
v -0.110396 7.249816 0.031869
v -0.106967 7.245956 0.031668
v -0.110101 7.233005 0.031146
v -0.110979 7.233376 0.031131
v -0.114965 7.230598 0.030943
v -0.110542 7.250918 0.029073
v -0.121415 7.231532 0.027848
v -0.127937 7.236546 0.027494
v -0.126467 7.235522 0.027566
v -0.122135 7.251585 0.026734
v -0.111216 7.251453 0.026279
v -0.107632 7.246123 0.026024
v -0.128471 7.245986 0.024264
v -0.122081 7.251781 0.023902
v -0.121853 7.252656 0.023878
v -0.115549 7.252406 0.023615
v -0.111595 7.250622 0.023448
v -0.108637 7.249012 0.023314
v -0.106432 7.239056 0.022933
v -0.125524 7.234441 0.021976
v -0.122706 7.232291 0.022134
v -0.118424 7.231023 0.022315
v -0.113137 7.231995 0.022549
v -0.109518 7.234821 0.022726
v -0.107198 7.239087 0.022924
v -0.108256 7.247194 0.023247
v -0.126477 7.248029 0.024144
v -0.128423 7.243340 0.024380
v -0.127443 7.237040 0.024655
v -0.120367 7.231293 0.025062
v -0.124430 7.233454 0.024869
v -0.114594 7.231462 0.025312
v -0.109779 7.234405 0.025535
v -0.107146 7.239444 0.025767
v -0.111371 7.250487 0.026263
v -0.116589 7.252684 0.026485
v -0.126060 7.248721 0.026936
v -0.128338 7.243536 0.027684
v -0.128121 7.239079 0.027870
v -0.114719 7.231422 0.028131
v -0.108905 7.235250 0.028408
v -0.107735 7.245944 0.028847
v -0.110155 7.249485 0.029025
v -0.113781 7.251859 0.029200
v -0.118987 7.252560 0.029416
v -0.123291 7.250971 0.030040
v -0.125960 7.248708 0.030239
v -0.128273 7.244309 0.029990
v -0.127703 7.237527 0.030287
v -0.124339 7.233372 0.030531
v -0.118085 7.230338 0.030816
v -0.116830 7.230937 0.030866
v -0.107583 7.237882 0.031355
v -0.107439 7.245214 0.031643
v -0.116457 7.252670 0.032135
v -0.122019 7.251662 0.032384
v -0.126708 7.248054 0.032630
v -0.127774 7.237936 0.033096
v -0.124876 7.233771 0.033329
v -0.116935 7.231097 0.033690
v -0.109862 7.234501 0.034016
v -0.107590 7.238035 0.034187
v -0.106954 7.242480 0.034370
v -0.108653 7.247923 0.034589
v -0.122705 7.252154 0.035228
v -0.125090 7.249679 0.035364
v -0.127491 7.246264 0.035548
v -0.129607 7.240232 0.035840
v -0.129700 7.242001 0.035836
v -0.129622 7.243214 0.035833
v -0.128498 7.241609 0.035815
v -0.129457 7.244227 0.035830
v -0.127485 7.246297 0.035825
v -0.129054 7.245768 0.035826
v -0.128464 7.247128 0.035823
v -0.128279 7.247488 0.035822
v -0.127803 7.248316 0.035820
v -0.126578 7.249928 0.035816
v -0.125232 7.251172 0.035813
v -0.124142 7.250591 0.035814
v -0.124088 7.251993 0.035811
v -0.122660 7.252760 0.035809
v -0.121775 7.251807 0.035633
v -0.120754 7.253450 0.035807
v -0.118754 7.253787 0.035806
v -0.116734 7.253806 0.035807
v -0.114532 7.253415 0.035808
v -0.113001 7.252874 0.035809
v -0.111903 7.252340 0.035811
v -0.110214 7.251244 0.035814
v -0.108614 7.249685 0.035818
v -0.107751 7.248553 0.035821
v -0.129103 7.238062 0.035846
v -0.128458 7.236519 0.035850
v -0.127644 7.235106 0.035854
v -0.126093 7.233231 0.035859
v -0.124355 7.231850 0.035862
v -0.122579 7.230861 0.035865
v -0.120660 7.230208 0.035867
v -0.118659 7.229864 0.035868
v -0.116436 7.229898 0.035868
v -0.114849 7.230184 0.035867
v -0.113102 7.230738 0.035866
v -0.110959 7.231890 0.035863
v -0.109392 7.233168 0.035860
v -0.108298 7.234366 0.035857
v -0.107487 7.235525 0.035854
v -0.106808 7.236774 0.035851
v -0.106099 7.238678 0.035846
v -0.105745 7.240664 0.035841
v -0.105694 7.242074 0.035837
v -0.105885 7.244105 0.035832
v -0.106524 7.246235 0.035827
v -0.107120 7.247509 0.035823
v -0.118356 7.252661 0.021729
v -0.124262 7.250365 0.022124
v -0.127518 7.246302 0.022349
v -0.109163 7.234931 0.023679
v -0.106185 7.241216 0.023955
v -0.107005 7.240579 0.023927
v -0.121309 7.252138 0.024806
v -0.121938 7.252627 0.024822
v -0.121672 7.231729 0.025949
v -0.110897 7.232443 0.026398
v -0.106371 7.239652 0.026723
v -0.125831 7.234736 0.028549
v -0.115925 7.231153 0.029022
v -0.110136 7.233957 0.029282
v -0.106943 7.241691 0.029225
v -0.107567 7.245728 0.029778
v -0.128256 7.239985 0.031122
v -0.126315 7.235035 0.031354
v -0.112931 7.252340 0.032945
v -0.114248 7.251995 0.032987
v -0.126420 7.248400 0.033553
v -0.126271 7.233987 0.034220
v -0.107147 7.239919 0.035208
v -0.115163 7.252482 0.035821
v -0.109660 7.249036 0.035591
v -0.107609 7.245510 0.035424
v -0.106987 7.242558 0.035313
v -0.108398 7.236336 0.035050
v -0.111569 7.232995 0.034872
v -0.115032 7.231424 0.034714
v -0.119227 7.231163 0.034532
v -0.123762 7.232907 0.034332
v -0.128049 7.238824 0.033997
v -0.118413 7.252591 0.033159
v -0.109312 7.248884 0.032748
v -0.107109 7.243623 0.032525
v -0.107154 7.239465 0.032363
v -0.108960 7.235574 0.032185
v -0.111883 7.232746 0.032030
v -0.117351 7.230959 0.031783
v -0.125499 7.233357 0.031434
v -0.128300 7.244072 0.030941
v -0.119345 7.252565 0.030372
v -0.112117 7.251222 0.030073
v -0.107532 7.238373 0.029488
v -0.121543 7.231700 0.028782
v -0.126373 7.248349 0.027898
v -0.120530 7.252353 0.027599
v -0.113463 7.251812 0.027302
v -0.108123 7.247082 0.027008
v -0.106948 7.241551 0.026793
v -0.107532 7.238365 0.026661
v -0.110398 7.233643 0.026440
v -0.116322 7.231118 0.026175
v -0.126001 7.234930 0.025712
v -0.128272 7.239684 0.025477
v -0.128109 7.244678 0.025257
v -0.126036 7.248584 0.025054
v -0.114869 7.252204 0.024529
v -0.109749 7.249249 0.024291
v -0.107204 7.244211 0.023701
v -0.114471 7.231525 0.023430
v -0.118909 7.231100 0.023235
v -0.123028 7.232451 0.023059
v -0.125662 7.234621 0.022906
v -0.128416 7.239444 0.022659
v -0.130520 7.238813 0.098069
v -0.130423 7.238679 0.098040
v -0.129649 7.236594 0.079202
v -0.130402 7.238565 0.079197
v -0.128898 7.235013 0.098077
v -0.128694 7.234880 0.093343
v -0.127408 7.233164 0.079211
v -0.128715 7.234824 0.079207
v -0.124227 7.230580 0.079218
v -0.125955 7.231791 0.079215
v -0.122523 7.229781 0.098104
v -0.120379 7.229147 0.098068
v -0.120379 7.229148 0.079222
v -0.122417 7.229700 0.079220
v -0.118604 7.228917 0.098103
v -0.116286 7.228989 0.093359
v -0.118393 7.228841 0.079223
v -0.116285 7.228948 0.079223
v -0.112243 7.230050 0.098102
v -0.112327 7.230017 0.079220
v -0.114311 7.229289 0.079222
v -0.108900 7.232264 0.079215
v -0.110545 7.230941 0.079218
v -0.107526 7.233756 0.093349
v -0.106333 7.235496 0.093346
v -0.106332 7.235456 0.079207
v -0.107487 7.233690 0.079211
v -0.105474 7.237301 0.093338
v -0.104838 7.239534 0.098046
v -0.104877 7.239325 0.093334
v -0.104834 7.239264 0.079197
v -0.105473 7.237260 0.079202
v -0.104619 7.241306 0.093329
v -0.104631 7.243375 0.079187
v -0.104618 7.241265 0.079192
v -0.105751 7.247326 0.079177
v -0.105000 7.245354 0.079182
v -0.106505 7.249015 0.098043
v -0.106709 7.249121 0.093309
v -0.107996 7.250793 0.093303
v -0.107992 7.250756 0.079168
v -0.106685 7.249096 0.079172
v -0.109344 7.252164 0.098012
v -0.111158 7.253353 0.079161
v -0.109448 7.252126 0.079164
v -0.112792 7.254192 0.098039
v -0.114986 7.254765 0.079310
v -0.112983 7.254220 0.079158
v -0.116908 7.255088 0.098017
v -0.119323 7.255031 0.098032
v -0.119118 7.255000 0.079156
v -0.117004 7.255035 0.079156
v -0.121031 7.254735 0.098039
v -0.123079 7.253943 0.079158
v -0.121081 7.254605 0.079157
v -0.126503 7.251659 0.079164
v -0.124842 7.252965 0.079161
v -0.127825 7.250490 0.098039
v -0.127876 7.250245 0.093305
v -0.129090 7.248481 0.079172
v -0.127878 7.250208 0.079168
v -0.130550 7.244645 0.079182
v -0.129931 7.246662 0.079176
v -0.130783 7.242695 0.093326
v -0.130722 7.240396 0.098071
v -0.130725 7.240587 0.093329
v -0.130724 7.240546 0.079192
v -0.130828 7.242653 0.079187
f 386 840 1
f 2 3 77
f 3 2 4
f 4 2 5
f 5 2 6
f 6 7 5
f 7 6 8
f 7 8 9
f 9 8 13
f 9 13 10
f 10 13 11
f 10 11 12
f 12 11 904
f 12 904 840
f 12 840 14
f 14 840 841
f 14 841 15
f 15 841 16
f 15 16 844
f 15 844 17
f 18 17 844
f 17 18 19
f 19 18 20
f 19 20 22
f 19 22 21
f 21 22 23
f 23 22 24
f 23 24 850
f 23 850 25
f 25 850 851
f 25 851 26
f 25 26 27
f 27 26 854
f 27 854 29
f 27 29 28
f 28 29 31
f 31 29 30
f 32 31 30
f 31 32 33
f 33 32 858
f 33 858 35
f 35 858 34
f 35 34 36
f 36 34 38
f 36 38 37
f 36 37 40
f 40 37 39
f 40 39 41
f 41 39 42
f 41 42 44
f 43 44 42
f 44 43 45
f 45 43 868
f 45 868 47
f 47 868 46
f 47 46 48
f 47 48 49
f 49 48 50
f 50 48 51
f 51 52 50
f 50 52 53
f 53 52 55
f 53 55 54
f 54 55 877
f 57 56 877
f 877 56 54
f 56 57 58
f 58 57 59
f 58 59 60
f 60 59 882
f 60 882 62
f 62 882 61
f 62 61 885
f 62 885 64
f 64 885 63
f 64 63 65
f 65 63 888
f 65 888 66
f 65 66 67
f 67 66 889
f 67 889 68
f 68 889 892
f 69 68 892
f 68 69 70
f 70 69 71
f 70 71 72
f 72 71 73
f 72 73 74
f 74 73 75
f 74 75 897
f 74 897 76
f 76 897 78
f 76 78 77
f 77 78 2
f 80 79 81
f 80 81 2
f 245 82 242
f 82 245 84
f 82 84 83
f 84 245 85
f 84 85 86
f 86 85 87
f 86 87 89
f 85 88 87
f 86 89 90
f 86 90 91
f 92 93 90
f 90 93 91
f 96 94 93
f 94 96 95
f 95 96 97
f 97 96 98
f 97 98 99
f 99 98 104
f 104 98 100
f 104 100 101
f 104 101 103
f 100 102 101
f 104 103 105
f 105 103 108
f 105 108 106
f 106 108 107
f 109 110 108
f 108 110 107
f 110 111 107
f 107 111 112
f 112 111 113
f 112 113 114
f 111 116 113
f 113 116 115
f 115 116 117
f 115 117 120
f 120 117 119
f 117 118 119
f 120 119 121
f 121 119 122
f 121 122 123
f 123 122 124
f 123 124 125
f 124 126 125
f 125 126 127
f 125 127 128
f 128 127 129
f 128 129 236
f 236 129 130
f 130 129 132
f 130 132 131
f 131 132 133
f 131 133 136
f 136 133 134
f 133 135 134
f 136 134 137
f 136 137 234
f 234 137 138
f 138 137 139
f 138 139 140
f 140 139 141
f 142 143 141
f 141 143 140
f 140 143 145
f 145 143 144
f 145 144 146
f 145 146 147
f 144 149 146
f 146 149 148
f 148 149 150
f 148 150 151
f 151 150 152
f 151 152 153
f 153 152 155
f 153 155 154
f 154 155 156
f 156 155 157
f 156 157 158
f 158 157 159
f 159 157 160
f 159 160 161
f 161 160 162
f 161 162 163
f 163 162 164
f 163 164 232
f 232 164 165
f 165 164 166
f 165 166 167
f 167 166 170
f 167 170 168
f 150 416 152
f 157 169 160
f 167 168 172
f 172 168 171
f 172 171 174
f 172 174 173
f 171 175 174
f 176 177 175
f 175 177 174
f 174 177 178
f 178 177 179
f 178 179 180
f 180 179 182
f 180 182 181
f 181 182 183
f 183 182 184
f 183 184 186
f 186 184 185
f 186 185 187
f 186 187 188
f 188 187 189
f 189 187 190
f 190 187 193
f 190 193 191
f 191 193 192
f 192 193 446
f 191 192 194
f 194 192 195
f 194 195 196
f 196 195 197
f 196 197 79
f 79 197 81
f 81 197 198
f 198 197 199
f 198 199 231
f 231 199 200
f 231 200 204
f 199 201 200
f 204 206 202
f 204 202 203
f 206 204 205
f 205 208 206
f 205 207 208
f 206 208 209
f 209 208 210
f 209 210 229
f 229 210 211
f 211 210 212
f 211 212 214
f 214 212 213
f 214 213 215
f 215 213 218
f 215 218 216
f 216 218 217
f 216 217 219
f 219 217 220
f 219 220 222
f 219 222 221
f 221 222 223
f 223 222 224
f 223 227 221
f 221 227 225
f 225 227 226
f 226 227 1
f 226 228 225
f 209 229 230
f 203 231 204
f 153 233 151
f 235 236 130
f 123 237 121
f 106 238 105
f 99 239 97
f 240 91 94
f 94 91 93
f 241 242 51
f 51 242 82
f 243 241 244
f 244 241 51
f 245 242 246
f 246 242 241
f 246 241 247
f 241 243 247
f 246 247 248
f 248 247 249
f 248 249 250
f 250 249 251
f 251 249 485
f 485 249 252
f 485 252 253
f 253 252 254
f 253 254 255
f 255 254 256
f 255 256 257
f 257 256 258
f 257 258 259
f 259 258 260
f 257 259 261
f 257 261 262
f 262 261 263
f 263 261 267
f 267 261 264
f 267 264 266
f 266 264 265
f 267 266 268
f 267 268 269
f 266 270 268
f 268 270 271
f 271 270 272
f 271 272 273
f 271 273 274
f 271 274 275
f 275 274 276
f 275 276 277
f 277 276 279
f 277 279 278
f 278 279 280
f 278 280 281
f 281 280 282
f 281 282 283
f 281 283 284
f 281 284 285
f 285 284 286
f 286 284 287
f 286 287 288
f 288 287 289
f 288 289 290
f 288 290 291
f 291 290 292
f 291 292 293
f 293 292 294
f 293 294 295
f 295 294 297
f 297 294 298
f 294 296 298
f 297 298 299
f 299 298 301
f 299 301 302
f 299 302 300
f 302 301 303
f 303 304 302
f 302 304 305
f 305 304 306
f 305 306 307
f 307 306 308
f 307 308 310
f 310 308 309
f 310 309 311
f 310 311 312
f 312 311 313
f 312 313 314
f 312 314 315
f 315 314 316
f 315 316 317
f 317 316 319
f 317 319 318
f 318 319 320
f 318 320 321
f 321 320 322
f 314 323 316
f 320 324 322
f 321 322 325
f 325 322 326
f 325 326 327
f 327 326 328
f 328 326 329
f 330 331 329
f 329 331 328
f 328 331 332
f 332 331 333
f 332 333 334
f 331 336 333
f 333 336 335
f 335 336 337
f 335 337 339
f 339 337 340
f 338 340 337
f 339 340 341
f 341 340 342
f 341 342 343
f 343 342 344
f 344 342 345
f 344 345 348
f 346 347 345
f 345 347 348
f 348 347 349
f 353 350 349
f 349 350 351
f 350 353 352
f 352 353 354
f 352 354 355
f 355 354 357
f 355 357 358
f 356 357 354
f 355 358 359
f 359 358 360
f 359 360 361
f 361 360 362
f 361 362 363
f 363 362 364
f 363 364 365
f 365 364 366
f 365 366 367
f 360 368 362
f 364 369 366
f 366 369 370
f 370 369 373
f 373 369 371
f 370 373 372
f 372 373 374
f 372 374 375
f 372 375 376
f 376 375 377
f 377 378 376
f 379 380 378
f 378 380 389
f 380 379 381
f 381 379 382
f 382 379 383
f 382 383 384
f 379 385 383
f 383 385 388
f 388 385 386
f 386 385 387
f 388 386 1
f 388 1 227
f 389 376 378
f 361 390 359
f 350 391 351
f 351 348 349
f 327 392 325
f 317 393 315
f 310 394 307
f 295 395 293
f 278 396 277
f 263 397 262
f 250 398 248
f 85 245 399
f 399 245 400
f 400 245 246
f 400 246 248
f 404 88 399
f 399 88 85
f 427 402 401
f 401 402 400
f 400 402 399
f 399 402 404
f 404 402 403
f 405 411 406
f 406 411 407
f 406 407 408
f 408 407 455
f 455 407 224
f 224 407 409
f 224 409 410
f 411 405 446
f 411 446 412
f 411 412 413
f 411 413 415
f 415 413 486
f 415 486 491
f 415 491 414
f 415 414 492
f 415 492 416
f 415 416 417
f 415 417 774
f 774 417 418
f 774 418 419
f 774 419 420
f 419 421 420
f 420 421 519
f 519 421 500
f 519 500 504
f 519 504 422
f 519 422 423
f 423 422 508
f 423 508 424
f 423 424 425
f 423 425 403
f 423 403 426
f 426 403 402
f 426 402 427
f 426 427 428
f 426 428 481
f 426 481 430
f 426 430 429
f 429 430 476
f 429 476 431
f 429 431 432
f 429 432 433
f 429 433 434
f 434 433 394
f 434 394 393
f 434 393 435
f 434 435 436
f 434 436 439
f 439 436 437
f 439 437 438
f 439 438 464
f 439 464 440
f 439 440 441
f 439 441 442
f 439 442 443
f 443 442 444
f 443 444 445
f 443 445 410
f 443 410 409
f 446 405 447
f 447 405 448
f 448 405 449
f 449 405 450
f 450 405 406
f 192 446 447
f 449 199 448
f 448 199 197
f 448 197 195
f 448 195 447
f 447 195 192
f 450 201 449
f 449 201 199
f 201 450 200
f 200 450 406
f 200 406 204
f 204 406 205
f 207 205 451
f 451 205 406
f 207 451 208
f 208 451 452
f 453 213 454
f 454 213 212
f 454 212 210
f 454 210 452
f 452 210 208
f 455 218 453
f 453 218 213
f 406 408 451
f 451 408 452
f 452 408 454
f 454 408 455
f 455 453 454
f 218 455 217
f 217 455 220
f 220 455 224
f 220 224 222
f 223 224 457
f 383 388 456
f 456 388 457
f 457 388 227
f 457 227 223
f 456 384 383
f 456 457 410
f 384 456 410
f 384 410 382
f 382 410 381
f 381 410 445
f 381 445 380
f 459 389 445
f 445 389 380
f 389 459 376
f 458 366 370
f 458 370 372
f 458 372 459
f 459 372 376
f 460 367 458
f 458 367 366
f 445 444 459
f 459 444 458
f 458 444 460
f 460 444 442
f 367 460 442
f 367 442 365
f 365 442 363
f 363 442 441
f 363 441 361
f 461 390 361
f 461 361 441
f 390 461 359
f 359 461 463
f 350 352 462
f 462 352 355
f 462 355 463
f 463 355 359
f 465 391 462
f 462 391 350
f 441 440 461
f 461 440 463
f 463 440 462
f 462 440 465
f 465 440 464
f 391 465 351
f 351 465 464
f 351 464 348
f 348 464 438
f 348 438 344
f 438 343 344
f 343 438 341
f 341 438 467
f 466 333 467
f 467 333 335
f 467 335 339
f 467 339 341
f 468 334 466
f 466 334 333
f 438 437 467
f 467 437 468
f 468 466 467
f 334 468 332
f 332 468 437
f 332 437 328
f 328 437 436
f 328 436 327
f 392 327 469
f 469 327 436
f 392 469 325
f 325 469 470
f 317 318 471
f 471 318 321
f 471 321 470
f 470 321 325
f 471 393 317
f 436 435 469
f 469 435 470
f 470 435 471
f 471 435 393
f 315 393 312
f 312 393 394
f 312 394 310
f 307 394 473
f 472 302 305
f 472 305 473
f 473 305 307
f 472 300 302
f 394 433 473
f 473 433 472
f 300 472 299
f 299 472 433
f 299 433 297
f 297 433 432
f 297 432 295
f 395 295 432
f 395 432 293
f 293 432 474
f 286 288 475
f 475 288 291
f 475 291 293
f 475 293 474
f 475 285 286
f 432 431 474
f 474 431 475
f 431 285 475
f 431 281 285
f 281 431 476
f 281 476 278
f 476 396 278
f 396 476 277
f 277 476 477
f 478 268 479
f 479 268 271
f 479 271 275
f 479 275 477
f 477 275 277
f 480 269 478
f 478 269 268
f 476 430 477
f 477 430 479
f 479 430 480
f 480 478 479
f 269 480 267
f 267 480 430
f 267 430 481
f 267 481 263
f 397 263 481
f 397 481 262
f 262 481 483
f 482 255 483
f 483 255 257
f 483 257 262
f 484 253 482
f 482 253 255
f 481 428 483
f 483 428 482
f 482 428 484
f 484 428 427
f 253 484 485
f 485 484 427
f 485 427 251
f 251 427 250
f 401 398 250
f 401 250 427
f 398 401 248
f 248 401 400
f 410 457 224
f 187 412 193
f 193 412 446
f 412 187 185
f 486 413 487
f 487 413 488
f 488 413 489
f 489 413 412
f 176 175 487
f 487 175 486
f 176 487 177
f 177 487 488
f 184 182 489
f 489 182 179
f 489 179 177
f 489 177 488
f 412 185 489
f 489 185 184
f 168 491 171
f 171 491 486
f 171 486 175
f 170 490 168
f 168 490 491
f 492 414 493
f 493 414 494
f 494 414 490
f 490 414 491
f 490 495 494
f 169 157 493
f 493 157 492
f 169 493 160
f 160 493 494
f 166 164 495
f 495 164 494
f 494 164 162
f 494 162 160
f 490 170 495
f 495 170 166
f 152 416 155
f 155 416 492
f 155 492 157
f 418 417 496
f 496 417 497
f 497 417 498
f 498 417 416
f 142 141 496
f 496 141 418
f 142 496 143
f 143 496 497
f 498 150 149
f 498 149 144
f 498 144 497
f 497 144 143
f 498 416 150
f 134 419 137
f 137 419 418
f 137 418 139
f 139 418 141
f 135 499 134
f 134 499 419
f 500 421 501
f 501 421 502
f 502 421 503
f 503 421 499
f 499 421 419
f 126 124 500
f 126 500 127
f 127 500 501
f 503 133 502
f 502 133 132
f 502 132 129
f 502 129 501
f 501 129 127
f 499 135 503
f 503 135 133
f 119 504 122
f 122 504 500
f 122 500 124
f 118 504 119
f 505 422 506
f 506 422 504
f 109 108 505
f 505 108 422
f 109 505 110
f 117 116 506
f 506 116 111
f 506 111 110
f 506 110 505
f 504 118 506
f 506 118 117
f 101 508 103
f 103 508 422
f 103 422 108
f 102 507 508
f 102 508 101
f 425 424 509
f 509 424 510
f 510 424 511
f 511 424 507
f 507 424 508
f 507 512 511
f 92 90 509
f 509 90 425
f 92 509 93
f 93 509 510
f 512 100 98
f 512 98 511
f 511 98 96
f 511 96 93
f 511 93 510
f 507 102 512
f 512 102 100
f 87 403 89
f 89 403 425
f 89 425 90
f 88 404 403
f 88 403 87
f 443 409 513
f 443 513 439
f 439 513 514
f 439 514 515
f 439 515 434
f 434 515 516
f 434 516 429
f 429 516 517
f 429 517 678
f 678 426 429
f 678 518 426
f 423 426 518
f 423 518 677
f 520 519 677
f 519 520 420
f 420 520 521
f 420 521 522
f 522 521 674
f 522 674 523
f 523 524 525
f 525 524 672
f 523 674 524
f 526 672 527
f 672 528 527
f 529 528 530
f 531 533 651
f 651 533 532
f 535 537 649
f 536 537 535
f 649 537 538
f 539 540 538
f 542 778 541
f 778 542 544
f 778 544 543
f 543 544 545
f 545 544 670
f 546 670 547
f 546 547 548
f 781 547 549
f 781 549 550
f 550 553 552
f 554 553 555
f 554 555 556
f 554 556 557
f 556 667 557
f 667 558 557
f 558 667 559
f 558 559 560
f 561 560 559
f 560 561 562
f 562 564 783
f 564 565 783
f 783 565 563
f 563 565 566
f 568 567 569
f 569 570 568
f 574 572 575
f 574 575 576
f 574 576 577
f 579 578 580
f 581 647 580
f 581 646 647
f 646 582 645
f 646 581 582
f 710 645 582
f 583 710 664
f 584 662 585
f 583 664 584
f 664 662 584
f 662 586 585
f 585 586 644
f 644 586 587
f 643 587 661
f 643 661 588
f 588 589 643
f 588 590 589
f 589 590 592
f 592 590 591
f 594 593 591
f 595 594 596
f 597 596 658
f 598 658 599
f 598 599 600
f 814 601 642
f 642 603 602
f 603 604 602
f 602 604 605
f 604 606 605
f 605 606 641
f 607 641 606
f 641 607 608
f 610 609 611
f 611 609 612
f 611 612 640
f 792 654 613
f 792 613 639
f 639 613 653
f 639 653 615
f 615 724 614
f 614 724 616
f 619 617 618
f 638 618 620
f 795 622 623
f 795 623 624
f 636 623 625
f 635 625 627
f 626 627 628
f 626 628 630
f 630 628 629
f 630 629 631
f 631 629 632
f 631 632 633
f 633 632 634
f 626 635 627
f 625 635 636
f 636 624 623
f 622 795 621
f 621 795 637
f 621 637 638
f 621 638 620
f 638 619 618
f 619 616 617
f 617 616 724
f 615 614 639
f 654 792 640
f 654 640 612
f 609 610 608
f 609 608 607
f 603 642 601
f 601 814 599
f 599 814 600
f 658 598 597
f 597 595 596
f 595 593 594
f 591 593 592
f 587 643 644
f 583 645 710
f 580 647 579
f 579 577 578
f 578 577 576
f 575 572 573
f 571 573 572
f 571 572 648
f 571 648 665
f 665 648 570
f 665 570 569
f 567 568 784
f 567 784 566
f 566 784 563
f 564 562 561
f 553 554 552
f 553 550 551
f 551 550 549
f 547 781 548
f 670 546 545
f 542 541 540
f 541 538 540
f 539 538 537
f 535 650 536
f 536 650 534
f 534 650 532
f 534 532 533
f 531 651 530
f 651 529 530
f 528 529 527
f 526 525 672
f 519 423 677
f 730 620 652
f 621 620 730
f 724 615 653
f 724 653 655
f 653 613 654
f 653 654 655
f 654 612 723
f 609 607 722
f 721 607 606
f 606 656 720
f 656 606 604
f 719 604 603
f 603 601 657
f 601 599 718
f 599 658 717
f 717 658 659
f 659 658 596
f 659 596 716
f 716 596 594
f 594 591 715
f 715 591 714
f 660 588 713
f 587 586 712
f 712 586 662
f 578 576 706
f 576 575 706
f 703 571 665
f 569 567 701
f 701 567 788
f 567 566 788
f 565 564 700
f 666 561 559
f 668 559 667
f 668 667 698
f 555 667 556
f 555 553 697
f 696 549 669
f 551 549 696
f 670 544 694
f 694 544 671
f 544 542 671
f 693 540 692
f 536 534 533
f 686 524 673
f 524 674 673
f 673 674 675
f 674 521 675
f 521 520 675
f 520 677 676
f 678 517 684
f 684 517 683
f 513 409 679
f 679 680 513
f 513 680 514
f 514 680 681
f 514 681 515
f 515 681 682
f 515 682 516
f 516 682 683
f 516 683 517
f 678 684 518
f 518 684 834
f 518 834 685
f 518 685 677
f 685 676 677
f 676 675 520
f 524 686 672
f 672 686 687
f 672 687 528
f 528 687 688
f 528 688 530
f 688 531 530
f 688 690 531
f 531 690 533
f 533 690 689
f 689 536 533
f 536 689 537
f 537 689 691
f 537 691 539
f 539 691 692
f 539 692 540
f 540 693 542
f 542 693 671
f 670 694 695
f 670 695 547
f 547 695 669
f 547 669 549
f 696 553 551
f 553 696 697
f 697 698 555
f 555 698 667
f 559 668 666
f 561 666 699
f 561 699 564
f 699 700 564
f 565 700 566
f 701 702 569
f 569 702 665
f 665 702 703
f 571 703 704
f 571 704 573
f 573 704 575
f 575 704 705
f 705 706 575
f 706 707 578
f 578 707 708
f 578 708 580
f 708 709 581
f 581 709 582
f 582 709 710
f 711 664 710
f 711 663 664
f 664 663 662
f 662 663 712
f 712 661 587
f 661 713 588
f 588 660 590
f 660 714 590
f 714 591 590
f 715 716 594
f 599 717 718
f 601 718 657
f 603 657 719
f 719 656 604
f 721 720 801
f 721 606 720
f 721 722 607
f 609 722 612
f 722 723 612
f 654 723 655
f 724 742 725
f 724 725 617
f 725 726 617
f 617 726 618
f 726 652 618
f 618 652 620
f 581 580 708
f 727 621 730
f 727 730 728
f 728 730 729
f 729 730 731
f 731 730 732
f 731 732 733
f 733 732 734
f 734 732 735
f 735 732 736
f 736 732 739
f 736 739 737
f 737 739 738
f 738 739 740
f 740 739 741
f 741 739 743
f 743 739 742
f 743 742 797
f 743 797 744
f 744 797 745
f 745 797 746
f 746 797 634
f 746 634 747
f 747 634 748
f 748 634 749
f 749 634 632
f 749 632 750
f 750 632 751
f 751 632 773
f 752 621 727
f 621 752 753
f 621 753 754
f 621 754 622
f 622 754 755
f 622 755 756
f 622 756 623
f 623 756 757
f 623 757 758
f 623 758 759
f 623 759 625
f 625 759 760
f 625 760 761
f 625 761 762
f 625 762 627
f 627 762 763
f 627 763 764
f 627 764 628
f 628 764 765
f 628 765 766
f 628 766 767
f 628 767 629
f 629 767 768
f 629 768 769
f 629 769 770
f 629 770 771
f 629 771 632
f 632 771 772
f 632 772 773
f 50 771 770
f 50 770 49
f 49 770 769
f 49 769 47
f 47 769 768
f 47 768 45
f 45 768 44
f 44 768 767
f 44 767 766
f 44 766 41
f 41 766 765
f 41 765 40
f 40 765 764
f 40 764 36
f 36 764 763
f 36 763 35
f 35 763 762
f 35 762 33
f 33 762 761
f 33 761 31
f 31 761 760
f 31 760 28
f 28 760 759
f 28 759 27
f 27 759 758
f 27 758 25
f 25 758 757
f 25 757 23
f 23 757 756
f 23 756 21
f 21 756 755
f 21 755 19
f 19 755 754
f 19 754 17
f 17 754 753
f 17 753 15
f 15 753 752
f 15 752 14
f 14 752 12
f 12 752 727
f 12 727 728
f 12 728 10
f 10 728 729
f 10 729 9
f 9 729 731
f 9 731 7
f 7 731 733
f 7 733 5
f 5 733 734
f 5 734 4
f 4 734 735
f 4 735 3
f 3 735 736
f 3 736 77
f 77 736 737
f 77 737 76
f 76 737 74
f 74 737 738
f 74 738 72
f 72 738 740
f 72 740 741
f 72 741 70
f 70 741 743
f 70 743 68
f 68 743 744
f 68 744 67
f 67 744 745
f 67 745 65
f 65 745 746
f 65 746 64
f 64 746 747
f 64 747 62
f 62 747 748
f 62 748 749
f 62 749 60
f 60 749 750
f 60 750 58
f 58 750 751
f 58 751 56
f 56 751 773
f 56 773 54
f 54 773 772
f 54 772 53
f 53 772 771
f 53 771 50
f 774 420 522
f 774 523 775
f 774 522 523
f 525 526 776
f 529 651 838
f 532 650 535
f 532 535 836
f 835 649 777
f 649 538 777
f 538 541 777
f 541 778 779
f 779 778 834
f 546 548 832
f 832 548 780
f 780 548 781
f 830 552 829
f 552 554 557
f 552 557 829
f 558 560 828
f 828 560 782
f 821 572 574
f 820 577 697
f 579 647 698
f 698 647 785
f 785 647 646
f 645 583 786
f 786 583 584
f 584 585 787
f 787 585 818
f 585 644 818
f 818 644 788
f 788 644 789
f 589 592 817
f 816 593 705
f 595 597 815
f 815 597 790
f 597 598 790
f 791 790 600
f 598 600 790
f 813 602 812
f 602 605 812
f 812 605 641
f 812 641 811
f 610 611 809
f 611 640 808
f 808 640 792
f 808 792 793
f 792 639 793
f 793 639 807
f 807 639 614
f 807 614 616
f 616 619 794
f 794 619 659
f 659 619 638
f 624 636 804
f 804 636 803
f 636 635 803
f 630 631 796
f 796 631 800
f 631 633 800
f 797 798 634
f 634 798 633
f 633 798 799
f 633 799 800
f 630 796 801
f 626 801 802
f 626 802 635
f 635 802 803
f 624 804 805
f 624 805 795
f 795 805 637
f 637 806 638
f 806 659 638
f 611 808 809
f 610 809 810
f 610 810 608
f 810 811 608
f 608 811 641
f 813 814 642
f 813 642 602
f 814 791 600
f 815 706 595
f 595 706 705
f 595 705 593
f 593 816 592
f 816 817 592
f 589 817 643
f 817 789 643
f 643 789 644
f 584 787 786
f 645 786 819
f 645 819 646
f 646 819 785
f 579 698 697
f 579 697 577
f 577 820 574
f 574 820 821
f 821 822 572
f 572 822 648
f 648 822 823
f 570 823 568
f 568 823 824
f 568 824 784
f 784 824 825
f 825 563 784
f 825 826 563
f 563 826 783
f 783 826 562
f 826 827 562
f 827 782 562
f 562 782 560
f 558 828 829
f 829 828 688
f 558 829 557
f 830 831 552
f 552 831 550
f 550 831 781
f 781 831 780
f 832 833 546
f 546 833 545
f 833 834 543
f 833 543 545
f 543 834 778
f 541 779 777
f 835 836 649
f 649 836 535
f 532 836 837
f 532 837 651
f 651 837 838
f 839 529 838
f 529 839 527
f 839 776 527
f 527 776 526
f 525 776 775
f 525 775 523
f 801 626 630
f 648 823 570
f 415 774 775
f 415 775 411
f 411 775 776
f 411 776 407
f 407 776 839
f 407 839 409
f 409 839 679
f 679 839 838
f 679 838 837
f 679 837 680
f 680 837 836
f 680 836 681
f 681 836 835
f 681 835 682
f 682 835 777
f 682 777 683
f 683 777 684
f 684 777 779
f 684 779 834
f 685 834 833
f 685 833 676
f 676 833 832
f 676 832 675
f 675 832 780
f 675 780 673
f 673 780 831
f 673 831 686
f 686 831 830
f 686 830 687
f 687 830 829
f 687 829 688
f 688 828 690
f 690 828 782
f 690 782 689
f 689 782 827
f 689 827 691
f 691 827 826
f 691 826 692
f 692 826 693
f 693 826 825
f 693 825 824
f 693 824 671
f 671 824 823
f 671 823 694
f 694 823 822
f 694 822 695
f 695 822 821
f 695 821 669
f 669 821 696
f 696 821 820
f 696 820 697
f 668 698 785
f 668 785 666
f 666 785 819
f 666 819 786
f 666 786 699
f 699 786 787
f 699 787 700
f 700 787 818
f 700 818 566
f 566 818 788
f 788 789 701
f 701 789 702
f 702 789 817
f 702 817 703
f 703 817 816
f 703 816 704
f 704 816 705
f 707 706 815
f 707 815 790
f 707 790 708
f 708 790 791
f 708 791 709
f 709 791 814
f 709 814 710
f 710 814 711
f 711 814 813
f 711 813 812
f 711 812 663
f 663 812 811
f 663 811 712
f 712 811 810
f 712 810 661
f 661 810 809
f 661 809 713
f 713 809 808
f 713 808 660
f 660 808 793
f 660 793 714
f 714 793 807
f 714 807 715
f 715 807 616
f 715 616 794
f 715 794 716
f 716 794 659
f 659 806 717
f 717 806 637
f 717 637 718
f 718 637 805
f 718 805 657
f 657 805 804
f 657 804 719
f 719 804 803
f 719 803 656
f 656 803 802
f 656 802 720
f 720 802 801
f 721 801 796
f 721 796 722
f 722 796 800
f 722 800 799
f 722 799 723
f 723 799 798
f 723 798 655
f 655 798 797
f 655 797 724
f 724 797 742
f 742 739 725
f 725 739 732
f 725 732 726
f 726 732 652
f 652 732 730
f 840 386 841
f 841 386 387
f 16 841 843
f 16 843 842
f 16 377 375
f 377 16 378
f 378 16 842
f 843 385 379
f 843 379 842
f 842 379 378
f 841 387 843
f 843 387 385
f 375 374 16
f 16 374 844
f 844 374 373
f 844 373 845
f 845 373 371
f 20 18 846
f 846 18 847
f 847 18 845
f 845 18 844
f 20 368 360
f 368 20 362
f 362 20 846
f 847 369 364
f 847 364 846
f 846 364 362
f 845 371 847
f 847 371 369
f 360 358 20
f 20 358 22
f 22 358 357
f 22 357 356
f 24 22 848
f 848 22 849
f 346 345 24
f 346 24 347
f 347 24 848
f 354 353 849
f 849 353 848
f 848 353 349
f 848 349 347
f 22 356 849
f 849 356 354
f 345 342 24
f 24 342 850
f 850 342 340
f 850 340 338
f 852 851 853
f 853 851 850
f 330 329 851
f 851 329 26
f 330 851 331
f 331 851 852
f 337 336 853
f 853 336 331
f 853 331 852
f 850 338 853
f 853 338 337
f 329 326 26
f 26 326 854
f 854 326 322
f 854 322 324
f 30 29 855
f 855 29 856
f 855 856 857
f 856 29 324
f 324 29 854
f 323 314 855
f 855 314 30
f 323 855 316
f 316 855 857
f 320 319 856
f 856 319 857
f 857 319 316
f 856 324 320
f 314 313 30
f 30 313 311
f 30 311 32
f 32 311 309
f 858 32 859
f 859 32 860
f 858 303 301
f 303 858 304
f 304 858 859
f 308 306 860
f 860 306 859
f 859 306 304
f 32 309 860
f 860 309 308
f 858 301 298
f 858 298 34
f 34 298 296
f 38 34 861
f 861 34 862
f 38 289 287
f 290 289 861
f 861 289 38
f 862 294 292
f 862 292 861
f 861 292 290
f 34 296 862
f 862 296 294
f 38 287 37
f 37 287 284
f 37 284 283
f 37 283 863
f 863 283 282
f 42 39 864
f 864 39 865
f 865 39 866
f 866 39 863
f 863 39 37
f 864 273 272
f 864 272 42
f 273 864 274
f 274 864 865
f 280 279 866
f 866 279 276
f 866 276 865
f 865 276 274
f 863 282 866
f 866 282 280
f 272 270 42
f 42 270 266
f 42 266 867
f 867 266 265
f 868 43 869
f 869 43 870
f 870 43 871
f 871 43 867
f 867 43 42
f 869 260 868
f 868 260 258
f 868 258 46
f 260 869 259
f 259 869 870
f 264 261 871
f 871 261 870
f 870 261 259
f 867 265 871
f 871 265 264
f 46 258 256
f 46 256 872
f 872 256 254
f 51 48 244
f 244 48 873
f 873 48 874
f 874 48 872
f 872 48 46
f 247 243 873
f 873 243 244
f 252 249 874
f 874 249 873
f 873 249 247
f 872 254 874
f 874 254 252
f 51 82 52
f 52 82 83
f 55 52 875
f 875 52 876
f 240 94 55
f 240 55 91
f 91 55 875
f 876 84 86
f 876 86 875
f 875 86 91
f 52 83 876
f 876 83 84
f 94 95 55
f 55 95 877
f 877 95 97
f 877 97 239
f 877 239 878
f 59 57 879
f 879 57 880
f 880 57 881
f 881 57 878
f 878 57 877
f 879 238 106
f 879 106 59
f 238 879 105
f 105 879 880
f 881 99 104
f 881 104 880
f 880 104 105
f 878 239 881
f 881 239 99
f 106 107 59
f 59 107 112
f 59 112 882
f 882 112 114
f 61 882 883
f 883 882 884
f 237 123 61
f 237 61 121
f 121 61 883
f 113 115 884
f 884 115 883
f 883 115 120
f 883 120 121
f 882 114 884
f 884 114 113
f 123 125 61
f 61 125 128
f 61 128 885
f 885 128 236
f 885 236 235
f 886 63 887
f 887 63 235
f 235 63 885
f 886 234 63
f 63 234 138
f 234 886 136
f 130 131 887
f 887 131 136
f 887 136 886
f 887 235 130
f 138 140 63
f 63 140 888
f 888 140 145
f 888 145 147
f 890 66 891
f 891 66 888
f 233 153 66
f 66 153 889
f 151 233 890
f 890 233 66
f 146 148 891
f 891 148 890
f 890 148 151
f 888 147 891
f 891 147 146
f 153 154 889
f 889 154 892
f 892 154 156
f 892 156 158
f 893 69 894
f 894 69 892
f 69 232 71
f 71 232 165
f 232 69 163
f 163 69 893
f 159 161 894
f 894 161 893
f 893 161 163
f 894 892 159
f 159 892 158
f 165 167 71
f 71 167 172
f 71 172 73
f 73 172 173
f 75 73 895
f 895 73 896
f 75 181 183
f 181 75 180
f 180 75 895
f 896 174 178
f 896 178 895
f 180 895 178
f 73 173 896
f 896 173 174
f 75 183 897
f 897 183 186
f 897 186 188
f 897 188 898
f 898 188 189
f 2 78 80
f 80 78 899
f 899 78 900
f 900 78 898
f 898 78 897
f 79 80 196
f 196 80 899
f 190 191 900
f 900 191 899
f 899 191 194
f 899 194 196
f 898 189 900
f 900 189 190
f 81 198 2
f 2 198 6
f 6 198 231
f 6 231 203
f 8 6 901
f 901 6 902
f 230 229 8
f 230 8 209
f 209 8 901
f 202 206 902
f 902 206 901
f 901 206 209
f 6 203 902
f 902 203 202
f 229 211 8
f 8 211 13
f 13 211 214
f 13 214 903
f 903 214 215
f 904 11 905
f 905 11 906
f 906 11 907
f 907 11 903
f 903 11 13
f 905 228 904
f 904 228 226
f 225 228 906
f 906 228 905
f 216 219 907
f 907 219 221
f 907 221 906
f 906 221 225
f 903 215 907
f 907 215 216
f 1 840 226
f 226 840 904
