# USD → MuJoCo (world-space, simplified)
v 0.099113 7.108058 0.603951
v 0.099509 7.108063 0.603847
v 0.099912 7.108056 0.603694
v 0.100332 7.108040 0.602592
v 0.100815 7.108043 0.602114
v 0.101745 7.108073 0.602044
v 0.102080 7.108070 0.601292
v 0.102255 7.108077 0.600468
v 0.101404 7.108059 0.599212
v 0.100164 7.108061 0.597645
v 0.098293 7.108104 0.596079
v 0.097870 7.108106 0.596102
v 0.097290 7.108133 0.596204
v 0.096207 7.108061 0.597849
v 0.095342 7.108130 0.597396
v 0.095176 7.108068 0.598768
v 0.095079 7.108100 0.602396
v 0.095555 7.108031 0.600805
v 0.095339 7.108098 0.602718
v 0.095634 7.108096 0.603012
v 0.096516 7.108039 0.602775
v 0.097068 7.108058 0.603841
v 0.097474 7.108061 0.603950
v 0.098298 7.108025 0.600057
v 0.098298 7.134594 0.601974
v 0.098512 7.133526 0.601755
v 0.098298 7.132025 0.600205
v 0.098143 7.133467 0.601689
v 0.098756 7.133467 0.601624
v 0.099011 7.134595 0.601822
v 0.099120 7.133527 0.601535
v 0.099291 7.133469 0.601316
v 0.099601 7.134598 0.601394
v 0.099498 7.133471 0.601086
v 0.099816 7.134600 0.601097
v 0.099653 7.133472 0.600817
v 0.099966 7.134602 0.600762
v 0.099749 7.133474 0.600522
v 0.100042 7.134604 0.600404
v 0.099781 7.133476 0.600214
v 0.100042 7.134606 0.600037
v 0.099749 7.133478 0.599905
v 0.099966 7.134608 0.599679
v 0.099653 7.133480 0.599610
v 0.099816 7.134611 0.599344
v 0.099498 7.133482 0.599342
v 0.099601 7.134612 0.599047
v 0.099291 7.133483 0.599111
v 0.099329 7.134614 0.598802
v 0.099031 7.133543 0.598842
v 0.098756 7.133485 0.598803
v 0.098662 7.134616 0.598505
v 0.098453 7.133485 0.598738
v 0.098298 7.134616 0.598467
v 0.098143 7.133485 0.598738
v 0.097933 7.134616 0.598505
v 0.097839 7.133485 0.598803
v 0.097585 7.134615 0.598619
v 0.097556 7.133484 0.598929
v 0.097267 7.134614 0.598802
v 0.097305 7.133483 0.599111
v 0.096995 7.134612 0.599047
v 0.097098 7.133482 0.599342
v 0.096779 7.134611 0.599344
v 0.096943 7.133480 0.599610
v 0.096630 7.134608 0.599679
v 0.096847 7.133478 0.599905
v 0.096554 7.134606 0.600037
v 0.096743 7.133535 0.600266
v 0.096847 7.133474 0.600522
v 0.096630 7.134602 0.600762
v 0.096898 7.133531 0.600893
v 0.097098 7.133471 0.601086
v 0.096995 7.134598 0.601394
v 0.097296 7.133528 0.601404
v 0.097556 7.133468 0.601498
v 0.097585 7.134595 0.601822
v 0.097839 7.133467 0.601624
v 0.097933 7.134594 0.601936
v 0.006295 7.108090 0.604036
v 0.007707 7.108096 0.603783
v 0.007874 7.108026 0.602459
v 0.008451 7.108098 0.603409
v 0.010189 7.108077 0.600885
v 0.007173 7.108021 0.600212
v 0.009134 7.108055 0.598811
v 0.009254 7.108130 0.597396
v 0.006944 7.108134 0.596127
v 0.007527 7.108138 0.596274
v 0.006298 7.108139 0.596079
v 0.007160 7.108058 0.597238
v 0.005290 7.108133 0.596204
v 0.005882 7.108139 0.596101
v 0.004873 7.108072 0.597168
v 0.004547 7.108131 0.596480
v 0.002759 7.108121 0.598229
v 0.003080 7.108129 0.597719
v 0.003624 7.108047 0.598923
v 0.002514 7.108122 0.598828
v 0.002366 7.108123 0.599416
v 0.002319 7.108114 0.600055
v 0.002571 7.108101 0.601464
v 0.002407 7.108109 0.600884
v 0.003770 7.108032 0.601665
v 0.002851 7.108102 0.602044
v 0.003080 7.108100 0.602396
v 0.005455 7.108029 0.603055
v 0.005882 7.108090 0.604014
v 0.006298 7.134594 0.601974
v 0.006453 7.133467 0.601689
v 0.006298 7.132024 0.600205
v 0.006143 7.133467 0.601689
v 0.006662 7.134594 0.601936
v 0.006756 7.133467 0.601624
v 0.007011 7.134595 0.601822
v 0.007120 7.133527 0.601535
v 0.007291 7.133469 0.601316
v 0.007601 7.134598 0.601394
v 0.007498 7.133471 0.601086
v 0.007816 7.134600 0.601097
v 0.007653 7.133472 0.600817
v 0.007966 7.134602 0.600762
v 0.007749 7.133474 0.600522
v 0.008042 7.134604 0.600404
v 0.007781 7.133476 0.600214
v 0.008042 7.134606 0.600037
v 0.007808 7.133538 0.599840
v 0.007653 7.133480 0.599610
v 0.007816 7.134611 0.599344
v 0.007525 7.133541 0.599258
v 0.007291 7.133483 0.599111
v 0.007329 7.134614 0.598802
v 0.007040 7.133484 0.598929
v 0.007011 7.134615 0.598619
v 0.006756 7.133485 0.598803
v 0.006662 7.134615 0.598505
v 0.006453 7.133485 0.598738
v 0.006298 7.134616 0.598467
v 0.006143 7.133485 0.598738
v 0.005933 7.134615 0.598505
v 0.005839 7.133485 0.598803
v 0.005585 7.134615 0.598619
v 0.005556 7.133484 0.598929
v 0.005267 7.134614 0.598802
v 0.005219 7.133542 0.599093
v 0.005098 7.133482 0.599342
v 0.004779 7.134611 0.599344
v 0.004857 7.133539 0.599629
v 0.004847 7.133478 0.599905
v 0.004554 7.134606 0.600037
v 0.004743 7.133535 0.600266
v 0.004847 7.133474 0.600522
v 0.004630 7.134602 0.600762
v 0.004943 7.133472 0.600817
v 0.004779 7.134600 0.601097
v 0.005098 7.133471 0.601086
v 0.004995 7.134598 0.601394
v 0.005305 7.133469 0.601316
v 0.005267 7.134596 0.601639
v 0.005556 7.133468 0.601498
v 0.005585 7.134595 0.601822
v 0.005839 7.133467 0.601624
v 0.005933 7.134594 0.601936
v 0.095204 7.144037 0.598119
v 0.096369 7.143996 0.601438
v 0.008805 7.144042 0.597480
v 0.004697 7.144046 0.596883
v 0.005555 7.143994 0.602366
v 0.004311 7.144009 0.601191
v 0.098992 7.138137 0.602106
v 0.100168 7.143698 0.600960
v 0.100011 7.137825 0.601229
v 0.100265 7.137829 0.600447
v 0.100186 7.137922 0.599640
v 0.100080 7.143772 0.599380
v 0.099525 7.138098 0.598686
v 0.099000 7.143848 0.598366
v 0.097701 7.137859 0.598351
v 0.097437 7.137930 0.598447
v 0.096595 7.143882 0.599198
v 0.096417 7.137835 0.599629
v 0.096316 7.138116 0.600359
v 0.096337 7.138075 0.599960
v 0.096411 7.143828 0.601038
v 0.006653 7.143661 0.602255
v 0.008109 7.143768 0.601150
v 0.008265 7.137829 0.600447
v 0.008275 7.143665 0.599916
v 0.007192 7.143754 0.598493
v 0.006500 7.137879 0.598273
v 0.006063 7.143755 0.598300
v 0.004621 7.138080 0.599187
v 0.004447 7.143804 0.599461
v 0.004348 7.143654 0.600719
v 0.005605 7.143704 0.602144
v 0.100045 7.143998 0.603626
v 0.101255 7.144009 0.602618
v 0.099908 7.143815 0.596644
v 0.010272 7.143819 0.600267
v 0.005657 7.144001 0.603983
v 0.099742 7.143758 0.601650
v 0.097401 7.144019 0.598346
v 0.007364 7.143974 0.602249
v 0.098300 7.143995 0.604125
v 0.097947 7.144039 0.596331
v 0.096370 7.144037 0.596976
v 0.095254 7.144010 0.602631
v 0.009865 7.143970 0.602022
v 0.009936 7.144017 0.601354
v 0.008076 7.143859 0.596717
v 0.003446 7.144026 0.597756
v 0.002406 7.143896 0.599469
v 0.002865 7.144014 0.601795
v 0.097869 7.143960 0.602275
v 0.099294 7.144003 0.602204
v 0.097643 7.143806 0.596351
v 0.003640 7.143795 0.603232
v 0.100296 7.143873 0.600110
v 0.006364 7.144030 0.598000
v 0.005178 7.143926 0.598601
v 0.102155 7.144019 0.600249
v 0.101141 7.143971 0.597509
v 0.007467 7.144001 0.603868
v 0.010178 7.143918 0.599390
v 0.006463 7.144014 0.596438
v 0.002498 7.144010 0.600257
v 0.004229 7.143978 0.599835
v 0.004827 7.143762 0.601631
v 0.101539 7.143793 0.602597
v 0.094345 7.143816 0.599864
v 0.097638 7.143886 0.604199
v 0.002858 7.143820 0.602269
v 0.098591 7.144016 0.598122
v 0.100334 7.143973 0.596869
v 0.004255 7.143999 0.603457
v 0.096247 7.143957 0.599757
v 0.007718 7.143912 0.598833
v 0.098434 7.143726 0.604252
v 0.098951 7.143744 0.604203
v 0.099656 7.143743 0.604015
v 0.100132 7.143745 0.603809
v 0.100639 7.143688 0.603488
v 0.100959 7.139248 0.603204
v 0.101191 7.143866 0.603007
v 0.101512 7.108100 0.602406
v 0.101742 7.139254 0.602238
v 0.102018 7.143836 0.601691
v 0.102274 7.143689 0.600455
v 0.102204 7.143874 0.601065
v 0.102250 7.143806 0.599860
v 0.102078 7.143867 0.599018
v 0.102009 7.140021 0.598810
v 0.101739 7.143816 0.598288
v 0.101381 7.143735 0.597760
v 0.100970 7.108132 0.597107
v 0.100452 7.140089 0.596905
v 0.099312 7.143742 0.596428
v 0.098806 7.143850 0.596333
v 0.098298 7.139291 0.596273
v 0.097069 7.132631 0.596426
v 0.096768 7.143860 0.596606
v 0.096109 7.143733 0.596953
v 0.095634 7.143798 0.597328
v 0.094900 7.143901 0.598210
v 0.095084 7.108129 0.597708
v 0.094703 7.143836 0.598575
v 0.094517 7.143795 0.599051
v 0.094411 7.143880 0.599448
v 0.094321 7.139266 0.600249
v 0.094343 7.139264 0.600665
v 0.094329 7.143780 0.600524
v 0.094379 7.143958 0.600907
v 0.094408 7.139261 0.601076
v 0.094591 7.143814 0.601725
v 0.094855 7.143754 0.602264
v 0.095284 7.143756 0.602873
v 0.095567 7.143810 0.603168
v 0.096146 7.143778 0.603625
v 0.096891 7.143820 0.604000
v 0.097693 7.140045 0.604190
v 0.006204 7.143855 0.604254
v 0.006617 7.143807 0.604241
v 0.007126 7.143780 0.604164
v 0.007735 7.143780 0.603986
v 0.008636 7.132588 0.603426
v 0.008889 7.143861 0.603296
v 0.009194 7.143857 0.603003
v 0.009516 7.132593 0.602546
v 0.009695 7.143867 0.602347
v 0.009930 7.108104 0.601687
v 0.010147 7.143793 0.601289
v 0.010251 7.143792 0.600691
v 0.010139 7.140122 0.599205
v 0.009926 7.143719 0.598654
v 0.009625 7.143813 0.598094
v 0.009254 7.132624 0.597547
v 0.009027 7.143907 0.597384
v 0.008700 7.143883 0.597109
v 0.006712 7.143808 0.596323
v 0.005066 7.143719 0.596496
v 0.004036 7.143903 0.597006
v 0.003708 7.143897 0.597259
v 0.003406 7.143844 0.597547
v 0.002323 7.143788 0.600279
v 0.002345 7.143785 0.600695
v 0.002409 7.143779 0.601106
v 0.002517 7.143803 0.601508
v 0.002667 7.143801 0.601896
v 0.003083 7.143681 0.602617
v 0.003326 7.143850 0.602917
v 0.004067 7.143766 0.603569
v 0.004297 7.108093 0.603499
v 0.004683 7.143773 0.603909
v 0.005072 7.143772 0.604058
v 0.100337 7.143992 0.600946
v 0.099994 7.144010 0.598929
v 0.008514 7.144003 0.600311
v 0.098711 7.108090 0.604014
v 0.098295 7.108090 0.604036
v 0.100635 7.108094 0.603278
v 0.100291 7.108058 0.603500
v 0.101253 7.108098 0.602721
v 0.100958 7.108096 0.603016
v 0.101932 7.108104 0.601678
v 0.102189 7.108109 0.600896
v 0.102255 7.108117 0.599644
v 0.102276 7.108079 0.600064
v 0.102021 7.108119 0.598640
v 0.102194 7.108119 0.599241
v 0.101745 7.108127 0.598070
v 0.101256 7.108130 0.597397
v 0.101518 7.108129 0.597721
v 0.100638 7.108134 0.596840
v 0.099919 7.108137 0.596424
v 0.100289 7.108135 0.596613
v 0.099127 7.108138 0.596166
v 0.099530 7.108138 0.596275
v 0.098716 7.108139 0.596101
v 0.097674 7.125327 0.596229
v 0.096675 7.108102 0.596425
v 0.095958 7.108122 0.596839
v 0.096311 7.108135 0.596611
v 0.095340 7.143713 0.597619
v 0.095637 7.108132 0.597099
v 0.094853 7.108127 0.598066
v 0.094515 7.108122 0.598826
v 0.094664 7.108124 0.598437
v 0.094341 7.108117 0.599639
v 0.094407 7.108119 0.599228
v 0.094341 7.108112 0.600471
v 0.094319 7.108114 0.600055
v 0.094513 7.108107 0.601285
v 0.094406 7.108109 0.600882
v 0.094851 7.108102 0.602044
v 0.094662 7.108104 0.601674
v 0.095080 7.132593 0.602546
v 0.095957 7.108094 0.603275
v 0.096677 7.108092 0.603691
v 0.096306 7.108093 0.603502
v 0.097876 7.108055 0.604013
v 0.007123 7.108090 0.603950
v 0.006711 7.108090 0.604014
v 0.007916 7.132586 0.603842
v 0.007527 7.132585 0.603991
v 0.008288 7.143780 0.603719
v 0.009352 7.108094 0.602613
v 0.008958 7.108096 0.603016
v 0.009742 7.108102 0.602049
v 0.010081 7.108107 0.601289
v 0.010254 7.108111 0.600476
v 0.010258 7.108117 0.599652
v 0.010276 7.108114 0.600060
v 0.010149 7.108125 0.599036
v 0.009745 7.108126 0.598070
v 0.009934 7.108124 0.598442
v 0.009518 7.108129 0.597721
v 0.008638 7.108134 0.596840
v 0.008962 7.108132 0.597103
v 0.007919 7.108137 0.596424
v 0.008289 7.108135 0.596613
v 0.007123 7.143807 0.596388
v 0.007525 7.143807 0.596495
v 0.006294 7.143722 0.596301
v 0.005467 7.143802 0.596389
v 0.005879 7.143802 0.596323
v 0.003961 7.108134 0.596837
v 0.004435 7.143880 0.596760
v 0.003343 7.108130 0.597393
v 0.003637 7.108132 0.597099
v 0.002854 7.143804 0.598291
v 0.003080 7.143806 0.597942
v 0.002516 7.143818 0.599050
v 0.002665 7.143802 0.598662
v 0.002343 7.143786 0.599864
v 0.002341 7.108111 0.600471
v 0.003340 7.108098 0.602718
v 0.003957 7.108094 0.603275
v 0.003634 7.108096 0.603012
v 0.004677 7.108092 0.603691
v 0.005468 7.108090 0.603949
v 0.005066 7.108091 0.603841
v 0.005738 7.143835 0.604218
v 0.098635 7.138062 0.602194
v 0.099399 7.138082 0.601890
v 0.099718 7.138065 0.601623
v 0.099898 7.137824 0.601403
v 0.100192 7.137840 0.600835
v 0.100270 7.137846 0.600013
v 0.099768 7.137839 0.598917
v 0.100007 7.137850 0.599231
v 0.098709 7.137843 0.598306
v 0.099087 7.137856 0.598419
v 0.098373 7.138086 0.598262
v 0.097960 7.138085 0.598290
v 0.096828 7.137839 0.598917
v 0.097115 7.137854 0.598646
v 0.096569 7.137850 0.599265
v 0.096392 7.138070 0.600782
v 0.096589 7.137838 0.601250
v 0.096828 7.137823 0.601564
v 0.097074 7.138073 0.601799
v 0.097424 7.138062 0.602019
v 0.097812 7.138062 0.602162
v 0.098222 7.138061 0.602221
v 0.006636 7.138062 0.602194
v 0.007034 7.138062 0.602081
v 0.007822 7.137574 0.601504
v 0.007479 7.137856 0.601837
v 0.008011 7.137825 0.601229
v 0.008191 7.137840 0.600835
v 0.008274 7.138074 0.600110
v 0.008179 7.137848 0.599608
v 0.008011 7.137837 0.599251
v 0.007461 7.137840 0.598640
v 0.007760 7.137852 0.598898
v 0.007172 7.138084 0.598464
v 0.006783 7.138085 0.598321
v 0.006298 7.137843 0.598262
v 0.005493 7.137842 0.598433
v 0.005866 7.137856 0.598303
v 0.005195 7.138083 0.598596
v 0.004877 7.138082 0.598861
v 0.004404 7.137848 0.599646
v 0.004331 7.137832 0.600034
v 0.004440 7.137578 0.600926
v 0.004326 7.137843 0.600467
v 0.004585 7.137825 0.601229
v 0.005135 7.137821 0.601841
v 0.004836 7.137836 0.601583
v 0.005424 7.138062 0.602019
v 0.005812 7.138062 0.602162
v 0.006222 7.138061 0.602221
v -0.020841 7.106382 0.605819
v -0.020841 7.107409 0.605910
v -0.038976 7.107397 0.605899
v -0.020841 7.105387 0.605553
v -0.020841 7.104454 0.605117
v -0.020841 7.103610 0.604527
v 0.125436 7.104454 0.605117
v -0.020841 7.102882 0.603798
v -0.020841 7.102291 0.602955
v -0.038975 7.101601 0.598964
v -0.033298 7.101859 0.597977
v -0.033168 7.102294 0.597044
v -0.033244 7.102886 0.596201
v -0.038976 7.103625 0.595473
v -0.038976 7.104469 0.594886
v -0.038976 7.105402 0.594452
v -0.038976 7.106396 0.594189
v -0.020841 7.107409 0.594091
v -0.038976 7.107420 0.594101
v -0.038976 7.108444 0.594193
v -0.020841 7.109430 0.594447
v -0.033182 7.110365 0.594886
v -0.020787 7.111207 0.595473
v -0.038976 7.111210 0.595488
v -0.019973 7.111935 0.596202
v -0.038976 7.111935 0.596217
v -0.020841 7.112526 0.597045
v -0.020841 7.112961 0.597979
v -0.020841 7.113228 0.598974
v -0.020841 7.113317 0.600000
v -0.020841 7.113228 0.601026
v -0.020841 7.112961 0.602021
v -0.020761 7.112526 0.602955
v -0.020841 7.111207 0.604527
v -0.020841 7.110363 0.605117
v -0.038975 7.109416 0.605548
v -0.020841 7.108435 0.605819
v -0.038976 7.108421 0.605811
v 0.125436 7.102882 0.603798
v 0.125436 7.102882 0.596202
v 0.125436 7.113228 0.598974
v -0.019971 7.111935 0.603798
v 0.125436 7.110363 0.605117
v -0.020841 7.101500 0.600000
v 0.125436 7.102291 0.597045
v -0.020841 7.104454 0.594883
v -0.020841 7.106382 0.594181
v 0.021877 7.110363 0.594883
v -0.020841 7.101856 0.602021
v -0.020841 7.101589 0.601026
v -0.020841 7.101589 0.598974
v 0.136915 7.101856 0.597979
v -0.020841 7.103610 0.595473
v -0.020841 7.105387 0.594447
v -0.020841 7.108435 0.594181
v -0.020841 7.109430 0.605553
v 0.137754 7.106386 0.605818
v 0.137797 7.107412 0.605907
v 0.137765 7.105391 0.605552
v 0.125436 7.103610 0.604527
v 0.137735 7.102294 0.602956
v 0.143572 7.102898 0.603801
v 0.137886 7.101859 0.602023
v 0.137788 7.101591 0.601029
v 0.137828 7.101501 0.600003
v 0.137788 7.101590 0.598977
v 0.143571 7.102293 0.597060
v 0.137791 7.103609 0.595477
v 0.143572 7.102882 0.596217
v 0.137777 7.104452 0.594886
v 0.137723 7.105385 0.594450
v 0.137740 7.106380 0.594183
v 0.125436 7.107409 0.594091
v 0.137756 7.108431 0.594182
v 0.137724 7.109426 0.594448
v 0.125436 7.110363 0.594883
v 0.125436 7.111207 0.595473
v 0.125436 7.111935 0.596202
v 0.125160 7.112526 0.597045
v 0.125436 7.112961 0.597979
v 0.137783 7.113316 0.599997
v 0.137772 7.113227 0.601023
v 0.137892 7.112960 0.602017
v 0.137762 7.112526 0.602951
v 0.125436 7.111935 0.603798
v 0.125223 7.111207 0.604527
v 0.137766 7.109432 0.605550
v 0.137741 7.108437 0.605817
v -0.039599 7.109805 0.601944
v -0.039650 7.110526 0.596197
v -0.039664 7.106944 0.594757
v -0.039625 7.103927 0.597738
v 0.144180 7.108174 0.600177
v 0.144231 7.102897 0.600963
v 0.144254 7.102691 0.597655
v -0.039553 7.106833 0.605409
v -0.039532 7.102702 0.602751
v -0.039687 7.103087 0.597036
v -0.039583 7.104298 0.595605
v -0.039583 7.111196 0.596173
v -0.039686 7.111615 0.603178
v 0.144267 7.105899 0.605043
v 0.144183 7.101996 0.599972
v 0.144253 7.112096 0.597580
v 0.144190 7.112840 0.599557
v -0.038892 7.106374 0.605808
v -0.038891 7.102294 0.602941
v -0.038891 7.101509 0.599990
v -0.038975 7.109437 0.594460
v -0.038989 7.110351 0.594896
v -0.038976 7.112524 0.597060
v -0.038976 7.112956 0.597994
v -0.038976 7.113220 0.598987
v -0.038976 7.113216 0.601036
v -0.038975 7.112947 0.602029
v -0.038976 7.112512 0.602960
v -0.038976 7.111920 0.603800
v -0.038976 7.111191 0.604527
v 0.143585 7.106381 0.605801
v 0.143487 7.104467 0.605114
v 0.143571 7.103626 0.604527
v 0.143585 7.102304 0.602942
v 0.143589 7.101677 0.601448
v 0.143585 7.101518 0.599996
v 0.143585 7.101607 0.598973
v 0.143584 7.101874 0.597981
v 0.143585 7.103625 0.595484
v 0.143487 7.107399 0.594100
v 0.143487 7.110350 0.594886
v 0.143487 7.111193 0.595474
v 0.143488 7.111921 0.596200
v 0.143527 7.112513 0.597041
v 0.143585 7.112943 0.602019
v 0.143585 7.112509 0.602949
v 0.143488 7.111934 0.603784
v 0.143571 7.110368 0.605103
v 0.143589 7.108869 0.605728
v -0.039583 7.105158 0.604892
v -0.039562 7.102015 0.600841
v -0.039583 7.112277 0.597700
v -0.039682 7.112718 0.600425
v -0.039586 7.110909 0.604129
v -0.039583 7.108829 0.605194
v 0.144272 7.108294 0.605216
v 0.144244 7.102779 0.602641
v 0.144280 7.107881 0.594689
v 0.144276 7.110857 0.595930
v 0.144266 7.111912 0.602835
v -0.038975 7.102882 0.603782
v -0.038931 7.101596 0.601014
v 0.143589 7.113290 0.600598
v 0.143571 7.111209 0.604512
v -0.038976 7.105380 0.605540
v -0.038975 7.104449 0.605103
v -0.038976 7.103608 0.604512
v -0.038976 7.101861 0.602006
v -0.038989 7.101871 0.597989
v -0.038994 7.102518 0.596679
v -0.038976 7.113307 0.600012
v -0.038975 7.110348 0.605114
v 0.143585 7.105390 0.605535
v 0.143585 7.107405 0.605891
v 0.144148 7.104373 0.604514
v 0.143589 7.104986 0.594607
v 0.143585 7.106390 0.594198
v 0.143589 7.109020 0.594312
v 0.143571 7.112947 0.597971
v 0.143571 7.113216 0.598964
v -0.039676 7.102243 0.598962
v -0.039688 7.105616 0.595098
v -0.039679 7.109184 0.595022
v 0.144278 7.110313 0.604371
v -0.039675 7.107533 0.605093
v -0.039659 7.103626 0.603664
v 0.144267 7.104380 0.595603
v 0.144225 7.111287 0.601821
f 318 319 1
f 321 4 320
f 323 320 4
f 4 5 322
f 322 323 4
f 245 322 5
f 6 245 5
f 6 7 324
f 7 8 325
f 327 9 326
f 329 326 9
f 328 329 9
f 9 10 330
f 330 328 9
f 332 330 10
f 331 332 10
f 255 331 10
f 333 255 10
f 335 333 10
f 334 335 10
f 337 334 10
f 336 337 10
f 10 11 338
f 338 336 10
f 12 340 13
f 340 14 342
f 341 342 14
f 341 14 344
f 15 344 14
f 265 15 14
f 14 16 345
f 345 265 14
f 347 345 16
f 346 347 16
f 16 18 349
f 349 346 16
f 348 349 18
f 351 348 18
f 350 351 18
f 353 350 18
f 352 353 18
f 355 352 18
f 354 355 18
f 17 354 18
f 19 17 18
f 20 19 18
f 18 21 357
f 357 20 18
f 359 357 21
f 21 22 358
f 358 359 21
f 360 1 319
f 23 22 24
f 24 360 23
f 21 24 22
f 21 18 24
f 24 18 16
f 14 24 16
f 24 14 340
f 12 24 340
f 24 12 11
f 10 24 11
f 9 24 10
f 327 24 9
f 24 327 8
f 7 24 8
f 6 5 24
f 24 7 6
f 4 24 5
f 4 321 24
f 3 24 321
f 2 1 24
f 24 3 2
f 360 24 1
f 25 26 27
f 27 28 25
f 29 27 26
f 30 31 27
f 27 29 30
f 32 27 31
f 33 34 27
f 27 32 33
f 34 35 36
f 36 27 34
f 37 38 27
f 27 36 37
f 38 39 40
f 40 27 38
f 41 42 27
f 27 40 41
f 42 43 44
f 44 27 42
f 45 46 27
f 27 44 45
f 46 47 48
f 48 27 46
f 49 50 27
f 27 48 49
f 51 27 50
f 52 53 27
f 27 51 52
f 53 54 55
f 55 27 53
f 56 57 27
f 27 55 56
f 57 58 59
f 59 27 57
f 60 61 27
f 27 59 60
f 61 62 63
f 63 27 61
f 64 65 27
f 27 63 64
f 65 66 67
f 67 27 65
f 68 69 27
f 27 67 68
f 70 27 69
f 71 72 27
f 27 70 71
f 73 27 72
f 74 75 27
f 27 73 74
f 76 27 75
f 77 78 27
f 27 76 77
f 78 79 28
f 28 27 78
f 107 82 362
f 362 80 107
f 361 362 82
f 81 361 82
f 83 81 82
f 367 83 82
f 366 367 82
f 368 366 82
f 290 368 82
f 82 84 369
f 369 290 82
f 84 85 370
f 372 370 85
f 85 86 371
f 371 372 85
f 373 371 86
f 375 373 86
f 374 375 86
f 376 374 86
f 87 376 86
f 86 91 378
f 378 87 86
f 377 378 91
f 380 377 91
f 379 380 91
f 89 379 91
f 88 89 91
f 90 88 91
f 93 90 91
f 92 93 91
f 91 94 92
f 95 92 94
f 386 95 94
f 94 98 389
f 389 386 94
f 388 389 98
f 97 388 98
f 96 97 98
f 99 96 98
f 100 99 98
f 101 100 98
f 395 101 98
f 98 104 103
f 103 395 98
f 102 103 104
f 105 102 104
f 106 105 104
f 396 106 104
f 398 396 104
f 397 398 104
f 104 107 312
f 312 397 104
f 399 312 107
f 401 399 107
f 400 401 107
f 108 400 107
f 80 108 107
f 85 107 104
f 85 104 98
f 94 85 98
f 91 85 94
f 85 91 86
f 82 85 84
f 107 85 82
f 109 110 111
f 111 112 109
f 110 113 114
f 114 111 110
f 115 116 111
f 111 114 115
f 117 111 116
f 118 119 111
f 111 117 118
f 119 120 121
f 121 111 119
f 122 123 111
f 111 121 122
f 123 124 125
f 125 111 123
f 126 127 111
f 111 125 126
f 128 111 127
f 129 130 111
f 111 128 129
f 131 111 130
f 132 133 111
f 111 131 132
f 133 134 135
f 135 111 133
f 136 137 111
f 111 135 136
f 137 138 139
f 139 111 137
f 140 141 111
f 111 139 140
f 141 142 143
f 143 111 141
f 144 145 111
f 111 143 144
f 146 111 145
f 147 148 111
f 111 146 147
f 149 111 148
f 150 151 111
f 111 149 150
f 152 111 151
f 153 154 111
f 111 152 153
f 154 155 156
f 156 111 154
f 157 158 111
f 111 156 157
f 158 159 160
f 160 111 158
f 161 162 111
f 111 160 161
f 162 163 112
f 112 111 162
f 204 196 215
f 197 215 196
f 197 221 315
f 316 315 221
f 221 205 316
f 206 233 205
f 206 164 202
f 207 204 165
f 214 165 204
f 204 215 214
f 209 166 317
f 169 213 235
f 200 169 235
f 169 200 168
f 214 215 170
f 403 424 170
f 404 170 215
f 201 404 215
f 405 404 201
f 201 315 171
f 172 406 201
f 201 171 172
f 406 405 201
f 407 172 171
f 171 315 218
f 173 407 171
f 171 218 173
f 218 174 408
f 408 173 218
f 218 175 174
f 410 174 175
f 175 316 176
f 409 410 175
f 175 176 409
f 177 176 316
f 412 176 177
f 411 412 177
f 413 411 177
f 178 177 233
f 233 202 178
f 414 413 177
f 177 178 414
f 179 178 202
f 180 179 202
f 415 416 179
f 179 180 415
f 417 415 180
f 181 417 180
f 180 236 182
f 183 181 180
f 180 182 183
f 184 182 236
f 418 182 184
f 419 418 184
f 420 419 184
f 421 184 165
f 421 420 184
f 214 421 165
f 421 214 422
f 423 422 214
f 214 170 424
f 424 423 214
f 425 452 185
f 185 428 426
f 426 425 185
f 185 203 428
f 186 428 203
f 428 186 427
f 429 427 186
f 430 429 186
f 187 430 186
f 186 188 187
f 431 187 188
f 432 431 188
f 433 432 188
f 188 237 433
f 435 433 237
f 434 435 237
f 237 189 434
f 436 434 189
f 189 190 437
f 437 436 189
f 189 191 190
f 190 191 438
f 440 438 191
f 439 440 220
f 191 220 440
f 441 439 220
f 220 193 442
f 442 441 220
f 192 442 193
f 443 192 193
f 444 443 193
f 194 193 227
f 446 444 193
f 193 194 446
f 445 446 194
f 228 194 169
f 447 445 194
f 194 228 447
f 449 447 228
f 448 449 228
f 195 228 168
f 450 448 228
f 228 195 450
f 451 450 195
f 452 451 195
f 195 185 452
f 240 196 204
f 196 240 241
f 197 247 249
f 221 250 251
f 253 222 221
f 205 216 261
f 261 206 205
f 206 263 164
f 230 272 268
f 207 272 274
f 207 279 231
f 200 282 283
f 283 223 200
f 223 284 365
f 223 365 286
f 223 286 287
f 289 208 287
f 295 166 224
f 166 295 298
f 225 385 384
f 225 384 167
f 167 302 211
f 392 212 211
f 307 213 226
f 213 307 308
f 213 308 232
f 310 217 235
f 402 200 235
f 200 402 281
f 200 281 282
f 201 215 315
f 219 191 237
f 164 268 272
f 231 204 207
f 208 223 287
f 210 166 298
f 210 225 166
f 213 310 235
f 195 168 185
f 197 249 221
f 222 205 221
f 205 222 234
f 272 207 164
f 223 208 209
f 224 166 209
f 225 167 166
f 212 226 211
f 167 211 226
f 226 213 167
f 165 184 236
f 317 188 186
f 194 227 169
f 204 238 239
f 244 196 241
f 196 244 229
f 229 197 196
f 197 229 247
f 221 251 253
f 258 234 198
f 234 258 205
f 264 164 263
f 164 264 266
f 164 266 267
f 267 268 164
f 275 207 274
f 207 275 277
f 207 277 278
f 207 278 279
f 284 223 283
f 209 208 291
f 209 291 292
f 209 292 199
f 295 297 298
f 210 382 381
f 299 225 210
f 210 381 299
f 387 167 384
f 167 387 301
f 167 301 302
f 303 211 302
f 211 303 391
f 211 391 390
f 211 390 393
f 211 393 392
f 304 226 212
f 212 394 304
f 226 304 305
f 226 305 306
f 226 306 307
f 311 235 217
f 235 311 313
f 235 313 314
f 235 314 402
f 175 218 316
f 177 316 233
f 220 191 219
f 193 220 227
f 199 224 209
f 213 232 310
f 317 186 203
f 237 188 317
f 189 237 191
f 169 168 228
f 168 203 185
f 204 239 240
f 242 244 241
f 243 244 242
f 229 244 245
f 229 245 246
f 229 246 247
f 249 247 325
f 249 325 248
f 221 249 248
f 248 250 221
f 329 251 250
f 251 329 252
f 251 252 253
f 222 253 254
f 222 254 255
f 256 234 222
f 222 255 256
f 234 256 198
f 257 258 198
f 259 205 258
f 205 259 216
f 260 261 216
f 206 261 262
f 206 262 263
f 343 264 263
f 265 264 343
f 272 230 271
f 269 271 230
f 271 269 270
f 271 270 273
f 273 272 271
f 272 273 274
f 276 277 275
f 356 276 275
f 280 231 279
f 231 280 238
f 204 231 238
f 364 284 283
f 284 364 363
f 284 363 365
f 285 286 365
f 288 289 287
f 208 289 290
f 208 290 291
f 371 224 199
f 224 371 293
f 294 295 224
f 224 293 294
f 296 297 295
f 225 299 383
f 225 383 385
f 300 387 384
f 310 232 309
f 311 312 313
f 197 315 215
f 218 315 316
f 205 233 316
f 233 206 202
f 164 180 202
f 164 236 180
f 164 165 236
f 165 164 207
f 203 168 200
f 203 200 223
f 203 223 209
f 209 317 203
f 237 317 166
f 166 219 237
f 219 166 167
f 220 219 167
f 167 227 220
f 227 167 213
f 213 169 227
f 239 318 1
f 238 319 318
f 318 239 238
f 3 241 240
f 240 2 3
f 239 1 2
f 2 240 239
f 320 242 241
f 241 321 320
f 241 3 321
f 322 244 243
f 243 323 322
f 242 320 323
f 323 243 242
f 6 246 245
f 244 322 245
f 247 324 7
f 246 6 324
f 324 247 246
f 8 248 325
f 247 7 325
f 326 250 248
f 248 327 326
f 248 8 327
f 328 252 329
f 250 326 329
f 330 253 252
f 252 328 330
f 254 332 331
f 253 330 332
f 332 254 253
f 333 256 255
f 254 331 255
f 334 198 256
f 256 335 334
f 256 333 335
f 257 337 336
f 198 334 337
f 337 257 198
f 11 259 258
f 258 338 11
f 257 336 338
f 338 258 257
f 339 12 13
f 259 11 339
f 339 216 259
f 12 339 11
f 260 13 340
f 340 261 260
f 216 339 260
f 13 260 339
f 262 342 341
f 261 340 342
f 342 262 261
f 15 343 344
f 263 344 343
f 262 341 344
f 344 263 262
f 345 264 265
f 343 15 265
f 346 267 266
f 266 347 346
f 264 345 347
f 347 266 264
f 348 230 268
f 268 349 348
f 267 346 349
f 349 268 267
f 350 270 269
f 269 351 350
f 230 348 351
f 351 269 230
f 352 274 273
f 273 353 352
f 270 350 353
f 353 273 270
f 354 275 274
f 274 355 354
f 274 352 355
f 356 17 19
f 19 276 356
f 275 354 356
f 17 356 354
f 357 278 277
f 277 20 357
f 276 19 20
f 20 277 276
f 358 279 278
f 278 359 358
f 278 357 359
f 23 280 279
f 279 22 23
f 279 358 22
f 319 238 280
f 280 360 319
f 280 23 360
f 361 283 282
f 282 362 361
f 281 80 362
f 362 282 281
f 81 363 364
f 283 361 364
f 81 364 361
f 83 285 365
f 363 81 83
f 83 365 363
f 366 287 286
f 286 367 366
f 367 286 285
f 285 83 367
f 288 366 368
f 368 289 288
f 287 366 288
f 369 291 290
f 289 368 290
f 370 292 291
f 291 84 370
f 291 369 84
f 199 372 371
f 292 370 372
f 372 199 292
f 373 293 371
f 374 295 294
f 294 375 374
f 293 373 375
f 375 294 293
f 87 296 376
f 295 376 296
f 295 374 376
f 377 298 297
f 297 378 377
f 378 297 296
f 296 87 378
f 210 380 379
f 298 377 380
f 380 210 298
f 88 381 382
f 382 89 88
f 210 379 382
f 89 382 379
f 90 383 299
f 299 88 90
f 88 299 381
f 92 384 385
f 385 93 92
f 383 90 93
f 93 385 383
f 300 92 95
f 95 387 300
f 92 300 384
f 387 95 386
f 386 301 387
f 388 303 302
f 302 389 388
f 301 386 389
f 389 302 301
f 96 390 391
f 391 97 96
f 303 388 391
f 97 391 388
f 99 392 393
f 393 96 99
f 96 393 390
f 100 394 212
f 392 99 100
f 100 212 392
f 395 305 304
f 304 101 395
f 101 304 394
f 394 100 101
f 102 307 306
f 306 103 102
f 305 395 306
f 103 306 395
f 308 102 105
f 105 232 308
f 102 308 307
f 309 106 396
f 396 310 309
f 232 105 309
f 106 309 105
f 397 311 217
f 217 398 397
f 310 396 398
f 398 217 310
f 399 313 312
f 311 397 312
f 400 402 314
f 314 401 400
f 313 399 401
f 401 314 313
f 402 108 80
f 80 281 402
f 108 402 400
f 25 424 403
f 403 26 25
f 170 30 29
f 26 403 170
f 170 29 26
f 30 170 404
f 404 31 30
f 405 33 32
f 31 404 405
f 405 32 31
f 172 35 34
f 34 406 172
f 33 405 406
f 406 34 33
f 407 37 36
f 35 172 407
f 407 36 35
f 173 39 38
f 38 407 173
f 407 38 37
f 408 41 40
f 39 173 408
f 408 40 39
f 174 43 42
f 42 408 174
f 408 42 41
f 410 45 44
f 43 174 410
f 410 44 43
f 409 47 46
f 46 410 409
f 410 46 45
f 176 49 48
f 47 409 176
f 176 48 47
f 49 176 412
f 412 50 49
f 411 52 51
f 51 412 411
f 412 51 50
f 413 54 53
f 52 411 413
f 413 53 52
f 414 56 55
f 54 413 414
f 414 55 54
f 179 58 57
f 57 178 179
f 56 414 178
f 178 57 56
f 416 60 59
f 58 179 416
f 416 59 58
f 415 62 61
f 61 416 415
f 416 61 60
f 417 64 63
f 62 415 417
f 417 63 62
f 181 66 65
f 65 417 181
f 417 65 64
f 183 68 67
f 66 181 183
f 183 67 66
f 68 183 182
f 182 69 68
f 418 71 70
f 69 182 418
f 418 70 69
f 71 418 419
f 419 72 71
f 420 74 73
f 73 419 420
f 419 73 72
f 74 420 421
f 421 75 74
f 422 77 76
f 75 421 422
f 422 76 75
f 423 79 78
f 77 422 423
f 423 78 77
f 424 25 28
f 79 423 424
f 424 28 79
f 425 113 110
f 109 452 425
f 425 110 109
f 426 115 114
f 113 425 426
f 426 114 113
f 115 426 428
f 428 116 115
f 427 118 117
f 117 428 427
f 428 117 116
f 429 120 119
f 119 427 429
f 427 119 118
f 430 122 121
f 120 429 430
f 430 121 120
f 187 124 123
f 123 430 187
f 430 123 122
f 431 126 125
f 124 187 431
f 431 125 124
f 126 431 432
f 432 127 126
f 433 129 128
f 128 432 433
f 432 128 127
f 129 433 435
f 435 130 129
f 434 132 131
f 131 435 434
f 435 131 130
f 436 134 133
f 132 434 436
f 436 133 132
f 437 136 135
f 134 436 437
f 437 135 134
f 438 138 137
f 137 190 438
f 136 437 190
f 190 137 136
f 440 140 139
f 138 438 440
f 440 139 138
f 439 142 141
f 141 440 439
f 440 141 140
f 441 144 143
f 142 439 441
f 441 143 142
f 144 441 442
f 442 145 144
f 192 147 146
f 145 442 192
f 192 146 145
f 147 192 443
f 443 148 147
f 444 150 149
f 149 443 444
f 443 149 148
f 150 444 446
f 446 151 150
f 445 153 152
f 152 446 445
f 446 152 151
f 447 155 154
f 154 445 447
f 445 154 153
f 449 157 156
f 155 447 449
f 449 156 155
f 448 159 158
f 158 449 448
f 449 158 157
f 450 161 160
f 159 448 450
f 450 160 159
f 451 163 162
f 161 450 451
f 451 162 161
f 452 109 112
f 163 451 452
f 452 112 163
f 453 454 455
f 455 558 453
f 456 453 558
f 558 605 456
f 457 456 605
f 605 606 457
f 458 457 606
f 606 607 458
f 457 458 512
f 512 459 457
f 456 457 459
f 460 458 607
f 607 601 460
f 461 460 601
f 601 559 461
f 461 491 460
f 458 460 491
f 491 512 458
f 501 461 559
f 559 608 501
f 502 501 608
f 608 602 502
f 496 502 602
f 602 560 496
f 503 496 560
f 560 462 503
f 463 503 462
f 463 464 497
f 497 504 463
f 503 463 504
f 465 466 505
f 505 492 465
f 464 465 492
f 492 497 464
f 498 505 466
f 466 467 498
f 506 498 467
f 467 468 506
f 499 506 468
f 468 469 499
f 470 499 469
f 469 471 470
f 507 470 471
f 471 472 507
f 473 507 472
f 472 561 473
f 474 473 561
f 474 476 475
f 475 500 474
f 473 474 500
f 477 475 476
f 476 478 477
f 479 477 478
f 478 563 479
f 477 479 531
f 480 479 563
f 563 564 480
f 481 480 564
f 564 565 481
f 480 481 493
f 480 531 479
f 482 481 565
f 565 611 482
f 483 482 611
f 611 566 483
f 482 493 481
f 484 483 566
f 566 567 484
f 485 484 567
f 567 568 485
f 494 485 568
f 568 569 494
f 486 494 569
f 569 570 486
f 494 486 538
f 487 486 570
f 570 612 487
f 508 487 612
f 612 488 508
f 508 495 487
f 486 487 495
f 495 538 486
f 489 508 488
f 488 490 489
f 454 489 490
f 490 455 454
f 509 510 454
f 454 453 509
f 511 509 453
f 453 456 511
f 459 511 456
f 459 512 573
f 573 572 459
f 511 459 572
f 491 461 513
f 513 514 491
f 512 491 514
f 514 573 512
f 515 513 461
f 461 501 515
f 516 515 501
f 501 502 516
f 517 516 502
f 502 496 517
f 518 517 496
f 496 503 518
f 504 518 503
f 504 497 519
f 492 505 520
f 520 521 492
f 497 492 521
f 521 519 497
f 522 520 505
f 505 498 522
f 523 522 498
f 498 506 523
f 524 523 506
f 506 499 524
f 525 524 499
f 499 470 525
f 524 525 580
f 526 525 470
f 470 507 526
f 527 526 507
f 507 473 527
f 526 580 525
f 528 527 473
f 473 500 528
f 529 528 500
f 500 475 529
f 528 529 582
f 582 581 528
f 527 528 581
f 530 529 475
f 475 477 530
f 531 530 477
f 530 531 584
f 584 583 530
f 529 530 583
f 583 582 529
f 531 480 532
f 493 532 480
f 532 493 620
f 620 619 532
f 531 532 619
f 619 584 531
f 493 482 533
f 534 533 482
f 482 483 534
f 533 620 493
f 535 534 483
f 483 484 535
f 536 535 484
f 484 485 536
f 537 536 485
f 485 494 537
f 538 537 494
f 537 538 604
f 604 587 537
f 536 537 587
f 495 508 539
f 539 588 495
f 538 495 588
f 588 604 538
f 540 539 508
f 508 489 540
f 510 540 489
f 489 454 510
f 541 542 543
f 544 541 543
f 626 541 544
f 545 546 547
f 545 547 627
f 545 556 628
f 590 605 548
f 590 606 605
f 606 590 626
f 626 607 606
f 626 601 607
f 601 626 549
f 591 608 549
f 621 462 591
f 621 609 462
f 609 621 550
f 550 610 609
f 610 550 551
f 551 466 610
f 551 467 466
f 467 551 622
f 622 468 467
f 543 469 468
f 468 622 543
f 543 471 469
f 623 472 471
f 471 543 623
f 623 561 472
f 623 562 561
f 562 623 552
f 552 476 562
f 552 478 476
f 478 552 592
f 592 563 478
f 592 564 563
f 564 592 593
f 593 565 564
f 593 611 565
f 593 566 611
f 593 567 566
f 567 593 553
f 553 568 567
f 594 569 568
f 568 553 594
f 594 570 569
f 594 612 570
f 612 594 595
f 595 488 612
f 595 490 488
f 490 595 548
f 548 455 490
f 554 571 613
f 571 554 596
f 596 614 571
f 554 613 615
f 597 514 574
f 514 597 615
f 615 573 514
f 575 555 597
f 597 574 575
f 555 576 577
f 555 575 576
f 547 578 519
f 578 547 555
f 555 577 578
f 627 521 579
f 521 627 547
f 547 519 521
f 627 579 616
f 617 598 627
f 627 616 617
f 598 618 599
f 557 619 620
f 619 557 556
f 557 620 603
f 600 585 586
f 585 600 557
f 557 603 585
f 604 624 600
f 624 588 589
f 589 596 624
f 624 604 588
f 596 589 614
f 609 463 462
f 463 609 610
f 610 464 463
f 610 465 464
f 465 610 466
f 562 474 561
f 474 562 476
f 571 509 511
f 511 613 571
f 509 571 614
f 614 510 509
f 613 511 572
f 513 574 514
f 575 515 516
f 515 575 574
f 574 513 515
f 576 517 518
f 518 577 576
f 517 576 575
f 575 516 517
f 578 504 519
f 504 578 577
f 577 518 504
f 520 579 521
f 616 522 523
f 522 616 579
f 579 520 522
f 617 524 580
f 524 617 616
f 616 523 524
f 618 526 527
f 526 618 580
f 618 527 581
f 603 533 534
f 533 603 620
f 585 535 536
f 536 586 585
f 535 585 603
f 603 534 535
f 586 536 587
f 539 589 588
f 589 540 510
f 510 614 589
f 589 539 540
f 548 558 455
f 558 548 605
f 549 559 601
f 559 549 608
f 591 602 608
f 591 560 602
f 560 591 462
f 615 572 573
f 572 615 613
f 580 598 617
f 598 580 618
f 599 581 582
f 581 599 618
f 599 583 584
f 584 556 599
f 599 582 583
f 556 584 619
f 600 587 604
f 587 600 586
f 625 590 548
f 590 625 626
f 621 591 549
f 549 626 621
f 551 550 622
f 542 552 623
f 542 592 552
f 592 542 593
f 553 595 594
f 595 553 625
f 625 548 595
f 615 597 554
f 597 546 554
f 555 546 597
f 555 547 546
f 557 600 556
f 600 628 556
f 541 625 553
f 593 541 553
f 593 542 541
f 543 542 623
f 544 543 622
f 622 550 544
f 621 544 550
f 626 544 621
f 626 625 541
f 596 554 545
f 546 545 554
f 627 598 545
f 598 599 545
f 556 545 599
f 624 628 600
f 545 628 624
f 624 596 545
