# USD → MuJoCo (world-space, simplified)
v 0.003189 -0.014744 -0.046196
v 0.003691 -0.014680 -0.047618
v 0.003841 -0.014681 -0.047229
v 0.002841 -0.014741 -0.047452
v 0.003276 -0.014678 -0.048338
v 0.003503 -0.014679 -0.047989
v 0.002345 -0.014730 -0.048308
v 0.001815 -0.014727 -0.048734
v 0.001209 -0.014723 -0.049040
v 0.000263 -0.014719 -0.049212
v -0.000356 -0.014655 -0.049957
v 0.000057 -0.014658 -0.049978
v -0.000798 -0.014711 -0.049136
v -0.001431 -0.014707 -0.048890
v -0.001561 -0.014648 -0.049634
v -0.001697 -0.014714 -0.048414
v -0.002281 -0.014644 -0.049218
v -0.002231 -0.014702 -0.048309
v -0.002913 -0.014694 -0.047608
v -0.003899 -0.014634 -0.046416
v -0.003050 -0.014705 -0.046461
v -0.002966 -0.014702 -0.045278
v -0.003834 -0.014634 -0.045173
v -0.003899 -0.014634 -0.045584
v -0.003726 -0.014635 -0.044771
v -0.003164 -0.014688 -0.044566
v -0.003577 -0.014636 -0.044382
v -0.003388 -0.014637 -0.044011
v -0.002365 -0.014709 -0.043998
v -0.001701 -0.014706 -0.043266
v -0.000814 -0.014713 -0.042899
v 0.000241 -0.014718 -0.042755
v 0.000912 -0.014722 -0.042864
v 0.001678 -0.014731 -0.043348
v 0.002345 -0.014730 -0.043691
v 0.002775 -0.014733 -0.044218
v 0.003297 -0.014732 -0.045044
v 0.000057 -0.014747 -0.046000
v 0.001974 0.011822 -0.046000
v 0.001689 0.010695 -0.046155
v 0.000205 0.009252 -0.046000
v 0.001689 0.010695 -0.045845
v 0.001936 0.011822 -0.046364
v 0.001625 0.010695 -0.046458
v 0.001822 0.011823 -0.046713
v 0.001498 0.010696 -0.046742
v 0.001639 0.011824 -0.047031
v 0.001316 0.010697 -0.046993
v 0.001394 0.011826 -0.047303
v 0.001086 0.010698 -0.047200
v 0.001097 0.011827 -0.047519
v 0.000817 0.010700 -0.047355
v 0.000762 0.011829 -0.047668
v 0.000522 0.010702 -0.047451
v 0.000404 0.011832 -0.047744
v 0.000214 0.010704 -0.047484
v 0.000037 0.011834 -0.047744
v -0.000095 0.010705 -0.047451
v -0.000321 0.011836 -0.047668
v -0.000390 0.010707 -0.047355
v -0.000656 0.011838 -0.047519
v -0.000658 0.010709 -0.047200
v -0.000953 0.011840 -0.047303
v -0.000889 0.010711 -0.046993
v -0.001198 0.011842 -0.047031
v -0.001071 0.010712 -0.046742
v -0.001381 0.011843 -0.046713
v -0.001197 0.010713 -0.046458
v -0.001495 0.011843 -0.046364
v -0.001262 0.010713 -0.046155
v -0.001533 0.011844 -0.046000
v -0.001262 0.010713 -0.045845
v -0.001495 0.011843 -0.045635
v -0.001197 0.010713 -0.045541
v -0.001381 0.011843 -0.045287
v -0.001071 0.010712 -0.045258
v -0.001198 0.011842 -0.044969
v -0.000889 0.010711 -0.045007
v -0.000953 0.011840 -0.044697
v -0.000658 0.010709 -0.044800
v -0.000656 0.011838 -0.044481
v -0.000390 0.010707 -0.044645
v -0.000321 0.011836 -0.044332
v -0.000095 0.010705 -0.044549
v 0.000037 0.011834 -0.044256
v 0.000214 0.010704 -0.044516
v 0.000404 0.011832 -0.044256
v 0.000522 0.010702 -0.044549
v 0.000762 0.011829 -0.044332
v 0.000817 0.010700 -0.044645
v 0.001097 0.011827 -0.044481
v 0.001086 0.010698 -0.044800
v 0.001394 0.011826 -0.044697
v 0.001316 0.010697 -0.045007
v 0.001639 0.011824 -0.044969
v 0.001498 0.010696 -0.045258
v 0.001822 0.011823 -0.045287
v 0.001625 0.010695 -0.045541
v 0.001936 0.011822 -0.045635
v 0.003265 -0.014736 0.045477
v 0.003950 -0.014682 0.045175
v 0.004014 -0.014683 0.045587
v 0.004036 -0.014683 0.046003
v 0.003842 -0.014681 0.044773
v 0.003693 -0.014680 0.044384
v 0.002927 -0.014738 0.044808
v 0.003504 -0.014679 0.044013
v 0.002910 -0.014725 0.043927
v 0.003278 -0.014678 0.043663
v 0.002345 -0.014730 0.043692
v 0.003016 -0.014677 0.043340
v 0.002721 -0.014675 0.043045
v 0.001816 -0.014727 0.043266
v 0.002049 -0.014670 0.042556
v 0.002398 -0.014673 0.042783
v 0.001209 -0.014723 0.042960
v 0.001678 -0.014668 0.042366
v 0.001289 -0.014665 0.042217
v 0.000263 -0.014719 0.042788
v 0.000476 -0.014661 0.042043
v 0.000887 -0.014663 0.042109
v -0.000356 -0.014655 0.042043
v 0.000060 -0.014658 0.042021
v -0.001061 -0.014711 0.042979
v -0.002193 -0.014704 0.043697
v -0.002846 -0.014699 0.044537
v -0.003086 -0.014697 0.045172
v -0.003834 -0.014634 0.045173
v -0.003726 -0.014635 0.044771
v -0.002910 -0.014707 0.045688
v -0.003899 -0.014634 0.045584
v -0.003469 -0.014686 0.046000
v -0.003921 -0.014634 0.046000
v -0.003151 -0.014697 0.046523
v -0.003834 -0.014634 0.046827
v -0.003899 -0.014634 0.046416
v -0.003726 -0.014635 0.047229
v -0.002750 -0.014703 0.047335
v -0.003578 -0.014635 0.047616
v -0.003389 -0.014637 0.047987
v -0.002478 -0.014701 0.048035
v -0.002302 -0.014693 0.048621
v -0.001701 -0.014706 0.048734
v -0.000814 -0.014713 0.049102
v 0.000241 -0.014718 0.049245
v 0.000912 -0.014722 0.049136
v 0.001287 -0.014666 0.049783
v 0.000885 -0.014663 0.049891
v 0.001543 -0.014730 0.048730
v 0.002345 -0.014730 0.048309
v 0.002396 -0.014673 0.049218
v 0.002837 -0.014735 0.047707
v 0.003276 -0.014678 0.048338
v 0.003502 -0.014679 0.047992
v 0.003232 -0.014738 0.046543
v 0.004014 -0.014683 0.046418
v 0.000057 -0.014747 0.046000
v 0.001974 0.011822 0.046000
v 0.001689 0.010695 0.045845
v 0.000205 0.009252 0.046000
v 0.001689 0.010695 0.046155
v 0.001936 0.011822 0.045635
v 0.001625 0.010695 0.045542
v 0.001822 0.011823 0.045287
v 0.001498 0.010696 0.045258
v 0.001639 0.011824 0.044969
v 0.001316 0.010697 0.045007
v 0.001394 0.011826 0.044697
v 0.001086 0.010698 0.044800
v 0.001097 0.011827 0.044481
v 0.000817 0.010700 0.044645
v 0.000762 0.011829 0.044332
v 0.000522 0.010702 0.044549
v 0.000404 0.011832 0.044256
v 0.000214 0.010704 0.044516
v 0.000037 0.011834 0.044256
v -0.000095 0.010705 0.044549
v -0.000321 0.011836 0.044332
v -0.000390 0.010707 0.044645
v -0.000656 0.011838 0.044481
v -0.000658 0.010709 0.044800
v -0.000953 0.011840 0.044697
v -0.000889 0.010711 0.045007
v -0.001198 0.011841 0.044969
v -0.001071 0.010712 0.045258
v -0.001381 0.011843 0.045287
v -0.001197 0.010713 0.045542
v -0.001495 0.011843 0.045635
v -0.001262 0.010713 0.045845
v -0.001533 0.011844 0.046000
v -0.001262 0.010713 0.046155
v -0.001495 0.011843 0.046365
v -0.001197 0.010713 0.046459
v -0.001381 0.011843 0.046713
v -0.001071 0.010712 0.046742
v -0.001198 0.011841 0.047031
v -0.000889 0.010711 0.046993
v -0.000953 0.011840 0.047303
v -0.000658 0.010709 0.047200
v -0.000656 0.011838 0.047519
v -0.000390 0.010707 0.047355
v -0.000321 0.011836 0.047668
v -0.000095 0.010705 0.047451
v 0.000037 0.011834 0.047744
v 0.000214 0.010704 0.047484
v 0.000404 0.011832 0.047744
v 0.000522 0.010702 0.047451
v 0.000762 0.011829 0.047668
v 0.000817 0.010700 0.047355
v 0.001097 0.011827 0.047519
v 0.001086 0.010698 0.047200
v 0.001394 0.011826 0.047303
v 0.001316 0.010697 0.046993
v 0.001639 0.011824 0.047031
v 0.001498 0.010696 0.046742
v 0.001822 0.011823 0.046713
v 0.001625 0.010695 0.046459
v 0.001936 0.011822 0.046365
v 0.000665 0.021243 -0.048186
v 0.000484 0.021231 -0.043774
v 0.002747 0.021229 -0.043116
v 0.003452 0.021231 -0.044036
v -0.002650 0.021266 0.043639
v -0.001415 0.021257 0.049359
v 0.002984 0.021235 0.048582
v 0.002185 0.020893 -0.046511
v 0.002083 0.020883 -0.046805
v 0.001989 0.020883 -0.046989
v 0.001811 0.020884 -0.047243
v 0.001521 0.020908 -0.047537
v 0.001265 0.020888 -0.047713
v 0.001229 0.015052 -0.047713
v 0.001403 0.015051 -0.047600
v 0.001045 0.015053 -0.047807
v 0.000447 0.015057 -0.047967
v 0.000145 0.020975 -0.047987
v 0.000240 0.015059 -0.047978
v -0.000432 0.020909 -0.047845
v -0.000913 0.020918 -0.047571
v -0.001260 0.020925 -0.047244
v -0.001484 0.020916 -0.046897
v -0.001605 0.020905 -0.046611
v -0.001669 0.020923 -0.046361
v -0.001703 0.020943 -0.045974
v -0.001640 0.020906 -0.045540
v -0.001695 0.015070 -0.045589
v -0.001475 0.020943 -0.045078
v -0.001108 0.020960 -0.044568
v -0.000713 0.020900 -0.044287
v -0.000211 0.020873 -0.044069
v -0.000371 0.015062 -0.044119
v -0.000564 0.015063 -0.044193
v 0.000034 0.015060 -0.044033
v -0.000171 0.015061 -0.044065
v 0.000342 0.020937 -0.044018
v 0.000611 0.020907 -0.044054
v 0.001125 0.020889 -0.044221
v 0.001519 0.020886 -0.044465
v 0.001795 0.020904 -0.044736
v 0.001989 0.020883 -0.045011
v 0.002121 0.020882 -0.045292
v 0.002229 0.020904 -0.045691
v 0.002249 0.020882 0.045897
v 0.002134 0.020888 0.045342
v 0.001217 0.020894 0.044268
v 0.001229 0.015052 0.044287
v 0.001403 0.015051 0.044400
v 0.000635 0.020892 0.044062
v 0.000646 0.021227 0.043890
v 0.000447 0.015057 0.044033
v 0.000173 0.020917 0.044025
v 0.000240 0.015059 0.044022
v -0.000235 0.020908 0.044091
v -0.000646 0.020923 0.044247
v -0.000968 0.020923 0.044463
v -0.001407 0.020929 0.044936
v -0.001632 0.020906 0.045489
v -0.001696 0.020906 0.045897
v -0.001695 0.015070 0.046411
v -0.001638 0.020974 0.046546
v -0.001381 0.020915 0.047076
v -0.000953 0.020934 0.047567
v -0.000432 0.020909 0.047845
v -0.000371 0.015062 0.047881
v -0.000564 0.015063 0.047807
v -0.000135 0.020896 0.047935
v 0.000173 0.020906 0.047974
v 0.000034 0.015059 0.047967
v -0.000171 0.015061 0.047935
v 0.000662 0.020915 0.047939
v 0.001552 0.020867 0.047529
v 0.001948 0.020894 0.047055
v 0.002207 0.020890 0.046489
v 0.004247 0.021008 -0.046049
v 0.004083 0.021143 -0.046742
v 0.004055 0.020997 -0.047234
v 0.003905 0.020998 -0.047623
v 0.002945 0.021035 -0.048942
v 0.001889 0.021014 -0.049630
v 0.001075 0.021229 -0.049714
v -0.000124 0.021053 -0.049952
v 0.003797 0.021210 0.044585
v -0.003286 0.021272 0.044856
v 0.001222 0.021246 0.049607
v 0.003707 0.021177 0.047720
v 0.004041 0.021223 0.046197
v 0.002190 0.021030 -0.046650
v -0.000911 0.021131 -0.047699
v -0.001530 0.021086 -0.046917
v -0.000335 0.021206 -0.043958
v 0.001991 0.021026 -0.044948
v 0.001562 0.021194 0.044313
v -0.001314 0.021037 0.047222
v 0.003935 0.021229 -0.046730
v 0.003435 0.021217 -0.048094
v 0.002791 0.021215 -0.048889
v 0.002626 0.021077 -0.049200
v 0.002272 0.021154 -0.049325
v 0.000191 0.021252 -0.049718
v -0.000547 0.021077 -0.049884
v -0.001724 0.021258 -0.049196
v -0.003316 0.021271 -0.047064
v -0.003466 0.021271 -0.045717
v -0.003253 0.021181 -0.044343
v -0.002538 0.021270 -0.043567
v -0.001521 0.021264 -0.042740
v 0.001052 0.021173 -0.042193
v 0.003092 0.021233 0.043553
v 0.002482 0.021153 0.042811
v -0.003594 0.021180 0.045712
v -0.003377 0.021274 0.046807
v -0.002943 0.021272 0.047960
v 0.002165 0.021241 0.049232
v 0.001872 0.020991 -0.047191
v 0.001084 0.020936 -0.047814
v 0.000635 0.020959 -0.047952
v -0.000010 0.021058 -0.044008
v 0.001070 0.021128 -0.044093
v -0.002537 0.021042 -0.048811
v -0.002873 0.021199 -0.048190
v -0.003400 0.021189 -0.047235
v -0.002792 0.021019 -0.043471
v 0.002595 0.021018 -0.042774
v 0.003907 0.021002 -0.044388
v 0.004227 0.021000 -0.045589
v 0.004199 0.020976 0.045342
v -0.002667 0.021075 0.048662
v -0.000162 0.021215 0.049828
v 0.001110 0.021015 0.049886
v 0.002269 0.020982 0.049439
v 0.003469 0.020995 0.048364
v 0.002454 0.021231 -0.046414
v 0.002141 0.021232 -0.047230
v 0.001388 0.021139 -0.047776
v -0.000137 0.021134 -0.048012
v -0.001977 0.021264 -0.046196
v -0.001692 0.021197 -0.045300
v -0.001359 0.021243 -0.044564
v 0.001681 0.021231 -0.044313
v 0.002319 0.021120 0.045799
v 0.002167 0.021228 0.044846
v -0.000927 0.021211 0.044201
v -0.001287 0.021133 0.044642
v -0.001909 0.021250 0.046233
v -0.001611 0.021164 0.046929
v -0.001292 0.021245 0.047567
v -0.000629 0.021137 0.047862
v 0.000050 0.021132 0.048051
v 0.001123 0.021207 0.048011
v 0.002029 0.021209 0.047295
v -0.000542 0.021251 -0.042314
v 0.004016 0.021213 -0.045416
v 0.002014 0.021241 0.042656
v 0.000037 0.021253 0.042272
v -0.001416 0.021236 0.042673
v 0.002256 0.020905 -0.046078
v -0.001797 0.021134 -0.046158
v 0.002246 0.021050 -0.045542
v 0.002003 0.020936 0.045033
v 0.001657 0.020920 0.044582
v -0.001559 0.021058 0.045155
v -0.002062 0.021081 -0.042793
v 0.001900 0.021010 -0.042372
v 0.003091 0.021019 -0.043189
v 0.004055 0.020971 0.044766
v 0.000688 0.021022 0.042050
v 0.000033 0.021002 0.042031
v -0.000556 0.020999 0.042114
v -0.000843 0.021168 0.042287
v -0.001494 0.021259 -0.047371
v -0.000143 0.021065 -0.042051
v 0.000271 0.021062 -0.042029
v 0.001053 0.021080 0.042108
v -0.002314 0.021172 0.043082
v -0.001778 0.021127 0.045957
v 0.001108 0.020936 0.047802
v 0.001703 0.021033 0.047421
v 0.002220 0.021029 0.046592
v 0.004229 0.020912 -0.046421
v 0.004226 0.016469 -0.046000
v 0.004163 0.020913 -0.046833
v 0.003718 0.020903 -0.047991
v 0.003426 0.009816 -0.048338
v 0.003502 0.020996 -0.048319
v 0.003242 0.020998 -0.048644
v 0.003204 0.016476 -0.048661
v 0.002910 0.016478 -0.048955
v 0.002587 0.016479 -0.049217
v 0.002258 0.020924 -0.049445
v 0.001867 0.016484 -0.049633
v 0.001499 0.020929 -0.049782
v 0.001101 0.021011 -0.049888
v 0.000690 0.021013 -0.049953
v 0.000296 0.021016 -0.049972
v -0.000166 0.016497 -0.049955
v -0.000578 0.016499 -0.049890
v -0.000953 0.021023 -0.049779
v -0.001325 0.021061 -0.049634
v -0.001409 0.009845 -0.049633
v -0.001712 0.021044 -0.049441
v -0.002041 0.021046 -0.049226
v -0.002130 0.009850 -0.049218
v -0.002412 0.016510 -0.048955
v -0.002706 0.016512 -0.048661
v -0.002942 0.020957 -0.048331
v -0.003168 0.020958 -0.047982
v -0.003355 0.021054 -0.047615
v -0.003503 0.021055 -0.047226
v -0.003612 0.020960 -0.046820
v -0.003671 0.021056 -0.046436
v -0.003747 0.009860 -0.046416
v -0.003727 0.016519 -0.046000
v -0.003695 0.021056 -0.046020
v -0.003666 0.021160 -0.045554
v -0.003706 0.016518 -0.045584
v -0.003640 0.016518 -0.045173
v -0.003562 0.021062 -0.044961
v -0.003533 0.016517 -0.044771
v -0.003352 0.020959 -0.044378
v -0.003173 0.021053 -0.044032
v -0.003236 0.009857 -0.044011
v -0.002968 0.016514 -0.043663
v -0.002706 0.016512 -0.043339
v -0.002378 0.020952 -0.043042
v -0.002088 0.016508 -0.042783
v -0.001705 0.021006 -0.042555
v -0.001334 0.021004 -0.042367
v -0.000945 0.021001 -0.042218
v -0.000544 0.020942 -0.042111
v -0.000166 0.016497 -0.042045
v 0.000249 0.016494 -0.042023
v 0.000695 0.021013 -0.042047
v 0.001106 0.021011 -0.042113
v 0.001507 0.021008 -0.042221
v 0.002269 0.020925 -0.042561
v 0.002587 0.016479 -0.042783
v 0.002910 0.016478 -0.043045
v 0.003204 0.016476 -0.043339
v 0.003466 0.016474 -0.043663
v 0.003632 0.020995 -0.043866
v 0.003693 0.016473 -0.044012
v 0.003882 0.016472 -0.044383
v 0.004031 0.016470 -0.044771
v 0.004139 0.016470 -0.045173
v 0.004128 0.020992 -0.045009
v 0.004204 0.016469 -0.045584
v 0.004250 0.020976 0.046171
v 0.004226 0.016469 0.046000
v 0.004204 0.016469 0.045584
v 0.004139 0.016470 0.045173
v 0.003905 0.020914 0.044378
v 0.003727 0.021011 0.044032
v 0.003693 0.016473 0.044012
v 0.003466 0.016474 0.043663
v 0.003353 0.021055 0.043478
v 0.003204 0.016476 0.043339
v 0.002910 0.016478 0.043045
v 0.002961 0.021119 0.043073
v 0.002666 0.021060 0.042825
v 0.002587 0.016479 0.042783
v 0.002259 0.020924 0.042555
v 0.001891 0.021006 0.042368
v 0.001503 0.021008 0.042219
v 0.001076 0.016489 0.042110
v 0.000665 0.016491 0.042045
v 0.000249 0.016494 0.042023
v -0.000166 0.016497 0.042045
v -0.000980 0.016501 0.042218
v -0.001182 0.020967 0.042300
v -0.001368 0.016504 0.042367
v -0.001739 0.016506 0.042556
v -0.001697 0.021063 0.042553
v -0.002088 0.016508 0.042783
v -0.002412 0.016510 0.043045
v -0.002234 0.021054 0.042916
v -0.002661 0.021050 0.043327
v -0.002706 0.016512 0.043339
v -0.002968 0.016514 0.043663
v -0.003076 0.021023 0.043862
v -0.003195 0.016515 0.044012
v -0.003355 0.021054 0.044385
v -0.003503 0.021055 0.044774
v -0.003611 0.021055 0.045176
v -0.003676 0.021074 0.045588
v -0.003697 0.021018 0.046006
v -0.003675 0.021018 0.046422
v -0.003609 0.021018 0.046833
v -0.003500 0.021022 0.047229
v -0.003574 0.009859 0.047229
v -0.003384 0.016516 0.047617
v -0.003352 0.020975 0.047616
v -0.003173 0.021037 0.047969
v -0.003195 0.016515 0.047988
v -0.002968 0.016514 0.048337
v -0.002948 0.021036 0.048320
v -0.002706 0.016512 0.048661
v -0.002378 0.020952 0.048958
v -0.002057 0.021013 0.049214
v -0.002088 0.016508 0.049217
v -0.001739 0.016506 0.049444
v -0.001669 0.021058 0.049461
v -0.001368 0.016504 0.049633
v -0.000980 0.016501 0.049782
v -0.001116 0.020986 0.049725
v -0.000578 0.016499 0.049890
v -0.000166 0.016497 0.049955
v -0.000328 0.021030 0.049931
v 0.000249 0.016494 0.049977
v 0.000665 0.016491 0.049955
v 0.000524 0.021019 0.049969
v 0.001437 0.009828 0.049783
v 0.001734 0.020991 0.049700
v 0.001867 0.016484 0.049633
v 0.002546 0.009821 0.049218
v 0.002910 0.016478 0.048955
v 0.002807 0.020987 0.049068
v 0.003232 0.021014 0.048658
v 0.003693 0.016473 0.047988
v 0.003882 0.016471 0.047617
v 0.003836 0.020978 0.047773
v 0.004059 0.020971 0.047222
v 0.004166 0.020970 0.046820
v 0.004204 0.016469 0.046416
v -0.000695 0.021256 -0.048060
v 0.002458 0.021236 -0.045307
v -0.000255 0.021194 0.043964
v -0.001773 0.021260 0.044997
v -0.000097 0.021241 0.048191
v 0.002551 0.021231 0.046056
v 0.003950 -0.014682 -0.046825
v 0.004014 -0.014682 -0.046413
v 0.004036 -0.014683 -0.045997
v 0.003801 0.003155 -0.047618
v 0.003951 0.003154 -0.047229
v 0.002721 -0.014675 -0.048955
v 0.003016 -0.014677 -0.048660
v 0.002049 -0.014670 -0.049444
v 0.002398 -0.014673 -0.049217
v 0.001289 -0.014666 -0.049783
v 0.001678 -0.014668 -0.049634
v 0.000476 -0.014661 -0.049957
v 0.000887 -0.014663 -0.049891
v 0.000208 0.009835 -0.049977
v -0.001170 -0.014650 -0.049785
v -0.000767 -0.014653 -0.049892
v -0.001930 -0.014646 -0.049447
v -0.002603 -0.014642 -0.048958
v -0.003160 -0.014638 -0.048341
v -0.002898 -0.014640 -0.048664
v -0.003576 -0.014635 -0.047620
v -0.003387 -0.014637 -0.047992
v -0.003834 -0.014634 -0.046829
v -0.003725 -0.014635 -0.047232
v -0.003921 -0.014634 -0.046003
v -0.003724 0.003201 -0.045173
v -0.003789 0.003201 -0.045584
v -0.003467 0.003199 -0.044382
v -0.003616 0.003201 -0.044771
v -0.003163 -0.014638 -0.043663
v -0.002607 -0.014642 -0.043045
v -0.002901 -0.014640 -0.043339
v -0.001934 -0.014646 -0.042556
v -0.002283 -0.014644 -0.042783
v -0.001174 -0.014650 -0.042217
v -0.001563 -0.014648 -0.042366
v -0.000361 -0.014655 -0.042043
v -0.000772 -0.014653 -0.042109
v 0.000471 -0.014661 -0.042043
v 0.000055 -0.014658 -0.042021
v 0.001284 -0.014665 -0.042215
v 0.000882 -0.014663 -0.042108
v 0.002045 -0.014670 -0.042553
v 0.001674 -0.014668 -0.042364
v 0.002718 -0.014675 -0.043042
v 0.002394 -0.014673 -0.042780
v 0.003275 -0.014678 -0.043660
v 0.003012 -0.014677 -0.043336
v 0.003691 -0.014680 -0.044379
v 0.003502 -0.014679 -0.044008
v 0.003949 -0.014682 -0.045170
v 0.003840 -0.014681 -0.044768
v 0.004014 -0.014682 -0.045582
v -0.001170 -0.014650 0.042215
v -0.000767 -0.014653 0.042108
v -0.001930 -0.014646 0.042553
v -0.001558 -0.014648 0.042364
v -0.002603 -0.014642 0.043042
v -0.002279 -0.014644 0.042780
v -0.003160 -0.014638 0.043660
v -0.002897 -0.014640 0.043336
v -0.003576 -0.014635 0.044380
v -0.003387 -0.014637 0.044009
v -0.003724 0.003201 0.045173
v -0.003616 0.003200 0.044771
v -0.003811 0.003201 0.046000
v -0.003789 0.003201 0.045584
v -0.003724 0.003201 0.046827
v -0.003789 0.003201 0.046416
v -0.003163 -0.014638 0.048336
v -0.002607 -0.014642 0.048955
v -0.002901 -0.014640 0.048660
v -0.001934 -0.014646 0.049445
v -0.002283 -0.014644 0.049217
v -0.001174 -0.014650 0.049783
v -0.001563 -0.014648 0.049634
v -0.000361 -0.014655 0.049957
v -0.000772 -0.014653 0.049891
v 0.000471 -0.014661 0.049957
v 0.000055 -0.014658 0.049979
v 0.000994 0.003172 0.049891
v 0.002044 -0.014670 0.049447
v 0.001673 -0.014668 0.049636
v 0.002718 -0.014675 0.048958
v 0.003426 0.009816 0.048338
v 0.003012 -0.014677 0.048664
v 0.003691 -0.014680 0.047621
v 0.003949 -0.014682 0.046830
v 0.003840 -0.014681 0.047232
v 0.002175 0.015046 -0.046411
v 0.002208 0.015047 -0.046207
v 0.002218 0.015046 -0.046000
v 0.002047 0.015047 -0.046805
v 0.002122 0.015047 -0.046611
v 0.001841 0.015049 -0.047163
v 0.001953 0.015048 -0.046989
v 0.001564 0.015050 -0.047470
v 0.001710 0.015049 -0.047324
v 0.000852 0.015055 -0.047881
v 0.000652 0.015056 -0.047935
v 0.000034 0.015060 -0.047967
v -0.000371 0.015062 -0.047881
v -0.000171 0.015061 -0.047935
v -0.000749 0.015065 -0.047713
v -0.000564 0.015063 -0.047807
v -0.001083 0.015067 -0.047470
v -0.000922 0.015066 -0.047600
v -0.001360 0.015068 -0.047163
v -0.001230 0.015067 -0.047324
v -0.001567 0.015069 -0.046805
v -0.001473 0.015069 -0.046989
v -0.001695 0.015071 -0.046411
v -0.001641 0.015070 -0.046611
v -0.001738 0.015070 -0.046000
v -0.001727 0.015071 -0.046207
v -0.001727 0.015070 -0.045793
v -0.001567 0.015069 -0.045195
v -0.001641 0.015070 -0.045389
v -0.001360 0.015068 -0.044837
v -0.001473 0.015069 -0.045011
v -0.001083 0.015066 -0.044530
v -0.001230 0.015067 -0.044676
v -0.000749 0.015065 -0.044287
v -0.000922 0.015066 -0.044400
v 0.000447 0.015057 -0.044033
v 0.000240 0.015059 -0.044022
v 0.000852 0.015055 -0.044119
v 0.000652 0.015056 -0.044065
v 0.001229 0.015052 -0.044287
v 0.001045 0.015053 -0.044193
v 0.001564 0.015050 -0.044530
v 0.001403 0.015051 -0.044400
v 0.001841 0.015049 -0.044837
v 0.001710 0.015049 -0.044676
v 0.002047 0.015047 -0.045195
v 0.001953 0.015048 -0.045011
v 0.002175 0.015046 -0.045589
v 0.002122 0.015047 -0.045389
v 0.002208 0.015047 -0.045793
v 0.002175 0.015046 0.045589
v 0.002208 0.015047 0.045793
v 0.002218 0.015046 0.046000
v 0.002047 0.015047 0.045195
v 0.002122 0.015047 0.045389
v 0.001841 0.015049 0.044837
v 0.001953 0.015048 0.045011
v 0.001564 0.015050 0.044530
v 0.001710 0.015049 0.044676
v 0.000852 0.015055 0.044119
v 0.001045 0.015053 0.044193
v 0.000652 0.015056 0.044065
v 0.000034 0.015059 0.044033
v -0.000371 0.015062 0.044119
v -0.000171 0.015061 0.044065
v -0.000749 0.015065 0.044287
v -0.000564 0.015063 0.044193
v -0.001083 0.015067 0.044530
v -0.000922 0.015066 0.044400
v -0.001360 0.015068 0.044837
v -0.001230 0.015067 0.044676
v -0.001567 0.015069 0.045195
v -0.001473 0.015069 0.045011
v -0.001695 0.015070 0.045589
v -0.001641 0.015070 0.045389
v -0.001738 0.015070 0.046000
v -0.001727 0.015071 0.045793
v -0.001727 0.015070 0.046207
v -0.001567 0.015069 0.046805
v -0.001641 0.015070 0.046611
v -0.001360 0.015068 0.047163
v -0.001473 0.015069 0.046989
v -0.001083 0.015066 0.047470
v -0.001230 0.015067 0.047324
v -0.000749 0.015065 0.047713
v -0.000922 0.015066 0.047600
v 0.000447 0.015057 0.047967
v 0.000240 0.015059 0.047978
v 0.000852 0.015055 0.047881
v 0.000652 0.015056 0.047935
v 0.001229 0.015052 0.047713
v 0.001045 0.015053 0.047807
v 0.001564 0.015050 0.047470
v 0.001403 0.015051 0.047600
v 0.001841 0.015049 0.047163
v 0.001710 0.015049 0.047324
v 0.002047 0.015047 0.046805
v 0.001953 0.015048 0.046989
v 0.002175 0.015046 0.046411
v 0.002122 0.015047 0.046611
v 0.002208 0.015047 0.046207
v 0.005819 -0.016390 0.073139
v 0.005909 -0.015364 0.073139
v 0.005906 -0.015364 0.086612
v 0.005815 -0.016389 0.086612
v 0.005549 -0.017384 0.086612
v 0.005909 -0.015364 -0.073119
v 0.005117 -0.018318 0.073139
v 0.005114 -0.018316 0.086612
v 0.004524 -0.019160 0.086612
v 0.005117 -0.018318 -0.073178
v 0.003796 -0.019887 0.086612
v 0.002955 -0.020482 0.073139
v 0.002953 -0.020478 0.086612
v 0.002955 -0.020482 -0.073138
v 0.002021 -0.020916 0.073139
v 0.002020 -0.020913 0.086612
v 0.001026 -0.021183 0.073139
v 0.001025 -0.021180 0.086612
v -0.000000 -0.021273 0.073139
v -0.000000 -0.021269 0.086612
v -0.001026 -0.021183 0.073139
v -0.001026 -0.021180 0.086612
v -0.002021 -0.020916 0.073139
v -0.002020 -0.020913 0.086612
v -0.002955 -0.020482 0.073139
v -0.002953 -0.020478 0.086612
v -0.002955 -0.020482 -0.073115
v -0.003798 -0.019890 0.073139
v -0.003796 -0.019887 0.086612
v -0.004527 -0.019163 0.073139
v -0.004524 -0.019160 0.086612
v -0.005114 -0.018316 0.086612
v -0.005553 -0.017385 0.073139
v -0.005550 -0.017384 0.086612
v -0.005819 -0.016390 0.073139
v -0.005815 -0.016389 0.086612
v -0.005910 -0.015364 0.073139
v -0.005906 -0.015364 0.086612
v -0.005815 -0.014338 0.086612
v -0.005553 -0.013343 0.073139
v -0.005550 -0.013344 0.086612
v -0.005819 -0.014338 0.072911
v -0.005117 -0.012410 0.073139
v -0.005114 -0.012412 0.086612
v -0.004524 -0.011568 0.086612
v -0.003798 -0.010838 0.073069
v -0.003796 -0.010840 0.086612
v -0.002955 -0.010246 0.073139
v -0.002953 -0.010249 0.086612
v -0.002021 -0.009811 0.073139
v -0.002020 -0.009815 0.086612
v -0.001023 -0.009546 0.085512
v -0.001026 -0.009544 0.045942
v 0.000003 -0.009457 0.085541
v 0.001029 -0.009547 0.085744
v 0.002023 -0.009814 0.085599
v 0.002955 -0.010246 0.073139
v 0.002953 -0.010249 0.086612
v 0.002021 -0.009811 0.055085
v 0.003796 -0.010840 0.086612
v 0.004527 -0.011565 0.073139
v 0.004524 -0.011568 0.086612
v 0.003798 -0.010838 0.073133
v 0.005114 -0.012412 0.086612
v 0.005553 -0.013343 0.073139
v 0.005549 -0.013344 0.086612
v 0.005819 -0.014338 0.073139
v 0.005815 -0.014338 0.086612
v 0.005819 -0.014337 -0.073025
v -0.002021 -0.020916 -0.073138
v -0.000000 -0.009455 0.032171
v 0.001026 -0.009544 0.041342
v -0.000000 -0.021273 -0.073138
v -0.005553 -0.017385 -0.073138
v -0.001026 -0.009544 -0.073138
v -0.000000 -0.009455 -0.073138
v 0.005553 -0.017385 0.073139
v 0.004527 -0.019163 0.072583
v 0.003799 -0.019890 0.072640
v 0.002021 -0.020916 -0.030424
v -0.004527 -0.019162 -0.072210
v -0.005117 -0.018319 0.072781
v -0.004527 -0.011565 0.073180
v -0.005117 -0.012410 -0.073593
v 0.005117 -0.012410 0.072957
v 0.005819 -0.016390 -0.073138
v 0.005553 -0.017385 -0.073138
v 0.005549 -0.017384 -0.086612
v 0.005815 -0.016389 -0.086612
v 0.005906 -0.015364 -0.086612
v 0.004527 -0.019162 -0.064112
v 0.004524 -0.019160 -0.086612
v 0.005114 -0.018316 -0.086612
v 0.002958 -0.020469 -0.091106
v 0.003799 -0.019887 -0.085526
v 0.001026 -0.021183 -0.073138
v 0.001025 -0.021180 -0.086612
v 0.002023 -0.020913 -0.085414
v -0.001026 -0.021183 -0.073138
v -0.001026 -0.021180 -0.086612
v -0.000000 -0.021269 -0.086612
v -0.002953 -0.020478 -0.086612
v -0.002020 -0.020913 -0.086612
v -0.003798 -0.019890 -0.073095
v -0.004524 -0.019160 -0.086612
v -0.003796 -0.019887 -0.086612
v -0.005117 -0.018318 -0.073138
v -0.005550 -0.017384 -0.086612
v -0.005114 -0.018316 -0.086612
v -0.005819 -0.016390 -0.073138
v -0.005910 -0.015364 -0.073138
v -0.005906 -0.015364 -0.086612
v -0.005815 -0.016389 -0.086612
v -0.005819 -0.014338 -0.073138
v -0.005553 -0.013343 -0.072995
v -0.005550 -0.013344 -0.086612
v -0.005815 -0.014338 -0.086612
v -0.004527 -0.011565 -0.073138
v -0.004524 -0.011568 -0.086612
v -0.005114 -0.012412 -0.086612
v -0.003798 -0.010838 -0.073138
v -0.002955 -0.010246 -0.073127
v -0.002953 -0.010249 -0.086612
v -0.003796 -0.010840 -0.086612
v -0.002021 -0.009811 -0.073138
v -0.001026 -0.009548 -0.086612
v -0.002020 -0.009815 -0.086612
v 0.001026 -0.009544 -0.073138
v 0.001025 -0.009548 -0.086612
v -0.000000 -0.009459 -0.086612
v 0.002021 -0.009811 -0.073138
v 0.002955 -0.010246 -0.073138
v 0.002953 -0.010249 -0.086612
v 0.002020 -0.009815 -0.086612
v 0.003798 -0.010838 -0.073138
v 0.004527 -0.011565 -0.073008
v 0.004524 -0.011568 -0.086612
v 0.003796 -0.010840 -0.086612
v 0.005117 -0.012409 -0.073138
v 0.005553 -0.013343 -0.073092
v 0.005549 -0.013344 -0.086612
v 0.005114 -0.012412 -0.086612
v 0.005815 -0.014338 -0.086612
v -0.000000 -0.015364 0.091900
v -0.000096 -0.011959 0.091913
v -0.002443 -0.012882 0.091917
v -0.003467 -0.015033 0.091917
v 0.003330 -0.016239 0.091912
v -0.000000 -0.015364 -0.091900
v 0.003322 -0.016144 -0.091913
v 0.002042 -0.018097 -0.091913
v -0.000192 -0.018771 -0.091913
v -0.003170 -0.016428 -0.091909
v -0.002854 -0.013494 -0.091913
v -0.001411 -0.011979 -0.091920
v 0.000444 -0.012035 -0.091915
v 0.002830 -0.013403 -0.091912
v 0.005367 -0.015351 0.091879
v 0.004119 -0.018804 0.091879
v 0.003459 -0.019467 0.091879
v 0.001848 -0.020401 0.091879
v -0.005366 -0.014923 0.091881
v -0.003827 -0.011577 0.091881
v -0.000497 -0.010002 0.091880
v 0.002259 -0.010476 0.091881
v 0.004103 -0.011905 0.091879
v 0.005038 -0.017211 -0.091879
v 0.004395 -0.018475 -0.091881
v 0.002673 -0.020018 -0.091879
v -0.000944 -0.020647 -0.091879
v -0.004654 -0.018036 -0.091879
v -0.005047 -0.017187 -0.091879
v -0.005367 -0.015351 -0.091879
v -0.005194 -0.013943 -0.091881
v -0.004103 -0.011905 -0.091879
v -0.002279 -0.010474 -0.091872
v 0.000497 -0.010002 -0.091880
v 0.004119 -0.011924 -0.091879
v 0.005206 -0.013987 -0.091881
v 0.005784 -0.016384 0.091235
v 0.005873 -0.015364 0.091235
v 0.005734 -0.016375 0.091362
v 0.005823 -0.015364 0.091362
v 0.005472 -0.017356 0.091362
v 0.005519 -0.017373 0.091235
v 0.005086 -0.018300 0.091235
v 0.005043 -0.018275 0.091362
v 0.004461 -0.019107 0.091362
v 0.004499 -0.019139 0.091235
v 0.003775 -0.019863 0.091235
v 0.003743 -0.019824 0.091362
v 0.002912 -0.020407 0.091362
v 0.002937 -0.020451 0.091235
v 0.002009 -0.020883 0.091235
v 0.001991 -0.020836 0.091362
v 0.001011 -0.021099 0.091362
v 0.001020 -0.021148 0.091235
v -0.000000 -0.021237 0.091235
v -0.000000 -0.021156 0.091418
v -0.001011 -0.021099 0.091362
v -0.001020 -0.021148 0.091235
v -0.002009 -0.020883 0.091235
v -0.001992 -0.020836 0.091362
v -0.002912 -0.020407 0.091362
v -0.002937 -0.020451 0.091235
v -0.003775 -0.019863 0.091235
v -0.003743 -0.019824 0.091362
v -0.004461 -0.019107 0.091362
v -0.004499 -0.019139 0.091235
v -0.005086 -0.018300 0.091235
v -0.005043 -0.018275 0.091362
v -0.005472 -0.017356 0.091362
v -0.005519 -0.017373 0.091235
v -0.005784 -0.016384 0.091235
v -0.005734 -0.016375 0.091362
v -0.005823 -0.015364 0.091362
v -0.005874 -0.015364 0.091235
v -0.005784 -0.014344 0.091235
v -0.005734 -0.014353 0.091362
v -0.005472 -0.013372 0.091362
v -0.005519 -0.013355 0.091235
v -0.005086 -0.012427 0.091235
v -0.005043 -0.012453 0.091362
v -0.004461 -0.011621 0.091362
v -0.004499 -0.011589 0.091235
v -0.003775 -0.010865 0.091235
v -0.003743 -0.010903 0.091362
v -0.002912 -0.010321 0.091362
v -0.002937 -0.010277 0.091235
v -0.002009 -0.009845 0.091235
v -0.001992 -0.009892 0.091362
v -0.001011 -0.009629 0.091362
v -0.001020 -0.009580 0.091235
v -0.000000 -0.009491 0.091235
v -0.000000 -0.009541 0.091362
v 0.001011 -0.009629 0.091362
v 0.001020 -0.009580 0.091235
v 0.002009 -0.009845 0.091235
v 0.001991 -0.009892 0.091362
v 0.002912 -0.010321 0.091362
v 0.002937 -0.010277 0.091235
v 0.003775 -0.010865 0.091235
v 0.003743 -0.010903 0.091362
v 0.004461 -0.011621 0.091362
v 0.004499 -0.011589 0.091235
v 0.005086 -0.012427 0.091235
v 0.005043 -0.012453 0.091362
v 0.005472 -0.013372 0.091362
v 0.005519 -0.013355 0.091235
v 0.005784 -0.014344 0.091235
v 0.005734 -0.014353 0.091362
v 0.005759 -0.016379 -0.091298
v 0.005496 -0.017364 -0.091298
v 0.005848 -0.015364 -0.091298
v 0.005064 -0.018288 -0.091298
v 0.004480 -0.019123 -0.091298
v 0.002937 -0.020451 -0.091235
v 0.003743 -0.019824 -0.091362
v 0.002912 -0.020407 -0.091362
v 0.002009 -0.020883 -0.091235
v 0.001020 -0.021148 -0.091235
v 0.001991 -0.020835 -0.091362
v 0.001011 -0.021099 -0.091362
v -0.000000 -0.021237 -0.091235
v -0.001020 -0.021148 -0.091235
v -0.000000 -0.021186 -0.091362
v -0.001011 -0.021099 -0.091362
v -0.002009 -0.020883 -0.091235
v -0.002937 -0.020451 -0.091235
v -0.001992 -0.020835 -0.091362
v -0.002896 -0.020381 -0.091418
v -0.003775 -0.019863 -0.091235
v -0.004499 -0.019139 -0.091235
v -0.003743 -0.019824 -0.091362
v -0.004461 -0.019107 -0.091362
v -0.005086 -0.018300 -0.091235
v -0.005496 -0.017364 -0.091298
v -0.005043 -0.018275 -0.091362
v -0.005759 -0.016379 -0.091298
v -0.005849 -0.015364 -0.091298
v -0.005759 -0.014349 -0.091298
v -0.005496 -0.013363 -0.091298
v -0.005064 -0.012440 -0.091298
v -0.004480 -0.011605 -0.091298
v -0.003759 -0.010884 -0.091298
v -0.002924 -0.010299 -0.091298
v -0.002000 -0.009869 -0.091298
v -0.001016 -0.009604 -0.091298
v -0.000000 -0.009516 -0.091298
v 0.001016 -0.009604 -0.091298
v 0.002000 -0.009869 -0.091298
v 0.002924 -0.010299 -0.091298
v 0.003759 -0.010884 -0.091298
v 0.004480 -0.011605 -0.091298
v 0.005064 -0.012440 -0.091298
v 0.005496 -0.013363 -0.091298
v 0.005759 -0.014349 -0.091298
v 0.005287 -0.016283 0.091879
v 0.004892 -0.017614 0.091881
v 0.002694 -0.020005 0.091879
v 0.000944 -0.020647 0.091879
v 0.000019 -0.020762 0.091862
v -0.001365 -0.020572 0.091881
v -0.004872 -0.017656 0.091881
v -0.005282 -0.016309 0.091879
v -0.005047 -0.013540 0.091879
v -0.004654 -0.012692 0.091879
v -0.002695 -0.010723 0.091879
v -0.001848 -0.010326 0.091879
v 0.000919 -0.010076 0.091879
v 0.003439 -0.011245 0.091879
v 0.004873 -0.013072 0.091881
v 0.005282 -0.014419 0.091879
v 0.005282 -0.016309 -0.091879
v 0.005367 -0.015377 -0.091879
v 0.003439 -0.019483 -0.091879
v 0.001822 -0.020410 -0.091879
v 0.000454 -0.020729 -0.091881
v -0.001848 -0.020401 -0.091879
v -0.002716 -0.020029 -0.091863
v -0.003828 -0.019151 -0.091880
v -0.005287 -0.016283 -0.091879
v -0.004641 -0.012670 -0.091879
v -0.003439 -0.011245 -0.091879
v 0.001848 -0.010325 -0.091879
v 0.003103 -0.010964 -0.091881
v 0.004654 -0.012692 -0.091879
v 0.005804 -0.016387 0.091155
v 0.005894 -0.015364 0.091155
v 0.005539 -0.017380 0.091155
v 0.005104 -0.018311 0.091155
v 0.004515 -0.019153 0.091155
v 0.003788 -0.019878 0.091155
v 0.002947 -0.020468 0.091155
v 0.002016 -0.020902 0.091155
v 0.001024 -0.021168 0.091155
v -0.000000 -0.021257 0.091155
v -0.001023 -0.021168 0.091155
v -0.002016 -0.020902 0.091155
v -0.002947 -0.020468 0.091155
v -0.003788 -0.019878 0.091155
v -0.004515 -0.019153 0.091155
v -0.005104 -0.018311 0.091155
v -0.005539 -0.017380 0.091155
v -0.005804 -0.016387 0.091155
v -0.005894 -0.015364 0.091155
v -0.005804 -0.014340 0.091155
v -0.005539 -0.013348 0.091155
v -0.005104 -0.012417 0.091155
v -0.004515 -0.011575 0.091155
v -0.003788 -0.010849 0.091155
v -0.002947 -0.010259 0.091155
v -0.002016 -0.009826 0.091155
v -0.001023 -0.009559 0.091155
v -0.000000 -0.009470 0.091155
v 0.001024 -0.009559 0.091155
v 0.002016 -0.009826 0.091155
v 0.002947 -0.010259 0.091155
v 0.003788 -0.010849 0.091155
v 0.004515 -0.011575 0.091155
v 0.005104 -0.012417 0.091155
v 0.005539 -0.013348 0.091155
v 0.005804 -0.014340 0.091155
v 0.005804 -0.016387 -0.091155
v 0.005539 -0.017380 -0.091155
v 0.005894 -0.015364 -0.091155
v 0.005104 -0.018311 -0.091155
v 0.004515 -0.019153 -0.091155
v 0.003782 -0.019871 -0.091195
v 0.002016 -0.020902 -0.091155
v 0.001023 -0.021168 -0.091155
v -0.000000 -0.021257 -0.091155
v -0.001024 -0.021168 -0.091155
v -0.002016 -0.020902 -0.091155
v -0.002947 -0.020468 -0.091155
v -0.003788 -0.019878 -0.091155
v -0.004515 -0.019153 -0.091155
v -0.005104 -0.018311 -0.091155
v -0.005539 -0.017380 -0.091155
v -0.005804 -0.016387 -0.091155
v -0.005894 -0.015364 -0.091155
v -0.005804 -0.014340 -0.091155
v -0.005539 -0.013348 -0.091155
v -0.005104 -0.012417 -0.091155
v -0.004515 -0.011575 -0.091155
v -0.003788 -0.010849 -0.091155
v -0.002947 -0.010259 -0.091155
v -0.002016 -0.009826 -0.091155
v -0.001024 -0.009559 -0.091155
v -0.000000 -0.009470 -0.091155
v 0.001023 -0.009559 -0.091155
v 0.002016 -0.009826 -0.091155
v 0.002947 -0.010259 -0.091155
v 0.003788 -0.010849 -0.091155
v 0.004515 -0.011575 -0.091155
v 0.005104 -0.012417 -0.091155
v 0.005539 -0.013348 -0.091155
v 0.005804 -0.014340 -0.091155
v -0.000920 -0.010077 -0.091879
v 0.005641 -0.016359 0.091516
v 0.005729 -0.015364 0.091516
v 0.005384 -0.017323 0.091516
v 0.004961 -0.018228 0.091516
v 0.004389 -0.019047 0.091516
v 0.003682 -0.019752 0.091516
v 0.002865 -0.020325 0.091516
v 0.001959 -0.020747 0.091516
v 0.000995 -0.021006 0.091516
v -0.001487 -0.020915 0.091525
v -0.002701 -0.020099 0.091831
v -0.003481 -0.019559 0.091830
v -0.004157 -0.018891 0.091830
v -0.004961 -0.018228 0.091516
v -0.005384 -0.017323 0.091516
v -0.005641 -0.016359 0.091516
v -0.005729 -0.015364 0.091516
v -0.005641 -0.014369 0.091516
v -0.005384 -0.013404 0.091516
v -0.004961 -0.012500 0.091516
v -0.004389 -0.011681 0.091516
v -0.003682 -0.010976 0.091516
v -0.002865 -0.010402 0.091516
v -0.001959 -0.009981 0.091516
v -0.000995 -0.009722 0.091516
v -0.000000 -0.009635 0.091516
v 0.000995 -0.009722 0.091516
v 0.001959 -0.009981 0.091516
v 0.002865 -0.010402 0.091516
v 0.003682 -0.010976 0.091516
v 0.004389 -0.011681 0.091516
v 0.004961 -0.012500 0.091516
v 0.005384 -0.013404 0.091516
v 0.005641 -0.014369 0.091516
v 0.005641 -0.016359 -0.091516
v 0.005384 -0.017323 -0.091516
v 0.005729 -0.015364 -0.091516
v 0.004961 -0.018228 -0.091516
v 0.004389 -0.019046 -0.091516
v 0.003682 -0.019752 -0.091516
v 0.002865 -0.020325 -0.091516
v 0.001959 -0.020747 -0.091516
v 0.000995 -0.021006 -0.091516
v -0.000000 -0.021092 -0.091516
v -0.000995 -0.021006 -0.091516
v -0.001959 -0.020747 -0.091516
v -0.003682 -0.019752 -0.091516
v -0.004389 -0.019046 -0.091516
v -0.004961 -0.018228 -0.091516
v -0.005384 -0.017323 -0.091516
v -0.005641 -0.016359 -0.091516
v -0.005729 -0.015364 -0.091516
v -0.005641 -0.014369 -0.091516
v -0.005384 -0.013404 -0.091516
v -0.004961 -0.012500 -0.091516
v -0.004389 -0.011681 -0.091516
v -0.003682 -0.010976 -0.091516
v -0.002865 -0.010402 -0.091516
v -0.001959 -0.009981 -0.091516
v -0.000995 -0.009722 -0.091516
v -0.000000 -0.009635 -0.091516
v 0.000995 -0.009722 -0.091516
v 0.001959 -0.009981 -0.091516
v 0.002865 -0.010402 -0.091516
v 0.003682 -0.010976 -0.091516
v 0.004389 -0.011681 -0.091516
v 0.004961 -0.012500 -0.091516
v 0.005384 -0.013404 -0.091516
v 0.005641 -0.014369 -0.091516
v 0.004679 -0.017410 0.091991
v 0.004950 -0.015118 0.091974
v 0.002848 -0.019431 0.091984
v 0.001392 -0.020112 0.091984
v 0.000440 -0.020389 0.091985
v -0.000866 -0.020272 0.091984
v -0.002096 -0.019910 0.091979
v -0.004719 -0.017198 0.091991
v -0.004890 -0.014721 0.091984
v -0.004067 -0.012516 0.091984
v -0.002626 -0.011036 0.091991
v -0.001102 -0.010532 0.091974
v 0.000416 -0.010375 0.091979
v 0.002439 -0.011032 0.091985
v 0.003635 -0.011994 0.091974
v 0.004620 -0.013565 0.091984
v 0.004131 -0.018383 -0.091990
v 0.004946 -0.015796 -0.091984
v 0.000319 -0.020461 -0.091991
v -0.003718 -0.018881 -0.091990
v -0.004796 -0.016649 -0.091984
v -0.004900 -0.013922 -0.091991
v -0.000417 -0.010374 -0.091979
v 0.002625 -0.011034 -0.091991
v 0.004680 -0.013318 -0.091991
v 0.003884 -0.013738 0.091936
v 0.002432 -0.012068 0.091921
v -0.003218 -0.011972 0.091952
v -0.004646 -0.014834 0.091952
v -0.003657 -0.017564 0.091928
v -0.003107 -0.019314 0.091973
v -0.000984 -0.019300 0.091921
v 0.001709 -0.019294 0.091928
v 0.004184 -0.017451 0.091952
v 0.003904 -0.018076 -0.091957
v 0.001575 -0.020076 -0.091969
v -0.001425 -0.020127 -0.091974
v -0.002849 -0.018880 -0.091941
v -0.004646 -0.015894 -0.091952
v -0.004046 -0.012517 -0.091968
v -0.002103 -0.010724 -0.091984
v 0.001100 -0.010531 -0.091974
v 0.003218 -0.011972 -0.091952
v 0.004646 -0.014834 -0.091952
f 551 552 1
f 550 551 1
f 1 4 3
f 3 550 1
f 2 3 4
f 6 2 4
f 5 6 4
f 4 7 556
f 556 5 4
f 555 556 7
f 7 8 558
f 558 555 7
f 557 558 8
f 8 9 560
f 560 557 8
f 559 560 9
f 9 10 562
f 562 559 9
f 561 562 10
f 12 561 10
f 11 12 10
f 10 13 565
f 565 11 10
f 564 565 13
f 13 14 15
f 15 564 13
f 566 15 14
f 14 16 17
f 17 566 14
f 16 18 567
f 567 17 16
f 569 567 18
f 18 19 568
f 568 569 18
f 571 568 19
f 570 571 19
f 19 21 573
f 573 570 19
f 572 573 21
f 20 572 21
f 574 20 21
f 21 22 24
f 24 574 21
f 23 24 22
f 25 23 22
f 22 26 27
f 27 25 22
f 26 29 28
f 28 27 26
f 579 28 29
f 581 579 29
f 580 581 29
f 29 30 583
f 583 580 29
f 582 583 30
f 30 31 585
f 585 582 30
f 584 585 31
f 587 584 31
f 586 587 31
f 31 32 589
f 589 586 31
f 588 589 32
f 32 33 591
f 591 588 32
f 590 591 33
f 33 34 593
f 593 590 33
f 592 593 34
f 595 592 34
f 34 35 594
f 594 595 34
f 597 594 35
f 35 36 596
f 596 597 35
f 599 596 36
f 36 37 598
f 598 599 36
f 601 598 37
f 600 601 37
f 37 1 602
f 602 600 37
f 552 602 1
f 38 1 37
f 36 38 37
f 36 35 38
f 34 38 35
f 33 38 34
f 38 33 32
f 31 38 32
f 30 38 31
f 38 30 29
f 26 22 38
f 38 29 26
f 38 22 21
f 38 21 19
f 18 38 19
f 18 16 38
f 14 38 16
f 38 14 13
f 10 38 13
f 9 38 10
f 38 9 8
f 7 38 8
f 38 7 4
f 38 4 1
f 39 40 41
f 41 42 39
f 40 43 44
f 44 41 40
f 45 46 41
f 41 44 45
f 46 47 48
f 48 41 46
f 49 50 41
f 41 48 49
f 50 51 52
f 52 41 50
f 53 54 41
f 41 52 53
f 54 55 56
f 56 41 54
f 57 58 41
f 41 56 57
f 58 59 60
f 60 41 58
f 61 62 41
f 41 60 61
f 62 63 64
f 64 41 62
f 65 66 41
f 41 64 65
f 66 67 68
f 68 41 66
f 69 70 41
f 41 68 69
f 70 71 72
f 72 41 70
f 73 74 41
f 41 72 73
f 74 75 76
f 76 41 74
f 77 78 41
f 41 76 77
f 78 79 80
f 80 41 78
f 81 82 41
f 41 80 81
f 82 83 84
f 84 41 82
f 85 86 41
f 41 84 85
f 86 87 88
f 88 41 86
f 89 90 41
f 41 88 89
f 90 91 92
f 92 41 90
f 93 94 41
f 41 92 93
f 94 95 96
f 96 41 94
f 97 98 41
f 41 96 97
f 98 99 42
f 42 41 98
f 155 100 102
f 102 103 155
f 101 102 100
f 100 106 104
f 104 101 100
f 105 104 106
f 107 105 106
f 106 108 109
f 109 107 106
f 108 110 111
f 111 109 108
f 112 111 110
f 110 113 115
f 115 112 110
f 114 115 113
f 113 116 117
f 117 114 113
f 118 117 116
f 116 119 121
f 121 118 116
f 120 121 119
f 123 120 119
f 122 123 119
f 119 124 604
f 604 122 119
f 603 604 124
f 606 603 124
f 605 606 124
f 124 125 608
f 608 605 124
f 607 608 125
f 610 607 125
f 609 610 125
f 125 126 612
f 612 609 125
f 611 612 126
f 126 127 129
f 129 611 126
f 128 129 127
f 127 130 131
f 131 128 127
f 130 132 133
f 133 131 130
f 132 134 136
f 136 133 132
f 135 136 134
f 134 138 137
f 137 135 134
f 139 137 138
f 140 139 138
f 138 141 619
f 619 140 138
f 621 619 141
f 141 142 620
f 620 621 141
f 142 143 623
f 623 620 142
f 622 623 143
f 143 144 625
f 625 622 143
f 624 625 144
f 627 624 144
f 626 627 144
f 144 145 629
f 629 626 144
f 628 629 145
f 145 146 148
f 148 628 145
f 147 148 146
f 146 149 632
f 632 147 146
f 631 632 149
f 151 631 149
f 149 150 633
f 633 151 149
f 635 633 150
f 150 152 153
f 153 635 150
f 154 153 152
f 636 154 152
f 152 155 638
f 638 636 152
f 637 638 155
f 156 637 155
f 103 156 155
f 152 157 155
f 152 150 157
f 149 157 150
f 146 157 149
f 157 146 145
f 144 157 145
f 143 157 144
f 142 141 157
f 157 143 142
f 138 157 141
f 134 157 138
f 132 130 157
f 157 134 132
f 127 157 130
f 157 127 126
f 125 157 126
f 124 157 125
f 119 157 124
f 116 157 119
f 157 116 113
f 110 157 113
f 108 106 157
f 157 110 108
f 157 106 100
f 155 157 100
f 158 159 160
f 160 161 158
f 159 162 163
f 163 160 159
f 164 165 160
f 160 163 164
f 165 166 167
f 167 160 165
f 168 169 160
f 160 167 168
f 169 170 171
f 171 160 169
f 172 173 160
f 160 171 172
f 173 174 175
f 175 160 173
f 176 177 160
f 160 175 176
f 177 178 179
f 179 160 177
f 180 181 160
f 160 179 180
f 181 182 183
f 183 160 181
f 184 185 160
f 160 183 184
f 185 186 187
f 187 160 185
f 188 189 160
f 160 187 188
f 189 190 191
f 191 160 189
f 192 193 160
f 160 191 192
f 193 194 195
f 195 160 193
f 196 197 160
f 160 195 196
f 197 198 199
f 199 160 197
f 200 201 160
f 160 199 200
f 201 202 203
f 203 160 201
f 204 205 160
f 160 203 204
f 205 206 207
f 207 160 205
f 208 209 160
f 160 207 208
f 209 210 211
f 211 160 209
f 212 213 160
f 160 211 212
f 213 214 215
f 215 160 213
f 216 217 160
f 160 215 216
f 217 218 161
f 161 160 217
f 314 545 222
f 352 545 314
f 353 352 314
f 314 319 353
f 219 353 319
f 319 321 544
f 544 219 319
f 321 390 544
f 356 390 322
f 322 323 325
f 325 356 322
f 326 358 325
f 222 326 221
f 326 222 220
f 359 220 222
f 545 359 222
f 328 225 306
f 549 225 328
f 361 549 328
f 373 361 328
f 373 374 269
f 303 374 223
f 547 374 303
f 331 547 303
f 304 332 224
f 639 640 376
f 376 226 639
f 640 641 376
f 227 226 307
f 642 643 226
f 226 227 642
f 643 639 226
f 307 334 228
f 228 227 307
f 229 228 334
f 644 645 228
f 228 229 644
f 645 642 227
f 227 228 645
f 230 229 334
f 646 647 229
f 229 230 646
f 647 644 229
f 230 335 231
f 232 233 230
f 230 231 232
f 233 646 230
f 648 234 335
f 335 336 648
f 234 232 231
f 231 335 234
f 235 649 336
f 336 236 235
f 649 648 336
f 650 237 236
f 237 235 236
f 238 236 355
f 651 652 236
f 236 238 651
f 652 650 236
f 653 654 238
f 238 239 653
f 654 651 238
f 655 656 239
f 656 653 239
f 657 658 240
f 658 655 239
f 239 240 658
f 659 660 241
f 660 657 240
f 240 241 660
f 242 241 377
f 243 242 377
f 661 662 242
f 242 243 661
f 662 659 241
f 241 242 662
f 663 664 243
f 243 244 663
f 664 661 243
f 244 357 245
f 246 665 245
f 665 663 244
f 244 245 665
f 247 245 357
f 666 667 245
f 245 247 666
f 667 246 245
f 668 669 247
f 247 248 668
f 669 666 247
f 247 358 248
f 670 671 248
f 671 668 248
f 248 310 249
f 672 673 248
f 248 249 672
f 673 670 248
f 250 249 310
f 310 337 250
f 251 252 250
f 252 672 249
f 249 250 252
f 253 254 250
f 254 251 250
f 255 250 337
f 674 675 255
f 255 256 674
f 675 253 250
f 250 255 675
f 676 677 256
f 256 257 676
f 677 674 256
f 256 338 257
f 678 679 257
f 679 676 257
f 258 257 338
f 338 259 258
f 680 681 258
f 681 678 257
f 257 258 681
f 682 683 259
f 683 680 258
f 258 259 683
f 260 259 311
f 261 260 311
f 684 685 260
f 260 261 684
f 685 682 259
f 259 260 685
f 311 378 261
f 262 261 378
f 686 687 261
f 261 262 686
f 687 684 261
f 641 688 262
f 262 376 641
f 688 686 262
f 264 263 360
f 689 690 263
f 263 264 689
f 690 691 263
f 692 693 264
f 693 689 264
f 694 695 379
f 695 692 264
f 264 379 695
f 696 697 380
f 697 694 379
f 379 380 697
f 266 267 265
f 267 696 380
f 380 265 267
f 312 269 268
f 268 265 312
f 698 699 265
f 265 268 698
f 699 266 265
f 270 700 268
f 700 698 268
f 271 268 269
f 701 272 271
f 272 270 268
f 268 271 272
f 271 546 273
f 702 703 273
f 703 701 271
f 271 273 703
f 704 705 274
f 705 702 273
f 273 274 705
f 706 707 275
f 707 704 274
f 274 275 707
f 708 709 276
f 709 706 275
f 275 276 709
f 710 711 276
f 711 708 276
f 381 395 277
f 277 276 381
f 712 713 277
f 713 710 276
f 276 277 713
f 278 277 395
f 714 715 278
f 715 712 277
f 277 278 715
f 280 278 395
f 279 716 280
f 716 714 278
f 278 280 716
f 717 718 280
f 718 279 280
f 719 720 281
f 720 717 280
f 280 281 720
f 282 281 313
f 313 367 282
f 721 722 282
f 722 719 281
f 281 282 722
f 723 724 282
f 724 721 282
f 284 285 283
f 285 723 282
f 282 283 285
f 286 283 368
f 287 286 368
f 288 289 286
f 286 287 288
f 289 284 283
f 283 286 289
f 290 287 368
f 725 726 287
f 287 290 725
f 726 288 287
f 727 728 290
f 728 725 290
f 729 730 396
f 396 291 729
f 730 727 290
f 290 396 730
f 396 397 291
f 731 732 291
f 732 729 291
f 733 734 291
f 291 292 733
f 734 731 291
f 735 736 292
f 292 293 735
f 736 733 292
f 737 738 293
f 738 735 293
f 293 360 263
f 691 739 293
f 293 263 691
f 739 737 293
f 420 321 418
f 321 420 421
f 321 421 339
f 339 340 321
f 428 341 340
f 340 427 428
f 322 341 430
f 322 430 433
f 433 434 322
f 323 434 437
f 323 437 324
f 342 325 324
f 325 342 382
f 446 326 382
f 326 446 447
f 447 371 326
f 371 447 448
f 371 448 391
f 343 221 383
f 221 343 384
f 460 222 221
f 221 384 460
f 465 372 344
f 294 372 345
f 306 467 346
f 346 302 306
f 302 346 385
f 302 385 472
f 387 374 386
f 374 387 388
f 388 389 374
f 495 394 492
f 394 495 496
f 223 394 499
f 223 499 501
f 502 303 223
f 223 501 502
f 303 502 503
f 303 503 504
f 330 505 506
f 506 331 330
f 331 506 507
f 331 507 508
f 331 508 332
f 518 224 347
f 224 518 521
f 532 304 349
f 532 333 304
f 333 532 350
f 333 350 536
f 537 225 333
f 333 536 537
f 225 537 351
f 351 305 225
f 305 351 540
f 305 540 541
f 542 306 305
f 305 541 542
f 306 542 467
f 356 377 309
f 337 310 220
f 337 220 338
f 311 359 545
f 545 378 311
f 547 395 381
f 395 364 365
f 319 320 321
f 322 340 341
f 323 322 434
f 382 326 325
f 328 302 478
f 393 374 373
f 374 389 375
f 377 244 243
f 244 377 357
f 358 247 357
f 248 358 310
f 338 256 255
f 359 259 338
f 259 359 311
f 280 395 365
f 549 361 360
f 364 395 547
f 314 315 316
f 316 319 314
f 316 317 318
f 319 316 300
f 316 318 300
f 321 322 390
f 321 340 322
f 324 325 323
f 371 221 326
f 327 221 371
f 222 372 314
f 302 328 306
f 329 373 328
f 223 374 375
f 331 303 330
f 348 304 224
f 306 225 305
f 307 226 376
f 230 334 354
f 354 335 230
f 236 336 355
f 308 238 355
f 308 239 238
f 308 240 239
f 240 308 309
f 309 241 240
f 309 377 241
f 262 378 376
f 361 264 360
f 361 379 264
f 312 380 379
f 265 380 312
f 271 269 546
f 273 546 274
f 363 275 274
f 363 276 275
f 363 381 276
f 280 365 313
f 313 281 280
f 367 283 282
f 283 367 368
f 397 292 291
f 292 397 398
f 398 293 292
f 293 398 360
f 404 315 297
f 315 404 405
f 315 405 298
f 412 300 299
f 300 412 413
f 300 413 414
f 300 414 301
f 320 417 418
f 452 327 392
f 327 452 453
f 327 453 454
f 475 302 472
f 302 475 478
f 482 373 329
f 373 482 483
f 373 483 393
f 512 332 508
f 332 512 515
f 332 515 347
f 527 348 521
f 521 524 527
f 353 307 352
f 355 336 219
f 308 544 390
f 356 309 390
f 377 356 357
f 545 352 378
f 547 381 363
f 313 365 366
f 366 367 313
f 367 548 368
f 370 398 397
f 398 370 549
f 360 398 549
f 294 314 372
f 314 294 295
f 296 314 295
f 297 315 314
f 314 296 297
f 316 315 298
f 299 300 318
f 319 300 301
f 319 301 320
f 418 321 320
f 371 391 392
f 371 392 327
f 327 383 221
f 222 460 344
f 222 344 372
f 372 465 345
f 479 328 478
f 328 479 329
f 393 386 374
f 492 375 389
f 375 492 394
f 394 223 375
f 303 504 330
f 332 347 224
f 224 521 348
f 530 304 348
f 304 530 349
f 352 307 376
f 353 334 307
f 334 353 354
f 335 354 219
f 219 336 335
f 390 309 308
f 255 337 338
f 352 376 378
f 361 312 379
f 362 274 546
f 274 362 363
f 290 368 369
f 369 396 290
f 396 369 370
f 370 397 396
f 294 400 399
f 401 295 294
f 294 399 401
f 295 401 296
f 402 404 297
f 403 404 402
f 404 403 406
f 406 405 404
f 407 298 405
f 405 406 407
f 316 298 317
f 298 407 408
f 408 317 298
f 317 408 409
f 409 318 317
f 318 409 299
f 410 299 409
f 299 410 411
f 411 412 299
f 563 414 413
f 415 301 414
f 414 563 415
f 301 415 416
f 416 320 301
f 320 416 417
f 419 418 417
f 418 419 420
f 422 421 420
f 423 339 421
f 421 422 423
f 339 423 424
f 339 424 425
f 425 340 339
f 340 425 426
f 426 427 340
f 429 430 341
f 341 428 429
f 431 430 429
f 432 433 430
f 430 431 432
f 433 432 435
f 435 434 433
f 436 437 434
f 434 435 436
f 437 436 438
f 437 438 439
f 439 440 324
f 324 437 439
f 441 440 439
f 442 342 440
f 440 441 442
f 324 440 342
f 342 442 443
f 342 443 444
f 444 382 342
f 445 382 444
f 382 445 446
f 449 391 448
f 450 391 449
f 391 450 451
f 451 392 391
f 392 451 452
f 327 454 383
f 455 343 383
f 456 343 455
f 457 384 343
f 343 456 457
f 384 457 458
f 459 460 384
f 384 458 459
f 460 459 461
f 462 344 460
f 460 461 462
f 344 462 463
f 463 465 344
f 465 463 464
f 465 464 466
f 466 345 465
f 400 294 345
f 345 466 400
f 467 468 469
f 469 346 467
f 346 469 470
f 346 470 385
f 471 472 385
f 473 472 471
f 474 475 472
f 472 473 474
f 475 474 476
f 477 478 475
f 475 476 477
f 478 477 480
f 480 479 478
f 479 480 481
f 481 482 329
f 329 479 481
f 484 393 483
f 485 386 393
f 393 484 485
f 386 485 486
f 486 387 386
f 387 486 487
f 387 487 388
f 488 489 388
f 489 389 388
f 489 492 389
f 489 488 490
f 491 492 489
f 489 490 491
f 492 491 493
f 493 495 492
f 495 493 494
f 495 494 497
f 497 496 495
f 498 499 496
f 496 497 498
f 394 496 499
f 499 498 500
f 499 500 501
f 330 504 505
f 509 508 507
f 510 511 508
f 508 509 510
f 511 512 508
f 511 510 513
f 513 512 511
f 514 515 512
f 512 513 514
f 515 514 516
f 516 347 515
f 347 516 517
f 347 517 518
f 519 518 517
f 520 521 518
f 518 519 520
f 521 520 522
f 522 524 521
f 524 522 523
f 524 523 525
f 525 527 524
f 527 525 526
f 348 527 530
f 527 526 528
f 528 530 527
f 530 528 529
f 530 529 349
f 531 532 349
f 532 531 533
f 532 533 350
f 534 536 350
f 536 534 535
f 536 535 537
f 634 351 537
f 351 634 538
f 538 540 351
f 540 538 539
f 540 539 541
f 543 467 542
f 467 543 468
f 219 354 353
f 544 355 219
f 544 308 355
f 325 357 356
f 325 358 357
f 326 310 358
f 326 220 310
f 359 338 220
f 373 312 361
f 373 269 312
f 546 269 374
f 374 362 546
f 374 547 362
f 547 363 362
f 364 547 331
f 365 364 366
f 364 331 332
f 332 366 364
f 332 548 366
f 548 367 366
f 548 332 304
f 368 548 369
f 304 369 548
f 369 304 333
f 333 370 369
f 370 333 225
f 225 549 370
f 550 401 399
f 399 551 550
f 400 552 551
f 551 399 400
f 2 553 554
f 554 3 2
f 553 297 296
f 296 554 553
f 401 550 554
f 554 296 401
f 3 554 550
f 5 403 402
f 402 6 5
f 297 553 402
f 553 2 6
f 6 402 553
f 555 407 406
f 406 556 555
f 556 406 403
f 403 5 556
f 557 409 408
f 408 558 557
f 407 555 558
f 558 408 407
f 559 411 410
f 410 560 559
f 409 557 560
f 560 410 409
f 561 413 412
f 412 562 561
f 411 559 562
f 562 412 411
f 563 12 11
f 11 415 563
f 413 561 563
f 12 563 561
f 564 417 416
f 416 565 564
f 415 11 565
f 565 416 415
f 419 15 566
f 566 420 419
f 417 564 419
f 15 419 564
f 422 17 567
f 567 423 422
f 420 566 422
f 17 422 566
f 568 425 424
f 424 569 568
f 423 567 569
f 569 424 423
f 570 427 426
f 426 571 570
f 425 568 571
f 571 426 425
f 572 429 428
f 428 573 572
f 427 570 573
f 573 428 427
f 431 20 574
f 574 432 431
f 429 572 431
f 20 431 572
f 23 575 576
f 576 24 23
f 575 436 435
f 435 576 575
f 432 574 576
f 576 435 432
f 24 576 574
f 27 577 578
f 578 25 27
f 577 439 438
f 438 578 577
f 436 575 578
f 578 438 436
f 575 23 25
f 25 578 575
f 441 28 579
f 579 442 441
f 439 577 441
f 577 27 28
f 28 441 577
f 580 444 443
f 443 581 580
f 442 579 581
f 581 443 442
f 582 446 445
f 445 583 582
f 444 580 583
f 583 445 444
f 584 448 447
f 447 585 584
f 446 582 585
f 585 447 446
f 586 450 449
f 449 587 586
f 448 584 587
f 587 449 448
f 588 452 451
f 451 589 588
f 450 586 589
f 589 451 450
f 590 454 453
f 453 591 590
f 452 588 591
f 591 453 452
f 592 455 383
f 383 593 592
f 454 590 593
f 593 383 454
f 594 457 456
f 456 595 594
f 455 592 595
f 595 456 455
f 596 459 458
f 458 597 596
f 457 594 597
f 597 458 457
f 598 462 461
f 461 599 598
f 459 596 599
f 599 461 459
f 600 464 463
f 463 601 600
f 462 598 601
f 601 463 462
f 552 400 466
f 466 602 552
f 464 600 602
f 602 466 464
f 101 470 469
f 469 102 101
f 468 103 102
f 102 469 468
f 105 471 385
f 385 104 105
f 470 101 104
f 104 385 470
f 109 474 473
f 473 107 109
f 471 105 107
f 107 473 471
f 112 477 476
f 476 111 112
f 474 109 111
f 111 476 474
f 114 481 480
f 480 115 114
f 477 112 115
f 115 480 477
f 118 483 482
f 482 117 118
f 481 114 117
f 117 482 481
f 120 485 484
f 484 121 120
f 483 118 121
f 121 484 483
f 122 487 486
f 486 123 122
f 485 120 123
f 123 486 485
f 603 488 388
f 388 604 603
f 487 122 604
f 604 388 487
f 605 491 490
f 490 606 605
f 488 603 606
f 606 490 488
f 607 494 493
f 493 608 607
f 491 605 608
f 608 493 491
f 609 498 497
f 497 610 609
f 494 607 610
f 610 497 494
f 611 501 500
f 500 612 611
f 498 609 612
f 612 500 498
f 128 613 614
f 614 129 128
f 613 503 502
f 502 614 613
f 501 611 614
f 614 502 501
f 129 614 611
f 133 615 616
f 616 131 133
f 615 505 504
f 504 616 615
f 503 613 616
f 616 504 503
f 613 128 131
f 131 616 613
f 135 617 618
f 618 136 135
f 617 507 506
f 506 618 617
f 505 615 618
f 618 506 505
f 615 133 136
f 136 618 615
f 509 137 139
f 139 510 509
f 507 617 509
f 617 135 137
f 137 509 617
f 619 514 513
f 513 140 619
f 510 139 140
f 140 513 510
f 620 517 516
f 516 621 620
f 514 619 621
f 621 516 514
f 622 520 519
f 519 623 622
f 517 620 623
f 623 519 517
f 624 523 522
f 522 625 624
f 520 622 625
f 625 522 520
f 626 526 525
f 525 627 626
f 523 624 627
f 627 525 523
f 628 529 528
f 528 629 628
f 526 626 629
f 629 528 526
f 147 531 630
f 630 148 147
f 349 630 531
f 529 628 630
f 630 349 529
f 148 630 628
f 631 350 533
f 533 632 631
f 632 533 531
f 531 147 632
f 534 151 633
f 633 535 534
f 350 631 534
f 151 534 631
f 153 634 635
f 537 635 634
f 535 633 635
f 635 537 535
f 636 539 538
f 538 154 636
f 154 538 634
f 634 153 154
f 637 542 541
f 541 638 637
f 539 636 638
f 638 541 539
f 103 468 543
f 543 156 103
f 542 637 156
f 156 543 542
f 639 43 40
f 40 640 639
f 39 641 640
f 640 40 39
f 642 45 44
f 44 643 642
f 43 639 643
f 643 44 43
f 644 47 46
f 46 645 644
f 45 642 645
f 645 46 45
f 646 49 48
f 48 647 646
f 47 644 647
f 647 48 47
f 232 51 50
f 50 233 232
f 49 646 233
f 233 50 49
f 648 53 52
f 52 234 648
f 51 232 234
f 234 52 51
f 235 55 54
f 54 649 235
f 53 648 649
f 649 54 53
f 650 57 56
f 56 237 650
f 55 235 237
f 237 56 55
f 651 59 58
f 58 652 651
f 57 650 652
f 652 58 57
f 653 61 60
f 60 654 653
f 59 651 654
f 654 60 59
f 655 63 62
f 62 656 655
f 61 653 656
f 656 62 61
f 657 65 64
f 64 658 657
f 63 655 658
f 658 64 63
f 659 67 66
f 66 660 659
f 65 657 660
f 660 66 65
f 661 69 68
f 68 662 661
f 67 659 662
f 662 68 67
f 663 71 70
f 70 664 663
f 69 661 664
f 664 70 69
f 246 73 72
f 72 665 246
f 71 663 665
f 665 72 71
f 666 75 74
f 74 667 666
f 73 246 667
f 667 74 73
f 668 77 76
f 76 669 668
f 75 666 669
f 669 76 75
f 670 79 78
f 78 671 670
f 77 668 671
f 671 78 77
f 672 81 80
f 80 673 672
f 79 670 673
f 673 80 79
f 251 83 82
f 82 252 251
f 81 672 252
f 252 82 81
f 253 85 84
f 84 254 253
f 83 251 254
f 254 84 83
f 674 87 86
f 86 675 674
f 85 253 675
f 675 86 85
f 676 89 88
f 88 677 676
f 87 674 677
f 677 88 87
f 678 91 90
f 90 679 678
f 89 676 679
f 679 90 89
f 680 93 92
f 92 681 680
f 91 678 681
f 681 92 91
f 682 95 94
f 94 683 682
f 93 680 683
f 683 94 93
f 684 97 96
f 96 685 684
f 95 682 685
f 685 96 95
f 686 99 98
f 98 687 686
f 97 684 687
f 687 98 97
f 641 39 42
f 42 688 641
f 99 686 688
f 688 42 99
f 689 162 159
f 159 690 689
f 158 691 690
f 690 159 158
f 692 164 163
f 163 693 692
f 162 689 693
f 693 163 162
f 694 166 165
f 165 695 694
f 164 692 695
f 695 165 164
f 696 168 167
f 167 697 696
f 166 694 697
f 697 167 166
f 266 170 169
f 169 267 266
f 168 696 267
f 267 169 168
f 698 172 171
f 171 699 698
f 170 266 699
f 699 171 170
f 270 174 173
f 173 700 270
f 172 698 700
f 700 173 172
f 701 176 175
f 175 272 701
f 174 270 272
f 272 175 174
f 702 178 177
f 177 703 702
f 176 701 703
f 703 177 176
f 704 180 179
f 179 705 704
f 178 702 705
f 705 179 178
f 706 182 181
f 181 707 706
f 180 704 707
f 707 181 180
f 708 184 183
f 183 709 708
f 182 706 709
f 709 183 182
f 710 186 185
f 185 711 710
f 184 708 711
f 711 185 184
f 712 188 187
f 187 713 712
f 186 710 713
f 713 187 186
f 714 190 189
f 189 715 714
f 188 712 715
f 715 189 188
f 279 192 191
f 191 716 279
f 190 714 716
f 716 191 190
f 717 194 193
f 193 718 717
f 192 279 718
f 718 193 192
f 719 196 195
f 195 720 719
f 194 717 720
f 720 195 194
f 721 198 197
f 197 722 721
f 196 719 722
f 722 197 196
f 723 200 199
f 199 724 723
f 198 721 724
f 724 199 198
f 284 202 201
f 201 285 284
f 200 723 285
f 285 201 200
f 288 204 203
f 203 289 288
f 202 284 289
f 289 203 202
f 725 206 205
f 205 726 725
f 204 288 726
f 726 205 204
f 727 208 207
f 207 728 727
f 206 725 728
f 728 207 206
f 729 210 209
f 209 730 729
f 208 727 730
f 730 209 208
f 731 212 211
f 211 732 731
f 210 729 732
f 732 211 210
f 733 214 213
f 213 734 733
f 212 731 734
f 734 213 212
f 735 216 215
f 215 736 735
f 214 733 736
f 736 215 214
f 737 218 217
f 217 738 737
f 216 735 738
f 738 217 216
f 691 158 161
f 161 739 691
f 218 737 739
f 739 161 218
f 740 741 742
f 742 743 740
f 816 740 743
f 743 744 816
f 740 745 741
f 746 816 744
f 744 747 746
f 817 746 747
f 747 748 817
f 817 749 746
f 816 746 749
f 818 817 748
f 748 750 818
f 751 818 750
f 750 752 751
f 818 751 753
f 754 751 752
f 752 755 754
f 756 754 755
f 755 757 756
f 754 756 835
f 835 819 754
f 751 754 819
f 819 753 751
f 758 756 757
f 757 759 758
f 760 758 759
f 759 761 760
f 758 760 838
f 838 812 758
f 756 758 812
f 812 835 756
f 762 760 761
f 761 763 762
f 764 762 763
f 763 765 764
f 762 764 766
f 766 809 762
f 760 762 809
f 809 838 760
f 767 764 765
f 765 768 767
f 769 767 768
f 768 770 769
f 767 769 820
f 820 843 767
f 764 767 843
f 843 766 764
f 821 769 770
f 770 771 821
f 772 821 771
f 771 773 772
f 821 772 813
f 821 820 769
f 774 772 773
f 773 775 774
f 776 774 775
f 775 777 776
f 776 849 774
f 772 774 849
f 849 813 772
f 781 776 777
f 777 778 781
f 779 781 778
f 778 780 779
f 781 779 854
f 782 779 780
f 780 783 782
f 822 782 783
f 783 784 822
f 822 823 782
f 779 782 823
f 823 854 779
f 785 822 784
f 784 786 785
f 787 785 786
f 786 788 787
f 785 787 861
f 789 787 788
f 788 790 789
f 791 789 790
f 789 791 792
f 792 864 789
f 787 789 864
f 864 861 787
f 793 794 811
f 811 810 793
f 791 793 810
f 810 792 791
f 795 797 796
f 796 798 795
f 794 795 798
f 798 811 794
f 802 796 797
f 797 799 802
f 800 802 799
f 799 801 800
f 802 800 875
f 824 800 801
f 801 803 824
f 804 824 803
f 803 805 804
f 824 804 879
f 824 875 800
f 806 804 805
f 805 807 806
f 741 806 807
f 807 742 741
f 806 741 745
f 745 808 806
f 804 806 808
f 808 879 804
f 864 792 814
f 810 814 792
f 811 798 870
f 796 870 798
f 814 810 815
f 867 815 810
f 810 811 867
f 870 867 811
f 749 817 830
f 818 830 817
f 745 740 825
f 826 825 740
f 740 816 826
f 825 826 827
f 827 828 825
f 745 825 828
f 828 829 745
f 749 826 816
f 749 830 831
f 831 832 749
f 826 749 832
f 832 827 826
f 830 818 834
f 753 834 818
f 834 753 833
f 834 831 830
f 753 819 837
f 835 837 819
f 837 835 836
f 837 833 753
f 812 838 839
f 839 840 812
f 835 812 840
f 840 836 835
f 809 766 841
f 841 842 809
f 838 809 842
f 842 839 838
f 843 820 844
f 844 845 843
f 766 843 845
f 845 841 766
f 820 821 846
f 813 846 821
f 846 813 847
f 847 848 846
f 820 846 848
f 848 844 820
f 849 776 850
f 849 850 851
f 851 852 849
f 813 849 852
f 852 847 813
f 853 850 776
f 776 781 853
f 854 853 781
f 853 854 855
f 855 856 853
f 850 853 856
f 856 851 850
f 823 822 857
f 823 857 858
f 858 859 823
f 854 823 859
f 859 855 854
f 860 857 822
f 822 785 860
f 861 860 785
f 860 861 862
f 862 863 860
f 857 860 863
f 863 858 857
f 864 814 865
f 865 866 864
f 861 864 866
f 866 862 861
f 815 867 868
f 868 869 815
f 814 815 869
f 869 865 814
f 870 796 871
f 870 871 872
f 872 873 870
f 867 870 873
f 873 868 867
f 874 871 796
f 796 802 874
f 875 874 802
f 874 875 876
f 876 877 874
f 871 874 877
f 877 872 871
f 875 824 878
f 879 878 824
f 878 879 880
f 880 881 878
f 875 878 881
f 881 876 875
f 808 745 829
f 829 882 808
f 879 808 882
f 882 880 879
f 883 887 1233
f 1233 1234 883
f 1234 884 883
f 885 883 884
f 886 883 885
f 1237 883 886
f 1237 1239 883
f 1240 883 1239
f 887 883 1240
f 888 896 889
f 888 889 890
f 888 890 891
f 888 891 1245
f 1245 892 888
f 888 892 893
f 888 893 894
f 895 888 894
f 896 888 895
f 1037 1139 1140
f 1140 897 1037
f 1139 1037 1038
f 1038 1141 1139
f 1038 1142 1141
f 1142 1038 898
f 898 1143 1142
f 899 1144 1143
f 1143 898 899
f 1144 899 1039
f 1039 1145 1144
f 900 1146 1145
f 1145 1039 900
f 1146 900 1040
f 1040 1147 1146
f 1147 1040 1041
f 1042 1148 1041
f 1148 1042 1149
f 1043 1152 1151
f 1043 1153 1152
f 1044 1154 1153
f 1153 1043 1044
f 1154 1044 901
f 901 1155 1154
f 901 1156 1155
f 1156 901 1045
f 1045 1157 1156
f 1046 1158 1157
f 1157 1045 1046
f 1158 1046 902
f 902 1159 1158
f 902 1160 1159
f 1160 902 1047
f 1047 1161 1160
f 1048 1162 1161
f 1161 1047 1048
f 1162 1048 903
f 903 1163 1162
f 903 1164 1163
f 1164 903 1049
f 1049 1165 1164
f 904 1166 1165
f 1165 1049 904
f 904 1167 1166
f 1050 1168 1167
f 1167 904 1050
f 1168 1050 905
f 905 1169 1168
f 1051 1170 1169
f 1169 905 1051
f 1051 1171 1170
f 1052 1172 1171
f 1171 1051 1052
f 1172 1052 897
f 897 1140 1172
f 1053 1173 1174
f 1174 906 1053
f 1173 1053 1054
f 1054 1175 1173
f 907 1176 1177
f 1176 907 906
f 906 1174 1176
f 1055 1178 1179
f 1179 908 1055
f 1178 1055 907
f 907 1177 1178
f 1056 1180 1181
f 1181 1057 1056
f 1180 1056 908
f 908 1179 1180
f 1057 1182 1183
f 1183 909 1057
f 1057 1181 1182
f 1058 1184 1059
f 1184 1058 909
f 909 1183 1184
f 1060 1185 1186
f 1185 1060 1059
f 910 1187 1188
f 1188 911 910
f 1187 910 1060
f 1060 1186 1187
f 1061 1189 1190
f 1190 912 1061
f 1189 1061 911
f 911 1188 1189
f 913 1191 1192
f 1191 913 912
f 912 1190 1191
f 1062 1193 1194
f 1194 914 1062
f 1193 1062 913
f 913 1192 1193
f 1063 1195 1196
f 1196 915 1063
f 1195 1063 914
f 914 1194 1195
f 915 1197 1198
f 1198 1138 915
f 915 1196 1197
f 916 1199 1200
f 1199 916 1138
f 1138 1198 1199
f 1064 1201 1202
f 1202 1065 1064
f 1201 1064 916
f 916 1200 1201
f 1065 1203 1204
f 1204 917 1065
f 1065 1202 1203
f 1066 1205 1206
f 1206 918 1066
f 1205 1066 917
f 917 1204 1205
f 918 1207 1175
f 1175 1054 918
f 918 1206 1207
f 921 919 920
f 920 922 921
f 919 921 923
f 923 924 919
f 926 925 924
f 924 923 926
f 925 926 927
f 927 928 925
f 930 929 928
f 928 927 930
f 929 930 931
f 931 932 929
f 934 933 932
f 932 931 934
f 933 934 935
f 935 936 933
f 938 937 936
f 936 935 938
f 937 938 939
f 939 940 937
f 942 941 940
f 940 939 942
f 941 942 943
f 943 944 941
f 946 945 944
f 944 943 946
f 945 946 947
f 947 948 945
f 950 949 948
f 948 947 950
f 949 950 951
f 951 952 949
f 954 953 952
f 952 951 954
f 953 954 955
f 955 956 953
f 958 957 956
f 956 955 958
f 957 958 959
f 959 960 957
f 962 961 960
f 960 959 962
f 961 962 963
f 963 964 961
f 966 965 964
f 964 963 966
f 965 966 967
f 967 968 965
f 970 969 968
f 968 967 970
f 969 970 971
f 971 972 969
f 974 973 972
f 972 971 974
f 973 974 975
f 975 976 973
f 978 977 976
f 976 975 978
f 977 978 979
f 979 980 977
f 982 981 980
f 980 979 982
f 981 982 983
f 983 984 981
f 986 985 984
f 984 983 986
f 985 986 987
f 987 988 985
f 990 989 988
f 988 987 990
f 989 990 922
f 922 920 989
f 997 1108 996
f 996 998 997
f 1108 997 995
f 1001 999 1000
f 1000 1002 1001
f 999 1001 998
f 998 996 999
f 1005 1003 1004
f 1004 1006 1005
f 1003 1005 1002
f 1002 1000 1003
f 1009 1007 1008
f 1008 1010 1009
f 1007 1009 1006
f 1006 1004 1007
f 1013 1011 1012
f 1012 1014 1013
f 1011 1013 1010
f 1010 1008 1011
f 1017 1015 1016
f 1015 1017 1014
f 1014 1012 1015
f 1248 915 1138
f 1067 743 742
f 742 1068 1067
f 919 1067 1068
f 1068 920 919
f 1067 919 924
f 924 1069 1067
f 743 1067 1069
f 1069 744 743
f 1070 747 744
f 744 1069 1070
f 925 1070 1069
f 1069 924 925
f 1070 925 928
f 928 1071 1070
f 747 1070 1071
f 1071 748 747
f 1072 750 748
f 748 1071 1072
f 929 1072 1071
f 1071 928 929
f 1072 929 932
f 932 1073 1072
f 750 1072 1073
f 1073 752 750
f 1074 755 752
f 752 1073 1074
f 933 1074 1073
f 1073 932 933
f 1074 933 936
f 936 1075 1074
f 755 1074 1075
f 1075 757 755
f 1076 759 757
f 757 1075 1076
f 937 1076 1075
f 1075 936 937
f 1076 937 940
f 940 1077 1076
f 759 1076 1077
f 1077 761 759
f 1078 763 761
f 761 1077 1078
f 941 1078 1077
f 1077 940 941
f 1078 941 944
f 944 1079 1078
f 763 1078 1079
f 1079 765 763
f 1080 768 765
f 765 1079 1080
f 945 1080 1079
f 1079 944 945
f 1080 945 948
f 948 1081 1080
f 768 1080 1081
f 1081 770 768
f 1082 771 770
f 770 1081 1082
f 949 1082 1081
f 1081 948 949
f 1082 949 952
f 952 1083 1082
f 771 1082 1083
f 1083 773 771
f 1084 775 773
f 773 1083 1084
f 953 1084 1083
f 1083 952 953
f 1084 953 956
f 956 1085 1084
f 775 1084 1085
f 1085 777 775
f 1086 778 777
f 777 1085 1086
f 957 1086 1085
f 1085 956 957
f 1086 957 960
f 960 1087 1086
f 778 1086 1087
f 1087 780 778
f 1088 783 780
f 780 1087 1088
f 961 1088 1087
f 1087 960 961
f 1088 961 964
f 964 1089 1088
f 783 1088 1089
f 1089 784 783
f 1090 786 784
f 784 1089 1090
f 965 1090 1089
f 1089 964 965
f 1090 965 968
f 968 1091 1090
f 786 1090 1091
f 1091 788 786
f 1092 790 788
f 788 1091 1092
f 969 1092 1091
f 1091 968 969
f 1092 969 972
f 972 1093 1092
f 790 1092 1093
f 1093 791 790
f 1094 793 791
f 791 1093 1094
f 973 1094 1093
f 1093 972 973
f 1094 973 976
f 976 1095 1094
f 793 1094 1095
f 1095 794 793
f 1096 795 794
f 794 1095 1096
f 977 1096 1095
f 1095 976 977
f 1096 977 980
f 980 1097 1096
f 795 1096 1097
f 1097 797 795
f 1098 799 797
f 797 1097 1098
f 981 1098 1097
f 1097 980 981
f 1098 981 984
f 984 1099 1098
f 799 1098 1099
f 1099 801 799
f 1100 803 801
f 801 1099 1100
f 985 1100 1099
f 1099 984 985
f 1100 985 988
f 988 1101 1100
f 803 1100 1101
f 1101 805 803
f 1102 807 805
f 805 1101 1102
f 989 1102 1101
f 1101 988 989
f 1102 989 920
f 920 1068 1102
f 807 1102 1068
f 1068 742 807
f 1103 828 827
f 827 1104 1103
f 991 1103 1104
f 1104 992 991
f 1103 991 993
f 993 1105 1103
f 828 1103 1105
f 1105 829 828
f 1106 832 831
f 831 1107 1106
f 994 1106 1107
f 1107 995 994
f 1106 994 992
f 992 1104 1106
f 832 1106 1104
f 1104 827 832
f 1108 834 833
f 833 996 1108
f 995 1107 1108
f 834 1108 1107
f 1107 831 834
f 1109 837 836
f 836 1110 1109
f 999 1109 1110
f 1110 1000 999
f 1109 999 996
f 996 833 1109
f 837 1109 833
f 1111 840 839
f 839 1112 1111
f 1003 1111 1112
f 1112 1004 1003
f 1111 1003 1000
f 1000 1110 1111
f 840 1111 1110
f 1110 836 840
f 1113 842 841
f 841 1114 1113
f 1007 1113 1114
f 1114 1008 1007
f 1113 1007 1004
f 1004 1112 1113
f 842 1113 1112
f 1112 839 842
f 1115 845 844
f 844 1116 1115
f 1011 1115 1116
f 1116 1012 1011
f 1115 1011 1008
f 1008 1114 1115
f 845 1115 1114
f 1114 841 845
f 1117 848 847
f 847 1118 1117
f 1015 1117 1118
f 1118 1016 1015
f 1117 1015 1012
f 1012 1116 1117
f 848 1117 1116
f 1116 844 848
f 1119 852 851
f 851 1120 1119
f 1018 1119 1120
f 1120 1019 1018
f 1119 1018 1016
f 1016 1118 1119
f 852 1119 1118
f 1118 847 852
f 1121 856 855
f 855 1122 1121
f 1020 1121 1122
f 1122 1021 1020
f 1121 1020 1019
f 1019 1120 1121
f 856 1121 1120
f 1120 851 856
f 1123 859 858
f 858 1124 1123
f 1022 1123 1124
f 1124 1023 1022
f 1123 1022 1021
f 1021 1122 1123
f 859 1123 1122
f 1122 855 859
f 1125 863 862
f 862 1126 1125
f 1024 1125 1126
f 1126 1025 1024
f 1125 1024 1023
f 1023 1124 1125
f 863 1125 1124
f 1124 858 863
f 1127 866 865
f 865 1128 1127
f 1026 1127 1128
f 1128 1027 1026
f 1127 1026 1025
f 1025 1126 1127
f 866 1127 1126
f 1126 862 866
f 1129 869 868
f 868 1130 1129
f 1028 1129 1130
f 1130 1029 1028
f 1129 1028 1027
f 1027 1128 1129
f 869 1129 1128
f 1128 865 869
f 1131 873 872
f 872 1132 1131
f 1030 1131 1132
f 1132 1031 1030
f 1131 1030 1029
f 1029 1130 1131
f 873 1131 1130
f 1130 868 873
f 1133 877 876
f 876 1134 1133
f 1032 1133 1134
f 1134 1033 1032
f 1133 1032 1031
f 1031 1132 1133
f 877 1133 1132
f 1132 872 877
f 1135 881 880
f 880 1136 1135
f 1034 1135 1136
f 1136 1035 1034
f 1135 1034 1033
f 1033 1134 1135
f 881 1135 1134
f 1134 876 881
f 1137 882 829
f 829 1105 1137
f 1036 1137 1105
f 1105 993 1036
f 1137 1036 1035
f 1035 1136 1137
f 882 1137 1136
f 1136 880 882
f 1139 921 922
f 922 1140 1139
f 921 1139 1141
f 1141 923 921
f 1142 926 923
f 923 1141 1142
f 926 1142 1143
f 1143 927 926
f 1144 930 927
f 927 1143 1144
f 930 1144 1145
f 1145 931 930
f 1146 934 931
f 931 1145 1146
f 934 1146 1147
f 1147 935 934
f 935 1147 938
f 1041 938 1147
f 938 1041 1148
f 1148 939 938
f 1148 942 939
f 942 1148 1149
f 1149 943 942
f 1150 946 943
f 943 1149 1150
f 946 1150 1151
f 1151 947 946
f 1152 950 947
f 947 1151 1152
f 950 1152 1153
f 1153 951 950
f 1154 954 951
f 951 1153 1154
f 954 1154 1155
f 1155 955 954
f 1156 958 955
f 955 1155 1156
f 958 1156 1157
f 1157 959 958
f 1158 962 959
f 959 1157 1158
f 962 1158 1159
f 1159 963 962
f 1160 966 963
f 963 1159 1160
f 966 1160 1161
f 1161 967 966
f 1162 970 967
f 967 1161 1162
f 970 1162 1163
f 1163 971 970
f 1164 974 971
f 971 1163 1164
f 974 1164 1165
f 1165 975 974
f 1166 978 975
f 975 1165 1166
f 978 1166 1167
f 1167 979 978
f 1168 982 979
f 979 1167 1168
f 982 1168 1169
f 1169 983 982
f 1170 986 983
f 983 1169 1170
f 986 1170 1171
f 1171 987 986
f 1172 990 987
f 987 1171 1172
f 990 1172 1140
f 1140 922 990
f 1173 991 992
f 992 1174 1173
f 991 1173 1175
f 1175 993 991
f 1176 994 995
f 995 1177 1176
f 994 1176 1174
f 1174 992 994
f 1178 997 998
f 998 1179 1178
f 997 1178 1177
f 1177 995 997
f 1180 1001 1002
f 1002 1181 1180
f 1001 1180 1179
f 1179 998 1001
f 1182 1005 1006
f 1006 1183 1182
f 1005 1182 1181
f 1181 1002 1005
f 1184 1009 1010
f 1010 1059 1184
f 1009 1184 1183
f 1183 1006 1009
f 1185 1013 1014
f 1014 1186 1185
f 1059 1010 1185
f 1013 1185 1010
f 1187 1017 1016
f 1016 1188 1187
f 1017 1187 1186
f 1186 1014 1017
f 1189 1018 1019
f 1019 1190 1189
f 1018 1189 1188
f 1188 1016 1018
f 1191 1020 1021
f 1021 1192 1191
f 1020 1191 1190
f 1190 1019 1020
f 1193 1022 1023
f 1023 1194 1193
f 1022 1193 1192
f 1192 1021 1022
f 1195 1024 1025
f 1025 1196 1195
f 1024 1195 1194
f 1194 1023 1024
f 1197 1026 1027
f 1027 1198 1197
f 1026 1197 1196
f 1196 1025 1026
f 1199 1028 1029
f 1029 1200 1199
f 1028 1199 1198
f 1198 1027 1028
f 1201 1030 1031
f 1031 1202 1201
f 1030 1201 1200
f 1200 1029 1030
f 1203 1032 1033
f 1033 1204 1203
f 1032 1203 1202
f 1202 1031 1032
f 1205 1034 1035
f 1035 1206 1205
f 1034 1205 1204
f 1204 1033 1034
f 1207 1036 993
f 993 1175 1207
f 1036 1207 1206
f 1206 1035 1036
f 1208 1037 897
f 897 1209 1208
f 1208 1038 1037
f 1208 898 1038
f 1210 899 898
f 898 1208 1210
f 1210 1039 899
f 1211 900 1039
f 1039 1210 1211
f 900 1211 1212
f 1212 1040 900
f 1212 1041 1040
f 1212 1211 1213
f 1041 1212 1213
f 1213 1042 1041
f 1042 1213 1214
f 1214 1149 1042
f 1238 1150 1149
f 1149 1214 1238
f 1238 1151 1150
f 1215 1043 1151
f 1151 1238 1215
f 1215 1044 1043
f 1044 1215 1216
f 1216 901 1044
f 1216 1045 901
f 1217 1046 1045
f 1045 1216 1217
f 1217 902 1046
f 902 1217 1218
f 1218 1047 902
f 1218 1048 1047
f 1048 1218 1219
f 1219 903 1048
f 903 1219 1220
f 1220 1049 903
f 1221 904 1049
f 1049 1220 1221
f 1221 1050 904
f 1050 1221 1222
f 1222 905 1050
f 1223 1051 905
f 905 1222 1223
f 1223 1052 1051
f 1052 1223 1209
f 1209 897 1052
f 1225 1053 906
f 906 1224 1225
f 1225 1054 1053
f 1224 906 907
f 1224 1055 908
f 908 1243 1224
f 1242 1224 1243
f 1224 907 1055
f 1226 1056 1057
f 1056 1226 1243
f 1243 908 1056
f 1226 1057 909
f 1244 1058 1059
f 1059 1227 1244
f 1227 1245 1244
f 1058 1244 1226
f 1226 909 1058
f 1227 1059 1060
f 1227 910 911
f 911 1228 1227
f 1227 1060 910
f 1228 1061 912
f 912 1229 1228
f 1228 911 1061
f 1229 912 913
f 1229 1062 914
f 914 1247 1229
f 1229 913 1062
f 1248 1063 915
f 1063 1248 1247
f 1247 914 1063
f 1138 1230 1248
f 916 1249 1230
f 1230 1138 916
f 1231 1064 1065
f 1064 1231 1249
f 1249 916 1064
f 1231 1065 917
f 917 1232 1231
f 1232 1066 918
f 1232 917 1066
f 1232 918 1054
f 1054 1225 1232
f 1209 1241 1208
f 1241 1209 887
f 1233 1209 1223
f 1233 887 1209
f 1222 1233 1223
f 1233 1222 1234
f 1234 1222 1221
f 1220 1234 1221
f 1234 1220 884
f 1220 1219 884
f 1235 1219 1218
f 1219 1235 885
f 885 884 1219
f 1218 1217 1235
f 1236 1235 1217
f 1217 1216 1236
f 1235 1236 886
f 886 885 1235
f 1216 1215 1236
f 1237 1236 1215
f 1237 886 1236
f 1215 1238 1237
f 1237 1238 1239
f 1214 1213 1239
f 1239 1238 1214
f 1213 1211 1239
f 1240 1239 1211
f 1211 1210 1240
f 1241 1240 1210
f 1210 1208 1241
f 1240 1241 887
f 1242 1251 1225
f 1225 1224 1242
f 1251 1242 889
f 890 889 1242
f 1242 1243 890
f 891 890 1243
f 1244 1243 1226
f 1243 1244 891
f 1245 891 1244
f 1246 1245 1227
f 1227 1228 1246
f 1245 1246 892
f 1228 1229 1246
f 1247 1246 1229
f 1246 1247 893
f 893 892 1246
f 1247 1248 894
f 894 893 1247
f 1248 1230 894
f 1230 1249 895
f 895 894 1230
f 1250 1249 1231
f 1249 1250 896
f 896 895 1249
f 1231 1232 1250
f 1251 1250 1232
f 1250 1251 896
f 1232 1225 1251
f 889 896 1251
