# Blender 5.1.1
# www.blender.org
mtllib CabinetDoorMid_out.mtl
o F2a2927dB09f40d29b7a3cb63c5e1e2f
v -0.005551 0.106112 0.337500
v -0.007816 -0.220880 0.337500
v -0.007816 -0.220880 0.397500
v -0.005551 0.106112 0.397500
v 0.012449 0.105988 0.397500
v 0.010183 -0.221004 0.397500
v 0.010183 -0.221004 0.337500
v 0.012449 0.105988 0.337500
v -0.005551 0.106112 -0.397500
v -0.007816 -0.220880 -0.397500
v -0.007816 -0.220880 -0.337500
v -0.005551 0.106112 -0.337500
v 0.012449 0.105988 -0.337500
v 0.010183 -0.221004 -0.337500
v 0.010183 -0.221004 -0.397500
v 0.012449 0.105988 -0.397500
v -0.007816 -0.220880 -0.398000
v -0.008232 -0.280878 -0.398000
v -0.008232 -0.280878 0.398000
v -0.007816 -0.220880 0.398000
v 0.010183 -0.221004 0.398000
v 0.009768 -0.281003 0.398000
v 0.009768 -0.281003 -0.398000
v 0.010183 -0.221004 -0.398000
v -0.005135 0.166111 -0.398000
v -0.005551 0.106112 -0.398000
v -0.005551 0.106112 0.398000
v -0.005135 0.166111 0.398000
v 0.012865 0.165986 0.398000
v 0.012449 0.105988 0.398000
v 0.012449 0.105988 -0.398000
v 0.012865 0.165986 -0.398000
v 0.001025 0.117067 -0.349000
v -0.001393 -0.231925 -0.349000
v -0.001393 -0.231925 0.349000
v 0.001025 0.117067 0.349000
v 0.006025 0.117033 0.349000
v 0.003607 -0.231959 0.349000
v 0.003607 -0.231959 -0.349000
v 0.006025 0.117033 -0.349000
v -0.005284 0.144612 -0.287000
v -0.006284 0.144618 -0.287000
v -0.006298 0.142618 -0.287000
v -0.005298 0.142612 -0.287000
v -0.005298 0.142612 -0.289000
v -0.006298 0.142618 -0.289000
v -0.006284 0.144618 -0.289000
v -0.005284 0.144612 -0.289000
v -0.005284 0.144612 0.289000
v -0.006284 0.144618 0.289000
v -0.006298 0.142618 0.289000
v -0.005298 0.142612 0.289000
v -0.005298 0.142612 0.287000
v -0.006298 0.142618 0.287000
v -0.006284 0.144618 0.287000
v -0.005284 0.144612 0.287000
vn -0.0000 -0.0000 1.0000
vn 0.0069 1.0000 -0.0000
vn -0.0000 -0.0000 -1.0000
vn -0.0069 -1.0000 -0.0000
vn -1.0000 0.0069 -0.0000
vn 1.0000 -0.0069 -0.0000
vn 0.0068 1.0000 -0.0000
vn -0.0068 -1.0000 -0.0000
vn 1.0000 -0.0070 -0.0000
vn -1.0000 0.0070 -0.0000
vt 0.000000 0.000000
vt 0.327000 0.000000
vt 0.327000 0.018000
vt 0.000000 0.018000
vt 0.060000 0.000000
vt 0.060000 0.018000
vt 0.060000 0.327000
vt 0.000000 0.327000
vt -0.060000 0.000000
vt -0.060000 0.327000
vt 0.796000 0.000000
vt 0.796000 0.018000
vt 0.796000 0.060000
vt 0.000000 0.060000
vt -0.796000 0.000000
vt -0.796000 0.060000
vt 0.000000 0.005000
vt 0.349000 0.005000
vt 0.698000 0.005000
vt 0.698000 0.349000
vt 0.000000 0.349000
vt -0.698000 0.000000
vt -0.698000 0.349000
s 1
usemtl MI_6446510cd7c7aa0001b081b1.001
f 4/1/1 3/2/1 6/3/1
f 6/3/1 5/4/1 4/1/1
f 1/1/2 4/5/2 5/6/2
f 5/6/2 8/4/2 1/1/2
f 2/1/3 1/2/3 8/3/3
f 8/3/3 7/4/3 2/1/3
f 3/1/4 2/5/4 7/6/4
f 7/6/4 6/4/4 3/1/4
f 4/1/5 1/5/5 2/7/5
f 2/7/5 3/8/5 4/1/5
f 8/9/6 5/1/6 6/8/6
f 6/8/6 7/10/6 8/9/6
f 12/1/1 11/2/1 14/3/1
f 14/3/1 13/4/1 12/1/1
f 9/1/2 12/5/2 13/6/2
f 13/6/2 16/4/2 9/1/2
f 10/1/3 9/2/3 16/3/3
f 16/3/3 15/4/3 10/1/3
f 11/1/4 10/5/4 15/6/4
f 15/6/4 14/4/4 11/1/4
f 12/1/5 9/5/5 10/7/5
f 10/7/5 11/8/5 12/1/5
f 16/9/6 13/1/6 14/8/6
f 14/8/6 15/10/6 16/9/6
f 20/1/1 19/5/1 22/6/1
f 22/6/1 21/4/1 20/1/1
f 17/1/2 20/11/2 21/12/2
f 21/12/2 24/4/2 17/1/2
f 18/1/3 17/5/3 24/6/3
f 24/6/3 23/4/3 18/1/3
f 19/1/4 18/11/4 23/12/4
f 23/12/4 22/4/4 19/1/4
f 20/1/5 17/11/5 18/13/5
f 18/13/5 19/14/5 20/1/5
f 24/15/6 21/1/6 22/14/6
f 22/14/6 23/16/6 24/15/6
f 28/1/1 27/5/1 30/6/1
f 30/6/1 29/4/1 28/1/1
f 25/1/2 28/11/2 29/12/2
f 29/12/2 32/4/2 25/1/2
f 26/1/3 25/5/3 32/6/3
f 32/6/3 31/4/3 26/1/3
f 27/1/4 26/11/4 31/12/4
f 31/12/4 30/4/4 27/1/4
f 28/1/5 25/11/5 26/13/5
f 26/13/5 27/14/5 28/1/5
f 32/15/6 29/1/6 30/14/6
f 30/14/6 31/16/6 32/15/6
f 36/17/1 35/18/1 38/18/1
f 38/18/1 37/17/1 36/17/1
f 33/17/7 36/19/7 37/19/7
f 37/19/7 40/17/7 33/17/7
f 34/17/3 33/18/3 40/18/3
f 40/18/3 39/17/3 34/17/3
f 35/17/8 34/19/8 39/19/8
f 39/19/8 38/17/8 35/17/8
f 36/17/5 33/19/5 34/20/5
f 34/20/5 35/21/5 36/17/5
f 40/22/6 37/17/6 38/21/6
f 38/21/6 39/23/6 40/22/6
usemtl MI_64464f6ad7c7aa0001b075f3
f 44/1/8 43/1/4 46/1/8
f 46/1/8 45/1/4 44/1/8
f 41/1/9 44/1/9 45/1/9
f 45/1/9 48/1/9 41/1/9
f 42/1/7 41/1/2 48/1/2
f 48/1/2 47/1/2 42/1/7
f 43/1/10 42/1/10 47/1/10
f 47/1/10 46/1/10 43/1/10
f 44/1/1 41/1/1 42/1/1
f 42/1/1 43/1/1 44/1/1
f 48/1/3 45/1/3 46/1/3
f 46/1/3 47/1/3 48/1/3
f 52/1/8 51/1/4 54/1/8
f 54/1/8 53/1/4 52/1/8
f 49/1/9 52/1/9 53/1/9
f 53/1/9 56/1/9 49/1/9
f 50/1/7 49/1/2 56/1/2
f 56/1/2 55/1/2 50/1/7
f 51/1/10 50/1/10 55/1/10
f 55/1/10 54/1/10 51/1/10
f 52/1/1 49/1/1 50/1/1
f 50/1/1 51/1/1 52/1/1
f 56/1/3 53/1/3 54/1/3
f 54/1/3 55/1/3 56/1/3
