# USD → MuJoCo (world-space, simplified)
v 1.158562 7.239291 0.096820
v 1.160752 7.248378 0.098052
v 1.162032 7.248260 0.098021
v 1.160108 7.246919 0.098050
v 1.161058 7.246251 0.098027
v 1.159712 7.245685 0.098028
v 1.160596 7.244690 0.098030
v 1.160385 7.243492 0.098034
v 1.159191 7.241654 0.098038
v 1.160283 7.241418 0.098039
v 1.160813 7.238429 0.098047
v 1.159934 7.237656 0.098048
v 1.161952 7.235901 0.098053
v 1.160372 7.236257 0.098066
v 1.161906 7.234026 0.098058
v 1.163016 7.234408 0.098057
v 1.162635 7.232967 0.098070
v 1.163835 7.233508 0.098059
v 1.165050 7.232442 0.098062
v 1.165953 7.230533 0.098102
v 1.166587 7.231460 0.098065
v 1.168594 7.229447 0.098070
v 1.168245 7.230715 0.098067
v 1.170011 7.230236 0.098068
v 1.171333 7.228846 0.098100
v 1.171622 7.230035 0.098069
v 1.172632 7.228919 0.098072
v 1.173642 7.230080 0.098069
v 1.173922 7.228985 0.098096
v 1.175605 7.229285 0.098088
v 1.175824 7.230539 0.098068
v 1.177757 7.230050 0.098102
v 1.178066 7.231469 0.098066
v 1.179274 7.230888 0.098099
v 1.179603 7.232500 0.098063
v 1.180322 7.231654 0.098065
v 1.180668 7.233403 0.098061
v 1.181304 7.232401 0.098084
v 1.183113 7.234607 0.098058
v 1.182241 7.235252 0.098056
v 1.183790 7.235674 0.098091
v 1.183222 7.237039 0.098052
v 1.184866 7.238279 0.098049
v 1.183862 7.238735 0.098047
v 1.185190 7.239532 0.098073
v 1.184307 7.241328 0.098041
v 1.185371 7.243524 0.098033
v 1.185114 7.245215 0.098054
v 1.184160 7.243957 0.098034
v 1.183653 7.245921 0.098029
v 1.184641 7.246435 0.098028
v 1.183495 7.249015 0.098043
v 1.184187 7.247577 0.098060
v 1.182935 7.247596 0.098025
v 1.182690 7.250003 0.098019
v 1.181960 7.249140 0.098021
v 1.181886 7.250975 0.098044
v 1.180775 7.250520 0.098017
v 1.178900 7.252059 0.098013
v 1.179742 7.252798 0.098011
v 1.178644 7.253496 0.098044
v 1.177257 7.252934 0.098011
v 1.175963 7.253445 0.098009
v 1.176006 7.254580 0.098006
v 1.173590 7.253962 0.098008
v 1.173088 7.255138 0.098012
v 1.171151 7.253963 0.098008
v 1.169100 7.254781 0.098033
v 1.167913 7.254361 0.098006
v 1.169165 7.253602 0.098008
v 1.167259 7.252910 0.098010
v 1.165667 7.252017 0.098012
v 1.164330 7.252417 0.098011
v 1.163444 7.251673 0.098017
v 1.164225 7.250903 0.098015
v 1.162175 7.250490 0.098039
v 1.163101 7.249722 0.098018
v 1.161485 7.249424 0.098018
v 1.160115 7.248892 0.093307
v 1.160931 7.248505 0.093309
v 1.160043 7.248773 0.096795
v 1.185881 7.245410 0.096806
v 1.185847 7.245505 0.079181
v 1.185843 7.245544 0.093321
v 1.185729 7.245804 0.035828
v 1.185692 7.245893 0.023323
v 1.185730 7.245777 0.026400
v 1.185420 7.246707 0.023320
v 1.185431 7.246837 0.079178
v 1.185081 7.247520 0.023319
v 1.185042 7.247757 0.079176
v 1.185027 7.247648 0.026399
v 1.185026 7.247675 0.035823
v 1.184978 7.247942 0.096799
v 1.184589 7.248719 0.096798
v 1.184578 7.248580 0.035821
v 1.184031 7.249476 0.035818
v 1.184085 7.249512 0.079171
v 1.183563 7.250154 0.035817
v 1.183483 7.250221 0.023312
v 1.183561 7.250125 0.026391
v 1.182960 7.250879 0.023309
v 1.183386 7.250523 0.079168
v 1.182625 7.251407 0.079166
v 1.182352 7.251541 0.023309
v 1.181915 7.252183 0.096789
v 1.182260 7.251643 0.026392
v 1.182259 7.251670 0.035813
v 1.181700 7.252210 0.035811
v 1.181285 7.252737 0.096786
v 1.181171 7.252821 0.093296
v 1.181172 7.252781 0.079162
v 1.180542 7.253273 0.079161
v 1.180716 7.253021 0.035809
v 1.180035 7.253498 0.035808
v 1.180035 7.253470 0.026383
v 1.179925 7.253540 0.023306
v 1.179203 7.254141 0.079159
v 1.179182 7.253983 0.023302
v 1.179067 7.254256 0.096782
v 1.178415 7.254389 0.023302
v 1.178497 7.254554 0.096783
v 1.178293 7.254452 0.026381
v 1.178292 7.254479 0.035805
v 1.177534 7.254989 0.096779
v 1.177727 7.254729 0.035805
v 1.177391 7.254990 0.079156
v 1.176431 7.255333 0.079155
v 1.176593 7.255158 0.035803
v 1.175576 7.255436 0.035803
v 1.175449 7.255430 0.023298
v 1.175577 7.255409 0.026378
v 1.175096 7.255669 0.079155
v 1.174948 7.255746 0.096778
v 1.174590 7.255603 0.023295
v 1.174121 7.255883 0.096780
v 1.173734 7.255714 0.023297
v 1.173604 7.255736 0.026377
v 1.173603 7.255763 0.035802
v 1.173192 7.255795 0.035801
v 1.173259 7.255966 0.096777
v 1.173112 7.255924 0.079154
v 1.173111 7.255965 0.093290
v 1.171861 7.255953 0.079154
v 1.172002 7.255832 0.035801
v 1.170723 7.255734 0.035801
v 1.170719 7.255858 0.079154
v 1.170594 7.255682 0.023297
v 1.170570 7.255892 0.096777
v 1.169725 7.255764 0.096781
v 1.169735 7.255555 0.023297
v 1.168895 7.255579 0.096778
v 1.168885 7.255363 0.023298
v 1.168752 7.255532 0.093291
v 1.168753 7.255492 0.079155
v 1.168757 7.255367 0.035802
v 1.167653 7.255167 0.079155
v 1.167531 7.254998 0.035803
v 1.166498 7.254690 0.079156
v 1.166059 7.254358 0.035805
v 1.166359 7.254681 0.096781
v 1.165944 7.254261 0.023301
v 1.168995 7.254408 0.021691
v 1.166581 7.253530 0.035739
v 1.165437 7.254205 0.096782
v 1.165191 7.253851 0.023298
v 1.164865 7.253864 0.096782
v 1.164740 7.253775 0.093295
v 1.164447 7.253377 0.023303
v 1.164740 7.253736 0.079159
v 1.164339 7.253312 0.026383
v 1.164338 7.253339 0.035807
v 1.163622 7.252946 0.079161
v 1.163490 7.252713 0.035809
v 1.162844 7.252276 0.079162
v 1.162587 7.251904 0.035811
v 1.162730 7.252228 0.096785
v 1.162151 7.251467 0.035812
v 1.162130 7.251625 0.096788
v 1.162152 7.251440 0.026387
v 1.162062 7.251336 0.023308
v 1.161561 7.250993 0.096789
v 1.161634 7.250857 0.023307
v 1.161468 7.250865 0.093303
v 1.161470 7.250824 0.079166
v 1.161101 7.250352 0.079167
v 1.160881 7.249923 0.035816
v 1.160955 7.249998 0.023313
v 1.160882 7.249896 0.026391
v 1.160527 7.249537 0.079169
v 1.160419 7.249237 0.035817
v 1.160117 7.248851 0.079171
v 1.159796 7.248129 0.035820
v 1.159666 7.248050 0.096798
v 1.159466 7.247416 0.035822
v 1.159409 7.247258 0.023319
v 1.159467 7.247389 0.026396
v 1.159248 7.247048 0.079175
v 1.159311 7.247235 0.096799
v 1.159257 7.247087 0.093312
v 1.159023 7.246230 0.023320
v 1.158837 7.245622 0.023322
v 1.158802 7.245505 0.026404
v 1.158817 7.245722 0.079179
v 1.158797 7.245533 0.035827
v 1.158579 7.244753 0.079181
v 1.158413 7.243836 0.096809
v 1.158442 7.243887 0.035831
v 1.158331 7.242970 0.096809
v 1.158329 7.242693 0.035834
v 1.158322 7.242812 0.093323
v 1.158323 7.242771 0.079186
v 1.158323 7.242527 0.023330
v 1.158330 7.242666 0.026414
v 1.158293 7.241790 0.079189
v 1.158301 7.241648 0.023330
v 1.158341 7.240789 0.023334
v 1.158350 7.240777 0.079191
v 1.158344 7.240749 0.024361
v 1.158350 7.240695 0.035839
v 1.158350 7.240668 0.026412
v 1.158472 7.239610 0.035842
v 1.158389 7.240380 0.079192
v 1.158403 7.240283 0.096816
v 1.158388 7.240421 0.093329
v 1.158551 7.244658 0.096805
v 1.158580 7.244793 0.093318
v 1.162843 7.252316 0.093299
v 1.166497 7.254731 0.093293
v 1.170718 7.255899 0.093290
v 1.177390 7.255031 0.093293
v 1.182523 7.251566 0.096789
v 1.182624 7.251448 0.093303
v 1.183388 7.249174 0.093296
v 1.184163 7.249437 0.096795
v 1.185040 7.247797 0.093312
v 1.186207 7.243758 0.096814
v 1.186210 7.243580 0.093330
v 1.186048 7.244570 0.035831
v 1.186213 7.243539 0.079186
v 1.186260 7.242976 0.035835
v 1.186266 7.242873 0.023452
v 1.186309 7.241952 0.023332
v 1.186307 7.242146 0.079190
v 1.186277 7.241149 0.079193
v 1.186276 7.241189 0.093329
v 1.186281 7.240977 0.035840
v 1.186270 7.241050 0.096816
v 1.186059 7.239371 0.096827
v 1.186018 7.239208 0.093331
v 1.186098 7.239370 0.035844
v 1.186021 7.239167 0.079198
v 1.185669 7.237781 0.079201
v 1.185807 7.238138 0.035848
v 1.185781 7.237967 0.023335
v 1.185358 7.236741 0.023347
v 1.185342 7.236873 0.079203
v 1.185341 7.236914 0.093340
v 1.185286 7.236786 0.096827
v 1.185194 7.236338 0.023348
v 1.185141 7.236254 0.035852
v 1.185142 7.236227 0.026429
v 1.184812 7.235542 0.035854
v 1.184932 7.235973 0.096831
v 1.184484 7.235068 0.079208
v 1.184554 7.235249 0.096831
v 1.184482 7.235109 0.093345
v 1.184183 7.234425 0.035857
v 1.184074 7.234385 0.079210
v 1.183727 7.233747 0.035859
v 1.183499 7.233567 0.079212
v 1.183654 7.233601 0.023356
v 1.183131 7.233096 0.079213
v 1.182973 7.232739 0.023355
v 1.183129 7.233136 0.093350
v 1.183036 7.233028 0.096836
v 1.182547 7.232263 0.023358
v 1.182468 7.232396 0.096838
v 1.182457 7.232176 0.026438
v 1.182457 7.232203 0.035863
v 1.182170 7.232091 0.096839
v 1.182168 7.231909 0.035863
v 1.181863 7.231796 0.096840
v 1.181872 7.231623 0.035864
v 1.181755 7.231685 0.093353
v 1.181756 7.231644 0.079217
v 1.181108 7.230949 0.035866
v 1.180981 7.230976 0.079218
v 1.180269 7.230332 0.035867
v 1.179860 7.230184 0.079220
v 1.180162 7.230222 0.023363
v 1.179732 7.230157 0.096844
v 1.179448 7.230978 0.093361
v 1.179417 7.229746 0.023361
v 1.178998 7.229724 0.096848
v 1.178665 7.229338 0.023365
v 1.178547 7.229315 0.035870
v 1.178548 7.229288 0.026445
v 1.178236 7.229342 0.096846
v 1.178175 7.229137 0.035870
v 1.178101 7.229270 0.093359
v 1.178102 7.229230 0.079222
v 1.177082 7.228674 0.035871
v 1.176943 7.228751 0.079224
v 1.175851 7.228303 0.035872
v 1.175847 7.228428 0.079224
v 1.175846 7.228469 0.093360
v 1.175725 7.228235 0.023368
v 1.175702 7.228442 0.096848
v 1.174874 7.228044 0.023368
v 1.174872 7.228258 0.096851
v 1.174027 7.228129 0.096849
v 1.174016 7.227916 0.023369
v 1.173881 7.228061 0.079225
v 1.173885 7.227937 0.035873
v 1.172612 7.227839 0.035873
v 1.172743 7.227968 0.079225
v 1.171488 7.227995 0.079225
v 1.171339 7.228055 0.096849
v 1.173880 7.228102 0.093362
v 1.171487 7.228036 0.093362
v 1.171004 7.227905 0.035873
v 1.170488 7.228137 0.096851
v 1.170875 7.227884 0.023368
v 1.170035 7.227993 0.023365
v 1.169649 7.228275 0.096848
v 1.169504 7.228251 0.079224
v 1.169160 7.228168 0.023368
v 1.169031 7.228235 0.035872
v 1.169032 7.228208 0.026447
v 1.168018 7.228511 0.035871
v 1.168176 7.228585 0.079223
v 1.167209 7.228930 0.079222
v 1.166880 7.228941 0.035870
v 1.167207 7.228970 0.093360
v 1.166315 7.229191 0.035869
v 1.166289 7.229377 0.096845
v 1.166316 7.229164 0.026445
v 1.166198 7.229212 0.023365
v 1.165531 7.229761 0.096843
v 1.165621 7.229507 0.023362
v 1.165401 7.229828 0.093359
v 1.165402 7.229787 0.079220
v 1.164888 7.230095 0.079219
v 1.164573 7.230173 0.035866
v 1.164574 7.230146 0.026442
v 1.164685 7.230059 0.023365
v 1.163901 7.230641 0.035865
v 1.164058 7.230648 0.079218
v 1.163428 7.231139 0.079216
v 1.162913 7.231454 0.035863
v 1.163427 7.231180 0.093353
v 1.163312 7.231285 0.096840
v 1.162702 7.231820 0.096840
v 1.162348 7.232000 0.035862
v 1.162074 7.232455 0.096837
v 1.162257 7.232058 0.023357
v 1.161975 7.232513 0.079213
v 1.161654 7.232714 0.023354
v 1.161470 7.233089 0.079211
v 1.161126 7.233377 0.023354
v 1.161044 7.233517 0.035858
v 1.161047 7.233491 0.026435
v 1.161974 7.232553 0.093351
v 1.160507 7.234401 0.079208
v 1.160434 7.234584 0.096831
v 1.160514 7.234449 0.093344
v 1.160119 7.234921 0.035854
v 1.160009 7.235301 0.096831
v 1.159619 7.236079 0.096827
v 1.159582 7.235995 0.035851
v 1.159557 7.236204 0.093340
v 1.159558 7.236163 0.079203
v 1.159169 7.237083 0.079201
v 1.159528 7.236079 0.023347
v 1.159191 7.236888 0.023343
v 1.158917 7.237705 0.023342
v 1.158878 7.237866 0.035846
v 1.158879 7.237839 0.026422
v 1.158753 7.238415 0.079197
v 1.158718 7.238610 0.096821
v 1.158755 7.238457 0.093329
v 1.158736 7.238388 0.035845
v 1.159582 7.235969 0.026427
v 1.162349 7.231973 0.026437
v 1.175851 7.228276 0.026448
v 1.180270 7.230305 0.026443
v 1.182957 7.234257 0.021753
v 1.186279 7.240950 0.026416
v 1.184790 7.245452 0.035829
v 1.185315 7.243010 0.035830
v 1.185361 7.242775 0.021706
v 1.184791 7.245425 0.026406
v 1.160270 7.246937 0.021695
v 1.159801 7.245351 0.021691
v 1.159468 7.243952 0.021694
v 1.161492 7.242630 0.021696
v 1.162230 7.237889 0.021754
v 1.162776 7.250654 0.021675
v 1.163836 7.251673 0.021675
v 1.163300 7.247721 0.021685
v 1.165012 7.252554 0.021671
v 1.169662 7.252214 0.021674
v 1.172174 7.254801 0.021667
v 1.173642 7.254728 0.021665
v 1.175218 7.254453 0.021668
v 1.178624 7.251548 0.021671
v 1.174173 7.252399 0.021682
v 1.176631 7.254062 0.021669
v 1.182685 7.249626 0.021680
v 1.183528 7.248384 0.021685
v 1.183634 7.244212 0.021695
v 1.184487 7.246363 0.021682
v 1.185303 7.241130 0.021701
v 1.185148 7.239666 0.021707
v 1.184283 7.236729 0.021713
v 1.183629 7.235380 0.021718
v 1.181826 7.232941 0.021722
v 1.180750 7.231897 0.021726
v 1.179697 7.231104 0.021740
v 1.176909 7.229629 0.021732
v 1.175475 7.229182 0.021730
v 1.174630 7.230380 0.021730
v 1.171097 7.228809 0.021766
v 1.167290 7.231183 0.021727
v 1.169298 7.229064 0.021745
v 1.166736 7.230055 0.021755
v 1.162937 7.232659 0.021734
v 1.161097 7.235178 0.021717
v 1.160436 7.236489 0.021712
v 1.161989 7.236396 0.021783
v 1.159870 7.237983 0.021708
v 1.159503 7.239434 0.021706
v 1.161701 7.249313 0.021701
v 1.161655 7.249287 0.035817
v 1.160369 7.247145 0.035817
v 1.159747 7.245172 0.026399
v 1.159332 7.242703 0.035834
v 1.159672 7.245188 0.035828
v 1.159306 7.242461 0.021696
v 1.159333 7.242676 0.026408
v 1.159353 7.240678 0.026419
v 1.159338 7.240864 0.021702
v 1.159352 7.240705 0.035839
v 1.159747 7.238209 0.035845
v 1.159818 7.238191 0.026421
v 1.160521 7.236320 0.026426
v 1.161808 7.234170 0.035856
v 1.160471 7.236295 0.035850
v 1.161924 7.233964 0.021718
v 1.161809 7.234143 0.026431
v 1.165065 7.231046 0.035864
v 1.163092 7.232580 0.035855
v 1.165156 7.230930 0.021727
v 1.169196 7.229223 0.035869
v 1.166805 7.229989 0.035867
v 1.169196 7.229196 0.026445
v 1.171176 7.228850 0.035870
v 1.173694 7.228899 0.035862
v 1.173808 7.228810 0.021743
v 1.175667 7.229261 0.026446
v 1.178037 7.230177 0.035867
v 1.175709 7.229229 0.035870
v 1.178221 7.230221 0.021729
v 1.178038 7.230151 0.026440
v 1.179759 7.231194 0.035865
v 1.181682 7.232840 0.035861
v 1.180790 7.231977 0.035863
v 1.181683 7.232813 0.026436
v 1.182952 7.234384 0.035857
v 1.184196 7.236587 0.035851
v 1.183653 7.235471 0.035854
v 1.184196 7.236560 0.026429
v 1.184896 7.238351 0.021744
v 1.185275 7.240967 0.035840
v 1.184932 7.238481 0.035847
v 1.185276 7.240940 0.026405
v 1.186286 7.241072 0.023336
v 1.162926 7.250803 0.026389
v 1.164849 7.252449 0.026385
v 1.164848 7.252476 0.035809
v 1.162884 7.250886 0.035813
v 1.166386 7.253466 0.021678
v 1.168894 7.254441 0.035805
v 1.170793 7.254702 0.021670
v 1.173440 7.254747 0.026380
v 1.173439 7.254775 0.035804
v 1.170911 7.254822 0.035801
v 1.175413 7.254420 0.026382
v 1.177876 7.253536 0.021683
v 1.177800 7.253606 0.035807
v 1.176629 7.254098 0.035806
v 1.175412 7.254447 0.035805
v 1.179450 7.252652 0.021677
v 1.181673 7.250924 0.021688
v 1.181474 7.251041 0.035719
v 1.179589 7.252676 0.035810
v 1.182800 7.249474 0.026390
v 1.184088 7.247296 0.026404
v 1.184087 7.247323 0.035824
v 1.183495 7.248473 0.035821
v 1.182799 7.249501 0.035818
v 1.166549 7.231690 0.022120
v 1.171429 7.230279 0.022314
v 1.175588 7.230717 0.022484
v 1.179646 7.232852 0.021724
v 1.182547 7.236137 0.022813
v 1.183399 7.238085 0.021711
v 1.181962 7.248117 0.021685
v 1.182774 7.246960 0.023218
v 1.173827 7.253272 0.021757
v 1.178961 7.251260 0.023442
v 1.175513 7.252871 0.023579
v 1.168963 7.252903 0.021955
v 1.167675 7.252378 0.023899
v 1.171540 7.253343 0.023734
v 1.163438 7.249349 0.024102
v 1.161217 7.245076 0.024306
v 1.161372 7.245597 0.022395
v 1.160752 7.241043 0.022591
v 1.160778 7.241408 0.024463
v 1.162189 7.235965 0.024689
v 1.161946 7.236602 0.022775
v 1.164930 7.232889 0.022979
v 1.166517 7.231784 0.024945
v 1.170133 7.230477 0.025091
v 1.174688 7.230468 0.025273
v 1.176756 7.231164 0.023474
v 1.177692 7.231643 0.025400
v 1.180470 7.233578 0.025521
v 1.182564 7.236458 0.023765
v 1.183768 7.240446 0.023926
v 1.183648 7.244138 0.024057
v 1.181687 7.248524 0.026118
v 1.181960 7.248198 0.024215
v 1.178805 7.251379 0.026276
v 1.173868 7.253264 0.026469
v 1.173082 7.253323 0.024613
v 1.168635 7.252807 0.026684
v 1.168619 7.252788 0.024798
v 1.164227 7.250048 0.026890
v 1.163049 7.248676 0.025074
v 1.162156 7.247293 0.027030
v 1.161235 7.245135 0.025244
v 1.160846 7.243390 0.027209
v 1.160771 7.240479 0.025442
v 1.161070 7.239069 0.027383
v 1.162204 7.236298 0.027506
v 1.163581 7.234256 0.027612
v 1.166474 7.231834 0.027769
v 1.171381 7.230307 0.026080
v 1.170874 7.230355 0.027947
v 1.179276 7.232515 0.028294
v 1.174802 7.230531 0.028105
v 1.181873 7.235309 0.026541
v 1.182766 7.236897 0.028499
v 1.183796 7.240555 0.028644
v 1.183825 7.240111 0.026742
v 1.183233 7.245618 0.026937
v 1.183436 7.244934 0.028797
v 1.182087 7.247890 0.028917
v 1.180975 7.249442 0.027105
v 1.179612 7.250812 0.029066
v 1.176130 7.252892 0.027327
v 1.169346 7.253029 0.027593
v 1.164500 7.250426 0.027814
v 1.168478 7.252756 0.029519
v 1.164016 7.249929 0.029725
v 1.161932 7.246800 0.027994
v 1.161741 7.246436 0.029899
v 1.160969 7.243881 0.030015
v 1.160880 7.240065 0.030170
v 1.164781 7.233088 0.030510
v 1.168376 7.230905 0.030679
v 1.165892 7.232123 0.028685
v 1.173661 7.230289 0.030885
v 1.175702 7.230668 0.029084
v 1.180423 7.233530 0.029285
v 1.178858 7.232256 0.031104
v 1.181628 7.235038 0.031242
v 1.182993 7.237548 0.031352
v 1.183693 7.240056 0.031451
v 1.183865 7.242307 0.029649
v 1.183754 7.243199 0.031565
v 1.183128 7.245779 0.031659
v 1.180769 7.249813 0.031834
v 1.179919 7.250627 0.029993
v 1.175354 7.253042 0.032068
v 1.170364 7.253331 0.030377
v 1.169885 7.253170 0.032285
v 1.165389 7.251074 0.030599
v 1.164674 7.250599 0.032518
v 1.160732 7.243138 0.030989
v 1.161015 7.239447 0.033022
v 1.163150 7.234590 0.033243
v 1.165198 7.232763 0.031472
v 1.166831 7.231705 0.033437
v 1.170168 7.230433 0.033572
v 1.175647 7.230674 0.033794
v 1.180347 7.233483 0.033995
v 1.183835 7.239383 0.032370
v 1.183578 7.238919 0.034236
v 1.183304 7.245384 0.032582
v 1.183380 7.245270 0.034463
v 1.181337 7.249032 0.034624
v 1.178040 7.251911 0.034793
v 1.176548 7.252600 0.032967
v 1.166941 7.252155 0.033353
v 1.169279 7.252936 0.035139
v 1.165517 7.251289 0.035305
v 1.162475 7.247873 0.035485
v 1.161358 7.245608 0.033706
v 1.160930 7.244111 0.035661
v 1.162714 7.235354 0.035853
v 1.162221 7.236082 0.034108
v 1.165706 7.232320 0.034328
v 1.169736 7.230565 0.034500
v 1.168620 7.230916 0.035865
v 1.173368 7.230230 0.035867
v 1.165627 7.232422 0.035861
v 1.174699 7.230451 0.034696
v 1.178917 7.232380 0.034875
v 1.179638 7.232824 0.035861
v 1.181917 7.235368 0.035026
v 1.183050 7.237427 0.035848
v 1.183881 7.242255 0.035837
v 1.182436 7.247438 0.035569
v 1.180095 7.250475 0.035668
v 1.177115 7.252819 0.035805
v 1.160766 7.240843 0.033909
v 1.163254 7.249003 0.033541
v 1.171948 7.253370 0.033140
v 1.180842 7.249669 0.032768
v 1.180633 7.233726 0.032123
v 1.174719 7.230417 0.031872
v 1.168720 7.230792 0.031631
v 1.162556 7.248018 0.030763
v 1.170202 7.230451 0.028860
v 1.162180 7.236233 0.028448
v 1.160752 7.240611 0.028263
v 1.178657 7.232174 0.026382
v 1.163630 7.234216 0.025727
v 1.165200 7.250884 0.024954
v 1.177935 7.251977 0.024428
v 1.180025 7.233181 0.023614
v 1.169913 7.230460 0.023197
v 1.164256 7.250186 0.022171
v 1.169027 7.252148 0.035161
v 1.172891 7.253400 0.034990
v 1.178199 7.232708 0.033919
v 1.166846 7.232543 0.033422
v 1.161535 7.243417 0.032859
v 1.161093 7.245063 0.032791
v 1.164896 7.249848 0.032532
v 1.162494 7.235687 0.030362
v 1.164189 7.248865 0.029753
v 1.174275 7.253312 0.029280
v 1.176922 7.231970 0.028206
v 1.171082 7.231094 0.027951
v 1.165809 7.233123 0.027714
v 1.165479 7.250181 0.026850
v 1.176590 7.251709 0.026358
v 1.183620 7.244398 0.025950
v 1.182999 7.242642 0.025894
v 1.183425 7.238471 0.025737
v 1.177318 7.251378 0.023501
v 1.183851 7.241608 0.023028
v 1.178835 7.232527 0.022622
v 1.165097 7.233750 0.022018
v 1.170678 7.231038 0.022278
v 1.176863 7.231995 0.022549
v 1.182922 7.239605 0.022948
v 1.182140 7.246609 0.023218
v 1.167011 7.251215 0.023948
v 1.163523 7.248029 0.024144
v 1.161721 7.243901 0.024353
v 1.162081 7.238038 0.024607
v 1.165254 7.233692 0.024852
v 1.170014 7.231162 0.025079
v 1.176031 7.231681 0.025339
v 1.179175 7.233582 0.025485
v 1.182352 7.237506 0.025685
v 1.181540 7.247658 0.026093
v 1.170877 7.252573 0.026594
v 1.162274 7.245860 0.027086
v 1.161579 7.240394 0.027335
v 1.162953 7.236560 0.027511
v 1.181413 7.236003 0.028440
v 1.183086 7.241025 0.028660
v 1.182461 7.245312 0.028821
v 1.180951 7.248178 0.028952
v 1.177229 7.251511 0.029160
v 1.171908 7.252550 0.029802
v 1.167949 7.251724 0.029557
v 1.161895 7.244770 0.029967
v 1.162103 7.237882 0.030270
v 1.165436 7.233541 0.030959
v 1.169886 7.231267 0.030727
v 1.175209 7.231450 0.031426
v 1.178319 7.232762 0.031096
v 1.182038 7.237178 0.031322
v 1.183123 7.242242 0.031534
v 1.181740 7.247020 0.031722
v 1.178351 7.250800 0.031935
v 1.171937 7.252734 0.032202
v 1.162766 7.236576 0.033160
v 1.172005 7.230988 0.033644
v 1.181988 7.237060 0.034144
v 1.182650 7.244838 0.034456
v 1.180695 7.248566 0.034627
v 1.175900 7.252161 0.034869
v 1.164743 7.249496 0.035374
v 1.160297 7.241037 0.035838
v 1.160378 7.243212 0.035833
v 1.160661 7.244798 0.035829
v 1.162297 7.245868 0.035769
v 1.161251 7.246527 0.035824
v 1.162084 7.248146 0.035820
v 1.163040 7.249464 0.035817
v 1.164429 7.250918 0.035813
v 1.166262 7.252204 0.035810
v 1.166337 7.250945 0.035813
v 1.167897 7.253002 0.035808
v 1.169453 7.253487 0.035807
v 1.170643 7.253714 0.035807
v 1.172256 7.253839 0.035806
v 1.172631 7.252669 0.035809
v 1.174079 7.253702 0.035807
v 1.175857 7.253301 0.035808
v 1.178441 7.252154 0.035811
v 1.179936 7.251098 0.035814
v 1.181252 7.249844 0.035817
v 1.182248 7.248554 0.035821
v 1.160883 7.238058 0.035846
v 1.161922 7.235794 0.035852
v 1.162959 7.234300 0.035856
v 1.164507 7.232686 0.035860
v 1.166338 7.231422 0.035863
v 1.167606 7.230797 0.035865
v 1.169149 7.230253 0.035867
v 1.171341 7.229864 0.035868
v 1.173768 7.229915 0.035868
v 1.175945 7.230396 0.035867
v 1.178184 7.231352 0.035864
v 1.180166 7.232759 0.035861
v 1.181306 7.233900 0.035858
v 1.182423 7.235354 0.035854
v 1.183271 7.236957 0.035850
v 1.183901 7.238678 0.035846
v 1.184229 7.240457 0.035842
v 1.184313 7.242495 0.035836
v 1.183875 7.245087 0.035830
v 1.183071 7.247160 0.035824
v 1.161071 7.239149 0.035852
v 1.170520 7.252393 0.021896
v 1.166918 7.251100 0.022067
v 1.165963 7.250528 0.021719
v 1.173870 7.230385 0.023353
v 1.175016 7.231411 0.023407
v 1.183144 7.242252 0.023993
v 1.175131 7.252204 0.024529
v 1.171970 7.252579 0.024041
v 1.162044 7.236575 0.025605
v 1.167688 7.231930 0.025922
v 1.166910 7.231539 0.025903
v 1.175324 7.230676 0.026241
v 1.162540 7.247878 0.027941
v 1.161212 7.244926 0.028081
v 1.171039 7.231112 0.028888
v 1.177776 7.232272 0.029182
v 1.183029 7.237450 0.029462
v 1.182987 7.246187 0.029785
v 1.161832 7.244483 0.030921
v 1.161941 7.238396 0.031187
v 1.161986 7.236338 0.031267
v 1.180116 7.234277 0.032124
v 1.181793 7.246952 0.032658
v 1.178381 7.250769 0.032874
v 1.173829 7.252478 0.033064
v 1.172225 7.230999 0.034593
v 1.184044 7.241414 0.035272
v 1.179010 7.250441 0.035677
v 1.182579 7.245180 0.035410
v 1.183004 7.240783 0.034856
v 1.181595 7.236309 0.035049
v 1.177794 7.232520 0.034842
v 1.168254 7.231917 0.034425
v 1.165404 7.233558 0.034284
v 1.162552 7.237216 0.034072
v 1.161480 7.243157 0.033812
v 1.164247 7.249060 0.033514
v 1.168989 7.252117 0.033277
v 1.183197 7.240804 0.032419
v 1.170636 7.231041 0.031699
v 1.163724 7.248284 0.030727
v 1.167154 7.251338 0.030536
v 1.176759 7.252403 0.030125
v 1.179224 7.250329 0.030008
v 1.183089 7.243467 0.029691
v 1.182185 7.237493 0.029449
v 1.166111 7.232938 0.028672
v 1.162950 7.236511 0.028453
v 1.161674 7.240142 0.028287
v 1.162163 7.245860 0.028029
v 1.166680 7.251087 0.027731
v 1.172916 7.252652 0.027446
v 1.179279 7.250174 0.027176
v 1.182599 7.245074 0.026925
v 1.183015 7.241157 0.026777
v 1.181742 7.236368 0.026572
v 1.178302 7.232923 0.026385
v 1.174340 7.231168 0.026203
v 1.162731 7.236686 0.025613
v 1.161618 7.240910 0.025427
v 1.161820 7.244287 0.025275
v 1.163350 7.247726 0.025101
v 1.166680 7.251079 0.024903
v 1.180588 7.248951 0.024273
v 1.181537 7.236072 0.023731
v 1.178020 7.232717 0.023544
v 1.169896 7.231197 0.023186
v 1.163662 7.235096 0.022868
v 1.161519 7.241208 0.022586
v 1.162482 7.246302 0.022349
v 1.159562 7.238825 0.098073
v 1.159642 7.238622 0.093332
v 1.160350 7.236635 0.093339
v 1.160351 7.236594 0.079202
v 1.159598 7.238565 0.079197
v 1.161254 7.234974 0.098029
v 1.162594 7.233208 0.093347
v 1.162555 7.233146 0.079211
v 1.161308 7.234839 0.079207
v 1.163965 7.231904 0.098076
v 1.165776 7.230607 0.098064
v 1.165773 7.230580 0.079218
v 1.164045 7.231791 0.079215
v 1.167066 7.229031 0.096845
v 1.167495 7.229774 0.098106
v 1.169816 7.229162 0.098071
v 1.169602 7.229047 0.093361
v 1.169621 7.229148 0.079222
v 1.167583 7.229700 0.079220
v 1.171604 7.228930 0.093358
v 1.173714 7.228989 0.093359
v 1.173710 7.228901 0.079223
v 1.171605 7.228889 0.079223
v 1.177673 7.230017 0.079220
v 1.175689 7.229289 0.079222
v 1.181099 7.232305 0.093353
v 1.181100 7.232264 0.079215
v 1.179455 7.230941 0.079218
v 1.182422 7.233539 0.098084
v 1.182474 7.233756 0.093348
v 1.183667 7.235496 0.093344
v 1.183668 7.235456 0.079207
v 1.182513 7.233690 0.079211
v 1.184548 7.237078 0.098073
v 1.184526 7.237301 0.093340
v 1.185123 7.239325 0.093334
v 1.185166 7.239264 0.079197
v 1.184527 7.237260 0.079202
v 1.185433 7.241213 0.098077
v 1.185324 7.243374 0.079187
v 1.185428 7.241267 0.079192
v 1.184955 7.245379 0.093319
v 1.184248 7.247366 0.093313
v 1.184249 7.247326 0.079177
v 1.185000 7.245354 0.079182
v 1.182003 7.250793 0.093304
v 1.182008 7.250756 0.079168
v 1.183315 7.249096 0.079172
v 1.180782 7.252128 0.098036
v 1.180551 7.252166 0.093299
v 1.178831 7.253405 0.093309
v 1.178842 7.253353 0.079161
v 1.180552 7.252126 0.079164
v 1.177238 7.254253 0.098030
v 1.177003 7.254217 0.093295
v 1.174787 7.254934 0.098035
v 1.174996 7.254954 0.093293
v 1.174999 7.254814 0.079157
v 1.177004 7.254176 0.079158
v 1.170777 7.255058 0.098034
v 1.170882 7.255000 0.079156
v 1.172996 7.255035 0.079156
v 1.168918 7.254646 0.093293
v 1.166840 7.253978 0.098040
v 1.166921 7.253943 0.079158
v 1.168919 7.254605 0.079157
v 1.165246 7.253063 0.098020
v 1.163497 7.251659 0.079164
v 1.165158 7.252965 0.079161
v 1.162124 7.250245 0.093306
v 1.160898 7.248496 0.079172
v 1.162125 7.250205 0.079168
v 1.160072 7.246700 0.093313
v 1.159435 7.244494 0.098031
v 1.159475 7.244677 0.093318
v 1.159450 7.244645 0.079182
v 1.160069 7.246662 0.079176
v 1.159116 7.242958 0.098064
v 1.159217 7.242695 0.093323
v 1.159209 7.240381 0.098073
v 1.159275 7.240587 0.093329
v 1.159276 7.240546 0.079192
v 1.159172 7.242653 0.079187
f 381 825 1
f 1 825 904
f 3 2 5
f 5 2 4
f 6 5 4
f 5 6 7
f 7 6 898
f 7 898 8
f 8 898 902
f 8 902 10
f 10 902 9
f 10 9 904
f 10 904 11
f 11 904 825
f 11 825 12
f 11 12 14
f 11 14 13
f 13 14 830
f 15 13 830
f 13 15 16
f 16 15 17
f 16 17 18
f 18 17 19
f 19 17 834
f 19 834 835
f 19 835 21
f 21 835 20
f 21 20 839
f 21 839 23
f 23 839 22
f 23 22 24
f 24 22 840
f 24 840 25
f 24 25 26
f 26 25 27
f 26 27 28
f 28 27 29
f 28 29 30
f 30 31 28
f 31 30 33
f 33 30 32
f 33 32 34
f 33 34 36
f 33 36 35
f 35 36 37
f 37 36 38
f 37 38 853
f 37 853 40
f 40 853 39
f 40 39 41
f 40 41 858
f 40 858 42
f 43 44 858
f 858 44 42
f 44 43 45
f 44 45 46
f 46 45 863
f 46 863 47
f 46 47 49
f 49 47 48
f 49 48 51
f 49 51 50
f 50 51 54
f 54 51 53
f 54 53 52
f 55 56 52
f 52 56 54
f 56 55 58
f 58 55 57
f 58 57 873
f 58 873 59
f 59 873 60
f 59 60 61
f 59 61 878
f 59 878 62
f 62 878 63
f 63 878 64
f 63 64 65
f 65 64 880
f 65 880 66
f 65 66 67
f 67 66 884
f 67 884 70
f 70 884 68
f 69 70 68
f 70 69 71
f 71 69 888
f 71 888 72
f 72 888 891
f 72 891 73
f 72 73 75
f 75 73 74
f 75 74 76
f 75 76 77
f 77 76 78
f 77 78 3
f 3 78 2
f 79 81 80
f 80 81 2
f 239 82 237
f 82 239 83
f 82 83 84
f 83 239 85
f 83 85 89
f 89 85 86
f 89 86 88
f 85 87 86
f 89 88 90
f 89 90 91
f 92 93 90
f 90 93 91
f 96 94 93
f 94 96 95
f 95 96 235
f 235 96 97
f 235 97 98
f 98 97 103
f 103 97 99
f 103 99 100
f 103 100 102
f 99 101 100
f 103 102 104
f 104 102 105
f 104 105 232
f 232 105 106
f 106 105 107
f 107 108 106
f 108 109 106
f 106 109 110
f 110 109 111
f 111 109 112
f 109 114 112
f 112 114 113
f 113 114 115
f 113 115 118
f 118 115 116
f 118 116 117
f 118 117 119
f 118 119 120
f 120 119 121
f 120 121 122
f 121 123 122
f 122 123 124
f 122 124 125
f 125 124 126
f 125 126 127
f 127 126 129
f 127 129 128
f 128 129 130
f 128 130 133
f 133 130 131
f 130 132 131
f 133 131 135
f 133 135 134
f 134 135 136
f 136 135 137
f 138 139 137
f 137 139 136
f 136 139 141
f 141 139 140
f 141 140 142
f 141 142 143
f 140 145 142
f 142 145 144
f 144 145 146
f 144 146 147
f 147 146 148
f 147 148 149
f 149 148 151
f 149 151 150
f 150 151 152
f 152 151 153
f 152 153 154
f 154 153 155
f 155 153 156
f 155 156 157
f 157 156 158
f 157 158 159
f 159 158 160
f 159 160 161
f 161 160 162
f 146 488 148
f 153 163 156
f 160 164 162
f 161 162 165
f 165 162 166
f 165 166 167
f 167 166 170
f 167 170 168
f 166 169 170
f 171 172 169
f 169 172 170
f 170 172 173
f 173 172 174
f 173 174 175
f 175 174 176
f 175 176 177
f 177 176 178
f 177 178 179
f 179 178 180
f 179 180 181
f 179 181 182
f 182 181 183
f 182 183 184
f 184 183 185
f 185 183 188
f 185 188 186
f 186 188 187
f 187 188 189
f 186 187 190
f 190 187 191
f 190 191 192
f 192 191 193
f 192 193 81
f 81 193 194
f 194 193 195
f 194 195 199
f 199 195 196
f 195 197 196
f 201 198 196
f 196 198 199
f 199 198 200
f 198 201 204
f 204 201 202
f 203 205 202
f 202 205 204
f 204 205 206
f 206 205 208
f 206 208 226
f 226 208 207
f 207 208 209
f 209 208 210
f 209 210 211
f 211 210 214
f 211 214 212
f 212 214 213
f 212 213 215
f 215 213 216
f 215 216 217
f 215 217 218
f 218 217 219
f 218 219 220
f 220 219 221
f 220 222 218
f 218 222 223
f 223 222 224
f 224 222 1
f 223 224 225
f 206 226 227
f 192 81 79
f 175 177 228
f 161 229 159
f 149 230 147
f 134 881 133
f 127 231 125
f 120 875 118
f 104 232 233
f 234 235 98
f 236 91 94
f 94 91 93
f 47 237 48
f 48 237 82
f 47 238 237
f 239 237 240
f 240 237 238
f 239 240 241
f 241 240 244
f 241 244 242
f 242 244 243
f 243 244 478
f 478 244 245
f 478 245 246
f 478 246 247
f 247 246 248
f 247 248 251
f 251 248 249
f 251 249 252
f 252 249 250
f 251 252 253
f 251 253 254
f 254 253 255
f 255 253 256
f 256 253 257
f 256 257 259
f 259 257 258
f 256 259 260
f 260 259 261
f 260 261 262
f 259 264 261
f 261 264 263
f 263 264 266
f 263 266 265
f 265 266 267
f 263 265 268
f 268 265 269
f 268 269 270
f 270 269 271
f 270 271 272
f 272 271 273
f 272 273 274
f 274 273 275
f 274 275 276
f 274 276 277
f 277 276 278
f 277 278 279
f 279 278 280
f 280 278 281
f 280 281 282
f 282 281 283
f 282 283 284
f 284 283 285
f 284 285 286
f 284 286 287
f 287 286 288
f 287 288 289
f 289 288 290
f 289 290 291
f 291 290 294
f 294 290 292
f 290 293 292
f 294 292 295
f 294 295 296
f 296 295 297
f 296 297 298
f 295 299 297
f 297 299 300
f 300 299 301
f 301 302 300
f 300 302 303
f 303 302 304
f 303 304 305
f 305 304 306
f 305 306 308
f 308 306 307
f 308 307 309
f 308 309 310
f 310 309 311
f 310 311 312
f 310 312 313
f 313 312 314
f 313 314 315
f 315 314 317
f 315 317 316
f 316 317 318
f 316 318 322
f 322 318 319
f 312 320 314
f 318 321 319
f 322 319 323
f 322 323 324
f 324 323 325
f 325 323 326
f 841 327 326
f 326 327 325
f 325 327 328
f 328 327 329
f 328 329 330
f 327 332 329
f 329 332 331
f 331 332 333
f 331 333 334
f 334 333 838
f 333 335 838
f 334 838 336
f 336 838 337
f 336 337 338
f 338 337 339
f 339 337 340
f 339 340 341
f 341 340 342
f 342 343 341
f 341 343 347
f 347 343 344
f 349 345 344
f 344 345 346
f 344 346 347
f 345 349 348
f 348 349 350
f 348 350 351
f 351 350 353
f 351 353 354
f 350 352 353
f 351 354 355
f 355 354 356
f 355 356 357
f 357 356 358
f 357 358 359
f 359 358 360
f 359 360 361
f 361 360 362
f 361 362 363
f 356 364 358
f 360 365 362
f 362 365 368
f 368 365 366
f 366 365 367
f 368 366 369
f 368 369 370
f 368 370 371
f 372 373 370
f 370 373 371
f 374 375 373
f 375 374 376
f 376 374 377
f 377 374 378
f 377 378 379
f 374 380 378
f 378 380 383
f 383 380 381
f 381 380 382
f 383 381 1
f 383 1 222
f 384 371 375
f 375 371 373
f 355 357 385
f 324 424 322
f 315 459 313
f 308 386 305
f 291 387 289
f 270 272 388
f 255 474 254
f 247 389 478
f 85 239 390
f 390 239 391
f 391 239 241
f 393 87 390
f 390 87 85
f 391 392 390
f 390 392 393
f 393 392 413
f 394 401 397
f 394 397 395
f 395 397 396
f 396 397 440
f 440 397 443
f 443 397 433
f 433 397 398
f 401 394 434
f 401 434 399
f 401 399 400
f 401 400 757
f 757 400 402
f 757 402 483
f 757 483 403
f 403 483 163
f 403 163 485
f 403 485 404
f 403 404 408
f 408 404 405
f 408 405 406
f 408 406 407
f 406 409 407
f 407 409 490
f 407 490 494
f 407 494 495
f 407 495 509
f 509 495 410
f 509 410 411
f 509 411 413
f 509 413 412
f 412 413 392
f 412 392 414
f 412 414 508
f 508 414 415
f 508 415 474
f 508 474 416
f 508 416 417
f 508 417 388
f 508 388 506
f 506 388 418
f 506 418 419
f 506 419 420
f 506 420 464
f 506 464 423
f 423 464 421
f 423 421 422
f 423 422 460
f 423 460 424
f 423 424 425
f 425 424 426
f 425 426 427
f 425 427 454
f 425 454 428
f 425 428 431
f 431 428 450
f 431 450 429
f 431 429 430
f 431 430 432
f 431 432 398
f 398 432 433
f 434 394 435
f 435 394 436
f 189 188 434
f 189 434 187
f 187 434 435
f 436 195 193
f 436 193 191
f 436 191 435
f 435 191 187
f 436 197 195
f 197 436 394
f 197 394 196
f 196 394 201
f 201 394 395
f 201 395 202
f 437 203 202
f 437 202 395
f 203 437 205
f 205 437 439
f 438 210 439
f 439 210 208
f 439 208 205
f 441 214 438
f 438 214 210
f 395 396 437
f 437 396 439
f 439 396 441
f 441 396 440
f 441 438 439
f 214 441 213
f 213 441 440
f 213 440 216
f 216 440 443
f 216 443 217
f 442 221 219
f 442 219 443
f 443 219 217
f 221 442 220
f 220 442 444
f 378 383 445
f 445 383 222
f 445 222 444
f 444 222 220
f 446 379 445
f 445 379 378
f 446 445 433
f 446 433 432
f 379 446 432
f 379 432 377
f 377 432 376
f 376 432 430
f 376 430 375
f 384 375 447
f 447 375 430
f 384 447 371
f 371 447 449
f 448 362 368
f 448 368 449
f 449 368 371
f 451 363 448
f 448 363 362
f 430 429 447
f 447 429 449
f 449 429 448
f 448 429 451
f 451 429 450
f 363 451 450
f 363 450 361
f 361 450 359
f 359 450 428
f 359 428 357
f 453 385 428
f 428 385 357
f 385 453 355
f 345 348 452
f 452 348 453
f 453 348 351
f 453 351 355
f 454 346 452
f 452 346 345
f 453 428 452
f 452 428 454
f 346 454 347
f 347 454 341
f 341 454 427
f 341 427 339
f 338 339 427
f 338 427 336
f 336 427 456
f 455 329 456
f 456 329 331
f 456 331 334
f 456 334 336
f 457 330 455
f 455 330 329
f 427 426 456
f 456 426 457
f 457 455 456
f 330 457 328
f 328 457 426
f 328 426 325
f 325 426 424
f 325 424 324
f 322 424 458
f 315 316 459
f 459 316 458
f 458 316 322
f 424 460 458
f 458 460 459
f 459 460 313
f 313 460 310
f 310 460 422
f 310 422 308
f 386 308 461
f 461 308 422
f 386 461 305
f 305 461 463
f 297 300 462
f 462 300 463
f 463 300 303
f 463 303 305
f 465 298 462
f 462 298 297
f 422 421 461
f 461 421 463
f 463 421 462
f 462 421 465
f 465 421 464
f 298 465 296
f 296 465 464
f 296 464 294
f 294 464 420
f 294 420 291
f 387 291 420
f 387 420 289
f 289 420 466
f 280 282 467
f 467 282 284
f 467 284 468
f 468 284 287
f 468 287 289
f 468 289 466
f 469 279 467
f 467 279 280
f 420 419 466
f 466 419 468
f 468 419 469
f 469 419 418
f 469 467 468
f 418 277 469
f 469 277 279
f 277 418 274
f 274 418 388
f 274 388 272
f 270 388 470
f 471 261 472
f 472 261 263
f 472 263 268
f 472 268 470
f 470 268 270
f 473 262 471
f 471 262 261
f 388 417 470
f 470 417 472
f 472 417 473
f 473 417 416
f 473 471 472
f 262 473 260
f 260 473 416
f 260 416 256
f 256 416 255
f 255 416 474
f 254 474 476
f 475 247 476
f 476 247 251
f 476 251 254
f 477 389 475
f 475 389 247
f 474 415 476
f 476 415 475
f 475 415 477
f 477 415 414
f 389 477 478
f 478 477 414
f 478 414 243
f 243 414 392
f 243 392 242
f 391 242 392
f 242 391 241
f 433 445 444
f 433 444 442
f 433 442 443
f 181 399 183
f 183 399 188
f 188 399 434
f 399 181 479
f 479 181 180
f 402 400 480
f 480 400 481
f 481 400 482
f 482 400 479
f 479 400 399
f 171 169 480
f 480 169 402
f 171 480 172
f 172 480 481
f 178 176 482
f 482 176 174
f 482 174 172
f 482 172 481
f 479 180 482
f 482 180 178
f 162 483 166
f 166 483 402
f 166 402 169
f 162 164 483
f 163 483 484
f 484 483 164
f 156 163 484
f 164 160 484
f 484 160 158
f 484 158 156
f 148 485 151
f 151 485 163
f 151 163 153
f 488 485 148
f 405 404 486
f 486 404 487
f 487 404 488
f 488 404 485
f 138 137 486
f 486 137 405
f 138 486 139
f 139 486 487
f 146 145 488
f 488 145 140
f 488 140 487
f 487 140 139
f 131 406 135
f 135 406 405
f 135 405 137
f 132 489 131
f 131 489 406
f 490 409 491
f 491 409 492
f 492 409 493
f 493 409 489
f 489 409 406
f 123 121 490
f 123 490 124
f 124 490 491
f 493 130 492
f 492 130 129
f 492 129 126
f 492 126 491
f 491 126 124
f 489 132 493
f 493 132 130
f 117 494 119
f 119 494 490
f 119 490 121
f 116 494 117
f 496 495 497
f 497 495 494
f 496 107 495
f 495 107 105
f 107 496 108
f 115 114 497
f 497 114 109
f 497 109 108
f 497 108 496
f 494 116 497
f 497 116 115
f 100 410 102
f 102 410 495
f 102 495 105
f 101 498 100
f 100 498 410
f 413 411 499
f 499 411 500
f 500 411 501
f 501 411 498
f 498 411 410
f 498 502 501
f 92 90 499
f 499 90 413
f 92 499 93
f 93 499 500
f 502 99 97
f 502 97 501
f 501 97 96
f 501 96 93
f 501 93 500
f 498 101 502
f 502 101 99
f 86 413 88
f 88 413 90
f 87 393 86
f 86 393 413
f 425 431 503
f 504 425 503
f 425 504 423
f 423 504 505
f 423 505 668
f 423 668 506
f 506 668 507
f 506 507 508
f 412 508 667
f 507 667 508
f 412 667 510
f 412 510 509
f 407 510 512
f 511 513 516
f 512 513 407
f 407 513 511
f 511 516 514
f 514 516 515
f 514 515 647
f 519 517 518
f 647 515 517
f 520 518 521
f 520 522 523
f 520 521 522
f 524 522 525
f 646 526 527
f 646 527 758
f 528 527 529
f 529 530 645
f 531 530 665
f 665 532 531
f 665 663 532
f 532 663 533
f 535 663 534
f 533 663 535
f 535 534 644
f 644 534 536
f 644 536 537
f 539 538 537
f 539 643 540
f 643 539 541
f 542 541 543
f 543 545 544
f 546 544 545
f 546 545 547
f 547 763 546
f 548 763 547
f 763 548 549
f 763 549 642
f 642 549 765
f 765 549 550
f 765 552 551
f 765 550 552
f 551 554 766
f 554 553 766
f 766 553 641
f 641 553 555
f 555 553 556
f 555 556 558
f 558 560 559
f 558 557 560
f 559 560 561
f 565 657 567
f 566 565 567
f 567 568 566
f 566 568 767
f 569 570 768
f 570 571 768
f 640 571 572
f 572 655 639
f 639 655 575
f 575 655 573
f 573 574 575
f 575 574 638
f 576 638 574
f 576 579 577
f 578 579 580
f 577 579 578
f 580 581 771
f 771 581 582
f 583 582 584
f 585 586 772
f 587 588 797
f 588 589 797
f 586 588 587
f 589 590 592
f 591 592 637
f 637 592 653
f 593 594 775
f 593 653 594
f 775 594 595
f 596 597 636
f 596 595 597
f 635 636 598
f 635 598 599
f 600 602 634
f 634 602 601
f 601 604 603
f 602 604 601
f 603 604 633
f 633 604 605
f 607 606 649
f 649 632 607
f 632 609 608
f 649 609 632
f 609 610 608
f 608 610 631
f 631 611 612
f 612 613 630
f 616 620 618
f 617 619 621
f 621 619 623
f 622 623 624
f 624 623 625
f 624 625 781
f 625 626 781
f 781 626 627
f 622 621 623
f 619 617 618
f 617 616 618
f 620 616 614
f 614 616 615
f 614 615 754
f 754 615 630
f 754 630 613
f 613 612 611
f 611 631 610
f 606 607 633
f 606 633 605
f 600 634 599
f 634 635 599
f 598 636 597
f 595 596 775
f 593 637 653
f 591 589 592
f 590 589 588
f 586 587 772
f 585 772 584
f 584 772 583
f 583 771 582
f 580 771 578
f 577 638 576
f 572 639 640
f 640 768 571
f 570 569 767
f 570 767 568
f 657 565 564
f 657 564 563
f 563 564 562
f 563 562 561
f 561 562 559
f 557 558 556
f 554 551 552
f 543 544 542
f 542 643 541
f 539 540 538
f 537 538 644
f 645 528 529
f 528 758 527
f 526 646 525
f 525 646 524
f 522 524 523
f 520 519 518
f 519 647 517
f 407 509 510
f 645 530 531
f 712 611 610
f 609 649 648
f 648 649 711
f 649 606 711
f 606 605 710
f 710 605 604
f 650 600 599
f 707 599 598
f 598 597 707
f 707 597 651
f 706 594 652
f 652 594 653
f 652 653 654
f 590 588 705
f 588 586 704
f 584 582 585
f 580 579 700
f 698 576 574
f 696 573 655
f 570 568 656
f 568 567 656
f 692 657 563
f 691 563 561
f 691 561 560
f 560 557 690
f 690 557 689
f 553 554 658
f 554 552 659
f 552 550 659
f 659 550 660
f 660 550 549
f 660 549 548
f 660 548 687
f 687 548 686
f 548 547 545
f 543 541 661
f 541 539 661
f 684 537 662
f 663 665 664
f 675 517 674
f 517 515 674
f 515 516 674
f 674 516 762
f 516 513 762
f 762 513 666
f 513 512 666
f 504 503 670
f 431 398 669
f 431 669 503
f 503 669 670
f 504 670 505
f 505 670 671
f 505 671 668
f 668 672 507
f 507 672 667
f 672 673 667
f 667 673 510
f 510 673 512
f 673 666 512
f 517 675 518
f 518 675 676
f 518 676 521
f 521 676 677
f 521 677 522
f 677 678 522
f 522 678 525
f 525 678 679
f 525 679 526
f 526 679 527
f 527 679 680
f 527 680 529
f 680 681 529
f 529 681 530
f 530 681 682
f 530 682 665
f 665 682 664
f 663 664 683
f 683 534 663
f 683 662 534
f 534 662 536
f 536 662 537
f 537 684 539
f 539 684 661
f 685 545 543
f 685 543 661
f 545 685 686
f 545 686 548
f 659 658 554
f 658 688 553
f 553 688 556
f 556 688 557
f 557 688 689
f 560 690 691
f 691 692 563
f 657 692 693
f 657 693 567
f 567 693 694
f 694 656 567
f 656 695 570
f 695 571 570
f 571 695 696
f 571 696 572
f 572 696 655
f 696 697 573
f 573 697 574
f 574 697 698
f 576 698 699
f 576 699 700
f 700 579 576
f 580 700 701
f 701 581 580
f 581 701 582
f 582 701 702
f 582 702 585
f 585 702 703
f 585 703 586
f 586 703 704
f 705 588 704
f 705 654 590
f 590 654 592
f 592 654 653
f 706 595 594
f 706 651 595
f 595 651 597
f 707 650 599
f 600 650 708
f 708 602 600
f 602 708 784
f 602 784 709
f 602 709 604
f 709 710 604
f 606 710 711
f 609 648 610
f 648 712 610
f 712 716 611
f 611 716 613
f 716 754 613
f 734 754 713
f 713 754 714
f 714 754 715
f 715 754 716
f 715 716 717
f 717 716 718
f 718 716 722
f 718 722 719
f 719 722 720
f 720 722 721
f 721 722 723
f 723 722 724
f 724 722 727
f 724 727 725
f 725 727 726
f 726 727 728
f 728 727 729
f 729 727 629
f 730 629 731
f 731 629 732
f 732 629 628
f 732 628 733
f 733 628 627
f 733 627 753
f 754 734 614
f 614 734 735
f 614 735 736
f 614 736 737
f 614 737 620
f 620 737 738
f 620 738 739
f 620 739 618
f 618 739 740
f 618 740 619
f 619 740 741
f 619 741 742
f 619 742 743
f 619 743 744
f 619 744 623
f 623 744 745
f 623 745 746
f 623 746 747
f 623 747 625
f 625 747 748
f 625 748 749
f 625 749 626
f 626 749 750
f 626 750 751
f 626 751 752
f 626 752 627
f 627 752 753
f 782 629 727
f 752 751 49
f 49 751 46
f 46 751 750
f 46 750 749
f 46 749 44
f 44 749 748
f 44 748 42
f 42 748 747
f 42 747 40
f 40 747 746
f 40 746 37
f 37 746 745
f 37 745 35
f 35 745 744
f 35 744 33
f 33 744 743
f 33 743 31
f 31 743 742
f 31 742 28
f 28 742 741
f 28 741 26
f 26 741 24
f 24 741 740
f 24 740 23
f 23 740 739
f 23 739 21
f 21 739 738
f 21 738 19
f 19 738 737
f 19 737 18
f 18 737 736
f 18 736 16
f 16 736 13
f 13 736 735
f 13 735 734
f 13 734 11
f 11 734 713
f 11 713 10
f 10 713 714
f 10 714 8
f 8 714 715
f 8 715 7
f 7 715 5
f 5 715 717
f 5 717 3
f 3 717 718
f 3 718 719
f 3 719 77
f 77 719 720
f 77 720 75
f 75 720 72
f 72 720 721
f 72 721 71
f 71 721 723
f 71 723 70
f 70 723 724
f 70 724 725
f 70 725 67
f 67 725 726
f 67 726 65
f 65 726 728
f 65 728 729
f 65 729 63
f 63 729 629
f 63 629 62
f 62 629 730
f 62 730 59
f 59 730 731
f 59 731 58
f 58 731 732
f 58 732 56
f 56 732 733
f 56 733 54
f 54 733 753
f 54 753 50
f 50 753 752
f 50 752 49
f 407 511 408
f 408 511 755
f 755 514 756
f 756 514 647
f 756 647 757
f 755 511 514
f 647 519 824
f 646 758 821
f 759 758 820
f 528 645 758
f 645 531 819
f 531 532 819
f 819 532 760
f 760 532 533
f 644 538 761
f 761 538 762
f 762 538 540
f 544 546 815
f 815 546 814
f 546 763 814
f 814 763 813
f 642 765 764
f 569 768 767
f 803 640 802
f 802 640 639
f 802 639 575
f 802 575 801
f 638 577 769
f 769 577 770
f 577 578 770
f 578 771 800
f 800 771 799
f 799 771 583
f 587 797 798
f 773 593 774
f 593 775 774
f 699 635 776
f 776 635 634
f 601 603 793
f 603 633 777
f 777 633 778
f 778 633 607
f 778 607 779
f 607 632 779
f 779 632 792
f 632 608 792
f 608 631 791
f 631 612 791
f 791 612 790
f 790 612 630
f 630 615 789
f 617 621 780
f 781 627 783
f 782 628 629
f 628 782 627
f 782 783 627
f 783 784 781
f 781 784 785
f 781 785 624
f 624 785 786
f 624 786 622
f 622 786 621
f 621 786 780
f 617 780 787
f 617 787 616
f 616 787 788
f 616 788 615
f 615 788 789
f 789 790 630
f 791 792 608
f 777 793 603
f 793 776 601
f 601 776 634
f 635 699 794
f 635 794 636
f 636 794 596
f 596 794 697
f 596 697 775
f 697 774 775
f 773 795 593
f 593 795 637
f 637 795 796
f 637 796 591
f 591 796 589
f 589 796 693
f 693 797 589
f 587 798 772
f 798 799 772
f 772 799 583
f 800 770 578
f 638 769 575
f 575 769 801
f 640 803 804
f 640 804 768
f 768 804 767
f 767 804 805
f 767 805 566
f 566 805 565
f 565 805 806
f 565 806 564
f 806 807 564
f 564 807 562
f 562 807 808
f 562 808 559
f 559 808 558
f 808 809 558
f 558 809 810
f 810 555 558
f 555 810 641
f 641 810 811
f 641 811 766
f 766 811 812
f 766 812 551
f 812 764 551
f 551 764 765
f 642 764 813
f 642 813 763
f 815 816 544
f 544 816 542
f 816 817 542
f 542 817 643
f 643 817 540
f 817 762 540
f 761 818 644
f 644 818 535
f 818 533 535
f 818 760 533
f 645 819 820
f 645 820 758
f 759 821 758
f 646 821 524
f 524 821 822
f 524 822 523
f 523 822 823
f 823 520 523
f 520 823 519
f 823 824 519
f 647 824 757
f 408 755 403
f 403 755 756
f 403 756 757
f 401 757 824
f 401 824 397
f 397 824 823
f 397 823 398
f 398 823 822
f 398 822 669
f 669 822 821
f 669 821 670
f 670 821 759
f 670 759 671
f 671 759 820
f 671 820 668
f 668 820 819
f 668 819 672
f 672 819 760
f 672 760 673
f 673 760 818
f 673 818 666
f 666 818 761
f 666 761 762
f 762 817 674
f 674 817 675
f 675 817 816
f 675 816 815
f 675 815 676
f 676 815 814
f 676 814 677
f 814 813 677
f 677 813 678
f 678 813 764
f 678 764 679
f 679 764 812
f 679 812 680
f 680 812 811
f 680 811 681
f 681 811 810
f 681 810 682
f 682 810 809
f 682 809 664
f 664 809 808
f 664 808 683
f 683 808 807
f 683 807 662
f 662 807 806
f 662 806 684
f 684 806 805
f 684 805 661
f 661 805 804
f 661 804 685
f 685 804 686
f 686 804 803
f 686 803 802
f 686 802 687
f 687 802 660
f 660 802 801
f 660 801 659
f 659 801 769
f 659 769 770
f 659 770 658
f 658 770 688
f 688 770 800
f 688 800 689
f 689 800 799
f 689 799 690
f 690 799 691
f 691 799 798
f 691 798 692
f 692 798 797
f 692 797 693
f 694 693 796
f 694 796 656
f 656 796 795
f 656 795 695
f 695 795 773
f 773 774 695
f 695 774 696
f 696 774 697
f 697 794 698
f 698 794 699
f 700 699 776
f 700 776 701
f 701 776 793
f 701 793 702
f 702 793 777
f 702 777 703
f 703 777 704
f 704 777 778
f 704 778 779
f 704 779 705
f 705 779 792
f 705 792 654
f 654 792 791
f 654 791 652
f 652 791 790
f 652 790 706
f 706 790 789
f 706 789 788
f 706 788 651
f 651 788 787
f 651 787 707
f 707 787 780
f 707 780 650
f 650 780 786
f 650 786 785
f 650 785 708
f 708 785 784
f 784 783 709
f 709 783 710
f 710 783 782
f 710 782 711
f 711 782 727
f 711 727 648
f 648 727 722
f 648 722 712
f 712 722 716
f 825 381 826
f 826 381 382
f 14 12 827
f 827 12 829
f 827 829 828
f 829 12 826
f 826 12 825
f 372 370 827
f 827 370 14
f 372 827 373
f 373 827 828
f 829 380 374
f 829 374 828
f 828 374 373
f 826 382 829
f 829 382 380
f 370 369 14
f 14 369 366
f 14 366 830
f 830 366 367
f 17 15 831
f 831 15 832
f 832 15 833
f 833 15 830
f 831 364 356
f 831 356 17
f 364 831 358
f 358 831 832
f 833 365 832
f 832 365 360
f 832 360 358
f 830 367 833
f 833 367 365
f 356 354 17
f 17 354 834
f 834 354 353
f 834 353 352
f 836 835 837
f 837 835 834
f 835 342 20
f 20 342 340
f 342 835 343
f 343 835 836
f 350 349 837
f 837 349 836
f 836 349 344
f 836 344 343
f 834 352 837
f 837 352 350
f 20 340 839
f 839 340 337
f 839 337 838
f 838 335 839
f 840 22 841
f 841 22 842
f 842 22 843
f 843 22 839
f 841 326 840
f 840 326 25
f 327 841 842
f 333 332 843
f 843 332 327
f 843 327 842
f 839 335 843
f 843 335 333
f 326 323 25
f 25 323 319
f 25 319 844
f 844 319 321
f 29 27 845
f 845 27 846
f 846 27 847
f 847 27 844
f 844 27 25
f 320 312 845
f 845 312 29
f 320 845 314
f 314 845 846
f 318 317 847
f 847 317 846
f 846 317 314
f 844 321 847
f 847 321 318
f 312 311 29
f 29 311 30
f 30 311 309
f 30 309 307
f 32 30 848
f 848 30 849
f 32 301 299
f 301 32 302
f 302 32 848
f 306 304 849
f 849 304 848
f 848 304 302
f 30 307 849
f 849 307 306
f 299 295 32
f 32 295 34
f 34 295 292
f 34 292 293
f 38 36 850
f 850 36 851
f 851 36 852
f 852 36 293
f 293 36 34
f 850 285 283
f 850 283 38
f 286 285 851
f 851 285 850
f 852 290 288
f 852 288 851
f 851 288 286
f 852 293 290
f 283 281 38
f 38 281 853
f 853 281 278
f 853 278 276
f 853 276 854
f 854 276 275
f 41 39 855
f 855 39 856
f 856 39 857
f 857 39 854
f 854 39 853
f 267 266 855
f 855 266 41
f 267 855 265
f 265 855 856
f 273 271 857
f 857 271 269
f 857 269 856
f 856 269 265
f 854 275 857
f 857 275 273
f 266 264 41
f 41 264 858
f 858 264 259
f 858 259 859
f 859 259 258
f 45 43 860
f 860 43 861
f 861 43 862
f 862 43 859
f 859 43 858
f 860 250 45
f 45 250 249
f 250 860 252
f 252 860 861
f 257 253 862
f 862 253 861
f 861 253 252
f 859 258 862
f 862 258 257
f 45 249 863
f 863 249 248
f 863 248 246
f 864 47 865
f 865 47 863
f 240 238 864
f 864 238 47
f 245 244 865
f 865 244 240
f 865 240 864
f 863 246 865
f 865 246 245
f 48 82 866
f 866 82 84
f 53 51 867
f 867 51 868
f 868 51 869
f 869 51 866
f 866 51 48
f 236 94 867
f 867 94 53
f 236 867 91
f 91 867 868
f 869 83 89
f 869 89 868
f 868 89 91
f 866 84 869
f 869 84 83
f 94 95 53
f 53 95 52
f 52 95 235
f 52 235 234
f 57 55 870
f 870 55 871
f 871 55 872
f 872 55 234
f 234 55 52
f 233 232 870
f 870 232 57
f 233 870 104
f 104 870 871
f 872 98 103
f 872 103 871
f 871 103 104
f 872 234 98
f 232 106 57
f 57 106 873
f 873 106 110
f 873 110 111
f 873 111 874
f 61 60 875
f 875 60 876
f 876 60 877
f 877 60 874
f 874 60 873
f 875 120 61
f 118 875 876
f 112 113 877
f 877 113 876
f 876 113 118
f 874 111 877
f 877 111 112
f 120 122 61
f 61 122 878
f 878 122 125
f 878 125 231
f 878 231 879
f 880 64 881
f 881 64 882
f 882 64 883
f 883 64 879
f 879 64 878
f 881 134 880
f 133 881 882
f 127 128 883
f 883 128 882
f 882 128 133
f 879 231 883
f 883 231 127
f 134 136 880
f 880 136 66
f 66 136 141
f 66 141 143
f 884 66 885
f 885 66 886
f 230 149 884
f 147 230 885
f 885 230 884
f 142 144 886
f 886 144 885
f 885 144 147
f 66 143 886
f 886 143 142
f 149 150 884
f 884 150 68
f 68 150 152
f 68 152 887
f 887 152 154
f 888 69 889
f 889 69 890
f 890 69 887
f 887 69 68
f 229 161 888
f 229 888 159
f 159 888 889
f 155 157 890
f 890 157 889
f 889 157 159
f 890 887 155
f 155 887 154
f 888 161 165
f 888 165 891
f 891 165 167
f 891 167 168
f 74 73 892
f 892 73 893
f 893 73 891
f 228 177 74
f 228 74 175
f 175 74 892
f 893 170 173
f 893 173 892
f 175 892 173
f 891 168 893
f 893 168 170
f 74 177 76
f 76 177 179
f 76 179 182
f 76 182 894
f 894 182 184
f 2 78 80
f 80 78 895
f 895 78 896
f 896 78 894
f 894 78 76
f 79 80 192
f 192 80 895
f 185 186 896
f 896 186 895
f 895 186 190
f 895 190 192
f 894 184 896
f 896 184 185
f 81 194 2
f 2 194 4
f 4 194 199
f 4 199 897
f 897 199 200
f 898 6 899
f 899 6 900
f 900 6 901
f 901 6 897
f 897 6 4
f 227 226 899
f 899 226 898
f 898 226 902
f 227 899 206
f 206 899 900
f 901 198 204
f 901 204 900
f 900 204 206
f 897 200 901
f 901 200 198
f 226 207 902
f 902 207 209
f 902 209 903
f 903 209 211
f 904 9 905
f 905 9 906
f 906 9 907
f 907 9 903
f 903 9 902
f 225 224 905
f 905 224 904
f 223 225 906
f 906 225 905
f 212 215 907
f 907 215 218
f 907 218 906
f 906 218 223
f 903 211 907
f 907 211 212
f 1 904 224
