# USD → MuJoCo (world-space, simplified)
v 0.099659 7.108026 0.302676
v 0.098902 7.108095 0.303995
v 0.099527 7.108091 0.303841
v 0.099914 7.108092 0.303693
v 0.100285 7.108093 0.303504
v 0.101248 7.108041 0.300005
v 0.101651 7.108123 0.297908
v 0.101932 7.108124 0.298440
v 0.101131 7.108127 0.297257
v 0.099703 7.108056 0.297514
v 0.099748 7.108132 0.296347
v 0.096682 7.108137 0.296422
v 0.096311 7.108135 0.296611
v 0.097142 7.108059 0.297287
v 0.095564 7.108067 0.298299
v 0.095387 7.108039 0.300610
v 0.096968 7.108029 0.302801
v 0.098071 7.108095 0.304034
v 0.097512 7.108025 0.299615
v 0.098298 7.134594 0.301974
v 0.098512 7.133526 0.301755
v 0.098298 7.132025 0.300205
v 0.098143 7.133467 0.301689
v 0.098756 7.133467 0.301625
v 0.099011 7.134595 0.301822
v 0.099120 7.133527 0.301535
v 0.099291 7.133469 0.301316
v 0.099601 7.134598 0.301394
v 0.099498 7.133471 0.301086
v 0.099816 7.134600 0.301097
v 0.099653 7.133472 0.300817
v 0.099966 7.134602 0.300762
v 0.099749 7.133474 0.300522
v 0.100042 7.134604 0.300404
v 0.099781 7.133476 0.300214
v 0.100042 7.134606 0.300037
v 0.099808 7.133538 0.299840
v 0.099653 7.133480 0.299610
v 0.099816 7.134611 0.299344
v 0.099498 7.133482 0.299342
v 0.099601 7.134612 0.299047
v 0.099291 7.133483 0.299111
v 0.099329 7.134614 0.298802
v 0.099040 7.133484 0.298929
v 0.099011 7.134615 0.298619
v 0.098756 7.133485 0.298803
v 0.098662 7.134616 0.298505
v 0.098453 7.133485 0.298738
v 0.098298 7.134616 0.298467
v 0.098143 7.133485 0.298738
v 0.097933 7.134616 0.298505
v 0.097839 7.133485 0.298803
v 0.097585 7.134615 0.298619
v 0.097556 7.133484 0.298929
v 0.097267 7.134614 0.298802
v 0.097305 7.133483 0.299111
v 0.096995 7.134612 0.299047
v 0.097098 7.133482 0.299342
v 0.096779 7.134611 0.299344
v 0.096857 7.133539 0.299629
v 0.096847 7.133478 0.299905
v 0.096554 7.134606 0.300037
v 0.096743 7.133535 0.300265
v 0.096847 7.133474 0.300522
v 0.096630 7.134602 0.300762
v 0.096943 7.133472 0.300817
v 0.096779 7.134600 0.301097
v 0.097098 7.133471 0.301086
v 0.096995 7.134598 0.301394
v 0.097296 7.133528 0.301404
v 0.097556 7.133468 0.301498
v 0.097585 7.134595 0.301822
v 0.097839 7.133467 0.301625
v 0.097933 7.134594 0.301936
v 0.006299 7.108078 0.304036
v 0.009742 7.108102 0.302049
v 0.009515 7.108100 0.302398
v 0.010081 7.108107 0.301289
v 0.008700 7.108030 0.301796
v 0.010255 7.108082 0.300470
v 0.010189 7.108109 0.300887
v 0.010255 7.108117 0.299644
v 0.010276 7.108082 0.300053
v 0.010081 7.108093 0.298825
v 0.010188 7.108085 0.299225
v 0.009253 7.108102 0.297393
v 0.008332 7.108071 0.297522
v 0.007912 7.108102 0.296421
v 0.007534 7.108103 0.296276
v 0.006295 7.108109 0.296079
v 0.004824 7.108051 0.297631
v 0.003502 7.108036 0.300889
v 0.005931 7.108016 0.302765
v 0.006298 7.108025 0.300057
v 0.006298 7.134594 0.301974
v 0.006512 7.133526 0.301755
v 0.006298 7.132024 0.300205
v 0.006143 7.133467 0.301689
v 0.006756 7.133467 0.301625
v 0.007011 7.134595 0.301822
v 0.007120 7.133527 0.301535
v 0.007291 7.133469 0.301316
v 0.007601 7.134598 0.301394
v 0.007498 7.133471 0.301086
v 0.007816 7.134600 0.301097
v 0.007653 7.133472 0.300817
v 0.007966 7.134602 0.300762
v 0.007749 7.133474 0.300522
v 0.008042 7.134604 0.300404
v 0.007781 7.133476 0.300214
v 0.008042 7.134606 0.300037
v 0.007749 7.133478 0.299905
v 0.007966 7.134608 0.299679
v 0.007653 7.133480 0.299610
v 0.007816 7.134611 0.299344
v 0.007525 7.133541 0.299258
v 0.007291 7.133483 0.299111
v 0.007329 7.134614 0.298802
v 0.007040 7.133484 0.298929
v 0.007011 7.134615 0.298619
v 0.006756 7.133485 0.298803
v 0.006662 7.134615 0.298505
v 0.006453 7.133485 0.298738
v 0.006298 7.134616 0.298467
v 0.006143 7.133485 0.298738
v 0.005933 7.134615 0.298505
v 0.005768 7.133544 0.298751
v 0.005556 7.133484 0.298929
v 0.005267 7.134614 0.298802
v 0.005219 7.133542 0.299093
v 0.005098 7.133482 0.299342
v 0.004779 7.134611 0.299344
v 0.004857 7.133539 0.299629
v 0.004847 7.133478 0.299905
v 0.004554 7.134606 0.300037
v 0.004743 7.133535 0.300266
v 0.004847 7.133474 0.300522
v 0.004630 7.134602 0.300762
v 0.004898 7.133531 0.300893
v 0.005098 7.133471 0.301086
v 0.004995 7.134598 0.301394
v 0.005305 7.133469 0.301316
v 0.005267 7.134596 0.301639
v 0.005556 7.133468 0.301498
v 0.005585 7.134595 0.301822
v 0.005866 7.133526 0.301709
v 0.098967 7.144002 0.302516
v 0.005917 7.144036 0.297908
v 0.006323 7.144045 0.296489
v 0.002638 7.144018 0.301168
v 0.098438 7.143706 0.302281
v 0.099308 7.143823 0.302005
v 0.099775 7.143788 0.301618
v 0.099822 7.137574 0.301504
v 0.100212 7.143745 0.300864
v 0.100011 7.137825 0.301229
v 0.100274 7.137581 0.300367
v 0.100179 7.143833 0.299473
v 0.100265 7.137832 0.300034
v 0.099973 7.137600 0.299181
v 0.099354 7.143915 0.298557
v 0.097758 7.143701 0.298360
v 0.097006 7.143684 0.298760
v 0.096312 7.143815 0.299797
v 0.096621 7.138080 0.299187
v 0.096331 7.137832 0.300034
v 0.096404 7.137854 0.299646
v 0.097088 7.143758 0.301862
v 0.006531 7.143821 0.302266
v 0.007408 7.143689 0.301930
v 0.007102 7.137819 0.302047
v 0.007983 7.143687 0.301338
v 0.008011 7.137825 0.301229
v 0.008274 7.137581 0.300367
v 0.007905 7.143675 0.299084
v 0.004621 7.138080 0.299187
v 0.004439 7.138077 0.299558
v 0.004337 7.138075 0.299960
v 0.004703 7.143735 0.301483
v 0.005497 7.143767 0.302111
v 0.097257 7.143984 0.303931
v 0.005043 7.143846 0.296494
v 0.003637 7.143831 0.297325
v 0.004955 7.143978 0.304009
v 0.098478 7.143838 0.298290
v 0.008357 7.144001 0.300998
v 0.008303 7.143785 0.300372
v 0.004803 7.143894 0.298876
v 0.099680 7.144002 0.303821
v 0.102106 7.144015 0.300975
v 0.101438 7.144032 0.298041
v 0.099301 7.144041 0.296560
v 0.096449 7.144043 0.297052
v 0.094906 7.144030 0.298672
v 0.095180 7.144010 0.302552
v 0.010211 7.143934 0.299604
v 0.003093 7.143860 0.302643
v 0.006850 7.143788 0.298360
v 0.098403 7.143841 0.296302
v 0.097876 7.143805 0.296325
v 0.008903 7.143993 0.303262
v 0.009493 7.143801 0.297895
v 0.008783 7.143799 0.297169
v 0.008279 7.143801 0.296832
v 0.002573 7.143789 0.298874
v 0.002312 7.143795 0.300309
v 0.002412 7.143775 0.301110
v 0.002520 7.143773 0.301511
v 0.005493 7.143834 0.304169
v 0.098582 7.144034 0.297985
v 0.097375 7.144022 0.298343
v 0.098119 7.143851 0.302327
v 0.007452 7.143961 0.302076
v 0.004302 7.143905 0.300033
v 0.004382 7.143986 0.300965
v 0.096495 7.143775 0.301146
v 0.094835 7.143834 0.298304
v 0.094409 7.143844 0.299460
v 0.010078 7.143781 0.299051
v 0.003005 7.143794 0.298046
v 0.005989 7.143868 0.298294
v 0.005058 7.143999 0.302237
v 0.097230 7.143874 0.296449
v 0.006363 7.144002 0.304024
v 0.009422 7.144034 0.297996
v 0.003977 7.144022 0.297058
v 0.003378 7.144025 0.297856
v 0.002527 7.144025 0.299771
v 0.100493 7.144003 0.300446
v 0.098716 7.143806 0.304231
v 0.100121 7.140036 0.303793
v 0.100316 7.143786 0.303715
v 0.101127 7.140068 0.303056
v 0.101427 7.143840 0.302764
v 0.101648 7.140078 0.302406
v 0.101931 7.143700 0.301887
v 0.102148 7.143705 0.301284
v 0.102284 7.143814 0.300252
v 0.102228 7.139980 0.299614
v 0.102109 7.143839 0.299140
v 0.101929 7.143811 0.298658
v 0.100955 7.143714 0.297319
v 0.100629 7.143800 0.297058
v 0.100279 7.143801 0.296832
v 0.099527 7.132631 0.296426
v 0.099306 7.143876 0.296431
v 0.098904 7.140040 0.296319
v 0.097251 7.140075 0.296413
v 0.096679 7.143810 0.296647
v 0.096309 7.143809 0.296836
v 0.095778 7.140021 0.297171
v 0.095343 7.139283 0.297588
v 0.095608 7.143952 0.297344
v 0.095081 7.139281 0.297912
v 0.094854 7.139278 0.298261
v 0.094571 7.143790 0.298880
v 0.094322 7.143713 0.300091
v 0.094368 7.139918 0.300893
v 0.094508 7.108108 0.301277
v 0.094405 7.143887 0.301125
v 0.094668 7.143778 0.301896
v 0.094845 7.108103 0.302038
v 0.095025 7.143864 0.302538
v 0.095280 7.143812 0.302868
v 0.095643 7.143690 0.303234
v 0.096508 7.140076 0.303811
v 0.096348 7.143758 0.303753
v 0.097069 7.139243 0.304031
v 0.097379 7.143804 0.304147
v 0.098110 7.143775 0.304252
v 0.006105 7.143694 0.304252
v 0.006617 7.143807 0.304242
v 0.007346 7.140194 0.304096
v 0.007907 7.108092 0.303699
v 0.007554 7.143801 0.304060
v 0.008293 7.143869 0.303714
v 0.008817 7.140007 0.303337
v 0.009256 7.143692 0.302931
v 0.009515 7.139252 0.302587
v 0.009693 7.143819 0.302348
v 0.009931 7.139256 0.301867
v 0.010022 7.144004 0.301626
v 0.010150 7.143748 0.301278
v 0.010273 7.143797 0.300467
v 0.010228 7.140049 0.299614
v 0.009926 7.143719 0.298654
v 0.009628 7.140058 0.298071
v 0.009253 7.139283 0.297588
v 0.007785 7.143879 0.296590
v 0.007309 7.140103 0.296403
v 0.006298 7.139291 0.296273
v 0.006663 7.143787 0.296308
v 0.005880 7.143837 0.296325
v 0.005251 7.140075 0.296413
v 0.004680 7.139289 0.296616
v 0.004113 7.140205 0.296927
v 0.003343 7.143829 0.297620
v 0.002854 7.108115 0.298060
v 0.002409 7.143714 0.299457
v 0.002321 7.140045 0.300063
v 0.002338 7.108112 0.300463
v 0.002670 7.143700 0.301899
v 0.002968 7.140033 0.302438
v 0.003334 7.108087 0.302715
v 0.003643 7.143690 0.303234
v 0.004146 7.143778 0.303625
v 0.004680 7.139244 0.303882
v 0.005069 7.139243 0.304031
v 0.096306 7.144015 0.299168
v 0.096433 7.144006 0.301621
v 0.007996 7.144006 0.298839
v 0.099125 7.132584 0.304099
v 0.099474 7.143818 0.304076
v 0.100629 7.108095 0.303285
v 0.101108 7.108102 0.302882
v 0.101745 7.108073 0.302044
v 0.101515 7.108100 0.302398
v 0.102081 7.108107 0.301289
v 0.101932 7.108104 0.301678
v 0.102256 7.108112 0.300485
v 0.102189 7.108109 0.300887
v 0.102235 7.108113 0.299446
v 0.102279 7.108114 0.300069
v 0.102083 7.108122 0.298831
v 0.101739 7.143708 0.298285
v 0.101251 7.143808 0.297615
v 0.101513 7.143816 0.297939
v 0.100638 7.108134 0.296840
v 0.099912 7.143719 0.296643
v 0.100289 7.108135 0.296613
v 0.098933 7.108134 0.296124
v 0.098301 7.108139 0.296079
v 0.097473 7.108138 0.296165
v 0.097885 7.108139 0.296100
v 0.097071 7.108138 0.296273
v 0.095961 7.108134 0.296837
v 0.095339 7.108102 0.297397
v 0.095637 7.108132 0.297099
v 0.094853 7.108127 0.298066
v 0.095081 7.108129 0.297717
v 0.094515 7.108122 0.298826
v 0.094664 7.108124 0.298437
v 0.094341 7.108117 0.299639
v 0.094407 7.108119 0.299228
v 0.094341 7.108112 0.300471
v 0.094319 7.108114 0.300055
v 0.094406 7.108109 0.300882
v 0.094662 7.108104 0.301674
v 0.095339 7.108098 0.302718
v 0.095078 7.108100 0.302394
v 0.095949 7.108095 0.303271
v 0.095634 7.108096 0.303013
v 0.096481 7.108097 0.303603
v 0.097468 7.108090 0.303949
v 0.097066 7.108091 0.303841
v 0.098090 7.124776 0.304138
v 0.007123 7.108090 0.303950
v 0.006711 7.108090 0.304014
v 0.007525 7.108091 0.303842
v 0.008635 7.108094 0.303278
v 0.008285 7.108093 0.303504
v 0.009253 7.108098 0.302721
v 0.008958 7.108096 0.303016
v 0.009932 7.108104 0.301678
v 0.009732 7.108090 0.298049
v 0.009935 7.108089 0.298445
v 0.009518 7.108129 0.297721
v 0.008638 7.108134 0.296840
v 0.008962 7.108132 0.297103
v 0.008289 7.108135 0.296613
v 0.007103 7.108102 0.296161
v 0.006725 7.108139 0.296100
v 0.005473 7.108138 0.296165
v 0.005885 7.108139 0.296100
v 0.004682 7.108137 0.296422
v 0.005071 7.108138 0.296273
v 0.003961 7.108134 0.296837
v 0.004311 7.108135 0.296611
v 0.003343 7.108130 0.297393
v 0.003637 7.108132 0.297099
v 0.003081 7.108129 0.297717
v 0.002510 7.108087 0.298839
v 0.002664 7.108124 0.298437
v 0.002341 7.108117 0.299639
v 0.002407 7.108119 0.299228
v 0.002319 7.108114 0.300055
v 0.002513 7.108107 0.301285
v 0.002406 7.108109 0.300882
v 0.002851 7.108102 0.302044
v 0.002662 7.108104 0.301673
v 0.003078 7.108100 0.302394
v 0.003957 7.108094 0.303275
v 0.003634 7.108096 0.303012
v 0.004677 7.108092 0.303691
v 0.004306 7.108093 0.303502
v 0.005468 7.108090 0.303949
v 0.005066 7.108091 0.303841
v 0.005880 7.108090 0.304014
v 0.099102 7.137819 0.302047
v 0.098729 7.137832 0.302178
v 0.099480 7.137835 0.301835
v 0.100157 7.138069 0.300925
v 0.100233 7.137844 0.300649
v 0.100179 7.137848 0.299609
v 0.099768 7.137839 0.298917
v 0.099522 7.138083 0.298685
v 0.099172 7.138084 0.298464
v 0.098783 7.138085 0.298321
v 0.098298 7.137843 0.298262
v 0.098505 7.137844 0.298273
v 0.097809 7.137594 0.298320
v 0.098091 7.137843 0.298273
v 0.097493 7.137842 0.298433
v 0.096828 7.137838 0.298917
v 0.097115 7.137854 0.298646
v 0.096321 7.138072 0.300374
v 0.096392 7.138070 0.300782
v 0.096624 7.137575 0.301297
v 0.096491 7.137826 0.301045
v 0.096828 7.137823 0.301564
v 0.097494 7.137856 0.302049
v 0.097147 7.137835 0.301858
v 0.097812 7.138062 0.302162
v 0.098222 7.138062 0.302221
v 0.006298 7.137818 0.302218
v 0.006730 7.137832 0.302178
v 0.007822 7.137574 0.301504
v 0.007480 7.137835 0.301835
v 0.008191 7.137840 0.300835
v 0.008258 7.137592 0.299952
v 0.008179 7.137850 0.299630
v 0.008050 7.138079 0.299318
v 0.007460 7.137882 0.298639
v 0.007760 7.137852 0.298898
v 0.007172 7.138084 0.298464
v 0.006298 7.137843 0.298262
v 0.006691 7.137856 0.298295
v 0.005960 7.138085 0.298290
v 0.005562 7.138084 0.298403
v 0.005195 7.138083 0.298596
v 0.004877 7.138082 0.298861
v 0.004321 7.138072 0.300374
v 0.004392 7.138070 0.300782
v 0.004546 7.138068 0.301166
v 0.004776 7.138065 0.301510
v 0.005073 7.138064 0.301799
v 0.005424 7.138062 0.302019
v 0.005904 7.137832 0.302186
v -0.020841 7.106382 0.305819
v -0.020841 7.107409 0.305910
v -0.020841 7.105387 0.305553
v 0.125436 7.106382 0.305819
v -0.020841 7.104454 0.305117
v -0.038891 7.104450 0.305104
v -0.033179 7.103609 0.304523
v -0.033241 7.102881 0.303794
v -0.020841 7.101856 0.302021
v -0.020841 7.101500 0.300000
v -0.020841 7.101589 0.298974
v -0.020841 7.102291 0.297045
v -0.020841 7.101856 0.297979
v -0.020841 7.103610 0.295473
v -0.020841 7.104454 0.294883
v -0.020841 7.106382 0.294181
v -0.020841 7.107409 0.294091
v -0.020841 7.108435 0.294181
v -0.020841 7.109430 0.294447
v -0.020841 7.110363 0.294883
v -0.020787 7.111207 0.295473
v -0.019973 7.111935 0.296202
v -0.020841 7.112526 0.297045
v -0.020841 7.113228 0.298974
v -0.020841 7.113228 0.301026
v -0.020760 7.112526 0.302955
v -0.020841 7.111207 0.304527
v -0.020841 7.109430 0.305553
v -0.020841 7.110363 0.305117
v -0.020841 7.108435 0.305819
v 0.125436 7.102882 0.303798
v -0.020841 7.105387 0.294447
v 0.125436 7.113228 0.298974
v 0.125436 7.103610 0.304527
v -0.020841 7.113317 0.300000
v 0.125436 7.105387 0.305553
v -0.020841 7.102291 0.302955
v -0.020841 7.101589 0.301026
v 0.125436 7.103610 0.295473
v -0.020841 7.102882 0.296202
v -0.020841 7.112961 0.297979
v -0.020841 7.112961 0.302021
v -0.019974 7.111935 0.303798
v 0.125436 7.107409 0.305910
v 0.125436 7.104454 0.305117
v 0.143571 7.103626 0.304527
v 0.137742 7.102294 0.302956
v 0.143572 7.102898 0.303801
v 0.137886 7.101859 0.302023
v 0.125436 7.101589 0.301026
v 0.125436 7.101500 0.300000
v 0.137789 7.101590 0.298977
v 0.143571 7.101510 0.300012
v 0.137891 7.101857 0.297983
v 0.136685 7.102291 0.297045
v 0.125436 7.102882 0.296202
v 0.137790 7.104452 0.294886
v 0.137722 7.105385 0.294450
v 0.136661 7.106382 0.294181
v 0.125436 7.107409 0.294091
v 0.125436 7.108435 0.294181
v 0.125436 7.109430 0.294447
v 0.125436 7.110363 0.294883
v 0.125436 7.111207 0.295473
v 0.125436 7.111935 0.296202
v 0.125160 7.112526 0.297045
v 0.125436 7.112961 0.297979
v 0.137783 7.113316 0.299997
v 0.137770 7.113227 0.301023
v 0.137891 7.112960 0.302017
v 0.137768 7.112526 0.302951
v 0.125436 7.111935 0.303798
v 0.125225 7.111207 0.304527
v 0.125436 7.110363 0.305117
v 0.125436 7.109430 0.305553
v 0.125436 7.108435 0.305819
v -0.039605 7.106596 0.296466
v -0.039617 7.108783 0.303785
v -0.039613 7.110748 0.297960
v -0.039648 7.103605 0.296748
v 0.144197 7.108354 0.297729
v 0.144238 7.104074 0.296514
v -0.039587 7.103243 0.296543
v -0.039574 7.106938 0.294626
v -0.039583 7.111196 0.296173
v -0.039680 7.111938 0.297382
v -0.039682 7.111199 0.303744
v 0.144178 7.112617 0.298634
v -0.038892 7.106374 0.305808
v -0.038892 7.107399 0.305900
v -0.038976 7.105380 0.305540
v -0.038891 7.101509 0.299990
v -0.038975 7.101601 0.298964
v -0.038976 7.103625 0.295473
v -0.038976 7.104469 0.294886
v -0.038976 7.105402 0.294452
v -0.038976 7.106396 0.294189
v -0.038976 7.107420 0.294101
v -0.038976 7.108444 0.294193
v -0.038975 7.109437 0.294460
v -0.038975 7.110368 0.294897
v -0.038976 7.111935 0.296217
v -0.038976 7.112524 0.297060
v -0.038976 7.112956 0.297994
v -0.038976 7.113220 0.298987
v -0.038976 7.113216 0.301036
v -0.038975 7.112947 0.302029
v -0.038976 7.112512 0.302960
v -0.038976 7.111920 0.303800
v -0.038976 7.111192 0.304527
v -0.038976 7.108421 0.305811
v 0.143571 7.106396 0.305811
v 0.143487 7.105400 0.305548
v 0.143487 7.104467 0.305114
v 0.143589 7.102021 0.302433
v 0.143571 7.101601 0.301036
v 0.143585 7.101607 0.298973
v 0.143571 7.103608 0.295488
v 0.143487 7.107399 0.294100
v 0.143571 7.108421 0.294189
v 0.143487 7.110350 0.294886
v 0.143487 7.111193 0.295474
v 0.143488 7.111921 0.296200
v 0.143527 7.112513 0.297041
v 0.143590 7.112730 0.302575
v 0.143488 7.111934 0.303784
v 0.143571 7.110368 0.305103
v 0.143571 7.109437 0.305540
v 0.143571 7.108444 0.305807
v -0.039553 7.105017 0.304886
v -0.039583 7.105116 0.295128
v -0.039583 7.108785 0.294794
v -0.039581 7.110080 0.295346
v -0.039581 7.112447 0.298153
v -0.039583 7.112770 0.299504
v -0.039559 7.108248 0.305401
v 0.144182 7.108321 0.305336
v 0.144274 7.103366 0.303409
v 0.144245 7.102314 0.301360
v 0.144277 7.102272 0.298578
v 0.144179 7.103621 0.296173
v 0.144178 7.105158 0.295108
v 0.144274 7.109463 0.295102
v 0.144146 7.111579 0.296446
v 0.144179 7.112770 0.300499
v 0.144278 7.110312 0.304371
v -0.038931 7.101596 0.301014
v 0.143589 7.113290 0.300598
v 0.143571 7.111209 0.304512
v -0.038994 7.103289 0.304240
v -0.038975 7.102293 0.302940
v -0.038976 7.101861 0.302006
v -0.039561 7.102006 0.299205
v -0.038976 7.101870 0.297971
v -0.038975 7.102305 0.297040
v -0.038975 7.102898 0.296199
v -0.038976 7.111210 0.295488
v -0.038976 7.113307 0.300012
v -0.038975 7.110348 0.305114
v -0.038975 7.109416 0.305548
v 0.144153 7.105397 0.305081
v 0.143571 7.107420 0.305899
v 0.143589 7.102087 0.297425
v 0.143572 7.102882 0.296217
v 0.143585 7.104466 0.294896
v 0.143585 7.105397 0.294462
v 0.143585 7.106390 0.294198
v 0.144280 7.107192 0.294729
v 0.143571 7.109416 0.294452
v 0.143571 7.112947 0.297971
v 0.143571 7.113216 0.298964
v -0.039676 7.103831 0.303856
v -0.039693 7.106960 0.294929
v -0.039682 7.110394 0.295773
v -0.039672 7.106761 0.305255
v 0.144231 7.107268 0.304661
v 0.144247 7.112129 0.298672
v 0.144253 7.111918 0.302841
v -0.039684 7.112483 0.301314
v -0.039659 7.102401 0.301796
f 17 1 2
f 2 18 17
f 3 2 1
f 4 3 1
f 5 4 1
f 314 5 1
f 315 314 1
f 317 315 1
f 316 317 1
f 316 6 319
f 318 319 6
f 321 318 6
f 320 321 6
f 323 320 6
f 322 323 6
f 324 322 6
f 8 324 6
f 7 8 6
f 6 10 7
f 9 7 10
f 328 9 10
f 330 328 10
f 11 330 10
f 331 11 10
f 332 331 10
f 10 14 334
f 334 332 10
f 333 334 14
f 335 333 14
f 12 335 14
f 13 12 14
f 336 13 14
f 338 336 14
f 337 338 14
f 337 15 340
f 339 340 15
f 15 19 342
f 342 339 15
f 341 342 19
f 19 16 344
f 344 341 19
f 343 344 16
f 346 343 16
f 345 346 16
f 347 345 16
f 259 347 16
f 348 259 16
f 262 348 16
f 350 262 16
f 16 17 349
f 349 350 16
f 352 349 17
f 351 352 17
f 353 351 17
f 355 353 17
f 354 355 17
f 18 354 17
f 16 19 17
f 337 14 19
f 19 15 337
f 19 14 10
f 6 19 10
f 316 1 19
f 19 6 316
f 17 19 1
f 20 21 22
f 22 23 20
f 24 22 21
f 25 26 22
f 22 24 25
f 27 22 26
f 28 29 22
f 22 27 28
f 29 30 31
f 31 22 29
f 32 33 22
f 22 31 32
f 33 34 35
f 35 22 33
f 36 37 22
f 22 35 36
f 38 22 37
f 39 40 22
f 22 38 39
f 40 41 42
f 42 22 40
f 43 44 22
f 22 42 43
f 44 45 46
f 46 22 44
f 47 48 22
f 22 46 47
f 48 49 50
f 50 22 48
f 51 52 22
f 22 50 51
f 52 53 54
f 54 22 52
f 55 56 22
f 22 54 55
f 56 57 58
f 58 22 56
f 59 60 22
f 22 58 59
f 61 22 60
f 62 63 22
f 22 61 62
f 64 22 63
f 65 66 22
f 22 64 65
f 66 67 68
f 68 22 66
f 69 70 22
f 22 68 69
f 71 22 70
f 72 73 22
f 22 71 72
f 73 74 23
f 23 22 73
f 75 93 358
f 357 358 93
f 359 357 93
f 274 359 93
f 361 274 93
f 93 79 360
f 360 361 93
f 363 360 79
f 362 363 79
f 77 362 79
f 76 77 79
f 364 76 79
f 78 364 79
f 81 78 79
f 80 81 79
f 85 82 83
f 86 367 365
f 86 87 369
f 368 369 87
f 87 88 370
f 370 368 87
f 90 372 371
f 90 91 374
f 373 374 91
f 376 373 91
f 375 376 91
f 378 375 91
f 377 378 91
f 380 377 91
f 379 380 91
f 381 379 91
f 298 381 91
f 298 91 383
f 382 383 91
f 382 92 384
f 384 385 382
f 386 384 92
f 301 386 92
f 388 301 92
f 387 388 92
f 390 387 92
f 389 390 92
f 391 389 92
f 304 391 92
f 304 92 393
f 92 93 392
f 392 393 92
f 395 392 93
f 394 395 93
f 397 394 93
f 396 397 93
f 398 396 93
f 75 398 93
f 93 92 94
f 382 94 92
f 382 91 94
f 90 371 94
f 94 91 90
f 89 94 371
f 94 89 88
f 87 94 88
f 86 365 94
f 94 87 86
f 366 94 365
f 84 85 94
f 94 366 84
f 83 94 85
f 80 79 94
f 94 83 80
f 79 93 94
f 95 96 97
f 97 98 95
f 99 97 96
f 100 101 97
f 97 99 100
f 102 97 101
f 103 104 97
f 97 102 103
f 104 105 106
f 106 97 104
f 107 108 97
f 97 106 107
f 108 109 110
f 110 97 108
f 111 112 97
f 97 110 111
f 112 113 114
f 114 97 112
f 115 116 97
f 97 114 115
f 117 97 116
f 118 119 97
f 97 117 118
f 119 120 121
f 121 97 119
f 122 123 97
f 97 121 122
f 123 124 125
f 125 97 123
f 126 127 97
f 97 125 126
f 128 97 127
f 129 130 97
f 97 128 129
f 131 97 130
f 132 133 97
f 97 131 132
f 134 97 133
f 135 136 97
f 97 134 135
f 137 97 136
f 138 139 97
f 97 137 138
f 140 97 139
f 141 142 97
f 97 140 141
f 142 143 144
f 144 97 142
f 145 146 97
f 97 144 145
f 98 97 146
f 229 147 189
f 189 190 229
f 190 191 229
f 193 191 192
f 191 193 210
f 211 210 193
f 195 193 194
f 193 195 309
f 309 211 193
f 186 201 282
f 282 225 311
f 225 149 148
f 149 226 148
f 228 148 226
f 228 150 215
f 222 215 150
f 150 184 224
f 150 224 222
f 400 424 151
f 399 400 151
f 151 152 399
f 401 399 152
f 154 401 152
f 152 153 154
f 156 154 153
f 153 155 156
f 402 156 155
f 403 155 157
f 403 402 155
f 158 155 229
f 159 157 158
f 155 158 157
f 404 159 158
f 158 160 404
f 405 160 158
f 406 405 158
f 158 161 406
f 407 406 161
f 161 185 408
f 408 407 161
f 409 410 185
f 410 408 185
f 411 412 162
f 412 409 185
f 185 162 412
f 413 411 162
f 163 162 211
f 415 413 162
f 162 163 415
f 414 415 163
f 165 414 163
f 163 164 165
f 167 165 164
f 167 164 166
f 416 166 164
f 164 310 216
f 417 416 164
f 164 216 417
f 418 419 216
f 419 417 216
f 420 418 216
f 216 168 420
f 422 420 168
f 168 212 421
f 421 422 168
f 151 421 212
f 421 151 423
f 424 423 151
f 426 425 169
f 170 169 213
f 171 426 169
f 169 170 171
f 428 171 170
f 427 428 170
f 170 172 427
f 173 427 172
f 172 187 429
f 429 173 172
f 174 429 187
f 430 174 187
f 187 175 431
f 431 430 187
f 431 175 432
f 434 432 175
f 433 434 175
f 175 198 433
f 433 198 435
f 437 435 198
f 436 437 221
f 198 221 437
f 438 436 221
f 221 188 439
f 439 438 221
f 440 439 188
f 441 440 188
f 176 441 188
f 188 214 177
f 177 176 188
f 178 177 214
f 214 215 442
f 442 178 214
f 443 442 215
f 444 443 215
f 215 179 444
f 445 444 179
f 179 180 446
f 446 445 179
f 447 446 180
f 448 447 180
f 180 222 169
f 425 448 169
f 180 169 448
f 313 189 230
f 190 238 240
f 241 191 190
f 190 240 241
f 243 192 191
f 192 243 244
f 192 244 246
f 199 192 246
f 192 199 200
f 192 200 223
f 217 194 253
f 194 217 256
f 194 256 218
f 224 272 275
f 280 282 201
f 284 196 282
f 225 202 203
f 225 203 204
f 225 204 289
f 149 292 293
f 149 293 182
f 182 226 149
f 183 227 226
f 227 183 297
f 205 228 227
f 228 206 207
f 207 150 228
f 150 207 208
f 150 208 197
f 272 224 209
f 212 147 152
f 164 309 310
f 310 168 216
f 168 310 212
f 311 187 186
f 193 223 253
f 151 212 152
f 147 153 152
f 309 163 211
f 163 309 164
f 175 187 311
f 169 222 213
f 198 148 221
f 234 190 189
f 223 193 192
f 253 194 193
f 194 218 260
f 194 260 195
f 189 195 181
f 276 201 224
f 282 196 225
f 149 225 289
f 227 228 226
f 197 184 150
f 224 184 209
f 155 153 229
f 162 185 211
f 213 172 170
f 172 213 186
f 186 187 172
f 222 179 215
f 232 189 313
f 189 232 234
f 326 191 327
f 250 253 223
f 223 249 250
f 261 195 260
f 195 261 263
f 264 195 263
f 269 181 267
f 181 269 270
f 181 270 230
f 282 283 284
f 219 225 196
f 149 289 292
f 220 227 297
f 227 220 205
f 206 228 205
f 306 184 197
f 153 147 229
f 158 229 161
f 210 185 161
f 148 198 311
f 221 148 188
f 267 181 195
f 230 189 181
f 224 275 276
f 210 211 185
f 311 198 175
f 222 180 179
f 312 313 230
f 231 232 313
f 232 231 314
f 232 314 233
f 233 234 232
f 234 233 235
f 236 190 234
f 234 235 236
f 190 236 237
f 237 238 190
f 320 238 237
f 238 320 323
f 238 323 239
f 239 240 238
f 325 327 191
f 191 241 325
f 191 326 242
f 191 242 243
f 329 246 244
f 245 246 329
f 246 245 247
f 247 199 246
f 248 223 200
f 223 248 249
f 251 253 250
f 253 251 252
f 253 252 254
f 254 217 253
f 217 254 255
f 217 255 256
f 257 260 218
f 258 260 257
f 260 258 259
f 260 259 261
f 262 263 261
f 195 264 265
f 351 267 265
f 195 265 267
f 267 351 266
f 267 266 268
f 268 269 267
f 273 275 272
f 275 273 274
f 275 274 276
f 277 201 276
f 201 277 278
f 278 280 201
f 279 280 278
f 281 282 280
f 282 281 283
f 285 196 284
f 196 285 219
f 286 225 219
f 287 202 286
f 225 286 202
f 202 287 288
f 202 288 203
f 290 292 289
f 292 290 372
f 292 372 291
f 292 291 293
f 294 182 293
f 182 294 295
f 182 295 296
f 296 226 182
f 226 296 183
f 220 298 205
f 299 206 205
f 300 206 299
f 206 300 301
f 206 301 207
f 302 197 208
f 303 197 302
f 197 303 304
f 305 306 197
f 197 304 305
f 307 184 306
f 184 307 308
f 184 308 209
f 271 272 209
f 161 229 191
f 191 210 161
f 195 310 309
f 310 195 189
f 310 147 212
f 310 189 147
f 224 213 222
f 213 224 201
f 201 186 213
f 282 311 186
f 311 225 148
f 188 148 228
f 228 214 188
f 214 228 215
f 2 312 230
f 270 356 230
f 356 18 2
f 2 230 356
f 313 3 4
f 4 231 313
f 312 2 3
f 3 313 312
f 231 5 314
f 231 4 5
f 315 233 314
f 235 317 316
f 233 315 317
f 317 235 233
f 318 237 236
f 236 319 318
f 235 316 319
f 319 236 235
f 237 321 320
f 237 318 321
f 322 239 323
f 324 240 239
f 239 322 324
f 7 325 241
f 241 8 7
f 240 324 241
f 8 241 324
f 9 326 327
f 327 7 9
f 7 327 325
f 242 9 328
f 328 243 242
f 9 242 326
f 11 329 330
f 244 330 329
f 243 328 330
f 330 244 243
f 245 11 331
f 331 247 245
f 11 245 329
f 332 199 247
f 247 331 332
f 333 248 200
f 200 334 333
f 199 332 334
f 334 200 199
f 12 249 248
f 248 335 12
f 248 333 335
f 336 251 250
f 250 13 336
f 249 12 13
f 13 250 249
f 337 252 251
f 251 338 337
f 251 336 338
f 339 255 254
f 254 340 339
f 252 337 340
f 340 254 252
f 256 342 341
f 255 339 342
f 342 256 255
f 343 257 218
f 218 344 343
f 256 341 344
f 344 218 256
f 345 258 257
f 257 346 345
f 257 343 346
f 258 347 259
f 258 345 347
f 261 348 262
f 348 261 259
f 349 264 263
f 263 350 349
f 350 263 262
f 265 352 351
f 264 349 352
f 352 265 264
f 353 266 351
f 354 269 268
f 268 355 354
f 266 353 355
f 355 268 266
f 269 354 356
f 356 270 269
f 18 356 354
f 357 273 272
f 272 358 357
f 271 75 358
f 358 272 271
f 273 359 274
f 273 357 359
f 360 277 276
f 276 361 360
f 361 276 274
f 362 278 277
f 277 363 362
f 277 360 363
f 76 280 279
f 279 77 76
f 278 362 77
f 77 279 278
f 78 283 281
f 281 364 78
f 280 76 364
f 364 281 280
f 80 284 283
f 283 81 80
f 283 78 81
f 82 285 284
f 284 83 82
f 284 80 83
f 84 219 285
f 285 85 84
f 285 82 85
f 365 287 286
f 286 366 365
f 219 84 366
f 366 286 219
f 86 288 287
f 287 367 86
f 287 365 367
f 203 369 368
f 288 86 369
f 369 203 288
f 88 289 204
f 204 370 88
f 203 368 370
f 370 204 203
f 290 89 371
f 289 88 89
f 89 290 289
f 90 291 372
f 290 371 372
f 373 294 293
f 293 374 373
f 291 90 374
f 374 293 291
f 375 295 294
f 294 376 375
f 294 373 376
f 296 378 377
f 295 375 378
f 378 296 295
f 379 297 183
f 183 380 379
f 296 377 380
f 380 183 296
f 220 381 298
f 297 379 381
f 381 220 297
f 205 383 382
f 383 205 298
f 384 300 299
f 299 385 384
f 205 382 385
f 385 299 205
f 300 386 301
f 300 384 386
f 387 208 207
f 207 388 387
f 388 207 301
f 389 303 302
f 302 390 389
f 208 387 390
f 390 302 208
f 303 391 304
f 303 389 391
f 392 306 305
f 305 393 392
f 393 305 304
f 394 307 306
f 306 395 394
f 306 392 395
f 396 209 308
f 308 397 396
f 307 394 397
f 397 308 307
f 271 398 75
f 209 396 398
f 398 271 209
f 20 424 400
f 400 21 20
f 399 25 24
f 24 400 399
f 400 24 21
f 25 399 401
f 401 26 25
f 154 28 27
f 27 401 154
f 401 27 26
f 156 30 29
f 29 154 156
f 154 29 28
f 402 32 31
f 30 156 402
f 402 31 30
f 157 34 33
f 33 403 157
f 32 402 403
f 403 33 32
f 159 36 35
f 35 157 159
f 157 35 34
f 36 159 404
f 404 37 36
f 160 39 38
f 38 404 160
f 404 38 37
f 405 41 40
f 40 160 405
f 160 40 39
f 406 43 42
f 41 405 406
f 406 42 41
f 407 45 44
f 43 406 407
f 407 44 43
f 408 47 46
f 45 407 408
f 408 46 45
f 409 49 48
f 48 410 409
f 47 408 410
f 410 48 47
f 411 51 50
f 50 412 411
f 49 409 412
f 412 50 49
f 413 53 52
f 52 411 413
f 411 52 51
f 415 55 54
f 53 413 415
f 415 54 53
f 414 57 56
f 56 415 414
f 415 56 55
f 165 59 58
f 57 414 165
f 165 58 57
f 59 165 167
f 167 60 59
f 166 62 61
f 61 167 166
f 167 61 60
f 62 166 416
f 416 63 62
f 417 65 64
f 63 416 417
f 417 64 63
f 418 67 66
f 66 419 418
f 65 417 419
f 419 66 65
f 420 69 68
f 68 418 420
f 418 68 67
f 69 420 422
f 422 70 69
f 421 72 71
f 71 422 421
f 422 71 70
f 423 74 73
f 72 421 423
f 423 73 72
f 424 20 23
f 74 423 424
f 424 23 74
f 95 425 426
f 426 96 95
f 171 100 99
f 99 426 171
f 426 99 96
f 100 171 428
f 428 101 100
f 427 103 102
f 102 428 427
f 428 102 101
f 173 105 104
f 104 427 173
f 427 104 103
f 429 107 106
f 105 173 429
f 429 106 105
f 174 109 108
f 108 429 174
f 429 108 107
f 430 111 110
f 110 174 430
f 174 110 109
f 431 113 112
f 112 430 431
f 430 112 111
f 432 115 114
f 113 431 432
f 432 114 113
f 115 432 434
f 434 116 115
f 433 118 117
f 117 434 433
f 434 117 116
f 435 120 119
f 118 433 435
f 435 119 118
f 437 122 121
f 120 435 437
f 437 121 120
f 436 124 123
f 123 437 436
f 437 123 122
f 438 126 125
f 124 436 438
f 438 125 124
f 126 438 439
f 439 127 126
f 440 129 128
f 127 439 440
f 440 128 127
f 129 440 441
f 441 130 129
f 176 132 131
f 130 441 176
f 176 131 130
f 132 176 177
f 177 133 132
f 178 135 134
f 133 177 178
f 178 134 133
f 135 178 442
f 442 136 135
f 443 138 137
f 136 442 443
f 443 137 136
f 138 443 444
f 444 139 138
f 445 141 140
f 139 444 445
f 445 140 139
f 446 143 142
f 141 445 446
f 446 142 141
f 447 145 144
f 143 446 447
f 447 144 143
f 145 447 448
f 448 146 145
f 425 95 98
f 98 448 425
f 448 98 146
f 449 450 538
f 538 537 449
f 451 449 537
f 537 539 451
f 449 451 484
f 484 452 449
f 450 449 452
f 452 492 450
f 453 451 539
f 539 454 453
f 455 453 454
f 453 455 482
f 453 484 451
f 456 599 485
f 485 479 456
f 455 456 479
f 479 482 455
f 457 485 599
f 599 600 457
f 486 457 600
f 600 595 486
f 458 486 595
f 595 540 458
f 459 458 540
f 540 541 459
f 459 499 458
f 486 458 499
f 461 459 541
f 541 602 461
f 460 461 602
f 602 603 460
f 461 460 503
f 488 460 603
f 603 604 488
f 462 488 604
f 604 542 462
f 488 462 487
f 488 503 460
f 463 462 542
f 542 543 463
f 480 463 543
f 543 544 480
f 463 487 462
f 464 480 544
f 544 545 464
f 465 464 545
f 545 546 465
f 464 465 508
f 508 507 464
f 480 464 507
f 466 465 546
f 546 547 466
f 467 466 547
f 547 548 467
f 466 467 510
f 466 508 465
f 468 467 548
f 548 549 468
f 469 468 549
f 549 605 469
f 469 511 468
f 467 468 511
f 511 510 467
f 470 469 605
f 605 550 470
f 471 470 550
f 550 551 471
f 470 471 514
f 489 471 551
f 551 552 489
f 472 489 552
f 552 553 472
f 489 472 481
f 489 514 471
f 483 472 553
f 553 606 483
f 473 483 606
f 606 554 473
f 483 481 472
f 490 473 554
f 554 555 490
f 474 490 555
f 555 556 474
f 491 474 556
f 556 557 491
f 475 491 557
f 557 558 475
f 491 475 521
f 477 475 558
f 558 607 477
f 476 477 607
f 607 608 476
f 477 521 475
f 478 476 608
f 608 559 478
f 450 478 559
f 559 538 450
f 478 450 492
f 492 524 478
f 476 478 524
f 452 484 561
f 561 560 452
f 492 452 560
f 560 610 492
f 484 453 493
f 482 493 453
f 493 482 494
f 494 562 493
f 484 493 562
f 562 561 484
f 479 485 495
f 495 496 479
f 482 479 496
f 496 494 482
f 497 495 485
f 485 457 497
f 498 497 457
f 457 486 498
f 497 498 564
f 499 498 486
f 499 459 500
f 500 501 499
f 498 499 501
f 501 564 498
f 502 500 459
f 459 461 502
f 503 502 461
f 503 488 504
f 487 504 488
f 504 487 566
f 566 612 504
f 503 504 612
f 487 463 505
f 506 505 463
f 463 480 506
f 505 566 487
f 507 506 480
f 507 508 567
f 508 466 509
f 510 509 466
f 509 510 617
f 617 568 509
f 508 509 568
f 568 567 508
f 511 469 512
f 511 512 570
f 570 569 511
f 510 511 569
f 569 617 510
f 513 512 469
f 469 470 513
f 514 513 470
f 513 514 572
f 572 571 513
f 512 513 571
f 571 570 512
f 514 489 515
f 481 515 489
f 515 481 619
f 619 618 515
f 514 515 618
f 618 572 514
f 481 483 516
f 517 516 483
f 483 473 517
f 516 619 481
f 518 517 473
f 473 490 518
f 519 518 490
f 490 474 519
f 520 519 474
f 474 491 520
f 521 520 491
f 520 521 597
f 597 574 520
f 519 520 574
f 521 477 522
f 523 522 477
f 477 476 523
f 522 523 576
f 576 575 522
f 521 522 575
f 575 597 521
f 524 523 476
f 524 492 610
f 610 577 524
f 523 524 577
f 577 576 523
f 525 526 527
f 628 525 528
f 526 525 628
f 529 624 587
f 529 587 530
f 529 625 626
f 626 624 529
f 578 539 623
f 620 598 578
f 598 620 628
f 628 599 598
f 628 600 599
f 601 602 541
f 602 601 531
f 531 603 602
f 531 604 603
f 531 542 604
f 579 543 542
f 542 531 579
f 579 544 543
f 532 545 544
f 544 579 532
f 532 546 545
f 580 547 546
f 546 532 580
f 580 548 547
f 581 549 548
f 548 580 581
f 549 581 533
f 533 605 549
f 533 550 605
f 550 533 534
f 534 551 550
f 582 552 551
f 551 534 582
f 552 582 583
f 583 553 552
f 583 606 553
f 606 583 627
f 627 554 606
f 627 555 554
f 555 627 535
f 535 556 555
f 535 557 556
f 535 558 557
f 535 607 558
f 607 535 584
f 584 608 607
f 584 559 608
f 560 609 585
f 585 610 560
f 494 586 609
f 586 496 563
f 586 494 496
f 587 563 564
f 563 587 586
f 588 501 565
f 501 588 587
f 587 564 501
f 588 565 611
f 589 612 566
f 612 589 588
f 588 611 612
f 590 613 614
f 613 590 589
f 589 566 613
f 615 616 590
f 590 614 615
f 591 568 617
f 568 591 616
f 536 618 619
f 618 536 592
f 596 593 536
f 536 619 596
f 573 626 593
f 593 596 573
f 597 594 626
f 594 575 576
f 576 585 594
f 594 597 575
f 585 577 610
f 585 576 577
f 621 532 579
f 598 455 454
f 598 456 455
f 456 598 599
f 495 563 496
f 563 497 564
f 563 495 497
f 500 565 501
f 611 502 503
f 502 611 565
f 565 500 502
f 611 503 612
f 613 505 506
f 506 614 613
f 505 613 566
f 615 507 567
f 507 615 614
f 614 506 507
f 596 516 517
f 516 596 619
f 573 518 519
f 518 573 596
f 596 517 518
f 573 519 574
f 623 537 538
f 538 584 623
f 537 623 539
f 578 454 539
f 454 578 598
f 628 595 600
f 601 540 595
f 595 628 601
f 540 601 541
f 584 538 559
f 561 609 560
f 609 562 494
f 609 561 562
f 567 616 615
f 616 567 568
f 591 569 570
f 570 592 591
f 569 591 617
f 592 571 572
f 592 570 571
f 592 572 618
f 626 574 597
f 574 626 573
f 620 578 623
f 601 628 528
f 528 531 601
f 528 579 531
f 579 528 621
f 621 580 532
f 580 621 622
f 622 581 580
f 622 533 581
f 622 534 533
f 534 583 582
f 583 534 627
f 584 535 623
f 609 586 624
f 624 585 609
f 589 530 588
f 590 616 530
f 530 589 590
f 592 625 591
f 625 592 536
f 593 626 625
f 625 536 593
f 585 624 594
f 620 623 526
f 526 623 535
f 627 526 535
f 526 627 527
f 627 534 527
f 534 622 527
f 525 622 621
f 525 527 622
f 621 528 525
f 628 620 526
f 587 624 586
f 587 588 530
f 530 616 529
f 616 591 529
f 625 529 591
f 624 626 594
