# USD → MuJoCo (world-space, simplified)
v 0.819481 7.651812 0.098069
v 0.818716 7.651610 0.096821
v 0.820876 7.661471 0.098060
v 0.821292 7.659812 0.098025
v 0.820803 7.658472 0.098029
v 0.819713 7.658686 0.098028
v 0.820512 7.657294 0.098031
v 0.819402 7.657634 0.098062
v 0.820322 7.655896 0.098035
v 0.819226 7.653504 0.098038
v 0.820350 7.653610 0.098041
v 0.820955 7.651048 0.098048
v 0.821857 7.649077 0.098053
v 0.821098 7.648020 0.098077
v 0.820410 7.649452 0.098087
v 0.821905 7.647027 0.098058
v 0.822766 7.647724 0.098056
v 0.822729 7.646075 0.098060
v 0.823426 7.646939 0.098058
v 0.824563 7.645822 0.098061
v 0.824917 7.644187 0.098065
v 0.826069 7.644761 0.098064
v 0.825953 7.643533 0.098102
v 0.827492 7.644014 0.098066
v 0.829042 7.643470 0.098068
v 0.827505 7.642768 0.098088
v 0.830413 7.643165 0.098068
v 0.831386 7.641850 0.098095
v 0.829681 7.642173 0.098072
v 0.831641 7.643041 0.098069
v 0.832646 7.643025 0.098069
v 0.832620 7.641919 0.098072
v 0.834046 7.643144 0.098069
v 0.835500 7.642232 0.098094
v 0.835819 7.643538 0.098068
v 0.836690 7.642670 0.098070
v 0.837866 7.643137 0.098104
v 0.837516 7.644208 0.098066
v 0.838462 7.644726 0.098065
v 0.839111 7.645139 0.098064
v 0.840322 7.644653 0.098065
v 0.840523 7.646256 0.098061
v 0.839305 7.643828 0.098090
v 0.841304 7.645401 0.098084
v 0.843113 7.647607 0.098058
v 0.841997 7.647931 0.098057
v 0.843765 7.648685 0.098055
v 0.842861 7.649315 0.098054
v 0.843239 7.650088 0.098052
v 0.844601 7.650042 0.098052
v 0.843900 7.648620 0.098055
v 0.844865 7.651278 0.098049
v 0.843534 7.650789 0.098050
v 0.843904 7.651947 0.098047
v 0.845144 7.652400 0.098049
v 0.844249 7.653723 0.098042
v 0.844291 7.655558 0.098038
v 0.845357 7.656535 0.098071
v 0.844119 7.657158 0.098034
v 0.844287 7.660412 0.098022
v 0.843525 7.659305 0.098028
v 0.844233 7.660639 0.098062
v 0.842532 7.661302 0.098023
v 0.842690 7.663004 0.098019
v 0.841457 7.662775 0.098019
v 0.841939 7.664035 0.098037
v 0.840031 7.664209 0.098015
v 0.840656 7.665164 0.098012
v 0.838367 7.665368 0.098012
v 0.838757 7.666412 0.098013
v 0.836728 7.666172 0.098010
v 0.836003 7.667581 0.098006
v 0.834588 7.666804 0.098008
v 0.833079 7.668114 0.098051
v 0.834782 7.667893 0.098041
v 0.832375 7.667017 0.098008
v 0.831899 7.668108 0.098005
v 0.830747 7.666908 0.098008
v 0.830672 7.668055 0.098039
v 0.829358 7.666647 0.098008
v 0.827905 7.667357 0.098006
v 0.827817 7.666145 0.098009
v 0.826746 7.666869 0.098007
v 0.825313 7.666224 0.098038
v 0.826357 7.665441 0.098011
v 0.824331 7.665418 0.098011
v 0.824999 7.664541 0.098013
v 0.823642 7.663338 0.098016
v 0.823293 7.664627 0.098033
v 0.822150 7.663363 0.098039
v 0.822249 7.661603 0.098021
v 0.820115 7.661892 0.093302
v 0.820043 7.661773 0.096795
v 0.845879 7.658411 0.096805
v 0.846035 7.657731 0.096808
v 0.846076 7.657400 0.035832
v 0.845827 7.658457 0.035829
v 0.845844 7.658504 0.079181
v 0.845843 7.658545 0.093321
v 0.845729 7.658804 0.035828
v 0.845495 7.659672 0.079178
v 0.845692 7.658894 0.023323
v 0.845730 7.658777 0.026399
v 0.845419 7.659710 0.023320
v 0.845081 7.660520 0.023319
v 0.845042 7.660757 0.079176
v 0.845029 7.660676 0.035823
v 0.844981 7.660945 0.096798
v 0.844277 7.662109 0.035819
v 0.844178 7.662434 0.096803
v 0.844093 7.662519 0.079171
v 0.843561 7.663152 0.035817
v 0.843134 7.663827 0.079168
v 0.843483 7.663221 0.023312
v 0.843561 7.663126 0.026390
v 0.842961 7.663879 0.023309
v 0.842625 7.664407 0.079166
v 0.842525 7.664571 0.096788
v 0.842352 7.664541 0.023309
v 0.842259 7.664670 0.035813
v 0.841692 7.665218 0.035811
v 0.841300 7.665739 0.096794
v 0.841172 7.665781 0.079162
v 0.841171 7.665822 0.093298
v 0.840545 7.666270 0.079161
v 0.840704 7.666031 0.035809
v 0.840034 7.666497 0.035808
v 0.840035 7.666471 0.026382
v 0.839927 7.666539 0.023305
v 0.839203 7.667141 0.079159
v 0.838985 7.667094 0.023300
v 0.839067 7.667260 0.096782
v 0.838308 7.667645 0.096781
v 0.838412 7.667387 0.023301
v 0.838293 7.667452 0.026381
v 0.838292 7.667479 0.035805
v 0.837531 7.667990 0.096779
v 0.837727 7.667729 0.035805
v 0.837391 7.667990 0.079156
v 0.836429 7.668333 0.079155
v 0.836593 7.668159 0.035803
v 0.835576 7.668436 0.035803
v 0.835449 7.668430 0.023298
v 0.835577 7.668409 0.026378
v 0.835096 7.668669 0.079155
v 0.834948 7.668746 0.096778
v 0.834586 7.668604 0.023295
v 0.834283 7.668859 0.096779
v 0.833734 7.668714 0.023298
v 0.833260 7.668969 0.096777
v 0.833603 7.668766 0.035802
v 0.833112 7.668924 0.079154
v 0.833111 7.668965 0.093289
v 0.831864 7.668953 0.079154
v 0.832005 7.668832 0.035801
v 0.830723 7.668734 0.035801
v 0.830719 7.668859 0.079154
v 0.830570 7.668892 0.096777
v 0.830594 7.668683 0.023297
v 0.829726 7.668764 0.096781
v 0.829727 7.668553 0.023297
v 0.828895 7.668579 0.096778
v 0.828885 7.668364 0.023298
v 0.828752 7.668532 0.093291
v 0.828753 7.668492 0.079155
v 0.828757 7.668367 0.035802
v 0.827654 7.668168 0.079155
v 0.827527 7.667996 0.035803
v 0.826498 7.667690 0.079156
v 0.826059 7.667358 0.035805
v 0.826362 7.667679 0.096780
v 0.828994 7.667415 0.021705
v 0.826061 7.667328 0.026380
v 0.825940 7.667264 0.023302
v 0.825599 7.667297 0.096784
v 0.825005 7.666737 0.023300
v 0.824865 7.666864 0.096782
v 0.824740 7.666775 0.093295
v 0.824740 7.666736 0.079159
v 0.824447 7.666377 0.023303
v 0.824339 7.666312 0.026383
v 0.824338 7.666339 0.035807
v 0.823620 7.665945 0.079161
v 0.823489 7.665712 0.035809
v 0.822844 7.665276 0.079162
v 0.822843 7.665317 0.093297
v 0.822587 7.664905 0.035811
v 0.822727 7.665226 0.096784
v 0.822151 7.664467 0.035812
v 0.822129 7.664625 0.096788
v 0.822152 7.664440 0.026387
v 0.822062 7.664336 0.023308
v 0.821628 7.663849 0.023307
v 0.821561 7.663993 0.096789
v 0.821468 7.663865 0.093303
v 0.821470 7.663825 0.079166
v 0.820957 7.663001 0.023314
v 0.821101 7.663352 0.079167
v 0.820881 7.662896 0.026388
v 0.820881 7.662923 0.035816
v 0.820527 7.662538 0.079169
v 0.820422 7.662242 0.035817
v 0.820116 7.661851 0.079171
v 0.819796 7.661129 0.035820
v 0.819665 7.661049 0.096798
v 0.819466 7.660417 0.035822
v 0.819311 7.660235 0.096799
v 0.819409 7.660257 0.023319
v 0.819466 7.660389 0.026394
v 0.819258 7.660047 0.079175
v 0.819257 7.660088 0.093312
v 0.819023 7.659228 0.023320
v 0.818994 7.659324 0.079177
v 0.818837 7.658622 0.023322
v 0.818802 7.658505 0.026401
v 0.818801 7.658532 0.035827
v 0.818763 7.658530 0.079179
v 0.818579 7.657753 0.079181
v 0.818599 7.657716 0.035829
v 0.818551 7.657658 0.096805
v 0.818413 7.656836 0.096809
v 0.818397 7.656491 0.035832
v 0.818329 7.655693 0.035834
v 0.818331 7.655970 0.096810
v 0.818322 7.655812 0.093326
v 0.818323 7.655771 0.079186
v 0.818323 7.655527 0.023330
v 0.818330 7.655666 0.026403
v 0.818293 7.654788 0.079189
v 0.818301 7.654647 0.023330
v 0.818341 7.653790 0.023334
v 0.818349 7.653778 0.079191
v 0.818350 7.653695 0.035839
v 0.818350 7.653668 0.026415
v 0.818422 7.652992 0.035841
v 0.818389 7.653380 0.079192
v 0.818403 7.653283 0.096816
v 0.818534 7.652444 0.096820
v 0.818388 7.653421 0.093339
v 0.818580 7.657794 0.093312
v 0.826497 7.667731 0.093293
v 0.830718 7.668899 0.093290
v 0.839197 7.667173 0.093295
v 0.842624 7.664448 0.093303
v 0.844084 7.662552 0.093310
v 0.845040 7.660798 0.093312
v 0.846194 7.656738 0.096810
v 0.846210 7.656580 0.093323
v 0.846211 7.656539 0.079186
v 0.846259 7.655976 0.035835
v 0.846308 7.655323 0.079190
v 0.846269 7.655809 0.023331
v 0.846309 7.654950 0.023332
v 0.846277 7.654149 0.079193
v 0.846286 7.654072 0.023336
v 0.846276 7.654190 0.093329
v 0.846278 7.653977 0.035840
v 0.846266 7.654052 0.096816
v 0.846186 7.652965 0.035843
v 0.846184 7.653186 0.096820
v 0.846021 7.652167 0.079198
v 0.846046 7.652363 0.096821
v 0.846018 7.652208 0.093334
v 0.845818 7.651136 0.035848
v 0.845668 7.650779 0.079201
v 0.845807 7.651111 0.026421
v 0.845772 7.650976 0.023344
v 0.845586 7.650370 0.023344
v 0.845342 7.649873 0.079203
v 0.845341 7.649914 0.093340
v 0.845286 7.649786 0.096827
v 0.845200 7.649341 0.023349
v 0.845141 7.649254 0.035852
v 0.845142 7.649227 0.026430
v 0.844812 7.648541 0.035854
v 0.844931 7.648970 0.096831
v 0.844554 7.648249 0.096831
v 0.844482 7.648109 0.093341
v 0.844483 7.648068 0.079208
v 0.844184 7.647427 0.035857
v 0.844073 7.647383 0.079210
v 0.843727 7.646747 0.035859
v 0.843499 7.646567 0.079212
v 0.843728 7.646720 0.026436
v 0.843653 7.646598 0.023357
v 0.843130 7.646096 0.079213
v 0.843129 7.646136 0.093350
v 0.842975 7.645741 0.023355
v 0.843036 7.646029 0.096837
v 0.842468 7.645396 0.096838
v 0.842547 7.645263 0.023358
v 0.842457 7.645176 0.026438
v 0.842457 7.645204 0.035863
v 0.842170 7.645091 0.096839
v 0.842168 7.644909 0.035863
v 0.841863 7.644795 0.096840
v 0.841872 7.644623 0.035864
v 0.841754 7.644685 0.093352
v 0.841756 7.644644 0.079217
v 0.841116 7.643956 0.035866
v 0.840979 7.643974 0.079218
v 0.840269 7.643332 0.035867
v 0.839860 7.643184 0.079220
v 0.840163 7.643218 0.023363
v 0.839732 7.643157 0.096844
v 0.839857 7.643226 0.093357
v 0.839270 7.642663 0.023364
v 0.839008 7.642729 0.096848
v 0.838665 7.642338 0.023365
v 0.838547 7.642315 0.035870
v 0.838548 7.642288 0.026447
v 0.838175 7.642137 0.035870
v 0.838235 7.642343 0.096846
v 0.838101 7.642271 0.093359
v 0.838102 7.642230 0.079222
v 0.837082 7.641675 0.035871
v 0.836947 7.641753 0.079224
v 0.835851 7.641304 0.035872
v 0.835847 7.641428 0.079224
v 0.835846 7.641469 0.093361
v 0.835725 7.641235 0.023368
v 0.835702 7.641442 0.096848
v 0.834883 7.641045 0.023368
v 0.834871 7.641258 0.096851
v 0.834027 7.641129 0.096849
v 0.834016 7.640916 0.023368
v 0.833881 7.641061 0.079225
v 0.833885 7.640937 0.035873
v 0.832737 7.640967 0.079225
v 0.832605 7.640839 0.035873
v 0.831488 7.640996 0.079225
v 0.831415 7.640875 0.035873
v 0.831339 7.641056 0.096849
v 0.833880 7.641102 0.093362
v 0.831589 7.641821 0.093350
v 0.831004 7.640908 0.035873
v 0.830914 7.641091 0.096849
v 0.830875 7.640884 0.023368
v 0.829657 7.641261 0.096854
v 0.830026 7.640994 0.023365
v 0.829504 7.641294 0.093361
v 0.829504 7.641251 0.079224
v 0.829031 7.641235 0.035872
v 0.829032 7.641208 0.026447
v 0.828018 7.641511 0.035871
v 0.828173 7.641586 0.079223
v 0.827209 7.641930 0.079222
v 0.826880 7.641941 0.035870
v 0.827065 7.642032 0.096845
v 0.827208 7.641970 0.093359
v 0.826315 7.642191 0.035869
v 0.826095 7.642469 0.096846
v 0.826316 7.642164 0.026445
v 0.826194 7.642209 0.023365
v 0.825530 7.642766 0.096844
v 0.825427 7.642615 0.023364
v 0.824683 7.643060 0.023364
v 0.825397 7.642779 0.079220
v 0.824573 7.643173 0.035866
v 0.823901 7.643642 0.035865
v 0.824057 7.643648 0.079218
v 0.823428 7.644139 0.079216
v 0.823255 7.644161 0.035864
v 0.823426 7.644180 0.093352
v 0.823312 7.644284 0.096840
v 0.822698 7.644824 0.096840
v 0.822343 7.644992 0.035862
v 0.822074 7.645455 0.096837
v 0.821975 7.645513 0.079213
v 0.821650 7.645718 0.023353
v 0.821461 7.646099 0.079211
v 0.821126 7.646377 0.023354
v 0.821044 7.646517 0.035858
v 0.821047 7.646491 0.026433
v 0.821973 7.645553 0.093343
v 0.820507 7.647401 0.079208
v 0.820514 7.647449 0.093339
v 0.820458 7.647377 0.035855
v 0.820434 7.647584 0.096831
v 0.820113 7.648120 0.096831
v 0.819932 7.648278 0.035853
v 0.819616 7.649076 0.096827
v 0.819581 7.648995 0.035851
v 0.819557 7.649204 0.093340
v 0.819558 7.649163 0.079203
v 0.819169 7.650086 0.079201
v 0.819528 7.649079 0.023347
v 0.819191 7.649889 0.023343
v 0.818917 7.650705 0.023342
v 0.818878 7.650867 0.035846
v 0.818879 7.650839 0.026423
v 0.818753 7.651415 0.079197
v 0.818755 7.651457 0.093334
v 0.818641 7.651754 0.035844
v 0.819582 7.648968 0.026427
v 0.822257 7.645058 0.023357
v 0.824574 7.643146 0.026444
v 0.831005 7.640881 0.026448
v 0.833772 7.641857 0.021758
v 0.835851 7.641276 0.026448
v 0.839734 7.644071 0.021761
v 0.846259 7.655948 0.026406
v 0.844858 7.658460 0.035829
v 0.845255 7.655965 0.035835
v 0.844791 7.658425 0.026404
v 0.845256 7.655938 0.026409
v 0.845102 7.657184 0.021695
v 0.819784 7.658360 0.021690
v 0.819468 7.656952 0.021694
v 0.821613 7.655539 0.021698
v 0.819503 7.652434 0.021706
v 0.822152 7.658324 0.021691
v 0.820966 7.661185 0.021683
v 0.822547 7.663397 0.021666
v 0.823835 7.664672 0.021675
v 0.824212 7.661973 0.021756
v 0.825012 7.665554 0.021671
v 0.828922 7.665130 0.021778
v 0.826449 7.666481 0.021679
v 0.832019 7.665652 0.021709
v 0.833604 7.667809 0.021675
v 0.837874 7.666534 0.021702
v 0.839507 7.665704 0.021685
v 0.841585 7.663967 0.021711
v 0.844736 7.658605 0.021691
v 0.845281 7.655724 0.021698
v 0.845332 7.653976 0.021733
v 0.843064 7.650272 0.021713
v 0.845148 7.652667 0.021707
v 0.844576 7.650471 0.021705
v 0.843629 7.648379 0.021718
v 0.841833 7.645936 0.021721
v 0.840749 7.644897 0.021727
v 0.839214 7.645532 0.021725
v 0.836907 7.642629 0.021732
v 0.835591 7.642222 0.021739
v 0.832406 7.641789 0.021734
v 0.834203 7.643289 0.021730
v 0.830968 7.641866 0.021733
v 0.829288 7.642157 0.021739
v 0.827944 7.642540 0.021732
v 0.824038 7.644747 0.021726
v 0.821929 7.646968 0.021720
v 0.821098 7.648176 0.021717
v 0.820124 7.650226 0.021703
v 0.822030 7.651228 0.021730
v 0.821656 7.662260 0.026391
v 0.821651 7.662290 0.035817
v 0.820870 7.661035 0.035820
v 0.820412 7.660083 0.035823
v 0.820366 7.659939 0.021701
v 0.819747 7.658172 0.026405
v 0.819747 7.658199 0.035828
v 0.819332 7.655704 0.035834
v 0.819460 7.656936 0.035831
v 0.819321 7.655549 0.021700
v 0.819353 7.653678 0.026415
v 0.819335 7.653864 0.021701
v 0.819352 7.653705 0.035839
v 0.819747 7.651209 0.035845
v 0.819818 7.651191 0.026419
v 0.820521 7.649321 0.026428
v 0.820516 7.649346 0.035850
v 0.821769 7.647146 0.035856
v 0.821809 7.647143 0.026432
v 0.823025 7.645623 0.021741
v 0.825049 7.644023 0.035864
v 0.823100 7.645642 0.035860
v 0.825231 7.643889 0.021726
v 0.825066 7.644019 0.026439
v 0.826734 7.643053 0.021742
v 0.826808 7.643064 0.035867
v 0.829169 7.642158 0.035869
v 0.829160 7.641169 0.023368
v 0.831169 7.641869 0.026446
v 0.831168 7.641891 0.035870
v 0.833702 7.641874 0.035870
v 0.835709 7.642230 0.035870
v 0.838037 7.643178 0.035867
v 0.838144 7.643182 0.021735
v 0.839759 7.644194 0.035865
v 0.841682 7.645840 0.035861
v 0.840792 7.644979 0.035863
v 0.841683 7.645813 0.026436
v 0.842909 7.647276 0.021746
v 0.842952 7.647384 0.035857
v 0.844196 7.649587 0.035851
v 0.843654 7.648472 0.035854
v 0.844196 7.649560 0.026429
v 0.844862 7.651444 0.026423
v 0.845321 7.653960 0.035840
v 0.844865 7.651470 0.035847
v 0.822926 7.663804 0.026389
v 0.824849 7.665449 0.026385
v 0.824848 7.665476 0.035809
v 0.822884 7.663886 0.035813
v 0.828941 7.667382 0.035805
v 0.826549 7.666560 0.035807
v 0.830834 7.667751 0.021679
v 0.833407 7.667795 0.035777
v 0.830906 7.667795 0.035804
v 0.835282 7.667531 0.021679
v 0.837800 7.666606 0.035807
v 0.835465 7.667499 0.035799
v 0.841522 7.664058 0.035814
v 0.839544 7.665629 0.035810
v 0.842799 7.662615 0.021693
v 0.844163 7.660242 0.021711
v 0.844087 7.660323 0.035824
v 0.842893 7.662468 0.035806
v 0.824900 7.645856 0.021820
v 0.827546 7.644204 0.021913
v 0.839123 7.645466 0.022634
v 0.843900 7.655964 0.023078
v 0.843816 7.655953 0.021698
v 0.841664 7.661893 0.021683
v 0.836663 7.665530 0.023539
v 0.830861 7.666295 0.021874
v 0.831433 7.666420 0.023738
v 0.826956 7.665011 0.023932
v 0.826047 7.664530 0.022085
v 0.823609 7.662455 0.024094
v 0.823016 7.661624 0.022249
v 0.821100 7.657724 0.022435
v 0.821883 7.659693 0.024230
v 0.821087 7.657471 0.024332
v 0.822972 7.647980 0.022856
v 0.820792 7.653465 0.024499
v 0.822196 7.649137 0.024683
v 0.833220 7.643268 0.023326
v 0.832134 7.643203 0.025169
v 0.836672 7.644125 0.025357
v 0.837248 7.644383 0.023495
v 0.841251 7.647267 0.025557
v 0.840988 7.647108 0.023660
v 0.843666 7.652606 0.025781
v 0.843132 7.658879 0.024118
v 0.842235 7.660793 0.026083
v 0.843687 7.656560 0.025923
v 0.841265 7.662035 0.024258
v 0.838251 7.664764 0.024415
v 0.834857 7.666033 0.024546
v 0.831104 7.666318 0.024693
v 0.828001 7.665571 0.026712
v 0.826578 7.664825 0.024890
v 0.823336 7.662166 0.026937
v 0.823087 7.661826 0.025068
v 0.821488 7.658804 0.027099
v 0.821018 7.651783 0.025509
v 0.821272 7.651116 0.027420
v 0.829377 7.643581 0.027887
v 0.831959 7.643246 0.026103
v 0.835378 7.643597 0.028129
v 0.840925 7.647040 0.028369
v 0.843221 7.650692 0.026646
v 0.843645 7.652329 0.028598
v 0.843811 7.655169 0.026816
v 0.843461 7.657702 0.027970
v 0.842238 7.660965 0.027029
v 0.843434 7.658082 0.028804
v 0.841101 7.662382 0.028986
v 0.836701 7.665650 0.027307
v 0.836752 7.665519 0.029190
v 0.831459 7.666339 0.027505
v 0.826937 7.665098 0.027699
v 0.823325 7.662055 0.027882
v 0.823321 7.662054 0.029770
v 0.821490 7.658905 0.029924
v 0.821029 7.657701 0.028092
v 0.820683 7.654066 0.030131
v 0.821830 7.649888 0.028418
v 0.822940 7.647931 0.030399
v 0.830812 7.643251 0.028885
v 0.827968 7.644025 0.030663
v 0.832715 7.643288 0.030847
v 0.836989 7.644244 0.031024
v 0.837068 7.644202 0.029140
v 0.840565 7.646777 0.031184
v 0.840906 7.647112 0.029313
v 0.842567 7.649509 0.031308
v 0.843953 7.654665 0.031513
v 0.842151 7.661032 0.031746
v 0.839257 7.663995 0.031908
v 0.838228 7.664720 0.030070
v 0.835871 7.665850 0.032049
v 0.831707 7.666329 0.032209
v 0.827634 7.665436 0.032382
v 0.833005 7.666537 0.030270
v 0.826996 7.665095 0.030525
v 0.823504 7.662381 0.030695
v 0.823846 7.662673 0.032565
v 0.821378 7.658606 0.030878
v 0.821885 7.659809 0.032709
v 0.820824 7.656061 0.032877
v 0.821360 7.650836 0.033088
v 0.820779 7.653602 0.031093
v 0.824000 7.646817 0.033292
v 0.827905 7.644081 0.033488
v 0.832489 7.643302 0.033665
v 0.836122 7.643946 0.033816
v 0.839958 7.646013 0.032090
v 0.843137 7.650716 0.032301
v 0.843419 7.651715 0.034226
v 0.843833 7.654863 0.032459
v 0.843312 7.658348 0.032580
v 0.843866 7.655900 0.034382
v 0.839264 7.663996 0.034735
v 0.836787 7.665502 0.032958
v 0.835762 7.665923 0.034880
v 0.831385 7.666411 0.033163
v 0.829862 7.666164 0.035113
v 0.826238 7.664675 0.033386
v 0.825619 7.664249 0.035303
v 0.823317 7.662029 0.035425
v 0.821818 7.659641 0.035544
v 0.822825 7.661495 0.033568
v 0.820888 7.656817 0.033786
v 0.820748 7.655632 0.035724
v 0.824103 7.646675 0.035857
v 0.827612 7.644255 0.034414
v 0.828833 7.643736 0.035865
v 0.834352 7.643443 0.035866
v 0.835906 7.643878 0.034747
v 0.839583 7.645790 0.034904
v 0.839431 7.645717 0.035861
v 0.842025 7.648629 0.035854
v 0.843720 7.652636 0.035205
v 0.843746 7.652774 0.035843
v 0.843240 7.658825 0.035828
v 0.843381 7.658298 0.035405
v 0.839818 7.663751 0.035701
v 0.832056 7.643273 0.034589
v 0.823342 7.647398 0.034196
v 0.821063 7.652157 0.033975
v 0.840944 7.662536 0.032762
v 0.825891 7.645117 0.031514
v 0.822054 7.649443 0.031266
v 0.841434 7.661922 0.029904
v 0.843395 7.658104 0.029745
v 0.843636 7.651778 0.029518
v 0.825236 7.645630 0.028651
v 0.820831 7.653628 0.028264
v 0.837099 7.644219 0.026316
v 0.826320 7.644793 0.025877
v 0.820969 7.657195 0.025287
v 0.843826 7.652951 0.023909
v 0.827163 7.644288 0.023089
v 0.820891 7.652718 0.022643
v 0.836104 7.665745 0.021672
v 0.821724 7.657205 0.035779
v 0.834105 7.665566 0.034940
v 0.841853 7.661444 0.034593
v 0.843020 7.654441 0.034329
v 0.842234 7.648976 0.034111
v 0.839740 7.645937 0.033973
v 0.829150 7.644558 0.033523
v 0.822083 7.651447 0.033073
v 0.821639 7.657077 0.032829
v 0.840704 7.661854 0.031808
v 0.838318 7.645762 0.031096
v 0.826773 7.665048 0.029594
v 0.831733 7.666344 0.029381
v 0.843150 7.655354 0.028711
v 0.824476 7.646211 0.027671
v 0.820810 7.655923 0.027228
v 0.827133 7.664285 0.026769
v 0.832482 7.666358 0.026524
v 0.837063 7.665174 0.026342
v 0.838808 7.664377 0.026277
v 0.838854 7.663480 0.026258
v 0.842605 7.658213 0.025990
v 0.840465 7.647768 0.026042
v 0.826282 7.644835 0.024938
v 0.825699 7.663321 0.024013
v 0.833802 7.665555 0.023642
v 0.841404 7.662071 0.023315
v 0.842627 7.649332 0.022822
v 0.833856 7.643214 0.022411
v 0.821715 7.650305 0.021761
v 0.827289 7.645251 0.022134
v 0.832769 7.643949 0.022367
v 0.838473 7.645918 0.022622
v 0.841913 7.649877 0.022827
v 0.843154 7.655740 0.023071
v 0.840150 7.662396 0.023360
v 0.828972 7.664988 0.023856
v 0.822355 7.659107 0.024247
v 0.821568 7.653519 0.024502
v 0.823429 7.648637 0.024731
v 0.826908 7.645517 0.025343
v 0.829901 7.644312 0.025072
v 0.836482 7.644629 0.025357
v 0.842854 7.652444 0.025767
v 0.831663 7.665552 0.027083
v 0.823679 7.661251 0.026961
v 0.821500 7.656136 0.027218
v 0.822892 7.649343 0.027517
v 0.828584 7.644532 0.027848
v 0.834501 7.644289 0.028096
v 0.840433 7.647757 0.028376
v 0.842255 7.650796 0.028521
v 0.841835 7.659748 0.028885
v 0.839845 7.662485 0.029025
v 0.835734 7.665080 0.029220
v 0.829453 7.665314 0.029486
v 0.821504 7.654945 0.030097
v 0.822558 7.650207 0.030304
v 0.826362 7.645692 0.030574
v 0.832535 7.644025 0.030838
v 0.842039 7.650179 0.031322
v 0.843120 7.655349 0.031538
v 0.836558 7.664648 0.032012
v 0.833916 7.665446 0.032120
v 0.829326 7.665216 0.032321
v 0.824690 7.662489 0.032548
v 0.824793 7.646999 0.033310
v 0.833460 7.644104 0.033707
v 0.838510 7.645963 0.033934
v 0.842188 7.650409 0.034160
v 0.842492 7.658483 0.034482
v 0.827816 7.664645 0.035218
v 0.823297 7.660936 0.035462
v 0.820361 7.653432 0.035840
v 0.821343 7.651017 0.035862
v 0.820340 7.656002 0.035833
v 0.820673 7.657805 0.035829
v 0.821033 7.658966 0.035826
v 0.821593 7.660261 0.035822
v 0.822422 7.661654 0.035819
v 0.823697 7.663218 0.035815
v 0.825027 7.662913 0.035816
v 0.825243 7.664540 0.035812
v 0.829745 7.665275 0.035810
v 0.826791 7.665501 0.035809
v 0.828291 7.666140 0.035808
v 0.829456 7.666487 0.035807
v 0.830648 7.666715 0.035807
v 0.832259 7.666838 0.035806
v 0.834082 7.666701 0.035807
v 0.835666 7.666354 0.035808
v 0.837371 7.665718 0.035810
v 0.838958 7.664823 0.035812
v 0.840244 7.663836 0.035815
v 0.841386 7.662685 0.035818
v 0.842474 7.661225 0.035822
v 0.820956 7.650867 0.035846
v 0.821825 7.648973 0.035851
v 0.822711 7.647618 0.035855
v 0.824202 7.645953 0.035859
v 0.825990 7.644629 0.035863
v 0.827424 7.643872 0.035865
v 0.829144 7.643255 0.035867
v 0.830716 7.642947 0.035867
v 0.832142 7.642838 0.035868
v 0.833968 7.642948 0.035868
v 0.835946 7.643397 0.035867
v 0.837630 7.644082 0.035865
v 0.838467 7.644547 0.035864
v 0.839701 7.645369 0.035862
v 0.841032 7.646601 0.035859
v 0.842074 7.647851 0.035856
v 0.842914 7.649224 0.035852
v 0.843244 7.649909 0.035851
v 0.843574 7.650704 0.035849
v 0.843935 7.651865 0.035846
v 0.844267 7.653669 0.035841
v 0.844291 7.655478 0.035836
v 0.844068 7.657301 0.035832
v 0.843405 7.659425 0.035826
v 0.834634 7.665398 0.035823
v 0.830830 7.644149 0.023224
v 0.835152 7.644404 0.023412
v 0.842713 7.651325 0.023836
v 0.821728 7.652684 0.025477
v 0.823222 7.647715 0.025699
v 0.823485 7.660959 0.027916
v 0.822402 7.650422 0.028405
v 0.833677 7.644126 0.029002
v 0.842923 7.652712 0.029547
v 0.842736 7.657434 0.029728
v 0.830397 7.643448 0.031695
v 0.834518 7.643485 0.031862
v 0.838827 7.646123 0.032060
v 0.842156 7.659490 0.032634
v 0.838147 7.663898 0.032884
v 0.832517 7.665697 0.033118
v 0.823626 7.661201 0.033560
v 0.830134 7.644330 0.034505
v 0.833808 7.644169 0.034662
v 0.839406 7.662957 0.035166
v 0.841917 7.659646 0.035473
v 0.842926 7.656432 0.035345
v 0.842959 7.653657 0.035238
v 0.841775 7.649176 0.035047
v 0.838582 7.646016 0.034878
v 0.826344 7.645823 0.034338
v 0.823068 7.649292 0.034119
v 0.821348 7.655361 0.033847
v 0.826942 7.664180 0.033375
v 0.843027 7.654172 0.032432
v 0.842168 7.650509 0.032279
v 0.833284 7.644081 0.031812
v 0.828843 7.644646 0.031624
v 0.824890 7.646966 0.031427
v 0.822428 7.650585 0.031227
v 0.821500 7.654815 0.031044
v 0.822624 7.659554 0.030305
v 0.824806 7.662512 0.029952
v 0.833494 7.665636 0.030250
v 0.827761 7.664605 0.030507
v 0.838228 7.663768 0.030052
v 0.841048 7.661122 0.029889
v 0.840361 7.647586 0.029311
v 0.837465 7.645412 0.028699
v 0.828456 7.644701 0.028782
v 0.824945 7.647017 0.028600
v 0.821571 7.656398 0.028142
v 0.826917 7.664192 0.027720
v 0.837274 7.664454 0.027269
v 0.841417 7.660584 0.027034
v 0.843101 7.655612 0.026834
v 0.840963 7.647273 0.026490
v 0.835635 7.644473 0.026261
v 0.830521 7.644213 0.026038
v 0.824235 7.647607 0.025730
v 0.821820 7.657288 0.025275
v 0.823282 7.660612 0.025107
v 0.825840 7.663431 0.024947
v 0.831729 7.665714 0.024669
v 0.839319 7.663213 0.024348
v 0.842657 7.657808 0.024088
v 0.839000 7.646384 0.023590
v 0.825714 7.646124 0.022998
v 0.821687 7.652252 0.022668
v 0.821953 7.657654 0.022427
v 0.819589 7.651644 0.098043
v 0.820350 7.649635 0.093339
v 0.820351 7.649594 0.079202
v 0.819598 7.651565 0.079197
v 0.821306 7.647880 0.093345
v 0.822594 7.646208 0.093348
v 0.822555 7.646146 0.079211
v 0.821308 7.647840 0.079207
v 0.823786 7.644913 0.098092
v 0.824047 7.644835 0.093351
v 0.825728 7.643514 0.093356
v 0.825773 7.643579 0.079218
v 0.824045 7.644791 0.079215
v 0.829613 7.642121 0.079222
v 0.827594 7.642740 0.079220
v 0.833782 7.641991 0.098101
v 0.833716 7.641943 0.079223
v 0.831604 7.641862 0.079223
v 0.835680 7.642355 0.093359
v 0.837669 7.643062 0.093357
v 0.837679 7.642976 0.079220
v 0.835681 7.642314 0.079222
v 0.839426 7.644018 0.093355
v 0.841099 7.645305 0.093350
v 0.841129 7.645226 0.079215
v 0.839427 7.643978 0.079218
v 0.842422 7.646539 0.098084
v 0.842474 7.646756 0.093348
v 0.843667 7.648496 0.093346
v 0.843702 7.648424 0.079207
v 0.842475 7.646715 0.079211
v 0.844452 7.650128 0.098052
v 0.844526 7.650301 0.093339
v 0.845166 7.652264 0.079197
v 0.844527 7.650260 0.079202
v 0.845437 7.654223 0.098059
v 0.845324 7.656374 0.079187
v 0.845428 7.654267 0.079192
v 0.844996 7.658301 0.098059
v 0.844298 7.660334 0.079177
v 0.844957 7.658338 0.079182
v 0.843399 7.661966 0.098021
v 0.843291 7.662121 0.093309
v 0.842004 7.663793 0.093303
v 0.842008 7.663755 0.079168
v 0.843315 7.662096 0.079172
v 0.838842 7.666352 0.079161
v 0.840552 7.665126 0.079164
v 0.837239 7.667253 0.098030
v 0.837050 7.667316 0.093290
v 0.834996 7.667953 0.093293
v 0.834999 7.667814 0.079157
v 0.837004 7.667176 0.079158
v 0.830884 7.668013 0.093293
v 0.830885 7.667972 0.079156
v 0.832994 7.668077 0.079156
v 0.828972 7.667720 0.098032
v 0.826928 7.666939 0.093292
v 0.826921 7.666944 0.079158
v 0.828919 7.667605 0.079157
v 0.825172 7.665983 0.093297
v 0.823499 7.664697 0.093300
v 0.823497 7.664660 0.079164
v 0.825158 7.665966 0.079161
v 0.820898 7.661496 0.079172
v 0.822125 7.663205 0.079168
v 0.820099 7.659809 0.098035
v 0.819450 7.657645 0.079182
v 0.820069 7.659662 0.079176
v 0.819206 7.655808 0.098046
v 0.819276 7.653546 0.079192
v 0.819172 7.655653 0.079187
f 2 1 238
f 91 3 4
f 4 3 902
f 6 4 902
f 4 6 5
f 5 6 7
f 7 6 8
f 7 8 9
f 9 8 905
f 9 905 10
f 9 10 11
f 11 10 1
f 11 1 12
f 12 1 836
f 12 836 15
f 12 15 13
f 13 15 14
f 16 13 14
f 13 16 17
f 17 16 19
f 19 16 18
f 19 18 20
f 20 18 844
f 20 844 21
f 20 21 22
f 22 21 23
f 22 23 24
f 24 23 26
f 24 26 25
f 25 26 27
f 27 26 29
f 27 29 28
f 27 28 30
f 30 28 32
f 30 32 31
f 31 32 33
f 33 32 851
f 33 851 34
f 36 35 34
f 34 35 33
f 35 36 38
f 38 36 37
f 38 37 43
f 38 43 39
f 39 43 40
f 40 43 41
f 40 41 42
f 42 41 44
f 42 44 862
f 42 862 46
f 46 862 45
f 46 45 48
f 48 45 47
f 48 47 50
f 48 50 49
f 49 50 867
f 47 51 50
f 52 53 867
f 867 53 49
f 53 52 54
f 54 52 55
f 54 55 56
f 56 55 871
f 56 871 57
f 57 871 59
f 59 871 58
f 59 58 874
f 59 874 60
f 59 60 61
f 61 60 62
f 61 62 63
f 63 62 877
f 64 63 877
f 63 64 65
f 65 64 66
f 65 66 67
f 67 66 68
f 67 68 69
f 69 68 70
f 69 70 884
f 69 884 71
f 71 884 72
f 71 72 73
f 73 72 75
f 73 75 74
f 73 74 76
f 76 74 77
f 76 77 78
f 78 77 79
f 78 79 892
f 78 892 80
f 81 80 892
f 80 81 82
f 82 81 83
f 82 83 85
f 85 83 84
f 85 84 86
f 85 86 87
f 87 86 88
f 88 86 89
f 88 89 90
f 88 90 91
f 91 90 3
f 3 92 93
f 96 94 95
f 96 97 94
f 94 97 98
f 94 98 99
f 98 97 101
f 101 97 100
f 101 100 102
f 101 102 104
f 100 103 102
f 101 104 105
f 101 105 106
f 508 107 105
f 105 107 106
f 108 107 109
f 108 109 110
f 110 109 111
f 111 109 112
f 111 112 113
f 113 112 114
f 113 114 116
f 112 115 114
f 113 116 117
f 117 116 119
f 117 119 118
f 424 120 119
f 119 120 118
f 120 121 118
f 118 121 122
f 122 121 123
f 122 123 124
f 121 126 123
f 123 126 125
f 125 126 127
f 125 127 130
f 130 127 129
f 127 128 129
f 130 129 131
f 130 131 132
f 132 131 134
f 132 134 133
f 134 135 133
f 133 135 136
f 133 136 137
f 137 136 138
f 137 138 139
f 139 138 141
f 139 141 140
f 140 141 142
f 140 142 145
f 145 142 143
f 142 144 143
f 145 143 147
f 145 147 146
f 146 147 148
f 148 147 149
f 148 149 150
f 500 151 149
f 149 151 150
f 150 151 153
f 153 151 152
f 151 155 152
f 152 155 154
f 154 155 156
f 154 156 157
f 157 156 159
f 157 159 158
f 158 159 161
f 158 161 160
f 160 161 162
f 162 161 163
f 162 163 164
f 164 163 165
f 165 163 166
f 165 166 167
f 167 166 168
f 167 168 169
f 169 168 170
f 169 170 171
f 171 170 175
f 175 170 174
f 156 499 159
f 163 172 166
f 170 173 174
f 175 174 176
f 175 176 177
f 177 176 179
f 177 179 178
f 176 180 179
f 181 182 180
f 180 182 179
f 179 182 183
f 183 182 184
f 183 184 185
f 185 184 187
f 185 187 186
f 186 187 188
f 188 187 189
f 188 189 190
f 190 189 191
f 190 191 192
f 190 192 194
f 194 192 193
f 194 193 195
f 195 193 196
f 196 193 197
f 196 197 198
f 198 197 199
f 198 199 200
f 198 200 201
f 201 200 202
f 201 202 203
f 203 202 204
f 203 204 93
f 93 204 205
f 205 204 206
f 205 206 207
f 207 206 208
f 206 209 208
f 212 213 208
f 208 213 210
f 208 210 207
f 207 210 211
f 213 212 214
f 215 216 214
f 214 216 217
f 214 217 213
f 216 219 217
f 217 219 218
f 218 219 220
f 220 219 221
f 221 219 222
f 221 222 224
f 224 222 223
f 224 223 225
f 225 223 228
f 225 228 226
f 226 228 227
f 226 227 229
f 229 227 230
f 229 230 231
f 229 231 232
f 232 231 233
f 233 231 234
f 233 235 232
f 232 235 236
f 236 235 237
f 237 235 238
f 238 235 394
f 237 239 236
f 220 240 218
f 93 92 203
f 171 241 169
f 158 242 157
f 146 886 145
f 885 137 139
f 132 243 130
f 117 118 244
f 111 245 110
f 246 106 108
f 108 106 107
f 58 247 95
f 58 95 874
f 874 95 94
f 248 247 58
f 96 95 247
f 96 247 249
f 247 248 249
f 96 249 250
f 250 249 251
f 250 251 252
f 252 251 253
f 253 251 255
f 255 251 254
f 255 254 256
f 255 256 257
f 257 256 258
f 257 258 259
f 259 258 260
f 259 260 262
f 259 262 261
f 262 263 261
f 259 261 264
f 264 261 265
f 264 265 267
f 264 267 266
f 267 265 268
f 268 265 272
f 272 265 269
f 272 269 271
f 271 269 270
f 272 271 273
f 272 273 274
f 271 276 273
f 273 276 275
f 275 276 277
f 275 277 278
f 275 278 279
f 275 279 280
f 280 279 281
f 280 281 282
f 282 281 283
f 282 283 284
f 284 283 285
f 285 283 286
f 285 286 288
f 288 286 287
f 288 287 289
f 288 289 291
f 291 289 290
f 291 290 292
f 292 290 293
f 293 290 294
f 293 294 295
f 295 294 296
f 295 296 297
f 297 296 298
f 297 298 299
f 297 299 300
f 300 299 301
f 300 301 302
f 302 301 303
f 302 303 304
f 304 303 305
f 303 306 305
f 304 305 307
f 307 305 308
f 307 308 309
f 309 308 311
f 311 308 310
f 308 313 310
f 310 313 312
f 314 315 313
f 313 315 312
f 312 315 316
f 316 315 317
f 316 317 318
f 318 317 319
f 318 319 321
f 321 319 320
f 321 320 322
f 321 322 323
f 323 322 324
f 323 324 325
f 323 325 326
f 326 325 327
f 326 327 328
f 328 327 329
f 328 329 330
f 330 329 331
f 330 331 332
f 332 331 333
f 325 334 327
f 331 335 333
f 332 333 336
f 336 333 337
f 336 337 338
f 338 337 339
f 338 339 340
f 341 342 339
f 339 342 340
f 340 342 474
f 474 342 343
f 474 343 344
f 342 346 343
f 343 346 345
f 345 346 347
f 345 347 348
f 348 347 349
f 347 350 349
f 348 349 351
f 351 349 352
f 351 352 353
f 353 352 354
f 354 352 355
f 354 355 356
f 846 358 355
f 355 358 356
f 356 358 357
f 361 359 358
f 358 359 357
f 359 361 360
f 360 361 362
f 360 362 363
f 363 362 365
f 363 365 366
f 362 364 365
f 363 366 367
f 367 366 368
f 367 368 396
f 396 368 369
f 396 369 370
f 370 369 371
f 370 371 372
f 372 371 373
f 372 373 374
f 368 375 369
f 371 376 373
f 373 376 378
f 378 376 379
f 379 376 377
f 378 379 380
f 378 380 381
f 381 380 382
f 381 382 383
f 384 385 382
f 382 385 383
f 386 387 385
f 387 386 388
f 388 386 389
f 389 386 390
f 389 390 391
f 386 392 390
f 390 392 394
f 394 392 2
f 2 392 393
f 394 2 238
f 395 383 387
f 387 383 385
f 367 396 466
f 359 397 357
f 338 398 336
f 328 399 326
f 321 400 318
f 304 401 302
f 257 427 255
f 252 402 250
f 100 97 403
f 403 97 96
f 403 96 250
f 403 250 404
f 405 103 403
f 403 103 100
f 426 407 406
f 406 407 404
f 404 407 403
f 403 407 405
f 405 407 425
f 413 412 451
f 451 412 408
f 408 412 409
f 409 412 410
f 409 410 456
f 456 410 458
f 458 410 446
f 458 446 411
f 412 413 416
f 416 413 414
f 416 414 415
f 416 415 417
f 416 417 418
f 418 417 419
f 418 419 420
f 420 419 172
f 420 172 499
f 420 499 421
f 420 421 502
f 420 502 649
f 649 502 422
f 649 422 423
f 649 423 516
f 516 423 424
f 516 424 507
f 516 507 508
f 516 508 425
f 516 425 515
f 515 425 407
f 515 407 426
f 515 426 427
f 515 427 429
f 515 429 428
f 428 429 430
f 428 430 431
f 428 431 485
f 428 485 432
f 428 432 434
f 434 432 433
f 434 433 401
f 434 401 480
f 434 480 435
f 434 435 438
f 438 435 436
f 438 436 399
f 438 399 437
f 438 437 439
f 438 439 512
f 512 439 440
f 512 440 441
f 512 441 511
f 511 441 471
f 511 471 469
f 511 469 442
f 511 442 466
f 511 466 679
f 679 466 443
f 679 443 444
f 679 444 445
f 679 445 446
f 446 445 411
f 414 413 447
f 447 413 448
f 448 413 449
f 449 413 450
f 450 413 451
f 447 199 197
f 447 197 414
f 199 447 200
f 200 447 448
f 450 206 449
f 449 206 204
f 449 204 202
f 449 202 448
f 448 202 200
f 451 209 450
f 450 209 206
f 209 451 208
f 208 451 408
f 208 408 212
f 212 408 214
f 452 215 214
f 452 214 408
f 215 452 216
f 216 452 453
f 454 223 455
f 455 223 222
f 455 222 219
f 455 219 453
f 453 219 216
f 456 228 454
f 454 228 223
f 408 409 452
f 452 409 453
f 453 409 455
f 455 409 456
f 456 454 455
f 228 456 227
f 227 456 230
f 230 456 458
f 230 458 231
f 457 234 231
f 457 231 458
f 234 457 233
f 233 457 459
f 390 394 460
f 460 394 235
f 460 235 459
f 459 235 233
f 461 391 460
f 460 391 390
f 461 460 411
f 461 411 445
f 391 461 389
f 389 461 445
f 389 445 388
f 388 445 387
f 395 387 462
f 462 387 445
f 395 462 383
f 383 462 463
f 464 373 378
f 464 378 381
f 464 381 463
f 463 381 383
f 465 374 464
f 464 374 373
f 445 444 462
f 462 444 463
f 463 444 464
f 464 444 465
f 465 444 443
f 374 465 443
f 374 443 372
f 372 443 370
f 370 443 466
f 370 466 396
f 367 466 468
f 359 360 467
f 467 360 363
f 467 363 468
f 468 363 367
f 470 397 467
f 467 397 359
f 466 442 468
f 468 442 467
f 467 442 470
f 470 442 469
f 397 470 357
f 357 470 469
f 357 469 356
f 356 469 471
f 356 471 354
f 353 354 471
f 353 471 351
f 351 471 472
f 473 343 345
f 473 345 348
f 473 348 472
f 472 348 351
f 440 344 473
f 473 344 343
f 471 441 472
f 472 441 473
f 473 441 440
f 344 440 474
f 474 440 340
f 340 440 439
f 340 439 338
f 398 338 475
f 475 338 439
f 398 475 336
f 336 475 476
f 328 330 477
f 477 330 476
f 476 330 332
f 476 332 336
f 477 399 328
f 439 437 475
f 475 437 476
f 476 437 477
f 477 437 399
f 326 399 323
f 323 399 436
f 323 436 321
f 400 321 436
f 400 436 318
f 318 436 478
f 310 312 479
f 479 312 478
f 478 312 316
f 478 316 318
f 480 311 479
f 479 311 310
f 436 435 478
f 478 435 479
f 479 435 480
f 311 480 309
f 309 480 307
f 307 480 401
f 307 401 304
f 302 401 481
f 293 295 482
f 482 295 297
f 482 297 483
f 483 297 300
f 483 300 302
f 483 302 481
f 484 292 482
f 482 292 293
f 401 433 481
f 481 433 483
f 483 433 484
f 484 433 432
f 484 482 483
f 432 291 484
f 484 291 292
f 291 432 288
f 288 432 285
f 285 432 485
f 485 284 285
f 284 485 282
f 282 485 486
f 487 273 488
f 488 273 275
f 488 275 280
f 488 280 486
f 486 280 282
f 489 274 487
f 487 274 273
f 485 431 486
f 486 431 488
f 488 431 489
f 489 431 430
f 489 487 488
f 274 489 272
f 272 489 430
f 272 430 268
f 268 430 267
f 490 266 267
f 490 267 430
f 266 490 264
f 264 490 492
f 491 257 259
f 491 259 492
f 492 259 264
f 491 427 257
f 430 429 490
f 490 429 492
f 492 429 491
f 491 429 427
f 255 427 253
f 253 427 426
f 253 426 252
f 406 402 252
f 406 252 426
f 402 406 250
f 250 406 404
f 411 460 459
f 411 459 457
f 411 457 458
f 192 414 193
f 193 414 197
f 414 192 493
f 493 192 191
f 417 415 494
f 494 415 495
f 495 415 496
f 496 415 493
f 493 415 414
f 181 180 494
f 494 180 417
f 181 494 182
f 182 494 495
f 189 187 496
f 496 187 184
f 496 184 182
f 496 182 495
f 493 191 496
f 496 191 189
f 174 419 176
f 176 419 417
f 176 417 180
f 173 419 174
f 172 419 497
f 497 419 498
f 166 172 497
f 498 170 168
f 498 168 497
f 497 168 166
f 419 173 498
f 498 173 170
f 159 499 161
f 161 499 172
f 161 172 163
f 500 421 501
f 501 421 499
f 500 149 421
f 156 155 501
f 501 155 500
f 500 155 151
f 501 499 156
f 143 502 147
f 147 502 421
f 147 421 149
f 144 504 502
f 144 502 143
f 422 502 503
f 503 502 504
f 135 134 422
f 135 422 136
f 136 422 503
f 504 142 141
f 504 141 138
f 504 138 503
f 503 138 136
f 504 144 142
f 129 423 131
f 131 423 422
f 131 422 134
f 128 423 129
f 424 423 505
f 505 423 506
f 120 424 505
f 127 126 506
f 506 126 505
f 505 126 121
f 505 121 120
f 423 128 506
f 506 128 127
f 114 507 116
f 116 507 424
f 116 424 119
f 115 510 507
f 115 507 114
f 508 507 509
f 509 507 510
f 107 508 509
f 112 109 510
f 510 109 107
f 510 107 509
f 510 115 112
f 102 425 104
f 104 425 508
f 104 508 105
f 103 405 425
f 103 425 102
f 512 678 438
f 438 678 513
f 438 513 434
f 434 513 677
f 434 677 428
f 515 428 514
f 677 514 428
f 515 514 516
f 516 514 676
f 517 516 676
f 649 517 519
f 649 519 518
f 521 522 523
f 522 525 523
f 523 525 524
f 521 520 522
f 524 526 528
f 524 528 648
f 648 528 529
f 648 529 527
f 529 673 527
f 527 673 647
f 647 673 531
f 647 531 530
f 532 530 531
f 530 532 533
f 532 534 533
f 533 534 535
f 535 534 646
f 534 536 646
f 646 536 539
f 646 539 537
f 537 539 538
f 537 538 540
f 540 538 541
f 541 538 669
f 541 669 668
f 541 668 542
f 668 667 542
f 542 667 543
f 543 667 544
f 545 544 546
f 547 548 645
f 548 665 645
f 645 665 549
f 549 665 550
f 775 550 664
f 775 664 644
f 644 551 552
f 552 551 553
f 553 554 643
f 643 554 822
f 822 554 555
f 554 556 555
f 557 560 558
f 556 560 557
f 558 560 559
f 559 560 561
f 559 561 562
f 563 662 562
f 564 662 661
f 564 661 565
f 565 661 566
f 566 661 567
f 569 570 642
f 570 572 571
f 641 572 574
f 641 574 573
f 575 573 574
f 575 576 577
f 577 578 579
f 579 578 580
f 577 576 578
f 580 581 640
f 639 582 638
f 583 584 638
f 584 583 585
f 584 585 588
f 585 586 588
f 586 587 588
f 589 587 591
f 589 591 590
f 590 591 593
f 593 594 592
f 592 594 596
f 596 594 595
f 596 595 637
f 598 599 781
f 782 599 600
f 600 655 601
f 654 601 655
f 602 654 603
f 601 654 602
f 603 604 602
f 604 606 605
f 605 606 652
f 605 652 635
f 635 607 608
f 608 609 610
f 610 609 611
f 611 612 610
f 611 613 612
f 612 613 616
f 616 613 614
f 614 615 616
f 616 615 617
f 617 615 618
f 633 724 619
f 632 622 623
f 619 621 620
f 623 622 625
f 623 625 624
f 624 625 626
f 624 626 794
f 794 626 627
f 627 626 628
f 627 628 630
f 630 628 629
f 630 629 631
f 622 632 621
f 632 620 621
f 619 620 633
f 633 634 724
f 724 634 618
f 618 634 617
f 609 608 607
f 607 635 652
f 606 604 603
f 601 782 600
f 599 782 781
f 781 636 598
f 598 636 597
f 636 637 597
f 597 637 595
f 592 590 593
f 589 588 587
f 583 638 582
f 582 639 581
f 581 639 640
f 580 640 579
f 577 573 575
f 572 641 571
f 570 571 642
f 570 569 568
f 568 569 566
f 568 566 567
f 662 564 562
f 563 562 561
f 556 557 555
f 553 643 552
f 551 644 664
f 775 549 550
f 548 547 546
f 546 547 545
f 544 545 543
f 526 524 525
f 520 521 518
f 520 518 519
f 517 649 516
f 650 724 618
f 615 614 722
f 614 613 722
f 651 611 609
f 609 607 651
f 651 607 790
f 606 603 653
f 654 655 718
f 655 600 599
f 656 599 598
f 595 594 657
f 657 594 658
f 658 594 593
f 658 593 715
f 587 586 714
f 585 583 586
f 586 583 712
f 580 578 660
f 568 567 807
f 807 567 808
f 567 661 808
f 704 662 563
f 560 556 663
f 554 553 700
f 700 553 814
f 699 553 551
f 551 664 698
f 664 550 697
f 550 665 696
f 665 548 696
f 666 546 544
f 669 538 670
f 539 536 671
f 536 534 693
f 693 534 672
f 691 531 673
f 674 522 520
f 520 519 686
f 686 519 675
f 519 517 675
f 517 676 685
f 682 513 678
f 511 679 680
f 511 680 512
f 512 680 678
f 680 681 678
f 678 681 682
f 513 682 677
f 677 682 683
f 683 514 677
f 683 684 514
f 684 676 514
f 676 684 685
f 517 685 675
f 686 675 829
f 520 686 674
f 674 687 522
f 522 687 525
f 525 687 526
f 526 687 688
f 526 688 528
f 688 689 528
f 528 689 529
f 689 673 529
f 673 689 690
f 673 690 691
f 531 691 692
f 531 692 532
f 532 692 534
f 534 692 672
f 536 693 671
f 539 671 538
f 538 671 670
f 669 670 668
f 667 668 694
f 667 694 544
f 544 694 666
f 546 666 695
f 546 695 696
f 546 696 548
f 696 697 550
f 664 697 698
f 551 698 699
f 699 814 553
f 700 701 554
f 554 701 556
f 701 663 556
f 560 663 702
f 560 702 561
f 702 703 561
f 561 703 563
f 563 703 704
f 704 705 662
f 662 705 661
f 661 705 808
f 807 706 568
f 568 706 570
f 570 706 707
f 570 707 572
f 572 707 708
f 572 708 574
f 574 708 575
f 708 709 575
f 575 709 660
f 660 576 575
f 576 660 578
f 580 660 710
f 580 710 581
f 581 710 711
f 581 711 582
f 711 659 582
f 582 659 583
f 583 659 712
f 713 586 712
f 713 714 586
f 587 714 715
f 587 715 591
f 591 715 593
f 716 597 595
f 716 595 657
f 597 716 598
f 598 716 656
f 599 656 717
f 599 717 655
f 655 717 718
f 654 718 719
f 654 719 603
f 603 719 653
f 606 653 720
f 606 720 652
f 652 720 790
f 652 790 607
f 611 651 721
f 721 651 733
f 611 721 613
f 613 721 722
f 722 650 615
f 615 650 618
f 723 724 725
f 725 724 726
f 726 724 650
f 726 650 727
f 727 650 728
f 728 650 731
f 728 731 729
f 729 731 730
f 730 731 732
f 732 731 734
f 734 731 733
f 734 733 735
f 735 733 736
f 736 733 737
f 737 733 738
f 738 733 770
f 738 770 739
f 739 770 740
f 740 770 631
f 740 631 741
f 741 631 742
f 742 631 743
f 743 631 744
f 744 631 745
f 745 631 629
f 746 724 723
f 724 746 747
f 724 747 748
f 724 748 619
f 619 748 749
f 619 749 750
f 619 750 621
f 621 750 751
f 621 751 752
f 621 752 753
f 621 753 754
f 621 754 622
f 622 754 755
f 622 755 756
f 622 756 757
f 622 757 625
f 625 757 758
f 625 758 759
f 625 759 760
f 625 760 761
f 625 761 626
f 626 761 762
f 626 762 763
f 626 763 628
f 628 763 764
f 628 764 765
f 628 765 766
f 628 766 767
f 628 767 629
f 629 767 768
f 629 768 769
f 629 769 745
f 59 768 767
f 59 767 57
f 57 767 766
f 57 766 56
f 56 766 765
f 56 765 54
f 54 765 764
f 54 764 53
f 53 764 763
f 53 763 49
f 49 763 762
f 49 762 48
f 48 762 761
f 48 761 46
f 46 761 760
f 46 760 42
f 42 760 759
f 42 759 40
f 40 759 758
f 40 758 39
f 39 758 757
f 39 757 38
f 38 757 756
f 38 756 35
f 35 756 755
f 35 755 33
f 33 755 31
f 31 755 754
f 31 754 30
f 30 754 753
f 30 753 27
f 27 753 752
f 27 752 25
f 25 752 24
f 24 752 751
f 24 751 750
f 24 750 22
f 22 750 20
f 20 750 749
f 20 749 19
f 19 749 748
f 19 748 17
f 17 748 13
f 13 748 747
f 13 747 746
f 13 746 12
f 12 746 11
f 11 746 723
f 11 723 725
f 11 725 9
f 9 725 7
f 7 725 726
f 7 726 5
f 5 726 727
f 5 727 4
f 4 727 728
f 4 728 91
f 91 728 729
f 91 729 730
f 91 730 88
f 88 730 87
f 87 730 732
f 87 732 85
f 85 732 734
f 85 734 82
f 82 734 735
f 82 735 80
f 80 735 736
f 80 736 737
f 80 737 78
f 78 737 738
f 78 738 76
f 76 738 739
f 76 739 73
f 73 739 740
f 73 740 71
f 71 740 741
f 71 741 69
f 69 741 742
f 69 742 67
f 67 742 743
f 67 743 744
f 67 744 65
f 65 744 745
f 65 745 63
f 63 745 769
f 63 769 61
f 61 769 768
f 61 768 59
f 420 518 418
f 418 521 416
f 420 649 518
f 418 518 521
f 523 835 416
f 835 523 524
f 647 530 771
f 530 533 772
f 772 533 832
f 832 533 535
f 832 535 773
f 535 646 773
f 773 646 831
f 537 540 830
f 830 540 541
f 542 543 829
f 645 549 826
f 826 549 774
f 775 644 825
f 825 644 690
f 690 644 824
f 559 557 558
f 564 565 818
f 566 817 776
f 817 566 569
f 642 571 777
f 777 571 641
f 777 641 816
f 573 577 778
f 577 579 813
f 579 640 813
f 813 640 779
f 779 640 780
f 639 638 780
f 780 638 812
f 584 588 811
f 811 588 809
f 588 589 810
f 807 592 806
f 806 592 596
f 596 637 806
f 806 637 805
f 803 636 781
f 802 782 783
f 782 601 783
f 602 604 801
f 604 605 784
f 784 605 635
f 784 635 785
f 785 635 608
f 785 608 786
f 608 610 786
f 786 610 799
f 612 616 799
f 799 616 787
f 787 616 798
f 616 617 798
f 620 632 788
f 788 632 789
f 789 632 623
f 627 630 792
f 631 770 790
f 631 790 791
f 631 791 630
f 630 791 792
f 792 793 627
f 627 793 794
f 794 795 624
f 624 795 623
f 623 795 789
f 788 796 620
f 620 796 633
f 633 796 797
f 633 797 634
f 634 797 798
f 634 798 617
f 612 799 610
f 604 784 800
f 800 784 711
f 604 800 801
f 602 801 601
f 601 801 783
f 782 802 781
f 781 802 803
f 636 803 804
f 636 804 637
f 637 804 805
f 592 807 590
f 807 808 590
f 590 808 589
f 808 810 589
f 588 810 809
f 584 811 638
f 638 811 812
f 639 780 640
f 813 814 577
f 814 778 577
f 573 778 815
f 573 815 641
f 641 815 816
f 642 777 817
f 642 817 569
f 566 776 818
f 566 818 565
f 564 818 694
f 694 819 564
f 564 819 562
f 562 819 559
f 559 819 820
f 559 820 821
f 559 821 557
f 557 821 555
f 555 821 822
f 822 672 823
f 822 823 643
f 643 823 552
f 552 823 824
f 552 824 644
f 775 825 774
f 774 825 689
f 775 774 549
f 826 827 645
f 645 827 547
f 547 827 828
f 547 828 545
f 828 829 545
f 545 829 543
f 542 829 830
f 542 830 541
f 537 830 831
f 537 831 646
f 530 772 771
f 647 771 833
f 647 833 527
f 833 834 527
f 527 834 648
f 648 834 524
f 524 834 835
f 523 416 521
f 412 416 835
f 412 835 410
f 410 835 834
f 410 834 446
f 446 834 833
f 446 833 679
f 679 833 680
f 680 833 771
f 680 771 681
f 681 771 772
f 681 772 682
f 682 772 832
f 682 832 773
f 682 773 683
f 683 773 684
f 684 773 831
f 684 831 685
f 685 831 830
f 685 830 675
f 675 830 829
f 686 829 828
f 686 828 674
f 674 828 827
f 674 827 687
f 687 827 826
f 687 826 688
f 688 826 774
f 688 774 689
f 689 825 690
f 691 690 824
f 691 824 692
f 692 824 823
f 692 823 672
f 672 822 693
f 693 822 821
f 693 821 671
f 671 821 820
f 671 820 670
f 670 820 819
f 670 819 668
f 668 819 694
f 694 818 666
f 666 818 695
f 695 818 776
f 695 776 696
f 696 776 817
f 696 817 777
f 696 777 697
f 697 777 816
f 697 816 698
f 698 816 815
f 698 815 778
f 698 778 699
f 699 778 814
f 814 813 700
f 700 813 701
f 701 813 779
f 701 779 663
f 663 779 780
f 663 780 702
f 702 780 812
f 702 812 703
f 703 812 811
f 703 811 704
f 704 811 809
f 704 809 705
f 705 809 810
f 705 810 808
f 706 807 806
f 706 806 707
f 707 806 805
f 707 805 804
f 707 804 708
f 708 804 803
f 708 803 709
f 709 803 802
f 709 802 660
f 660 802 783
f 660 783 710
f 710 783 801
f 710 801 711
f 711 801 800
f 711 784 659
f 659 784 785
f 659 785 712
f 712 785 786
f 712 786 713
f 713 786 714
f 714 786 799
f 714 799 715
f 715 799 787
f 715 787 658
f 658 787 798
f 658 798 657
f 657 798 797
f 657 797 716
f 716 797 796
f 716 796 656
f 656 796 788
f 656 788 717
f 717 788 789
f 717 789 718
f 718 789 795
f 718 795 719
f 719 795 794
f 719 794 793
f 719 793 653
f 653 793 792
f 653 792 720
f 720 792 791
f 720 791 790
f 651 790 770
f 651 770 733
f 721 733 731
f 721 731 722
f 722 731 650
f 1 2 836
f 836 2 393
f 15 836 837
f 837 836 839
f 837 839 838
f 384 382 837
f 837 382 15
f 384 837 385
f 385 837 838
f 839 392 386
f 839 386 838
f 838 386 385
f 836 393 839
f 839 393 392
f 15 382 14
f 14 382 380
f 14 380 379
f 14 379 840
f 840 379 377
f 18 16 841
f 841 16 842
f 842 16 843
f 843 16 840
f 840 16 14
f 841 375 18
f 18 375 368
f 18 368 844
f 375 841 369
f 369 841 842
f 843 376 842
f 842 376 371
f 842 371 369
f 840 377 843
f 843 377 376
f 368 366 844
f 844 366 365
f 844 365 364
f 844 364 845
f 23 21 846
f 846 21 847
f 847 21 848
f 848 21 845
f 845 21 844
f 846 355 23
f 358 846 847
f 362 361 848
f 848 361 847
f 847 361 358
f 845 364 848
f 848 364 362
f 355 352 23
f 23 352 26
f 26 352 349
f 26 349 350
f 29 26 849
f 849 26 850
f 341 339 29
f 341 29 342
f 342 29 849
f 347 346 850
f 850 346 849
f 849 346 342
f 26 350 850
f 850 350 347
f 29 339 28
f 28 339 337
f 28 337 333
f 28 333 335
f 851 32 852
f 852 32 853
f 853 32 335
f 335 32 28
f 334 325 851
f 334 851 327
f 327 851 852
f 331 329 853
f 853 329 852
f 852 329 327
f 853 335 331
f 325 324 851
f 851 324 34
f 34 324 322
f 34 322 320
f 34 320 854
f 37 36 855
f 855 36 856
f 856 36 857
f 857 36 854
f 854 36 34
f 314 313 855
f 855 313 37
f 314 855 315
f 315 855 856
f 319 317 857
f 857 317 856
f 856 317 315
f 854 320 857
f 857 320 319
f 313 308 37
f 37 308 43
f 43 308 305
f 43 305 858
f 858 305 306
f 44 41 859
f 859 41 860
f 860 41 858
f 858 41 43
f 858 861 860
f 859 298 296
f 859 296 44
f 299 298 860
f 860 298 859
f 861 303 860
f 860 303 301
f 860 301 299
f 858 306 861
f 861 306 303
f 296 294 44
f 44 294 862
f 862 294 290
f 862 290 289
f 862 289 863
f 863 289 287
f 47 45 864
f 864 45 865
f 865 45 866
f 866 45 863
f 863 45 862
f 864 278 277
f 864 277 47
f 47 277 51
f 278 864 279
f 279 864 865
f 286 283 866
f 866 283 865
f 865 283 281
f 865 281 279
f 863 287 866
f 866 287 286
f 277 276 51
f 51 276 50
f 50 276 271
f 50 271 867
f 867 271 868
f 868 271 270
f 55 52 869
f 869 52 870
f 870 52 868
f 868 52 867
f 263 262 55
f 263 55 261
f 261 55 869
f 269 265 870
f 870 265 869
f 869 265 261
f 868 270 870
f 870 270 269
f 262 260 55
f 55 260 871
f 871 260 258
f 871 258 256
f 58 871 872
f 872 871 873
f 249 248 872
f 872 248 58
f 254 251 873
f 873 251 872
f 872 251 249
f 871 256 873
f 873 256 254
f 874 94 99
f 875 60 874
f 874 876 875
f 246 108 60
f 60 108 62
f 246 60 106
f 106 60 875
f 98 101 876
f 876 101 875
f 875 101 106
f 874 99 876
f 876 99 98
f 62 108 110
f 62 110 877
f 877 110 245
f 877 245 878
f 66 64 879
f 879 64 880
f 880 64 881
f 881 64 878
f 878 64 877
f 244 118 879
f 879 118 66
f 244 879 117
f 117 879 880
f 881 111 113
f 881 113 880
f 880 113 117
f 878 245 881
f 881 245 111
f 66 118 122
f 66 122 68
f 68 122 124
f 70 68 882
f 882 68 883
f 243 132 70
f 243 70 130
f 130 70 882
f 123 125 883
f 883 125 882
f 882 125 130
f 68 124 883
f 883 124 123
f 70 132 884
f 884 132 133
f 884 133 137
f 884 137 885
f 75 72 886
f 886 72 887
f 887 72 888
f 888 72 885
f 885 72 884
f 886 146 75
f 145 886 887
f 139 140 888
f 888 140 887
f 887 140 145
f 888 885 139
f 146 148 75
f 75 148 74
f 74 148 150
f 74 150 153
f 79 77 889
f 889 77 890
f 890 77 891
f 891 77 74
f 242 158 889
f 889 158 79
f 157 242 890
f 890 242 889
f 152 154 891
f 891 154 890
f 890 154 157
f 74 153 891
f 891 153 152
f 158 160 79
f 79 160 892
f 892 160 162
f 892 162 164
f 83 81 893
f 893 81 894
f 894 81 895
f 895 81 892
f 241 171 893
f 893 171 83
f 83 171 84
f 241 893 169
f 169 893 894
f 165 167 895
f 895 167 894
f 894 167 169
f 895 892 165
f 165 892 164
f 171 175 84
f 84 175 177
f 84 177 896
f 896 177 178
f 89 86 897
f 897 86 898
f 898 86 899
f 899 86 896
f 896 86 84
f 897 186 188
f 897 188 89
f 186 897 185
f 185 897 898
f 899 179 183
f 899 183 898
f 185 898 183
f 896 178 899
f 899 178 179
f 89 188 90
f 90 188 190
f 90 190 194
f 90 194 195
f 900 3 90
f 900 90 901
f 92 3 203
f 203 3 900
f 196 198 901
f 901 198 900
f 900 198 201
f 900 201 203
f 90 195 901
f 901 195 196
f 93 205 3
f 3 205 902
f 902 205 207
f 902 207 211
f 8 6 903
f 903 6 904
f 904 6 902
f 8 240 220
f 240 8 218
f 218 8 903
f 210 213 904
f 904 213 903
f 903 213 217
f 903 217 218
f 902 211 904
f 904 211 210
f 220 221 8
f 8 221 905
f 905 221 224
f 905 224 225
f 906 10 907
f 907 10 905
f 10 239 237
f 236 239 906
f 906 239 10
f 226 229 907
f 907 229 232
f 907 232 906
f 906 232 236
f 905 225 907
f 907 225 226
f 238 1 237
f 237 1 10
