# USD → MuJoCo (world-space, simplified)
v 0.208561 7.239292 0.096820
v 0.210752 7.248378 0.098052
v 0.211546 7.247368 0.098024
v 0.210862 7.245673 0.098028
v 0.210398 7.243708 0.098033
v 0.209191 7.241654 0.098038
v 0.210297 7.241420 0.098039
v 0.210507 7.239763 0.098043
v 0.209278 7.240396 0.098071
v 0.209481 7.238812 0.098069
v 0.209589 7.238644 0.098043
v 0.210955 7.238048 0.098048
v 0.211592 7.236594 0.098051
v 0.210310 7.236393 0.098062
v 0.212593 7.233139 0.098058
v 0.212177 7.235557 0.098054
v 0.213395 7.233946 0.098058
v 0.215207 7.232317 0.098063
v 0.215776 7.230607 0.098064
v 0.215953 7.230533 0.098102
v 0.216776 7.231365 0.098065
v 0.218245 7.230715 0.098067
v 0.218594 7.229447 0.098070
v 0.219818 7.230279 0.098068
v 0.221206 7.230066 0.098069
v 0.219808 7.229085 0.098092
v 0.223755 7.228952 0.098065
v 0.222838 7.230028 0.098069
v 0.223936 7.228920 0.098095
v 0.225492 7.229278 0.098096
v 0.224842 7.230277 0.098068
v 0.226690 7.229671 0.098070
v 0.226595 7.230814 0.098067
v 0.228065 7.231484 0.098066
v 0.229433 7.232368 0.098063
v 0.230322 7.231654 0.098065
v 0.231297 7.232409 0.098093
v 0.232395 7.233565 0.098093
v 0.227928 7.230091 0.098107
v 0.230814 7.233538 0.098061
v 0.233113 7.234607 0.098058
v 0.231881 7.234795 0.098057
v 0.232666 7.235949 0.098055
v 0.234546 7.237072 0.098073
v 0.233790 7.235674 0.098091
v 0.234866 7.238280 0.098049
v 0.233309 7.237241 0.098051
v 0.233606 7.237995 0.098049
v 0.233956 7.239135 0.098046
v 0.235479 7.241050 0.098070
v 0.234238 7.240730 0.098042
v 0.234303 7.242348 0.098038
v 0.234119 7.244158 0.098034
v 0.235041 7.245203 0.098059
v 0.233590 7.246112 0.098029
v 0.234641 7.246435 0.098028
v 0.234232 7.247601 0.098046
v 0.232740 7.247951 0.098024
v 0.232691 7.250002 0.098019
v 0.231343 7.249936 0.098019
v 0.231925 7.251019 0.098044
v 0.229549 7.251585 0.098014
v 0.230656 7.252164 0.098012
v 0.228757 7.253412 0.098013
v 0.227661 7.252762 0.098011
v 0.226006 7.254580 0.098006
v 0.225193 7.253678 0.098009
v 0.222977 7.253994 0.098008
v 0.220785 7.255071 0.098012
v 0.221347 7.253974 0.098008
v 0.219946 7.253776 0.098008
v 0.217913 7.254360 0.098006
v 0.218769 7.253478 0.098009
v 0.217625 7.253062 0.098010
v 0.216731 7.253892 0.098042
v 0.216178 7.252343 0.098011
v 0.214529 7.251170 0.098014
v 0.213454 7.251741 0.098010
v 0.213300 7.251619 0.098043
v 0.212162 7.250357 0.098049
v 0.213235 7.249885 0.098017
v 0.211484 7.249423 0.098018
v 0.212370 7.248756 0.098020
v 0.210115 7.248892 0.093307
v 0.210930 7.248505 0.093309
v 0.210042 7.248773 0.096795
v 0.235879 7.245411 0.096805
v 0.235966 7.244916 0.035830
v 0.236036 7.244729 0.096808
v 0.235847 7.245505 0.079181
v 0.235729 7.245804 0.035828
v 0.235730 7.245777 0.026399
v 0.235692 7.245893 0.023323
v 0.235420 7.246707 0.023320
v 0.235430 7.246838 0.079178
v 0.235081 7.247520 0.023319
v 0.235042 7.247757 0.079176
v 0.235027 7.247648 0.026399
v 0.235026 7.247675 0.035823
v 0.234978 7.247942 0.096799
v 0.234588 7.248720 0.096798
v 0.234578 7.248580 0.035821
v 0.234163 7.249437 0.096795
v 0.234031 7.249476 0.035818
v 0.234085 7.249512 0.079171
v 0.233563 7.250154 0.035817
v 0.233483 7.250221 0.023312
v 0.233561 7.250125 0.026390
v 0.232961 7.250879 0.023309
v 0.233386 7.250523 0.079168
v 0.232625 7.251407 0.079166
v 0.232523 7.251573 0.096788
v 0.232352 7.251541 0.023309
v 0.232260 7.251643 0.026388
v 0.232259 7.251670 0.035813
v 0.231701 7.252210 0.035811
v 0.231299 7.252739 0.096794
v 0.231172 7.252781 0.079162
v 0.231171 7.252821 0.093298
v 0.230542 7.253273 0.079161
v 0.230716 7.253021 0.035809
v 0.230034 7.253498 0.035808
v 0.230035 7.253470 0.026383
v 0.229925 7.253540 0.023306
v 0.229203 7.254141 0.079159
v 0.229182 7.253983 0.023302
v 0.229067 7.254256 0.096782
v 0.228415 7.254389 0.023302
v 0.228497 7.254554 0.096783
v 0.228293 7.254452 0.026381
v 0.228292 7.254479 0.035805
v 0.227534 7.254989 0.096779
v 0.227727 7.254729 0.035805
v 0.227391 7.254990 0.079156
v 0.226430 7.255333 0.079155
v 0.226593 7.255159 0.035803
v 0.225576 7.255436 0.035803
v 0.225485 7.255581 0.079155
v 0.225449 7.255430 0.023298
v 0.225577 7.255409 0.026378
v 0.225095 7.255666 0.079155
v 0.224919 7.255764 0.096782
v 0.224590 7.255603 0.023295
v 0.223734 7.255714 0.023297
v 0.223683 7.255930 0.096778
v 0.223604 7.255736 0.026378
v 0.223603 7.255763 0.035802
v 0.223192 7.255795 0.035801
v 0.223258 7.255966 0.096777
v 0.223112 7.255924 0.079154
v 0.223111 7.255965 0.093290
v 0.221861 7.255953 0.079154
v 0.222002 7.255832 0.035801
v 0.220723 7.255734 0.035801
v 0.220719 7.255858 0.079154
v 0.220570 7.255892 0.096777
v 0.220594 7.255682 0.023297
v 0.219725 7.255764 0.096781
v 0.219735 7.255555 0.023297
v 0.218895 7.255579 0.096778
v 0.218885 7.255363 0.023298
v 0.218752 7.255532 0.093291
v 0.218753 7.255492 0.079155
v 0.218757 7.255367 0.035802
v 0.217652 7.255167 0.079155
v 0.217531 7.254998 0.035803
v 0.216498 7.254690 0.079156
v 0.216059 7.254358 0.035805
v 0.216358 7.254681 0.096780
v 0.215944 7.254261 0.023301
v 0.220890 7.254813 0.026379
v 0.218757 7.255340 0.026378
v 0.215437 7.254206 0.096782
v 0.215339 7.253935 0.023300
v 0.214865 7.253864 0.096782
v 0.214811 7.253615 0.023302
v 0.214740 7.253775 0.093298
v 0.214447 7.253377 0.023303
v 0.214740 7.253736 0.079159
v 0.214339 7.253312 0.026383
v 0.214338 7.253339 0.035807
v 0.213622 7.252946 0.079161
v 0.213490 7.252713 0.035809
v 0.212844 7.252276 0.079162
v 0.212587 7.251904 0.035811
v 0.212151 7.251467 0.035812
v 0.212129 7.251625 0.096788
v 0.212152 7.251440 0.026387
v 0.212062 7.251336 0.023308
v 0.211561 7.250993 0.096789
v 0.211636 7.250859 0.023307
v 0.211468 7.250865 0.093303
v 0.211470 7.250824 0.079166
v 0.211101 7.250352 0.079167
v 0.210957 7.250000 0.023313
v 0.210881 7.249896 0.026390
v 0.210881 7.249923 0.035816
v 0.210527 7.249537 0.079169
v 0.210419 7.249237 0.035817
v 0.210116 7.248851 0.079171
v 0.209795 7.248128 0.035820
v 0.209665 7.248049 0.096798
v 0.209466 7.247416 0.035822
v 0.209415 7.247261 0.023318
v 0.209467 7.247389 0.026396
v 0.209258 7.247046 0.079175
v 0.209257 7.247087 0.093316
v 0.209096 7.246450 0.023319
v 0.208837 7.245622 0.023322
v 0.208933 7.246144 0.079178
v 0.208797 7.245533 0.035827
v 0.208579 7.244753 0.079181
v 0.208442 7.243888 0.035831
v 0.208329 7.242693 0.035834
v 0.208327 7.242971 0.096809
v 0.208322 7.242812 0.093323
v 0.208323 7.242771 0.079186
v 0.208323 7.242527 0.023330
v 0.208330 7.242666 0.026414
v 0.208293 7.241789 0.079189
v 0.208301 7.241648 0.023330
v 0.208341 7.240789 0.023334
v 0.208349 7.240777 0.079191
v 0.208350 7.240695 0.035839
v 0.208350 7.240668 0.026412
v 0.208472 7.239611 0.035842
v 0.208389 7.240380 0.079192
v 0.208403 7.240283 0.096816
v 0.208538 7.244654 0.096811
v 0.208580 7.244793 0.093318
v 0.209311 7.247235 0.096799
v 0.212729 7.252228 0.096785
v 0.212843 7.252316 0.093299
v 0.216496 7.254731 0.093293
v 0.220718 7.255899 0.093290
v 0.225094 7.255707 0.093292
v 0.227390 7.255031 0.093293
v 0.229197 7.254173 0.093295
v 0.232624 7.251448 0.093296
v 0.234084 7.249553 0.093304
v 0.235040 7.247797 0.093312
v 0.236194 7.243738 0.096809
v 0.236210 7.243580 0.093333
v 0.235374 7.243528 0.098054
v 0.236185 7.243679 0.035833
v 0.236213 7.243539 0.079186
v 0.236258 7.242975 0.035835
v 0.236269 7.242809 0.023331
v 0.236309 7.241951 0.023332
v 0.236307 7.242148 0.079190
v 0.236277 7.241149 0.079193
v 0.236279 7.240950 0.026416
v 0.236276 7.241189 0.093332
v 0.236281 7.240977 0.035840
v 0.236270 7.241049 0.096816
v 0.236181 7.239969 0.035843
v 0.236152 7.239981 0.096820
v 0.236046 7.239363 0.096821
v 0.236021 7.239167 0.079198
v 0.236018 7.239208 0.093331
v 0.236009 7.238955 0.035846
v 0.235669 7.237780 0.079201
v 0.235806 7.238138 0.035848
v 0.235772 7.237977 0.023344
v 0.235512 7.237143 0.023345
v 0.235342 7.236873 0.079203
v 0.235341 7.236914 0.093343
v 0.235286 7.236786 0.096827
v 0.235194 7.236338 0.023348
v 0.235141 7.236254 0.035852
v 0.235142 7.236227 0.026430
v 0.234933 7.235974 0.096831
v 0.234812 7.235542 0.035854
v 0.234483 7.235068 0.079208
v 0.234554 7.235249 0.096831
v 0.234482 7.235109 0.093345
v 0.234183 7.234425 0.035857
v 0.234073 7.234383 0.079210
v 0.233727 7.233747 0.035859
v 0.233499 7.233567 0.079212
v 0.233728 7.233720 0.026436
v 0.233653 7.233598 0.023357
v 0.233130 7.233096 0.079213
v 0.232974 7.232740 0.023355
v 0.233129 7.233136 0.093350
v 0.233036 7.233027 0.096836
v 0.232547 7.232263 0.023358
v 0.232468 7.232396 0.096838
v 0.232457 7.232176 0.026438
v 0.232457 7.232203 0.035863
v 0.231867 7.231793 0.096839
v 0.232020 7.231766 0.035864
v 0.231756 7.231644 0.079217
v 0.231202 7.232207 0.093352
v 0.231108 7.230950 0.035866
v 0.230981 7.230976 0.079218
v 0.230269 7.230332 0.035867
v 0.229860 7.230184 0.079220
v 0.230270 7.230305 0.026441
v 0.230162 7.230222 0.023363
v 0.229798 7.229983 0.023364
v 0.229858 7.230226 0.093356
v 0.229732 7.230157 0.096844
v 0.229252 7.229653 0.023364
v 0.228998 7.229724 0.096848
v 0.228665 7.229338 0.023365
v 0.228235 7.229342 0.096846
v 0.228548 7.229313 0.035870
v 0.228101 7.229270 0.093359
v 0.228102 7.229230 0.079222
v 0.227082 7.228674 0.035871
v 0.226942 7.228751 0.079224
v 0.225851 7.228303 0.035872
v 0.225847 7.228428 0.079224
v 0.225851 7.228276 0.026448
v 0.225846 7.228469 0.093361
v 0.225702 7.228442 0.096848
v 0.225725 7.228235 0.023368
v 0.224874 7.228043 0.023368
v 0.224872 7.228258 0.096851
v 0.224027 7.228129 0.096849
v 0.223880 7.228102 0.093361
v 0.224016 7.227916 0.023369
v 0.223881 7.228061 0.079225
v 0.223885 7.227937 0.035873
v 0.222612 7.227839 0.035873
v 0.222743 7.227968 0.079225
v 0.221488 7.227995 0.079225
v 0.221339 7.228055 0.096849
v 0.221487 7.228036 0.093362
v 0.221004 7.227905 0.035873
v 0.220488 7.228137 0.096851
v 0.220875 7.227884 0.023368
v 0.219649 7.228275 0.096848
v 0.220034 7.227993 0.023365
v 0.219504 7.228294 0.093361
v 0.219504 7.228251 0.079224
v 0.219160 7.228168 0.023368
v 0.219031 7.228235 0.035872
v 0.219032 7.228208 0.026447
v 0.218018 7.228511 0.035871
v 0.218176 7.228585 0.079223
v 0.217209 7.228930 0.079222
v 0.216880 7.228941 0.035870
v 0.217063 7.229032 0.096844
v 0.217208 7.228970 0.093358
v 0.216315 7.229191 0.035869
v 0.216289 7.229377 0.096845
v 0.216316 7.229164 0.026445
v 0.216194 7.229209 0.023365
v 0.215530 7.229761 0.096843
v 0.215427 7.229615 0.023364
v 0.215401 7.229828 0.093360
v 0.215402 7.229787 0.079220
v 0.214684 7.230059 0.023365
v 0.214888 7.230095 0.079219
v 0.214573 7.230173 0.035866
v 0.214574 7.230146 0.026443
v 0.213901 7.230641 0.035865
v 0.214058 7.230648 0.079218
v 0.213428 7.231139 0.079216
v 0.213426 7.231180 0.093353
v 0.213312 7.231285 0.096840
v 0.212914 7.231453 0.035863
v 0.212701 7.231821 0.096840
v 0.212348 7.232000 0.035862
v 0.212074 7.232455 0.096837
v 0.212257 7.232058 0.023357
v 0.211975 7.232513 0.079213
v 0.211654 7.232714 0.023354
v 0.211469 7.233090 0.079211
v 0.211047 7.233518 0.035858
v 0.211126 7.233377 0.023354
v 0.211808 7.234043 0.021737
v 0.211974 7.232553 0.093350
v 0.210507 7.234401 0.079208
v 0.210564 7.234205 0.035856
v 0.210434 7.234584 0.096831
v 0.210514 7.234449 0.093347
v 0.210112 7.235121 0.096831
v 0.210035 7.235092 0.035853
v 0.209616 7.236076 0.096827
v 0.209578 7.235994 0.035851
v 0.209557 7.236204 0.093340
v 0.209558 7.236163 0.079203
v 0.209169 7.237084 0.079201
v 0.209528 7.236079 0.023347
v 0.209190 7.236890 0.023343
v 0.208917 7.237705 0.023342
v 0.208878 7.237866 0.035846
v 0.208879 7.237839 0.026422
v 0.208753 7.238415 0.079197
v 0.208718 7.238610 0.096821
v 0.208755 7.238457 0.093329
v 0.208736 7.238388 0.035845
v 0.212348 7.231973 0.026436
v 0.235807 7.238111 0.026423
v 0.236259 7.242949 0.026414
v 0.234858 7.245460 0.035829
v 0.235255 7.242965 0.035835
v 0.235256 7.242938 0.026412
v 0.235102 7.244184 0.021695
v 0.234638 7.245935 0.021675
v 0.234791 7.245425 0.026402
v 0.214367 7.249316 0.021681
v 0.210265 7.246935 0.021691
v 0.209709 7.245334 0.021698
v 0.211657 7.243579 0.021695
v 0.212776 7.250654 0.021675
v 0.213836 7.251673 0.021675
v 0.215012 7.252554 0.021671
v 0.216386 7.253466 0.021678
v 0.222174 7.254801 0.021667
v 0.223643 7.254730 0.021666
v 0.225218 7.254453 0.021668
v 0.226631 7.254062 0.021669
v 0.226940 7.252328 0.021670
v 0.230595 7.251822 0.021675
v 0.231641 7.250836 0.021677
v 0.233528 7.248384 0.021685
v 0.235275 7.242725 0.021698
v 0.235295 7.241127 0.021702
v 0.235148 7.239666 0.021707
v 0.234820 7.238233 0.021707
v 0.233630 7.235381 0.021718
v 0.232840 7.234177 0.021720
v 0.231826 7.232941 0.021722
v 0.229645 7.232852 0.021724
v 0.230751 7.231898 0.021726
v 0.229602 7.231022 0.021728
v 0.225568 7.229126 0.021744
v 0.225486 7.230668 0.021729
v 0.222402 7.228789 0.021734
v 0.221097 7.228809 0.021751
v 0.219432 7.230462 0.021729
v 0.216729 7.230045 0.021732
v 0.213052 7.232666 0.021754
v 0.211097 7.235178 0.021717
v 0.209861 7.237980 0.021707
v 0.209503 7.239434 0.021706
v 0.211701 7.249313 0.021701
v 0.211655 7.249287 0.035817
v 0.210369 7.247145 0.035817
v 0.209703 7.245178 0.035783
v 0.209264 7.242719 0.035834
v 0.209324 7.242549 0.021718
v 0.209353 7.240678 0.026415
v 0.209324 7.240865 0.021700
v 0.209352 7.240705 0.035839
v 0.209747 7.238209 0.035845
v 0.209818 7.238191 0.026421
v 0.210439 7.236344 0.021770
v 0.210520 7.236348 0.035850
v 0.211747 7.234139 0.035856
v 0.213100 7.232642 0.035860
v 0.215122 7.230861 0.021734
v 0.214989 7.231070 0.035844
v 0.219163 7.229231 0.035774
v 0.216805 7.229989 0.035867
v 0.219332 7.229050 0.021740
v 0.221176 7.228850 0.035870
v 0.223694 7.228899 0.035862
v 0.223816 7.228889 0.021737
v 0.228052 7.230131 0.035847
v 0.225761 7.229255 0.035857
v 0.228141 7.230186 0.021752
v 0.229760 7.231167 0.026442
v 0.229759 7.231194 0.035865
v 0.231724 7.232784 0.035861
v 0.231683 7.232813 0.026436
v 0.232953 7.234356 0.026433
v 0.232952 7.234384 0.035857
v 0.234255 7.236549 0.035852
v 0.234245 7.236650 0.021733
v 0.234861 7.238444 0.026422
v 0.234861 7.238472 0.035847
v 0.235275 7.240967 0.035840
v 0.235142 7.239707 0.035844
v 0.235276 7.240940 0.026405
v 0.236286 7.241072 0.023336
v 0.212926 7.250803 0.026389
v 0.214849 7.252449 0.026385
v 0.214848 7.252476 0.035809
v 0.212884 7.250886 0.035813
v 0.218942 7.254355 0.026380
v 0.218941 7.254382 0.035805
v 0.216568 7.253564 0.035799
v 0.220364 7.254652 0.021657
v 0.223439 7.254747 0.026380
v 0.223439 7.254775 0.035804
v 0.220911 7.254817 0.035804
v 0.225413 7.254420 0.026381
v 0.227875 7.253536 0.021683
v 0.227800 7.253606 0.035807
v 0.226629 7.254098 0.035806
v 0.225412 7.254447 0.035805
v 0.229543 7.252598 0.026386
v 0.229379 7.252700 0.021672
v 0.231499 7.250991 0.026390
v 0.231522 7.251058 0.035814
v 0.229545 7.252629 0.035810
v 0.232800 7.249474 0.026394
v 0.232685 7.249625 0.021680
v 0.234088 7.247296 0.026404
v 0.234087 7.247323 0.035824
v 0.233495 7.248473 0.035821
v 0.232799 7.249501 0.035818
v 0.211827 7.236685 0.021772
v 0.214514 7.233211 0.021832
v 0.233145 7.237544 0.021712
v 0.233917 7.240677 0.022996
v 0.233816 7.242954 0.021698
v 0.233087 7.245930 0.023182
v 0.232401 7.247492 0.021687
v 0.229477 7.250839 0.021678
v 0.227482 7.252135 0.023505
v 0.224262 7.253179 0.021740
v 0.222097 7.253474 0.023712
v 0.214367 7.250313 0.022164
v 0.211636 7.246198 0.022368
v 0.216209 7.251713 0.023964
v 0.212339 7.247660 0.024184
v 0.211004 7.244163 0.024346
v 0.210811 7.242987 0.022511
v 0.211414 7.237548 0.022732
v 0.210959 7.239210 0.024547
v 0.213004 7.234991 0.024743
v 0.216450 7.231762 0.024942
v 0.220801 7.230392 0.025116
v 0.224838 7.230513 0.025280
v 0.230827 7.233970 0.023654
v 0.229471 7.232678 0.025477
v 0.233188 7.246001 0.024121
v 0.233344 7.245440 0.025986
v 0.231167 7.249193 0.026151
v 0.228542 7.251530 0.026287
v 0.222116 7.253360 0.024651
v 0.218672 7.252865 0.026682
v 0.213941 7.249758 0.026904
v 0.212347 7.247823 0.025119
v 0.211005 7.244077 0.025291
v 0.211442 7.245905 0.027096
v 0.210843 7.239963 0.027350
v 0.212254 7.236147 0.025625
v 0.212932 7.235005 0.027569
v 0.214908 7.232908 0.025805
v 0.216616 7.231741 0.027776
v 0.220173 7.230506 0.027918
v 0.224519 7.230412 0.028093
v 0.228594 7.232150 0.028265
v 0.229386 7.232675 0.026414
v 0.232262 7.235869 0.026567
v 0.232082 7.235388 0.028434
v 0.233609 7.239636 0.028609
v 0.233810 7.242281 0.026820
v 0.233849 7.242377 0.028709
v 0.232903 7.246569 0.026972
v 0.232989 7.246274 0.028848
v 0.229971 7.250556 0.029050
v 0.225922 7.252764 0.029219
v 0.222218 7.253356 0.029362
v 0.214167 7.250135 0.027824
v 0.218126 7.252598 0.029534
v 0.214016 7.249930 0.029725
v 0.211432 7.245726 0.028044
v 0.211120 7.238801 0.030222
v 0.212873 7.235189 0.030388
v 0.212485 7.235516 0.028480
v 0.215344 7.232589 0.030542
v 0.218857 7.230785 0.030696
v 0.222873 7.230301 0.028968
v 0.223511 7.230289 0.030879
v 0.229146 7.232567 0.029231
v 0.231652 7.234993 0.029355
v 0.230141 7.233369 0.031163
v 0.227468 7.231533 0.031045
v 0.232268 7.235964 0.031284
v 0.233827 7.240366 0.031465
v 0.234001 7.240950 0.029601
v 0.233522 7.244440 0.031609
v 0.232286 7.247658 0.031731
v 0.229870 7.250531 0.031878
v 0.226263 7.252712 0.030148
v 0.225903 7.252860 0.032046
v 0.220785 7.253285 0.032247
v 0.215797 7.251451 0.032465
v 0.212013 7.247231 0.032690
v 0.212481 7.247906 0.030768
v 0.210830 7.243465 0.030974
v 0.211020 7.239260 0.031144
v 0.212323 7.236023 0.033172
v 0.212854 7.235155 0.031330
v 0.214936 7.232913 0.033348
v 0.218983 7.230734 0.033530
v 0.217308 7.231256 0.031577
v 0.224971 7.230468 0.033767
v 0.229546 7.232831 0.033962
v 0.230632 7.233726 0.032123
v 0.232212 7.235836 0.034105
v 0.232965 7.237360 0.032285
v 0.233509 7.239141 0.034243
v 0.233811 7.241002 0.032428
v 0.233479 7.244919 0.032565
v 0.233860 7.243149 0.034390
v 0.231710 7.248601 0.034602
v 0.230133 7.250538 0.032812
v 0.228040 7.251911 0.034793
v 0.223310 7.253340 0.034974
v 0.218209 7.252716 0.033297
v 0.219846 7.253098 0.035104
v 0.214141 7.250005 0.033487
v 0.216833 7.251984 0.035246
v 0.213606 7.249453 0.035404
v 0.211428 7.245726 0.035588
v 0.210722 7.241555 0.035779
v 0.211856 7.236844 0.035849
v 0.216326 7.231781 0.034362
v 0.215321 7.232523 0.035860
v 0.220234 7.230472 0.035866
v 0.224537 7.230490 0.035866
v 0.229404 7.232663 0.035861
v 0.229929 7.233050 0.034917
v 0.232095 7.235753 0.035853
v 0.233482 7.238898 0.035845
v 0.233299 7.238054 0.035141
v 0.233751 7.243613 0.035509
v 0.231812 7.248697 0.035598
v 0.226312 7.253152 0.035808
v 0.226183 7.230989 0.034758
v 0.222378 7.230253 0.034601
v 0.212103 7.236336 0.034098
v 0.210602 7.242442 0.033845
v 0.212105 7.247182 0.033631
v 0.224184 7.253286 0.033052
v 0.216239 7.251749 0.030558
v 0.230407 7.250087 0.029964
v 0.232870 7.246461 0.029796
v 0.226659 7.231128 0.029125
v 0.210749 7.241171 0.028240
v 0.218614 7.252401 0.027635
v 0.219925 7.253111 0.027569
v 0.224654 7.253151 0.027380
v 0.229555 7.250854 0.027182
v 0.223776 7.230157 0.026176
v 0.216811 7.252015 0.024878
v 0.228259 7.251870 0.024418
v 0.226781 7.231074 0.023475
v 0.219569 7.253093 0.021928
v 0.219026 7.252148 0.035161
v 0.224200 7.252441 0.034935
v 0.232871 7.239601 0.034255
v 0.220307 7.231293 0.033571
v 0.215792 7.233118 0.033372
v 0.210658 7.241149 0.032955
v 0.212226 7.237936 0.033096
v 0.211561 7.242349 0.032907
v 0.212719 7.246839 0.032691
v 0.231031 7.235470 0.031241
v 0.211123 7.245018 0.029966
v 0.212651 7.246722 0.029870
v 0.232953 7.240508 0.028638
v 0.215516 7.233396 0.027696
v 0.212448 7.237440 0.027463
v 0.215699 7.250329 0.026840
v 0.224321 7.253170 0.026453
v 0.230275 7.248980 0.026171
v 0.233825 7.241446 0.025848
v 0.232997 7.237282 0.025687
v 0.220113 7.252298 0.023802
v 0.230898 7.233865 0.022711
v 0.225588 7.230717 0.022484
v 0.220327 7.230329 0.022271
v 0.214605 7.234173 0.021988
v 0.211936 7.238837 0.021720
v 0.220281 7.231145 0.022261
v 0.225360 7.231489 0.022482
v 0.229935 7.234066 0.022692
v 0.232922 7.239605 0.022948
v 0.232708 7.244545 0.023138
v 0.230090 7.250276 0.023384
v 0.229310 7.249975 0.023918
v 0.225195 7.252303 0.023587
v 0.216100 7.250669 0.023992
v 0.212561 7.246451 0.024561
v 0.213619 7.235413 0.024743
v 0.217642 7.232038 0.024978
v 0.223252 7.231056 0.025786
v 0.226032 7.231681 0.025339
v 0.230382 7.234615 0.025544
v 0.232931 7.239699 0.025778
v 0.232496 7.245456 0.026000
v 0.228297 7.250697 0.026280
v 0.224577 7.252376 0.026438
v 0.212619 7.246578 0.027049
v 0.211524 7.241937 0.027270
v 0.226195 7.231630 0.028171
v 0.231535 7.236083 0.028444
v 0.232659 7.245098 0.028812
v 0.226219 7.251859 0.029200
v 0.221544 7.252567 0.029394
v 0.216541 7.250978 0.029625
v 0.211506 7.240258 0.030168
v 0.213880 7.235130 0.030416
v 0.217347 7.232233 0.030619
v 0.222537 7.231026 0.030839
v 0.227355 7.232299 0.031054
v 0.233206 7.241293 0.031498
v 0.231258 7.247970 0.031765
v 0.221937 7.252734 0.032202
v 0.216123 7.250658 0.032474
v 0.225567 7.231412 0.033798
v 0.230720 7.235067 0.034048
v 0.232602 7.245241 0.034472
v 0.229083 7.250284 0.034723
v 0.210762 7.238444 0.035845
v 0.210312 7.241038 0.035838
v 0.210386 7.243404 0.035832
v 0.211720 7.244394 0.035770
v 0.210946 7.245768 0.035826
v 0.213955 7.248684 0.035653
v 0.211875 7.247795 0.035821
v 0.212788 7.249147 0.035818
v 0.213711 7.250217 0.035815
v 0.215074 7.251422 0.035812
v 0.216790 7.252500 0.035809
v 0.217402 7.251433 0.035812
v 0.218473 7.253207 0.035808
v 0.219853 7.253577 0.035807
v 0.221246 7.253787 0.035806
v 0.222868 7.253820 0.035807
v 0.222631 7.252669 0.035809
v 0.224482 7.253634 0.035807
v 0.227556 7.252637 0.035810
v 0.229461 7.251476 0.035813
v 0.230837 7.250277 0.035816
v 0.232020 7.248896 0.035820
v 0.211352 7.236934 0.035849
v 0.211825 7.235974 0.035851
v 0.212832 7.234451 0.035855
v 0.213916 7.233254 0.035858
v 0.215153 7.232190 0.035861
v 0.216510 7.231330 0.035864
v 0.218173 7.230557 0.035866
v 0.219915 7.230081 0.035867
v 0.221540 7.229856 0.035868
v 0.223149 7.229871 0.035868
v 0.224969 7.230124 0.035867
v 0.226699 7.230674 0.035866
v 0.228178 7.231365 0.035864
v 0.229513 7.232245 0.035862
v 0.230908 7.233449 0.035859
v 0.232307 7.235187 0.035855
v 0.232998 7.236392 0.035852
v 0.233342 7.237127 0.035850
v 0.233708 7.238089 0.035848
v 0.234161 7.239864 0.035843
v 0.234312 7.241879 0.035838
v 0.234197 7.243495 0.035834
v 0.233813 7.245279 0.035829
v 0.233070 7.247161 0.035824
v 0.223278 7.252583 0.021725
v 0.219384 7.252241 0.021703
v 0.213924 7.248654 0.022226
v 0.214475 7.233329 0.022952
v 0.218225 7.230909 0.023132
v 0.229586 7.233722 0.023614
v 0.233780 7.240242 0.023919
v 0.233049 7.241632 0.023969
v 0.210781 7.240413 0.025445
v 0.218233 7.231042 0.025956
v 0.233629 7.239652 0.026723
v 0.219898 7.252290 0.027071
v 0.215512 7.233465 0.028636
v 0.217572 7.231151 0.028760
v 0.232695 7.238994 0.029514
v 0.232901 7.244110 0.029715
v 0.221401 7.253370 0.030335
v 0.211453 7.240837 0.031084
v 0.224581 7.230371 0.031866
v 0.224617 7.231156 0.031870
v 0.229662 7.233980 0.032104
v 0.231749 7.247180 0.032667
v 0.227834 7.251052 0.032357
v 0.224878 7.252315 0.033022
v 0.219235 7.252217 0.033264
v 0.214444 7.249240 0.033503
v 0.211353 7.242901 0.033824
v 0.223816 7.231106 0.034662
v 0.227068 7.251451 0.035762
v 0.231241 7.248104 0.035537
v 0.233185 7.240757 0.035244
v 0.231034 7.235579 0.035012
v 0.228431 7.232995 0.034872
v 0.216833 7.232346 0.034367
v 0.212822 7.236759 0.034095
v 0.233088 7.241831 0.032459
v 0.232123 7.237385 0.032270
v 0.217840 7.231951 0.031583
v 0.213670 7.235362 0.031342
v 0.212758 7.246880 0.030803
v 0.216787 7.251174 0.030552
v 0.221985 7.252574 0.030314
v 0.227012 7.251576 0.030109
v 0.230284 7.249054 0.029410
v 0.230440 7.234692 0.029316
v 0.225993 7.231667 0.029105
v 0.220224 7.231200 0.028523
v 0.212534 7.237189 0.028417
v 0.211530 7.241940 0.028211
v 0.213180 7.247846 0.027927
v 0.225543 7.252204 0.027342
v 0.230249 7.249074 0.027114
v 0.232444 7.245441 0.026940
v 0.233052 7.241551 0.026793
v 0.231900 7.236738 0.026589
v 0.228118 7.232730 0.026376
v 0.217688 7.231930 0.025922
v 0.213192 7.236032 0.025649
v 0.211482 7.241124 0.025418
v 0.211479 7.240778 0.024491
v 0.214390 7.249265 0.025021
v 0.219502 7.252221 0.024770
v 0.224753 7.252331 0.024544
v 0.232249 7.246068 0.024138
v 0.231985 7.236202 0.023745
v 0.223733 7.231061 0.023350
v 0.222811 7.230352 0.023310
v 0.215291 7.233544 0.022969
v 0.212007 7.238443 0.022703
v 0.211694 7.243775 0.022471
v 0.210350 7.236635 0.093339
v 0.209598 7.238565 0.079197
v 0.210351 7.236594 0.079202
v 0.211162 7.235044 0.098080
v 0.211306 7.234880 0.093343
v 0.212555 7.233146 0.079211
v 0.211308 7.234839 0.079207
v 0.213816 7.231899 0.098087
v 0.214047 7.231835 0.093351
v 0.215773 7.230580 0.079218
v 0.214045 7.231791 0.079215
v 0.217359 7.229776 0.098092
v 0.217595 7.229784 0.093357
v 0.219620 7.229188 0.093358
v 0.219601 7.229106 0.079222
v 0.217596 7.229744 0.079220
v 0.221496 7.228891 0.098107
v 0.223710 7.228901 0.079223
v 0.221605 7.228889 0.079223
v 0.225680 7.229355 0.093359
v 0.227669 7.230062 0.093357
v 0.227673 7.230017 0.079220
v 0.225689 7.229289 0.079222
v 0.229345 7.230979 0.098031
v 0.231100 7.232264 0.079215
v 0.229455 7.230941 0.079218
v 0.232474 7.233756 0.093349
v 0.233667 7.235496 0.093344
v 0.233702 7.235424 0.079207
v 0.232475 7.233716 0.079211
v 0.234526 7.237301 0.093338
v 0.235162 7.239534 0.098046
v 0.235123 7.239325 0.093334
v 0.235166 7.239264 0.079197
v 0.234527 7.237260 0.079202
v 0.235381 7.241306 0.093331
v 0.235324 7.243374 0.079187
v 0.235428 7.241267 0.079192
v 0.234955 7.245379 0.093315
v 0.235843 7.245544 0.093321
v 0.234248 7.247366 0.093313
v 0.234249 7.247326 0.079177
v 0.235000 7.245354 0.079182
v 0.233496 7.249014 0.098043
v 0.233291 7.249121 0.093309
v 0.232004 7.250793 0.093304
v 0.232008 7.250756 0.079168
v 0.233315 7.249096 0.079172
v 0.228842 7.253353 0.079161
v 0.230552 7.252126 0.079164
v 0.227239 7.254252 0.098030
v 0.227003 7.254217 0.093295
v 0.224921 7.254899 0.098039
v 0.224979 7.254772 0.079157
v 0.227017 7.254220 0.079158
v 0.223201 7.255112 0.098036
v 0.222994 7.255071 0.093292
v 0.220882 7.255000 0.079156
v 0.222996 7.255035 0.079156
v 0.219098 7.254797 0.098028
v 0.218918 7.254646 0.093293
v 0.216928 7.253939 0.093295
v 0.216921 7.253943 0.079158
v 0.218919 7.254605 0.079157
v 0.215227 7.253102 0.098045
v 0.213477 7.251697 0.079164
v 0.215173 7.252943 0.079161
v 0.210898 7.248496 0.079172
v 0.212125 7.250205 0.079168
v 0.210099 7.246809 0.098035
v 0.209411 7.244640 0.098028
v 0.209450 7.244645 0.079182
v 0.210069 7.246662 0.079176
v 0.209164 7.242815 0.098071
v 0.209135 7.240561 0.093327
v 0.209231 7.240545 0.079192
v 0.209218 7.242655 0.079187
f 393 10 1
f 3 2 900
f 901 4 900
f 900 4 3
f 4 901 5
f 5 901 904
f 5 904 6
f 5 6 7
f 7 6 9
f 7 9 8
f 8 9 10
f 8 10 12
f 12 10 11
f 12 11 14
f 12 14 13
f 13 14 16
f 16 14 834
f 15 16 834
f 16 15 17
f 17 15 838
f 17 838 18
f 18 838 19
f 18 19 21
f 21 19 20
f 21 20 842
f 21 842 22
f 22 842 23
f 22 23 24
f 24 23 26
f 24 26 847
f 24 847 25
f 25 847 27
f 25 27 28
f 28 27 29
f 28 29 31
f 31 29 30
f 32 31 30
f 31 32 33
f 33 32 34
f 34 32 39
f 34 39 854
f 34 854 36
f 34 36 35
f 35 36 40
f 40 36 37
f 40 37 38
f 40 38 41
f 40 41 42
f 42 41 43
f 43 41 45
f 43 45 44
f 43 44 47
f 46 48 44
f 44 48 47
f 48 46 49
f 49 46 862
f 49 862 51
f 51 862 50
f 51 50 244
f 51 244 52
f 52 244 53
f 244 54 53
f 53 54 56
f 53 56 55
f 55 56 57
f 55 57 58
f 58 57 874
f 59 58 874
f 58 59 60
f 60 59 61
f 60 61 62
f 62 61 63
f 62 63 65
f 65 63 64
f 65 64 881
f 65 881 66
f 65 66 67
f 67 66 883
f 67 883 68
f 68 883 886
f 68 886 69
f 68 69 70
f 70 69 71
f 71 69 890
f 72 73 890
f 890 73 71
f 73 72 74
f 74 72 75
f 74 75 76
f 76 75 895
f 76 895 78
f 76 78 77
f 77 78 79
f 77 79 81
f 81 79 80
f 81 80 82
f 81 82 83
f 83 82 3
f 3 82 2
f 84 86 85
f 85 86 2
f 88 87 89
f 87 88 90
f 87 90 870
f 90 88 91
f 90 91 95
f 95 91 93
f 95 93 94
f 91 92 93
f 95 94 96
f 95 96 97
f 98 99 96
f 96 99 97
f 102 100 99
f 100 102 101
f 101 102 103
f 103 102 104
f 103 104 105
f 105 104 110
f 110 104 106
f 110 106 107
f 110 107 109
f 106 108 107
f 110 109 111
f 111 109 113
f 111 113 112
f 114 115 113
f 113 115 112
f 115 116 112
f 112 116 117
f 117 116 118
f 117 118 119
f 116 121 118
f 118 121 120
f 120 121 122
f 120 122 125
f 125 122 123
f 125 123 124
f 125 124 126
f 125 126 127
f 127 126 128
f 127 128 129
f 128 130 129
f 129 130 131
f 129 131 132
f 132 131 133
f 132 133 134
f 134 133 136
f 134 136 135
f 135 136 137
f 135 137 138
f 138 137 139
f 137 140 139
f 138 139 141
f 141 139 143
f 141 143 236
f 236 143 142
f 142 143 144
f 142 144 145
f 145 144 146
f 146 147 145
f 145 147 149
f 149 147 148
f 149 148 150
f 149 150 151
f 148 153 150
f 150 153 152
f 152 153 154
f 152 154 155
f 155 154 157
f 155 157 156
f 156 157 159
f 156 159 158
f 158 159 160
f 160 159 161
f 160 161 162
f 162 161 163
f 163 161 164
f 163 164 165
f 165 164 166
f 165 166 167
f 167 166 168
f 167 168 234
f 234 168 169
f 169 168 170
f 154 171 157
f 161 172 164
f 168 487 170
f 169 170 173
f 173 170 174
f 173 174 175
f 175 174 176
f 175 176 177
f 177 176 179
f 176 178 179
f 180 181 178
f 178 181 179
f 179 181 182
f 182 181 183
f 182 183 184
f 184 183 185
f 184 185 232
f 232 185 186
f 232 186 187
f 187 186 188
f 187 188 189
f 187 189 190
f 190 189 191
f 190 191 192
f 192 191 193
f 193 191 195
f 193 195 194
f 194 195 196
f 194 196 197
f 194 197 198
f 198 197 199
f 198 199 200
f 200 199 201
f 200 201 86
f 86 201 202
f 202 201 203
f 202 203 231
f 231 203 204
f 231 204 208
f 203 205 204
f 208 210 206
f 208 206 207
f 210 208 209
f 209 211 210
f 209 444 211
f 210 211 212
f 212 211 213
f 212 213 229
f 229 213 215
f 215 213 214
f 215 214 216
f 216 214 219
f 216 219 217
f 217 219 218
f 217 218 220
f 220 218 221
f 220 221 222
f 220 222 223
f 223 222 224
f 224 222 225
f 224 226 223
f 223 226 227
f 227 226 228
f 228 226 1
f 227 228 905
f 212 229 230
f 207 231 208
f 200 86 84
f 184 232 233
f 156 235 155
f 134 237 132
f 127 238 125
f 112 239 111
f 105 240 103
f 241 97 100
f 100 97 99
f 244 242 89
f 244 89 54
f 54 89 87
f 244 243 242
f 88 89 245
f 245 89 242
f 245 242 246
f 246 242 243
f 245 246 247
f 247 246 250
f 247 250 248
f 248 250 249
f 249 250 480
f 480 250 251
f 480 251 252
f 252 251 253
f 252 253 254
f 254 253 255
f 254 255 256
f 256 255 257
f 256 257 261
f 261 257 258
f 261 258 259
f 259 258 260
f 261 259 262
f 261 262 263
f 263 262 264
f 264 262 265
f 265 262 266
f 265 266 267
f 265 267 268
f 265 268 269
f 269 268 270
f 269 270 271
f 268 272 270
f 270 272 273
f 273 272 275
f 273 275 274
f 274 275 276
f 273 274 277
f 277 274 278
f 277 278 279
f 279 278 280
f 279 280 281
f 281 280 282
f 282 280 283
f 282 283 284
f 284 283 285
f 285 286 284
f 284 286 287
f 287 286 288
f 287 288 289
f 289 288 290
f 290 288 291
f 290 291 292
f 292 291 293
f 293 291 294
f 292 293 295
f 295 293 296
f 295 296 297
f 297 296 298
f 297 298 299
f 299 298 300
f 300 298 301
f 301 298 302
f 302 303 301
f 301 303 304
f 304 303 305
f 304 305 306
f 306 305 308
f 306 308 464
f 305 307 308
f 309 310 307
f 307 310 308
f 308 310 311
f 311 310 312
f 311 312 313
f 313 312 314
f 313 314 315
f 315 314 316
f 315 316 317
f 315 317 318
f 318 317 319
f 319 317 320
f 319 320 321
f 319 321 323
f 323 321 322
f 323 322 324
f 323 324 325
f 325 324 327
f 325 327 326
f 326 327 328
f 326 328 331
f 331 328 329
f 328 330 329
f 331 329 332
f 331 332 333
f 333 332 335
f 335 332 334
f 335 334 336
f 336 337 335
f 335 337 338
f 338 337 339
f 338 339 340
f 337 342 339
f 339 342 341
f 341 342 343
f 341 343 344
f 344 343 346
f 344 346 345
f 344 345 347
f 347 345 348
f 347 348 349
f 349 348 350
f 350 348 351
f 350 351 352
f 352 351 353
f 353 354 352
f 352 354 355
f 355 354 356
f 360 357 356
f 356 357 358
f 356 358 355
f 357 360 359
f 359 360 361
f 359 361 364
f 364 361 363
f 364 363 365
f 362 363 361
f 364 365 366
f 366 365 367
f 366 367 368
f 368 367 369
f 368 369 370
f 370 369 371
f 370 371 373
f 373 371 372
f 373 372 374
f 367 375 369
f 371 376 372
f 372 376 377
f 377 376 378
f 378 376 379
f 377 378 380
f 377 380 381
f 381 380 382
f 381 382 383
f 384 385 382
f 382 385 383
f 386 387 385
f 387 386 388
f 388 386 389
f 389 386 390
f 389 390 391
f 386 392 390
f 390 392 395
f 395 392 393
f 393 392 394
f 395 393 1
f 395 1 226
f 452 383 387
f 387 383 385
f 368 396 366
f 333 434 331
f 325 462 323
f 264 397 263
f 248 398 247
f 91 88 399
f 399 88 245
f 399 245 400
f 400 245 247
f 404 92 399
f 399 92 91
f 421 402 401
f 401 402 400
f 400 402 399
f 399 402 404
f 404 402 403
f 406 405 408
f 406 408 407
f 407 408 446
f 446 408 448
f 448 408 674
f 448 674 440
f 440 674 508
f 405 406 441
f 405 441 409
f 405 409 410
f 405 410 411
f 405 411 412
f 405 412 762
f 762 412 488
f 762 488 413
f 762 413 761
f 761 413 414
f 761 414 415
f 761 415 417
f 415 416 417
f 417 416 493
f 417 493 498
f 417 498 515
f 515 498 418
f 515 418 419
f 515 419 514
f 514 419 503
f 514 503 420
f 514 420 403
f 514 403 512
f 512 403 402
f 512 402 421
f 512 421 422
f 512 422 423
f 512 423 510
f 510 423 424
f 510 424 474
f 510 474 425
f 510 425 426
f 510 426 428
f 428 426 427
f 428 427 429
f 428 429 430
f 428 430 466
f 428 466 432
f 432 466 431
f 432 431 463
f 432 463 433
f 432 433 435
f 435 433 434
f 435 434 460
f 435 460 436
f 435 436 456
f 435 456 509
f 509 456 437
f 509 437 374
f 509 374 508
f 508 374 438
f 508 438 452
f 508 452 439
f 508 439 440
f 441 406 442
f 442 406 443
f 441 196 195
f 196 441 197
f 197 441 442
f 443 203 201
f 443 201 199
f 443 199 442
f 442 199 197
f 443 205 203
f 205 443 406
f 205 406 204
f 204 406 208
f 208 406 407
f 208 407 209
f 444 209 407
f 445 214 213
f 445 213 444
f 444 213 211
f 446 219 445
f 445 219 214
f 444 407 445
f 445 407 446
f 219 446 218
f 218 446 221
f 221 446 448
f 221 448 222
f 447 225 448
f 448 225 222
f 225 447 224
f 224 447 449
f 390 395 450
f 450 395 226
f 450 226 449
f 449 226 224
f 451 391 450
f 450 391 390
f 451 450 440
f 451 440 439
f 391 451 439
f 391 439 389
f 389 439 388
f 388 439 452
f 388 452 387
f 383 452 453
f 372 377 454
f 454 377 381
f 454 381 383
f 454 383 453
f 454 374 372
f 452 438 453
f 453 438 454
f 454 438 374
f 373 374 370
f 370 374 437
f 370 437 368
f 437 396 368
f 396 437 366
f 366 437 455
f 357 359 457
f 457 359 364
f 457 364 455
f 455 364 366
f 457 358 357
f 437 456 455
f 455 456 457
f 358 457 456
f 358 456 355
f 355 456 436
f 355 436 352
f 352 436 350
f 349 350 436
f 349 436 347
f 347 436 459
f 458 339 459
f 459 339 341
f 459 341 344
f 459 344 347
f 458 340 339
f 436 460 459
f 459 460 458
f 340 458 338
f 338 458 460
f 338 460 335
f 335 460 434
f 335 434 333
f 331 434 461
f 325 326 462
f 462 326 461
f 461 326 331
f 434 433 461
f 461 433 462
f 462 433 463
f 462 463 323
f 323 463 319
f 319 463 431
f 319 431 318
f 465 315 431
f 431 315 318
f 315 465 313
f 464 308 465
f 465 308 311
f 465 311 313
f 465 431 464
f 464 431 466
f 464 466 306
f 306 466 304
f 304 466 430
f 304 430 301
f 301 430 300
f 467 299 300
f 467 300 430
f 299 467 297
f 297 467 468
f 290 292 469
f 469 292 295
f 469 295 297
f 469 297 468
f 470 289 469
f 469 289 290
f 430 429 467
f 467 429 468
f 468 429 469
f 469 429 470
f 470 429 427
f 427 287 470
f 470 287 289
f 287 427 284
f 284 427 426
f 284 426 282
f 471 281 282
f 471 282 426
f 281 471 279
f 279 471 472
f 473 270 273
f 473 273 277
f 473 277 472
f 472 277 279
f 474 271 473
f 473 271 270
f 426 425 471
f 471 425 472
f 472 425 473
f 473 425 474
f 271 474 269
f 269 474 265
f 265 474 424
f 265 424 264
f 397 264 475
f 475 264 424
f 397 475 263
f 263 475 476
f 477 254 478
f 478 254 256
f 478 256 261
f 478 261 476
f 476 261 263
f 479 252 477
f 477 252 254
f 424 423 475
f 475 423 476
f 476 423 478
f 478 423 477
f 477 423 479
f 479 423 422
f 252 479 480
f 480 479 422
f 480 422 249
f 249 422 421
f 249 421 248
f 401 398 421
f 421 398 248
f 398 401 247
f 247 401 400
f 440 450 449
f 440 449 447
f 447 448 440
f 189 409 191
f 191 409 195
f 195 409 441
f 409 189 481
f 481 189 188
f 411 410 482
f 482 410 483
f 483 410 484
f 484 410 481
f 481 410 409
f 180 178 482
f 482 178 411
f 180 482 181
f 181 482 483
f 186 185 484
f 484 185 183
f 484 183 181
f 484 181 483
f 481 188 484
f 484 188 186
f 170 412 174
f 174 412 411
f 174 411 176
f 176 411 178
f 170 487 412
f 488 412 485
f 485 412 486
f 486 412 487
f 172 161 485
f 485 161 488
f 172 485 164
f 164 485 486
f 487 168 166
f 487 166 486
f 486 166 164
f 157 488 159
f 159 488 161
f 157 171 488
f 414 413 489
f 489 413 490
f 490 413 491
f 491 413 171
f 171 413 488
f 489 146 414
f 414 146 144
f 146 489 147
f 147 489 490
f 154 153 491
f 491 153 148
f 491 148 490
f 490 148 147
f 491 171 154
f 139 415 143
f 143 415 414
f 143 414 144
f 140 492 139
f 139 492 415
f 493 416 494
f 494 416 495
f 495 416 496
f 496 416 492
f 492 416 415
f 130 128 493
f 130 493 131
f 131 493 494
f 496 137 495
f 495 137 136
f 495 136 133
f 495 133 494
f 494 133 131
f 492 140 496
f 496 140 137
f 124 498 126
f 126 498 493
f 126 493 128
f 123 497 498
f 123 498 124
f 419 418 499
f 499 418 500
f 500 418 501
f 501 418 497
f 497 418 498
f 114 113 499
f 499 113 419
f 114 499 115
f 115 499 500
f 122 121 501
f 501 121 500
f 500 121 116
f 500 116 115
f 497 123 501
f 501 123 122
f 107 503 109
f 109 503 419
f 109 419 113
f 108 502 503
f 108 503 107
f 403 420 504
f 504 420 505
f 505 420 506
f 506 420 502
f 502 420 503
f 502 507 506
f 98 96 504
f 504 96 403
f 98 504 99
f 99 504 505
f 507 106 104
f 507 104 506
f 506 104 102
f 506 102 99
f 506 99 505
f 502 108 507
f 507 108 106
f 93 403 94
f 94 403 96
f 92 404 93
f 93 404 403
f 435 509 672
f 435 672 432
f 432 672 671
f 432 671 670
f 432 670 428
f 428 670 510
f 511 510 670
f 512 510 511
f 512 511 513
f 512 513 514
f 513 680 514
f 516 515 680
f 515 516 417
f 417 516 517
f 517 516 518
f 518 648 517
f 518 521 648
f 519 521 522
f 520 523 524
f 524 523 526
f 524 526 525
f 527 525 526
f 764 527 528
f 765 528 529
f 529 827 765
f 827 530 647
f 529 530 827
f 647 530 532
f 647 532 531
f 532 668 531
f 825 668 767
f 667 767 668
f 767 667 533
f 533 667 534
f 646 536 665
f 665 538 537
f 645 538 539
f 540 539 542
f 541 540 542
f 541 542 543
f 543 769 541
f 545 544 543
f 543 544 769
f 544 545 546
f 546 545 547
f 770 548 644
f 770 547 548
f 549 644 548
f 551 644 550
f 551 550 553
f 549 550 644
f 551 553 552
f 771 554 556
f 555 556 557
f 557 556 558
f 557 558 559
f 642 561 641
f 560 561 642
f 561 563 641
f 563 564 562
f 639 659 566
f 568 566 567
f 568 567 569
f 774 569 570
f 572 774 570
f 572 571 774
f 571 572 638
f 572 576 638
f 573 575 574
f 574 575 577
f 638 576 573
f 573 576 575
f 574 577 579
f 579 577 578
f 579 578 580
f 637 580 581
f 581 636 637
f 636 581 582
f 583 636 584
f 584 777 583
f 636 582 584
f 777 584 585
f 635 585 586
f 635 586 588
f 588 586 587
f 589 587 654
f 589 654 590
f 590 654 591
f 595 594 779
f 779 594 596
f 598 597 599
f 598 599 600
f 600 601 602
f 602 604 603
f 603 604 605
f 603 605 606
f 634 607 608
f 608 610 634
f 610 612 609
f 609 612 611
f 611 612 613
f 633 613 614
f 633 614 632
f 632 614 615
f 615 616 632
f 631 618 617
f 617 618 619
f 629 620 621
f 622 621 623
f 622 623 625
f 625 623 624
f 625 624 626
f 622 629 621
f 620 629 630
f 620 630 619
f 630 617 619
f 618 631 616
f 616 631 632
f 633 611 613
f 610 609 634
f 607 634 606
f 607 606 605
f 604 602 601
f 601 600 599
f 598 779 597
f 597 779 596
f 594 595 593
f 593 595 592
f 593 592 591
f 592 590 591
f 589 588 587
f 635 777 585
f 580 637 579
f 774 568 569
f 568 639 566
f 639 565 659
f 659 565 562
f 659 562 564
f 562 640 563
f 563 640 641
f 560 642 643
f 560 643 559
f 559 643 557
f 556 555 771
f 554 771 553
f 553 771 552
f 770 546 547
f 539 540 645
f 538 645 537
f 665 537 646
f 536 646 535
f 535 646 533
f 535 533 534
f 825 531 668
f 765 764 528
f 527 764 525
f 523 520 522
f 520 519 522
f 519 648 521
f 515 514 680
f 614 613 720
f 613 612 720
f 649 610 650
f 650 610 608
f 608 607 714
f 607 605 714
f 604 601 651
f 599 597 712
f 712 597 711
f 596 594 652
f 652 594 653
f 593 591 653
f 655 654 656
f 656 654 587
f 656 587 657
f 710 587 586
f 585 584 709
f 584 582 783
f 577 576 658
f 576 577 575
f 705 572 570
f 703 569 567
f 659 564 660
f 660 564 701
f 564 563 701
f 699 561 560
f 699 560 559
f 558 556 698
f 556 661 698
f 661 556 554
f 661 554 553
f 697 550 696
f 550 549 696
f 548 547 807
f 807 547 662
f 662 547 545
f 662 545 663
f 663 545 543
f 663 543 695
f 543 542 695
f 664 539 538
f 538 665 693
f 690 668 689
f 522 521 683
f 683 521 669
f 521 518 669
f 669 518 682
f 518 516 682
f 516 680 682
f 508 674 673
f 508 673 509
f 509 673 675
f 509 675 672
f 672 675 671
f 671 675 676
f 671 676 677
f 671 677 670
f 677 678 670
f 678 511 670
f 678 679 511
f 511 679 513
f 679 680 513
f 680 681 682
f 683 684 522
f 522 684 523
f 523 684 820
f 523 820 526
f 526 820 685
f 685 527 526
f 527 685 686
f 527 686 528
f 687 529 686
f 686 529 528
f 529 687 530
f 530 687 688
f 530 688 532
f 688 689 532
f 532 689 668
f 668 690 667
f 667 690 691
f 667 691 534
f 691 535 534
f 535 691 666
f 666 692 535
f 535 692 536
f 536 692 693
f 536 693 665
f 538 693 772
f 538 772 664
f 539 664 694
f 694 542 539
f 542 694 695
f 548 807 696
f 548 696 549
f 550 697 553
f 697 661 553
f 558 698 559
f 698 804 559
f 559 804 699
f 561 699 700
f 561 700 563
f 563 700 701
f 659 660 702
f 659 702 566
f 566 702 567
f 567 702 703
f 569 703 704
f 569 704 570
f 704 705 570
f 572 705 706
f 706 576 572
f 576 706 658
f 577 658 707
f 577 707 578
f 578 707 580
f 580 707 708
f 580 708 581
f 581 708 582
f 582 708 783
f 709 584 783
f 709 710 585
f 585 710 586
f 710 657 587
f 655 591 654
f 591 655 653
f 593 653 594
f 652 711 596
f 596 711 597
f 599 712 651
f 599 651 601
f 651 713 604
f 604 713 605
f 605 713 714
f 714 650 608
f 610 649 612
f 649 720 612
f 720 718 614
f 614 718 615
f 715 615 716
f 716 615 718
f 716 718 717
f 717 718 719
f 719 718 721
f 721 718 720
f 721 720 722
f 722 720 723
f 723 720 724
f 724 720 726
f 724 726 725
f 725 726 727
f 727 726 731
f 727 731 728
f 728 731 729
f 729 731 730
f 730 731 732
f 732 731 628
f 733 628 734
f 734 628 735
f 735 628 627
f 735 627 736
f 736 627 760
f 715 616 615
f 616 715 737
f 616 737 738
f 616 738 739
f 616 739 618
f 618 739 740
f 618 740 741
f 618 741 742
f 618 742 743
f 618 743 619
f 619 743 744
f 619 744 745
f 619 745 620
f 620 745 746
f 620 746 747
f 620 747 748
f 620 748 621
f 621 748 749
f 621 749 750
f 621 750 751
f 621 751 623
f 623 751 752
f 623 752 753
f 623 753 754
f 623 754 624
f 624 754 755
f 624 755 756
f 624 756 626
f 626 756 757
f 626 757 758
f 626 758 759
f 626 759 627
f 627 759 760
f 789 628 731
f 53 758 52
f 52 758 757
f 52 757 51
f 51 757 756
f 51 756 49
f 49 756 755
f 49 755 48
f 48 755 754
f 48 754 47
f 47 754 753
f 47 753 43
f 43 753 752
f 43 752 42
f 42 752 751
f 42 751 40
f 40 751 750
f 40 750 35
f 35 750 749
f 35 749 34
f 34 749 748
f 34 748 33
f 33 748 747
f 33 747 31
f 31 747 746
f 31 746 28
f 28 746 745
f 28 745 25
f 25 745 744
f 25 744 24
f 24 744 743
f 24 743 22
f 22 743 21
f 21 743 742
f 21 742 18
f 18 742 741
f 18 741 740
f 18 740 17
f 17 740 739
f 17 739 16
f 16 739 738
f 16 738 13
f 13 738 737
f 13 737 12
f 12 737 715
f 12 715 8
f 8 715 716
f 8 716 7
f 7 716 717
f 7 717 5
f 5 717 719
f 5 719 4
f 4 719 3
f 3 719 721
f 3 721 83
f 83 721 722
f 83 722 81
f 81 722 723
f 81 723 77
f 77 723 724
f 77 724 76
f 76 724 725
f 76 725 74
f 74 725 727
f 74 727 73
f 73 727 728
f 73 728 71
f 71 728 729
f 71 729 70
f 70 729 730
f 70 730 68
f 68 730 732
f 68 732 67
f 67 732 628
f 67 628 733
f 67 733 65
f 65 733 734
f 65 734 62
f 62 734 735
f 62 735 60
f 60 735 736
f 60 736 58
f 58 736 760
f 58 760 55
f 55 760 759
f 55 759 53
f 53 759 758
f 417 517 761
f 762 761 648
f 762 648 519
f 762 519 763
f 517 648 761
f 519 520 763
f 763 520 830
f 647 766 826
f 766 647 531
f 531 825 766
f 825 767 768
f 768 767 824
f 533 646 824
f 824 646 681
f 823 537 822
f 541 769 819
f 769 544 819
f 817 546 770
f 644 551 816
f 816 551 552
f 812 557 643
f 772 641 640
f 809 639 808
f 808 639 568
f 808 568 773
f 807 571 806
f 573 574 805
f 574 775 805
f 775 574 579
f 775 579 776
f 636 583 803
f 777 635 801
f 588 589 800
f 800 589 778
f 589 590 778
f 778 590 592
f 778 592 799
f 780 779 781
f 781 779 598
f 602 603 796
f 603 606 782
f 782 606 783
f 783 606 784
f 606 634 784
f 784 634 785
f 785 634 609
f 609 611 786
f 611 633 786
f 786 633 787
f 787 633 632
f 617 630 794
f 794 630 788
f 630 629 788
f 625 626 791
f 626 627 791
f 789 627 628
f 789 790 627
f 790 791 627
f 625 791 792
f 622 792 793
f 622 793 629
f 629 793 788
f 617 794 795
f 617 795 631
f 631 795 632
f 632 795 787
f 786 785 609
f 603 782 796
f 602 796 600
f 600 796 797
f 600 797 598
f 598 797 781
f 779 780 798
f 798 595 779
f 595 798 592
f 798 799 592
f 800 801 588
f 588 801 635
f 777 801 802
f 802 803 777
f 777 803 583
f 636 803 804
f 636 804 637
f 804 776 637
f 637 776 579
f 573 805 806
f 573 806 571
f 573 571 638
f 571 807 774
f 774 807 773
f 774 773 568
f 639 809 565
f 809 810 565
f 565 810 562
f 562 810 640
f 641 772 642
f 642 772 811
f 642 811 643
f 811 812 643
f 557 812 813
f 557 813 555
f 555 813 814
f 555 814 771
f 771 814 815
f 815 552 771
f 815 816 552
f 816 687 644
f 687 817 644
f 644 817 770
f 546 817 818
f 546 818 544
f 544 818 819
f 541 819 684
f 684 540 541
f 684 821 540
f 540 821 645
f 645 821 822
f 645 822 537
f 537 823 646
f 823 681 646
f 533 824 767
f 647 826 827
f 827 828 765
f 765 828 764
f 828 525 764
f 828 829 525
f 525 829 830
f 525 830 524
f 524 830 520
f 792 622 625
f 405 762 763
f 405 763 830
f 405 830 408
f 408 830 829
f 408 829 674
f 674 829 673
f 673 829 828
f 673 828 675
f 675 828 827
f 675 827 826
f 675 826 676
f 676 826 766
f 676 766 677
f 677 766 825
f 677 825 678
f 678 825 768
f 678 768 679
f 679 768 824
f 679 824 680
f 680 824 681
f 682 681 823
f 682 823 822
f 682 822 669
f 669 822 683
f 683 822 821
f 683 821 684
f 820 684 819
f 820 819 818
f 820 818 685
f 685 818 817
f 685 817 686
f 686 817 687
f 688 687 816
f 688 816 689
f 689 816 815
f 689 815 690
f 690 815 814
f 690 814 691
f 691 814 813
f 691 813 812
f 691 812 666
f 666 812 692
f 692 812 811
f 692 811 693
f 693 811 772
f 772 640 664
f 664 640 810
f 664 810 694
f 694 810 695
f 695 810 809
f 809 808 695
f 695 808 663
f 663 808 662
f 662 808 773
f 662 773 807
f 696 807 806
f 696 806 805
f 696 805 697
f 697 805 775
f 697 775 661
f 661 775 776
f 661 776 698
f 698 776 804
f 804 803 699
f 699 803 802
f 699 802 700
f 700 802 801
f 700 801 701
f 701 801 660
f 660 801 800
f 660 800 778
f 660 778 702
f 702 778 799
f 702 799 703
f 703 799 704
f 704 799 798
f 704 798 705
f 705 798 780
f 705 780 706
f 706 780 781
f 706 781 658
f 658 781 797
f 658 797 707
f 707 797 796
f 707 796 782
f 707 782 708
f 708 782 783
f 783 784 709
f 709 784 785
f 709 785 710
f 710 785 786
f 710 786 657
f 657 786 787
f 657 787 656
f 656 787 655
f 655 787 795
f 655 795 653
f 653 795 794
f 653 794 652
f 652 794 788
f 652 788 711
f 711 788 793
f 711 793 712
f 712 793 792
f 712 792 791
f 712 791 651
f 651 791 713
f 713 791 790
f 713 790 714
f 714 790 789
f 714 789 650
f 650 789 731
f 650 731 649
f 649 731 726
f 649 726 720
f 10 393 394
f 10 394 11
f 14 11 831
f 831 11 832
f 831 832 833
f 384 382 831
f 831 382 14
f 384 831 385
f 385 831 833
f 832 392 386
f 832 386 833
f 833 386 385
f 11 394 832
f 832 394 392
f 14 382 380
f 14 380 834
f 834 380 378
f 834 378 379
f 834 379 835
f 836 15 837
f 837 15 835
f 835 15 834
f 15 375 367
f 375 15 369
f 369 15 836
f 837 376 836
f 836 376 371
f 836 371 369
f 835 379 837
f 837 379 376
f 367 365 15
f 15 365 838
f 838 365 363
f 838 363 839
f 839 363 362
f 840 19 841
f 841 19 839
f 839 19 838
f 19 353 20
f 20 353 351
f 353 19 354
f 354 19 840
f 361 360 841
f 841 360 840
f 840 360 356
f 840 356 354
f 839 362 841
f 841 362 361
f 20 351 842
f 842 351 348
f 842 348 345
f 842 345 346
f 842 346 843
f 26 23 844
f 844 23 845
f 845 23 846
f 846 23 843
f 843 23 842
f 844 336 334
f 844 334 26
f 336 844 337
f 337 844 845
f 343 342 846
f 846 342 845
f 845 342 337
f 843 346 846
f 846 346 343
f 334 332 26
f 26 332 847
f 847 332 329
f 847 329 330
f 848 27 849
f 849 27 847
f 27 322 321
f 27 321 29
f 322 27 324
f 324 27 848
f 328 327 849
f 849 327 848
f 848 327 324
f 847 330 849
f 849 330 328
f 321 320 29
f 29 320 30
f 30 320 317
f 30 317 850
f 850 317 316
f 39 32 851
f 851 32 852
f 852 32 853
f 853 32 850
f 850 32 30
f 309 307 851
f 851 307 39
f 309 851 310
f 310 851 852
f 314 312 853
f 853 312 852
f 852 312 310
f 850 316 853
f 853 316 314
f 307 305 39
f 39 305 303
f 39 303 854
f 854 303 302
f 37 36 294
f 294 36 855
f 855 36 856
f 856 36 854
f 294 291 37
f 293 294 855
f 856 298 296
f 856 296 855
f 855 296 293
f 854 302 856
f 856 302 298
f 37 291 288
f 37 288 38
f 38 288 286
f 38 286 857
f 857 286 285
f 45 41 858
f 858 41 859
f 859 41 860
f 860 41 857
f 857 41 38
f 276 275 858
f 858 275 45
f 276 858 274
f 274 858 859
f 283 280 860
f 860 280 859
f 859 280 278
f 859 278 274
f 857 285 860
f 860 285 283
f 275 272 45
f 45 272 44
f 44 272 268
f 44 268 861
f 861 268 267
f 862 46 863
f 863 46 864
f 864 46 865
f 865 46 861
f 861 46 44
f 863 260 862
f 862 260 258
f 862 258 50
f 260 863 259
f 259 863 864
f 266 262 865
f 865 262 864
f 864 262 259
f 861 267 865
f 865 267 266
f 258 257 50
f 50 257 255
f 50 255 866
f 866 255 253
f 867 244 868
f 868 244 866
f 866 244 50
f 246 243 867
f 867 243 244
f 251 250 868
f 868 250 246
f 868 246 867
f 866 253 868
f 868 253 251
f 54 87 869
f 869 87 870
f 57 56 871
f 871 56 872
f 872 56 873
f 873 56 869
f 869 56 54
f 241 100 871
f 871 100 57
f 241 871 97
f 97 871 872
f 873 90 95
f 873 95 872
f 872 95 97
f 869 870 873
f 873 870 90
f 100 101 57
f 57 101 874
f 874 101 103
f 874 103 240
f 874 240 875
f 61 59 876
f 876 59 877
f 877 59 878
f 878 59 875
f 875 59 874
f 876 239 61
f 61 239 112
f 239 876 111
f 111 876 877
f 878 105 110
f 878 110 877
f 877 110 111
f 875 240 878
f 878 240 105
f 61 112 117
f 61 117 63
f 63 117 119
f 64 63 879
f 879 63 880
f 238 127 64
f 238 64 125
f 125 64 879
f 118 120 880
f 880 120 879
f 879 120 125
f 63 119 880
f 880 119 118
f 127 129 64
f 64 129 881
f 881 129 132
f 881 132 237
f 881 237 882
f 883 66 884
f 884 66 885
f 885 66 882
f 882 66 881
f 883 236 142
f 236 883 141
f 141 883 884
f 134 135 885
f 885 135 138
f 885 138 141
f 885 141 884
f 882 237 885
f 885 237 134
f 883 142 145
f 883 145 886
f 886 145 149
f 886 149 887
f 887 149 151
f 888 69 889
f 889 69 887
f 887 69 886
f 235 156 69
f 155 235 888
f 888 235 69
f 150 152 889
f 889 152 888
f 888 152 155
f 887 151 889
f 889 151 150
f 156 158 69
f 69 158 890
f 890 158 160
f 890 160 891
f 891 160 162
f 75 72 892
f 892 72 893
f 893 72 894
f 894 72 891
f 891 72 890
f 892 234 75
f 75 234 169
f 234 892 167
f 167 892 893
f 163 165 894
f 894 165 893
f 893 165 167
f 894 891 163
f 163 891 162
f 75 169 895
f 895 169 173
f 895 173 175
f 895 175 177
f 896 78 897
f 897 78 895
f 233 232 78
f 78 232 79
f 233 78 184
f 184 78 896
f 897 179 896
f 896 179 182
f 184 896 182
f 895 177 897
f 897 177 179
f 79 232 187
f 79 187 80
f 80 187 190
f 80 190 192
f 2 82 85
f 85 82 898
f 898 82 899
f 899 82 80
f 84 85 200
f 200 85 898
f 193 194 899
f 899 194 898
f 898 194 198
f 898 198 200
f 80 192 899
f 899 192 193
f 86 202 2
f 2 202 900
f 900 202 231
f 900 231 207
f 902 901 903
f 903 901 900
f 230 229 901
f 230 901 212
f 212 901 902
f 206 210 903
f 903 210 902
f 902 210 212
f 900 207 903
f 903 207 206
f 901 229 904
f 904 229 215
f 904 215 216
f 9 6 905
f 905 6 906
f 906 6 907
f 907 6 904
f 905 228 9
f 227 905 906
f 217 220 907
f 907 220 906
f 906 220 223
f 906 223 227
f 904 216 907
f 907 216 217
f 1 10 228
f 228 10 9
