# USD → MuJoCo (world-space, simplified)
v 0.818656 7.106061 0.729185
v 0.817667 7.106038 0.728552
v 0.817982 7.106065 0.727674
v 0.816821 7.106043 0.727498
v 0.816528 7.106054 0.726961
v 0.815916 7.106049 0.726975
v 0.813730 7.106058 0.727084
v 0.812778 7.106126 0.726568
v 0.813149 7.106124 0.726379
v 0.812627 7.106060 0.727785
v 0.811658 7.106067 0.729811
v 0.810828 7.106143 0.730619
v 0.810982 7.106137 0.731244
v 0.812486 7.106056 0.731893
v 0.811129 7.106137 0.731631
v 0.811318 7.106135 0.732002
v 0.813538 7.106093 0.733800
v 0.814270 7.106059 0.733228
v 0.815185 7.106077 0.733971
v 0.815916 7.106049 0.733055
v 0.816523 7.106045 0.732749
v 0.817425 7.106098 0.732973
v 0.817445 7.106023 0.731188
v 0.814764 7.106025 0.730015
v 0.816681 7.132594 0.730015
v 0.816396 7.131467 0.729860
v 0.814912 7.130024 0.730015
v 0.816396 7.131467 0.730170
v 0.816643 7.132595 0.729650
v 0.816332 7.131467 0.729557
v 0.816530 7.132595 0.729302
v 0.816206 7.131468 0.729273
v 0.816346 7.132596 0.728984
v 0.816023 7.131469 0.729022
v 0.816101 7.132598 0.728712
v 0.815793 7.131471 0.728815
v 0.815805 7.132600 0.728496
v 0.815524 7.131473 0.728660
v 0.815470 7.132602 0.728347
v 0.815229 7.131474 0.728564
v 0.815111 7.132604 0.728271
v 0.814921 7.131476 0.728531
v 0.814745 7.132607 0.728271
v 0.814548 7.131537 0.728505
v 0.814318 7.131480 0.728660
v 0.814051 7.132610 0.728496
v 0.814049 7.131482 0.728815
v 0.813755 7.132612 0.728712
v 0.813818 7.131483 0.729022
v 0.813509 7.132614 0.728984
v 0.813636 7.131484 0.729273
v 0.813326 7.132615 0.729302
v 0.813510 7.131485 0.729557
v 0.813213 7.132616 0.729650
v 0.813370 7.131545 0.729904
v 0.813446 7.131485 0.730170
v 0.813213 7.132616 0.730380
v 0.813510 7.131485 0.730474
v 0.813326 7.132615 0.730728
v 0.813636 7.131484 0.730757
v 0.813509 7.132614 0.731046
v 0.813800 7.131542 0.731094
v 0.814049 7.131482 0.731215
v 0.814051 7.132610 0.731534
v 0.814336 7.131539 0.731456
v 0.814613 7.131478 0.731466
v 0.814745 7.132606 0.731759
v 0.814921 7.131476 0.731499
v 0.815111 7.132604 0.731759
v 0.815229 7.131474 0.731466
v 0.815470 7.132602 0.731683
v 0.815601 7.131531 0.731414
v 0.815793 7.131471 0.731215
v 0.816101 7.132598 0.731318
v 0.816111 7.131528 0.731017
v 0.816206 7.131468 0.730757
v 0.816530 7.132595 0.730728
v 0.816416 7.131526 0.730446
v 0.818744 7.106085 0.821830
v 0.817602 7.106018 0.822159
v 0.818210 7.106093 0.820026
v 0.815191 7.106038 0.819178
v 0.812732 7.106067 0.819521
v 0.811795 7.106079 0.820407
v 0.810911 7.106133 0.823024
v 0.810809 7.106139 0.822431
v 0.811129 7.106137 0.823631
v 0.811318 7.106135 0.824002
v 0.811959 7.106053 0.822466
v 0.812105 7.106102 0.824974
v 0.814867 7.106040 0.824852
v 0.815995 7.106095 0.825799
v 0.817335 7.106045 0.824206
v 0.818723 7.106090 0.822442
v 0.814175 7.106025 0.822731
v 0.816681 7.132594 0.822015
v 0.816462 7.131526 0.821801
v 0.814912 7.130024 0.822015
v 0.816396 7.131467 0.822170
v 0.816332 7.131467 0.821557
v 0.816530 7.132595 0.821302
v 0.816206 7.131468 0.821273
v 0.816346 7.132596 0.820984
v 0.816023 7.131469 0.821022
v 0.816101 7.132598 0.820712
v 0.815793 7.131471 0.820815
v 0.815805 7.132600 0.820496
v 0.815524 7.131473 0.820660
v 0.815470 7.132602 0.820347
v 0.815229 7.131474 0.820564
v 0.815111 7.132604 0.820271
v 0.814921 7.131476 0.820531
v 0.814745 7.132606 0.820271
v 0.814548 7.131537 0.820505
v 0.814318 7.131480 0.820660
v 0.814051 7.132610 0.820496
v 0.814049 7.131482 0.820815
v 0.813755 7.132612 0.820712
v 0.813818 7.131483 0.821022
v 0.813509 7.132614 0.820984
v 0.813549 7.131544 0.821282
v 0.813510 7.131485 0.821557
v 0.813213 7.132616 0.821650
v 0.813446 7.131485 0.821860
v 0.813174 7.132616 0.822015
v 0.813446 7.131485 0.822170
v 0.813213 7.132616 0.822380
v 0.813459 7.131545 0.822545
v 0.813636 7.131484 0.822757
v 0.813509 7.132614 0.823046
v 0.813818 7.131483 0.823008
v 0.813755 7.132612 0.823318
v 0.814049 7.131482 0.823215
v 0.814051 7.132610 0.823534
v 0.814336 7.131539 0.823456
v 0.814613 7.131478 0.823466
v 0.814745 7.132606 0.823759
v 0.814921 7.131476 0.823499
v 0.815111 7.132604 0.823759
v 0.815229 7.131474 0.823466
v 0.815470 7.132602 0.823683
v 0.815524 7.131473 0.823370
v 0.815805 7.132600 0.823534
v 0.815793 7.131471 0.823215
v 0.816101 7.132598 0.823318
v 0.816023 7.131469 0.823008
v 0.816346 7.132596 0.823046
v 0.816206 7.131468 0.822757
v 0.816530 7.132595 0.822728
v 0.816332 7.131467 0.822474
v 0.816643 7.132595 0.822380
v 0.817213 7.142009 0.730646
v 0.814877 7.142024 0.726178
v 0.818707 7.142002 0.822936
v 0.815623 7.142010 0.819800
v 0.811260 7.142044 0.822472
v 0.816972 7.141761 0.729872
v 0.816045 7.141687 0.728330
v 0.815937 7.135825 0.728302
v 0.816110 7.135824 0.728415
v 0.814981 7.141856 0.728016
v 0.815155 7.135829 0.728048
v 0.813990 7.141839 0.728272
v 0.813299 7.141757 0.728954
v 0.814877 7.141756 0.732025
v 0.815914 7.141746 0.731776
v 0.816782 7.141780 0.730948
v 0.816514 7.141737 0.820740
v 0.815680 7.141733 0.820133
v 0.816108 7.135840 0.820413
v 0.814817 7.136074 0.820038
v 0.814329 7.141816 0.820102
v 0.813512 7.141918 0.820631
v 0.813021 7.141706 0.821633
v 0.813013 7.135843 0.822426
v 0.813177 7.141830 0.822952
v 0.813843 7.141851 0.823686
v 0.814913 7.141753 0.824009
v 0.816758 7.141864 0.822995
v 0.818296 7.141859 0.727818
v 0.815624 7.141930 0.726091
v 0.816291 7.141809 0.818259
v 0.813259 7.141773 0.731035
v 0.813877 7.141833 0.731678
v 0.817308 7.141851 0.726791
v 0.812835 7.142037 0.733122
v 0.816710 7.141995 0.733423
v 0.818445 7.142002 0.731533
v 0.818521 7.141979 0.820645
v 0.817185 7.142009 0.818897
v 0.811529 7.142044 0.820252
v 0.816317 7.142017 0.825614
v 0.811902 7.141813 0.732532
v 0.816807 7.141812 0.733553
v 0.818200 7.141754 0.732351
v 0.818384 7.141752 0.819951
v 0.817933 7.141748 0.819351
v 0.816966 7.141754 0.818570
v 0.814160 7.141831 0.818128
v 0.811427 7.141848 0.820232
v 0.812653 7.141787 0.825234
v 0.813795 7.141870 0.825799
v 0.818386 7.141742 0.824074
v 0.815146 7.142015 0.824242
v 0.818710 7.142001 0.729174
v 0.811227 7.142040 0.728756
v 0.814607 7.142016 0.818067
v 0.816705 7.141840 0.728979
v 0.812972 7.141806 0.729933
v 0.812752 7.142012 0.822033
v 0.817942 7.141823 0.732670
v 0.818429 7.141745 0.731997
v 0.815815 7.141995 0.728013
v 0.812012 7.141896 0.727362
v 0.811482 7.142041 0.731505
v 0.813633 7.142023 0.733739
v 0.812721 7.142037 0.825040
v 0.815214 7.141833 0.825988
v 0.816978 7.141801 0.821703
v 0.816063 7.141961 0.823751
v 0.818960 7.141783 0.730096
v 0.818911 7.137242 0.729599
v 0.818846 7.137242 0.729188
v 0.818671 7.137927 0.728571
v 0.818834 7.141821 0.728938
v 0.818400 7.137245 0.728027
v 0.818044 7.137924 0.727496
v 0.817713 7.141809 0.727122
v 0.816966 7.141696 0.726570
v 0.816598 7.141812 0.726383
v 0.816000 7.141713 0.726167
v 0.815192 7.106112 0.726057
v 0.814754 7.141805 0.726042
v 0.814151 7.141714 0.726129
v 0.813750 7.141716 0.726237
v 0.813223 7.141974 0.726466
v 0.813136 7.138005 0.726476
v 0.812725 7.141846 0.726742
v 0.812133 7.138045 0.727212
v 0.811551 7.106134 0.727666
v 0.811543 7.141885 0.728029
v 0.811324 7.137289 0.728398
v 0.811110 7.138018 0.729003
v 0.811052 7.141909 0.729442
v 0.810807 7.106139 0.729588
v 0.811010 7.141829 0.730017
v 0.811204 7.141825 0.731245
v 0.811447 7.141829 0.731838
v 0.812427 7.141788 0.733061
v 0.813002 7.141722 0.733460
v 0.813553 7.138168 0.733739
v 0.814387 7.141771 0.733950
v 0.815136 7.141820 0.733989
v 0.815636 7.141737 0.733942
v 0.816215 7.141780 0.733794
v 0.817507 7.141725 0.733093
v 0.818705 7.141746 0.731428
v 0.818857 7.141793 0.730920
v 0.818723 7.106090 0.730442
v 0.818871 7.130584 0.821599
v 0.818891 7.141752 0.821270
v 0.818691 7.141744 0.820567
v 0.817992 7.106095 0.819684
v 0.817470 7.141752 0.818907
v 0.816394 7.106104 0.818383
v 0.815809 7.141787 0.818126
v 0.815181 7.141852 0.818040
v 0.814360 7.106117 0.818055
v 0.813536 7.141721 0.818308
v 0.812784 7.106127 0.818562
v 0.812909 7.141948 0.818640
v 0.812434 7.106129 0.818788
v 0.812291 7.141850 0.819078
v 0.812133 7.138008 0.819212
v 0.811765 7.141786 0.819684
v 0.811134 7.141791 0.821009
v 0.811010 7.141853 0.821827
v 0.811096 7.141825 0.822843
v 0.811205 7.141854 0.823247
v 0.811356 7.141855 0.823636
v 0.811552 7.141888 0.824016
v 0.811773 7.141786 0.824356
v 0.812188 7.141785 0.824847
v 0.813198 7.141723 0.825571
v 0.813982 7.141695 0.825867
v 0.814575 7.141712 0.825968
v 0.815581 7.106109 0.825911
v 0.816075 7.141916 0.825835
v 0.816437 7.141836 0.825721
v 0.817085 7.141765 0.825392
v 0.817096 7.106100 0.825242
v 0.817646 7.141771 0.824967
v 0.817942 7.141806 0.824669
v 0.817979 7.106095 0.824364
v 0.818397 7.106093 0.823645
v 0.818739 7.141753 0.823325
v 0.818901 7.141748 0.822707
v 0.813031 7.142008 0.728962
v 0.813336 7.142027 0.731740
v 0.815679 7.141995 0.732104
v 0.817153 7.141984 0.821410
v 0.818722 7.106090 0.729602
v 0.818743 7.106090 0.730018
v 0.818400 7.106092 0.728399
v 0.818550 7.106056 0.728792
v 0.818212 7.106093 0.728028
v 0.817429 7.106098 0.727060
v 0.817725 7.106061 0.727357
v 0.816756 7.106102 0.726570
v 0.817105 7.106100 0.726798
v 0.815997 7.106107 0.726232
v 0.816385 7.106104 0.726381
v 0.815595 7.106109 0.726124
v 0.814354 7.106080 0.726058
v 0.814793 7.106081 0.726037
v 0.813538 7.106122 0.726230
v 0.813940 7.106119 0.726123
v 0.812105 7.106131 0.727057
v 0.812428 7.106129 0.726795
v 0.811810 7.106133 0.727351
v 0.811129 7.106107 0.728400
v 0.811321 7.106135 0.728023
v 0.810874 7.106138 0.729186
v 0.810982 7.106137 0.728783
v 0.810786 7.106139 0.730012
v 0.811096 7.141825 0.730843
v 0.811031 7.141826 0.730433
v 0.811545 7.106134 0.732352
v 0.812101 7.106131 0.732970
v 0.811807 7.106133 0.732675
v 0.812774 7.106126 0.733459
v 0.812416 7.106129 0.733229
v 0.813144 7.106124 0.733649
v 0.814347 7.106117 0.733972
v 0.813935 7.106119 0.733906
v 0.814762 7.106114 0.733994
v 0.815992 7.106107 0.733800
v 0.815585 7.106074 0.733908
v 0.816752 7.106102 0.733462
v 0.816381 7.106104 0.733651
v 0.817101 7.106100 0.733235
v 0.817982 7.106094 0.732355
v 0.817720 7.106096 0.732679
v 0.818398 7.106092 0.731636
v 0.818209 7.106093 0.732007
v 0.818656 7.106090 0.730845
v 0.818548 7.106091 0.731247
v 0.818657 7.106090 0.821190
v 0.818960 7.141739 0.822011
v 0.818400 7.106092 0.820399
v 0.818549 7.106091 0.820788
v 0.817429 7.106098 0.819060
v 0.817727 7.106062 0.819359
v 0.816756 7.106102 0.818570
v 0.817105 7.106100 0.818798
v 0.815857 7.106103 0.818185
v 0.815183 7.106112 0.818058
v 0.814767 7.106114 0.818036
v 0.813538 7.106122 0.818230
v 0.813940 7.106119 0.818123
v 0.813149 7.106124 0.818379
v 0.812104 7.106131 0.819057
v 0.811547 7.106134 0.819675
v 0.811810 7.106133 0.819351
v 0.811131 7.106137 0.820395
v 0.811321 7.106135 0.820024
v 0.810874 7.106138 0.821186
v 0.810982 7.106137 0.820783
v 0.810786 7.106139 0.822012
v 0.810808 7.106139 0.821597
v 0.811031 7.141826 0.822433
v 0.811544 7.106134 0.824351
v 0.811807 7.106133 0.824676
v 0.812774 7.106126 0.825460
v 0.812424 7.106129 0.825232
v 0.813533 7.106122 0.825798
v 0.813144 7.106124 0.825649
v 0.814346 7.106117 0.825972
v 0.813935 7.106119 0.825906
v 0.815178 7.106112 0.825972
v 0.814762 7.106114 0.825994
v 0.816752 7.106102 0.825462
v 0.816381 7.106104 0.825651
v 0.817425 7.106098 0.824973
v 0.817720 7.106096 0.824679
v 0.818209 7.106093 0.824007
v 0.818656 7.106090 0.822845
v 0.818548 7.106091 0.823247
v 0.816883 7.135819 0.729604
v 0.816925 7.135570 0.729935
v 0.816788 7.136062 0.729279
v 0.816595 7.136064 0.728913
v 0.816330 7.136069 0.728595
v 0.815560 7.135841 0.728134
v 0.815752 7.135826 0.728208
v 0.815359 7.135828 0.728080
v 0.814817 7.136074 0.728038
v 0.814409 7.136081 0.728109
v 0.814025 7.136079 0.728263
v 0.813563 7.135591 0.728598
v 0.813783 7.135854 0.728417
v 0.813347 7.135840 0.728852
v 0.813172 7.136085 0.729141
v 0.813029 7.136086 0.729530
v 0.813027 7.135594 0.730504
v 0.812963 7.135862 0.730035
v 0.813141 7.135842 0.730820
v 0.813303 7.136083 0.731117
v 0.813569 7.136082 0.731435
v 0.813894 7.136080 0.731692
v 0.814819 7.135583 0.731991
v 0.814353 7.135848 0.731909
v 0.815155 7.135829 0.731982
v 0.815489 7.136070 0.731921
v 0.815957 7.135838 0.731724
v 0.816271 7.135823 0.731485
v 0.816755 7.135819 0.730820
v 0.816565 7.135835 0.731166
v 0.816893 7.135832 0.730409
v 0.816722 7.135571 0.821138
v 0.816885 7.135832 0.821583
v 0.816548 7.135821 0.820852
v 0.816271 7.135823 0.820545
v 0.816418 7.135822 0.820691
v 0.815867 7.135576 0.820261
v 0.815559 7.135827 0.820134
v 0.815231 7.136072 0.820054
v 0.813888 7.135589 0.820341
v 0.814316 7.135849 0.820133
v 0.813624 7.135839 0.820545
v 0.813392 7.136083 0.820790
v 0.813172 7.136085 0.821141
v 0.813029 7.136085 0.821530
v 0.812967 7.135594 0.822095
v 0.812981 7.135843 0.821808
v 0.813347 7.135840 0.823178
v 0.813143 7.135856 0.822840
v 0.813569 7.136082 0.823435
v 0.813894 7.136080 0.823692
v 0.814818 7.135583 0.823991
v 0.814353 7.135848 0.823909
v 0.815155 7.135829 0.823982
v 0.815489 7.136070 0.823921
v 0.815874 7.136067 0.823767
v 0.816218 7.136065 0.823537
v 0.816506 7.136064 0.823240
v 0.816727 7.136062 0.822889
v 0.816870 7.136061 0.822501
v 0.816929 7.136061 0.822091
v 0.820524 7.104380 0.861523
v 0.820260 7.103387 0.849154
v 0.820247 7.103380 0.867289
v 0.819810 7.102449 0.867288
v 0.819231 7.101609 0.861348
v 0.818501 7.100881 0.861542
v 0.817647 7.100294 0.867289
v 0.816728 7.099856 0.849154
v 0.816714 7.099862 0.867289
v 0.815734 7.099589 0.849154
v 0.814707 7.099500 0.849154
v 0.812686 7.099856 0.849154
v 0.811753 7.100291 0.849156
v 0.810909 7.100882 0.849154
v 0.810180 7.101610 0.849154
v 0.809590 7.102458 0.861506
v 0.809154 7.103387 0.849154
v 0.808888 7.104383 0.849154
v 0.808800 7.105412 0.861513
v 0.809154 7.107430 0.849154
v 0.808889 7.106435 0.860391
v 0.809590 7.108363 0.849154
v 0.810184 7.109208 0.861532
v 0.810913 7.109935 0.861572
v 0.811753 7.110526 0.849164
v 0.813681 7.111228 0.849154
v 0.813682 7.111228 0.691796
v 0.814707 7.111317 0.849154
v 0.815734 7.111228 0.849154
v 0.816728 7.110961 0.849127
v 0.819234 7.109207 0.849154
v 0.819825 7.108363 0.849154
v 0.820260 7.107430 0.849154
v 0.820526 7.106435 0.848834
v 0.819824 7.102454 0.848925
v 0.819234 7.101610 0.703812
v 0.810909 7.109935 0.702917
v 0.817662 7.110526 0.849154
v 0.820260 7.107430 0.702923
v 0.813681 7.099589 0.849154
v 0.812686 7.110961 0.849154
v 0.819234 7.109207 0.691583
v 0.820617 7.105409 0.860469
v 0.817662 7.100291 0.849154
v 0.818505 7.100882 0.702885
v 0.818505 7.109935 0.849148
v 0.820526 7.104383 0.702877
v 0.820617 7.105409 0.702877
v 0.820260 7.103391 0.690558
v 0.819824 7.102458 0.690521
v 0.817662 7.100291 0.702877
v 0.816728 7.099856 0.702877
v 0.815734 7.099589 0.702877
v 0.814707 7.099500 0.702877
v 0.813681 7.099589 0.702877
v 0.812686 7.099856 0.702877
v 0.811753 7.100291 0.702877
v 0.810909 7.100882 0.702920
v 0.810180 7.101610 0.703805
v 0.809590 7.102454 0.702885
v 0.809154 7.103387 0.702877
v 0.808891 7.104380 0.690501
v 0.808798 7.105409 0.702877
v 0.808808 7.105397 0.684742
v 0.808890 7.106431 0.690532
v 0.809154 7.107430 0.703020
v 0.809160 7.107416 0.684742
v 0.809590 7.108363 0.691684
v 0.810180 7.109207 0.702944
v 0.811751 7.110523 0.690393
v 0.810907 7.109920 0.684741
v 0.812684 7.110958 0.690417
v 0.815733 7.111228 0.691790
v 0.814706 7.111318 0.692105
v 0.817658 7.110526 0.690375
v 0.816725 7.110960 0.690422
v 0.818502 7.109935 0.690506
v 0.819825 7.108363 0.702694
v 0.819810 7.108367 0.684742
v 0.820526 7.106435 0.702877
v 0.813709 7.107761 0.867915
v 0.810449 7.105893 0.867943
v 0.813208 7.107364 0.684115
v 0.815562 7.102196 0.684106
v 0.810717 7.104426 0.684096
v 0.818338 7.106854 0.684106
v 0.819409 7.102726 0.867899
v 0.809492 7.106026 0.867997
v 0.810880 7.109196 0.867896
v 0.814210 7.110770 0.867895
v 0.816967 7.110296 0.867896
v 0.814674 7.100131 0.684033
v 0.810295 7.102388 0.684045
v 0.819128 7.108482 0.684134
v 0.819223 7.101624 0.867302
v 0.818497 7.100899 0.867302
v 0.815722 7.099597 0.867205
v 0.814697 7.099509 0.867244
v 0.813673 7.099600 0.867205
v 0.812680 7.099869 0.867205
v 0.811749 7.100304 0.867205
v 0.810907 7.100896 0.867204
v 0.810181 7.101624 0.867205
v 0.809608 7.102459 0.867302
v 0.809160 7.103402 0.867289
v 0.808811 7.105840 0.867307
v 0.809168 7.107437 0.867289
v 0.809603 7.108366 0.867204
v 0.810918 7.109918 0.867302
v 0.811768 7.110524 0.867288
v 0.814719 7.111307 0.867289
v 0.816736 7.110948 0.867288
v 0.817667 7.110512 0.867288
v 0.819822 7.108347 0.867288
v 0.820255 7.107415 0.867288
v 0.820519 7.106423 0.867204
v 0.820519 7.104396 0.684742
v 0.820034 7.102845 0.684724
v 0.819234 7.101625 0.684742
v 0.817667 7.100305 0.684741
v 0.816736 7.099870 0.684741
v 0.815743 7.099601 0.684741
v 0.812701 7.099862 0.684741
v 0.809604 7.102450 0.684826
v 0.808905 7.104390 0.684728
v 0.810181 7.109192 0.684741
v 0.811765 7.110513 0.684728
v 0.813688 7.111211 0.684728
v 0.815307 7.111290 0.684723
v 0.817282 7.110730 0.684724
v 0.818946 7.109529 0.684723
v 0.820247 7.107437 0.684742
v 0.820514 7.106445 0.684742
v 0.817810 7.101007 0.867896
v 0.809758 7.103569 0.867995
v 0.819908 7.106322 0.684033
v 0.817312 7.100802 0.684043
v 0.811767 7.100294 0.684786
v 0.809168 7.103380 0.684741
v 0.820509 7.104389 0.867302
v 0.820599 7.105412 0.867302
v 0.812774 7.100227 0.867839
v 0.810851 7.101528 0.867847
v 0.808896 7.104396 0.867288
v 0.809822 7.107800 0.867866
v 0.810192 7.109192 0.867302
v 0.812701 7.110956 0.867288
v 0.813694 7.111220 0.867289
v 0.815743 7.111217 0.867288
v 0.818508 7.109920 0.867289
v 0.819234 7.109191 0.867288
v 0.820607 7.105420 0.684742
v 0.818508 7.100898 0.684742
v 0.814719 7.099510 0.684742
v 0.813695 7.099597 0.684741
v 0.810925 7.100882 0.684742
v 0.810195 7.101608 0.684742
v 0.808907 7.106435 0.684728
v 0.809608 7.108357 0.684728
v 0.812696 7.110946 0.684728
v 0.819930 7.104735 0.867988
v 0.819881 7.106420 0.868000
v 0.815983 7.100284 0.867996
v 0.813918 7.100171 0.867992
v 0.812354 7.110103 0.867991
v 0.815604 7.110550 0.867999
v 0.817970 7.109483 0.868002
v 0.819280 7.108076 0.867987
v 0.809470 7.105015 0.684037
v 0.809659 7.106813 0.684030
v 0.818286 7.107330 0.867927
v 0.811038 7.102278 0.867963
v 0.815395 7.101261 0.867935
v 0.819514 7.103113 0.684035
v 0.812308 7.100714 0.684047
v 0.810679 7.108829 0.684038
v 0.812530 7.110176 0.684031
v 0.815208 7.110707 0.684033
v 0.817775 7.109663 0.684036
f 302 303 23
f 1 302 23
f 305 2 304
f 306 304 2
f 3 306 2
f 308 4 307
f 310 307 4
f 4 5 309
f 309 310 4
f 5 6 312
f 312 309 5
f 311 312 6
f 6 315 313
f 313 311 6
f 232 313 315
f 314 7 317
f 316 317 7
f 9 316 7
f 7 10 8
f 8 9 7
f 319 8 10
f 318 319 10
f 320 318 10
f 240 320 10
f 322 240 10
f 321 322 10
f 321 11 324
f 323 324 11
f 245 323 11
f 325 245 11
f 12 325 11
f 11 14 13
f 13 12 11
f 15 13 14
f 16 15 14
f 328 16 14
f 330 328 14
f 329 330 14
f 332 329 14
f 331 332 14
f 333 331 14
f 17 333 14
f 17 18 335
f 334 335 18
f 18 19 336
f 336 334 18
f 338 20 337
f 340 337 20
f 20 21 339
f 339 340 20
f 341 339 21
f 21 23 22
f 22 341 21
f 343 22 23
f 342 343 23
f 345 342 23
f 344 345 23
f 347 344 23
f 346 347 23
f 259 346 23
f 303 259 23
f 21 24 23
f 21 20 24
f 338 24 20
f 24 338 19
f 18 24 19
f 17 14 24
f 24 18 17
f 11 24 14
f 321 10 24
f 24 11 321
f 7 24 10
f 314 24 7
f 24 314 315
f 6 24 315
f 5 4 24
f 24 6 5
f 308 24 4
f 3 2 24
f 24 308 3
f 305 24 2
f 1 23 24
f 24 305 1
f 25 26 27
f 27 28 25
f 26 29 30
f 30 27 26
f 31 32 27
f 27 30 31
f 32 33 34
f 34 27 32
f 35 36 27
f 27 34 35
f 36 37 38
f 38 27 36
f 39 40 27
f 27 38 39
f 40 41 42
f 42 27 40
f 43 44 27
f 27 42 43
f 45 27 44
f 46 47 27
f 27 45 46
f 47 48 49
f 49 27 47
f 50 51 27
f 27 49 50
f 51 52 53
f 53 27 51
f 54 55 27
f 27 53 54
f 56 27 55
f 57 58 27
f 27 56 57
f 58 59 60
f 60 27 58
f 61 62 27
f 27 60 61
f 63 27 62
f 64 65 27
f 27 63 64
f 66 27 65
f 67 68 27
f 27 66 67
f 68 69 70
f 70 27 68
f 71 72 27
f 27 70 71
f 73 27 72
f 74 75 27
f 27 73 74
f 76 27 75
f 77 78 27
f 27 76 77
f 28 27 78
f 348 79 80
f 351 348 80
f 350 351 80
f 81 350 80
f 80 353 263
f 263 81 80
f 353 82 355
f 355 352 353
f 354 355 82
f 265 354 82
f 356 265 82
f 357 356 82
f 358 357 82
f 268 358 82
f 360 268 82
f 359 360 82
f 361 359 82
f 82 83 270
f 270 361 82
f 272 270 83
f 362 272 83
f 364 362 83
f 83 84 363
f 363 364 83
f 366 363 84
f 365 366 84
f 84 89 368
f 368 365 84
f 367 368 89
f 370 367 89
f 369 370 89
f 86 369 89
f 85 86 89
f 87 85 89
f 88 87 89
f 372 88 89
f 373 372 89
f 90 373 89
f 90 95 375
f 374 375 95
f 95 91 377
f 377 374 95
f 376 377 91
f 379 376 91
f 378 379 91
f 381 378 91
f 380 381 91
f 287 380 91
f 92 287 91
f 92 91 383
f 382 383 91
f 291 382 91
f 91 93 384
f 384 291 91
f 385 384 93
f 294 385 93
f 93 80 386
f 386 294 93
f 295 386 80
f 388 295 80
f 387 388 80
f 94 387 80
f 79 94 80
f 95 80 93
f 91 95 93
f 90 89 95
f 95 89 84
f 83 95 84
f 82 95 83
f 353 95 82
f 353 80 95
f 96 97 98
f 98 99 96
f 100 98 97
f 101 102 98
f 98 100 101
f 102 103 104
f 104 98 102
f 105 106 98
f 98 104 105
f 106 107 108
f 108 98 106
f 109 110 98
f 98 108 109
f 110 111 112
f 112 98 110
f 113 114 98
f 98 112 113
f 115 98 114
f 116 117 98
f 98 115 116
f 117 118 119
f 119 98 117
f 120 121 98
f 98 119 120
f 122 98 121
f 123 124 98
f 98 122 123
f 124 125 126
f 126 98 124
f 127 128 98
f 98 126 127
f 129 98 128
f 130 131 98
f 98 129 130
f 131 132 133
f 133 98 131
f 134 135 98
f 98 133 134
f 136 98 135
f 137 138 98
f 98 136 137
f 138 139 140
f 140 98 138
f 141 142 98
f 98 140 141
f 142 143 144
f 144 98 142
f 145 146 98
f 98 144 145
f 146 147 148
f 148 98 146
f 149 150 98
f 98 148 149
f 150 151 99
f 99 98 150
f 186 206 215
f 186 298 206
f 186 216 299
f 216 188 300
f 188 152 300
f 207 155 190
f 191 155 207
f 217 191 156
f 191 217 210
f 217 192 204
f 192 154 220
f 389 390 157
f 391 389 157
f 157 208 391
f 392 391 208
f 158 393 208
f 393 392 208
f 159 160 158
f 160 393 158
f 158 213 394
f 394 395 158
f 395 159 158
f 161 394 213
f 162 396 161
f 394 161 396
f 397 162 161
f 163 398 161
f 398 397 161
f 399 398 163
f 401 163 400
f 401 399 163
f 164 163 298
f 402 400 164
f 163 164 400
f 403 402 164
f 404 403 164
f 164 209 404
f 406 404 209
f 406 209 405
f 407 405 183
f 209 183 405
f 408 407 183
f 183 184 409
f 409 408 183
f 410 409 184
f 184 165 412
f 412 410 184
f 411 412 165
f 413 411 165
f 165 300 166
f 165 166 414
f 414 413 165
f 415 414 166
f 300 152 167
f 167 166 300
f 416 415 166
f 166 167 416
f 418 416 167
f 417 418 167
f 419 417 167
f 390 419 157
f 167 157 419
f 421 449 219
f 420 421 219
f 422 420 168
f 219 168 420
f 423 424 168
f 424 422 168
f 170 168 169
f 170 169 425
f 170 423 168
f 426 425 169
f 427 426 169
f 171 427 169
f 169 172 171
f 429 171 172
f 428 429 172
f 430 428 172
f 172 173 430
f 431 430 173
f 173 210 174
f 173 174 432
f 432 431 173
f 433 432 174
f 434 435 174
f 435 433 174
f 175 434 176
f 174 176 434
f 437 175 176
f 436 437 176
f 438 436 176
f 439 438 176
f 176 177 439
f 441 439 177
f 440 441 178
f 177 178 441
f 442 440 178
f 443 442 178
f 178 220 443
f 444 443 220
f 220 179 445
f 445 444 220
f 446 445 179
f 447 446 179
f 448 447 179
f 449 448 179
f 179 219 449
f 238 214 236
f 214 241 236
f 244 246 327
f 244 327 326
f 326 215 244
f 215 326 247
f 215 247 248
f 215 248 193
f 193 186 215
f 186 193 249
f 186 249 216
f 216 252 253
f 195 188 211
f 188 195 212
f 188 212 257
f 188 257 258
f 154 349 261
f 261 189 154
f 189 261 262
f 189 262 196
f 196 190 189
f 190 196 197
f 190 197 264
f 190 264 198
f 190 198 182
f 191 275 200
f 276 191 200
f 191 276 277
f 371 156 277
f 156 371 278
f 156 278 279
f 281 282 283
f 283 217 281
f 203 154 293
f 154 203 296
f 154 296 297
f 154 297 349
f 209 299 183
f 183 299 184
f 299 165 184
f 165 299 300
f 176 210 177
f 211 188 187
f 273 191 271
f 210 176 174
f 205 225 180
f 205 180 185
f 185 153 205
f 153 185 181
f 236 206 153
f 244 215 206
f 187 188 216
f 152 188 205
f 189 190 154
f 207 271 191
f 156 281 217
f 217 202 192
f 158 208 213
f 298 209 164
f 301 168 219
f 168 301 169
f 155 172 169
f 180 228 185
f 153 181 233
f 253 254 255
f 253 255 194
f 256 187 194
f 187 256 211
f 225 205 221
f 182 266 267
f 201 217 283
f 217 201 202
f 288 289 290
f 290 192 288
f 192 290 292
f 192 292 293
f 157 152 208
f 209 298 299
f 173 172 155
f 178 177 204
f 301 219 179
f 185 230 181
f 241 206 236
f 253 187 216
f 187 253 194
f 221 188 258
f 188 221 205
f 190 182 267
f 190 267 207
f 207 199 271
f 191 277 156
f 156 279 280
f 156 280 281
f 218 192 202
f 192 218 288
f 293 154 192
f 152 157 167
f 155 169 301
f 204 220 178
f 222 225 221
f 225 222 223
f 225 223 224
f 225 224 226
f 226 180 225
f 180 226 227
f 227 228 180
f 229 230 185
f 181 230 231
f 181 231 232
f 181 232 233
f 153 233 234
f 235 236 153
f 153 234 235
f 237 236 235
f 237 238 236
f 239 214 238
f 214 239 240
f 214 240 241
f 242 206 241
f 206 242 243
f 243 244 206
f 244 243 245
f 244 245 246
f 249 332 250
f 250 216 249
f 251 216 250
f 216 251 252
f 259 221 258
f 260 261 349
f 196 263 197
f 265 182 198
f 207 267 268
f 207 268 199
f 269 271 199
f 270 271 269
f 271 270 272
f 272 273 271
f 273 272 274
f 273 274 275
f 191 273 275
f 284 202 201
f 285 202 284
f 286 218 202
f 202 285 286
f 287 288 218
f 288 287 289
f 290 291 292
f 294 203 293
f 295 296 203
f 297 94 349
f 208 152 213
f 205 213 152
f 213 205 153
f 298 161 213
f 153 298 213
f 298 163 161
f 298 153 206
f 186 299 298
f 300 299 216
f 301 154 190
f 301 190 155
f 173 155 191
f 191 210 173
f 210 217 204
f 177 210 204
f 192 220 204
f 220 301 179
f 154 301 220
f 1 223 222
f 222 302 1
f 221 303 302
f 302 222 221
f 224 305 304
f 223 1 305
f 305 224 223
f 3 227 226
f 226 306 3
f 224 304 306
f 306 226 224
f 307 228 227
f 227 308 307
f 227 3 308
f 309 229 185
f 185 310 309
f 228 307 310
f 310 185 228
f 311 231 230
f 230 312 311
f 229 309 312
f 312 230 229
f 231 313 232
f 231 311 313
f 233 315 314
f 315 233 232
f 316 235 234
f 234 317 316
f 233 314 317
f 317 234 233
f 237 9 8
f 235 316 9
f 9 237 235
f 318 239 238
f 238 319 318
f 237 8 319
f 319 238 237
f 239 320 240
f 239 318 320
f 321 242 241
f 241 322 321
f 322 241 240
f 243 324 323
f 242 321 324
f 324 243 242
f 325 246 245
f 243 323 245
f 12 326 327
f 246 325 327
f 12 327 325
f 247 13 15
f 15 248 247
f 326 12 13
f 13 247 326
f 328 193 248
f 248 16 328
f 248 15 16
f 329 249 193
f 193 330 329
f 193 328 330
f 331 250 332
f 249 329 332
f 251 333 17
f 250 331 333
f 333 251 250
f 252 335 334
f 251 17 335
f 335 252 251
f 19 254 253
f 253 336 19
f 252 334 336
f 336 253 252
f 337 255 254
f 254 338 337
f 254 19 338
f 194 340 339
f 255 337 340
f 340 194 255
f 256 341 22
f 194 339 341
f 341 256 194
f 342 195 211
f 211 343 342
f 256 22 343
f 343 211 256
f 344 257 212
f 212 345 344
f 195 342 345
f 345 212 195
f 346 258 257
f 257 347 346
f 257 344 347
f 303 221 259
f 258 346 259
f 260 79 348
f 348 261 260
f 79 260 349
f 262 351 350
f 261 348 351
f 351 262 261
f 196 81 263
f 262 350 196
f 81 196 350
f 352 264 197
f 197 353 352
f 353 197 263
f 354 198 264
f 264 355 354
f 264 352 355
f 356 182 265
f 198 354 265
f 266 356 357
f 357 267 266
f 182 356 266
f 267 358 268
f 267 357 358
f 359 269 199
f 199 360 359
f 360 199 268
f 269 361 270
f 269 359 361
f 362 274 272
f 363 275 274
f 274 364 363
f 274 362 364
f 200 366 365
f 275 363 366
f 366 200 275
f 276 368 367
f 200 365 368
f 368 276 200
f 277 370 369
f 276 367 370
f 370 277 276
f 85 278 371
f 371 86 85
f 277 369 371
f 86 371 369
f 279 85 87
f 87 280 279
f 85 279 278
f 372 282 281
f 281 88 372
f 280 87 88
f 88 281 280
f 283 373 90
f 282 372 373
f 373 283 282
f 374 284 201
f 201 375 374
f 283 90 375
f 375 201 283
f 376 285 284
f 284 377 376
f 284 374 377
f 378 286 285
f 285 379 378
f 285 376 379
f 218 381 380
f 286 378 381
f 381 218 286
f 92 289 287
f 218 380 287
f 382 290 289
f 289 383 382
f 289 92 383
f 384 292 291
f 290 382 291
f 293 385 294
f 292 384 385
f 385 293 292
f 203 386 295
f 386 203 294
f 387 297 296
f 296 388 387
f 388 296 295
f 79 349 94
f 297 387 94
f 389 29 26
f 26 390 389
f 390 26 25
f 391 31 30
f 29 389 391
f 391 30 29
f 392 33 32
f 31 391 392
f 392 32 31
f 393 35 34
f 33 392 393
f 393 34 33
f 159 37 36
f 36 160 159
f 35 393 160
f 160 36 35
f 394 39 38
f 38 395 394
f 37 159 395
f 395 38 37
f 162 41 40
f 40 396 162
f 39 394 396
f 396 40 39
f 397 43 42
f 41 162 397
f 397 42 41
f 43 397 398
f 398 44 43
f 399 46 45
f 44 398 399
f 399 45 44
f 400 48 47
f 47 401 400
f 46 399 401
f 401 47 46
f 402 50 49
f 49 400 402
f 400 49 48
f 403 52 51
f 50 402 403
f 403 51 50
f 404 54 53
f 52 403 404
f 404 53 52
f 54 404 406
f 406 55 54
f 405 57 56
f 56 406 405
f 406 56 55
f 407 59 58
f 58 405 407
f 405 58 57
f 408 61 60
f 59 407 408
f 408 60 59
f 61 408 409
f 409 62 61
f 410 64 63
f 62 409 410
f 410 63 62
f 64 410 412
f 412 65 64
f 411 67 66
f 66 412 411
f 412 66 65
f 413 69 68
f 68 411 413
f 411 68 67
f 414 71 70
f 69 413 414
f 414 70 69
f 71 414 415
f 415 72 71
f 416 74 73
f 73 415 416
f 415 73 72
f 74 416 418
f 418 75 74
f 417 77 76
f 76 418 417
f 418 76 75
f 77 417 419
f 419 78 77
f 390 25 28
f 28 419 390
f 419 28 78
f 96 449 421
f 421 97 96
f 420 101 100
f 100 421 420
f 421 100 97
f 422 103 102
f 102 420 422
f 420 102 101
f 423 105 104
f 104 424 423
f 103 422 424
f 424 104 103
f 425 107 106
f 106 170 425
f 105 423 170
f 170 106 105
f 426 109 108
f 108 425 426
f 425 108 107
f 427 111 110
f 109 426 427
f 427 110 109
f 171 113 112
f 111 427 171
f 171 112 111
f 113 171 429
f 429 114 113
f 428 116 115
f 115 429 428
f 429 115 114
f 430 118 117
f 117 428 430
f 428 117 116
f 431 120 119
f 118 430 431
f 431 119 118
f 120 431 432
f 432 121 120
f 433 123 122
f 121 432 433
f 433 122 121
f 434 125 124
f 124 435 434
f 123 433 435
f 435 124 123
f 175 127 126
f 126 434 175
f 434 126 125
f 127 175 437
f 437 128 127
f 436 130 129
f 129 437 436
f 437 129 128
f 438 132 131
f 130 436 438
f 438 131 130
f 439 134 133
f 132 438 439
f 439 133 132
f 134 439 441
f 441 135 134
f 440 137 136
f 136 441 440
f 441 136 135
f 442 139 138
f 138 440 442
f 440 138 137
f 443 141 140
f 139 442 443
f 443 140 139
f 444 143 142
f 141 443 444
f 444 142 141
f 445 145 144
f 143 444 445
f 445 144 143
f 446 147 146
f 145 445 446
f 446 146 145
f 447 149 148
f 147 446 447
f 447 148 147
f 448 151 150
f 149 447 448
f 448 150 149
f 449 96 99
f 151 448 449
f 449 99 151
f 450 452 451
f 451 496 450
f 492 450 496
f 484 451 452
f 452 453 484
f 454 484 453
f 484 454 485
f 455 456 493
f 493 494 455
f 454 455 494
f 494 485 454
f 457 493 456
f 456 458 457
f 459 457 458
f 458 546 459
f 460 459 546
f 546 547 460
f 489 460 547
f 547 548 489
f 461 489 548
f 548 549 461
f 462 461 549
f 549 550 462
f 463 462 550
f 550 551 463
f 464 463 551
f 551 552 464
f 463 464 508
f 508 507 463
f 462 463 507
f 465 464 552
f 465 554 466
f 466 509 465
f 464 465 509
f 509 508 464
f 467 466 554
f 554 593 467
f 468 467 593
f 467 468 512
f 470 556 469
f 470 469 515
f 470 512 468
f 471 469 556
f 556 557 471
f 472 471 557
f 471 472 518
f 518 517 471
f 469 471 517
f 517 515 469
f 473 559 474
f 474 486 473
f 472 473 486
f 486 518 472
f 490 474 559
f 559 596 490
f 475 490 596
f 596 597 475
f 490 475 476
f 477 475 597
f 597 560 477
f 478 477 560
f 560 598 478
f 477 478 522
f 522 523 477
f 475 477 523
f 523 476 475
f 479 478 598
f 598 561 479
f 487 479 561
f 561 562 487
f 479 522 478
f 495 487 562
f 562 599 495
f 480 495 599
f 599 600 480
f 495 480 491
f 481 480 600
f 600 563 481
f 482 481 563
f 563 564 482
f 481 482 488
f 488 527 481
f 480 481 527
f 527 491 480
f 483 482 564
f 564 565 483
f 492 483 565
f 483 488 482
f 496 497 492
f 496 451 498
f 498 566 496
f 497 496 566
f 566 601 497
f 499 498 451
f 451 484 499
f 485 499 484
f 499 485 568
f 494 493 500
f 494 500 569
f 569 602 494
f 485 494 602
f 602 568 485
f 501 500 493
f 493 457 501
f 502 501 457
f 457 459 502
f 501 502 571
f 571 570 501
f 500 501 570
f 570 569 500
f 503 502 459
f 459 460 503
f 504 503 460
f 460 489 504
f 503 504 604
f 604 603 503
f 502 503 603
f 603 571 502
f 505 504 489
f 489 461 505
f 506 505 461
f 461 462 506
f 505 506 587
f 587 572 505
f 504 505 572
f 572 604 504
f 507 506 462
f 507 508 606
f 606 605 507
f 506 507 605
f 605 587 506
f 509 466 510
f 509 510 588
f 588 573 509
f 508 509 573
f 573 606 508
f 511 510 466
f 466 467 511
f 512 511 467
f 511 512 513
f 511 588 510
f 512 470 514
f 515 514 470
f 514 515 516
f 514 513 512
f 517 518 575
f 517 516 515
f 486 474 519
f 519 520 486
f 518 486 520
f 520 575 518
f 521 519 474
f 474 490 521
f 476 521 490
f 522 479 525
f 524 525 479
f 479 487 524
f 526 524 487
f 487 495 526
f 491 526 495
f 527 488 581
f 581 528 527
f 491 527 528
f 488 483 529
f 497 529 483
f 483 492 497
f 529 497 601
f 601 582 529
f 488 529 582
f 582 581 488
f 621 530 531
f 621 622 530
f 620 530 622
f 532 535 533
f 532 533 624
f 624 534 532
f 610 589 590
f 589 610 536
f 536 452 589
f 536 453 452
f 536 544 453
f 583 545 544
f 544 536 583
f 583 456 545
f 612 458 456
f 456 583 612
f 584 553 592
f 584 554 553
f 584 593 554
f 593 584 537
f 537 555 593
f 555 537 594
f 594 556 555
f 538 595 594
f 538 558 595
f 558 538 614
f 614 559 558
f 614 596 559
f 596 614 539
f 539 597 596
f 539 560 597
f 560 539 615
f 615 598 560
f 540 561 598
f 598 615 540
f 540 562 561
f 616 599 562
f 562 540 616
f 599 616 617
f 617 600 599
f 617 563 600
f 617 564 563
f 564 617 611
f 610 590 611
f 623 566 567
f 566 623 585
f 585 601 566
f 623 567 568
f 586 602 569
f 602 586 623
f 623 568 602
f 586 570 571
f 571 541 586
f 586 569 570
f 541 603 604
f 541 571 603
f 572 624 541
f 541 604 572
f 542 605 606
f 605 542 624
f 618 574 513
f 574 618 542
f 542 588 574
f 619 607 516
f 607 619 618
f 618 513 607
f 625 608 575
f 608 625 619
f 619 516 608
f 625 520 576
f 576 626 625
f 625 575 520
f 626 609 577
f 577 627 626
f 626 576 609
f 627 577 578
f 579 628 627
f 627 578 579
f 580 543 628
f 628 579 580
f 543 528 581
f 581 585 543
f 543 580 528
f 585 582 601
f 585 581 582
f 589 450 492
f 492 590 589
f 450 589 452
f 544 454 453
f 545 455 454
f 454 544 545
f 455 545 456
f 553 465 552
f 465 553 554
f 555 468 593
f 555 470 468
f 470 555 556
f 595 472 557
f 558 473 472
f 472 595 558
f 473 558 559
f 590 492 565
f 498 567 566
f 567 499 568
f 567 498 499
f 574 511 513
f 511 574 588
f 607 514 516
f 514 607 513
f 608 517 575
f 517 608 516
f 519 576 520
f 609 521 476
f 476 577 609
f 521 609 576
f 576 519 521
f 578 523 522
f 523 578 577
f 577 476 523
f 579 525 524
f 525 579 578
f 578 522 525
f 580 526 491
f 526 580 579
f 579 524 526
f 580 491 528
f 612 546 458
f 546 612 547
f 613 547 612
f 547 613 591
f 591 548 547
f 591 549 548
f 591 550 549
f 592 551 550
f 550 591 592
f 592 552 551
f 552 592 553
f 594 557 556
f 557 594 595
f 611 565 564
f 565 611 590
f 587 624 572
f 624 587 605
f 542 573 588
f 573 542 606
f 612 583 536
f 536 610 612
f 621 592 591
f 591 613 621
f 592 621 584
f 537 538 594
f 538 537 614
f 539 614 615
f 616 540 615
f 543 585 628
f 610 611 620
f 617 620 611
f 620 617 616
f 615 620 616
f 620 615 530
f 615 614 530
f 531 614 537
f 531 530 614
f 537 584 531
f 621 531 584
f 622 621 613
f 613 612 622
f 610 622 612
f 622 610 620
f 623 535 585
f 533 535 623
f 623 586 533
f 624 586 541
f 586 624 533
f 534 624 542
f 542 618 534
f 618 619 534
f 625 534 619
f 534 625 532
f 625 626 532
f 626 627 532
f 535 532 627
f 627 628 535
f 535 628 585
