# USD → MuJoCo (world-space, simplified)
v 0.046156 -0.014766 0.053957
v 0.046956 -0.014762 0.053950
v 0.047782 -0.014763 0.053429
v 0.048309 -0.014760 0.052999
v 0.048956 -0.014705 0.053373
v 0.048662 -0.014707 0.053667
v 0.048851 -0.014757 0.052209
v 0.049218 -0.014703 0.053049
v 0.049445 -0.014700 0.052700
v 0.049634 -0.014698 0.052329
v 0.049783 -0.014696 0.051940
v 0.049891 -0.014693 0.051538
v 0.049213 -0.014750 0.051205
v 0.049957 -0.014691 0.051130
v 0.049245 -0.014745 0.050526
v 0.049979 -0.014688 0.050714
v 0.049136 -0.014741 0.049856
v 0.048890 -0.014737 0.049222
v 0.049445 -0.014676 0.048722
v 0.049634 -0.014678 0.049093
v 0.048303 -0.014734 0.048460
v 0.049218 -0.014674 0.048373
v 0.048956 -0.014672 0.048049
v 0.048338 -0.014668 0.047493
v 0.048662 -0.014670 0.047755
v 0.047463 -0.014729 0.047808
v 0.047992 -0.014667 0.047267
v 0.046828 -0.014727 0.047567
v 0.046827 -0.014664 0.046820
v 0.047229 -0.014665 0.046928
v 0.046312 -0.014737 0.047743
v 0.046416 -0.014664 0.046755
v 0.046000 -0.014716 0.047184
v 0.046000 -0.014664 0.046733
v 0.045173 -0.014664 0.046820
v 0.045584 -0.014664 0.046755
v 0.044771 -0.014665 0.046928
v 0.045157 -0.014736 0.047686
v 0.044382 -0.014666 0.047077
v 0.044218 -0.014730 0.047992
v 0.043662 -0.014668 0.047493
v 0.044011 -0.014667 0.047266
v 0.043520 -0.014735 0.048655
v 0.043044 -0.014672 0.048049
v 0.043338 -0.014670 0.047755
v 0.042782 -0.014674 0.048373
v 0.042960 -0.014739 0.049559
v 0.042787 -0.014744 0.050216
v 0.042044 -0.014686 0.050296
v 0.042109 -0.014683 0.049884
v 0.042814 -0.014751 0.051173
v 0.042044 -0.014691 0.051127
v 0.042022 -0.014688 0.050711
v 0.042109 -0.014693 0.051538
v 0.042217 -0.014696 0.051940
v 0.042364 -0.014698 0.052327
v 0.043270 -0.014760 0.052197
v 0.043692 -0.014760 0.052999
v 0.043042 -0.014705 0.053371
v 0.042780 -0.014703 0.053047
v 0.043927 -0.014755 0.053564
v 0.044508 -0.014771 0.053294
v 0.044566 -0.014758 0.053932
v 0.045078 -0.014772 0.053548
v 0.045477 -0.014766 0.053919
v 0.046000 -0.014777 0.050710
v 0.046000 0.011792 0.052628
v 0.046155 0.010664 0.052343
v 0.046000 0.009222 0.050858
v 0.045845 0.010664 0.052343
v 0.046364 0.011792 0.052589
v 0.046458 0.010665 0.052278
v 0.046713 0.011793 0.052476
v 0.046742 0.010666 0.052152
v 0.047031 0.011794 0.052293
v 0.046993 0.010667 0.051970
v 0.047303 0.011796 0.052047
v 0.047200 0.010668 0.051739
v 0.047519 0.011797 0.051751
v 0.047355 0.010670 0.051471
v 0.047668 0.011799 0.051416
v 0.047451 0.010672 0.051176
v 0.047744 0.011802 0.051057
v 0.047484 0.010674 0.050867
v 0.047744 0.011804 0.050691
v 0.047451 0.010675 0.050559
v 0.047668 0.011806 0.050332
v 0.047355 0.010677 0.050264
v 0.047519 0.011808 0.049997
v 0.047200 0.010679 0.049995
v 0.047303 0.011810 0.049701
v 0.046993 0.010681 0.049765
v 0.047031 0.011812 0.049456
v 0.046742 0.010682 0.049582
v 0.046713 0.011813 0.049272
v 0.046458 0.010683 0.049456
v 0.046364 0.011813 0.049159
v 0.046155 0.010683 0.049392
v 0.046000 0.011814 0.049121
v 0.045845 0.010683 0.049392
v 0.045635 0.011813 0.049159
v 0.045542 0.010683 0.049456
v 0.045287 0.011813 0.049272
v 0.045258 0.010682 0.049582
v 0.044969 0.011812 0.049456
v 0.045007 0.010681 0.049765
v 0.044697 0.011810 0.049701
v 0.044800 0.010679 0.049995
v 0.044481 0.011808 0.049997
v 0.044645 0.010677 0.050264
v 0.044332 0.011806 0.050332
v 0.044549 0.010675 0.050559
v 0.044256 0.011804 0.050691
v 0.044516 0.010674 0.050867
v 0.044256 0.011802 0.051057
v 0.044549 0.010672 0.051176
v 0.044332 0.011799 0.051416
v 0.044645 0.010670 0.051471
v 0.044481 0.011797 0.051751
v 0.044800 0.010668 0.051739
v 0.044697 0.011796 0.052047
v 0.045007 0.010667 0.051970
v 0.044969 0.011794 0.052293
v 0.045258 0.010666 0.052152
v 0.045287 0.011793 0.052476
v 0.045542 0.010665 0.052278
v 0.045635 0.011792 0.052589
v -0.045922 -0.014770 0.053818
v -0.045587 -0.014713 0.054668
v -0.046002 -0.014713 0.054690
v -0.045172 -0.014766 0.053854
v -0.044537 -0.014764 0.053613
v -0.043927 -0.014755 0.053564
v -0.043691 -0.014760 0.052999
v -0.043149 -0.014757 0.052209
v -0.042366 -0.014698 0.052332
v -0.042217 -0.014696 0.051943
v -0.042788 -0.014749 0.050917
v -0.042043 -0.014691 0.051130
v -0.042109 -0.014693 0.051540
v -0.042021 -0.014688 0.050713
v -0.042043 -0.014686 0.050298
v -0.042979 -0.014741 0.049592
v -0.043483 -0.014734 0.048654
v -0.043662 -0.014668 0.047493
v -0.043338 -0.014670 0.047755
v -0.044314 -0.014738 0.048062
v -0.044008 -0.014667 0.047267
v -0.045172 -0.014727 0.047567
v -0.045173 -0.014664 0.046820
v -0.044771 -0.014665 0.046928
v -0.045688 -0.014737 0.047743
v -0.045584 -0.014664 0.046755
v -0.046000 -0.014716 0.047184
v -0.046000 -0.014664 0.046733
v -0.046827 -0.014664 0.046820
v -0.046416 -0.014664 0.046755
v -0.046843 -0.014736 0.047686
v -0.047782 -0.014730 0.047992
v -0.048956 -0.014672 0.048049
v -0.048662 -0.014670 0.047755
v -0.048361 -0.014738 0.048690
v -0.049217 -0.014674 0.048370
v -0.049122 -0.014734 0.049422
v -0.049213 -0.014744 0.050216
v -0.049245 -0.014748 0.050895
v -0.049891 -0.014693 0.051538
v -0.048916 -0.014762 0.051862
v -0.049445 -0.014700 0.052700
v -0.048198 -0.014768 0.052954
v -0.047098 -0.014772 0.053652
v -0.046827 -0.014712 0.054602
v -0.046000 -0.014777 0.050710
v -0.046000 0.011792 0.052628
v -0.045845 0.010664 0.052343
v -0.046000 0.009222 0.050858
v -0.046155 0.010664 0.052343
v -0.045635 0.011792 0.052589
v -0.045542 0.010665 0.052278
v -0.045287 0.011793 0.052476
v -0.045258 0.010666 0.052152
v -0.044969 0.011794 0.052293
v -0.045007 0.010667 0.051970
v -0.044697 0.011796 0.052047
v -0.044800 0.010668 0.051739
v -0.044481 0.011797 0.051751
v -0.044645 0.010670 0.051471
v -0.044332 0.011799 0.051416
v -0.044549 0.010672 0.051176
v -0.044256 0.011802 0.051057
v -0.044516 0.010674 0.050867
v -0.044256 0.011804 0.050691
v -0.044549 0.010675 0.050559
v -0.044332 0.011806 0.050332
v -0.044645 0.010677 0.050264
v -0.044481 0.011808 0.049997
v -0.044800 0.010679 0.049995
v -0.044697 0.011810 0.049701
v -0.045007 0.010681 0.049765
v -0.044969 0.011811 0.049456
v -0.045258 0.010682 0.049582
v -0.045287 0.011813 0.049272
v -0.045542 0.010683 0.049456
v -0.045635 0.011813 0.049159
v -0.045845 0.010683 0.049392
v -0.046000 0.011814 0.049121
v -0.046155 0.010683 0.049392
v -0.046365 0.011813 0.049159
v -0.046458 0.010683 0.049456
v -0.046713 0.011813 0.049272
v -0.046742 0.010682 0.049582
v -0.047031 0.011811 0.049456
v -0.046993 0.010681 0.049765
v -0.047303 0.011810 0.049701
v -0.047200 0.010679 0.049995
v -0.047519 0.011808 0.049997
v -0.047355 0.010677 0.050264
v -0.047668 0.011806 0.050332
v -0.047451 0.010675 0.050559
v -0.047744 0.011804 0.050691
v -0.047484 0.010674 0.050867
v -0.047744 0.011802 0.051057
v -0.047451 0.010672 0.051176
v -0.047668 0.011799 0.051416
v -0.047355 0.010670 0.051471
v -0.047519 0.011797 0.051751
v -0.047200 0.010668 0.051739
v -0.047303 0.011796 0.052047
v -0.046993 0.010667 0.051970
v -0.047031 0.011794 0.052293
v -0.046742 0.010666 0.052152
v -0.046713 0.011793 0.052476
v -0.046458 0.010665 0.052278
v -0.046365 0.011792 0.052589
v 0.047396 0.021207 0.052760
v 0.049733 0.021223 0.050685
v 0.046289 0.021245 0.047229
v 0.044621 0.021226 0.049125
v 0.043488 0.021239 0.048157
v -0.044568 0.021199 0.054353
v -0.048243 0.021221 0.050634
v -0.049690 0.021215 0.051530
v 0.046309 0.020852 0.052881
v 0.046708 0.020852 0.052774
v 0.047076 0.020854 0.052587
v 0.047163 0.015018 0.052494
v 0.047397 0.020855 0.052327
v 0.047657 0.020857 0.052006
v 0.047807 0.020859 0.051735
v 0.047908 0.020861 0.051441
v 0.047973 0.020863 0.051033
v 0.047967 0.015027 0.051101
v 0.047952 0.020877 0.050621
v 0.047881 0.020867 0.050319
v 0.047760 0.020869 0.050033
v 0.047536 0.020882 0.049686
v 0.047243 0.020873 0.049395
v 0.046767 0.020896 0.049112
v 0.046805 0.015039 0.049087
v 0.046611 0.015040 0.049013
v 0.046104 0.020912 0.048952
v 0.045793 0.020876 0.048963
v 0.045489 0.020876 0.049022
v 0.045589 0.015040 0.048959
v 0.045195 0.020897 0.049121
v 0.044924 0.020885 0.049273
v 0.044676 0.020873 0.049460
v 0.044530 0.020872 0.049606
v 0.044343 0.020870 0.049854
v 0.044287 0.015035 0.049905
v 0.044155 0.020879 0.050222
v 0.044065 0.020866 0.050519
v 0.044025 0.020875 0.050852
v 0.044052 0.020873 0.051265
v 0.044022 0.015028 0.050894
v 0.044154 0.020882 0.051639
v 0.044413 0.020919 0.052116
v 0.044756 0.020865 0.052466
v 0.045103 0.020853 0.052690
v 0.045489 0.020863 0.052839
v 0.045922 0.020863 0.052905
v -0.045576 0.020881 0.052860
v -0.046000 0.020852 0.052908
v -0.045103 0.020853 0.052690
v -0.044837 0.020854 0.052530
v -0.044837 0.015018 0.052494
v -0.045011 0.015018 0.052607
v -0.044619 0.020874 0.052347
v -0.044343 0.020857 0.052006
v -0.044193 0.020859 0.051735
v -0.044092 0.020861 0.051441
v -0.044026 0.020883 0.051034
v -0.044033 0.015027 0.051101
v -0.044033 0.020865 0.050723
v -0.044092 0.020867 0.050419
v -0.044193 0.020869 0.050125
v -0.044343 0.020870 0.049854
v -0.044602 0.020892 0.049532
v -0.044924 0.020874 0.049273
v -0.045298 0.020892 0.049082
v -0.045195 0.015039 0.049087
v -0.045858 0.020914 0.048957
v -0.046348 0.020891 0.048983
v -0.046411 0.015040 0.048959
v -0.046850 0.020898 0.049149
v -0.047275 0.020888 0.049418
v -0.047535 0.020871 0.049687
v -0.047713 0.020870 0.049941
v -0.047713 0.015035 0.049905
v -0.047807 0.020869 0.050125
v -0.047881 0.020867 0.050319
v -0.047951 0.020866 0.050621
v -0.047961 0.020882 0.051162
v -0.047978 0.015028 0.050894
v -0.047659 0.020876 0.052008
v -0.047397 0.020855 0.052327
v -0.047056 0.020873 0.052603
v -0.046709 0.020872 0.052777
v -0.046284 0.020871 0.052888
v 0.046605 0.021180 0.054669
v 0.047841 0.021159 0.054245
v 0.049417 0.021164 0.052658
v 0.049660 0.021220 0.051679
v 0.043023 0.021150 0.053364
v 0.045568 0.021016 0.054878
v -0.045599 0.020996 0.054882
v -0.045197 0.020990 0.054821
v -0.044397 0.020998 0.054565
v -0.044027 0.021000 0.054378
v -0.043676 0.021001 0.054152
v -0.042559 0.020982 0.052913
v -0.042492 0.021211 0.052321
v -0.042028 0.020968 0.050929
v -0.047982 0.020942 0.054376
v -0.046014 0.020996 0.054903
v 0.046314 0.021009 0.052922
v 0.047135 0.021116 0.049203
v 0.045229 0.021113 0.048999
v 0.045566 0.021052 0.052935
v -0.044508 0.020998 0.052272
v -0.044353 0.021023 0.049771
v -0.045036 0.021129 0.049092
v -0.047784 0.021012 0.049992
v 0.048647 0.021204 0.053568
v 0.049430 0.021070 0.048932
v 0.048986 0.021225 0.048656
v 0.042622 0.021212 0.049219
v 0.042315 0.021224 0.050303
v 0.044422 0.021199 0.054351
v -0.045885 0.021175 0.054711
v -0.043473 0.021150 0.053821
v -0.042811 0.021123 0.053136
v -0.042239 0.021210 0.050875
v -0.042668 0.021232 0.049332
v -0.043132 0.021210 0.048441
v -0.043972 0.021236 0.047786
v -0.044884 0.021241 0.047354
v -0.045801 0.021183 0.047131
v -0.046888 0.021243 0.047291
v -0.047784 0.021216 0.047630
v -0.048663 0.021042 0.047987
v -0.049676 0.021209 0.049986
v -0.047890 0.021197 0.054204
v 0.047997 0.021023 0.050655
v 0.047760 0.021017 0.049973
v 0.046394 0.021011 0.048985
v -0.047265 0.021140 0.049243
v -0.048017 0.021001 0.050765
v -0.047856 0.020879 0.051615
v -0.047536 0.020998 0.052225
v 0.049753 0.021132 0.049915
v 0.048334 0.020989 0.047717
v 0.044486 0.021209 0.047385
v 0.042561 0.020956 0.052918
v 0.043332 0.021003 0.053873
v 0.044351 0.020962 0.054545
v -0.043353 0.021003 0.053892
v -0.042208 0.020978 0.052064
v -0.042053 0.021001 0.051378
v -0.042631 0.021098 0.048930
v -0.048366 0.020982 0.054121
v 0.046628 0.021178 0.053036
v 0.047503 0.021103 0.052340
v 0.047847 0.021105 0.051829
v 0.048002 0.021098 0.051389
v 0.044577 0.021144 0.052538
v 0.044942 0.021098 0.052694
v -0.044389 0.021162 0.052416
v -0.043855 0.021184 0.051385
v -0.043856 0.021210 0.050244
v -0.044303 0.021216 0.049436
v -0.045664 0.021186 0.048797
v -0.047092 0.021216 0.048983
v -0.047878 0.021128 0.051895
v -0.047513 0.021207 0.052589
v -0.046793 0.021107 0.052855
v -0.046054 0.021106 0.053005
v 0.042532 0.021209 0.052376
v -0.047061 0.021198 0.054508
v -0.042864 0.021201 0.053023
v -0.048825 0.021233 0.048473
v -0.049040 0.021194 0.053157
v 0.044733 0.021016 0.049366
v 0.044259 0.021103 0.049835
v -0.045164 0.021096 0.052826
v -0.044115 0.021002 0.051626
v -0.044003 0.021015 0.050573
v 0.042222 0.021196 0.051363
v 0.047111 0.021072 0.052655
v 0.044312 0.021191 0.052325
v 0.047906 0.021229 0.047654
v 0.046805 0.021131 0.047145
v 0.046202 0.021131 0.047071
v 0.044797 0.021104 0.047147
v 0.044398 0.021049 0.047297
v 0.042423 0.021121 0.052432
v -0.042221 0.021040 0.049709
v -0.042370 0.021043 0.049321
v -0.049970 0.021044 0.050953
v -0.049649 0.021128 0.052117
v -0.049522 0.021204 0.052236
v 0.045836 0.021130 0.048874
v 0.043998 0.021053 0.050535
v 0.043963 0.021116 0.051398
v -0.046451 0.021113 0.048900
v 0.046007 0.020940 0.054905
v 0.046421 0.020940 0.054883
v 0.046833 0.020940 0.054817
v 0.047234 0.020940 0.054709
v 0.047622 0.020942 0.054559
v 0.047993 0.020943 0.054369
v 0.048341 0.020944 0.054142
v 0.048664 0.020946 0.053880
v 0.048958 0.020948 0.053585
v 0.049219 0.020950 0.053261
v 0.049445 0.020952 0.052912
v 0.049633 0.020954 0.052541
v 0.049782 0.020899 0.052153
v 0.049881 0.020997 0.051777
v 0.049955 0.016461 0.051318
v 0.049972 0.021007 0.051128
v 0.049977 0.016464 0.050903
v 0.049955 0.016467 0.050487
v 0.049953 0.021004 0.050536
v 0.049890 0.020997 0.050126
v 0.049890 0.016469 0.050076
v 0.049778 0.020914 0.049696
v 0.049628 0.020916 0.049308
v 0.049444 0.016476 0.048914
v 0.049212 0.021009 0.048595
v 0.049217 0.016478 0.048566
v 0.048950 0.020922 0.048266
v 0.048655 0.020982 0.047973
v 0.047985 0.020990 0.047490
v 0.047988 0.016485 0.047459
v 0.047611 0.020986 0.047297
v 0.047222 0.020987 0.047149
v 0.046820 0.020930 0.047041
v 0.046413 0.021010 0.046978
v 0.045998 0.021009 0.046956
v 0.045582 0.021010 0.046978
v 0.045171 0.021009 0.047044
v 0.044771 0.016487 0.047121
v 0.044383 0.016486 0.047270
v 0.044011 0.021007 0.047490
v 0.043659 0.020984 0.047719
v 0.043336 0.020982 0.047981
v 0.043042 0.020980 0.048276
v 0.042786 0.020983 0.048597
v 0.042782 0.009820 0.048524
v 0.042555 0.020976 0.048948
v 0.042367 0.020974 0.049320
v 0.042218 0.020971 0.049708
v 0.042111 0.020969 0.050111
v 0.042047 0.020967 0.050521
v 0.042026 0.020906 0.050936
v 0.042048 0.020983 0.051348
v 0.042113 0.020981 0.051759
v 0.042216 0.020979 0.052140
v 0.042363 0.020976 0.052529
v 0.042367 0.016454 0.052520
v 0.042556 0.016452 0.052891
v 0.042786 0.020908 0.053265
v 0.042783 0.016449 0.053240
v 0.043045 0.016448 0.053564
v 0.043035 0.020970 0.053575
v 0.043339 0.016446 0.053858
v 0.043663 0.016444 0.054120
v 0.043649 0.020982 0.054132
v 0.043996 0.020981 0.054360
v 0.044012 0.016443 0.054347
v 0.044383 0.016442 0.054536
v 0.044771 0.016440 0.054685
v 0.045173 0.016440 0.054792
v 0.045005 0.020946 0.054781
v 0.045584 0.016439 0.054858
v -0.046000 0.016439 0.054879
v -0.045584 0.016439 0.054858
v -0.045173 0.016440 0.054792
v -0.044770 0.020962 0.054710
v -0.044383 0.016441 0.054536
v -0.044012 0.016443 0.054347
v -0.043663 0.016444 0.054120
v -0.043339 0.016446 0.053858
v -0.043045 0.016448 0.053564
v -0.042899 0.020980 0.053421
v -0.042783 0.016449 0.053240
v -0.042556 0.016452 0.052891
v -0.042367 0.020896 0.052541
v -0.042218 0.016456 0.052132
v -0.042111 0.020902 0.051750
v -0.042045 0.016461 0.051318
v -0.042023 0.016464 0.050903
v -0.042045 0.016467 0.050487
v -0.042049 0.020926 0.050515
v -0.042112 0.021026 0.050119
v -0.042110 0.016469 0.050076
v -0.042218 0.016471 0.049674
v -0.042367 0.016474 0.049285
v -0.042556 0.016476 0.048914
v -0.042550 0.020998 0.048961
v -0.042788 0.020921 0.048589
v -0.043050 0.020922 0.048266
v -0.043341 0.020989 0.047977
v -0.043666 0.020989 0.047717
v -0.044015 0.020990 0.047490
v -0.044012 0.016485 0.047459
v -0.044383 0.016486 0.047270
v -0.044607 0.020993 0.047206
v -0.044771 0.016487 0.047121
v -0.045180 0.020988 0.047042
v -0.045591 0.020988 0.046977
v -0.046006 0.020988 0.046956
v -0.046422 0.020988 0.046979
v -0.046827 0.009829 0.046971
v -0.046802 0.021057 0.047042
v -0.047234 0.020987 0.047153
v -0.047622 0.020986 0.047302
v -0.047993 0.020985 0.047492
v -0.048341 0.020984 0.047719
v -0.048952 0.020985 0.048274
v -0.049217 0.016478 0.048566
v -0.049444 0.016476 0.048914
v -0.049354 0.020985 0.048794
v -0.049630 0.021035 0.049323
v -0.049633 0.016474 0.049285
v -0.049782 0.020913 0.049707
v -0.049889 0.020912 0.050110
v -0.049955 0.016467 0.050487
v -0.049949 0.020989 0.050497
v -0.049977 0.016464 0.050903
v -0.049952 0.020983 0.051348
v -0.049888 0.021016 0.051742
v -0.049890 0.009800 0.051689
v -0.049779 0.020994 0.052161
v -0.049630 0.020976 0.052549
v -0.049445 0.009793 0.052850
v -0.049450 0.020989 0.052900
v -0.049235 0.020970 0.053236
v -0.049217 0.016449 0.053240
v -0.048955 0.016448 0.053564
v -0.048789 0.020955 0.053765
v -0.048661 0.016446 0.053858
v -0.048337 0.016444 0.054120
v -0.047611 0.020884 0.054563
v -0.047226 0.020962 0.054711
v -0.046827 0.009781 0.054752
v -0.046839 0.020997 0.054813
v -0.046430 0.020996 0.054879
v -0.046416 0.016439 0.054858
v 0.048250 0.021210 0.050742
v 0.047737 0.021221 0.049444
v 0.046459 0.021215 0.048764
v 0.043750 0.021214 0.050572
v 0.044082 0.021211 0.052165
v 0.045633 0.021199 0.053186
v -0.044508 0.021206 0.052869
v -0.045751 0.021231 0.048700
v -0.047848 0.021228 0.049635
v -0.048196 0.021218 0.051462
v -0.046881 0.021204 0.053026
v 0.046825 -0.014712 0.054603
v 0.046413 -0.014712 0.054668
v 0.045998 -0.014713 0.054690
v 0.047616 -0.014710 0.054347
v 0.047227 -0.014711 0.054496
v 0.048337 -0.014708 0.053931
v 0.047987 -0.014709 0.054158
v 0.048956 0.003130 0.053483
v 0.048662 0.003129 0.053777
v 0.049445 0.003135 0.052810
v 0.049218 0.003133 0.053159
v 0.049783 0.003139 0.052050
v 0.049634 0.003137 0.052439
v 0.049891 0.009800 0.051689
v 0.049957 -0.014686 0.050298
v 0.049785 -0.014680 0.049484
v 0.049892 -0.014683 0.049886
v 0.049445 0.003159 0.048832
v 0.049634 0.003157 0.049203
v 0.048956 0.003163 0.048159
v 0.049218 0.003161 0.048483
v 0.048338 0.009825 0.047644
v 0.048662 0.003165 0.047865
v 0.047620 -0.014666 0.047077
v 0.046827 0.003171 0.046930
v 0.047229 0.003170 0.047038
v 0.046000 0.003171 0.046843
v 0.046416 0.003171 0.046865
v 0.045173 0.003171 0.046930
v 0.045584 0.003171 0.046865
v 0.044382 0.003169 0.047187
v 0.044771 0.003170 0.047038
v 0.043662 0.003167 0.047602
v 0.044011 0.003168 0.047376
v 0.043044 0.003163 0.048159
v 0.043338 0.003165 0.047865
v 0.042556 -0.014676 0.048720
v 0.042217 -0.014680 0.049479
v 0.042366 -0.014678 0.049091
v 0.042044 0.003150 0.050405
v 0.042109 0.003152 0.049994
v 0.042044 0.003144 0.051237
v 0.042022 0.003147 0.050821
v 0.042217 0.009798 0.052091
v 0.042109 0.003142 0.051648
v 0.042553 -0.014700 0.052698
v 0.043659 -0.014708 0.053928
v 0.043336 -0.014707 0.053666
v 0.044379 -0.014710 0.054345
v 0.044009 -0.014709 0.054155
v 0.045171 -0.014712 0.054602
v 0.044768 -0.014711 0.054494
v 0.045582 -0.014712 0.054668
v -0.045175 -0.014712 0.054603
v -0.044384 -0.014710 0.054347
v -0.044773 -0.014711 0.054496
v -0.043663 -0.014708 0.053931
v -0.044013 -0.014709 0.054158
v -0.043045 -0.014705 0.053375
v -0.043340 -0.014707 0.053669
v -0.042556 -0.014700 0.052702
v -0.042783 -0.014703 0.053052
v -0.042215 -0.014680 0.049484
v -0.042108 -0.014683 0.049886
v -0.042553 -0.014676 0.048724
v -0.042364 -0.014678 0.049095
v -0.043041 -0.014672 0.048051
v -0.042780 -0.014674 0.048374
v -0.043662 0.009825 0.047644
v -0.043338 0.003165 0.047865
v -0.044380 -0.014666 0.047077
v -0.045173 0.003171 0.046930
v -0.044771 0.003170 0.047038
v -0.046000 0.003171 0.046843
v -0.045584 0.003171 0.046865
v -0.046416 0.003171 0.046865
v -0.047617 -0.014665 0.047076
v -0.047227 -0.014665 0.046926
v -0.048337 -0.014668 0.047491
v -0.047987 -0.014667 0.047264
v -0.048956 0.009822 0.048201
v -0.048661 0.009824 0.047906
v -0.049445 -0.014676 0.048720
v -0.049783 -0.014680 0.049479
v -0.049634 -0.014678 0.049091
v -0.049957 -0.014685 0.050293
v -0.049891 -0.014683 0.049882
v -0.049957 -0.014691 0.051124
v -0.049979 -0.014688 0.050708
v -0.049785 -0.014696 0.051938
v -0.049636 -0.014698 0.052327
v -0.048958 -0.014705 0.053371
v -0.049220 -0.014703 0.053047
v -0.048341 -0.014708 0.053928
v -0.048664 -0.014707 0.053666
v -0.047621 -0.014710 0.054345
v -0.047991 -0.014709 0.054155
v -0.047232 -0.014711 0.054494
v -0.046418 -0.014713 0.054668
v 0.046411 0.015016 0.052829
v 0.046207 0.015016 0.052861
v 0.046000 0.015016 0.052872
v 0.046805 0.015017 0.052701
v 0.046611 0.015017 0.052775
v 0.046989 0.015018 0.052607
v 0.047470 0.015020 0.052218
v 0.047324 0.015019 0.052364
v 0.047713 0.015022 0.051883
v 0.047600 0.015021 0.052057
v 0.047881 0.015024 0.051505
v 0.047807 0.015023 0.051699
v 0.047935 0.015026 0.051305
v 0.047967 0.015030 0.050687
v 0.047978 0.015028 0.050894
v 0.047881 0.015032 0.050283
v 0.047935 0.015031 0.050483
v 0.047713 0.015035 0.049905
v 0.047807 0.015033 0.050090
v 0.047470 0.015036 0.049570
v 0.047600 0.015035 0.049731
v 0.047163 0.015037 0.049294
v 0.047324 0.015037 0.049424
v 0.046989 0.015039 0.049181
v 0.046411 0.015040 0.048959
v 0.046000 0.015040 0.048916
v 0.046207 0.015041 0.048927
v 0.045793 0.015041 0.048927
v 0.045195 0.015039 0.049087
v 0.045389 0.015040 0.049013
v 0.044837 0.015037 0.049294
v 0.045011 0.015039 0.049181
v 0.044530 0.015036 0.049570
v 0.044677 0.015037 0.049424
v 0.044400 0.015035 0.049731
v 0.044119 0.015032 0.050283
v 0.044193 0.015033 0.050090
v 0.044033 0.015030 0.050687
v 0.044065 0.015031 0.050483
v 0.044033 0.015027 0.051101
v 0.044119 0.015025 0.051505
v 0.044065 0.015026 0.051305
v 0.044287 0.015022 0.051883
v 0.044193 0.015023 0.051699
v 0.044530 0.015020 0.052218
v 0.044400 0.015021 0.052057
v 0.044837 0.015018 0.052494
v 0.044676 0.015019 0.052364
v 0.045195 0.015017 0.052701
v 0.045011 0.015018 0.052607
v 0.045589 0.015016 0.052829
v 0.045389 0.015017 0.052775
v 0.045793 0.015016 0.052861
v -0.045589 0.015016 0.052829
v -0.045793 0.015016 0.052861
v -0.046000 0.015016 0.052872
v -0.045195 0.015017 0.052701
v -0.045389 0.015017 0.052775
v -0.044530 0.015020 0.052218
v -0.044676 0.015019 0.052364
v -0.044287 0.015022 0.051883
v -0.044400 0.015021 0.052057
v -0.044119 0.015024 0.051505
v -0.044193 0.015023 0.051699
v -0.044065 0.015025 0.051305
v -0.044033 0.015029 0.050687
v -0.044022 0.015028 0.050894
v -0.044119 0.015032 0.050283
v -0.044065 0.015031 0.050483
v -0.044287 0.015035 0.049905
v -0.044193 0.015033 0.050090
v -0.044530 0.015036 0.049570
v -0.044400 0.015035 0.049731
v -0.044837 0.015037 0.049294
v -0.044676 0.015037 0.049424
v -0.045011 0.015039 0.049181
v -0.045589 0.015040 0.048959
v -0.045389 0.015040 0.049013
v -0.046000 0.015040 0.048916
v -0.045793 0.015041 0.048927
v -0.046207 0.015041 0.048927
v -0.046805 0.015039 0.049087
v -0.046611 0.015040 0.049013
v -0.047163 0.015037 0.049294
v -0.046989 0.015039 0.049181
v -0.047470 0.015036 0.049570
v -0.047323 0.015037 0.049424
v -0.047600 0.015035 0.049731
v -0.047881 0.015032 0.050283
v -0.047807 0.015033 0.050090
v -0.047967 0.015029 0.050687
v -0.047935 0.015031 0.050483
v -0.047967 0.015027 0.051101
v -0.047881 0.015025 0.051505
v -0.047935 0.015025 0.051305
v -0.047713 0.015022 0.051883
v -0.047807 0.015023 0.051699
v -0.047470 0.015020 0.052218
v -0.047600 0.015021 0.052057
v -0.047163 0.015018 0.052494
v -0.047324 0.015019 0.052364
v -0.046805 0.015017 0.052701
v -0.046989 0.015018 0.052607
v -0.046411 0.015016 0.052829
v -0.046611 0.015017 0.052775
v -0.046207 0.015016 0.052861
v -0.073138 -0.016420 0.056473
v -0.073138 -0.015394 0.056563
v -0.086612 -0.015394 0.056559
v -0.086612 -0.016419 0.056469
v -0.073138 -0.017415 0.056207
v -0.086612 -0.017414 0.056203
v 0.073139 -0.017415 0.056207
v 0.073119 -0.015394 0.056563
v -0.086612 -0.018346 0.055767
v -0.086612 -0.019190 0.055178
v -0.086612 -0.019917 0.054449
v -0.086612 -0.020508 0.053606
v -0.086612 -0.020943 0.052673
v -0.073138 -0.021214 0.051680
v -0.086612 -0.021210 0.051679
v -0.086612 -0.021299 0.050654
v -0.073138 -0.021214 0.049627
v -0.086612 -0.021210 0.049628
v -0.086612 -0.020943 0.048634
v -0.073138 -0.020512 0.047699
v -0.086612 -0.020508 0.047701
v -0.073138 -0.019920 0.046856
v -0.086612 -0.019917 0.046858
v -0.073138 -0.019193 0.046127
v -0.086612 -0.019190 0.046130
v -0.073138 -0.018348 0.045536
v -0.086612 -0.018346 0.045540
v -0.073138 -0.017415 0.045100
v -0.086612 -0.017414 0.045104
v -0.086612 -0.016419 0.044838
v -0.086612 -0.015394 0.044748
v -0.073138 -0.014368 0.044835
v -0.086612 -0.014369 0.044838
v -0.086612 -0.013374 0.045104
v 0.072998 -0.014367 0.044835
v -0.086612 -0.012442 0.045540
v -0.086612 -0.011598 0.046130
v -0.073138 -0.010868 0.046856
v -0.086612 -0.010870 0.046858
v -0.073138 -0.010276 0.047699
v -0.086612 -0.010279 0.047701
v -0.073138 -0.009841 0.048633
v -0.086612 -0.009845 0.048634
v -0.073138 -0.009574 0.049627
v -0.086612 -0.009578 0.049628
v -0.045942 -0.009574 0.049627
v -0.073138 -0.009485 0.050654
v -0.086612 -0.009489 0.050654
v -0.073138 -0.009574 0.051680
v -0.086612 -0.009578 0.051679
v -0.073138 -0.009841 0.052674
v -0.086612 -0.009845 0.052673
v -0.073138 -0.010276 0.053608
v -0.086612 -0.010279 0.053606
v 0.022950 -0.010276 0.053608
v -0.055085 -0.009841 0.052674
v -0.073138 -0.010868 0.054452
v -0.086612 -0.010870 0.054449
v -0.073094 -0.011595 0.055180
v -0.086612 -0.011598 0.055178
v -0.073138 -0.012440 0.055771
v -0.086612 -0.012442 0.055767
v -0.073138 -0.013373 0.056207
v -0.086612 -0.013374 0.056203
v -0.073138 -0.014368 0.056473
v -0.086612 -0.014369 0.056469
v 0.073027 -0.014367 0.056473
v 0.073139 -0.016420 0.056473
v -0.073138 -0.019193 0.055181
v -0.073138 -0.020947 0.052674
v -0.073138 -0.021303 0.050654
v -0.073138 -0.015394 0.044744
v 0.073139 -0.010868 0.046856
v -0.032171 -0.009485 0.050654
v -0.041342 -0.009574 0.051680
v -0.073138 -0.018348 0.055771
v 0.073139 -0.010276 0.047699
v 0.045942 -0.019192 0.055181
v 0.045942 -0.018348 0.055771
v -0.073138 -0.020512 0.053608
v -0.072655 -0.019920 0.054452
v 0.073139 -0.020512 0.047699
v -0.073138 -0.020947 0.048633
v 0.073129 -0.018348 0.045536
v -0.073138 -0.016420 0.044835
v -0.073136 -0.013373 0.045100
v -0.073176 -0.011595 0.046127
v -0.073073 -0.012440 0.045536
v 0.073139 -0.009574 0.049627
v 0.073139 -0.009574 0.051680
v 0.073139 -0.010868 0.054452
v 0.086612 -0.017414 0.056203
v 0.086612 -0.016419 0.056469
v 0.086612 -0.015394 0.056559
v 0.073139 -0.018348 0.055771
v 0.073139 -0.019192 0.055181
v 0.086612 -0.019190 0.055178
v 0.086612 -0.018346 0.055767
v 0.073139 -0.019920 0.054452
v 0.073139 -0.020512 0.053608
v 0.086612 -0.020508 0.053606
v 0.086612 -0.019917 0.054449
v 0.073139 -0.020947 0.052674
v 0.073139 -0.021214 0.051680
v 0.086612 -0.021210 0.051679
v 0.086612 -0.020943 0.052673
v 0.073139 -0.021303 0.050654
v 0.073139 -0.021214 0.049627
v 0.086612 -0.021210 0.049628
v 0.086612 -0.021299 0.050654
v 0.073139 -0.020947 0.048633
v 0.086612 -0.020508 0.047701
v 0.086612 -0.020943 0.048634
v 0.073138 -0.019920 0.046856
v 0.072223 -0.019192 0.046127
v 0.086612 -0.019190 0.046130
v 0.086612 -0.019917 0.046858
v 0.073139 -0.017415 0.045100
v 0.086612 -0.017414 0.045104
v 0.086612 -0.018346 0.045540
v 0.073139 -0.016420 0.044835
v 0.073139 -0.015394 0.044744
v 0.086612 -0.015394 0.044748
v 0.086612 -0.016419 0.044838
v 0.073139 -0.013373 0.045100
v 0.086612 -0.013374 0.045104
v 0.086612 -0.014369 0.044838
v 0.073139 -0.012439 0.045536
v 0.073139 -0.011595 0.046127
v 0.086612 -0.011598 0.046130
v 0.086612 -0.012442 0.045540
v 0.086612 -0.010279 0.047701
v 0.086612 -0.010870 0.046858
v 0.073139 -0.009841 0.048633
v 0.086612 -0.009578 0.049628
v 0.086612 -0.009845 0.048634
v 0.073139 -0.009485 0.050654
v 0.086612 -0.009578 0.051679
v 0.086612 -0.009489 0.050654
v 0.073139 -0.009841 0.052674
v 0.085649 -0.010276 0.053604
v 0.086612 -0.009845 0.052673
v 0.073139 -0.011595 0.055181
v 0.086612 -0.011598 0.055178
v 0.086612 -0.010870 0.054449
v 0.073316 -0.012439 0.055771
v 0.073093 -0.013373 0.056207
v 0.086612 -0.013374 0.056203
v 0.086612 -0.012442 0.055767
v 0.086612 -0.014369 0.056469
v -0.091900 -0.015394 0.050654
v -0.091912 -0.012867 0.052899
v -0.091927 -0.014232 0.046618
v -0.091913 -0.016172 0.047335
v -0.091925 -0.019310 0.049270
v -0.091917 -0.018561 0.052101
v -0.091917 -0.017445 0.053534
v -0.091913 -0.015798 0.054039
v 0.091900 -0.015394 0.050654
v 0.091912 -0.015711 0.054082
v 0.091913 -0.018127 0.052696
v 0.091912 -0.018605 0.049587
v 0.091913 -0.017014 0.047657
v 0.091917 -0.014519 0.047283
v 0.091917 -0.012913 0.048134
v 0.091920 -0.012009 0.049243
v 0.091917 -0.012912 0.053097
v -0.091953 -0.017147 0.055622
v -0.091879 -0.018834 0.054773
v -0.091879 -0.020432 0.052501
v -0.091879 -0.020441 0.048831
v -0.091879 -0.017242 0.045615
v -0.091879 -0.015407 0.045287
v -0.091879 -0.013570 0.045606
v -0.091879 -0.011291 0.047195
v -0.091879 -0.010347 0.052477
v -0.091879 -0.011935 0.054757
v 0.091879 -0.015407 0.056020
v 0.091872 -0.017675 0.055542
v 0.091879 -0.020048 0.053326
v 0.091879 -0.020681 0.051573
v 0.091879 -0.020677 0.049709
v 0.091879 -0.018066 0.046000
v 0.091879 -0.015381 0.045287
v 0.091879 -0.014449 0.045372
v 0.091879 -0.013546 0.045615
v 0.091879 -0.012700 0.046013
v 0.091879 -0.011935 0.046551
v 0.091879 -0.010740 0.047981
v 0.091879 -0.010346 0.048830
v 0.091879 -0.010107 0.049734
v 0.091879 -0.010111 0.051599
v 0.091879 -0.010753 0.053348
v 0.091879 -0.011954 0.054773
v -0.091287 -0.019178 0.055169
v -0.091287 -0.019904 0.054443
v -0.091244 -0.021286 0.050655
v -0.091287 -0.021196 0.049634
v -0.091287 -0.020931 0.048643
v -0.091206 -0.019908 0.046866
v -0.091287 -0.018343 0.045554
v -0.091287 -0.017413 0.045119
v -0.091287 -0.016421 0.044853
v -0.091287 -0.014375 0.044852
v -0.091287 -0.011610 0.046138
v -0.091287 -0.010884 0.046864
v -0.091286 -0.009857 0.052665
v -0.091206 -0.010290 0.053600
v -0.091287 -0.012445 0.055753
v -0.091206 -0.013378 0.056192
v -0.091206 -0.014371 0.056457
v 0.091235 -0.016414 0.056437
v 0.091235 -0.017403 0.056173
v 0.091362 -0.016405 0.056388
v 0.091362 -0.017386 0.056126
v 0.091362 -0.015394 0.056477
v 0.091235 -0.015394 0.056527
v 0.091235 -0.018330 0.055740
v 0.091235 -0.019169 0.055153
v 0.091362 -0.018305 0.055696
v 0.091362 -0.019137 0.055115
v 0.091235 -0.019893 0.054429
v 0.091235 -0.020481 0.053590
v 0.091362 -0.019854 0.054396
v 0.091362 -0.020437 0.053565
v 0.091235 -0.020913 0.052662
v 0.091235 -0.021178 0.051673
v 0.091362 -0.020865 0.052645
v 0.091362 -0.021129 0.051665
v 0.091235 -0.021267 0.050654
v 0.091235 -0.021178 0.049634
v 0.091362 -0.021216 0.050654
v 0.091362 -0.021129 0.049642
v 0.091235 -0.020913 0.048645
v 0.091235 -0.020481 0.047717
v 0.091362 -0.020865 0.048662
v 0.091418 -0.020411 0.047757
v 0.091235 -0.019893 0.046879
v 0.091235 -0.019169 0.046154
v 0.091362 -0.019854 0.046911
v 0.091362 -0.019137 0.046193
v 0.091235 -0.018330 0.045568
v 0.091235 -0.017403 0.045134
v 0.091362 -0.018305 0.045611
v 0.091362 -0.017386 0.045181
v 0.091235 -0.016414 0.044870
v 0.091235 -0.015394 0.044780
v 0.091362 -0.016405 0.044919
v 0.091362 -0.015394 0.044830
v 0.091235 -0.014374 0.044870
v 0.091235 -0.013385 0.045134
v 0.091362 -0.014383 0.044919
v 0.091362 -0.013402 0.045181
v 0.091235 -0.012457 0.045568
v 0.091235 -0.011619 0.046154
v 0.091362 -0.012483 0.045611
v 0.091362 -0.011651 0.046193
v 0.091235 -0.010895 0.046879
v 0.091235 -0.010307 0.047717
v 0.091362 -0.010933 0.046911
v 0.091362 -0.010350 0.047742
v 0.091235 -0.009875 0.048645
v 0.091235 -0.009610 0.049634
v 0.091362 -0.009922 0.048662
v 0.091362 -0.009659 0.049642
v 0.091235 -0.009521 0.050654
v 0.091235 -0.009610 0.051673
v 0.091362 -0.009571 0.050654
v 0.091362 -0.009659 0.051665
v 0.091235 -0.009875 0.052662
v 0.091235 -0.010307 0.053590
v 0.091362 -0.009922 0.052645
v 0.091362 -0.010350 0.053565
v 0.091235 -0.010895 0.054429
v 0.091235 -0.011619 0.055153
v 0.091362 -0.010933 0.054396
v 0.091362 -0.011651 0.055115
v 0.091235 -0.012457 0.055740
v 0.091235 -0.013385 0.056173
v 0.091362 -0.012483 0.055696
v 0.091362 -0.013402 0.056126
v 0.091235 -0.014374 0.056437
v 0.091362 -0.014383 0.056388
v -0.091880 -0.015835 0.056020
v -0.091879 -0.018066 0.055307
v -0.091880 -0.019795 0.053756
v -0.091879 -0.020677 0.051598
v -0.091862 -0.020792 0.050673
v -0.091879 -0.020682 0.049734
v -0.091879 -0.020048 0.047981
v -0.091880 -0.018506 0.046259
v -0.091879 -0.016339 0.045371
v -0.091879 -0.014475 0.045367
v -0.091879 -0.012722 0.046000
v -0.091879 -0.011954 0.046534
v -0.091879 -0.010753 0.047959
v -0.091880 -0.010032 0.050157
v -0.091879 -0.010106 0.051572
v -0.091879 -0.011275 0.054093
v -0.091879 -0.012699 0.055295
v 0.091879 -0.016339 0.055936
v 0.091879 -0.019513 0.054093
v 0.091880 -0.020440 0.052476
v 0.091880 -0.020759 0.050640
v 0.091879 -0.020431 0.048806
v 0.091807 -0.020114 0.047913
v 0.091871 -0.019176 0.046805
v 0.091991 -0.019603 0.047788
v 0.091879 -0.017217 0.045606
v 0.091879 -0.016313 0.045367
v 0.091879 -0.011275 0.047215
v 0.091879 -0.010028 0.050667
v 0.091879 -0.010355 0.052501
v 0.091879 -0.011292 0.054113
v 0.091881 -0.013144 0.055546
v 0.091879 -0.014475 0.055940
v -0.091287 -0.020498 0.047711
v -0.091287 -0.013383 0.045116
v -0.091286 -0.010294 0.047704
v -0.091206 -0.009856 0.048638
v 0.091155 -0.016417 0.056457
v 0.091155 -0.017410 0.056192
v 0.091155 -0.015394 0.056548
v 0.091155 -0.018341 0.055757
v 0.091155 -0.019183 0.055169
v 0.091155 -0.019908 0.054442
v 0.091155 -0.020498 0.053601
v 0.091155 -0.020932 0.052669
v 0.091155 -0.021198 0.051677
v 0.091155 -0.021287 0.050654
v 0.091155 -0.021198 0.049630
v 0.091155 -0.020932 0.048638
v 0.091155 -0.020498 0.047707
v 0.091155 -0.019908 0.046865
v 0.091155 -0.019183 0.046138
v 0.091155 -0.018341 0.045550
v 0.091155 -0.017410 0.045115
v 0.091155 -0.016417 0.044850
v 0.091155 -0.015394 0.044760
v 0.091155 -0.014370 0.044850
v 0.091155 -0.013378 0.045115
v 0.091155 -0.012447 0.045550
v 0.091155 -0.011605 0.046138
v 0.091155 -0.010879 0.046865
v 0.091155 -0.010289 0.047707
v 0.091155 -0.009856 0.048638
v 0.091155 -0.009589 0.049630
v 0.091155 -0.009501 0.050654
v 0.091155 -0.009589 0.051677
v 0.091155 -0.009856 0.052669
v 0.091155 -0.010289 0.053601
v 0.091155 -0.010879 0.054442
v 0.091155 -0.011605 0.055169
v 0.091155 -0.012447 0.055757
v 0.091155 -0.013378 0.056192
v 0.091155 -0.014370 0.056457
v 0.091879 -0.018853 0.054757
v -0.091287 -0.016413 0.056456
v -0.091287 -0.015390 0.056545
v -0.091287 -0.017405 0.056191
v -0.091287 -0.018336 0.055757
v -0.091287 -0.020494 0.053603
v -0.091287 -0.020928 0.052672
v -0.091287 -0.021195 0.051681
v -0.091749 -0.019641 0.047112
v -0.091287 -0.019184 0.046143
v -0.091287 -0.015398 0.044762
v -0.091287 -0.012452 0.045550
v -0.091830 -0.010282 0.048761
v -0.091287 -0.009593 0.049627
v -0.091287 -0.009503 0.050649
v -0.091287 -0.009591 0.051673
v -0.091830 -0.010658 0.053354
v -0.091287 -0.010879 0.054437
v -0.091287 -0.011604 0.055164
v -0.091830 -0.013502 0.055767
v -0.091830 -0.014418 0.056017
v 0.091516 -0.016389 0.056295
v 0.091516 -0.017353 0.056037
v 0.091516 -0.015394 0.056383
v 0.091516 -0.018258 0.055615
v 0.091516 -0.019076 0.055042
v 0.091516 -0.019782 0.054336
v 0.091516 -0.020355 0.053518
v 0.091516 -0.020777 0.052613
v 0.091516 -0.021036 0.051648
v 0.091516 -0.021122 0.050654
v 0.091516 -0.021036 0.049659
v 0.091516 -0.020777 0.048694
v 0.091516 -0.019782 0.046971
v 0.091516 -0.019076 0.046265
v 0.091516 -0.018258 0.045693
v 0.091516 -0.017353 0.045270
v 0.091516 -0.016389 0.045012
v 0.091516 -0.015394 0.044924
v 0.091516 -0.014399 0.045012
v 0.091516 -0.013434 0.045270
v 0.091516 -0.012530 0.045693
v 0.091516 -0.011711 0.046265
v 0.091516 -0.011006 0.046971
v 0.091516 -0.010432 0.047789
v 0.091516 -0.010011 0.048694
v 0.091516 -0.009752 0.049659
v 0.091516 -0.009665 0.050654
v 0.091516 -0.009752 0.051648
v 0.091516 -0.010011 0.052613
v 0.091516 -0.010432 0.053518
v 0.091516 -0.011006 0.054336
v 0.091516 -0.011711 0.055042
v 0.091516 -0.012530 0.055615
v 0.091516 -0.013434 0.056037
v 0.091516 -0.014399 0.056295
v -0.091984 -0.016026 0.055505
v -0.091984 -0.017886 0.054970
v -0.091984 -0.018598 0.054472
v -0.091984 -0.019461 0.053501
v -0.091984 -0.020142 0.052045
v -0.091985 -0.020419 0.051093
v -0.091984 -0.020303 0.049788
v -0.091984 -0.019894 0.048555
v -0.091991 -0.018996 0.047056
v -0.091968 -0.016687 0.045879
v -0.091990 -0.015072 0.045556
v -0.091984 -0.012546 0.046587
v -0.091984 -0.011408 0.047722
v -0.091984 -0.010654 0.049155
v -0.091979 -0.010404 0.051069
v -0.091984 -0.011062 0.053093
v -0.091974 -0.012024 0.054289
v -0.091984 -0.013595 0.055273
v 0.091991 -0.017550 0.055265
v 0.091974 -0.019803 0.052917
v 0.091984 -0.018905 0.054164
v 0.091984 -0.020169 0.051719
v 0.091984 -0.017098 0.045970
v 0.091984 -0.018242 0.046587
v 0.091985 -0.015833 0.045629
v 0.091984 -0.014848 0.045736
v 0.091984 -0.013296 0.046154
v 0.091991 -0.011141 0.047827
v 0.091984 -0.010448 0.050221
v 0.091990 -0.010803 0.052910
v 0.091984 -0.012190 0.054472
v 0.091967 -0.011523 0.053364
v 0.091984 -0.013802 0.055349
v -0.091952 -0.015923 0.055299
v -0.091936 -0.013768 0.054538
v -0.091929 -0.011529 0.052399
v -0.091925 -0.011303 0.049938
v -0.091928 -0.012288 0.047703
v -0.091928 -0.018118 0.047409
v -0.091950 -0.019941 0.050256
v -0.091952 -0.019682 0.052518
v -0.091950 -0.018012 0.054393
v 0.091974 -0.015638 0.055604
v 0.091952 -0.017974 0.054553
v 0.091936 -0.019571 0.051188
v 0.091977 -0.020469 0.050351
v 0.091952 -0.018786 0.047436
v 0.091950 -0.016575 0.046245
v 0.091952 -0.014303 0.046107
v 0.091950 -0.012166 0.047426
v 0.091952 -0.010911 0.049324
v 0.091926 -0.011300 0.051369
v 0.091952 -0.013306 0.054838
f 583 584 1
f 1 2 582
f 582 583 1
f 586 582 2
f 585 586 2
f 2 3 588
f 588 585 2
f 587 588 3
f 3 4 6
f 6 587 3
f 5 6 4
f 4 7 8
f 8 5 4
f 9 8 7
f 10 9 7
f 11 10 7
f 7 13 12
f 12 11 7
f 14 12 13
f 13 15 16
f 16 14 13
f 596 16 15
f 15 17 598
f 598 596 15
f 597 598 17
f 17 18 20
f 20 597 17
f 19 20 18
f 18 21 22
f 22 19 18
f 23 22 21
f 25 23 21
f 24 25 21
f 21 26 27
f 27 24 21
f 605 27 26
f 26 28 30
f 30 605 26
f 29 30 28
f 28 31 32
f 32 29 28
f 31 33 34
f 34 32 31
f 33 38 36
f 36 34 33
f 35 36 38
f 37 35 38
f 39 37 38
f 38 40 42
f 42 39 38
f 41 42 40
f 40 43 45
f 45 41 40
f 44 45 43
f 46 44 43
f 618 46 43
f 43 47 620
f 620 618 43
f 619 620 47
f 47 48 50
f 50 619 47
f 49 50 48
f 48 51 53
f 53 49 48
f 52 53 51
f 54 52 51
f 55 54 51
f 51 57 56
f 56 55 51
f 627 56 57
f 60 627 57
f 57 58 59
f 59 60 57
f 629 59 58
f 58 61 628
f 628 629 58
f 61 62 631
f 631 628 61
f 62 63 630
f 630 631 62
f 63 64 633
f 633 630 63
f 64 65 632
f 632 633 64
f 634 632 65
f 65 1 584
f 584 634 65
f 65 64 66
f 64 63 62
f 62 66 64
f 61 58 66
f 66 62 61
f 57 66 58
f 51 66 57
f 48 66 51
f 66 48 47
f 43 66 47
f 40 66 43
f 66 40 38
f 33 31 66
f 66 38 33
f 28 66 31
f 66 28 26
f 21 66 26
f 18 66 21
f 66 18 17
f 15 66 17
f 66 15 13
f 7 66 13
f 4 66 7
f 66 4 3
f 2 66 3
f 2 1 66
f 65 66 1
f 67 68 69
f 69 70 67
f 68 71 72
f 72 69 68
f 73 74 69
f 69 72 73
f 74 75 76
f 76 69 74
f 77 78 69
f 69 76 77
f 78 79 80
f 80 69 78
f 81 82 69
f 69 80 81
f 82 83 84
f 84 69 82
f 85 86 69
f 69 84 85
f 86 87 88
f 88 69 86
f 89 90 69
f 69 88 89
f 90 91 92
f 92 69 90
f 93 94 69
f 69 92 93
f 94 95 96
f 96 69 94
f 97 98 69
f 69 96 97
f 98 99 100
f 100 69 98
f 101 102 69
f 69 100 101
f 102 103 104
f 104 69 102
f 105 106 69
f 69 104 105
f 106 107 108
f 108 69 106
f 109 110 69
f 69 108 109
f 110 111 112
f 112 69 110
f 113 114 69
f 69 112 113
f 114 115 116
f 116 69 114
f 117 118 69
f 69 116 117
f 118 119 120
f 120 69 118
f 121 122 69
f 69 120 121
f 122 123 124
f 124 69 122
f 125 126 69
f 69 124 125
f 126 127 70
f 70 69 126
f 129 130 128
f 128 131 635
f 635 129 128
f 637 635 131
f 131 132 636
f 636 637 131
f 639 636 132
f 132 133 638
f 638 639 132
f 133 134 641
f 641 638 133
f 640 641 134
f 134 135 643
f 643 640 134
f 642 643 135
f 136 642 135
f 137 136 135
f 135 138 140
f 140 137 135
f 139 140 138
f 141 139 138
f 142 141 138
f 138 143 645
f 645 142 138
f 644 645 143
f 647 644 143
f 646 647 143
f 143 144 649
f 649 646 143
f 648 649 144
f 144 147 146
f 146 648 144
f 145 146 147
f 148 145 147
f 652 148 147
f 147 149 151
f 151 652 147
f 150 151 149
f 149 152 153
f 153 150 149
f 152 154 155
f 155 153 152
f 154 158 157
f 157 155 154
f 156 157 158
f 659 156 158
f 658 659 158
f 158 159 661
f 661 658 158
f 660 661 159
f 159 162 161
f 161 660 159
f 160 161 162
f 163 160 162
f 162 164 664
f 664 163 162
f 666 664 164
f 665 666 164
f 164 165 668
f 668 665 164
f 667 668 165
f 165 166 670
f 670 667 165
f 669 670 166
f 166 168 167
f 167 669 166
f 671 167 168
f 672 671 168
f 169 672 168
f 168 170 674
f 674 169 168
f 673 674 170
f 676 673 170
f 675 676 170
f 170 171 678
f 678 675 170
f 677 678 171
f 679 677 171
f 172 679 171
f 171 128 680
f 680 172 171
f 130 680 128
f 173 128 171
f 173 171 170
f 173 170 168
f 173 168 166
f 165 173 166
f 173 165 164
f 162 173 164
f 159 173 162
f 173 159 158
f 154 152 173
f 173 158 154
f 149 173 152
f 173 149 147
f 173 147 144
f 143 173 144
f 138 173 143
f 135 173 138
f 134 173 135
f 133 132 173
f 173 134 133
f 131 173 132
f 131 128 173
f 174 175 176
f 176 177 174
f 175 178 179
f 179 176 175
f 180 181 176
f 176 179 180
f 181 182 183
f 183 176 181
f 184 185 176
f 176 183 184
f 185 186 187
f 187 176 185
f 188 189 176
f 176 187 188
f 189 190 191
f 191 176 189
f 192 193 176
f 176 191 192
f 193 194 195
f 195 176 193
f 196 197 176
f 176 195 196
f 197 198 199
f 199 176 197
f 200 201 176
f 176 199 200
f 201 202 203
f 203 176 201
f 204 205 176
f 176 203 204
f 205 206 207
f 207 176 205
f 208 209 176
f 176 207 208
f 209 210 211
f 211 176 209
f 212 213 176
f 176 211 212
f 213 214 215
f 215 176 213
f 216 217 176
f 176 215 216
f 217 218 219
f 219 176 217
f 220 221 176
f 176 219 220
f 221 222 223
f 223 176 221
f 224 225 176
f 176 223 224
f 225 226 227
f 227 176 225
f 228 229 176
f 176 227 228
f 229 230 231
f 231 176 229
f 232 233 176
f 176 231 232
f 233 234 177
f 177 176 233
f 235 576 349
f 349 344 235
f 323 235 344
f 237 239 238
f 239 348 574
f 575 574 348
f 349 348 398
f 348 349 575
f 576 575 349
f 399 240 577
f 240 332 577
f 354 577 332
f 357 354 356
f 578 391 357
f 354 357 391
f 357 359 578
f 359 401 579
f 241 579 401
f 401 242 241
f 580 241 242
f 242 363 580
f 399 580 363
f 581 395 399
f 580 399 395
f 577 581 399
f 281 336 243
f 681 682 243
f 682 683 281
f 281 243 682
f 244 243 336
f 336 409 244
f 684 685 244
f 685 681 243
f 243 244 685
f 245 244 409
f 246 686 245
f 686 684 244
f 244 245 686
f 247 245 409
f 409 383 247
f 687 688 247
f 688 246 245
f 245 247 688
f 248 247 383
f 383 384 248
f 689 690 248
f 690 687 247
f 247 248 690
f 249 248 384
f 250 249 384
f 691 692 249
f 249 250 691
f 692 689 248
f 248 249 692
f 384 385 250
f 251 250 385
f 252 693 250
f 250 251 252
f 693 691 250
f 385 364 251
f 253 251 364
f 694 695 251
f 251 253 694
f 695 252 251
f 364 365 254
f 254 253 364
f 696 697 253
f 253 254 696
f 697 694 253
f 255 254 365
f 698 699 255
f 699 696 254
f 254 255 699
f 256 255 365
f 700 701 256
f 701 698 255
f 255 256 701
f 256 337 257
f 702 703 257
f 703 700 256
f 256 257 703
f 258 257 337
f 259 704 258
f 704 702 257
f 257 258 704
f 705 260 258
f 258 366 705
f 260 259 258
f 706 707 261
f 707 705 366
f 366 261 707
f 261 422 262
f 263 262 422
f 264 708 262
f 262 263 264
f 708 706 261
f 261 262 708
f 265 263 422
f 709 710 263
f 263 265 709
f 710 264 263
f 711 712 266
f 712 709 265
f 265 266 712
f 267 266 403
f 403 404 268
f 268 267 403
f 713 714 267
f 267 268 713
f 714 711 266
f 266 267 714
f 269 268 404
f 270 715 269
f 715 713 268
f 268 269 715
f 271 269 404
f 716 717 271
f 717 270 269
f 269 271 717
f 272 271 423
f 273 272 423
f 718 719 272
f 272 273 718
f 719 716 271
f 271 272 719
f 720 275 273
f 273 274 720
f 275 718 273
f 721 722 274
f 274 276 721
f 722 720 274
f 723 724 276
f 276 277 723
f 724 721 276
f 725 726 277
f 726 723 277
f 727 728 278
f 728 725 277
f 277 278 728
f 279 278 387
f 387 339 279
f 729 730 279
f 730 727 278
f 278 279 730
f 280 279 339
f 731 732 280
f 732 729 279
f 279 280 732
f 683 733 281
f 733 731 280
f 280 281 733
f 282 283 397
f 734 735 282
f 735 736 283
f 283 282 735
f 284 282 405
f 737 738 282
f 282 284 737
f 738 734 282
f 405 340 285
f 285 284 405
f 286 287 284
f 284 285 286
f 287 737 284
f 288 285 340
f 739 740 288
f 740 286 285
f 285 288 740
f 289 288 340
f 340 406 289
f 741 742 289
f 742 739 288
f 288 289 742
f 290 289 406
f 291 290 406
f 743 744 290
f 290 291 743
f 744 741 289
f 289 290 744
f 406 292 291
f 293 745 291
f 291 292 293
f 745 743 291
f 294 292 407
f 746 747 292
f 292 294 746
f 747 293 292
f 295 294 407
f 748 749 295
f 749 746 294
f 294 295 749
f 407 341 296
f 296 295 407
f 297 296 341
f 750 751 296
f 296 297 750
f 751 748 295
f 295 296 751
f 298 297 341
f 752 753 297
f 297 298 752
f 753 750 297
f 298 342 299
f 754 755 298
f 298 299 754
f 755 752 298
f 342 300 299
f 301 756 299
f 299 300 301
f 756 754 299
f 757 758 300
f 300 302 757
f 758 301 300
f 759 760 302
f 760 757 302
f 304 761 303
f 761 759 302
f 302 303 761
f 303 425 305
f 762 763 305
f 763 304 303
f 303 305 763
f 764 765 305
f 305 306 764
f 765 762 305
f 306 367 307
f 766 767 306
f 306 307 766
f 767 764 306
f 367 343 308
f 308 307 367
f 309 768 307
f 307 308 309
f 768 766 307
f 310 308 343
f 343 368 311
f 311 310 343
f 769 770 310
f 310 311 769
f 770 309 308
f 308 310 770
f 312 311 368
f 771 772 312
f 772 769 311
f 311 312 772
f 313 312 368
f 773 314 313
f 314 771 312
f 312 313 314
f 774 775 313
f 313 369 774
f 775 773 313
f 776 777 369
f 369 315 776
f 777 774 369
f 316 315 370
f 778 779 315
f 315 316 778
f 779 776 315
f 317 316 370
f 780 781 316
f 316 317 780
f 781 778 316
f 782 783 317
f 317 318 782
f 783 780 317
f 319 318 396
f 784 785 318
f 318 319 784
f 785 782 318
f 319 397 283
f 736 786 319
f 319 283 736
f 786 784 319
f 320 426 427
f 320 427 428
f 320 428 429
f 430 321 320
f 320 429 430
f 321 430 431
f 321 431 432
f 321 432 433
f 433 344 321
f 344 433 434
f 344 434 435
f 435 322 344
f 322 435 436
f 322 436 437
f 322 437 439
f 322 439 441
f 441 323 322
f 323 441 444
f 444 236 323
f 450 346 345
f 346 450 453
f 453 411 346
f 411 453 372
f 411 372 454
f 411 454 456
f 411 456 457
f 411 457 412
f 466 239 373
f 239 466 467
f 239 467 468
f 239 468 469
f 469 347 239
f 347 469 471
f 347 471 472
f 347 472 473
f 347 473 474
f 474 348 347
f 348 474 475
f 348 475 408
f 374 324 416
f 489 324 375
f 490 349 324
f 324 489 490
f 349 490 376
f 349 376 495
f 495 325 349
f 426 320 325
f 353 379 333
f 353 333 516
f 525 356 355
f 355 524 525
f 356 525 526
f 529 357 356
f 356 526 529
f 357 529 531
f 357 531 532
f 532 358 357
f 358 532 533
f 358 533 534
f 534 536 358
f 359 536 537
f 538 360 359
f 359 537 538
f 360 538 539
f 360 539 540
f 360 540 361
f 541 401 361
f 401 541 544
f 401 544 545
f 555 242 553
f 242 555 420
f 558 421 420
f 559 402 421
f 421 558 559
f 402 559 562
f 402 562 381
f 363 381 334
f 336 382 409
f 364 571 572
f 572 365 364
f 366 573 422
f 238 403 338
f 403 238 404
f 388 340 405
f 388 406 340
f 406 388 389
f 406 389 407
f 390 341 407
f 579 343 367
f 241 368 343
f 343 579 241
f 368 241 580
f 580 394 368
f 370 394 395
f 370 395 396
f 345 346 371
f 324 398 416
f 349 325 320
f 400 351 352
f 358 359 357
f 359 358 536
f 401 360 361
f 242 362 419
f 421 242 420
f 366 258 337
f 422 261 366
f 405 282 397
f 407 292 406
f 298 341 342
f 300 342 392
f 392 302 300
f 425 303 302
f 367 306 305
f 394 369 313
f 313 368 394
f 370 315 369
f 369 394 370
f 317 370 396
f 396 318 317
f 319 396 397
f 320 344 349
f 344 320 321
f 322 323 344
f 371 346 236
f 236 346 411
f 411 237 236
f 373 239 237
f 239 347 348
f 408 398 348
f 324 349 398
f 350 240 399
f 240 351 400
f 400 332 240
f 353 354 332
f 355 356 354
f 359 360 401
f 362 242 401
f 242 421 402
f 402 363 242
f 256 365 337
f 338 265 422
f 265 338 403
f 403 266 265
f 271 404 423
f 273 423 424
f 424 274 273
f 424 276 274
f 276 424 410
f 276 410 277
f 278 277 387
f 339 281 280
f 281 339 336
f 445 236 444
f 236 445 371
f 459 412 457
f 412 459 460
f 460 413 412
f 413 460 461
f 413 461 462
f 462 414 413
f 373 414 415
f 415 465 373
f 477 408 475
f 408 477 478
f 408 478 479
f 480 416 408
f 408 479 480
f 486 324 374
f 324 486 375
f 327 500 328
f 506 351 377
f 351 506 352
f 378 332 331
f 378 379 332
f 521 380 418
f 355 380 524
f 550 362 545
f 362 550 419
f 419 552 553
f 556 420 555
f 420 556 558
f 566 363 334
f 363 566 568
f 336 339 382
f 571 364 385
f 365 572 337
f 573 366 337
f 574 423 404
f 423 574 424
f 576 339 387
f 407 389 390
f 341 390 391
f 341 391 342
f 393 367 425
f 412 237 411
f 237 412 413
f 237 413 414
f 237 414 373
f 398 408 416
f 350 326 327
f 350 327 328
f 328 240 350
f 240 328 329
f 240 329 330
f 330 351 240
f 351 330 377
f 352 331 332
f 332 400 352
f 332 379 353
f 353 516 417
f 418 354 353
f 353 417 418
f 354 418 380
f 354 380 355
f 545 362 401
f 553 242 419
f 381 363 402
f 399 363 568
f 399 568 569
f 399 569 335
f 335 350 399
f 350 335 326
f 277 410 386
f 277 386 387
f 302 392 425
f 367 305 425
f 438 439 437
f 595 439 438
f 440 441 439
f 439 595 440
f 441 440 442
f 443 444 441
f 441 442 443
f 444 443 446
f 446 445 444
f 445 446 447
f 371 445 447
f 371 447 448
f 448 345 371
f 449 345 448
f 345 449 451
f 451 450 345
f 450 451 452
f 450 452 453
f 603 372 453
f 372 603 455
f 455 454 372
f 454 455 456
f 458 459 457
f 463 414 462
f 464 415 414
f 414 463 464
f 415 464 465
f 373 465 466
f 470 469 468
f 469 470 471
f 476 477 475
f 625 479 478
f 479 625 481
f 481 480 479
f 482 374 480
f 480 481 482
f 416 480 374
f 483 486 374
f 374 482 484
f 484 483 374
f 485 486 483
f 483 484 485
f 486 485 487
f 487 375 486
f 488 489 375
f 375 487 488
f 489 488 491
f 491 490 489
f 492 376 490
f 490 491 492
f 376 492 493
f 493 495 376
f 495 493 494
f 495 494 496
f 496 325 495
f 325 496 426
f 335 497 498
f 498 326 335
f 499 327 326
f 326 498 499
f 327 499 500
f 501 328 500
f 328 501 502
f 502 329 328
f 503 330 329
f 329 502 503
f 330 503 504
f 504 377 330
f 505 506 377
f 377 504 505
f 506 505 507
f 508 331 506
f 506 507 508
f 352 506 331
f 509 378 331
f 331 508 509
f 510 378 509
f 378 510 511
f 512 379 511
f 378 511 379
f 379 512 513
f 513 333 379
f 514 515 333
f 333 513 514
f 515 516 333
f 515 514 517
f 517 516 515
f 518 417 516
f 516 517 518
f 417 518 519
f 519 418 417
f 520 521 418
f 418 519 520
f 380 521 522
f 521 520 522
f 523 524 380
f 380 522 523
f 650 525 524
f 525 650 527
f 527 526 525
f 528 529 526
f 526 527 528
f 529 528 530
f 529 530 531
f 535 536 534
f 536 535 537
f 663 361 540
f 662 541 361
f 361 663 662
f 541 662 542
f 542 544 541
f 544 542 543
f 544 543 546
f 546 545 544
f 545 546 547
f 545 547 548
f 548 550 545
f 549 550 548
f 550 549 551
f 551 419 550
f 419 551 552
f 554 553 552
f 553 554 555
f 557 558 556
f 558 557 560
f 560 559 558
f 561 562 559
f 559 560 561
f 562 561 563
f 564 381 562
f 562 563 564
f 381 564 334
f 565 566 334
f 567 568 566
f 568 567 570
f 570 569 568
f 497 335 569
f 569 570 497
f 576 382 339
f 235 382 576
f 235 409 382
f 235 383 409
f 235 384 383
f 384 235 571
f 323 571 235
f 571 385 384
f 571 323 236
f 236 572 571
f 572 236 237
f 572 573 337
f 237 573 572
f 422 573 238
f 573 237 238
f 238 338 422
f 574 404 238
f 238 239 574
f 424 574 575
f 424 575 410
f 575 386 410
f 386 575 576
f 576 387 386
f 397 581 577
f 577 405 397
f 577 388 405
f 577 389 388
f 354 389 577
f 354 390 389
f 390 354 391
f 578 342 391
f 578 392 342
f 578 425 392
f 359 393 578
f 425 578 393
f 393 359 579
f 579 367 393
f 395 394 580
f 581 396 395
f 581 397 396
f 582 428 427
f 427 583 582
f 426 584 583
f 583 427 426
f 585 430 429
f 429 586 585
f 428 582 586
f 586 429 428
f 587 432 431
f 431 588 587
f 430 585 588
f 588 431 430
f 5 589 590
f 590 6 5
f 589 434 433
f 433 590 589
f 432 587 590
f 590 433 432
f 6 590 587
f 9 591 592
f 592 8 9
f 591 436 435
f 435 592 591
f 434 589 592
f 592 435 434
f 589 5 8
f 8 592 589
f 11 593 594
f 594 10 11
f 593 438 437
f 437 594 593
f 436 591 594
f 594 437 436
f 591 9 10
f 10 594 591
f 595 12 14
f 14 440 595
f 438 593 595
f 593 11 12
f 12 595 593
f 596 443 442
f 442 16 596
f 440 14 16
f 16 442 440
f 597 447 446
f 446 598 597
f 443 596 598
f 598 446 443
f 19 599 600
f 600 20 19
f 599 449 448
f 448 600 599
f 447 597 600
f 600 448 447
f 20 600 597
f 23 601 602
f 602 22 23
f 601 452 451
f 451 602 601
f 449 599 602
f 602 451 449
f 599 19 22
f 22 602 599
f 24 603 604
f 604 25 24
f 453 604 603
f 452 601 604
f 604 453 452
f 601 23 25
f 25 604 601
f 605 456 455
f 455 27 605
f 27 455 603
f 603 24 27
f 29 606 607
f 607 30 29
f 606 458 457
f 457 607 606
f 456 605 607
f 607 457 456
f 30 607 605
f 34 608 609
f 609 32 34
f 608 460 459
f 459 609 608
f 458 606 609
f 609 459 458
f 606 29 32
f 32 609 606
f 35 610 611
f 611 36 35
f 610 462 461
f 461 611 610
f 460 608 611
f 611 461 460
f 608 34 36
f 36 611 608
f 39 612 613
f 613 37 39
f 612 464 463
f 463 613 612
f 462 610 613
f 613 463 462
f 610 35 37
f 37 613 610
f 41 614 615
f 615 42 41
f 614 466 465
f 465 615 614
f 464 612 615
f 615 465 464
f 612 39 42
f 42 615 612
f 44 616 617
f 617 45 44
f 616 468 467
f 467 617 616
f 466 614 617
f 617 467 466
f 614 41 45
f 45 617 614
f 470 46 618
f 618 471 470
f 468 616 470
f 616 44 46
f 46 470 616
f 619 473 472
f 472 620 619
f 471 618 620
f 620 472 471
f 49 621 622
f 622 50 49
f 621 475 474
f 474 622 621
f 473 619 622
f 622 474 473
f 50 622 619
f 52 623 624
f 624 53 52
f 623 477 476
f 476 624 623
f 475 621 624
f 624 476 475
f 621 49 53
f 53 624 621
f 55 625 626
f 626 54 55
f 478 626 625
f 477 623 626
f 626 478 477
f 623 52 54
f 54 626 623
f 627 482 481
f 481 56 627
f 56 481 625
f 625 55 56
f 59 485 484
f 484 60 59
f 482 627 60
f 60 484 482
f 628 488 487
f 487 629 628
f 485 59 629
f 629 487 485
f 630 492 491
f 491 631 630
f 488 628 631
f 631 491 488
f 632 494 493
f 493 633 632
f 492 630 633
f 633 493 492
f 584 426 496
f 496 634 584
f 494 632 634
f 634 496 494
f 635 499 498
f 498 129 635
f 497 130 129
f 129 498 497
f 636 501 500
f 500 637 636
f 499 635 637
f 637 500 499
f 638 503 502
f 502 639 638
f 501 636 639
f 639 502 501
f 640 505 504
f 504 641 640
f 503 638 641
f 641 504 503
f 642 508 507
f 507 643 642
f 505 640 643
f 643 507 505
f 137 510 509
f 509 136 137
f 508 642 136
f 136 509 508
f 139 512 511
f 511 140 139
f 510 137 140
f 140 511 510
f 142 514 513
f 513 141 142
f 512 139 141
f 141 513 512
f 644 518 517
f 517 645 644
f 514 142 645
f 645 517 514
f 646 520 519
f 519 647 646
f 518 644 647
f 647 519 518
f 648 523 522
f 522 649 648
f 520 646 649
f 649 522 520
f 145 650 651
f 651 146 145
f 524 651 650
f 523 648 651
f 651 524 523
f 146 651 648
f 652 528 527
f 527 148 652
f 148 527 650
f 650 145 148
f 150 653 654
f 654 151 150
f 653 531 530
f 530 654 653
f 528 652 654
f 654 530 528
f 151 654 652
f 155 655 656
f 656 153 155
f 655 533 532
f 532 656 655
f 531 653 656
f 656 532 531
f 653 150 153
f 153 656 653
f 156 535 657
f 657 157 156
f 534 657 535
f 533 655 657
f 657 534 533
f 655 155 157
f 157 657 655
f 658 538 537
f 537 659 658
f 659 537 535
f 535 156 659
f 660 540 539
f 539 661 660
f 538 658 661
f 661 539 538
f 160 662 663
f 663 161 160
f 540 660 663
f 161 663 660
f 664 543 542
f 542 163 664
f 163 542 662
f 662 160 163
f 665 547 546
f 546 666 665
f 543 664 666
f 666 546 543
f 667 549 548
f 548 668 667
f 547 665 668
f 668 548 547
f 669 552 551
f 551 670 669
f 549 667 670
f 670 551 549
f 554 167 671
f 671 555 554
f 552 669 554
f 167 554 669
f 169 557 672
f 556 672 557
f 555 671 672
f 672 556 555
f 673 561 560
f 560 674 673
f 674 560 557
f 557 169 674
f 675 564 563
f 563 676 675
f 561 673 676
f 676 563 561
f 677 565 334
f 334 678 677
f 564 675 678
f 678 334 564
f 172 567 679
f 566 679 567
f 565 677 679
f 679 566 565
f 130 497 570
f 570 680 130
f 680 570 567
f 567 172 680
f 681 71 68
f 68 682 681
f 67 683 682
f 682 68 67
f 684 73 72
f 72 685 684
f 71 681 685
f 685 72 71
f 246 75 74
f 74 686 246
f 73 684 686
f 686 74 73
f 687 77 76
f 76 688 687
f 75 246 688
f 688 76 75
f 689 79 78
f 78 690 689
f 77 687 690
f 690 78 77
f 691 81 80
f 80 692 691
f 79 689 692
f 692 80 79
f 252 83 82
f 82 693 252
f 81 691 693
f 693 82 81
f 694 85 84
f 84 695 694
f 83 252 695
f 695 84 83
f 696 87 86
f 86 697 696
f 85 694 697
f 697 86 85
f 698 89 88
f 88 699 698
f 87 696 699
f 699 88 87
f 700 91 90
f 90 701 700
f 89 698 701
f 701 90 89
f 702 93 92
f 92 703 702
f 91 700 703
f 703 92 91
f 259 95 94
f 94 704 259
f 93 702 704
f 704 94 93
f 705 97 96
f 96 260 705
f 95 259 260
f 260 96 95
f 706 99 98
f 98 707 706
f 97 705 707
f 707 98 97
f 264 101 100
f 100 708 264
f 99 706 708
f 708 100 99
f 709 103 102
f 102 710 709
f 101 264 710
f 710 102 101
f 711 105 104
f 104 712 711
f 103 709 712
f 712 104 103
f 713 107 106
f 106 714 713
f 105 711 714
f 714 106 105
f 270 109 108
f 108 715 270
f 107 713 715
f 715 108 107
f 716 111 110
f 110 717 716
f 109 270 717
f 717 110 109
f 718 113 112
f 112 719 718
f 111 716 719
f 719 112 111
f 720 115 114
f 114 275 720
f 113 718 275
f 275 114 113
f 721 117 116
f 116 722 721
f 115 720 722
f 722 116 115
f 723 119 118
f 118 724 723
f 117 721 724
f 724 118 117
f 725 121 120
f 120 726 725
f 119 723 726
f 726 120 119
f 727 123 122
f 122 728 727
f 121 725 728
f 728 122 121
f 729 125 124
f 124 730 729
f 123 727 730
f 730 124 123
f 731 127 126
f 126 732 731
f 125 729 732
f 732 126 125
f 683 67 70
f 70 733 683
f 127 731 733
f 733 70 127
f 734 178 175
f 175 735 734
f 174 736 735
f 735 175 174
f 737 180 179
f 179 738 737
f 178 734 738
f 738 179 178
f 286 182 181
f 181 287 286
f 180 737 287
f 287 181 180
f 739 184 183
f 183 740 739
f 182 286 740
f 740 183 182
f 741 186 185
f 185 742 741
f 184 739 742
f 742 185 184
f 743 188 187
f 187 744 743
f 186 741 744
f 744 187 186
f 293 190 189
f 189 745 293
f 188 743 745
f 745 189 188
f 746 192 191
f 191 747 746
f 190 293 747
f 747 191 190
f 748 194 193
f 193 749 748
f 192 746 749
f 749 193 192
f 750 196 195
f 195 751 750
f 194 748 751
f 751 195 194
f 752 198 197
f 197 753 752
f 196 750 753
f 753 197 196
f 754 200 199
f 199 755 754
f 198 752 755
f 755 199 198
f 301 202 201
f 201 756 301
f 200 754 756
f 756 201 200
f 757 204 203
f 203 758 757
f 202 301 758
f 758 203 202
f 759 206 205
f 205 760 759
f 204 757 760
f 760 205 204
f 304 208 207
f 207 761 304
f 206 759 761
f 761 207 206
f 762 210 209
f 209 763 762
f 208 304 763
f 763 209 208
f 764 212 211
f 211 765 764
f 210 762 765
f 765 211 210
f 766 214 213
f 213 767 766
f 212 764 767
f 767 213 212
f 309 216 215
f 215 768 309
f 214 766 768
f 768 215 214
f 769 218 217
f 217 770 769
f 216 309 770
f 770 217 216
f 771 220 219
f 219 772 771
f 218 769 772
f 772 219 218
f 773 222 221
f 221 314 773
f 220 771 314
f 314 221 220
f 774 224 223
f 223 775 774
f 222 773 775
f 775 223 222
f 776 226 225
f 225 777 776
f 224 774 777
f 777 225 224
f 778 228 227
f 227 779 778
f 226 776 779
f 779 227 226
f 780 230 229
f 229 781 780
f 228 778 781
f 781 229 228
f 782 232 231
f 231 783 782
f 230 780 783
f 783 231 230
f 784 234 233
f 233 785 784
f 232 782 785
f 785 233 232
f 736 174 177
f 177 786 736
f 234 784 786
f 786 177 234
f 787 788 789
f 789 790 787
f 791 787 790
f 790 792 791
f 787 791 793
f 793 854 787
f 788 787 854
f 854 794 788
f 862 791 792
f 792 795 862
f 855 862 795
f 795 796 855
f 862 793 791
f 867 855 796
f 796 797 867
f 866 867 797
f 797 798 866
f 856 866 798
f 798 799 856
f 800 856 799
f 799 801 800
f 857 800 801
f 801 802 857
f 803 857 802
f 802 804 803
f 857 803 894
f 869 803 804
f 804 805 869
f 806 869 805
f 805 807 806
f 869 806 868
f 869 894 803
f 808 806 807
f 807 809 808
f 810 808 809
f 809 811 810
f 808 810 901
f 901 900 808
f 806 808 900
f 900 868 806
f 812 810 811
f 811 813 812
f 814 812 813
f 813 815 814
f 812 814 904
f 904 870 812
f 810 812 870
f 870 901 810
f 871 814 815
f 815 816 871
f 858 871 816
f 816 817 858
f 871 904 814
f 818 858 817
f 817 819 818
f 872 818 819
f 819 820 872
f 872 821 818
f 858 818 821
f 874 872 820
f 820 822 874
f 873 874 822
f 822 823 873
f 824 873 823
f 823 825 824
f 826 824 825
f 825 827 826
f 824 826 863
f 863 859 824
f 873 824 859
f 828 826 827
f 827 829 828
f 830 828 829
f 829 831 830
f 828 830 832
f 828 863 826
f 833 830 831
f 831 834 833
f 835 833 834
f 834 836 835
f 833 835 861
f 861 860 833
f 830 833 860
f 860 832 830
f 837 835 836
f 836 838 837
f 839 837 838
f 838 840 839
f 837 839 841
f 841 842 837
f 835 837 842
f 842 861 835
f 843 839 840
f 840 844 843
f 845 843 844
f 844 846 845
f 845 877 843
f 839 843 877
f 877 841 839
f 847 845 846
f 846 848 847
f 849 847 848
f 848 850 849
f 847 849 933
f 933 932 847
f 845 847 932
f 851 849 850
f 850 852 851
f 788 851 852
f 852 789 788
f 851 788 794
f 794 853 851
f 849 851 853
f 853 933 849
f 828 832 875
f 860 875 832
f 861 842 926
f 841 926 842
f 875 860 923
f 876 923 860
f 860 861 876
f 926 876 861
f 793 862 865
f 864 865 862
f 862 855 864
f 867 864 855
f 854 793 878
f 878 879 854
f 794 854 879
f 879 880 794
f 793 865 881
f 882 881 865
f 865 864 882
f 881 882 883
f 883 884 881
f 793 881 884
f 884 878 793
f 885 882 864
f 864 867 885
f 886 885 867
f 867 866 886
f 885 886 887
f 887 888 885
f 882 885 888
f 888 883 882
f 889 886 866
f 866 856 889
f 890 889 856
f 856 800 890
f 889 890 891
f 891 892 889
f 886 889 892
f 892 887 886
f 893 890 800
f 800 857 893
f 894 893 857
f 893 894 895
f 895 896 893
f 890 893 896
f 896 891 890
f 894 869 897
f 868 897 869
f 897 868 898
f 898 899 897
f 894 897 899
f 899 895 894
f 900 901 902
f 902 903 900
f 868 900 903
f 903 898 868
f 870 904 905
f 905 906 870
f 901 870 906
f 906 902 901
f 904 871 907
f 908 907 871
f 871 858 908
f 907 908 909
f 909 910 907
f 904 907 910
f 910 905 904
f 821 908 858
f 821 872 911
f 821 911 912
f 912 913 821
f 908 821 913
f 913 909 908
f 914 911 872
f 872 874 914
f 915 914 874
f 874 873 915
f 914 915 916
f 916 917 914
f 911 914 917
f 917 912 911
f 859 915 873
f 859 863 918
f 918 919 859
f 915 859 919
f 919 916 915
f 863 828 920
f 875 920 828
f 920 875 921
f 921 922 920
f 863 920 922
f 922 918 863
f 923 876 924
f 924 925 923
f 875 923 925
f 925 921 875
f 926 841 927
f 927 928 926
f 876 926 928
f 928 924 876
f 877 927 841
f 877 845 929
f 877 929 930
f 930 931 877
f 927 877 931
f 932 929 845
f 932 933 934
f 934 935 932
f 929 932 935
f 935 930 929
f 853 794 880
f 880 936 853
f 933 853 936
f 936 934 933
f 937 944 1233
f 1233 938 937
f 938 1234 937
f 1235 937 1234
f 1236 937 1235
f 939 937 1236
f 937 939 940
f 937 940 1237
f 941 937 1237
f 942 937 941
f 943 937 942
f 937 943 944
f 945 946 947
f 945 947 1243
f 1243 948 945
f 948 949 945
f 950 945 949
f 951 945 950
f 945 951 952
f 1250 945 952
f 953 945 1250
f 946 945 953
f 1070 1144 1145
f 1144 1070 954
f 954 1146 1144
f 1071 1147 1146
f 1146 954 1071
f 1147 1071 955
f 955 981 1147
f 1072 982 981
f 981 955 1072
f 1072 1148 982
f 956 1149 1148
f 1148 1072 956
f 1149 956 1073
f 1073 1150 1149
f 1150 1073 1074
f 1075 984 1074
f 957 985 984
f 984 1075 957
f 985 957 1076
f 1076 1103 985
f 1103 1076 1151
f 1077 1152 1151
f 1077 987 1152
f 987 1077 958
f 958 988 987
f 1078 989 988
f 988 958 1078
f 989 1078 959
f 959 1153 989
f 1079 990 1153
f 1153 959 1079
f 990 1079 960
f 960 1104 990
f 1080 1154 1104
f 1104 960 1080
f 1154 1080 1081
f 1081 991 1154
f 961 992 991
f 991 1081 961
f 992 961 1082
f 1082 1105 992
f 1105 1082 1155
f 1083 1156 1155
f 1083 1157 1156
f 1157 1083 1084
f 1084 1158 1157
f 962 993 1158
f 1158 1084 962
f 993 962 1159
f 1085 1160 1159
f 1160 1085 963
f 963 1161 1160
f 1086 995 1161
f 1161 963 1086
f 995 1086 1162
f 1070 1145 1163
f 1087 1164 1165
f 1165 965 1087
f 1164 1087 964
f 964 1166 1164
f 965 1167 1168
f 1168 1143 965
f 965 1165 1167
f 1088 1169 1170
f 1170 966 1088
f 1169 1088 1143
f 1143 1168 1169
f 1089 1171 1172
f 1172 967 1089
f 1171 1089 966
f 966 1170 1171
f 1090 1173 1174
f 1174 968 1090
f 1173 1090 967
f 967 1172 1173
f 1091 1175 1092
f 1175 1091 968
f 968 1174 1175
f 1093 1176 1177
f 1176 1093 1092
f 969 1178 1179
f 1179 1095 969
f 1178 969 1093
f 1093 1177 1178
f 1096 1180 1181
f 1181 970 1096
f 1180 1096 1095
f 1095 1179 1180
f 971 1182 1183
f 1183 972 971
f 1182 971 970
f 970 1181 1182
f 973 1184 1185
f 1185 974 973
f 1184 973 972
f 972 1183 1184
f 1097 1186 1187
f 1187 975 1097
f 1186 1097 974
f 974 1185 1186
f 976 1188 1189
f 1189 977 976
f 1188 976 975
f 975 1187 1188
f 1098 1190 1191
f 1191 978 1098
f 1190 1098 977
f 977 1189 1190
f 1099 1192 1193
f 1193 979 1099
f 1192 1099 978
f 978 1191 1192
f 1100 1194 1195
f 1195 980 1100
f 1194 1100 979
f 979 1193 1194
f 1101 1196 1197
f 1196 1101 980
f 980 1195 1196
f 1102 1198 1166
f 1166 964 1102
f 1198 1102 1101
f 1101 1197 1198
f 1000 998 999
f 999 1001 1000
f 998 1000 1002
f 1002 1003 998
f 1006 1004 1005
f 1005 1007 1006
f 1004 1006 1001
f 1001 999 1004
f 1010 1008 1009
f 1009 1011 1010
f 1008 1010 1007
f 1007 1005 1008
f 1014 1012 1013
f 1013 1015 1014
f 1012 1014 1011
f 1011 1009 1012
f 1018 1016 1017
f 1017 1019 1018
f 1016 1018 1015
f 1015 1013 1016
f 1022 1020 1021
f 1021 1023 1022
f 1020 1022 1019
f 1019 1017 1020
f 1026 1024 1025
f 1025 1027 1026
f 1024 1026 1023
f 1023 1021 1024
f 1030 1028 1029
f 1029 1031 1030
f 1028 1030 1027
f 1027 1025 1028
f 1034 1032 1033
f 1033 1035 1034
f 1032 1034 1031
f 1031 1029 1032
f 1038 1036 1037
f 1037 1039 1038
f 1036 1038 1035
f 1035 1033 1036
f 1042 1040 1041
f 1041 1043 1042
f 1040 1042 1039
f 1039 1037 1040
f 1046 1044 1045
f 1045 1047 1046
f 1044 1046 1043
f 1043 1041 1044
f 1050 1048 1049
f 1049 1051 1050
f 1048 1050 1047
f 1047 1045 1048
f 1054 1052 1053
f 1053 1055 1054
f 1052 1054 1051
f 1051 1049 1052
f 1058 1056 1057
f 1057 1059 1058
f 1056 1058 1055
f 1055 1053 1056
f 1062 1060 1061
f 1061 1063 1062
f 1060 1062 1059
f 1059 1057 1060
f 1066 1064 1065
f 1065 1067 1066
f 1064 1066 1063
f 1063 1061 1064
f 1069 1068 1003
f 1003 1002 1069
f 1068 1069 1067
f 1067 1065 1068
f 1207 1151 1076
f 1151 1207 1077
f 1217 965 1143
f 1092 1094 1091
f 1094 1092 1093
f 1144 790 789
f 789 1145 1144
f 790 1144 1146
f 1146 792 790
f 1147 795 792
f 792 1146 1147
f 795 1147 981
f 981 796 795
f 982 797 796
f 796 981 982
f 797 982 1148
f 1148 798 797
f 1149 799 798
f 798 1148 1149
f 799 1149 1150
f 1150 801 799
f 983 802 801
f 801 1150 983
f 802 983 984
f 984 804 802
f 985 805 804
f 804 984 985
f 805 985 1103
f 1103 807 805
f 986 809 807
f 807 1103 986
f 809 986 1152
f 1152 811 809
f 987 813 811
f 811 1152 987
f 813 987 988
f 988 815 813
f 989 816 815
f 815 988 989
f 816 989 1153
f 1153 817 816
f 990 819 817
f 817 1153 990
f 819 990 1104
f 1104 820 819
f 1154 822 820
f 820 1104 1154
f 822 1154 991
f 991 823 822
f 992 825 823
f 823 991 992
f 825 992 1105
f 1105 827 825
f 1106 829 827
f 827 1105 1106
f 829 1106 1156
f 1156 831 829
f 1157 834 831
f 831 1156 1157
f 834 1157 1158
f 1158 836 834
f 993 838 836
f 836 1158 993
f 838 993 994
f 994 840 838
f 1160 844 840
f 840 994 1160
f 844 1160 1161
f 1161 846 844
f 995 848 846
f 846 1161 995
f 848 995 996
f 996 850 848
f 997 852 850
f 850 996 997
f 852 997 1145
f 1145 789 852
f 1107 879 878
f 878 1108 1107
f 998 1107 1108
f 1108 999 998
f 1107 998 1003
f 1003 1109 1107
f 879 1107 1109
f 1109 880 879
f 1110 884 883
f 883 1111 1110
f 1004 1110 1111
f 1111 1005 1004
f 1110 1004 999
f 999 1108 1110
f 884 1110 1108
f 1108 878 884
f 1112 888 887
f 887 1113 1112
f 1008 1112 1113
f 1113 1009 1008
f 1112 1008 1005
f 1005 1111 1112
f 888 1112 1111
f 1111 883 888
f 1114 892 891
f 891 1115 1114
f 1012 1114 1115
f 1115 1013 1012
f 1114 1012 1009
f 1009 1113 1114
f 892 1114 1113
f 1113 887 892
f 1116 896 895
f 895 1117 1116
f 1016 1116 1117
f 1117 1017 1016
f 1116 1016 1013
f 1013 1115 1116
f 896 1116 1115
f 1115 891 896
f 1118 899 898
f 898 1119 1118
f 1020 1118 1119
f 1119 1021 1020
f 1118 1020 1017
f 1017 1117 1118
f 899 1118 1117
f 1117 895 899
f 1120 903 902
f 902 1121 1120
f 1024 1120 1121
f 1121 1025 1024
f 1120 1024 1021
f 1021 1119 1120
f 903 1120 1119
f 1119 898 903
f 1122 906 905
f 905 1123 1122
f 1028 1122 1123
f 1123 1029 1028
f 1122 1028 1025
f 1025 1121 1122
f 906 1122 1121
f 1121 902 906
f 1124 910 909
f 909 1125 1124
f 1032 1124 1125
f 1125 1033 1032
f 1124 1032 1029
f 1029 1123 1124
f 910 1124 1123
f 1123 905 910
f 1126 913 912
f 912 1127 1126
f 1036 1126 1127
f 1127 1037 1036
f 1126 1036 1033
f 1033 1125 1126
f 913 1126 1125
f 1125 909 913
f 1128 917 916
f 916 1129 1128
f 1040 1128 1129
f 1129 1041 1040
f 1128 1040 1037
f 1037 1127 1128
f 917 1128 1127
f 1127 912 917
f 1130 919 918
f 918 1131 1130
f 1044 1130 1131
f 1131 1045 1044
f 1130 1044 1041
f 1041 1129 1130
f 919 1130 1129
f 1129 916 919
f 1132 922 921
f 921 1133 1132
f 1048 1132 1133
f 1133 1049 1048
f 1132 1048 1045
f 1045 1131 1132
f 922 1132 1131
f 1131 918 922
f 1134 925 924
f 924 1135 1134
f 1052 1134 1135
f 1135 1053 1052
f 1134 1052 1049
f 1049 1133 1134
f 925 1134 1133
f 1133 921 925
f 1136 928 927
f 927 1137 1136
f 1056 1136 1137
f 1137 1057 1056
f 1136 1056 1053
f 1053 1135 1136
f 928 1136 1135
f 1135 924 928
f 1138 931 930
f 930 1139 1138
f 1060 1138 1139
f 1139 1061 1060
f 1138 1060 1057
f 1057 1137 1138
f 931 1138 1137
f 1137 927 931
f 1140 935 934
f 934 1141 1140
f 1064 1140 1141
f 1141 1065 1064
f 1140 1064 1061
f 1061 1139 1140
f 935 1140 1139
f 1139 930 935
f 1142 936 880
f 880 1109 1142
f 1068 1142 1109
f 1109 1003 1068
f 1142 1068 1065
f 1065 1141 1142
f 936 1142 1141
f 1141 934 936
f 1074 983 1150
f 983 1074 984
f 1151 986 1103
f 986 1151 1152
f 1155 1106 1105
f 1106 1155 1156
f 1159 994 993
f 994 1159 1160
f 1162 996 995
f 1163 997 996
f 996 1162 1163
f 997 1163 1145
f 1164 1000 1001
f 1001 1165 1164
f 1000 1164 1166
f 1166 1002 1000
f 1167 1006 1007
f 1007 1168 1167
f 1006 1167 1165
f 1165 1001 1006
f 1169 1010 1011
f 1011 1170 1169
f 1010 1169 1168
f 1168 1007 1010
f 1171 1014 1015
f 1015 1172 1171
f 1014 1171 1170
f 1170 1011 1014
f 1173 1018 1019
f 1019 1174 1173
f 1018 1173 1172
f 1172 1015 1018
f 1175 1022 1023
f 1023 1092 1175
f 1022 1175 1174
f 1174 1019 1022
f 1176 1026 1027
f 1027 1177 1176
f 1092 1023 1176
f 1026 1176 1023
f 1178 1030 1031
f 1031 1179 1178
f 1030 1178 1177
f 1177 1027 1030
f 1180 1034 1035
f 1035 1181 1180
f 1034 1180 1179
f 1179 1031 1034
f 1182 1038 1039
f 1039 1183 1182
f 1038 1182 1181
f 1181 1035 1038
f 1184 1042 1043
f 1043 1185 1184
f 1042 1184 1183
f 1183 1039 1042
f 1186 1046 1047
f 1047 1187 1186
f 1046 1186 1185
f 1185 1043 1046
f 1188 1050 1051
f 1051 1189 1188
f 1050 1188 1187
f 1187 1047 1050
f 1190 1054 1055
f 1055 1191 1190
f 1054 1190 1189
f 1189 1051 1054
f 1192 1058 1059
f 1059 1193 1192
f 1058 1192 1191
f 1191 1055 1058
f 1194 1062 1063
f 1063 1195 1194
f 1062 1194 1193
f 1193 1059 1062
f 1196 1066 1067
f 1067 1197 1196
f 1066 1196 1195
f 1195 1063 1066
f 1198 1069 1002
f 1002 1166 1198
f 1069 1198 1197
f 1197 1067 1069
f 1070 1199 954
f 1200 1071 954
f 954 1199 1200
f 1071 1200 1201
f 1201 955 1071
f 1202 1072 955
f 955 1201 1202
f 1203 956 1072
f 1072 1202 1203
f 956 1203 1204
f 1204 1073 956
f 1204 1074 1073
f 1204 1203 1205
f 1074 1204 1205
f 1205 1075 1074
f 1206 957 1075
f 1075 1205 1206
f 1206 1076 957
f 1076 1206 1207
f 1077 1207 1208
f 1208 958 1077
f 1209 1078 958
f 958 1208 1209
f 1209 959 1078
f 1209 1079 959
f 1209 960 1079
f 1210 1080 960
f 960 1209 1210
f 1210 1081 1080
f 1211 961 1081
f 1081 1210 1211
f 961 1211 1212
f 1212 1082 961
f 1212 1155 1082
f 1212 1083 1155
f 1083 1212 1213
f 1213 1084 1083
f 1214 962 1084
f 1084 1213 1214
f 1214 1159 962
f 1214 1085 1159
f 1085 1214 1215
f 1215 963 1085
f 1216 1086 963
f 963 1215 1216
f 1216 1162 1086
f 1216 1163 1162
f 1163 1216 1199
f 1199 1070 1163
f 1217 1087 965
f 1087 1217 1241
f 1241 964 1087
f 1143 1219 1217
f 1219 1088 966
f 966 1218 1219
f 1219 1143 1088
f 1220 1089 967
f 967 1244 1220
f 1089 1220 1218
f 1218 966 1089
f 1244 1090 968
f 1244 967 1090
f 1091 1094 1244
f 1244 968 1091
f 1093 1222 1094
f 1222 969 1095
f 1095 1221 1222
f 1222 1093 969
f 1223 1096 970
f 1223 1224 1221
f 1096 1223 1221
f 1221 1095 1096
f 1224 971 972
f 972 1225 1224
f 971 1224 1223
f 1223 970 971
f 1225 973 974
f 974 1226 1225
f 1225 972 973
f 1226 1097 975
f 1226 974 1097
f 1226 976 977
f 977 1227 1226
f 1226 975 976
f 1227 1098 978
f 978 1228 1227
f 1227 977 1098
f 1228 1099 979
f 1228 978 1099
f 1228 1100 980
f 980 1229 1228
f 1230 1228 1229
f 1228 979 1100
f 1101 1231 1229
f 1229 980 1101
f 1231 1102 964
f 964 1241 1231
f 1231 1101 1102
f 1199 1216 1232
f 1233 1232 1216
f 1233 944 1232
f 1215 1233 1216
f 1233 1215 938
f 1234 1215 1214
f 1215 1234 938
f 1213 1234 1214
f 1213 1212 1235
f 1235 1234 1213
f 1212 1211 1235
f 1236 1235 1211
f 1211 1210 1236
f 939 1236 1210
f 1210 1209 939
f 1208 939 1209
f 939 1208 940
f 1237 1208 1207
f 1237 940 1208
f 941 1237 1207
f 1207 1206 941
f 1238 941 1206
f 1206 1205 1238
f 1205 1203 1238
f 1239 1238 1203
f 1238 1239 942
f 942 941 1238
f 1203 1202 1239
f 1240 1239 1202
f 1202 1201 1240
f 1239 1240 943
f 943 942 1239
f 1201 1200 1240
f 1232 1240 1200
f 1200 1199 1232
f 1240 1232 944
f 944 943 1240
f 1242 1241 1217
f 1241 1242 946
f 1217 1219 1242
f 947 946 1242
f 1218 1242 1219
f 1242 1218 947
f 1243 1218 1220
f 1243 947 1218
f 1244 1243 1220
f 1243 1244 948
f 1245 1244 1094
f 1244 1245 948
f 1094 1222 1245
f 949 948 1245
f 1246 1245 1222
f 1222 1221 1246
f 1245 1246 949
f 1221 1224 1246
f 1247 1246 1224
f 1246 1247 950
f 950 949 1246
f 1224 1225 1247
f 1248 1247 1225
f 1225 1226 1248
f 1247 1248 951
f 951 950 1247
f 1249 1248 1226
f 1248 1249 952
f 952 951 1248
f 1226 1227 1249
f 1250 1249 1227
f 1227 1228 1250
f 1250 952 1249
f 1230 1250 1228
f 1250 1230 953
f 1230 1229 1251
f 1230 1251 953
f 1229 1231 1251
f 946 953 1251
f 1241 1251 1231
f 1251 1241 946
