# USD → MuJoCo (world-space)
v -3.001750 8.122040 3.000000
v -1.601750 5.622040 3.000000
v -3.001750 5.622040 3.000000
v 2.283260 8.122040 3.000000
v -1.601750 1.302040 3.000000
v 2.283260 7.992040 3.000000
v 2.283260 1.302040 3.000000
vt 0.000000 0.000000
vt -1.400000 -2.500000
vt 0.000000 -2.500000
vt -5.285000 0.000000
vt -1.400000 -2.500000
vt 0.000000 0.000000
vt -5.285000 0.000000
vt -1.400000 -6.820000
vt -1.400000 -2.500000
vt -5.285000 -0.130000
vt -1.400000 -6.820000
vt -5.285000 0.000000
vt -1.400000 -6.820000
vt -5.285000 -0.130000
vt -5.285000 -6.820000
f 1/1 2/2 3/3
f 4/4 2/5 1/6
f 4/7 5/8 2/9
f 6/10 5/11 4/12
f 5/13 6/14 7/15
