# USD → MuJoCo (world-space, simplified)
v 0.239596 3.009269 0.326369
v 1.010980 3.008403 0.295216
v 0.240712 3.008403 0.295216
v 0.241103 3.007998 0.295125
v 0.241531 3.007361 0.295060
v 0.159375 3.000432 0.294974
v 1.124401 2.941332 0.295216
v 1.124835 2.941533 0.295338
v 1.124835 2.477006 0.295338
v 1.123722 2.941096 0.295125
v 1.121028 2.940569 0.295017
v 1.118712 2.949494 0.294991
v 1.010980 2.410136 0.295216
v 0.240712 2.410136 0.295216
v 1.011315 2.409876 0.295338
v 1.010591 2.410541 0.295125
v 1.009745 2.412132 0.295017
v 1.010071 2.411177 0.295060
v 0.242423 2.413491 0.294991
v 0.126857 2.477006 0.295338
v 0.130664 2.940569 0.295017
v 0.127970 2.941096 0.295125
v 0.127970 2.477443 0.295125
v 0.127291 2.941332 0.295216
v 0.132978 2.478239 0.294991
v 0.135867 2.438972 0.294979
v 1.011436 3.008756 0.331223
v 0.240256 3.008756 0.331223
v 1.011153 3.008537 0.331345
v 1.010821 3.008280 0.331436
v 1.010455 3.007995 0.331501
v 1.008339 3.006352 0.331588
v 0.127067 2.941436 0.331345
v 0.126701 2.476933 0.331223
v 0.240256 2.409782 0.331223
v 1.011153 2.410002 0.331345
v 0.240539 2.410002 0.331345
v 0.240871 2.410259 0.331436
v 1.123722 2.477524 0.331501
v 0.240036 3.008928 0.331067
v 1.011656 3.008928 0.331067
v 0.239753 3.009148 0.330434
v 1.011821 3.009056 0.330822
v 0.239675 3.009208 0.329849
v 0.239871 3.009056 0.330822
v 1.012096 3.009269 0.326369
v 1.011315 3.008663 0.295338
v 1.011575 3.008865 0.295494
v 0.239782 3.009125 0.296127
v 1.012003 3.009197 0.296712
v 0.239596 3.009269 0.300192
v 0.239605 3.009262 0.298690
v 1.012087 3.009262 0.298691
v 0.239633 3.009241 0.297548
v 1.012096 3.009269 0.300192
v 0.126049 2.476630 0.330434
v 0.126416 2.476800 0.331067
v 0.125948 2.476582 0.329849
v 0.126049 2.941909 0.330434
v 0.125846 2.942004 0.326369
v 0.125846 2.476535 0.326369
v 0.125856 2.476540 0.327871
v 0.125887 2.941985 0.329013
v 0.125887 2.476554 0.329013
v 0.126520 2.941690 0.295494
v 0.126857 2.941533 0.295338
v 0.126267 2.941808 0.295739
v 0.126087 2.941892 0.296127
v 0.125894 2.941981 0.297548
v 0.125846 2.942004 0.300192
v 1.011821 2.409483 0.330822
v 1.011939 2.409391 0.330434
v 1.012017 2.409331 0.329849
v 0.239596 2.409270 0.326369
v 0.239604 2.409276 0.327871
v 0.239627 2.409294 0.329013
v 1.012065 2.409294 0.329013
v 0.240377 2.409876 0.295338
v 1.011910 2.409414 0.296127
v 0.239782 2.409414 0.296127
v 0.239605 2.409277 0.298690
v 0.239596 2.409270 0.300192
v 0.239633 2.409298 0.297548
v 1.125276 2.941739 0.331067
v 1.124991 2.941606 0.331223
v 1.125490 2.941838 0.330822
v 1.125643 2.941909 0.330434
v 1.125643 2.476630 0.330434
v 1.125744 2.941957 0.329849
v 1.125276 2.476800 0.331067
v 1.124991 2.476933 0.331223
v 1.125490 2.476701 0.330822
v 1.125805 2.476554 0.329013
v 1.125825 2.942000 0.328584
v 1.125836 2.476540 0.327871
v 1.125846 2.942004 0.326369
v 1.125605 2.476647 0.296127
v 1.125172 2.476849 0.295494
v 1.125726 2.476591 0.296712
v 1.125846 2.476535 0.300192
v 1.125834 2.476541 0.298690
v 1.125846 2.476535 0.326369
v 1.072837 3.008239 0.297596
v 1.086076 3.007213 0.297598
v 1.036306 3.009166 0.298387
v 1.056402 3.008856 0.297633
v 0.155122 3.005680 0.328161
v 0.165611 2.411322 0.298360
v 0.178852 2.410297 0.298353
v 0.195294 2.409681 0.298386
v 1.104747 2.415017 0.329565
v 1.096563 2.412864 0.330057
v 1.086076 2.411326 0.330061
v 1.111071 2.417885 0.297016
v 1.012364 2.409271 0.327468
v 1.036304 2.409373 0.328175
v 1.056393 2.409680 0.300192
v 1.034194 3.008160 0.295166
v 1.065014 3.007594 0.295167
v 1.009715 3.006407 0.295017
v 1.045929 3.006927 0.295042
v 1.079976 3.005785 0.295043
v 1.096112 3.003921 0.295055
v 1.108927 2.996385 0.294979
v 1.082929 3.002480 0.294980
v 1.037440 3.002663 0.294976
v 1.040940 3.004952 0.294991
v 1.010105 3.007362 0.295060
v 1.010572 3.007998 0.295125
v 0.242423 3.005048 0.294991
v 0.213527 3.003191 0.294978
v 0.163090 3.003834 0.294997
v 0.241967 3.006407 0.295017
v 0.196443 3.006640 0.295034
v 0.141174 3.000204 0.295422
v 0.160373 3.005421 0.295161
v 0.148273 3.002514 0.295151
v 0.142505 2.997973 0.295017
v 0.179872 3.007034 0.295120
v 0.240377 3.008663 0.295338
v 0.215924 3.008706 0.295429
v 0.198858 3.008137 0.295229
v 0.202277 3.007727 0.295123
v 0.203241 2.410362 0.295218
v 0.180103 2.411024 0.295258
v 0.218349 2.410840 0.295091
v 0.187309 2.411548 0.295071
v 0.202325 2.413448 0.294986
v 0.141201 2.418129 0.295491
v 0.167135 2.412144 0.295200
v 0.155086 2.414935 0.295049
v 0.209053 2.417035 0.294974
v 0.241098 2.410541 0.295125
v 0.241558 2.411177 0.295060
v 0.241972 2.412132 0.295017
v 1.007961 2.415394 0.294978
v 1.043729 2.413631 0.294991
v 1.053179 2.411344 0.295055
v 1.095972 2.418280 0.294974
v 1.088944 2.415632 0.294991
v 1.110517 2.418335 0.295422
v 1.103037 2.416408 0.295086
v 1.089842 2.412862 0.295151
v 1.073885 2.411455 0.295128
v 1.036403 2.409738 0.295506
v 1.052833 2.410402 0.295229
v 0.216329 3.008575 0.331282
v 0.196205 3.008269 0.331281
v 0.180004 3.007580 0.331334
v 0.240871 3.008280 0.331436
v 0.203563 3.007946 0.331466
v 0.173099 3.006433 0.331521
v 0.241622 3.007696 0.331544
v 0.206030 3.007178 0.331579
v 0.148126 3.002995 0.331359
v 0.156879 3.004709 0.331462
v 0.148587 3.000881 0.331586
v 0.141896 3.000151 0.331391
v 0.167553 3.005262 0.331583
v 0.240426 3.006356 0.331588
v 0.242014 3.007391 0.331570
v 0.219032 3.007078 0.331584
v 1.010070 3.007696 0.331544
v 0.240539 3.008537 0.331345
v 0.241236 3.007995 0.331501
v 1.007439 3.005531 0.330309
v 1.007353 3.005403 0.329670
v 1.031826 3.005623 0.331107
v 1.051520 3.005318 0.331106
v 1.007533 3.005649 0.330789
v 1.067698 3.004709 0.331106
v 1.099167 3.000042 0.331195
v 1.091012 3.002132 0.331014
v 1.080803 3.003745 0.331194
v 1.094323 3.002084 0.331562
v 1.088265 3.005035 0.331575
v 1.081462 3.004065 0.331563
v 1.105953 2.997581 0.331557
v 1.068224 3.005054 0.331537
v 1.008934 3.006814 0.331588
v 1.032805 3.006108 0.331578
v 1.031861 3.005920 0.331496
v 1.061508 3.005713 0.331588
v 1.052063 3.005665 0.331537
v 1.011436 2.409782 0.331223
v 1.055536 2.410120 0.331199
v 1.010821 2.410259 0.331436
v 1.048408 2.410669 0.331485
v 1.010455 2.410544 0.331501
v 1.010070 2.410843 0.331544
v 1.110446 2.418238 0.331119
v 1.103271 2.415772 0.331421
v 1.095048 2.413637 0.331421
v 1.069764 2.411494 0.331541
v 1.108813 2.419033 0.331557
v 1.084594 2.413155 0.331575
v 1.008662 2.411457 0.331583
v 1.008339 2.412187 0.331588
v 1.038671 2.411352 0.331581
v 1.009678 2.411148 0.331570
v 0.243353 2.412187 0.331588
v 0.220226 2.413037 0.330635
v 0.184110 2.413886 0.330892
v 0.244051 2.412773 0.331131
v 0.219519 2.412759 0.331389
v 0.199886 2.413064 0.331389
v 0.243923 2.412652 0.331359
v 0.152707 2.418585 0.330769
v 0.146003 2.421119 0.331427
v 0.160869 2.416520 0.330468
v 0.160479 2.416259 0.331279
v 0.171351 2.415116 0.329902
v 0.170888 2.414794 0.331194
v 0.159926 2.416001 0.331563
v 0.163455 2.413514 0.331577
v 0.170229 2.414474 0.331563
v 0.183263 2.413539 0.331542
v 0.148329 2.419173 0.331580
v 0.152213 2.418278 0.331442
v 0.243768 2.412518 0.331496
v 0.206655 2.412535 0.331582
v 1.036199 3.008896 0.330972
v 1.056136 3.008589 0.330970
v 1.072515 3.007974 0.330969
v 1.011939 3.009148 0.330434
v 1.036430 3.009101 0.330073
v 1.056405 3.008794 0.330066
v 1.072804 3.008178 0.330065
v 1.012017 3.009208 0.329849
v 1.096495 3.005613 0.330065
v 1.086019 3.007152 0.330062
v 1.104751 3.003527 0.327343
v 1.111079 3.000657 0.327324
v 1.096567 3.005681 0.327324
v 1.086079 3.007218 0.327358
v 1.072836 3.008244 0.327368
v 1.012065 3.009245 0.329013
v 1.036328 3.009164 0.327592
v 1.056390 3.008859 0.327385
v 1.012088 3.009264 0.327871
v 0.239627 3.009245 0.329013
v 0.239604 3.009264 0.327871
v 0.215394 3.009167 0.327368
v 0.195295 3.008858 0.328207
v 0.178878 3.008238 0.328423
v 0.140644 3.000641 0.330105
v 0.146940 3.003526 0.328186
v 0.155497 3.005528 0.330901
v 0.165615 3.007216 0.328263
v 0.165856 3.007104 0.330554
v 0.166561 3.006736 0.331260
v 0.179242 3.008101 0.330769
v 0.147163 3.003418 0.330550
v 0.215864 3.008826 0.331067
v 0.215689 3.008953 0.330822
v 0.215676 3.009105 0.330062
v 0.195790 3.008518 0.331067
v 0.195636 3.008741 0.330554
v 0.240117 3.008865 0.295494
v 0.195600 3.008541 0.295594
v 0.179206 3.007876 0.295507
v 0.215743 3.008914 0.295739
v 0.215262 3.009090 0.296498
v 0.195506 3.008715 0.296127
v 0.179069 3.008100 0.296127
v 0.239689 3.009197 0.296712
v 0.195316 3.008856 0.297613
v 0.146993 3.003456 0.296060
v 0.155323 3.005454 0.295666
v 0.166047 3.006851 0.295509
v 0.165742 3.007108 0.296307
v 0.178863 3.008242 0.297633
v 0.140621 3.000653 0.297010
v 0.155129 3.005671 0.298123
v 0.165615 3.007218 0.298365
v 0.215401 3.009166 0.299192
v 0.239922 3.009017 0.295739
v 1.012059 3.009241 0.297548
v 1.104741 3.003519 0.296977
v 1.096566 3.005677 0.297623
v 1.103998 3.003158 0.295419
v 1.109924 3.000114 0.295266
v 1.085081 3.006686 0.295339
v 1.072174 3.007984 0.295586
v 1.111053 3.000642 0.296491
v 1.096032 3.005432 0.295591
v 1.085735 3.007031 0.295872
v 1.011770 3.009017 0.295739
v 1.011910 3.009125 0.296127
v 1.035609 3.008710 0.295431
v 1.035743 3.009026 0.296010
v 1.055570 3.008595 0.295586
v 0.240036 2.409611 0.331067
v 0.215488 2.409643 0.330971
v 0.179175 2.410565 0.330969
v 0.239871 2.409483 0.330822
v 0.215359 2.409465 0.330259
v 0.195233 2.409841 0.330776
v 0.140761 2.418083 0.331009
v 0.146947 2.415014 0.329550
v 0.140612 2.417882 0.327340
v 0.155145 2.412888 0.329756
v 0.165625 2.411325 0.329578
v 0.178869 2.410300 0.329581
v 0.215410 2.409373 0.328200
v 0.195278 2.409688 0.328453
v 0.239753 2.409391 0.330434
v 0.239675 2.409331 0.329849
v 1.056326 2.409693 0.329162
v 1.072841 2.410297 0.328921
v 1.036018 2.409461 0.330252
v 1.111028 2.417901 0.329753
v 1.096032 2.413196 0.331067
v 1.085129 2.411803 0.331260
v 1.104309 2.415264 0.330963
v 1.110735 2.418090 0.330822
v 1.072279 2.410517 0.330979
v 1.011656 2.409611 0.331067
v 1.035286 2.409814 0.331199
v 1.036003 2.409586 0.330822
v 1.056045 2.409842 0.330693
v 1.056326 2.409929 0.295692
v 1.072644 2.410545 0.295694
v 1.036325 2.409481 0.296310
v 1.056421 2.409713 0.297198
v 1.104518 2.415243 0.295672
v 1.096368 2.413085 0.295666
v 1.085812 2.411570 0.295697
v 1.104747 2.415013 0.298355
v 1.096563 2.412868 0.298126
v 1.086071 2.411340 0.297398
v 1.072843 2.410315 0.297391
v 1.012096 2.409270 0.300192
v 1.036295 2.409372 0.300192
v 1.036343 2.409390 0.297855
v 0.240117 2.409674 0.295494
v 1.012003 2.409342 0.296712
v 1.011575 2.409674 0.295494
v 1.011770 2.409522 0.295739
v 1.012059 2.409298 0.297548
v 1.012087 2.409277 0.298690
v 0.215393 2.409373 0.299199
v 0.239689 2.409342 0.296712
v 0.179313 2.410462 0.295798
v 0.140647 2.417896 0.297396
v 0.147003 2.415036 0.296808
v 0.155122 2.412859 0.298396
v 0.147693 2.415381 0.295419
v 0.155647 2.413059 0.295545
v 0.166007 2.411484 0.295800
v 0.239922 2.409522 0.295739
v 0.216085 2.409829 0.295431
v 0.215743 2.409625 0.295739
v 0.215720 2.409444 0.296507
v 0.195983 2.410136 0.295431
v 0.195696 2.409819 0.296009
v 0.126550 2.968433 0.298383
v 0.126023 2.956468 0.298383
v 0.126023 2.462072 0.328190
v 1.125141 2.450106 0.298382
v 1.116000 2.421574 0.298382
v 1.125668 2.462070 0.298376
v 1.122319 2.986004 0.330034
v 1.125669 2.956463 0.327347
v 1.124225 2.454786 0.295259
v 1.122358 2.448868 0.295062
v 1.113819 2.422185 0.295101
v 1.118209 2.427427 0.295151
v 1.120965 2.433443 0.295201
v 1.111368 2.449034 0.294974
v 1.116214 2.430769 0.294994
v 1.117579 2.458436 0.294983
v 1.124401 2.477207 0.295216
v 1.122647 2.940838 0.295060
v 1.123722 2.477443 0.295125
v 1.122447 2.472559 0.295050
v 1.120224 2.972610 0.295003
v 1.116061 2.994047 0.295128
v 1.120645 2.985049 0.295125
v 1.124459 2.966382 0.295392
v 1.123694 2.964483 0.295163
v 0.127247 2.955544 0.295257
v 0.128353 2.963381 0.295126
v 0.129067 2.957286 0.295060
v 0.131376 2.974027 0.295019
v 0.134519 2.992622 0.295113
v 0.130705 2.984289 0.295146
v 0.134854 2.980994 0.294986
v 0.135534 2.977060 0.294974
v 0.130664 2.477970 0.295017
v 0.142856 2.420426 0.294994
v 0.140347 2.439048 0.294974
v 0.136414 2.421904 0.295422
v 0.132863 2.426655 0.295327
v 0.137860 2.427556 0.294983
v 0.131122 2.438380 0.295035
v 0.127291 2.477207 0.295216
v 0.129045 2.477701 0.295060
v 0.126619 2.461990 0.295515
v 0.127997 2.454056 0.295163
v 0.127067 2.477103 0.331345
v 0.126565 2.462842 0.331120
v 0.127496 2.477303 0.331436
v 0.129221 2.445367 0.331529
v 0.128469 2.940783 0.331544
v 0.128546 2.464620 0.331569
v 0.136219 2.422002 0.331185
v 0.133878 2.427089 0.331525
v 0.132076 2.434475 0.331572
v 0.129880 2.466640 0.331588
v 0.128976 2.477992 0.331570
v 0.127496 2.941236 0.331436
v 0.128032 2.475732 0.331508
v 0.132973 2.965217 0.329743
v 0.133592 2.975022 0.330884
v 0.131880 2.939254 0.330789
v 0.131854 2.953776 0.331183
v 0.132301 2.965642 0.331314
v 0.133021 2.975513 0.331539
v 0.146096 2.997372 0.331466
v 0.135242 2.982790 0.331087
v 0.140906 2.994001 0.331562
v 0.135608 2.986553 0.331582
v 0.131260 2.479049 0.331496
v 0.131260 2.939490 0.331496
v 0.131384 2.960304 0.331574
v 1.124625 2.941436 0.331345
v 1.122802 2.955116 0.331573
v 1.122693 2.973076 0.331530
v 1.110930 3.000455 0.331009
v 1.115818 2.996758 0.331018
v 1.113861 2.995730 0.331559
v 1.119782 2.988508 0.331465
v 1.114485 2.989345 0.331582
v 1.122057 2.939099 0.331586
v 1.123524 2.940699 0.331523
v 1.124196 2.941236 0.331436
v 1.122716 2.940547 0.331570
v 1.120983 2.939740 0.331588
v 1.119932 2.464789 0.331275
v 1.120209 2.479142 0.331359
v 1.119602 2.452890 0.331440
v 1.118014 2.443562 0.330855
v 1.105696 2.421108 0.331500
v 1.110515 2.424675 0.331511
v 1.114220 2.429341 0.331558
v 1.118949 2.442873 0.331607
v 1.116741 2.435462 0.331541
v 1.120686 2.478935 0.331565
v 1.120258 2.464748 0.331496
v 1.121172 2.456742 0.331600
v 1.120311 2.457126 0.331565
v 0.126701 2.941606 0.331223
v 0.126591 2.956180 0.331067
v 0.127118 2.968134 0.331067
v 0.128046 2.977992 0.330960
v 0.126229 2.956548 0.330548
v 0.125948 2.941957 0.329849
v 0.136308 2.996716 0.331120
v 0.132683 2.991956 0.331185
v 0.129803 2.985792 0.330959
v 0.127650 2.978189 0.329751
v 0.135708 2.996954 0.329626
v 0.132002 2.992170 0.329549
v 0.129366 2.986001 0.329551
v 0.126022 2.956462 0.326369
v 0.126047 2.956492 0.328716
v 0.126549 2.968430 0.326369
v 0.126653 2.968478 0.330293
v 0.126416 2.941739 0.331067
v 0.126202 2.476701 0.330822
v 0.126202 2.941838 0.330822
v 0.125856 2.941999 0.327871
v 0.126571 2.450145 0.329146
v 0.127610 2.440352 0.329546
v 0.126169 2.462225 0.330245
v 0.135696 2.421576 0.329547
v 0.132017 2.426377 0.330385
v 0.129368 2.432532 0.329546
v 0.129928 2.433008 0.331184
v 0.128134 2.440795 0.331119
v 0.126949 2.450633 0.331051
v 0.128544 2.440685 0.295339
v 0.126203 2.462054 0.296310
v 0.127020 2.450057 0.295597
v 0.125966 2.476591 0.296712
v 0.126551 2.450117 0.297632
v 0.135748 2.421593 0.296815
v 0.130083 2.432769 0.295418
v 0.132009 2.426373 0.296987
v 0.129394 2.432543 0.296901
v 0.127656 2.440356 0.296439
v 0.125846 2.476535 0.300192
v 0.126029 2.462078 0.298250
v 0.126087 2.476647 0.296127
v 0.126267 2.476731 0.295739
v 0.126520 2.476849 0.295494
v 0.125966 2.941948 0.296712
v 0.125894 2.476558 0.297548
v 0.125858 2.941998 0.298690
v 0.125858 2.476541 0.298690
v 0.127605 2.978187 0.298383
v 0.126196 2.956283 0.296322
v 0.126776 2.968200 0.296027
v 0.127829 2.977995 0.296027
v 0.135699 2.996962 0.297015
v 0.132072 2.992088 0.296087
v 0.129387 2.985980 0.297402
v 0.128485 2.977551 0.295342
v 0.136227 2.996598 0.295519
v 0.129729 2.985733 0.295716
v 0.126529 2.956070 0.295607
v 0.127440 2.967702 0.295341
v 1.124815 2.453650 0.331087
v 1.123520 2.440660 0.331067
v 1.125314 2.462253 0.330822
v 1.124787 2.450294 0.330822
v 1.123733 2.440545 0.330822
v 1.125561 2.462013 0.330065
v 1.125115 2.450109 0.329670
v 1.124041 2.440351 0.329751
v 1.125744 2.476582 0.329849
v 1.115444 2.421902 0.331067
v 1.115653 2.421779 0.330822
v 1.115952 2.421591 0.329755
v 1.119131 2.426686 0.331067
v 1.119342 2.426566 0.330822
v 1.121765 2.432847 0.331067
v 1.121977 2.432728 0.330822
v 1.119689 2.426369 0.329551
v 1.122283 2.432540 0.329748
v 1.125669 2.462080 0.327380
v 1.125142 2.968431 0.327353
v 1.124077 2.978184 0.330035
v 1.125568 2.956304 0.330054
v 1.125008 2.968250 0.330405
v 1.116001 2.996965 0.327334
v 1.119693 2.992175 0.327349
v 1.122803 2.982166 0.331107
v 1.119542 2.992034 0.330646
v 1.124862 2.955480 0.331254
v 1.125314 2.956286 0.330822
v 1.124505 2.968087 0.331127
v 1.125150 2.956372 0.295603
v 1.122951 2.977973 0.295256
v 1.124895 2.968425 0.296019
v 1.125605 2.941892 0.296127
v 1.125489 2.956477 0.296314
v 1.123839 2.978125 0.296020
v 1.115716 2.996874 0.295758
v 1.119322 2.992058 0.295683
v 1.122017 2.985922 0.295818
v 1.116000 2.996964 0.299172
v 1.119689 2.992171 0.298316
v 1.122322 2.986004 0.298239
v 1.124080 2.978182 0.298252
v 1.125846 2.942004 0.300192
v 1.125834 2.941998 0.298691
v 1.125798 2.941981 0.297548
v 1.125662 2.956460 0.298251
v 1.125135 2.968427 0.298251
v 1.125172 2.941690 0.295494
v 1.125425 2.941808 0.295739
v 1.125726 2.941948 0.296712
v 1.125798 2.476558 0.297548
v 1.124084 2.440351 0.297645
v 1.125496 2.462256 0.296322
v 1.124970 2.450246 0.296321
v 1.119665 2.426386 0.296909
v 1.122328 2.432531 0.298370
v 1.122159 2.432646 0.296319
v 1.123206 2.440989 0.295342
v 1.115754 2.421777 0.295822
v 1.119199 2.426672 0.295607
v 1.121831 2.432839 0.295608
v 1.123775 2.440563 0.295882
v 1.125425 2.476731 0.295739
v 1.125162 2.462469 0.295607
v 1.124637 2.450449 0.295607
v 1.114379 2.904675 0.294974
v 1.032614 2.420691 0.319900
v 1.106228 2.438071 0.319901
v 0.145145 2.479949 0.319900
v 0.145153 2.956011 0.319900
v 1.105136 2.997080 0.330739
v 1.079922 3.003247 0.328611
v 1.007269 3.005260 0.328848
v 1.007187 3.005104 0.327890
v 1.031196 3.005224 0.329251
v 1.030551 3.004201 0.322846
v 1.050161 3.004389 0.325830
v 1.050146 3.003455 0.320893
v 1.066464 3.003817 0.325973
v 1.096793 2.998500 0.321124
v 1.102871 2.995708 0.321078
v 1.089030 3.000649 0.321652
v 0.244423 3.005260 0.328848
v 1.006752 3.004081 0.321818
v 1.006955 3.004653 0.325025
v 1.006993 3.004294 0.322892
v 0.244339 3.005403 0.329670
v 0.244505 3.005104 0.327890
v 0.244808 3.004417 0.323598
v 0.244624 3.004633 0.324905
v 0.244876 3.004246 0.322640
v 0.244940 3.004081 0.321818
v 0.220654 3.005224 0.329245
v 0.200797 3.004922 0.329238
v 0.184365 3.004683 0.331020
v 0.146829 2.996933 0.329665
v 0.153048 2.999767 0.329726
v 0.160978 3.001993 0.330316
v 0.162359 3.000828 0.322807
v 0.171241 3.003572 0.330813
v 0.172850 3.002059 0.321433
v 0.185297 3.003303 0.322884
v 0.154470 2.998757 0.322805
v 0.148371 2.995991 0.322808
v 0.221027 3.004203 0.322867
v 0.201403 3.003906 0.322868
v 0.141696 2.993450 0.330781
v 0.138053 2.988720 0.330779
v 0.135930 2.982411 0.328995
v 0.134203 2.974695 0.329004
v 0.132458 2.953425 0.329731
v 0.134806 2.964720 0.322852
v 0.134354 2.938849 0.322208
v 0.134293 2.953002 0.322863
v 0.136001 2.974197 0.322326
v 0.144240 2.992150 0.320780
v 0.140601 2.987605 0.321073
v 0.137695 2.981787 0.322320
v 0.132364 2.939170 0.329434
v 0.133546 2.938913 0.325002
v 0.133934 2.938865 0.323598
v 0.134493 2.479753 0.321818
v 0.132549 2.479610 0.328777
v 0.132789 2.939046 0.327890
v 0.134219 2.479715 0.322640
v 0.133934 2.479674 0.323598
v 0.133558 2.479588 0.324959
v 0.132311 2.479367 0.329602
v 0.135631 2.444229 0.323569
v 0.146646 2.421511 0.330402
v 0.137986 2.429823 0.330852
v 0.138008 2.436867 0.321143
v 0.144203 2.426421 0.320786
v 0.140632 2.430973 0.320826
v 0.148905 2.422893 0.320780
v 0.134291 2.465470 0.322880
v 0.134607 2.453746 0.323585
v 0.184527 2.414227 0.329219
v 0.172454 2.416112 0.323497
v 0.244538 2.413485 0.327574
v 0.220495 2.413315 0.329251
v 0.200566 2.413456 0.330192
v 0.221078 2.414219 0.323568
v 0.221243 2.414556 0.321818
v 0.201389 2.414517 0.323561
v 0.201546 2.415084 0.320893
v 0.185324 2.415115 0.323543
v 0.154898 2.420039 0.321124
v 0.162206 2.417513 0.324036
v 0.244339 2.413136 0.329670
v 1.006970 2.413896 0.324966
v 0.244723 2.414072 0.323886
v 0.244423 2.413279 0.328848
v 1.007140 2.413454 0.327773
v 0.244876 2.414293 0.322640
v 1.006884 2.414122 0.323598
v 0.244940 2.414458 0.321818
v 1.006906 2.413217 0.329220
v 1.098742 2.418696 0.330183
v 1.104973 2.421534 0.330120
v 1.090713 2.416546 0.330317
v 1.089001 2.417988 0.321129
v 1.102903 2.422794 0.321139
v 1.096837 2.420047 0.321131
v 1.078749 2.416568 0.321011
v 1.066220 2.415282 0.322574
v 1.006643 2.414398 0.322084
v 1.049931 2.414912 0.321417
v 1.109844 2.425163 0.330180
v 1.115904 2.436052 0.329577
v 1.113438 2.429918 0.330054
v 1.119365 2.465065 0.330182
v 1.118960 2.453225 0.330560
v 1.117473 2.479715 0.322640
v 1.117589 2.465497 0.323559
v 1.117030 2.465596 0.321818
v 1.117077 2.453771 0.323550
v 1.116524 2.453909 0.321818
v 1.116054 2.444246 0.323538
v 1.117758 2.479674 0.323598
v 1.118049 2.479631 0.324648
v 1.107518 2.426375 0.320818
v 1.118343 2.479587 0.325754
v 1.119076 2.479456 0.328541
v 1.119402 2.479393 0.329670
v 1.117199 2.479753 0.321818
v 1.119083 2.938993 0.328570
v 1.119402 2.939146 0.329670
v 1.118341 2.938952 0.325744
v 1.117473 2.938824 0.322640
v 1.117199 2.938786 0.321818
v 1.117848 2.938853 0.323910
v 1.117085 2.964793 0.323586
v 1.116059 2.974310 0.323567
v 1.110007 2.993438 0.330782
v 1.113705 2.988716 0.330852
v 1.114165 2.981852 0.322838
v 1.107489 2.992117 0.320786
v 1.111158 2.987614 0.321148
v 1.117594 2.953092 0.323581
v 1.007924 3.006021 0.331496
v 0.244051 3.005766 0.331131
v 1.007641 3.005766 0.331131
v 0.131006 2.939604 0.331565
v 0.131685 2.939320 0.331131
v 0.131483 2.939397 0.331359
v 1.007924 2.412518 0.331496
v 1.007439 2.413008 0.330309
v 0.244253 2.413008 0.330309
v 0.244159 2.412890 0.330789
v 1.007533 2.412890 0.330789
v 0.243580 2.412365 0.331565
v 1.120432 2.479049 0.331496
v 1.119615 2.479341 0.330309
v 1.119812 2.479285 0.330789
v 0.160150 3.002383 0.331516
v 0.170229 3.004065 0.331563
v 0.190183 3.005713 0.331588
v 0.183467 3.005054 0.331537
v 0.152215 3.000185 0.331484
v 0.244253 3.005531 0.330309
v 0.244159 3.005649 0.330789
v 0.220083 3.005564 0.330891
v 0.219998 3.005786 0.331359
v 0.200171 3.005318 0.331106
v 0.199628 3.005665 0.331537
v 0.243768 3.006021 0.331496
v 0.218123 3.006024 0.331575
v 0.243580 3.006174 0.331565
v 0.243923 3.005887 0.331359
v 1.007769 3.005887 0.331359
v 1.008112 3.006174 0.331565
v 1.101935 3.001817 0.331578
v 1.104632 3.003331 0.331029
v 1.096217 3.005256 0.331193
v 1.085855 3.006798 0.331196
v 1.072213 3.007547 0.331335
v 1.036214 3.008565 0.331282
v 1.030647 3.007690 0.331563
v 1.055917 3.008256 0.331282
v 1.059737 3.007249 0.331556
v 1.013016 3.007377 0.331571
v 1.099584 2.418295 0.331514
v 1.091541 2.416156 0.331516
v 1.081368 2.414559 0.331542
v 1.068491 2.413203 0.331588
v 1.068213 2.413567 0.331504
v 1.080388 2.415025 0.330482
v 1.067275 2.414015 0.330482
v 1.031257 2.413175 0.330097
v 1.031809 2.412811 0.331282
v 1.051083 2.413409 0.330493
v 1.044566 2.412402 0.331588
v 1.008112 2.412365 0.331565
v 1.032062 2.412467 0.331565
v 1.051952 2.412772 0.331565
v 1.031861 2.412619 0.331496
v 1.051795 2.412999 0.331445
v 1.007769 2.412652 0.331359
v 1.007641 2.412773 0.331131
v 0.146176 2.417849 0.331571
v 0.180989 2.411669 0.331522
v 0.147362 2.415443 0.331190
v 0.155475 2.413283 0.331193
v 0.165836 2.411741 0.331196
v 0.179478 2.410992 0.331335
v 0.241237 2.410544 0.331501
v 0.215476 2.409974 0.331282
v 0.204512 2.410554 0.331461
v 0.195775 2.410283 0.331282
v 0.222645 2.411688 0.331588
v 0.200465 2.411351 0.331575
v 0.237303 2.410862 0.331546
v 0.141057 2.424606 0.331539
v 0.137206 2.429194 0.331582
v 0.133596 2.438639 0.331555
v 0.135388 2.435928 0.330854
v 0.133657 2.443683 0.330855
v 0.141775 2.425147 0.330458
v 0.131483 2.479142 0.331359
v 0.132454 2.465254 0.329730
v 0.131948 2.464905 0.331008
v 0.132719 2.453383 0.330560
v 0.131972 2.452289 0.331547
v 0.130983 2.478414 0.331570
v 0.130709 2.939740 0.331588
v 0.131441 2.463945 0.331539
v 0.132077 2.479341 0.330309
v 0.131880 2.479285 0.330789
v 0.131685 2.479219 0.331131
v 0.132076 2.939193 0.330309
v 0.137935 2.995337 0.331560
v 0.130273 2.978266 0.331564
v 0.131370 2.986252 0.331503
v 0.127970 2.941015 0.331501
v 0.127441 2.957160 0.331420
v 0.128216 2.974674 0.331334
v 0.129535 2.959491 0.331584
v 0.128976 2.940547 0.331570
v 1.110785 2.994001 0.331562
v 1.116303 2.982611 0.330854
v 1.118186 2.979137 0.331564
v 1.117935 2.974833 0.330556
v 1.119615 2.939198 0.330309
v 1.119812 2.939254 0.330789
v 1.120209 2.939397 0.331359
v 1.119371 2.953262 0.330182
v 1.119932 2.953750 0.331275
v 1.118973 2.965155 0.330560
v 1.120340 2.967979 0.331588
v 1.120686 2.939604 0.331565
v 1.120339 2.954096 0.331535
v 1.119671 2.965845 0.331499
v 1.120432 2.939490 0.331496
v 1.120007 2.939320 0.331131
v 1.120007 2.479219 0.331131
v 1.116234 2.424312 0.331503
v 1.120796 2.433595 0.331487
v 1.124625 2.477103 0.331345
v 1.124196 2.477303 0.331436
v 1.123223 2.477756 0.331544
v 1.123475 2.443865 0.331334
v 1.124096 2.458194 0.331439
v 1.121011 2.478791 0.331589
v 1.122695 2.475981 0.331571
v 1.078787 3.001886 0.320895
v 1.066021 3.002867 0.320894
v 1.096040 2.997885 0.320357
v 1.088639 3.000098 0.320487
v 1.065648 3.002304 0.320357
v 1.101789 2.994984 0.320235
v 1.092710 2.998037 0.320076
v 1.078520 3.001092 0.320231
v 1.006584 3.003265 0.320357
v 1.006537 3.002567 0.320129
v 1.031078 3.003687 0.320819
v 1.044766 3.002314 0.320126
v 1.044687 3.003010 0.320350
v 1.051819 2.999024 0.319905
v 1.006457 2.999956 0.319923
v 1.006494 3.001495 0.319992
v 1.044841 3.001249 0.319991
v 1.066207 3.001268 0.320055
v 1.101274 2.991822 0.319910
v 1.083723 2.998470 0.319943
v 1.006692 3.003927 0.321179
v 1.006636 3.003687 0.320699
v 0.245108 3.003265 0.320357
v 0.245235 2.999956 0.319923
v 0.245000 3.003927 0.321179
v 0.245056 3.003687 0.320699
v 0.245155 3.002567 0.320129
v 1.006425 2.997852 0.319900
v 0.245198 3.001495 0.319992
v 0.221324 3.003829 0.321179
v 0.201720 3.003535 0.321179
v 0.185735 3.002946 0.321179
v 0.221402 3.003589 0.320699
v 0.201826 3.003297 0.320699
v 0.185874 3.002713 0.320699
v 0.221478 3.003169 0.320357
v 0.202743 3.002680 0.320235
v 0.186519 3.002111 0.320235
v 0.218511 3.002069 0.320045
v 0.155141 2.998339 0.320829
v 0.149277 2.995541 0.320602
v 0.155973 2.997737 0.320235
v 0.148210 2.993316 0.320121
v 0.162995 3.000388 0.320828
v 0.163681 2.999732 0.320235
v 0.173094 3.001738 0.320699
v 0.173690 3.001160 0.320235
v 0.202379 2.997692 0.319900
v 0.161195 2.996652 0.319902
v 0.180895 2.999801 0.319940
v 0.136433 2.974048 0.321179
v 0.137114 2.974105 0.320498
v 0.138543 2.981654 0.320605
v 0.142034 2.987217 0.320234
v 0.135155 2.938715 0.320699
v 0.135872 2.938684 0.320357
v 0.134918 2.952894 0.321179
v 0.135322 2.952847 0.320699
v 0.136313 2.961466 0.320350
v 0.137500 2.961483 0.320126
v 0.135423 2.964566 0.321179
v 0.135824 2.964504 0.320699
v 0.140583 2.970463 0.319950
v 0.138899 2.938631 0.319992
v 0.151153 2.992263 0.319906
v 0.140557 2.980937 0.320050
v 0.134750 2.938749 0.321179
v 0.135155 2.479824 0.320699
v 0.137065 2.938656 0.320129
v 0.137065 2.479883 0.320129
v 0.135872 2.479855 0.320357
v 0.141538 2.938609 0.319923
v 0.134750 2.479790 0.321179
v 0.138899 2.479908 0.319992
v 0.134918 2.465645 0.321179
v 0.135378 2.454029 0.321236
v 0.136530 2.444571 0.320921
v 0.135322 2.465692 0.320699
v 0.135824 2.454036 0.320699
v 0.136494 2.458721 0.320257
v 0.137784 2.446080 0.320202
v 0.154029 2.421769 0.320126
v 0.144412 2.429454 0.320062
v 0.147099 2.432648 0.319901
v 0.139743 2.438124 0.320102
v 0.141538 2.479930 0.319923
v 0.140046 2.457463 0.319951
v 0.172904 2.416652 0.320895
v 0.185668 2.415673 0.320894
v 0.162880 2.418211 0.320654
v 0.173344 2.417196 0.320357
v 0.186044 2.416235 0.320357
v 0.172596 2.418586 0.319997
v 0.186263 2.416910 0.320129
v 0.220614 2.414852 0.320819
v 0.206921 2.416225 0.320126
v 0.207003 2.415529 0.320350
v 0.210759 2.420804 0.319900
v 0.245235 2.418583 0.319923
v 0.182129 2.418800 0.319935
v 0.206850 2.417290 0.319991
v 0.161316 2.422208 0.319901
v 0.161680 2.420119 0.320037
v 0.245155 2.415972 0.320129
v 0.245108 2.415274 0.320357
v 1.006457 2.418583 0.319923
v 0.245198 2.417044 0.319992
v 0.245000 2.414612 0.321179
v 0.245056 2.414852 0.320699
v 1.006584 2.415274 0.320357
v 1.006636 2.414852 0.320699
v 0.978380 2.415972 0.320129
v 1.006692 2.414612 0.321179
v 1.006494 2.417044 0.319992
v 1.030196 2.414618 0.321416
v 1.065693 2.415711 0.320827
v 1.030290 2.414950 0.320699
v 1.049866 2.415242 0.320699
v 1.043195 2.415487 0.320359
v 1.037918 2.416070 0.320130
v 1.065172 2.416428 0.320235
v 1.101231 2.423514 0.320143
v 1.095718 2.420802 0.320235
v 1.088010 2.418807 0.320235
v 1.078001 2.417379 0.320235
v 1.093473 2.423013 0.319903
v 1.082900 2.419406 0.319991
v 1.053875 2.417395 0.319992
v 1.071457 2.419746 0.319909
v 1.111091 2.430933 0.321073
v 1.113765 2.436817 0.321520
v 1.115291 2.444436 0.321236
v 1.112907 2.436984 0.320497
v 1.114577 2.444434 0.320498
v 1.108153 2.430172 0.320034
v 1.116537 2.479824 0.320699
v 1.115820 2.479855 0.320357
v 1.116774 2.465645 0.321179
v 1.116370 2.465692 0.320699
v 1.115378 2.457072 0.320350
v 1.114191 2.457056 0.320126
v 1.116269 2.453973 0.321179
v 1.115868 2.454036 0.320699
v 1.111602 2.455893 0.319954
v 1.111063 2.437742 0.320039
v 1.116942 2.479790 0.321179
v 1.115820 2.938684 0.320357
v 1.114627 2.479883 0.320129
v 1.110154 2.479930 0.319923
v 1.112793 2.479908 0.319992
v 1.106547 2.479949 0.319900
v 1.116942 2.938749 0.321179
v 1.116816 2.952764 0.321233
v 1.116168 2.964447 0.320919
v 1.115162 2.973968 0.320921
v 1.116537 2.938715 0.320699
v 1.116370 2.952847 0.320699
v 1.115319 2.951895 0.320238
v 1.114503 2.969864 0.320256
v 1.114627 2.938656 0.320129
v 1.108957 2.988334 0.320202
v 1.113250 2.981377 0.320616
v 1.105445 2.981299 0.319900
v 1.107907 2.983491 0.319936
v 1.111933 2.977226 0.320040
v 1.112790 2.946930 0.319992
v 1.110140 2.954479 0.319923
f 2 3 140
f 129 4 3
f 3 2 129
f 4 129 5
f 128 5 129
f 5 128 133
f 8 9 7
f 14 13 15
f 13 14 16
f 155 17 18
f 17 155 19
f 22 23 24
f 23 22 418
f 24 417 20
f 417 24 23
f 27 28 29
f 184 29 28
f 29 184 30
f 185 31 170
f 31 185 183
f 170 30 184
f 30 170 31
f 833 431 832
f 431 833 425
f 36 37 35
f 37 36 38
f 459 858 455
f 41 40 28
f 40 41 45
f 43 45 41
f 45 43 42
f 46 1 262
f 279 48 140
f 48 279 308
f 47 140 48
f 55 51 1
f 53 52 51
f 51 55 53
f 298 54 52
f 52 53 298
f 54 298 50
f 59 56 491
f 56 59 58
f 61 60 70
f 60 61 62
f 64 63 62
f 63 64 58
f 517 65 66
f 65 517 67
f 66 20 517
f 327 72 71
f 72 327 73
f 205 35 338
f 316 71 338
f 71 316 327
f 115 74 82
f 74 115 75
f 77 76 75
f 76 77 73
f 75 115 77
f 78 15 356
f 357 363 80
f 79 80 371
f 80 79 357
f 81 361 82
f 361 81 360
f 83 360 81
f 360 83 363
f 363 357 360
f 90 84 85
f 84 90 86
f 88 87 86
f 87 88 89
f 85 91 90
f 92 86 90
f 86 92 88
f 542 89 88
f 102 96 95
f 89 542 93
f 94 95 96
f 95 94 93
f 583 597 98
f 597 583 97
f 100 577 102
f 577 100 101
f 105 259 106
f 256 106 259
f 252 300 254
f 255 254 300
f 299 253 305
f 300 104 255
f 256 255 104
f 104 103 256
f 253 299 252
f 300 252 299
f 106 256 103
f 51 296 263
f 287 263 296
f 267 293 266
f 107 269 295
f 292 295 269
f 263 287 264
f 292 264 287
f 367 108 323
f 324 323 108
f 108 109 324
f 82 325 362
f 110 362 325
f 110 324 109
f 114 111 349
f 112 349 111
f 82 353 115
f 116 115 353
f 118 2 47
f 47 310 118
f 119 118 310
f 310 312 119
f 312 304 119
f 118 129 2
f 121 128 129
f 129 118 121
f 118 119 121
f 122 121 119
f 120 133 128
f 121 120 128
f 302 123 301
f 123 302 124
f 301 123 306
f 303 306 123
f 123 122 303
f 303 119 304
f 119 303 122
f 125 124 600
f 126 125 600
f 125 123 124
f 122 123 125
f 6 126 600
f 126 6 131
f 130 127 126
f 126 131 130
f 133 120 127
f 127 130 133
f 120 121 127
f 121 122 127
f 125 126 127
f 125 127 122
f 140 47 2
f 600 390 6
f 132 130 131
f 131 6 132
f 134 133 130
f 130 132 134
f 138 132 6
f 137 289 136
f 289 290 136
f 139 136 290
f 290 281 139
f 137 138 135
f 137 136 132
f 139 132 136
f 132 138 137
f 132 139 134
f 3 142 141
f 141 140 3
f 4 143 142
f 142 3 4
f 5 134 143
f 143 4 5
f 134 5 133
f 142 139 281
f 139 142 143
f 139 143 134
f 144 14 78
f 78 372 144
f 372 375 144
f 145 144 375
f 146 153 14
f 14 144 146
f 147 146 144
f 144 145 147
f 146 154 153
f 148 155 154
f 154 146 148
f 146 147 148
f 411 151 368
f 368 149 411
f 369 368 151
f 150 369 151
f 150 147 145
f 147 150 151
f 148 411 412
f 152 148 412
f 147 151 411
f 411 148 147
f 152 156 19
f 412 390 152
f 148 152 19
f 148 19 155
f 153 16 14
f 16 153 18
f 15 78 14
f 154 18 153
f 18 154 155
f 156 152 390
f 159 156 390
f 157 19 156
f 156 159 157
f 160 157 159
f 19 157 17
f 158 17 157
f 157 160 158
f 387 162 159
f 160 159 162
f 161 346 162
f 163 162 346
f 346 347 163
f 162 387 161
f 162 163 160
f 163 164 160
f 158 160 164
f 13 166 165
f 165 15 13
f 16 158 166
f 166 13 16
f 158 16 18
f 158 18 17
f 164 166 158
f 167 184 28
f 171 170 184
f 184 167 171
f 167 168 171
f 169 171 168
f 171 185 170
f 171 169 172
f 174 173 185
f 185 171 174
f 172 174 171
f 175 176 268
f 271 268 176
f 176 172 271
f 169 271 172
f 178 177 175
f 176 175 177
f 177 179 176
f 172 176 179
f 180 200 182
f 180 182 762
f 173 174 182
f 182 181 173
f 174 172 179
f 173 183 185
f 180 32 200
f 776 181 182
f 183 173 181
f 181 776 183
f 188 186 187
f 187 609 188
f 189 188 609
f 609 611 189
f 191 189 611
f 611 613 191
f 188 190 186
f 188 737 190
f 188 765 737
f 193 194 606
f 606 191 613
f 191 606 194
f 195 198 767
f 767 196 195
f 197 195 196
f 203 197 196
f 196 775 203
f 197 203 199
f 198 195 192
f 192 605 198
f 192 195 193
f 194 193 195
f 195 197 194
f 191 194 197
f 197 199 191
f 32 201 200
f 201 32 766
f 735 202 201
f 201 766 735
f 765 188 202
f 202 735 765
f 201 203 773
f 773 200 201
f 201 204 203
f 204 201 202
f 188 189 204
f 204 202 188
f 775 773 203
f 204 199 203
f 189 191 199
f 199 204 189
f 339 36 205
f 206 337 214
f 208 207 36
f 36 339 208
f 339 206 208
f 214 208 206
f 208 209 207
f 219 210 209
f 209 208 219
f 212 211 215
f 213 216 334
f 334 214 337
f 214 334 216
f 213 212 215
f 215 216 213
f 805 217 221
f 217 219 218
f 218 221 217
f 219 217 220
f 219 220 210
f 214 219 208
f 35 205 36
f 210 807 801
f 207 38 36
f 38 207 209
f 209 801 38
f 801 209 210
f 807 210 220
f 222 743 684
f 684 675 222
f 676 222 675
f 676 672 223
f 222 744 743
f 225 224 744
f 744 222 225
f 226 225 222
f 222 676 226
f 223 226 676
f 225 227 224
f 226 223 237
f 229 239 228
f 228 664 229
f 228 231 230
f 231 228 239
f 230 233 232
f 233 230 231
f 232 223 672
f 223 232 233
f 233 237 223
f 234 238 795
f 795 235 234
f 236 234 235
f 237 236 235
f 235 806 237
f 239 229 238
f 234 239 238
f 239 234 231
f 233 231 234
f 234 236 233
f 237 233 236
f 221 218 746
f 241 221 746
f 240 225 241
f 241 746 240
f 225 240 227
f 225 226 241
f 241 237 806
f 237 241 226
f 242 41 27
f 27 772 242
f 243 242 772
f 772 774 243
f 244 243 774
f 774 771 244
f 242 43 41
f 245 42 43
f 246 245 43
f 43 242 246
f 247 246 242
f 242 243 247
f 248 247 243
f 243 244 248
f 42 245 249
f 246 249 245
f 768 250 769
f 250 251 770
f 770 769 250
f 770 244 771
f 251 248 244
f 244 770 251
f 768 450 253
f 253 252 768
f 250 768 252
f 252 254 250
f 251 250 254
f 254 255 251
f 248 251 255
f 255 256 248
f 261 257 260
f 257 261 249
f 46 258 105
f 105 55 46
f 258 46 260
f 257 246 258
f 258 260 257
f 246 257 249
f 259 105 258
f 246 247 259
f 259 258 246
f 247 248 256
f 256 259 247
f 28 27 41
f 249 44 42
f 55 1 46
f 262 260 46
f 260 262 261
f 44 249 261
f 263 1 51
f 264 292 265
f 263 262 1
f 276 261 262
f 262 263 276
f 264 276 263
f 276 44 261
f 276 264 278
f 272 278 264
f 264 265 272
f 266 273 267
f 273 268 107
f 107 267 273
f 268 270 269
f 269 107 268
f 269 265 292
f 270 272 265
f 265 269 270
f 271 169 272
f 273 266 178
f 178 175 273
f 268 273 175
f 268 271 270
f 272 270 271
f 40 274 167
f 167 28 40
f 45 275 274
f 274 40 45
f 42 276 275
f 275 45 42
f 276 42 44
f 274 277 168
f 168 167 274
f 275 278 277
f 277 274 275
f 278 275 276
f 277 272 169
f 169 168 277
f 272 277 278
f 141 279 140
f 141 142 280
f 281 280 142
f 282 297 279
f 279 141 282
f 280 282 141
f 283 49 297
f 297 282 283
f 284 283 282
f 282 280 284
f 285 284 280
f 280 281 285
f 283 286 49
f 283 284 287
f 292 287 284
f 284 285 292
f 135 288 137
f 288 135 293
f 289 137 288
f 289 291 290
f 291 285 281
f 281 290 291
f 291 292 285
f 293 267 288
f 294 288 267
f 267 107 294
f 295 294 107
f 288 294 289
f 291 289 294
f 294 295 291
f 292 291 295
f 296 51 52
f 54 283 296
f 296 52 54
f 283 54 286
f 287 296 283
f 297 308 279
f 308 297 49
f 286 50 49
f 50 286 54
f 105 53 55
f 105 298 53
f 311 50 298
f 298 105 311
f 106 311 105
f 301 305 302
f 306 303 307
f 304 307 303
f 305 301 299
f 306 299 301
f 299 306 300
f 104 300 306
f 306 307 104
f 103 104 307
f 307 304 103
f 49 309 308
f 309 49 50
f 310 47 48
f 308 311 310
f 310 48 308
f 311 308 309
f 311 309 50
f 312 310 311
f 311 106 312
f 106 103 304
f 304 312 106
f 314 313 35
f 35 802 314
f 318 314 802
f 802 804 318
f 315 318 804
f 804 800 315
f 314 316 313
f 317 327 316
f 316 314 317
f 318 317 314
f 318 315 324
f 317 328 327
f 319 320 797
f 320 322 798
f 798 797 320
f 322 323 799
f 799 798 322
f 799 315 800
f 323 324 315
f 315 799 323
f 320 367 322
f 323 322 367
f 320 319 321
f 325 82 74
f 325 74 75
f 325 75 76
f 328 317 325
f 325 76 328
f 325 326 110
f 317 318 326
f 326 325 317
f 324 110 326
f 324 326 318
f 313 338 35
f 338 313 316
f 328 73 327
f 73 328 76
f 116 117 329
f 330 329 117
f 116 77 115
f 331 73 77
f 77 116 331
f 329 331 116
f 111 114 332
f 211 212 335
f 333 335 212
f 212 213 333
f 334 333 213
f 335 336 211
f 335 333 112
f 113 112 333
f 333 334 113
f 337 113 334
f 111 332 336
f 336 335 111
f 112 111 335
f 113 337 330
f 339 205 338
f 71 340 339
f 339 338 71
f 72 331 340
f 340 71 72
f 331 72 73
f 340 341 206
f 206 339 340
f 341 340 331
f 331 329 341
f 337 206 341
f 329 330 337
f 337 341 329
f 165 358 15
f 165 166 342
f 343 342 166
f 166 164 343
f 165 359 358
f 344 79 359
f 359 165 344
f 342 344 165
f 344 357 79
f 344 342 345
f 352 345 342
f 342 343 352
f 346 161 114
f 347 348 163
f 347 351 348
f 348 343 164
f 164 163 348
f 351 352 343
f 343 348 351
f 349 112 350
f 351 350 112
f 112 113 351
f 352 351 113
f 113 330 352
f 114 349 346
f 347 346 349
f 349 350 347
f 351 347 350
f 353 354 116
f 361 355 354
f 354 353 361
f 355 361 360
f 357 344 355
f 355 360 357
f 117 116 354
f 355 345 117
f 117 354 355
f 345 355 344
f 117 352 330
f 352 117 345
f 358 356 15
f 359 371 356
f 356 358 359
f 371 359 79
f 353 82 361
f 362 81 82
f 374 83 81
f 81 362 374
f 110 374 362
f 374 363 83
f 374 110 376
f 364 376 110
f 110 109 364
f 365 366 320
f 320 321 365
f 367 320 366
f 366 369 367
f 369 370 108
f 108 367 369
f 370 364 109
f 109 108 370
f 369 150 370
f 364 370 150
f 150 145 364
f 149 368 366
f 369 366 368
f 366 365 149
f 372 78 356
f 371 373 372
f 372 356 371
f 80 374 373
f 373 371 80
f 374 80 363
f 373 376 375
f 375 372 373
f 376 373 374
f 375 364 145
f 364 375 376
f 60 486 378
f 377 378 486
f 486 488 377
f 522 377 488
f 293 526 483
f 483 266 293
f 484 483 526
f 378 70 60
f 61 514 379
f 507 379 514
f 507 512 495
f 497 498 510
f 510 499 511
f 499 510 498
f 499 495 512
f 512 511 499
f 552 540 380
f 586 380 540
f 102 552 382
f 380 382 552
f 381 589 550
f 590 550 589
f 96 580 384
f 553 384 580
f 580 581 553
f 554 553 581
f 581 576 554
f 305 557 573
f 557 305 253
f 557 558 574
f 574 573 557
f 574 383 575
f 383 574 558
f 383 554 576
f 576 575 383
f 385 393 9
f 386 395 393
f 393 385 386
f 385 592 386
f 386 396 395
f 388 387 391
f 388 391 389
f 389 386 592
f 386 389 391
f 391 159 390
f 392 391 390
f 391 387 159
f 600 392 390
f 392 600 12
f 11 396 392
f 392 12 11
f 396 386 392
f 391 392 386
f 393 7 9
f 7 393 10
f 395 10 393
f 396 394 10
f 10 395 396
f 394 396 11
f 600 124 397
f 600 397 12
f 397 11 12
f 302 570 398
f 570 571 398
f 399 398 571
f 302 398 124
f 397 124 398
f 398 399 397
f 7 401 400
f 400 8 7
f 401 7 10
f 394 397 401
f 401 10 394
f 397 394 11
f 565 400 401
f 397 399 565
f 565 401 397
f 402 24 66
f 403 22 24
f 24 402 403
f 402 533 403
f 407 403 533
f 533 529 407
f 22 403 404
f 405 404 403
f 403 407 405
f 405 21 404
f 135 406 530
f 406 135 138
f 406 408 407
f 405 407 408
f 138 6 409
f 138 409 408
f 138 408 406
f 409 6 412
f 409 412 26
f 409 26 25
f 409 25 21
f 21 405 408
f 408 409 21
f 20 66 24
f 404 418 22
f 418 404 21
f 6 390 412
f 415 26 412
f 416 26 415
f 410 21 25
f 416 410 25
f 25 26 416
f 415 412 411
f 149 413 411
f 414 411 413
f 414 509 416
f 509 503 416
f 411 414 415
f 416 415 414
f 21 410 418
f 417 420 419
f 419 20 417
f 420 417 23
f 418 416 420
f 420 23 418
f 416 418 410
f 505 419 420
f 503 505 420
f 420 416 503
f 422 421 34
f 423 432 421
f 426 423 421
f 421 422 426
f 424 426 422
f 422 502 424
f 502 501 424
f 432 423 433
f 426 433 423
f 795 428 427
f 427 319 795
f 428 429 500
f 500 424 501
f 424 500 429
f 429 428 809
f 429 426 424
f 430 832 431
f 425 433 431
f 426 430 431
f 426 431 433
f 421 33 34
f 33 421 432
f 433 829 432
f 829 433 425
f 645 825 653
f 434 644 435
f 437 436 825
f 825 645 437
f 438 437 645
f 645 434 438
f 435 438 434
f 437 739 436
f 437 740 739
f 438 435 439
f 641 630 440
f 642 441 643
f 441 435 644
f 644 643 441
f 441 439 435
f 442 440 177
f 177 826 442
f 443 442 826
f 443 827 439
f 440 442 641
f 642 641 442
f 442 443 642
f 441 642 443
f 439 441 443
f 444 445 738
f 445 444 740
f 446 820 738
f 446 738 445
f 740 437 446
f 446 445 740
f 438 446 437
f 446 439 827
f 827 832 446
f 439 446 438
f 561 447 85
f 561 563 449
f 563 559 449
f 561 457 447
f 448 456 457
f 457 561 448
f 449 448 561
f 451 450 452
f 453 451 452
f 453 449 559
f 453 452 454
f 454 836 453
f 449 453 836
f 455 448 844
f 844 459 455
f 448 455 458
f 448 458 456
f 447 853 91
f 91 85 447
f 853 447 854
f 457 854 447
f 854 457 39
f 456 39 457
f 456 855 39
f 859 458 455
f 458 859 456
f 855 456 859
f 706 748 719
f 706 749 748
f 460 850 749
f 749 706 460
f 707 460 706
f 460 461 850
f 460 707 462
f 463 462 707
f 464 465 703
f 703 694 464
f 465 466 705
f 705 703 465
f 705 468 704
f 468 705 466
f 463 704 468
f 465 464 215
f 215 851 465
f 466 465 851
f 468 467 463
f 858 459 469
f 469 472 471
f 471 858 469
f 747 470 472
f 472 469 747
f 461 460 470
f 470 747 461
f 470 462 472
f 462 470 460
f 467 471 472
f 467 472 462
f 462 463 467
f 34 473 490
f 474 490 473
f 473 830 474
f 475 474 830
f 830 831 475
f 476 475 831
f 477 492 490
f 490 474 477
f 489 477 474
f 474 475 489
f 476 489 475
f 477 59 492
f 489 476 482
f 477 478 59
f 479 178 266
f 266 483 479
f 483 484 480
f 480 479 483
f 480 481 828
f 484 485 481
f 481 480 484
f 481 476 831
f 831 828 481
f 485 482 476
f 476 481 485
f 485 522 482
f 493 487 486
f 486 60 493
f 487 493 63
f 478 477 487
f 487 63 478
f 487 489 488
f 488 486 487
f 489 487 477
f 488 482 522
f 482 488 489
f 490 57 34
f 57 490 491
f 492 491 490
f 491 492 59
f 478 58 59
f 62 493 60
f 493 62 63
f 58 478 63
f 379 507 494
f 495 494 507
f 379 62 61
f 379 64 62
f 496 58 64
f 64 379 496
f 494 496 379
f 497 321 319
f 427 428 498
f 500 498 428
f 319 427 497
f 498 497 427
f 498 500 499
f 495 499 500
f 500 501 495
f 422 34 57
f 422 57 491
f 56 496 422
f 422 491 56
f 496 56 58
f 502 422 496
f 496 494 502
f 502 495 501
f 495 502 494
f 419 517 20
f 419 516 517
f 505 503 512
f 504 515 516
f 516 419 504
f 505 504 419
f 504 506 515
f 504 505 507
f 512 507 505
f 149 508 413
f 508 149 365
f 508 510 414
f 414 413 508
f 510 511 509
f 509 414 510
f 509 512 503
f 512 509 511
f 508 365 321
f 321 497 508
f 510 508 497
f 61 70 513
f 514 61 513
f 514 513 521
f 514 521 519
f 506 504 514
f 514 519 506
f 507 514 504
f 516 67 517
f 515 68 67
f 67 516 515
f 68 515 518
f 506 518 515
f 69 519 521
f 518 506 519
f 519 69 518
f 520 521 513
f 513 70 520
f 521 520 69
f 378 520 70
f 378 69 520
f 523 518 69
f 69 378 523
f 524 523 378
f 378 377 524
f 525 524 377
f 377 522 525
f 526 527 484
f 527 528 485
f 485 484 527
f 522 485 528
f 528 525 522
f 530 406 527
f 531 527 406
f 406 407 531
f 529 531 407
f 531 529 525
f 526 293 135
f 135 530 526
f 527 526 530
f 527 531 528
f 525 528 531
f 65 532 402
f 402 66 65
f 532 65 67
f 68 523 532
f 532 67 68
f 523 68 518
f 533 402 532
f 532 524 533
f 524 532 523
f 524 525 529
f 529 533 524
f 534 90 91
f 91 857 534
f 857 856 534
f 535 534 856
f 536 92 90
f 90 534 536
f 537 536 534
f 538 537 534
f 534 535 538
f 539 88 92
f 92 536 539
f 540 539 536
f 536 537 540
f 541 540 537
f 537 538 541
f 539 542 88
f 211 543 851
f 336 544 543
f 543 211 336
f 332 545 544
f 544 336 332
f 543 546 851
f 544 547 546
f 546 543 544
f 545 550 547
f 547 544 545
f 546 548 852
f 852 851 546
f 547 549 548
f 548 546 547
f 550 551 549
f 549 547 550
f 548 535 856
f 856 852 548
f 549 538 535
f 535 548 549
f 551 541 538
f 538 549 551
f 545 332 114
f 114 381 545
f 550 545 381
f 550 590 551
f 541 551 590
f 590 586 541
f 552 102 95
f 93 539 552
f 552 95 93
f 539 93 542
f 540 552 539
f 540 541 586
f 384 94 96
f 94 384 555
f 556 555 384
f 384 553 556
f 554 556 553
f 93 94 89
f 555 89 94
f 450 451 557
f 557 253 450
f 451 560 558
f 558 557 451
f 383 558 560
f 451 453 560
f 559 560 453
f 560 559 383
f 554 383 559
f 561 85 84
f 86 562 561
f 561 84 86
f 87 555 562
f 562 86 87
f 555 87 89
f 562 556 563
f 563 561 562
f 556 562 555
f 556 554 559
f 559 563 556
f 564 582 8
f 8 400 564
f 564 583 582
f 564 400 566
f 569 566 400
f 400 565 569
f 567 97 583
f 568 567 583
f 583 564 568
f 566 568 564
f 97 567 584
f 568 584 567
f 570 302 305
f 571 572 399
f 565 399 572
f 572 569 565
f 305 573 570
f 574 570 573
f 570 574 571
f 572 571 574
f 574 575 572
f 569 572 575
f 575 576 569
f 96 102 577
f 580 96 577
f 580 577 578
f 580 578 579
f 584 568 580
f 580 579 584
f 568 566 581
f 581 580 568
f 566 569 576
f 576 581 566
f 582 98 9
f 98 582 583
f 584 99 97
f 9 8 582
f 101 578 577
f 585 579 578
f 578 101 585
f 579 585 584
f 99 584 585
f 382 100 102
f 382 101 100
f 382 585 101
f 587 99 585
f 585 382 587
f 588 587 382
f 382 380 588
f 586 588 380
f 114 593 381
f 589 381 593
f 589 591 590
f 586 590 591
f 161 387 593
f 594 593 387
f 387 388 594
f 595 594 388
f 388 389 595
f 592 595 389
f 595 592 596
f 593 114 161
f 593 594 589
f 591 589 594
f 594 595 591
f 596 591 595
f 591 596 586
f 98 598 385
f 385 9 98
f 598 98 597
f 97 587 598
f 598 597 97
f 587 97 99
f 598 599 385
f 587 588 599
f 599 598 587
f 592 385 599
f 599 596 592
f 596 599 588
f 588 586 596
f 1022 878 873
f 887 957 1022
f 601 985 602
f 988 985 601
f 603 943 957
f 961 957 943
f 957 907 908
f 908 604 957
f 605 192 614
f 616 614 192
f 192 193 616
f 606 616 193
f 617 607 187
f 607 617 608
f 609 187 607
f 609 607 608
f 619 610 609
f 609 608 619
f 611 609 610
f 610 620 618
f 610 612 611
f 613 611 612
f 612 861 613
f 610 619 620
f 614 615 605
f 616 606 860
f 606 613 861
f 861 860 606
f 187 621 617
f 623 620 619
f 620 625 618
f 625 620 623
f 622 608 617
f 608 622 619
f 624 619 622
f 626 618 625
f 619 624 623
f 627 617 621
f 628 629 636
f 627 622 617
f 639 624 622
f 622 627 639
f 640 639 627
f 627 628 640
f 636 640 628
f 638 637 631
f 631 630 638
f 631 633 632
f 633 631 637
f 634 632 633
f 634 636 629
f 633 635 634
f 636 634 635
f 639 626 625
f 639 625 623
f 639 623 624
f 641 638 630
f 645 653 658
f 654 648 645
f 645 658 654
f 648 646 434
f 434 645 648
f 644 434 646
f 648 655 647
f 648 654 655
f 646 649 644
f 638 641 650
f 641 642 651
f 651 650 641
f 651 643 652
f 643 651 642
f 643 644 649
f 649 652 643
f 653 662 658
f 647 659 656
f 659 647 655
f 662 657 658
f 658 657 654
f 654 661 660
f 655 660 659
f 660 655 654
f 815 657 662
f 661 654 657
f 670 661 657
f 657 815 670
f 671 670 815
f 815 817 671
f 663 671 817
f 817 812 663
f 813 668 665
f 668 666 811
f 811 665 668
f 666 663 812
f 812 811 666
f 666 936 663
f 813 664 669
f 669 667 813
f 668 813 667
f 670 656 659
f 670 659 660
f 670 660 661
f 670 671 935
f 671 663 936
f 936 935 671
f 664 228 682
f 683 682 228
f 228 230 683
f 232 683 230
f 683 232 673
f 672 673 232
f 673 672 681
f 675 684 687
f 675 687 674
f 674 677 675
f 677 679 676
f 676 675 677
f 679 681 672
f 672 676 679
f 677 689 691
f 691 678 677
f 679 677 678
f 678 680 679
f 681 679 680
f 680 948 681
f 677 686 689
f 677 674 686
f 682 669 664
f 682 683 949
f 683 673 947
f 947 949 683
f 673 681 948
f 948 947 673
f 688 674 687
f 674 688 685
f 674 685 686
f 692 687 684
f 687 692 688
f 686 690 689
f 690 686 685
f 784 688 692
f 784 685 688
f 697 698 693
f 693 694 697
f 693 696 695
f 696 693 698
f 782 695 696
f 696 699 782
f 700 782 699
f 782 700 783
f 701 691 689
f 701 689 690
f 974 701 690
f 685 784 974
f 974 690 685
f 784 786 702
f 702 974 784
f 700 702 786
f 786 783 700
f 716 697 694
f 694 703 716
f 705 716 703
f 704 463 713
f 706 719 718
f 717 709 706
f 706 718 717
f 709 711 707
f 707 706 709
f 711 713 463
f 463 707 711
f 709 708 720
f 720 710 709
f 711 709 710
f 710 712 711
f 713 711 712
f 712 991 713
f 709 714 708
f 709 715 714
f 709 717 715
f 716 705 989
f 705 704 990
f 990 989 705
f 990 713 991
f 713 990 704
f 721 718 719
f 719 722 721
f 721 717 718
f 717 721 723
f 708 724 725
f 714 726 724
f 724 708 714
f 726 714 715
f 726 715 723
f 725 720 708
f 717 723 715
f 841 721 722
f 721 841 734
f 727 734 841
f 841 843 727
f 728 727 843
f 843 837 728
f 734 723 721
f 729 733 730
f 733 731 835
f 835 730 733
f 731 728 837
f 837 835 731
f 731 1014 728
f 729 605 615
f 615 732 729
f 733 729 732
f 724 734 1012
f 1012 725 724
f 734 724 726
f 734 726 723
f 734 727 1013
f 1013 1012 734
f 727 728 1014
f 1014 1013 727
f 766 32 180
f 190 737 736
f 765 736 737
f 186 621 187
f 825 662 653
f 218 788 746
f 741 746 788
f 741 793 227
f 745 224 794
f 224 227 793
f 793 794 224
f 743 744 745
f 224 745 744
f 684 743 742
f 745 742 743
f 746 741 240
f 227 240 741
f 459 845 469
f 747 469 845
f 748 749 839
f 850 839 749
f 177 440 754
f 750 179 177
f 177 754 750
f 179 750 751
f 634 751 750
f 752 174 179
f 179 751 752
f 753 752 751
f 629 753 751
f 751 634 629
f 631 754 440
f 440 630 631
f 754 631 632
f 632 750 754
f 750 632 634
f 757 627 621
f 621 755 757
f 755 756 757
f 756 736 757
f 758 757 736
f 736 764 758
f 759 628 627
f 627 757 759
f 757 758 759
f 628 759 629
f 182 752 762
f 752 182 174
f 763 180 762
f 752 760 762
f 752 753 760
f 761 763 762
f 762 758 764
f 764 761 762
f 760 759 758
f 758 762 760
f 753 629 759
f 759 760 753
f 763 761 735
f 764 735 761
f 180 763 766
f 735 766 763
f 735 764 765
f 755 190 756
f 736 756 190
f 736 765 764
f 621 186 755
f 190 755 186
f 768 767 452
f 452 450 768
f 769 196 767
f 767 768 769
f 196 769 770
f 771 775 196
f 196 770 771
f 27 29 772
f 773 772 29
f 29 30 773
f 30 31 773
f 31 183 773
f 775 774 772
f 772 773 775
f 774 775 771
f 200 776 182
f 776 200 773
f 183 776 773
f 215 464 777
f 778 216 215
f 215 777 778
f 779 214 216
f 216 778 779
f 780 219 214
f 214 779 780
f 781 780 779
f 693 777 464
f 464 694 693
f 695 778 777
f 777 693 695
f 778 695 782
f 782 779 778
f 783 781 779
f 779 782 783
f 742 692 684
f 692 742 784
f 742 745 784
f 785 784 745
f 745 794 785
f 794 793 785
f 784 785 786
f 792 786 785
f 781 783 786
f 786 792 781
f 787 218 219
f 219 780 787
f 787 789 788
f 788 218 787
f 787 790 789
f 780 781 790
f 790 787 780
f 789 791 741
f 741 788 789
f 790 792 791
f 791 789 790
f 792 790 781
f 791 785 793
f 793 741 791
f 785 791 792
f 795 319 797
f 798 235 795
f 795 797 798
f 235 798 799
f 800 796 235
f 235 799 800
f 35 37 802
f 803 802 37
f 37 38 803
f 38 801 803
f 806 803 801
f 801 807 806
f 803 804 802
f 804 803 800
f 796 800 803
f 803 806 796
f 241 806 805
f 805 221 241
f 805 807 220
f 220 217 805
f 807 805 806
f 235 796 806
f 808 428 795
f 795 238 808
f 238 229 808
f 428 808 809
f 665 809 808
f 810 429 809
f 811 810 809
f 809 665 811
f 818 426 429
f 429 810 818
f 810 811 812
f 813 808 229
f 229 664 813
f 808 813 665
f 662 822 815
f 816 815 822
f 822 823 816
f 823 824 816
f 821 816 824
f 824 814 821
f 815 816 817
f 818 817 816
f 816 821 818
f 817 818 812
f 430 819 820
f 430 821 819
f 426 818 821
f 821 430 426
f 444 819 821
f 814 444 821
f 810 812 818
f 662 825 822
f 823 822 825
f 825 436 823
f 739 823 436
f 823 739 824
f 814 824 739
f 739 740 814
f 820 819 738
f 444 738 819
f 444 814 740
f 177 178 826
f 828 443 826
f 443 828 827
f 479 826 178
f 826 479 480
f 480 828 826
f 827 828 831
f 33 473 34
f 473 33 830
f 33 432 830
f 432 829 830
f 829 425 830
f 827 831 830
f 820 832 430
f 832 820 446
f 832 830 425
f 425 833 832
f 832 827 830
f 834 452 767
f 767 198 834
f 729 834 198
f 198 605 729
f 452 834 454
f 730 454 834
f 834 729 730
f 835 836 454
f 454 730 835
f 844 449 836
f 837 836 835
f 722 838 841
f 838 839 841
f 842 841 839
f 839 849 842
f 849 840 842
f 841 842 843
f 847 843 842
f 836 837 843
f 843 847 836
f 844 448 449
f 844 846 845
f 845 459 844
f 844 847 846
f 844 836 847
f 845 848 747
f 848 845 846
f 840 747 848
f 846 842 840
f 840 848 846
f 842 846 847
f 747 840 461
f 839 850 849
f 849 461 840
f 461 849 850
f 748 722 719
f 722 748 838
f 839 838 748
f 852 468 466
f 466 851 852
f 468 852 467
f 215 211 851
f 91 853 857
f 853 854 857
f 854 39 857
f 39 855 857
f 856 857 852
f 858 859 455
f 859 858 471
f 471 857 855
f 855 859 471
f 467 852 857
f 857 471 467
f 614 616 863
f 860 863 616
f 862 865 615
f 615 614 862
f 863 862 614
f 863 860 867
f 864 867 860
f 860 861 864
f 865 862 866
f 862 863 866
f 867 866 863
f 867 864 877
f 880 870 610
f 610 618 880
f 870 880 881
f 868 872 870
f 870 881 868
f 869 871 872
f 872 868 869
f 612 610 870
f 612 870 872
f 872 864 861
f 861 612 872
f 871 877 864
f 864 872 871
f 887 1022 873
f 874 883 887
f 873 874 887
f 883 874 875
f 876 875 874
f 874 873 876
f 877 876 873
f 873 879 877
f 871 869 875
f 875 876 871
f 877 871 876
f 866 878 865
f 879 878 866
f 873 878 879
f 866 867 879
f 877 879 867
f 882 868 881
f 868 882 869
f 884 880 618
f 880 884 881
f 875 888 883
f 888 875 869
f 618 626 884
f 885 881 884
f 881 885 882
f 886 869 882
f 869 886 888
f 889 884 626
f 626 639 889
f 890 889 639
f 639 640 890
f 891 890 640
f 640 636 891
f 892 885 884
f 884 889 892
f 893 892 889
f 889 890 893
f 894 893 890
f 890 891 894
f 895 882 885
f 885 892 895
f 896 895 892
f 892 893 896
f 897 896 893
f 893 894 897
f 898 886 882
f 882 895 898
f 896 898 895
f 900 899 637
f 637 638 900
f 900 901 899
f 901 900 902
f 899 903 633
f 633 637 899
f 901 904 903
f 903 899 901
f 635 633 903
f 903 905 635
f 904 906 905
f 905 903 904
f 635 891 636
f 905 894 891
f 891 635 905
f 906 897 894
f 894 905 906
f 908 907 909
f 901 902 924
f 924 908 901
f 904 901 908
f 906 904 908
f 908 909 906
f 897 906 909
f 907 957 887
f 907 887 883
f 883 909 907
f 888 898 909
f 909 883 888
f 898 888 886
f 896 897 909
f 909 898 896
f 650 900 638
f 651 652 912
f 910 912 652
f 652 649 910
f 912 910 911
f 650 651 913
f 912 913 651
f 900 650 902
f 913 902 650
f 913 912 925
f 912 911 925
f 647 656 926
f 927 914 926
f 914 927 915
f 926 916 648
f 648 647 926
f 914 917 916
f 916 926 914
f 915 918 917
f 917 914 915
f 928 919 918
f 918 915 928
f 916 920 646
f 646 648 916
f 917 921 920
f 920 916 917
f 921 917 918
f 920 910 649
f 649 646 920
f 921 911 910
f 910 920 921
f 911 921 918
f 919 925 911
f 911 918 919
f 604 908 924
f 922 931 604
f 604 924 922
f 922 923 931
f 919 928 923
f 923 922 919
f 925 919 922
f 902 913 925
f 925 924 902
f 922 924 925
f 932 926 656
f 926 932 927
f 930 915 927
f 929 928 915
f 915 930 929
f 928 929 923
f 923 933 931
f 933 923 929
f 934 932 656
f 656 670 934
f 935 934 670
f 937 927 932
f 932 934 937
f 938 937 934
f 934 935 938
f 936 938 935
f 939 930 927
f 927 937 939
f 937 938 939
f 940 939 938
f 938 936 940
f 939 929 930
f 941 942 667
f 667 669 941
f 668 667 942
f 668 944 666
f 944 668 942
f 944 940 936
f 936 666 944
f 942 941 961
f 961 943 942
f 944 942 943
f 943 946 944
f 603 957 604
f 931 945 603
f 603 604 931
f 945 931 933
f 945 946 943
f 943 603 945
f 946 945 933
f 929 939 946
f 946 933 929
f 939 940 946
f 944 946 940
f 669 682 941
f 949 941 682
f 949 947 950
f 951 950 947
f 947 948 951
f 941 949 962
f 952 962 949
f 949 950 952
f 953 952 950
f 950 951 953
f 967 954 678
f 678 691 967
f 954 967 968
f 964 956 954
f 954 968 964
f 963 955 956
f 956 964 963
f 680 678 954
f 680 954 956
f 956 951 948
f 948 680 956
f 955 953 951
f 951 956 955
f 601 957 958
f 959 958 957
f 961 959 957
f 960 966 958
f 958 959 960
f 955 963 966
f 966 960 955
f 953 955 960
f 960 959 953
f 941 962 961
f 952 961 962
f 952 959 961
f 952 953 959
f 958 965 601
f 965 958 966
f 972 967 691
f 967 972 968
f 969 964 968
f 964 969 963
f 970 968 972
f 968 970 969
f 971 963 969
f 966 973 965
f 963 971 973
f 973 966 963
f 691 701 972
f 974 972 701
f 702 700 975
f 976 970 972
f 972 974 976
f 977 976 974
f 974 702 977
f 975 977 702
f 978 969 970
f 970 976 978
f 976 977 978
f 980 978 977
f 977 975 980
f 979 971 969
f 969 978 979
f 980 979 978
f 981 982 698
f 698 697 981
f 982 983 696
f 696 698 982
f 983 984 699
f 699 696 983
f 699 975 700
f 984 980 975
f 975 699 984
f 985 988 986
f 987 986 988
f 981 985 982
f 983 982 985
f 985 986 983
f 984 983 986
f 980 984 986
f 986 987 980
f 971 979 973
f 965 988 601
f 973 987 988
f 988 965 973
f 987 973 979
f 979 980 987
f 989 990 992
f 993 992 990
f 990 991 993
f 716 981 697
f 716 989 994
f 992 994 989
f 981 716 994
f 994 992 1004
f 992 993 1004
f 1015 995 1005
f 995 1015 996
f 1005 997 710
f 710 720 1005
f 995 998 997
f 997 1005 995
f 996 999 998
f 998 995 996
f 1007 1000 999
f 999 996 1007
f 997 1001 712
f 712 710 997
f 998 1002 1001
f 1001 997 998
f 1002 998 999
f 991 712 1001
f 1002 993 991
f 991 1001 1002
f 993 1002 999
f 1000 1004 993
f 993 999 1000
f 602 1010 601
f 1003 1008 1010
f 1010 602 1003
f 1003 1009 1008
f 1003 602 1004
f 1000 1007 1009
f 1009 1003 1000
f 1004 1000 1003
f 994 985 981
f 602 985 994
f 602 994 1004
f 1006 996 1015
f 996 1006 1007
f 1008 1026 1010
f 1026 1008 1025
f 1009 1025 1008
f 1025 1009 1007
f 1011 1005 720
f 720 725 1011
f 1005 1011 1015
f 1019 1007 1006
f 1022 957 1010
f 1007 1019 1025
f 957 601 1010
f 1012 1011 725
f 1016 1015 1011
f 1011 1012 1016
f 1013 1016 1012
f 1017 1006 1015
f 1015 1016 1017
f 1018 1017 1016
f 1016 1013 1018
f 1013 1014 1018
f 1017 1019 1006
f 732 615 865
f 865 1020 732
f 732 1020 733
f 733 1021 731
f 1021 733 1020
f 1020 1024 1021
f 1014 731 1021
f 1021 1018 1014
f 1018 1021 1024
f 1023 878 1022
f 1020 865 878
f 878 1023 1020
f 1024 1020 1023
f 1022 1010 1026
f 1019 1017 1025
f 1025 1024 1026
f 1017 1018 1024
f 1024 1025 1017
f 1026 1023 1022
f 1023 1026 1024
