# USD → MuJoCo (world-space, simplified)
v 0.350789 -0.213255 -0.151425
v 0.354227 -0.211208 -0.150293
v 0.351142 -0.213051 -0.141191
v 0.353636 -0.211562 -0.141041
v 0.341509 -0.200802 -0.156630
v 0.286155 -0.167586 -0.154341
v 0.283902 -0.166231 -0.151674
v 0.271436 -0.158766 -0.157868
v 0.325211 -0.191028 -0.157273
v 0.315716 -0.185323 -0.154353
v 0.294527 -0.172604 -0.142777
v 0.325381 -0.191118 -0.150772
v 0.340984 -0.206931 -0.160807
v 0.340433 -0.205170 -0.160815
v 0.174845 -0.102826 -0.160807
v 0.332127 -0.196608 -0.160800
v 0.342378 -0.204030 -0.125829
v 0.341107 -0.204794 -0.125825
v 0.339834 -0.205557 -0.125829
v 0.346292 -0.212139 -0.153986
v 0.348408 -0.213391 -0.159318
v 0.342261 -0.209729 -0.145614
v 0.337300 -0.206750 -0.153674
v -0.023834 0.009944 -0.157868
v 0.001168 -0.005062 -0.156639
v 0.154566 -0.097101 -0.156639
v 0.084428 -0.055023 -0.155175
v -0.049001 0.025032 -0.153508
v 0.144888 -0.091301 -0.153508
v -0.008812 0.000917 -0.151673
v 0.133761 -0.084627 -0.151181
v 0.232096 -0.143613 -0.157868
v 0.257843 -0.159075 -0.153508
v 0.257842 -0.159076 -0.151181
v 0.257420 -0.158817 -0.155176
v 0.213315 -0.132361 -0.150195
v 0.118438 -0.075419 -0.157868
v 0.138069 -0.087214 -0.145009
v 0.267337 -0.164774 -0.147097
v 0.202415 -0.125821 -0.147631
v 0.133760 -0.084628 -0.148667
v 0.016343 -0.014179 -0.146290
v -0.008813 0.000916 -0.149703
v 0.353968 -0.208284 -0.135048
v 0.350234 -0.206033 -0.132023
v 0.350957 -0.206463 -0.150315
v 0.345746 -0.205074 -0.160803
v 0.343528 -0.204720 -0.160812
v 0.344050 -0.206560 -0.160814
v 0.353952 -0.209521 -0.160786
v 0.349760 -0.212020 -0.160796
v 0.344350 -0.209538 -0.160798
v 0.341560 -0.206593 -0.160812
v 0.344592 -0.208567 -0.160808
v 0.340257 -0.207429 -0.125874
v 0.341908 -0.208413 -0.125977
v 0.343464 -0.209337 -0.126181
v 0.343792 -0.205276 -0.125863
v 0.347352 -0.211601 -0.127751
v 0.347336 -0.208727 -0.126509
v 0.352115 -0.209859 -0.128701
v 0.350359 -0.206888 -0.126527
v 0.348617 -0.206222 -0.126174
v 0.345691 -0.204054 -0.125889
v 0.347070 -0.205281 -0.125970
v 0.355550 -0.210272 -0.136880
v 0.355394 -0.210180 -0.134913
v 0.354591 -0.209892 -0.131390
v 0.354989 -0.210119 -0.133060
v 0.350112 -0.211929 -0.129931
v 0.351544 -0.212499 -0.134916
v 0.350076 -0.213644 -0.139036
v 0.353847 -0.211404 -0.138948
v 0.350376 -0.213388 -0.136916
v 0.023564 -0.010026 -0.137974
v 0.131158 -0.074583 -0.139009
v 0.149223 -0.085423 -0.135953
v -0.031825 0.023191 -0.128773
v 0.103030 -0.057723 -0.128773
v 0.063746 -0.034146 -0.130001
v 0.122379 -0.069326 -0.130001
v 0.184370 -0.106520 -0.130001
v 0.063750 -0.034144 -0.131466
v 0.140825 -0.080389 -0.131466
v 0.093069 -0.051732 -0.133133
v 0.253075 -0.147744 -0.130001
v 0.195264 -0.113063 -0.128773
v 0.298170 -0.174806 -0.128773
v 0.264904 -0.154839 -0.130733
v 0.276183 -0.161601 -0.133634
v 0.239150 -0.139381 -0.134050
v 0.209480 -0.121582 -0.131466
v 0.200863 -0.116409 -0.133133
v 0.245142 -0.142972 -0.141436
v 0.239553 -0.139620 -0.136938
v 0.345371 -0.211587 -0.134748
v 0.338180 -0.207267 -0.129404
v 0.337355 -0.206780 -0.132315
v 0.341432 -0.209208 -0.127847
v 0.344127 -0.210840 -0.131536
v 0.335376 -0.205597 -0.138177
v 0.319697 -0.196188 -0.134590
v 0.327799 -0.201035 -0.128773
v 0.324165 -0.198860 -0.130001
v 0.314953 -0.193337 -0.131466
v 0.261611 -0.161323 -0.128773
v 0.235220 -0.145498 -0.131466
v 0.253483 -0.156459 -0.133133
v 0.278010 -0.171178 -0.137346
v 0.276656 -0.170366 -0.142575
v 0.322199 -0.197692 -0.140519
v 0.354555 -0.208637 -0.151884
v 0.355138 -0.208988 -0.158624
v 0.349317 -0.205502 -0.159217
v 0.349460 -0.205573 -0.157142
v 0.349249 -0.213814 -0.156895
v 0.349476 -0.213844 -0.157070
v 0.348914 -0.213671 -0.154474
v 0.349179 -0.213773 -0.153774
v 0.349448 -0.213828 -0.154273
v 0.348214 -0.213280 -0.151114
v 0.349409 -0.213805 -0.150701
v 0.350301 -0.213532 -0.158795
v 0.350276 -0.213554 -0.152103
v 0.349961 -0.213713 -0.155786
v 0.349704 -0.213810 -0.157177
v 0.350283 -0.213552 -0.141132
v 0.349959 -0.213712 -0.149104
v 0.349671 -0.213791 -0.146023
v 0.349688 -0.213801 -0.152503
v 0.348544 -0.213449 -0.137061
v 0.348714 -0.213552 -0.149257
v 0.349061 -0.213703 -0.146588
v 0.346383 -0.212176 -0.129897
v 0.346713 -0.212330 -0.129138
v 0.346375 -0.211984 -0.128058
v 0.347383 -0.212519 -0.128862
v 0.345579 -0.211636 -0.128026
v 0.345299 -0.211338 -0.127370
v 0.343192 -0.210250 -0.127656
v 0.344056 -0.210593 -0.126878
v 0.343218 -0.210196 -0.127045
v 0.347974 -0.212340 -0.128717
v 0.346226 -0.210936 -0.127034
v 0.344627 -0.210358 -0.126535
v 0.343048 -0.209566 -0.126232
v 0.346691 -0.211921 -0.127824
v 0.345580 -0.211253 -0.127115
v 0.344241 -0.210532 -0.126677
v 0.342825 -0.209683 -0.126341
v 0.338091 -0.206591 -0.125893
v 0.337880 -0.206716 -0.126005
v 0.337730 -0.206798 -0.126220
v 0.339839 -0.207640 -0.125927
v 0.339625 -0.207763 -0.126039
v 0.339478 -0.207847 -0.126253
v 0.341496 -0.208634 -0.126029
v 0.341280 -0.208756 -0.126140
v 0.342031 -0.209378 -0.126437
v 0.340664 -0.208737 -0.127382
v 0.338464 -0.207402 -0.127106
v 0.329056 -0.201757 -0.127091
v 0.329647 -0.202054 -0.126571
v 0.339929 -0.208224 -0.126605
v 0.355971 -0.210106 -0.156871
v 0.356132 -0.209952 -0.156817
v 0.356175 -0.209807 -0.155377
v 0.355704 -0.210294 -0.154498
v 0.355971 -0.210106 -0.151333
v 0.356116 -0.209942 -0.151833
v 0.355762 -0.209370 -0.157591
v 0.355931 -0.209497 -0.155207
v 0.356139 -0.209680 -0.156895
v 0.356071 -0.209638 -0.153774
v 0.355654 -0.209329 -0.146635
v 0.355954 -0.209567 -0.146588
v 0.356091 -0.209756 -0.144422
v 0.356122 -0.209774 -0.150185
v 0.355347 -0.209121 -0.150740
v 0.355967 -0.210104 -0.144399
v 0.356098 -0.209931 -0.144406
v 0.353233 -0.207936 -0.160383
v 0.354327 -0.208686 -0.160576
v 0.350367 -0.207189 -0.160796
v 0.351493 -0.207419 -0.160755
v 0.344514 -0.203232 -0.160751
v 0.345181 -0.203381 -0.160650
v 0.345338 -0.203303 -0.160458
v 0.349881 -0.206201 -0.160672
v 0.349703 -0.205923 -0.160510
v 0.344661 -0.202733 -0.159660
v 0.348727 -0.205173 -0.159813
v 0.345451 -0.203264 -0.160145
v 0.349786 -0.205866 -0.160251
v 0.112857 -0.072063 -0.158827
v -0.023807 0.009960 -0.159549
v -0.033882 0.016063 -0.160069
v 0.096014 -0.061933 -0.159549
v 0.086090 -0.055920 -0.160069
v 0.086179 -0.055867 -0.160420
v 0.193836 -0.120626 -0.159549
v 0.169618 -0.105930 -0.160420
v -0.101154 0.057304 -0.160792
v 0.265464 -0.162206 -0.160800
v 0.113367 -0.071757 -0.160748
v 0.016814 -0.014077 -0.160635
v 0.124408 -0.078633 -0.160635
v 0.251405 -0.154579 -0.160748
v 0.239844 -0.147894 -0.160635
v 0.184097 -0.113847 -0.160792
v 0.238173 -0.147063 -0.160420
v 0.232102 -0.143610 -0.158827
v 0.193884 -0.120596 -0.160069
v 0.338502 -0.207425 -0.159689
v 0.338622 -0.207333 -0.160458
v 0.344510 -0.211058 -0.159200
v 0.341423 -0.209120 -0.160204
v 0.342988 -0.209952 -0.160510
v 0.345172 -0.211438 -0.159927
v 0.337903 -0.206130 -0.160792
v 0.342900 -0.209128 -0.160790
v 0.344505 -0.210691 -0.160679
v 0.347296 -0.212114 -0.160755
v 0.348694 -0.212632 -0.160777
v 0.343668 -0.209937 -0.160756
v 0.346814 -0.212435 -0.159978
v 0.345362 -0.211482 -0.160352
v 0.283065 -0.173827 -0.126005
v 0.298623 -0.183333 -0.126220
v 0.255605 -0.157712 -0.127814
v 0.315407 -0.193592 -0.127814
v 0.278248 -0.171273 -0.127091
v 0.270028 -0.166283 -0.126571
v 0.343340 -0.201916 -0.158966
v 0.330913 -0.194459 -0.158852
v 0.340183 -0.200046 -0.159598
v 0.340120 -0.200066 -0.160097
v 0.340021 -0.200113 -0.160434
v 0.331896 -0.195132 -0.160077
v 0.331804 -0.195183 -0.160425
v 0.343949 -0.203242 -0.160792
v 0.331720 -0.195904 -0.160792
v 0.338267 -0.199484 -0.160749
v 0.340957 -0.200847 -0.160642
v 0.331660 -0.195268 -0.160636
v 0.257625 -0.150847 -0.160635
v 0.297364 -0.175290 -0.160792
v 0.309678 -0.182330 -0.160748
v 0.302574 -0.177817 -0.160635
v 0.289639 -0.169884 -0.160420
v 0.324678 -0.191331 -0.160748
v 0.320897 -0.188810 -0.160636
v 0.321040 -0.188725 -0.160421
v 0.275614 -0.161280 -0.158827
v 0.289776 -0.169802 -0.159549
v 0.326564 -0.191875 -0.159558
v 0.311967 -0.183175 -0.160071
v 0.008203 -0.001022 -0.126220
v 0.139758 -0.079766 -0.127814
v 0.103004 -0.057739 -0.127091
v 0.122211 -0.069427 -0.126220
v 0.124763 -0.071729 -0.125849
v 0.343436 -0.203393 -0.125840
v 0.140300 -0.080704 -0.125893
v 0.102724 -0.057907 -0.126005
v 0.158952 -0.091643 -0.126005
v 0.253481 -0.148612 -0.125893
v 0.253691 -0.148487 -0.126005
v 0.226798 -0.132179 -0.126220
v 0.207792 -0.120611 -0.127091
v 0.291152 -0.170627 -0.127091
v 0.170233 -0.098134 -0.126571
v 0.348155 -0.204830 -0.127178
v 0.347387 -0.204341 -0.127985
v 0.347018 -0.204311 -0.126302
v 0.348672 -0.205197 -0.126792
v 0.349375 -0.205726 -0.126549
v 0.344105 -0.202987 -0.125893
v 0.347507 -0.205028 -0.126029
v 0.349059 -0.205959 -0.126232
v 0.344303 -0.202854 -0.126005
v 0.347224 -0.204602 -0.126092
v 0.349255 -0.205825 -0.126341
v 0.352494 -0.208503 -0.127747
v 0.353762 -0.208850 -0.128738
v 0.353014 -0.208155 -0.127848
v 0.353953 -0.208644 -0.128826
v 0.353089 -0.207955 -0.128058
v 0.353982 -0.208491 -0.128975
v 0.351632 -0.207671 -0.127034
v 0.351937 -0.207434 -0.127181
v 0.352014 -0.207310 -0.127370
v 0.350671 -0.206674 -0.126677
v 0.350771 -0.206564 -0.126878
v 0.352251 -0.207274 -0.128401
v 0.353869 -0.208290 -0.129335
v 0.352689 -0.207606 -0.128059
v 0.350793 -0.206470 -0.127204
v 0.348006 -0.213154 -0.141912
v 0.349374 -0.213784 -0.143594
v 0.349007 -0.213671 -0.140091
v 0.349337 -0.213762 -0.139003
v 0.347725 -0.212984 -0.134043
v 0.349260 -0.213715 -0.136936
v 0.348839 -0.213569 -0.135997
v 0.349774 -0.213526 -0.134897
v 0.349956 -0.213710 -0.141131
v 0.349852 -0.213648 -0.136908
v 0.349651 -0.213779 -0.140064
v 0.349560 -0.213724 -0.136918
v 0.349406 -0.213632 -0.134952
v 0.348589 -0.212811 -0.129947
v 0.348089 -0.212944 -0.130051
v 0.349217 -0.213110 -0.131421
v 0.348618 -0.213262 -0.131470
v 0.349602 -0.213344 -0.133097
v 0.349151 -0.213479 -0.133128
v 0.348965 -0.213541 -0.133777
v 0.347704 -0.212945 -0.131460
v 0.347877 -0.212993 -0.130809
v 0.348524 -0.213380 -0.133274
v 0.355704 -0.210300 -0.141122
v 0.355967 -0.210104 -0.141131
v 0.356095 -0.209929 -0.141136
v 0.356067 -0.209741 -0.140075
v 0.355683 -0.210281 -0.138981
v 0.355941 -0.210088 -0.138985
v 0.356068 -0.209913 -0.138992
v 0.355863 -0.210041 -0.136908
v 0.355990 -0.209866 -0.136918
v 0.355975 -0.209686 -0.136936
v 0.355708 -0.209949 -0.134933
v 0.355837 -0.209774 -0.134952
v 0.355824 -0.209595 -0.134983
v 0.355061 -0.208948 -0.141208
v 0.355521 -0.209249 -0.138553
v 0.355900 -0.209534 -0.140091
v 0.355732 -0.209434 -0.135997
v 0.353528 -0.208028 -0.130324
v 0.354678 -0.208861 -0.130229
v 0.355113 -0.208992 -0.134117
v 0.354928 -0.208918 -0.131589
v 0.355199 -0.209221 -0.131565
v 0.355416 -0.209244 -0.133274
v 0.355573 -0.209445 -0.133184
v 0.354410 -0.209337 -0.129932
v 0.355064 -0.209563 -0.131431
v 0.355451 -0.209794 -0.133097
v 0.354665 -0.209071 -0.130034
v 0.355199 -0.209392 -0.131478
v 0.355581 -0.209621 -0.133128
v 0.353287 -0.211432 -0.160442
v 0.349126 -0.213089 -0.160739
v 0.351566 -0.212139 -0.160642
v 0.355083 -0.210023 -0.160630
v 0.351860 -0.210741 -0.160802
v 0.353916 -0.211383 -0.158776
v 0.353934 -0.211226 -0.160083
v 0.348922 -0.213691 -0.157886
v 0.349337 -0.213832 -0.158731
v 0.347458 -0.212777 -0.160294
v 0.347520 -0.212684 -0.160574
v 0.348351 -0.213222 -0.160400
v 0.348922 -0.213579 -0.160190
v 0.349235 -0.213422 -0.160610
v 0.349800 -0.213493 -0.160407
v 0.347628 -0.212564 -0.160687
v 0.350110 -0.213628 -0.158814
v 0.350109 -0.213609 -0.159562
v 0.349679 -0.213795 -0.159077
v 0.350002 -0.213571 -0.160069
v 0.349381 -0.213733 -0.160080
v 0.353648 -0.208105 -0.159743
v 0.354546 -0.208663 -0.160153
v 0.355490 -0.209322 -0.160342
v 0.355859 -0.209552 -0.160057
v 0.355862 -0.209479 -0.159539
v 0.355193 -0.209303 -0.160569
v 0.355829 -0.209425 -0.157944
v 0.356186 -0.209813 -0.158117
v 0.356096 -0.209653 -0.158682
v 0.356085 -0.209752 -0.159532
v 0.355830 -0.210196 -0.158814
v 0.355795 -0.210201 -0.159556
v 0.355953 -0.209968 -0.160010
v 0.355555 -0.210031 -0.160396
v 0.356108 -0.209937 -0.159077
v 0.354671 -0.209106 -0.160703
v 0.354445 -0.209946 -0.160751
v 0.355320 -0.209715 -0.160651
v 0.355752 -0.209723 -0.160414
v 0.275625 -0.161274 -0.156640
v 0.209476 -0.121584 -0.156639
v 0.128889 -0.073238 -0.157868
v 0.140821 -0.080391 -0.156639
v 0.209480 -0.121582 -0.155175
v 0.102287 -0.057267 -0.155175
v 0.253080 -0.147741 -0.154341
v 0.200863 -0.116409 -0.153508
v 0.196254 -0.113642 -0.151673
v 0.063746 -0.034146 -0.156639
v -0.016933 0.014265 -0.155175
v 0.063754 -0.034142 -0.151673
v 0.103041 -0.057716 -0.153508
v 0.073427 -0.039944 -0.146825
v 0.023264 -0.009846 -0.142913
v 0.200866 -0.116407 -0.143863
v -0.016927 0.014269 -0.148667
v 0.184379 -0.106515 -0.147631
v 0.116349 -0.065698 -0.149703
v 0.258722 -0.151121 -0.149444
v 0.029769 -0.015193 -0.160800
v 0.341756 -0.204404 -0.125826
v -0.339696 0.205898 -0.125834
v 0.342947 -0.203688 -0.125834
v 0.338773 -0.206192 -0.125840
v 0.340457 -0.205184 -0.125826
v 0.339263 -0.205898 -0.125834
v 0.281424 -0.173216 -0.156643
v 0.298463 -0.183434 -0.157873
v 0.332292 -0.203734 -0.157426
v 0.311243 -0.191113 -0.154380
v 0.306993 -0.188568 -0.149175
v 0.314737 -0.184741 -0.130001
v 0.310309 -0.182078 -0.132414
v 0.340797 -0.200368 -0.133119
v 0.340721 -0.200334 -0.129387
v 0.329970 -0.193886 -0.128773
v 0.324708 -0.190712 -0.144192
v 0.317710 -0.186514 -0.137977
v 0.261607 -0.161326 -0.130001
v 0.155392 -0.097597 -0.130001
v 0.160233 -0.100496 -0.128773
v 0.026470 -0.020250 -0.133133
v 0.031391 -0.023191 -0.128773
v 0.076631 -0.050349 -0.134968
v 0.086007 -0.055970 -0.131466
v 0.124541 -0.079094 -0.134050
v 0.105646 -0.067760 -0.140621
v -0.023847 0.009936 -0.136938
v 0.095974 -0.061957 -0.136938
v 0.225126 -0.139448 -0.137445
v 0.165131 -0.103450 -0.137481
v 0.322951 -0.197159 -0.160792
v 0.299106 -0.183200 -0.160748
v 0.322661 -0.197333 -0.160748
v 0.305305 -0.187171 -0.160636
v 0.298753 -0.183412 -0.160421
v 0.322310 -0.197545 -0.160423
v 0.334944 -0.204703 -0.160750
v 0.338481 -0.207077 -0.160651
v 0.332373 -0.203584 -0.160433
v 0.326162 -0.199685 -0.160637
v 0.332259 -0.203704 -0.158898
v 0.331793 -0.203400 -0.159588
v 0.332980 -0.204054 -0.160102
v 0.279108 -0.171814 -0.158827
v 0.273215 -0.168253 -0.159549
v 0.310662 -0.190746 -0.158833
v 0.315430 -0.193582 -0.159555
v 0.276920 -0.170419 -0.160069
v 0.318229 -0.195204 -0.160073
v 0.338390 -0.206422 -0.125849
v 0.141771 -0.088451 -0.125849
v 0.213043 -0.131562 -0.125893
v 0.201081 -0.124637 -0.126005
v 0.246191 -0.151875 -0.126220
v 0.193973 -0.120543 -0.126220
v 0.056554 -0.037921 -0.126005
v 0.041678 -0.029166 -0.126220
v 0.115495 -0.073457 -0.126220
v 0.080959 -0.052924 -0.127814
v 0.169460 -0.106025 -0.127814
v 0.070932 -0.046883 -0.127091
v 0.016432 -0.014125 -0.126571
v 0.218191 -0.135239 -0.127091
v 0.218239 -0.135209 -0.126571
v 0.169481 -0.106012 -0.127091
v 0.142467 -0.089747 -0.126571
v 0.258192 -0.151439 -0.160748
v 0.140300 -0.080704 -0.160748
v 0.176191 -0.101986 -0.160635
v 0.207654 -0.120693 -0.160420
v 0.062591 -0.034426 -0.160792
v 0.102724 -0.057907 -0.160635
v 0.092895 -0.051837 -0.160420
v -0.014266 0.012648 -0.158827
v 0.072861 -0.039653 -0.159549
v 0.226935 -0.132097 -0.159549
v 0.137058 -0.078229 -0.160069
v 0.264822 -0.154888 -0.160069
v 0.175138 -0.100994 -0.158827
v 0.285982 -0.167690 -0.126220
v 0.344418 -0.202751 -0.126220
v 0.343818 -0.203163 -0.125849
v 0.339240 -0.199455 -0.127814
v 0.336046 -0.197563 -0.127091
v 0.345561 -0.203330 -0.126572
v 0.262636 -0.153493 -0.127814
v 0.322437 -0.189374 -0.127814
v 0.285190 -0.167108 -0.126571
v -0.355978 0.210391 -0.158764
v -0.351677 0.212979 -0.158811
v -0.354883 0.211067 -0.154654
v -0.350745 0.213537 -0.141044
v -0.351735 0.212955 -0.141123
v -0.352840 0.212295 -0.150983
v -0.338561 0.207239 -0.157108
v -0.302783 0.185783 -0.141992
v -0.269424 0.165766 -0.150431
v -0.316917 0.194260 -0.152282
v -0.338713 0.207341 -0.146307
v -0.297688 0.182714 -0.156649
v -0.283193 0.174012 -0.157869
v -0.328280 0.201064 -0.157933
v -0.279527 0.171823 -0.154341
v -0.322384 0.197534 -0.155997
v -0.304669 0.185470 -0.160800
v -0.317180 0.191705 -0.160812
v -0.319976 0.192635 -0.160815
v -0.321187 0.190372 -0.160807
v -0.320785 0.190814 -0.160812
v -0.343869 0.203393 -0.125840
v -0.342812 0.204030 -0.125829
v -0.341540 0.204794 -0.125825
v -0.353969 0.208020 -0.157896
v -0.343633 0.201811 -0.154181
v -0.355468 0.208928 -0.145449
v -0.356158 0.209346 -0.157376
v -0.352464 0.207109 -0.149840
v -0.064183 0.034144 -0.155175
v -0.141250 0.080394 -0.157868
v -0.122819 0.069322 -0.153508
v -0.122821 0.069321 -0.150688
v -0.141258 0.080389 -0.155175
v -0.084134 0.046108 -0.144398
v -0.141263 0.080386 -0.147631
v -0.259431 0.151286 -0.145747
v -0.286593 0.167583 -0.144941
v -0.209919 0.121579 -0.147631
v -0.239585 0.139380 -0.150688
v -0.176943 0.101795 -0.150688
v -0.274405 0.160282 -0.156640
v -0.237618 0.138215 -0.157868
v -0.162878 0.093366 -0.156639
v -0.245293 0.142811 -0.155175
v -0.176941 0.101796 -0.153508
v -0.343618 0.210281 -0.135116
v -0.341217 0.208833 -0.130069
v -0.347668 0.212698 -0.143697
v -0.346963 0.212266 -0.130429
v -0.346133 0.211778 -0.133226
v -0.315550 0.191411 -0.160807
v -0.341001 0.205624 -0.160814
v -0.341852 0.204591 -0.160816
v -0.341592 0.207330 -0.160803
v -0.344153 0.208221 -0.160812
v -0.331419 0.195923 -0.160800
v -0.348027 0.205888 -0.160800
v -0.351490 0.208558 -0.160803
v -0.345833 0.206046 -0.160811
v -0.351436 0.211273 -0.160805
v -0.342189 0.204404 -0.125826
v -0.345227 0.204673 -0.125870
v -0.343610 0.205646 -0.125859
v -0.347844 0.205125 -0.125987
v -0.349391 0.206049 -0.126192
v -0.343659 0.207597 -0.125961
v -0.345214 0.208535 -0.126166
v -0.349419 0.210620 -0.127734
v -0.346760 0.209327 -0.126507
v -0.350817 0.206903 -0.126535
v -0.353757 0.209137 -0.128705
v -0.349457 0.209256 -0.127023
v -0.354193 0.211487 -0.141204
v -0.350523 0.213636 -0.138932
v -0.353254 0.212018 -0.138976
v -0.350443 0.213591 -0.136874
v -0.353177 0.211971 -0.136894
v -0.353021 0.211878 -0.134913
v -0.355826 0.210183 -0.134929
v -0.355092 0.209854 -0.131409
v -0.349341 0.212643 -0.129934
v -0.354486 0.209569 -0.129937
v -0.047146 0.032400 -0.137974
v -0.167168 0.104413 -0.136938
v 0.023413 -0.009937 -0.134968
v -0.159201 0.099631 -0.134968
v -0.276786 0.170184 -0.137974
v -0.239907 0.148057 -0.145141
v -0.232524 0.143616 -0.130001
v -0.209828 0.129993 -0.128773
v -0.169883 0.106031 -0.130001
v -0.232522 0.143618 -0.131466
v -0.169879 0.106033 -0.131466
v -0.238432 0.147168 -0.133133
v -0.169877 0.106034 -0.133133
v -0.081382 0.052931 -0.130001
v -0.081379 0.052933 -0.131466
v -0.081376 0.052934 -0.133133
v -0.134207 0.084620 -0.128773
v -0.351841 0.206738 -0.133874
v -0.350079 0.205695 -0.128258
v -0.347327 0.204028 -0.133196
v -0.354806 0.208534 -0.132558
v -0.335183 0.196738 -0.150242
v -0.344979 0.202615 -0.137870
v -0.286592 0.167583 -0.138241
v -0.326599 0.191586 -0.139990
v -0.290236 0.169786 -0.128773
v -0.302706 0.177262 -0.130001
v -0.330403 0.193886 -0.128773
v -0.276062 0.161271 -0.131466
v -0.337917 0.198387 -0.130734
v -0.279236 0.163172 -0.134050
v -0.346121 0.211780 -0.154989
v -0.347627 0.212677 -0.157492
v -0.356414 0.209528 -0.156366
v -0.356242 0.209422 -0.152566
v -0.356523 0.209649 -0.154547
v -0.356600 0.209801 -0.154624
v -0.356080 0.209324 -0.145809
v -0.356359 0.209549 -0.142806
v -0.356531 0.209759 -0.146041
v -0.356416 0.209583 -0.149208
v -0.356558 0.209776 -0.150701
v -0.356124 0.210310 -0.141170
v -0.356139 0.210295 -0.153889
v -0.356402 0.210105 -0.147285
v -0.356535 0.209933 -0.146023
v -0.356551 0.209942 -0.152092
v -0.356405 0.210107 -0.155786
v -0.356566 0.209952 -0.156817
v -0.354122 0.208173 -0.129150
v -0.353162 0.207555 -0.128777
v -0.352987 0.207526 -0.127962
v -0.351142 0.206384 -0.127342
v -0.353523 0.207955 -0.128058
v -0.354415 0.208491 -0.128975
v -0.352448 0.207310 -0.127370
v -0.351205 0.206564 -0.126878
v -0.349809 0.205726 -0.126549
v -0.341716 0.200706 -0.127091
v -0.332967 0.195514 -0.126571
v -0.344976 0.202719 -0.126571
v -0.344889 0.202774 -0.126220
v -0.348687 0.204945 -0.126697
v -0.347566 0.204216 -0.127165
v -0.347452 0.204311 -0.126302
v -0.346163 0.204036 -0.125902
v -0.346489 0.203905 -0.126039
v -0.348143 0.204898 -0.126140
v -0.349689 0.205825 -0.126341
v -0.353220 0.208333 -0.127769
v -0.354348 0.208694 -0.128772
v -0.353471 0.208095 -0.127886
v -0.352106 0.207663 -0.127051
v -0.352371 0.207434 -0.127181
v -0.351104 0.206674 -0.126677
v -0.350452 0.213690 -0.156713
v -0.350393 0.213712 -0.149056
v -0.350129 0.213805 -0.154369
v -0.349881 0.213827 -0.154176
v -0.349804 0.213782 -0.142785
v -0.350753 0.213532 -0.152207
v -0.350105 0.213792 -0.146541
v -0.349829 0.213796 -0.148694
v -0.348372 0.213111 -0.136251
v -0.349036 0.213486 -0.142167
v -0.349514 0.213714 -0.148726
v -0.349359 0.213691 -0.157861
v -0.349597 0.213796 -0.157773
v -0.348862 0.213404 -0.152496
v -0.349258 0.213618 -0.152461
v -0.349634 0.213785 -0.154641
v -0.346583 0.212010 -0.160122
v -0.344900 0.210945 -0.160314
v -0.348004 0.212713 -0.160576
v -0.343421 0.209952 -0.160510
v -0.337185 0.206399 -0.158984
v -0.333660 0.204202 -0.160097
v -0.342690 0.209677 -0.159849
v -0.337252 0.206251 -0.160448
v -0.345388 0.211319 -0.159540
v -0.339402 0.207648 -0.160154
v -0.328799 0.200408 -0.160792
v -0.340940 0.207692 -0.160791
v -0.340650 0.207867 -0.160753
v -0.340445 0.207995 -0.160655
v -0.347673 0.212250 -0.160729
v -0.344270 0.210290 -0.160674
v -0.344489 0.210170 -0.160756
v -0.064169 0.034153 -0.158827
v -0.141244 0.080398 -0.158827
v -0.122781 0.069345 -0.159549
v -0.176904 0.101818 -0.159549
v -0.122733 0.069374 -0.160069
v -0.184724 0.106568 -0.160069
v -0.088266 0.048800 -0.160420
v -0.184635 0.106621 -0.160420
v -0.265256 0.154888 -0.160069
v -0.239545 0.139404 -0.159549
v -0.237612 0.138219 -0.158827
v -0.269658 0.158406 -0.160792
v -0.262769 0.153673 -0.160635
v -0.185237 0.108214 -0.160800
v -0.134695 0.077080 -0.160748
v -0.134905 0.076955 -0.160635
v -0.350132 0.205732 -0.159344
v -0.342365 0.201095 -0.159631
v -0.344075 0.202179 -0.160126
v -0.350518 0.206045 -0.160265
v -0.343967 0.202221 -0.160448
v -0.350446 0.206108 -0.160517
v -0.354959 0.208630 -0.159836
v -0.354128 0.208180 -0.160321
v -0.353966 0.208222 -0.160577
v -0.350562 0.206015 -0.159899
v -0.353740 0.208508 -0.160755
v -0.350112 0.206331 -0.160756
v -0.353905 0.208355 -0.160691
v -0.351368 0.206833 -0.160679
v -0.345345 0.203219 -0.160651
v -0.350656 0.207005 -0.160790
v -0.344541 0.202375 -0.127845
v -0.337663 0.198438 -0.126220
v -0.290229 0.169789 -0.127814
v -0.284248 0.166283 -0.126571
v -0.285535 0.167161 -0.126220
v -0.302327 0.177072 -0.127091
v -0.330397 0.193890 -0.127814
v -0.344251 0.203162 -0.125849
v -0.300839 0.176767 -0.125893
v -0.273854 0.160324 -0.126005
v -0.344542 0.202989 -0.125893
v -0.344750 0.202862 -0.126005
v -0.324316 0.198678 -0.158852
v -0.335801 0.205545 -0.159622
v -0.331909 0.203209 -0.159582
v -0.325392 0.199299 -0.159563
v -0.328217 0.200936 -0.160080
v -0.330166 0.201999 -0.160428
v -0.322743 0.197545 -0.160423
v -0.277286 0.170460 -0.158827
v -0.299187 0.183412 -0.160421
v -0.286071 0.175706 -0.159550
v -0.315910 0.193552 -0.160073
v -0.299539 0.183200 -0.160748
v -0.323094 0.197333 -0.160748
v -0.283499 0.173827 -0.160635
v -0.314900 0.192668 -0.160636
v -0.322885 0.197459 -0.160636
v -0.332944 0.203495 -0.160640
v -0.331909 0.202622 -0.160749
v 0.013422 -0.003965 -0.127814
v -0.124541 0.078813 -0.127814
v -0.031851 0.023175 -0.127091
v -0.115791 0.073539 -0.127091
v -0.031899 0.023146 -0.126571
v -0.115840 0.073510 -0.126571
v -0.115928 0.073457 -0.126220
v -0.269086 0.165457 -0.126571
v -0.269175 0.165404 -0.126220
v -0.218624 0.135239 -0.127091
v -0.218673 0.135209 -0.126571
v -0.218761 0.135157 -0.126220
v -0.202868 0.125810 -0.127814
v -0.169914 0.106012 -0.127091
v -0.169962 0.105983 -0.126571
v -0.170051 0.105930 -0.126220
v -0.263939 0.161840 -0.125893
v -0.286350 0.175538 -0.126005
v -0.178062 0.110565 -0.126005
v -0.066584 0.043679 -0.126005
v -0.073522 0.047589 -0.125893
v -0.156875 0.097253 -0.125849
v -0.339206 0.206192 -0.125840
v -0.341195 0.208805 -0.127828
v -0.342137 0.209346 -0.127300
v -0.338082 0.206855 -0.126571
v -0.342047 0.209235 -0.126727
v -0.339912 0.207847 -0.126253
v -0.342614 0.209471 -0.126463
v -0.346696 0.212098 -0.129245
v -0.347762 0.212684 -0.129843
v -0.347701 0.212519 -0.128975
v -0.346809 0.211984 -0.128058
v -0.346498 0.211943 -0.128503
v -0.345539 0.211328 -0.127677
v -0.345733 0.211339 -0.127370
v -0.344214 0.210590 -0.127686
v -0.344334 0.210605 -0.127204
v -0.344490 0.210593 -0.126878
v -0.347608 0.211693 -0.127760
v -0.348611 0.212211 -0.128706
v -0.346527 0.211000 -0.127038
v -0.345207 0.210253 -0.126531
v -0.343778 0.209395 -0.126190
v -0.344907 0.210421 -0.126572
v -0.343482 0.209566 -0.126232
v -0.347149 0.211937 -0.127846
v -0.348068 0.212487 -0.128793
v -0.346047 0.211277 -0.127135
v -0.344674 0.210532 -0.126677
v -0.343259 0.209683 -0.126341
v -0.338308 0.206713 -0.126005
v -0.340641 0.207398 -0.125872
v -0.340272 0.207640 -0.125927
v -0.340059 0.207763 -0.126039
v -0.342224 0.208463 -0.125985
v -0.341930 0.208634 -0.126029
v -0.341713 0.208756 -0.126140
v -0.355500 0.208959 -0.134235
v -0.355945 0.209243 -0.138016
v -0.356318 0.209525 -0.139019
v -0.356166 0.209434 -0.135997
v -0.356516 0.209750 -0.141147
v -0.356486 0.209732 -0.139003
v -0.356327 0.209635 -0.135606
v -0.355111 0.208908 -0.130153
v -0.355208 0.208858 -0.130814
v -0.355633 0.209221 -0.131565
v -0.355121 0.208750 -0.131447
v -0.355849 0.209244 -0.133274
v -0.356007 0.209445 -0.133184
v -0.355495 0.210078 -0.133084
v -0.354957 0.209238 -0.129970
v -0.355498 0.209563 -0.131431
v -0.355884 0.209794 -0.133097
v -0.356142 0.209948 -0.134933
v -0.355098 0.209071 -0.130034
v -0.355633 0.209392 -0.131478
v -0.356015 0.209621 -0.133128
v -0.356270 0.209774 -0.134952
v -0.356400 0.210104 -0.141131
v -0.356529 0.209929 -0.141136
v -0.356058 0.210323 -0.139002
v -0.356374 0.210088 -0.138985
v -0.356501 0.209912 -0.138992
v -0.355985 0.210274 -0.136918
v -0.356296 0.210041 -0.136908
v -0.356424 0.209866 -0.136918
v -0.350288 0.213497 -0.134901
v -0.350390 0.213710 -0.141131
v -0.350098 0.213787 -0.141136
v -0.350040 0.213751 -0.137677
v -0.349840 0.213632 -0.134952
v -0.349732 0.213739 -0.137969
v -0.349542 0.213624 -0.134983
v -0.348783 0.212918 -0.130016
v -0.348396 0.212936 -0.130153
v -0.349922 0.212948 -0.131397
v -0.349319 0.213240 -0.131475
v -0.348918 0.213250 -0.131565
v -0.350050 0.213332 -0.133064
v -0.349585 0.213479 -0.133128
v -0.349292 0.213474 -0.133184
v -0.348846 0.213371 -0.136039
v -0.348504 0.213144 -0.131977
v -0.349078 0.213452 -0.134154
v -0.349436 0.213667 -0.138585
v -0.356206 0.210101 -0.160061
v -0.355785 0.210173 -0.160421
v -0.352815 0.212167 -0.160095
v -0.350708 0.213231 -0.160429
v -0.353396 0.211919 -0.159580
v -0.349093 0.212627 -0.160780
v -0.355055 0.209827 -0.160744
v -0.352749 0.210548 -0.160801
v -0.353057 0.211509 -0.160647
v -0.356569 0.209677 -0.157900
v -0.356612 0.209813 -0.158949
v -0.356440 0.209600 -0.159275
v -0.356332 0.210136 -0.159400
v -0.356191 0.209775 -0.160422
v -0.356542 0.209937 -0.159077
v -0.356441 0.209753 -0.160010
v -0.354604 0.209346 -0.160777
v -0.354924 0.209218 -0.160746
v -0.355076 0.209058 -0.160682
v -0.355374 0.209066 -0.160535
v -0.355765 0.209827 -0.160642
v -0.355615 0.209381 -0.160634
v -0.355198 0.208824 -0.160281
v -0.356248 0.209431 -0.159362
v -0.356024 0.209386 -0.160275
v -0.347808 0.212714 -0.160344
v -0.349109 0.213437 -0.160336
v -0.350024 0.212855 -0.160747
v -0.350017 0.213318 -0.160625
v -0.349191 0.213154 -0.160699
v -0.349975 0.213587 -0.160338
v -0.349372 0.213435 -0.160534
v -0.349980 0.213846 -0.158495
v -0.350521 0.213638 -0.159277
v -0.350356 0.213641 -0.159947
v -0.350049 0.213758 -0.159690
v -0.348751 0.213335 -0.159512
v -0.349732 0.213790 -0.159149
v -0.349619 0.213717 -0.159904
v -0.232524 0.143616 -0.156639
v -0.232520 0.143619 -0.154341
v -0.142822 0.089794 -0.156639
v -0.209828 0.129993 -0.157868
v -0.169879 0.106033 -0.155175
v -0.165266 0.103269 -0.152590
v -0.178117 0.110983 -0.142242
v -0.148413 0.093160 -0.148667
v -0.046997 0.032309 -0.151673
v -0.124972 0.079096 -0.141436
v -0.047009 0.032301 -0.157868
v -0.047005 0.032304 -0.156639
v -0.134207 0.084620 -0.157868
v 0.013438 -0.003954 -0.153508
v -0.077068 0.050348 -0.154341
v -0.115755 0.073560 -0.154341
v 0.341092 -0.204785 -0.160816
v 0.341745 -0.204397 -0.160815
v -0.340267 0.205557 -0.125829
v -0.343381 0.203688 -0.125834
v -0.340890 0.205184 -0.125826
v -0.263087 0.153483 -0.153049
v -0.303315 0.177633 -0.157869
v -0.316153 0.185322 -0.152110
v -0.325640 0.191028 -0.157883
v -0.323294 0.189613 -0.155933
v -0.290250 0.169778 -0.149704
v -0.340870 0.200165 -0.157732
v -0.291556 0.179035 -0.130001
v -0.279536 0.171818 -0.128773
v -0.287894 0.176844 -0.132299
v -0.299011 0.183517 -0.134968
v -0.328145 0.200989 -0.130369
v -0.315522 0.193419 -0.131883
v -0.325395 0.199333 -0.128773
v -0.327668 0.200710 -0.134054
v -0.239572 0.139388 -0.128773
v -0.216876 0.125764 -0.130001
v -0.225652 0.131022 -0.133133
v -0.176930 0.101803 -0.128773
v -0.209913 0.121583 -0.131466
v -0.111716 0.062664 -0.131466
v -0.176941 0.101796 -0.133133
v -0.176943 0.101795 -0.134968
v -0.209919 0.121579 -0.144678
v -0.216885 0.125758 -0.138894
v -0.141263 0.080386 -0.143460
v -0.239585 0.139380 -0.135953
v -0.006358 -0.000558 -0.140214
v -0.103478 0.057714 -0.137974
v -0.141263 0.080386 -0.137974
v -0.085912 0.047176 -0.134968
v -0.103464 0.057723 -0.128773
v -0.090063 0.049677 -0.130001
v -0.093502 0.051733 -0.133133
v -0.286336 0.168065 -0.160748
v -0.284159 0.166336 -0.160420
v -0.315826 0.185507 -0.160636
v -0.321473 0.188725 -0.160421
v -0.335791 0.198086 -0.160792
v -0.325112 0.191331 -0.160748
v -0.303308 0.177637 -0.158828
v -0.325630 0.191030 -0.158837
v -0.290210 0.169802 -0.159549
v -0.325606 0.191040 -0.159556
v -0.312401 0.183175 -0.160071
v -0.333263 0.195691 -0.160079
v -0.342444 0.201118 -0.158951
v -0.335492 0.197136 -0.160427
v -0.341047 0.200892 -0.160750
v -0.335346 0.197220 -0.160638
v -0.194205 0.112786 -0.125893
v -0.119570 0.067754 -0.126005
v -0.209741 0.121685 -0.126220
v -0.147535 0.085132 -0.125849
v -0.216865 0.125770 -0.127814
v -0.239545 0.139404 -0.127091
v -0.167683 0.096286 -0.127091
v -0.209830 0.121632 -0.126571
v -0.064169 0.034153 -0.127814
v -0.064149 0.034165 -0.127091
v -0.112610 0.063300 -0.126571
v -0.112521 0.063353 -0.126220
v -0.141244 0.080398 -0.127814
v -0.003447 -0.001668 -0.125893
v -0.186315 0.115265 -0.160748
v -0.258451 0.158970 -0.160420
v -0.232836 0.143430 -0.160635
v -0.218761 0.135157 -0.160420
v -0.202868 0.125810 -0.158827
v -0.218624 0.135239 -0.159549
v -0.169914 0.106012 -0.159549
v -0.263073 0.161850 -0.160069
v -0.218673 0.135209 -0.160069
v -0.047084 0.032256 -0.160069
v -0.047173 0.032203 -0.160420
v -0.096447 0.061933 -0.159549
v -0.134212 0.084616 -0.158827
v -0.142901 0.089747 -0.160069
v -0.142989 0.089693 -0.160420
v -0.188289 0.116102 -0.160792
v -0.002348 0.004885 -0.160748
v -0.017097 0.013986 -0.160635
v -0.143132 0.089608 -0.160635
v -0.338821 0.206421 -0.125849
v -0.338530 0.206594 -0.125893
v -0.277285 0.170460 -0.127814
v -0.283318 0.174055 -0.127091
v -0.338215 0.206993 -0.127106
v -0.325945 0.199631 -0.127091
v -0.326847 0.200114 -0.126571
v -0.338171 0.206802 -0.126220
v -0.323366 0.198108 -0.127814
f 357 1 123
f 1 357 2
f 1 2 3
f 4 3 2
f 115 5 12
f 6 10 392
f 10 6 7
f 9 8 392
f 9 392 10
f 7 12 10
f 10 5 9
f 5 10 12
f 12 411 11
f 11 429 12
f 411 12 7
f 46 12 429
f 412 16 15
f 421 216 23
f 226 20 216
f 20 23 216
f 121 20 21
f 20 226 21
f 20 121 96
f 20 96 22
f 22 23 20
f 24 37 25
f 26 25 37
f 25 26 27
f 29 28 27
f 28 29 30
f 31 30 29
f 32 420 419
f 419 26 32
f 26 419 35
f 33 29 35
f 34 36 29
f 29 33 34
f 37 32 26
f 35 27 26
f 27 35 29
f 36 31 29
f 442 39 110
f 39 442 40
f 442 38 40
f 41 40 38
f 36 34 39
f 39 40 36
f 31 36 40
f 40 41 31
f 439 949 42
f 42 38 439
f 43 41 38
f 38 42 43
f 30 31 41
f 41 43 30
f 427 274 426
f 45 426 274
f 44 45 339
f 44 46 45
f 426 45 46
f 47 15 16
f 15 47 48
f 184 48 47
f 49 918 48
f 48 184 49
f 49 917 918
f 184 50 356
f 356 49 184
f 54 51 52
f 51 54 356
f 49 356 54
f 14 49 53
f 49 14 917
f 13 54 52
f 52 204 13
f 54 13 53
f 54 53 49
f 55 418 416
f 55 19 418
f 55 417 19
f 58 18 417
f 417 55 58
f 65 58 55
f 55 56 65
f 63 65 56
f 56 57 63
f 59 143 61
f 144 60 145
f 57 145 60
f 60 63 57
f 290 62 60
f 63 60 62
f 61 284 59
f 144 59 284
f 284 290 144
f 60 144 290
f 415 58 64
f 64 263 415
f 58 415 17
f 58 17 413
f 58 413 18
f 65 64 58
f 73 66 74
f 71 74 66
f 66 67 71
f 61 70 346
f 68 346 70
f 69 71 67
f 70 314 68
f 69 68 314
f 314 316 69
f 71 69 316
f 70 61 143
f 4 73 72
f 72 3 4
f 74 72 73
f 406 75 76
f 77 76 75
f 587 77 75
f 76 407 406
f 78 80 598
f 80 78 79
f 79 81 80
f 87 82 81
f 81 79 87
f 80 83 599
f 599 598 80
f 81 84 83
f 83 80 81
f 84 81 82
f 83 85 600
f 600 599 83
f 85 83 84
f 84 93 85
f 587 600 85
f 85 77 587
f 77 85 93
f 86 87 88
f 88 89 86
f 91 89 90
f 87 86 82
f 92 82 86
f 86 89 92
f 93 92 89
f 89 91 93
f 93 91 77
f 82 92 84
f 93 84 92
f 407 76 94
f 76 77 95
f 95 94 76
f 95 91 90
f 95 77 91
f 96 121 299
f 303 96 299
f 22 96 100
f 96 134 100
f 303 134 96
f 97 98 100
f 98 101 100
f 99 97 100
f 22 100 101
f 111 101 102
f 103 104 97
f 98 97 104
f 104 105 98
f 102 98 105
f 101 98 102
f 431 107 105
f 108 105 107
f 108 109 102
f 104 103 106
f 106 431 104
f 105 104 431
f 105 108 102
f 109 110 111
f 102 109 111
f 44 112 46
f 171 113 112
f 113 46 112
f 115 113 114
f 113 115 46
f 12 46 115
f 116 118 359
f 118 116 119
f 120 119 116
f 116 117 120
f 21 359 121
f 118 121 359
f 121 118 132
f 119 132 118
f 119 120 122
f 1 124 123
f 125 123 124
f 124 128 125
f 125 130 126
f 130 125 128
f 130 120 117
f 117 126 130
f 130 122 120
f 127 1 3
f 1 127 124
f 128 124 127
f 128 129 130
f 122 130 129
f 129 300 122
f 299 132 131
f 132 299 121
f 133 131 132
f 132 119 133
f 133 122 300
f 122 133 119
f 136 138 135
f 135 137 136
f 100 134 140
f 138 140 134
f 134 135 138
f 138 136 139
f 140 99 100
f 142 140 138
f 141 142 138
f 138 139 141
f 99 140 160
f 142 141 159
f 59 147 143
f 144 148 147
f 147 59 144
f 148 144 145
f 57 146 145
f 137 143 147
f 145 149 148
f 146 150 149
f 149 145 146
f 147 136 137
f 148 139 136
f 136 147 148
f 149 141 139
f 139 148 149
f 150 159 141
f 141 149 150
f 416 463 55
f 154 55 463
f 463 151 154
f 155 154 151
f 151 152 155
f 156 155 152
f 152 153 156
f 157 56 55
f 55 154 157
f 158 157 154
f 154 155 158
f 159 158 155
f 155 156 159
f 146 57 56
f 56 157 146
f 150 146 157
f 157 158 150
f 159 150 158
f 99 161 162
f 161 99 160
f 161 164 163
f 163 162 161
f 164 161 160
f 140 142 164
f 164 160 140
f 153 163 164
f 164 156 153
f 164 159 156
f 159 164 142
f 166 380 167
f 168 2 357
f 168 165 169
f 170 169 165
f 165 166 170
f 167 170 166
f 170 167 178
f 112 179 171
f 172 171 179
f 172 174 173
f 173 167 380
f 167 173 174
f 174 178 167
f 335 112 44
f 112 335 179
f 175 179 335
f 176 177 178
f 179 175 172
f 174 172 175
f 175 176 174
f 178 174 176
f 2 168 322
f 322 169 180
f 169 322 168
f 169 170 181
f 181 180 169
f 170 178 177
f 177 181 170
f 192 114 373
f 373 374 192
f 194 192 374
f 374 182 194
f 190 194 182
f 182 183 190
f 185 189 388
f 183 388 189
f 189 190 183
f 186 244 187
f 188 187 244
f 244 238 188
f 241 47 16
f 241 186 185
f 189 185 186
f 186 187 189
f 190 189 187
f 187 188 190
f 47 241 184
f 185 184 241
f 115 114 234
f 234 191 236
f 114 192 191
f 191 234 114
f 191 193 237
f 237 236 191
f 193 191 192
f 192 194 193
f 193 188 238
f 238 237 193
f 194 190 188
f 188 193 194
f 196 197 199
f 200 199 197
f 197 699 200
f 195 37 24
f 195 196 198
f 199 198 196
f 195 198 201
f 213 201 198
f 198 199 213
f 202 213 199
f 199 200 202
f 706 210 203
f 210 706 204
f 205 203 210
f 205 207 206
f 206 200 699
f 200 206 207
f 207 202 200
f 210 208 205
f 209 205 208
f 209 211 202
f 205 209 207
f 202 207 209
f 32 212 457
f 457 420 32
f 37 195 212
f 212 32 37
f 458 457 212
f 212 201 458
f 201 212 195
f 201 213 461
f 461 458 201
f 211 461 213
f 213 202 211
f 421 454 216
f 214 216 454
f 456 452 215
f 214 456 217
f 215 217 456
f 217 215 218
f 216 214 219
f 217 219 214
f 52 221 220
f 220 204 52
f 221 225 450
f 450 220 221
f 451 450 225
f 225 222 451
f 451 215 452
f 451 218 215
f 218 451 222
f 224 52 51
f 224 223 225
f 222 225 223
f 223 367 222
f 362 222 367
f 52 224 221
f 225 221 224
f 222 362 218
f 216 219 226
f 226 227 361
f 227 226 219
f 219 217 227
f 362 361 227
f 227 218 362
f 218 227 217
f 99 103 97
f 103 99 231
f 162 231 99
f 463 465 151
f 228 151 465
f 151 228 152
f 229 152 228
f 152 229 153
f 106 231 230
f 231 106 103
f 232 230 231
f 231 162 232
f 162 163 233
f 233 232 162
f 163 153 229
f 229 233 163
f 234 5 115
f 5 234 235
f 236 235 234
f 235 236 256
f 239 256 236
f 236 237 239
f 240 239 237
f 237 238 240
f 235 9 5
f 16 242 241
f 241 243 186
f 243 241 242
f 242 251 243
f 244 186 243
f 243 245 244
f 245 243 251
f 245 240 238
f 238 244 245
f 480 246 249
f 250 249 246
f 247 16 412
f 247 480 248
f 249 248 480
f 16 247 242
f 251 242 247
f 247 248 251
f 252 251 248
f 248 249 252
f 253 252 249
f 249 250 253
f 251 252 245
f 240 245 252
f 252 253 240
f 9 235 254
f 254 8 9
f 235 256 255
f 255 254 235
f 255 257 491
f 257 255 256
f 256 239 257
f 250 491 257
f 257 253 250
f 239 240 253
f 253 257 239
f 259 79 78
f 78 755 259
f 260 259 755
f 755 757 260
f 272 260 757
f 757 759 272
f 258 272 759
f 272 258 261
f 259 87 79
f 259 260 270
f 272 270 260
f 272 261 269
f 262 777 263
f 262 264 775
f 775 265 774
f 265 775 264
f 264 266 265
f 258 774 265
f 265 261 258
f 266 269 261
f 261 265 266
f 263 495 262
f 267 262 495
f 268 493 269
f 262 267 264
f 266 264 267
f 267 268 266
f 269 266 268
f 499 88 87
f 87 259 499
f 499 270 271
f 270 499 259
f 501 271 270
f 270 272 501
f 501 269 493
f 269 501 272
f 427 496 274
f 273 274 496
f 496 497 273
f 498 273 497
f 498 494 275
f 273 498 276
f 275 276 498
f 45 274 295
f 273 295 274
f 276 275 277
f 495 263 64
f 278 495 64
f 65 279 64
f 63 280 279
f 279 65 63
f 64 282 281
f 281 278 64
f 282 64 279
f 280 283 282
f 282 279 280
f 282 275 494
f 494 281 282
f 283 277 275
f 275 282 283
f 61 285 284
f 286 284 285
f 285 287 286
f 288 286 287
f 287 289 288
f 284 286 290
f 291 290 286
f 292 291 286
f 286 288 292
f 293 62 290
f 290 291 293
f 294 293 291
f 291 292 294
f 280 63 62
f 283 280 62
f 62 293 283
f 277 283 293
f 293 294 277
f 295 339 45
f 296 339 295
f 295 297 296
f 295 298 297
f 273 276 298
f 298 295 273
f 297 288 289
f 289 296 297
f 297 292 288
f 298 294 292
f 292 297 298
f 276 277 294
f 294 298 276
f 131 133 301
f 300 301 133
f 131 303 299
f 301 300 302
f 131 301 305
f 304 305 301
f 301 302 304
f 305 304 318
f 127 3 72
f 71 306 74
f 127 307 128
f 307 127 72
f 74 308 72
f 308 74 306
f 307 309 129
f 129 128 307
f 309 307 72
f 308 310 309
f 309 72 308
f 306 311 310
f 310 308 306
f 300 129 309
f 309 302 300
f 310 304 302
f 302 309 310
f 311 318 304
f 304 310 311
f 312 70 143
f 313 312 143
f 143 137 313
f 70 312 314
f 315 314 312
f 312 313 315
f 317 316 314
f 314 315 317
f 318 317 315
f 306 71 316
f 311 306 316
f 316 317 311
f 318 311 317
f 134 319 135
f 319 134 303
f 303 131 319
f 319 320 135
f 319 321 320
f 131 305 321
f 321 319 131
f 320 313 137
f 137 135 320
f 320 315 313
f 321 318 315
f 315 320 321
f 318 321 305
f 322 4 2
f 322 180 323
f 324 323 180
f 180 181 324
f 325 324 181
f 181 177 325
f 326 73 4
f 4 322 326
f 327 326 322
f 322 323 327
f 328 327 323
f 323 324 328
f 325 328 324
f 73 326 66
f 329 66 326
f 326 327 329
f 330 329 327
f 327 328 330
f 331 330 328
f 328 325 331
f 332 67 66
f 66 329 332
f 333 332 329
f 329 330 333
f 334 333 330
f 330 331 334
f 335 336 175
f 336 335 341
f 336 337 176
f 176 175 336
f 336 338 337
f 338 336 341
f 337 325 177
f 177 176 337
f 338 331 325
f 325 337 338
f 338 334 331
f 339 296 342
f 340 342 296
f 296 289 340
f 341 44 339
f 342 341 339
f 343 342 340
f 344 341 342
f 345 344 342
f 342 343 345
f 341 335 44
f 341 344 338
f 334 338 344
f 344 345 334
f 285 61 346
f 68 347 346
f 69 348 347
f 347 68 69
f 67 332 348
f 348 69 67
f 346 349 287
f 287 285 346
f 347 350 349
f 349 346 347
f 348 351 350
f 350 347 348
f 332 333 351
f 351 348 332
f 349 340 289
f 289 287 349
f 350 343 340
f 340 349 350
f 351 345 343
f 343 350 351
f 333 334 345
f 345 351 333
f 371 366 352
f 369 357 123
f 369 371 358
f 352 358 371
f 357 369 384
f 358 384 369
f 356 389 353
f 353 51 356
f 354 353 389
f 354 352 366
f 389 356 50
f 389 355 354
f 352 354 355
f 360 116 359
f 364 360 359
f 359 21 364
f 360 117 116
f 360 364 372
f 363 361 362
f 21 226 361
f 363 364 21
f 21 361 363
f 353 224 51
f 353 354 365
f 366 365 354
f 353 223 224
f 223 353 367
f 365 367 353
f 365 366 372
f 363 362 367
f 367 365 363
f 364 363 365
f 365 372 364
f 368 123 125
f 126 370 368
f 368 125 126
f 117 360 370
f 370 126 117
f 369 123 368
f 369 368 370
f 360 372 370
f 370 372 371
f 371 369 370
f 366 371 372
f 114 113 373
f 373 113 374
f 377 374 113
f 375 182 374
f 376 375 374
f 377 376 374
f 182 375 183
f 378 183 375
f 379 171 172
f 173 381 379
f 379 172 173
f 381 173 380
f 377 379 381
f 380 382 381
f 379 113 171
f 113 379 377
f 377 381 382
f 382 376 377
f 383 168 357
f 384 383 357
f 384 358 385
f 386 385 358
f 358 352 386
f 383 165 168
f 387 166 165
f 165 383 387
f 383 384 387
f 385 387 384
f 385 386 391
f 166 387 380
f 382 380 387
f 387 385 382
f 376 382 385
f 385 391 376
f 185 388 50
f 50 184 185
f 388 390 389
f 389 50 388
f 388 378 390
f 378 388 183
f 355 389 390
f 378 391 390
f 378 375 391
f 355 386 352
f 386 355 390
f 386 390 391
f 375 376 391
f 393 392 8
f 8 394 393
f 395 393 394
f 398 6 392
f 396 398 392
f 392 393 396
f 397 396 393
f 393 395 397
f 398 396 399
f 396 397 399
f 6 398 7
f 400 7 398
f 398 399 400
f 912 401 394
f 394 911 912
f 402 397 401
f 401 912 402
f 397 402 914
f 909 403 914
f 914 404 397
f 404 914 403
f 401 395 394
f 395 401 397
f 403 400 404
f 404 399 397
f 399 404 400
f 405 408 406
f 409 405 406
f 406 407 409
f 408 405 410
f 405 409 410
f 403 909 408
f 408 410 403
f 400 403 410
f 11 411 94
f 411 409 407
f 407 94 411
f 7 400 411
f 411 410 409
f 410 411 400
f 204 706 13
f 921 413 17
f 413 921 18
f 263 777 414
f 414 415 263
f 415 414 17
f 418 920 523
f 523 416 418
f 920 418 524
f 19 524 418
f 524 19 417
f 421 419 420
f 422 35 419
f 419 421 422
f 422 33 35
f 423 34 33
f 33 422 423
f 23 423 422
f 23 422 421
f 22 101 23
f 423 23 101
f 101 111 423
f 34 423 39
f 39 423 110
f 111 110 423
f 424 89 88
f 88 428 424
f 425 90 89
f 89 424 425
f 426 425 424
f 427 424 428
f 424 427 426
f 429 426 46
f 430 426 429
f 11 94 95
f 430 11 95
f 430 95 90
f 429 11 430
f 90 425 430
f 425 426 430
f 432 431 106
f 106 433 432
f 431 432 107
f 438 108 107
f 442 109 108
f 443 442 108
f 108 438 443
f 942 437 954
f 437 942 434
f 954 432 435
f 432 954 437
f 952 436 434
f 433 435 432
f 434 438 437
f 438 434 436
f 437 107 432
f 107 437 438
f 439 38 443
f 441 440 949
f 949 439 441
f 443 441 439
f 436 952 440
f 440 441 436
f 438 436 441
f 443 438 441
f 442 110 109
f 442 443 38
f 444 210 204
f 445 208 210
f 446 445 210
f 210 444 446
f 447 209 208
f 208 445 447
f 453 447 445
f 445 446 453
f 448 211 209
f 209 447 448
f 449 448 447
f 447 453 449
f 451 453 450
f 453 451 452
f 220 444 204
f 450 446 444
f 444 220 450
f 446 450 453
f 452 449 453
f 459 454 421
f 455 214 454
f 460 455 454
f 454 459 460
f 214 455 456
f 462 456 455
f 455 460 462
f 449 452 456
f 456 462 449
f 211 448 461
f 457 459 420
f 458 460 459
f 459 457 458
f 460 458 461
f 461 462 460
f 462 461 448
f 421 420 459
f 448 449 462
f 464 463 416
f 463 464 465
f 466 228 465
f 467 229 228
f 228 466 467
f 468 467 466
f 975 464 523
f 464 975 985
f 416 523 464
f 470 471 469
f 985 465 464
f 469 466 465
f 465 985 469
f 471 468 466
f 466 469 471
f 435 433 472
f 473 472 433
f 478 474 472
f 472 473 478
f 479 475 474
f 474 478 479
f 471 470 475
f 475 479 471
f 468 471 479
f 229 467 233
f 232 476 230
f 233 477 476
f 476 232 233
f 467 468 477
f 477 233 467
f 230 473 433
f 433 106 230
f 476 478 473
f 473 230 476
f 477 479 478
f 478 476 477
f 479 477 468
f 484 247 412
f 247 484 480
f 481 480 484
f 482 246 480
f 480 481 482
f 483 250 246
f 246 482 483
f 996 486 1003
f 1003 485 1002
f 485 1003 486
f 1002 481 484
f 481 1002 485
f 485 482 481
f 486 483 482
f 482 485 486
f 911 394 487
f 492 487 394
f 487 492 488
f 489 488 492
f 490 995 488
f 488 489 490
f 486 996 995
f 995 490 486
f 483 486 490
f 255 489 254
f 489 255 491
f 250 483 491
f 254 492 394
f 394 8 254
f 492 254 489
f 491 490 489
f 490 491 483
f 278 267 495
f 281 268 267
f 267 278 281
f 268 281 493
f 494 493 281
f 427 428 496
f 500 496 428
f 496 500 497
f 499 500 88
f 500 499 271
f 493 494 501
f 428 88 500
f 271 497 500
f 501 498 497
f 497 271 501
f 498 501 494
f 502 504 503
f 504 575 507
f 504 627 575
f 665 506 505
f 506 665 507
f 507 575 506
f 503 504 507
f 665 503 507
f 517 515 508
f 511 517 508
f 508 616 511
f 515 517 513
f 510 509 590
f 511 512 509
f 509 510 511
f 513 514 515
f 513 517 516
f 517 511 516
f 510 516 511
f 553 48 519
f 520 519 48
f 48 918 520
f 917 520 918
f 706 521 13
f 521 706 558
f 521 522 53
f 53 13 521
f 14 53 522
f 527 526 928
f 607 530 527
f 530 526 527
f 530 528 529
f 530 529 526
f 25 27 531
f 28 531 27
f 24 25 545
f 531 545 25
f 545 532 24
f 545 531 535
f 533 535 531
f 531 28 533
f 534 533 28
f 28 30 534
f 535 533 547
f 542 547 533
f 533 534 542
f 947 537 536
f 43 42 536
f 537 534 43
f 43 536 537
f 537 542 534
f 30 43 534
f 538 927 541
f 927 922 541
f 540 945 538
f 541 540 538
f 540 541 542
f 946 945 947
f 537 947 945
f 945 540 537
f 542 537 540
f 544 545 543
f 545 544 532
f 546 543 545
f 545 535 546
f 546 547 922
f 547 546 535
f 547 542 541
f 541 922 547
f 933 549 935
f 933 548 549
f 548 509 512
f 616 550 548
f 552 548 550
f 552 551 549
f 548 552 549
f 553 519 554
f 519 520 554
f 555 554 520
f 520 917 555
f 518 553 556
f 554 556 553
f 554 555 557
f 556 554 557
f 558 561 521
f 559 560 561
f 561 558 559
f 522 521 561
f 522 555 14
f 555 522 561
f 917 14 555
f 561 557 555
f 560 869 562
f 561 560 562
f 560 559 724
f 561 562 557
f 867 557 562
f 523 920 564
f 920 524 564
f 565 564 524
f 524 563 565
f 563 525 565
f 568 566 564
f 564 565 568
f 569 567 566
f 566 568 569
f 414 777 807
f 919 414 807
f 921 919 807
f 807 565 525
f 525 921 807
f 565 807 568
f 795 573 570
f 574 796 570
f 796 574 571
f 654 570 573
f 657 574 570
f 570 654 657
f 574 657 572
f 572 571 574
f 567 569 571
f 571 572 567
f 505 506 576
f 577 576 506
f 506 575 577
f 579 578 576
f 576 577 579
f 580 843 578
f 578 579 580
f 575 627 837
f 837 577 575
f 840 579 577
f 577 837 840
f 581 580 579
f 579 840 581
f 580 581 826
f 583 584 573
f 573 795 583
f 584 583 852
f 843 580 855
f 852 582 584
f 855 826 582
f 582 852 855
f 826 855 580
f 585 75 406
f 910 585 406
f 585 910 586
f 75 585 587
f 588 587 585
f 585 586 588
f 586 589 588
f 589 907 590
f 907 589 586
f 910 907 586
f 591 929 930
f 930 592 591
f 593 591 592
f 592 601 593
f 594 931 929
f 929 591 594
f 595 594 591
f 591 593 595
f 931 594 596
f 597 596 594
f 594 595 597
f 596 597 588
f 587 588 600
f 601 78 598
f 598 593 601
f 599 595 593
f 593 598 599
f 600 597 595
f 595 599 600
f 597 600 588
f 528 530 602
f 602 605 528
f 607 602 530
f 603 614 725
f 614 603 604
f 604 603 602
f 602 607 604
f 602 635 605
f 603 635 602
f 607 609 604
f 609 539 608
f 615 604 609
f 609 608 615
f 609 607 606
f 610 612 611
f 614 613 611
f 604 615 613
f 613 614 604
f 614 611 612
f 612 725 614
f 512 511 616
f 512 616 548
f 508 617 616
f 898 617 684
f 508 684 617
f 616 617 550
f 619 618 529
f 529 528 619
f 620 871 618
f 618 619 620
f 625 620 619
f 621 872 871
f 871 620 621
f 626 621 620
f 620 625 626
f 623 625 622
f 625 623 624
f 624 626 625
f 622 619 528
f 619 622 625
f 627 504 628
f 627 628 629
f 631 630 629
f 626 624 630
f 630 631 626
f 872 621 633
f 628 502 632
f 504 502 628
f 633 631 632
f 631 633 621
f 632 629 628
f 629 632 631
f 621 626 631
f 635 603 637
f 634 635 636
f 637 636 635
f 638 639 634
f 634 636 638
f 640 638 636
f 641 640 636
f 636 637 641
f 642 641 637
f 637 647 642
f 644 645 643
f 726 646 645
f 645 644 726
f 643 648 725
f 645 647 648
f 648 643 645
f 646 649 647
f 647 645 646
f 603 725 648
f 648 637 603
f 637 648 647
f 649 642 647
f 650 732 523
f 523 564 650
f 566 650 564
f 650 735 732
f 651 736 735
f 735 650 651
f 652 651 650
f 650 566 652
f 653 652 566
f 566 567 653
f 646 726 736
f 649 646 736
f 736 651 649
f 651 652 649
f 642 649 652
f 652 653 642
f 654 573 655
f 655 656 654
f 639 638 656
f 656 655 639
f 656 658 657
f 657 654 656
f 638 640 658
f 658 656 638
f 658 659 572
f 572 657 658
f 640 641 659
f 659 658 640
f 659 653 567
f 567 572 659
f 641 642 653
f 653 659 641
f 665 660 503
f 660 665 661
f 660 661 662
f 663 894 662
f 664 667 666
f 665 505 661
f 666 662 661
f 667 663 662
f 662 666 667
f 673 668 550
f 674 669 668
f 668 673 674
f 670 861 669
f 669 674 670
f 675 670 674
f 667 664 861
f 861 670 667
f 663 667 670
f 670 675 663
f 894 663 675
f 675 672 894
f 671 673 617
f 672 674 673
f 673 671 672
f 674 672 675
f 550 617 673
f 682 676 684
f 677 887 676
f 676 682 677
f 887 677 678
f 679 678 677
f 681 685 738
f 685 681 683
f 738 682 680
f 682 738 685
f 680 684 508
f 684 680 682
f 683 679 685
f 685 677 682
f 677 685 679
f 687 686 518
f 518 556 687
f 556 557 687
f 867 687 557
f 688 754 686
f 686 687 688
f 692 688 687
f 687 867 692
f 689 753 754
f 754 688 689
f 691 689 688
f 688 692 691
f 753 689 683
f 679 683 689
f 689 691 679
f 690 692 867
f 690 691 692
f 691 690 678
f 678 679 691
f 693 195 24
f 694 693 24
f 24 532 694
f 195 693 196
f 695 196 693
f 693 694 695
f 696 695 694
f 697 197 196
f 196 695 697
f 698 697 695
f 695 696 698
f 197 697 699
f 700 699 697
f 697 698 700
f 964 702 703
f 702 964 701
f 701 698 702
f 957 700 698
f 698 701 957
f 702 696 703
f 696 702 698
f 703 694 532
f 532 544 703
f 694 703 696
f 203 704 706
f 707 956 704
f 704 203 707
f 708 705 956
f 956 707 708
f 700 957 705
f 705 708 700
f 205 707 203
f 206 708 707
f 707 205 206
f 708 206 699
f 699 700 708
f 709 968 928
f 928 526 709
f 968 709 710
f 718 710 709
f 712 711 710
f 710 718 712
f 714 713 711
f 711 712 714
f 716 718 715
f 716 712 718
f 717 714 712
f 712 716 717
f 715 709 526
f 709 715 718
f 560 724 878
f 720 719 878
f 878 724 720
f 722 721 719
f 719 720 722
f 714 717 721
f 721 722 714
f 960 724 559
f 559 558 960
f 970 720 724
f 724 960 970
f 720 970 723
f 713 714 723
f 723 722 720
f 722 723 714
f 725 612 731
f 725 731 643
f 730 643 731
f 643 730 644
f 727 731 612
f 612 610 727
f 731 727 730
f 728 644 730
f 644 728 729
f 729 726 644
f 735 733 732
f 736 734 733
f 733 735 736
f 726 729 734
f 734 736 726
f 508 515 680
f 737 680 515
f 739 738 680
f 680 737 739
f 740 739 737
f 738 739 681
f 741 681 739
f 739 740 741
f 747 741 740
f 742 683 681
f 681 741 742
f 743 742 741
f 741 747 743
f 987 745 993
f 993 747 746
f 747 993 745
f 744 737 515
f 515 514 744
f 737 744 746
f 746 740 737
f 740 746 747
f 745 743 747
f 686 1001 518
f 748 986 1001
f 749 748 1001
f 1001 686 749
f 986 748 750
f 751 750 748
f 752 751 748
f 748 749 752
f 745 987 750
f 750 751 745
f 743 745 751
f 751 752 743
f 683 742 753
f 754 749 686
f 753 752 749
f 749 754 753
f 742 743 752
f 752 753 742
f 756 755 78
f 78 601 756
f 755 756 757
f 758 757 756
f 768 758 756
f 760 759 757
f 757 758 760
f 769 760 758
f 758 768 769
f 761 258 759
f 759 760 761
f 770 761 760
f 760 769 770
f 592 930 1007
f 1007 767 592
f 1008 764 767
f 767 1007 1008
f 762 765 764
f 764 1008 762
f 763 766 765
f 765 762 763
f 764 768 767
f 765 769 768
f 768 764 765
f 766 770 769
f 769 765 766
f 767 756 601
f 601 592 767
f 756 767 768
f 775 771 776
f 773 772 771
f 771 775 773
f 766 763 772
f 772 773 766
f 770 766 773
f 262 776 777
f 776 262 775
f 258 761 774
f 774 773 775
f 761 770 773
f 773 774 761
f 935 549 778
f 779 1009 778
f 780 1011 1009
f 781 780 1009
f 1009 779 781
f 1011 780 1012
f 782 1012 780
f 780 781 782
f 783 782 781
f 785 788 784
f 786 787 788
f 788 785 786
f 787 790 789
f 789 788 787
f 788 791 784
f 789 792 791
f 791 788 789
f 790 793 792
f 792 789 790
f 784 778 549
f 549 551 784
f 791 779 778
f 778 784 791
f 792 781 779
f 779 791 792
f 793 783 781
f 781 792 793
f 795 570 794
f 796 794 570
f 796 571 797
f 798 797 571
f 571 569 798
f 801 802 795
f 795 794 801
f 803 801 794
f 794 796 803
f 799 803 796
f 796 797 799
f 800 799 797
f 797 798 800
f 803 799 804
f 805 804 799
f 799 800 805
f 787 786 802
f 802 801 787
f 790 787 801
f 801 803 790
f 793 790 803
f 803 804 793
f 783 793 804
f 804 805 783
f 807 777 1005
f 1006 808 807
f 807 1005 1006
f 806 809 808
f 808 1006 806
f 1012 782 809
f 809 806 1012
f 807 810 568
f 808 811 810
f 810 807 808
f 809 812 811
f 811 808 809
f 782 783 812
f 812 809 782
f 810 798 569
f 569 568 810
f 811 800 798
f 798 810 811
f 812 805 800
f 800 811 812
f 805 812 783
f 528 605 813
f 814 622 528
f 528 813 814
f 815 623 622
f 622 814 815
f 816 815 814
f 814 813 816
f 817 624 623
f 818 817 623
f 623 815 818
f 819 818 815
f 815 816 819
f 634 823 635
f 634 821 823
f 639 820 821
f 821 634 639
f 605 635 823
f 820 822 821
f 821 824 823
f 822 825 824
f 824 821 822
f 813 605 823
f 824 816 813
f 813 823 824
f 825 819 816
f 816 824 825
f 827 655 573
f 573 584 827
f 828 827 584
f 584 582 828
f 829 828 582
f 582 826 829
f 830 829 826
f 826 581 830
f 655 827 831
f 832 831 827
f 827 828 832
f 833 832 828
f 828 829 833
f 834 833 829
f 829 830 834
f 820 639 655
f 655 831 820
f 822 820 831
f 831 832 822
f 825 822 832
f 832 833 825
f 819 825 833
f 833 834 819
f 629 835 627
f 630 836 835
f 835 629 630
f 624 817 836
f 836 630 624
f 835 838 837
f 837 627 835
f 836 839 838
f 838 835 836
f 817 818 839
f 839 836 817
f 838 841 840
f 840 837 838
f 839 842 841
f 841 838 839
f 818 819 842
f 842 839 818
f 841 830 581
f 581 840 841
f 842 834 830
f 830 841 842
f 834 842 819
f 844 661 505
f 576 844 505
f 845 666 661
f 661 844 845
f 846 845 844
f 844 576 846
f 576 578 846
f 847 846 578
f 578 843 847
f 666 845 664
f 848 664 845
f 845 846 848
f 849 848 846
f 846 847 849
f 802 850 583
f 583 795 802
f 786 851 850
f 850 802 786
f 850 853 852
f 852 583 850
f 851 854 853
f 853 850 851
f 855 852 853
f 853 856 855
f 854 857 856
f 856 853 854
f 856 847 843
f 843 855 856
f 857 849 847
f 847 856 857
f 668 551 552
f 785 784 551
f 859 785 551
f 551 668 859
f 858 859 668
f 859 858 860
f 851 786 785
f 854 851 785
f 785 859 854
f 857 854 859
f 859 860 857
f 849 857 860
f 664 848 861
f 669 858 668
f 858 669 861
f 552 550 668
f 861 860 858
f 848 849 860
f 860 861 848
f 502 503 866
f 864 862 866
f 862 864 863
f 865 863 864
f 503 895 866
f 867 562 889
f 562 869 889
f 870 890 889
f 890 870 865
f 882 870 868
f 863 865 870
f 870 882 863
f 868 889 869
f 889 868 870
f 529 618 885
f 871 885 618
f 885 871 873
f 872 873 871
f 885 715 529
f 873 872 877
f 885 873 886
f 877 886 873
f 874 502 866
f 874 866 862
f 632 502 874
f 863 875 862
f 874 876 633
f 633 632 874
f 862 877 876
f 876 874 862
f 877 862 875
f 872 633 876
f 872 876 877
f 878 869 560
f 878 719 879
f 880 879 719
f 719 721 880
f 881 880 721
f 721 717 881
f 869 878 868
f 882 868 878
f 878 879 882
f 883 882 879
f 879 880 883
f 881 883 880
f 882 883 875
f 886 875 883
f 883 881 886
f 875 863 882
f 875 886 877
f 715 526 529
f 715 884 716
f 715 885 884
f 885 886 884
f 884 881 717
f 717 716 884
f 881 884 886
f 887 898 684
f 684 676 887
f 888 898 887
f 887 678 888
f 888 893 900
f 867 891 690
f 891 867 889
f 891 889 890
f 865 892 890
f 893 891 890
f 893 890 892
f 678 690 891
f 893 888 678
f 678 891 893
f 892 900 893
f 503 660 895
f 894 895 660
f 660 662 894
f 897 896 895
f 895 894 897
f 899 897 894
f 896 864 866
f 866 895 896
f 897 899 900
f 864 896 865
f 892 865 896
f 896 897 892
f 900 892 897
f 671 617 898
f 671 899 672
f 898 900 899
f 899 671 898
f 898 888 900
f 894 672 899
f 901 904 514
f 514 513 901
f 902 901 513
f 513 516 902
f 510 902 516
f 904 901 903
f 905 903 901
f 901 902 905
f 906 905 902
f 902 510 906
f 903 913 904
f 907 908 590
f 590 908 510
f 908 906 510
f 406 408 908
f 909 908 408
f 908 910 406
f 908 909 906
f 908 907 910
f 913 903 912
f 912 911 913
f 912 915 402
f 903 916 915
f 915 912 903
f 903 905 916
f 914 402 915
f 905 906 916
f 909 914 915
f 916 906 909
f 909 915 916
f 518 15 553
f 15 518 412
f 48 553 15
f 524 417 563
f 18 563 417
f 563 18 525
f 414 919 17
f 921 17 919
f 921 525 18
f 543 923 544
f 543 546 926
f 924 926 546
f 546 922 924
f 926 925 923
f 923 543 926
f 606 527 926
f 926 924 606
f 927 538 539
f 927 539 609
f 609 924 927
f 924 609 606
f 927 924 922
f 527 606 607
f 926 928 925
f 527 928 926
f 932 931 596
f 596 588 932
f 929 935 930
f 929 931 934
f 935 929 933
f 934 933 929
f 932 934 931
f 934 932 936
f 589 590 509
f 589 932 588
f 589 936 932
f 509 548 936
f 936 589 509
f 933 936 548
f 936 933 934
f 938 937 610
f 610 611 938
f 613 938 611
f 938 613 941
f 939 941 613
f 613 615 939
f 948 939 615
f 938 940 937
f 941 939 943
f 944 943 939
f 939 948 944
f 940 938 954
f 942 954 938
f 938 941 942
f 943 942 941
f 538 946 608
f 608 539 538
f 946 538 945
f 946 948 608
f 947 951 946
f 615 608 948
f 946 944 948
f 944 946 951
f 42 949 536
f 950 536 949
f 440 950 949
f 951 947 536
f 536 950 951
f 952 950 440
f 944 951 950
f 950 952 944
f 954 435 953
f 954 953 940
f 942 955 434
f 942 943 955
f 952 434 955
f 943 944 952
f 952 955 943
f 704 558 706
f 956 705 958
f 957 958 705
f 704 956 961
f 958 961 956
f 958 957 959
f 558 704 960
f 961 960 704
f 961 958 971
f 969 971 958
f 958 959 969
f 923 962 703
f 703 544 923
f 925 963 962
f 962 923 925
f 964 703 962
f 963 965 964
f 964 962 963
f 964 966 701
f 966 964 965
f 965 967 966
f 957 701 966
f 966 959 957
f 967 969 959
f 959 966 967
f 710 711 967
f 969 967 711
f 711 713 969
f 963 925 928
f 928 968 963
f 965 963 968
f 968 710 965
f 967 965 710
f 960 961 970
f 970 971 723
f 971 970 961
f 971 969 713
f 713 723 971
f 523 732 975
f 972 975 732
f 732 733 972
f 734 972 733
f 972 734 973
f 974 973 734
f 734 729 974
f 973 974 983
f 937 976 727
f 727 610 937
f 976 937 940
f 940 984 976
f 976 977 730
f 730 727 976
f 976 978 977
f 978 976 984
f 728 730 977
f 977 979 728
f 979 977 978
f 978 982 979
f 979 974 729
f 729 728 979
f 982 983 974
f 974 979 982
f 435 472 980
f 981 980 472
f 472 474 981
f 475 981 474
f 980 953 435
f 981 475 982
f 983 982 475
f 475 470 983
f 953 980 984
f 978 984 980
f 980 981 978
f 982 978 981
f 984 940 953
f 975 972 985
f 985 973 469
f 973 985 972
f 470 469 973
f 973 983 470
f 986 750 988
f 987 988 750
f 1001 412 518
f 988 987 989
f 986 988 1004
f 1000 1004 988
f 988 989 1000
f 744 514 904
f 904 990 744
f 913 998 990
f 990 904 913
f 990 991 746
f 746 744 990
f 990 992 991
f 992 990 998
f 991 994 993
f 993 746 991
f 992 999 994
f 994 991 992
f 994 989 987
f 987 993 994
f 999 1000 989
f 989 994 999
f 487 488 997
f 995 997 488
f 998 913 911
f 911 487 998
f 997 998 487
f 997 995 999
f 1000 999 995
f 995 996 1000
f 998 997 992
f 999 992 997
f 412 1001 484
f 484 986 1002
f 986 484 1001
f 1003 1002 986
f 986 1004 1003
f 1004 1000 996
f 996 1003 1004
f 777 776 1005
f 771 1005 776
f 1005 771 1006
f 772 1006 771
f 772 763 1012
f 1006 772 806
f 1012 806 772
f 1007 930 935
f 935 1013 1007
f 1013 1010 1008
f 1008 1007 1013
f 1010 1011 762
f 762 1008 1010
f 1011 1012 763
f 763 762 1011
f 778 1009 1010
f 1011 1010 1009
f 935 778 1013
f 1010 1013 778
