# Blender 5.1.1
# www.blender.org
mtllib DrawerSmall_out.mtl
o F989cb36Ff194643990a751bdf31759b
v 0.121625 0.162660 0.060050
v 0.119359 -0.164332 0.060050
v 0.119359 -0.164332 0.120050
v 0.121625 0.162660 0.120050
v 0.139634 0.162535 0.120050
v 0.137369 -0.164457 0.120050
v 0.137369 -0.164457 0.060050
v 0.139634 0.162535 0.060050
v 0.121625 0.162660 -0.075950
v 0.119359 -0.164332 -0.075950
v 0.119359 -0.164332 -0.015950
v 0.121625 0.162660 -0.015950
v 0.139634 0.162535 -0.015950
v 0.137369 -0.164457 -0.015950
v 0.137369 -0.164457 -0.075950
v 0.139634 0.162535 -0.075950
v 0.119359 -0.164332 -0.076450
v 0.118944 -0.224331 -0.076450
v 0.118944 -0.224331 0.120550
v 0.119359 -0.164332 0.120550
v 0.137369 -0.164457 0.120550
v 0.136953 -0.224456 0.120550
v 0.136953 -0.224456 -0.076450
v 0.137369 -0.164457 -0.076450
v 0.122041 0.222658 -0.076450
v 0.121625 0.162660 -0.076450
v 0.121625 0.162660 0.120550
v 0.122041 0.222658 0.120550
v 0.140050 0.222534 0.120550
v 0.139634 0.162535 0.120550
v 0.139634 0.162535 -0.076450
v 0.140050 0.222534 -0.076450
v 0.128211 0.173614 -0.027450
v 0.125793 -0.175377 -0.027450
v 0.125793 -0.175377 0.071550
v 0.128211 0.173614 0.071550
v 0.133211 0.173580 0.071550
v 0.130793 -0.175412 0.071550
v 0.130793 -0.175412 -0.027450
v 0.133211 0.173580 -0.027450
v 0.119276 -0.176332 -0.072950
v -0.380712 -0.172868 -0.072950
v -0.380712 -0.172868 0.047050
v 0.119276 -0.176332 0.047050
v 0.119151 -0.194332 0.047050
v -0.380837 -0.190867 0.047050
v -0.380837 -0.190867 -0.072950
v 0.119151 -0.194332 -0.072950
v 0.121833 0.192659 -0.072950
v -0.378155 0.196123 -0.072950
v -0.378155 0.196123 0.047050
v 0.121833 0.192659 0.047050
v 0.121708 0.174659 0.047050
v -0.378280 0.178124 0.047050
v -0.378280 0.178124 -0.072950
v 0.121708 0.174659 -0.072950
v -0.378280 0.178124 -0.072950
v -0.380712 -0.172868 -0.072950
v -0.380712 -0.172868 0.047050
v -0.378280 0.178124 0.047050
v -0.360271 0.177999 0.047050
v -0.362703 -0.172992 0.047050
v -0.362703 -0.172992 -0.072950
v -0.360271 0.177999 -0.072950
v 0.103718 0.174784 -0.072950
v 0.101286 -0.176207 -0.072950
v 0.101286 -0.176207 0.047050
v 0.103718 0.174784 0.047050
v 0.121708 0.174659 0.047050
v 0.119276 -0.176332 0.047050
v 0.119276 -0.176332 -0.072950
v 0.121708 0.174659 -0.072950
v 0.106252 -0.181242 -0.062950
v -0.367737 -0.177958 -0.062950
v -0.365236 0.183034 -0.062950
v 0.108753 0.179749 -0.062950
v 0.108753 0.179749 -0.053950
v -0.365236 0.183034 -0.053950
v -0.367737 -0.177958 -0.053950
v 0.106252 -0.181242 -0.053950
vn -0.0000 -0.0000 1.0000
vn 0.0069 1.0000 -0.0000
vn -0.0000 -0.0000 -1.0000
vn -0.0069 -1.0000 -0.0000
vn -1.0000 0.0069 -0.0000
vn 1.0000 -0.0069 -0.0000
vn 0.0068 1.0000 -0.0000
vn -0.0070 -1.0000 -0.0000
vt 0.000000 0.000000
vt 0.327000 0.000000
vt 0.327000 0.018000
vt 0.000000 0.018000
vt 0.060000 0.000000
vt 0.060000 0.018000
vt 0.060000 0.327000
vt 0.000000 0.327000
vt -0.060000 0.000000
vt -0.060000 0.327000
vt 0.197000 0.000000
vt 0.197000 0.018000
vt 0.197000 0.060000
vt 0.000000 0.060000
vt -0.197000 0.000000
vt -0.197000 0.060000
vt 0.000000 0.005000
vt 0.349000 0.005000
vt 0.099000 0.005000
vt 0.099000 0.349000
vt 0.000000 0.349000
vt -0.099000 0.000000
vt -0.099000 0.349000
vt 0.500000 0.000000
vt 0.500000 0.018000
vt 0.120000 0.000000
vt 0.120000 0.018000
vt 0.000000 0.120000
vt -0.500000 0.120000
vt -0.500000 0.000000
vt -0.000000 -0.120000
vt -0.500000 -0.120000
vt 0.351000 0.000000
vt 0.351000 0.018000
vt -0.351000 0.120000
vt -0.351000 0.000000
vt -0.351000 -0.120000
vt 0.474000 0.000000
vt 0.474000 0.009000
vt 0.000000 0.009000
vt 0.361000 0.000000
vt 0.361000 0.009000
vt 0.361000 0.474000
vt 0.000000 0.474000
vt -0.361000 0.000000
vt -0.361000 0.474000
s 1
usemtl MI_6446510cd7c7aa0001b081b1.001
f 4/1/1 3/2/1 6/3/1
f 6/3/1 5/4/1 4/1/1
f 1/1/2 4/5/2 5/6/2
f 5/6/2 8/4/2 1/1/2
f 2/1/3 1/2/3 8/3/3
f 8/3/3 7/4/3 2/1/3
f 3/1/4 2/5/4 7/6/4
f 7/6/4 6/4/4 3/1/4
f 4/1/5 1/5/5 2/7/5
f 2/7/5 3/8/5 4/1/5
f 8/9/6 5/1/6 6/8/6
f 6/8/6 7/10/6 8/9/6
f 12/1/1 11/2/1 14/3/1
f 14/3/1 13/4/1 12/1/1
f 9/1/2 12/5/2 13/6/2
f 13/6/2 16/4/2 9/1/2
f 10/1/3 9/2/3 16/3/3
f 16/3/3 15/4/3 10/1/3
f 11/1/4 10/5/4 15/6/4
f 15/6/4 14/4/4 11/1/4
f 12/1/5 9/5/5 10/7/5
f 10/7/5 11/8/5 12/1/5
f 16/9/6 13/1/6 14/8/6
f 14/8/6 15/10/6 16/9/6
f 20/1/1 19/5/1 22/6/1
f 22/6/1 21/4/1 20/1/1
f 17/1/2 20/11/2 21/12/2
f 21/12/2 24/4/2 17/1/2
f 18/1/3 17/5/3 24/6/3
f 24/6/3 23/4/3 18/1/3
f 19/1/4 18/11/4 23/12/4
f 23/12/4 22/4/4 19/1/4
f 20/1/5 17/11/5 18/13/5
f 18/13/5 19/14/5 20/1/5
f 24/15/6 21/1/6 22/14/6
f 22/14/6 23/16/6 24/15/6
f 28/1/1 27/5/1 30/6/1
f 30/6/1 29/4/1 28/1/1
f 25/1/2 28/11/2 29/12/2
f 29/12/2 32/4/2 25/1/2
f 26/1/3 25/5/3 32/6/3
f 32/6/3 31/4/3 26/1/3
f 27/1/4 26/11/4 31/12/4
f 31/12/4 30/4/4 27/1/4
f 28/1/5 25/11/5 26/13/5
f 26/13/5 27/14/5 28/1/5
f 32/15/6 29/1/6 30/14/6
f 30/14/6 31/16/6 32/15/6
f 36/17/1 35/18/1 38/18/1
f 38/18/1 37/17/1 36/17/1
f 33/17/7 36/19/7 37/19/7
f 37/19/7 40/17/7 33/17/7
f 34/17/3 33/18/3 40/18/3
f 40/18/3 39/17/3 34/17/3
f 35/17/8 34/19/8 39/19/8
f 39/19/8 38/17/8 35/17/8
f 36/17/5 33/19/5 34/20/5
f 34/20/5 35/21/5 36/17/5
f 40/22/6 37/17/6 38/21/6
f 38/21/6 39/23/6 40/22/6
f 44/1/1 43/24/1 46/25/1
f 46/25/1 45/4/1 44/1/1
f 41/1/6 44/26/6 45/27/6
f 45/27/6 48/4/6 41/1/6
f 42/1/3 41/24/3 48/25/3
f 48/25/3 47/4/3 42/1/3
f 43/1/5 42/26/5 47/27/5
f 47/27/5 46/4/5 43/1/5
f 44/1/2 41/28/2 42/29/2
f 42/29/2 43/30/2 44/1/2
f 48/31/4 45/1/4 46/30/4
f 46/30/4 47/32/4 48/31/4
f 52/1/1 51/24/1 54/25/1
f 54/25/1 53/4/1 52/1/1
f 49/1/6 52/26/6 53/27/6
f 53/27/6 56/4/6 49/1/6
f 50/1/3 49/24/3 56/25/3
f 56/25/3 55/4/3 50/1/3
f 51/1/5 50/26/5 55/27/5
f 55/27/5 54/4/5 51/1/5
f 52/1/2 49/28/2 50/29/2
f 50/29/2 51/30/2 52/1/2
f 56/31/4 53/1/4 54/30/4
f 54/30/4 55/32/4 56/31/4
f 60/1/1 59/33/1 62/34/1
f 62/34/1 61/4/1 60/1/1
f 57/1/2 60/26/2 61/27/2
f 61/27/2 64/4/2 57/1/2
f 58/1/3 57/33/3 64/34/3
f 64/34/3 63/4/3 58/1/3
f 59/1/4 58/26/4 63/27/4
f 63/27/4 62/4/4 59/1/4
f 60/1/5 57/28/5 58/35/5
f 58/35/5 59/36/5 60/1/5
f 64/31/6 61/1/6 62/36/6
f 62/36/6 63/37/6 64/31/6
f 68/1/1 67/33/1 70/34/1
f 70/34/1 69/4/1 68/1/1
f 65/1/2 68/26/2 69/27/2
f 69/27/2 72/4/2 65/1/2
f 66/1/3 65/33/3 72/34/3
f 72/34/3 71/4/3 66/1/3
f 67/1/4 66/26/4 71/27/4
f 71/27/4 70/4/4 67/1/4
f 68/1/5 65/28/5 66/35/5
f 66/35/5 67/36/5 68/1/5
f 72/31/6 69/1/6 70/36/6
f 70/36/6 71/37/6 72/31/6
f 76/1/2 75/38/2 78/39/2
f 78/39/2 77/40/2 76/1/2
f 73/1/6 76/41/6 77/42/6
f 77/42/6 80/40/6 73/1/6
f 74/1/4 73/38/4 80/39/4
f 80/39/4 79/40/4 74/1/4
f 75/1/5 74/41/5 79/42/5
f 79/42/5 78/40/5 75/1/5
f 76/1/3 73/41/3 74/43/3
f 74/43/3 75/44/3 76/1/3
f 80/45/1 77/1/1 78/44/1
f 78/44/1 79/46/1 80/45/1
