# USD → MuJoCo (world-space)
v -1.601750 1.302040 0.000000
v 2.283260 1.302040 0.000000
v 2.283260 8.122040 0.000000
v -3.001750 8.122040 0.000000
v -3.001750 5.622040 0.000000
v -1.601750 5.622040 0.000000
vt 1.400000 -6.820000
vt 5.285000 -6.820000
vt 5.285000 0.000000
vt 5.285000 0.000000
vt 0.000000 0.000000
vt 0.000000 -2.500000
vt 1.400000 -2.500000
vt 1.400000 -6.820000
vt 5.285000 0.000000
vt 5.285000 0.000000
vt 0.000000 -2.500000
vt 1.400000 -2.500000
f 1/1 2/2 3/3
f 3/4 4/5 5/6
f 6/7 1/8 3/9
f 3/10 5/11 6/12
