# USD → MuJoCo (world-space, simplified)
v 1.752580 3.221274 0.000002
v 1.756285 3.216098 0.000002
v 1.752580 3.221274 0.016406
v 1.756159 3.216274 0.016406
v 1.756207 3.216208 0.016314
v 1.756222 3.216186 0.016283
v 1.756238 3.216164 0.016252
v 1.756262 3.216131 0.016206
v 1.749133 3.226626 0.000002
v 1.749133 3.226626 0.016406
v 1.745953 3.232141 0.000002
v 1.745953 3.232141 0.016406
v 1.743048 3.237805 0.000002
v 1.743048 3.237805 0.016406
v 1.740424 3.243605 0.000002
v 1.740424 3.243605 0.016406
v 1.738088 3.249527 0.000002
v 1.738088 3.249527 0.016406
v 1.736045 3.255556 0.000002
v 1.736045 3.255556 0.016406
v 1.734300 3.261678 0.000002
v 1.734300 3.261678 0.016406
v 1.732858 3.267878 0.000002
v 1.732858 3.267878 0.016406
v 1.731722 3.274142 0.000002
v 1.731722 3.274142 0.016406
v 1.730894 3.280453 0.000002
v 1.730894 3.280453 0.016406
v 1.730377 3.286798 0.000002
v 1.730377 3.286798 0.016406
v 1.730173 3.293161 0.000002
v 1.730173 3.293161 0.016406
v 1.730280 3.299526 0.000002
v 1.730280 3.299526 0.016406
v 1.730700 3.305878 0.000002
v 1.730700 3.305878 0.016406
v 1.731431 3.312201 0.016406
v 1.732471 3.318482 0.000002
v 1.732471 3.318482 0.016406
v 1.733819 3.324703 0.000002
v 1.733819 3.324703 0.016406
v 1.735470 3.330852 0.000002
v 1.735470 3.330852 0.016406
v 1.737420 3.336911 0.000002
v 1.737420 3.336911 0.016406
v 1.739666 3.342868 0.016406
v 1.742201 3.348707 0.000002
v 1.742201 3.348707 0.016406
v 1.745020 3.354415 0.000002
v 1.745020 3.354415 0.016406
v 1.748115 3.359977 0.000002
v 1.748115 3.359977 0.016406
v 1.751480 3.365381 0.000002
v 1.751480 3.365381 0.016406
v 1.755105 3.370614 0.000002
v 1.755105 3.370614 0.016406
v 1.758983 3.375662 0.016406
v 1.763104 3.380514 0.000002
v 1.763104 3.380514 0.016406
v 1.767458 3.385158 0.016406
v 1.772035 3.389582 0.000002
v 1.772035 3.389582 0.016406
v 1.776824 3.393777 0.000002
v 1.776824 3.393777 0.016406
v 1.781812 3.397732 0.016406
v 1.786989 3.401437 0.000002
v 1.786989 3.401437 0.016406
v 1.792341 3.404884 0.000002
v 1.792341 3.404884 0.016406
v 1.797855 3.408063 0.000002
v 1.797855 3.408063 0.016406
v 1.803519 3.410969 0.000002
v 1.803519 3.410969 0.016406
v 1.809319 3.413593 0.000002
v 1.809319 3.413593 0.016406
v 1.815241 3.415929 0.000002
v 1.815241 3.415929 0.016406
v 1.821270 3.417972 0.000002
v 1.821270 3.417972 0.016406
v 1.827392 3.419717 0.016406
v 1.833592 3.421159 0.000002
v 1.833592 3.421159 0.016406
v 1.839856 3.422295 0.000002
v 1.839856 3.422295 0.016406
v 1.846168 3.423123 0.016406
v 1.852513 3.423640 0.000002
v 1.852513 3.423640 0.016406
v 1.858875 3.423844 0.000002
v 1.858875 3.423844 0.016406
v 1.865240 3.423737 0.000002
v 1.865240 3.423737 0.016406
v 1.871592 3.423317 0.000002
v 1.871592 3.423317 0.016406
v 1.877916 3.422586 0.016406
v 1.884196 3.421546 0.016406
v 1.890418 3.420198 0.000002
v 1.890418 3.420198 0.016406
v 1.896566 3.418547 0.016406
v 1.902625 3.416597 0.016406
v 1.908582 3.414351 0.000002
v 1.908582 3.414351 0.016406
v 1.914421 3.411816 0.016406
v 1.920129 3.408997 0.000002
v 1.920129 3.408997 0.016406
v 1.925691 3.405902 0.000002
v 1.925691 3.405902 0.016406
v 1.931095 3.402537 0.000002
v 1.931095 3.402537 0.016406
v 1.936328 3.398912 0.000002
v 1.936328 3.398912 0.016406
v 1.941376 3.395034 0.000002
v 1.941376 3.395034 0.016406
v 1.946228 3.390913 0.000002
v 1.946228 3.390913 0.016406
v 1.950872 3.386559 0.016406
v 1.955296 3.381982 0.000002
v 1.955297 3.381982 0.016406
v 1.959491 3.377193 0.000002
v 1.959491 3.377193 0.016406
v 1.963312 3.372374 0.000002
v 1.963328 3.372353 0.000033
v 1.963345 3.372332 0.000063
v 1.963393 3.372271 0.000152
v 1.963437 3.372216 0.000232
v 1.963446 3.372205 0.016406
v 1.967151 3.367028 0.000002
v 1.967151 3.367028 0.016406
v 1.970598 3.361676 0.016406
v 1.973778 3.356162 0.000002
v 1.973778 3.356162 0.016406
v 1.976683 3.350498 0.000002
v 1.976683 3.350498 0.016406
v 1.979307 3.344698 0.000002
v 1.979307 3.344698 0.016406
v 1.981643 3.338776 0.000002
v 1.981643 3.338776 0.016406
v 1.983686 3.332747 0.016406
v 1.985431 3.326625 0.016406
v 1.986873 3.320425 0.000002
v 1.986873 3.320425 0.016406
v 1.988009 3.314161 0.000002
v 1.988009 3.314161 0.016406
v 1.988837 3.307849 0.000002
v 1.988837 3.307849 0.016406
v 1.989354 3.301505 0.000002
v 1.989354 3.301505 0.016406
v 1.989558 3.295142 0.000002
v 1.989559 3.295142 0.016406
v 1.989451 3.288777 0.000002
v 1.989451 3.288777 0.016406
v 1.989031 3.282425 0.000002
v 1.989031 3.282425 0.016406
v 1.988300 3.276102 0.000002
v 1.988300 3.276102 0.016406
v 1.987260 3.269821 0.000002
v 1.987260 3.269821 0.016406
v 1.985913 3.263600 0.000002
v 1.985913 3.263600 0.016406
v 1.984262 3.257452 0.016406
v 1.982311 3.251392 0.016406
v 1.980142 3.245638 0.000002
v 1.980090 3.245502 0.000167
v 1.980065 3.245435 0.000248
v 1.980065 3.245435 0.016406
v 1.977530 3.239596 0.016160
v 1.977530 3.239596 0.000248
v 1.977616 3.239794 0.016406
v 1.977600 3.239757 0.016360
v 1.974712 3.233888 0.000248
v 1.971721 3.228514 0.016406
v 1.974646 3.233770 0.016314
v 1.974659 3.233794 0.016283
v 1.974689 3.233847 0.016214
v 1.974620 3.233723 0.000033
v 1.974633 3.233747 0.000064
v 1.974646 3.233770 0.000094
v 1.974666 3.233806 0.000140
v 1.974692 3.233853 0.000202
v 1.968252 3.222922 0.000248
v 1.971502 3.228142 0.000248
v 1.968252 3.222922 0.016160
v 1.971502 3.228142 0.016160
v 1.968144 3.222766 0.016375
v 1.968159 3.222788 0.016345
v 1.968183 3.222822 0.016299
v 1.968217 3.222872 0.016229
v 1.968152 3.222777 0.000048
v 1.968129 3.222744 0.000002
v 1.968190 3.222833 0.000125
v 1.968206 3.222855 0.000156
v 1.968221 3.222877 0.000186
v 1.968236 3.222899 0.000217
v 1.960748 3.212641 0.000248
v 1.956767 3.207954 0.016406
v 1.960626 3.212497 0.016375
v 1.960643 3.212517 0.016345
v 1.960661 3.212538 0.016314
v 1.960678 3.212558 0.016283
v 1.960696 3.212579 0.016252
v 1.960713 3.212600 0.016221
v 1.960731 3.212620 0.016191
v 1.960626 3.212497 0.000033
v 1.960643 3.212517 0.000063
v 1.960696 3.212579 0.000156
v 1.960713 3.212600 0.000186
v 1.960731 3.212620 0.000217
v 1.952273 3.203145 0.000248
v 1.952273 3.203145 0.016160
v 1.956479 3.207631 0.016160
v 1.952117 3.202995 0.016406
v 1.952151 3.203027 0.016352
v 1.952195 3.203070 0.016283
v 1.952214 3.203089 0.016252
v 1.952244 3.203117 0.016206
v 1.952137 3.203013 0.000033
v 1.952171 3.203046 0.000086
v 1.952214 3.203089 0.000156
v 1.952234 3.203107 0.000186
v 1.952253 3.203126 0.000217
v 1.942908 3.194526 0.000248
v 1.947533 3.198578 0.016160
v 1.938089 3.190705 0.000002
v 1.942759 3.194408 0.016375
v 1.942781 3.194425 0.016345
v 1.942802 3.194442 0.016314
v 1.942823 3.194458 0.016283
v 1.942855 3.194484 0.016237
v 1.942886 3.194509 0.016191
v 1.942759 3.194408 0.000033
v 1.942781 3.194425 0.000063
v 1.942802 3.194442 0.000094
v 1.942823 3.194458 0.000125
v 1.942844 3.194475 0.000156
v 1.942865 3.194492 0.000186
v 1.942886 3.194509 0.000217
v 1.932743 3.186866 0.000248
v 1.932584 3.186764 0.016375
v 1.932618 3.186785 0.016329
v 1.932652 3.186807 0.016283
v 1.932675 3.186822 0.016252
v 1.932709 3.186844 0.016206
v 1.932584 3.186764 0.000033
v 1.932618 3.186785 0.000079
v 1.932663 3.186815 0.000140
v 1.932709 3.186844 0.000202
v 1.921876 3.180239 0.000248
v 1.927203 3.183311 0.000248
v 1.916404 3.177433 0.000002
v 1.921684 3.180140 0.000002
v 1.921732 3.180165 0.016345
v 1.921756 3.180178 0.016314
v 1.921780 3.180190 0.016283
v 1.921804 3.180202 0.016252
v 1.921828 3.180215 0.016221
v 1.921852 3.180227 0.016191
v 1.921720 3.180159 0.000048
v 1.921756 3.180178 0.000094
v 1.921780 3.180190 0.000125
v 1.921816 3.180208 0.000171
v 1.921852 3.180227 0.000217
v 1.910412 3.174710 0.016160
v 1.910236 3.174640 0.016375
v 1.910261 3.174650 0.016345
v 1.910286 3.174660 0.016314
v 1.910311 3.174670 0.016283
v 1.910337 3.174680 0.016252
v 1.910374 3.174695 0.016206
v 1.910236 3.174640 0.000033
v 1.910211 3.174631 0.000002
v 1.904286 3.172304 0.000248
v 1.898461 3.170330 0.016160
v 1.904286 3.172304 0.016160
v 1.892547 3.168645 0.016406
v 1.898435 3.170323 0.016191
v 1.898279 3.170279 0.000033
v 1.898332 3.170294 0.000095
v 1.886139 3.167144 0.000248
v 1.892129 3.168537 0.000248
v 1.886139 3.167144 0.016160
v 1.885926 3.167105 0.016406
v 1.885953 3.167110 0.016375
v 1.885993 3.167117 0.016329
v 1.886046 3.167127 0.016268
v 1.886099 3.167136 0.016206
v 1.885953 3.167110 0.000033
v 1.885926 3.167105 0.000002
v 1.886112 3.167139 0.000217
v 1.879661 3.165979 0.016160
v 1.873375 3.165164 0.016375
v 1.873563 3.165180 0.016160
v 1.873536 3.165178 0.016191
v 1.873375 3.165164 0.000033
v 1.873348 3.165162 0.000002
v 1.873536 3.165178 0.000217
v 1.867002 3.164656 0.016160
v 1.854707 3.164562 0.000002
v 1.854707 3.164562 0.016406
v 1.860690 3.164461 0.000060
v 1.860775 3.164460 0.000156
v 1.860815 3.164459 0.000202
v 1.854275 3.164580 0.016160
v 1.842030 3.165692 0.000002
v 1.847924 3.165011 0.000002
v 1.847924 3.165011 0.016406
v 1.847951 3.165008 0.016375
v 1.847978 3.165004 0.016345
v 1.848018 3.165000 0.016298
v 1.848058 3.164995 0.016252
v 1.848085 3.164992 0.016221
v 1.848112 3.164989 0.016191
v 1.835535 3.166757 0.016160
v 1.829525 3.168059 0.000002
v 1.835324 3.166803 0.016406
v 1.835381 3.166790 0.016340
v 1.835535 3.166757 0.000248
v 1.823165 3.169755 0.000248
v 1.823165 3.169755 0.016160
v 1.817311 3.171640 0.000002
v 1.823037 3.169797 0.016314
v 1.823062 3.169789 0.016283
v 1.823101 3.169776 0.016237
v 1.823140 3.169764 0.016191
v 1.822998 3.169809 0.000048
v 1.823037 3.169797 0.000094
v 1.823114 3.169772 0.000186
v 1.823140 3.169764 0.000217
v 1.816904 3.171782 0.000248
v 1.805508 3.176401 0.000002
v 1.811124 3.173962 0.016191
v 1.811124 3.173962 0.000217
v 1.799602 3.179306 0.000248
v 1.805116 3.176583 0.000248
v 1.805116 3.176583 0.016160
v 1.799413 3.179411 0.000002
v 1.794228 3.182296 0.016406
v 1.799437 3.179398 0.000033
v 1.799460 3.179384 0.000063
v 1.799484 3.179371 0.000094
v 1.799519 3.179351 0.000140
v 1.799567 3.179325 0.000202
v 1.788635 3.185766 0.016160
v 1.783580 3.189268 0.000002
v 1.783580 3.189268 0.016406
v 1.788480 3.185873 0.016375
v 1.788502 3.185858 0.016345
v 1.788535 3.185835 0.016298
v 1.788585 3.185800 0.016229
v 1.788480 3.185873 0.000033
v 1.788502 3.185858 0.000063
v 1.788524 3.185843 0.000094
v 1.788558 3.185819 0.000140
v 1.788602 3.185789 0.000202
v 1.783231 3.189523 0.000248
v 1.773667 3.197250 0.000002
v 1.778190 3.193409 0.016406
v 1.778210 3.193392 0.016375
v 1.778231 3.193374 0.016345
v 1.778334 3.193287 0.016191
v 1.768859 3.201745 0.000248
v 1.764585 3.206166 0.000002
v 1.764585 3.206166 0.016406
v 1.768840 3.201764 0.016191
v 1.768737 3.201871 0.000048
v 1.768774 3.201832 0.000110
v 1.768803 3.201803 0.000156
v 1.768831 3.201774 0.000202
v 1.760240 3.211110 0.000248
v 1.760240 3.211110 0.016160
v 1.760105 3.211279 0.000002
v 1.796873 3.277860 0.000002
v 1.795705 3.285227 0.000002
v 1.731431 3.312201 0.000002
v 1.805492 3.329885 0.000002
v 1.767458 3.385158 0.000002
v 1.781812 3.397732 0.000002
v 1.823306 3.347973 0.000002
v 1.862550 3.358877 0.000002
v 1.902625 3.416597 0.000002
v 1.914421 3.411816 0.000002
v 1.893339 3.349523 0.000002
v 1.911714 3.333329 0.000002
v 1.911782 3.333002 0.000002
v 1.920803 3.316482 0.000002
v 1.983686 3.332747 0.000002
v 1.985431 3.326625 0.000002
v 1.924928 3.294648 0.000002
v 1.979865 3.245517 0.000002
v 1.977334 3.239687 0.000002
v 1.974520 3.233989 0.000002
v 1.974536 3.233934 0.000002
v 1.971721 3.228514 0.000002
v 1.971430 3.228435 0.000002
v 1.964489 3.217823 0.000002
v 1.964451 3.217816 0.000002
v 1.956466 3.207933 0.000002
v 1.952119 3.203297 0.000002
v 1.952118 3.203202 0.000002
v 1.937892 3.190731 0.000002
v 1.937789 3.190744 0.000002
v 1.932591 3.186894 0.000002
v 1.921773 3.180429 0.000002
v 1.921734 3.180305 0.000002
v 1.916257 3.177482 0.000002
v 1.916118 3.177528 0.000002
v 1.904416 3.172576 0.000002
v 1.892547 3.168645 0.000002
v 1.892342 3.168762 0.000002
v 1.879842 3.166221 0.000002
v 1.867206 3.164879 0.000002
v 1.854621 3.164653 0.000002
v 1.854500 3.164782 0.000002
v 1.848158 3.165201 0.000002
v 1.848018 3.165087 0.000002
v 1.842007 3.165722 0.000002
v 1.841984 3.165752 0.000002
v 1.841923 3.165830 0.000002
v 1.841845 3.165931 0.000002
v 1.835575 3.166970 0.000002
v 1.829407 3.168246 0.000002
v 1.829364 3.168314 0.000002
v 1.823226 3.169963 0.000002
v 1.823122 3.169908 0.000002
v 1.817216 3.171831 0.000002
v 1.817177 3.171910 0.000002
v 1.811230 3.174152 0.000002
v 1.810951 3.174038 0.000002
v 1.805468 3.176507 0.000002
v 1.805401 3.176683 0.000002
v 1.799702 3.179497 0.000002
v 1.799583 3.179461 0.000002
v 1.783556 3.189412 0.000002
v 1.783530 3.189566 0.000002
v 1.773659 3.197380 0.000002
v 1.773647 3.197551 0.000002
v 1.764591 3.206373 0.000002
v 1.764593 3.206468 0.000002
v 1.760406 3.211248 0.000002
v 1.797718 3.312337 0.000002
v 1.797895 3.312571 0.000002
v 1.799325 3.316858 0.000002
v 1.801264 3.321239 0.000002
v 1.859691 3.294279 0.000002
v 1.811172 3.336622 0.000002
v 1.859730 3.294272 0.000002
v 1.859719 3.294310 0.000002
v 1.818653 3.343932 0.000002
v 1.820864 3.345908 0.000002
v 1.859735 3.294324 0.000002
v 1.823355 3.347614 0.000002
v 1.859588 3.358778 0.000002
v 1.859874 3.294367 0.000002
v 1.865494 3.358533 0.000002
v 1.865877 3.358498 0.000002
v 1.870319 3.357913 0.000002
v 1.884196 3.421546 0.000002
v 1.868213 3.325454 0.000002
v 1.896566 3.418547 0.000002
v 1.859937 3.294315 0.000002
v 1.886065 3.353197 0.000002
v 1.889979 3.351526 0.000002
v 1.859973 3.294298 0.000002
v 1.900613 3.344314 0.000002
v 1.903981 3.341360 0.000002
v 1.908155 3.337049 0.000002
v 1.859998 3.294273 0.000002
v 1.911533 3.333067 0.000002
v 1.860011 3.294261 0.000002
v 1.860028 3.294220 0.000002
v 1.921565 3.313580 0.000002
v 1.922382 3.310489 0.000002
v 1.756253 3.216259 0.016406
v 1.756374 3.216241 0.016406
v 1.756458 3.216228 0.016406
v 1.911656 3.333178 0.016406
v 1.913508 3.330590 0.016406
v 1.974520 3.233989 0.016406
v 1.971636 3.228491 0.016406
v 1.974545 3.233904 0.016406
v 1.968071 3.223040 0.016406
v 1.968121 3.222781 0.016406
v 1.968114 3.222818 0.016406
v 1.968097 3.222908 0.016406
v 1.960580 3.212777 0.016406
v 1.956729 3.207951 0.016406
v 1.956562 3.207939 0.016406
v 1.956466 3.207933 0.016406
v 1.960605 3.212514 0.016406
v 1.960601 3.212551 0.016406
v 1.960587 3.212704 0.016406
v 1.952119 3.203297 0.016406
v 1.947550 3.198879 0.016406
v 1.952118 3.203160 0.016406
v 1.942769 3.194692 0.016406
v 1.942756 3.194567 0.016406
v 1.932621 3.187045 0.016406
v 1.927572 3.183536 0.016406
v 1.932594 3.186913 0.016406
v 1.921773 3.180429 0.016406
v 1.916279 3.177474 0.016406
v 1.916172 3.177510 0.016406
v 1.921745 3.180339 0.016406
v 1.910328 3.174909 0.016406
v 1.910226 3.174665 0.016406
v 1.910240 3.174700 0.016406
v 1.910289 3.174818 0.016406
v 1.898397 3.170537 0.016406
v 1.892420 3.168718 0.016406
v 1.898253 3.170271 0.016406
v 1.886095 3.167355 0.016406
v 1.886032 3.167262 0.016406
v 1.873541 3.165395 0.016406
v 1.873471 3.165310 0.016406
v 1.860854 3.164675 0.016406
v 1.854599 3.164677 0.016406
v 1.860640 3.164462 0.016406
v 1.860774 3.164595 0.016406
v 1.860814 3.164635 0.016406
v 1.848158 3.165201 0.016406
v 1.848088 3.165144 0.016406
v 1.835575 3.166970 0.016406
v 1.829525 3.168059 0.016406
v 1.835494 3.166915 0.016406
v 1.823226 3.169963 0.016406
v 1.823107 3.169900 0.016406
v 1.811230 3.174152 0.016406
v 1.811123 3.174108 0.016406
v 1.799702 3.179497 0.016406
v 1.794200 3.182400 0.016406
v 1.799587 3.179463 0.016406
v 1.788754 3.185946 0.016406
v 1.788644 3.185925 0.016406
v 1.778490 3.193437 0.016406
v 1.773667 3.197250 0.016406
v 1.773662 3.197326 0.016406
v 1.773658 3.197382 0.016406
v 1.773654 3.197438 0.016406
v 1.773651 3.197495 0.016406
v 1.778342 3.193424 0.016406
v 1.778434 3.193432 0.016406
v 1.769011 3.201899 0.016406
v 1.764588 3.206274 0.016406
v 1.768852 3.201899 0.016406
v 1.760406 3.211248 0.016406
v 1.938045 3.190673 0.000033
v 1.916355 3.177409 0.000033
v 1.892495 3.168632 0.000033
v 1.854653 3.164565 0.000033
v 1.841976 3.165699 0.000033
v 1.829472 3.168072 0.000033
v 1.817260 3.171658 0.000033
v 1.783537 3.189300 0.000033
v 1.773627 3.197286 0.000033
v 1.971439 3.228399 0.016375
v 1.964457 3.217779 0.016375
v 1.960608 3.212476 0.016406
v 1.937783 3.190706 0.016375
v 1.927269 3.183567 0.016375
v 1.904400 3.172542 0.016375
v 1.892265 3.168763 0.016375
v 1.879819 3.166191 0.016375
v 1.867168 3.164837 0.016360
v 1.805365 3.176670 0.016375
v 1.794112 3.182578 0.016375
v 1.783493 3.189560 0.016375
v 1.764556 3.206470 0.016375
v 1.823461 3.347598 0.000002
v 1.950872 3.386559 0.000002
v 1.909771 3.335751 0.000002
v 1.892193 3.294340 0.000002
v 1.859958 3.294208 0.000002
v 1.859929 3.294238 0.000002
v 1.859891 3.294256 0.000002
v 1.859872 3.294294 0.000002
v 1.859809 3.294243 0.000002
v 1.859779 3.294245 0.000002
v 1.859778 3.294215 0.000002
v 1.859761 3.294177 0.000002
v 1.977527 3.239598 0.000190
v 1.980040 3.245445 0.000217
v 1.974688 3.233901 0.000217
v 1.977494 3.239613 0.016206
v 1.974712 3.233888 0.016160
v 1.971493 3.228179 0.000217
v 1.971482 3.228225 0.016229
v 1.968212 3.222948 0.016214
v 1.964717 3.217823 0.016375
v 1.960716 3.212666 0.000202
v 1.956731 3.207913 0.016375
v 1.956478 3.207669 0.016191
v 1.952254 3.203164 0.016191
v 1.947812 3.198834 0.016375
v 1.947535 3.198616 0.016191
v 1.938045 3.190673 0.016375
v 1.932709 3.186916 0.000179
v 1.937749 3.190483 0.016191
v 1.932727 3.186888 0.016191
v 1.921863 3.180263 0.000217
v 1.927213 3.183348 0.000217
v 1.916355 3.177409 0.016375
v 1.904310 3.172355 0.000202
v 1.904310 3.172355 0.016206
v 1.898449 3.170369 0.016206
v 1.892495 3.168632 0.016375
v 1.880034 3.166038 0.016375
v 1.879683 3.166009 0.016191
v 1.867353 3.164676 0.016360
v 1.854653 3.164565 0.016375
v 1.854317 3.164618 0.016206
v 1.841976 3.165699 0.016375
v 1.835540 3.166784 0.000217
v 1.835540 3.166784 0.016191
v 1.829468 3.168072 0.016373
v 1.823173 3.169781 0.000217
v 1.823173 3.169781 0.016191
v 1.817260 3.171658 0.016375
v 1.805459 3.176424 0.016375
v 1.799615 3.179329 0.000217
v 1.805152 3.176595 0.000217
v 1.805152 3.176595 0.016191
v 1.793893 3.182524 0.016191
v 1.783537 3.189300 0.016375
v 1.773607 3.197304 0.016360
v 1.768878 3.201764 0.000217
v 1.764329 3.206482 0.016191
v 1.760242 3.211112 0.016218
v 1.756307 3.216114 0.016191
v 1.963360 3.372310 0.000002
v 1.813765 3.339444 0.000002
v 1.818362 3.343690 0.000002
v 1.865547 3.358528 0.000002
v 1.895384 3.348186 0.000002
v 1.916551 3.325181 0.000002
v 1.968071 3.223040 0.000002
v 1.963563 3.372041 0.000002
v 1.963473 3.372160 0.000002
v 1.980062 3.245515 0.000130
v 1.979890 3.245506 0.000033
v 1.979915 3.245496 0.000064
v 1.979940 3.245486 0.000094
v 1.979965 3.245476 0.000125
v 1.979990 3.245466 0.000156
v 1.980015 3.245456 0.000186
v 1.974607 3.233699 0.000002
v 1.974664 3.233913 0.000186
v 1.974640 3.233926 0.000156
v 1.974616 3.233938 0.000125
v 1.974592 3.233951 0.000094
v 1.974568 3.233963 0.000064
v 1.974544 3.233976 0.000033
v 1.971478 3.228397 0.000042
v 1.971439 3.228399 0.000033
v 1.971448 3.228362 0.000064
v 1.971464 3.228298 0.000117
v 1.971536 3.228278 0.000148
v 1.971484 3.228215 0.000186
v 1.971584 3.228282 0.000156
v 1.971557 3.228235 0.000186
v 1.971529 3.228189 0.000217
v 1.968167 3.222977 0.000133
v 1.968116 3.223011 0.000064
v 1.968094 3.223025 0.000033
v 1.964494 3.217517 0.000248
v 1.964749 3.217867 0.000002
v 1.964526 3.217561 0.000217
v 1.960685 3.212692 0.000156
v 1.960654 3.212717 0.000110
v 1.960608 3.212476 0.000002
v 1.960622 3.212743 0.000063
v 1.960580 3.212777 0.000002
v 1.956515 3.207889 0.000040
v 1.956468 3.207876 0.000048
v 1.956471 3.207820 0.000094
v 1.956472 3.207782 0.000125
v 1.956474 3.207744 0.000156
v 1.956479 3.207631 0.000248
v 1.956767 3.207953 0.000002
v 1.956533 3.207692 0.000202
v 1.952187 3.203116 0.000112
v 1.952244 3.203173 0.000202
v 1.952215 3.203202 0.000156
v 1.952196 3.203221 0.000125
v 1.952117 3.202995 0.000002
v 1.952162 3.203254 0.000071
v 1.947548 3.198842 0.000033
v 1.947533 3.198578 0.000248
v 1.947546 3.198804 0.000063
v 1.947544 3.198766 0.000094
v 1.947851 3.198871 0.000002
v 1.947653 3.198688 0.000156
v 1.947613 3.198651 0.000186
v 1.947573 3.198615 0.000217
v 1.942738 3.194391 0.000002
v 1.942882 3.194557 0.000202
v 1.942847 3.194598 0.000140
v 1.942821 3.194629 0.000094
v 1.942804 3.194650 0.000063
v 1.942769 3.194692 0.000002
v 1.937905 3.190635 0.000078
v 1.937780 3.190688 0.000048
v 1.937743 3.190445 0.000248
v 1.937981 3.190643 0.000064
v 1.937834 3.190538 0.000163
v 1.937981 3.190624 0.000079
v 1.937916 3.190575 0.000125
v 1.937851 3.190526 0.000171
v 1.937787 3.190478 0.000217
v 1.932657 3.186865 0.000115
v 1.932682 3.186955 0.000125
v 1.932667 3.186978 0.000094
v 1.932621 3.187045 0.000002
v 1.932652 3.187000 0.000063
v 1.932561 3.186749 0.000002
v 1.932636 3.187022 0.000033
v 1.927572 3.183536 0.000002
v 1.927269 3.183567 0.000033
v 1.927259 3.183531 0.000063
v 1.927250 3.183494 0.000094
v 1.927236 3.183439 0.000140
v 1.927222 3.183384 0.000186
v 1.921850 3.180287 0.000186
v 1.921831 3.180322 0.000140
v 1.921811 3.180358 0.000094
v 1.921798 3.180382 0.000063
v 1.921775 3.180267 0.000082
v 1.921785 3.180405 0.000033
v 1.916105 3.177493 0.000033
v 1.916321 3.177425 0.000029
v 1.916015 3.177245 0.000248
v 1.916307 3.177386 0.000063
v 1.916258 3.177362 0.000094
v 1.916209 3.177339 0.000125
v 1.916161 3.177315 0.000156
v 1.916112 3.177292 0.000186
v 1.916064 3.177268 0.000217
v 1.910412 3.174710 0.000248
v 1.910328 3.174909 0.000002
v 1.910338 3.174884 0.000033
v 1.904400 3.172542 0.000033
v 1.904383 3.172508 0.000063
v 1.904359 3.172457 0.000110
v 1.904379 3.172412 0.000137
v 1.904335 3.172406 0.000156
v 1.904691 3.172453 0.000002
v 1.898278 3.170282 0.000029
v 1.898253 3.170271 0.000002
v 1.898461 3.170330 0.000248
v 1.898437 3.170408 0.000156
v 1.898429 3.170434 0.000125
v 1.898417 3.170472 0.000079
v 1.898397 3.170537 0.000002
v 1.898405 3.170511 0.000033
v 1.892285 3.168795 0.000002
v 1.892231 3.168706 0.000086
v 1.892187 3.168634 0.000156
v 1.892158 3.168585 0.000202
v 1.892282 3.168642 0.000111
v 1.892416 3.168611 0.000079
v 1.892338 3.168591 0.000125
v 1.892285 3.168577 0.000156
v 1.892207 3.168557 0.000202
v 1.886127 3.167203 0.000179
v 1.886117 3.167249 0.000125
v 1.886109 3.167289 0.000079
v 1.886095 3.167355 0.000002
v 1.879819 3.166191 0.000033
v 1.880088 3.166046 0.000002
v 1.879661 3.165979 0.000248
v 1.879874 3.166013 0.000125
v 1.879821 3.166004 0.000156
v 1.879768 3.165996 0.000186
v 1.879714 3.165988 0.000217
v 1.873374 3.165168 0.000029
v 1.873563 3.165180 0.000248
v 1.873540 3.165395 0.000002
v 1.873552 3.165287 0.000125
v 1.873549 3.165314 0.000094
v 1.873546 3.165341 0.000063
v 1.873543 3.165368 0.000033
v 1.867181 3.164851 0.000033
v 1.867155 3.164823 0.000063
v 1.867002 3.164656 0.000248
v 1.867434 3.164681 0.000002
v 1.867272 3.164671 0.000094
v 1.867218 3.164669 0.000125
v 1.867097 3.164662 0.000194
v 1.860640 3.164462 0.000002
v 1.860856 3.164458 0.000248
v 1.860855 3.164580 0.000110
v 1.860855 3.164620 0.000063
v 1.860854 3.164675 0.000002
v 1.860854 3.164648 0.000033
v 1.854599 3.164567 0.000063
v 1.854275 3.164580 0.000248
v 1.854383 3.164576 0.000186
v 1.854329 3.164578 0.000217
v 1.848154 3.165147 0.000063
v 1.848139 3.164986 0.000248
v 1.848156 3.165174 0.000033
v 1.841957 3.165755 0.000017
v 1.841602 3.165752 0.000248
v 1.841923 3.165707 0.000063
v 1.841869 3.165715 0.000094
v 1.841816 3.165722 0.000125
v 1.841762 3.165730 0.000156
v 1.841709 3.165737 0.000186
v 1.841655 3.165745 0.000217
v 1.835324 3.166803 0.000002
v 1.835548 3.166823 0.000171
v 1.835558 3.166877 0.000110
v 1.835565 3.166916 0.000063
v 1.835570 3.166943 0.000033
v 1.829332 3.168295 0.000033
v 1.829299 3.168276 0.000063
v 1.829104 3.168160 0.000248
v 1.829420 3.168084 0.000063
v 1.829367 3.168097 0.000094
v 1.829315 3.168110 0.000125
v 1.829262 3.168122 0.000156
v 1.829210 3.168135 0.000186
v 1.829157 3.168148 0.000217
v 1.822960 3.169822 0.000002
v 1.823184 3.169820 0.000171
v 1.823196 3.169859 0.000125
v 1.823203 3.169885 0.000094
v 1.823211 3.169911 0.000063
v 1.823219 3.169937 0.000033
v 1.817126 3.171886 0.000048
v 1.817074 3.171862 0.000094
v 1.817040 3.171846 0.000125
v 1.816955 3.171806 0.000202
v 1.817161 3.171692 0.000092
v 1.817107 3.171711 0.000125
v 1.817056 3.171729 0.000156
v 1.817005 3.171747 0.000186
v 1.816954 3.171765 0.000217
v 1.811149 3.173951 0.000248
v 1.805365 3.176671 0.000033
v 1.805330 3.176658 0.000063
v 1.805294 3.176645 0.000094
v 1.805323 3.176487 0.000118
v 1.805258 3.176633 0.000125
v 1.805251 3.176560 0.000152
v 1.805223 3.176620 0.000156
v 1.805187 3.176608 0.000186
v 1.805432 3.176497 0.000032
v 1.805434 3.176435 0.000048
v 1.805263 3.176514 0.000156
v 1.805214 3.176537 0.000186
v 1.805165 3.176560 0.000217
v 1.799633 3.179365 0.000171
v 1.799652 3.179401 0.000125
v 1.799563 3.179403 0.000082
v 1.799665 3.179425 0.000094
v 1.799677 3.179449 0.000063
v 1.799690 3.179473 0.000033
v 1.794149 3.182587 0.000002
v 1.793856 3.182515 0.000248
v 1.794228 3.182296 0.000002
v 1.788482 3.185876 0.000029
v 1.788635 3.185766 0.000248
v 1.788458 3.185889 0.000002
v 1.788754 3.185946 0.000002
v 1.783493 3.189560 0.000033
v 1.783475 3.189493 0.000056
v 1.783455 3.189555 0.000063
v 1.783418 3.189550 0.000094
v 1.783348 3.189539 0.000152
v 1.783539 3.189331 0.000027
v 1.783386 3.189410 0.000139
v 1.783493 3.189341 0.000062
v 1.783372 3.189448 0.000145
v 1.783332 3.189499 0.000170
v 1.783493 3.189332 0.000063
v 1.783450 3.189363 0.000094
v 1.783319 3.189459 0.000186
v 1.783275 3.189491 0.000217
v 1.778355 3.193269 0.000248
v 1.778190 3.193409 0.000002
v 1.778456 3.193395 0.000063
v 1.778490 3.193437 0.000002
v 1.773345 3.197538 0.000248
v 1.773587 3.197322 0.000063
v 1.773546 3.197358 0.000094
v 1.773476 3.197421 0.000148
v 1.773385 3.197502 0.000217
v 1.768814 3.201815 0.000136
v 1.768709 3.201900 0.000002
v 1.768911 3.201797 0.000163
v 1.769011 3.201899 0.000002
v 1.768963 3.201850 0.000079
v 1.764556 3.206470 0.000033
v 1.764518 3.206472 0.000063
v 1.764480 3.206474 0.000094
v 1.764292 3.206484 0.000248
v 1.764512 3.206245 0.000063
v 1.764365 3.206404 0.000186
v 1.764328 3.206444 0.000217
v 1.760299 3.211159 0.000160
v 1.760354 3.211205 0.000079
v 1.760385 3.211231 0.000033
v 1.756285 3.216098 0.016160
v 1.756436 3.216212 0.016375
v 1.756415 3.216195 0.016345
v 1.756393 3.216179 0.016314
v 1.756371 3.216163 0.016283
v 1.756350 3.216146 0.016252
v 1.756328 3.216130 0.016221
v 1.977457 3.239630 0.016252
v 1.977401 3.239656 0.016322
v 1.977334 3.239687 0.016406
v 1.977359 3.239676 0.016375
v 1.974581 3.233872 0.016366
v 1.974544 3.233976 0.016375
v 1.974607 3.233699 0.016406
v 1.974568 3.233963 0.016345
v 1.974604 3.233945 0.016299
v 1.974640 3.233926 0.016252
v 1.974664 3.233913 0.016222
v 1.974647 3.233800 0.016299
v 1.971430 3.228435 0.016406
v 1.971680 3.228445 0.016360
v 1.971639 3.228375 0.016314
v 1.971598 3.228305 0.016268
v 1.971557 3.228235 0.016222
v 1.971564 3.228388 0.016340
v 1.971529 3.228189 0.016191
v 1.971448 3.228362 0.016345
v 1.971462 3.228307 0.016299
v 1.968094 3.223025 0.016375
v 1.968116 3.223011 0.016345
v 1.968150 3.222988 0.016299
v 1.968129 3.222744 0.016406
v 1.968145 3.222888 0.016338
v 1.964686 3.217779 0.016345
v 1.964654 3.217736 0.016314
v 1.964452 3.217816 0.016406
v 1.964606 3.217670 0.016268
v 1.964558 3.217605 0.016221
v 1.964749 3.217867 0.016406
v 1.964526 3.217561 0.016191
v 1.964462 3.217742 0.016345
v 1.964470 3.217686 0.016298
v 1.964494 3.217518 0.016160
v 1.960748 3.212641 0.016160
v 1.956628 3.207907 0.016376
v 1.956695 3.207873 0.016345
v 1.956659 3.207833 0.016314
v 1.956512 3.207851 0.016337
v 1.956601 3.207768 0.016264
v 1.956551 3.207712 0.016221
v 1.956515 3.207671 0.016191
v 1.956469 3.207857 0.016345
v 1.956472 3.207801 0.016298
v 1.956475 3.207726 0.016237
v 1.952160 3.203128 0.016340
v 1.952157 3.203259 0.016345
v 1.952186 3.203230 0.016298
v 1.952215 3.203202 0.016252
v 1.952234 3.203183 0.016221
v 1.947851 3.198871 0.016406
v 1.947653 3.198688 0.016252
v 1.947587 3.198627 0.016201
v 1.947545 3.198785 0.016329
v 1.947539 3.198682 0.016245
v 1.942738 3.194391 0.016406
v 1.942908 3.194526 0.016160
v 1.942804 3.194650 0.016345
v 1.942787 3.194529 0.016351
v 1.938089 3.190705 0.016406
v 1.938002 3.190640 0.016345
v 1.937789 3.190744 0.016406
v 1.937815 3.190697 0.016372
v 1.937873 3.190543 0.016252
v 1.937743 3.190445 0.016160
v 1.937830 3.190510 0.016221
v 1.937914 3.190573 0.016281
v 1.937787 3.190478 0.016191
v 1.937778 3.190669 0.016345
v 1.937772 3.190632 0.016314
v 1.937766 3.190594 0.016283
v 1.937761 3.190557 0.016252
v 1.937755 3.190520 0.016221
v 1.932561 3.186749 0.016406
v 1.932636 3.187022 0.016375
v 1.932629 3.186938 0.016360
v 1.932659 3.186989 0.016329
v 1.932647 3.186870 0.016310
v 1.932682 3.186955 0.016283
v 1.932697 3.186933 0.016252
v 1.932743 3.186866 0.016160
v 1.932687 3.186900 0.016258
v 1.932712 3.186911 0.016221
v 1.927278 3.183604 0.016406
v 1.927501 3.183493 0.016359
v 1.927434 3.183452 0.016314
v 1.927203 3.183311 0.016160
v 1.927365 3.183410 0.016268
v 1.927273 3.183353 0.016206
v 1.921683 3.180140 0.016406
v 1.921722 3.180183 0.016368
v 1.921876 3.180239 0.016160
v 1.916224 3.177435 0.016361
v 1.916404 3.177432 0.016406
v 1.916118 3.177528 0.016406
v 1.916307 3.177386 0.016345
v 1.916234 3.177350 0.016298
v 1.916015 3.177245 0.016160
v 1.916161 3.177315 0.016252
v 1.916112 3.177292 0.016221
v 1.916064 3.177268 0.016191
v 1.916092 3.177458 0.016345
v 1.910338 3.174884 0.016375
v 1.910349 3.174859 0.016345
v 1.910365 3.174822 0.016298
v 1.910380 3.174784 0.016252
v 1.910211 3.174630 0.016406
v 1.910396 3.174747 0.016206
v 1.910322 3.174747 0.016315
v 1.904416 3.172576 0.016406
v 1.904692 3.172453 0.016406
v 1.904383 3.172508 0.016345
v 1.904367 3.172474 0.016314
v 1.904351 3.172440 0.016283
v 1.904335 3.172406 0.016252
v 1.898405 3.170511 0.016375
v 1.898413 3.170485 0.016345
v 1.898421 3.170459 0.016314
v 1.898433 3.170421 0.016268
v 1.898386 3.170388 0.016309
v 1.892439 3.168651 0.016367
v 1.892348 3.168593 0.016289
v 1.892442 3.168618 0.016345
v 1.892237 3.168565 0.016224
v 1.892282 3.168743 0.016368
v 1.892285 3.168577 0.016252
v 1.892285 3.168795 0.016406
v 1.892246 3.168730 0.016345
v 1.892129 3.168537 0.016160
v 1.886100 3.167329 0.016375
v 1.886106 3.167302 0.016345
v 1.886114 3.167263 0.016298
v 1.886127 3.167203 0.016229
v 1.886062 3.167202 0.016313
v 1.879981 3.166029 0.016345
v 1.879928 3.166021 0.016314
v 1.879842 3.166221 0.016406
v 1.880088 3.166046 0.016406
v 1.879874 3.166013 0.016283
v 1.879821 3.166004 0.016252
v 1.879713 3.165987 0.016190
v 1.879767 3.165996 0.016221
v 1.879797 3.166161 0.016345
v 1.879774 3.166130 0.016314
v 1.879751 3.166100 0.016283
v 1.879717 3.166055 0.016237
v 1.873421 3.165240 0.016395
v 1.873348 3.165162 0.016406
v 1.867434 3.164681 0.016406
v 1.867260 3.164711 0.016331
v 1.867272 3.164671 0.016314
v 1.867217 3.164695 0.016299
v 1.867218 3.164669 0.016283
v 1.867206 3.164879 0.016406
v 1.867087 3.164661 0.016208
v 1.867130 3.164795 0.016314
v 1.867092 3.164753 0.016268
v 1.867053 3.164712 0.016221
v 1.860856 3.164458 0.016160
v 1.854580 3.164650 0.016380
v 1.854599 3.164567 0.016345
v 1.854545 3.164569 0.016314
v 1.854500 3.164782 0.016406
v 1.854491 3.164571 0.016283
v 1.854437 3.164573 0.016252
v 1.854385 3.164576 0.016223
v 1.854430 3.164719 0.016329
v 1.854388 3.164681 0.016283
v 1.854360 3.164656 0.016252
v 1.848156 3.165174 0.016375
v 1.847978 3.165042 0.016391
v 1.848139 3.164986 0.016160
v 1.842030 3.165692 0.016406
v 1.841923 3.165707 0.016345
v 1.841846 3.165931 0.016406
v 1.841821 3.165721 0.016286
v 1.841762 3.165730 0.016252
v 1.841709 3.165737 0.016221
v 1.841798 3.165884 0.016352
v 1.841655 3.165745 0.016191
v 1.841602 3.165752 0.016160
v 1.835570 3.166943 0.016375
v 1.835563 3.166903 0.016329
v 1.835555 3.166863 0.016283
v 1.835453 3.166811 0.016303
v 1.835450 3.166860 0.016370
v 1.835548 3.166823 0.016237
v 1.829367 3.168097 0.016314
v 1.829365 3.168314 0.016406
v 1.829314 3.168110 0.016283
v 1.829275 3.168146 0.016272
v 1.829262 3.168122 0.016252
v 1.829104 3.168160 0.016160
v 1.829210 3.168135 0.016222
v 1.829299 3.168276 0.016345
v 1.829267 3.168257 0.016314
v 1.829234 3.168237 0.016283
v 1.823142 3.169870 0.016338
v 1.823215 3.169924 0.016360
v 1.823203 3.169885 0.016314
v 1.823192 3.169846 0.016268
v 1.822960 3.169822 0.016406
v 1.823181 3.169807 0.016221
v 1.823133 3.169789 0.016231
v 1.817177 3.171910 0.016406
v 1.817310 3.171640 0.016406
v 1.816903 3.171782 0.016160
v 1.817005 3.171747 0.016221
v 1.816954 3.171765 0.016191
v 1.811149 3.173952 0.016160
v 1.810951 3.174038 0.016406
v 1.805508 3.176401 0.016406
v 1.805307 3.176494 0.016280
v 1.805410 3.176446 0.016345
v 1.805361 3.176469 0.016314
v 1.805401 3.176683 0.016406
v 1.805214 3.176537 0.016221
v 1.805216 3.176565 0.016231
v 1.805165 3.176560 0.016191
v 1.805329 3.176658 0.016345
v 1.805294 3.176645 0.016314
v 1.805258 3.176633 0.016283
v 1.805205 3.176614 0.016237
v 1.799690 3.179473 0.016375
v 1.799602 3.179306 0.016160
v 1.799413 3.179411 0.016406
v 1.794149 3.182587 0.016406
v 1.794083 3.182381 0.016310
v 1.793856 3.182515 0.016160
v 1.793974 3.182476 0.016245
v 1.794087 3.182562 0.016352
v 1.794010 3.182531 0.016285
v 1.793926 3.182474 0.016206
v 1.794076 3.182569 0.016345
v 1.794021 3.182556 0.016298
v 1.793966 3.182542 0.016252
v 1.793929 3.182533 0.016221
v 1.788739 3.185924 0.016375
v 1.788458 3.185889 0.016406
v 1.788638 3.185897 0.016364
v 1.788724 3.185901 0.016345
v 1.788710 3.185878 0.016314
v 1.788687 3.185844 0.016268
v 1.788657 3.185799 0.016206
v 1.788597 3.185841 0.016290
v 1.783231 3.189523 0.016160
v 1.783493 3.189332 0.016345
v 1.783450 3.189363 0.016314
v 1.783406 3.189395 0.016283
v 1.783362 3.189427 0.016252
v 1.783319 3.189459 0.016221
v 1.783530 3.189566 0.016406
v 1.783275 3.189491 0.016191
v 1.778473 3.193416 0.016375
v 1.778456 3.193395 0.016345
v 1.778378 3.193384 0.016338
v 1.778355 3.193269 0.016160
v 1.773612 3.197335 0.016366
v 1.773647 3.197551 0.016406
v 1.773559 3.197382 0.016325
v 1.773526 3.197376 0.016299
v 1.773345 3.197538 0.016160
v 1.773549 3.197533 0.016325
v 1.773385 3.197502 0.016191
v 1.768709 3.201900 0.016406
v 1.768859 3.201745 0.016160
v 1.764593 3.206468 0.016406
v 1.764506 3.206252 0.016340
v 1.764292 3.206484 0.016160
v 1.764420 3.206345 0.016268
v 1.764365 3.206404 0.016221
v 1.764328 3.206444 0.016191
v 1.764518 3.206472 0.016345
v 1.764480 3.206474 0.016314
v 1.764443 3.206476 0.016283
v 1.764405 3.206478 0.016252
v 1.764367 3.206480 0.016221
v 1.796328 3.306097 0.000002
v 1.739666 3.342868 0.000002
v 1.805795 3.329549 0.000002
v 1.805902 3.329712 0.000002
v 1.805962 3.329803 0.000002
v 1.805324 3.329040 0.000002
v 1.809512 3.334662 0.000002
v 1.758983 3.375662 0.000002
v 1.813953 3.339634 0.000002
v 1.818396 3.343849 0.000002
v 1.818580 3.343872 0.000002
v 1.827392 3.419717 0.000002
v 1.846168 3.423123 0.000002
v 1.859307 3.358869 0.000002
v 1.877916 3.422586 0.000002
v 1.865642 3.358520 0.000002
v 1.899485 3.345232 0.000002
v 1.900461 3.344437 0.000002
v 1.905131 3.340278 0.000002
v 1.909554 3.335476 0.000002
v 1.913408 3.330573 0.000002
v 1.919041 3.320099 0.000002
v 1.984262 3.257452 0.000002
v 1.982311 3.251392 0.000002
v 1.860021 3.294246 0.000002
v 1.859986 3.294287 0.000002
v 1.859891 3.294331 0.000002
v 1.859777 3.294269 0.000002
v 1.859704 3.294231 0.000002
v 1.859711 3.294189 0.000002
v 1.947550 3.198879 0.000002
v 1.859839 3.294319 0.000002
v 1.859747 3.294238 0.000002
v 1.977518 3.239602 0.000140
v 1.977503 3.239609 0.000098
v 1.977481 3.239619 0.000064
v 1.977454 3.239632 0.000037
v 1.977420 3.239647 0.000017
v 1.977380 3.239666 0.000006
v 1.760250 3.211118 0.016268
v 1.760263 3.211129 0.016310
v 1.760281 3.211144 0.016345
v 1.760304 3.211164 0.016371
v 1.760333 3.211188 0.016391
v 1.760367 3.211216 0.016402
v 1.796792 3.309439 0.000002
v 1.808074 3.332868 0.000002
v 1.816611 3.342240 0.000002
v 1.970598 3.361676 0.000002
v 1.927278 3.183604 0.000002
f 1 2 3
f 4 3 5
f 5 3 6
f 6 3 7
f 7 3 8
f 8 3 901
f 3 2 901
f 9 1 10
f 3 10 1
f 11 9 12
f 10 12 9
f 13 11 14
f 12 14 11
f 15 13 16
f 14 16 13
f 17 15 18
f 16 18 15
f 19 17 20
f 18 20 17
f 21 19 22
f 20 22 19
f 23 21 24
f 22 24 21
f 25 23 26
f 24 26 23
f 27 25 28
f 26 28 25
f 29 27 30
f 28 30 27
f 31 29 32
f 30 32 29
f 33 31 34
f 32 34 31
f 35 33 36
f 34 36 33
f 372 35 37
f 36 37 35
f 38 372 39
f 37 39 372
f 40 38 41
f 39 41 38
f 42 40 43
f 41 43 40
f 44 42 45
f 43 45 42
f 1188 44 46
f 45 46 44
f 47 1188 48
f 46 48 1188
f 49 47 50
f 48 50 47
f 51 49 52
f 50 52 49
f 53 51 54
f 52 54 51
f 55 53 56
f 54 56 53
f 1194 55 57
f 56 57 55
f 58 1194 59
f 57 59 1194
f 374 58 60
f 59 60 58
f 61 374 62
f 60 62 374
f 63 61 64
f 62 64 61
f 375 63 65
f 64 65 63
f 66 375 67
f 65 67 375
f 68 66 69
f 67 69 66
f 70 68 71
f 69 71 68
f 72 70 73
f 71 73 70
f 74 72 75
f 73 75 72
f 76 74 77
f 75 77 74
f 78 76 79
f 77 79 76
f 1198 78 80
f 79 80 78
f 81 1198 82
f 80 82 1198
f 83 81 84
f 82 84 81
f 1199 83 85
f 84 85 83
f 86 1199 87
f 85 87 1199
f 88 86 89
f 87 89 86
f 90 88 91
f 89 91 88
f 92 90 93
f 91 93 90
f 1201 92 94
f 93 94 92
f 455 1201 95
f 94 95 1201
f 96 455 97
f 95 97 455
f 457 96 98
f 97 98 96
f 378 457 99
f 98 99 457
f 100 378 101
f 99 101 378
f 379 100 102
f 101 102 100
f 103 379 104
f 102 104 379
f 105 103 106
f 104 106 103
f 107 105 108
f 106 108 105
f 109 107 110
f 108 110 107
f 111 109 112
f 110 112 109
f 113 111 114
f 112 114 111
f 567 113 115
f 114 115 113
f 116 567 117
f 115 117 567
f 118 116 119
f 117 119 116
f 120 118 121
f 121 118 122
f 122 118 123
f 123 118 124
f 124 118 125
f 125 118 119
f 126 634 127
f 127 634 125
f 634 124 125
f 1235 126 128
f 127 128 126
f 129 1235 130
f 128 130 1235
f 131 129 132
f 130 132 129
f 133 131 134
f 132 134 131
f 135 133 136
f 134 136 133
f 384 135 137
f 136 137 135
f 385 384 138
f 137 138 384
f 139 385 140
f 138 140 385
f 141 139 142
f 140 142 139
f 143 141 144
f 142 144 141
f 145 143 146
f 144 146 143
f 147 145 148
f 146 148 145
f 149 147 150
f 148 150 147
f 151 149 152
f 150 152 149
f 153 151 154
f 152 154 151
f 155 153 156
f 154 156 153
f 157 155 158
f 156 158 155
f 1209 157 159
f 158 159 157
f 1210 1209 160
f 159 160 1209
f 161 1210 162
f 162 1210 163
f 163 1210 164
f 164 1210 160
f 165 166 167
f 167 166 168
f 168 166 167
f 166 163 167
f 167 163 164
f 169 166 582
f 165 582 166
f 391 643 170
f 914 170 171
f 171 170 172
f 172 170 173
f 173 170 582
f 170 643 582
f 643 174 582
f 174 175 582
f 175 176 582
f 176 177 582
f 177 178 582
f 178 169 582
f 179 180 181
f 182 181 180
f 663 188 939
f 932 939 183
f 183 939 184
f 184 939 185
f 185 939 186
f 186 939 181
f 939 188 181
f 188 187 181
f 187 188 181
f 188 189 181
f 189 190 181
f 190 191 181
f 191 192 181
f 192 179 181
f 193 662 944
f 943 944 662
f 676 667 194
f 555 194 195
f 195 194 196
f 196 194 197
f 197 194 198
f 198 194 199
f 199 194 200
f 200 194 201
f 201 194 944
f 194 667 944
f 667 202 944
f 202 203 944
f 203 667 944
f 667 204 944
f 204 205 944
f 205 206 944
f 206 193 944
f 207 675 208
f 209 208 675
f 688 682 960
f 210 960 211
f 211 960 212
f 212 960 213
f 213 960 214
f 214 960 208
f 960 682 208
f 682 215 208
f 215 216 208
f 216 217 208
f 217 218 208
f 218 219 208
f 219 207 208
f 220 685 966
f 221 966 685
f 222 692 969
f 965 969 223
f 223 969 224
f 224 969 225
f 225 969 226
f 226 969 227
f 227 969 228
f 228 969 966
f 969 692 966
f 692 229 966
f 229 230 966
f 230 231 966
f 231 232 966
f 232 233 966
f 233 234 966
f 234 235 966
f 235 220 966
f 236 700 990
f 974 990 700
f 714 712 496
f 983 496 237
f 237 496 238
f 238 496 239
f 239 496 240
f 240 496 241
f 241 496 990
f 496 712 990
f 712 242 990
f 242 243 990
f 243 244 990
f 244 245 990
f 245 236 990
f 246 247 1001
f 996 1001 247
f 248 249 1003
f 999 1003 250
f 250 1003 251
f 251 1003 252
f 252 1003 253
f 253 1003 254
f 254 1003 255
f 255 1003 1001
f 1003 249 1001
f 249 256 1001
f 256 257 1001
f 257 258 1001
f 258 259 1001
f 259 260 1001
f 260 246 1001
f 735 728 261
f 1007 261 728
f 743 269 1020
f 1016 1020 262
f 262 1020 263
f 263 1020 264
f 264 1020 265
f 265 1020 266
f 266 1020 267
f 267 1020 261
f 1020 269 261
f 269 268 261
f 268 269 261
f 269 735 261
f 746 270 271
f 272 271 270
f 406 745 273
f 508 273 274
f 274 273 271
f 273 745 271
f 745 275 271
f 275 276 271
f 276 746 271
f 277 278 279
f 1038 279 278
f 766 286 1047
f 280 1047 281
f 281 1047 282
f 282 1047 283
f 283 1047 284
f 284 1047 279
f 1047 286 279
f 286 285 279
f 285 286 279
f 286 287 279
f 287 277 279
f 773 767 290
f 288 290 767
f 782 293 1058
f 1057 1058 289
f 289 1058 290
f 290 1058 291
f 291 1058 290
f 1058 293 290
f 293 292 290
f 292 293 290
f 293 294 290
f 294 773 290
f 787 781 1068
f 295 1068 781
f 296 786 297
f 515 297 1068
f 297 786 1068
f 786 298 1068
f 298 299 1068
f 299 300 1068
f 300 787 1068
f 797 793 1081
f 301 1081 793
f 302 303 1082
f 304 1082 305
f 305 1082 306
f 306 1082 307
f 307 1082 308
f 308 1082 309
f 309 1082 310
f 310 1082 1081
f 1082 303 1081
f 303 797 1081
f 315 800 311
f 1090 311 800
f 312 807 521
f 313 521 314
f 314 521 311
f 521 807 311
f 807 315 311
f 316 814 317
f 1102 317 814
f 318 821 1115
f 1111 1115 319
f 319 1115 320
f 320 1115 321
f 321 1115 322
f 322 1115 317
f 1115 821 317
f 821 323 317
f 323 324 317
f 324 821 317
f 821 325 317
f 325 326 317
f 326 316 317
f 836 327 1119
f 1116 1119 327
f 328 426 1121
f 1120 1121 1119
f 1119 1121 329
f 329 1121 1119
f 1121 426 1119
f 426 836 1119
f 836 330 1119
f 330 836 1119
f 331 332 1134
f 333 1134 332
f 858 334 335
f 1135 335 1134
f 335 334 1134
f 334 336 1134
f 336 337 1134
f 337 338 1134
f 338 339 1134
f 339 340 1134
f 340 331 1134
f 860 857 341
f 1138 341 857
f 342 861 343
f 1148 343 344
f 344 343 345
f 345 343 346
f 346 343 347
f 347 343 341
f 343 861 341
f 861 348 341
f 348 349 341
f 349 350 341
f 350 351 341
f 351 352 341
f 352 860 341
f 877 353 1166
f 1155 1166 353
f 354 878 533
f 355 533 356
f 356 533 357
f 357 533 1166
f 1166 533 358
f 358 533 1166
f 533 878 1166
f 878 877 1166
f 359 881 1175
f 1171 1175 881
f 360 887 361
f 1174 361 1175
f 1175 361 362
f 362 361 1175
f 361 887 1175
f 887 363 1175
f 363 364 1175
f 364 365 1175
f 365 366 1175
f 366 359 1175
f 367 894 368
f 1178 368 894
f 2 369 901
f 901 369 368
f 369 367 368
f 2 1 774
f 1 9 774
f 9 11 774
f 11 13 774
f 13 15 774
f 15 17 774
f 17 19 774
f 19 21 774
f 370 774 21
f 21 23 370
f 371 370 23
f 23 25 371
f 25 27 371
f 27 29 371
f 29 31 371
f 31 33 371
f 33 35 371
f 35 372 371
f 38 40 372
f 1232 372 40
f 40 42 1232
f 438 1232 42
f 42 44 438
f 440 438 44
f 44 1188 440
f 47 49 1188
f 49 51 1188
f 1192 1188 51
f 51 53 1192
f 373 1192 53
f 53 55 373
f 1194 373 55
f 1194 58 374
f 61 63 375
f 375 66 447
f 376 447 66
f 66 68 376
f 72 376 68
f 68 70 72
f 76 78 74
f 78 1198 74
f 81 83 1198
f 1199 1198 83
f 1200 1199 86
f 86 88 1200
f 88 90 1200
f 377 1200 90
f 90 92 377
f 1201 377 92
f 455 96 457
f 100 379 378
f 460 379 103
f 103 105 460
f 380 460 105
f 105 107 380
f 631 380 107
f 107 109 631
f 1203 631 109
f 109 111 1203
f 567 1203 111
f 111 113 567
f 116 118 464
f 568 464 118
f 118 120 568
f 381 568 120
f 634 126 382
f 1207 382 1235
f 382 126 1235
f 129 131 1235
f 131 133 1235
f 133 135 1235
f 383 1235 135
f 135 384 383
f 139 141 385
f 143 145 141
f 145 147 141
f 386 141 147
f 147 149 386
f 569 386 149
f 149 151 569
f 151 153 569
f 1209 569 153
f 153 155 1209
f 155 157 1209
f 161 387 1210
f 387 388 1210
f 388 389 1210
f 643 391 390
f 390 391 389
f 389 391 1210
f 391 392 1210
f 392 633 1210
f 188 663 633
f 663 393 633
f 393 394 633
f 394 669 633
f 667 676 669
f 669 676 633
f 676 395 633
f 395 396 633
f 682 688 397
f 397 688 396
f 396 688 633
f 633 688 1217
f 692 222 697
f 697 222 1217
f 222 398 1217
f 398 399 1217
f 399 710 1217
f 1236 1217 710
f 712 714 400
f 400 714 710
f 710 714 1236
f 249 248 402
f 402 248 401
f 401 248 1236
f 248 403 1236
f 403 404 1236
f 404 736 1236
f 269 743 736
f 736 743 1236
f 743 405 1236
f 405 750 1236
f 745 406 750
f 750 406 1236
f 406 407 1236
f 407 752 1236
f 752 764 1236
f 286 766 764
f 764 766 1236
f 766 408 1236
f 408 774 1236
f 293 782 774
f 782 409 774
f 409 790 774
f 786 296 790
f 790 296 774
f 296 410 774
f 410 411 774
f 411 412 774
f 303 302 413
f 413 302 412
f 412 302 774
f 302 414 774
f 414 415 774
f 415 416 774
f 416 417 774
f 417 418 774
f 807 312 418
f 418 312 774
f 312 419 774
f 419 420 774
f 420 421 774
f 821 318 422
f 422 318 421
f 421 318 774
f 318 423 774
f 423 424 774
f 424 425 774
f 426 328 425
f 425 328 774
f 328 427 774
f 427 428 774
f 428 429 774
f 334 858 430
f 430 858 429
f 429 858 774
f 858 856 774
f 856 862 774
f 861 342 862
f 862 342 774
f 342 431 774
f 431 432 774
f 432 880 774
f 878 354 880
f 880 354 774
f 354 433 774
f 433 434 774
f 434 889 774
f 887 360 889
f 889 360 774
f 360 435 774
f 435 436 774
f 436 437 774
f 369 2 437
f 437 2 774
f 774 1187 1217
f 1187 1232 1216
f 1232 438 1216
f 439 440 1215
f 441 1192 1215
f 1191 1233 442
f 1195 1234 445
f 446 447 448
f 447 449 448
f 74 1198 1218
f 1199 1200 1218
f 450 377 451
f 377 452 451
f 453 454 1213
f 457 459 458
f 460 380 458
f 631 1203 461
f 462 463 1212
f 1206 466 467
f 382 1207 466
f 466 1207 467
f 1235 632 1211
f 632 1208 468
f 1208 383 468
f 383 469 468
f 1210 633 1217
f 1236 774 1217
f 3 4 473
f 4 471 473
f 471 472 473
f 10 3 473
f 12 10 473
f 14 12 473
f 16 14 473
f 18 16 473
f 20 18 473
f 22 20 473
f 24 22 473
f 26 24 473
f 28 26 473
f 30 28 473
f 32 30 473
f 34 32 473
f 37 36 473
f 34 473 36
f 39 37 473
f 41 39 473
f 43 41 473
f 45 43 473
f 46 45 473
f 48 46 473
f 50 48 473
f 52 50 473
f 54 52 473
f 57 56 473
f 54 473 56
f 59 57 473
f 60 59 473
f 62 60 473
f 64 62 473
f 65 64 473
f 67 65 473
f 69 67 473
f 71 69 473
f 73 71 473
f 75 73 473
f 77 75 473
f 79 77 473
f 80 79 473
f 82 80 473
f 84 82 473
f 85 84 473
f 87 85 473
f 89 87 473
f 91 89 473
f 93 91 473
f 94 93 473
f 95 94 473
f 97 95 473
f 98 97 473
f 99 98 473
f 101 99 473
f 102 101 473
f 104 102 473
f 106 104 473
f 108 106 473
f 110 108 473
f 112 110 473
f 115 114 473
f 112 473 114
f 117 115 473
f 119 117 473
f 125 119 474
f 473 474 119
f 127 125 475
f 474 475 125
f 128 127 473
f 475 473 127
f 130 128 473
f 132 130 473
f 134 132 473
f 136 134 473
f 137 136 473
f 138 137 473
f 140 138 473
f 142 140 473
f 144 142 473
f 146 144 473
f 148 146 473
f 150 148 473
f 152 150 473
f 154 152 910
f 473 910 152
f 156 154 910
f 158 156 910
f 159 158 910
f 160 159 910
f 164 160 910
f 167 164 910
f 476 910 936
f 170 914 477
f 477 914 920
f 920 914 936
f 914 478 936
f 478 476 936
f 479 920 936
f 939 932 936
f 932 480 936
f 480 481 936
f 481 482 936
f 482 479 936
f 483 936 1098
f 194 555 484
f 484 555 485
f 485 555 486
f 486 555 1098
f 555 487 1098
f 487 488 1098
f 488 489 1098
f 489 483 1098
f 490 486 1098
f 960 210 491
f 491 210 1098
f 210 492 1098
f 492 490 1098
f 493 491 1098
f 969 965 971
f 971 965 1098
f 965 494 1098
f 494 493 1098
f 495 971 1098
f 496 983 993
f 993 983 1098
f 983 497 1098
f 497 495 1098
f 498 993 1098
f 1003 999 499
f 499 999 500
f 500 999 1004
f 1004 999 1098
f 999 501 1098
f 501 498 1098
f 502 1004 1098
f 1020 1016 1019
f 1019 1016 1098
f 1016 503 1098
f 503 504 1098
f 504 505 1098
f 505 502 1098
f 506 1019 1098
f 273 508 507
f 507 508 1036
f 1036 508 1098
f 508 506 1098
f 509 1036 1098
f 1047 280 1046
f 1046 280 1098
f 280 510 1098
f 510 509 1098
f 511 1046 1098
f 1058 1057 1063
f 1063 1057 1098
f 1057 512 1098
f 512 511 1098
f 513 1063 1098
f 297 515 514
f 514 515 1072
f 1072 515 1098
f 515 516 1098
f 516 517 1098
f 517 513 1098
f 518 1072 1098
f 1082 304 1084
f 1084 304 1098
f 304 519 1098
f 519 518 1098
f 520 1084 1098
f 521 313 1098
f 313 522 1098
f 522 520 1098
f 523 1098 1114
f 1115 1111 1114
f 1111 524 1114
f 524 523 1114
f 525 1114 473
f 1121 1120 1125
f 1125 1120 473
f 1120 526 473
f 526 525 473
f 527 1125 473
f 335 1135 528
f 528 1135 1136
f 1136 1135 473
f 1135 529 473
f 529 527 473
f 530 1136 473
f 343 1148 1161
f 1161 1148 473
f 1148 531 473
f 531 530 473
f 532 1161 473
f 533 355 534
f 534 355 535
f 535 355 536
f 536 355 537
f 537 355 1168
f 1168 355 473
f 355 538 473
f 538 539 473
f 539 532 473
f 540 1168 473
f 361 1174 541
f 541 1174 1176
f 1174 542 473
f 542 540 473
f 543 1176 1174
f 1174 473 543
f 475 474 473
f 936 910 473
f 1098 936 473
f 1114 1098 473
f 701 222 544
f 249 402 724
f 728 248 545
f 793 296 547
f 303 413 797
f 800 302 548
f 814 312 549
f 831 318 550
f 845 328 846
f 334 430 852
f 870 342 551
f 881 354 552
f 936 554 939
f 280 281 1043
f 1063 561 1064
f 304 305 1080
f 313 314 1094
f 355 356 1166
f 1176 565 1178
f 468 569 570
f 569 1217 570
f 465 570 571
f 458 571 572
f 571 570 572
f 573 572 1218
f 1218 572 574
f 572 570 574
f 575 574 576
f 1215 576 577
f 576 574 577
f 577 574 1217
f 574 570 1217
f 166 578 163
f 579 163 578
f 169 580 166
f 578 166 580
f 165 581 582
f 170 921 391
f 583 180 179
f 182 584 181
f 585 181 584
f 939 586 663
f 193 587 662
f 194 588 676
f 207 679 675
f 209 589 208
f 590 208 589
f 960 591 688
f 220 693 685
f 221 592 966
f 969 593 222
f 544 222 593
f 236 594 700
f 974 595 990
f 596 990 595
f 496 994 714
f 246 597 247
f 598 247 597
f 1003 599 248
f 545 248 599
f 1017 261 1007
f 600 270 746
f 272 601 271
f 602 271 601
f 273 603 406
f 546 406 603
f 277 761 278
f 755 278 761
f 1042 279 1038
f 1047 604 766
f 288 605 290
f 1058 606 782
f 297 607 296
f 547 296 607
f 301 608 1081
f 1082 609 302
f 548 302 609
f 315 610 800
f 611 311 1090
f 521 612 312
f 549 312 612
f 316 613 814
f 614 317 1102
f 1115 615 318
f 550 318 615
f 830 327 836
f 1121 616 328
f 846 328 616
f 331 617 332
f 618 332 617
f 333 619 1134
f 335 1137 858
f 1138 620 341
f 1153 341 620
f 343 621 342
f 551 342 621
f 867 353 877
f 533 622 354
f 552 354 622
f 359 623 881
f 361 1177 360
f 895 360 1177
f 367 898 894
f 1178 624 368
f 625 368 624
f 368 625 901
f 626 901 625
f 371 774 370
f 372 1187 371
f 774 371 1187
f 1187 372 1232
f 439 438 440
f 1194 1233 373
f 1192 373 1233
f 1194 374 443
f 443 374 61
f 375 1234 61
f 1234 375 1196
f 1196 375 447
f 376 449 447
f 566 376 72
f 457 378 459
f 459 378 379
f 120 627 381
f 384 469 383
f 385 470 384
f 141 569 385
f 470 385 569
f 386 569 141
f 440 1188 1215
f 1192 1189 1215
f 1233 1193 442
f 1219 442 1193
f 443 628 444
f 1234 629 445
f 575 445 629
f 449 566 448
f 1214 448 566
f 452 630 451
f 573 451 630
f 454 455 1213
f 459 460 458
f 380 631 458
f 463 1205 1212
f 469 470 468
f 123 124 634
f 122 123 634
f 121 122 634
f 634 627 121
f 120 121 627
f 627 634 635
f 636 637 161
f 387 161 637
f 637 636 638
f 638 636 639
f 639 636 640
f 640 636 641
f 641 636 642
f 642 636 579
f 161 162 636
f 162 163 636
f 579 636 163
f 175 174 643
f 176 175 643
f 177 176 643
f 178 177 643
f 643 580 178
f 169 178 580
f 580 643 644
f 644 643 645
f 645 643 646
f 646 643 647
f 647 643 648
f 648 643 649
f 390 389 643
f 649 643 389
f 650 651 391
f 392 391 651
f 651 650 652
f 391 653 650
f 652 650 653
f 654 655 391
f 653 391 655
f 655 654 583
f 656 657 391
f 657 658 391
f 654 391 658
f 658 180 654
f 583 654 180
f 190 189 188
f 191 190 188
f 192 191 188
f 188 179 192
f 179 188 659
f 659 188 660
f 660 188 661
f 661 188 633
f 663 662 393
f 394 393 662
f 662 663 664
f 203 202 667
f 205 204 667
f 206 205 667
f 667 587 206
f 193 206 587
f 587 667 665
f 665 667 666
f 666 667 668
f 668 667 669
f 670 671 676
f 395 676 671
f 670 676 675
f 675 672 670
f 671 670 672
f 672 675 673
f 673 675 674
f 675 676 677
f 682 678 215
f 216 215 678
f 217 216 678
f 218 217 678
f 219 218 678
f 678 679 219
f 207 219 679
f 679 678 680
f 680 678 681
f 682 683 678
f 681 678 683
f 397 396 682
f 683 682 396
f 1217 688 684
f 684 688 686
f 686 688 687
f 687 688 685
f 688 689 685
f 689 690 685
f 690 691 685
f 230 229 692
f 231 230 692
f 232 231 692
f 233 232 692
f 234 233 692
f 235 234 692
f 692 693 235
f 220 235 693
f 693 692 694
f 694 692 695
f 695 692 696
f 696 692 697
f 398 222 698
f 698 699 398
f 399 398 699
f 700 699 698
f 698 222 701
f 702 700 698
f 544 703 701
f 703 704 701
f 704 705 701
f 698 701 705
f 702 698 705
f 705 706 702
f 700 702 706
f 242 712 707
f 243 242 707
f 244 243 707
f 245 244 707
f 707 594 245
f 236 245 594
f 594 707 708
f 708 707 709
f 709 707 711
f 710 713 707
f 711 707 713
f 707 712 400
f 710 707 400
f 1236 714 715
f 715 714 716
f 716 714 717
f 717 714 718
f 718 714 719
f 719 714 598
f 598 714 247
f 256 249 724
f 257 256 724
f 258 257 724
f 259 258 724
f 260 259 724
f 724 597 260
f 246 260 597
f 597 724 720
f 720 724 721
f 721 724 722
f 722 724 723
f 723 724 725
f 402 401 724
f 725 724 401
f 403 248 727
f 727 728 403
f 728 726 403
f 404 403 726
f 727 248 728
f 545 729 728
f 729 730 728
f 730 731 728
f 731 732 728
f 732 733 728
f 733 734 728
f 736 737 269
f 735 269 737
f 405 743 738
f 738 743 739
f 739 743 740
f 741 742 743
f 740 743 742
f 743 600 741
f 742 741 600
f 600 743 270
f 275 745 744
f 744 745 275
f 276 275 745
f 745 746 276
f 745 747 746
f 747 745 748
f 748 745 749
f 750 751 745
f 749 745 751
f 407 406 756
f 756 752 407
f 752 756 753
f 753 756 754
f 754 756 755
f 546 757 406
f 757 758 406
f 756 406 758
f 758 759 756
f 759 760 756
f 760 278 756
f 755 756 278
f 286 761 287
f 277 287 761
f 761 286 762
f 762 286 763
f 764 763 286
f 408 766 765
f 765 766 767
f 768 769 766
f 769 770 766
f 770 771 766
f 767 766 771
f 292 293 772
f 772 293 292
f 293 773 294
f 774 775 293
f 773 293 775
f 775 774 776
f 776 774 777
f 777 774 778
f 409 782 779
f 779 782 780
f 780 782 781
f 783 784 782
f 784 785 782
f 781 782 785
f 299 298 786
f 786 787 299
f 300 299 787
f 787 786 788
f 790 789 786
f 788 786 789
f 789 790 791
f 410 296 793
f 411 410 793
f 547 792 793
f 794 795 793
f 796 797 798
f 413 412 797
f 798 797 412
f 414 302 800
f 800 799 414
f 415 414 799
f 799 800 415
f 416 415 800
f 417 416 800
f 548 801 800
f 801 802 800
f 802 803 800
f 803 804 800
f 804 805 800
f 805 806 800
f 807 808 315
f 610 315 808
f 808 807 809
f 809 807 810
f 810 807 811
f 811 807 418
f 419 312 814
f 814 812 419
f 420 419 812
f 812 814 813
f 549 815 814
f 815 816 814
f 816 817 814
f 817 818 814
f 818 819 814
f 819 820 814
f 324 323 821
f 326 325 821
f 821 613 326
f 316 326 613
f 613 821 822
f 822 821 823
f 823 821 824
f 824 821 825
f 825 821 826
f 422 421 821
f 826 821 421
f 423 318 831
f 831 827 423
f 424 423 827
f 827 831 828
f 327 829 831
f 828 831 829
f 327 831 832
f 832 833 327
f 833 834 327
f 834 835 327
f 426 425 836
f 427 328 845
f 845 837 427
f 428 427 837
f 837 845 838
f 838 845 839
f 840 841 845
f 839 845 841
f 841 840 843
f 842 844 840
f 843 840 844
f 844 842 618
f 846 840 845
f 847 848 840
f 842 840 848
f 848 849 842
f 849 332 842
f 618 842 332
f 336 334 852
f 337 336 852
f 338 337 852
f 339 338 852
f 340 339 852
f 852 617 340
f 331 340 617
f 617 852 850
f 850 852 851
f 851 852 853
f 853 852 854
f 854 852 855
f 430 429 852
f 855 852 429
f 856 858 857
f 348 861 859
f 859 860 348
f 349 348 860
f 350 349 860
f 351 350 860
f 352 351 860
f 860 859 861
f 861 862 860
f 431 342 868
f 868 869 431
f 869 864 431
f 864 863 431
f 432 431 863
f 863 864 865
f 865 864 866
f 869 867 864
f 866 864 867
f 872 867 869
f 868 342 870
f 869 868 870
f 871 872 869
f 551 873 870
f 873 874 870
f 874 869 870
f 869 875 871
f 875 876 871
f 872 871 876
f 876 353 872
f 867 872 353
f 877 878 879
f 879 878 880
f 433 354 881
f 434 433 881
f 552 882 881
f 882 883 881
f 883 884 881
f 884 885 881
f 364 363 887
f 887 886 364
f 365 364 886
f 886 887 365
f 366 365 887
f 887 623 366
f 359 366 623
f 623 887 888
f 889 890 887
f 888 887 890
f 435 360 895
f 895 894 435
f 894 891 435
f 436 435 891
f 891 894 892
f 892 894 893
f 896 897 894
f 367 369 898
f 898 369 899
f 899 369 900
f 900 369 437
f 4 901 471
f 472 471 901
f 901 902 472
f 473 472 902
f 902 901 903
f 903 901 904
f 904 901 905
f 905 901 906
f 906 901 907
f 907 901 626
f 5 6 4
f 901 4 6
f 6 7 901
f 7 8 901
f 165 167 581
f 581 167 908
f 908 167 909
f 910 911 167
f 909 167 911
f 914 912 478
f 912 913 478
f 476 478 913
f 913 912 915
f 915 912 916
f 582 917 912
f 916 912 917
f 917 582 918
f 912 914 919
f 919 582 912
f 171 172 914
f 919 914 172
f 172 173 919
f 582 919 173
f 920 925 477
f 925 921 477
f 170 477 921
f 921 925 922
f 922 925 923
f 923 925 924
f 924 925 926
f 553 927 920
f 925 920 927
f 927 928 925
f 928 584 925
f 584 182 925
f 926 925 182
f 481 480 932
f 932 933 481
f 482 481 933
f 933 929 482
f 479 482 929
f 929 933 930
f 930 933 931
f 931 933 585
f 183 184 932
f 184 185 932
f 933 932 185
f 185 186 933
f 186 181 933
f 585 933 181
f 586 939 934
f 934 939 935
f 935 939 937
f 937 939 938
f 938 939 940
f 554 941 939
f 941 942 939
f 942 943 939
f 940 939 943
f 488 487 555
f 555 944 488
f 489 488 944
f 483 489 944
f 195 196 555
f 196 197 555
f 944 555 197
f 197 198 944
f 198 199 944
f 199 200 944
f 200 201 944
f 485 486 948
f 948 945 485
f 484 485 945
f 945 588 484
f 194 484 588
f 588 945 946
f 949 947 945
f 946 945 947
f 945 948 949
f 949 948 950
f 950 948 951
f 486 952 948
f 952 953 948
f 953 954 948
f 954 589 948
f 589 209 948
f 951 948 209
f 492 210 955
f 955 490 492
f 490 955 956
f 956 955 957
f 957 955 958
f 958 955 959
f 959 955 590
f 211 212 210
f 955 210 212
f 212 213 955
f 213 214 955
f 214 208 955
f 590 955 208
f 960 491 962
f 962 961 960
f 962 491 963
f 963 964 962
f 964 592 962
f 592 221 962
f 965 968 494
f 968 966 494
f 493 494 966
f 223 224 965
f 968 965 224
f 224 225 968
f 225 226 968
f 226 227 968
f 227 228 968
f 228 966 968
f 971 976 969
f 976 970 969
f 593 969 970
f 972 976 971
f 972 971 976
f 974 975 976
f 973 976 975
f 975 974 977
f 556 978 971
f 978 979 971
f 979 980 971
f 976 971 980
f 980 981 976
f 981 982 976
f 974 976 982
f 982 595 974
f 983 985 497
f 985 984 497
f 495 497 984
f 984 985 986
f 983 987 985
f 987 988 985
f 986 985 988
f 991 989 987
f 988 987 989
f 990 991 987
f 989 991 992
f 990 596 991
f 992 991 596
f 237 238 983
f 238 239 983
f 987 983 239
f 239 240 987
f 240 241 987
f 990 987 241
f 496 993 996
f 496 996 994
f 996 995 994
f 995 996 997
f 997 996 998
f 557 996 993
f 999 1001 501
f 498 501 1001
f 1000 1001 999
f 1000 999 1001
f 1001 999 250
f 250 251 1001
f 251 252 1001
f 252 253 1001
f 253 254 1001
f 254 255 1001
f 1004 1002 500
f 499 500 1002
f 1002 1003 499
f 1004 1007 1002
f 599 1003 1005
f 1005 1003 1006
f 1007 1003 1002
f 1007 1008 1003
f 1006 1003 1008
f 1008 1007 1009
f 1009 1007 1010
f 1004 1011 1007
f 504 503 1016
f 1016 1018 504
f 505 504 1018
f 1018 1012 505
f 502 505 1012
f 1012 1018 1013
f 1013 1018 1014
f 1014 1018 1015
f 1015 1018 1017
f 262 263 1016
f 263 264 1016
f 264 265 1016
f 1018 1016 265
f 265 266 1018
f 266 267 1018
f 267 261 1018
f 1017 1018 261
f 558 1021 1019
f 1021 1022 1019
f 1020 1019 1022
f 1022 1023 1020
f 1023 1024 1020
f 1024 601 1020
f 601 272 1020
f 1029 1025 508
f 506 508 1025
f 1025 1029 1026
f 1026 1029 1027
f 1027 1029 1028
f 1028 1029 602
f 508 274 1029
f 274 271 1029
f 602 1029 271
f 1036 1031 507
f 1031 1030 507
f 1030 603 507
f 273 507 603
f 603 1030 1032
f 1036 1033 1031
f 1032 1030 1031
f 1033 1036 1034
f 1033 1035 1031
f 1033 1034 1038
f 559 1037 1036
f 1037 1038 1036
f 1034 1036 1038
f 510 280 1043
f 1043 1039 510
f 509 510 1039
f 1039 1043 1040
f 1040 1043 1041
f 1041 1043 1042
f 281 282 1043
f 282 283 1043
f 283 284 1043
f 284 279 1043
f 1042 1043 279
f 604 1047 1044
f 1044 1047 1045
f 1045 1047 1048
f 1047 1046 1051
f 1048 1047 1049
f 1050 1051 1046
f 1049 1047 1051
f 560 1052 1046
f 1052 1053 1046
f 1050 1046 1053
f 1053 1054 1050
f 1054 1055 1050
f 1055 605 1050
f 605 288 1050
f 1057 1056 512
f 1056 290 512
f 290 511 512
f 1057 290 1056
f 289 290 1057
f 1064 1059 1058
f 1059 1060 1058
f 606 1058 1060
f 1064 1061 1059
f 1061 1062 1059
f 1060 1059 1062
f 1058 1063 1064
f 1062 1061 1064
f 561 1065 1064
f 1065 1066 1064
f 1066 1067 1064
f 1067 295 1064
f 516 515 1068
f 517 516 1068
f 513 517 1068
f 1072 1069 514
f 1069 607 514
f 297 514 607
f 1069 1072 1075
f 607 1069 1070
f 1070 1069 1071
f 1075 1073 1069
f 1071 1069 1073
f 1073 1075 1074
f 1076 1077 1072
f 1075 1072 1077
f 1077 1078 1075
f 1078 608 1075
f 608 301 1075
f 519 304 1080
f 1080 1081 519
f 1081 1079 519
f 518 519 1079
f 305 306 1080
f 1081 1080 306
f 306 307 1081
f 307 308 1081
f 308 309 1081
f 309 310 1081
f 1085 609 1082
f 1084 1085 1082
f 609 1085 1083
f 1090 1085 1084
f 1086 1085 1087
f 1090 1089 1085
f 1087 1085 1089
f 1088 1084 1090
f 1084 1088 1090
f 522 313 1095
f 1095 1091 522
f 520 522 1091
f 1091 1095 1092
f 1092 1095 1093
f 1094 1096 1095
f 1093 1095 1096
f 1095 313 1094
f 1096 1094 611
f 314 311 1094
f 611 1094 311
f 1098 612 521
f 1098 1099 612
f 1097 612 1099
f 1103 1100 1098
f 1100 1101 1098
f 1099 1098 1101
f 1101 1100 1103
f 1103 1098 1104
f 1104 1105 1103
f 1105 1106 1103
f 1106 1102 1103
f 1111 1107 524
f 1107 1108 524
f 523 524 1108
f 1108 1107 1109
f 1109 1107 1110
f 1110 1107 1112
f 1107 1111 1113
f 1113 614 1107
f 1112 1107 614
f 319 320 1111
f 320 321 1111
f 1113 1111 321
f 321 322 1113
f 322 317 1113
f 614 1113 317
f 1115 1114 1116
f 1115 1116 1117
f 1117 1116 1118
f 1120 1119 526
f 525 526 1119
f 1121 1125 1122
f 1122 1123 1121
f 616 1121 1123
f 1123 1122 1124
f 1127 1126 1122
f 1126 1127 1128
f 562 1129 1125
f 1129 1130 1125
f 1122 1125 1130
f 1130 1131 1122
f 1131 1132 1122
f 1132 619 1122
f 1127 1122 619
f 619 333 1127
f 1128 1127 333
f 1135 1134 529
f 1134 1133 529
f 527 529 1133
f 1136 1137 528
f 335 528 1137
f 1138 1139 1137
f 1139 1142 1137
f 1140 1137 1136
f 1138 1142 1139
f 563 1143 1136
f 1140 1136 1143
f 1143 1144 1140
f 1137 1140 1144
f 1141 1137 1144
f 1144 1145 1141
f 1145 1146 1141
f 1137 1141 1146
f 1146 620 1137
f 1138 1137 620
f 1148 1149 531
f 1149 1147 531
f 530 531 1147
f 1147 1149 1150
f 1148 1154 1149
f 1150 1149 1151
f 1154 1152 1149
f 1151 1149 1152
f 1152 1154 1153
f 344 345 1148
f 345 346 1148
f 346 347 1148
f 1154 1148 347
f 347 341 1154
f 1153 1154 341
f 1161 1155 343
f 1155 621 343
f 621 1155 1156
f 1156 1155 1157
f 1157 1155 1158
f 1158 1155 1159
f 1159 1155 1160
f 1160 1155 1162
f 564 1155 1161
f 538 355 1166
f 1166 1165 538
f 539 538 1165
f 1165 1163 539
f 532 539 1163
f 1163 1165 1164
f 1164 1165 1166
f 356 357 1166
f 536 537 1168
f 1168 1170 536
f 535 536 1170
f 534 535 1170
f 1170 1167 534
f 533 534 1167
f 1167 622 533
f 1167 1170 1169
f 1169 1170 1167
f 622 1167 1170
f 1172 1171 1168
f 1170 1168 1171
f 1170 1171 1173
f 1172 1168 1171
f 1174 1175 542
f 540 542 1175
f 1176 1177 541
f 361 541 1177
f 1178 1177 1176
f 1177 1178 1179
f 1179 1178 1180
f 1180 1178 1181
f 565 1182 1178
f 1182 1183 1178
f 1183 1184 1178
f 1184 1185 1178
f 1185 1186 1178
f 1186 624 1178
f 1189 1192 1190
f 1190 1192 1191
f 1233 1194 1193
f 443 61 628
f 628 61 1195
f 1234 1196 629
f 1197 1196 446
f 449 376 566
f 452 1201 630
f 630 1201 1202
f 1202 1201 453
f 1203 567 1204
f 1204 567 462
f 463 116 1205
f 1205 116 464
f 464 568 1206
f 382 466 381
f 469 384 470
f 465 467 570
f 571 1212 465
f 573 1213 572
f 575 1214 574
f 576 444 575
f 578 1220 579
f 642 579 1220
f 1220 1221 642
f 641 642 1221
f 1221 1222 641
f 640 641 1222
f 1222 1223 640
f 639 640 1223
f 1223 1224 639
f 638 639 1224
f 1224 1225 638
f 637 638 1225
f 1225 388 637
f 387 637 388
f 580 644 578
f 1220 578 644
f 644 645 1220
f 1221 1220 645
f 645 646 1221
f 1222 1221 646
f 646 647 1222
f 1223 1222 647
f 647 648 1223
f 1224 1223 648
f 648 649 1224
f 1225 1224 649
f 649 389 1225
f 388 1225 389
f 918 582 581
f 581 908 918
f 917 918 908
f 908 909 917
f 916 917 909
f 915 916 909
f 909 911 915
f 913 915 911
f 911 910 913
f 476 913 910
f 921 922 391
f 922 923 391
f 656 391 923
f 923 924 656
f 657 656 924
f 924 926 657
f 658 657 926
f 926 182 658
f 180 658 182
f 655 583 179
f 179 659 655
f 653 655 659
f 659 660 653
f 652 653 660
f 660 661 652
f 651 652 661
f 661 633 651
f 392 651 633
f 584 928 585
f 931 585 928
f 928 927 931
f 930 931 927
f 927 553 930
f 929 930 553
f 553 920 929
f 479 929 920
f 586 934 663
f 934 935 663
f 935 937 663
f 937 938 663
f 938 940 663
f 664 663 940
f 940 943 664
f 662 664 943
f 587 665 662
f 665 666 662
f 666 668 662
f 668 669 662
f 394 662 669
f 943 942 944
f 942 941 944
f 941 554 944
f 554 936 944
f 483 944 936
f 588 946 676
f 946 947 676
f 947 949 676
f 949 950 676
f 677 676 950
f 950 951 677
f 951 209 677
f 675 677 209
f 679 680 675
f 674 675 680
f 680 681 674
f 673 674 681
f 681 683 673
f 672 673 683
f 671 672 683
f 683 396 671
f 395 671 396
f 589 954 590
f 959 590 954
f 958 959 954
f 954 953 958
f 957 958 953
f 953 952 957
f 956 957 952
f 952 486 956
f 490 956 486
f 591 960 688
f 960 961 688
f 689 688 961
f 961 962 689
f 690 689 962
f 691 690 962
f 962 221 691
f 685 691 221
f 693 694 685
f 694 695 685
f 687 685 695
f 695 696 687
f 686 687 696
f 696 697 686
f 684 686 697
f 1217 684 697
f 592 964 966
f 964 963 966
f 967 966 963
f 963 491 967
f 966 967 491
f 493 966 491
f 593 970 544
f 703 544 970
f 970 976 703
f 704 703 976
f 976 973 704
f 705 704 973
f 973 975 705
f 975 977 705
f 706 705 977
f 977 974 706
f 700 706 974
f 594 708 700
f 708 709 700
f 709 711 700
f 699 700 711
f 711 713 699
f 713 710 699
f 399 699 710
f 595 982 596
f 992 596 982
f 982 981 992
f 989 992 981
f 981 980 989
f 988 989 980
f 980 979 988
f 986 988 979
f 979 978 986
f 978 556 986
f 984 986 556
f 556 971 984
f 495 984 971
f 994 995 714
f 995 997 714
f 997 998 714
f 998 996 714
f 247 714 996
f 597 720 598
f 719 598 720
f 720 721 719
f 718 719 721
f 721 722 718
f 717 718 722
f 722 723 717
f 716 717 723
f 723 725 716
f 715 716 725
f 725 401 715
f 1236 715 401
f 996 557 1001
f 557 993 1001
f 498 1001 993
f 599 1005 545
f 729 545 1005
f 1005 1006 729
f 730 729 1006
f 731 730 1006
f 1006 1008 731
f 732 731 1008
f 1008 1009 732
f 733 732 1009
f 1009 1010 733
f 734 733 1010
f 1010 1007 734
f 728 734 1007
f 735 737 728
f 726 728 737
f 737 736 726
f 404 726 736
f 1015 1017 1007
f 1014 1015 1007
f 1007 1011 1014
f 1013 1014 1011
f 1011 1004 1013
f 1012 1013 1004
f 502 1012 1004
f 1020 272 743
f 270 743 272
f 746 747 600
f 742 600 747
f 747 748 742
f 740 742 748
f 748 749 740
f 739 740 749
f 749 751 739
f 738 739 751
f 751 750 738
f 405 738 750
f 601 1024 602
f 1028 602 1024
f 1024 1023 1028
f 1023 1022 1028
f 1027 1028 1022
f 1022 1021 1027
f 1026 1027 1021
f 1021 558 1026
f 1025 1026 558
f 558 1019 1025
f 506 1025 1019
f 603 1032 546
f 757 546 1032
f 1032 1031 757
f 758 757 1031
f 1031 1035 758
f 759 758 1035
f 1035 1033 759
f 760 759 1033
f 1033 1038 760
f 278 760 1038
f 754 755 761
f 761 762 754
f 753 754 762
f 762 763 753
f 763 764 753
f 752 753 764
f 1041 1042 1038
f 1038 1037 1041
f 1040 1041 1037
f 1037 559 1040
f 1039 1040 559
f 559 1036 1039
f 509 1039 1036
f 604 1044 766
f 1044 1045 766
f 1045 1048 766
f 768 766 1048
f 1048 1049 768
f 769 768 1049
f 1049 1051 769
f 770 769 1051
f 1051 1050 770
f 771 770 1050
f 1050 288 771
f 767 771 288
f 773 775 767
f 775 776 767
f 776 777 767
f 777 778 767
f 765 767 778
f 778 774 765
f 408 765 774
f 605 1055 290
f 1055 1054 290
f 1054 1053 290
f 1053 1052 290
f 1052 560 290
f 511 290 560
f 560 1046 511
f 606 1060 782
f 783 782 1060
f 1060 1062 783
f 784 783 1062
f 1062 1064 784
f 785 784 1064
f 1064 295 785
f 781 785 295
f 787 788 781
f 788 789 781
f 780 781 789
f 789 791 780
f 779 780 791
f 791 790 779
f 409 779 790
f 295 1067 1068
f 1067 1066 1068
f 1066 1065 1068
f 1065 561 1068
f 561 1063 1068
f 513 1068 1063
f 607 1070 547
f 792 547 1070
f 1070 1071 792
f 793 792 1071
f 1071 1073 793
f 1073 1074 793
f 1074 1075 793
f 794 793 1075
f 795 794 1075
f 1075 301 795
f 793 795 301
f 797 796 793
f 796 798 793
f 798 412 793
f 411 793 412
f 608 1078 1081
f 1078 1077 1081
f 1077 1076 1081
f 1076 1072 1081
f 1079 1081 1072
f 518 1079 1072
f 609 1083 548
f 801 548 1083
f 1083 1085 801
f 802 801 1085
f 803 802 1085
f 1085 1086 803
f 804 803 1086
f 1086 1087 804
f 805 804 1087
f 1087 1089 805
f 806 805 1089
f 1089 1090 806
f 800 806 1090
f 610 808 800
f 808 809 800
f 809 810 800
f 810 811 800
f 811 418 800
f 417 800 418
f 1096 611 1090
f 1093 1096 1090
f 1092 1093 1090
f 1090 1084 1092
f 1091 1092 1084
f 520 1091 1084
f 815 549 612
f 612 1097 815
f 816 815 1097
f 1097 1099 816
f 817 816 1099
f 1099 1101 817
f 818 817 1101
f 1101 1103 818
f 819 818 1103
f 820 819 1103
f 1103 1102 820
f 814 820 1102
f 613 822 814
f 822 823 814
f 823 824 814
f 824 825 814
f 813 814 825
f 825 826 813
f 812 813 826
f 826 421 812
f 420 812 421
f 1112 614 1102
f 1110 1112 1102
f 1102 1106 1110
f 1106 1105 1110
f 1109 1110 1105
f 1105 1104 1109
f 1108 1109 1104
f 1104 1098 1108
f 523 1108 1098
f 615 1115 550
f 831 550 1115
f 832 831 1115
f 833 832 1115
f 1115 1117 833
f 834 833 1117
f 1117 1118 834
f 835 834 1118
f 1118 1116 835
f 327 835 1116
f 327 830 836
f 829 327 836
f 828 829 836
f 827 828 836
f 836 425 827
f 424 827 425
f 1116 1114 1119
f 525 1119 1114
f 616 1123 846
f 1123 1124 846
f 840 846 1124
f 1124 1122 840
f 847 840 1122
f 1122 1126 847
f 848 847 1126
f 1126 1128 848
f 849 848 1128
f 1128 333 849
f 332 849 333
f 617 850 618
f 844 618 850
f 843 844 850
f 850 851 843
f 841 843 851
f 851 853 841
f 839 841 853
f 853 854 839
f 838 839 854
f 854 855 838
f 837 838 855
f 855 429 837
f 428 837 429
f 619 1132 1134
f 1132 1131 1134
f 1131 1130 1134
f 1130 1129 1134
f 1129 562 1134
f 1133 1134 562
f 562 1125 1133
f 527 1133 1125
f 1137 1142 858
f 1142 1138 858
f 857 858 1138
f 860 862 857
f 856 857 862
f 620 1146 1153
f 1146 1145 1153
f 1152 1153 1145
f 1145 1144 1152
f 1151 1152 1144
f 1144 1143 1151
f 1150 1151 1143
f 1143 563 1150
f 1147 1150 563
f 563 1136 1147
f 530 1147 1136
f 621 1156 551
f 873 551 1156
f 1156 1157 873
f 874 873 1157
f 1157 1158 874
f 869 874 1158
f 1158 1159 869
f 1159 1160 869
f 875 869 1160
f 1160 1162 875
f 876 875 1162
f 1162 1155 876
f 353 876 1155
f 866 867 877
f 877 879 866
f 865 866 879
f 879 880 865
f 863 865 880
f 432 863 880
f 1164 1166 1155
f 1155 564 1164
f 1163 1164 564
f 564 1161 1163
f 532 1163 1161
f 882 552 622
f 622 1170 882
f 883 882 1170
f 884 883 1170
f 1170 1173 884
f 885 884 1173
f 1173 1171 885
f 881 885 1171
f 623 888 881
f 888 890 881
f 890 889 881
f 434 881 889
f 1171 1168 1175
f 540 1175 1168
f 894 895 1177
f 1177 1179 894
f 1179 1180 894
f 896 894 1180
f 1180 1181 896
f 897 896 1181
f 1181 1178 897
f 894 897 1178
f 898 899 894
f 893 894 899
f 892 893 899
f 899 900 892
f 891 892 900
f 900 437 891
f 436 891 437
f 624 1186 625
f 1226 625 1186
f 1186 1185 1226
f 1227 1226 1185
f 1185 1184 1227
f 1228 1227 1184
f 1184 1183 1228
f 1229 1228 1183
f 1183 1182 1229
f 1230 1229 1182
f 1182 565 1230
f 1231 1230 565
f 565 1176 1231
f 543 1231 1176
f 625 1226 626
f 907 626 1226
f 1226 1227 907
f 906 907 1227
f 1227 1228 906
f 905 906 1228
f 1228 1229 905
f 904 905 1229
f 1229 1230 904
f 903 904 1230
f 1230 1231 903
f 902 903 1231
f 1231 543 902
f 473 902 543
f 441 1188 1192
f 1191 1192 1233
f 1195 61 1234
f 446 1196 447
f 450 1200 377
f 1201 452 377
f 455 454 1201
f 453 1201 454
f 457 456 455
f 460 459 379
f 462 567 463
f 116 463 567
f 381 466 568
f 1206 568 466
f 627 635 381
f 635 634 381
f 382 381 634
f 632 1235 1208
f 1208 1235 383
f 577 1217 1187
f 1216 577 1187
f 438 439 1216
f 577 1216 439
f 1215 577 439
f 1188 441 1215
f 576 1215 1189
f 1189 1190 576
f 1219 576 1190
f 1190 1191 1219
f 442 1219 1191
f 1193 1194 1219
f 576 1219 1194
f 444 576 1194
f 1194 443 444
f 575 444 628
f 628 1195 575
f 445 575 1195
f 629 1196 575
f 1196 1197 575
f 1214 575 1197
f 1197 446 1214
f 448 1214 446
f 574 1214 566
f 72 574 566
f 574 72 74
f 1218 574 74
f 1198 1199 1218
f 573 1218 1200
f 1200 450 573
f 451 573 450
f 630 1202 573
f 1202 453 573
f 1213 573 453
f 572 1213 455
f 456 572 455
f 572 456 457
f 458 572 457
f 571 458 631
f 461 571 631
f 1203 1204 461
f 571 461 1204
f 1204 462 571
f 1212 571 462
f 465 1212 1205
f 1205 464 465
f 464 1206 465
f 467 465 1206
f 570 467 1207
f 1211 570 1207
f 1207 1235 1211
f 570 1211 632
f 468 570 632
f 569 468 470
f 569 1209 1217
f 1210 1217 1209
