# USD → MuJoCo (world-space)
v 3.780010 -3.500000 0.035000
v 3.780010 -3.500000 0.085000
v 3.770010 -3.490000 0.085000
v 3.770010 -3.490000 0.035000
v 3.780010 -3.380000 0.035000
v 3.780010 -3.380000 0.085000
v 3.770010 -3.380000 0.085000
v 3.770010 -3.380000 0.035000
v 3.780010 -2.170000 0.035000
v 3.780010 -2.170000 0.085000
v 3.770010 -2.170000 0.085000
v 3.770010 -2.170000 0.035000
v 3.780010 -2.040000 0.035000
v 3.780010 -2.040000 0.085000
v 3.770010 -2.040000 0.085000
v 3.770010 -2.040000 0.035000
v 3.780010 -0.830000 0.035000
v 3.780010 -0.830000 0.085000
v 3.770010 -0.830000 0.085000
v 3.770010 -0.830000 0.035000
v 3.780010 -0.700000 0.035000
v 3.780010 -0.700000 0.085000
v 3.770010 -0.700000 0.085000
v 3.770010 -0.700000 0.035000
v 3.780010 0.510000 0.035000
v 3.780010 0.510000 0.085000
v 3.770010 0.510000 0.085000
v 3.770010 0.510000 0.035000
v 3.780010 0.640000 0.035000
v 3.780010 0.640000 0.085000
v 3.770010 0.640000 0.085000
v 3.770010 0.640000 0.035000
v 3.780010 1.850000 0.035000
v 3.780010 1.850000 0.085000
v 3.770010 1.850000 0.085000
v 3.770010 1.850000 0.035000
v 3.780010 1.980000 0.035000
v 3.780010 1.980000 0.085000
v 3.770010 1.980000 0.085000
v 3.770010 1.980000 0.035000
v 3.780010 3.190000 0.035000
v 3.780010 3.190000 0.085000
v 3.770010 3.190000 0.085000
v 3.770010 3.190000 0.035000
v 3.780010 3.320000 0.035000
v 3.780010 3.320000 0.085000
v 3.770010 3.310010 0.035000
v 3.770010 3.310010 0.085000
v -0.105000 -3.500000 0.035000
v -0.105000 -3.500000 0.085000
v -0.095000 -3.490000 0.085000
v -0.095000 -3.490000 0.035000
v -0.055000 -3.500000 0.035000
v -0.055000 -3.500000 0.085000
v -0.045000 -3.490000 0.035000
v -0.045000 -3.490000 0.085000
v 1.395000 -3.500000 0.035000
v 1.395000 -3.500000 0.085000
v 1.385000 -3.490000 0.085000
v 1.385000 -3.490000 0.035000
v 2.015010 -3.500000 0.035000
v 2.015010 -3.500000 0.085000
v 2.015010 -3.490000 0.085000
v 2.015010 -3.490000 0.035000
v 3.175010 -3.500000 0.035000
v 3.175010 -3.500000 0.085000
v 3.175010 -3.490000 0.085000
v 3.175010 -3.490000 0.035000
v 3.780010 -3.500000 0.035000
v 3.780010 -3.500000 0.085000
v 3.770010 -3.490000 0.035000
v 3.770010 -3.490000 0.085000
v 1.395000 -3.620000 0.035000
v 1.395000 -3.620000 0.085000
v 1.385000 -3.620000 0.085000
v 1.385000 -3.620000 0.035000
v 1.385000 -3.490000 0.035000
v -0.045000 -3.490000 0.035000
v -0.055000 -3.620000 0.035000
v -0.055000 -3.620000 0.085000
v -0.045000 -3.620000 0.085000
v -0.045000 -3.620000 0.035000
v -0.105000 0.820000 0.035000
v -0.105000 0.820000 0.085000
v -0.095000 0.830000 0.085000
v -0.095000 0.830000 0.035000
v -0.105000 0.640000 0.035000
v -0.105000 0.640000 0.085000
v -0.095000 0.630000 0.035000
v -0.095000 0.630000 0.085000
v -0.105000 -0.810000 0.035000
v -0.105000 -0.810000 0.085000
v -0.095000 -0.800000 0.085000
v -0.095000 -0.800000 0.035000
v -0.105000 -0.930000 0.035000
v -0.105000 -0.930000 0.085000
v -0.095000 -0.930000 0.085000
v -0.095000 -0.930000 0.035000
v -0.105000 -2.090000 0.035000
v -0.105000 -2.090000 0.085000
v -0.095000 -2.090000 0.085000
v -0.095000 -2.090000 0.035000
v -0.105000 -2.220000 0.035000
v -0.105000 -2.220000 0.085000
v -0.095000 -2.220000 0.085000
v -0.095000 -2.220000 0.035000
v -0.105000 -3.380000 0.035000
v -0.105000 -3.380000 0.085000
v -0.095000 -3.380000 0.085000
v -0.095000 -3.380000 0.035000
v -0.095000 -3.490000 0.035000
v -0.225000 0.820000 0.035000
v -0.225000 0.820000 0.085000
v -0.225000 0.830000 0.085000
v -0.225000 0.830000 0.035000
v -1.505000 0.820000 0.035000
v -1.505000 0.820000 0.085000
v -1.495000 0.830000 0.085000
v -1.495000 0.830000 0.035000
v -1.505000 3.320000 0.035000
v -1.505000 3.320000 0.085000
v -1.495000 3.310010 0.085000
v -1.495000 3.310010 0.035000
v -1.505000 2.120000 0.035000
v -1.505000 2.120000 0.085000
v -1.495000 2.110000 0.035000
v -1.495000 2.110000 0.085000
v -1.505000 1.070000 0.035000
v -1.505000 1.070000 0.085000
v -1.495000 1.080000 0.085000
v -1.495000 1.080000 0.035000
v -1.220000 3.320000 0.035000
v -1.220000 3.320000 0.085000
v -1.220000 3.310010 0.085000
v -1.220000 3.310010 0.035000
v -1.495000 3.310010 0.035000
v 3.770010 3.310010 0.035000
v -3.780000 0.700000 0.035000
v -3.780000 0.700000 0.085000
v -3.770000 0.690000 0.085000
v -3.770000 0.690000 0.035000
v -3.780000 0.450000 0.035000
v -3.780000 0.450000 0.085000
v -3.770000 0.450000 0.085000
v -3.770000 0.450000 0.035000
v -3.780000 -0.680000 0.035000
v -3.780000 -0.680000 0.085000
v -3.770000 -0.680000 0.085000
v -3.770000 -0.680000 0.035000
v -3.780000 -0.880000 0.035000
v -3.780000 -0.880000 0.085000
v -3.770000 -0.880000 0.085000
v -3.770000 -0.880000 0.035000
v -3.780000 -2.010000 0.035000
v -3.780000 -2.010000 0.085000
v -3.770000 -2.010000 0.085000
v -3.770000 -2.010000 0.035000
v -3.780000 -2.210000 0.035000
v -3.780000 -2.210000 0.085000
v -3.770000 -2.210000 0.085000
v -3.770000 -2.210000 0.035000
v -3.780000 -3.340000 0.035000
v -3.780000 -3.340000 0.085000
v -3.770000 -3.340000 0.085000
v -3.770000 -3.340000 0.035000
v -3.780000 -3.500000 0.035000
v -3.780000 -3.500000 0.085000
v -3.770000 -3.490000 0.035000
v -3.770000 -3.490000 0.085000
v -3.770000 -3.490000 0.035000
v -3.380000 -3.500000 0.035000
v -3.380000 -3.500000 0.085000
v -3.380000 -3.490000 0.085000
v -3.380000 -3.490000 0.035000
v -2.250000 -3.500000 0.035000
v -2.250000 -3.500000 0.085000
v -2.250000 -3.490000 0.085000
v -2.250000 -3.490000 0.035000
v -1.755000 -3.500000 0.035000
v -1.755000 -3.500000 0.085000
v -1.755000 -3.490000 0.085000
v -1.755000 -3.490000 0.035000
v -0.625000 -3.500000 0.035000
v -0.625000 -3.500000 0.085000
v -0.625000 -3.490000 0.085000
v -0.625000 -3.490000 0.035000
v -0.225000 -3.500000 0.035000
v -0.225000 -3.500000 0.085000
v -0.235000 -3.490000 0.035000
v -0.235000 -3.490000 0.085000
v -0.225000 -3.500000 0.035000
v -0.225000 -3.500000 0.085000
v -0.235000 -3.490000 0.085000
v -0.235000 -3.490000 0.035000
v -0.225000 -3.380000 0.035000
v -0.225000 -3.380000 0.085000
v -0.235000 -3.380000 0.085000
v -0.235000 -3.380000 0.035000
v -0.225000 -2.220000 0.035000
v -0.225000 -2.220000 0.085000
v -0.235000 -2.220000 0.085000
v -0.235000 -2.220000 0.035000
v -0.225000 -2.090000 0.035000
v -0.225000 -2.090000 0.085000
v -0.235000 -2.090000 0.085000
v -0.235000 -2.090000 0.035000
v -0.225000 -0.930000 0.035000
v -0.225000 -0.930000 0.085000
v -0.235000 -0.930000 0.085000
v -0.235000 -0.930000 0.035000
v -0.225000 -0.810000 0.035000
v -0.225000 -0.810000 0.085000
v -0.235000 -0.800000 0.035000
v -0.235000 -0.800000 0.085000
v -0.225000 0.640000 0.035000
v -0.225000 0.640000 0.085000
v -0.235000 0.630000 0.085000
v -0.235000 0.630000 0.035000
v -0.225000 0.700000 0.035000
v -0.225000 0.700000 0.085000
v -0.235000 0.690000 0.035000
v -0.235000 0.690000 0.085000
v -3.770000 0.690000 0.085000
v -3.770000 0.690000 0.035000
v -1.625000 3.320000 0.035000
v -1.625000 3.320000 0.085000
v -1.635000 3.310010 0.085000
v -1.635000 3.310010 0.035000
v -3.675000 3.320000 0.035000
v -3.675000 3.320000 0.085000
v -3.665000 3.310010 0.035000
v -3.665000 3.310010 0.085000
v -3.675000 0.820000 0.035000
v -3.675000 0.820000 0.085000
v -3.665000 0.830000 0.085000
v -3.665000 0.830000 0.035000
v -1.625000 0.820000 0.035000
v -1.625000 0.820000 0.085000
v -1.635000 0.830000 0.035000
v -1.635000 0.830000 0.085000
v -1.625000 1.070000 0.035000
v -1.625000 1.070000 0.085000
v -1.635000 1.080000 0.035000
v -1.635000 1.080000 0.085000
v -1.625000 2.120000 0.035000
v -1.625000 2.120000 0.085000
v -1.635000 2.110000 0.085000
v -1.635000 2.110000 0.035000
vt 0.000000 0.000000
vt 0.000000 -50.000000
vt 14.142140 -50.000000
vt 14.142140 -50.000000
vt 14.142140 0.000000
vt 0.000000 0.000000
vt 0.000000 0.000000
vt 0.000000 50.000000
vt 10.000000 50.000000
vt 10.000000 50.000000
vt 10.000000 0.000000
vt 0.000000 0.000000
vt 0.000000 0.000000
vt 0.120000 0.050000
vt 0.000000 0.050000
vt 0.000000 0.000000
vt 0.120000 0.000000
vt 0.120000 0.050000
vt 0.000000 0.050000
vt 0.120000 0.050000
vt 0.010000 0.060000
vt 0.120000 0.050000
vt 0.120000 0.060000
vt 0.010000 0.060000
vt 0.010000 0.060000
vt 0.120000 0.110000
vt 0.010000 0.110000
vt 0.010000 0.060000
vt 0.120000 0.060000
vt 0.120000 0.110000
vt 0.010000 0.110000
vt 0.120000 0.120000
vt 0.000000 0.120000
vt 0.010000 0.110000
vt 0.120000 0.110000
vt 0.120000 0.120000
vt 0.000000 0.000000
vt 0.000000 -50.000000
vt 10.000000 -50.000000
vt 10.000000 -50.000000
vt 10.000000 0.000000
vt 0.000000 0.000000
vt 0.000000 0.000000
vt 0.000000 50.000000
vt 10.000000 50.000000
vt 10.000000 50.000000
vt 10.000000 0.000000
vt 0.000000 0.000000
vt 0.000000 0.000000
vt 1.210000 0.050000
vt 0.000000 0.050000
vt 0.000000 0.000000
vt 1.210000 0.000000
vt 1.210000 0.050000
vt 0.000000 0.050000
vt 1.210000 0.060000
vt 0.000000 0.060000
vt 0.000000 0.050000
vt 1.210000 0.050000
vt 1.210000 0.060000
vt 0.000000 0.060000
vt 1.210000 0.110000
vt 0.000000 0.110000
vt 0.000000 0.060000
vt 1.210000 0.060000
vt 1.210000 0.110000
vt 0.000000 0.110000
vt 1.210000 0.120000
vt 0.000000 0.120000
vt 0.000000 0.110000
vt 1.210000 0.110000
vt 1.210000 0.120000
vt 0.000000 0.000000
vt 0.000000 -50.000000
vt 10.000000 -50.000000
vt 10.000000 -50.000000
vt 10.000000 0.000000
vt 0.000000 0.000000
vt 0.000000 0.000000
vt 0.000000 50.000000
vt 10.000000 50.000000
vt 10.000000 50.000000
vt 10.000000 0.000000
vt 0.000000 0.000000
vt 0.000000 0.000000
vt 0.130000 0.050000
vt 0.000000 0.050000
vt 0.000000 0.000000
vt 0.130000 0.000000
vt 0.130000 0.050000
vt 0.000000 0.050000
vt 0.130000 0.060000
vt 0.000000 0.060000
vt 0.000000 0.050000
vt 0.130000 0.050000
vt 0.130000 0.060000
vt 0.000000 0.060000
vt 0.130000 0.110000
vt 0.000000 0.110000
vt 0.000000 0.060000
vt 0.130000 0.060000
vt 0.130000 0.110000
vt 0.000000 0.110000
vt 0.130000 0.120000
vt 0.000000 0.120000
vt 0.000000 0.110000
vt 0.130000 0.110000
vt 0.130000 0.120000
vt 0.000000 0.000000
vt 0.000000 -50.000000
vt 10.000000 -50.000000
vt 10.000000 -50.000000
vt 10.000000 0.000000
vt 0.000000 0.000000
vt 0.000000 0.000000
vt 0.000000 50.000000
vt 10.000000 50.000000
vt 10.000000 50.000000
vt 10.000000 0.000000
vt 0.000000 0.000000
vt 0.000000 0.000000
vt 1.210000 0.050000
vt 0.000000 0.050000
vt 0.000000 0.000000
vt 1.210000 0.000000
vt 1.210000 0.050000
vt 0.000000 0.050000
vt 1.210000 0.060000
vt 0.000000 0.060000
vt 0.000000 0.050000
vt 1.210000 0.050000
vt 1.210000 0.060000
vt 0.000000 0.060000
vt 1.210000 0.110000
vt 0.000000 0.110000
vt 0.000000 0.060000
vt 1.210000 0.060000
vt 1.210000 0.110000
vt 0.000000 0.110000
vt 1.210000 0.120000
vt 0.000000 0.120000
vt 0.000000 0.110000
vt 1.210000 0.110000
vt 1.210000 0.120000
vt 0.000000 0.000000
vt 0.000000 -50.000000
vt 10.000000 -50.000000
vt 10.000000 -50.000000
vt 10.000000 0.000000
vt 0.000000 0.000000
vt 0.000000 0.000000
vt 0.000000 50.000000
vt 10.000000 50.000000
vt 10.000000 50.000000
vt 10.000000 0.000000
vt 0.000000 0.000000
vt 0.000000 0.000000
vt 0.130000 0.050000
vt 0.000000 0.050000
vt 0.000000 0.000000
vt 0.130000 0.000000
vt 0.130000 0.050000
vt 0.000000 0.050000
vt 0.130000 0.060000
vt 0.000000 0.060000
vt 0.000000 0.050000
vt 0.130000 0.050000
vt 0.130000 0.060000
vt 0.000000 0.060000
vt 0.130000 0.110000
vt 0.000000 0.110000
vt 0.000000 0.060000
vt 0.130000 0.060000
vt 0.130000 0.110000
vt 0.000000 0.110000
vt 0.130000 0.120000
vt 0.000000 0.120000
vt 0.000000 0.110000
vt 0.130000 0.110000
vt 0.130000 0.120000
vt 0.000000 0.000000
vt 0.000000 -50.000000
vt 10.000000 -50.000000
vt 10.000000 -50.000000
vt 10.000000 0.000000
vt 0.000000 0.000000
vt 0.000000 0.000000
vt 0.000000 50.000000
vt 10.000000 50.000000
vt 10.000000 50.000000
vt 10.000000 0.000000
vt 0.000000 0.000000
vt 0.000000 0.000000
vt 1.210000 0.050000
vt 0.000000 0.050000
vt 0.000000 0.000000
vt 1.210000 0.000000
vt 1.210000 0.050000
vt 0.000000 0.050000
vt 1.210000 0.060000
vt 0.000000 0.060000
vt 0.000000 0.050000
vt 1.210000 0.050000
vt 1.210000 0.060000
vt 0.000000 0.060000
vt 1.210000 0.110000
vt 0.000000 0.110000
vt 0.000000 0.060000
vt 1.210000 0.060000
vt 1.210000 0.110000
vt 0.000000 0.110000
vt 1.210000 0.120000
vt 0.000000 0.120000
vt 0.000000 0.110000
vt 1.210000 0.110000
vt 1.210000 0.120000
vt 0.000000 0.000000
vt 0.000000 -50.000000
vt 10.000000 -50.000000
vt 10.000000 -50.000000
vt 10.000000 0.000000
vt 0.000000 0.000000
vt 0.000000 0.000000
vt 0.000000 50.000000
vt 10.000000 50.000000
vt 10.000000 50.000000
vt 10.000000 0.000000
vt 0.000000 0.000000
vt 0.000000 0.000000
vt 0.130000 0.050000
vt 0.000000 0.050000
vt 0.000000 0.000000
vt 0.130000 0.000000
vt 0.130000 0.050000
vt 0.000000 0.050000
vt 0.130000 0.060000
vt 0.000000 0.060000
vt 0.000000 0.050000
vt 0.130000 0.050000
vt 0.130000 0.060000
vt 0.000000 0.060000
vt 0.130000 0.110000
vt 0.000000 0.110000
vt 0.000000 0.060000
vt 0.130000 0.060000
vt 0.130000 0.110000
vt 0.000000 0.110000
vt 0.130000 0.120000
vt 0.000000 0.120000
vt 0.000000 0.110000
vt 0.130000 0.110000
vt 0.130000 0.120000
vt 0.000000 0.000000
vt 0.000000 -50.000000
vt 10.000000 -50.000000
vt 10.000000 -50.000000
vt 10.000000 0.000000
vt 0.000000 0.000000
vt 0.000000 0.000000
vt 0.000000 50.000000
vt 10.000000 50.000000
vt 10.000000 50.000000
vt 10.000000 0.000000
vt 0.000000 0.000000
vt 0.000000 0.000000
vt 1.210000 0.050000
vt 0.000000 0.050000
vt 0.000000 0.000000
vt 1.210000 0.000000
vt 1.210000 0.050000
vt 0.000000 0.050000
vt 1.210000 0.060000
vt 0.000000 0.060000
vt 0.000000 0.050000
vt 1.210000 0.050000
vt 1.210000 0.060000
vt 0.000000 0.060000
vt 1.210000 0.110000
vt 0.000000 0.110000
vt 0.000000 0.060000
vt 1.210000 0.060000
vt 1.210000 0.110000
vt 0.000000 0.110000
vt 1.210000 0.120000
vt 0.000000 0.120000
vt 0.000000 0.110000
vt 1.210000 0.110000
vt 1.210000 0.120000
vt 0.000000 0.000000
vt 0.000000 -50.000000
vt 10.000000 -50.000000
vt 10.000000 -50.000000
vt 10.000000 0.000000
vt 0.000000 0.000000
vt 0.000000 0.000000
vt 0.000000 50.000000
vt 10.000000 50.000000
vt 10.000000 50.000000
vt 10.000000 0.000000
vt 0.000000 0.000000
vt 0.000000 0.000000
vt 0.130000 0.050000
vt 0.000000 0.050000
vt 0.000000 0.000000
vt 0.130000 0.000000
vt 0.130000 0.050000
vt 0.000000 0.050000
vt 0.130000 0.060000
vt 0.000000 0.060000
vt 0.000000 0.050000
vt 0.130000 0.050000
vt 0.130000 0.060000
vt 0.000000 0.060000
vt 0.130000 0.110000
vt 0.000000 0.110000
vt 0.000000 0.060000
vt 0.130000 0.060000
vt 0.130000 0.110000
vt 0.000000 0.110000
vt 0.130000 0.120000
vt 0.000000 0.120000
vt 0.000000 0.110000
vt 0.130000 0.110000
vt 0.130000 0.120000
vt 0.000000 0.000000
vt 0.000000 -50.000000
vt 10.000000 -50.000000
vt 10.000000 -50.000000
vt 10.000000 0.000000
vt 0.000000 0.000000
vt 0.000000 0.000000
vt 0.000000 50.000000
vt 10.000000 50.000000
vt 10.000000 50.000000
vt 10.000000 0.000000
vt 0.000000 0.000000
vt 0.000000 0.000000
vt 1.210000 0.050000
vt 0.000000 0.050000
vt 0.000000 0.000000
vt 1.210000 0.000000
vt 1.210000 0.050000
vt 0.000000 0.050000
vt 1.210000 0.060000
vt 0.000000 0.060000
vt 0.000000 0.050000
vt 1.210000 0.050000
vt 1.210000 0.060000
vt 0.000000 0.060000
vt 1.210000 0.110000
vt 0.000000 0.110000
vt 0.000000 0.060000
vt 1.210000 0.060000
vt 1.210000 0.110000
vt 0.000000 0.110000
vt 1.210000 0.120000
vt 0.000000 0.120000
vt 0.000000 0.110000
vt 1.210000 0.110000
vt 1.210000 0.120000
vt 0.000000 0.000000
vt 0.000000 -50.000000
vt 10.000000 -50.000000
vt 10.000000 -50.000000
vt 10.000000 0.000000
vt 0.000000 0.000000
vt 0.000000 0.000000
vt 0.000000 50.000000
vt 14.142140 0.000000
vt 0.000000 50.000000
vt 14.142140 50.000000
vt 14.142140 0.000000
vt 0.000000 0.000000
vt 0.130000 0.050000
vt 0.000000 0.050000
vt 0.000000 0.000000
vt 0.130000 0.000000
vt 0.130000 0.050000
vt 0.000000 0.050000
vt 0.120000 0.060000
vt 0.000000 0.060000
vt 0.000000 0.050000
vt 0.130000 0.050000
vt 0.120000 0.060000
vt 0.000000 0.060000
vt 0.120000 0.110000
vt 0.000000 0.110000
vt 0.000000 0.060000
vt 0.120000 0.060000
vt 0.120000 0.110000
vt 0.000000 0.110000
vt 0.130000 0.120000
vt 0.000000 0.120000
vt 0.000000 0.110000
vt 0.120000 0.110000
vt 0.130000 0.120000
vt 0.000000 0.000000
vt 0.000000 -50.000000
vt 14.142140 -50.000000
vt 14.142140 -50.000000
vt 14.142140 0.000000
vt 0.000000 0.000000
vt 0.000000 0.000000
vt 0.000000 50.000000
vt 14.142140 -0.000000
vt 0.000000 50.000000
vt 14.142140 50.000000
vt 14.142140 -0.000000
vt 0.000000 0.000000
vt 0.050000 0.050000
vt 0.000000 0.050000
vt 0.000000 0.000000
vt 0.050000 0.000000
vt 0.050000 0.050000
vt 0.000000 0.050000
vt 0.050000 0.050000
vt 0.010000 0.060000
vt 0.050000 0.050000
vt 0.060000 0.060000
vt 0.010000 0.060000
vt 0.010000 0.060000
vt 0.060000 0.110000
vt 0.010000 0.110000
vt 0.010000 0.060000
vt 0.060000 0.060000
vt 0.060000 0.110000
vt 0.010000 0.110000
vt 0.050000 0.120000
vt 0.000000 0.120000
vt 0.010000 0.110000
vt 0.060000 0.110000
vt 0.050000 0.120000
vt 0.000000 0.000000
vt 0.000000 -50.000000
vt 14.142140 -50.000000
vt 14.142140 -50.000000
vt 14.142140 0.000000
vt 0.000000 0.000000
vt 0.000000 0.000000
vt -50.000000 0.000000
vt -50.000000 10.000000
vt -50.000000 10.000000
vt 0.000000 10.000000
vt 0.000000 0.000000
vt 0.000000 0.000000
vt 0.620000 0.050000
vt 0.000000 0.050000
vt 0.000000 0.000000
vt 0.620000 0.000000
vt 0.620000 0.050000
vt 0.000000 0.050000
vt 0.620000 0.060000
vt -0.010000 0.060000
vt 0.000000 0.050000
vt 0.620000 0.050000
vt 0.620000 0.060000
vt -0.010000 0.060000
vt 0.620000 0.110000
vt -0.010000 0.110000
vt -0.010000 0.060000
vt 0.620000 0.060000
vt 0.620000 0.110000
vt -0.010000 0.110000
vt 0.620000 0.110000
vt 0.000000 0.120000
vt 0.620000 0.110000
vt 0.620000 0.120000
vt 0.000000 0.120000
vt 0.000000 0.000000
vt -50.000000 0.000000
vt -50.000000 -10.000000
vt -50.000000 -10.000000
vt 0.000000 -10.000000
vt 0.000000 0.000000
vt 0.000000 0.000000
vt -50.000000 0.000000
vt -50.000000 10.000000
vt -50.000000 10.000000
vt 0.000000 10.000000
vt 0.000000 0.000000
vt 0.000000 0.000000
vt 1.160000 0.050000
vt 0.000000 0.050000
vt 0.000000 0.000000
vt 1.160000 0.000000
vt 1.160000 0.050000
vt 0.000000 0.050000
vt 1.160000 0.060000
vt 0.000000 0.060000
vt 0.000000 0.050000
vt 1.160000 0.050000
vt 1.160000 0.060000
vt 0.000000 0.060000
vt 1.160000 0.110000
vt 0.000000 0.110000
vt 0.000000 0.060000
vt 1.160000 0.060000
vt 1.160000 0.110000
vt 0.000000 0.110000
vt 1.160000 0.120000
vt 0.000000 0.120000
vt 0.000000 0.110000
vt 1.160000 0.110000
vt 1.160000 0.120000
vt 0.000000 0.000000
vt -50.000000 0.000000
vt -50.000000 -10.000000
vt -50.000000 -10.000000
vt 0.000000 -10.000000
vt 0.000000 0.000000
vt 0.000000 0.000000
vt 0.000000 50.000000
vt 14.142140 -0.000000
vt 0.000000 50.000000
vt 14.142140 50.000000
vt 14.142140 -0.000000
vt 0.000000 0.000000
vt 0.605000 0.050000
vt 0.000000 0.050000
vt 0.000000 0.000000
vt 0.605000 0.000000
vt 0.605000 0.050000
vt 0.000000 0.050000
vt 0.595000 0.060000
vt 0.000000 0.060000
vt 0.000000 0.050000
vt 0.605000 0.050000
vt 0.595000 0.060000
vt 0.000000 0.060000
vt 0.595000 0.110000
vt 0.000000 0.110000
vt 0.000000 0.060000
vt 0.595000 0.060000
vt 0.595000 0.110000
vt 0.000000 0.110000
vt 0.605000 0.120000
vt 0.000000 0.120000
vt 0.000000 0.110000
vt 0.595000 0.110000
vt 0.605000 0.120000
vt 0.000000 0.000000
vt 0.000000 -50.000000
vt 10.000000 -50.000000
vt 10.000000 -50.000000
vt 10.000000 0.000000
vt 0.000000 0.000000
vt 0.000000 0.000000
vt 0.000000 50.000000
vt 14.142140 0.000000
vt 0.000000 50.000000
vt 14.142140 50.000000
vt 14.142140 0.000000
vt 0.000000 0.000000
vt 0.120000 0.050000
vt 0.000000 0.050000
vt 0.000000 0.000000
vt 0.120000 0.000000
vt 0.120000 0.050000
vt 0.000000 0.050000
vt 0.130000 0.060000
vt 0.000000 0.060000
vt 0.000000 0.050000
vt 0.120000 0.050000
vt 0.130000 0.060000
vt 0.000000 0.060000
vt 0.130000 0.110000
vt 0.000000 0.110000
vt 0.000000 0.060000
vt 0.130000 0.060000
vt 0.130000 0.110000
vt 0.000000 0.110000
vt 0.120000 0.120000
vt 0.000000 0.120000
vt 0.000000 0.110000
vt 0.130000 0.110000
vt 0.120000 0.120000
vt 0.000000 0.000000
vt 0.000000 -50.000000
vt 14.142140 -50.000000
vt 14.142140 -50.000000
vt 14.142140 0.000000
vt 0.000000 0.000000
vt 0.000000 0.000000
vt 0.000000 50.000000
vt 10.000000 50.000000
vt 10.000000 50.000000
vt 10.000000 0.000000
vt 0.000000 0.000000
vt 0.000000 0.000000
vt 0.120000 0.050000
vt 0.000000 0.050000
vt 0.000000 0.000000
vt 0.120000 0.000000
vt 0.120000 0.050000
vt 0.000000 0.050000
vt 0.120000 0.060000
vt -0.010000 0.060000
vt 0.000000 0.050000
vt 0.120000 0.050000
vt 0.120000 0.060000
vt -0.010000 0.060000
vt 0.120000 0.110000
vt -0.010000 0.110000
vt -0.010000 0.060000
vt 0.120000 0.060000
vt 0.120000 0.110000
vt -0.010000 0.110000
vt 0.120000 0.110000
vt 0.000000 0.120000
vt 0.120000 0.110000
vt 0.120000 0.120000
vt 0.000000 0.120000
vt 0.000000 0.000000
vt 0.000000 -50.000000
vt 14.142140 -50.000000
vt 14.142140 -50.000000
vt 14.142140 0.000000
vt 0.000000 0.000000
vt 0.000000 0.000000
vt 0.000000 50.000000
vt 14.142140 0.000000
vt 0.000000 50.000000
vt 14.142140 50.000000
vt 14.142140 0.000000
vt 0.000000 0.000000
vt 0.180000 0.050000
vt 0.000000 0.050000
vt 0.000000 0.000000
vt 0.180000 0.000000
vt 0.180000 0.050000
vt 0.000000 0.050000
vt 0.190000 0.060000
vt -0.010000 0.060000
vt 0.000000 0.050000
vt 0.180000 0.050000
vt 0.190000 0.060000
vt -0.010000 0.060000
vt 0.190000 0.110000
vt -0.010000 0.110000
vt -0.010000 0.060000
vt 0.190000 0.060000
vt 0.190000 0.110000
vt -0.010000 0.110000
vt 0.190000 0.110000
vt 0.000000 0.120000
vt 0.190000 0.110000
vt 0.180000 0.120000
vt 0.000000 0.120000
vt 0.000000 0.000000
vt 0.000000 -50.000000
vt 14.142140 -50.000000
vt 14.142140 -50.000000
vt 14.142140 0.000000
vt 0.000000 0.000000
vt 0.000000 0.000000
vt 0.000000 50.000000
vt 10.000000 50.000000
vt 10.000000 50.000000
vt 10.000000 0.000000
vt 0.000000 0.000000
vt 0.000000 0.000000
vt 0.120000 0.050000
vt 0.000000 0.050000
vt 0.000000 0.000000
vt 0.120000 0.000000
vt 0.120000 0.050000
vt 0.000000 0.050000
vt 0.120000 0.060000
vt -0.010000 0.060000
vt 0.000000 0.050000
vt 0.120000 0.050000
vt 0.120000 0.060000
vt -0.010000 0.060000
vt 0.120000 0.110000
vt -0.010000 0.110000
vt -0.010000 0.060000
vt 0.120000 0.060000
vt 0.120000 0.110000
vt -0.010000 0.110000
vt 0.120000 0.110000
vt 0.000000 0.120000
vt 0.120000 0.110000
vt 0.120000 0.120000
vt 0.000000 0.120000
vt 0.000000 0.000000
vt 0.000000 -50.000000
vt 10.000000 -50.000000
vt 10.000000 -50.000000
vt 10.000000 0.000000
vt 0.000000 0.000000
vt 0.000000 0.000000
vt 0.000000 50.000000
vt 10.000000 50.000000
vt 10.000000 50.000000
vt 10.000000 0.000000
vt 0.000000 0.000000
vt 0.000000 0.000000
vt 1.160000 0.050000
vt 0.000000 0.050000
vt 0.000000 0.000000
vt 1.160000 0.000000
vt 1.160000 0.050000
vt 0.000000 0.050000
vt 1.160000 0.060000
vt 0.000000 0.060000
vt 0.000000 0.050000
vt 1.160000 0.050000
vt 1.160000 0.060000
vt 0.000000 0.060000
vt 1.160000 0.110000
vt 0.000000 0.110000
vt 0.000000 0.060000
vt 1.160000 0.060000
vt 1.160000 0.110000
vt 0.000000 0.110000
vt 1.160000 0.120000
vt 0.000000 0.120000
vt 0.000000 0.110000
vt 1.160000 0.110000
vt 1.160000 0.120000
vt 0.000000 0.000000
vt 0.000000 -50.000000
vt 10.000000 -50.000000
vt 10.000000 -50.000000
vt 10.000000 0.000000
vt 0.000000 0.000000
vt 0.000000 0.000000
vt 0.000000 50.000000
vt 10.000000 50.000000
vt 10.000000 50.000000
vt 10.000000 0.000000
vt 0.000000 0.000000
vt 0.000000 0.000000
vt 0.130000 0.050000
vt 0.000000 0.050000
vt 0.000000 0.000000
vt 0.130000 0.000000
vt 0.130000 0.050000
vt 0.000000 0.050000
vt 0.130000 0.060000
vt 0.000000 0.060000
vt 0.000000 0.050000
vt 0.130000 0.050000
vt 0.130000 0.060000
vt 0.000000 0.060000
vt 0.130000 0.110000
vt 0.000000 0.110000
vt 0.000000 0.060000
vt 0.130000 0.060000
vt 0.130000 0.110000
vt 0.000000 0.110000
vt 0.130000 0.120000
vt 0.000000 0.120000
vt 0.000000 0.110000
vt 0.130000 0.110000
vt 0.130000 0.120000
vt 0.000000 0.000000
vt 0.000000 -50.000000
vt 10.000000 -50.000000
vt 10.000000 -50.000000
vt 10.000000 0.000000
vt 0.000000 0.000000
vt 0.000000 0.000000
vt 0.000000 50.000000
vt 10.000000 50.000000
vt 10.000000 50.000000
vt 10.000000 0.000000
vt 0.000000 0.000000
vt 0.000000 0.000000
vt 1.160000 0.050000
vt 0.000000 0.050000
vt 0.000000 0.000000
vt 1.160000 0.000000
vt 1.160000 0.050000
vt 0.000000 0.050000
vt 1.160000 0.060000
vt 0.000000 0.060000
vt 0.000000 0.050000
vt 1.160000 0.050000
vt 1.160000 0.060000
vt 0.000000 0.060000
vt 1.160000 0.110000
vt 0.000000 0.110000
vt 0.000000 0.060000
vt 1.160000 0.060000
vt 1.160000 0.110000
vt 0.000000 0.110000
vt 1.160000 0.120000
vt 0.000000 0.120000
vt 0.000000 0.110000
vt 1.160000 0.110000
vt 1.160000 0.120000
vt 0.000000 0.000000
vt 0.000000 -50.000000
vt 10.000000 -50.000000
vt 10.000000 -50.000000
vt 10.000000 0.000000
vt 0.000000 0.000000
vt 0.000000 0.000000
vt 0.000000 50.000000
vt 14.142140 0.000000
vt 0.000000 50.000000
vt 14.142140 50.000000
vt 14.142140 0.000000
vt 0.000000 0.000000
vt 0.120000 0.050000
vt 0.000000 0.050000
vt 0.000000 0.000000
vt 0.120000 0.000000
vt 0.120000 0.050000
vt 0.000000 0.050000
vt 0.110000 0.060000
vt 0.000000 0.060000
vt 0.000000 0.050000
vt 0.120000 0.050000
vt 0.110000 0.060000
vt 0.000000 0.060000
vt 0.110000 0.110000
vt 0.000000 0.110000
vt 0.000000 0.060000
vt 0.110000 0.060000
vt 0.110000 0.110000
vt 0.000000 0.110000
vt 0.120000 0.120000
vt 0.000000 0.120000
vt 0.000000 0.110000
vt 0.110000 0.110000
vt 0.120000 0.120000
vt 0.000000 0.000000
vt -50.000000 0.000000
vt -50.000000 -10.000000
vt -50.000000 -10.000000
vt 0.000000 -10.000000
vt 0.000000 0.000000
vt 0.000000 0.000000
vt 0.000000 50.000000
vt 14.142140 0.000000
vt 0.000000 50.000000
vt 14.142140 50.000000
vt 14.142140 0.000000
vt 0.000000 0.000000
vt 0.120000 0.050000
vt 0.000000 0.050000
vt 0.000000 0.000000
vt 0.120000 0.000000
vt 0.120000 0.050000
vt 0.000000 0.050000
vt 0.130000 0.060000
vt 0.000000 0.060000
vt 0.000000 0.050000
vt 0.120000 0.050000
vt 0.130000 0.060000
vt 0.000000 0.060000
vt 0.130000 0.110000
vt 0.000000 0.110000
vt 0.000000 0.060000
vt 0.130000 0.060000
vt 0.130000 0.110000
vt 0.000000 0.110000
vt 0.120000 0.120000
vt 0.000000 0.120000
vt 0.000000 0.110000
vt 0.130000 0.110000
vt 0.120000 0.120000
vt 0.000000 0.000000
vt 0.000000 -50.000000
vt 14.142140 -50.000000
vt 14.142140 -50.000000
vt 14.142140 0.000000
vt 0.000000 0.000000
vt 0.000000 0.000000
vt -50.000000 0.000000
vt -50.000000 10.000000
vt -50.000000 10.000000
vt 0.000000 10.000000
vt 0.000000 0.000000
vt 0.000000 0.000000
vt 1.280000 0.050000
vt 0.000000 0.050000
vt 0.000000 0.000000
vt 1.280000 0.000000
vt 1.280000 0.050000
vt 0.000000 0.050000
vt 1.280000 0.050000
vt 0.010000 0.060000
vt 1.280000 0.050000
vt 1.280000 0.060000
vt 0.010000 0.060000
vt 0.010000 0.060000
vt 1.280000 0.110000
vt 0.010000 0.110000
vt 0.010000 0.060000
vt 1.280000 0.060000
vt 1.280000 0.110000
vt 0.010000 0.110000
vt 1.280000 0.120000
vt 0.000000 0.120000
vt 0.010000 0.110000
vt 1.280000 0.110000
vt 1.280000 0.120000
vt 0.000000 0.000000
vt 0.000000 -50.000000
vt 14.142140 -50.000000
vt 14.142140 -50.000000
vt 14.142140 0.000000
vt 0.000000 0.000000
vt 0.000000 0.000000
vt 0.000000 50.000000
vt 14.142140 0.000000
vt 0.000000 50.000000
vt 14.142140 50.000000
vt 14.142140 0.000000
vt 0.000000 0.000000
vt 1.200000 0.050000
vt 0.000000 0.050000
vt 0.000000 0.000000
vt 1.200000 0.000000
vt 1.200000 0.050000
vt 0.000000 0.050000
vt 1.200000 0.050000
vt 0.010000 0.060000
vt 1.200000 0.050000
vt 1.210000 0.060000
vt 0.010000 0.060000
vt 0.010000 0.060000
vt 1.210000 0.110000
vt 0.010000 0.110000
vt 0.010000 0.060000
vt 1.210000 0.060000
vt 1.210000 0.110000
vt 0.010000 0.110000
vt 1.200000 0.120000
vt 0.000000 0.120000
vt 0.010000 0.110000
vt 1.210000 0.110000
vt 1.200000 0.120000
vt 0.000000 0.000000
vt 0.000000 -50.000000
vt 14.142140 -50.000000
vt 14.142140 -50.000000
vt 14.142140 0.000000
vt 0.000000 0.000000
vt 0.000000 0.000000
vt 0.000000 50.000000
vt 14.142140 0.000000
vt 0.000000 50.000000
vt 14.142140 50.000000
vt 14.142140 0.000000
vt 0.000000 0.000000
vt 0.250000 0.050000
vt 0.000000 0.050000
vt 0.000000 0.000000
vt 0.250000 0.000000
vt 0.250000 0.050000
vt 0.000000 0.050000
vt 0.240000 0.060000
vt -0.010000 0.060000
vt 0.000000 0.050000
vt 0.250000 0.050000
vt 0.240000 0.060000
vt -0.010000 0.060000
vt 0.240000 0.110000
vt -0.010000 0.110000
vt -0.010000 0.060000
vt 0.240000 0.060000
vt 0.240000 0.110000
vt -0.010000 0.110000
vt 0.240000 0.110000
vt 0.000000 0.120000
vt 0.240000 0.110000
vt 0.250000 0.120000
vt 0.000000 0.120000
vt 0.000000 0.000000
vt 50.000000 0.000000
vt 50.000000 10.000000
vt 50.000000 10.000000
vt 0.000000 10.000000
vt 0.000000 0.000000
vt 0.000000 0.000000
vt 0.000000 50.000000
vt 14.142140 0.000000
vt 0.000000 50.000000
vt 14.142140 50.000000
vt 14.142140 0.000000
vt 0.000000 0.000000
vt 0.285000 0.050000
vt 0.000000 0.050000
vt 0.000000 0.000000
vt 0.285000 0.000000
vt 0.285000 0.050000
vt 0.000000 0.050000
vt 0.275000 0.060000
vt 0.000000 0.060000
vt 0.000000 0.050000
vt 0.285000 0.050000
vt 0.275000 0.060000
vt 0.000000 0.060000
vt 0.275000 0.110000
vt 0.000000 0.110000
vt 0.000000 0.060000
vt 0.275000 0.060000
vt 0.275000 0.110000
vt 0.000000 0.110000
vt 0.285000 0.120000
vt 0.000000 0.120000
vt 0.000000 0.110000
vt 0.275000 0.110000
vt 0.285000 0.120000
vt 0.000000 0.000000
vt 0.000000 -50.000000
vt 14.142140 -50.000000
vt 14.142140 -50.000000
vt 14.142140 -0.000000
vt 0.000000 0.000000
vt 0.000000 0.000000
vt 50.000000 0.000000
vt 50.000000 -10.000000
vt 50.000000 -10.000000
vt 0.000000 -10.000000
vt 0.000000 0.000000
vt 0.000000 0.000000
vt 5.000000 0.050000
vt 0.000000 0.050000
vt 0.000000 0.000000
vt 5.000000 0.000000
vt 5.000000 0.050000
vt 0.000000 0.050000
vt 5.000000 0.050000
vt 0.010000 0.060000
vt 5.000000 0.050000
vt 5.000000 0.060000
vt 0.010000 0.060000
vt 0.010000 0.060000
vt 5.000000 0.110000
vt 0.010000 0.110000
vt 0.010000 0.060000
vt 5.000000 0.060000
vt 5.000000 0.110000
vt 0.010000 0.110000
vt 5.000000 0.120000
vt 0.000000 0.120000
vt 0.010000 0.110000
vt 5.000000 0.110000
vt 5.000000 0.120000
vt 0.000000 0.000000
vt 0.000000 -50.000000
vt 14.142140 -50.000000
vt 14.142140 -50.000000
vt 14.142140 0.000000
vt 0.000000 0.000000
vt 0.000000 0.000000
vt 0.000000 50.000000
vt 10.000000 50.000000
vt 10.000000 50.000000
vt 10.000000 0.000000
vt 0.000000 0.000000
vt 0.000000 0.000000
vt 0.250000 0.050000
vt 0.000000 0.050000
vt 0.000000 0.000000
vt 0.250000 0.000000
vt 0.250000 0.050000
vt 0.000000 0.050000
vt 0.250000 0.050000
vt 0.010000 0.060000
vt 0.250000 0.050000
vt 0.250000 0.060000
vt 0.010000 0.060000
vt 0.010000 0.060000
vt 0.250000 0.110000
vt 0.010000 0.110000
vt 0.010000 0.060000
vt 0.250000 0.060000
vt 0.250000 0.110000
vt 0.010000 0.110000
vt 0.250000 0.120000
vt 0.000000 0.120000
vt 0.010000 0.110000
vt 0.250000 0.110000
vt 0.250000 0.120000
vt 0.000000 0.000000
vt 0.000000 -50.000000
vt 10.000000 -50.000000
vt 10.000000 -50.000000
vt 10.000000 0.000000
vt 0.000000 0.000000
vt 0.000000 0.000000
vt 0.000000 50.000000
vt 10.000000 50.000000
vt 10.000000 50.000000
vt 10.000000 0.000000
vt 0.000000 0.000000
vt 0.000000 0.000000
vt 1.130000 0.050000
vt 0.000000 0.050000
vt 0.000000 0.000000
vt 1.130000 0.000000
vt 1.130000 0.050000
vt 0.000000 0.050000
vt 1.130000 0.060000
vt 0.000000 0.060000
vt 0.000000 0.050000
vt 1.130000 0.050000
vt 1.130000 0.060000
vt 0.000000 0.060000
vt 1.130000 0.110000
vt 0.000000 0.110000
vt 0.000000 0.060000
vt 1.130000 0.060000
vt 1.130000 0.110000
vt 0.000000 0.110000
vt 1.130000 0.120000
vt 0.000000 0.120000
vt 0.000000 0.110000
vt 1.130000 0.110000
vt 1.130000 0.120000
vt 0.000000 0.000000
vt 0.000000 -50.000000
vt 10.000000 -50.000000
vt 10.000000 -50.000000
vt 10.000000 0.000000
vt 0.000000 0.000000
vt 0.000000 0.000000
vt 0.000000 50.000000
vt 10.000000 50.000000
vt 10.000000 50.000000
vt 10.000000 0.000000
vt 0.000000 0.000000
vt 0.000000 0.000000
vt 0.200000 0.050000
vt 0.000000 0.050000
vt 0.000000 0.000000
vt 0.200000 0.000000
vt 0.200000 0.050000
vt 0.000000 0.050000
vt 0.200000 0.060000
vt 0.000000 0.060000
vt 0.000000 0.050000
vt 0.200000 0.050000
vt 0.200000 0.060000
vt 0.000000 0.060000
vt 0.200000 0.110000
vt 0.000000 0.110000
vt 0.000000 0.060000
vt 0.200000 0.060000
vt 0.200000 0.110000
vt 0.000000 0.110000
vt 0.200000 0.120000
vt 0.000000 0.120000
vt 0.000000 0.110000
vt 0.200000 0.110000
vt 0.200000 0.120000
vt 0.000000 0.000000
vt 0.000000 -50.000000
vt 10.000000 -50.000000
vt 10.000000 -50.000000
vt 10.000000 0.000000
vt 0.000000 0.000000
vt 0.000000 0.000000
vt 0.000000 50.000000
vt 10.000000 50.000000
vt 10.000000 50.000000
vt 10.000000 0.000000
vt 0.000000 0.000000
vt 0.000000 0.000000
vt 1.130000 0.050000
vt 0.000000 0.050000
vt 0.000000 0.000000
vt 1.130000 0.000000
vt 1.130000 0.050000
vt 0.000000 0.050000
vt 1.130000 0.060000
vt 0.000000 0.060000
vt 0.000000 0.050000
vt 1.130000 0.050000
vt 1.130000 0.060000
vt 0.000000 0.060000
vt 1.130000 0.110000
vt 0.000000 0.110000
vt 0.000000 0.060000
vt 1.130000 0.060000
vt 1.130000 0.110000
vt 0.000000 0.110000
vt 1.130000 0.120000
vt 0.000000 0.120000
vt 0.000000 0.110000
vt 1.130000 0.110000
vt 1.130000 0.120000
vt 0.000000 0.000000
vt 0.000000 -50.000000
vt 10.000000 -50.000000
vt 10.000000 -50.000000
vt 10.000000 0.000000
vt 0.000000 0.000000
vt 0.000000 0.000000
vt 0.000000 50.000000
vt 10.000000 50.000000
vt 10.000000 50.000000
vt 10.000000 0.000000
vt 0.000000 0.000000
vt 0.000000 0.000000
vt 0.200000 0.050000
vt 0.000000 0.050000
vt 0.000000 0.000000
vt 0.200000 0.000000
vt 0.200000 0.050000
vt 0.000000 0.050000
vt 0.200000 0.060000
vt 0.000000 0.060000
vt 0.000000 0.050000
vt 0.200000 0.050000
vt 0.200000 0.060000
vt 0.000000 0.060000
vt 0.200000 0.110000
vt 0.000000 0.110000
vt 0.000000 0.060000
vt 0.200000 0.060000
vt 0.200000 0.110000
vt 0.000000 0.110000
vt 0.200000 0.120000
vt 0.000000 0.120000
vt 0.000000 0.110000
vt 0.200000 0.110000
vt 0.200000 0.120000
vt 0.000000 0.000000
vt 0.000000 -50.000000
vt 10.000000 -50.000000
vt 10.000000 -50.000000
vt 10.000000 0.000000
vt 0.000000 0.000000
vt 0.000000 0.000000
vt 0.000000 50.000000
vt 10.000000 50.000000
vt 10.000000 50.000000
vt 10.000000 0.000000
vt 0.000000 0.000000
vt 0.000000 0.000000
vt 1.130000 0.050000
vt 0.000000 0.050000
vt 0.000000 0.000000
vt 1.130000 0.000000
vt 1.130000 0.050000
vt 0.000000 0.050000
vt 1.130000 0.060000
vt 0.000000 0.060000
vt 0.000000 0.050000
vt 1.130000 0.050000
vt 1.130000 0.060000
vt 0.000000 0.060000
vt 1.130000 0.110000
vt 0.000000 0.110000
vt 0.000000 0.060000
vt 1.130000 0.060000
vt 1.130000 0.110000
vt 0.000000 0.110000
vt 1.130000 0.120000
vt 0.000000 0.120000
vt 0.000000 0.110000
vt 1.130000 0.110000
vt 1.130000 0.120000
vt 0.000000 0.000000
vt 0.000000 -50.000000
vt 10.000000 -50.000000
vt 10.000000 -50.000000
vt 10.000000 0.000000
vt 0.000000 0.000000
vt 0.000000 0.000000
vt 0.000000 50.000000
vt 14.142140 0.000000
vt 0.000000 50.000000
vt 14.142140 50.000000
vt 14.142140 0.000000
vt 0.000000 0.000000
vt 0.160000 0.050000
vt 0.000000 0.050000
vt 0.000000 0.000000
vt 0.160000 0.000000
vt 0.160000 0.050000
vt 0.000000 0.050000
vt 0.150000 0.060000
vt 0.000000 0.060000
vt 0.000000 0.050000
vt 0.160000 0.050000
vt 0.150000 0.060000
vt 0.000000 0.060000
vt 0.150000 0.110000
vt 0.000000 0.110000
vt 0.000000 0.060000
vt 0.150000 0.060000
vt 0.150000 0.110000
vt 0.000000 0.110000
vt 0.160000 0.120000
vt 0.000000 0.120000
vt 0.000000 0.110000
vt 0.150000 0.110000
vt 0.160000 0.120000
vt 0.000000 0.000000
vt 0.000000 -50.000000
vt 14.142140 -50.000000
vt 14.142140 -50.000000
vt 14.142140 0.000000
vt 0.000000 0.000000
vt 0.000000 0.000000
vt -50.000000 0.000000
vt -50.000000 10.000000
vt -50.000000 10.000000
vt 0.000000 10.000000
vt 0.000000 0.000000
vt 0.000000 0.000000
vt 0.400000 0.050000
vt 0.000000 0.050000
vt 0.000000 0.000000
vt 0.400000 0.000000
vt 0.400000 0.050000
vt 0.000000 0.050000
vt 0.400000 0.050000
vt 0.010000 0.060000
vt 0.400000 0.050000
vt 0.400000 0.060000
vt 0.010000 0.060000
vt 0.010000 0.060000
vt 0.400000 0.110000
vt 0.010000 0.110000
vt 0.010000 0.060000
vt 0.400000 0.060000
vt 0.400000 0.110000
vt 0.010000 0.110000
vt 0.400000 0.120000
vt 0.000000 0.120000
vt 0.010000 0.110000
vt 0.400000 0.110000
vt 0.400000 0.120000
vt 0.000000 0.000000
vt -50.000000 0.000000
vt -50.000000 -10.000000
vt -50.000000 -10.000000
vt 0.000000 -10.000000
vt 0.000000 0.000000
vt 0.000000 0.000000
vt -50.000000 0.000000
vt -50.000000 10.000000
vt -50.000000 10.000000
vt 0.000000 10.000000
vt 0.000000 0.000000
vt 0.000000 0.000000
vt 1.130000 0.050000
vt 0.000000 0.050000
vt 0.000000 0.000000
vt 1.130000 0.000000
vt 1.130000 0.050000
vt 0.000000 0.050000
vt 1.130000 0.060000
vt 0.000000 0.060000
vt 0.000000 0.050000
vt 1.130000 0.050000
vt 1.130000 0.060000
vt 0.000000 0.060000
vt 1.130000 0.110000
vt 0.000000 0.110000
vt 0.000000 0.060000
vt 1.130000 0.060000
vt 1.130000 0.110000
vt 0.000000 0.110000
vt 1.130000 0.120000
vt 0.000000 0.120000
vt 0.000000 0.110000
vt 1.130000 0.110000
vt 1.130000 0.120000
vt 0.000000 0.000000
vt -50.000000 0.000000
vt -50.000000 -10.000000
vt -50.000000 -10.000000
vt 0.000000 -10.000000
vt 0.000000 0.000000
vt 0.000000 0.000000
vt -50.000000 0.000000
vt -50.000000 10.000000
vt -50.000000 10.000000
vt 0.000000 10.000000
vt 0.000000 0.000000
vt 0.000000 0.000000
vt 0.495000 0.050000
vt 0.000000 0.050000
vt 0.000000 0.000000
vt 0.495000 0.000000
vt 0.495000 0.050000
vt 0.000000 0.050000
vt 0.495000 0.060000
vt 0.000000 0.060000
vt 0.000000 0.050000
vt 0.495000 0.050000
vt 0.495000 0.060000
vt 0.000000 0.060000
vt 0.495000 0.110000
vt 0.000000 0.110000
vt 0.000000 0.060000
vt 0.495000 0.060000
vt 0.495000 0.110000
vt 0.000000 0.110000
vt 0.495000 0.120000
vt 0.000000 0.120000
vt 0.000000 0.110000
vt 0.495000 0.110000
vt 0.495000 0.120000
vt 0.000000 0.000000
vt -50.000000 0.000000
vt -50.000000 -10.000000
vt -50.000000 -10.000000
vt 0.000000 -10.000000
vt 0.000000 0.000000
vt 0.000000 0.000000
vt -50.000000 0.000000
vt -50.000000 10.000000
vt -50.000000 10.000000
vt 0.000000 10.000000
vt 0.000000 0.000000
vt 0.000000 0.000000
vt 1.130000 0.050000
vt 0.000000 0.050000
vt 0.000000 0.000000
vt 1.130000 0.000000
vt 1.130000 0.050000
vt 0.000000 0.050000
vt 1.130000 0.060000
vt 0.000000 0.060000
vt 0.000000 0.050000
vt 1.130000 0.050000
vt 1.130000 0.060000
vt 0.000000 0.060000
vt 1.130000 0.110000
vt 0.000000 0.110000
vt 0.000000 0.060000
vt 1.130000 0.060000
vt 1.130000 0.110000
vt 0.000000 0.110000
vt 1.130000 0.120000
vt 0.000000 0.120000
vt 0.000000 0.110000
vt 1.130000 0.110000
vt 1.130000 0.120000
vt 0.000000 0.000000
vt -50.000000 0.000000
vt -50.000000 -10.000000
vt -50.000000 -10.000000
vt 0.000000 -10.000000
vt 0.000000 0.000000
vt 0.000000 0.000000
vt 0.000000 50.000000
vt 14.142140 -0.000000
vt 0.000000 50.000000
vt 14.142140 50.000000
vt 14.142140 -0.000000
vt 0.000000 0.000000
vt 0.400000 0.050000
vt 0.000000 0.050000
vt 0.000000 0.000000
vt 0.400000 0.000000
vt 0.400000 0.050000
vt 0.000000 0.050000
vt 0.390000 0.060000
vt 0.000000 0.060000
vt 0.000000 0.050000
vt 0.400000 0.050000
vt 0.390000 0.060000
vt 0.000000 0.060000
vt 0.390000 0.110000
vt 0.000000 0.110000
vt 0.000000 0.060000
vt 0.390000 0.060000
vt 0.390000 0.110000
vt 0.000000 0.110000
vt 0.400000 0.120000
vt 0.000000 0.120000
vt 0.000000 0.110000
vt 0.390000 0.110000
vt 0.400000 0.120000
vt 0.000000 0.000000
vt 0.000000 -50.000000
vt 14.142140 -50.000000
vt 14.142140 -50.000000
vt 14.142140 0.000000
vt 0.000000 0.000000
vt 0.000000 0.000000
vt 0.000000 50.000000
vt 10.000000 50.000000
vt 10.000000 50.000000
vt 10.000000 0.000000
vt 0.000000 0.000000
vt 0.000000 0.000000
vt 0.120000 0.050000
vt 0.000000 0.050000
vt 0.000000 0.000000
vt 0.120000 0.000000
vt 0.120000 0.050000
vt 0.000000 0.050000
vt 0.120000 0.050000
vt 0.010000 0.060000
vt 0.120000 0.050000
vt 0.120000 0.060000
vt 0.010000 0.060000
vt 0.010000 0.060000
vt 0.120000 0.110000
vt 0.010000 0.110000
vt 0.010000 0.060000
vt 0.120000 0.060000
vt 0.120000 0.110000
vt 0.010000 0.110000
vt 0.120000 0.120000
vt 0.000000 0.120000
vt 0.010000 0.110000
vt 0.120000 0.110000
vt 0.120000 0.120000
vt 0.000000 0.000000
vt 0.000000 -50.000000
vt 10.000000 -50.000000
vt 10.000000 -50.000000
vt 10.000000 0.000000
vt 0.000000 0.000000
vt 0.000000 0.000000
vt 0.000000 50.000000
vt 10.000000 50.000000
vt 10.000000 50.000000
vt 10.000000 0.000000
vt 0.000000 0.000000
vt 0.000000 0.000000
vt 1.160000 0.050000
vt 0.000000 0.050000
vt 0.000000 0.000000
vt 1.160000 0.000000
vt 1.160000 0.050000
vt 0.000000 0.050000
vt 1.160000 0.060000
vt 0.000000 0.060000
vt 0.000000 0.050000
vt 1.160000 0.050000
vt 1.160000 0.060000
vt 0.000000 0.060000
vt 1.160000 0.110000
vt 0.000000 0.110000
vt 0.000000 0.060000
vt 1.160000 0.060000
vt 1.160000 0.110000
vt 0.000000 0.110000
vt 1.160000 0.120000
vt 0.000000 0.120000
vt 0.000000 0.110000
vt 1.160000 0.110000
vt 1.160000 0.120000
vt 0.000000 0.000000
vt 0.000000 -50.000000
vt 10.000000 -50.000000
vt 10.000000 -50.000000
vt 10.000000 0.000000
vt 0.000000 0.000000
vt 0.000000 0.000000
vt 0.000000 50.000000
vt 10.000000 50.000000
vt 10.000000 50.000000
vt 10.000000 0.000000
vt 0.000000 0.000000
vt 0.000000 0.000000
vt 0.130000 0.050000
vt 0.000000 0.050000
vt 0.000000 0.000000
vt 0.130000 0.000000
vt 0.130000 0.050000
vt 0.000000 0.050000
vt 0.130000 0.060000
vt 0.000000 0.060000
vt 0.000000 0.050000
vt 0.130000 0.050000
vt 0.130000 0.060000
vt 0.000000 0.060000
vt 0.130000 0.110000
vt 0.000000 0.110000
vt 0.000000 0.060000
vt 0.130000 0.060000
vt 0.130000 0.110000
vt 0.000000 0.110000
vt 0.130000 0.120000
vt 0.000000 0.120000
vt 0.000000 0.110000
vt 0.130000 0.110000
vt 0.130000 0.120000
vt 0.000000 0.000000
vt 0.000000 -50.000000
vt 10.000000 -50.000000
vt 10.000000 -50.000000
vt 10.000000 0.000000
vt 0.000000 0.000000
vt 0.000000 0.000000
vt 0.000000 50.000000
vt 10.000000 50.000000
vt 10.000000 50.000000
vt 10.000000 0.000000
vt 0.000000 0.000000
vt 0.000000 0.000000
vt 1.160000 0.050000
vt 0.000000 0.050000
vt 0.000000 0.000000
vt 1.160000 0.000000
vt 1.160000 0.050000
vt 0.000000 0.050000
vt 1.160000 0.060000
vt 0.000000 0.060000
vt 0.000000 0.050000
vt 1.160000 0.050000
vt 1.160000 0.060000
vt 0.000000 0.060000
vt 1.160000 0.110000
vt 0.000000 0.110000
vt 0.000000 0.060000
vt 1.160000 0.060000
vt 1.160000 0.110000
vt 0.000000 0.110000
vt 1.160000 0.120000
vt 0.000000 0.120000
vt 0.000000 0.110000
vt 1.160000 0.110000
vt 1.160000 0.120000
vt 0.000000 0.000000
vt 0.000000 -50.000000
vt 10.000000 -50.000000
vt 10.000000 -50.000000
vt 10.000000 0.000000
vt 0.000000 0.000000
vt 0.000000 0.000000
vt 0.000000 50.000000
vt 14.142140 0.000000
vt 0.000000 50.000000
vt 14.142140 50.000000
vt 14.142140 0.000000
vt 0.000000 0.000000
vt 0.120000 0.050000
vt 0.000000 0.050000
vt 0.000000 0.000000
vt 0.120000 0.000000
vt 0.120000 0.050000
vt 0.000000 0.050000
vt 0.130000 0.060000
vt 0.000000 0.060000
vt 0.000000 0.050000
vt 0.120000 0.050000
vt 0.130000 0.060000
vt 0.000000 0.060000
vt 0.130000 0.110000
vt 0.000000 0.110000
vt 0.000000 0.060000
vt 0.130000 0.060000
vt 0.130000 0.110000
vt 0.000000 0.110000
vt 0.120000 0.120000
vt 0.000000 0.120000
vt 0.000000 0.110000
vt 0.130000 0.110000
vt 0.120000 0.120000
vt 0.000000 0.000000
vt 0.000000 -50.000000
vt 14.142140 -50.000000
vt 14.142140 -50.000000
vt 14.142140 0.000000
vt 0.000000 0.000000
vt 0.000000 0.000000
vt 0.000000 50.000000
vt 14.142140 0.000000
vt 0.000000 50.000000
vt 14.142140 50.000000
vt 14.142140 0.000000
vt 0.000000 0.000000
vt 0.060000 0.050000
vt 0.000000 0.050000
vt 0.000000 0.000000
vt 0.060000 0.000000
vt 0.060000 0.050000
vt 0.000000 0.050000
vt 0.050000 0.060000
vt -0.010000 0.060000
vt 0.000000 0.050000
vt 0.060000 0.050000
vt 0.050000 0.060000
vt -0.010000 0.060000
vt 0.050000 0.110000
vt -0.010000 0.110000
vt -0.010000 0.060000
vt 0.050000 0.060000
vt 0.050000 0.110000
vt -0.010000 0.110000
vt 0.050000 0.110000
vt 0.000000 0.120000
vt 0.050000 0.110000
vt 0.060000 0.120000
vt 0.000000 0.120000
vt 0.000000 0.000000
vt 0.000000 -50.000000
vt 14.142140 -50.000000
vt 14.142140 -50.000000
vt 14.142140 0.000000
vt 0.000000 0.000000
vt 0.000000 0.000000
vt 0.000000 50.000000
vt 14.142140 0.000000
vt 0.000000 50.000000
vt 14.142140 50.000000
vt 14.142140 0.000000
vt 0.000000 0.000000
vt 0.120000 0.050000
vt 0.000000 0.050000
vt 0.000000 0.000000
vt 0.120000 0.000000
vt 0.120000 0.050000
vt 0.000000 0.050000
vt 0.130000 0.060000
vt -0.010000 0.060000
vt 0.000000 0.050000
vt 0.120000 0.050000
vt 0.130000 0.060000
vt -0.010000 0.060000
vt 0.130000 0.110000
vt -0.010000 0.110000
vt -0.010000 0.060000
vt 0.130000 0.060000
vt 0.130000 0.110000
vt -0.010000 0.110000
vt 0.130000 0.110000
vt 0.000000 0.120000
vt 0.130000 0.110000
vt 0.120000 0.120000
vt 0.000000 0.120000
vt 0.000000 0.000000
vt 0.000000 -50.000000
vt 14.142140 -50.000000
vt 14.142140 -50.000000
vt 14.142140 0.000000
vt 0.000000 0.000000
vt 0.000000 0.000000
vt 0.000000 50.000000
vt 14.142140 0.000000
vt 0.000000 50.000000
vt 14.142140 50.000000
vt 14.142140 0.000000
vt 0.000000 0.000000
vt 0.120000 0.050000
vt 0.000000 0.050000
vt 0.000000 0.000000
vt 0.120000 0.000000
vt 0.120000 0.050000
vt 0.000000 0.050000
vt 0.130000 0.060000
vt -0.010000 0.060000
vt 0.000000 0.050000
vt 0.120000 0.050000
vt 0.130000 0.060000
vt -0.010000 0.060000
vt 0.130000 0.110000
vt -0.010000 0.110000
vt -0.010000 0.060000
vt 0.130000 0.060000
vt 0.130000 0.110000
vt -0.010000 0.110000
vt 0.130000 0.110000
vt 0.000000 0.120000
vt 0.130000 0.110000
vt 0.120000 0.120000
vt 0.000000 0.120000
vt 0.000000 0.000000
vt 0.000000 -50.000000
vt 14.142140 -50.000000
vt 14.142140 -50.000000
vt 14.142140 0.000000
vt 0.000000 0.000000
vt 0.000000 0.000000
vt 0.000000 50.000000
vt 14.142140 0.000000
vt 0.000000 50.000000
vt 14.142140 50.000000
vt 14.142140 0.000000
vt 0.000000 0.000000
vt 3.555000 0.050000
vt 0.000000 0.050000
vt 0.000000 0.000000
vt 3.555000 0.000000
vt 3.555000 0.050000
vt 0.000000 0.050000
vt 3.555000 0.050000
vt 0.010000 0.060000
vt 3.555000 0.050000
vt 3.545000 0.060000
vt 0.010000 0.060000
vt 0.010000 0.060000
vt 3.545000 0.110000
vt 0.010000 0.110000
vt 0.010000 0.060000
vt 3.545000 0.060000
vt 3.545000 0.110000
vt 0.010000 0.110000
vt 3.555000 0.120000
vt 0.000000 0.120000
vt 0.010000 0.110000
vt 3.545000 0.110000
vt 3.555000 0.120000
vt 0.000000 0.000000
vt 0.000000 -50.000000
vt 14.142140 -50.000000
vt 14.142140 -50.000000
vt 14.142140 0.000000
vt 0.000000 0.000000
vt 0.000000 0.000000
vt 0.000000 50.000000
vt 14.142140 0.000000
vt 0.000000 50.000000
vt 14.142140 50.000000
vt 14.142140 0.000000
vt 0.000000 0.000000
vt 2.050000 0.050000
vt 0.000000 0.050000
vt 0.000000 0.000000
vt 2.050000 0.000000
vt 2.050000 0.050000
vt 0.000000 0.050000
vt 2.050000 0.050000
vt 0.010000 0.060000
vt 2.050000 0.050000
vt 2.040000 0.060000
vt 0.010000 0.060000
vt 0.010000 0.060000
vt 2.040000 0.110000
vt 0.010000 0.110000
vt 0.010000 0.060000
vt 2.040000 0.060000
vt 2.040000 0.110000
vt 0.010000 0.110000
vt 2.050000 0.120000
vt 0.000000 0.120000
vt 0.010000 0.110000
vt 2.040000 0.110000
vt 2.050000 0.120000
vt 0.000000 0.000000
vt 0.000000 -50.000000
vt 14.142140 -50.000000
vt 14.142140 -50.000000
vt 14.142140 0.000000
vt 0.000000 0.000000
vt 0.000000 0.000000
vt 0.000000 50.000000
vt 14.142140 0.000000
vt 0.000000 50.000000
vt 14.142140 50.000000
vt 14.142140 0.000000
vt 0.000000 0.000000
vt 2.050000 0.050000
vt 0.000000 0.050000
vt 0.000000 0.000000
vt 2.050000 0.000000
vt 2.050000 0.050000
vt 0.000000 0.050000
vt 2.050000 0.050000
vt 0.010000 0.060000
vt 2.050000 0.050000
vt 2.040000 0.060000
vt 0.010000 0.060000
vt 0.010000 0.060000
vt 2.040000 0.110000
vt 0.010000 0.110000
vt 0.010000 0.060000
vt 2.040000 0.060000
vt 2.040000 0.110000
vt 0.010000 0.110000
vt 2.050000 0.120000
vt 0.000000 0.120000
vt 0.010000 0.110000
vt 2.040000 0.110000
vt 2.050000 0.120000
vt 0.000000 0.000000
vt 0.000000 -50.000000
vt 14.142140 -50.000000
vt 14.142140 -50.000000
vt 14.142140 0.000000
vt 0.000000 0.000000
vt 0.000000 0.000000
vt 0.000000 50.000000
vt 14.142140 0.000000
vt 0.000000 50.000000
vt 14.142140 50.000000
vt 14.142140 0.000000
vt 0.000000 0.000000
vt 0.250000 0.050000
vt 0.000000 0.050000
vt 0.000000 0.000000
vt 0.250000 0.000000
vt 0.250000 0.050000
vt 0.000000 0.050000
vt 0.250000 0.050000
vt 0.010000 0.060000
vt 0.250000 0.050000
vt 0.260000 0.060000
vt 0.010000 0.060000
vt 0.010000 0.060000
vt 0.260000 0.110000
vt 0.010000 0.110000
vt 0.010000 0.060000
vt 0.260000 0.060000
vt 0.260000 0.110000
vt 0.010000 0.110000
vt 0.250000 0.120000
vt 0.000000 0.120000
vt 0.010000 0.110000
vt 0.260000 0.110000
vt 0.250000 0.120000
vt 0.000000 0.000000
vt 0.000000 -50.000000
vt 14.142140 -50.000000
vt 14.142140 -50.000000
vt 14.142140 0.000000
vt 0.000000 0.000000
vt 0.000000 0.000000
vt 0.000000 50.000000
vt 14.142140 0.000000
vt 0.000000 50.000000
vt 14.142140 50.000000
vt 14.142140 0.000000
vt 0.000000 0.000000
vt 1.200000 0.050000
vt 0.000000 0.050000
vt 0.000000 0.000000
vt 1.200000 0.000000
vt 1.200000 0.050000
vt 0.000000 0.050000
vt 1.190000 0.060000
vt -0.010000 0.060000
vt 0.000000 0.050000
vt 1.200000 0.050000
vt 1.190000 0.060000
vt -0.010000 0.060000
vt 1.190000 0.110000
vt -0.010000 0.110000
vt -0.010000 0.060000
vt 1.190000 0.060000
vt 1.190000 0.110000
vt -0.010000 0.110000
vt 1.190000 0.110000
vt 0.000000 0.120000
vt 1.190000 0.110000
vt 1.200000 0.120000
vt 0.000000 0.120000
vt 0.000000 0.000000
vt 0.000000 -50.000000
vt 14.142140 -50.000000
vt 14.142140 -50.000000
vt 14.142140 0.000000
vt 0.000000 0.000000
vt 0.000000 0.000000
vt 0.000000 50.000000
vt 14.142140 0.000000
vt 0.000000 50.000000
vt 14.142140 50.000000
vt 14.142140 0.000000
vt 0.000000 0.000000
vt 0.120000 0.050000
vt 0.000000 0.050000
vt 0.000000 0.000000
vt 0.120000 0.000000
vt 0.120000 0.050000
vt 0.000000 0.050000
vt 0.130000 0.060000
vt -0.010000 0.060000
vt 0.000000 0.050000
vt 0.120000 0.050000
vt 0.130000 0.060000
vt -0.010000 0.060000
vt 0.130000 0.110000
vt -0.010000 0.110000
vt -0.010000 0.060000
vt 0.130000 0.060000
vt 0.130000 0.110000
vt -0.010000 0.110000
vt 0.130000 0.110000
vt 0.000000 0.120000
vt 0.130000 0.110000
vt 0.120000 0.120000
vt 0.000000 0.120000
vt 0.000000 0.000000
vt 0.000000 -50.000000
vt 14.142140 -50.000000
vt 14.142140 -50.000000
vt 14.142140 0.000000
vt 0.000000 0.000000
vt 0.000000 0.000000
vt 0.000000 50.000000
vt 14.142140 0.000000
vt 0.000000 50.000000
vt 14.142140 50.000000
vt 14.142140 0.000000
vt 0.000000 0.000000
vt 0.120000 0.050000
vt 0.000000 0.050000
vt 0.000000 0.000000
vt 0.120000 0.000000
vt 0.120000 0.050000
vt 0.000000 0.050000
vt 0.130000 0.060000
vt -0.010000 0.060000
vt 0.000000 0.050000
vt 0.120000 0.050000
vt 0.130000 0.060000
vt -0.010000 0.060000
vt 0.130000 0.110000
vt -0.010000 0.110000
vt -0.010000 0.060000
vt 0.130000 0.060000
vt 0.130000 0.110000
vt -0.010000 0.110000
vt 0.130000 0.110000
vt 0.000000 0.120000
vt 0.130000 0.110000
vt 0.120000 0.120000
vt 0.000000 0.120000
vt 0.000000 0.000000
vt 0.000000 -50.000000
vt 14.142140 -50.000000
vt 14.142140 -50.000000
vt 14.142140 0.000000
vt 0.000000 0.000000
vt 0.000000 0.000000
vt 0.000000 50.000000
vt 14.142140 0.000000
vt 0.000000 50.000000
vt 14.142140 50.000000
vt 14.142140 0.000000
vt 0.000000 0.000000
vt 2.500000 0.050000
vt 0.000000 0.050000
vt 0.000000 0.000000
vt 2.500000 0.000000
vt 2.500000 0.050000
vt 0.000000 0.050000
vt 2.500000 0.050000
vt 0.010000 0.060000
vt 2.500000 0.050000
vt 2.490000 0.060000
vt 0.010000 0.060000
vt 0.010000 0.060000
vt 2.490000 0.110000
vt 0.010000 0.110000
vt 0.010000 0.060000
vt 2.490000 0.060000
vt 2.490000 0.110000
vt 0.010000 0.110000
vt 2.500000 0.120000
vt 0.000000 0.120000
vt 0.010000 0.110000
vt 2.490000 0.110000
vt 2.500000 0.120000
f 1/1 2/2 3/3
f 3/4 4/5 1/6
f 5/7 6/8 7/9
f 7/10 8/11 5/12
f 1/13 6/14 2/15
f 1/16 5/17 6/18
f 2/19 6/20 3/21
f 6/22 7/23 3/24
f 3/25 8/26 4/27
f 3/28 7/29 8/30
f 4/31 5/32 1/33
f 4/34 8/35 5/36
f 5/37 6/38 7/39
f 7/40 8/41 5/42
f 9/43 10/44 11/45
f 11/46 12/47 9/48
f 5/49 10/50 6/51
f 5/52 9/53 10/54
f 6/55 11/56 7/57
f 6/58 10/59 11/60
f 7/61 12/62 8/63
f 7/64 11/65 12/66
f 8/67 9/68 5/69
f 8/70 12/71 9/72
f 9/73 10/74 11/75
f 11/76 12/77 9/78
f 13/79 14/80 15/81
f 15/82 16/83 13/84
f 9/85 14/86 10/87
f 9/88 13/89 14/90
f 10/91 15/92 11/93
f 10/94 14/95 15/96
f 11/97 16/98 12/99
f 11/100 15/101 16/102
f 12/103 13/104 9/105
f 12/106 16/107 13/108
f 13/109 14/110 15/111
f 15/112 16/113 13/114
f 17/115 18/116 19/117
f 19/118 20/119 17/120
f 13/121 18/122 14/123
f 13/124 17/125 18/126
f 14/127 19/128 15/129
f 14/130 18/131 19/132
f 15/133 20/134 16/135
f 15/136 19/137 20/138
f 16/139 17/140 13/141
f 16/142 20/143 17/144
f 17/145 18/146 19/147
f 19/148 20/149 17/150
f 21/151 22/152 23/153
f 23/154 24/155 21/156
f 17/157 22/158 18/159
f 17/160 21/161 22/162
f 18/163 23/164 19/165
f 18/166 22/167 23/168
f 19/169 24/170 20/171
f 19/172 23/173 24/174
f 20/175 21/176 17/177
f 20/178 24/179 21/180
f 21/181 22/182 23/183
f 23/184 24/185 21/186
f 25/187 26/188 27/189
f 27/190 28/191 25/192
f 21/193 26/194 22/195
f 21/196 25/197 26/198
f 22/199 27/200 23/201
f 22/202 26/203 27/204
f 23/205 28/206 24/207
f 23/208 27/209 28/210
f 24/211 25/212 21/213
f 24/214 28/215 25/216
f 25/217 26/218 27/219
f 27/220 28/221 25/222
f 29/223 30/224 31/225
f 31/226 32/227 29/228
f 25/229 30/230 26/231
f 25/232 29/233 30/234
f 26/235 31/236 27/237
f 26/238 30/239 31/240
f 27/241 32/242 28/243
f 27/244 31/245 32/246
f 28/247 29/248 25/249
f 28/250 32/251 29/252
f 29/253 30/254 31/255
f 31/256 32/257 29/258
f 33/259 34/260 35/261
f 35/262 36/263 33/264
f 29/265 34/266 30/267
f 29/268 33/269 34/270
f 30/271 35/272 31/273
f 30/274 34/275 35/276
f 31/277 36/278 32/279
f 31/280 35/281 36/282
f 32/283 33/284 29/285
f 32/286 36/287 33/288
f 33/289 34/290 35/291
f 35/292 36/293 33/294
f 37/295 38/296 39/297
f 39/298 40/299 37/300
f 33/301 38/302 34/303
f 33/304 37/305 38/306
f 34/307 39/308 35/309
f 34/310 38/311 39/312
f 35/313 40/314 36/315
f 35/316 39/317 40/318
f 36/319 37/320 33/321
f 36/322 40/323 37/324
f 37/325 38/326 39/327
f 39/328 40/329 37/330
f 41/331 42/332 43/333
f 43/334 44/335 41/336
f 37/337 42/338 38/339
f 37/340 41/341 42/342
f 38/343 43/344 39/345
f 38/346 42/347 43/348
f 39/349 44/350 40/351
f 39/352 43/353 44/354
f 40/355 41/356 37/357
f 40/358 44/359 41/360
f 41/361 42/362 43/363
f 43/364 44/365 41/366
f 45/367 46/368 47/369
f 46/370 48/371 47/372
f 41/373 46/374 42/375
f 41/376 45/377 46/378
f 42/379 48/380 43/381
f 42/382 46/383 48/384
f 43/385 47/386 44/387
f 43/388 48/389 47/390
f 44/391 45/392 41/393
f 44/394 47/395 45/396
f 49/397 50/398 51/399
f 51/400 52/401 49/402
f 53/403 54/404 55/405
f 54/406 56/407 55/408
f 49/409 54/410 50/411
f 49/412 53/413 54/414
f 50/415 54/416 51/417
f 54/418 56/419 51/420
f 51/421 55/422 52/423
f 51/424 56/425 55/426
f 52/427 53/428 49/429
f 52/430 55/431 53/432
f 57/433 58/434 59/435
f 59/436 60/437 57/438
f 61/439 62/440 63/441
f 63/442 64/443 61/444
f 57/445 62/446 58/447
f 57/448 61/449 62/450
f 58/451 63/452 59/453
f 58/454 62/455 63/456
f 59/457 64/458 60/459
f 59/460 63/461 64/462
f 60/463 64/464 57/465
f 64/466 61/467 57/468
f 61/469 62/470 63/471
f 63/472 64/473 61/474
f 65/475 66/476 67/477
f 67/478 68/479 65/480
f 61/481 66/482 62/483
f 61/484 65/485 66/486
f 62/487 67/488 63/489
f 62/490 66/491 67/492
f 63/493 68/494 64/495
f 63/496 67/497 68/498
f 64/499 65/500 61/501
f 64/502 68/503 65/504
f 65/505 66/506 67/507
f 67/508 68/509 65/510
f 69/511 70/512 71/513
f 70/514 72/515 71/516
f 65/517 70/518 66/519
f 65/520 69/521 70/522
f 66/523 72/524 67/525
f 66/526 70/527 72/528
f 67/529 71/530 68/531
f 67/532 72/533 71/534
f 68/535 69/536 65/537
f 68/538 71/539 69/540
f 73/541 74/542 75/543
f 75/544 76/545 73/546
f 57/547 58/548 77/549
f 58/550 59/551 77/552
f 73/553 58/554 74/555
f 73/556 57/557 58/558
f 74/559 59/560 75/561
f 74/562 58/563 59/564
f 75/565 77/566 76/567
f 75/568 59/569 77/570
f 76/571 57/572 73/573
f 76/574 77/575 57/576
f 53/577 54/578 56/579
f 56/580 78/581 53/582
f 79/583 80/584 81/585
f 81/586 82/587 79/588
f 53/589 80/590 54/591
f 53/592 79/593 80/594
f 54/595 81/596 56/597
f 54/598 80/599 81/600
f 56/601 82/602 78/603
f 56/604 81/605 82/606
f 78/607 82/608 53/609
f 82/610 79/611 53/612
f 83/613 84/614 85/615
f 85/616 86/617 83/618
f 87/619 88/620 89/621
f 88/622 90/623 89/624
f 83/625 88/626 84/627
f 83/628 87/629 88/630
f 84/631 90/632 85/633
f 84/634 88/635 90/636
f 85/637 89/638 86/639
f 85/640 90/641 89/642
f 86/643 89/644 83/645
f 89/646 87/647 83/648
f 91/649 92/650 93/651
f 93/652 94/653 91/654
f 95/655 96/656 97/657
f 97/658 98/659 95/660
f 91/661 96/662 92/663
f 91/664 95/665 96/666
f 92/667 97/668 93/669
f 92/670 96/671 97/672
f 93/673 98/674 94/675
f 93/676 97/677 98/678
f 94/679 98/680 91/681
f 98/682 95/683 91/684
f 95/685 96/686 97/687
f 97/688 98/689 95/690
f 99/691 100/692 101/693
f 101/694 102/695 99/696
f 95/697 100/698 96/699
f 95/700 99/701 100/702
f 96/703 101/704 97/705
f 96/706 100/707 101/708
f 97/709 102/710 98/711
f 97/712 101/713 102/714
f 98/715 99/716 95/717
f 98/718 102/719 99/720
f 99/721 100/722 101/723
f 101/724 102/725 99/726
f 103/727 104/728 105/729
f 105/730 106/731 103/732
f 99/733 104/734 100/735
f 99/736 103/737 104/738
f 100/739 105/740 101/741
f 100/742 104/743 105/744
f 101/745 106/746 102/747
f 101/748 105/749 106/750
f 102/751 103/752 99/753
f 102/754 106/755 103/756
f 103/757 104/758 105/759
f 105/760 106/761 103/762
f 107/763 108/764 109/765
f 109/766 110/767 107/768
f 103/769 108/770 104/771
f 103/772 107/773 108/774
f 104/775 109/776 105/777
f 104/778 108/779 109/780
f 105/781 110/782 106/783
f 105/784 109/785 110/786
f 106/787 107/788 103/789
f 106/790 110/791 107/792
f 107/793 108/794 109/795
f 109/796 110/797 107/798
f 49/799 50/800 111/801
f 50/802 51/803 111/804
f 107/805 50/806 108/807
f 107/808 49/809 50/810
f 108/811 51/812 109/813
f 108/814 50/815 51/816
f 109/817 111/818 110/819
f 109/820 51/821 111/822
f 110/823 49/824 107/825
f 110/826 111/827 49/828
f 112/829 113/830 114/831
f 114/832 115/833 112/834
f 83/835 84/836 86/837
f 84/838 85/839 86/840
f 112/841 84/842 113/843
f 112/844 83/845 84/846
f 113/847 85/848 114/849
f 113/850 84/851 85/852
f 114/853 86/854 115/855
f 114/856 85/857 86/858
f 115/859 83/860 112/861
f 115/862 86/863 83/864
f 116/865 117/866 118/867
f 118/868 119/869 116/870
f 112/871 113/872 114/873
f 114/874 115/875 112/876
f 116/877 113/878 117/879
f 116/880 112/881 113/882
f 117/883 113/884 118/885
f 113/886 114/887 118/888
f 118/889 115/890 119/891
f 118/892 114/893 115/894
f 119/895 112/896 116/897
f 119/898 115/899 112/900
f 120/901 121/902 122/903
f 122/904 123/905 120/906
f 124/907 125/908 126/909
f 125/910 127/911 126/912
f 120/913 125/914 121/915
f 120/916 124/917 125/918
f 121/919 125/920 122/921
f 125/922 127/923 122/924
f 122/925 126/926 123/927
f 122/928 127/929 126/930
f 123/931 124/932 120/933
f 123/934 126/935 124/936
f 128/937 129/938 130/939
f 130/940 131/941 128/942
f 116/943 117/944 119/945
f 117/946 118/947 119/948
f 128/949 117/950 129/951
f 128/952 116/953 117/954
f 129/955 118/956 130/957
f 129/958 117/959 118/960
f 130/961 119/962 131/963
f 130/964 118/965 119/966
f 131/967 119/968 128/969
f 119/970 116/971 128/972
f 132/973 133/974 134/975
f 134/976 135/977 132/978
f 120/979 121/980 136/981
f 121/982 122/983 136/984
f 132/985 121/986 133/987
f 132/988 120/989 121/990
f 133/991 122/992 134/993
f 133/994 121/995 122/996
f 134/997 136/998 135/999
f 134/1000 122/1001 136/1002
f 135/1003 120/1004 132/1005
f 135/1006 136/1007 120/1008
f 45/1009 46/1010 48/1011
f 48/1012 137/1013 45/1014
f 132/1015 133/1016 134/1017
f 134/1018 135/1019 132/1020
f 45/1021 133/1022 46/1023
f 45/1024 132/1025 133/1026
f 46/1027 133/1028 48/1029
f 133/1030 134/1031 48/1032
f 48/1033 135/1034 137/1035
f 48/1036 134/1037 135/1038
f 137/1039 132/1040 45/1041
f 137/1042 135/1043 132/1044
f 138/1045 139/1046 140/1047
f 140/1048 141/1049 138/1050
f 142/1051 143/1052 144/1053
f 144/1054 145/1055 142/1056
f 138/1057 143/1058 139/1059
f 138/1060 142/1061 143/1062
f 139/1063 143/1064 140/1065
f 143/1066 144/1067 140/1068
f 140/1069 145/1070 141/1071
f 140/1072 144/1073 145/1074
f 141/1075 142/1076 138/1077
f 141/1078 145/1079 142/1080
f 142/1081 143/1082 144/1083
f 144/1084 145/1085 142/1086
f 146/1087 147/1088 148/1089
f 148/1090 149/1091 146/1092
f 142/1093 147/1094 143/1095
f 142/1096 146/1097 147/1098
f 143/1099 148/1100 144/1101
f 143/1102 147/1103 148/1104
f 144/1105 149/1106 145/1107
f 144/1108 148/1109 149/1110
f 145/1111 146/1112 142/1113
f 145/1114 149/1115 146/1116
f 146/1117 147/1118 148/1119
f 148/1120 149/1121 146/1122
f 150/1123 151/1124 152/1125
f 152/1126 153/1127 150/1128
f 146/1129 151/1130 147/1131
f 146/1132 150/1133 151/1134
f 147/1135 152/1136 148/1137
f 147/1138 151/1139 152/1140
f 148/1141 153/1142 149/1143
f 148/1144 152/1145 153/1146
f 149/1147 150/1148 146/1149
f 149/1150 153/1151 150/1152
f 150/1153 151/1154 152/1155
f 152/1156 153/1157 150/1158
f 154/1159 155/1160 156/1161
f 156/1162 157/1163 154/1164
f 150/1165 155/1166 151/1167
f 150/1168 154/1169 155/1170
f 151/1171 156/1172 152/1173
f 151/1174 155/1175 156/1176
f 152/1177 157/1178 153/1179
f 152/1180 156/1181 157/1182
f 153/1183 154/1184 150/1185
f 153/1186 157/1187 154/1188
f 154/1189 155/1190 156/1191
f 156/1192 157/1193 154/1194
f 158/1195 159/1196 160/1197
f 160/1198 161/1199 158/1200
f 154/1201 159/1202 155/1203
f 154/1204 158/1205 159/1206
f 155/1207 160/1208 156/1209
f 155/1210 159/1211 160/1212
f 156/1213 161/1214 157/1215
f 156/1216 160/1217 161/1218
f 157/1219 158/1220 154/1221
f 157/1222 161/1223 158/1224
f 158/1225 159/1226 160/1227
f 160/1228 161/1229 158/1230
f 162/1231 163/1232 164/1233
f 164/1234 165/1235 162/1236
f 158/1237 163/1238 159/1239
f 158/1240 162/1241 163/1242
f 159/1243 164/1244 160/1245
f 159/1246 163/1247 164/1248
f 160/1249 165/1250 161/1251
f 160/1252 164/1253 165/1254
f 161/1255 162/1256 158/1257
f 161/1258 165/1259 162/1260
f 162/1261 163/1262 164/1263
f 164/1264 165/1265 162/1266
f 166/1267 167/1268 168/1269
f 167/1270 169/1271 168/1272
f 162/1273 167/1274 163/1275
f 162/1276 166/1277 167/1278
f 163/1279 169/1280 164/1281
f 163/1282 167/1283 169/1284
f 164/1285 168/1286 165/1287
f 164/1288 169/1289 168/1290
f 165/1291 166/1292 162/1293
f 165/1294 168/1295 166/1296
f 166/1297 167/1298 169/1299
f 169/1300 170/1301 166/1302
f 171/1303 172/1304 173/1305
f 173/1306 174/1307 171/1308
f 166/1309 172/1310 167/1311
f 166/1312 171/1313 172/1314
f 167/1315 172/1316 169/1317
f 172/1318 173/1319 169/1320
f 169/1321 174/1322 170/1323
f 169/1324 173/1325 174/1326
f 170/1327 171/1328 166/1329
f 170/1330 174/1331 171/1332
f 171/1333 172/1334 173/1335
f 173/1336 174/1337 171/1338
f 175/1339 176/1340 177/1341
f 177/1342 178/1343 175/1344
f 171/1345 176/1346 172/1347
f 171/1348 175/1349 176/1350
f 172/1351 177/1352 173/1353
f 172/1354 176/1355 177/1356
f 173/1357 178/1358 174/1359
f 173/1360 177/1361 178/1362
f 174/1363 175/1364 171/1365
f 174/1366 178/1367 175/1368
f 175/1369 176/1370 177/1371
f 177/1372 178/1373 175/1374
f 179/1375 180/1376 181/1377
f 181/1378 182/1379 179/1380
f 175/1381 180/1382 176/1383
f 175/1384 179/1385 180/1386
f 176/1387 181/1388 177/1389
f 176/1390 180/1391 181/1392
f 177/1393 182/1394 178/1395
f 177/1396 181/1397 182/1398
f 178/1399 179/1400 175/1401
f 178/1402 182/1403 179/1404
f 179/1405 180/1406 181/1407
f 181/1408 182/1409 179/1410
f 183/1411 184/1412 185/1413
f 185/1414 186/1415 183/1416
f 179/1417 184/1418 180/1419
f 179/1420 183/1421 184/1422
f 180/1423 185/1424 181/1425
f 180/1426 184/1427 185/1428
f 181/1429 186/1430 182/1431
f 181/1432 185/1433 186/1434
f 182/1435 183/1436 179/1437
f 182/1438 186/1439 183/1440
f 183/1441 184/1442 185/1443
f 185/1444 186/1445 183/1446
f 187/1447 188/1448 189/1449
f 188/1450 190/1451 189/1452
f 183/1453 188/1454 184/1455
f 183/1456 187/1457 188/1458
f 184/1459 190/1460 185/1461
f 184/1462 188/1463 190/1464
f 185/1465 189/1466 186/1467
f 185/1468 190/1469 189/1470
f 186/1471 187/1472 183/1473
f 186/1474 189/1475 187/1476
f 191/1477 192/1478 193/1479
f 193/1480 194/1481 191/1482
f 195/1483 196/1484 197/1485
f 197/1486 198/1487 195/1488
f 191/1489 196/1490 192/1491
f 191/1492 195/1493 196/1494
f 192/1495 196/1496 193/1497
f 196/1498 197/1499 193/1500
f 193/1501 198/1502 194/1503
f 193/1504 197/1505 198/1506
f 194/1507 195/1508 191/1509
f 194/1510 198/1511 195/1512
f 195/1513 196/1514 197/1515
f 197/1516 198/1517 195/1518
f 199/1519 200/1520 201/1521
f 201/1522 202/1523 199/1524
f 195/1525 200/1526 196/1527
f 195/1528 199/1529 200/1530
f 196/1531 201/1532 197/1533
f 196/1534 200/1535 201/1536
f 197/1537 202/1538 198/1539
f 197/1540 201/1541 202/1542
f 198/1543 199/1544 195/1545
f 198/1546 202/1547 199/1548
f 199/1549 200/1550 201/1551
f 201/1552 202/1553 199/1554
f 203/1555 204/1556 205/1557
f 205/1558 206/1559 203/1560
f 199/1561 204/1562 200/1563
f 199/1564 203/1565 204/1566
f 200/1567 205/1568 201/1569
f 200/1570 204/1571 205/1572
f 201/1573 206/1574 202/1575
f 201/1576 205/1577 206/1578
f 202/1579 203/1580 199/1581
f 202/1582 206/1583 203/1584
f 203/1585 204/1586 205/1587
f 205/1588 206/1589 203/1590
f 207/1591 208/1592 209/1593
f 209/1594 210/1595 207/1596
f 203/1597 208/1598 204/1599
f 203/1600 207/1601 208/1602
f 204/1603 209/1604 205/1605
f 204/1606 208/1607 209/1608
f 205/1609 210/1610 206/1611
f 205/1612 209/1613 210/1614
f 206/1615 207/1616 203/1617
f 206/1618 210/1619 207/1620
f 207/1621 208/1622 209/1623
f 209/1624 210/1625 207/1626
f 211/1627 212/1628 213/1629
f 212/1630 214/1631 213/1632
f 207/1633 212/1634 208/1635
f 207/1636 211/1637 212/1638
f 208/1639 214/1640 209/1641
f 208/1642 212/1643 214/1644
f 209/1645 213/1646 210/1647
f 209/1648 214/1649 213/1650
f 210/1651 211/1652 207/1653
f 210/1654 213/1655 211/1656
f 215/1657 216/1658 217/1659
f 217/1660 218/1661 215/1662
f 219/1663 220/1664 221/1665
f 220/1666 222/1667 221/1668
f 215/1669 220/1670 216/1671
f 215/1672 219/1673 220/1674
f 216/1675 222/1676 217/1677
f 216/1678 220/1679 222/1680
f 217/1681 221/1682 218/1683
f 217/1684 222/1685 221/1686
f 218/1687 221/1688 215/1689
f 221/1690 219/1691 215/1692
f 211/1693 212/1694 214/1695
f 214/1696 213/1697 211/1698
f 91/1699 92/1700 94/1701
f 92/1702 93/1703 94/1704
f 211/1705 92/1706 212/1707
f 211/1708 91/1709 92/1710
f 212/1711 93/1712 214/1713
f 212/1714 92/1715 93/1716
f 214/1717 94/1718 213/1719
f 214/1720 93/1721 94/1722
f 213/1723 94/1724 211/1725
f 94/1726 91/1727 211/1728
f 87/1729 88/1730 90/1731
f 90/1732 89/1733 87/1734
f 215/1735 216/1736 218/1737
f 216/1738 217/1739 218/1740
f 87/1741 216/1742 88/1743
f 87/1744 215/1745 216/1746
f 88/1747 217/1748 90/1749
f 88/1750 216/1751 217/1752
f 90/1753 218/1754 89/1755
f 90/1756 217/1757 218/1758
f 89/1759 218/1760 87/1761
f 218/1762 215/1763 87/1764
f 219/1765 220/1766 222/1767
f 222/1768 221/1769 219/1770
f 138/1771 139/1772 141/1773
f 139/1774 140/1775 141/1776
f 219/1777 139/1778 220/1779
f 219/1780 138/1781 139/1782
f 220/1783 139/1784 222/1785
f 139/1786 223/1787 222/1788
f 222/1789 224/1790 221/1791
f 222/1792 223/1793 224/1794
f 221/1795 138/1796 219/1797
f 221/1798 224/1799 138/1800
f 225/1801 226/1802 227/1803
f 227/1804 228/1805 225/1806
f 229/1807 230/1808 231/1809
f 230/1810 232/1811 231/1812
f 225/1813 230/1814 226/1815
f 225/1816 229/1817 230/1818
f 226/1819 230/1820 227/1821
f 230/1822 232/1823 227/1824
f 227/1825 231/1826 228/1827
f 227/1828 232/1829 231/1830
f 228/1831 229/1832 225/1833
f 228/1834 231/1835 229/1836
f 233/1837 234/1838 235/1839
f 235/1840 236/1841 233/1842
f 237/1843 238/1844 239/1845
f 238/1846 240/1847 239/1848
f 233/1849 238/1850 234/1851
f 233/1852 237/1853 238/1854
f 234/1855 238/1856 235/1857
f 238/1858 240/1859 235/1860
f 235/1861 239/1862 236/1863
f 235/1864 240/1865 239/1866
f 236/1867 237/1868 233/1869
f 236/1870 239/1871 237/1872
f 237/1873 238/1874 240/1875
f 240/1876 239/1877 237/1878
f 241/1879 242/1880 243/1881
f 242/1882 244/1883 243/1884
f 237/1885 242/1886 238/1887
f 237/1888 241/1889 242/1890
f 238/1891 242/1892 240/1893
f 242/1894 244/1895 240/1896
f 240/1897 243/1898 239/1899
f 240/1900 244/1901 243/1902
f 239/1903 241/1904 237/1905
f 239/1906 243/1907 241/1908
f 245/1909 246/1910 247/1911
f 247/1912 248/1913 245/1914
f 225/1915 226/1916 228/1917
f 226/1918 227/1919 228/1920
f 245/1921 226/1922 246/1923
f 245/1924 225/1925 226/1926
f 246/1927 227/1928 247/1929
f 246/1930 226/1931 227/1932
f 247/1933 228/1934 248/1935
f 247/1936 227/1937 228/1938
f 248/1939 228/1940 245/1941
f 228/1942 225/1943 245/1944
f 124/1945 125/1946 127/1947
f 127/1948 126/1949 124/1950
f 245/1951 246/1952 248/1953
f 246/1954 247/1955 248/1956
f 124/1957 246/1958 125/1959
f 124/1960 245/1961 246/1962
f 125/1963 247/1964 127/1965
f 125/1966 246/1967 247/1968
f 127/1969 248/1970 126/1971
f 127/1972 247/1973 248/1974
f 126/1975 248/1976 124/1977
f 248/1978 245/1979 124/1980
f 241/1981 242/1982 244/1983
f 244/1984 243/1985 241/1986
f 128/1987 129/1988 131/1989
f 129/1990 130/1991 131/1992
f 241/1993 129/1994 242/1995
f 241/1996 128/1997 129/1998
f 242/1999 130/2000 244/2001
f 242/2002 129/2003 130/2004
f 244/2005 131/2006 243/2007
f 244/2008 130/2009 131/2010
f 243/2011 131/2012 241/2013
f 131/2014 128/2015 241/2016
f 229/2017 230/2018 232/2019
f 232/2020 231/2021 229/2022
f 233/2023 234/2024 236/2025
f 234/2026 235/2027 236/2028
f 229/2029 234/2030 230/2031
f 229/2032 233/2033 234/2034
f 230/2035 234/2036 232/2037
f 234/2038 235/2039 232/2040
f 232/2041 236/2042 231/2043
f 232/2044 235/2045 236/2046
f 231/2047 233/2048 229/2049
f 231/2050 236/2051 233/2052
