# USD → MuJoCo (world-space, simplified)
v -1.973546 2.577915 1.409787
v -1.970628 2.589699 1.517808
v -1.971467 2.590725 1.517696
v -1.972080 2.576120 1.409982
v -1.969316 2.589905 1.517770
v -1.969784 2.576482 1.409917
v -1.968841 2.591138 1.517621
v -1.968953 2.578638 1.409655
v -1.969679 2.592164 1.517509
v -1.970419 2.580433 1.409460
v -1.970992 2.591958 1.517547
v -1.972715 2.580072 1.409526
v -1.970116 2.581219 1.433596
v -1.970089 2.581764 1.434426
v -1.971122 2.582097 1.435218
v -1.972040 2.581455 1.434479
v -1.971917 2.580935 1.433647
v -1.971910 2.580405 1.432829
v -1.970896 2.580096 1.432079
v -1.970071 2.575839 1.437516
v -1.969937 2.580690 1.432733
v -1.971542 2.583589 1.450997
v -1.971828 2.583431 1.451900
v -1.971218 2.582709 1.452803
v -1.970236 2.582388 1.452003
v -1.970103 2.582644 1.451093
v -1.969849 2.582817 1.450204
v -1.970455 2.583520 1.449348
v -1.971446 2.583882 1.450051
v -1.967742 2.588051 1.453270
v -1.970458 2.584390 1.468557
v -1.970101 2.584457 1.469410
v -1.970011 2.585515 1.470111
v -1.970549 2.586226 1.469204
v -1.970853 2.585956 1.468377
v -1.971196 2.585859 1.467543
v -1.971272 2.584826 1.466885
v -1.970761 2.584063 1.467705
v -1.975826 2.584153 1.471044
v -1.970118 2.587865 1.485811
v -1.970327 2.588226 1.486602
v -1.971012 2.587694 1.487483
v -1.971165 2.586684 1.486788
v -1.970843 2.586533 1.485975
v -1.970623 2.586207 1.485195
v -1.966031 2.585083 1.488312
v -1.969960 2.586738 1.484360
v -1.969760 2.587751 1.484960
v -1.968986 2.601515 1.409446
v -1.969757 2.603590 1.410160
v -1.972038 2.603951 1.410436
v -1.973548 2.602238 1.409997
v -1.972777 2.600163 1.409282
v -1.970496 2.599802 1.409007
v -1.971564 2.591023 1.432022
v -1.974246 2.578816 1.460380
v -1.968992 2.586828 1.442381
v -1.969620 2.592204 1.438672
v -1.978847 2.550228 1.509076
v -1.978406 2.549114 1.508497
v -1.980139 2.550534 1.509029
v -1.980992 2.549728 1.508404
v -1.980552 2.548615 1.507825
v -1.979259 2.548308 1.507872
v -1.971982 2.592702 1.432131
v -1.972190 2.591935 1.432729
v -1.971329 2.591032 1.433231
v -1.970248 2.591569 1.432641
v -1.970189 2.592361 1.432052
v -1.970017 2.593122 1.431465
v -1.970868 2.593983 1.430991
v -1.970182 2.596055 1.437606
v -1.971972 2.593532 1.431523
v -1.971536 2.583832 1.447335
v -1.971236 2.583528 1.448198
v -1.971586 2.584003 1.449367
v -1.972381 2.584909 1.448855
v -1.972573 2.585082 1.447934
v -1.972848 2.585356 1.447074
v -1.972496 2.584881 1.445956
v -1.971704 2.583974 1.446363
v -1.976702 2.580316 1.448207
v -1.973353 2.576664 1.463331
v -1.973750 2.576380 1.464123
v -1.974227 2.575222 1.464360
v -1.973924 2.574797 1.463197
v -1.973509 2.575258 1.462512
v -1.973116 2.575564 1.461751
v -1.972662 2.576689 1.461543
v -1.972917 2.577185 1.462645
v -1.968318 2.574088 1.465183
v -1.975701 2.566868 1.477757
v -1.975676 2.566166 1.478318
v -1.974903 2.566027 1.479278
v -1.974367 2.567122 1.479041
v -1.974566 2.567694 1.478387
v -1.974615 2.568365 1.477823
v -1.975369 2.568478 1.476903
v -1.975944 2.567436 1.477057
v -1.978771 2.569606 1.481556
v -1.976471 2.558419 1.493183
v -1.976428 2.558349 1.494047
v -1.977375 2.558353 1.494796
v -1.978120 2.558474 1.493854
v -1.977901 2.558524 1.493024
v -1.977911 2.558590 1.492180
v -1.977534 2.553317 1.492890
v -1.976987 2.558584 1.491478
v -1.976196 2.558467 1.492324
v -1.961013 2.580736 1.409810
v -1.949075 2.570220 1.516349
v -1.947774 2.570457 1.516204
v -1.963287 2.580321 1.410064
v -1.949533 2.568973 1.516298
v -1.964088 2.578140 1.409975
v -1.948690 2.567963 1.516102
v -1.962615 2.576373 1.409632
v -1.947390 2.568200 1.515957
v -1.960341 2.576788 1.409378
v -1.946932 2.569447 1.516008
v -1.959540 2.578969 1.409467
v -1.959097 2.575625 1.433409
v -1.958610 2.575320 1.434219
v -1.957795 2.576044 1.435003
v -1.957932 2.577174 1.434292
v -1.958470 2.577335 1.433480
v -1.958960 2.577604 1.432681
v -1.959745 2.576885 1.431938
v -1.963703 2.578110 1.437520
v -1.959672 2.575744 1.432566
v -1.955823 2.575346 1.450720
v -1.955794 2.575652 1.451629
v -1.956694 2.575451 1.452555
v -1.957475 2.574766 1.451762
v -1.957343 2.574545 1.450844
v -1.957341 2.574259 1.449948
v -1.956458 2.574466 1.449070
v -1.955641 2.575140 1.449764
v -1.953704 2.569816 1.452809
v -1.955129 2.573630 1.468234
v -1.955219 2.573267 1.469082
v -1.954319 2.572661 1.469743
v -1.953465 2.572806 1.468814
v -1.953577 2.573220 1.468000
v -1.953520 2.573585 1.467172
v -1.954403 2.574166 1.466553
v -1.955294 2.574072 1.467396
v -1.952661 2.578377 1.470747
v -1.951752 2.571276 1.485350
v -1.951312 2.571266 1.486127
v -1.951417 2.572103 1.487029
v -1.952246 2.572741 1.486372
v -1.952557 2.572550 1.485564
v -1.952971 2.572533 1.484797
v -1.952855 2.571715 1.483941
v -1.952049 2.571036 1.484503
v -1.956081 2.569006 1.487922
v -1.957151 2.551731 1.409429
v -1.955770 2.549991 1.410117
v -1.960329 2.559810 1.435892
v -1.953492 2.550360 1.410409
v -1.952596 2.552469 1.410014
v -1.957210 2.561959 1.435699
v -1.953977 2.554210 1.409326
v -1.956255 2.553840 1.409033
v -1.965795 2.583498 1.481479
v -1.966875 2.597411 1.500121
v -1.969896 2.609480 1.515512
v -1.970629 2.610244 1.514707
v -1.968576 2.609631 1.515551
v -1.967988 2.610545 1.514786
v -1.968720 2.611309 1.513981
v -1.970041 2.611158 1.513941
v -1.957540 2.560203 1.433040
v -1.957612 2.560964 1.433682
v -1.958735 2.561507 1.434188
v -1.959569 2.560679 1.433529
v -1.959351 2.559943 1.432901
v -1.959247 2.559200 1.432273
v -1.958147 2.558691 1.431797
v -1.958279 2.556133 1.438303
v -1.957263 2.559448 1.432394
v -1.961297 2.567620 1.448552
v -1.961710 2.567772 1.449414
v -1.961259 2.567389 1.450588
v -1.960188 2.566814 1.450088
v -1.959915 2.566750 1.449168
v -1.959535 2.566617 1.448309
v -1.959990 2.566998 1.447186
v -1.961055 2.567579 1.447580
v -1.957585 2.572644 1.449769
v -1.962530 2.574416 1.464780
v -1.962282 2.574812 1.465593
v -1.962228 2.576069 1.465847
v -1.962606 2.576389 1.464663
v -1.962817 2.575824 1.463953
v -1.963054 2.575406 1.463171
v -1.963100 2.574189 1.462948
v -1.962740 2.573787 1.464068
v -1.968281 2.575171 1.466424
v -1.964230 2.584382 1.479164
v -1.964525 2.585055 1.479698
v -1.965360 2.584950 1.480625
v -1.965490 2.583722 1.480418
v -1.965075 2.583220 1.479795
v -1.964768 2.582584 1.479257
v -1.963962 2.582708 1.478368
v -1.963772 2.583897 1.478496
v -1.960563 2.582921 1.483308
v -1.967256 2.593180 1.494104
v -1.967376 2.593313 1.494965
v -1.966526 2.593704 1.495749
v -1.965705 2.593760 1.494848
v -1.965829 2.593563 1.494007
v -1.965743 2.593424 1.493164
v -1.967956 2.598409 1.493287
v -1.966576 2.593046 1.492427
v -1.967432 2.592961 1.493233
v -1.963737 2.568697 1.409810
v -1.977936 2.561519 1.516349
v -1.978198 2.560224 1.516204
v -1.963278 2.570963 1.410064
v -1.978923 2.562408 1.516298
v -1.965006 2.572517 1.409975
v -1.980174 2.562001 1.516102
v -1.967193 2.571805 1.409632
v -1.980437 2.560706 1.515957
v -1.967653 2.569540 1.409378
v -1.979449 2.559817 1.516008
v -1.965925 2.567986 1.409467
v -1.969194 2.568817 1.433409
v -1.969658 2.568478 1.434219
v -1.969290 2.567452 1.435003
v -1.968189 2.567159 1.434292
v -1.967839 2.567599 1.433480
v -1.967407 2.567955 1.432681
v -1.967784 2.568950 1.431938
v -1.965176 2.572170 1.437520
v -1.968870 2.569307 1.432566
v -1.970670 2.565881 1.450720
v -1.970396 2.565741 1.451629
v -1.970248 2.566651 1.452555
v -1.970595 2.567630 1.451762
v -1.970849 2.567589 1.450844
v -1.971115 2.567694 1.449948
v -1.971251 2.566798 1.449070
v -1.970928 2.565788 1.449764
v -1.976591 2.565968 1.452809
v -1.972521 2.565874 1.468234
v -1.972824 2.566092 1.469082
v -1.973721 2.565482 1.469743
v -1.973903 2.564635 1.468814
v -1.973477 2.564585 1.468000
v -1.973160 2.564397 1.467172
v -1.972293 2.565001 1.466553
v -1.972049 2.565862 1.467396
v -1.969030 2.561819 1.470747
v -1.975960 2.563613 1.485350
v -1.976133 2.563208 1.486127
v -1.975317 2.562995 1.487029
v -1.974417 2.563527 1.486372
v -1.974479 2.563887 1.485564
v -1.974341 2.564278 1.484797
v -1.976460 2.568475 1.487922
v -1.975144 2.564474 1.483941
v -1.976073 2.563978 1.484503
v -1.959498 2.545071 1.410027
v -1.955485 2.551954 1.429796
v -1.957964 2.543325 1.410109
v -1.955698 2.543751 1.409804
v -1.954966 2.545924 1.409415
v -1.956499 2.547670 1.409333
v -1.958765 2.547244 1.409639
v -1.958246 2.582991 1.466956
v -1.959747 2.602391 1.484659
v -1.960384 2.619708 1.494876
v -1.961266 2.620159 1.493989
v -1.959082 2.619880 1.494666
v -1.958663 2.620504 1.493569
v -1.959545 2.620955 1.492682
v -1.960846 2.620783 1.492892
v -1.955391 2.554849 1.431982
v -1.955418 2.555722 1.432461
v -1.956487 2.556317 1.433019
v -1.957349 2.555342 1.432680
v -1.957176 2.554501 1.432186
v -1.957117 2.553649 1.431712
v -1.956069 2.553093 1.431180
v -1.955069 2.551941 1.437978
v -1.955162 2.553988 1.431465
v -1.957425 2.565379 1.445897
v -1.957735 2.565731 1.446739
v -1.957114 2.565682 1.447893
v -1.956077 2.565044 1.447405
v -1.955922 2.564757 1.446504
v -1.955646 2.564423 1.445664
v -1.956265 2.564482 1.444561
v -1.957308 2.565100 1.444945
v -1.953997 2.570662 1.445277
v -1.957138 2.576192 1.459834
v -1.956828 2.576807 1.460463
v -1.956841 2.578080 1.460354
v -1.957380 2.578034 1.459196
v -1.957628 2.577285 1.458710
v -1.957923 2.576659 1.458115
v -1.957900 2.575433 1.458242
v -1.957381 2.575382 1.459364
v -1.962643 2.577130 1.461957
v -1.957882 2.589786 1.470945
v -1.953701 2.589772 1.474734
v -1.958158 2.590573 1.471289
v -1.958861 2.590722 1.472305
v -1.958918 2.589491 1.472483
v -1.958544 2.588848 1.471985
v -1.958259 2.588096 1.471626
v -1.957581 2.587976 1.470644
v -1.957471 2.589148 1.470394
v -1.959736 2.602644 1.482816
v -1.959761 2.603039 1.483592
v -1.958859 2.603681 1.484083
v -1.958171 2.603467 1.483109
v -1.958387 2.603009 1.482408
v -1.958393 2.602614 1.481656
v -1.960892 2.607235 1.480529
v -1.959274 2.602000 1.481202
v -1.960006 2.602155 1.482100
v -1.977311 2.539421 1.409691
v -1.976750 2.537270 1.410375
v -1.974522 2.536603 1.410406
v -1.972855 2.538087 1.409751
v -1.971693 2.549571 1.437113
v -1.973416 2.540238 1.409067
v -1.975644 2.540905 1.409037
v -1.964610 2.561094 1.453219
v -1.960891 2.575656 1.469777
v -1.949800 2.592954 1.485417
v -1.940998 2.612221 1.495440
v -1.941597 2.612868 1.494444
v -1.939804 2.611667 1.495250
v -1.939208 2.611761 1.494065
v -1.939807 2.612408 1.493070
v -1.941001 2.612962 1.493259
v -1.970395 2.548742 1.431818
v -1.970012 2.549516 1.432315
v -1.970675 2.550567 1.432833
v -1.971888 2.550147 1.432430
v -1.972129 2.549328 1.431925
v -1.972475 2.548556 1.431434
v -1.971812 2.547549 1.430941
v -1.971885 2.546084 1.437774
v -1.970596 2.547877 1.431292
v -1.967630 2.558832 1.445947
v -1.967756 2.559278 1.446795
v -1.967297 2.558897 1.447967
v -1.966705 2.557827 1.447486
v -1.966675 2.557515 1.446577
v -1.966569 2.557102 1.445731
v -1.967023 2.557489 1.444610
v -1.967626 2.558547 1.444986
v -1.961945 2.561663 1.445638
v -1.962495 2.567701 1.460317
v -1.961932 2.568063 1.460973
v -1.961284 2.569167 1.460899
v -1.961731 2.569422 1.459724
v -1.962313 2.568914 1.459206
v -1.962870 2.568533 1.458585
v -1.963486 2.567464 1.458678
v -1.963106 2.567136 1.459814
v -1.966837 2.571337 1.462358
v -1.956516 2.579592 1.471761
v -1.956354 2.580416 1.472104
v -1.956903 2.580917 1.473109
v -1.957595 2.579891 1.473287
v -1.957599 2.579136 1.472795
v -1.957735 2.578336 1.472437
v -1.957193 2.577873 1.471465
v -1.956485 2.578822 1.471217
v -1.952976 2.577441 1.475692
v -1.951664 2.591785 1.483487
v -1.950284 2.596227 1.480898
v -1.951475 2.592183 1.484246
v -1.950361 2.592298 1.484728
v -1.949880 2.591700 1.483781
v -1.950302 2.591374 1.483093
v -1.950519 2.590992 1.482357
v -1.951599 2.590893 1.481911
v -1.952150 2.591459 1.482784
v -1.994756 2.586592 1.409890
v -1.996829 2.586071 1.410807
v -1.997665 2.583907 1.410638
v -1.996428 2.582264 1.409552
v -1.994355 2.582785 1.408635
v -1.993519 2.584949 1.408804
v -1.976423 2.575420 1.442106
v -1.946738 2.561697 1.478488
v -1.929718 2.551642 1.495051
v -1.928761 2.552056 1.494226
v -1.930312 2.550470 1.494845
v -1.929949 2.549712 1.493815
v -1.928992 2.550127 1.492990
v -1.928398 2.551298 1.493195
v -1.983942 2.577899 1.430078
v -1.983155 2.577495 1.430534
v -1.982066 2.578130 1.431001
v -1.982477 2.579352 1.430624
v -1.983313 2.579613 1.430162
v -1.984098 2.579979 1.429712
v -1.985142 2.579344 1.429268
v -1.986261 2.579417 1.436145
v -1.984825 2.578121 1.429598
v -1.973328 2.574941 1.443805
v -1.972867 2.575077 1.444639
v -1.973233 2.574649 1.445822
v -1.974317 2.574069 1.445370
v -1.974641 2.574028 1.444471
v -1.975069 2.573912 1.443638
v -1.974696 2.574335 1.442506
v -1.973625 2.574925 1.442853
v -1.970621 2.569242 1.443561
v -1.964395 2.569970 1.458174
v -1.964059 2.569427 1.458851
v -1.962973 2.568757 1.458820
v -1.962693 2.569160 1.457642
v -1.963180 2.569731 1.457103
v -1.963534 2.570271 1.456459
v -1.964586 2.570908 1.456511
v -1.964938 2.570572 1.457647
v -1.960749 2.574265 1.460113
v -1.952893 2.564107 1.470096
v -1.952102 2.563934 1.470487
v -1.951643 2.564503 1.471491
v -1.952650 2.565226 1.471576
v -1.953365 2.565228 1.471043
v -1.954132 2.565375 1.470639
v -1.954554 2.564813 1.469671
v -1.953622 2.564074 1.469511
v -1.955348 2.560859 1.473956
v -1.941724 2.559316 1.482841
v -1.941432 2.559155 1.483643
v -1.941440 2.558076 1.484186
v -1.941942 2.557584 1.483203
v -1.942154 2.557986 1.482472
v -1.942430 2.558174 1.481694
v -1.942413 2.559222 1.481190
v -1.941929 2.559780 1.482092
v -1.937177 2.557601 1.480921
v -1.975386 2.605615 1.410094
v -1.977042 2.607094 1.410787
v -1.979282 2.606589 1.410414
v -1.979865 2.604606 1.409348
v -1.978209 2.603127 1.408655
v -1.975969 2.603632 1.409029
v -1.976821 2.591623 1.431800
v -1.969187 2.550094 1.478898
v -1.967305 2.529628 1.496715
v -1.966387 2.529059 1.495939
v -1.968596 2.529416 1.496480
v -1.968970 2.528636 1.495470
v -1.968051 2.528068 1.494695
v -1.966760 2.528279 1.494930
v -1.977587 2.591718 1.430241
v -1.977465 2.590829 1.430673
v -1.976324 2.590301 1.431153
v -1.975564 2.591362 1.430828
v -1.975829 2.592208 1.430387
v -1.975982 2.593074 1.429960
v -1.977097 2.593563 1.429503
v -1.977870 2.594296 1.436390
v -1.977911 2.592580 1.429780
v -1.974043 2.580931 1.443685
v -1.973672 2.580611 1.444515
v -1.974251 2.580611 1.445692
v -1.975356 2.581158 1.445244
v -1.975570 2.581427 1.444349
v -1.975906 2.581733 1.443520
v -1.975327 2.581722 1.442393
v -1.974221 2.581196 1.442737
v -1.977034 2.575371 1.443205
v -1.972920 2.570329 1.457725
v -1.973163 2.569716 1.458386
v -1.973051 2.568444 1.458322
v -1.972549 2.568488 1.457147
v -1.972374 2.569235 1.456626
v -1.972147 2.569859 1.456000
v -1.972264 2.571084 1.456083
v -1.972755 2.571138 1.457218
v -1.967296 2.569910 1.459715
v -1.970856 2.557345 1.469399
v -1.974993 2.557339 1.473250
v -1.970523 2.556603 1.469792
v -1.969800 2.556573 1.470806
v -1.969824 2.557815 1.470899
v -1.970247 2.558396 1.470364
v -1.970586 2.559101 1.469958
v -1.971282 2.559107 1.468980
v -1.971315 2.557915 1.468812
v -1.968117 2.545566 1.482208
v -1.966733 2.540805 1.480432
v -1.968086 2.545257 1.483023
v -1.968967 2.544631 1.483572
v -1.969651 2.544710 1.482574
v -1.969446 2.545100 1.481830
v -1.969447 2.545413 1.481039
v -1.968587 2.546014 1.480529
v -1.967859 2.545987 1.481446
v -1.990311 2.585079 1.409392
v -1.992513 2.585251 1.410121
v -1.993782 2.583330 1.410450
v -1.992850 2.581238 1.410050
v -1.990648 2.581065 1.409321
v -1.989379 2.582986 1.408992
v -1.972556 2.580468 1.453923
v -1.986534 2.580819 1.429093
v -1.984558 2.581471 1.423045
v -1.953288 2.570700 1.484566
v -1.951153 2.569806 1.493334
v -1.929925 2.562241 1.519874
v -1.928896 2.562221 1.519032
v -1.930649 2.561142 1.520065
v -1.930345 2.560024 1.519414
v -1.929316 2.560004 1.518571
v -1.928592 2.561103 1.518381
v -1.982617 2.580150 1.433120
v -1.981964 2.579722 1.433742
v -1.980782 2.580217 1.434158
v -1.980884 2.581363 1.433458
v -1.981615 2.581667 1.432859
v -1.982275 2.582060 1.432252
v -1.983415 2.581562 1.431863
v -1.984852 2.583634 1.438392
v -1.983402 2.580422 1.432507
v -1.973661 2.578703 1.448203
v -1.973224 2.578958 1.449031
v -1.973742 2.578939 1.450243
v -1.974911 2.578489 1.449835
v -1.975196 2.578277 1.448938
v -1.975597 2.578033 1.448110
v -1.975075 2.578060 1.446949
v -1.973911 2.578495 1.447252
v -1.972262 2.572639 1.449683
v -1.966834 2.576093 1.464249
v -1.966650 2.575700 1.465086
v -1.965721 2.574848 1.465349
v -1.965293 2.574839 1.464134
v -1.965618 2.575321 1.463401
v -1.965823 2.575723 1.462596
v -1.966727 2.576544 1.462365
v -1.967208 2.576617 1.463514
v -1.962373 2.580057 1.465405
v -1.957466 2.571879 1.478531
v -1.956737 2.571711 1.479055
v -1.956233 2.572493 1.479902
v -1.957091 2.573379 1.479656
v -1.957775 2.573343 1.479060
v -1.958485 2.573478 1.478534
v -1.958954 2.572708 1.477723
v -1.958167 2.571795 1.477895
v -1.960812 2.570400 1.483020
v -1.948186 2.569770 1.493333
v -1.947982 2.569862 1.494191
v -1.948212 2.569041 1.495075
v -1.948727 2.568281 1.494260
v -1.948825 2.568412 1.493395
v -1.949011 2.568351 1.492552
v -1.943665 2.566791 1.492685
v -1.948781 2.569155 1.491716
v -1.948267 2.569950 1.492432
v -1.984134 2.594990 1.409442
v -1.986032 2.596136 1.410144
v -1.988041 2.594997 1.410424
v -1.979378 2.586437 1.435715
v -1.988152 2.592713 1.410001
v -1.986254 2.591567 1.409298
v -1.984245 2.592705 1.409019
v -1.959285 2.554326 1.504459
v -1.955894 2.549574 1.513818
v -1.954886 2.549027 1.513146
v -1.957075 2.548964 1.513859
v -1.957248 2.547807 1.513227
v -1.956240 2.547260 1.512554
v -1.955059 2.547870 1.512514
v -1.980957 2.586687 1.432610
v -1.980634 2.585982 1.433236
v -1.979397 2.585843 1.433746
v -1.978893 2.586920 1.433117
v -1.979346 2.587551 1.432502
v -1.979692 2.588228 1.431888
v -1.980896 2.588343 1.431408
v -1.981683 2.590633 1.437946
v -1.981471 2.587317 1.431977
v -1.975011 2.580669 1.448051
v -1.974582 2.580658 1.448916
v -1.975150 2.580852 1.450083
v -1.976344 2.581029 1.449569
v -1.976609 2.581006 1.448648
v -1.977000 2.581010 1.447786
v -1.976430 2.580820 1.446670
v -1.975238 2.580635 1.447078
v -1.976787 2.574690 1.449176
v -1.971759 2.574611 1.464281
v -1.971873 2.574165 1.465094
v -1.971498 2.572973 1.465369
v -1.971010 2.572793 1.464200
v -1.970992 2.573389 1.463488
v -1.970896 2.573851 1.462705
v -1.971266 2.575003 1.462462
v -1.971764 2.575266 1.463566
v -1.966172 2.575895 1.466017
v -1.967062 2.566069 1.478928
v -1.971102 2.566317 1.482894
v -1.966573 2.565561 1.479493
v -1.965859 2.565981 1.480425
v -1.966156 2.567163 1.480163
v -1.966697 2.567462 1.479513
v -1.967185 2.567931 1.478946
v -1.967866 2.567504 1.478053
v -1.967636 2.566335 1.478233
v -1.961691 2.559513 1.494351
v -1.961570 2.559496 1.495216
v -1.962258 2.558893 1.496014
v -1.962960 2.558489 1.495110
v -1.959195 2.554873 1.493990
v -1.962873 2.558656 1.494264
v -1.962966 2.558691 1.493417
v -1.962290 2.559279 1.492667
v -1.961561 2.559716 1.493474
v -1.990792 2.567544 1.409420
v -1.992604 2.566251 1.410095
v -1.992349 2.563959 1.410396
v -1.990282 2.562960 1.410022
v -1.988471 2.564253 1.409347
v -1.988726 2.566545 1.409046
v -1.984105 2.566249 1.430390
v -1.972627 2.574111 1.462883
v -1.951737 2.578446 1.496770
v -1.938001 2.583002 1.515994
v -1.937202 2.583667 1.515165
v -1.937841 2.581693 1.516165
v -1.936882 2.581049 1.515507
v -1.936083 2.581714 1.514678
v -1.936243 2.583022 1.514507
v -1.982916 2.567772 1.433144
v -1.982178 2.567826 1.433812
v -1.981611 2.568936 1.434319
v -1.982379 2.569788 1.433615
v -1.983099 2.569587 1.432964
v -1.983821 2.569501 1.432309
v -1.984355 2.568413 1.431833
v -1.987148 2.568766 1.438221
v -1.983656 2.567512 1.432474
v -1.975969 2.571575 1.448860
v -1.975839 2.572007 1.449715
v -1.976288 2.571604 1.450883
v -1.976877 2.570539 1.450387
v -1.976911 2.570243 1.449473
v -1.977021 2.569844 1.448621
v -1.976577 2.570253 1.447504
v -1.975977 2.571308 1.447895
v -1.971139 2.567737 1.450392
v -1.969843 2.573092 1.465326
v -1.969492 2.572866 1.466165
v -1.968252 2.572788 1.466480
v -1.967868 2.573109 1.465299
v -1.968394 2.573308 1.464557
v -1.968767 2.573525 1.463749
v -1.969970 2.573595 1.463468
v -1.970432 2.573291 1.464580
v -1.968999 2.578869 1.466780
v -1.960499 2.575142 1.480086
v -1.959846 2.575450 1.480635
v -1.959976 2.576333 1.481510
v -1.961188 2.576476 1.481237
v -1.961668 2.576038 1.480614
v -1.962284 2.575716 1.480064
v -1.962136 2.574863 1.479226
v -1.960960 2.574658 1.479421
v -1.962229 2.571736 1.484325
v -1.952347 2.578842 1.495224
v -1.952253 2.579022 1.496078
v -1.951909 2.578228 1.496936
v -1.951819 2.577348 1.496099
v -1.951976 2.577415 1.495245
v -1.952076 2.577270 1.494407
v -1.947100 2.579444 1.494609
v -1.952409 2.578050 1.493597
v -1.952522 2.578959 1.494335
v -1.950696 2.556154 1.409389
v -1.948884 2.554893 1.410121
v -1.946818 2.555909 1.410453
v -1.946565 2.558186 1.410053
v -1.948377 2.559447 1.409321
v -1.950442 2.558431 1.408989
v -1.954426 2.560005 1.428928
v -1.954014 2.563051 1.424778
v -1.967636 2.577290 1.469656
v -1.980447 2.587320 1.489999
v -1.990900 2.593725 1.511635
v -1.991802 2.594327 1.510866
v -1.989805 2.594380 1.512012
v -1.989614 2.595636 1.511620
v -1.990516 2.596237 1.510851
v -1.991610 2.595582 1.510474
v -1.954814 2.564057 1.432442
v -1.955172 2.564747 1.433065
v -1.956447 2.564905 1.433466
v -1.956920 2.563869 1.432750
v -1.956431 2.563248 1.432153
v -1.956048 2.562585 1.431546
v -1.954810 2.562451 1.431172
v -1.954688 2.559889 1.437653
v -1.954262 2.563437 1.431832
v -1.962078 2.569582 1.447494
v -1.962600 2.569555 1.448306
v -1.962168 2.569288 1.449515
v -1.960927 2.569115 1.449127
v -1.960562 2.569182 1.448242
v -1.960078 2.569216 1.447431
v -1.960518 2.569477 1.446272
v -1.961744 2.569663 1.446556
v -1.960354 2.575452 1.449135
v -1.967102 2.574760 1.463569
v -1.967092 2.575146 1.464419
v -1.967498 2.576319 1.464728
v -1.967834 2.576584 1.463522
v -1.967762 2.576041 1.462774
v -1.967758 2.575635 1.461955
v -1.967360 2.574500 1.461680
v -1.967006 2.574157 1.462816
v -1.972858 2.573410 1.464487
v -1.973711 2.582225 1.478085
v -1.970287 2.581633 1.482549
v -1.974285 2.582676 1.478616
v -1.975118 2.582171 1.479392
v -1.974766 2.581020 1.479071
v -1.974131 2.580785 1.478483
v -1.973559 2.580372 1.477953
v -1.972764 2.580881 1.477211
v -1.973038 2.582027 1.477461
v -1.981463 2.587190 1.493059
v -1.984066 2.591769 1.492829
v -1.981728 2.587096 1.493885
v -1.981210 2.587611 1.494854
v -1.980387 2.588141 1.494138
v -1.980325 2.588078 1.493277
v -1.980090 2.588151 1.492462
v -1.980603 2.587646 1.491544
v -1.981436 2.587095 1.492156
v -1.985751 2.559659 1.409389
v -1.986990 2.557833 1.410121
v -1.985950 2.555779 1.410453
v -1.983671 2.555552 1.410053
v -1.982431 2.557378 1.409321
v -1.983471 2.559432 1.408989
v -1.981943 2.563433 1.428927
v -1.978892 2.563058 1.424779
v -1.964813 2.576844 1.469656
v -1.956817 2.588959 1.487785
v -1.953545 2.590139 1.491797
v -1.948649 2.600297 1.511635
v -1.948058 2.601206 1.510866
v -1.947982 2.599211 1.512012
v -1.946724 2.599033 1.511620
v -1.946133 2.599943 1.510851
v -1.946800 2.601029 1.510474
v -1.977896 2.563869 1.432442
v -1.977211 2.564235 1.433065
v -1.977067 2.565511 1.433466
v -1.978108 2.565973 1.432750
v -1.978723 2.565476 1.432153
v -1.979382 2.565086 1.431546
v -1.979502 2.563846 1.431172
v -1.982062 2.563694 1.437653
v -1.978510 2.563309 1.431832
v -1.972456 2.571197 1.447494
v -1.972488 2.571718 1.448306
v -1.972751 2.571283 1.449515
v -1.972910 2.570040 1.449127
v -1.972838 2.569676 1.448242
v -1.972799 2.569193 1.447431
v -1.972543 2.569636 1.446272
v -1.972370 2.570864 1.446556
v -1.966566 2.569541 1.449135
v -1.967337 2.576280 1.463569
v -1.966950 2.576275 1.464419
v -1.965782 2.576695 1.464728
v -1.965521 2.577034 1.463522
v -1.966064 2.576955 1.462774
v -1.966469 2.576946 1.461955
v -1.967599 2.576536 1.461680
v -1.967939 2.576178 1.462816
v -1.968754 2.582020 1.464487
v -1.959949 2.582976 1.478085
v -1.960500 2.579546 1.482549
v -1.959504 2.583555 1.478616
v -1.960019 2.584382 1.479392
v -1.961166 2.584016 1.479071
v -1.961394 2.583380 1.478483
v -1.961800 2.582802 1.477953
v -1.961282 2.582013 1.477211
v -1.960139 2.582301 1.477461
v -1.955074 2.590785 1.493059
v -1.950526 2.593441 1.492829
v -1.955171 2.591049 1.493885
v -1.954651 2.590537 1.494854
v -1.954111 2.589720 1.494138
v -1.954173 2.589657 1.493277
v -1.954097 2.589423 1.492462
v -1.954608 2.589931 1.491544
v -1.955169 2.590757 1.492156
v -1.930109 2.585275 1.409978
v -1.928627 2.586843 1.410847
v -1.929055 2.589114 1.410590
v -1.930965 2.589818 1.409464
v -1.932446 2.588250 1.408595
v -1.932018 2.585978 1.408852
v -1.942428 2.585419 1.424469
v -1.943462 2.587212 1.431160
v -1.991793 2.577090 1.478600
v -2.011281 2.575538 1.496164
v -2.011879 2.574673 1.495350
v -2.011469 2.576844 1.495999
v -2.012253 2.577285 1.495019
v -2.012850 2.576419 1.494206
v -2.012663 2.575113 1.494371
v -1.945181 2.586831 1.429580
v -1.946096 2.586725 1.429961
v -1.946689 2.585585 1.430362
v -1.945642 2.584798 1.430056
v -1.944764 2.585049 1.429669
v -1.943872 2.585186 1.429292
v -1.943319 2.586301 1.428911
v -1.942910 2.586744 1.435862
v -1.944284 2.587141 1.429176
v -1.956733 2.583152 1.442341
v -1.957102 2.582762 1.443145
v -1.957125 2.583294 1.444345
v -1.956518 2.584394 1.443965
v -1.956204 2.584634 1.443089
v -1.955851 2.584989 1.442286
v -1.955840 2.584455 1.441135
v -1.956422 2.583357 1.441412
v -1.962163 2.586392 1.441769
v -1.967884 2.581908 1.455935
v -1.968510 2.582149 1.456588
v -1.969785 2.582089 1.456483
v -1.969726 2.581632 1.455288
v -1.968970 2.581449 1.454780
v -1.968334 2.581221 1.454161
v -1.967106 2.581288 1.454285
v -1.967066 2.581733 1.455443
v -1.968580 2.576207 1.457692
v -1.981243 2.579866 1.467194
v -1.982003 2.579539 1.467564
v -1.982072 2.578773 1.468547
v -1.980829 2.578750 1.468661
v -1.980222 2.579177 1.468152
v -1.979498 2.579512 1.467769
v -1.979455 2.580250 1.466820
v -1.980645 2.580331 1.466635
v -1.981177 2.583858 1.471250
v -1.993232 2.576916 1.479756
v -1.993541 2.576853 1.480574
v -1.994146 2.577724 1.481170
v -1.994056 2.578459 1.480205
v -1.993672 2.578284 1.479445
v -1.993360 2.578315 1.478650
v -1.998065 2.575725 1.477926
v -1.992779 2.577464 1.478095
v -1.992818 2.576689 1.478976
v -1.939932 2.548624 1.410062
v -1.937797 2.548013 1.410753
v -1.936006 2.549457 1.410413
v -1.936350 2.551512 1.409381
v -1.938485 2.552124 1.408689
v -1.940276 2.550680 1.409029
v -1.945737 2.565811 1.435007
v -1.947251 2.565480 1.441548
v -1.972241 2.600307 1.483009
v -1.982921 2.615145 1.496675
v -1.983903 2.615130 1.495778
v -1.981893 2.615975 1.496521
v -1.981848 2.616789 1.495471
v -1.982829 2.616774 1.494575
v -1.983857 2.615944 1.494728
v -1.943655 2.561997 1.430561
v -1.944132 2.562751 1.431005
v -1.945379 2.562746 1.431512
v -1.945627 2.561463 1.431191
v -1.945038 2.560809 1.430735
v -1.944543 2.560090 1.430295
v -1.943335 2.560118 1.429812
v -1.942173 2.559768 1.436680
v -1.943006 2.561354 1.430084
v -1.951153 2.570260 1.444158
v -1.951614 2.570396 1.444996
v -1.951073 2.570646 1.446166
v -1.949845 2.570620 1.445701
v -1.949548 2.570464 1.444802
v -1.949126 2.570327 1.443966
v -1.949670 2.570086 1.442846
v -1.950892 2.570092 1.443207
v -1.950819 2.576576 1.443650
v -1.956544 2.579432 1.458224
v -1.956592 2.580098 1.458879
v -1.957245 2.581197 1.458804
v -1.957678 2.580930 1.457629
v -1.957511 2.580175 1.457113
v -1.957444 2.579506 1.456492
v -1.956807 2.578452 1.456586
v -1.956341 2.578627 1.457722
v -1.961814 2.577387 1.460232
v -1.964124 2.590327 1.469754
v -1.964765 2.590847 1.470126
v -1.965450 2.590563 1.471129
v -1.964876 2.589463 1.471252
v -1.964224 2.589122 1.470737
v -1.963593 2.588637 1.470351
v -1.962944 2.588931 1.469382
v -1.963443 2.590012 1.469186
v -1.960503 2.592245 1.473688
v -1.972271 2.599764 1.482176
v -1.972492 2.600040 1.482976
v -1.972042 2.601021 1.483535
v -1.971341 2.601257 1.482570
v -1.971292 2.600801 1.481833
v -1.971097 2.600507 1.481055
v -1.975641 2.603291 1.480118
v -1.971544 2.599558 1.480536
v -1.972253 2.599255 1.481420
v -2.003365 2.565652 1.410054
v -2.004963 2.564063 1.410626
v -2.004527 2.561803 1.410293
v -2.002492 2.561132 1.409388
v -2.000894 2.562721 1.408816
v -2.001330 2.564981 1.409149
v -1.989506 2.563735 1.433874
v -1.941987 2.570620 1.480157
v -1.922185 2.573171 1.494873
v -1.921709 2.574044 1.493990
v -1.921973 2.571869 1.494701
v -1.921286 2.571441 1.493647
v -1.920810 2.572314 1.492764
v -1.921022 2.573615 1.492936
v -1.990056 2.562868 1.430681
v -1.989154 2.562952 1.431096
v -1.988567 2.564070 1.431563
v -1.989599 2.564877 1.431257
v -1.990465 2.564648 1.430831
v -1.991345 2.564533 1.430421
v -1.991892 2.563440 1.429975
v -1.992531 2.562712 1.436884
v -1.990941 2.562582 1.430237
v -1.978808 2.565972 1.443836
v -1.978439 2.566335 1.444652
v -1.978420 2.565764 1.445834
v -1.979030 2.564678 1.445417
v -1.979343 2.564469 1.444533
v -1.979694 2.564141 1.443718
v -1.979702 2.564712 1.442585
v -1.979116 2.565799 1.442900
v -1.973388 2.562736 1.443169
v -1.967595 2.566770 1.457425
v -1.966956 2.566514 1.458058
v -1.965683 2.566577 1.457927
v -1.965768 2.567064 1.456745
v -1.966535 2.567259 1.456258
v -1.967185 2.567502 1.455660
v -1.968409 2.567431 1.455808
v -1.968424 2.566958 1.456955
v -1.966863 2.572423 1.459307
v -1.953946 2.568565 1.468360
v -1.953172 2.568889 1.468700
v -1.953062 2.569639 1.469692
v -1.954298 2.569653 1.469862
v -1.954925 2.569232 1.469375
v -1.955665 2.568900 1.469020
v -1.955748 2.568178 1.468061
v -1.954567 2.568107 1.467821
v -1.953811 2.564508 1.472342
v -1.941350 2.571400 1.480331
v -1.940982 2.571462 1.481123
v -1.940324 2.570596 1.481667
v -1.940477 2.569866 1.480706
v -1.940918 2.570041 1.479979
v -1.941288 2.570010 1.479209
v -1.936685 2.572663 1.478157
v -1.941919 2.570857 1.478704
v -1.941823 2.571627 1.479586
v -1.958261 2.612509 1.409848
v -1.959049 2.614450 1.410860
v -1.961306 2.614993 1.410733
v -1.962776 2.613596 1.409594
v -1.961988 2.611656 1.408582
v -1.959731 2.611113 1.408709
v -1.972414 2.585537 1.451143
v -1.968479 2.586985 1.445622
v -1.989181 2.539096 1.492820
v -1.990447 2.536333 1.495721
v -1.989899 2.535471 1.494871
v -1.991701 2.536738 1.495542
v -1.992406 2.536280 1.494512
v -1.991858 2.535418 1.493661
v -1.990604 2.535013 1.493840
v -1.966242 2.599721 1.429711
v -1.966589 2.598880 1.430119
v -1.965873 2.597839 1.430583
v -1.964678 2.598380 1.430286
v -1.964476 2.599255 1.429866
v -1.964167 2.600091 1.429462
v -1.964879 2.601086 1.429019
v -1.965262 2.601944 1.435940
v -1.966082 2.600640 1.429272
v -1.968869 2.588350 1.442887
v -1.968736 2.587871 1.443716
v -1.969263 2.588151 1.444886
v -1.969920 2.589197 1.444438
v -1.969943 2.589553 1.443546
v -1.970053 2.590001 1.442719
v -1.969533 2.589710 1.441599
v -1.968862 2.588684 1.441944
v -1.974295 2.585117 1.442222
v -1.973730 2.578457 1.456652
v -1.974274 2.578041 1.457290
v -1.974831 2.576892 1.457186
v -1.974345 2.576693 1.456017
v -1.973795 2.577255 1.455520
v -1.973260 2.577688 1.454916
v -1.972731 2.578799 1.455038
v -1.973157 2.579077 1.456171
v -1.969161 2.575143 1.458715
v -1.978947 2.565987 1.467898
v -1.979043 2.565164 1.468264
v -1.978456 2.564738 1.469281
v -1.977848 2.565819 1.469426
v -1.977904 2.566556 1.468912
v -1.977831 2.567352 1.468531
v -1.978408 2.567742 1.467549
v -1.979038 2.566734 1.467332
v -1.982632 2.567965 1.471763
v -1.982742 2.553988 1.480202
v -1.982873 2.553661 1.481005
v -1.983956 2.553514 1.481541
v -1.984513 2.553967 1.480559
v -1.984140 2.554248 1.479825
v -1.983981 2.554563 1.479046
v -1.983843 2.549213 1.478165
v -1.982928 2.554695 1.478548
v -1.982307 2.554271 1.479452
v -1.945289 2.600873 1.409984
v -1.954025 2.597004 1.423671
v -1.944998 2.603060 1.410719
v -1.954956 2.597275 1.429528
v -1.946710 2.604612 1.410457
v -1.948713 2.603977 1.409459
v -1.949003 2.601790 1.408723
v -1.947291 2.600238 1.408986
v -1.984958 2.572606 1.467062
v -1.989609 2.567212 1.477276
v -1.975470 2.576473 1.458208
v -2.005981 2.553227 1.495831
v -2.005952 2.552134 1.495075
v -2.006916 2.554151 1.495628
v -2.007821 2.553982 1.494669
v -2.007792 2.552888 1.493913
v -2.006858 2.551964 1.494117
v -1.958234 2.594731 1.430015
v -1.958936 2.594151 1.430418
v -1.958790 2.592906 1.430906
v -1.957475 2.592833 1.430636
v -1.956886 2.593510 1.430218
v -1.956220 2.594103 1.429818
v -1.956385 2.595306 1.429353
v -1.956469 2.596358 1.436241
v -1.957662 2.595467 1.429577
v -1.966038 2.586006 1.443156
v -1.966151 2.585527 1.443985
v -1.966511 2.586026 1.445144
v -1.966615 2.587249 1.444682
v -1.966459 2.587567 1.443791
v -1.966340 2.588008 1.442963
v -1.965991 2.587504 1.441855
v -1.965865 2.586290 1.442214
v -1.972307 2.585583 1.442390
v -1.975046 2.579537 1.456857
v -1.975720 2.579423 1.457492
v -1.976734 2.578650 1.457397
v -1.976383 2.578236 1.456240
v -1.975639 2.578481 1.455745
v -1.974965 2.578614 1.455144
v -1.973995 2.579366 1.455257
v -1.974255 2.579823 1.456378
v -1.972488 2.574580 1.459001
v -1.985345 2.570989 1.468275
v -1.987667 2.574517 1.472023
v -1.985798 2.570314 1.468666
v -1.985457 2.569703 1.469696
v -1.984427 2.570395 1.469803
v -1.984155 2.571057 1.469265
v -1.983735 2.571718 1.468860
v -1.984083 2.572293 1.467866
v -1.985100 2.571674 1.467684
v -1.993957 2.562481 1.481057
v -1.994189 2.562297 1.481876
v -1.995194 2.562690 1.482428
v -1.995517 2.563286 1.481423
v -1.995085 2.563320 1.480675
v -1.994832 2.563482 1.479879
v -1.997157 2.558659 1.479371
v -1.993859 2.563092 1.479368
v -1.993469 2.562489 1.480291
v -1.934041 2.565695 1.409740
v -1.932006 2.566292 1.410695
v -1.931321 2.568515 1.410676
v -1.932671 2.570139 1.409702
v -1.934705 2.569541 1.408747
v -1.935390 2.567319 1.408766
v -1.954504 2.574622 1.443939
v -1.952593 2.577285 1.445653
v -1.990564 2.593635 1.485568
v -2.003511 2.599949 1.496167
v -2.004377 2.599466 1.495281
v -2.002989 2.601160 1.495995
v -2.003333 2.601887 1.494937
v -2.004198 2.601405 1.494051
v -2.004720 2.600194 1.494223
v -1.945070 2.573261 1.430596
v -1.945860 2.573646 1.431066
v -1.946925 2.572984 1.431553
v -1.946491 2.571771 1.431168
v -1.945656 2.571529 1.430692
v -1.944869 2.571183 1.430227
v -1.943849 2.571844 1.429765
v -1.942602 2.571801 1.436623
v -1.944190 2.573060 1.430100
v -1.955537 2.576051 1.444462
v -1.955990 2.575920 1.445304
v -1.955622 2.576372 1.446479
v -1.954550 2.576966 1.446010
v -1.954231 2.577000 1.445106
v -1.953811 2.577111 1.444267
v -1.954187 2.576663 1.443142
v -1.955245 2.576058 1.443506
v -1.958358 2.581716 1.444154
v -1.964499 2.581107 1.458791
v -1.964852 2.581661 1.459455
v -1.965953 2.582310 1.459401
v -1.966219 2.581878 1.458227
v -1.965716 2.581302 1.457701
v -1.965345 2.580755 1.457070
v -1.964279 2.580137 1.457144
v -1.963941 2.580504 1.458278
v -1.968098 2.576769 1.460804
v -1.976256 2.586983 1.470452
v -1.973972 2.590402 1.474342
v -1.977064 2.587141 1.470823
v -1.977532 2.586576 1.471830
v -1.976506 2.585880 1.471956
v -1.975773 2.585885 1.471440
v -1.974990 2.585753 1.471055
v -1.974558 2.586310 1.470083
v -1.975509 2.587023 1.469884
v -1.987929 2.591616 1.482777
v -1.992509 2.593110 1.480630
v -1.988263 2.591773 1.483568
v -1.988330 2.592860 1.484102
v -1.987808 2.593373 1.483134
v -1.987543 2.592976 1.482411
v -1.987224 2.592792 1.481643
v -1.987169 2.591736 1.481148
v -1.987666 2.591157 1.482037
v -1.990232 2.556071 1.409891
v -1.990919 2.553914 1.410427
v -1.989424 2.552141 1.410257
v -1.987241 2.552524 1.409551
v -1.986554 2.554681 1.409015
v -1.988049 2.556454 1.409185
v -1.978181 2.560068 1.439364
v -1.975161 2.564119 1.441198
v -1.944383 2.582839 1.483761
v -1.934388 2.588637 1.490088
v -1.925956 2.594662 1.495754
v -1.926085 2.595569 1.494790
v -1.925220 2.593574 1.495549
v -1.924615 2.593391 1.494380
v -1.924744 2.594298 1.493415
v -1.925479 2.595387 1.493621
v -1.979162 2.559076 1.431711
v -1.978435 2.559522 1.432224
v -1.978455 2.560749 1.432776
v -1.979707 2.561033 1.432374
v -1.980336 2.560473 1.431851
v -1.981030 2.560009 1.431344
v -1.980987 2.558819 1.430819
v -1.981846 2.557420 1.437592
v -1.979780 2.558457 1.431166
v -1.971673 2.565895 1.446083
v -1.971567 2.566323 1.446941
v -1.971388 2.565736 1.448100
v -1.971423 2.564528 1.447591
v -1.971542 2.564268 1.446676
v -1.971649 2.563878 1.445821
v -1.971821 2.564467 1.444712
v -1.971800 2.565673 1.445117
v -1.965364 2.565406 1.445865
v -1.962968 2.570552 1.460708
v -1.962319 2.570559 1.461379
v -1.961199 2.571175 1.461348
v -1.961424 2.571648 1.460181
v -1.962170 2.571520 1.459646
v -1.962824 2.571493 1.459009
v -1.963899 2.570890 1.459060
v -1.963767 2.570390 1.460185
v -1.964881 2.575814 1.462808
v -1.952032 2.577455 1.472582
v -1.950221 2.573735 1.476432
v -1.951483 2.578068 1.472952
v -1.951725 2.578753 1.473964
v -1.952843 2.578221 1.474095
v -1.953214 2.577590 1.473577
v -1.953728 2.576986 1.473193
v -1.953474 2.576337 1.472216
v -1.952379 2.576795 1.472012
v -1.941941 2.585150 1.484768
v -1.941595 2.585377 1.485535
v -1.940598 2.584895 1.486027
v -1.940474 2.584162 1.485069
v -1.940988 2.584120 1.484374
v -1.941349 2.583921 1.483630
v -1.938451 2.588283 1.482353
v -1.942311 2.584399 1.483175
v -1.942508 2.585141 1.484058
v -1.942816 2.584498 1.409403
v -1.951851 2.580417 1.436574
v -1.941013 2.585771 1.410134
v -1.941260 2.588062 1.410452
v -1.944082 2.587677 1.417329
v -1.943310 2.589079 1.410039
v -1.945113 2.587806 1.409308
v -1.958247 2.580649 1.443565
v -1.944866 2.585515 1.408990
v -1.973459 2.575721 1.477476
v -1.996148 2.566461 1.514014
v -1.997033 2.565791 1.513283
v -1.996301 2.567767 1.514211
v -1.997340 2.568403 1.513676
v -1.998225 2.567732 1.512945
v -1.998071 2.566426 1.512748
v -1.951896 2.583751 1.432546
v -1.952675 2.583678 1.433162
v -1.953279 2.582554 1.433591
v -1.952469 2.581723 1.432909
v -1.951708 2.581943 1.432314
v -1.950944 2.582048 1.431712
v -1.950376 2.583148 1.431311
v -1.948012 2.582554 1.437848
v -1.951112 2.584030 1.431937
v -1.959835 2.579424 1.447652
v -1.960011 2.578963 1.448482
v -1.959625 2.579322 1.449685
v -1.959009 2.580401 1.449260
v -1.958926 2.580729 1.448361
v -1.958771 2.581158 1.447531
v -1.959155 2.580791 1.446379
v -1.959776 2.579726 1.446699
v -1.964727 2.583217 1.449060
v -1.966741 2.577347 1.463733
v -1.967115 2.577545 1.464567
v -1.968363 2.577614 1.464847
v -1.968710 2.577332 1.463647
v -1.968163 2.577157 1.462916
v -1.967766 2.576967 1.462113
v -1.966557 2.576905 1.461866
v -1.966129 2.577172 1.462999
v -1.967624 2.571537 1.464967
v -1.976421 2.574832 1.478215
v -1.977070 2.574508 1.478757
v -1.976935 2.573604 1.479607
v -1.975726 2.573472 1.479326
v -1.975251 2.573927 1.478713
v -1.974638 2.574264 1.478171
v -1.974791 2.575137 1.477358
v -1.975964 2.575334 1.477563
v -1.974686 2.578117 1.482522
v -1.984372 2.570733 1.493366
v -1.984419 2.570537 1.494218
v -1.984722 2.571311 1.495106
v -1.984860 2.572203 1.494291
v -1.984748 2.572151 1.493431
v -1.984694 2.572312 1.492594
v -1.989625 2.570109 1.493017
v -1.984400 2.571550 1.491755
v -1.984243 2.570631 1.492469
v -1.990583 2.604359 1.409898
v -1.992646 2.604969 1.410782
v -1.994460 2.603524 1.410605
v -1.994211 2.601469 1.409544
v -1.992148 2.600859 1.408660
v -1.990334 2.602304 1.408837
v -1.976470 2.583247 1.447189
v -1.984131 2.587016 1.436754
v -1.954323 2.547080 1.485682
v -1.945659 2.534593 1.495773
v -1.944705 2.534583 1.494846
v -1.946745 2.533842 1.495617
v -1.946877 2.533081 1.494535
v -1.945923 2.533071 1.493609
v -1.944837 2.533822 1.493765
v -1.985543 2.591020 1.430333
v -1.985062 2.590262 1.430766
v -1.983794 2.590248 1.431219
v -1.983534 2.591522 1.430869
v -1.984128 2.592182 1.430430
v -1.984628 2.592906 1.430002
v -1.985857 2.592897 1.429572
v -1.986707 2.593358 1.436491
v -1.986199 2.591672 1.429876
v -1.977684 2.582756 1.443732
v -1.977199 2.582615 1.444556
v -1.977708 2.582393 1.445747
v -1.978951 2.582450 1.445323
v -1.979274 2.582605 1.444431
v -1.979720 2.582746 1.443608
v -1.979205 2.582960 1.442467
v -1.977972 2.582921 1.442787
v -1.978218 2.576437 1.443306
v -1.972126 2.573539 1.457706
v -1.972082 2.572872 1.458362
v -1.971471 2.571748 1.458271
v -1.971063 2.571996 1.457082
v -1.971217 2.572756 1.456567
v -1.971277 2.573426 1.455945
v -1.971874 2.574505 1.456055
v -1.972313 2.574351 1.457206
v -1.966713 2.575398 1.459561
v -1.964642 2.562364 1.469016
v -1.964014 2.561813 1.469368
v -1.963288 2.562057 1.470356
v -1.963809 2.563183 1.470505
v -1.964461 2.563559 1.470010
v -1.965082 2.564075 1.469645
v -1.965771 2.563819 1.468690
v -1.965325 2.562716 1.468471
v -1.968248 2.560563 1.473053
v -1.956603 2.552420 1.481117
v -1.953477 2.548753 1.478873
v -1.956376 2.552111 1.481907
v -1.956865 2.551140 1.482455
v -1.957606 2.550965 1.481504
v -1.957652 2.551442 1.480777
v -1.957852 2.551766 1.480011
v -1.957367 2.552704 1.479501
v -1.956615 2.552948 1.480372
f 1 2 3
f 1 4 2
f 4 5 2
f 4 6 5
f 6 7 5
f 6 8 7
f 8 9 7
f 8 10 9
f 10 11 9
f 10 12 11
f 12 3 11
f 12 1 3
f 13 14 20
f 14 15 20
f 15 16 20
f 16 17 20
f 17 18 20
f 18 19 20
f 19 21 20
f 21 13 20
f 22 23 30
f 23 24 30
f 24 25 30
f 25 26 30
f 26 27 30
f 27 28 30
f 28 29 30
f 29 22 30
f 31 32 39
f 32 33 39
f 33 34 39
f 34 35 39
f 35 36 39
f 36 37 39
f 37 38 39
f 38 31 39
f 40 41 46
f 41 42 46
f 42 43 46
f 43 44 46
f 44 45 46
f 45 47 46
f 47 48 46
f 48 40 46
f 49 58 57
f 49 50 58
f 50 51 58
f 51 55 58
f 51 52 55
f 52 53 55
f 53 54 55
f 54 57 55
f 54 49 57
f 58 55 56
f 55 57 56
f 57 59 60
f 57 58 59
f 58 61 59
f 58 56 61
f 56 62 61
f 56 63 62
f 56 64 63
f 56 57 64
f 57 60 64
f 65 66 72
f 66 67 72
f 67 68 72
f 68 69 72
f 69 70 72
f 70 71 72
f 71 73 72
f 73 65 72
f 74 75 82
f 75 76 82
f 76 77 82
f 77 78 82
f 78 79 82
f 79 80 82
f 80 81 82
f 81 74 82
f 83 84 91
f 84 85 91
f 85 86 91
f 86 87 91
f 87 88 91
f 88 89 91
f 89 90 91
f 90 83 91
f 92 93 100
f 93 94 100
f 94 95 100
f 95 96 100
f 96 97 100
f 97 98 100
f 98 99 100
f 99 92 100
f 101 102 107
f 102 103 107
f 103 104 107
f 104 105 107
f 105 106 107
f 106 108 107
f 108 109 107
f 109 101 107
f 110 111 112
f 110 113 111
f 113 114 111
f 113 115 114
f 115 116 114
f 115 117 116
f 117 118 116
f 117 119 118
f 119 120 118
f 119 121 120
f 121 112 120
f 121 110 112
f 122 123 129
f 123 124 129
f 124 125 129
f 125 126 129
f 126 127 129
f 127 128 129
f 128 130 129
f 130 122 129
f 131 132 139
f 132 133 139
f 133 134 139
f 134 135 139
f 135 136 139
f 136 137 139
f 137 138 139
f 138 131 139
f 140 141 148
f 141 142 148
f 142 143 148
f 143 144 148
f 144 145 148
f 145 146 148
f 146 147 148
f 147 140 148
f 149 150 157
f 150 151 157
f 151 152 157
f 152 153 157
f 153 154 157
f 154 155 157
f 155 156 157
f 156 149 157
f 158 159 160
f 159 161 160
f 161 163 160
f 161 162 163
f 162 164 163
f 164 160 163
f 164 165 160
f 165 158 160
f 160 163 166
f 163 160 166
f 166 163 167
f 163 166 167
f 167 168 169
f 167 170 168
f 167 171 170
f 167 172 171
f 167 173 172
f 167 169 173
f 174 175 181
f 175 176 181
f 176 177 181
f 177 178 181
f 178 179 181
f 179 180 181
f 180 182 181
f 182 174 181
f 183 184 191
f 184 185 191
f 185 186 191
f 186 187 191
f 187 188 191
f 188 189 191
f 189 190 191
f 190 183 191
f 192 193 200
f 193 194 200
f 194 195 200
f 195 196 200
f 196 197 200
f 197 198 200
f 198 199 200
f 199 192 200
f 201 202 209
f 202 203 209
f 203 204 209
f 204 205 209
f 205 206 209
f 206 207 209
f 207 208 209
f 208 201 209
f 210 211 216
f 211 212 216
f 212 213 216
f 213 214 216
f 214 215 216
f 215 217 216
f 217 218 216
f 218 210 216
f 219 220 221
f 219 222 220
f 222 223 220
f 222 224 223
f 224 225 223
f 224 226 225
f 226 227 225
f 226 228 227
f 228 229 227
f 228 230 229
f 230 221 229
f 230 219 221
f 231 232 238
f 232 233 238
f 233 234 238
f 234 235 238
f 235 236 238
f 236 237 238
f 237 239 238
f 239 231 238
f 240 241 248
f 241 242 248
f 242 243 248
f 243 244 248
f 244 245 248
f 245 246 248
f 246 247 248
f 247 240 248
f 249 250 257
f 250 251 257
f 251 252 257
f 252 253 257
f 253 254 257
f 254 255 257
f 255 256 257
f 256 249 257
f 258 259 264
f 259 260 264
f 260 261 264
f 261 262 264
f 262 263 264
f 263 265 264
f 265 266 264
f 266 258 264
f 267 269 268
f 269 270 268
f 270 271 268
f 271 272 268
f 272 273 268
f 273 267 268
f 275 276 277
f 275 278 276
f 275 279 278
f 275 274 279
f 274 280 279
f 274 281 280
f 274 277 281
f 274 275 277
f 282 283 289
f 283 284 289
f 284 285 289
f 285 286 289
f 286 287 289
f 287 288 289
f 288 290 289
f 290 282 289
f 291 292 299
f 292 293 299
f 293 294 299
f 294 295 299
f 295 296 299
f 296 297 299
f 297 298 299
f 298 291 299
f 300 301 308
f 301 302 308
f 302 303 308
f 303 304 308
f 304 305 308
f 305 306 308
f 306 307 308
f 307 300 308
f 309 311 310
f 311 312 310
f 312 313 310
f 313 314 310
f 314 315 310
f 315 316 310
f 316 317 310
f 317 309 310
f 318 319 324
f 319 320 324
f 320 321 324
f 321 322 324
f 322 323 324
f 323 325 324
f 325 326 324
f 326 318 324
f 327 328 331
f 328 329 331
f 329 330 331
f 330 332 331
f 332 334 331
f 332 333 334
f 333 331 334
f 333 327 331
f 334 331 335
f 335 331 334
f 334 335 336
f 334 336 335
f 336 337 338
f 336 339 337
f 336 340 339
f 336 341 340
f 336 342 341
f 336 338 342
f 343 344 350
f 344 345 350
f 345 346 350
f 346 347 350
f 347 348 350
f 348 349 350
f 349 351 350
f 351 343 350
f 352 353 360
f 353 354 360
f 354 355 360
f 355 356 360
f 356 357 360
f 357 358 360
f 358 359 360
f 359 352 360
f 361 362 369
f 362 363 369
f 363 364 369
f 364 365 369
f 365 366 369
f 366 367 369
f 367 368 369
f 368 361 369
f 370 371 378
f 371 372 378
f 372 373 378
f 373 374 378
f 374 375 378
f 375 376 378
f 376 377 378
f 377 370 378
f 379 381 380
f 381 382 380
f 382 383 380
f 383 384 380
f 384 385 380
f 385 386 380
f 386 387 380
f 387 379 380
f 388 389 394
f 389 390 394
f 390 391 394
f 391 392 394
f 392 393 394
f 393 388 394
f 395 396 397
f 395 398 396
f 395 399 398
f 395 400 399
f 395 401 400
f 395 397 401
f 402 403 409
f 403 404 409
f 404 405 409
f 405 406 409
f 406 407 409
f 407 408 409
f 408 410 409
f 410 402 409
f 411 412 419
f 412 413 419
f 413 414 419
f 414 415 419
f 415 416 419
f 416 417 419
f 417 418 419
f 418 411 419
f 420 421 428
f 421 422 428
f 422 423 428
f 423 424 428
f 424 425 428
f 425 426 428
f 426 427 428
f 427 420 428
f 429 430 437
f 430 431 437
f 431 432 437
f 432 433 437
f 433 434 437
f 434 435 437
f 435 436 437
f 436 429 437
f 438 439 446
f 439 440 446
f 440 441 446
f 441 442 446
f 442 443 446
f 443 444 446
f 444 445 446
f 445 438 446
f 447 448 453
f 448 449 453
f 449 450 453
f 450 451 453
f 451 452 453
f 452 447 453
f 454 455 456
f 454 457 455
f 454 458 457
f 454 459 458
f 454 460 459
f 454 456 460
f 461 462 468
f 462 463 468
f 463 464 468
f 464 465 468
f 465 466 468
f 466 467 468
f 467 469 468
f 469 461 468
f 470 471 478
f 471 472 478
f 472 473 478
f 473 474 478
f 474 475 478
f 475 476 478
f 476 477 478
f 477 470 478
f 479 480 487
f 480 481 487
f 481 482 487
f 482 483 487
f 483 484 487
f 484 485 487
f 485 486 487
f 486 479 487
f 488 490 489
f 490 491 489
f 491 492 489
f 492 493 489
f 493 494 489
f 494 495 489
f 495 496 489
f 496 488 489
f 497 499 498
f 499 500 498
f 500 501 498
f 501 502 498
f 502 503 498
f 503 504 498
f 504 505 498
f 505 497 498
f 506 512 514
f 506 507 512
f 507 513 512
f 507 508 513
f 508 509 513
f 509 514 513
f 509 510 514
f 510 511 514
f 511 506 514
f 514 512 515
f 513 515 516
f 513 514 515
f 512 513 516
f 512 517 518
f 512 516 517
f 516 519 517
f 516 520 519
f 516 521 520
f 516 515 521
f 515 522 521
f 515 518 522
f 515 512 518
f 523 524 530
f 524 525 530
f 525 526 530
f 526 527 530
f 527 528 530
f 528 529 530
f 529 531 530
f 531 523 530
f 532 533 540
f 533 534 540
f 534 535 540
f 535 536 540
f 536 537 540
f 537 538 540
f 538 539 540
f 539 532 540
f 541 542 549
f 542 543 549
f 543 544 549
f 544 545 549
f 545 546 549
f 546 547 549
f 547 548 549
f 548 541 549
f 550 551 558
f 551 552 558
f 552 553 558
f 553 554 558
f 554 555 558
f 555 556 558
f 556 557 558
f 557 550 558
f 559 560 565
f 560 561 565
f 561 562 565
f 562 563 565
f 563 564 565
f 564 566 565
f 566 567 565
f 567 559 565
f 568 569 571
f 569 570 571
f 570 572 571
f 572 573 571
f 573 574 571
f 574 568 571
f 575 576 577
f 575 578 576
f 575 579 578
f 575 580 579
f 575 581 580
f 575 577 581
f 582 583 589
f 583 584 589
f 584 585 589
f 585 586 589
f 586 587 589
f 587 588 589
f 588 590 589
f 590 582 589
f 591 592 599
f 592 593 599
f 593 594 599
f 594 595 599
f 595 596 599
f 596 597 599
f 597 598 599
f 598 591 599
f 600 601 608
f 601 602 608
f 602 603 608
f 603 604 608
f 604 605 608
f 605 606 608
f 606 607 608
f 607 600 608
f 609 611 610
f 611 612 610
f 612 613 610
f 613 614 610
f 614 615 610
f 615 616 610
f 616 617 610
f 617 609 610
f 618 619 622
f 619 620 622
f 620 621 622
f 621 623 622
f 623 624 622
f 624 625 622
f 625 626 622
f 626 618 622
f 627 628 634
f 628 633 634
f 628 629 633
f 629 630 633
f 630 631 633
f 631 634 633
f 631 632 634
f 632 627 634
f 633 634 635
f 634 633 635
f 635 636 637
f 635 638 636
f 635 639 638
f 635 640 639
f 635 641 640
f 635 637 641
f 642 643 649
f 643 644 649
f 644 645 649
f 645 646 649
f 646 647 649
f 647 648 649
f 648 650 649
f 650 642 649
f 651 652 659
f 652 653 659
f 653 654 659
f 654 655 659
f 655 656 659
f 656 657 659
f 657 658 659
f 658 651 659
f 660 661 668
f 661 662 668
f 662 663 668
f 663 664 668
f 664 665 668
f 665 666 668
f 666 667 668
f 667 660 668
f 669 670 677
f 670 671 677
f 671 672 677
f 672 673 677
f 673 674 677
f 674 675 677
f 675 676 677
f 676 669 677
f 678 679 684
f 679 680 684
f 680 681 684
f 681 682 684
f 682 683 684
f 683 685 684
f 685 686 684
f 686 678 684
f 687 688 693
f 688 689 693
f 689 695 693
f 689 690 695
f 690 694 695
f 690 691 694
f 691 692 694
f 692 693 694
f 692 687 693
f 695 694 696
f 694 693 696
f 693 695 696
f 696 697 698
f 696 695 697
f 695 699 697
f 695 700 699
f 695 701 700
f 695 696 701
f 696 702 701
f 696 698 702
f 703 704 710
f 704 705 710
f 705 706 710
f 706 707 710
f 707 708 710
f 708 709 710
f 709 711 710
f 711 703 710
f 712 713 720
f 713 714 720
f 714 715 720
f 715 716 720
f 716 717 720
f 717 718 720
f 718 719 720
f 719 712 720
f 721 722 729
f 722 723 729
f 723 724 729
f 724 725 729
f 725 726 729
f 726 727 729
f 727 728 729
f 728 721 729
f 730 732 731
f 732 733 731
f 733 734 731
f 734 735 731
f 735 736 731
f 736 737 731
f 737 738 731
f 738 730 731
f 739 741 740
f 741 742 740
f 742 743 740
f 743 744 740
f 744 745 740
f 745 746 740
f 746 747 740
f 747 739 740
f 748 749 754
f 749 750 754
f 750 756 754
f 750 751 756
f 751 755 756
f 751 752 755
f 752 753 755
f 753 754 755
f 753 748 754
f 756 755 757
f 755 754 757
f 754 756 757
f 756 757 758
f 757 759 760
f 757 756 759
f 756 761 759
f 756 762 761
f 756 763 762
f 756 758 763
f 758 764 763
f 758 760 764
f 758 757 760
f 765 766 772
f 766 767 772
f 767 768 772
f 768 769 772
f 769 770 772
f 770 771 772
f 771 773 772
f 773 765 772
f 774 775 782
f 775 776 782
f 776 777 782
f 777 778 782
f 778 779 782
f 779 780 782
f 780 781 782
f 781 774 782
f 783 784 791
f 784 785 791
f 785 786 791
f 786 787 791
f 787 788 791
f 788 789 791
f 789 790 791
f 790 783 791
f 792 794 793
f 794 795 793
f 795 796 793
f 796 797 793
f 797 798 793
f 798 799 793
f 799 800 793
f 800 792 793
f 801 803 802
f 803 804 802
f 804 805 802
f 805 806 802
f 806 807 802
f 807 808 802
f 808 809 802
f 809 801 802
f 810 817 816
f 810 811 817
f 811 812 817
f 812 813 817
f 813 816 817
f 813 814 816
f 814 815 816
f 815 810 816
f 817 816 818
f 816 817 818
f 818 819 820
f 818 821 819
f 818 822 821
f 818 823 822
f 818 824 823
f 818 820 824
f 825 826 832
f 826 827 832
f 827 828 832
f 828 829 832
f 829 830 832
f 830 831 832
f 831 833 832
f 833 825 832
f 834 835 842
f 835 836 842
f 836 837 842
f 837 838 842
f 838 839 842
f 839 840 842
f 840 841 842
f 841 834 842
f 843 844 851
f 844 845 851
f 845 846 851
f 846 847 851
f 847 848 851
f 848 849 851
f 849 850 851
f 850 843 851
f 852 853 860
f 853 854 860
f 854 855 860
f 855 856 860
f 856 857 860
f 857 858 860
f 858 859 860
f 859 852 860
f 861 862 867
f 862 863 867
f 863 864 867
f 864 865 867
f 865 866 867
f 866 868 867
f 868 869 867
f 869 861 867
f 870 871 877
f 871 872 877
f 872 876 877
f 872 873 876
f 873 874 876
f 874 877 876
f 874 875 877
f 875 870 877
f 876 877 878
f 877 876 878
f 878 879 880
f 878 881 879
f 878 882 881
f 878 883 882
f 878 884 883
f 878 880 884
f 885 886 892
f 886 887 892
f 887 888 892
f 888 889 892
f 889 890 892
f 890 891 892
f 891 893 892
f 893 885 892
f 894 895 902
f 895 896 902
f 896 897 902
f 897 898 902
f 898 899 902
f 899 900 902
f 900 901 902
f 901 894 902
f 903 904 911
f 904 905 911
f 905 906 911
f 906 907 911
f 907 908 911
f 908 909 911
f 909 910 911
f 910 903 911
f 912 913 920
f 913 914 920
f 914 915 920
f 915 916 920
f 916 917 920
f 917 918 920
f 918 919 920
f 919 912 920
f 921 922 927
f 922 923 927
f 923 924 927
f 924 925 927
f 925 926 927
f 926 928 927
f 928 929 927
f 929 921 927
f 930 931 936
f 931 932 936
f 932 933 936
f 933 934 936
f 934 935 936
f 935 930 936
f 937 938 939
f 937 940 938
f 937 941 940
f 937 942 941
f 937 943 942
f 937 939 943
f 944 945 951
f 945 946 951
f 946 947 951
f 947 948 951
f 948 949 951
f 949 950 951
f 950 952 951
f 952 944 951
f 953 954 961
f 954 955 961
f 955 956 961
f 956 957 961
f 957 958 961
f 958 959 961
f 959 960 961
f 960 953 961
f 962 963 970
f 963 964 970
f 964 965 970
f 965 966 970
f 966 967 970
f 967 968 970
f 968 969 970
f 969 962 970
f 971 972 979
f 972 973 979
f 973 974 979
f 974 975 979
f 975 976 979
f 976 977 979
f 977 978 979
f 978 971 979
f 980 981 986
f 981 982 986
f 982 983 986
f 983 984 986
f 984 985 986
f 985 987 986
f 987 988 986
f 988 980 986
f 989 990 996
f 990 995 996
f 990 991 995
f 991 992 995
f 992 996 995
f 992 993 996
f 993 994 996
f 994 989 996
f 995 996 997
f 996 995 997
f 997 998 999
f 997 1000 998
f 997 1001 1000
f 997 995 1001
f 995 1002 1001
f 995 997 1002
f 997 1003 1002
f 997 999 1003
f 1004 1005 1011
f 1005 1006 1011
f 1006 1007 1011
f 1007 1008 1011
f 1008 1009 1011
f 1009 1010 1011
f 1010 1012 1011
f 1012 1004 1011
f 1013 1014 1021
f 1014 1015 1021
f 1015 1016 1021
f 1016 1017 1021
f 1017 1018 1021
f 1018 1019 1021
f 1019 1020 1021
f 1020 1013 1021
f 1022 1023 1030
f 1023 1024 1030
f 1024 1025 1030
f 1025 1026 1030
f 1026 1027 1030
f 1027 1028 1030
f 1028 1029 1030
f 1029 1022 1030
f 1031 1032 1039
f 1032 1033 1039
f 1033 1034 1039
f 1034 1035 1039
f 1035 1036 1039
f 1036 1037 1039
f 1037 1038 1039
f 1038 1031 1039
f 1040 1041 1046
f 1041 1042 1046
f 1042 1043 1046
f 1043 1044 1046
f 1044 1045 1046
f 1045 1047 1046
f 1047 1048 1046
f 1048 1040 1046
f 1049 1051 1050
f 1051 1052 1050
f 1051 1053 1052
f 1053 1050 1052
f 1053 1054 1050
f 1054 1055 1050
f 1055 1056 1050
f 1056 1049 1050
f 1059 1050 1052
f 1052 1050 1057
f 1050 1059 1057
f 1059 1052 1058
f 1052 1057 1058
f 1059 1060 1061
f 1059 1058 1060
f 1058 1062 1060
f 1058 1063 1062
f 1058 1057 1063
f 1057 1064 1063
f 1057 1065 1064
f 1057 1059 1065
f 1059 1061 1065
f 1066 1067 1073
f 1067 1068 1073
f 1068 1069 1073
f 1069 1070 1073
f 1070 1071 1073
f 1071 1072 1073
f 1072 1074 1073
f 1074 1066 1073
f 1075 1076 1083
f 1076 1077 1083
f 1077 1078 1083
f 1078 1079 1083
f 1079 1080 1083
f 1080 1081 1083
f 1081 1082 1083
f 1082 1075 1083
f 1084 1085 1092
f 1085 1086 1092
f 1086 1087 1092
f 1087 1088 1092
f 1088 1089 1092
f 1089 1090 1092
f 1090 1091 1092
f 1091 1084 1092
f 1093 1095 1094
f 1095 1096 1094
f 1096 1097 1094
f 1097 1098 1094
f 1098 1099 1094
f 1099 1100 1094
f 1100 1101 1094
f 1101 1093 1094
f 1102 1103 1108
f 1103 1104 1108
f 1104 1105 1108
f 1105 1106 1108
f 1106 1107 1108
f 1107 1109 1108
f 1109 1110 1108
f 1110 1102 1108
f 1111 1112 1117
f 1112 1118 1117
f 1112 1113 1118
f 1113 1114 1118
f 1114 1117 1118
f 1114 1115 1117
f 1115 1116 1117
f 1116 1111 1117
f 1118 1117 1119
f 1117 1118 1119
f 1119 1120 1121
f 1119 1122 1120
f 1119 1123 1122
f 1119 1124 1123
f 1119 1125 1124
f 1119 1121 1125
f 1126 1127 1133
f 1127 1128 1133
f 1128 1129 1133
f 1129 1130 1133
f 1130 1131 1133
f 1131 1132 1133
f 1132 1134 1133
f 1134 1126 1133
f 1135 1136 1143
f 1136 1137 1143
f 1137 1138 1143
f 1138 1139 1143
f 1139 1140 1143
f 1140 1141 1143
f 1141 1142 1143
f 1142 1135 1143
f 1144 1145 1152
f 1145 1146 1152
f 1146 1147 1152
f 1147 1148 1152
f 1148 1149 1152
f 1149 1150 1152
f 1150 1151 1152
f 1151 1144 1152
f 1153 1155 1154
f 1155 1156 1154
f 1156 1157 1154
f 1157 1158 1154
f 1158 1159 1154
f 1159 1160 1154
f 1160 1161 1154
f 1161 1153 1154
f 1162 1164 1163
f 1164 1165 1163
f 1165 1166 1163
f 1166 1167 1163
f 1167 1168 1163
f 1168 1169 1163
f 1169 1170 1163
f 1170 1162 1163
f 1171 1172 1177
f 1172 1173 1177
f 1173 1174 1177
f 1174 1178 1177
f 1174 1175 1178
f 1175 1176 1178
f 1176 1177 1178
f 1176 1171 1177
f 1177 1178 1179
f 1178 1177 1179
f 1180 1181 1182
f 1180 1183 1181
f 1180 1184 1183
f 1180 1185 1184
f 1180 1186 1185
f 1180 1182 1186
f 1187 1188 1194
f 1188 1189 1194
f 1189 1190 1194
f 1190 1191 1194
f 1191 1192 1194
f 1192 1193 1194
f 1193 1195 1194
f 1195 1187 1194
f 1196 1197 1204
f 1197 1198 1204
f 1198 1199 1204
f 1199 1200 1204
f 1200 1201 1204
f 1201 1202 1204
f 1202 1203 1204
f 1203 1196 1204
f 1205 1206 1213
f 1206 1207 1213
f 1207 1208 1213
f 1208 1209 1213
f 1209 1210 1213
f 1210 1211 1213
f 1211 1212 1213
f 1212 1205 1213
f 1214 1216 1215
f 1216 1217 1215
f 1217 1218 1215
f 1218 1219 1215
f 1219 1220 1215
f 1220 1221 1215
f 1221 1222 1215
f 1222 1214 1215
f 1223 1224 1229
f 1224 1225 1229
f 1225 1226 1229
f 1226 1227 1229
f 1227 1228 1229
f 1228 1230 1229
f 1230 1231 1229
f 1231 1223 1229
f 1232 1234 1233
f 1234 1236 1233
f 1234 1235 1236
f 1235 1237 1236
f 1237 1239 1236
f 1237 1238 1239
f 1238 1240 1239
f 1240 1233 1239
f 1240 1232 1233
f 1233 1236 1241
f 1241 1236 1239
f 1233 1242 1243
f 1233 1241 1242
f 1241 1244 1242
f 1241 1245 1244
f 1241 1246 1245
f 1241 1247 1246
f 1241 1239 1247
f 1239 1243 1247
f 1239 1233 1243
f 1248 1249 1255
f 1249 1250 1255
f 1250 1251 1255
f 1251 1252 1255
f 1252 1253 1255
f 1253 1254 1255
f 1254 1256 1255
f 1256 1248 1255
f 1257 1258 1265
f 1258 1259 1265
f 1259 1260 1265
f 1260 1261 1265
f 1261 1262 1265
f 1262 1263 1265
f 1263 1264 1265
f 1264 1257 1265
f 1266 1267 1274
f 1267 1268 1274
f 1268 1269 1274
f 1269 1270 1274
f 1270 1271 1274
f 1271 1272 1274
f 1272 1273 1274
f 1273 1266 1274
f 1275 1276 1283
f 1276 1277 1283
f 1277 1278 1283
f 1278 1279 1283
f 1279 1280 1283
f 1280 1281 1283
f 1281 1282 1283
f 1282 1275 1283
f 1284 1285 1290
f 1285 1286 1290
f 1286 1287 1290
f 1287 1288 1290
f 1288 1289 1290
f 1289 1291 1290
f 1291 1292 1290
f 1292 1284 1290
f 1293 1294 1299
f 1294 1300 1299
f 1294 1295 1300
f 1295 1296 1300
f 1296 1297 1300
f 1297 1299 1300
f 1297 1298 1299
f 1298 1293 1299
f 1299 1300 1301
f 1300 1299 1301
f 1301 1302 1303
f 1301 1304 1302
f 1301 1305 1304
f 1301 1306 1305
f 1301 1307 1306
f 1301 1303 1307
f 1308 1309 1315
f 1309 1310 1315
f 1310 1311 1315
f 1311 1312 1315
f 1312 1313 1315
f 1313 1314 1315
f 1314 1316 1315
f 1316 1308 1315
f 1317 1318 1325
f 1318 1319 1325
f 1319 1320 1325
f 1320 1321 1325
f 1321 1322 1325
f 1322 1323 1325
f 1323 1324 1325
f 1324 1317 1325
f 1326 1327 1334
f 1327 1328 1334
f 1328 1329 1334
f 1329 1330 1334
f 1330 1331 1334
f 1331 1332 1334
f 1332 1333 1334
f 1333 1326 1334
f 1335 1336 1343
f 1336 1337 1343
f 1337 1338 1343
f 1338 1339 1343
f 1339 1340 1343
f 1340 1341 1343
f 1341 1342 1343
f 1342 1335 1343
f 1344 1346 1345
f 1346 1347 1345
f 1347 1348 1345
f 1348 1349 1345
f 1349 1350 1345
f 1350 1351 1345
f 1351 1352 1345
f 1352 1344 1345
