# USD → MuJoCo (world-space, simplified)
v 0.015171 0.151394 -0.054299
v 0.013343 0.147608 -0.052696
v 0.010492 0.143688 -0.049853
v 0.015337 0.160551 -0.054703
v 0.015782 0.156059 -0.054621
v 0.011082 0.167701 -0.051073
v 0.008833 0.142761 -0.049004
v 0.015361 0.160531 -0.020748
v 0.014122 0.163508 -0.015009
v 0.004910 0.141264 -0.048290
v 0.008649 0.142445 -0.020840
v 0.010237 0.143343 -0.022440
v 0.000000 -0.300732 -0.048355
v 0.005064 -0.300782 -0.049032
v 0.005068 -0.309074 -0.048850
v 0.009786 -0.309480 -0.050763
v 0.009788 -0.300922 -0.050971
v 0.013834 -0.301146 -0.054083
v 0.013829 -0.310130 -0.053830
v 0.016948 -0.310956 -0.057811
v 0.016960 -0.299687 -0.058159
v 0.018901 -0.307581 -0.062822
v 0.019574 -0.314426 -0.067699
v 0.016960 -0.313838 -0.077156
v 0.013845 -0.314540 -0.081152
v 0.009802 -0.320327 -0.082982
v 0.009788 -0.313256 -0.084393
v 0.005064 -0.313535 -0.086318
v 0.005071 -0.320835 -0.084870
v 0.000000 -0.313631 -0.086989
v 0.018902 -0.322390 -0.069483
v 0.016971 -0.324372 -0.073779
v 0.013871 -0.326090 -0.077455
v 0.005064 -0.328068 -0.081979
v 0.000000 -0.328365 -0.082588
v 0.000000 -0.320542 -0.085659
v 0.000000 -0.309941 -0.048064
v 0.005043 -0.313151 -0.047072
v 0.009754 -0.314370 -0.048599
v 0.013797 -0.316317 -0.051062
v 0.016932 -0.318826 -0.054301
v 0.018894 -0.316150 -0.061259
v 0.013868 -0.337185 -0.069448
v 0.009829 -0.331672 -0.077912
v 0.005075 -0.334747 -0.078070
v 0.000000 -0.334733 -0.078909
v 0.018902 -0.331117 -0.063084
v 0.016970 -0.334376 -0.066519
v 0.009805 -0.340944 -0.069892
v 0.005076 -0.342370 -0.071228
v 0.000000 -0.342537 -0.072052
v 0.004994 -0.316139 -0.042687
v 0.009785 -0.317307 -0.044802
v 0.013828 -0.320109 -0.046193
v 0.016949 -0.323729 -0.048030
v 0.018892 -0.325312 -0.054602
v 0.013834 -0.342638 -0.062398
v 0.013873 -0.346871 -0.053973
v 0.009834 -0.349807 -0.055102
v 0.009788 -0.345272 -0.064070
v 0.005064 -0.346914 -0.065112
v 0.005064 -0.349429 -0.060616
v 0.000000 -0.350039 -0.060914
v 0.000000 -0.347486 -0.065475
v 0.000000 -0.314457 -0.044730
v 0.000000 -0.315658 -0.040919
v 0.009752 -0.318319 -0.040892
v 0.013809 -0.321409 -0.041392
v 0.016943 -0.325516 -0.041551
v 0.018895 -0.330187 -0.043572
v 0.019576 -0.330603 -0.056396
v 0.018905 -0.338159 -0.052495
v 0.016986 -0.342458 -0.054480
v 0.005080 -0.352343 -0.053301
v 0.000000 -0.352846 -0.053981
v 0.005107 -0.316554 -0.031121
v 0.016947 -0.345170 -0.035930
v 0.016953 -0.344749 -0.044780
v 0.013834 -0.348755 -0.045360
v 0.013818 -0.349215 -0.036247
v 0.009761 -0.352329 -0.036512
v 0.009788 -0.351843 -0.045806
v 0.005064 -0.353769 -0.046084
v 0.000000 -0.354440 -0.046181
v 0.000000 -0.315858 -0.030983
v 0.009809 -0.318502 -0.009892
v 0.013850 -0.321627 -0.009892
v 0.019574 -0.335403 -0.042048
v 0.018896 -0.340383 -0.040974
v 0.018898 -0.340488 0.005406
v 0.016953 -0.345212 0.005541
v 0.013834 -0.349258 0.005658
v 0.009788 -0.352377 0.005747
v 0.005092 -0.354281 -0.035718
v 0.000000 -0.354917 -0.037206
v 0.005116 0.140585 -0.049129
v 0.000012 0.140401 -0.048443
v 0.009784 0.140573 -0.051015
v 0.010359 0.142429 -0.050656
v 0.018897 0.313750 -0.062909
v 0.018897 0.313750 -0.073038
v 0.016953 0.313750 -0.077762
v 0.013834 0.313750 -0.081808
v -0.000000 0.313750 -0.087550
v 0.000005 0.314173 -0.048403
v 0.013833 0.313934 -0.054142
v 0.007681 0.314308 -0.050510
v 0.019569 0.313937 -0.067991
v 0.018329 0.314307 -0.063310
v 0.005063 0.314144 -0.086870
v 0.011592 0.315047 -0.056383
v 0.016402 0.315048 -0.067974
v 0.017009 0.160090 -0.057308
v 0.013934 0.163832 -0.053990
v 0.009738 0.170279 -0.051036
v 0.016953 -0.250806 -0.058186
v 0.019576 0.092295 -0.067974
v 0.013834 -0.250806 -0.081808
v 0.009788 -0.250806 -0.084927
v 0.016944 0.131955 -0.058184
v 0.017690 0.155045 -0.058735
v 0.016912 0.142792 -0.058057
v 0.018903 0.142741 -0.062950
v 0.018896 0.164660 -0.062923
v 0.016969 0.167317 -0.058241
v 0.013477 0.141293 -0.053792
v 0.016432 0.151422 -0.056663
v 0.013734 0.168804 -0.054085
v 0.009105 0.169179 -0.049076
v 0.005033 0.170940 -0.049106
v -0.000000 0.171980 -0.048438
v 0.005064 -0.250807 -0.049077
v 0.013226 0.147457 -0.007158
v -0.000000 0.171861 -0.035353
v 0.004897 0.171093 -0.022570
v -0.015781 0.156061 -0.054086
v -0.015163 0.151391 -0.053622
v -0.015352 0.160521 -0.053790
v -0.014064 0.163587 -0.052578
v -0.008663 0.142457 -0.021860
v -0.010448 0.143628 -0.049833
v -0.005063 -0.300782 -0.049032
v -0.009788 -0.300922 -0.050971
v -0.013834 -0.301146 -0.054083
v -0.016953 -0.301437 -0.058119
v -0.016947 -0.310956 -0.057811
v -0.019576 -0.299465 -0.067941
v -0.018897 -0.302506 -0.072933
v -0.016953 -0.302846 -0.077646
v -0.016960 -0.313838 -0.077156
v -0.013834 -0.303138 -0.081682
v -0.013879 -0.316488 -0.080884
v -0.009788 -0.303363 -0.084794
v -0.009788 -0.313256 -0.084393
v -0.005063 -0.313535 -0.086318
v -0.005067 -0.309074 -0.048850
v -0.009786 -0.309480 -0.050763
v -0.013828 -0.310130 -0.053830
v -0.018894 -0.312968 -0.062355
v -0.019573 -0.316058 -0.066977
v -0.018904 -0.314681 -0.072279
v -0.016962 -0.322390 -0.074607
v -0.009802 -0.320327 -0.082982
v -0.009788 -0.327214 -0.080232
v -0.005071 -0.320835 -0.084870
v -0.005063 -0.328068 -0.081979
v -0.018887 -0.324562 -0.055640
v -0.018908 -0.328649 -0.065686
v -0.016983 -0.332981 -0.068013
v -0.013849 -0.327999 -0.076352
v -0.009804 -0.333649 -0.076454
v -0.005075 -0.334747 -0.078070
v -0.009722 -0.314851 -0.048243
v -0.005022 -0.313552 -0.046788
v -0.016914 -0.319631 -0.053714
v -0.013763 -0.316932 -0.050597
v -0.019575 -0.330603 -0.056396
v -0.009805 -0.340944 -0.069892
v -0.013868 -0.337185 -0.069448
v -0.005076 -0.342370 -0.071228
v -0.018905 -0.338159 -0.052495
v -0.016953 -0.339223 -0.060230
v -0.016972 -0.343083 -0.052517
v -0.013834 -0.342638 -0.062398
v -0.009788 -0.345272 -0.064070
v -0.005063 -0.346914 -0.065112
v -0.005063 -0.349429 -0.060616
v -0.009791 -0.317514 -0.044273
v -0.009752 -0.318319 -0.040893
v -0.005022 -0.316208 -0.042228
v -0.013834 -0.320388 -0.045495
v -0.016952 -0.324101 -0.047112
v -0.013808 -0.321409 -0.041392
v -0.018895 -0.329782 -0.045035
v -0.009834 -0.349807 -0.055102
v -0.013873 -0.346871 -0.053973
v -0.005080 -0.352343 -0.053301
v -0.005047 -0.316500 -0.034691
v -0.016940 -0.325423 -0.042068
v -0.019573 -0.335403 -0.042048
v -0.016953 -0.344749 -0.044780
v -0.018896 -0.340383 -0.040974
v -0.013834 -0.348755 -0.045360
v -0.009788 -0.351843 -0.045806
v -0.005063 -0.353769 -0.046084
v -0.018898 -0.330345 -0.034680
v -0.016946 -0.345170 -0.035930
v -0.018897 -0.340488 0.005406
v -0.013818 -0.349215 -0.036247
v -0.009761 -0.352329 -0.036512
v -0.005026 -0.354265 -0.036678
v -0.005048 0.140553 -0.049134
v -0.009774 0.140509 -0.051007
v -0.016953 0.313750 -0.058185
v -0.016953 0.313750 -0.077762
v -0.018897 0.313750 -0.073038
v -0.005064 0.313750 -0.086872
v -0.005064 0.313934 -0.049079
v -0.015537 0.161968 -0.055637
v -0.016818 0.158168 -0.056984
v -0.009737 0.170919 -0.051041
v -0.018897 0.092295 -0.062910
v -0.016953 0.092295 -0.058186
v -0.016953 0.092295 -0.077762
v -0.018897 0.092295 -0.073038
v -0.013834 0.092295 -0.081808
v -0.013834 0.092295 -0.054140
v -0.018900 0.142812 -0.062934
v -0.017690 0.155045 -0.058735
v -0.016980 0.141588 -0.058284
v -0.018898 0.164659 -0.062927
v -0.016968 0.167350 -0.058243
v -0.010338 0.142456 -0.050645
v -0.016044 0.152181 -0.056101
v -0.013667 0.140961 -0.054000
v -0.013362 0.147624 -0.053385
v -0.016396 0.156356 -0.056411
v -0.013660 0.168866 -0.054020
v -0.016949 0.211065 -0.058192
v -0.013839 0.211108 -0.054175
v -0.005033 0.170940 -0.049106
v -0.011035 0.167778 -0.051050
v -0.009004 0.169263 -0.049814
v -0.004910 0.141264 -0.048290
v -0.005063 -0.250807 -0.049077
v -0.008849 0.142768 -0.048849
v 0.013355 0.147624 0.032918
v 0.015152 0.151385 0.033738
v 0.015781 0.156077 0.035003
v 0.015324 0.160549 0.033887
v 0.013931 0.163781 0.033360
v 0.005009 0.170944 0.029260
v -0.000000 0.140296 -0.020731
v 0.004911 0.141096 0.001647
v 0.010228 0.143330 0.002226
v 0.008814 0.169505 -0.009893
v 0.004896 0.171087 0.003817
v -0.000075 -0.308609 0.028489
v 0.005064 -0.300851 0.029247
v 0.009788 -0.300991 0.031186
v 0.013834 -0.301215 0.034298
v 0.016953 -0.301505 0.038334
v 0.016948 -0.310960 0.038026
v 0.018898 -0.301845 0.043047
v 0.019582 -0.314891 0.047706
v 0.018898 -0.302573 0.053149
v 0.016953 -0.302913 0.057861
v 0.016960 -0.313843 0.057370
v 0.018921 -0.318195 0.051795
v 0.009788 -0.313256 0.064608
v 0.013845 -0.314545 0.061365
v 0.005064 -0.313535 0.066533
v 0.000000 -0.313631 0.067205
v 0.000000 -0.320543 0.065874
v 0.005091 -0.310017 0.028986
v 0.009791 -0.310596 0.030872
v 0.013834 -0.321576 0.059441
v 0.009802 -0.320327 0.063198
v 0.009829 -0.331671 0.058128
v 0.005071 -0.320835 0.065085
v 0.000000 -0.328365 0.062804
v 0.005064 -0.328068 0.062194
v 0.000000 -0.313202 0.026401
v 0.013820 -0.311529 0.033887
v 0.018893 -0.314087 0.042413
v 0.018897 -0.322602 0.037316
v 0.016985 -0.326273 0.053105
v 0.018902 -0.331117 0.043299
v 0.013869 -0.330044 0.055438
v 0.000000 -0.334733 0.059124
v 0.005075 -0.334747 0.058285
v 0.005012 -0.314920 0.025466
v 0.016932 -0.318826 0.034516
v 0.013828 -0.317417 0.030185
v 0.016962 -0.335668 0.045231
v 0.009805 -0.340944 0.050106
v 0.013849 -0.338642 0.047988
v 0.000000 -0.342537 0.052268
v 0.005076 -0.342370 0.051443
v 0.019576 -0.330603 0.036611
v 0.018905 -0.338159 0.032710
v 0.016962 -0.340430 0.038489
v 0.009806 -0.346651 0.042081
v 0.013851 -0.343940 0.040515
v 0.005064 -0.346914 0.045327
v 0.000000 -0.347486 0.045690
v 0.000000 -0.350039 0.041129
v 0.009712 -0.316501 0.026602
v 0.009752 -0.318319 0.021107
v 0.005019 -0.316397 0.020799
v 0.000000 -0.315714 0.021714
v 0.013828 -0.320109 0.026407
v 0.016949 -0.323729 0.028245
v 0.013809 -0.321409 0.021607
v 0.018882 -0.329011 0.028878
v 0.016972 -0.344361 0.028298
v 0.009788 -0.349615 0.035387
v 0.013872 -0.348291 0.029329
v 0.005074 -0.350560 0.038505
v 0.000000 -0.352846 0.034196
v 0.005064 -0.352911 0.031134
v 0.016940 -0.325423 0.022283
v 0.019577 -0.335161 0.023740
v 0.016953 -0.345096 0.018122
v 0.018896 -0.340277 0.022389
v 0.009808 -0.351635 0.028004
v 0.009788 -0.352244 0.018636
v 0.013834 -0.349132 0.018412
v 0.000000 -0.354646 0.024818
v 0.005002 -0.354029 0.024289
v 0.016953 -0.325637 0.004978
v 0.018899 -0.330345 0.014895
v 0.005064 -0.354322 0.005803
v 0.000000 -0.355000 0.005823
v -0.000009 0.140403 0.028658
v 0.009774 0.140509 0.031222
v 0.005062 0.141264 0.029317
v 0.019576 0.256890 0.048189
v 0.018897 0.256889 0.043125
v 0.009788 0.256890 0.065142
v 0.005043 0.257315 0.029291
v 0.013808 0.257353 0.034336
v 0.016965 0.257329 0.038430
v 0.013834 0.257095 0.062018
v 0.009730 0.257446 0.064403
v 0.000017 0.257301 0.067762
v 0.015585 0.161933 0.035909
v 0.017050 0.167144 0.038569
v 0.009672 0.170274 0.031212
v 0.018897 0.091869 0.043126
v 0.016953 0.091869 0.038401
v 0.013834 0.091869 0.062023
v 0.018897 0.141785 0.043130
v 0.018897 0.134589 0.043126
v 0.016884 0.141252 0.038365
v 0.018890 0.147378 0.043073
v 0.017316 0.150233 0.038246
v 0.018897 0.164659 0.043139
v 0.016940 0.210929 0.038362
v 0.019576 0.096699 0.048189
v 0.013682 0.140988 0.034214
v 0.015885 0.149337 0.036340
v 0.017325 0.158228 0.038034
v 0.013895 0.210943 0.034440
v 0.010235 0.142566 0.030735
v 0.015652 0.151300 0.035973
v 0.000000 -0.105958 0.028614
v 0.008699 0.142482 0.003697
v 0.010190 0.143366 0.029448
v 0.005018 0.210934 0.029288
v -0.000000 0.171809 0.028650
v 0.011092 0.167681 0.030433
v 0.009105 0.169179 0.029291
v 0.013051 0.167833 0.033549
v -0.010237 0.143367 0.029537
v -0.005077 0.141267 0.029324
v -0.005000 0.170905 0.028493
v -0.008676 0.142460 0.002181
v -0.010240 0.143347 0.003210
v -0.004876 0.171132 -0.013858
v -0.005124 -0.308664 0.029180
v -0.009837 -0.309028 0.031121
v -0.013869 -0.309600 0.034222
v -0.016964 -0.309985 0.038302
v -0.018900 -0.307591 0.043037
v -0.019575 -0.318442 0.046057
v -0.019574 -0.308483 0.048063
v -0.016960 -0.313843 0.057370
v -0.013844 -0.314545 0.061365
v -0.009802 -0.320327 0.063197
v -0.009788 -0.313256 0.064608
v -0.005063 -0.313535 0.066533
v -0.005071 -0.320835 0.065085
v -0.005022 -0.313552 0.027003
v -0.009722 -0.314851 0.028458
v -0.013763 -0.316932 0.030812
v -0.016914 -0.319631 0.033930
v -0.018902 -0.322390 0.049698
v -0.016985 -0.326273 0.053105
v -0.013834 -0.321576 0.059441
v -0.009829 -0.331671 0.058128
v -0.005063 -0.328068 0.062194
v -0.018894 -0.316151 0.041474
v -0.013868 -0.330044 0.055438
v -0.005075 -0.334747 0.058285
v -0.018891 -0.325312 0.034817
v -0.019575 -0.330603 0.036611
v -0.018902 -0.331117 0.043299
v -0.016962 -0.335668 0.045231
v -0.013849 -0.338642 0.047988
v -0.009805 -0.340944 0.050106
v -0.005076 -0.342370 0.051443
v -0.005067 -0.315718 0.023733
v -0.009791 -0.317514 0.024487
v -0.013834 -0.320388 0.025710
v -0.016952 -0.324101 0.027327
v -0.018905 -0.338159 0.032710
v -0.016962 -0.340430 0.038489
v -0.013850 -0.343940 0.040515
v -0.009803 -0.348779 0.037703
v -0.009788 -0.345272 0.044285
v -0.005063 -0.346914 0.045327
v -0.005063 -0.349429 0.040831
v -0.009788 -0.318240 0.021702
v -0.013834 -0.321317 0.022271
v -0.016952 -0.325301 0.023043
v -0.018895 -0.329781 0.025251
v -0.005080 -0.352343 0.033517
v -0.005086 -0.316496 0.020233
v -0.019576 -0.335161 0.023740
v -0.018896 -0.340277 0.022389
v -0.016953 -0.345096 0.018122
v -0.016972 -0.344361 0.028298
v -0.013872 -0.348291 0.029329
v -0.013834 -0.349132 0.018412
v -0.009788 -0.352244 0.018636
v -0.009808 -0.351635 0.028004
v -0.005001 -0.354029 0.024289
v -0.009822 -0.318508 0.011376
v -0.013860 -0.321636 0.011397
v -0.016967 -0.325684 0.011394
v -0.018896 -0.330312 0.015843
v -0.016953 -0.345212 0.005541
v -0.013834 -0.349258 0.005658
v -0.009788 -0.352377 0.005747
v -0.005063 -0.354322 0.005803
v -0.009757 0.141424 0.031208
v -0.005126 0.257435 0.029986
v -0.010955 0.257433 0.032643
v -0.016949 0.257216 0.038400
v -0.018810 0.257444 0.046220
v -0.016955 0.257260 0.057968
v -0.017143 0.257475 0.049030
v -0.014075 0.257442 0.060529
v -0.005072 0.257292 0.067081
v -0.016406 0.258082 0.048191
v -0.015840 0.257920 0.052444
v -0.016959 0.157822 0.037442
v -0.017097 0.162015 0.037760
v -0.013942 0.163782 0.034203
v -0.010264 0.169294 0.030988
v -0.009769 0.170894 0.031273
v -0.005074 0.171799 0.029342
v -0.016953 0.091868 0.038401
v -0.018897 0.091868 0.053253
v -0.018897 -0.252595 0.053252
v -0.016953 -0.252595 0.057977
v -0.016953 0.091868 0.057977
v -0.009788 0.091869 0.065142
v -0.013834 0.091868 0.034356
v -0.018903 0.141448 0.043167
v -0.017690 0.155043 0.038950
v -0.016982 0.141919 0.038500
v -0.018897 0.146247 0.043126
v -0.018897 0.164297 0.043125
v -0.016968 0.167319 0.038454
v -0.010447 0.142851 0.030900
v -0.013477 0.141293 0.034008
v -0.016388 0.151160 0.036830
v -0.016952 0.210334 0.038404
v -0.011077 0.167701 0.030411
v -0.009075 0.169193 0.029278
v -0.013263 0.147504 0.032797
v -0.015163 0.151393 0.034490
v -0.015331 0.160545 0.034899
v -0.015782 0.156075 0.035193
v -0.004912 0.141096 0.001619
v -0.008769 0.169540 -0.009892
v -0.013734 0.168803 0.034300
v -0.000000 0.342707 -0.051582
v 0.008371 0.342770 -0.054455
v 0.015823 0.342697 -0.063801
v 0.015813 0.342747 -0.072238
v -0.004258 0.342426 -0.083790
v -0.008201 0.342739 -0.082162
v 0.003525 0.342784 -0.083439
v -0.011620 0.342715 -0.079496
v -0.015823 0.342722 -0.072143
v -0.014184 0.342426 -0.059763
v -0.014284 0.342788 -0.060533
v -0.008173 0.342676 -0.053768
v 0.011396 0.285692 0.036427
v 0.000044 0.285899 0.031817
v -0.008209 0.285536 0.034002
v -0.015814 0.285866 0.043985
v -0.016390 0.285856 0.048213
v -0.014188 0.285536 0.056399
v -0.011555 0.285813 0.059782
v -0.008128 0.285864 0.062404
v 0.004256 0.285536 0.064009
v 0.012388 0.285905 0.058423
v -0.003559 0.285892 0.064093
v 0.015817 0.285813 0.052400
v 0.016392 0.285536 0.048174
v 0.016492 0.314269 -0.058572
v 0.018362 0.314292 -0.071822
v 0.009786 0.314060 -0.084927
v 0.015058 0.314273 -0.079771
v 0.008229 0.314590 -0.053767
v 0.004270 0.314590 -0.052131
v -0.000009 0.314900 -0.051562
v 0.013126 0.314362 -0.057031
v 0.014208 0.314909 -0.059773
v 0.017030 0.314362 -0.069416
v 0.015842 0.314594 -0.063735
v 0.014206 0.314911 -0.076176
v 0.015836 0.314908 -0.072219
v 0.008200 0.314501 -0.082191
v 0.011593 0.314501 -0.079577
v -0.000005 0.314594 -0.084384
v 0.004218 0.314498 -0.083837
v 0.004242 0.342222 -0.052143
v 0.008200 0.342222 -0.053772
v 0.011589 0.342223 -0.056385
v 0.014202 0.342223 -0.059775
v 0.016396 0.342225 -0.067978
v 0.014197 0.342226 -0.076176
v 0.011589 0.342005 -0.079565
v 0.008199 0.342004 -0.082178
v 0.009647 0.342617 -0.080896
v 0.004243 0.342002 -0.083807
v -0.000005 0.342226 -0.084370
v -0.018893 0.314061 -0.062907
v -0.019383 0.314131 -0.068213
v -0.017745 0.314273 -0.075117
v -0.013919 0.314273 -0.080338
v -0.009790 0.314061 -0.084923
v -0.002689 0.314286 -0.086893
v -0.004242 0.314909 -0.052137
v -0.008201 0.314909 -0.053766
v -0.004965 0.314353 -0.051235
v -0.015058 0.314273 -0.056178
v -0.011593 0.314910 -0.056383
v -0.008472 0.314300 -0.051173
v -0.014210 0.314501 -0.059762
v -0.015877 0.314478 -0.063550
v -0.016424 0.314498 -0.067944
v -0.015845 0.314501 -0.072213
v -0.014212 0.314502 -0.076178
v -0.011592 0.314910 -0.079567
v -0.008204 0.314908 -0.082181
v -0.004243 0.314911 -0.083809
v -0.006390 0.314345 -0.083991
v -0.004242 0.342222 -0.052143
v -0.011584 0.342226 -0.056384
v -0.016399 0.342223 -0.067974
v -0.015833 0.342002 -0.063732
v -0.014200 0.342247 -0.076136
v 0.018976 0.257421 0.050340
v 0.016470 0.257428 0.057534
v 0.005063 0.256950 0.067087
v 0.000000 0.256949 0.028613
v 0.009788 0.256951 0.031237
v -0.000000 0.258085 0.031786
v 0.004242 0.258082 0.032352
v 0.000426 0.257481 0.030757
v 0.008134 0.257729 0.033868
v 0.014207 0.258083 0.039985
v 0.015835 0.258085 0.043947
v 0.016404 0.258085 0.048190
v 0.015846 0.257647 0.052428
v 0.014231 0.257757 0.056379
v 0.008225 0.258065 0.062399
v 0.004243 0.258085 0.064025
v 0.000002 0.258083 0.064595
v 0.004084 0.257480 0.065147
v 0.008201 0.285200 0.033985
v 0.004243 0.285199 0.032356
v 0.014190 0.285925 0.039995
v 0.015830 0.285358 0.043946
v 0.008200 0.285355 0.062393
v 0.011593 0.285373 0.059754
v -0.019576 0.256950 0.048189
v -0.018897 0.256950 0.043124
v -0.018897 0.256951 0.053252
v -0.009788 0.256951 0.065142
v -0.010208 0.257479 0.034336
v -0.008202 0.258085 0.033983
v -0.004246 0.258082 0.032353
v -0.015778 0.257474 0.041295
v -0.014205 0.258086 0.039987
v -0.011592 0.258085 0.036597
v -0.013828 0.256950 0.034350
v -0.015835 0.258085 0.043946
v -0.008202 0.258086 0.062395
v -0.011593 0.258085 0.059781
v -0.004243 0.257648 0.064031
v -0.014032 0.285871 0.039856
v -0.015832 0.285356 0.052431
v 0.018897 0.256890 0.053253
v 0.016953 0.256890 0.057977
v -0.013834 0.256890 0.062023
v 0.016951 0.313750 -0.058182
v 0.016951 0.214826 -0.058192
v 0.009787 0.313750 -0.051021
v 0.005065 0.313750 -0.049077
v -0.013834 0.313750 -0.081808
v -0.009788 0.313750 -0.051022
v -0.013833 0.313750 -0.054139
v 0.011593 0.257762 0.036589
v 0.015980 0.257479 0.041807
v 0.017063 0.257488 0.048128
v 0.011596 0.257764 0.059784
v -0.014011 0.257498 0.057929
v 0.014204 0.285201 0.056390
v -0.004246 0.285863 0.032370
v -0.014205 0.258236 0.056390
v -0.000000 0.285200 0.064591
v -0.011591 0.285201 0.036599
v 0.016952 -0.255083 -0.058201
v 0.018892 -0.255083 -0.062925
v 0.019566 -0.255039 -0.067985
v 0.018886 -0.255083 -0.073048
v 0.016940 -0.255084 -0.077769
v 0.013819 -0.255084 -0.081811
v 0.009773 -0.255084 -0.084926
v 0.005049 -0.255084 -0.086867
v -0.000012 -0.255084 -0.087541
v -0.019541 -0.255056 -0.067909
v -0.018886 -0.255083 -0.062900
v -0.016957 -0.255076 -0.058226
v -0.018898 -0.255098 -0.073054
v -0.009827 -0.255057 -0.084865
v -0.005120 -0.255057 -0.086821
v 0.009792 -0.256602 0.065134
v 0.013836 -0.256602 0.062013
v 0.000009 -0.256602 0.067760
v 0.005071 -0.256602 0.067079
v 0.005089 -0.256591 0.029317
v -0.016953 -0.256601 0.038412
v -0.018895 -0.256602 0.043136
v -0.018890 -0.256602 0.053260
v -0.009778 -0.256602 0.065142
v -0.005054 -0.256602 0.067084
v 0.014775 -0.254429 -0.056624
v 0.018476 -0.254348 -0.067987
v 0.009227 -0.254434 -0.083991
v -0.000018 -0.254434 -0.086459
v 0.009036 -0.252422 -0.051682
v 0.013020 -0.252270 -0.054250
v -0.000481 -0.252270 -0.049052
v 0.004414 -0.252270 -0.049579
v 0.000018 -0.254434 -0.049490
v -0.018922 -0.252270 -0.068455
v -0.018396 -0.252270 -0.063561
v -0.018485 -0.254434 -0.067956
v -0.016628 -0.252270 -0.058930
v -0.018138 -0.252270 -0.073350
v -0.014639 -0.254393 -0.079496
v -0.004799 -0.254434 -0.085814
v -0.013724 -0.252270 -0.054955
v -0.009227 -0.254434 -0.051957
v -0.009878 -0.252270 -0.051828
v -0.005375 -0.252270 -0.049837
v 0.018859 -0.253847 0.048637
v 0.018486 -0.255963 0.048172
v 0.016556 -0.253847 0.039148
v 0.016108 -0.253847 0.058006
v 0.018085 -0.253847 0.053514
v 0.016018 -0.255964 0.057417
v 0.009042 -0.253847 0.064745
v 0.012999 -0.253847 0.061844
v 0.009259 -0.255964 0.064190
v -0.000333 -0.253969 0.066896
v 0.004431 -0.253847 0.066514
v 0.009581 -0.253711 0.031790
v 0.005096 -0.253563 0.029695
v 0.000244 -0.253545 0.028974
v -0.018085 -0.253847 0.042864
v -0.017164 -0.255959 0.040937
v -0.018486 -0.255964 0.048207
v -0.008849 -0.253639 0.031261
v -0.015570 -0.253890 0.037571
v -0.013077 -0.255964 0.035139
v -0.004681 -0.253552 0.029570
v 0.015999 -0.254434 -0.077232
v 0.013050 -0.254434 -0.081050
v 0.017850 -0.255964 0.052953
v 0.018922 -0.252270 -0.067493
v 0.018138 -0.252270 -0.062599
v 0.016147 -0.252270 -0.058096
v 0.016628 -0.252270 -0.077019
v 0.018396 -0.252270 -0.072387
v 0.009878 -0.252270 -0.084121
v 0.013724 -0.252270 -0.080994
v 0.000481 -0.252270 -0.086897
v 0.005376 -0.252270 -0.086112
v -0.016061 -0.252401 -0.077688
v -0.013020 -0.252270 -0.081699
v -0.009045 -0.252270 -0.084602
v -0.004413 -0.252270 -0.086370
v 0.018148 -0.253969 0.043684
v 0.000000 -0.242123 0.028717
v 0.005299 -0.243296 0.029427
v -0.018858 -0.253847 0.047742
v -0.018325 -0.253847 0.052619
v -0.016367 -0.253969 0.057255
v -0.009544 -0.253963 0.064162
v -0.013655 -0.253847 0.061188
v -0.005172 -0.253969 0.066159
v -0.013920 -0.253328 0.034485
v -0.009816 -0.250674 0.031314
v -0.005298 -0.243296 0.029427
v -0.019570 -0.256602 0.048198
v -0.016944 -0.256602 0.057982
v -0.013824 -0.256602 0.062026
v 0.019576 -0.252594 0.048189
v 0.009788 -0.252594 0.065142
v 0.000000 -0.252594 0.067765
v 0.013912 -0.253318 0.034460
v 0.010021 -0.249025 0.031346
v 0.011325 -0.231428 0.032176
v -0.016953 -0.252595 0.038401
v -0.009788 -0.252949 0.065142
v -0.013557 -0.245108 0.034031
v -0.010041 -0.242755 0.031304
v 0.019572 -0.256604 0.048219
v 0.018897 -0.256597 0.043163
v 0.016959 -0.256594 0.038440
v 0.016968 -0.256626 0.057985
v 0.018899 -0.256613 0.053270
v 0.009744 -0.301286 0.065092
v 0.013806 -0.301124 0.061980
v -0.000056 -0.301134 0.067686
v 0.005003 -0.301389 0.067024
v 0.013847 -0.256591 0.034392
v 0.009807 -0.256591 0.031268
v 0.000028 -0.256590 0.028632
v -0.018903 -0.311330 0.053044
v -0.016965 -0.301350 0.057884
v -0.013859 -0.301455 0.061921
v -0.009824 -0.301547 0.065042
v -0.005109 -0.301571 0.066993
v -0.009759 -0.256591 0.031241
v -0.013810 -0.256592 0.034356
v -0.005032 -0.256590 0.029303
v 0.018903 -0.311330 -0.072829
v 0.016965 -0.301266 -0.077669
v 0.013859 -0.301384 -0.081706
v 0.009824 -0.301461 -0.084827
v 0.005109 -0.301488 -0.086778
v 0.000056 -0.301044 -0.087471
v 0.009758 -0.255073 -0.051027
v 0.013809 -0.255073 -0.054143
v -0.000028 -0.255072 -0.048419
v 0.005033 -0.255073 -0.049089
v -0.018896 -0.300091 -0.062856
v -0.016967 -0.255331 -0.077771
v -0.009788 -0.282947 -0.084927
v -0.013872 -0.255129 -0.081807
v -0.005045 -0.300296 -0.086827
v -0.013845 -0.255074 -0.054178
v -0.009806 -0.255073 -0.051054
v -0.005087 -0.255073 -0.049104
v 0.019576 -0.250806 -0.067974
v 0.009779 -0.251332 -0.051021
v 0.013834 -0.250806 -0.054140
v 0.000000 -0.250809 -0.048399
v -0.019575 -0.250806 -0.067974
v -0.018897 -0.250807 -0.073038
v 0.017128 -0.255962 0.040835
v 0.013077 -0.255964 0.061240
v -0.002491 -0.255975 0.066676
v 0.004800 -0.255964 0.066030
v 0.012915 -0.254901 0.035268
v 0.007252 -0.255959 0.031025
v -0.000018 -0.255964 0.029703
v -0.017325 -0.255952 0.055024
v -0.013051 -0.255964 0.061266
v -0.009227 -0.255964 0.064207
v -0.009258 -0.255964 0.032189
v -0.004799 -0.255964 0.030349
v 0.017849 -0.254434 -0.063211
v 0.017839 -0.254434 -0.072774
v 0.004764 -0.254434 -0.085823
v 0.009258 -0.254434 -0.051975
v 0.004799 -0.254434 -0.050135
v -0.017839 -0.254434 -0.063175
v -0.015999 -0.254434 -0.058717
v -0.017849 -0.254434 -0.072738
v -0.009258 -0.254434 -0.083974
v -0.013050 -0.254434 -0.054898
v -0.004763 -0.254434 -0.050125
v 0.018897 -0.250806 -0.062911
v 0.016953 0.092295 -0.058186
v 0.016953 -0.250806 -0.077762
v 0.018897 -0.250806 -0.073038
v 0.016953 0.092295 -0.077762
v 0.000000 -0.250806 -0.087550
v 0.005064 -0.250806 -0.086872
v 0.009788 0.092295 -0.051021
v 0.013834 0.092295 -0.054140
v -0.018897 -0.250806 -0.062911
v -0.016953 -0.250807 -0.058186
v -0.016953 -0.250807 -0.077762
v -0.013833 -0.250807 -0.081808
v -0.009788 -0.250806 -0.084927
v -0.005063 -0.250807 -0.086872
v -0.009788 -0.250807 -0.051021
v -0.013833 -0.250807 -0.054140
v -0.005064 0.092294 -0.049077
v 0.019576 0.091869 0.048189
v 0.016953 -0.252594 0.038401
v 0.018897 -0.252594 0.043126
v 0.018897 -0.252594 0.053253
v 0.018897 0.091869 0.053253
v 0.016953 -0.252594 0.057977
v 0.013834 -0.252594 0.062023
v 0.009788 0.091869 0.065142
v 0.005064 -0.252594 0.067087
v 0.013834 -0.202628 0.034356
v 0.013834 -0.153561 0.034356
v 0.010041 -0.205281 0.031304
v 0.009851 -0.154339 0.031253
v 0.013834 -0.105048 0.034356
v 0.009788 -0.105200 0.031236
v 0.006077 -0.213240 0.029563
v 0.005317 -0.156672 0.029360
v 0.000000 -0.208552 0.028749
v 0.000000 -0.155729 0.028648
v 0.005064 -0.105655 0.029292
v 0.000000 0.091861 0.028614
v -0.018897 -0.252595 0.043126
v -0.019575 -0.252594 0.048189
v -0.019576 0.091868 0.048189
v -0.018897 0.091868 0.043126
v -0.013833 -0.252595 0.062023
v -0.013834 0.091869 0.062023
v -0.005063 -0.252594 0.067087
v -0.009806 -0.143205 0.031243
v -0.010041 -0.205281 0.031304
v -0.013828 -0.199288 0.034349
v -0.009788 0.092178 0.031237
v -0.006076 -0.213240 0.029563
v -0.005083 -0.132448 0.029298
v -0.005064 0.091864 0.029292
v 0.019566 0.096081 -0.067960
v 0.018884 0.096081 -0.062899
v 0.016886 0.096052 -0.058145
v 0.016952 0.096553 -0.077762
v 0.018880 0.096052 -0.072959
v 0.009787 0.096553 -0.084926
v 0.013833 0.096556 -0.081808
v 0.000002 0.096549 -0.087548
v 0.005063 0.096553 -0.086871
v 0.009771 0.096081 -0.051022
v 0.005048 0.096081 -0.049082
v -0.016959 0.096090 -0.058198
v -0.018892 0.096081 -0.062927
v -0.018843 0.096052 -0.073097
v -0.016886 0.096052 -0.077803
v -0.013757 0.096052 -0.081832
v -0.009709 0.096052 -0.084929
v -0.005061 0.096549 -0.086870
v -0.009795 0.096081 -0.051036
v -0.013837 0.096081 -0.054157
v -0.005053 0.096091 -0.049074
v 0.018894 0.095816 0.043130
v 0.016959 0.095820 0.038412
v 0.019335 0.095612 0.050905
v 0.018897 0.096699 0.053253
v 0.016892 0.095786 0.058016
v 0.009786 0.096227 0.065141
v 0.005063 0.096230 0.067086
v -0.000000 0.096230 0.067764
v 0.009794 0.095811 0.031250
v 0.013857 0.095785 0.034427
v 0.000012 0.095811 0.028622
v 0.005074 0.095811 0.029303
v -0.019572 0.095816 0.048186
v -0.018886 0.095811 0.043116
v -0.016953 0.096230 0.057977
v -0.018897 0.096699 0.053253
v -0.018312 0.095547 0.054693
v -0.018897 0.210946 0.053253
v -0.009794 0.096206 0.065129
v -0.005064 0.096230 0.067086
v -0.009773 0.095811 0.031237
v -0.005049 0.095811 0.029297
v 0.009777 0.214398 -0.051043
v 0.005049 0.214397 -0.049091
v -0.000002 0.214395 -0.048408
v -0.009779 0.214830 -0.051042
v -0.013833 0.214828 -0.054160
v -0.016953 0.214396 -0.058197
v -0.005051 0.214828 -0.049090
v 0.009786 0.214247 0.031270
v 0.013833 0.214246 0.034385
v 0.000010 0.214245 0.028628
v 0.005064 0.214246 0.029316
v -0.016941 0.214245 0.038401
v -0.013817 0.214246 0.034369
v -0.009766 0.214247 0.031258
v -0.005043 0.214246 0.029310
v 0.019573 0.210948 0.048187
v 0.018897 0.210946 0.053252
v 0.009788 0.210946 0.065141
v 0.013833 0.210946 0.062022
v 0.000000 0.210946 0.067764
v 0.005064 0.210946 0.067086
v -0.018895 0.210948 0.043128
v -0.019576 0.210345 0.048189
v -0.016952 0.210946 0.057977
v -0.013833 0.210946 0.062023
v -0.009787 0.210946 0.065142
v -0.005063 0.210946 0.067086
v 0.018897 0.210572 -0.073038
v 0.016953 0.210571 -0.077762
v 0.013830 0.210578 -0.081808
v 0.009788 0.210572 -0.084927
v 0.005063 0.210571 -0.086871
v -0.000000 0.210571 -0.087550
v -0.019565 0.210607 -0.067959
v -0.018027 0.211712 -0.062754
v -0.018897 0.209961 -0.062910
v -0.016953 0.210571 -0.077762
v -0.018897 0.210572 -0.073038
v -0.009788 0.210571 -0.084927
v -0.013833 0.210572 -0.081808
v -0.005064 0.210571 -0.086871
v 0.017844 0.093426 -0.072774
v 0.016021 0.093510 -0.077451
v 0.009230 0.093425 -0.083996
v 0.004765 0.093425 -0.085828
v -0.000017 0.093425 -0.086464
v 0.005010 0.093509 -0.050059
v 0.000196 0.093509 -0.049361
v -0.018474 0.095472 -0.067990
v -0.017830 0.095472 -0.072768
v -0.013297 0.093510 -0.080984
v -0.009476 0.093509 -0.083995
v -0.004840 0.093407 -0.085832
v -0.004559 0.095385 -0.085961
v -0.009230 0.093425 -0.051953
v -0.013009 0.093509 -0.054677
v -0.004617 0.093509 -0.049953
v 0.015479 0.093119 0.037496
v 0.018045 0.093086 0.042912
v 0.018107 0.093193 0.052729
v 0.016494 0.093086 0.057236
v 0.013593 0.093086 0.061178
v 0.009761 0.093086 0.064271
v 0.005278 0.093086 0.066234
v 0.000412 0.093086 0.066996
v 0.009210 0.093118 0.032139
v 0.009257 0.095174 0.032192
v -0.000476 0.092880 0.029102
v 0.004737 0.093118 0.030313
v -0.001988 0.095119 0.029702
v -0.018807 0.093086 0.048602
v -0.016081 0.093086 0.057950
v -0.018045 0.093086 0.053467
v -0.009046 0.093086 0.064683
v -0.012989 0.093086 0.061782
v -0.004452 0.093086 0.066455
v -0.004972 0.095092 0.066044
v -0.009503 0.093179 0.032213
v -0.005122 0.093193 0.030237
v 0.011441 0.211726 -0.053287
v 0.004727 0.212793 -0.050345
v -0.009218 0.211725 -0.051980
v -0.014779 0.211801 -0.056685
v -0.004995 0.213681 -0.050135
v 0.009249 0.213609 0.032212
v 0.016947 0.213550 0.040573
v 0.003196 0.211575 0.029872
v -0.000128 0.212696 0.029866
v 0.004794 0.213609 0.030365
v -0.016497 0.211523 0.039150
v -0.015999 0.213609 0.038936
v -0.006034 0.211678 0.030685
v 0.016003 0.213625 0.057487
v 0.018463 0.213607 0.050739
v 0.009227 0.213608 0.064207
v 0.013050 0.213608 0.061265
v -0.000018 0.213608 0.066674
v 0.004764 0.213608 0.066039
v -0.018472 0.213604 0.050629
v -0.016017 0.213608 0.057417
v -0.013116 0.213625 0.061232
v -0.013043 0.211950 0.061233
v -0.009228 0.211950 0.064174
v -0.009298 0.213625 0.064193
v -0.004838 0.213625 0.066042
v -0.004774 0.211950 0.066007
v 0.015971 0.213738 -0.058380
v 0.018449 0.211784 -0.068059
v 0.018268 0.213480 -0.065046
v 0.018075 0.213737 -0.072463
v 0.015974 0.211800 -0.077417
v 0.016301 0.213737 -0.077005
v 0.013408 0.213737 -0.080900
v 0.012973 0.211800 -0.081226
v 0.009112 0.211800 -0.084139
v 0.009602 0.213737 -0.083945
v -0.000191 0.211800 -0.086529
v 0.001855 0.213745 -0.086586
v -0.018648 0.213745 -0.066126
v -0.017451 0.213744 -0.074697
v -0.016165 0.211800 -0.077086
v -0.009031 0.213737 -0.084275
v -0.013039 0.213780 -0.081084
v -0.013252 0.211800 -0.080947
v -0.004490 0.213737 -0.086049
v 0.013832 0.092800 -0.081807
v 0.015991 0.095471 -0.058724
v 0.017829 0.095471 -0.063180
v 0.018474 0.095471 -0.067959
v 0.012942 0.095385 -0.054677
v 0.007340 0.095478 -0.050841
v -0.014728 0.095478 -0.056550
v -0.017867 0.095483 -0.063236
v 0.000390 0.095454 -0.086642
v 0.018519 0.095162 0.050144
v -0.015060 0.095162 0.037236
v 0.009785 0.211075 -0.051062
v 0.013829 0.211073 -0.054173
v 0.016950 0.211065 -0.058194
v 0.016017 0.211725 -0.058752
v 0.018892 0.211107 -0.062913
v -0.009772 0.211073 -0.051051
v 0.000001 0.211073 -0.048415
v -0.002443 0.211742 -0.049494
v 0.005072 0.211075 -0.049108
v -0.009596 0.213737 -0.052028
v -0.014690 0.213766 -0.056341
v 0.014247 0.211619 0.036296
v 0.009199 0.211554 0.032165
v -0.009244 0.211525 0.064268
v -0.013082 0.211525 0.061321
v 0.000049 0.211553 0.066692
v -0.004764 0.211525 0.066103
v 0.009293 0.211553 0.064188
v 0.004835 0.211553 0.066037
v 0.016013 0.211567 0.057414
v 0.018503 0.211574 0.050336
v 0.017835 0.211567 0.043393
v -0.012136 0.213558 0.034174
v -0.004731 0.213626 0.030324
v 0.013111 0.213626 0.035162
v 0.016346 0.093437 -0.058893
v 0.018132 0.093437 -0.063447
v 0.018697 0.093437 -0.068283
v 0.018897 0.092778 -0.073038
v 0.009787 0.092778 -0.084927
v 0.002284 0.093002 -0.087326
v 0.013439 0.093438 -0.054987
v 0.009476 0.093510 -0.051953
v -0.018697 0.093438 -0.067665
v -0.017915 0.093509 -0.062964
v -0.016021 0.093510 -0.058498
v -0.016217 0.093510 -0.077110
v -0.018132 0.093437 -0.072502
v -0.005105 0.092796 -0.086839
v -0.009779 0.092781 -0.051021
v 0.018807 0.093086 0.047777
v 0.013833 0.092503 0.034356
v 0.009787 0.092503 0.031237
v 0.005063 0.092503 0.029292
v -0.016494 0.093086 0.039144
v -0.018266 0.093086 0.043737
v -0.013412 0.093193 0.035204
v -0.005074 0.211114 -0.049110
v 0.009771 0.210953 0.031263
v -0.000001 0.210952 0.028626
v -0.009783 0.210953 0.031271
v -0.013828 0.210952 0.034381
v -0.005068 0.210953 0.029317
v 0.016952 0.214245 0.038419
v 0.018895 0.214249 0.043131
v 0.019574 0.214251 0.048190
v 0.018888 0.214246 0.053262
v 0.016897 0.214224 0.058014
v 0.013513 0.213917 0.061794
v 0.013833 0.214594 0.062023
v 0.009784 0.214249 0.065141
v 0.005051 0.214246 0.067083
v -0.000061 0.214224 0.067735
v -0.018888 0.214246 0.043117
v -0.019569 0.214246 0.048178
v -0.016958 0.214224 0.057910
v -0.018895 0.214249 0.053249
v -0.009789 0.214249 0.065138
v -0.013837 0.214246 0.062010
v -0.005117 0.214223 0.067042
v 0.019576 0.214827 -0.067974
v 0.018895 0.214581 -0.062910
v 0.016953 0.214825 -0.077761
v 0.018897 0.214826 -0.073038
v 0.009788 0.214825 -0.084926
v 0.013834 0.214825 -0.081807
v 0.000000 0.214825 -0.087549
v 0.005100 0.214379 -0.086842
v -0.018896 0.214396 -0.062914
v -0.019576 0.214828 -0.067974
v -0.018897 0.214826 -0.073038
v -0.016947 0.214394 -0.077766
v -0.013826 0.214394 -0.081810
v -0.009788 0.214826 -0.084927
v -0.005064 0.214826 -0.086871
v -0.000014 0.096080 -0.048408
v -0.019382 0.095897 -0.068076
v 0.013762 0.095785 0.062047
v -0.013833 0.095816 0.062018
v 0.019440 0.211088 -0.068003
v 0.013869 0.096570 -0.054174
v -0.019576 0.097115 -0.067974
v -0.013757 0.133282 -0.054066
v 0.018897 0.092295 -0.062911
v -0.000000 0.092295 -0.087550
v 0.005064 0.092295 -0.086872
v 0.005064 0.092293 -0.049077
v 0.000000 0.092292 -0.048399
v -0.019576 0.092295 -0.067974
v -0.009788 0.092295 -0.084927
v 0.016953 0.210946 0.057977
v -0.016949 0.095824 0.038387
v -0.013865 0.095818 0.034389
v 0.016953 0.091869 0.057977
v 0.005064 0.091869 0.067087
v -0.000000 0.091869 0.067765
v -0.005063 0.091869 0.067087
v 0.017157 0.095170 0.040928
v 0.015998 0.095174 0.057446
v 0.013048 0.095174 0.061264
v 0.009120 0.095092 0.064336
v 0.004622 0.095092 0.066138
v -0.000175 0.095092 0.066733
v 0.013074 0.095174 0.035141
v 0.004799 0.095175 0.030352
v -0.018483 0.095175 0.048172
v -0.017838 0.095175 0.043391
v -0.016016 0.095175 0.057416
v -0.017847 0.095175 0.052952
v -0.011076 0.095122 0.063203
v -0.009226 0.095174 0.032174
v 0.017017 0.095454 -0.075773
v 0.009672 0.095454 -0.083946
v 0.013004 0.095107 -0.080961
v 0.005218 0.095454 -0.085891
v -0.000046 0.095483 -0.049479
v -0.014923 0.095478 -0.079142
v -0.009208 0.095483 -0.084015
v -0.007043 0.095478 -0.050717
v 0.011106 0.213760 -0.053052
v -0.000017 0.213767 -0.049503
v 0.017861 0.211800 -0.072964
v 0.004609 0.211800 -0.085937
v -0.018555 0.211800 -0.067784
v -0.017963 0.211800 -0.072583
v -0.009443 0.211800 -0.083948
v -0.004990 0.211800 -0.085835
v -0.010854 0.211658 0.033161
v 0.013111 0.211553 0.061229
v -0.017646 0.212556 0.043458
v -0.018756 0.211554 0.049683
v -0.015999 0.211553 0.057483
v -0.009788 0.256890 0.031237
v -0.005070 0.256890 0.029294
v 0.018893 0.210947 0.043115
v 0.019576 0.209961 -0.067974
v 0.013831 0.214397 -0.054160
f 5 4 8
f 5 248 1
f 4 114 9
f 9 8 4
f 6 9 114
f 131 134 130
f 253 10 254
f 11 254 10
f 11 12 255
f 248 5 249
f 8 249 5
f 9 6 372
f 13 37 15
f 15 14 13
f 16 17 14
f 14 15 16
f 17 16 19
f 19 18 17
f 20 21 18
f 18 19 20
f 21 20 22
f 42 22 20
f 22 42 23
f 24 758 757
f 758 24 25
f 25 759 758
f 26 27 25
f 27 760 759
f 759 25 27
f 760 27 28
f 28 761 760
f 27 26 29
f 29 28 27
f 36 30 28
f 28 29 36
f 30 762 761
f 761 28 30
f 38 15 37
f 39 16 15
f 15 38 39
f 16 39 40
f 40 19 16
f 41 20 19
f 19 40 41
f 20 41 42
f 31 757 23
f 32 24 757
f 757 31 32
f 24 32 33
f 33 25 24
f 44 26 33
f 25 33 26
f 26 44 34
f 34 29 26
f 35 36 29
f 29 34 35
f 37 65 38
f 56 42 41
f 71 23 42
f 42 56 71
f 23 71 47
f 47 31 23
f 48 32 31
f 31 47 48
f 32 48 43
f 43 33 32
f 33 43 44
f 45 34 44
f 46 35 34
f 34 45 46
f 49 44 43
f 44 49 50
f 50 45 44
f 51 46 45
f 45 50 51
f 52 38 65
f 53 39 38
f 38 52 53
f 39 53 54
f 54 40 39
f 55 41 40
f 40 54 55
f 41 55 56
f 72 47 71
f 73 48 47
f 47 72 73
f 48 73 57
f 57 43 48
f 58 57 73
f 59 60 57
f 57 58 59
f 60 49 43
f 43 57 60
f 49 60 61
f 61 50 49
f 60 59 62
f 62 61 60
f 63 64 61
f 61 62 63
f 64 51 50
f 50 61 64
f 65 66 52
f 67 53 52
f 53 67 68
f 68 54 53
f 69 55 54
f 54 68 69
f 70 56 55
f 55 69 70
f 88 71 70
f 56 70 71
f 71 88 72
f 74 62 59
f 75 63 62
f 62 74 75
f 66 85 76
f 76 52 66
f 52 76 67
f 89 72 88
f 77 78 89
f 78 73 72
f 72 89 78
f 73 78 79
f 79 58 73
f 78 77 80
f 80 79 78
f 81 82 79
f 79 80 81
f 82 59 58
f 58 79 82
f 59 82 83
f 83 74 59
f 82 81 94
f 94 83 82
f 95 84 83
f 83 94 95
f 84 75 74
f 74 83 84
f 86 67 76
f 67 86 87
f 87 68 67
f 331 69 87
f 68 87 69
f 69 331 332
f 332 70 69
f 70 332 88
f 90 89 88
f 91 77 89
f 89 90 91
f 77 91 92
f 92 80 77
f 93 81 80
f 80 92 93
f 81 93 94
f 334 95 94
f 98 99 96
f 1106 108 100
f 108 1106 1109
f 1109 101 108
f 101 1109 102
f 107 551 105
f 515 107 106
f 107 515 522
f 109 522 515
f 516 109 108
f 109 516 524
f 528 529 518
f 518 517 528
f 529 516 518
f 531 528 517
f 517 110 531
f 520 490 521
f 805 116 1129
f 775 117 1129
f 117 775 807
f 807 1064 117
f 1064 807 808
f 119 1065 118
f 1065 119 810
f 116 805 812
f 122 120 123
f 121 122 123
f 123 124 121
f 124 123 1181
f 125 113 124
f 113 121 124
f 98 126 99
f 126 120 122
f 127 99 126
f 126 122 127
f 122 121 127
f 113 127 121
f 125 1038 128
f 1037 128 1038
f 1036 115 128
f 128 1037 1036
f 115 129 6
f 129 115 130
f 3 99 2
f 113 5 1
f 5 113 4
f 99 3 7
f 96 10 97
f 10 96 99
f 99 7 10
f 127 2 99
f 127 1 2
f 1 127 113
f 4 113 114
f 7 11 10
f 253 97 10
f 1 248 133
f 133 2 1
f 12 3 2
f 2 133 12
f 133 255 12
f 12 11 7
f 7 3 12
f 115 1036 1044
f 1044 130 115
f 1042 131 130
f 130 1044 1042
f 256 372 6
f 6 129 256
f 128 113 125
f 6 128 115
f 114 113 128
f 128 6 114
f 135 130 134
f 256 129 135
f 130 135 129
f 241 134 131
f 487 244 253
f 378 140 487
f 244 487 140
f 140 378 379
f 379 141 140
f 486 136 137
f 137 484 486
f 136 486 138
f 13 142 156
f 156 37 13
f 142 143 157
f 157 156 142
f 143 144 158
f 158 157 143
f 144 145 146
f 146 158 144
f 145 767 159
f 159 146 145
f 767 147 160
f 160 159 767
f 147 148 161
f 161 160 147
f 148 149 150
f 150 161 148
f 149 151 152
f 152 150 149
f 151 153 154
f 154 152 151
f 152 154 163
f 153 771 155
f 155 154 153
f 771 762 30
f 30 155 771
f 36 165 155
f 155 30 36
f 165 163 154
f 154 155 165
f 173 174 156
f 156 157 173
f 37 156 174
f 175 176 158
f 158 146 175
f 176 173 157
f 157 158 176
f 159 175 146
f 161 150 162
f 162 168 161
f 160 161 168
f 152 162 150
f 164 170 152
f 152 163 164
f 162 152 170
f 35 166 165
f 165 36 35
f 166 164 163
f 163 165 166
f 174 65 37
f 175 159 167
f 160 167 159
f 167 160 177
f 168 162 169
f 168 177 160
f 170 169 162
f 170 164 171
f 171 179 170
f 169 170 179
f 164 166 172
f 172 171 164
f 166 35 46
f 46 172 166
f 179 171 178
f 171 172 180
f 180 178 171
f 172 46 51
f 51 180 172
f 188 190 174
f 174 173 188
f 65 174 190
f 192 191 176
f 176 175 192
f 191 188 173
f 173 176 191
f 167 192 175
f 177 168 181
f 168 169 182
f 182 181 168
f 181 182 183
f 169 179 184
f 184 182 169
f 179 178 185
f 185 184 179
f 195 196 184
f 184 185 195
f 196 183 182
f 182 184 196
f 178 180 186
f 186 185 178
f 180 51 64
f 64 186 180
f 63 187 186
f 186 64 63
f 187 195 185
f 185 186 187
f 190 188 189
f 190 66 65
f 199 193 191
f 191 192 199
f 193 189 188
f 188 191 193
f 192 167 194
f 177 194 167
f 194 177 200
f 194 199 192
f 181 200 177
f 195 187 197
f 187 63 75
f 75 197 187
f 189 198 190
f 198 85 66
f 66 190 198
f 200 206 194
f 199 194 206
f 200 181 202
f 181 183 201
f 201 202 181
f 202 201 207
f 183 196 203
f 203 201 183
f 196 195 204
f 204 203 196
f 210 209 203
f 203 204 210
f 209 207 201
f 201 203 209
f 195 197 205
f 205 204 195
f 197 75 84
f 84 205 197
f 95 211 205
f 205 84 95
f 211 210 204
f 204 205 211
f 198 189 439
f 439 429 198
f 85 198 429
f 189 193 440
f 440 439 189
f 193 199 441
f 441 440 193
f 206 441 199
f 443 208 202
f 202 207 443
f 200 202 208
f 445 444 209
f 209 210 445
f 444 443 207
f 207 209 444
f 334 446 211
f 211 95 334
f 446 445 210
f 210 211 446
f 212 233 213
f 543 544 1115
f 216 1115 544
f 218 105 554
f 552 554 555
f 552 555 556
f 556 543 552
f 557 544 543
f 543 556 557
f 544 557 558
f 558 545 544
f 545 558 559
f 545 559 546
f 563 547 546
f 547 563 548
f 521 490 549
f 567 556 555
f 556 567 557
f 232 220 219
f 241 221 243
f 814 223 222
f 224 815 225
f 816 226 817
f 815 224 226
f 226 816 815
f 223 814 227
f 228 230 229
f 229 231 228
f 1127 228 231
f 231 220 232
f 231 229 220
f 230 1128 235
f 213 235 1128
f 235 213 233
f 235 236 234
f 234 229 230
f 230 235 234
f 235 233 236
f 229 237 220
f 229 234 237
f 232 238 240
f 240 239 232
f 238 221 1041
f 1041 240 238
f 233 246 141
f 244 246 233
f 236 137 234
f 236 233 141
f 137 136 237
f 237 234 137
f 136 138 220
f 220 237 136
f 138 139 219
f 219 220 138
f 139 242 219
f 233 212 244
f 97 244 212
f 244 97 253
f 244 140 246
f 141 483 236
f 137 236 483
f 141 379 483
f 484 137 483
f 246 140 141
f 241 1041 221
f 1042 1083 241
f 241 131 1042
f 1041 241 1083
f 242 139 481
f 488 243 242
f 242 481 488
f 232 219 238
f 242 238 219
f 243 221 238
f 238 242 243
f 134 241 380
f 241 243 488
f 488 380 241
f 8 250 249
f 250 8 9
f 9 251 250
f 251 9 372
f 335 253 254
f 11 368 254
f 368 11 255
f 135 257 256
f 134 371 257
f 257 135 134
f 258 259 275
f 259 260 276
f 276 275 259
f 260 261 284
f 284 276 260
f 261 262 263
f 263 284 261
f 262 264 285
f 285 263 262
f 265 285 264
f 265 266 269
f 266 267 268
f 268 269 266
f 267 743 271
f 271 268 267
f 743 742 270
f 270 271 743
f 271 270 278
f 742 745 272
f 272 270 742
f 745 744 273
f 273 272 745
f 274 280 272
f 272 273 274
f 280 278 270
f 270 272 280
f 275 283 258
f 284 263 293
f 285 293 263
f 269 268 287
f 268 271 277
f 277 287 268
f 278 277 271
f 279 289 277
f 277 278 279
f 287 277 289
f 281 282 280
f 280 274 281
f 282 279 278
f 278 280 282
f 308 292 275
f 275 276 308
f 283 275 292
f 293 294 284
f 294 308 276
f 276 284 294
f 300 286 285
f 285 265 300
f 293 285 286
f 287 288 269
f 288 300 265
f 265 269 288
f 279 282 291
f 282 281 290
f 290 291 282
f 300 315 286
f 293 286 315
f 288 287 295
f 287 289 297
f 297 295 287
f 289 279 296
f 296 297 289
f 279 291 299
f 299 296 279
f 291 290 298
f 298 299 291
f 292 311 283
f 308 294 312
f 294 293 313
f 313 312 294
f 315 313 293
f 300 288 301
f 288 295 302
f 302 301 288
f 295 297 304
f 304 302 295
f 297 296 303
f 303 304 297
f 296 299 305
f 305 303 296
f 299 298 306
f 306 305 299
f 307 319 305
f 305 306 307
f 303 305 319
f 309 310 292
f 292 308 309
f 311 292 310
f 322 314 312
f 312 313 322
f 314 309 308
f 308 312 314
f 315 300 323
f 315 322 313
f 301 302 316
f 301 323 300
f 302 304 318
f 318 316 302
f 304 303 317
f 317 318 304
f 318 317 326
f 319 317 303
f 319 307 320
f 320 321 319
f 321 326 317
f 317 319 321
f 323 332 315
f 322 315 332
f 323 301 325
f 316 325 301
f 325 316 324
f 327 328 318
f 318 326 327
f 328 324 316
f 316 318 328
f 326 321 330
f 321 320 329
f 329 330 321
f 330 327 326
f 311 310 76
f 76 85 311
f 310 309 86
f 86 76 310
f 309 314 87
f 87 86 309
f 314 322 331
f 331 87 314
f 332 331 322
f 332 323 88
f 323 325 90
f 90 88 323
f 325 324 91
f 91 90 325
f 324 328 92
f 92 91 324
f 328 327 93
f 93 92 328
f 327 330 333
f 333 93 327
f 330 329 334
f 334 333 330
f 334 94 333
f 93 333 94
f 337 365 336
f 339 338 1091
f 610 1091 338
f 341 576 342
f 343 621 569
f 569 581 570
f 345 344 570
f 586 346 345
f 587 577 575
f 577 587 620
f 591 583 623
f 583 591 584
f 348 363 347
f 371 370 252
f 349 252 370
f 825 826 827
f 826 825 822
f 360 354 353
f 355 353 354
f 360 353 356
f 353 355 357
f 357 356 353
f 363 358 356
f 360 356 358
f 356 357 363
f 358 363 348
f 358 348 359
f 365 362 361
f 355 361 362
f 361 336 365
f 366 357 362
f 362 357 355
f 357 366 363
f 364 349 1084
f 349 374 372
f 372 373 349
f 374 347 251
f 251 372 374
f 337 369 365
f 252 349 373
f 247 365 369
f 247 248 366
f 249 366 248
f 249 250 347
f 251 347 250
f 365 247 362
f 366 362 247
f 366 249 363
f 249 347 363
f 369 337 254
f 254 368 369
f 335 254 337
f 248 247 133
f 133 247 255
f 369 255 247
f 369 368 255
f 370 1084 349
f 370 371 1085
f 256 373 372
f 348 347 374
f 364 374 349
f 359 348 374
f 374 364 359
f 371 252 257
f 373 257 252
f 257 373 256
f 486 485 138
f 139 138 485
f 485 460 139
f 487 253 335
f 380 371 134
f 403 385 384
f 386 387 385
f 385 403 386
f 387 386 749
f 388 750 749
f 750 388 389
f 389 751 750
f 390 391 389
f 391 752 751
f 751 389 391
f 752 391 392
f 392 753 752
f 391 390 393
f 393 392 391
f 274 273 392
f 392 393 274
f 273 744 753
f 753 392 273
f 258 283 394
f 394 381 258
f 395 382 381
f 381 394 395
f 382 395 396
f 396 383 382
f 397 384 383
f 383 396 397
f 384 397 403
f 398 749 386
f 399 388 749
f 749 398 399
f 388 399 400
f 400 389 388
f 404 400 399
f 401 390 400
f 400 404 401
f 389 400 390
f 390 401 402
f 402 393 390
f 281 274 393
f 393 402 281
f 406 403 397
f 407 386 403
f 403 406 407
f 386 407 408
f 408 398 386
f 398 408 399
f 405 402 401
f 290 281 402
f 402 405 290
f 409 399 408
f 399 409 410
f 410 404 399
f 411 401 404
f 404 410 411
f 401 411 412
f 412 405 401
f 298 290 405
f 405 412 298
f 283 311 413
f 413 394 283
f 414 395 394
f 394 413 414
f 395 414 415
f 415 396 395
f 416 397 396
f 396 415 416
f 397 416 406
f 417 408 407
f 418 409 408
f 408 417 418
f 409 418 419
f 419 410 409
f 420 421 419
f 421 411 410
f 410 419 421
f 411 421 422
f 422 412 411
f 421 420 423
f 423 422 421
f 307 306 422
f 422 423 307
f 306 298 412
f 412 422 306
f 429 413 311
f 424 414 413
f 413 429 424
f 414 424 425
f 425 415 414
f 426 416 415
f 415 425 426
f 427 406 416
f 416 426 427
f 430 407 427
f 406 427 407
f 407 430 417
f 433 418 417
f 418 433 434
f 434 419 418
f 437 420 434
f 419 434 420
f 428 423 420
f 420 437 428
f 320 307 423
f 423 428 320
f 439 424 429
f 424 439 440
f 440 425 424
f 441 426 425
f 425 440 441
f 426 441 442
f 442 427 426
f 427 442 430
f 431 417 430
f 432 433 431
f 417 431 433
f 433 432 435
f 435 434 433
f 436 437 434
f 434 435 436
f 438 428 437
f 437 436 438
f 329 320 428
f 428 438 329
f 311 85 429
f 206 442 441
f 442 206 200
f 200 430 442
f 430 200 208
f 208 431 430
f 443 432 431
f 431 208 443
f 432 443 444
f 444 435 432
f 445 436 435
f 435 444 445
f 436 445 446
f 446 438 436
f 334 329 438
f 438 446 334
f 448 576 341
f 449 450 600
f 449 597 448
f 450 451 600
f 453 451 452
f 452 454 453
f 624 453 454
f 586 607 455
f 455 346 586
f 607 454 455
f 459 460 458
f 458 472 459
f 461 462 463
f 466 465 845
f 467 468 465
f 465 466 467
f 468 467 848
f 472 473 474
f 474 475 472
f 471 474 473
f 474 471 922
f 475 474 922
f 476 459 475
f 459 472 475
f 447 478 477
f 479 477 478
f 479 478 473
f 473 472 479
f 458 479 472
f 476 480 489
f 1087 489 480
f 1086 462 489
f 489 1087 1086
f 477 375 447
f 461 481 460
f 461 482 481
f 447 375 376
f 482 461 377
f 375 477 483
f 463 377 461
f 377 463 371
f 479 483 477
f 479 484 483
f 484 479 486
f 458 486 479
f 458 485 486
f 485 458 460
f 375 378 487
f 487 376 375
f 376 487 335
f 379 378 375
f 379 375 483
f 462 1086 1088
f 1088 463 462
f 1085 371 463
f 463 1088 1085
f 481 482 488
f 481 139 460
f 489 459 476
f 461 489 462
f 460 459 489
f 489 461 460
f 380 377 371
f 377 380 488
f 488 482 377
f 490 491 500
f 491 492 500
f 493 500 492
f 496 493 540
f 493 496 500
f 495 496 494
f 490 500 501
f 626 504 608
f 626 608 589
f 608 505 589
f 506 507 508
f 506 508 589
f 509 589 508
f 509 512 589
f 511 512 510
f 511 513 589
f 589 512 511
f 513 514 589
f 503 589 502
f 107 616 615
f 616 107 105
f 613 515 106
f 107 615 106
f 109 100 108
f 515 613 100
f 100 109 515
f 102 518 516
f 516 101 102
f 101 516 108
f 518 103 517
f 518 102 103
f 104 548 110
f 521 551 520
f 111 522 523
f 522 111 519
f 524 112 525
f 523 522 525
f 516 526 527
f 527 524 516
f 112 524 527
f 526 516 529
f 532 491 490
f 491 532 533
f 491 533 534
f 535 492 491
f 491 534 535
f 492 536 493
f 493 537 540
f 538 540 537
f 540 538 539
f 540 539 541
f 541 496 540
f 496 541 542
f 214 552 543
f 545 216 544
f 545 215 216
f 215 545 546
f 546 617 215
f 617 546 547
f 548 217 547
f 548 104 217
f 554 618 218
f 551 521 549
f 551 549 550
f 618 554 552
f 552 619 618
f 552 214 619
f 551 550 553
f 553 554 551
f 554 553 555
f 560 546 559
f 561 563 546
f 546 560 561
f 563 561 562
f 563 562 530
f 501 564 490
f 565 500 499
f 500 565 501
f 498 566 500
f 567 500 566
f 500 567 499
f 497 568 498
f 496 542 494
f 569 338 339
f 339 343 569
f 569 610 338
f 570 611 610
f 610 569 570
f 611 570 344
f 345 340 344
f 340 345 571
f 346 571 345
f 342 573 341
f 576 574 575
f 576 575 577
f 578 621 620
f 621 578 579
f 580 622 621
f 621 579 580
f 622 580 581
f 583 586 623
f 586 583 584
f 586 584 585
f 502 587 588
f 588 503 502
f 590 589 514
f 511 625 513
f 511 591 592
f 625 511 592
f 512 628 510
f 591 511 510
f 451 594 593
f 594 451 450
f 451 593 595
f 595 452 451
f 454 612 596
f 596 455 454
f 612 454 452
f 597 598 599
f 599 576 597
f 576 599 574
f 1178 449 448
f 448 1179 1178
f 341 572 448
f 1179 448 572
f 600 601 602
f 602 597 600
f 597 602 598
f 449 603 450
f 449 1178 603
f 453 456 604
f 604 600 453
f 600 604 601
f 624 627 457
f 456 453 457
f 454 605 606
f 606 624 454
f 627 624 606
f 586 585 607
f 605 454 607
f 629 608 504
f 506 609 507
f 1090 339 1091
f 1089 343 1090
f 339 1090 343
f 1092 610 611
f 610 1092 1091
f 340 1096 1095
f 1095 344 340
f 344 1095 611
f 1097 571 346
f 571 1097 1096
f 1096 340 571
f 450 911 1099
f 1099 594 450
f 1100 593 594
f 594 1099 1100
f 1102 595 593
f 593 1100 1102
f 595 1102 452
f 1104 612 452
f 612 1104 1103
f 1103 596 612
f 596 1103 455
f 613 614 1107
f 1107 100 613
f 100 1107 1106
f 1108 102 1109
f 102 1108 1111
f 1111 103 102
f 1110 517 103
f 103 1111 1110
f 517 1110 110
f 1112 104 110
f 1114 543 1115
f 905 214 543
f 543 1114 905
f 1116 216 215
f 215 1117 1116
f 216 1116 1115
f 547 1119 617
f 1118 617 1119
f 1117 215 617
f 617 1118 1117
f 1120 217 104
f 104 1112 1120
f 1119 547 217
f 217 1120 1119
f 107 519 520
f 107 520 551
f 107 522 519
f 109 524 525
f 109 525 522
f 110 530 531
f 551 554 105
f 530 110 548
f 548 563 530
f 519 533 532
f 532 520 519
f 520 532 490
f 523 535 534
f 534 111 523
f 533 519 111
f 111 534 533
f 112 536 492
f 492 525 112
f 525 492 535
f 535 523 525
f 493 527 526
f 526 537 493
f 536 112 493
f 527 493 112
f 528 539 538
f 538 529 528
f 537 526 529
f 529 538 537
f 541 531 530
f 530 542 541
f 539 528 541
f 531 541 528
f 564 549 490
f 501 550 549
f 549 564 501
f 550 501 553
f 565 553 501
f 499 555 553
f 553 565 499
f 555 499 567
f 566 557 567
f 557 566 558
f 498 558 566
f 558 498 559
f 497 560 559
f 560 497 495
f 495 561 560
f 561 495 562
f 494 562 495
f 542 530 562
f 562 494 542
f 577 342 576
f 342 577 620
f 621 343 342
f 342 620 621
f 622 569 621
f 569 622 581
f 582 570 581
f 570 582 623
f 623 345 570
f 345 623 586
f 576 448 597
f 597 449 600
f 451 453 600
f 457 453 624
f 588 575 574
f 574 503 588
f 575 588 587
f 502 620 587
f 620 502 589
f 589 578 620
f 578 589 579
f 590 579 589
f 514 580 579
f 579 590 514
f 580 514 513
f 513 581 580
f 581 513 625
f 625 582 581
f 582 625 623
f 510 584 591
f 584 510 628
f 628 585 584
f 626 599 598
f 598 504 626
f 503 574 626
f 599 626 574
f 629 602 601
f 504 598 602
f 602 629 504
f 456 506 604
f 505 604 506
f 604 505 601
f 609 457 627
f 627 507 609
f 506 456 457
f 457 609 506
f 605 509 508
f 508 606 605
f 507 627 606
f 606 508 507
f 585 628 607
f 509 605 607
f 592 623 625
f 623 592 591
f 601 608 629
f 608 601 505
f 512 607 628
f 607 512 509
f 568 559 498
f 559 568 497
f 500 496 495
f 500 495 497
f 500 497 498
f 589 503 626
f 589 505 506
f 639 147 640
f 147 639 642
f 643 769 770
f 771 644 638
f 769 643 644
f 644 771 769
f 701 655 793
f 793 700 701
f 656 699 700
f 700 793 656
f 699 656 794
f 794 703 699
f 696 702 703
f 703 794 696
f 702 696 697
f 697 705 702
f 657 704 705
f 705 697 657
f 704 657 795
f 795 707 704
f 658 706 707
f 707 795 658
f 659 796 655
f 655 660 659
f 655 701 660
f 661 663 797
f 797 662 661
f 796 659 662
f 662 797 796
f 664 666 798
f 798 665 664
f 799 667 665
f 665 798 799
f 800 668 708
f 666 664 668
f 668 800 666
f 710 801 669
f 669 709 710
f 709 669 708
f 706 658 670
f 670 711 706
f 801 710 711
f 711 670 801
f 667 799 802
f 802 671 667
f 672 673 671
f 671 802 672
f 673 672 803
f 803 674 673
f 663 661 674
f 674 803 663
f 675 676 712
f 781 677 712
f 678 680 698
f 698 679 678
f 676 675 679
f 679 698 676
f 681 683 782
f 782 682 681
f 680 678 682
f 682 782 680
f 784 685 684
f 683 681 685
f 685 784 683
f 677 781 785
f 786 686 785
f 786 687 686
f 787 688 687
f 687 786 787
f 690 689 693
f 691 715 689
f 689 690 691
f 715 691 788
f 788 716 715
f 716 788 717
f 789 719 717
f 790 718 719
f 719 789 790
f 718 790 720
f 692 791 694
f 694 693 692
f 693 694 690
f 688 787 792
f 792 695 688
f 791 692 695
f 695 792 791
f 630 631 793
f 793 655 630
f 632 793 631
f 793 632 656
f 632 633 794
f 633 634 696
f 696 794 633
f 794 656 632
f 634 635 697
f 697 696 634
f 635 636 657
f 657 697 635
f 636 637 795
f 795 657 636
f 637 638 658
f 658 795 637
f 638 644 670
f 670 658 638
f 644 643 801
f 801 670 644
f 643 770 669
f 669 801 643
f 669 642 800
f 642 639 666
f 666 800 642
f 639 640 798
f 798 666 639
f 640 641 799
f 799 798 640
f 641 772 802
f 802 799 641
f 772 773 672
f 672 802 772
f 773 774 803
f 803 672 773
f 774 765 663
f 663 803 774
f 765 766 797
f 797 663 765
f 766 763 796
f 796 797 766
f 763 764 655
f 655 796 763
f 764 630 655
f 692 693 721
f 686 730 785
f 677 785 730
f 737 738 781
f 781 676 737
f 738 739 781
f 739 746 785
f 785 781 739
f 746 747 786
f 786 785 746
f 747 649 786
f 649 748 787
f 787 786 649
f 748 756 792
f 792 787 748
f 756 754 791
f 791 792 756
f 754 755 694
f 694 791 754
f 755 650 690
f 690 694 755
f 650 651 690
f 651 724 691
f 691 690 651
f 724 652 788
f 788 691 724
f 652 725 788
f 725 726 789
f 789 788 725
f 726 653 790
f 790 789 726
f 653 654 783
f 783 790 653
f 654 647 783
f 647 648 784
f 784 783 647
f 648 645 683
f 683 784 648
f 645 646 782
f 782 683 645
f 646 740 680
f 680 782 646
f 740 741 698
f 698 680 740
f 741 737 676
f 676 698 741
f 776 659 660
f 659 776 662
f 686 731 730
f 688 713 714
f 714 687 688
f 731 686 687
f 687 714 731
f 718 734 719
f 734 718 720
f 722 692 721
f 692 722 723
f 723 695 692
f 713 688 695
f 695 723 713
f 669 768 642
f 768 669 770
f 727 675 712
f 712 824 727
f 677 823 824
f 824 712 677
f 827 678 679
f 679 825 827
f 675 727 825
f 825 679 675
f 728 681 682
f 682 828 728
f 678 827 828
f 828 682 678
f 729 684 685
f 685 830 729
f 681 728 830
f 830 685 681
f 823 677 730
f 731 732 730
f 733 693 689
f 689 843 733
f 715 844 843
f 843 689 715
f 844 715 716
f 716 466 844
f 717 467 466
f 466 716 717
f 467 717 719
f 719 847 467
f 847 719 734
f 720 849 734
f 684 729 849
f 849 720 684
f 735 736 721
f 736 722 721
f 693 733 721
f 735 721 733
f 737 265 264
f 264 738 737
f 262 739 738
f 738 264 262
f 740 267 266
f 266 741 740
f 265 737 741
f 741 266 265
f 645 742 743
f 743 646 645
f 267 740 743
f 646 743 740
f 647 744 745
f 745 648 647
f 742 645 648
f 648 745 742
f 739 262 261
f 261 746 739
f 260 747 746
f 746 261 260
f 747 260 259
f 259 649 747
f 258 748 649
f 649 259 258
f 650 384 385
f 385 651 650
f 387 724 651
f 651 385 387
f 724 387 749
f 749 652 724
f 750 725 652
f 652 749 750
f 725 750 751
f 751 726 725
f 752 653 726
f 726 751 752
f 653 752 753
f 753 654 653
f 744 647 654
f 654 753 744
f 754 382 383
f 383 755 754
f 755 383 384
f 384 650 755
f 748 258 381
f 381 756 748
f 382 754 756
f 756 381 382
f 630 21 22
f 22 631 630
f 23 632 631
f 631 22 23
f 632 23 757
f 757 633 632
f 758 634 633
f 633 757 758
f 634 758 759
f 759 635 634
f 760 636 635
f 635 759 760
f 636 760 761
f 761 637 636
f 762 638 637
f 637 761 762
f 763 17 18
f 18 764 763
f 764 18 21
f 21 630 764
f 765 13 14
f 14 766 765
f 17 763 766
f 766 14 17
f 767 640 147
f 145 641 767
f 640 767 641
f 768 149 148
f 148 642 768
f 642 148 147
f 769 153 151
f 151 770 769
f 149 768 770
f 770 151 149
f 638 762 771
f 153 769 771
f 641 145 144
f 144 772 641
f 143 773 772
f 772 144 143
f 773 143 142
f 142 774 773
f 13 765 774
f 774 142 13
f 116 701 700
f 700 804 116
f 699 775 804
f 804 700 699
f 775 699 703
f 703 807 775
f 702 806 807
f 807 703 702
f 806 702 705
f 705 118 806
f 704 119 118
f 118 705 704
f 119 704 707
f 707 810 119
f 706 809 810
f 810 707 706
f 811 776 777
f 660 777 776
f 701 116 777
f 777 660 701
f 778 661 662
f 662 132 778
f 132 662 776
f 776 811 132
f 779 664 665
f 665 813 779
f 667 814 813
f 813 665 667
f 815 708 668
f 668 780 815
f 664 779 780
f 780 668 664
f 817 710 709
f 709 816 817
f 708 815 816
f 816 709 708
f 809 706 711
f 711 818 809
f 710 817 818
f 818 711 710
f 814 667 671
f 671 820 814
f 673 819 820
f 820 671 673
f 819 673 674
f 674 245 819
f 661 778 245
f 245 674 661
f 781 712 676
f 684 783 784
f 717 788 789
f 783 720 790
f 783 684 720
f 708 669 800
f 804 1129 116
f 1129 804 775
f 806 808 807
f 808 806 118
f 1025 118 1065
f 118 1025 808
f 1131 810 809
f 810 1131 1065
f 777 812 811
f 812 777 116
f 1132 132 811
f 132 1132 1133
f 1133 778 132
f 813 222 1134
f 1134 779 813
f 222 813 814
f 780 225 815
f 779 1134 780
f 225 780 1134
f 820 227 814
f 227 820 819
f 819 1075 227
f 778 1133 821
f 821 245 778
f 1075 819 821
f 245 821 819
f 822 727 824
f 823 351 824
f 824 350 822
f 350 824 351
f 727 822 825
f 829 728 828
f 828 352 829
f 352 828 827
f 728 829 830
f 1140 830 829
f 1141 729 830
f 830 1140 1141
f 351 823 831
f 831 832 351
f 730 831 823
f 732 833 831
f 831 730 732
f 833 834 832
f 832 831 833
f 835 1077 351
f 832 835 351
f 834 836 835
f 835 832 834
f 836 1078 1077
f 1077 835 836
f 834 833 837
f 837 838 834
f 833 732 731
f 731 837 833
f 731 714 837
f 714 713 839
f 839 837 714
f 840 838 837
f 837 839 840
f 1078 836 841
f 841 1079 1078
f 836 834 838
f 838 841 836
f 840 367 841
f 841 838 840
f 1079 841 367
f 367 842 1079
f 464 733 843
f 843 846 464
f 844 845 843
f 846 843 845
f 845 844 466
f 734 469 847
f 847 848 467
f 848 847 469
f 469 734 849
f 729 1141 1142
f 1142 849 729
f 849 1142 469
f 850 851 852
f 735 852 851
f 852 735 733
f 852 470 850
f 733 464 470
f 470 852 733
f 853 850 470
f 840 839 854
f 854 855 840
f 839 713 723
f 723 854 839
f 722 736 854
f 854 723 722
f 736 735 851
f 851 854 736
f 850 855 854
f 854 851 850
f 367 840 855
f 850 853 856
f 856 855 850
f 842 367 856
f 855 856 367
f 120 859 858
f 927 861 860
f 861 927 857
f 859 120 1126
f 1127 1122 869
f 1122 1127 870
f 937 870 1127
f 936 871 870
f 870 937 936
f 871 936 939
f 939 872 871
f 938 873 872
f 872 939 938
f 873 938 874
f 360 880 878
f 880 360 881
f 1136 882 881
f 880 881 882
f 882 1136 918
f 918 1123 882
f 1123 918 883
f 361 887 886
f 887 361 879
f 893 894 892
f 895 893 892
f 893 895 890
f 894 893 890
f 896 925 1124
f 925 896 897
f 989 480 921
f 922 1176 921
f 1176 922 895
f 1181 1125 1040
f 1125 1181 927
f 935 934 933
f 933 1127 935
f 934 935 239
f 1127 933 937
f 1063 1028 1027
f 1027 1062 1063
f 1026 1061 1062
f 1062 1027 1026
f 1028 1063 941
f 1061 1026 1029
f 1029 1067 1061
f 1067 1029 1068
f 948 1069 1070
f 1069 948 949
f 949 1073 1069
f 1073 949 1072
f 953 952 951
f 952 953 945
f 1143 958 957
f 1034 1076 958
f 958 1143 1034
f 1076 1034 959
f 1144 960 959
f 960 1144 1145
f 1145 961 960
f 1146 962 961
f 961 1145 1146
f 962 1146 1147
f 1147 963 962
f 1148 964 963
f 963 1147 1148
f 965 966 1149
f 1149 957 965
f 957 1149 1143
f 967 969 968
f 1150 968 969
f 966 965 968
f 968 1150 966
f 970 1151 1152
f 1152 1081 970
f 1035 1080 1081
f 1081 1152 1035
f 971 1153 1154
f 1154 972 971
f 1151 970 972
f 972 1154 1151
f 1155 974 973
f 1153 971 974
f 974 1155 1153
f 964 1148 976
f 976 975 964
f 1155 973 975
f 975 976 1155
f 1080 1035 1082
f 1156 977 1082
f 977 1156 978
f 969 967 978
f 979 1165 980
f 1166 1043 980
f 1043 1166 983
f 1043 983 981
f 1048 984 1047
f 988 986 987
f 984 1048 986
f 986 988 984
f 989 990 1058
f 1058 1173 989
f 993 1056 1057
f 1057 985 993
f 992 1055 993
f 1055 992 995
f 1001 1000 999
f 1002 1003 1000
f 1000 1001 1002
f 1003 1002 1005
f 1005 1004 1003
f 1004 1005 996
f 1006 1039 1008
f 1008 1007 1009
f 1167 1009 1007
f 1010 1011 1009
f 1009 1167 1010
f 1011 1010 1013
f 1013 1012 1011
f 1014 1015 1012
f 1012 1013 1014
f 1015 1014 1168
f 1168 1017 1015
f 1017 1168 1016
f 1018 1169 934
f 982 1046 1018
f 1018 934 982
f 1019 1020 1170
f 1169 1018 1019
f 1019 1170 1169
f 1021 1171 1023
f 1023 1022 1021
f 1020 1019 1022
f 1022 1023 1020
f 1017 1016 1172
f 1172 1024 1017
f 1171 1021 1024
f 1024 1172 1171
f 1063 1064 941
f 942 941 1064
f 1025 1065 943
f 943 1159 1025
f 942 1025 1159
f 1065 1066 944
f 944 943 1065
f 945 944 1066
f 1066 1074 952
f 952 945 1066
f 951 952 1074
f 955 1075 954
f 956 954 1075
f 857 858 1027
f 1027 1028 857
f 858 859 1026
f 1026 1027 858
f 1029 1026 859
f 1029 866 1030
f 866 867 1030
f 867 1121 1161
f 1161 1030 867
f 1121 877 1164
f 1164 1161 1121
f 877 875 1164
f 875 876 1031
f 1031 1164 875
f 876 868 1031
f 868 869 1032
f 1032 1031 868
f 869 1122 948
f 948 1032 869
f 1122 870 949
f 949 948 1122
f 870 871 1162
f 1162 949 870
f 871 872 1162
f 872 873 1163
f 1163 1162 872
f 953 1163 873
f 861 857 1028
f 1028 1157 861
f 1077 1078 965
f 965 957 1077
f 1078 1079 968
f 968 965 1078
f 967 968 1079
f 879 878 1143
f 878 880 1034
f 1034 1143 878
f 880 882 1144
f 1144 1034 880
f 882 1123 1145
f 1145 1144 882
f 1146 1145 1123
f 1124 894 1153
f 1153 1155 1124
f 1154 1153 894
f 894 890 1151
f 1151 1154 894
f 890 891 1152
f 1152 1151 890
f 891 1137 1035
f 1035 1152 891
f 1137 1138 1035
f 1138 898 1156
f 1156 1035 1138
f 898 899 969
f 969 1156 898
f 899 888 969
f 888 889 1150
f 1150 969 888
f 889 886 966
f 966 1150 889
f 886 887 1149
f 1149 966 886
f 887 879 1143
f 1143 1149 887
f 1036 1037 979
f 1037 1038 1039
f 1039 979 1037
f 1040 1039 1038
f 1007 1008 1040
f 1039 1040 1008
f 934 239 982
f 240 982 239
f 240 1041 981
f 981 982 240
f 1083 981 1041
f 1083 1042 1043
f 981 1083 1043
f 1042 1044 980
f 980 1043 1042
f 1044 1036 979
f 979 980 1044
f 1006 1182 1165
f 1182 900 1165
f 900 901 980
f 980 1165 900
f 901 902 1166
f 1166 980 901
f 983 1166 902
f 905 1114 1018
f 1018 1046 905
f 1117 1118 1022
f 1022 1019 1117
f 1021 1022 1118
f 1015 1017 1113
f 359 364 1047
f 364 1084 1048
f 1048 1047 364
f 1084 370 986
f 986 1048 1084
f 370 1085 986
f 1085 1088 987
f 987 986 1085
f 1088 1086 991
f 991 987 1088
f 1086 1087 1173
f 1173 991 1086
f 989 1173 1087
f 989 921 1175
f 1176 1175 921
f 895 923 1177
f 1177 1176 895
f 923 924 1050
f 1050 1177 923
f 924 925 1049
f 1049 1050 924
f 925 926 1052
f 1052 1049 925
f 926 919 1051
f 1051 1052 926
f 919 920 1054
f 1054 1051 919
f 920 917 1053
f 1053 1054 920
f 917 918 1174
f 1174 1053 917
f 918 1136 1055
f 1055 1174 918
f 1136 916 1056
f 1056 1055 1136
f 916 915 1056
f 915 1180 1057
f 1057 1056 915
f 1180 359 1047
f 1047 1057 1180
f 1089 1090 985
f 1090 1091 993
f 993 985 1090
f 1091 1092 993
f 1092 1093 992
f 992 993 1092
f 1093 1094 995
f 995 992 1093
f 1094 1096 994
f 994 995 1094
f 1096 1097 997
f 997 994 1096
f 1097 1098 996
f 996 997 1097
f 1098 1105 1004
f 1004 996 1098
f 1105 1103 1003
f 1003 1004 1105
f 1103 1104 1000
f 1000 1003 1103
f 1104 1101 999
f 999 1000 1104
f 1101 1102 998
f 998 999 1101
f 1102 1100 998
f 1100 1099 1175
f 1175 998 1100
f 1099 911 990
f 990 1175 1099
f 911 912 1058
f 1058 990 911
f 912 913 1058
f 913 914 1059
f 1059 1058 913
f 914 909 987
f 987 1059 914
f 909 910 988
f 988 987 909
f 910 907 984
f 984 988 910
f 907 908 1060
f 1060 984 907
f 908 1089 985
f 985 1060 908
f 977 853 1082
f 853 977 978
f 1095 1094 1093
f 1094 1095 1096
f 1008 1106 1107
f 614 1006 1107
f 1008 1107 1006
f 1011 1108 1109
f 1109 1009 1011
f 1106 1008 1009
f 1009 1109 1106
f 1015 1110 1111
f 1111 1012 1015
f 1108 1011 1012
f 1012 1111 1108
f 1017 1112 1113
f 1110 1015 1113
f 1115 1018 1114
f 1018 1115 1116
f 1116 1019 1018
f 1019 1116 1117
f 1119 1021 1118
f 1021 1119 1120
f 1120 1024 1021
f 1112 1017 1024
f 1024 1120 1112
f 1157 860 861
f 1158 862 863
f 863 1159 1158
f 860 1157 1159
f 1159 863 860
f 1033 864 865
f 865 1160 1033
f 862 1158 1160
f 1160 865 862
f 1126 1029 859
f 1029 1126 866
f 874 953 873
f 864 1033 953
f 953 874 864
f 883 1146 1123
f 1146 883 884
f 884 1147 1146
f 885 1148 1147
f 1147 884 885
f 1155 896 1124
f 892 894 1124
f 1148 885 897
f 897 976 1148
f 896 1155 976
f 976 897 896
f 1006 614 1182
f 1045 903 904
f 904 1046 1045
f 1046 904 905
f 906 983 902
f 903 1045 983
f 983 906 903
f 1125 1007 1040
f 1007 1125 1167
f 927 1167 1125
f 928 1010 1167
f 1167 927 928
f 1010 928 929
f 929 1013 1010
f 930 1014 1013
f 1013 929 930
f 1014 930 931
f 931 1168 1014
f 932 1016 1168
f 1168 931 932
f 1169 933 934
f 1020 936 937
f 937 1170 1020
f 933 1169 1170
f 1170 937 933
f 1171 938 939
f 939 1023 1171
f 936 1020 1023
f 1023 939 936
f 1016 932 940
f 940 1172 1016
f 938 1171 1172
f 1172 940 938
f 857 1181 123
f 123 858 857
f 858 123 120
f 860 928 927
f 1181 857 927
f 862 930 863
f 928 860 863
f 864 932 865
f 931 865 932
f 930 862 865
f 865 931 930
f 126 1126 120
f 1126 126 98
f 98 866 1126
f 866 98 96
f 96 867 866
f 97 1121 867
f 867 96 97
f 228 869 868
f 868 230 228
f 869 228 1127
f 940 874 938
f 932 864 874
f 874 940 932
f 875 213 1128
f 1128 876 875
f 230 868 1128
f 876 1128 868
f 1121 97 877
f 212 877 97
f 877 212 213
f 213 875 877
f 117 1063 1062
f 1062 1129 117
f 1061 805 1129
f 1129 1062 1061
f 808 942 1064
f 1063 117 1064
f 942 808 1025
f 809 1130 1131
f 1066 1131 1130
f 1131 1066 1065
f 805 1061 1067
f 1067 812 805
f 1068 811 812
f 812 1067 1068
f 811 1068 946
f 946 1132 811
f 947 1133 1132
f 1132 946 947
f 223 1071 1070
f 1070 222 223
f 1069 1134 222
f 222 1070 1069
f 1134 1069 1073
f 1073 225 1134
f 1072 224 225
f 225 1073 1072
f 224 1072 950
f 950 226 224
f 951 1135 226
f 226 950 951
f 1135 817 226
f 817 1135 1074
f 1074 818 817
f 1135 951 1074
f 1066 1130 1074
f 1130 809 818
f 818 1074 1130
f 955 227 1075
f 1071 223 227
f 227 955 1071
f 1133 947 956
f 956 821 1133
f 821 956 1075
f 879 355 354
f 354 878 879
f 878 354 360
f 916 881 360
f 881 916 1136
f 917 883 918
f 883 917 884
f 920 884 917
f 919 885 884
f 884 920 919
f 886 336 361
f 355 879 361
f 888 335 337
f 337 889 888
f 336 886 889
f 889 337 336
f 471 891 890
f 890 922 471
f 473 1137 471
f 891 471 1137
f 892 923 895
f 922 890 895
f 924 1124 925
f 923 892 1124
f 1124 924 923
f 885 919 926
f 926 897 885
f 897 926 925
f 1137 473 478
f 478 1138 1137
f 1138 478 447
f 447 898 1138
f 898 447 376
f 376 899 898
f 335 888 899
f 899 376 335
f 351 957 958
f 958 350 351
f 1076 822 350
f 350 958 1076
f 822 1076 959
f 959 826 822
f 960 1139 826
f 826 959 960
f 1139 827 826
f 827 1139 352
f 1139 960 961
f 961 352 1139
f 962 829 352
f 352 961 962
f 829 962 963
f 963 1140 829
f 964 1141 1140
f 1140 963 964
f 957 351 1077
f 842 967 1079
f 845 970 1081
f 1081 846 845
f 1080 464 846
f 846 1081 1080
f 468 971 972
f 972 465 468
f 970 845 465
f 465 972 970
f 469 973 974
f 974 848 469
f 971 468 848
f 848 974 971
f 1141 964 975
f 975 1142 1141
f 973 469 1142
f 1142 975 973
f 464 1080 1082
f 1082 470 464
f 470 1082 853
f 978 856 853
f 967 842 856
f 856 978 967
f 959 1034 1144
f 1082 1035 1156
f 969 978 1156
f 1157 941 942
f 941 1157 1028
f 943 1158 1159
f 1157 942 1159
f 945 1033 1160
f 1160 944 945
f 1158 943 944
f 944 1160 1158
f 1030 1068 1029
f 1030 946 1068
f 1161 947 946
f 946 1030 1161
f 1071 1031 1032
f 1032 1070 1071
f 1070 1032 948
f 1162 1072 949
f 1162 950 1072
f 1163 951 950
f 950 1162 1163
f 951 1163 953
f 1033 945 953
f 954 1164 1031
f 1031 955 954
f 1031 1071 955
f 947 1161 1164
f 1164 956 947
f 1164 954 956
f 1039 1006 1165
f 1165 979 1039
f 981 1045 982
f 1046 982 1045
f 1045 981 983
f 1060 1047 984
f 1047 1060 985
f 1059 991 1173
f 1173 1058 1059
f 991 1059 987
f 1047 985 1057
f 1056 993 1055
f 994 1053 1174
f 1174 995 994
f 995 1174 1055
f 996 1051 1054
f 1054 997 996
f 1053 994 997
f 997 1054 1053
f 990 989 1175
f 1176 998 1175
f 1177 999 998
f 998 1176 1177
f 999 1177 1001
f 1050 1001 1177
f 1049 1002 1001
f 1001 1050 1049
f 1002 1049 1052
f 1052 1005 1002
f 1005 1052 1051
f 1051 996 1005
f 611 1093 1092
f 1093 611 1095
f 346 1098 1097
f 1101 452 1102
f 452 1101 1104
f 1105 455 1103
f 1098 346 455
f 455 1105 1098
f 907 573 342
f 342 908 907
f 343 1089 908
f 908 342 343
f 909 572 341
f 341 910 909
f 573 907 910
f 910 341 573
f 911 450 603
f 603 912 911
f 1178 913 912
f 912 603 1178
f 913 1178 1179
f 1179 914 913
f 572 909 914
f 914 1179 572
f 480 989 1087
f 915 360 358
f 358 1180 915
f 1180 358 359
f 360 915 916
f 480 476 475
f 475 921 480
f 921 475 922
f 1038 125 124
f 124 1040 1038
f 1040 124 1181
f 863 929 928
f 929 863 930
f 231 935 1127
f 232 239 231
f 935 231 239
f 1113 110 1110
f 110 1113 1112
f 614 613 1182
f 106 1182 613
f 615 900 1182
f 1182 106 615
f 900 615 616
f 616 901 900
f 105 902 901
f 901 616 105
f 903 618 619
f 619 904 903
f 214 905 904
f 904 619 214
f 902 105 218
f 218 906 902
f 618 903 906
f 906 218 618
