# USD → MuJoCo (world-space)
v -3.287967 7.702304 1.164169
v -3.287011 7.702304 1.164168
v -3.287284 7.699081 1.164380
v -3.288241 7.699081 1.164380
v -3.286895 7.703404 1.164377
v -3.287851 7.703404 1.164377
v -3.287717 7.704567 1.164425
v -3.286760 7.704567 1.164424
v -3.286616 7.705710 1.164132
v -3.287572 7.705710 1.164133
v -3.286302 7.707922 1.162841
v -3.287426 7.706779 1.163514
v -3.287258 7.707922 1.162842
v -3.286470 7.706779 1.163514
v -3.287475 7.695435 1.167838
v -3.288432 7.695435 1.167838
v -3.288396 7.696336 1.166398
v -3.287440 7.696336 1.166398
v -3.288343 7.697433 1.165335
v -3.287386 7.697433 1.165335
v -3.286974 7.702652 1.167126
v -3.287185 7.700378 1.166911
v -3.286827 7.704001 1.167014
v -3.286670 7.705283 1.166437
v -3.286521 7.706410 1.165433
v -3.287426 7.696646 1.167007
v -3.287455 7.695967 1.167405
v -3.287390 7.697365 1.166769
v -3.287347 7.698104 1.166697
v -3.286393 7.707305 1.164071
v -3.287350 7.707305 1.164071
v -3.287627 7.705283 1.166438
v -3.288141 7.700378 1.166912
v -3.287477 7.706410 1.165434
v -3.287931 7.702652 1.167126
v -3.287783 7.704001 1.167015
v -3.288304 7.698104 1.166698
v -3.288346 7.697365 1.166770
v -3.288382 7.696646 1.167008
v -3.288412 7.695967 1.167405
v -3.288367 7.696943 1.169008
v -3.288270 7.698615 1.170311
v -3.288344 7.697392 1.168105
v -3.288373 7.696786 1.173468
v -3.288269 7.698615 1.173588
v -3.288374 7.696786 1.170073
v -3.288324 7.697701 1.176864
v -3.288372 7.696786 1.176864
v -3.288268 7.698615 1.176864
v -3.288154 7.700214 1.168405
v -3.288155 7.700214 1.167290
v -3.288207 7.699534 1.167290
v -3.288255 7.698853 1.167290
v -3.288230 7.699203 1.169519
v -3.288193 7.699709 1.169519
v -3.288154 7.700214 1.169519
v -3.288261 7.698765 1.169721
v -3.288306 7.698062 1.167502
v -3.287304 7.698765 1.169721
v -3.287314 7.698615 1.170311
v -3.287349 7.698062 1.167501
v -3.287299 7.698853 1.167290
v -3.287274 7.699203 1.169519
v -3.287198 7.700214 1.168404
v -3.287197 7.700214 1.169519
v -3.287237 7.699709 1.169519
v -3.287251 7.699534 1.167290
v -3.287198 7.700214 1.167290
v -3.287388 7.697392 1.168105
v -3.287418 7.696786 1.170073
v -3.287410 7.696943 1.169008
v -3.287417 7.696786 1.173468
v -3.287313 7.698615 1.173587
v -3.287368 7.697701 1.176863
v -3.287312 7.698615 1.176863
v -3.287416 7.696786 1.176863
v -3.287398 7.676282 1.167290
v -3.287389 7.676224 1.169753
v -3.287517 7.677140 1.169753
v -3.287533 7.677258 1.167290
v -3.287253 7.675307 1.168521
v -3.287253 7.675307 1.167290
v -3.287252 7.675307 1.169753
v -3.287775 7.679186 1.169025
v -3.287721 7.678734 1.168113
v -3.287567 7.677516 1.170258
v -3.287638 7.678057 1.167504
v -3.287792 7.679345 1.173482
v -3.287793 7.679345 1.170100
v -3.287566 7.677516 1.173561
v -3.287682 7.678431 1.176864
v -3.287791 7.679345 1.176864
v -3.287565 7.677516 1.176864
v -3.286432 7.676224 1.169752
v -3.286441 7.676282 1.167290
v -3.286631 7.677665 1.167344
v -3.286560 7.677140 1.169752
v -3.286296 7.675307 1.168521
v -3.286296 7.675307 1.169752
v -3.286297 7.675307 1.167290
v -3.286609 7.677516 1.173561
v -3.286835 7.679345 1.173482
v -3.286725 7.678431 1.176863
v -3.286834 7.679345 1.176863
v -3.286608 7.677516 1.176863
v -3.286610 7.677516 1.170258
v -3.286832 7.679305 1.169551
v -3.286726 7.678417 1.167763
v -3.286796 7.678993 1.168539
v -3.287444 7.687063 1.173895
v -3.287427 7.686687 1.174401
v -3.288400 7.687063 1.173896
v -3.288383 7.686687 1.174401
v -3.288401 7.687063 1.173149
v -3.287444 7.687063 1.173149
v -3.287377 7.685701 1.173149
v -3.288249 7.684340 1.173149
v -3.287293 7.684340 1.173149
v -3.288334 7.685701 1.173149
v -3.287956 7.680873 1.176864
v -3.287908 7.680408 1.176864
v -3.286951 7.680408 1.176863
v -3.286999 7.680873 1.176863
v -3.286901 7.679942 1.176863
v -3.287858 7.679942 1.176864
v -3.288237 7.684157 1.173915
v -3.287260 7.683882 1.174628
v -3.288217 7.683882 1.174628
v -3.288190 7.683523 1.175270
v -3.287280 7.684157 1.173914
v -3.287234 7.683523 1.175270
v -3.287199 7.683089 1.175821
v -3.288156 7.683089 1.175822
v -3.287158 7.682592 1.176268
v -3.288115 7.682592 1.176268
v -3.288067 7.682047 1.176596
v -3.287057 7.681468 1.176796
v -3.288014 7.681468 1.176796
v -3.287111 7.682047 1.176595
v -3.286902 7.679942 1.175711
v -3.287858 7.679942 1.175712
v -3.286902 7.679942 1.174559
v -3.287858 7.679942 1.174560
v -3.288086 7.682251 1.173728
v -3.288111 7.682537 1.173149
v -3.287130 7.682251 1.173728
v -3.287155 7.682537 1.173149
v -3.288051 7.681857 1.174178
v -3.287094 7.681857 1.174177
v -3.287050 7.681385 1.174462
v -3.287956 7.680873 1.174560
v -3.288007 7.681385 1.174462
v -3.287000 7.680873 1.174559
v -3.287909 7.680408 1.174560
v -3.286952 7.680408 1.174559
v -3.287036 7.681240 1.173149
v -3.287859 7.679942 1.173149
v -3.286902 7.679942 1.173149
v -3.287993 7.681240 1.173149
v -3.287859 7.679942 1.172154
v -3.286903 7.679942 1.172154
v -3.287860 7.679942 1.171158
v -3.286903 7.679942 1.171158
v -3.287996 7.681265 1.171158
v -3.287040 7.681265 1.171158
v -3.288116 7.682587 1.171158
v -3.287160 7.682587 1.171158
v -3.286953 7.680408 1.169594
v -3.287001 7.680873 1.169594
v -3.287958 7.680873 1.169594
v -3.287860 7.679942 1.169594
v -3.286904 7.679942 1.169594
v -3.287910 7.680408 1.169594
v -3.288011 7.681415 1.169703
v -3.287055 7.681415 1.169703
v -3.288057 7.681909 1.170022
v -3.287101 7.681909 1.170022
v -3.288093 7.682312 1.170522
v -3.287136 7.682312 1.170521
v -3.286904 7.679942 1.168442
v -3.287860 7.679942 1.168442
v -3.286904 7.679942 1.167290
v -3.287861 7.679942 1.167290
v -3.288018 7.681483 1.167361
v -3.287002 7.680873 1.167290
v -3.287959 7.680873 1.167290
v -3.287062 7.681483 1.167360
v -3.288073 7.682075 1.167571
v -3.288121 7.682630 1.167915
v -3.287116 7.682075 1.167571
v -3.287164 7.682630 1.167914
v -3.287205 7.683134 1.168381
v -3.288162 7.683134 1.168381
v -3.288222 7.683928 1.169626
v -3.287239 7.683571 1.168957
v -3.288196 7.683571 1.168958
v -3.288240 7.684195 1.170367
v -3.287265 7.683928 1.169626
v -3.288252 7.684364 1.171158
v -3.287284 7.684195 1.170367
v -3.287295 7.684364 1.171158
v -3.287911 7.680408 1.167290
v -3.286954 7.680408 1.167290
v -3.287379 7.685713 1.171158
v -3.288335 7.685713 1.171158
v -3.288401 7.687063 1.171158
v -3.287445 7.687063 1.171158
v -3.287445 7.687063 1.169224
v -3.288402 7.687063 1.169224
v -3.287446 7.687063 1.167290
v -3.288402 7.687063 1.167290
v -3.288438 7.687978 1.167290
v -3.287481 7.687978 1.167290
v -3.288465 7.688892 1.167290
v -3.287508 7.688892 1.167290
v -3.288464 7.688892 1.169224
v -3.287508 7.688892 1.169224
v -3.288464 7.688892 1.171158
v -3.287507 7.688892 1.171158
v -3.288476 7.689434 1.171158
v -3.287520 7.689434 1.171158
v -3.288480 7.689662 1.173981
v -3.287523 7.689662 1.173981
v -3.288485 7.689974 1.174750
v -3.288476 7.689458 1.173149
v -3.287528 7.689974 1.174750
v -3.287520 7.689458 1.173149
v -3.288490 7.690385 1.175429
v -3.288495 7.690881 1.175995
v -3.287534 7.690385 1.175428
v -3.287538 7.690881 1.175995
v -3.287524 7.689617 1.170317
v -3.288480 7.689617 1.170318
v -3.288499 7.691340 1.167791
v -3.287543 7.691340 1.167790
v -3.288496 7.690787 1.168251
v -3.287543 7.691947 1.167474
v -3.288499 7.691947 1.167474
v -3.287540 7.690787 1.168251
v -3.288491 7.690305 1.168839
v -3.288486 7.689910 1.169536
v -3.287529 7.689910 1.169536
v -3.287535 7.690305 1.168839
v -3.287539 7.692587 1.167311
v -3.288496 7.692587 1.167311
v -3.288476 7.693878 1.167465
v -3.287531 7.693238 1.167308
v -3.288488 7.693238 1.167309
v -3.287520 7.693878 1.167465
v -3.288461 7.694486 1.167777
v -3.288444 7.695074 1.168181
v -3.287505 7.694486 1.167776
v -3.288413 7.695925 1.169509
v -3.287472 7.695527 1.168815
v -3.288428 7.695527 1.168816
v -3.287444 7.696222 1.170288
v -3.288400 7.696222 1.170288
v -3.288392 7.696409 1.171127
v -3.287456 7.695925 1.169509
v -3.287488 7.695074 1.168181
v -3.288388 7.696480 1.171998
v -3.287435 7.696409 1.171127
v -3.287432 7.696480 1.171998
v -3.287434 7.696431 1.172871
v -3.288390 7.696431 1.172872
v -3.288397 7.696264 1.173719
v -3.287452 7.695986 1.174510
v -3.288409 7.695986 1.174510
v -3.288423 7.695606 1.175221
v -3.287441 7.696264 1.173718
v -3.287483 7.695135 1.175826
v -3.288440 7.695135 1.175826
v -3.288456 7.694591 1.176306
v -3.288483 7.693354 1.176829
v -3.287514 7.693990 1.176643
v -3.288471 7.693990 1.176644
v -3.287499 7.694591 1.176305
v -3.287467 7.695606 1.175221
v -3.288496 7.692060 1.176720
v -3.287539 7.692060 1.176720
v -3.288491 7.692703 1.176855
v -3.288497 7.691446 1.176431
v -3.287540 7.691446 1.176431
v -3.287527 7.693354 1.176828
v -3.287535 7.692703 1.176854
v -3.287507 7.688892 1.173149
v -3.288463 7.688892 1.173149
v -3.288388 7.686805 1.176864
v -3.288340 7.685830 1.176864
v -3.287383 7.685830 1.176863
v -3.287432 7.686805 1.176863
v -3.287326 7.684855 1.176863
v -3.288282 7.684855 1.176864
v -3.287465 7.687604 1.176650
v -3.288421 7.687604 1.176650
v -3.287488 7.688281 1.176040
v -3.288445 7.688281 1.176041
v -3.287502 7.688734 1.175129
v -3.287506 7.688892 1.174053
v -3.288463 7.688892 1.174054
v -3.288458 7.688734 1.175129
v -3.287326 7.684855 1.175632
v -3.288283 7.684855 1.175632
v -3.287327 7.684855 1.174401
v -3.288283 7.684855 1.174401
v -3.287381 7.685771 1.174401
v -3.288337 7.685771 1.174401
v -3.287515 7.694046 1.170106
v -3.288472 7.694046 1.170107
v -3.288475 7.693898 1.170724
v -3.287523 7.693676 1.171300
v -3.288479 7.693676 1.171300
v -3.288484 7.693388 1.171820
v -3.287518 7.693898 1.170724
v -3.287528 7.693388 1.171820
v -3.287533 7.693039 1.172268
v -3.288489 7.693039 1.172269
v -3.287537 7.692641 1.172634
v -3.288493 7.692641 1.172634
v -3.288496 7.692204 1.172907
v -3.287542 7.691740 1.173080
v -3.288498 7.691740 1.173080
v -3.288497 7.691260 1.173148
v -3.287540 7.692204 1.172907
v -3.287541 7.691260 1.173148
v -3.287502 7.694572 1.170963
v -3.287496 7.694768 1.172043
v -3.288452 7.694768 1.172043
v -3.288457 7.694594 1.173129
v -3.287500 7.694594 1.173129
v -3.288470 7.694086 1.174005
v -3.287513 7.694086 1.174005
v -3.288494 7.692519 1.174499
v -3.288484 7.693345 1.174494
v -3.287527 7.693345 1.174494
v -3.287538 7.692519 1.174499
v -3.287541 7.691774 1.174018
v -3.288498 7.691774 1.174018
v -3.288458 7.694572 1.170963
v -3.288486 7.693323 1.170270
v -3.287529 7.693323 1.170270
v -3.288492 7.692852 1.170788
v -3.287535 7.692852 1.170787
v -3.287540 7.692243 1.171407
v -3.288497 7.692243 1.171407
v -3.287542 7.691299 1.171510
v -3.288498 7.691299 1.171510
v -3.287539 7.692445 1.169679
v -3.287528 7.693401 1.169620
v -3.287542 7.691589 1.170707
v -3.288496 7.692445 1.169679
v -3.288499 7.691589 1.170707
v -3.288485 7.693401 1.169620
vt 0.000000 0.000000
vt 0.000000 0.000000
vt 0.000000 0.000000
vt 0.000000 0.000000
vt 0.000000 0.000000
vt 0.000000 0.000000
vt 0.000000 0.000000
vt 0.000000 0.000000
vt 0.000000 0.000000
vt 0.000000 0.000000
vt 0.000000 0.000000
vt 0.000000 0.000000
vt 0.000000 0.000000
vt 0.000000 0.000000
vt 0.000000 0.000000
vt 0.000000 0.000000
vt 0.000000 0.000000
vt 0.000000 0.000000
vt 0.000000 0.000000
vt 0.000000 0.000000
vt 0.000000 0.000000
vt 0.000000 0.000000
vt 0.000000 0.000000
vt 0.000000 0.000000
vt 0.000000 0.000000
vt 0.000000 0.000000
vt 0.000000 0.000000
vt 0.000000 0.000000
vt 0.000000 0.000000
vt 0.000000 0.000000
vt 0.000000 0.000000
vt 0.000000 0.000000
vt 0.000000 0.000000
vt 0.000000 0.000000
vt 0.000000 0.000000
vt 0.000000 0.000000
vt 0.000000 0.000000
vt 0.000000 0.000000
vt 0.000000 0.000000
vt 0.000000 0.000000
vt 0.000000 0.000000
vt 0.000000 0.000000
vt 0.000000 0.000000
vt 0.000000 0.000000
vt 0.000000 0.000000
vt 0.000000 0.000000
vt 0.000000 0.000000
vt 0.000000 0.000000
vt 0.000000 0.000000
vt 0.000000 0.000000
vt 0.000000 0.000000
vt 0.000000 0.000000
vt 0.000000 0.000000
vt 0.000000 0.000000
vt 0.000000 0.000000
vt 0.000000 0.000000
vt 0.000000 0.000000
vt 0.000000 0.000000
vt 0.000000 0.000000
vt 0.000000 0.000000
vt 0.000000 0.000000
vt 0.000000 0.000000
vt 0.000000 0.000000
vt 0.000000 0.000000
vt 0.000000 0.000000
vt 0.000000 0.000000
vt 0.000000 0.000000
vt 0.000000 0.000000
vt 0.000000 0.000000
vt 0.000000 0.000000
vt 0.000000 0.000000
vt 0.000000 0.000000
vt 0.000000 0.000000
vt 0.000000 0.000000
vt 0.000000 0.000000
vt 0.000000 0.000000
vt 0.000000 0.000000
vt 0.000000 0.000000
vt 0.000000 0.000000
vt 0.000000 0.000000
vt 0.000000 0.000000
vt 0.000000 0.000000
vt 0.000000 0.000000
vt 0.000000 0.000000
vt 0.000000 0.000000
vt 0.000000 0.000000
vt 0.000000 0.000000
vt 0.000000 0.000000
vt 0.000000 0.000000
vt 0.000000 0.000000
vt 0.000000 0.000000
vt 0.000000 0.000000
vt 0.000000 0.000000
vt 0.000000 0.000000
vt 0.000000 0.000000
vt 0.000000 0.000000
vt 0.000000 0.000000
vt 0.000000 0.000000
vt 0.000000 0.000000
vt 0.000000 0.000000
vt 0.000000 0.000000
vt 0.000000 0.000000
vt 0.000000 0.000000
vt 0.000000 0.000000
vt 0.000000 0.000000
vt 0.000000 0.000000
vt 0.000000 0.000000
vt 0.000000 0.000000
vt 0.000000 0.000000
vt 0.000000 0.000000
vt 0.000000 0.000000
vt 0.000000 0.000000
vt 0.000000 0.000000
vt 0.000000 0.000000
vt 0.000000 0.000000
vt 0.000000 0.000000
vt 0.000000 0.000000
vt 0.000000 0.000000
vt 0.000000 0.000000
vt 0.000000 0.000000
vt 0.000000 0.000000
vt 0.000000 0.000000
vt 0.000000 0.000000
vt 0.000000 0.000000
vt 0.000000 0.000000
vt 0.000000 0.000000
vt 0.000000 0.000000
vt 0.000000 0.000000
vt 0.000000 0.000000
vt 0.000000 0.000000
vt 0.000000 0.000000
vt 0.000000 0.000000
vt 0.000000 0.000000
vt 0.000000 0.000000
vt 0.000000 0.000000
vt 0.000000 0.000000
vt 0.000000 0.000000
vt 0.000000 0.000000
vt 0.000000 0.000000
vt 0.000000 0.000000
vt 0.000000 0.000000
vt 0.000000 0.000000
vt 0.000000 0.000000
vt 0.000000 0.000000
vt 0.000000 0.000000
vt 0.000000 0.000000
vt 0.000000 0.000000
vt 0.000000 0.000000
vt 0.000000 0.000000
vt 0.000000 0.000000
vt 0.000000 0.000000
vt 0.000000 0.000000
vt 0.000000 0.000000
vt 0.000000 0.000000
vt 0.000000 0.000000
vt 0.000000 0.000000
vt 0.000000 0.000000
vt 0.000000 0.000000
vt 0.000000 0.000000
vt 0.000000 0.000000
vt 0.000000 0.000000
vt 0.000000 0.000000
vt 0.000000 0.000000
vt 0.000000 0.000000
vt 0.000000 0.000000
vt 0.000000 0.000000
vt 0.000000 0.000000
vt 0.000000 0.000000
vt 0.000000 0.000000
vt 0.000000 0.000000
vt 0.000000 0.000000
vt 0.000000 0.000000
vt 0.000000 0.000000
vt 0.000000 0.000000
vt 0.000000 0.000000
vt 0.000000 0.000000
vt 0.000000 0.000000
vt 0.000000 0.000000
vt 0.000000 0.000000
vt 0.000000 0.000000
vt 0.000000 0.000000
vt 0.000000 0.000000
vt 0.000000 0.000000
vt 0.000000 0.000000
vt 0.000000 0.000000
vt 0.000000 0.000000
vt 0.000000 0.000000
vt 0.000000 0.000000
vt 0.000000 0.000000
vt 0.000000 0.000000
vt 0.000000 0.000000
vt 0.000000 0.000000
vt 0.000000 0.000000
vt 0.000000 0.000000
vt 0.000000 0.000000
vt 0.000000 0.000000
vt 0.000000 0.000000
vt 0.000000 0.000000
vt 0.000000 0.000000
vt 0.000000 0.000000
vt 0.000000 0.000000
vt 0.000000 0.000000
vt 0.000000 0.000000
vt 0.000000 0.000000
vt 0.000000 0.000000
vt 0.000000 0.000000
vt 0.000000 0.000000
vt 0.000000 0.000000
vt 0.000000 0.000000
vt 0.000000 0.000000
vt 0.000000 0.000000
vt 0.000000 0.000000
vt 0.000000 0.000000
vt 0.000000 0.000000
vt 0.000000 0.000000
vt 0.000000 0.000000
vt 0.000000 0.000000
vt 0.000000 0.000000
vt 0.000000 0.000000
vt 0.000000 0.000000
vt 0.000000 0.000000
vt 0.000000 0.000000
vt 0.000000 0.000000
vt 0.000000 0.000000
vt 0.000000 0.000000
vt 0.000000 0.000000
vt 0.000000 0.000000
vt 0.000000 0.000000
vt 0.000000 0.000000
vt 0.000000 0.000000
vt 0.000000 0.000000
vt 0.000000 0.000000
vt 0.000000 0.000000
vt 0.000000 0.000000
vt 0.000000 0.000000
vt 0.000000 0.000000
vt 0.000000 0.000000
vt 0.000000 0.000000
vt 0.000000 0.000000
vt 0.000000 0.000000
vt 0.000000 0.000000
vt 0.000000 0.000000
vt 0.000000 0.000000
vt 0.000000 0.000000
vt 0.000000 0.000000
vt 0.000000 0.000000
vt 0.000000 0.000000
vt 0.000000 0.000000
vt 0.000000 0.000000
vt 0.000000 0.000000
vt 0.000000 0.000000
vt 0.000000 0.000000
vt 0.000000 0.000000
vt 0.000000 0.000000
vt 0.000000 0.000000
vt 0.000000 0.000000
vt 0.000000 0.000000
vt 0.000000 0.000000
vt 0.000000 0.000000
vt 0.000000 0.000000
vt 0.000000 0.000000
vt 0.000000 0.000000
vt 0.000000 0.000000
vt 0.000000 0.000000
vt 0.000000 0.000000
vt 0.000000 0.000000
vt 0.000000 0.000000
vt 0.000000 0.000000
vt 0.000000 0.000000
vt 0.000000 0.000000
vt 0.000000 0.000000
vt 0.000000 0.000000
vt 0.000000 0.000000
vt 0.000000 0.000000
vt 0.000000 0.000000
vt 0.000000 0.000000
vt 0.000000 0.000000
vt 0.000000 0.000000
vt 0.000000 0.000000
vt 0.000000 0.000000
vt 0.000000 0.000000
vt 0.000000 0.000000
vt 0.000000 0.000000
vt 0.000000 0.000000
vt 0.000000 0.000000
vt 0.000000 0.000000
vt 0.000000 0.000000
vt 0.000000 0.000000
vt 0.000000 0.000000
vt 0.000000 0.000000
vt 0.000000 0.000000
vt 0.000000 0.000000
vt 0.000000 0.000000
vt 0.000000 0.000000
vt 0.000000 0.000000
vt 0.000000 0.000000
vt 0.000000 0.000000
vt 0.000000 0.000000
vt 0.000000 0.000000
vt 0.000000 0.000000
vt 0.000000 0.000000
vt 0.000000 0.000000
vt 0.000000 0.000000
vt 0.000000 0.000000
vt 0.000000 0.000000
vt 0.000000 0.000000
vt 0.000000 0.000000
vt 0.000000 0.000000
vt 0.000000 0.000000
vt 0.000000 0.000000
vt 0.000000 0.000000
vt 0.000000 0.000000
vt 0.000000 0.000000
vt 0.000000 0.000000
vt 0.000000 0.000000
vt 0.000000 0.000000
vt 0.000000 0.000000
vt 0.000000 0.000000
vt 0.000000 0.000000
vt 0.000000 0.000000
vt 0.000000 0.000000
vt 0.000000 0.000000
vt 0.000000 0.000000
vt 0.000000 0.000000
vt 0.000000 0.000000
vt 0.000000 0.000000
vt 0.000000 0.000000
vt 0.000000 0.000000
vt 0.000000 0.000000
vt 0.000000 0.000000
vt 0.000000 0.000000
vt 0.000000 0.000000
vt 0.000000 0.000000
vt 0.000000 0.000000
vt 0.000000 0.000000
vt 0.000000 0.000000
vt 0.000000 0.000000
vt 0.000000 0.000000
vt 0.000000 0.000000
vt 0.000000 0.000000
vt 0.000000 0.000000
vt 0.000000 0.000000
vt 0.000000 0.000000
vt 0.000000 0.000000
vt 0.000000 0.000000
vt 0.000000 0.000000
vt 0.000000 0.000000
vt 0.000000 0.000000
vt 0.000000 0.000000
vt 0.000000 0.000000
vt 0.000000 0.000000
vt 0.000000 0.000000
vt 0.000000 0.000000
vt 0.000000 0.000000
vt 0.000000 0.000000
vt 0.000000 0.000000
vt 0.000000 0.000000
vt 0.000000 0.000000
vt 0.000000 0.000000
vt 0.000000 0.000000
vt 0.000000 0.000000
vt 0.000000 0.000000
vt 0.000000 0.000000
vt 0.000000 0.000000
vt 0.000000 0.000000
vt 0.000000 0.000000
vt 0.000000 0.000000
vt 0.000000 0.000000
vt 0.000000 0.000000
vt 0.000000 0.000000
vt 0.000000 0.000000
vt 0.000000 0.000000
vt 0.000000 0.000000
vt 0.000000 0.000000
vt 0.000000 0.000000
vt 0.000000 0.000000
vt 0.000000 0.000000
vt 0.000000 0.000000
vt 0.000000 0.000000
vt 0.000000 0.000000
vt 0.000000 0.000000
vt 0.000000 0.000000
vt 0.000000 0.000000
vt 0.000000 0.000000
vt 0.000000 0.000000
vt 0.000000 0.000000
vt 0.000000 0.000000
vt 0.000000 0.000000
vt 0.000000 0.000000
vt 0.000000 0.000000
vt 0.000000 0.000000
vt 0.000000 0.000000
vt 0.000000 0.000000
vt 0.000000 0.000000
vt 0.000000 0.000000
vt 0.000000 0.000000
vt 0.000000 0.000000
vt 0.000000 0.000000
vt 0.000000 0.000000
vt 0.000000 0.000000
vt 0.000000 0.000000
vt 0.000000 0.000000
vt 0.000000 0.000000
vt 0.000000 0.000000
vt 0.000000 0.000000
vt 0.000000 0.000000
vt 0.000000 0.000000
vt 0.000000 0.000000
vt 0.000000 0.000000
vt 0.000000 0.000000
vt 0.000000 0.000000
vt 0.000000 0.000000
vt 0.000000 0.000000
vt 0.000000 0.000000
vt 0.000000 0.000000
vt 0.000000 0.000000
vt 0.000000 0.000000
vt 0.000000 0.000000
vt 0.000000 0.000000
vt 0.000000 0.000000
vt 0.000000 0.000000
vt 0.000000 0.000000
vt 0.000000 0.000000
vt 0.000000 0.000000
vt 0.000000 0.000000
vt 0.000000 0.000000
vt 0.000000 0.000000
vt 0.000000 0.000000
vt 0.000000 0.000000
vt 0.000000 0.000000
vt 0.000000 0.000000
vt 0.000000 0.000000
vt 0.000000 0.000000
vt 0.000000 0.000000
vt 0.000000 0.000000
vt 0.000000 0.000000
vt 0.000000 0.000000
vt 0.000000 0.000000
vt 0.000000 0.000000
vt 0.000000 0.000000
vt 0.000000 0.000000
vt 0.000000 0.000000
vt 0.000000 0.000000
vt 0.000000 0.000000
vt 0.000000 0.000000
vt 0.000000 0.000000
vt 0.000000 0.000000
vt 0.000000 0.000000
vt 0.000000 0.000000
vt 0.000000 0.000000
vt 0.000000 0.000000
vt 0.000000 0.000000
vt 0.000000 0.000000
vt 0.000000 0.000000
vt 0.000000 0.000000
vt 0.000000 0.000000
vt 0.000000 0.000000
vt 0.000000 0.000000
vt 0.000000 0.000000
vt 0.000000 0.000000
vt 0.000000 0.000000
vt 0.000000 0.000000
vt 0.000000 0.000000
vt 0.000000 0.000000
vt 0.000000 0.000000
vt 0.000000 0.000000
vt 0.000000 0.000000
vt 0.000000 0.000000
vt 0.000000 0.000000
vt 0.000000 0.000000
vt 0.000000 0.000000
vt 0.000000 0.000000
vt 0.000000 0.000000
vt 0.000000 0.000000
vt 0.000000 0.000000
vt 0.000000 0.000000
vt 0.000000 0.000000
vt 0.000000 0.000000
vt 0.000000 0.000000
vt 0.000000 0.000000
vt 0.000000 0.000000
vt 0.000000 0.000000
vt 0.000000 0.000000
vt 0.000000 0.000000
vt 0.000000 0.000000
vt 0.000000 0.000000
vt 0.000000 0.000000
vt 0.000000 0.000000
vt 0.000000 0.000000
vt 0.000000 0.000000
vt 0.000000 0.000000
vt 0.000000 0.000000
vt 0.000000 0.000000
vt 0.000000 0.000000
vt 0.000000 0.000000
vt 0.000000 0.000000
vt 0.000000 0.000000
vt 0.000000 0.000000
vt 0.000000 0.000000
vt 0.000000 0.000000
vt 0.000000 0.000000
vt 0.000000 0.000000
vt 0.000000 0.000000
vt 0.000000 0.000000
vt 0.000000 0.000000
vt 0.000000 0.000000
vt 0.000000 0.000000
vt 0.000000 0.000000
vt 0.000000 0.000000
vt 0.000000 0.000000
vt 0.000000 0.000000
vt 0.000000 0.000000
vt 0.000000 0.000000
vt 0.000000 0.000000
vt 0.000000 0.000000
vt 0.000000 0.000000
vt 0.000000 0.000000
vt 0.000000 0.000000
vt 0.000000 0.000000
vt 0.000000 0.000000
vt 0.000000 0.000000
vt 0.000000 0.000000
vt 0.000000 0.000000
vt 0.000000 0.000000
vt 0.000000 0.000000
vt 0.000000 0.000000
vt 0.000000 0.000000
vt 0.000000 0.000000
vt 0.000000 0.000000
vt 0.000000 0.000000
vt 0.000000 0.000000
vt 0.000000 0.000000
vt 0.000000 0.000000
vt 0.000000 0.000000
vt 0.000000 0.000000
vt 0.000000 0.000000
vt 0.000000 0.000000
vt 0.000000 0.000000
vt 0.000000 0.000000
vt 0.000000 0.000000
vt 0.000000 0.000000
vt 0.000000 0.000000
vt 0.000000 0.000000
vt 0.000000 0.000000
vt 0.000000 0.000000
vt 0.000000 0.000000
vt 0.000000 0.000000
vt 0.000000 0.000000
vt 0.000000 0.000000
vt 0.000000 0.000000
vt 0.000000 0.000000
vt 0.000000 0.000000
vt 0.000000 0.000000
vt 0.000000 0.000000
vt 0.000000 0.000000
vt 0.000000 0.000000
vt 0.000000 0.000000
vt 0.000000 0.000000
vt 0.000000 0.000000
vt 0.000000 0.000000
vt 0.000000 0.000000
vt 0.000000 0.000000
vt 0.000000 0.000000
vt 0.000000 0.000000
vt 0.000000 0.000000
vt 0.000000 0.000000
vt 0.000000 0.000000
vt 0.000000 0.000000
vt 0.000000 0.000000
vt 0.000000 0.000000
vt 0.000000 0.000000
vt 0.000000 0.000000
vt 0.000000 0.000000
vt 0.000000 0.000000
vt 0.000000 0.000000
vt 0.000000 0.000000
vt 0.000000 0.000000
vt 0.000000 0.000000
vt 0.000000 0.000000
vt 0.000000 0.000000
vt 0.000000 0.000000
vt 0.000000 0.000000
vt 0.000000 0.000000
vt 0.000000 0.000000
vt 0.000000 0.000000
vt 0.000000 0.000000
vt 0.000000 0.000000
vt 0.000000 0.000000
vt 0.000000 0.000000
vt 0.000000 0.000000
vt 0.000000 0.000000
vt 0.000000 0.000000
vt 0.000000 0.000000
vt 0.000000 0.000000
vt 0.000000 0.000000
vt 0.000000 0.000000
vt 0.000000 0.000000
vt 0.000000 0.000000
vt 0.000000 0.000000
vt 0.000000 0.000000
vt 0.000000 0.000000
vt 0.000000 0.000000
vt 0.000000 0.000000
vt 0.000000 0.000000
vt 0.000000 0.000000
vt 0.000000 0.000000
vt 0.000000 0.000000
vt 0.000000 0.000000
vt 0.000000 0.000000
vt 0.000000 0.000000
vt 0.000000 0.000000
vt 0.000000 0.000000
vt 0.000000 0.000000
vt 0.000000 0.000000
vt 0.000000 0.000000
vt 0.000000 0.000000
vt 0.000000 0.000000
vt 0.000000 0.000000
vt 0.000000 0.000000
vt 0.000000 0.000000
vt 0.000000 0.000000
vt 0.000000 0.000000
vt 0.000000 0.000000
vt 0.000000 0.000000
vt 0.000000 0.000000
vt 0.000000 0.000000
vt 0.000000 0.000000
vt 0.000000 0.000000
vt 0.000000 0.000000
vt 0.000000 0.000000
vt 0.000000 0.000000
vt 0.000000 0.000000
vt 0.000000 0.000000
vt 0.000000 0.000000
vt 0.000000 0.000000
vt 0.000000 0.000000
vt 0.000000 0.000000
vt 0.000000 0.000000
vt 0.000000 0.000000
vt 0.000000 0.000000
vt 0.000000 0.000000
vt 0.000000 0.000000
vt 0.000000 0.000000
vt 0.000000 0.000000
vt 0.000000 0.000000
vt 0.000000 0.000000
vt 0.000000 0.000000
vt 0.000000 0.000000
vt 0.000000 0.000000
vt 0.000000 0.000000
vt 0.000000 0.000000
vt 0.000000 0.000000
vt 0.000000 0.000000
vt 0.000000 0.000000
vt 0.000000 0.000000
vt 0.000000 0.000000
vt 0.000000 0.000000
vt 0.000000 0.000000
vt 0.000000 0.000000
vt 0.000000 0.000000
vt 0.000000 0.000000
vt 0.000000 0.000000
vt 0.000000 0.000000
vt 0.000000 0.000000
vt 0.000000 0.000000
vt 0.000000 0.000000
vt 0.000000 0.000000
vt 0.000000 0.000000
vt 0.000000 0.000000
vt 0.000000 0.000000
vt 0.000000 0.000000
vt 0.000000 0.000000
vt 0.000000 0.000000
vt 0.000000 0.000000
vt 0.000000 0.000000
vt 0.000000 0.000000
vt 0.000000 0.000000
vt 0.000000 0.000000
vt 0.000000 0.000000
vt 0.000000 0.000000
vt 0.000000 0.000000
vt 0.000000 0.000000
vt 0.000000 0.000000
vt 0.000000 0.000000
vt 0.000000 0.000000
vt 0.000000 0.000000
vt 0.000000 0.000000
vt 0.000000 0.000000
vt 0.000000 0.000000
vt 0.000000 0.000000
vt 0.000000 0.000000
vt 0.000000 0.000000
vt 0.000000 0.000000
vt 0.000000 0.000000
vt 0.000000 0.000000
vt 0.000000 0.000000
vt 0.000000 0.000000
vt 0.000000 0.000000
vt 0.000000 0.000000
vt 0.000000 0.000000
vt 0.000000 0.000000
vt 0.000000 0.000000
vt 0.000000 0.000000
vt 0.000000 0.000000
vt 0.000000 0.000000
vt 0.000000 0.000000
vt 0.000000 0.000000
vt 0.000000 0.000000
vt 0.000000 0.000000
vt 0.000000 0.000000
vt 0.000000 0.000000
vt 0.000000 0.000000
vt 0.000000 0.000000
vt 0.000000 0.000000
vt 0.000000 0.000000
vt 0.000000 0.000000
vt 0.000000 0.000000
vt 0.000000 0.000000
vt 0.000000 0.000000
vt 0.000000 0.000000
vt 0.000000 0.000000
vt 0.000000 0.000000
vt 0.000000 0.000000
vt 0.000000 0.000000
vt 0.000000 0.000000
vt 0.000000 0.000000
vt 0.000000 0.000000
vt 0.000000 0.000000
vt 0.000000 0.000000
vt 0.000000 0.000000
vt 0.000000 0.000000
vt 0.000000 0.000000
vt 0.000000 0.000000
vt 0.000000 0.000000
vt 0.000000 0.000000
vt 0.000000 0.000000
vt 0.000000 0.000000
vt 0.000000 0.000000
vt 0.000000 0.000000
vt 0.000000 0.000000
vt 0.000000 0.000000
vt 0.000000 0.000000
vt 0.000000 0.000000
vt 0.000000 0.000000
vt 0.000000 0.000000
vt 0.000000 0.000000
vt 0.000000 0.000000
vt 0.000000 0.000000
vt 0.000000 0.000000
vt 0.000000 0.000000
vt 0.000000 0.000000
vt 0.000000 0.000000
vt 0.000000 0.000000
vt 0.000000 0.000000
vt 0.000000 0.000000
vt 0.000000 0.000000
vt 0.000000 0.000000
vt 0.000000 0.000000
vt 0.000000 0.000000
vt 0.000000 0.000000
vt 0.000000 0.000000
vt 0.000000 0.000000
vt 0.000000 0.000000
vt 0.000000 0.000000
vt 0.000000 0.000000
vt 0.000000 0.000000
vt 0.000000 0.000000
vt 0.000000 0.000000
vt 0.000000 0.000000
vt 0.000000 0.000000
vt 0.000000 0.000000
vt 0.000000 0.000000
vt 0.000000 0.000000
vt 0.000000 0.000000
vt 0.000000 0.000000
vt 0.000000 0.000000
vt 0.000000 0.000000
vt 0.000000 0.000000
vt 0.000000 0.000000
vt 0.000000 0.000000
vt 0.000000 0.000000
vt 0.000000 0.000000
vt 0.000000 0.000000
vt 0.000000 0.000000
vt 0.000000 0.000000
vt 0.000000 0.000000
vt 0.000000 0.000000
vt 0.000000 0.000000
vt 0.000000 0.000000
vt 0.000000 0.000000
vt 0.000000 0.000000
vt 0.000000 0.000000
vt 0.000000 0.000000
vt 0.000000 0.000000
vt 0.000000 0.000000
vt 0.000000 0.000000
vt 0.000000 0.000000
vt 0.000000 0.000000
vt 0.000000 0.000000
vt 0.000000 0.000000
vt 0.000000 0.000000
vt 0.000000 0.000000
vt 0.000000 0.000000
vt 0.000000 0.000000
vt 0.000000 0.000000
vt 0.000000 0.000000
vt 0.000000 0.000000
vt 0.000000 0.000000
vt 0.000000 0.000000
vt 0.000000 0.000000
vt 0.000000 0.000000
vt 0.000000 0.000000
vt 0.000000 0.000000
vt 0.000000 0.000000
vt 0.000000 0.000000
vt 0.000000 0.000000
vt 0.000000 0.000000
vt 0.000000 0.000000
vt 0.000000 0.000000
vt 0.000000 0.000000
vt 0.000000 0.000000
vt 0.000000 0.000000
vt 0.000000 0.000000
vt 0.000000 0.000000
vt 0.000000 0.000000
vt 0.000000 0.000000
vt 0.000000 0.000000
vt 0.000000 0.000000
vt 0.000000 0.000000
vt 0.000000 0.000000
vt 0.000000 0.000000
vt 0.000000 0.000000
vt 0.000000 0.000000
vt 0.000000 0.000000
vt 0.000000 0.000000
vt 0.000000 0.000000
vt 0.000000 0.000000
vt 0.000000 0.000000
vt 0.000000 0.000000
vt 0.000000 0.000000
vt 0.000000 0.000000
vt 0.000000 0.000000
vt 0.000000 0.000000
vt 0.000000 0.000000
vt 0.000000 0.000000
vt 0.000000 0.000000
vt 0.000000 0.000000
vt 0.000000 0.000000
vt 0.000000 0.000000
vt 0.000000 0.000000
vt 0.000000 0.000000
vt 0.000000 0.000000
vt 0.000000 0.000000
vt 0.000000 0.000000
vt 0.000000 0.000000
vt 0.000000 0.000000
vt 0.000000 0.000000
vt 0.000000 0.000000
vt 0.000000 0.000000
vt 0.000000 0.000000
vt 0.000000 0.000000
vt 0.000000 0.000000
vt 0.000000 0.000000
vt 0.000000 0.000000
vt 0.000000 0.000000
vt 0.000000 0.000000
vt 0.000000 0.000000
vt 0.000000 0.000000
vt 0.000000 0.000000
vt 0.000000 0.000000
vt 0.000000 0.000000
vt 0.000000 0.000000
vt 0.000000 0.000000
vt 0.000000 0.000000
vt 0.000000 0.000000
vt 0.000000 0.000000
vt 0.000000 0.000000
vt 0.000000 0.000000
vt 0.000000 0.000000
vt 0.000000 0.000000
vt 0.000000 0.000000
vt 0.000000 0.000000
vt 0.000000 0.000000
vt 0.000000 0.000000
vt 0.000000 0.000000
vt 0.000000 0.000000
vt 0.000000 0.000000
vt 0.000000 0.000000
vt 0.000000 0.000000
vt 0.000000 0.000000
vt 0.000000 0.000000
vt 0.000000 0.000000
vt 0.000000 0.000000
vt 0.000000 0.000000
vt 0.000000 0.000000
vt 0.000000 0.000000
vt 0.000000 0.000000
vt 0.000000 0.000000
vt 0.000000 0.000000
vt 0.000000 0.000000
vt 0.000000 0.000000
vt 0.000000 0.000000
vt 0.000000 0.000000
vt 0.000000 0.000000
vt 0.000000 0.000000
vt 0.000000 0.000000
vt 0.000000 0.000000
vt 0.000000 0.000000
vt 0.000000 0.000000
vt 0.000000 0.000000
vt 0.000000 0.000000
vt 0.000000 0.000000
vt 0.000000 0.000000
vt 0.000000 0.000000
vt 0.000000 0.000000
vt 0.000000 0.000000
vt 0.000000 0.000000
vt 0.000000 0.000000
vt 0.000000 0.000000
vt 0.000000 0.000000
vt 0.000000 0.000000
vt 0.000000 0.000000
vt 0.000000 0.000000
vt 0.000000 0.000000
vt 0.000000 0.000000
vt 0.000000 0.000000
vt 0.000000 0.000000
vt 0.000000 0.000000
vt 0.000000 0.000000
vt 0.000000 0.000000
vt 0.000000 0.000000
vt 0.000000 0.000000
vt 0.000000 0.000000
vt 0.000000 0.000000
vt 0.000000 0.000000
vt 0.000000 0.000000
vt 0.000000 0.000000
vt 0.000000 0.000000
vt 0.000000 0.000000
vt 0.000000 0.000000
vt 0.000000 0.000000
vt 0.000000 0.000000
vt 0.000000 0.000000
vt 0.000000 0.000000
vt 0.000000 0.000000
vt 0.000000 0.000000
vt 0.000000 0.000000
vt 0.000000 0.000000
vt 0.000000 0.000000
vt 0.000000 0.000000
vt 0.000000 0.000000
vt 0.000000 0.000000
vt 0.000000 0.000000
vt 0.000000 0.000000
vt 0.000000 0.000000
vt 0.000000 0.000000
vt 0.000000 0.000000
vt 0.000000 0.000000
vt 0.000000 0.000000
vt 0.000000 0.000000
vt 0.000000 0.000000
vt 0.000000 0.000000
vt 0.000000 0.000000
vt 0.000000 0.000000
vt 0.000000 0.000000
vt 0.000000 0.000000
vt 0.000000 0.000000
vt 0.000000 0.000000
vt 0.000000 0.000000
vt 0.000000 0.000000
vt 0.000000 0.000000
vt 0.000000 0.000000
vt 0.000000 0.000000
vt 0.000000 0.000000
vt 0.000000 0.000000
vt 0.000000 0.000000
vt 0.000000 0.000000
vt 0.000000 0.000000
vt 0.000000 0.000000
vt 0.000000 0.000000
vt 0.000000 0.000000
vt 0.000000 0.000000
vt 0.000000 0.000000
vt 0.000000 0.000000
vt 0.000000 0.000000
vt 0.000000 0.000000
vt 0.000000 0.000000
vt 0.000000 0.000000
vt 0.000000 0.000000
vt 0.000000 0.000000
vt 0.000000 0.000000
vt 0.000000 0.000000
vt 0.000000 0.000000
vt 0.000000 0.000000
vt 0.000000 0.000000
vt 0.000000 0.000000
vt 0.000000 0.000000
vt 0.000000 0.000000
vt 0.000000 0.000000
vt 0.000000 0.000000
vt 0.000000 0.000000
vt 0.000000 0.000000
vt 0.000000 0.000000
vt 0.000000 0.000000
vt 0.000000 0.000000
vt 0.000000 0.000000
vt 0.000000 0.000000
vt 0.000000 0.000000
vt 0.000000 0.000000
vt 0.000000 0.000000
vt 0.000000 0.000000
vt 0.000000 0.000000
vt 0.000000 0.000000
vt 0.000000 0.000000
vt 0.000000 0.000000
vt 0.000000 0.000000
vt 0.000000 0.000000
vt 0.000000 0.000000
vt 0.000000 0.000000
vt 0.000000 0.000000
vt 0.000000 0.000000
vt 0.000000 0.000000
vt 0.000000 0.000000
vt 0.000000 0.000000
vt 0.000000 0.000000
vt 0.000000 0.000000
vt 0.000000 0.000000
vt 0.000000 0.000000
vt 0.000000 0.000000
vt 0.000000 0.000000
vt 0.000000 0.000000
vt 0.000000 0.000000
vt 0.000000 0.000000
vt 0.000000 0.000000
vt 0.000000 0.000000
vt 0.000000 0.000000
vt 0.000000 0.000000
vt 0.000000 0.000000
vt 0.000000 0.000000
vt 0.000000 0.000000
vt 0.000000 0.000000
vt 0.000000 0.000000
vt 0.000000 0.000000
vt 0.000000 0.000000
vt 0.000000 0.000000
vt 0.000000 0.000000
vt 0.000000 0.000000
vt 0.000000 0.000000
vt 0.000000 0.000000
vt 0.000000 0.000000
vt 0.000000 0.000000
vt 0.000000 0.000000
vt 0.000000 0.000000
vt 0.000000 0.000000
vt 0.000000 0.000000
vt 0.000000 0.000000
vt 0.000000 0.000000
vt 0.000000 0.000000
vt 0.000000 0.000000
vt 0.000000 0.000000
vt 0.000000 0.000000
vt 0.000000 0.000000
vt 0.000000 0.000000
vt 0.000000 0.000000
vt 0.000000 0.000000
vt 0.000000 0.000000
vt 0.000000 0.000000
vt 0.000000 0.000000
vt 0.000000 0.000000
vt 0.000000 0.000000
vt 0.000000 0.000000
vt 0.000000 0.000000
vt 0.000000 0.000000
vt 0.000000 0.000000
vt 0.000000 0.000000
vt 0.000000 0.000000
vt 0.000000 0.000000
vt 0.000000 0.000000
vt 0.000000 0.000000
vt 0.000000 0.000000
vt 0.000000 0.000000
vt 0.000000 0.000000
vt 0.000000 0.000000
vt 0.000000 0.000000
vt 0.000000 0.000000
vt 0.000000 0.000000
vt 0.000000 0.000000
vt 0.000000 0.000000
vt 0.000000 0.000000
vt 0.000000 0.000000
vt 0.000000 0.000000
vt 0.000000 0.000000
vt 0.000000 0.000000
vt 0.000000 0.000000
vt 0.000000 0.000000
vt 0.000000 0.000000
vt 0.000000 0.000000
vt 0.000000 0.000000
vt 0.000000 0.000000
vt 0.000000 0.000000
vt 0.000000 0.000000
vt 0.000000 0.000000
vt 0.000000 0.000000
vt 0.000000 0.000000
vt 0.000000 0.000000
vt 0.000000 0.000000
vt 0.000000 0.000000
vt 0.000000 0.000000
vt 0.000000 0.000000
vt 0.000000 0.000000
vt 0.000000 0.000000
vt 0.000000 0.000000
vt 0.000000 0.000000
vt 0.000000 0.000000
vt 0.000000 0.000000
vt 0.000000 0.000000
vt 0.000000 0.000000
vt 0.000000 0.000000
vt 0.000000 0.000000
vt 0.000000 0.000000
vt 0.000000 0.000000
vt 0.000000 0.000000
vt 0.000000 0.000000
vt 0.000000 0.000000
vt 0.000000 0.000000
vt 0.000000 0.000000
vt 0.000000 0.000000
vt 0.000000 0.000000
vt 0.000000 0.000000
vt 0.000000 0.000000
vt 0.000000 0.000000
vt 0.000000 0.000000
vt 0.000000 0.000000
vt 0.000000 0.000000
vt 0.000000 0.000000
vt 0.000000 0.000000
vt 0.000000 0.000000
vt 0.000000 0.000000
vt 0.000000 0.000000
vt 0.000000 0.000000
vt 0.000000 0.000000
vt 0.000000 0.000000
vt 0.000000 0.000000
vt 0.000000 0.000000
vt 0.000000 0.000000
vt 0.000000 0.000000
vt 0.000000 0.000000
vt 0.000000 0.000000
vt 0.000000 0.000000
vt 0.000000 0.000000
vt 0.000000 0.000000
vt 0.000000 0.000000
vt 0.000000 0.000000
vt 0.000000 0.000000
vt 0.000000 0.000000
vt 0.000000 0.000000
vt 0.000000 0.000000
vt 0.000000 0.000000
vt 0.000000 0.000000
vt 0.000000 0.000000
vt 0.000000 0.000000
vt 0.000000 0.000000
vt 0.000000 0.000000
vt 0.000000 0.000000
vt 0.000000 0.000000
vt 0.000000 0.000000
vt 0.000000 0.000000
vt 0.000000 0.000000
vt 0.000000 0.000000
vt 0.000000 0.000000
vt 0.000000 0.000000
vt 0.000000 0.000000
vt 0.000000 0.000000
vt 0.000000 0.000000
vt 0.000000 0.000000
vt 0.000000 0.000000
vt 0.000000 0.000000
vt 0.000000 0.000000
vt 0.000000 0.000000
vt 0.000000 0.000000
vt 0.000000 0.000000
vt 0.000000 0.000000
vt 0.000000 0.000000
vt 0.000000 0.000000
vt 0.000000 0.000000
vt 0.000000 0.000000
vt 0.000000 0.000000
vt 0.000000 0.000000
vt 0.000000 0.000000
vt 0.000000 0.000000
vt 0.000000 0.000000
vt 0.000000 0.000000
vt 0.000000 0.000000
vt 0.000000 0.000000
vt 0.000000 0.000000
vt 0.000000 0.000000
vt 0.000000 0.000000
vt 0.000000 0.000000
vt 0.000000 0.000000
vt 0.000000 0.000000
vt 0.000000 0.000000
vt 0.000000 0.000000
vt 0.000000 0.000000
vt 0.000000 0.000000
vt 0.000000 0.000000
vt 0.000000 0.000000
vt 0.000000 0.000000
vt 0.000000 0.000000
vt 0.000000 0.000000
vt 0.000000 0.000000
vt 0.000000 0.000000
vt 0.000000 0.000000
vt 0.000000 0.000000
vt 0.000000 0.000000
vt 0.000000 0.000000
vt 0.000000 0.000000
vt 0.000000 0.000000
vt 0.000000 0.000000
vt 0.000000 0.000000
vt 0.000000 0.000000
vt 0.000000 0.000000
vt 0.000000 0.000000
vt 0.000000 0.000000
vt 0.000000 0.000000
vt 0.000000 0.000000
vt 0.000000 0.000000
vt 0.000000 0.000000
vt 0.000000 0.000000
vt 0.000000 0.000000
vt 0.000000 0.000000
vt 0.000000 0.000000
vt 0.000000 0.000000
vt 0.000000 0.000000
vt 0.000000 0.000000
vt 0.000000 0.000000
vt 0.000000 0.000000
vt 0.000000 0.000000
vt 0.000000 0.000000
vt 0.000000 0.000000
vt 0.000000 0.000000
vt 0.000000 0.000000
vt 0.000000 0.000000
vt 0.000000 0.000000
vt 0.000000 0.000000
vt 0.000000 0.000000
vt 0.000000 0.000000
vt 0.000000 0.000000
vt 0.000000 0.000000
vt 0.000000 0.000000
vt 0.000000 0.000000
vt 0.000000 0.000000
vt 0.000000 0.000000
vt 0.000000 0.000000
vt 0.000000 0.000000
vt 0.000000 0.000000
vt 0.000000 0.000000
vt 0.000000 0.000000
vt 0.000000 0.000000
vt 0.000000 0.000000
vt 0.000000 0.000000
vt 0.000000 0.000000
vt 0.000000 0.000000
vt 0.000000 0.000000
vt 0.000000 0.000000
vt 0.000000 0.000000
vt 0.000000 0.000000
vt 0.000000 0.000000
vt 0.000000 0.000000
vt 0.000000 0.000000
vt 0.000000 0.000000
vt 0.000000 0.000000
vt 0.000000 0.000000
vt 0.000000 0.000000
vt 0.000000 0.000000
vt 0.000000 0.000000
vt 0.000000 0.000000
vt 0.000000 0.000000
vt 0.000000 0.000000
vt 0.000000 0.000000
vt 0.000000 0.000000
vt 0.000000 0.000000
vt 0.000000 0.000000
vt 0.000000 0.000000
vt 0.000000 0.000000
vt 0.000000 0.000000
vt 0.000000 0.000000
vt 0.000000 0.000000
vt 0.000000 0.000000
vt 0.000000 0.000000
vt 0.000000 0.000000
vt 0.000000 0.000000
vt 0.000000 0.000000
vt 0.000000 0.000000
vt 0.000000 0.000000
vt 0.000000 0.000000
vt 0.000000 0.000000
vt 0.000000 0.000000
vt 0.000000 0.000000
vt 0.000000 0.000000
vt 0.000000 0.000000
vt 0.000000 0.000000
vt 0.000000 0.000000
vt 0.000000 0.000000
vt 0.000000 0.000000
vt 0.000000 0.000000
vt 0.000000 0.000000
vt 0.000000 0.000000
vt 0.000000 0.000000
vt 0.000000 0.000000
vt 0.000000 0.000000
vt 0.000000 0.000000
vt 0.000000 0.000000
vt 0.000000 0.000000
vt 0.000000 0.000000
vt 0.000000 0.000000
vt 0.000000 0.000000
vt 0.000000 0.000000
vt 0.000000 0.000000
vt 0.000000 0.000000
vt 0.000000 0.000000
vt 0.000000 0.000000
vt 0.000000 0.000000
vt 0.000000 0.000000
vt 0.000000 0.000000
vt 0.000000 0.000000
vt 0.000000 0.000000
vt 0.000000 0.000000
vt 0.000000 0.000000
vt 0.000000 0.000000
vt 0.000000 0.000000
vt 0.000000 0.000000
vt 0.000000 0.000000
vt 0.000000 0.000000
vt 0.000000 0.000000
vt 0.000000 0.000000
vt 0.000000 0.000000
vt 0.000000 0.000000
vt 0.000000 0.000000
vt 0.000000 0.000000
vt 0.000000 0.000000
vt 0.000000 0.000000
vt 0.000000 0.000000
vt 0.000000 0.000000
vt 0.000000 0.000000
vt 0.000000 0.000000
vt 0.000000 0.000000
vt 0.000000 0.000000
vt 0.000000 0.000000
vt 0.000000 0.000000
vt 0.000000 0.000000
vt 0.000000 0.000000
vt 0.000000 0.000000
vt 0.000000 0.000000
vt 0.000000 0.000000
vt 0.000000 0.000000
vt 0.000000 0.000000
vt 0.000000 0.000000
vt 0.000000 0.000000
vt 0.000000 0.000000
vt 0.000000 0.000000
vt 0.000000 0.000000
vt 0.000000 0.000000
vt 0.000000 0.000000
vt 0.000000 0.000000
vt 0.000000 0.000000
vt 0.000000 0.000000
vt 0.000000 0.000000
vt 0.000000 0.000000
vt 0.000000 0.000000
vt 0.000000 0.000000
vt 0.000000 0.000000
vt 0.000000 0.000000
vt 0.000000 0.000000
vt 0.000000 0.000000
vt 0.000000 0.000000
vt 0.000000 0.000000
vt 0.000000 0.000000
vt 0.000000 0.000000
vt 0.000000 0.000000
vt 0.000000 0.000000
vt 0.000000 0.000000
vt 0.000000 0.000000
vt 0.000000 0.000000
vt 0.000000 0.000000
vt 0.000000 0.000000
vt 0.000000 0.000000
vt 0.000000 0.000000
vt 0.000000 0.000000
vt 0.000000 0.000000
vt 0.000000 0.000000
vt 0.000000 0.000000
vt 0.000000 0.000000
vt 0.000000 0.000000
vt 0.000000 0.000000
vt 0.000000 0.000000
vt 0.000000 0.000000
vt 0.000000 0.000000
vt 0.000000 0.000000
vt 0.000000 0.000000
vt 0.000000 0.000000
vt 0.000000 0.000000
vt 0.000000 0.000000
vt 0.000000 0.000000
vt 0.000000 0.000000
vt 0.000000 0.000000
vt 0.000000 0.000000
vt 0.000000 0.000000
vt 0.000000 0.000000
vt 0.000000 0.000000
vt 0.000000 0.000000
vt 0.000000 0.000000
vt 0.000000 0.000000
vt 0.000000 0.000000
vt 0.000000 0.000000
vt 0.000000 0.000000
vt 0.000000 0.000000
vt 0.000000 0.000000
vt 0.000000 0.000000
vt 0.000000 0.000000
vt 0.000000 0.000000
vt 0.000000 0.000000
vt 0.000000 0.000000
vt 0.000000 0.000000
vt 0.000000 0.000000
vt 0.000000 0.000000
vt 0.000000 0.000000
vt 0.000000 0.000000
vt 0.000000 0.000000
vt 0.000000 0.000000
vt 0.000000 0.000000
vt 0.000000 0.000000
vt 0.000000 0.000000
vt 0.000000 0.000000
vt 0.000000 0.000000
vt 0.000000 0.000000
vt 0.000000 0.000000
vt 0.000000 0.000000
vt 0.000000 0.000000
vt 0.000000 0.000000
vt 0.000000 0.000000
vt 0.000000 0.000000
vt 0.000000 0.000000
vt 0.000000 0.000000
vt 0.000000 0.000000
vt 0.000000 0.000000
vt 0.000000 0.000000
vt 0.000000 0.000000
vt 0.000000 0.000000
vt 0.000000 0.000000
vt 0.000000 0.000000
vt 0.000000 0.000000
vt 0.000000 0.000000
vt 0.000000 0.000000
vt 0.000000 0.000000
vt 0.000000 0.000000
vt 0.000000 0.000000
vt 0.000000 0.000000
vt 0.000000 0.000000
vt 0.000000 0.000000
vt 0.000000 0.000000
vt 0.000000 0.000000
vt 0.000000 0.000000
vt 0.000000 0.000000
vt 0.000000 0.000000
vt 0.000000 0.000000
vt 0.000000 0.000000
vt 0.000000 0.000000
vt 0.000000 0.000000
vt 0.000000 0.000000
vt 0.000000 0.000000
vt 0.000000 0.000000
vt 0.000000 0.000000
vt 0.000000 0.000000
vt 0.000000 0.000000
vt 0.000000 0.000000
vt 0.000000 0.000000
vt 0.000000 0.000000
vt 0.000000 0.000000
vt 0.000000 0.000000
vt 0.000000 0.000000
vt 0.000000 0.000000
vt 0.000000 0.000000
vt 0.000000 0.000000
vt 0.000000 0.000000
vt 0.000000 0.000000
vt 0.000000 0.000000
vt 0.000000 0.000000
vt 0.000000 0.000000
vt 0.000000 0.000000
vt 0.000000 0.000000
vt 0.000000 0.000000
vt 0.000000 0.000000
vt 0.000000 0.000000
vt 0.000000 0.000000
vt 0.000000 0.000000
vt 0.000000 0.000000
vt 0.000000 0.000000
vt 0.000000 0.000000
vt 0.000000 0.000000
vt 0.000000 0.000000
vt 0.000000 0.000000
vt 0.000000 0.000000
vt 0.000000 0.000000
vt 0.000000 0.000000
vt 0.000000 0.000000
vt 0.000000 0.000000
vt 0.000000 0.000000
vt 0.000000 0.000000
vt 0.000000 0.000000
vt 0.000000 0.000000
vt 0.000000 0.000000
vt 0.000000 0.000000
vt 0.000000 0.000000
vt 0.000000 0.000000
vt 0.000000 0.000000
vt 0.000000 0.000000
vt 0.000000 0.000000
vt 0.000000 0.000000
vt 0.000000 0.000000
vt 0.000000 0.000000
vt 0.000000 0.000000
vt 0.000000 0.000000
vt 0.000000 0.000000
vt 0.000000 0.000000
vt 0.000000 0.000000
vt 0.000000 0.000000
vt 0.000000 0.000000
vt 0.000000 0.000000
vt 0.000000 0.000000
vt 0.000000 0.000000
vt 0.000000 0.000000
vt 0.000000 0.000000
vt 0.000000 0.000000
vt 0.000000 0.000000
vt 0.000000 0.000000
vt 0.000000 0.000000
vt 0.000000 0.000000
vt 0.000000 0.000000
vt 0.000000 0.000000
vt 0.000000 0.000000
vt 0.000000 0.000000
vt 0.000000 0.000000
vt 0.000000 0.000000
vt 0.000000 0.000000
vt 0.000000 0.000000
vt 0.000000 0.000000
vt 0.000000 0.000000
vt 0.000000 0.000000
vt 0.000000 0.000000
vt 0.000000 0.000000
vt 0.000000 0.000000
vt 0.000000 0.000000
vt 0.000000 0.000000
vt 0.000000 0.000000
vt 0.000000 0.000000
vt 0.000000 0.000000
vt 0.000000 0.000000
vt 0.000000 0.000000
vt 0.000000 0.000000
vt 0.000000 0.000000
vt 0.000000 0.000000
vt 0.000000 0.000000
vt 0.000000 0.000000
vt 0.000000 0.000000
vt 0.000000 0.000000
vt 0.000000 0.000000
vt 0.000000 0.000000
vt 0.000000 0.000000
vt 0.000000 0.000000
vt 0.000000 0.000000
vt 0.000000 0.000000
vt 0.000000 0.000000
vt 0.000000 0.000000
vt 0.000000 0.000000
vt 0.000000 0.000000
vt 0.000000 0.000000
vt 0.000000 0.000000
vt 0.000000 0.000000
vt 0.000000 0.000000
vt 0.000000 0.000000
vt 0.000000 0.000000
vt 0.000000 0.000000
vt 0.000000 0.000000
vt 0.000000 0.000000
vt 0.000000 0.000000
vt 0.000000 0.000000
vt 0.000000 0.000000
vt 0.000000 0.000000
vt 0.000000 0.000000
vt 0.000000 0.000000
vt 0.000000 0.000000
vt 0.000000 0.000000
vt 0.000000 0.000000
vt 0.000000 0.000000
vt 0.000000 0.000000
vt 0.000000 0.000000
vt 0.000000 0.000000
vt 0.000000 0.000000
vt 0.000000 0.000000
vt 0.000000 0.000000
vt 0.000000 0.000000
vt 0.000000 0.000000
vt 0.000000 0.000000
vt 0.000000 0.000000
vt 0.000000 0.000000
vt 0.000000 0.000000
vt 0.000000 0.000000
vt 0.000000 0.000000
vt 0.000000 0.000000
vt 0.000000 0.000000
vt 0.000000 0.000000
vt 0.000000 0.000000
vt 0.000000 0.000000
vt 0.000000 0.000000
vt 0.000000 0.000000
vt 0.000000 0.000000
vt 0.000000 0.000000
vt 0.000000 0.000000
vt 0.000000 0.000000
vt 0.000000 0.000000
vt 0.000000 0.000000
vt 0.000000 0.000000
vt 0.000000 0.000000
vt 0.000000 0.000000
vt 0.000000 0.000000
vt 0.000000 0.000000
vt 0.000000 0.000000
vt 0.000000 0.000000
vt 0.000000 0.000000
vt 0.000000 0.000000
vt 0.000000 0.000000
vt 0.000000 0.000000
vt 0.000000 0.000000
vt 0.000000 0.000000
vt 0.000000 0.000000
vt 0.000000 0.000000
vt 0.000000 0.000000
vt 0.000000 0.000000
vt 0.000000 0.000000
vt 0.000000 0.000000
vt 0.000000 0.000000
vt 0.000000 0.000000
vt 0.000000 0.000000
vt 0.000000 0.000000
vt 0.000000 0.000000
vt 0.000000 0.000000
vt 0.000000 0.000000
vt 0.000000 0.000000
vt 0.000000 0.000000
vt 0.000000 0.000000
vt 0.000000 0.000000
vt 0.000000 0.000000
vt 0.000000 0.000000
vt 0.000000 0.000000
vt 0.000000 0.000000
vt 0.000000 0.000000
vt 0.000000 0.000000
vt 0.000000 0.000000
vt 0.000000 0.000000
vt 0.000000 0.000000
vt 0.000000 0.000000
vt 0.000000 0.000000
vt 0.000000 0.000000
vt 0.000000 0.000000
vt 0.000000 0.000000
vt 0.000000 0.000000
vt 0.000000 0.000000
vt 0.000000 0.000000
vt 0.000000 0.000000
vt 0.000000 0.000000
vt 0.000000 0.000000
vt 0.000000 0.000000
vt 0.000000 0.000000
vt 0.000000 0.000000
vt 0.000000 0.000000
vt 0.000000 0.000000
vt 0.000000 0.000000
vt 0.000000 0.000000
vt 0.000000 0.000000
vt 0.000000 0.000000
vt 0.000000 0.000000
vt 0.000000 0.000000
vt 0.000000 0.000000
vt 0.000000 0.000000
vt 0.000000 0.000000
vt 0.000000 0.000000
vt 0.000000 0.000000
vt 0.000000 0.000000
vt 0.000000 0.000000
vt 0.000000 0.000000
vt 0.000000 0.000000
vt 0.000000 0.000000
vt 0.000000 0.000000
vt 0.000000 0.000000
vt 0.000000 0.000000
vt 0.000000 0.000000
vt 0.000000 0.000000
vt 0.000000 0.000000
vt 0.000000 0.000000
vt 0.000000 0.000000
vt 0.000000 0.000000
vt 0.000000 0.000000
vt 0.000000 0.000000
vt 0.000000 0.000000
vt 0.000000 0.000000
vt 0.000000 0.000000
vt 0.000000 0.000000
vt 0.000000 0.000000
vt 0.000000 0.000000
vt 0.000000 0.000000
vt 0.000000 0.000000
vt 0.000000 0.000000
vt 0.000000 0.000000
vt 0.000000 0.000000
vt 0.000000 0.000000
vt 0.000000 0.000000
vt 0.000000 0.000000
vt 0.000000 0.000000
vt 0.000000 0.000000
vt 0.000000 0.000000
vt 0.000000 0.000000
vt 0.000000 0.000000
vt 0.000000 0.000000
vt 0.000000 0.000000
vt 0.000000 0.000000
vt 0.000000 0.000000
vt 0.000000 0.000000
vt 0.000000 0.000000
vt 0.000000 0.000000
vt 0.000000 0.000000
vt 0.000000 0.000000
vt 0.000000 0.000000
vt 0.000000 0.000000
vt 0.000000 0.000000
vt 0.000000 0.000000
vt 0.000000 0.000000
vt 0.000000 0.000000
vt 0.000000 0.000000
vt 0.000000 0.000000
vt 0.000000 0.000000
vt 0.000000 0.000000
vt 0.000000 0.000000
vt 0.000000 0.000000
vt 0.000000 0.000000
vt 0.000000 0.000000
vt 0.000000 0.000000
vt 0.000000 0.000000
vt 0.000000 0.000000
vt 0.000000 0.000000
vt 0.000000 0.000000
vt 0.000000 0.000000
vt 0.000000 0.000000
vt 0.000000 0.000000
vt 0.000000 0.000000
vt 0.000000 0.000000
vt 0.000000 0.000000
vt 0.000000 0.000000
vt 0.000000 0.000000
vt 0.000000 0.000000
vt 0.000000 0.000000
vt 0.000000 0.000000
vt 0.000000 0.000000
vt 0.000000 0.000000
vt 0.000000 0.000000
vt 0.000000 0.000000
vt 0.000000 0.000000
vt 0.000000 0.000000
vt 0.000000 0.000000
vt 0.000000 0.000000
vt 0.000000 0.000000
vt 0.000000 0.000000
vt 0.000000 0.000000
vt 0.000000 0.000000
vt 0.000000 0.000000
vt 0.000000 0.000000
vt 0.000000 0.000000
vt 0.000000 0.000000
vt 0.000000 0.000000
vt 0.000000 0.000000
vt 0.000000 0.000000
vt 0.000000 0.000000
vt 0.000000 0.000000
vt 0.000000 0.000000
vt 0.000000 0.000000
vt 0.000000 0.000000
vt 0.000000 0.000000
vt 0.000000 0.000000
vt 0.000000 0.000000
vt 0.000000 0.000000
vt 0.000000 0.000000
vt 0.000000 0.000000
vt 0.000000 0.000000
vt 0.000000 0.000000
vt 0.000000 0.000000
vt 0.000000 0.000000
vt 0.000000 0.000000
vt 0.000000 0.000000
vt 0.000000 0.000000
vt 0.000000 0.000000
vt 0.000000 0.000000
vt 0.000000 0.000000
vt 0.000000 0.000000
vt 0.000000 0.000000
vt 0.000000 0.000000
vt 0.000000 0.000000
vt 0.000000 0.000000
vt 0.000000 0.000000
vt 0.000000 0.000000
vt 0.000000 0.000000
vt 0.000000 0.000000
vt 0.000000 0.000000
vt 0.000000 0.000000
vt 0.000000 0.000000
vt 0.000000 0.000000
vt 0.000000 0.000000
vt 0.000000 0.000000
vt 0.000000 0.000000
vt 0.000000 0.000000
vt 0.000000 0.000000
vt 0.000000 0.000000
vt 0.000000 0.000000
vt 0.000000 0.000000
vt 0.000000 0.000000
vt 0.000000 0.000000
vt 0.000000 0.000000
vt 0.000000 0.000000
vt 0.000000 0.000000
vt 0.000000 0.000000
vt 0.000000 0.000000
vt 0.000000 0.000000
vt 0.000000 0.000000
vt 0.000000 0.000000
vt 0.000000 0.000000
vt 0.000000 0.000000
vt 0.000000 0.000000
vt 0.000000 0.000000
vt 0.000000 0.000000
vt 0.000000 0.000000
vt 0.000000 0.000000
vt 0.000000 0.000000
vt 0.000000 0.000000
vt 0.000000 0.000000
vt 0.000000 0.000000
vt 0.000000 0.000000
vt 0.000000 0.000000
vt 0.000000 0.000000
vt 0.000000 0.000000
vt 0.000000 0.000000
vt 0.000000 0.000000
vt 0.000000 0.000000
vt 0.000000 0.000000
vt 0.000000 0.000000
vt 0.000000 0.000000
vt 0.000000 0.000000
vt 0.000000 0.000000
vt 0.000000 0.000000
vt 0.000000 0.000000
vt 0.000000 0.000000
vt 0.000000 0.000000
vt 0.000000 0.000000
vt 0.000000 0.000000
vt 0.000000 0.000000
vt 0.000000 0.000000
vt 0.000000 0.000000
vt 0.000000 0.000000
vt 0.000000 0.000000
vt 0.000000 0.000000
vt 0.000000 0.000000
vt 0.000000 0.000000
vt 0.000000 0.000000
vt 0.000000 0.000000
vt 0.000000 0.000000
vt 0.000000 0.000000
vt 0.000000 0.000000
vt 0.000000 0.000000
vt 0.000000 0.000000
vt 0.000000 0.000000
vt 0.000000 0.000000
vt 0.000000 0.000000
vt 0.000000 0.000000
vt 0.000000 0.000000
vt 0.000000 0.000000
vt 0.000000 0.000000
vt 0.000000 0.000000
vt 0.000000 0.000000
vt 0.000000 0.000000
vt 0.000000 0.000000
vt 0.000000 0.000000
vt 0.000000 0.000000
vt 0.000000 0.000000
vt 0.000000 0.000000
vt 0.000000 0.000000
vt 0.000000 0.000000
vt 0.000000 0.000000
vt 0.000000 0.000000
vt 0.000000 0.000000
vt 0.000000 0.000000
vt 0.000000 0.000000
vt 0.000000 0.000000
vt 0.000000 0.000000
vt 0.000000 0.000000
vt 0.000000 0.000000
vt 0.000000 0.000000
vt 0.000000 0.000000
vt 0.000000 0.000000
vt 0.000000 0.000000
vt 0.000000 0.000000
vt 0.000000 0.000000
vt 0.000000 0.000000
vt 0.000000 0.000000
vt 0.000000 0.000000
vt 0.000000 0.000000
vt 0.000000 0.000000
vt 0.000000 0.000000
vt 0.000000 0.000000
vt 0.000000 0.000000
vt 0.000000 0.000000
vt 0.000000 0.000000
vt 0.000000 0.000000
vt 0.000000 0.000000
vt 0.000000 0.000000
vt 0.000000 0.000000
vt 0.000000 0.000000
vt 0.000000 0.000000
vt 0.000000 0.000000
vt 0.000000 0.000000
vt 0.000000 0.000000
vt 0.000000 0.000000
vt 0.000000 0.000000
vt 0.000000 0.000000
vt 0.000000 0.000000
vt 0.000000 0.000000
vt 0.000000 0.000000
vt 0.000000 0.000000
vt 0.000000 0.000000
vt 0.000000 0.000000
vt 0.000000 0.000000
vt 0.000000 0.000000
vt 0.000000 0.000000
vt 0.000000 0.000000
vt 0.000000 0.000000
vt 0.000000 0.000000
vt 0.000000 0.000000
vt 0.000000 0.000000
vt 0.000000 0.000000
vt 0.000000 0.000000
vt 0.000000 0.000000
vt 0.000000 0.000000
vt 0.000000 0.000000
vt 0.000000 0.000000
vt 0.000000 0.000000
vt 0.000000 0.000000
vt 0.000000 0.000000
vt 0.000000 0.000000
vt 0.000000 0.000000
vt 0.000000 0.000000
vt 0.000000 0.000000
vt 0.000000 0.000000
vt 0.000000 0.000000
vt 0.000000 0.000000
vt 0.000000 0.000000
vt 0.000000 0.000000
vt 0.000000 0.000000
vt 0.000000 0.000000
vt 0.000000 0.000000
vt 0.000000 0.000000
vt 0.000000 0.000000
vt 0.000000 0.000000
vt 0.000000 0.000000
vt 0.000000 0.000000
vt 0.000000 0.000000
vt 0.000000 0.000000
vt 0.000000 0.000000
vt 0.000000 0.000000
vt 0.000000 0.000000
vt 0.000000 0.000000
vt 0.000000 0.000000
vt 0.000000 0.000000
vt 0.000000 0.000000
vt 0.000000 0.000000
vt 0.000000 0.000000
vt 0.000000 0.000000
vt 0.000000 0.000000
vt 0.000000 0.000000
vt 0.000000 0.000000
vt 0.000000 0.000000
vt 0.000000 0.000000
vt 0.000000 0.000000
vt 0.000000 0.000000
vt 0.000000 0.000000
vt 0.000000 0.000000
vt 0.000000 0.000000
vt 0.000000 0.000000
vt 0.000000 0.000000
vt 0.000000 0.000000
vt 0.000000 0.000000
vt 0.000000 0.000000
vt 0.000000 0.000000
vt 0.000000 0.000000
vt 0.000000 0.000000
vt 0.000000 0.000000
vt 0.000000 0.000000
vt 0.000000 0.000000
vt 0.000000 0.000000
vt 0.000000 0.000000
vt 0.000000 0.000000
vt 0.000000 0.000000
vt 0.000000 0.000000
vt 0.000000 0.000000
vt 0.000000 0.000000
vt 0.000000 0.000000
vt 0.000000 0.000000
vt 0.000000 0.000000
vt 0.000000 0.000000
vt 0.000000 0.000000
vt 0.000000 0.000000
vt 0.000000 0.000000
vt 0.000000 0.000000
vt 0.000000 0.000000
vt 0.000000 0.000000
vt 0.000000 0.000000
vt 0.000000 0.000000
vt 0.000000 0.000000
vt 0.000000 0.000000
vt 0.000000 0.000000
vt 0.000000 0.000000
vt 0.000000 0.000000
vt 0.000000 0.000000
vt 0.000000 0.000000
vt 0.000000 0.000000
vt 0.000000 0.000000
vt 0.000000 0.000000
vt 0.000000 0.000000
vt 0.000000 0.000000
vt 0.000000 0.000000
vt 0.000000 0.000000
vt 0.000000 0.000000
vt 0.000000 0.000000
vt 0.000000 0.000000
vt 0.000000 0.000000
vt 0.000000 0.000000
vt 0.000000 0.000000
vt 0.000000 0.000000
vt 0.000000 0.000000
vt 0.000000 0.000000
vt 0.000000 0.000000
vt 0.000000 0.000000
vt 0.000000 0.000000
vt 0.000000 0.000000
vt 0.000000 0.000000
vt 0.000000 0.000000
vt 0.000000 0.000000
vt 0.000000 0.000000
vt 0.000000 0.000000
vt 0.000000 0.000000
vt 0.000000 0.000000
vt 0.000000 0.000000
vt 0.000000 0.000000
vt 0.000000 0.000000
vt 0.000000 0.000000
vt 0.000000 0.000000
vt 0.000000 0.000000
vt 0.000000 0.000000
vt 0.000000 0.000000
vt 0.000000 0.000000
vt 0.000000 0.000000
vt 0.000000 0.000000
vt 0.000000 0.000000
vt 0.000000 0.000000
vt 0.000000 0.000000
vt 0.000000 0.000000
vt 0.000000 0.000000
vt 0.000000 0.000000
vt 0.000000 0.000000
vt 0.000000 0.000000
vt 0.000000 0.000000
vt 0.000000 0.000000
vt 0.000000 0.000000
vt 0.000000 0.000000
vt 0.000000 0.000000
vt 0.000000 0.000000
vt 0.000000 0.000000
vt 0.000000 0.000000
vt 0.000000 0.000000
vt 0.000000 0.000000
vt 0.000000 0.000000
vt 0.000000 0.000000
vt 0.000000 0.000000
vt 0.000000 0.000000
vt 0.000000 0.000000
vt 0.000000 0.000000
vt 0.000000 0.000000
vt 0.000000 0.000000
vt 0.000000 0.000000
f 1/1 2/2 3/3
f 3/4 4/5 1/6
f 5/7 2/8 6/9
f 1/10 6/11 2/12
f 5/13 6/14 7/15
f 5/16 7/17 8/18
f 9/19 8/20 7/21
f 9/22 7/23 10/24
f 11/25 12/26 13/27
f 10/28 12/29 14/30
f 11/31 14/32 12/33
f 9/34 10/35 14/36
f 15/37 16/38 17/39
f 17/40 18/41 15/42
f 18/43 17/44 19/45
f 19/46 20/47 18/48
f 20/49 19/50 3/51
f 4/52 3/53 19/54
f 21/55 22/56 5/57
f 23/58 21/59 24/60
f 21/61 5/62 24/63
f 25/64 24/65 8/66
f 3/67 2/68 22/69
f 20/70 3/71 22/72
f 18/73 26/74 27/75
f 18/76 27/77 15/78
f 28/79 20/80 29/81
f 22/82 29/83 20/84
f 26/85 18/86 28/87
f 20/88 28/89 18/90
f 14/91 11/92 30/93
f 9/94 14/95 30/96
f 24/97 5/98 8/99
f 8/100 9/101 25/102
f 5/103 22/104 2/105
f 30/106 25/107 9/108
f 12/109 31/110 13/111
f 10/112 31/113 12/114
f 32/115 7/116 6/117
f 33/118 6/119 1/120
f 34/121 10/122 7/123
f 34/124 31/125 10/126
f 32/127 6/128 35/129
f 34/130 7/131 32/132
f 4/133 33/134 1/135
f 6/136 33/137 35/138
f 36/139 32/140 35/141
f 19/142 33/143 4/144
f 33/145 19/146 37/147
f 37/148 19/149 38/150
f 38/151 19/152 17/153
f 17/154 39/155 38/156
f 17/157 16/158 40/159
f 17/160 40/161 39/162
f 30/163 11/164 31/165
f 13/166 31/167 11/168
f 30/169 31/170 34/171
f 30/172 34/173 25/174
f 32/175 25/176 34/177
f 24/178 25/179 32/180
f 23/181 36/182 35/183
f 24/184 36/185 23/186
f 21/187 23/188 35/189
f 32/190 36/191 24/192
f 29/193 37/194 38/195
f 29/196 38/197 28/198
f 39/199 28/200 38/201
f 26/202 28/203 39/204
f 27/205 40/206 16/207
f 40/208 27/209 26/210
f 16/211 15/212 27/213
f 39/214 40/215 26/216
f 21/217 35/218 22/219
f 33/220 22/221 35/222
f 29/223 33/224 37/225
f 22/226 33/227 29/228
f 41/229 42/230 43/231
f 44/232 45/233 42/234
f 42/235 41/236 46/237
f 46/238 44/239 42/240
f 45/241 44/242 47/243
f 44/244 48/245 47/246
f 49/247 45/248 47/249
f 50/250 51/251 52/252
f 52/253 53/254 54/255
f 55/256 56/257 50/258
f 52/259 55/260 50/261
f 57/262 53/263 58/264
f 43/265 42/266 58/267
f 55/268 52/269 54/270
f 57/271 58/272 42/273
f 54/274 53/275 57/276
f 59/277 60/278 61/279
f 62/280 63/281 59/282
f 64/283 65/284 66/285
f 67/286 64/287 66/288
f 64/289 67/290 68/291
f 67/292 63/293 62/294
f 59/295 61/296 62/297
f 60/298 69/299 61/300
f 67/301 66/302 63/303
f 60/304 70/305 71/306
f 72/307 60/308 73/309
f 74/310 73/311 75/312
f 72/313 74/314 76/315
f 73/316 74/317 72/318
f 72/319 70/320 60/321
f 71/322 69/323 60/324
f 65/325 56/326 55/327
f 55/328 66/329 65/330
f 66/331 55/332 54/333
f 54/334 63/335 66/336
f 59/337 54/338 57/339
f 54/340 59/341 63/342
f 68/343 51/344 50/345
f 64/346 68/347 50/348
f 65/349 64/350 56/351
f 50/352 56/353 64/354
f 71/355 70/356 46/357
f 72/358 76/359 48/360
f 44/361 72/362 48/363
f 72/364 44/365 70/366
f 46/367 70/368 44/369
f 41/370 71/371 46/372
f 62/373 53/374 52/375
f 52/376 67/377 62/378
f 51/379 68/380 67/381
f 67/382 52/383 51/384
f 53/385 62/386 58/387
f 58/388 62/389 61/390
f 58/391 61/392 43/393
f 61/394 69/395 43/396
f 71/397 41/398 69/399
f 69/400 41/401 43/402
f 75/403 49/404 47/405
f 47/406 74/407 75/408
f 48/409 76/410 74/411
f 74/412 47/413 48/414
f 45/415 60/416 42/417
f 73/418 45/419 49/420
f 49/421 75/422 73/423
f 60/424 45/425 73/426
f 60/427 59/428 42/429
f 57/430 42/431 59/432
f 77/433 78/434 79/435
f 79/436 80/437 77/438
f 81/439 77/440 82/441
f 81/442 78/443 77/444
f 81/445 83/446 78/447
f 84/448 85/449 86/450
f 85/451 87/452 79/453
f 86/454 88/455 89/456
f 90/457 88/458 86/459
f 85/460 79/461 86/462
f 90/463 91/464 88/465
f 92/466 88/467 91/468
f 93/469 91/470 90/471
f 84/472 86/473 89/474
f 79/475 87/476 80/477
f 94/478 95/479 96/480
f 96/481 97/482 94/483
f 98/484 94/485 99/486
f 95/487 94/488 98/489
f 98/490 100/491 95/492
f 101/493 102/494 103/495
f 104/496 103/497 102/498
f 105/499 101/500 103/501
f 106/502 107/503 102/504
f 108/505 106/506 97/507
f 101/508 106/509 102/510
f 109/511 107/512 106/513
f 106/514 108/515 109/516
f 108/517 97/518 96/519
f 101/520 105/521 93/522
f 90/523 101/524 93/525
f 86/526 106/527 90/528
f 106/529 101/530 90/531
f 104/532 92/533 91/534
f 91/535 103/536 104/537
f 93/538 105/539 103/540
f 103/541 91/542 93/543
f 102/544 107/545 88/546
f 89/547 88/548 107/549
f 102/550 92/551 104/552
f 88/553 92/554 102/555
f 84/556 107/557 109/558
f 84/559 89/560 107/561
f 109/562 108/563 85/564
f 84/565 109/566 85/567
f 87/568 108/569 96/570
f 85/571 108/572 87/573
f 96/574 80/575 87/576
f 82/577 77/578 95/579
f 95/580 100/581 82/582
f 96/583 95/584 77/585
f 77/586 80/587 96/588
f 99/589 83/590 98/591
f 81/592 98/593 83/594
f 100/595 81/596 82/597
f 98/598 81/599 100/600
f 94/601 97/602 79/603
f 83/604 99/605 94/606
f 94/607 78/608 83/609
f 79/610 78/611 94/612
f 106/613 86/614 97/615
f 79/616 97/617 86/618
f 110/619 111/620 112/621
f 113/622 112/623 111/624
f 110/625 112/626 114/627
f 114/628 115/629 110/630
f 116/631 115/632 114/633
f 117/634 118/635 116/636
f 116/637 119/638 117/639
f 114/640 119/641 116/642
f 120/643 121/644 122/645
f 122/646 123/647 120/648
f 124/649 122/650 121/651
f 121/652 125/653 124/654
f 118/655 117/656 126/657
f 127/658 128/659 129/660
f 130/661 126/662 128/663
f 130/664 118/665 126/666
f 127/667 129/668 131/669
f 128/670 127/671 130/672
f 132/673 131/674 133/675
f 133/676 131/677 129/678
f 134/679 135/680 136/681
f 137/682 138/683 120/684
f 139/685 136/686 138/687
f 134/688 132/689 135/690
f 134/691 136/692 139/693
f 139/694 138/695 137/696
f 120/697 123/698 137/699
f 133/700 135/701 132/702
f 124/703 125/704 140/705
f 141/706 140/707 125/708
f 142/709 141/710 143/711
f 140/712 141/713 142/714
f 144/715 145/716 146/717
f 146/718 145/719 147/720
f 144/721 146/722 148/723
f 148/724 146/725 149/726
f 150/727 151/728 152/729
f 153/730 151/731 150/732
f 149/733 150/734 152/735
f 149/736 152/737 148/738
f 142/739 143/740 154/741
f 154/742 155/743 142/744
f 155/745 154/746 151/747
f 151/748 153/749 155/750
f 156/751 147/752 145/753
f 157/754 158/755 156/756
f 156/757 159/758 157/759
f 145/760 159/761 156/762
f 158/763 157/764 160/765
f 160/766 161/767 158/768
f 161/769 160/770 162/771
f 162/772 163/773 161/774
f 163/775 162/776 164/777
f 164/778 165/779 163/780
f 165/781 164/782 166/783
f 166/784 167/785 165/786
f 168/787 169/788 170/789
f 171/790 172/791 168/792
f 168/793 173/794 171/795
f 170/796 173/797 168/798
f 170/799 169/800 174/801
f 174/802 169/803 175/804
f 174/805 175/806 176/807
f 177/808 176/809 175/810
f 176/811 177/812 178/813
f 178/814 177/815 179/816
f 166/817 178/818 179/819
f 166/820 179/821 167/822
f 172/823 171/824 180/825
f 181/826 180/827 171/828
f 182/829 181/830 183/831
f 180/832 181/833 182/834
f 184/835 185/836 186/837
f 187/838 184/839 188/840
f 188/841 189/842 190/843
f 187/844 185/845 184/846
f 190/847 189/848 191/849
f 188/850 190/851 187/852
f 192/853 191/854 193/855
f 193/856 191/857 189/858
f 194/859 195/860 196/861
f 197/862 198/863 194/864
f 199/865 200/866 197/867
f 196/868 195/869 192/870
f 197/871 200/872 198/873
f 199/874 201/875 200/876
f 198/877 195/878 194/879
f 193/880 196/881 192/882
f 183/883 202/884 203/885
f 203/886 182/887 183/888
f 185/889 203/890 202/891
f 202/892 186/893 185/894
f 204/895 201/896 199/897
f 199/898 205/899 204/900
f 205/901 206/902 207/903
f 207/904 204/905 205/906
f 207/907 206/908 208/909
f 209/910 208/911 206/912
f 210/913 209/914 211/915
f 208/916 209/917 210/918
f 210/919 211/920 212/921
f 212/922 213/923 210/924
f 214/925 215/926 213/927
f 213/928 212/929 214/930
f 215/931 214/932 216/933
f 216/934 217/935 215/936
f 217/937 216/938 218/939
f 218/940 219/941 217/942
f 218/943 220/944 219/945
f 220/946 221/947 219/948
f 222/949 223/950 224/951
f 222/952 225/953 223/954
f 224/955 223/956 226/957
f 225/958 227/959 223/960
f 224/961 226/962 228/963
f 229/964 228/965 230/966
f 230/967 231/968 229/969
f 228/970 226/971 230/972
f 220/973 232/974 221/975
f 232/976 220/977 233/978
f 234/979 235/980 236/981
f 237/982 234/983 238/984
f 236/985 239/986 240/987
f 241/988 242/989 233/990
f 240/991 243/992 241/993
f 244/994 238/995 245/996
f 246/997 247/998 248/999
f 249/1000 246/1001 250/1002
f 251/1003 252/1004 250/1005
f 253/1006 254/1007 255/1008
f 256/1009 257/1010 258/1011
f 259/1012 253/1013 257/1014
f 260/1015 251/1016 255/1017
f 245/1018 248/1019 247/1020
f 261/1021 262/1022 258/1023
f 241/1024 243/1025 242/1026
f 243/1027 240/1028 239/1029
f 235/1030 239/1031 236/1032
f 234/1033 237/1034 235/1035
f 242/1036 232/1037 233/1038
f 244/1039 237/1040 238/1041
f 250/1042 252/1043 249/1044
f 244/1045 245/1046 247/1047
f 255/1048 254/1049 260/1050
f 257/1051 256/1052 259/1053
f 258/1054 262/1055 256/1056
f 259/1057 254/1058 253/1059
f 260/1060 252/1061 251/1062
f 247/1063 246/1064 249/1065
f 262/1066 261/1067 263/1068
f 264/1069 265/1070 266/1071
f 267/1072 268/1073 269/1074
f 270/1075 266/1076 268/1077
f 271/1078 272/1079 273/1080
f 274/1081 275/1082 276/1083
f 277/1084 273/1085 276/1086
f 278/1087 269/1088 272/1089
f 279/1090 280/1091 281/1092
f 229/1093 231/1094 282/1095
f 283/1096 279/1097 282/1098
f 284/1099 274/1100 281/1101
f 266/1102 270/1103 264/1104
f 267/1105 269/1106 278/1107
f 268/1108 267/1109 270/1110
f 277/1111 276/1112 275/1113
f 273/1114 277/1115 271/1116
f 272/1117 271/1118 278/1119
f 264/1120 263/1121 265/1122
f 274/1123 284/1124 275/1125
f 285/1126 284/1127 281/1128
f 285/1129 281/1130 280/1131
f 280/1132 279/1133 283/1134
f 231/1135 283/1136 282/1137
f 261/1138 265/1139 263/1140
f 225/1141 286/1142 227/1143
f 225/1144 287/1145 286/1146
f 288/1147 289/1148 290/1149
f 290/1150 291/1151 288/1152
f 292/1153 290/1154 289/1155
f 289/1156 293/1157 292/1158
f 294/1159 295/1160 288/1161
f 294/1162 288/1163 291/1164
f 296/1165 297/1166 295/1167
f 294/1168 296/1169 295/1170
f 298/1171 299/1172 300/1173
f 300/1174 301/1175 298/1176
f 298/1177 301/1178 297/1179
f 298/1180 297/1181 296/1182
f 300/1183 299/1184 287/1185
f 287/1186 299/1187 286/1188
f 302/1189 292/1190 293/1191
f 303/1192 302/1193 293/1194
f 302/1195 303/1196 304/1197
f 305/1198 304/1199 303/1200
f 306/1201 304/1202 305/1203
f 305/1204 307/1205 306/1206
f 113/1207 111/1208 306/1209
f 307/1210 113/1211 306/1212
f 308/1213 309/1214 310/1215
f 311/1216 312/1217 313/1218
f 314/1219 310/1220 312/1221
f 314/1222 308/1223 310/1224
f 311/1225 313/1226 315/1227
f 312/1228 311/1229 314/1230
f 316/1231 315/1232 317/1233
f 317/1234 315/1235 313/1236
f 318/1237 319/1238 320/1239
f 321/1240 322/1241 323/1242
f 324/1243 320/1244 322/1245
f 318/1246 316/1247 319/1248
f 318/1249 320/1250 324/1251
f 324/1252 322/1253 321/1254
f 323/1255 325/1256 321/1257
f 317/1258 319/1259 316/1260
f 326/1261 327/1262 328/1263
f 328/1264 327/1265 329/1266
f 330/1267 331/1268 329/1269
f 330/1270 332/1271 331/1272
f 327/1273 330/1274 329/1275
f 333/1276 334/1277 335/1278
f 335/1279 336/1280 333/1281
f 337/1282 338/1283 333/1284
f 333/1285 336/1286 337/1287
f 332/1288 335/1289 334/1290
f 332/1291 334/1292 331/1293
f 325/1294 323/1295 338/1296
f 338/1297 337/1298 325/1299
f 308/1300 339/1301 309/1302
f 339/1303 308/1304 326/1305
f 328/1306 339/1307 326/1308
f 340/1309 341/1310 342/1311
f 343/1312 342/1313 341/1314
f 343/1315 344/1316 345/1317
f 345/1318 342/1319 343/1320
f 345/1321 344/1322 346/1323
f 346/1324 347/1325 345/1326
f 115/1327 219/1328 286/1329
f 286/1330 299/1331 110/1332
f 132/1333 134/1334 140/1335
f 131/1336 132/1337 150/1338
f 140/1339 134/1340 139/1341
f 140/1342 137/1343 123/1344
f 124/1345 140/1346 122/1347
f 123/1348 122/1349 140/1350
f 137/1351 140/1352 139/1353
f 153/1354 132/1355 140/1356
f 140/1357 142/1358 155/1359
f 140/1360 155/1361 153/1362
f 153/1363 150/1364 132/1365
f 150/1366 127/1367 131/1368
f 204/1369 115/1370 116/1371
f 149/1372 146/1373 130/1374
f 150/1375 149/1376 127/1377
f 127/1378 149/1379 130/1380
f 146/1381 147/1382 118/1383
f 116/1384 118/1385 201/1386
f 156/1387 158/1388 161/1389
f 156/1390 165/1391 167/1392
f 167/1393 147/1394 156/1395
f 130/1396 146/1397 118/1398
f 118/1399 147/1400 167/1401
f 110/1402 115/1403 286/1404
f 207/1405 115/1406 204/1407
f 116/1408 201/1409 204/1410
f 207/1411 219/1412 115/1413
f 201/1414 179/1415 200/1416
f 167/1417 179/1418 201/1419
f 198/1420 200/1421 177/1422
f 219/1423 207/1424 217/1425
f 201/1426 118/1427 167/1428
f 163/1429 165/1430 161/1431
f 161/1432 165/1433 156/1434
f 175/1435 169/1436 192/1437
f 175/1438 198/1439 177/1440
f 177/1441 200/1442 179/1443
f 198/1444 175/1445 195/1446
f 208/1447 213/1448 217/1449
f 207/1450 208/1451 217/1452
f 175/1453 192/1454 195/1455
f 217/1456 213/1457 215/1458
f 210/1459 213/1460 208/1461
f 192/1462 169/1463 180/1464
f 191/1465 192/1466 180/1467
f 180/1468 168/1469 172/1470
f 169/1471 168/1472 180/1473
f 180/1474 190/1475 191/1476
f 180/1477 185/1478 187/1479
f 203/1480 180/1481 182/1482
f 185/1483 180/1484 203/1485
f 180/1486 187/1487 190/1488
f 299/1489 298/1490 111/1491
f 110/1492 299/1493 111/1494
f 298/1495 296/1496 111/1497
f 294/1498 302/1499 296/1500
f 302/1501 291/1502 290/1503
f 292/1504 302/1505 290/1506
f 291/1507 302/1508 294/1509
f 302/1510 304/1511 306/1512
f 302/1513 306/1514 111/1515
f 111/1516 296/1517 302/1518
f 280/1519 275/1520 284/1521
f 284/1522 285/1523 280/1524
f 283/1525 275/1526 280/1527
f 278/1528 271/1529 335/1530
f 336/1531 271/1532 277/1533
f 271/1534 336/1535 335/1536
f 275/1537 336/1538 277/1539
f 336/1540 275/1541 283/1542
f 231/1543 336/1544 283/1545
f 336/1546 231/1547 230/1548
f 226/1549 337/1550 230/1551
f 267/1552 278/1553 335/1554
f 332/1555 267/1556 335/1557
f 330/1558 264/1559 270/1560
f 270/1561 332/1562 330/1563
f 270/1564 267/1565 332/1566
f 223/1567 325/1568 337/1569
f 223/1570 337/1571 226/1572
f 221/1573 227/1574 286/1575
f 223/1576 227/1577 325/1578
f 337/1579 336/1580 230/1581
f 346/1582 324/1583 321/1584
f 330/1585 327/1586 263/1587
f 326/1588 263/1589 327/1590
f 264/1591 330/1592 263/1593
f 263/1594 326/1595 262/1596
f 344/1597 311/1598 315/1599
f 256/1600 262/1601 326/1602
f 314/1603 311/1604 343/1605
f 346/1606 316/1607 318/1608
f 316/1609 346/1610 315/1611
f 344/1612 315/1613 346/1614
f 344/1615 343/1616 311/1617
f 326/1618 308/1619 256/1620
f 308/1621 314/1622 341/1623
f 259/1624 256/1625 308/1626
f 314/1627 343/1628 341/1629
f 252/1630 260/1631 348/1632
f 254/1633 349/1634 260/1635
f 252/1636 237/1637 249/1638
f 348/1639 350/1640 243/1641
f 252/1642 235/1643 237/1644
f 260/1645 349/1646 348/1647
f 348/1648 235/1649 252/1650
f 237/1651 244/1652 249/1653
f 247/1654 249/1655 244/1656
f 239/1657 235/1658 348/1659
f 221/1660 232/1661 350/1662
f 219/1663 221/1664 286/1665
f 243/1666 350/1667 242/1668
f 242/1669 350/1670 232/1671
f 239/1672 348/1673 243/1674
f 318/1675 324/1676 346/1677
f 259/1678 308/1679 349/1680
f 349/1681 254/1682 259/1683
f 308/1684 341/1685 349/1686
f 321/1687 325/1688 346/1689
f 346/1690 221/1691 350/1692
f 325/1693 221/1694 346/1695
f 325/1696 227/1697 221/1698
f 347/1699 346/1700 350/1701
f 348/1702 351/1703 352/1704
f 348/1705 352/1706 350/1707
f 350/1708 352/1709 347/1710
f 349/1711 353/1712 351/1713
f 351/1714 348/1715 349/1716
f 309/1717 353/1718 340/1719
f 113/1720 301/1721 300/1722
f 113/1723 300/1724 112/1725
f 295/1726 297/1727 303/1728
f 303/1729 307/1730 305/1731
f 113/1732 307/1733 303/1734
f 303/1735 289/1736 288/1737
f 293/1738 289/1739 303/1740
f 303/1741 288/1742 295/1743
f 113/1744 303/1745 297/1746
f 301/1747 113/1748 297/1749
f 216/1750 214/1751 212/1752
f 211/1753 209/1754 212/1755
f 209/1756 216/1757 212/1758
f 193/1759 174/1760 196/1761
f 193/1762 181/1763 170/1764
f 181/1765 184/1766 186/1767
f 202/1768 181/1769 186/1770
f 181/1771 202/1772 183/1773
f 184/1774 181/1775 188/1776
f 189/1777 181/1778 193/1779
f 171/1780 173/1781 181/1782
f 170/1783 181/1784 173/1785
f 188/1786 181/1787 189/1788
f 197/1789 194/1790 176/1791
f 197/1792 178/1793 199/1794
f 199/1795 178/1796 166/1797
f 164/1798 159/1799 145/1800
f 145/1801 166/1802 164/1803
f 206/1804 216/1805 209/1806
f 114/1807 206/1808 205/1809
f 206/1810 218/1811 216/1812
f 218/1813 206/1814 114/1815
f 166/1816 117/1817 199/1818
f 174/1819 193/1820 170/1821
f 194/1822 174/1823 176/1824
f 162/1825 160/1826 164/1827
f 160/1828 159/1829 164/1830
f 178/1831 197/1832 176/1833
f 119/1834 205/1835 199/1836
f 174/1837 194/1838 196/1839
f 300/1840 287/1841 112/1842
f 218/1843 114/1844 287/1845
f 112/1846 287/1847 114/1848
f 117/1849 119/1850 199/1851
f 144/1852 117/1853 145/1854
f 145/1855 117/1856 166/1857
f 159/1858 160/1859 157/1860
f 144/1861 126/1862 117/1863
f 148/1864 126/1865 144/1866
f 148/1867 128/1868 126/1869
f 152/1870 128/1871 148/1872
f 119/1873 114/1874 205/1875
f 129/1876 152/1877 133/1878
f 141/1879 135/1880 133/1881
f 141/1882 136/1883 135/1884
f 151/1885 133/1886 152/1887
f 141/1888 154/1889 143/1890
f 151/1891 154/1892 141/1893
f 141/1894 120/1895 138/1896
f 125/1897 121/1898 141/1899
f 120/1900 141/1901 121/1902
f 133/1903 151/1904 141/1905
f 136/1906 141/1907 138/1908
f 128/1909 152/1910 129/1911
f 250/1912 351/1913 251/1914
f 246/1915 238/1916 250/1917
f 255/1918 251/1919 353/1920
f 309/1921 257/1922 253/1923
f 340/1924 342/1925 310/1926
f 353/1927 309/1928 255/1929
f 309/1930 340/1931 310/1932
f 255/1933 309/1934 253/1935
f 246/1936 245/1937 238/1938
f 250/1939 234/1940 351/1941
f 248/1942 245/1943 246/1944
f 238/1945 234/1946 250/1947
f 236/1948 351/1949 234/1950
f 352/1951 351/1952 240/1953
f 351/1954 353/1955 251/1956
f 257/1957 309/1958 339/1959
f 312/1960 310/1961 342/1962
f 258/1963 257/1964 339/1965
f 339/1966 328/1967 261/1968
f 329/1969 261/1970 328/1971
f 329/1972 265/1973 261/1974
f 258/1975 339/1976 261/1977
f 313/1978 312/1979 345/1980
f 345/1981 312/1982 342/1983
f 347/1984 319/1985 317/1986
f 220/1987 225/1988 347/1989
f 313/1990 345/1991 347/1992
f 317/1993 313/1994 347/1995
f 347/1996 352/1997 220/1998
f 351/1999 236/2000 240/2001
f 352/2002 240/2003 241/2004
f 287/2005 220/2006 218/2007
f 241/2008 233/2009 352/2010
f 233/2011 220/2012 352/2013
f 320/2014 319/2015 347/2016
f 266/2017 329/2018 331/2019
f 266/2020 265/2021 329/2022
f 268/2023 331/2024 334/2025
f 331/2026 268/2027 266/2028
f 323/2029 347/2030 225/2031
f 220/2032 287/2033 225/2034
f 225/2035 222/2036 323/2037
f 322/2038 347/2039 323/2040
f 222/2041 338/2042 323/2043
f 338/2044 222/2045 224/2046
f 269/2047 334/2048 272/2049
f 272/2050 334/2051 333/2052
f 272/2053 333/2054 273/2055
f 269/2056 268/2057 334/2058
f 282/2059 276/2060 333/2061
f 281/2062 274/2063 279/2064
f 276/2065 279/2066 274/2067
f 273/2068 333/2069 276/2070
f 276/2071 282/2072 279/2073
f 224/2074 228/2075 338/2076
f 333/2077 228/2078 229/2079
f 333/2080 229/2081 282/2082
f 228/2083 333/2084 338/2085
f 320/2086 347/2087 322/2088
f 353/2089 349/2090 341/2091
f 341/2092 340/2093 353/2094
