# USD → MuJoCo (world-space, simplified)
v 0.015153 0.151384 -0.054246
v 0.010496 0.143691 -0.049865
v 0.015781 0.156076 -0.054610
v 0.009029 0.169269 -0.045362
v 0.011090 0.167682 -0.049842
v 0.008882 0.142785 -0.048855
v 0.013987 0.163696 -0.052586
v -0.000000 0.140266 -0.014166
v 0.010177 0.143259 -0.009892
v 0.004883 0.171100 -0.020682
v 0.000000 -0.300732 -0.048355
v 0.000000 -0.309941 -0.048064
v 0.005064 -0.300782 -0.049032
v 0.005068 -0.309074 -0.048850
v 0.009786 -0.309480 -0.050763
v 0.009788 -0.300922 -0.050971
v 0.013834 -0.301146 -0.054083
v 0.013828 -0.310130 -0.053830
v 0.016948 -0.310956 -0.057811
v 0.016960 -0.299687 -0.058159
v 0.018900 -0.307587 -0.062822
v 0.019575 -0.318442 -0.065842
v 0.019575 -0.308480 -0.067849
v 0.016960 -0.313838 -0.077156
v 0.013844 -0.314540 -0.081152
v 0.009802 -0.320327 -0.082982
v 0.009788 -0.313256 -0.084393
v 0.005064 -0.313535 -0.086318
v 0.005071 -0.320835 -0.084870
v 0.000000 -0.313631 -0.086989
v 0.005022 -0.313552 -0.046788
v 0.009722 -0.314851 -0.048243
v 0.013763 -0.316932 -0.050597
v 0.016914 -0.319631 -0.053715
v 0.018902 -0.322390 -0.069483
v 0.016985 -0.326273 -0.072890
v 0.013834 -0.321576 -0.079226
v 0.009829 -0.331672 -0.077912
v 0.005064 -0.328068 -0.081979
v 0.000000 -0.328365 -0.082588
v 0.000000 -0.320542 -0.085659
v 0.018894 -0.316150 -0.061259
v 0.013868 -0.330044 -0.075223
v 0.005075 -0.334747 -0.078070
v 0.000000 -0.334733 -0.078909
v 0.018891 -0.325312 -0.054602
v 0.019576 -0.330603 -0.056396
v 0.018902 -0.331117 -0.063084
v 0.016962 -0.335669 -0.065016
v 0.013849 -0.338641 -0.067773
v 0.009805 -0.340944 -0.069892
v 0.005076 -0.342370 -0.071228
v 0.000000 -0.342537 -0.072052
v 0.000000 -0.314457 -0.044730
v 0.005022 -0.316208 -0.042228
v 0.009748 -0.318088 -0.042753
v 0.013799 -0.321107 -0.043614
v 0.016935 -0.325024 -0.044786
v 0.018905 -0.338158 -0.052495
v 0.016962 -0.340430 -0.058274
v 0.013850 -0.343940 -0.060299
v 0.009788 -0.345272 -0.064070
v 0.005064 -0.346914 -0.065112
v 0.005064 -0.349429 -0.060616
v 0.000000 -0.350039 -0.060914
v 0.000000 -0.347486 -0.065475
v 0.000000 -0.315658 -0.040919
v 0.018895 -0.329782 -0.045035
v 0.016963 -0.343619 -0.050571
v 0.013852 -0.347490 -0.051773
v 0.009834 -0.349807 -0.055102
v 0.005080 -0.352343 -0.053301
v 0.000000 -0.352846 -0.053981
v 0.000000 -0.315858 -0.030983
v 0.018898 -0.330345 -0.034680
v 0.019577 -0.335161 -0.043525
v 0.016945 -0.345098 -0.041615
v 0.013834 -0.348755 -0.045360
v 0.009788 -0.351843 -0.045806
v 0.005064 -0.353769 -0.046084
v 0.005092 -0.354281 -0.035718
v 0.000000 -0.354917 -0.037206
v 0.000000 -0.354440 -0.046181
v 0.005107 -0.316554 -0.031121
v 0.009822 -0.318508 -0.031161
v 0.013824 -0.321552 -0.034963
v 0.016948 -0.325593 -0.035217
v 0.018896 -0.340383 -0.040974
v 0.013848 -0.349214 -0.035382
v 0.009761 -0.352329 -0.036512
v 0.000001 0.140373 -0.048431
v 0.005076 0.141267 -0.049109
v 0.009766 0.141421 -0.051002
v 0.005063 0.313750 -0.086872
v -0.000000 0.313750 -0.087550
v 0.001783 0.314283 -0.048996
v -0.003619 0.314287 -0.049725
v 0.014007 0.314328 -0.056587
v 0.017654 0.314303 -0.061054
v 0.016913 0.314324 -0.075112
v 0.002180 0.314269 -0.086985
v 0.017021 0.161722 -0.057446
v 0.009738 0.170279 -0.051036
v -0.000000 0.171809 -0.048435
v 0.016953 -0.250806 -0.077762
v 0.013834 -0.250806 -0.081808
v 0.009788 0.092295 -0.084927
v 0.005063 0.092295 -0.086872
v -0.000000 0.092295 -0.087550
v 0.009788 0.092295 -0.051021
v 0.016964 0.142025 -0.058234
v 0.017690 0.155039 -0.058734
v 0.018903 0.142367 -0.062961
v 0.018897 0.164302 -0.062909
v 0.016969 0.167317 -0.058241
v 0.010620 0.142670 -0.050898
v 0.013477 0.141293 -0.053793
v 0.013734 0.168803 -0.054085
v 0.010365 0.168773 -0.050659
v 0.016653 0.152324 -0.056862
v 0.014313 0.163818 -0.054495
v 0.005063 0.092293 -0.049077
v -0.000000 0.092292 -0.048399
v 0.008655 0.142407 -0.013496
v 0.004991 0.141086 -0.013648
v 0.013316 0.147574 -0.052648
v 0.005030 0.170917 -0.049104
v -0.013349 0.147619 -0.052699
v -0.011035 0.167778 -0.051050
v -0.009105 0.169179 -0.049076
v -0.008849 0.142769 -0.049008
v -0.015781 0.156061 -0.054081
v -0.013959 0.163736 -0.053172
v -0.005034 0.170939 -0.049106
v -0.004992 0.141086 -0.013630
v -0.010176 0.143259 -0.009892
v -0.004897 0.171087 -0.023615
v -0.008853 0.169470 -0.017253
v -0.005063 -0.300782 -0.049032
v -0.009788 -0.300922 -0.050971
v -0.013834 -0.301146 -0.054083
v -0.016953 -0.301437 -0.058119
v -0.016948 -0.310956 -0.057811
v -0.018897 -0.301777 -0.062831
v -0.019578 -0.309351 -0.067760
v -0.018889 -0.311776 -0.072784
v -0.016941 -0.300805 -0.077718
v -0.016960 -0.313838 -0.077156
v -0.013806 -0.301030 -0.081765
v -0.009743 -0.301198 -0.084877
v -0.009788 -0.313256 -0.084393
v -0.013844 -0.314540 -0.081152
v -0.005063 -0.313535 -0.086318
v -0.005067 -0.309074 -0.048850
v -0.009786 -0.309480 -0.050763
v -0.013828 -0.310130 -0.053830
v -0.013834 -0.321576 -0.079226
v -0.009802 -0.320327 -0.082982
v -0.009829 -0.331672 -0.077912
v -0.005071 -0.320835 -0.084870
v -0.005063 -0.328068 -0.081979
v -0.005042 -0.313151 -0.047072
v -0.009754 -0.314370 -0.048599
v -0.013797 -0.316317 -0.051062
v -0.016932 -0.318826 -0.054301
v -0.018893 -0.314081 -0.062200
v -0.018891 -0.325312 -0.054602
v -0.018902 -0.322390 -0.069483
v -0.016971 -0.324373 -0.073779
v -0.016970 -0.334376 -0.066519
v -0.018902 -0.331117 -0.063084
v -0.013868 -0.330044 -0.075223
v -0.005075 -0.334747 -0.078070
v -0.019575 -0.322745 -0.064117
v -0.009805 -0.340944 -0.069892
v -0.013848 -0.338641 -0.067773
v -0.005076 -0.342370 -0.071228
v -0.019576 -0.332599 -0.052276
v -0.018905 -0.338158 -0.052495
v -0.016986 -0.342458 -0.054480
v -0.013834 -0.342638 -0.062398
v -0.009788 -0.345272 -0.064070
v -0.005063 -0.346914 -0.065112
v -0.005063 -0.349429 -0.060616
v -0.009714 -0.317988 -0.043305
v -0.004993 -0.316139 -0.042687
v -0.016949 -0.323729 -0.048030
v -0.013767 -0.320959 -0.044326
v -0.018895 -0.329782 -0.045035
v -0.009834 -0.349807 -0.055102
v -0.013873 -0.346870 -0.053974
v -0.005080 -0.352343 -0.053301
v -0.009775 -0.318439 -0.034787
v -0.005047 -0.316500 -0.034691
v -0.016943 -0.325516 -0.041551
v -0.013824 -0.321552 -0.034963
v -0.019574 -0.335403 -0.042048
v -0.016953 -0.344749 -0.044780
v -0.018901 -0.340406 -0.040540
v -0.013834 -0.348755 -0.045360
v -0.009788 -0.351843 -0.045806
v -0.005063 -0.353769 -0.046084
v -0.005091 -0.354281 -0.035718
v -0.018898 -0.330345 -0.034680
v -0.016947 -0.345170 -0.035929
v -0.013818 -0.349215 -0.036247
v -0.009761 -0.352329 -0.036512
v -0.009774 0.140510 -0.051007
v -0.005062 0.141264 -0.049102
v -0.019576 0.313750 -0.067974
v -0.018897 0.313750 -0.062910
v -0.016963 0.314253 -0.058206
v -0.016953 0.313750 -0.077762
v -0.013834 0.313750 -0.081808
v -0.009788 0.313801 -0.084927
v -0.005064 0.313750 -0.086872
v -0.007430 0.314328 -0.051518
v -0.015121 0.314291 -0.057258
v -0.006720 0.314299 -0.085775
v -0.014571 0.163689 -0.054786
v -0.013822 0.169080 -0.054161
v -0.017426 0.158137 -0.057976
v -0.009671 0.170274 -0.050996
v -0.016953 0.092295 -0.058186
v -0.016953 0.092295 -0.077762
v -0.018897 0.141791 -0.062915
v -0.018897 0.134660 -0.062911
v -0.018890 0.147382 -0.062858
v -0.016980 0.141590 -0.058285
v -0.018897 0.164665 -0.062924
v -0.016968 0.167351 -0.058243
v -0.013622 0.141018 -0.053946
v -0.015175 0.151397 -0.054309
v -0.010358 0.142433 -0.050669
v -0.016306 0.150715 -0.056535
v -0.016396 0.156355 -0.056411
v -0.015334 0.160538 -0.054690
v -0.005064 0.092293 -0.049077
v -0.008656 0.142407 -0.013488
v -0.010496 0.143691 -0.049860
v -0.011087 0.167685 -0.032091
v 0.015171 0.151395 0.034514
v 0.015332 0.160540 0.034626
v 0.009105 0.169179 0.029291
v 0.008846 0.142761 0.027841
v 0.015783 0.156059 0.035007
v 0.015346 0.160525 -0.054715
v 0.008869 0.169452 0.000862
v 0.004896 0.171087 0.003817
v -0.000000 0.171891 0.005205
v 0.016948 -0.310960 0.038026
v 0.019578 -0.309351 0.047976
v 0.018889 -0.311777 0.052998
v 0.016950 -0.300119 0.057940
v 0.016960 -0.313843 0.057370
v 0.013827 -0.300249 0.061985
v 0.009744 -0.301286 0.065092
v 0.009788 -0.313256 0.064608
v 0.013844 -0.314545 0.061365
v 0.005003 -0.301389 0.067024
v 0.005064 -0.313535 0.066533
v 0.000000 -0.313631 0.067205
v 0.000000 -0.320543 0.065874
v 0.005068 -0.309076 0.029065
v 0.009786 -0.309482 0.030978
v 0.013828 -0.310133 0.034045
v 0.018894 -0.312973 0.042569
v 0.019575 -0.318442 0.046057
v 0.018902 -0.322390 0.049698
v 0.013834 -0.321576 0.059441
v 0.009802 -0.320327 0.063198
v 0.005071 -0.320835 0.065085
v 0.000000 -0.328365 0.062804
v 0.005064 -0.328068 0.062194
v 0.000000 -0.309944 0.028278
v 0.018887 -0.324562 0.035855
v 0.016985 -0.326273 0.053105
v 0.018902 -0.331117 0.043299
v 0.013868 -0.330044 0.055438
v 0.009829 -0.331671 0.058128
v 0.005075 -0.334747 0.058285
v 0.000000 -0.334733 0.059124
v 0.009754 -0.314370 0.028814
v 0.005043 -0.313151 0.027288
v 0.016932 -0.318826 0.034516
v 0.013797 -0.316317 0.031278
v 0.016962 -0.335668 0.045231
v 0.009805 -0.340944 0.050106
v 0.013849 -0.338642 0.047988
v 0.000000 -0.342537 0.052268
v 0.005076 -0.342370 0.051443
v 0.000000 -0.314457 0.024945
v 0.009707 -0.318204 0.023004
v 0.013828 -0.320109 0.026407
v 0.019576 -0.330603 0.036611
v 0.018905 -0.338158 0.032710
v 0.016962 -0.340430 0.038489
v 0.009806 -0.346651 0.042081
v 0.013850 -0.343940 0.040515
v 0.005064 -0.346914 0.045327
v 0.000000 -0.347486 0.045690
v 0.000000 -0.350039 0.041129
v 0.004980 -0.316318 0.022468
v 0.000000 -0.315748 0.020507
v 0.016943 -0.324205 0.027339
v 0.013851 -0.321559 0.020921
v 0.018895 -0.329782 0.025250
v 0.016972 -0.344361 0.028298
v 0.009788 -0.349615 0.035387
v 0.013872 -0.348291 0.029329
v 0.005074 -0.350560 0.038505
v 0.000000 -0.352846 0.034196
v 0.005064 -0.352911 0.031134
v 0.019577 -0.335161 0.023740
v 0.018896 -0.330312 0.015843
v 0.016953 -0.345096 0.018122
v 0.018896 -0.340277 0.022390
v 0.009808 -0.351635 0.028004
v 0.009788 -0.352244 0.018636
v 0.013834 -0.349132 0.018412
v 0.000000 -0.354646 0.024818
v 0.005002 -0.354029 0.024289
v 0.016962 -0.325606 0.019893
v 0.019575 -0.335455 -0.009892
v 0.018897 -0.340488 0.005406
v 0.016953 -0.345212 0.005541
v 0.013834 -0.349258 0.005658
v 0.009788 -0.352377 0.005747
v 0.005064 -0.354322 0.005803
v 0.000000 -0.355000 0.005823
v 0.008489 0.142303 0.029820
v 0.005090 0.140719 0.029331
v -0.000026 0.140059 0.028661
v 0.013113 0.257447 0.034582
v 0.009466 0.257350 0.031645
v 0.018872 0.257354 0.043072
v 0.019566 0.257281 0.048178
v 0.016951 0.257317 0.057970
v 0.018896 0.257094 0.053253
v 0.016954 0.160535 0.037435
v 0.009673 0.170274 0.031212
v 0.018897 0.091869 0.043126
v 0.019576 0.091869 0.048189
v 0.016953 0.091866 0.038402
v 0.018897 -0.252594 0.053253
v 0.013834 -0.252594 0.062023
v 0.005063 0.091869 0.067087
v -0.000000 0.091869 0.067765
v 0.018896 0.142645 0.043140
v 0.016881 0.141290 0.038370
v 0.018897 0.134589 0.043126
v 0.016917 0.134615 0.038367
v 0.018896 0.164287 0.043118
v 0.005063 0.210946 0.067086
v 0.019576 0.096699 0.048189
v 0.018897 0.096699 0.053253
v 0.016928 0.167854 0.038400
v 0.016953 0.096699 0.057977
v 0.013247 0.141246 0.033798
v 0.017230 0.152884 0.037882
v 0.015885 0.149336 0.036340
v 0.017324 0.158229 0.038033
v 0.013758 0.175049 0.034322
v 0.010392 0.142819 0.030833
v 0.004931 0.141280 0.028146
v 0.005034 0.170939 0.029321
v -0.000000 0.171810 0.028651
v -0.000000 -0.105958 0.028614
v -0.000000 0.091861 0.028614
v -0.000000 0.140416 0.027557
v 0.013308 0.147565 0.032859
v 0.010493 0.143693 0.029578
v 0.011098 0.167676 0.030443
v 0.014007 0.163669 0.033450
v 0.013051 0.167833 0.033549
v -0.015178 0.151393 0.034740
v -0.010495 0.143694 0.029583
v -0.015344 0.160524 0.033988
v -0.015780 0.156077 0.034287
v -0.015143 0.151389 -0.009892
v -0.004897 0.171093 0.002796
v -0.005067 -0.309076 0.029065
v -0.009786 -0.309482 0.030978
v -0.013828 -0.310132 0.034045
v -0.016969 -0.310311 0.038231
v -0.018898 -0.311830 0.042968
v -0.019574 -0.314431 0.047912
v -0.016960 -0.313843 0.057370
v -0.013844 -0.314545 0.061365
v -0.009802 -0.320327 0.063197
v -0.009788 -0.313256 0.064608
v -0.005063 -0.313535 0.066533
v -0.005071 -0.320835 0.065085
v -0.018902 -0.322390 0.049698
v -0.013834 -0.321576 0.059441
v -0.013868 -0.330044 0.055438
v -0.005063 -0.328068 0.062194
v -0.005042 -0.313151 0.027287
v -0.009754 -0.314370 0.028814
v -0.013797 -0.316317 0.031278
v -0.016932 -0.318826 0.034516
v -0.016985 -0.326273 0.053105
v -0.009829 -0.331671 0.058128
v -0.005075 -0.334747 0.058285
v -0.018887 -0.324562 0.035855
v -0.018902 -0.331117 0.043299
v -0.016962 -0.335668 0.045231
v -0.013849 -0.338642 0.047988
v -0.009805 -0.340944 0.050106
v -0.005076 -0.342370 0.051443
v -0.004993 -0.316139 0.022902
v -0.009785 -0.317307 0.025016
v -0.013828 -0.320109 0.026407
v -0.016949 -0.323729 0.028245
v -0.018905 -0.338158 0.032710
v -0.016962 -0.340430 0.038489
v -0.013850 -0.343940 0.040515
v -0.009806 -0.346651 0.042081
v -0.005063 -0.346914 0.045327
v -0.005074 -0.350560 0.038505
v -0.009808 -0.318442 0.020496
v -0.013851 -0.321559 0.020921
v -0.016963 -0.325596 0.021481
v -0.019576 -0.330603 0.036611
v -0.009808 -0.351635 0.028004
v -0.009788 -0.349615 0.035387
v -0.005072 -0.316518 0.014211
v -0.018895 -0.330187 0.023787
v -0.019577 -0.335161 0.023740
v -0.018896 -0.340277 0.022390
v -0.016953 -0.345096 0.018122
v -0.016972 -0.344361 0.028298
v -0.013871 -0.348291 0.029329
v -0.013834 -0.349132 0.018412
v -0.009788 -0.352244 0.018636
v -0.005080 -0.353550 0.028410
v -0.005063 -0.354184 0.018775
v -0.018897 -0.340488 0.005406
v -0.016953 -0.345212 0.005541
v -0.013834 -0.349258 0.005658
v -0.009788 -0.352377 0.005747
v -0.005063 -0.354322 0.005803
v -0.009757 0.141424 0.031208
v -0.018897 0.256890 0.053253
v -0.009788 0.256890 0.065142
v -0.000226 0.257426 0.029253
v -0.006672 0.257433 0.030383
v -0.011621 0.257717 0.036606
v -0.016959 0.257307 0.038420
v -0.018634 0.257419 0.051991
v -0.015581 0.257445 0.058173
v -0.015846 0.257647 0.043951
v -0.016556 0.160632 0.037003
v -0.017097 0.162013 0.037760
v -0.018897 0.091868 0.053253
v -0.016953 0.091868 0.057977
v -0.013834 0.091869 0.034356
v -0.016970 0.141973 0.038468
v -0.019576 0.210345 0.048189
v -0.017690 0.155044 0.038950
v -0.018902 0.142770 0.043164
v -0.016952 0.210946 0.057977
v -0.018896 0.164666 0.043138
v -0.016969 0.167321 0.038454
v -0.010447 0.142851 0.030899
v -0.013621 0.141283 0.034153
v -0.016809 0.151651 0.037296
v -0.013734 0.168804 0.034300
v -0.016952 0.210335 0.038404
v -0.011091 0.167694 0.031296
v -0.009739 0.170278 0.031252
v -0.009093 0.169204 0.029324
v -0.016113 0.158368 0.036005
v -0.014024 0.163645 0.033469
v -0.005116 0.140720 0.029343
v -0.005064 0.092503 0.029293
v -0.008849 0.142768 0.029064
v -0.004931 0.141280 0.028146
v -0.013263 0.147504 0.032797
v -0.005034 0.170939 0.029321
v -0.001466 0.342781 -0.052380
v 0.006479 0.342746 -0.053386
v 0.012074 0.342771 -0.057722
v 0.015873 0.342777 -0.068467
v 0.014026 0.342719 -0.076276
v 0.007375 0.342783 -0.082034
v -0.014050 0.342762 -0.075458
v -0.015782 0.342735 -0.063663
v -0.010242 0.342746 -0.055841
v 0.009387 0.285913 0.035332
v -0.000130 0.285923 0.032590
v -0.009204 0.285908 0.035099
v -0.014210 0.285558 0.040084
v -0.015820 0.285536 0.052445
v -0.015802 0.285927 0.046342
v -0.004242 0.285532 0.064020
v -0.010141 0.285921 0.060605
v 0.004459 0.285826 0.063888
v 0.014234 0.285659 0.040050
v 0.015449 0.285933 0.052464
v 0.009787 0.313801 -0.051021
v 0.005065 0.313801 -0.049077
v 0.016951 0.313801 -0.058182
v 0.013824 0.314132 -0.054135
v 0.019575 0.313801 -0.067974
v 0.018897 0.313801 -0.062910
v 0.016953 0.313801 -0.077762
v 0.018897 0.313801 -0.073038
v 0.009789 0.314199 -0.084925
v 0.013834 0.313801 -0.081808
v 0.008204 0.314908 -0.053768
v 0.004245 0.314908 -0.052138
v 0.006399 0.314339 -0.051947
v 0.000029 0.314510 -0.051551
v 0.014214 0.314594 -0.059774
v 0.011594 0.314909 -0.056382
v 0.016417 0.314588 -0.068001
v 0.015841 0.314502 -0.063731
v 0.014206 0.314911 -0.076175
v 0.015840 0.314594 -0.072224
v 0.008203 0.314595 -0.082184
v 0.011593 0.314594 -0.079574
v -0.000007 0.314491 -0.084387
v 0.004219 0.314498 -0.083837
v -0.000000 0.342222 -0.051575
v 0.004242 0.342002 -0.052141
v 0.008200 0.342001 -0.053770
v 0.011590 0.342001 -0.056384
v 0.014201 0.342226 -0.059780
v 0.015819 0.342247 -0.063769
v 0.016396 0.342225 -0.067978
v 0.015827 0.342225 -0.072220
v 0.011584 0.342226 -0.079564
v 0.008162 0.342247 -0.082174
v 0.004242 0.342222 -0.083805
v -0.000001 0.342004 -0.084375
v -0.018997 0.314288 -0.069075
v -0.018897 0.313801 -0.073038
v -0.009789 0.313801 -0.051022
v -0.004242 0.314909 -0.052137
v -0.008203 0.314911 -0.053769
v -0.013833 0.313801 -0.054139
v -0.011593 0.314911 -0.056383
v -0.014207 0.314908 -0.059771
v -0.015840 0.314594 -0.063725
v -0.016412 0.314502 -0.067967
v -0.015863 0.314498 -0.072193
v -0.014205 0.314911 -0.076177
v -0.015016 0.314270 -0.079474
v -0.011597 0.314502 -0.079569
v -0.008212 0.314501 -0.082184
v -0.004250 0.314594 -0.083814
v -0.008162 0.342247 -0.053775
v -0.004242 0.342222 -0.052143
v -0.014202 0.342222 -0.059775
v -0.011589 0.342004 -0.056384
v -0.016396 0.342226 -0.067970
v -0.015831 0.342222 -0.072216
v -0.014199 0.342247 -0.076136
v -0.008201 0.342004 -0.082177
v -0.004141 0.342607 -0.083826
v 0.016951 0.256950 0.038397
v 0.013833 0.257279 0.062018
v 0.009788 0.257216 0.065139
v 0.005008 0.257224 0.067074
v 0.000000 0.257198 0.067763
v -0.000001 0.256889 0.028613
v 0.004756 0.257428 0.029872
v 0.009787 0.256890 0.031237
v -0.000007 0.257663 0.031777
v 0.004224 0.257757 0.032333
v 0.008135 0.257730 0.033868
v 0.011593 0.257762 0.036589
v 0.014208 0.257757 0.039960
v 0.015840 0.257762 0.043939
v 0.016410 0.257762 0.048184
v 0.015865 0.257643 0.052407
v 0.014231 0.257757 0.056379
v 0.011620 0.257757 0.059776
v 0.008240 0.257643 0.062399
v 0.004246 0.257648 0.064030
v -0.000001 0.258086 0.064593
v 0.000083 0.257472 0.065285
v 0.008201 0.285200 0.033985
v 0.004238 0.285532 0.032359
v -0.000002 0.285358 0.031791
v 0.011590 0.285201 0.036599
v 0.016398 0.285357 0.048187
v -0.019576 0.256950 0.048189
v -0.018897 0.256950 0.043124
v -0.011352 0.257421 0.063548
v -0.005063 0.257216 0.067084
v -0.008210 0.257762 0.033981
v -0.004280 0.257643 0.032341
v -0.009787 0.256950 0.031236
v -0.005066 0.256889 0.029292
v -0.013832 0.256950 0.034354
v -0.017111 0.257474 0.050107
v -0.016406 0.258083 0.048191
v -0.014206 0.258086 0.056390
v -0.015835 0.258085 0.052432
v -0.008378 0.257620 0.062396
v -0.011595 0.257764 0.059785
v -0.004418 0.257620 0.064069
v -0.004242 0.285356 0.032357
v -0.014181 0.285373 0.056399
v -0.011565 0.285373 0.059783
v 0.005066 0.256889 0.029293
v -0.016953 0.256890 0.057977
v -0.013834 0.256890 0.062023
v 0.000000 0.313750 -0.048398
v -0.005065 0.313750 -0.049078
v 0.014168 0.285928 0.056438
v 0.011590 0.285200 0.059780
v 0.008201 0.285200 0.062393
v -0.008201 0.285201 0.033986
v -0.014212 0.257648 0.039986
v -0.016401 0.285200 0.048189
v -0.015833 0.285201 0.043947
v -0.008202 0.285199 0.062393
v 0.015833 0.285200 0.043947
v 0.015833 0.285199 0.052432
v 0.000005 0.285209 0.064586
v -0.011591 0.285201 0.036599
v -0.011597 0.342247 -0.079525
v -0.006456 0.342787 -0.082505
v 0.016952 -0.255083 -0.058201
v 0.018893 -0.255083 -0.062925
v 0.019567 -0.255084 -0.067987
v 0.018886 -0.255083 -0.073048
v 0.016940 -0.255084 -0.077769
v 0.013819 -0.255084 -0.081811
v 0.009773 -0.255084 -0.084926
v 0.005049 -0.255084 -0.086867
v -0.000012 -0.255084 -0.087541
v 0.013809 -0.255074 -0.054143
v -0.016952 -0.255084 -0.077747
v -0.009794 -0.255084 -0.084914
v -0.013837 -0.255084 -0.081793
v -0.005120 -0.255057 -0.086821
v -0.005045 -0.300296 -0.086827
v -0.013845 -0.255074 -0.054178
v -0.000008 -0.299896 0.067716
v 0.009778 -0.256601 0.031236
v 0.005006 -0.256583 0.029301
v 0.005058 -0.298585 0.029274
v -0.016939 -0.256747 0.038403
v -0.009788 -0.300389 0.065093
v -0.009789 -0.298710 0.031218
v -0.013835 -0.298839 0.034335
v 0.014914 -0.252384 -0.056782
v 0.016017 -0.254434 -0.058747
v 0.018485 -0.254434 -0.067992
v 0.005236 -0.252401 -0.085987
v 0.000481 -0.252270 -0.086897
v -0.000449 -0.252078 -0.048790
v -0.002018 -0.254378 -0.049486
v -0.018922 -0.252270 -0.068456
v -0.018395 -0.252270 -0.063561
v -0.016147 -0.252270 -0.077852
v -0.018138 -0.252270 -0.073350
v -0.009044 -0.252270 -0.084602
v -0.012982 -0.252401 -0.081515
v -0.004414 -0.252270 -0.086370
v -0.013724 -0.252270 -0.054954
v -0.009878 -0.252270 -0.051828
v -0.005236 -0.252401 -0.049961
v 0.018858 -0.253847 0.048637
v 0.018486 -0.255964 0.048172
v 0.016556 -0.253847 0.039148
v 0.016108 -0.253847 0.058006
v 0.018085 -0.253847 0.053514
v 0.016018 -0.255964 0.057417
v 0.009042 -0.253847 0.064745
v 0.012999 -0.253847 0.061844
v 0.009258 -0.255964 0.064190
v -0.000447 -0.253847 0.067048
v 0.004431 -0.253847 0.066514
v 0.000018 -0.255964 0.066675
v 0.012897 -0.254368 0.035160
v 0.002230 -0.253914 0.029678
v -0.016034 -0.253969 0.038548
v -0.018085 -0.253847 0.042864
v -0.018486 -0.255964 0.048207
v -0.018858 -0.253847 0.047741
v -0.018325 -0.253847 0.052620
v -0.016000 -0.255964 0.057448
v -0.016252 -0.253963 0.057250
v -0.013654 -0.253847 0.061189
v -0.009228 -0.255964 0.064208
v -0.009817 -0.253847 0.064297
v -0.005326 -0.253847 0.066274
v -0.004764 -0.255964 0.066039
v -0.011412 -0.253914 0.033445
v -0.013096 -0.255949 0.035150
v -0.004737 -0.253908 0.030316
v 0.017854 -0.255981 0.043351
v 0.004764 -0.255964 0.030339
v -0.009280 -0.255949 0.032195
v 0.018922 -0.252270 -0.067493
v 0.018138 -0.252270 -0.062599
v 0.016953 -0.251755 -0.058186
v 0.016628 -0.252270 -0.077018
v 0.018396 -0.252270 -0.072387
v 0.009878 -0.252270 -0.084121
v 0.013724 -0.252270 -0.080994
v 0.013833 -0.251755 -0.054141
v 0.009045 -0.252270 -0.051347
v 0.004414 -0.252270 -0.049579
v -0.016442 -0.252401 -0.058922
v 0.018148 -0.253969 0.043683
v 0.009581 -0.253711 0.031790
v 0.000010 -0.253454 0.028799
v 0.004989 -0.253564 0.029564
v 0.005299 -0.243296 0.029427
v -0.013920 -0.253329 0.034485
v -0.009816 -0.250674 0.031314
v -0.009623 -0.253567 0.031473
v -0.004984 -0.253563 0.029563
v -0.005298 -0.243296 0.029427
v 0.019573 -0.256604 0.048218
v 0.018890 -0.256601 0.043119
v 0.016945 -0.256602 0.038397
v 0.016958 -0.256584 0.057921
v 0.009793 -0.256602 0.065134
v 0.013855 -0.256584 0.061969
v 0.000051 -0.256585 0.067741
v 0.005071 -0.256602 0.067079
v 0.013824 -0.256567 0.034355
v -0.000001 -0.256759 0.028616
v -0.018895 -0.256760 0.043128
v -0.019571 -0.256602 0.048198
v -0.018890 -0.256602 0.053260
v -0.016944 -0.256602 0.057982
v -0.013824 -0.256602 0.062026
v -0.009732 -0.256584 0.065147
v -0.005053 -0.256602 0.067084
v -0.009795 -0.256747 0.031253
v -0.013837 -0.256747 0.034374
v -0.005064 -0.256759 0.029295
v 0.019576 -0.252594 0.048189
v 0.018897 -0.252594 0.043126
v 0.016953 -0.252594 0.057977
v 0.013912 -0.253318 0.034460
v 0.010022 -0.249027 0.031346
v 0.011325 -0.231428 0.032176
v -0.016953 -0.252595 0.038401
v -0.019576 -0.252594 0.048189
v -0.016953 -0.252950 0.057976
v -0.009788 -0.252595 0.065142
v -0.013556 -0.245100 0.034030
v -0.010041 -0.242755 0.031304
v 0.018896 -0.300179 0.043071
v 0.016947 -0.299895 0.038350
v 0.018899 -0.256613 0.053270
v 0.013821 -0.299659 0.034309
v 0.009771 -0.299476 0.031197
v -0.000019 -0.299478 0.028587
v -0.018903 -0.311330 0.053044
v -0.016965 -0.301350 0.057884
v -0.013859 -0.301455 0.061921
v -0.005109 -0.301571 0.066993
v -0.005082 -0.299436 0.029270
v 0.018903 -0.311328 -0.072829
v 0.016965 -0.301267 -0.077669
v 0.013859 -0.301374 -0.081706
v 0.009824 -0.301461 -0.084827
v 0.005110 -0.301488 -0.086778
v 0.000056 -0.301044 -0.087471
v 0.009759 -0.255073 -0.051027
v -0.000027 -0.255072 -0.048419
v 0.005033 -0.255073 -0.049089
v -0.019571 -0.255087 -0.068002
v -0.018895 -0.255080 -0.062947
v -0.016960 -0.255270 -0.058227
v -0.018898 -0.255098 -0.073054
v -0.009805 -0.255073 -0.051054
v -0.005087 -0.255073 -0.049104
v 0.018897 -0.250806 -0.062911
v 0.019576 -0.250806 -0.067974
v -0.019576 -0.250806 -0.067974
v -0.018897 -0.250806 -0.062911
v -0.018897 0.092295 -0.062911
v -0.016953 -0.250806 -0.058186
v -0.016953 -0.250806 -0.077762
v -0.018897 -0.250806 -0.073038
v -0.018897 0.092295 -0.073038
v -0.013834 -0.250806 -0.081808
v 0.016000 -0.255964 0.038931
v 0.017850 -0.255964 0.052953
v 0.013077 -0.255964 0.061240
v 0.004800 -0.255964 0.066030
v 0.009228 -0.255963 0.032171
v -0.017279 -0.255950 0.041181
v -0.017841 -0.255964 0.052989
v -0.013050 -0.255964 0.061266
v -0.002337 -0.255944 0.029698
v 0.017849 -0.254434 -0.063211
v 0.017839 -0.254434 -0.072774
v 0.015999 -0.254434 -0.077232
v 0.013050 -0.254434 -0.081050
v 0.007547 -0.254421 -0.085000
v -0.000018 -0.254434 -0.086459
v 0.011234 -0.254429 -0.053111
v 0.004799 -0.254434 -0.050135
v -0.018485 -0.254434 -0.067956
v -0.017839 -0.254434 -0.063175
v -0.014936 -0.254431 -0.079122
v -0.017849 -0.254434 -0.072738
v -0.009258 -0.254434 -0.083973
v -0.004799 -0.254434 -0.085814
v -0.014745 -0.254436 -0.056568
v -0.009227 -0.254434 -0.051957
v 0.019576 0.092295 -0.067974
v 0.016953 0.092295 -0.058186
v 0.016953 0.092295 -0.077762
v 0.018897 -0.250806 -0.073038
v 0.018897 0.092295 -0.073038
v 0.009788 -0.250806 -0.084927
v 0.005064 -0.250806 -0.086872
v 0.000000 -0.250806 -0.087550
v 0.009788 -0.250807 -0.051021
v 0.013834 0.092295 -0.054140
v 0.000000 -0.250809 -0.048399
v 0.005064 -0.250807 -0.049077
v -0.019576 0.092295 -0.067974
v -0.009788 0.092295 -0.084927
v -0.009788 -0.250806 -0.084927
v -0.013834 0.092295 -0.081808
v -0.005063 -0.250806 -0.086872
v -0.005064 0.092295 -0.086872
v -0.013834 -0.250806 -0.054140
v -0.009788 -0.250807 -0.051021
v -0.009788 0.092295 -0.051021
v -0.013834 0.092295 -0.054140
v -0.005063 -0.250807 -0.049077
v 0.016953 -0.252595 0.038401
v 0.018897 0.091869 0.053252
v 0.016953 0.091868 0.057977
v 0.009788 -0.252594 0.065142
v 0.013834 0.091869 0.062023
v 0.000000 -0.252594 0.067765
v 0.005064 -0.252594 0.067087
v 0.013834 -0.202628 0.034356
v 0.013834 -0.153561 0.034356
v 0.010041 -0.205281 0.031304
v 0.009851 -0.154339 0.031253
v 0.013834 -0.105048 0.034356
v 0.009788 -0.105200 0.031236
v 0.013834 0.091869 0.034356
v 0.006076 -0.213240 0.029563
v 0.005317 -0.156672 0.029360
v 0.000000 -0.208552 0.028749
v -0.000000 -0.155729 0.028648
v 0.005063 -0.105655 0.029292
v -0.018897 -0.252594 0.043126
v -0.019576 0.091868 0.048189
v -0.018897 0.091868 0.043126
v -0.016953 0.091868 0.038401
v -0.018897 -0.252594 0.053253
v -0.013834 -0.252594 0.062023
v -0.009788 0.091869 0.065142
v -0.013834 0.091869 0.062023
v -0.005063 -0.252594 0.067087
v -0.005064 0.091869 0.067087
v -0.009809 -0.143697 0.031245
v -0.010041 -0.205281 0.031304
v -0.013830 -0.198798 0.034351
v -0.006076 -0.213240 0.029563
v -0.005316 -0.156672 0.029360
v -0.005064 -0.105655 0.029292
v 0.019576 0.097115 -0.067974
v 0.016886 0.096052 -0.058145
v 0.016952 0.096556 -0.077762
v 0.018897 0.096556 -0.073038
v 0.009787 0.096553 -0.084926
v 0.013833 0.096554 -0.081807
v -0.000000 0.096553 -0.087549
v 0.005063 0.096556 -0.086871
v -0.016959 0.096090 -0.058198
v -0.018880 0.096052 -0.062989
v -0.019566 0.096082 -0.067988
v -0.018843 0.096052 -0.073097
v -0.016952 0.096553 -0.077762
v -0.013834 0.096555 -0.081808
v -0.009788 0.096555 -0.084927
v -0.005063 0.096553 -0.086871
v -0.009795 0.096081 -0.051036
v -0.013837 0.096081 -0.054157
v -0.005075 0.096081 -0.049090
v 0.018895 0.095816 0.043130
v 0.018738 0.095155 0.048538
v 0.017995 0.095155 0.053386
v 0.013834 0.096232 0.062023
v 0.009788 0.096231 0.065142
v 0.005064 0.096231 0.067086
v -0.000000 0.096232 0.067765
v 0.009794 0.095811 0.031250
v 0.013857 0.095785 0.034427
v 0.013785 0.132578 0.034306
v 0.005074 0.095811 0.029303
v -0.019574 0.095999 0.048189
v -0.016952 0.096227 0.057975
v -0.018896 0.096226 0.053251
v -0.009787 0.096230 0.065142
v -0.013833 0.096231 0.062023
v -0.005064 0.096230 0.067086
v 0.009779 0.214830 -0.051042
v 0.005049 0.214397 -0.049091
v -0.000002 0.214395 -0.048408
v -0.009779 0.214831 -0.051042
v -0.013833 0.214828 -0.054160
v -0.016953 0.214396 -0.058197
v -0.005051 0.214829 -0.049090
v 0.009785 0.214246 0.031270
v 0.013833 0.214246 0.034385
v 0.000003 0.214248 0.028625
v 0.005053 0.214250 0.029309
v -0.013829 0.214250 0.034376
v -0.009775 0.214251 0.031259
v -0.005048 0.214250 0.029307
v 0.019573 0.210948 0.048189
v 0.016951 0.210946 0.038406
v 0.016952 0.210948 0.057974
v 0.018895 0.210947 0.053253
v 0.009793 0.210951 0.065132
v 0.000056 0.210971 0.067738
v -0.016813 0.211146 0.038600
v -0.018895 0.210948 0.043128
v -0.018812 0.211521 0.048604
v -0.013822 0.210951 0.062026
v -0.005063 0.210946 0.067086
v 0.018893 0.211067 -0.062914
v 0.019575 0.210573 -0.067974
v 0.018897 0.210572 -0.073038
v 0.016952 0.210573 -0.077762
v 0.013834 0.210570 -0.081808
v 0.009788 0.210572 -0.084927
v 0.005061 0.210579 -0.086870
v -0.000000 0.210571 -0.087550
v -0.019385 0.211255 -0.067873
v -0.016948 0.211066 -0.058192
v -0.016953 0.210571 -0.077762
v -0.018897 0.210572 -0.073038
v -0.009788 0.210579 -0.084924
v -0.013833 0.210575 -0.081807
v -0.005063 0.210571 -0.086871
v 0.005010 0.093509 -0.050059
v -0.013067 0.095472 -0.054930
v 0.016081 0.093086 0.038429
v 0.018045 0.093086 0.042912
v 0.017847 0.095174 0.043426
v 0.018807 0.093086 0.047777
v 0.016320 0.093193 0.057276
v 0.013593 0.093086 0.061178
v 0.009591 0.093193 0.064218
v 0.005413 0.092882 0.066485
v 0.004603 0.095040 0.066086
v -0.000180 0.095039 0.066679
v 0.000476 0.092882 0.067274
v 0.012985 0.093193 0.034777
v 0.007316 0.093125 0.031035
v -0.000293 0.093192 0.029511
v -0.018807 0.093086 0.048602
v -0.016320 0.093193 0.039104
v -0.016081 0.093086 0.057950
v -0.018045 0.093086 0.053467
v -0.016147 0.095092 0.057310
v -0.009046 0.093086 0.064683
v -0.012989 0.093086 0.061782
v -0.004452 0.093086 0.066455
v -0.004972 0.095092 0.066044
v -0.013593 0.093086 0.035200
v -0.007564 0.093170 0.031080
v 0.016018 0.211725 -0.058752
v 0.013040 0.213767 -0.054919
v 0.007479 0.213711 -0.050906
v 0.007117 0.211728 -0.050747
v -0.000017 0.213767 -0.049503
v 0.000284 0.211755 -0.049371
v -0.013045 0.211725 -0.054914
v -0.016000 0.211725 -0.058721
v -0.007045 0.211720 -0.050737
v 0.015420 0.211682 0.037906
v 0.000017 0.213609 0.029712
v 0.004793 0.213609 0.030365
v -0.014753 0.211559 0.036802
v -0.014868 0.213604 0.036974
v -0.009246 0.211568 0.032218
v -0.004828 0.211554 0.030357
v -0.004758 0.213609 0.030355
v 0.017880 0.213625 0.043452
v 0.018485 0.213609 0.048207
v 0.017516 0.211678 0.042126
v 0.016053 0.213626 0.038983
v 0.017840 0.213608 0.052988
v 0.015047 0.213596 0.059165
v 0.009227 0.213608 0.064207
v 0.002438 0.213604 0.066661
v -0.017840 0.213608 0.043391
v -0.018485 0.213608 0.048172
v -0.017849 0.213609 0.052953
v -0.016017 0.213608 0.057417
v -0.011236 0.213604 0.063052
v -0.004799 0.213608 0.066029
v 0.017899 0.213738 -0.062826
v 0.018391 0.213712 -0.071059
v 0.016301 0.213738 -0.077005
v 0.013259 0.213681 -0.080936
v 0.006723 0.213744 -0.085425
v 0.004609 0.211800 -0.085937
v -0.000191 0.211800 -0.086529
v 0.000330 0.213737 -0.086607
v -0.018632 0.213737 -0.068304
v -0.017873 0.213780 -0.063238
v -0.017841 0.211725 -0.063176
v -0.014947 0.213720 -0.079175
v -0.017898 0.213737 -0.073124
v -0.017963 0.211800 -0.072583
v -0.009031 0.213737 -0.084275
v -0.004490 0.213737 -0.086049
v 0.018131 0.093438 -0.063446
v 0.015991 0.095471 -0.058724
v 0.017829 0.095471 -0.063180
v 0.018998 0.095626 -0.067473
v 0.012908 0.095454 -0.054497
v -0.000016 0.095472 -0.049500
v 0.007339 0.095478 -0.050841
v -0.006655 0.095458 -0.050599
v -0.016007 0.095472 -0.058751
v -0.017838 0.095472 -0.063211
v -0.018519 0.095457 -0.069785
v -0.011393 0.095404 -0.082866
v -0.004439 0.095454 -0.086100
v 0.005218 0.095454 -0.085891
v 0.017282 0.095402 -0.075243
v -0.017336 0.095163 0.041392
v -0.002780 0.095163 0.029777
v 0.010953 0.095162 0.033130
v 0.013374 0.211751 -0.055056
v 0.016950 0.211065 -0.058194
v 0.018555 0.211800 -0.068165
v 0.017894 0.211749 -0.073095
v 0.012936 0.211749 -0.081355
v -0.013381 0.211749 -0.080911
v 0.015982 0.213758 -0.058633
v 0.013831 0.214397 -0.054160
v -0.007454 0.213686 -0.050832
v -0.014553 0.213744 -0.056245
v 0.004731 0.211554 0.030331
v -0.000048 0.211554 0.029695
v 0.013072 0.211567 0.061236
v 0.018547 0.211575 0.046665
v 0.010344 0.213557 0.032804
v 0.016346 0.093437 -0.058893
v 0.018613 0.093510 -0.068170
v 0.017915 0.093510 -0.072985
v 0.016038 0.093437 -0.077590
v 0.013010 0.093510 -0.081271
v 0.009137 0.093509 -0.084191
v 0.004618 0.093510 -0.085994
v -0.000196 0.093510 -0.086587
v 0.009476 0.093510 -0.051953
v 0.013297 0.093510 -0.054965
v 0.000309 0.093437 -0.049276
v -0.018697 0.093438 -0.067666
v -0.017966 0.093437 -0.062830
v -0.016038 0.093438 -0.058358
v -0.016217 0.093510 -0.077111
v -0.018020 0.093509 -0.072592
v -0.009476 0.093510 -0.083995
v -0.013439 0.093437 -0.080961
v -0.005011 0.093510 -0.085889
v -0.012987 0.093437 -0.054535
v -0.009136 0.093509 -0.051757
v -0.004526 0.093437 -0.049841
v 0.018266 0.093086 0.052642
v 0.009787 0.092503 0.031237
v 0.005063 0.092503 0.029292
v -0.018266 0.093086 0.043738
v 0.009778 0.210880 -0.051053
v 0.013825 0.210596 -0.054158
v -0.000002 0.210617 -0.048408
v 0.005062 0.210882 -0.049101
v -0.013837 0.211068 -0.054173
v -0.009774 0.210880 -0.051050
v -0.005068 0.211076 -0.049106
v 0.013838 0.210949 0.034386
v 0.009772 0.210953 0.031263
v 0.005064 0.210953 0.029316
v -0.000001 0.210952 0.028626
v -0.009783 0.210953 0.031271
v -0.013828 0.210952 0.034381
v -0.005068 0.210953 0.029317
v 0.016952 0.214245 0.038419
v 0.018895 0.214249 0.043131
v 0.019572 0.214249 0.048192
v 0.018852 0.214223 0.053306
v 0.016941 0.214246 0.057983
v 0.013821 0.214246 0.062026
v 0.009775 0.214246 0.065142
v 0.005063 0.214250 0.067084
v -0.000061 0.214224 0.067735
v -0.019569 0.214246 0.048178
v -0.018888 0.214245 0.043117
v -0.016941 0.214245 0.038401
v -0.016957 0.214224 0.057910
v -0.018894 0.214246 0.053240
v -0.009787 0.214250 0.065140
v -0.013837 0.214246 0.062010
v -0.005116 0.214224 0.067042
v 0.019557 0.214379 -0.067932
v 0.018897 0.214827 -0.062912
v 0.016950 0.214581 -0.058191
v 0.016952 0.214825 -0.077761
v 0.018897 0.214826 -0.073037
v 0.009815 0.214379 -0.084890
v 0.013834 0.214825 -0.081807
v -0.000000 0.214826 -0.087550
v 0.005064 0.214825 -0.086871
v -0.018896 0.214396 -0.062914
v -0.019575 0.214826 -0.067974
v -0.018897 0.214825 -0.073038
v -0.016953 0.214826 -0.077762
v -0.013826 0.214394 -0.081810
v -0.005064 0.214826 -0.086871
v 0.009709 0.096052 -0.051019
v 0.005047 0.096081 -0.049082
v -0.000069 0.096051 -0.048436
v 0.016119 0.095275 0.058028
v 0.012977 0.095092 0.061422
v 0.009057 0.095140 0.064449
v 0.000012 0.095811 0.028622
v -0.018890 0.095818 0.043106
v -0.016940 0.095811 0.038395
v -0.013819 0.095811 0.034352
v -0.009773 0.095811 0.031237
v -0.005049 0.095811 0.029297
v 0.018890 0.096089 -0.062891
v 0.013869 0.096570 -0.054174
v -0.019576 0.209961 -0.067974
v 0.018897 0.092296 -0.062911
v 0.013834 0.092296 -0.081808
v 0.016959 0.095819 0.038412
v 0.009774 0.140509 0.031222
v -0.018896 0.210946 0.053253
v 0.009788 0.091869 0.065142
v -0.009788 0.092178 0.031236
v 0.016016 0.095174 0.038963
v 0.004799 0.095175 0.030352
v -0.018489 0.095156 0.048147
v -0.017948 0.095092 0.052811
v -0.009424 0.095092 0.064161
v -0.013233 0.095092 0.061166
v -0.013049 0.095175 0.035115
v -0.009226 0.095174 0.032174
v 0.009672 0.095454 -0.083946
v 0.013478 0.095454 -0.080881
v 0.000390 0.095454 -0.086642
v -0.015972 0.095454 -0.077646
v 0.017851 0.211725 -0.063211
v 0.015974 0.211800 -0.077417
v 0.009112 0.211800 -0.084139
v -0.018486 0.211725 -0.067957
v -0.016164 0.211800 -0.077087
v -0.009443 0.211800 -0.083948
v -0.004990 0.211800 -0.085835
v 0.011646 0.211654 0.033766
v -0.009201 0.213626 0.032158
v 0.017149 0.211559 0.055512
v 0.007067 0.211558 0.065445
v 0.000049 0.211553 0.066692
v -0.017875 0.211553 0.043453
v -0.017256 0.211558 0.055256
v -0.013040 0.211553 0.061301
v -0.007321 0.211559 0.065338
v 0.013828 0.256890 0.034350
v 0.018893 0.210946 0.043115
v 0.013834 0.210948 0.062019
v -0.009787 0.210947 0.065142
v -0.018890 0.211066 -0.062899
v -0.009787 0.214826 -0.084927
f 119 4 5
f 4 119 127
f 5 374 7
f 247 7 374
f 10 104 250
f 10 248 4
f 11 12 14
f 14 13 11
f 15 16 13
f 13 14 15
f 16 15 18
f 18 17 16
f 19 20 17
f 17 18 19
f 20 19 21
f 42 21 19
f 22 23 21
f 21 42 22
f 23 22 764
f 24 765 764
f 765 24 25
f 25 766 765
f 26 27 25
f 27 767 766
f 766 25 27
f 767 27 28
f 28 768 767
f 27 26 29
f 29 28 27
f 41 30 28
f 28 29 41
f 30 769 768
f 768 28 30
f 31 14 12
f 32 15 14
f 14 31 32
f 15 32 33
f 33 18 15
f 34 19 18
f 18 33 34
f 19 34 42
f 35 764 22
f 36 24 764
f 764 35 36
f 24 36 37
f 37 25 24
f 43 37 36
f 38 26 37
f 37 43 38
f 25 37 26
f 26 38 39
f 39 29 26
f 40 41 29
f 29 39 40
f 12 54 31
f 46 42 34
f 47 22 42
f 42 46 47
f 22 47 48
f 48 35 22
f 35 48 36
f 44 39 38
f 45 40 39
f 39 44 45
f 49 36 48
f 36 49 50
f 50 43 36
f 51 38 43
f 43 50 51
f 38 51 52
f 52 44 38
f 53 45 44
f 44 52 53
f 55 31 54
f 56 32 31
f 31 55 56
f 32 56 57
f 57 33 32
f 58 34 33
f 33 57 58
f 34 58 46
f 59 48 47
f 60 49 48
f 48 59 60
f 49 60 61
f 61 50 49
f 71 62 61
f 62 51 50
f 50 61 62
f 51 62 63
f 63 52 51
f 62 71 64
f 64 63 62
f 65 66 63
f 63 64 65
f 66 53 52
f 52 63 66
f 54 67 55
f 68 46 58
f 76 47 68
f 46 68 47
f 47 76 59
f 69 60 59
f 60 69 70
f 70 61 60
f 61 70 71
f 72 64 71
f 73 65 64
f 64 72 73
f 67 74 84
f 84 55 67
f 85 56 55
f 55 84 85
f 56 85 86
f 86 57 56
f 87 58 57
f 57 86 87
f 58 87 75
f 75 68 58
f 68 75 76
f 88 59 76
f 77 69 59
f 59 88 77
f 69 77 78
f 78 70 69
f 89 78 77
f 90 79 78
f 78 89 90
f 79 71 70
f 70 78 79
f 71 79 80
f 80 72 71
f 79 90 81
f 81 80 79
f 82 83 80
f 80 81 82
f 83 73 72
f 72 80 83
f 306 86 85
f 323 87 86
f 86 306 323
f 87 323 75
f 324 76 75
f 76 324 88
f 325 88 324
f 326 77 88
f 88 325 326
f 77 326 89
f 328 90 89
f 90 328 81
f 330 82 81
f 96 504 513
f 513 514 97
f 97 96 513
f 98 513 504
f 517 518 99
f 523 524 101
f 509 101 524
f 112 111 113
f 113 114 112
f 114 113 872
f 115 102 114
f 102 112 114
f 872 934 114
f 934 872 875
f 875 935 934
f 935 875 874
f 93 117 116
f 120 116 117
f 120 117 111
f 111 112 120
f 102 120 112
f 115 1041 118
f 1082 118 1041
f 1081 103 118
f 118 1082 1081
f 2 6 93
f 5 121 119
f 93 6 92
f 119 103 127
f 2 116 126
f 120 3 1
f 3 120 247
f 121 7 247
f 121 5 7
f 116 2 93
f 120 126 116
f 120 1 126
f 102 247 120
f 247 102 121
f 6 124 125
f 125 92 6
f 8 91 92
f 92 125 8
f 1 371 126
f 9 126 371
f 2 126 9
f 124 2 9
f 2 124 6
f 103 1081 1084
f 1084 127 103
f 1083 104 127
f 127 1084 1083
f 5 4 248
f 118 102 115
f 119 118 103
f 121 102 118
f 118 119 121
f 10 127 104
f 127 10 4
f 233 380 132
f 379 132 380
f 378 237 132
f 132 379 378
f 237 378 474
f 474 133 237
f 133 474 241
f 381 137 138
f 250 104 137
f 137 381 250
f 11 139 154
f 154 12 11
f 139 140 155
f 155 154 139
f 140 141 156
f 156 155 140
f 141 142 143
f 143 156 141
f 142 144 166
f 166 143 142
f 145 166 144
f 166 145 174
f 146 147 148
f 146 174 145
f 147 149 152
f 152 148 147
f 149 150 151
f 151 152 149
f 152 151 158
f 150 641 153
f 153 151 150
f 641 769 30
f 30 153 641
f 41 160 153
f 153 30 41
f 160 158 151
f 151 153 160
f 163 162 154
f 154 155 163
f 12 154 162
f 165 164 156
f 156 143 165
f 164 163 155
f 155 156 164
f 166 165 143
f 174 146 168
f 146 148 169
f 169 168 146
f 148 152 157
f 157 169 148
f 158 157 152
f 159 172 157
f 157 158 159
f 169 157 172
f 40 161 160
f 160 41 40
f 161 159 158
f 158 160 161
f 162 54 12
f 174 167 166
f 165 166 167
f 170 171 168
f 168 169 170
f 174 168 171
f 172 170 169
f 159 161 173
f 161 40 45
f 45 173 161
f 170 172 176
f 172 159 175
f 175 176 172
f 159 173 177
f 177 175 159
f 173 45 53
f 53 177 173
f 54 162 186
f 162 163 185
f 185 186 162
f 163 164 188
f 188 185 163
f 164 165 187
f 187 188 164
f 167 187 165
f 167 174 178
f 174 171 179
f 179 178 174
f 171 170 180
f 180 179 171
f 170 176 181
f 181 180 170
f 176 175 182
f 182 181 176
f 190 191 181
f 181 182 190
f 180 181 191
f 175 177 183
f 183 182 175
f 177 53 66
f 66 183 177
f 65 184 183
f 183 66 65
f 184 190 182
f 182 183 184
f 186 67 54
f 188 187 195
f 187 167 189
f 178 189 167
f 189 178 197
f 189 195 187
f 179 197 178
f 190 184 192
f 184 65 73
f 73 192 184
f 193 194 186
f 186 185 193
f 194 74 67
f 67 186 194
f 195 196 188
f 196 193 185
f 185 188 196
f 197 204 189
f 195 189 204
f 197 179 199
f 179 180 198
f 198 199 179
f 199 198 205
f 180 191 200
f 200 198 180
f 191 190 201
f 201 200 191
f 207 206 200
f 200 201 207
f 206 205 198
f 198 200 206
f 190 192 202
f 202 201 190
f 192 73 83
f 83 202 192
f 82 203 202
f 202 83 82
f 203 207 201
f 201 202 203
f 421 427 194
f 194 193 421
f 74 194 427
f 423 422 196
f 196 195 423
f 422 421 193
f 193 196 422
f 204 423 195
f 199 205 439
f 441 440 206
f 206 207 441
f 440 439 205
f 205 206 440
f 203 82 330
f 203 441 207
f 209 234 208
f 211 210 1122
f 538 1122 210
f 546 537 212
f 537 546 547
f 537 547 549
f 551 219 549
f 549 550 551
f 523 101 219
f 222 220 221
f 231 222 221
f 1141 227 226
f 229 226 227
f 228 229 222
f 1141 226 228
f 229 228 226
f 222 230 228
f 1141 228 230
f 230 222 231
f 234 235 232
f 229 232 235
f 232 208 234
f 235 222 229
f 222 235 236
f 231 221 1085
f 1085 942 231
f 221 223 1086
f 1086 1085 221
f 129 130 223
f 129 220 133
f 134 223 130
f 128 234 240
f 233 132 236
f 237 236 132
f 237 133 220
f 131 240 234
f 209 131 234
f 234 128 235
f 128 233 235
f 236 235 233
f 236 237 222
f 220 222 237
f 131 209 135
f 135 239 131
f 209 91 8
f 8 135 209
f 128 380 233
f 136 479 128
f 380 128 479
f 136 128 240
f 131 239 240
f 136 240 239
f 134 1086 223
f 1083 1087 134
f 134 104 1083
f 1086 134 1087
f 129 133 241
f 138 130 241
f 129 241 130
f 221 220 129
f 221 129 223
f 104 134 137
f 130 137 134
f 137 130 138
f 245 331 365
f 242 1 246
f 3 246 1
f 247 243 246
f 246 3 247
f 243 247 374
f 5 373 374
f 10 249 248
f 249 10 250
f 758 646 264
f 264 275 758
f 646 757 265
f 265 264 646
f 757 756 266
f 266 265 757
f 756 754 251
f 251 266 756
f 754 753 267
f 267 251 754
f 252 267 753
f 267 252 268
f 253 254 255
f 253 268 252
f 254 256 259
f 259 255 254
f 256 257 258
f 258 259 256
f 259 258 271
f 257 260 261
f 261 258 257
f 260 643 262
f 262 261 260
f 263 272 261
f 261 262 263
f 272 271 258
f 258 261 272
f 283 284 264
f 264 265 283
f 275 264 284
f 285 286 266
f 266 251 285
f 286 283 265
f 265 266 286
f 267 285 251
f 268 253 269
f 253 255 277
f 277 269 253
f 255 259 270
f 270 277 255
f 271 270 259
f 280 279 270
f 270 271 280
f 277 270 279
f 273 274 272
f 272 263 273
f 274 280 271
f 271 272 274
f 284 292 275
f 285 267 276
f 268 276 267
f 276 268 295
f 277 278 269
f 278 295 268
f 268 269 278
f 280 274 281
f 274 273 282
f 282 281 274
f 278 277 287
f 277 279 289
f 289 287 277
f 279 280 288
f 288 289 279
f 280 281 291
f 291 288 280
f 281 282 290
f 290 291 281
f 292 284 303
f 284 283 293
f 293 303 284
f 283 286 294
f 294 293 283
f 286 285 305
f 305 294 286
f 276 305 285
f 295 278 296
f 278 287 297
f 297 296 278
f 287 289 299
f 299 297 287
f 289 288 298
f 298 299 289
f 288 291 300
f 300 298 288
f 291 290 301
f 301 300 291
f 302 311 300
f 300 301 302
f 298 300 311
f 303 304 292
f 305 306 294
f 293 294 306
f 305 276 307
f 295 307 276
f 307 295 314
f 296 297 308
f 296 314 295
f 297 299 310
f 310 308 297
f 299 298 309
f 309 310 299
f 310 309 318
f 311 309 298
f 311 302 312
f 312 313 311
f 313 318 309
f 309 311 313
f 306 305 323
f 307 323 305
f 314 315 307
f 323 307 315
f 314 296 317
f 308 317 296
f 317 308 316
f 319 320 310
f 310 318 319
f 320 316 308
f 308 310 320
f 318 313 322
f 313 312 321
f 321 322 313
f 322 319 318
f 304 303 84
f 84 74 304
f 303 293 85
f 85 84 303
f 306 85 293
f 315 314 324
f 324 75 315
f 323 315 75
f 314 317 325
f 325 324 314
f 317 316 326
f 326 325 317
f 316 320 327
f 327 326 316
f 320 319 328
f 328 327 320
f 328 89 327
f 326 327 89
f 319 322 329
f 329 328 319
f 322 321 330
f 330 329 322
f 330 81 329
f 328 329 81
f 332 331 1145
f 566 1102 565
f 564 565 1102
f 446 570 568
f 334 335 568
f 338 339 337
f 577 338 337
f 580 564 563
f 564 580 581
f 581 565 564
f 583 566 565
f 565 581 583
f 584 572 571
f 572 584 573
f 742 342 343
f 342 742 344
f 355 351 349
f 351 352 350
f 350 349 351
f 897 896 354
f 895 354 896
f 360 353 349
f 355 349 353
f 349 350 360
f 353 360 362
f 353 362 340
f 353 922 355
f 353 340 357
f 358 356 925
f 356 355 922
f 922 925 356
f 364 361 359
f 350 359 361
f 352 900 359
f 359 350 352
f 1145 359 900
f 331 364 359
f 359 1145 331
f 361 360 350
f 357 363 1088
f 1088 923 357
f 363 341 1089
f 1089 1088 363
f 372 364 331
f 341 375 373
f 373 244 341
f 375 340 374
f 374 373 375
f 366 341 244
f 371 364 372
f 243 374 340
f 370 365 332
f 332 333 370
f 331 332 365
f 364 371 361
f 371 242 360
f 360 361 371
f 242 246 362
f 362 360 242
f 246 243 362
f 340 362 243
f 368 369 1079
f 8 125 365
f 365 370 8
f 125 124 245
f 245 365 125
f 371 372 9
f 371 1 242
f 245 124 9
f 9 372 245
f 331 245 372
f 366 1089 341
f 1091 1090 366
f 366 367 1091
f 1089 366 1090
f 373 5 248
f 248 244 373
f 375 357 340
f 363 375 341
f 375 363 357
f 367 366 249
f 249 250 367
f 244 249 366
f 249 244 248
f 379 380 376
f 381 138 472
f 758 275 382
f 382 763 758
f 383 649 763
f 763 382 383
f 649 383 384
f 384 650 649
f 650 384 385
f 388 760 759
f 760 388 389
f 389 761 760
f 390 391 389
f 391 648 761
f 761 389 391
f 648 391 392
f 392 762 648
f 391 390 393
f 393 392 391
f 263 262 392
f 392 393 263
f 262 643 762
f 762 392 262
f 398 382 275
f 399 383 382
f 382 398 399
f 383 399 400
f 400 384 383
f 401 385 384
f 384 400 401
f 385 401 386
f 394 759 387
f 402 388 759
f 759 394 402
f 388 402 395
f 395 389 388
f 396 395 402
f 403 390 395
f 395 396 403
f 389 395 390
f 390 403 397
f 397 393 390
f 273 263 393
f 393 397 273
f 275 292 398
f 405 386 401
f 424 387 405
f 386 405 387
f 387 424 406
f 406 394 387
f 394 406 402
f 404 397 403
f 282 273 397
f 397 404 282
f 407 402 406
f 402 407 408
f 408 396 402
f 409 403 396
f 396 408 409
f 403 409 410
f 410 404 403
f 290 282 404
f 404 410 290
f 411 398 292
f 412 399 398
f 398 411 412
f 399 412 413
f 413 400 399
f 414 401 400
f 400 413 414
f 401 414 405
f 415 406 424
f 416 407 406
f 406 415 416
f 407 416 417
f 417 408 407
f 418 409 408
f 408 417 418
f 409 418 419
f 419 410 409
f 420 419 418
f 302 301 419
f 419 420 302
f 301 290 410
f 410 419 301
f 292 304 411
f 421 412 411
f 412 421 422
f 422 413 412
f 423 414 413
f 413 422 423
f 428 405 414
f 414 423 428
f 429 424 428
f 405 428 424
f 424 429 415
f 432 416 415
f 416 432 433
f 433 417 416
f 425 426 433
f 426 418 417
f 417 433 426
f 418 426 420
f 426 425 436
f 436 420 426
f 420 436 312
f 312 302 420
f 427 411 304
f 411 427 421
f 430 415 429
f 431 432 430
f 415 430 432
f 432 431 434
f 434 433 432
f 435 425 433
f 433 434 435
f 425 435 437
f 437 436 425
f 436 437 321
f 321 312 436
f 304 74 427
f 204 428 423
f 428 204 197
f 197 429 428
f 429 197 438
f 438 430 429
f 199 438 197
f 438 199 439
f 439 431 430
f 430 438 439
f 431 439 440
f 440 434 431
f 441 435 434
f 434 440 441
f 435 441 442
f 442 437 435
f 203 442 441
f 442 203 330
f 330 321 437
f 437 442 330
f 1109 445 610
f 445 1109 592
f 447 594 446
f 594 570 446
f 448 449 617
f 598 452 449
f 449 450 598
f 452 617 449
f 450 451 598
f 583 604 592
f 592 566 583
f 604 602 591
f 591 592 604
f 603 602 620
f 582 496 604
f 496 620 602
f 602 604 496
f 453 460 454
f 859 747 858
f 860 455 857
f 455 860 456
f 1148 866 457
f 868 457 866
f 747 859 457
f 457 868 747
f 460 458 461
f 905 1180 906
f 1180 905 932
f 461 463 460
f 463 461 459
f 464 454 463
f 454 460 463
f 443 466 465
f 467 465 466
f 467 466 458
f 458 460 467
f 453 467 460
f 464 469 468
f 1093 468 469
f 1092 471 468
f 468 1093 1092
f 477 465 377
f 465 477 443
f 474 453 470
f 471 472 470
f 443 477 478
f 472 471 480
f 377 465 479
f 473 379 376
f 473 378 379
f 378 473 474
f 453 474 473
f 370 333 475
f 475 478 370
f 478 475 443
f 467 479 465
f 479 467 376
f 467 473 376
f 473 467 453
f 369 368 476
f 866 1148 476
f 477 239 135
f 135 478 477
f 8 370 478
f 478 135 8
f 376 380 479
f 377 479 136
f 136 239 477
f 477 377 136
f 471 1092 1094
f 1094 480 471
f 1091 367 480
f 480 1094 1091
f 474 470 241
f 470 472 138
f 138 241 470
f 468 454 464
f 470 468 471
f 453 454 468
f 468 470 453
f 367 250 381
f 381 480 367
f 480 381 472
f 481 482 626
f 483 626 482
f 485 626 484
f 626 486 561
f 487 488 626
f 488 489 626
f 489 481 626
f 491 490 585
f 491 613 490
f 491 492 495
f 492 493 495
f 497 495 494
f 498 497 496
f 497 498 613
f 490 500 499
f 501 504 96
f 96 502 501
f 96 611 502
f 503 99 98
f 98 504 503
f 505 517 99
f 99 506 505
f 99 503 506
f 100 508 507
f 517 505 508
f 508 100 517
f 100 507 510
f 510 509 100
f 101 94 95
f 94 101 509
f 513 511 512
f 513 512 514
f 516 98 515
f 511 513 98
f 98 516 511
f 100 519 520
f 519 100 522
f 481 525 482
f 526 482 525
f 482 526 527
f 482 527 528
f 528 483 482
f 483 528 529
f 483 529 530
f 530 484 483
f 484 530 531
f 484 531 532
f 484 532 485
f 533 486 485
f 486 533 534
f 486 534 535
f 536 561 535
f 486 535 561
f 537 210 211
f 211 212 537
f 210 537 538
f 538 537 549
f 549 213 538
f 549 214 213
f 219 215 549
f 214 549 215
f 219 216 215
f 101 95 216
f 216 219 101
f 611 96 97
f 97 612 611
f 217 539 97
f 612 97 539
f 540 97 514
f 541 217 97
f 97 540 541
f 539 217 218
f 218 542 539
f 218 212 542
f 217 541 543
f 543 218 217
f 218 543 544
f 218 544 545
f 548 549 547
f 549 548 550
f 489 553 554
f 554 481 489
f 481 554 525
f 488 555 489
f 556 489 555
f 489 556 553
f 487 559 558
f 557 488 487
f 487 558 557
f 625 487 626
f 626 560 625
f 487 625 559
f 626 561 560
f 567 446 568
f 568 608 567
f 335 569 608
f 608 568 335
f 569 335 334
f 334 1177 569
f 336 562 334
f 1177 334 562
f 582 583 581
f 490 584 585
f 586 491 585
f 587 490 499
f 490 587 584
f 500 588 499
f 621 499 588
f 500 613 622
f 500 622 588
f 498 615 614
f 614 613 498
f 589 450 449
f 449 590 589
f 609 451 450
f 450 444 609
f 444 450 589
f 591 610 445
f 451 609 610
f 610 591 451
f 591 445 592
f 447 596 595
f 446 567 596
f 596 447 446
f 448 597 449
f 447 595 597
f 597 448 447
f 598 599 452
f 451 600 601
f 601 598 451
f 598 601 599
f 600 451 603
f 583 582 604
f 491 586 605
f 605 492 491
f 616 492 605
f 492 616 624
f 492 624 493
f 619 495 493
f 495 619 618
f 495 618 494
f 606 497 494
f 497 606 607
f 620 497 607
f 497 620 496
f 623 498 496
f 337 1097 1096
f 1096 336 337
f 1095 562 1096
f 336 1096 562
f 338 1099 339
f 1097 337 339
f 564 1101 1100
f 1100 563 564
f 1099 338 563
f 563 1100 1099
f 1101 564 1102
f 449 1106 1105
f 1105 590 449
f 1104 589 590
f 590 1105 1104
f 589 1104 1108
f 1108 444 589
f 444 1108 609
f 1110 610 609
f 610 1110 1109
f 1113 506 503
f 503 1114 1113
f 506 1113 505
f 1116 508 505
f 1115 507 508
f 508 1116 1115
f 507 1115 1118
f 1118 510 507
f 510 1118 509
f 1120 94 509
f 94 1120 1119
f 1119 95 94
f 1121 211 1122
f 913 212 211
f 211 1121 913
f 213 1124 1123
f 1123 538 213
f 538 1123 1122
f 215 1182 214
f 1125 214 1182
f 214 1125 1124
f 1124 213 214
f 95 1119 1126
f 1126 216 95
f 1182 215 216
f 216 1126 1182
f 99 515 98
f 515 99 518
f 100 520 517
f 509 521 522
f 509 522 100
f 521 509 524
f 545 212 218
f 212 545 546
f 552 219 551
f 219 552 523
f 511 527 526
f 526 512 511
f 525 514 512
f 512 526 525
f 528 516 515
f 515 529 528
f 527 511 516
f 516 528 527
f 517 531 518
f 529 515 518
f 532 520 519
f 531 517 520
f 520 532 531
f 533 522 521
f 522 533 519
f 535 524 523
f 523 536 535
f 524 535 521
f 514 525 554
f 554 540 514
f 540 554 541
f 556 543 541
f 543 556 555
f 555 544 543
f 544 555 545
f 488 545 555
f 557 546 545
f 545 488 557
f 558 547 546
f 546 557 558
f 547 558 548
f 560 551 550
f 551 560 561
f 561 552 551
f 536 523 552
f 552 561 536
f 571 568 570
f 572 334 568
f 568 571 572
f 334 572 573
f 574 336 334
f 334 573 574
f 336 574 575
f 576 337 336
f 336 575 576
f 337 576 577
f 578 338 577
f 338 578 579
f 579 563 338
f 563 579 580
f 447 593 594
f 593 447 448
f 603 591 602
f 591 603 451
f 585 571 570
f 570 586 585
f 571 585 584
f 587 573 584
f 573 587 499
f 499 574 573
f 574 499 575
f 621 575 499
f 588 576 575
f 575 621 588
f 622 577 576
f 576 588 622
f 613 578 577
f 577 622 613
f 578 613 614
f 614 579 578
f 615 580 579
f 579 614 615
f 580 615 581
f 605 594 593
f 593 616 605
f 586 570 605
f 594 605 570
f 624 448 617
f 616 593 448
f 448 624 616
f 599 618 452
f 619 452 618
f 452 619 617
f 494 601 600
f 601 494 618
f 618 599 601
f 498 581 615
f 623 582 581
f 581 498 623
f 617 493 624
f 493 617 619
f 600 606 494
f 607 603 620
f 606 600 603
f 603 607 606
f 582 623 496
f 530 518 531
f 518 530 529
f 519 485 532
f 521 534 533
f 485 519 533
f 534 521 535
f 553 541 554
f 541 553 556
f 559 548 558
f 548 559 625
f 625 550 548
f 550 625 560
f 626 483 484
f 626 485 486
f 613 491 495
f 613 495 497
f 613 500 490
f 641 640 635
f 640 641 638
f 724 254 755
f 256 726 725
f 254 724 726
f 726 256 254
f 727 643 728
f 646 645 644
f 645 646 730
f 648 736 735
f 736 648 737
f 643 727 737
f 738 649 650
f 650 739 738
f 739 650 647
f 649 738 740
f 651 652 798
f 798 701 651
f 653 700 701
f 701 798 653
f 700 653 799
f 799 704 700
f 800 703 704
f 704 799 800
f 703 800 801
f 801 706 703
f 802 705 706
f 706 801 802
f 705 802 654
f 803 655 654
f 804 651 708
f 651 804 652
f 656 657 709
f 805 709 657
f 804 708 709
f 709 805 804
f 658 806 807
f 807 659 658
f 659 807 710
f 660 808 809
f 809 661 660
f 806 658 661
f 661 809 806
f 662 810 663
f 808 660 663
f 655 803 811
f 811 664 655
f 810 662 664
f 664 811 810
f 812 665 710
f 813 666 665
f 665 812 813
f 666 813 667
f 657 656 667
f 668 669 711
f 789 670 711
f 671 673 790
f 790 672 671
f 669 668 672
f 672 790 669
f 674 676 791
f 791 675 674
f 673 671 675
f 675 791 673
f 677 679 792
f 792 678 677
f 676 674 678
f 678 792 676
f 670 789 680
f 793 712 680
f 712 793 698
f 698 681 712
f 681 698 797
f 794 683 682
f 684 685 683
f 683 794 684
f 685 684 795
f 795 686 685
f 687 688 686
f 686 795 687
f 688 687 796
f 796 689 688
f 690 691 689
f 689 796 690
f 691 690 693
f 693 692 691
f 679 677 692
f 692 693 679
f 694 699 695
f 694 695 682
f 797 696 681
f 699 694 696
f 696 797 699
f 701 702 651
f 702 707 651
f 708 651 707
f 627 628 798
f 798 652 627
f 628 629 653
f 653 798 628
f 629 630 799
f 799 653 629
f 630 631 800
f 800 799 630
f 631 632 801
f 801 800 631
f 632 633 802
f 802 801 632
f 633 634 802
f 634 635 803
f 803 802 634
f 635 640 811
f 811 803 635
f 640 638 810
f 810 811 640
f 638 639 808
f 808 810 638
f 639 637 808
f 637 776 809
f 809 808 637
f 776 773 806
f 806 809 776
f 773 774 807
f 807 806 773
f 812 807 774
f 642 777 813
f 813 812 642
f 777 778 657
f 657 813 777
f 778 771 657
f 771 772 805
f 805 657 771
f 772 770 804
f 804 805 772
f 770 636 804
f 636 627 652
f 652 804 636
f 682 716 694
f 716 718 694
f 718 719 696
f 696 694 718
f 719 713 681
f 681 696 719
f 713 714 681
f 712 681 714
f 712 744 680
f 670 680 744
f 721 722 697
f 697 669 721
f 722 723 789
f 789 697 722
f 729 789 723
f 729 644 793
f 793 680 729
f 789 729 680
f 644 645 698
f 698 793 644
f 797 698 645
f 794 732 684
f 732 733 795
f 795 684 732
f 733 734 687
f 687 795 733
f 734 735 796
f 796 687 734
f 735 736 690
f 690 796 735
f 736 737 693
f 693 690 736
f 737 727 679
f 679 693 737
f 727 728 792
f 792 679 727
f 728 725 676
f 676 792 728
f 725 726 791
f 791 676 725
f 726 724 673
f 673 791 726
f 724 755 790
f 790 673 724
f 755 721 669
f 669 790 755
f 712 745 744
f 715 714 713
f 745 712 714
f 714 715 745
f 688 749 686
f 749 688 689
f 717 718 716
f 718 717 720
f 720 719 718
f 719 720 713
f 775 812 774
f 812 775 642
f 730 797 645
f 794 647 731
f 794 731 732
f 699 738 739
f 739 695 699
f 647 794 695
f 695 739 647
f 797 730 740
f 738 699 797
f 797 740 738
f 741 668 711
f 711 742 741
f 670 837 742
f 742 711 670
f 743 671 672
f 672 345 743
f 668 741 345
f 345 672 668
f 840 674 675
f 675 346 840
f 671 743 346
f 346 675 671
f 842 677 678
f 678 843 842
f 674 840 843
f 843 678 674
f 837 670 744
f 745 746 744
f 747 682 683
f 683 856 747
f 685 748 856
f 856 683 685
f 748 685 686
f 686 860 748
f 860 686 749
f 689 861 749
f 691 750 861
f 861 689 691
f 750 691 692
f 692 864 750
f 677 842 864
f 864 692 677
f 751 752 716
f 752 717 716
f 682 747 716
f 751 716 747
f 753 722 721
f 721 252 753
f 754 723 722
f 722 753 754
f 253 755 254
f 252 721 755
f 755 253 252
f 725 257 256
f 260 728 643
f 257 725 728
f 728 260 257
f 723 754 756
f 756 729 723
f 757 644 729
f 729 756 757
f 644 757 646
f 758 730 646
f 386 731 647
f 647 385 386
f 387 732 731
f 731 386 387
f 732 387 759
f 759 733 732
f 760 734 733
f 733 759 760
f 734 760 761
f 761 735 734
f 735 761 648
f 762 737 648
f 737 762 643
f 385 647 650
f 730 758 763
f 763 740 730
f 740 763 649
f 627 20 21
f 21 628 627
f 23 629 628
f 628 21 23
f 629 23 764
f 764 630 629
f 765 631 630
f 630 764 765
f 631 765 766
f 766 632 631
f 767 633 632
f 632 766 767
f 633 767 768
f 768 634 633
f 769 635 634
f 634 768 769
f 770 16 17
f 17 636 770
f 636 17 20
f 20 627 636
f 771 11 13
f 13 772 771
f 16 770 772
f 772 13 16
f 773 145 144
f 144 774 773
f 142 775 774
f 774 144 142
f 637 147 776
f 146 776 147
f 145 773 776
f 776 146 145
f 638 150 149
f 149 639 638
f 147 637 639
f 639 149 147
f 635 769 641
f 150 638 641
f 775 142 141
f 141 642 775
f 140 777 642
f 642 141 140
f 777 140 139
f 139 778 777
f 11 771 778
f 778 139 11
f 701 779 702
f 700 780 779
f 779 701 700
f 780 700 704
f 704 817 780
f 703 105 817
f 817 704 703
f 105 703 706
f 706 106 105
f 705 819 106
f 106 706 705
f 819 705 654
f 654 820 819
f 655 821 820
f 820 654 655
f 822 708 707
f 824 656 709
f 709 825 824
f 708 822 825
f 825 709 708
f 782 783 781
f 781 658 659
f 659 782 781
f 710 784 782
f 782 659 710
f 784 224 783
f 783 782 784
f 786 787 785
f 785 660 661
f 661 786 785
f 658 781 786
f 786 661 658
f 787 786 781
f 828 662 663
f 663 788 828
f 660 785 788
f 788 663 660
f 821 655 664
f 664 830 821
f 662 828 830
f 830 664 662
f 224 784 832
f 784 710 665
f 665 832 784
f 666 833 832
f 832 665 666
f 833 666 667
f 667 836 833
f 656 824 836
f 836 667 656
f 697 711 669
f 711 697 789
f 794 682 695
f 654 802 803
f 812 710 807
f 808 663 810
f 657 667 813
f 780 814 779
f 1142 779 814
f 815 702 779
f 779 1142 815
f 814 780 817
f 105 816 817
f 818 817 816
f 817 818 814
f 819 107 106
f 1143 106 107
f 816 105 106
f 106 1143 816
f 107 819 820
f 820 108 107
f 821 109 820
f 108 820 109
f 110 822 707
f 702 815 707
f 823 707 815
f 707 823 110
f 123 824 825
f 825 122 123
f 822 110 825
f 122 825 110
f 826 781 783
f 225 785 787
f 781 826 787
f 827 828 829
f 788 829 828
f 829 788 785
f 785 225 829
f 828 827 830
f 109 821 830
f 830 831 109
f 831 830 827
f 832 835 224
f 833 834 835
f 835 832 833
f 834 833 836
f 836 238 834
f 238 836 824
f 824 123 238
f 343 741 742
f 837 344 742
f 741 343 345
f 838 345 343
f 839 743 345
f 345 838 839
f 1147 840 346
f 743 839 346
f 841 346 839
f 346 841 1147
f 348 842 843
f 843 347 348
f 840 1147 843
f 347 843 1147
f 844 845 837
f 744 844 837
f 746 846 844
f 844 744 746
f 846 847 845
f 845 844 846
f 344 837 848
f 848 850 344
f 845 848 837
f 847 849 848
f 848 845 847
f 849 1078 850
f 850 848 849
f 847 846 851
f 851 852 847
f 846 746 745
f 745 851 846
f 745 715 851
f 715 713 853
f 853 851 715
f 854 852 851
f 851 853 854
f 1078 849 855
f 855 1079 1078
f 849 847 852
f 852 855 849
f 854 368 855
f 855 852 854
f 1079 855 368
f 748 857 856
f 856 858 747
f 858 856 857
f 857 748 860
f 749 456 860
f 861 863 456
f 456 749 861
f 863 861 750
f 750 862 863
f 862 750 864
f 864 865 862
f 865 864 842
f 842 348 865
f 866 867 868
f 751 868 867
f 868 751 747
f 854 853 869
f 869 870 854
f 853 713 720
f 720 869 853
f 717 752 869
f 869 720 717
f 752 751 867
f 867 869 752
f 866 870 869
f 869 867 866
f 871 476 368
f 368 854 870
f 870 871 368
f 871 870 866
f 476 871 866
f 1025 872 1139
f 111 873 1139
f 872 1025 875
f 873 111 1140
f 93 1127 1140
f 1127 93 1128
f 91 1129 1128
f 227 881 880
f 881 227 882
f 944 883 882
f 883 944 884
f 1129 91 890
f 355 892 891
f 892 355 356
f 356 893 892
f 358 1130 893
f 893 356 358
f 1130 358 894
f 900 899 898
f 899 900 1144
f 927 897 354
f 928 469 929
f 459 930 929
f 930 459 1146
f 897 927 932
f 941 1141 1181
f 1141 941 944
f 1024 1022 1056
f 1023 1055 1022
f 1022 1024 1023
f 1058 1036 1057
f 1036 1058 1059
f 1055 1023 1064
f 1027 1065 948
f 1068 1030 1031
f 1031 1067 1068
f 1032 1066 1067
f 1067 1031 1032
f 1066 1032 1070
f 1033 1072 1069
f 1072 1033 1071
f 949 1074 1075
f 1030 1068 1074
f 1074 949 1030
f 1065 1027 1029
f 1029 1076 1065
f 1076 1029 1075
f 950 1149 952
f 952 951 950
f 892 953 951
f 951 952 892
f 953 892 893
f 893 1077 953
f 1077 893 954
f 1131 955 954
f 955 1131 956
f 958 957 956
f 959 960 957
f 957 958 959
f 962 1039 961
f 1149 950 961
f 1150 962 963
f 962 1150 1039
f 964 1151 1037
f 1037 1080 964
f 1080 1037 965
f 966 968 1152
f 1152 967 966
f 1151 964 967
f 967 1152 1151
f 969 1153 1154
f 1154 970 969
f 968 966 970
f 970 1154 968
f 960 959 971
f 972 971 959
f 1153 969 971
f 971 972 1153
f 1155 973 965
f 1156 974 973
f 973 1155 1156
f 974 1156 1038
f 974 1038 963
f 976 1040 975
f 977 978 1040
f 1040 976 977
f 979 980 978
f 978 977 979
f 983 1048 981
f 980 979 983
f 1051 985 986
f 986 1050 1051
f 1054 1168 1050
f 1050 986 1054
f 987 988 989
f 991 990 989
f 985 1051 990
f 990 991 985
f 994 992 993
f 984 995 992
f 992 994 984
f 1052 997 998
f 1046 975 1161
f 1161 1006 1046
f 1042 1007 1006
f 1006 1161 1042
f 1162 1008 1007
f 1008 1162 1009
f 1163 1010 1009
f 1010 1163 1011
f 1012 1013 1010
f 1010 1011 1012
f 1014 1164 1016
f 1016 1015 1014
f 982 1049 1015
f 1015 1016 982
f 1017 1165 1019
f 1019 1018 1017
f 1164 1014 1018
f 1018 1019 1164
f 1020 1166 1017
f 1013 1012 1167
f 1167 1021 1013
f 1166 1020 1021
f 1021 1167 1166
f 1025 1139 1024
f 1139 873 1023
f 1023 1024 1139
f 1026 1023 873
f 1026 1127 1028
f 1127 1128 1028
f 1128 1129 1027
f 1027 1028 1128
f 1129 890 1029
f 1029 1027 1129
f 890 888 1029
f 888 889 949
f 949 1029 888
f 889 880 1030
f 1030 949 889
f 880 881 1031
f 1031 1030 880
f 881 882 1032
f 1032 1031 881
f 882 883 1032
f 1160 1032 883
f 961 1078 962
f 1078 1079 962
f 963 962 1079
f 963 476 974
f 1144 891 952
f 952 1149 1144
f 892 952 891
f 1151 1134 1037
f 1134 1135 1037
f 1135 1136 1155
f 1155 1037 1135
f 1136 1137 1156
f 1156 1155 1136
f 1137 1138 1038
f 1038 1156 1137
f 1138 1133 1038
f 1133 901 1150
f 1150 1038 1133
f 901 898 1039
f 1039 1150 901
f 898 899 1039
f 899 1144 1149
f 1149 1039 899
f 1040 1041 975
f 1041 933 1161
f 1161 975 1041
f 1042 1161 933
f 1019 941 1164
f 941 1181 1016
f 1016 1164 941
f 1181 942 982
f 982 1016 1181
f 942 1085 981
f 981 982 942
f 983 981 1085
f 980 983 1087
f 1006 1007 1112
f 1046 1047 976
f 977 976 1047
f 909 910 979
f 979 977 909
f 1048 979 910
f 913 1121 1015
f 1015 1049 913
f 1014 1015 1121
f 1020 1017 1125
f 1009 1010 1117
f 923 1088 984
f 984 994 923
f 1088 1089 1168
f 1168 984 1088
f 1089 1090 1050
f 1050 1168 1089
f 1090 1091 1051
f 1051 1050 1090
f 1091 1094 990
f 990 1051 1091
f 1094 1092 989
f 989 990 1094
f 1092 1093 987
f 987 989 1092
f 1093 928 987
f 928 929 1173
f 1173 987 928
f 930 1173 929
f 930 1146 1174
f 1146 462 1174
f 462 931 1175
f 1175 1174 462
f 931 1180 1176
f 1176 1175 931
f 1180 932 1176
f 932 927 1172
f 1172 1176 932
f 927 354 1171
f 1171 1172 927
f 354 926 1171
f 926 1179 1052
f 1052 1171 926
f 1179 924 1170
f 1170 1052 1179
f 924 925 1170
f 925 922 1053
f 1053 1170 925
f 922 1178 1053
f 1178 923 994
f 994 1053 1178
f 1095 1096 992
f 992 995 1095
f 1096 1097 993
f 993 992 1096
f 1097 1098 996
f 996 993 1097
f 1098 1099 997
f 997 996 1098
f 1099 1100 997
f 1100 1101 998
f 998 997 1100
f 1101 1102 999
f 999 998 1101
f 1102 1103 999
f 1103 1111 1005
f 1005 999 1103
f 1111 1109 1004
f 1004 1005 1111
f 1109 1110 1004
f 1110 1107 1003
f 1003 1004 1110
f 1107 1108 1002
f 1002 1003 1107
f 1108 1104 1001
f 1001 1002 1108
f 1104 1105 1000
f 1000 1001 1104
f 1105 1106 988
f 988 1000 1105
f 1106 919 988
f 919 920 1169
f 1169 988 919
f 920 921 991
f 991 1169 920
f 921 917 985
f 985 991 921
f 917 918 986
f 986 985 917
f 918 915 1054
f 1054 986 918
f 915 916 1054
f 916 1095 995
f 995 1054 916
f 974 1148 973
f 1148 974 476
f 978 1081 1040
f 1082 1040 1081
f 1040 1082 1041
f 1084 978 980
f 980 1083 1084
f 978 1084 1081
f 1086 983 1085
f 983 1086 1087
f 1083 980 1087
f 1113 1006 1112
f 1006 1113 1114
f 1114 1046 1006
f 1008 1115 1116
f 1116 1007 1008
f 1007 1116 1112
f 1118 1009 1117
f 1115 1008 1009
f 1009 1118 1115
f 1013 1119 1120
f 1120 1010 1013
f 1010 1120 1117
f 1122 1014 1121
f 1014 1122 1123
f 1123 1018 1014
f 1124 1017 1018
f 1018 1123 1124
f 1017 1124 1125
f 1182 1020 1125
f 1020 1182 1126
f 1126 1021 1020
f 1119 1013 1021
f 1021 1126 1119
f 1036 874 875
f 1036 875 1025
f 1157 876 877
f 877 1158 1157
f 874 1036 1158
f 1158 877 874
f 1159 878 879
f 879 1035 1159
f 876 1157 1035
f 1035 879 876
f 1140 1026 873
f 1026 1140 1127
f 884 1160 883
f 1160 884 885
f 885 1033 1160
f 1033 885 886
f 1033 886 887
f 887 1034 1033
f 878 1159 1034
f 1034 887 878
f 894 1131 1130
f 895 1132 1131
f 1131 894 895
f 1132 895 896
f 896 958 1132
f 897 959 958
f 958 896 897
f 1151 902 1134
f 968 903 904
f 904 1152 968
f 1152 904 902
f 902 1151 1152
f 1153 905 906
f 906 1154 1153
f 903 968 1154
f 1154 906 903
f 959 897 907
f 907 972 959
f 905 1153 972
f 972 907 905
f 1046 1114 1047
f 908 977 1047
f 977 908 909
f 1048 911 912
f 912 1049 1048
f 1049 912 913
f 914 1048 910
f 1048 914 911
f 934 1042 933
f 1042 934 935
f 935 1043 1042
f 936 1162 1043
f 1043 935 936
f 1162 936 937
f 937 1044 1162
f 938 1163 1044
f 1044 937 938
f 1163 938 939
f 939 1011 1163
f 940 1012 1011
f 1011 939 940
f 1165 943 944
f 944 1019 1165
f 1019 944 941
f 1166 945 946
f 946 1045 1166
f 943 1165 1045
f 1045 946 943
f 1012 940 947
f 947 1167 1012
f 945 1166 1167
f 1167 947 945
f 113 1139 872
f 1139 113 111
f 876 938 937
f 937 877 876
f 877 937 874
f 878 940 879
f 938 876 879
f 117 1140 111
f 1140 117 93
f 92 1128 93
f 1128 92 91
f 880 229 227
f 1141 882 227
f 882 1141 944
f 943 884 944
f 884 943 885
f 947 887 886
f 940 878 887
f 887 947 940
f 888 208 232
f 232 889 888
f 229 880 232
f 889 232 880
f 209 890 91
f 208 888 890
f 890 209 208
f 814 1056 1022
f 1022 1142 814
f 1055 815 1142
f 1142 1022 1055
f 816 1058 1057
f 1057 818 816
f 1056 814 818
f 818 1057 1056
f 107 1060 1059
f 1059 1143 107
f 1058 816 1143
f 1143 1059 1058
f 109 1062 1061
f 1061 108 109
f 1060 107 108
f 108 1061 1060
f 815 1055 1064
f 1064 823 815
f 1063 110 823
f 823 1064 1063
f 110 1063 948
f 948 122 110
f 1065 123 122
f 122 948 1065
f 224 1068 1067
f 1067 783 224
f 1066 826 783
f 783 1067 1066
f 826 1066 1070
f 1070 787 826
f 1069 225 787
f 787 1070 1069
f 225 1069 1072
f 1072 829 225
f 1071 827 829
f 829 1072 1071
f 827 1071 1073
f 1073 831 827
f 1062 109 831
f 831 1073 1062
f 834 1075 1074
f 1074 835 834
f 1068 224 835
f 835 1074 1068
f 123 1065 1076
f 1076 238 123
f 1075 834 238
f 238 1076 1075
f 1144 352 351
f 351 891 1144
f 891 351 355
f 898 1145 900
f 352 1144 900
f 1133 333 332
f 332 901 1133
f 1145 898 901
f 901 332 1145
f 902 459 461
f 461 1134 902
f 1134 461 458
f 458 1135 1134
f 903 462 1146
f 1146 904 903
f 459 902 1146
f 904 1146 902
f 462 903 906
f 932 907 897
f 907 932 905
f 1135 458 466
f 466 1136 1135
f 443 1137 1136
f 1136 466 443
f 1137 443 475
f 475 1138 1137
f 333 1133 1138
f 1138 475 333
f 344 950 951
f 951 342 344
f 953 343 342
f 342 951 953
f 343 953 1077
f 1077 838 343
f 954 839 838
f 838 1077 954
f 839 954 955
f 955 841 839
f 956 1147 841
f 841 955 956
f 1147 956 957
f 957 347 1147
f 960 348 347
f 347 957 960
f 961 850 1078
f 950 344 850
f 850 961 950
f 369 963 1079
f 857 964 1080
f 1080 858 857
f 965 859 858
f 858 1080 965
f 456 966 967
f 967 455 456
f 964 857 455
f 455 967 964
f 862 969 970
f 970 863 862
f 966 456 863
f 863 970 966
f 348 960 971
f 971 865 348
f 969 862 865
f 865 971 969
f 859 965 973
f 973 457 859
f 457 973 1148
f 963 369 476
f 1130 954 893
f 954 1130 1131
f 1132 956 1131
f 956 1132 958
f 961 1039 1149
f 963 1038 1150
f 965 1037 1155
f 1056 1025 1024
f 1025 1056 1057
f 1057 1036 1025
f 1060 1157 1158
f 1158 1059 1060
f 1059 1158 1036
f 1062 1159 1035
f 1035 1061 1062
f 1157 1060 1061
f 1061 1035 1157
f 1026 1064 1023
f 1028 1063 1064
f 1064 1026 1028
f 1028 948 1063
f 948 1028 1027
f 1160 1069 1070
f 1070 1032 1160
f 1069 1160 1033
f 1071 1033 1034
f 1034 1073 1071
f 1159 1062 1073
f 1073 1034 1159
f 1075 1029 949
f 975 1046 976
f 1049 981 1048
f 1049 982 981
f 1048 983 979
f 1043 1007 1042
f 1007 1043 1162
f 1044 1009 1162
f 1009 1044 1163
f 1045 1017 1166
f 1017 1045 1165
f 1168 1054 995
f 995 984 1168
f 1169 989 988
f 989 1169 991
f 993 1053 994
f 1170 996 997
f 1053 993 996
f 996 1170 1053
f 998 1171 1052
f 1170 997 1052
f 999 1172 1171
f 1171 998 999
f 988 987 1173
f 1173 1000 988
f 930 1001 1000
f 1000 1173 930
f 1001 930 1174
f 1174 1002 1001
f 1174 1003 1002
f 1003 1174 1175
f 1175 1004 1003
f 1004 1175 1176
f 1176 1005 1004
f 1172 999 1005
f 1005 1176 1172
f 1098 339 1099
f 339 1098 1097
f 566 1103 1102
f 1107 609 1108
f 609 1107 1110
f 1111 592 1109
f 1103 566 592
f 592 1111 1103
f 915 569 1177
f 1177 916 915
f 562 1095 916
f 916 1177 562
f 917 567 608
f 608 918 917
f 918 608 569
f 569 915 918
f 1106 449 919
f 597 919 449
f 595 920 919
f 919 597 595
f 920 595 596
f 596 921 920
f 567 917 921
f 921 596 567
f 469 928 1093
f 353 1178 922
f 357 923 1178
f 1178 353 357
f 924 358 925
f 926 895 1179
f 894 1179 895
f 358 924 1179
f 1179 894 358
f 895 926 354
f 469 464 463
f 463 929 469
f 929 463 459
f 906 931 462
f 931 906 1180
f 1041 115 114
f 114 933 1041
f 933 114 934
f 874 936 935
f 936 874 937
f 879 939 938
f 939 879 940
f 230 1181 1141
f 231 942 1181
f 1181 230 231
f 945 886 946
f 885 946 886
f 946 885 943
f 886 945 947
f 1112 505 1113
f 505 1112 1116
f 1117 509 1118
f 509 1117 1120
f 1114 503 1047
f 504 1047 503
f 501 908 1047
f 1047 504 501
f 908 501 502
f 502 909 908
f 611 910 909
f 909 502 611
f 911 539 542
f 542 912 911
f 212 913 912
f 912 542 212
f 910 611 612
f 612 914 910
f 539 911 914
f 914 612 539
