# USD → MuJoCo (world-space)
v -0.002619 -0.071935 0.146310
v -0.002077 -0.071937 0.145730
v -0.002787 -0.071934 0.144876
v -0.003125 -0.071931 0.145796
v -0.002619 -0.072892 0.146311
v -0.002077 -0.072894 0.145730
v -0.001836 -0.072894 0.146396
v -0.002787 -0.072891 0.144877
v -0.003125 -0.072888 0.145797
v -0.003580 -0.072882 0.144828
v -0.003580 -0.071926 0.144827
v -0.001836 -0.071937 0.146396
v -0.017775 -0.070771 0.136641
v -0.018290 -0.070694 0.135614
v -0.017775 -0.071727 0.136641
v -0.018290 -0.071650 0.135614
v -0.010574 -0.071593 0.138368
v -0.011609 -0.072461 0.138417
v -0.010574 -0.072550 0.138368
v -0.011609 -0.071505 0.138417
v -0.009554 -0.072627 0.138610
v -0.009554 -0.071670 0.138610
v -0.008593 -0.072691 0.139133
v -0.008593 -0.071734 0.139133
v -0.007698 -0.071786 0.139760
v -0.007698 -0.072742 0.139760
v -0.007246 -0.072765 0.139992
v -0.007246 -0.071809 0.139992
v -0.006773 -0.072788 0.140157
v -0.006320 -0.072807 0.140404
v -0.006773 -0.071831 0.140156
v -0.006320 -0.071851 0.140404
v -0.005893 -0.071867 0.140732
v -0.005893 -0.072823 0.140732
v -0.005157 -0.072848 0.141598
v -0.005503 -0.071880 0.141133
v -0.005503 -0.072837 0.141133
v -0.005157 -0.071891 0.141598
v -0.004860 -0.072856 0.142121
v -0.004263 -0.072870 0.142427
v -0.004860 -0.071899 0.142120
v -0.004263 -0.071914 0.142427
v -0.014043 -0.071257 0.138877
v -0.014043 -0.072214 0.138877
v -0.012827 -0.072344 0.138647
v -0.012827 -0.071388 0.138647
v -0.017444 -0.071775 0.137211
v -0.017058 -0.070874 0.137714
v -0.017058 -0.071831 0.137714
v -0.016623 -0.071891 0.138140
v -0.017444 -0.070819 0.137211
v -0.016623 -0.070935 0.138139
v -0.016148 -0.070999 0.138479
v -0.016148 -0.071955 0.138479
v -0.015642 -0.071064 0.138727
v -0.015642 -0.072021 0.138727
v -0.015116 -0.072087 0.138877
v -0.014580 -0.072152 0.138928
v -0.015116 -0.071131 0.138877
v -0.014580 -0.071195 0.138928
v -0.014740 -0.072133 0.136902
v -0.013512 -0.072273 0.136761
v -0.011149 -0.072502 0.136143
v -0.009177 -0.072654 0.136237
v -0.010491 -0.072557 0.136040
v -0.009829 -0.072608 0.136071
v -0.012331 -0.072394 0.136452
v -0.008552 -0.072694 0.136534
v -0.007967 -0.072728 0.136954
v -0.007436 -0.072757 0.137488
v -0.006971 -0.072779 0.138125
v -0.006181 -0.072813 0.139131
v -0.005237 -0.072845 0.140481
v -0.017122 -0.071822 0.136132
v -0.015962 -0.071980 0.136689
v -0.006181 -0.071856 0.139130
v -0.014740 -0.071177 0.136902
v -0.013512 -0.071317 0.136761
v -0.006971 -0.071823 0.138124
v -0.005237 -0.071889 0.140481
v -0.015962 -0.071024 0.136689
v -0.017122 -0.070866 0.136132
v -0.008552 -0.071738 0.136533
v -0.007967 -0.071772 0.136954
v -0.012331 -0.071438 0.136452
v -0.007436 -0.071800 0.137488
v -0.009177 -0.071697 0.136237
v -0.011149 -0.071546 0.136143
v -0.010491 -0.071600 0.136039
v -0.009829 -0.071651 0.136071
vt 0.000000 0.000000
vt 0.000000 0.000000
vt 0.000000 0.000000
vt 0.000000 0.000000
vt 0.000000 0.000000
vt 0.000000 0.000000
vt 0.000000 0.000000
vt 0.000000 0.000000
vt 0.000000 0.000000
vt 0.000000 0.000000
vt 0.000000 0.000000
vt 0.000000 0.000000
vt 0.000000 0.000000
vt 0.000000 0.000000
vt 0.000000 0.000000
vt 0.000000 0.000000
vt 0.000000 0.000000
vt 0.000000 0.000000
vt 0.000000 0.000000
vt 0.000000 0.000000
vt 0.000000 0.000000
vt 0.000000 0.000000
vt 0.000000 0.000000
vt 0.000000 0.000000
vt 0.000000 0.000000
vt 0.000000 0.000000
vt 0.000000 0.000000
vt 0.000000 0.000000
vt 0.000000 0.000000
vt 0.000000 0.000000
vt 0.000000 0.000000
vt 0.000000 0.000000
vt 0.000000 0.000000
vt 0.000000 0.000000
vt 0.000000 0.000000
vt 0.000000 0.000000
vt 0.000000 0.000000
vt 0.000000 0.000000
vt 0.000000 0.000000
vt 0.000000 0.000000
vt 0.000000 0.000000
vt 0.000000 0.000000
vt 0.000000 0.000000
vt 0.000000 0.000000
vt 0.000000 0.000000
vt 0.000000 0.000000
vt 0.000000 0.000000
vt 0.000000 0.000000
vt 0.000000 0.000000
vt 0.000000 0.000000
vt 0.000000 0.000000
vt 0.000000 0.000000
vt 0.000000 0.000000
vt 0.000000 0.000000
vt 0.000000 0.000000
vt 0.000000 0.000000
vt 0.000000 0.000000
vt 0.000000 0.000000
vt 0.000000 0.000000
vt 0.000000 0.000000
vt 0.000000 0.000000
vt 0.000000 0.000000
vt 0.000000 0.000000
vt 0.000000 0.000000
vt 0.000000 0.000000
vt 0.000000 0.000000
vt 0.000000 0.000000
vt 0.000000 0.000000
vt 0.000000 0.000000
vt 0.000000 0.000000
vt 0.000000 0.000000
vt 0.000000 0.000000
vt 0.000000 0.000000
vt 0.000000 0.000000
vt 0.000000 0.000000
vt 0.000000 0.000000
vt 0.000000 0.000000
vt 0.000000 0.000000
vt 0.000000 0.000000
vt 0.000000 0.000000
vt 0.000000 0.000000
vt 0.000000 0.000000
vt 0.000000 0.000000
vt 0.000000 0.000000
vt 0.000000 0.000000
vt 0.000000 0.000000
vt 0.000000 0.000000
vt 0.000000 0.000000
vt 0.000000 0.000000
vt 0.000000 0.000000
vt 0.000000 0.000000
vt 0.000000 0.000000
vt 0.000000 0.000000
vt 0.000000 0.000000
vt 0.000000 0.000000
vt 0.000000 0.000000
vt 0.000000 0.000000
vt 0.000000 0.000000
vt 0.000000 0.000000
vt 0.000000 0.000000
vt 0.000000 0.000000
vt 0.000000 0.000000
vt 0.000000 0.000000
vt 0.000000 0.000000
vt 0.000000 0.000000
vt 0.000000 0.000000
vt 0.000000 0.000000
vt 0.000000 0.000000
vt 0.000000 0.000000
vt 0.000000 0.000000
vt 0.000000 0.000000
vt 0.000000 0.000000
vt 0.000000 0.000000
vt 0.000000 0.000000
vt 0.000000 0.000000
vt 0.000000 0.000000
vt 0.000000 0.000000
vt 0.000000 0.000000
vt 0.000000 0.000000
vt 0.000000 0.000000
vt 0.000000 0.000000
vt 0.000000 0.000000
vt 0.000000 0.000000
vt 0.000000 0.000000
vt 0.000000 0.000000
vt 0.000000 0.000000
vt 0.000000 0.000000
vt 0.000000 0.000000
vt 0.000000 0.000000
vt 0.000000 0.000000
vt 0.000000 0.000000
vt 0.000000 0.000000
vt 0.000000 0.000000
vt 0.000000 0.000000
vt 0.000000 0.000000
vt 0.000000 0.000000
vt 0.000000 0.000000
vt 0.000000 0.000000
vt 0.000000 0.000000
vt 0.000000 0.000000
vt 0.000000 0.000000
vt 0.000000 0.000000
vt 0.000000 0.000000
vt 0.000000 0.000000
vt 0.000000 0.000000
vt 0.000000 0.000000
vt 0.000000 0.000000
vt 0.000000 0.000000
vt 0.000000 0.000000
vt 0.000000 0.000000
vt 0.000000 0.000000
vt 0.000000 0.000000
vt 0.000000 0.000000
vt 0.000000 0.000000
vt 0.000000 0.000000
vt 0.000000 0.000000
vt 0.000000 0.000000
vt 0.000000 0.000000
vt 0.000000 0.000000
vt 0.000000 0.000000
vt 0.000000 0.000000
vt 0.000000 0.000000
vt 0.000000 0.000000
vt 0.000000 0.000000
vt 0.000000 0.000000
vt 0.000000 0.000000
vt 0.000000 0.000000
vt 0.000000 0.000000
vt 0.000000 0.000000
vt 0.000000 0.000000
vt 0.000000 0.000000
vt 0.000000 0.000000
vt 0.000000 0.000000
vt 0.000000 0.000000
vt 0.000000 0.000000
vt 0.000000 0.000000
vt 0.000000 0.000000
vt 0.000000 0.000000
vt 0.000000 0.000000
vt 0.000000 0.000000
vt 0.000000 0.000000
vt 0.000000 0.000000
vt 0.000000 0.000000
vt 0.000000 0.000000
vt 0.000000 0.000000
vt 0.000000 0.000000
vt 0.000000 0.000000
vt 0.000000 0.000000
vt 0.000000 0.000000
vt 0.000000 0.000000
vt 0.000000 0.000000
vt 0.000000 0.000000
vt 0.000000 0.000000
vt 0.000000 0.000000
vt 0.000000 0.000000
vt 0.000000 0.000000
vt 0.000000 0.000000
vt 0.000000 0.000000
vt 0.000000 0.000000
vt 0.000000 0.000000
vt 0.000000 0.000000
vt 0.000000 0.000000
vt 0.000000 0.000000
vt 0.000000 0.000000
vt 0.000000 0.000000
vt 0.000000 0.000000
vt 0.000000 0.000000
vt 0.000000 0.000000
vt 0.000000 0.000000
vt 0.000000 0.000000
vt 0.000000 0.000000
vt 0.000000 0.000000
vt 0.000000 0.000000
vt 0.000000 0.000000
vt 0.000000 0.000000
vt 0.000000 0.000000
vt 0.000000 0.000000
vt 0.000000 0.000000
vt 0.000000 0.000000
vt 0.000000 0.000000
vt 0.000000 0.000000
vt 0.000000 0.000000
vt 0.000000 0.000000
vt 0.000000 0.000000
vt 0.000000 0.000000
vt 0.000000 0.000000
vt 0.000000 0.000000
vt 0.000000 0.000000
vt 0.000000 0.000000
vt 0.000000 0.000000
vt 0.000000 0.000000
vt 0.000000 0.000000
vt 0.000000 0.000000
vt 0.000000 0.000000
vt 0.000000 0.000000
vt 0.000000 0.000000
vt 0.000000 0.000000
vt 0.000000 0.000000
vt 0.000000 0.000000
vt 0.000000 0.000000
vt 0.000000 0.000000
vt 0.000000 0.000000
vt 0.000000 0.000000
vt 0.000000 0.000000
vt 0.000000 0.000000
vt 0.000000 0.000000
vt 0.000000 0.000000
vt 0.000000 0.000000
vt 0.000000 0.000000
vt 0.000000 0.000000
vt 0.000000 0.000000
vt 0.000000 0.000000
vt 0.000000 0.000000
vt 0.000000 0.000000
vt 0.000000 0.000000
vt 0.000000 0.000000
vt 0.000000 0.000000
vt 0.000000 0.000000
vt 0.000000 0.000000
vt 0.000000 0.000000
vt 0.000000 0.000000
vt 0.000000 0.000000
vt 0.000000 0.000000
vt 0.000000 0.000000
vt 0.000000 0.000000
vt 0.000000 0.000000
vt 0.000000 0.000000
vt 0.000000 0.000000
vt 0.000000 0.000000
vt 0.000000 0.000000
vt 0.000000 0.000000
vt 0.000000 0.000000
vt 0.000000 0.000000
vt 0.000000 0.000000
vt 0.000000 0.000000
vt 0.000000 0.000000
vt 0.000000 0.000000
vt 0.000000 0.000000
vt 0.000000 0.000000
vt 0.000000 0.000000
vt 0.000000 0.000000
vt 0.000000 0.000000
vt 0.000000 0.000000
vt 0.000000 0.000000
vt 0.000000 0.000000
vt 0.000000 0.000000
vt 0.000000 0.000000
vt 0.000000 0.000000
vt 0.000000 0.000000
vt 0.000000 0.000000
vt 0.000000 0.000000
vt 0.000000 0.000000
vt 0.000000 0.000000
vt 0.000000 0.000000
vt 0.000000 0.000000
vt 0.000000 0.000000
vt 0.000000 0.000000
vt 0.000000 0.000000
vt 0.000000 0.000000
vt 0.000000 0.000000
vt 0.000000 0.000000
vt 0.000000 0.000000
vt 0.000000 0.000000
vt 0.000000 0.000000
vt 0.000000 0.000000
vt 0.000000 0.000000
vt 0.000000 0.000000
vt 0.000000 0.000000
vt 0.000000 0.000000
vt 0.000000 0.000000
vt 0.000000 0.000000
vt 0.000000 0.000000
vt 0.000000 0.000000
vt 0.000000 0.000000
vt 0.000000 0.000000
vt 0.000000 0.000000
vt 0.000000 0.000000
vt 0.000000 0.000000
vt 0.000000 0.000000
vt 0.000000 0.000000
vt 0.000000 0.000000
vt 0.000000 0.000000
vt 0.000000 0.000000
vt 0.000000 0.000000
vt 0.000000 0.000000
vt 0.000000 0.000000
vt 0.000000 0.000000
vt 0.000000 0.000000
vt 0.000000 0.000000
vt 0.000000 0.000000
vt 0.000000 0.000000
vt 0.000000 0.000000
vt 0.000000 0.000000
vt 0.000000 0.000000
vt 0.000000 0.000000
vt 0.000000 0.000000
vt 0.000000 0.000000
vt 0.000000 0.000000
vt 0.000000 0.000000
vt 0.000000 0.000000
vt 0.000000 0.000000
vt 0.000000 0.000000
vt 0.000000 0.000000
vt 0.000000 0.000000
vt 0.000000 0.000000
vt 0.000000 0.000000
vt 0.000000 0.000000
vt 0.000000 0.000000
vt 0.000000 0.000000
vt 0.000000 0.000000
vt 0.000000 0.000000
vt 0.000000 0.000000
vt 0.000000 0.000000
vt 0.000000 0.000000
vt 0.000000 0.000000
vt 0.000000 0.000000
vt 0.000000 0.000000
vt 0.000000 0.000000
vt 0.000000 0.000000
vt 0.000000 0.000000
vt 0.000000 0.000000
vt 0.000000 0.000000
vt 0.000000 0.000000
vt 0.000000 0.000000
vt 0.000000 0.000000
vt 0.000000 0.000000
vt 0.000000 0.000000
vt 0.000000 0.000000
vt 0.000000 0.000000
vt 0.000000 0.000000
vt 0.000000 0.000000
vt 0.000000 0.000000
vt 0.000000 0.000000
vt 0.000000 0.000000
vt 0.000000 0.000000
vt 0.000000 0.000000
vt 0.000000 0.000000
vt 0.000000 0.000000
vt 0.000000 0.000000
vt 0.000000 0.000000
vt 0.000000 0.000000
vt 0.000000 0.000000
vt 0.000000 0.000000
vt 0.000000 0.000000
vt 0.000000 0.000000
vt 0.000000 0.000000
vt 0.000000 0.000000
vt 0.000000 0.000000
vt 0.000000 0.000000
vt 0.000000 0.000000
vt 0.000000 0.000000
vt 0.000000 0.000000
vt 0.000000 0.000000
vt 0.000000 0.000000
vt 0.000000 0.000000
vt 0.000000 0.000000
vt 0.000000 0.000000
vt 0.000000 0.000000
vt 0.000000 0.000000
vt 0.000000 0.000000
vt 0.000000 0.000000
vt 0.000000 0.000000
vt 0.000000 0.000000
vt 0.000000 0.000000
vt 0.000000 0.000000
vt 0.000000 0.000000
vt 0.000000 0.000000
vt 0.000000 0.000000
vt 0.000000 0.000000
vt 0.000000 0.000000
vt 0.000000 0.000000
vt 0.000000 0.000000
vt 0.000000 0.000000
vt 0.000000 0.000000
vt 0.000000 0.000000
vt 0.000000 0.000000
vt 0.000000 0.000000
vt 0.000000 0.000000
vt 0.000000 0.000000
vt 0.000000 0.000000
vt 0.000000 0.000000
vt 0.000000 0.000000
vt 0.000000 0.000000
vt 0.000000 0.000000
vt 0.000000 0.000000
vt 0.000000 0.000000
vt 0.000000 0.000000
vt 0.000000 0.000000
vt 0.000000 0.000000
vt 0.000000 0.000000
vt 0.000000 0.000000
vt 0.000000 0.000000
vt 0.000000 0.000000
vt 0.000000 0.000000
vt 0.000000 0.000000
vt 0.000000 0.000000
vt 0.000000 0.000000
vt 0.000000 0.000000
vt 0.000000 0.000000
vt 0.000000 0.000000
vt 0.000000 0.000000
vt 0.000000 0.000000
vt 0.000000 0.000000
vt 0.000000 0.000000
vt 0.000000 0.000000
vt 0.000000 0.000000
vt 0.000000 0.000000
vt 0.000000 0.000000
vt 0.000000 0.000000
vt 0.000000 0.000000
vt 0.000000 0.000000
vt 0.000000 0.000000
vt 0.000000 0.000000
vt 0.000000 0.000000
vt 0.000000 0.000000
vt 0.000000 0.000000
vt 0.000000 0.000000
vt 0.000000 0.000000
vt 0.000000 0.000000
vt 0.000000 0.000000
vt 0.000000 0.000000
vt 0.000000 0.000000
vt 0.000000 0.000000
vt 0.000000 0.000000
vt 0.000000 0.000000
vt 0.000000 0.000000
vt 0.000000 0.000000
vt 0.000000 0.000000
vt 0.000000 0.000000
vt 0.000000 0.000000
vt 0.000000 0.000000
vt 0.000000 0.000000
vt 0.000000 0.000000
vt 0.000000 0.000000
vt 0.000000 0.000000
vt 0.000000 0.000000
vt 0.000000 0.000000
vt 0.000000 0.000000
vt 0.000000 0.000000
vt 0.000000 0.000000
vt 0.000000 0.000000
vt 0.000000 0.000000
vt 0.000000 0.000000
vt 0.000000 0.000000
vt 0.000000 0.000000
vt 0.000000 0.000000
vt 0.000000 0.000000
vt 0.000000 0.000000
vt 0.000000 0.000000
vt 0.000000 0.000000
vt 0.000000 0.000000
vt 0.000000 0.000000
vt 0.000000 0.000000
vt 0.000000 0.000000
vt 0.000000 0.000000
vt 0.000000 0.000000
vt 0.000000 0.000000
vt 0.000000 0.000000
vt 0.000000 0.000000
vt 0.000000 0.000000
vt 0.000000 0.000000
vt 0.000000 0.000000
vt 0.000000 0.000000
vt 0.000000 0.000000
vt 0.000000 0.000000
vt 0.000000 0.000000
vt 0.000000 0.000000
vt 0.000000 0.000000
vt 0.000000 0.000000
vt 0.000000 0.000000
vt 0.000000 0.000000
vt 0.000000 0.000000
vt 0.000000 0.000000
vt 0.000000 0.000000
vt 0.000000 0.000000
vt 0.000000 0.000000
f 1/1 2/2 3/3
f 3/4 4/5 1/6
f 5/7 6/8 7/9
f 8/10 6/11 5/12
f 8/13 9/14 10/15
f 5/16 9/17 8/18
f 4/19 9/20 5/21
f 5/22 1/23 4/24
f 10/25 9/26 4/27
f 4/28 11/29 10/30
f 1/31 5/32 7/33
f 7/34 12/35 1/36
f 11/37 4/38 3/39
f 1/40 12/41 2/42
f 3/43 2/44 6/45
f 6/46 8/47 3/48
f 10/49 11/50 3/51
f 3/52 8/53 10/54
f 12/55 7/56 6/57
f 6/58 2/59 12/60
f 13/61 14/62 15/63
f 16/64 15/65 14/66
f 17/67 18/68 19/69
f 18/70 17/71 20/72
f 17/73 21/74 22/75
f 21/76 17/77 19/78
f 22/79 23/80 24/81
f 25/82 24/83 26/84
f 23/85 26/86 24/87
f 21/88 23/89 22/90
f 27/91 25/92 26/93
f 28/94 27/95 29/96
f 29/97 30/98 31/99
f 28/100 25/101 27/102
f 31/103 30/104 32/105
f 29/106 31/107 28/108
f 33/109 32/110 34/111
f 34/112 32/113 30/114
f 35/115 36/116 37/117
f 38/118 35/119 39/120
f 39/121 40/122 41/123
f 37/124 36/125 33/126
f 39/127 41/128 38/129
f 40/130 42/131 41/132
f 38/133 36/134 35/135
f 34/136 37/137 33/138
f 43/139 44/140 45/141
f 45/142 46/143 43/144
f 46/145 45/146 18/147
f 18/148 20/149 46/150
f 13/151 15/152 47/153
f 48/154 49/155 50/156
f 51/157 47/158 49/159
f 51/160 13/161 47/162
f 48/163 50/164 52/165
f 49/166 48/167 51/168
f 53/169 52/170 54/171
f 54/172 52/173 50/174
f 55/175 56/176 57/177
f 43/178 58/179 44/180
f 59/181 57/182 58/183
f 55/184 53/185 56/186
f 55/187 57/188 59/189
f 58/190 60/191 59/192
f 60/193 58/194 43/195
f 54/196 56/197 53/198
f 61/199 62/200 45/201
f 19/202 63/203 64/204
f 65/205 66/206 63/207
f 64/208 63/209 66/210
f 19/211 67/212 63/213
f 68/214 19/215 64/216
f 67/217 19/218 18/219
f 67/220 18/221 62/222
f 69/223 19/224 68/225
f 70/226 21/227 69/228
f 21/229 70/230 71/231
f 19/232 69/233 21/234
f 54/235 50/236 61/237
f 45/238 44/239 61/240
f 45/241 62/242 18/243
f 21/244 71/245 23/246
f 44/247 56/248 61/249
f 61/250 56/251 54/252
f 58/253 57/254 44/255
f 56/256 44/257 57/258
f 26/259 23/260 72/261
f 27/262 26/263 72/264
f 71/265 72/266 23/267
f 30/268 29/269 72/270
f 27/271 72/272 29/273
f 73/274 34/275 30/276
f 37/277 34/278 73/279
f 72/280 73/281 30/282
f 40/283 39/284 35/285
f 73/286 40/287 35/288
f 37/289 73/290 35/291
f 15/292 16/293 74/294
f 47/295 15/296 75/297
f 49/298 47/299 75/300
f 75/301 61/302 49/303
f 50/304 49/305 61/306
f 74/307 75/308 15/309
f 25/310 28/311 76/312
f 24/313 25/314 76/315
f 43/316 59/317 60/318
f 55/319 43/320 77/321
f 59/322 43/323 55/324
f 77/325 43/326 46/327
f 46/328 20/329 78/330
f 22/331 24/332 79/333
f 55/334 77/335 53/336
f 79/337 24/338 76/339
f 42/340 38/341 41/342
f 42/343 80/344 38/345
f 76/346 31/347 32/348
f 28/349 31/350 76/351
f 80/352 76/353 32/354
f 80/355 33/356 36/357
f 32/358 33/359 80/360
f 38/361 80/362 36/363
f 81/364 51/365 48/366
f 52/367 77/368 48/369
f 81/370 48/371 77/372
f 77/373 46/374 78/375
f 81/376 13/377 51/378
f 13/379 82/380 14/381
f 81/382 82/383 13/384
f 83/385 17/386 84/387
f 85/388 78/389 20/390
f 22/391 79/392 86/393
f 86/394 84/395 22/396
f 17/397 85/398 20/399
f 84/400 17/401 22/402
f 17/403 87/404 88/405
f 89/406 88/407 90/408
f 17/409 83/410 87/411
f 90/412 88/413 87/414
f 85/415 17/416 88/417
f 52/418 53/419 77/420
f 79/421 76/422 72/423
f 71/424 79/425 72/426
f 86/427 79/428 71/429
f 80/430 42/431 40/432
f 76/433 73/434 72/435
f 73/436 76/437 80/438
f 40/439 73/440 80/441
f 84/442 70/443 69/444
f 84/445 69/446 83/447
f 86/448 70/449 84/450
f 83/451 69/452 68/453
f 70/454 86/455 71/456
f 77/457 78/458 61/459
f 62/460 61/461 78/462
f 61/463 81/464 77/465
f 81/466 61/467 75/468
f 14/469 74/470 16/471
f 75/472 82/473 81/474
f 14/475 82/476 74/477
f 74/478 82/479 75/480
f 66/481 90/482 64/483
f 65/484 89/485 66/486
f 63/487 89/488 65/489
f 87/490 83/491 68/492
f 66/493 89/494 90/495
f 63/496 88/497 89/498
f 90/499 87/500 64/501
f 64/502 87/503 68/504
f 88/505 63/506 67/507
f 85/508 88/509 67/510
f 78/511 85/512 62/513
f 67/514 62/515 85/516
