# USD → MuJoCo (world-space, simplified)
v -4.968140 5.835654 0.561438
v -4.984422 5.831580 0.565511
v -4.958016 5.825460 0.566646
v -4.508082 5.825608 0.566772
v -4.507507 5.832369 0.563667
v -4.506436 5.837452 0.557721
v -4.504918 5.839382 0.552984
v -4.502320 5.840057 0.548038
v -4.499573 5.834487 0.534463
v -4.500711 5.827724 0.570353
v -4.498019 5.832635 0.569072
v -4.494632 5.838770 0.560892
v -4.490544 5.837356 0.541670
v -4.484387 5.828074 0.536735
v -4.488749 5.838837 0.546879
v -4.501576 5.817913 0.572055
v -4.491179 5.837450 0.572354
v -4.480246 5.840009 0.565085
v -4.477217 5.835956 0.550918
v -4.472042 5.826621 0.547117
v -4.486559 5.839378 0.572165
v -4.466939 5.830317 0.560636
v -4.464691 5.822984 0.559051
v -4.500909 5.820483 0.576199
v -4.481343 5.840057 0.573690
v -4.469548 5.836124 0.569407
v -4.464492 5.830330 0.573956
v -4.462538 5.825623 0.573746
v -4.500192 5.825590 0.584617
v -4.498238 5.830305 0.584576
v -4.495110 5.834343 0.584555
v -4.476289 5.839387 0.576181
v -4.469519 5.836298 0.617923
v -4.461837 5.820483 0.573378
v -4.957149 5.820492 0.567295
v -4.959935 5.830564 0.564669
v -5.130496 5.839380 0.552828
v -5.130736 5.839396 0.542751
v -5.130496 5.834317 0.533929
v -5.131105 5.838641 0.549990
v -5.131793 5.836317 0.543521
v -4.985789 5.829959 0.564874
v -4.987806 5.825401 0.566660
v -4.909041 5.839380 0.552827
v -4.909041 5.837436 0.557551
v -4.565939 5.839380 0.552827
v -4.565939 5.840059 0.547763
v -4.909041 5.840059 0.547763
v -4.909041 5.839380 0.542700
v -4.565939 5.839380 0.542700
v -4.909041 5.837436 0.537975
v -4.909041 5.834317 0.533929
v -4.909041 5.830271 0.530810
v -4.909041 5.825547 0.528866
v -4.909041 5.834317 0.561597
v -4.963342 5.837381 0.557777
v -4.959507 5.839386 0.552788
v -4.981932 5.837775 0.557289
v -4.981406 5.839379 0.552815
v -4.983272 5.834363 0.561542
v -4.972802 5.836267 0.560753
v -4.978619 5.835510 0.561919
v -4.988594 5.820483 0.567302
v -4.909039 5.825547 0.566661
v -4.963740 5.833464 0.562532
v -4.964252 5.807219 0.563155
v -4.968137 5.805334 0.561510
v -4.972872 5.804701 0.560953
v -4.957956 5.815254 0.566584
v -4.959887 5.810403 0.623051
v -4.980334 5.806419 0.562447
v -4.507488 5.817813 0.567457
v -4.506382 5.803565 0.557824
v -4.503375 5.801604 0.553279
v -4.501595 5.803531 0.538203
v -4.499784 5.808481 0.533029
v -4.506587 5.810823 0.564979
v -4.488441 5.817738 0.532695
v -4.505752 5.806765 0.561947
v -4.489696 5.800941 0.551599
v -4.485417 5.804494 0.543826
v -4.483998 5.812768 0.537105
v -4.495558 5.803645 0.563389
v -4.487041 5.801616 0.566661
v -4.476427 5.808547 0.546603
v -4.472932 5.817605 0.545076
v -4.474823 5.802416 0.564513
v -4.499136 5.809412 0.569843
v -4.466481 5.810574 0.560602
v -4.499644 5.812978 0.575404
v -4.493139 5.804606 0.573667
v -4.481343 5.800910 0.573690
v -4.476362 5.801587 0.574764
v -4.498257 5.810653 0.635941
v -4.471541 5.803505 0.584279
v -4.467610 5.806669 0.573640
v -4.464502 5.810730 0.573293
v -4.462468 5.815255 0.575025
v -5.130679 5.806655 0.561602
v -5.131234 5.806274 0.556004
v -5.130894 5.801597 0.552863
v -5.130680 5.801586 0.542700
v -5.130806 5.815416 0.528870
v -5.131513 5.811992 0.562231
v -5.131259 5.818602 0.531324
v -4.987806 5.815565 0.566660
v -4.909041 5.801586 0.552827
v -4.909040 5.803530 0.557551
v -4.909041 5.801586 0.542700
v -4.854565 5.810695 0.530810
v -4.909041 5.806649 0.533929
v -4.909040 5.806649 0.561597
v -4.913861 5.800907 0.547763
v -4.959558 5.801583 0.552804
v -4.966592 5.802940 0.556945
v -4.981404 5.801585 0.552811
v -4.979181 5.803776 0.558248
v -4.959292 5.807030 0.561963
v -4.983641 5.808584 0.563425
v -5.027900 5.812286 0.565645
v -5.029805 5.806676 0.561380
v -4.977286 5.805123 0.560988
v -4.565938 5.815420 0.566661
v -4.959851 5.810432 0.564665
v -4.986179 5.811533 0.565177
v -4.968112 5.835639 0.651030
v -4.972822 5.836264 0.650740
v -4.977269 5.835827 0.649725
v -4.987662 5.825513 0.645057
v -4.957107 5.820476 0.644396
v -4.986250 5.829297 0.605845
v -4.508291 5.818134 0.644216
v -4.504435 5.839368 0.658500
v -4.497713 5.840044 0.664574
v -4.504251 5.837394 0.673461
v -4.501153 5.830059 0.680512
v -4.505304 5.825382 0.682552
v -4.506907 5.828276 0.645631
v -4.505189 5.836432 0.651937
v -4.501747 5.834192 0.677432
v -4.490473 5.837468 0.668842
v -4.480587 5.839411 0.653489
v -4.484735 5.830385 0.674175
v -4.498503 5.835168 0.645691
v -4.476376 5.836134 0.659023
v -4.473416 5.826024 0.666688
v -4.482572 5.840060 0.647756
v -4.502689 5.823030 0.641347
v -4.499584 5.828340 0.637794
v -4.493038 5.836448 0.638528
v -4.469732 5.836105 0.643079
v -4.465834 5.830357 0.648175
v -4.476468 5.839379 0.638127
v -4.464417 5.830244 0.632465
v -4.463454 5.822998 0.649600
v -4.461960 5.818480 0.640151
v -4.462481 5.825509 0.632630
v -4.486876 5.839355 0.645805
v -4.958492 5.830835 0.647201
v -5.074000 5.838727 0.671433
v -5.074469 5.824751 0.648089
v -5.074030 5.836102 0.651874
v -4.988544 5.820483 0.644388
v -4.908614 5.840059 0.663927
v -4.908614 5.837436 0.673715
v -4.908614 5.839380 0.668990
v -4.564151 5.834317 0.677761
v -4.564151 5.830271 0.680880
v -4.564151 5.825547 0.682824
v -4.908614 5.834317 0.650093
v -4.956306 5.836280 0.652166
v -4.971926 5.839367 0.658735
v -4.972164 5.837810 0.653630
v -4.978946 5.836998 0.653257
v -4.957937 5.825423 0.645024
v -4.711091 5.825547 0.645030
v -4.710788 5.820483 0.644351
v -4.960242 5.830967 0.645280
v -4.984425 5.831577 0.646174
v -4.985870 5.829799 0.646702
v -4.980908 5.834212 0.649912
v -4.960372 5.810035 0.646438
v -4.507718 5.810646 0.646859
v -4.507145 5.806614 0.649960
v -4.506761 5.803519 0.654040
v -4.503844 5.801587 0.658665
v -4.502315 5.800909 0.663649
v -4.505740 5.801585 0.668854
v -4.504335 5.806598 0.677489
v -4.501115 5.810574 0.680312
v -4.496611 5.820483 0.682175
v -4.500224 5.810709 0.642199
v -4.497728 5.805180 0.646879
v -4.494494 5.802186 0.650669
v -4.490473 5.803498 0.668842
v -4.500678 5.803747 0.673827
v -4.485647 5.808565 0.672796
v -4.484265 5.817982 0.676488
v -4.489444 5.801567 0.662892
v -4.478259 5.803500 0.657706
v -4.473418 5.808548 0.661291
v -4.471949 5.817139 0.665253
v -4.476576 5.801567 0.643826
v -4.493369 5.804813 0.636990
v -4.486463 5.801582 0.639227
v -4.465713 5.810481 0.648906
v -4.500809 5.817432 0.634793
v -4.482572 5.800907 0.647756
v -4.471984 5.803522 0.642641
v -4.467532 5.806635 0.631335
v -4.464413 5.810674 0.631548
v -4.957317 5.810699 0.646968
v -5.074005 5.801911 0.670314
v -5.073999 5.811878 0.681806
v -5.074012 5.810661 0.647003
v -5.073950 5.804718 0.652067
v -5.073932 5.801589 0.658879
v -5.073932 5.800915 0.663941
v -5.074768 5.808553 0.652167
v -4.985101 5.809973 0.647018
v -4.987662 5.815453 0.645057
v -4.908613 5.803530 0.654139
v -4.908614 5.801586 0.658863
v -4.564153 5.800907 0.663927
v -4.564151 5.801586 0.668990
v -4.908614 5.801586 0.668990
v -4.908613 5.803530 0.673715
v -4.908614 5.806649 0.677760
v -4.908613 5.810695 0.646974
v -4.958526 5.803579 0.654122
v -4.912582 5.801600 0.658777
v -4.913445 5.800907 0.663927
v -4.959875 5.801589 0.658850
v -4.981407 5.801587 0.658875
v -4.961693 5.806849 0.649833
v -4.971591 5.803191 0.653602
v -5.027694 5.804826 0.651921
v -5.028896 5.810736 0.647111
v -4.966860 5.805669 0.649951
v -4.972816 5.804694 0.650768
v -4.978965 5.805591 0.650397
v -4.958337 5.814339 0.644537
v -4.983832 5.804181 0.652898
v -5.159461 5.824731 0.563585
v -5.159534 5.836189 0.543162
v -5.159488 5.804358 0.550969
v -5.159359 5.814188 0.563040
v -5.102405 5.820551 0.647530
v -5.102677 5.804139 0.661139
v -5.102661 5.819798 0.680519
v -5.102723 5.830540 0.677039
v -5.102287 5.836840 0.661617
v -5.102655 5.833560 0.653835
v -5.131454 5.828660 0.562014
v -5.130789 5.820508 0.567339
v -5.130806 5.837433 0.557554
v -5.130806 5.834311 0.561601
v -5.130875 5.830274 0.530813
v -5.130908 5.837430 0.537965
v -5.130880 5.820487 0.528189
v -5.130877 5.825551 0.528868
v -5.131667 5.821986 0.564247
v -5.131247 5.833534 0.557943
v -5.131277 5.836843 0.550110
v -5.131247 5.834693 0.539551
v -5.131247 5.830662 0.534712
v -5.131243 5.824701 0.531900
v -5.159462 5.820482 0.564153
v -5.159473 5.831565 0.559884
v -5.159351 5.836729 0.552332
v -5.159167 5.828677 0.533562
v -5.159477 5.822486 0.531366
v -5.130547 5.806650 0.533929
v -5.130807 5.810693 0.530815
v -5.131656 5.804648 0.552006
v -5.131657 5.804080 0.547762
v -5.130818 5.800911 0.547759
v -5.131663 5.805239 0.541359
v -5.130919 5.803549 0.537955
v -5.158975 5.807392 0.557856
v -5.159472 5.804716 0.543693
v -5.159451 5.811276 0.533493
v -5.074828 5.820481 0.647521
v -5.074828 5.828684 0.649718
v -5.074392 5.833759 0.654039
v -5.074841 5.836895 0.661918
v -5.074003 5.840074 0.661702
v -5.074451 5.835512 0.670796
v -5.074603 5.830855 0.676798
v -5.074829 5.822690 0.680320
v -5.073977 5.824633 0.683102
v -5.074828 5.816237 0.648090
v -5.074844 5.804110 0.661631
v -5.074375 5.805671 0.672083
v -5.074841 5.814017 0.679145
v -5.101945 5.816241 0.648094
v -5.102670 5.811107 0.650407
v -5.102505 5.805341 0.670502
v -5.073972 5.832525 0.679551
v -5.031139 5.837429 0.557549
v -5.130496 5.803532 0.557555
v -5.159420 5.833241 0.537310
v -5.131342 5.811121 0.534164
v -5.102059 5.835930 0.669742
v -5.102289 5.810255 0.676901
v -5.102622 5.827849 0.649227
v -4.561669 5.837421 0.557545
v -4.563528 5.839236 0.552473
v -4.561662 5.840050 0.547751
v -4.516655 5.837437 0.538021
v -4.513530 5.832672 0.532343
v -4.561767 5.831435 0.531429
v -4.561662 5.820471 0.528196
v -4.561603 5.832516 0.563377
v -4.563441 5.825447 0.566575
v -4.561677 5.800965 0.544912
v -4.561666 5.801588 0.552790
v -4.516595 5.806657 0.533967
v -4.561680 5.818075 0.567327
v -4.560077 5.825632 0.682847
v -4.560162 5.817874 0.644387
v -4.560144 5.803530 0.654149
v -4.560236 5.801622 0.659048
v -4.560246 5.805662 0.676843
v -4.563570 5.838717 0.543031
v -4.561834 5.825458 0.528954
v -4.563375 5.834907 0.559442
v -4.562905 5.804465 0.536685
v -4.563205 5.809686 0.531562
v -4.563138 5.803506 0.557367
v -4.563134 5.806602 0.561447
v -4.562056 5.838865 0.664106
v -4.561818 5.837747 0.657369
v -4.563201 5.834652 0.650510
v -4.561600 5.837303 0.673867
v -4.562048 5.833685 0.677289
v -4.562842 5.804582 0.652768
v -4.562056 5.804474 0.672963
v -4.564989 5.830268 0.564716
v -4.563570 5.802249 0.552496
v -4.564990 5.801587 0.542700
v -4.564990 5.803531 0.537975
v -4.563673 5.820321 0.528932
v -4.564420 5.832160 0.532744
v -4.561935 5.838760 0.540474
v -4.563126 5.825851 0.645282
v -4.563237 5.820461 0.644523
v -4.563301 5.814268 0.645475
v -4.560225 5.800899 0.665724
v -4.560084 5.810766 0.680967
v -4.560163 5.815552 0.682852
v -4.564151 5.840059 0.663927
v -4.564151 5.839380 0.658863
v -4.564151 5.839380 0.668990
v -4.564151 5.820483 0.683503
v -4.570061 5.830795 0.647170
v -4.564151 5.803530 0.654139
v -4.564151 5.801586 0.658863
v -4.564151 5.806649 0.677761
v -4.576954 5.810695 0.680880
v -4.564151 5.815420 0.682824
v -4.563671 5.808144 0.648557
v -4.560142 5.840055 0.663956
v -4.560157 5.838642 0.656238
v -4.560040 5.839361 0.669271
v -4.560089 5.830332 0.680888
v -4.560104 5.834355 0.677762
v -4.506535 5.818347 0.683320
v -4.560107 5.832430 0.648296
v -4.560456 5.824364 0.644784
v -4.560210 5.810694 0.647031
v -4.505416 5.839386 0.542909
v -4.501562 5.825621 0.529188
v -4.501832 5.820620 0.528481
v -4.503339 5.800890 0.545797
v -4.515547 5.810740 0.530860
v -4.506580 5.815545 0.529016
v -4.561673 5.810678 0.564684
v -4.565939 5.837436 0.557551
v -4.565939 5.837436 0.537975
v -4.565939 5.834317 0.533929
v -4.565938 5.825547 0.566661
v -4.565939 5.801586 0.552827
v -4.565939 5.806649 0.561597
v -4.565938 5.810695 0.564716
v -4.562193 5.820542 0.683314
v -4.560287 5.806674 0.650116
v -4.562292 5.802014 0.666270
v -4.562336 5.810649 0.680398
v -4.563500 5.819571 0.566465
v -4.563141 5.815521 0.528956
v -4.565939 5.830271 0.530810
v -4.565939 5.825547 0.528866
v -4.565939 5.820483 0.528188
v -4.565939 5.834317 0.561597
v -4.909040 5.830271 0.564716
v -4.565937 5.820483 0.567339
v -4.909038 5.820483 0.567339
v -4.565942 5.800907 0.547763
v -4.565938 5.803530 0.557551
v -4.909041 5.800907 0.547763
v -4.565939 5.810695 0.530810
v -4.565938 5.806650 0.533929
v -4.909041 5.810695 0.530810
v -4.565939 5.815420 0.528866
v -4.902811 5.815420 0.528866
v -4.909040 5.810695 0.564716
v -4.909039 5.815419 0.566661
v -4.564151 5.837436 0.654139
v -4.908614 5.839380 0.658863
v -4.564151 5.837436 0.673715
v -4.908614 5.834317 0.677761
v -4.909254 5.825554 0.682816
v -4.908614 5.820483 0.683503
v -4.619846 5.834282 0.650049
v -4.674549 5.830286 0.646978
v -4.909249 5.830269 0.646974
v -4.603506 5.826560 0.645301
v -4.660073 5.825800 0.645097
v -4.661016 5.820483 0.644385
v -4.908614 5.800907 0.663927
v -4.564151 5.803530 0.673715
v -4.908614 5.810695 0.680880
v -4.908615 5.815420 0.682824
v -4.673047 5.810674 0.646982
v -4.611465 5.810442 0.647042
v -4.618324 5.806652 0.650090
v -4.908926 5.806649 0.650093
v -4.603506 5.814407 0.645301
v -4.684566 5.815403 0.645035
v -4.913861 5.840059 0.547763
v -4.911024 5.837084 0.557556
v -4.912726 5.836803 0.536789
v -4.912797 5.839363 0.542778
v -4.912834 5.830270 0.530812
v -4.912827 5.820497 0.528197
v -4.912832 5.825549 0.528871
v -4.912784 5.831866 0.563841
v -4.912802 5.803531 0.557482
v -4.912832 5.801591 0.542697
v -4.912834 5.803532 0.537976
v -4.912835 5.806651 0.533930
v -4.912835 5.810697 0.530811
v -4.912835 5.815420 0.528867
v -4.912818 5.813164 0.566078
v -4.912547 5.838769 0.656543
v -4.912976 5.839380 0.668990
v -4.912977 5.837436 0.673714
v -4.912978 5.834317 0.677760
v -4.912977 5.830271 0.680880
v -4.912976 5.825547 0.682824
v -4.912561 5.820479 0.683499
v -4.911089 5.834264 0.650251
v -4.912556 5.820495 0.644359
v -4.912977 5.803530 0.673715
v -4.912976 5.801586 0.668990
v -4.912977 5.810695 0.680880
v -4.912976 5.806650 0.677760
v -4.912977 5.815419 0.682824
v -4.912546 5.813092 0.645644
v -5.031140 5.834305 0.561583
v -5.031572 5.830260 0.564695
v -5.031572 5.825538 0.566646
v -5.031139 5.820477 0.567327
v -5.031572 5.810703 0.564693
v -5.031572 5.806653 0.561580
v -5.031571 5.815427 0.566646
v -5.028193 5.840072 0.664268
v -5.028849 5.836750 0.653059
v -5.027674 5.836902 0.674744
v -5.027091 5.830271 0.680880
v -5.027380 5.820483 0.683502
v -5.027381 5.801586 0.658862
v -5.027380 5.800908 0.663927
v -5.027382 5.801586 0.668990
v -5.027381 5.803530 0.673714
v -5.027382 5.806650 0.677760
v -5.027383 5.810696 0.680879
v -5.027381 5.815419 0.682824
v -5.026703 5.839380 0.552828
v -5.027818 5.840048 0.547749
v -5.027318 5.839380 0.542700
v -5.027317 5.837436 0.537976
v -5.027316 5.834317 0.533930
v -5.028199 5.830312 0.530838
v -5.027317 5.825546 0.528866
v -5.027317 5.820483 0.528188
v -5.028228 5.801386 0.543365
v -5.026706 5.801586 0.552827
v -5.027320 5.810696 0.530811
v -5.027320 5.806650 0.533930
v -5.027324 5.815418 0.528869
v -4.910749 5.838912 0.549908
v -4.911542 5.803818 0.539983
v -4.911026 5.825472 0.645194
v -4.910881 5.802081 0.663856
v -4.910923 5.804321 0.673315
v -4.911091 5.806543 0.650293
v -5.029513 5.820030 0.567082
v -5.029607 5.839335 0.658976
v -5.029162 5.820548 0.645255
v -5.029129 5.833525 0.677022
v -5.028851 5.827762 0.681030
v -5.029181 5.802276 0.666377
v -5.029066 5.815694 0.681960
v -5.030819 5.803522 0.557358
v -5.029716 5.804035 0.538781
v -4.910999 5.827687 0.564772
v -4.911371 5.825718 0.566549
v -4.911340 5.820005 0.567185
v -4.911471 5.806510 0.561341
v -4.910835 5.816048 0.529319
v -4.910999 5.827531 0.530690
v -4.910921 5.815893 0.681623
v -5.029122 5.834240 0.561279
v -5.030150 5.838612 0.542428
v -5.029301 5.836106 0.537668
v -5.029510 5.829582 0.531972
v -5.029510 5.820474 0.529141
v -5.029510 5.811357 0.531988
v -5.027790 5.803531 0.537986
v -5.029505 5.802127 0.550452
v -5.027794 5.803551 0.557558
v -5.027833 5.828302 0.565839
v -5.029761 5.827510 0.564769
v -5.030980 5.836325 0.652193
v -5.029341 5.839744 0.664215
v -5.029856 5.839216 0.669010
v -5.030982 5.836019 0.676075
v -5.030991 5.830258 0.680879
v -5.031015 5.800954 0.661168
v -5.030981 5.804941 0.651801
v -5.030982 5.813132 0.645650
v -5.030991 5.820493 0.644366
v -5.030982 5.828296 0.645842
v -4.911005 5.836659 0.538339
v -4.910278 5.801472 0.547805
v -4.909523 5.803530 0.537976
v -4.910999 5.809221 0.533123
v -4.910234 5.805646 0.559297
v -4.909249 5.837435 0.654139
v -4.909272 5.830305 0.680832
v -4.909250 5.825543 0.645031
v -4.910652 5.804101 0.654864
v -4.909253 5.815412 0.645037
v -5.027703 5.832572 0.648368
v -5.027674 5.822979 0.644337
v -5.030914 5.822083 0.683534
v -5.030996 5.803531 0.673713
v -5.030991 5.801589 0.668978
v -5.030996 5.806650 0.677758
v -5.030988 5.812764 0.682083
v -5.031143 5.840057 0.547764
v -5.029137 5.837335 0.557579
v -5.031569 5.839379 0.552827
v -5.031570 5.830271 0.530811
v -5.031571 5.834317 0.533931
v -5.031570 5.820484 0.528188
v -5.031570 5.825547 0.528867
v -5.031569 5.801586 0.552826
v -5.031571 5.800908 0.547763
v -5.031570 5.801587 0.542699
v -5.031572 5.803530 0.537976
v -5.031571 5.806650 0.533930
v -5.031571 5.810695 0.530811
v -5.031572 5.815419 0.528866
v -4.912583 5.801457 0.552121
v -4.910765 5.839184 0.663023
v -4.911145 5.837393 0.671281
v -4.910921 5.833513 0.676750
v -4.911033 5.825161 0.682003
v -4.912558 5.830264 0.646978
v -4.912600 5.839409 0.552607
v -4.909041 5.820483 0.528188
v -4.913445 5.840059 0.663927
v -4.912570 5.803534 0.654124
v -4.957466 5.815367 0.645081
v -4.908607 5.820483 0.644351
v -4.910807 5.820086 0.645309
v -4.910921 5.811460 0.679839
v -5.029307 5.804159 0.654942
v -5.029061 5.805860 0.675104
v -5.074005 5.817861 0.644373
v -5.073973 5.827990 0.645683
v -5.027699 5.815415 0.645055
v -5.027091 5.825546 0.682824
v -5.031656 5.838831 0.540541
v -5.130496 5.830271 0.564715
v -5.130496 5.825552 0.566659
v -5.130940 5.810697 0.564714
v -5.130941 5.815415 0.566657
f 61 126 1
f 35 3 175
f 175 130 35
f 36 175 3
f 126 61 127
f 61 62 128
f 128 127 61
f 181 128 62
f 62 2 181
f 9 310 372
f 9 311 310
f 311 9 373
f 10 4 72
f 10 5 4
f 5 10 11
f 12 6 5
f 5 11 12
f 6 12 7
f 13 372 8
f 15 13 8
f 13 9 372
f 14 9 13
f 14 373 9
f 78 374 373
f 373 14 78
f 72 16 10
f 18 8 12
f 7 12 8
f 8 18 15
f 19 13 15
f 13 19 14
f 20 14 19
f 86 78 14
f 14 20 86
f 17 12 11
f 15 18 19
f 22 20 19
f 20 22 23
f 16 24 10
f 21 12 17
f 25 18 21
f 12 21 18
f 26 19 18
f 19 26 22
f 29 10 24
f 30 11 10
f 10 29 30
f 11 30 31
f 11 31 17
f 32 18 25
f 18 32 26
f 27 22 26
f 22 27 28
f 28 23 22
f 23 28 34
f 158 21 17
f 21 158 25
f 33 26 32
f 26 33 27
f 553 38 37
f 254 591 255
f 257 256 263
f 254 257 263
f 264 263 256
f 256 40 264
f 265 40 259
f 258 261 266
f 266 265 259
f 259 258 266
f 105 267 260
f 267 266 261
f 261 260 267
f 254 244 262
f 46 44 45
f 47 48 44
f 44 46 47
f 48 47 50
f 50 49 48
f 380 51 49
f 49 50 380
f 51 380 52
f 393 54 53
f 54 393 394
f 57 59 58
f 58 56 57
f 59 57 431
f 435 485 484
f 485 435 486
f 58 554 60
f 515 60 554
f 524 42 60
f 60 515 524
f 60 2 62
f 2 60 42
f 60 62 61
f 56 1 65
f 1 56 61
f 58 61 56
f 61 58 60
f 1 126 65
f 65 178 36
f 524 43 42
f 499 63 43
f 43 524 499
f 179 181 2
f 131 179 2
f 2 42 131
f 131 42 43
f 35 130 69
f 75 318 76
f 318 376 76
f 377 76 376
f 374 78 377
f 76 377 78
f 77 88 72
f 79 73 83
f 74 83 73
f 75 80 375
f 82 81 76
f 75 76 81
f 78 82 76
f 88 16 72
f 83 88 79
f 77 79 88
f 80 84 74
f 74 375 80
f 83 74 84
f 80 75 81
f 81 82 85
f 85 82 86
f 82 78 86
f 80 81 87
f 85 87 81
f 87 85 89
f 23 89 86
f 86 20 23
f 85 86 89
f 16 88 90
f 88 83 91
f 84 80 92
f 84 91 83
f 87 92 80
f 24 16 90
f 90 88 91
f 92 87 93
f 93 87 95
f 87 89 96
f 97 96 89
f 96 95 87
f 98 97 89
f 89 23 34
f 34 98 89
f 94 207 90
f 24 90 207
f 91 94 90
f 94 91 204
f 92 205 84
f 205 204 91
f 91 84 205
f 95 203 93
f 92 93 203
f 211 210 96
f 96 97 211
f 95 96 210
f 98 211 97
f 100 101 99
f 99 590 100
f 277 101 100
f 279 102 277
f 303 274 279
f 303 103 274
f 105 260 103
f 103 303 105
f 401 399 107
f 538 342 109
f 399 401 109
f 110 402 111
f 403 111 402
f 342 538 111
f 111 403 342
f 402 110 405
f 115 116 114
f 113 114 116
f 488 521 441
f 442 441 521
f 116 115 117
f 117 119 121
f 121 523 117
f 119 125 120
f 120 121 119
f 119 117 71
f 122 71 117
f 124 66 118
f 66 67 115
f 115 118 66
f 67 68 117
f 117 115 67
f 122 117 68
f 70 66 124
f 106 120 125
f 499 120 106
f 106 63 499
f 220 119 71
f 119 220 125
f 36 178 175
f 63 163 43
f 138 369 139
f 135 134 365
f 137 368 191
f 136 137 191
f 138 148 132
f 133 144 139
f 134 135 141
f 140 141 135
f 140 136 143
f 141 140 143
f 198 143 191
f 136 191 143
f 144 148 138
f 138 139 144
f 144 133 158
f 134 158 133
f 158 134 147
f 141 142 134
f 142 147 134
f 142 141 145
f 141 143 145
f 146 145 143
f 143 198 146
f 148 144 149
f 150 149 144
f 145 146 152
f 146 202 155
f 155 152 146
f 149 207 148
f 158 150 144
f 142 145 151
f 152 151 145
f 147 142 153
f 151 153 142
f 151 152 154
f 156 157 155
f 157 154 152
f 152 155 157
f 207 149 29
f 29 24 207
f 30 29 149
f 149 150 31
f 31 30 149
f 31 150 17
f 158 147 25
f 158 17 150
f 147 153 32
f 32 25 147
f 153 151 33
f 33 32 153
f 154 33 151
f 33 154 27
f 34 28 157
f 157 156 34
f 28 27 154
f 154 157 28
f 583 161 584
f 285 287 162
f 288 160 287
f 409 541 410
f 165 411 166
f 411 165 167
f 541 409 170
f 416 417 170
f 172 171 173
f 472 451 586
f 450 586 451
f 172 173 174
f 159 126 171
f 126 173 171
f 174 181 546
f 546 469 174
f 181 180 546
f 180 181 179
f 175 178 159
f 127 128 174
f 181 174 128
f 159 178 126
f 126 127 173
f 127 174 173
f 417 416 176
f 126 178 65
f 129 546 180
f 129 163 547
f 546 129 547
f 131 180 179
f 131 43 129
f 129 180 131
f 163 129 43
f 239 240 68
f 68 67 239
f 240 241 122
f 122 68 240
f 122 241 71
f 69 70 124
f 66 70 182
f 106 163 63
f 191 368 190
f 132 148 192
f 192 183 132
f 183 192 193
f 193 184 183
f 194 185 184
f 184 193 194
f 185 194 186
f 199 188 187
f 195 196 188
f 188 199 195
f 197 196 195
f 197 190 196
f 189 196 190
f 190 197 198
f 198 191 190
f 208 187 186
f 186 194 208
f 187 208 199
f 200 195 199
f 195 200 201
f 201 197 195
f 197 201 202
f 202 198 197
f 198 202 146
f 203 199 208
f 199 203 200
f 206 202 201
f 202 206 155
f 148 207 192
f 192 94 204
f 204 193 192
f 205 194 193
f 193 204 205
f 194 205 208
f 209 200 203
f 200 209 206
f 206 201 200
f 192 207 94
f 210 206 209
f 206 210 211
f 206 211 156
f 206 156 155
f 92 208 205
f 208 92 203
f 95 209 203
f 209 95 210
f 98 156 211
f 34 156 98
f 212 242 577
f 213 549 551
f 551 214 213
f 548 291 214
f 215 161 583
f 218 213 294
f 214 294 213
f 220 238 221
f 358 223 222
f 224 421 223
f 223 358 224
f 421 224 225
f 225 226 421
f 226 225 227
f 229 425 427
f 231 233 230
f 233 231 232
f 236 230 233
f 233 234 236
f 234 233 232
f 243 236 234
f 182 242 212
f 212 235 182
f 230 236 235
f 239 235 240
f 241 243 220
f 577 242 130
f 235 239 182
f 236 240 235
f 240 236 241
f 241 236 243
f 425 229 430
f 242 70 69
f 242 69 130
f 66 239 67
f 239 66 182
f 182 70 242
f 585 221 238
f 547 163 221
f 221 585 547
f 220 71 241
f 238 220 243
f 243 237 238
f 106 221 163
f 221 106 125
f 125 220 221
f 297 250 253
f 244 269 245
f 245 271 272
f 282 281 245
f 247 268 245
f 246 247 245
f 268 244 245
f 297 306 248
f 249 298 297
f 250 298 305
f 250 297 298
f 253 251 252
f 588 254 255
f 255 589 588
f 254 588 257
f 40 37 38
f 37 40 256
f 38 259 40
f 259 39 258
f 262 104 254
f 41 40 265
f 40 41 264
f 245 302 271
f 273 279 274
f 101 301 99
f 275 277 100
f 277 275 276
f 277 276 278
f 278 279 277
f 278 303 279
f 280 247 246
f 161 284 285
f 286 287 285
f 287 286 288
f 289 299 288
f 290 291 289
f 251 304 252
f 292 215 219
f 283 161 215
f 215 292 283
f 293 217 218
f 217 293 219
f 293 218 294
f 214 295 294
f 291 290 295
f 295 214 291
f 296 297 248
f 287 527 500
f 526 162 500
f 287 500 162
f 160 529 528
f 527 287 160
f 160 528 527
f 299 530 529
f 529 160 299
f 530 299 291
f 291 548 530
f 216 532 531
f 531 217 216
f 531 218 217
f 218 531 550
f 550 213 218
f 213 550 549
f 552 214 551
f 214 552 548
f 256 300 555
f 555 37 256
f 37 555 553
f 557 39 259
f 556 258 39
f 39 557 556
f 258 556 559
f 559 261 258
f 558 260 261
f 261 559 558
f 277 561 560
f 560 101 277
f 506 301 101
f 101 560 506
f 279 563 102
f 562 102 563
f 561 277 102
f 102 562 561
f 274 565 564
f 564 273 274
f 563 279 273
f 273 564 563
f 566 103 260
f 260 558 566
f 565 274 103
f 103 566 565
f 104 591 254
f 104 590 591
f 590 104 100
f 268 262 244
f 263 270 269
f 263 269 254
f 270 263 264
f 265 302 245
f 245 41 265
f 270 264 41
f 41 245 270
f 266 271 302
f 266 302 265
f 272 267 105
f 271 266 267
f 267 272 271
f 262 268 247
f 247 104 262
f 104 247 280
f 280 100 104
f 100 280 275
f 246 275 280
f 275 246 276
f 282 303 278
f 282 105 303
f 105 282 272
f 161 162 584
f 162 161 285
f 160 288 299
f 299 289 291
f 219 215 216
f 219 216 217
f 283 248 161
f 306 284 161
f 284 306 253
f 253 285 284
f 285 253 286
f 252 286 253
f 304 288 286
f 286 252 304
f 288 304 289
f 289 251 290
f 296 292 219
f 219 297 296
f 248 283 292
f 292 296 248
f 293 249 219
f 249 293 294
f 294 298 249
f 305 294 295
f 294 305 298
f 250 295 290
f 295 250 305
f 306 161 248
f 251 289 304
f 250 290 251
f 219 249 297
f 254 269 244
f 276 246 281
f 281 278 276
f 278 281 282
f 245 269 270
f 245 272 282
f 245 281 246
f 297 253 306
f 250 251 253
f 345 310 311
f 311 312 345
f 328 75 316
f 318 328 329
f 328 318 75
f 196 324 349
f 349 188 196
f 344 326 343
f 334 333 369
f 334 369 346
f 370 347 346
f 323 388 337
f 351 386 389
f 347 370 337
f 315 327 339
f 340 341 328
f 341 342 328
f 329 328 342
f 308 327 307
f 308 309 325
f 309 345 325
f 326 345 312
f 326 313 343
f 313 391 343
f 328 316 340
f 316 317 340
f 317 330 340
f 378 319 390
f 390 331 378
f 319 315 390
f 327 315 314
f 362 348 337
f 347 337 348
f 363 364 333
f 333 332 363
f 369 333 364
f 371 370 321
f 323 387 322
f 388 323 349
f 349 324 338
f 338 388 349
f 389 338 324
f 324 350 389
f 351 389 350
f 320 366 336
f 336 386 320
f 366 367 336
f 367 335 336
f 365 363 332
f 332 335 365
f 346 356 334
f 327 314 307
f 164 352 353
f 352 332 333
f 333 353 352
f 334 409 353
f 353 333 334
f 411 336 335
f 335 354 411
f 332 352 354
f 354 335 332
f 352 164 354
f 336 167 168
f 336 411 167
f 386 169 355
f 336 168 169
f 169 386 336
f 337 358 357
f 388 224 358
f 358 337 388
f 388 225 224
f 338 422 225
f 225 388 338
f 422 338 389
f 389 359 422
f 389 360 359
f 360 389 361
f 361 424 360
f 386 355 361
f 361 389 386
f 424 361 355
f 337 357 362
f 363 134 133
f 133 364 363
f 364 133 139
f 335 135 365
f 134 363 365
f 366 136 140
f 140 367 366
f 135 335 367
f 367 140 135
f 386 368 320
f 137 320 368
f 136 366 320
f 320 137 136
f 364 139 369
f 138 370 369
f 132 321 370
f 370 138 132
f 322 185 186
f 186 323 322
f 187 349 323
f 323 186 187
f 349 187 188
f 189 324 196
f 190 350 189
f 324 189 350
f 350 190 368
f 368 351 350
f 368 386 351
f 371 183 184
f 184 387 371
f 387 184 185
f 185 322 387
f 183 371 321
f 321 132 183
f 7 308 307
f 307 6 7
f 8 309 308
f 308 7 8
f 309 8 372
f 372 345 309
f 345 372 310
f 312 311 373
f 373 326 312
f 374 313 326
f 326 373 374
f 6 307 314
f 314 5 6
f 319 72 4
f 4 315 319
f 5 314 315
f 315 4 5
f 316 375 317
f 74 317 375
f 73 330 317
f 317 74 73
f 375 316 75
f 329 376 318
f 313 374 377
f 377 391 313
f 376 329 391
f 391 377 376
f 330 73 79
f 79 331 330
f 77 378 331
f 331 79 77
f 378 77 72
f 72 319 378
f 379 327 308
f 308 46 379
f 325 47 46
f 46 308 325
f 325 50 47
f 325 380 50
f 380 325 344
f 344 381 380
f 344 392 381
f 392 344 343
f 343 393 392
f 343 394 393
f 327 395 339
f 327 379 395
f 397 390 315
f 315 382 397
f 382 315 339
f 340 383 399
f 340 400 383
f 340 399 341
f 402 391 329
f 329 403 402
f 403 329 342
f 343 405 394
f 391 402 405
f 405 343 391
f 400 340 330
f 330 384 400
f 331 385 384
f 384 330 331
f 385 331 390
f 390 123 385
f 390 397 123
f 346 369 370
f 323 337 387
f 337 371 387
f 371 337 370
f 345 344 325
f 344 345 326
f 45 379 46
f 381 52 380
f 52 381 392
f 392 53 52
f 53 392 393
f 396 339 395
f 395 55 396
f 379 45 395
f 55 395 45
f 382 64 397
f 339 396 64
f 64 382 339
f 398 397 64
f 383 107 399
f 400 108 107
f 107 383 400
f 341 109 342
f 109 341 399
f 404 110 111
f 110 404 405
f 406 405 404
f 405 406 394
f 384 112 400
f 385 407 384
f 112 384 407
f 108 400 112
f 407 385 123
f 397 398 123
f 408 123 398
f 123 408 407
f 353 410 164
f 410 353 409
f 354 166 411
f 166 354 164
f 412 167 165
f 167 412 168
f 413 169 168
f 414 355 169
f 169 413 414
f 334 415 409
f 415 334 356
f 356 416 415
f 415 170 409
f 170 415 416
f 416 356 418
f 418 419 416
f 356 346 418
f 347 418 346
f 420 419 418
f 418 347 420
f 419 176 416
f 420 177 176
f 176 419 420
f 177 578 543
f 543 176 177
f 176 543 417
f 222 357 358
f 422 227 225
f 359 228 422
f 360 423 359
f 228 359 423
f 227 422 228
f 423 360 424
f 355 414 424
f 425 426 427
f 362 427 426
f 427 362 357
f 357 222 427
f 428 427 222
f 427 428 229
f 420 347 429
f 429 430 420
f 348 429 347
f 348 362 429
f 426 429 362
f 425 430 429
f 429 426 425
f 177 420 430
f 545 430 229
f 430 545 578
f 578 177 430
f 482 434 433
f 434 482 431
f 431 573 434
f 484 433 435
f 567 113 440
f 575 568 446
f 568 575 447
f 496 232 231
f 232 496 456
f 527 468 500
f 447 468 470
f 503 471 470
f 470 502 503
f 471 450 449
f 449 470 471
f 586 503 472
f 450 471 586
f 503 586 471
f 554 480 481
f 489 522 488
f 488 113 489
f 522 489 523
f 493 573 432
f 540 439 537
f 506 523 121
f 539 538 494
f 537 494 538
f 508 432 438
f 438 509 508
f 511 510 445
f 567 440 494
f 440 441 494
f 441 442 539
f 539 494 441
f 442 443 539
f 443 444 512
f 512 539 443
f 444 436 512
f 436 437 513
f 513 512 436
f 437 435 513
f 435 433 536
f 536 513 435
f 433 434 536
f 434 573 493
f 493 536 434
f 453 568 541
f 453 417 495
f 417 543 495
f 579 495 543
f 498 579 545
f 413 542 571
f 570 571 542
f 568 453 446
f 514 571 452
f 496 231 544
f 231 576 544
f 576 498 544
f 579 498 460
f 460 454 579
f 454 495 579
f 453 495 572
f 515 525 524
f 554 481 516
f 517 516 481
f 522 507 488
f 121 120 499
f 499 524 525
f 554 516 553
f 554 300 515
f 300 461 515
f 525 515 461
f 525 464 499
f 546 547 501
f 501 469 546
f 547 585 501
f 238 501 585
f 581 238 237
f 470 468 528
f 528 502 470
f 527 528 468
f 502 528 529
f 529 530 502
f 530 548 503
f 503 502 530
f 505 503 548
f 548 552 505
f 552 551 582
f 582 505 552
f 551 549 582
f 549 550 504
f 504 582 549
f 504 531 581
f 531 532 581
f 532 533 238
f 238 581 532
f 533 534 501
f 501 238 533
f 534 535 501
f 469 501 535
f 535 526 469
f 500 469 526
f 428 544 498
f 531 504 550
f 555 554 553
f 554 555 300
f 518 556 557
f 557 517 518
f 517 557 516
f 519 558 559
f 556 518 519
f 519 559 556
f 561 522 506
f 506 560 561
f 522 561 562
f 562 507 522
f 507 562 563
f 507 563 564
f 565 520 507
f 507 564 565
f 520 565 566
f 566 519 520
f 519 566 558
f 447 569 568
f 569 447 448
f 569 448 449
f 449 570 569
f 450 571 570
f 570 449 450
f 571 450 451
f 571 451 452
f 497 455 456
f 497 456 496
f 580 457 458
f 458 497 580
f 497 458 455
f 459 514 452
f 457 580 514
f 514 459 457
f 462 525 461
f 525 462 463
f 525 463 464
f 121 465 466
f 121 466 506
f 467 499 464
f 465 121 499
f 499 467 465
f 505 472 503
f 473 581 237
f 474 504 581
f 581 473 474
f 504 474 475
f 476 582 504
f 504 475 476
f 582 476 477
f 478 505 582
f 582 477 478
f 505 478 479
f 505 479 472
f 482 517 481
f 517 482 483
f 517 483 484
f 484 485 517
f 518 485 486
f 486 519 518
f 519 486 487
f 488 507 521
f 520 490 491
f 491 507 520
f 507 491 521
f 519 487 492
f 490 520 519
f 519 492 490
f 57 573 431
f 573 57 56
f 56 432 573
f 433 483 482
f 483 433 484
f 436 487 437
f 486 437 487
f 437 486 435
f 432 56 65
f 65 438 432
f 36 438 65
f 438 36 3
f 3 509 438
f 509 3 35
f 35 510 509
f 114 567 439
f 439 115 114
f 567 114 113
f 488 440 113
f 440 488 441
f 487 436 444
f 445 124 511
f 118 511 124
f 115 439 511
f 511 118 115
f 510 35 445
f 69 445 35
f 445 69 124
f 493 44 48
f 432 45 44
f 44 493 432
f 536 49 51
f 493 48 49
f 49 536 493
f 53 513 536
f 536 52 53
f 536 51 52
f 394 574 54
f 574 512 513
f 513 54 574
f 513 53 54
f 432 55 45
f 508 396 55
f 55 432 508
f 508 64 396
f 509 398 64
f 64 508 509
f 108 540 537
f 537 107 108
f 537 401 107
f 537 109 401
f 109 537 538
f 539 111 538
f 539 404 111
f 512 406 404
f 404 539 512
f 574 394 406
f 406 512 574
f 407 511 540
f 540 112 407
f 540 108 112
f 398 509 510
f 510 408 398
f 511 407 408
f 408 510 511
f 446 171 172
f 468 575 172
f 446 172 575
f 575 468 447
f 472 452 451
f 572 159 171
f 171 453 572
f 171 446 453
f 454 130 175
f 175 495 454
f 159 572 175
f 495 175 572
f 230 576 231
f 452 472 459
f 576 230 235
f 235 498 576
f 498 235 212
f 212 460 498
f 460 212 577
f 130 454 460
f 460 577 130
f 568 410 541
f 568 164 410
f 568 166 164
f 569 165 166
f 166 568 569
f 165 569 570
f 570 412 165
f 412 570 542
f 542 168 412
f 168 542 413
f 571 414 413
f 453 170 417
f 170 453 541
f 578 579 543
f 421 496 544
f 544 223 421
f 544 222 223
f 497 226 227
f 496 421 226
f 226 497 496
f 423 580 497
f 497 228 423
f 497 227 228
f 414 571 514
f 514 424 414
f 580 423 424
f 424 514 580
f 222 544 428
f 498 229 428
f 229 498 545
f 579 578 545
f 567 537 439
f 537 567 494
f 540 511 439
f 517 485 518
f 506 522 523
f 535 584 162
f 162 526 535
f 534 583 584
f 584 535 534
f 215 533 532
f 532 216 215
f 533 215 583
f 583 534 533
f 172 500 468
f 174 469 500
f 500 172 174
f 470 448 447
f 448 470 449
f 237 243 234
f 234 473 237
f 232 474 473
f 473 234 232
f 474 232 456
f 456 475 474
f 455 476 475
f 475 456 455
f 476 455 458
f 458 477 476
f 477 458 457
f 457 478 477
f 478 457 479
f 459 479 457
f 479 459 472
f 554 58 59
f 59 480 554
f 480 59 431
f 431 481 480
f 481 431 482
f 116 489 113
f 117 523 116
f 489 116 523
f 490 443 442
f 442 491 490
f 491 442 521
f 444 492 487
f 443 490 444
f 492 444 490
f 587 38 553
f 516 587 553
f 587 259 38
f 259 587 557
f 587 516 557
f 300 256 257
f 257 461 300
f 588 462 461
f 461 257 588
f 462 588 589
f 589 463 462
f 255 464 463
f 463 589 255
f 465 590 99
f 99 466 465
f 301 506 466
f 466 99 301
f 464 255 591
f 591 467 464
f 590 465 467
f 467 591 590
