# USD → MuJoCo (world-space)
v -1.013458 -0.025745 -0.158499
v -1.014412 -0.018757 -0.158499
v -1.013419 -0.018757 -0.157798
v -1.012499 -0.025497 -0.157798
v -1.014378 -0.025982 -0.159246
v -1.015364 -0.018757 -0.159246
v -1.015219 -0.026200 -0.160085
v -1.016235 -0.018757 -0.160085
v -1.015942 -0.026386 -0.161061
v -1.016983 -0.018757 -0.161061
v -1.016507 -0.026533 -0.162221
v -1.017568 -0.018757 -0.162221
v -1.016875 -0.026627 -0.163609
v -1.017949 -0.018757 -0.163609
v -1.017006 -0.026661 -0.165273
v -1.018085 -0.018757 -0.165273
v -1.016875 -0.026627 -0.166937
v -1.017949 -0.018757 -0.166937
v -1.016507 -0.026533 -0.168325
v -1.017568 -0.018757 -0.168325
v -1.015942 -0.026386 -0.169485
v -1.016983 -0.018757 -0.169485
v -1.015219 -0.026200 -0.170461
v -1.016235 -0.018757 -0.170461
v -1.014378 -0.025982 -0.171300
v -1.015364 -0.018757 -0.171300
v -1.013458 -0.025745 -0.172047
v -1.014412 -0.018757 -0.172047
v -1.012499 -0.025497 -0.172748
v -1.013419 -0.018758 -0.172748
v -1.010662 -0.032255 -0.158499
v -1.009802 -0.031776 -0.157798
v -1.011487 -0.032714 -0.159246
v -1.012240 -0.033134 -0.160085
v -1.012889 -0.033495 -0.161061
v -1.013395 -0.033777 -0.162221
v -1.013725 -0.033961 -0.163609
v -1.013843 -0.034027 -0.165273
v -1.013725 -0.033961 -0.166937
v -1.013395 -0.033777 -0.168325
v -1.012889 -0.033495 -0.169485
v -1.012240 -0.033134 -0.170461
v -1.011487 -0.032714 -0.171300
v -1.010662 -0.032255 -0.172047
v -1.009802 -0.031776 -0.172748
v -1.006214 -0.037846 -0.158499
v -1.005511 -0.037168 -0.157798
v -1.006887 -0.038496 -0.159246
v -1.007503 -0.039089 -0.160085
v -1.008032 -0.039599 -0.161061
v -1.008445 -0.039998 -0.162221
v -1.008715 -0.040258 -0.163609
v -1.008811 -0.040350 -0.165273
v -1.008715 -0.040258 -0.166937
v -1.008445 -0.039998 -0.168325
v -1.008032 -0.039599 -0.169485
v -1.007503 -0.039089 -0.170461
v -1.006887 -0.038496 -0.171300
v -1.006214 -0.037846 -0.172047
v -1.005511 -0.037168 -0.172748
v -1.000417 -0.042136 -0.158499
v -0.999920 -0.041306 -0.157798
v -1.000893 -0.042931 -0.159246
v -1.001328 -0.043658 -0.160085
v -1.001702 -0.044283 -0.161061
v -1.001995 -0.044772 -0.162221
v -1.002185 -0.045090 -0.163609
v -1.002253 -0.045204 -0.165273
v -1.002185 -0.045090 -0.166937
v -1.001995 -0.044772 -0.168325
v -1.001702 -0.044283 -0.169485
v -1.001328 -0.043658 -0.170461
v -1.000893 -0.042931 -0.171300
v -1.000417 -0.042136 -0.172047
v -0.999920 -0.041306 -0.172748
v -0.993666 -0.044833 -0.158499
v -0.993409 -0.043908 -0.157798
v -0.993912 -0.045720 -0.159246
v -0.994137 -0.046530 -0.160085
v -0.994331 -0.047227 -0.161061
v -0.994482 -0.047773 -0.162221
v -0.994581 -0.048128 -0.163609
v -0.994616 -0.048255 -0.165273
v -0.994581 -0.048128 -0.166937
v -0.994482 -0.047773 -0.168325
v -0.994331 -0.047227 -0.169485
v -0.994137 -0.046530 -0.170461
v -0.993912 -0.045720 -0.171300
v -0.993666 -0.044833 -0.172047
v -0.993409 -0.043908 -0.172748
v -0.986421 -0.045752 -0.158499
v -0.986421 -0.044795 -0.157798
v -0.986421 -0.046670 -0.159246
v -0.986421 -0.047511 -0.160085
v -0.986421 -0.048232 -0.161061
v -0.986421 -0.048796 -0.162221
v -0.986421 -0.049163 -0.163609
v -0.986421 -0.049295 -0.165273
v -0.986421 -0.049163 -0.166937
v -0.986421 -0.048796 -0.168325
v -0.986421 -0.048232 -0.169485
v -0.986421 -0.047511 -0.170461
v -0.986421 -0.046670 -0.171300
v -0.986421 -0.045752 -0.172047
v -0.986421 -0.044795 -0.172748
v -0.979177 -0.044833 -0.158499
v -0.979434 -0.043908 -0.157798
v -0.978930 -0.045720 -0.159246
v -0.978705 -0.046530 -0.160085
v -0.978511 -0.047227 -0.161061
v -0.978360 -0.047773 -0.162221
v -0.978261 -0.048128 -0.163609
v -0.978226 -0.048255 -0.165273
v -0.978261 -0.048128 -0.166937
v -0.978360 -0.047773 -0.168325
v -0.978511 -0.047227 -0.169485
v -0.978705 -0.046530 -0.170461
v -0.978930 -0.045720 -0.171300
v -0.979177 -0.044833 -0.172047
v -0.979434 -0.043908 -0.172748
v -0.972426 -0.042136 -0.158499
v -0.972922 -0.041306 -0.157798
v -0.971950 -0.042931 -0.159246
v -0.971514 -0.043658 -0.160085
v -0.971140 -0.044283 -0.161061
v -0.970848 -0.044772 -0.162221
v -0.970657 -0.045090 -0.163609
v -0.970589 -0.045204 -0.165273
v -0.970657 -0.045090 -0.166937
v -0.970848 -0.044772 -0.168325
v -0.971140 -0.044283 -0.169485
v -0.971514 -0.043658 -0.170461
v -0.971950 -0.042931 -0.171300
v -0.972426 -0.042136 -0.172047
v -0.972922 -0.041306 -0.172748
v -0.966629 -0.037846 -0.158499
v -0.967331 -0.037168 -0.157798
v -0.965955 -0.038496 -0.159246
v -0.965340 -0.039089 -0.160085
v -0.964811 -0.039599 -0.161061
v -0.964397 -0.039998 -0.162221
v -0.964128 -0.040258 -0.163609
v -0.964032 -0.040350 -0.165273
v -0.964128 -0.040258 -0.166937
v -0.964397 -0.039998 -0.168325
v -0.964811 -0.039599 -0.169485
v -0.965340 -0.039089 -0.170461
v -0.965955 -0.038496 -0.171300
v -0.966629 -0.037846 -0.172047
v -0.967331 -0.037168 -0.172748
v -0.962180 -0.032255 -0.158499
v -0.963041 -0.031776 -0.157798
v -0.961356 -0.032714 -0.159246
v -0.960602 -0.033134 -0.160085
v -0.959954 -0.033495 -0.161061
v -0.959447 -0.033777 -0.162221
v -0.959117 -0.033961 -0.163609
v -0.958999 -0.034027 -0.165273
v -0.959117 -0.033961 -0.166937
v -0.959447 -0.033777 -0.168325
v -0.959954 -0.033495 -0.169485
v -0.960602 -0.033134 -0.170461
v -0.961356 -0.032714 -0.171300
v -0.962180 -0.032255 -0.172047
v -0.963041 -0.031776 -0.172748
v -0.959384 -0.025745 -0.158499
v -0.960343 -0.025497 -0.157798
v -0.958464 -0.025982 -0.159246
v -0.957623 -0.026200 -0.160085
v -0.956901 -0.026387 -0.161061
v -0.956336 -0.026533 -0.162221
v -0.955968 -0.026627 -0.163609
v -0.955836 -0.026661 -0.165273
v -0.955968 -0.026627 -0.166937
v -0.956336 -0.026533 -0.168325
v -0.956901 -0.026387 -0.169485
v -0.957623 -0.026200 -0.170461
v -0.958464 -0.025982 -0.171300
v -0.959384 -0.025745 -0.172047
v -0.960343 -0.025497 -0.172748
v -0.958430 -0.018758 -0.158499
v -0.959424 -0.018758 -0.157798
v -0.957478 -0.018758 -0.159246
v -0.956607 -0.018758 -0.160085
v -0.955859 -0.018758 -0.161061
v -0.955274 -0.018758 -0.162221
v -0.954893 -0.018758 -0.163609
v -0.954757 -0.018758 -0.165273
v -0.954893 -0.018758 -0.166937
v -0.955274 -0.018758 -0.168325
v -0.955859 -0.018758 -0.169485
v -0.956607 -0.018758 -0.170461
v -0.957478 -0.018758 -0.171300
v -0.958430 -0.018758 -0.172047
v -0.959424 -0.018758 -0.172748
v -0.959384 -0.011772 -0.158499
v -0.960343 -0.012019 -0.157798
v -0.958464 -0.011533 -0.159246
v -0.957623 -0.011316 -0.160085
v -0.956901 -0.011130 -0.161061
v -0.956336 -0.010983 -0.162221
v -0.955968 -0.010889 -0.163609
v -0.955836 -0.010854 -0.165273
v -0.955968 -0.010889 -0.166937
v -0.956336 -0.010983 -0.168325
v -0.956901 -0.011130 -0.169485
v -0.957623 -0.011316 -0.170461
v -0.958464 -0.011533 -0.171300
v -0.959384 -0.011772 -0.172047
v -0.960343 -0.012019 -0.172748
v -0.962180 -0.005261 -0.158499
v -0.963041 -0.005740 -0.157798
v -0.961356 -0.004801 -0.159246
v -0.960602 -0.004382 -0.160085
v -0.959954 -0.004021 -0.161061
v -0.959447 -0.003739 -0.162221
v -0.959117 -0.003555 -0.163609
v -0.958999 -0.003489 -0.165273
v -0.959117 -0.003555 -0.166937
v -0.959447 -0.003739 -0.168325
v -0.959954 -0.004021 -0.169485
v -0.960602 -0.004382 -0.170461
v -0.961356 -0.004801 -0.171300
v -0.962180 -0.005261 -0.172047
v -0.963041 -0.005740 -0.172748
v -0.966629 0.000330 -0.158499
v -0.967331 -0.000348 -0.157798
v -0.965955 0.000979 -0.159246
v -0.965340 0.001573 -0.160085
v -0.964811 0.002083 -0.161061
v -0.964397 0.002482 -0.162221
v -0.964128 0.002742 -0.163609
v -0.964032 0.002835 -0.165273
v -0.964128 0.002742 -0.166937
v -0.964397 0.002482 -0.168325
v -0.964811 0.002083 -0.169485
v -0.965340 0.001573 -0.170461
v -0.965955 0.000979 -0.171300
v -0.966629 0.000330 -0.172047
v -0.967331 -0.000348 -0.172748
v -0.972426 0.004620 -0.158499
v -0.972922 0.003790 -0.157798
v -0.971950 0.005415 -0.159246
v -0.971514 0.006142 -0.160085
v -0.971140 0.006768 -0.161061
v -0.970848 0.007256 -0.162221
v -0.970657 0.007575 -0.163609
v -0.970589 0.007688 -0.165273
v -0.970657 0.007575 -0.166937
v -0.970848 0.007256 -0.168325
v -0.971140 0.006768 -0.169485
v -0.971514 0.006142 -0.170461
v -0.971950 0.005415 -0.171300
v -0.972426 0.004620 -0.172047
v -0.972922 0.003790 -0.172748
v -0.979177 0.007317 -0.158499
v -0.979434 0.006391 -0.157798
v -0.978930 0.008204 -0.159246
v -0.978705 0.009015 -0.160085
v -0.978511 0.009712 -0.161061
v -0.978360 0.010257 -0.162221
v -0.978261 0.010612 -0.163609
v -0.978226 0.010739 -0.165273
v -0.978261 0.010612 -0.166937
v -0.978360 0.010257 -0.168325
v -0.978511 0.009712 -0.169485
v -0.978705 0.009015 -0.170461
v -0.978930 0.008204 -0.171300
v -0.979177 0.007317 -0.172047
v -0.979434 0.006391 -0.172748
v -0.986421 0.008236 -0.158499
v -0.986421 0.007279 -0.157798
v -0.986421 0.009155 -0.159246
v -0.986421 0.009995 -0.160085
v -0.986421 0.010716 -0.161061
v -0.986421 0.011280 -0.162221
v -0.986421 0.011648 -0.163609
v -0.986421 0.011779 -0.165273
v -0.986421 0.011648 -0.166937
v -0.986421 0.011280 -0.168325
v -0.986421 0.010716 -0.169485
v -0.986421 0.009995 -0.170461
v -0.986421 0.009155 -0.171300
v -0.986421 0.008236 -0.172047
v -0.986421 0.007279 -0.172748
v -0.993666 0.007317 -0.158499
v -0.993409 0.006391 -0.157798
v -0.993912 0.008204 -0.159246
v -0.994137 0.009015 -0.160085
v -0.994331 0.009712 -0.161061
v -0.994482 0.010257 -0.162221
v -0.994581 0.010612 -0.163609
v -0.994616 0.010739 -0.165273
v -0.994581 0.010612 -0.166937
v -0.994482 0.010257 -0.168325
v -0.994331 0.009712 -0.169485
v -0.994137 0.009015 -0.170461
v -0.993912 0.008204 -0.171300
v -0.993666 0.007317 -0.172047
v -0.993409 0.006391 -0.172748
v -1.000417 0.004620 -0.158499
v -0.999920 0.003790 -0.157798
v -1.000893 0.005415 -0.159246
v -1.001328 0.006142 -0.160085
v -1.001702 0.006768 -0.161061
v -1.001994 0.007256 -0.162221
v -1.002185 0.007575 -0.163609
v -1.002253 0.007688 -0.165273
v -1.002185 0.007575 -0.166937
v -1.001994 0.007256 -0.168325
v -1.001702 0.006768 -0.169485
v -1.001328 0.006142 -0.170461
v -1.000893 0.005415 -0.171300
v -1.000417 0.004620 -0.172047
v -0.999920 0.003790 -0.172748
v -1.006214 0.000330 -0.158499
v -1.005511 -0.000348 -0.157798
v -1.006887 0.000980 -0.159246
v -1.007503 0.001573 -0.160085
v -1.008032 0.002083 -0.161061
v -1.008445 0.002482 -0.162221
v -1.008715 0.002742 -0.163609
v -1.008811 0.002835 -0.165273
v -1.008715 0.002742 -0.166937
v -1.008445 0.002482 -0.168325
v -1.008032 0.002083 -0.169485
v -1.007503 0.001573 -0.170461
v -1.006887 0.000980 -0.171300
v -1.006214 0.000330 -0.172047
v -1.005511 -0.000348 -0.172748
v -1.010662 -0.005261 -0.158499
v -1.009802 -0.005740 -0.157798
v -1.011487 -0.004801 -0.159246
v -1.012240 -0.004382 -0.160085
v -1.012889 -0.004021 -0.161061
v -1.013395 -0.003739 -0.162221
v -1.013725 -0.003555 -0.163609
v -1.013843 -0.003489 -0.165273
v -1.013725 -0.003555 -0.166937
v -1.013395 -0.003739 -0.168325
v -1.012889 -0.004021 -0.169485
v -1.012240 -0.004382 -0.170461
v -1.011487 -0.004801 -0.171300
v -1.010662 -0.005261 -0.172047
v -1.009802 -0.005740 -0.172748
v -1.013458 -0.011771 -0.158499
v -1.012499 -0.012019 -0.157798
v -1.014378 -0.011533 -0.159246
v -1.015219 -0.011316 -0.160085
v -1.015942 -0.011130 -0.161061
v -1.016507 -0.010983 -0.162221
v -1.016875 -0.010889 -0.163609
v -1.017006 -0.010854 -0.165273
v -1.016875 -0.010889 -0.166937
v -1.016507 -0.010983 -0.168325
v -1.015942 -0.011130 -0.169485
v -1.015219 -0.011316 -0.170461
v -1.014378 -0.011533 -0.171300
v -1.013458 -0.011771 -0.172047
v -1.012499 -0.012019 -0.172748
v -0.973298 -0.028040 -0.247749
v -0.973298 -0.027496 -0.250453
v -0.973298 -0.025926 -0.252832
v -0.973298 -0.023522 -0.254597
v -0.973298 -0.020573 -0.255536
v -0.973298 -0.017435 -0.255536
v -0.973298 -0.014485 -0.254597
v -0.973298 -0.012081 -0.252832
v -0.973298 -0.010512 -0.250453
v -0.973298 -0.009966 -0.247749
v -0.973298 -0.010512 -0.245044
v -0.973298 -0.012081 -0.242666
v -0.973298 -0.014485 -0.240901
v -0.973298 -0.017435 -0.239962
v -0.973298 -0.020573 -0.239962
v -0.973298 -0.023522 -0.240901
v -0.973298 -0.025926 -0.242666
v -0.973298 -0.027496 -0.245044
vt 7.309253 52.372307
vt 8.021730 52.372307
vt 7.279846 52.993042
vt 7.279846 52.993042
vt 6.592647 52.993042
vt 7.309253 52.372307
vt 7.996408 51.710999
vt 8.733127 51.710999
vt 8.021730 52.372307
vt 8.021730 52.372307
vt 7.309253 52.372307
vt 7.996408 51.710999
vt 8.624664 50.968540
vt 9.383545 50.968540
vt 8.733127 51.710999
vt 8.733127 51.710999
vt 7.996408 51.710999
vt 8.624664 50.968540
vt 9.164573 50.104374
vt 9.942499 50.104374
vt 9.383545 50.968540
vt 9.383545 50.968540
vt 8.624664 50.968540
vt 9.164573 50.104374
vt 9.586682 49.077923
vt 10.379499 49.077923
vt 9.942499 50.104374
vt 9.942499 50.104374
vt 9.164573 50.104374
vt 9.586682 49.077923
vt 9.861546 47.848625
vt 10.664059 47.848625
vt 10.379499 49.077923
vt 10.379499 49.077923
vt 9.586682 49.077923
vt 9.861546 47.848625
vt 9.959710 46.375893
vt 10.765686 46.375893
vt 10.664059 47.848625
vt 10.664059 47.848625
vt 9.861546 47.848625
vt 9.959710 46.375893
vt 9.861545 44.903168
vt 10.664058 44.903168
vt 10.765686 46.375893
vt 10.765686 46.375893
vt 9.959710 46.375893
vt 9.861545 44.903168
vt 9.586683 43.673866
vt 10.379500 43.673866
vt 10.664058 44.903168
vt 10.664058 44.903168
vt 9.861545 44.903168
vt 9.586683 43.673866
vt 9.164573 42.647415
vt 9.942499 42.647415
vt 10.379500 43.673866
vt 10.379500 43.673866
vt 9.586683 43.673866
vt 9.164573 42.647415
vt 8.624664 41.783245
vt 9.383545 41.783245
vt 9.942499 42.647415
vt 9.942499 42.647415
vt 9.164573 42.647415
vt 8.624664 41.783245
vt 7.996408 41.040794
vt 8.733126 41.040794
vt 9.383545 41.783245
vt 9.383545 41.783245
vt 8.624664 41.783245
vt 7.996408 41.040794
vt 7.309252 40.379486
vt 8.021730 40.379486
vt 8.733126 41.040794
vt 8.733126 41.040794
vt 7.996408 41.040794
vt 7.309252 40.379486
vt 6.592647 39.758743
vt 7.279846 39.758743
vt 8.021730 40.379486
vt 8.021730 40.379486
vt 7.309252 40.379486
vt 6.592647 39.758743
vt 5.220369 52.372307
vt 7.309253 52.372307
vt 6.592647 52.993042
vt 6.592647 52.993042
vt 4.577878 52.993042
vt 5.220369 52.372307
vt 5.836456 51.710999
vt 7.996408 51.710999
vt 7.309253 52.372307
vt 7.309253 52.372307
vt 5.220369 52.372307
vt 5.836456 51.710999
vt 6.399734 50.968540
vt 8.624664 50.968540
vt 7.996408 51.710999
vt 7.996408 51.710999
vt 5.836456 51.710999
vt 6.399734 50.968540
vt 6.883802 50.104374
vt 9.164573 50.104374
vt 8.624664 50.968540
vt 8.624664 50.968540
vt 6.399734 50.968540
vt 6.883802 50.104374
vt 7.262256 49.077923
vt 9.586682 49.077923
vt 9.164573 50.104374
vt 9.164573 50.104374
vt 6.883802 50.104374
vt 7.262256 49.077923
vt 7.508692 47.848625
vt 9.861546 47.848625
vt 9.586682 49.077923
vt 9.586682 49.077923
vt 7.262256 49.077923
vt 7.508692 47.848625
vt 7.596704 46.375893
vt 9.959710 46.375893
vt 9.861546 47.848625
vt 9.861546 47.848625
vt 7.508692 47.848625
vt 7.596704 46.375893
vt 7.508691 44.903168
vt 9.861545 44.903168
vt 9.959710 46.375893
vt 9.959710 46.375893
vt 7.596704 46.375893
vt 7.508691 44.903168
vt 7.262257 43.673866
vt 9.586683 43.673866
vt 9.861545 44.903168
vt 9.861545 44.903168
vt 7.508691 44.903168
vt 7.262257 43.673866
vt 6.883802 42.647415
vt 9.164573 42.647415
vt 9.586683 43.673866
vt 9.586683 43.673866
vt 7.262257 43.673866
vt 6.883802 42.647415
vt 6.399734 41.783245
vt 8.624664 41.783245
vt 9.164573 42.647415
vt 9.164573 42.647415
vt 6.883802 42.647415
vt 6.399734 41.783245
vt 5.836454 41.040794
vt 7.996408 41.040794
vt 8.624664 41.783245
vt 8.624664 41.783245
vt 6.399734 41.783245
vt 5.836454 41.040794
vt 5.220368 40.379486
vt 7.309252 40.379486
vt 7.996408 41.040794
vt 7.996408 41.040794
vt 5.836454 41.040794
vt 5.220368 40.379486
vt 4.577877 39.758743
vt 6.592647 39.758743
vt 7.309252 40.379486
vt 7.309252 40.379486
vt 5.220368 40.379486
vt 4.577877 39.758743
vt 1.897435 52.372307
vt 5.220369 52.372307
vt 4.577878 52.993042
vt 4.577878 52.993042
vt 1.372844 52.993042
vt 1.897435 52.372307
vt 2.400468 51.710999
vt 5.836456 51.710999
vt 5.220369 52.372307
vt 5.220369 52.372307
vt 1.897435 52.372307
vt 2.400468 51.710999
vt 2.860383 50.968540
vt 6.399734 50.968540
vt 5.836456 51.710999
vt 5.836456 51.710999
vt 2.400468 51.710999
vt 2.860383 50.968540
vt 3.255623 50.104374
vt 6.883802 50.104374
vt 6.399734 50.968540
vt 6.399734 50.968540
vt 2.860383 50.968540
vt 3.255623 50.104374
vt 3.564629 49.077923
vt 7.262256 49.077923
vt 6.883802 50.104374
vt 6.883802 50.104374
vt 3.255623 50.104374
vt 3.564629 49.077923
vt 3.765843 47.848625
vt 7.508692 47.848625
vt 7.262256 49.077923
vt 7.262256 49.077923
vt 3.564629 49.077923
vt 3.765843 47.848625
vt 3.837704 46.375893
vt 7.596704 46.375893
vt 7.508692 47.848625
vt 7.508692 47.848625
vt 3.765843 47.848625
vt 3.837704 46.375893
vt 3.765842 44.903168
vt 7.508691 44.903168
vt 7.596704 46.375893
vt 7.596704 46.375893
vt 3.837704 46.375893
vt 3.765842 44.903168
vt 3.564630 43.673866
vt 7.262257 43.673866
vt 7.508691 44.903168
vt 7.508691 44.903168
vt 3.765842 44.903168
vt 3.564630 43.673866
vt 3.255622 42.647415
vt 6.883802 42.647415
vt 7.262257 43.673866
vt 7.262257 43.673866
vt 3.564630 43.673866
vt 3.255622 42.647415
vt 2.860382 41.783245
vt 6.399734 41.783245
vt 6.883802 42.647415
vt 6.883802 42.647415
vt 3.255622 42.647415
vt 2.860382 41.783245
vt 2.400466 41.040794
vt 5.836454 41.040794
vt 6.399734 41.783245
vt 6.399734 41.783245
vt 2.860382 41.783245
vt 2.400466 41.040794
vt 1.897434 40.379486
vt 5.220368 40.379486
vt 5.836454 41.040794
vt 5.836454 41.040794
vt 2.400466 41.040794
vt 1.897434 40.379486
vt 1.372842 39.758743
vt 4.577877 39.758743
vt 5.220368 40.379486
vt 5.220368 40.379486
vt 1.897434 40.379486
vt 1.372842 39.758743
vt -2.433100 52.372307
vt 1.897435 52.372307
vt 1.372844 52.993042
vt 1.372844 52.993042
vt -2.804041 52.993042
vt -2.433100 52.372307
vt -2.077402 51.710999
vt 2.400468 51.710999
vt 1.897435 52.372307
vt 1.897435 52.372307
vt -2.433100 52.372307
vt -2.077402 51.710999
vt -1.752192 50.968540
vt 2.860383 50.968540
vt 2.400468 51.710999
vt 2.400468 51.710999
vt -2.077402 51.710999
vt -1.752192 50.968540
vt -1.472715 50.104374
vt 3.255623 50.104374
vt 2.860383 50.968540
vt 2.860383 50.968540
vt -1.752192 50.968540
vt -1.472715 50.104374
vt -1.254215 49.077923
vt 3.564629 49.077923
vt 3.255623 50.104374
vt 3.255623 50.104374
vt -1.472715 50.104374
vt -1.254215 49.077923
vt -1.111936 47.848625
vt 3.765843 47.848625
vt 3.564629 49.077923
vt 3.564629 49.077923
vt -1.254215 49.077923
vt -1.111936 47.848625
vt -1.061122 46.375893
vt 3.837704 46.375893
vt 3.765843 47.848625
vt 3.765843 47.848625
vt -1.111936 47.848625
vt -1.061122 46.375893
vt -1.111937 44.903168
vt 3.765842 44.903168
vt 3.837704 46.375893
vt 3.837704 46.375893
vt -1.061122 46.375893
vt -1.111937 44.903168
vt -1.254216 43.673866
vt 3.564630 43.673866
vt 3.765842 44.903168
vt 3.765842 44.903168
vt -1.111937 44.903168
vt -1.254216 43.673866
vt -1.472716 42.647415
vt 3.255622 42.647415
vt 3.564630 43.673866
vt 3.564630 43.673866
vt -1.254216 43.673866
vt -1.472716 42.647415
vt -1.752194 41.783245
vt 2.860382 41.783245
vt 3.255622 42.647415
vt 3.255622 42.647415
vt -1.472716 42.647415
vt -1.752194 41.783245
vt -2.077404 41.040794
vt 2.400466 41.040794
vt 2.860382 41.783245
vt 2.860382 41.783245
vt -1.752194 41.783245
vt -2.077404 41.040794
vt -2.433101 40.379486
vt 1.897434 40.379486
vt 2.400466 41.040794
vt 2.400466 41.040794
vt -2.077404 41.040794
vt -2.433101 40.379486
vt -2.804043 39.758743
vt 1.372842 39.758743
vt 1.897434 40.379486
vt 1.897434 40.379486
vt -2.433101 40.379486
vt -2.804043 39.758743
vt -7.476111 52.372303
vt -2.433100 52.372307
vt -2.804041 52.993042
vt -2.804041 52.993042
vt -7.668125 52.993038
vt -7.476111 52.372303
vt -7.291989 51.710995
vt -2.077402 51.710999
vt -2.433100 52.372307
vt -2.433100 52.372307
vt -7.476111 52.372303
vt -7.291989 51.710995
vt -7.123648 50.968536
vt -1.752192 50.968540
vt -2.077402 51.710999
vt -2.077402 51.710999
vt -7.291989 51.710995
vt -7.123648 50.968536
vt -6.978981 50.104370
vt -1.472715 50.104374
vt -1.752192 50.968540
vt -1.752192 50.968540
vt -7.123648 50.968536
vt -6.978981 50.104370
vt -6.865877 49.077919
vt -1.254215 49.077923
vt -1.472715 50.104374
vt -1.472715 50.104374
vt -6.978981 50.104370
vt -6.865877 49.077919
vt -6.792228 47.848621
vt -1.111936 47.848625
vt -1.254215 49.077923
vt -1.254215 49.077923
vt -6.865877 49.077919
vt -6.792228 47.848621
vt -6.765924 46.375889
vt -1.061122 46.375893
vt -1.111936 47.848625
vt -1.111936 47.848625
vt -6.792228 47.848621
vt -6.765924 46.375889
vt -6.792228 44.903164
vt -1.111937 44.903168
vt -1.061122 46.375893
vt -1.061122 46.375893
vt -6.765924 46.375889
vt -6.792228 44.903164
vt -6.865877 43.673862
vt -1.254216 43.673866
vt -1.111937 44.903168
vt -1.111937 44.903168
vt -6.792228 44.903164
vt -6.865877 43.673862
vt -6.978981 42.647411
vt -1.472716 42.647415
vt -1.254216 43.673866
vt -1.254216 43.673866
vt -6.865877 43.673862
vt -6.978981 42.647411
vt -7.123650 41.783241
vt -1.752194 41.783245
vt -1.472716 42.647415
vt -1.472716 42.647415
vt -6.978981 42.647411
vt -7.123650 41.783241
vt -7.291991 41.040791
vt -2.077404 41.040794
vt -1.752194 41.783245
vt -1.752194 41.783245
vt -7.123650 41.783241
vt -7.291991 41.040791
vt -7.476113 40.379482
vt -2.433101 40.379486
vt -2.077404 41.040794
vt -2.077404 41.040794
vt -7.291991 41.040791
vt -7.476113 40.379482
vt -7.668128 39.758739
vt -2.804043 39.758743
vt -2.433101 40.379486
vt -2.433101 40.379486
vt -7.476113 40.379482
vt -7.668128 39.758739
vt -12.887933 52.372303
vt -7.476111 52.372303
vt -7.668125 52.993038
vt -7.668125 52.993038
vt -12.887933 52.993038
vt -12.887933 52.372303
vt -12.887934 51.710995
vt -7.291989 51.710995
vt -7.476111 52.372303
vt -7.476111 52.372303
vt -12.887933 52.372303
vt -12.887934 51.710995
vt -12.887934 50.968536
vt -7.123648 50.968536
vt -7.291989 51.710995
vt -7.291989 51.710995
vt -12.887934 51.710995
vt -12.887934 50.968536
vt -12.887934 50.104370
vt -6.978981 50.104370
vt -7.123648 50.968536
vt -7.123648 50.968536
vt -12.887934 50.968536
vt -12.887934 50.104370
vt -12.887934 49.077919
vt -6.865877 49.077919
vt -6.978981 50.104370
vt -6.978981 50.104370
vt -12.887934 50.104370
vt -12.887934 49.077919
vt -12.887935 47.848621
vt -6.792228 47.848621
vt -6.865877 49.077919
vt -6.865877 49.077919
vt -12.887934 49.077919
vt -12.887935 47.848621
vt -12.887935 46.375889
vt -6.765924 46.375889
vt -6.792228 47.848621
vt -6.792228 47.848621
vt -12.887935 47.848621
vt -12.887935 46.375889
vt -12.887935 44.903164
vt -6.792228 44.903164
vt -6.765924 46.375889
vt -6.765924 46.375889
vt -12.887935 46.375889
vt -12.887935 44.903164
vt -12.887935 43.673862
vt -6.865877 43.673862
vt -6.792228 44.903164
vt -6.792228 44.903164
vt -12.887935 44.903164
vt -12.887935 43.673862
vt -12.887935 42.647411
vt -6.978981 42.647411
vt -6.865877 43.673862
vt -6.865877 43.673862
vt -12.887935 43.673862
vt -12.887935 42.647411
vt -12.887935 41.783241
vt -7.123650 41.783241
vt -6.978981 42.647411
vt -6.978981 42.647411
vt -12.887935 42.647411
vt -12.887935 41.783241
vt -12.887935 41.040791
vt -7.291991 41.040791
vt -7.123650 41.783241
vt -7.123650 41.783241
vt -12.887935 41.783241
vt -12.887935 41.040791
vt -12.887935 40.379482
vt -7.476113 40.379482
vt -7.291991 41.040791
vt -7.291991 41.040791
vt -12.887935 41.040791
vt -12.887935 40.379482
vt -12.887935 39.758739
vt -7.668128 39.758739
vt -7.476113 40.379482
vt -7.476113 40.379482
vt -12.887935 40.379482
vt -12.887935 39.758739
vt -18.299753 52.372303
vt -12.887933 52.372303
vt -12.887933 52.993038
vt -12.887933 52.993038
vt -18.107738 52.993038
vt -18.299753 52.372303
vt -18.483877 51.710995
vt -12.887934 51.710995
vt -12.887933 52.372303
vt -12.887933 52.372303
vt -18.299753 52.372303
vt -18.483877 51.710995
vt -18.652218 50.968536
vt -12.887934 50.968536
vt -12.887934 51.710995
vt -12.887934 51.710995
vt -18.483877 51.710995
vt -18.652218 50.968536
vt -18.796886 50.104370
vt -12.887934 50.104370
vt -12.887934 50.968536
vt -12.887934 50.968536
vt -18.652218 50.968536
vt -18.796886 50.104370
vt -18.909990 49.077919
vt -12.887934 49.077919
vt -12.887934 50.104370
vt -12.887934 50.104370
vt -18.796886 50.104370
vt -18.909990 49.077919
vt -18.983639 47.848621
vt -12.887935 47.848621
vt -12.887934 49.077919
vt -12.887934 49.077919
vt -18.909990 49.077919
vt -18.983639 47.848621
vt -19.009943 46.375889
vt -12.887935 46.375889
vt -12.887935 47.848621
vt -12.887935 47.848621
vt -18.983639 47.848621
vt -19.009943 46.375889
vt -18.983639 44.903164
vt -12.887935 44.903164
vt -12.887935 46.375889
vt -12.887935 46.375889
vt -19.009943 46.375889
vt -18.983639 44.903164
vt -18.909990 43.673862
vt -12.887935 43.673862
vt -12.887935 44.903164
vt -12.887935 44.903164
vt -18.983639 44.903164
vt -18.909990 43.673862
vt -18.796886 42.647411
vt -12.887935 42.647411
vt -12.887935 43.673862
vt -12.887935 43.673862
vt -18.909990 43.673862
vt -18.796886 42.647411
vt -18.652218 41.783241
vt -12.887935 41.783241
vt -12.887935 42.647411
vt -12.887935 42.647411
vt -18.796886 42.647411
vt -18.652218 41.783241
vt -18.483877 41.040791
vt -12.887935 41.040791
vt -12.887935 41.783241
vt -12.887935 41.783241
vt -18.652218 41.783241
vt -18.483877 41.040791
vt -18.299755 40.379482
vt -12.887935 40.379482
vt -12.887935 41.040791
vt -12.887935 41.040791
vt -18.483877 41.040791
vt -18.299755 40.379482
vt -18.107742 39.758739
vt -12.887935 39.758739
vt -12.887935 40.379482
vt -12.887935 40.379482
vt -18.299755 40.379482
vt -18.107742 39.758739
vt -23.342770 52.372307
vt -18.299753 52.372303
vt -18.107738 52.993038
vt -18.107738 52.993038
vt -22.971827 52.993042
vt -23.342770 52.372307
vt -23.698467 51.710999
vt -18.483877 51.710995
vt -18.299753 52.372303
vt -18.299753 52.372303
vt -23.342770 52.372307
vt -23.698467 51.710999
vt -24.023678 50.968540
vt -18.652218 50.968536
vt -18.483877 51.710995
vt -18.483877 51.710995
vt -23.698467 51.710999
vt -24.023678 50.968540
vt -24.303154 50.104374
vt -18.796886 50.104370
vt -18.652218 50.968536
vt -18.652218 50.968536
vt -24.023678 50.968540
vt -24.303154 50.104374
vt -24.521654 49.077923
vt -18.909990 49.077919
vt -18.796886 50.104370
vt -18.796886 50.104370
vt -24.303154 50.104374
vt -24.521654 49.077923
vt -24.663935 47.848625
vt -18.983639 47.848621
vt -18.909990 49.077919
vt -18.909990 49.077919
vt -24.521654 49.077923
vt -24.663935 47.848625
vt -24.714748 46.375893
vt -19.009943 46.375889
vt -18.983639 47.848621
vt -18.983639 47.848621
vt -24.663935 47.848625
vt -24.714748 46.375893
vt -24.663935 44.903168
vt -18.983639 44.903164
vt -19.009943 46.375889
vt -19.009943 46.375889
vt -24.714748 46.375893
vt -24.663935 44.903168
vt -24.521656 43.673866
vt -18.909990 43.673862
vt -18.983639 44.903164
vt -18.983639 44.903164
vt -24.663935 44.903168
vt -24.521656 43.673866
vt -24.303154 42.647415
vt -18.796886 42.647411
vt -18.909990 43.673862
vt -18.909990 43.673862
vt -24.521656 43.673866
vt -24.303154 42.647415
vt -24.023678 41.783245
vt -18.652218 41.783241
vt -18.796886 42.647411
vt -18.796886 42.647411
vt -24.303154 42.647415
vt -24.023678 41.783245
vt -23.698469 41.040794
vt -18.483877 41.040791
vt -18.652218 41.783241
vt -18.652218 41.783241
vt -24.023678 41.783245
vt -23.698469 41.040794
vt -23.342772 40.379486
vt -18.299755 40.379482
vt -18.483877 41.040791
vt -18.483877 41.040791
vt -23.698469 41.040794
vt -23.342772 40.379486
vt -22.971828 39.758743
vt -18.107742 39.758739
vt -18.299755 40.379482
vt -18.299755 40.379482
vt -23.342772 40.379486
vt -22.971828 39.758743
vt -27.673306 52.372307
vt -23.342770 52.372307
vt -22.971827 52.993042
vt -22.971827 52.993042
vt -27.148712 52.993042
vt -27.673306 52.372307
vt -28.176338 51.710999
vt -23.698467 51.710999
vt -23.342770 52.372307
vt -23.342770 52.372307
vt -27.673306 52.372307
vt -28.176338 51.710999
vt -28.636253 50.968540
vt -24.023678 50.968540
vt -23.698467 51.710999
vt -23.698467 51.710999
vt -28.176338 51.710999
vt -28.636253 50.968540
vt -29.031494 50.104374
vt -24.303154 50.104374
vt -24.023678 50.968540
vt -24.023678 50.968540
vt -28.636253 50.968540
vt -29.031494 50.104374
vt -29.340500 49.077923
vt -24.521654 49.077923
vt -24.303154 50.104374
vt -24.303154 50.104374
vt -29.031494 50.104374
vt -29.340500 49.077923
vt -29.541714 47.848625
vt -24.663935 47.848625
vt -24.521654 49.077923
vt -24.521654 49.077923
vt -29.340500 49.077923
vt -29.541714 47.848625
vt -29.613575 46.375893
vt -24.714748 46.375893
vt -24.663935 47.848625
vt -24.663935 47.848625
vt -29.541714 47.848625
vt -29.613575 46.375893
vt -29.541714 44.903168
vt -24.663935 44.903168
vt -24.714748 46.375893
vt -24.714748 46.375893
vt -29.613575 46.375893
vt -29.541714 44.903168
vt -29.340500 43.673866
vt -24.521656 43.673866
vt -24.663935 44.903168
vt -24.663935 44.903168
vt -29.541714 44.903168
vt -29.340500 43.673866
vt -29.031494 42.647415
vt -24.303154 42.647415
vt -24.521656 43.673866
vt -24.521656 43.673866
vt -29.340500 43.673866
vt -29.031494 42.647415
vt -28.636253 41.783245
vt -24.023678 41.783245
vt -24.303154 42.647415
vt -24.303154 42.647415
vt -29.031494 42.647415
vt -28.636253 41.783245
vt -28.176338 41.040794
vt -23.698469 41.040794
vt -24.023678 41.783245
vt -24.023678 41.783245
vt -28.636253 41.783245
vt -28.176338 41.040794
vt -27.673306 40.379486
vt -23.342772 40.379486
vt -23.698469 41.040794
vt -23.698469 41.040794
vt -28.176338 41.040794
vt -27.673306 40.379486
vt -27.148714 39.758743
vt -22.971828 39.758743
vt -23.342772 40.379486
vt -23.342772 40.379486
vt -27.673306 40.379486
vt -27.148714 39.758743
vt -30.996241 52.372307
vt -27.673306 52.372307
vt -27.148712 52.993042
vt -27.148712 52.993042
vt -30.353750 52.993042
vt -30.996241 52.372307
vt -31.612328 51.710999
vt -28.176338 51.710999
vt -27.673306 52.372307
vt -27.673306 52.372307
vt -30.996241 52.372307
vt -31.612328 51.710999
vt -32.175606 50.968540
vt -28.636253 50.968540
vt -28.176338 51.710999
vt -28.176338 51.710999
vt -31.612328 51.710999
vt -32.175606 50.968540
vt -32.659676 50.104374
vt -29.031494 50.104374
vt -28.636253 50.968540
vt -28.636253 50.968540
vt -32.175606 50.968540
vt -32.659676 50.104374
vt -33.038128 49.077923
vt -29.340500 49.077923
vt -29.031494 50.104374
vt -29.031494 50.104374
vt -32.659676 50.104374
vt -33.038128 49.077923
vt -33.284565 47.848625
vt -29.541714 47.848625
vt -29.340500 49.077923
vt -29.340500 49.077923
vt -33.038128 49.077923
vt -33.284565 47.848625
vt -33.372578 46.375893
vt -29.613575 46.375893
vt -29.541714 47.848625
vt -29.541714 47.848625
vt -33.284565 47.848625
vt -33.372578 46.375893
vt -33.284565 44.903168
vt -29.541714 44.903168
vt -29.613575 46.375893
vt -29.613575 46.375893
vt -33.372578 46.375893
vt -33.284565 44.903168
vt -33.038132 43.673866
vt -29.340500 43.673866
vt -29.541714 44.903168
vt -29.541714 44.903168
vt -33.284565 44.903168
vt -33.038132 43.673866
vt -32.659676 42.647415
vt -29.031494 42.647415
vt -29.340500 43.673866
vt -29.340500 43.673866
vt -33.038132 43.673866
vt -32.659676 42.647415
vt -32.175606 41.783245
vt -28.636253 41.783245
vt -29.031494 42.647415
vt -29.031494 42.647415
vt -32.659676 42.647415
vt -32.175606 41.783245
vt -31.612328 41.040794
vt -28.176338 41.040794
vt -28.636253 41.783245
vt -28.636253 41.783245
vt -32.175606 41.783245
vt -31.612328 41.040794
vt -30.996243 40.379486
vt -27.673306 40.379486
vt -28.176338 41.040794
vt -28.176338 41.040794
vt -31.612328 41.040794
vt -30.996243 40.379486
vt -30.353750 39.758743
vt -27.148714 39.758743
vt -27.673306 40.379486
vt -27.673306 40.379486
vt -30.996243 40.379486
vt -30.353750 39.758743
vt -33.085129 52.372307
vt -30.996241 52.372307
vt -30.353750 52.993042
vt -30.353750 52.993042
vt -32.368523 52.993042
vt -33.085129 52.372307
vt -33.772285 51.710999
vt -31.612328 51.710999
vt -30.996241 52.372307
vt -30.996241 52.372307
vt -33.085129 52.372307
vt -33.772285 51.710999
vt -34.400543 50.968540
vt -32.175606 50.968540
vt -31.612328 51.710999
vt -31.612328 51.710999
vt -33.772285 51.710999
vt -34.400543 50.968540
vt -34.940449 50.104374
vt -32.659676 50.104374
vt -32.175606 50.968540
vt -32.175606 50.968540
vt -34.400543 50.968540
vt -34.940449 50.104374
vt -35.362560 49.077923
vt -33.038128 49.077923
vt -32.659676 50.104374
vt -32.659676 50.104374
vt -34.940449 50.104374
vt -35.362560 49.077923
vt -35.637424 47.848625
vt -33.284565 47.848625
vt -33.038128 49.077923
vt -33.038128 49.077923
vt -35.362560 49.077923
vt -35.637424 47.848625
vt -35.735588 46.375893
vt -33.372578 46.375893
vt -33.284565 47.848625
vt -33.284565 47.848625
vt -35.637424 47.848625
vt -35.735588 46.375893
vt -35.637421 44.903168
vt -33.284565 44.903168
vt -33.372578 46.375893
vt -33.372578 46.375893
vt -35.735588 46.375893
vt -35.637421 44.903168
vt -35.362560 43.673866
vt -33.038132 43.673866
vt -33.284565 44.903168
vt -33.284565 44.903168
vt -35.637421 44.903168
vt -35.362560 43.673866
vt -34.940449 42.647415
vt -32.659676 42.647415
vt -33.038132 43.673866
vt -33.038132 43.673866
vt -35.362560 43.673866
vt -34.940449 42.647415
vt -34.400543 41.783245
vt -32.175606 41.783245
vt -32.659676 42.647415
vt -32.659676 42.647415
vt -34.940449 42.647415
vt -34.400543 41.783245
vt -33.772285 41.040794
vt -31.612328 41.040794
vt -32.175606 41.783245
vt -32.175606 41.783245
vt -34.400543 41.783245
vt -33.772285 41.040794
vt -33.085129 40.379486
vt -30.996243 40.379486
vt -31.612328 41.040794
vt -31.612328 41.040794
vt -33.772285 41.040794
vt -33.085129 40.379486
vt -32.368523 39.758743
vt -30.353750 39.758743
vt -30.996243 40.379486
vt -30.996243 40.379486
vt -33.085129 40.379486
vt -32.368523 39.758743
vt -33.797607 52.372307
vt -33.085129 52.372307
vt -32.368523 52.993042
vt -32.368523 52.993042
vt -33.055725 52.993042
vt -33.797607 52.372307
vt -34.509007 51.710999
vt -33.772285 51.710999
vt -33.085129 52.372307
vt -33.085129 52.372307
vt -33.797607 52.372307
vt -34.509007 51.710999
vt -35.159424 50.968540
vt -34.400543 50.968540
vt -33.772285 51.710999
vt -33.772285 51.710999
vt -34.509007 51.710999
vt -35.159424 50.968540
vt -35.718376 50.104374
vt -34.940449 50.104374
vt -34.400543 50.968540
vt -34.400543 50.968540
vt -35.159424 50.968540
vt -35.718376 50.104374
vt -36.155380 49.077923
vt -35.362560 49.077923
vt -34.940449 50.104374
vt -34.940449 50.104374
vt -35.718376 50.104374
vt -36.155380 49.077923
vt -36.439938 47.848625
vt -35.637424 47.848625
vt -35.362560 49.077923
vt -35.362560 49.077923
vt -36.155380 49.077923
vt -36.439938 47.848625
vt -36.541565 46.375893
vt -35.735588 46.375893
vt -35.637424 47.848625
vt -35.637424 47.848625
vt -36.439938 47.848625
vt -36.541565 46.375893
vt -36.439938 44.903168
vt -35.637421 44.903168
vt -35.735588 46.375893
vt -35.735588 46.375893
vt -36.541565 46.375893
vt -36.439938 44.903168
vt -36.155380 43.673866
vt -35.362560 43.673866
vt -35.637421 44.903168
vt -35.637421 44.903168
vt -36.439938 44.903168
vt -36.155380 43.673866
vt -35.718376 42.647415
vt -34.940449 42.647415
vt -35.362560 43.673866
vt -35.362560 43.673866
vt -36.155380 43.673866
vt -35.718376 42.647415
vt -35.159424 41.783245
vt -34.400543 41.783245
vt -34.940449 42.647415
vt -34.940449 42.647415
vt -35.718376 42.647415
vt -35.159424 41.783245
vt -34.509003 41.040794
vt -33.772285 41.040794
vt -34.400543 41.783245
vt -34.400543 41.783245
vt -35.159424 41.783245
vt -34.509003 41.040794
vt -33.797607 40.379486
vt -33.085129 40.379486
vt -33.772285 41.040794
vt -33.772285 41.040794
vt -34.509003 41.040794
vt -33.797607 40.379486
vt -33.055725 39.758743
vt -32.368523 39.758743
vt -33.085129 40.379486
vt -33.085129 40.379486
vt -33.797607 40.379486
vt -33.055725 39.758743
vt -33.085129 52.372307
vt -33.797607 52.372307
vt -33.055725 52.993042
vt -33.055725 52.993042
vt -32.368523 52.993042
vt -33.085129 52.372307
vt -33.772285 51.710999
vt -34.509007 51.710999
vt -33.797607 52.372307
vt -33.797607 52.372307
vt -33.085129 52.372307
vt -33.772285 51.710999
vt -34.400539 50.968540
vt -35.159424 50.968540
vt -34.509007 51.710999
vt -34.509007 51.710999
vt -33.772285 51.710999
vt -34.400539 50.968540
vt -34.940449 50.104374
vt -35.718376 50.104374
vt -35.159424 50.968540
vt -35.159424 50.968540
vt -34.400539 50.968540
vt -34.940449 50.104374
vt -35.362556 49.077923
vt -36.155380 49.077923
vt -35.718376 50.104374
vt -35.718376 50.104374
vt -34.940449 50.104374
vt -35.362556 49.077923
vt -35.637421 47.848625
vt -36.439938 47.848625
vt -36.155380 49.077923
vt -36.155380 49.077923
vt -35.362556 49.077923
vt -35.637421 47.848625
vt -35.735588 46.375893
vt -36.541565 46.375893
vt -36.439938 47.848625
vt -36.439938 47.848625
vt -35.637421 47.848625
vt -35.735588 46.375893
vt -35.637421 44.903168
vt -36.439938 44.903168
vt -36.541565 46.375893
vt -36.541565 46.375893
vt -35.735588 46.375893
vt -35.637421 44.903168
vt -35.362560 43.673866
vt -36.155380 43.673866
vt -36.439938 44.903168
vt -36.439938 44.903168
vt -35.637421 44.903168
vt -35.362560 43.673866
vt -34.940449 42.647415
vt -35.718376 42.647415
vt -36.155380 43.673866
vt -36.155380 43.673866
vt -35.362560 43.673866
vt -34.940449 42.647415
vt -34.400539 41.783245
vt -35.159424 41.783245
vt -35.718376 42.647415
vt -35.718376 42.647415
vt -34.940449 42.647415
vt -34.400539 41.783245
vt -33.772285 41.040794
vt -34.509003 41.040794
vt -35.159424 41.783245
vt -35.159424 41.783245
vt -34.400539 41.783245
vt -33.772285 41.040794
vt -33.085129 40.379486
vt -33.797607 40.379486
vt -34.509003 41.040794
vt -34.509003 41.040794
vt -33.772285 41.040794
vt -33.085129 40.379486
vt -32.368523 39.758743
vt -33.055725 39.758743
vt -33.797607 40.379486
vt -33.797607 40.379486
vt -33.085129 40.379486
vt -32.368523 39.758743
vt -30.996248 52.372307
vt -33.085129 52.372307
vt -32.368523 52.993042
vt -32.368523 52.993042
vt -30.353756 52.993042
vt -30.996248 52.372307
vt -31.612335 51.710999
vt -33.772285 51.710999
vt -33.085129 52.372307
vt -33.085129 52.372307
vt -30.996248 52.372307
vt -31.612335 51.710999
vt -32.175613 50.968540
vt -34.400539 50.968540
vt -33.772285 51.710999
vt -33.772285 51.710999
vt -31.612335 51.710999
vt -32.175613 50.968540
vt -32.659683 50.104374
vt -34.940449 50.104374
vt -34.400539 50.968540
vt -34.400539 50.968540
vt -32.175613 50.968540
vt -32.659683 50.104374
vt -33.038136 49.077923
vt -35.362556 49.077923
vt -34.940449 50.104374
vt -34.940449 50.104374
vt -32.659683 50.104374
vt -33.038136 49.077923
vt -33.284569 47.848625
vt -35.637421 47.848625
vt -35.362556 49.077923
vt -35.362556 49.077923
vt -33.038136 49.077923
vt -33.284569 47.848625
vt -33.372581 46.375893
vt -35.735588 46.375893
vt -35.637421 47.848625
vt -35.637421 47.848625
vt -33.284569 47.848625
vt -33.372581 46.375893
vt -33.284569 44.903168
vt -35.637421 44.903168
vt -35.735588 46.375893
vt -35.735588 46.375893
vt -33.372581 46.375893
vt -33.284569 44.903168
vt -33.038136 43.673866
vt -35.362560 43.673866
vt -35.637421 44.903168
vt -35.637421 44.903168
vt -33.284569 44.903168
vt -33.038136 43.673866
vt -32.659683 42.647415
vt -34.940449 42.647415
vt -35.362560 43.673866
vt -35.362560 43.673866
vt -33.038136 43.673866
vt -32.659683 42.647415
vt -32.175613 41.783245
vt -34.400539 41.783245
vt -34.940449 42.647415
vt -34.940449 42.647415
vt -32.659683 42.647415
vt -32.175613 41.783245
vt -31.612333 41.040794
vt -33.772285 41.040794
vt -34.400539 41.783245
vt -34.400539 41.783245
vt -32.175613 41.783245
vt -31.612333 41.040794
vt -30.996246 40.379486
vt -33.085129 40.379486
vt -33.772285 41.040794
vt -33.772285 41.040794
vt -31.612333 41.040794
vt -30.996246 40.379486
vt -30.353756 39.758743
vt -32.368523 39.758743
vt -33.085129 40.379486
vt -33.085129 40.379486
vt -30.996246 40.379486
vt -30.353756 39.758743
vt -27.673313 52.372307
vt -30.996248 52.372307
vt -30.353756 52.993042
vt -30.353756 52.993042
vt -27.148720 52.993042
vt -27.673313 52.372307
vt -28.176346 51.710999
vt -31.612335 51.710999
vt -30.996248 52.372307
vt -30.996248 52.372307
vt -27.673313 52.372307
vt -28.176346 51.710999
vt -28.636261 50.968540
vt -32.175613 50.968540
vt -31.612335 51.710999
vt -31.612335 51.710999
vt -28.176346 51.710999
vt -28.636261 50.968540
vt -29.031500 50.104374
vt -32.659683 50.104374
vt -32.175613 50.968540
vt -32.175613 50.968540
vt -28.636261 50.968540
vt -29.031500 50.104374
vt -29.340506 49.077923
vt -33.038136 49.077923
vt -32.659683 50.104374
vt -32.659683 50.104374
vt -29.031500 50.104374
vt -29.340506 49.077923
vt -29.541719 47.848625
vt -33.284569 47.848625
vt -33.038136 49.077923
vt -33.038136 49.077923
vt -29.340506 49.077923
vt -29.541719 47.848625
vt -29.613581 46.375893
vt -33.372581 46.375893
vt -33.284569 47.848625
vt -33.284569 47.848625
vt -29.541719 47.848625
vt -29.613581 46.375893
vt -29.541718 44.903168
vt -33.284569 44.903168
vt -33.372581 46.375893
vt -33.372581 46.375893
vt -29.613581 46.375893
vt -29.541718 44.903168
vt -29.340506 43.673866
vt -33.038136 43.673866
vt -33.284569 44.903168
vt -33.284569 44.903168
vt -29.541718 44.903168
vt -29.340506 43.673866
vt -29.031500 42.647415
vt -32.659683 42.647415
vt -33.038136 43.673866
vt -33.038136 43.673866
vt -29.340506 43.673866
vt -29.031500 42.647415
vt -28.636259 41.783245
vt -32.175613 41.783245
vt -32.659683 42.647415
vt -32.659683 42.647415
vt -29.031500 42.647415
vt -28.636259 41.783245
vt -28.176344 41.040794
vt -31.612333 41.040794
vt -32.175613 41.783245
vt -32.175613 41.783245
vt -28.636259 41.783245
vt -28.176344 41.040794
vt -27.673311 40.379486
vt -30.996246 40.379486
vt -31.612333 41.040794
vt -31.612333 41.040794
vt -28.176344 41.040794
vt -27.673311 40.379486
vt -27.148720 39.758743
vt -30.353756 39.758743
vt -30.996246 40.379486
vt -30.996246 40.379486
vt -27.673311 40.379486
vt -27.148720 39.758743
vt -23.342779 52.372307
vt -27.673313 52.372307
vt -27.148720 52.993042
vt -27.148720 52.993042
vt -22.971836 52.993042
vt -23.342779 52.372307
vt -23.698477 51.710999
vt -28.176346 51.710999
vt -27.673313 52.372307
vt -27.673313 52.372307
vt -23.342779 52.372307
vt -23.698477 51.710999
vt -24.023685 50.968540
vt -28.636261 50.968540
vt -28.176346 51.710999
vt -28.176346 51.710999
vt -23.698477 51.710999
vt -24.023685 50.968540
vt -24.303164 50.104374
vt -29.031500 50.104374
vt -28.636261 50.968540
vt -28.636261 50.968540
vt -24.023685 50.968540
vt -24.303164 50.104374
vt -24.521664 49.077923
vt -29.340506 49.077923
vt -29.031500 50.104374
vt -29.031500 50.104374
vt -24.303164 50.104374
vt -24.521664 49.077923
vt -24.663942 47.848625
vt -29.541719 47.848625
vt -29.340506 49.077923
vt -29.340506 49.077923
vt -24.521664 49.077923
vt -24.663942 47.848625
vt -24.714756 46.375893
vt -29.613581 46.375893
vt -29.541719 47.848625
vt -29.541719 47.848625
vt -24.663942 47.848625
vt -24.714756 46.375893
vt -24.663940 44.903168
vt -29.541718 44.903168
vt -29.613581 46.375893
vt -29.613581 46.375893
vt -24.714756 46.375893
vt -24.663940 44.903168
vt -24.521664 43.673866
vt -29.340506 43.673866
vt -29.541718 44.903168
vt -29.541718 44.903168
vt -24.663940 44.903168
vt -24.521664 43.673866
vt -24.303162 42.647415
vt -29.031500 42.647415
vt -29.340506 43.673866
vt -29.340506 43.673866
vt -24.521664 43.673866
vt -24.303162 42.647415
vt -24.023685 41.783245
vt -28.636259 41.783245
vt -29.031500 42.647415
vt -29.031500 42.647415
vt -24.303162 42.647415
vt -24.023685 41.783245
vt -23.698475 41.040794
vt -28.176344 41.040794
vt -28.636259 41.783245
vt -28.636259 41.783245
vt -24.023685 41.783245
vt -23.698475 41.040794
vt -23.342777 40.379486
vt -27.673311 40.379486
vt -28.176344 41.040794
vt -28.176344 41.040794
vt -23.698475 41.040794
vt -23.342777 40.379486
vt -22.971836 39.758743
vt -27.148720 39.758743
vt -27.673311 40.379486
vt -27.673311 40.379486
vt -23.342777 40.379486
vt -22.971836 39.758743
vt -18.299767 52.372311
vt -23.342779 52.372307
vt -22.971836 52.993042
vt -22.971836 52.993042
vt -18.107752 52.993046
vt -18.299767 52.372311
vt -18.483889 51.711002
vt -23.698477 51.710999
vt -23.342779 52.372307
vt -23.342779 52.372307
vt -18.299767 52.372311
vt -18.483889 51.711002
vt -18.652229 50.968544
vt -24.023685 50.968540
vt -23.698477 51.710999
vt -23.698477 51.710999
vt -18.483889 51.711002
vt -18.652229 50.968544
vt -18.796896 50.104378
vt -24.303164 50.104374
vt -24.023685 50.968540
vt -24.023685 50.968540
vt -18.652229 50.968544
vt -18.796896 50.104378
vt -18.910000 49.077927
vt -24.521664 49.077923
vt -24.303164 50.104374
vt -24.303164 50.104374
vt -18.796896 50.104378
vt -18.910000 49.077927
vt -18.983650 47.848629
vt -24.663942 47.848625
vt -24.521664 49.077923
vt -24.521664 49.077923
vt -18.910000 49.077927
vt -18.983650 47.848629
vt -19.009953 46.375896
vt -24.714756 46.375893
vt -24.663942 47.848625
vt -24.663942 47.848625
vt -18.983650 47.848629
vt -19.009953 46.375896
vt -18.983648 44.903172
vt -24.663940 44.903168
vt -24.714756 46.375893
vt -24.714756 46.375893
vt -19.009953 46.375896
vt -18.983648 44.903172
vt -18.910000 43.673870
vt -24.521664 43.673866
vt -24.663940 44.903168
vt -24.663940 44.903168
vt -18.983648 44.903172
vt -18.910000 43.673870
vt -18.796896 42.647419
vt -24.303162 42.647415
vt -24.521664 43.673866
vt -24.521664 43.673866
vt -18.910000 43.673870
vt -18.796896 42.647419
vt -18.652227 41.783249
vt -24.023685 41.783245
vt -24.303162 42.647415
vt -24.303162 42.647415
vt -18.796896 42.647419
vt -18.652227 41.783249
vt -18.483887 41.040798
vt -23.698475 41.040794
vt -24.023685 41.783245
vt -24.023685 41.783245
vt -18.652227 41.783249
vt -18.483887 41.040798
vt -18.299765 40.379490
vt -23.342777 40.379486
vt -23.698475 41.040794
vt -23.698475 41.040794
vt -18.483887 41.040798
vt -18.299765 40.379490
vt -18.107750 39.758747
vt -22.971836 39.758743
vt -23.342777 40.379486
vt -23.342777 40.379486
vt -18.299765 40.379490
vt -18.107750 39.758747
vt -12.887946 52.372311
vt -18.299767 52.372311
vt -18.107752 52.993046
vt -18.107752 52.993046
vt -12.887946 52.993046
vt -12.887946 52.372311
vt -12.887946 51.711002
vt -18.483889 51.711002
vt -18.299767 52.372311
vt -18.299767 52.372311
vt -12.887946 52.372311
vt -12.887946 51.711002
vt -12.887945 50.968544
vt -18.652229 50.968544
vt -18.483889 51.711002
vt -18.483889 51.711002
vt -12.887946 51.711002
vt -12.887945 50.968544
vt -12.887945 50.104378
vt -18.796896 50.104378
vt -18.652229 50.968544
vt -18.652229 50.968544
vt -12.887945 50.968544
vt -12.887945 50.104378
vt -12.887945 49.077927
vt -18.910000 49.077927
vt -18.796896 50.104378
vt -18.796896 50.104378
vt -12.887945 50.104378
vt -12.887945 49.077927
vt -12.887945 47.848629
vt -18.983650 47.848629
vt -18.910000 49.077927
vt -18.910000 49.077927
vt -12.887945 49.077927
vt -12.887945 47.848629
vt -12.887945 46.375896
vt -19.009953 46.375896
vt -18.983650 47.848629
vt -18.983650 47.848629
vt -12.887945 47.848629
vt -12.887945 46.375896
vt -12.887944 44.903172
vt -18.983648 44.903172
vt -19.009953 46.375896
vt -19.009953 46.375896
vt -12.887945 46.375896
vt -12.887944 44.903172
vt -12.887944 43.673870
vt -18.910000 43.673870
vt -18.983648 44.903172
vt -18.983648 44.903172
vt -12.887944 44.903172
vt -12.887944 43.673870
vt -12.887944 42.647419
vt -18.796896 42.647419
vt -18.910000 43.673870
vt -18.910000 43.673870
vt -12.887944 43.673870
vt -12.887944 42.647419
vt -12.887944 41.783249
vt -18.652227 41.783249
vt -18.796896 42.647419
vt -18.796896 42.647419
vt -12.887944 42.647419
vt -12.887944 41.783249
vt -12.887944 41.040798
vt -18.483887 41.040798
vt -18.652227 41.783249
vt -18.652227 41.783249
vt -12.887944 41.783249
vt -12.887944 41.040798
vt -12.887944 40.379490
vt -18.299765 40.379490
vt -18.483887 41.040798
vt -18.483887 41.040798
vt -12.887944 41.040798
vt -12.887944 40.379490
vt -12.887944 39.758747
vt -18.107750 39.758747
vt -18.299765 40.379490
vt -18.299765 40.379490
vt -12.887944 40.379490
vt -12.887944 39.758747
vt -7.476116 52.372311
vt -12.887946 52.372311
vt -12.887946 52.993046
vt -12.887946 52.993046
vt -7.668131 52.993046
vt -7.476116 52.372311
vt -7.291993 51.711002
vt -12.887946 51.711002
vt -12.887946 52.372311
vt -12.887946 52.372311
vt -7.476116 52.372311
vt -7.291993 51.711002
vt -7.123652 50.968544
vt -12.887945 50.968544
vt -12.887946 51.711002
vt -12.887946 51.711002
vt -7.291993 51.711002
vt -7.123652 50.968544
vt -6.978983 50.104378
vt -12.887945 50.104378
vt -12.887945 50.968544
vt -12.887945 50.968544
vt -7.123652 50.968544
vt -6.978983 50.104378
vt -6.865879 49.077927
vt -12.887945 49.077927
vt -12.887945 50.104378
vt -12.887945 50.104378
vt -6.978983 50.104378
vt -6.865879 49.077927
vt -6.792230 47.848629
vt -12.887945 47.848629
vt -12.887945 49.077927
vt -12.887945 49.077927
vt -6.865879 49.077927
vt -6.792230 47.848629
vt -6.765926 46.375896
vt -12.887945 46.375896
vt -12.887945 47.848629
vt -12.887945 47.848629
vt -6.792230 47.848629
vt -6.765926 46.375896
vt -6.792230 44.903172
vt -12.887944 44.903172
vt -12.887945 46.375896
vt -12.887945 46.375896
vt -6.765926 46.375896
vt -6.792230 44.903172
vt -6.865878 43.673870
vt -12.887944 43.673870
vt -12.887944 44.903172
vt -12.887944 44.903172
vt -6.792230 44.903172
vt -6.865878 43.673870
vt -6.978982 42.647419
vt -12.887944 42.647419
vt -12.887944 43.673870
vt -12.887944 43.673870
vt -6.865878 43.673870
vt -6.978982 42.647419
vt -7.123651 41.783249
vt -12.887944 41.783249
vt -12.887944 42.647419
vt -12.887944 42.647419
vt -6.978982 42.647419
vt -7.123651 41.783249
vt -7.291992 41.040798
vt -12.887944 41.040798
vt -12.887944 41.783249
vt -12.887944 41.783249
vt -7.123651 41.783249
vt -7.291992 41.040798
vt -7.476114 40.379490
vt -12.887944 40.379490
vt -12.887944 41.040798
vt -12.887944 41.040798
vt -7.291992 41.040798
vt -7.476114 40.379490
vt -7.668128 39.758747
vt -12.887944 39.758747
vt -12.887944 40.379490
vt -12.887944 40.379490
vt -7.476114 40.379490
vt -7.668128 39.758747
vt -2.433112 52.372307
vt -7.476116 52.372311
vt -7.668131 52.993046
vt -7.668131 52.993046
vt -2.804055 52.993042
vt -2.433112 52.372307
vt -2.077414 51.710999
vt -7.291993 51.711002
vt -7.476116 52.372311
vt -7.476116 52.372311
vt -2.433112 52.372307
vt -2.077414 51.710999
vt -1.752205 50.968540
vt -7.123652 50.968544
vt -7.291993 51.711002
vt -7.291993 51.711002
vt -2.077414 51.710999
vt -1.752205 50.968540
vt -1.472728 50.104374
vt -6.978983 50.104378
vt -7.123652 50.968544
vt -7.123652 50.968544
vt -1.752205 50.968540
vt -1.472728 50.104374
vt -1.254228 49.077923
vt -6.865879 49.077927
vt -6.978983 50.104378
vt -6.978983 50.104378
vt -1.472728 50.104374
vt -1.254228 49.077923
vt -1.111948 47.848625
vt -6.792230 47.848629
vt -6.865879 49.077927
vt -6.865879 49.077927
vt -1.254228 49.077923
vt -1.111948 47.848625
vt -1.061134 46.375893
vt -6.765926 46.375896
vt -6.792230 47.848629
vt -6.792230 47.848629
vt -1.111948 47.848625
vt -1.061134 46.375893
vt -1.111948 44.903168
vt -6.792230 44.903172
vt -6.765926 46.375896
vt -6.765926 46.375896
vt -1.061134 46.375893
vt -1.111948 44.903168
vt -1.254226 43.673866
vt -6.865878 43.673870
vt -6.792230 44.903172
vt -6.792230 44.903172
vt -1.111948 44.903168
vt -1.254226 43.673866
vt -1.472727 42.647415
vt -6.978982 42.647419
vt -6.865878 43.673870
vt -6.865878 43.673870
vt -1.254226 43.673866
vt -1.472727 42.647415
vt -1.752203 41.783245
vt -7.123651 41.783249
vt -6.978982 42.647419
vt -6.978982 42.647419
vt -1.472727 42.647415
vt -1.752203 41.783245
vt -2.077413 41.040794
vt -7.291992 41.040798
vt -7.123651 41.783249
vt -7.123651 41.783249
vt -1.752203 41.783245
vt -2.077413 41.040794
vt -2.433111 40.379486
vt -7.476114 40.379490
vt -7.291992 41.040798
vt -7.291992 41.040798
vt -2.077413 41.040794
vt -2.433111 40.379486
vt -2.804053 39.758743
vt -7.668128 39.758747
vt -7.476114 40.379490
vt -7.476114 40.379490
vt -2.433111 40.379486
vt -2.804053 39.758743
vt 1.897429 52.372307
vt -2.433112 52.372307
vt -2.804055 52.993042
vt -2.804055 52.993042
vt 1.372838 52.993042
vt 1.897429 52.372307
vt 2.400463 51.710999
vt -2.077414 51.710999
vt -2.433112 52.372307
vt -2.433112 52.372307
vt 1.897429 52.372307
vt 2.400463 51.710999
vt 2.860379 50.968540
vt -1.752205 50.968540
vt -2.077414 51.710999
vt -2.077414 51.710999
vt 2.400463 51.710999
vt 2.860379 50.968540
vt 3.255619 50.104374
vt -1.472728 50.104374
vt -1.752205 50.968540
vt -1.752205 50.968540
vt 2.860379 50.968540
vt 3.255619 50.104374
vt 3.564625 49.077923
vt -1.254228 49.077923
vt -1.472728 50.104374
vt -1.472728 50.104374
vt 3.255619 50.104374
vt 3.564625 49.077923
vt 3.765839 47.848625
vt -1.111948 47.848625
vt -1.254228 49.077923
vt -1.254228 49.077923
vt 3.564625 49.077923
vt 3.765839 47.848625
vt 3.837701 46.375893
vt -1.061134 46.375893
vt -1.111948 47.848625
vt -1.111948 47.848625
vt 3.765839 47.848625
vt 3.837701 46.375893
vt 3.765839 44.903168
vt -1.111948 44.903168
vt -1.061134 46.375893
vt -1.061134 46.375893
vt 3.837701 46.375893
vt 3.765839 44.903168
vt 3.564626 43.673866
vt -1.254226 43.673866
vt -1.111948 44.903168
vt -1.111948 44.903168
vt 3.765839 44.903168
vt 3.564626 43.673866
vt 3.255620 42.647415
vt -1.472727 42.647415
vt -1.254226 43.673866
vt -1.254226 43.673866
vt 3.564626 43.673866
vt 3.255620 42.647415
vt 2.860380 41.783245
vt -1.752203 41.783245
vt -1.472727 42.647415
vt -1.472727 42.647415
vt 3.255620 42.647415
vt 2.860380 41.783245
vt 2.400464 41.040794
vt -2.077413 41.040794
vt -1.752203 41.783245
vt -1.752203 41.783245
vt 2.860380 41.783245
vt 2.400464 41.040794
vt 1.897431 40.379486
vt -2.433111 40.379486
vt -2.077413 41.040794
vt -2.077413 41.040794
vt 2.400464 41.040794
vt 1.897431 40.379486
vt 1.372839 39.758743
vt -2.804053 39.758743
vt -2.433111 40.379486
vt -2.433111 40.379486
vt 1.897431 40.379486
vt 1.372839 39.758743
vt 5.220366 52.372307
vt 1.897429 52.372307
vt 1.372838 52.993042
vt 1.372838 52.993042
vt 4.577875 52.993042
vt 5.220366 52.372307
vt 5.836453 51.710999
vt 2.400463 51.710999
vt 1.897429 52.372307
vt 1.897429 52.372307
vt 5.220366 52.372307
vt 5.836453 51.710999
vt 6.399733 50.968540
vt 2.860379 50.968540
vt 2.400463 51.710999
vt 2.400463 51.710999
vt 5.836453 51.710999
vt 6.399733 50.968540
vt 6.883801 50.104374
vt 3.255619 50.104374
vt 2.860379 50.968540
vt 2.860379 50.968540
vt 6.399733 50.968540
vt 6.883801 50.104374
vt 7.262255 49.077923
vt 3.564625 49.077923
vt 3.255619 50.104374
vt 3.255619 50.104374
vt 6.883801 50.104374
vt 7.262255 49.077923
vt 7.508691 47.848625
vt 3.765839 47.848625
vt 3.564625 49.077923
vt 3.564625 49.077923
vt 7.262255 49.077923
vt 7.508691 47.848625
vt 7.596703 46.375893
vt 3.837701 46.375893
vt 3.765839 47.848625
vt 3.765839 47.848625
vt 7.508691 47.848625
vt 7.596703 46.375893
vt 7.508690 44.903168
vt 3.765839 44.903168
vt 3.837701 46.375893
vt 3.837701 46.375893
vt 7.596703 46.375893
vt 7.508690 44.903168
vt 7.262256 43.673866
vt 3.564626 43.673866
vt 3.765839 44.903168
vt 3.765839 44.903168
vt 7.508690 44.903168
vt 7.262256 43.673866
vt 6.883801 42.647415
vt 3.255620 42.647415
vt 3.564626 43.673866
vt 3.564626 43.673866
vt 7.262256 43.673866
vt 6.883801 42.647415
vt 6.399733 41.783245
vt 2.860380 41.783245
vt 3.255620 42.647415
vt 3.255620 42.647415
vt 6.883801 42.647415
vt 6.399733 41.783245
vt 5.836454 41.040794
vt 2.400464 41.040794
vt 2.860380 41.783245
vt 2.860380 41.783245
vt 6.399733 41.783245
vt 5.836454 41.040794
vt 5.220367 40.379486
vt 1.897431 40.379486
vt 2.400464 41.040794
vt 2.400464 41.040794
vt 5.836454 41.040794
vt 5.220367 40.379486
vt 4.577876 39.758743
vt 1.372839 39.758743
vt 1.897431 40.379486
vt 1.897431 40.379486
vt 5.220367 40.379486
vt 4.577876 39.758743
vt 7.309249 52.372307
vt 5.220366 52.372307
vt 4.577875 52.993042
vt 4.577875 52.993042
vt 6.592644 52.993042
vt 7.309249 52.372307
vt 7.996406 51.710999
vt 5.836453 51.710999
vt 5.220366 52.372307
vt 5.220366 52.372307
vt 7.309249 52.372307
vt 7.996406 51.710999
vt 8.624661 50.968540
vt 6.399733 50.968540
vt 5.836453 51.710999
vt 5.836453 51.710999
vt 7.996406 51.710999
vt 8.624661 50.968540
vt 9.164570 50.104374
vt 6.883801 50.104374
vt 6.399733 50.968540
vt 6.399733 50.968540
vt 8.624661 50.968540
vt 9.164570 50.104374
vt 9.586680 49.077923
vt 7.262255 49.077923
vt 6.883801 50.104374
vt 6.883801 50.104374
vt 9.164570 50.104374
vt 9.586680 49.077923
vt 9.861544 47.848625
vt 7.508691 47.848625
vt 7.262255 49.077923
vt 7.262255 49.077923
vt 9.586680 49.077923
vt 9.861544 47.848625
vt 9.959707 46.375893
vt 7.596703 46.375893
vt 7.508691 47.848625
vt 7.508691 47.848625
vt 9.861544 47.848625
vt 9.959707 46.375893
vt 9.861543 44.903168
vt 7.508690 44.903168
vt 7.596703 46.375893
vt 7.596703 46.375893
vt 9.959707 46.375893
vt 9.861543 44.903168
vt 9.586681 43.673866
vt 7.262256 43.673866
vt 7.508690 44.903168
vt 7.508690 44.903168
vt 9.861543 44.903168
vt 9.586681 43.673866
vt 9.164570 42.647415
vt 6.883801 42.647415
vt 7.262256 43.673866
vt 7.262256 43.673866
vt 9.586681 43.673866
vt 9.164570 42.647415
vt 8.624661 41.783245
vt 6.399733 41.783245
vt 6.883801 42.647415
vt 6.883801 42.647415
vt 9.164570 42.647415
vt 8.624661 41.783245
vt 7.996405 41.040794
vt 5.836454 41.040794
vt 6.399733 41.783245
vt 6.399733 41.783245
vt 8.624661 41.783245
vt 7.996405 41.040794
vt 7.309250 40.379486
vt 5.220367 40.379486
vt 5.836454 41.040794
vt 5.836454 41.040794
vt 7.996405 41.040794
vt 7.309250 40.379486
vt 6.592644 39.758743
vt 4.577876 39.758743
vt 5.220367 40.379486
vt 5.220367 40.379486
vt 7.309250 40.379486
vt 6.592644 39.758743
vt 8.021730 52.372307
vt 7.309249 52.372307
vt 6.592644 52.993042
vt 6.592644 52.993042
vt 7.279846 52.993042
vt 8.021730 52.372307
vt 8.733127 51.710999
vt 7.996406 51.710999
vt 7.309249 52.372307
vt 7.309249 52.372307
vt 8.021730 52.372307
vt 8.733127 51.710999
vt 9.383545 50.968540
vt 8.624661 50.968540
vt 7.996406 51.710999
vt 7.996406 51.710999
vt 8.733127 51.710999
vt 9.383545 50.968540
vt 9.942499 50.104374
vt 9.164570 50.104374
vt 8.624661 50.968540
vt 8.624661 50.968540
vt 9.383545 50.968540
vt 9.942499 50.104374
vt 10.379499 49.077923
vt 9.586680 49.077923
vt 9.164570 50.104374
vt 9.164570 50.104374
vt 9.942499 50.104374
vt 10.379499 49.077923
vt 10.664059 47.848625
vt 9.861544 47.848625
vt 9.586680 49.077923
vt 9.586680 49.077923
vt 10.379499 49.077923
vt 10.664059 47.848625
vt 10.765686 46.375893
vt 9.959707 46.375893
vt 9.861544 47.848625
vt 9.861544 47.848625
vt 10.664059 47.848625
vt 10.765686 46.375893
vt 10.664058 44.903168
vt 9.861543 44.903168
vt 9.959707 46.375893
vt 9.959707 46.375893
vt 10.765686 46.375893
vt 10.664058 44.903168
vt 10.379500 43.673866
vt 9.586681 43.673866
vt 9.861543 44.903168
vt 9.861543 44.903168
vt 10.664058 44.903168
vt 10.379500 43.673866
vt 9.942499 42.647415
vt 9.164570 42.647415
vt 9.586681 43.673866
vt 9.586681 43.673866
vt 10.379500 43.673866
vt 9.942499 42.647415
vt 9.383545 41.783245
vt 8.624661 41.783245
vt 9.164570 42.647415
vt 9.164570 42.647415
vt 9.942499 42.647415
vt 9.383545 41.783245
vt 8.733126 41.040794
vt 7.996405 41.040794
vt 8.624661 41.783245
vt 8.624661 41.783245
vt 9.383545 41.783245
vt 8.733126 41.040794
vt 8.021730 40.379486
vt 7.309250 40.379486
vt 7.996405 41.040794
vt 7.996405 41.040794
vt 8.733126 41.040794
vt 8.021730 40.379486
vt 7.279846 39.758743
vt 6.592644 39.758743
vt 7.309250 40.379486
vt 7.309250 40.379486
vt 8.021730 40.379486
vt 7.279846 39.758743
vt 0.500000 1.000000
vt 0.328990 0.969846
vt 0.178606 0.883022
vt 0.178606 0.883022
vt 0.066987 0.750000
vt 0.007596 0.586824
vt 0.007596 0.586824
vt 0.007596 0.413176
vt 0.066987 0.250000
vt 0.178606 0.883022
vt 0.007596 0.586824
vt 0.066987 0.250000
vt 0.066987 0.250000
vt 0.178606 0.116978
vt 0.328990 0.030154
vt 0.328990 0.030154
vt 0.500000 0.000000
vt 0.671010 0.030154
vt 0.066987 0.250000
vt 0.328990 0.030154
vt 0.671010 0.030154
vt 0.178606 0.883022
vt 0.066987 0.250000
vt 0.671010 0.030154
vt 0.671010 0.030154
vt 0.821394 0.116978
vt 0.933013 0.250000
vt 0.933013 0.250000
vt 0.992404 0.413176
vt 0.992404 0.586824
vt 0.671010 0.030154
vt 0.933013 0.250000
vt 0.992404 0.586824
vt 0.178606 0.883022
vt 0.671010 0.030154
vt 0.992404 0.586824
vt 0.500000 1.000000
vt 0.178606 0.883022
vt 0.992404 0.586824
vt 0.992404 0.586824
vt 0.933013 0.750000
vt 0.821394 0.883022
vt 0.500000 1.000000
vt 0.992404 0.586824
vt 0.821394 0.883022
vt 0.671010 0.969846
vt 0.500000 1.000000
vt 0.821394 0.883022
f 1/1 2/2 3/3
f 3/4 4/5 1/6
f 5/7 6/8 2/9
f 2/10 1/11 5/12
f 7/13 8/14 6/15
f 6/16 5/17 7/18
f 9/19 10/20 8/21
f 8/22 7/23 9/24
f 11/25 12/26 10/27
f 10/28 9/29 11/30
f 13/31 14/32 12/33
f 12/34 11/35 13/36
f 15/37 16/38 14/39
f 14/40 13/41 15/42
f 17/43 18/44 16/45
f 16/46 15/47 17/48
f 19/49 20/50 18/51
f 18/52 17/53 19/54
f 21/55 22/56 20/57
f 20/58 19/59 21/60
f 23/61 24/62 22/63
f 22/64 21/65 23/66
f 25/67 26/68 24/69
f 24/70 23/71 25/72
f 27/73 28/74 26/75
f 26/76 25/77 27/78
f 29/79 30/80 28/81
f 28/82 27/83 29/84
f 31/85 1/86 4/87
f 4/88 32/89 31/90
f 33/91 5/92 1/93
f 1/94 31/95 33/96
f 34/97 7/98 5/99
f 5/100 33/101 34/102
f 35/103 9/104 7/105
f 7/106 34/107 35/108
f 36/109 11/110 9/111
f 9/112 35/113 36/114
f 37/115 13/116 11/117
f 11/118 36/119 37/120
f 38/121 15/122 13/123
f 13/124 37/125 38/126
f 39/127 17/128 15/129
f 15/130 38/131 39/132
f 40/133 19/134 17/135
f 17/136 39/137 40/138
f 41/139 21/140 19/141
f 19/142 40/143 41/144
f 42/145 23/146 21/147
f 21/148 41/149 42/150
f 43/151 25/152 23/153
f 23/154 42/155 43/156
f 44/157 27/158 25/159
f 25/160 43/161 44/162
f 45/163 29/164 27/165
f 27/166 44/167 45/168
f 46/169 31/170 32/171
f 32/172 47/173 46/174
f 48/175 33/176 31/177
f 31/178 46/179 48/180
f 49/181 34/182 33/183
f 33/184 48/185 49/186
f 50/187 35/188 34/189
f 34/190 49/191 50/192
f 51/193 36/194 35/195
f 35/196 50/197 51/198
f 52/199 37/200 36/201
f 36/202 51/203 52/204
f 53/205 38/206 37/207
f 37/208 52/209 53/210
f 54/211 39/212 38/213
f 38/214 53/215 54/216
f 55/217 40/218 39/219
f 39/220 54/221 55/222
f 56/223 41/224 40/225
f 40/226 55/227 56/228
f 57/229 42/230 41/231
f 41/232 56/233 57/234
f 58/235 43/236 42/237
f 42/238 57/239 58/240
f 59/241 44/242 43/243
f 43/244 58/245 59/246
f 60/247 45/248 44/249
f 44/250 59/251 60/252
f 61/253 46/254 47/255
f 47/256 62/257 61/258
f 63/259 48/260 46/261
f 46/262 61/263 63/264
f 64/265 49/266 48/267
f 48/268 63/269 64/270
f 65/271 50/272 49/273
f 49/274 64/275 65/276
f 66/277 51/278 50/279
f 50/280 65/281 66/282
f 67/283 52/284 51/285
f 51/286 66/287 67/288
f 68/289 53/290 52/291
f 52/292 67/293 68/294
f 69/295 54/296 53/297
f 53/298 68/299 69/300
f 70/301 55/302 54/303
f 54/304 69/305 70/306
f 71/307 56/308 55/309
f 55/310 70/311 71/312
f 72/313 57/314 56/315
f 56/316 71/317 72/318
f 73/319 58/320 57/321
f 57/322 72/323 73/324
f 74/325 59/326 58/327
f 58/328 73/329 74/330
f 75/331 60/332 59/333
f 59/334 74/335 75/336
f 76/337 61/338 62/339
f 62/340 77/341 76/342
f 78/343 63/344 61/345
f 61/346 76/347 78/348
f 79/349 64/350 63/351
f 63/352 78/353 79/354
f 80/355 65/356 64/357
f 64/358 79/359 80/360
f 81/361 66/362 65/363
f 65/364 80/365 81/366
f 82/367 67/368 66/369
f 66/370 81/371 82/372
f 83/373 68/374 67/375
f 67/376 82/377 83/378
f 84/379 69/380 68/381
f 68/382 83/383 84/384
f 85/385 70/386 69/387
f 69/388 84/389 85/390
f 86/391 71/392 70/393
f 70/394 85/395 86/396
f 87/397 72/398 71/399
f 71/400 86/401 87/402
f 88/403 73/404 72/405
f 72/406 87/407 88/408
f 89/409 74/410 73/411
f 73/412 88/413 89/414
f 90/415 75/416 74/417
f 74/418 89/419 90/420
f 91/421 76/422 77/423
f 77/424 92/425 91/426
f 93/427 78/428 76/429
f 76/430 91/431 93/432
f 94/433 79/434 78/435
f 78/436 93/437 94/438
f 95/439 80/440 79/441
f 79/442 94/443 95/444
f 96/445 81/446 80/447
f 80/448 95/449 96/450
f 97/451 82/452 81/453
f 81/454 96/455 97/456
f 98/457 83/458 82/459
f 82/460 97/461 98/462
f 99/463 84/464 83/465
f 83/466 98/467 99/468
f 100/469 85/470 84/471
f 84/472 99/473 100/474
f 101/475 86/476 85/477
f 85/478 100/479 101/480
f 102/481 87/482 86/483
f 86/484 101/485 102/486
f 103/487 88/488 87/489
f 87/490 102/491 103/492
f 104/493 89/494 88/495
f 88/496 103/497 104/498
f 105/499 90/500 89/501
f 89/502 104/503 105/504
f 106/505 91/506 92/507
f 92/508 107/509 106/510
f 108/511 93/512 91/513
f 91/514 106/515 108/516
f 109/517 94/518 93/519
f 93/520 108/521 109/522
f 110/523 95/524 94/525
f 94/526 109/527 110/528
f 111/529 96/530 95/531
f 95/532 110/533 111/534
f 112/535 97/536 96/537
f 96/538 111/539 112/540
f 113/541 98/542 97/543
f 97/544 112/545 113/546
f 114/547 99/548 98/549
f 98/550 113/551 114/552
f 115/553 100/554 99/555
f 99/556 114/557 115/558
f 116/559 101/560 100/561
f 100/562 115/563 116/564
f 117/565 102/566 101/567
f 101/568 116/569 117/570
f 118/571 103/572 102/573
f 102/574 117/575 118/576
f 119/577 104/578 103/579
f 103/580 118/581 119/582
f 120/583 105/584 104/585
f 104/586 119/587 120/588
f 121/589 106/590 107/591
f 107/592 122/593 121/594
f 123/595 108/596 106/597
f 106/598 121/599 123/600
f 124/601 109/602 108/603
f 108/604 123/605 124/606
f 125/607 110/608 109/609
f 109/610 124/611 125/612
f 126/613 111/614 110/615
f 110/616 125/617 126/618
f 127/619 112/620 111/621
f 111/622 126/623 127/624
f 128/625 113/626 112/627
f 112/628 127/629 128/630
f 129/631 114/632 113/633
f 113/634 128/635 129/636
f 130/637 115/638 114/639
f 114/640 129/641 130/642
f 131/643 116/644 115/645
f 115/646 130/647 131/648
f 132/649 117/650 116/651
f 116/652 131/653 132/654
f 133/655 118/656 117/657
f 117/658 132/659 133/660
f 134/661 119/662 118/663
f 118/664 133/665 134/666
f 135/667 120/668 119/669
f 119/670 134/671 135/672
f 136/673 121/674 122/675
f 122/676 137/677 136/678
f 138/679 123/680 121/681
f 121/682 136/683 138/684
f 139/685 124/686 123/687
f 123/688 138/689 139/690
f 140/691 125/692 124/693
f 124/694 139/695 140/696
f 141/697 126/698 125/699
f 125/700 140/701 141/702
f 142/703 127/704 126/705
f 126/706 141/707 142/708
f 143/709 128/710 127/711
f 127/712 142/713 143/714
f 144/715 129/716 128/717
f 128/718 143/719 144/720
f 145/721 130/722 129/723
f 129/724 144/725 145/726
f 146/727 131/728 130/729
f 130/730 145/731 146/732
f 147/733 132/734 131/735
f 131/736 146/737 147/738
f 148/739 133/740 132/741
f 132/742 147/743 148/744
f 149/745 134/746 133/747
f 133/748 148/749 149/750
f 150/751 135/752 134/753
f 134/754 149/755 150/756
f 151/757 136/758 137/759
f 137/760 152/761 151/762
f 153/763 138/764 136/765
f 136/766 151/767 153/768
f 154/769 139/770 138/771
f 138/772 153/773 154/774
f 155/775 140/776 139/777
f 139/778 154/779 155/780
f 156/781 141/782 140/783
f 140/784 155/785 156/786
f 157/787 142/788 141/789
f 141/790 156/791 157/792
f 158/793 143/794 142/795
f 142/796 157/797 158/798
f 159/799 144/800 143/801
f 143/802 158/803 159/804
f 160/805 145/806 144/807
f 144/808 159/809 160/810
f 161/811 146/812 145/813
f 145/814 160/815 161/816
f 162/817 147/818 146/819
f 146/820 161/821 162/822
f 163/823 148/824 147/825
f 147/826 162/827 163/828
f 164/829 149/830 148/831
f 148/832 163/833 164/834
f 165/835 150/836 149/837
f 149/838 164/839 165/840
f 166/841 151/842 152/843
f 152/844 167/845 166/846
f 168/847 153/848 151/849
f 151/850 166/851 168/852
f 169/853 154/854 153/855
f 153/856 168/857 169/858
f 170/859 155/860 154/861
f 154/862 169/863 170/864
f 171/865 156/866 155/867
f 155/868 170/869 171/870
f 172/871 157/872 156/873
f 156/874 171/875 172/876
f 173/877 158/878 157/879
f 157/880 172/881 173/882
f 174/883 159/884 158/885
f 158/886 173/887 174/888
f 175/889 160/890 159/891
f 159/892 174/893 175/894
f 176/895 161/896 160/897
f 160/898 175/899 176/900
f 177/901 162/902 161/903
f 161/904 176/905 177/906
f 178/907 163/908 162/909
f 162/910 177/911 178/912
f 179/913 164/914 163/915
f 163/916 178/917 179/918
f 180/919 165/920 164/921
f 164/922 179/923 180/924
f 181/925 166/926 167/927
f 167/928 182/929 181/930
f 183/931 168/932 166/933
f 166/934 181/935 183/936
f 184/937 169/938 168/939
f 168/940 183/941 184/942
f 185/943 170/944 169/945
f 169/946 184/947 185/948
f 186/949 171/950 170/951
f 170/952 185/953 186/954
f 187/955 172/956 171/957
f 171/958 186/959 187/960
f 188/961 173/962 172/963
f 172/964 187/965 188/966
f 189/967 174/968 173/969
f 173/970 188/971 189/972
f 190/973 175/974 174/975
f 174/976 189/977 190/978
f 191/979 176/980 175/981
f 175/982 190/983 191/984
f 192/985 177/986 176/987
f 176/988 191/989 192/990
f 193/991 178/992 177/993
f 177/994 192/995 193/996
f 194/997 179/998 178/999
f 178/1000 193/1001 194/1002
f 195/1003 180/1004 179/1005
f 179/1006 194/1007 195/1008
f 196/1009 181/1010 182/1011
f 182/1012 197/1013 196/1014
f 198/1015 183/1016 181/1017
f 181/1018 196/1019 198/1020
f 199/1021 184/1022 183/1023
f 183/1024 198/1025 199/1026
f 200/1027 185/1028 184/1029
f 184/1030 199/1031 200/1032
f 201/1033 186/1034 185/1035
f 185/1036 200/1037 201/1038
f 202/1039 187/1040 186/1041
f 186/1042 201/1043 202/1044
f 203/1045 188/1046 187/1047
f 187/1048 202/1049 203/1050
f 204/1051 189/1052 188/1053
f 188/1054 203/1055 204/1056
f 205/1057 190/1058 189/1059
f 189/1060 204/1061 205/1062
f 206/1063 191/1064 190/1065
f 190/1066 205/1067 206/1068
f 207/1069 192/1070 191/1071
f 191/1072 206/1073 207/1074
f 208/1075 193/1076 192/1077
f 192/1078 207/1079 208/1080
f 209/1081 194/1082 193/1083
f 193/1084 208/1085 209/1086
f 210/1087 195/1088 194/1089
f 194/1090 209/1091 210/1092
f 211/1093 196/1094 197/1095
f 197/1096 212/1097 211/1098
f 213/1099 198/1100 196/1101
f 196/1102 211/1103 213/1104
f 214/1105 199/1106 198/1107
f 198/1108 213/1109 214/1110
f 215/1111 200/1112 199/1113
f 199/1114 214/1115 215/1116
f 216/1117 201/1118 200/1119
f 200/1120 215/1121 216/1122
f 217/1123 202/1124 201/1125
f 201/1126 216/1127 217/1128
f 218/1129 203/1130 202/1131
f 202/1132 217/1133 218/1134
f 219/1135 204/1136 203/1137
f 203/1138 218/1139 219/1140
f 220/1141 205/1142 204/1143
f 204/1144 219/1145 220/1146
f 221/1147 206/1148 205/1149
f 205/1150 220/1151 221/1152
f 222/1153 207/1154 206/1155
f 206/1156 221/1157 222/1158
f 223/1159 208/1160 207/1161
f 207/1162 222/1163 223/1164
f 224/1165 209/1166 208/1167
f 208/1168 223/1169 224/1170
f 225/1171 210/1172 209/1173
f 209/1174 224/1175 225/1176
f 226/1177 211/1178 212/1179
f 212/1180 227/1181 226/1182
f 228/1183 213/1184 211/1185
f 211/1186 226/1187 228/1188
f 229/1189 214/1190 213/1191
f 213/1192 228/1193 229/1194
f 230/1195 215/1196 214/1197
f 214/1198 229/1199 230/1200
f 231/1201 216/1202 215/1203
f 215/1204 230/1205 231/1206
f 232/1207 217/1208 216/1209
f 216/1210 231/1211 232/1212
f 233/1213 218/1214 217/1215
f 217/1216 232/1217 233/1218
f 234/1219 219/1220 218/1221
f 218/1222 233/1223 234/1224
f 235/1225 220/1226 219/1227
f 219/1228 234/1229 235/1230
f 236/1231 221/1232 220/1233
f 220/1234 235/1235 236/1236
f 237/1237 222/1238 221/1239
f 221/1240 236/1241 237/1242
f 238/1243 223/1244 222/1245
f 222/1246 237/1247 238/1248
f 239/1249 224/1250 223/1251
f 223/1252 238/1253 239/1254
f 240/1255 225/1256 224/1257
f 224/1258 239/1259 240/1260
f 241/1261 226/1262 227/1263
f 227/1264 242/1265 241/1266
f 243/1267 228/1268 226/1269
f 226/1270 241/1271 243/1272
f 244/1273 229/1274 228/1275
f 228/1276 243/1277 244/1278
f 245/1279 230/1280 229/1281
f 229/1282 244/1283 245/1284
f 246/1285 231/1286 230/1287
f 230/1288 245/1289 246/1290
f 247/1291 232/1292 231/1293
f 231/1294 246/1295 247/1296
f 248/1297 233/1298 232/1299
f 232/1300 247/1301 248/1302
f 249/1303 234/1304 233/1305
f 233/1306 248/1307 249/1308
f 250/1309 235/1310 234/1311
f 234/1312 249/1313 250/1314
f 251/1315 236/1316 235/1317
f 235/1318 250/1319 251/1320
f 252/1321 237/1322 236/1323
f 236/1324 251/1325 252/1326
f 253/1327 238/1328 237/1329
f 237/1330 252/1331 253/1332
f 254/1333 239/1334 238/1335
f 238/1336 253/1337 254/1338
f 255/1339 240/1340 239/1341
f 239/1342 254/1343 255/1344
f 256/1345 241/1346 242/1347
f 242/1348 257/1349 256/1350
f 258/1351 243/1352 241/1353
f 241/1354 256/1355 258/1356
f 259/1357 244/1358 243/1359
f 243/1360 258/1361 259/1362
f 260/1363 245/1364 244/1365
f 244/1366 259/1367 260/1368
f 261/1369 246/1370 245/1371
f 245/1372 260/1373 261/1374
f 262/1375 247/1376 246/1377
f 246/1378 261/1379 262/1380
f 263/1381 248/1382 247/1383
f 247/1384 262/1385 263/1386
f 264/1387 249/1388 248/1389
f 248/1390 263/1391 264/1392
f 265/1393 250/1394 249/1395
f 249/1396 264/1397 265/1398
f 266/1399 251/1400 250/1401
f 250/1402 265/1403 266/1404
f 267/1405 252/1406 251/1407
f 251/1408 266/1409 267/1410
f 268/1411 253/1412 252/1413
f 252/1414 267/1415 268/1416
f 269/1417 254/1418 253/1419
f 253/1420 268/1421 269/1422
f 270/1423 255/1424 254/1425
f 254/1426 269/1427 270/1428
f 271/1429 256/1430 257/1431
f 257/1432 272/1433 271/1434
f 273/1435 258/1436 256/1437
f 256/1438 271/1439 273/1440
f 274/1441 259/1442 258/1443
f 258/1444 273/1445 274/1446
f 275/1447 260/1448 259/1449
f 259/1450 274/1451 275/1452
f 276/1453 261/1454 260/1455
f 260/1456 275/1457 276/1458
f 277/1459 262/1460 261/1461
f 261/1462 276/1463 277/1464
f 278/1465 263/1466 262/1467
f 262/1468 277/1469 278/1470
f 279/1471 264/1472 263/1473
f 263/1474 278/1475 279/1476
f 280/1477 265/1478 264/1479
f 264/1480 279/1481 280/1482
f 281/1483 266/1484 265/1485
f 265/1486 280/1487 281/1488
f 282/1489 267/1490 266/1491
f 266/1492 281/1493 282/1494
f 283/1495 268/1496 267/1497
f 267/1498 282/1499 283/1500
f 284/1501 269/1502 268/1503
f 268/1504 283/1505 284/1506
f 285/1507 270/1508 269/1509
f 269/1510 284/1511 285/1512
f 286/1513 271/1514 272/1515
f 272/1516 287/1517 286/1518
f 288/1519 273/1520 271/1521
f 271/1522 286/1523 288/1524
f 289/1525 274/1526 273/1527
f 273/1528 288/1529 289/1530
f 290/1531 275/1532 274/1533
f 274/1534 289/1535 290/1536
f 291/1537 276/1538 275/1539
f 275/1540 290/1541 291/1542
f 292/1543 277/1544 276/1545
f 276/1546 291/1547 292/1548
f 293/1549 278/1550 277/1551
f 277/1552 292/1553 293/1554
f 294/1555 279/1556 278/1557
f 278/1558 293/1559 294/1560
f 295/1561 280/1562 279/1563
f 279/1564 294/1565 295/1566
f 296/1567 281/1568 280/1569
f 280/1570 295/1571 296/1572
f 297/1573 282/1574 281/1575
f 281/1576 296/1577 297/1578
f 298/1579 283/1580 282/1581
f 282/1582 297/1583 298/1584
f 299/1585 284/1586 283/1587
f 283/1588 298/1589 299/1590
f 300/1591 285/1592 284/1593
f 284/1594 299/1595 300/1596
f 301/1597 286/1598 287/1599
f 287/1600 302/1601 301/1602
f 303/1603 288/1604 286/1605
f 286/1606 301/1607 303/1608
f 304/1609 289/1610 288/1611
f 288/1612 303/1613 304/1614
f 305/1615 290/1616 289/1617
f 289/1618 304/1619 305/1620
f 306/1621 291/1622 290/1623
f 290/1624 305/1625 306/1626
f 307/1627 292/1628 291/1629
f 291/1630 306/1631 307/1632
f 308/1633 293/1634 292/1635
f 292/1636 307/1637 308/1638
f 309/1639 294/1640 293/1641
f 293/1642 308/1643 309/1644
f 310/1645 295/1646 294/1647
f 294/1648 309/1649 310/1650
f 311/1651 296/1652 295/1653
f 295/1654 310/1655 311/1656
f 312/1657 297/1658 296/1659
f 296/1660 311/1661 312/1662
f 313/1663 298/1664 297/1665
f 297/1666 312/1667 313/1668
f 314/1669 299/1670 298/1671
f 298/1672 313/1673 314/1674
f 315/1675 300/1676 299/1677
f 299/1678 314/1679 315/1680
f 316/1681 301/1682 302/1683
f 302/1684 317/1685 316/1686
f 318/1687 303/1688 301/1689
f 301/1690 316/1691 318/1692
f 319/1693 304/1694 303/1695
f 303/1696 318/1697 319/1698
f 320/1699 305/1700 304/1701
f 304/1702 319/1703 320/1704
f 321/1705 306/1706 305/1707
f 305/1708 320/1709 321/1710
f 322/1711 307/1712 306/1713
f 306/1714 321/1715 322/1716
f 323/1717 308/1718 307/1719
f 307/1720 322/1721 323/1722
f 324/1723 309/1724 308/1725
f 308/1726 323/1727 324/1728
f 325/1729 310/1730 309/1731
f 309/1732 324/1733 325/1734
f 326/1735 311/1736 310/1737
f 310/1738 325/1739 326/1740
f 327/1741 312/1742 311/1743
f 311/1744 326/1745 327/1746
f 328/1747 313/1748 312/1749
f 312/1750 327/1751 328/1752
f 329/1753 314/1754 313/1755
f 313/1756 328/1757 329/1758
f 330/1759 315/1760 314/1761
f 314/1762 329/1763 330/1764
f 331/1765 316/1766 317/1767
f 317/1768 332/1769 331/1770
f 333/1771 318/1772 316/1773
f 316/1774 331/1775 333/1776
f 334/1777 319/1778 318/1779
f 318/1780 333/1781 334/1782
f 335/1783 320/1784 319/1785
f 319/1786 334/1787 335/1788
f 336/1789 321/1790 320/1791
f 320/1792 335/1793 336/1794
f 337/1795 322/1796 321/1797
f 321/1798 336/1799 337/1800
f 338/1801 323/1802 322/1803
f 322/1804 337/1805 338/1806
f 339/1807 324/1808 323/1809
f 323/1810 338/1811 339/1812
f 340/1813 325/1814 324/1815
f 324/1816 339/1817 340/1818
f 341/1819 326/1820 325/1821
f 325/1822 340/1823 341/1824
f 342/1825 327/1826 326/1827
f 326/1828 341/1829 342/1830
f 343/1831 328/1832 327/1833
f 327/1834 342/1835 343/1836
f 344/1837 329/1838 328/1839
f 328/1840 343/1841 344/1842
f 345/1843 330/1844 329/1845
f 329/1846 344/1847 345/1848
f 346/1849 331/1850 332/1851
f 332/1852 347/1853 346/1854
f 348/1855 333/1856 331/1857
f 331/1858 346/1859 348/1860
f 349/1861 334/1862 333/1863
f 333/1864 348/1865 349/1866
f 350/1867 335/1868 334/1869
f 334/1870 349/1871 350/1872
f 351/1873 336/1874 335/1875
f 335/1876 350/1877 351/1878
f 352/1879 337/1880 336/1881
f 336/1882 351/1883 352/1884
f 353/1885 338/1886 337/1887
f 337/1888 352/1889 353/1890
f 354/1891 339/1892 338/1893
f 338/1894 353/1895 354/1896
f 355/1897 340/1898 339/1899
f 339/1900 354/1901 355/1902
f 356/1903 341/1904 340/1905
f 340/1906 355/1907 356/1908
f 357/1909 342/1910 341/1911
f 341/1912 356/1913 357/1914
f 358/1915 343/1916 342/1917
f 342/1918 357/1919 358/1920
f 359/1921 344/1922 343/1923
f 343/1924 358/1925 359/1926
f 360/1927 345/1928 344/1929
f 344/1930 359/1931 360/1932
f 2/1933 346/1934 347/1935
f 347/1936 3/1937 2/1938
f 6/1939 348/1940 346/1941
f 346/1942 2/1943 6/1944
f 8/1945 349/1946 348/1947
f 348/1948 6/1949 8/1950
f 10/1951 350/1952 349/1953
f 349/1954 8/1955 10/1956
f 12/1957 351/1958 350/1959
f 350/1960 10/1961 12/1962
f 14/1963 352/1964 351/1965
f 351/1966 12/1967 14/1968
f 16/1969 353/1970 352/1971
f 352/1972 14/1973 16/1974
f 18/1975 354/1976 353/1977
f 353/1978 16/1979 18/1980
f 20/1981 355/1982 354/1983
f 354/1984 18/1985 20/1986
f 22/1987 356/1988 355/1989
f 355/1990 20/1991 22/1992
f 24/1993 357/1994 356/1995
f 356/1996 22/1997 24/1998
f 26/1999 358/2000 357/2001
f 357/2002 24/2003 26/2004
f 28/2005 359/2006 358/2007
f 358/2008 26/2009 28/2010
f 30/2011 360/2012 359/2013
f 359/2014 28/2015 30/2016
f 361/2017 362/2018 363/2019
f 363/2020 364/2021 365/2022
f 365/2023 366/2024 367/2025
f 363/2026 365/2027 367/2028
f 367/2029 368/2030 369/2031
f 369/2032 370/2033 371/2034
f 367/2035 369/2036 371/2037
f 363/2038 367/2039 371/2040
f 371/2041 372/2042 373/2043
f 373/2044 374/2045 375/2046
f 371/2047 373/2048 375/2049
f 363/2050 371/2051 375/2052
f 361/2053 363/2054 375/2055
f 375/2056 376/2057 377/2058
f 361/2059 375/2060 377/2061
f 378/2062 361/2063 377/2064
