# USD → MuJoCo (world-space, simplified)
v 1.710808 1.837255 0.424424
v 1.725792 1.839286 0.424017
v 1.729029 1.828317 0.433891
v 1.735547 1.832054 0.429168
v 1.723256 1.834114 0.426224
v 1.719184 1.845289 0.423164
v 1.718462 1.849261 0.423243
v 1.708551 1.837393 0.424390
v 1.723027 1.847472 0.424181
v 1.718478 1.843078 0.422848
v 1.768787 1.880875 0.426328
v 1.788906 1.902903 0.428679
v 1.731307 1.848569 0.423845
v 1.753010 1.872805 0.426443
v 1.755203 1.849577 0.426853
v 1.764032 1.867555 0.425985
v 1.812603 1.904085 0.428557
v 1.814737 1.897873 0.429906
v 1.817904 1.926787 0.429501
v 1.781154 1.873898 0.428063
v 1.872235 1.941465 0.427862
v 1.837294 1.929064 0.427376
v 1.808961 1.912696 0.428395
v 1.848760 1.947419 0.427518
v 1.864331 1.955019 0.426528
v 1.868123 1.945945 0.426774
v 1.901260 1.976364 0.423741
v 1.900318 1.964723 0.425213
v 1.899837 1.992545 0.424446
v 1.934499 1.999769 0.419894
v 1.927733 2.002187 0.419067
v 1.922575 2.011412 0.419317
v 1.899844 1.986854 0.423807
v 1.944204 2.033923 0.421955
v 1.931598 2.019925 0.418968
v 1.936999 2.012035 0.418979
v 1.947724 2.033154 0.426597
v 1.725159 1.831158 0.446193
v 1.718629 1.834616 0.445809
v 1.713777 1.832466 0.431746
v 1.774488 1.848851 0.437428
v 1.760769 1.846503 0.430567
v 1.823033 1.877680 0.446585
v 1.809413 1.861489 0.452222
v 1.818569 1.884928 0.438042
v 1.820609 1.894316 0.433071
v 1.795270 1.877242 0.431695
v 1.877204 1.926412 0.437979
v 1.906549 1.952018 0.432946
v 1.899868 1.956954 0.427565
v 1.873986 1.934517 0.431098
v 1.911757 1.945158 0.443852
v 1.944442 1.985963 0.434498
v 1.943421 2.003059 0.423155
v 1.931673 1.987234 0.424156
v 1.932555 1.971209 0.435405
v 1.949812 1.995592 0.434594
v 1.953722 2.016502 0.439228
v 1.739157 1.826526 0.454677
v 1.761740 1.826474 0.461449
v 1.755915 1.833244 0.441864
v 1.746305 1.828225 0.445961
v 1.754236 1.821117 0.475771
v 1.763859 1.840486 0.437624
v 1.780395 1.833227 0.463452
v 1.820879 1.861267 0.462093
v 1.871151 1.902619 0.458062
v 1.900507 1.919752 0.467102
v 1.931839 1.954408 0.458375
v 1.917036 1.938502 0.460208
v 1.949520 1.963436 0.475313
v 1.952957 1.982813 0.457932
v 1.958234 1.995531 0.452462
v 1.958404 2.008747 0.456869
v 1.733491 1.829432 0.477293
v 1.757767 1.813613 0.515159
v 1.755352 1.815552 0.501422
v 1.785441 1.813558 0.512408
v 1.752965 1.818872 0.491053
v 1.744466 1.823693 0.475729
v 1.774794 1.817770 0.491480
v 1.784065 1.822094 0.488506
v 1.798428 1.839935 0.469944
v 1.796187 1.824852 0.495335
v 1.828416 1.853879 0.479758
v 1.873118 1.885005 0.484730
v 1.857469 1.861687 0.504373
v 1.942182 1.939034 0.500550
v 1.921317 1.922489 0.493476
v 1.957041 1.970256 0.480837
v 1.966900 1.977889 0.508077
v 1.968519 1.983533 0.525539
v 1.964069 1.988593 0.475051
v 1.965428 1.992295 0.488827
v 1.961430 1.983148 0.472834
v 1.957775 2.007434 0.501619
v 1.750861 1.813151 0.538656
v 1.763606 1.807131 0.537462
v 1.757341 1.809840 0.525263
v 1.746923 1.815446 0.527813
v 1.738891 1.823091 0.532023
v 1.774599 1.799737 0.559223
v 1.784233 1.804981 0.543685
v 1.776464 1.802044 0.547415
v 1.771762 1.806830 0.532348
v 1.774467 1.810619 0.520297
v 1.814567 1.820342 0.530037
v 1.795945 1.812850 0.525043
v 1.843923 1.840444 0.530713
v 1.820140 1.830322 0.514655
v 1.848881 1.828369 0.574842
v 1.872842 1.864073 0.526405
v 1.900217 1.880771 0.542469
v 1.889316 1.884399 0.511010
v 1.951505 1.927115 0.548257
v 1.934698 1.917982 0.528249
v 1.961751 1.942624 0.539755
v 1.965497 1.957563 0.523401
v 1.957162 1.952471 0.508758
v 1.964775 1.968931 0.506170
v 1.969692 1.987752 0.559948
v 1.962967 1.998007 0.562379
v 1.762695 1.803283 0.557464
v 1.754323 1.809144 0.566633
v 1.748518 1.815102 0.570215
v 1.756104 1.804710 0.612328
v 1.759910 1.801000 0.599747
v 1.800388 1.797411 0.581994
v 1.788198 1.797831 0.568411
v 1.803384 1.806791 0.557207
v 1.781057 1.793091 0.586922
v 1.819550 1.807517 0.577908
v 1.896513 1.859806 0.593527
v 1.921043 1.883884 0.585324
v 1.957371 1.929048 0.561238
v 1.945473 1.907222 0.583751
v 1.972813 1.946491 0.578361
v 1.974606 1.962704 0.551123
v 1.969824 1.950433 0.551075
v 1.975821 1.953959 0.569433
v 1.976443 1.971082 0.572557
v 1.965404 1.993650 0.583781
v 1.765283 1.794208 0.633828
v 1.770575 1.792272 0.615356
v 1.771043 1.794554 0.589958
v 1.818084 1.798349 0.610219
v 1.814188 1.789623 0.642633
v 1.878192 1.838226 0.619559
v 1.842180 1.811459 0.621164
v 1.898675 1.853250 0.625106
v 1.916299 1.868359 0.623915
v 1.952873 1.899216 0.634186
v 1.958134 1.916490 0.594296
v 1.939934 1.884784 0.644132
v 1.963355 1.915326 0.615174
v 1.974912 1.927188 0.622580
v 1.982350 1.932464 0.640232
v 1.975201 1.938182 0.595681
v 1.982096 1.940195 0.619999
v 1.970069 1.931652 0.592468
v 1.981007 1.949941 0.598499
v 1.983391 1.949940 0.617733
v 1.984811 1.961285 0.631583
v 1.982079 1.964531 0.607009
v 1.974757 1.982519 0.640903
v 1.980177 1.975926 0.650923
v 1.783247 1.782250 0.648804
v 1.840564 1.797114 0.686309
v 1.833477 1.794513 0.670648
v 1.830943 1.789782 0.686326
v 1.849063 1.808923 0.658469
v 1.853522 1.809699 0.676754
v 1.867293 1.824115 0.652133
v 1.851618 1.807298 0.687305
v 1.860217 1.813129 0.698544
v 1.864956 1.819404 0.681750
v 1.886567 1.836074 0.665490
v 1.922147 1.866956 0.652741
v 1.921533 1.864047 0.669692
v 1.954174 1.891473 0.673460
v 1.966887 1.905742 0.665673
v 1.949646 1.888035 0.697817
v 1.988295 1.933093 0.681486
v 1.977133 1.916779 0.675341
v 1.963112 1.895630 0.696783
v 1.993549 1.946484 0.684599
v 1.990082 1.944544 0.652453
v 1.988612 1.971388 0.712774
v 1.990262 1.966403 0.691597
v 1.781354 1.776048 0.712442
v 1.775669 1.781250 0.698625
v 1.866715 1.821807 0.706220
v 1.871289 1.824981 0.703677
v 1.864100 1.827025 0.734085
v 1.866386 1.825111 0.722956
v 1.895716 1.847406 0.707602
v 1.924164 1.877096 0.730376
v 1.927595 1.873860 0.713805
v 1.962322 1.895907 0.707060
v 1.953207 1.897040 0.732340
v 1.993709 1.941429 0.733314
v 1.965418 1.899675 0.710021
v 1.966731 1.909645 0.735684
v 1.966909 1.905143 0.724005
v 1.992732 1.938522 0.706946
v 1.999016 1.953268 0.751737
v 1.997323 1.950306 0.718168
v 1.995842 1.950620 0.698353
v 1.777520 1.773154 0.758654
v 1.773957 1.774312 0.754258
v 1.782426 1.773585 0.762108
v 1.783725 1.774507 0.729270
v 1.802636 1.797004 0.766298
v 1.831989 1.800839 0.732636
v 1.903964 1.861660 0.728846
v 1.886078 1.858980 0.749129
v 1.918817 1.883219 0.746433
v 1.912063 1.888827 0.757044
v 1.946363 1.901182 0.746449
v 1.943442 1.913450 0.761570
v 1.959419 1.927211 0.766567
v 1.973703 1.925577 0.751232
v 1.988752 1.955362 0.776304
v 1.990878 1.948639 0.761974
v 1.988672 1.950332 0.768816
v 1.999861 1.959196 0.761685
v 1.707873 1.842940 0.424967
v 1.711617 1.863555 0.433289
v 1.729890 1.880375 0.433897
v 1.714137 1.856810 0.427791
v 1.732497 1.871142 0.428659
v 1.738641 1.903869 0.443234
v 1.757167 1.916604 0.440721
v 1.764383 1.904804 0.432790
v 1.782936 1.924847 0.436104
v 1.756262 1.925847 0.447210
v 1.791165 1.913668 0.430611
v 1.811329 1.967287 0.449321
v 1.828315 1.956298 0.434610
v 1.814990 1.960894 0.442596
v 1.872628 2.015135 0.451012
v 1.880275 2.009623 0.440923
v 1.846754 1.993913 0.447912
v 1.851416 1.988579 0.440786
v 1.865039 1.986038 0.432933
v 1.886737 1.995916 0.429532
v 1.878958 1.985410 0.428123
v 1.897902 2.009994 0.430920
v 1.908579 2.040570 0.451618
v 1.922714 2.036864 0.435293
v 1.901546 2.034107 0.447837
v 1.886030 2.025473 0.450287
v 1.943673 2.039681 0.433323
v 1.706779 1.865414 0.455578
v 1.714280 1.843500 0.453303
v 1.708548 1.840778 0.433578
v 1.711693 1.890474 0.465467
v 1.707268 1.876505 0.476434
v 1.735071 1.912108 0.453092
v 1.739831 1.926741 0.463877
v 1.719870 1.910249 0.472934
v 1.777892 1.967396 0.484486
v 1.749168 1.942359 0.476543
v 1.752569 1.935120 0.459465
v 1.798586 1.977207 0.473006
v 1.841596 2.010916 0.477724
v 1.822555 2.003337 0.489829
v 1.797385 1.965335 0.457830
v 1.841373 1.997549 0.456445
v 1.849094 2.007992 0.463714
v 1.712777 1.860005 0.487803
v 1.708655 1.887576 0.483814
v 1.708197 1.876403 0.489994
v 1.713867 1.903413 0.498152
v 1.731026 1.926879 0.479490
v 1.737914 1.937855 0.501003
v 1.756376 1.957181 0.520232
v 1.748719 1.947837 0.495111
v 1.804327 1.998027 0.517892
v 1.807442 1.996852 0.501774
v 1.846561 2.024518 0.523752
v 1.825418 2.012291 0.517377
v 1.841271 2.016774 0.493663
v 1.852768 2.025285 0.502876
v 1.934217 2.039834 0.478812
v 1.921192 2.045992 0.481744
v 1.909564 2.047557 0.480489
v 1.715596 1.867646 0.517599
v 1.720895 1.848807 0.509466
v 1.715520 1.853671 0.498719
v 1.720288 1.891785 0.550928
v 1.743934 1.939933 0.557856
v 1.737923 1.937332 0.523284
v 1.727598 1.918564 0.541783
v 1.728953 1.923602 0.526021
v 1.716430 1.893208 0.536178
v 1.720643 1.905952 0.537220
v 1.718267 1.901707 0.527114
v 1.756851 1.953384 0.566271
v 1.756983 1.956622 0.545925
v 1.787627 1.983331 0.573085
v 1.791200 1.988784 0.553799
v 1.793076 1.990360 0.529497
v 1.819345 2.010041 0.544703
v 1.824685 2.012234 0.560427
v 1.845463 2.023391 0.547193
v 1.858074 2.027874 0.544175
v 1.848514 2.022730 0.576435
v 1.903876 2.042341 0.530845
v 1.949730 2.015059 0.524984
v 1.930299 2.036151 0.514458
v 1.733119 1.829139 0.531567
v 1.718343 1.859239 0.551370
v 1.722959 1.843903 0.543427
v 1.730406 1.880334 0.593206
v 1.726406 1.864647 0.578610
v 1.725792 1.882166 0.576274
v 1.740295 1.921621 0.588870
v 1.733633 1.905934 0.587031
v 1.728197 1.903421 0.575826
v 1.764203 1.948029 0.611233
v 1.756892 1.943736 0.598748
v 1.744036 1.932963 0.578447
v 1.749935 1.931818 0.602291
v 1.790857 1.978294 0.606805
v 1.772346 1.962629 0.595832
v 1.781774 1.958590 0.635563
v 1.781284 1.975534 0.582363
v 1.843374 2.013058 0.613484
v 1.809882 1.990119 0.621307
v 1.809352 1.999790 0.580884
v 1.826579 2.009825 0.588312
v 1.848142 2.018511 0.600604
v 1.861067 2.028198 0.569777
v 1.902202 2.034128 0.586710
v 1.870705 2.028121 0.593466
v 1.882964 2.032587 0.586186
v 1.930702 2.022851 0.600810
v 1.927231 2.028634 0.584462
v 1.918131 2.032792 0.580909
v 1.908988 2.037045 0.560473
v 1.937480 2.026340 0.553985
v 1.749289 1.814464 0.628997
v 1.750489 1.811336 0.610208
v 1.737033 1.830587 0.575297
v 1.739961 1.829274 0.595466
v 1.733590 1.845119 0.591277
v 1.735398 1.857195 0.617969
v 1.755257 1.909947 0.651996
v 1.737055 1.876954 0.625150
v 1.747832 1.890705 0.650142
v 1.737828 1.895073 0.615997
v 1.781614 1.941268 0.667330
v 1.766415 1.934298 0.645095
v 1.763802 1.922784 0.657712
v 1.799061 1.965894 0.659012
v 1.798217 1.975964 0.633505
v 1.820532 1.987319 0.652150
v 1.834816 2.001966 0.637193
v 1.867490 2.020541 0.623041
v 1.876836 2.013449 0.654439
v 1.850108 2.007161 0.643930
v 1.842632 1.997083 0.662352
v 1.896442 2.028038 0.612745
v 1.922027 2.026447 0.616391
v 1.933516 2.022825 0.610934
v 1.958631 2.001774 0.605807
v 1.944535 2.015509 0.604605
v 1.941710 2.016884 0.594787
v 1.746351 1.824697 0.637777
v 1.738561 1.837890 0.619029
v 1.743474 1.869867 0.650281
v 1.743010 1.844208 0.653269
v 1.760813 1.889108 0.686071
v 1.766280 1.906297 0.682306
v 1.792790 1.930011 0.703649
v 1.770121 1.926083 0.666859
v 1.798160 1.949481 0.684330
v 1.849947 1.975855 0.710428
v 1.822238 1.975578 0.679057
v 1.816950 1.966411 0.686340
v 1.836006 1.987675 0.674608
v 1.890328 1.996193 0.713687
v 1.887054 2.003890 0.691093
v 1.857817 1.997863 0.678377
v 1.904750 2.002486 0.712312
v 1.859995 2.004936 0.662665
v 1.902541 2.009827 0.686979
v 1.914972 2.018089 0.656017
v 1.951844 2.003831 0.666229
v 1.931151 2.013653 0.654867
v 1.948675 2.005352 0.649311
v 1.962720 1.995670 0.639625
v 1.751216 1.815514 0.665874
v 1.758465 1.852488 0.708824
v 1.754140 1.854214 0.693320
v 1.756765 1.835995 0.711250
v 1.784181 1.885414 0.730317
v 1.774144 1.887852 0.713392
v 1.761872 1.867957 0.706421
v 1.806207 1.911548 0.736261
v 1.805432 1.931290 0.720547
v 1.791695 1.912678 0.719448
v 1.782470 1.912081 0.705899
v 1.815560 1.942315 0.719275
v 1.807544 1.940062 0.712642
v 1.859989 1.961408 0.737828
v 1.863508 1.972704 0.728320
v 1.871975 1.989787 0.709710
v 1.899098 1.979676 0.747818
v 1.890751 1.985554 0.734177
v 1.923873 2.006033 0.711664
v 1.935188 2.000025 0.727416
v 1.957844 1.998860 0.718789
v 1.939898 2.005475 0.711872
v 1.940148 2.006593 0.697422
v 1.973329 1.988957 0.715026
v 1.763387 1.795686 0.736935
v 1.767014 1.784276 0.734240
v 1.768279 1.778973 0.758259
v 1.798419 1.857345 0.767821
v 1.816196 1.908882 0.746601
v 1.836163 1.911881 0.756277
v 1.822068 1.932683 0.736083
v 1.832164 1.926509 0.746329
v 1.923098 1.967864 0.768556
v 1.923241 1.979873 0.760890
v 1.969653 1.989098 0.729892
v 1.769471 1.778468 0.776883
v 1.775501 1.775306 0.782114
v 1.816598 1.867010 0.771577
v 1.798285 1.841810 0.772387
v 1.830028 1.868497 0.771186
v 1.836951 1.898458 0.764871
v 1.847139 1.891925 0.769970
v 1.852338 1.903507 0.766042
v 1.861251 1.888817 0.770514
v 1.879670 1.911020 0.767967
v 1.994603 1.969608 0.774601
v 1.998196 1.965809 0.774027
v 1.983907 1.978429 0.770005
v 1.996110 1.961358 0.778779
v 1.982170 1.973416 0.776157
v 1.948396 2.022558 0.424124
v 1.935855 2.039485 0.431890
v 1.768702 1.787686 0.699498
v 1.762915 1.794500 0.699285
v 1.798641 1.914404 0.430078
v 1.827245 1.937007 0.429562
v 1.854939 1.964345 0.429437
v 1.819484 1.935117 0.430446
v 1.889217 1.988055 0.426300
v 1.922248 2.023717 0.422990
v 1.903983 2.000533 0.423972
v 1.942515 2.034721 0.421458
v 1.947854 2.034486 0.434415
v 1.942382 2.037450 0.424122
v 1.717080 1.835634 0.444172
v 1.721130 1.835747 0.458178
v 1.946712 2.028021 0.457764
v 1.725783 1.836801 0.516058
v 1.736255 1.827511 0.557955
v 1.745426 1.818292 0.571642
v 1.965202 1.994601 0.596576
v 1.963056 1.996828 0.580541
v 1.757799 1.802974 0.632910
v 1.754249 1.806880 0.635598
v 1.969417 1.988579 0.628138
v 1.786346 1.790245 0.778919
v 1.742933 1.870810 0.426719
v 1.859192 1.962370 0.428476
v 1.974121 1.984004 0.674689
v 1.979014 1.977908 0.675336
v 1.771873 1.777585 0.741651
v 1.788940 1.786536 0.775697
v 1.875555 1.879432 0.768996
v 1.882134 1.867086 0.759777
v 1.926052 1.913331 0.766924
v 1.956671 1.927865 0.768251
v 1.989072 1.961816 0.779959
v 1.985345 1.954057 0.777032
v 1.996210 1.968230 0.754776
v 1.770506 1.771708 0.776226
v 1.988867 1.946572 0.639451
v 1.991803 1.955654 0.654857
v 1.992120 1.960347 0.675398
v 1.979236 1.977417 0.670793
v 1.982307 1.970488 0.640200
v 1.967021 1.990628 0.603602
v 1.978574 1.974012 0.611547
v 1.946388 2.004678 0.682728
v 1.919537 2.010923 0.688982
v 1.928990 2.011086 0.683235
v 1.926718 2.021333 0.637510
v 1.958931 1.999110 0.708312
v 1.963796 1.993536 0.677974
v 1.969946 1.989735 0.654148
v 1.975817 1.981523 0.654488
v 1.976613 1.956720 0.582278
v 1.975202 1.969185 0.553431
v 1.971442 1.984728 0.604141
v 1.976641 1.970732 0.588257
v 1.971981 1.983832 0.580827
v 1.937037 2.017450 0.635163
v 1.928395 2.021281 0.624981
v 1.913921 2.024266 0.630819
v 1.911234 2.028078 0.609801
v 1.949216 2.009158 0.631076
v 1.940636 2.015249 0.619551
v 1.955486 2.008862 0.560223
v 1.951001 2.009874 0.588283
v 1.962262 1.999185 0.563966
v 1.963271 1.996274 0.522877
v 1.956642 2.006502 0.521240
v 1.965382 1.993064 0.502003
v 1.963160 1.999845 0.478110
v 1.924644 2.033439 0.553731
v 1.920013 2.033952 0.539533
v 1.909074 2.035914 0.544353
v 1.934328 2.026931 0.533719
v 1.905760 2.044142 0.512007
v 1.917653 2.042308 0.515220
v 1.930339 2.036597 0.495162
v 1.897465 2.042972 0.520310
v 1.944790 2.026088 0.487190
v 1.946161 2.023421 0.504032
v 1.954561 2.009288 0.522053
v 1.952461 2.016982 0.491444
v 1.960139 1.995783 0.462942
v 1.953474 2.005805 0.435814
v 1.955137 2.013539 0.489471
v 1.953490 2.018853 0.459047
v 1.905033 2.042032 0.496010
v 1.914244 2.041946 0.497500
v 1.908711 2.045805 0.464822
v 1.926985 2.044395 0.460226
v 1.948023 2.026182 0.455449
v 1.744108 1.818263 0.552000
v 1.759351 1.805130 0.545158
v 1.746022 1.818822 0.517352
v 1.726996 1.847044 0.566862
v 1.726262 1.847348 0.557410
v 1.720957 1.849678 0.535278
v 1.738654 1.824341 0.539060
v 1.734884 1.829419 0.547383
v 1.743820 1.820294 0.503992
v 1.736083 1.825772 0.512541
v 1.728071 1.833315 0.477070
v 1.716789 1.857991 0.526148
v 1.721467 1.840789 0.479434
v 1.729439 1.832817 0.500633
v 1.778046 1.786739 0.622794
v 1.772688 1.789049 0.627792
v 1.746593 1.825626 0.654712
v 1.753202 1.808061 0.607563
v 1.762289 1.796907 0.667594
v 1.708456 1.864849 0.474304
v 1.708560 1.862722 0.462714
v 1.708478 1.855328 0.430963
v 1.712455 1.833602 0.433764
v 1.710373 1.839704 0.439491
v 1.999077 1.964280 0.774300
v 1.999183 1.961518 0.744360
v 1.991643 1.967920 0.731399
v 1.996636 1.967124 0.752281
v 1.993754 1.963355 0.711591
v 1.994066 1.971455 0.757287
v 1.981911 1.980651 0.752508
v 1.986786 1.975323 0.734324
v 1.987946 1.972556 0.713012
v 1.983940 1.978728 0.716768
v 1.948614 1.993449 0.742712
v 1.940830 1.991429 0.749911
v 1.971517 1.986027 0.750121
v 1.950325 1.998710 0.727028
v 1.887027 2.034278 0.547746
v 1.871144 2.035030 0.527004
v 1.869061 2.033996 0.516127
v 1.869904 2.026944 0.478042
v 1.895858 2.040013 0.493672
v 1.878496 2.031595 0.484282
v 1.894518 2.042605 0.470518
v 1.871531 2.024566 0.467407
v 1.902229 2.046980 0.475963
v 1.896093 2.037970 0.458248
v 1.883594 2.032423 0.462024
v 1.960478 1.984950 0.766265
v 1.963335 1.987233 0.760534
v 1.945326 1.985977 0.761686
v 1.911449 1.992153 0.738216
v 1.918212 2.002052 0.719654
v 1.903257 2.016963 0.660008
v 1.882521 2.022964 0.628873
v 1.901951 2.026190 0.625259
v 1.888264 2.035911 0.567705
v 1.941584 1.943473 0.778305
v 1.922680 1.922087 0.770281
v 1.859726 1.874322 0.772515
v 1.801356 1.810430 0.776191
v 1.777453 1.792066 0.776804
v 1.773505 1.807196 0.766716
v 1.775795 1.772236 0.779311
v 1.947423 1.974655 0.773513
v 1.938156 1.962422 0.774761
v 1.957622 1.965146 0.778952
v 1.975995 1.953408 0.779894
v 1.953802 1.951689 0.778715
v 1.762005 1.813575 0.732567
v 1.767174 1.817868 0.746516
v 1.767403 1.788394 0.762387
v 1.780613 1.821985 0.769273
v 1.774444 1.860010 0.734284
v 1.801526 1.873499 0.760325
v 1.766522 1.840387 0.732414
v 1.762168 1.794969 0.718595
v 1.757626 1.814033 0.714704
v 1.751638 1.827213 0.690060
v 1.752137 1.840698 0.691333
v 1.750766 1.880897 0.666059
v 1.740333 1.848915 0.635709
v 1.723710 1.864125 0.566026
v 1.718577 1.872261 0.558037
v 1.721516 1.886861 0.565973
v 1.717745 1.866987 0.541942
v 1.717839 1.876488 0.545451
v 1.725019 1.905738 0.554568
v 1.710334 1.893321 0.511478
v 1.712633 1.899579 0.513668
v 1.709140 1.876103 0.505866
v 1.715043 1.886347 0.523589
v 1.714550 1.874347 0.531437
v 1.708394 1.878858 0.460991
v 1.709786 1.872531 0.448248
v 1.718167 1.881561 0.444200
v 1.721384 1.916745 0.509552
v 1.944561 2.034255 0.447054
v 1.947545 2.036480 0.436649
v 1.932953 2.040771 0.463879
v 1.924958 2.042576 0.442166
v 1.932810 2.042372 0.442962
v 1.922765 2.044704 0.453764
v 1.773449 1.770641 0.777225
v 1.782866 1.777606 0.776654
v 1.788678 1.778327 0.767726
v 1.791938 1.775754 0.747522
v 1.801106 1.781389 0.744630
v 1.836306 1.795544 0.700435
v 1.829072 1.789045 0.706607
v 1.843001 1.806021 0.729985
v 1.845016 1.800314 0.705252
v 1.852064 1.808293 0.709490
v 1.855022 1.818565 0.739098
v 1.859813 1.814634 0.718914
v 1.882372 1.831763 0.716533
v 1.879606 1.832903 0.728776
v 1.887202 1.833647 0.693985
v 1.889122 1.839224 0.717419
v 1.893376 1.851669 0.727023
v 1.907294 1.857287 0.710308
v 1.918567 1.862090 0.694897
v 1.914808 1.866600 0.729249
v 1.916734 1.863166 0.713518
v 1.939761 1.879349 0.703416
v 1.943659 1.891384 0.731606
v 1.936034 1.882473 0.729575
v 1.814152 1.787797 0.730061
v 1.823640 1.795767 0.736140
v 1.807604 1.797456 0.759438
v 1.815672 1.807454 0.764341
v 1.831512 1.811585 0.754818
v 1.859319 1.833075 0.750849
v 1.836613 1.822734 0.764821
v 1.867295 1.837473 0.749871
v 1.880905 1.863401 0.758624
v 1.856432 1.840964 0.761676
v 1.883217 1.839739 0.734422
v 1.876112 1.850338 0.753769
v 1.896787 1.874825 0.756030
v 1.911798 1.871185 0.741144
v 1.903572 1.879819 0.757510
v 1.932166 1.887536 0.742096
v 1.926992 1.893332 0.752749
v 1.960713 1.921453 0.759802
v 1.963552 1.913626 0.746899
v 1.871704 1.927178 0.762804
v 1.845573 1.941116 0.744201
v 1.852976 1.918858 0.758729
v 1.864205 1.949982 0.749696
v 1.875896 1.957690 0.751766
v 1.831969 1.882069 0.770712
v 1.884802 1.933275 0.764397
v 1.805359 1.803106 0.769638
v 1.827132 1.819337 0.767227
v 1.829510 1.831062 0.773291
v 1.868198 1.855100 0.762931
v 1.866416 1.864387 0.769286
v 1.892806 1.888178 0.766913
v 1.898174 1.880146 0.759549
v 1.910060 1.890826 0.759502
v 1.832112 1.824226 0.768726
v 1.881188 1.869246 0.762427
v 1.900843 1.897220 0.766537
v 1.941425 1.917050 0.765605
v 1.956106 1.935257 0.775096
v 1.897199 1.918074 0.768946
v 1.909003 1.934766 0.770799
v 1.950415 1.937274 0.777372
v 1.870918 1.902680 0.767811
v 1.890663 1.897887 0.768512
v 1.850529 1.851528 0.769972
v 1.785815 1.807403 0.776078
v 1.810581 1.836793 0.775876
v 1.824275 1.842246 0.775518
v 1.895482 1.843305 0.685291
v 1.905120 1.851647 0.683909
v 1.907614 1.855941 0.655164
v 1.933882 1.874949 0.670748
v 1.872177 1.825927 0.669990
v 1.899909 1.955883 0.765636
v 1.785184 1.849591 0.757692
v 1.817713 1.886051 0.764345
v 1.837875 1.951536 0.729485
v 1.774489 1.776764 0.733333
v 1.788439 1.774450 0.705043
v 1.800067 1.775771 0.699589
v 1.789629 1.774550 0.733197
v 1.809954 1.781171 0.709702
v 1.815536 1.783038 0.685059
v 1.793431 1.775997 0.685749
v 1.799916 1.778747 0.674069
v 1.764920 1.794341 0.664590
v 1.783459 1.779561 0.669226
v 1.790402 1.781657 0.647230
v 1.800303 1.783294 0.645867
v 1.770799 1.788241 0.665840
v 1.786455 1.786298 0.619195
v 1.803252 1.791306 0.612563
v 1.779181 1.789922 0.608533
v 1.796203 1.790197 0.609295
v 1.915939 1.946298 0.772743
v 1.896805 1.963813 0.760569
v 1.752465 1.810643 0.654713
v 1.757334 1.809122 0.704933
v 1.714458 1.841503 0.425700
v 1.711009 1.839068 0.426310
v 1.732579 1.855653 0.426150
v 1.745456 1.867376 0.428707
v 1.738462 1.860946 0.428022
v 1.768620 1.887905 0.430507
v 1.767291 1.886762 0.428840
v 1.752829 1.874051 0.429412
v 1.819608 1.929818 0.431179
v 1.853054 1.953559 0.428424
v 1.877033 1.975841 0.429722
v 1.877282 1.976059 0.427990
v 1.923011 2.012980 0.422354
v 1.916344 2.007288 0.423720
v 1.908871 2.001118 0.425452
v 1.907386 1.999953 0.424153
v 1.901006 1.994838 0.426942
v 1.936621 2.025684 0.422572
v 1.928446 2.017827 0.421959
v 1.719886 1.837287 0.450453
v 1.720727 1.837050 0.452965
v 1.723441 1.834119 0.459442
v 1.721757 1.836731 0.455274
v 1.723428 1.835211 0.460166
v 1.948841 2.025884 0.449018
v 1.947447 2.026376 0.448212
v 1.948685 2.032496 0.437725
v 1.946648 2.032490 0.438476
v 1.946648 2.033216 0.436634
v 1.946604 2.030914 0.440908
v 1.726438 1.836154 0.471174
v 1.727431 1.835981 0.475681
v 1.949015 2.020614 0.469893
v 1.948694 2.021246 0.467541
v 1.731447 1.833318 0.493887
v 1.732176 1.832817 0.496882
v 1.732828 1.832224 0.499907
v 1.728057 1.834411 0.480403
v 1.730719 1.833757 0.491021
v 1.954558 2.011034 0.507491
v 1.952957 2.010190 0.510535
v 1.952786 2.010811 0.507886
v 1.952763 2.014440 0.492642
v 1.740835 1.824949 0.540638
v 1.741558 1.824488 0.543429
v 1.738918 1.824430 0.535227
v 1.961170 1.997530 0.564485
v 1.960140 1.999078 0.557905
v 1.958863 2.000823 0.550477
v 1.957526 2.002556 0.543002
v 1.954153 2.006839 0.523137
v 1.747394 1.817705 0.569124
v 1.754203 1.808509 0.602741
v 1.964112 1.992694 0.590427
v 1.963656 1.993142 0.587249
v 1.963369 1.994505 0.580736
v 1.758576 1.804519 0.628439
v 1.759122 1.803865 0.631939
v 1.765229 1.796585 0.666642
v 1.766207 1.795219 0.671891
v 1.985838 1.971843 0.708856
v 1.984606 1.972596 0.703619
v 1.981769 1.974229 0.691893
v 1.770616 1.786063 0.698546
v 1.990345 1.967736 0.736355
v 1.988496 1.969358 0.724916
v 1.988219 1.969808 0.722174
v 1.773443 1.779336 0.737375
v 1.773396 1.778500 0.743252
v 1.773245 1.779496 0.729365
v 1.804724 1.801369 0.766118
v 1.789076 1.787999 0.773006
v 1.792221 1.791163 0.771379
v 1.818394 1.813512 0.765044
v 1.820256 1.814984 0.765139
v 1.912303 1.892888 0.756784
v 1.914014 1.894259 0.756985
v 1.957817 1.928539 0.767218
v 1.977286 1.947124 0.773117
v 1.990706 1.958903 0.776619
v 1.992542 1.960408 0.777134
v 1.994215 1.961812 0.776897
v 1.996238 1.963793 0.774984
v 1.996529 1.964370 0.773733
v 1.996544 1.964844 0.772578
v 1.996387 1.965199 0.771094
v 1.996163 1.965420 0.768856
v 1.995924 1.965635 0.766120
v 1.770741 1.787040 0.699590
v 1.710355 1.837804 0.427019
v 1.794495 1.908784 0.430884
v 1.842979 1.945833 0.429968
v 1.875714 1.975367 0.428293
v 1.907730 2.000822 0.424182
v 1.947879 2.031130 0.442221
v 1.946648 2.032491 0.438476
v 1.723245 1.835580 0.460176
v 1.949329 2.021714 0.467760
v 1.733085 1.828554 0.510994
v 1.733721 1.830767 0.505712
v 1.733324 1.831505 0.502864
v 1.734075 1.830118 0.508408
v 1.742150 1.823827 0.546161
v 1.742638 1.820874 0.552424
v 1.759647 1.803226 0.635441
v 1.969141 1.986743 0.622427
v 1.763542 1.797096 0.662008
v 1.990788 1.969312 0.732570
v 1.762217 1.883898 0.427847
v 1.926395 2.017488 0.419616
v 1.945017 2.035927 0.424259
v 1.726702 1.834890 0.478163
v 1.949321 2.019963 0.472225
v 1.953151 2.009465 0.513190
v 1.954544 2.008141 0.521038
v 1.964530 1.992143 0.594012
v 1.964948 1.991501 0.597880
v 1.786042 1.784813 0.774358
v 1.844686 1.834379 0.762854
v 1.842412 1.832338 0.763281
v 1.940009 1.914196 0.762000
v 1.772382 1.774086 0.766469
v 1.979268 1.975717 0.680681
v 1.978319 1.976376 0.675947
v 1.977498 1.977060 0.671556
v 1.965381 1.990770 0.601905
v 1.962081 1.995551 0.573151
v 1.961767 1.996389 0.569412
v 1.962260 1.994916 0.576168
v 1.965318 1.992985 0.593498
v 1.954922 2.007611 0.521218
v 1.951912 2.014300 0.491768
v 1.951703 2.014970 0.489198
v 1.951412 2.015669 0.486690
v 1.953077 2.014574 0.491503
v 1.736294 1.827228 0.523460
v 1.732766 1.829794 0.502115
v 1.732231 1.831645 0.498929
v 1.728220 1.835636 0.479481
v 1.728873 1.835183 0.482728
v 1.729451 1.834686 0.485574
v 1.760661 1.800324 0.645464
v 1.764862 1.795432 0.667047
v 1.761781 1.800741 0.648970
v 1.995715 1.965973 0.763143
v 1.995469 1.966342 0.759933
v 1.995118 1.966649 0.756500
v 1.994536 1.966901 0.752718
v 1.993595 1.967102 0.748464
v 1.987428 1.970686 0.716547
v 1.986756 1.971215 0.713085
v 1.987891 1.970234 0.719481
v 1.774268 1.773615 0.777206
v 1.773238 1.773076 0.776689
v 1.775781 1.774684 0.777423
v 1.771983 1.771316 0.775375
v 1.788138 1.785298 0.774815
v 1.807648 1.803305 0.765737
v 1.816518 1.812005 0.765000
v 1.824455 1.816798 0.766278
v 1.832603 1.822167 0.766776
v 1.830605 1.822940 0.765916
v 1.840104 1.830386 0.763821
v 1.879291 1.864516 0.759171
v 1.894728 1.877252 0.757735
v 1.908804 1.889014 0.757435
v 1.915784 1.895535 0.757129
v 1.950562 1.923526 0.764110
v 1.843210 1.831927 0.764257
v 1.864701 1.850758 0.761229
v 1.922072 1.899204 0.758537
v 1.773410 1.780198 0.732024
v 1.767034 1.793921 0.676520
f 10 1 2
f 5 1 40
f 5 40 3
f 5 3 4
f 6 7 227
f 8 6 227
f 15 16 13
f 2 15 13
f 13 14 9
f 10 2 13
f 9 10 13
f 11 12 14
f 16 11 13
f 13 11 14
f 16 15 20
f 19 12 23
f 12 11 23
f 17 16 20
f 17 20 18
f 11 16 17
f 17 23 11
f 17 18 21
f 17 21 22
f 22 24 23
f 24 19 23
f 17 22 23
f 24 22 25
f 24 25 753
f 25 22 26
f 22 21 26
f 33 29 753
f 25 27 33
f 25 33 753
f 28 27 26
f 26 21 28
f 26 27 25
f 29 33 32
f 32 33 31
f 28 30 31
f 31 27 28
f 31 33 27
f 444 36 54
f 34 35 36
f 34 36 444
f 31 36 35
f 35 32 31
f 36 31 30
f 36 30 54
f 38 3 39
f 39 40 458
f 39 3 40
f 64 42 4
f 64 4 61
f 2 4 15
f 4 42 15
f 4 2 5
f 3 62 4
f 4 62 61
f 47 42 41
f 42 47 15
f 15 47 20
f 42 64 41
f 18 47 46
f 46 47 45
f 47 41 45
f 18 20 47
f 43 41 44
f 45 41 43
f 67 48 43
f 43 48 45
f 21 18 51
f 18 46 51
f 45 48 51
f 51 46 45
f 52 49 48
f 67 52 48
f 48 49 51
f 49 52 56
f 49 50 51
f 28 21 51
f 51 50 28
f 54 55 56
f 56 53 54
f 55 54 30
f 28 50 55
f 55 30 28
f 55 50 49
f 56 55 49
f 530 58 444
f 530 444 54
f 57 530 54
f 54 53 57
f 444 58 37
f 58 532 768
f 58 768 770
f 58 770 37
f 59 80 63
f 38 75 59
f 75 80 59
f 3 38 59
f 38 39 765
f 548 75 38
f 765 548 38
f 82 65 60
f 60 81 82
f 65 61 60
f 60 61 62
f 3 59 62
f 62 59 63
f 62 63 60
f 83 85 66
f 41 64 44
f 83 66 44
f 44 64 83
f 64 61 65
f 64 65 83
f 43 44 66
f 66 67 43
f 85 86 67
f 66 85 67
f 68 52 67
f 86 68 67
f 70 69 56
f 52 70 56
f 52 68 70
f 71 95 72
f 69 71 72
f 56 69 53
f 53 69 72
f 57 53 73
f 53 72 73
f 74 58 73
f 79 75 546
f 79 80 75
f 880 546 75
f 75 548 880
f 77 546 76
f 81 77 106
f 81 63 79
f 81 79 77
f 63 80 79
f 63 81 60
f 78 82 81
f 85 84 110
f 110 84 107
f 83 84 85
f 82 84 65
f 84 83 65
f 78 108 84
f 84 82 78
f 84 108 107
f 110 87 85
f 86 87 114
f 86 85 87
f 114 89 86
f 86 89 68
f 89 116 88
f 69 70 88
f 88 70 89
f 89 70 68
f 114 116 89
f 118 90 119
f 119 90 71
f 95 71 90
f 69 88 71
f 88 119 71
f 95 90 120
f 91 95 120
f 120 90 118
f 91 92 515
f 515 94 91
f 91 94 95
f 93 95 94
f 94 516 93
f 516 529 93
f 97 101 789
f 97 100 101
f 98 100 97
f 98 99 100
f 104 539 102
f 102 539 123
f 98 539 104
f 98 104 103
f 99 98 105
f 103 105 98
f 99 106 76
f 105 106 99
f 106 77 76
f 103 108 78
f 78 105 103
f 78 106 105
f 78 81 106
f 103 130 108
f 108 130 107
f 109 111 112
f 112 87 109
f 110 109 87
f 107 111 109
f 110 107 109
f 114 87 112
f 112 113 114
f 116 114 113
f 139 118 117
f 119 117 118
f 116 117 88
f 117 119 88
f 116 115 117
f 138 500 91
f 91 500 92
f 120 138 91
f 139 138 120
f 120 118 139
f 514 513 121
f 121 122 514
f 121 513 92
f 124 127 145
f 145 123 124
f 127 124 125
f 125 126 127
f 130 129 128
f 103 104 129
f 129 130 103
f 145 131 102
f 102 123 145
f 129 104 102
f 102 131 129
f 132 111 107
f 130 132 107
f 130 128 132
f 148 133 111
f 112 133 113
f 111 133 112
f 133 134 113
f 135 136 153
f 136 135 115
f 136 115 116
f 113 134 116
f 134 136 116
f 160 135 153
f 161 137 158
f 137 160 158
f 160 137 135
f 135 140 139
f 137 140 135
f 138 139 140
f 115 135 117
f 117 135 139
f 141 500 140
f 500 138 140
f 552 738 144
f 127 143 144
f 739 737 128
f 739 128 129
f 131 739 129
f 739 131 738
f 738 131 145
f 111 132 149
f 149 132 146
f 128 737 146
f 146 132 128
f 146 737 147
f 149 148 111
f 149 171 173
f 173 148 149
f 150 133 148
f 151 178 154
f 134 133 151
f 151 133 150
f 155 152 181
f 152 155 153
f 153 136 152
f 151 152 134
f 152 136 134
f 154 152 151
f 155 181 156
f 156 157 159
f 153 155 156
f 156 160 153
f 158 160 156
f 156 159 158
f 162 161 158
f 158 159 162
f 166 490 488
f 488 490 164
f 488 164 163
f 735 167 553
f 174 172 168
f 168 172 171
f 168 171 169
f 169 171 149
f 149 146 169
f 169 146 147
f 169 147 728
f 728 170 169
f 170 647 168
f 170 168 169
f 168 650 174
f 172 173 171
f 174 175 172
f 172 175 176
f 176 173 172
f 177 150 148
f 656 714 177
f 151 716 178
f 178 716 179
f 151 150 716
f 716 660 179
f 180 181 152
f 180 152 154
f 154 717 180
f 663 182 717
f 717 182 180
f 182 185 180
f 185 181 180
f 156 184 157
f 184 183 157
f 181 184 156
f 184 181 185
f 485 187 186
f 485 186 486
f 157 183 187
f 187 484 157
f 187 183 186
f 189 566 188
f 188 487 189
f 807 723 191
f 647 650 168
f 650 647 214
f 650 214 649
f 654 656 193
f 192 193 176
f 195 193 192
f 655 654 195
f 654 193 195
f 194 655 195
f 715 714 196
f 179 660 663
f 663 660 198
f 199 185 182
f 199 664 200
f 202 199 200
f 202 204 201
f 203 206 201
f 201 204 203
f 183 184 205
f 205 202 201
f 202 205 185
f 185 205 184
f 201 206 207
f 207 205 201
f 205 207 208
f 205 208 183
f 183 208 186
f 186 208 486
f 207 564 566
f 566 208 207
f 212 723 210
f 210 209 212
f 899 209 210
f 726 212 209
f 209 211 726
f 668 644 213
f 644 668 646
f 646 668 666
f 643 213 644
f 649 214 670
f 194 671 673
f 673 655 194
f 673 671 675
f 215 658 216
f 678 215 216
f 218 682 217
f 219 684 203
f 219 203 200
f 684 219 220
f 222 683 225
f 225 224 222
f 225 683 221
f 222 206 203
f 684 683 222
f 684 222 203
f 223 442 225
f 226 206 224
f 206 222 224
f 221 223 225
f 226 224 225
f 442 562 226
f 226 225 442
f 227 7 230
f 227 230 559
f 8 227 256
f 232 228 229
f 228 230 229
f 230 231 229
f 230 228 559
f 7 231 230
f 236 232 233
f 232 229 233
f 231 234 233
f 233 229 231
f 240 238 236
f 235 240 233
f 233 234 235
f 233 240 236
f 234 237 235
f 240 235 239
f 238 240 244
f 244 243 238
f 239 245 244
f 244 240 239
f 245 239 450
f 243 244 242
f 242 241 243
f 242 244 245
f 247 246 245
f 242 245 246
f 251 250 249
f 248 453 251
f 453 250 251
f 251 252 248
f 246 248 242
f 242 248 252
f 251 585 252
f 242 252 241
f 445 639 250
f 455 457 445
f 250 453 455
f 455 445 250
f 558 561 254
f 558 255 561
f 561 256 254
f 256 227 254
f 254 227 559
f 274 272 257
f 272 258 257
f 258 632 257
f 258 557 558
f 236 264 259
f 259 232 236
f 259 264 260
f 261 259 260
f 260 275 261
f 634 259 261
f 261 274 257
f 264 262 263
f 275 260 263
f 260 264 263
f 236 268 264
f 236 238 268
f 262 264 265
f 265 264 268
f 267 265 266
f 266 265 270
f 265 267 262
f 270 265 269
f 265 268 269
f 238 243 269
f 269 268 238
f 243 241 270
f 270 269 243
f 579 283 266
f 266 270 583
f 283 267 266
f 271 550 255
f 557 271 255
f 273 271 557
f 274 627 272
f 272 627 273
f 273 258 272
f 258 273 557
f 635 276 293
f 274 261 635
f 276 635 275
f 635 261 275
f 278 277 276
f 277 293 276
f 275 263 278
f 276 275 278
f 263 262 278
f 278 279 303
f 303 277 278
f 262 280 278
f 280 279 278
f 282 304 279
f 262 267 280
f 282 279 280
f 281 578 577
f 281 284 578
f 284 281 282
f 281 304 282
f 283 280 267
f 284 282 283
f 282 280 283
f 284 283 579
f 536 286 287
f 638 285 286
f 286 536 638
f 460 285 638
f 290 289 551
f 288 289 290
f 290 629 288
f 624 543 549
f 549 631 624
f 631 625 624
f 296 291 625
f 296 625 631
f 293 292 294
f 294 626 297
f 291 296 297
f 297 626 291
f 295 293 294
f 295 294 297
f 296 298 297
f 277 300 293
f 300 299 292
f 293 300 292
f 300 328 299
f 302 301 300
f 300 301 328
f 302 300 277
f 277 303 302
f 332 331 305
f 305 331 304
f 302 331 301
f 304 331 302
f 279 304 303
f 304 302 303
f 281 306 304
f 306 305 304
f 306 281 577
f 306 577 307
f 307 576 334
f 307 334 306
f 334 308 306
f 306 308 305
f 308 332 305
f 518 522 311
f 309 522 518
f 524 521 522
f 522 309 524
f 311 526 310
f 542 314 313
f 545 314 542
f 314 545 312
f 347 541 316
f 317 315 316
f 352 319 318
f 319 352 315
f 319 315 317
f 318 319 320
f 317 623 320
f 320 319 317
f 292 322 323
f 326 322 299
f 299 322 292
f 326 321 322
f 323 324 318
f 322 324 323
f 326 327 321
f 328 325 326
f 325 327 326
f 326 299 328
f 325 328 301
f 329 359 332
f 332 359 330
f 332 330 331
f 325 301 331
f 331 330 325
f 333 336 360
f 333 360 329
f 329 332 333
f 332 308 333
f 336 333 308
f 308 334 336
f 337 595 335
f 336 593 360
f 337 593 336
f 334 595 337
f 336 334 337
f 595 341 335
f 369 338 339
f 339 342 369
f 507 335 340
f 341 517 340
f 341 340 335
f 342 339 517
f 517 339 340
f 342 511 369
f 342 510 511
f 310 510 342
f 346 343 344
f 345 346 344
f 347 346 345
f 350 348 315
f 348 371 347
f 316 348 347
f 348 316 315
f 351 352 349
f 351 619 372
f 351 372 350
f 318 349 352
f 352 351 350
f 354 327 353
f 354 321 327
f 324 349 318
f 354 355 324
f 324 355 349
f 324 322 321
f 321 354 324
f 327 357 356
f 327 356 353
f 357 327 325
f 363 382 358
f 359 363 358
f 357 330 358
f 358 356 357
f 330 357 325
f 359 358 330
f 362 359 329
f 329 360 362
f 362 360 361
f 360 593 361
f 362 361 387
f 362 387 363
f 363 359 362
f 593 337 364
f 364 335 507
f 337 335 364
f 364 507 594
f 594 593 364
f 507 365 594
f 338 365 507
f 338 369 366
f 338 366 365
f 511 368 369
f 368 511 367
f 369 368 366
f 343 371 370
f 370 371 620
f 396 618 372
f 372 618 373
f 373 618 617
f 396 619 374
f 404 377 376
f 377 353 376
f 375 377 404
f 375 355 377
f 406 378 381
f 378 406 376
f 378 376 353
f 353 356 378
f 356 380 381
f 356 381 378
f 380 382 379
f 381 380 379
f 356 358 380
f 382 380 358
f 386 383 384
f 384 383 409
f 385 387 384
f 384 409 385
f 384 387 361
f 384 361 388
f 384 388 386
f 382 385 409
f 409 379 382
f 363 387 385
f 363 385 382
f 361 593 592
f 592 388 361
f 592 594 389
f 390 391 392
f 393 497 392
f 392 497 390
f 394 615 447
f 743 615 394
f 396 395 397
f 614 395 400
f 374 375 399
f 374 399 400
f 403 402 401
f 398 399 403
f 399 404 403
f 399 375 404
f 402 403 376
f 403 404 376
f 424 402 405
f 402 424 401
f 405 402 406
f 402 376 406
f 381 405 406
f 407 689 688
f 409 408 379
f 411 408 409
f 386 590 383
f 383 590 411
f 411 409 383
f 591 386 412
f 492 415 412
f 415 413 412
f 412 413 591
f 416 495 414
f 416 414 415
f 492 416 415
f 721 434 690
f 690 431 721
f 687 436 423
f 423 425 687
f 425 686 687
f 422 424 425
f 425 423 422
f 426 741 427
f 427 741 410
f 428 569 568
f 600 429 601
f 611 432 711
f 611 711 600
f 431 713 712
f 431 712 432
f 433 431 690
f 433 713 431
f 436 434 423
f 436 435 434
f 435 436 437
f 437 598 435
f 691 705 438
f 740 604 596
f 439 440 442
f 439 443 441
f 480 443 442
f 442 443 439
f 34 444 37
f 445 457 253
f 6 470 7
f 7 470 231
f 852 234 470
f 470 234 231
f 448 451 237
f 237 451 235
f 450 451 471
f 452 246 247
f 853 453 454
f 454 453 248
f 455 453 853
f 854 456 253
f 838 636 637
f 255 550 459
f 459 458 255
f 551 461 842
f 527 526 528
f 545 847 544
f 847 545 462
f 463 345 344
f 367 511 465
f 465 464 367
f 555 344 467
f 467 466 555
f 498 497 468
f 468 497 393
f 446 447 419
f 474 446 419
f 569 571 851
f 475 430 469
f 481 704 606
f 560 8 256
f 6 852 470
f 852 448 237
f 237 234 852
f 448 449 451
f 239 235 451
f 451 449 471
f 450 239 451
f 452 247 450
f 450 471 452
f 247 245 450
f 454 248 246
f 454 246 452
f 854 457 455
f 459 550 855
f 537 528 460
f 525 285 460
f 463 344 555
f 472 571 417
f 473 570 472
f 570 571 472
f 851 482 569
f 482 567 569
f 430 475 602
f 474 419 420
f 599 692 469
f 692 475 469
f 694 695 700
f 696 476 701
f 695 696 701
f 701 477 695
f 697 702 699
f 697 699 698
f 703 699 478
f 479 703 704
f 704 481 479
f 481 606 480
f 474 420 483
f 483 899 474
f 457 854 253
f 159 157 484
f 485 484 187
f 162 484 163
f 159 484 162
f 485 163 484
f 161 162 164
f 162 163 164
f 487 166 189
f 486 488 485
f 166 488 486
f 486 189 166
f 166 487 165
f 488 163 485
f 165 489 166
f 491 495 416
f 416 492 493
f 416 493 491
f 390 491 391
f 389 391 493
f 391 491 493
f 391 389 494
f 392 391 504
f 504 391 494
f 417 496 472
f 495 496 417
f 496 495 491
f 390 496 491
f 472 496 497
f 497 496 390
f 393 392 508
f 392 504 508
f 393 508 468
f 472 498 473
f 472 497 498
f 499 137 161
f 499 161 502
f 161 164 502
f 499 140 137
f 499 502 141
f 141 140 499
f 500 141 92
f 501 502 490
f 502 164 490
f 490 166 501
f 501 166 489
f 501 489 142
f 501 503 502
f 503 501 142
f 141 502 503
f 92 141 121
f 141 503 121
f 122 121 503
f 503 142 122
f 494 389 506
f 506 505 494
f 504 494 505
f 505 509 504
f 509 505 366
f 366 505 365
f 365 505 506
f 365 506 594
f 507 340 339
f 507 339 338
f 508 367 468
f 509 367 508
f 509 508 504
f 368 367 509
f 509 366 368
f 464 468 367
f 465 511 510
f 465 510 512
f 515 92 513
f 514 96 513
f 96 94 515
f 513 96 515
f 96 514 783
f 516 94 96
f 531 516 96
f 531 96 783
f 517 520 342
f 341 519 517
f 518 517 519
f 520 517 518
f 519 309 518
f 518 311 520
f 534 522 521
f 523 311 522
f 534 523 522
f 520 310 342
f 520 311 310
f 311 523 526
f 525 526 523
f 510 527 512
f 510 310 527
f 310 526 527
f 526 525 528
f 529 72 95
f 95 93 529
f 529 516 74
f 72 529 73
f 73 529 74
f 530 73 58
f 57 73 530
f 74 516 532
f 532 516 531
f 768 532 531
f 58 74 532
f 521 533 534
f 534 286 523
f 523 286 285
f 287 286 534
f 287 534 533
f 249 641 535
f 535 641 536
f 535 287 584
f 536 287 535
f 525 523 285
f 525 460 528
f 460 636 537
f 123 538 124
f 538 125 124
f 123 539 538
f 539 98 97
f 539 97 538
f 538 97 789
f 540 99 76
f 540 100 99
f 101 100 540
f 540 547 101
f 462 541 345
f 462 345 463
f 541 347 345
f 542 541 462
f 462 545 542
f 543 314 312
f 313 314 543
f 544 312 545
f 463 847 462
f 312 544 879
f 540 546 547
f 76 546 540
f 77 79 546
f 880 547 546
f 461 549 543
f 543 312 461
f 549 461 289
f 549 289 288
f 551 289 461
f 550 271 290
f 273 290 271
f 273 629 290
f 551 550 290
f 842 461 312
f 312 879 842
f 550 551 855
f 735 143 731
f 143 735 553
f 553 167 552
f 143 126 731
f 552 144 553
f 553 144 143
f 145 144 738
f 127 144 145
f 126 143 127
f 617 743 554
f 554 743 394
f 373 617 554
f 394 370 554
f 742 370 394
f 467 343 742
f 742 343 370
f 373 554 370
f 370 620 373
f 343 346 371
f 347 371 346
f 344 343 467
f 742 556 467
f 556 466 467
f 558 557 255
f 560 561 458
f 561 255 458
f 561 560 256
f 562 563 226
f 563 562 565
f 206 226 563
f 563 207 206
f 207 563 564
f 565 564 563
f 486 208 189
f 208 566 189
f 566 564 188
f 568 567 441
f 441 567 439
f 568 569 567
f 417 414 495
f 417 571 569
f 414 417 428
f 417 569 428
f 482 440 567
f 567 440 439
f 570 851 571
f 441 588 574
f 574 568 441
f 574 588 572
f 588 573 572
f 572 575 574
f 413 575 572
f 428 574 575
f 574 428 568
f 413 415 575
f 519 576 309
f 524 309 577
f 577 578 524
f 576 307 577
f 577 309 576
f 579 578 284
f 581 578 579
f 578 580 524
f 581 580 578
f 521 524 580
f 521 580 533
f 533 580 584
f 584 287 533
f 584 580 581
f 581 582 584
f 583 586 579
f 579 266 583
f 583 270 241
f 586 581 579
f 586 582 581
f 241 252 586
f 586 583 241
f 586 585 582
f 585 586 252
f 535 584 582
f 535 582 249
f 249 582 585
f 249 585 251
f 414 428 575
f 414 575 415
f 587 588 441
f 589 587 603
f 573 588 587
f 573 587 589
f 589 603 427
f 410 590 427
f 589 427 590
f 573 589 590
f 410 411 590
f 573 590 591
f 591 590 386
f 573 591 413
f 413 572 573
f 506 389 594
f 594 592 593
f 386 388 412
f 388 492 412
f 388 592 492
f 389 493 492
f 592 389 492
f 519 341 595
f 595 576 519
f 334 576 595
f 603 443 605
f 605 443 480
f 587 443 603
f 443 587 441
f 707 478 597
f 706 596 597
f 437 709 476
f 598 710 433
f 469 600 711
f 469 430 600
f 600 430 429
f 611 600 601
f 398 403 401
f 401 424 422
f 429 430 483
f 483 430 602
f 719 741 426
f 604 740 426
f 426 427 603
f 603 604 426
f 604 603 605
f 606 605 480
f 606 607 605
f 607 596 604
f 607 604 605
f 707 596 607
f 707 606 704
f 607 606 707
f 397 609 608
f 608 616 397
f 397 395 614
f 614 609 397
f 614 400 612
f 612 399 398
f 400 399 612
f 610 429 420
f 420 429 483
f 610 608 609
f 601 429 610
f 609 601 610
f 601 614 611
f 611 614 612
f 612 720 611
f 613 421 720
f 613 398 401
f 422 613 401
f 422 721 613
f 614 601 609
f 613 720 398
f 398 720 612
f 615 419 447
f 616 743 617
f 617 397 616
f 618 397 617
f 374 351 349
f 349 375 374
f 396 372 619
f 619 351 374
f 355 375 349
f 377 354 353
f 355 354 377
f 608 418 616
f 616 418 743
f 615 420 419
f 743 418 615
f 418 420 615
f 397 618 396
f 396 374 400
f 400 395 396
f 348 620 371
f 620 350 372
f 372 373 620
f 350 620 348
f 541 621 316
f 621 541 542
f 621 317 316
f 622 623 317
f 317 621 622
f 621 542 313
f 621 313 622
f 622 313 624
f 624 625 622
f 313 543 624
f 622 625 291
f 291 623 622
f 294 320 626
f 623 291 626
f 626 320 623
f 292 323 294
f 320 294 318
f 318 294 323
f 630 288 629
f 630 629 627
f 630 627 298
f 627 274 628
f 627 629 273
f 630 298 296
f 296 631 630
f 631 549 288
f 631 288 630
f 558 254 632
f 632 258 558
f 254 633 632
f 559 228 633
f 254 559 633
f 232 259 634
f 634 228 232
f 633 228 634
f 633 634 257
f 257 632 633
f 634 261 257
f 350 315 352
f 635 628 274
f 293 295 635
f 298 627 628
f 628 635 295
f 298 628 295
f 295 297 298
f 838 537 636
f 637 253 456
f 636 460 638
f 640 636 638
f 640 638 536
f 445 640 639
f 249 250 639
f 253 640 445
f 253 637 640
f 640 637 636
f 536 641 640
f 641 639 640
f 639 641 249
f 899 642 209
f 209 642 211
f 642 602 211
f 644 645 211
f 644 211 602
f 643 644 602
f 726 211 645
f 646 645 644
f 666 727 646
f 727 645 646
f 727 170 728
f 727 648 170
f 648 727 666
f 666 667 648
f 170 648 647
f 648 667 214
f 214 647 648
f 649 651 650
f 174 650 651
f 174 651 175
f 175 651 653
f 653 649 652
f 651 649 653
f 192 176 175
f 653 192 175
f 194 195 653
f 653 652 194
f 653 195 192
f 718 193 656
f 654 657 656
f 657 714 656
f 676 657 655
f 655 657 654
f 714 657 196
f 676 658 657
f 657 658 196
f 659 658 215
f 196 658 659
f 196 659 715
f 660 716 715
f 660 715 659
f 660 659 662
f 215 661 659
f 661 662 659
f 197 198 662
f 662 661 197
f 198 660 662
f 198 197 665
f 665 663 198
f 182 663 664
f 663 665 664
f 199 182 664
f 204 200 203
f 202 200 204
f 185 199 202
f 666 668 667
f 668 213 669
f 667 670 214
f 669 670 668
f 668 670 667
f 670 669 904
f 652 670 672
f 672 670 904
f 652 649 670
f 672 671 652
f 652 671 194
f 671 672 675
f 677 675 674
f 677 673 675
f 655 673 676
f 673 677 676
f 676 677 216
f 674 216 677
f 676 216 658
f 216 674 678
f 679 661 215
f 679 215 678
f 678 680 679
f 197 661 679
f 679 217 197
f 218 217 680
f 680 217 679
f 682 681 217
f 665 197 217
f 217 681 665
f 664 665 681
f 218 220 682
f 664 681 219
f 219 681 682
f 200 664 219
f 219 682 220
f 683 684 220
f 683 220 221
f 688 685 687
f 686 688 687
f 686 425 424
f 691 685 689
f 689 685 688
f 598 433 690
f 432 421 431
f 708 436 687
f 437 436 708
f 690 435 598
f 690 434 435
f 438 708 685
f 687 685 708
f 438 685 691
f 599 700 692
f 692 700 693
f 599 694 700
f 710 696 695
f 695 694 710
f 697 698 701
f 697 701 476
f 702 478 699
f 707 704 703
f 703 478 707
f 705 597 478
f 702 705 478
f 597 705 706
f 597 596 707
f 709 708 438
f 697 709 702
f 438 705 709
f 702 709 705
f 598 476 696
f 598 437 476
f 709 697 476
f 437 708 709
f 713 710 694
f 710 713 433
f 710 598 696
f 469 711 599
f 711 712 599
f 712 713 599
f 599 713 694
f 715 177 714
f 717 178 179
f 179 663 717
f 154 178 717
f 176 193 718
f 173 176 718
f 177 718 656
f 177 148 173
f 718 177 173
f 706 719 740
f 432 712 711
f 611 421 432
f 720 421 611
f 721 421 613
f 431 421 721
f 422 423 721
f 721 423 434
f 688 686 407
f 722 408 407
f 407 686 722
f 722 686 424
f 722 424 405
f 405 381 379
f 405 379 722
f 379 408 722
f 191 723 190
f 212 726 724
f 723 212 190
f 190 212 724
f 726 645 727
f 726 727 725
f 726 725 724
f 727 728 725
f 191 735 807
f 732 191 190
f 732 190 724
f 729 732 724
f 729 724 725
f 147 734 730
f 730 728 147
f 730 729 725
f 730 725 728
f 731 807 735
f 732 735 191
f 732 729 733
f 730 734 733
f 733 729 730
f 732 167 735
f 167 732 733
f 552 167 736
f 734 736 733
f 733 736 167
f 736 734 737
f 737 734 147
f 736 737 739
f 552 736 738
f 736 739 738
f 741 689 410
f 596 706 740
f 740 719 426
f 706 705 691
f 719 706 691
f 691 689 719
f 689 741 719
f 411 410 408
f 689 407 410
f 410 407 408
f 394 447 742
f 716 150 177
f 716 177 715
f 447 556 742
f 446 556 447
f 420 418 610
f 610 418 608
f 5 2 1
f 9 744 10
f 745 1 10
f 10 744 745
f 745 744 6
f 6 8 745
f 6 744 9
f 747 748 746
f 9 14 746
f 14 12 750
f 749 751 750
f 747 746 750
f 750 751 747
f 750 746 14
f 834 12 19
f 749 750 834
f 834 750 12
f 24 835 752
f 752 19 24
f 752 834 19
f 754 835 753
f 753 755 754
f 753 835 24
f 753 29 755
f 756 757 759
f 759 32 756
f 759 757 758
f 29 32 759
f 758 760 759
f 754 755 759
f 759 760 754
f 759 755 29
f 761 35 34
f 761 762 35
f 756 32 35
f 35 762 756
f 854 37 770
f 854 34 37
f 458 763 39
f 764 765 39
f 39 763 764
f 764 766 767
f 767 765 764
f 767 766 840
f 458 40 560
f 770 768 769
f 771 772 770
f 770 772 854
f 769 773 770
f 770 773 771
f 767 548 765
f 840 774 767
f 775 781 767
f 767 774 775
f 767 781 548
f 776 777 841
f 778 779 881
f 881 779 780
f 548 781 881
f 881 782 778
f 880 548 881
f 784 785 783
f 783 785 786
f 786 878 783
f 879 787 789
f 789 787 788
f 790 791 122
f 122 791 792
f 792 793 874
f 874 122 792
f 874 793 794
f 514 122 874
f 125 795 126
f 126 795 796
f 797 798 142
f 142 798 799
f 126 796 885
f 796 800 885
f 885 800 801
f 887 802 886
f 886 802 803
f 804 805 188
f 188 805 806
f 487 188 806
f 832 813 807
f 807 813 723
f 808 809 564
f 810 188 564
f 564 809 810
f 811 812 813
f 813 812 865
f 865 899 813
f 899 210 813
f 213 900 814
f 900 213 643
f 815 816 900
f 900 816 814
f 817 818 903
f 903 818 905
f 912 913 675
f 909 819 820
f 911 822 821
f 221 821 223
f 223 821 822
f 822 823 223
f 824 442 223
f 223 823 824
f 824 825 442
f 442 826 562
f 562 826 827
f 827 828 562
f 562 828 829
f 829 830 562
f 562 830 831
f 827 826 440
f 440 826 442
f 824 481 442
f 442 825 824
f 442 481 480
f 854 761 34
f 832 850 446
f 40 833 8
f 8 833 745
f 6 9 746
f 746 748 747
f 834 752 448
f 752 835 449
f 471 835 836
f 836 835 754
f 758 757 837
f 756 853 837
f 837 757 756
f 853 454 837
f 455 853 761
f 764 763 459
f 459 763 458
f 839 773 838
f 838 773 769
f 459 855 840
f 841 777 776
f 843 844 842
f 780 881 842
f 842 844 780
f 842 881 551
f 879 845 842
f 842 845 843
f 527 786 858
f 786 785 858
f 858 785 784
f 786 527 528
f 847 846 544
f 544 846 788
f 792 791 512
f 512 858 792
f 512 791 790
f 799 798 873
f 873 798 797
f 464 465 873
f 887 848 466
f 466 848 801
f 498 468 849
f 803 802 850
f 850 802 887
f 806 805 570
f 570 805 804
f 813 446 474
f 813 832 446
f 810 809 851
f 851 570 810
f 851 809 808
f 814 816 475
f 475 816 815
f 824 823 481
f 481 823 822
f 829 828 440
f 440 828 827
f 8 560 40
f 6 746 852
f 747 751 852
f 852 746 747
f 852 751 749
f 834 448 852
f 834 852 749
f 752 449 448
f 471 449 835
f 452 471 836
f 452 836 837
f 837 454 452
f 754 760 837
f 837 836 754
f 837 760 758
f 756 762 853
f 853 762 761
f 854 455 761
f 775 774 855
f 855 774 840
f 841 528 537
f 776 856 841
f 784 857 858
f 858 857 794
f 794 793 858
f 858 793 792
f 555 796 795
f 795 463 555
f 797 859 873
f 873 859 860
f 801 800 466
f 466 800 796
f 570 473 806
f 808 482 851
f 815 861 475
f 475 861 602
f 474 865 813
f 865 812 813
f 813 812 811
f 692 814 475
f 814 692 693
f 695 913 912
f 912 862 863
f 700 695 912
f 864 699 703
f 864 914 699
f 479 822 911
f 479 481 822
f 831 830 440
f 440 830 829
f 474 899 865
f 806 866 487
f 487 866 867
f 867 868 487
f 487 868 498
f 487 498 165
f 849 489 165
f 498 849 165
f 867 866 473
f 473 866 806
f 498 868 473
f 473 868 867
f 849 869 489
f 489 869 860
f 860 859 489
f 797 142 489
f 489 859 797
f 870 871 122
f 122 871 790
f 799 872 142
f 870 122 142
f 142 872 870
f 464 873 849
f 849 468 464
f 860 869 873
f 873 869 849
f 799 465 512
f 870 872 799
f 799 512 870
f 790 871 512
f 512 871 870
f 799 873 465
f 514 874 783
f 794 857 783
f 783 874 794
f 783 857 784
f 786 875 878
f 878 875 876
f 531 783 878
f 512 527 858
f 876 875 786
f 876 877 878
f 878 877 841
f 768 531 878
f 768 878 841
f 841 856 776
f 769 768 841
f 528 841 786
f 841 877 786
f 786 877 876
f 537 769 841
f 538 847 795
f 795 125 538
f 847 538 789
f 788 846 847
f 847 789 788
f 101 547 879
f 879 789 101
f 788 787 544
f 544 787 879
f 463 795 847
f 547 880 879
f 843 845 880
f 880 845 879
f 780 844 881
f 843 880 881
f 881 844 843
f 775 882 781
f 781 882 883
f 883 884 781
f 781 884 881
f 883 882 855
f 855 882 775
f 780 779 881
f 881 779 778
f 778 782 881
f 855 551 881
f 881 884 855
f 855 884 883
f 731 885 886
f 886 885 887
f 801 848 885
f 885 848 887
f 731 126 885
f 555 466 796
f 850 466 556
f 466 850 887
f 840 766 459
f 459 766 764
f 831 888 565
f 565 562 831
f 565 888 889
f 889 890 565
f 565 890 891
f 891 892 565
f 565 892 808
f 808 564 565
f 893 894 188
f 188 894 804
f 810 895 188
f 188 895 893
f 889 888 482
f 831 440 482
f 482 888 831
f 808 892 482
f 482 892 891
f 804 894 570
f 570 894 893
f 893 895 570
f 570 895 810
f 891 890 482
f 482 890 889
f 896 897 483
f 483 897 899
f 896 483 602
f 602 898 896
f 769 537 838
f 854 772 456
f 839 838 456
f 456 772 839
f 456 838 637
f 899 897 642
f 896 602 642
f 642 897 896
f 896 898 602
f 900 643 602
f 602 861 900
f 900 861 815
f 213 814 901
f 669 213 901
f 814 902 901
f 817 903 901
f 901 902 817
f 901 903 669
f 905 904 903
f 904 669 903
f 905 912 904
f 904 912 672
f 905 906 912
f 912 906 863
f 863 862 912
f 675 672 912
f 674 675 913
f 913 907 674
f 678 674 907
f 907 908 678
f 680 678 908
f 908 909 680
f 218 680 909
f 820 910 909
f 909 910 914
f 909 914 218
f 914 220 218
f 914 864 220
f 911 821 864
f 221 220 864
f 864 821 221
f 817 902 693
f 693 902 814
f 700 912 693
f 693 912 905
f 863 906 912
f 912 906 905
f 695 477 913
f 913 477 907
f 908 477 698
f 698 909 908
f 699 914 909
f 905 818 693
f 693 818 817
f 908 907 477
f 701 698 477
f 914 910 909
f 909 910 820
f 909 698 699
f 820 819 909
f 911 864 479
f 479 864 703
f 811 915 813
f 813 210 723
f 813 915 811
f 731 886 807
f 807 886 832
f 803 916 886
f 886 916 832
f 832 916 850
f 850 916 803
f 850 556 446
f 745 833 1
f 1 833 40
