# USD → MuJoCo (world-space, simplified)
v 1.656353 1.667834 0.423531
v 1.667449 1.669448 0.422390
v 1.657891 1.663768 0.428659
v 1.672852 1.655685 0.432065
v 1.668067 1.662581 0.425330
v 1.665997 1.674292 0.422270
v 1.665975 1.678330 0.422349
v 1.654451 1.673944 0.424073
v 1.691243 1.669235 0.424885
v 1.684436 1.682097 0.423641
v 1.664919 1.672239 0.421954
v 1.721026 1.700724 0.425434
v 1.749357 1.722033 0.428327
v 1.714033 1.688435 0.425091
v 1.768209 1.715975 0.427663
v 1.769223 1.709223 0.429040
v 1.771615 1.733498 0.428255
v 1.760571 1.721159 0.427252
v 1.731995 1.691707 0.427169
v 1.798172 1.740130 0.426408
v 1.815236 1.755763 0.427155
v 1.832018 1.741226 0.427234
v 1.830116 1.747294 0.425898
v 1.859058 1.782497 0.424578
v 1.827618 1.757046 0.425664
v 1.904509 1.792325 0.417958
v 1.895157 1.798050 0.418142
v 1.892094 1.781099 0.420392
v 1.868421 1.783336 0.423046
v 1.871395 1.774033 0.422564
v 1.908532 1.803470 0.417612
v 1.923275 1.815282 0.423144
v 1.664713 1.664270 0.450344
v 1.676252 1.654919 0.436658
v 1.668788 1.659455 0.441576
v 1.663871 1.663551 0.443896
v 1.704891 1.669187 0.428099
v 1.681533 1.658988 0.428201
v 1.764922 1.684898 0.444436
v 1.776890 1.705648 0.432356
v 1.746457 1.692538 0.430800
v 1.763183 1.692761 0.436901
v 1.833555 1.711340 0.453493
v 1.835286 1.729192 0.434902
v 1.829372 1.720105 0.440691
v 1.832190 1.734073 0.430509
v 1.890452 1.753082 0.438916
v 1.866278 1.745640 0.431921
v 1.859632 1.753309 0.425699
v 1.903533 1.779074 0.423254
v 1.883386 1.754279 0.432792
v 1.919958 1.803988 0.422058
v 1.924868 1.790635 0.435865
v 1.914430 1.788992 0.423357
v 1.925124 1.810030 0.436361
v 1.682412 1.652345 0.453788
v 1.687146 1.648634 0.474838
v 1.669473 1.661402 0.460403
v 1.677973 1.655675 0.476183
v 1.704641 1.648372 0.460560
v 1.696937 1.658386 0.434915
v 1.689742 1.652779 0.445066
v 1.696463 1.644268 0.475372
v 1.767160 1.675520 0.456073
v 1.713166 1.663814 0.436429
v 1.724180 1.651788 0.462550
v 1.770709 1.671613 0.463410
v 1.775497 1.660602 0.485465
v 1.799674 1.673709 0.483107
v 1.815275 1.692666 0.466052
v 1.853017 1.709290 0.473621
v 1.874862 1.734373 0.452014
v 1.869051 1.738306 0.441510
v 1.895281 1.741547 0.464488
v 1.904370 1.757973 0.449881
v 1.915537 1.753070 0.473710
v 1.905374 1.767055 0.434656
v 1.923813 1.776291 0.449686
v 1.916639 1.779510 0.432524
v 1.928575 1.784257 0.452259
v 1.928278 1.801219 0.456860
v 1.679707 1.653229 0.494748
v 1.689053 1.645660 0.490959
v 1.676984 1.656243 0.497390
v 1.700969 1.636919 0.501545
v 1.690095 1.641755 0.502185
v 1.725030 1.631148 0.512557
v 1.701798 1.639163 0.493434
v 1.716190 1.638524 0.487909
v 1.731517 1.640696 0.489439
v 1.743119 1.655258 0.469061
v 1.795259 1.660855 0.505318
v 1.760904 1.644777 0.505413
v 1.852170 1.690307 0.510839
v 1.864151 1.706789 0.491229
v 1.824472 1.684755 0.487633
v 1.828283 1.676978 0.508875
v 1.890144 1.721790 0.495117
v 1.899980 1.719156 0.516236
v 1.926553 1.751363 0.500163
v 1.914997 1.738339 0.500198
v 1.931611 1.759919 0.503884
v 1.933857 1.763788 0.512045
v 1.933115 1.770577 0.487632
v 1.929425 1.769220 0.471660
v 1.933135 1.776552 0.477095
v 1.927472 1.796854 0.498345
v 1.690858 1.637877 0.537533
v 1.682650 1.646786 0.528718
v 1.704306 1.623822 0.555877
v 1.702814 1.626024 0.542934
v 1.710302 1.622393 0.548158
v 1.719342 1.622405 0.544231
v 1.703170 1.629086 0.535894
v 1.695242 1.633490 0.525524
v 1.711103 1.627287 0.531458
v 1.701808 1.634504 0.516149
v 1.744051 1.632385 0.520335
v 1.748323 1.623024 0.556631
v 1.735024 1.628016 0.527509
v 1.825408 1.664376 0.538484
v 1.798308 1.655099 0.523985
v 1.764050 1.638642 0.524406
v 1.789411 1.638515 0.560047
v 1.855798 1.683506 0.534508
v 1.914932 1.715436 0.559982
v 1.893616 1.704515 0.544064
v 1.921286 1.732073 0.527339
v 1.934588 1.770102 0.519045
v 1.937362 1.749110 0.542753
v 1.935310 1.742772 0.544231
v 1.933167 1.781802 0.557291
v 1.938581 1.767171 0.563292
v 1.704904 1.617518 0.592596
v 1.710742 1.614129 0.588601
v 1.693150 1.634205 0.564341
v 1.698258 1.623672 0.599104
v 1.698605 1.628142 0.560913
v 1.689269 1.640164 0.567055
v 1.724971 1.612744 0.579476
v 1.717867 1.612142 0.586035
v 1.762026 1.625850 0.560955
v 1.781274 1.626930 0.587360
v 1.832890 1.653116 0.588962
v 1.863021 1.676028 0.571307
v 1.915242 1.703600 0.595006
v 1.932070 1.728549 0.575969
v 1.934562 1.733231 0.566998
v 1.928080 1.732049 0.545415
v 1.937093 1.741446 0.558479
v 1.940621 1.744469 0.571675
v 1.941202 1.757365 0.576031
v 1.934534 1.777420 0.577151
v 1.715708 1.605478 0.620762
v 1.707402 1.613155 0.614470
v 1.712950 1.610459 0.608448
v 1.734157 1.614152 0.574395
v 1.723784 1.607675 0.606189
v 1.760479 1.611212 0.616935
v 1.767317 1.603294 0.670995
v 1.750665 1.615185 0.583959
v 1.741579 1.608391 0.604737
v 1.799343 1.627247 0.625558
v 1.854272 1.657701 0.618500
v 1.893894 1.677475 0.641749
v 1.920597 1.695473 0.642085
v 1.891674 1.687901 0.592275
v 1.933912 1.711742 0.623682
v 1.937208 1.720243 0.609884
v 1.944308 1.730671 0.618710
v 1.927785 1.715040 0.592622
v 1.938976 1.726482 0.596860
v 1.947862 1.742212 0.630966
v 1.943389 1.762795 0.649112
v 1.719146 1.601370 0.642378
v 1.729013 1.598549 0.646577
v 1.766906 1.599841 0.688589
v 1.773986 1.604647 0.681254
v 1.782371 1.608381 0.705417
v 1.808885 1.627274 0.659393
v 1.788023 1.614332 0.669272
v 1.867340 1.656706 0.677181
v 1.918035 1.688722 0.666109
v 1.886328 1.667643 0.682197
v 1.900869 1.676535 0.691953
v 1.903197 1.677953 0.670332
v 1.913093 1.680633 0.691197
v 1.944889 1.717484 0.650160
v 1.935082 1.702927 0.670476
v 1.954458 1.728547 0.684834
v 1.952940 1.722417 0.692082
v 1.952440 1.747613 0.675041
v 1.716332 1.595929 0.701139
v 1.768841 1.612849 0.736871
v 1.771385 1.609250 0.722464
v 1.808279 1.627269 0.710498
v 1.807461 1.628861 0.722063
v 1.840390 1.644805 0.702202
v 1.838462 1.650354 0.726564
v 1.876750 1.664264 0.699777
v 1.862177 1.661166 0.727944
v 1.875524 1.667474 0.718667
v 1.872904 1.671768 0.734187
v 1.916000 1.682721 0.704451
v 1.945943 1.712523 0.694401
v 1.920341 1.690217 0.723121
v 1.951549 1.719474 0.729802
v 1.955994 1.725545 0.709859
v 1.949394 1.720575 0.743980
v 1.960335 1.730879 0.739656
v 1.957438 1.733898 0.716551
v 1.956868 1.730182 0.696800
v 1.956388 1.746909 0.732789
v 1.956881 1.742871 0.711216
v 1.706883 1.594717 0.757935
v 1.710922 1.593124 0.757755
v 1.718227 1.592441 0.750027
v 1.742974 1.606566 0.751670
v 1.762677 1.623322 0.762593
v 1.832656 1.658191 0.747505
v 1.848262 1.665676 0.743419
v 1.865036 1.682634 0.755035
v 1.898033 1.697401 0.755427
v 1.899981 1.703832 0.761339
v 1.920291 1.715600 0.766601
v 1.920146 1.700500 0.746737
v 1.917101 1.707976 0.759684
v 1.946582 1.732570 0.773360
v 1.953134 1.731328 0.764057
v 1.942991 1.722664 0.759744
v 1.958989 1.740194 0.777393
v 1.961646 1.735998 0.757626
v 1.962455 1.742853 0.772393
v 1.661717 1.693593 0.432393
v 1.666841 1.690434 0.428256
v 1.683604 1.697445 0.427766
v 1.695343 1.728617 0.442344
v 1.715789 1.737931 0.439828
v 1.720841 1.725052 0.431896
v 1.742599 1.741574 0.435210
v 1.716500 1.747188 0.446316
v 1.748754 1.729130 0.429717
v 1.777941 1.778443 0.448427
v 1.792736 1.764658 0.433716
v 1.817436 1.798507 0.447019
v 1.821099 1.792443 0.439892
v 1.780431 1.771509 0.441702
v 1.845655 1.815189 0.451076
v 1.834076 1.787576 0.432039
v 1.857247 1.791672 0.427577
v 1.869403 1.803946 0.429593
v 1.896762 1.818606 0.425685
v 1.889896 1.812525 0.424386
v 1.848973 1.805794 0.439977
v 1.872163 1.823730 0.445305
v 1.857361 1.818891 0.447038
v 1.900558 1.827878 0.434372
v 1.656543 1.687977 0.450508
v 1.654742 1.671700 0.432689
v 1.658236 1.700625 0.457420
v 1.693249 1.737340 0.452199
v 1.700474 1.750921 0.462981
v 1.696981 1.756663 0.479882
v 1.684392 1.745722 0.476649
v 1.677160 1.737673 0.472479
v 1.718225 1.761678 0.463522
v 1.712379 1.764681 0.475653
v 1.711947 1.751217 0.453309
v 1.763869 1.778942 0.456936
v 1.745012 1.784347 0.483590
v 1.790855 1.807696 0.482953
v 1.773208 1.790751 0.467598
v 1.825427 1.821561 0.479688
v 1.815965 1.810974 0.465972
v 1.812764 1.803019 0.455551
v 1.659978 1.679827 0.458834
v 1.664917 1.722706 0.492225
v 1.659708 1.705922 0.481109
v 1.685130 1.748548 0.497166
v 1.700514 1.762197 0.500105
v 1.709576 1.767887 0.493315
v 1.730046 1.780930 0.499459
v 1.774704 1.809182 0.517932
v 1.798234 1.818116 0.505539
v 1.775741 1.806310 0.500542
v 1.826479 1.829828 0.522435
v 1.891082 1.840020 0.480522
v 1.922628 1.813112 0.466515
v 1.909299 1.830458 0.478772
v 1.668207 1.676926 0.507367
v 1.667060 1.672752 0.494402
v 1.662030 1.693538 0.501619
v 1.675159 1.719891 0.550035
v 1.668017 1.684280 0.536309
v 1.669055 1.701019 0.543077
v 1.665845 1.687217 0.525253
v 1.695849 1.756779 0.525774
v 1.681856 1.739473 0.536760
v 1.671607 1.721962 0.535285
v 1.675959 1.732946 0.524714
v 1.721868 1.774208 0.565384
v 1.722550 1.777368 0.545019
v 1.702120 1.763153 0.521743
v 1.709678 1.765636 0.557511
v 1.753834 1.794838 0.580171
v 1.761125 1.802281 0.558238
v 1.720895 1.777262 0.518881
v 1.758814 1.801520 0.530933
v 1.784817 1.814979 0.553302
v 1.796284 1.820068 0.528883
v 1.803560 1.822329 0.553034
v 1.823239 1.828067 0.547719
v 1.810780 1.823054 0.574949
v 1.893378 1.832086 0.528082
v 1.877388 1.838059 0.520919
v 1.922831 1.806023 0.504303
v 1.672451 1.664717 0.536352
v 1.667592 1.688177 0.550475
v 1.668837 1.675587 0.544534
v 1.690660 1.716061 0.612198
v 1.681608 1.713674 0.580107
v 1.681405 1.697832 0.593475
v 1.675259 1.698111 0.570506
v 1.700040 1.745799 0.587969
v 1.694651 1.736125 0.589767
v 1.688360 1.734966 0.575666
v 1.682324 1.725505 0.572650
v 1.728184 1.767660 0.610353
v 1.720224 1.764692 0.597852
v 1.700603 1.754909 0.564593
v 1.711304 1.754163 0.601397
v 1.759676 1.792831 0.605909
v 1.738722 1.780614 0.594941
v 1.758096 1.785201 0.628666
v 1.813418 1.809644 0.639778
v 1.779688 1.804427 0.605669
v 1.781624 1.810786 0.580004
v 1.797827 1.814067 0.599268
v 1.836645 1.828669 0.581247
v 1.859816 1.830306 0.585288
v 1.878560 1.829422 0.581316
v 1.908283 1.815790 0.575397
v 1.895170 1.823773 0.581778
v 1.918283 1.806048 0.566782
v 1.924696 1.798921 0.537386
v 1.692719 1.632850 0.633947
v 1.682056 1.655200 0.578605
v 1.684419 1.685769 0.618429
v 1.680073 1.681810 0.593055
v 1.713028 1.737224 0.641328
v 1.698192 1.728356 0.616813
v 1.695928 1.717830 0.626411
v 1.689395 1.705716 0.621759
v 1.725688 1.746271 0.655600
v 1.778849 1.786844 0.660386
v 1.745916 1.771912 0.639475
v 1.785981 1.796114 0.646362
v 1.799207 1.804448 0.639459
v 1.820855 1.820460 0.606198
v 1.840080 1.820855 0.621596
v 1.851642 1.820593 0.627722
v 1.849946 1.813412 0.650498
v 1.809097 1.800003 0.663326
v 1.872295 1.823484 0.611856
v 1.853738 1.826386 0.602374
v 1.885926 1.821195 0.609169
v 1.861371 1.821200 0.626397
v 1.900075 1.816446 0.614457
v 1.915225 1.805609 0.605244
v 1.688922 1.650273 0.635147
v 1.686652 1.649279 0.619518
v 1.695995 1.692057 0.657581
v 1.693930 1.655966 0.680666
v 1.689154 1.663523 0.653122
v 1.724502 1.730605 0.678412
v 1.712056 1.701064 0.690750
v 1.753199 1.744946 0.702756
v 1.744138 1.757960 0.666445
v 1.761818 1.770911 0.669523
v 1.805751 1.784320 0.693197
v 1.783306 1.776595 0.685446
v 1.858858 1.801334 0.690199
v 1.839237 1.791351 0.704530
v 1.826598 1.801427 0.673769
v 1.876958 1.801853 0.697222
v 1.819282 1.794377 0.684510
v 1.832389 1.807061 0.661776
v 1.875994 1.806871 0.676824
v 1.889923 1.807974 0.663772
v 1.886000 1.812862 0.649938
v 1.935122 1.776867 0.656178
v 1.918930 1.792839 0.665364
v 1.921011 1.791107 0.648630
v 1.932465 1.779265 0.641061
v 1.704278 1.669937 0.708889
v 1.737169 1.706040 0.726215
v 1.728526 1.714177 0.705733
v 1.719278 1.691466 0.716026
v 1.751138 1.733811 0.715109
v 1.777637 1.745150 0.728767
v 1.777769 1.753117 0.718378
v 1.764187 1.740815 0.721824
v 1.769473 1.752288 0.711740
v 1.821008 1.762961 0.735973
v 1.830418 1.760355 0.744181
v 1.873597 1.796519 0.711556
v 1.862207 1.786289 0.728466
v 1.861387 1.778851 0.739688
v 1.892663 1.797126 0.711065
v 1.911179 1.793717 0.710978
v 1.900609 1.800420 0.687230
v 1.933158 1.780017 0.716771
v 1.700732 1.627255 0.730100
v 1.701332 1.608641 0.736627
v 1.794673 1.717304 0.757350
v 1.774671 1.725139 0.743273
v 1.786168 1.739559 0.739783
v 1.807571 1.731072 0.753093
v 1.842409 1.739609 0.760500
v 1.825959 1.746797 0.751476
v 1.884773 1.760176 0.766430
v 1.863608 1.763271 0.757847
v 1.879370 1.774590 0.753182
v 1.945667 1.764197 0.731414
v 1.939247 1.771415 0.727738
v 1.709983 1.619504 0.767882
v 1.705223 1.602165 0.775998
v 1.719726 1.636054 0.768715
v 1.754525 1.653562 0.774588
v 1.736671 1.635702 0.774591
v 1.766447 1.689216 0.766842
v 1.765192 1.675313 0.771518
v 1.776844 1.673811 0.770955
v 1.800568 1.701500 0.767419
v 1.853921 1.714347 0.768117
v 1.849410 1.730150 0.764990
v 1.833305 1.717033 0.765761
v 1.872467 1.726913 0.770563
v 1.869331 1.746449 0.768475
v 1.962032 1.744287 0.774808
v 1.944438 1.763669 0.766615
v 1.954828 1.741084 0.779356
v 1.907951 1.817864 0.420576
v 1.920267 1.825873 0.425290
v 1.704685 1.609157 0.697933
v 1.714687 1.705406 0.426854
v 1.756249 1.728560 0.429184
v 1.788339 1.745850 0.428668
v 1.820367 1.767968 0.428543
v 1.780388 1.745348 0.429552
v 1.869581 1.792122 0.424047
v 1.896648 1.805913 0.418886
v 1.923175 1.823452 0.437053
v 1.918623 1.823032 0.421401
v 1.660413 1.667906 0.445267
v 1.665952 1.664671 0.455769
v 1.683793 1.647438 0.549196
v 1.931305 1.785274 0.556713
v 1.928424 1.790894 0.569251
v 1.932444 1.781594 0.579160
v 1.941608 1.766794 0.650800
v 1.939463 1.769007 0.638127
v 1.697082 1.624565 0.669400
v 1.699966 1.619784 0.663162
v 1.953118 1.753598 0.715536
v 1.941259 1.766594 0.675626
v 1.706355 1.600335 0.729738
v 1.954710 1.751239 0.731040
v 1.693822 1.695305 0.425826
v 1.824212 1.765285 0.427582
v 1.669299 1.666001 0.478696
v 1.692923 1.632691 0.599951
v 1.934044 1.778655 0.592161
v 1.713860 1.596404 0.778983
v 1.725750 1.605071 0.774030
v 1.703368 1.599459 0.756008
v 1.733026 1.615979 0.775154
v 1.882185 1.697317 0.760731
v 1.941952 1.732888 0.775959
v 1.937376 1.737517 0.779210
v 1.955193 1.739317 0.777263
v 1.704270 1.592356 0.775569
v 1.955726 1.736865 0.687855
v 1.953023 1.739106 0.653789
v 1.952893 1.733476 0.650485
v 1.946570 1.725434 0.631633
v 1.949893 1.726359 0.645501
v 1.945212 1.759089 0.670755
v 1.947202 1.752086 0.642392
v 1.938011 1.769428 0.621910
v 1.938302 1.768269 0.601233
v 1.922621 1.788653 0.704684
v 1.910509 1.796533 0.681709
v 1.901206 1.805737 0.651289
v 1.898326 1.812343 0.638104
v 1.928258 1.782499 0.677948
v 1.921404 1.795347 0.629590
v 1.937377 1.770645 0.623452
v 1.944751 1.760432 0.675574
v 1.943682 1.741881 0.596458
v 1.943122 1.733736 0.600111
v 1.944566 1.752721 0.607499
v 1.941456 1.754246 0.589814
v 1.938999 1.739857 0.580765
v 1.939854 1.755885 0.551431
v 1.909679 1.806671 0.634096
v 1.908537 1.807449 0.621195
v 1.894909 1.814934 0.627751
v 1.911568 1.807762 0.595863
v 1.895800 1.818027 0.602988
v 1.930064 1.786410 0.584715
v 1.919921 1.796745 0.615556
v 1.931730 1.781731 0.613084
v 1.932709 1.780387 0.525124
v 1.933643 1.780248 0.491339
v 1.927842 1.791821 0.520355
v 1.930809 1.792621 0.478330
v 1.901020 1.823909 0.552876
v 1.886428 1.830146 0.557699
v 1.889932 1.828059 0.542637
v 1.906836 1.817998 0.534073
v 1.879913 1.836097 0.531218
v 1.888519 1.836603 0.512502
v 1.910242 1.822742 0.511350
v 1.911824 1.815267 0.547684
v 1.921982 1.801995 0.525621
v 1.926246 1.795063 0.521038
v 1.925078 1.804739 0.484138
v 1.924890 1.773789 0.458995
v 1.930783 1.785404 0.463800
v 1.925766 1.803148 0.481025
v 1.923673 1.812299 0.446330
v 1.928508 1.795904 0.447044
v 1.897369 1.833071 0.510572
v 1.886622 1.835440 0.496356
v 1.897704 1.832377 0.494681
v 1.901940 1.835675 0.480536
v 1.893723 1.833191 0.446028
v 1.921160 1.811087 0.486622
v 1.908499 1.824640 0.492833
v 1.908413 1.831931 0.461165
v 1.919101 1.819811 0.454900
v 1.689071 1.638666 0.549618
v 1.695544 1.630984 0.545907
v 1.691125 1.641152 0.515757
v 1.680609 1.650932 0.519621
v 1.679803 1.671146 0.588615
v 1.678458 1.656582 0.559603
v 1.673427 1.680728 0.567592
v 1.676640 1.661340 0.549640
v 1.672831 1.681063 0.559829
v 1.679108 1.652265 0.535366
v 1.686943 1.643465 0.570433
v 1.678700 1.654096 0.519783
v 1.677841 1.654226 0.511057
v 1.681929 1.648871 0.506103
v 1.673828 1.659783 0.514127
v 1.668351 1.673740 0.518553
v 1.662505 1.687284 0.485709
v 1.673024 1.662368 0.501510
v 1.702538 1.615959 0.632368
v 1.708413 1.610082 0.626141
v 1.694609 1.629184 0.604000
v 1.690457 1.642516 0.653572
v 1.693331 1.630695 0.614962
v 1.657198 1.686038 0.430068
v 1.657791 1.663640 0.433803
v 1.667018 1.668669 0.473407
v 1.961892 1.741816 0.746877
v 1.960506 1.746026 0.752646
v 1.961335 1.735938 0.735308
v 1.957451 1.752588 0.760633
v 1.945134 1.764438 0.751200
v 1.934617 1.773987 0.739277
v 1.943163 1.769220 0.714277
v 1.959934 1.747404 0.752363
v 1.927573 1.775478 0.746495
v 1.911774 1.779821 0.748371
v 1.911713 1.789552 0.723432
v 1.863974 1.831262 0.546464
v 1.854825 1.835962 0.524353
v 1.832389 1.829323 0.501505
v 1.868251 1.835846 0.505475
v 1.848757 1.828151 0.480134
v 1.879435 1.837488 0.507525
v 1.866031 1.833923 0.485763
v 1.880563 1.836405 0.492507
v 1.861293 1.831712 0.465317
v 1.874480 1.839061 0.471203
v 1.843086 1.824430 0.471018
v 1.849374 1.822680 0.459897
v 1.882325 1.841168 0.475271
v 1.868907 1.830642 0.456075
v 1.883047 1.838875 0.462000
v 1.878642 1.829893 0.448508
v 1.921735 1.786837 0.718588
v 1.933263 1.766494 0.768510
v 1.926804 1.772146 0.762275
v 1.902158 1.768603 0.765213
v 1.901733 1.776938 0.754504
v 1.879933 1.784959 0.738358
v 1.894165 1.791151 0.725292
v 1.878067 1.820337 0.625535
v 1.870352 1.813398 0.653331
v 1.891601 1.802489 0.688941
v 1.864892 1.832630 0.565811
v 1.928527 1.746951 0.779247
v 1.951198 1.752016 0.776190
v 1.902774 1.734842 0.777237
v 1.908820 1.742203 0.776648
v 1.886399 1.707256 0.766580
v 1.877639 1.712596 0.768535
v 1.903612 1.725747 0.776304
v 1.857060 1.691033 0.763640
v 1.769139 1.650034 0.774622
v 1.739343 1.627077 0.775345
v 1.722663 1.609743 0.777973
v 1.716414 1.615494 0.775480
v 1.708898 1.595965 0.780784
v 1.756951 1.718061 0.735286
v 1.888844 1.752685 0.770311
v 1.914877 1.761960 0.772777
v 1.920231 1.729567 0.777766
v 1.907711 1.757481 0.773989
v 1.698244 1.638833 0.711622
v 1.708085 1.661369 0.724302
v 1.702829 1.597934 0.773867
v 1.704291 1.618818 0.754461
v 1.712230 1.648438 0.744817
v 1.731935 1.668142 0.756029
v 1.753893 1.691593 0.757486
v 1.724089 1.680477 0.733748
v 1.695641 1.653991 0.691289
v 1.700377 1.645135 0.716044
v 1.693366 1.646378 0.680546
v 1.710018 1.721612 0.659701
v 1.703282 1.703875 0.665162
v 1.702456 1.681891 0.688090
v 1.697653 1.664042 0.690447
v 1.683758 1.669971 0.619565
v 1.687469 1.674825 0.634908
v 1.690869 1.698384 0.632860
v 1.691687 1.681494 0.652676
v 1.675261 1.714180 0.565015
v 1.670176 1.701240 0.557307
v 1.666249 1.724680 0.510900
v 1.662175 1.711409 0.506315
v 1.666347 1.696933 0.516703
v 1.669049 1.715443 0.522696
v 1.666381 1.702957 0.531020
v 1.665560 1.720973 0.470552
v 1.661007 1.708789 0.460072
v 1.671300 1.710199 0.443310
v 1.662856 1.707339 0.451739
v 1.675574 1.738462 0.510253
v 1.922738 1.812976 0.447666
v 1.912997 1.830851 0.437399
v 1.908103 1.832914 0.443982
v 1.899854 1.836264 0.461736
v 1.708952 1.592078 0.777302
v 1.705848 1.591244 0.776258
v 1.726583 1.593629 0.747526
v 1.726408 1.596334 0.760381
v 1.717666 1.597259 0.776036
v 1.747253 1.599435 0.725723
v 1.752187 1.603393 0.731893
v 1.764510 1.600039 0.705266
v 1.772701 1.604964 0.699538
v 1.762694 1.603248 0.721423
v 1.781907 1.612811 0.723837
v 1.780716 1.617243 0.736866
v 1.789844 1.616373 0.719466
v 1.799572 1.617993 0.703131
v 1.790628 1.614066 0.692501
v 1.798434 1.621442 0.726536
v 1.817542 1.636281 0.737091
v 1.825802 1.634267 0.720382
v 1.824938 1.632042 0.705773
v 1.832560 1.636605 0.705287
v 1.850800 1.657476 0.725874
v 1.864315 1.656486 0.702333
v 1.853334 1.653445 0.709419
v 1.863795 1.658484 0.715929
v 1.887765 1.670112 0.714369
v 1.884083 1.675786 0.735878
v 1.897252 1.677343 0.714088
v 1.892755 1.682800 0.738422
v 1.907874 1.682156 0.720399
v 1.901911 1.685978 0.737782
v 1.920960 1.694680 0.734784
v 1.742801 1.613989 0.763940
v 1.751239 1.611036 0.751029
v 1.774190 1.630366 0.764852
v 1.788024 1.626896 0.749320
v 1.804767 1.632129 0.736915
v 1.797414 1.642949 0.760082
v 1.819301 1.654966 0.757870
v 1.825169 1.639195 0.733491
v 1.829405 1.665690 0.758040
v 1.844521 1.673011 0.756116
v 1.859414 1.668567 0.744463
v 1.852032 1.677759 0.757949
v 1.879962 1.692553 0.757871
v 1.878630 1.685057 0.751652
v 1.804914 1.748927 0.740225
v 1.789693 1.684968 0.770919
v 1.804895 1.690273 0.771049
v 1.814899 1.717766 0.761615
v 1.825470 1.701978 0.767262
v 1.742157 1.616231 0.767650
v 1.743379 1.623918 0.773623
v 1.766906 1.642422 0.774384
v 1.778311 1.636342 0.766864
v 1.797642 1.657758 0.768782
v 1.845321 1.686546 0.765834
v 1.852243 1.679795 0.759361
v 1.772106 1.637028 0.770434
v 1.766670 1.630247 0.767831
v 1.812371 1.670132 0.770424
v 1.816018 1.659021 0.762123
v 1.834150 1.671078 0.759697
v 1.827815 1.676991 0.766226
v 1.861361 1.686053 0.758901
v 1.909326 1.718549 0.772802
v 1.908624 1.711771 0.766786
v 1.846238 1.700424 0.767595
v 1.825003 1.684914 0.768642
v 1.784879 1.671485 0.770305
v 1.845023 1.645189 0.684908
v 1.855141 1.651833 0.678926
v 1.831377 1.637366 0.663413
v 1.870533 1.659841 0.658607
v 1.809606 1.626581 0.690052
v 1.830088 1.634294 0.687882
v 1.739874 1.652054 0.771712
v 1.747842 1.673622 0.766847
v 1.729084 1.647907 0.768930
v 1.786185 1.698606 0.767553
v 1.771863 1.697252 0.764093
v 1.810203 1.766741 0.723991
v 1.707947 1.598189 0.730966
v 1.723912 1.592004 0.706943
v 1.716031 1.594218 0.721583
v 1.732930 1.592571 0.711296
v 1.744256 1.595387 0.708801
v 1.737189 1.592602 0.691335
v 1.707825 1.604097 0.698463
v 1.702191 1.616178 0.663694
v 1.728205 1.593543 0.680220
v 1.742969 1.598781 0.656472
v 1.710502 1.605159 0.663357
v 1.720479 1.596081 0.677114
v 1.743209 1.603918 0.627286
v 1.727136 1.604445 0.617107
v 1.859772 1.755086 0.762120
v 1.840094 1.755521 0.752301
v 1.834663 1.777613 0.726341
v 1.697380 1.626656 0.699565
v 1.700810 1.615354 0.700478
v 1.702422 1.605172 0.755739
v 1.705140 1.592967 0.773216
v 1.660686 1.671384 0.424805
v 1.656867 1.669586 0.425416
v 1.654156 1.668364 0.423496
v 1.656867 1.669586 0.425416
v 1.695706 1.691482 0.427813
v 1.687702 1.686364 0.427128
v 1.717320 1.705152 0.428162
v 1.721664 1.707017 0.427080
v 1.704126 1.696776 0.428518
v 1.749647 1.722964 0.429893
v 1.844402 1.775623 0.427096
v 1.844710 1.775842 0.428539
v 1.894926 1.803071 0.418928
v 1.877980 1.793370 0.422346
v 1.895848 1.804042 0.421460
v 1.888295 1.799594 0.422826
v 1.902045 1.807872 0.421064
v 1.922852 1.821835 0.424681
v 1.921055 1.822325 0.421428
v 1.665300 1.666291 0.449559
v 1.666087 1.665911 0.452071
v 1.667046 1.665418 0.454380
v 1.668814 1.663867 0.460923
v 1.922780 1.807045 0.468999
v 1.922578 1.807722 0.466647
v 1.922377 1.808379 0.464270
v 1.922190 1.809007 0.461862
v 1.923391 1.808871 0.463039
v 1.675996 1.660374 0.492993
v 1.676627 1.659754 0.495988
v 1.672003 1.662338 0.477420
v 1.675356 1.660933 0.490127
v 1.925439 1.800302 0.491549
v 1.683727 1.648001 0.542463
v 1.681267 1.651171 0.532098
v 1.683788 1.650502 0.539744
v 1.684420 1.649923 0.542535
v 1.929999 1.783904 0.557011
v 1.929044 1.785843 0.549583
v 1.928028 1.787782 0.542108
v 1.929783 1.786827 0.546114
v 1.696846 1.628784 0.620508
v 1.697278 1.628047 0.624036
v 1.699188 1.622578 0.645749
v 1.697711 1.627302 0.627545
v 1.941354 1.764652 0.649403
v 1.950576 1.752622 0.707962
v 1.949493 1.753577 0.702725
v 1.953625 1.751313 0.713936
v 1.954629 1.748271 0.733146
v 1.952756 1.749712 0.724022
v 1.952569 1.750203 0.721280
v 1.707239 1.597553 0.754407
v 1.736809 1.612446 0.767607
v 1.724880 1.605737 0.772112
v 1.728526 1.608306 0.770485
v 1.786678 1.639947 0.763150
v 1.806803 1.653107 0.759623
v 1.860936 1.684698 0.756596
v 1.922690 1.720906 0.767402
v 1.928043 1.724439 0.768835
v 1.942476 1.733224 0.772569
v 1.900139 1.706284 0.761948
v 1.917673 1.717591 0.766050
v 1.924961 1.721074 0.768832
v 1.959908 1.743868 0.771684
v 1.959811 1.744245 0.770200
v 1.959632 1.744502 0.767962
v 1.706511 1.607068 0.702021
v 1.706740 1.609719 0.694658
v 1.656004 1.668455 0.426125
v 1.674851 1.678369 0.424555
v 1.802138 1.750283 0.428985
v 1.811405 1.755314 0.429032
v 1.849714 1.779804 0.426040
v 1.870772 1.790169 0.424890
v 1.685267 1.648336 0.547894
v 1.684888 1.649169 0.545267
v 1.686076 1.646762 0.552849
v 1.685630 1.647519 0.550373
v 1.695735 1.628520 0.619205
v 1.952569 1.750202 0.721280
v 1.712566 1.596701 0.776263
v 1.707918 1.592703 0.778218
v 1.960971 1.744683 0.768127
v 1.779573 1.740098 0.430285
v 1.909441 1.813102 0.419199
v 1.922966 1.806350 0.471331
v 1.923153 1.805633 0.473668
v 1.925882 1.794313 0.518344
v 1.926018 1.793237 0.520579
v 1.707573 1.599671 0.731889
v 1.708283 1.601663 0.725443
v 1.721339 1.603126 0.773464
v 1.790292 1.643414 0.761601
v 1.787699 1.641756 0.761960
v 1.785105 1.640140 0.762387
v 1.824859 1.664967 0.757513
v 1.823168 1.663811 0.757804
v 1.910991 1.712397 0.765517
v 1.935205 1.728070 0.771949
v 1.943845 1.758468 0.674889
v 1.936831 1.768603 0.627296
v 1.936278 1.769442 0.623517
v 1.937428 1.767799 0.631139
v 1.944916 1.758705 0.676498
v 1.932231 1.779625 0.575277
v 1.934929 1.774007 0.606027
v 1.924542 1.800323 0.490874
v 1.924452 1.801019 0.488304
v 1.924280 1.801759 0.485796
v 1.923944 1.802885 0.482232
v 1.923347 1.804889 0.476036
v 1.923153 1.805633 0.473668
v 1.923243 1.809058 0.464381
v 1.685034 1.645302 0.551516
v 1.686703 1.646108 0.555471
v 1.680516 1.654669 0.521711
v 1.680920 1.653993 0.524579
v 1.688596 1.642825 0.566262
v 1.679959 1.655146 0.518713
v 1.673221 1.663217 0.478587
v 1.673785 1.662659 0.481834
v 1.674267 1.662068 0.484680
v 1.676181 1.658237 0.498091
v 1.700522 1.622745 0.649803
v 1.693963 1.632191 0.600631
v 1.701314 1.619130 0.661115
v 1.663234 1.665773 0.443228
v 1.955245 1.748501 0.727470
v 1.951942 1.751205 0.715653
v 1.951375 1.751842 0.712191
v 1.952315 1.750680 0.718586
v 1.952774 1.752027 0.713863
v 1.707799 1.594142 0.776312
v 1.706691 1.593790 0.775795
v 1.709475 1.594932 0.776529
v 1.924212 1.819536 0.436929
v 1.748093 1.620193 0.763888
v 1.745826 1.617583 0.764843
v 1.772770 1.632190 0.765899
v 1.773138 1.633615 0.764829
v 1.782493 1.638619 0.762927
v 1.792904 1.645064 0.761267
v 1.814952 1.656842 0.760008
v 1.821492 1.662636 0.758104
v 1.874793 1.691914 0.757700
v 1.885048 1.698270 0.759199
v 1.751944 1.621306 0.765187
v 1.738600 1.613836 0.766842
v 1.788255 1.641363 0.763283
v 1.774841 1.633727 0.765961
v 1.813037 1.656149 0.760497
v 1.828182 1.666343 0.758380
v 1.843679 1.674929 0.756825
v 1.706328 1.608288 0.696063
f 11 1 2
f 5 1 3
f 5 3 4
f 6 7 8
f 764 6 8
f 9 14 2
f 10 2 14
f 10 11 2
f 9 2 5
f 12 13 769
f 14 12 10
f 10 12 769
f 14 9 19
f 13 18 17
f 13 12 18
f 15 14 19
f 15 19 16
f 12 14 15
f 15 18 12
f 16 23 15
f 15 23 20
f 17 20 21
f 18 20 17
f 15 20 18
f 20 25 21
f 16 22 23
f 25 20 23
f 25 24 21
f 30 29 25
f 25 29 24
f 49 30 23
f 23 22 49
f 30 25 23
f 26 27 28
f 775 29 27
f 27 774 775
f 29 775 24
f 29 30 27
f 49 28 30
f 30 28 27
f 848 31 780
f 780 31 52
f 774 27 31
f 31 848 774
f 31 27 26
f 31 26 52
f 32 899 779
f 33 58 36
f 34 4 35
f 567 36 35
f 35 4 567
f 4 3 567
f 61 37 38
f 9 38 37
f 38 9 5
f 38 5 4
f 34 62 38
f 38 4 34
f 38 62 61
f 42 37 65
f 41 37 42
f 19 9 37
f 37 41 19
f 37 61 65
f 16 41 40
f 40 41 42
f 16 19 41
f 42 65 39
f 45 64 43
f 45 44 42
f 42 44 40
f 45 39 64
f 42 39 45
f 73 48 45
f 45 48 44
f 43 73 45
f 16 40 46
f 46 22 16
f 46 40 44
f 51 73 47
f 51 48 73
f 22 46 49
f 49 46 44
f 49 44 48
f 50 79 54
f 77 79 50
f 26 28 50
f 50 54 26
f 50 28 49
f 50 49 48
f 47 77 51
f 77 50 51
f 51 50 48
f 53 52 54
f 52 53 32
f 52 26 54
f 79 53 54
f 32 53 55
f 53 533 55
f 899 32 55
f 55 532 899
f 56 57 63
f 35 59 56
f 59 57 56
f 34 35 56
f 35 36 58
f 792 59 58
f 58 59 35
f 90 66 60
f 60 89 90
f 66 61 60
f 60 61 62
f 34 56 62
f 62 56 63
f 62 63 60
f 39 65 64
f 91 67 64
f 64 65 91
f 65 61 66
f 65 66 91
f 68 69 67
f 67 91 68
f 96 71 70
f 70 69 96
f 70 43 64
f 70 64 67
f 70 67 69
f 72 43 71
f 73 43 72
f 71 43 70
f 47 73 72
f 72 74 47
f 47 74 75
f 75 74 76
f 529 75 76
f 76 105 529
f 75 77 47
f 529 78 75
f 79 77 78
f 77 75 78
f 79 78 80
f 532 55 81
f 531 532 81
f 59 82 83
f 83 57 59
f 84 82 59
f 117 85 86
f 86 85 88
f 88 83 86
f 63 57 88
f 88 57 83
f 87 89 88
f 88 85 87
f 88 89 63
f 63 89 60
f 87 90 89
f 68 90 93
f 93 90 118
f 91 90 68
f 90 91 66
f 87 118 90
f 69 68 92
f 93 92 68
f 96 69 92
f 92 97 96
f 71 96 95
f 95 96 97
f 97 94 95
f 74 72 98
f 72 95 98
f 72 71 95
f 94 99 98
f 95 94 98
f 101 128 100
f 76 100 105
f 76 101 100
f 98 101 74
f 101 76 74
f 101 98 99
f 515 104 103
f 103 129 515
f 103 104 102
f 105 100 104
f 104 100 102
f 515 106 104
f 106 105 104
f 515 107 517
f 108 109 795
f 108 114 115
f 108 115 109
f 544 110 111
f 112 111 110
f 112 113 111
f 113 114 111
f 113 116 114
f 116 115 114
f 117 115 116
f 116 87 117
f 117 87 85
f 113 120 87
f 87 116 113
f 142 124 123
f 142 123 118
f 142 118 119
f 123 93 118
f 87 120 118
f 113 119 120
f 119 118 120
f 124 121 122
f 92 93 123
f 123 122 92
f 122 123 124
f 97 92 122
f 122 121 97
f 121 125 94
f 94 97 121
f 126 99 127
f 94 125 99
f 125 127 99
f 128 149 100
f 128 101 99
f 126 149 128
f 128 99 126
f 130 505 103
f 103 102 130
f 103 505 129
f 130 102 131
f 102 100 131
f 100 149 131
f 132 514 133
f 514 132 516
f 129 505 133
f 133 514 129
f 135 138 134
f 136 137 134
f 134 138 136
f 135 110 138
f 139 563 137
f 137 136 139
f 157 113 140
f 135 141 112
f 112 110 135
f 140 113 112
f 112 141 140
f 142 161 143
f 142 143 124
f 113 157 119
f 157 161 119
f 119 161 142
f 124 143 144
f 124 144 121
f 167 145 164
f 144 145 125
f 125 121 144
f 144 164 145
f 146 127 167
f 127 146 126
f 125 145 127
f 145 167 127
f 171 126 146
f 171 172 147
f 147 126 171
f 126 148 149
f 147 148 126
f 150 149 148
f 151 505 150
f 152 505 151
f 148 151 150
f 133 505 152
f 561 137 563
f 154 156 155
f 155 137 561
f 158 162 157
f 157 162 161
f 140 158 157
f 141 158 140
f 135 156 158
f 158 141 135
f 159 143 161
f 163 143 159
f 159 161 162
f 159 162 753
f 163 144 143
f 163 164 144
f 731 164 163
f 164 732 165
f 167 165 166
f 165 183 166
f 167 166 146
f 165 167 164
f 146 166 168
f 168 189 188
f 188 486 169
f 169 168 188
f 168 171 146
f 169 171 168
f 169 172 171
f 170 172 169
f 173 501 170
f 501 172 170
f 173 489 502
f 490 491 174
f 174 491 502
f 174 502 489
f 674 181 178
f 163 159 160
f 160 181 163
f 177 178 160
f 160 178 181
f 160 159 753
f 160 753 750
f 750 177 160
f 178 179 674
f 181 180 163
f 674 673 181
f 181 673 180
f 180 673 733
f 731 734 729
f 732 730 182
f 183 187 189
f 186 187 183
f 165 186 183
f 186 184 185
f 185 187 186
f 205 188 189
f 166 189 168
f 189 166 183
f 191 190 485
f 485 487 191
f 485 190 483
f 487 188 191
f 192 810 488
f 192 214 810
f 483 214 192
f 742 752 193
f 193 747 741
f 668 179 178
f 179 668 195
f 671 670 195
f 195 670 179
f 194 671 195
f 733 196 678
f 676 677 197
f 678 196 197
f 197 677 678
f 695 676 197
f 202 201 203
f 204 187 185
f 204 185 688
f 689 690 688
f 690 209 207
f 207 206 690
f 207 205 204
f 205 189 204
f 207 204 206
f 207 208 205
f 209 232 210
f 210 207 209
f 571 208 210
f 210 208 207
f 208 191 205
f 571 211 208
f 208 212 191
f 211 212 208
f 191 188 205
f 190 212 483
f 191 212 190
f 213 891 211
f 891 214 211
f 214 212 211
f 743 741 215
f 215 216 743
f 761 216 215
f 216 660 217
f 743 216 217
f 663 664 218
f 218 664 691
f 665 663 218
f 696 676 695
f 676 696 697
f 680 199 220
f 699 700 220
f 689 226 690
f 223 226 689
f 227 230 226
f 690 226 230
f 230 209 690
f 228 231 229
f 229 232 209
f 209 230 229
f 228 229 230
f 225 228 230
f 230 227 225
f 232 229 231
f 232 231 233
f 8 7 235
f 8 235 566
f 764 8 259
f 237 234 235
f 235 234 566
f 7 236 235
f 241 237 238
f 237 235 238
f 236 239 238
f 238 235 236
f 247 243 241
f 240 247 238
f 238 239 240
f 238 247 241
f 239 242 240
f 247 240 244
f 243 247 246
f 246 245 243
f 244 249 246
f 246 247 244
f 249 244 449
f 245 246 254
f 254 248 245
f 254 246 249
f 254 249 250
f 595 257 538
f 253 252 595
f 252 257 595
f 253 595 255
f 255 251 253
f 250 251 254
f 254 251 256
f 256 251 255
f 255 593 256
f 595 593 255
f 248 254 256
f 252 444 257
f 443 454 444
f 443 444 252
f 444 453 657
f 259 258 455
f 258 566 260
f 259 8 258
f 258 8 566
f 277 652 651
f 278 652 277
f 652 278 260
f 241 268 261
f 261 237 241
f 261 268 262
f 263 264 262
f 265 261 262
f 262 264 265
f 653 261 265
f 265 651 654
f 266 270 267
f 263 262 267
f 262 266 267
f 241 269 268
f 268 269 266
f 268 266 262
f 241 243 269
f 272 271 270
f 270 266 272
f 272 266 269
f 274 273 271
f 271 272 274
f 274 272 275
f 272 269 275
f 243 245 275
f 275 269 243
f 590 274 248
f 274 275 248
f 248 275 245
f 274 590 273
f 559 568 276
f 277 646 647
f 278 277 647
f 303 655 279
f 279 280 303
f 265 655 277
f 265 279 655
f 265 264 279
f 277 651 265
f 280 279 264
f 264 263 280
f 281 282 307
f 281 307 280
f 307 303 280
f 263 267 281
f 280 263 281
f 267 270 282
f 282 281 267
f 282 283 308
f 308 307 282
f 270 285 282
f 285 283 282
f 310 283 284
f 270 271 285
f 284 283 285
f 271 284 285
f 582 286 310
f 310 284 582
f 271 273 284
f 582 284 273
f 537 659 289
f 537 287 659
f 542 288 289
f 289 541 542
f 290 560 291
f 648 290 292
f 290 291 292
f 296 650 295
f 295 294 296
f 295 650 299
f 299 293 295
f 297 330 298
f 293 299 298
f 298 327 293
f 300 297 298
f 299 300 298
f 307 302 303
f 302 301 304
f 303 304 297
f 303 302 304
f 304 330 297
f 302 305 301
f 302 306 305
f 306 302 307
f 307 308 306
f 313 337 309
f 309 311 313
f 306 337 305
f 309 337 306
f 283 309 308
f 309 306 308
f 311 309 310
f 310 309 283
f 286 312 311
f 311 310 286
f 312 339 313
f 312 313 311
f 523 534 314
f 523 314 315
f 314 534 524
f 524 316 526
f 551 550 319
f 551 319 318
f 552 317 550
f 550 317 319
f 322 321 320
f 547 549 349
f 349 323 322
f 323 349 549
f 321 322 323
f 325 320 321
f 324 325 326
f 325 327 326
f 321 644 327
f 325 321 327
f 304 329 330
f 333 329 301
f 301 329 304
f 333 328 329
f 330 331 324
f 329 331 330
f 333 334 328
f 305 332 333
f 332 334 333
f 333 301 305
f 335 358 338
f 338 358 336
f 338 336 337
f 332 305 337
f 337 336 332
f 337 313 338
f 339 360 359
f 335 338 359
f 313 359 338
f 359 313 339
f 360 339 365
f 339 340 365
f 339 606 340
f 519 341 606
f 606 341 340
f 366 341 343
f 519 518 343
f 519 343 341
f 518 525 342
f 518 342 343
f 345 344 525
f 525 344 342
f 345 459 344
f 347 371 346
f 547 371 347
f 348 640 349
f 349 322 348
f 320 353 322
f 353 348 322
f 324 350 351
f 350 636 351
f 636 352 351
f 372 642 352
f 352 637 372
f 636 637 352
f 351 352 320
f 353 352 642
f 320 352 353
f 354 356 378
f 354 328 356
f 331 350 324
f 331 354 350
f 331 329 328
f 328 354 331
f 379 356 355
f 355 356 334
f 356 379 378
f 334 356 328
f 358 363 357
f 335 363 358
f 357 355 334
f 332 336 357
f 357 334 332
f 358 357 336
f 359 360 335
f 335 360 362
f 360 361 362
f 335 362 387
f 335 387 363
f 387 384 363
f 365 361 360
f 365 340 364
f 364 341 366
f 340 341 364
f 364 366 603
f 361 365 367
f 364 603 367
f 367 365 364
f 366 368 603
f 510 368 366
f 369 368 509
f 509 368 510
f 509 511 369
f 640 641 370
f 370 346 371
f 638 639 372
f 372 639 643
f 635 374 373
f 643 639 373
f 373 374 643
f 638 637 376
f 399 375 377
f 375 378 377
f 378 375 354
f 403 379 381
f 379 403 377
f 379 377 378
f 379 355 381
f 380 381 355
f 363 384 386
f 380 355 363
f 363 386 380
f 363 355 357
f 383 384 382
f 382 406 383
f 384 387 382
f 362 388 382
f 382 387 362
f 388 385 382
f 385 406 382
f 386 383 380
f 386 384 383
f 604 388 362
f 389 388 604
f 604 390 389
f 390 494 389
f 392 494 393
f 389 392 493
f 389 494 392
f 392 393 391
f 393 394 391
f 463 564 758
f 398 397 396
f 626 395 398
f 376 398 395
f 398 376 397
f 376 375 397
f 396 397 399
f 397 375 399
f 402 399 377
f 400 402 401
f 401 402 403
f 402 377 403
f 381 401 403
f 405 404 757
f 757 740 380
f 404 740 757
f 380 383 757
f 383 407 757
f 406 601 407
f 383 406 407
f 408 407 601
f 407 408 757
f 605 410 409
f 410 579 409
f 602 579 577
f 409 579 602
f 492 412 596
f 492 596 410
f 605 411 410
f 410 411 492
f 492 496 412
f 412 496 575
f 413 760 414
f 431 739 738
f 418 708 415
f 415 739 416
f 417 415 416
f 417 418 415
f 420 404 405
f 422 599 421
f 423 599 422
f 423 408 601
f 574 425 424
f 424 573 574
f 572 573 424
f 618 427 426
f 737 735 618
f 618 428 737
f 429 430 735
f 735 737 736
f 735 432 429
f 433 432 431
f 434 738 415
f 707 434 709
f 437 435 726
f 436 435 437
f 437 419 436
f 439 610 609
f 608 441 440
f 608 440 442
f 779 780 32
f 32 780 52
f 657 257 444
f 6 469 7
f 7 469 236
f 446 239 469
f 469 239 236
f 447 450 242
f 242 450 240
f 449 450 470
f 250 836 451
f 451 452 253
f 451 253 251
f 454 443 848
f 444 780 453
f 453 780 779
f 568 455 276
f 456 455 568
f 560 557 886
f 554 886 557
f 457 552 548
f 548 552 550
f 458 459 345
f 460 473 511
f 462 461 391
f 462 391 394
f 466 465 575
f 499 465 466
f 759 467 445
f 474 619 617
f 475 474 477
f 477 474 617
f 710 475 477
f 623 480 479
f 567 764 259
f 6 446 469
f 446 447 242
f 242 239 446
f 447 448 450
f 244 240 450
f 450 448 470
f 449 244 450
f 836 250 449
f 449 470 836
f 250 249 449
f 451 251 250
f 253 452 443
f 443 252 253
f 452 848 443
f 792 456 471
f 456 568 471
f 539 288 528
f 346 565 553
f 553 347 346
f 553 565 472
f 572 468 576
f 718 710 711
f 721 719 722
f 715 614 716
f 478 614 611
f 623 479 724
f 479 725 724
f 480 607 442
f 442 481 480
f 480 481 479
f 482 476 627
f 761 476 482
f 454 780 444
f 485 483 484
f 486 487 485
f 188 487 486
f 486 170 169
f 485 484 173
f 485 173 170
f 485 170 486
f 502 500 173
f 173 500 501
f 484 483 192
f 489 192 174
f 174 192 488
f 484 192 489
f 173 484 489
f 496 492 493
f 493 492 411
f 496 493 392
f 493 411 389
f 390 495 494
f 494 495 506
f 506 393 494
f 575 496 466
f 496 391 466
f 392 391 496
f 393 506 497
f 462 394 497
f 497 513 462
f 497 394 393
f 391 461 466
f 461 499 466
f 513 498 462
f 501 147 172
f 500 502 503
f 500 503 504
f 147 501 504
f 504 501 500
f 148 147 504
f 504 151 148
f 504 503 151
f 151 503 152
f 130 150 505
f 149 150 131
f 131 150 130
f 503 502 491
f 153 133 491
f 491 490 153
f 152 503 491
f 152 491 133
f 153 132 133
f 603 508 495
f 495 390 603
f 495 508 507
f 507 506 495
f 368 369 507
f 507 508 368
f 368 508 603
f 366 343 510
f 343 342 509
f 509 510 343
f 512 513 497
f 506 507 512
f 512 497 506
f 513 512 369
f 513 369 511
f 369 512 507
f 342 344 509
f 344 511 509
f 459 511 344
f 459 460 511
f 473 498 513
f 513 511 473
f 458 460 459
f 129 514 515
f 515 514 107
f 107 514 516
f 517 107 531
f 106 515 517
f 519 520 518
f 525 518 521
f 518 520 521
f 521 520 314
f 314 520 522
f 521 314 524
f 540 524 534
f 523 315 585
f 526 345 525
f 526 525 521
f 526 521 524
f 539 524 540
f 528 316 539
f 539 316 524
f 345 527 458
f 345 526 527
f 526 316 527
f 316 528 527
f 529 105 106
f 106 530 529
f 80 78 529
f 530 80 529
f 530 533 80
f 533 53 80
f 79 80 53
f 517 81 530
f 530 106 517
f 531 81 517
f 81 533 530
f 81 55 533
f 535 523 585
f 534 523 535
f 535 536 534
f 540 534 536
f 536 287 537
f 289 540 536
f 536 537 289
f 536 535 287
f 287 535 587
f 659 594 538
f 541 289 659
f 594 287 592
f 659 287 594
f 289 539 540
f 539 289 288
f 656 288 542
f 110 544 138
f 544 543 138
f 139 136 543
f 543 877 139
f 543 136 138
f 544 108 543
f 543 108 877
f 111 114 108
f 108 544 111
f 108 795 877
f 545 115 117
f 109 115 545
f 545 546 109
f 347 548 547
f 548 347 553
f 549 547 548
f 550 551 549
f 549 548 550
f 318 319 294
f 294 319 317
f 554 557 552
f 557 317 552
f 553 457 548
f 117 86 545
f 556 546 545
f 545 86 556
f 555 546 556
f 556 84 555
f 556 86 83
f 83 82 556
f 84 556 82
f 792 84 59
f 558 296 294
f 294 317 558
f 557 558 317
f 296 558 648
f 290 558 557
f 290 557 560
f 558 290 648
f 559 291 568
f 278 292 559
f 291 559 292
f 568 291 471
f 560 886 792
f 291 560 471
f 471 560 792
f 748 751 561
f 175 562 751
f 751 562 561
f 562 175 154
f 561 563 748
f 154 155 562
f 562 155 561
f 134 155 156
f 134 156 135
f 137 155 134
f 758 564 635
f 564 463 346
f 374 635 564
f 346 370 564
f 374 564 370
f 370 641 374
f 349 640 371
f 371 547 349
f 640 370 371
f 565 346 464
f 464 346 463
f 278 559 276
f 260 278 276
f 455 258 276
f 260 276 258
f 455 567 259
f 233 569 232
f 569 571 232
f 232 571 210
f 569 233 570
f 211 571 213
f 569 570 213
f 569 213 571
f 212 214 483
f 214 891 810
f 572 440 441
f 424 468 572
f 572 441 573
f 412 575 425
f 575 468 424
f 575 424 425
f 846 440 572
f 572 576 846
f 465 468 575
f 573 441 577
f 441 598 577
f 577 598 578
f 579 574 577
f 574 573 577
f 425 574 596
f 579 596 574
f 410 596 579
f 315 314 522
f 580 522 520
f 315 522 581
f 581 522 580
f 581 580 312
f 581 312 286
f 581 286 582
f 582 583 581
f 273 584 582
f 583 582 584
f 315 581 583
f 583 585 315
f 583 586 585
f 586 587 585
f 585 587 535
f 584 588 586
f 592 287 587
f 592 587 589
f 587 586 589
f 588 589 586
f 584 586 583
f 590 588 584
f 590 584 273
f 590 248 591
f 588 590 591
f 248 256 591
f 589 588 593
f 593 594 589
f 591 256 593
f 593 588 591
f 594 595 538
f 594 592 589
f 594 593 595
f 412 425 596
f 598 441 597
f 622 599 598
f 598 597 622
f 598 599 600
f 578 598 600
f 423 600 599
f 601 600 423
f 578 600 601
f 578 601 602
f 602 601 406
f 409 602 406
f 409 406 385
f 602 577 578
f 603 390 604
f 361 367 604
f 604 362 361
f 604 367 603
f 385 605 409
f 388 605 385
f 605 388 389
f 389 411 605
f 606 580 519
f 339 312 606
f 312 580 606
f 520 519 580
f 622 608 607
f 622 597 608
f 441 608 597
f 442 607 608
f 611 612 613
f 438 613 612
f 726 614 715
f 429 615 712
f 617 430 616
f 617 616 477
f 619 618 617
f 427 619 627
f 619 427 618
f 428 618 426
f 396 399 620
f 402 416 620
f 416 631 620
f 399 402 620
f 402 400 416
f 400 417 416
f 627 619 482
f 482 619 845
f 474 845 619
f 621 610 439
f 621 439 421
f 421 599 624
f 622 624 599
f 622 607 624
f 607 623 610
f 480 623 607
f 607 610 624
f 610 621 624
f 421 624 621
f 724 613 623
f 609 623 613
f 609 610 623
f 634 395 626
f 634 413 625
f 626 628 634
f 629 628 626
f 632 398 396
f 476 760 627
f 426 627 628
f 628 627 760
f 426 427 627
f 426 629 428
f 426 628 629
f 428 629 632
f 396 631 630
f 632 630 428
f 620 631 396
f 416 739 631
f 760 476 414
f 760 413 628
f 413 634 628
f 626 398 632
f 629 626 632
f 630 632 396
f 758 414 759
f 758 625 414
f 633 634 625
f 633 625 635
f 639 634 633
f 639 633 373
f 373 633 635
f 636 375 376
f 638 372 637
f 637 636 376
f 354 375 636
f 636 350 354
f 625 413 414
f 395 639 638
f 634 639 395
f 376 395 638
f 642 643 641
f 643 642 372
f 641 643 374
f 348 641 640
f 641 348 642
f 642 348 353
f 549 551 323
f 321 323 644
f 323 645 644
f 551 318 645
f 551 645 323
f 645 318 295
f 318 294 295
f 645 295 293
f 293 644 645
f 298 326 327
f 644 293 327
f 330 326 298
f 326 330 324
f 649 648 647
f 648 292 647
f 300 649 646
f 649 647 646
f 647 292 278
f 649 300 299
f 299 650 649
f 650 296 648
f 650 648 649
f 652 654 651
f 260 654 652
f 566 234 654
f 260 566 654
f 237 261 653
f 653 234 237
f 654 234 653
f 653 265 654
f 351 325 324
f 351 320 325
f 655 300 646
f 646 277 655
f 303 297 655
f 300 655 297
f 899 656 542
f 542 453 899
f 779 899 453
f 542 541 658
f 658 657 542
f 657 658 538
f 257 657 538
f 453 542 657
f 541 659 658
f 658 659 538
f 761 661 216
f 216 661 660
f 663 662 217
f 663 217 660
f 664 663 660
f 662 744 217
f 665 662 663
f 745 662 665
f 744 662 745
f 745 177 746
f 667 177 745
f 667 745 665
f 667 665 669
f 669 665 666
f 178 177 668
f 668 177 667
f 667 669 195
f 195 668 667
f 195 669 194
f 179 670 672
f 672 670 671
f 179 672 674
f 674 672 673
f 672 671 675
f 672 675 673
f 196 733 673
f 695 197 675
f 196 673 675
f 675 197 196
f 676 698 677
f 678 734 733
f 734 678 679
f 677 679 678
f 677 199 679
f 698 199 677
f 729 734 198
f 679 198 734
f 198 679 199
f 682 199 680
f 198 199 682
f 198 682 729
f 682 730 729
f 681 182 730
f 730 682 681
f 680 201 682
f 201 683 682
f 682 683 681
f 182 681 200
f 201 202 683
f 200 681 683
f 683 202 200
f 685 684 202
f 202 203 685
f 202 684 200
f 184 200 684
f 185 684 686
f 185 184 684
f 685 687 684
f 686 684 687
f 185 686 688
f 689 688 686
f 686 687 689
f 206 688 690
f 204 688 206
f 189 187 204
f 692 669 666
f 665 218 666
f 692 666 218
f 692 218 691
f 194 692 219
f 194 669 692
f 692 691 219
f 694 219 693
f 671 194 694
f 694 194 219
f 675 671 694
f 693 696 694
f 675 694 695
f 695 694 696
f 676 697 698
f 220 199 698
f 697 220 698
f 699 220 697
f 221 220 700
f 680 220 221
f 701 201 680
f 701 680 221
f 700 702 701
f 701 221 700
f 701 203 201
f 222 203 701
f 701 702 222
f 704 222 703
f 704 685 203
f 203 222 704
f 704 223 687
f 687 685 704
f 703 223 704
f 689 687 223
f 703 224 223
f 224 227 223
f 224 225 227
f 226 223 227
f 418 417 705
f 705 420 418
f 419 418 420
f 705 404 420
f 420 405 756
f 756 419 420
f 707 706 738
f 431 706 433
f 431 738 706
f 433 706 728
f 433 429 432
f 736 431 432
f 432 735 736
f 415 708 434
f 708 709 434
f 434 707 738
f 437 709 708
f 708 419 437
f 418 419 708
f 437 726 709
f 477 711 710
f 713 718 717
f 717 712 714
f 717 714 713
f 721 720 719
f 716 721 715
f 723 716 614
f 725 478 611
f 717 711 712
f 718 711 717
f 714 720 713
f 714 719 720
f 721 722 715
f 478 723 614
f 725 611 724
f 611 614 612
f 614 726 612
f 435 438 612
f 612 726 435
f 613 438 609
f 724 611 613
f 727 726 715
f 727 709 726
f 707 719 706
f 727 722 719
f 707 727 719
f 727 707 709
f 727 715 722
f 615 429 433
f 712 615 714
f 714 615 728
f 728 615 433
f 706 719 728
f 728 719 714
f 616 711 477
f 617 618 430
f 712 430 429
f 430 712 616
f 616 712 711
f 729 730 731
f 182 200 184
f 184 732 182
f 184 186 732
f 732 186 165
f 180 733 734
f 734 731 180
f 439 438 436
f 436 419 439
f 430 618 735
f 737 428 630
f 630 631 736
f 630 736 737
f 736 631 431
f 431 631 739
f 739 415 738
f 404 705 740
f 705 400 740
f 400 705 417
f 400 401 740
f 380 740 401
f 401 381 380
f 467 759 476
f 476 759 414
f 741 743 193
f 743 217 742
f 742 193 743
f 742 744 746
f 742 217 744
f 744 745 746
f 746 177 750
f 749 752 742
f 749 742 746
f 746 750 749
f 747 751 748
f 752 751 193
f 193 751 747
f 750 176 749
f 751 752 175
f 175 752 749
f 749 176 175
f 176 750 753
f 754 154 175
f 754 175 176
f 754 176 753
f 753 162 754
f 158 156 154
f 158 154 754
f 162 158 754
f 419 755 439
f 756 422 755
f 405 422 756
f 408 422 405
f 439 609 438
f 421 439 755
f 421 755 422
f 408 423 422
f 438 435 436
f 419 756 755
f 408 405 757
f 759 463 758
f 635 625 758
f 730 732 731
f 731 732 164
f 180 731 163
f 464 463 759
f 445 464 759
f 476 761 467
f 5 2 1
f 833 762 11
f 763 1 11
f 11 762 763
f 765 762 6
f 6 764 765
f 6 762 833
f 766 767 833
f 10 769 833
f 833 11 10
f 768 770 769
f 766 833 769
f 769 770 766
f 847 771 13
f 768 769 13
f 13 771 768
f 21 834 847
f 847 17 21
f 847 13 17
f 21 772 835
f 835 772 773
f 835 834 21
f 21 24 772
f 776 777 775
f 775 774 776
f 775 777 837
f 773 775 837
f 24 775 773
f 773 772 24
f 848 778 774
f 774 778 776
f 890 781 33
f 33 781 782
f 782 783 33
f 33 783 784
f 33 36 890
f 890 36 567
f 532 656 899
f 58 33 784
f 784 792 58
f 785 786 789
f 789 531 785
f 789 786 787
f 789 532 531
f 787 788 789
f 789 788 656
f 790 791 886
f 792 793 886
f 886 793 790
f 84 792 886
f 107 852 794
f 796 797 795
f 795 797 798
f 796 795 109
f 802 132 153
f 868 799 802
f 802 799 800
f 800 801 802
f 802 801 852
f 516 132 802
f 881 888 139
f 888 563 139
f 563 888 805
f 888 803 805
f 805 803 804
f 804 806 805
f 805 806 887
f 174 807 490
f 748 805 917
f 917 805 887
f 808 809 810
f 810 809 863
f 488 810 863
f 917 741 747
f 854 741 917
f 917 831 854
f 213 811 891
f 811 812 891
f 891 812 813
f 215 741 854
f 215 854 814
f 814 761 215
f 815 691 664
f 816 817 815
f 815 664 816
f 815 817 911
f 902 693 219
f 819 906 818
f 818 906 696
f 906 697 696
f 700 699 916
f 222 702 820
f 820 908 222
f 821 822 826
f 826 822 823
f 824 825 826
f 826 825 821
f 228 826 481
f 481 826 823
f 826 228 225
f 481 231 228
f 231 481 440
f 233 231 440
f 440 827 233
f 233 827 828
f 828 829 233
f 233 829 846
f 440 481 442
f 831 889 830
f 830 889 445
f 3 832 764
f 764 832 765
f 833 767 766
f 771 847 447
f 847 834 448
f 470 834 835
f 773 837 836
f 836 837 451
f 451 837 452
f 837 777 452
f 452 777 776
f 782 781 456
f 456 781 890
f 456 890 455
f 876 528 288
f 787 786 876
f 876 786 785
f 656 788 876
f 876 788 787
f 851 794 852
f 527 794 851
f 838 839 457
f 457 839 798
f 840 841 457
f 457 841 838
f 800 799 458
f 458 799 868
f 881 553 472
f 881 472 888
f 868 473 460
f 461 462 807
f 499 867 895
f 895 465 499
f 863 809 895
f 895 867 863
f 895 809 808
f 854 831 830
f 445 467 830
f 468 895 811
f 843 812 811
f 811 895 843
f 844 845 475
f 475 845 474
f 911 817 475
f 475 817 816
f 828 827 846
f 846 827 440
f 764 567 3
f 6 833 768
f 768 446 6
f 766 770 768
f 768 833 766
f 446 768 771
f 771 447 446
f 847 448 447
f 470 448 834
f 470 835 836
f 836 835 773
f 776 778 452
f 452 778 848
f 848 780 454
f 792 784 456
f 785 849 876
f 876 849 850
f 852 801 851
f 800 458 851
f 851 801 800
f 868 869 473
f 887 806 842
f 842 806 804
f 854 830 853
f 853 830 467
f 468 811 576
f 811 846 576
f 816 855 475
f 475 855 844
f 814 854 853
f 911 475 710
f 910 710 718
f 856 857 912
f 912 857 858
f 916 859 915
f 915 859 860
f 820 916 716
f 861 725 479
f 821 825 861
f 861 825 824
f 823 822 862
f 821 861 862
f 862 822 821
f 862 861 479
f 823 862 481
f 481 862 479
f 846 829 828
f 814 853 761
f 863 807 488
f 488 807 174
f 864 865 490
f 490 865 869
f 807 866 490
f 490 866 864
f 461 807 867
f 867 499 461
f 867 807 863
f 864 866 498
f 498 866 807
f 498 807 462
f 869 865 498
f 498 865 864
f 153 490 869
f 153 869 868
f 868 802 153
f 869 498 473
f 868 460 458
f 802 852 516
f 107 516 852
f 871 531 794
f 794 870 871
f 531 107 794
f 458 527 851
f 871 870 794
f 527 528 794
f 871 872 531
f 531 872 873
f 873 874 531
f 531 874 875
f 875 849 531
f 531 849 785
f 532 789 656
f 873 872 794
f 794 872 871
f 850 874 876
f 876 874 873
f 876 288 656
f 528 876 794
f 794 876 873
f 139 877 881
f 840 878 877
f 877 878 881
f 838 841 877
f 877 841 840
f 798 839 795
f 838 877 795
f 795 839 838
f 796 109 546
f 879 880 796
f 796 546 879
f 796 880 554
f 554 880 879
f 796 552 457
f 798 797 796
f 796 457 798
f 881 457 553
f 840 457 881
f 881 878 840
f 796 554 552
f 886 882 555
f 879 546 555
f 555 882 879
f 886 555 84
f 784 883 792
f 792 883 884
f 884 885 792
f 884 883 792
f 792 883 784
f 886 791 790
f 790 793 886
f 886 793 792
f 879 882 554
f 554 882 886
f 792 885 884
f 748 563 805
f 565 842 472
f 472 842 888
f 842 565 464
f 804 803 842
f 842 803 888
f 464 889 842
f 842 889 887
f 567 455 890
f 784 783 456
f 456 783 782
f 570 233 846
f 846 811 570
f 570 811 213
f 892 893 810
f 810 891 892
f 810 893 808
f 813 894 891
f 891 894 892
f 808 893 895
f 895 893 892
f 895 468 465
f 892 894 895
f 895 894 843
f 896 897 482
f 482 897 761
f 844 898 845
f 896 482 845
f 845 898 896
f 761 897 661
f 896 660 661
f 661 897 896
f 896 898 660
f 660 898 844
f 664 660 844
f 844 855 664
f 664 855 816
f 691 815 901
f 911 900 901
f 901 815 911
f 219 691 901
f 900 902 901
f 901 902 219
f 900 903 902
f 903 818 902
f 902 818 693
f 818 696 693
f 903 904 818
f 818 904 858
f 858 857 818
f 818 857 856
f 856 905 818
f 818 905 819
f 906 699 697
f 819 907 906
f 860 699 906
f 906 907 860
f 860 859 699
f 699 859 916
f 916 702 700
f 702 916 820
f 703 222 908
f 703 908 824
f 824 908 909
f 824 224 703
f 824 826 224
f 826 225 224
f 710 910 911
f 911 910 900
f 913 718 713
f 858 904 912
f 903 913 912
f 912 904 903
f 912 913 713
f 819 905 912
f 912 905 856
f 915 720 721
f 860 907 915
f 819 914 915
f 915 907 819
f 915 914 720
f 916 721 716
f 820 716 723
f 909 908 478
f 909 478 725
f 718 913 910
f 910 913 903
f 910 903 900
f 713 720 912
f 819 912 914
f 914 912 720
f 916 915 721
f 908 723 478
f 723 908 820
f 824 909 861
f 861 909 725
f 917 747 748
f 917 887 831
f 831 887 889
f 889 464 445
f 467 761 853
f 763 832 1
f 1 832 3
