# USD → MuJoCo (world-space, simplified)
v -0.179372 0.292748 -0.117111
v -0.182935 0.290163 -0.117176
v -0.184916 0.277956 -0.112307
v -0.183035 0.273483 -0.112346
v -0.172732 0.291822 -0.112911
v -0.176943 0.290189 -0.112951
v -0.178273 0.285885 -0.112415
v -0.173682 0.287622 -0.112368
v -0.180802 0.288326 -0.113073
v -0.182419 0.284162 -0.112557
v -0.185832 0.285283 -0.113699
v -0.187550 0.282813 -0.113457
v -0.185501 0.283165 -0.112872
v -0.183861 0.286655 -0.113347
v -0.189764 0.279079 -0.113339
v -0.187778 0.278909 -0.112712
v -0.193913 0.270037 -0.113548
v -0.192711 0.269876 -0.112901
v -0.190392 0.274578 -0.112752
v -0.192018 0.274841 -0.113397
v -0.191545 0.269302 -0.112593
v -0.189057 0.273625 -0.112457
v -0.188116 0.272424 -0.112384
v -0.190937 0.267901 -0.112527
v -0.189008 0.288288 -0.165148
v -0.191501 0.284400 -0.165293
v -0.194985 0.275082 -0.165350
v -0.152747 0.274585 -0.170500
v -0.140782 0.293060 -0.170468
v -0.194314 0.275458 -0.169439
v -0.192963 0.280344 -0.169427
v -0.192422 0.280341 -0.170080
v -0.193652 0.275490 -0.170089
v -0.191159 0.284707 -0.169479
v -0.190844 0.284594 -0.170137
v -0.190407 0.284410 -0.170458
v -0.191720 0.280286 -0.170407
v -0.192793 0.275481 -0.170413
v -0.186296 0.292405 -0.170119
v -0.187508 0.291035 -0.170724
v -0.189063 0.288260 -0.170325
v -0.188990 0.288620 -0.169657
v -0.187915 0.290234 -0.171005
v -0.189043 0.287798 -0.170625
v -0.188770 0.287483 -0.170725
v -0.190191 0.283118 -0.170528
v -0.192132 0.272885 -0.170524
v -0.195051 0.264605 -0.113713
v -0.194102 0.264505 -0.113067
v -0.195619 0.258265 -0.113901
v -0.194797 0.258198 -0.113256
v -0.193768 0.258110 -0.112935
v -0.193030 0.264227 -0.112750
v -0.195029 0.250700 -0.113479
v -0.195806 0.250774 -0.114116
v -0.194009 0.250844 -0.113153
v -0.192843 0.250646 -0.113050
v -0.192096 0.263564 -0.112661
v -0.195867 0.269585 -0.165371
v -0.152766 0.255853 -0.170514
v -0.103502 0.271206 -0.170502
v -0.195663 0.255506 -0.169480
v -0.194882 0.255629 -0.170112
v -0.195530 0.263501 -0.169463
v -0.194759 0.263564 -0.170105
v -0.193759 0.263597 -0.170426
v -0.193861 0.255296 -0.170432
v -0.194390 0.270030 -0.170098
v -0.195125 0.269977 -0.169451
v -0.193437 0.270049 -0.170420
v -0.192650 0.259677 -0.170533
v -0.195029 0.230949 -0.114057
v -0.195809 0.219667 -0.115007
v -0.194026 0.194111 -0.114829
v -0.195811 0.192849 -0.115776
v -0.192855 0.197994 -0.114611
v -0.173307 0.262161 -0.171064
v -0.170129 0.268291 -0.170729
v -0.163985 0.260257 -0.170568
v -0.173111 0.270558 -0.171055
v -0.152758 0.264098 -0.170510
v -0.152766 0.246170 -0.170514
v -0.172678 0.278151 -0.171045
v -0.169561 0.280101 -0.170715
v -0.171653 0.287350 -0.171037
v -0.170455 0.295478 -0.171030
v -0.168163 0.293261 -0.170698
v -0.163214 0.284562 -0.170541
v -0.151956 0.290792 -0.170473
v -0.151322 0.301146 -0.150419
v -0.169260 0.288664 -0.112338
v -0.168614 0.292802 -0.112885
v -0.173816 0.282812 -0.112181
v -0.163209 0.283923 -0.112143
v -0.162743 0.289185 -0.112321
v -0.162331 0.293291 -0.112869
v -0.170621 0.277616 -0.112220
v -0.148541 0.278048 -0.112203
v -0.151349 0.284083 -0.112134
v -0.134232 0.293454 -0.112857
v -0.151624 0.293454 -0.112861
v -0.151565 0.289359 -0.112312
v -0.159777 0.245598 -0.113179
v -0.179971 0.196667 -0.114645
v -0.108136 0.265253 -0.112587
v 0.139677 0.258443 -0.112792
v -0.121768 0.278059 -0.112202
v 0.002407 0.278080 -0.112201
v -0.026861 0.265253 -0.112587
v -0.052514 0.299131 -0.129684
v -0.092094 0.289360 -0.112307
v -0.037346 0.278043 -0.112201
v 0.022282 0.284092 -0.112130
v -0.095638 0.284092 -0.112131
v -0.075724 0.293453 -0.112853
v -0.196510 0.253469 -0.145025
v -0.196481 0.183720 -0.156922
v -0.195372 0.180177 -0.169125
v -0.194752 0.179901 -0.169566
v -0.195610 0.181608 -0.169431
v -0.194852 0.181556 -0.170013
v -0.193859 0.181509 -0.170304
v -0.193837 0.180227 -0.170012
v -0.193823 0.179267 -0.169430
v -0.194890 0.183045 -0.170099
v -0.193867 0.183008 -0.170401
v -0.192694 0.181494 -0.170400
v -0.192697 0.179190 -0.169500
v -0.192695 0.180182 -0.170099
v -0.174662 0.178827 -0.170176
v -0.173782 0.180040 -0.170733
v -0.170486 0.180098 -0.170336
v -0.170660 0.179067 -0.169725
v -0.173434 0.181445 -0.170960
v -0.170267 0.181471 -0.170612
v -0.163980 0.181493 -0.170441
v -0.164036 0.180164 -0.170146
v -0.164080 0.179161 -0.169544
v -0.163967 0.183029 -0.170540
v -0.152764 0.183017 -0.170484
v -0.152767 0.180186 -0.170083
v -0.152768 0.179192 -0.169484
v -0.152766 0.181501 -0.170383
v 0.157579 0.183017 -0.170484
v 0.157583 0.179192 -0.169484
v -0.172735 0.257161 -0.112832
v -0.180169 0.275110 -0.112297
v -0.183423 0.273636 -0.181079
v -0.178933 0.251878 -0.181074
v -0.183937 0.256320 -0.181080
v -0.192832 0.183292 -0.115536
v -0.192836 0.184480 -0.115181
v -0.192844 0.182349 -0.116180
v -0.178933 0.207396 -0.181077
v -0.176883 0.300046 -0.180655
v -0.179364 0.298543 -0.180755
v -0.176548 0.299735 -0.180845
v -0.179433 0.298014 -0.180965
v -0.182314 0.296216 -0.180851
v -0.184447 0.295043 -0.180489
v -0.181817 0.297266 -0.180168
v -0.181851 0.296974 -0.180660
v -0.184601 0.294825 -0.173130
v -0.175821 0.277219 -0.178429
v -0.175207 0.282887 -0.178424
v -0.175212 0.282377 -0.173137
v -0.174467 0.287553 -0.173133
v -0.174461 0.288077 -0.178423
v -0.172766 0.297056 -0.173126
v -0.176435 0.256567 -0.178431
v -0.183934 0.177664 -0.178435
v -0.186441 0.182899 -0.173146
v -0.186516 0.275447 -0.173156
v -0.186471 0.270224 -0.173159
v -0.186449 0.263870 -0.173159
v -0.186483 0.273832 -0.178420
v -0.186441 0.256034 -0.173165
v -0.186978 0.292961 -0.178426
v -0.192796 0.180462 -0.131781
v -0.192735 0.179141 -0.153924
v -0.192760 0.179619 -0.145928
v -0.172160 0.294411 -0.113948
v -0.176143 0.292841 -0.113983
v -0.171871 0.295793 -0.115362
v -0.175741 0.294254 -0.115392
v -0.179493 0.292194 -0.115444
v -0.179901 0.290861 -0.114069
v -0.175612 0.294840 -0.117069
v -0.186174 0.286791 -0.115624
v -0.182987 0.289708 -0.115531
v -0.183161 0.288688 -0.114248
v -0.186025 0.286137 -0.114400
v -0.186152 0.292132 -0.168544
v -0.182558 0.295863 -0.171135
v -0.186110 0.291925 -0.166917
v -0.182809 0.295161 -0.168296
v -0.182794 0.294760 -0.164727
v -0.179224 0.297521 -0.166362
v -0.175469 0.299579 -0.165912
v -0.171666 0.301741 -0.170088
v -0.175424 0.299963 -0.168877
v -0.171686 0.301332 -0.167928
v -0.191468 0.284548 -0.166902
v -0.188984 0.288628 -0.168456
v -0.191360 0.284673 -0.168358
v -0.194713 0.275371 -0.168354
v -0.193290 0.280278 -0.168337
v -0.194915 0.275243 -0.166939
v -0.193456 0.280160 -0.166915
v -0.195107 0.270544 -0.117703
v -0.194991 0.270367 -0.116045
v -0.193477 0.275264 -0.115900
v -0.191451 0.279608 -0.115780
v -0.191629 0.279816 -0.117440
v -0.192992 0.275066 -0.114481
v -0.194633 0.270201 -0.114631
v -0.190909 0.279338 -0.114390
v -0.188597 0.283024 -0.114405
v -0.189005 0.283438 -0.115698
v -0.195791 0.269743 -0.166965
v -0.196229 0.263263 -0.166992
v -0.195567 0.269878 -0.168372
v -0.195995 0.263397 -0.168391
v -0.196137 0.255507 -0.168411
v -0.196457 0.255245 -0.165418
v -0.196580 0.251082 -0.118191
v -0.196354 0.258507 -0.116373
v -0.196110 0.258371 -0.114974
v -0.195618 0.264732 -0.114792
v -0.195900 0.264880 -0.116199
v -0.167962 0.297287 -0.117014
v -0.168027 0.296716 -0.115341
v -0.161956 0.297177 -0.115327
v -0.161911 0.297746 -0.117004
v -0.168224 0.295353 -0.113925
v -0.162082 0.295824 -0.113911
v -0.151416 0.295980 -0.113901
v -0.151348 0.297330 -0.115317
v -0.161790 0.302553 -0.166787
v -0.151317 0.302601 -0.169336
v -0.151265 0.302723 -0.168221
v -0.161783 0.302525 -0.169408
v -0.161795 0.302608 -0.168268
v -0.167841 0.302262 -0.168389
v -0.167743 0.302296 -0.169605
v -0.094804 0.295980 -0.113894
v -0.041186 0.297330 -0.115310
v 0.007372 0.302696 -0.166762
v -0.117665 0.302038 -0.159595
v 0.007371 0.302722 -0.168215
v -0.151244 0.302697 -0.166769
v -0.151265 0.302573 -0.165106
v -0.196375 0.255373 -0.167030
v -0.196377 0.183181 -0.167175
v -0.196137 0.227710 -0.168452
v -0.195665 0.215401 -0.169495
v -0.196141 0.183113 -0.168486
v -0.196457 0.183262 -0.165668
v -0.195799 0.182113 -0.120013
v -0.195747 0.182267 -0.118539
v -0.196340 0.183582 -0.118434
v -0.195855 0.183371 -0.116814
v -0.195512 0.182630 -0.117107
v -0.195753 0.184477 -0.116150
v -0.196205 0.184405 -0.117121
v -0.196276 0.185797 -0.117008
v -0.195810 0.185849 -0.116013
v -0.196579 0.185572 -0.119826
v -0.195675 0.179423 -0.165675
v -0.194895 0.178814 -0.165693
v -0.195617 0.179408 -0.167141
v -0.194860 0.178812 -0.167161
v -0.193867 0.178512 -0.167190
v -0.193877 0.178508 -0.165696
v -0.194766 0.179011 -0.168347
v -0.193841 0.178730 -0.168463
v -0.192699 0.178637 -0.168501
v -0.192703 0.178412 -0.167198
v -0.192827 0.181197 -0.120034
v -0.027623 0.182350 -0.116179
v -0.192829 0.181385 -0.118520
v 0.000000 0.178615 -0.162447
v 0.157589 0.178412 -0.167183
v -0.152771 0.178637 -0.168485
v 0.157585 0.178637 -0.168485
v 0.157593 0.178407 -0.165673
v -0.164158 0.182350 -0.116179
v -0.127614 0.181741 -0.117205
v -0.192834 0.181741 -0.117205
v -0.172134 0.178407 -0.165673
v -0.173710 0.178374 -0.167215
v -0.164035 0.178407 -0.167192
v -0.170957 0.178562 -0.168671
v -0.164066 0.178617 -0.168521
v -0.152774 0.178412 -0.167183
v -0.152785 0.178407 -0.165673
v -0.178132 0.178300 -0.167335
v -0.171776 0.296370 -0.117038
v -0.186226 0.287124 -0.117241
v -0.186090 0.291697 -0.164680
v -0.171642 0.301018 -0.164911
v -0.193512 0.280009 -0.165325
v -0.193636 0.275446 -0.117559
v -0.189140 0.283693 -0.117333
v -0.196309 0.263116 -0.165372
v -0.196432 0.258659 -0.118000
v -0.195990 0.265050 -0.117848
v -0.161785 0.302415 -0.165059
v -0.167833 0.301972 -0.165241
v -0.151362 0.298355 -0.121697
v -0.151353 0.297897 -0.116986
v -0.195776 0.181602 -0.128365
v -0.196269 0.183022 -0.120018
v -0.196502 0.184212 -0.119924
v -0.192804 0.180690 -0.128024
v -0.192820 0.180985 -0.123310
v -0.194914 0.179343 -0.157240
v -0.195697 0.179999 -0.156160
v 0.197627 0.180858 -0.125309
v -0.122123 0.178745 -0.160399
v -0.192814 0.180859 -0.125303
v -0.195031 0.185927 -0.115407
v -0.194998 0.184493 -0.115569
v -0.194006 0.184483 -0.115278
v -0.194015 0.185930 -0.115108
v -0.194893 0.182244 -0.116881
v -0.194907 0.183411 -0.115885
v -0.193966 0.182408 -0.116248
v -0.193983 0.183322 -0.115624
v -0.173988 0.184487 -0.115179
v -0.172268 0.183296 -0.115536
v -0.196378 0.181758 -0.165685
v -0.196546 0.184927 -0.132242
v -0.195669 0.183063 -0.169496
v -0.192693 0.183010 -0.170501
v -0.170190 0.183014 -0.170705
v -0.173317 0.182998 -0.171036
v -0.152766 0.187393 -0.170486
v -0.152766 0.204403 -0.170496
v -0.152766 0.192694 -0.170490
v -0.179925 0.185832 -0.115017
v -0.192838 0.188528 -0.114905
v -0.178936 0.178605 -0.180527
v -0.184441 0.178613 -0.180528
v -0.176961 0.178992 -0.173131
v -0.176493 0.181370 -0.173131
v -0.176441 0.182903 -0.173131
v -0.186436 0.182701 -0.177560
v -0.196068 0.181643 -0.168462
v -0.196209 0.180870 -0.167186
v -0.195712 0.179957 -0.168330
v -0.196145 0.180443 -0.165689
v -0.196506 0.185715 -0.118306
v -0.196171 0.181067 -0.154742
v -0.195034 0.194645 -0.115118
v -0.181396 0.190722 -0.114830
v -0.148613 0.188580 -0.114902
v 0.157720 0.190729 -0.114829
v -0.178938 0.182558 -0.181079
v -0.183933 0.182523 -0.181083
v -0.194882 0.234133 -0.170116
v -0.193866 0.212055 -0.170417
v -0.192693 0.236812 -0.170533
v -0.163969 0.237173 -0.170568
v -0.170193 0.237901 -0.170733
v -0.173318 0.227938 -0.171058
v -0.152758 0.226029 -0.170508
v -0.196275 0.203079 -0.116500
v -0.196272 0.250824 -0.115177
v -0.196504 0.250933 -0.116561
v -0.179282 0.298882 -0.180340
v -0.182185 0.297059 -0.178906
v -0.184401 0.295539 -0.179419
v -0.179300 0.298939 -0.178962
v -0.174067 0.301945 -0.178420
v -0.174240 0.301891 -0.179216
v -0.176452 0.300673 -0.178941
v -0.176984 0.300299 -0.180166
v -0.174811 0.301422 -0.180191
v -0.173231 0.301456 -0.171249
v -0.175961 0.300071 -0.171178
v -0.179243 0.297905 -0.169747
v -0.176463 0.300062 -0.172666
v -0.174009 0.301403 -0.172587
v -0.179314 0.298273 -0.172297
v -0.182113 0.296497 -0.172653
v -0.184704 0.294477 -0.171748
v -0.175918 0.277254 -0.179252
v -0.175350 0.282878 -0.179251
v -0.174649 0.288015 -0.179250
v -0.176648 0.282154 -0.180519
v -0.175782 0.282665 -0.179967
v -0.176212 0.277182 -0.179968
v -0.176283 0.287507 -0.180513
v -0.175214 0.287683 -0.179967
v -0.175228 0.294923 -0.180518
v -0.174539 0.292125 -0.179966
v -0.172152 0.301969 -0.179217
v -0.173912 0.292468 -0.179249
v -0.172678 0.301923 -0.172616
v -0.171936 0.301866 -0.172434
v -0.170179 0.302018 -0.170692
v -0.171736 0.301940 -0.171394
v -0.169633 0.301791 -0.170938
v -0.171106 0.301812 -0.171530
v -0.170944 0.301352 -0.171560
v -0.169510 0.301303 -0.171020
v -0.176430 0.264632 -0.179255
v -0.176374 0.264566 -0.178431
v -0.176954 0.256747 -0.180521
v -0.176642 0.256716 -0.179971
v -0.176939 0.264708 -0.180520
v -0.176599 0.264686 -0.179970
v -0.176470 0.271351 -0.179969
v -0.176828 0.276667 -0.180527
v -0.176259 0.271338 -0.179254
v -0.176189 0.271281 -0.178419
v -0.175826 0.276704 -0.173141
v -0.176195 0.270762 -0.173146
v -0.175524 0.276625 -0.172315
v -0.175887 0.270681 -0.172321
v -0.176069 0.263975 -0.172325
v -0.176379 0.264054 -0.173150
v -0.174962 0.270612 -0.171605
v -0.174616 0.276555 -0.171600
v -0.175135 0.263907 -0.171610
v -0.175193 0.256486 -0.171617
v -0.176129 0.256273 -0.172332
v -0.176435 0.182666 -0.178430
v -0.176642 0.182603 -0.179974
v -0.176487 0.256660 -0.179257
v -0.176441 0.256158 -0.173157
v -0.178474 0.178011 -0.179973
v -0.178935 0.177725 -0.179258
v -0.183975 0.178111 -0.170326
v -0.186383 0.181112 -0.178430
v -0.185875 0.181079 -0.180495
v -0.186272 0.181064 -0.179700
v -0.185720 0.179020 -0.180006
v -0.185945 0.179851 -0.180150
v -0.185877 0.178746 -0.179233
v -0.186222 0.179735 -0.178928
v -0.185913 0.178709 -0.178444
v -0.185950 0.179001 -0.172405
v -0.186249 0.180053 -0.172609
v -0.186432 0.181397 -0.172456
v -0.186624 0.178826 -0.170186
v -0.187107 0.180420 -0.170856
v -0.186168 0.178976 -0.171294
v -0.186580 0.180264 -0.171491
v -0.187224 0.182983 -0.171046
v -0.186386 0.264455 -0.179268
v -0.186443 0.264377 -0.178446
v -0.185780 0.270911 -0.180532
v -0.186191 0.270877 -0.179982
v -0.186065 0.280438 -0.179976
v -0.185879 0.264570 -0.180532
v -0.186217 0.264521 -0.179983
v -0.186225 0.256564 -0.179983
v -0.186382 0.256571 -0.179269
v -0.186521 0.261943 -0.172344
v -0.187224 0.246276 -0.171079
v -0.186755 0.248056 -0.171626
v -0.187220 0.263671 -0.171074
v -0.187180 0.275059 -0.171068
v -0.186805 0.279673 -0.171611
v -0.186764 0.269895 -0.171621
v -0.186600 0.276782 -0.172304
v -0.186545 0.270145 -0.172335
v -0.185987 0.294276 -0.178967
v -0.186273 0.293859 -0.179659
v -0.186749 0.293447 -0.178435
v -0.184675 0.295194 -0.180134
v -0.186041 0.293677 -0.179974
v -0.186592 0.279949 -0.173154
v -0.186702 0.284169 -0.172579
v -0.187084 0.283358 -0.171085
v -0.186864 0.286979 -0.171765
v -0.187034 0.287635 -0.171281
v -0.176962 0.178696 -0.178979
v -0.176654 0.179744 -0.178963
v -0.176596 0.181065 -0.179691
v -0.176487 0.181117 -0.178427
v -0.176986 0.179431 -0.180073
v -0.176991 0.181083 -0.180486
v -0.176954 0.182584 -0.180525
v -0.176129 0.182930 -0.172304
v -0.176193 0.181404 -0.172293
v -0.175292 0.181426 -0.171545
v -0.176152 0.178977 -0.171285
v -0.175589 0.180041 -0.171419
v -0.176648 0.179162 -0.172261
v -0.176648 0.180031 -0.173130
v -0.186435 0.182662 -0.178438
v -0.186225 0.182590 -0.179983
v -0.186520 0.182935 -0.172315
v -0.176487 0.182631 -0.179256
v -0.175192 0.182979 -0.171587
v -0.186435 0.256528 -0.178445
v -0.186382 0.182630 -0.179268
v -0.185912 0.256755 -0.180533
v -0.185912 0.182578 -0.180535
v -0.186755 0.182968 -0.171598
v -0.178259 0.268490 -0.181015
v -0.179169 0.271747 -0.181073
v -0.177577 0.270915 -0.180849
v -0.177474 0.256936 -0.180851
v -0.178151 0.257041 -0.181017
v -0.184714 0.256381 -0.181026
v -0.185392 0.256672 -0.180862
v -0.185318 0.264596 -0.180862
v -0.184656 0.276027 -0.180860
v -0.185097 0.270910 -0.180861
v -0.184529 0.268344 -0.181024
v -0.192849 0.185821 -0.115020
v -0.177474 0.182565 -0.180856
v -0.178151 0.182533 -0.181022
v -0.183932 0.219670 -0.181082
v -0.177477 0.178084 -0.178429
v -0.178156 0.177769 -0.178427
v -0.185392 0.178082 -0.178439
v -0.175987 0.179627 -0.145793
v -0.178940 0.178047 -0.171391
v -0.177964 0.178192 -0.170052
v -0.176374 0.178344 -0.168745
v -0.177465 0.178382 -0.166066
v -0.192713 0.178613 -0.162498
v -0.187248 0.178391 -0.167264
v -0.185107 0.178359 -0.166505
v -0.185651 0.178337 -0.168749
v -0.192725 0.178881 -0.158226
v -0.184403 0.179645 -0.180858
v -0.184466 0.180991 -0.181021
v -0.185310 0.179814 -0.180668
v -0.185371 0.181044 -0.180815
v -0.184712 0.182561 -0.181030
v -0.178415 0.180992 -0.181017
v -0.177911 0.178740 -0.180457
v -0.177521 0.180148 -0.180728
v -0.178462 0.179646 -0.180852
v -0.185391 0.182556 -0.180864
v -0.178158 0.177827 -0.179252
v -0.177518 0.178255 -0.179692
v -0.178935 0.177664 -0.178430
v -0.184717 0.177769 -0.178436
v -0.183935 0.177725 -0.179263
v -0.185100 0.177937 -0.179260
v -0.185304 0.178531 -0.180124
v -0.184404 0.178014 -0.179978
v -0.184723 0.178099 -0.172309
v -0.185539 0.178398 -0.171227
v -0.185417 0.178396 -0.172611
v -0.178145 0.178100 -0.172237
v -0.177467 0.178394 -0.172723
v -0.177048 0.178398 -0.171219
v -0.184936 0.284240 -0.180529
v -0.185979 0.284256 -0.179980
v -0.186505 0.284412 -0.179258
v -0.185581 0.276182 -0.180531
v -0.186415 0.276312 -0.179260
v -0.186585 0.280436 -0.178439
v -0.186706 0.285262 -0.178458
v -0.187083 0.290416 -0.171620
v -0.187362 0.289073 -0.171050
v -0.186984 0.292456 -0.173230
v -0.102703 0.289452 -0.170472
v -0.162064 0.297452 -0.170521
v -0.151314 0.301251 -0.170455
v -0.171929 0.302024 -0.178409
v -0.173707 0.292508 -0.178423
v -0.172848 0.301619 -0.179948
v -0.174222 0.301149 -0.180512
v -0.173023 0.289641 -0.171595
v -0.174036 0.288454 -0.172301
v -0.172792 0.295453 -0.172299
v -0.174040 0.282227 -0.171594
v -0.174919 0.282296 -0.172311
v -0.173709 0.292006 -0.173128
v -0.177894 0.289971 -0.180852
v -0.178227 0.285626 -0.180852
v -0.180855 0.283362 -0.181026
v -0.180379 0.288614 -0.180965
v -0.178035 0.281311 -0.180845
v -0.178908 0.278039 -0.181005
v -0.180578 0.278776 -0.181075
v -0.183498 0.277488 -0.181014
v -0.183920 0.280317 -0.180859
v -0.183198 0.284156 -0.180858
v -0.182795 0.287924 -0.180857
v 0.187757 0.290158 -0.117185
v 0.191050 0.287118 -0.117267
v 0.184971 0.275114 -0.112297
v 0.189997 0.271739 -0.112402
v 0.189731 0.277956 -0.112307
v 0.192931 0.272424 -0.112384
v 0.195752 0.267901 -0.112527
v 0.196359 0.269302 -0.112593
v 0.193871 0.273625 -0.112457
v 0.198728 0.270037 -0.113548
v 0.196833 0.274841 -0.113397
v 0.195206 0.274578 -0.112752
v 0.197525 0.269876 -0.112901
v 0.194579 0.279079 -0.113339
v 0.192592 0.278909 -0.112712
v 0.190646 0.285283 -0.113699
v 0.188676 0.286655 -0.113347
v 0.190315 0.283165 -0.112872
v 0.192365 0.282813 -0.113457
v 0.185616 0.288326 -0.113073
v 0.187233 0.284162 -0.112557
v 0.177546 0.291822 -0.112911
v 0.178496 0.287622 -0.112368
v 0.183088 0.285885 -0.112415
v 0.181758 0.290189 -0.112951
v 0.193962 0.283689 -0.117359
v 0.199922 0.270548 -0.117722
v 0.198452 0.275451 -0.117582
v 0.196448 0.279812 -0.117454
v 0.193831 0.288285 -0.165182
v 0.095883 0.285484 -0.170480
v 0.199129 0.275458 -0.169439
v 0.198467 0.275490 -0.170089
v 0.197237 0.280341 -0.170080
v 0.197778 0.280344 -0.169427
v 0.197607 0.275481 -0.170413
v 0.196534 0.280286 -0.170407
v 0.195221 0.284410 -0.170458
v 0.195659 0.284594 -0.170137
v 0.195974 0.284707 -0.169479
v 0.196102 0.278693 -0.170513
v 0.194655 0.284233 -0.170564
v 0.192729 0.290235 -0.171005
v 0.193668 0.287994 -0.170717
v 0.191110 0.292405 -0.170119
v 0.193804 0.288620 -0.169657
v 0.193877 0.288260 -0.170325
v 0.192322 0.291035 -0.170724
v 0.198916 0.264505 -0.113067
v 0.199865 0.264605 -0.113713
v 0.197845 0.264227 -0.112750
v 0.198583 0.258110 -0.112935
v 0.199612 0.258198 -0.113256
v 0.200434 0.258265 -0.113901
v 0.197152 0.262442 -0.112695
v 0.197650 0.250670 -0.113050
v 0.198824 0.250844 -0.113153
v 0.200623 0.250735 -0.114119
v 0.139553 0.263802 -0.170510
v 0.106642 0.274030 -0.170499
v 0.199697 0.255629 -0.170112
v 0.198675 0.255296 -0.170432
v 0.198573 0.263597 -0.170426
v 0.199574 0.263564 -0.170105
v 0.200345 0.263501 -0.169463
v 0.197463 0.259682 -0.170533
v 0.197503 0.234844 -0.170533
v 0.197151 0.270045 -0.170527
v 0.198251 0.270049 -0.170420
v 0.199939 0.269977 -0.169451
v 0.199205 0.270030 -0.170098
v 0.199835 0.250824 -0.113472
v 0.200622 0.231523 -0.114669
v 0.197664 0.196813 -0.114646
v 0.198829 0.212103 -0.114297
v 0.199847 0.199229 -0.114983
v 0.175022 0.252488 -0.170736
v 0.178123 0.262157 -0.171064
v 0.168823 0.251309 -0.170573
v 0.157505 0.250250 -0.170515
v 0.157558 0.272544 -0.170502
v 0.168030 0.284558 -0.170541
v 0.177490 0.278178 -0.171045
v 0.177925 0.270558 -0.171055
v 0.174839 0.270526 -0.170724
v 0.174371 0.280151 -0.170715
v 0.176467 0.287350 -0.171037
v 0.156382 0.294015 -0.170467
v 0.166413 0.301254 -0.170514
v 0.175272 0.295465 -0.171031
v 0.166599 0.302415 -0.165057
v 0.172645 0.301972 -0.165240
v 0.156202 0.297897 -0.116990
v 0.123029 0.298572 -0.123930
v 0.173429 0.292802 -0.112885
v 0.174075 0.288664 -0.112338
v 0.167146 0.293291 -0.112869
v 0.167557 0.289185 -0.112321
v 0.168023 0.283923 -0.112143
v 0.178629 0.282813 -0.112181
v 0.155624 0.289356 -0.112311
v 0.152839 0.284091 -0.112133
v 0.149921 0.278038 -0.112203
v 0.175435 0.277616 -0.112220
v 0.177559 0.258167 -0.112802
v 0.161241 0.236313 -0.113457
v -0.164439 0.210938 -0.114216
v 0.121845 0.206570 -0.114347
v 0.055211 0.278067 -0.112201
v 0.155997 0.293454 -0.112859
v 0.079670 0.293453 -0.112853
v 0.060920 0.289358 -0.112307
v 0.201357 0.184873 -0.133287
v 0.201308 0.183950 -0.152220
v 0.199566 0.179901 -0.169566
v 0.200186 0.180174 -0.169124
v 0.198637 0.179267 -0.169430
v 0.198651 0.180227 -0.170012
v 0.198673 0.181509 -0.170304
v 0.199667 0.181556 -0.170013
v 0.200425 0.181608 -0.169431
v 0.197514 0.179191 -0.169500
v 0.197510 0.180182 -0.170099
v 0.197508 0.181494 -0.170400
v 0.197511 0.183006 -0.170501
v 0.200483 0.183066 -0.169497
v 0.179476 0.178827 -0.170176
v 0.175474 0.179067 -0.169725
v 0.175301 0.180098 -0.170336
v 0.178597 0.180040 -0.170733
v 0.168895 0.179161 -0.169544
v 0.168850 0.180164 -0.170146
v 0.168795 0.181493 -0.170441
v 0.175081 0.181471 -0.170612
v 0.178249 0.181445 -0.170960
v 0.157581 0.180186 -0.170083
v 0.175005 0.183026 -0.170706
v 0.157580 0.181501 -0.170383
v 0.188233 0.273633 -0.181080
v 0.183785 0.267278 -0.181073
v 0.183748 0.206518 -0.181077
v 0.181799 0.300298 -0.180165
v 0.181697 0.300046 -0.180655
v 0.179625 0.301423 -0.180190
v 0.184149 0.298796 -0.180444
v 0.184179 0.298543 -0.180755
v 0.184247 0.298013 -0.180965
v 0.181363 0.299735 -0.180845
v 0.179036 0.301149 -0.180512
v 0.186665 0.296974 -0.180660
v 0.187128 0.296215 -0.180851
v 0.186971 0.296479 -0.172715
v 0.179280 0.287562 -0.173132
v 0.180641 0.276704 -0.173141
v 0.178526 0.291994 -0.173129
v 0.178512 0.292555 -0.178422
v 0.179276 0.288068 -0.178423
v 0.180026 0.282376 -0.173138
v 0.181194 0.264065 -0.173150
v 0.181010 0.270764 -0.173145
v 0.181004 0.271277 -0.178428
v 0.188740 0.177663 -0.178426
v 0.190728 0.178709 -0.178436
v 0.191275 0.268676 -0.173164
v 0.191250 0.256591 -0.178446
v 0.191563 0.293447 -0.178435
v 0.197546 0.179142 -0.153907
v 0.197567 0.179544 -0.147187
v 0.180957 0.292841 -0.113983
v 0.176974 0.294411 -0.113948
v 0.184716 0.290861 -0.114069
v 0.184308 0.292194 -0.115444
v 0.180555 0.294254 -0.115392
v 0.176686 0.295793 -0.115362
v 0.190840 0.286137 -0.114400
v 0.187975 0.288688 -0.114248
v 0.190988 0.286791 -0.115624
v 0.187801 0.289708 -0.115531
v 0.184187 0.292747 -0.117111
v 0.176591 0.296370 -0.117037
v 0.180421 0.294841 -0.117064
v 0.187684 0.295146 -0.168550
v 0.190902 0.292086 -0.168029
v 0.184041 0.297536 -0.166509
v 0.176481 0.301741 -0.170088
v 0.176466 0.301438 -0.168501
v 0.180735 0.300072 -0.171114
v 0.180315 0.299836 -0.168237
v 0.180282 0.299468 -0.164751
v 0.187616 0.294776 -0.164945
v 0.196321 0.284391 -0.165227
v 0.196282 0.284548 -0.166902
v 0.199730 0.275243 -0.166939
v 0.198270 0.280160 -0.166915
v 0.198105 0.280278 -0.168337
v 0.199528 0.275371 -0.168354
v 0.196174 0.284673 -0.168358
v 0.193802 0.288624 -0.168453
v 0.196265 0.279608 -0.115780
v 0.198291 0.275264 -0.115900
v 0.199806 0.270367 -0.116045
v 0.193820 0.283438 -0.115698
v 0.193412 0.283024 -0.114405
v 0.195723 0.279338 -0.114390
v 0.199448 0.270201 -0.114631
v 0.197807 0.275066 -0.114481
v 0.201043 0.263263 -0.166992
v 0.200605 0.269743 -0.166965
v 0.200809 0.263397 -0.168391
v 0.200382 0.269878 -0.168372
v 0.201394 0.251090 -0.118178
v 0.201247 0.258662 -0.118003
v 0.201168 0.258506 -0.116373
v 0.200714 0.264880 -0.116199
v 0.200433 0.264732 -0.114792
v 0.200925 0.258371 -0.114974
v 0.201089 0.250830 -0.115185
v 0.172774 0.297287 -0.117013
v 0.166727 0.297746 -0.117005
v 0.166770 0.297177 -0.115327
v 0.172842 0.296716 -0.115341
v 0.156163 0.297330 -0.115317
v 0.166897 0.295824 -0.113911
v 0.173039 0.295353 -0.113925
v 0.156107 0.302572 -0.165091
v 0.166604 0.302553 -0.166787
v 0.172557 0.302296 -0.169605
v 0.172655 0.302262 -0.168389
v 0.166597 0.302525 -0.169408
v 0.166610 0.302608 -0.168268
v 0.156069 0.302601 -0.169337
v 0.156060 0.302723 -0.168223
v 0.055335 0.297897 -0.116982
v 0.079656 0.297330 -0.115310
v 0.079661 0.295980 -0.113894
v 0.156034 0.295980 -0.113899
v -0.010764 0.302570 -0.165060
v 0.156058 0.302697 -0.166769
v 0.112570 0.302600 -0.169331
v 0.112570 0.302722 -0.168217
v -0.012205 0.302600 -0.169329
v 0.201188 0.255336 -0.167045
v 0.201272 0.183271 -0.165662
v 0.200480 0.221428 -0.169494
v 0.200949 0.255436 -0.168423
v 0.200478 0.255506 -0.169480
v 0.201244 0.184306 -0.118399
v 0.201016 0.183152 -0.118479
v 0.200561 0.182267 -0.118539
v 0.200626 0.189439 -0.115878
v 0.200593 0.184689 -0.116109
v 0.201019 0.184405 -0.117121
v 0.200326 0.182631 -0.117105
v 0.200811 0.183328 -0.117286
v 0.199709 0.178814 -0.165690
v 0.198682 0.178512 -0.167190
v 0.199675 0.178812 -0.167161
v 0.200431 0.179408 -0.167141
v 0.197525 0.178408 -0.165676
v 0.197517 0.178412 -0.167198
v 0.197514 0.178637 -0.168501
v 0.198655 0.178730 -0.168463
v 0.200527 0.179957 -0.168330
v 0.199580 0.179011 -0.168347
v 0.035829 0.181385 -0.118520
v 0.167655 0.181742 -0.117205
v 0.031676 0.181742 -0.117205
v 0.197644 0.181385 -0.118519
v 0.197659 0.182349 -0.116180
v 0.151515 0.182350 -0.116179
v 0.168849 0.178407 -0.167192
v 0.178511 0.178373 -0.167212
v 0.168881 0.178617 -0.168521
v 0.175409 0.178555 -0.168628
v 0.197649 0.181741 -0.117203
v 0.190912 0.291733 -0.165091
v 0.176451 0.301135 -0.166101
v 0.198328 0.280007 -0.165286
v 0.199801 0.275083 -0.165302
v 0.201124 0.263116 -0.165377
v 0.200682 0.269582 -0.165359
v 0.200805 0.265052 -0.117855
v 0.201335 0.253083 -0.140637
v 0.156098 0.301855 -0.157708
v 0.012469 0.301047 -0.149399
v -0.020962 0.302012 -0.159328
v 0.201271 0.255275 -0.165430
v 0.201317 0.184216 -0.119946
v 0.201085 0.183018 -0.120078
v 0.200620 0.182092 -0.120258
v 0.199728 0.179331 -0.157425
v 0.197536 0.178914 -0.157683
v 0.198692 0.178508 -0.165707
v 0.200486 0.179432 -0.165753
v 0.197619 0.180691 -0.128006
v 0.199845 0.186024 -0.115397
v 0.198831 0.185846 -0.115116
v 0.199431 0.184472 -0.115390
v 0.198797 0.183322 -0.115624
v 0.200064 0.183411 -0.116054
v 0.199202 0.182456 -0.116301
v 0.176055 0.185852 -0.115015
v 0.150861 0.184487 -0.115179
v 0.111385 0.187240 -0.114956
v 0.016318 0.183296 -0.115536
v 0.200559 0.180938 -0.139900
v 0.200954 0.180438 -0.165743
v 0.199705 0.183045 -0.170099
v 0.198681 0.183008 -0.170401
v 0.198680 0.216082 -0.170419
v 0.168781 0.183029 -0.170540
v 0.178132 0.182998 -0.171036
v 0.157580 0.192694 -0.170490
v 0.157580 0.187393 -0.170486
v 0.157580 0.204403 -0.170496
v 0.189267 0.178617 -0.180527
v 0.181776 0.178697 -0.178979
v 0.191255 0.182906 -0.173145
v 0.191250 0.182656 -0.178441
v 0.200955 0.183113 -0.168486
v 0.201021 0.181635 -0.167994
v 0.201194 0.181766 -0.165686
v 0.200886 0.180396 -0.167158
v 0.201090 0.185797 -0.117008
v 0.201322 0.185726 -0.118308
v 0.201394 0.185572 -0.119812
v 0.198829 0.189982 -0.114956
v -0.152905 0.194330 -0.114717
v 0.181657 0.194490 -0.114712
v 0.164945 0.188619 -0.114901
v 0.183691 0.189369 -0.114874
v 0.183748 0.182544 -0.181078
v 0.201190 0.183181 -0.167185
v 0.199697 0.234133 -0.170116
v 0.178133 0.227938 -0.171058
v 0.157579 0.228158 -0.170509
v 0.201090 0.209408 -0.116330
v 0.201320 0.250948 -0.116570
v 0.186631 0.297265 -0.180171
v 0.188742 0.295748 -0.180199
v 0.184160 0.298932 -0.179561
v 0.186981 0.297074 -0.179026
v 0.189316 0.295455 -0.179099
v 0.181268 0.300672 -0.178936
v 0.178909 0.301978 -0.178973
v 0.178599 0.301348 -0.171740
v 0.184058 0.297905 -0.169749
v 0.181280 0.300061 -0.172671
v 0.189999 0.293899 -0.171270
v 0.187363 0.295891 -0.171190
v 0.189500 0.294705 -0.172608
v 0.184134 0.298297 -0.172446
v 0.178887 0.301431 -0.173133
v 0.180021 0.282892 -0.178424
v 0.180635 0.277220 -0.178426
v 0.179464 0.288015 -0.179250
v 0.180164 0.282878 -0.179251
v 0.180733 0.277254 -0.179252
v 0.178726 0.292468 -0.179249
v 0.180042 0.294923 -0.180518
v 0.181097 0.287512 -0.180513
v 0.179354 0.292125 -0.179966
v 0.180028 0.287683 -0.179967
v 0.181642 0.276667 -0.180527
v 0.181027 0.277182 -0.179968
v 0.180597 0.282665 -0.179967
v 0.181462 0.282154 -0.180519
v 0.176882 0.301932 -0.173120
v 0.176642 0.301859 -0.172282
v 0.177444 0.301922 -0.172534
v 0.174325 0.301304 -0.171020
v 0.174448 0.301791 -0.170938
v 0.175920 0.301812 -0.171530
v 0.176551 0.301940 -0.171394
v 0.174994 0.302018 -0.170692
v 0.181250 0.256565 -0.178431
v 0.181188 0.264561 -0.178430
v 0.181244 0.264632 -0.179255
v 0.181074 0.271338 -0.179254
v 0.181285 0.271351 -0.179969
v 0.181753 0.264708 -0.180520
v 0.181414 0.264686 -0.179970
v 0.181457 0.256730 -0.179971
v 0.181768 0.256784 -0.180521
v 0.180883 0.263975 -0.172325
v 0.180702 0.270681 -0.172321
v 0.180339 0.276625 -0.172315
v 0.180944 0.256130 -0.172329
v 0.180007 0.256129 -0.171614
v 0.179949 0.263907 -0.171610
v 0.179431 0.276555 -0.171600
v 0.179777 0.270612 -0.171605
v 0.181301 0.256657 -0.179257
v 0.181301 0.182630 -0.179256
v 0.181768 0.182573 -0.180525
v 0.181457 0.182605 -0.179974
v 0.181255 0.256157 -0.173158
v 0.180944 0.182971 -0.172306
v 0.180007 0.227963 -0.171609
v 0.188749 0.178002 -0.179980
v 0.188749 0.177725 -0.179263
v 0.191168 0.181083 -0.179121
v 0.190691 0.178746 -0.179233
v 0.191037 0.179736 -0.178924
v 0.190762 0.179852 -0.180147
v 0.190382 0.178935 -0.180175
v 0.190816 0.181021 -0.180368
v 0.190735 0.178988 -0.173140
v 0.191210 0.181398 -0.172613
v 0.191064 0.180053 -0.172606
v 0.191334 0.182934 -0.172315
v 0.192040 0.182985 -0.171046
v 0.191570 0.182957 -0.171597
v 0.191921 0.180422 -0.170856
v 0.191438 0.178826 -0.170186
v 0.190880 0.179031 -0.171680
v 0.191395 0.180264 -0.171491
v 0.191265 0.268074 -0.178466
v 0.191349 0.277894 -0.178491
v 0.191230 0.276315 -0.179259
v 0.191199 0.264309 -0.179270
v 0.190727 0.256755 -0.180533
v 0.191040 0.256561 -0.179983
v 0.190694 0.264570 -0.180532
v 0.191031 0.264521 -0.179983
v 0.190880 0.280434 -0.179976
v 0.191005 0.270877 -0.179982
v 0.190595 0.270911 -0.180532
v 0.191256 0.256579 -0.173158
v 0.191393 0.275556 -0.172327
v 0.191995 0.275101 -0.171067
v 0.192034 0.263671 -0.171075
v 0.191575 0.269334 -0.171622
v 0.191332 0.293666 -0.179256
v 0.190802 0.294276 -0.178965
v 0.190424 0.294445 -0.179929
v 0.191356 0.277552 -0.173199
v 0.191730 0.290641 -0.172565
v 0.191493 0.283282 -0.172595
v 0.191804 0.288520 -0.171502
v 0.191691 0.286247 -0.171672
v 0.191620 0.279669 -0.171610
v 0.191895 0.284290 -0.171082
v 0.181463 0.179741 -0.178917
v 0.181302 0.181116 -0.178427
v 0.181805 0.181083 -0.180486
v 0.181411 0.181067 -0.179691
v 0.181801 0.179434 -0.180074
v 0.181255 0.182901 -0.173132
v 0.181307 0.181373 -0.173134
v 0.181008 0.181404 -0.172293
v 0.181775 0.178992 -0.173130
v 0.181464 0.180030 -0.173131
v 0.181574 0.179010 -0.172228
v 0.181199 0.180053 -0.172262
v 0.180403 0.180041 -0.171419
v 0.180966 0.178977 -0.171285
v 0.180106 0.181426 -0.171545
v 0.191197 0.182630 -0.179268
v 0.191040 0.182590 -0.179983
v 0.181250 0.182667 -0.178430
v 0.180006 0.182979 -0.171587
v 0.190727 0.182578 -0.180535
v 0.191335 0.261456 -0.172348
v 0.192040 0.244210 -0.171079
v 0.191569 0.227907 -0.171622
v 0.183073 0.268466 -0.181015
v 0.182966 0.257044 -0.181017
v 0.182287 0.261355 -0.180850
v 0.182399 0.272523 -0.180843
v 0.188754 0.254068 -0.181080
v 0.189343 0.268349 -0.181024
v 0.189528 0.256416 -0.181026
v 0.188312 0.277488 -0.181014
v 0.189911 0.270910 -0.180861
v 0.189470 0.276027 -0.180860
v 0.190132 0.264596 -0.180862
v 0.197653 0.183294 -0.115536
v 0.197649 0.184481 -0.115181
v 0.182966 0.182533 -0.181022
v 0.182289 0.182568 -0.180856
v 0.190206 0.256733 -0.180862
v 0.190205 0.182568 -0.180865
v 0.183752 0.177664 -0.178430
v 0.182973 0.178099 -0.172295
v 0.190206 0.178082 -0.178441
v 0.197594 0.180151 -0.136973
v 0.197607 0.180461 -0.131797
v 0.197642 0.181197 -0.120034
v 0.182826 0.178311 -0.167227
v 0.180116 0.178403 -0.165743
v 0.181091 0.178359 -0.168699
v 0.189739 0.178370 -0.166264
v 0.189594 0.178189 -0.170044
v 0.190530 0.178347 -0.168731
v 0.190304 0.178384 -0.171328
v 0.197531 0.178657 -0.161808
v 0.184747 0.204639 -0.114406
v 0.189222 0.179646 -0.180857
v 0.189400 0.180996 -0.180998
v 0.189527 0.182561 -0.181029
v 0.190159 0.180145 -0.180736
v 0.183240 0.180993 -0.181019
v 0.183752 0.178605 -0.180527
v 0.183284 0.179645 -0.180853
v 0.182725 0.178740 -0.180457
v 0.182335 0.180148 -0.180728
v 0.188743 0.182537 -0.181084
v 0.183236 0.177736 -0.179259
v 0.183288 0.178011 -0.179973
v 0.182971 0.177769 -0.178429
v 0.182292 0.178084 -0.178429
v 0.182333 0.178256 -0.179693
v 0.189914 0.177937 -0.179260
v 0.189526 0.177770 -0.178437
v 0.189938 0.178240 -0.179937
v 0.188759 0.178095 -0.170621
v 0.189546 0.178102 -0.172213
v 0.190214 0.178366 -0.173139
v 0.183758 0.178036 -0.171643
v 0.182778 0.178192 -0.170051
v 0.181862 0.178398 -0.171219
v 0.182189 0.178398 -0.172212
v 0.182295 0.178368 -0.173123
v 0.191522 0.285289 -0.178460
v 0.189522 0.289539 -0.180533
v 0.190787 0.287373 -0.179979
v 0.191572 0.293165 -0.179223
v 0.191320 0.284424 -0.179258
v 0.190794 0.284256 -0.179980
v 0.189750 0.284240 -0.180529
v 0.190396 0.276176 -0.180531
v 0.192038 0.288642 -0.171093
v 0.191951 0.290546 -0.171583
v 0.191802 0.292395 -0.172721
v 0.192383 0.289434 -0.171052
v 0.092601 0.301252 -0.170447
v 0.064761 0.301249 -0.170446
v 0.172980 0.293235 -0.170698
v 0.176748 0.301510 -0.173113
v 0.177662 0.301620 -0.179948
v 0.176966 0.301970 -0.179218
v 0.176743 0.302025 -0.178410
v 0.177441 0.291886 -0.171585
v 0.176496 0.301422 -0.172268
v 0.178254 0.291933 -0.172302
v 0.179001 0.287473 -0.172306
v 0.178157 0.287403 -0.171589
v 0.179734 0.282296 -0.172311
v 0.178855 0.282226 -0.171594
v 0.182708 0.289972 -0.180852
v 0.185193 0.288614 -0.180965
v 0.185670 0.283362 -0.181026
v 0.183041 0.285626 -0.180852
v 0.187609 0.287924 -0.180857
v 0.188012 0.284156 -0.180858
v 0.188735 0.280317 -0.180859
v 0.185104 0.278115 -0.181076
v 0.183723 0.278039 -0.181005
v 0.182905 0.281245 -0.180851
v -0.187760 0.286791 -0.170727
v -0.188154 0.283880 -0.170577
v -0.187277 0.286304 -0.170920
v -0.187473 0.283528 -0.170776
v -0.187672 0.279818 -0.170731
v -0.188374 0.279889 -0.170566
v -0.189181 0.279980 -0.170512
v -0.187006 0.243033 -0.113269
v -0.192656 0.257943 -0.112831
v -0.185297 0.271024 -0.112424
v -0.188753 0.274135 -0.170575
v -0.189019 0.259110 -0.170586
v -0.189996 0.271057 -0.170523
v -0.187942 0.271303 -0.170739
v -0.188006 0.251285 -0.170751
v -0.186678 0.198259 -0.114601
v -0.189368 0.181498 -0.170408
v -0.187798 0.179066 -0.169736
v -0.187915 0.180333 -0.170450
v -0.189399 0.179181 -0.169504
v -0.189438 0.180177 -0.170109
v -0.184712 0.289551 -0.180532
v -0.184653 0.294554 -0.180521
v -0.192782 0.180153 -0.136952
v -0.194971 0.180533 -0.136973
v -0.193895 0.179067 -0.156852
v -0.193978 0.181819 -0.117240
v -0.194613 0.181576 -0.118517
v -0.195024 0.181538 -0.120274
v -0.194005 0.181289 -0.120026
v -0.189425 0.178635 -0.168520
v -0.187784 0.178554 -0.168639
v -0.192710 0.178408 -0.165675
v -0.193983 0.180807 -0.127605
v -0.190196 0.183012 -0.170498
v -0.189022 0.183010 -0.170552
v -0.188007 0.183001 -0.170717
v -0.190202 0.248032 -0.170533
v -0.189022 0.227847 -0.170579
v -0.190201 0.215241 -0.170518
v -0.171690 0.301428 -0.172287
v -0.186758 0.293163 -0.179222
v -0.185965 0.288088 -0.179987
v -0.187360 0.291511 -0.171585
v -0.186766 0.292872 -0.172739
v -0.187038 0.292200 -0.172484
v -0.186611 0.292614 -0.171418
v -0.186037 0.293634 -0.172674
v -0.120921 0.301248 -0.170449
v -0.150978 0.302282 -0.170004
v 0.007371 0.302281 -0.169999
v -0.049614 0.301250 -0.170446
v -0.167095 0.301274 -0.170686
v -0.167140 0.301797 -0.170584
v -0.161684 0.301811 -0.170405
v -0.161708 0.301256 -0.170515
v -0.167433 0.302139 -0.170280
v -0.161728 0.302247 -0.170078
v -0.150819 0.301815 -0.170340
v -0.172062 0.302447 -0.178418
v -0.171934 0.301511 -0.173118
v -0.173221 0.302101 -0.179932
v -0.172420 0.302486 -0.179237
v -0.172691 0.302484 -0.178415
v 0.194658 0.272696 -0.170520
v 0.193512 0.275303 -0.170572
v 0.193476 0.280070 -0.170523
v 0.192968 0.283881 -0.170577
v 0.192487 0.279819 -0.170731
v 0.192654 0.275278 -0.170736
v 0.192121 0.285573 -0.170869
v 0.192575 0.286790 -0.170727
v 0.189281 0.238142 -0.113412
v 0.195015 0.257100 -0.170532
v 0.193837 0.246709 -0.170587
v 0.192765 0.268787 -0.170745
v 0.193785 0.267009 -0.170579
v 0.194028 0.179170 -0.169525
v 0.194178 0.180173 -0.170117
v 0.194183 0.181498 -0.170408
v 0.192613 0.179066 -0.169736
v 0.192729 0.180334 -0.170451
v 0.192820 0.182990 -0.170716
v 0.193836 0.183010 -0.170552
v 0.195011 0.183011 -0.170498
v 0.189449 0.294796 -0.180520
v 0.199792 0.180686 -0.134383
v 0.198783 0.180555 -0.131802
v 0.198713 0.179119 -0.155971
v 0.198821 0.181271 -0.120203
v 0.199840 0.181547 -0.120199
v 0.199429 0.181576 -0.118517
v 0.199454 0.181943 -0.117282
v 0.192077 0.178389 -0.167250
v 0.193032 0.178589 -0.168514
v 0.197633 0.180985 -0.123302
v 0.197654 0.185855 -0.115016
v 0.197639 0.189732 -0.114864
v 0.192820 0.207393 -0.170731
v 0.192820 0.252038 -0.170751
v 0.195008 0.224815 -0.170523
v 0.175758 0.301353 -0.171560
v 0.191793 0.292962 -0.178424
v 0.190879 0.293656 -0.179957
v 0.191580 0.292872 -0.172734
v 0.190853 0.293632 -0.172671
v 0.191425 0.292614 -0.171418
v 0.192174 0.291513 -0.171585
v -0.031221 0.301815 -0.170334
v 0.156053 0.302282 -0.170006
v 0.112574 0.302281 -0.170000
v 0.096085 0.301815 -0.170335
v 0.155930 0.301250 -0.170454
v 0.155888 0.301816 -0.170341
v 0.166499 0.301811 -0.170405
v 0.166542 0.302247 -0.170078
v 0.172247 0.302139 -0.170280
v 0.171954 0.301797 -0.170584
v 0.171910 0.301274 -0.170686
v 0.176877 0.302447 -0.178420
v 0.177507 0.302484 -0.178414
v 0.177235 0.302486 -0.179237
v 0.178035 0.302101 -0.179932
f 188 298 301
f 1 188 199
f 199 198 1
f 199 188 301
f 300 2 197
f 1 198 197
f 197 2 1
f 2 300 299
f 146 97 147
f 147 97 93
f 3 4 147
f 147 93 3
f 5 6 7
f 7 8 5
f 9 10 7
f 7 6 9
f 3 93 7
f 7 10 3
f 93 8 7
f 11 12 13
f 13 14 11
f 15 16 13
f 13 12 15
f 3 10 13
f 13 16 3
f 9 14 13
f 13 10 9
f 17 18 19
f 19 20 17
f 21 22 19
f 19 18 21
f 3 16 19
f 19 22 3
f 15 20 19
f 19 16 15
f 24 1159 23
f 3 22 23
f 21 24 23
f 23 22 21
f 147 4 1159
f 3 23 1159
f 1159 4 3
f 299 300 25
f 25 304 299
f 26 304 25
f 302 27 210
f 566 61 28
f 566 28 29
f 649 61 566
f 566 620 649
f 30 31 32
f 32 33 30
f 34 35 32
f 32 31 34
f 36 37 32
f 32 35 36
f 38 33 32
f 32 37 38
f 39 40 41
f 41 42 39
f 43 44 41
f 41 40 43
f 36 35 41
f 41 44 36
f 34 42 41
f 41 35 34
f 564 1150 45
f 45 43 564
f 1151 46 45
f 45 1150 1151
f 36 44 45
f 45 46 36
f 45 44 43
f 1162 47 46
f 46 1156 1162
f 38 37 46
f 46 47 38
f 46 37 36
f 1151 1156 46
f 17 48 49
f 49 18 17
f 50 51 49
f 49 48 50
f 52 53 49
f 49 51 52
f 21 18 49
f 49 53 21
f 52 51 54
f 54 56 52
f 50 55 54
f 54 51 50
f 52 56 57
f 57 1158 52
f 58 1159 24
f 21 53 58
f 58 24 21
f 52 1158 58
f 58 53 52
f 1158 1159 58
f 210 27 59
f 59 307 210
f 306 307 59
f 59 305 306
f 306 305 116
f 81 648 60
f 81 28 61
f 61 648 81
f 64 65 63
f 63 62 64
f 66 67 63
f 63 65 66
f 30 33 68
f 68 69 30
f 38 70 68
f 68 33 38
f 66 65 68
f 68 70 66
f 64 69 68
f 68 65 64
f 1162 71 47
f 66 70 47
f 47 71 66
f 47 70 38
f 71 1187 363
f 71 363 67
f 71 67 66
f 1162 1187 71
f 72 54 55
f 73 355 72
f 72 55 73
f 74 56 72
f 72 355 74
f 56 54 72
f 73 75 355
f 1157 57 76
f 76 57 56
f 76 56 74
f 78 365 77
f 364 365 78
f 78 79 364
f 83 84 78
f 78 80 83
f 88 79 78
f 78 84 88
f 77 80 78
f 28 81 79
f 28 79 88
f 364 79 60
f 60 82 364
f 79 81 60
f 85 87 84
f 84 83 85
f 84 87 88
f 567 88 87
f 85 86 87
f 89 88 567
f 88 89 28
f 28 89 29
f 308 309 231
f 301 298 231
f 231 309 301
f 5 8 91
f 91 92 5
f 91 8 93
f 94 95 91
f 91 93 94
f 96 92 91
f 91 95 96
f 94 93 97
f 98 107 99
f 94 97 98
f 98 99 94
f 98 97 146
f 100 101 102
f 96 95 102
f 102 101 96
f 94 99 102
f 102 95 94
f 103 98 146
f 146 104 696
f 146 696 103
f 696 695 103
f 105 107 98
f 103 106 105
f 105 98 103
f 106 109 105
f 105 109 107
f 108 112 109
f 109 112 107
f 90 110 874
f 110 90 310
f 100 102 111
f 111 115 100
f 99 114 111
f 111 102 99
f 107 114 99
f 113 114 112
f 112 108 113
f 114 107 112
f 111 114 113
f 117 333 116
f 120 121 119
f 119 118 120
f 122 123 119
f 119 121 122
f 119 123 124
f 122 121 125
f 125 126 122
f 120 334 125
f 125 121 120
f 1166 127 335
f 122 126 335
f 335 127 122
f 1169 128 129
f 129 1170 1169
f 124 123 129
f 129 128 124
f 122 127 129
f 129 123 122
f 1166 1170 129
f 129 127 1166
f 130 131 132
f 132 133 130
f 134 135 132
f 132 131 134
f 136 137 132
f 132 135 136
f 138 133 132
f 132 137 138
f 136 135 336
f 336 139 136
f 134 337 336
f 336 135 134
f 136 139 140
f 140 143 136
f 138 137 141
f 141 142 138
f 136 143 141
f 141 137 136
f 143 140 144
f 727 143 144
f 142 141 725
f 725 145 142
f 725 141 143
f 725 143 727
f 1157 104 147
f 147 104 146
f 148 149 150
f 505 149 148
f 150 149 154
f 154 518 150
f 154 360 518
f 155 378 379
f 572 157 155
f 155 379 572
f 158 156 155
f 155 157 158
f 371 378 155
f 155 156 371
f 159 1172 160
f 473 161 162
f 371 156 162
f 162 161 371
f 158 159 162
f 162 156 158
f 160 473 162
f 162 159 160
f 163 386 372
f 372 386 374
f 374 383 377
f 384 375 377
f 377 383 384
f 418 164 165
f 165 166 418
f 168 167 165
f 167 166 165
f 168 570 578
f 578 167 168
f 570 169 578
f 432 429 170
f 409 432 170
f 418 419 417
f 417 164 418
f 417 419 409
f 429 432 347
f 172 348 436
f 443 445 442
f 442 445 436
f 174 173 176
f 174 176 453
f 174 453 175
f 348 172 177
f 175 453 177
f 163 470 1197
f 472 1194 1197
f 1197 470 472
f 178 1194 472
f 1194 178 565
f 180 756 757
f 1076 1077 179
f 757 1076 1173
f 1173 1076 179
f 180 757 522
f 1173 181 522
f 5 182 183
f 183 6 5
f 184 185 183
f 183 182 184
f 186 187 183
f 183 185 186
f 9 6 183
f 183 187 9
f 186 185 188
f 188 1 186
f 184 298 188
f 188 185 184
f 189 190 2
f 2 299 189
f 186 1 2
f 2 190 186
f 11 14 191
f 191 192 11
f 9 187 191
f 191 14 9
f 186 190 191
f 191 187 186
f 189 192 191
f 191 190 189
f 39 193 196
f 196 194 39
f 196 193 195
f 198 382 196
f 382 194 196
f 198 196 197
f 195 300 197
f 197 196 195
f 199 301 202
f 201 202 200
f 198 199 201
f 201 382 198
f 201 199 202
f 25 300 195
f 203 26 25
f 39 42 204
f 204 193 39
f 34 205 204
f 204 42 34
f 203 25 204
f 204 205 203
f 195 193 204
f 204 25 195
f 30 206 207
f 207 31 30
f 208 209 207
f 207 206 208
f 203 205 207
f 207 209 203
f 34 31 207
f 207 205 34
f 203 209 302
f 302 26 203
f 208 27 302
f 302 209 208
f 211 212 303
f 303 210 211
f 213 214 303
f 303 212 213
f 17 20 215
f 215 216 17
f 15 217 215
f 215 20 15
f 213 212 215
f 215 217 213
f 211 216 215
f 215 212 211
f 11 192 218
f 218 12 11
f 189 219 218
f 218 192 189
f 213 217 218
f 218 219 213
f 15 12 218
f 218 217 15
f 213 219 304
f 304 214 213
f 189 299 304
f 304 219 189
f 208 220 59
f 59 27 208
f 221 305 59
f 59 220 221
f 30 69 222
f 222 206 30
f 64 223 222
f 222 69 64
f 221 220 222
f 222 223 221
f 208 206 222
f 222 220 208
f 221 223 224
f 224 253 221
f 64 62 224
f 224 223 64
f 221 253 225
f 225 305 221
f 227 306 226
f 226 370 227
f 50 228 369
f 369 55 50
f 227 370 369
f 369 228 227
f 17 216 229
f 229 48 17
f 211 230 229
f 229 216 211
f 227 228 229
f 229 230 227
f 50 48 229
f 229 228 50
f 227 230 307
f 307 306 227
f 211 210 307
f 307 230 211
f 184 232 231
f 231 298 184
f 233 234 231
f 231 232 233
f 5 92 235
f 235 182 5
f 96 236 235
f 235 92 96
f 233 232 235
f 235 236 233
f 184 182 235
f 235 232 184
f 237 101 100
f 233 236 237
f 237 238 233
f 96 101 237
f 237 236 96
f 233 238 311
f 311 234 233
f 239 308 252
f 252 251 239
f 242 243 241
f 241 240 242
f 239 251 241
f 241 243 239
f 200 202 244
f 244 245 200
f 202 309 244
f 239 243 244
f 244 309 239
f 242 245 244
f 244 243 242
f 309 308 239
f 202 301 309
f 311 238 247
f 100 115 246
f 246 237 100
f 247 238 246
f 238 237 246
f 248 250 241
f 241 251 248
f 830 240 241
f 241 250 830
f 249 826 252
f 248 251 252
f 252 826 248
f 254 258 225
f 225 253 254
f 255 224 62
f 255 62 256
f 254 253 255
f 253 224 255
f 257 256 334
f 254 255 257
f 257 255 256
f 117 225 258
f 260 261 313
f 313 259 260
f 261 314 313
f 264 265 262
f 262 265 261
f 260 263 262
f 262 261 260
f 261 265 266
f 266 353 261
f 264 267 266
f 266 265 264
f 261 353 268
f 268 314 261
f 271 272 270
f 270 269 271
f 273 274 270
f 270 272 273
f 118 119 275
f 275 351 118
f 124 276 275
f 275 119 124
f 273 272 275
f 275 276 273
f 271 351 275
f 275 272 271
f 277 128 1169
f 273 276 277
f 277 278 273
f 124 128 277
f 277 276 124
f 273 278 1182
f 1182 274 273
f 854 281 279
f 279 1078 854
f 288 856 280
f 854 856 288
f 288 281 854
f 283 284 285
f 142 145 285
f 285 284 142
f 288 280 287
f 281 288 289
f 287 153 289
f 289 288 287
f 290 291 292
f 130 133 293
f 138 294 293
f 293 133 138
f 292 291 293
f 293 294 292
f 283 295 284
f 292 294 284
f 284 295 292
f 138 142 284
f 284 294 138
f 296 286 282
f 292 295 296
f 296 290 292
f 283 286 296
f 296 295 283
f 435 523 297
f 210 303 302
f 302 303 214
f 302 214 26
f 26 214 304
f 305 225 116
f 306 116 226
f 231 234 308
f 234 311 310
f 308 234 310
f 310 90 308
f 249 252 90
f 90 252 308
f 311 822 310
f 310 683 110
f 875 826 249
f 249 90 874
f 249 874 875
f 116 225 117
f 312 259 313
f 268 333 314
f 269 270 317
f 317 318 269
f 274 1175 317
f 317 270 274
f 527 531 1175
f 274 1182 527
f 527 1175 274
f 531 180 1175
f 179 1077 315
f 1245 1078 279
f 320 881 531
f 531 881 180
f 296 282 527
f 527 290 296
f 320 531 527
f 527 282 320
f 881 756 180
f 264 323 322
f 322 267 264
f 324 325 322
f 322 323 324
f 263 326 327
f 327 262 263
f 328 329 327
f 327 326 328
f 324 323 327
f 327 329 324
f 264 262 327
f 327 323 264
f 324 329 151
f 151 152 324
f 328 153 151
f 151 329 328
f 515 342 325
f 324 152 515
f 515 325 324
f 330 892 341
f 893 357 341
f 287 894 331
f 331 153 287
f 331 894 892
f 331 892 330
f 287 280 894
f 312 313 354
f 314 332 354
f 354 313 314
f 318 312 354
f 333 117 332
f 333 332 314
f 362 126 125
f 335 126 362
f 340 338 139
f 139 339 340
f 338 140 139
f 904 902 340
f 340 339 904
f 903 338 340
f 340 902 903
f 338 903 144
f 338 144 140
f 356 104 1165
f 344 532 540
f 540 343 344
f 540 532 537
f 532 533 537
f 537 533 359
f 533 360 359
f 480 481 493
f 493 481 483
f 493 483 346
f 345 480 493
f 346 483 429
f 429 347 346
f 120 349 257
f 257 334 120
f 350 254 257
f 257 349 350
f 271 350 351
f 350 349 351
f 120 118 351
f 351 349 120
f 352 332 350
f 271 269 352
f 352 350 271
f 350 332 258
f 258 254 350
f 332 117 258
f 266 267 75
f 353 266 368
f 368 266 75
f 269 318 354
f 354 352 269
f 332 352 354
f 74 355 322
f 322 325 74
f 75 267 322
f 322 355 75
f 74 325 342
f 74 342 76
f 356 342 357
f 358 356 357
f 697 696 917
f 696 104 917
f 917 104 356
f 917 356 358
f 360 154 359
f 334 256 125
f 62 63 361
f 67 362 361
f 361 63 67
f 362 125 361
f 256 62 361
f 361 125 256
f 363 362 67
f 363 1189 335
f 363 335 362
f 366 365 336
f 336 337 366
f 364 139 336
f 336 365 364
f 365 366 77
f 364 82 367
f 364 367 339
f 339 139 364
f 104 1157 1165
f 73 369 368
f 368 75 73
f 368 369 370
f 368 370 353
f 73 55 369
f 226 268 370
f 353 370 268
f 116 333 268
f 268 226 116
f 473 373 161
f 373 372 161
f 374 371 161
f 161 372 374
f 372 373 163
f 377 375 376
f 374 377 378
f 378 371 374
f 376 379 378
f 378 377 376
f 200 380 381
f 381 201 200
f 384 383 381
f 381 380 384
f 385 382 381
f 381 383 385
f 382 201 381
f 374 385 383
f 386 163 387
f 386 385 374
f 194 387 39
f 385 386 194
f 194 382 385
f 194 386 387
f 388 389 165
f 165 164 388
f 390 168 165
f 165 389 390
f 415 391 392
f 392 393 415
f 394 395 392
f 392 391 394
f 390 389 392
f 392 395 390
f 388 393 392
f 392 389 388
f 397 394 396
f 398 399 397
f 390 395 397
f 397 399 390
f 397 395 394
f 390 399 570
f 570 168 390
f 570 399 398
f 400 401 1209
f 200 402 403
f 403 380 200
f 404 405 403
f 403 402 404
f 401 400 403
f 403 405 401
f 384 380 403
f 403 400 384
f 401 405 406
f 406 1190 401
f 404 407 406
f 406 405 404
f 1209 401 1210
f 401 1190 1210
f 170 429 431
f 408 409 170
f 170 431 408
f 486 410 411
f 412 413 411
f 411 410 412
f 408 431 411
f 411 413 408
f 415 393 414
f 388 416 414
f 414 393 388
f 408 413 414
f 414 416 408
f 412 415 414
f 414 413 412
f 408 416 417
f 417 409 408
f 388 164 417
f 417 416 388
f 420 421 419
f 419 418 420
f 422 423 419
f 419 421 422
f 419 423 409
f 83 80 424
f 424 425 83
f 77 426 424
f 424 80 77
f 422 421 424
f 424 426 422
f 420 425 424
f 424 421 420
f 422 426 427
f 427 428 422
f 427 426 77
f 409 423 432
f 422 428 432
f 432 423 422
f 486 411 430
f 430 411 431
f 77 366 427
f 428 427 498
f 498 487 428
f 366 337 498
f 498 427 366
f 428 487 432
f 487 347 432
f 344 433 549
f 434 546 549
f 549 433 434
f 344 343 433
f 434 544 171
f 171 546 434
f 171 523 435
f 438 436 494
f 494 500 438
f 436 348 494
f 437 438 495
f 495 502 437
f 438 500 495
f 441 442 440
f 440 439 441
f 440 442 438
f 440 438 437
f 442 436 438
f 441 443 442
f 443 444 445
f 445 446 436
f 447 448 450
f 450 449 447
f 446 445 450
f 444 449 450
f 450 445 444
f 446 450 503
f 503 496 446
f 448 451 503
f 503 450 448
f 436 446 172
f 446 496 172
f 452 453 176
f 176 560 452
f 559 454 455
f 455 456 559
f 457 458 455
f 455 454 457
f 452 560 455
f 455 458 452
f 560 456 455
f 500 460 459
f 452 458 459
f 459 460 452
f 457 501 459
f 459 458 457
f 348 177 499
f 499 177 453
f 452 460 499
f 499 453 452
f 499 460 500
f 177 172 461
f 461 175 177
f 464 467 463
f 463 462 464
f 463 467 461
f 465 466 467
f 468 469 467
f 467 466 468
f 467 469 461
f 464 465 467
f 461 469 174
f 174 175 461
f 468 173 174
f 174 469 468
f 163 373 470
f 471 472 470
f 160 471 473
f 471 470 473
f 473 470 373
f 474 1191 471
f 160 1172 474
f 474 471 160
f 471 1191 178
f 178 472 471
f 475 173 468
f 475 468 476
f 465 477 466
f 477 478 466
f 476 468 466
f 466 478 476
f 477 479 478
f 476 565 178
f 478 565 476
f 482 483 481
f 485 482 484
f 482 481 484
f 484 481 480
f 430 497 482
f 485 486 430
f 430 482 485
f 482 497 429
f 429 483 482
f 488 346 347
f 347 487 488
f 134 489 498
f 498 337 134
f 488 487 498
f 498 489 488
f 130 490 491
f 491 131 130
f 491 490 492
f 488 489 491
f 491 492 488
f 134 131 491
f 491 489 134
f 488 492 493
f 493 346 488
f 492 345 493
f 431 497 430
f 429 497 431
f 502 495 459
f 459 501 502
f 459 495 500
f 348 499 494
f 494 499 500
f 503 451 462
f 496 503 463
f 463 461 496
f 463 503 462
f 496 461 172
f 584 504 505
f 506 583 415
f 506 415 412
f 584 583 506
f 506 504 584
f 507 410 486
f 504 506 507
f 507 508 504
f 412 410 507
f 507 506 412
f 504 508 149
f 149 505 504
f 150 518 509
f 514 148 150
f 150 509 514
f 457 511 510
f 510 501 457
f 514 509 510
f 510 511 514
f 559 512 513
f 513 454 559
f 586 514 513
f 513 512 586
f 514 511 513
f 457 454 513
f 513 511 457
f 148 514 586
f 153 331 151
f 330 152 151
f 151 331 330
f 341 357 342
f 341 152 330
f 342 515 341
f 341 515 152
f 154 149 508
f 508 507 516
f 516 517 508
f 516 507 486
f 508 517 154
f 536 509 518
f 510 541 502
f 536 541 510
f 510 509 536
f 502 501 510
f 171 544 523
f 523 544 520
f 519 480 345
f 520 519 554
f 554 519 345
f 545 550 521
f 171 550 545
f 522 181 180
f 1173 522 757
f 297 523 524
f 130 293 525
f 525 293 291
f 525 291 297
f 525 297 524
f 526 290 527
f 297 291 526
f 291 290 526
f 526 527 297
f 529 297 527
f 530 529 528
f 297 529 435
f 435 529 530
f 315 319 321
f 316 1245 279
f 319 1245 316
f 321 319 316
f 1165 342 356
f 439 440 534
f 534 548 439
f 437 535 534
f 534 440 437
f 533 532 534
f 534 535 533
f 344 548 534
f 534 532 344
f 533 535 541
f 541 536 533
f 437 502 541
f 541 535 437
f 533 536 360
f 359 517 537
f 485 539 516
f 516 486 485
f 537 517 516
f 516 539 537
f 484 538 539
f 538 540 539
f 539 540 537
f 485 484 539
f 538 343 540
f 536 518 360
f 517 359 154
f 433 343 538
f 542 434 433
f 543 538 484
f 543 484 480
f 542 433 543
f 543 433 538
f 542 543 519
f 519 520 542
f 519 543 480
f 542 520 544
f 544 434 542
f 547 546 171
f 171 545 547
f 441 547 521
f 521 443 441
f 547 545 521
f 344 549 548
f 548 549 547
f 441 439 548
f 548 547 441
f 549 546 547
f 530 550 435
f 447 449 551
f 551 530 447
f 444 552 551
f 551 449 444
f 551 552 550
f 551 550 530
f 443 521 552
f 552 444 443
f 552 521 550
f 550 171 435
f 520 553 523
f 554 345 492
f 554 553 520
f 130 525 555
f 555 490 130
f 555 525 524
f 553 554 555
f 555 524 553
f 492 490 555
f 555 554 492
f 553 524 523
f 176 173 561
f 562 561 475
f 475 476 562
f 475 561 173
f 178 562 476
f 556 557 1192
f 1192 1171 556
f 1192 557 558
f 1192 558 1191
f 558 557 456
f 456 560 558
f 556 559 456
f 456 557 556
f 558 560 561
f 561 562 558
f 560 176 561
f 1191 558 562
f 562 178 1191
f 563 478 479
f 563 479 564
f 1195 478 563
f 564 1193 563
f 563 1193 1195
f 565 478 1195
f 566 1198 1201
f 29 1198 566
f 1201 1127 566
f 407 1202 87
f 87 1202 567
f 86 407 87
f 29 89 568
f 568 1198 29
f 568 89 567
f 1210 570 569
f 1210 169 570
f 396 572 571
f 571 397 396
f 398 397 571
f 569 570 398
f 573 86 85
f 573 574 575
f 83 425 576
f 420 577 576
f 576 425 420
f 574 573 576
f 576 577 574
f 85 83 576
f 576 573 85
f 574 577 166
f 166 167 574
f 420 418 166
f 166 577 420
f 575 574 578
f 578 169 575
f 574 167 578
f 396 394 579
f 394 580 579
f 581 582 579
f 579 580 581
f 579 582 158
f 583 391 415
f 581 580 583
f 583 584 581
f 394 391 583
f 583 580 394
f 585 505 148
f 581 584 585
f 584 505 585
f 581 585 148
f 148 586 581
f 587 512 559
f 556 588 587
f 587 559 556
f 581 586 587
f 587 588 581
f 586 512 587
f 158 582 589
f 581 588 589
f 589 582 581
f 556 1171 589
f 589 588 556
f 769 770 778
f 778 866 769
f 778 770 768
f 591 779 590
f 590 779 768
f 594 689 592
f 592 593 594
f 689 693 592
f 593 595 594
f 595 593 596
f 597 598 595
f 595 596 597
f 595 598 594
f 599 600 601
f 601 602 599
f 603 604 601
f 601 600 603
f 594 598 601
f 601 604 594
f 597 602 601
f 601 598 597
f 605 606 607
f 607 608 605
f 609 610 607
f 607 606 609
f 594 604 607
f 607 610 594
f 603 608 607
f 607 604 603
f 611 612 613
f 613 614 611
f 613 612 689
f 594 610 613
f 613 689 594
f 609 614 613
f 613 610 609
f 615 619 591
f 618 619 615
f 620 670 649
f 677 670 620
f 621 622 623
f 623 624 621
f 625 626 623
f 623 622 625
f 627 628 623
f 623 626 627
f 629 624 623
f 623 628 629
f 1214 1216 630
f 1217 631 630
f 630 1216 1217
f 627 626 630
f 630 631 627
f 630 626 625
f 1125 632 633
f 633 1221 1125
f 627 631 633
f 1217 1221 633
f 633 631 1217
f 634 635 636
f 636 637 634
f 629 628 636
f 636 635 629
f 627 633 636
f 636 628 627
f 632 637 636
f 636 633 632
f 599 602 638
f 638 639 599
f 597 640 638
f 638 602 597
f 641 642 638
f 638 640 641
f 643 639 638
f 638 642 643
f 596 593 644
f 641 640 644
f 597 596 644
f 644 640 597
f 641 644 645
f 645 646 641
f 662 647 661
f 643 642 661
f 661 647 643
f 641 646 661
f 661 642 641
f 801 869 871
f 872 869 801
f 616 871 870
f 870 871 869
f 60 669 82
f 649 670 648
f 648 61 649
f 652 653 650
f 650 651 652
f 654 835 650
f 650 653 654
f 652 651 655
f 651 656 655
f 1214 630 657
f 625 658 657
f 657 630 625
f 652 655 657
f 657 658 652
f 655 1214 657
f 621 659 660
f 660 622 621
f 654 653 660
f 660 659 654
f 652 658 660
f 660 653 652
f 625 622 660
f 660 658 625
f 664 665 661
f 661 646 664
f 661 665 662
f 664 646 645
f 645 663 664
f 839 662 665
f 648 670 669
f 669 60 648
f 669 670 668
f 671 668 670
f 672 673 674
f 674 675 672
f 667 666 674
f 674 673 667
f 674 666 668
f 671 675 674
f 674 668 671
f 671 1128 675
f 676 672 675
f 675 1128 676
f 678 671 677
f 671 670 677
f 1128 679 676
f 1128 671 678
f 683 682 873
f 873 682 808
f 873 808 680
f 769 866 681
f 681 807 769
f 680 808 681
f 808 807 681
f 611 684 685
f 685 612 611
f 686 687 685
f 685 684 686
f 688 689 685
f 685 687 688
f 689 612 685
f 688 687 690
f 690 691 688
f 686 699 690
f 690 687 686
f 694 693 692
f 688 691 692
f 692 693 688
f 693 694 592
f 693 689 688
f 106 103 695
f 695 694 106
f 696 697 695
f 1087 694 695
f 695 697 1087
f 106 694 692
f 108 109 698
f 698 109 106
f 106 692 698
f 873 874 683
f 874 110 683
f 700 701 690
f 690 699 700
f 690 701 691
f 115 111 701
f 701 111 113
f 701 113 691
f 700 115 701
f 691 113 698
f 113 108 698
f 691 698 692
f 872 702 703
f 706 707 704
f 708 709 704
f 704 707 708
f 710 705 704
f 704 709 710
f 1229 713 712
f 708 707 712
f 712 713 708
f 706 711 712
f 712 707 706
f 708 713 714
f 714 898 708
f 714 713 1229
f 710 709 897
f 897 715 710
f 708 898 897
f 897 709 708
f 716 717 718
f 718 719 716
f 720 721 718
f 718 717 720
f 722 723 718
f 718 721 722
f 724 719 718
f 718 723 724
f 722 721 725
f 725 727 722
f 720 145 725
f 725 721 720
f 722 727 144
f 144 900 722
f 724 723 726
f 726 901 724
f 722 900 726
f 726 723 722
f 694 1222 592
f 1060 729 728
f 1060 730 729
f 730 1060 1097
f 733 731 732
f 734 735 732
f 732 731 734
f 736 737 732
f 732 735 736
f 738 733 732
f 732 737 738
f 739 928 929
f 1235 740 739
f 739 929 1235
f 736 735 739
f 739 740 736
f 734 928 739
f 739 735 734
f 942 937 933
f 933 934 942
f 933 937 941
f 744 745 742
f 745 746 742
f 742 746 747
f 748 966 986
f 966 965 986
f 743 750 749
f 749 750 966
f 749 966 748
f 986 1050 1038
f 965 1050 986
f 998 908 907
f 993 999 752
f 998 999 993
f 1007 753 1018
f 908 754 1018
f 1018 754 1007
f 753 1007 1008
f 753 1008 1026
f 755 1254 1124
f 1124 1252 755
f 1255 1024 940
f 755 1024 1255
f 1255 1254 755
f 611 614 758
f 758 759 611
f 609 760 758
f 758 614 609
f 761 762 758
f 758 760 761
f 763 759 758
f 758 762 763
f 605 764 765
f 765 606 605
f 766 767 765
f 765 764 766
f 761 760 765
f 765 767 761
f 609 606 765
f 765 760 609
f 761 767 590
f 590 768 761
f 766 591 590
f 590 767 766
f 763 762 770
f 770 769 763
f 761 768 770
f 770 762 761
f 771 772 634
f 771 936 773
f 774 775 777
f 777 776 774
f 777 775 866
f 773 936 777
f 936 776 777
f 773 777 778
f 778 777 866
f 772 771 779
f 779 865 772
f 779 771 773
f 781 787 619
f 619 780 781
f 772 865 619
f 619 787 772
f 782 783 867
f 867 868 782
f 781 780 867
f 867 783 781
f 621 624 784
f 784 785 621
f 629 786 784
f 784 624 629
f 781 783 784
f 784 786 781
f 782 785 784
f 784 783 782
f 634 772 787
f 787 635 634
f 781 786 787
f 629 635 787
f 787 786 629
f 788 789 617
f 617 618 788
f 790 616 617
f 617 789 790
f 766 791 615
f 615 591 766
f 788 618 615
f 615 791 788
f 605 608 792
f 792 764 605
f 603 793 792
f 792 608 603
f 788 791 792
f 792 793 788
f 766 764 792
f 792 791 766
f 599 794 795
f 795 600 599
f 790 789 795
f 795 794 790
f 788 793 795
f 795 789 788
f 603 600 795
f 795 793 603
f 796 797 870
f 870 869 796
f 782 868 870
f 870 797 782
f 796 869 876
f 876 831 796
f 654 798 834
f 834 835 654
f 796 831 834
f 834 798 796
f 621 785 799
f 799 659 621
f 782 797 799
f 799 785 782
f 796 798 799
f 799 797 796
f 654 659 799
f 799 798 654
f 802 927 800
f 800 801 802
f 790 803 871
f 871 616 790
f 802 801 871
f 871 803 802
f 599 639 804
f 804 794 599
f 643 805 804
f 804 639 643
f 802 803 804
f 804 805 802
f 790 794 804
f 804 803 790
f 806 647 662
f 802 805 806
f 806 927 802
f 643 647 806
f 806 805 643
f 809 810 807
f 807 808 809
f 763 769 807
f 807 810 763
f 809 808 682
f 682 811 809
f 686 812 825
f 825 699 686
f 809 811 825
f 825 812 809
f 611 759 813
f 813 684 611
f 763 810 813
f 813 759 763
f 809 812 813
f 813 810 809
f 686 684 813
f 813 812 686
f 815 827 814
f 814 680 815
f 815 680 681
f 774 816 817
f 817 775 774
f 818 819 817
f 817 816 818
f 815 681 817
f 817 819 815
f 866 775 817
f 817 681 866
f 815 819 821
f 821 827 815
f 818 820 821
f 821 819 818
f 823 811 682
f 682 822 823
f 822 311 247
f 822 247 823
f 700 824 246
f 246 115 700
f 823 247 246
f 246 824 823
f 823 824 825
f 825 811 823
f 700 699 825
f 825 824 700
f 826 814 248
f 814 827 248
f 820 828 829
f 829 821 820
f 830 250 829
f 829 828 830
f 248 827 829
f 829 250 248
f 827 821 829
f 876 832 831
f 832 922 831
f 833 834 909
f 909 715 833
f 831 922 909
f 909 834 831
f 833 835 834
f 836 837 878
f 878 877 836
f 838 879 878
f 878 837 838
f 836 877 915
f 915 914 836
f 839 840 913
f 840 841 913
f 836 914 913
f 913 841 836
f 843 889 842
f 838 837 843
f 843 842 838
f 836 841 843
f 843 837 836
f 840 889 843
f 843 841 840
f 845 846 844
f 844 882 845
f 847 883 844
f 844 846 847
f 845 882 848
f 848 849 845
f 706 851 850
f 850 711 706
f 845 849 850
f 850 851 845
f 705 852 853
f 853 704 705
f 847 846 853
f 853 852 847
f 845 851 853
f 853 846 845
f 706 704 853
f 853 851 706
f 857 854 1078
f 859 280 855
f 280 856 855
f 855 856 854
f 855 854 857
f 855 858 859
f 860 861 1080
f 860 1080 286
f 286 283 860
f 1086 282 286
f 286 1080 1086
f 720 862 285
f 285 145 720
f 860 283 285
f 285 862 860
f 716 1081 863
f 863 717 716
f 863 1081 861
f 860 862 863
f 863 861 860
f 720 717 863
f 863 862 720
f 858 855 864
f 864 855 857
f 778 768 773
f 591 865 779
f 773 768 779
f 619 865 591
f 619 618 780
f 616 868 867
f 867 617 616
f 780 618 867
f 618 617 867
f 870 868 616
f 872 876 869
f 801 800 872
f 680 814 873
f 822 682 683
f 683 310 822
f 875 874 873
f 814 875 873
f 826 875 814
f 872 703 876
f 703 832 876
f 702 915 877
f 881 1086 1238
f 1238 756 881
f 1086 848 882
f 1086 882 1238
f 880 844 883
f 1238 882 880
f 882 844 880
f 319 315 884
f 884 315 1077
f 881 320 1086
f 1086 320 282
f 885 840 839
f 885 886 887
f 885 887 840
f 887 886 1246
f 1246 1068 887
f 890 888 1067
f 1067 858 890
f 887 1068 1067
f 1067 888 887
f 889 890 842
f 840 887 889
f 887 888 889
f 889 888 890
f 893 341 891
f 891 341 892
f 891 892 1068
f 1068 892 1067
f 892 894 1067
f 859 858 1067
f 1067 894 859
f 877 911 703
f 703 702 877
f 879 895 878
f 877 878 896
f 896 911 877
f 895 883 896
f 896 878 895
f 899 898 714
f 1234 656 714
f 897 898 899
f 900 144 903
f 902 904 900
f 900 903 902
f 894 280 859
f 1087 918 1247
f 1092 921 1097
f 1093 1094 1088
f 1088 905 1093
f 1088 1094 1092
f 1039 1034 1042
f 1034 1033 1042
f 1042 1033 1041
f 1038 1050 1034
f 1038 1034 1039
f 1033 906 1041
f 907 908 1018
f 909 922 910
f 710 715 909
f 909 910 710
f 910 922 832
f 832 911 910
f 847 912 896
f 896 883 847
f 910 911 896
f 896 912 910
f 710 910 852
f 852 705 710
f 910 912 852
f 852 912 847
f 839 913 926
f 926 913 914
f 911 832 703
f 664 916 665
f 916 885 665
f 665 885 839
f 663 1247 916
f 663 916 664
f 886 916 1247
f 1247 1246 886
f 885 916 886
f 1087 697 918
f 697 917 918
f 918 917 358
f 918 358 920
f 919 357 893
f 920 358 919
f 358 357 919
f 891 920 919
f 893 891 919
f 730 1097 921
f 833 715 897
f 899 714 656
f 651 899 656
f 923 650 835
f 833 897 923
f 923 835 833
f 923 897 899
f 651 650 923
f 923 899 651
f 726 900 668
f 924 901 726
f 668 900 904
f 904 925 668
f 925 669 668
f 667 924 666
f 924 726 666
f 666 726 668
f 367 925 904
f 904 339 367
f 82 669 925
f 925 367 82
f 926 662 839
f 914 915 800
f 800 927 914
f 926 806 662
f 914 927 926
f 927 806 926
f 915 702 872
f 872 800 915
f 734 930 928
f 930 931 928
f 932 929 928
f 928 931 932
f 934 933 731
f 731 733 934
f 731 933 930
f 731 930 734
f 941 930 933
f 940 932 931
f 931 741 940
f 941 741 931
f 931 930 941
f 776 935 774
f 941 937 776
f 776 936 941
f 776 937 935
f 634 938 939
f 939 771 634
f 940 741 939
f 939 938 940
f 941 936 939
f 939 741 941
f 936 771 939
f 937 942 935
f 743 747 943
f 943 944 743
f 943 747 746
f 945 946 943
f 943 746 945
f 947 944 943
f 943 946 947
f 1131 948 745
f 945 746 745
f 745 948 945
f 949 950 951
f 950 952 951
f 945 948 951
f 951 952 945
f 951 948 1131
f 953 954 955
f 955 956 953
f 947 946 955
f 955 954 947
f 945 952 955
f 955 946 945
f 950 956 955
f 955 952 950
f 942 1270 959
f 959 1270 957
f 959 957 958
f 935 942 959
f 958 957 1129
f 1129 1134 958
f 961 962 1251
f 1251 960 961
f 958 1134 1251
f 1251 962 958
f 774 935 963
f 963 964 774
f 935 959 963
f 958 962 963
f 963 959 958
f 961 964 963
f 963 962 961
f 967 982 965
f 965 966 967
f 982 1050 965
f 743 944 750
f 947 968 750
f 750 944 947
f 967 966 750
f 750 968 967
f 969 954 953
f 970 971 969
f 969 953 970
f 967 968 969
f 969 971 967
f 947 954 969
f 969 968 947
f 967 971 972
f 972 982 967
f 970 973 972
f 972 971 970
f 974 975 749
f 749 748 974
f 976 743 749
f 749 975 976
f 974 748 986
f 986 977 974
f 667 979 978
f 974 977 978
f 978 979 974
f 672 980 981
f 981 673 672
f 976 975 981
f 981 980 976
f 974 979 981
f 981 975 974
f 667 673 981
f 981 979 667
f 1050 982 983
f 973 985 972
f 972 985 982
f 983 982 985
f 973 984 985
f 986 987 977
f 924 988 1051
f 1051 901 924
f 1051 988 987
f 667 978 988
f 988 924 667
f 977 987 988
f 988 978 977
f 1098 1099 989
f 989 990 1098
f 1093 905 989
f 989 1099 1093
f 1098 990 751
f 751 1073 1098
f 1109 751 1106
f 998 991 908
f 991 1048 908
f 993 752 992
f 993 991 998
f 991 993 994
f 994 996 991
f 992 995 994
f 994 993 992
f 991 996 1049
f 1049 1048 991
f 996 1052 1049
f 999 997 752
f 1005 997 999
f 907 1000 998
f 1003 1006 1002
f 1002 1001 1003
f 998 1000 1002
f 1002 1006 998
f 1004 1005 1006
f 1006 1003 1004
f 1005 999 1006
f 1006 999 998
f 1010 1009 1007
f 1009 1008 1007
f 1048 1010 754
f 1010 1007 754
f 1013 1014 1012
f 1012 1011 1013
f 1012 1014 1010
f 1012 1010 1048
f 1121 1015 1016
f 1016 1017 1121
f 1016 1015 1009
f 1010 1014 1016
f 1016 1009 1010
f 1013 1017 1016
f 1016 1014 1013
f 1018 753 1053
f 1053 907 1018
f 753 1026 1019
f 753 1019 1053
f 1022 1031 1020
f 1022 1020 1021
f 1053 1019 1022
f 1019 1031 1022
f 1021 1054 1022
f 1024 932 940
f 1024 755 1023
f 1023 755 1252
f 1252 1117 1023
f 1235 1025 1253
f 1023 1117 1253
f 1253 1025 1023
f 932 1024 1025
f 1025 929 932
f 1025 1024 1023
f 1235 929 1025
f 1028 1019 1026
f 1029 1032 1030
f 1030 1028 1027
f 1031 1032 1020
f 1028 1030 1031
f 1031 1019 1028
f 1031 1030 1032
f 1033 1034 1036
f 1036 1034 1050
f 1050 983 1036
f 1035 1036 985
f 985 984 1035
f 1036 983 985
f 906 1033 1037
f 1037 1033 1036
f 1037 1036 1035
f 1040 987 1038
f 1038 1039 1040
f 1043 1044 1042
f 1042 1041 1043
f 1040 1039 1042
f 1042 1044 1040
f 716 719 1045
f 1045 1046 716
f 724 1047 1045
f 1045 719 724
f 1040 1044 1045
f 1045 1047 1040
f 1043 1046 1045
f 1045 1044 1043
f 1040 1047 1051
f 1051 987 1040
f 724 901 1051
f 1051 1047 724
f 987 986 1038
f 1048 754 908
f 1048 1049 1012
f 1052 1011 1012
f 1012 1049 1052
f 1053 1000 907
f 1055 1022 1054
f 1053 1022 1055
f 1002 1054 1001
f 1053 1055 1002
f 1002 1000 1053
f 1002 1055 1054
f 729 1147 728
f 1148 1147 729
f 729 1056 1148
f 729 1057 1056
f 1058 973 970
f 1056 1057 1058
f 1148 1056 1059
f 1056 1058 1059
f 970 953 1059
f 1059 1058 970
f 1061 1062 1060
f 1060 728 1061
f 1063 1061 728
f 1121 1017 1064
f 1064 1065 1121
f 1013 1066 1064
f 1064 1017 1013
f 1064 1066 1061
f 1063 1065 1064
f 1064 1061 1063
f 1061 1066 1071
f 1071 1062 1061
f 1013 1011 1071
f 1071 1066 1013
f 1246 891 1068
f 1057 729 730
f 730 921 1069
f 730 1069 1057
f 973 1058 1070
f 1070 984 973
f 1057 1069 1070
f 1070 1058 1057
f 1062 1090 1097
f 1097 1060 1062
f 1071 1011 1052
f 1062 1071 1072
f 1072 1090 1062
f 1072 1071 1052
f 1073 1074 1100
f 906 1101 1113
f 1100 1074 1113
f 1113 1101 1100
f 1041 906 1113
f 1106 1082 1079
f 1079 1109 1106
f 1110 1109 1079
f 1082 1086 1079
f 861 1079 1080
f 1080 1079 1086
f 1110 1079 1081
f 1081 1079 861
f 1082 1106 1083
f 1084 1085 1004
f 1082 1083 1084
f 1084 1243 1082
f 1083 1085 1084
f 1247 920 1246
f 920 1247 918
f 920 891 1246
f 1092 1089 1088
f 1097 1090 1089
f 1097 1089 1092
f 996 1091 1072
f 1072 1052 996
f 1089 1090 1072
f 1072 1091 1089
f 1091 994 995
f 905 1088 1091
f 1091 995 905
f 1091 1088 1089
f 996 994 1091
f 1092 1069 921
f 1094 1093 1095
f 1096 1095 1037
f 1096 1037 1035
f 1092 1094 1096
f 1096 1094 1095
f 1092 1096 1070
f 1070 1069 1092
f 1035 984 1070
f 1070 1096 1035
f 1087 1222 694
f 1095 1093 1099
f 1073 1100 1098
f 906 1102 1101
f 1098 1100 1101
f 1101 1102 1098
f 1037 1095 1102
f 1095 1099 1102
f 1102 1099 1098
f 906 1037 1102
f 1103 1104 751
f 751 990 1103
f 905 1105 989
f 1103 990 989
f 989 1105 1103
f 992 1103 1105
f 1105 995 992
f 905 995 1105
f 1075 1104 1103
f 992 752 1075
f 1075 1103 992
f 1107 1083 1106
f 1106 751 1107
f 751 1104 1107
f 752 997 1108
f 1108 1075 752
f 1005 1085 1108
f 1108 997 1005
f 1107 1104 1108
f 1108 1085 1107
f 1104 1075 1108
f 1085 1005 1004
f 1085 1083 1107
f 1109 1073 751
f 1074 1073 1109
f 1109 1110 1074
f 716 1046 1111
f 1111 1081 716
f 1043 1112 1111
f 1111 1046 1043
f 1074 1110 1111
f 1111 1112 1074
f 1110 1081 1111
f 1074 1112 1113
f 1043 1041 1113
f 1113 1112 1043
f 1252 1124 1027
f 1027 1114 1252
f 1027 1028 1114
f 1114 1028 1026
f 1026 1008 1114
f 1117 1118 1116
f 1118 1119 1116
f 1120 1115 1116
f 1116 1119 1120
f 1117 1252 1114
f 1114 1118 1117
f 1118 1114 1008
f 1008 1009 1118
f 1120 1119 1015
f 1015 1121 1120
f 1118 1009 1015
f 1015 1119 1118
f 1029 1030 1027
f 1027 1123 1029
f 1029 1123 1122
f 1123 1257 1125
f 1123 1125 1122
f 1124 1257 1123
f 1123 1027 1124
f 677 620 1126
f 620 566 1127
f 1127 1126 620
f 1126 1262 677
f 678 677 1262
f 1128 1268 960
f 1128 960 679
f 678 1268 1128
f 745 1129 1132
f 745 744 1129
f 949 951 1130
f 1130 738 949
f 1130 951 1131
f 1131 745 1132
f 1134 1135 1133
f 1136 1137 1133
f 1133 1135 1136
f 676 679 1133
f 1133 1137 676
f 1136 1135 744
f 744 742 1136
f 744 1135 1134
f 976 1138 747
f 747 743 976
f 1136 742 747
f 747 1138 1136
f 1139 980 672
f 676 1137 1139
f 1139 672 676
f 1136 1138 1139
f 1139 1137 1136
f 976 980 1139
f 1139 1138 976
f 1140 950 949
f 736 1141 1140
f 1142 1143 1140
f 1140 1141 1142
f 1140 1143 950
f 1120 1145 1144
f 1144 1115 1120
f 1142 1141 1144
f 1144 1145 1142
f 1144 1141 736
f 1121 1065 1146
f 1146 1065 1063
f 1142 1145 1146
f 1146 1063 1142
f 1120 1121 1146
f 1146 1145 1120
f 1142 1063 728
f 728 1147 1142
f 1147 1148 1142
f 953 956 1149
f 1149 1059 953
f 950 1143 1149
f 1149 956 950
f 1142 1148 1149
f 1149 1143 1142
f 1148 1059 1149
f 477 1153 1152
f 1152 479 477
f 1151 1150 1152
f 1152 1153 1151
f 564 479 1152
f 1152 1150 564
f 465 1163 1154
f 1154 477 465
f 1160 1155 1154
f 1154 1163 1160
f 1151 1153 1154
f 1154 1155 1151
f 1154 1153 477
f 1151 1155 1156
f 1160 1162 1156
f 1156 1155 1160
f 1158 57 1157
f 147 1158 1157
f 1159 1158 147
f 1162 1160 1161
f 1163 465 464
f 1161 1160 1163
f 1161 1163 1164
f 464 462 1164
f 1164 1163 464
f 1187 1162 1161
f 1157 76 1165
f 1184 1185 1166
f 1166 335 1184
f 448 1168 1186
f 1186 451 448
f 1166 1185 1186
f 1186 1168 1166
f 447 1167 1168
f 1168 448 447
f 1169 1170 1168
f 1168 1167 1169
f 1168 1170 1166
f 396 579 157
f 157 572 396
f 157 579 158
f 159 589 1171
f 159 1171 1172
f 158 589 159
f 1183 1175 1173
f 1173 179 1183
f 1175 181 1173
f 1174 1178 312
f 318 317 1174
f 1174 312 318
f 1174 317 1175
f 1183 1178 1174
f 1174 1175 1183
f 1175 180 181
f 328 1176 289
f 289 153 328
f 1177 281 289
f 289 1176 1177
f 260 1177 326
f 326 263 260
f 1177 1176 326
f 326 1176 328
f 1178 1179 1177
f 260 259 1178
f 1178 1177 260
f 1177 1179 279
f 279 281 1177
f 1180 277 1169
f 278 277 1180
f 1180 528 278
f 447 530 1181
f 1181 1167 447
f 1181 530 528
f 528 1180 1181
f 1169 1167 1181
f 1181 1180 1169
f 527 1182 529
f 529 1182 528
f 278 528 1182
f 1179 1183 316
f 316 279 1179
f 1183 321 316
f 1178 259 312
f 1178 1183 1179
f 315 321 1183
f 1183 179 315
f 1165 76 342
f 1161 1188 1187
f 1188 1189 1187
f 1189 363 1187
f 1164 1188 1161
f 1188 1164 1186
f 1186 1185 1188
f 462 451 1186
f 1186 1164 462
f 1189 1184 335
f 1188 1185 1189
f 1185 1184 1189
f 406 407 86
f 86 573 406
f 575 1190 406
f 406 573 575
f 169 1190 575
f 1190 169 1210
f 1191 474 1192
f 1172 1171 1192
f 1192 474 1172
f 564 43 1193
f 1194 1195 1193
f 39 387 1196
f 1196 40 39
f 387 1197 1196
f 1194 1193 1196
f 1196 1197 1194
f 43 40 1196
f 1196 1193 43
f 387 163 1197
f 565 1195 1194
f 1258 1201 1198
f 1198 1208 1258
f 830 1200 1199
f 1199 240 830
f 1258 1208 1199
f 1199 1200 1258
f 1258 1127 1201
f 404 1203 1202
f 1202 407 404
f 1204 1205 1202
f 1202 1203 1204
f 1202 1205 567
f 200 245 1206
f 1206 402 200
f 242 1207 1206
f 1206 245 242
f 1204 1203 1206
f 1206 1207 1204
f 404 402 1206
f 1206 1203 404
f 1204 1207 1199
f 1199 1208 1204
f 242 240 1199
f 1199 1207 242
f 567 1205 568
f 1204 1208 568
f 568 1205 1204
f 1208 1198 568
f 1209 1210 569
f 384 400 1213
f 1213 375 384
f 1213 400 1209
f 572 1211 571
f 1212 398 571
f 571 1211 1212
f 376 1212 1211
f 1211 379 376
f 572 379 1211
f 1213 1209 1212
f 376 375 1213
f 1213 1212 376
f 1212 1209 569
f 569 398 1212
f 1216 1214 1215
f 1020 1032 1218
f 1218 1219 1020
f 1032 1220 1218
f 1217 1216 1218
f 1218 1220 1217
f 1215 1219 1218
f 1218 1216 1215
f 1029 1122 1220
f 1220 1032 1029
f 1122 1221 1220
f 1220 1221 1217
f 1122 1125 1221
f 592 644 593
f 1222 644 592
f 1222 645 644
f 1223 655 656
f 1223 1224 1226
f 1021 1225 1249
f 1249 1054 1021
f 1226 1224 1249
f 1249 1225 1226
f 1020 1219 1225
f 1215 1226 1225
f 1225 1219 1215
f 1021 1020 1225
f 655 1223 1214
f 1214 1223 1226
f 1214 1226 1215
f 663 645 1222
f 663 1222 1087
f 711 1227 1228
f 1228 712 711
f 1229 712 1228
f 1004 1003 1231
f 1231 1230 1004
f 1229 1228 1231
f 1227 1230 1231
f 1231 1228 1227
f 1229 1231 1232
f 1232 1233 1229
f 1003 1001 1232
f 1232 1231 1003
f 1234 714 1229
f 1229 1233 1234
f 1115 1144 740
f 740 1235 1115
f 740 1144 736
f 949 738 737
f 737 1140 949
f 736 1140 737
f 757 756 1238
f 880 883 895
f 1236 895 879
f 1237 1238 1236
f 1238 880 1236
f 1236 880 895
f 1076 757 1238
f 1237 1077 1076
f 1076 1238 1237
f 1241 857 1078
f 1078 1239 1241
f 838 1241 1240
f 1240 879 838
f 1241 1239 1240
f 842 890 1242
f 838 842 1242
f 1242 1241 838
f 1241 1242 864
f 864 857 1241
f 890 858 864
f 864 1242 890
f 848 1243 849
f 1243 848 1082
f 1082 848 1086
f 1004 1230 1244
f 1244 1084 1004
f 1244 1230 1227
f 1243 1084 1244
f 711 850 1244
f 1244 1227 711
f 849 1243 1244
f 1244 850 849
f 1237 1239 884
f 884 1077 1237
f 1239 319 884
f 1240 1236 879
f 1237 1236 1240
f 1240 1239 1237
f 1245 319 1239
f 1239 1078 1245
f 1001 1248 1232
f 1232 1248 1233
f 1247 663 1087
f 656 1234 1250
f 1250 1234 1233
f 1250 1233 1224
f 1001 1054 1248
f 1224 1233 1248
f 1224 1248 1249
f 1249 1248 1054
f 1250 1223 656
f 1224 1223 1250
f 1129 744 1134
f 1251 1133 679
f 1134 1133 1251
f 679 960 1251
f 1115 1235 1253
f 1253 1116 1115
f 1117 1116 1253
f 634 637 1256
f 1256 938 634
f 632 1257 1256
f 1256 637 632
f 1254 1255 1256
f 1256 1257 1254
f 940 938 1256
f 1256 1255 940
f 1257 632 1125
f 1257 1124 1254
f 1261 1126 1127
f 1127 1258 1261
f 1261 1258 1200
f 820 1259 1260
f 1260 828 820
f 1263 1261 1260
f 1260 1259 1263
f 1261 1200 1260
f 830 828 1260
f 1260 1200 830
f 1263 1262 1126
f 1126 1261 1263
f 1264 678 1262
f 1262 1263 1264
f 818 1265 1259
f 1259 820 818
f 1264 1263 1259
f 1259 1265 1264
f 774 964 1266
f 1266 816 774
f 961 1267 1266
f 1266 964 961
f 1264 1265 1266
f 1266 1267 1264
f 818 816 1266
f 1266 1265 818
f 1264 1267 1268
f 1268 678 1264
f 961 960 1268
f 1268 1267 961
f 1132 1129 957
f 1132 957 1269
f 1269 957 1270
f 942 934 1270
f 1271 1131 1132
f 1132 1269 1271
f 934 1271 1270
f 1271 1269 1270
f 1272 733 738
f 934 733 1272
f 1272 1271 934
f 1271 1272 1130
f 1130 1131 1271
f 1130 1272 738
