# USD → MuJoCo (world-space)
v 0.142792 -0.074603 -0.023949
v 0.142792 -0.075618 -0.036849
v 0.142792 -0.026792 -0.036849
v 0.142792 -0.026378 -0.031587
v 0.142792 -0.074603 -0.049748
v 0.142792 -0.026378 -0.042110
v 0.142792 -0.071582 -0.062330
v 0.142792 -0.025146 -0.047242
v 0.142792 -0.066630 -0.074285
v 0.142792 -0.023126 -0.052119
v 0.142792 -0.059870 -0.085318
v 0.142792 -0.020369 -0.056619
v 0.142792 -0.051466 -0.095157
v 0.142792 -0.016941 -0.060632
v 0.142792 -0.041627 -0.103561
v 0.142792 -0.012927 -0.064060
v 0.142792 -0.030594 -0.110322
v 0.142792 -0.008427 -0.066818
v 0.142792 -0.018639 -0.115274
v 0.142792 -0.003551 -0.068838
v 0.142792 -0.006057 -0.118295
v 0.142792 0.001581 -0.070070
v 0.142792 0.006843 -0.119310
v 0.142792 0.006843 -0.070484
v 0.142792 0.019743 -0.118295
v 0.142792 0.012105 -0.070070
v 0.142792 0.032325 -0.115274
v 0.142792 0.017237 -0.068838
v 0.142792 0.044279 -0.110322
v 0.142792 0.022113 -0.066818
v 0.142792 0.055312 -0.103561
v 0.142792 0.026613 -0.064060
v 0.142792 0.065152 -0.095158
v 0.142792 0.030627 -0.060633
v 0.142792 0.073555 -0.085318
v 0.142792 0.034055 -0.056619
v 0.142792 0.080316 -0.074285
v 0.142792 0.036812 -0.052119
v 0.142792 0.085268 -0.062331
v 0.142792 0.038832 -0.047243
v 0.142792 0.088289 -0.049749
v 0.142792 0.040064 -0.042110
v 0.142792 0.089304 -0.036849
v 0.142792 0.040478 -0.036849
v 0.142792 0.088289 -0.023949
v 0.142792 0.040064 -0.031587
v 0.142792 0.085268 -0.011367
v 0.142792 0.038832 -0.026455
v 0.142792 0.080316 0.000588
v 0.142792 0.036812 -0.021579
v 0.142792 0.073555 0.011621
v 0.142792 0.034055 -0.017078
v 0.142792 0.065152 0.021460
v 0.142792 0.030627 -0.013065
v 0.142792 0.055313 0.029864
v 0.142792 0.026613 -0.009637
v 0.142792 0.044279 0.036625
v 0.142792 0.022113 -0.006879
v 0.142792 0.032325 0.041577
v 0.142792 0.017237 -0.004860
v 0.142792 0.019743 0.044597
v 0.142792 0.012105 -0.003627
v 0.142792 0.006843 0.045612
v 0.142792 0.006843 -0.003213
v 0.142792 -0.006057 0.044597
v 0.142792 0.001581 -0.003627
v 0.142792 -0.018639 0.041577
v 0.142792 -0.003551 -0.004860
v 0.142792 -0.030594 0.036625
v 0.142792 -0.008427 -0.006879
v 0.142792 -0.041627 0.029864
v 0.142792 -0.012927 -0.009637
v 0.142792 -0.051466 0.021460
v 0.142792 -0.016941 -0.013065
v 0.142792 -0.059869 0.011621
v 0.142792 -0.020369 -0.017078
v 0.142792 -0.066630 0.000588
v 0.142792 -0.023126 -0.021579
v 0.142792 -0.071582 -0.011367
v 0.142792 -0.025146 -0.026455
v -0.141681 -0.075618 -0.036849
v -0.141681 -0.074603 -0.023949
v -0.141681 -0.026378 -0.031587
v -0.141681 -0.026792 -0.036849
v -0.141681 -0.071582 -0.011367
v -0.141681 -0.025146 -0.026455
v -0.141681 -0.066630 0.000588
v -0.141681 -0.023126 -0.021579
v -0.141681 -0.059869 0.011621
v -0.141681 -0.020369 -0.017078
v -0.141681 -0.051466 0.021460
v -0.141681 -0.016941 -0.013065
v -0.141681 -0.041626 0.029864
v -0.141681 -0.012927 -0.009637
v -0.141681 -0.030594 0.036625
v -0.141681 -0.008427 -0.006879
v -0.141681 -0.018639 0.041577
v -0.141681 -0.003551 -0.004860
v -0.141681 -0.006057 0.044597
v -0.141681 0.001581 -0.003627
v -0.141681 0.006843 0.045612
v -0.141681 0.006843 -0.003213
v -0.141681 0.019743 0.044597
v -0.141681 0.012105 -0.003627
v -0.141681 0.032325 0.041577
v -0.141681 0.017237 -0.004860
v -0.141681 0.044280 0.036625
v -0.141681 0.022113 -0.006879
v -0.141681 0.055313 0.029864
v -0.141681 0.026613 -0.009637
v -0.141681 0.065152 0.021460
v -0.141681 0.030627 -0.013065
v -0.141681 0.073556 0.011621
v -0.141681 0.034055 -0.017078
v -0.141681 0.080316 0.000588
v -0.141681 0.036812 -0.021579
v -0.141681 0.085268 -0.011367
v -0.141681 0.038832 -0.026455
v -0.141681 0.088289 -0.023949
v -0.141681 0.040064 -0.031587
v -0.141681 0.089304 -0.036849
v -0.141681 0.040478 -0.036849
v -0.141681 0.088289 -0.049749
v -0.141681 0.040064 -0.042110
v -0.141681 0.085268 -0.062331
v -0.141681 0.038832 -0.047243
v -0.141681 0.080316 -0.074285
v -0.141681 0.036812 -0.052119
v -0.141681 0.073555 -0.085318
v -0.141681 0.034055 -0.056619
v -0.141681 0.065152 -0.095158
v -0.141681 0.030627 -0.060633
v -0.141681 0.055312 -0.103561
v -0.141681 0.026613 -0.064060
v -0.141681 0.044279 -0.110322
v -0.141681 0.022113 -0.066818
v -0.141681 0.032325 -0.115274
v -0.141681 0.017237 -0.068838
v -0.141681 0.019743 -0.118295
v -0.141681 0.012105 -0.070070
v -0.141681 0.006843 -0.119310
v -0.141681 0.006843 -0.070484
v -0.141681 -0.006057 -0.118295
v -0.141681 0.001581 -0.070070
v -0.141681 -0.018639 -0.115274
v -0.141681 -0.003551 -0.068838
v -0.141681 -0.030594 -0.110322
v -0.141681 -0.008427 -0.066818
v -0.141681 -0.041627 -0.103561
v -0.141681 -0.012927 -0.064060
v -0.141681 -0.051466 -0.095157
v -0.141681 -0.016941 -0.060632
v -0.141681 -0.059870 -0.085318
v -0.141681 -0.020369 -0.056619
v -0.141681 -0.066630 -0.074285
v -0.141681 -0.023126 -0.052119
v -0.141681 -0.071582 -0.062330
v -0.141681 -0.025146 -0.047242
v -0.141681 -0.074603 -0.049748
v -0.141681 -0.026378 -0.042110
vt 0.026211 1.186333
vt 0.020190 1.116139
vt 0.309761 1.116139
vt 0.309761 1.116139
vt 0.312217 1.144771
vt 0.026211 1.186333
vt 0.020190 1.116139
vt 0.026211 1.045947
vt 0.312216 1.087509
vt 0.312216 1.087509
vt 0.309761 1.116139
vt 0.020190 1.116139
vt 0.026211 1.045947
vt 0.044125 0.977481
vt 0.319524 1.059582
vt 0.319524 1.059582
vt 0.312216 1.087509
vt 0.026211 1.045947
vt 0.044125 0.977481
vt 0.073493 0.912430
vt 0.331503 1.033048
vt 0.331503 1.033048
vt 0.319524 1.059582
vt 0.044125 0.977481
vt 0.073493 0.912430
vt 0.113590 0.852395
vt 0.347858 1.008560
vt 0.347858 1.008560
vt 0.331503 1.033048
vt 0.073493 0.912430
vt 0.113590 0.852395
vt 0.163429 0.798855
vt 0.368187 0.986721
vt 0.368187 0.986721
vt 0.347858 1.008560
vt 0.113590 0.852395
vt 0.163429 0.798855
vt 0.221784 0.753126
vt 0.391990 0.968069
vt 0.391990 0.968069
vt 0.368187 0.986721
vt 0.163429 0.798855
vt 0.221784 0.753126
vt 0.287216 0.716337
vt 0.418679 0.953063
vt 0.418679 0.953063
vt 0.391990 0.968069
vt 0.221784 0.753126
vt 0.287216 0.716337
vt 0.358116 0.689392
vt 0.447599 0.942072
vt 0.447599 0.942072
vt 0.418679 0.953063
vt 0.287216 0.716337
vt 0.358116 0.689392
vt 0.432737 0.672955
vt 0.478036 0.935367
vt 0.478036 0.935367
vt 0.447599 0.942072
vt 0.358116 0.689392
vt 0.432737 0.672955
vt 0.509241 0.667430
vt 0.509242 0.933114
vt 0.509242 0.933114
vt 0.478036 0.935367
vt 0.432737 0.672955
vt 0.509241 0.667430
vt 0.585746 0.672954
vt 0.540447 0.935367
vt 0.540447 0.935367
vt 0.509242 0.933114
vt 0.509241 0.667430
vt 0.585746 0.672954
vt 0.660367 0.689391
vt 0.570885 0.942072
vt 0.570885 0.942072
vt 0.540447 0.935367
vt 0.585746 0.672954
vt 0.660367 0.689391
vt 0.731266 0.716336
vt 0.599804 0.953062
vt 0.599804 0.953062
vt 0.570885 0.942072
vt 0.660367 0.689391
vt 0.731266 0.716336
vt 0.796699 0.753126
vt 0.626494 0.968069
vt 0.626494 0.968069
vt 0.599804 0.953062
vt 0.731266 0.716336
vt 0.796699 0.753126
vt 0.855054 0.798854
vt 0.650296 0.986721
vt 0.650296 0.986721
vt 0.626494 0.968069
vt 0.796699 0.753126
vt 0.855054 0.798854
vt 0.904893 0.852395
vt 0.670626 1.008560
vt 0.670626 1.008560
vt 0.650296 0.986721
vt 0.855054 0.798854
vt 0.904893 0.852395
vt 0.944990 0.912429
vt 0.686981 1.033048
vt 0.686981 1.033048
vt 0.670626 1.008560
vt 0.904893 0.852395
vt 0.944990 0.912429
vt 0.974358 0.977480
vt 0.698960 1.059581
vt 0.698960 1.059581
vt 0.686981 1.033048
vt 0.944990 0.912429
vt 0.974358 0.977480
vt 0.992273 1.045946
vt 0.706267 1.087508
vt 0.706267 1.087508
vt 0.698960 1.059581
vt 0.974358 0.977480
vt 0.992273 1.045946
vt 0.998294 1.116139
vt 0.708723 1.116139
vt 0.708723 1.116139
vt 0.706267 1.087508
vt 0.992273 1.045946
vt 0.998294 1.116139
vt 0.992273 1.186333
vt 0.706267 1.144771
vt 0.706267 1.144771
vt 0.708723 1.116139
vt 0.998294 1.116139
vt 0.992273 1.186333
vt 0.974358 1.254798
vt 0.698960 1.172698
vt 0.698960 1.172698
vt 0.706267 1.144771
vt 0.992273 1.186333
vt 0.974358 1.254798
vt 0.944991 1.319849
vt 0.686981 1.199231
vt 0.686981 1.199231
vt 0.698960 1.172698
vt 0.974358 1.254798
vt 0.944991 1.319849
vt 0.904894 1.379884
vt 0.670626 1.223719
vt 0.670626 1.223719
vt 0.686981 1.199231
vt 0.944991 1.319849
vt 0.904894 1.379884
vt 0.855054 1.433425
vt 0.650297 1.245558
vt 0.650297 1.245558
vt 0.670626 1.223719
vt 0.904894 1.379884
vt 0.855054 1.433425
vt 0.796700 1.479153
vt 0.626494 1.264210
vt 0.626494 1.264210
vt 0.650297 1.245558
vt 0.855054 1.433425
vt 0.796700 1.479153
vt 0.731267 1.515943
vt 0.599805 1.279217
vt 0.599805 1.279217
vt 0.626494 1.264210
vt 0.796700 1.479153
vt 0.731267 1.515943
vt 0.660367 1.542888
vt 0.570885 1.290207
vt 0.570885 1.290207
vt 0.599805 1.279217
vt 0.731267 1.515943
vt 0.660367 1.542888
vt 0.585747 1.559325
vt 0.540448 1.296912
vt 0.540448 1.296912
vt 0.570885 1.290207
vt 0.660367 1.542888
vt 0.585747 1.559325
vt 0.509242 1.564849
vt 0.509242 1.299165
vt 0.509242 1.299165
vt 0.540448 1.296912
vt 0.585747 1.559325
vt 0.509242 1.564849
vt 0.432737 1.559325
vt 0.478036 1.296912
vt 0.478036 1.296912
vt 0.509242 1.299165
vt 0.509242 1.564849
vt 0.432737 1.559325
vt 0.358116 1.542888
vt 0.447599 1.290207
vt 0.447599 1.290207
vt 0.478036 1.296912
vt 0.432737 1.559325
vt 0.358116 1.542888
vt 0.287217 1.515943
vt 0.418679 1.279217
vt 0.418679 1.279217
vt 0.447599 1.290207
vt 0.358116 1.542888
vt 0.287217 1.515943
vt 0.221784 1.479153
vt 0.391990 1.264210
vt 0.391990 1.264210
vt 0.418679 1.279217
vt 0.287217 1.515943
vt 0.221784 1.479153
vt 0.163430 1.433425
vt 0.368187 1.245558
vt 0.368187 1.245558
vt 0.391990 1.264210
vt 0.221784 1.479153
vt 0.163430 1.433425
vt 0.113590 1.379884
vt 0.347858 1.223719
vt 0.347858 1.223719
vt 0.368187 1.245558
vt 0.163430 1.433425
vt 0.113590 1.379884
vt 0.073493 1.319849
vt 0.331503 1.199232
vt 0.331503 1.199232
vt 0.347858 1.223719
vt 0.113590 1.379884
vt 0.073493 1.319849
vt 0.044126 1.254798
vt 0.319524 1.172698
vt 0.319524 1.172698
vt 0.331503 1.199232
vt 0.073493 1.319849
vt 0.044126 1.254798
vt 0.026211 1.186333
vt 0.312217 1.144771
vt 0.312217 1.144771
vt 0.319524 1.172698
vt 0.044126 1.254798
vt 0.979810 1.116139
vt 0.973789 1.186333
vt 0.687783 1.144771
vt 0.687783 1.144771
vt 0.690239 1.116139
vt 0.979810 1.116139
vt 0.973789 1.186333
vt 0.955874 1.254798
vt 0.680476 1.172698
vt 0.680476 1.172698
vt 0.687783 1.144771
vt 0.973789 1.186333
vt 0.955874 1.254798
vt 0.926507 1.319849
vt 0.668497 1.199232
vt 0.668497 1.199232
vt 0.680476 1.172698
vt 0.955874 1.254798
vt 0.926507 1.319849
vt 0.886410 1.379884
vt 0.652142 1.223719
vt 0.652142 1.223719
vt 0.668497 1.199232
vt 0.926507 1.319849
vt 0.886410 1.379884
vt 0.836570 1.433425
vt 0.631813 1.245558
vt 0.631813 1.245558
vt 0.652142 1.223719
vt 0.886410 1.379884
vt 0.836570 1.433425
vt 0.778216 1.479153
vt 0.608010 1.264210
vt 0.608010 1.264210
vt 0.631813 1.245558
vt 0.836570 1.433425
vt 0.778216 1.479153
vt 0.712783 1.515943
vt 0.581321 1.279217
vt 0.581321 1.279217
vt 0.608010 1.264210
vt 0.778216 1.479153
vt 0.712783 1.515943
vt 0.641884 1.542888
vt 0.552401 1.290207
vt 0.552401 1.290207
vt 0.581321 1.279217
vt 0.712783 1.515943
vt 0.641884 1.542888
vt 0.567263 1.559325
vt 0.521964 1.296912
vt 0.521964 1.296912
vt 0.552401 1.290207
vt 0.641884 1.542888
vt 0.567263 1.559325
vt 0.490758 1.564849
vt 0.490758 1.299165
vt 0.490758 1.299165
vt 0.521964 1.296912
vt 0.567263 1.559325
vt 0.490758 1.564849
vt 0.414253 1.559325
vt 0.459552 1.296912
vt 0.459552 1.296912
vt 0.490758 1.299165
vt 0.490758 1.564849
vt 0.414253 1.559325
vt 0.339633 1.542888
vt 0.429115 1.290207
vt 0.429115 1.290207
vt 0.459552 1.296912
vt 0.414253 1.559325
vt 0.339633 1.542888
vt 0.268733 1.515943
vt 0.400195 1.279217
vt 0.400195 1.279217
vt 0.429115 1.290207
vt 0.339633 1.542888
vt 0.268733 1.515943
vt 0.203300 1.479153
vt 0.373506 1.264210
vt 0.373506 1.264210
vt 0.400195 1.279217
vt 0.268733 1.515943
vt 0.203300 1.479153
vt 0.144946 1.433425
vt 0.349703 1.245558
vt 0.349703 1.245558
vt 0.373506 1.264210
vt 0.203300 1.479153
vt 0.144946 1.433425
vt 0.095106 1.379884
vt 0.329374 1.223719
vt 0.329374 1.223719
vt 0.349703 1.245558
vt 0.144946 1.433425
vt 0.095106 1.379884
vt 0.055009 1.319849
vt 0.313019 1.199231
vt 0.313019 1.199231
vt 0.329374 1.223719
vt 0.095106 1.379884
vt 0.055009 1.319849
vt 0.025642 1.254798
vt 0.301040 1.172698
vt 0.301040 1.172698
vt 0.313019 1.199231
vt 0.055009 1.319849
vt 0.025642 1.254798
vt 0.007727 1.186333
vt 0.293733 1.144771
vt 0.293733 1.144771
vt 0.301040 1.172698
vt 0.025642 1.254798
vt 0.007727 1.186333
vt 0.001706 1.116139
vt 0.291277 1.116139
vt 0.291277 1.116139
vt 0.293733 1.144771
vt 0.007727 1.186333
vt 0.001706 1.116139
vt 0.007727 1.045946
vt 0.293733 1.087508
vt 0.293733 1.087508
vt 0.291277 1.116139
vt 0.001706 1.116139
vt 0.007727 1.045946
vt 0.025642 0.977480
vt 0.301040 1.059581
vt 0.301040 1.059581
vt 0.293733 1.087508
vt 0.007727 1.045946
vt 0.025642 0.977480
vt 0.055010 0.912429
vt 0.313019 1.033047
vt 0.313019 1.033047
vt 0.301040 1.059581
vt 0.025642 0.977480
vt 0.055010 0.912429
vt 0.095107 0.852395
vt 0.329374 1.008560
vt 0.329374 1.008560
vt 0.313019 1.033047
vt 0.055010 0.912429
vt 0.095107 0.852395
vt 0.144946 0.798854
vt 0.349704 0.986721
vt 0.349704 0.986721
vt 0.329374 1.008560
vt 0.095107 0.852395
vt 0.144946 0.798854
vt 0.203301 0.753126
vt 0.373506 0.968069
vt 0.373506 0.968069
vt 0.349704 0.986721
vt 0.144946 0.798854
vt 0.203301 0.753126
vt 0.268734 0.716336
vt 0.400196 0.953062
vt 0.400196 0.953062
vt 0.373506 0.968069
vt 0.203301 0.753126
vt 0.268734 0.716336
vt 0.339633 0.689391
vt 0.429115 0.942072
vt 0.429115 0.942072
vt 0.400196 0.953062
vt 0.268734 0.716336
vt 0.339633 0.689391
vt 0.414254 0.672954
vt 0.459553 0.935367
vt 0.459553 0.935367
vt 0.429115 0.942072
vt 0.339633 0.689391
vt 0.414254 0.672954
vt 0.490759 0.667430
vt 0.490758 0.933114
vt 0.490758 0.933114
vt 0.459553 0.935367
vt 0.414254 0.672954
vt 0.490759 0.667430
vt 0.567263 0.672955
vt 0.521964 0.935367
vt 0.521964 0.935367
vt 0.490758 0.933114
vt 0.490759 0.667430
vt 0.567263 0.672955
vt 0.641884 0.689392
vt 0.552401 0.942072
vt 0.552401 0.942072
vt 0.521964 0.935367
vt 0.567263 0.672955
vt 0.641884 0.689392
vt 0.712784 0.716337
vt 0.581321 0.953063
vt 0.581321 0.953063
vt 0.552401 0.942072
vt 0.641884 0.689392
vt 0.712784 0.716337
vt 0.778216 0.753126
vt 0.608010 0.968069
vt 0.608010 0.968069
vt 0.581321 0.953063
vt 0.712784 0.716337
vt 0.778216 0.753126
vt 0.836571 0.798855
vt 0.631813 0.986721
vt 0.631813 0.986721
vt 0.608010 0.968069
vt 0.778216 0.753126
vt 0.836571 0.798855
vt 0.886410 0.852395
vt 0.652142 1.008560
vt 0.652142 1.008560
vt 0.631813 0.986721
vt 0.836571 0.798855
vt 0.886410 0.852395
vt 0.926507 0.912430
vt 0.668497 1.033048
vt 0.668497 1.033048
vt 0.652142 1.008560
vt 0.886410 0.852395
vt 0.926507 0.912430
vt 0.955875 0.977481
vt 0.680476 1.059582
vt 0.680476 1.059582
vt 0.668497 1.033048
vt 0.926507 0.912430
vt 0.955875 0.977481
vt 0.973789 1.045947
vt 0.687784 1.087509
vt 0.687784 1.087509
vt 0.680476 1.059582
vt 0.955875 0.977481
vt 0.973789 1.045947
vt 0.979810 1.116139
vt 0.690239 1.116139
vt 0.690239 1.116139
vt 0.687784 1.087509
vt 0.973789 1.045947
f 1/1 2/2 3/3
f 3/4 4/5 1/6
f 2/7 5/8 6/9
f 6/10 3/11 2/12
f 5/13 7/14 8/15
f 8/16 6/17 5/18
f 7/19 9/20 10/21
f 10/22 8/23 7/24
f 9/25 11/26 12/27
f 12/28 10/29 9/30
f 11/31 13/32 14/33
f 14/34 12/35 11/36
f 13/37 15/38 16/39
f 16/40 14/41 13/42
f 15/43 17/44 18/45
f 18/46 16/47 15/48
f 17/49 19/50 20/51
f 20/52 18/53 17/54
f 19/55 21/56 22/57
f 22/58 20/59 19/60
f 21/61 23/62 24/63
f 24/64 22/65 21/66
f 23/67 25/68 26/69
f 26/70 24/71 23/72
f 25/73 27/74 28/75
f 28/76 26/77 25/78
f 27/79 29/80 30/81
f 30/82 28/83 27/84
f 29/85 31/86 32/87
f 32/88 30/89 29/90
f 31/91 33/92 34/93
f 34/94 32/95 31/96
f 33/97 35/98 36/99
f 36/100 34/101 33/102
f 35/103 37/104 38/105
f 38/106 36/107 35/108
f 37/109 39/110 40/111
f 40/112 38/113 37/114
f 39/115 41/116 42/117
f 42/118 40/119 39/120
f 41/121 43/122 44/123
f 44/124 42/125 41/126
f 43/127 45/128 46/129
f 46/130 44/131 43/132
f 45/133 47/134 48/135
f 48/136 46/137 45/138
f 47/139 49/140 50/141
f 50/142 48/143 47/144
f 49/145 51/146 52/147
f 52/148 50/149 49/150
f 51/151 53/152 54/153
f 54/154 52/155 51/156
f 53/157 55/158 56/159
f 56/160 54/161 53/162
f 55/163 57/164 58/165
f 58/166 56/167 55/168
f 57/169 59/170 60/171
f 60/172 58/173 57/174
f 59/175 61/176 62/177
f 62/178 60/179 59/180
f 61/181 63/182 64/183
f 64/184 62/185 61/186
f 63/187 65/188 66/189
f 66/190 64/191 63/192
f 65/193 67/194 68/195
f 68/196 66/197 65/198
f 67/199 69/200 70/201
f 70/202 68/203 67/204
f 69/205 71/206 72/207
f 72/208 70/209 69/210
f 71/211 73/212 74/213
f 74/214 72/215 71/216
f 73/217 75/218 76/219
f 76/220 74/221 73/222
f 75/223 77/224 78/225
f 78/226 76/227 75/228
f 77/229 79/230 80/231
f 80/232 78/233 77/234
f 79/235 1/236 4/237
f 4/238 80/239 79/240
f 81/241 82/242 83/243
f 83/244 84/245 81/246
f 82/247 85/248 86/249
f 86/250 83/251 82/252
f 85/253 87/254 88/255
f 88/256 86/257 85/258
f 87/259 89/260 90/261
f 90/262 88/263 87/264
f 89/265 91/266 92/267
f 92/268 90/269 89/270
f 91/271 93/272 94/273
f 94/274 92/275 91/276
f 93/277 95/278 96/279
f 96/280 94/281 93/282
f 95/283 97/284 98/285
f 98/286 96/287 95/288
f 97/289 99/290 100/291
f 100/292 98/293 97/294
f 99/295 101/296 102/297
f 102/298 100/299 99/300
f 101/301 103/302 104/303
f 104/304 102/305 101/306
f 103/307 105/308 106/309
f 106/310 104/311 103/312
f 105/313 107/314 108/315
f 108/316 106/317 105/318
f 107/319 109/320 110/321
f 110/322 108/323 107/324
f 109/325 111/326 112/327
f 112/328 110/329 109/330
f 111/331 113/332 114/333
f 114/334 112/335 111/336
f 113/337 115/338 116/339
f 116/340 114/341 113/342
f 115/343 117/344 118/345
f 118/346 116/347 115/348
f 117/349 119/350 120/351
f 120/352 118/353 117/354
f 119/355 121/356 122/357
f 122/358 120/359 119/360
f 121/361 123/362 124/363
f 124/364 122/365 121/366
f 123/367 125/368 126/369
f 126/370 124/371 123/372
f 125/373 127/374 128/375
f 128/376 126/377 125/378
f 127/379 129/380 130/381
f 130/382 128/383 127/384
f 129/385 131/386 132/387
f 132/388 130/389 129/390
f 131/391 133/392 134/393
f 134/394 132/395 131/396
f 133/397 135/398 136/399
f 136/400 134/401 133/402
f 135/403 137/404 138/405
f 138/406 136/407 135/408
f 137/409 139/410 140/411
f 140/412 138/413 137/414
f 139/415 141/416 142/417
f 142/418 140/419 139/420
f 141/421 143/422 144/423
f 144/424 142/425 141/426
f 143/427 145/428 146/429
f 146/430 144/431 143/432
f 145/433 147/434 148/435
f 148/436 146/437 145/438
f 147/439 149/440 150/441
f 150/442 148/443 147/444
f 149/445 151/446 152/447
f 152/448 150/449 149/450
f 151/451 153/452 154/453
f 154/454 152/455 151/456
f 153/457 155/458 156/459
f 156/460 154/461 153/462
f 155/463 157/464 158/465
f 158/466 156/467 155/468
f 157/469 159/470 160/471
f 160/472 158/473 157/474
f 159/475 81/476 84/477
f 84/478 160/479 159/480
