# USD → MuJoCo (world-space, simplified)
v -0.190669 -0.147669 -0.136597
v -0.190595 -0.143540 -0.159556
v -0.187697 -0.157342 -0.152115
v -0.194442 -0.120574 -0.135793
v -0.194363 -0.115141 -0.165128
v -0.179485 -0.183036 -0.142769
v -0.168041 -0.204267 -0.153398
v -0.183989 -0.170884 -0.144420
v -0.183913 -0.167524 -0.164213
v -0.179385 -0.179387 -0.164940
v -0.168007 -0.202351 -0.165317
v -0.174066 -0.191683 -0.161577
v -0.136799 -0.246301 -0.143080
v -0.153769 -0.227230 -0.142386
v -0.153738 -0.225426 -0.154078
v -0.145627 -0.236996 -0.142799
v -0.136768 -0.244562 -0.154755
v -0.136735 -0.242810 -0.166524
v -0.145511 -0.233979 -0.163227
v -0.096044 -0.277151 -0.144026
v -0.106999 -0.269959 -0.146999
v -0.096004 -0.275474 -0.155966
v -0.127376 -0.254092 -0.149419
v -0.127321 -0.252036 -0.163634
v -0.117394 -0.259830 -0.165771
v -0.117410 -0.261324 -0.155482
v -0.106894 -0.267549 -0.164294
v -0.060902 -0.292410 -0.147735
v -0.048529 -0.294918 -0.156681
v -0.084649 -0.282242 -0.150671
v -0.084599 -0.280283 -0.164881
v -0.072851 -0.285566 -0.164986
v -0.060817 -0.290062 -0.165098
v 0.002407 -0.303002 -0.145975
v -0.010483 -0.302322 -0.147895
v -0.023281 -0.299901 -0.156676
v -0.036024 -0.298968 -0.148098
v -0.035953 -0.296640 -0.165506
v 0.002407 -0.300134 -0.167497
v -0.010452 -0.299970 -0.165584
v -0.196129 -0.086620 -0.137723
v -0.196550 -0.045966 -0.137863
v -0.196510 -0.044096 -0.152018
v -0.196387 -0.063790 -0.158836
v -0.196057 -0.082117 -0.164009
v -0.194753 -0.106495 -0.127687
v -0.193697 -0.122213 -0.128350
v -0.192923 -0.122211 -0.127947
v -0.193976 -0.106516 -0.127279
v -0.192120 -0.136298 -0.128968
v -0.191352 -0.136263 -0.128571
v -0.190352 -0.136139 -0.128365
v -0.191917 -0.122130 -0.127741
v -0.192966 -0.106467 -0.127071
v -0.187012 -0.161458 -0.130076
v -0.186262 -0.161338 -0.129686
v -0.189164 -0.149147 -0.129150
v -0.189924 -0.149222 -0.129543
v -0.185287 -0.161108 -0.129480
v -0.188174 -0.148973 -0.128945
v -0.187032 -0.148733 -0.128865
v -0.189198 -0.135957 -0.128288
v -0.191799 -0.106372 -0.126997
v -0.190755 -0.121996 -0.127666
v -0.183285 -0.173476 -0.130566
v -0.182550 -0.173309 -0.130180
v -0.178763 -0.185229 -0.131035
v -0.178047 -0.185014 -0.130652
v -0.177114 -0.184664 -0.130445
v -0.181593 -0.173020 -0.129974
v -0.167423 -0.207740 -0.131986
v -0.166752 -0.207429 -0.131609
v -0.172774 -0.196403 -0.131122
v -0.173469 -0.196666 -0.131502
v -0.165879 -0.206959 -0.131400
v -0.171869 -0.195992 -0.130914
v -0.170824 -0.195483 -0.130822
v -0.164871 -0.206382 -0.131305
v -0.176036 -0.184224 -0.130356
v -0.181950 -0.168542 -0.129722
v -0.160645 -0.218401 -0.132507
v -0.160002 -0.218045 -0.132132
v -0.153170 -0.228607 -0.133049
v -0.152557 -0.228207 -0.132677
v -0.151759 -0.227624 -0.132468
v -0.159164 -0.217517 -0.131923
v -0.136261 -0.247479 -0.134136
v -0.135715 -0.246999 -0.133769
v -0.144450 -0.237872 -0.133228
v -0.145031 -0.238313 -0.133598
v -0.135006 -0.246315 -0.133558
v -0.143695 -0.237237 -0.133018
v -0.134244 -0.245450 -0.133448
v -0.150837 -0.226919 -0.132366
v -0.158444 -0.216466 -0.131802
v -0.126894 -0.256061 -0.134648
v -0.126386 -0.255544 -0.134283
v -0.116974 -0.264026 -0.135133
v -0.116505 -0.263476 -0.134770
v -0.115895 -0.262704 -0.134557
v -0.125725 -0.254815 -0.134072
v -0.095648 -0.277973 -0.136012
v -0.095264 -0.277365 -0.135648
v -0.106117 -0.270760 -0.135226
v -0.106544 -0.271341 -0.135588
v -0.094764 -0.276520 -0.135429
v -0.105561 -0.269950 -0.135011
v -0.109337 -0.266148 -0.134716
v -0.094187 -0.275517 -0.135307
v -0.106669 -0.256055 -0.134084
v -0.124962 -0.253944 -0.133962
v -0.084329 -0.283891 -0.136402
v -0.083990 -0.283258 -0.136035
v -0.072640 -0.289072 -0.136752
v -0.072347 -0.288417 -0.136381
v -0.071965 -0.287514 -0.136149
v -0.083549 -0.282382 -0.135810
v -0.048350 -0.297140 -0.137301
v -0.048152 -0.296453 -0.136927
v -0.060384 -0.292823 -0.136680
v -0.060630 -0.293495 -0.137053
v -0.047895 -0.295508 -0.136690
v -0.060063 -0.291896 -0.136444
v -0.059680 -0.290760 -0.136296
v -0.047597 -0.294392 -0.136545
v -0.072521 -0.285958 -0.135977
v -0.083052 -0.281318 -0.135678
v -0.035852 -0.299986 -0.137486
v -0.035703 -0.299287 -0.137118
v -0.023190 -0.302026 -0.137614
v -0.023090 -0.301320 -0.137252
v -0.022960 -0.300352 -0.137026
v -0.035509 -0.298329 -0.136884
v 0.002407 -0.303667 -0.137711
v 0.002407 -0.302955 -0.137358
v -0.010369 -0.302545 -0.137331
v -0.010419 -0.303255 -0.137688
v 0.002407 -0.301979 -0.137141
v -0.010304 -0.301570 -0.137112
v -0.007981 -0.295070 -0.136637
v -0.005916 -0.300768 -0.137011
v -0.031076 -0.298030 -0.136801
v 0.002407 -0.297857 -0.176116
v -0.010406 -0.297435 -0.176110
v -0.010355 -0.296597 -0.176401
v 0.002407 -0.297017 -0.176406
v -0.023166 -0.296179 -0.176093
v -0.023064 -0.295345 -0.176384
v -0.022931 -0.294311 -0.176522
v -0.010289 -0.295557 -0.176538
v 0.002407 -0.295974 -0.176543
v -0.048307 -0.291189 -0.176026
v -0.048104 -0.290374 -0.176319
v -0.035665 -0.293268 -0.176357
v -0.035817 -0.294094 -0.176065
v -0.047842 -0.289365 -0.176458
v -0.035467 -0.292245 -0.176495
v -0.035241 -0.291095 -0.176531
v -0.015277 -0.294080 -0.176569
v -0.060579 -0.287469 -0.175975
v -0.060329 -0.286668 -0.176271
v -0.072585 -0.282957 -0.175914
v -0.072286 -0.282173 -0.176212
v -0.071898 -0.281206 -0.176354
v -0.060002 -0.285678 -0.176411
v -0.095585 -0.271639 -0.175760
v -0.095195 -0.270898 -0.176064
v -0.083925 -0.276909 -0.176143
v -0.084271 -0.277673 -0.175842
v -0.094687 -0.269988 -0.176209
v -0.083477 -0.275969 -0.176286
v -0.087721 -0.272590 -0.176295
v -0.071438 -0.280129 -0.176391
v -0.054940 -0.286184 -0.176468
v -0.106477 -0.264875 -0.175668
v -0.106043 -0.264159 -0.175976
v -0.116902 -0.257414 -0.175566
v -0.116426 -0.256727 -0.175879
v -0.115809 -0.255889 -0.176028
v -0.105479 -0.263284 -0.176123
v -0.136177 -0.240539 -0.175337
v -0.135625 -0.239916 -0.175658
v -0.126301 -0.248635 -0.175773
v -0.126816 -0.249291 -0.175456
v -0.134907 -0.239164 -0.175814
v -0.125632 -0.247838 -0.175925
v -0.121050 -0.250329 -0.176011
v -0.134172 -0.238216 -0.175856
v -0.104831 -0.262307 -0.176164
v -0.144940 -0.231191 -0.175210
v -0.144353 -0.230603 -0.175536
v -0.153073 -0.221292 -0.175075
v -0.152453 -0.220740 -0.175407
v -0.151648 -0.220086 -0.175568
v -0.143590 -0.229899 -0.175695
v -0.167312 -0.200010 -0.174786
v -0.166636 -0.199539 -0.175130
v -0.159892 -0.210371 -0.175272
v -0.160541 -0.210883 -0.174934
v -0.165757 -0.198993 -0.175298
v -0.159048 -0.209770 -0.175436
v -0.164744 -0.198395 -0.175348
v -0.146295 -0.225050 -0.175688
v -0.173352 -0.188715 -0.174633
v -0.172652 -0.188287 -0.174982
v -0.178641 -0.177049 -0.174474
v -0.177919 -0.176664 -0.174830
v -0.176982 -0.176233 -0.175005
v -0.171742 -0.187798 -0.175154
v -0.186879 -0.152804 -0.174145
v -0.186126 -0.152503 -0.174514
v -0.182417 -0.164720 -0.174674
v -0.183157 -0.165062 -0.174311
v -0.185148 -0.152185 -0.174696
v -0.181457 -0.164346 -0.174853
v -0.180345 -0.163952 -0.174909
v -0.173125 -0.182366 -0.175144
v -0.189788 -0.140324 -0.173975
v -0.189024 -0.140063 -0.174351
v -0.191981 -0.127227 -0.173797
v -0.191209 -0.127001 -0.174180
v -0.190208 -0.126784 -0.174370
v -0.188032 -0.139798 -0.174537
v -0.194610 -0.097594 -0.173396
v -0.193831 -0.097426 -0.173793
v -0.192779 -0.112921 -0.173996
v -0.193556 -0.113116 -0.173606
v -0.192818 -0.097284 -0.173991
v -0.191771 -0.112746 -0.174190
v -0.191070 -0.107595 -0.174189
v -0.189058 -0.126570 -0.174432
v -0.185910 -0.144582 -0.174661
v -0.195243 -0.080265 -0.173162
v -0.194462 -0.080119 -0.173567
v -0.195560 -0.061361 -0.172907
v -0.194777 -0.061233 -0.173321
v -0.193761 -0.061130 -0.173527
v -0.193447 -0.080000 -0.173770
v -0.195665 -0.019758 -0.172343
v -0.194882 -0.040941 -0.173055
v -0.195665 -0.041114 -0.172633
v -0.193877 -0.038466 -0.173235
v -0.192404 -0.075517 -0.173780
v -0.180973 -0.105332 -0.126932
v -0.154764 -0.142456 -0.128470
v -0.141051 -0.151786 -0.128835
v -0.159139 -0.153218 -0.128936
v -0.156713 -0.103545 -0.126818
v -0.154394 -0.170425 -0.129602
v -0.150075 -0.183646 -0.130114
v -0.142269 -0.193354 -0.130505
v -0.140240 -0.182188 -0.130000
v -0.146010 -0.169161 -0.129509
v -0.136061 -0.171006 -0.129547
v -0.137015 -0.202121 -0.130934
v -0.121080 -0.209539 -0.131340
v -0.103493 -0.231663 -0.132648
v -0.084887 -0.250955 -0.133786
v -0.116345 -0.244757 -0.133390
v -0.077339 -0.265839 -0.134694
v -0.053876 -0.264242 -0.134596
v -0.062428 -0.236486 -0.132907
v -0.037992 -0.276282 -0.135349
v 0.015891 -0.278558 -0.135495
v -0.015408 -0.261897 -0.134463
v -0.044103 -0.276801 -0.176349
v -0.123914 -0.102637 -0.174126
v -0.165554 -0.051382 -0.173470
v -0.195852 0.179773 -0.116872
v -0.194961 0.179597 -0.115930
v -0.195935 0.178946 -0.116566
v -0.194009 0.179595 -0.115640
v -0.195027 0.177869 -0.115825
v -0.194011 0.177891 -0.115553
v -0.192846 0.179978 -0.115698
v -0.192847 0.179018 -0.115485
v -0.157987 0.179987 -0.115697
v -0.135097 0.177923 -0.115461
v -0.102689 -0.200577 -0.130837
v -0.124561 -0.189941 -0.130302
v -0.095084 -0.190861 -0.130344
v -0.084529 -0.216373 -0.131720
v -0.045322 -0.161492 -0.129173
v -0.059121 -0.170778 -0.129516
v -0.053054 -0.181431 -0.129946
v -0.047971 -0.193640 -0.130511
v 0.116815 -0.110899 -0.174232
v -0.033845 -0.170316 -0.174990
v -0.035411 -0.221548 -0.175643
v -0.178338 -0.133170 -0.128130
v -0.172487 -0.119928 -0.127531
v -0.159206 -0.203018 -0.131095
v -0.170039 -0.181460 -0.130188
v -0.163638 -0.191595 -0.130583
v -0.175416 -0.160136 -0.129322
v -0.130909 -0.228711 -0.132426
v -0.139207 -0.218712 -0.131852
v -0.042743 -0.284604 -0.135884
v -0.007124 -0.284823 -0.135907
v -0.030904 -0.289725 -0.136239
v -0.118471 -0.204348 -0.175424
v -0.168125 -0.179042 -0.175101
v -0.192706 0.176666 -0.170199
v -0.174325 0.176677 -0.170183
v -0.192717 0.177431 -0.169645
v -0.192711 0.175700 -0.170480
v -0.164549 -0.046454 -0.124587
v -0.196427 0.177073 -0.147777
v -0.195756 0.179485 -0.135841
v -0.196265 0.179720 -0.119526
v -0.195665 0.071206 -0.171101
v -0.195665 0.114691 -0.170508
v -0.194882 0.098586 -0.171226
v -0.193866 0.114699 -0.171267
v -0.193866 0.076783 -0.171754
v -0.194882 0.142650 -0.170648
v -0.192694 0.081195 -0.171779
v -0.172037 0.061564 -0.172020
v -0.174885 0.165558 -0.170687
v -0.195809 0.070707 -0.120618
v -0.195809 0.046607 -0.121577
v -0.195029 0.070723 -0.120127
v -0.195809 0.022299 -0.122570
v -0.195030 0.045119 -0.121159
v -0.194014 0.022321 -0.121869
v -0.194014 0.046639 -0.120858
v -0.194014 0.070747 -0.119880
v -0.195029 -0.025335 -0.124074
v -0.195029 -0.001821 -0.123107
v -0.195808 -0.022603 -0.124408
v -0.194012 -0.021831 -0.123710
v -0.192843 -0.002657 -0.122838
v -0.192843 -0.025267 -0.123774
v -0.192843 0.022254 -0.121794
v -0.192839 0.046809 -0.120770
v -0.170471 0.071361 -0.119758
v -0.164049 0.022544 -0.121758
v -0.162532 -0.023431 -0.123667
v -0.163281 -0.000279 -0.122713
v -0.129516 -0.000146 -0.122700
v -0.188563 0.042790 -0.172267
v -0.174617 0.094907 -0.118852
v -0.192851 0.132959 -0.117446
v -0.192734 0.178932 -0.157385
v -0.192796 0.180485 -0.131549
v -0.187744 -0.160037 -0.136934
v -0.192879 -0.135832 -0.131385
v -0.192864 -0.134600 -0.136623
v -0.195521 -0.105976 -0.130190
v -0.195502 -0.104882 -0.135260
v -0.195423 -0.099564 -0.164558
v -0.192775 -0.129031 -0.166850
v -0.194342 -0.113819 -0.171149
v -0.195399 -0.098253 -0.170904
v -0.187649 -0.154653 -0.167286
v -0.190570 -0.141876 -0.168355
v -0.168077 -0.206210 -0.141300
v -0.174161 -0.194936 -0.141289
v -0.174149 -0.195984 -0.135884
v -0.168082 -0.207104 -0.136399
v -0.179465 -0.184437 -0.135610
v -0.184009 -0.172424 -0.135964
v -0.183914 -0.166452 -0.169584
v -0.179375 -0.178441 -0.169936
v -0.168002 -0.201438 -0.170348
v -0.174055 -0.190265 -0.169627
v -0.136795 -0.246987 -0.139003
v -0.145599 -0.237756 -0.138529
v -0.153770 -0.227981 -0.138047
v -0.136787 -0.247225 -0.137826
v -0.145602 -0.237992 -0.137329
v -0.153775 -0.228311 -0.136452
v -0.161274 -0.217856 -0.136797
v -0.161309 -0.216892 -0.141852
v -0.161183 -0.213277 -0.165428
v -0.161206 -0.212297 -0.170671
v -0.153703 -0.222741 -0.170808
v -0.153705 -0.223605 -0.165882
v -0.136736 -0.242007 -0.171246
v -0.145521 -0.232785 -0.170475
v -0.106959 -0.270703 -0.142211
v -0.096024 -0.277694 -0.140672
v -0.106962 -0.271015 -0.140292
v -0.117433 -0.263649 -0.139886
v -0.117454 -0.263076 -0.143306
v -0.106964 -0.271224 -0.139166
v -0.096014 -0.277907 -0.139552
v -0.117423 -0.263878 -0.138720
v -0.127394 -0.255847 -0.138309
v -0.127392 -0.255628 -0.139456
v -0.127376 -0.255167 -0.142295
v -0.127345 -0.251223 -0.168744
v -0.127344 -0.250756 -0.171464
v -0.117386 -0.258908 -0.171551
v -0.117390 -0.259347 -0.168930
v -0.095982 -0.273152 -0.171838
v -0.106922 -0.266366 -0.171748
v -0.106922 -0.266808 -0.169102
v -0.095962 -0.273811 -0.167801
v -0.048557 -0.296492 -0.145112
v -0.060881 -0.293177 -0.142476
v -0.048542 -0.297095 -0.141217
v -0.072926 -0.288869 -0.141343
v -0.072942 -0.288339 -0.144735
v -0.060871 -0.293518 -0.140529
v -0.072918 -0.289074 -0.140233
v -0.084663 -0.283853 -0.139921
v -0.084661 -0.283653 -0.141025
v -0.084648 -0.283225 -0.143766
v -0.084610 -0.279470 -0.170356
v -0.072893 -0.284892 -0.169523
v -0.084622 -0.279103 -0.172411
v -0.072890 -0.284483 -0.172079
v -0.048512 -0.292733 -0.172211
v -0.060839 -0.288994 -0.172198
v -0.060839 -0.289405 -0.169628
v -0.048499 -0.293343 -0.168263
v 0.002407 -0.303563 -0.142186
v -0.010471 -0.303006 -0.143059
v -0.023298 -0.301423 -0.145358
v -0.010468 -0.303338 -0.141089
v 0.002407 -0.303753 -0.141103
v -0.023289 -0.302011 -0.141491
v -0.035995 -0.299969 -0.141337
v -0.035995 -0.299574 -0.143848
v -0.035966 -0.295893 -0.170728
v -0.023271 -0.297831 -0.171679
v -0.023259 -0.298316 -0.168465
v -0.035973 -0.295554 -0.172713
v -0.023276 -0.297637 -0.172775
v -0.010459 -0.298901 -0.172778
v 0.002407 -0.299404 -0.172371
v -0.010455 -0.299232 -0.170818
v -0.196472 -0.068557 -0.128795
v -0.196581 -0.001902 -0.126382
v -0.196571 -0.046967 -0.130811
v -0.196463 0.083110 -0.165603
v -0.196457 -0.041559 -0.169988
v -0.195678 0.177668 -0.166076
v -0.196144 0.176926 -0.166225
v -0.196378 0.175967 -0.166300
v -0.192724 0.178654 -0.161934
v -0.195016 0.180928 -0.119459
v -0.193978 0.180599 -0.128432
v -0.195799 0.180475 -0.119538
v -0.192827 0.181006 -0.123021
v 0.177592 0.178813 -0.159335
v -0.192712 0.178377 -0.166272
v -0.192816 0.180794 -0.126453
v -0.075142 0.178219 -0.167572
v -0.195809 0.165730 -0.117073
v -0.195029 0.167872 -0.116428
v -0.194013 0.167350 -0.116185
v -0.195029 0.159808 -0.116783
v -0.194014 0.159827 -0.116514
v -0.192836 0.149632 -0.116827
v -0.192837 0.159798 -0.116426
v -0.160418 0.159985 -0.116416
v -0.162376 0.150171 -0.116801
v -0.192847 0.169300 -0.115990
v -0.188103 0.163332 -0.170725
v -0.196540 0.176701 -0.135044
v -0.194879 0.174616 -0.170230
v -0.129408 0.174628 -0.170569
v -0.147448 0.169252 -0.170638
v -0.192846 0.177892 -0.115463
v -0.195659 0.174640 -0.169699
v -0.196136 0.135715 -0.169359
v -0.196372 0.174770 -0.167659
v -0.195807 0.177829 -0.116369
v -0.196274 0.177773 -0.117277
v -0.196506 0.177701 -0.118439
v -0.193855 0.174598 -0.170499
v -0.192684 0.174595 -0.170586
v -0.196275 0.142329 -0.118852
v -0.196505 0.162954 -0.119237
v -0.196274 0.165828 -0.117965
v -0.196581 0.177636 -0.119867
v -0.195809 0.149109 -0.117730
v -0.195021 0.147273 -0.117266
v -0.195809 0.115958 -0.118929
v -0.195029 0.115984 -0.118415
v -0.194014 0.116007 -0.118157
v -0.194014 0.149368 -0.116926
v -0.195029 0.094216 -0.119224
v -0.195809 0.094195 -0.119727
v -0.194014 0.094241 -0.118972
v -0.192843 0.094266 -0.118887
v -0.172379 0.118532 -0.117970
v -0.126391 0.135377 -0.117347
v -0.186634 0.111076 -0.171392
v -0.196374 0.118648 -0.168518
v -0.196136 0.053952 -0.170546
v -0.196136 0.093718 -0.169968
v -0.196374 0.071170 -0.169260
v -0.196456 0.087702 -0.167811
v -0.196456 0.174857 -0.166357
v -0.196495 0.175725 -0.151920
v -0.194882 0.002555 -0.172486
v -0.195665 0.025420 -0.171727
v -0.194882 0.025325 -0.172187
v -0.193866 0.025379 -0.172416
v -0.194882 0.048326 -0.171885
v -0.173011 0.023719 -0.172506
v -0.125178 -0.007807 -0.172911
v -0.163235 0.047454 -0.120723
v -0.195809 -0.047809 -0.125400
v -0.195029 -0.047838 -0.124968
v -0.195703 -0.069019 -0.126218
v -0.194924 -0.069054 -0.125796
v -0.193935 -0.068096 -0.125548
v -0.194608 -0.088705 -0.126564
v -0.195386 -0.088673 -0.126979
v -0.193595 -0.088675 -0.126353
v -0.192507 -0.086798 -0.126208
v -0.123674 -0.045768 -0.124550
v -0.185489 -0.024599 -0.173128
v -0.196278 -0.013671 -0.124802
v -0.196506 -0.013395 -0.125735
v -0.196275 0.070703 -0.121435
v -0.196275 0.045112 -0.122433
v -0.196506 0.075487 -0.122299
v -0.196506 0.034522 -0.123864
v -0.196581 0.046110 -0.124564
v -0.196581 0.082433 -0.123253
v -0.196581 -0.047444 -0.128074
v -0.196136 -0.041206 -0.171926
v -0.196031 -0.061524 -0.172216
v -0.196268 -0.061712 -0.171329
v -0.196376 -0.041452 -0.171006
v -0.195080 -0.097794 -0.172732
v -0.195714 -0.080447 -0.172485
v -0.195316 -0.098018 -0.171880
v -0.195951 -0.080655 -0.171616
v -0.196033 -0.080867 -0.170632
v -0.196351 -0.061902 -0.170318
v -0.175659 0.174617 -0.170570
v -0.195610 0.175710 -0.169613
v -0.194852 0.175691 -0.170135
v -0.193859 0.175697 -0.170396
v -0.194551 0.177622 -0.169005
v -0.194762 0.176571 -0.169884
v -0.193823 0.177382 -0.169588
v -0.193836 0.176641 -0.170121
v -0.171931 0.175720 -0.170465
v -0.148598 0.177436 -0.169634
v -0.195169 0.180608 -0.116911
v -0.195748 0.180506 -0.118330
v -0.196341 0.179419 -0.118347
v -0.196502 0.178740 -0.119641
v -0.172909 -0.143890 -0.128592
v -0.142895 -0.236394 -0.132908
v -0.059920 -0.287106 -0.136031
v -0.084521 -0.276969 -0.135388
v 0.005237 -0.295546 -0.136677
v -0.045648 -0.292668 -0.136410
v -0.016155 -0.288679 -0.176500
v 0.002407 -0.294802 -0.176578
v -0.092017 -0.258409 -0.176114
v -0.158173 -0.208955 -0.175483
v -0.187065 -0.088488 -0.173946
v -0.177069 -0.143994 -0.174654
v -0.192711 -0.032320 -0.173228
v -0.192826 0.180698 -0.116199
v -0.192844 0.070766 -0.119797
v -0.193908 0.178939 -0.156078
v -0.194492 0.178064 -0.167584
v -0.195524 0.177374 -0.168404
v -0.194893 0.178083 -0.166290
v -0.193880 0.178313 -0.166190
v -0.192840 0.181090 -0.117084
v -0.192836 0.181240 -0.118237
v -0.192831 0.181230 -0.119545
v -0.192843 0.165873 -0.116163
v -0.192837 0.116621 -0.118049
v -0.183348 -0.088041 -0.126242
v -0.192849 -0.048724 -0.124712
v -0.123287 -0.152136 -0.128834
v -0.103995 -0.160630 -0.129141
v -0.114280 -0.170779 -0.129512
v -0.127187 -0.180801 -0.129908
v -0.099414 -0.180577 -0.129890
v -0.010929 -0.194825 -0.130585
v 0.002407 -0.182019 -0.129983
v 0.014345 -0.170442 -0.129506
v -0.097277 -0.150934 -0.128782
v -0.120029 -0.043030 -0.173363
v -0.146674 0.179038 -0.115483
v -0.054470 0.180702 -0.116197
v 0.014362 0.179991 -0.115697
v -0.103227 -0.117325 -0.127375
v -0.118657 -0.102925 -0.126782
v -0.102745 -0.140792 -0.128370
v -0.146206 -0.117778 -0.127400
v -0.136761 -0.141280 -0.128399
v -0.131489 -0.160473 -0.174864
v 0.040881 -0.150881 -0.174742
v 0.143970 0.115565 -0.171327
v -0.136504 0.138207 -0.171037
v 0.124615 0.147508 -0.170917
v -0.130561 0.071815 -0.119733
v -0.101479 0.047866 -0.120701
v -0.121147 0.023738 -0.121702
v -0.068747 0.177928 -0.168729
v -0.001634 0.178654 -0.161925
v -0.135425 0.160028 -0.116413
v -0.122767 0.169364 -0.115985
v -0.133943 0.166017 -0.116154
v -0.088533 0.150203 -0.116798
v -0.132737 0.116238 -0.118049
v -0.130215 0.095133 -0.118835
v -0.114561 -0.066760 -0.125369
v -0.158970 -0.086792 -0.126155
v 0.002407 -0.242556 -0.133295
v -0.011267 -0.226295 -0.132328
v -0.008152 -0.210236 -0.131411
v -0.040333 -0.208557 -0.131306
v -0.044488 -0.222757 -0.132108
v -0.068408 -0.205328 -0.131108
v 0.192552 -0.159569 -0.139524
v 0.192515 -0.157439 -0.151521
v 0.195457 -0.146404 -0.143643
v 0.197671 -0.134294 -0.138457
v 0.195382 -0.142208 -0.166975
v 0.200235 -0.099389 -0.165469
v 0.200318 -0.104969 -0.134843
v 0.199177 -0.115025 -0.165652
v 0.172856 -0.204267 -0.153398
v 0.184237 -0.181447 -0.152714
v 0.184279 -0.183562 -0.140128
v 0.178909 -0.192069 -0.158950
v 0.188740 -0.168140 -0.160640
v 0.188803 -0.171884 -0.139009
v 0.188788 -0.170551 -0.146522
v 0.141582 -0.244562 -0.154755
v 0.158552 -0.225426 -0.154078
v 0.158587 -0.227268 -0.142131
v 0.141571 -0.243053 -0.164799
v 0.150339 -0.233997 -0.163009
v 0.158519 -0.223614 -0.165822
v 0.165984 -0.213258 -0.165648
v 0.166066 -0.215994 -0.147920
v 0.100819 -0.275484 -0.155895
v 0.111800 -0.269958 -0.147058
v 0.122225 -0.261341 -0.155359
v 0.122268 -0.263074 -0.143314
v 0.111683 -0.267139 -0.167230
v 0.122180 -0.259620 -0.167320
v 0.132135 -0.252041 -0.163599
v 0.132258 -0.254935 -0.143380
v 0.053371 -0.296491 -0.145123
v 0.065717 -0.292414 -0.147707
v 0.077720 -0.286680 -0.156766
v 0.077757 -0.288341 -0.144716
v 0.053314 -0.293345 -0.168253
v 0.065623 -0.289710 -0.167668
v 0.053344 -0.294921 -0.156657
v 0.089414 -0.280291 -0.164827
v 0.015297 -0.302321 -0.147905
v 0.015266 -0.299970 -0.165581
v 0.040751 -0.296303 -0.167991
v 0.040827 -0.298933 -0.148371
v 0.200948 -0.086893 -0.136196
v 0.201247 -0.066349 -0.142409
v 0.200866 -0.081804 -0.165850
v 0.199567 -0.106495 -0.127687
v 0.198791 -0.106516 -0.127279
v 0.197738 -0.122211 -0.127947
v 0.198511 -0.122213 -0.128350
v 0.197780 -0.106467 -0.127071
v 0.196731 -0.122130 -0.127741
v 0.195166 -0.136139 -0.128365
v 0.196166 -0.136263 -0.128571
v 0.196934 -0.136298 -0.128968
v 0.195569 -0.121996 -0.127666
v 0.196613 -0.106372 -0.126997
v 0.194012 -0.135957 -0.128288
v 0.190937 -0.153275 -0.129069
v 0.190101 -0.161108 -0.129480
v 0.192989 -0.148973 -0.128945
v 0.191826 -0.161458 -0.130076
v 0.194739 -0.149222 -0.129543
v 0.193978 -0.149147 -0.129150
v 0.191077 -0.161338 -0.129686
v 0.187364 -0.173309 -0.130180
v 0.188099 -0.173476 -0.130566
v 0.186407 -0.173020 -0.129974
v 0.181928 -0.184664 -0.130445
v 0.182861 -0.185014 -0.130652
v 0.183578 -0.185229 -0.131035
v 0.185305 -0.172658 -0.129889
v 0.180851 -0.184224 -0.130356
v 0.170010 -0.205727 -0.131272
v 0.176064 -0.194599 -0.130784
v 0.170693 -0.206959 -0.131400
v 0.176683 -0.195992 -0.130914
v 0.172237 -0.207740 -0.131986
v 0.178283 -0.196666 -0.131502
v 0.177588 -0.196403 -0.131122
v 0.171566 -0.207429 -0.131609
v 0.164816 -0.218045 -0.132132
v 0.165460 -0.218401 -0.132507
v 0.163979 -0.217517 -0.131923
v 0.156573 -0.227624 -0.132468
v 0.157371 -0.228207 -0.132677
v 0.157984 -0.228607 -0.133049
v 0.163016 -0.216877 -0.131824
v 0.155652 -0.226919 -0.132366
v 0.139059 -0.245450 -0.133448
v 0.147708 -0.236396 -0.132909
v 0.139820 -0.246315 -0.133558
v 0.148509 -0.237237 -0.133018
v 0.141075 -0.247479 -0.134136
v 0.149845 -0.238313 -0.133598
v 0.149265 -0.237872 -0.133228
v 0.140530 -0.246999 -0.133769
v 0.131200 -0.255544 -0.134283
v 0.131708 -0.256061 -0.134648
v 0.130539 -0.254815 -0.134072
v 0.120710 -0.262704 -0.134557
v 0.121320 -0.263476 -0.134770
v 0.121788 -0.264026 -0.135133
v 0.129776 -0.253944 -0.133962
v 0.120006 -0.261785 -0.134444
v 0.105412 -0.271813 -0.135071
v 0.099578 -0.276520 -0.135429
v 0.110375 -0.269950 -0.135011
v 0.100462 -0.277973 -0.136012
v 0.111358 -0.271341 -0.135588
v 0.110931 -0.270760 -0.135226
v 0.100078 -0.277365 -0.135648
v 0.088805 -0.283258 -0.136035
v 0.089144 -0.283891 -0.136402
v 0.088363 -0.282382 -0.135810
v 0.076779 -0.287514 -0.136149
v 0.077161 -0.288417 -0.136381
v 0.077454 -0.289072 -0.136752
v 0.087866 -0.281318 -0.135678
v 0.077335 -0.285959 -0.135977
v 0.052411 -0.294392 -0.136545
v 0.064495 -0.290761 -0.136296
v 0.052709 -0.295508 -0.136690
v 0.064877 -0.291896 -0.136444
v 0.053164 -0.297140 -0.137301
v 0.065444 -0.293495 -0.137053
v 0.065198 -0.292823 -0.136680
v 0.052967 -0.296453 -0.136927
v 0.040517 -0.299287 -0.137118
v 0.040667 -0.299986 -0.137486
v 0.040323 -0.298329 -0.136884
v 0.027775 -0.300352 -0.137026
v 0.027904 -0.301320 -0.137252
v 0.028005 -0.302026 -0.137614
v 0.039040 -0.297270 -0.136743
v 0.021338 -0.299977 -0.136949
v 0.015118 -0.301570 -0.137112
v 0.015233 -0.303255 -0.137688
v 0.015183 -0.302545 -0.137331
v 0.015170 -0.296597 -0.176401
v 0.015221 -0.297435 -0.176110
v 0.015103 -0.295557 -0.176538
v 0.027746 -0.294311 -0.176522
v 0.027878 -0.295345 -0.176384
v 0.027980 -0.296179 -0.176093
v 0.020091 -0.294080 -0.176569
v 0.059753 -0.286184 -0.176468
v 0.040088 -0.291080 -0.176531
v 0.052656 -0.289365 -0.176458
v 0.040281 -0.292245 -0.176495
v 0.053121 -0.291189 -0.176025
v 0.040631 -0.294094 -0.176065
v 0.040479 -0.293268 -0.176357
v 0.052918 -0.290374 -0.176319
v 0.065143 -0.286668 -0.176271
v 0.065394 -0.287469 -0.175975
v 0.064816 -0.285678 -0.176411
v 0.076712 -0.281206 -0.176354
v 0.077100 -0.282173 -0.176212
v 0.077399 -0.282957 -0.175914
v 0.083335 -0.277143 -0.176353
v 0.098917 -0.268966 -0.176249
v 0.099502 -0.269988 -0.176209
v 0.088291 -0.275969 -0.176286
v 0.100400 -0.271639 -0.175760
v 0.089085 -0.277673 -0.175842
v 0.088740 -0.276909 -0.176143
v 0.100009 -0.270898 -0.176064
v 0.110857 -0.264159 -0.175976
v 0.111291 -0.264875 -0.175668
v 0.110294 -0.263284 -0.176123
v 0.120623 -0.255889 -0.176028
v 0.121241 -0.256727 -0.175879
v 0.121716 -0.257414 -0.175566
v 0.109646 -0.262307 -0.176164
v 0.125861 -0.250330 -0.176011
v 0.144131 -0.233037 -0.175790
v 0.139722 -0.239164 -0.175814
v 0.130447 -0.247838 -0.175925
v 0.140991 -0.240539 -0.175337
v 0.131631 -0.249291 -0.175456
v 0.131116 -0.248635 -0.175773
v 0.140439 -0.239916 -0.175658
v 0.149167 -0.230603 -0.175537
v 0.149755 -0.231191 -0.175210
v 0.148405 -0.229899 -0.175695
v 0.156463 -0.220086 -0.175568
v 0.157267 -0.220740 -0.175407
v 0.157887 -0.221292 -0.175075
v 0.155534 -0.219363 -0.175616
v 0.165798 -0.204803 -0.175430
v 0.170571 -0.198993 -0.175298
v 0.163863 -0.209770 -0.175436
v 0.172126 -0.200010 -0.174786
v 0.165355 -0.210883 -0.174934
v 0.164706 -0.210371 -0.175272
v 0.171450 -0.199539 -0.175130
v 0.177466 -0.188287 -0.174982
v 0.178167 -0.188715 -0.174633
v 0.176556 -0.187798 -0.175154
v 0.181796 -0.176233 -0.175005
v 0.182733 -0.176664 -0.174830
v 0.183455 -0.177049 -0.174474
v 0.180716 -0.175771 -0.175060
v 0.186818 -0.159144 -0.174848
v 0.189962 -0.152185 -0.174697
v 0.186272 -0.164346 -0.174853
v 0.191694 -0.152804 -0.174145
v 0.187971 -0.165062 -0.174311
v 0.187232 -0.164720 -0.174674
v 0.190940 -0.152503 -0.174514
v 0.193839 -0.140063 -0.174351
v 0.194603 -0.140324 -0.173975
v 0.192846 -0.139798 -0.174537
v 0.195022 -0.126784 -0.174370
v 0.196024 -0.127001 -0.174180
v 0.196795 -0.127227 -0.173797
v 0.191698 -0.139525 -0.174597
v 0.193873 -0.126570 -0.174432
v 0.196465 -0.097159 -0.174056
v 0.195422 -0.112583 -0.174253
v 0.197633 -0.097284 -0.173991
v 0.196585 -0.112746 -0.174190
v 0.199425 -0.097594 -0.173396
v 0.198370 -0.113116 -0.173606
v 0.197593 -0.112921 -0.173996
v 0.198645 -0.097426 -0.173793
v 0.199276 -0.080119 -0.173567
v 0.200058 -0.080265 -0.173162
v 0.198261 -0.080000 -0.173770
v 0.198576 -0.061130 -0.173527
v 0.199592 -0.061233 -0.173321
v 0.200374 -0.061361 -0.172907
v 0.197220 -0.075442 -0.173779
v 0.198680 -0.008481 -0.172851
v 0.198680 -0.040912 -0.173268
v 0.200479 -0.019758 -0.172343
v 0.200479 -0.041114 -0.172633
v 0.199697 -0.040941 -0.173055
v 0.177302 -0.119928 -0.127531
v 0.161526 -0.103545 -0.126818
v 0.150031 -0.152245 -0.128859
v 0.165396 -0.141065 -0.128421
v 0.167209 -0.155327 -0.129042
v 0.158063 -0.175235 -0.129785
v 0.140876 -0.171006 -0.129547
v 0.150824 -0.169165 -0.129509
v 0.132363 -0.190283 -0.130322
v 0.147082 -0.193354 -0.130505
v 0.141598 -0.181659 -0.129964
v 0.150139 -0.208813 -0.131318
v 0.134733 -0.200190 -0.130825
v 0.130081 -0.224121 -0.132174
v 0.099304 -0.238069 -0.133024
v 0.091185 -0.254732 -0.134013
v 0.072452 -0.253026 -0.133907
v 0.050028 -0.269364 -0.134915
v 0.026070 -0.261121 -0.134415
v -0.006399 -0.274130 -0.135217
v 0.035888 -0.282726 -0.135766
v 0.047787 -0.261796 -0.176157
v 0.152184 -0.161612 -0.174879
v 0.186498 -0.056636 -0.173538
v 0.199987 0.180608 -0.116915
v 0.199775 0.179596 -0.115930
v 0.198781 0.180638 -0.116266
v 0.198823 0.179595 -0.115640
v 0.198828 0.177887 -0.115553
v 0.200618 0.178554 -0.116329
v 0.152126 0.180702 -0.116197
v 0.155748 0.179035 -0.115483
v 0.141109 0.174252 -0.115685
v 0.114110 -0.190123 -0.130305
v 0.118170 -0.199695 -0.130792
v 0.129685 -0.207885 -0.131246
v 0.082698 -0.228456 -0.132431
v 0.118248 -0.216619 -0.131756
v 0.056457 -0.170447 -0.129503
v 0.035015 -0.194501 -0.130564
v 0.047438 -0.181771 -0.129965
v 0.072516 -0.192462 -0.130439
v 0.086884 -0.180756 -0.129904
v 0.102444 -0.140779 -0.128369
v 0.049600 -0.207967 -0.175469
v 0.182459 -0.160500 -0.129351
v 0.183469 -0.139919 -0.128435
v 0.185790 -0.105332 -0.126932
v 0.172625 -0.180022 -0.130107
v 0.154254 -0.185605 -0.130197
v 0.137148 -0.229909 -0.132498
v 0.113095 -0.256134 -0.134089
v 0.079640 -0.268861 -0.134883
v 0.123097 -0.246866 -0.133520
v 0.115240 -0.245491 -0.133441
v 0.054009 -0.277525 -0.135428
v 0.033723 -0.289623 -0.136235
v 0.075058 -0.272595 -0.176295
v 0.121918 -0.236439 -0.175834
v 0.183291 -0.147994 -0.174705
v 0.193408 -0.088303 -0.173943
v 0.184646 -0.108209 -0.174198
v 0.197522 0.176665 -0.170199
v 0.181124 0.177433 -0.169637
v 0.176507 0.175717 -0.170465
v 0.178525 0.176672 -0.170185
v 0.184601 -0.087757 -0.126224
v 0.200570 0.179485 -0.135841
v 0.199697 0.098586 -0.171226
v 0.200479 0.071206 -0.171101
v 0.198681 0.088710 -0.171601
v 0.200479 0.114691 -0.170508
v 0.197513 0.094579 -0.171608
v 0.198669 0.174598 -0.170499
v 0.200473 0.174640 -0.169699
v 0.199697 0.132989 -0.170775
v 0.172974 0.067596 -0.171943
v 0.180616 0.121560 -0.171251
v 0.200623 0.070707 -0.120618
v 0.199844 0.070723 -0.120127
v 0.200623 0.046607 -0.121577
v 0.198829 0.070747 -0.119880
v 0.198829 0.046639 -0.120858
v 0.198829 0.022321 -0.121869
v 0.199845 0.045119 -0.121159
v 0.200623 0.022299 -0.122570
v 0.197657 0.070778 -0.119796
v 0.170290 0.023738 -0.121709
v 0.197679 -0.002430 -0.122829
v 0.198827 -0.021831 -0.123710
v 0.200622 -0.022603 -0.124408
v 0.199844 -0.001821 -0.123107
v 0.199844 -0.025335 -0.124074
v 0.168706 -0.000033 -0.122703
v 0.166939 -0.023358 -0.123664
v -0.108240 -0.023462 -0.123662
v 0.191110 0.148539 -0.116868
v 0.197597 0.180044 -0.138890
v 0.197561 0.179094 -0.154720
v -0.192760 0.179402 -0.149589
v 0.041301 0.179053 -0.155381
v 0.195480 -0.147849 -0.135975
v 0.197685 -0.135209 -0.133928
v 0.192557 -0.160365 -0.135523
v 0.199265 -0.120974 -0.133843
v 0.192570 -0.161087 -0.132406
v 0.197591 -0.129198 -0.166096
v 0.192464 -0.154640 -0.167349
v 0.192453 -0.153591 -0.171828
v 0.197575 -0.127954 -0.171401
v 0.200213 -0.098236 -0.170916
v 0.199154 -0.113814 -0.171168
v 0.178985 -0.194952 -0.141102
v 0.172891 -0.206203 -0.141351
v 0.184278 -0.184297 -0.136325
v 0.178963 -0.195815 -0.136716
v 0.172893 -0.206968 -0.137126
v 0.188816 -0.172464 -0.135934
v 0.184291 -0.184971 -0.133312
v 0.172906 -0.207601 -0.134210
v 0.178967 -0.196074 -0.135479
v 0.184192 -0.179334 -0.165307
v 0.188722 -0.166627 -0.168903
v 0.172820 -0.202337 -0.165407
v 0.178898 -0.190796 -0.166452
v 0.172815 -0.201436 -0.170363
v 0.178883 -0.190094 -0.170255
v 0.184190 -0.178439 -0.169932
v 0.150456 -0.237007 -0.142629
v 0.141614 -0.246315 -0.142981
v 0.158585 -0.227981 -0.138047
v 0.150414 -0.237756 -0.138529
v 0.141610 -0.246987 -0.139003
v 0.166073 -0.217195 -0.140521
v 0.166089 -0.217704 -0.137574
v 0.166092 -0.217946 -0.136378
v 0.158589 -0.228311 -0.136452
v 0.141602 -0.247223 -0.137834
v 0.150417 -0.237990 -0.137339
v 0.141563 -0.242236 -0.169924
v 0.150336 -0.232786 -0.170468
v 0.141562 -0.241897 -0.171697
v 0.158519 -0.222743 -0.170794
v 0.166020 -0.212292 -0.170704
v 0.111774 -0.270703 -0.142211
v 0.100858 -0.277151 -0.144026
v 0.122247 -0.263649 -0.139886
v 0.111777 -0.271015 -0.140292
v 0.100838 -0.277694 -0.140672
v 0.132206 -0.255628 -0.139456
v 0.132209 -0.255845 -0.138317
v 0.122238 -0.263878 -0.138721
v 0.100828 -0.277909 -0.139545
v 0.111779 -0.271227 -0.139155
v 0.122201 -0.259026 -0.170874
v 0.132140 -0.251071 -0.169796
v 0.100776 -0.273807 -0.167830
v 0.100798 -0.273265 -0.171169
v 0.111734 -0.266494 -0.171029
v 0.100806 -0.273046 -0.172324
v 0.111732 -0.266284 -0.172155
v 0.122210 -0.258798 -0.172037
v 0.132153 -0.250677 -0.171850
v 0.077741 -0.288869 -0.141343
v 0.065695 -0.293176 -0.142483
v 0.053356 -0.297095 -0.141216
v 0.089519 -0.283054 -0.144709
v 0.089476 -0.283653 -0.141025
v 0.089477 -0.283853 -0.139922
v 0.077732 -0.289074 -0.140234
v 0.065685 -0.293518 -0.140529
v 0.089425 -0.279471 -0.170353
v 0.077686 -0.285111 -0.168126
v 0.053328 -0.292836 -0.171575
v 0.065653 -0.288989 -0.172225
v 0.053336 -0.292636 -0.172686
v 0.077703 -0.284483 -0.172083
v 0.089436 -0.279103 -0.172411
v 0.015285 -0.303005 -0.143060
v 0.028104 -0.301345 -0.145909
v 0.028103 -0.302011 -0.141491
v 0.040810 -0.299574 -0.143848
v 0.040809 -0.299969 -0.141334
v 0.015282 -0.303338 -0.141089
v 0.028038 -0.298465 -0.167459
v 0.028085 -0.297831 -0.171679
v 0.040789 -0.295744 -0.171636
v 0.015269 -0.299232 -0.170818
v 0.015273 -0.298901 -0.172778
v 0.028090 -0.297637 -0.172773
v 0.040787 -0.295554 -0.172714
v 0.201288 -0.068571 -0.128817
v 0.201395 -0.047391 -0.128067
v 0.200970 -0.088190 -0.129527
v 0.201283 0.175149 -0.161709
v 0.201303 -0.043122 -0.159615
v 0.201270 -0.041587 -0.169997
v 0.200961 0.176933 -0.166170
v 0.201193 0.175971 -0.166280
v 0.201366 0.176975 -0.130354
v 0.197538 0.178654 -0.161934
v 0.199808 0.180375 -0.128443
v 0.200613 0.180475 -0.119533
v 0.198814 0.181154 -0.119507
v 0.199832 0.180929 -0.119514
v 0.197627 0.180794 -0.126451
v 0.197531 0.178377 -0.166267
v 0.199842 0.177869 -0.115825
v 0.198830 0.168101 -0.116150
v 0.199844 0.167872 -0.116428
v 0.197652 0.148943 -0.116854
v 0.197657 0.159838 -0.116425
v 0.198829 0.159827 -0.116514
v 0.200623 0.165730 -0.117073
v 0.199844 0.159808 -0.116783
v 0.199836 0.147274 -0.117266
v 0.197604 0.169186 -0.115996
v 0.152691 0.166023 -0.116154
v 0.130279 0.160021 -0.116413
v 0.191289 0.159843 -0.116424
v 0.158558 0.150164 -0.116800
v 0.186899 0.158561 -0.170780
v 0.032393 0.168757 -0.170644
v 0.201187 0.174772 -0.167656
v 0.201270 0.174860 -0.166346
v 0.200949 0.174703 -0.168802
v 0.201321 0.177701 -0.118439
v 0.201395 0.177599 -0.119745
v 0.201085 0.178433 -0.117239
v 0.197506 0.174597 -0.170585
v 0.199691 0.174622 -0.170231
v 0.166657 0.164904 -0.170694
v 0.201089 0.165828 -0.117965
v 0.201395 0.163048 -0.120538
v 0.200623 0.149109 -0.117730
v 0.198829 0.149368 -0.116926
v 0.198829 0.116007 -0.118157
v 0.199844 0.115984 -0.118415
v 0.200623 0.115958 -0.118929
v 0.197651 0.116621 -0.118049
v 0.197651 0.094962 -0.118860
v 0.198829 0.094241 -0.118972
v 0.200623 0.094195 -0.119727
v 0.199844 0.094216 -0.119224
v 0.168904 0.098096 -0.118726
v 0.201298 0.175461 -0.156410
v 0.201317 0.175889 -0.149043
v 0.200951 0.133028 -0.169398
v 0.200951 0.098579 -0.169897
v 0.201270 0.095556 -0.167678
v 0.201277 0.175011 -0.163961
v 0.201188 0.090403 -0.168959
v 0.201358 -0.045764 -0.140075
v 0.201356 0.052403 -0.137697
v 0.199697 0.002555 -0.172486
v 0.198680 0.025379 -0.172416
v 0.199697 0.025324 -0.172187
v 0.197507 0.016877 -0.172600
v 0.200479 0.025419 -0.171727
v 0.199697 0.048326 -0.171885
v 0.178165 0.015283 -0.172615
v 0.199844 -0.047838 -0.124968
v 0.200623 -0.047809 -0.125400
v 0.198829 -0.047819 -0.124750
v 0.198724 -0.069032 -0.125582
v 0.199738 -0.069054 -0.125796
v 0.200518 -0.069019 -0.126218
v 0.197657 -0.047767 -0.124674
v 0.197323 -0.086791 -0.126207
v 0.198409 -0.088675 -0.126353
v 0.200201 -0.088673 -0.126979
v 0.199422 -0.088705 -0.126564
v 0.157096 -0.086778 -0.126152
v -0.107903 -0.085927 -0.126113
v 0.201092 -0.013495 -0.124795
v 0.201321 -0.025123 -0.126191
v 0.201321 0.028507 -0.124100
v 0.201090 0.044388 -0.122462
v 0.201387 0.046281 -0.127081
v 0.201395 0.082433 -0.123253
v 0.201395 0.028597 -0.125224
v 0.201321 0.075487 -0.122299
v 0.201090 0.070703 -0.121435
v 0.200951 -0.041206 -0.171926
v 0.201189 -0.041359 -0.171010
v 0.201083 -0.061712 -0.171329
v 0.200845 -0.061524 -0.172216
v 0.201167 -0.061955 -0.170281
v 0.200847 -0.080877 -0.170631
v 0.200131 -0.098018 -0.171880
v 0.200765 -0.080655 -0.171616
v 0.200528 -0.080447 -0.172485
v 0.199894 -0.097794 -0.172732
v 0.198673 0.175697 -0.170396
v 0.199667 0.175691 -0.170135
v 0.200424 0.175710 -0.169613
v 0.198637 0.177382 -0.169588
v 0.198651 0.176641 -0.170121
v 0.200528 0.176611 -0.169049
v 0.199576 0.176571 -0.169884
v 0.155622 0.177435 -0.169634
v 0.159185 0.176676 -0.170183
v 0.197656 0.177893 -0.115462
v 0.197641 0.180698 -0.116199
v 0.201316 0.178747 -0.119675
v 0.200562 0.180506 -0.118330
v 0.201156 0.179421 -0.118349
v 0.200666 0.179773 -0.116872
v 0.144924 -0.219450 -0.131897
v 0.081989 -0.280181 -0.135589
v 0.057885 -0.289920 -0.136219
v 0.160470 -0.202097 -0.175395
v 0.175509 -0.187276 -0.175206
v 0.197509 -0.041023 -0.173339
v 0.197661 0.179018 -0.115485
v 0.197628 0.179983 -0.115698
v 0.197655 -0.025261 -0.123774
v 0.197644 0.047697 -0.120733
v 0.175692 0.071395 -0.119757
v 0.198750 0.179643 -0.144345
v 0.199731 0.178499 -0.159706
v 0.198694 0.178313 -0.166187
v 0.191382 0.165907 -0.116161
v 0.188746 0.174608 -0.170577
v 0.191807 0.036807 -0.172343
v 0.174673 -0.045943 -0.124572
v 0.197506 0.177430 -0.169649
v 0.197525 0.175700 -0.170480
v 0.089670 -0.170611 -0.129505
v 0.102159 -0.150935 -0.128782
v 0.121481 -0.170967 -0.129521
v 0.129611 -0.151315 -0.128803
v 0.122308 -0.180165 -0.129875
v 0.128143 -0.160833 -0.129157
v 0.126343 -0.040410 -0.173329
v 0.173170 0.177922 -0.115461
v 0.051548 0.180702 -0.116197
v 0.103872 -0.117370 -0.127377
v 0.130250 -0.102918 -0.126783
v 0.137970 -0.141333 -0.128398
v 0.151020 -0.117778 -0.127400
v 0.155222 0.047733 -0.120708
v 0.134254 0.023491 -0.121713
v 0.128420 0.071764 -0.119735
v 0.112928 -0.023474 -0.123663
v 0.137548 -0.000149 -0.122701
v -0.019788 0.178546 -0.163628
v 0.197634 0.181044 -0.122433
v 0.135383 0.169369 -0.115985
v 0.171001 0.171069 -0.170615
v 0.173576 0.174627 -0.170569
v 0.032881 0.165318 -0.170689
v 0.151566 0.135540 -0.117341
v 0.143958 0.116543 -0.118037
v 0.135725 0.095061 -0.118838
v 0.131687 0.026927 -0.172465
v 0.112928 -0.045804 -0.124551
v 0.117988 -0.085752 -0.126107
v 0.150206 -0.047780 -0.124633
v 0.125307 0.176678 -0.170183
v 0.067995 -0.233497 -0.132729
v 0.035237 -0.209116 -0.131343
v 0.085211 -0.215419 -0.131667
v 0.034288 -0.224511 -0.132218
v 0.084494 -0.203805 -0.131017
v -0.187756 -0.161087 -0.132428
v -0.190677 -0.148801 -0.131927
v -0.187682 -0.161296 -0.131519
v -0.190604 -0.149013 -0.131008
v -0.192807 -0.136047 -0.130456
v -0.190379 -0.149165 -0.130188
v -0.187460 -0.161430 -0.130711
v -0.192579 -0.136215 -0.129622
v -0.195217 -0.106380 -0.128362
v -0.194159 -0.122110 -0.129014
v -0.195447 -0.106199 -0.129225
v -0.194388 -0.121931 -0.129861
v -0.194462 -0.121707 -0.130813
v -0.168088 -0.207619 -0.134200
v -0.174158 -0.196486 -0.133749
v -0.168023 -0.207779 -0.133349
v -0.174092 -0.196656 -0.132884
v -0.179405 -0.185168 -0.132437
v -0.179474 -0.184987 -0.133316
v -0.173885 -0.196733 -0.132112
v -0.167824 -0.207838 -0.132589
v -0.179192 -0.185264 -0.131654
v -0.183724 -0.173480 -0.131193
v -0.183942 -0.173364 -0.131989
v -0.184013 -0.173173 -0.132879
v -0.136802 -0.247571 -0.136233
v -0.145607 -0.238357 -0.135722
v -0.136749 -0.247695 -0.135430
v -0.145551 -0.238489 -0.134908
v -0.153719 -0.228739 -0.134377
v -0.153778 -0.228598 -0.135202
v -0.145378 -0.238497 -0.134179
v -0.136587 -0.247688 -0.134710
v -0.153537 -0.228763 -0.133637
v -0.161030 -0.218529 -0.133102
v -0.161221 -0.218488 -0.133852
v -0.161283 -0.218338 -0.134690
v -0.096028 -0.278228 -0.138025
v -0.106967 -0.271560 -0.137618
v -0.095992 -0.278324 -0.137258
v -0.106926 -0.271662 -0.136844
v -0.117393 -0.264315 -0.136400
v -0.117439 -0.264206 -0.137183
v -0.106799 -0.271615 -0.136147
v -0.095877 -0.278266 -0.136568
v -0.117254 -0.264280 -0.135696
v -0.127198 -0.256293 -0.135217
v -0.127349 -0.256315 -0.135928
v -0.127398 -0.256199 -0.136721
v -0.048546 -0.297495 -0.139272
v -0.060873 -0.293831 -0.139035
v -0.048527 -0.297573 -0.138527
v -0.060850 -0.293913 -0.138285
v -0.072902 -0.289470 -0.137988
v -0.072930 -0.289385 -0.138742
v -0.060777 -0.293830 -0.137607
v -0.048469 -0.297484 -0.137852
v -0.072815 -0.289394 -0.137306
v -0.084532 -0.284199 -0.136957
v -0.084633 -0.284267 -0.137643
v -0.084666 -0.284176 -0.138403
v 0.002407 -0.304054 -0.139645
v -0.010468 -0.303640 -0.139626
v 0.002407 -0.304126 -0.138910
v -0.010463 -0.303713 -0.138890
v -0.023279 -0.302479 -0.138823
v -0.023289 -0.302405 -0.139561
v -0.010448 -0.303615 -0.138225
v 0.002407 -0.304027 -0.138247
v -0.023250 -0.302383 -0.138156
v -0.035941 -0.300337 -0.138033
v -0.035986 -0.300431 -0.138704
v -0.035999 -0.300355 -0.139445
v -0.196156 -0.088190 -0.129525
v -0.196083 -0.088382 -0.128545
v -0.196400 -0.068750 -0.127817
v -0.195852 -0.088557 -0.127666
v -0.196169 -0.068912 -0.126920
v -0.196275 -0.047715 -0.126117
v -0.196506 -0.047574 -0.127034
v -0.196581 0.142495 -0.121238
v -0.196274 0.096996 -0.120459
v -0.196506 0.125347 -0.120558
v -0.194620 0.181081 -0.118253
v -0.194002 0.181154 -0.119508
v -0.194011 0.180797 -0.116450
v -0.196573 0.177401 -0.122991
v -0.134926 0.181240 -0.118233
v -0.139659 0.181091 -0.117081
v -0.020487 0.181092 -0.117080
v 0.200335 -0.105991 -0.130197
v 0.199276 -0.121706 -0.130820
v 0.200261 -0.106199 -0.129225
v 0.199202 -0.121931 -0.129861
v 0.197621 -0.136047 -0.130456
v 0.197694 -0.135826 -0.131398
v 0.198973 -0.122110 -0.129014
v 0.200031 -0.106380 -0.128362
v 0.197393 -0.136215 -0.129622
v 0.192275 -0.161430 -0.130711
v 0.195193 -0.149165 -0.130188
v 0.192497 -0.161296 -0.131519
v 0.195419 -0.149013 -0.131008
v 0.195492 -0.148789 -0.131904
v 0.188831 -0.173154 -0.132846
v 0.188757 -0.173364 -0.131989
v 0.184219 -0.185168 -0.132437
v 0.188539 -0.173480 -0.131193
v 0.184007 -0.185264 -0.131654
v 0.172638 -0.207838 -0.132589
v 0.178699 -0.196734 -0.132112
v 0.172838 -0.207779 -0.133349
v 0.178906 -0.196656 -0.132884
v 0.178973 -0.196486 -0.133747
v 0.166098 -0.218338 -0.134690
v 0.166036 -0.218488 -0.133852
v 0.158534 -0.228739 -0.134377
v 0.158593 -0.228598 -0.135202
v 0.165845 -0.218529 -0.133102
v 0.158351 -0.228763 -0.133637
v 0.141402 -0.247688 -0.134710
v 0.150193 -0.238497 -0.134179
v 0.141564 -0.247695 -0.135430
v 0.150365 -0.238489 -0.134908
v 0.150421 -0.238357 -0.135722
v 0.141616 -0.247571 -0.136233
v 0.132212 -0.256199 -0.136721
v 0.132163 -0.256315 -0.135928
v 0.122208 -0.264315 -0.136400
v 0.122253 -0.264206 -0.137183
v 0.132012 -0.256293 -0.135217
v 0.122068 -0.264280 -0.135696
v 0.100692 -0.278266 -0.136568
v 0.111614 -0.271615 -0.136147
v 0.100806 -0.278324 -0.137258
v 0.111741 -0.271662 -0.136844
v 0.111782 -0.271560 -0.137618
v 0.100843 -0.278228 -0.138025
v 0.089480 -0.284176 -0.138403
v 0.089447 -0.284267 -0.137643
v 0.077717 -0.289470 -0.137988
v 0.077745 -0.289385 -0.138742
v 0.089347 -0.284199 -0.136957
v 0.077630 -0.289394 -0.137306
v 0.053283 -0.297484 -0.137852
v 0.065591 -0.293830 -0.137607
v 0.053342 -0.297573 -0.138527
v 0.065664 -0.293913 -0.138285
v 0.065688 -0.293831 -0.139035
v 0.053360 -0.297495 -0.139272
v 0.040814 -0.300355 -0.139445
v 0.040800 -0.300431 -0.138704
v 0.028093 -0.302479 -0.138823
v 0.028103 -0.302405 -0.139561
v 0.040756 -0.300337 -0.138033
v 0.028064 -0.302383 -0.138156
v 0.015263 -0.303615 -0.138225
v 0.015278 -0.303713 -0.138890
v 0.015283 -0.303640 -0.139626
v 0.201321 -0.047574 -0.127034
v 0.201215 -0.068750 -0.127817
v 0.201089 -0.047715 -0.126117
v 0.200984 -0.068912 -0.126920
v 0.200666 -0.088557 -0.127666
v 0.200897 -0.088382 -0.128545
v 0.201321 0.161813 -0.119290
v 0.201321 0.115895 -0.120881
v 0.201088 0.144798 -0.118759
v 0.201090 0.094176 -0.120565
v 0.199436 0.181081 -0.118253
v 0.198793 0.181020 -0.117121
v 0.197644 0.181090 -0.117083
v 0.079341 0.181092 -0.117080
v 0.201276 0.177830 -0.134933
v 0.201081 0.179724 -0.119572
v 0.197646 0.181230 -0.119543
v 0.197648 0.181240 -0.118234
v -0.194259 -0.113571 -0.172118
v -0.192679 -0.127710 -0.172335
v -0.192761 -0.127954 -0.171402
v -0.194023 -0.113335 -0.172954
v -0.192445 -0.127465 -0.173157
v -0.187333 -0.153082 -0.173526
v -0.190248 -0.140582 -0.173346
v -0.187562 -0.153341 -0.172731
v -0.190480 -0.140834 -0.172538
v -0.190560 -0.141078 -0.171628
v -0.187638 -0.153593 -0.171830
v -0.183903 -0.165870 -0.172038
v -0.183826 -0.165630 -0.172922
v -0.179294 -0.177648 -0.173108
v -0.179369 -0.177887 -0.172238
v -0.183602 -0.165363 -0.173703
v -0.179075 -0.177373 -0.173876
v -0.167719 -0.200380 -0.174208
v -0.173774 -0.189062 -0.174045
v -0.167924 -0.200672 -0.173464
v -0.173986 -0.189346 -0.173289
v -0.174059 -0.189584 -0.172434
v -0.167994 -0.200909 -0.172623
v -0.161196 -0.211811 -0.172805
v -0.161129 -0.211575 -0.173633
v -0.153633 -0.222013 -0.173795
v -0.153698 -0.222248 -0.172979
v -0.160932 -0.211275 -0.174365
v -0.153446 -0.221705 -0.174516
v -0.136509 -0.240992 -0.174794
v -0.145294 -0.231625 -0.174659
v -0.136676 -0.241314 -0.174094
v -0.145471 -0.231940 -0.173948
v -0.145532 -0.232174 -0.173144
v -0.136734 -0.241547 -0.173301
v -0.127335 -0.250323 -0.173447
v -0.127282 -0.250091 -0.174230
v -0.117332 -0.258237 -0.174356
v -0.117381 -0.258468 -0.173583
v -0.127126 -0.249762 -0.174920
v -0.117188 -0.257901 -0.175038
v -0.095820 -0.272155 -0.175243
v -0.106738 -0.265377 -0.175146
v -0.095939 -0.272501 -0.174577
v -0.106869 -0.265718 -0.174472
v -0.106914 -0.265948 -0.173708
v -0.095979 -0.272730 -0.173821
v -0.084619 -0.278781 -0.173922
v -0.084583 -0.278552 -0.174670
v -0.072856 -0.283851 -0.174752
v -0.072887 -0.284079 -0.174011
v -0.084479 -0.278202 -0.175331
v -0.072765 -0.283496 -0.175407
v -0.048428 -0.291745 -0.175526
v -0.060730 -0.288018 -0.175472
v -0.048490 -0.292105 -0.174880
v -0.060807 -0.288375 -0.174822
v -0.060833 -0.288603 -0.174086
v -0.048511 -0.292333 -0.174148
v -0.035971 -0.295246 -0.174197
v -0.035955 -0.295019 -0.174925
v -0.023258 -0.297109 -0.174958
v -0.023269 -0.297337 -0.174232
v -0.035909 -0.294656 -0.175568
v -0.023227 -0.296745 -0.175598
v 0.002407 -0.298426 -0.175622
v -0.010437 -0.298004 -0.175616
v 0.002407 -0.298792 -0.174984
v -0.010453 -0.298370 -0.174977
v -0.010458 -0.298597 -0.174253
v 0.002407 -0.299019 -0.174260
v -0.196456 0.019376 -0.168972
v -0.196136 0.002379 -0.171297
v -0.196374 0.019463 -0.170073
v -0.196210 0.176448 -0.167612
v -0.195715 0.176613 -0.169046
v -0.196067 0.175779 -0.168744
v -0.196133 0.174702 -0.168804
v -0.192694 0.177926 -0.168743
v -0.192723 0.178219 -0.167577
v -0.158210 0.177927 -0.168730
v -0.196472 0.175229 -0.160414
v -0.196476 -0.042512 -0.164026
v -0.194915 0.178490 -0.159852
v -0.103965 0.178376 -0.166268
v 0.195374 -0.141079 -0.171623
v 0.192376 -0.153341 -0.172731
v 0.195294 -0.140834 -0.172538
v 0.197494 -0.127710 -0.172335
v 0.195062 -0.140582 -0.173346
v 0.192147 -0.153082 -0.173526
v 0.197260 -0.127465 -0.173157
v 0.198837 -0.113335 -0.172954
v 0.199073 -0.113571 -0.172118
v 0.172809 -0.200909 -0.172623
v 0.178873 -0.189584 -0.172434
v 0.172739 -0.200672 -0.173464
v 0.178801 -0.189346 -0.173289
v 0.184108 -0.177648 -0.173108
v 0.184183 -0.177887 -0.172238
v 0.178588 -0.189062 -0.174045
v 0.172534 -0.200380 -0.174208
v 0.183889 -0.177373 -0.173876
v 0.188416 -0.165363 -0.173703
v 0.188640 -0.165630 -0.172922
v 0.188717 -0.165871 -0.172035
v 0.141548 -0.241547 -0.173301
v 0.150347 -0.232174 -0.173144
v 0.141491 -0.241314 -0.174094
v 0.150286 -0.231940 -0.173948
v 0.158448 -0.222013 -0.173795
v 0.158512 -0.222248 -0.172979
v 0.150108 -0.231625 -0.174659
v 0.141324 -0.240992 -0.174794
v 0.158260 -0.221705 -0.174516
v 0.165746 -0.211275 -0.174365
v 0.165943 -0.211575 -0.173633
v 0.166011 -0.211811 -0.172805
v 0.100793 -0.272730 -0.173821
v 0.111729 -0.265948 -0.173708
v 0.100753 -0.272501 -0.174577
v 0.111684 -0.265718 -0.174472
v 0.122146 -0.258237 -0.174356
v 0.122195 -0.258468 -0.173583
v 0.111552 -0.265377 -0.175146
v 0.100635 -0.272155 -0.175243
v 0.122002 -0.257901 -0.175038
v 0.131940 -0.249762 -0.174920
v 0.132096 -0.250091 -0.174230
v 0.132150 -0.250323 -0.173447
v 0.053325 -0.292333 -0.174148
v 0.065648 -0.288603 -0.174086
v 0.053304 -0.292105 -0.174880
v 0.065621 -0.288375 -0.174822
v 0.077670 -0.283851 -0.174752
v 0.077701 -0.284079 -0.174011
v 0.065545 -0.288018 -0.175472
v 0.053243 -0.291745 -0.175526
v 0.077579 -0.283496 -0.175407
v 0.089293 -0.278202 -0.175331
v 0.089398 -0.278552 -0.174670
v 0.089434 -0.278781 -0.173922
v 0.015273 -0.298597 -0.174253
v 0.015267 -0.298370 -0.174977
v 0.028072 -0.297109 -0.174958
v 0.028083 -0.297337 -0.174232
v 0.015252 -0.298004 -0.175616
v 0.028041 -0.296745 -0.175598
v 0.040723 -0.294656 -0.175568
v 0.040770 -0.295019 -0.174925
v 0.040786 -0.295246 -0.174197
v 0.201270 0.002159 -0.169265
v 0.201188 0.025117 -0.169985
v 0.200951 0.002379 -0.171297
v 0.200951 0.025193 -0.170965
v 0.200951 0.048238 -0.170629
v 0.200881 0.175779 -0.168744
v 0.200338 0.177374 -0.168404
v 0.201024 0.176451 -0.167609
v 0.200492 0.177668 -0.166072
v 0.197507 0.177926 -0.168743
v 0.170907 0.177927 -0.168730
v 0.197530 0.178219 -0.167581
v 0.156715 0.178219 -0.167572
v 0.083967 0.178376 -0.166266
v 0.201280 -0.042037 -0.167273
v 0.199708 0.178083 -0.166290
v 0.199304 0.178064 -0.167584
v 0.199366 0.177622 -0.169004
v 0.117063 0.177928 -0.168729
f 348 2 1
f 3 346 1
f 1 2 3
f 350 351 4
f 348 4 5
f 5 352 348
f 5 4 351
f 2 355 3
f 348 352 2
f 7 357 358
f 3 9 8
f 8 346 3
f 8 9 6
f 9 10 6
f 3 355 9
f 7 358 12
f 12 11 7
f 6 10 12
f 12 358 6
f 16 14 15
f 17 13 16
f 7 375 374
f 374 357 7
f 15 14 374
f 374 375 15
f 375 378 15
f 7 11 375
f 17 16 19
f 19 18 17
f 15 378 19
f 19 16 15
f 21 22 20
f 385 26 21
f 26 27 21
f 21 27 22
f 23 391 13
f 17 24 23
f 23 13 17
f 23 24 26
f 385 391 23
f 23 26 385
f 25 26 24
f 17 18 24
f 399 22 27
f 27 26 25
f 28 29 400
f 404 32 28
f 32 33 28
f 28 33 29
f 20 22 30
f 30 409 20
f 22 31 30
f 30 31 32
f 404 409 30
f 30 32 404
f 31 22 399
f 417 29 33
f 420 36 35
f 36 40 35
f 39 34 35
f 35 40 39
f 400 29 37
f 29 38 37
f 37 38 36
f 37 36 420
f 38 29 417
f 428 36 38
f 40 36 428
f 41 351 350
f 434 44 41
f 434 42 43
f 43 44 434
f 351 41 45
f 45 41 44
f 46 47 48
f 48 49 46
f 50 51 48
f 48 47 50
f 52 53 48
f 48 51 52
f 54 49 48
f 48 53 54
f 55 56 57
f 57 58 55
f 59 60 57
f 57 56 59
f 52 51 57
f 57 60 52
f 50 58 57
f 57 51 50
f 61 80 295
f 290 62 61
f 52 60 61
f 61 62 52
f 59 80 61
f 61 60 59
f 244 63 64
f 54 53 64
f 64 63 54
f 52 62 64
f 64 53 52
f 64 62 290
f 55 65 66
f 66 56 55
f 67 68 66
f 66 65 67
f 69 70 66
f 66 68 69
f 59 56 66
f 66 70 59
f 71 72 73
f 73 74 71
f 75 76 73
f 73 72 75
f 69 68 73
f 73 76 69
f 67 74 73
f 73 68 67
f 77 78 292
f 293 79 77
f 69 76 77
f 77 79 69
f 75 78 77
f 77 76 75
f 59 70 80
f 69 79 80
f 80 70 69
f 80 79 293
f 71 81 82
f 82 72 71
f 83 84 82
f 82 81 83
f 85 86 82
f 82 84 85
f 75 72 82
f 82 86 75
f 87 88 89
f 89 90 87
f 91 92 89
f 89 88 91
f 85 84 89
f 89 92 85
f 83 90 89
f 89 84 83
f 297 94 552
f 85 92 552
f 552 94 85
f 91 93 552
f 552 92 91
f 292 78 95
f 75 86 95
f 95 78 75
f 85 94 95
f 95 86 85
f 95 94 297
f 87 96 97
f 97 88 87
f 98 99 97
f 97 96 98
f 100 101 97
f 97 99 100
f 91 88 97
f 97 101 91
f 102 103 104
f 104 105 102
f 106 107 104
f 104 103 106
f 100 99 104
f 104 107 100
f 98 105 104
f 104 99 98
f 108 109 554
f 100 107 108
f 106 109 108
f 108 107 106
f 91 101 111
f 111 93 91
f 100 108 111
f 111 101 100
f 111 108 110
f 102 112 113
f 113 103 102
f 114 115 113
f 113 112 114
f 116 117 113
f 113 115 116
f 106 103 113
f 113 117 106
f 118 119 120
f 120 121 118
f 122 123 120
f 120 119 122
f 116 115 120
f 120 123 116
f 114 121 120
f 120 115 114
f 124 125 556
f 116 123 124
f 124 126 116
f 122 125 124
f 124 123 122
f 554 109 127
f 106 117 127
f 127 109 106
f 116 126 127
f 127 117 116
f 118 128 129
f 129 119 118
f 130 131 129
f 129 128 130
f 132 133 129
f 129 131 132
f 122 119 129
f 129 133 122
f 134 135 136
f 136 137 134
f 138 139 136
f 136 135 138
f 132 131 136
f 136 139 132
f 130 137 136
f 136 131 130
f 555 140 141
f 141 140 142
f 132 139 141
f 141 142 132
f 141 139 138
f 556 125 142
f 122 133 142
f 142 125 122
f 142 133 132
f 143 144 145
f 145 146 143
f 147 148 145
f 145 144 147
f 149 150 145
f 145 148 149
f 151 146 145
f 145 150 151
f 152 153 154
f 154 155 152
f 156 157 154
f 154 153 156
f 149 148 154
f 154 157 149
f 147 155 154
f 154 148 147
f 149 157 158
f 158 159 149
f 156 174 158
f 158 157 156
f 151 150 159
f 159 558 151
f 159 150 149
f 152 160 161
f 161 153 152
f 162 163 161
f 161 160 162
f 164 165 161
f 161 163 164
f 156 153 161
f 161 165 156
f 166 167 168
f 168 169 166
f 170 171 168
f 168 167 170
f 164 163 168
f 168 171 164
f 162 169 168
f 168 163 162
f 164 171 172
f 172 173 164
f 172 171 170
f 156 165 174
f 164 173 174
f 174 165 164
f 166 175 176
f 176 167 166
f 177 178 176
f 176 175 177
f 179 180 176
f 176 178 179
f 170 167 176
f 176 180 170
f 181 182 183
f 183 184 181
f 185 186 183
f 183 182 185
f 179 178 183
f 183 186 179
f 177 184 183
f 183 178 177
f 179 186 187
f 185 188 187
f 187 186 185
f 559 172 189
f 170 180 189
f 189 172 170
f 179 187 189
f 189 180 179
f 181 190 191
f 191 182 181
f 192 193 191
f 191 190 192
f 194 195 191
f 191 193 194
f 185 182 191
f 191 195 185
f 196 197 198
f 198 199 196
f 200 201 198
f 198 197 200
f 194 193 198
f 198 201 194
f 192 199 198
f 198 193 192
f 194 201 560
f 560 203 194
f 200 202 560
f 560 201 200
f 185 195 203
f 203 188 185
f 203 195 194
f 196 204 205
f 205 197 196
f 206 207 205
f 205 204 206
f 208 209 205
f 205 207 208
f 200 197 205
f 205 209 200
f 210 211 212
f 212 213 210
f 214 215 212
f 212 211 214
f 208 207 212
f 212 215 208
f 206 213 212
f 212 207 206
f 302 217 216
f 208 215 216
f 216 217 208
f 214 232 216
f 216 215 214
f 200 209 217
f 217 202 200
f 217 209 208
f 210 218 219
f 219 211 210
f 220 221 219
f 219 218 220
f 222 223 219
f 219 221 222
f 214 211 219
f 219 223 214
f 224 225 226
f 226 227 224
f 228 229 226
f 226 225 228
f 222 221 226
f 226 229 222
f 220 227 226
f 226 221 220
f 222 229 230
f 230 231 222
f 230 229 228
f 214 223 232
f 222 231 232
f 232 223 222
f 224 233 234
f 234 225 224
f 235 236 234
f 234 233 235
f 237 238 234
f 234 236 237
f 228 225 234
f 234 238 228
f 240 241 239
f 237 236 240
f 240 242 237
f 235 241 240
f 240 236 235
f 237 242 563
f 563 243 237
f 561 230 243
f 228 238 243
f 243 230 228
f 243 238 237
f 291 290 245
f 248 244 291
f 247 245 551
f 245 290 551
f 246 595 245
f 245 247 246
f 248 291 594
f 594 291 245
f 594 245 595
f 280 581 252
f 252 251 280
f 254 253 252
f 252 581 254
f 249 250 252
f 252 253 249
f 252 250 251
f 246 247 253
f 253 254 246
f 247 249 253
f 296 256 297
f 280 251 255
f 297 256 255
f 296 259 257
f 256 296 257
f 258 259 260
f 257 259 258
f 261 553 263
f 261 263 878
f 258 260 262
f 262 260 261
f 878 263 264
f 299 879 264
f 264 263 299
f 878 877 265
f 262 261 265
f 265 261 878
f 557 266 880
f 289 266 559
f 562 596 302
f 562 267 596
f 268 267 562
f 517 504 268
f 547 269 270
f 270 269 271
f 1309 547 270
f 270 272 1309
f 272 270 273
f 273 274 272
f 271 470 273
f 273 270 271
f 272 274 466
f 466 276 272
f 1309 272 275
f 275 564 1309
f 272 276 275
f 277 276 588
f 460 278 466
f 588 276 466
f 466 278 588
f 589 564 277
f 280 255 279
f 279 255 256
f 279 256 282
f 281 280 279
f 257 258 282
f 282 256 257
f 285 281 286
f 288 301 596
f 288 596 597
f 880 266 289
f 551 295 247
f 251 250 294
f 294 250 293
f 292 251 294
f 295 249 247
f 293 250 295
f 250 249 295
f 296 552 93
f 297 552 296
f 292 95 255
f 255 251 292
f 255 95 297
f 260 259 110
f 259 296 93
f 553 298 263
f 553 261 260
f 110 554 260
f 554 553 260
f 140 555 299
f 140 299 300
f 300 299 298
f 299 263 298
f 188 301 559
f 301 560 302
f 560 301 188
f 302 596 301
f 545 306 304
f 306 303 304
f 304 303 305
f 537 306 545
f 537 474 306
f 244 613 576
f 576 613 307
f 439 440 310
f 310 309 439
f 310 440 308
f 498 462 308
f 462 550 308
f 308 550 310
f 313 311 312
f 314 315 313
f 314 313 316
f 316 473 314
f 312 467 316
f 316 313 312
f 491 317 474
f 314 473 474
f 474 317 314
f 317 315 314
f 318 319 599
f 320 321 324
f 324 322 320
f 324 321 323
f 325 326 324
f 327 322 324
f 324 326 327
f 330 328 329
f 329 328 331
f 325 324 329
f 329 331 325
f 323 330 329
f 329 324 323
f 332 333 338
f 325 331 332
f 332 334 325
f 331 333 332
f 327 326 335
f 335 565 327
f 325 334 335
f 335 326 325
f 338 340 339
f 339 340 337
f 341 504 517
f 318 504 341
f 341 491 318
f 489 575 342
f 575 489 343
f 343 489 456
f 958 959 344
f 958 345 956
f 1224 1225 1
f 1 346 1224
f 347 348 1
f 1 1225 347
f 4 1236 349
f 4 349 350
f 347 1236 4
f 4 348 347
f 1403 352 353
f 352 5 353
f 351 354 353
f 353 5 351
f 1411 355 356
f 356 1410 1411
f 1403 1410 356
f 356 352 1403
f 355 2 356
f 356 2 352
f 360 359 358
f 358 357 360
f 361 6 358
f 358 359 361
f 1224 346 362
f 362 1248 1224
f 361 1248 362
f 346 8 362
f 362 8 6
f 362 6 361
f 355 363 9
f 364 10 9
f 9 363 364
f 1411 1412 363
f 363 355 1411
f 363 1412 364
f 11 12 366
f 366 12 10
f 366 10 364
f 365 11 366
f 367 368 16
f 16 13 367
f 369 14 16
f 16 368 369
f 369 368 371
f 371 372 369
f 367 370 371
f 371 368 367
f 369 372 373
f 369 373 374
f 374 14 369
f 360 357 374
f 374 373 360
f 365 376 375
f 375 11 365
f 377 378 375
f 375 376 377
f 18 19 380
f 380 19 378
f 380 378 377
f 379 18 380
f 381 21 20
f 382 383 381
f 381 20 382
f 384 385 381
f 381 383 384
f 385 21 381
f 384 383 386
f 386 388 384
f 382 387 386
f 386 383 382
f 367 390 389
f 389 370 367
f 384 388 389
f 389 390 384
f 384 390 391
f 391 385 384
f 367 13 391
f 391 390 367
f 392 24 18
f 379 393 392
f 392 18 379
f 394 395 392
f 392 393 394
f 25 24 392
f 392 395 25
f 399 27 398
f 25 395 398
f 398 27 25
f 394 397 398
f 398 395 394
f 396 399 398
f 398 397 396
f 401 28 400
f 401 400 402
f 403 404 401
f 404 28 401
f 403 401 405
f 405 406 403
f 405 401 402
f 382 408 407
f 407 387 382
f 403 406 407
f 407 408 403
f 403 408 409
f 409 404 403
f 382 20 409
f 409 408 382
f 410 31 399
f 410 399 396
f 413 411 410
f 32 31 410
f 410 411 32
f 413 410 412
f 412 410 396
f 417 33 416
f 32 411 416
f 416 33 32
f 413 415 416
f 416 411 413
f 414 417 416
f 416 415 414
f 419 35 34
f 419 34 418
f 423 420 419
f 420 35 419
f 423 419 421
f 418 422 421
f 421 419 418
f 400 37 425
f 425 37 420
f 423 424 425
f 425 420 423
f 402 400 425
f 425 424 402
f 426 38 417
f 426 417 414
f 427 428 426
f 428 38 426
f 427 426 429
f 429 430 427
f 429 426 414
f 432 433 431
f 427 430 431
f 431 433 427
f 39 40 433
f 433 40 428
f 433 428 427
f 432 39 433
f 434 41 1297
f 350 349 1297
f 1297 41 350
f 436 526 435
f 434 526 436
f 436 42 434
f 437 1483 1482
f 1482 1483 498
f 1483 43 498
f 437 438 1483
f 440 441 308
f 441 497 1482
f 308 441 1482
f 1482 498 308
f 524 1304 1310
f 1310 436 524
f 309 445 443
f 443 1484 309
f 1308 444 443
f 444 1484 443
f 1308 573 446
f 449 345 444
f 1308 446 449
f 449 444 1308
f 442 344 447
f 447 605 442
f 447 344 959
f 1485 448 1205
f 442 605 1205
f 1205 448 442
f 470 451 452
f 452 273 470
f 274 273 452
f 452 453 274
f 479 480 454
f 454 451 479
f 484 455 454
f 454 480 484
f 453 452 454
f 454 455 453
f 454 452 451
f 453 455 457
f 457 574 453
f 484 456 457
f 457 455 484
f 274 453 460
f 453 574 460
f 456 459 458
f 458 457 456
f 574 457 458
f 608 574 458
f 608 607 460
f 460 574 608
f 461 319 491
f 464 465 537
f 465 319 537
f 467 468 1478
f 1478 468 469
f 467 463 316
f 316 463 473
f 319 465 599
f 479 451 477
f 477 475 479
f 476 475 477
f 470 471 477
f 477 451 470
f 472 476 477
f 477 471 472
f 478 476 472
f 478 1304 476
f 1310 1304 478
f 481 482 480
f 480 479 481
f 483 484 480
f 480 482 483
f 320 322 485
f 485 486 320
f 327 487 485
f 485 322 327
f 483 482 485
f 485 487 483
f 481 486 485
f 485 482 481
f 483 487 488
f 488 575 483
f 327 565 488
f 488 487 327
f 343 456 484
f 483 575 343
f 343 484 483
f 489 459 456
f 610 489 342
f 489 490 459
f 610 490 489
f 491 319 318
f 468 467 312
f 468 492 469
f 311 493 494
f 495 492 494
f 494 493 495
f 492 468 494
f 312 311 494
f 494 468 312
f 496 492 495
f 469 492 497
f 492 496 497
f 497 496 437
f 462 43 42
f 498 43 462
f 239 500 499
f 499 240 239
f 500 501 499
f 502 242 499
f 499 501 502
f 242 240 499
f 311 313 503
f 503 500 311
f 503 313 315
f 502 501 503
f 503 315 502
f 503 501 500
f 341 563 317
f 502 315 317
f 317 563 502
f 563 242 502
f 341 517 563
f 587 268 504
f 504 505 587
f 338 339 332
f 332 339 337
f 330 507 508
f 508 328 330
f 509 510 508
f 508 507 509
f 508 510 511
f 331 328 508
f 508 511 331
f 46 49 512
f 512 513 46
f 54 514 512
f 512 49 54
f 511 510 512
f 512 514 511
f 509 513 512
f 512 510 509
f 515 63 244
f 511 514 515
f 54 63 515
f 515 514 54
f 338 333 577
f 331 511 577
f 577 333 331
f 511 515 577
f 613 244 248
f 268 561 517
f 561 268 562
f 323 521 518
f 518 330 323
f 523 519 518
f 518 521 523
f 320 520 521
f 521 321 320
f 522 523 521
f 521 520 522
f 323 321 521
f 524 435 523
f 522 525 524
f 524 523 522
f 435 526 519
f 435 519 523
f 239 241 527
f 235 528 527
f 527 241 235
f 529 530 527
f 527 528 529
f 224 531 532
f 532 233 224
f 533 534 532
f 532 531 533
f 529 528 532
f 532 534 529
f 235 233 532
f 532 528 235
f 529 534 535
f 535 536 529
f 533 354 535
f 535 534 533
f 529 536 438
f 438 530 529
f 460 466 274
f 537 319 461
f 461 474 537
f 538 539 463
f 463 467 538
f 540 473 463
f 463 539 540
f 568 541 542
f 542 1476 568
f 543 544 542
f 542 541 543
f 540 539 542
f 542 544 540
f 538 1476 542
f 542 539 538
f 540 544 303
f 303 306 540
f 543 305 303
f 303 544 543
f 540 306 474
f 474 473 540
f 304 305 546
f 464 537 545
f 471 470 271
f 549 472 471
f 471 271 549
f 548 549 269
f 269 547 548
f 549 271 269
f 310 550 549
f 548 445 310
f 310 549 548
f 549 550 478
f 478 472 549
f 551 61 295
f 290 61 551
f 244 64 291
f 291 64 290
f 294 77 292
f 293 77 294
f 295 80 293
f 110 108 554
f 93 111 259
f 259 111 110
f 553 124 556
f 126 124 553
f 126 553 554
f 554 127 126
f 140 300 142
f 142 300 556
f 298 553 556
f 556 300 298
f 557 158 174
f 159 158 557
f 558 159 557
f 173 172 559
f 266 557 174
f 173 559 266
f 266 174 173
f 559 189 188
f 188 189 187
f 188 203 560
f 562 216 232
f 302 216 562
f 202 217 302
f 302 560 202
f 231 230 561
f 561 562 231
f 562 232 231
f 561 243 563
f 561 563 517
f 564 275 277
f 277 275 276
f 474 461 491
f 341 317 491
f 332 337 334
f 334 337 506
f 334 506 335
f 336 565 335
f 335 506 336
f 958 344 566
f 566 345 958
f 439 309 1484
f 444 566 1484
f 345 566 444
f 543 541 1479
f 1479 305 543
f 567 1480 1479
f 1479 541 567
f 568 567 541
f 569 570 567
f 568 439 569
f 569 567 568
f 567 570 448
f 448 1480 567
f 342 488 565
f 342 565 336
f 575 488 342
f 576 515 244
f 577 307 338
f 576 307 577
f 515 576 577
f 579 283 586
f 579 586 578
f 284 283 579
f 579 580 284
f 246 254 578
f 254 580 578
f 580 579 578
f 281 582 581
f 581 280 281
f 581 582 580
f 581 580 254
f 281 285 582
f 284 580 582
f 582 285 284
f 583 584 285
f 285 286 583
f 285 584 284
f 585 284 584
f 283 284 585
f 268 587 267
f 588 590 277
f 277 590 589
f 588 278 1194
f 1195 589 590
f 267 287 597
f 267 597 596
f 591 1196 592
f 592 594 591
f 591 594 593
f 594 592 248
f 594 595 593
f 246 578 595
f 578 593 595
f 578 586 593
f 600 598 599
f 1202 601 602
f 506 601 336
f 337 603 506
f 603 602 506
f 506 602 601
f 340 338 954
f 340 603 337
f 450 604 1481
f 1481 604 546
f 1313 589 1195
f 607 608 1076
f 606 458 459
f 606 459 609
f 608 458 606
f 1076 608 606
f 1081 465 1208
f 1208 465 464
f 600 599 1210
f 465 1081 1210
f 599 465 1210
f 490 610 1212
f 609 459 490
f 336 601 611
f 611 342 336
f 610 342 611
f 1202 1213 611
f 611 601 1202
f 1212 610 611
f 611 1213 1212
f 505 504 318
f 1214 505 318
f 599 598 318
f 338 307 516
f 516 307 612
f 954 338 516
f 248 592 613
f 592 1132 613
f 612 307 613
f 613 1132 612
f 278 460 607
f 607 891 278
f 464 1209 1208
f 262 265 614
f 615 618 614
f 618 262 614
f 615 616 617
f 617 618 615
f 583 286 617
f 617 616 583
f 559 301 289
f 301 288 289
f 262 282 258
f 618 282 262
f 281 279 619
f 619 279 282
f 618 617 619
f 619 282 618
f 286 281 619
f 619 617 286
f 620 621 622
f 622 965 623
f 965 622 624
f 621 966 624
f 624 622 621
f 627 625 626
f 623 965 627
f 628 631 971
f 971 972 628
f 971 631 629
f 971 629 630
f 982 983 631
f 980 629 631
f 631 983 980
f 628 982 631
f 621 634 632
f 632 966 621
f 632 634 629
f 632 629 980
f 620 633 634
f 634 621 620
f 630 629 634
f 634 633 630
f 635 639 987
f 987 988 635
f 636 637 987
f 987 639 636
f 639 640 636
f 635 638 639
f 628 642 641
f 641 982 628
f 636 640 641
f 641 642 636
f 972 992 642
f 642 992 637
f 642 637 636
f 628 972 642
f 1004 643 644
f 644 645 646
f 647 643 1015
f 648 645 647
f 645 644 647
f 647 644 643
f 649 638 635
f 649 645 648
f 646 645 650
f 645 649 650
f 635 988 650
f 650 649 635
f 651 657 652
f 657 656 652
f 652 656 653
f 652 653 654
f 656 657 655
f 1031 653 656
f 1015 643 658
f 658 653 1031
f 1025 643 1004
f 654 653 1025
f 653 658 1025
f 1025 658 643
f 39 660 659
f 659 34 39
f 1043 1038 659
f 659 660 1043
f 655 657 661
f 657 662 661
f 661 662 1043
f 662 657 651
f 662 1038 1043
f 626 625 663
f 664 663 665
f 665 1146 664
f 665 663 625
f 664 1146 1111
f 1146 1054 1111
f 666 667 668
f 668 669 666
f 670 671 668
f 668 667 670
f 672 673 668
f 668 671 672
f 674 669 668
f 668 673 674
f 675 676 906
f 905 677 675
f 672 671 675
f 675 677 672
f 670 676 675
f 675 671 670
f 679 680 678
f 672 677 678
f 678 680 672
f 678 677 905
f 681 682 683
f 683 684 681
f 674 673 683
f 683 682 674
f 672 680 683
f 683 673 672
f 679 684 683
f 683 680 679
f 681 684 685
f 685 686 681
f 679 687 685
f 685 684 679
f 688 689 685
f 685 687 688
f 690 686 685
f 685 689 690
f 691 678 904
f 907 692 691
f 688 687 691
f 691 692 688
f 679 678 691
f 691 687 679
f 695 696 694
f 694 693 695
f 688 692 694
f 694 696 688
f 694 692 907
f 697 698 699
f 699 700 697
f 690 689 699
f 699 698 690
f 688 696 699
f 699 689 688
f 695 700 699
f 699 696 695
f 697 700 701
f 701 702 697
f 695 703 701
f 701 700 695
f 704 705 701
f 701 703 704
f 706 702 701
f 701 705 706
f 1167 708 707
f 704 703 707
f 707 708 704
f 695 693 707
f 707 703 695
f 711 712 710
f 710 709 711
f 704 708 710
f 710 712 704
f 710 708 1167
f 713 714 715
f 715 716 713
f 706 705 715
f 715 714 706
f 704 712 715
f 715 705 704
f 711 716 715
f 715 712 711
f 713 716 717
f 717 718 713
f 711 719 717
f 717 716 711
f 720 721 717
f 717 719 720
f 722 718 717
f 717 721 722
f 910 724 723
f 720 719 723
f 723 724 720
f 711 709 723
f 723 719 711
f 726 727 725
f 720 724 725
f 725 727 720
f 725 724 910
f 728 729 730
f 730 731 728
f 722 721 730
f 730 729 722
f 720 727 730
f 730 721 720
f 726 731 730
f 730 727 726
f 728 731 732
f 732 733 728
f 726 734 732
f 732 731 726
f 735 736 732
f 732 734 735
f 737 733 732
f 732 736 737
f 738 725 1168
f 735 734 738
f 738 739 735
f 726 725 738
f 738 734 726
f 1169 740 741
f 742 743 741
f 741 740 742
f 735 739 741
f 741 743 735
f 744 745 746
f 746 747 744
f 737 736 746
f 746 745 737
f 735 743 746
f 746 736 735
f 742 747 746
f 746 743 742
f 744 747 748
f 748 749 744
f 742 750 748
f 748 747 742
f 751 752 748
f 748 750 751
f 753 749 748
f 748 752 753
f 754 740 1169
f 751 750 754
f 754 755 751
f 742 740 754
f 754 750 742
f 555 141 755
f 138 756 755
f 755 141 138
f 755 756 751
f 754 555 755
f 134 757 758
f 758 135 134
f 753 752 758
f 758 757 753
f 751 756 758
f 758 752 751
f 138 135 758
f 758 756 138
f 143 146 759
f 759 760 143
f 151 761 759
f 759 146 151
f 762 763 759
f 759 761 762
f 764 760 759
f 759 763 764
f 762 761 765
f 151 558 765
f 765 761 151
f 768 769 767
f 767 766 768
f 762 765 767
f 767 769 762
f 770 771 772
f 772 773 770
f 764 763 772
f 772 771 764
f 762 769 772
f 772 763 762
f 768 773 772
f 772 769 768
f 770 773 774
f 774 775 770
f 768 776 774
f 774 773 768
f 777 778 774
f 774 776 777
f 779 775 774
f 774 778 779
f 777 776 766
f 766 780 777
f 766 776 768
f 916 781 780
f 782 783 780
f 780 781 782
f 780 783 777
f 784 785 786
f 786 787 784
f 779 778 786
f 786 785 779
f 777 783 786
f 786 778 777
f 782 787 786
f 786 783 782
f 784 787 788
f 788 789 784
f 782 790 788
f 788 787 782
f 791 792 788
f 788 790 791
f 793 789 788
f 788 792 793
f 794 781 916
f 791 790 794
f 794 795 791
f 782 781 794
f 794 790 782
f 797 798 795
f 795 796 797
f 795 798 791
f 799 800 801
f 801 802 799
f 793 792 801
f 801 800 793
f 791 798 801
f 801 792 791
f 797 802 801
f 801 798 797
f 799 802 803
f 803 804 799
f 797 805 803
f 803 802 797
f 806 807 803
f 803 805 806
f 808 804 803
f 803 807 808
f 1170 809 796
f 806 805 796
f 796 809 806
f 796 805 797
f 811 812 810
f 806 809 810
f 810 812 806
f 810 809 1170
f 813 814 815
f 815 816 813
f 808 807 815
f 815 814 808
f 806 812 815
f 815 807 806
f 811 816 815
f 815 812 811
f 813 816 817
f 817 818 813
f 811 819 817
f 817 816 811
f 820 821 817
f 817 819 820
f 822 818 817
f 817 821 822
f 918 823 1171
f 820 819 1171
f 1171 823 820
f 811 810 1171
f 1171 819 811
f 825 826 824
f 820 823 824
f 824 826 820
f 824 823 918
f 827 828 829
f 829 830 827
f 822 821 829
f 829 828 822
f 820 826 829
f 829 821 820
f 825 830 829
f 829 826 825
f 827 830 831
f 831 832 827
f 825 833 831
f 831 830 825
f 834 835 831
f 831 833 834
f 836 832 831
f 831 835 836
f 837 824 918
f 834 833 837
f 837 838 834
f 825 824 837
f 837 833 825
f 919 839 840
f 841 842 840
f 840 839 841
f 834 838 840
f 840 842 834
f 843 844 845
f 845 846 843
f 836 835 845
f 845 844 836
f 834 842 845
f 845 835 834
f 841 846 845
f 845 842 841
f 843 846 847
f 847 848 843
f 841 849 847
f 847 846 841
f 850 851 847
f 847 849 850
f 852 848 847
f 847 851 852
f 853 839 919
f 850 849 853
f 841 839 853
f 853 849 841
f 854 855 1172
f 1172 1116 854
f 850 853 1172
f 1172 855 850
f 856 857 858
f 852 851 858
f 858 857 852
f 850 855 858
f 858 851 850
f 858 855 854
f 859 906 860
f 1198 862 1199
f 862 859 1199
f 1199 859 860
f 862 1198 861
f 862 861 863
f 861 865 866
f 864 863 866
f 863 861 866
f 867 868 869
f 868 908 869
f 864 866 869
f 869 908 864
f 869 866 865
f 868 871 870
f 870 871 894
f 870 894 1167
f 871 868 867
f 896 872 894
f 1167 894 872
f 873 913 872
f 873 872 896
f 895 874 873
f 874 913 873
f 875 911 874
f 875 874 895
f 876 914 911
f 876 911 875
f 914 876 264
f 264 879 914
f 264 876 878
f 878 876 877
f 876 875 877
f 916 880 917
f 1170 917 881
f 881 287 918
f 920 918 287
f 1193 882 920
f 884 1166 883
f 885 886 884
f 884 883 885
f 888 1166 884
f 1174 1173 886
f 885 1162 1174
f 1174 886 885
f 886 1173 1161
f 1161 887 886
f 888 884 1066
f 886 887 1066
f 1066 884 886
f 890 1173 1174
f 1174 1162 889
f 1194 1173 890
f 867 892 893
f 893 871 867
f 892 1223 893
f 1221 894 893
f 893 1223 1221
f 894 871 893
f 1223 892 900
f 873 896 895
f 895 896 1221
f 896 894 1221
f 1188 585 897
f 900 901 899
f 899 898 900
f 899 901 897
f 901 1187 897
f 597 881 903
f 289 288 903
f 880 289 903
f 863 904 905
f 859 862 905
f 863 905 862
f 907 863 864
f 907 904 863
f 693 694 908
f 908 868 693
f 907 864 908
f 908 694 907
f 709 710 909
f 909 710 1167
f 693 868 870
f 1167 872 909
f 910 911 1168
f 709 909 912
f 913 909 872
f 910 912 913
f 913 912 909
f 910 913 911
f 913 874 911
f 911 914 1169
f 1169 1168 911
f 1169 914 879
f 299 555 915
f 915 1169 879
f 879 299 915
f 557 916 767
f 916 557 880
f 918 1170 881
f 920 882 919
f 922 1185 921
f 1186 1088 1182
f 923 1186 1182
f 1182 1209 923
f 922 921 924
f 924 921 1186
f 924 1186 923
f 1560 926 1056
f 1056 1397 1057
f 1086 1058 1397
f 1057 1397 1105
f 1105 1104 1057
f 1397 1058 1105
f 930 928 927
f 931 1088 932
f 931 932 929
f 934 1089 933
f 930 927 934
f 934 933 930
f 929 932 934
f 934 927 929
f 932 1089 934
f 598 936 935
f 937 938 943
f 943 939 937
f 940 941 943
f 943 938 940
f 943 941 942
f 944 939 943
f 1176 945 1177
f 946 947 1176
f 942 941 1176
f 1176 947 942
f 940 945 1176
f 1176 941 940
f 947 1175 948
f 947 948 942
f 950 951 949
f 944 943 950
f 950 949 944
f 942 948 950
f 950 943 942
f 948 951 950
f 1177 1200 1176
f 1176 1200 946
f 952 1204 953
f 946 1204 952
f 935 1183 1119
f 1099 1103 1177
f 1099 1098 1103
f 1103 1098 955
f 959 958 957
f 957 958 956
f 620 622 960
f 960 622 623
f 960 623 961
f 962 620 960
f 963 627 626
f 961 623 963
f 623 627 963
f 1314 1315 963
f 963 626 1314
f 1319 961 963
f 963 1315 1319
f 962 960 1327
f 1327 964 962
f 1327 960 961
f 1327 961 1319
f 967 1486 624
f 624 966 967
f 968 965 624
f 624 1486 968
f 969 625 627
f 627 970 969
f 968 970 627
f 627 965 968
f 973 974 971
f 971 630 973
f 975 972 971
f 971 974 975
f 962 976 633
f 633 620 962
f 973 630 633
f 633 976 973
f 973 976 1328
f 1328 977 973
f 962 964 1328
f 1328 976 962
f 979 1337 978
f 975 974 979
f 979 978 975
f 973 977 979
f 979 974 973
f 977 1337 979
f 966 632 981
f 981 632 980
f 981 980 986
f 984 985 983
f 983 982 984
f 986 980 983
f 983 985 986
f 967 966 981
f 981 1506 967
f 986 1506 981
f 989 990 987
f 987 637 989
f 991 988 987
f 987 990 991
f 975 993 992
f 992 972 975
f 989 637 992
f 992 993 989
f 989 993 994
f 994 995 989
f 975 978 994
f 994 993 975
f 991 990 997
f 997 996 991
f 989 995 997
f 997 990 989
f 1001 1002 641
f 641 640 1001
f 984 982 641
f 641 1002 984
f 638 998 999
f 999 639 638
f 1001 640 999
f 640 639 999
f 998 1000 999
f 1004 644 1003
f 1003 644 646
f 1005 1006 1003
f 1003 646 1005
f 1007 1004 1003
f 1003 1006 1007
f 991 1008 650
f 650 988 991
f 1005 646 650
f 650 1008 1005
f 1005 1008 1009
f 1009 1010 1005
f 991 996 1009
f 1009 1008 991
f 1007 1006 1012
f 1012 1011 1007
f 1005 1010 1012
f 1012 1006 1005
f 638 649 1014
f 1014 998 638
f 1014 649 648
f 1014 648 1013
f 1016 1017 647
f 647 1015 1016
f 1013 648 647
f 647 1017 1013
f 1013 1017 1019
f 1019 1020 1013
f 1016 1018 1019
f 1019 1017 1016
f 998 1014 1021
f 1021 1000 998
f 1013 1020 1021
f 1021 1014 1013
f 651 652 1023
f 1023 652 654
f 1023 654 1022
f 1024 651 1023
f 1007 1026 1025
f 1025 1004 1007
f 1022 654 1025
f 1025 1026 1022
f 1022 1026 1027
f 1027 1028 1022
f 1007 1011 1027
f 1027 1026 1007
f 1024 1023 1029
f 1022 1028 1029
f 1029 1023 1022
f 1015 658 1030
f 1030 658 1031
f 1030 1031 1035
f 1016 1015 1030
f 1032 1033 656
f 656 655 1032
f 1035 1031 656
f 656 1033 1035
f 1032 1034 1033
f 1016 1030 1036
f 1036 1018 1016
f 1036 1030 1035
f 34 659 1037
f 1037 659 1038
f 1037 1038 1039
f 418 34 1037
f 1040 662 651
f 1024 1041 1040
f 1040 651 1024
f 1039 1038 1040
f 1040 1041 1039
f 1038 662 1040
f 418 1037 1042
f 1042 422 418
f 1042 1037 1039
f 1044 1045 661
f 661 1043 1044
f 1032 655 661
f 661 1045 1032
f 1046 660 39
f 1046 39 432
f 1044 1043 1046
f 1043 660 1046
f 1044 1046 1047
f 1047 1048 1044
f 1047 1046 432
f 1032 1045 1049
f 1049 1034 1032
f 1044 1048 1049
f 1049 1045 1044
f 663 664 1050
f 1137 1051 1111
f 1050 664 1111
f 1111 1051 1050
f 1314 626 1052
f 626 663 1052
f 1052 663 1050
f 1053 1104 1054
f 1054 1566 1053
f 1566 1055 1109
f 1057 1104 1053
f 1057 1053 1109
f 1058 1092 1137
f 1060 1061 926
f 1062 1063 1060
f 1060 1178 1062
f 1060 1063 1061
f 1062 1178 1064
f 1064 1206 1062
f 1178 956 1064
f 1206 1399 1062
f 1059 447 957
f 1059 605 447
f 447 959 957
f 1059 1065 1205
f 1205 605 1059
f 1565 1485 1205
f 1205 1065 1565
f 956 345 1064
f 345 449 1064
f 1064 449 446
f 1064 446 1206
f 888 1066 1068
f 1068 1072 888
f 1068 1066 1067
f 955 1069 1070
f 1070 1078 955
f 1094 1071 1070
f 1070 1069 1094
f 1067 1075 1070
f 1070 1071 1067
f 1181 1078 1070
f 1070 1075 1181
f 1093 1072 1073
f 1073 1074 1093
f 1072 1068 1073
f 1067 1071 1073
f 1073 1068 1067
f 1094 1074 1073
f 1073 1071 1094
f 1076 1181 1075
f 1079 1078 1077
f 1077 1078 1181
f 1077 1181 1076
f 1078 1079 955
f 1080 1090 1208
f 1090 1081 1208
f 1209 1080 1208
f 1082 1083 1108
f 1108 1083 1109
f 1080 936 1090
f 1090 1210 1081
f 1093 1391 1091
f 1091 1072 1093
f 1091 1391 1389
f 1085 1389 1092
f 1092 1086 1085
f 888 1072 1091
f 1091 1087 888
f 1085 1087 1091
f 1091 1389 1085
f 1095 1096 1074
f 1074 1094 1095
f 1097 1093 1074
f 1074 1096 1097
f 1069 955 1098
f 1095 1094 1069
f 1069 1098 1095
f 1177 945 1099
f 940 1100 1099
f 1099 945 940
f 1095 1098 1099
f 1099 1100 1095
f 937 1101 1102
f 1102 938 937
f 1097 1096 1102
f 1102 1101 1097
f 1095 1100 1102
f 1102 1096 1095
f 940 938 1102
f 1102 1100 940
f 1103 955 1211
f 1211 1212 1103
f 1211 955 1079
f 936 1183 935
f 1058 1112 1105
f 1054 1104 1105
f 1112 1054 1105
f 933 1084 1106
f 1106 1084 1082
f 1110 1107 1106
f 1106 1082 1110
f 930 933 1106
f 1106 1107 930
f 1110 1082 1108
f 1107 928 930
f 1054 1112 1111
f 856 858 1113
f 1113 1117 856
f 1113 858 854
f 1114 1115 1113
f 1113 854 1114
f 1113 1115 1117
f 1114 854 1116
f 1114 1116 931
f 931 929 1114
f 928 1117 1118
f 1118 927 928
f 1117 1115 1118
f 1114 929 1118
f 1118 1115 1114
f 929 927 1118
f 1119 882 1193
f 953 947 952
f 952 947 946
f 949 951 1120
f 1120 1121 949
f 948 1122 1120
f 1120 951 948
f 1123 1124 1120
f 1120 1122 1123
f 1125 1121 1120
f 1120 1124 1125
f 1123 1122 1126
f 1126 1127 1123
f 948 1175 1126
f 1126 1122 948
f 906 676 1127
f 670 1128 1127
f 1127 676 670
f 1127 1128 1123
f 666 1129 1130
f 1130 667 666
f 1125 1124 1130
f 1130 1129 1125
f 1123 1128 1130
f 1130 1124 1123
f 670 667 1130
f 1130 1128 670
f 953 1217 1184
f 1217 1131 1184
f 925 1184 1131
f 860 906 925
f 925 1131 860
f 882 1119 1183
f 1134 1135 1133
f 1135 1136 1133
f 944 949 1133
f 1133 1136 944
f 1051 1137 1139
f 1134 1051 1139
f 1139 1135 1134
f 1137 1138 1139
f 1140 1135 1139
f 1139 1138 1140
f 937 939 1136
f 1136 1141 937
f 1136 939 944
f 1140 1141 1136
f 1136 1135 1140
f 1142 857 856
f 1144 1145 1142
f 1142 1143 1144
f 852 857 1142
f 1142 1145 852
f 1144 1143 1055
f 1055 1146 1144
f 1148 1149 1147
f 1147 969 1148
f 1144 1146 1147
f 1147 1149 1144
f 843 848 1150
f 1150 1151 843
f 852 1145 1150
f 1150 848 852
f 1144 1149 1150
f 1150 1145 1144
f 1148 1151 1150
f 1150 1149 1148
f 887 1067 1066
f 1161 1075 1067
f 1161 1067 887
f 891 1075 1194
f 278 891 1194
f 1080 1209 1182
f 1152 1153 1089
f 1089 932 1152
f 1154 933 1089
f 1089 1153 1154
f 1152 932 1088
f 1088 1186 1152
f 1155 1156 921
f 921 1185 1155
f 1152 1186 921
f 921 1156 1152
f 1558 1157 1158
f 1158 1569 1558
f 1154 1153 1158
f 1158 1157 1154
f 1152 1156 1158
f 1158 1153 1152
f 1155 1569 1158
f 1158 1156 1155
f 923 1160 924
f 1159 922 924
f 924 1160 1159
f 1075 1161 1194
f 1194 1161 1173
f 1087 1085 1165
f 1165 1085 1086
f 1086 1163 1165
f 1164 1165 1398
f 1398 1061 1164
f 1165 1163 1398
f 888 1087 1166
f 1166 1087 1165
f 1164 883 1166
f 1166 1165 1164
f 904 678 905
f 859 675 906
f 905 675 859
f 907 691 904
f 870 707 693
f 1167 707 870
f 1168 725 910
f 912 723 709
f 910 723 912
f 739 1168 1169
f 1169 741 739
f 739 738 1168
f 754 915 555
f 1169 915 754
f 767 916 766
f 767 765 558
f 767 558 557
f 780 766 916
f 796 795 917
f 917 794 916
f 795 794 917
f 1170 796 917
f 810 1170 1171
f 1171 1170 918
f 838 920 919
f 919 840 838
f 838 837 918
f 918 920 838
f 1172 1183 1116
f 1172 853 919
f 1183 1172 882
f 882 1172 919
f 1088 931 1080
f 1080 931 936
f 936 931 1183
f 953 1175 947
f 957 956 1178
f 1179 1060 926
f 1178 1060 1179
f 1179 926 1560
f 1180 1059 957
f 957 1178 1180
f 1180 1178 1179
f 1560 1567 1179
f 1179 1567 1180
f 1065 1059 1180
f 1080 1182 1088
f 1183 931 1116
f 906 1127 925
f 1184 1126 1175
f 1184 1175 953
f 1127 1126 1184
f 1184 925 1127
f 1188 897 1187
f 1189 1192 1187
f 1190 1188 1187
f 1187 1192 1190
f 900 892 901
f 892 1191 901
f 1189 1187 901
f 901 1191 1189
f 867 869 1191
f 1191 892 867
f 865 1189 1191
f 1191 869 865
f 861 1190 1192
f 1192 865 861
f 1192 1189 865
f 585 584 899
f 899 897 585
f 899 584 898
f 283 1188 586
f 283 585 1188
f 583 898 584
f 587 1193 287
f 287 267 587
f 1193 587 505
f 1194 890 588
f 889 1195 590
f 590 1174 889
f 588 890 590
f 890 1174 590
f 287 1193 920
f 1196 1197 592
f 591 902 1196
f 1198 1199 1196
f 1196 902 1198
f 1196 1199 1197
f 1190 1198 902
f 902 1188 1190
f 1198 1190 861
f 860 1197 1199
f 586 1188 593
f 1188 902 593
f 593 902 591
f 597 287 881
f 597 903 288
f 598 600 936
f 935 1214 598
f 1202 602 1200
f 603 1201 1200
f 1200 602 603
f 954 1203 1204
f 1204 340 954
f 603 340 1204
f 1204 1201 603
f 946 1201 1204
f 1203 953 1204
f 1177 1202 1200
f 1200 1201 946
f 1076 1207 607
f 609 1079 1077
f 1077 606 609
f 1076 606 1077
f 1207 1075 891
f 1076 1075 1207
f 1210 1090 600
f 936 600 1090
f 609 490 1211
f 1211 1079 609
f 1211 490 1212
f 1177 1103 1213
f 1213 1202 1177
f 1213 1103 1212
f 505 1214 1193
f 1214 318 598
f 935 1119 1214
f 1119 1193 1214
f 954 516 1215
f 1215 1203 954
f 612 1216 1215
f 1215 516 612
f 592 1197 1216
f 1216 1132 592
f 612 1132 1216
f 1131 1197 860
f 1131 1217 1216
f 1131 1216 1197
f 1203 1215 1217
f 1217 953 1203
f 1217 1215 1216
f 891 607 1207
f 545 923 1209
f 1209 464 545
f 1218 304 546
f 545 304 1218
f 1218 923 545
f 1159 1160 1218
f 1218 1160 923
f 546 1159 1218
f 877 1219 614
f 614 1219 1222
f 583 616 1220
f 1220 898 583
f 615 1222 1220
f 1220 616 615
f 614 265 877
f 614 1222 615
f 903 917 880
f 1219 875 895
f 1219 895 1221
f 1219 1221 1222
f 1222 1221 1223
f 1222 1223 1220
f 900 898 1220
f 1220 1223 900
f 1219 877 875
f 903 881 917
f 1226 1227 1225
f 1225 1224 1226
f 1228 347 1225
f 1225 1227 1228
f 55 58 1229
f 1229 1230 55
f 50 1231 1229
f 1229 58 50
f 1228 1227 1229
f 1229 1231 1228
f 1226 1230 1229
f 1229 1227 1226
f 46 1232 1233
f 1233 47 46
f 1234 1235 1233
f 1233 1232 1234
f 1228 1231 1233
f 1233 1235 1228
f 50 47 1233
f 1233 1231 50
f 1228 1235 1236
f 1236 347 1228
f 1234 349 1236
f 1236 1235 1234
f 360 1237 1238
f 1238 359 360
f 1239 1240 1238
f 1238 1237 1239
f 1241 1242 1238
f 1238 1240 1241
f 361 359 1238
f 1238 1242 361
f 71 74 1243
f 1243 1244 71
f 67 1245 1243
f 1243 74 67
f 1241 1240 1243
f 1243 1245 1241
f 1239 1244 1243
f 1243 1240 1239
f 55 1230 1246
f 1246 65 55
f 1226 1247 1246
f 1246 1230 1226
f 1241 1245 1246
f 1246 1247 1241
f 67 65 1246
f 1246 1245 67
f 361 1242 1248
f 1241 1247 1248
f 1248 1242 1241
f 1226 1224 1248
f 1248 1247 1226
f 370 1249 1250
f 1250 371 370
f 1251 1252 1250
f 1250 1249 1251
f 1253 1254 1250
f 1250 1252 1253
f 372 371 1250
f 1250 1254 372
f 87 90 1255
f 1255 1256 87
f 83 1257 1255
f 1255 90 83
f 1253 1252 1255
f 1255 1257 1253
f 1251 1256 1255
f 1255 1252 1251
f 71 1244 1258
f 1258 81 71
f 1239 1259 1258
f 1258 1244 1239
f 1253 1257 1258
f 1258 1259 1253
f 83 81 1258
f 1258 1257 83
f 360 373 1260
f 1260 1237 360
f 372 1254 1260
f 1260 373 372
f 1253 1259 1260
f 1260 1254 1253
f 1239 1237 1260
f 1260 1259 1239
f 387 1261 1262
f 1262 386 387
f 1263 1264 1262
f 1262 1261 1263
f 1265 1266 1262
f 1262 1264 1265
f 388 386 1262
f 1262 1266 388
f 102 105 1267
f 1267 1268 102
f 98 1269 1267
f 1267 105 98
f 1265 1264 1267
f 1267 1269 1265
f 1263 1268 1267
f 1267 1264 1263
f 87 1256 1270
f 1270 96 87
f 1251 1271 1270
f 1270 1256 1251
f 1265 1269 1270
f 1270 1271 1265
f 98 96 1270
f 1270 1269 98
f 370 389 1272
f 1272 1249 370
f 388 1266 1272
f 1272 389 388
f 1265 1271 1272
f 1272 1266 1265
f 1251 1249 1272
f 1272 1271 1251
f 402 1273 1274
f 1274 405 402
f 1275 1276 1274
f 1274 1273 1275
f 1277 1278 1274
f 1274 1276 1277
f 406 405 1274
f 1274 1278 406
f 118 121 1279
f 1279 1280 118
f 114 1281 1279
f 1279 121 114
f 1277 1276 1279
f 1279 1281 1277
f 1275 1280 1279
f 1279 1276 1275
f 102 1268 1282
f 1282 112 102
f 1263 1283 1282
f 1282 1268 1263
f 1277 1281 1282
f 1282 1283 1277
f 114 112 1282
f 1282 1281 114
f 387 407 1284
f 1284 1261 387
f 406 1278 1284
f 1284 407 406
f 1277 1283 1284
f 1284 1278 1277
f 1263 1261 1284
f 1284 1283 1263
f 422 1285 1286
f 1286 421 422
f 1287 1288 1286
f 1286 1285 1287
f 1289 1290 1286
f 1286 1288 1289
f 423 421 1286
f 1286 1290 423
f 134 137 1291
f 1291 1292 134
f 130 1293 1291
f 1291 137 130
f 1289 1288 1291
f 1291 1293 1289
f 1287 1292 1291
f 1291 1288 1287
f 118 1280 1294
f 1294 128 118
f 1275 1295 1294
f 1294 1280 1275
f 1289 1293 1294
f 1294 1295 1289
f 130 128 1294
f 1294 1293 130
f 402 424 1296
f 1296 1273 402
f 423 1290 1296
f 1296 424 423
f 1289 1295 1296
f 1296 1290 1289
f 1275 1273 1296
f 1296 1295 1275
f 1234 1298 1297
f 1297 349 1234
f 1299 434 1297
f 1297 1298 1299
f 46 513 1300
f 1300 1232 46
f 509 1301 1300
f 1300 513 509
f 1299 1298 1300
f 1300 1301 1299
f 1234 1232 1300
f 1300 1298 1234
f 330 518 1302
f 1302 507 330
f 519 1303 1302
f 1302 518 519
f 1299 1301 1302
f 1302 1303 1299
f 509 507 1302
f 1302 1301 509
f 1299 1303 526
f 526 434 1299
f 526 1303 519
f 525 1304 524
f 1306 1304 525
f 525 522 1306
f 320 486 1305
f 1305 520 320
f 1305 486 481
f 1306 522 1305
f 522 520 1305
f 476 1306 475
f 1306 1305 475
f 481 479 475
f 475 1305 481
f 1304 1306 476
f 548 1307 443
f 443 445 548
f 1307 1308 443
f 547 1309 1307
f 547 1307 548
f 1307 1309 571
f 571 572 1307
f 1309 564 571
f 1307 572 573
f 573 1308 1307
f 572 1311 573
f 564 1312 571
f 571 1312 1311
f 571 1311 572
f 1312 564 589
f 446 573 1399
f 1399 573 1311
f 436 435 524
f 462 42 1310
f 42 436 1310
f 310 445 309
f 462 1310 550
f 1310 478 550
f 1311 1312 1313
f 1313 1400 1311
f 1313 1312 589
f 1311 1400 1399
f 1316 1317 1315
f 1315 1314 1316
f 1318 1319 1315
f 1315 1317 1318
f 666 669 1320
f 1320 1321 666
f 674 1322 1320
f 1320 669 674
f 1318 1317 1320
f 1320 1322 1318
f 1316 1321 1320
f 1320 1317 1316
f 681 1323 1324
f 1324 682 681
f 1325 1326 1324
f 1324 1323 1325
f 1318 1322 1324
f 1324 1326 1318
f 674 682 1324
f 1324 1322 674
f 1318 1326 1327
f 1327 1319 1318
f 1325 964 1327
f 1327 1326 1325
f 1325 1329 1328
f 1328 964 1325
f 1330 977 1328
f 1328 1329 1330
f 681 686 1331
f 1331 1323 681
f 690 1332 1331
f 1331 686 690
f 1330 1329 1331
f 1331 1332 1330
f 1325 1323 1331
f 1331 1329 1325
f 697 1333 1334
f 1334 698 697
f 1335 1336 1334
f 1334 1333 1335
f 1330 1332 1334
f 1334 1336 1330
f 690 698 1334
f 1334 1332 690
f 1330 1336 1337
f 1337 977 1330
f 1335 978 1337
f 1337 1336 1335
f 1338 994 978
f 1335 1339 1338
f 1338 978 1335
f 1340 1341 1338
f 1338 1339 1340
f 995 994 1338
f 1338 1341 995
f 697 702 1342
f 1342 1333 697
f 706 1343 1342
f 1342 702 706
f 1340 1339 1342
f 1342 1343 1340
f 1335 1333 1342
f 1342 1339 1335
f 713 1344 1345
f 1345 714 713
f 1346 1347 1345
f 1345 1344 1346
f 1340 1343 1345
f 1345 1347 1340
f 706 714 1345
f 1345 1343 706
f 996 997 1348
f 1348 1349 996
f 995 1341 1348
f 1348 997 995
f 1340 1347 1348
f 1348 1341 1340
f 1346 1349 1348
f 1348 1347 1346
f 996 1349 1350
f 1350 1009 996
f 1346 1351 1350
f 1350 1349 1346
f 1352 1353 1350
f 1350 1351 1352
f 1010 1009 1350
f 1350 1353 1010
f 713 718 1354
f 1354 1344 713
f 722 1355 1354
f 1354 718 722
f 1352 1351 1354
f 1354 1355 1352
f 1346 1344 1354
f 1354 1351 1346
f 728 1356 1357
f 1357 729 728
f 1358 1359 1357
f 1357 1356 1358
f 1352 1355 1357
f 1357 1359 1352
f 722 729 1357
f 1357 1355 722
f 1011 1012 1360
f 1360 1361 1011
f 1010 1353 1360
f 1360 1012 1010
f 1352 1359 1360
f 1360 1353 1352
f 1358 1361 1360
f 1360 1359 1358
f 1011 1361 1362
f 1362 1027 1011
f 1358 1363 1362
f 1362 1361 1358
f 1364 1365 1362
f 1362 1363 1364
f 1028 1027 1362
f 1362 1365 1028
f 728 733 1366
f 1366 1356 728
f 737 1367 1366
f 1366 733 737
f 1364 1363 1366
f 1366 1367 1364
f 1358 1356 1366
f 1366 1363 1358
f 744 1368 1369
f 1369 745 744
f 1370 1371 1369
f 1369 1368 1370
f 1364 1367 1369
f 1369 1371 1364
f 737 745 1369
f 1369 1367 737
f 1024 1029 1372
f 1372 1373 1024
f 1028 1365 1372
f 1372 1029 1028
f 1364 1371 1372
f 1372 1365 1364
f 1370 1373 1372
f 1372 1371 1370
f 1024 1373 1374
f 1374 1041 1024
f 1370 1375 1374
f 1374 1373 1370
f 1376 1377 1374
f 1374 1375 1376
f 1039 1041 1374
f 1374 1377 1039
f 744 749 1378
f 1378 1368 744
f 753 1379 1378
f 1378 749 753
f 1376 1375 1378
f 1378 1379 1376
f 1370 1368 1378
f 1378 1375 1370
f 134 1292 1380
f 1380 757 134
f 1287 1381 1380
f 1380 1292 1287
f 1376 1379 1380
f 1380 1381 1376
f 753 757 1380
f 1380 1379 753
f 422 1042 1382
f 1382 1285 422
f 1039 1377 1382
f 1382 1042 1039
f 1376 1381 1382
f 1382 1377 1376
f 1287 1285 1382
f 1382 1381 1287
f 1134 1383 1051
f 1384 1050 1051
f 1051 1383 1384
f 949 1121 1385
f 1385 1133 949
f 1125 1386 1385
f 1385 1121 1125
f 1384 1383 1385
f 1385 1386 1384
f 1134 1133 1385
f 1385 1383 1134
f 666 1321 1387
f 1387 1129 666
f 1316 1388 1387
f 1387 1321 1316
f 1384 1386 1387
f 1387 1388 1384
f 1125 1129 1387
f 1387 1386 1125
f 1384 1388 1052
f 1052 1050 1384
f 1316 1314 1052
f 1052 1388 1316
f 1092 1389 1390
f 1391 1093 1097
f 1390 1389 1391
f 937 1141 1392
f 1392 1101 937
f 1392 1141 1140
f 1390 1391 1392
f 1392 1140 1390
f 1097 1101 1392
f 1392 1391 1097
f 1138 1137 1092
f 1390 1140 1138
f 1138 1092 1390
f 1393 1062 1399
f 1399 1400 1393
f 885 1394 1395
f 1395 1162 885
f 1393 1400 1395
f 1395 1394 1393
f 1164 1393 883
f 1393 1394 883
f 883 1394 885
f 1063 1062 1393
f 1164 1061 1063
f 1063 1393 1164
f 889 1162 1395
f 1206 446 1399
f 1092 1058 1086
f 1112 1058 1137
f 1112 1137 1111
f 1086 1397 1163
f 926 1061 1398
f 1398 1056 926
f 1163 1397 1398
f 1397 1056 1398
f 1195 1396 1313
f 1313 1396 1400
f 889 1395 1396
f 1396 1195 889
f 1396 1395 1400
f 533 1401 353
f 353 354 533
f 1402 1403 353
f 353 1401 1402
f 224 227 1404
f 1404 531 224
f 220 1405 1404
f 1404 227 220
f 1402 1401 1404
f 1404 1405 1402
f 533 531 1404
f 1404 1401 533
f 210 1406 1407
f 1407 218 210
f 1408 1409 1407
f 1407 1406 1408
f 1402 1405 1407
f 1407 1409 1402
f 220 218 1407
f 1407 1405 220
f 1402 1409 1410
f 1410 1403 1402
f 1408 1411 1410
f 1410 1409 1408
f 1408 1413 1412
f 1412 1411 1408
f 1414 1415 1412
f 1412 1413 1414
f 1412 1415 364
f 210 213 1416
f 1416 1406 210
f 206 1417 1416
f 1416 213 206
f 1414 1413 1416
f 1416 1417 1414
f 1408 1406 1416
f 1416 1413 1408
f 196 1418 1419
f 1419 204 196
f 1420 1421 1419
f 1419 1418 1420
f 1414 1417 1419
f 1419 1421 1414
f 206 204 1419
f 1419 1417 206
f 365 366 1422
f 1422 1423 365
f 364 1415 1422
f 1422 366 364
f 1414 1421 1422
f 1422 1415 1414
f 1420 1423 1422
f 1422 1421 1420
f 365 1423 1424
f 1424 376 365
f 1420 1425 1424
f 1424 1423 1420
f 1426 1427 1424
f 1424 1425 1426
f 377 376 1424
f 1424 1427 377
f 196 199 1428
f 1428 1418 196
f 192 1429 1428
f 1428 199 192
f 1426 1425 1428
f 1428 1429 1426
f 1420 1418 1428
f 1428 1425 1420
f 181 1430 1431
f 1431 190 181
f 1432 1433 1431
f 1431 1430 1432
f 1426 1429 1431
f 1431 1433 1426
f 192 190 1431
f 1431 1429 192
f 379 380 1434
f 1434 1435 379
f 377 1427 1434
f 1434 380 377
f 1426 1433 1434
f 1434 1427 1426
f 1432 1435 1434
f 1434 1433 1432
f 379 1435 1436
f 1436 393 379
f 1432 1437 1436
f 1436 1435 1432
f 1438 1439 1436
f 1436 1437 1438
f 394 393 1436
f 1436 1439 394
f 181 184 1440
f 1440 1430 181
f 177 1441 1440
f 1440 184 177
f 1438 1437 1440
f 1440 1441 1438
f 1432 1430 1440
f 1440 1437 1432
f 166 1442 1443
f 1443 175 166
f 1444 1445 1443
f 1443 1442 1444
f 1438 1441 1443
f 1443 1445 1438
f 177 175 1443
f 1443 1441 177
f 396 397 1446
f 1446 1447 396
f 394 1439 1446
f 1446 397 394
f 1438 1445 1446
f 1446 1439 1438
f 1444 1447 1446
f 1446 1445 1444
f 396 1447 1448
f 1448 412 396
f 1444 1449 1448
f 1448 1447 1444
f 1450 1451 1448
f 1448 1449 1450
f 413 412 1448
f 1448 1451 413
f 166 169 1452
f 1452 1442 166
f 162 1453 1452
f 1452 169 162
f 1450 1449 1452
f 1452 1453 1450
f 1444 1442 1452
f 1452 1449 1444
f 152 1454 1455
f 1455 160 152
f 1456 1457 1455
f 1455 1454 1456
f 1450 1453 1455
f 1455 1457 1450
f 162 160 1455
f 1455 1453 162
f 414 415 1458
f 1458 1459 414
f 413 1451 1458
f 1458 415 413
f 1450 1457 1458
f 1458 1451 1450
f 1456 1459 1458
f 1458 1457 1456
f 414 1459 1460
f 1460 429 414
f 1456 1461 1460
f 1460 1459 1456
f 1462 1463 1460
f 1460 1461 1462
f 430 429 1460
f 1460 1463 430
f 152 155 1464
f 1464 1454 152
f 147 1465 1464
f 1464 155 147
f 1462 1461 1464
f 1464 1465 1462
f 1456 1454 1464
f 1464 1461 1456
f 143 1466 1467
f 1467 144 143
f 1468 1469 1467
f 1467 1466 1468
f 1462 1465 1467
f 1467 1469 1462
f 147 144 1467
f 1467 1465 147
f 432 431 1470
f 1470 1471 432
f 430 1463 1470
f 1470 431 430
f 1462 1469 1470
f 1470 1463 1462
f 1468 1471 1470
f 1470 1469 1468
f 437 496 1472
f 1472 438 437
f 495 1474 1472
f 1472 496 495
f 311 500 493
f 493 1474 495
f 239 527 1473
f 1473 500 239
f 530 1474 1473
f 1473 527 530
f 1474 493 1473
f 1473 493 500
f 530 438 1472
f 1472 1474 530
f 568 1475 440
f 440 439 568
f 1475 441 440
f 538 1477 1476
f 1476 1477 1475
f 1476 1475 568
f 1475 1477 1478
f 1478 469 1475
f 538 467 1478
f 1478 1477 538
f 1475 469 497
f 497 441 1475
f 1480 448 1485
f 305 1479 1481
f 1481 1479 1480
f 1485 450 1480
f 1480 450 1481
f 546 305 1481
f 1482 497 437
f 351 45 535
f 535 354 351
f 535 45 536
f 45 44 536
f 536 44 1483
f 1483 438 536
f 44 43 1483
f 1484 569 439
f 570 569 1484
f 1484 566 570
f 570 566 344
f 344 442 570
f 570 442 448
f 1565 1564 450
f 450 1564 1570
f 450 1570 604
f 604 1570 546
f 1485 1565 450
f 1487 1488 1486
f 1486 967 1487
f 1489 968 1486
f 1486 1488 1489
f 827 832 1490
f 1490 1491 827
f 836 1492 1490
f 1490 832 836
f 1489 1488 1490
f 1490 1492 1489
f 1487 1491 1490
f 1490 1488 1487
f 843 1151 1493
f 1493 844 843
f 1148 1494 1493
f 1493 1151 1148
f 1489 1492 1493
f 1493 1494 1489
f 836 844 1493
f 1493 1492 836
f 1489 1494 970
f 970 968 1489
f 1148 969 970
f 970 1494 1148
f 984 1495 1496
f 1496 985 984
f 1497 1498 1496
f 1496 1495 1497
f 1499 1500 1496
f 1496 1498 1499
f 986 985 1496
f 1496 1500 986
f 813 818 1501
f 1501 1502 813
f 822 1503 1501
f 1501 818 822
f 1499 1498 1501
f 1501 1503 1499
f 1497 1502 1501
f 1501 1498 1497
f 827 1491 1504
f 1504 828 827
f 1487 1505 1504
f 1504 1491 1487
f 1499 1503 1504
f 1504 1505 1499
f 822 828 1504
f 1504 1503 822
f 986 1500 1506
f 1499 1505 1506
f 1506 1500 1499
f 1487 967 1506
f 1506 1505 1487
f 1000 1507 1508
f 1508 999 1000
f 1509 1510 1508
f 1508 1507 1509
f 1511 1512 1508
f 1508 1510 1511
f 1001 999 1508
f 1508 1512 1001
f 799 804 1513
f 1513 1514 799
f 808 1515 1513
f 1513 804 808
f 1511 1510 1513
f 1513 1515 1511
f 1509 1514 1513
f 1513 1510 1509
f 813 1502 1516
f 1516 814 813
f 1497 1517 1516
f 1516 1502 1497
f 1511 1515 1516
f 1516 1517 1511
f 808 814 1516
f 1516 1515 808
f 984 1002 1518
f 1518 1495 984
f 1001 1512 1518
f 1518 1002 1001
f 1511 1517 1518
f 1518 1512 1511
f 1497 1495 1518
f 1518 1517 1497
f 1018 1519 1520
f 1520 1019 1018
f 1521 1522 1520
f 1520 1519 1521
f 1523 1524 1520
f 1520 1522 1523
f 1020 1019 1520
f 1520 1524 1020
f 784 789 1525
f 1525 1526 784
f 793 1527 1525
f 1525 789 793
f 1523 1522 1525
f 1525 1527 1523
f 1521 1526 1525
f 1525 1522 1521
f 799 1514 1528
f 1528 800 799
f 1509 1529 1528
f 1528 1514 1509
f 1523 1527 1528
f 1528 1529 1523
f 793 800 1528
f 1528 1527 793
f 1000 1021 1530
f 1530 1507 1000
f 1020 1524 1530
f 1530 1021 1020
f 1523 1529 1530
f 1530 1524 1523
f 1509 1507 1530
f 1530 1529 1509
f 1034 1531 1532
f 1532 1033 1034
f 1533 1534 1532
f 1532 1531 1533
f 1535 1536 1532
f 1532 1534 1535
f 1035 1033 1532
f 1532 1536 1035
f 770 775 1537
f 1537 1538 770
f 779 1539 1537
f 1537 775 779
f 1535 1534 1537
f 1537 1539 1535
f 1533 1538 1537
f 1537 1534 1533
f 784 1526 1540
f 1540 785 784
f 1521 1541 1540
f 1540 1526 1521
f 1535 1539 1540
f 1540 1541 1535
f 779 785 1540
f 1540 1539 779
f 1018 1036 1542
f 1542 1519 1018
f 1035 1536 1542
f 1542 1036 1035
f 1535 1541 1542
f 1542 1536 1535
f 1521 1519 1542
f 1542 1541 1521
f 432 1471 1543
f 1543 1047 432
f 1468 1544 1543
f 1543 1471 1468
f 1545 1546 1543
f 1543 1544 1545
f 1048 1047 1543
f 1543 1546 1048
f 143 760 1547
f 1547 1466 143
f 764 1548 1547
f 1547 760 764
f 1545 1544 1547
f 1547 1548 1545
f 1468 1466 1547
f 1547 1544 1468
f 770 1538 1549
f 1549 771 770
f 1533 1550 1549
f 1549 1538 1533
f 1545 1548 1549
f 1549 1550 1545
f 764 771 1549
f 1549 1548 764
f 1034 1049 1551
f 1551 1531 1034
f 1048 1546 1551
f 1551 1049 1048
f 1545 1550 1551
f 1551 1546 1545
f 1533 1531 1551
f 1551 1550 1533
f 1552 1055 1143
f 1553 1108 1552
f 1552 1143 1553
f 1109 1055 1552
f 1552 1108 1109
f 856 1117 1554
f 1554 1142 856
f 1117 1555 1554
f 1553 1143 1554
f 1554 1555 1553
f 1143 1142 1554
f 928 1107 1556
f 1556 1117 928
f 1556 1107 1110
f 1553 1555 1556
f 1556 1110 1553
f 1556 1555 1117
f 1553 1110 1108
f 1559 1057 1083
f 1083 1082 1559
f 1057 1109 1083
f 1154 1557 1084
f 1084 933 1154
f 1559 1082 1084
f 1084 1557 1559
f 1558 1559 1157
f 1559 1557 1157
f 1157 1557 1154
f 1056 1057 1559
f 1558 1560 1056
f 1056 1559 1558
f 922 1562 1561
f 1561 1185 922
f 1561 1562 1563
f 1564 1565 1065
f 1065 1563 1564
f 1562 922 1159
f 1564 1563 1562
f 1159 1570 1562
f 1562 1570 1564
f 1053 1566 1109
f 1146 1055 1566
f 1566 1054 1146
f 969 1147 665
f 665 625 969
f 665 1147 1146
f 1558 1568 1567
f 1567 1560 1558
f 1568 1180 1567
f 1569 1568 1558
f 1568 1569 1561
f 1561 1563 1568
f 1155 1185 1561
f 1561 1569 1155
f 1568 1563 1065
f 1065 1180 1568
f 1570 1159 546
