# USD → MuJoCo (world-space, simplified)
v -3.295929 7.346207 1.486289
v -3.295108 7.346201 1.486592
v -3.295926 7.368423 1.486502
v -3.296257 7.369495 1.485946
v -3.295109 7.362355 1.486792
v -3.292976 7.345070 1.486702
v -3.293336 7.377923 1.486856
v -3.295110 7.383258 1.486686
v -3.122114 7.525336 1.466368
v -3.122420 7.540341 1.457151
v -3.121872 7.544069 1.454351
v -3.122281 7.547393 1.452598
v -3.122456 7.516573 1.471760
v -3.123079 7.526803 1.465603
v -3.121874 7.215646 1.470076
v -3.122154 7.197874 1.459467
v -3.121855 7.183509 1.449864
v -3.121745 7.223706 1.469682
v -3.296420 7.221719 1.473278
v -3.295901 7.221566 1.473695
v -3.294646 7.217539 1.471580
v -3.296392 7.225483 1.475227
v -3.291509 7.228056 1.476542
v -3.295744 7.228092 1.476246
v -3.296086 7.259870 1.480579
v -3.295044 7.259559 1.480795
v -3.295934 7.278559 1.482679
v -3.296277 7.279228 1.482463
v -3.295116 7.278412 1.482854
v -3.292720 7.263481 1.481398
v -3.292832 7.278450 1.483008
v -3.292895 7.293997 1.484331
v -3.295117 7.299365 1.484596
v -3.295935 7.299391 1.484396
v -3.296286 7.304471 1.484409
v -3.294644 7.310531 1.485372
v -3.292747 7.326622 1.486201
v -3.295110 7.330591 1.486197
v -3.296276 7.329576 1.485399
v -3.295933 7.324833 1.485754
v -3.122362 7.478853 1.480303
v -3.122026 7.484116 1.479416
v -3.123051 7.471172 1.481242
v -3.122421 7.494261 1.478210
v -3.122380 7.506365 1.476403
v -3.129396 7.474161 1.480789
v -3.122026 7.451092 1.483103
v -3.122390 7.442851 1.484019
v -3.123077 7.430456 1.484919
v -3.123050 7.451158 1.483306
v -3.122030 7.467052 1.481522
v -3.122434 7.461431 1.482315
v -3.122301 7.404914 1.486126
v -3.122307 7.388197 1.486555
v -3.122026 7.388197 1.486341
v -3.122025 7.405381 1.485911
v -3.122300 7.425751 1.485166
v -3.122025 7.431720 1.484649
v -3.123114 7.420090 1.485530
v -3.123154 7.409703 1.486020
v -3.123252 7.387647 1.486677
v -3.123192 7.399276 1.486395
v -3.121773 7.225011 1.473956
v -3.121858 7.254632 1.479691
v -3.122022 7.253287 1.479839
v -3.121857 7.314877 1.485001
v -3.122025 7.308132 1.484959
v -3.121857 7.284513 1.482917
v -3.122026 7.287639 1.483496
v -3.121773 7.285522 1.481693
v -3.122026 7.273098 1.482119
v -3.121857 7.345583 1.485986
v -3.122023 7.350688 1.486422
v -3.122025 7.329007 1.485911
v -3.121773 7.350115 1.484602
v -3.121745 7.292991 1.479059
v -3.122026 7.180359 0.885623
v -3.124609 7.180195 0.886267
v -3.296274 7.554010 0.932147
v -3.296274 7.554010 1.442864
v -3.121773 7.553182 0.885543
v -3.122026 7.180359 1.404580
v -3.121858 7.180523 1.313630
v -3.121773 7.181391 0.885545
v -3.122327 7.182947 1.449766
v -3.123385 7.180882 1.447049
v -3.121857 7.376539 1.486152
v -3.122025 7.371906 1.486531
v -3.296281 7.548355 1.451765
v -3.295972 7.551520 1.449715
v -3.294153 7.547185 1.452794
v -3.293420 7.553515 1.447074
v -3.121772 7.553138 1.447070
v -3.121871 7.551310 1.449543
v -3.121745 7.509999 1.470201
v -3.121773 7.509146 1.473971
v -3.121886 7.511664 1.474281
v -3.121745 7.424582 1.479997
v -3.121773 7.460330 1.480499
v -3.121857 7.444355 1.483425
v -3.121859 7.478018 1.479905
v -3.121773 7.410141 1.483936
v -3.121857 7.409110 1.485447
v -3.133888 7.346616 1.486676
v -3.123365 7.367215 1.486891
v -3.122307 7.356699 1.486702
v -3.122305 7.371888 1.486753
v -3.123317 7.377208 1.486839
v -3.125047 7.225261 1.475623
v -3.122225 7.222125 1.474255
v -3.122445 7.228024 1.476429
v -3.129762 7.228036 1.476313
v -3.122967 7.259594 1.480818
v -3.123050 7.283235 1.483306
v -3.122434 7.272952 1.482313
v -3.122302 7.288092 1.483701
v -3.122300 7.308644 1.485166
v -3.123059 7.293557 1.484174
v -3.122912 7.307084 1.485130
v -3.122487 7.323875 1.485975
v -3.122303 7.339912 1.486431
v -3.123203 7.339880 1.486542
v -3.145225 7.509077 1.475599
v -3.277431 7.512145 1.474450
v -3.277472 7.506212 1.476615
v -3.139595 7.492477 1.478351
v -3.135668 7.506240 1.476320
v -3.131500 7.461335 1.482196
v -3.145226 7.471245 1.481135
v -3.131680 7.450931 1.483202
v -3.131582 7.440547 1.484081
v -3.131713 7.429894 1.484853
v -3.131934 7.419251 1.485496
v -3.131947 7.408850 1.486004
v -3.215100 7.409194 1.486082
v -3.133526 7.398039 1.486406
v -3.235598 7.388230 1.486703
v -3.296274 7.180385 1.442864
v -3.293473 7.180195 0.931418
v -3.122307 7.554158 0.885670
v -3.122026 7.554094 0.885600
v -3.122122 7.554144 1.443136
v -3.123040 7.180210 1.443112
v -3.122117 7.180282 1.443165
v -3.122307 7.180260 1.415650
v -3.123050 7.180211 0.885863
v -3.122307 7.180261 0.885673
v -3.295108 7.554182 1.443129
v -3.295929 7.554125 1.443041
v -3.121858 7.553987 1.388922
v -3.122026 7.554094 1.388868
v -3.121773 7.553182 1.389362
v -3.121857 7.554006 1.443179
v -3.121745 7.551060 1.444942
v -3.121745 7.551026 0.885573
v -3.121858 7.180523 0.885560
v -3.121745 7.183598 0.886033
v -3.295929 7.180271 0.932053
v -3.296274 7.180385 0.932147
v -3.295106 7.180214 0.928436
v -3.123055 7.554190 0.885869
v -3.123446 7.554201 1.443101
v -3.122307 7.554158 1.399621
v -3.293265 7.355999 1.486853
v -3.293386 7.367211 1.486905
v -3.277570 7.222194 1.474419
v -3.277373 7.217867 1.471916
v -3.146551 7.228015 1.476315
v -3.271106 7.228039 1.476554
v -3.282223 7.263317 1.481462
v -3.131884 7.304783 1.484871
v -3.230677 7.304204 1.485021
v -3.282614 7.293540 1.484376
v -3.242426 7.314709 1.485643
v -3.242530 7.325202 1.486113
v -3.131145 7.315594 1.485518
v -3.132900 7.326128 1.486027
v -3.134026 7.336583 1.486413
v -3.122619 7.551460 1.449758
v -3.121942 7.553513 1.447048
v -3.292216 7.512217 1.474366
v -3.292483 7.516829 1.471701
v -3.295718 7.512250 1.474083
v -3.295961 7.509171 1.475459
v -3.296274 7.506094 1.475932
v -3.295929 7.506178 1.476200
v -3.293885 7.506282 1.476524
v -3.288313 7.456447 1.483037
v -3.292237 7.471531 1.481367
v -3.294552 7.457275 1.482810
v -3.296281 7.466390 1.481316
v -3.295929 7.461246 1.482136
v -3.296278 7.446564 1.483231
v -3.295937 7.446165 1.483553
v -3.296274 7.430131 1.484371
v -3.295929 7.430170 1.484703
v -3.294869 7.444187 1.483951
v -3.294788 7.430491 1.484947
v -3.295122 7.414960 1.485755
v -3.296287 7.412753 1.485169
v -3.295937 7.415419 1.485491
v -3.295933 7.394869 1.486165
v -3.295108 7.398694 1.486344
v -3.294634 7.182945 1.449795
v -3.294398 7.187108 1.452717
v -3.296490 7.182117 1.448886
v -3.296324 7.185843 1.451586
v -3.296440 7.180822 1.446612
v -3.295929 7.180271 1.443041
v -3.295108 7.180214 1.443129
v -3.295982 7.554094 0.927422
v -3.295929 7.554125 0.932053
v -3.293473 7.554201 0.931415
v -3.293475 7.180195 1.443154
v -3.122227 7.509094 1.475696
v -3.129615 7.509091 1.475588
v -3.121882 7.506267 1.476088
v -3.121923 7.506318 0.880600
v -3.295932 7.491101 1.478432
v -3.296275 7.485698 1.478924
v -3.295116 7.491223 1.478603
v -3.295947 7.474699 1.480622
v -3.295172 7.474753 1.480803
v -3.292822 7.243495 1.478778
v -3.295105 7.242692 1.478513
v -3.292817 7.254202 1.480239
v -3.296096 7.242248 1.478191
v -3.121888 7.227960 1.476068
v -3.121903 7.225013 1.475424
v -3.122435 7.243055 1.478626
v -3.122288 7.259612 1.480772
v -3.129481 7.247361 1.479124
v -3.121816 7.228998 0.880842
v -3.121763 7.551085 0.882302
v -3.146363 7.244848 1.478766
v -3.282189 7.254011 1.480300
v -3.271010 7.245293 1.479092
v -3.150068 7.236944 1.477644
v -3.296590 7.552907 1.447900
v -3.296409 7.553515 1.446940
v -3.296584 7.553307 1.441767
v -3.296109 7.519138 1.469912
v -3.296479 7.530825 1.462288
v -3.296144 7.537937 1.458442
v -3.296481 7.505951 1.475563
v -3.296448 7.510787 1.474212
v -3.296584 7.475039 1.479007
v -3.296583 7.509539 1.473730
v -3.296616 7.507947 1.472078
v -3.296482 7.445292 1.482930
v -3.296616 7.434014 1.482159
v -3.296486 7.422917 1.484213
v -3.296473 7.372893 1.484898
v -3.296487 7.297438 1.483573
v -3.296617 7.309521 1.482375
v -3.296483 7.328025 1.484579
v -3.296580 7.352184 1.483200
v -3.296617 7.368188 1.480404
v -3.296464 7.228332 1.475650
v -3.296482 7.264023 1.480497
v -3.296585 7.272423 1.480564
v -3.296481 7.180575 0.932211
v -3.122303 7.180292 0.880815
v -3.125857 7.180575 0.881395
v -3.121923 7.340024 0.880630
v -3.123600 7.293291 0.880795
v -3.293586 7.553821 0.926280
v -3.295198 7.553258 0.926630
v -3.296165 7.553801 0.927012
v -3.122104 7.553798 0.880413
v -3.122577 7.182804 0.880465
v -3.122101 7.499093 0.880485
v -3.122582 7.336971 0.880560
v -3.121924 7.224830 0.880595
v -3.122101 7.225086 0.880480
v -3.122101 7.354137 0.880516
v -3.296616 7.182232 1.445937
v -3.125378 7.554011 0.881419
v -3.296584 7.181089 0.932270
v -3.296584 7.181089 1.441767
v -3.296481 7.180575 1.442568
v -3.296584 7.553307 0.932270
v -3.296616 7.552222 0.932483
v -3.296481 7.553820 1.442568
v -3.296481 7.553820 0.932211
v -3.127299 7.552217 0.881675
v -3.296362 7.180600 0.927119
v -3.294859 7.180385 0.926776
v -3.296481 7.474278 1.480097
v -3.296584 7.226221 1.474140
v -3.296617 7.227187 1.472386
v -3.124635 7.180214 0.882828
v -3.121816 7.478842 0.880865
v -3.293512 7.554125 0.926667
v -3.293643 7.554011 0.926451
v -3.124609 7.554201 0.886263
v -3.121816 7.550933 0.880751
v -3.121922 7.550826 0.880523
v -3.121952 7.180583 0.880422
v -3.121827 7.181389 0.880670
v -3.296026 7.180298 0.927614
v -3.294758 7.180271 0.927000
v -3.121933 7.554039 0.880637
v -3.124731 7.554125 0.881501
v -3.296479 7.553676 0.927440
v -3.296584 7.552168 0.928924
v -3.296582 7.534747 1.412833
v -3.296582 7.534747 1.407012
v -3.296582 7.534738 1.415964
v -3.296582 7.534709 1.417268
v -3.296582 7.534651 1.417606
v -3.296582 7.534555 1.417840
v -3.296582 7.533834 1.418302
v -3.296582 7.531902 1.419322
v -3.296582 7.528172 1.421232
v -3.296582 7.497059 1.436896
v -3.296582 7.501061 1.434981
v -3.296582 7.494305 1.437965
v -3.296582 7.491769 1.438560
v -3.296582 7.488425 1.439053
v -3.296582 7.451496 1.443830
v -3.296582 7.460351 1.442858
v -3.296582 7.442364 1.444710
v -3.296582 7.433048 1.445485
v -3.296582 7.423641 1.446141
v -3.296582 7.414234 1.446666
v -3.296582 7.404826 1.447072
v -3.296582 7.395419 1.447371
v -3.296582 7.386012 1.447576
v -3.296582 7.376604 1.447699
v -3.296582 7.367197 1.447740
v -3.296582 7.357790 1.447699
v -3.296582 7.348382 1.447576
v -3.296582 7.338974 1.447371
v -3.296582 7.329567 1.447072
v -3.296582 7.320160 1.446666
v -3.296582 7.310752 1.446141
v -3.296582 7.265493 1.441798
v -3.296582 7.274012 1.442853
v -3.296582 7.257706 1.440750
v -3.296582 7.251028 1.439798
v -3.296582 7.245834 1.439033
v -3.296582 7.227146 1.431898
v -3.296582 7.233353 1.435003
v -3.296582 7.219823 1.428185
v -3.296582 7.212540 1.424468
v -3.296582 7.206446 1.421347
v -3.296616 7.182171 0.932501
v -3.296582 7.199646 0.933459
v -3.296582 7.199646 0.941491
v -3.296551 7.199646 0.929216
v -3.296584 7.181347 0.928923
v -3.296458 7.199646 0.927529
v -3.296273 7.199646 0.927169
v -3.296466 7.181817 0.927348
v -3.142464 7.199646 0.885717
v -3.144904 7.199646 0.886367
v -3.141068 7.199661 0.885348
v -3.140401 7.199705 0.885174
v -3.140150 7.199793 0.885110
v -3.139898 7.357790 0.885128
v -3.139898 7.348382 0.885128
v -3.139898 7.367197 0.885128
v -3.139898 7.376604 0.885128
v -3.139898 7.386012 0.885128
v -3.293756 7.552255 0.926223
v -3.293762 7.534747 0.926197
v -3.291264 7.534747 0.925533
v -3.295228 7.534747 0.926616
v -3.295963 7.534747 0.926902
v -3.296273 7.534747 0.927169
v -3.139898 7.507338 0.885087
v -3.139898 7.501061 0.885096
v -3.139898 7.514726 0.885076
v -3.139898 7.522058 0.885065
v -3.139898 7.528172 0.885056
v -3.139999 7.199941 0.885072
v -3.139923 7.200718 0.885054
v -3.139898 7.202696 0.885050
v -3.139898 7.206446 0.885056
v -3.123588 7.506170 0.880773
v -3.139898 7.491769 0.885106
v -3.139898 7.488425 0.885107
v -3.139898 7.494305 0.885105
v -3.139898 7.497059 0.885101
v -3.123591 7.409105 0.880797
v -3.139898 7.433048 0.885123
v -3.139898 7.423641 0.885125
v -3.139898 7.442364 0.885121
v -3.139898 7.451496 0.885119
v -3.139898 7.460351 0.885117
v -3.139898 7.395419 0.885127
v -3.139898 7.404826 0.885127
v -3.139898 7.414234 0.885126
v -3.139898 7.237294 0.885101
v -3.139898 7.233353 0.885096
v -3.139898 7.239999 0.885105
v -3.139898 7.242502 0.885106
v -3.139898 7.245834 0.885107
v -3.122821 7.225267 0.880567
v -3.139898 7.320160 0.885126
v -3.139898 7.310752 0.885125
v -3.139898 7.329567 0.885127
v -3.139898 7.338974 0.885127
v -3.296582 7.534747 1.364731
v -3.296582 7.534747 1.339439
v -3.296582 7.534747 1.383838
v -3.296582 7.534747 1.397640
v -3.296582 7.199705 1.417278
v -3.296582 7.199793 1.417632
v -3.296582 7.199661 1.415967
v -3.296582 7.199646 1.412833
v -3.296582 7.199646 1.407012
v -3.266591 7.199646 0.918933
v -3.256089 7.199646 0.916123
v -3.244189 7.199646 0.912937
v -3.231355 7.199646 0.909502
v -3.218055 7.199646 0.905943
v -3.122825 7.553082 0.880504
v -3.140401 7.534709 0.885174
v -3.140150 7.534651 0.885110
v -3.141068 7.534738 0.885348
v -3.142464 7.534747 0.885717
v -3.144904 7.534747 0.886367
v -3.296582 7.199646 1.141660
v -3.296582 7.199646 1.184958
v -3.296582 7.199646 1.099688
v -3.296582 7.199646 1.060512
v -3.296582 7.199646 1.025599
v -3.296582 7.199646 1.307086
v -3.296582 7.199646 1.339439
v -3.296582 7.199646 1.269402
v -3.296582 7.199646 1.228116
v -3.296582 7.199646 1.397640
v -3.296582 7.199646 1.383838
v -3.296582 7.199646 1.364731
v -3.296582 7.534747 1.228116
v -3.296582 7.534747 1.184958
v -3.296582 7.534747 1.269402
v -3.296582 7.534747 1.307086
v -3.296582 7.534747 1.060512
v -3.296582 7.534747 1.025599
v -3.296582 7.534747 1.099688
v -3.296582 7.534747 1.141660
v -3.296582 7.534747 0.954543
v -3.296582 7.534747 0.941491
v -3.296582 7.534747 0.972793
v -3.296582 7.534747 0.996419
v -3.169519 7.534747 0.892952
v -3.180020 7.534747 0.895763
v -3.191921 7.534747 0.898948
v -3.204755 7.534747 0.902383
v -3.218055 7.534747 0.905943
v -3.295960 7.182326 0.926905
v -3.295963 7.199646 0.926902
v -3.295228 7.199646 0.926616
v -3.293762 7.199646 0.926197
v -3.291264 7.199646 0.925533
v -3.296582 7.483243 1.439816
v -3.296582 7.476593 1.440764
v -3.296582 7.468840 1.441807
v -3.139898 7.468840 0.885114
v -3.139898 7.476593 0.885112
v -3.139898 7.483243 0.885109
v -3.296582 7.301345 1.445485
v -3.296582 7.292027 1.444710
v -3.296582 7.282886 1.443828
v -3.139898 7.282886 0.885119
v -3.139898 7.274012 0.885117
v -3.139898 7.292027 0.885121
v -3.139898 7.301345 0.885123
v -3.296582 7.242502 1.438542
v -3.296582 7.239999 1.437954
v -3.296582 7.237294 1.436898
v -3.139898 7.251028 0.885109
v -3.139898 7.257706 0.885111
v -3.139898 7.265493 0.885114
v -3.296582 7.199646 0.996419
v -3.296582 7.199646 0.972793
v -3.296582 7.199646 0.954543
v -3.296458 7.534747 0.927529
v -3.296551 7.534747 0.929216
v -3.296582 7.534747 0.933459
v -3.171970 7.524068 1.467231
v -3.210696 7.532263 1.462251
v -3.129345 7.528203 1.464692
v -3.131586 7.516967 1.471422
v -3.277663 7.509061 1.475869
v -3.292175 7.509094 1.475808
v -3.277678 7.516541 1.471918
v -3.122404 7.512247 1.474208
v -3.139991 7.512197 1.474163
v -3.273002 7.461314 1.482529
v -3.278012 7.471142 1.481459
v -3.272708 7.451173 1.483506
v -3.286213 7.441143 1.484367
v -3.286110 7.430906 1.485084
v -3.292603 7.410624 1.486103
v -3.292795 7.398804 1.486484
v -3.293173 7.388292 1.486716
v -3.285872 7.420695 1.485661
v -3.235224 7.398719 1.486458
v -3.122311 7.186932 1.452548
v -3.124605 7.180195 1.443104
v -3.295780 7.180881 1.447072
v -3.123328 7.356815 1.486837
v -3.288896 7.215486 1.470490
v -3.130563 7.222151 1.474158
v -3.131287 7.217467 1.471458
v -3.145367 7.225214 1.475580
v -3.277885 7.225228 1.475826
v -3.294011 7.225245 1.475750
v -3.294076 7.222185 1.474336
v -3.131362 7.273092 1.482199
v -3.131049 7.263201 1.481111
v -3.131716 7.283533 1.483207
v -3.131775 7.294169 1.484104
v -3.286703 7.303876 1.485102
v -3.283557 7.283335 1.483525
v -3.282265 7.273096 1.482541
v -3.286402 7.334781 1.486468
v -3.287679 7.314627 1.485697
v -3.293473 7.554201 1.443152
v -3.124792 7.180271 0.881514
v -3.125129 7.180385 0.881353
v -3.140224 7.480832 1.479933
v -3.128248 7.491272 1.478535
v -3.277418 7.491945 1.478730
v -3.292104 7.486670 1.479438
v -3.278011 7.480586 1.480282
v -3.283408 7.240752 1.478467
v -3.139002 7.253707 1.479948
v -3.293720 7.180575 0.926320
v -3.295228 7.181126 0.926640
v -3.293734 7.182191 0.926216
v -3.128701 7.182170 0.882050
v -3.123434 7.181125 0.880664
v -3.132002 7.553820 0.883037
v -3.129378 7.553304 0.882258
v -3.295109 7.554182 0.928441
v -3.123442 7.554182 0.882504
v -3.169519 7.199646 0.892952
v -3.160883 7.199646 0.890640
v -3.153987 7.199646 0.888795
v -3.148703 7.199646 0.887382
v -3.204755 7.199646 0.902383
v -3.191921 7.199646 0.898948
v -3.180020 7.199646 0.895762
v -3.287430 7.199646 0.924509
v -3.282129 7.199646 0.923092
v -3.275226 7.199646 0.921245
v -3.266591 7.534747 0.918933
v -3.275226 7.534747 0.921245
v -3.282129 7.534747 0.923092
v -3.287430 7.534747 0.924509
v -3.231355 7.534747 0.909502
v -3.244189 7.534747 0.912937
v -3.256089 7.534747 0.916123
v -3.148703 7.534747 0.887382
v -3.153987 7.534747 0.888795
v -3.160883 7.534747 0.890640
v -3.121859 7.521790 1.468119
v -3.211905 7.540457 1.457115
v -3.121858 7.553987 0.885558
v -3.294644 7.540232 1.457283
v -3.295148 7.518914 1.470316
v -3.122578 7.506739 0.880532
v -3.121836 7.553904 0.881854
v -3.296582 7.522058 1.424363
v -3.296582 7.514726 1.428105
v -3.296582 7.507338 1.431847
v -3.296616 7.552223 1.446085
v -3.139898 7.531902 0.885050
v -3.139923 7.533834 0.885054
v -3.139999 7.534555 0.885072
v -3.292479 7.529854 1.463805
v -3.282017 7.523449 1.467760
v -3.294370 7.193814 1.457051
v -3.294811 7.205400 1.464236
v -3.295929 7.210642 1.467195
v -3.296277 7.206152 1.464188
v -3.295961 7.195761 1.458061
v -3.121817 7.180968 1.446890
v -3.121773 7.183524 1.448562
v -3.121745 7.183586 1.445073
v -3.123148 7.193844 1.457020
v -3.122359 7.217527 1.471595
v -3.123098 7.205343 1.464222
v -3.130955 7.210004 1.466987
v -3.121773 7.181378 1.428225
v -3.121857 7.180510 1.429872
v -3.275492 7.211083 1.467822
v -3.296503 7.193178 1.455824
v -3.296597 7.181484 1.447687
v -3.122099 7.184024 0.880417
v -3.121763 7.183617 0.882111
v -3.296582 7.202696 1.419427
v -3.296582 7.200718 1.418383
v -3.296582 7.199941 1.417892
v -3.139898 7.212540 0.885065
v -3.139898 7.219823 0.885076
v -3.139898 7.227146 0.885087
v -3.132100 7.201801 1.461969
v -3.208760 7.193918 1.457096
v -3.286482 7.203125 1.462931
f 4 1 3
f 5 3 1
f 1 2 5
f 164 5 2
f 2 6 164
f 5 164 165
f 8 7 500
f 5 165 7
f 7 8 5
f 4 3 202
f 8 202 3
f 3 5 8
f 9 13 97
f 13 9 14
f 9 10 14
f 12 10 11
f 9 11 10
f 10 486 14
f 13 14 486
f 486 487 13
f 584 63 15
f 16 503 17
f 17 15 16
f 15 17 584
f 18 585 95
f 585 18 584
f 63 584 18
f 20 21 513
f 19 20 22
f 512 22 20
f 20 513 512
f 21 507 513
f 23 24 512
f 24 259 22
f 22 512 24
f 27 28 25
f 29 27 25
f 25 26 29
f 31 29 26
f 26 30 31
f 518 36 32
f 33 32 36
f 29 31 32
f 32 33 29
f 28 27 34
f 34 35 28
f 27 29 33
f 33 34 27
f 35 34 40
f 36 40 34
f 34 33 36
f 40 39 35
f 40 36 38
f 36 518 522
f 36 522 37
f 37 38 36
f 37 521 6
f 38 37 6
f 6 2 38
f 39 40 1
f 1 4 39
f 40 38 2
f 2 1 40
f 51 42 41
f 44 41 42
f 45 44 217
f 42 217 44
f 45 527 44
f 43 41 46
f 527 46 41
f 41 44 527
f 48 57 58
f 58 47 48
f 48 49 57
f 41 52 51
f 52 41 43
f 52 48 47
f 47 51 52
f 52 50 48
f 52 43 46
f 46 128 52
f 50 52 128
f 128 130 50
f 49 48 131
f 131 132 49
f 48 50 130
f 130 131 48
f 53 54 55
f 55 56 53
f 62 61 54
f 54 53 62
f 60 62 53
f 49 59 57
f 57 53 56
f 56 58 57
f 59 60 53
f 53 57 59
f 59 49 132
f 132 133 59
f 60 59 133
f 133 134 60
f 61 62 136
f 62 60 134
f 134 136 62
f 63 70 64
f 228 64 65
f 64 228 63
f 70 63 76
f 68 66 67
f 67 69 68
f 66 68 70
f 64 68 71
f 71 65 64
f 68 64 70
f 69 71 68
f 73 74 72
f 66 72 74
f 72 66 75
f 74 67 66
f 70 75 66
f 75 70 76
f 77 82 147
f 504 139 78
f 79 80 212
f 148 540 149
f 149 212 80
f 212 149 540
f 540 148 523
f 86 143 144
f 144 583 86
f 85 86 583
f 86 504 143
f 98 102 75
f 87 55 88
f 87 75 102
f 87 88 73
f 73 72 87
f 75 87 72
f 76 95 98
f 75 76 98
f 240 149 80
f 240 148 149
f 90 89 91
f 90 92 240
f 148 240 92
f 92 523 148
f 180 153 142
f 153 180 93
f 94 12 11
f 94 11 93
f 180 94 93
f 95 154 93
f 96 562 97
f 97 215 217
f 96 97 217
f 51 100 101
f 100 51 47
f 99 101 100
f 100 102 99
f 100 47 58
f 98 99 102
f 58 103 100
f 103 58 56
f 102 100 103
f 103 56 55
f 55 87 103
f 102 103 87
f 104 122 506
f 73 106 121
f 88 107 106
f 106 73 88
f 106 506 122
f 122 121 106
f 107 105 506
f 506 106 107
f 107 88 55
f 55 54 107
f 108 107 54
f 54 61 108
f 107 108 105
f 110 508 509
f 509 587 110
f 508 110 109
f 587 15 110
f 229 109 110
f 228 111 229
f 109 229 111
f 111 112 109
f 115 514 515
f 515 113 115
f 114 516 514
f 514 115 114
f 71 115 231
f 231 65 71
f 69 116 115
f 115 71 69
f 113 231 115
f 116 114 115
f 116 69 67
f 67 117 116
f 118 116 117
f 117 119 118
f 116 118 114
f 517 118 119
f 119 171 517
f 516 114 118
f 118 517 516
f 171 119 176
f 120 177 176
f 176 119 120
f 74 120 117
f 117 67 74
f 119 117 120
f 121 74 73
f 74 121 120
f 121 122 120
f 122 104 178
f 177 120 122
f 122 178 177
f 488 123 492
f 124 492 487
f 492 124 488
f 123 488 125
f 125 127 123
f 493 128 129
f 128 493 130
f 131 496 497
f 497 132 131
f 496 131 130
f 135 134 133
f 501 133 132
f 132 497 501
f 133 501 135
f 136 502 137
f 137 61 136
f 502 136 135
f 134 135 136
f 138 159 209
f 94 179 12
f 179 94 180
f 142 162 180
f 143 146 145
f 145 144 143
f 82 144 145
f 146 143 504
f 145 147 82
f 147 145 146
f 504 78 146
f 150 564 141
f 141 151 150
f 153 150 151
f 151 142 153
f 152 81 564
f 564 150 152
f 93 152 150
f 150 153 93
f 154 95 155
f 81 152 154
f 154 155 81
f 152 93 154
f 156 83 82
f 82 77 156
f 83 156 84
f 157 95 585
f 157 585 84
f 158 209 159
f 209 158 210
f 160 210 158
f 210 160 139
f 296 162 161
f 142 163 162
f 140 163 151
f 151 141 140
f 163 140 161
f 142 151 163
f 161 162 163
f 7 108 137
f 108 7 165
f 169 168 238
f 168 169 511
f 171 172 517
f 173 517 172
f 172 518 173
f 517 173 516
f 518 172 174
f 176 174 172
f 172 171 176
f 177 175 174
f 174 176 177
f 521 178 6
f 175 177 178
f 178 521 175
f 180 92 179
f 92 180 523
f 183 181 182
f 182 566 183
f 184 489 181
f 181 183 184
f 246 183 242
f 183 246 184
f 566 242 183
f 185 186 184
f 186 187 184
f 489 184 187
f 190 188 189
f 189 223 190
f 191 192 222
f 193 194 192
f 192 191 193
f 192 190 223
f 223 222 192
f 194 197 190
f 190 192 194
f 194 193 195
f 195 196 194
f 197 194 196
f 196 198 197
f 496 197 198
f 198 497 496
f 188 190 197
f 197 496 188
f 498 501 497
f 497 198 498
f 199 498 198
f 200 201 196
f 196 195 200
f 201 199 198
f 198 196 201
f 202 200 4
f 202 8 203
f 200 202 201
f 199 201 202
f 202 203 199
f 499 203 8
f 8 500 499
f 498 199 203
f 203 499 498
f 208 505 206
f 206 204 205
f 205 207 206
f 204 206 505
f 505 208 138
f 138 209 505
f 209 210 505
f 210 214 505
f 211 294 295
f 295 269 211
f 211 540 294
f 79 212 211
f 212 540 211
f 210 139 214
f 139 504 214
f 215 45 217
f 13 491 97
f 215 97 491
f 491 13 487
f 491 216 215
f 45 215 216
f 217 42 101
f 217 101 96
f 42 51 101
f 99 96 101
f 98 95 99
f 96 99 95
f 526 530 494
f 494 129 526
f 530 526 528
f 126 528 526
f 219 186 185
f 185 220 219
f 221 187 186
f 186 219 221
f 220 191 222
f 222 219 220
f 223 221 219
f 219 222 223
f 189 529 223
f 221 223 529
f 187 221 529
f 225 24 23
f 23 224 225
f 226 30 26
f 26 225 224
f 224 226 26
f 225 26 25
f 25 227 225
f 227 259 24
f 24 225 227
f 228 229 63
f 15 229 110
f 229 15 63
f 76 18 95
f 18 76 63
f 230 111 228
f 228 65 230
f 231 230 65
f 230 231 113
f 515 232 113
f 230 113 232
f 111 230 232
f 232 112 111
f 274 265 233
f 515 170 236
f 237 235 236
f 235 237 238
f 89 90 239
f 240 239 90
f 240 80 284
f 241 239 240
f 240 284 241
f 239 241 572
f 242 244 243
f 244 89 243
f 239 248 243
f 572 249 239
f 248 239 249
f 246 245 185
f 185 184 246
f 248 247 245
f 245 246 248
f 246 242 243
f 246 243 248
f 247 248 249
f 250 252 195
f 195 193 250
f 252 250 251
f 289 250 193
f 193 191 289
f 247 251 250
f 250 289 247
f 4 200 253
f 252 253 200
f 253 252 257
f 200 195 252
f 251 257 252
f 257 251 258
f 256 254 35
f 35 39 256
f 257 255 254
f 254 256 257
f 253 256 39
f 39 4 253
f 256 253 257
f 255 257 258
f 261 290 259
f 260 259 227
f 227 25 260
f 259 260 261
f 290 261 291
f 207 593 206
f 594 206 593
f 262 287 301
f 301 159 262
f 279 352 287
f 287 262 279
f 352 279 348
f 352 355 287
f 264 299 263
f 263 525 264
f 299 264 537
f 266 386 273
f 269 295 267
f 269 267 268
f 303 298 270
f 595 275 274
f 275 595 271
f 537 400 271
f 272 270 218
f 270 272 567
f 276 272 218
f 272 276 567
f 218 265 276
f 273 567 276
f 567 273 386
f 386 381 567
f 271 400 275
f 208 281 138
f 594 280 281
f 281 208 594
f 208 206 594
f 277 348 280
f 280 594 277
f 270 538 278
f 278 303 270
f 538 270 539
f 419 539 270
f 539 419 286
f 280 279 262
f 279 280 348
f 281 262 159
f 159 138 281
f 262 281 280
f 282 241 284
f 241 282 572
f 80 79 284
f 285 284 79
f 284 285 282
f 283 572 282
f 287 533 288
f 287 534 533
f 355 454 287
f 454 534 287
f 191 220 289
f 245 289 220
f 220 185 245
f 289 245 247
f 249 251 247
f 25 28 260
f 254 260 28
f 260 254 261
f 255 261 254
f 28 35 254
f 255 291 261
f 290 594 19
f 19 22 290
f 22 259 290
f 594 290 291
f 265 274 276
f 275 276 274
f 276 275 273
f 400 273 275
f 273 400 266
f 263 146 78
f 78 292 263
f 524 525 263
f 292 524 263
f 263 77 147
f 263 147 146
f 95 157 155
f 234 155 157
f 218 297 293
f 234 293 297
f 297 218 298
f 293 265 218
f 299 156 77
f 77 263 299
f 300 84 156
f 156 299 300
f 84 300 596
f 596 157 84
f 157 596 234
f 233 234 596
f 265 293 233
f 234 233 293
f 301 158 159
f 301 160 158
f 288 302 301
f 301 287 288
f 302 160 301
f 303 140 141
f 541 161 140
f 140 303 541
f 278 304 303
f 541 303 304
f 541 296 161
f 213 523 162
f 523 213 540
f 305 285 79
f 79 211 305
f 305 282 285
f 211 269 305
f 282 305 306
f 306 283 282
f 572 308 307
f 572 307 309
f 572 310 311
f 572 309 310
f 572 311 312
f 572 312 313
f 572 314 315
f 572 313 314
f 249 317 316
f 249 316 318
f 249 319 320
f 249 318 319
f 251 322 321
f 251 321 323
f 251 324 325
f 325 258 251
f 251 323 324
f 258 325 326
f 258 326 327
f 258 328 329
f 258 327 328
f 258 329 330
f 258 330 331
f 258 332 333
f 258 331 332
f 258 333 334
f 335 255 258
f 258 334 335
f 255 336 337
f 255 335 336
f 255 339 338
f 340 291 255
f 255 338 340
f 291 341 342
f 291 340 341
f 291 344 343
f 291 343 345
f 277 346 347
f 291 345 346
f 346 277 291
f 348 350 349
f 351 352 348
f 348 349 351
f 355 353 354
f 352 351 353
f 353 355 352
f 536 357 356
f 536 356 358
f 537 359 360
f 536 358 359
f 359 537 536
f 361 386 266
f 266 362 361
f 386 361 363
f 386 364 365
f 386 363 364
f 366 368 367
f 369 268 366
f 366 367 369
f 269 370 371
f 268 369 370
f 370 269 268
f 372 419 381
f 381 373 372
f 419 372 374
f 419 375 376
f 419 374 375
f 537 360 377
f 537 377 378
f 537 379 380
f 537 378 379
f 381 383 382
f 381 382 384
f 381 385 373
f 381 384 385
f 386 388 387
f 386 387 389
f 381 390 391
f 386 389 390
f 390 381 386
f 386 365 392
f 386 392 393
f 386 394 388
f 386 393 394
f 400 396 395
f 400 395 397
f 400 398 399
f 400 397 398
f 266 402 401
f 266 401 403
f 266 404 362
f 266 403 404
f 572 406 405
f 572 405 407
f 572 408 308
f 572 407 408
f 277 410 409
f 277 409 411
f 277 412 413
f 277 411 412
f 414 415 536
f 415 416 536
f 417 418 536
f 416 417 536
f 420 286 419
f 419 421 420
f 286 420 422
f 286 423 424
f 286 422 423
f 277 426 425
f 277 425 427
f 277 428 429
f 277 427 428
f 277 431 430
f 277 430 432
f 277 433 426
f 277 432 433
f 277 413 434
f 277 434 435
f 277 436 431
f 277 435 436
f 283 438 437
f 283 437 439
f 572 440 406
f 283 439 440
f 440 572 283
f 283 442 441
f 283 441 443
f 283 444 438
f 283 443 444
f 283 446 445
f 283 445 447
f 283 448 442
f 283 447 448
f 449 450 286
f 450 451 286
f 452 453 286
f 451 452 286
f 455 454 355
f 355 354 455
f 456 534 454
f 454 455 456
f 535 457 458
f 534 456 457
f 457 535 534
f 249 320 459
f 460 251 249
f 249 459 460
f 251 461 322
f 251 460 461
f 381 391 462
f 381 462 463
f 381 464 383
f 381 463 464
f 255 337 465
f 255 465 466
f 255 467 339
f 255 466 467
f 266 469 468
f 266 468 470
f 266 471 402
f 266 470 471
f 291 342 472
f 291 472 473
f 291 474 344
f 291 473 474
f 400 399 475
f 476 266 400
f 400 475 476
f 266 477 469
f 266 476 477
f 277 429 478
f 479 348 277
f 277 478 479
f 348 480 350
f 348 479 480
f 481 305 269
f 269 371 481
f 482 306 305
f 305 481 482
f 283 483 446
f 306 482 483
f 483 283 306
f 486 484 487
f 486 485 484
f 563 10 12
f 485 486 10
f 10 563 485
f 181 124 490
f 490 182 181
f 489 488 124
f 124 181 489
f 488 489 187
f 187 125 488
f 487 490 124
f 528 126 125
f 216 123 127
f 127 45 216
f 492 491 487
f 491 492 216
f 123 216 492
f 188 493 494
f 188 495 493
f 494 189 188
f 495 188 496
f 495 130 493
f 129 494 493
f 130 495 496
f 46 129 128
f 502 499 500
f 500 137 502
f 499 502 498
f 498 135 501
f 135 498 502
f 503 205 204
f 214 504 505
f 86 505 504
f 204 85 503
f 85 204 86
f 505 86 204
f 296 213 162
f 6 104 164
f 105 165 164
f 506 164 104
f 164 506 105
f 61 137 108
f 165 105 108
f 137 500 7
f 507 592 167
f 592 507 605
f 604 578 205
f 578 604 605
f 508 166 509
f 166 508 510
f 109 510 508
f 510 109 112
f 112 168 510
f 167 509 166
f 510 511 166
f 511 510 168
f 169 23 511
f 512 511 23
f 166 513 507
f 507 167 166
f 511 512 513
f 513 166 511
f 514 520 170
f 170 515 514
f 520 514 516
f 519 516 173
f 32 173 518
f 31 519 173
f 173 32 31
f 520 31 30
f 30 170 520
f 31 520 519
f 516 519 520
f 104 6 178
f 37 175 521
f 174 522 518
f 175 37 522
f 522 174 175
f 91 12 179
f 162 523 180
f 179 90 91
f 90 179 92
f 288 525 524
f 292 160 524
f 160 292 78
f 524 302 288
f 302 524 160
f 78 139 160
f 129 46 526
f 527 126 526
f 526 46 527
f 45 127 527
f 126 527 127
f 127 125 126
f 529 528 125
f 125 187 529
f 530 529 189
f 189 494 530
f 529 530 528
f 531 237 236
f 226 236 170
f 170 30 226
f 224 531 236
f 236 226 224
f 531 224 23
f 23 169 531
f 238 531 169
f 531 238 237
f 232 238 168
f 168 112 232
f 232 235 238
f 532 232 515
f 236 532 515
f 532 236 235
f 235 232 532
f 534 537 533
f 537 534 536
f 535 536 534
f 533 264 525
f 525 288 533
f 264 533 537
f 295 278 538
f 268 539 286
f 286 366 268
f 538 267 295
f 539 268 267
f 267 538 539
f 540 541 294
f 541 540 213
f 213 296 541
f 278 295 294
f 294 304 278
f 304 294 541
f 542 543 536
f 543 544 536
f 545 357 536
f 544 545 536
f 418 546 536
f 546 547 536
f 548 542 536
f 547 548 536
f 458 549 535
f 549 550 535
f 551 414 536
f 536 535 550
f 550 551 536
f 366 286 552
f 552 553 366
f 553 554 366
f 555 368 366
f 554 555 366
f 453 556 286
f 556 557 286
f 558 552 286
f 557 558 286
f 424 559 286
f 559 560 286
f 561 449 286
f 560 561 286
f 11 9 562
f 11 562 93
f 9 97 562
f 96 93 562
f 93 96 95
f 563 12 91
f 565 91 89
f 89 244 565
f 566 565 244
f 244 242 566
f 182 576 566
f 565 566 576
f 239 243 89
f 298 218 270
f 567 419 270
f 381 419 567
f 303 297 298
f 568 234 297
f 297 303 568
f 568 303 141
f 141 564 568
f 564 81 568
f 234 568 81
f 81 155 234
f 315 569 572
f 569 570 572
f 571 317 249
f 249 572 570
f 570 571 249
f 376 573 419
f 573 574 419
f 575 421 419
f 574 575 419
f 182 577 576
f 577 182 490
f 577 485 576
f 91 565 563
f 565 576 485
f 485 563 565
f 484 490 487
f 490 484 577
f 485 577 484
f 578 605 579
f 21 579 507
f 605 507 579
f 580 20 19
f 19 581 580
f 582 580 581
f 579 21 20
f 20 580 579
f 580 582 579
f 205 578 582
f 582 207 205
f 581 207 582
f 578 579 582
f 503 85 17
f 583 17 85
f 583 584 17
f 591 583 144
f 583 591 590
f 583 590 585
f 585 584 583
f 503 16 586
f 588 586 16
f 16 15 587
f 16 587 588
f 589 587 509
f 589 603 588
f 587 589 588
f 586 588 603
f 591 144 82
f 83 84 590
f 82 83 591
f 590 591 83
f 585 590 84
f 604 205 503
f 207 581 593
f 19 593 581
f 593 19 594
f 291 277 594
f 274 300 595
f 299 595 300
f 595 299 271
f 271 299 537
f 233 300 274
f 300 233 596
f 347 597 277
f 597 598 277
f 599 410 277
f 598 599 277
f 380 600 537
f 600 601 537
f 602 396 400
f 400 537 601
f 601 602 400
f 503 586 604
f 603 604 586
f 589 509 167
f 167 592 589
f 605 589 592
f 589 605 603
f 604 603 605
