# USD → MuJoCo (world-space)
v -0.141900 -0.043721 -0.146546
v 0.142573 -0.043721 -0.146546
v 0.142573 -0.075601 -0.049906
v -0.141900 -0.075601 -0.049906
v -0.141900 -0.040036 -0.158313
v 0.142573 -0.040036 -0.158313
v -0.141900 -0.036596 -0.169363
v 0.142573 -0.036596 -0.169363
v -0.141900 -0.033376 -0.179888
v 0.142573 -0.033376 -0.179888
v -0.141900 -0.030350 -0.190077
v 0.142573 -0.030350 -0.190077
v -0.141900 -0.027491 -0.200122
v 0.142573 -0.027491 -0.200122
v -0.141900 -0.024773 -0.210214
v 0.142573 -0.024773 -0.210214
v -0.141900 -0.022171 -0.220542
v 0.142573 -0.022171 -0.220542
v -0.141900 -0.019603 -0.231275
v 0.142573 -0.019603 -0.231275
v -0.141900 -0.017064 -0.242300
v 0.142573 -0.017064 -0.242300
v -0.141900 -0.014645 -0.253384
v 0.142573 -0.014645 -0.253384
v -0.141900 -0.012437 -0.264297
v 0.142573 -0.012437 -0.264297
v -0.141900 -0.010529 -0.274807
v 0.142573 -0.010529 -0.274807
v -0.141900 -0.009014 -0.284681
v 0.142573 -0.009014 -0.284681
v -0.141900 -0.007981 -0.293689
v 0.142573 -0.007981 -0.293689
v -0.141900 -0.007400 -0.301907
v 0.142573 -0.007400 -0.301907
v -0.141900 -0.007181 -0.309567
v 0.142573 -0.007181 -0.309567
v -0.141900 -0.007323 -0.316669
v 0.142573 -0.007323 -0.316669
v -0.141900 -0.007827 -0.323214
v 0.142573 -0.007827 -0.323214
v -0.141900 -0.008692 -0.329200
v 0.142573 -0.008692 -0.329200
v -0.141900 -0.009919 -0.334629
v 0.142573 -0.009919 -0.334629
v -0.141900 -0.011508 -0.339500
v 0.142573 -0.011508 -0.339500
vt 1.534386 0.759615
vt -0.534386 0.759615
vt -0.534386 1.280606
vt -0.534386 1.280606
vt 1.534386 1.280607
vt 1.534386 0.759615
vt 1.534386 0.696181
vt -0.534386 0.696181
vt -0.534386 0.759615
vt -0.534386 0.759615
vt 1.534386 0.759615
vt 1.534386 0.696181
vt 1.534386 0.636609
vt -0.534386 0.636608
vt -0.534386 0.696181
vt -0.534386 0.696181
vt 1.534386 0.696181
vt 1.534386 0.636609
vt 1.534386 0.579870
vt -0.534386 0.579870
vt -0.534386 0.636608
vt -0.534386 0.636608
vt 1.534386 0.636609
vt 1.534386 0.579870
vt 1.534386 0.524938
vt -0.534386 0.524938
vt -0.534386 0.579870
vt -0.534386 0.579870
vt 1.534386 0.579870
vt 1.534386 0.524938
vt 1.534386 0.470784
vt -0.534386 0.470784
vt -0.534386 0.524938
vt -0.534386 0.524938
vt 1.534386 0.524938
vt 1.534386 0.470784
vt 1.534386 0.416381
vt -0.534386 0.416381
vt -0.534386 0.470784
vt -0.534386 0.470784
vt 1.534386 0.470784
vt 1.534386 0.416381
vt 1.534386 0.360701
vt -0.534386 0.360701
vt -0.534386 0.416381
vt -0.534386 0.416381
vt 1.534386 0.416381
vt 1.534386 0.360701
vt 1.534386 0.302838
vt -0.534386 0.302838
vt -0.534386 0.360701
vt -0.534386 0.360701
vt 1.534386 0.360701
vt 1.534386 0.302838
vt 1.534386 0.243403
vt -0.534386 0.243403
vt -0.534386 0.302838
vt -0.534386 0.302838
vt 1.534386 0.302838
vt 1.534386 0.243403
vt 1.534386 0.183645
vt -0.534386 0.183645
vt -0.534386 0.243403
vt -0.534386 0.243403
vt 1.534386 0.243403
vt 1.534386 0.183645
vt 1.534386 0.124813
vt -0.534386 0.124813
vt -0.534386 0.183645
vt -0.534386 0.183645
vt 1.534386 0.183645
vt 1.534386 0.124813
vt 1.534386 0.068156
vt -0.534386 0.068156
vt -0.534386 0.124813
vt -0.534386 0.124813
vt 1.534386 0.124813
vt 1.534386 0.068156
vt 1.534386 0.014923
vt -0.534386 0.014922
vt -0.534386 0.068156
vt -0.534386 0.068156
vt 1.534386 0.068156
vt 1.534386 0.014923
vt 1.534386 -0.033637
vt -0.534386 -0.033638
vt -0.534386 0.014922
vt -0.534386 0.014922
vt 1.534386 0.014923
vt 1.534386 -0.033637
vt 1.534386 -0.077941
vt -0.534386 -0.077942
vt -0.534386 -0.033638
vt -0.534386 -0.033638
vt 1.534386 -0.033637
vt 1.534386 -0.077941
vt 1.534386 -0.119238
vt -0.534386 -0.119238
vt -0.534386 -0.077942
vt -0.534386 -0.077942
vt 1.534386 -0.077941
vt 1.534386 -0.119238
vt 1.534386 -0.157526
vt -0.534386 -0.157527
vt -0.534386 -0.119238
vt -0.534386 -0.119238
vt 1.534386 -0.119238
vt 1.534386 -0.157526
vt 1.534386 -0.192808
vt -0.534386 -0.192808
vt -0.534386 -0.157527
vt -0.534386 -0.157527
vt 1.534386 -0.157526
vt 1.534386 -0.192808
vt 1.534386 -0.225082
vt -0.534386 -0.225082
vt -0.534386 -0.192808
vt -0.534386 -0.192808
vt 1.534386 -0.192808
vt 1.534386 -0.225082
vt 1.534386 -0.254347
vt -0.534386 -0.254348
vt -0.534386 -0.225082
vt -0.534386 -0.225082
vt 1.534386 -0.225082
vt 1.534386 -0.254347
vt 1.534386 -0.280606
vt -0.534386 -0.280607
vt -0.534386 -0.254348
vt -0.534386 -0.254348
vt 1.534386 -0.254347
vt 1.534386 -0.280606
f 1/1 2/2 3/3
f 3/4 4/5 1/6
f 5/7 6/8 2/9
f 2/10 1/11 5/12
f 7/13 8/14 6/15
f 6/16 5/17 7/18
f 9/19 10/20 8/21
f 8/22 7/23 9/24
f 11/25 12/26 10/27
f 10/28 9/29 11/30
f 13/31 14/32 12/33
f 12/34 11/35 13/36
f 15/37 16/38 14/39
f 14/40 13/41 15/42
f 17/43 18/44 16/45
f 16/46 15/47 17/48
f 19/49 20/50 18/51
f 18/52 17/53 19/54
f 21/55 22/56 20/57
f 20/58 19/59 21/60
f 23/61 24/62 22/63
f 22/64 21/65 23/66
f 25/67 26/68 24/69
f 24/70 23/71 25/72
f 27/73 28/74 26/75
f 26/76 25/77 27/78
f 29/79 30/80 28/81
f 28/82 27/83 29/84
f 31/85 32/86 30/87
f 30/88 29/89 31/90
f 33/91 34/92 32/93
f 32/94 31/95 33/96
f 35/97 36/98 34/99
f 34/100 33/101 35/102
f 37/103 38/104 36/105
f 36/106 35/107 37/108
f 39/109 40/110 38/111
f 38/112 37/113 39/114
f 41/115 42/116 40/117
f 40/118 39/119 41/120
f 43/121 44/122 42/123
f 42/124 41/125 43/126
f 45/127 46/128 44/129
f 44/130 43/131 45/132
