# USD → MuJoCo (world-space)
v -0.201381 0.194342 -0.141476
v -0.201381 0.195213 -0.140822
v -0.201381 0.199342 -0.141476
v -0.201381 0.195213 -0.142130
v -0.201381 0.194587 -0.139932
v -0.201381 0.195617 -0.139578
v -0.201381 0.195297 -0.138538
v -0.201381 0.196386 -0.138520
v -0.201381 0.196403 -0.137432
v -0.201381 0.197444 -0.137751
v -0.201381 0.197797 -0.136722
v -0.201381 0.198688 -0.137347
v -0.201381 0.199342 -0.136477
v -0.201381 0.199996 -0.137347
v -0.201381 0.200887 -0.136722
v -0.201381 0.201240 -0.137751
v -0.201381 0.202281 -0.137432
v -0.201381 0.202298 -0.138520
v -0.201381 0.203387 -0.138538
v -0.201381 0.203067 -0.139578
v -0.201381 0.204097 -0.139932
v -0.201381 0.203471 -0.140822
v -0.201381 0.204341 -0.141476
v -0.201381 0.203471 -0.142130
v -0.201381 0.204097 -0.143021
v -0.201381 0.203067 -0.143375
v -0.201381 0.203387 -0.144415
v -0.201381 0.202298 -0.144433
v -0.201381 0.202281 -0.145521
v -0.201381 0.201240 -0.145202
v -0.201381 0.200887 -0.146231
v -0.201381 0.199996 -0.145606
v -0.201381 0.199342 -0.146476
v -0.201381 0.198688 -0.145606
v -0.201381 0.197797 -0.146231
v -0.201381 0.197444 -0.145202
v -0.201381 0.196403 -0.145521
v -0.201381 0.196386 -0.144433
v -0.201381 0.195297 -0.144415
v -0.201381 0.195617 -0.143374
v -0.201381 0.194587 -0.143021
v -0.201381 0.193507 -0.140552
v -0.201381 0.193723 -0.139651
v -0.201381 0.193434 -0.141476
v -0.201381 0.192934 -0.141476
v -0.201381 0.193013 -0.140474
v -0.201381 0.193247 -0.139496
v -0.201381 0.192519 -0.140396
v -0.201381 0.192772 -0.139342
v -0.201381 0.192434 -0.141476
v -0.201256 0.192059 -0.141476
v -0.201256 0.192149 -0.140337
v -0.201256 0.192415 -0.139226
v -0.201381 0.194078 -0.138794
v -0.201381 0.194562 -0.138004
v -0.201381 0.193633 -0.138567
v -0.201381 0.194157 -0.137710
v -0.201381 0.193187 -0.138340
v -0.201381 0.193753 -0.137416
v -0.201256 0.192853 -0.138170
v -0.201256 0.193450 -0.137196
v -0.201381 0.195164 -0.137299
v -0.201381 0.195869 -0.136697
v -0.201381 0.194811 -0.136946
v -0.201381 0.195575 -0.136292
v -0.201381 0.194457 -0.136592
v -0.201381 0.195281 -0.135888
v -0.201256 0.194192 -0.136327
v -0.201256 0.195061 -0.135584
v -0.201381 0.196660 -0.136213
v -0.201381 0.197516 -0.135858
v -0.201381 0.196433 -0.135767
v -0.201381 0.197362 -0.135382
v -0.201381 0.196206 -0.135322
v -0.201381 0.197207 -0.134906
v -0.201256 0.196036 -0.134988
v -0.201256 0.197091 -0.134550
v -0.201381 0.198418 -0.135642
v -0.201381 0.199342 -0.135568
v -0.201381 0.198339 -0.135148
v -0.201381 0.199342 -0.135068
v -0.201381 0.198261 -0.134654
v -0.201381 0.199342 -0.134568
v -0.201256 0.198203 -0.134283
v -0.201256 0.199342 -0.134193
v -0.201381 0.200266 -0.135642
v -0.201381 0.201168 -0.135858
v -0.201381 0.200344 -0.135148
v -0.201381 0.201322 -0.135382
v -0.201381 0.200422 -0.134654
v -0.201381 0.201477 -0.134906
v -0.201256 0.200481 -0.134283
v -0.201256 0.201592 -0.134550
v -0.201381 0.202024 -0.136213
v -0.201381 0.202814 -0.136697
v -0.201381 0.202251 -0.135767
v -0.201381 0.203108 -0.136292
v -0.201381 0.202478 -0.135322
v -0.201381 0.203402 -0.135888
v -0.201256 0.202648 -0.134988
v -0.201256 0.203623 -0.135584
v -0.201381 0.203519 -0.137299
v -0.201381 0.204122 -0.138004
v -0.201381 0.203873 -0.136946
v -0.201381 0.204526 -0.137710
v -0.201381 0.204226 -0.136592
v -0.201381 0.204931 -0.137416
v -0.201256 0.204491 -0.136327
v -0.201256 0.205234 -0.137196
v -0.201381 0.204606 -0.138794
v -0.201381 0.204961 -0.139651
v -0.201381 0.205051 -0.138567
v -0.201381 0.205436 -0.139496
v -0.201381 0.205497 -0.138340
v -0.201381 0.205912 -0.139342
v -0.201256 0.205831 -0.138170
v -0.201256 0.206269 -0.139226
v -0.201381 0.205177 -0.140552
v -0.201381 0.205250 -0.141476
v -0.201381 0.205671 -0.140474
v -0.201381 0.205750 -0.141476
v -0.201381 0.206164 -0.140396
v -0.201381 0.206250 -0.141476
v -0.201256 0.206535 -0.140337
v -0.201256 0.206625 -0.141476
v -0.201381 0.205177 -0.142401
v -0.201381 0.204961 -0.143302
v -0.201381 0.205671 -0.142479
v -0.201381 0.205436 -0.143457
v -0.201381 0.206164 -0.142557
v -0.201381 0.205912 -0.143611
v -0.201256 0.206535 -0.142616
v -0.201256 0.206269 -0.143727
v -0.201381 0.204606 -0.144159
v -0.201381 0.204122 -0.144949
v -0.201381 0.205051 -0.144386
v -0.201381 0.204526 -0.145243
v -0.201381 0.205497 -0.144613
v -0.201381 0.204931 -0.145537
v -0.201256 0.205831 -0.144783
v -0.201256 0.205234 -0.145757
v -0.201381 0.203519 -0.145654
v -0.201381 0.202814 -0.146256
v -0.201381 0.203873 -0.146007
v -0.201381 0.203108 -0.146661
v -0.201381 0.204226 -0.146361
v -0.201381 0.203402 -0.147065
v -0.201256 0.204491 -0.146626
v -0.201256 0.203623 -0.147369
v -0.201381 0.202024 -0.146740
v -0.201381 0.201167 -0.147095
v -0.201381 0.202251 -0.147186
v -0.201381 0.201322 -0.147571
v -0.201381 0.202478 -0.147631
v -0.201381 0.201477 -0.148047
v -0.201256 0.202648 -0.147965
v -0.201256 0.201592 -0.148403
v -0.201381 0.200266 -0.147311
v -0.201381 0.199342 -0.147385
v -0.201381 0.200344 -0.147805
v -0.201381 0.199342 -0.147885
v -0.201381 0.200422 -0.148299
v -0.201381 0.199342 -0.148385
v -0.201256 0.200481 -0.148669
v -0.201256 0.199342 -0.148760
v -0.201381 0.198418 -0.147311
v -0.201381 0.197516 -0.147095
v -0.201381 0.198339 -0.147805
v -0.201381 0.197362 -0.147571
v -0.201381 0.198261 -0.148299
v -0.201381 0.197207 -0.148047
v -0.201256 0.198203 -0.148669
v -0.201256 0.197091 -0.148403
v -0.201381 0.196660 -0.146740
v -0.201381 0.195869 -0.146256
v -0.201381 0.196433 -0.147186
v -0.201381 0.195575 -0.146661
v -0.201381 0.196206 -0.147631
v -0.201381 0.195281 -0.147065
v -0.201256 0.196036 -0.147965
v -0.201256 0.195061 -0.147369
v -0.201381 0.195164 -0.145654
v -0.201381 0.194562 -0.144949
v -0.201381 0.194811 -0.146007
v -0.201381 0.194157 -0.145243
v -0.201381 0.194457 -0.146361
v -0.201381 0.193753 -0.145537
v -0.201256 0.194192 -0.146626
v -0.201256 0.193450 -0.145757
v -0.201381 0.194078 -0.144159
v -0.201381 0.193723 -0.143302
v -0.201381 0.193633 -0.144385
v -0.201381 0.193247 -0.143457
v -0.201381 0.193187 -0.144612
v -0.201381 0.192772 -0.143611
v -0.201256 0.192853 -0.144783
v -0.201256 0.192415 -0.143727
v -0.201381 0.193507 -0.142401
v -0.201381 0.193013 -0.142479
v -0.201381 0.192519 -0.142557
v -0.201256 0.192149 -0.142616
vt 0.904757 0.480588
vt 0.898630 0.518497
vt 0.869563 0.480588
vt 0.869563 0.480588
vt 0.898630 0.442680
vt 0.904757 0.480588
vt 0.903035 0.570141
vt 0.895785 0.590604
vt 0.869563 0.480588
vt 0.869563 0.480588
vt 0.898630 0.518497
vt 0.903035 0.570141
vt 0.898036 0.650927
vt 0.890373 0.651942
vt 0.869563 0.480588
vt 0.869563 0.480588
vt 0.895785 0.590604
vt 0.898036 0.650927
vt 0.890250 0.715039
vt 0.882924 0.696507
vt 0.869563 0.480588
vt 0.869563 0.480588
vt 0.890373 0.651942
vt 0.890250 0.715039
vt 0.880439 0.756202
vt 0.874167 0.719936
vt 0.869563 0.480588
vt 0.869563 0.480588
vt 0.882924 0.696507
vt 0.880439 0.756202
vt 0.869563 0.770386
vt 0.864959 0.719936
vt 0.869563 0.480588
vt 0.869563 0.480588
vt 0.874167 0.719936
vt 0.869563 0.770386
vt 0.858688 0.756202
vt 0.856202 0.696507
vt 0.869563 0.480588
vt 0.869563 0.480588
vt 0.864959 0.719936
vt 0.858688 0.756202
vt 0.848877 0.715040
vt 0.848753 0.651942
vt 0.869563 0.480588
vt 0.869563 0.480588
vt 0.856202 0.696507
vt 0.848877 0.715040
vt 0.841091 0.650927
vt 0.843341 0.590605
vt 0.869563 0.480588
vt 0.869563 0.480588
vt 0.848753 0.651942
vt 0.841091 0.650927
vt 0.836092 0.570141
vt 0.840496 0.518497
vt 0.869563 0.480588
vt 0.869563 0.480588
vt 0.843341 0.590605
vt 0.836092 0.570141
vt 0.834369 0.480588
vt 0.840496 0.442679
vt 0.869563 0.480588
vt 0.869563 0.480588
vt 0.840496 0.518497
vt 0.834369 0.480588
vt 0.836092 0.391036
vt 0.843341 0.370572
vt 0.869563 0.480588
vt 0.869563 0.480588
vt 0.840496 0.442679
vt 0.836092 0.391036
vt 0.841091 0.310250
vt 0.848753 0.309234
vt 0.869563 0.480588
vt 0.869563 0.480588
vt 0.843341 0.370572
vt 0.841091 0.310250
vt 0.848877 0.246137
vt 0.856202 0.264670
vt 0.869563 0.480588
vt 0.869563 0.480588
vt 0.848753 0.309234
vt 0.848877 0.246137
vt 0.858688 0.204975
vt 0.864959 0.241241
vt 0.869563 0.480588
vt 0.869563 0.480588
vt 0.856202 0.264670
vt 0.858688 0.204975
vt 0.869563 0.190791
vt 0.874167 0.241241
vt 0.869563 0.480588
vt 0.869563 0.480588
vt 0.864959 0.241241
vt 0.869563 0.190791
vt 0.880439 0.204975
vt 0.882924 0.264670
vt 0.869563 0.480588
vt 0.869563 0.480588
vt 0.874167 0.241241
vt 0.880439 0.204975
vt 0.890250 0.246138
vt 0.890373 0.309235
vt 0.869563 0.480588
vt 0.869563 0.480588
vt 0.882924 0.264670
vt 0.890250 0.246138
vt 0.898036 0.310250
vt 0.895785 0.370573
vt 0.869563 0.480588
vt 0.869563 0.480588
vt 0.890373 0.309235
vt 0.898036 0.310250
vt 0.903035 0.391036
vt 0.898630 0.442680
vt 0.869563 0.480588
vt 0.869563 0.480588
vt 0.895785 0.370573
vt 0.903035 0.391036
vt 0.903035 0.570141
vt 0.898630 0.518497
vt 0.910637 0.534156
vt 0.910637 0.534156
vt 0.909117 0.586413
vt 0.903035 0.570141
vt 0.904757 0.480588
vt 0.911152 0.480588
vt 0.910637 0.534156
vt 0.910637 0.534156
vt 0.898630 0.518497
vt 0.904757 0.480588
vt 0.914672 0.480588
vt 0.914113 0.538690
vt 0.910637 0.534156
vt 0.910637 0.534156
vt 0.911152 0.480588
vt 0.914672 0.480588
vt 0.912464 0.595370
vt 0.909117 0.586413
vt 0.910637 0.534156
vt 0.910637 0.534156
vt 0.914113 0.538690
vt 0.912464 0.595370
vt 0.912464 0.595370
vt 0.914113 0.538690
vt 0.917590 0.543224
vt 0.917590 0.543224
vt 0.915812 0.604326
vt 0.912464 0.595370
vt 0.914672 0.480588
vt 0.918192 0.480588
vt 0.917590 0.543224
vt 0.917590 0.543224
vt 0.914113 0.538690
vt 0.914672 0.480588
vt 0.920832 0.480588
vt 0.920197 0.546624
vt 0.917590 0.543224
vt 0.917590 0.543224
vt 0.918192 0.480588
vt 0.920832 0.480588
vt 0.918323 0.611044
vt 0.915812 0.604326
vt 0.917590 0.543224
vt 0.917590 0.543224
vt 0.920197 0.546624
vt 0.918323 0.611044
vt 0.898036 0.650927
vt 0.895785 0.590604
vt 0.906616 0.636048
vt 0.906616 0.636048
vt 0.903209 0.681879
vt 0.898036 0.650927
vt 0.903035 0.570141
vt 0.909117 0.586413
vt 0.906616 0.636048
vt 0.906616 0.636048
vt 0.895785 0.590604
vt 0.903035 0.570141
vt 0.912464 0.595370
vt 0.909752 0.649206
vt 0.906616 0.636048
vt 0.906616 0.636048
vt 0.909117 0.586413
vt 0.912464 0.595370
vt 0.906057 0.698915
vt 0.903209 0.681879
vt 0.906616 0.636048
vt 0.906616 0.636048
vt 0.909752 0.649206
vt 0.906057 0.698915
vt 0.906057 0.698915
vt 0.909752 0.649206
vt 0.912889 0.662363
vt 0.912889 0.662363
vt 0.908905 0.715952
vt 0.906057 0.698915
vt 0.912464 0.595370
vt 0.915812 0.604326
vt 0.912889 0.662363
vt 0.912889 0.662363
vt 0.909752 0.649206
vt 0.912464 0.595370
vt 0.918323 0.611044
vt 0.915241 0.672231
vt 0.912889 0.662363
vt 0.912889 0.662363
vt 0.915812 0.604326
vt 0.918323 0.611044
vt 0.911041 0.728729
vt 0.908905 0.715952
vt 0.912889 0.662363
vt 0.912889 0.662363
vt 0.915241 0.672231
vt 0.911041 0.728729
vt 0.890250 0.715039
vt 0.890373 0.651942
vt 0.898969 0.722723
vt 0.898969 0.722723
vt 0.894009 0.757641
vt 0.890250 0.715039
vt 0.898036 0.650927
vt 0.903209 0.681879
vt 0.898969 0.722723
vt 0.898969 0.722723
vt 0.890373 0.651942
vt 0.898036 0.650927
vt 0.906057 0.698915
vt 0.901458 0.743216
vt 0.898969 0.722723
vt 0.898969 0.722723
vt 0.903209 0.681879
vt 0.906057 0.698915
vt 0.896078 0.781089
vt 0.894009 0.757641
vt 0.898969 0.722723
vt 0.898969 0.722723
vt 0.901458 0.743216
vt 0.896078 0.781089
vt 0.896078 0.781089
vt 0.901458 0.743216
vt 0.903946 0.763709
vt 0.903946 0.763709
vt 0.898147 0.804538
vt 0.896078 0.781089
vt 0.906057 0.698915
vt 0.908905 0.715952
vt 0.903946 0.763709
vt 0.903946 0.763709
vt 0.901458 0.743216
vt 0.906057 0.698915
vt 0.911041 0.728729
vt 0.905813 0.779079
vt 0.903946 0.763709
vt 0.903946 0.763709
vt 0.908905 0.715952
vt 0.911041 0.728729
vt 0.899698 0.822124
vt 0.898147 0.804538
vt 0.903946 0.763709
vt 0.903946 0.763709
vt 0.905813 0.779079
vt 0.899698 0.822124
vt 0.880439 0.756202
vt 0.882924 0.696507
vt 0.888443 0.785695
vt 0.888443 0.785695
vt 0.882415 0.806283
vt 0.880439 0.756202
vt 0.890250 0.715039
vt 0.894009 0.757641
vt 0.888443 0.785695
vt 0.888443 0.785695
vt 0.882924 0.696507
vt 0.890250 0.715039
vt 0.896078 0.781089
vt 0.890041 0.811518
vt 0.888443 0.785695
vt 0.888443 0.785695
vt 0.894009 0.757641
vt 0.896078 0.781089
vt 0.883503 0.833849
vt 0.882415 0.806283
vt 0.888443 0.785695
vt 0.888443 0.785695
vt 0.890041 0.811518
vt 0.883503 0.833849
vt 0.883503 0.833849
vt 0.890041 0.811518
vt 0.891639 0.837341
vt 0.891639 0.837341
vt 0.884590 0.861414
vt 0.883503 0.833849
vt 0.896078 0.781089
vt 0.898147 0.804538
vt 0.891639 0.837341
vt 0.891639 0.837341
vt 0.890041 0.811518
vt 0.896078 0.781089
vt 0.899698 0.822124
vt 0.892837 0.856708
vt 0.891639 0.837341
vt 0.891639 0.837341
vt 0.898147 0.804538
vt 0.899698 0.822124
vt 0.885406 0.882088
vt 0.884590 0.861414
vt 0.891639 0.837341
vt 0.891639 0.837341
vt 0.892837 0.856708
vt 0.885406 0.882088
vt 0.869563 0.770386
vt 0.874167 0.719936
vt 0.876069 0.818802
vt 0.876069 0.818802
vt 0.869563 0.823044
vt 0.869563 0.770386
vt 0.880439 0.756202
vt 0.882415 0.806283
vt 0.876069 0.818802
vt 0.876069 0.818802
vt 0.874167 0.719936
vt 0.880439 0.756202
vt 0.883503 0.833849
vt 0.876619 0.847427
vt 0.876069 0.818802
vt 0.876069 0.818802
vt 0.882415 0.806283
vt 0.883503 0.833849
vt 0.869563 0.852028
vt 0.869563 0.823044
vt 0.876069 0.818802
vt 0.876069 0.818802
vt 0.876619 0.847427
vt 0.869563 0.852028
vt 0.869563 0.852028
vt 0.876619 0.847427
vt 0.877170 0.876052
vt 0.877170 0.876052
vt 0.869563 0.881012
vt 0.869563 0.852028
vt 0.883503 0.833849
vt 0.884590 0.861414
vt 0.877170 0.876052
vt 0.877170 0.876052
vt 0.876619 0.847427
vt 0.883503 0.833849
vt 0.885406 0.882088
vt 0.877583 0.897521
vt 0.877170 0.876052
vt 0.877170 0.876052
vt 0.884590 0.861414
vt 0.885406 0.882088
vt 0.869563 0.902750
vt 0.869563 0.881012
vt 0.877170 0.876052
vt 0.877170 0.876052
vt 0.877583 0.897521
vt 0.869563 0.902750
vt 0.858688 0.756202
vt 0.864959 0.719936
vt 0.863058 0.818802
vt 0.863058 0.818802
vt 0.856711 0.806283
vt 0.858688 0.756202
vt 0.869563 0.770386
vt 0.869563 0.823044
vt 0.863058 0.818802
vt 0.863058 0.818802
vt 0.864959 0.719936
vt 0.869563 0.770386
vt 0.869563 0.852028
vt 0.862507 0.847427
vt 0.863058 0.818802
vt 0.863058 0.818802
vt 0.869563 0.823044
vt 0.869563 0.852028
vt 0.855624 0.833849
vt 0.856711 0.806283
vt 0.863058 0.818802
vt 0.863058 0.818802
vt 0.862507 0.847427
vt 0.855624 0.833849
vt 0.855624 0.833849
vt 0.862507 0.847427
vt 0.861956 0.876052
vt 0.861956 0.876052
vt 0.854536 0.861414
vt 0.855624 0.833849
vt 0.869563 0.852028
vt 0.869563 0.881012
vt 0.861956 0.876052
vt 0.861956 0.876052
vt 0.862507 0.847427
vt 0.869563 0.852028
vt 0.869563 0.902750
vt 0.861544 0.897521
vt 0.861956 0.876052
vt 0.861956 0.876052
vt 0.869563 0.881012
vt 0.869563 0.902750
vt 0.853720 0.882088
vt 0.854536 0.861414
vt 0.861956 0.876052
vt 0.861956 0.876052
vt 0.861544 0.897521
vt 0.853720 0.882088
vt 0.848877 0.715040
vt 0.856202 0.696507
vt 0.850684 0.785695
vt 0.850684 0.785695
vt 0.845118 0.757641
vt 0.848877 0.715040
vt 0.858688 0.756202
vt 0.856711 0.806283
vt 0.850684 0.785695
vt 0.850684 0.785695
vt 0.856202 0.696507
vt 0.858688 0.756202
vt 0.855624 0.833849
vt 0.849086 0.811518
vt 0.850684 0.785695
vt 0.850684 0.785695
vt 0.856711 0.806283
vt 0.855624 0.833849
vt 0.843049 0.781090
vt 0.845118 0.757641
vt 0.850684 0.785695
vt 0.850684 0.785695
vt 0.849086 0.811518
vt 0.843049 0.781090
vt 0.843049 0.781090
vt 0.849086 0.811518
vt 0.847488 0.837341
vt 0.847488 0.837341
vt 0.840980 0.804538
vt 0.843049 0.781090
vt 0.855624 0.833849
vt 0.854536 0.861414
vt 0.847488 0.837341
vt 0.847488 0.837341
vt 0.849086 0.811518
vt 0.855624 0.833849
vt 0.853720 0.882088
vt 0.846289 0.856709
vt 0.847488 0.837341
vt 0.847488 0.837341
vt 0.854536 0.861414
vt 0.853720 0.882088
vt 0.839428 0.822125
vt 0.840980 0.804538
vt 0.847488 0.837341
vt 0.847488 0.837341
vt 0.846289 0.856709
vt 0.839428 0.822125
vt 0.841091 0.650927
vt 0.848753 0.651942
vt 0.840157 0.722723
vt 0.840157 0.722723
vt 0.835917 0.681879
vt 0.841091 0.650927
vt 0.848877 0.715040
vt 0.845118 0.757641
vt 0.840157 0.722723
vt 0.840157 0.722723
vt 0.848753 0.651942
vt 0.848877 0.715040
vt 0.843049 0.781090
vt 0.837669 0.743216
vt 0.840157 0.722723
vt 0.840157 0.722723
vt 0.845118 0.757641
vt 0.843049 0.781090
vt 0.833069 0.698915
vt 0.835917 0.681879
vt 0.840157 0.722723
vt 0.840157 0.722723
vt 0.837669 0.743216
vt 0.833069 0.698915
vt 0.833069 0.698915
vt 0.837669 0.743216
vt 0.835180 0.763709
vt 0.835180 0.763709
vt 0.830221 0.715952
vt 0.833069 0.698915
vt 0.843049 0.781090
vt 0.840980 0.804538
vt 0.835180 0.763709
vt 0.835180 0.763709
vt 0.837669 0.743216
vt 0.843049 0.781090
vt 0.839428 0.822125
vt 0.833313 0.779079
vt 0.835180 0.763709
vt 0.835180 0.763709
vt 0.840980 0.804538
vt 0.839428 0.822125
vt 0.828086 0.728729
vt 0.830221 0.715952
vt 0.835180 0.763709
vt 0.835180 0.763709
vt 0.833313 0.779079
vt 0.828086 0.728729
vt 0.836092 0.570141
vt 0.843341 0.590605
vt 0.832510 0.636048
vt 0.832510 0.636048
vt 0.830010 0.586413
vt 0.836092 0.570141
vt 0.841091 0.650927
vt 0.835917 0.681879
vt 0.832510 0.636048
vt 0.832510 0.636048
vt 0.843341 0.590605
vt 0.841091 0.650927
vt 0.833069 0.698915
vt 0.829374 0.649206
vt 0.832510 0.636048
vt 0.832510 0.636048
vt 0.835917 0.681879
vt 0.833069 0.698915
vt 0.826662 0.595370
vt 0.830010 0.586413
vt 0.832510 0.636048
vt 0.832510 0.636048
vt 0.829374 0.649206
vt 0.826662 0.595370
vt 0.826662 0.595370
vt 0.829374 0.649206
vt 0.826238 0.662363
vt 0.826238 0.662363
vt 0.823314 0.604326
vt 0.826662 0.595370
vt 0.833069 0.698915
vt 0.830221 0.715952
vt 0.826238 0.662363
vt 0.826238 0.662363
vt 0.829374 0.649206
vt 0.833069 0.698915
vt 0.828086 0.728729
vt 0.823886 0.672231
vt 0.826238 0.662363
vt 0.826238 0.662363
vt 0.830221 0.715952
vt 0.828086 0.728729
vt 0.820803 0.611044
vt 0.823314 0.604326
vt 0.826238 0.662363
vt 0.826238 0.662363
vt 0.823886 0.672231
vt 0.820803 0.611044
vt 0.834369 0.480588
vt 0.840496 0.518497
vt 0.828489 0.534156
vt 0.828489 0.534156
vt 0.827974 0.480588
vt 0.834369 0.480588
vt 0.836092 0.570141
vt 0.830010 0.586413
vt 0.828489 0.534156
vt 0.828489 0.534156
vt 0.840496 0.518497
vt 0.836092 0.570141
vt 0.826662 0.595370
vt 0.825013 0.538690
vt 0.828489 0.534156
vt 0.828489 0.534156
vt 0.830010 0.586413
vt 0.826662 0.595370
vt 0.824454 0.480588
vt 0.827974 0.480588
vt 0.828489 0.534156
vt 0.828489 0.534156
vt 0.825013 0.538690
vt 0.824454 0.480588
vt 0.824454 0.480588
vt 0.825013 0.538690
vt 0.821537 0.543224
vt 0.821537 0.543224
vt 0.820934 0.480588
vt 0.824454 0.480588
vt 0.826662 0.595370
vt 0.823314 0.604326
vt 0.821537 0.543224
vt 0.821537 0.543224
vt 0.825013 0.538690
vt 0.826662 0.595370
vt 0.820803 0.611044
vt 0.818929 0.546624
vt 0.821537 0.543224
vt 0.821537 0.543224
vt 0.823314 0.604326
vt 0.820803 0.611044
vt 0.818294 0.480588
vt 0.820934 0.480588
vt 0.821537 0.543224
vt 0.821537 0.543224
vt 0.818929 0.546624
vt 0.818294 0.480588
vt 0.836092 0.391036
vt 0.840496 0.442679
vt 0.828489 0.427021
vt 0.828489 0.427021
vt 0.830010 0.374764
vt 0.836092 0.391036
vt 0.834369 0.480588
vt 0.827974 0.480588
vt 0.828489 0.427021
vt 0.828489 0.427021
vt 0.840496 0.442679
vt 0.834369 0.480588
vt 0.824454 0.480588
vt 0.825013 0.422487
vt 0.828489 0.427021
vt 0.828489 0.427021
vt 0.827974 0.480588
vt 0.824454 0.480588
vt 0.826662 0.365807
vt 0.830010 0.374764
vt 0.828489 0.427021
vt 0.828489 0.427021
vt 0.825013 0.422487
vt 0.826662 0.365807
vt 0.826662 0.365807
vt 0.825013 0.422487
vt 0.821537 0.417953
vt 0.821537 0.417953
vt 0.823314 0.356851
vt 0.826662 0.365807
vt 0.824454 0.480588
vt 0.820934 0.480588
vt 0.821537 0.417953
vt 0.821537 0.417953
vt 0.825013 0.422487
vt 0.824454 0.480588
vt 0.818294 0.480588
vt 0.818929 0.414553
vt 0.821537 0.417953
vt 0.821537 0.417953
vt 0.820934 0.480588
vt 0.818294 0.480588
vt 0.820804 0.350133
vt 0.823314 0.356851
vt 0.821537 0.417953
vt 0.821537 0.417953
vt 0.818929 0.414553
vt 0.820804 0.350133
vt 0.841091 0.310250
vt 0.843341 0.370572
vt 0.832510 0.325129
vt 0.832510 0.325129
vt 0.835917 0.279298
vt 0.841091 0.310250
vt 0.836092 0.391036
vt 0.830010 0.374764
vt 0.832510 0.325129
vt 0.832510 0.325129
vt 0.843341 0.370572
vt 0.836092 0.391036
vt 0.826662 0.365807
vt 0.829374 0.311971
vt 0.832510 0.325129
vt 0.832510 0.325129
vt 0.830010 0.374764
vt 0.826662 0.365807
vt 0.833069 0.262262
vt 0.835917 0.279298
vt 0.832510 0.325129
vt 0.832510 0.325129
vt 0.829374 0.311971
vt 0.833069 0.262262
vt 0.833069 0.262262
vt 0.829374 0.311971
vt 0.826238 0.298814
vt 0.826238 0.298814
vt 0.830221 0.245225
vt 0.833069 0.262262
vt 0.826662 0.365807
vt 0.823314 0.356851
vt 0.826238 0.298814
vt 0.826238 0.298814
vt 0.829374 0.311971
vt 0.826662 0.365807
vt 0.820804 0.350133
vt 0.823886 0.288946
vt 0.826238 0.298814
vt 0.826238 0.298814
vt 0.823314 0.356851
vt 0.820804 0.350133
vt 0.828086 0.232448
vt 0.830221 0.245225
vt 0.826238 0.298814
vt 0.826238 0.298814
vt 0.823886 0.288946
vt 0.828086 0.232448
vt 0.848877 0.246137
vt 0.848753 0.309234
vt 0.840157 0.238454
vt 0.840157 0.238454
vt 0.845118 0.203536
vt 0.848877 0.246137
vt 0.841091 0.310250
vt 0.835917 0.279298
vt 0.840157 0.238454
vt 0.840157 0.238454
vt 0.848753 0.309234
vt 0.841091 0.310250
vt 0.833069 0.262262
vt 0.837669 0.217961
vt 0.840157 0.238454
vt 0.840157 0.238454
vt 0.835917 0.279298
vt 0.833069 0.262262
vt 0.843049 0.180087
vt 0.845118 0.203536
vt 0.840157 0.238454
vt 0.840157 0.238454
vt 0.837669 0.217961
vt 0.843049 0.180087
vt 0.843049 0.180087
vt 0.837669 0.217961
vt 0.835180 0.197468
vt 0.835180 0.197468
vt 0.840980 0.156639
vt 0.843049 0.180087
vt 0.833069 0.262262
vt 0.830221 0.245225
vt 0.835180 0.197468
vt 0.835180 0.197468
vt 0.837669 0.217961
vt 0.833069 0.262262
vt 0.828086 0.232448
vt 0.833313 0.182098
vt 0.835180 0.197468
vt 0.835180 0.197468
vt 0.830221 0.245225
vt 0.828086 0.232448
vt 0.839428 0.139052
vt 0.840980 0.156639
vt 0.835180 0.197468
vt 0.835180 0.197468
vt 0.833313 0.182098
vt 0.839428 0.139052
vt 0.858688 0.204975
vt 0.856202 0.264670
vt 0.850684 0.175481
vt 0.850684 0.175481
vt 0.856711 0.154894
vt 0.858688 0.204975
vt 0.848877 0.246137
vt 0.845118 0.203536
vt 0.850684 0.175481
vt 0.850684 0.175481
vt 0.856202 0.264670
vt 0.848877 0.246137
vt 0.843049 0.180087
vt 0.849086 0.149659
vt 0.850684 0.175481
vt 0.850684 0.175481
vt 0.845118 0.203536
vt 0.843049 0.180087
vt 0.855624 0.127328
vt 0.856711 0.154894
vt 0.850684 0.175481
vt 0.850684 0.175481
vt 0.849086 0.149659
vt 0.855624 0.127328
vt 0.855624 0.127328
vt 0.849086 0.149659
vt 0.847488 0.123836
vt 0.847488 0.123836
vt 0.854536 0.099763
vt 0.855624 0.127328
vt 0.843049 0.180087
vt 0.840980 0.156639
vt 0.847488 0.123836
vt 0.847488 0.123836
vt 0.849086 0.149659
vt 0.843049 0.180087
vt 0.839428 0.139052
vt 0.846289 0.104468
vt 0.847488 0.123836
vt 0.847488 0.123836
vt 0.840980 0.156639
vt 0.839428 0.139052
vt 0.853720 0.079089
vt 0.854536 0.099763
vt 0.847488 0.123836
vt 0.847488 0.123836
vt 0.846289 0.104468
vt 0.853720 0.079089
vt 0.869563 0.190791
vt 0.864959 0.241241
vt 0.863058 0.142375
vt 0.863058 0.142375
vt 0.869563 0.138133
vt 0.869563 0.190791
vt 0.858688 0.204975
vt 0.856711 0.154894
vt 0.863058 0.142375
vt 0.863058 0.142375
vt 0.864959 0.241241
vt 0.858688 0.204975
vt 0.855624 0.127328
vt 0.862507 0.113750
vt 0.863058 0.142375
vt 0.863058 0.142375
vt 0.856711 0.154894
vt 0.855624 0.127328
vt 0.869563 0.109149
vt 0.869563 0.138133
vt 0.863058 0.142375
vt 0.863058 0.142375
vt 0.862507 0.113750
vt 0.869563 0.109149
vt 0.869563 0.109149
vt 0.862507 0.113750
vt 0.861956 0.085125
vt 0.861956 0.085125
vt 0.869563 0.080165
vt 0.869563 0.109149
vt 0.855624 0.127328
vt 0.854536 0.099763
vt 0.861956 0.085125
vt 0.861956 0.085125
vt 0.862507 0.113750
vt 0.855624 0.127328
vt 0.853720 0.079089
vt 0.861544 0.063656
vt 0.861956 0.085125
vt 0.861956 0.085125
vt 0.854536 0.099763
vt 0.853720 0.079089
vt 0.869563 0.058427
vt 0.869563 0.080165
vt 0.861956 0.085125
vt 0.861956 0.085125
vt 0.861544 0.063656
vt 0.869563 0.058427
vt 0.880439 0.204975
vt 0.874167 0.241241
vt 0.876069 0.142375
vt 0.876069 0.142375
vt 0.882415 0.154894
vt 0.880439 0.204975
vt 0.869563 0.190791
vt 0.869563 0.138133
vt 0.876069 0.142375
vt 0.876069 0.142375
vt 0.874167 0.241241
vt 0.869563 0.190791
vt 0.869563 0.109149
vt 0.876619 0.113750
vt 0.876069 0.142375
vt 0.876069 0.142375
vt 0.869563 0.138133
vt 0.869563 0.109149
vt 0.883503 0.127328
vt 0.882415 0.154894
vt 0.876069 0.142375
vt 0.876069 0.142375
vt 0.876619 0.113750
vt 0.883503 0.127328
vt 0.883503 0.127328
vt 0.876619 0.113750
vt 0.877170 0.085125
vt 0.877170 0.085125
vt 0.884590 0.099763
vt 0.883503 0.127328
vt 0.869563 0.109149
vt 0.869563 0.080165
vt 0.877170 0.085125
vt 0.877170 0.085125
vt 0.876619 0.113750
vt 0.869563 0.109149
vt 0.869563 0.058427
vt 0.877583 0.063656
vt 0.877170 0.085125
vt 0.877170 0.085125
vt 0.869563 0.080165
vt 0.869563 0.058427
vt 0.885406 0.079089
vt 0.884590 0.099763
vt 0.877170 0.085125
vt 0.877170 0.085125
vt 0.877583 0.063656
vt 0.885406 0.079089
vt 0.890250 0.246138
vt 0.882924 0.264670
vt 0.888443 0.175482
vt 0.888443 0.175482
vt 0.894009 0.203536
vt 0.890250 0.246138
vt 0.880439 0.204975
vt 0.882415 0.154894
vt 0.888443 0.175482
vt 0.888443 0.175482
vt 0.882924 0.264670
vt 0.880439 0.204975
vt 0.883503 0.127328
vt 0.890041 0.149659
vt 0.888443 0.175482
vt 0.888443 0.175482
vt 0.882415 0.154894
vt 0.883503 0.127328
vt 0.896078 0.180088
vt 0.894009 0.203536
vt 0.888443 0.175482
vt 0.888443 0.175482
vt 0.890041 0.149659
vt 0.896078 0.180088
vt 0.896078 0.180088
vt 0.890041 0.149659
vt 0.891639 0.123836
vt 0.891639 0.123836
vt 0.898147 0.156639
vt 0.896078 0.180088
vt 0.883503 0.127328
vt 0.884590 0.099763
vt 0.891639 0.123836
vt 0.891639 0.123836
vt 0.890041 0.149659
vt 0.883503 0.127328
vt 0.885406 0.079089
vt 0.892837 0.104469
vt 0.891639 0.123836
vt 0.891639 0.123836
vt 0.884590 0.099763
vt 0.885406 0.079089
vt 0.899698 0.139053
vt 0.898147 0.156639
vt 0.891639 0.123836
vt 0.891639 0.123836
vt 0.892837 0.104469
vt 0.899698 0.139053
vt 0.898036 0.310250
vt 0.890373 0.309235
vt 0.898969 0.238455
vt 0.898969 0.238455
vt 0.903209 0.279298
vt 0.898036 0.310250
vt 0.890250 0.246138
vt 0.894009 0.203536
vt 0.898969 0.238455
vt 0.898969 0.238455
vt 0.890373 0.309235
vt 0.890250 0.246138
vt 0.896078 0.180088
vt 0.901458 0.217961
vt 0.898969 0.238455
vt 0.898969 0.238455
vt 0.894009 0.203536
vt 0.896078 0.180088
vt 0.906057 0.262262
vt 0.903209 0.279298
vt 0.898969 0.238455
vt 0.898969 0.238455
vt 0.901458 0.217961
vt 0.906057 0.262262
vt 0.906057 0.262262
vt 0.901458 0.217961
vt 0.903946 0.197468
vt 0.903946 0.197468
vt 0.908905 0.245226
vt 0.906057 0.262262
vt 0.896078 0.180088
vt 0.898147 0.156639
vt 0.903946 0.197468
vt 0.903946 0.197468
vt 0.901458 0.217961
vt 0.896078 0.180088
vt 0.899698 0.139053
vt 0.905813 0.182098
vt 0.903946 0.197468
vt 0.903946 0.197468
vt 0.898147 0.156639
vt 0.899698 0.139053
vt 0.911041 0.232448
vt 0.908905 0.245226
vt 0.903946 0.197468
vt 0.903946 0.197468
vt 0.905813 0.182098
vt 0.911041 0.232448
vt 0.903035 0.391036
vt 0.895785 0.370573
vt 0.906616 0.325129
vt 0.906616 0.325129
vt 0.909117 0.374764
vt 0.903035 0.391036
vt 0.898036 0.310250
vt 0.903209 0.279298
vt 0.906616 0.325129
vt 0.906616 0.325129
vt 0.895785 0.370573
vt 0.898036 0.310250
vt 0.906057 0.262262
vt 0.909752 0.311972
vt 0.906616 0.325129
vt 0.906616 0.325129
vt 0.903209 0.279298
vt 0.906057 0.262262
vt 0.912464 0.365808
vt 0.909117 0.374764
vt 0.906616 0.325129
vt 0.906616 0.325129
vt 0.909752 0.311972
vt 0.912464 0.365808
vt 0.912464 0.365808
vt 0.909752 0.311972
vt 0.912889 0.298814
vt 0.912889 0.298814
vt 0.915812 0.356851
vt 0.912464 0.365808
vt 0.906057 0.262262
vt 0.908905 0.245226
vt 0.912889 0.298814
vt 0.912889 0.298814
vt 0.909752 0.311972
vt 0.906057 0.262262
vt 0.911041 0.232448
vt 0.915241 0.288946
vt 0.912889 0.298814
vt 0.912889 0.298814
vt 0.908905 0.245226
vt 0.911041 0.232448
vt 0.918323 0.350134
vt 0.915812 0.356851
vt 0.912889 0.298814
vt 0.912889 0.298814
vt 0.915241 0.288946
vt 0.918323 0.350134
vt 0.904757 0.480588
vt 0.898630 0.442680
vt 0.910637 0.427021
vt 0.910637 0.427021
vt 0.911152 0.480588
vt 0.904757 0.480588
vt 0.903035 0.391036
vt 0.909117 0.374764
vt 0.910637 0.427021
vt 0.910637 0.427021
vt 0.898630 0.442680
vt 0.903035 0.391036
vt 0.912464 0.365808
vt 0.914113 0.422487
vt 0.910637 0.427021
vt 0.910637 0.427021
vt 0.909117 0.374764
vt 0.912464 0.365808
vt 0.914672 0.480588
vt 0.911152 0.480588
vt 0.910637 0.427021
vt 0.910637 0.427021
vt 0.914113 0.422487
vt 0.914672 0.480588
vt 0.914672 0.480588
vt 0.914113 0.422487
vt 0.917590 0.417953
vt 0.917590 0.417953
vt 0.918192 0.480588
vt 0.914672 0.480588
vt 0.912464 0.365808
vt 0.915812 0.356851
vt 0.917590 0.417953
vt 0.917590 0.417953
vt 0.914113 0.422487
vt 0.912464 0.365808
vt 0.918323 0.350134
vt 0.920197 0.414553
vt 0.917590 0.417953
vt 0.917590 0.417953
vt 0.915812 0.356851
vt 0.918323 0.350134
vt 0.920832 0.480588
vt 0.918192 0.480588
vt 0.917590 0.417953
vt 0.917590 0.417953
vt 0.920197 0.414553
vt 0.920832 0.480588
f 1/1 2/2 3/3
f 3/4 4/5 1/6
f 5/7 6/8 3/9
f 3/10 2/11 5/12
f 7/13 8/14 3/15
f 3/16 6/17 7/18
f 9/19 10/20 3/21
f 3/22 8/23 9/24
f 11/25 12/26 3/27
f 3/28 10/29 11/30
f 13/31 14/32 3/33
f 3/34 12/35 13/36
f 15/37 16/38 3/39
f 3/40 14/41 15/42
f 17/43 18/44 3/45
f 3/46 16/47 17/48
f 19/49 20/50 3/51
f 3/52 18/53 19/54
f 21/55 22/56 3/57
f 3/58 20/59 21/60
f 23/61 24/62 3/63
f 3/64 22/65 23/66
f 25/67 26/68 3/69
f 3/70 24/71 25/72
f 27/73 28/74 3/75
f 3/76 26/77 27/78
f 29/79 30/80 3/81
f 3/82 28/83 29/84
f 31/85 32/86 3/87
f 3/88 30/89 31/90
f 33/91 34/92 3/93
f 3/94 32/95 33/96
f 35/97 36/98 3/99
f 3/100 34/101 35/102
f 37/103 38/104 3/105
f 3/106 36/107 37/108
f 39/109 40/110 3/111
f 3/112 38/113 39/114
f 41/115 4/116 3/117
f 3/118 40/119 41/120
f 5/121 2/122 42/123
f 42/124 43/125 5/126
f 1/127 44/128 42/129
f 42/130 2/131 1/132
f 45/133 46/134 42/135
f 42/136 44/137 45/138
f 47/139 43/140 42/141
f 42/142 46/143 47/144
f 47/145 46/146 48/147
f 48/148 49/149 47/150
f 45/151 50/152 48/153
f 48/154 46/155 45/156
f 51/157 52/158 48/159
f 48/160 50/161 51/162
f 53/163 49/164 48/165
f 48/166 52/167 53/168
f 7/169 6/170 54/171
f 54/172 55/173 7/174
f 5/175 43/176 54/177
f 54/178 6/179 5/180
f 47/181 56/182 54/183
f 54/184 43/185 47/186
f 57/187 55/188 54/189
f 54/190 56/191 57/192
f 57/193 56/194 58/195
f 58/196 59/197 57/198
f 47/199 49/200 58/201
f 58/202 56/203 47/204
f 53/205 60/206 58/207
f 58/208 49/209 53/210
f 61/211 59/212 58/213
f 58/214 60/215 61/216
f 9/217 8/218 62/219
f 62/220 63/221 9/222
f 7/223 55/224 62/225
f 62/226 8/227 7/228
f 57/229 64/230 62/231
f 62/232 55/233 57/234
f 65/235 63/236 62/237
f 62/238 64/239 65/240
f 65/241 64/242 66/243
f 66/244 67/245 65/246
f 57/247 59/248 66/249
f 66/250 64/251 57/252
f 61/253 68/254 66/255
f 66/256 59/257 61/258
f 69/259 67/260 66/261
f 66/262 68/263 69/264
f 11/265 10/266 70/267
f 70/268 71/269 11/270
f 9/271 63/272 70/273
f 70/274 10/275 9/276
f 65/277 72/278 70/279
f 70/280 63/281 65/282
f 73/283 71/284 70/285
f 70/286 72/287 73/288
f 73/289 72/290 74/291
f 74/292 75/293 73/294
f 65/295 67/296 74/297
f 74/298 72/299 65/300
f 69/301 76/302 74/303
f 74/304 67/305 69/306
f 77/307 75/308 74/309
f 74/310 76/311 77/312
f 13/313 12/314 78/315
f 78/316 79/317 13/318
f 11/319 71/320 78/321
f 78/322 12/323 11/324
f 73/325 80/326 78/327
f 78/328 71/329 73/330
f 81/331 79/332 78/333
f 78/334 80/335 81/336
f 81/337 80/338 82/339
f 82/340 83/341 81/342
f 73/343 75/344 82/345
f 82/346 80/347 73/348
f 77/349 84/350 82/351
f 82/352 75/353 77/354
f 85/355 83/356 82/357
f 82/358 84/359 85/360
f 15/361 14/362 86/363
f 86/364 87/365 15/366
f 13/367 79/368 86/369
f 86/370 14/371 13/372
f 81/373 88/374 86/375
f 86/376 79/377 81/378
f 89/379 87/380 86/381
f 86/382 88/383 89/384
f 89/385 88/386 90/387
f 90/388 91/389 89/390
f 81/391 83/392 90/393
f 90/394 88/395 81/396
f 85/397 92/398 90/399
f 90/400 83/401 85/402
f 93/403 91/404 90/405
f 90/406 92/407 93/408
f 17/409 16/410 94/411
f 94/412 95/413 17/414
f 15/415 87/416 94/417
f 94/418 16/419 15/420
f 89/421 96/422 94/423
f 94/424 87/425 89/426
f 97/427 95/428 94/429
f 94/430 96/431 97/432
f 97/433 96/434 98/435
f 98/436 99/437 97/438
f 89/439 91/440 98/441
f 98/442 96/443 89/444
f 93/445 100/446 98/447
f 98/448 91/449 93/450
f 101/451 99/452 98/453
f 98/454 100/455 101/456
f 19/457 18/458 102/459
f 102/460 103/461 19/462
f 17/463 95/464 102/465
f 102/466 18/467 17/468
f 97/469 104/470 102/471
f 102/472 95/473 97/474
f 105/475 103/476 102/477
f 102/478 104/479 105/480
f 105/481 104/482 106/483
f 106/484 107/485 105/486
f 97/487 99/488 106/489
f 106/490 104/491 97/492
f 101/493 108/494 106/495
f 106/496 99/497 101/498
f 109/499 107/500 106/501
f 106/502 108/503 109/504
f 21/505 20/506 110/507
f 110/508 111/509 21/510
f 19/511 103/512 110/513
f 110/514 20/515 19/516
f 105/517 112/518 110/519
f 110/520 103/521 105/522
f 113/523 111/524 110/525
f 110/526 112/527 113/528
f 113/529 112/530 114/531
f 114/532 115/533 113/534
f 105/535 107/536 114/537
f 114/538 112/539 105/540
f 109/541 116/542 114/543
f 114/544 107/545 109/546
f 117/547 115/548 114/549
f 114/550 116/551 117/552
f 23/553 22/554 118/555
f 118/556 119/557 23/558
f 21/559 111/560 118/561
f 118/562 22/563 21/564
f 113/565 120/566 118/567
f 118/568 111/569 113/570
f 121/571 119/572 118/573
f 118/574 120/575 121/576
f 121/577 120/578 122/579
f 122/580 123/581 121/582
f 113/583 115/584 122/585
f 122/586 120/587 113/588
f 117/589 124/590 122/591
f 122/592 115/593 117/594
f 125/595 123/596 122/597
f 122/598 124/599 125/600
f 25/601 24/602 126/603
f 126/604 127/605 25/606
f 23/607 119/608 126/609
f 126/610 24/611 23/612
f 121/613 128/614 126/615
f 126/616 119/617 121/618
f 129/619 127/620 126/621
f 126/622 128/623 129/624
f 129/625 128/626 130/627
f 130/628 131/629 129/630
f 121/631 123/632 130/633
f 130/634 128/635 121/636
f 125/637 132/638 130/639
f 130/640 123/641 125/642
f 133/643 131/644 130/645
f 130/646 132/647 133/648
f 27/649 26/650 134/651
f 134/652 135/653 27/654
f 25/655 127/656 134/657
f 134/658 26/659 25/660
f 129/661 136/662 134/663
f 134/664 127/665 129/666
f 137/667 135/668 134/669
f 134/670 136/671 137/672
f 137/673 136/674 138/675
f 138/676 139/677 137/678
f 129/679 131/680 138/681
f 138/682 136/683 129/684
f 133/685 140/686 138/687
f 138/688 131/689 133/690
f 141/691 139/692 138/693
f 138/694 140/695 141/696
f 29/697 28/698 142/699
f 142/700 143/701 29/702
f 27/703 135/704 142/705
f 142/706 28/707 27/708
f 137/709 144/710 142/711
f 142/712 135/713 137/714
f 145/715 143/716 142/717
f 142/718 144/719 145/720
f 145/721 144/722 146/723
f 146/724 147/725 145/726
f 137/727 139/728 146/729
f 146/730 144/731 137/732
f 141/733 148/734 146/735
f 146/736 139/737 141/738
f 149/739 147/740 146/741
f 146/742 148/743 149/744
f 31/745 30/746 150/747
f 150/748 151/749 31/750
f 29/751 143/752 150/753
f 150/754 30/755 29/756
f 145/757 152/758 150/759
f 150/760 143/761 145/762
f 153/763 151/764 150/765
f 150/766 152/767 153/768
f 153/769 152/770 154/771
f 154/772 155/773 153/774
f 145/775 147/776 154/777
f 154/778 152/779 145/780
f 149/781 156/782 154/783
f 154/784 147/785 149/786
f 157/787 155/788 154/789
f 154/790 156/791 157/792
f 33/793 32/794 158/795
f 158/796 159/797 33/798
f 31/799 151/800 158/801
f 158/802 32/803 31/804
f 153/805 160/806 158/807
f 158/808 151/809 153/810
f 161/811 159/812 158/813
f 158/814 160/815 161/816
f 161/817 160/818 162/819
f 162/820 163/821 161/822
f 153/823 155/824 162/825
f 162/826 160/827 153/828
f 157/829 164/830 162/831
f 162/832 155/833 157/834
f 165/835 163/836 162/837
f 162/838 164/839 165/840
f 35/841 34/842 166/843
f 166/844 167/845 35/846
f 33/847 159/848 166/849
f 166/850 34/851 33/852
f 161/853 168/854 166/855
f 166/856 159/857 161/858
f 169/859 167/860 166/861
f 166/862 168/863 169/864
f 169/865 168/866 170/867
f 170/868 171/869 169/870
f 161/871 163/872 170/873
f 170/874 168/875 161/876
f 165/877 172/878 170/879
f 170/880 163/881 165/882
f 173/883 171/884 170/885
f 170/886 172/887 173/888
f 37/889 36/890 174/891
f 174/892 175/893 37/894
f 35/895 167/896 174/897
f 174/898 36/899 35/900
f 169/901 176/902 174/903
f 174/904 167/905 169/906
f 177/907 175/908 174/909
f 174/910 176/911 177/912
f 177/913 176/914 178/915
f 178/916 179/917 177/918
f 169/919 171/920 178/921
f 178/922 176/923 169/924
f 173/925 180/926 178/927
f 178/928 171/929 173/930
f 181/931 179/932 178/933
f 178/934 180/935 181/936
f 39/937 38/938 182/939
f 182/940 183/941 39/942
f 37/943 175/944 182/945
f 182/946 38/947 37/948
f 177/949 184/950 182/951
f 182/952 175/953 177/954
f 185/955 183/956 182/957
f 182/958 184/959 185/960
f 185/961 184/962 186/963
f 186/964 187/965 185/966
f 177/967 179/968 186/969
f 186/970 184/971 177/972
f 181/973 188/974 186/975
f 186/976 179/977 181/978
f 189/979 187/980 186/981
f 186/982 188/983 189/984
f 41/985 40/986 190/987
f 190/988 191/989 41/990
f 39/991 183/992 190/993
f 190/994 40/995 39/996
f 185/997 192/998 190/999
f 190/1000 183/1001 185/1002
f 193/1003 191/1004 190/1005
f 190/1006 192/1007 193/1008
f 193/1009 192/1010 194/1011
f 194/1012 195/1013 193/1014
f 185/1015 187/1016 194/1017
f 194/1018 192/1019 185/1020
f 189/1021 196/1022 194/1023
f 194/1024 187/1025 189/1026
f 197/1027 195/1028 194/1029
f 194/1030 196/1031 197/1032
f 1/1033 4/1034 198/1035
f 198/1036 44/1037 1/1038
f 41/1039 191/1040 198/1041
f 198/1042 4/1043 41/1044
f 193/1045 199/1046 198/1047
f 198/1048 191/1049 193/1050
f 45/1051 44/1052 198/1053
f 198/1054 199/1055 45/1056
f 45/1057 199/1058 200/1059
f 200/1060 50/1061 45/1062
f 193/1063 195/1064 200/1065
f 200/1066 199/1067 193/1068
f 197/1069 201/1070 200/1071
f 200/1072 195/1073 197/1074
f 51/1075 50/1076 200/1077
f 200/1078 201/1079 51/1080
