# USD → MuJoCo (world-space, simplified)
v -5.160368 5.968740 0.563676
v -5.163988 5.976329 0.563749
v -5.154634 5.961877 0.564612
v -5.157776 5.965166 0.563609
v -5.143556 5.961933 0.568496
v -5.158881 5.973609 0.567870
v -5.154151 5.971112 0.568390
v -5.155945 5.967307 0.567715
v -5.148441 5.959250 0.567408
v -5.151218 5.963417 0.568029
v -5.153903 5.963530 0.567304
v -5.137656 5.954196 0.567240
v -5.138458 5.956362 0.568137
v -5.143297 5.958273 0.568061
v -5.142460 5.956091 0.567391
v -5.151216 5.958962 0.564385
v -5.147340 5.956481 0.564361
v -5.147628 5.954597 0.515463
v -5.148109 5.954929 0.511946
v -5.147960 5.955687 0.510708
v -5.152245 5.956842 0.511469
v -5.152045 5.957455 0.510399
v -5.141633 5.955015 0.510378
v -5.156565 5.959458 0.510113
v -5.158501 5.960455 0.509635
v -5.150736 5.957918 0.510260
v -5.132224 5.953058 0.567075
v -5.125884 5.952490 0.566887
v -5.125690 5.953676 0.567718
v -5.131629 5.954169 0.567832
v -5.118464 5.954100 0.567635
v -5.130314 5.955464 0.568098
v -5.138007 5.995121 0.510280
v -5.099501 5.995423 0.510277
v -5.131120 5.952579 0.511325
v -5.127845 5.953249 0.510669
v -5.127832 5.954261 0.510349
v -5.140604 5.954026 0.510674
v -5.137596 5.952984 0.511337
v -5.134070 5.955468 0.510244
v -5.118396 5.952308 0.566680
v -5.118443 5.953088 0.567315
v -5.129780 5.974802 0.509724
v -5.111753 5.984136 0.510218
v -5.147740 5.975466 0.509737
v -5.145720 5.978074 0.510059
v -5.168855 5.985832 0.510267
v -5.168865 5.996926 0.510334
v -5.164906 5.980144 0.563774
v -5.165365 5.986196 0.563784
v -5.156549 5.980381 0.568458
v -5.160421 5.979495 0.567903
v -5.151125 5.976502 0.568629
v -5.160910 5.985778 0.567919
v -5.145412 5.976736 0.568576
v -5.151702 5.996760 0.568654
v -5.145712 6.114770 0.568588
v -5.156977 5.999439 0.568481
v -5.050870 5.951651 0.515151
v -5.047823 5.952646 0.511517
v -5.047335 5.953926 0.510857
v -5.050664 5.953219 0.510690
v -5.050627 5.954242 0.510387
v -5.046446 5.973447 0.510612
v -5.048064 5.974560 0.509939
v -5.047954 5.977673 0.510348
v -5.046686 5.977449 0.511063
v -5.048230 5.984109 0.510470
v -5.046780 5.984029 0.511244
v -5.050636 5.995344 0.510304
v -5.049120 5.995343 0.510405
v -5.046811 5.995341 0.511304
v -5.047805 5.995342 0.510705
v -5.050636 6.305688 0.510304
v -5.140848 5.964452 0.499709
v -5.116131 5.969176 0.499714
v -5.050166 5.969178 0.499710
v -5.167906 5.971209 0.500341
v -5.166591 5.968716 0.500585
v -5.167354 5.971560 0.499943
v -5.165633 5.968676 0.499824
v -5.163745 5.964422 0.500750
v -5.150517 5.972889 0.501897
v -5.157542 5.973935 0.502349
v -5.050524 5.971668 0.507656
v -5.124187 5.971674 0.502356
v -5.050274 5.961674 0.502351
v -5.047186 5.961846 0.508888
v -5.139608 5.961643 0.502358
v -5.124247 5.961674 0.502348
v -5.160790 5.961557 0.508095
v -5.161296 5.973699 0.566814
v -5.162951 5.974731 0.565417
v -5.159813 5.968616 0.565344
v -5.158480 5.968208 0.566719
v -5.162458 5.972497 0.563719
v -5.156842 5.965108 0.566193
v -5.163263 5.964944 0.509016
v -5.159705 5.962021 0.512758
v -5.162780 5.965301 0.512492
v -5.162394 5.965308 0.515863
v -5.159334 5.962017 0.515912
v -5.168760 5.976471 0.514637
v -5.167198 5.972640 0.514876
v -5.169344 5.976474 0.510741
v -5.156243 5.959122 0.512376
v -5.152116 5.956604 0.514337
v -5.142978 5.953624 0.511564
v -5.142798 5.953127 0.514454
v -5.138157 5.953001 0.563090
v -5.144270 5.955685 0.566256
v -5.137635 5.953197 0.565624
v -5.151878 5.960399 0.566412
v -5.137497 5.952542 0.512416
v -5.131016 5.952114 0.512397
v -5.122993 5.951735 0.513758
v -5.122872 5.951651 0.515385
v -5.118696 5.951530 0.562596
v -5.118552 5.951605 0.564227
v -5.126193 5.951678 0.563844
v -5.125990 5.951999 0.565814
v -5.132351 5.952491 0.565996
v -5.132567 5.952119 0.563876
v -5.164335 5.980082 0.565447
v -5.164796 5.986153 0.565461
v -5.162972 5.979885 0.566863
v -5.163443 5.986027 0.566877
v -5.164949 5.996932 0.565476
v -5.165516 5.996727 0.563800
v -5.170191 5.996860 0.515694
v -5.170315 5.996799 0.514025
v -5.170220 5.996792 0.511452
v -5.170342 5.996844 0.512568
v -5.170144 5.986326 0.511380
v -5.170232 5.986304 0.513629
v -5.169915 5.980366 0.511183
v -5.163599 5.997285 0.566893
v -5.050800 5.951733 0.513613
v -5.122977 5.952452 0.511298
v -5.123055 5.951974 0.512365
v -5.050733 5.951968 0.512302
v -5.050685 5.952441 0.511291
v -5.051824 5.951608 0.560855
v -5.050567 5.952053 0.563337
v -5.052496 5.952310 0.564716
v -5.053334 5.951603 0.562482
v -5.053188 5.951530 0.560960
v -5.046424 5.953249 0.512387
v -5.045999 5.954615 0.514142
v -5.049005 5.955282 0.562270
v -5.046256 5.995338 0.512303
v -5.049969 5.955265 0.564609
v -5.049359 5.955281 0.563583
v -5.045992 5.974412 0.513576
v -5.046194 5.977904 0.512204
v -5.046028 5.984407 0.513603
v -5.046026 5.977835 0.515111
v -5.165144 5.968887 0.514393
v -5.142943 5.954475 0.564210
v -5.137291 5.952246 0.514524
v -5.130830 5.951804 0.514394
v -5.169882 5.980265 0.512491
v -5.168058 5.996785 0.537638
v -5.049703 5.952297 0.560325
v -5.046432 5.953222 0.515003
v -5.047041 5.952436 0.515083
v -5.046614 5.954212 0.522753
v -5.046492 5.955401 0.522419
v -5.050372 5.953558 0.564758
v -5.050914 6.345768 0.565252
v -5.049373 5.951731 0.515106
v -5.050646 5.951836 0.560710
v -5.050625 5.955412 0.510288
v -5.050645 5.977919 0.510082
v -5.050648 5.984142 0.510248
v -5.077839 6.305555 0.510288
v -5.047700 5.969670 0.499841
v -5.048553 5.951963 0.512897
v -5.058854 5.952298 0.564965
v -5.053533 5.951830 0.563793
v -5.048058 5.951967 0.515077
v -5.058566 5.953071 0.565559
v -5.059278 5.954082 0.565886
v -5.055874 6.152581 0.565874
v -5.050145 5.964178 0.499705
v -5.050659 5.974793 0.509750
v -5.118443 5.951837 0.565611
v -5.169354 5.973499 0.501899
v -5.167102 5.971039 0.509734
v -5.144821 5.972273 0.501799
v -5.156446 5.973581 0.501551
v -5.150284 5.972327 0.500821
v -5.140101 5.971640 0.500822
v -5.157448 5.973169 0.500808
v -5.155128 5.971737 0.500262
v -5.169588 5.975957 0.501571
v -5.169407 5.975137 0.508758
v -5.170152 5.975272 0.501189
v -5.169524 5.976133 0.508761
v -5.169625 5.979314 0.510227
v -5.168972 5.977165 0.509228
v -5.168895 5.978661 0.509783
v -5.168998 5.976398 0.508517
v -5.169129 5.976175 0.507676
v -5.124268 5.971622 0.501532
v -5.132204 5.971731 0.501812
v -5.124366 5.971155 0.500267
v -5.143060 5.971245 0.500270
v -5.138960 5.971916 0.501891
v -5.144322 5.972283 0.507648
v -5.144244 5.972585 0.508473
v -5.135524 5.972106 0.508467
v -5.136954 5.971844 0.507652
v -5.124086 5.972916 0.509169
v -5.123738 5.971668 0.507633
v -5.050285 5.971674 0.502360
v -5.124349 5.971467 0.500817
v -5.123950 5.971980 0.508454
v -5.045269 5.969661 0.501827
v -5.045265 5.964160 0.501889
v -5.045846 5.963204 0.512223
v -5.045690 5.969881 0.509239
v -5.047220 5.962332 0.500393
v -5.046656 5.962013 0.501279
v -5.142771 5.961713 0.501510
v -5.137752 5.961888 0.500815
v -5.134608 5.962224 0.500268
v -5.133379 5.961661 0.507634
v -5.133117 5.961586 0.508448
v -5.136629 5.961351 0.509160
v -5.154242 5.961195 0.509325
v -5.161737 5.961954 0.500916
v -5.147433 5.961528 0.508175
v -5.154045 5.960998 0.509747
v -5.046877 5.971433 0.501945
v -5.048276 5.971317 0.500457
v -5.050203 5.971155 0.500263
v -5.049448 5.971973 0.508482
v -5.047185 5.972043 0.509184
v -5.050554 5.961589 0.508473
v -5.050519 5.961668 0.507642
v -5.050587 5.961353 0.509190
v -5.050251 5.971622 0.501531
v -5.050224 5.971467 0.500814
v -5.050589 5.972917 0.509202
v -5.050249 5.961727 0.501521
v -5.050201 5.962197 0.500253
v -5.050209 5.961884 0.500805
v -5.050602 5.960885 0.509742
v -5.138683 5.960896 0.509703
v -5.136405 5.970624 0.499942
v -5.124660 5.969958 0.499771
v -5.124164 5.963395 0.499762
v -5.124398 5.962718 0.499927
v -5.135512 5.963105 0.499836
v -5.050911 5.955277 0.565252
v -5.050183 5.963396 0.499759
v -5.050193 5.962718 0.499924
v -5.064041 5.964176 0.499706
v -5.047961 5.955314 0.547003
v -5.045890 5.971259 0.512469
v -5.046085 5.960025 0.512612
v -5.058249 5.955245 0.565956
v -5.046695 5.963186 0.500035
v -5.050152 5.969958 0.499766
v -5.050184 5.970634 0.499932
v -5.045904 5.969862 0.500451
v -5.045733 5.970647 0.500768
v -5.045626 5.963198 0.500887
v -5.046265 5.962134 0.510236
v -5.045528 5.962935 0.502371
v -5.046484 5.971193 0.507455
v -5.160580 5.961131 0.502363
v -5.151259 5.961471 0.501840
v -5.150385 5.962112 0.500821
v -5.143088 5.962611 0.500174
v -5.169238 5.975261 0.500840
v -5.168767 5.973887 0.500277
v -5.157260 5.975086 0.509193
v -5.152222 5.973473 0.508468
v -5.142743 5.973258 0.509178
v -5.152048 5.973154 0.507658
v -5.159656 5.974405 0.507659
v -5.152761 5.969904 0.499949
v -5.151678 5.967225 0.499774
v -5.141500 5.969322 0.499722
v -5.150919 5.964698 0.499944
v -5.162456 6.328543 0.563716
v -5.157777 6.335866 0.563603
v -5.145575 6.337840 0.568481
v -5.138239 6.343450 0.568329
v -5.142460 6.344942 0.567391
v -5.142197 6.343315 0.568036
v -5.137174 6.346747 0.567451
v -5.148445 6.341780 0.567408
v -5.150608 6.338157 0.568039
v -5.153905 6.337500 0.567304
v -5.155945 6.333725 0.567715
v -5.158879 6.327427 0.567870
v -5.154150 6.329922 0.568390
v -5.168874 6.048235 0.510342
v -5.168868 6.194011 0.510343
v -5.142978 6.347409 0.511564
v -5.147722 6.345718 0.510927
v -5.152314 6.343410 0.510346
v -5.151880 6.340725 0.510172
v -5.160024 6.339219 0.510669
v -5.156455 6.341570 0.510096
v -5.130286 6.347315 0.567692
v -5.129303 6.346244 0.568008
v -5.125884 6.348543 0.566887
v -5.118543 6.346924 0.567639
v -5.118386 6.348725 0.566678
v -5.141585 6.305856 0.510287
v -5.128280 6.347778 0.510676
v -5.123125 6.348587 0.511308
v -5.132373 6.346727 0.510357
v -5.130984 6.348641 0.511546
v -5.142792 6.345401 0.510279
v -5.137762 6.348281 0.511715
v -5.140607 6.347007 0.510674
v -5.118472 6.347937 0.567320
v -5.122153 6.345732 0.567855
v -5.058660 6.346942 0.565867
v -5.130008 6.326237 0.509720
v -5.120665 6.305700 0.510274
v -5.146351 6.322842 0.510067
v -5.146993 6.325621 0.509735
v -5.169287 6.322350 0.509782
v -5.165364 6.314839 0.563785
v -5.164906 6.320889 0.563773
v -5.160421 6.321538 0.567903
v -5.160910 6.315255 0.567919
v -5.156549 6.320652 0.568458
v -5.151125 6.324531 0.568629
v -5.156975 6.303733 0.568477
v -5.151702 6.304272 0.568654
v -5.144252 6.330109 0.568540
v -5.098093 6.319674 0.567157
v -5.138768 6.336633 0.568369
v -5.161073 6.304107 0.567929
v -5.151711 6.150518 0.568659
v -5.161072 5.998431 0.567935
v -5.145672 6.296685 0.568586
v -5.047946 6.348254 0.511348
v -5.047280 6.347203 0.510917
v -5.047359 6.341725 0.510657
v -5.046446 6.327585 0.510612
v -5.046686 6.323583 0.511063
v -5.046780 6.317004 0.511244
v -5.048230 6.316923 0.510470
v -5.047954 6.323360 0.510348
v -5.048064 6.326473 0.509939
v -5.046811 6.305692 0.511304
v -5.047805 6.305690 0.510705
v -5.049120 6.305689 0.510405
v -5.134181 6.336844 0.499709
v -5.166317 6.332132 0.499995
v -5.169165 6.327084 0.500296
v -5.165633 6.332356 0.499824
v -5.167355 6.329472 0.499943
v -5.163834 6.335237 0.499937
v -5.162738 6.337000 0.508612
v -5.149995 6.328135 0.507650
v -5.157190 6.327152 0.502374
v -5.132180 6.329297 0.502358
v -5.046570 6.338990 0.501092
v -5.047215 6.339200 0.508887
v -5.047713 6.345712 0.542834
v -5.161296 6.327332 0.566814
v -5.158480 6.332825 0.566719
v -5.159813 6.332417 0.565344
v -5.162951 6.326298 0.565417
v -5.151878 6.340634 0.566412
v -5.156843 6.335924 0.566193
v -5.153012 6.340442 0.565170
v -5.160366 6.332298 0.563675
v -5.163988 6.324705 0.563750
v -5.162653 6.335702 0.513396
v -5.159595 6.339015 0.513273
v -5.165373 6.332148 0.512087
v -5.169515 6.324415 0.510111
v -5.167371 6.328393 0.513140
v -5.168879 6.324567 0.513403
v -5.152110 6.344431 0.514353
v -5.142796 6.347904 0.514424
v -5.147807 6.346303 0.512731
v -5.152245 6.344191 0.511468
v -5.156312 6.341893 0.511881
v -5.147431 6.344557 0.563330
v -5.147227 6.344374 0.565008
v -5.142974 6.346563 0.564138
v -5.138073 6.348029 0.564157
v -5.151308 6.342072 0.563430
v -5.146957 6.343832 0.566398
v -5.137820 6.347557 0.566157
v -5.142685 6.345916 0.566307
v -5.137287 6.348787 0.514531
v -5.130821 6.349224 0.514363
v -5.122999 6.349298 0.513758
v -5.123126 6.349060 0.512377
v -5.118667 6.349503 0.562617
v -5.125842 6.349187 0.565315
v -5.118454 6.349427 0.564247
v -5.132572 6.348916 0.563853
v -5.131755 6.348373 0.566661
v -5.118335 6.349192 0.565627
v -5.164796 6.314879 0.565461
v -5.164335 6.320951 0.565447
v -5.163443 6.315006 0.566877
v -5.162972 6.321148 0.566863
v -5.169882 6.320770 0.512487
v -5.169846 6.320539 0.510631
v -5.170144 6.314706 0.511380
v -5.170232 6.314733 0.513627
v -5.170341 6.304254 0.512572
v -5.165516 6.304268 0.563803
v -5.164949 6.304190 0.565474
v -5.163599 6.304142 0.566889
v -5.170316 6.304167 0.514019
v -5.170219 6.304511 0.511458
v -5.050880 6.349381 0.515124
v -5.050719 6.348598 0.511297
v -5.049678 6.348248 0.563207
v -5.053185 6.349502 0.561522
v -5.053469 6.348733 0.564776
v -5.051116 6.348983 0.563926
v -5.046179 6.347034 0.512684
v -5.049004 6.345753 0.562269
v -5.049361 6.235064 0.563583
v -5.049969 6.345770 0.564609
v -5.046026 6.323173 0.515113
v -5.046031 6.316114 0.513606
v -5.045992 6.326620 0.513576
v -5.046256 6.305694 0.512303
v -5.046236 6.316990 0.512267
v -5.046181 6.323879 0.512118
v -5.154737 6.339159 0.563522
v -5.147626 6.346437 0.515502
v -5.122878 6.349381 0.515384
v -5.126269 6.349356 0.562778
v -5.170190 6.304184 0.515704
v -5.167600 6.304244 0.542364
v -5.048043 6.349058 0.515086
v -5.046976 6.348576 0.514121
v -5.051825 6.349424 0.560853
v -5.050647 6.349191 0.560812
v -5.049731 6.348722 0.560770
v -5.048377 6.345731 0.553877
v -5.048815 6.345766 0.560742
v -5.046466 6.345650 0.521977
v -5.053465 6.346940 0.565672
v -5.052299 6.347770 0.565381
v -5.053454 6.345757 0.565772
v -5.052100 6.345758 0.565608
v -5.050372 6.347474 0.564758
v -5.052106 5.967682 0.565609
v -5.051208 6.349398 0.521181
v -5.050636 6.346797 0.510388
v -5.050629 6.345616 0.510287
v -5.050664 6.347814 0.510690
v -5.050648 6.316890 0.510248
v -5.050617 6.326241 0.509752
v -5.050624 6.323116 0.510084
v -5.060776 6.336127 0.566036
v -5.047700 6.331362 0.499841
v -5.050166 6.331851 0.499710
v -5.047745 6.329493 0.501493
v -5.045914 6.330099 0.501495
v -5.050756 6.349066 0.512308
v -5.050807 6.349299 0.513609
v -5.048013 6.348946 0.512744
v -5.053416 6.349199 0.563780
v -5.061548 6.348732 0.565043
v -5.049373 6.349301 0.515108
v -5.057951 6.347954 0.565543
v -5.057213 6.345777 0.565920
v -5.092411 6.346789 0.510365
v -5.104432 6.345615 0.510255
v -5.101752 6.347806 0.510672
v -5.099346 6.323119 0.510057
v -5.118928 6.316932 0.510216
v -5.050282 6.339359 0.502346
v -5.166967 6.331607 0.500667
v -5.165916 6.332243 0.508343
v -5.168576 6.327708 0.508685
v -5.163481 6.335482 0.509652
v -5.153664 6.327824 0.501667
v -5.144788 6.328768 0.501782
v -5.155137 6.329295 0.500262
v -5.144286 6.329751 0.500262
v -5.154026 6.328349 0.500840
v -5.169595 6.325107 0.508527
v -5.124269 6.329410 0.501532
v -5.138961 6.329118 0.501883
v -5.141358 6.329315 0.500847
v -5.132327 6.329862 0.500268
v -5.132298 6.329420 0.501085
v -5.124352 6.329566 0.500817
v -5.138383 6.329119 0.507643
v -5.144318 6.328751 0.507647
v -5.131684 6.329302 0.507638
v -5.131594 6.328992 0.508463
v -5.144034 6.328516 0.508472
v -5.123775 6.329364 0.507631
v -5.123890 6.329053 0.508456
v -5.124103 6.328116 0.509172
v -5.124185 6.329359 0.502356
v -5.049519 6.329394 0.501626
v -5.124403 6.329877 0.500267
v -5.050549 6.329053 0.508484
v -5.046492 6.338620 0.500528
v -5.050189 6.338836 0.500254
v -5.050611 6.340148 0.509741
v -5.047991 6.340242 0.510125
v -5.046445 6.339547 0.510602
v -5.130638 6.339362 0.502357
v -5.050249 6.339306 0.501521
v -5.131927 6.339308 0.501518
v -5.133230 6.338831 0.500259
v -5.136937 6.339146 0.500810
v -5.129310 6.339367 0.507636
v -5.138735 6.339460 0.508445
v -5.050589 6.339443 0.508469
v -5.124536 6.340145 0.509702
v -5.050723 6.339674 0.509174
v -5.162971 6.337668 0.500943
v -5.146193 6.339459 0.507827
v -5.155813 6.339840 0.509166
v -5.145783 6.339720 0.509201
v -5.152635 6.340074 0.509771
v -5.047400 6.330010 0.500337
v -5.050524 6.329364 0.507656
v -5.047935 6.329054 0.508921
v -5.046411 6.329903 0.507619
v -5.046326 6.329519 0.509161
v -5.050212 6.339149 0.500805
v -5.050192 6.329877 0.500263
v -5.050220 6.329566 0.500815
v -5.050598 6.328115 0.509201
v -5.050518 6.339365 0.507651
v -5.137200 6.331886 0.499715
v -5.133762 6.331090 0.499772
v -5.124556 6.330398 0.499937
v -5.148308 6.331176 0.499891
v -5.138539 6.330500 0.499939
v -5.129325 6.337629 0.499762
v -5.149806 6.336556 0.499933
v -5.136992 6.337901 0.499856
v -5.129264 6.338314 0.499928
v -5.050152 6.331075 0.499766
v -5.050187 6.330398 0.499932
v -5.045296 6.331389 0.502464
v -5.045276 6.337358 0.501809
v -5.045930 6.329826 0.511844
v -5.045925 6.338282 0.512012
v -5.045999 6.338340 0.509206
v -5.046045 6.346403 0.515183
v -5.046309 6.337901 0.500128
v -5.050355 6.337383 0.499710
v -5.050175 6.338315 0.499924
v -5.045773 6.331028 0.500556
v -5.045625 6.338250 0.501640
v -5.045872 6.337698 0.512683
v -5.045835 6.330925 0.511945
v -5.150459 6.338944 0.500834
v -5.160827 6.339886 0.501879
v -5.151927 6.339573 0.501852
v -5.142541 6.339393 0.501718
v -5.147295 6.338332 0.500297
v -5.160099 6.339917 0.508126
v -5.169589 6.325075 0.501571
v -5.169041 6.324605 0.508520
v -5.156069 6.326961 0.508488
v -5.157227 6.325952 0.509193
v -5.157039 6.327103 0.507641
v -5.142745 6.327775 0.509178
v -5.149663 6.333952 0.499735
v -5.155503 6.331123 0.499929
v -5.153350 5.960168 0.510158
v -5.149526 5.960491 0.510066
v -5.145739 5.959222 0.510247
v -5.127086 5.957838 0.510251
v -5.082416 5.971043 0.566687
v -5.047989 5.960789 0.510125
v -5.047313 5.959398 0.510687
v -5.153023 5.963265 0.500258
v -5.162912 5.964278 0.500071
v -5.049362 5.953488 0.563073
v -5.048816 5.955282 0.560754
v -5.048838 5.954089 0.559998
v -5.048536 5.955279 0.556431
v -5.049136 5.953071 0.560236
v -5.052129 5.953626 0.565534
v -5.053454 5.955274 0.565771
v -5.050711 5.958895 0.510259
v -5.050631 5.960102 0.510071
v -5.134954 5.960114 0.510037
v -5.109935 5.959085 0.510201
v -5.160782 5.961351 0.501566
v -5.159979 5.961736 0.510574
v -5.159948 5.961099 0.508614
v -5.169434 6.056838 0.510454
v -5.168889 5.981050 0.510104
v -5.169686 5.985771 0.510485
v -5.169901 5.997131 0.510784
v -5.169435 5.997035 0.510447
v -5.169960 5.976222 0.502359
v -5.145143 6.341946 0.510261
v -5.134983 6.340919 0.510037
v -5.155723 6.340365 0.509924
v -5.124981 6.343130 0.510257
v -5.050629 6.341945 0.510236
v -5.162406 6.337573 0.500277
v -5.046437 6.347795 0.514906
v -5.049087 6.347559 0.561726
v -5.049360 6.345766 0.563583
v -5.046075 6.341039 0.512650
v -5.047503 6.346857 0.537699
v -5.048740 6.347920 0.553689
v -5.050631 6.340930 0.510071
v -5.050685 6.343139 0.510288
v -5.114328 6.341946 0.510201
v -5.169128 6.324857 0.507676
v -5.168972 6.323867 0.509228
v -5.161938 6.338930 0.500826
v -5.160886 6.339319 0.508463
v -5.158832 6.340400 0.509526
v -5.169900 6.303228 0.510789
v -5.168868 6.303561 0.510337
v -5.169434 6.302804 0.510452
v -5.168875 6.314705 0.510274
v -5.169686 6.315262 0.510485
v -5.169217 6.319935 0.510110
v -5.169989 6.324811 0.502347
v -5.169954 6.326388 0.501948
v -5.169877 6.325629 0.500890
f 104 2 103
f 158 1 104
f 1 96 104
f 104 96 2
f 102 3 4
f 4 101 102
f 158 101 4
f 4 1 158
f 55 53 5
f 55 5 584
f 8 10 7
f 7 6 8
f 5 53 7
f 7 10 5
f 11 9 10
f 9 14 10
f 10 14 5
f 8 11 10
f 12 13 14
f 14 15 12
f 14 13 5
f 9 15 14
f 13 32 5
f 16 3 102
f 107 17 16
f 18 17 107
f 108 19 20
f 20 38 108
f 21 22 20
f 20 19 21
f 23 38 20
f 20 22 23
f 601 25 24
f 24 22 21
f 25 580 24
f 580 26 24
f 24 26 22
f 583 40 26
f 26 582 583
f 23 22 26
f 26 40 23
f 580 582 26
f 12 27 30
f 30 13 12
f 28 29 30
f 30 27 28
f 42 31 29
f 28 41 42
f 42 29 28
f 29 31 32
f 13 30 32
f 32 30 29
f 160 123 109
f 120 123 160
f 160 161 120
f 120 161 118
f 36 139 35
f 38 39 108
f 37 36 38
f 38 23 37
f 35 39 38
f 38 36 35
f 37 23 40
f 183 31 42
f 183 42 182
f 41 179 182
f 182 42 41
f 183 263 32
f 32 31 183
f 32 263 584
f 47 44 46
f 43 45 46
f 33 34 44
f 33 44 47
f 202 604 46
f 46 45 202
f 46 604 47
f 47 48 33
f 103 2 49
f 49 162 103
f 135 162 49
f 49 50 135
f 135 50 163
f 6 7 51
f 51 52 6
f 51 7 53
f 54 52 51
f 55 56 53
f 54 51 58
f 58 343 54
f 53 56 58
f 58 51 53
f 55 584 57
f 584 339 57
f 56 342 58
f 56 55 57
f 57 342 56
f 62 63 61
f 60 142 62
f 62 61 60
f 586 61 173
f 61 63 173
f 64 65 66
f 66 67 64
f 69 67 66
f 66 68 69
f 68 66 174
f 174 175 68
f 65 186 174
f 174 66 65
f 68 175 70
f 70 71 68
f 73 355 72
f 69 68 73
f 73 72 69
f 68 71 73
f 71 355 73
f 355 71 356
f 356 71 70
f 70 74 356
f 286 76 75
f 259 76 77
f 278 80 78
f 78 198 278
f 81 79 78
f 78 80 81
f 81 588 82
f 82 79 81
f 82 98 79
f 79 189 188
f 210 190 83
f 83 282 210
f 84 282 83
f 84 283 282
f 86 215 85
f 206 215 86
f 210 213 209
f 209 190 210
f 209 213 206
f 216 86 85
f 88 241 87
f 89 228 233
f 90 241 228
f 89 90 228
f 91 98 82
f 82 232 91
f 91 273 602
f 369 260 451
f 168 451 260
f 94 95 92
f 92 93 94
f 8 6 92
f 92 95 8
f 94 93 96
f 96 1 94
f 93 2 96
f 3 97 4
f 94 1 4
f 4 97 94
f 97 113 11
f 8 95 97
f 97 11 8
f 97 95 94
f 3 113 97
f 601 99 100
f 100 98 601
f 158 189 100
f 189 98 100
f 158 100 101
f 99 102 101
f 101 100 99
f 158 104 189
f 103 105 189
f 189 104 103
f 106 102 99
f 601 24 106
f 106 99 601
f 106 24 21
f 106 21 107
f 19 108 109
f 107 21 19
f 107 19 18
f 18 19 109
f 159 110 112
f 12 15 111
f 111 112 12
f 111 15 9
f 17 159 111
f 111 159 112
f 113 9 11
f 3 16 113
f 17 111 113
f 113 16 17
f 113 111 9
f 108 39 114
f 35 115 114
f 114 39 35
f 161 160 114
f 114 115 161
f 109 108 114
f 114 160 109
f 161 115 140
f 140 116 161
f 35 139 140
f 140 115 35
f 161 116 117
f 118 119 120
f 28 121 187
f 187 41 28
f 120 119 187
f 187 121 120
f 12 112 122
f 122 27 12
f 112 123 122
f 120 121 122
f 122 123 120
f 28 27 122
f 122 121 28
f 112 110 123
f 93 124 49
f 49 2 93
f 125 50 49
f 49 124 125
f 6 52 126
f 126 92 6
f 54 127 126
f 126 52 54
f 125 124 126
f 126 127 125
f 93 92 126
f 126 124 93
f 125 127 137
f 137 128 125
f 54 343 137
f 137 127 54
f 125 128 129
f 129 50 125
f 130 131 135
f 134 135 133
f 133 132 134
f 135 131 133
f 162 136 105
f 162 105 103
f 134 136 162
f 162 135 134
f 417 129 128
f 131 416 133
f 421 132 133
f 133 416 421
f 130 442 131
f 117 116 138
f 138 116 140
f 138 140 141
f 139 142 141
f 141 140 139
f 59 117 138
f 172 164 144
f 144 143 172
f 180 146 144
f 180 144 145
f 144 146 147
f 147 143 144
f 165 166 148
f 165 148 149
f 148 60 61
f 433 151 435
f 435 151 72
f 432 451 157
f 432 157 433
f 157 154 156
f 64 67 155
f 155 67 69
f 156 154 155
f 433 156 151
f 156 155 151
f 69 72 151
f 151 155 69
f 157 156 433
f 106 16 102
f 107 16 106
f 109 159 18
f 18 159 17
f 109 110 159
f 161 117 118
f 123 110 109
f 50 129 163
f 163 130 135
f 443 163 129
f 443 129 417
f 442 130 443
f 130 163 443
f 118 117 59
f 147 59 143
f 165 593 164
f 165 164 166
f 167 593 165
f 149 167 165
f 168 167 149
f 260 449 592
f 168 221 157
f 157 451 168
f 145 144 169
f 169 594 145
f 594 169 256
f 169 152 256
f 172 143 171
f 171 143 59
f 37 63 62
f 173 40 583
f 173 63 37
f 34 176 70
f 34 70 175
f 176 74 70
f 184 595 454
f 454 595 457
f 264 177 267
f 77 185 259
f 177 185 77
f 216 85 235
f 90 87 241
f 60 178 141
f 141 142 60
f 178 138 141
f 148 178 60
f 181 171 178
f 148 166 181
f 181 178 148
f 178 171 59
f 59 138 178
f 145 179 180
f 164 172 181
f 181 172 171
f 166 164 181
f 145 594 182
f 182 179 145
f 594 183 182
f 594 595 263
f 263 183 594
f 263 465 584
f 62 142 139
f 37 62 36
f 36 62 139
f 40 173 37
f 44 175 174
f 46 186 43
f 44 174 46
f 46 174 186
f 34 175 44
f 41 187 180
f 180 179 41
f 180 187 119
f 180 119 146
f 119 118 147
f 146 119 147
f 59 147 118
f 79 188 78
f 78 188 198
f 105 197 189
f 189 197 188
f 98 189 79
f 191 84 83
f 208 195 192
f 192 193 208
f 195 194 192
f 191 83 192
f 192 194 191
f 190 193 192
f 192 83 190
f 196 191 194
f 84 191 196
f 197 198 188
f 199 198 197
f 105 200 199
f 199 197 105
f 201 203 199
f 200 202 201
f 201 199 200
f 199 203 204
f 86 205 206
f 237 207 217
f 208 193 217
f 217 207 208
f 206 205 217
f 217 193 206
f 190 209 193
f 193 209 206
f 211 212 213
f 213 210 211
f 281 45 43
f 281 212 211
f 212 281 214
f 214 218 212
f 214 281 43
f 206 213 215
f 212 218 215
f 215 213 212
f 243 86 216
f 243 244 217
f 217 205 243
f 217 244 237
f 243 205 86
f 218 85 215
f 43 186 214
f 269 264 267
f 219 220 269
f 269 267 219
f 220 222 221
f 220 219 222
f 87 246 224
f 87 224 88
f 223 224 248
f 248 247 223
f 224 246 248
f 270 585 88
f 242 240 88
f 585 249 242
f 242 88 585
f 88 240 241
f 276 227 226
f 226 227 247
f 246 225 226
f 90 89 225
f 246 87 90
f 90 225 246
f 228 241 229
f 250 231 230
f 233 229 230
f 230 231 233
f 228 229 233
f 588 232 82
f 91 232 273
f 232 600 273
f 250 234 231
f 602 233 231
f 233 602 273
f 235 268 236
f 244 243 236
f 236 237 244
f 236 243 216
f 216 235 236
f 238 272 85
f 85 272 235
f 65 239 245
f 245 186 65
f 245 239 238
f 239 65 64
f 238 239 272
f 218 238 85
f 245 214 186
f 218 214 245
f 245 238 218
f 247 248 226
f 226 248 246
f 242 249 250
f 240 242 230
f 230 229 240
f 230 242 250
f 240 229 241
f 251 284 208
f 286 284 251
f 251 207 237
f 251 252 286
f 208 207 251
f 286 252 76
f 75 259 253
f 75 253 255
f 247 227 254
f 227 255 254
f 255 253 254
f 255 227 276
f 255 276 75
f 152 170 256
f 256 170 457
f 252 251 266
f 266 265 252
f 266 251 237
f 252 265 77
f 77 76 252
f 247 254 258
f 258 254 253
f 258 253 257
f 75 76 259
f 257 253 259
f 268 272 219
f 235 272 268
f 222 261 221
f 64 155 261
f 261 222 64
f 261 155 154
f 261 157 221
f 154 157 261
f 221 149 262
f 595 184 263
f 258 257 264
f 223 247 258
f 258 264 223
f 177 264 185
f 264 257 185
f 77 265 177
f 266 237 236
f 177 265 266
f 266 236 177
f 267 177 268
f 177 236 268
f 257 259 185
f 219 267 268
f 220 271 269
f 224 269 271
f 269 223 264
f 224 223 269
f 224 271 270
f 270 88 224
f 270 271 221
f 221 271 220
f 272 222 219
f 222 239 64
f 222 272 239
f 89 233 274
f 273 274 233
f 275 274 600
f 276 226 275
f 275 226 225
f 275 225 274
f 587 276 275
f 225 89 274
f 274 273 600
f 25 602 231
f 231 234 25
f 48 301 33
f 608 204 84
f 204 283 84
f 195 278 277
f 277 194 195
f 196 194 277
f 608 84 196
f 202 45 279
f 280 203 279
f 211 280 281
f 280 279 281
f 281 279 45
f 211 210 282
f 282 280 211
f 280 282 283
f 283 203 280
f 284 285 81
f 284 195 208
f 284 286 285
f 285 286 75
f 287 276 587
f 75 276 287
f 287 285 75
f 81 285 287
f 438 379 289
f 289 379 377
f 384 378 288
f 290 335 338
f 290 338 340
f 340 291 290
f 294 292 293
f 295 296 293
f 293 292 295
f 290 291 293
f 293 296 290
f 291 294 293
f 296 295 297
f 296 297 298
f 290 296 300
f 300 335 290
f 298 299 300
f 300 296 298
f 394 389 438
f 390 389 394
f 33 301 302
f 33 302 314
f 303 321 304
f 319 305 304
f 304 321 319
f 304 305 388
f 306 305 319
f 319 609 306
f 611 628 308
f 306 611 308
f 308 305 306
f 307 389 308
f 308 628 307
f 388 305 308
f 308 389 388
f 309 406 294
f 291 310 309
f 309 294 291
f 311 406 309
f 291 340 310
f 310 340 323
f 323 312 310
f 311 309 322
f 322 313 311
f 310 312 322
f 322 309 310
f 441 398 405
f 405 398 393
f 402 440 441
f 34 33 326
f 326 33 314
f 318 316 315
f 479 612 319
f 317 479 319
f 612 609 319
f 303 320 321
f 318 315 321
f 321 320 318
f 321 315 317
f 321 317 319
f 323 324 312
f 474 313 322
f 322 476 474
f 312 324 322
f 324 476 322
f 325 481 327
f 327 481 482
f 326 314 482
f 632 482 314
f 327 328 325
f 327 482 632
f 327 329 328
f 331 378 384
f 415 330 331
f 442 443 330
f 442 330 415
f 299 332 334
f 334 300 299
f 334 332 333
f 335 300 334
f 335 334 336
f 336 337 335
f 333 341 336
f 336 334 333
f 335 337 344
f 344 338 335
f 338 344 339
f 340 338 339
f 339 465 340
f 339 344 57
f 343 58 336
f 336 341 343
f 336 58 342
f 336 342 337
f 57 344 342
f 337 342 344
f 402 458 440
f 346 347 460
f 460 459 346
f 345 346 461
f 461 423 345
f 346 459 461
f 348 349 352
f 352 353 348
f 350 351 352
f 352 349 350
f 355 356 351
f 350 354 355
f 355 351 350
f 351 356 74
f 74 462 351
f 353 352 464
f 464 463 353
f 351 462 464
f 464 352 351
f 354 72 355
f 357 542 578
f 560 542 357
f 560 467 542
f 359 484 358
f 360 361 358
f 358 361 359
f 614 362 358
f 358 527 614
f 358 362 360
f 484 527 358
f 636 486 485
f 364 489 501
f 364 576 365
f 502 366 505
f 366 508 505
f 501 495 500
f 500 495 366
f 500 366 502
f 501 489 495
f 505 508 533
f 368 483 541
f 541 517 522
f 522 517 528
f 517 569 528
f 298 371 370
f 370 299 298
f 372 373 370
f 370 371 372
f 297 374 375
f 375 374 376
f 372 371 375
f 298 297 375
f 375 371 298
f 372 375 289
f 289 377 372
f 376 438 289
f 289 375 376
f 288 378 373
f 372 377 288
f 288 373 372
f 307 487 379
f 379 380 307
f 379 487 381
f 382 384 383
f 386 387 439
f 439 387 385
f 303 304 387
f 387 304 388
f 387 388 385
f 386 303 387
f 307 380 389
f 385 388 389
f 392 390 391
f 394 438 376
f 391 390 394
f 394 376 391
f 297 295 374
f 295 395 374
f 391 376 374
f 374 395 391
f 294 396 397
f 397 292 294
f 393 392 397
f 397 396 393
f 391 395 397
f 397 392 391
f 295 292 397
f 397 395 295
f 440 400 399
f 401 316 318
f 399 400 401
f 401 318 399
f 386 398 320
f 320 303 386
f 399 318 320
f 320 398 399
f 403 404 402
f 402 441 403
f 403 441 405
f 406 396 294
f 311 403 406
f 403 405 406
f 393 396 406
f 406 405 393
f 407 404 403
f 311 313 407
f 407 403 311
f 408 409 331
f 331 330 408
f 373 378 331
f 331 409 373
f 408 330 417
f 417 418 408
f 333 410 419
f 419 341 333
f 408 418 419
f 419 410 408
f 299 370 411
f 411 332 299
f 373 409 411
f 411 370 373
f 408 410 411
f 411 409 408
f 333 332 411
f 411 410 333
f 415 420 442
f 382 413 412
f 412 384 382
f 414 415 412
f 412 413 414
f 416 420 415
f 414 421 416
f 416 415 414
f 417 128 418
f 418 128 137
f 418 137 419
f 343 341 419
f 419 137 343
f 442 420 131
f 131 420 416
f 400 440 422
f 422 471 400
f 422 440 458
f 316 401 470
f 400 471 470
f 470 401 400
f 423 316 470
f 447 446 427
f 424 448 447
f 447 427 424
f 427 446 425
f 473 426 427
f 427 425 473
f 615 558 428
f 615 428 445
f 345 472 428
f 428 472 445
f 346 345 428
f 429 150 590
f 590 450 429
f 592 450 590
f 431 152 430
f 430 617 431
f 429 617 430
f 430 150 429
f 152 153 430
f 430 153 150
f 435 72 354
f 433 434 432
f 350 436 435
f 435 354 350
f 435 436 433
f 437 349 348
f 433 436 437
f 437 434 433
f 350 349 437
f 437 436 350
f 384 288 383
f 377 381 383
f 383 288 377
f 438 380 379
f 379 381 377
f 389 380 438
f 390 385 389
f 393 386 439
f 439 392 393
f 390 392 439
f 439 385 390
f 398 386 393
f 398 441 399
f 399 441 440
f 443 417 330
f 412 331 384
f 415 331 412
f 446 447 444
f 444 447 445
f 447 448 445
f 451 558 619
f 619 558 615
f 260 369 449
f 450 592 449
f 427 426 453
f 453 452 454
f 454 455 453
f 170 431 456
f 453 455 170
f 170 456 453
f 427 453 456
f 454 457 455
f 455 457 170
f 475 458 425
f 425 446 475
f 475 446 444
f 462 74 176
f 170 152 431
f 467 560 466
f 562 466 559
f 469 535 468
f 508 509 533
f 533 509 468
f 470 471 472
f 345 423 470
f 470 472 345
f 422 458 475
f 472 471 422
f 422 475 472
f 445 472 444
f 472 475 444
f 473 425 404
f 474 426 473
f 474 473 407
f 407 473 404
f 324 323 477
f 452 324 477
f 477 454 452
f 476 453 426
f 476 426 474
f 452 453 476
f 476 324 452
f 465 339 584
f 184 465 263
f 402 425 458
f 459 478 461
f 460 622 479
f 459 460 479
f 479 478 459
f 317 478 479
f 480 315 316
f 423 461 480
f 480 316 423
f 480 461 478
f 317 315 480
f 480 478 317
f 463 464 481
f 481 464 462
f 481 462 482
f 325 463 481
f 482 462 176
f 176 326 482
f 326 176 34
f 407 313 474
f 404 425 402
f 484 359 636
f 485 484 636
f 363 626 527
f 485 363 527
f 527 484 485
f 382 383 486
f 486 383 381
f 486 381 485
f 307 363 487
f 485 381 487
f 487 363 485
f 489 364 488
f 488 364 365
f 572 488 365
f 492 488 572
f 491 496 492
f 492 490 491
f 489 488 492
f 492 496 489
f 493 486 636
f 624 573 493
f 329 493 625
f 493 573 625
f 486 493 382
f 382 493 329
f 498 494 508
f 508 366 498
f 498 366 495
f 497 498 496
f 496 491 497
f 498 495 496
f 496 495 489
f 499 494 498
f 497 510 499
f 499 498 497
f 503 504 500
f 500 502 503
f 504 501 500
f 503 502 505
f 505 506 503
f 325 577 507
f 503 506 507
f 507 577 503
f 577 504 503
f 325 328 577
f 494 509 508
f 499 509 494
f 510 538 499
f 505 533 511
f 505 511 506
f 325 507 540
f 540 463 325
f 506 511 540
f 540 507 506
f 562 559 554
f 553 564 565
f 367 518 483
f 483 368 367
f 537 518 367
f 512 513 537
f 537 367 512
f 541 524 368
f 515 368 526
f 526 514 515
f 368 524 526
f 368 515 516
f 569 517 519
f 541 483 517
f 518 519 517
f 517 483 518
f 521 519 518
f 570 566 521
f 521 520 570
f 521 566 569
f 521 569 519
f 522 523 524
f 523 522 528
f 530 531 525
f 524 523 526
f 523 530 526
f 526 530 525
f 363 627 626
f 626 627 567
f 614 527 626
f 567 571 528
f 571 529 528
f 523 528 530
f 530 528 529
f 530 529 531
f 532 468 539
f 539 538 532
f 468 509 539
f 469 468 532
f 468 534 533
f 534 511 533
f 535 536 534
f 535 534 468
f 348 353 534
f 534 536 348
f 540 511 534
f 353 463 540
f 540 534 353
f 525 514 526
f 539 499 538
f 509 499 539
f 521 537 513
f 521 513 520
f 518 537 521
f 524 541 522
f 542 543 545
f 497 546 544
f 544 510 497
f 544 546 543
f 491 545 546
f 545 543 546
f 497 491 546
f 548 549 357
f 357 578 548
f 357 549 547
f 570 520 549
f 549 548 570
f 520 550 549
f 549 550 547
f 542 467 551
f 542 551 543
f 510 544 552
f 552 538 510
f 543 551 552
f 552 544 543
f 357 547 560
f 513 561 550
f 560 547 550
f 550 561 560
f 520 513 550
f 553 535 469
f 434 565 564
f 564 432 434
f 555 437 348
f 434 437 555
f 555 565 434
f 556 557 516
f 556 618 564
f 618 558 564
f 432 564 451
f 454 477 184
f 184 477 465
f 560 559 466
f 512 559 561
f 561 513 512
f 559 560 561
f 466 551 467
f 532 466 562
f 466 532 552
f 552 551 466
f 532 538 552
f 323 340 465
f 553 562 554
f 562 553 469
f 532 562 469
f 563 554 559
f 559 512 563
f 512 367 563
f 564 553 554
f 367 368 557
f 557 563 367
f 564 554 557
f 554 563 557
f 557 368 516
f 557 556 564
f 536 555 348
f 565 555 536
f 536 535 565
f 553 565 535
f 568 567 528
f 568 528 569
f 567 568 566
f 570 614 566
f 568 569 566
f 571 628 529
f 529 628 611
f 314 302 630
f 329 327 634
f 634 327 632
f 632 314 630
f 624 635 576
f 490 492 637
f 637 359 490
f 637 492 572
f 635 365 576
f 572 365 635
f 573 574 575
f 328 329 575
f 576 574 573
f 364 501 504
f 574 576 364
f 364 504 574
f 328 575 577
f 574 504 577
f 577 575 574
f 360 578 579
f 548 614 570
f 548 578 360
f 578 542 545
f 491 490 545
f 490 579 545
f 545 579 578
f 234 581 580
f 234 580 25
f 250 598 581
f 581 234 250
f 581 598 582
f 581 582 580
f 5 32 584
f 598 599 582
f 582 599 583
f 586 173 596
f 597 249 585
f 586 596 597
f 597 585 586
f 270 586 585
f 195 284 80
f 80 278 195
f 80 284 81
f 588 287 587
f 81 287 588
f 167 591 593
f 167 168 260
f 260 591 167
f 169 589 153
f 153 152 169
f 589 150 153
f 589 169 144
f 593 591 589
f 144 164 593
f 593 589 144
f 589 591 590
f 590 150 589
f 61 586 262
f 262 148 61
f 149 148 262
f 270 221 262
f 262 586 270
f 592 590 591
f 591 260 592
f 168 149 221
f 457 594 256
f 595 594 457
f 599 596 583
f 597 596 599
f 596 173 583
f 250 597 598
f 598 597 599
f 250 249 597
f 202 279 201
f 201 279 203
f 203 283 204
f 587 275 232
f 232 275 600
f 588 587 232
f 98 91 601
f 601 91 602
f 601 602 25
f 607 603 301
f 301 48 607
f 603 302 301
f 421 629 606
f 606 132 421
f 606 629 603
f 606 603 607
f 629 631 603
f 603 631 302
f 604 202 200
f 605 47 604
f 604 200 605
f 105 136 200
f 134 605 200
f 200 136 134
f 606 607 605
f 134 132 606
f 606 605 134
f 605 607 48
f 48 47 605
f 199 608 198
f 199 204 608
f 278 198 277
f 198 196 277
f 608 196 198
f 306 610 531
f 609 610 306
f 531 529 611
f 531 611 306
f 612 623 609
f 609 623 610
f 525 531 610
f 515 347 516
f 347 515 621
f 621 613 347
f 515 514 621
f 622 460 347
f 347 613 622
f 614 548 362
f 362 548 360
f 490 359 361
f 361 579 490
f 360 579 361
f 369 451 619
f 445 620 615
f 615 620 619
f 616 429 450
f 616 448 424
f 427 456 424
f 616 424 617
f 617 429 616
f 456 431 617
f 617 424 456
f 558 618 428
f 516 347 618
f 618 556 516
f 346 428 618
f 618 347 346
f 449 369 619
f 448 616 620
f 620 616 619
f 445 448 620
f 619 616 450
f 450 449 619
f 564 558 451
f 621 514 525
f 477 323 465
f 622 613 623
f 623 613 621
f 623 621 610
f 610 621 525
f 622 612 479
f 623 612 622
f 624 576 573
f 625 575 329
f 573 575 625
f 626 566 614
f 567 566 626
f 627 571 567
f 307 628 627
f 627 363 307
f 571 627 628
f 631 630 302
f 633 632 630
f 630 631 633
f 414 633 629
f 629 421 414
f 633 631 629
f 329 634 413
f 413 382 329
f 413 634 633
f 413 633 414
f 634 632 633
f 493 635 624
f 493 636 635
f 637 572 635
f 637 635 636
f 636 359 637
