# USD → MuJoCo (world-space)
v -3.282251 7.509096 1.000857
v -3.282251 7.224623 1.000857
v -3.314132 7.224623 1.097497
v -3.314132 7.509096 1.097497
v -3.278566 7.509096 0.989090
v -3.278566 7.224623 0.989090
v -3.275127 7.509096 0.978040
v -3.275127 7.224623 0.978040
v -3.271907 7.509096 0.967516
v -3.271907 7.224623 0.967516
v -3.268880 7.509096 0.957326
v -3.268880 7.224623 0.957326
v -3.266021 7.509096 0.947281
v -3.266021 7.224623 0.947281
v -3.263304 7.509096 0.937190
v -3.263304 7.224623 0.937190
v -3.260702 7.509096 0.926861
v -3.260702 7.224623 0.926861
v -3.258134 7.509096 0.916128
v -3.258134 7.224623 0.916128
v -3.255595 7.509096 0.905103
v -3.255595 7.224623 0.905103
v -3.253176 7.509096 0.894019
v -3.253176 7.224623 0.894019
v -3.250967 7.509096 0.883106
v -3.250967 7.224623 0.883106
v -3.249060 7.509096 0.872596
v -3.249060 7.224623 0.872596
v -3.247545 7.509096 0.862722
v -3.247545 7.224623 0.862722
v -3.246511 7.509096 0.853714
v -3.246511 7.224623 0.853714
v -3.245931 7.509096 0.845496
v -3.245931 7.224623 0.845496
v -3.245711 7.509096 0.837836
v -3.245711 7.224623 0.837836
v -3.245853 7.509096 0.830734
v -3.245854 7.224623 0.830734
v -3.246357 7.509096 0.824189
v -3.246357 7.224623 0.824189
v -3.247223 7.509096 0.818203
v -3.247223 7.224623 0.818203
v -3.248450 7.509096 0.812774
v -3.248450 7.224623 0.812774
v -3.250038 7.509096 0.807903
v -3.250038 7.224623 0.807903
vt 1.534386 0.759615
vt -0.534386 0.759615
vt -0.534386 1.280606
vt -0.534386 1.280606
vt 1.534386 1.280607
vt 1.534386 0.759615
vt 1.534386 0.696181
vt -0.534386 0.696181
vt -0.534386 0.759615
vt -0.534386 0.759615
vt 1.534386 0.759615
vt 1.534386 0.696181
vt 1.534386 0.636609
vt -0.534386 0.636608
vt -0.534386 0.696181
vt -0.534386 0.696181
vt 1.534386 0.696181
vt 1.534386 0.636609
vt 1.534386 0.579870
vt -0.534386 0.579870
vt -0.534386 0.636608
vt -0.534386 0.636608
vt 1.534386 0.636609
vt 1.534386 0.579870
vt 1.534386 0.524938
vt -0.534386 0.524938
vt -0.534386 0.579870
vt -0.534386 0.579870
vt 1.534386 0.579870
vt 1.534386 0.524938
vt 1.534386 0.470784
vt -0.534386 0.470784
vt -0.534386 0.524938
vt -0.534386 0.524938
vt 1.534386 0.524938
vt 1.534386 0.470784
vt 1.534386 0.416381
vt -0.534386 0.416381
vt -0.534386 0.470784
vt -0.534386 0.470784
vt 1.534386 0.470784
vt 1.534386 0.416381
vt 1.534386 0.360701
vt -0.534386 0.360701
vt -0.534386 0.416381
vt -0.534386 0.416381
vt 1.534386 0.416381
vt 1.534386 0.360701
vt 1.534386 0.302838
vt -0.534386 0.302838
vt -0.534386 0.360701
vt -0.534386 0.360701
vt 1.534386 0.360701
vt 1.534386 0.302838
vt 1.534386 0.243403
vt -0.534386 0.243403
vt -0.534386 0.302838
vt -0.534386 0.302838
vt 1.534386 0.302838
vt 1.534386 0.243403
vt 1.534386 0.183645
vt -0.534386 0.183645
vt -0.534386 0.243403
vt -0.534386 0.243403
vt 1.534386 0.243403
vt 1.534386 0.183645
vt 1.534386 0.124813
vt -0.534386 0.124813
vt -0.534386 0.183645
vt -0.534386 0.183645
vt 1.534386 0.183645
vt 1.534386 0.124813
vt 1.534386 0.068156
vt -0.534386 0.068156
vt -0.534386 0.124813
vt -0.534386 0.124813
vt 1.534386 0.124813
vt 1.534386 0.068156
vt 1.534386 0.014923
vt -0.534386 0.014922
vt -0.534386 0.068156
vt -0.534386 0.068156
vt 1.534386 0.068156
vt 1.534386 0.014923
vt 1.534386 -0.033637
vt -0.534386 -0.033638
vt -0.534386 0.014922
vt -0.534386 0.014922
vt 1.534386 0.014923
vt 1.534386 -0.033637
vt 1.534386 -0.077941
vt -0.534386 -0.077942
vt -0.534386 -0.033638
vt -0.534386 -0.033638
vt 1.534386 -0.033637
vt 1.534386 -0.077941
vt 1.534386 -0.119238
vt -0.534386 -0.119238
vt -0.534386 -0.077942
vt -0.534386 -0.077942
vt 1.534386 -0.077941
vt 1.534386 -0.119238
vt 1.534386 -0.157526
vt -0.534386 -0.157527
vt -0.534386 -0.119238
vt -0.534386 -0.119238
vt 1.534386 -0.119238
vt 1.534386 -0.157526
vt 1.534386 -0.192808
vt -0.534386 -0.192808
vt -0.534386 -0.157527
vt -0.534386 -0.157527
vt 1.534386 -0.157526
vt 1.534386 -0.192808
vt 1.534386 -0.225082
vt -0.534386 -0.225082
vt -0.534386 -0.192808
vt -0.534386 -0.192808
vt 1.534386 -0.192808
vt 1.534386 -0.225082
vt 1.534386 -0.254347
vt -0.534386 -0.254348
vt -0.534386 -0.225082
vt -0.534386 -0.225082
vt 1.534386 -0.225082
vt 1.534386 -0.254347
vt 1.534386 -0.280606
vt -0.534386 -0.280607
vt -0.534386 -0.254348
vt -0.534386 -0.254348
vt 1.534386 -0.254347
vt 1.534386 -0.280606
f 1/1 2/2 3/3
f 3/4 4/5 1/6
f 5/7 6/8 2/9
f 2/10 1/11 5/12
f 7/13 8/14 6/15
f 6/16 5/17 7/18
f 9/19 10/20 8/21
f 8/22 7/23 9/24
f 11/25 12/26 10/27
f 10/28 9/29 11/30
f 13/31 14/32 12/33
f 12/34 11/35 13/36
f 15/37 16/38 14/39
f 14/40 13/41 15/42
f 17/43 18/44 16/45
f 16/46 15/47 17/48
f 19/49 20/50 18/51
f 18/52 17/53 19/54
f 21/55 22/56 20/57
f 20/58 19/59 21/60
f 23/61 24/62 22/63
f 22/64 21/65 23/66
f 25/67 26/68 24/69
f 24/70 23/71 25/72
f 27/73 28/74 26/75
f 26/76 25/77 27/78
f 29/79 30/80 28/81
f 28/82 27/83 29/84
f 31/85 32/86 30/87
f 30/88 29/89 31/90
f 33/91 34/92 32/93
f 32/94 31/95 33/96
f 35/97 36/98 34/99
f 34/100 33/101 35/102
f 37/103 38/104 36/105
f 36/106 35/107 37/108
f 39/109 40/110 38/111
f 38/112 37/113 39/114
f 41/115 42/116 40/117
f 40/118 39/119 41/120
f 43/121 44/122 42/123
f 42/124 41/125 43/126
f 45/127 46/128 44/129
f 44/130 43/131 45/132
