# USD → MuJoCo (world-space)
v 0.037498 -0.047784 -0.223178
v 0.025226 -0.048598 -0.222961
v 0.185739 -0.056505 -0.220846
v 0.049429 -0.046667 -0.223477
v 0.060984 -0.045258 -0.223854
v 0.072125 -0.043570 -0.224305
v 0.082817 -0.041615 -0.224828
v 0.093023 -0.039405 -0.225419
v 0.102707 -0.036953 -0.226075
v 0.111833 -0.034270 -0.226793
v 0.120366 -0.031368 -0.227569
v 0.128271 -0.028257 -0.228401
v 0.135511 -0.024949 -0.229285
v 0.142054 -0.021453 -0.230220
v 0.147866 -0.017777 -0.231204
v 0.152913 -0.013923 -0.232234
v 0.157163 -0.009890 -0.233313
v 0.160581 -0.005668 -0.234442
v 0.163120 -0.001237 -0.235627
v 0.164711 0.003418 -0.236872
v 0.165260 0.008260 -0.238167
v 0.164711 0.013103 -0.239462
v 0.185739 0.114976 -0.266707
v 0.163120 0.017758 -0.240707
v 0.160581 0.022189 -0.241892
v 0.157163 0.026411 -0.243021
v 0.152913 0.030444 -0.244100
v 0.147866 0.034297 -0.245130
v 0.142054 0.037974 -0.246114
v 0.135511 0.041470 -0.247049
v 0.128271 0.044778 -0.247933
v 0.120366 0.047888 -0.248765
v 0.111833 0.050791 -0.249541
v 0.102707 0.053474 -0.250259
v 0.093023 0.055926 -0.250915
v 0.082817 0.058136 -0.251506
v 0.072125 0.060091 -0.252029
v 0.060984 0.061779 -0.252480
v 0.049429 0.063188 -0.252857
v 0.037498 0.064305 -0.253156
v 0.025226 0.065119 -0.253373
v 0.012649 0.065616 -0.253506
v -0.000196 0.065785 -0.253551
v -0.185739 0.114976 -0.266707
v 0.012648 -0.049095 -0.222828
v -0.000196 -0.049264 -0.222783
v -0.013040 -0.049095 -0.222828
v -0.025617 -0.048598 -0.222961
v -0.185739 -0.056505 -0.220846
v -0.037889 -0.047784 -0.223178
v -0.049821 -0.046667 -0.223477
v -0.061376 -0.045258 -0.223854
v -0.072517 -0.043570 -0.224305
v -0.083209 -0.041615 -0.224828
v -0.093414 -0.039405 -0.225419
v -0.103099 -0.036953 -0.226075
v -0.112225 -0.034270 -0.226793
v -0.120758 -0.031368 -0.227569
v -0.128662 -0.028257 -0.228401
v -0.135903 -0.024949 -0.229285
v -0.142446 -0.021453 -0.230220
v -0.148257 -0.017777 -0.231204
v -0.153305 -0.013923 -0.232234
v -0.157555 -0.009890 -0.233313
v -0.160972 -0.005669 -0.234442
v -0.163511 -0.001237 -0.235627
v -0.165103 0.003418 -0.236872
v -0.165651 0.008260 -0.238167
v -0.165103 0.013103 -0.239462
v -0.163511 0.017758 -0.240707
v -0.160972 0.022189 -0.241892
v -0.157555 0.026411 -0.243021
v -0.153305 0.030444 -0.244100
v -0.148257 0.034297 -0.245130
v -0.142446 0.037974 -0.246114
v -0.135903 0.041470 -0.247049
v -0.128662 0.044778 -0.247933
v -0.120758 0.047888 -0.248765
v -0.112225 0.050791 -0.249541
v -0.103099 0.053474 -0.250259
v -0.093414 0.055926 -0.250915
v -0.083209 0.058136 -0.251506
v -0.072517 0.060091 -0.252029
v -0.061376 0.061779 -0.252480
v -0.049821 0.063188 -0.252857
v -0.037889 0.064305 -0.253156
v -0.025617 0.065119 -0.253373
v -0.013040 0.065616 -0.253506
v 0.185739 -0.056485 -0.222954
v 0.025226 -0.048582 -0.225064
v 0.037498 -0.047768 -0.225281
v 0.049429 -0.046651 -0.225579
v 0.060984 -0.045243 -0.225955
v 0.072125 -0.043556 -0.226405
v 0.082817 -0.041601 -0.226927
v 0.093023 -0.039392 -0.227517
v 0.102707 -0.036941 -0.228171
v 0.111833 -0.034258 -0.228887
v 0.120366 -0.031357 -0.229662
v 0.128271 -0.028248 -0.230492
v 0.135511 -0.024941 -0.231374
v 0.142054 -0.021446 -0.232307
v 0.147866 -0.017770 -0.233288
v 0.152912 -0.013918 -0.234317
v 0.157163 -0.009887 -0.235393
v 0.160581 -0.005666 -0.236519
v 0.163120 -0.001236 -0.237702
v 0.164711 0.003418 -0.238944
v 0.165260 0.008259 -0.240236
v 0.164711 0.013100 -0.241529
v 0.185739 0.114940 -0.268713
v 0.163120 0.017754 -0.242771
v 0.160581 0.022185 -0.243954
v 0.157163 0.026405 -0.245080
v 0.152912 0.030436 -0.246156
v 0.147866 0.034289 -0.247185
v 0.142054 0.037964 -0.248166
v 0.135511 0.041459 -0.249099
v 0.128271 0.044766 -0.249981
v 0.120366 0.047876 -0.250811
v 0.111833 0.050777 -0.251586
v 0.102707 0.053459 -0.252302
v 0.093023 0.055911 -0.252956
v 0.082817 0.058120 -0.253546
v 0.072125 0.060074 -0.254068
v 0.060984 0.061762 -0.254518
v 0.049429 0.063170 -0.254894
v 0.037498 0.064287 -0.255192
v 0.025226 0.065100 -0.255409
v 0.012649 0.065597 -0.255542
v -0.000196 0.065766 -0.255587
v -0.185739 0.114940 -0.268713
v -0.013040 0.065597 -0.255542
v -0.025617 0.065100 -0.255409
v -0.037889 0.064287 -0.255192
v -0.049821 0.063170 -0.254894
v -0.061376 0.061762 -0.254518
v -0.072517 0.060074 -0.254068
v -0.083209 0.058120 -0.253546
v -0.093414 0.055911 -0.252956
v -0.103099 0.053459 -0.252302
v -0.112225 0.050777 -0.251586
v -0.120758 0.047875 -0.250811
v -0.128662 0.044766 -0.249981
v -0.135903 0.041459 -0.249099
v -0.142446 0.037964 -0.248166
v -0.148257 0.034289 -0.247185
v -0.153304 0.030436 -0.246156
v -0.157554 0.026405 -0.245080
v -0.160972 0.022185 -0.243954
v -0.163511 0.017754 -0.242771
v -0.165103 0.013100 -0.241529
v 0.012648 -0.049079 -0.224931
v -0.000196 -0.049247 -0.224886
v -0.013040 -0.049079 -0.224931
v -0.025617 -0.048582 -0.225064
v -0.185739 -0.056485 -0.222954
v -0.037889 -0.047768 -0.225281
v -0.049821 -0.046651 -0.225579
v -0.061376 -0.045243 -0.225955
v -0.072517 -0.043556 -0.226405
v -0.083209 -0.041601 -0.226927
v -0.093414 -0.039392 -0.227517
v -0.103099 -0.036941 -0.228171
v -0.112225 -0.034258 -0.228887
v -0.120758 -0.031357 -0.229662
v -0.128662 -0.028248 -0.230492
v -0.135903 -0.024941 -0.231374
v -0.142446 -0.021446 -0.232307
v -0.148257 -0.017770 -0.233288
v -0.153304 -0.013918 -0.234317
v -0.157554 -0.009887 -0.235393
v -0.160972 -0.005666 -0.236519
v -0.163511 -0.001236 -0.237702
v -0.165103 0.003418 -0.238944
v -0.165651 0.008259 -0.240236
v 0.186845 0.116629 -0.268940
v -0.186845 0.116629 -0.268940
v -0.186845 0.116657 -0.267381
v 0.186845 0.116657 -0.267381
v -0.000196 0.064081 -0.255137
v 0.012624 0.063913 -0.255092
v 0.012624 0.063932 -0.253056
v -0.000196 0.064100 -0.253101
v -0.013015 0.063913 -0.255092
v -0.013015 0.063932 -0.253056
v 0.025175 0.063417 -0.254960
v 0.025175 0.063435 -0.252923
v -0.025566 0.063417 -0.254960
v -0.025566 0.063435 -0.252923
v 0.037421 0.062605 -0.254743
v 0.037421 0.062624 -0.252706
v -0.037813 0.062605 -0.254743
v -0.037813 0.062624 -0.252706
v 0.049326 0.061490 -0.254446
v 0.049326 0.061509 -0.252408
v -0.049718 0.061490 -0.254446
v -0.049718 0.061509 -0.252408
v 0.060854 0.060085 -0.254071
v 0.060854 0.060103 -0.252032
v -0.061246 0.060085 -0.254071
v -0.061246 0.060103 -0.252032
v 0.071967 0.058402 -0.253621
v 0.071967 0.058419 -0.251582
v -0.072358 0.058402 -0.253621
v -0.072358 0.058419 -0.251582
v 0.082628 0.056453 -0.253101
v 0.082628 0.056470 -0.251060
v -0.083019 0.056453 -0.253101
v -0.083019 0.056470 -0.251060
v 0.092801 0.054251 -0.252513
v 0.092801 0.054267 -0.250471
v -0.093193 0.054251 -0.252513
v -0.093193 0.054267 -0.250471
v 0.102450 0.051809 -0.251861
v 0.102450 0.051824 -0.249818
v -0.102842 0.051809 -0.251861
v -0.102842 0.051824 -0.249818
v 0.111538 0.049138 -0.251148
v 0.111538 0.049152 -0.249103
v -0.111930 0.049138 -0.251148
v -0.111930 0.049152 -0.249103
v 0.120027 0.046251 -0.250378
v 0.120027 0.046264 -0.248331
v -0.120419 0.046251 -0.250378
v -0.120419 0.046264 -0.248331
v 0.127882 0.043161 -0.249553
v 0.127882 0.043173 -0.247504
v -0.128274 0.043161 -0.249553
v -0.128274 0.043173 -0.247504
v 0.135066 0.039880 -0.248677
v 0.135066 0.039892 -0.246627
v -0.135458 0.039880 -0.248677
v -0.135458 0.039892 -0.246627
v 0.141542 0.036421 -0.247754
v 0.141542 0.036431 -0.245701
v -0.141934 0.036421 -0.247754
v -0.141934 0.036431 -0.245701
v 0.147274 0.032796 -0.246786
v 0.147274 0.032805 -0.244731
v -0.147666 0.032796 -0.246786
v -0.147666 0.032805 -0.244731
v 0.152224 0.029017 -0.245778
v 0.152224 0.029025 -0.243720
v -0.152616 0.029017 -0.245778
v -0.152616 0.029025 -0.243720
v 0.156357 0.025098 -0.244731
v 0.156357 0.025104 -0.242672
v -0.156748 0.025098 -0.244731
v -0.156748 0.025104 -0.242672
v 0.159634 0.021050 -0.243651
v 0.159634 0.021055 -0.241589
v -0.160026 0.021050 -0.243651
v -0.160026 0.021055 -0.241589
v 0.162022 0.016886 -0.242539
v 0.162022 0.016890 -0.240475
v -0.162413 0.016886 -0.242539
v -0.162413 0.016890 -0.240475
v 0.163480 0.012618 -0.241400
v 0.163480 0.012621 -0.239333
v 0.187010 -0.057946 -0.222334
v 0.187010 0.116404 -0.268874
v 0.187010 0.116432 -0.267327
v 0.187010 -0.057962 -0.220687
v 0.163975 0.008259 -0.240236
v 0.163975 0.008260 -0.238167
v 0.163480 0.003900 -0.239073
v 0.163480 0.003900 -0.237001
v 0.162022 -0.000367 -0.237934
v 0.162022 -0.000369 -0.235859
v 0.159634 -0.004531 -0.236822
v 0.159634 -0.004534 -0.234745
v 0.156357 -0.008579 -0.235742
v 0.156357 -0.008584 -0.233662
v 0.152224 -0.012499 -0.234695
v 0.152224 -0.012504 -0.232614
v 0.147274 -0.016277 -0.233687
v 0.147274 -0.016284 -0.231603
v 0.141542 -0.019903 -0.232719
v 0.141542 -0.019910 -0.230633
v 0.135066 -0.023362 -0.231796
v 0.135066 -0.023371 -0.229708
v 0.127882 -0.026643 -0.230920
v 0.127882 -0.026652 -0.228830
v -0.163872 0.012618 -0.241400
v -0.163872 0.012621 -0.239333
v -0.187010 0.116404 -0.268874
v -0.187010 -0.057946 -0.222334
v -0.187010 -0.057962 -0.220687
v -0.187010 0.116432 -0.267327
v -0.164366 0.008259 -0.240236
v -0.164366 0.008260 -0.238167
v -0.163872 0.003900 -0.239073
v -0.163872 0.003900 -0.237001
v -0.162413 -0.000367 -0.237934
v -0.162413 -0.000369 -0.235859
v -0.160026 -0.004531 -0.236822
v -0.160026 -0.004534 -0.234745
v -0.156748 -0.008579 -0.235742
v -0.156748 -0.008584 -0.233662
v -0.152616 -0.012499 -0.234695
v -0.152616 -0.012504 -0.232614
v -0.147666 -0.016277 -0.233687
v -0.147666 -0.016284 -0.231603
v -0.141934 -0.019903 -0.232719
v -0.141934 -0.019910 -0.230633
v -0.135458 -0.023362 -0.231796
v -0.135458 -0.023371 -0.229708
v -0.128274 -0.026643 -0.230920
v -0.128274 -0.026652 -0.228830
v -0.120419 -0.029733 -0.230095
v -0.120419 -0.029744 -0.228003
v 0.120027 -0.029733 -0.230095
v 0.120027 -0.029744 -0.228003
v -0.111930 -0.032619 -0.229325
v -0.111930 -0.032631 -0.227231
v 0.111538 -0.032619 -0.229325
v 0.111538 -0.032631 -0.227231
v -0.102842 -0.035290 -0.228612
v -0.102842 -0.035303 -0.226516
v 0.102450 -0.035290 -0.228612
v 0.102450 -0.035303 -0.226516
v -0.093193 -0.037733 -0.227960
v -0.093193 -0.037746 -0.225863
v 0.092801 -0.037733 -0.227960
v 0.092801 -0.037746 -0.225863
v -0.083019 -0.039935 -0.227372
v -0.083019 -0.039949 -0.225274
v 0.082628 -0.039935 -0.227372
v 0.082628 -0.039949 -0.225274
v -0.072358 -0.041884 -0.226852
v -0.072358 -0.041898 -0.224752
v 0.071967 -0.041884 -0.226852
v 0.071967 -0.041898 -0.224752
v -0.061246 -0.043567 -0.226402
v -0.061246 -0.043582 -0.224302
v 0.060854 -0.043567 -0.226402
v 0.060854 -0.043582 -0.224302
v -0.049718 -0.044972 -0.226027
v -0.049718 -0.044988 -0.223926
v 0.049326 -0.044972 -0.226027
v 0.049326 -0.044988 -0.223926
v -0.037813 -0.046086 -0.225730
v -0.037813 -0.046103 -0.223628
v 0.037421 -0.046086 -0.225730
v 0.037421 -0.046103 -0.223628
v -0.025566 -0.046898 -0.225513
v -0.025566 -0.046914 -0.223411
v -0.186845 -0.058172 -0.222281
v 0.186845 -0.058172 -0.222281
v 0.186845 -0.058188 -0.220618
v -0.186845 -0.058188 -0.220618
v -0.013015 -0.047394 -0.225381
v -0.013015 -0.047411 -0.223278
v -0.000196 -0.047562 -0.225336
v -0.000196 -0.047579 -0.223233
v 0.012623 -0.047394 -0.225381
v 0.012623 -0.047411 -0.223278
v 0.025175 -0.046898 -0.225513
v 0.025175 -0.046914 -0.223411
v 0.186893 0.116506 -0.267117
v -0.186894 0.116506 -0.267117
v -0.186894 -0.058036 -0.220437
v 0.186893 -0.058036 -0.220437
v -0.186894 0.116471 -0.269122
v 0.186893 0.116471 -0.269122
v 0.186893 -0.058016 -0.222545
v -0.186894 -0.058016 -0.222545
vt 0.429961 0.567723
vt 0.430020 0.545558
vt 0.430594 0.835454
vt 0.429880 0.589272
vt 0.429961 0.567723
vt 0.430594 0.835454
vt 0.429778 0.610141
vt 0.429880 0.589272
vt 0.430594 0.835454
vt 0.429656 0.630262
vt 0.429778 0.610141
vt 0.430594 0.835454
vt 0.429514 0.649572
vt 0.429656 0.630262
vt 0.430594 0.835454
vt 0.429354 0.668004
vt 0.429514 0.649572
vt 0.430594 0.835454
vt 0.429176 0.685494
vt 0.429354 0.668004
vt 0.430594 0.835454
vt 0.428982 0.701977
vt 0.429176 0.685494
vt 0.430594 0.835454
vt 0.428771 0.717388
vt 0.428982 0.701977
vt 0.430594 0.835454
vt 0.428546 0.731663
vt 0.428771 0.717388
vt 0.430594 0.835454
vt 0.428306 0.744741
vt 0.428546 0.731663
vt 0.430594 0.835454
vt 0.428052 0.756557
vt 0.428306 0.744741
vt 0.430594 0.835454
vt 0.427786 0.767053
vt 0.428052 0.756557
vt 0.430594 0.835454
vt 0.427506 0.776169
vt 0.427786 0.767053
vt 0.430594 0.835454
vt 0.427214 0.783845
vt 0.427506 0.776169
vt 0.430594 0.835454
vt 0.426908 0.790017
vt 0.427214 0.783845
vt 0.430594 0.835454
vt 0.426587 0.794603
vt 0.426908 0.790017
vt 0.430594 0.835454
vt 0.426249 0.797476
vt 0.426587 0.794603
vt 0.430594 0.835454
vt 0.425898 0.798468
vt 0.426249 0.797476
vt 0.430594 0.835454
vt 0.425547 0.797476
vt 0.425898 0.798468
vt 0.430594 0.835454
vt 0.425547 0.797476
vt 0.430594 0.835454
vt 0.418161 0.835455
vt 0.425210 0.794603
vt 0.425547 0.797476
vt 0.418161 0.835455
vt 0.424888 0.790017
vt 0.425210 0.794603
vt 0.418161 0.835455
vt 0.424582 0.783845
vt 0.424888 0.790017
vt 0.418161 0.835455
vt 0.424290 0.776169
vt 0.424582 0.783845
vt 0.418161 0.835455
vt 0.424011 0.767053
vt 0.424290 0.776169
vt 0.418161 0.835455
vt 0.423744 0.756557
vt 0.424011 0.767053
vt 0.418161 0.835455
vt 0.423491 0.744741
vt 0.423744 0.756557
vt 0.418161 0.835455
vt 0.423251 0.731663
vt 0.423491 0.744741
vt 0.418161 0.835455
vt 0.423025 0.717388
vt 0.423251 0.731663
vt 0.418161 0.835455
vt 0.422815 0.701977
vt 0.423025 0.717388
vt 0.418161 0.835455
vt 0.422620 0.685494
vt 0.422815 0.701977
vt 0.418161 0.835455
vt 0.422442 0.668005
vt 0.422620 0.685494
vt 0.418161 0.835455
vt 0.422282 0.649572
vt 0.422442 0.668005
vt 0.418161 0.835455
vt 0.422141 0.630262
vt 0.422282 0.649572
vt 0.418161 0.835455
vt 0.422018 0.610141
vt 0.422141 0.630262
vt 0.418161 0.835455
vt 0.421916 0.589272
vt 0.422018 0.610141
vt 0.418161 0.835455
vt 0.421835 0.567723
vt 0.421916 0.589272
vt 0.418161 0.835455
vt 0.421776 0.545558
vt 0.421835 0.567723
vt 0.418161 0.835455
vt 0.421740 0.522844
vt 0.421776 0.545558
vt 0.418161 0.835455
vt 0.421728 0.499647
vt 0.421740 0.522844
vt 0.418161 0.835455
vt 0.421728 0.499647
vt 0.418161 0.835455
vt 0.418161 0.164546
vt 0.430594 0.835454
vt 0.430020 0.545558
vt 0.430056 0.522844
vt 0.430594 0.835454
vt 0.430056 0.522844
vt 0.430069 0.499647
vt 0.430594 0.835454
vt 0.430069 0.499647
vt 0.430056 0.476449
vt 0.430594 0.835454
vt 0.430056 0.476449
vt 0.430020 0.453735
vt 0.430594 0.164546
vt 0.430594 0.835454
vt 0.430020 0.453735
vt 0.430594 0.164546
vt 0.430020 0.453735
vt 0.429961 0.431570
vt 0.430594 0.164546
vt 0.429961 0.431570
vt 0.429880 0.410021
vt 0.430594 0.164546
vt 0.429880 0.410021
vt 0.429778 0.389152
vt 0.430594 0.164546
vt 0.429778 0.389152
vt 0.429656 0.369031
vt 0.430594 0.164546
vt 0.429656 0.369031
vt 0.429514 0.349721
vt 0.430594 0.164546
vt 0.429514 0.349721
vt 0.429354 0.331289
vt 0.430594 0.164546
vt 0.429354 0.331289
vt 0.429176 0.313799
vt 0.430594 0.164546
vt 0.429176 0.313799
vt 0.428982 0.297316
vt 0.430594 0.164546
vt 0.428982 0.297316
vt 0.428771 0.281905
vt 0.430594 0.164546
vt 0.428771 0.281905
vt 0.428546 0.267630
vt 0.430594 0.164546
vt 0.428546 0.267630
vt 0.428306 0.254552
vt 0.430594 0.164546
vt 0.428306 0.254552
vt 0.428052 0.242736
vt 0.430594 0.164546
vt 0.428052 0.242736
vt 0.427786 0.232240
vt 0.430594 0.164546
vt 0.427786 0.232240
vt 0.427506 0.223124
vt 0.430594 0.164546
vt 0.427506 0.223124
vt 0.427214 0.215448
vt 0.430594 0.164546
vt 0.427214 0.215448
vt 0.426908 0.209276
vt 0.430594 0.164546
vt 0.426908 0.209276
vt 0.426587 0.204690
vt 0.430594 0.164546
vt 0.426587 0.204690
vt 0.426249 0.201817
vt 0.430594 0.164546
vt 0.426249 0.201817
vt 0.425898 0.200825
vt 0.430594 0.164546
vt 0.425898 0.200825
vt 0.425547 0.201817
vt 0.418161 0.164546
vt 0.430594 0.164546
vt 0.425547 0.201817
vt 0.418161 0.164546
vt 0.425547 0.201817
vt 0.425210 0.204690
vt 0.418161 0.164546
vt 0.425210 0.204690
vt 0.424888 0.209276
vt 0.418161 0.164546
vt 0.424888 0.209276
vt 0.424582 0.215448
vt 0.418161 0.164546
vt 0.424582 0.215448
vt 0.424290 0.223124
vt 0.418161 0.164546
vt 0.424290 0.223124
vt 0.424011 0.232240
vt 0.418161 0.164546
vt 0.424011 0.232240
vt 0.423744 0.242736
vt 0.418161 0.164546
vt 0.423744 0.242736
vt 0.423491 0.254552
vt 0.418161 0.164546
vt 0.423491 0.254552
vt 0.423251 0.267630
vt 0.418161 0.164546
vt 0.423251 0.267630
vt 0.423025 0.281905
vt 0.418161 0.164546
vt 0.423025 0.281905
vt 0.422815 0.297316
vt 0.418161 0.164546
vt 0.422815 0.297316
vt 0.422620 0.313799
vt 0.418161 0.164546
vt 0.422620 0.313799
vt 0.422442 0.331289
vt 0.418161 0.164546
vt 0.422442 0.331289
vt 0.422282 0.349721
vt 0.418161 0.164546
vt 0.422282 0.349721
vt 0.422141 0.369031
vt 0.418161 0.164546
vt 0.422141 0.369031
vt 0.422018 0.389152
vt 0.418161 0.164546
vt 0.422018 0.389152
vt 0.421916 0.410021
vt 0.418161 0.164546
vt 0.421916 0.410021
vt 0.421835 0.431570
vt 0.418161 0.164546
vt 0.421835 0.431570
vt 0.421776 0.453735
vt 0.418161 0.164546
vt 0.421776 0.453735
vt 0.421740 0.476449
vt 0.421728 0.499647
vt 0.418161 0.164546
vt 0.421740 0.476449
vt 0.569978 0.835454
vt 0.570550 0.545558
vt 0.570609 0.567723
vt 0.569978 0.835454
vt 0.570609 0.567723
vt 0.570689 0.589272
vt 0.569978 0.835454
vt 0.570689 0.589272
vt 0.570791 0.610141
vt 0.569978 0.835454
vt 0.570791 0.610141
vt 0.570913 0.630262
vt 0.569978 0.835454
vt 0.570913 0.630262
vt 0.571055 0.649572
vt 0.569978 0.835454
vt 0.571055 0.649572
vt 0.571215 0.668004
vt 0.569978 0.835454
vt 0.571215 0.668004
vt 0.571392 0.685494
vt 0.569978 0.835454
vt 0.571392 0.685494
vt 0.571586 0.701977
vt 0.569978 0.835454
vt 0.571586 0.701977
vt 0.571796 0.717388
vt 0.569978 0.835454
vt 0.571796 0.717388
vt 0.572021 0.731663
vt 0.569978 0.835454
vt 0.572021 0.731663
vt 0.572260 0.744740
vt 0.569978 0.835454
vt 0.572260 0.744740
vt 0.572513 0.756557
vt 0.569978 0.835454
vt 0.572513 0.756557
vt 0.572779 0.767053
vt 0.569978 0.835454
vt 0.572779 0.767053
vt 0.573058 0.776168
vt 0.569978 0.835454
vt 0.573058 0.776168
vt 0.573350 0.783844
vt 0.569978 0.835454
vt 0.573350 0.783844
vt 0.573655 0.790017
vt 0.569978 0.835454
vt 0.573655 0.790017
vt 0.573976 0.794603
vt 0.569978 0.835454
vt 0.573976 0.794603
vt 0.574312 0.797476
vt 0.569978 0.835454
vt 0.574312 0.797476
vt 0.574663 0.798468
vt 0.569978 0.835454
vt 0.574663 0.798468
vt 0.575013 0.797476
vt 0.582382 0.835455
vt 0.569978 0.835454
vt 0.575013 0.797476
vt 0.582382 0.835455
vt 0.575013 0.797476
vt 0.575350 0.794603
vt 0.582382 0.835455
vt 0.575350 0.794603
vt 0.575670 0.790017
vt 0.582382 0.835455
vt 0.575670 0.790017
vt 0.575976 0.783844
vt 0.582382 0.835455
vt 0.575976 0.783844
vt 0.576268 0.776168
vt 0.582382 0.835455
vt 0.576268 0.776168
vt 0.576546 0.767053
vt 0.582382 0.835455
vt 0.576546 0.767053
vt 0.576812 0.756557
vt 0.582382 0.835455
vt 0.576812 0.756557
vt 0.577065 0.744740
vt 0.582382 0.835455
vt 0.577065 0.744740
vt 0.577304 0.731663
vt 0.582382 0.835455
vt 0.577304 0.731663
vt 0.577529 0.717388
vt 0.582382 0.835455
vt 0.577529 0.717388
vt 0.577739 0.701977
vt 0.582382 0.835455
vt 0.577739 0.701977
vt 0.577933 0.685494
vt 0.582382 0.835455
vt 0.577933 0.685494
vt 0.578111 0.668004
vt 0.582382 0.835455
vt 0.578111 0.668004
vt 0.578271 0.649572
vt 0.582382 0.835455
vt 0.578271 0.649572
vt 0.578412 0.630262
vt 0.582382 0.835455
vt 0.578412 0.630262
vt 0.578534 0.610141
vt 0.582382 0.835455
vt 0.578534 0.610141
vt 0.578636 0.589272
vt 0.582382 0.835455
vt 0.578636 0.589272
vt 0.578717 0.567723
vt 0.582382 0.835455
vt 0.578717 0.567723
vt 0.578776 0.545558
vt 0.582382 0.835455
vt 0.578776 0.545558
vt 0.578812 0.522844
vt 0.582382 0.835455
vt 0.578812 0.522844
vt 0.578824 0.499647
vt 0.582382 0.164546
vt 0.582382 0.835455
vt 0.578824 0.499647
vt 0.582382 0.164546
vt 0.578824 0.499647
vt 0.578812 0.476449
vt 0.582382 0.164546
vt 0.578812 0.476449
vt 0.578776 0.453735
vt 0.582382 0.164546
vt 0.578776 0.453735
vt 0.578717 0.431570
vt 0.582382 0.164546
vt 0.578717 0.431570
vt 0.578636 0.410021
vt 0.582382 0.164546
vt 0.578636 0.410021
vt 0.578534 0.389152
vt 0.582382 0.164546
vt 0.578534 0.389152
vt 0.578412 0.369031
vt 0.582382 0.164546
vt 0.578412 0.369031
vt 0.578271 0.349721
vt 0.582382 0.164546
vt 0.578271 0.349721
vt 0.578111 0.331289
vt 0.582382 0.164546
vt 0.578111 0.331289
vt 0.577934 0.313799
vt 0.582382 0.164546
vt 0.577934 0.313799
vt 0.577739 0.297316
vt 0.582382 0.164546
vt 0.577739 0.297316
vt 0.577529 0.281905
vt 0.582382 0.164546
vt 0.577529 0.281905
vt 0.577304 0.267630
vt 0.582382 0.164546
vt 0.577304 0.267630
vt 0.577065 0.254553
vt 0.582382 0.164546
vt 0.577065 0.254553
vt 0.576812 0.242736
vt 0.582382 0.164546
vt 0.576812 0.242736
vt 0.576546 0.232240
vt 0.582382 0.164546
vt 0.576546 0.232240
vt 0.576268 0.223125
vt 0.582382 0.164546
vt 0.576268 0.223125
vt 0.575976 0.215449
vt 0.582382 0.164546
vt 0.575976 0.215449
vt 0.575670 0.209276
vt 0.582382 0.164546
vt 0.575670 0.209276
vt 0.575350 0.204690
vt 0.582382 0.164546
vt 0.575350 0.204690
vt 0.575013 0.201817
vt 0.570514 0.522844
vt 0.570550 0.545558
vt 0.569978 0.835454
vt 0.570502 0.499647
vt 0.570514 0.522844
vt 0.569978 0.835454
vt 0.570514 0.476449
vt 0.570502 0.499647
vt 0.569978 0.835454
vt 0.570550 0.453735
vt 0.570514 0.476449
vt 0.569978 0.835454
vt 0.570550 0.453735
vt 0.569978 0.835454
vt 0.569978 0.164546
vt 0.570609 0.431570
vt 0.570550 0.453735
vt 0.569978 0.164546
vt 0.570689 0.410021
vt 0.570609 0.431570
vt 0.569978 0.164546
vt 0.570791 0.389152
vt 0.570689 0.410021
vt 0.569978 0.164546
vt 0.570913 0.369031
vt 0.570791 0.389152
vt 0.569978 0.164546
vt 0.571055 0.349721
vt 0.570913 0.369031
vt 0.569978 0.164546
vt 0.571215 0.331289
vt 0.571055 0.349721
vt 0.569978 0.164546
vt 0.571392 0.313799
vt 0.571215 0.331289
vt 0.569978 0.164546
vt 0.571586 0.297316
vt 0.571392 0.313799
vt 0.569978 0.164546
vt 0.571796 0.281905
vt 0.571586 0.297316
vt 0.569978 0.164546
vt 0.572021 0.267630
vt 0.571796 0.281905
vt 0.569978 0.164546
vt 0.572260 0.254553
vt 0.572021 0.267630
vt 0.569978 0.164546
vt 0.572513 0.242736
vt 0.572260 0.254553
vt 0.569978 0.164546
vt 0.572779 0.232240
vt 0.572513 0.242736
vt 0.569978 0.164546
vt 0.573058 0.223125
vt 0.572779 0.232240
vt 0.569978 0.164546
vt 0.573350 0.215449
vt 0.573058 0.223125
vt 0.569978 0.164546
vt 0.573655 0.209276
vt 0.573350 0.215449
vt 0.569978 0.164546
vt 0.573976 0.204690
vt 0.573655 0.209276
vt 0.569978 0.164546
vt 0.574313 0.201817
vt 0.573976 0.204690
vt 0.569978 0.164546
vt 0.574663 0.200825
vt 0.574313 0.201817
vt 0.569978 0.164546
vt 0.575013 0.201817
vt 0.574663 0.200825
vt 0.569978 0.164546
vt 0.582382 0.164546
vt 0.575013 0.201817
vt 0.569978 0.164546
vt 0.417556 0.837452
vt 0.417556 0.162548
vt 0.417979 0.162548
vt 0.417979 0.162548
vt 0.417979 0.837452
vt 0.417556 0.837452
vt 0.578702 0.499647
vt 0.578690 0.522799
vt 0.578138 0.522799
vt 0.578138 0.522799
vt 0.578150 0.499647
vt 0.578702 0.499647
vt 0.578690 0.476494
vt 0.578702 0.499647
vt 0.578150 0.499647
vt 0.578150 0.499647
vt 0.578138 0.476494
vt 0.578690 0.476494
vt 0.578690 0.522799
vt 0.578654 0.545467
vt 0.578102 0.545467
vt 0.578102 0.545467
vt 0.578138 0.522799
vt 0.578690 0.522799
vt 0.578654 0.453826
vt 0.578690 0.476494
vt 0.578138 0.476494
vt 0.578138 0.476494
vt 0.578102 0.453826
vt 0.578654 0.453826
vt 0.578654 0.545467
vt 0.578595 0.567585
vt 0.578043 0.567585
vt 0.578043 0.567585
vt 0.578102 0.545467
vt 0.578654 0.545467
vt 0.578595 0.431708
vt 0.578654 0.453826
vt 0.578102 0.453826
vt 0.578102 0.453826
vt 0.578043 0.431708
vt 0.578595 0.431708
vt 0.578595 0.567585
vt 0.578515 0.589086
vt 0.577962 0.589086
vt 0.577962 0.589086
vt 0.578043 0.567585
vt 0.578595 0.567585
vt 0.578515 0.410207
vt 0.578595 0.431708
vt 0.578043 0.431708
vt 0.578043 0.431708
vt 0.577962 0.410207
vt 0.578515 0.410207
vt 0.578515 0.589086
vt 0.578413 0.609905
vt 0.577860 0.609905
vt 0.577860 0.609905
vt 0.577962 0.589086
vt 0.578515 0.589086
vt 0.578413 0.389388
vt 0.578515 0.410207
vt 0.577962 0.410207
vt 0.577962 0.410207
vt 0.577860 0.389388
vt 0.578413 0.389388
vt 0.578413 0.609905
vt 0.578291 0.629975
vt 0.577738 0.629975
vt 0.577738 0.629975
vt 0.577860 0.609905
vt 0.578413 0.609905
vt 0.578291 0.369318
vt 0.578413 0.389388
vt 0.577860 0.389388
vt 0.577860 0.389388
vt 0.577738 0.369318
vt 0.578291 0.369318
vt 0.578291 0.629975
vt 0.578150 0.649230
vt 0.577597 0.649230
vt 0.577597 0.649230
vt 0.577738 0.629975
vt 0.578291 0.629975
vt 0.578150 0.350063
vt 0.578291 0.369318
vt 0.577738 0.369318
vt 0.577738 0.369318
vt 0.577597 0.350063
vt 0.578150 0.350063
vt 0.578150 0.649230
vt 0.577991 0.667604
vt 0.577437 0.667604
vt 0.577437 0.667604
vt 0.577597 0.649230
vt 0.578150 0.649230
vt 0.577991 0.331689
vt 0.578150 0.350063
vt 0.577597 0.350063
vt 0.577597 0.350063
vt 0.577437 0.331689
vt 0.577991 0.331689
vt 0.577991 0.667604
vt 0.577814 0.685030
vt 0.577260 0.685030
vt 0.577260 0.685030
vt 0.577437 0.667604
vt 0.577991 0.667604
vt 0.577814 0.314263
vt 0.577991 0.331689
vt 0.577437 0.331689
vt 0.577437 0.331689
vt 0.577260 0.314263
vt 0.577814 0.314263
vt 0.577814 0.685030
vt 0.577621 0.701443
vt 0.577066 0.701443
vt 0.577066 0.701443
vt 0.577260 0.685030
vt 0.577814 0.685030
vt 0.577621 0.297850
vt 0.577814 0.314263
vt 0.577260 0.314263
vt 0.577260 0.314263
vt 0.577066 0.297850
vt 0.577621 0.297850
vt 0.577621 0.701443
vt 0.577412 0.716776
vt 0.576857 0.716776
vt 0.576857 0.716776
vt 0.577066 0.701443
vt 0.577621 0.701443
vt 0.577412 0.282517
vt 0.577621 0.297850
vt 0.577066 0.297850
vt 0.577066 0.297850
vt 0.576857 0.282517
vt 0.577412 0.282517
vt 0.577412 0.716776
vt 0.577188 0.730963
vt 0.576633 0.730963
vt 0.576633 0.730963
vt 0.576857 0.716776
vt 0.577412 0.716776
vt 0.577188 0.268330
vt 0.577412 0.282517
vt 0.576857 0.282517
vt 0.576857 0.282517
vt 0.576633 0.268330
vt 0.577188 0.268330
vt 0.577188 0.730963
vt 0.576951 0.743937
vt 0.576395 0.743937
vt 0.576395 0.743937
vt 0.576633 0.730963
vt 0.577188 0.730963
vt 0.576951 0.255356
vt 0.577188 0.268330
vt 0.576633 0.268330
vt 0.576633 0.268330
vt 0.576395 0.255356
vt 0.576951 0.255356
vt 0.576951 0.743937
vt 0.576701 0.755633
vt 0.576144 0.755633
vt 0.576144 0.755633
vt 0.576395 0.743937
vt 0.576951 0.743937
vt 0.576701 0.243660
vt 0.576951 0.255356
vt 0.576395 0.255356
vt 0.576395 0.255356
vt 0.576144 0.243660
vt 0.576701 0.243660
vt 0.576701 0.755633
vt 0.576438 0.765985
vt 0.575881 0.765985
vt 0.575881 0.765985
vt 0.576144 0.755633
vt 0.576701 0.755633
vt 0.576438 0.233308
vt 0.576701 0.243660
vt 0.576144 0.243660
vt 0.576144 0.243660
vt 0.575881 0.233308
vt 0.576438 0.233308
vt 0.576438 0.765985
vt 0.576165 0.774925
vt 0.575607 0.774925
vt 0.575607 0.774925
vt 0.575881 0.765985
vt 0.576438 0.765985
vt 0.576165 0.224368
vt 0.576438 0.233308
vt 0.575881 0.233308
vt 0.575881 0.233308
vt 0.575607 0.224368
vt 0.576165 0.224368
vt 0.576165 0.774925
vt 0.575881 0.782388
vt 0.575323 0.782388
vt 0.575323 0.782388
vt 0.575607 0.774925
vt 0.576165 0.774925
vt 0.575881 0.216905
vt 0.576165 0.224368
vt 0.575607 0.224368
vt 0.575607 0.224368
vt 0.575323 0.216905
vt 0.575881 0.216905
vt 0.575881 0.782388
vt 0.575588 0.788309
vt 0.575029 0.788309
vt 0.575029 0.788309
vt 0.575323 0.782388
vt 0.575881 0.782388
vt 0.575588 0.210984
vt 0.575881 0.216905
vt 0.575323 0.216905
vt 0.575323 0.216905
vt 0.575029 0.210984
vt 0.575588 0.210984
vt 0.575588 0.788309
vt 0.575287 0.792619
vt 0.574727 0.792619
vt 0.574727 0.792619
vt 0.575029 0.788309
vt 0.575588 0.788309
vt 0.575287 0.206674
vt 0.575588 0.210984
vt 0.575029 0.210984
vt 0.575029 0.210984
vt 0.574727 0.206674
vt 0.575287 0.206674
vt 0.575287 0.468569
vt 0.574978 0.476513
vt 0.574418 0.476508
vt 0.574418 0.476508
vt 0.574727 0.468562
vt 0.575287 0.468569
vt 0.430190 0.607861
vt 0.417574 0.283325
vt 0.417993 0.283273
vt 0.417993 0.283273
vt 0.430637 0.607890
vt 0.430190 0.607861
vt 0.574978 0.476513
vt 0.574663 0.484627
vt 0.574102 0.484624
vt 0.574102 0.484624
vt 0.574418 0.476508
vt 0.574978 0.476513
vt 0.574663 0.484627
vt 0.574347 0.492740
vt 0.573786 0.492740
vt 0.573786 0.492740
vt 0.574102 0.484624
vt 0.574663 0.484627
vt 0.574347 0.492740
vt 0.574039 0.500684
vt 0.573476 0.500687
vt 0.573476 0.500687
vt 0.573786 0.492740
vt 0.574347 0.492740
vt 0.425961 0.792619
vt 0.426263 0.788308
vt 0.426826 0.788308
vt 0.426826 0.788308
vt 0.426524 0.792619
vt 0.425961 0.792619
vt 0.426263 0.788308
vt 0.426556 0.782388
vt 0.427119 0.782388
vt 0.427119 0.782388
vt 0.426826 0.788308
vt 0.426263 0.788308
vt 0.426556 0.782388
vt 0.426839 0.774925
vt 0.427404 0.774925
vt 0.427404 0.774925
vt 0.427119 0.782388
vt 0.426556 0.782388
vt 0.426839 0.774925
vt 0.427113 0.765985
vt 0.427678 0.765985
vt 0.427678 0.765985
vt 0.427404 0.774925
vt 0.426839 0.774925
vt 0.427113 0.765985
vt 0.427375 0.755633
vt 0.427941 0.755633
vt 0.427941 0.755633
vt 0.427678 0.765985
vt 0.427113 0.765985
vt 0.427375 0.755633
vt 0.427625 0.743937
vt 0.428191 0.743937
vt 0.428191 0.743937
vt 0.427941 0.755633
vt 0.427375 0.755633
vt 0.427625 0.743937
vt 0.427863 0.730963
vt 0.428429 0.730963
vt 0.428429 0.730963
vt 0.428191 0.743937
vt 0.427625 0.743937
vt 0.425022 0.476513
vt 0.424713 0.468569
vt 0.425273 0.468562
vt 0.425273 0.468562
vt 0.425582 0.476508
vt 0.425022 0.476513
vt 0.582426 0.283325
vt 0.569810 0.607861
vt 0.569363 0.607890
vt 0.569363 0.607890
vt 0.582007 0.283273
vt 0.582426 0.283325
vt 0.425337 0.484627
vt 0.425022 0.476513
vt 0.425582 0.476508
vt 0.425582 0.476508
vt 0.425898 0.484624
vt 0.425337 0.484627
vt 0.425653 0.492740
vt 0.425337 0.484627
vt 0.425898 0.484624
vt 0.425898 0.484624
vt 0.426214 0.492741
vt 0.425653 0.492740
vt 0.425961 0.500684
vt 0.425653 0.492740
vt 0.426214 0.492741
vt 0.426214 0.492741
vt 0.426524 0.500687
vt 0.425961 0.500684
vt 0.426263 0.210984
vt 0.425961 0.206674
vt 0.426524 0.206674
vt 0.426524 0.206674
vt 0.426826 0.210984
vt 0.426263 0.210984
vt 0.426556 0.216905
vt 0.426263 0.210984
vt 0.426826 0.210984
vt 0.426826 0.210984
vt 0.427119 0.216905
vt 0.426556 0.216905
vt 0.426839 0.224368
vt 0.426556 0.216905
vt 0.427119 0.216905
vt 0.427119 0.216905
vt 0.427404 0.224368
vt 0.426839 0.224368
vt 0.427113 0.233308
vt 0.426839 0.224368
vt 0.427404 0.224368
vt 0.427404 0.224368
vt 0.427678 0.233308
vt 0.427113 0.233308
vt 0.427375 0.243660
vt 0.427113 0.233308
vt 0.427678 0.233308
vt 0.427678 0.233308
vt 0.427941 0.243660
vt 0.427375 0.243660
vt 0.427625 0.255356
vt 0.427375 0.243660
vt 0.427941 0.243660
vt 0.427941 0.243660
vt 0.428191 0.255356
vt 0.427625 0.255356
vt 0.427863 0.268330
vt 0.427625 0.255356
vt 0.428191 0.255356
vt 0.428191 0.255356
vt 0.428429 0.268330
vt 0.427863 0.268330
vt 0.428086 0.282517
vt 0.427863 0.268330
vt 0.428429 0.268330
vt 0.428429 0.268330
vt 0.428653 0.282517
vt 0.428086 0.282517
vt 0.427863 0.730963
vt 0.428086 0.716776
vt 0.428653 0.716776
vt 0.428653 0.716776
vt 0.428429 0.730963
vt 0.427863 0.730963
vt 0.428295 0.297850
vt 0.428086 0.282517
vt 0.428653 0.282517
vt 0.428653 0.282517
vt 0.428863 0.297850
vt 0.428295 0.297850
vt 0.428086 0.716776
vt 0.428295 0.701443
vt 0.428863 0.701443
vt 0.428863 0.701443
vt 0.428653 0.716776
vt 0.428086 0.716776
vt 0.428488 0.314263
vt 0.428295 0.297850
vt 0.428863 0.297850
vt 0.428863 0.297850
vt 0.429056 0.314263
vt 0.428488 0.314263
vt 0.428295 0.701443
vt 0.428488 0.685030
vt 0.429056 0.685030
vt 0.429056 0.685030
vt 0.428863 0.701443
vt 0.428295 0.701443
vt 0.428665 0.331689
vt 0.428488 0.314263
vt 0.429056 0.314263
vt 0.429056 0.314263
vt 0.429234 0.331689
vt 0.428665 0.331689
vt 0.428488 0.685030
vt 0.428665 0.667604
vt 0.429234 0.667604
vt 0.429234 0.667604
vt 0.429056 0.685030
vt 0.428488 0.685030
vt 0.428825 0.350063
vt 0.428665 0.331689
vt 0.429234 0.331689
vt 0.429234 0.331689
vt 0.429393 0.350063
vt 0.428825 0.350063
vt 0.428665 0.667604
vt 0.428825 0.649230
vt 0.429393 0.649230
vt 0.429393 0.649230
vt 0.429234 0.667604
vt 0.428665 0.667604
vt 0.428966 0.369318
vt 0.428825 0.350063
vt 0.429393 0.350063
vt 0.429393 0.350063
vt 0.429535 0.369318
vt 0.428966 0.369318
vt 0.428825 0.649230
vt 0.428966 0.629975
vt 0.429535 0.629975
vt 0.429535 0.629975
vt 0.429393 0.649230
vt 0.428825 0.649230
vt 0.429087 0.389388
vt 0.428966 0.369318
vt 0.429535 0.369318
vt 0.429535 0.369318
vt 0.429657 0.389388
vt 0.429087 0.389388
vt 0.428966 0.629975
vt 0.429087 0.609905
vt 0.429657 0.609905
vt 0.429657 0.609905
vt 0.429535 0.629975
vt 0.428966 0.629975
vt 0.429189 0.410207
vt 0.429087 0.389388
vt 0.429657 0.389388
vt 0.429657 0.389388
vt 0.429759 0.410207
vt 0.429189 0.410207
vt 0.429087 0.609905
vt 0.429189 0.589086
vt 0.429759 0.589086
vt 0.429759 0.589086
vt 0.429657 0.609905
vt 0.429087 0.609905
vt 0.429270 0.431708
vt 0.429189 0.410207
vt 0.429759 0.410207
vt 0.429759 0.410207
vt 0.429839 0.431708
vt 0.429270 0.431708
vt 0.429189 0.589086
vt 0.429270 0.567585
vt 0.429839 0.567585
vt 0.429839 0.567585
vt 0.429759 0.589086
vt 0.429189 0.589086
vt 0.429328 0.453826
vt 0.429270 0.431708
vt 0.429839 0.431708
vt 0.429839 0.431708
vt 0.429898 0.453826
vt 0.429328 0.453826
vt 0.569795 0.162548
vt 0.569795 0.837452
vt 0.569345 0.837452
vt 0.569345 0.837452
vt 0.569345 0.162548
vt 0.569795 0.162548
vt 0.429364 0.476494
vt 0.429328 0.453826
vt 0.429898 0.453826
vt 0.429898 0.453826
vt 0.429934 0.476494
vt 0.429364 0.476494
vt 0.429377 0.499647
vt 0.429364 0.476494
vt 0.429934 0.476494
vt 0.429934 0.476494
vt 0.429946 0.499647
vt 0.429377 0.499647
vt 0.429364 0.522799
vt 0.429377 0.499647
vt 0.429946 0.499647
vt 0.429946 0.499647
vt 0.429934 0.522799
vt 0.429364 0.522799
vt 0.429328 0.545467
vt 0.429364 0.522799
vt 0.429934 0.522799
vt 0.429934 0.522799
vt 0.429898 0.545467
vt 0.429328 0.545467
vt 0.429270 0.567585
vt 0.429328 0.545467
vt 0.429898 0.545467
vt 0.429898 0.545467
vt 0.429839 0.567585
vt 0.429270 0.567585
vt 0.418050 0.837539
vt 0.418050 0.162461
vt 0.418161 0.164546
vt 0.418161 0.164546
vt 0.418161 0.835455
vt 0.418050 0.837539
vt 0.418050 0.162461
vt 0.430705 0.162461
vt 0.430594 0.164546
vt 0.430594 0.164546
vt 0.418161 0.164546
vt 0.418050 0.162461
vt 0.430705 0.162461
vt 0.430705 0.837539
vt 0.430594 0.835454
vt 0.430594 0.835454
vt 0.430594 0.164546
vt 0.430705 0.162461
vt 0.430705 0.837539
vt 0.418050 0.837539
vt 0.418161 0.835455
vt 0.418161 0.835455
vt 0.430594 0.835454
vt 0.430705 0.837539
vt 0.421850 0.499647
vt 0.421862 0.522799
vt 0.421740 0.522844
vt 0.421740 0.522844
vt 0.421728 0.499647
vt 0.421850 0.499647
vt 0.421862 0.522799
vt 0.421898 0.545467
vt 0.421776 0.545558
vt 0.421776 0.545558
vt 0.421740 0.522844
vt 0.421862 0.522799
vt 0.421898 0.545467
vt 0.421957 0.567585
vt 0.421835 0.567723
vt 0.421835 0.567723
vt 0.421776 0.545558
vt 0.421898 0.545467
vt 0.421957 0.567585
vt 0.422038 0.589086
vt 0.421916 0.589272
vt 0.421916 0.589272
vt 0.421835 0.567723
vt 0.421957 0.567585
vt 0.422038 0.589086
vt 0.422140 0.609905
vt 0.422018 0.610141
vt 0.422018 0.610141
vt 0.421916 0.589272
vt 0.422038 0.589086
vt 0.422140 0.609905
vt 0.422262 0.629975
vt 0.422141 0.630262
vt 0.422141 0.630262
vt 0.422018 0.610141
vt 0.422140 0.609905
vt 0.422262 0.629975
vt 0.422403 0.649230
vt 0.422282 0.649572
vt 0.422282 0.649572
vt 0.422141 0.630262
vt 0.422262 0.629975
vt 0.422403 0.649230
vt 0.422563 0.667604
vt 0.422442 0.668005
vt 0.422442 0.668005
vt 0.422282 0.649572
vt 0.422403 0.649230
vt 0.422563 0.667604
vt 0.422740 0.685030
vt 0.422620 0.685494
vt 0.422620 0.685494
vt 0.422442 0.668005
vt 0.422563 0.667604
vt 0.422740 0.685030
vt 0.422934 0.701443
vt 0.422815 0.701977
vt 0.422815 0.701977
vt 0.422620 0.685494
vt 0.422740 0.685030
vt 0.422934 0.701443
vt 0.423143 0.716776
vt 0.423025 0.717388
vt 0.423025 0.717388
vt 0.422815 0.701977
vt 0.422934 0.701443
vt 0.423143 0.716776
vt 0.423367 0.730963
vt 0.423251 0.731663
vt 0.423251 0.731663
vt 0.423025 0.717388
vt 0.423143 0.716776
vt 0.423367 0.730963
vt 0.423605 0.743937
vt 0.423491 0.744741
vt 0.423491 0.744741
vt 0.423251 0.731663
vt 0.423367 0.730963
vt 0.423605 0.743937
vt 0.423856 0.755633
vt 0.423744 0.756557
vt 0.423744 0.756557
vt 0.423491 0.744741
vt 0.423605 0.743937
vt 0.423856 0.755633
vt 0.424119 0.765985
vt 0.424011 0.767053
vt 0.424011 0.767053
vt 0.423744 0.756557
vt 0.423856 0.755633
vt 0.424119 0.765985
vt 0.424393 0.774925
vt 0.424290 0.776169
vt 0.424290 0.776169
vt 0.424011 0.767053
vt 0.424119 0.765985
vt 0.424393 0.774925
vt 0.424677 0.782388
vt 0.424582 0.783845
vt 0.424582 0.783845
vt 0.424290 0.776169
vt 0.424393 0.774925
vt 0.424677 0.782388
vt 0.424971 0.788309
vt 0.424888 0.790017
vt 0.424888 0.790017
vt 0.424582 0.783845
vt 0.424677 0.782388
vt 0.424971 0.788309
vt 0.425273 0.792619
vt 0.425210 0.794603
vt 0.425210 0.794603
vt 0.424888 0.790017
vt 0.424971 0.788309
vt 0.425273 0.792619
vt 0.425582 0.795254
vt 0.425547 0.797476
vt 0.425547 0.797476
vt 0.425210 0.794603
vt 0.425273 0.792619
vt 0.425582 0.795254
vt 0.425898 0.796147
vt 0.425898 0.798468
vt 0.425898 0.798468
vt 0.425547 0.797476
vt 0.425582 0.795254
vt 0.425898 0.796147
vt 0.426214 0.795254
vt 0.426249 0.797476
vt 0.426249 0.797476
vt 0.425898 0.798468
vt 0.425898 0.796147
vt 0.426214 0.795254
vt 0.426524 0.792619
vt 0.426587 0.794603
vt 0.426587 0.794603
vt 0.426249 0.797476
vt 0.426214 0.795254
vt 0.426524 0.792619
vt 0.426826 0.788308
vt 0.426908 0.790017
vt 0.426908 0.790017
vt 0.426587 0.794603
vt 0.426524 0.792619
vt 0.426826 0.788308
vt 0.427119 0.782388
vt 0.427214 0.783845
vt 0.427214 0.783845
vt 0.426908 0.790017
vt 0.426826 0.788308
vt 0.427119 0.782388
vt 0.427404 0.774925
vt 0.427506 0.776169
vt 0.427506 0.776169
vt 0.427214 0.783845
vt 0.427119 0.782388
vt 0.427404 0.774925
vt 0.427678 0.765985
vt 0.427786 0.767053
vt 0.427786 0.767053
vt 0.427506 0.776169
vt 0.427404 0.774925
vt 0.427678 0.765985
vt 0.427941 0.755633
vt 0.428052 0.756557
vt 0.428052 0.756557
vt 0.427786 0.767053
vt 0.427678 0.765985
vt 0.427941 0.755633
vt 0.428191 0.743937
vt 0.428306 0.744741
vt 0.428306 0.744741
vt 0.428052 0.756557
vt 0.427941 0.755633
vt 0.428191 0.743937
vt 0.428429 0.730963
vt 0.428546 0.731663
vt 0.428546 0.731663
vt 0.428306 0.744741
vt 0.428191 0.743937
vt 0.428429 0.730963
vt 0.428653 0.716776
vt 0.428771 0.717388
vt 0.428771 0.717388
vt 0.428546 0.731663
vt 0.428429 0.730963
vt 0.428653 0.716776
vt 0.428863 0.701443
vt 0.428982 0.701977
vt 0.428982 0.701977
vt 0.428771 0.717388
vt 0.428653 0.716776
vt 0.428863 0.701443
vt 0.429056 0.685030
vt 0.429176 0.685494
vt 0.429176 0.685494
vt 0.428982 0.701977
vt 0.428863 0.701443
vt 0.429056 0.685030
vt 0.429234 0.667604
vt 0.429354 0.668004
vt 0.429354 0.668004
vt 0.429176 0.685494
vt 0.429056 0.685030
vt 0.429234 0.667604
vt 0.429393 0.649230
vt 0.429514 0.649572
vt 0.429514 0.649572
vt 0.429354 0.668004
vt 0.429234 0.667604
vt 0.429393 0.649230
vt 0.429535 0.629975
vt 0.429656 0.630262
vt 0.429656 0.630262
vt 0.429514 0.649572
vt 0.429393 0.649230
vt 0.429535 0.629975
vt 0.429657 0.609905
vt 0.429778 0.610141
vt 0.429778 0.610141
vt 0.429656 0.630262
vt 0.429535 0.629975
vt 0.429657 0.609905
vt 0.429759 0.589086
vt 0.429880 0.589272
vt 0.429880 0.589272
vt 0.429778 0.610141
vt 0.429657 0.609905
vt 0.429759 0.589086
vt 0.429839 0.567585
vt 0.429961 0.567723
vt 0.429961 0.567723
vt 0.429880 0.589272
vt 0.429759 0.589086
vt 0.429839 0.567585
vt 0.429898 0.545467
vt 0.430020 0.545558
vt 0.430020 0.545558
vt 0.429961 0.567723
vt 0.429839 0.567585
vt 0.429898 0.545467
vt 0.429934 0.522799
vt 0.430056 0.522844
vt 0.430056 0.522844
vt 0.430020 0.545558
vt 0.429898 0.545467
vt 0.429934 0.522799
vt 0.429946 0.499647
vt 0.430069 0.499647
vt 0.430069 0.499647
vt 0.430056 0.522844
vt 0.429934 0.522799
vt 0.429946 0.499647
vt 0.429934 0.476494
vt 0.430056 0.476449
vt 0.430056 0.476449
vt 0.430069 0.499647
vt 0.429946 0.499647
vt 0.429934 0.476494
vt 0.429898 0.453826
vt 0.430020 0.453735
vt 0.430020 0.453735
vt 0.430056 0.476449
vt 0.429934 0.476494
vt 0.429898 0.453826
vt 0.429839 0.431708
vt 0.429961 0.431570
vt 0.429961 0.431570
vt 0.430020 0.453735
vt 0.429898 0.453826
vt 0.429839 0.431708
vt 0.429759 0.410207
vt 0.429880 0.410021
vt 0.429880 0.410021
vt 0.429961 0.431570
vt 0.429839 0.431708
vt 0.429759 0.410207
vt 0.429657 0.389388
vt 0.429778 0.389152
vt 0.429778 0.389152
vt 0.429880 0.410021
vt 0.429759 0.410207
vt 0.429657 0.389388
vt 0.429535 0.369318
vt 0.429656 0.369031
vt 0.429656 0.369031
vt 0.429778 0.389152
vt 0.429657 0.389388
vt 0.429535 0.369318
vt 0.429393 0.350063
vt 0.429514 0.349721
vt 0.429514 0.349721
vt 0.429656 0.369031
vt 0.429535 0.369318
vt 0.429393 0.350063
vt 0.429234 0.331689
vt 0.429354 0.331289
vt 0.429354 0.331289
vt 0.429514 0.349721
vt 0.429393 0.350063
vt 0.429234 0.331689
vt 0.429056 0.314263
vt 0.429176 0.313799
vt 0.429176 0.313799
vt 0.429354 0.331289
vt 0.429234 0.331689
vt 0.429056 0.314263
vt 0.428863 0.297850
vt 0.428982 0.297316
vt 0.428982 0.297316
vt 0.429176 0.313799
vt 0.429056 0.314263
vt 0.428863 0.297850
vt 0.428653 0.282517
vt 0.428771 0.281905
vt 0.428771 0.281905
vt 0.428982 0.297316
vt 0.428863 0.297850
vt 0.428653 0.282517
vt 0.428429 0.268330
vt 0.428546 0.267630
vt 0.428546 0.267630
vt 0.428771 0.281905
vt 0.428653 0.282517
vt 0.428429 0.268330
vt 0.428191 0.255356
vt 0.428306 0.254552
vt 0.428306 0.254552
vt 0.428546 0.267630
vt 0.428429 0.268330
vt 0.428191 0.255356
vt 0.427941 0.243660
vt 0.428052 0.242736
vt 0.428052 0.242736
vt 0.428306 0.254552
vt 0.428191 0.255356
vt 0.427941 0.243660
vt 0.427678 0.233308
vt 0.427786 0.232240
vt 0.427786 0.232240
vt 0.428052 0.242736
vt 0.427941 0.243660
vt 0.427678 0.233308
vt 0.427404 0.224368
vt 0.427506 0.223124
vt 0.427506 0.223124
vt 0.427786 0.232240
vt 0.427678 0.233308
vt 0.427404 0.224368
vt 0.427119 0.216905
vt 0.427214 0.215448
vt 0.427214 0.215448
vt 0.427506 0.223124
vt 0.427404 0.224368
vt 0.427119 0.216905
vt 0.426826 0.210984
vt 0.426908 0.209276
vt 0.426908 0.209276
vt 0.427214 0.215448
vt 0.427119 0.216905
vt 0.426826 0.210984
vt 0.426524 0.206674
vt 0.426587 0.204690
vt 0.426587 0.204690
vt 0.426908 0.209276
vt 0.426826 0.210984
vt 0.426524 0.206674
vt 0.426214 0.204039
vt 0.426249 0.201817
vt 0.426249 0.201817
vt 0.426587 0.204690
vt 0.426524 0.206674
vt 0.426214 0.204039
vt 0.425898 0.203146
vt 0.425898 0.200825
vt 0.425898 0.200825
vt 0.426249 0.201817
vt 0.426214 0.204039
vt 0.425898 0.203146
vt 0.425582 0.204039
vt 0.425547 0.201817
vt 0.425547 0.201817
vt 0.425898 0.200825
vt 0.425898 0.203146
vt 0.425582 0.204039
vt 0.425273 0.206674
vt 0.425210 0.204690
vt 0.425210 0.204690
vt 0.425547 0.201817
vt 0.425582 0.204039
vt 0.425273 0.206674
vt 0.424971 0.210984
vt 0.424888 0.209276
vt 0.424888 0.209276
vt 0.425210 0.204690
vt 0.425273 0.206674
vt 0.424971 0.210984
vt 0.424677 0.216905
vt 0.424582 0.215448
vt 0.424582 0.215448
vt 0.424888 0.209276
vt 0.424971 0.210984
vt 0.424677 0.216905
vt 0.424393 0.224368
vt 0.424290 0.223124
vt 0.424290 0.223124
vt 0.424582 0.215448
vt 0.424677 0.216905
vt 0.424393 0.224368
vt 0.424119 0.233308
vt 0.424011 0.232240
vt 0.424011 0.232240
vt 0.424290 0.223124
vt 0.424393 0.224368
vt 0.424119 0.233308
vt 0.423856 0.243660
vt 0.423744 0.242736
vt 0.423744 0.242736
vt 0.424011 0.232240
vt 0.424119 0.233308
vt 0.423856 0.243660
vt 0.423605 0.255356
vt 0.423491 0.254552
vt 0.423491 0.254552
vt 0.423744 0.242736
vt 0.423856 0.243660
vt 0.423605 0.255356
vt 0.423367 0.268330
vt 0.423251 0.267630
vt 0.423251 0.267630
vt 0.423491 0.254552
vt 0.423605 0.255356
vt 0.423367 0.268330
vt 0.423143 0.282517
vt 0.423025 0.281905
vt 0.423025 0.281905
vt 0.423251 0.267630
vt 0.423367 0.268330
vt 0.423143 0.282517
vt 0.422934 0.297850
vt 0.422815 0.297316
vt 0.422815 0.297316
vt 0.423025 0.281905
vt 0.423143 0.282517
vt 0.422934 0.297850
vt 0.422740 0.314263
vt 0.422620 0.313799
vt 0.422620 0.313799
vt 0.422815 0.297316
vt 0.422934 0.297850
vt 0.422740 0.314263
vt 0.422563 0.331689
vt 0.422442 0.331289
vt 0.422442 0.331289
vt 0.422620 0.313799
vt 0.422740 0.314263
vt 0.422563 0.331689
vt 0.422403 0.350063
vt 0.422282 0.349721
vt 0.422282 0.349721
vt 0.422442 0.331289
vt 0.422563 0.331689
vt 0.422403 0.350063
vt 0.422262 0.369318
vt 0.422141 0.369031
vt 0.422141 0.369031
vt 0.422282 0.349721
vt 0.422403 0.350063
vt 0.422262 0.369318
vt 0.422140 0.389388
vt 0.422018 0.389152
vt 0.422018 0.389152
vt 0.422141 0.369031
vt 0.422262 0.369318
vt 0.422140 0.389388
vt 0.422038 0.410207
vt 0.421916 0.410021
vt 0.421916 0.410021
vt 0.422018 0.389152
vt 0.422140 0.389388
vt 0.422038 0.410207
vt 0.421957 0.431708
vt 0.421835 0.431570
vt 0.421835 0.431570
vt 0.421916 0.410021
vt 0.422038 0.410207
vt 0.421957 0.431708
vt 0.421898 0.453826
vt 0.421776 0.453735
vt 0.421776 0.453735
vt 0.421835 0.431570
vt 0.421957 0.431708
vt 0.421898 0.453826
vt 0.421862 0.476494
vt 0.421740 0.476449
vt 0.421740 0.476449
vt 0.421776 0.453735
vt 0.421898 0.453826
vt 0.421862 0.476494
vt 0.421850 0.499647
vt 0.421728 0.499647
vt 0.421728 0.499647
vt 0.421740 0.476449
vt 0.421862 0.476494
vt 0.582493 0.162461
vt 0.582493 0.837539
vt 0.582382 0.835455
vt 0.582382 0.835455
vt 0.582382 0.164546
vt 0.582493 0.162461
vt 0.582493 0.837539
vt 0.569867 0.837539
vt 0.569978 0.835454
vt 0.569978 0.835454
vt 0.582382 0.835455
vt 0.582493 0.837539
vt 0.569867 0.837539
vt 0.569867 0.162461
vt 0.569978 0.164546
vt 0.569978 0.164546
vt 0.569978 0.835454
vt 0.569867 0.837539
vt 0.569867 0.162461
vt 0.582493 0.162461
vt 0.582382 0.164546
vt 0.582382 0.164546
vt 0.569978 0.164546
vt 0.569867 0.162461
vt 0.578690 0.522799
vt 0.578702 0.499647
vt 0.578824 0.499647
vt 0.578824 0.499647
vt 0.578812 0.522844
vt 0.578690 0.522799
vt 0.578702 0.499647
vt 0.578690 0.476494
vt 0.578812 0.476449
vt 0.578812 0.476449
vt 0.578824 0.499647
vt 0.578702 0.499647
vt 0.578690 0.476494
vt 0.578654 0.453826
vt 0.578776 0.453735
vt 0.578776 0.453735
vt 0.578812 0.476449
vt 0.578690 0.476494
vt 0.578654 0.453826
vt 0.578595 0.431708
vt 0.578717 0.431570
vt 0.578717 0.431570
vt 0.578776 0.453735
vt 0.578654 0.453826
vt 0.578595 0.431708
vt 0.578515 0.410207
vt 0.578636 0.410021
vt 0.578636 0.410021
vt 0.578717 0.431570
vt 0.578595 0.431708
vt 0.578515 0.410207
vt 0.578413 0.389388
vt 0.578534 0.389152
vt 0.578534 0.389152
vt 0.578636 0.410021
vt 0.578515 0.410207
vt 0.578413 0.389388
vt 0.578291 0.369318
vt 0.578412 0.369031
vt 0.578412 0.369031
vt 0.578534 0.389152
vt 0.578413 0.389388
vt 0.578291 0.369318
vt 0.578150 0.350063
vt 0.578271 0.349721
vt 0.578271 0.349721
vt 0.578412 0.369031
vt 0.578291 0.369318
vt 0.578150 0.350063
vt 0.577991 0.331689
vt 0.578111 0.331289
vt 0.578111 0.331289
vt 0.578271 0.349721
vt 0.578150 0.350063
vt 0.577991 0.331689
vt 0.577814 0.314263
vt 0.577934 0.313799
vt 0.577934 0.313799
vt 0.578111 0.331289
vt 0.577991 0.331689
vt 0.577814 0.314263
vt 0.577621 0.297850
vt 0.577739 0.297316
vt 0.577739 0.297316
vt 0.577934 0.313799
vt 0.577814 0.314263
vt 0.577621 0.297850
vt 0.577412 0.282517
vt 0.577529 0.281905
vt 0.577529 0.281905
vt 0.577739 0.297316
vt 0.577621 0.297850
vt 0.577412 0.282517
vt 0.577188 0.268330
vt 0.577304 0.267630
vt 0.577304 0.267630
vt 0.577529 0.281905
vt 0.577412 0.282517
vt 0.577188 0.268330
vt 0.576951 0.255356
vt 0.577065 0.254553
vt 0.577065 0.254553
vt 0.577304 0.267630
vt 0.577188 0.268330
vt 0.576951 0.255356
vt 0.576701 0.243660
vt 0.576812 0.242736
vt 0.576812 0.242736
vt 0.577065 0.254553
vt 0.576951 0.255356
vt 0.576701 0.243660
vt 0.576438 0.233308
vt 0.576546 0.232240
vt 0.576546 0.232240
vt 0.576812 0.242736
vt 0.576701 0.243660
vt 0.576438 0.233308
vt 0.576165 0.224368
vt 0.576268 0.223125
vt 0.576268 0.223125
vt 0.576546 0.232240
vt 0.576438 0.233308
vt 0.576165 0.224368
vt 0.575881 0.216905
vt 0.575976 0.215449
vt 0.575976 0.215449
vt 0.576268 0.223125
vt 0.576165 0.224368
vt 0.575881 0.216905
vt 0.575588 0.210984
vt 0.575670 0.209276
vt 0.575670 0.209276
vt 0.575976 0.215449
vt 0.575881 0.216905
vt 0.575588 0.210984
vt 0.575287 0.206674
vt 0.575350 0.204690
vt 0.575350 0.204690
vt 0.575670 0.209276
vt 0.575588 0.210984
vt 0.575287 0.206674
vt 0.574978 0.204039
vt 0.575013 0.201817
vt 0.575013 0.201817
vt 0.575350 0.204690
vt 0.575287 0.206674
vt 0.574978 0.204039
vt 0.574663 0.203146
vt 0.574663 0.200825
vt 0.574663 0.200825
vt 0.575013 0.201817
vt 0.574978 0.204039
vt 0.574663 0.203146
vt 0.574347 0.204039
vt 0.574313 0.201817
vt 0.574313 0.201817
vt 0.574663 0.200825
vt 0.574663 0.203146
vt 0.574347 0.204039
vt 0.574039 0.206674
vt 0.573976 0.204690
vt 0.573976 0.204690
vt 0.574313 0.201817
vt 0.574347 0.204039
vt 0.574039 0.206674
vt 0.573737 0.210984
vt 0.573655 0.209276
vt 0.573655 0.209276
vt 0.573976 0.204690
vt 0.574039 0.206674
vt 0.573737 0.210984
vt 0.573444 0.216905
vt 0.573350 0.215449
vt 0.573350 0.215449
vt 0.573655 0.209276
vt 0.573737 0.210984
vt 0.573444 0.216905
vt 0.573161 0.224368
vt 0.573058 0.223125
vt 0.573058 0.223125
vt 0.573350 0.215449
vt 0.573444 0.216905
vt 0.573161 0.224368
vt 0.572887 0.233308
vt 0.572779 0.232240
vt 0.572779 0.232240
vt 0.573058 0.223125
vt 0.573161 0.224368
vt 0.572887 0.233308
vt 0.572625 0.243660
vt 0.572513 0.242736
vt 0.572513 0.242736
vt 0.572779 0.232240
vt 0.572887 0.233308
vt 0.572625 0.243660
vt 0.572375 0.255356
vt 0.572260 0.254553
vt 0.572260 0.254553
vt 0.572513 0.242736
vt 0.572625 0.243660
vt 0.572375 0.255356
vt 0.572137 0.268330
vt 0.572021 0.267630
vt 0.572021 0.267630
vt 0.572260 0.254553
vt 0.572375 0.255356
vt 0.572137 0.268330
vt 0.571914 0.282517
vt 0.571796 0.281905
vt 0.571796 0.281905
vt 0.572021 0.267630
vt 0.572137 0.268330
vt 0.571914 0.282517
vt 0.571705 0.297850
vt 0.571586 0.297316
vt 0.571586 0.297316
vt 0.571796 0.281905
vt 0.571914 0.282517
vt 0.571705 0.297850
vt 0.571512 0.314263
vt 0.571392 0.313799
vt 0.571392 0.313799
vt 0.571586 0.297316
vt 0.571705 0.297850
vt 0.571512 0.314263
vt 0.571335 0.331689
vt 0.571215 0.331289
vt 0.571215 0.331289
vt 0.571392 0.313799
vt 0.571512 0.314263
vt 0.571335 0.331689
vt 0.571175 0.350063
vt 0.571055 0.349721
vt 0.571055 0.349721
vt 0.571215 0.331289
vt 0.571335 0.331689
vt 0.571175 0.350063
vt 0.571034 0.369318
vt 0.570913 0.369031
vt 0.570913 0.369031
vt 0.571055 0.349721
vt 0.571175 0.350063
vt 0.571034 0.369318
vt 0.570913 0.389388
vt 0.570791 0.389152
vt 0.570791 0.389152
vt 0.570913 0.369031
vt 0.571034 0.369318
vt 0.570913 0.389388
vt 0.570811 0.410207
vt 0.570689 0.410021
vt 0.570689 0.410021
vt 0.570791 0.389152
vt 0.570913 0.389388
vt 0.570811 0.410207
vt 0.570730 0.431708
vt 0.570609 0.431570
vt 0.570609 0.431570
vt 0.570689 0.410021
vt 0.570811 0.410207
vt 0.570730 0.431708
vt 0.570672 0.453826
vt 0.570550 0.453735
vt 0.570550 0.453735
vt 0.570609 0.431570
vt 0.570730 0.431708
vt 0.570672 0.453826
vt 0.570636 0.476494
vt 0.570514 0.476449
vt 0.570514 0.476449
vt 0.570550 0.453735
vt 0.570672 0.453826
vt 0.570636 0.476494
vt 0.570624 0.499647
vt 0.570502 0.499647
vt 0.570502 0.499647
vt 0.570514 0.476449
vt 0.570636 0.476494
vt 0.570624 0.499647
vt 0.570636 0.522799
vt 0.570514 0.522844
vt 0.570514 0.522844
vt 0.570502 0.499647
vt 0.570624 0.499647
vt 0.570636 0.522799
vt 0.570672 0.545467
vt 0.570550 0.545558
vt 0.570550 0.545558
vt 0.570514 0.522844
vt 0.570636 0.522799
vt 0.570672 0.545467
vt 0.570730 0.567585
vt 0.570609 0.567723
vt 0.570609 0.567723
vt 0.570550 0.545558
vt 0.570672 0.545467
vt 0.570730 0.567585
vt 0.570811 0.589086
vt 0.570689 0.589272
vt 0.570689 0.589272
vt 0.570609 0.567723
vt 0.570730 0.567585
vt 0.570811 0.589086
vt 0.570913 0.609905
vt 0.570791 0.610141
vt 0.570791 0.610141
vt 0.570689 0.589272
vt 0.570811 0.589086
vt 0.570913 0.609905
vt 0.571034 0.629975
vt 0.570913 0.630262
vt 0.570913 0.630262
vt 0.570791 0.610141
vt 0.570913 0.609905
vt 0.571034 0.629975
vt 0.571175 0.649230
vt 0.571055 0.649572
vt 0.571055 0.649572
vt 0.570913 0.630262
vt 0.571034 0.629975
vt 0.571175 0.649230
vt 0.571335 0.667604
vt 0.571215 0.668004
vt 0.571215 0.668004
vt 0.571055 0.649572
vt 0.571175 0.649230
vt 0.571335 0.667604
vt 0.571512 0.685030
vt 0.571392 0.685494
vt 0.571392 0.685494
vt 0.571215 0.668004
vt 0.571335 0.667604
vt 0.571512 0.685030
vt 0.571705 0.701443
vt 0.571586 0.701977
vt 0.571586 0.701977
vt 0.571392 0.685494
vt 0.571512 0.685030
vt 0.571705 0.701443
vt 0.571914 0.716776
vt 0.571796 0.717388
vt 0.571796 0.717388
vt 0.571586 0.701977
vt 0.571705 0.701443
vt 0.571914 0.716776
vt 0.572137 0.730963
vt 0.572021 0.731663
vt 0.572021 0.731663
vt 0.571796 0.717388
vt 0.571914 0.716776
vt 0.572137 0.730963
vt 0.572375 0.743937
vt 0.572260 0.744740
vt 0.572260 0.744740
vt 0.572021 0.731663
vt 0.572137 0.730963
vt 0.572375 0.743937
vt 0.572625 0.755633
vt 0.572513 0.756557
vt 0.572513 0.756557
vt 0.572260 0.744740
vt 0.572375 0.743937
vt 0.572625 0.755633
vt 0.572887 0.765985
vt 0.572779 0.767053
vt 0.572779 0.767053
vt 0.572513 0.756557
vt 0.572625 0.755633
vt 0.572887 0.765985
vt 0.573161 0.774925
vt 0.573058 0.776168
vt 0.573058 0.776168
vt 0.572779 0.767053
vt 0.572887 0.765985
vt 0.573161 0.774925
vt 0.573444 0.782388
vt 0.573350 0.783844
vt 0.573350 0.783844
vt 0.573058 0.776168
vt 0.573161 0.774925
vt 0.573444 0.782388
vt 0.573737 0.788308
vt 0.573655 0.790017
vt 0.573655 0.790017
vt 0.573350 0.783844
vt 0.573444 0.782388
vt 0.573737 0.788308
vt 0.574039 0.792619
vt 0.573976 0.794603
vt 0.573976 0.794603
vt 0.573655 0.790017
vt 0.573737 0.788308
vt 0.574039 0.792619
vt 0.574347 0.795254
vt 0.574312 0.797476
vt 0.574312 0.797476
vt 0.573976 0.794603
vt 0.574039 0.792619
vt 0.574347 0.795254
vt 0.574663 0.796147
vt 0.574663 0.798468
vt 0.574663 0.798468
vt 0.574312 0.797476
vt 0.574347 0.795254
vt 0.574663 0.796147
vt 0.574978 0.795254
vt 0.575013 0.797476
vt 0.575013 0.797476
vt 0.574663 0.798468
vt 0.574663 0.796147
vt 0.574978 0.795254
vt 0.575287 0.792619
vt 0.575350 0.794603
vt 0.575350 0.794603
vt 0.575013 0.797476
vt 0.574978 0.795254
vt 0.575287 0.792619
vt 0.575588 0.788309
vt 0.575670 0.790017
vt 0.575670 0.790017
vt 0.575350 0.794603
vt 0.575287 0.792619
vt 0.575588 0.788309
vt 0.575881 0.782388
vt 0.575976 0.783844
vt 0.575976 0.783844
vt 0.575670 0.790017
vt 0.575588 0.788309
vt 0.575881 0.782388
vt 0.576165 0.774925
vt 0.576268 0.776168
vt 0.576268 0.776168
vt 0.575976 0.783844
vt 0.575881 0.782388
vt 0.576165 0.774925
vt 0.576438 0.765985
vt 0.576546 0.767053
vt 0.576546 0.767053
vt 0.576268 0.776168
vt 0.576165 0.774925
vt 0.576438 0.765985
vt 0.576701 0.755633
vt 0.576812 0.756557
vt 0.576812 0.756557
vt 0.576546 0.767053
vt 0.576438 0.765985
vt 0.576701 0.755633
vt 0.576951 0.743937
vt 0.577065 0.744740
vt 0.577065 0.744740
vt 0.576812 0.756557
vt 0.576701 0.755633
vt 0.576951 0.743937
vt 0.577188 0.730963
vt 0.577304 0.731663
vt 0.577304 0.731663
vt 0.577065 0.744740
vt 0.576951 0.743937
vt 0.577188 0.730963
vt 0.577412 0.716776
vt 0.577529 0.717388
vt 0.577529 0.717388
vt 0.577304 0.731663
vt 0.577188 0.730963
vt 0.577412 0.716776
vt 0.577621 0.701443
vt 0.577739 0.701977
vt 0.577739 0.701977
vt 0.577529 0.717388
vt 0.577412 0.716776
vt 0.577621 0.701443
vt 0.577814 0.685030
vt 0.577933 0.685494
vt 0.577933 0.685494
vt 0.577739 0.701977
vt 0.577621 0.701443
vt 0.577814 0.685030
vt 0.577991 0.667604
vt 0.578111 0.668004
vt 0.578111 0.668004
vt 0.577933 0.685494
vt 0.577814 0.685030
vt 0.577991 0.667604
vt 0.578150 0.649230
vt 0.578271 0.649572
vt 0.578271 0.649572
vt 0.578111 0.668004
vt 0.577991 0.667604
vt 0.578150 0.649230
vt 0.578291 0.629975
vt 0.578412 0.630262
vt 0.578412 0.630262
vt 0.578271 0.649572
vt 0.578150 0.649230
vt 0.578291 0.629975
vt 0.578413 0.609905
vt 0.578534 0.610141
vt 0.578534 0.610141
vt 0.578412 0.630262
vt 0.578291 0.629975
vt 0.578413 0.609905
vt 0.578515 0.589086
vt 0.578636 0.589272
vt 0.578636 0.589272
vt 0.578534 0.610141
vt 0.578413 0.609905
vt 0.578515 0.589086
vt 0.578595 0.567585
vt 0.578717 0.567723
vt 0.578717 0.567723
vt 0.578636 0.589272
vt 0.578515 0.589086
vt 0.578595 0.567585
vt 0.578654 0.545467
vt 0.578776 0.545558
vt 0.578776 0.545558
vt 0.578717 0.567723
vt 0.578595 0.567585
vt 0.578654 0.545467
vt 0.578690 0.522799
vt 0.578812 0.522844
vt 0.578812 0.522844
vt 0.578776 0.545558
vt 0.578654 0.545467
vt 0.418050 0.837539
vt 0.417993 0.837750
vt 0.417979 0.837452
vt 0.417979 0.162548
vt 0.417993 0.162250
vt 0.418050 0.162461
vt 0.569363 0.162250
vt 0.569345 0.162548
vt 0.569295 0.162461
vt 0.569295 0.837539
vt 0.569345 0.837452
vt 0.569363 0.837750
vt 0.417574 0.837750
vt 0.417507 0.837539
vt 0.417556 0.837452
vt 0.417556 0.162548
vt 0.417507 0.162461
vt 0.417574 0.162250
vt 0.569810 0.162250
vt 0.569867 0.162461
vt 0.569795 0.162548
vt 0.569795 0.837452
vt 0.569867 0.837539
vt 0.569810 0.837750
vt 0.418050 0.837539
vt 0.417979 0.837452
vt 0.417979 0.162548
vt 0.417979 0.162548
vt 0.418050 0.162461
vt 0.418050 0.837539
vt 0.430705 0.608029
vt 0.430637 0.607890
vt 0.417993 0.283273
vt 0.417993 0.283273
vt 0.418050 0.283135
vt 0.430705 0.608029
vt 0.581950 0.283135
vt 0.582007 0.283273
vt 0.569363 0.607890
vt 0.569363 0.607890
vt 0.569295 0.608029
vt 0.581950 0.283135
vt 0.569295 0.162461
vt 0.569345 0.162548
vt 0.569345 0.837452
vt 0.569345 0.837452
vt 0.569295 0.837539
vt 0.569295 0.162461
vt 0.417507 0.162461
vt 0.417556 0.162548
vt 0.417556 0.837452
vt 0.417556 0.837452
vt 0.417507 0.837539
vt 0.417507 0.162461
vt 0.417507 0.283201
vt 0.417574 0.283325
vt 0.430190 0.607861
vt 0.430190 0.607861
vt 0.430133 0.607991
vt 0.417507 0.283201
vt 0.569867 0.607991
vt 0.569810 0.607861
vt 0.582426 0.283325
vt 0.582426 0.283325
vt 0.582493 0.283201
vt 0.569867 0.607991
vt 0.569867 0.837539
vt 0.569795 0.837452
vt 0.569795 0.162548
vt 0.569795 0.162548
vt 0.569867 0.162461
vt 0.569867 0.837539
vt 0.417979 0.837452
vt 0.417993 0.837750
vt 0.417574 0.837750
vt 0.417574 0.837750
vt 0.417556 0.837452
vt 0.417979 0.837452
vt 0.417556 0.162548
vt 0.417574 0.162250
vt 0.417993 0.162250
vt 0.417993 0.162250
vt 0.417979 0.162548
vt 0.417556 0.162548
vt 0.569363 0.837750
vt 0.569345 0.837452
vt 0.569795 0.837452
vt 0.569795 0.837452
vt 0.569810 0.837750
vt 0.569363 0.837750
vt 0.569810 0.162250
vt 0.569795 0.162548
vt 0.569345 0.162548
vt 0.569345 0.162548
vt 0.569363 0.162250
vt 0.569810 0.162250
f 1/1 2/2 3/3
f 4/4 1/5 3/6
f 5/7 4/8 3/9
f 6/10 5/11 3/12
f 7/13 6/14 3/15
f 8/16 7/17 3/18
f 9/19 8/20 3/21
f 10/22 9/23 3/24
f 11/25 10/26 3/27
f 12/28 11/29 3/30
f 13/31 12/32 3/33
f 14/34 13/35 3/36
f 15/37 14/38 3/39
f 16/40 15/41 3/42
f 17/43 16/44 3/45
f 18/46 17/47 3/48
f 19/49 18/50 3/51
f 20/52 19/53 3/54
f 21/55 20/56 3/57
f 22/58 21/59 3/60
f 22/61 3/62 23/63
f 24/64 22/65 23/66
f 25/67 24/68 23/69
f 26/70 25/71 23/72
f 27/73 26/74 23/75
f 28/76 27/77 23/78
f 29/79 28/80 23/81
f 30/82 29/83 23/84
f 31/85 30/86 23/87
f 32/88 31/89 23/90
f 33/91 32/92 23/93
f 34/94 33/95 23/96
f 35/97 34/98 23/99
f 36/100 35/101 23/102
f 37/103 36/104 23/105
f 38/106 37/107 23/108
f 39/109 38/110 23/111
f 40/112 39/113 23/114
f 41/115 40/116 23/117
f 42/118 41/119 23/120
f 43/121 42/122 23/123
f 43/124 23/125 44/126
f 3/127 2/128 45/129
f 3/130 45/131 46/132
f 3/133 46/134 47/135
f 3/136 47/137 48/138
f 49/139 3/140 48/141
f 49/142 48/143 50/144
f 49/145 50/146 51/147
f 49/148 51/149 52/150
f 49/151 52/152 53/153
f 49/154 53/155 54/156
f 49/157 54/158 55/159
f 49/160 55/161 56/162
f 49/163 56/164 57/165
f 49/166 57/167 58/168
f 49/169 58/170 59/171
f 49/172 59/173 60/174
f 49/175 60/176 61/177
f 49/178 61/179 62/180
f 49/181 62/182 63/183
f 49/184 63/185 64/186
f 49/187 64/188 65/189
f 49/190 65/191 66/192
f 49/193 66/194 67/195
f 49/196 67/197 68/198
f 49/199 68/200 69/201
f 44/202 49/203 69/204
f 44/205 69/206 70/207
f 44/208 70/209 71/210
f 44/211 71/212 72/213
f 44/214 72/215 73/216
f 44/217 73/218 74/219
f 44/220 74/221 75/222
f 44/223 75/224 76/225
f 44/226 76/227 77/228
f 44/229 77/230 78/231
f 44/232 78/233 79/234
f 44/235 79/236 80/237
f 44/238 80/239 81/240
f 44/241 81/242 82/243
f 44/244 82/245 83/246
f 44/247 83/248 84/249
f 44/250 84/251 85/252
f 44/253 85/254 86/255
f 44/256 86/257 87/258
f 44/259 87/260 88/261
f 43/262 44/263 88/264
f 89/265 90/266 91/267
f 89/268 91/269 92/270
f 89/271 92/272 93/273
f 89/274 93/275 94/276
f 89/277 94/278 95/279
f 89/280 95/281 96/282
f 89/283 96/284 97/285
f 89/286 97/287 98/288
f 89/289 98/290 99/291
f 89/292 99/293 100/294
f 89/295 100/296 101/297
f 89/298 101/299 102/300
f 89/301 102/302 103/303
f 89/304 103/305 104/306
f 89/307 104/308 105/309
f 89/310 105/311 106/312
f 89/313 106/314 107/315
f 89/316 107/317 108/318
f 89/319 108/320 109/321
f 89/322 109/323 110/324
f 111/325 89/326 110/327
f 111/328 110/329 112/330
f 111/331 112/332 113/333
f 111/334 113/335 114/336
f 111/337 114/338 115/339
f 111/340 115/341 116/342
f 111/343 116/344 117/345
f 111/346 117/347 118/348
f 111/349 118/350 119/351
f 111/352 119/353 120/354
f 111/355 120/356 121/357
f 111/358 121/359 122/360
f 111/361 122/362 123/363
f 111/364 123/365 124/366
f 111/367 124/368 125/369
f 111/370 125/371 126/372
f 111/373 126/374 127/375
f 111/376 127/377 128/378
f 111/379 128/380 129/381
f 111/382 129/383 130/384
f 111/385 130/386 131/387
f 132/388 111/389 131/390
f 132/391 131/392 133/393
f 132/394 133/395 134/396
f 132/397 134/398 135/399
f 132/400 135/401 136/402
f 132/403 136/404 137/405
f 132/406 137/407 138/408
f 132/409 138/410 139/411
f 132/412 139/413 140/414
f 132/415 140/416 141/417
f 132/418 141/419 142/420
f 132/421 142/422 143/423
f 132/424 143/425 144/426
f 132/427 144/428 145/429
f 132/430 145/431 146/432
f 132/433 146/434 147/435
f 132/436 147/437 148/438
f 132/439 148/440 149/441
f 132/442 149/443 150/444
f 132/445 150/446 151/447
f 132/448 151/449 152/450
f 153/451 90/452 89/453
f 154/454 153/455 89/456
f 155/457 154/458 89/459
f 156/460 155/461 89/462
f 156/463 89/464 157/465
f 158/466 156/467 157/468
f 159/469 158/470 157/471
f 160/472 159/473 157/474
f 161/475 160/476 157/477
f 162/478 161/479 157/480
f 163/481 162/482 157/483
f 164/484 163/485 157/486
f 165/487 164/488 157/489
f 166/490 165/491 157/492
f 167/493 166/494 157/495
f 168/496 167/497 157/498
f 169/499 168/500 157/501
f 170/502 169/503 157/504
f 171/505 170/506 157/507
f 172/508 171/509 157/510
f 173/511 172/512 157/513
f 174/514 173/515 157/516
f 175/517 174/518 157/519
f 176/520 175/521 157/522
f 152/523 176/524 157/525
f 132/526 152/527 157/528
f 177/529 178/530 179/531
f 179/532 180/533 177/534
f 181/535 182/536 183/537
f 183/538 184/539 181/540
f 185/541 181/542 184/543
f 184/544 186/545 185/546
f 182/547 187/548 188/549
f 188/550 183/551 182/552
f 189/553 185/554 186/555
f 186/556 190/557 189/558
f 187/559 191/560 192/561
f 192/562 188/563 187/564
f 193/565 189/566 190/567
f 190/568 194/569 193/570
f 191/571 195/572 196/573
f 196/574 192/575 191/576
f 197/577 193/578 194/579
f 194/580 198/581 197/582
f 195/583 199/584 200/585
f 200/586 196/587 195/588
f 201/589 197/590 198/591
f 198/592 202/593 201/594
f 199/595 203/596 204/597
f 204/598 200/599 199/600
f 205/601 201/602 202/603
f 202/604 206/605 205/606
f 203/607 207/608 208/609
f 208/610 204/611 203/612
f 209/613 205/614 206/615
f 206/616 210/617 209/618
f 207/619 211/620 212/621
f 212/622 208/623 207/624
f 213/625 209/626 210/627
f 210/628 214/629 213/630
f 211/631 215/632 216/633
f 216/634 212/635 211/636
f 217/637 213/638 214/639
f 214/640 218/641 217/642
f 215/643 219/644 220/645
f 220/646 216/647 215/648
f 221/649 217/650 218/651
f 218/652 222/653 221/654
f 219/655 223/656 224/657
f 224/658 220/659 219/660
f 225/661 221/662 222/663
f 222/664 226/665 225/666
f 223/667 227/668 228/669
f 228/670 224/671 223/672
f 229/673 225/674 226/675
f 226/676 230/677 229/678
f 227/679 231/680 232/681
f 232/682 228/683 227/684
f 233/685 229/686 230/687
f 230/688 234/689 233/690
f 231/691 235/692 236/693
f 236/694 232/695 231/696
f 237/697 233/698 234/699
f 234/700 238/701 237/702
f 235/703 239/704 240/705
f 240/706 236/707 235/708
f 241/709 237/710 238/711
f 238/712 242/713 241/714
f 239/715 243/716 244/717
f 244/718 240/719 239/720
f 245/721 241/722 242/723
f 242/724 246/725 245/726
f 243/727 247/728 248/729
f 248/730 244/731 243/732
f 249/733 245/734 246/735
f 246/736 250/737 249/738
f 247/739 251/740 252/741
f 252/742 248/743 247/744
f 253/745 249/746 250/747
f 250/748 254/749 253/750
f 251/751 255/752 256/753
f 256/754 252/755 251/756
f 257/757 253/758 254/759
f 254/760 258/761 257/762
f 255/763 259/764 260/765
f 260/766 256/767 255/768
f 261/769 262/770 263/771
f 263/772 264/773 261/774
f 259/775 265/776 266/777
f 266/778 260/779 259/780
f 265/781 267/782 268/783
f 268/784 266/785 265/786
f 267/787 269/788 270/789
f 270/790 268/791 267/792
f 269/793 271/794 272/795
f 272/796 270/797 269/798
f 271/799 273/800 274/801
f 274/802 272/803 271/804
f 273/805 275/806 276/807
f 276/808 274/809 273/810
f 275/811 277/812 278/813
f 278/814 276/815 275/816
f 277/817 279/818 280/819
f 280/820 278/821 277/822
f 279/823 281/824 282/825
f 282/826 280/827 279/828
f 281/829 283/830 284/831
f 284/832 282/833 281/834
f 285/835 257/836 258/837
f 258/838 286/839 285/840
f 287/841 288/842 289/843
f 289/844 290/845 287/846
f 291/847 285/848 286/849
f 286/850 292/851 291/852
f 293/853 291/854 292/855
f 292/856 294/857 293/858
f 295/859 293/860 294/861
f 294/862 296/863 295/864
f 297/865 295/866 296/867
f 296/868 298/869 297/870
f 299/871 297/872 298/873
f 298/874 300/875 299/876
f 301/877 299/878 300/879
f 300/880 302/881 301/882
f 303/883 301/884 302/885
f 302/886 304/887 303/888
f 305/889 303/890 304/891
f 304/892 306/893 305/894
f 307/895 305/896 306/897
f 306/898 308/899 307/900
f 309/901 307/902 308/903
f 308/904 310/905 309/906
f 311/907 309/908 310/909
f 310/910 312/911 311/912
f 283/913 313/914 314/915
f 314/916 284/917 283/918
f 315/919 311/920 312/921
f 312/922 316/923 315/924
f 313/925 317/926 318/927
f 318/928 314/929 313/930
f 319/931 315/932 316/933
f 316/934 320/935 319/936
f 317/937 321/938 322/939
f 322/940 318/941 317/942
f 323/943 319/944 320/945
f 320/946 324/947 323/948
f 321/949 325/950 326/951
f 326/952 322/953 321/954
f 327/955 323/956 324/957
f 324/958 328/959 327/960
f 325/961 329/962 330/963
f 330/964 326/965 325/966
f 331/967 327/968 328/969
f 328/970 332/971 331/972
f 329/973 333/974 334/975
f 334/976 330/977 329/978
f 335/979 331/980 332/981
f 332/982 336/983 335/984
f 333/985 337/986 338/987
f 338/988 334/989 333/990
f 339/991 335/992 336/993
f 336/994 340/995 339/996
f 337/997 341/998 342/999
f 342/1000 338/1001 337/1002
f 343/1003 339/1004 340/1005
f 340/1006 344/1007 343/1008
f 341/1009 345/1010 346/1011
f 346/1012 342/1013 341/1014
f 347/1015 343/1016 344/1017
f 344/1018 348/1019 347/1020
f 349/1021 350/1022 351/1023
f 351/1024 352/1025 349/1026
f 353/1027 347/1028 348/1029
f 348/1030 354/1031 353/1032
f 355/1033 353/1034 354/1035
f 354/1036 356/1037 355/1038
f 357/1039 355/1040 356/1041
f 356/1042 358/1043 357/1044
f 359/1045 357/1046 358/1047
f 358/1048 360/1049 359/1050
f 345/1051 359/1052 360/1053
f 360/1054 346/1055 345/1056
f 361/1057 362/1058 44/1059
f 44/1060 23/1061 361/1062
f 362/1063 363/1064 49/1065
f 49/1066 44/1067 362/1068
f 363/1069 364/1070 3/1071
f 3/1072 49/1073 363/1074
f 364/1075 361/1076 23/1077
f 23/1078 3/1079 364/1080
f 184/1081 183/1082 42/1083
f 42/1084 43/1085 184/1086
f 183/1087 188/1088 41/1089
f 41/1090 42/1091 183/1092
f 188/1093 192/1094 40/1095
f 40/1096 41/1097 188/1098
f 192/1099 196/1100 39/1101
f 39/1102 40/1103 192/1104
f 196/1105 200/1106 38/1107
f 38/1108 39/1109 196/1110
f 200/1111 204/1112 37/1113
f 37/1114 38/1115 200/1116
f 204/1117 208/1118 36/1119
f 36/1120 37/1121 204/1122
f 208/1123 212/1124 35/1125
f 35/1126 36/1127 208/1128
f 212/1129 216/1130 34/1131
f 34/1132 35/1133 212/1134
f 216/1135 220/1136 33/1137
f 33/1138 34/1139 216/1140
f 220/1141 224/1142 32/1143
f 32/1144 33/1145 220/1146
f 224/1147 228/1148 31/1149
f 31/1150 32/1151 224/1152
f 228/1153 232/1154 30/1155
f 30/1156 31/1157 228/1158
f 232/1159 236/1160 29/1161
f 29/1162 30/1163 232/1164
f 236/1165 240/1166 28/1167
f 28/1168 29/1169 236/1170
f 240/1171 244/1172 27/1173
f 27/1174 28/1175 240/1176
f 244/1177 248/1178 26/1179
f 26/1180 27/1181 244/1182
f 248/1183 252/1184 25/1185
f 25/1186 26/1187 248/1188
f 252/1189 256/1190 24/1191
f 24/1192 25/1193 252/1194
f 256/1195 260/1196 22/1197
f 22/1198 24/1199 256/1200
f 260/1201 266/1202 21/1203
f 21/1204 22/1205 260/1206
f 266/1207 268/1208 20/1209
f 20/1210 21/1211 266/1212
f 268/1213 270/1214 19/1215
f 19/1216 20/1217 268/1218
f 270/1219 272/1220 18/1221
f 18/1222 19/1223 270/1224
f 272/1225 274/1226 17/1227
f 17/1228 18/1229 272/1230
f 274/1231 276/1232 16/1233
f 16/1234 17/1235 274/1236
f 276/1237 278/1238 15/1239
f 15/1240 16/1241 276/1242
f 278/1243 280/1244 14/1245
f 14/1246 15/1247 278/1248
f 280/1249 282/1250 13/1251
f 13/1252 14/1253 280/1254
f 282/1255 284/1256 12/1257
f 12/1258 13/1259 282/1260
f 284/1261 314/1262 11/1263
f 11/1264 12/1265 284/1266
f 314/1267 318/1268 10/1269
f 10/1270 11/1271 314/1272
f 318/1273 322/1274 9/1275
f 9/1276 10/1277 318/1278
f 322/1279 326/1280 8/1281
f 8/1282 9/1283 322/1284
f 326/1285 330/1286 7/1287
f 7/1288 8/1289 326/1290
f 330/1291 334/1292 6/1293
f 6/1294 7/1295 330/1296
f 334/1297 338/1298 5/1299
f 5/1300 6/1301 334/1302
f 338/1303 342/1304 4/1305
f 4/1306 5/1307 338/1308
f 342/1309 346/1310 1/1311
f 1/1312 4/1313 342/1314
f 346/1315 360/1316 2/1317
f 2/1318 1/1319 346/1320
f 360/1321 358/1322 45/1323
f 45/1324 2/1325 360/1326
f 358/1327 356/1328 46/1329
f 46/1330 45/1331 358/1332
f 356/1333 354/1334 47/1335
f 47/1336 46/1337 356/1338
f 354/1339 348/1340 48/1341
f 48/1342 47/1343 354/1344
f 348/1345 344/1346 50/1347
f 50/1348 48/1349 348/1350
f 344/1351 340/1352 51/1353
f 51/1354 50/1355 344/1356
f 340/1357 336/1358 52/1359
f 52/1360 51/1361 340/1362
f 336/1363 332/1364 53/1365
f 53/1366 52/1367 336/1368
f 332/1369 328/1370 54/1371
f 54/1372 53/1373 332/1374
f 328/1375 324/1376 55/1377
f 55/1378 54/1379 328/1380
f 324/1381 320/1382 56/1383
f 56/1384 55/1385 324/1386
f 320/1387 316/1388 57/1389
f 57/1390 56/1391 320/1392
f 316/1393 312/1394 58/1395
f 58/1396 57/1397 316/1398
f 312/1399 310/1400 59/1401
f 59/1402 58/1403 312/1404
f 310/1405 308/1406 60/1407
f 60/1408 59/1409 310/1410
f 308/1411 306/1412 61/1413
f 61/1414 60/1415 308/1416
f 306/1417 304/1418 62/1419
f 62/1420 61/1421 306/1422
f 304/1423 302/1424 63/1425
f 63/1426 62/1427 304/1428
f 302/1429 300/1430 64/1431
f 64/1432 63/1433 302/1434
f 300/1435 298/1436 65/1437
f 65/1438 64/1439 300/1440
f 298/1441 296/1442 66/1443
f 66/1444 65/1445 298/1446
f 296/1447 294/1448 67/1449
f 67/1450 66/1451 296/1452
f 294/1453 292/1454 68/1455
f 68/1456 67/1457 294/1458
f 292/1459 286/1460 69/1461
f 69/1462 68/1463 292/1464
f 286/1465 258/1466 70/1467
f 70/1468 69/1469 286/1470
f 258/1471 254/1472 71/1473
f 71/1474 70/1475 258/1476
f 254/1477 250/1478 72/1479
f 72/1480 71/1481 254/1482
f 250/1483 246/1484 73/1485
f 73/1486 72/1487 250/1488
f 246/1489 242/1490 74/1491
f 74/1492 73/1493 246/1494
f 242/1495 238/1496 75/1497
f 75/1498 74/1499 242/1500
f 238/1501 234/1502 76/1503
f 76/1504 75/1505 238/1506
f 234/1507 230/1508 77/1509
f 77/1510 76/1511 234/1512
f 230/1513 226/1514 78/1515
f 78/1516 77/1517 230/1518
f 226/1519 222/1520 79/1521
f 79/1522 78/1523 226/1524
f 222/1525 218/1526 80/1527
f 80/1528 79/1529 222/1530
f 218/1531 214/1532 81/1533
f 81/1534 80/1535 218/1536
f 214/1537 210/1538 82/1539
f 82/1540 81/1541 214/1542
f 210/1543 206/1544 83/1545
f 83/1546 82/1547 210/1548
f 206/1549 202/1550 84/1551
f 84/1552 83/1553 206/1554
f 202/1555 198/1556 85/1557
f 85/1558 84/1559 202/1560
f 198/1561 194/1562 86/1563
f 86/1564 85/1565 198/1566
f 194/1567 190/1568 87/1569
f 87/1570 86/1571 194/1572
f 190/1573 186/1574 88/1575
f 88/1576 87/1577 190/1578
f 186/1579 184/1580 43/1581
f 43/1582 88/1583 186/1584
f 365/1585 366/1586 111/1587
f 111/1588 132/1589 365/1590
f 366/1591 367/1592 89/1593
f 89/1594 111/1595 366/1596
f 367/1597 368/1598 157/1599
f 157/1600 89/1601 367/1602
f 368/1603 365/1604 132/1605
f 132/1606 157/1607 368/1608
f 182/1609 181/1610 131/1611
f 131/1612 130/1613 182/1614
f 181/1615 185/1616 133/1617
f 133/1618 131/1619 181/1620
f 185/1621 189/1622 134/1623
f 134/1624 133/1625 185/1626
f 189/1627 193/1628 135/1629
f 135/1630 134/1631 189/1632
f 193/1633 197/1634 136/1635
f 136/1636 135/1637 193/1638
f 197/1639 201/1640 137/1641
f 137/1642 136/1643 197/1644
f 201/1645 205/1646 138/1647
f 138/1648 137/1649 201/1650
f 205/1651 209/1652 139/1653
f 139/1654 138/1655 205/1656
f 209/1657 213/1658 140/1659
f 140/1660 139/1661 209/1662
f 213/1663 217/1664 141/1665
f 141/1666 140/1667 213/1668
f 217/1669 221/1670 142/1671
f 142/1672 141/1673 217/1674
f 221/1675 225/1676 143/1677
f 143/1678 142/1679 221/1680
f 225/1681 229/1682 144/1683
f 144/1684 143/1685 225/1686
f 229/1687 233/1688 145/1689
f 145/1690 144/1691 229/1692
f 233/1693 237/1694 146/1695
f 146/1696 145/1697 233/1698
f 237/1699 241/1700 147/1701
f 147/1702 146/1703 237/1704
f 241/1705 245/1706 148/1707
f 148/1708 147/1709 241/1710
f 245/1711 249/1712 149/1713
f 149/1714 148/1715 245/1716
f 249/1717 253/1718 150/1719
f 150/1720 149/1721 249/1722
f 253/1723 257/1724 151/1725
f 151/1726 150/1727 253/1728
f 257/1729 285/1730 152/1731
f 152/1732 151/1733 257/1734
f 285/1735 291/1736 176/1737
f 176/1738 152/1739 285/1740
f 291/1741 293/1742 175/1743
f 175/1744 176/1745 291/1746
f 293/1747 295/1748 174/1749
f 174/1750 175/1751 293/1752
f 295/1753 297/1754 173/1755
f 173/1756 174/1757 295/1758
f 297/1759 299/1760 172/1761
f 172/1762 173/1763 297/1764
f 299/1765 301/1766 171/1767
f 171/1768 172/1769 299/1770
f 301/1771 303/1772 170/1773
f 170/1774 171/1775 301/1776
f 303/1777 305/1778 169/1779
f 169/1780 170/1781 303/1782
f 305/1783 307/1784 168/1785
f 168/1786 169/1787 305/1788
f 307/1789 309/1790 167/1791
f 167/1792 168/1793 307/1794
f 309/1795 311/1796 166/1797
f 166/1798 167/1799 309/1800
f 311/1801 315/1802 165/1803
f 165/1804 166/1805 311/1806
f 315/1807 319/1808 164/1809
f 164/1810 165/1811 315/1812
f 319/1813 323/1814 163/1815
f 163/1816 164/1817 319/1818
f 323/1819 327/1820 162/1821
f 162/1822 163/1823 323/1824
f 327/1825 331/1826 161/1827
f 161/1828 162/1829 327/1830
f 331/1831 335/1832 160/1833
f 160/1834 161/1835 331/1836
f 335/1837 339/1838 159/1839
f 159/1840 160/1841 335/1842
f 339/1843 343/1844 158/1845
f 158/1846 159/1847 339/1848
f 343/1849 347/1850 156/1851
f 156/1852 158/1853 343/1854
f 347/1855 353/1856 155/1857
f 155/1858 156/1859 347/1860
f 353/1861 355/1862 154/1863
f 154/1864 155/1865 353/1866
f 355/1867 357/1868 153/1869
f 153/1870 154/1871 355/1872
f 357/1873 359/1874 90/1875
f 90/1876 153/1877 357/1878
f 359/1879 345/1880 91/1881
f 91/1882 90/1883 359/1884
f 345/1885 341/1886 92/1887
f 92/1888 91/1889 345/1890
f 341/1891 337/1892 93/1893
f 93/1894 92/1895 341/1896
f 337/1897 333/1898 94/1899
f 94/1900 93/1901 337/1902
f 333/1903 329/1904 95/1905
f 95/1906 94/1907 333/1908
f 329/1909 325/1910 96/1911
f 96/1912 95/1913 329/1914
f 325/1915 321/1916 97/1917
f 97/1918 96/1919 325/1920
f 321/1921 317/1922 98/1923
f 98/1924 97/1925 321/1926
f 317/1927 313/1928 99/1929
f 99/1930 98/1931 317/1932
f 313/1933 283/1934 100/1935
f 100/1936 99/1937 313/1938
f 283/1939 281/1940 101/1941
f 101/1942 100/1943 283/1944
f 281/1945 279/1946 102/1947
f 102/1948 101/1949 281/1950
f 279/1951 277/1952 103/1953
f 103/1954 102/1955 279/1956
f 277/1957 275/1958 104/1959
f 104/1960 103/1961 277/1962
f 275/1963 273/1964 105/1965
f 105/1966 104/1967 275/1968
f 273/1969 271/1970 106/1971
f 106/1972 105/1973 273/1974
f 271/1975 269/1976 107/1977
f 107/1978 106/1979 271/1980
f 269/1981 267/1982 108/1983
f 108/1984 107/1985 269/1986
f 267/1987 265/1988 109/1989
f 109/1990 108/1991 267/1992
f 265/1993 259/1994 110/1995
f 110/1996 109/1997 265/1998
f 259/1999 255/2000 112/2001
f 112/2002 110/2003 259/2004
f 255/2005 251/2006 113/2007
f 113/2008 112/2009 255/2010
f 251/2011 247/2012 114/2013
f 114/2014 113/2015 251/2016
f 247/2017 243/2018 115/2019
f 115/2020 114/2021 247/2022
f 243/2023 239/2024 116/2025
f 116/2026 115/2027 243/2028
f 239/2029 235/2030 117/2031
f 117/2032 116/2033 239/2034
f 235/2035 231/2036 118/2037
f 118/2038 117/2039 235/2040
f 231/2041 227/2042 119/2043
f 119/2044 118/2045 231/2046
f 227/2047 223/2048 120/2049
f 120/2050 119/2051 227/2052
f 223/2053 219/2054 121/2055
f 121/2056 120/2057 223/2058
f 219/2059 215/2060 122/2061
f 122/2062 121/2063 219/2064
f 215/2065 211/2066 123/2067
f 123/2068 122/2069 215/2070
f 211/2071 207/2072 124/2073
f 124/2074 123/2075 211/2076
f 207/2077 203/2078 125/2079
f 125/2080 124/2081 207/2082
f 203/2083 199/2084 126/2085
f 126/2086 125/2087 203/2088
f 199/2089 195/2090 127/2091
f 127/2092 126/2093 199/2094
f 195/2095 191/2096 128/2097
f 128/2098 127/2099 195/2100
f 191/2101 187/2102 129/2103
f 129/2104 128/2105 191/2106
f 187/2107 182/2108 130/2109
f 130/2110 129/2111 187/2112
f 361/2113 263/2114 180/2115
f 179/2116 290/2117 362/2118
f 289/2119 352/2120 363/2121
f 364/2122 351/2123 264/2124
f 262/2125 366/2126 177/2127
f 178/2128 365/2129 287/2130
f 288/2131 368/2132 349/2133
f 350/2134 367/2135 261/2136
f 361/2137 180/2138 179/2139
f 179/2140 362/2141 361/2142
f 364/2143 264/2144 263/2145
f 263/2146 361/2147 364/2148
f 362/2149 290/2150 289/2151
f 289/2152 363/2153 362/2154
f 363/2155 352/2156 351/2157
f 351/2158 364/2159 363/2160
f 365/2161 178/2162 177/2163
f 177/2164 366/2165 365/2166
f 366/2167 262/2168 261/2169
f 261/2170 367/2171 366/2172
f 368/2173 288/2174 287/2175
f 287/2176 365/2177 368/2178
f 367/2179 350/2180 349/2181
f 349/2182 368/2183 367/2184
f 180/2185 263/2186 262/2187
f 262/2188 177/2189 180/2190
f 178/2191 287/2192 290/2193
f 290/2194 179/2195 178/2196
f 264/2197 351/2198 350/2199
f 350/2200 261/2201 264/2202
f 288/2203 349/2204 352/2205
f 352/2206 289/2207 288/2208
