# USD → MuJoCo (world-space)
v -0.201381 0.234199 -0.141476
v -0.201381 0.235069 -0.140822
v -0.201381 0.239198 -0.141476
v -0.201381 0.235069 -0.142130
v -0.201381 0.234443 -0.139932
v -0.201381 0.235473 -0.139578
v -0.201381 0.235153 -0.138538
v -0.201381 0.236242 -0.138520
v -0.201381 0.236260 -0.137432
v -0.201381 0.237300 -0.137751
v -0.201381 0.237653 -0.136722
v -0.201381 0.238544 -0.137347
v -0.201381 0.239198 -0.136477
v -0.201381 0.239852 -0.137347
v -0.201381 0.240743 -0.136722
v -0.201381 0.241096 -0.137751
v -0.201381 0.242137 -0.137432
v -0.201381 0.242154 -0.138520
v -0.201381 0.243243 -0.138538
v -0.201381 0.242923 -0.139578
v -0.201381 0.243953 -0.139932
v -0.201381 0.243328 -0.140822
v -0.201381 0.244198 -0.141476
v -0.201381 0.243328 -0.142130
v -0.201381 0.243953 -0.143021
v -0.201381 0.242923 -0.143375
v -0.201381 0.243243 -0.144415
v -0.201381 0.242154 -0.144433
v -0.201381 0.242137 -0.145521
v -0.201381 0.241096 -0.145202
v -0.201381 0.240743 -0.146231
v -0.201381 0.239852 -0.145606
v -0.201381 0.239198 -0.146476
v -0.201381 0.238544 -0.145606
v -0.201381 0.237653 -0.146231
v -0.201381 0.237300 -0.145202
v -0.201381 0.236260 -0.145521
v -0.201381 0.236242 -0.144433
v -0.201381 0.235153 -0.144415
v -0.201381 0.235473 -0.143374
v -0.201381 0.234443 -0.143021
v -0.201381 0.233363 -0.140552
v -0.201381 0.233579 -0.139651
v -0.201381 0.233290 -0.141476
v -0.201381 0.232790 -0.141476
v -0.201381 0.232869 -0.140474
v -0.201381 0.233104 -0.139496
v -0.201381 0.232376 -0.140396
v -0.201381 0.232628 -0.139342
v -0.201381 0.232290 -0.141476
v -0.201256 0.231915 -0.141476
v -0.201256 0.232005 -0.140337
v -0.201256 0.232271 -0.139226
v -0.201381 0.233934 -0.138794
v -0.201381 0.234418 -0.138004
v -0.201381 0.233489 -0.138567
v -0.201381 0.234014 -0.137710
v -0.201381 0.233043 -0.138340
v -0.201381 0.233609 -0.137416
v -0.201256 0.232709 -0.138170
v -0.201256 0.233306 -0.137196
v -0.201381 0.235021 -0.137299
v -0.201381 0.235726 -0.136697
v -0.201381 0.234667 -0.136946
v -0.201381 0.235432 -0.136292
v -0.201381 0.234314 -0.136592
v -0.201381 0.235138 -0.135888
v -0.201256 0.234049 -0.136327
v -0.201256 0.234917 -0.135584
v -0.201381 0.236516 -0.136213
v -0.201381 0.237373 -0.135858
v -0.201381 0.236289 -0.135767
v -0.201381 0.237218 -0.135382
v -0.201381 0.236062 -0.135322
v -0.201381 0.237063 -0.134906
v -0.201256 0.235892 -0.134988
v -0.201256 0.236948 -0.134550
v -0.201381 0.238274 -0.135642
v -0.201381 0.239198 -0.135568
v -0.201381 0.238196 -0.135148
v -0.201381 0.239198 -0.135068
v -0.201381 0.238118 -0.134654
v -0.201381 0.239198 -0.134568
v -0.201256 0.238059 -0.134283
v -0.201256 0.239198 -0.134193
v -0.201381 0.240122 -0.135642
v -0.201381 0.241024 -0.135858
v -0.201381 0.240201 -0.135148
v -0.201381 0.241178 -0.135382
v -0.201381 0.240279 -0.134654
v -0.201381 0.241333 -0.134906
v -0.201256 0.240338 -0.134283
v -0.201256 0.241449 -0.134550
v -0.201381 0.241880 -0.136213
v -0.201381 0.242671 -0.136697
v -0.201381 0.242107 -0.135767
v -0.201381 0.242965 -0.136292
v -0.201381 0.242334 -0.135322
v -0.201381 0.243259 -0.135888
v -0.201256 0.242505 -0.134988
v -0.201256 0.243479 -0.135584
v -0.201381 0.243376 -0.137299
v -0.201381 0.243978 -0.138004
v -0.201381 0.243729 -0.136946
v -0.201381 0.244383 -0.137710
v -0.201381 0.244083 -0.136592
v -0.201381 0.244787 -0.137416
v -0.201256 0.244348 -0.136327
v -0.201256 0.245090 -0.137196
v -0.201381 0.244462 -0.138794
v -0.201381 0.244817 -0.139651
v -0.201381 0.244908 -0.138567
v -0.201381 0.245293 -0.139496
v -0.201381 0.245353 -0.138340
v -0.201381 0.245768 -0.139342
v -0.201256 0.245687 -0.138170
v -0.201256 0.246125 -0.139226
v -0.201381 0.245033 -0.140552
v -0.201381 0.245106 -0.141476
v -0.201381 0.245527 -0.140474
v -0.201381 0.245606 -0.141476
v -0.201381 0.246021 -0.140396
v -0.201381 0.246106 -0.141476
v -0.201256 0.246391 -0.140337
v -0.201256 0.246481 -0.141476
v -0.201381 0.245033 -0.142401
v -0.201381 0.244817 -0.143302
v -0.201381 0.245527 -0.142479
v -0.201381 0.245293 -0.143457
v -0.201381 0.246021 -0.142557
v -0.201381 0.245768 -0.143611
v -0.201256 0.246391 -0.142616
v -0.201256 0.246125 -0.143727
v -0.201381 0.244462 -0.144159
v -0.201381 0.243978 -0.144949
v -0.201381 0.244908 -0.144386
v -0.201381 0.244383 -0.145243
v -0.201381 0.245353 -0.144613
v -0.201381 0.244787 -0.145537
v -0.201256 0.245687 -0.144783
v -0.201256 0.245090 -0.145757
v -0.201381 0.243376 -0.145654
v -0.201381 0.242671 -0.146256
v -0.201381 0.243729 -0.146007
v -0.201381 0.242965 -0.146661
v -0.201381 0.244083 -0.146361
v -0.201381 0.243259 -0.147065
v -0.201256 0.244348 -0.146626
v -0.201256 0.243479 -0.147369
v -0.201381 0.241880 -0.146740
v -0.201381 0.241024 -0.147095
v -0.201381 0.242107 -0.147186
v -0.201381 0.241178 -0.147571
v -0.201381 0.242334 -0.147631
v -0.201381 0.241333 -0.148047
v -0.201256 0.242505 -0.147965
v -0.201256 0.241449 -0.148403
v -0.201381 0.240122 -0.147311
v -0.201381 0.239198 -0.147385
v -0.201381 0.240201 -0.147805
v -0.201381 0.239198 -0.147885
v -0.201381 0.240279 -0.148299
v -0.201381 0.239198 -0.148385
v -0.201256 0.240337 -0.148669
v -0.201256 0.239198 -0.148760
v -0.201381 0.238274 -0.147311
v -0.201381 0.237373 -0.147095
v -0.201381 0.238196 -0.147805
v -0.201381 0.237218 -0.147571
v -0.201381 0.238118 -0.148299
v -0.201381 0.237063 -0.148047
v -0.201256 0.238059 -0.148669
v -0.201256 0.236948 -0.148403
v -0.201381 0.236516 -0.146740
v -0.201381 0.235726 -0.146256
v -0.201381 0.236289 -0.147186
v -0.201381 0.235432 -0.146661
v -0.201381 0.236062 -0.147631
v -0.201381 0.235138 -0.147065
v -0.201256 0.235892 -0.147965
v -0.201256 0.234917 -0.147369
v -0.201381 0.235021 -0.145654
v -0.201381 0.234418 -0.144949
v -0.201381 0.234667 -0.146007
v -0.201381 0.234014 -0.145243
v -0.201381 0.234314 -0.146361
v -0.201381 0.233609 -0.145537
v -0.201256 0.234049 -0.146626
v -0.201256 0.233306 -0.145757
v -0.201381 0.233934 -0.144159
v -0.201381 0.233579 -0.143302
v -0.201381 0.233489 -0.144385
v -0.201381 0.233104 -0.143457
v -0.201381 0.233043 -0.144612
v -0.201381 0.232628 -0.143611
v -0.201256 0.232709 -0.144783
v -0.201256 0.232271 -0.143727
v -0.201381 0.233363 -0.142401
v -0.201381 0.232869 -0.142479
v -0.201381 0.232376 -0.142557
v -0.201256 0.232005 -0.142616
vt 0.449136 0.457925
vt 0.443414 0.491874
vt 0.416268 0.457925
vt 0.416268 0.457925
vt 0.443414 0.423977
vt 0.449136 0.457925
vt 0.447527 0.538122
vt 0.440757 0.556448
vt 0.416268 0.457925
vt 0.416268 0.457925
vt 0.443414 0.491874
vt 0.447527 0.538122
vt 0.442859 0.610468
vt 0.435702 0.611377
vt 0.416268 0.457925
vt 0.416268 0.457925
vt 0.440757 0.556448
vt 0.442859 0.610468
vt 0.435587 0.667882
vt 0.428746 0.651286
vt 0.416268 0.457925
vt 0.416268 0.457925
vt 0.435702 0.611377
vt 0.435587 0.667882
vt 0.426425 0.704745
vt 0.420567 0.672267
vt 0.416268 0.457925
vt 0.416268 0.457925
vt 0.428746 0.651286
vt 0.426425 0.704745
vt 0.416268 0.717447
vt 0.411968 0.672267
vt 0.416268 0.457925
vt 0.416268 0.457925
vt 0.420567 0.672267
vt 0.416268 0.717447
vt 0.406111 0.704745
vt 0.403790 0.651286
vt 0.416268 0.457925
vt 0.416268 0.457925
vt 0.411968 0.672267
vt 0.406111 0.704745
vt 0.396949 0.667882
vt 0.396833 0.611377
vt 0.416268 0.457925
vt 0.416268 0.457925
vt 0.403790 0.651286
vt 0.396949 0.667882
vt 0.389677 0.610468
vt 0.391779 0.556448
vt 0.416268 0.457925
vt 0.416268 0.457925
vt 0.396833 0.611377
vt 0.389677 0.610468
vt 0.385009 0.538122
vt 0.389122 0.491874
vt 0.416268 0.457925
vt 0.416268 0.457925
vt 0.391779 0.556448
vt 0.385009 0.538122
vt 0.383400 0.457925
vt 0.389122 0.423977
vt 0.416268 0.457925
vt 0.416268 0.457925
vt 0.389122 0.491874
vt 0.383400 0.457925
vt 0.385009 0.377729
vt 0.391779 0.359403
vt 0.416268 0.457925
vt 0.416268 0.457925
vt 0.389122 0.423977
vt 0.385009 0.377729
vt 0.389677 0.305382
vt 0.396833 0.304473
vt 0.416268 0.457925
vt 0.416268 0.457925
vt 0.391779 0.359403
vt 0.389677 0.305382
vt 0.396949 0.247968
vt 0.403790 0.264564
vt 0.416268 0.457925
vt 0.416268 0.457925
vt 0.396833 0.304473
vt 0.396949 0.247968
vt 0.406111 0.211106
vt 0.411968 0.243583
vt 0.416268 0.457925
vt 0.416268 0.457925
vt 0.403790 0.264564
vt 0.406111 0.211106
vt 0.416268 0.198404
vt 0.420568 0.243583
vt 0.416268 0.457925
vt 0.416268 0.457925
vt 0.411968 0.243583
vt 0.416268 0.198404
vt 0.426425 0.211106
vt 0.428746 0.264565
vt 0.416268 0.457925
vt 0.416268 0.457925
vt 0.420568 0.243583
vt 0.426425 0.211106
vt 0.435587 0.247968
vt 0.435702 0.304473
vt 0.416268 0.457925
vt 0.416268 0.457925
vt 0.428746 0.264565
vt 0.435587 0.247968
vt 0.442859 0.305383
vt 0.440757 0.359403
vt 0.416268 0.457925
vt 0.416268 0.457925
vt 0.435702 0.304473
vt 0.442859 0.305383
vt 0.447527 0.377729
vt 0.443414 0.423977
vt 0.416268 0.457925
vt 0.416268 0.457925
vt 0.440757 0.359403
vt 0.447527 0.377729
vt 0.447527 0.538122
vt 0.443414 0.491874
vt 0.454627 0.505897
vt 0.454627 0.505897
vt 0.453207 0.552694
vt 0.447527 0.538122
vt 0.449136 0.457925
vt 0.455108 0.457925
vt 0.454627 0.505897
vt 0.454627 0.505897
vt 0.443414 0.491874
vt 0.449136 0.457925
vt 0.458396 0.457925
vt 0.457874 0.509957
vt 0.454627 0.505897
vt 0.454627 0.505897
vt 0.455108 0.457925
vt 0.458396 0.457925
vt 0.456334 0.560715
vt 0.453207 0.552694
vt 0.454627 0.505897
vt 0.454627 0.505897
vt 0.457874 0.509957
vt 0.456334 0.560715
vt 0.456334 0.560715
vt 0.457874 0.509957
vt 0.461120 0.514017
vt 0.461120 0.514017
vt 0.459460 0.568736
vt 0.456334 0.560715
vt 0.458396 0.457925
vt 0.461683 0.457925
vt 0.461120 0.514017
vt 0.461120 0.514017
vt 0.457874 0.509957
vt 0.458396 0.457925
vt 0.464148 0.457925
vt 0.463555 0.517062
vt 0.461120 0.514017
vt 0.461120 0.514017
vt 0.461683 0.457925
vt 0.464148 0.457925
vt 0.461805 0.574751
vt 0.459460 0.568736
vt 0.461120 0.514017
vt 0.461120 0.514017
vt 0.463555 0.517062
vt 0.461805 0.574751
vt 0.442859 0.610468
vt 0.440757 0.556448
vt 0.450872 0.597143
vt 0.450872 0.597143
vt 0.447690 0.638186
vt 0.442859 0.610468
vt 0.447527 0.538122
vt 0.453207 0.552694
vt 0.450872 0.597143
vt 0.450872 0.597143
vt 0.440757 0.556448
vt 0.447527 0.538122
vt 0.456334 0.560715
vt 0.453801 0.608926
vt 0.450872 0.597143
vt 0.450872 0.597143
vt 0.453207 0.552694
vt 0.456334 0.560715
vt 0.450350 0.653443
vt 0.447690 0.638186
vt 0.450872 0.597143
vt 0.450872 0.597143
vt 0.453801 0.608926
vt 0.450350 0.653443
vt 0.450350 0.653443
vt 0.453801 0.608926
vt 0.456730 0.620709
vt 0.456730 0.620709
vt 0.453009 0.668699
vt 0.450350 0.653443
vt 0.456334 0.560715
vt 0.459460 0.568736
vt 0.456730 0.620709
vt 0.456730 0.620709
vt 0.453801 0.608926
vt 0.456334 0.560715
vt 0.461805 0.574751
vt 0.458926 0.629546
vt 0.456730 0.620709
vt 0.456730 0.620709
vt 0.459460 0.568736
vt 0.461805 0.574751
vt 0.455004 0.680142
vt 0.453009 0.668699
vt 0.456730 0.620709
vt 0.456730 0.620709
vt 0.458926 0.629546
vt 0.455004 0.680142
vt 0.435587 0.667882
vt 0.435702 0.611377
vt 0.443730 0.674763
vt 0.443730 0.674763
vt 0.439098 0.706033
vt 0.435587 0.667882
vt 0.442859 0.610468
vt 0.447690 0.638186
vt 0.443730 0.674763
vt 0.443730 0.674763
vt 0.435702 0.611377
vt 0.442859 0.610468
vt 0.450350 0.653443
vt 0.446054 0.693115
vt 0.443730 0.674763
vt 0.443730 0.674763
vt 0.447690 0.638186
vt 0.450350 0.653443
vt 0.441030 0.727032
vt 0.439098 0.706033
vt 0.443730 0.674763
vt 0.443730 0.674763
vt 0.446054 0.693115
vt 0.441030 0.727032
vt 0.441030 0.727032
vt 0.446054 0.693115
vt 0.448379 0.711467
vt 0.448379 0.711467
vt 0.442962 0.748031
vt 0.441030 0.727032
vt 0.450350 0.653443
vt 0.453009 0.668699
vt 0.448379 0.711467
vt 0.448379 0.711467
vt 0.446054 0.693115
vt 0.450350 0.653443
vt 0.455004 0.680142
vt 0.450122 0.725231
vt 0.448379 0.711467
vt 0.448379 0.711467
vt 0.453009 0.668699
vt 0.455004 0.680142
vt 0.444411 0.763780
vt 0.442962 0.748031
vt 0.448379 0.711467
vt 0.448379 0.711467
vt 0.450122 0.725231
vt 0.444411 0.763780
vt 0.426425 0.704745
vt 0.428746 0.651286
vt 0.433900 0.731156
vt 0.433900 0.731156
vt 0.428270 0.749593
vt 0.426425 0.704745
vt 0.435587 0.667882
vt 0.439098 0.706033
vt 0.433900 0.731156
vt 0.433900 0.731156
vt 0.428746 0.651286
vt 0.435587 0.667882
vt 0.441030 0.727032
vt 0.435392 0.754282
vt 0.433900 0.731156
vt 0.433900 0.731156
vt 0.439098 0.706033
vt 0.441030 0.727032
vt 0.429286 0.774279
vt 0.428270 0.749593
vt 0.433900 0.731156
vt 0.433900 0.731156
vt 0.435392 0.754282
vt 0.429286 0.774279
vt 0.429286 0.774279
vt 0.435392 0.754282
vt 0.436884 0.777407
vt 0.436884 0.777407
vt 0.430302 0.798965
vt 0.429286 0.774279
vt 0.441030 0.727032
vt 0.442962 0.748031
vt 0.436884 0.777407
vt 0.436884 0.777407
vt 0.435392 0.754282
vt 0.441030 0.727032
vt 0.444411 0.763780
vt 0.438004 0.794751
vt 0.436884 0.777407
vt 0.436884 0.777407
vt 0.442962 0.748031
vt 0.444411 0.763780
vt 0.431064 0.817479
vt 0.430302 0.798965
vt 0.436884 0.777407
vt 0.436884 0.777407
vt 0.438004 0.794751
vt 0.431064 0.817479
vt 0.416268 0.717447
vt 0.420567 0.672267
vt 0.422343 0.760804
vt 0.422343 0.760804
vt 0.416268 0.764603
vt 0.416268 0.717447
vt 0.426425 0.704745
vt 0.428270 0.749593
vt 0.422343 0.760804
vt 0.422343 0.760804
vt 0.420567 0.672267
vt 0.426425 0.704745
vt 0.429286 0.774279
vt 0.422858 0.786439
vt 0.422343 0.760804
vt 0.422343 0.760804
vt 0.428270 0.749593
vt 0.429286 0.774279
vt 0.416268 0.790559
vt 0.416268 0.764603
vt 0.422343 0.760804
vt 0.422343 0.760804
vt 0.422858 0.786439
vt 0.416268 0.790559
vt 0.416268 0.790559
vt 0.422858 0.786439
vt 0.423372 0.812073
vt 0.423372 0.812073
vt 0.416268 0.816515
vt 0.416268 0.790559
vt 0.429286 0.774279
vt 0.430302 0.798965
vt 0.423372 0.812073
vt 0.423372 0.812073
vt 0.422858 0.786439
vt 0.429286 0.774279
vt 0.431064 0.817479
vt 0.423758 0.831299
vt 0.423372 0.812073
vt 0.423372 0.812073
vt 0.430302 0.798965
vt 0.431064 0.817479
vt 0.416268 0.835982
vt 0.416268 0.816515
vt 0.423372 0.812073
vt 0.423372 0.812073
vt 0.423758 0.831299
vt 0.416268 0.835982
vt 0.406111 0.704745
vt 0.411968 0.672267
vt 0.410192 0.760804
vt 0.410192 0.760804
vt 0.404266 0.749593
vt 0.406111 0.704745
vt 0.416268 0.717447
vt 0.416268 0.764603
vt 0.410192 0.760804
vt 0.410192 0.760804
vt 0.411968 0.672267
vt 0.416268 0.717447
vt 0.416268 0.790559
vt 0.409678 0.786439
vt 0.410192 0.760804
vt 0.410192 0.760804
vt 0.416268 0.764603
vt 0.416268 0.790559
vt 0.403250 0.774279
vt 0.404266 0.749593
vt 0.410192 0.760804
vt 0.410192 0.760804
vt 0.409678 0.786439
vt 0.403250 0.774279
vt 0.403250 0.774279
vt 0.409678 0.786439
vt 0.409164 0.812073
vt 0.409164 0.812073
vt 0.402234 0.798965
vt 0.403250 0.774279
vt 0.416268 0.790559
vt 0.416268 0.816515
vt 0.409164 0.812073
vt 0.409164 0.812073
vt 0.409678 0.786439
vt 0.416268 0.790559
vt 0.416268 0.835982
vt 0.408778 0.831299
vt 0.409164 0.812073
vt 0.409164 0.812073
vt 0.416268 0.816515
vt 0.416268 0.835982
vt 0.401472 0.817479
vt 0.402234 0.798965
vt 0.409164 0.812073
vt 0.409164 0.812073
vt 0.408778 0.831299
vt 0.401472 0.817479
vt 0.396949 0.667882
vt 0.403790 0.651286
vt 0.398636 0.731157
vt 0.398636 0.731157
vt 0.393438 0.706033
vt 0.396949 0.667882
vt 0.406111 0.704745
vt 0.404266 0.749593
vt 0.398636 0.731157
vt 0.398636 0.731157
vt 0.403790 0.651286
vt 0.406111 0.704745
vt 0.403250 0.774279
vt 0.397144 0.754282
vt 0.398636 0.731157
vt 0.398636 0.731157
vt 0.404266 0.749593
vt 0.403250 0.774279
vt 0.391506 0.727032
vt 0.393438 0.706033
vt 0.398636 0.731157
vt 0.398636 0.731157
vt 0.397144 0.754282
vt 0.391506 0.727032
vt 0.391506 0.727032
vt 0.397144 0.754282
vt 0.395652 0.777407
vt 0.395652 0.777407
vt 0.389574 0.748031
vt 0.391506 0.727032
vt 0.403250 0.774279
vt 0.402234 0.798965
vt 0.395652 0.777407
vt 0.395652 0.777407
vt 0.397144 0.754282
vt 0.403250 0.774279
vt 0.401472 0.817479
vt 0.394532 0.794751
vt 0.395652 0.777407
vt 0.395652 0.777407
vt 0.402234 0.798965
vt 0.401472 0.817479
vt 0.388125 0.763780
vt 0.389574 0.748031
vt 0.395652 0.777407
vt 0.395652 0.777407
vt 0.394532 0.794751
vt 0.388125 0.763780
vt 0.389677 0.610468
vt 0.396833 0.611377
vt 0.388806 0.674763
vt 0.388806 0.674763
vt 0.384845 0.638186
vt 0.389677 0.610468
vt 0.396949 0.667882
vt 0.393438 0.706033
vt 0.388806 0.674763
vt 0.388806 0.674763
vt 0.396833 0.611377
vt 0.396949 0.667882
vt 0.391506 0.727032
vt 0.386481 0.693115
vt 0.388806 0.674763
vt 0.388806 0.674763
vt 0.393438 0.706033
vt 0.391506 0.727032
vt 0.382186 0.653443
vt 0.384845 0.638186
vt 0.388806 0.674763
vt 0.388806 0.674763
vt 0.386481 0.693115
vt 0.382186 0.653443
vt 0.382186 0.653443
vt 0.386481 0.693115
vt 0.384157 0.711467
vt 0.384157 0.711467
vt 0.379526 0.668699
vt 0.382186 0.653443
vt 0.391506 0.727032
vt 0.389574 0.748031
vt 0.384157 0.711467
vt 0.384157 0.711467
vt 0.386481 0.693115
vt 0.391506 0.727032
vt 0.388125 0.763780
vt 0.382414 0.725232
vt 0.384157 0.711467
vt 0.384157 0.711467
vt 0.389574 0.748031
vt 0.388125 0.763780
vt 0.377532 0.680142
vt 0.379526 0.668699
vt 0.384157 0.711467
vt 0.384157 0.711467
vt 0.382414 0.725232
vt 0.377532 0.680142
vt 0.385009 0.538122
vt 0.391779 0.556448
vt 0.381664 0.597144
vt 0.381664 0.597144
vt 0.379329 0.552694
vt 0.385009 0.538122
vt 0.389677 0.610468
vt 0.384845 0.638186
vt 0.381664 0.597144
vt 0.381664 0.597144
vt 0.391779 0.556448
vt 0.389677 0.610468
vt 0.382186 0.653443
vt 0.378735 0.608926
vt 0.381664 0.597144
vt 0.381664 0.597144
vt 0.384845 0.638186
vt 0.382186 0.653443
vt 0.376202 0.560715
vt 0.379329 0.552694
vt 0.381664 0.597144
vt 0.381664 0.597144
vt 0.378735 0.608926
vt 0.376202 0.560715
vt 0.376202 0.560715
vt 0.378735 0.608926
vt 0.375806 0.620709
vt 0.375806 0.620709
vt 0.373076 0.568736
vt 0.376202 0.560715
vt 0.382186 0.653443
vt 0.379526 0.668699
vt 0.375806 0.620709
vt 0.375806 0.620709
vt 0.378735 0.608926
vt 0.382186 0.653443
vt 0.377532 0.680142
vt 0.373609 0.629546
vt 0.375806 0.620709
vt 0.375806 0.620709
vt 0.379526 0.668699
vt 0.377532 0.680142
vt 0.370731 0.574751
vt 0.373076 0.568736
vt 0.375806 0.620709
vt 0.375806 0.620709
vt 0.373609 0.629546
vt 0.370731 0.574751
vt 0.383400 0.457925
vt 0.389122 0.491874
vt 0.377909 0.505897
vt 0.377909 0.505897
vt 0.377428 0.457925
vt 0.383400 0.457925
vt 0.385009 0.538122
vt 0.379329 0.552694
vt 0.377909 0.505897
vt 0.377909 0.505897
vt 0.389122 0.491874
vt 0.385009 0.538122
vt 0.376202 0.560715
vt 0.374662 0.509957
vt 0.377909 0.505897
vt 0.377909 0.505897
vt 0.379329 0.552694
vt 0.376202 0.560715
vt 0.374140 0.457925
vt 0.377428 0.457925
vt 0.377909 0.505897
vt 0.377909 0.505897
vt 0.374662 0.509957
vt 0.374140 0.457925
vt 0.374140 0.457925
vt 0.374662 0.509957
vt 0.371416 0.514017
vt 0.371416 0.514017
vt 0.370853 0.457925
vt 0.374140 0.457925
vt 0.376202 0.560715
vt 0.373076 0.568736
vt 0.371416 0.514017
vt 0.371416 0.514017
vt 0.374662 0.509957
vt 0.376202 0.560715
vt 0.370731 0.574751
vt 0.368981 0.517062
vt 0.371416 0.514017
vt 0.371416 0.514017
vt 0.373076 0.568736
vt 0.370731 0.574751
vt 0.368388 0.457925
vt 0.370853 0.457925
vt 0.371416 0.514017
vt 0.371416 0.514017
vt 0.368981 0.517062
vt 0.368388 0.457925
vt 0.385009 0.377729
vt 0.389122 0.423977
vt 0.377909 0.409954
vt 0.377909 0.409954
vt 0.379329 0.363156
vt 0.385009 0.377729
vt 0.383400 0.457925
vt 0.377428 0.457925
vt 0.377909 0.409954
vt 0.377909 0.409954
vt 0.389122 0.423977
vt 0.383400 0.457925
vt 0.374140 0.457925
vt 0.374662 0.405894
vt 0.377909 0.409954
vt 0.377909 0.409954
vt 0.377428 0.457925
vt 0.374140 0.457925
vt 0.376202 0.355136
vt 0.379329 0.363156
vt 0.377909 0.409954
vt 0.377909 0.409954
vt 0.374662 0.405894
vt 0.376202 0.355136
vt 0.376202 0.355136
vt 0.374662 0.405894
vt 0.371416 0.401834
vt 0.371416 0.401834
vt 0.373076 0.347115
vt 0.376202 0.355136
vt 0.374140 0.457925
vt 0.370853 0.457925
vt 0.371416 0.401834
vt 0.371416 0.401834
vt 0.374662 0.405894
vt 0.374140 0.457925
vt 0.368388 0.457925
vt 0.368981 0.398789
vt 0.371416 0.401834
vt 0.371416 0.401834
vt 0.370853 0.457925
vt 0.368388 0.457925
vt 0.370731 0.341099
vt 0.373076 0.347115
vt 0.371416 0.401834
vt 0.371416 0.401834
vt 0.368981 0.398789
vt 0.370731 0.341099
vt 0.389677 0.305382
vt 0.391779 0.359403
vt 0.381664 0.318707
vt 0.381664 0.318707
vt 0.384845 0.277664
vt 0.389677 0.305382
vt 0.385009 0.377729
vt 0.379329 0.363156
vt 0.381664 0.318707
vt 0.381664 0.318707
vt 0.391779 0.359403
vt 0.385009 0.377729
vt 0.376202 0.355136
vt 0.378735 0.306924
vt 0.381664 0.318707
vt 0.381664 0.318707
vt 0.379329 0.363156
vt 0.376202 0.355136
vt 0.382186 0.262408
vt 0.384845 0.277664
vt 0.381664 0.318707
vt 0.381664 0.318707
vt 0.378735 0.306924
vt 0.382186 0.262408
vt 0.382186 0.262408
vt 0.378735 0.306924
vt 0.375806 0.295141
vt 0.375806 0.295141
vt 0.379526 0.247151
vt 0.382186 0.262408
vt 0.376202 0.355136
vt 0.373076 0.347115
vt 0.375806 0.295141
vt 0.375806 0.295141
vt 0.378735 0.306924
vt 0.376202 0.355136
vt 0.370731 0.341099
vt 0.373609 0.286304
vt 0.375806 0.295141
vt 0.375806 0.295141
vt 0.373076 0.347115
vt 0.370731 0.341099
vt 0.377532 0.235709
vt 0.379526 0.247151
vt 0.375806 0.295141
vt 0.375806 0.295141
vt 0.373609 0.286304
vt 0.377532 0.235709
vt 0.396949 0.247968
vt 0.396833 0.304473
vt 0.388806 0.241088
vt 0.388806 0.241088
vt 0.393438 0.209817
vt 0.396949 0.247968
vt 0.389677 0.305382
vt 0.384845 0.277664
vt 0.388806 0.241088
vt 0.388806 0.241088
vt 0.396833 0.304473
vt 0.389677 0.305382
vt 0.382186 0.262408
vt 0.386481 0.222735
vt 0.388806 0.241088
vt 0.388806 0.241088
vt 0.384845 0.277664
vt 0.382186 0.262408
vt 0.391506 0.188819
vt 0.393438 0.209817
vt 0.388806 0.241088
vt 0.388806 0.241088
vt 0.386481 0.222735
vt 0.391506 0.188819
vt 0.391506 0.188819
vt 0.386481 0.222735
vt 0.384157 0.204383
vt 0.384157 0.204383
vt 0.389574 0.167820
vt 0.391506 0.188819
vt 0.382186 0.262408
vt 0.379526 0.247151
vt 0.384157 0.204383
vt 0.384157 0.204383
vt 0.386481 0.222735
vt 0.382186 0.262408
vt 0.377532 0.235709
vt 0.382414 0.190619
vt 0.384157 0.204383
vt 0.384157 0.204383
vt 0.379526 0.247151
vt 0.377532 0.235709
vt 0.388125 0.152071
vt 0.389574 0.167820
vt 0.384157 0.204383
vt 0.384157 0.204383
vt 0.382414 0.190619
vt 0.388125 0.152071
vt 0.406111 0.211106
vt 0.403790 0.264564
vt 0.398636 0.184694
vt 0.398636 0.184694
vt 0.404266 0.166257
vt 0.406111 0.211106
vt 0.396949 0.247968
vt 0.393438 0.209817
vt 0.398636 0.184694
vt 0.398636 0.184694
vt 0.403790 0.264564
vt 0.396949 0.247968
vt 0.391506 0.188819
vt 0.397144 0.161569
vt 0.398636 0.184694
vt 0.398636 0.184694
vt 0.393438 0.209817
vt 0.391506 0.188819
vt 0.403250 0.141571
vt 0.404266 0.166257
vt 0.398636 0.184694
vt 0.398636 0.184694
vt 0.397144 0.161569
vt 0.403250 0.141571
vt 0.403250 0.141571
vt 0.397144 0.161569
vt 0.395652 0.138444
vt 0.395652 0.138444
vt 0.402234 0.116886
vt 0.403250 0.141571
vt 0.391506 0.188819
vt 0.389574 0.167820
vt 0.395652 0.138444
vt 0.395652 0.138444
vt 0.397144 0.161569
vt 0.391506 0.188819
vt 0.388125 0.152071
vt 0.394532 0.121100
vt 0.395652 0.138444
vt 0.395652 0.138444
vt 0.389574 0.167820
vt 0.388125 0.152071
vt 0.401472 0.098372
vt 0.402234 0.116886
vt 0.395652 0.138444
vt 0.395652 0.138444
vt 0.394532 0.121100
vt 0.401472 0.098372
vt 0.416268 0.198404
vt 0.411968 0.243583
vt 0.410192 0.155046
vt 0.410192 0.155046
vt 0.416268 0.151247
vt 0.416268 0.198404
vt 0.406111 0.211106
vt 0.404266 0.166257
vt 0.410192 0.155046
vt 0.410192 0.155046
vt 0.411968 0.243583
vt 0.406111 0.211106
vt 0.403250 0.141571
vt 0.409678 0.129412
vt 0.410192 0.155046
vt 0.410192 0.155046
vt 0.404266 0.166257
vt 0.403250 0.141571
vt 0.416268 0.125291
vt 0.416268 0.151247
vt 0.410192 0.155046
vt 0.410192 0.155046
vt 0.409678 0.129412
vt 0.416268 0.125291
vt 0.416268 0.125291
vt 0.409678 0.129412
vt 0.409164 0.103777
vt 0.409164 0.103777
vt 0.416268 0.099335
vt 0.416268 0.125291
vt 0.403250 0.141571
vt 0.402234 0.116886
vt 0.409164 0.103777
vt 0.409164 0.103777
vt 0.409678 0.129412
vt 0.403250 0.141571
vt 0.401472 0.098372
vt 0.408778 0.084551
vt 0.409164 0.103777
vt 0.409164 0.103777
vt 0.402234 0.116886
vt 0.401472 0.098372
vt 0.416268 0.079868
vt 0.416268 0.099335
vt 0.409164 0.103777
vt 0.409164 0.103777
vt 0.408778 0.084551
vt 0.416268 0.079868
vt 0.426425 0.211106
vt 0.420568 0.243583
vt 0.422343 0.155046
vt 0.422343 0.155046
vt 0.428270 0.166257
vt 0.426425 0.211106
vt 0.416268 0.198404
vt 0.416268 0.151247
vt 0.422343 0.155046
vt 0.422343 0.155046
vt 0.420568 0.243583
vt 0.416268 0.198404
vt 0.416268 0.125291
vt 0.422858 0.129412
vt 0.422343 0.155046
vt 0.422343 0.155046
vt 0.416268 0.151247
vt 0.416268 0.125291
vt 0.429286 0.141572
vt 0.428270 0.166257
vt 0.422343 0.155046
vt 0.422343 0.155046
vt 0.422858 0.129412
vt 0.429286 0.141572
vt 0.429286 0.141572
vt 0.422858 0.129412
vt 0.423372 0.103777
vt 0.423372 0.103777
vt 0.430302 0.116886
vt 0.429286 0.141572
vt 0.416268 0.125291
vt 0.416268 0.099335
vt 0.423372 0.103777
vt 0.423372 0.103777
vt 0.422858 0.129412
vt 0.416268 0.125291
vt 0.416268 0.079868
vt 0.423758 0.084551
vt 0.423372 0.103777
vt 0.423372 0.103777
vt 0.416268 0.099335
vt 0.416268 0.079868
vt 0.431064 0.098372
vt 0.430302 0.116886
vt 0.423372 0.103777
vt 0.423372 0.103777
vt 0.423758 0.084551
vt 0.431064 0.098372
vt 0.435587 0.247968
vt 0.428746 0.264565
vt 0.433900 0.184694
vt 0.433900 0.184694
vt 0.439098 0.209818
vt 0.435587 0.247968
vt 0.426425 0.211106
vt 0.428270 0.166257
vt 0.433900 0.184694
vt 0.433900 0.184694
vt 0.428746 0.264565
vt 0.426425 0.211106
vt 0.429286 0.141572
vt 0.435392 0.161569
vt 0.433900 0.184694
vt 0.433900 0.184694
vt 0.428270 0.166257
vt 0.429286 0.141572
vt 0.441030 0.188819
vt 0.439098 0.209818
vt 0.433900 0.184694
vt 0.433900 0.184694
vt 0.435392 0.161569
vt 0.441030 0.188819
vt 0.441030 0.188819
vt 0.435392 0.161569
vt 0.436884 0.138444
vt 0.436884 0.138444
vt 0.442962 0.167820
vt 0.441030 0.188819
vt 0.429286 0.141572
vt 0.430302 0.116886
vt 0.436884 0.138444
vt 0.436884 0.138444
vt 0.435392 0.161569
vt 0.429286 0.141572
vt 0.431064 0.098372
vt 0.438004 0.121100
vt 0.436884 0.138444
vt 0.436884 0.138444
vt 0.430302 0.116886
vt 0.431064 0.098372
vt 0.444411 0.152071
vt 0.442962 0.167820
vt 0.436884 0.138444
vt 0.436884 0.138444
vt 0.438004 0.121100
vt 0.444411 0.152071
vt 0.442859 0.305383
vt 0.435702 0.304473
vt 0.443730 0.241088
vt 0.443730 0.241088
vt 0.447691 0.277665
vt 0.442859 0.305383
vt 0.435587 0.247968
vt 0.439098 0.209818
vt 0.443730 0.241088
vt 0.443730 0.241088
vt 0.435702 0.304473
vt 0.435587 0.247968
vt 0.441030 0.188819
vt 0.446054 0.222736
vt 0.443730 0.241088
vt 0.443730 0.241088
vt 0.439098 0.209818
vt 0.441030 0.188819
vt 0.450350 0.262408
vt 0.447691 0.277665
vt 0.443730 0.241088
vt 0.443730 0.241088
vt 0.446054 0.222736
vt 0.450350 0.262408
vt 0.450350 0.262408
vt 0.446054 0.222736
vt 0.448379 0.204384
vt 0.448379 0.204384
vt 0.453009 0.247152
vt 0.450350 0.262408
vt 0.441030 0.188819
vt 0.442962 0.167820
vt 0.448379 0.204384
vt 0.448379 0.204384
vt 0.446054 0.222736
vt 0.441030 0.188819
vt 0.444411 0.152071
vt 0.450122 0.190619
vt 0.448379 0.204384
vt 0.448379 0.204384
vt 0.442962 0.167820
vt 0.444411 0.152071
vt 0.455004 0.235709
vt 0.453009 0.247152
vt 0.448379 0.204384
vt 0.448379 0.204384
vt 0.450122 0.190619
vt 0.455004 0.235709
vt 0.447527 0.377729
vt 0.440757 0.359403
vt 0.450872 0.318707
vt 0.450872 0.318707
vt 0.453207 0.363157
vt 0.447527 0.377729
vt 0.442859 0.305383
vt 0.447691 0.277665
vt 0.450872 0.318707
vt 0.450872 0.318707
vt 0.440757 0.359403
vt 0.442859 0.305383
vt 0.450350 0.262408
vt 0.453801 0.306925
vt 0.450872 0.318707
vt 0.450872 0.318707
vt 0.447691 0.277665
vt 0.450350 0.262408
vt 0.456334 0.355136
vt 0.453207 0.363157
vt 0.450872 0.318707
vt 0.450872 0.318707
vt 0.453801 0.306925
vt 0.456334 0.355136
vt 0.456334 0.355136
vt 0.453801 0.306925
vt 0.456730 0.295142
vt 0.456730 0.295142
vt 0.459460 0.347115
vt 0.456334 0.355136
vt 0.450350 0.262408
vt 0.453009 0.247152
vt 0.456730 0.295142
vt 0.456730 0.295142
vt 0.453801 0.306925
vt 0.450350 0.262408
vt 0.455004 0.235709
vt 0.458926 0.286305
vt 0.456730 0.295142
vt 0.456730 0.295142
vt 0.453009 0.247152
vt 0.455004 0.235709
vt 0.461805 0.341100
vt 0.459460 0.347115
vt 0.456730 0.295142
vt 0.456730 0.295142
vt 0.458926 0.286305
vt 0.461805 0.341100
vt 0.449136 0.457925
vt 0.443414 0.423977
vt 0.454627 0.409954
vt 0.454627 0.409954
vt 0.455108 0.457925
vt 0.449136 0.457925
vt 0.447527 0.377729
vt 0.453207 0.363157
vt 0.454627 0.409954
vt 0.454627 0.409954
vt 0.443414 0.423977
vt 0.447527 0.377729
vt 0.456334 0.355136
vt 0.457874 0.405894
vt 0.454627 0.409954
vt 0.454627 0.409954
vt 0.453207 0.363157
vt 0.456334 0.355136
vt 0.458396 0.457925
vt 0.455108 0.457925
vt 0.454627 0.409954
vt 0.454627 0.409954
vt 0.457874 0.405894
vt 0.458396 0.457925
vt 0.458396 0.457925
vt 0.457874 0.405894
vt 0.461120 0.401834
vt 0.461120 0.401834
vt 0.461683 0.457925
vt 0.458396 0.457925
vt 0.456334 0.355136
vt 0.459460 0.347115
vt 0.461120 0.401834
vt 0.461120 0.401834
vt 0.457874 0.405894
vt 0.456334 0.355136
vt 0.461805 0.341100
vt 0.463555 0.398789
vt 0.461120 0.401834
vt 0.461120 0.401834
vt 0.459460 0.347115
vt 0.461805 0.341100
vt 0.464148 0.457925
vt 0.461683 0.457925
vt 0.461120 0.401834
vt 0.461120 0.401834
vt 0.463555 0.398789
vt 0.464148 0.457925
f 1/1 2/2 3/3
f 3/4 4/5 1/6
f 5/7 6/8 3/9
f 3/10 2/11 5/12
f 7/13 8/14 3/15
f 3/16 6/17 7/18
f 9/19 10/20 3/21
f 3/22 8/23 9/24
f 11/25 12/26 3/27
f 3/28 10/29 11/30
f 13/31 14/32 3/33
f 3/34 12/35 13/36
f 15/37 16/38 3/39
f 3/40 14/41 15/42
f 17/43 18/44 3/45
f 3/46 16/47 17/48
f 19/49 20/50 3/51
f 3/52 18/53 19/54
f 21/55 22/56 3/57
f 3/58 20/59 21/60
f 23/61 24/62 3/63
f 3/64 22/65 23/66
f 25/67 26/68 3/69
f 3/70 24/71 25/72
f 27/73 28/74 3/75
f 3/76 26/77 27/78
f 29/79 30/80 3/81
f 3/82 28/83 29/84
f 31/85 32/86 3/87
f 3/88 30/89 31/90
f 33/91 34/92 3/93
f 3/94 32/95 33/96
f 35/97 36/98 3/99
f 3/100 34/101 35/102
f 37/103 38/104 3/105
f 3/106 36/107 37/108
f 39/109 40/110 3/111
f 3/112 38/113 39/114
f 41/115 4/116 3/117
f 3/118 40/119 41/120
f 5/121 2/122 42/123
f 42/124 43/125 5/126
f 1/127 44/128 42/129
f 42/130 2/131 1/132
f 45/133 46/134 42/135
f 42/136 44/137 45/138
f 47/139 43/140 42/141
f 42/142 46/143 47/144
f 47/145 46/146 48/147
f 48/148 49/149 47/150
f 45/151 50/152 48/153
f 48/154 46/155 45/156
f 51/157 52/158 48/159
f 48/160 50/161 51/162
f 53/163 49/164 48/165
f 48/166 52/167 53/168
f 7/169 6/170 54/171
f 54/172 55/173 7/174
f 5/175 43/176 54/177
f 54/178 6/179 5/180
f 47/181 56/182 54/183
f 54/184 43/185 47/186
f 57/187 55/188 54/189
f 54/190 56/191 57/192
f 57/193 56/194 58/195
f 58/196 59/197 57/198
f 47/199 49/200 58/201
f 58/202 56/203 47/204
f 53/205 60/206 58/207
f 58/208 49/209 53/210
f 61/211 59/212 58/213
f 58/214 60/215 61/216
f 9/217 8/218 62/219
f 62/220 63/221 9/222
f 7/223 55/224 62/225
f 62/226 8/227 7/228
f 57/229 64/230 62/231
f 62/232 55/233 57/234
f 65/235 63/236 62/237
f 62/238 64/239 65/240
f 65/241 64/242 66/243
f 66/244 67/245 65/246
f 57/247 59/248 66/249
f 66/250 64/251 57/252
f 61/253 68/254 66/255
f 66/256 59/257 61/258
f 69/259 67/260 66/261
f 66/262 68/263 69/264
f 11/265 10/266 70/267
f 70/268 71/269 11/270
f 9/271 63/272 70/273
f 70/274 10/275 9/276
f 65/277 72/278 70/279
f 70/280 63/281 65/282
f 73/283 71/284 70/285
f 70/286 72/287 73/288
f 73/289 72/290 74/291
f 74/292 75/293 73/294
f 65/295 67/296 74/297
f 74/298 72/299 65/300
f 69/301 76/302 74/303
f 74/304 67/305 69/306
f 77/307 75/308 74/309
f 74/310 76/311 77/312
f 13/313 12/314 78/315
f 78/316 79/317 13/318
f 11/319 71/320 78/321
f 78/322 12/323 11/324
f 73/325 80/326 78/327
f 78/328 71/329 73/330
f 81/331 79/332 78/333
f 78/334 80/335 81/336
f 81/337 80/338 82/339
f 82/340 83/341 81/342
f 73/343 75/344 82/345
f 82/346 80/347 73/348
f 77/349 84/350 82/351
f 82/352 75/353 77/354
f 85/355 83/356 82/357
f 82/358 84/359 85/360
f 15/361 14/362 86/363
f 86/364 87/365 15/366
f 13/367 79/368 86/369
f 86/370 14/371 13/372
f 81/373 88/374 86/375
f 86/376 79/377 81/378
f 89/379 87/380 86/381
f 86/382 88/383 89/384
f 89/385 88/386 90/387
f 90/388 91/389 89/390
f 81/391 83/392 90/393
f 90/394 88/395 81/396
f 85/397 92/398 90/399
f 90/400 83/401 85/402
f 93/403 91/404 90/405
f 90/406 92/407 93/408
f 17/409 16/410 94/411
f 94/412 95/413 17/414
f 15/415 87/416 94/417
f 94/418 16/419 15/420
f 89/421 96/422 94/423
f 94/424 87/425 89/426
f 97/427 95/428 94/429
f 94/430 96/431 97/432
f 97/433 96/434 98/435
f 98/436 99/437 97/438
f 89/439 91/440 98/441
f 98/442 96/443 89/444
f 93/445 100/446 98/447
f 98/448 91/449 93/450
f 101/451 99/452 98/453
f 98/454 100/455 101/456
f 19/457 18/458 102/459
f 102/460 103/461 19/462
f 17/463 95/464 102/465
f 102/466 18/467 17/468
f 97/469 104/470 102/471
f 102/472 95/473 97/474
f 105/475 103/476 102/477
f 102/478 104/479 105/480
f 105/481 104/482 106/483
f 106/484 107/485 105/486
f 97/487 99/488 106/489
f 106/490 104/491 97/492
f 101/493 108/494 106/495
f 106/496 99/497 101/498
f 109/499 107/500 106/501
f 106/502 108/503 109/504
f 21/505 20/506 110/507
f 110/508 111/509 21/510
f 19/511 103/512 110/513
f 110/514 20/515 19/516
f 105/517 112/518 110/519
f 110/520 103/521 105/522
f 113/523 111/524 110/525
f 110/526 112/527 113/528
f 113/529 112/530 114/531
f 114/532 115/533 113/534
f 105/535 107/536 114/537
f 114/538 112/539 105/540
f 109/541 116/542 114/543
f 114/544 107/545 109/546
f 117/547 115/548 114/549
f 114/550 116/551 117/552
f 23/553 22/554 118/555
f 118/556 119/557 23/558
f 21/559 111/560 118/561
f 118/562 22/563 21/564
f 113/565 120/566 118/567
f 118/568 111/569 113/570
f 121/571 119/572 118/573
f 118/574 120/575 121/576
f 121/577 120/578 122/579
f 122/580 123/581 121/582
f 113/583 115/584 122/585
f 122/586 120/587 113/588
f 117/589 124/590 122/591
f 122/592 115/593 117/594
f 125/595 123/596 122/597
f 122/598 124/599 125/600
f 25/601 24/602 126/603
f 126/604 127/605 25/606
f 23/607 119/608 126/609
f 126/610 24/611 23/612
f 121/613 128/614 126/615
f 126/616 119/617 121/618
f 129/619 127/620 126/621
f 126/622 128/623 129/624
f 129/625 128/626 130/627
f 130/628 131/629 129/630
f 121/631 123/632 130/633
f 130/634 128/635 121/636
f 125/637 132/638 130/639
f 130/640 123/641 125/642
f 133/643 131/644 130/645
f 130/646 132/647 133/648
f 27/649 26/650 134/651
f 134/652 135/653 27/654
f 25/655 127/656 134/657
f 134/658 26/659 25/660
f 129/661 136/662 134/663
f 134/664 127/665 129/666
f 137/667 135/668 134/669
f 134/670 136/671 137/672
f 137/673 136/674 138/675
f 138/676 139/677 137/678
f 129/679 131/680 138/681
f 138/682 136/683 129/684
f 133/685 140/686 138/687
f 138/688 131/689 133/690
f 141/691 139/692 138/693
f 138/694 140/695 141/696
f 29/697 28/698 142/699
f 142/700 143/701 29/702
f 27/703 135/704 142/705
f 142/706 28/707 27/708
f 137/709 144/710 142/711
f 142/712 135/713 137/714
f 145/715 143/716 142/717
f 142/718 144/719 145/720
f 145/721 144/722 146/723
f 146/724 147/725 145/726
f 137/727 139/728 146/729
f 146/730 144/731 137/732
f 141/733 148/734 146/735
f 146/736 139/737 141/738
f 149/739 147/740 146/741
f 146/742 148/743 149/744
f 31/745 30/746 150/747
f 150/748 151/749 31/750
f 29/751 143/752 150/753
f 150/754 30/755 29/756
f 145/757 152/758 150/759
f 150/760 143/761 145/762
f 153/763 151/764 150/765
f 150/766 152/767 153/768
f 153/769 152/770 154/771
f 154/772 155/773 153/774
f 145/775 147/776 154/777
f 154/778 152/779 145/780
f 149/781 156/782 154/783
f 154/784 147/785 149/786
f 157/787 155/788 154/789
f 154/790 156/791 157/792
f 33/793 32/794 158/795
f 158/796 159/797 33/798
f 31/799 151/800 158/801
f 158/802 32/803 31/804
f 153/805 160/806 158/807
f 158/808 151/809 153/810
f 161/811 159/812 158/813
f 158/814 160/815 161/816
f 161/817 160/818 162/819
f 162/820 163/821 161/822
f 153/823 155/824 162/825
f 162/826 160/827 153/828
f 157/829 164/830 162/831
f 162/832 155/833 157/834
f 165/835 163/836 162/837
f 162/838 164/839 165/840
f 35/841 34/842 166/843
f 166/844 167/845 35/846
f 33/847 159/848 166/849
f 166/850 34/851 33/852
f 161/853 168/854 166/855
f 166/856 159/857 161/858
f 169/859 167/860 166/861
f 166/862 168/863 169/864
f 169/865 168/866 170/867
f 170/868 171/869 169/870
f 161/871 163/872 170/873
f 170/874 168/875 161/876
f 165/877 172/878 170/879
f 170/880 163/881 165/882
f 173/883 171/884 170/885
f 170/886 172/887 173/888
f 37/889 36/890 174/891
f 174/892 175/893 37/894
f 35/895 167/896 174/897
f 174/898 36/899 35/900
f 169/901 176/902 174/903
f 174/904 167/905 169/906
f 177/907 175/908 174/909
f 174/910 176/911 177/912
f 177/913 176/914 178/915
f 178/916 179/917 177/918
f 169/919 171/920 178/921
f 178/922 176/923 169/924
f 173/925 180/926 178/927
f 178/928 171/929 173/930
f 181/931 179/932 178/933
f 178/934 180/935 181/936
f 39/937 38/938 182/939
f 182/940 183/941 39/942
f 37/943 175/944 182/945
f 182/946 38/947 37/948
f 177/949 184/950 182/951
f 182/952 175/953 177/954
f 185/955 183/956 182/957
f 182/958 184/959 185/960
f 185/961 184/962 186/963
f 186/964 187/965 185/966
f 177/967 179/968 186/969
f 186/970 184/971 177/972
f 181/973 188/974 186/975
f 186/976 179/977 181/978
f 189/979 187/980 186/981
f 186/982 188/983 189/984
f 41/985 40/986 190/987
f 190/988 191/989 41/990
f 39/991 183/992 190/993
f 190/994 40/995 39/996
f 185/997 192/998 190/999
f 190/1000 183/1001 185/1002
f 193/1003 191/1004 190/1005
f 190/1006 192/1007 193/1008
f 193/1009 192/1010 194/1011
f 194/1012 195/1013 193/1014
f 185/1015 187/1016 194/1017
f 194/1018 192/1019 185/1020
f 189/1021 196/1022 194/1023
f 194/1024 187/1025 189/1026
f 197/1027 195/1028 194/1029
f 194/1030 196/1031 197/1032
f 1/1033 4/1034 198/1035
f 198/1036 44/1037 1/1038
f 41/1039 191/1040 198/1041
f 198/1042 4/1043 41/1044
f 193/1045 199/1046 198/1047
f 198/1048 191/1049 193/1050
f 45/1051 44/1052 198/1053
f 198/1054 199/1055 45/1056
f 45/1057 199/1058 200/1059
f 200/1060 50/1061 45/1062
f 193/1063 195/1064 200/1065
f 200/1066 199/1067 193/1068
f 197/1069 201/1070 200/1071
f 200/1072 195/1073 197/1074
f 51/1075 50/1076 200/1077
f 200/1078 201/1079 51/1080
