# USD → MuJoCo (world-space)
v -3.324566 7.410474 0.049287
v -3.329763 7.401538 0.050759
v -3.313823 7.365382 0.024999
v -3.312567 7.377744 0.028587
v -3.320894 7.416635 0.048355
v -3.311260 7.390122 0.032219
v -3.330528 7.443147 0.064491
v -3.336564 7.443204 0.069987
v -3.342525 7.443175 0.075632
v -3.353901 7.430000 0.087824
v -3.340345 7.396888 0.087959
v -3.346710 7.362694 0.066397
v -3.352315 7.400954 0.072086
v -3.361585 7.465728 0.084801
v -3.354473 7.448983 0.084924
v -3.367249 7.482898 0.083511
v -3.350280 7.457952 0.098713
v -3.328902 7.429775 0.104114
v -3.354432 7.494612 0.137907
v -3.338571 7.467587 0.156154
v -3.328629 7.450550 0.123855
v -3.350452 7.478267 0.114003
v -3.367487 7.515095 0.109654
v -3.368756 7.499415 0.092479
v -3.365449 7.533363 0.127177
v -3.355438 7.520843 0.164544
v -3.345769 7.495646 0.189659
v -3.344637 7.588588 0.168142
v -3.346010 7.576625 0.173377
v -3.359752 7.559138 0.137324
v -3.356496 7.570953 0.139514
v -3.343469 7.596660 0.164292
v -3.353034 7.582714 0.141420
v -3.333904 7.610604 0.187166
v -3.332779 7.606224 0.196768
v -3.331554 7.601687 0.206305
v -3.269208 7.359373 0.021967
v -3.263505 7.379739 0.024649
v -3.289596 7.303977 0.018995
v -3.300052 7.266563 0.018723
v -3.274383 7.351104 0.024649
v -3.301110 7.266278 0.017443
v -3.255552 7.405782 0.034262
v -3.248415 7.418095 0.029598
v -3.246286 7.425663 0.034098
v -3.247720 7.408643 0.046001
v -3.246810 7.411911 0.051137
v -3.252514 7.400167 0.048685
v -3.256272 7.372929 0.061516
v -3.254862 7.375584 0.061802
v -3.253997 7.378832 0.066970
v -3.291457 7.383221 0.144726
v -3.289469 7.386631 0.147874
v -3.265713 7.368240 0.093260
v -3.266847 7.364958 0.088587
v -3.291965 7.382358 0.143911
v -3.267185 7.364207 0.087426
v -3.316403 7.411033 0.194487
v -3.315734 7.412027 0.194953
v -3.313019 7.415264 0.196153
v -3.323165 7.448545 0.196492
v -3.320503 7.450874 0.195918
v -3.323888 7.447491 0.196154
v -3.322896 7.487840 0.173366
v -3.322173 7.488921 0.173687
v -3.319953 7.489973 0.171425
v -3.213963 7.593979 0.082889
v -3.212562 7.602159 0.084562
v -3.212146 7.609103 0.070219
v -3.213365 7.602864 0.061281
v -3.215693 7.585226 0.081058
v -3.214979 7.596924 0.052373
v -3.216408 7.573529 0.109743
v -3.214562 7.585096 0.104496
v -3.213098 7.597030 0.099214
v -3.237716 7.456602 0.116600
v -3.232798 7.481319 0.152439
v -3.225440 7.517142 0.135448
v -3.229204 7.499614 0.095121
v -3.241985 7.435231 0.085534
v -3.234348 7.475170 0.064855
v -3.249254 7.402023 0.101486
v -3.244828 7.423369 0.132489
v -3.239672 7.448083 0.168212
v -3.264290 7.430470 0.186450
v -3.250319 7.454950 0.207396
v -3.245039 7.437201 0.184031
v -3.252492 7.412553 0.152047
v -3.276350 7.409376 0.168253
v -3.258890 7.391282 0.124272
v -3.294403 7.435420 0.203594
v -3.277184 7.454978 0.212390
v -3.255721 7.475076 0.228357
v -3.275107 7.505111 0.184967
v -3.278733 7.495307 0.190403
v -3.296500 7.502204 0.156827
v -3.290801 7.508009 0.158314
v -3.272606 7.511858 0.181166
v -3.285100 7.514019 0.159784
v -3.260112 7.509698 0.202549
v -3.259413 7.502212 0.211620
v -3.258713 7.494502 0.220632
v -3.341783 7.614928 0.158016
v -3.341379 7.611250 0.157648
v -3.346311 7.604739 0.146377
v -3.344686 7.612679 0.153180
v -3.339876 7.619414 0.164712
v -3.343776 7.619399 0.161738
v -3.336697 7.618321 0.169385
v -3.342162 7.604687 0.160268
v -3.349366 7.594363 0.143081
v -3.334959 7.615010 0.177454
v -3.347930 7.556921 0.181566
v -3.330201 7.596815 0.215821
v -3.340948 7.535081 0.204868
v -3.328626 7.579928 0.216438
v -3.362804 7.547326 0.134806
v -3.266048 7.529500 0.171302
v -3.267910 7.524591 0.174067
v -3.273897 7.526711 0.163033
v -3.268303 7.532556 0.164705
v -3.262121 7.530775 0.175441
v -3.262704 7.538163 0.166384
v -3.261505 7.523555 0.184487
v -3.270152 7.518532 0.177444
v -3.279481 7.520392 0.161375
v -3.260822 7.516671 0.193514
v -3.284566 7.479466 0.199032
v -3.258001 7.486858 0.229490
v -3.302170 7.464044 0.192901
v -3.302115 7.496444 0.155187
v -3.308024 7.492084 0.156481
v -3.222250 7.541052 0.072500
v -3.218605 7.562442 0.076595
v -3.216689 7.584019 0.034394
v -3.217792 7.577786 0.025411
v -3.230430 7.507452 0.044798
v -3.228801 7.534926 0.019078
v -3.221319 7.537005 0.125988
v -3.219174 7.549036 0.120396
v -3.216830 7.575940 0.079204
v -3.215919 7.590520 0.043396
v -3.217741 7.561359 0.115012
v -3.212413 7.609722 0.085943
v -3.212913 7.610298 0.093838
v -3.212390 7.616404 0.079285
v -3.213366 7.624234 0.088415
v -3.311520 7.434074 0.044312
v -3.314029 7.428615 0.046204
v -3.308913 7.415869 0.038074
v -3.308021 7.429986 0.039298
v -3.312877 7.443416 0.047106
v -3.307234 7.444580 0.039872
v -3.318608 7.442674 0.053779
v -3.317267 7.422741 0.047440
v -3.310018 7.402706 0.035548
v -3.324517 7.442777 0.059331
v -3.337968 7.387103 0.053298
v -3.348307 7.443283 0.081239
v -3.335298 7.346844 0.044173
v -3.314917 7.352849 0.021806
v -3.314418 7.333166 0.018826
v -3.323904 7.316792 0.044189
v -3.307280 7.306554 0.044143
v -3.306458 7.269852 0.014293
v -3.310894 7.299353 0.015879
v -3.328194 7.338564 0.067876
v -3.302672 7.337792 0.066106
v -3.288923 7.325744 0.034836
v -3.303221 7.263101 0.015390
v -3.276048 7.369606 0.050666
v -3.247380 7.441390 0.030554
v -3.240820 7.447604 0.045182
v -3.259291 7.418544 0.018027
v -3.315045 7.369008 0.082321
v -3.287203 7.358099 0.072294
v -3.298706 7.395135 0.089908
v -3.271648 7.368949 0.071230
v -3.266017 7.375902 0.059265
v -3.259686 7.366132 0.063212
v -3.244957 7.420555 0.064013
v -3.252219 7.387412 0.079922
v -3.317099 7.427480 0.154387
v -3.298788 7.392680 0.145710
v -3.275469 7.374375 0.091772
v -3.299768 7.409692 0.110367
v -3.332706 7.456332 0.196459
v -3.321437 7.421663 0.194725
v -3.292409 7.381575 0.143228
v -3.267334 7.363280 0.086306
v -3.317153 7.410404 0.194239
v -3.284588 7.395056 0.155555
v -3.306129 7.422621 0.198608
v -3.263179 7.376763 0.104916
v -3.333438 7.495306 0.206001
v -3.327377 7.458835 0.198537
v -3.326733 7.539341 0.199280
v -3.324962 7.500101 0.179749
v -3.324743 7.446908 0.196045
v -3.323755 7.487250 0.173249
v -3.313827 7.455277 0.193292
v -3.314604 7.490477 0.163792
v -3.349008 7.468519 0.102959
v -3.369070 7.489874 0.083693
v -3.348967 7.470288 0.103975
v -3.369025 7.491649 0.084703
v -3.325109 7.443043 0.111106
v -3.325080 7.441700 0.110109
v -3.293422 7.403958 0.093024
v -3.293653 7.404032 0.093953
v -3.267205 7.370610 0.072299
v -3.266781 7.371816 0.071439
v -3.247583 7.411269 0.138341
v -3.252067 7.389933 0.107362
v -3.248075 7.409645 0.139178
v -3.252569 7.388311 0.108202
v -3.242818 7.434352 0.174852
v -3.242338 7.435978 0.174021
v -3.257909 7.361797 0.065086
v -3.258369 7.360134 0.065924
v -3.258271 7.361054 0.067191
v -3.257832 7.362741 0.066352
v -3.257577 7.363485 0.067626
v -3.258038 7.361822 0.068466
v -3.257261 7.365143 0.073644
v -3.256769 7.366773 0.072805
v -3.255030 7.375344 0.085784
v -3.255534 7.373725 0.086623
v -3.349039 7.471848 0.105174
v -3.369095 7.493214 0.085897
v -3.325217 7.444180 0.112263
v -3.293861 7.403909 0.094978
v -3.267521 7.369241 0.073190
v -3.248399 7.407843 0.140018
v -3.252903 7.386511 0.109047
v -3.243129 7.432547 0.175686
v -3.258749 7.358381 0.066768
v -3.258672 7.359325 0.068034
v -3.258417 7.360069 0.069310
v -3.257609 7.363355 0.074489
v -3.255872 7.371925 0.087470
vt -0.104167 0.078125
vt -0.134375 0.100781
vt -0.250000 -0.000000
vt -0.250000 -0.000000
vt -0.208333 -0.000000
vt -0.104167 0.078125
vt -0.083333 0.062500
vt -0.104167 0.078125
vt -0.208333 -0.000000
vt -0.208333 -0.000000
vt -0.166667 -0.000000
vt -0.083333 0.062500
vt -0.104167 0.078125
vt -0.083333 0.062500
vt -0.000000 0.125000
vt -0.000000 0.125000
vt -0.000000 0.156250
vt -0.104167 0.078125
vt -0.134375 0.100781
vt -0.104167 0.078125
vt -0.000000 0.156250
vt -0.000000 0.156250
vt -0.000000 0.187500
vt -0.134375 0.100781
vt -0.166667 0.370126
vt -0.311042 0.370126
vt -0.312083 0.249563
vt -0.312083 0.249563
vt -0.170833 0.251907
vt -0.166667 0.370126
vt -0.000000 0.370126
vt -0.166667 0.370126
vt -0.170833 0.251907
vt -0.170833 0.251907
vt -0.000000 0.272219
vt -0.000000 0.370126
vt -0.166667 0.370126
vt -0.000000 0.370126
vt -0.000000 0.461439
vt -0.000000 0.461439
vt -0.166667 0.461439
vt -0.166667 0.370126
vt -0.311042 0.370126
vt -0.166667 0.370126
vt -0.166667 0.461439
vt -0.166667 0.461439
vt -0.311042 0.461439
vt -0.311042 0.370126
vt -0.166667 0.629874
vt -0.311042 0.629874
vt -0.311042 0.538561
vt -0.311042 0.538561
vt -0.166667 0.538561
vt -0.166667 0.629874
vt -0.000000 0.629874
vt -0.166667 0.629874
vt -0.166667 0.538561
vt -0.166667 0.538561
vt -0.000000 0.538561
vt -0.000000 0.629874
vt -0.166667 0.629874
vt -0.000000 0.629874
vt -0.000000 0.727781
vt -0.000000 0.727781
vt -0.170833 0.748093
vt -0.166667 0.629874
vt -0.311042 0.629874
vt -0.166667 0.629874
vt -0.170833 0.748093
vt -0.170833 0.748093
vt -0.312083 0.750437
vt -0.311042 0.629874
vt -0.104167 0.921875
vt -0.134375 0.899219
vt -0.000000 0.812500
vt -0.000000 0.812500
vt -0.000000 0.843750
vt -0.104167 0.921875
vt -0.083333 0.937500
vt -0.104167 0.921875
vt -0.000000 0.843750
vt -0.000000 0.843750
vt -0.000000 0.875000
vt -0.083333 0.937500
vt -0.104167 0.921875
vt -0.083333 0.937500
vt -0.166667 1.000000
vt -0.166667 1.000000
vt -0.208333 1.000000
vt -0.104167 0.921875
vt -0.134375 0.899219
vt -0.104167 0.921875
vt -0.208333 1.000000
vt -0.208333 1.000000
vt -0.250000 1.000000
vt -0.134375 0.899219
vt -0.505833 0.125000
vt -0.529583 0.125000
vt -0.529583 -0.000000
vt -0.529583 -0.000000
vt -0.505833 -0.000000
vt -0.505833 0.125000
vt -0.500000 0.125000
vt -0.505833 0.125000
vt -0.505833 -0.000000
vt -0.505833 -0.000000
vt -0.500000 -0.000000
vt -0.500000 0.125000
vt -0.505833 0.125000
vt -0.500000 0.125000
vt -0.500000 0.248781
vt -0.500000 0.248781
vt -0.505833 0.248781
vt -0.505833 0.125000
vt -0.529583 0.125000
vt -0.505833 0.125000
vt -0.505833 0.248781
vt -0.505833 0.248781
vt -0.529583 0.248781
vt -0.529583 0.125000
vt -0.505833 0.370126
vt -0.529583 0.370126
vt -0.529583 0.248781
vt -0.529583 0.248781
vt -0.505833 0.248781
vt -0.505833 0.370126
vt -0.500000 0.370126
vt -0.505833 0.370126
vt -0.505833 0.248781
vt -0.505833 0.248781
vt -0.500000 0.248781
vt -0.500000 0.370126
vt -0.505833 0.370126
vt -0.500000 0.370126
vt -0.500000 0.461439
vt -0.500000 0.461439
vt -0.505833 0.461439
vt -0.505833 0.370126
vt -0.529583 0.370126
vt -0.505833 0.370126
vt -0.505833 0.461439
vt -0.505833 0.461439
vt -0.529583 0.461439
vt -0.529583 0.370126
vt -0.505833 0.629874
vt -0.529583 0.629874
vt -0.529583 0.538561
vt -0.529583 0.538561
vt -0.505833 0.538561
vt -0.505833 0.629874
vt -0.500000 0.629874
vt -0.505833 0.629874
vt -0.505833 0.538561
vt -0.505833 0.538561
vt -0.500000 0.538561
vt -0.500000 0.629874
vt -0.505833 0.629874
vt -0.500000 0.629874
vt -0.500000 0.751219
vt -0.500000 0.751219
vt -0.505833 0.751218
vt -0.505833 0.629874
vt -0.529583 0.629874
vt -0.505833 0.629874
vt -0.505833 0.751218
vt -0.505833 0.751218
vt -0.529583 0.751219
vt -0.529583 0.629874
vt -0.505833 0.875000
vt -0.529583 0.875000
vt -0.529583 0.751219
vt -0.529583 0.751219
vt -0.505833 0.751218
vt -0.505833 0.875000
vt -0.500000 0.875000
vt -0.505833 0.875000
vt -0.505833 0.751218
vt -0.505833 0.751218
vt -0.500000 0.751219
vt -0.500000 0.875000
vt -0.505833 0.875000
vt -0.500000 0.875000
vt -0.500000 1.000000
vt -0.500000 1.000000
vt -0.505833 1.000000
vt -0.505833 0.875000
vt -0.529583 0.875000
vt -0.505833 0.875000
vt -0.505833 1.000000
vt -0.505833 1.000000
vt -0.529583 1.000000
vt -0.529583 0.875000
vt -0.937500 0.046875
vt -0.956597 0.032552
vt -0.916667 -0.000000
vt -0.916667 -0.000000
vt -0.875000 -0.000000
vt -0.937500 0.046875
vt -0.916667 0.062500
vt -0.937500 0.046875
vt -0.875000 -0.000000
vt -0.875000 -0.000000
vt -0.833333 -0.000000
vt -0.916667 0.062500
vt -0.937500 0.046875
vt -0.916667 0.062500
vt -1.000000 0.125000
vt -1.000000 0.125000
vt -1.000000 0.093750
vt -0.937500 0.046875
vt -0.956597 0.032552
vt -0.937500 0.046875
vt -1.000000 0.093750
vt -1.000000 0.093750
vt -1.000000 0.062500
vt -0.956597 0.032552
vt -0.833333 0.370126
vt -1.000000 0.370126
vt -1.000000 0.272219
vt -1.000000 0.272219
vt -0.829167 0.251906
vt -0.833333 0.370126
vt -0.688958 0.370126
vt -0.833333 0.370126
vt -0.829167 0.251906
vt -0.829167 0.251906
vt -0.687917 0.249563
vt -0.688958 0.370126
vt -0.833333 0.370126
vt -0.688958 0.370126
vt -0.688958 0.461439
vt -0.688958 0.461439
vt -0.833333 0.461439
vt -0.833333 0.370126
vt -1.000000 0.370126
vt -0.833333 0.370126
vt -0.833333 0.461439
vt -0.833333 0.461439
vt -1.000000 0.461439
vt -1.000000 0.370126
vt -0.833333 0.629874
vt -1.000000 0.629874
vt -1.000000 0.538561
vt -1.000000 0.538561
vt -0.833333 0.538561
vt -0.833333 0.629874
vt -0.688958 0.629874
vt -0.833333 0.629874
vt -0.833333 0.538561
vt -0.833333 0.538561
vt -0.688958 0.538561
vt -0.688958 0.629874
vt -0.833333 0.629874
vt -0.688958 0.629874
vt -0.687917 0.750437
vt -0.687917 0.750437
vt -0.829167 0.748093
vt -0.833333 0.629874
vt -1.000000 0.629874
vt -0.833333 0.629874
vt -0.829167 0.748093
vt -0.829167 0.748093
vt -1.000000 0.727781
vt -1.000000 0.629874
vt -0.895833 0.921875
vt -0.865625 0.899219
vt -0.750000 1.000000
vt -0.750000 1.000000
vt -0.791667 1.000000
vt -0.895833 0.921875
vt -0.916667 0.937500
vt -0.895833 0.921875
vt -0.791667 1.000000
vt -0.791667 1.000000
vt -0.833333 1.000000
vt -0.916667 0.937500
vt -0.895833 0.921875
vt -0.916667 0.937500
vt -1.000000 0.875000
vt -1.000000 0.875000
vt -1.000000 0.843750
vt -0.895833 0.921875
vt -0.865625 0.899219
vt -0.895833 0.921875
vt -1.000000 0.843750
vt -1.000000 0.843750
vt -1.000000 0.812500
vt -0.865625 0.899219
vt -0.027778 0.979167
vt -0.043403 0.967448
vt -0.000000 0.937500
vt -0.000000 0.937500
vt -0.000000 0.968750
vt -0.027778 0.979167
vt -0.041667 1.000000
vt -0.027778 0.979167
vt -0.000000 0.968750
vt -0.000000 0.968750
vt -0.000000 1.000000
vt -0.041667 1.000000
vt -0.027778 0.979167
vt -0.041667 1.000000
vt -0.083333 1.000000
vt -0.083333 1.000000
vt -0.043403 0.967448
vt -0.027778 0.979167
vt -0.062500 0.953125
vt -0.083333 0.937500
vt -0.000000 0.875000
vt -0.000000 0.875000
vt -0.000000 0.906250
vt -0.062500 0.953125
vt -0.043403 0.967448
vt -0.062500 0.953125
vt -0.000000 0.906250
vt -0.000000 0.906250
vt -0.000000 0.937500
vt -0.043403 0.967448
vt -0.062500 0.953125
vt -0.043403 0.967448
vt -0.083333 1.000000
vt -0.083333 1.000000
vt -0.125000 1.000000
vt -0.062500 0.953125
vt -0.083333 0.937500
vt -0.062500 0.953125
vt -0.125000 1.000000
vt -0.125000 1.000000
vt -0.166667 1.000000
vt -0.083333 0.937500
vt -0.183333 0.862500
vt -0.134375 0.899219
vt -0.250000 1.000000
vt -0.250000 1.000000
vt -0.291667 1.000000
vt -0.183333 0.862500
vt -0.315208 0.871875
vt -0.183333 0.862500
vt -0.291667 1.000000
vt -0.291667 1.000000
vt -0.342292 1.000000
vt -0.315208 0.871875
vt -0.183333 0.862500
vt -0.315208 0.871875
vt -0.312083 0.750437
vt -0.312083 0.750437
vt -0.170833 0.748093
vt -0.183333 0.862500
vt -0.000000 0.781250
vt -0.183333 0.862500
vt -0.170833 0.748093
vt -0.170833 0.748093
vt -0.000000 0.727781
vt -0.000000 0.781250
vt -0.183333 0.862500
vt -0.000000 0.781250
vt -0.000000 0.812500
vt -0.000000 0.812500
vt -0.134375 0.899219
vt -0.183333 0.862500
vt -0.972222 0.979167
vt -0.956597 0.967448
vt -0.916667 1.000000
vt -0.916667 1.000000
vt -0.958333 1.000000
vt -0.972222 0.979167
vt -1.000000 0.968750
vt -0.972222 0.979167
vt -0.958333 1.000000
vt -0.958333 1.000000
vt -1.000000 1.000000
vt -1.000000 0.968750
vt -0.972222 0.979167
vt -1.000000 0.968750
vt -1.000000 0.937500
vt -1.000000 0.937500
vt -0.956597 0.967448
vt -0.972222 0.979167
vt -0.937500 0.953125
vt -0.916667 0.937500
vt -0.833333 1.000000
vt -0.833333 1.000000
vt -0.875000 1.000000
vt -0.937500 0.953125
vt -0.956597 0.967448
vt -0.937500 0.953125
vt -0.875000 1.000000
vt -0.875000 1.000000
vt -0.916667 1.000000
vt -0.956597 0.967448
vt -0.937500 0.953125
vt -0.956597 0.967448
vt -1.000000 0.937500
vt -1.000000 0.937500
vt -1.000000 0.906250
vt -0.937500 0.953125
vt -0.916667 0.937500
vt -0.937500 0.953125
vt -1.000000 0.906250
vt -1.000000 0.906250
vt -1.000000 0.875000
vt -0.916667 0.937500
vt -0.816667 0.862500
vt -0.865625 0.899219
vt -1.000000 0.812500
vt -1.000000 0.812500
vt -1.000000 0.781250
vt -0.816667 0.862500
vt -0.829167 0.748093
vt -0.816667 0.862500
vt -1.000000 0.781250
vt -1.000000 0.781250
vt -1.000000 0.727781
vt -0.829167 0.748093
vt -0.816667 0.862500
vt -0.829167 0.748093
vt -0.687917 0.750437
vt -0.687917 0.750437
vt -0.684792 0.871875
vt -0.816667 0.862500
vt -0.708333 1.000000
vt -0.816667 0.862500
vt -0.684792 0.871875
vt -0.684792 0.871875
vt -0.657708 1.000000
vt -0.708333 1.000000
vt -0.816667 0.862500
vt -0.708333 1.000000
vt -0.750000 1.000000
vt -0.750000 1.000000
vt -0.865625 0.899219
vt -0.816667 0.862500
vt -0.816667 0.137500
vt -0.865625 0.100781
vt -0.750000 -0.000000
vt -0.750000 -0.000000
vt -0.708333 -0.000000
vt -0.816667 0.137500
vt -0.684792 0.128125
vt -0.816667 0.137500
vt -0.708333 -0.000000
vt -0.708333 -0.000000
vt -0.657708 -0.000000
vt -0.684792 0.128125
vt -0.816667 0.137500
vt -0.684792 0.128125
vt -0.687917 0.249563
vt -0.687917 0.249563
vt -0.829167 0.251906
vt -0.816667 0.137500
vt -1.000000 0.218750
vt -0.816667 0.137500
vt -0.829167 0.251906
vt -0.829167 0.251906
vt -1.000000 0.272219
vt -1.000000 0.218750
vt -0.816667 0.137500
vt -1.000000 0.218750
vt -1.000000 0.187500
vt -1.000000 0.187500
vt -0.865625 0.100781
vt -0.816667 0.137500
vt -0.895833 0.078125
vt -0.916667 0.062500
vt -0.833333 -0.000000
vt -0.833333 -0.000000
vt -0.791667 -0.000000
vt -0.895833 0.078125
vt -0.865625 0.100781
vt -0.895833 0.078125
vt -0.791667 -0.000000
vt -0.791667 -0.000000
vt -0.750000 -0.000000
vt -0.865625 0.100781
vt -0.895833 0.078125
vt -0.865625 0.100781
vt -1.000000 0.187500
vt -1.000000 0.187500
vt -1.000000 0.156250
vt -0.895833 0.078125
vt -0.916667 0.062500
vt -0.895833 0.078125
vt -1.000000 0.156250
vt -1.000000 0.156250
vt -1.000000 0.125000
vt -0.916667 0.062500
vt -0.972222 0.020833
vt -0.956597 0.032552
vt -1.000000 0.062500
vt -1.000000 0.062500
vt -1.000000 0.031250
vt -0.972222 0.020833
vt -0.958333 -0.000000
vt -0.972222 0.020833
vt -1.000000 0.031250
vt -1.000000 0.031250
vt -1.000000 -0.000000
vt -0.958333 -0.000000
vt -0.972222 0.020833
vt -0.958333 -0.000000
vt -0.916667 -0.000000
vt -0.916667 -0.000000
vt -0.956597 0.032552
vt -0.972222 0.020833
vt -0.027778 0.020833
vt -0.043403 0.032552
vt -0.083333 -0.000000
vt -0.083333 -0.000000
vt -0.041667 -0.000000
vt -0.027778 0.020833
vt -0.000000 0.031250
vt -0.027778 0.020833
vt -0.041667 -0.000000
vt -0.041667 -0.000000
vt 0.000000 0.000000
vt -0.000000 0.031250
vt -0.027778 0.020833
vt -0.000000 0.031250
vt -0.000000 0.062500
vt -0.000000 0.062500
vt -0.043403 0.032552
vt -0.027778 0.020833
vt -0.062500 0.046875
vt -0.083333 0.062500
vt -0.166667 -0.000000
vt -0.166667 -0.000000
vt -0.125000 -0.000000
vt -0.062500 0.046875
vt -0.043403 0.032552
vt -0.062500 0.046875
vt -0.125000 -0.000000
vt -0.125000 -0.000000
vt -0.083333 -0.000000
vt -0.043403 0.032552
vt -0.062500 0.046875
vt -0.043403 0.032552
vt -0.000000 0.062500
vt -0.000000 0.062500
vt -0.000000 0.093750
vt -0.062500 0.046875
vt -0.083333 0.062500
vt -0.062500 0.046875
vt -0.000000 0.093750
vt -0.000000 0.093750
vt -0.000000 0.125000
vt -0.083333 0.062500
vt -0.183333 0.137500
vt -0.134375 0.100781
vt -0.000000 0.187500
vt -0.000000 0.187500
vt -0.000000 0.218750
vt -0.183333 0.137500
vt -0.170833 0.251907
vt -0.183333 0.137500
vt -0.000000 0.218750
vt -0.000000 0.218750
vt -0.000000 0.272219
vt -0.170833 0.251907
vt -0.183333 0.137500
vt -0.170833 0.251907
vt -0.312083 0.249563
vt -0.312083 0.249563
vt -0.315208 0.128125
vt -0.183333 0.137500
vt -0.291667 -0.000000
vt -0.183333 0.137500
vt -0.315208 0.128125
vt -0.315208 0.128125
vt -0.342292 -0.000000
vt -0.291667 -0.000000
vt -0.183333 0.137500
vt -0.291667 -0.000000
vt -0.250000 -0.000000
vt -0.250000 -0.000000
vt -0.134375 0.100781
vt -0.183333 0.137500
vt -0.410833 0.125000
vt -0.470417 0.125000
vt -0.470417 -0.000000
vt -0.470417 -0.000000
vt -0.410833 -0.000000
vt -0.410833 0.125000
vt -0.315208 0.128125
vt -0.410833 0.125000
vt -0.410833 -0.000000
vt -0.410833 -0.000000
vt -0.342292 -0.000000
vt -0.315208 0.128125
vt -0.410833 0.125000
vt -0.315208 0.128125
vt -0.312083 0.249563
vt -0.312083 0.249563
vt -0.410833 0.248781
vt -0.410833 0.125000
vt -0.470417 0.125000
vt -0.410833 0.125000
vt -0.410833 0.248781
vt -0.410833 0.248781
vt -0.470417 0.248781
vt -0.470417 0.125000
vt -0.494167 0.125000
vt -0.500000 0.125000
vt -0.500000 -0.000000
vt -0.500000 -0.000000
vt -0.494167 -0.000000
vt -0.494167 0.125000
vt -0.470417 0.125000
vt -0.494167 0.125000
vt -0.494167 -0.000000
vt -0.494167 -0.000000
vt -0.470417 -0.000000
vt -0.470417 0.125000
vt -0.494167 0.125000
vt -0.470417 0.125000
vt -0.470417 0.248781
vt -0.470417 0.248781
vt -0.494167 0.248781
vt -0.494167 0.125000
vt -0.500000 0.125000
vt -0.494167 0.125000
vt -0.494167 0.248781
vt -0.494167 0.248781
vt -0.500000 0.248781
vt -0.500000 0.125000
vt -0.589167 0.125000
vt -0.529583 0.125000
vt -0.529583 0.248781
vt -0.529583 0.248781
vt -0.589167 0.248781
vt -0.589167 0.125000
vt -0.684792 0.128125
vt -0.589167 0.125000
vt -0.589167 0.248781
vt -0.589167 0.248781
vt -0.687917 0.249563
vt -0.684792 0.128125
vt -0.589167 0.125000
vt -0.684792 0.128125
vt -0.657708 -0.000000
vt -0.657708 -0.000000
vt -0.589167 -0.000000
vt -0.589167 0.125000
vt -0.529583 0.125000
vt -0.589167 0.125000
vt -0.589167 -0.000000
vt -0.589167 -0.000000
vt -0.529583 -0.000000
vt -0.529583 0.125000
vt -0.410833 0.370126
vt -0.470417 0.370126
vt -0.470417 0.248781
vt -0.470417 0.248781
vt -0.410833 0.248781
vt -0.410833 0.370126
vt -0.311042 0.370126
vt -0.410833 0.370126
vt -0.410833 0.248781
vt -0.410833 0.248781
vt -0.312083 0.249563
vt -0.311042 0.370126
vt -0.410833 0.370126
vt -0.311042 0.370126
vt -0.311042 0.461439
vt -0.311042 0.461439
vt -0.410833 0.461439
vt -0.410833 0.370126
vt -0.470417 0.370126
vt -0.410833 0.370126
vt -0.410833 0.461439
vt -0.410833 0.461439
vt -0.470417 0.461439
vt -0.470417 0.370126
vt -0.494167 0.370126
vt -0.500000 0.370126
vt -0.500000 0.248781
vt -0.500000 0.248781
vt -0.494167 0.248781
vt -0.494167 0.370126
vt -0.470417 0.370126
vt -0.494167 0.370126
vt -0.494167 0.248781
vt -0.494167 0.248781
vt -0.470417 0.248781
vt -0.470417 0.370126
vt -0.494167 0.370126
vt -0.470417 0.370126
vt -0.470417 0.461439
vt -0.470417 0.461439
vt -0.494167 0.461439
vt -0.494167 0.370126
vt -0.500000 0.370126
vt -0.494167 0.370126
vt -0.494167 0.461439
vt -0.494167 0.461439
vt -0.500000 0.461439
vt -0.500000 0.370126
vt -0.589167 0.370126
vt -0.529583 0.370126
vt -0.529583 0.461439
vt -0.529583 0.461439
vt -0.589167 0.461439
vt -0.589167 0.370126
vt -0.688958 0.370126
vt -0.589167 0.370126
vt -0.589167 0.461439
vt -0.589167 0.461439
vt -0.688958 0.461439
vt -0.688958 0.370126
vt -0.589167 0.370126
vt -0.688958 0.370126
vt -0.687917 0.249563
vt -0.687917 0.249563
vt -0.589167 0.248781
vt -0.589167 0.370126
vt -0.529583 0.370126
vt -0.589167 0.370126
vt -0.589167 0.248781
vt -0.589167 0.248781
vt -0.529583 0.248781
vt -0.529583 0.370126
vt -0.410833 0.629874
vt -0.470417 0.629874
vt -0.470417 0.538561
vt -0.470417 0.538561
vt -0.410833 0.538561
vt -0.410833 0.629874
vt -0.311042 0.629874
vt -0.410833 0.629874
vt -0.410833 0.538561
vt -0.410833 0.538561
vt -0.311042 0.538561
vt -0.311042 0.629874
vt -0.410833 0.629874
vt -0.311042 0.629874
vt -0.312083 0.750437
vt -0.312083 0.750437
vt -0.410833 0.751218
vt -0.410833 0.629874
vt -0.470417 0.629874
vt -0.410833 0.629874
vt -0.410833 0.751218
vt -0.410833 0.751218
vt -0.470417 0.751219
vt -0.470417 0.629874
vt -0.494167 0.629874
vt -0.500000 0.629874
vt -0.500000 0.538561
vt -0.500000 0.538561
vt -0.494167 0.538561
vt -0.494167 0.629874
vt -0.470417 0.629874
vt -0.494167 0.629874
vt -0.494167 0.538561
vt -0.494167 0.538561
vt -0.470417 0.538561
vt -0.470417 0.629874
vt -0.494167 0.629874
vt -0.470417 0.629874
vt -0.470417 0.751219
vt -0.470417 0.751219
vt -0.494167 0.751218
vt -0.494167 0.629874
vt -0.500000 0.629874
vt -0.494167 0.629874
vt -0.494167 0.751218
vt -0.494167 0.751218
vt -0.500000 0.751219
vt -0.500000 0.629874
vt -0.589167 0.629874
vt -0.529583 0.629874
vt -0.529583 0.751219
vt -0.529583 0.751219
vt -0.589167 0.751218
vt -0.589167 0.629874
vt -0.688958 0.629874
vt -0.589167 0.629874
vt -0.589167 0.751218
vt -0.589167 0.751218
vt -0.687917 0.750437
vt -0.688958 0.629874
vt -0.589167 0.629874
vt -0.688958 0.629874
vt -0.688958 0.538561
vt -0.688958 0.538561
vt -0.589167 0.538561
vt -0.589167 0.629874
vt -0.529583 0.629874
vt -0.589167 0.629874
vt -0.589167 0.538561
vt -0.589167 0.538561
vt -0.529583 0.538561
vt -0.529583 0.629874
vt -0.410833 0.875000
vt -0.470417 0.875000
vt -0.470417 0.751219
vt -0.470417 0.751219
vt -0.410833 0.751218
vt -0.410833 0.875000
vt -0.315208 0.871875
vt -0.410833 0.875000
vt -0.410833 0.751218
vt -0.410833 0.751218
vt -0.312083 0.750437
vt -0.315208 0.871875
vt -0.410833 0.875000
vt -0.315208 0.871875
vt -0.342292 1.000000
vt -0.342292 1.000000
vt -0.410833 1.000000
vt -0.410833 0.875000
vt -0.470417 0.875000
vt -0.410833 0.875000
vt -0.410833 1.000000
vt -0.410833 1.000000
vt -0.470417 1.000000
vt -0.470417 0.875000
vt -0.494167 0.875000
vt -0.500000 0.875000
vt -0.500000 0.751219
vt -0.500000 0.751219
vt -0.494167 0.751218
vt -0.494167 0.875000
vt -0.470417 0.875000
vt -0.494167 0.875000
vt -0.494167 0.751218
vt -0.494167 0.751218
vt -0.470417 0.751219
vt -0.470417 0.875000
vt -0.494167 0.875000
vt -0.470417 0.875000
vt -0.470417 1.000000
vt -0.470417 1.000000
vt -0.494167 1.000000
vt -0.494167 0.875000
vt -0.500000 0.875000
vt -0.494167 0.875000
vt -0.494167 1.000000
vt -0.494167 1.000000
vt -0.500000 1.000000
vt -0.500000 0.875000
vt -0.589167 0.875000
vt -0.529583 0.875000
vt -0.529583 1.000000
vt -0.529583 1.000000
vt -0.589167 1.000000
vt -0.589167 0.875000
vt -0.684792 0.871875
vt -0.589167 0.875000
vt -0.589167 1.000000
vt -0.589167 1.000000
vt -0.657708 1.000000
vt -0.684792 0.871875
vt -0.589167 0.875000
vt -0.684792 0.871875
vt -0.687917 0.750437
vt -0.687917 0.750437
vt -0.589167 0.751218
vt -0.589167 0.875000
vt -0.529583 0.875000
vt -0.589167 0.875000
vt -0.589167 0.751218
vt -0.589167 0.751218
vt -0.529583 0.751219
vt -0.529583 0.875000
vt -0.166667 0.495126
vt -0.166667 0.461439
vt -0.000000 0.461439
vt -0.000000 0.461439
vt -0.000000 0.495126
vt -0.166667 0.495126
vt -0.166667 0.500000
vt -0.166667 0.495126
vt -0.000000 0.495126
vt -0.000000 0.495126
vt -0.000000 0.500000
vt -0.166667 0.500000
vt -0.166667 0.495126
vt -0.166667 0.500000
vt -0.311042 0.500000
vt -0.311042 0.500000
vt -0.311042 0.495126
vt -0.166667 0.495126
vt -0.166667 0.461439
vt -0.166667 0.495126
vt -0.311042 0.495126
vt -0.311042 0.495126
vt -0.311042 0.461439
vt -0.166667 0.461439
vt -0.410833 0.495126
vt -0.410833 0.461439
vt -0.311042 0.461439
vt -0.311042 0.461439
vt -0.311042 0.495126
vt -0.410833 0.495126
vt -0.410833 0.500000
vt -0.410833 0.495126
vt -0.311042 0.495126
vt -0.311042 0.495126
vt -0.311042 0.500000
vt -0.410833 0.500000
vt -0.410833 0.495126
vt -0.410833 0.500000
vt -0.470417 0.500000
vt -0.470417 0.500000
vt -0.470417 0.495126
vt -0.410833 0.495126
vt -0.410833 0.461439
vt -0.410833 0.495126
vt -0.470417 0.495126
vt -0.470417 0.495126
vt -0.470417 0.461439
vt -0.410833 0.461439
vt -0.833333 0.495126
vt -0.833333 0.461439
vt -0.688958 0.461439
vt -0.688958 0.461439
vt -0.688958 0.495126
vt -0.833333 0.495126
vt -0.833333 0.500000
vt -0.833333 0.495126
vt -0.688958 0.495126
vt -0.688958 0.495126
vt -0.688958 0.500000
vt -0.833333 0.500000
vt -0.833333 0.495126
vt -0.833333 0.500000
vt -1.000000 0.500000
vt -1.000000 0.500000
vt -1.000000 0.495126
vt -0.833333 0.495126
vt -0.833333 0.461439
vt -0.833333 0.495126
vt -1.000000 0.495126
vt -1.000000 0.495126
vt -1.000000 0.461439
vt -0.833333 0.461439
vt -0.494167 0.495126
vt -0.494167 0.461439
vt -0.470417 0.461439
vt -0.470417 0.461439
vt -0.470417 0.495126
vt -0.494167 0.495126
vt -0.494167 0.500000
vt -0.494167 0.495126
vt -0.470417 0.495126
vt -0.470417 0.495126
vt -0.470417 0.500000
vt -0.494167 0.500000
vt -0.494167 0.495126
vt -0.494167 0.500000
vt -0.500000 0.500000
vt -0.500000 0.500000
vt -0.500000 0.495126
vt -0.494167 0.495126
vt -0.494167 0.461439
vt -0.494167 0.495126
vt -0.500000 0.495126
vt -0.500000 0.495126
vt -0.500000 0.461439
vt -0.494167 0.461439
vt -0.505833 0.495126
vt -0.505833 0.461439
vt -0.500000 0.461439
vt -0.500000 0.461439
vt -0.500000 0.495126
vt -0.505833 0.495126
vt -0.505833 0.500000
vt -0.505833 0.495126
vt -0.500000 0.495126
vt -0.500000 0.495126
vt -0.500000 0.500000
vt -0.505833 0.500000
vt -0.505833 0.495126
vt -0.505833 0.500000
vt -0.529583 0.500000
vt -0.529583 0.500000
vt -0.529583 0.495126
vt -0.505833 0.495126
vt -0.505833 0.461439
vt -0.505833 0.495126
vt -0.529583 0.495126
vt -0.529583 0.495126
vt -0.529583 0.461439
vt -0.505833 0.461439
vt -0.589167 0.495126
vt -0.589167 0.461439
vt -0.529583 0.461439
vt -0.529583 0.461439
vt -0.529583 0.495126
vt -0.589167 0.495126
vt -0.589167 0.500000
vt -0.589167 0.495126
vt -0.529583 0.495126
vt -0.529583 0.495126
vt -0.529583 0.500000
vt -0.589167 0.500000
vt -0.589167 0.495126
vt -0.589167 0.500000
vt -0.688958 0.500000
vt -0.688958 0.500000
vt -0.688958 0.495126
vt -0.589167 0.495126
vt -0.589167 0.461439
vt -0.589167 0.495126
vt -0.688958 0.495126
vt -0.688958 0.495126
vt -0.688958 0.461439
vt -0.589167 0.461439
vt -0.166667 0.504874
vt -0.166667 0.500000
vt -0.000000 0.500000
vt -0.000000 0.500000
vt -0.000000 0.504874
vt -0.166667 0.504874
vt -0.166667 0.538561
vt -0.166667 0.504874
vt -0.000000 0.504874
vt -0.000000 0.504874
vt -0.000000 0.538561
vt -0.166667 0.538561
vt -0.166667 0.504874
vt -0.166667 0.538561
vt -0.311042 0.538561
vt -0.311042 0.538561
vt -0.311042 0.504874
vt -0.166667 0.504874
vt -0.166667 0.500000
vt -0.166667 0.504874
vt -0.311042 0.504874
vt -0.311042 0.504874
vt -0.311042 0.500000
vt -0.166667 0.500000
vt -0.410833 0.504874
vt -0.410833 0.500000
vt -0.311042 0.500000
vt -0.311042 0.500000
vt -0.311042 0.504874
vt -0.410833 0.504874
vt -0.410833 0.538561
vt -0.410833 0.504874
vt -0.311042 0.504874
vt -0.311042 0.504874
vt -0.311042 0.538561
vt -0.410833 0.538561
vt -0.410833 0.504874
vt -0.410833 0.538561
vt -0.470417 0.538561
vt -0.470417 0.538561
vt -0.470417 0.504874
vt -0.410833 0.504874
vt -0.410833 0.500000
vt -0.410833 0.504874
vt -0.470417 0.504874
vt -0.470417 0.504874
vt -0.470417 0.500000
vt -0.410833 0.500000
vt -0.833333 0.504874
vt -0.833333 0.500000
vt -0.688958 0.500000
vt -0.688958 0.500000
vt -0.688958 0.504874
vt -0.833333 0.504874
vt -0.833333 0.538561
vt -0.833333 0.504874
vt -0.688958 0.504874
vt -0.688958 0.504874
vt -0.688958 0.538561
vt -0.833333 0.538561
vt -0.833333 0.504874
vt -0.833333 0.538561
vt -1.000000 0.538561
vt -1.000000 0.538561
vt -1.000000 0.504874
vt -0.833333 0.504874
vt -0.833333 0.500000
vt -0.833333 0.504874
vt -1.000000 0.504874
vt -1.000000 0.504874
vt -1.000000 0.500000
vt -0.833333 0.500000
vt -0.494167 0.504874
vt -0.494167 0.500000
vt -0.470417 0.500000
vt -0.470417 0.500000
vt -0.470417 0.504874
vt -0.494167 0.504874
vt -0.494167 0.538561
vt -0.494167 0.504874
vt -0.470417 0.504874
vt -0.470417 0.504874
vt -0.470417 0.538561
vt -0.494167 0.538561
vt -0.494167 0.504874
vt -0.494167 0.538561
vt -0.500000 0.538561
vt -0.500000 0.538561
vt -0.500000 0.504874
vt -0.494167 0.504874
vt -0.494167 0.500000
vt -0.494167 0.504874
vt -0.500000 0.504874
vt -0.500000 0.504874
vt -0.500000 0.500000
vt -0.494167 0.500000
vt -0.505833 0.504874
vt -0.505833 0.500000
vt -0.500000 0.500000
vt -0.500000 0.500000
vt -0.500000 0.504874
vt -0.505833 0.504874
vt -0.505833 0.538561
vt -0.505833 0.504874
vt -0.500000 0.504874
vt -0.500000 0.504874
vt -0.500000 0.538561
vt -0.505833 0.538561
vt -0.505833 0.504874
vt -0.505833 0.538561
vt -0.529583 0.538561
vt -0.529583 0.538561
vt -0.529583 0.504874
vt -0.505833 0.504874
vt -0.505833 0.500000
vt -0.505833 0.504874
vt -0.529583 0.504874
vt -0.529583 0.504874
vt -0.529583 0.500000
vt -0.505833 0.500000
vt -0.589167 0.504874
vt -0.589167 0.500000
vt -0.529583 0.500000
vt -0.529583 0.500000
vt -0.529583 0.504874
vt -0.589167 0.504874
vt -0.589167 0.538561
vt -0.589167 0.504874
vt -0.529583 0.504874
vt -0.529583 0.504874
vt -0.529583 0.538561
vt -0.589167 0.538561
vt -0.589167 0.504874
vt -0.589167 0.538561
vt -0.688958 0.538561
vt -0.688958 0.538561
vt -0.688958 0.504874
vt -0.589167 0.504874
vt -0.589167 0.500000
vt -0.589167 0.504874
vt -0.688958 0.504874
vt -0.688958 0.504874
vt -0.688958 0.500000
vt -0.589167 0.500000
f 1/1 2/2 3/3
f 3/4 4/5 1/6
f 5/7 1/8 4/9
f 4/10 6/11 5/12
f 1/13 5/14 7/15
f 7/16 8/17 1/18
f 2/19 1/20 8/21
f 8/22 9/23 2/24
f 10/25 11/26 12/27
f 12/28 13/29 10/30
f 14/31 10/32 13/33
f 13/34 15/35 14/36
f 10/37 14/38 16/39
f 16/40 17/41 10/42
f 11/43 10/44 17/45
f 17/46 18/47 11/48
f 19/49 20/50 21/51
f 21/52 22/53 19/54
f 23/55 19/56 22/57
f 22/58 24/59 23/60
f 19/61 23/62 25/63
f 25/64 26/65 19/66
f 20/67 19/68 26/69
f 26/70 27/71 20/72
f 28/73 29/74 30/75
f 30/76 31/77 28/78
f 32/79 28/80 31/81
f 31/82 33/83 32/84
f 28/85 32/86 34/87
f 34/88 35/89 28/90
f 29/91 28/92 35/93
f 35/94 36/95 29/96
f 37/97 38/98 39/99
f 39/100 40/101 37/102
f 41/103 37/104 40/105
f 40/106 42/107 41/108
f 37/109 41/110 43/111
f 43/112 44/113 37/114
f 38/115 37/116 44/117
f 44/118 45/119 38/120
f 46/121 47/122 45/123
f 45/124 44/125 46/126
f 48/127 46/128 44/129
f 44/130 43/131 48/132
f 46/133 48/134 49/135
f 49/136 50/137 46/138
f 47/139 46/140 50/141
f 50/142 51/143 47/144
f 52/145 53/146 54/147
f 54/148 55/149 52/150
f 56/151 52/152 55/153
f 55/154 57/155 56/156
f 52/157 56/158 58/159
f 58/160 59/161 52/162
f 53/163 52/164 59/165
f 59/166 60/167 53/168
f 61/169 62/170 60/171
f 60/172 59/173 61/174
f 63/175 61/176 59/177
f 59/178 58/179 63/180
f 61/181 63/182 64/183
f 64/184 65/185 61/186
f 62/187 61/188 65/189
f 65/190 66/191 62/192
f 67/193 68/194 69/195
f 69/196 70/197 67/198
f 71/199 67/200 70/201
f 70/202 72/203 71/204
f 67/205 71/206 73/207
f 73/208 74/209 67/210
f 68/211 67/212 74/213
f 74/214 75/215 68/216
f 76/217 77/218 78/219
f 78/220 79/221 76/222
f 80/223 76/224 79/225
f 79/226 81/227 80/228
f 76/229 80/230 82/231
f 82/232 83/233 76/234
f 77/235 76/236 83/237
f 83/238 84/239 77/240
f 85/241 86/242 87/243
f 87/244 88/245 85/246
f 89/247 85/248 88/249
f 88/250 90/251 89/252
f 85/253 89/254 91/255
f 91/256 92/257 85/258
f 86/259 85/260 92/261
f 92/262 93/263 86/264
f 94/265 95/266 96/267
f 96/268 97/269 94/270
f 98/271 94/272 97/273
f 97/274 99/275 98/276
f 94/277 98/278 100/279
f 100/280 101/281 94/282
f 95/283 94/284 101/285
f 101/286 102/287 95/288
f 103/289 104/290 105/291
f 105/292 106/293 103/294
f 107/295 103/296 106/297
f 106/298 108/299 107/300
f 103/301 107/302 109/303
f 109/304 104/305 103/306
f 110/307 32/308 33/309
f 33/310 111/311 110/312
f 104/313 110/314 111/315
f 111/316 105/317 104/318
f 110/319 104/320 109/321
f 109/322 112/323 110/324
f 32/325 110/326 112/327
f 112/328 34/329 32/330
f 113/331 29/332 36/333
f 36/334 114/335 113/336
f 115/337 113/338 114/339
f 114/340 116/341 115/342
f 113/343 115/344 27/345
f 27/346 26/347 113/348
f 117/349 113/350 26/351
f 26/352 25/353 117/354
f 113/355 117/356 30/357
f 30/358 29/359 113/360
f 118/361 119/362 120/363
f 120/364 121/365 118/366
f 122/367 118/368 121/369
f 121/370 123/371 122/372
f 118/373 122/374 124/375
f 124/376 119/377 118/378
f 125/379 98/380 99/381
f 99/382 126/383 125/384
f 119/385 125/386 126/387
f 126/388 120/389 119/390
f 125/391 119/392 124/393
f 124/394 127/395 125/396
f 98/397 125/398 127/399
f 127/400 100/401 98/402
f 128/403 95/404 102/405
f 102/406 129/407 128/408
f 92/409 128/410 129/411
f 129/412 93/413 92/414
f 128/415 92/416 91/417
f 91/418 130/419 128/420
f 131/421 128/422 130/423
f 130/424 132/425 131/426
f 128/427 131/428 96/429
f 96/430 95/431 128/432
f 133/433 134/434 135/435
f 135/436 136/437 133/438
f 137/439 133/440 136/441
f 136/442 138/443 137/444
f 133/445 137/446 81/447
f 81/448 79/449 133/450
f 139/451 133/452 79/453
f 79/454 78/455 139/456
f 133/457 139/458 140/459
f 140/460 134/461 133/462
f 141/463 71/464 72/465
f 72/466 142/467 141/468
f 134/469 141/470 142/471
f 142/472 135/473 134/474
f 141/475 134/476 140/477
f 140/478 143/479 141/480
f 71/481 141/482 143/483
f 143/484 73/485 71/486
f 144/487 68/488 75/489
f 75/490 145/491 144/492
f 146/493 144/494 145/495
f 145/496 147/497 146/498
f 144/499 146/500 69/501
f 69/502 68/503 144/504
f 148/505 149/506 150/507
f 150/508 151/509 148/510
f 152/511 148/512 151/513
f 151/514 153/515 152/516
f 148/517 152/518 154/519
f 154/520 149/521 148/522
f 155/523 5/524 6/525
f 6/526 156/527 155/528
f 149/529 155/530 156/531
f 156/532 150/533 149/534
f 155/535 149/536 154/537
f 154/538 157/539 155/540
f 5/541 155/542 157/543
f 157/544 7/545 5/546
f 158/547 2/548 9/549
f 9/550 159/551 158/552
f 13/553 158/554 159/555
f 159/556 15/557 13/558
f 158/559 13/560 12/561
f 12/562 160/563 158/564
f 161/565 158/566 160/567
f 160/568 162/569 161/570
f 158/571 161/572 3/573
f 3/574 2/575 158/576
f 163/577 164/578 165/579
f 165/580 166/581 163/582
f 160/583 163/584 166/585
f 166/586 162/587 160/588
f 163/589 160/590 12/591
f 12/592 167/593 163/594
f 164/595 163/596 167/597
f 167/598 168/599 164/600
f 169/601 41/602 42/603
f 42/604 170/605 169/606
f 164/607 169/608 170/609
f 170/610 165/611 164/612
f 169/613 164/614 168/615
f 168/616 171/617 169/618
f 41/619 169/620 171/621
f 171/622 43/623 41/624
f 172/625 38/626 45/627
f 45/628 173/629 172/630
f 137/631 172/632 173/633
f 173/634 81/635 137/636
f 172/637 137/638 138/639
f 138/640 174/641 172/642
f 38/643 172/644 174/645
f 174/646 39/647 38/648
f 175/649 176/650 168/651
f 168/652 167/653 175/654
f 11/655 175/656 167/657
f 167/658 12/659 11/660
f 175/661 11/662 18/663
f 18/664 177/665 175/666
f 176/667 175/668 177/669
f 177/670 178/671 176/672
f 179/673 48/674 43/675
f 43/676 171/677 179/678
f 176/679 179/680 171/681
f 171/682 168/683 176/684
f 179/685 176/686 178/687
f 178/688 180/689 179/690
f 48/691 179/692 180/693
f 180/694 49/695 48/696
f 181/697 47/698 51/699
f 51/700 182/701 181/702
f 80/703 181/704 182/705
f 182/706 82/707 80/708
f 181/709 80/710 81/711
f 81/712 173/713 181/714
f 47/715 181/716 173/717
f 173/718 45/719 47/720
f 183/721 184/722 185/723
f 185/724 186/725 183/726
f 20/727 183/728 186/729
f 186/730 21/731 20/732
f 183/733 20/734 27/735
f 27/736 187/737 183/738
f 184/739 183/740 187/741
f 187/742 188/743 184/744
f 189/745 56/746 57/747
f 57/748 190/749 189/750
f 184/751 189/752 190/753
f 190/754 185/755 184/756
f 189/757 184/758 188/759
f 188/760 191/761 189/762
f 56/763 189/764 191/765
f 191/766 58/767 56/768
f 192/769 53/770 60/771
f 60/772 193/773 192/774
f 89/775 192/776 193/777
f 193/778 91/779 89/780
f 192/781 89/782 90/783
f 90/784 194/785 192/786
f 53/787 192/788 194/789
f 194/790 54/791 53/792
f 195/793 196/794 188/795
f 188/796 187/797 195/798
f 115/799 195/800 187/801
f 187/802 27/803 115/804
f 195/805 115/806 116/807
f 116/808 197/809 195/810
f 196/811 195/812 197/813
f 197/814 198/815 196/816
f 199/817 63/818 58/819
f 58/820 191/821 199/822
f 196/823 199/824 191/825
f 191/826 188/827 196/828
f 199/829 196/830 198/831
f 198/832 200/833 199/834
f 63/835 199/836 200/837
f 200/838 64/839 63/840
f 201/841 62/842 66/843
f 66/844 202/845 201/846
f 130/847 201/848 202/849
f 202/850 132/851 130/852
f 201/853 130/854 91/855
f 91/856 193/857 201/858
f 62/859 201/860 193/861
f 193/862 60/863 62/864
f 203/865 17/866 16/867
f 16/868 204/869 203/870
f 205/871 203/872 204/873
f 204/874 206/875 205/876
f 203/877 205/878 207/879
f 207/880 208/881 203/882
f 17/883 203/884 208/885
f 208/886 18/887 17/888
f 209/889 177/890 18/891
f 18/892 208/893 209/894
f 210/895 209/896 208/897
f 208/898 207/899 210/900
f 209/901 210/902 211/903
f 211/904 212/905 209/906
f 177/907 209/908 212/909
f 212/910 178/911 177/912
f 213/913 83/914 82/915
f 82/916 214/917 213/918
f 215/919 213/920 214/921
f 214/922 216/923 215/924
f 213/925 215/926 217/927
f 217/928 218/929 213/930
f 83/931 213/932 218/933
f 218/934 84/935 83/936
f 219/937 180/938 178/939
f 178/940 212/941 219/942
f 220/943 219/944 212/945
f 212/946 211/947 220/948
f 219/949 220/950 221/951
f 221/952 222/953 219/954
f 180/955 219/956 222/957
f 222/958 49/959 180/960
f 223/961 50/962 49/963
f 49/964 222/965 223/966
f 224/967 223/968 222/969
f 222/970 221/971 224/972
f 223/973 224/974 225/975
f 225/976 226/977 223/978
f 50/979 223/980 226/981
f 226/982 51/983 50/984
f 227/985 182/986 51/987
f 51/988 226/989 227/990
f 228/991 227/992 226/993
f 226/994 225/995 228/996
f 227/997 228/998 216/999
f 216/1000 214/1001 227/1002
f 182/1003 227/1004 214/1005
f 214/1006 82/1007 182/1008
f 229/1009 205/1010 206/1011
f 206/1012 230/1013 229/1014
f 22/1015 229/1016 230/1017
f 230/1018 24/1019 22/1020
f 229/1021 22/1022 21/1023
f 21/1024 231/1025 229/1026
f 205/1027 229/1028 231/1029
f 231/1030 207/1031 205/1032
f 232/1033 210/1034 207/1035
f 207/1036 231/1037 232/1038
f 186/1039 232/1040 231/1041
f 231/1042 21/1043 186/1044
f 232/1045 186/1046 185/1047
f 185/1048 233/1049 232/1050
f 210/1051 232/1052 233/1053
f 233/1054 211/1055 210/1056
f 234/1057 215/1058 216/1059
f 216/1060 235/1061 234/1062
f 88/1063 234/1064 235/1065
f 235/1066 90/1067 88/1068
f 234/1069 88/1070 87/1071
f 87/1072 236/1073 234/1074
f 215/1075 234/1076 236/1077
f 236/1078 217/1079 215/1080
f 237/1081 220/1082 211/1083
f 211/1084 233/1085 237/1086
f 190/1087 237/1088 233/1089
f 233/1090 185/1091 190/1092
f 237/1093 190/1094 57/1095
f 57/1096 238/1097 237/1098
f 220/1099 237/1100 238/1101
f 238/1102 221/1103 220/1104
f 239/1105 224/1106 221/1107
f 221/1108 238/1109 239/1110
f 55/1111 239/1112 238/1113
f 238/1114 57/1115 55/1116
f 239/1117 55/1118 54/1119
f 54/1120 240/1121 239/1122
f 224/1123 239/1124 240/1125
f 240/1126 225/1127 224/1128
f 241/1129 228/1130 225/1131
f 225/1132 240/1133 241/1134
f 194/1135 241/1136 240/1137
f 240/1138 54/1139 194/1140
f 241/1141 194/1142 90/1143
f 90/1144 235/1145 241/1146
f 228/1147 241/1148 235/1149
f 235/1150 216/1151 228/1152
