# USD → MuJoCo (world-space)
v -3.249950 7.379279 0.165028
v -3.254020 7.392262 0.177190
v -3.271738 7.335336 0.186345
v -3.267865 7.334775 0.168247
v -3.247756 7.370343 0.153231
v -3.263504 7.334213 0.148225
v -3.232009 7.406473 0.158237
v -3.232034 7.423782 0.161810
v -3.232067 7.440999 0.165621
v -3.254786 7.506471 0.147269
v -3.275220 7.507069 0.158245
v -3.286555 7.468302 0.182891
v -3.261769 7.468960 0.176609
v -3.231743 7.505896 0.126888
v -3.232035 7.479485 0.161107
v -3.231427 7.519959 0.088822
v -3.248718 7.520046 0.114739
v -3.264763 7.520471 0.129728
v -3.250103 7.503601 0.098804
v -3.267244 7.503792 0.116847
v -3.231282 7.503691 0.068686
v -3.231222 7.472257 0.057515
v -3.251502 7.472147 0.090110
v -3.269695 7.472073 0.109935
v -3.241035 7.328306 0.119888
v -3.243761 7.338957 0.110927
v -3.231357 7.378979 0.052405
v -3.231408 7.364363 0.061216
v -3.238940 7.321225 0.122566
v -3.231419 7.350219 0.070190
v -3.246461 7.292231 0.174942
v -3.250662 7.292250 0.178559
v -3.256840 7.292327 0.169704
v -3.327638 7.406824 0.137548
v -3.320821 7.335172 0.125269
v -3.308983 7.334838 0.143917
v -3.315783 7.406453 0.156166
v -3.327871 7.467774 0.137951
v -3.315955 7.467633 0.156459
v -3.339189 7.468271 0.125144
v -3.338747 7.409065 0.124079
v -3.330950 7.335671 0.108536
v -3.314937 7.507322 0.114601
v -3.302871 7.507947 0.132837
v -3.302076 7.519901 0.088556
v -3.290409 7.521878 0.105384
v -3.316484 7.517677 0.075518
v -3.327935 7.506464 0.101293
v -3.302530 7.499946 0.080874
v -3.292445 7.503911 0.094183
v -3.303702 7.465592 0.077281
v -3.294675 7.470464 0.088248
v -3.317013 7.461004 0.069313
v -3.316333 7.495942 0.070810
v -3.290838 7.348615 0.070897
v -3.284139 7.399014 0.055920
v -3.272202 7.399409 0.072259
v -3.278298 7.347872 0.088271
v -3.305319 7.290999 0.097155
v -3.292738 7.289837 0.114457
v -3.316504 7.292353 0.082338
v -3.307046 7.351442 0.055105
v -3.300910 7.399757 0.041916
v -3.355455 7.362114 0.109538
v -3.353560 7.353756 0.115843
v -3.347329 7.335571 0.109152
v -3.350274 7.335473 0.092669
v -3.357260 7.371344 0.104374
v -3.353717 7.335441 0.078177
v -3.360802 7.407247 0.130571
v -3.360636 7.388755 0.126405
v -3.360459 7.370524 0.122099
v -3.343166 7.506003 0.098504
v -3.359512 7.505739 0.100973
v -3.361012 7.480031 0.135215
v -3.349952 7.469141 0.124897
v -3.336800 7.517239 0.069414
v -3.360069 7.517692 0.066777
v -3.338915 7.495196 0.063991
v -3.365887 7.496079 0.058792
v -3.340825 7.460254 0.062333
v -3.369888 7.461423 0.055846
v -3.346668 7.329686 0.044521
v -3.340901 7.340003 0.043781
v -3.330389 7.292324 0.062387
v -3.336461 7.292369 0.053342
v -3.349079 7.322604 0.047832
v -3.340965 7.292768 0.051199
v -3.357193 7.352440 0.044466
v -3.356876 7.367003 0.035701
v -3.356517 7.381380 0.026883
v -3.237019 7.303092 0.099768
v -3.238830 7.308624 0.101699
v -3.231428 7.322658 0.088324
v -3.231496 7.307829 0.096864
v -3.239827 7.293076 0.105377
v -3.231592 7.292534 0.105177
v -3.245554 7.293272 0.115751
v -3.238837 7.314667 0.112901
v -3.231414 7.336553 0.079329
v -3.246261 7.292781 0.146473
v -3.245757 7.356225 0.101744
v -3.262970 7.291951 0.160763
v -3.255386 7.351332 0.114986
v -3.270470 7.291215 0.149291
v -3.249682 7.402238 0.097007
v -3.240672 7.403850 0.078978
v -3.231246 7.394066 0.043750
v -3.231154 7.413417 0.040111
v -3.352846 7.303307 0.074056
v -3.350677 7.308768 0.068718
v -3.344278 7.294247 0.076583
v -3.350390 7.294108 0.080404
v -3.358177 7.307641 0.070325
v -3.358596 7.293576 0.079292
v -3.357794 7.322071 0.061505
v -3.349918 7.315415 0.057936
v -3.342354 7.293597 0.062897
v -3.357482 7.337233 0.052976
v -3.329990 7.356898 0.041392
v -3.356098 7.396026 0.018210
v -3.327159 7.401956 0.030819
v -3.358098 7.412971 0.018548
v -3.324298 7.292556 0.071401
v -3.349094 7.414305 0.122230
v -3.352643 7.393557 0.113857
v -3.344521 7.335636 0.088017
v -3.338391 7.335756 0.096959
v -3.361364 7.460379 0.143329
v -3.361156 7.443359 0.138654
v -3.355843 7.380530 0.106859
v -3.350715 7.335513 0.079191
v -3.360972 7.425548 0.134528
v -3.354707 7.347188 0.116785
v -3.360258 7.353004 0.117720
v -3.351826 7.335699 0.114109
v -3.360045 7.335841 0.113305
v -3.237403 7.346437 0.146537
v -3.240502 7.352812 0.147474
v -3.248338 7.333850 0.143150
v -3.240110 7.334576 0.143996
v -3.231934 7.352902 0.148207
v -3.231883 7.335648 0.144794
v -3.231976 7.370426 0.151581
v -3.244280 7.361151 0.148543
v -3.256565 7.333816 0.142210
v -3.231995 7.388485 0.154876
v -3.263129 7.413595 0.182971
v -3.232105 7.458709 0.169703
v -3.286705 7.408888 0.184152
v -3.277210 7.335724 0.186587
v -3.285146 7.335756 0.175908
v -3.303198 7.406824 0.173459
v -3.296414 7.335247 0.161240
v -3.303401 7.467835 0.173806
v -3.290441 7.507711 0.150410
v -3.278316 7.521574 0.122858
v -3.281021 7.504545 0.110740
v -3.283713 7.472068 0.104223
v -3.266356 7.348662 0.106732
v -3.260454 7.400621 0.090361
v -3.280757 7.290210 0.132845
v -3.245472 7.440693 0.079301
v -3.231163 7.440823 0.046345
v -3.259146 7.440353 0.099323
v -3.292999 7.434977 0.063505
v -3.282794 7.437952 0.076595
v -3.308051 7.432610 0.053167
v -3.333838 7.432791 0.044537
v -3.364992 7.434246 0.036763
v -3.271548 7.439591 0.093477
vt -0.104167 0.078125
vt -0.134375 0.100781
vt -0.250000 -0.000000
vt -0.250000 -0.000000
vt -0.208333 -0.000000
vt -0.104167 0.078125
vt -0.083333 0.062500
vt -0.104167 0.078125
vt -0.208333 -0.000000
vt -0.208333 -0.000000
vt -0.166667 -0.000000
vt -0.083333 0.062500
vt -0.104167 0.078125
vt -0.083333 0.062500
vt -0.000000 0.125000
vt -0.000000 0.125000
vt -0.000000 0.156250
vt -0.104167 0.078125
vt -0.134375 0.100781
vt -0.104167 0.078125
vt -0.000000 0.156250
vt -0.000000 0.156250
vt -0.000000 0.187500
vt -0.134375 0.100781
vt -0.166667 0.375000
vt -0.312500 0.375000
vt -0.313542 0.250781
vt -0.313542 0.250781
vt -0.170833 0.253125
vt -0.166667 0.375000
vt -0.000000 0.375000
vt -0.166667 0.375000
vt -0.170833 0.253125
vt -0.170833 0.253125
vt -0.000000 0.273438
vt -0.000000 0.375000
vt -0.166667 0.375000
vt -0.000000 0.375000
vt -0.000000 0.484375
vt -0.000000 0.484375
vt -0.166667 0.484375
vt -0.166667 0.375000
vt -0.312500 0.375000
vt -0.166667 0.375000
vt -0.166667 0.484375
vt -0.166667 0.484375
vt -0.312500 0.484375
vt -0.312500 0.375000
vt -0.166667 0.562500
vt -0.312500 0.562500
vt -0.312500 0.484375
vt -0.312500 0.484375
vt -0.166667 0.484375
vt -0.166667 0.562500
vt -0.000000 0.562500
vt -0.166667 0.562500
vt -0.166667 0.484375
vt -0.166667 0.484375
vt -0.000000 0.484375
vt -0.000000 0.562500
vt -0.166667 0.562500
vt -0.000000 0.562500
vt -0.000000 0.625000
vt -0.000000 0.625000
vt -0.166667 0.625000
vt -0.166667 0.562500
vt -0.312500 0.562500
vt -0.166667 0.562500
vt -0.166667 0.625000
vt -0.166667 0.625000
vt -0.312500 0.625000
vt -0.312500 0.562500
vt -0.104167 0.921875
vt -0.134375 0.899219
vt -0.000000 0.812500
vt -0.000000 0.812500
vt -0.000000 0.843750
vt -0.104167 0.921875
vt -0.083333 0.937500
vt -0.104167 0.921875
vt -0.000000 0.843750
vt -0.000000 0.843750
vt -0.000000 0.875000
vt -0.083333 0.937500
vt -0.104167 0.921875
vt -0.083333 0.937500
vt -0.166667 1.000000
vt -0.166667 1.000000
vt -0.208333 1.000000
vt -0.104167 0.921875
vt -0.134375 0.899219
vt -0.104167 0.921875
vt -0.208333 1.000000
vt -0.208333 1.000000
vt -0.250000 1.000000
vt -0.134375 0.899219
vt -0.583333 0.125000
vt -0.583333 -0.000000
vt -0.500000 -0.000000
vt -0.500000 -0.000000
vt -0.500000 0.125000
vt -0.583333 0.125000
vt -0.583333 0.250000
vt -0.583333 0.125000
vt -0.500000 0.125000
vt -0.500000 0.125000
vt -0.500000 0.250000
vt -0.583333 0.250000
vt -0.583333 0.125000
vt -0.583333 0.250000
vt -0.686458 0.250781
vt -0.686458 0.250781
vt -0.683333 0.128125
vt -0.583333 0.125000
vt -0.583333 -0.000000
vt -0.583333 0.125000
vt -0.683333 0.128125
vt -0.683333 0.128125
vt -0.656250 -0.000000
vt -0.583333 -0.000000
vt -0.583333 0.375000
vt -0.583333 0.250000
vt -0.500000 0.250000
vt -0.500000 0.250000
vt -0.500000 0.375000
vt -0.583333 0.375000
vt -0.583333 0.484375
vt -0.583333 0.375000
vt -0.500000 0.375000
vt -0.500000 0.375000
vt -0.500000 0.484375
vt -0.583333 0.484375
vt -0.583333 0.375000
vt -0.583333 0.484375
vt -0.687500 0.484375
vt -0.687500 0.484375
vt -0.687500 0.375000
vt -0.583333 0.375000
vt -0.583333 0.250000
vt -0.583333 0.375000
vt -0.687500 0.375000
vt -0.687500 0.375000
vt -0.686458 0.250781
vt -0.583333 0.250000
vt -0.583333 0.562500
vt -0.583333 0.484375
vt -0.500000 0.484375
vt -0.500000 0.484375
vt -0.500000 0.562500
vt -0.583333 0.562500
vt -0.583333 0.625000
vt -0.583333 0.562500
vt -0.500000 0.562500
vt -0.500000 0.562500
vt -0.500000 0.625000
vt -0.583333 0.625000
vt -0.583333 0.562500
vt -0.583333 0.625000
vt -0.687500 0.625000
vt -0.687500 0.625000
vt -0.687500 0.562500
vt -0.583333 0.562500
vt -0.583333 0.484375
vt -0.583333 0.562500
vt -0.687500 0.562500
vt -0.687500 0.562500
vt -0.687500 0.484375
vt -0.583333 0.484375
vt -0.583333 0.875000
vt -0.583333 0.765625
vt -0.500000 0.765625
vt -0.500000 0.765625
vt -0.500000 0.875000
vt -0.583333 0.875000
vt -0.583333 1.000000
vt -0.583333 0.875000
vt -0.500000 0.875000
vt -0.500000 0.875000
vt -0.500000 1.000000
vt -0.583333 1.000000
vt -0.583333 0.875000
vt -0.583333 1.000000
vt -0.656250 1.000000
vt -0.656250 1.000000
vt -0.683333 0.871875
vt -0.583333 0.875000
vt -0.583333 0.765625
vt -0.583333 0.875000
vt -0.683333 0.871875
vt -0.683333 0.871875
vt -0.686458 0.764844
vt -0.583333 0.765625
vt -0.937500 0.046875
vt -0.956597 0.032552
vt -0.916667 -0.000000
vt -0.916667 -0.000000
vt -0.875000 -0.000000
vt -0.937500 0.046875
vt -0.916667 0.062500
vt -0.937500 0.046875
vt -0.875000 -0.000000
vt -0.875000 -0.000000
vt -0.833333 -0.000000
vt -0.916667 0.062500
vt -0.937500 0.046875
vt -0.916667 0.062500
vt -1.000000 0.125000
vt -1.000000 0.125000
vt -1.000000 0.093750
vt -0.937500 0.046875
vt -0.956597 0.032552
vt -0.937500 0.046875
vt -1.000000 0.093750
vt -1.000000 0.093750
vt -1.000000 0.062500
vt -0.956597 0.032552
vt -0.833333 0.375000
vt -1.000000 0.375000
vt -1.000000 0.273437
vt -1.000000 0.273437
vt -0.829167 0.253125
vt -0.833333 0.375000
vt -0.687500 0.375000
vt -0.833333 0.375000
vt -0.829167 0.253125
vt -0.829167 0.253125
vt -0.686458 0.250781
vt -0.687500 0.375000
vt -0.833333 0.375000
vt -0.687500 0.375000
vt -0.687500 0.484375
vt -0.687500 0.484375
vt -0.833333 0.484375
vt -0.833333 0.375000
vt -1.000000 0.375000
vt -0.833333 0.375000
vt -0.833333 0.484375
vt -0.833333 0.484375
vt -1.000000 0.484375
vt -1.000000 0.375000
vt -0.833333 0.562500
vt -1.000000 0.562500
vt -1.000000 0.484375
vt -1.000000 0.484375
vt -0.833333 0.484375
vt -0.833333 0.562500
vt -0.687500 0.562500
vt -0.833333 0.562500
vt -0.833333 0.484375
vt -0.833333 0.484375
vt -0.687500 0.484375
vt -0.687500 0.562500
vt -0.833333 0.562500
vt -0.687500 0.562500
vt -0.687500 0.625000
vt -0.687500 0.625000
vt -0.833333 0.625000
vt -0.833333 0.562500
vt -1.000000 0.562500
vt -0.833333 0.562500
vt -0.833333 0.625000
vt -0.833333 0.625000
vt -1.000000 0.625000
vt -1.000000 0.562500
vt -0.895833 0.921875
vt -0.865625 0.899219
vt -0.750000 1.000000
vt -0.750000 1.000000
vt -0.791667 1.000000
vt -0.895833 0.921875
vt -0.916667 0.937500
vt -0.895833 0.921875
vt -0.791667 1.000000
vt -0.791667 1.000000
vt -0.833333 1.000000
vt -0.916667 0.937500
vt -0.895833 0.921875
vt -0.916667 0.937500
vt -1.000000 0.875000
vt -1.000000 0.875000
vt -1.000000 0.843750
vt -0.895833 0.921875
vt -0.865625 0.899219
vt -0.895833 0.921875
vt -1.000000 0.843750
vt -1.000000 0.843750
vt -1.000000 0.812500
vt -0.865625 0.899219
vt -0.027778 0.979167
vt -0.043403 0.967448
vt -0.000000 0.937500
vt -0.000000 0.937500
vt -0.000000 0.968750
vt -0.027778 0.979167
vt -0.041667 1.000000
vt -0.027778 0.979167
vt -0.000000 0.968750
vt -0.000000 0.968750
vt -0.000000 1.000000
vt -0.041667 1.000000
vt -0.027778 0.979167
vt -0.041667 1.000000
vt -0.083333 1.000000
vt -0.083333 1.000000
vt -0.043403 0.967448
vt -0.027778 0.979167
vt -0.062500 0.953125
vt -0.083333 0.937500
vt -0.000000 0.875000
vt -0.000000 0.875000
vt -0.000000 0.906250
vt -0.062500 0.953125
vt -0.043403 0.967448
vt -0.062500 0.953125
vt -0.000000 0.906250
vt -0.000000 0.906250
vt -0.000000 0.937500
vt -0.043403 0.967448
vt -0.062500 0.953125
vt -0.043403 0.967448
vt -0.083333 1.000000
vt -0.083333 1.000000
vt -0.125000 1.000000
vt -0.062500 0.953125
vt -0.083333 0.937500
vt -0.062500 0.953125
vt -0.125000 1.000000
vt -0.125000 1.000000
vt -0.166667 1.000000
vt -0.083333 0.937500
vt -0.183333 0.862500
vt -0.134375 0.899219
vt -0.250000 1.000000
vt -0.250000 1.000000
vt -0.291667 1.000000
vt -0.183333 0.862500
vt -0.316667 0.871875
vt -0.183333 0.862500
vt -0.291667 1.000000
vt -0.291667 1.000000
vt -0.343750 1.000000
vt -0.316667 0.871875
vt -0.183333 0.862500
vt -0.316667 0.871875
vt -0.313542 0.764844
vt -0.313542 0.764844
vt -0.170833 0.762500
vt -0.183333 0.862500
vt -0.000000 0.781250
vt -0.183333 0.862500
vt -0.170833 0.762500
vt -0.170833 0.762500
vt -0.000000 0.742188
vt -0.000000 0.781250
vt -0.183333 0.862500
vt -0.000000 0.781250
vt -0.000000 0.812500
vt -0.000000 0.812500
vt -0.134375 0.899219
vt -0.183333 0.862500
vt -0.972222 0.979167
vt -0.956597 0.967448
vt -0.916667 1.000000
vt -0.916667 1.000000
vt -0.958333 1.000000
vt -0.972222 0.979167
vt -1.000000 0.968750
vt -0.972222 0.979167
vt -0.958333 1.000000
vt -0.958333 1.000000
vt -1.000000 1.000000
vt -1.000000 0.968750
vt -0.972222 0.979167
vt -1.000000 0.968750
vt -1.000000 0.937500
vt -1.000000 0.937500
vt -0.956597 0.967448
vt -0.972222 0.979167
vt -0.937500 0.953125
vt -0.916667 0.937500
vt -0.833333 1.000000
vt -0.833333 1.000000
vt -0.875000 1.000000
vt -0.937500 0.953125
vt -0.956597 0.967448
vt -0.937500 0.953125
vt -0.875000 1.000000
vt -0.875000 1.000000
vt -0.916667 1.000000
vt -0.956597 0.967448
vt -0.937500 0.953125
vt -0.956597 0.967448
vt -1.000000 0.937500
vt -1.000000 0.937500
vt -1.000000 0.906250
vt -0.937500 0.953125
vt -0.916667 0.937500
vt -0.937500 0.953125
vt -1.000000 0.906250
vt -1.000000 0.906250
vt -1.000000 0.875000
vt -0.916667 0.937500
vt -0.816667 0.862500
vt -0.865625 0.899219
vt -1.000000 0.812500
vt -1.000000 0.812500
vt -1.000000 0.781250
vt -0.816667 0.862500
vt -0.829167 0.762500
vt -0.816667 0.862500
vt -1.000000 0.781250
vt -1.000000 0.781250
vt -1.000000 0.742187
vt -0.829167 0.762500
vt -0.816667 0.862500
vt -0.829167 0.762500
vt -0.686458 0.764844
vt -0.686458 0.764844
vt -0.683333 0.871875
vt -0.816667 0.862500
vt -0.708333 1.000000
vt -0.816667 0.862500
vt -0.683333 0.871875
vt -0.683333 0.871875
vt -0.656250 1.000000
vt -0.708333 1.000000
vt -0.816667 0.862500
vt -0.708333 1.000000
vt -0.750000 1.000000
vt -0.750000 1.000000
vt -0.865625 0.899219
vt -0.816667 0.862500
vt -0.816667 0.137500
vt -0.865625 0.100781
vt -0.750000 -0.000000
vt -0.750000 -0.000000
vt -0.708333 -0.000000
vt -0.816667 0.137500
vt -0.683333 0.128125
vt -0.816667 0.137500
vt -0.708333 -0.000000
vt -0.708333 -0.000000
vt -0.656250 -0.000000
vt -0.683333 0.128125
vt -0.816667 0.137500
vt -0.683333 0.128125
vt -0.686458 0.250781
vt -0.686458 0.250781
vt -0.829167 0.253125
vt -0.816667 0.137500
vt -1.000000 0.218750
vt -0.816667 0.137500
vt -0.829167 0.253125
vt -0.829167 0.253125
vt -1.000000 0.273437
vt -1.000000 0.218750
vt -0.816667 0.137500
vt -1.000000 0.218750
vt -1.000000 0.187500
vt -1.000000 0.187500
vt -0.865625 0.100781
vt -0.816667 0.137500
vt -0.895833 0.078125
vt -0.916667 0.062500
vt -0.833333 -0.000000
vt -0.833333 -0.000000
vt -0.791667 -0.000000
vt -0.895833 0.078125
vt -0.865625 0.100781
vt -0.895833 0.078125
vt -0.791667 -0.000000
vt -0.791667 -0.000000
vt -0.750000 -0.000000
vt -0.865625 0.100781
vt -0.895833 0.078125
vt -0.865625 0.100781
vt -1.000000 0.187500
vt -1.000000 0.187500
vt -1.000000 0.156250
vt -0.895833 0.078125
vt -0.916667 0.062500
vt -0.895833 0.078125
vt -1.000000 0.156250
vt -1.000000 0.156250
vt -1.000000 0.125000
vt -0.916667 0.062500
vt -0.972222 0.020833
vt -0.956597 0.032552
vt -1.000000 0.062500
vt -1.000000 0.062500
vt -1.000000 0.031250
vt -0.972222 0.020833
vt -0.958333 -0.000000
vt -0.972222 0.020833
vt -1.000000 0.031250
vt -1.000000 0.031250
vt -1.000000 -0.000000
vt -0.958333 -0.000000
vt -0.972222 0.020833
vt -0.958333 -0.000000
vt -0.916667 -0.000000
vt -0.916667 -0.000000
vt -0.956597 0.032552
vt -0.972222 0.020833
vt -0.027778 0.020833
vt -0.043403 0.032552
vt -0.083333 -0.000000
vt -0.083333 -0.000000
vt -0.041667 -0.000000
vt -0.027778 0.020833
vt -0.000000 0.031250
vt -0.027778 0.020833
vt -0.041667 -0.000000
vt -0.041667 -0.000000
vt 0.000000 0.000000
vt -0.000000 0.031250
vt -0.027778 0.020833
vt -0.000000 0.031250
vt -0.000000 0.062500
vt -0.000000 0.062500
vt -0.043403 0.032552
vt -0.027778 0.020833
vt -0.062500 0.046875
vt -0.083333 0.062500
vt -0.166667 -0.000000
vt -0.166667 -0.000000
vt -0.125000 -0.000000
vt -0.062500 0.046875
vt -0.043403 0.032552
vt -0.062500 0.046875
vt -0.125000 -0.000000
vt -0.125000 -0.000000
vt -0.083333 -0.000000
vt -0.043403 0.032552
vt -0.062500 0.046875
vt -0.043403 0.032552
vt -0.000000 0.062500
vt -0.000000 0.062500
vt -0.000000 0.093750
vt -0.062500 0.046875
vt -0.083333 0.062500
vt -0.062500 0.046875
vt -0.000000 0.093750
vt -0.000000 0.093750
vt -0.000000 0.125000
vt -0.083333 0.062500
vt -0.183333 0.137500
vt -0.134375 0.100781
vt -0.000000 0.187500
vt -0.000000 0.187500
vt -0.000000 0.218750
vt -0.183333 0.137500
vt -0.170833 0.253125
vt -0.183333 0.137500
vt -0.000000 0.218750
vt -0.000000 0.218750
vt -0.000000 0.273438
vt -0.170833 0.253125
vt -0.183333 0.137500
vt -0.170833 0.253125
vt -0.313542 0.250781
vt -0.313542 0.250781
vt -0.316667 0.128125
vt -0.183333 0.137500
vt -0.291667 -0.000000
vt -0.183333 0.137500
vt -0.316667 0.128125
vt -0.316667 0.128125
vt -0.343750 -0.000000
vt -0.291667 -0.000000
vt -0.183333 0.137500
vt -0.291667 -0.000000
vt -0.250000 -0.000000
vt -0.250000 -0.000000
vt -0.134375 0.100781
vt -0.183333 0.137500
vt -0.416667 0.125000
vt -0.500000 0.125000
vt -0.500000 -0.000000
vt -0.500000 -0.000000
vt -0.416667 -0.000000
vt -0.416667 0.125000
vt -0.316667 0.128125
vt -0.416667 0.125000
vt -0.416667 -0.000000
vt -0.416667 -0.000000
vt -0.343750 -0.000000
vt -0.316667 0.128125
vt -0.416667 0.125000
vt -0.316667 0.128125
vt -0.313542 0.250781
vt -0.313542 0.250781
vt -0.416667 0.250000
vt -0.416667 0.125000
vt -0.500000 0.125000
vt -0.416667 0.125000
vt -0.416667 0.250000
vt -0.416667 0.250000
vt -0.500000 0.250000
vt -0.500000 0.125000
vt -0.416667 0.375000
vt -0.500000 0.375000
vt -0.500000 0.250000
vt -0.500000 0.250000
vt -0.416667 0.250000
vt -0.416667 0.375000
vt -0.312500 0.375000
vt -0.416667 0.375000
vt -0.416667 0.250000
vt -0.416667 0.250000
vt -0.313542 0.250781
vt -0.312500 0.375000
vt -0.416667 0.375000
vt -0.312500 0.375000
vt -0.312500 0.484375
vt -0.312500 0.484375
vt -0.416667 0.484375
vt -0.416667 0.375000
vt -0.500000 0.375000
vt -0.416667 0.375000
vt -0.416667 0.484375
vt -0.416667 0.484375
vt -0.500000 0.484375
vt -0.500000 0.375000
vt -0.416667 0.562500
vt -0.500000 0.562500
vt -0.500000 0.484375
vt -0.500000 0.484375
vt -0.416667 0.484375
vt -0.416667 0.562500
vt -0.312500 0.562500
vt -0.416667 0.562500
vt -0.416667 0.484375
vt -0.416667 0.484375
vt -0.312500 0.484375
vt -0.312500 0.562500
vt -0.416667 0.562500
vt -0.312500 0.562500
vt -0.312500 0.625000
vt -0.312500 0.625000
vt -0.416667 0.625000
vt -0.416667 0.562500
vt -0.500000 0.562500
vt -0.416667 0.562500
vt -0.416667 0.625000
vt -0.416667 0.625000
vt -0.500000 0.625000
vt -0.500000 0.562500
vt -0.416667 0.875000
vt -0.500000 0.875000
vt -0.500000 0.765625
vt -0.500000 0.765625
vt -0.416667 0.765625
vt -0.416667 0.875000
vt -0.316667 0.871875
vt -0.416667 0.875000
vt -0.416667 0.765625
vt -0.416667 0.765625
vt -0.313542 0.764844
vt -0.316667 0.871875
vt -0.416667 0.875000
vt -0.316667 0.871875
vt -0.343750 1.000000
vt -0.343750 1.000000
vt -0.416667 1.000000
vt -0.416667 0.875000
vt -0.500000 0.875000
vt -0.416667 0.875000
vt -0.416667 1.000000
vt -0.416667 1.000000
vt -0.500000 1.000000
vt -0.500000 0.875000
vt -0.166667 0.687500
vt -0.166667 0.625000
vt -0.000000 0.625000
vt -0.000000 0.625000
vt -0.000000 0.687500
vt -0.166667 0.687500
vt -0.170833 0.762500
vt -0.166667 0.687500
vt -0.000000 0.687500
vt -0.000000 0.687500
vt -0.000000 0.742188
vt -0.170833 0.762500
vt -0.166667 0.687500
vt -0.170833 0.762500
vt -0.313542 0.764844
vt -0.313542 0.764844
vt -0.312500 0.687500
vt -0.166667 0.687500
vt -0.166667 0.625000
vt -0.166667 0.687500
vt -0.312500 0.687500
vt -0.312500 0.687500
vt -0.312500 0.625000
vt -0.166667 0.625000
vt -0.583333 0.687500
vt -0.583333 0.625000
vt -0.500000 0.625000
vt -0.500000 0.625000
vt -0.500000 0.687500
vt -0.583333 0.687500
vt -0.583333 0.765625
vt -0.583333 0.687500
vt -0.500000 0.687500
vt -0.500000 0.687500
vt -0.500000 0.765625
vt -0.583333 0.765625
vt -0.583333 0.687500
vt -0.583333 0.765625
vt -0.686458 0.764844
vt -0.686458 0.764844
vt -0.687500 0.687500
vt -0.583333 0.687500
vt -0.583333 0.625000
vt -0.583333 0.687500
vt -0.687500 0.687500
vt -0.687500 0.687500
vt -0.687500 0.625000
vt -0.583333 0.625000
vt -0.833333 0.687500
vt -0.833333 0.625000
vt -0.687500 0.625000
vt -0.687500 0.625000
vt -0.687500 0.687500
vt -0.833333 0.687500
vt -0.829167 0.762500
vt -0.833333 0.687500
vt -0.687500 0.687500
vt -0.687500 0.687500
vt -0.686458 0.764844
vt -0.829167 0.762500
vt -0.833333 0.687500
vt -0.829167 0.762500
vt -1.000000 0.742187
vt -1.000000 0.742187
vt -1.000000 0.687500
vt -0.833333 0.687500
vt -0.833333 0.625000
vt -0.833333 0.687500
vt -1.000000 0.687500
vt -1.000000 0.687500
vt -1.000000 0.625000
vt -0.833333 0.625000
vt -0.416667 0.687500
vt -0.416667 0.625000
vt -0.312500 0.625000
vt -0.312500 0.625000
vt -0.312500 0.687500
vt -0.416667 0.687500
vt -0.416667 0.765625
vt -0.416667 0.687500
vt -0.312500 0.687500
vt -0.312500 0.687500
vt -0.313542 0.764844
vt -0.416667 0.765625
vt -0.416667 0.687500
vt -0.416667 0.765625
vt -0.500000 0.765625
vt -0.500000 0.765625
vt -0.500000 0.687500
vt -0.416667 0.687500
vt -0.416667 0.625000
vt -0.416667 0.687500
vt -0.500000 0.687500
vt -0.500000 0.687500
vt -0.500000 0.625000
vt -0.416667 0.625000
f 1/1 2/2 3/3
f 3/4 4/5 1/6
f 5/7 1/8 4/9
f 4/10 6/11 5/12
f 1/13 5/14 7/15
f 7/16 8/17 1/18
f 2/19 1/20 8/21
f 8/22 9/23 2/24
f 10/25 11/26 12/27
f 12/28 13/29 10/30
f 14/31 10/32 13/33
f 13/34 15/35 14/36
f 10/37 14/38 16/39
f 16/40 17/41 10/42
f 11/43 10/44 17/45
f 17/46 18/47 11/48
f 19/49 20/50 18/51
f 18/52 17/53 19/54
f 21/55 19/56 17/57
f 17/58 16/59 21/60
f 19/61 21/62 22/63
f 22/64 23/65 19/66
f 20/67 19/68 23/69
f 23/70 24/71 20/72
f 25/73 26/74 27/75
f 27/76 28/77 25/78
f 29/79 25/80 28/81
f 28/82 30/83 29/84
f 25/85 29/86 31/87
f 31/88 32/89 25/90
f 26/91 25/92 32/93
f 32/94 33/95 26/96
f 34/97 35/98 36/99
f 36/100 37/101 34/102
f 38/103 34/104 37/105
f 37/106 39/107 38/108
f 34/109 38/110 40/111
f 40/112 41/113 34/114
f 35/115 34/116 41/117
f 41/118 42/119 35/120
f 43/121 38/122 39/123
f 39/124 44/125 43/126
f 45/127 43/128 44/129
f 44/130 46/131 45/132
f 43/133 45/134 47/135
f 47/136 48/137 43/138
f 38/139 43/140 48/141
f 48/142 40/143 38/144
f 49/145 45/146 46/147
f 46/148 50/149 49/150
f 51/151 49/152 50/153
f 50/154 52/155 51/156
f 49/157 51/158 53/159
f 53/160 54/161 49/162
f 45/163 49/164 54/165
f 54/166 47/167 45/168
f 55/169 56/170 57/171
f 57/172 58/173 55/174
f 59/175 55/176 58/177
f 58/178 60/179 59/180
f 55/181 59/182 61/183
f 61/184 62/185 55/186
f 56/187 55/188 62/189
f 62/190 63/191 56/192
f 64/193 65/194 66/195
f 66/196 67/197 64/198
f 68/199 64/200 67/201
f 67/202 69/203 68/204
f 64/205 68/206 70/207
f 70/208 71/209 64/210
f 65/211 64/212 71/213
f 71/214 72/215 65/216
f 73/217 74/218 75/219
f 75/220 76/221 73/222
f 48/223 73/224 76/225
f 76/226 40/227 48/228
f 73/229 48/230 47/231
f 47/232 77/233 73/234
f 74/235 73/236 77/237
f 77/238 78/239 74/240
f 79/241 80/242 78/243
f 78/244 77/245 79/246
f 54/247 79/248 77/249
f 77/250 47/251 54/252
f 79/253 54/254 53/255
f 53/256 81/257 79/258
f 80/259 79/260 81/261
f 81/262 82/263 80/264
f 83/265 84/266 85/267
f 85/268 86/269 83/270
f 87/271 83/272 86/273
f 86/274 88/275 87/276
f 83/277 87/278 89/279
f 89/280 90/281 83/282
f 84/283 83/284 90/285
f 90/286 91/287 84/288
f 92/289 93/290 94/291
f 94/292 95/293 92/294
f 96/295 92/296 95/297
f 95/298 97/299 96/300
f 92/301 96/302 98/303
f 98/304 93/305 92/306
f 99/307 29/308 30/309
f 30/310 100/311 99/312
f 93/313 99/314 100/315
f 100/316 94/317 93/318
f 99/319 93/320 98/321
f 98/322 101/323 99/324
f 29/325 99/326 101/327
f 101/328 31/329 29/330
f 102/331 26/332 33/333
f 33/334 103/335 102/336
f 104/337 102/338 103/339
f 103/340 105/341 104/342
f 102/343 104/344 106/345
f 106/346 107/347 102/348
f 108/349 102/350 107/351
f 107/352 109/353 108/354
f 102/355 108/356 27/357
f 27/358 26/359 102/360
f 110/361 111/362 112/363
f 112/364 113/365 110/366
f 114/367 110/368 113/369
f 113/370 115/371 114/372
f 110/373 114/374 116/375
f 116/376 111/377 110/378
f 117/379 87/380 88/381
f 88/382 118/383 117/384
f 111/385 117/386 118/387
f 118/388 112/389 111/390
f 117/391 111/392 116/393
f 116/394 119/395 117/396
f 87/397 117/398 119/399
f 119/400 89/401 87/402
f 120/403 84/404 91/405
f 91/406 121/407 120/408
f 122/409 120/410 121/411
f 121/412 123/413 122/414
f 120/415 122/416 63/417
f 63/418 62/419 120/420
f 124/421 120/422 62/423
f 62/424 61/425 124/426
f 120/427 124/428 85/429
f 85/430 84/431 120/432
f 125/433 126/434 127/435
f 127/436 128/437 125/438
f 41/439 125/440 128/441
f 128/442 42/443 41/444
f 125/445 41/446 40/447
f 40/448 76/449 125/450
f 129/451 125/452 76/453
f 76/454 75/455 129/456
f 125/457 129/458 130/459
f 130/460 126/461 125/462
f 131/463 68/464 69/465
f 69/466 132/467 131/468
f 126/469 131/470 132/471
f 132/472 127/473 126/474
f 131/475 126/476 130/477
f 130/478 133/479 131/480
f 68/481 131/482 133/483
f 133/484 70/485 68/486
f 134/487 65/488 72/489
f 72/490 135/491 134/492
f 136/493 134/494 135/495
f 135/496 137/497 136/498
f 134/499 136/500 66/501
f 66/502 65/503 134/504
f 138/505 139/506 140/507
f 140/508 141/509 138/510
f 142/511 138/512 141/513
f 141/514 143/515 142/516
f 138/517 142/518 144/519
f 144/520 139/521 138/522
f 145/523 5/524 6/525
f 6/526 146/527 145/528
f 139/529 145/530 146/531
f 146/532 140/533 139/534
f 145/535 139/536 144/537
f 144/538 147/539 145/540
f 5/541 145/542 147/543
f 147/544 7/545 5/546
f 148/547 2/548 9/549
f 9/550 149/551 148/552
f 13/553 148/554 149/555
f 149/556 15/557 13/558
f 148/559 13/560 12/561
f 12/562 150/563 148/564
f 151/565 148/566 150/567
f 150/568 152/569 151/570
f 148/571 151/572 3/573
f 3/574 2/575 148/576
f 153/577 37/578 36/579
f 36/580 154/581 153/582
f 150/583 153/584 154/585
f 154/586 152/587 150/588
f 153/589 150/590 12/591
f 12/592 155/593 153/594
f 37/595 153/596 155/597
f 155/598 39/599 37/600
f 156/601 44/602 39/603
f 39/604 155/605 156/606
f 11/607 156/608 155/609
f 155/610 12/611 11/612
f 156/613 11/614 18/615
f 18/616 157/617 156/618
f 44/619 156/620 157/621
f 157/622 46/623 44/624
f 158/625 50/626 46/627
f 46/628 157/629 158/630
f 20/631 158/632 157/633
f 157/634 18/635 20/636
f 158/637 20/638 24/639
f 24/640 159/641 158/642
f 50/643 158/644 159/645
f 159/646 52/647 50/648
f 160/649 58/650 57/651
f 57/652 161/653 160/654
f 104/655 160/656 161/657
f 161/658 106/659 104/660
f 160/661 104/662 105/663
f 105/664 162/665 160/666
f 58/667 160/668 162/669
f 162/670 60/671 58/672
f 163/673 23/674 22/675
f 22/676 164/677 163/678
f 107/679 163/680 164/681
f 164/682 109/683 107/684
f 163/685 107/686 106/687
f 106/688 165/689 163/690
f 23/691 163/692 165/693
f 165/694 24/695 23/696
f 166/697 51/698 52/699
f 52/700 167/701 166/702
f 56/703 166/704 167/705
f 167/706 57/707 56/708
f 166/709 56/710 63/711
f 63/712 168/713 166/714
f 51/715 166/716 168/717
f 168/718 53/719 51/720
f 169/721 81/722 53/723
f 53/724 168/725 169/726
f 122/727 169/728 168/729
f 168/730 63/731 122/732
f 169/733 122/734 123/735
f 123/736 170/737 169/738
f 81/739 169/740 170/741
f 170/742 82/743 81/744
f 171/745 159/746 24/747
f 24/748 165/749 171/750
f 161/751 171/752 165/753
f 165/754 106/755 161/756
f 171/757 161/758 57/759
f 57/760 167/761 171/762
f 159/763 171/764 167/765
f 167/766 52/767 159/768
