# USD → MuJoCo (world-space)
v 0.060316 -0.019321 -0.219213
v 0.069252 -0.024518 -0.217741
v 0.105408 -0.008578 -0.243501
v 0.093046 -0.007322 -0.239913
v 0.054155 -0.015649 -0.220145
v 0.080668 -0.006015 -0.236281
v 0.027643 -0.025283 -0.204009
v 0.027586 -0.031319 -0.198513
v 0.027615 -0.037280 -0.192868
v 0.040790 -0.048656 -0.180676
v 0.073902 -0.035100 -0.180541
v 0.108096 -0.041465 -0.202103
v 0.069836 -0.047070 -0.196414
v 0.005062 -0.056340 -0.183699
v 0.021807 -0.049228 -0.183576
v -0.012108 -0.062004 -0.184989
v 0.012838 -0.045035 -0.169787
v 0.041015 -0.023657 -0.164386
v -0.023822 -0.049187 -0.130593
v 0.003203 -0.033326 -0.112346
v 0.020240 -0.023384 -0.144645
v -0.007477 -0.045207 -0.154497
v -0.044305 -0.062242 -0.158846
v -0.028625 -0.063511 -0.176021
v -0.062573 -0.060204 -0.141323
v -0.050053 -0.050193 -0.103956
v -0.024856 -0.040524 -0.078841
v -0.117798 -0.039392 -0.100358
v -0.105835 -0.040765 -0.095123
v -0.088348 -0.054507 -0.131176
v -0.100163 -0.051251 -0.128986
v -0.125870 -0.038224 -0.104208
v -0.111924 -0.047789 -0.127080
v -0.139814 -0.028659 -0.081334
v -0.135434 -0.027534 -0.071732
v -0.130897 -0.026309 -0.062195
v 0.111417 0.036037 -0.246533
v 0.091051 0.041740 -0.243851
v 0.166813 0.015649 -0.249505
v 0.204227 0.005193 -0.249777
v 0.119686 0.030862 -0.243851
v 0.204512 0.004135 -0.251057
v 0.065008 0.049693 -0.234238
v 0.052695 0.056830 -0.238902
v 0.045127 0.058959 -0.234402
v 0.062147 0.057525 -0.222499
v 0.058879 0.058435 -0.217363
v 0.070623 0.052731 -0.219815
v 0.097861 0.048973 -0.206984
v 0.095206 0.050383 -0.206698
v 0.091958 0.051248 -0.201530
v 0.087569 0.013788 -0.123774
v 0.084159 0.015776 -0.120626
v 0.102550 0.039532 -0.175240
v 0.105832 0.038398 -0.179913
v 0.088432 0.013280 -0.124589
v 0.106583 0.038060 -0.181074
v 0.059757 -0.011158 -0.074013
v 0.058763 -0.010489 -0.073547
v 0.055526 -0.007774 -0.072347
v 0.022245 -0.017920 -0.072008
v 0.019916 -0.015258 -0.072582
v 0.023299 -0.018643 -0.072346
v -0.017050 -0.017651 -0.095134
v -0.018131 -0.016928 -0.094813
v -0.019183 -0.014708 -0.097075
v -0.123189 0.091282 -0.185611
v -0.131369 0.092683 -0.183938
v -0.138313 0.093099 -0.198281
v -0.132074 0.091880 -0.207219
v -0.114436 0.089552 -0.187442
v -0.126134 0.090266 -0.216127
v -0.102739 0.088837 -0.158757
v -0.114306 0.090683 -0.164004
v -0.126240 0.092147 -0.169286
v 0.014188 0.067529 -0.151901
v -0.010529 0.072447 -0.116061
v -0.046352 0.079805 -0.133052
v -0.028824 0.076041 -0.173379
v 0.035559 0.063260 -0.182966
v -0.004380 0.070897 -0.203645
v 0.068767 0.055991 -0.167014
v 0.047421 0.060417 -0.136011
v 0.022707 0.065573 -0.100288
v 0.040320 0.040955 -0.082050
v 0.015840 0.054926 -0.061104
v 0.033589 0.060206 -0.084469
v 0.058237 0.052753 -0.116453
v 0.061414 0.028895 -0.100247
v 0.079508 0.046355 -0.144228
v 0.035370 0.010842 -0.064906
v 0.015812 0.028061 -0.056110
v -0.004286 0.049524 -0.040143
v -0.034321 0.030138 -0.083533
v -0.024517 0.026512 -0.078097
v -0.031414 0.008745 -0.111673
v -0.037219 0.014444 -0.110186
v -0.041068 0.032639 -0.087334
v -0.043229 0.020145 -0.108716
v -0.038908 0.045133 -0.065951
v -0.031422 0.045832 -0.056880
v -0.023712 0.046532 -0.047868
v -0.144138 -0.036538 -0.110484
v -0.140460 -0.036134 -0.110852
v -0.133949 -0.041066 -0.122123
v -0.141889 -0.039441 -0.115320
v -0.148624 -0.034631 -0.103788
v -0.148609 -0.038531 -0.106762
v -0.147531 -0.031452 -0.099115
v -0.133897 -0.036917 -0.108232
v -0.123573 -0.044121 -0.125419
v -0.144220 -0.029714 -0.091046
v -0.086131 -0.042685 -0.086934
v -0.126025 -0.024956 -0.052679
v -0.064291 -0.035703 -0.063632
v -0.109138 -0.023381 -0.052062
v -0.076536 -0.057559 -0.133694
v -0.058710 0.039197 -0.097198
v -0.053801 0.037335 -0.094433
v -0.055921 0.031348 -0.105467
v -0.061766 0.036942 -0.103795
v -0.059985 0.043124 -0.093059
v -0.067373 0.042541 -0.102116
v -0.052765 0.043740 -0.084013
v -0.047742 0.035093 -0.091056
v -0.049602 0.025764 -0.107125
v -0.045881 0.044423 -0.074986
v -0.008676 0.020679 -0.069468
v -0.016068 0.047244 -0.039010
v 0.006746 0.003075 -0.075599
v -0.025654 0.003130 -0.113313
v -0.021294 -0.002779 -0.112019
v -0.070262 0.082995 -0.196000
v -0.091652 0.086640 -0.191905
v -0.113229 0.088556 -0.234106
v -0.106996 0.087453 -0.243089
v -0.036662 0.074815 -0.223702
v -0.064136 0.076444 -0.249422
v -0.066215 0.083926 -0.142512
v -0.078246 0.086071 -0.148104
v -0.105150 0.088415 -0.189296
v -0.119730 0.089326 -0.225104
v -0.090569 0.087504 -0.153488
v -0.138932 0.092832 -0.182557
v -0.139508 0.092332 -0.174662
v -0.145614 0.092855 -0.189215
v -0.153444 0.091879 -0.180085
v 0.036716 -0.006275 -0.224188
v 0.042175 -0.008784 -0.222296
v 0.054921 -0.003668 -0.230426
v 0.040804 -0.002776 -0.229202
v 0.027374 -0.007632 -0.221394
v 0.026210 -0.001989 -0.228628
v 0.028116 -0.013363 -0.214721
v 0.048049 -0.012022 -0.221060
v 0.068084 -0.004773 -0.232952
v 0.028013 -0.019272 -0.209169
v 0.083687 -0.032723 -0.215202
v 0.027507 -0.043062 -0.187261
v 0.123946 -0.030053 -0.224327
v 0.117941 -0.009672 -0.246694
v 0.137624 -0.009173 -0.249674
v 0.153998 -0.018659 -0.224311
v 0.164236 -0.002035 -0.224357
v 0.200938 -0.001213 -0.254207
v 0.171437 -0.005649 -0.252621
v 0.132226 -0.022949 -0.200624
v 0.132998 0.002573 -0.202394
v 0.145046 0.016322 -0.233664
v 0.207689 0.002024 -0.253110
v 0.101184 0.029197 -0.217834
v 0.029400 0.057865 -0.237946
v 0.023186 0.064425 -0.223318
v 0.052246 0.045954 -0.250473
v 0.101782 -0.009800 -0.186179
v 0.112691 0.018042 -0.196206
v 0.075655 0.006539 -0.178592
v 0.101841 0.033597 -0.197270
v 0.094888 0.039228 -0.209235
v 0.104658 0.045559 -0.205288
v 0.050235 0.060288 -0.204487
v 0.083378 0.053026 -0.188578
v 0.043310 -0.011854 -0.114113
v 0.078110 0.006457 -0.122790
v 0.096415 0.029776 -0.176728
v 0.061098 0.005477 -0.158133
v 0.014458 -0.027461 -0.072041
v 0.049127 -0.016192 -0.073775
v 0.089215 0.012836 -0.125272
v 0.107510 0.037911 -0.182194
v 0.060386 -0.011908 -0.074261
v 0.075734 0.020657 -0.112945
v 0.048169 -0.000884 -0.069892
v 0.094027 0.042066 -0.163584
v -0.024516 -0.028193 -0.062499
v 0.011955 -0.022132 -0.069963
v -0.068551 -0.021488 -0.069220
v -0.029311 -0.019717 -0.088751
v 0.023882 -0.019498 -0.072455
v -0.016460 -0.018510 -0.095251
v 0.015513 -0.008582 -0.075208
v -0.019687 -0.009359 -0.104708
v 0.002271 -0.043763 -0.165541
v -0.019084 -0.063825 -0.184807
v 0.000502 -0.043722 -0.164525
v -0.020859 -0.063780 -0.183797
v 0.027747 -0.019864 -0.157394
v 0.029090 -0.019835 -0.158391
v 0.066832 0.011823 -0.175476
v 0.066758 0.011592 -0.174547
v 0.100180 0.038040 -0.196201
v 0.098974 0.038464 -0.197061
v 0.059521 0.057662 -0.130159
v 0.080857 0.053178 -0.161138
v 0.061145 0.057170 -0.129322
v 0.082479 0.052676 -0.160298
v 0.036438 0.062427 -0.093648
v 0.034812 0.062907 -0.094479
v 0.108993 0.047336 -0.203414
v 0.110656 0.046876 -0.202576
v 0.109736 0.046974 -0.201309
v 0.108049 0.047413 -0.202148
v 0.107305 0.047668 -0.200874
v 0.108968 0.047207 -0.200034
v 0.105647 0.047984 -0.194856
v 0.104017 0.048476 -0.195695
v 0.095446 0.050215 -0.182716
v 0.097065 0.049711 -0.181877
v -0.001058 -0.043794 -0.163326
v -0.022424 -0.063850 -0.182603
v 0.026610 -0.019972 -0.156237
v 0.066881 0.011384 -0.173522
v 0.101549 0.037724 -0.195310
v 0.062947 0.056846 -0.128482
v 0.084279 0.052342 -0.159453
v 0.038243 0.062116 -0.092814
v 0.112409 0.046496 -0.201732
v 0.111465 0.046573 -0.200466
v 0.110721 0.046828 -0.199190
v 0.107435 0.047636 -0.194011
v 0.098865 0.049373 -0.181030
vt -0.104167 0.078125
vt -0.134375 0.100781
vt -0.250000 -0.000000
vt -0.250000 -0.000000
vt -0.208333 -0.000000
vt -0.104167 0.078125
vt -0.083333 0.062500
vt -0.104167 0.078125
vt -0.208333 -0.000000
vt -0.208333 -0.000000
vt -0.166667 -0.000000
vt -0.083333 0.062500
vt -0.104167 0.078125
vt -0.083333 0.062500
vt -0.000000 0.125000
vt -0.000000 0.125000
vt -0.000000 0.156250
vt -0.104167 0.078125
vt -0.134375 0.100781
vt -0.104167 0.078125
vt -0.000000 0.156250
vt -0.000000 0.156250
vt -0.000000 0.187500
vt -0.134375 0.100781
vt -0.166667 0.370126
vt -0.311042 0.370126
vt -0.312083 0.249563
vt -0.312083 0.249563
vt -0.170833 0.251907
vt -0.166667 0.370126
vt -0.000000 0.370126
vt -0.166667 0.370126
vt -0.170833 0.251907
vt -0.170833 0.251907
vt -0.000000 0.272219
vt -0.000000 0.370126
vt -0.166667 0.370126
vt -0.000000 0.370126
vt -0.000000 0.461439
vt -0.000000 0.461439
vt -0.166667 0.461439
vt -0.166667 0.370126
vt -0.311042 0.370126
vt -0.166667 0.370126
vt -0.166667 0.461439
vt -0.166667 0.461439
vt -0.311042 0.461439
vt -0.311042 0.370126
vt -0.166667 0.629874
vt -0.311042 0.629874
vt -0.311042 0.538561
vt -0.311042 0.538561
vt -0.166667 0.538561
vt -0.166667 0.629874
vt -0.000000 0.629874
vt -0.166667 0.629874
vt -0.166667 0.538561
vt -0.166667 0.538561
vt -0.000000 0.538561
vt -0.000000 0.629874
vt -0.166667 0.629874
vt -0.000000 0.629874
vt -0.000000 0.727781
vt -0.000000 0.727781
vt -0.170833 0.748093
vt -0.166667 0.629874
vt -0.311042 0.629874
vt -0.166667 0.629874
vt -0.170833 0.748093
vt -0.170833 0.748093
vt -0.312083 0.750437
vt -0.311042 0.629874
vt -0.104167 0.921875
vt -0.134375 0.899219
vt -0.000000 0.812500
vt -0.000000 0.812500
vt -0.000000 0.843750
vt -0.104167 0.921875
vt -0.083333 0.937500
vt -0.104167 0.921875
vt -0.000000 0.843750
vt -0.000000 0.843750
vt -0.000000 0.875000
vt -0.083333 0.937500
vt -0.104167 0.921875
vt -0.083333 0.937500
vt -0.166667 1.000000
vt -0.166667 1.000000
vt -0.208333 1.000000
vt -0.104167 0.921875
vt -0.134375 0.899219
vt -0.104167 0.921875
vt -0.208333 1.000000
vt -0.208333 1.000000
vt -0.250000 1.000000
vt -0.134375 0.899219
vt -0.505833 0.125000
vt -0.529583 0.125000
vt -0.529583 -0.000000
vt -0.529583 -0.000000
vt -0.505833 -0.000000
vt -0.505833 0.125000
vt -0.500000 0.125000
vt -0.505833 0.125000
vt -0.505833 -0.000000
vt -0.505833 -0.000000
vt -0.500000 -0.000000
vt -0.500000 0.125000
vt -0.505833 0.125000
vt -0.500000 0.125000
vt -0.500000 0.248781
vt -0.500000 0.248781
vt -0.505833 0.248781
vt -0.505833 0.125000
vt -0.529583 0.125000
vt -0.505833 0.125000
vt -0.505833 0.248781
vt -0.505833 0.248781
vt -0.529583 0.248781
vt -0.529583 0.125000
vt -0.505833 0.370126
vt -0.529583 0.370126
vt -0.529583 0.248781
vt -0.529583 0.248781
vt -0.505833 0.248781
vt -0.505833 0.370126
vt -0.500000 0.370126
vt -0.505833 0.370126
vt -0.505833 0.248781
vt -0.505833 0.248781
vt -0.500000 0.248781
vt -0.500000 0.370126
vt -0.505833 0.370126
vt -0.500000 0.370126
vt -0.500000 0.461439
vt -0.500000 0.461439
vt -0.505833 0.461439
vt -0.505833 0.370126
vt -0.529583 0.370126
vt -0.505833 0.370126
vt -0.505833 0.461439
vt -0.505833 0.461439
vt -0.529583 0.461439
vt -0.529583 0.370126
vt -0.505833 0.629874
vt -0.529583 0.629874
vt -0.529583 0.538561
vt -0.529583 0.538561
vt -0.505833 0.538561
vt -0.505833 0.629874
vt -0.500000 0.629874
vt -0.505833 0.629874
vt -0.505833 0.538561
vt -0.505833 0.538561
vt -0.500000 0.538561
vt -0.500000 0.629874
vt -0.505833 0.629874
vt -0.500000 0.629874
vt -0.500000 0.751219
vt -0.500000 0.751219
vt -0.505833 0.751218
vt -0.505833 0.629874
vt -0.529583 0.629874
vt -0.505833 0.629874
vt -0.505833 0.751218
vt -0.505833 0.751218
vt -0.529583 0.751219
vt -0.529583 0.629874
vt -0.505833 0.875000
vt -0.529583 0.875000
vt -0.529583 0.751219
vt -0.529583 0.751219
vt -0.505833 0.751218
vt -0.505833 0.875000
vt -0.500000 0.875000
vt -0.505833 0.875000
vt -0.505833 0.751218
vt -0.505833 0.751218
vt -0.500000 0.751219
vt -0.500000 0.875000
vt -0.505833 0.875000
vt -0.500000 0.875000
vt -0.500000 1.000000
vt -0.500000 1.000000
vt -0.505833 1.000000
vt -0.505833 0.875000
vt -0.529583 0.875000
vt -0.505833 0.875000
vt -0.505833 1.000000
vt -0.505833 1.000000
vt -0.529583 1.000000
vt -0.529583 0.875000
vt -0.937500 0.046875
vt -0.956597 0.032552
vt -0.916667 -0.000000
vt -0.916667 -0.000000
vt -0.875000 -0.000000
vt -0.937500 0.046875
vt -0.916667 0.062500
vt -0.937500 0.046875
vt -0.875000 -0.000000
vt -0.875000 -0.000000
vt -0.833333 -0.000000
vt -0.916667 0.062500
vt -0.937500 0.046875
vt -0.916667 0.062500
vt -1.000000 0.125000
vt -1.000000 0.125000
vt -1.000000 0.093750
vt -0.937500 0.046875
vt -0.956597 0.032552
vt -0.937500 0.046875
vt -1.000000 0.093750
vt -1.000000 0.093750
vt -1.000000 0.062500
vt -0.956597 0.032552
vt -0.833333 0.370126
vt -1.000000 0.370126
vt -1.000000 0.272219
vt -1.000000 0.272219
vt -0.829167 0.251906
vt -0.833333 0.370126
vt -0.688958 0.370126
vt -0.833333 0.370126
vt -0.829167 0.251906
vt -0.829167 0.251906
vt -0.687917 0.249563
vt -0.688958 0.370126
vt -0.833333 0.370126
vt -0.688958 0.370126
vt -0.688958 0.461439
vt -0.688958 0.461439
vt -0.833333 0.461439
vt -0.833333 0.370126
vt -1.000000 0.370126
vt -0.833333 0.370126
vt -0.833333 0.461439
vt -0.833333 0.461439
vt -1.000000 0.461439
vt -1.000000 0.370126
vt -0.833333 0.629874
vt -1.000000 0.629874
vt -1.000000 0.538561
vt -1.000000 0.538561
vt -0.833333 0.538561
vt -0.833333 0.629874
vt -0.688958 0.629874
vt -0.833333 0.629874
vt -0.833333 0.538561
vt -0.833333 0.538561
vt -0.688958 0.538561
vt -0.688958 0.629874
vt -0.833333 0.629874
vt -0.688958 0.629874
vt -0.687917 0.750437
vt -0.687917 0.750437
vt -0.829167 0.748093
vt -0.833333 0.629874
vt -1.000000 0.629874
vt -0.833333 0.629874
vt -0.829167 0.748093
vt -0.829167 0.748093
vt -1.000000 0.727781
vt -1.000000 0.629874
vt -0.895833 0.921875
vt -0.865625 0.899219
vt -0.750000 1.000000
vt -0.750000 1.000000
vt -0.791667 1.000000
vt -0.895833 0.921875
vt -0.916667 0.937500
vt -0.895833 0.921875
vt -0.791667 1.000000
vt -0.791667 1.000000
vt -0.833333 1.000000
vt -0.916667 0.937500
vt -0.895833 0.921875
vt -0.916667 0.937500
vt -1.000000 0.875000
vt -1.000000 0.875000
vt -1.000000 0.843750
vt -0.895833 0.921875
vt -0.865625 0.899219
vt -0.895833 0.921875
vt -1.000000 0.843750
vt -1.000000 0.843750
vt -1.000000 0.812500
vt -0.865625 0.899219
vt -0.027778 0.979167
vt -0.043403 0.967448
vt -0.000000 0.937500
vt -0.000000 0.937500
vt -0.000000 0.968750
vt -0.027778 0.979167
vt -0.041667 1.000000
vt -0.027778 0.979167
vt -0.000000 0.968750
vt -0.000000 0.968750
vt -0.000000 1.000000
vt -0.041667 1.000000
vt -0.027778 0.979167
vt -0.041667 1.000000
vt -0.083333 1.000000
vt -0.083333 1.000000
vt -0.043403 0.967448
vt -0.027778 0.979167
vt -0.062500 0.953125
vt -0.083333 0.937500
vt -0.000000 0.875000
vt -0.000000 0.875000
vt -0.000000 0.906250
vt -0.062500 0.953125
vt -0.043403 0.967448
vt -0.062500 0.953125
vt -0.000000 0.906250
vt -0.000000 0.906250
vt -0.000000 0.937500
vt -0.043403 0.967448
vt -0.062500 0.953125
vt -0.043403 0.967448
vt -0.083333 1.000000
vt -0.083333 1.000000
vt -0.125000 1.000000
vt -0.062500 0.953125
vt -0.083333 0.937500
vt -0.062500 0.953125
vt -0.125000 1.000000
vt -0.125000 1.000000
vt -0.166667 1.000000
vt -0.083333 0.937500
vt -0.183333 0.862500
vt -0.134375 0.899219
vt -0.250000 1.000000
vt -0.250000 1.000000
vt -0.291667 1.000000
vt -0.183333 0.862500
vt -0.315208 0.871875
vt -0.183333 0.862500
vt -0.291667 1.000000
vt -0.291667 1.000000
vt -0.342292 1.000000
vt -0.315208 0.871875
vt -0.183333 0.862500
vt -0.315208 0.871875
vt -0.312083 0.750437
vt -0.312083 0.750437
vt -0.170833 0.748093
vt -0.183333 0.862500
vt -0.000000 0.781250
vt -0.183333 0.862500
vt -0.170833 0.748093
vt -0.170833 0.748093
vt -0.000000 0.727781
vt -0.000000 0.781250
vt -0.183333 0.862500
vt -0.000000 0.781250
vt -0.000000 0.812500
vt -0.000000 0.812500
vt -0.134375 0.899219
vt -0.183333 0.862500
vt -0.972222 0.979167
vt -0.956597 0.967448
vt -0.916667 1.000000
vt -0.916667 1.000000
vt -0.958333 1.000000
vt -0.972222 0.979167
vt -1.000000 0.968750
vt -0.972222 0.979167
vt -0.958333 1.000000
vt -0.958333 1.000000
vt -1.000000 1.000000
vt -1.000000 0.968750
vt -0.972222 0.979167
vt -1.000000 0.968750
vt -1.000000 0.937500
vt -1.000000 0.937500
vt -0.956597 0.967448
vt -0.972222 0.979167
vt -0.937500 0.953125
vt -0.916667 0.937500
vt -0.833333 1.000000
vt -0.833333 1.000000
vt -0.875000 1.000000
vt -0.937500 0.953125
vt -0.956597 0.967448
vt -0.937500 0.953125
vt -0.875000 1.000000
vt -0.875000 1.000000
vt -0.916667 1.000000
vt -0.956597 0.967448
vt -0.937500 0.953125
vt -0.956597 0.967448
vt -1.000000 0.937500
vt -1.000000 0.937500
vt -1.000000 0.906250
vt -0.937500 0.953125
vt -0.916667 0.937500
vt -0.937500 0.953125
vt -1.000000 0.906250
vt -1.000000 0.906250
vt -1.000000 0.875000
vt -0.916667 0.937500
vt -0.816667 0.862500
vt -0.865625 0.899219
vt -1.000000 0.812500
vt -1.000000 0.812500
vt -1.000000 0.781250
vt -0.816667 0.862500
vt -0.829167 0.748093
vt -0.816667 0.862500
vt -1.000000 0.781250
vt -1.000000 0.781250
vt -1.000000 0.727781
vt -0.829167 0.748093
vt -0.816667 0.862500
vt -0.829167 0.748093
vt -0.687917 0.750437
vt -0.687917 0.750437
vt -0.684792 0.871875
vt -0.816667 0.862500
vt -0.708333 1.000000
vt -0.816667 0.862500
vt -0.684792 0.871875
vt -0.684792 0.871875
vt -0.657708 1.000000
vt -0.708333 1.000000
vt -0.816667 0.862500
vt -0.708333 1.000000
vt -0.750000 1.000000
vt -0.750000 1.000000
vt -0.865625 0.899219
vt -0.816667 0.862500
vt -0.816667 0.137500
vt -0.865625 0.100781
vt -0.750000 -0.000000
vt -0.750000 -0.000000
vt -0.708333 -0.000000
vt -0.816667 0.137500
vt -0.684792 0.128125
vt -0.816667 0.137500
vt -0.708333 -0.000000
vt -0.708333 -0.000000
vt -0.657708 -0.000000
vt -0.684792 0.128125
vt -0.816667 0.137500
vt -0.684792 0.128125
vt -0.687917 0.249563
vt -0.687917 0.249563
vt -0.829167 0.251906
vt -0.816667 0.137500
vt -1.000000 0.218750
vt -0.816667 0.137500
vt -0.829167 0.251906
vt -0.829167 0.251906
vt -1.000000 0.272219
vt -1.000000 0.218750
vt -0.816667 0.137500
vt -1.000000 0.218750
vt -1.000000 0.187500
vt -1.000000 0.187500
vt -0.865625 0.100781
vt -0.816667 0.137500
vt -0.895833 0.078125
vt -0.916667 0.062500
vt -0.833333 -0.000000
vt -0.833333 -0.000000
vt -0.791667 -0.000000
vt -0.895833 0.078125
vt -0.865625 0.100781
vt -0.895833 0.078125
vt -0.791667 -0.000000
vt -0.791667 -0.000000
vt -0.750000 -0.000000
vt -0.865625 0.100781
vt -0.895833 0.078125
vt -0.865625 0.100781
vt -1.000000 0.187500
vt -1.000000 0.187500
vt -1.000000 0.156250
vt -0.895833 0.078125
vt -0.916667 0.062500
vt -0.895833 0.078125
vt -1.000000 0.156250
vt -1.000000 0.156250
vt -1.000000 0.125000
vt -0.916667 0.062500
vt -0.972222 0.020833
vt -0.956597 0.032552
vt -1.000000 0.062500
vt -1.000000 0.062500
vt -1.000000 0.031250
vt -0.972222 0.020833
vt -0.958333 -0.000000
vt -0.972222 0.020833
vt -1.000000 0.031250
vt -1.000000 0.031250
vt -1.000000 -0.000000
vt -0.958333 -0.000000
vt -0.972222 0.020833
vt -0.958333 -0.000000
vt -0.916667 -0.000000
vt -0.916667 -0.000000
vt -0.956597 0.032552
vt -0.972222 0.020833
vt -0.027778 0.020833
vt -0.043403 0.032552
vt -0.083333 -0.000000
vt -0.083333 -0.000000
vt -0.041667 -0.000000
vt -0.027778 0.020833
vt -0.000000 0.031250
vt -0.027778 0.020833
vt -0.041667 -0.000000
vt -0.041667 -0.000000
vt 0.000000 0.000000
vt -0.000000 0.031250
vt -0.027778 0.020833
vt -0.000000 0.031250
vt -0.000000 0.062500
vt -0.000000 0.062500
vt -0.043403 0.032552
vt -0.027778 0.020833
vt -0.062500 0.046875
vt -0.083333 0.062500
vt -0.166667 -0.000000
vt -0.166667 -0.000000
vt -0.125000 -0.000000
vt -0.062500 0.046875
vt -0.043403 0.032552
vt -0.062500 0.046875
vt -0.125000 -0.000000
vt -0.125000 -0.000000
vt -0.083333 -0.000000
vt -0.043403 0.032552
vt -0.062500 0.046875
vt -0.043403 0.032552
vt -0.000000 0.062500
vt -0.000000 0.062500
vt -0.000000 0.093750
vt -0.062500 0.046875
vt -0.083333 0.062500
vt -0.062500 0.046875
vt -0.000000 0.093750
vt -0.000000 0.093750
vt -0.000000 0.125000
vt -0.083333 0.062500
vt -0.183333 0.137500
vt -0.134375 0.100781
vt -0.000000 0.187500
vt -0.000000 0.187500
vt -0.000000 0.218750
vt -0.183333 0.137500
vt -0.170833 0.251907
vt -0.183333 0.137500
vt -0.000000 0.218750
vt -0.000000 0.218750
vt -0.000000 0.272219
vt -0.170833 0.251907
vt -0.183333 0.137500
vt -0.170833 0.251907
vt -0.312083 0.249563
vt -0.312083 0.249563
vt -0.315208 0.128125
vt -0.183333 0.137500
vt -0.291667 -0.000000
vt -0.183333 0.137500
vt -0.315208 0.128125
vt -0.315208 0.128125
vt -0.342292 -0.000000
vt -0.291667 -0.000000
vt -0.183333 0.137500
vt -0.291667 -0.000000
vt -0.250000 -0.000000
vt -0.250000 -0.000000
vt -0.134375 0.100781
vt -0.183333 0.137500
vt -0.410833 0.125000
vt -0.470417 0.125000
vt -0.470417 -0.000000
vt -0.470417 -0.000000
vt -0.410833 -0.000000
vt -0.410833 0.125000
vt -0.315208 0.128125
vt -0.410833 0.125000
vt -0.410833 -0.000000
vt -0.410833 -0.000000
vt -0.342292 -0.000000
vt -0.315208 0.128125
vt -0.410833 0.125000
vt -0.315208 0.128125
vt -0.312083 0.249563
vt -0.312083 0.249563
vt -0.410833 0.248781
vt -0.410833 0.125000
vt -0.470417 0.125000
vt -0.410833 0.125000
vt -0.410833 0.248781
vt -0.410833 0.248781
vt -0.470417 0.248781
vt -0.470417 0.125000
vt -0.494167 0.125000
vt -0.500000 0.125000
vt -0.500000 -0.000000
vt -0.500000 -0.000000
vt -0.494167 -0.000000
vt -0.494167 0.125000
vt -0.470417 0.125000
vt -0.494167 0.125000
vt -0.494167 -0.000000
vt -0.494167 -0.000000
vt -0.470417 -0.000000
vt -0.470417 0.125000
vt -0.494167 0.125000
vt -0.470417 0.125000
vt -0.470417 0.248781
vt -0.470417 0.248781
vt -0.494167 0.248781
vt -0.494167 0.125000
vt -0.500000 0.125000
vt -0.494167 0.125000
vt -0.494167 0.248781
vt -0.494167 0.248781
vt -0.500000 0.248781
vt -0.500000 0.125000
vt -0.589167 0.125000
vt -0.529583 0.125000
vt -0.529583 0.248781
vt -0.529583 0.248781
vt -0.589167 0.248781
vt -0.589167 0.125000
vt -0.684792 0.128125
vt -0.589167 0.125000
vt -0.589167 0.248781
vt -0.589167 0.248781
vt -0.687917 0.249563
vt -0.684792 0.128125
vt -0.589167 0.125000
vt -0.684792 0.128125
vt -0.657708 -0.000000
vt -0.657708 -0.000000
vt -0.589167 -0.000000
vt -0.589167 0.125000
vt -0.529583 0.125000
vt -0.589167 0.125000
vt -0.589167 -0.000000
vt -0.589167 -0.000000
vt -0.529583 -0.000000
vt -0.529583 0.125000
vt -0.410833 0.370126
vt -0.470417 0.370126
vt -0.470417 0.248781
vt -0.470417 0.248781
vt -0.410833 0.248781
vt -0.410833 0.370126
vt -0.311042 0.370126
vt -0.410833 0.370126
vt -0.410833 0.248781
vt -0.410833 0.248781
vt -0.312083 0.249563
vt -0.311042 0.370126
vt -0.410833 0.370126
vt -0.311042 0.370126
vt -0.311042 0.461439
vt -0.311042 0.461439
vt -0.410833 0.461439
vt -0.410833 0.370126
vt -0.470417 0.370126
vt -0.410833 0.370126
vt -0.410833 0.461439
vt -0.410833 0.461439
vt -0.470417 0.461439
vt -0.470417 0.370126
vt -0.494167 0.370126
vt -0.500000 0.370126
vt -0.500000 0.248781
vt -0.500000 0.248781
vt -0.494167 0.248781
vt -0.494167 0.370126
vt -0.470417 0.370126
vt -0.494167 0.370126
vt -0.494167 0.248781
vt -0.494167 0.248781
vt -0.470417 0.248781
vt -0.470417 0.370126
vt -0.494167 0.370126
vt -0.470417 0.370126
vt -0.470417 0.461439
vt -0.470417 0.461439
vt -0.494167 0.461439
vt -0.494167 0.370126
vt -0.500000 0.370126
vt -0.494167 0.370126
vt -0.494167 0.461439
vt -0.494167 0.461439
vt -0.500000 0.461439
vt -0.500000 0.370126
vt -0.589167 0.370126
vt -0.529583 0.370126
vt -0.529583 0.461439
vt -0.529583 0.461439
vt -0.589167 0.461439
vt -0.589167 0.370126
vt -0.688958 0.370126
vt -0.589167 0.370126
vt -0.589167 0.461439
vt -0.589167 0.461439
vt -0.688958 0.461439
vt -0.688958 0.370126
vt -0.589167 0.370126
vt -0.688958 0.370126
vt -0.687917 0.249563
vt -0.687917 0.249563
vt -0.589167 0.248781
vt -0.589167 0.370126
vt -0.529583 0.370126
vt -0.589167 0.370126
vt -0.589167 0.248781
vt -0.589167 0.248781
vt -0.529583 0.248781
vt -0.529583 0.370126
vt -0.410833 0.629874
vt -0.470417 0.629874
vt -0.470417 0.538561
vt -0.470417 0.538561
vt -0.410833 0.538561
vt -0.410833 0.629874
vt -0.311042 0.629874
vt -0.410833 0.629874
vt -0.410833 0.538561
vt -0.410833 0.538561
vt -0.311042 0.538561
vt -0.311042 0.629874
vt -0.410833 0.629874
vt -0.311042 0.629874
vt -0.312083 0.750437
vt -0.312083 0.750437
vt -0.410833 0.751218
vt -0.410833 0.629874
vt -0.470417 0.629874
vt -0.410833 0.629874
vt -0.410833 0.751218
vt -0.410833 0.751218
vt -0.470417 0.751219
vt -0.470417 0.629874
vt -0.494167 0.629874
vt -0.500000 0.629874
vt -0.500000 0.538561
vt -0.500000 0.538561
vt -0.494167 0.538561
vt -0.494167 0.629874
vt -0.470417 0.629874
vt -0.494167 0.629874
vt -0.494167 0.538561
vt -0.494167 0.538561
vt -0.470417 0.538561
vt -0.470417 0.629874
vt -0.494167 0.629874
vt -0.470417 0.629874
vt -0.470417 0.751219
vt -0.470417 0.751219
vt -0.494167 0.751218
vt -0.494167 0.629874
vt -0.500000 0.629874
vt -0.494167 0.629874
vt -0.494167 0.751218
vt -0.494167 0.751218
vt -0.500000 0.751219
vt -0.500000 0.629874
vt -0.589167 0.629874
vt -0.529583 0.629874
vt -0.529583 0.751219
vt -0.529583 0.751219
vt -0.589167 0.751218
vt -0.589167 0.629874
vt -0.688958 0.629874
vt -0.589167 0.629874
vt -0.589167 0.751218
vt -0.589167 0.751218
vt -0.687917 0.750437
vt -0.688958 0.629874
vt -0.589167 0.629874
vt -0.688958 0.629874
vt -0.688958 0.538561
vt -0.688958 0.538561
vt -0.589167 0.538561
vt -0.589167 0.629874
vt -0.529583 0.629874
vt -0.589167 0.629874
vt -0.589167 0.538561
vt -0.589167 0.538561
vt -0.529583 0.538561
vt -0.529583 0.629874
vt -0.410833 0.875000
vt -0.470417 0.875000
vt -0.470417 0.751219
vt -0.470417 0.751219
vt -0.410833 0.751218
vt -0.410833 0.875000
vt -0.315208 0.871875
vt -0.410833 0.875000
vt -0.410833 0.751218
vt -0.410833 0.751218
vt -0.312083 0.750437
vt -0.315208 0.871875
vt -0.410833 0.875000
vt -0.315208 0.871875
vt -0.342292 1.000000
vt -0.342292 1.000000
vt -0.410833 1.000000
vt -0.410833 0.875000
vt -0.470417 0.875000
vt -0.410833 0.875000
vt -0.410833 1.000000
vt -0.410833 1.000000
vt -0.470417 1.000000
vt -0.470417 0.875000
vt -0.494167 0.875000
vt -0.500000 0.875000
vt -0.500000 0.751219
vt -0.500000 0.751219
vt -0.494167 0.751218
vt -0.494167 0.875000
vt -0.470417 0.875000
vt -0.494167 0.875000
vt -0.494167 0.751218
vt -0.494167 0.751218
vt -0.470417 0.751219
vt -0.470417 0.875000
vt -0.494167 0.875000
vt -0.470417 0.875000
vt -0.470417 1.000000
vt -0.470417 1.000000
vt -0.494167 1.000000
vt -0.494167 0.875000
vt -0.500000 0.875000
vt -0.494167 0.875000
vt -0.494167 1.000000
vt -0.494167 1.000000
vt -0.500000 1.000000
vt -0.500000 0.875000
vt -0.589167 0.875000
vt -0.529583 0.875000
vt -0.529583 1.000000
vt -0.529583 1.000000
vt -0.589167 1.000000
vt -0.589167 0.875000
vt -0.684792 0.871875
vt -0.589167 0.875000
vt -0.589167 1.000000
vt -0.589167 1.000000
vt -0.657708 1.000000
vt -0.684792 0.871875
vt -0.589167 0.875000
vt -0.684792 0.871875
vt -0.687917 0.750437
vt -0.687917 0.750437
vt -0.589167 0.751218
vt -0.589167 0.875000
vt -0.529583 0.875000
vt -0.589167 0.875000
vt -0.589167 0.751218
vt -0.589167 0.751218
vt -0.529583 0.751219
vt -0.529583 0.875000
vt -0.166667 0.495126
vt -0.166667 0.461439
vt -0.000000 0.461439
vt -0.000000 0.461439
vt -0.000000 0.495126
vt -0.166667 0.495126
vt -0.166667 0.500000
vt -0.166667 0.495126
vt -0.000000 0.495126
vt -0.000000 0.495126
vt -0.000000 0.500000
vt -0.166667 0.500000
vt -0.166667 0.495126
vt -0.166667 0.500000
vt -0.311042 0.500000
vt -0.311042 0.500000
vt -0.311042 0.495126
vt -0.166667 0.495126
vt -0.166667 0.461439
vt -0.166667 0.495126
vt -0.311042 0.495126
vt -0.311042 0.495126
vt -0.311042 0.461439
vt -0.166667 0.461439
vt -0.410833 0.495126
vt -0.410833 0.461439
vt -0.311042 0.461439
vt -0.311042 0.461439
vt -0.311042 0.495126
vt -0.410833 0.495126
vt -0.410833 0.500000
vt -0.410833 0.495126
vt -0.311042 0.495126
vt -0.311042 0.495126
vt -0.311042 0.500000
vt -0.410833 0.500000
vt -0.410833 0.495126
vt -0.410833 0.500000
vt -0.470417 0.500000
vt -0.470417 0.500000
vt -0.470417 0.495126
vt -0.410833 0.495126
vt -0.410833 0.461439
vt -0.410833 0.495126
vt -0.470417 0.495126
vt -0.470417 0.495126
vt -0.470417 0.461439
vt -0.410833 0.461439
vt -0.833333 0.495126
vt -0.833333 0.461439
vt -0.688958 0.461439
vt -0.688958 0.461439
vt -0.688958 0.495126
vt -0.833333 0.495126
vt -0.833333 0.500000
vt -0.833333 0.495126
vt -0.688958 0.495126
vt -0.688958 0.495126
vt -0.688958 0.500000
vt -0.833333 0.500000
vt -0.833333 0.495126
vt -0.833333 0.500000
vt -1.000000 0.500000
vt -1.000000 0.500000
vt -1.000000 0.495126
vt -0.833333 0.495126
vt -0.833333 0.461439
vt -0.833333 0.495126
vt -1.000000 0.495126
vt -1.000000 0.495126
vt -1.000000 0.461439
vt -0.833333 0.461439
vt -0.494167 0.495126
vt -0.494167 0.461439
vt -0.470417 0.461439
vt -0.470417 0.461439
vt -0.470417 0.495126
vt -0.494167 0.495126
vt -0.494167 0.500000
vt -0.494167 0.495126
vt -0.470417 0.495126
vt -0.470417 0.495126
vt -0.470417 0.500000
vt -0.494167 0.500000
vt -0.494167 0.495126
vt -0.494167 0.500000
vt -0.500000 0.500000
vt -0.500000 0.500000
vt -0.500000 0.495126
vt -0.494167 0.495126
vt -0.494167 0.461439
vt -0.494167 0.495126
vt -0.500000 0.495126
vt -0.500000 0.495126
vt -0.500000 0.461439
vt -0.494167 0.461439
vt -0.505833 0.495126
vt -0.505833 0.461439
vt -0.500000 0.461439
vt -0.500000 0.461439
vt -0.500000 0.495126
vt -0.505833 0.495126
vt -0.505833 0.500000
vt -0.505833 0.495126
vt -0.500000 0.495126
vt -0.500000 0.495126
vt -0.500000 0.500000
vt -0.505833 0.500000
vt -0.505833 0.495126
vt -0.505833 0.500000
vt -0.529583 0.500000
vt -0.529583 0.500000
vt -0.529583 0.495126
vt -0.505833 0.495126
vt -0.505833 0.461439
vt -0.505833 0.495126
vt -0.529583 0.495126
vt -0.529583 0.495126
vt -0.529583 0.461439
vt -0.505833 0.461439
vt -0.589167 0.495126
vt -0.589167 0.461439
vt -0.529583 0.461439
vt -0.529583 0.461439
vt -0.529583 0.495126
vt -0.589167 0.495126
vt -0.589167 0.500000
vt -0.589167 0.495126
vt -0.529583 0.495126
vt -0.529583 0.495126
vt -0.529583 0.500000
vt -0.589167 0.500000
vt -0.589167 0.495126
vt -0.589167 0.500000
vt -0.688958 0.500000
vt -0.688958 0.500000
vt -0.688958 0.495126
vt -0.589167 0.495126
vt -0.589167 0.461439
vt -0.589167 0.495126
vt -0.688958 0.495126
vt -0.688958 0.495126
vt -0.688958 0.461439
vt -0.589167 0.461439
vt -0.166667 0.504874
vt -0.166667 0.500000
vt -0.000000 0.500000
vt -0.000000 0.500000
vt -0.000000 0.504874
vt -0.166667 0.504874
vt -0.166667 0.538561
vt -0.166667 0.504874
vt -0.000000 0.504874
vt -0.000000 0.504874
vt -0.000000 0.538561
vt -0.166667 0.538561
vt -0.166667 0.504874
vt -0.166667 0.538561
vt -0.311042 0.538561
vt -0.311042 0.538561
vt -0.311042 0.504874
vt -0.166667 0.504874
vt -0.166667 0.500000
vt -0.166667 0.504874
vt -0.311042 0.504874
vt -0.311042 0.504874
vt -0.311042 0.500000
vt -0.166667 0.500000
vt -0.410833 0.504874
vt -0.410833 0.500000
vt -0.311042 0.500000
vt -0.311042 0.500000
vt -0.311042 0.504874
vt -0.410833 0.504874
vt -0.410833 0.538561
vt -0.410833 0.504874
vt -0.311042 0.504874
vt -0.311042 0.504874
vt -0.311042 0.538561
vt -0.410833 0.538561
vt -0.410833 0.504874
vt -0.410833 0.538561
vt -0.470417 0.538561
vt -0.470417 0.538561
vt -0.470417 0.504874
vt -0.410833 0.504874
vt -0.410833 0.500000
vt -0.410833 0.504874
vt -0.470417 0.504874
vt -0.470417 0.504874
vt -0.470417 0.500000
vt -0.410833 0.500000
vt -0.833333 0.504874
vt -0.833333 0.500000
vt -0.688958 0.500000
vt -0.688958 0.500000
vt -0.688958 0.504874
vt -0.833333 0.504874
vt -0.833333 0.538561
vt -0.833333 0.504874
vt -0.688958 0.504874
vt -0.688958 0.504874
vt -0.688958 0.538561
vt -0.833333 0.538561
vt -0.833333 0.504874
vt -0.833333 0.538561
vt -1.000000 0.538561
vt -1.000000 0.538561
vt -1.000000 0.504874
vt -0.833333 0.504874
vt -0.833333 0.500000
vt -0.833333 0.504874
vt -1.000000 0.504874
vt -1.000000 0.504874
vt -1.000000 0.500000
vt -0.833333 0.500000
vt -0.494167 0.504874
vt -0.494167 0.500000
vt -0.470417 0.500000
vt -0.470417 0.500000
vt -0.470417 0.504874
vt -0.494167 0.504874
vt -0.494167 0.538561
vt -0.494167 0.504874
vt -0.470417 0.504874
vt -0.470417 0.504874
vt -0.470417 0.538561
vt -0.494167 0.538561
vt -0.494167 0.504874
vt -0.494167 0.538561
vt -0.500000 0.538561
vt -0.500000 0.538561
vt -0.500000 0.504874
vt -0.494167 0.504874
vt -0.494167 0.500000
vt -0.494167 0.504874
vt -0.500000 0.504874
vt -0.500000 0.504874
vt -0.500000 0.500000
vt -0.494167 0.500000
vt -0.505833 0.504874
vt -0.505833 0.500000
vt -0.500000 0.500000
vt -0.500000 0.500000
vt -0.500000 0.504874
vt -0.505833 0.504874
vt -0.505833 0.538561
vt -0.505833 0.504874
vt -0.500000 0.504874
vt -0.500000 0.504874
vt -0.500000 0.538561
vt -0.505833 0.538561
vt -0.505833 0.504874
vt -0.505833 0.538561
vt -0.529583 0.538561
vt -0.529583 0.538561
vt -0.529583 0.504874
vt -0.505833 0.504874
vt -0.505833 0.500000
vt -0.505833 0.504874
vt -0.529583 0.504874
vt -0.529583 0.504874
vt -0.529583 0.500000
vt -0.505833 0.500000
vt -0.589167 0.504874
vt -0.589167 0.500000
vt -0.529583 0.500000
vt -0.529583 0.500000
vt -0.529583 0.504874
vt -0.589167 0.504874
vt -0.589167 0.538561
vt -0.589167 0.504874
vt -0.529583 0.504874
vt -0.529583 0.504874
vt -0.529583 0.538561
vt -0.589167 0.538561
vt -0.589167 0.504874
vt -0.589167 0.538561
vt -0.688958 0.538561
vt -0.688958 0.538561
vt -0.688958 0.504874
vt -0.589167 0.504874
vt -0.589167 0.500000
vt -0.589167 0.504874
vt -0.688958 0.504874
vt -0.688958 0.504874
vt -0.688958 0.500000
vt -0.589167 0.500000
f 1/1 2/2 3/3
f 3/4 4/5 1/6
f 5/7 1/8 4/9
f 4/10 6/11 5/12
f 1/13 5/14 7/15
f 7/16 8/17 1/18
f 2/19 1/20 8/21
f 8/22 9/23 2/24
f 10/25 11/26 12/27
f 12/28 13/29 10/30
f 14/31 10/32 13/33
f 13/34 15/35 14/36
f 10/37 14/38 16/39
f 16/40 17/41 10/42
f 11/43 10/44 17/45
f 17/46 18/47 11/48
f 19/49 20/50 21/51
f 21/52 22/53 19/54
f 23/55 19/56 22/57
f 22/58 24/59 23/60
f 19/61 23/62 25/63
f 25/64 26/65 19/66
f 20/67 19/68 26/69
f 26/70 27/71 20/72
f 28/73 29/74 30/75
f 30/76 31/77 28/78
f 32/79 28/80 31/81
f 31/82 33/83 32/84
f 28/85 32/86 34/87
f 34/88 35/89 28/90
f 29/91 28/92 35/93
f 35/94 36/95 29/96
f 37/97 38/98 39/99
f 39/100 40/101 37/102
f 41/103 37/104 40/105
f 40/106 42/107 41/108
f 37/109 41/110 43/111
f 43/112 44/113 37/114
f 38/115 37/116 44/117
f 44/118 45/119 38/120
f 46/121 47/122 45/123
f 45/124 44/125 46/126
f 48/127 46/128 44/129
f 44/130 43/131 48/132
f 46/133 48/134 49/135
f 49/136 50/137 46/138
f 47/139 46/140 50/141
f 50/142 51/143 47/144
f 52/145 53/146 54/147
f 54/148 55/149 52/150
f 56/151 52/152 55/153
f 55/154 57/155 56/156
f 52/157 56/158 58/159
f 58/160 59/161 52/162
f 53/163 52/164 59/165
f 59/166 60/167 53/168
f 61/169 62/170 60/171
f 60/172 59/173 61/174
f 63/175 61/176 59/177
f 59/178 58/179 63/180
f 61/181 63/182 64/183
f 64/184 65/185 61/186
f 62/187 61/188 65/189
f 65/190 66/191 62/192
f 67/193 68/194 69/195
f 69/196 70/197 67/198
f 71/199 67/200 70/201
f 70/202 72/203 71/204
f 67/205 71/206 73/207
f 73/208 74/209 67/210
f 68/211 67/212 74/213
f 74/214 75/215 68/216
f 76/217 77/218 78/219
f 78/220 79/221 76/222
f 80/223 76/224 79/225
f 79/226 81/227 80/228
f 76/229 80/230 82/231
f 82/232 83/233 76/234
f 77/235 76/236 83/237
f 83/238 84/239 77/240
f 85/241 86/242 87/243
f 87/244 88/245 85/246
f 89/247 85/248 88/249
f 88/250 90/251 89/252
f 85/253 89/254 91/255
f 91/256 92/257 85/258
f 86/259 85/260 92/261
f 92/262 93/263 86/264
f 94/265 95/266 96/267
f 96/268 97/269 94/270
f 98/271 94/272 97/273
f 97/274 99/275 98/276
f 94/277 98/278 100/279
f 100/280 101/281 94/282
f 95/283 94/284 101/285
f 101/286 102/287 95/288
f 103/289 104/290 105/291
f 105/292 106/293 103/294
f 107/295 103/296 106/297
f 106/298 108/299 107/300
f 103/301 107/302 109/303
f 109/304 104/305 103/306
f 110/307 32/308 33/309
f 33/310 111/311 110/312
f 104/313 110/314 111/315
f 111/316 105/317 104/318
f 110/319 104/320 109/321
f 109/322 112/323 110/324
f 32/325 110/326 112/327
f 112/328 34/329 32/330
f 113/331 29/332 36/333
f 36/334 114/335 113/336
f 115/337 113/338 114/339
f 114/340 116/341 115/342
f 113/343 115/344 27/345
f 27/346 26/347 113/348
f 117/349 113/350 26/351
f 26/352 25/353 117/354
f 113/355 117/356 30/357
f 30/358 29/359 113/360
f 118/361 119/362 120/363
f 120/364 121/365 118/366
f 122/367 118/368 121/369
f 121/370 123/371 122/372
f 118/373 122/374 124/375
f 124/376 119/377 118/378
f 125/379 98/380 99/381
f 99/382 126/383 125/384
f 119/385 125/386 126/387
f 126/388 120/389 119/390
f 125/391 119/392 124/393
f 124/394 127/395 125/396
f 98/397 125/398 127/399
f 127/400 100/401 98/402
f 128/403 95/404 102/405
f 102/406 129/407 128/408
f 92/409 128/410 129/411
f 129/412 93/413 92/414
f 128/415 92/416 91/417
f 91/418 130/419 128/420
f 131/421 128/422 130/423
f 130/424 132/425 131/426
f 128/427 131/428 96/429
f 96/430 95/431 128/432
f 133/433 134/434 135/435
f 135/436 136/437 133/438
f 137/439 133/440 136/441
f 136/442 138/443 137/444
f 133/445 137/446 81/447
f 81/448 79/449 133/450
f 139/451 133/452 79/453
f 79/454 78/455 139/456
f 133/457 139/458 140/459
f 140/460 134/461 133/462
f 141/463 71/464 72/465
f 72/466 142/467 141/468
f 134/469 141/470 142/471
f 142/472 135/473 134/474
f 141/475 134/476 140/477
f 140/478 143/479 141/480
f 71/481 141/482 143/483
f 143/484 73/485 71/486
f 144/487 68/488 75/489
f 75/490 145/491 144/492
f 146/493 144/494 145/495
f 145/496 147/497 146/498
f 144/499 146/500 69/501
f 69/502 68/503 144/504
f 148/505 149/506 150/507
f 150/508 151/509 148/510
f 152/511 148/512 151/513
f 151/514 153/515 152/516
f 148/517 152/518 154/519
f 154/520 149/521 148/522
f 155/523 5/524 6/525
f 6/526 156/527 155/528
f 149/529 155/530 156/531
f 156/532 150/533 149/534
f 155/535 149/536 154/537
f 154/538 157/539 155/540
f 5/541 155/542 157/543
f 157/544 7/545 5/546
f 158/547 2/548 9/549
f 9/550 159/551 158/552
f 13/553 158/554 159/555
f 159/556 15/557 13/558
f 158/559 13/560 12/561
f 12/562 160/563 158/564
f 161/565 158/566 160/567
f 160/568 162/569 161/570
f 158/571 161/572 3/573
f 3/574 2/575 158/576
f 163/577 164/578 165/579
f 165/580 166/581 163/582
f 160/583 163/584 166/585
f 166/586 162/587 160/588
f 163/589 160/590 12/591
f 12/592 167/593 163/594
f 164/595 163/596 167/597
f 167/598 168/599 164/600
f 169/601 41/602 42/603
f 42/604 170/605 169/606
f 164/607 169/608 170/609
f 170/610 165/611 164/612
f 169/613 164/614 168/615
f 168/616 171/617 169/618
f 41/619 169/620 171/621
f 171/622 43/623 41/624
f 172/625 38/626 45/627
f 45/628 173/629 172/630
f 137/631 172/632 173/633
f 173/634 81/635 137/636
f 172/637 137/638 138/639
f 138/640 174/641 172/642
f 38/643 172/644 174/645
f 174/646 39/647 38/648
f 175/649 176/650 168/651
f 168/652 167/653 175/654
f 11/655 175/656 167/657
f 167/658 12/659 11/660
f 175/661 11/662 18/663
f 18/664 177/665 175/666
f 176/667 175/668 177/669
f 177/670 178/671 176/672
f 179/673 48/674 43/675
f 43/676 171/677 179/678
f 176/679 179/680 171/681
f 171/682 168/683 176/684
f 179/685 176/686 178/687
f 178/688 180/689 179/690
f 48/691 179/692 180/693
f 180/694 49/695 48/696
f 181/697 47/698 51/699
f 51/700 182/701 181/702
f 80/703 181/704 182/705
f 182/706 82/707 80/708
f 181/709 80/710 81/711
f 81/712 173/713 181/714
f 47/715 181/716 173/717
f 173/718 45/719 47/720
f 183/721 184/722 185/723
f 185/724 186/725 183/726
f 20/727 183/728 186/729
f 186/730 21/731 20/732
f 183/733 20/734 27/735
f 27/736 187/737 183/738
f 184/739 183/740 187/741
f 187/742 188/743 184/744
f 189/745 56/746 57/747
f 57/748 190/749 189/750
f 184/751 189/752 190/753
f 190/754 185/755 184/756
f 189/757 184/758 188/759
f 188/760 191/761 189/762
f 56/763 189/764 191/765
f 191/766 58/767 56/768
f 192/769 53/770 60/771
f 60/772 193/773 192/774
f 89/775 192/776 193/777
f 193/778 91/779 89/780
f 192/781 89/782 90/783
f 90/784 194/785 192/786
f 53/787 192/788 194/789
f 194/790 54/791 53/792
f 195/793 196/794 188/795
f 188/796 187/797 195/798
f 115/799 195/800 187/801
f 187/802 27/803 115/804
f 195/805 115/806 116/807
f 116/808 197/809 195/810
f 196/811 195/812 197/813
f 197/814 198/815 196/816
f 199/817 63/818 58/819
f 58/820 191/821 199/822
f 196/823 199/824 191/825
f 191/826 188/827 196/828
f 199/829 196/830 198/831
f 198/832 200/833 199/834
f 63/835 199/836 200/837
f 200/838 64/839 63/840
f 201/841 62/842 66/843
f 66/844 202/845 201/846
f 130/847 201/848 202/849
f 202/850 132/851 130/852
f 201/853 130/854 91/855
f 91/856 193/857 201/858
f 62/859 201/860 193/861
f 193/862 60/863 62/864
f 203/865 17/866 16/867
f 16/868 204/869 203/870
f 205/871 203/872 204/873
f 204/874 206/875 205/876
f 203/877 205/878 207/879
f 207/880 208/881 203/882
f 17/883 203/884 208/885
f 208/886 18/887 17/888
f 209/889 177/890 18/891
f 18/892 208/893 209/894
f 210/895 209/896 208/897
f 208/898 207/899 210/900
f 209/901 210/902 211/903
f 211/904 212/905 209/906
f 177/907 209/908 212/909
f 212/910 178/911 177/912
f 213/913 83/914 82/915
f 82/916 214/917 213/918
f 215/919 213/920 214/921
f 214/922 216/923 215/924
f 213/925 215/926 217/927
f 217/928 218/929 213/930
f 83/931 213/932 218/933
f 218/934 84/935 83/936
f 219/937 180/938 178/939
f 178/940 212/941 219/942
f 220/943 219/944 212/945
f 212/946 211/947 220/948
f 219/949 220/950 221/951
f 221/952 222/953 219/954
f 180/955 219/956 222/957
f 222/958 49/959 180/960
f 223/961 50/962 49/963
f 49/964 222/965 223/966
f 224/967 223/968 222/969
f 222/970 221/971 224/972
f 223/973 224/974 225/975
f 225/976 226/977 223/978
f 50/979 223/980 226/981
f 226/982 51/983 50/984
f 227/985 182/986 51/987
f 51/988 226/989 227/990
f 228/991 227/992 226/993
f 226/994 225/995 228/996
f 227/997 228/998 216/999
f 216/1000 214/1001 227/1002
f 182/1003 227/1004 214/1005
f 214/1006 82/1007 182/1008
f 229/1009 205/1010 206/1011
f 206/1012 230/1013 229/1014
f 22/1015 229/1016 230/1017
f 230/1018 24/1019 22/1020
f 229/1021 22/1022 21/1023
f 21/1024 231/1025 229/1026
f 205/1027 229/1028 231/1029
f 231/1030 207/1031 205/1032
f 232/1033 210/1034 207/1035
f 207/1036 231/1037 232/1038
f 186/1039 232/1040 231/1041
f 231/1042 21/1043 186/1044
f 232/1045 186/1046 185/1047
f 185/1048 233/1049 232/1050
f 210/1051 232/1052 233/1053
f 233/1054 211/1055 210/1056
f 234/1057 215/1058 216/1059
f 216/1060 235/1061 234/1062
f 88/1063 234/1064 235/1065
f 235/1066 90/1067 88/1068
f 234/1069 88/1070 87/1071
f 87/1072 236/1073 234/1074
f 215/1075 234/1076 236/1077
f 236/1078 217/1079 215/1080
f 237/1081 220/1082 211/1083
f 211/1084 233/1085 237/1086
f 190/1087 237/1088 233/1089
f 233/1090 185/1091 190/1092
f 237/1093 190/1094 57/1095
f 57/1096 238/1097 237/1098
f 220/1099 237/1100 238/1101
f 238/1102 221/1103 220/1104
f 239/1105 224/1106 221/1107
f 221/1108 238/1109 239/1110
f 55/1111 239/1112 238/1113
f 238/1114 57/1115 55/1116
f 239/1117 55/1118 54/1119
f 54/1120 240/1121 239/1122
f 224/1123 239/1124 240/1125
f 240/1126 225/1127 224/1128
f 241/1129 228/1130 225/1131
f 225/1132 240/1133 241/1134
f 194/1135 241/1136 240/1137
f 240/1138 54/1139 194/1140
f 241/1141 194/1142 90/1143
f 90/1144 235/1145 241/1146
f 228/1147 241/1148 235/1149
f 235/1150 216/1151 228/1152
