# USD → MuJoCo (world-space)
v 0.091511 0.055295 -0.103472
v 0.078528 0.051225 -0.091310
v 0.135454 0.033507 -0.082155
v 0.136015 0.037380 -0.100253
v 0.100447 0.057489 -0.115269
v 0.136577 0.041741 -0.120275
v 0.064317 0.073236 -0.110263
v 0.047008 0.073211 -0.106690
v 0.029791 0.073178 -0.102879
v -0.035681 0.050459 -0.121231
v -0.036279 0.030025 -0.110255
v 0.002488 0.018690 -0.085609
v 0.001830 0.043476 -0.091891
v -0.035106 0.073502 -0.141612
v -0.008695 0.073210 -0.107393
v -0.049169 0.073818 -0.179678
v -0.049256 0.056527 -0.153761
v -0.049681 0.040482 -0.138772
v -0.032811 0.055142 -0.169696
v -0.033002 0.038001 -0.151653
v -0.032901 0.073963 -0.199814
v -0.001467 0.074023 -0.210985
v -0.001357 0.053743 -0.178390
v -0.001283 0.035550 -0.158565
v 0.142484 0.064210 -0.148612
v 0.131833 0.061484 -0.157573
v 0.091811 0.073888 -0.216095
v 0.106427 0.073837 -0.207284
v 0.149565 0.066305 -0.145934
v 0.120571 0.073826 -0.198310
v 0.178559 0.058784 -0.093558
v 0.178540 0.054583 -0.089941
v 0.178463 0.048405 -0.098796
v 0.063966 -0.022393 -0.130952
v 0.135618 -0.015576 -0.143231
v 0.135952 -0.003738 -0.124583
v 0.064337 -0.010538 -0.112334
v 0.003016 -0.022626 -0.130549
v 0.003157 -0.010710 -0.112041
v 0.002519 -0.033944 -0.143356
v 0.061725 -0.033502 -0.144421
v 0.135119 -0.025705 -0.159964
v -0.036532 -0.009692 -0.153899
v -0.037157 0.002374 -0.135663
v -0.049111 0.003169 -0.179944
v -0.051088 0.014836 -0.163116
v -0.046887 -0.011239 -0.192982
v -0.035674 -0.022690 -0.167207
v -0.029156 0.002715 -0.187626
v -0.033121 0.012800 -0.174317
v 0.005198 0.001543 -0.191219
v 0.000326 0.010570 -0.180252
v 0.009786 -0.011768 -0.199187
v -0.025152 -0.011088 -0.197690
v 0.122175 0.014407 -0.197603
v 0.071776 0.021106 -0.212580
v 0.071381 0.033043 -0.196241
v 0.122918 0.026947 -0.180229
v 0.179791 -0.000074 -0.171345
v 0.180953 0.012507 -0.154043
v 0.178437 -0.011259 -0.186162
v 0.119348 -0.001801 -0.213395
v 0.071033 0.004335 -0.226584
v 0.108676 -0.050210 -0.158962
v 0.117034 -0.048315 -0.152657
v 0.135219 -0.042084 -0.159348
v 0.135317 -0.045029 -0.175831
v 0.099446 -0.052015 -0.164126
v 0.135349 -0.048472 -0.190323
v 0.063543 -0.055557 -0.137929
v 0.082035 -0.055391 -0.142095
v 0.100266 -0.055214 -0.146401
v -0.035213 -0.037921 -0.169996
v -0.034949 -0.054267 -0.167527
v -0.009241 -0.055767 -0.133285
v 0.001649 -0.044707 -0.143603
v -0.046449 -0.031555 -0.199086
v -0.046902 -0.054824 -0.201723
v -0.024406 -0.033670 -0.204509
v -0.025289 -0.060642 -0.209708
v 0.010536 -0.035580 -0.206167
v 0.009367 -0.064643 -0.212654
v 0.141104 -0.041423 -0.223979
v 0.130787 -0.035656 -0.224719
v 0.178466 -0.025144 -0.206113
v 0.178421 -0.031216 -0.215158
v 0.148186 -0.043834 -0.220668
v 0.178022 -0.035720 -0.217301
v 0.118350 -0.051948 -0.224034
v 0.103787 -0.051631 -0.232799
v 0.089410 -0.051272 -0.241617
v 0.167698 0.068226 -0.168732
v 0.162166 0.066415 -0.166801
v 0.148132 0.073817 -0.180176
v 0.162961 0.073749 -0.171636
v 0.177714 0.065418 -0.163123
v 0.178256 0.073653 -0.163323
v 0.177518 0.059691 -0.152749
v 0.156123 0.066408 -0.155599
v 0.134237 0.073831 -0.189171
v 0.178009 0.058984 -0.122027
v 0.114565 0.059488 -0.166756
v 0.178839 0.042275 -0.107737
v 0.119458 0.049859 -0.153514
v 0.179575 0.034775 -0.119209
v 0.068552 0.055563 -0.171493
v 0.066940 0.064573 -0.189522
v 0.076724 0.073999 -0.224750
v 0.057373 0.074091 -0.228389
v 0.167483 -0.047601 -0.194444
v 0.162022 -0.045432 -0.199782
v 0.176543 -0.039033 -0.191917
v 0.176682 -0.045145 -0.188096
v 0.163149 -0.052932 -0.198175
v 0.177214 -0.053351 -0.189208
v 0.148719 -0.052549 -0.206995
v 0.155375 -0.044673 -0.210564
v 0.177193 -0.037109 -0.205603
v 0.133557 -0.052237 -0.215524
v 0.113892 -0.024745 -0.227108
v 0.074764 -0.050853 -0.250290
v 0.068834 -0.021914 -0.237681
v 0.057819 -0.052853 -0.249952
v 0.178234 -0.019053 -0.197099
v 0.056485 -0.043849 -0.146270
v 0.077233 -0.047398 -0.154643
v 0.135154 -0.039276 -0.180483
v 0.135034 -0.033146 -0.171541
v 0.010411 -0.056119 -0.125171
v 0.027431 -0.055911 -0.129846
v 0.090260 -0.050598 -0.161641
v 0.135277 -0.045470 -0.189309
v 0.045242 -0.055727 -0.133972
v 0.123602 -0.049462 -0.151715
v 0.117786 -0.055013 -0.150780
v 0.135091 -0.046581 -0.154391
v 0.134949 -0.054800 -0.155195
v 0.124353 0.067842 -0.121963
v 0.117978 0.064743 -0.121026
v 0.136940 0.056907 -0.125350
v 0.136214 0.065135 -0.124504
v 0.117888 0.073311 -0.120293
v 0.135142 0.073362 -0.123706
v 0.100364 0.073269 -0.116919
v 0.109639 0.060965 -0.119957
v 0.136974 0.048680 -0.126290
v 0.082305 0.073250 -0.113624
v 0.057195 0.042116 -0.085529
v 0.012081 0.073140 -0.098797
v 0.061902 0.018540 -0.084348
v 0.135066 0.028035 -0.081913
v 0.135034 0.020099 -0.092592
v 0.063966 0.002047 -0.095041
v 0.135543 0.008831 -0.107260
v 0.002955 0.001844 -0.094694
v -0.036921 0.014804 -0.118090
v -0.050784 0.026929 -0.145642
v -0.033755 0.024224 -0.157760
v -0.001278 0.021532 -0.164277
v 0.122128 0.038889 -0.161768
v 0.070169 0.044791 -0.178139
v 0.180580 0.024488 -0.135655
v 0.030097 0.059773 -0.189199
v 0.029967 0.074082 -0.222155
v 0.030437 0.046099 -0.169177
v 0.035813 0.012246 -0.204995
v 0.032838 0.022451 -0.191905
v 0.038180 -0.002806 -0.215333
v 0.037999 -0.028593 -0.223963
v 0.036544 -0.059747 -0.231737
v 0.031199 0.033697 -0.175023
vt -0.104167 0.078125
vt -0.134375 0.100781
vt -0.250000 -0.000000
vt -0.250000 -0.000000
vt -0.208333 -0.000000
vt -0.104167 0.078125
vt -0.083333 0.062500
vt -0.104167 0.078125
vt -0.208333 -0.000000
vt -0.208333 -0.000000
vt -0.166667 -0.000000
vt -0.083333 0.062500
vt -0.104167 0.078125
vt -0.083333 0.062500
vt -0.000000 0.125000
vt -0.000000 0.125000
vt -0.000000 0.156250
vt -0.104167 0.078125
vt -0.134375 0.100781
vt -0.104167 0.078125
vt -0.000000 0.156250
vt -0.000000 0.156250
vt -0.000000 0.187500
vt -0.134375 0.100781
vt -0.166667 0.375000
vt -0.312500 0.375000
vt -0.313542 0.250781
vt -0.313542 0.250781
vt -0.170833 0.253125
vt -0.166667 0.375000
vt -0.000000 0.375000
vt -0.166667 0.375000
vt -0.170833 0.253125
vt -0.170833 0.253125
vt -0.000000 0.273438
vt -0.000000 0.375000
vt -0.166667 0.375000
vt -0.000000 0.375000
vt -0.000000 0.484375
vt -0.000000 0.484375
vt -0.166667 0.484375
vt -0.166667 0.375000
vt -0.312500 0.375000
vt -0.166667 0.375000
vt -0.166667 0.484375
vt -0.166667 0.484375
vt -0.312500 0.484375
vt -0.312500 0.375000
vt -0.166667 0.562500
vt -0.312500 0.562500
vt -0.312500 0.484375
vt -0.312500 0.484375
vt -0.166667 0.484375
vt -0.166667 0.562500
vt -0.000000 0.562500
vt -0.166667 0.562500
vt -0.166667 0.484375
vt -0.166667 0.484375
vt -0.000000 0.484375
vt -0.000000 0.562500
vt -0.166667 0.562500
vt -0.000000 0.562500
vt -0.000000 0.625000
vt -0.000000 0.625000
vt -0.166667 0.625000
vt -0.166667 0.562500
vt -0.312500 0.562500
vt -0.166667 0.562500
vt -0.166667 0.625000
vt -0.166667 0.625000
vt -0.312500 0.625000
vt -0.312500 0.562500
vt -0.104167 0.921875
vt -0.134375 0.899219
vt -0.000000 0.812500
vt -0.000000 0.812500
vt -0.000000 0.843750
vt -0.104167 0.921875
vt -0.083333 0.937500
vt -0.104167 0.921875
vt -0.000000 0.843750
vt -0.000000 0.843750
vt -0.000000 0.875000
vt -0.083333 0.937500
vt -0.104167 0.921875
vt -0.083333 0.937500
vt -0.166667 1.000000
vt -0.166667 1.000000
vt -0.208333 1.000000
vt -0.104167 0.921875
vt -0.134375 0.899219
vt -0.104167 0.921875
vt -0.208333 1.000000
vt -0.208333 1.000000
vt -0.250000 1.000000
vt -0.134375 0.899219
vt -0.583333 0.125000
vt -0.583333 -0.000000
vt -0.500000 -0.000000
vt -0.500000 -0.000000
vt -0.500000 0.125000
vt -0.583333 0.125000
vt -0.583333 0.250000
vt -0.583333 0.125000
vt -0.500000 0.125000
vt -0.500000 0.125000
vt -0.500000 0.250000
vt -0.583333 0.250000
vt -0.583333 0.125000
vt -0.583333 0.250000
vt -0.686458 0.250781
vt -0.686458 0.250781
vt -0.683333 0.128125
vt -0.583333 0.125000
vt -0.583333 -0.000000
vt -0.583333 0.125000
vt -0.683333 0.128125
vt -0.683333 0.128125
vt -0.656250 -0.000000
vt -0.583333 -0.000000
vt -0.583333 0.375000
vt -0.583333 0.250000
vt -0.500000 0.250000
vt -0.500000 0.250000
vt -0.500000 0.375000
vt -0.583333 0.375000
vt -0.583333 0.484375
vt -0.583333 0.375000
vt -0.500000 0.375000
vt -0.500000 0.375000
vt -0.500000 0.484375
vt -0.583333 0.484375
vt -0.583333 0.375000
vt -0.583333 0.484375
vt -0.687500 0.484375
vt -0.687500 0.484375
vt -0.687500 0.375000
vt -0.583333 0.375000
vt -0.583333 0.250000
vt -0.583333 0.375000
vt -0.687500 0.375000
vt -0.687500 0.375000
vt -0.686458 0.250781
vt -0.583333 0.250000
vt -0.583333 0.562500
vt -0.583333 0.484375
vt -0.500000 0.484375
vt -0.500000 0.484375
vt -0.500000 0.562500
vt -0.583333 0.562500
vt -0.583333 0.625000
vt -0.583333 0.562500
vt -0.500000 0.562500
vt -0.500000 0.562500
vt -0.500000 0.625000
vt -0.583333 0.625000
vt -0.583333 0.562500
vt -0.583333 0.625000
vt -0.687500 0.625000
vt -0.687500 0.625000
vt -0.687500 0.562500
vt -0.583333 0.562500
vt -0.583333 0.484375
vt -0.583333 0.562500
vt -0.687500 0.562500
vt -0.687500 0.562500
vt -0.687500 0.484375
vt -0.583333 0.484375
vt -0.583333 0.875000
vt -0.583333 0.765625
vt -0.500000 0.765625
vt -0.500000 0.765625
vt -0.500000 0.875000
vt -0.583333 0.875000
vt -0.583333 1.000000
vt -0.583333 0.875000
vt -0.500000 0.875000
vt -0.500000 0.875000
vt -0.500000 1.000000
vt -0.583333 1.000000
vt -0.583333 0.875000
vt -0.583333 1.000000
vt -0.656250 1.000000
vt -0.656250 1.000000
vt -0.683333 0.871875
vt -0.583333 0.875000
vt -0.583333 0.765625
vt -0.583333 0.875000
vt -0.683333 0.871875
vt -0.683333 0.871875
vt -0.686458 0.764844
vt -0.583333 0.765625
vt -0.937500 0.046875
vt -0.956597 0.032552
vt -0.916667 -0.000000
vt -0.916667 -0.000000
vt -0.875000 -0.000000
vt -0.937500 0.046875
vt -0.916667 0.062500
vt -0.937500 0.046875
vt -0.875000 -0.000000
vt -0.875000 -0.000000
vt -0.833333 -0.000000
vt -0.916667 0.062500
vt -0.937500 0.046875
vt -0.916667 0.062500
vt -1.000000 0.125000
vt -1.000000 0.125000
vt -1.000000 0.093750
vt -0.937500 0.046875
vt -0.956597 0.032552
vt -0.937500 0.046875
vt -1.000000 0.093750
vt -1.000000 0.093750
vt -1.000000 0.062500
vt -0.956597 0.032552
vt -0.833333 0.375000
vt -1.000000 0.375000
vt -1.000000 0.273437
vt -1.000000 0.273437
vt -0.829167 0.253125
vt -0.833333 0.375000
vt -0.687500 0.375000
vt -0.833333 0.375000
vt -0.829167 0.253125
vt -0.829167 0.253125
vt -0.686458 0.250781
vt -0.687500 0.375000
vt -0.833333 0.375000
vt -0.687500 0.375000
vt -0.687500 0.484375
vt -0.687500 0.484375
vt -0.833333 0.484375
vt -0.833333 0.375000
vt -1.000000 0.375000
vt -0.833333 0.375000
vt -0.833333 0.484375
vt -0.833333 0.484375
vt -1.000000 0.484375
vt -1.000000 0.375000
vt -0.833333 0.562500
vt -1.000000 0.562500
vt -1.000000 0.484375
vt -1.000000 0.484375
vt -0.833333 0.484375
vt -0.833333 0.562500
vt -0.687500 0.562500
vt -0.833333 0.562500
vt -0.833333 0.484375
vt -0.833333 0.484375
vt -0.687500 0.484375
vt -0.687500 0.562500
vt -0.833333 0.562500
vt -0.687500 0.562500
vt -0.687500 0.625000
vt -0.687500 0.625000
vt -0.833333 0.625000
vt -0.833333 0.562500
vt -1.000000 0.562500
vt -0.833333 0.562500
vt -0.833333 0.625000
vt -0.833333 0.625000
vt -1.000000 0.625000
vt -1.000000 0.562500
vt -0.895833 0.921875
vt -0.865625 0.899219
vt -0.750000 1.000000
vt -0.750000 1.000000
vt -0.791667 1.000000
vt -0.895833 0.921875
vt -0.916667 0.937500
vt -0.895833 0.921875
vt -0.791667 1.000000
vt -0.791667 1.000000
vt -0.833333 1.000000
vt -0.916667 0.937500
vt -0.895833 0.921875
vt -0.916667 0.937500
vt -1.000000 0.875000
vt -1.000000 0.875000
vt -1.000000 0.843750
vt -0.895833 0.921875
vt -0.865625 0.899219
vt -0.895833 0.921875
vt -1.000000 0.843750
vt -1.000000 0.843750
vt -1.000000 0.812500
vt -0.865625 0.899219
vt -0.027778 0.979167
vt -0.043403 0.967448
vt -0.000000 0.937500
vt -0.000000 0.937500
vt -0.000000 0.968750
vt -0.027778 0.979167
vt -0.041667 1.000000
vt -0.027778 0.979167
vt -0.000000 0.968750
vt -0.000000 0.968750
vt -0.000000 1.000000
vt -0.041667 1.000000
vt -0.027778 0.979167
vt -0.041667 1.000000
vt -0.083333 1.000000
vt -0.083333 1.000000
vt -0.043403 0.967448
vt -0.027778 0.979167
vt -0.062500 0.953125
vt -0.083333 0.937500
vt -0.000000 0.875000
vt -0.000000 0.875000
vt -0.000000 0.906250
vt -0.062500 0.953125
vt -0.043403 0.967448
vt -0.062500 0.953125
vt -0.000000 0.906250
vt -0.000000 0.906250
vt -0.000000 0.937500
vt -0.043403 0.967448
vt -0.062500 0.953125
vt -0.043403 0.967448
vt -0.083333 1.000000
vt -0.083333 1.000000
vt -0.125000 1.000000
vt -0.062500 0.953125
vt -0.083333 0.937500
vt -0.062500 0.953125
vt -0.125000 1.000000
vt -0.125000 1.000000
vt -0.166667 1.000000
vt -0.083333 0.937500
vt -0.183333 0.862500
vt -0.134375 0.899219
vt -0.250000 1.000000
vt -0.250000 1.000000
vt -0.291667 1.000000
vt -0.183333 0.862500
vt -0.316667 0.871875
vt -0.183333 0.862500
vt -0.291667 1.000000
vt -0.291667 1.000000
vt -0.343750 1.000000
vt -0.316667 0.871875
vt -0.183333 0.862500
vt -0.316667 0.871875
vt -0.313542 0.764844
vt -0.313542 0.764844
vt -0.170833 0.762500
vt -0.183333 0.862500
vt -0.000000 0.781250
vt -0.183333 0.862500
vt -0.170833 0.762500
vt -0.170833 0.762500
vt -0.000000 0.742188
vt -0.000000 0.781250
vt -0.183333 0.862500
vt -0.000000 0.781250
vt -0.000000 0.812500
vt -0.000000 0.812500
vt -0.134375 0.899219
vt -0.183333 0.862500
vt -0.972222 0.979167
vt -0.956597 0.967448
vt -0.916667 1.000000
vt -0.916667 1.000000
vt -0.958333 1.000000
vt -0.972222 0.979167
vt -1.000000 0.968750
vt -0.972222 0.979167
vt -0.958333 1.000000
vt -0.958333 1.000000
vt -1.000000 1.000000
vt -1.000000 0.968750
vt -0.972222 0.979167
vt -1.000000 0.968750
vt -1.000000 0.937500
vt -1.000000 0.937500
vt -0.956597 0.967448
vt -0.972222 0.979167
vt -0.937500 0.953125
vt -0.916667 0.937500
vt -0.833333 1.000000
vt -0.833333 1.000000
vt -0.875000 1.000000
vt -0.937500 0.953125
vt -0.956597 0.967448
vt -0.937500 0.953125
vt -0.875000 1.000000
vt -0.875000 1.000000
vt -0.916667 1.000000
vt -0.956597 0.967448
vt -0.937500 0.953125
vt -0.956597 0.967448
vt -1.000000 0.937500
vt -1.000000 0.937500
vt -1.000000 0.906250
vt -0.937500 0.953125
vt -0.916667 0.937500
vt -0.937500 0.953125
vt -1.000000 0.906250
vt -1.000000 0.906250
vt -1.000000 0.875000
vt -0.916667 0.937500
vt -0.816667 0.862500
vt -0.865625 0.899219
vt -1.000000 0.812500
vt -1.000000 0.812500
vt -1.000000 0.781250
vt -0.816667 0.862500
vt -0.829167 0.762500
vt -0.816667 0.862500
vt -1.000000 0.781250
vt -1.000000 0.781250
vt -1.000000 0.742187
vt -0.829167 0.762500
vt -0.816667 0.862500
vt -0.829167 0.762500
vt -0.686458 0.764844
vt -0.686458 0.764844
vt -0.683333 0.871875
vt -0.816667 0.862500
vt -0.708333 1.000000
vt -0.816667 0.862500
vt -0.683333 0.871875
vt -0.683333 0.871875
vt -0.656250 1.000000
vt -0.708333 1.000000
vt -0.816667 0.862500
vt -0.708333 1.000000
vt -0.750000 1.000000
vt -0.750000 1.000000
vt -0.865625 0.899219
vt -0.816667 0.862500
vt -0.816667 0.137500
vt -0.865625 0.100781
vt -0.750000 -0.000000
vt -0.750000 -0.000000
vt -0.708333 -0.000000
vt -0.816667 0.137500
vt -0.683333 0.128125
vt -0.816667 0.137500
vt -0.708333 -0.000000
vt -0.708333 -0.000000
vt -0.656250 -0.000000
vt -0.683333 0.128125
vt -0.816667 0.137500
vt -0.683333 0.128125
vt -0.686458 0.250781
vt -0.686458 0.250781
vt -0.829167 0.253125
vt -0.816667 0.137500
vt -1.000000 0.218750
vt -0.816667 0.137500
vt -0.829167 0.253125
vt -0.829167 0.253125
vt -1.000000 0.273437
vt -1.000000 0.218750
vt -0.816667 0.137500
vt -1.000000 0.218750
vt -1.000000 0.187500
vt -1.000000 0.187500
vt -0.865625 0.100781
vt -0.816667 0.137500
vt -0.895833 0.078125
vt -0.916667 0.062500
vt -0.833333 -0.000000
vt -0.833333 -0.000000
vt -0.791667 -0.000000
vt -0.895833 0.078125
vt -0.865625 0.100781
vt -0.895833 0.078125
vt -0.791667 -0.000000
vt -0.791667 -0.000000
vt -0.750000 -0.000000
vt -0.865625 0.100781
vt -0.895833 0.078125
vt -0.865625 0.100781
vt -1.000000 0.187500
vt -1.000000 0.187500
vt -1.000000 0.156250
vt -0.895833 0.078125
vt -0.916667 0.062500
vt -0.895833 0.078125
vt -1.000000 0.156250
vt -1.000000 0.156250
vt -1.000000 0.125000
vt -0.916667 0.062500
vt -0.972222 0.020833
vt -0.956597 0.032552
vt -1.000000 0.062500
vt -1.000000 0.062500
vt -1.000000 0.031250
vt -0.972222 0.020833
vt -0.958333 -0.000000
vt -0.972222 0.020833
vt -1.000000 0.031250
vt -1.000000 0.031250
vt -1.000000 -0.000000
vt -0.958333 -0.000000
vt -0.972222 0.020833
vt -0.958333 -0.000000
vt -0.916667 -0.000000
vt -0.916667 -0.000000
vt -0.956597 0.032552
vt -0.972222 0.020833
vt -0.027778 0.020833
vt -0.043403 0.032552
vt -0.083333 -0.000000
vt -0.083333 -0.000000
vt -0.041667 -0.000000
vt -0.027778 0.020833
vt -0.000000 0.031250
vt -0.027778 0.020833
vt -0.041667 -0.000000
vt -0.041667 -0.000000
vt 0.000000 0.000000
vt -0.000000 0.031250
vt -0.027778 0.020833
vt -0.000000 0.031250
vt -0.000000 0.062500
vt -0.000000 0.062500
vt -0.043403 0.032552
vt -0.027778 0.020833
vt -0.062500 0.046875
vt -0.083333 0.062500
vt -0.166667 -0.000000
vt -0.166667 -0.000000
vt -0.125000 -0.000000
vt -0.062500 0.046875
vt -0.043403 0.032552
vt -0.062500 0.046875
vt -0.125000 -0.000000
vt -0.125000 -0.000000
vt -0.083333 -0.000000
vt -0.043403 0.032552
vt -0.062500 0.046875
vt -0.043403 0.032552
vt -0.000000 0.062500
vt -0.000000 0.062500
vt -0.000000 0.093750
vt -0.062500 0.046875
vt -0.083333 0.062500
vt -0.062500 0.046875
vt -0.000000 0.093750
vt -0.000000 0.093750
vt -0.000000 0.125000
vt -0.083333 0.062500
vt -0.183333 0.137500
vt -0.134375 0.100781
vt -0.000000 0.187500
vt -0.000000 0.187500
vt -0.000000 0.218750
vt -0.183333 0.137500
vt -0.170833 0.253125
vt -0.183333 0.137500
vt -0.000000 0.218750
vt -0.000000 0.218750
vt -0.000000 0.273438
vt -0.170833 0.253125
vt -0.183333 0.137500
vt -0.170833 0.253125
vt -0.313542 0.250781
vt -0.313542 0.250781
vt -0.316667 0.128125
vt -0.183333 0.137500
vt -0.291667 -0.000000
vt -0.183333 0.137500
vt -0.316667 0.128125
vt -0.316667 0.128125
vt -0.343750 -0.000000
vt -0.291667 -0.000000
vt -0.183333 0.137500
vt -0.291667 -0.000000
vt -0.250000 -0.000000
vt -0.250000 -0.000000
vt -0.134375 0.100781
vt -0.183333 0.137500
vt -0.416667 0.125000
vt -0.500000 0.125000
vt -0.500000 -0.000000
vt -0.500000 -0.000000
vt -0.416667 -0.000000
vt -0.416667 0.125000
vt -0.316667 0.128125
vt -0.416667 0.125000
vt -0.416667 -0.000000
vt -0.416667 -0.000000
vt -0.343750 -0.000000
vt -0.316667 0.128125
vt -0.416667 0.125000
vt -0.316667 0.128125
vt -0.313542 0.250781
vt -0.313542 0.250781
vt -0.416667 0.250000
vt -0.416667 0.125000
vt -0.500000 0.125000
vt -0.416667 0.125000
vt -0.416667 0.250000
vt -0.416667 0.250000
vt -0.500000 0.250000
vt -0.500000 0.125000
vt -0.416667 0.375000
vt -0.500000 0.375000
vt -0.500000 0.250000
vt -0.500000 0.250000
vt -0.416667 0.250000
vt -0.416667 0.375000
vt -0.312500 0.375000
vt -0.416667 0.375000
vt -0.416667 0.250000
vt -0.416667 0.250000
vt -0.313542 0.250781
vt -0.312500 0.375000
vt -0.416667 0.375000
vt -0.312500 0.375000
vt -0.312500 0.484375
vt -0.312500 0.484375
vt -0.416667 0.484375
vt -0.416667 0.375000
vt -0.500000 0.375000
vt -0.416667 0.375000
vt -0.416667 0.484375
vt -0.416667 0.484375
vt -0.500000 0.484375
vt -0.500000 0.375000
vt -0.416667 0.562500
vt -0.500000 0.562500
vt -0.500000 0.484375
vt -0.500000 0.484375
vt -0.416667 0.484375
vt -0.416667 0.562500
vt -0.312500 0.562500
vt -0.416667 0.562500
vt -0.416667 0.484375
vt -0.416667 0.484375
vt -0.312500 0.484375
vt -0.312500 0.562500
vt -0.416667 0.562500
vt -0.312500 0.562500
vt -0.312500 0.625000
vt -0.312500 0.625000
vt -0.416667 0.625000
vt -0.416667 0.562500
vt -0.500000 0.562500
vt -0.416667 0.562500
vt -0.416667 0.625000
vt -0.416667 0.625000
vt -0.500000 0.625000
vt -0.500000 0.562500
vt -0.416667 0.875000
vt -0.500000 0.875000
vt -0.500000 0.765625
vt -0.500000 0.765625
vt -0.416667 0.765625
vt -0.416667 0.875000
vt -0.316667 0.871875
vt -0.416667 0.875000
vt -0.416667 0.765625
vt -0.416667 0.765625
vt -0.313542 0.764844
vt -0.316667 0.871875
vt -0.416667 0.875000
vt -0.316667 0.871875
vt -0.343750 1.000000
vt -0.343750 1.000000
vt -0.416667 1.000000
vt -0.416667 0.875000
vt -0.500000 0.875000
vt -0.416667 0.875000
vt -0.416667 1.000000
vt -0.416667 1.000000
vt -0.500000 1.000000
vt -0.500000 0.875000
vt -0.166667 0.687500
vt -0.166667 0.625000
vt -0.000000 0.625000
vt -0.000000 0.625000
vt -0.000000 0.687500
vt -0.166667 0.687500
vt -0.170833 0.762500
vt -0.166667 0.687500
vt -0.000000 0.687500
vt -0.000000 0.687500
vt -0.000000 0.742188
vt -0.170833 0.762500
vt -0.166667 0.687500
vt -0.170833 0.762500
vt -0.313542 0.764844
vt -0.313542 0.764844
vt -0.312500 0.687500
vt -0.166667 0.687500
vt -0.166667 0.625000
vt -0.166667 0.687500
vt -0.312500 0.687500
vt -0.312500 0.687500
vt -0.312500 0.625000
vt -0.166667 0.625000
vt -0.583333 0.687500
vt -0.583333 0.625000
vt -0.500000 0.625000
vt -0.500000 0.625000
vt -0.500000 0.687500
vt -0.583333 0.687500
vt -0.583333 0.765625
vt -0.583333 0.687500
vt -0.500000 0.687500
vt -0.500000 0.687500
vt -0.500000 0.765625
vt -0.583333 0.765625
vt -0.583333 0.687500
vt -0.583333 0.765625
vt -0.686458 0.764844
vt -0.686458 0.764844
vt -0.687500 0.687500
vt -0.583333 0.687500
vt -0.583333 0.625000
vt -0.583333 0.687500
vt -0.687500 0.687500
vt -0.687500 0.687500
vt -0.687500 0.625000
vt -0.583333 0.625000
vt -0.833333 0.687500
vt -0.833333 0.625000
vt -0.687500 0.625000
vt -0.687500 0.625000
vt -0.687500 0.687500
vt -0.833333 0.687500
vt -0.829167 0.762500
vt -0.833333 0.687500
vt -0.687500 0.687500
vt -0.687500 0.687500
vt -0.686458 0.764844
vt -0.829167 0.762500
vt -0.833333 0.687500
vt -0.829167 0.762500
vt -1.000000 0.742187
vt -1.000000 0.742187
vt -1.000000 0.687500
vt -0.833333 0.687500
vt -0.833333 0.625000
vt -0.833333 0.687500
vt -1.000000 0.687500
vt -1.000000 0.687500
vt -1.000000 0.625000
vt -0.833333 0.625000
vt -0.416667 0.687500
vt -0.416667 0.625000
vt -0.312500 0.625000
vt -0.312500 0.625000
vt -0.312500 0.687500
vt -0.416667 0.687500
vt -0.416667 0.765625
vt -0.416667 0.687500
vt -0.312500 0.687500
vt -0.312500 0.687500
vt -0.313542 0.764844
vt -0.416667 0.765625
vt -0.416667 0.687500
vt -0.416667 0.765625
vt -0.500000 0.765625
vt -0.500000 0.765625
vt -0.500000 0.687500
vt -0.416667 0.687500
vt -0.416667 0.625000
vt -0.416667 0.687500
vt -0.500000 0.687500
vt -0.500000 0.687500
vt -0.500000 0.625000
vt -0.416667 0.625000
f 1/1 2/2 3/3
f 3/4 4/5 1/6
f 5/7 1/8 4/9
f 4/10 6/11 5/12
f 1/13 5/14 7/15
f 7/16 8/17 1/18
f 2/19 1/20 8/21
f 8/22 9/23 2/24
f 10/25 11/26 12/27
f 12/28 13/29 10/30
f 14/31 10/32 13/33
f 13/34 15/35 14/36
f 10/37 14/38 16/39
f 16/40 17/41 10/42
f 11/43 10/44 17/45
f 17/46 18/47 11/48
f 19/49 20/50 18/51
f 18/52 17/53 19/54
f 21/55 19/56 17/57
f 17/58 16/59 21/60
f 19/61 21/62 22/63
f 22/64 23/65 19/66
f 20/67 19/68 23/69
f 23/70 24/71 20/72
f 25/73 26/74 27/75
f 27/76 28/77 25/78
f 29/79 25/80 28/81
f 28/82 30/83 29/84
f 25/85 29/86 31/87
f 31/88 32/89 25/90
f 26/91 25/92 32/93
f 32/94 33/95 26/96
f 34/97 35/98 36/99
f 36/100 37/101 34/102
f 38/103 34/104 37/105
f 37/106 39/107 38/108
f 34/109 38/110 40/111
f 40/112 41/113 34/114
f 35/115 34/116 41/117
f 41/118 42/119 35/120
f 43/121 38/122 39/123
f 39/124 44/125 43/126
f 45/127 43/128 44/129
f 44/130 46/131 45/132
f 43/133 45/134 47/135
f 47/136 48/137 43/138
f 38/139 43/140 48/141
f 48/142 40/143 38/144
f 49/145 45/146 46/147
f 46/148 50/149 49/150
f 51/151 49/152 50/153
f 50/154 52/155 51/156
f 49/157 51/158 53/159
f 53/160 54/161 49/162
f 45/163 49/164 54/165
f 54/166 47/167 45/168
f 55/169 56/170 57/171
f 57/172 58/173 55/174
f 59/175 55/176 58/177
f 58/178 60/179 59/180
f 55/181 59/182 61/183
f 61/184 62/185 55/186
f 56/187 55/188 62/189
f 62/190 63/191 56/192
f 64/193 65/194 66/195
f 66/196 67/197 64/198
f 68/199 64/200 67/201
f 67/202 69/203 68/204
f 64/205 68/206 70/207
f 70/208 71/209 64/210
f 65/211 64/212 71/213
f 71/214 72/215 65/216
f 73/217 74/218 75/219
f 75/220 76/221 73/222
f 48/223 73/224 76/225
f 76/226 40/227 48/228
f 73/229 48/230 47/231
f 47/232 77/233 73/234
f 74/235 73/236 77/237
f 77/238 78/239 74/240
f 79/241 80/242 78/243
f 78/244 77/245 79/246
f 54/247 79/248 77/249
f 77/250 47/251 54/252
f 79/253 54/254 53/255
f 53/256 81/257 79/258
f 80/259 79/260 81/261
f 81/262 82/263 80/264
f 83/265 84/266 85/267
f 85/268 86/269 83/270
f 87/271 83/272 86/273
f 86/274 88/275 87/276
f 83/277 87/278 89/279
f 89/280 90/281 83/282
f 84/283 83/284 90/285
f 90/286 91/287 84/288
f 92/289 93/290 94/291
f 94/292 95/293 92/294
f 96/295 92/296 95/297
f 95/298 97/299 96/300
f 92/301 96/302 98/303
f 98/304 93/305 92/306
f 99/307 29/308 30/309
f 30/310 100/311 99/312
f 93/313 99/314 100/315
f 100/316 94/317 93/318
f 99/319 93/320 98/321
f 98/322 101/323 99/324
f 29/325 99/326 101/327
f 101/328 31/329 29/330
f 102/331 26/332 33/333
f 33/334 103/335 102/336
f 104/337 102/338 103/339
f 103/340 105/341 104/342
f 102/343 104/344 106/345
f 106/346 107/347 102/348
f 108/349 102/350 107/351
f 107/352 109/353 108/354
f 102/355 108/356 27/357
f 27/358 26/359 102/360
f 110/361 111/362 112/363
f 112/364 113/365 110/366
f 114/367 110/368 113/369
f 113/370 115/371 114/372
f 110/373 114/374 116/375
f 116/376 111/377 110/378
f 117/379 87/380 88/381
f 88/382 118/383 117/384
f 111/385 117/386 118/387
f 118/388 112/389 111/390
f 117/391 111/392 116/393
f 116/394 119/395 117/396
f 87/397 117/398 119/399
f 119/400 89/401 87/402
f 120/403 84/404 91/405
f 91/406 121/407 120/408
f 122/409 120/410 121/411
f 121/412 123/413 122/414
f 120/415 122/416 63/417
f 63/418 62/419 120/420
f 124/421 120/422 62/423
f 62/424 61/425 124/426
f 120/427 124/428 85/429
f 85/430 84/431 120/432
f 125/433 126/434 127/435
f 127/436 128/437 125/438
f 41/439 125/440 128/441
f 128/442 42/443 41/444
f 125/445 41/446 40/447
f 40/448 76/449 125/450
f 129/451 125/452 76/453
f 76/454 75/455 129/456
f 125/457 129/458 130/459
f 130/460 126/461 125/462
f 131/463 68/464 69/465
f 69/466 132/467 131/468
f 126/469 131/470 132/471
f 132/472 127/473 126/474
f 131/475 126/476 130/477
f 130/478 133/479 131/480
f 68/481 131/482 133/483
f 133/484 70/485 68/486
f 134/487 65/488 72/489
f 72/490 135/491 134/492
f 136/493 134/494 135/495
f 135/496 137/497 136/498
f 134/499 136/500 66/501
f 66/502 65/503 134/504
f 138/505 139/506 140/507
f 140/508 141/509 138/510
f 142/511 138/512 141/513
f 141/514 143/515 142/516
f 138/517 142/518 144/519
f 144/520 139/521 138/522
f 145/523 5/524 6/525
f 6/526 146/527 145/528
f 139/529 145/530 146/531
f 146/532 140/533 139/534
f 145/535 139/536 144/537
f 144/538 147/539 145/540
f 5/541 145/542 147/543
f 147/544 7/545 5/546
f 148/547 2/548 9/549
f 9/550 149/551 148/552
f 13/553 148/554 149/555
f 149/556 15/557 13/558
f 148/559 13/560 12/561
f 12/562 150/563 148/564
f 151/565 148/566 150/567
f 150/568 152/569 151/570
f 148/571 151/572 3/573
f 3/574 2/575 148/576
f 153/577 37/578 36/579
f 36/580 154/581 153/582
f 150/583 153/584 154/585
f 154/586 152/587 150/588
f 153/589 150/590 12/591
f 12/592 155/593 153/594
f 37/595 153/596 155/597
f 155/598 39/599 37/600
f 156/601 44/602 39/603
f 39/604 155/605 156/606
f 11/607 156/608 155/609
f 155/610 12/611 11/612
f 156/613 11/614 18/615
f 18/616 157/617 156/618
f 44/619 156/620 157/621
f 157/622 46/623 44/624
f 158/625 50/626 46/627
f 46/628 157/629 158/630
f 20/631 158/632 157/633
f 157/634 18/635 20/636
f 158/637 20/638 24/639
f 24/640 159/641 158/642
f 50/643 158/644 159/645
f 159/646 52/647 50/648
f 160/649 58/650 57/651
f 57/652 161/653 160/654
f 104/655 160/656 161/657
f 161/658 106/659 104/660
f 160/661 104/662 105/663
f 105/664 162/665 160/666
f 58/667 160/668 162/669
f 162/670 60/671 58/672
f 163/673 23/674 22/675
f 22/676 164/677 163/678
f 107/679 163/680 164/681
f 164/682 109/683 107/684
f 163/685 107/686 106/687
f 106/688 165/689 163/690
f 23/691 163/692 165/693
f 165/694 24/695 23/696
f 166/697 51/698 52/699
f 52/700 167/701 166/702
f 56/703 166/704 167/705
f 167/706 57/707 56/708
f 166/709 56/710 63/711
f 63/712 168/713 166/714
f 51/715 166/716 168/717
f 168/718 53/719 51/720
f 169/721 81/722 53/723
f 53/724 168/725 169/726
f 122/727 169/728 168/729
f 168/730 63/731 122/732
f 169/733 122/734 123/735
f 123/736 170/737 169/738
f 81/739 169/740 170/741
f 170/742 82/743 81/744
f 171/745 159/746 24/747
f 24/748 165/749 171/750
f 161/751 171/752 165/753
f 165/754 106/755 161/756
f 171/757 161/758 57/759
f 57/760 167/761 171/762
f 159/763 171/764 167/765
f 167/766 52/767 159/768
