# USD → MuJoCo (world-space)
v -0.169507 0.023768 -0.208316
v -0.166637 0.020121 -0.187356
v -0.100211 0.009322 -0.150805
v -0.070024 0.008648 -0.154598
v -0.039622 0.007488 -0.157281
v 0.081970 0.003002 -0.168344
v 0.070684 0.017874 -0.251507
v -0.050826 0.022764 -0.240349
v -0.044806 -0.037312 -0.245315
v -0.096224 0.011011 -0.242913
v -0.100958 -0.048787 -0.250326
v -0.180750 -0.036314 -0.244793
v -0.192693 -0.024444 -0.238578
v -0.072976 -0.042997 -0.247631
v -0.172133 0.028053 -0.228630
v -0.089734 0.036954 -0.239409
v -0.174731 0.032040 -0.233407
v 0.010497 0.040919 -0.248701
v -0.083322 0.054677 -0.263149
v -0.204898 -0.012327 -0.235307
v -0.204242 0.064078 -0.262637
v -0.168684 0.050610 -0.174328
v -0.171037 0.045353 -0.195066
v -0.143572 0.062603 -0.158495
v -0.173282 0.058870 -0.153974
v 0.016852 0.070991 -0.174977
v -0.083444 0.066403 -0.166232
v -0.072883 0.084356 -0.188059
v -0.178582 0.087010 -0.239310
v -0.150187 0.088560 -0.234214
v -0.102991 0.081572 -0.181264
v -0.107857 0.076216 -0.160465
v -0.128686 -0.054445 -0.253545
v -0.156919 -0.059500 -0.261360
v -0.168705 -0.048110 -0.251059
v -0.122137 0.090931 -0.228444
v -0.093923 0.092441 -0.224215
v -0.098497 0.086552 -0.203476
v -0.113806 0.065837 -0.163119
v -0.173247 0.039678 -0.215375
v -0.165718 0.054305 -0.151616
v -0.163560 0.017044 -0.165880
v -0.159825 0.015071 -0.142276
v -0.130325 0.011606 -0.147524
vt -0.250000 -0.000000
vt -0.166667 -0.000000
vt -0.000000 0.125000
vt -0.000000 0.125000
vt -0.000000 0.187500
vt -0.250000 -0.000000
vt -0.000000 0.250000
vt -0.000000 0.500000
vt -0.333333 0.500000
vt -0.333333 0.500000
vt -0.333333 0.250000
vt -0.000000 0.250000
vt -0.000000 0.500000
vt -0.000000 0.750000
vt -0.333333 0.750000
vt -0.333333 0.750000
vt -0.333333 0.500000
vt -0.000000 0.500000
vt -0.000000 0.875000
vt -0.166667 1.000000
vt -0.250000 1.000000
vt -0.250000 1.000000
vt -0.000000 0.812500
vt -0.000000 0.875000
vt -0.333333 -0.000000
vt -0.333333 0.250000
vt -0.666667 0.250000
vt -0.666667 0.250000
vt -0.666667 -0.000000
vt -0.333333 -0.000000
vt -0.333333 0.250000
vt -0.333333 0.500000
vt -0.666667 0.500000
vt -0.666667 0.500000
vt -0.666667 0.250000
vt -0.333333 0.250000
vt -0.333333 0.500000
vt -0.333333 0.750000
vt -0.666667 0.750000
vt -0.666667 0.750000
vt -0.666667 0.500000
vt -0.333333 0.500000
vt -0.333333 0.750000
vt -0.333333 1.000000
vt -0.666667 1.000000
vt -0.666667 1.000000
vt -0.666667 0.750000
vt -0.333333 0.750000
vt -0.916667 -0.000000
vt -0.833333 -0.000000
vt -1.000000 0.125000
vt -1.000000 0.125000
vt -1.000000 0.062500
vt -0.916667 -0.000000
vt -0.666667 0.250000
vt -0.666667 0.500000
vt -1.000000 0.500000
vt -1.000000 0.500000
vt -1.000000 0.250000
vt -0.666667 0.250000
vt -0.666667 0.500000
vt -0.666667 0.750000
vt -1.000000 0.750000
vt -1.000000 0.750000
vt -1.000000 0.500000
vt -0.666667 0.500000
vt -0.750000 1.000000
vt -0.833333 1.000000
vt -1.000000 0.875000
vt -1.000000 0.875000
vt -1.000000 0.812500
vt -0.750000 1.000000
vt -0.000000 0.937500
vt -0.000000 1.000000
vt -0.083333 1.000000
vt -0.000000 0.937500
vt -0.083333 1.000000
vt -0.166667 1.000000
vt -0.166667 1.000000
vt -0.000000 0.875000
vt -0.000000 0.937500
vt -0.333333 0.750000
vt -0.000000 0.750000
vt -0.000000 0.812500
vt -0.333333 1.000000
vt -0.333333 0.750000
vt -0.000000 0.812500
vt -0.250000 1.000000
vt -0.333333 1.000000
vt -0.000000 0.812500
vt -0.916667 1.000000
vt -1.000000 1.000000
vt -1.000000 0.937500
vt -0.833333 1.000000
vt -0.916667 1.000000
vt -1.000000 0.937500
vt -1.000000 0.937500
vt -1.000000 0.875000
vt -0.833333 1.000000
vt -0.666667 0.750000
vt -0.666667 1.000000
vt -0.750000 1.000000
vt -1.000000 0.750000
vt -0.666667 0.750000
vt -0.750000 1.000000
vt -1.000000 0.812500
vt -1.000000 0.750000
vt -0.750000 1.000000
vt -0.666667 0.250000
vt -1.000000 0.250000
vt -1.000000 0.187500
vt -0.666667 -0.000000
vt -0.666667 0.250000
vt -1.000000 0.187500
vt -0.750000 -0.000000
vt -0.666667 -0.000000
vt -1.000000 0.187500
vt -0.750000 -0.000000
vt -1.000000 0.187500
vt -1.000000 0.125000
vt -1.000000 0.125000
vt -0.833333 -0.000000
vt -0.750000 -0.000000
vt -1.000000 0.062500
vt -1.000000 -0.000000
vt -0.916667 -0.000000
vt -0.083333 -0.000000
vt 0.000000 0.000000
vt -0.000000 0.062500
vt -0.166667 -0.000000
vt -0.083333 -0.000000
vt -0.000000 0.062500
vt -0.000000 0.062500
vt -0.000000 0.125000
vt -0.166667 -0.000000
vt -0.333333 0.250000
vt -0.333333 -0.000000
vt -0.250000 -0.000000
vt -0.000000 0.250000
vt -0.333333 0.250000
vt -0.250000 -0.000000
vt -0.000000 0.187500
vt -0.000000 0.250000
vt -0.250000 -0.000000
f 1/1 2/2 3/3
f 3/4 4/5 1/6
f 5/7 6/8 7/9
f 7/10 8/11 5/12
f 6/13 9/14 10/15
f 10/16 7/17 6/18
f 11/19 12/20 13/21
f 13/22 14/23 11/24
f 15/25 8/26 16/27
f 16/28 17/29 15/30
f 8/31 7/32 18/33
f 18/34 16/35 8/36
f 7/37 10/38 19/39
f 19/40 18/41 7/42
f 10/43 20/44 21/45
f 21/46 19/47 10/48
f 22/49 23/50 24/51
f 24/52 25/53 22/54
f 16/55 18/56 26/57
f 26/58 27/59 16/60
f 18/61 19/62 28/63
f 28/64 26/65 18/66
f 29/67 30/68 31/69
f 31/70 32/71 29/72
f 33/73 34/74 35/75
f 33/76 35/77 12/78
f 12/79 11/80 33/81
f 10/82 9/83 14/84
f 20/85 10/86 14/87
f 13/88 20/89 14/90
f 36/91 37/92 38/93
f 30/94 36/95 38/96
f 38/97 31/98 30/99
f 19/100 21/101 29/102
f 28/103 19/104 29/105
f 32/106 28/107 29/108
f 16/109 27/110 39/111
f 17/112 16/113 39/114
f 40/115 17/116 39/117
f 40/118 39/119 24/120
f 24/121 23/122 40/123
f 25/124 41/125 22/126
f 42/127 43/128 44/129
f 2/130 42/131 44/132
f 44/133 3/134 2/135
f 8/136 15/137 1/138
f 5/139 8/140 1/141
f 4/142 5/143 1/144
