# USD → MuJoCo (world-space)
v -1.505000 3.620000 1.500000
v -1.220000 3.620000 1.300000
v -1.505000 3.620000 -1.500000
v 3.780010 3.620000 1.500000
v 3.780010 3.620000 1.300000
v -1.220000 3.620000 -0.500000
v 3.780010 3.620000 -0.500000
v 3.780010 3.620000 -1.500000
vt 5.285000 3.000000
vt 5.000000 2.800000
vt 5.285000 0.000000
vt 0.000000 3.000000
vt 5.000000 2.800000
vt 5.285000 3.000000
vt 5.000000 2.800000
vt 0.000000 3.000000
vt 0.000000 2.800000
vt 5.000000 1.000000
vt 5.285000 0.000000
vt 5.000000 2.800000
vt 0.000000 1.000000
vt 5.285000 0.000000
vt 5.000000 1.000000
vt 5.285000 0.000000
vt 0.000000 1.000000
vt 0.000000 0.000000
f 1/1 2/2 3/3
f 4/4 2/5 1/6
f 2/7 4/8 5/9
f 6/10 3/11 2/12
f 7/13 3/14 6/15
f 3/16 7/17 8/18
