# USD → MuJoCo (world-space)
v -3.900000 -3.620000 1.500000
v -3.900000 -3.340000 0.570000
v -3.900000 -3.620000 -1.500000
v -3.900000 -2.210000 0.570000
v -3.900000 -2.010000 0.570000
v -3.900000 -2.210000 -0.430000
v -3.900000 -0.880000 0.570000
v -3.900000 -0.680000 0.570000
v -3.900000 -0.880000 -0.430000
v -3.900000 0.450000 1.500000
v -3.900000 0.450000 0.570000
v -3.900000 0.450000 -0.430000
v -3.900000 0.820000 1.500000
v -3.900000 -3.340000 -0.430000
v -3.900000 -2.010000 -0.430000
v -3.900000 -0.680000 -0.430000
v -3.900000 0.820000 -1.500000
vt 4.440000 3.000000
vt 4.160000 2.070000
vt 4.440000 0.000000
vt 4.440000 3.000000
vt 3.030000 2.070000
vt 4.160000 2.070000
vt 3.030000 2.070000
vt 2.830000 2.070000
vt 3.030000 1.070000
vt 4.440000 3.000000
vt 2.830000 2.070000
vt 3.030000 2.070000
vt 4.440000 3.000000
vt 1.700000 2.070000
vt 2.830000 2.070000
vt 1.700000 2.070000
vt 1.500000 2.070000
vt 1.700000 1.070000
vt 4.440000 3.000000
vt 1.500000 2.070000
vt 1.700000 2.070000
vt 0.370000 3.000000
vt 1.500000 2.070000
vt 4.440000 3.000000
vt 0.370000 3.000000
vt 0.370000 2.070000
vt 1.500000 2.070000
vt 0.370000 3.000000
vt 0.370000 1.070000
vt 0.370000 2.070000
vt 0.370000 1.070000
vt 0.370000 3.000000
vt 0.000000 3.000000
vt 4.160000 1.070000
vt 4.440000 0.000000
vt 4.160000 2.070000
vt 3.030000 1.070000
vt 4.440000 0.000000
vt 4.160000 1.070000
vt 2.830000 1.070000
vt 3.030000 1.070000
vt 2.830000 2.070000
vt 2.830000 1.070000
vt 4.440000 0.000000
vt 3.030000 1.070000
vt 1.700000 1.070000
vt 4.440000 0.000000
vt 2.830000 1.070000
vt 1.500000 1.070000
vt 1.700000 1.070000
vt 1.500000 2.070000
vt 1.500000 1.070000
vt 4.440000 0.000000
vt 1.700000 1.070000
vt 0.370000 1.070000
vt 4.440000 0.000000
vt 1.500000 1.070000
vt 0.370000 1.070000
vt 0.000000 0.000000
vt 4.440000 0.000000
vt 0.000000 0.000000
vt 0.370000 1.070000
vt 0.000000 3.000000
f 1/1 2/2 3/3
f 1/4 4/5 2/6
f 4/7 5/8 6/9
f 1/10 5/11 4/12
f 1/13 7/14 5/15
f 7/16 8/17 9/18
f 1/19 8/20 7/21
f 10/22 8/23 1/24
f 10/25 11/26 8/27
f 10/28 12/29 11/30
f 12/31 10/32 13/33
f 14/34 3/35 2/36
f 6/37 3/38 14/39
f 15/40 6/41 5/42
f 15/43 3/44 6/45
f 9/46 3/47 15/48
f 16/49 9/50 8/51
f 16/52 3/53 9/54
f 12/55 3/56 16/57
f 12/58 17/59 3/60
f 17/61 12/62 13/63
