# USD → MuJoCo (world-space)
v -3.121750 7.822040 1.000000
v -5.171750 7.822040 1.000000
v -5.171750 7.822040 0.000000
v -3.121750 7.822040 0.000000
v -5.171750 8.122040 0.000000
v -3.121750 8.122040 0.000000
v -3.121750 8.122040 1.000000
v -5.171750 8.122040 1.000000
vt 2.050000 1.000000
vt 0.000000 1.000000
vt 0.000000 0.000000
vt 0.000000 0.000000
vt 2.050000 0.000000
vt 2.050000 1.000000
vt 2.050000 0.300000
vt 0.000000 0.300000
vt 0.000000 0.000000
vt 0.000000 0.000000
vt 2.050000 0.000000
vt 2.050000 0.300000
vt 2.050000 0.300000
vt 0.000000 0.300000
vt 0.000000 0.000000
vt 0.000000 0.000000
vt 2.050000 0.000000
vt 2.050000 0.300000
vt 1.000000 0.300000
vt 0.000000 0.300000
vt 0.000000 0.000000
vt 0.000000 0.000000
vt 1.000000 0.000000
vt 1.000000 0.300000
vt 1.000000 0.300000
vt 0.000000 0.300000
vt 0.000000 0.000000
vt 0.000000 0.000000
vt 1.000000 0.000000
vt 1.000000 0.300000
f 1/1 2/2 3/3
f 3/4 4/5 1/6
f 4/7 3/8 5/9
f 5/10 6/11 4/12
f 2/13 1/14 7/15
f 7/16 8/17 2/18
f 3/19 2/20 8/21
f 8/22 5/23 3/24
f 1/25 4/26 6/27
f 6/28 7/29 1/30
