# USD → MuJoCo (world-space)
v -0.050000 0.038848 -0.900000
v -0.067456 0.038848 -0.884290
v -1.240000 0.038848 -0.900000
v -0.050000 0.038848 -0.009000
v -0.067456 0.038848 -0.024710
v -1.222544 0.038848 -0.024710
v -1.222544 0.038848 -0.884290
v -1.240000 0.038848 -0.009000
v -0.067456 0.064848 -0.884290
v -0.067456 0.064848 -0.024710
v -1.222544 0.064848 -0.024710
v -1.222544 0.064848 -0.884290
v -0.050000 0.064848 -0.900000
v -0.050000 0.064848 -0.009000
v -1.240000 0.064848 -0.900000
v -1.240000 0.064848 -0.009000
vt 46.850395 -0.000000
vt 46.163151 0.687244
vt 0.000000 0.000000
vt 46.163151 0.687244
vt 46.850395 -0.000000
vt 46.850395 38.976379
vt 46.163151 0.687244
vt 46.850395 38.976379
vt 46.163151 38.289135
vt 46.163151 38.289135
vt 46.850395 38.976379
vt 0.687244 38.289135
vt 0.000000 0.000000
vt 0.687244 0.687244
vt 0.000000 38.976379
vt 0.687244 0.687244
vt 0.000000 0.000000
vt 46.163151 0.687244
vt 0.000000 38.976379
vt 0.687244 0.687244
vt 0.687244 38.289135
vt 0.000000 38.976379
vt 0.687244 38.289135
vt 46.850395 38.976379
vt 1.023622 38.289135
vt -0.000000 0.687244
vt 1.023622 0.687244
vt -0.000000 0.687244
vt 1.023622 38.289135
vt -0.000000 38.289135
vt -46.163151 0.000000
vt -0.687244 -1.023622
vt -0.687244 0.000000
vt -0.687244 -1.023622
vt -46.163151 0.000000
vt -46.163151 -1.023622
vt -0.000000 0.687244
vt -1.023622 38.289135
vt -1.023622 0.687244
vt -1.023622 38.289135
vt -0.000000 0.687244
vt -0.000000 38.289135
vt 46.163151 -1.023622
vt 0.687244 0.000000
vt 0.687244 -1.023622
vt 0.687244 0.000000
vt 46.163151 -1.023622
vt 46.163151 0.000000
vt 0.000000 0.000000
vt -1.023622 38.976379
vt -1.023622 0.000000
vt -1.023622 38.976379
vt 0.000000 0.000000
vt 0.000000 38.976379
vt -46.850395 -0.000000
vt 0.000000 -1.023622
vt 0.000000 0.000000
vt 0.000000 -1.023622
vt -46.850395 -0.000000
vt -46.850395 -1.023622
vt 0.000000 38.976379
vt 1.023622 0.000000
vt 1.023622 38.976379
vt 1.023622 0.000000
vt 0.000000 38.976379
vt 0.000000 0.000000
vt 46.850395 -1.023622
vt 0.000000 0.000000
vt 0.000000 -1.023622
vt 0.000000 0.000000
vt 46.850395 -1.023622
vt 46.850395 -0.000000
f 1/1 2/2 3/3
f 2/4 1/5 4/6
f 2/7 4/8 5/9
f 5/10 4/11 6/12
f 3/13 7/14 8/15
f 7/16 3/17 2/18
f 8/19 7/20 6/21
f 8/22 6/23 4/24
f 5/25 9/26 2/27
f 9/28 5/29 10/30
f 10/31 6/32 11/33
f 6/34 10/35 5/36
f 12/37 6/38 7/39
f 6/40 12/41 11/42
f 2/43 12/44 7/45
f 12/46 2/47 9/48
f 13/49 4/50 1/51
f 4/52 13/53 14/54
f 13/55 3/56 15/57
f 3/58 13/59 1/60
f 16/61 3/62 8/63
f 3/64 16/65 15/66
f 4/67 16/68 8/69
f 16/70 4/71 14/72
