# Blender v2.91.0 OBJ File: ''
# www.blender.org
mtllib JokkmokkTable.mtl
o JokkmokkTable_hull_1
v -0.634761 0.352286 -0.395981
v -0.589765 0.350682 -0.395914
v -0.634761 0.350682 -0.395914
v -0.589765 0.395669 0.295024
v -0.634761 0.395669 0.295024
v -0.589765 0.350682 0.295024
v -0.589765 0.395669 -0.395981
v -0.634761 0.350682 0.295024
v -0.634761 0.395669 -0.395981
vt 0.000000 0.000000
vt 0.000098 1.000000
vt 0.000098 0.000000
vt 1.000000 1.000000
vt 1.000000 0.000000
vt 1.000000 1.000000
vt 0.000000 1.000000
vt 1.000000 0.000000
vt 0.000000 0.000000
vn -0.0000 -0.0421 -0.9991
vn 0.0000 0.0000 1.0000
vn 0.0000 1.0000 0.0000
vn 1.0000 0.0000 0.0000
vn -1.0000 0.0000 0.0000
vn 0.0000 -1.0000 -0.0000
vn 0.0007 -0.0007 -1.0000
vn 0.0007 -0.0008 -1.0000
vn 0.0014 -0.0015 -1.0000
vn 0.0000 0.0000 -1.0000
usemtl None
s 1
f 1/1/1 2/2/1 3/3/1
f 4/4/2 5/5/2 6/6/2
f 5/5/3 4/4/3 7/7/3
f 4/4/4 6/6/4 7/7/4
f 5/5/5 1/1/5 8/8/5
f 6/6/2 5/5/2 8/8/2
f 6/6/6 8/8/6 2/2/6
f 1/1/7 7/7/8 2/2/9
f 7/7/4 6/6/4 2/2/4
f 1/1/5 5/5/5 9/9/5
f 7/7/8 1/1/7 9/9/10
f 5/5/3 7/7/3 9/9/3
f 8/8/5 1/1/5 3/3/5
f 2/2/6 8/8/6 3/3/6
o JokkmokkTable_hull_2
v 0.589765 0.352285 -0.395981
v 0.634761 0.350682 -0.395914
v 0.589765 0.350682 -0.395914
v 0.634761 0.395669 0.295024
v 0.589765 0.395669 0.295024
v 0.634761 0.350682 0.295024
v 0.634761 0.395669 -0.395981
v 0.589765 0.350682 0.295024
v 0.589765 0.395669 -0.395981
vt 0.000000 0.000000
vt 0.000098 1.000000
vt 0.000098 0.000000
vt 1.000000 1.000000
vt 1.000000 0.000000
vt 1.000000 1.000000
vt 0.000000 1.000000
vt 1.000000 0.000000
vt 0.000000 0.000000
vn 0.0000 -0.0423 -0.9991
vn 0.0000 0.0000 1.0000
vn 0.0000 1.0000 0.0000
vn 1.0000 0.0000 0.0000
vn -1.0000 0.0000 0.0000
vn 0.0000 -1.0000 -0.0000
vn 0.0007 -0.0007 -1.0000
vn 0.0007 -0.0008 -1.0000
vn 0.0014 -0.0015 -1.0000
vn 0.0000 0.0000 -1.0000
usemtl None
s 1
f 10/10/11 11/11/11 12/12/11
f 13/13/12 14/14/12 15/15/12
f 14/14/13 13/13/13 16/16/13
f 13/13/14 15/15/14 16/16/14
f 14/14/15 10/10/15 17/17/15
f 15/15/12 14/14/12 17/17/12
f 15/15/16 17/17/16 11/11/16
f 10/10/17 16/16/18 11/11/19
f 16/16/14 15/15/14 11/11/14
f 10/10/15 14/14/15 18/18/15
f 16/16/18 10/10/17 18/18/20
f 14/14/13 16/16/13 18/18/13
f 17/17/15 10/10/15 12/12/15
f 11/11/16 17/17/16 12/12/16
o JokkmokkTable_hull_3
v -0.589774 -0.396571 -0.395981
v -0.589774 -0.351580 -0.395981
v -0.588163 -0.367648 0.296614
v -0.588163 -0.401393 0.372147
v -0.639577 -0.401393 0.372147
v -0.634755 -0.351580 -0.395981
v -0.639577 -0.349975 0.396265
v -0.634755 -0.396571 -0.395981
v -0.588163 -0.349975 0.394559
v -0.588163 -0.401393 0.396265
v -0.639577 -0.401393 0.396265
v -0.628328 -0.349975 0.296536
vt 0.000000 0.093783
vt 0.000000 0.968772
vt 0.874217 0.656290
vt 0.969558 0.000000
vt 0.969558 0.000000
vt 0.000000 0.968772
vt 1.000000 1.000000
vt 0.000000 0.093783
vt 0.997847 1.000000
vt 1.000000 0.000000
vt 1.000000 0.000000
vt 0.874119 1.000000
vn 1.0000 0.0000 -0.0023
vn 1.0000 0.0081 -0.0021
vn 1.0000 0.0033 -0.0023
vn 0.0000 -1.0000 -0.0031
vn 0.0000 -1.0000 -0.0063
vn -1.0000 0.0020 -0.0062
vn -1.0000 -0.0014 -0.0048
vn -1.0000 0.0005 -0.0010
vn 0.0000 0.0000 -1.0000
vn -1.0000 0.0000 -0.0063
vn 1.0000 -0.0031 -0.0013
vn 1.0000 -0.0000 0.0000
vn 0.0000 -1.0000 0.0000
vn 0.0331 0.0331 0.9989
vn 0.0000 0.0000 1.0000
vn -1.0000 0.0000 0.0000
vn 0.0000 1.0000 0.0000
vn 0.0041 1.0000 -0.0016
vn 0.0006 1.0000 -0.0013
vn -0.0190 0.9998 -0.0021
vn 0.0036 1.0000 -0.0021
vn 0.0000 1.0000 -0.0023
vn 1.0000 -0.0011 -0.0005
vn 1.0000 -0.0048 -0.0021
vn 0.9999 0.0114 -0.0021
usemtl None
s 1
f 19/19/21 20/20/22 21/21/23
f 22/22/24 23/23/24 19/19/25
f 24/24/26 23/23/27 25/25/28
f 19/19/29 24/24/29 20/20/29
f 23/23/27 24/24/26 26/26/30
f 24/24/29 19/19/29 26/26/29
f 19/19/25 23/23/24 26/26/25
f 22/22/31 27/27/32 28/28/32
f 23/23/24 22/22/24 28/28/33
f 27/27/34 25/25/34 28/28/34
f 28/28/35 25/25/35 29/29/35
f 25/25/28 23/23/27 29/29/36
f 23/23/24 28/28/33 29/29/33
f 25/25/37 27/27/38 30/30/39
f 24/24/40 25/25/40 30/30/40
f 27/27/38 20/20/41 30/30/39
f 20/20/41 24/24/42 30/30/39
f 27/27/32 22/22/31 21/21/43
f 22/22/31 19/19/44 21/21/43
f 20/20/22 27/27/45 21/21/23
o JokkmokkTable_hull_4
v -0.588158 -0.367648 0.296631
v -0.588158 -0.349975 0.394646
v 0.588158 -0.349970 0.394646
v -0.588158 -0.401388 0.372156
v -0.588158 -0.390138 0.296631
v 0.588158 -0.401393 0.372156
v 0.588158 -0.349970 0.396264
v 0.588158 -0.367653 0.296631
v -0.588158 -0.401388 0.396265
v 0.588158 -0.390138 0.296631
v 0.588158 -0.401393 0.396264
v -0.588158 -0.349975 0.396265
vt 0.000000 0.000000
vt 0.000000 0.983751
vt 1.000000 0.983751
vt 0.000000 0.758027
vt 0.000000 0.000000
vt 1.000000 0.758027
vt 1.000000 1.000000
vt 1.000000 0.000000
vt 0.000000 1.000000
vt 1.000000 0.000000
vt 1.000000 1.000000
vt 0.000000 1.000000
vn -0.0000 0.9841 -0.1775
vn -0.0000 0.9841 -0.1774
vn -0.0000 -0.9891 -0.1473
vn -0.0000 -0.9891 -0.1474
vn 1.0000 -0.0000 0.0000
vn -1.0000 -0.0000 0.0000
vn -0.0000 -1.0000 0.0000
vn -0.0000 0.0000 -1.0000
vn 0.0000 0.0000 1.0000
vn -0.0000 1.0000 0.0000
vn 1.0000 0.0001 -0.0000
usemtl None
s 1
f 31/31/46 32/32/47 33/33/46
f 34/34/48 35/35/48 36/36/49
f 37/37/50 36/36/50 38/38/50
f 35/35/51 34/34/51 32/32/51
f 32/32/51 34/34/51 39/39/51
f 34/34/52 36/36/52 39/39/52
f 38/38/53 35/35/53 31/31/53
f 35/35/51 32/32/51 31/31/51
f 36/36/49 35/35/48 40/40/49
f 38/38/50 36/36/50 40/40/50
f 35/35/53 38/38/53 40/40/53
f 36/36/50 37/37/50 41/41/50
f 39/39/52 36/36/52 41/41/52
f 37/37/54 39/39/54 41/41/54
f 37/37/55 32/32/55 42/42/55
f 32/32/51 39/39/51 42/42/51
f 39/39/54 37/37/54 42/42/54
f 37/37/50 38/38/50 33/33/56
f 32/32/55 37/37/55 33/33/55
f 38/38/46 31/31/46 33/33/46
o JokkmokkTable_hull_5
v 0.639572 0.365141 0.372146
v 0.639572 -0.349970 0.372156
v 0.634751 0.350651 0.295034
v 0.639572 0.289542 0.396264
v 0.639572 0.365141 0.396245
v 0.588163 0.289542 0.396264
v 0.604232 -0.349970 0.396264
v 0.639572 -0.349970 0.396264
v 0.628329 -0.349970 0.296639
v 0.589779 0.350651 0.295034
v 0.605843 -0.349970 0.296639
v 0.588163 0.072615 0.394639
v 0.588163 0.365141 0.396245
v 0.634751 0.365141 0.295034
v 0.589779 0.365141 0.295034
vt 1.000000 0.761746
vt 0.000000 0.761844
vt 0.979738 0.000000
vt 0.894283 1.000000
vt 1.000000 0.999804
vt 0.894283 1.000000
vt 0.000000 1.000000
vt 0.000000 1.000000
vt 0.000000 0.015857
vt 0.979738 0.000000
vt 0.000000 0.015857
vt 0.590936 0.983947
vt 1.000000 0.999804
vt 1.000000 0.000000
vt 1.000000 0.000000
vn 0.9981 -0.0000 -0.0624
vn 0.0000 0.0001 1.0000
vn 0.0000 0.0003 1.0000
vn 0.0000 -0.0000 1.0000
vn 1.0000 -0.0000 -0.0003
vn 1.0000 -0.0000 -0.0007
vn 1.0000 0.0000 -0.0005
vn 0.0000 -1.0000 -0.0000
vn 0.0000 -0.0011 -1.0000
vn 0.0000 -0.0023 -1.0000
vn -0.9991 -0.0381 -0.0162
vn -0.2857 -0.0072 0.9583
vn -0.9965 -0.0230 -0.0805
vn -1.0000 0.0000 0.0000
vn 0.0000 1.0000 0.0000
vn 1.0000 0.0000 0.0000
vn 0.0000 0.0000 -1.0000
vn -0.9999 0.0000 -0.0162
vn -0.9999 0.0001 -0.0160
vn 0.9891 -0.0094 -0.1473
usemtl None
s 1
f 43/43/57 44/44/57 45/45/57
f 46/46/58 47/47/59 48/48/58
f 46/46/58 48/48/58 49/49/60
f 47/47/61 46/46/62 50/50/63
f 46/46/58 49/49/60 50/50/60
f 49/49/64 51/51/64 50/50/64
f 52/52/65 51/51/66 53/53/66
f 51/51/64 49/49/64 53/53/64
f 53/53/67 49/49/67 54/54/67
f 49/49/68 48/48/68 54/54/68
f 52/52/69 53/53/69 54/54/69
f 54/54/70 48/48/70 55/55/70
f 48/48/58 47/47/59 55/55/59
f 47/47/71 56/56/71 55/55/71
f 50/50/64 51/51/64 44/44/64
f 47/47/61 50/50/63 44/44/72
f 56/56/71 47/47/71 43/43/71
f 47/47/61 44/44/72 43/43/72
f 56/56/73 52/52/65 57/57/73
f 52/52/74 54/54/75 57/57/75
f 54/54/75 55/55/75 57/57/75
f 55/55/71 56/56/71 57/57/71
f 51/51/66 52/52/65 45/45/65
f 52/52/65 56/56/73 45/45/65
f 44/44/76 51/51/76 45/45/76
f 56/56/57 43/43/57 45/45/57
o JokkmokkTable_hull_6
v 0.634755 -0.351581 -0.395981
v 0.639577 -0.349975 0.396264
v 0.639577 -0.401393 0.372147
v 0.589774 -0.351581 -0.395981
v 0.628328 -0.349975 0.296536
v 0.634755 -0.396571 -0.395981
v 0.588163 -0.390143 0.296613
v 0.588163 -0.401393 0.372147
v 0.588163 -0.349975 0.396264
v 0.589774 -0.396571 -0.395981
v 0.639577 -0.401393 0.396264
v 0.588163 -0.401393 0.396264
vt 0.000000 0.968772
vt 1.000000 1.000000
vt 0.969558 0.000000
vt 0.000000 0.968772
vt 0.874119 1.000000
vt 0.000000 0.093783
vt 0.874217 0.218796
vt 0.969558 0.000000
vt 1.000000 1.000000
vt 0.000000 0.093783
vt 1.000000 0.000000
vt 1.000000 0.000000
vn 1.0000 0.0021 -0.0062
vn 1.0000 0.0005 -0.0010
vn 1.0000 -0.0014 -0.0048
vn -0.0037 1.0000 -0.0021
vn -0.0006 1.0000 -0.0013
vn 0.0000 1.0000 -0.0023
vn 0.0000 0.0000 -1.0000
vn -1.0000 0.0006 -0.0013
vn -1.0000 0.0000 0.0000
vn -1.0000 0.0037 -0.0014
vn -0.0041 1.0000 -0.0016
vn -1.0000 0.0036 -0.0021
vn -0.9999 -0.0147 -0.0022
vn 0.0000 -1.0000 -0.0063
vn 0.0000 -1.0000 -0.0031
vn -1.0000 0.0000 -0.0023
vn 0.0190 0.9998 -0.0021
vn 0.0000 1.0000 0.0000
vn 0.0000 0.0000 1.0000
vn 0.0000 -1.0000 0.0000
vn 1.0000 0.0000 -0.0063
vn 1.0000 0.0000 0.0000
usemtl None
s 1
f 58/58/77 59/59/78 60/60/79
f 61/61/80 62/62/81 58/58/82
f 63/63/83 61/61/83 58/58/83
f 64/64/84 65/65/85 66/66/86
f 62/62/81 61/61/80 66/66/87
f 61/61/88 64/64/84 66/66/86
f 65/65/89 64/64/89 67/67/89
f 63/63/90 65/65/91 67/67/90
f 61/61/83 63/63/83 67/67/83
f 64/64/84 61/61/88 67/67/92
f 58/58/93 62/62/93 59/59/93
f 62/62/81 66/66/87 59/59/94
f 66/66/95 68/68/95 59/59/95
f 65/65/91 68/68/96 69/69/96
f 66/66/86 65/65/85 69/69/85
f 68/68/95 66/66/95 69/69/95
f 65/65/91 63/63/90 60/60/91
f 68/68/96 65/65/91 60/60/91
f 63/63/97 58/58/77 60/60/79
f 59/59/78 68/68/98 60/60/79
o JokkmokkTable_hull_7
v -0.589779 0.395623 0.295034
v -0.639572 0.402102 0.372146
v -0.588163 0.402102 0.372146
v -0.588163 0.289541 0.396265
v -0.639572 0.289541 0.396265
v -0.639572 -0.349969 0.396265
v -0.605843 -0.349969 0.296639
v -0.604232 -0.349969 0.396265
v -0.589779 0.350643 0.295034
v -0.628329 -0.349969 0.296639
v -0.588163 0.402102 0.396245
v -0.588163 0.072666 0.394640
v -0.639572 0.402102 0.396245
v -0.639572 -0.349969 0.372156
v -0.588163 0.390838 0.296659
v -0.588163 0.366692 0.296659
v -0.634750 0.395623 0.295034
v -0.634750 0.350643 0.295034
vt 0.991386 0.000000
vt 1.000000 0.761746
vt 1.000000 0.761746
vt 0.850333 1.000000
vt 0.850333 1.000000
vt 0.000000 1.000000
vt 0.000000 0.015857
vt 0.000000 1.000000
vt 0.931578 0.000000
vt 0.000000 0.015857
vt 1.000000 0.999804
vt 0.561962 0.983947
vt 1.000000 0.999804
vt 0.000000 0.761844
vt 0.985023 0.016053
vt 0.952917 0.016053
vt 0.991386 0.000000
vt 0.931578 0.000000
vn 0.0000 0.9965 -0.0837
vn 0.0000 0.0001 1.0000
vn 0.0000 -0.0000 1.0000
vn 0.0000 -1.0000 -0.0000
vn 0.0000 -0.0011 -1.0000
vn 0.0000 -0.0023 -1.0000
vn 0.0000 0.0002 1.0000
vn 0.9991 -0.0381 -0.0162
vn 0.2858 -0.0072 0.9583
vn 1.0000 0.0000 0.0000
vn -1.0000 0.0000 0.0008
vn -1.0000 0.0000 0.0012
vn -1.0000 0.0000 0.0005
vn -1.0000 0.0000 0.0000
vn 0.0000 1.0000 0.0000
vn 0.7994 -0.0197 -0.6004
vn 0.9970 -0.0246 -0.0738
vn 0.7091 0.0000 -0.7051
vn 0.0000 0.0000 -1.0000
vn -0.9891 -0.0094 -0.1473
vn -0.9981 -0.0000 -0.0624
vn 0.9510 0.3057 -0.0456
usemtl None
s 1
f 70/70/99 71/71/99 72/72/99
f 73/73/100 74/74/100 75/75/101
f 75/75/102 76/76/102 77/77/102
f 73/73/100 75/75/101 77/77/101
f 78/78/103 76/76/104 79/79/104
f 76/76/102 75/75/102 79/79/102
f 74/74/100 73/73/100 80/80/105
f 77/77/106 76/76/106 81/81/106
f 73/73/107 77/77/107 81/81/107
f 80/80/108 73/73/108 81/81/108
f 75/75/109 74/74/110 82/82/111
f 74/74/100 80/80/105 82/82/105
f 79/79/102 75/75/102 83/83/102
f 75/75/109 82/82/111 83/83/112
f 80/80/108 81/81/108 84/84/108
f 82/82/113 80/80/113 71/71/113
f 83/83/112 82/82/111 71/71/112
f 76/76/114 78/78/114 85/85/114
f 81/81/115 76/76/115 85/85/115
f 78/78/116 84/84/116 85/85/116
f 84/84/108 81/81/108 85/85/108
f 78/78/103 86/86/117 70/70/117
f 84/84/116 78/78/116 70/70/116
f 86/86/99 71/71/99 70/70/99
f 86/86/117 78/78/103 87/87/103
f 78/78/103 79/79/104 87/87/103
f 79/79/118 83/83/118 87/87/118
f 71/71/119 86/86/119 87/87/119
f 83/83/119 71/71/119 87/87/119
f 80/80/108 84/84/108 72/72/108
f 71/71/113 80/80/113 72/72/113
f 84/84/120 70/70/120 72/72/120
o JokkmokkTable_hull_8
v -0.588140 0.365141 0.396265
v -0.604110 0.072615 0.394658
v -0.604110 0.072615 0.396265
v 0.604110 0.072615 0.396264
v 0.588141 0.365141 0.396264
v -0.604110 -0.349900 0.396265
v -0.604110 -0.349900 0.394658
v 0.604110 -0.349970 0.394658
v -0.588140 0.365141 0.394658
v 0.588141 0.365141 0.394658
v 0.604110 -0.349970 0.396264
v 0.604110 0.072615 0.394658
vt 0.013217 1.000000
vt 0.000000 0.590936
vt 0.000000 0.590936
vt 1.000000 0.590936
vt 0.986783 1.000000
vt 0.000000 0.000098
vt 0.000000 0.000098
vt 1.000000 0.000000
vt 0.013217 1.000000
vt 0.986783 1.000000
vt 1.000000 0.000000
vt 1.000000 0.590936
vn -0.9985 0.0545 0.0000
vn 0.0000 -0.0000 1.0000
vn -0.0001 -1.0000 0.0000
vn -0.0000 0.0000 -1.0000
vn 0.9985 0.0545 0.0000
vn 0.0000 1.0000 0.0000
vn 1.0000 -0.0000 0.0000
vn -1.0000 0.0000 0.0000
usemtl None
s 1
f 88/88/121 89/89/121 90/90/121
f 91/91/122 92/92/122 93/93/122
f 93/93/123 94/94/123 95/95/123
f 95/95/124 94/94/124 96/96/124
f 95/95/124 96/96/124 97/97/124
f 92/92/125 91/91/125 97/97/125
f 96/96/126 92/92/126 97/97/126
f 93/93/122 92/92/122 88/88/122
f 92/92/126 96/96/126 88/88/126
f 91/91/122 93/93/122 98/98/122
f 93/93/123 95/95/123 98/98/123
f 95/95/127 91/91/127 98/98/127
f 94/94/128 93/93/128 89/89/128
f 96/96/124 94/94/124 89/89/124
f 88/88/121 96/96/121 89/89/121
f 91/91/127 95/95/127 99/99/127
f 95/95/124 97/97/124 99/99/124
f 97/97/125 91/91/125 99/99/125
f 93/93/122 88/88/122 90/90/122
f 89/89/128 93/93/128 90/90/128
o JokkmokkTable_hull_9
v 0.639582 0.402101 0.372146
v 0.634655 0.365141 0.295034
v 0.634655 0.395672 0.295034
v 0.589708 0.395672 0.295034
v 0.589708 0.365141 0.295034
v -0.588158 0.390846 0.296639
v -0.588158 0.365141 0.396265
v 0.639582 0.395672 0.396264
v -0.588158 0.402102 0.396265
v 0.639582 0.365141 0.396245
v -0.588158 0.366751 0.296639
v -0.588158 0.402102 0.372156
v 0.639582 0.402101 0.396264
vt 1.000000 0.761746
vt 0.995987 0.000000
vt 0.995987 0.000000
vt 0.959377 0.000000
vt 0.959377 0.000000
vt 0.000000 0.015857
vt 0.000000 1.000000
vt 1.000000 1.000000
vt 0.000000 1.000000
vt 1.000000 0.999804
vt 0.000000 0.015857
vt 0.000000 0.761844
vt 1.000000 1.000000
vn 0.9980 0.0000 -0.0638
vn -0.0000 0.0000 -1.0000
vn -0.0013 0.0000 -1.0000
vn -0.0014 0.0000 -1.0000
vn -0.0000 -0.0003 1.0000
vn -0.0000 0.0000 1.0000
vn -1.0000 -0.0000 0.0000
vn -0.0000 -1.0000 0.0000
vn 0.0000 -0.0006 1.0000
vn -0.0014 -0.9999 -0.0162
vn 1.0000 0.0000 0.0000
vn -0.0043 0.9891 -0.1474
vn 0.0000 0.9965 -0.0831
vn 0.0000 1.0000 0.0000
vn 0.9983 -0.0317 -0.0486
usemtl None
s 1
f 100/100/129 101/101/129 102/102/129
f 103/103/130 104/104/131 105/105/132
f 106/106/133 107/107/134 108/108/134
f 105/105/135 106/106/135 108/108/135
f 106/106/136 104/104/136 109/109/136
f 107/107/134 106/106/133 109/109/137
f 104/104/138 106/106/138 110/110/138
f 106/106/135 105/105/135 110/110/135
f 105/105/132 104/104/131 110/110/132
f 107/107/139 109/109/139 100/100/139
f 103/103/140 105/105/140 111/111/140
f 105/105/135 108/108/135 111/111/135
f 100/100/141 103/103/141 111/111/141
f 108/108/142 100/100/142 111/111/142
f 104/104/131 103/103/130 101/101/130
f 109/109/136 104/104/136 101/101/136
f 100/100/143 109/109/143 101/101/143
f 108/108/134 107/107/134 112/112/134
f 107/107/139 100/100/139 112/112/139
f 100/100/142 108/108/142 112/112/142
f 103/103/141 100/100/141 102/102/141
f 101/101/130 103/103/130 102/102/130
