# Blender v2.83.4 OBJ File: ''
# www.blender.org
mtllib table.mtl
o JokkmokkTable_hull_1
v -0.634761 0.352286 -0.395981
v -0.589765 0.395669 0.295024
v -0.634761 0.395669 0.295024
v -0.589765 0.350682 0.295024
v -0.589765 0.395669 -0.395981
v -0.634761 0.350682 0.295024
v -0.589765 0.350682 -0.395914
v -0.634761 0.395669 -0.395981
v -0.634761 0.350682 -0.395914
vt 0.000000 0.000000
vt 0.000098 1.000000
vt 0.000098 0.000000
vt 1.000000 1.000000
vt 1.000000 0.000000
vt 1.000000 1.000000
vt 0.000000 1.000000
vt 1.000000 0.000000
vt 0.000000 0.000000
vn 0.0000 -0.0422 -0.9991
vn 0.0000 0.0000 1.0000
vn 0.0000 1.0000 -0.0000
vn 1.0000 0.0000 -0.0000
vn -1.0000 0.0000 0.0000
vn 0.0000 -1.0000 0.0000
vn 0.0015 -0.0015 -1.0000
vn 0.0000 0.0000 -1.0000
vn -1.0000 -0.0001 0.0000
usemtl None
s off
f 1/1/1 7/2/1 9/3/1
f 2/4/2 3/5/2 4/6/2
f 3/5/3 2/4/3 5/7/3
f 2/4/4 4/6/4 5/7/4
f 3/5/5 1/1/5 6/8/5
f 4/6/2 3/5/2 6/8/2
f 4/6/6 6/8/6 7/2/6
f 1/1/7 5/7/7 7/2/7
f 5/7/4 4/6/4 7/2/4
f 1/1/5 3/5/5 8/9/5
f 5/7/8 1/1/8 8/9/8
f 3/5/3 5/7/3 8/9/3
f 6/8/9 1/1/9 9/3/9
f 7/2/6 6/8/6 9/3/6
o JokkmokkTable_hull_2
v 0.589765 0.352285 -0.395981
v 0.634761 0.395669 0.295024
v 0.589765 0.395669 0.295024
v 0.634761 0.350682 0.295024
v 0.634761 0.395669 -0.395981
v 0.589765 0.350682 0.295024
v 0.634761 0.350682 -0.395914
v 0.589765 0.395669 -0.395981
v 0.589765 0.350682 -0.395914
vt 0.000000 0.000000
vt 0.000098 1.000000
vt 0.000098 0.000000
vt 1.000000 1.000000
vt 1.000000 0.000000
vt 1.000000 1.000000
vt 0.000000 1.000000
vt 1.000000 0.000000
vt 0.000000 0.000000
vn 0.0000 -0.0422 -0.9991
vn 0.0000 0.0000 1.0000
vn 0.0000 1.0000 -0.0000
vn 1.0000 0.0000 -0.0000
vn -1.0000 0.0000 0.0000
vn 0.0000 -1.0000 0.0000
vn 0.0014 -0.0015 -1.0000
vn 0.0000 0.0000 -1.0000
vn -1.0000 0.0001 0.0000
usemtl None
s off
f 10/10/10 16/11/10 18/12/10
f 11/13/11 12/14/11 13/15/11
f 12/14/12 11/13/12 14/16/12
f 11/13/13 13/15/13 14/16/13
f 12/14/14 10/10/14 15/17/14
f 13/15/11 12/14/11 15/17/11
f 13/15/15 15/17/15 16/11/15
f 10/10/16 14/16/16 16/11/16
f 14/16/13 13/15/13 16/11/13
f 10/10/14 12/14/14 17/18/14
f 14/16/17 10/10/17 17/18/17
f 12/14/12 14/16/12 17/18/12
f 15/17/18 10/10/18 18/12/18
f 16/11/15 15/17/15 18/12/15
o JokkmokkTable_hull_3
v -0.588163 -0.349975 0.394559
v -0.639577 -0.401393 0.372147
v -0.588163 -0.401393 0.372147
v -0.634755 -0.351580 -0.395981
v -0.589774 -0.396571 -0.395981
v -0.639577 -0.349975 0.396265
v -0.589774 -0.351580 -0.395981
v -0.634755 -0.396571 -0.395981
v -0.588163 -0.401393 0.396265
v -0.639577 -0.401393 0.396265
v -0.628328 -0.349975 0.296536
v -0.588163 -0.367648 0.296614
vt 0.000000 0.093783
vt 0.000000 0.968772
vt 0.874217 0.656290
vt 0.969558 0.000000
vt 0.969558 0.000000
vt 0.000000 0.968772
vt 1.000000 1.000000
vt 0.000000 0.093783
vt 0.997847 1.000000
vt 1.000000 0.000000
vt 1.000000 0.000000
vt 0.874119 1.000000
vn 1.0000 0.0000 -0.0023
vn 0.0000 -1.0000 -0.0063
vn -1.0000 0.0029 -0.0061
vn 0.0000 0.0000 -1.0000
vn -1.0000 0.0000 -0.0063
vn 1.0000 -0.0000 0.0000
vn 0.0000 -1.0000 0.0000
vn 0.0331 0.0331 0.9989
vn 0.0000 0.0000 1.0000
vn -1.0000 0.0000 0.0000
vn 0.0000 1.0000 0.0000
vn -0.0190 0.9998 -0.0021
vn 0.0050 1.0000 -0.0020
vn 0.0000 1.0000 -0.0023
vn 1.0000 -0.0048 -0.0021
vn 0.9999 0.0114 -0.0021
usemtl None
s off
f 23/19/19 25/20/19 30/21/19
f 21/22/20 20/23/20 23/19/20
f 22/24/21 20/23/21 24/25/21
f 23/19/22 22/24/22 25/20/22
f 20/23/23 22/24/23 26/26/23
f 22/24/22 23/19/22 26/26/22
f 23/19/20 20/23/20 26/26/20
f 21/22/24 19/27/24 27/28/24
f 20/23/25 21/22/25 27/28/25
f 19/27/26 24/25/26 27/28/26
f 27/28/27 24/25/27 28/29/27
f 24/25/28 20/23/28 28/29/28
f 20/23/25 27/28/25 28/29/25
f 24/25/29 19/27/29 29/30/29
f 22/24/30 24/25/30 29/30/30
f 19/27/31 25/20/31 29/30/31
f 25/20/32 22/24/32 29/30/32
f 19/27/24 21/22/24 30/21/24
f 21/22/33 23/19/33 30/21/33
f 25/20/34 19/27/34 30/21/34
o JokkmokkTable_hull_4
v 0.588158 -0.349970 0.396264
v -0.588158 -0.390138 0.296631
v -0.588158 -0.401388 0.372156
v 0.588158 -0.401393 0.372156
v 0.588158 -0.367653 0.296631
v -0.588158 -0.349975 0.394646
v -0.588158 -0.401388 0.396265
v -0.588158 -0.367648 0.296631
v 0.588158 -0.390138 0.296631
v 0.588158 -0.401393 0.396264
v -0.588158 -0.349975 0.396265
v 0.588158 -0.349970 0.394646
vt 0.000000 0.000000
vt 0.000000 0.983751
vt 1.000000 0.983751
vt 0.000000 0.758027
vt 0.000000 0.000000
vt 1.000000 0.758027
vt 1.000000 1.000000
vt 1.000000 0.000000
vt 0.000000 1.000000
vt 1.000000 0.000000
vt 1.000000 1.000000
vt 0.000000 1.000000
vn -0.0000 0.9841 -0.1774
vn -0.0000 -0.9891 -0.1473
vn 1.0000 0.0000 0.0000
vn -1.0000 -0.0000 0.0000
vn -0.0000 -1.0000 0.0000
vn -0.0000 0.0000 -1.0000
vn -0.0000 -0.9891 -0.1474
vn 0.0000 0.0000 1.0000
vn -0.0000 1.0000 0.0000
vn 0.0000 0.9841 -0.1775
usemtl None
s off
f 38/31/35 36/32/35 42/33/35
f 33/34/36 32/35/36 34/36/36
f 31/37/37 34/36/37 35/38/37
f 32/35/38 33/34/38 36/32/38
f 36/32/38 33/34/38 37/39/38
f 33/34/39 34/36/39 37/39/39
f 35/38/40 32/35/40 38/31/40
f 32/35/38 36/32/38 38/31/38
f 34/36/41 32/35/41 39/40/41
f 35/38/37 34/36/37 39/40/37
f 32/35/40 35/38/40 39/40/40
f 34/36/37 31/37/37 40/41/37
f 37/39/39 34/36/39 40/41/39
f 31/37/42 37/39/42 40/41/42
f 31/37/43 36/32/43 41/42/43
f 36/32/38 37/39/38 41/42/38
f 37/39/42 31/37/42 41/42/42
f 31/37/37 35/38/37 42/33/37
f 36/32/43 31/37/43 42/33/43
f 35/38/44 38/31/44 42/33/44
o JokkmokkTable_hull_5
v 0.589779 0.350651 0.295034
v 0.639572 0.289542 0.396264
v 0.639572 0.365141 0.396245
v 0.588163 0.289542 0.396264
v 0.628329 -0.349970 0.296639
v 0.604232 -0.349970 0.396264
v 0.634751 0.365141 0.295034
v 0.639572 -0.349970 0.396264
v 0.605843 -0.349970 0.296639
v 0.588163 0.072615 0.394639
v 0.588163 0.365141 0.396245
v 0.639572 -0.349970 0.372156
v 0.639572 0.365141 0.372146
v 0.589779 0.365141 0.295034
v 0.634751 0.350651 0.295034
vt 1.000000 0.761746
vt 0.000000 0.761844
vt 0.979738 0.000000
vt 0.894283 1.000000
vt 1.000000 0.999804
vt 0.894283 1.000000
vt 0.000000 1.000000
vt 0.000000 1.000000
vt 0.000000 0.015857
vt 0.979738 0.000000
vt 0.000000 0.015857
vt 0.590936 0.983947
vt 1.000000 0.999804
vt 1.000000 0.000000
vt 1.000000 0.000000
vn 0.9981 -0.0000 -0.0624
vn 0.0000 0.0003 1.0000
vn 0.0000 0.0000 1.0000
vn 1.0000 -0.0000 -0.0007
vn 0.0000 -1.0000 0.0000
vn 0.0000 -0.0023 -1.0000
vn -0.9991 -0.0381 -0.0162
vn -0.2857 -0.0072 0.9583
vn -0.9965 -0.0230 -0.0805
vn -1.0000 -0.0000 0.0000
vn 0.0000 1.0000 0.0000
vn 1.0000 -0.0000 0.0000
vn 0.0000 0.0000 -1.0000
vn -0.9999 0.0000 -0.0162
vn -0.9999 0.0001 -0.0160
vn 0.9891 -0.0094 -0.1473
usemtl None
s off
f 55/43/45 54/44/45 57/45/45
f 44/46/46 45/47/46 46/48/46
f 44/46/47 46/48/47 48/49/47
f 45/47/48 44/46/48 50/50/48
f 44/46/47 48/49/47 50/50/47
f 48/49/49 47/51/49 50/50/49
f 43/52/50 47/51/50 51/53/50
f 47/51/49 48/49/49 51/53/49
f 51/53/51 48/49/51 52/54/51
f 48/49/52 46/48/52 52/54/52
f 43/52/53 51/53/53 52/54/53
f 52/54/54 46/48/54 53/55/54
f 46/48/46 45/47/46 53/55/46
f 45/47/55 49/56/55 53/55/55
f 50/50/49 47/51/49 54/44/49
f 45/47/56 50/50/56 54/44/56
f 49/56/55 45/47/55 55/43/55
f 45/47/56 54/44/56 55/43/56
f 49/56/57 43/52/57 56/57/57
f 43/52/58 52/54/58 56/57/58
f 52/54/59 53/55/59 56/57/59
f 53/55/55 49/56/55 56/57/55
f 47/51/50 43/52/50 57/45/50
f 43/52/57 49/56/57 57/45/57
f 54/44/60 47/51/60 57/45/60
f 49/56/45 55/43/45 57/45/45
o JokkmokkTable_hull_6
v 0.628328 -0.349975 0.296536
v 0.588163 -0.401393 0.372147
v 0.588163 -0.390143 0.296613
v 0.634755 -0.396571 -0.395981
v 0.589774 -0.351581 -0.395981
v 0.639577 -0.401393 0.396264
v 0.634755 -0.351581 -0.395981
v 0.588163 -0.349975 0.396264
v 0.589774 -0.396571 -0.395981
v 0.639577 -0.349975 0.396264
v 0.588163 -0.401393 0.396264
v 0.639577 -0.401393 0.372147
vt 0.000000 0.968772
vt 1.000000 1.000000
vt 0.969558 0.000000
vt 0.000000 0.968772
vt 0.874119 1.000000
vt 0.000000 0.093783
vt 0.874217 0.218796
vt 0.969558 0.000000
vt 1.000000 1.000000
vt 0.000000 0.093783
vt 1.000000 0.000000
vt 1.000000 0.000000
vn 1.0000 0.0029 -0.0061
vn 0.0000 1.0000 -0.0023
vn 0.0000 0.0000 -1.0000
vn -1.0000 -0.0000 0.0000
vn -0.0051 1.0000 -0.0020
vn -1.0000 0.0051 -0.0020
vn -0.9999 -0.0147 -0.0022
vn 0.0000 -1.0000 -0.0063
vn -1.0000 0.0000 -0.0023
vn 0.0190 0.9998 -0.0021
vn 0.0000 1.0000 0.0000
vn 0.0000 0.0000 1.0000
vn 0.0000 -1.0000 0.0000
vn 1.0000 0.0000 -0.0063
vn 1.0000 0.0000 0.0000
usemtl None
s off
f 64/58/61 67/59/61 69/60/61
f 62/61/62 58/62/62 64/58/62
f 61/63/63 62/61/63 64/58/63
f 60/64/64 59/65/64 65/66/64
f 58/62/65 62/61/65 65/66/65
f 62/61/66 60/64/66 65/66/66
f 59/65/67 60/64/67 66/67/67
f 61/63/68 59/65/68 66/67/68
f 62/61/63 61/63/63 66/67/63
f 60/64/69 62/61/69 66/67/69
f 64/58/70 58/62/70 67/59/70
f 58/62/71 65/66/71 67/59/71
f 65/66/72 63/68/72 67/59/72
f 59/65/73 63/68/73 68/69/73
f 65/66/64 59/65/64 68/69/64
f 63/68/72 65/66/72 68/69/72
f 59/65/68 61/63/68 69/60/68
f 63/68/73 59/65/73 69/60/73
f 61/63/74 64/58/74 69/60/74
f 67/59/75 63/68/75 69/60/75
o JokkmokkTable_hull_7
v -0.589779 0.350643 0.295034
v -0.588163 0.289541 0.396265
v -0.639572 0.289541 0.396265
v -0.605843 -0.349969 0.296639
v -0.634750 0.395623 0.295034
v -0.639572 -0.349969 0.396265
v -0.604232 -0.349969 0.396265
v -0.628329 -0.349969 0.296639
v -0.588163 0.402102 0.396245
v -0.588163 0.072666 0.394640
v -0.639572 0.402102 0.396245
v -0.639572 -0.349969 0.372156
v -0.588163 0.390838 0.296659
v -0.639572 0.402102 0.372146
v -0.588163 0.366692 0.296659
v -0.589779 0.395623 0.295034
v -0.634750 0.350643 0.295034
v -0.588163 0.402102 0.372146
vt 0.991386 0.000000
vt 1.000000 0.761746
vt 1.000000 0.761746
vt 0.850333 1.000000
vt 0.850333 1.000000
vt 0.000000 1.000000
vt 0.000000 0.015857
vt 0.000000 1.000000
vt 0.931578 0.000000
vt 0.000000 0.015857
vt 1.000000 0.999804
vt 0.561962 0.983947
vt 1.000000 0.999804
vt 0.000000 0.761844
vt 0.985023 0.016053
vt 0.952917 0.016053
vt 0.991386 0.000000
vt 0.931578 0.000000
vn 0.0000 0.9965 -0.0837
vn 0.0000 0.0000 1.0000
vn 0.0000 -1.0000 0.0000
vn 0.0000 -0.0023 -1.0000
vn 0.0000 0.0002 1.0000
vn 0.9991 -0.0381 -0.0162
vn 0.2858 -0.0072 0.9583
vn 1.0000 0.0000 -0.0000
vn -1.0000 0.0000 0.0011
vn -1.0000 0.0000 0.0000
vn 0.0000 1.0000 0.0000
vn 0.7996 -0.0197 -0.6002
vn 0.9970 -0.0246 -0.0738
vn 0.7092 0.0000 -0.7050
vn 0.0000 0.0000 -1.0000
vn -0.9891 -0.0094 -0.1473
vn -0.9981 0.0000 -0.0624
vn 0.9511 0.3056 -0.0456
usemtl None
s off
f 85/70/76 83/71/76 87/72/76
f 71/73/77 72/74/77 75/75/77
f 75/75/78 73/76/78 76/77/78
f 71/73/77 75/75/77 76/77/77
f 70/78/79 73/76/79 77/79/79
f 73/76/78 75/75/78 77/79/78
f 72/74/80 71/73/80 78/80/80
f 76/77/81 73/76/81 79/81/81
f 71/73/82 76/77/82 79/81/82
f 78/80/83 71/73/83 79/81/83
f 75/75/84 72/74/84 80/82/84
f 72/74/80 78/80/80 80/82/80
f 77/79/78 75/75/78 81/83/78
f 75/75/85 80/82/85 81/83/85
f 78/80/83 79/81/83 82/84/83
f 80/82/86 78/80/86 83/71/86
f 81/83/85 80/82/85 83/71/85
f 73/76/87 70/78/87 84/85/87
f 79/81/88 73/76/88 84/85/88
f 70/78/89 82/84/89 84/85/89
f 82/84/83 79/81/83 84/85/83
f 70/78/90 74/86/90 85/70/90
f 82/84/89 70/78/89 85/70/89
f 74/86/76 83/71/76 85/70/76
f 74/86/90 70/78/90 86/87/90
f 70/78/79 77/79/79 86/87/79
f 77/79/91 81/83/91 86/87/91
f 83/71/92 74/86/92 86/87/92
f 81/83/92 83/71/92 86/87/92
f 78/80/83 82/84/83 87/72/83
f 83/71/86 78/80/86 87/72/86
f 82/84/93 85/70/93 87/72/93
o JokkmokkTable_hull_8
v -0.604110 -0.349900 0.394658
v 0.588141 0.365141 0.396264
v 0.604110 0.072615 0.396264
v -0.604110 -0.349900 0.396265
v 0.604110 -0.349970 0.394658
v -0.588140 0.365141 0.394658
v 0.588141 0.365141 0.394658
v -0.588140 0.365141 0.396265
v 0.604110 -0.349970 0.396264
v -0.604110 0.072615 0.394658
v 0.604110 0.072615 0.394658
v -0.604110 0.072615 0.396265
vt 0.013217 1.000000
vt 0.000000 0.590936
vt 0.000000 0.590936
vt 1.000000 0.590936
vt 0.986783 1.000000
vt 0.000000 0.000098
vt 0.000000 0.000098
vt 1.000000 0.000000
vt 0.013217 1.000000
vt 0.986783 1.000000
vt 1.000000 0.000000
vt 1.000000 0.590936
vn -0.9985 0.0545 0.0000
vn 0.0000 0.0000 1.0000
vn -0.0001 -1.0000 0.0000
vn -0.0000 0.0000 -1.0000
vn 0.9985 0.0545 0.0000
vn 0.0000 1.0000 0.0000
vn 1.0000 -0.0000 0.0000
vn -1.0000 0.0000 0.0000
usemtl None
s off
f 95/88/94 97/89/94 99/90/94
f 90/91/95 89/92/95 91/93/95
f 91/93/96 88/94/96 92/95/96
f 92/95/97 88/94/97 93/96/97
f 92/95/97 93/96/97 94/97/97
f 89/92/98 90/91/98 94/97/98
f 93/96/99 89/92/99 94/97/99
f 91/93/95 89/92/95 95/88/95
f 89/92/99 93/96/99 95/88/99
f 90/91/95 91/93/95 96/98/95
f 91/93/96 92/95/96 96/98/96
f 92/95/100 90/91/100 96/98/100
f 88/94/101 91/93/101 97/89/101
f 93/96/97 88/94/97 97/89/97
f 95/88/94 93/96/94 97/89/94
f 90/91/100 92/95/100 98/99/100
f 92/95/97 94/97/97 98/99/97
f 94/97/98 90/91/98 98/99/98
f 91/93/95 95/88/95 99/90/95
f 97/89/101 91/93/101 99/90/101
o JokkmokkTable_hull_9
v 0.639582 0.395672 0.396264
v 0.589708 0.365141 0.295034
v 0.589708 0.395672 0.295034
v -0.588158 0.365141 0.396265
v -0.588158 0.390846 0.296639
v -0.588158 0.402102 0.396265
v 0.639582 0.365141 0.396245
v -0.588158 0.366751 0.296639
v 0.639582 0.402101 0.372146
v -0.588158 0.402102 0.372156
v 0.634655 0.365141 0.295034
v 0.639582 0.402101 0.396264
v 0.634655 0.395672 0.295034
vt 1.000000 0.761746
vt 0.995987 0.000000
vt 0.995987 0.000000
vt 0.959377 0.000000
vt 0.959377 0.000000
vt 0.000000 0.015857
vt 0.000000 1.000000
vt 1.000000 1.000000
vt 0.000000 1.000000
vt 1.000000 0.999804
vt 0.000000 0.015857
vt 0.000000 0.761844
vt 1.000000 1.000000
vn 0.9980 0.0000 -0.0638
vn -0.0014 0.0000 -1.0000
vn 0.0000 0.0000 1.0000
vn -1.0000 0.0000 0.0000
vn -0.0000 -1.0000 -0.0000
vn 0.0000 -0.0006 1.0000
vn -0.0014 -0.9999 -0.0162
vn 1.0000 0.0000 0.0000
vn -0.0043 0.9891 -0.1474
vn -0.0000 0.9965 -0.0831
vn 0.0000 1.0000 0.0000
vn 0.0000 0.0000 -1.0000
vn 0.9983 -0.0317 -0.0486
usemtl None
s off
f 108/100/102 110/101/102 112/102/102
f 102/103/103 101/104/103 104/105/103
f 103/106/104 100/107/104 105/108/104
f 104/105/105 103/106/105 105/108/105
f 103/106/106 101/104/106 106/109/106
f 100/107/107 103/106/107 106/109/107
f 101/104/108 103/106/108 107/110/108
f 103/106/105 104/105/105 107/110/105
f 104/105/103 101/104/103 107/110/103
f 100/107/109 106/109/109 108/100/109
f 102/103/110 104/105/110 109/111/110
f 104/105/105 105/108/105 109/111/105
f 108/100/111 102/103/111 109/111/111
f 105/108/112 108/100/112 109/111/112
f 101/104/113 102/103/113 110/101/113
f 106/109/106 101/104/106 110/101/106
f 108/100/114 106/109/114 110/101/114
f 105/108/104 100/107/104 111/112/104
f 100/107/109 108/100/109 111/112/109
f 108/100/112 105/108/112 111/112/112
f 102/103/111 108/100/111 112/102/111
f 110/101/113 102/103/113 112/102/113
