#usda 1.0
(
    defaultPrim = "chair_6GGXXC4TDD52APTUL4888888"
    metersPerUnit = 1
    upAxis = "Z"
)

def Xform "chair_6GGXXC4TDD52APTUL4888888"
{
    over "Materials" (
        prepend references = [
            @./Materials/MI_5e13fb1cb1d8ad0001dacb33.usda@,
            @./Materials/MI_627336a9a7755a0001f24681.usda@
        ]
    )
    {
        over "MI_5e13fb1cb1d8ad0001dacb33"
        {
        }

        over "MI_627336a9a7755a0001f24681"
        {
        }
    }

    over "Geom"
    {
        over "body"
        {
            over "mesh_0000" (
                prepend apiSchemas = ["MaterialBindingAPI"]
            )
            {
                rel material:binding = </chair_6GGXXC4TDD52APTUL4888888/Materials/MI_5e13fb1cb1d8ad0001dacb33>
            }

            over "mesh_0001" (
                prepend apiSchemas = ["MaterialBindingAPI"]
            )
            {
                rel material:binding = </chair_6GGXXC4TDD52APTUL4888888/Materials/MI_627336a9a7755a0001f24681>
            }
        }
    }
}

