# Blender v3.3.1 OBJ File: 'mobile-fridge.blend'
# www.blender.org
mtllib Cabinet_inner.mtl
o inner_o78_IndexedFaceSet
v -0.287953 -0.285291 0.156035
v -0.287953 0.299709 0.141035
v -0.287953 -0.300291 0.141035
v 0.278047 -0.300291 0.141035
v -0.287953 -0.300292 1.636035
v 0.278047 -0.300292 1.636035
v -0.287953 0.284708 1.621035
v -0.287953 0.299708 1.636035
v 0.278047 0.299709 0.141035
v -0.287953 0.284709 0.156035
v -0.287953 0.284709 0.521035
v -0.287953 0.284709 0.536035
v 0.278047 0.299708 1.636035
v -0.287953 -0.285291 0.521035
v -0.287953 -0.285291 0.536035
v -0.287953 -0.285292 1.621035
v 0.278047 -0.285291 0.521035
v 0.278047 0.284709 0.156035
v 0.278047 -0.285291 0.156035
v 0.278047 0.284709 0.521035
v 0.278047 0.284709 0.536035
v 0.263047 0.284708 1.621035
v 0.278047 0.284708 1.566035
v 0.263047 0.284708 1.566035
v 0.278047 -0.285291 0.536035
v 0.263047 -0.285292 1.621035
v 0.263047 -0.285292 1.566035
v 0.278047 -0.285292 1.566035
vn -1.0000 -0.0000 0.0000
vn 0.0000 0.0000 -1.0000
vn 0.0000 -1.0000 -0.0000
vn -0.0000 1.0000 0.0000
vn -0.0000 -0.0000 1.0000
vn -1.0000 -0.0003 0.0000
vn 1.0000 0.0000 0.0000
vn 1.0000 0.0001 0.0000
vn 1.0000 0.0005 0.0000
usemtl o78
s off
f 1//1 2//1 3//1
f 4//2 3//2 2//2
f 1//1 3//1 5//1
f 6//3 5//3 3//3
f 6//3 3//3 4//3
f 7//1 8//1 2//1
f 9//4 2//4 8//4
f 10//1 2//1 1//1
f 10//1 11//1 2//1
f 12//1 2//1 11//1
f 7//1 2//1 12//1
f 9//2 4//2 2//2
f 7//1 5//1 8//1
f 13//5 8//5 5//5
f 9//4 8//4 13//4
f 14//1 1//1 5//1
f 15//6 14//6 5//6
f 16//1 15//1 5//1
f 7//1 16//1 5//1
f 13//5 5//5 6//5
f 17//4 1//4 14//4
f 18//5 10//5 1//5
f 18//5 1//5 19//5
f 17//4 19//4 1//4
f 15//1 11//1 14//1
f 17//2 14//2 11//2
f 18//3 11//3 10//3
f 15//1 12//1 11//1
f 20//3 11//3 18//3
f 17//2 11//2 20//2
f 21//5 12//5 15//5
f 22//3 7//3 12//3
f 21//3 23//3 12//3
f 24//3 12//3 23//3
f 24//3 22//3 12//3
f 25//4 15//4 16//4
f 21//5 15//5 25//5
f 26//2 16//2 7//2
f 27//4 25//4 16//4
f 27//4 16//4 26//4
f 22//2 26//2 7//2
f 28//7 6//7 4//7
f 18//7 4//7 9//7
f 18//7 19//7 4//7
f 17//7 4//7 19//7
f 25//8 4//8 17//8
f 25//7 28//7 4//7
f 28//7 13//7 6//7
f 18//7 9//7 13//7
f 20//7 18//7 13//7
f 21//9 20//9 13//9
f 28//7 23//7 13//7
f 21//7 13//7 23//7
f 21//7 17//7 20//7
f 21//7 25//7 17//7
f 24//2 23//2 28//2
f 27//4 28//4 25//4
f 24//2 28//2 27//2
f 22//1 27//1 26//1
f 24//1 27//1 22//1
