# Blender v3.3.1 OBJ File: 'mobile-fridge.blend'
# www.blender.org
mtllib Cover_front.mtl
o front_o87_IndexedFaceSet
v 0.274047 0.322933 0.115035
v 0.274047 -0.322854 0.002034
v 0.274047 -0.322854 0.115034
v 0.274341 -0.323002 0.002034
v 0.274448 -0.322854 0.115835
v 0.274547 -0.322958 0.001327
v 0.275047 -0.323002 0.001335
v 0.274341 -0.322958 0.115534
v 0.274348 -0.323002 0.115034
v 0.274047 0.322934 0.002035
v 0.274448 0.322934 0.001235
v 0.274247 -0.322854 0.001435
v 0.274448 0.323101 0.115035
v 0.274348 0.323083 0.002035
v 0.274340 0.323038 0.001535
v 0.298754 -0.322958 0.001534
v 0.298746 -0.323002 0.002034
v 0.298047 -0.323002 0.001327
v 0.274348 0.322933 0.115750
v 0.274340 0.323038 0.115535
v 0.275047 0.323081 0.115742
v 0.299047 -0.322854 0.115034
v 0.299047 0.322934 0.002035
v 0.299047 0.322933 0.115035
v 0.298754 0.323081 0.002035
v 0.298754 0.322933 0.115742
v 0.298547 0.323081 0.115535
v 0.298847 0.323059 0.115035
v 0.299047 -0.322854 0.002034
v 0.298647 -0.322854 0.001234
v 0.298847 0.322934 0.001436
v 0.298547 0.323038 0.001328
v 0.298754 -0.323002 0.115034
v 0.298047 0.323080 0.115750
v 0.298847 -0.322854 0.115634
v 0.298547 -0.322958 0.115742
v 0.298047 -0.322854 0.001034
v 0.275047 0.322934 0.001035
v 0.298047 0.322934 0.001035
v 0.275047 0.323081 0.001328
v 0.298047 0.323083 0.001336
v 0.275047 -0.322854 0.001034
v 0.275047 0.323143 0.115035
v 0.298047 0.323143 0.115035
v 0.298047 0.323143 0.002035
v 0.275047 0.323143 0.002035
v 0.275047 -0.323063 0.115034
v 0.275047 -0.323002 0.115742
v 0.298047 -0.323002 0.115734
v 0.275047 -0.322854 0.116034
v 0.298047 -0.322854 0.116034
v 0.298047 0.322933 0.116035
v 0.275047 0.322933 0.116035
v 0.275047 -0.323063 0.002034
v 0.298047 -0.323063 0.002034
v 0.298047 -0.323063 0.115034
vn -1.0000 -0.0000 -0.0000
vn -0.4520 -0.8920 -0.0000
vn -0.8941 -0.0000 0.4479
vn -0.0857 -0.9925 -0.0866
vn -0.8401 -0.3420 0.4209
vn -0.4424 -0.8968 0.0000
vn -0.4413 -0.8945 0.0715
vn -0.8940 0.0000 -0.4481
vn -0.9485 0.0002 -0.3167
vn -0.3657 -0.9227 -0.1220
vn -0.4442 -0.8767 -0.1846
vn -0.3850 0.9229 0.0000
vn -0.4449 0.8956 0.0003
vn -0.4437 0.8932 -0.0732
vn 0.0868 -0.9925 -0.0857
vn -0.8406 0.3405 -0.4212
vn -0.9216 -0.0001 0.3881
vn -0.7454 0.5881 0.3139
vn -0.1817 0.8815 0.4357
vn -0.3848 0.9224 0.0327
vn 1.0000 0.0000 0.0000
vn 0.4505 0.8928 0.0000
vn 0.9238 -0.0000 0.3829
vn 0.4431 0.8774 0.1836
vn 0.5308 0.8475 -0.0003
vn 0.5112 0.8159 0.2701
vn 0.8940 0.0000 -0.4481
vn 0.9485 -0.0002 -0.3167
vn 0.3655 0.9228 -0.1221
vn 0.4429 0.8777 -0.1833
vn 0.4519 -0.8921 -0.0000
vn 0.4424 -0.8968 -0.0000
vn 0.4412 -0.8946 -0.0716
vn 0.1863 0.8781 0.4408
vn 0.8403 -0.3414 -0.4212
vn 0.9486 0.0001 0.3166
vn 0.3655 -0.9228 0.1219
vn 0.4442 -0.8767 0.1845
vn 0.0000 0.0000 -1.0000
vn 0.0000 0.8928 -0.4505
vn 0.4481 0.0000 -0.8940
vn 0.0001 0.8955 -0.4451
vn 0.0733 0.8932 -0.4437
vn 0.0879 0.9924 -0.0866
vn 0.4215 0.3406 -0.8404
vn -0.4481 0.0000 -0.8940
vn -0.1834 0.8776 -0.4428
vn -0.3167 -0.0002 -0.9485
vn -0.1220 0.9228 -0.3654
vn 0.0000 -0.8920 -0.4519
vn -0.0002 -0.8968 -0.4424
vn -0.0715 -0.8944 -0.4414
vn -0.0865 0.9924 -0.0880
vn -0.4214 -0.3407 -0.8405
vn 0.1845 -0.8766 -0.4444
vn 0.3167 0.0002 -0.9485
vn 0.1221 -0.9228 -0.3655
vn 0.0000 1.0000 0.0000
vn 0.1043 0.9945 0.0000
vn 0.0000 0.9964 -0.0848
vn 0.0860 0.9927 -0.0845
vn 0.0863 0.9963 0.0001
vn 0.0000 0.9963 0.0864
vn -0.0861 -0.9926 0.0852
vn 0.1042 0.9944 0.0175
vn 0.0000 0.9961 0.0877
vn 0.0343 0.9956 0.0876
vn -0.0849 0.9964 0.0000
vn -0.0860 0.9926 0.0860
vn -0.0696 0.9976 -0.0001
vn -0.0692 0.9916 0.1096
vn -0.0000 0.9963 -0.0863
vn -0.0846 0.9927 -0.0861
vn 0.0000 -0.9963 0.0855
vn 0.0000 -0.0000 1.0000
vn 0.4478 -0.0000 0.8942
vn 0.0000 0.8900 0.4560
vn 0.3828 -0.0001 0.9238
vn 0.1857 0.8745 0.4481
vn 0.0000 -0.8919 0.4522
vn -0.0852 -0.9926 -0.0862
vn 0.4210 -0.3422 0.8400
vn 0.0001 -0.8966 0.4429
vn 0.0717 -0.8942 0.4419
vn -0.3778 -0.0000 0.9259
vn -0.3160 0.0001 0.9488
vn -0.1215 -0.9231 0.3647
vn -0.1846 -0.8766 0.4445
vn -0.1809 0.8780 0.4431
vn -0.0868 -0.9925 0.0857
vn -0.0001 0.8927 0.4507
vn 0.0000 -1.0000 -0.0000
vn 0.0864 -0.9963 0.0000
vn 0.0000 -0.9963 0.0863
vn 0.0852 -0.9926 0.0861
vn 0.0858 -0.9925 0.0867
vn 0.0855 -0.9963 -0.0000
vn 0.0000 -0.9963 -0.0864
vn 0.0861 -0.9926 -0.0852
vn -0.0855 -0.9963 0.0000
vn -0.0000 -0.9963 -0.0855
vn -0.0864 -0.9963 -0.0000
usemtl o87
s off
f 1//1 2//1 3//1
f 4//2 3//2 2//2
f 5//3 1//3 3//3
f 6//4 7//4 4//4
f 8//5 5//5 3//5
f 9//6 3//6 4//6
f 8//7 3//7 9//7
f 1//1 10//1 2//1
f 11//8 2//8 10//8
f 11//9 12//9 2//9
f 6//10 2//10 12//10
f 6//11 4//11 2//11
f 13//12 10//12 1//12
f 13//13 14//13 10//13
f 15//14 10//14 14//14
f 16//15 17//15 18//15
f 15//16 11//16 10//16
f 5//17 19//17 1//17
f 20//18 1//18 19//18
f 20//19 19//19 21//19
f 20//20 13//20 1//20
f 22//21 23//21 24//21
f 25//22 24//22 23//22
f 26//23 22//23 24//23
f 27//24 26//24 24//24
f 28//25 24//25 25//25
f 27//26 24//26 28//26
f 22//21 29//21 23//21
f 30//27 23//27 29//27
f 31//28 23//28 30//28
f 32//29 23//29 31//29
f 32//30 25//30 23//30
f 33//31 29//31 22//31
f 33//32 17//32 29//32
f 16//33 29//33 17//33
f 27//34 34//34 26//34
f 16//35 30//35 29//35
f 35//36 22//36 26//36
f 36//37 22//37 35//37
f 36//38 33//38 22//38
f 37//39 38//39 39//39
f 40//40 39//40 38//40
f 31//41 37//41 39//41
f 41//42 39//42 40//42
f 32//43 39//43 41//43
f 32//44 41//44 25//44
f 32//45 31//45 39//45
f 37//39 42//39 38//39
f 12//46 38//46 42//46
f 15//47 40//47 38//47
f 11//48 38//48 12//48
f 15//49 38//49 11//49
f 18//50 42//50 37//50
f 18//51 7//51 42//51
f 6//52 42//52 7//52
f 15//53 14//53 40//53
f 6//54 12//54 42//54
f 16//55 18//55 37//55
f 31//56 30//56 37//56
f 16//57 37//57 30//57
f 43//58 44//58 45//58
f 28//59 45//59 44//59
f 46//58 43//58 45//58
f 41//60 46//60 45//60
f 25//61 41//61 45//61
f 28//62 25//62 45//62
f 21//63 44//63 43//63
f 9//64 47//64 48//64
f 27//65 28//65 44//65
f 21//66 34//66 44//66
f 27//67 44//67 34//67
f 14//68 43//68 46//68
f 20//69 21//69 43//69
f 13//70 43//70 14//70
f 20//71 43//71 13//71
f 41//72 40//72 46//72
f 14//73 46//73 40//73
f 49//74 48//74 47//74
f 50//75 51//75 52//75
f 35//76 52//76 51//76
f 53//75 50//75 52//75
f 34//77 53//77 52//77
f 35//78 26//78 52//78
f 34//79 52//79 26//79
f 48//80 51//80 50//80
f 4//81 7//81 54//81
f 36//82 35//82 51//82
f 49//83 51//83 48//83
f 36//84 51//84 49//84
f 19//85 50//85 53//85
f 5//86 50//86 19//86
f 8//87 50//87 5//87
f 8//88 48//88 50//88
f 21//89 19//89 53//89
f 8//90 9//90 48//90
f 21//91 53//91 34//91
f 54//92 55//92 56//92
f 17//93 56//93 55//93
f 47//92 54//92 56//92
f 49//94 47//94 56//94
f 33//95 49//95 56//95
f 36//96 49//96 33//96
f 33//97 56//97 17//97
f 7//98 55//98 54//98
f 18//99 17//99 55//99
f 9//100 4//100 54//100
f 18//101 55//101 7//101
f 9//102 54//102 47//102
