# Blender v3.3.1 OBJ File: 'mobile-fridge.blend'
# www.blender.org
mtllib Cover_left.mtl
o left.001_o89_IndexedFaceSet
v 0.273048 -0.324522 0.002033
v -0.296952 -0.324522 0.115033
v -0.296952 -0.324522 0.002033
v -0.297659 -0.324232 0.115033
v -0.296952 -0.324222 0.001317
v -0.296952 -0.324122 0.001231
v -0.297452 -0.324232 0.001533
v -0.297668 -0.324222 0.002033
v 0.273048 -0.324522 0.115033
v 0.273048 -0.324222 0.115749
v -0.296952 -0.324322 0.115631
v -0.297452 -0.324022 0.115740
v 0.273764 -0.324222 0.002033
v 0.273764 -0.324222 0.115033
v 0.273548 -0.324232 0.115533
v 0.273048 -0.324122 0.115835
v 0.273048 -0.324222 0.001317
v 0.273548 -0.324232 0.001533
v 0.273850 -0.324122 0.002033
v -0.296952 -0.299522 0.002033
v 0.273048 -0.299522 0.115033
v 0.273048 -0.299522 0.002033
v 0.273755 -0.299812 0.115033
v 0.273048 -0.299812 0.001326
v 0.273755 -0.300022 0.001533
v 0.273646 -0.299722 0.002033
v -0.296952 -0.299522 0.115033
v -0.296952 -0.299822 0.115749
v 0.273048 -0.299722 0.115631
v 0.273548 -0.300022 0.115740
v -0.297659 -0.299812 0.002033
v -0.297668 -0.299822 0.115033
v -0.297452 -0.299812 0.115533
v -0.296952 -0.299922 0.115835
v -0.296952 -0.299722 0.001435
v -0.297452 -0.300022 0.001326
v -0.296952 -0.300522 0.116033
v 0.273048 -0.323522 0.116033
v 0.273048 -0.300522 0.116033
v 0.273755 -0.323522 0.115740
v 0.273048 -0.299802 0.115732
v 0.273764 -0.300522 0.115732
v -0.296952 -0.323522 0.116033
v -0.296952 -0.324242 0.115732
v -0.297659 -0.300522 0.115740
v -0.297668 -0.323522 0.115732
v 0.274048 -0.323522 0.002033
v 0.274048 -0.300522 0.002033
v 0.274048 -0.300522 0.115033
v 0.273746 -0.299802 0.002033
v 0.274048 -0.323522 0.115033
v 0.273850 -0.300522 0.115631
v 0.273755 -0.323522 0.001326
v 0.273746 -0.300522 0.001317
v 0.273850 -0.324122 0.115033
v -0.296952 -0.323522 0.001033
v -0.296952 -0.300522 0.001033
v 0.273048 -0.300522 0.001033
v -0.296952 -0.299802 0.001335
v 0.273048 -0.323522 0.001033
v 0.273646 -0.300522 0.001231
v -0.297659 -0.323522 0.001326
v -0.297668 -0.300522 0.001335
v 0.273048 -0.324122 0.001231
v -0.297952 -0.323522 0.115033
v -0.297952 -0.300522 0.115033
v -0.297952 -0.300522 0.002033
v -0.297754 -0.299922 0.115033
v -0.297952 -0.323522 0.002033
v -0.297754 -0.300522 0.001435
v -0.297754 -0.323522 0.115631
v -0.297754 -0.324122 0.002033
vn 0.0000 -1.0000 -0.0000
vn -0.3795 -0.9252 -0.0000
vn 0.0000 -0.9223 -0.3865
vn -1.0000 0.0000 0.0000
vn -0.0727 -0.8926 -0.4450
vn -0.3866 -0.9222 -0.0001
vn -0.3824 -0.9123 -0.1467
vn 0.0000 -0.9223 0.3865
vn 0.0001 -0.9484 0.3171
vn -0.4471 -0.8483 0.2837
vn -0.3541 -0.8632 0.3600
vn 0.3865 -0.9223 -0.0000
vn 0.3823 -0.9123 0.1469
vn 1.0000 0.0000 0.0000
vn 0.0724 -0.8925 0.4452
vn 0.1469 -0.9123 -0.3823
vn 0.0000 0.0000 -1.0000
vn 0.4450 -0.8925 -0.0728
vn -0.0000 1.0000 0.0000
vn 0.3795 0.9252 0.0000
vn -0.0000 0.9252 -0.3796
vn 0.3600 0.8631 -0.3541
vn 0.3171 0.9484 0.0005
vn 0.2836 0.8483 -0.4472
vn -0.0000 0.9222 0.3866
vn -0.0001 0.9484 0.3171
vn 0.4471 0.8483 0.2837
vn 0.3541 0.8632 0.3599
vn -0.3795 0.9252 0.0000
vn -0.3866 0.9222 0.0001
vn -0.3824 0.9123 0.1468
vn -0.0725 0.8925 0.4452
vn 0.0001 0.9484 -0.3170
vn -0.4472 0.8483 -0.2835
vn -0.3541 0.8631 -0.3601
vn -0.0000 -0.0000 1.0000
vn 0.3828 0.0000 0.9238
vn -0.0000 0.3865 0.9223
vn 0.3883 0.0002 0.9215
vn 0.3839 0.1498 0.9111
vn 1.0000 0.0003 0.0000
vn 0.0741 0.4478 0.8911
vn 0.0000 -0.3865 0.9223
vn 0.3576 -0.3561 0.8633
vn -0.0001 -0.3139 0.9495
vn 0.4499 -0.2803 0.8480
vn -0.3827 -0.0000 0.9239
vn -0.3884 -0.0002 0.9215
vn -0.3841 -0.1497 0.9111
vn -0.0742 -0.4478 0.8910
vn -0.3576 0.3561 0.8633
vn 0.0001 0.3139 0.9494
vn -0.4499 0.2804 0.8479
vn 0.9222 0.3867 0.0000
vn 0.9493 -0.0000 0.3143
vn 0.8839 0.3648 0.2927
vn 0.9244 0.3815 -0.0000
vn 0.9238 0.0000 -0.3829
vn 0.8911 0.4477 -0.0745
vn 0.9214 0.0002 -0.3886
vn 0.9110 0.1498 -0.3842
vn 0.9496 -0.3133 -0.0000
vn 0.8633 -0.3559 -0.3578
vn 0.9497 -0.3132 -0.0000
vn 0.8478 -0.2797 -0.4506
vn 0.9238 -0.0002 0.3828
vn 0.8837 -0.2915 0.3662
vn 0.7593 -0.0104 0.6506
vn -0.0000 0.3868 -0.9222
vn 0.3143 0.0000 -0.9493
vn -0.0000 0.3815 -0.9244
vn 0.2926 0.3648 -0.8839
vn -0.3828 -0.0000 -0.9238
vn -0.0744 0.4477 -0.8911
vn -0.3887 0.0002 -0.9213
vn -0.3844 0.1495 -0.9110
vn 0.0000 -0.3133 -0.9497
vn 0.0000 -0.3133 -0.9496
vn -0.4506 -0.2797 -0.8478
vn -0.3577 -0.3560 -0.8633
vn 0.3662 -0.2915 -0.8837
vn 0.6521 -0.0104 -0.7581
vn 0.3829 -0.0002 -0.9238
vn -0.9494 0.3141 0.0000
vn -0.9491 -0.0000 -0.3150
vn -0.8838 0.3646 -0.2933
vn -0.7588 0.6513 -0.0021
vn -0.9244 0.3815 -0.0000
vn -0.9491 -0.0000 0.3150
vn -0.8835 0.2922 0.3660
vn -0.7602 0.0103 0.6496
vn -0.9239 0.0002 0.3827
vn -0.9494 -0.3141 0.0000
vn -0.8838 -0.3646 0.2933
vn -0.9244 -0.3815 0.0000
vn -0.7587 -0.6514 0.0021
vn -0.9238 -0.0002 -0.3828
vn -0.8835 -0.2922 -0.3661
vn -0.7589 -0.0104 -0.6512
vn 0.8303 -0.3649 0.4213
vn 0.7241 0.3019 0.6201
vn 0.8294 0.4206 0.3677
vn 0.0000 0.7805 -0.6252
vn 0.3677 0.4207 -0.8293
vn 0.0000 -0.6524 -0.7579
vn 0.2999 -0.6226 -0.7228
vn 0.0000 -0.6530 -0.7574
vn 0.4213 -0.3649 -0.8303
vn -0.8305 -0.3650 -0.4207
vn -0.7237 0.3011 -0.6210
vn -0.8296 0.4202 -0.3678
vn -0.7236 0.6217 0.2998
vn -0.8305 0.3650 0.4207
vn -0.7247 -0.3019 0.6194
vn -0.8296 -0.4201 0.3677
vn 0.0000 0.6517 0.7585
vn -0.0000 0.7817 0.6237
vn 0.6250 0.7806 0.0000
vn 0.6218 0.3013 -0.7229
vn 0.7577 -0.6526 -0.0000
vn 0.7230 -0.6224 0.2998
vn 0.0000 -0.7817 0.6236
vn -0.0000 -0.6516 0.7585
vn -0.7235 -0.6218 -0.2998
usemtl o89
s off
f 1//1 2//1 3//1
f 4//2 3//2 2//2
f 5//3 1//3 3//3
f 5//4 3//4 6//4
f 7//5 6//5 3//5
f 8//6 3//6 4//6
f 7//7 3//7 8//7
f 1//1 9//1 2//1
f 10//8 2//8 9//8
f 10//9 11//9 2//9
f 12//10 2//10 11//10
f 12//11 4//11 2//11
f 13//12 9//12 1//12
f 13//12 14//12 9//12
f 15//13 9//13 14//13
f 10//14 9//14 16//14
f 15//15 16//15 9//15
f 5//3 17//3 1//3
f 18//16 1//16 17//16
f 13//17 1//17 19//17
f 18//18 19//18 1//18
f 20//19 21//19 22//19
f 23//20 22//20 21//20
f 24//21 20//21 22//21
f 25//22 24//22 22//22
f 26//23 22//23 23//23
f 25//24 22//24 26//24
f 20//19 27//19 21//19
f 28//25 21//25 27//25
f 29//26 21//26 28//26
f 30//27 21//27 29//27
f 30//28 23//28 21//28
f 31//29 27//29 20//29
f 31//30 32//30 27//30
f 33//31 27//31 32//31
f 28//4 27//4 34//4
f 33//32 34//32 27//32
f 35//33 20//33 24//33
f 36//34 20//34 35//34
f 36//35 31//35 20//35
f 37//36 38//36 39//36
f 40//37 39//37 38//37
f 41//38 37//38 39//38
f 42//39 39//39 40//39
f 30//40 39//40 42//40
f 41//41 39//41 29//41
f 30//42 29//42 39//42
f 37//36 43//36 38//36
f 44//43 38//43 43//43
f 15//44 40//44 38//44
f 16//45 38//45 44//45
f 15//46 38//46 16//46
f 45//47 43//47 37//47
f 45//48 46//48 43//48
f 12//49 43//49 46//49
f 44//4 43//4 11//4
f 12//50 11//50 43//50
f 33//51 45//51 37//51
f 41//52 34//52 37//52
f 33//53 37//53 34//53
f 47//14 48//14 49//14
f 50//54 49//54 48//54
f 51//14 47//14 49//14
f 52//55 51//55 49//55
f 23//56 52//56 49//56
f 50//57 23//57 49//57
f 53//58 48//58 47//58
f 50//17 48//17 26//17
f 25//59 26//59 48//59
f 53//60 54//60 48//60
f 25//61 48//61 54//61
f 55//62 47//62 51//62
f 18//63 53//63 47//63
f 19//64 47//64 55//64
f 18//65 47//65 19//65
f 42//66 40//66 51//66
f 55//67 51//67 40//67
f 52//68 42//68 51//68
f 56//17 57//17 58//17
f 59//69 58//69 57//69
f 60//17 56//17 58//17
f 61//70 60//70 58//70
f 59//71 24//71 58//71
f 61//72 58//72 24//72
f 62//73 57//73 56//73
f 59//4 57//4 35//4
f 36//74 35//74 57//74
f 63//75 57//75 62//75
f 36//76 57//76 63//76
f 64//77 56//77 60//77
f 6//78 56//78 64//78
f 7//79 56//79 6//79
f 7//80 62//80 56//80
f 53//81 64//81 60//81
f 61//82 54//82 60//82
f 53//83 60//83 54//83
f 65//4 66//4 67//4
f 68//84 67//84 66//84
f 69//4 65//4 67//4
f 70//85 69//85 67//85
f 31//86 70//86 67//86
f 68//87 32//87 67//87
f 31//88 67//88 32//88
f 71//89 66//89 65//89
f 45//90 68//90 66//90
f 71//91 46//91 66//91
f 45//92 66//92 46//92
f 72//93 65//93 69//93
f 4//94 71//94 65//94
f 8//95 4//95 65//95
f 72//96 8//96 65//96
f 63//97 62//97 69//97
f 72//98 69//98 62//98
f 70//99 63//99 69//99
f 15//100 55//100 40//100
f 30//101 42//101 52//101
f 30//102 52//102 23//102
f 59//103 35//103 24//103
f 25//104 61//104 24//104
f 6//105 64//105 17//105
f 18//106 17//106 64//106
f 5//107 6//107 17//107
f 18//108 64//108 53//108
f 7//109 72//109 62//109
f 36//110 63//110 70//110
f 36//111 70//111 31//111
f 33//112 32//112 68//112
f 33//113 68//113 45//113
f 12//114 46//114 71//114
f 12//115 71//115 4//115
f 41//116 28//116 34//116
f 41//117 29//117 28//117
f 50//118 26//118 23//118
f 25//119 54//119 61//119
f 19//120 55//120 14//120
f 15//121 14//121 55//121
f 13//120 19//120 14//120
f 10//122 44//122 11//122
f 10//123 16//123 44//123
f 7//124 8//124 72//124
