# Blender v3.3.1 OBJ File: 'mobile-fridge.blend'
# www.blender.org
mtllib Cover_back.mtl
o back.001_o119_IndexedFaceSet
v -0.267953 -0.299003 0.115034
v -0.267953 0.295229 0.002034
v -0.267953 0.295229 0.115034
v -0.268246 0.295368 0.002034
v -0.268353 0.295229 0.115835
v -0.268453 0.295327 0.001327
v -0.268953 0.295369 0.001335
v -0.268246 0.295327 0.115534
v -0.268253 0.295369 0.115034
v -0.267953 -0.299003 0.002034
v -0.268353 -0.299003 0.001234
v -0.268152 0.295229 0.001435
v -0.268353 -0.299159 0.115034
v -0.268253 -0.299142 0.002034
v -0.268245 -0.299101 0.001534
v -0.292660 0.295327 0.001534
v -0.292652 0.295369 0.002034
v -0.291953 0.295368 0.001327
v -0.268253 -0.299003 0.115749
v -0.268245 -0.299101 0.115534
v -0.268953 -0.299142 0.115741
v -0.292953 0.295229 0.115034
v -0.292953 -0.299003 0.002034
v -0.292953 -0.299003 0.115034
v -0.292660 -0.299142 0.002034
v -0.292660 -0.299003 0.115741
v -0.292453 -0.299142 0.115534
v -0.292753 -0.299120 0.115034
v -0.292953 0.295229 0.002034
v -0.292552 0.295229 0.001234
v -0.292753 -0.299003 0.001435
v -0.292453 -0.299101 0.001327
v -0.292660 0.295368 0.115034
v -0.291953 -0.299140 0.115749
v -0.292753 0.295229 0.115634
v -0.292453 0.295327 0.115741
v -0.291953 0.295229 0.001034
v -0.268953 -0.299003 0.001034
v -0.291953 -0.299003 0.001034
v -0.268953 -0.299142 0.001327
v -0.291953 -0.299142 0.001335
v -0.268953 0.295229 0.001034
v -0.268953 -0.299198 0.115034
v -0.291953 -0.299198 0.115034
v -0.291953 -0.299198 0.002034
v -0.268953 -0.299198 0.002034
v -0.268953 0.295425 0.115034
v -0.268953 0.295368 0.115741
v -0.291953 0.295369 0.115734
v -0.268953 0.295229 0.116034
v -0.291953 0.295229 0.116034
v -0.291953 -0.299003 0.116034
v -0.268953 -0.299003 0.116034
v -0.268953 0.295425 0.002034
v -0.291953 0.295425 0.002034
v -0.291953 0.295425 0.115034
vn 1.0000 0.0000 0.0000
vn 0.4270 0.9043 0.0000
vn 0.8943 -0.0000 0.4475
vn 0.0822 0.9933 -0.0809
vn 0.8331 0.3635 0.4169
vn 0.4219 0.9067 0.0000
vn 0.4208 0.9045 0.0695
vn 0.8942 0.0000 -0.4478
vn 0.9488 -0.0002 -0.3160
vn 0.3445 0.9317 -0.1148
vn 0.4204 0.8905 -0.1741
vn 0.3639 -0.9314 0.0000
vn 0.4194 -0.9078 0.0002
vn 0.4185 -0.9057 -0.0680
vn -0.0809 0.9933 -0.0822
vn 0.8334 -0.3623 -0.4174
vn 0.9218 0.0001 0.3877
vn 0.7273 -0.6143 0.3059
vn 0.1730 -0.8940 0.4133
vn 0.3637 -0.9310 0.0308
vn -1.0000 -0.0000 -0.0000
vn -0.4285 -0.9036 -0.0000
vn -0.9239 -0.0000 0.3827
vn -0.4219 -0.8897 0.1748
vn -0.5071 -0.8619 -0.0003
vn -0.4899 -0.8326 0.2584
vn -0.8941 0.0000 -0.4478
vn -0.9487 0.0002 -0.3160
vn -0.3445 -0.9318 -0.1147
vn -0.4218 -0.8896 -0.1753
vn -0.4270 0.9043 0.0000
vn -0.4217 0.9067 -0.0000
vn -0.4207 0.9045 -0.0694
vn -0.1769 -0.8901 0.4200
vn -0.8335 0.3621 -0.4174
vn -0.9488 -0.0001 0.3158
vn -0.3445 0.9318 0.1147
vn -0.4204 0.8905 0.1741
vn 0.0000 0.0000 -1.0000
vn 0.0000 -0.9036 -0.4283
vn -0.4479 0.0000 -0.8941
vn -0.0001 -0.9080 -0.4190
vn -0.0677 -0.9059 -0.4180
vn -0.0803 -0.9935 -0.0813
vn -0.4174 -0.3626 -0.8332
vn 0.4479 0.0000 -0.8941
vn 0.1751 -0.8897 -0.4217
vn 0.3165 0.0002 -0.9486
vn 0.1151 -0.9315 -0.3450
vn 0.0000 0.9043 -0.4268
vn 0.0001 0.9069 -0.4213
vn 0.0693 0.9047 -0.4203
vn 0.0812 -0.9935 -0.0804
vn 0.4174 0.3623 -0.8334
vn -0.1740 0.8905 -0.4204
vn -0.3165 -0.0002 -0.9486
vn -0.1151 0.9315 -0.3450
vn 0.0000 -1.0000 -0.0000
vn -0.0973 -0.9953 -0.0000
vn 0.0000 -0.9967 -0.0809
vn -0.0797 -0.9935 -0.0807
vn -0.0800 -0.9968 0.0001
vn 0.0000 -0.9968 0.0800
vn 0.0792 0.9936 0.0806
vn -0.0973 -0.9951 0.0156
vn -0.0001 -0.9966 0.0819
vn -0.0312 -0.9962 0.0818
vn 0.0809 -0.9967 -0.0000
vn 0.0811 -0.9935 0.0798
vn 0.0651 -0.9979 -0.0001
vn 0.0648 -0.9926 0.1025
vn -0.0000 -0.9968 -0.0800
vn 0.0806 -0.9935 -0.0798
vn 0.0000 0.9967 0.0809
vn 0.0000 -0.0000 1.0000
vn -0.4475 -0.0000 0.8943
vn 0.0000 -0.9015 0.4329
vn -0.3827 0.0001 0.9239
vn -0.1764 -0.8873 0.4260
vn 0.0000 0.9043 0.4269
vn 0.0805 0.9936 -0.0793
vn -0.4169 0.3637 0.8330
vn -0.0001 0.9067 0.4218
vn -0.0695 0.9045 0.4207
vn 0.3776 -0.0000 0.9260
vn 0.3158 -0.0001 0.9488
vn 0.1146 0.9318 0.3443
vn 0.1741 0.8905 0.4204
vn 0.1721 -0.8901 0.4220
vn 0.0809 0.9933 0.0822
vn 0.0001 -0.9036 0.4284
vn 0.0000 1.0000 0.0000
vn -0.0795 0.9968 0.0000
vn 0.0000 0.9968 0.0794
vn -0.0805 0.9936 0.0792
vn -0.0822 0.9933 0.0810
vn -0.0808 0.9967 0.0000
vn 0.0000 0.9968 -0.0795
vn -0.0792 0.9936 -0.0806
vn 0.0808 0.9967 -0.0000
vn -0.0000 0.9967 -0.0808
vn 0.0795 0.9968 0.0000
usemtl o119
s off
f 1//1 2//1 3//1
f 4//2 3//2 2//2
f 5//3 1//3 3//3
f 6//4 7//4 4//4
f 8//5 5//5 3//5
f 9//6 3//6 4//6
f 8//7 3//7 9//7
f 1//1 10//1 2//1
f 11//8 2//8 10//8
f 11//9 12//9 2//9
f 6//10 2//10 12//10
f 6//11 4//11 2//11
f 13//12 10//12 1//12
f 13//13 14//13 10//13
f 15//14 10//14 14//14
f 16//15 17//15 18//15
f 15//16 11//16 10//16
f 5//17 19//17 1//17
f 20//18 1//18 19//18
f 20//19 19//19 21//19
f 20//20 13//20 1//20
f 22//21 23//21 24//21
f 25//22 24//22 23//22
f 26//23 22//23 24//23
f 27//24 26//24 24//24
f 28//25 24//25 25//25
f 27//26 24//26 28//26
f 22//21 29//21 23//21
f 30//27 23//27 29//27
f 31//28 23//28 30//28
f 32//29 23//29 31//29
f 32//30 25//30 23//30
f 33//31 29//31 22//31
f 33//32 17//32 29//32
f 16//33 29//33 17//33
f 27//34 34//34 26//34
f 16//35 30//35 29//35
f 35//36 22//36 26//36
f 36//37 22//37 35//37
f 36//38 33//38 22//38
f 37//39 38//39 39//39
f 40//40 39//40 38//40
f 31//41 37//41 39//41
f 41//42 39//42 40//42
f 32//43 39//43 41//43
f 32//44 41//44 25//44
f 32//45 31//45 39//45
f 37//39 42//39 38//39
f 12//46 38//46 42//46
f 15//47 40//47 38//47
f 11//48 38//48 12//48
f 15//49 38//49 11//49
f 18//50 42//50 37//50
f 18//51 7//51 42//51
f 6//52 42//52 7//52
f 15//53 14//53 40//53
f 6//54 12//54 42//54
f 16//55 18//55 37//55
f 31//56 30//56 37//56
f 16//57 37//57 30//57
f 43//58 44//58 45//58
f 28//59 45//59 44//59
f 46//58 43//58 45//58
f 41//60 46//60 45//60
f 25//61 41//61 45//61
f 28//62 25//62 45//62
f 21//63 44//63 43//63
f 9//64 47//64 48//64
f 27//65 28//65 44//65
f 21//66 34//66 44//66
f 27//67 44//67 34//67
f 14//68 43//68 46//68
f 20//69 21//69 43//69
f 13//70 43//70 14//70
f 20//71 43//71 13//71
f 41//72 40//72 46//72
f 14//73 46//73 40//73
f 49//74 48//74 47//74
f 50//75 51//75 52//75
f 35//76 52//76 51//76
f 53//75 50//75 52//75
f 34//77 53//77 52//77
f 35//78 26//78 52//78
f 34//79 52//79 26//79
f 48//80 51//80 50//80
f 4//81 7//81 54//81
f 36//82 35//82 51//82
f 49//83 51//83 48//83
f 36//84 51//84 49//84
f 19//85 50//85 53//85
f 5//86 50//86 19//86
f 8//87 50//87 5//87
f 8//88 48//88 50//88
f 21//89 19//89 53//89
f 8//90 9//90 48//90
f 21//91 53//91 34//91
f 54//92 55//92 56//92
f 17//93 56//93 55//93
f 47//92 54//92 56//92
f 49//94 47//94 56//94
f 33//95 49//95 56//95
f 36//96 49//96 33//96
f 33//97 56//97 17//97
f 7//98 55//98 54//98
f 18//99 17//99 55//99
f 9//100 4//100 54//100
f 18//101 55//101 7//101
f 9//102 54//102 47//102
