# Blender v3.3.1 OBJ File: 'mobile-fridge.blend'
# www.blender.org
mtllib SwingDoor_door.mtl
o door_o115_IndexedFaceSet
v 0.279047 -0.297291 0.143035
v 0.279047 0.297709 0.528035
v 0.279047 0.297709 0.143035
v 0.294047 0.297709 0.143035
v 0.294047 -0.297291 0.143035
v 0.279047 -0.297291 0.528035
v 0.294047 0.297709 0.528035
v 0.294047 -0.297291 0.528035
v 0.297047 0.294709 0.146035
v 0.297047 0.294709 0.525035
v 0.297047 -0.294291 0.525035
v 0.296748 0.296015 0.526341
v 0.297047 -0.294291 0.146035
v 0.296748 -0.295598 0.526341
v 0.296748 0.296015 0.144729
v 0.296748 -0.295597 0.144728
v 0.295777 0.297160 0.527486
v 0.295777 0.297160 0.143584
v 0.295777 -0.296742 0.527486
v 0.295777 -0.296742 0.143584
vn -1.0000 -0.0000 -0.0000
vn 0.0000 1.0000 0.0000
vn 0.0000 0.0000 -1.0000
vn 0.0000 -0.0000 1.0000
vn 0.0000 -1.0000 -0.0000
vn 1.0000 0.0000 0.0000
vn 0.9748 -0.0000 0.2232
vn 0.9748 -0.2231 -0.0000
vn 0.9748 0.2231 0.0000
vn 0.9748 0.2232 0.0000
vn 0.9748 0.0000 -0.2231
vn 0.9748 -0.2232 -0.0000
vn 0.3025 0.9532 0.0000
vn 0.3026 0.0000 -0.9531
vn 0.3025 -0.0000 0.9531
vn 0.3025 -0.0000 0.9532
vn 0.3026 -0.9531 -0.0000
vn 0.7625 -0.6470 -0.0000
vn 0.7627 -0.0000 0.6468
vn 0.7625 -0.6469 -0.0000
vn 0.7627 -0.0000 0.6467
vn 0.7625 0.0000 -0.6470
vn 0.7626 0.6468 0.0000
vn 0.7627 0.6468 0.0000
usemtl o115
s off
f 1//1 2//1 3//1
f 4//2 3//2 2//2
f 5//3 1//3 3//3
f 5//3 3//3 4//3
f 1//1 6//1 2//1
f 7//4 2//4 6//4
f 7//2 4//2 2//2
f 8//5 6//5 1//5
f 8//4 7//4 6//4
f 5//5 8//5 1//5
f 9//6 10//6 11//6
f 12//7 11//7 10//7
f 13//6 9//6 11//6
f 14//8 13//8 11//8
f 12//7 14//7 11//7
f 15//9 10//9 9//9
f 12//10 10//10 15//10
f 16//11 9//11 13//11
f 15//11 9//11 16//11
f 16//12 13//12 14//12
f 17//13 4//13 7//13
f 18//14 5//14 4//14
f 17//13 18//13 4//13
f 19//15 7//15 8//15
f 17//16 7//16 19//16
f 20//17 8//17 5//17
f 20//17 19//17 8//17
f 18//14 20//14 5//14
f 16//18 14//18 19//18
f 17//19 19//19 14//19
f 20//20 16//20 19//20
f 17//21 14//21 12//21
f 15//22 16//22 20//22
f 18//22 15//22 20//22
f 12//23 15//23 18//23
f 17//24 12//24 18//24
