#usda 1.0
(
    defaultPrim = "sofa_ZT7PS4BVAXRHQPTULQ888888"
    metersPerUnit = 1
    upAxis = "Z"
)

def Xform "sofa_ZT7PS4BVAXRHQPTULQ888888"
{
    over "Materials" (
        prepend references = [
            @./Materials/MI_60c06296d849e100017b5f27.usda@,
            @./Materials/MI_6123a2596199ee0001bf7406.usda@
        ]
    )
    {
        over "MI_6123a2596199ee0001bf7406"
        {
        }

        over "MI_60c06296d849e100017b5f27"
        {
        }
    }

    over "Geom"
    {
        over "body"
        {
            over "mesh_0000" (
                prepend apiSchemas = ["MaterialBindingAPI"]
            )
            {
                rel material:binding = </sofa_ZT7PS4BVAXRHQPTULQ888888/Materials/MI_6123a2596199ee0001bf7406>
            }

            over "mesh_0001" (
                prepend apiSchemas = ["MaterialBindingAPI"]
            )
            {
                rel material:binding = </sofa_ZT7PS4BVAXRHQPTULQ888888/Materials/MI_6123a2596199ee0001bf7406>
            }

            over "mesh_0002" (
                prepend apiSchemas = ["MaterialBindingAPI"]
            )
            {
                rel material:binding = </sofa_ZT7PS4BVAXRHQPTULQ888888/Materials/MI_6123a2596199ee0001bf7406>
            }

            over "mesh_0003" (
                prepend apiSchemas = ["MaterialBindingAPI"]
            )
            {
                rel material:binding = </sofa_ZT7PS4BVAXRHQPTULQ888888/Materials/MI_6123a2596199ee0001bf7406>
            }

            over "mesh_0004" (
                prepend apiSchemas = ["MaterialBindingAPI"]
            )
            {
                rel material:binding = </sofa_ZT7PS4BVAXRHQPTULQ888888/Materials/MI_60c06296d849e100017b5f27>
            }

            over "mesh_0005" (
                prepend apiSchemas = ["MaterialBindingAPI"]
            )
            {
                rel material:binding = </sofa_ZT7PS4BVAXRHQPTULQ888888/Materials/MI_6123a2596199ee0001bf7406>
            }
        }
    }
}

