# Blender v2.78 (sub 0) OBJ File: ''
# www.blender.org
mtllib Drawer_80_14.mtl
o Shape_IndexedFaceSet_Shape_IndexedFaceSet.105
v -0.282708 -0.322969 0.045677
v 0.252708 -0.328494 0.045677
v -0.255088 -0.322969 0.045677
v -0.282708 -0.350573 -0.048177
v -0.282708 -0.350573 0.045677
v -0.282708 -0.322969 -0.048177
v 0.252708 -0.350573 -0.048177
v 0.252708 -0.322969 -0.020570
v 0.252708 -0.350573 0.045677
v 0.252708 -0.322969 -0.048177
v -0.282708 0.322969 0.045677
v 0.252708 0.322969 -0.020570
v -0.255088 0.322969 0.045677
v -0.282708 0.322969 -0.048177
v -0.282708 0.350573 -0.048177
v 0.252708 0.322969 -0.048177
v 0.252708 0.328494 0.045677
v 0.252708 0.350573 0.045677
v 0.252708 0.350573 -0.048177
v -0.282708 0.350573 0.045677
v 0.258286 -0.400260 0.067760
v 0.252760 0.350502 0.045658
v 0.252760 -0.350502 0.045658
v 0.258286 0.400260 0.067760
v 0.280362 0.400260 0.067760
v 0.280362 0.400260 -0.070260
v 0.280365 -0.400260 0.067760
v 0.280365 -0.400260 -0.070260
v 0.258286 0.400260 -0.070260
v 0.252760 -0.350502 -0.048171
v 0.258286 -0.400260 -0.070260
v 0.252760 0.350502 -0.048171
v -0.255163 -0.322906 0.045677
v -0.249635 -0.322906 -0.048177
v -0.249635 -0.322906 -0.020570
v -0.249635 0.322906 -0.020570
v -0.255163 0.322906 0.045677
v -0.282751 0.322906 0.045677
v -0.282751 -0.322906 -0.048177
v -0.282751 0.322906 -0.048177
v -0.282751 -0.322906 0.045677
v -0.249635 0.322906 -0.048177
v -0.249635 0.322906 -0.048172
v -0.249635 -0.322906 -0.020576
v -0.249635 0.322906 -0.020576
v -0.249635 -0.322906 -0.048172
v 0.252760 -0.322906 -0.048172
v 0.252760 0.322906 -0.020576
v 0.252760 -0.322906 -0.020576
v 0.252760 0.322906 -0.048172
vn -0.9701 -0.0000 0.2426
vn 0.0000 1.0000 0.0000
vn 0.0000 -0.0000 1.0000
vn 1.0000 0.0000 0.0000
vn 0.0000 0.0000 -1.0000
vn 0.0000 -1.0000 0.0000
vn -0.9939 0.1104 0.0000
vn -0.9701 0.0000 -0.2427
vn -0.9939 -0.1104 0.0000
vn -1.0000 0.0000 0.0000
vn 0.0108 0.9965 0.0831
vn 0.0108 -0.9965 0.0831
vn 0.9965 -0.0000 0.0832
usemtl Shape.105
s 1
f 21//1 22//1 23//1
f 24//2 25//2 26//2
f 25//3 24//3 27//3
f 26//4 25//4 27//4
f 26//4 27//4 28//4
f 24//2 26//2 29//2
f 26//5 28//5 29//5
f 27//3 24//3 21//3
f 28//6 27//6 21//6
f 24//7 29//7 22//7
f 21//1 24//1 22//1
f 30//8 29//8 31//8
f 29//5 28//5 31//5
f 21//9 30//9 31//9
f 28//6 21//6 31//6
f 29//8 30//8 32//8
f 30//10 22//10 32//10
f 22//7 29//7 32//7
f 30//9 21//9 23//9
f 22//10 30//10 23//10
usemtl Shape.106
f 1//3 2//3 3//3
f 4//10 5//10 6//10
f 5//6 4//6 7//6
f 4//5 6//5 7//5
f 7//4 8//4 2//4
f 6//10 5//10 1//10
f 8//2 6//2 1//2
f 5//3 2//3 1//3
f 5//6 7//6 9//6
f 2//3 5//3 9//3
f 7//4 2//4 9//4
f 6//2 8//2 10//2
f 8//4 7//4 10//4
f 7//5 6//5 10//5
f 2//11 8//11 3//11
f 8//2 1//2 3//2
usemtl Shape.107
f 11//6 12//6 13//6
f 14//10 11//10 15//10
f 11//6 14//6 16//6
f 14//5 15//5 16//5
f 11//3 17//3 18//3
f 17//4 16//4 18//4
f 18//4 16//4 19//4
f 16//5 15//5 19//5
f 15//2 18//2 19//2
f 15//10 11//10 20//10
f 11//3 18//3 20//3
f 18//2 15//2 20//2
f 16//4 17//4 12//4
f 11//6 16//6 12//6
f 17//3 11//3 13//3
f 12//12 17//12 13//12
usemtl Shape.108
f 33//6 34//6 35//6
f 36//13 37//13 33//13
f 37//2 36//2 38//2
f 33//3 37//3 38//3
f 39//10 38//10 40//10
f 38//2 36//2 40//2
f 33//6 39//6 34//6
f 39//5 40//5 34//5
f 39//6 33//6 41//6
f 38//10 39//10 41//10
f 33//3 38//3 41//3
f 40//2 36//2 42//2
f 36//4 34//4 42//4
f 34//5 40//5 42//5
f 36//13 33//13 35//13
f 34//4 36//4 35//4
usemtl Shape.109
f 43//10 44//10 45//10
f 46//6 47//6 44//6
f 47//5 46//5 43//5
f 46//10 44//10 43//10
f 47//4 48//4 49//4
f 44//6 47//6 49//6
f 48//3 44//3 49//3
f 48//4 47//4 50//4
f 43//2 48//2 50//2
f 47//5 43//5 50//5
f 44//3 48//3 45//3
f 48//2 43//2 45//2
