# Blender v2.78 (sub 0) OBJ File: ''
# www.blender.org
mtllib Drawer_60_14.mtl
o Shape_IndexedFaceSet.004_Shape_IndexedFaceSet.009
v 0.256002 -0.225949 -0.023565
v -0.256150 0.225949 -0.023565
v -0.256150 -0.225949 -0.023565
v 0.256002 0.225949 -0.023565
v 0.256002 0.225949 -0.046160
v -0.256150 -0.225949 -0.046160
v 0.256002 -0.225949 -0.046160
v -0.256150 0.225949 -0.046160
vn 0.0000 -0.0000 1.0000
vn 0.0000 1.0000 0.0000
vn 1.0000 -0.0000 0.0000
vn 0.0000 0.0000 -1.0000
vn 0.0000 -1.0000 0.0000
vn -1.0000 0.0000 0.0000
usemtl Shape.1016
s 1
f 1//1 2//1 3//1
f 4//2 5//2 2//2
f 5//3 4//3 1//3
f 4//1 2//1 1//1
f 6//4 5//4 7//4
f 1//5 6//5 7//5
f 5//3 1//3 7//3
f 5//4 6//4 8//4
f 2//2 5//2 8//2
f 6//6 2//6 8//6
f 2//6 6//6 3//6
f 6//5 1//5 3//5
o Shape_IndexedFaceSet.003_Shape_IndexedFaceSet.009
v -0.256150 -0.228461 0.046730
v 0.256002 -0.225949 -0.023565
v -0.256150 -0.225949 -0.023565
v -0.256150 -0.251055 -0.046160
v -0.256150 -0.251055 0.046730
v -0.256150 -0.225949 -0.046160
v 0.256002 -0.251055 -0.046160
v 0.256002 -0.228461 0.046730
v 0.256002 -0.251055 0.046730
v 0.256002 -0.225949 -0.046160
vn 0.0000 0.9994 0.0357
vn -1.0000 0.0000 0.0000
vn 0.0000 -1.0000 -0.0000
vn 0.0000 0.0000 -1.0000
vn 1.0000 -0.0000 0.0000
vn 0.0000 -0.0000 1.0000
vn 0.0000 1.0000 0.0000
usemtl Shape.1018
s 1
f 9//7 10//7 11//7
f 12//8 13//8 14//8
f 13//9 12//9 15//9
f 12//10 14//10 15//10
f 15//11 10//11 16//11
f 14//8 13//8 9//8
f 13//12 16//12 9//12
f 16//7 10//7 9//7
f 13//9 15//9 17//9
f 16//12 13//12 17//12
f 15//11 16//11 17//11
f 14//13 10//13 18//13
f 10//11 15//11 18//11
f 15//10 14//10 18//10
f 10//13 14//13 11//13
f 14//8 9//8 11//8
o Shape_IndexedFaceSet.002_Shape_IndexedFaceSet.011
v 0.256002 0.228461 0.046730
v -0.256150 0.225949 -0.023565
v 0.256002 0.225949 -0.023565
v -0.256150 0.225949 -0.046160
v -0.256150 0.251055 -0.046160
v 0.256002 0.225949 -0.046160
v -0.256150 0.228461 0.046730
v 0.256002 0.251055 0.046730
v 0.256002 0.251055 -0.046160
v -0.256150 0.251055 0.046730
vn 0.0000 -0.9994 0.0357
vn -1.0000 0.0000 0.0000
vn 0.0000 -1.0000 0.0000
vn 0.0000 0.0000 -1.0000
vn 0.0000 1.0000 0.0000
vn 1.0000 0.0000 0.0000
vn 0.0000 -0.0000 1.0000
usemtl Shape.1017
s 1
f 19//14 20//14 21//14
f 22//15 20//15 23//15
f 20//16 22//16 24//16
f 22//17 23//17 24//17
f 23//15 20//15 25//15
f 23//18 26//18 27//18
f 26//19 24//19 27//19
f 24//17 23//17 27//17
f 24//19 26//19 19//19
f 25//14 20//14 19//14
f 26//20 25//20 19//20
f 26//18 23//18 28//18
f 23//15 25//15 28//15
f 25//20 26//20 28//20
f 20//16 24//16 21//16
f 24//19 19//19 21//19
o Shape_IndexedFaceSet_Shape_IndexedFaceSet.011
v 0.256005 0.251029 -0.046143
v 0.258514 -0.298755 -0.068755
v 0.256005 -0.250971 -0.046143
v 0.258514 0.298755 0.069325
v 0.278596 0.298755 0.069325
v 0.278596 0.298755 -0.068755
v 0.258514 0.298755 -0.068755
v 0.281105 -0.298755 -0.068755
v 0.281105 -0.298755 0.069325
v 0.256005 -0.250971 0.046726
v 0.258514 -0.298755 0.069325
v 0.281108 0.298697 -0.068755
v 0.281108 0.298697 0.069325
v 0.256005 0.251029 0.046726
vn -0.9939 0.0000 -0.1103
vn 0.0000 1.0000 0.0000
vn -0.0000 0.0000 -1.0000
vn 0.0000 -0.0000 1.0000
vn 0.0000 -1.0000 -0.0000
vn -0.9939 -0.0000 0.1103
vn -0.9986 -0.0524 -0.0000
vn 0.0231 0.9997 0.0000
vn 1.0000 -0.0000 -0.0000
vn -0.9986 0.0525 0.0000
vn -1.0000 0.0000 0.0000
usemtl Shape.1015
s 1
f 29//21 30//21 31//21
f 32//22 33//22 34//22
f 32//22 34//22 35//22
f 34//23 36//23 35//23
f 33//24 32//24 37//24
f 35//23 36//23 30//23
f 36//25 37//25 30//25
f 32//26 38//26 39//26
f 37//24 32//24 39//24
f 38//27 30//27 39//27
f 30//25 37//25 39//25
f 34//28 33//28 40//28
f 36//23 34//23 40//23
f 37//29 36//29 40//29
f 32//30 35//30 29//30
f 35//21 30//21 29//21
f 33//24 37//24 41//24
f 40//28 33//28 41//28
f 37//29 40//29 41//29
f 38//26 32//26 42//26
f 32//30 29//30 42//30
f 29//31 38//31 42//31
f 30//27 38//27 31//27
f 38//31 29//31 31//31
o Shape_IndexedFaceSet.001_Shape_IndexedFaceSet.011
v -0.256150 -0.251055 0.046730
v -0.281255 0.251055 0.046730
v -0.281255 -0.251055 0.046730
v -0.256150 0.251055 0.046730
v -0.256150 0.251055 -0.046160
v -0.281255 -0.251055 -0.046160
v -0.281255 0.251055 -0.046160
v -0.256150 -0.251055 -0.046160
vn 0.0000 -0.0000 1.0000
vn 0.0000 1.0000 0.0000
vn 1.0000 -0.0000 0.0000
vn 0.0000 0.0000 -1.0000
vn -1.0000 0.0000 0.0000
vn 0.0000 -1.0000 -0.0000
usemtl Shape.1014
s 1
f 43//32 44//32 45//32
f 46//33 47//33 44//33
f 47//34 46//34 43//34
f 46//32 44//32 43//32
f 47//35 48//35 49//35
f 44//33 47//33 49//33
f 48//36 44//36 49//36
f 48//35 47//35 50//35
f 43//37 48//37 50//37
f 47//34 43//34 50//34
f 44//36 48//36 45//36
f 48//37 43//37 45//37
