# Blender v2.78 (sub 0) OBJ File: ''
# www.blender.org
mtllib Drawer_60_14.mtl
o Shape_IndexedFaceSet.003_Shape_IndexedFaceSet.089
v 0.253356 -0.219775 -0.021935
v -0.250518 -0.219775 -0.048739
v -0.250518 -0.219775 -0.021935
v -0.250518 -0.251937 -0.048739
v 0.253356 -0.251937 -0.048739
v -0.250518 -0.251937 0.047748
v 0.253356 -0.219775 -0.048739
v 0.253356 -0.225136 0.047748
v 0.253356 -0.251937 0.047748
v -0.250518 -0.225136 0.047748
v 0.258720 -0.300180 0.069189
v 0.253361 0.251933 0.047730
v 0.253361 -0.251933 0.047730
v 0.280158 0.300180 -0.070180
v 0.280158 0.300180 0.069189
v 0.280158 -0.300180 0.069189
v 0.280158 -0.300180 -0.070180
v 0.258720 0.300180 -0.070180
v 0.258720 0.300180 0.069189
v 0.258720 -0.300180 -0.070180
v 0.253361 -0.251933 -0.048735
v 0.253361 0.251933 -0.048735
v -0.250521 -0.251864 0.047748
v -0.282674 0.251836 0.047748
v -0.282674 -0.251864 0.047748
v -0.250521 0.251836 0.047748
v -0.250521 0.251836 -0.048739
v -0.282674 -0.251864 -0.048739
v -0.282674 0.251836 -0.048739
v -0.250521 -0.251864 -0.048739
v 0.253356 -0.219734 -0.021937
v -0.250518 0.219775 -0.021937
v -0.250518 -0.219734 -0.021937
v 0.253356 0.219775 -0.021937
v 0.253356 0.219775 -0.048739
v -0.250518 -0.219734 -0.048739
v 0.253356 -0.219734 -0.048739
v -0.250518 0.219775 -0.048739
v 0.253356 0.225136 0.047748
v -0.250518 0.219775 -0.021935
v 0.253356 0.219775 -0.021935
v -0.250518 0.219775 -0.048739
v -0.250518 0.251937 -0.048739
v 0.253356 0.219775 -0.048739
v -0.250518 0.251937 0.047748
v 0.253356 0.251937 -0.048739
v -0.250518 0.225136 0.047748
v 0.253356 0.251937 0.047748
vn 0.0000 1.0000 0.0000
vn 0.0000 0.0000 -1.0000
vn -1.0000 -0.0000 0.0000
vn 0.0000 -1.0000 0.0000
vn 1.0000 0.0000 0.0000
vn 0.0000 -0.0000 1.0000
vn 0.0000 0.9971 0.0767
vn -0.9702 -0.0000 0.2423
vn -0.9939 0.1104 0.0000
vn -0.9939 -0.1104 0.0000
vn -0.9702 0.0000 -0.2424
vn 0.0000 -0.9971 0.0767
usemtl Shape.089
s 1
f 1//1 2//1 3//1
f 4//2 2//2 5//2
f 2//3 4//3 6//3
f 4//4 5//4 6//4
f 5//2 2//2 7//2
f 8//5 5//5 7//5
f 5//5 8//5 9//5
f 8//6 6//6 9//6
f 6//4 5//4 9//4
f 6//6 8//6 10//6
f 2//3 6//3 10//3
f 8//5 7//5 1//5
f 7//1 2//1 1//1
f 10//7 8//7 1//7
f 10//7 1//7 3//7
f 2//3 10//3 3//3
usemtl Shape.086
f 11//8 12//8 13//8
f 14//5 15//5 16//5
f 14//5 16//5 17//5
f 17//4 16//4 11//4
f 16//6 15//6 11//6
f 15//1 14//1 18//1
f 14//2 17//2 18//2
f 11//6 15//6 19//6
f 12//8 11//8 19//8
f 15//1 18//1 19//1
f 18//9 12//9 19//9
f 17//4 11//4 20//4
f 11//10 21//10 20//10
f 21//11 18//11 20//11
f 18//2 17//2 20//2
f 21//3 12//3 22//3
f 18//11 21//11 22//11
f 12//9 18//9 22//9
f 12//3 21//3 13//3
f 21//10 11//10 13//10
usemtl Shape.087
f 23//6 24//6 25//6
f 26//1 27//1 24//1
f 27//5 26//5 23//5
f 26//6 24//6 23//6
f 27//2 28//2 29//2
f 24//1 27//1 29//1
f 28//3 24//3 29//3
f 28//2 27//2 30//2
f 23//4 28//4 30//4
f 27//5 23//5 30//5
f 24//3 28//3 25//3
f 28//4 23//4 25//4
usemtl Shape.090
f 31//6 32//6 33//6
f 34//1 35//1 32//1
f 35//5 34//5 31//5
f 34//6 32//6 31//6
f 36//2 35//2 37//2
f 31//4 36//4 37//4
f 35//5 31//5 37//5
f 35//2 36//2 38//2
f 32//1 35//1 38//1
f 36//3 32//3 38//3
f 32//3 36//3 33//3
f 36//4 31//4 33//4
usemtl Shape.088
f 39//12 40//12 41//12
f 42//2 43//2 44//2
f 43//3 42//3 45//3
f 44//2 43//2 46//2
f 39//5 44//5 46//5
f 43//1 45//1 46//1
f 39//6 45//6 47//6
f 45//3 42//3 47//3
f 45//6 39//6 48//6
f 39//5 46//5 48//5
f 46//1 45//1 48//1
f 42//4 44//4 40//4
f 47//3 42//3 40//3
f 39//12 47//12 40//12
f 44//5 39//5 41//5
f 40//4 44//4 41//4
