# Blender v2.78 (sub 0) OBJ File: ''
# www.blender.org
mtllib Drawer_100_29.mtl
o Shape_IndexedFaceSet_Shape_IndexedFaceSet.115
v -0.247029 -0.420680 -0.102270
v 0.250325 -0.420680 -0.131526
v 0.250325 -0.420680 -0.102270
v -0.247029 -0.420680 -0.131526
v -0.247029 0.420680 -0.131526
v 0.250422 0.420598 -0.102270
v -0.247029 0.420680 -0.102270
v 0.250422 0.420598 -0.131526
v -0.254399 0.003658 0.131831
v -0.247077 0.003658 -0.102218
v -0.247077 0.427956 0.131831
v -0.283655 0.457261 0.131831
v -0.247077 0.457261 0.131831
v -0.247077 0.457261 -0.131500
v -0.247077 0.003658 -0.131500
v -0.283655 0.003658 -0.131500
v -0.283655 0.457261 -0.131500
v -0.283655 0.003658 0.131831
v -0.247077 -0.457261 0.131831
v -0.247077 0.003658 -0.102218
v -0.247077 -0.427980 0.131831
v -0.283655 0.003658 0.131831
v -0.254399 0.003658 0.131831
v -0.283655 0.003658 -0.131500
v -0.283655 -0.457261 0.131831
v -0.247077 -0.457261 -0.131500
v -0.247077 0.003658 -0.131500
v -0.283655 -0.457261 -0.131500
v 0.250374 -0.420687 -0.131500
v -0.247029 -0.420687 -0.102218
v 0.250374 -0.420687 -0.102218
v -0.247029 -0.457261 -0.131500
v -0.247029 -0.420687 -0.131500
v 0.250374 -0.457261 -0.131500
v -0.247029 -0.457261 0.131831
v 0.250374 -0.428002 0.131831
v 0.250374 -0.457261 0.131831
v -0.247029 -0.428002 0.131831
v 0.250374 0.428002 0.131831
v -0.247029 0.420687 -0.102218
v 0.250374 0.420687 -0.102218
v -0.247029 0.420687 -0.131500
v -0.247029 0.457261 -0.131500
v 0.250374 0.420687 -0.131500
v -0.247029 0.457261 0.131831
v 0.250374 0.457261 -0.131500
v -0.247029 0.428002 0.131831
v 0.250374 0.457261 0.131831
v 0.257742 0.501158 -0.146129
v 0.250423 0.457204 0.131825
v 0.257742 0.501158 0.146460
v 0.287004 0.501158 -0.146129
v 0.287004 0.501158 0.146460
v 0.287004 -0.501158 0.146460
v 0.287004 -0.501158 -0.146129
v 0.250423 -0.457204 -0.131494
v 0.250423 0.457204 -0.131494
v 0.250423 -0.457204 0.131825
v 0.257742 -0.501158 0.146460
v 0.257742 -0.501158 -0.146129
vn -0.9864 0.1643 0.0000
vn 1.0000 -0.0000 0.0000
vn -1.0000 -0.0000 0.0000
vn -0.8944 -0.0000 0.4473
vn 0.0000 -0.0000 1.0000
vn 0.0000 -1.0000 0.0000
vn -0.9864 -0.1643 0.0000
vn 0.0000 1.0000 0.0000
vn 0.0000 0.0000 -1.0000
vn -0.8944 0.0000 -0.4473
vn 0.0002 1.0000 0.0000
vn 1.0000 -0.0001 0.0000
vn 0.9994 -0.0172 0.0313
vn 0.9994 0.0170 0.0313
vn 0.0000 0.9995 0.0312
vn 0.0000 -0.9995 0.0312
usemtl Shape.115
s 1
f 49//1 50//1 51//1
f 52//2 53//2 54//2
f 52//2 54//2 55//2
f 56//3 50//3 57//3
f 50//3 56//3 58//3
f 50//4 58//4 59//4
f 54//5 53//5 59//5
f 55//6 54//6 59//6
f 58//7 56//7 59//7
f 53//8 52//8 49//8
f 52//9 55//9 49//9
f 56//10 57//10 49//10
f 57//1 50//1 49//1
f 59//7 56//7 60//7
f 55//6 59//6 60//6
f 56//10 49//10 60//10
f 49//9 55//9 60//9
f 50//4 59//4 51//4
f 59//5 53//5 51//5
f 53//8 49//8 51//8
usemtl Shape.119
f 1//6 2//6 3//6
f 2//9 4//9 5//9
f 4//6 2//6 1//6
f 5//3 4//3 1//3
f 6//11 5//11 7//11
f 1//5 6//5 7//5
f 5//3 1//3 7//3
f 6//12 2//12 8//12
f 2//9 5//9 8//9
f 5//11 6//11 8//11
f 2//12 6//12 3//12
f 6//5 1//5 3//5
usemtl Shape.117
f 9//13 10//13 11//13
f 12//8 13//8 14//8
f 13//5 12//5 9//5
f 14//2 13//2 15//2
f 16//9 14//9 15//9
f 9//6 16//6 15//6
f 16//3 12//3 17//3
f 12//8 14//8 17//8
f 14//9 16//9 17//9
f 12//3 16//3 18//3
f 16//6 9//6 18//6
f 9//5 12//5 18//5
f 15//2 13//2 10//2
f 9//6 15//6 10//6
f 13//5 9//5 11//5
f 10//2 13//2 11//2
usemtl Shape.116
f 19//2 20//2 21//2
f 22//8 23//8 24//8
f 23//5 22//5 25//5
f 22//3 24//3 25//3
f 25//6 26//6 19//6
f 23//5 25//5 19//5
f 24//8 23//8 27//8
f 26//9 24//9 27//9
f 19//2 26//2 27//2
f 24//9 26//9 28//9
f 26//6 25//6 28//6
f 25//3 24//3 28//3
f 27//8 23//8 20//8
f 19//2 27//2 20//2
f 23//5 19//5 21//5
f 20//14 23//14 21//14
usemtl Shape.118
f 29//8 30//8 31//8
f 32//9 33//9 34//9
f 33//3 32//3 35//3
f 32//6 34//6 35//6
f 34//9 33//9 29//9
f 36//2 34//2 29//2
f 34//2 36//2 37//2
f 36//5 35//5 37//5
f 35//6 34//6 37//6
f 35//5 36//5 38//5
f 33//3 35//3 38//3
f 29//8 33//8 30//8
f 38//15 36//15 30//15
f 33//3 38//3 30//3
f 36//2 29//2 31//2
f 30//15 36//15 31//15
usemtl Shape.120
f 39//16 40//16 41//16
f 42//9 43//9 44//9
f 43//3 42//3 45//3
f 44//9 43//9 46//9
f 39//2 44//2 46//2
f 43//8 45//8 46//8
f 39//5 45//5 47//5
f 45//3 42//3 47//3
f 45//5 39//5 48//5
f 39//2 46//2 48//2
f 46//8 45//8 48//8
f 42//6 44//6 40//6
f 47//3 42//3 40//3
f 39//16 47//16 40//16
f 44//2 39//2 41//2
f 40//6 44//6 41//6
