# Blender v2.78 (sub 0) OBJ File: ''
# www.blender.org
mtllib Drawer_80_29.mtl
o Shape_IndexedFaceSet_Shape_IndexedFaceSet.110
v 0.256314 0.403810 -0.148810
v 0.243691 0.353294 0.128790
v 0.256314 0.403810 0.154048
v 0.281540 0.403810 -0.148810
v 0.281540 0.403810 0.154048
v 0.281540 -0.403810 0.154048
v 0.281540 -0.403810 -0.148810
v 0.243691 -0.353294 -0.123552
v 0.243691 0.353294 -0.123552
v 0.243691 -0.353294 0.128790
v 0.256314 -0.403810 0.154048
v 0.256314 -0.403810 -0.148810
v -0.286309 0.315484 0.128810
v 0.243690 0.315484 -0.098323
v -0.248438 0.315484 0.128810
v -0.286309 0.315484 -0.123571
v -0.286309 0.353333 -0.123571
v 0.243690 0.315484 -0.123571
v 0.243690 0.328100 0.128810
v 0.243690 0.353333 0.128810
v 0.243690 0.353333 -0.123571
v -0.286309 0.353333 0.128810
v -0.235833 0.315476 -0.123571
v -0.235833 -0.315476 -0.098333
v -0.235833 0.315476 -0.098333
v -0.235833 -0.315476 -0.123571
v 0.243690 -0.315476 -0.123571
v 0.243690 0.315476 -0.098333
v 0.243690 -0.315476 -0.098333
v 0.243690 0.315476 -0.123571
v -0.286309 -0.315484 0.128810
v 0.243690 -0.328100 0.128810
v -0.248438 -0.315484 0.128810
v -0.286309 -0.353333 -0.123571
v -0.286309 -0.353333 0.128810
v -0.286309 -0.315484 -0.123571
v 0.243690 -0.353333 -0.123571
v 0.243690 -0.315484 -0.098323
v 0.243690 -0.353333 0.128810
v 0.243690 -0.315484 -0.123571
v -0.248466 -0.315476 0.128810
v -0.235838 -0.315476 -0.123571
v -0.235838 -0.315476 -0.098323
v -0.235838 0.315476 -0.098323
v -0.248466 0.315476 0.128810
v -0.286310 0.315476 0.128810
v -0.286310 -0.315476 -0.123571
v -0.286310 0.315476 -0.123571
v -0.286310 -0.315476 0.128810
v -0.235838 0.315476 -0.123571
vn -0.9702 0.2424 0.0000
vn 1.0000 0.0000 0.0000
vn -1.0000 0.0000 0.0000
vn -0.8945 -0.0000 0.4470
vn 0.0000 -0.0000 1.0000
vn 0.0000 -1.0000 0.0000
vn -0.9702 -0.2424 0.0000
vn 0.0000 1.0000 0.0000
vn 0.0000 0.0000 -1.0000
vn -0.8945 0.0000 -0.4470
vn 0.0256 -0.9981 0.0554
vn 0.0256 0.9981 0.0554
vn 0.9985 -0.0000 0.0555
usemtl Shape.110
s 1
f 1//1 2//1 3//1
f 4//2 5//2 6//2
f 4//2 6//2 7//2
f 8//3 2//3 9//3
f 2//3 8//3 10//3
f 2//4 10//4 11//4
f 6//5 5//5 11//5
f 7//6 6//6 11//6
f 10//7 8//7 11//7
f 5//8 4//8 1//8
f 4//9 7//9 1//9
f 8//10 9//10 1//10
f 9//1 2//1 1//1
f 11//7 8//7 12//7
f 7//6 11//6 12//6
f 8//10 1//10 12//10
f 1//9 7//9 12//9
f 2//4 11//4 3//4
f 11//5 5//5 3//5
f 5//8 1//8 3//8
usemtl Shape.112
f 13//6 14//6 15//6
f 16//3 13//3 17//3
f 13//6 16//6 18//6
f 16//9 17//9 18//9
f 13//5 19//5 20//5
f 19//2 18//2 20//2
f 20//2 18//2 21//2
f 18//9 17//9 21//9
f 17//8 20//8 21//8
f 17//3 13//3 22//3
f 13//5 20//5 22//5
f 20//8 17//8 22//8
f 18//2 19//2 14//2
f 13//6 18//6 14//6
f 19//5 13//5 15//5
f 14//11 19//11 15//11
usemtl Shape.114
f 23//3 24//3 25//3
f 26//6 27//6 24//6
f 27//9 26//9 23//9
f 26//3 24//3 23//3
f 27//2 28//2 29//2
f 24//6 27//6 29//6
f 28//5 24//5 29//5
f 28//2 27//2 30//2
f 23//8 28//8 30//8
f 27//9 23//9 30//9
f 24//5 28//5 25//5
f 28//8 23//8 25//8
usemtl Shape.111
f 31//5 32//5 33//5
f 34//3 35//3 36//3
f 35//6 34//6 37//6
f 34//9 36//9 37//9
f 37//2 38//2 32//2
f 36//3 35//3 31//3
f 38//8 36//8 31//8
f 35//5 32//5 31//5
f 35//6 37//6 39//6
f 32//5 35//5 39//5
f 37//2 32//2 39//2
f 36//8 38//8 40//8
f 38//2 37//2 40//2
f 37//9 36//9 40//9
f 32//12 38//12 33//12
f 38//8 31//8 33//8
usemtl Shape.113
f 41//6 42//6 43//6
f 44//13 45//13 41//13
f 45//8 44//8 46//8
f 41//5 45//5 46//5
f 47//3 46//3 48//3
f 46//8 44//8 48//8
f 41//6 47//6 42//6
f 47//9 48//9 42//9
f 47//6 41//6 49//6
f 46//3 47//3 49//3
f 41//5 46//5 49//5
f 48//8 44//8 50//8
f 44//2 42//2 50//2
f 42//9 48//9 50//9
f 44//13 41//13 43//13
f 42//2 44//2 43//2
