# Blender v2.78 (sub 0) OBJ File: ''
# www.blender.org
mtllib Drawer_60_58.mtl
o Shape_IndexedFaceSet_Shape_IndexedFaceSet.098
v -0.284722 -0.018889 -0.235556
v 0.244167 -0.226665 -0.235556
v -0.256352 -0.018889 -0.235556
v 0.244167 -0.018889 -0.273330
v 0.244167 -0.018889 -0.245003
v 0.244167 -0.255000 -0.273330
v -0.284722 -0.018889 -0.273330
v -0.284722 -0.255000 -0.235556
v 0.244167 -0.255000 -0.235556
v -0.284722 -0.255000 -0.273330
v -0.246944 -0.226669 0.265000
v 0.244167 -0.226669 -0.235556
v -0.246944 -0.226669 -0.235556
v 0.244167 -0.226669 0.265000
v 0.244167 -0.254997 0.265000
v -0.246944 -0.254997 -0.235556
v -0.246944 -0.254997 0.265000
v 0.244167 -0.254997 -0.235556
v -0.246952 0.226662 0.265000
v -0.256395 -0.018889 -0.235556
v -0.246952 0.226662 -0.235556
v -0.284722 -0.018889 -0.235556
v -0.284722 -0.018889 0.265000
v -0.284722 0.255000 -0.235556
v -0.246952 0.255000 0.265000
v -0.284722 0.255000 0.265000
v -0.246952 0.255000 -0.235556
v -0.256395 -0.018889 0.265000
v -0.246952 -0.255000 0.265000
v -0.246952 -0.226665 -0.235556
v -0.246952 -0.226665 0.265000
v -0.284722 -0.255000 -0.235556
v -0.246952 -0.255000 -0.235556
v -0.284722 -0.255000 0.265000
v -0.284722 -0.018889 -0.235556
v -0.256395 -0.018889 0.265000
v -0.284722 -0.018889 0.265000
v -0.256395 -0.018889 -0.235556
v 0.253618 0.302222 -0.292222
v 0.281940 -0.302222 -0.292222
v 0.253618 -0.302222 -0.292222
v 0.281940 0.302222 -0.292222
v 0.281940 0.302222 0.293333
v 0.281940 -0.302222 0.293333
v 0.244167 -0.254948 -0.273307
v 0.244167 0.254948 0.264961
v 0.244167 0.254948 -0.273307
v 0.244167 -0.254948 0.264961
v 0.253618 -0.302222 0.293333
v 0.253618 0.302222 0.293333
v -0.246944 0.254997 0.265000
v 0.244167 0.254997 -0.235556
v -0.246944 0.254997 -0.235556
v 0.244167 0.254997 0.265000
v 0.244167 0.226669 0.265000
v -0.246944 0.226669 -0.235556
v -0.246944 0.226669 0.265000
v 0.244167 0.226669 -0.235556
v 0.244167 -0.018889 -0.245003
v 0.244167 0.226662 -0.235556
v -0.256352 -0.018889 -0.235556
v 0.244167 0.255000 -0.235556
v 0.244167 0.255000 -0.273330
v -0.284722 0.255000 -0.235556
v -0.284722 -0.018889 -0.235556
v -0.284722 -0.018889 -0.273330
v -0.284722 0.255000 -0.273330
v 0.244167 -0.018889 -0.273330
vn 0.0000 0.0000 -1.0000
vn 1.0000 0.0000 0.0000
vn -1.0000 -0.0000 0.0000
vn -0.9487 -0.0000 0.3160
vn 0.0000 -0.0000 1.0000
vn 0.0000 -1.0000 -0.0000
vn -0.9806 -0.1960 0.0000
vn 0.0000 1.0000 0.0000
vn -0.8945 0.0000 -0.4470
vn -0.8946 0.0000 -0.4470
vn -0.9806 0.1960 0.0000
vn 0.0189 0.0454 0.9988
vn 0.9993 -0.0384 -0.0000
vn -0.0001 0.0000 1.0000
vn 0.9990 0.0454 0.0000
vn 0.0189 -0.0384 0.9991
usemtl Shape.098
s 1
f 39//1 40//1 41//1
f 42//2 43//2 44//2
f 42//2 44//2 40//2
f 45//3 46//3 47//3
f 46//3 45//3 48//3
f 46//4 48//4 49//4
f 44//5 43//5 49//5
f 40//6 44//6 49//6
f 48//7 45//7 49//7
f 43//8 42//8 39//8
f 42//1 40//1 39//1
f 45//9 47//10 39//10
f 47//11 46//11 39//11
f 46//4 49//4 50//4
f 49//5 43//5 50//5
f 43//8 39//8 50//8
f 39//11 46//11 50//11
f 49//7 45//7 41//7
f 40//6 49//6 41//6
f 45//9 39//10 41//9
usemtl Shape.099
f 1//5 2//5 3//5
f 4//2 5//2 6//2
f 5//8 4//8 7//8
f 4//1 6//1 7//1
f 7//3 8//3 1//3
f 5//8 7//8 1//8
f 6//2 5//2 9//2
f 8//6 6//6 9//6
f 1//5 8//5 9//5
f 6//6 8//6 10//6
f 8//3 7//3 10//3
f 7//1 6//1 10//1
f 9//2 5//2 2//2
f 1//5 9//5 2//5
f 5//8 1//8 3//8
f 2//12 5//12 3//12
usemtl Shape.102
f 11//8 12//8 13//8
f 14//2 15//2 12//2
f 15//5 14//5 11//5
f 14//8 12//8 11//8
f 16//6 15//6 17//6
f 11//3 16//3 17//3
f 15//5 11//5 17//5
f 15//6 16//6 18//6
f 12//2 15//2 18//2
f 16//1 12//1 18//1
f 12//1 16//1 13//1
f 16//3 11//3 13//3
usemtl Shape.103
f 19//13 20//13 21//13
f 22//6 20//6 23//6
f 20//1 22//1 24//1
f 22//3 23//3 24//3
f 23//5 25//5 26//5
f 25//8 24//8 26//8
f 24//3 23//3 26//3
f 24//8 25//8 27//8
f 20//1 24//1 27//1
f 23//6 20//6 28//6
f 25//5 23//5 28//5
f 27//2 25//2 19//2
f 25//5 28//5 19//14
f 28//13 20//13 19//13
f 20//1 27//1 21//1
f 27//2 19//2 21//2
usemtl Shape.101
f 29//2 30//2 31//2
f 32//6 33//6 34//6
f 33//1 32//1 35//1
f 32//3 34//3 35//3
f 34//6 33//6 29//6
f 36//5 34//5 29//5
f 34//5 36//5 37//5
f 36//8 35//8 37//8
f 35//3 34//3 37//3
f 35//8 36//8 38//8
f 33//1 35//1 38//1
f 29//2 33//2 30//2
f 38//15 36//15 30//15
f 33//1 38//1 30//1
f 36//5 29//5 31//5
f 30//15 36//15 31//15
usemtl Shape.104
f 51//8 52//8 53//8
f 54//2 55//2 52//2
f 55//5 54//5 51//5
f 54//8 52//8 51//8
f 56//6 55//6 57//6
f 51//3 56//3 57//3
f 55//5 51//5 57//5
f 55//6 56//6 58//6
f 52//2 55//2 58//2
f 56//1 52//1 58//1
f 52//1 56//1 53//1
f 56//3 51//3 53//3
usemtl Shape.100
f 59//16 60//16 61//16
f 62//8 63//8 64//8
f 63//2 62//2 59//2
f 62//5 64//5 65//5
f 64//3 66//3 65//3
f 66//6 59//6 65//6
f 63//1 66//1 67//1
f 64//8 63//8 67//8
f 66//3 64//3 67//3
f 66//1 63//1 68//1
f 59//6 66//6 68//6
f 63//2 59//2 68//2
f 59//2 62//2 60//2
f 62//5 65//5 60//5
f 60//5 65//5 61//5
f 65//6 59//6 61//6
