# Blender v2.78 (sub 0) OBJ File: ''
# www.blender.org
mtllib Drawer_60_58.mtl
o Shape_IndexedFaceSet.004_Shape_IndexedFaceSet.007
v 0.255158 -0.227399 -0.241336
v 0.255158 -0.251336 0.268175
v 0.255158 -0.251336 -0.241336
v 0.255158 -0.227399 0.268175
v -0.254353 -0.227399 0.268175
v -0.254353 -0.251336 -0.241336
v -0.254353 -0.251336 0.268175
v -0.254353 -0.227399 -0.241336
vn 1.0000 0.0000 0.0000
vn 0.0000 -0.0000 1.0000
vn 0.0000 1.0000 0.0000
vn -1.0000 0.0000 0.0000
vn 0.0000 -1.0000 -0.0000
vn 0.0000 0.0000 -1.0000
usemtl Shape.974
s 1
f 1//1 2//1 3//1
f 4//2 5//2 2//2
f 5//3 4//3 1//3
f 4//1 2//1 1//1
f 5//4 6//4 7//4
f 2//2 5//2 7//2
f 6//5 2//5 7//5
f 6//4 5//4 8//4
f 1//6 6//6 8//6
f 5//3 1//3 8//3
f 2//5 6//5 3//5
f 6//6 1//6 3//6
o Shape_IndexedFaceSet.003_Shape_IndexedFaceSet.007
v -0.254353 -0.042765 -0.244759
v -0.254353 -0.251316 -0.241336
v -0.254353 -0.227370 -0.241336
v 0.255158 -0.227370 -0.241336
v 0.255158 -0.042765 -0.244759
v 0.255158 -0.042765 -0.265268
v -0.254353 -0.251316 -0.265268
v 0.255158 -0.251316 -0.265268
v -0.254353 -0.042765 -0.265268
v 0.255158 -0.251316 -0.241336
vn -1.0000 0.0000 0.0000
vn 0.0000 0.0185 0.9998
vn 1.0000 0.0000 0.0000
vn 0.0000 1.0000 0.0000
vn 0.0000 0.0000 -1.0000
vn 0.0000 -1.0000 0.0000
vn 0.0000 0.0000 1.0000
usemtl Shape.973
s 1
f 9//7 10//7 11//7
f 12//8 13//8 9//8
f 13//9 12//9 14//9
f 9//10 13//10 14//10
f 15//11 14//11 16//11
f 14//9 12//9 16//9
f 9//7 15//7 10//7
f 15//12 16//12 10//12
f 15//7 9//7 17//7
f 14//11 15//11 17//11
f 9//10 14//10 17//10
f 16//9 12//9 18//9
f 12//13 10//13 18//13
f 10//12 16//12 18//12
f 12//8 9//8 11//8
f 10//13 12//13 11//13
o Shape_IndexedFaceSet.002_Shape_IndexedFaceSet.007
v 0.255158 0.251336 -0.241336
v 0.255158 0.227399 0.268175
v 0.255158 0.227399 -0.241336
v 0.255158 0.251336 0.268175
v -0.254353 0.251336 0.268175
v -0.254353 0.227399 -0.241336
v -0.254353 0.227399 0.268175
v -0.254353 0.251336 -0.241336
vn 1.0000 0.0000 0.0000
vn 0.0000 -0.0000 1.0000
vn 0.0000 1.0000 0.0000
vn -1.0000 0.0000 0.0000
vn 0.0000 -1.0000 -0.0000
vn 0.0000 0.0000 -1.0000
usemtl Shape.975
s 1
f 19//14 20//14 21//14
f 22//15 23//15 20//15
f 23//16 22//16 19//16
f 22//14 20//14 19//14
f 23//17 24//17 25//17
f 20//15 23//15 25//15
f 24//18 20//18 25//18
f 24//17 23//17 26//17
f 19//19 24//19 26//19
f 23//16 19//16 26//16
f 20//18 24//18 21//18
f 24//19 19//19 21//19
o Shape_IndexedFaceSet_Shape_IndexedFaceSet.007
v 0.282512 0.299210 0.288693
v 0.258580 -0.299210 0.288693
v 0.282512 -0.299151 0.288693
v 0.282512 0.299210 -0.289210
v 0.282514 -0.299210 0.261313
v 0.282514 -0.299210 -0.289210
v 0.258580 0.299210 -0.289210
v 0.258580 -0.299210 -0.289210
v 0.255158 -0.251294 -0.265225
v 0.258580 0.299210 0.288693
v 0.255158 0.251294 0.268158
v 0.255158 0.251294 -0.265225
v 0.255158 -0.251294 0.268158
vn -0.0000 -0.0000 1.0000
vn 1.0000 0.0000 0.0000
vn -0.0000 -1.0000 -0.0000
vn 0.0020 -1.0000 0.0017
vn 0.0001 -1.0000 0.0001
vn 0.0000 1.0000 0.0000
vn 0.0000 0.0000 -1.0000
vn -0.9975 -0.0712 -0.0000
vn -0.9900 0.0000 -0.1412
vn -0.9864 -0.0000 0.1644
vn -0.9975 0.0712 0.0000
vn -1.0000 0.0000 0.0000
vn 1.0000 -0.0000 0.0001
vn 0.0025 -1.0000 0.0022
usemtl Shape.971
s 1
f 27//20 28//20 29//20
f 30//21 27//21 31//21
f 30//21 31//21 32//21
f 32//22 31//23 28//24
f 27//25 30//25 33//25
f 30//26 32//26 33//26
f 33//26 32//26 34//26
f 32//22 28//24 34//22
f 28//27 35//27 34//27
f 35//28 33//28 34//28
f 28//20 27//20 36//20
f 37//29 28//29 36//29
f 27//25 33//25 36//25
f 33//30 37//30 36//30
f 35//31 37//31 38//31
f 33//28 35//28 38//28
f 37//30 33//30 38//30
f 37//31 35//31 39//31
f 35//27 28//27 39//27
f 28//29 37//29 39//29
f 31//21 27//21 29//32
f 28//24 31//23 29//33
o Shape_IndexedFaceSet.001_Shape_IndexedFaceSet.007
v -0.281704 0.251258 0.268175
v -0.254353 0.251258 -0.265273
v -0.281704 0.251258 -0.265273
v -0.281710 -0.251287 -0.265273
v -0.281710 0.138439 -0.265273
v -0.254353 -0.251287 -0.265273
v -0.281710 -0.251287 0.268175
v -0.254353 0.251258 0.268175
v -0.254353 -0.251287 0.268175
vn 0.0000 1.0000 0.0000
vn 0.0000 0.0000 -1.0000
vn -1.0000 0.0000 0.0000
vn 0.0000 -1.0000 -0.0000
vn 1.0000 0.0000 0.0000
vn 0.0000 -0.0000 1.0000
vn -1.0000 0.0001 0.0000
usemtl Shape.970
s 1
f 40//34 41//34 42//34
f 43//35 44//35 45//35
f 44//36 43//36 46//36
f 43//37 45//37 46//37
f 45//35 44//35 41//35
f 47//38 45//38 41//38
f 46//39 47//39 40//39
f 44//36 46//36 40//36
f 47//34 41//34 40//34
f 45//38 47//38 48//38
f 47//39 46//39 48//39
f 46//37 45//37 48//37
f 41//35 44//35 42//35
f 44//36 40//36 42//40
o Shape_IndexedFaceSet.005_Shape_IndexedFaceSet.124
v -0.254290 -0.042744 -0.244759
v 0.255108 0.227360 -0.241336
v -0.254290 0.227360 -0.241336
v 0.255108 0.251307 -0.241336
v 0.255108 0.251307 -0.265268
v -0.254290 0.251307 -0.241336
v 0.255108 -0.042744 -0.244759
v -0.254290 -0.042744 -0.265268
v -0.254290 0.251307 -0.265268
v 0.255108 -0.042744 -0.265268
vn 0.0000 -0.0127 0.9999
vn 0.0000 -0.0063 1.0000
vn 1.0000 0.0000 0.0000
vn 0.0000 0.0000 1.0000
vn 0.0000 1.0000 0.0000
vn 0.0000 0.0000 -1.0000
vn -1.0000 0.0000 0.0000
vn 0.0000 -1.0000 -0.0000
usemtl Shape.972
s 1
f 49//41 50//42 51//42
f 52//43 50//43 53//43
f 50//42 52//44 54//44
f 52//45 53//45 54//45
f 53//43 50//43 55//43
f 53//46 56//46 57//46
f 56//47 54//47 57//47
f 54//45 53//45 57//45
f 54//47 56//47 49//47
f 55//41 50//42 49//41
f 56//48 55//48 49//48
f 56//46 53//46 58//46
f 53//43 55//43 58//43
f 55//48 56//48 58//48
f 50//42 54//44 51//42
f 54//47 49//47 51//47
