# Blender v2.78 (sub 0) OBJ File: ''
# www.blender.org
mtllib Drawer_60_29.mtl
o Shape_IndexedFaceSet.005_Shape_IndexedFaceSet.129
v -0.255919 -0.004205 -0.104233
v -0.255919 0.225228 -0.126917
v -0.255919 0.225228 -0.104233
v -0.281414 -0.004205 -0.126917
v -0.281414 0.225228 -0.126917
v -0.255919 -0.004205 -0.126917
v -0.281414 -0.004205 0.125250
v -0.258752 0.225228 0.125250
v -0.281414 0.225228 0.125250
v -0.258752 -0.004205 0.125250
vn 1.0000 0.0000 0.0062
vn 1.0000 0.0000 0.0000
vn 0.0000 0.0000 -1.0000
vn -1.0000 -0.0000 0.0000
vn 0.0000 -1.0000 -0.0000
vn 0.0000 1.0000 0.0000
vn 0.0000 -0.0000 1.0000
vn 0.9999 0.0000 0.0123
usemtl Shape.969
s 1
f 1//1 2//2 3//1
f 4//3 5//3 6//3
f 5//4 4//4 7//4
f 4//5 6//5 7//5
f 5//6 8//6 2//6
f 6//3 5//3 2//3
f 8//6 5//6 9//6
f 7//7 8//7 9//7
f 5//4 7//4 9//4
f 8//7 7//7 10//7
f 7//5 6//5 10//5
f 6//2 2//2 1//1
f 8//8 10//8 1//1
f 10//5 6//5 1//5
f 2//6 8//6 3//6
f 8//8 1//1 3//1
o Shape_IndexedFaceSet_Shape_IndexedFaceSet.124
v 0.256917 0.250697 0.125196
v 0.259750 0.298917 -0.143917
v 0.256917 0.250697 -0.126915
v 0.259750 0.298917 0.145083
v 0.279581 0.298917 0.145083
v 0.279581 0.298917 -0.143917
v 0.259750 -0.298858 0.145083
v 0.282414 -0.298917 -0.143917
v 0.282414 -0.298917 0.145083
v 0.282417 0.298858 -0.143917
v 0.256917 -0.250697 -0.126915
v 0.259750 -0.298858 -0.143917
v 0.282417 0.298858 0.145083
v 0.256917 -0.250697 0.125196
vn -0.9983 0.0586 0.0000
vn 0.0000 1.0000 0.0000
vn 0.0000 -0.0000 1.0000
vn -0.0026 -1.0000 -0.0000
vn 0.0000 0.0000 -1.0000
vn 0.0208 0.9998 0.0000
vn 1.0000 -0.0000 -0.0000
vn -0.9900 0.0000 0.1410
vn -0.9983 -0.0587 -0.0000
vn -0.9864 0.0000 -0.1644
vn -1.0000 0.0000 0.0000
usemtl Shape.964
s 1
f 11//9 12//9 13//9
f 14//10 15//10 16//10
f 15//11 14//11 17//11
f 17//12 18//12 19//12
f 15//11 17//11 19//11
f 14//10 16//10 12//10
f 16//13 18//13 12//13
f 16//14 15//14 20//14
f 18//13 16//13 20//13
f 19//15 18//15 20//15
f 17//16 14//16 11//16
f 14//9 12//9 11//9
f 17//17 21//17 22//17
f 18//12 17//12 22//12
f 12//13 18//13 22//13
f 21//18 12//18 22//18
f 15//11 19//11 23//11
f 20//14 15//14 23//14
f 19//15 20//15 23//15
f 21//17 17//17 24//17
f 17//16 11//16 24//16
f 11//19 21//19 24//19
f 12//18 21//18 13//18
f 21//19 11//19 13//19
o Shape_IndexedFaceSet.006_Shape_IndexedFaceSet.130
v -0.255917 0.225228 -0.104250
v 0.256917 0.225228 -0.126917
v -0.255917 0.225228 -0.126917
v 0.256917 0.225228 -0.104250
v 0.256917 -0.004205 -0.104250
v -0.255917 -0.004205 -0.126917
v 0.256917 -0.004205 -0.126917
v -0.255917 -0.004205 -0.104250
vn 0.0000 1.0000 0.0000
vn 1.0000 0.0000 0.0000
vn 0.0000 -0.0000 1.0000
vn 0.0000 -1.0000 -0.0000
vn 0.0000 0.0000 -1.0000
vn -1.0000 0.0000 0.0000
usemtl Shape.963
s 1
f 25//20 26//20 27//20
f 28//21 29//21 26//21
f 29//22 28//22 25//22
f 28//20 26//20 25//20
f 29//23 30//23 31//23
f 26//21 29//21 31//21
f 30//24 26//24 31//24
f 30//23 29//23 32//23
f 25//25 30//25 32//25
f 29//22 25//22 32//22
f 26//24 30//24 27//24
f 30//25 25//25 27//25
o Shape_IndexedFaceSet.004_Shape_IndexedFaceSet.128
v 0.256917 -0.250750 -0.101417
v -0.255917 -0.228083 -0.101417
v 0.256917 -0.228083 -0.101417
v -0.255917 -0.250750 -0.101417
v -0.255917 -0.250750 0.125250
v 0.256917 -0.228083 0.125250
v -0.255917 -0.228083 0.125250
v 0.256917 -0.250750 0.125250
vn 0.0000 0.0000 -1.0000
vn -1.0000 0.0000 0.0000
vn 0.0000 -1.0000 -0.0000
vn 0.0000 0.0000 1.0000
vn 0.0000 1.0000 0.0000
vn 1.0000 0.0000 0.0000
usemtl Shape.966
s 1
f 33//26 34//26 35//26
f 36//27 37//27 34//27
f 37//28 36//28 33//28
f 36//26 34//26 33//26
f 37//29 38//29 39//29
f 34//27 37//27 39//27
f 38//30 34//30 39//30
f 38//29 37//29 40//29
f 33//31 38//31 40//31
f 37//28 33//28 40//28
f 34//30 38//30 35//30
f 38//31 33//31 35//31
o Shape_IndexedFaceSet.003_Shape_IndexedFaceSet.127
v -0.255917 -0.228069 0.125250
v -0.255917 -0.250750 -0.101417
v -0.255917 -0.228069 -0.101417
v -0.281413 -0.004274 0.125250
v -0.258752 -0.004274 0.125250
v -0.258752 -0.004274 -0.101417
v -0.281413 -0.250750 0.125250
v -0.281413 -0.250750 -0.101417
v -0.255917 -0.250750 0.125250
v -0.281413 -0.004274 -0.101417
vn 1.0000 0.0063 0.0000
vn 1.0000 -0.0000 0.0000
vn 0.0000 1.0000 0.0000
vn -0.0000 -0.0000 1.0000
vn -1.0000 0.0000 0.0000
vn -0.0000 0.0000 -1.0000
vn 0.0000 -1.0000 -0.0000
vn 0.9999 0.0127 0.0000
vn -0.0001 0.0000 -1.0000
usemtl Shape.967
s 1
f 41//32 42//33 43//32
f 44//34 45//34 46//34
f 45//35 44//35 47//35
f 47//36 44//36 48//36
f 46//37 42//37 48//37
f 42//38 47//38 48//38
f 47//38 42//38 49//38
f 45//35 47//35 49//35
f 44//34 46//34 50//34
f 48//36 44//36 50//36
f 46//37 48//37 50//37
f 46//39 45//39 41//32
f 45//35 49//35 41//35
f 49//33 42//33 41//32
f 42//37 46//37 43//40
f 46//39 41//32 43//32
o Shape_IndexedFaceSet.002_Shape_IndexedFaceSet.126
v 0.256864 0.225253 -0.104233
v 0.256864 0.228088 0.125250
v -0.258705 0.225253 0.125250
v -0.281364 0.225253 0.125250
v -0.281364 0.225253 -0.126917
v 0.256864 0.225253 -0.126917
v -0.281364 0.250747 -0.126917
v 0.256864 0.250749 0.125250
v 0.256864 0.250749 -0.126917
v -0.281364 0.250747 0.125250
vn -0.0007 -1.0000 -0.0013
vn 0.0055 -0.9999 0.0124
vn 0.0041 -0.9999 0.0093
vn -0.0000 -1.0000 -0.0000
vn -1.0000 0.0000 0.0000
vn 0.0000 0.0000 -1.0000
vn 1.0000 0.0000 0.0000
vn -0.0000 1.0000 0.0000
vn 0.0000 -0.0003 1.0000
vn 0.0000 0.0000 1.0000
vn 1.0000 0.0002 0.0000
usemtl Shape.968
s 1
f 51//41 52//42 53//43
f 54//44 55//44 56//44
f 55//45 54//45 57//45
f 56//46 55//46 57//46
f 58//47 56//47 59//47
f 57//48 58//48 59//48
f 56//46 57//46 59//46
f 54//49 58//50 60//50
f 58//48 57//48 60//48
f 57//45 54//45 60//45
f 58//50 54//49 52//49
f 56//47 58//47 52//47
f 56//47 52//47 51//51
f 54//44 56//44 51//41
f 54//44 51//41 53//43
f 52//49 54//49 53//50
o Shape_IndexedFaceSet.001_Shape_IndexedFaceSet.125
v 0.256907 -0.004274 -0.104254
v -0.281417 -0.004274 -0.101422
v -0.258705 -0.004274 -0.101422
v 0.256907 -0.228069 -0.101422
v 0.256907 -0.004274 -0.126914
v -0.281417 -0.250750 -0.126914
v 0.256907 -0.250750 -0.126914
v -0.281417 -0.250750 -0.101422
v -0.281417 -0.004274 -0.126914
v 0.256907 -0.250750 -0.101422
vn -0.0000 1.0000 0.0000
vn 1.0000 0.0000 0.0000
vn 0.0000 0.0000 -1.0000
vn -0.0004 -0.0010 1.0000
vn -0.0000 -0.0000 1.0000
vn -1.0000 0.0000 0.0000
vn 0.0000 -1.0000 0.0000
vn 0.0055 0.0127 0.9999
vn 0.0041 0.0095 0.9999
usemtl Shape.965
s 1
f 61//52 62//52 63//52
f 61//53 64//53 65//53
f 62//52 61//52 65//52
f 66//54 65//54 67//54
f 65//53 64//53 67//53
f 64//55 62//56 68//56
f 62//57 66//57 68//57
f 66//58 67//58 68//58
f 66//57 62//57 69//57
f 65//54 66//54 69//54
f 62//52 65//52 69//52
f 67//53 64//53 70//53
f 64//55 68//56 70//56
f 68//58 67//58 70//58
f 64//55 61//59 63//60
f 62//56 64//55 63//60
