# Blender v2.78 (sub 0) OBJ File: ''
# www.blender.org
mtllib Panel_100.mtl
o Shape_IndexedFaceSet_Shape_IndexedFaceSet.141
v -0.010724 0.498226 0.068314
v -0.010724 0.498226 -0.068226
v -0.010726 0.389178 -0.068226
v 0.011062 0.498226 -0.068226
v 0.011062 0.498226 0.068314
v 0.011062 -0.498226 0.068314
v -0.010726 -0.498129 -0.068226
v 0.011062 -0.498226 -0.068226
v -0.010726 -0.498129 0.068314
v -0.009272 -0.498226 0.068314
vn -1.0000 0.0000 0.0000
vn 1.0000 0.0000 0.0000
vn 0.0000 1.0000 0.0000
vn 0.0000 -0.0000 1.0000
vn 0.0000 0.0000 -1.0000
vn -0.0045 -1.0000 -0.0007
vn -0.0012 -1.0000 -0.0002
vn -0.0032 -1.0000 -0.0005
vn 0.0000 -1.0000 -0.0000
vn -0.0665 -0.9978 -0.0000
vn 0.0084 0.0000 -1.0000
usemtl Shape.992
s 1
f 1//1 2//1 3//1
f 4//2 5//2 6//2
f 5//3 4//3 1//3
f 6//4 5//4 1//4
f 7//5 4//5 8//5
f 4//2 6//2 8//2
f 6//4 1//4 9//4
f 4//5 7//5 2//5
f 1//3 4//3 2//3
f 7//6 8//7 10//8
f 8//7 6//9 10//8
f 9//10 7//10 10//10
f 6//4 9//4 10//4
f 7//1 9//1 3//1
f 9//1 1//1 3//1
f 2//5 7//5 3//11
