# Blender v2.78 (sub 0) OBJ File: ''
# www.blender.org
mtllib VDrawer.mtl
o Shape_IndexedFaceSet_Shape_IndexedFaceSet.123
v -0.294168 0.156709 0.669260
v 0.300580 0.156709 -0.669260
v -0.294168 0.156709 -0.669260
v 0.300580 0.156709 0.669260
v 0.300580 -0.154260 0.669260
v -0.294168 -0.154260 -0.669260
v -0.294168 -0.154260 0.669260
v 0.300580 -0.154260 -0.669260
vn 0.0000 1.0000 0.0000
vn 1.0000 0.0000 0.0000
vn 0.0000 0.0000 1.0000
vn 0.0000 -1.0000 -0.0000
vn -1.0000 0.0000 0.0000
vn 0.0000 0.0000 -1.0000
usemtl Shape.123
s 1
f 1//1 2//1 3//1
f 4//2 5//2 2//2
f 5//3 4//3 1//3
f 4//1 2//1 1//1
f 6//4 5//4 7//4
f 1//5 6//5 7//5
f 5//3 1//3 7//3
f 5//4 6//4 8//4
f 2//2 5//2 8//2
f 6//6 2//6 8//6
f 2//6 6//6 3//6
f 6//5 1//5 3//5
