# Blender v2.78 (sub 0) OBJ File: ''
# www.blender.org
mtllib SinkAreaSink.mtl
o Shape_IndexedFaceSet.009_Shape_IndexedFaceSet.037
v 0.202694 0.079420 -0.033893
v 0.216303 0.081688 0.004703
v 0.209499 0.086226 -0.033893
v 0.202694 0.083956 -0.126906
v 0.216303 0.074881 0.004703
v 0.195871 0.086227 -0.174542
v 0.195871 0.088495 -0.183630
v 0.202613 0.083955 -0.142778
v -0.196644 0.090765 -0.183630
v -0.196644 0.088495 -0.183630
v -0.203426 0.083955 -0.142778
v -0.210168 0.079421 -0.013474
v 0.207148 0.074883 -0.015741
v -0.210168 0.074883 -0.015741
v -0.210168 0.074883 0.004703
v 0.207148 0.077153 0.004703
v 0.207148 0.079421 -0.013474
v 0.195871 0.090765 -0.172274
v -0.196644 0.090765 -0.172274
v 0.195871 0.090765 -0.183630
v -0.196644 0.086227 -0.174542
v 0.207148 0.074883 0.004703
v -0.210168 0.077153 0.004703
v 0.250343 0.426577 -0.031603
v 0.250343 -0.426552 0.004703
v 0.250343 -0.426552 -0.031603
v 0.245805 0.431135 0.004703
v 0.248074 0.431135 0.004703
v 0.248074 0.431135 -0.031603
v 0.248074 -0.431109 -0.031603
v 0.245805 -0.431109 0.004703
v 0.245805 0.431135 -0.031603
v 0.245805 -0.431109 -0.031603
v 0.250343 0.426577 0.004703
v -0.244279 0.426593 0.002434
v 0.245757 0.426596 0.002434
v 0.007511 0.397105 0.000165
v 0.245805 0.415235 0.004703
v 0.245757 0.426596 0.004703
v -0.246593 0.390296 0.004703
v -0.217095 0.390296 0.000165
v 0.216211 0.390293 0.000165
v 0.245805 0.390293 0.004703
v -0.244279 0.426593 0.004703
v -0.246535 -0.424289 0.002434
v -0.246535 -0.095452 0.004703
v -0.246535 -0.095452 0.002434
v 0.007515 -0.426596 0.002434
v 0.245757 0.074832 0.002434
v 0.245757 -0.426596 0.004703
v -0.246535 -0.424289 0.004703
v 0.007515 0.074881 0.004703
v -0.210243 0.074881 0.002434
v 0.245757 -0.426596 0.002434
v 0.245757 0.074832 0.004703
v -0.210243 0.074881 0.004703
v 0.245805 0.074881 0.002434
v 0.216309 0.390267 0.002434
v 0.245802 0.390267 0.002434
v 0.216309 0.074881 0.002434
v 0.216309 0.074881 0.004703
v 0.245802 0.390267 0.004703
v 0.245805 0.074881 0.004703
v 0.216309 0.390267 0.004703
v -0.244326 0.390243 0.004703
v -0.244326 0.390243 0.002434
v -0.251135 0.120257 0.000165
v -0.251135 0.074911 0.000165
v -0.251127 -0.095256 0.000165
v -0.251135 0.074911 0.004703
v -0.210293 0.074911 0.000165
v -0.217101 0.390243 0.002434
v -0.210293 0.077193 0.004703
v -0.210297 -0.095256 0.004703
v -0.251127 -0.095256 0.004703
v -0.217101 0.390243 0.004703
v -0.210297 -0.095256 0.002434
v 0.007538 -0.424327 0.004703
v -0.251134 -0.424327 -0.031603
v -0.251134 -0.424327 0.004703
v -0.251134 -0.426597 -0.031603
v -0.251134 -0.426597 0.004703
v 0.245781 -0.431134 0.004703
v 0.245781 -0.428865 -0.031603
v -0.246562 -0.431135 -0.031603
v -0.246562 -0.431135 0.004703
v 0.245781 -0.431134 -0.031603
v 0.245781 -0.426597 0.004703
v 0.198155 0.381195 -0.183635
v 0.200424 0.086230 -0.174546
v 0.198155 0.088528 -0.183635
v 0.216303 0.390267 -0.008921
v 0.216303 0.390267 0.004703
v 0.216303 0.081724 0.004703
v 0.207230 0.077158 -0.031615
v 0.195884 0.088528 -0.183635
v 0.200424 0.381195 -0.174546
v 0.211766 0.390267 -0.006672
v 0.195884 0.088528 -0.140514
v 0.195884 0.381195 -0.172278
v 0.216303 0.081724 -0.008921
v 0.214034 0.081724 0.004703
v 0.214034 0.390267 0.004703
v 0.195884 0.381195 -0.183635
v 0.209497 0.390267 -0.029329
v -0.198943 0.385753 -0.174527
v -0.198943 0.383484 -0.183635
v -0.214809 0.394827 -0.033882
v -0.198943 0.381214 -0.183635
v -0.198943 0.381214 -0.172278
v -0.214809 0.390290 -0.031615
v 0.211736 0.390290 -0.031615
v 0.198125 0.381214 -0.172278
v -0.210216 0.397097 -0.015723
v 0.198125 0.385753 -0.174527
v -0.210216 0.394827 0.004703
v 0.207185 0.397097 0.000150
v 0.207185 0.397097 -0.015723
v 0.207185 0.394827 0.000150
v 0.198125 0.383484 -0.183635
v -0.210216 0.397097 0.004703
v 0.198125 0.381214 -0.183635
v 0.007524 0.394827 0.004703
v -0.198946 0.090781 -0.183620
v -0.196677 0.381182 -0.183620
v -0.196677 0.090781 -0.183620
v -0.212559 0.390290 -0.008920
v -0.214826 0.390290 0.004703
v -0.210289 0.074881 0.000150
v -0.203485 0.086243 -0.138217
v -0.217095 0.074881 -0.011205
v -0.196677 0.381182 -0.174532
v -0.196677 0.090781 -0.174532
v -0.217095 0.390290 -0.011187
v -0.201214 0.381182 -0.176818
v -0.201214 0.090781 -0.176818
v -0.217095 0.120266 0.004703
v -0.217095 0.390290 0.004703
v -0.210291 0.390259 -0.031612
v 0.198153 0.394826 -0.033872
v 0.198153 0.381217 -0.174558
v 0.198153 0.390288 -0.045246
v 0.216304 0.390290 0.000162
v 0.216304 0.397098 0.000162
v 0.200424 0.385753 -0.174558
v 0.207229 0.381217 -0.101941
v 0.202693 0.381217 -0.099683
v -0.196637 0.381214 -0.181366
v 0.195821 0.381214 -0.183634
v -0.196637 0.381214 -0.183634
v 0.195821 0.381214 -0.181366
v 0.195821 0.090765 -0.181366
v -0.196637 0.090765 -0.183634
v 0.195821 0.090765 -0.183634
v -0.196637 0.090765 -0.181366
v -0.244327 0.431135 -0.031603
v -0.244327 0.120217 0.002418
v -0.246597 -0.424327 0.002422
v -0.251135 0.408358 -0.031603
v -0.251134 0.426529 0.004703
v -0.244327 0.431135 0.004703
v -0.246597 -0.424327 0.004703
v -0.251135 -0.424327 -0.031603
v -0.251135 -0.424327 0.004703
v -0.248865 -0.424327 -0.031603
v -0.212558 0.079420 -0.058837
v -0.201214 0.090765 -0.176818
v -0.196677 0.086226 -0.174546
v -0.196677 0.086226 -0.140521
v -0.196677 0.088496 -0.140521
v -0.203485 0.079420 -0.033887
v -0.212558 0.086226 -0.033887
v 0.245781 0.431134 -0.031603
v -0.244327 0.428865 -0.031603
v -0.244327 0.431134 -0.031603
v -0.244327 0.426597 0.002425
v 0.245781 0.428865 -0.031603
v 0.245781 0.431134 0.004703
v 0.245781 0.426597 0.004703
v -0.244327 0.431134 0.004703
v -0.205752 0.381217 -0.083811
v -0.205752 0.381217 -0.129167
v -0.198948 0.381217 -0.149558
v -0.198946 0.392558 -0.033881
v -0.198946 0.394826 -0.033881
v -0.217098 0.390290 0.000162
v -0.201217 0.385753 -0.174540
v -0.217098 0.397098 -0.011186
vn -1.0000 0.0000 0.0000
vn 0.0000 0.0000 -1.0000
vn -0.0042 -0.8972 0.4415
vn -0.0091 -1.0000 0.0000
vn -0.0000 -0.0000 1.0000
vn 0.0001 1.0000 -0.0019
vn 0.0001 1.0000 -0.0073
vn 1.0000 0.0000 0.0000
vn 0.0000 -1.0000 0.0000
vn 0.0002 1.0000 0.0000
vn 0.0000 1.0000 0.0000
vn -0.9780 0.2084 0.0000
vn -0.6924 0.6923 0.2035
vn 0.9947 0.0000 -0.1029
vn -0.9431 0.0000 0.3325
vn -0.1914 -0.9803 -0.0478
vn -0.7067 0.7066 0.0345
vn 0.8069 0.5861 -0.0733
vn 0.6312 -0.7525 -0.1878
vn -0.9865 0.0000 -0.1638
vn -0.7562 0.6542 -0.0165
vn 0.0000 -0.9975 -0.0713
vn 0.0000 -0.9975 -0.0712
vn -0.9984 0.0256 -0.0512
vn 0.0000 0.9923 0.1238
vn 0.0000 0.9975 0.0713
vn -0.6427 0.7662 0.0000
vn 0.7092 0.7050 0.0000
vn 0.7099 0.7044 -0.0001
vn 0.7095 0.7048 0.0000
vn 0.0000 -0.9702 -0.2421
vn -0.6290 -0.7543 -0.1882
vn 0.9867 0.0000 -0.1628
vn 0.9993 0.0172 -0.0344
vn 0.7116 0.7026 -0.0003
vn 0.7079 -0.7049 0.0442
vn 0.8952 0.4456 0.0000
vn 0.8952 -0.4457 0.0000
vn -0.0000 0.0767 -0.9971
vn -0.1518 -0.0520 -0.9870
vn 0.1513 -0.0615 -0.9866
vn 1.0000 0.0042 0.0000
vn 0.9998 0.0000 -0.0211
vn -0.9980 0.0636 0.0000
vn -0.0018 0.0610 -0.9981
vn 0.0020 0.0608 -0.9981
vn -0.9997 0.0252 0.0000
vn 0.0059 0.0054 -1.0000
vn 0.9997 0.0217 -0.0077
vn 0.9998 0.0217 -0.0032
vn 0.9997 0.0217 -0.0109
vn 0.9998 0.0217 0.0000
vn 0.0555 -0.0133 -0.9984
vn -0.0002 0.0049 -1.0000
vn 0.0060 0.0077 -1.0000
vn -0.9773 0.0211 0.2109
vn 0.0000 0.0084 -1.0000
vn 0.0091 0.9978 -0.0649
vn 0.0094 0.9980 -0.0631
vn 0.0092 0.9979 -0.0642
vn -0.7045 -0.7097 0.0000
vn 0.0095 0.9980 -0.0623
vn 0.9702 0.0000 -0.2422
vn -0.3862 -0.9216 -0.0401
vn 0.9954 -0.0000 -0.0954
vn -0.7079 -0.7064 0.0000
vn -0.9945 0.0061 0.1043
vn -0.9946 0.0065 0.1034
vn -0.9953 0.0092 0.0969
vn 0.4495 -0.8933 0.0000
vn 0.5989 -0.7969 -0.0791
vn 0.0000 -0.9922 0.1247
vn -0.9823 -0.0003 0.1873
vn -0.9829 -0.0004 0.1842
vn -0.9813 -0.0001 0.1923
vn 0.3344 0.9387 -0.0835
vn -0.9807 0.0000 0.1955
vn 0.0000 0.9983 -0.0587
vn -0.9955 0.0102 0.0942
vn -0.9954 0.0100 0.0948
vn 0.2200 0.9727 -0.0734
vn -0.5546 0.8321 0.0000
vn 0.0000 -0.9695 -0.2451
vn -0.8462 0.5171 -0.1288
vn -0.4965 -0.8680 0.0000
vn 0.0000 -0.9979 0.0644
vn 0.0000 0.9975 -0.0713
vn 0.0000 -0.9923 0.1240
vn 0.8313 0.5558 0.0000
vn 0.7176 0.6905 -0.0903
vn 0.9899 0.0000 0.1418
vn 0.9114 0.3993 -0.0995
vn 0.0000 0.9703 -0.2417
vn -0.9921 0.0000 0.1255
vn 0.5548 -0.8320 0.0000
vn 0.9960 0.0000 -0.0892
vn 0.0228 -0.0000 0.9997
vn 0.0032 -0.9899 0.1418
vn 0.0075 0.7229 0.6909
vn -0.9936 -0.0503 -0.1007
vn -0.1626 0.9833 -0.0818
vn -0.4431 0.8965 0.0000
vn -0.9917 0.0573 0.1147
vn -0.9944 0.0000 -0.1054
vn 0.9864 0.0118 0.1641
vn 0.1253 -0.9893 -0.0751
vn 0.9970 0.0000 0.0777
vn 0.0004 1.0000 -0.0011
vn 0.0001 1.0000 -0.0002
vn -0.9954 0.0000 -0.0954
vn -0.9954 0.0000 -0.0955
vn -0.4985 -0.8571 -0.1301
vn 0.5351 -0.0045 0.8448
vn -0.8441 -0.1773 0.5060
vn -0.3902 -0.9115 -0.1301
vn -0.9487 0.0000 -0.3163
vn -0.8319 0.0065 -0.5549
vn 0.9950 0.0100 0.0994
vn 0.9951 0.0099 0.0981
vn 0.9953 0.0097 0.0967
vn 0.9955 0.0095 0.0942
vn 0.0007 1.0000 -0.0013
vn -0.2193 0.9728 -0.0745
vn 0.5547 0.8320 0.0000
vn -0.1026 0.9924 -0.0684
vn 0.1738 -0.9821 -0.0721
vn 0.7596 -0.6503 0.0000
vn 0.0000 -0.9950 -0.0995
vn -0.8824 0.0000 0.4706
vn -0.0041 0.9979 -0.0644
vn -0.8934 0.4473 -0.0433
vn 0.8887 -0.4449 -0.1111
vn 0.0422 -0.9955 0.0847
vn 0.9961 0.0000 -0.0885
vn 0.9955 0.0221 -0.0919
vn -0.3232 -0.9374 0.1293
vn -0.6798 -0.6812 0.2718
vn -0.7558 -0.6532 0.0458
vn 0.9993 -0.0042 -0.0381
vn -0.9484 0.2835 -0.1419
vn -0.5604 0.8282 0.0000
vn 0.9406 -0.0025 0.3396
vn 1.0000 -0.0042 0.0000
vn 0.9978 -0.0053 -0.0665
vn -0.6663 -0.7334 -0.1346
vn 0.9980 0.0000 0.0637
vn -0.5863 -0.7816 0.2132
vn 0.5967 0.7955 0.1058
vn 0.1487 0.9879 0.0432
vn -0.9654 0.2516 -0.0686
vn 0.7070 -0.7072 0.0000
vn 0.1165 -0.9923 -0.0424
vn 0.7180 0.6945 -0.0463
vn 0.0002 -0.9980 -0.0635
vn 0.0000 -0.9978 -0.0665
vn 0.0001 -0.9979 -0.0653
vn 0.0003 -0.9981 -0.0623
vn -0.0042 -0.4487 0.8937
vn 0.8824 0.0000 0.4705
vn 0.0435 0.9969 -0.0650
vn 0.6003 0.6858 0.4115
vn -0.9885 -0.1294 -0.0776
vn -0.9951 0.0160 -0.0979
vn 0.3972 -0.9052 0.1515
vn -0.6245 -0.7810 0.0000
vn -0.3899 -0.9116 -0.1301
vn 0.9563 0.2902 -0.0342
vn 0.6859 -0.7242 0.0710
usemtl Shape.347
s 1
f 45//1 46//1 47//1
f 48//2 45//2 49//2
f 48//3 50//3 51//3
f 45//4 48//4 51//4
f 50//5 52//5 51//5
f 49//2 45//2 53//2
f 52//6 49//7 53//7
f 48//2 49//2 54//2
f 49//8 50//8 54//8
f 50//9 48//9 54//9
f 49//7 52//6 55//10
f 52//5 50//5 55//5
f 50//8 49//8 55//8
f 51//5 52//5 56//5
f 52//6 53//7 56//11
f 56//12 53//12 46//12
f 45//1 51//1 46//1
f 51//5 56//5 46//5
f 53//2 45//2 47//2
f 46//12 53//12 47//12
usemtl Shape.346
f 1//13 2//13 3//13
f 4//14 2//14 5//14
f 5//15 2//15 1//15
f 4//16 5//16 1//16
f 4//17 1//17 3//17
f 2//18 4//18 3//18
usemtl Shape.349
f 6//19 7//19 8//19
f 9//20 10//20 11//20
f 12//21 9//21 11//21
f 11//22 13//23 14//23
f 15//1 12//1 14//1
f 13//9 15//9 14//9
f 12//24 11//24 14//24
f 12//25 16//25 17//25
f 18//26 12//26 17//26
f 16//8 13//8 17//8
f 18//11 9//11 19//11
f 9//27 12//27 19//27
f 12//26 18//26 19//26
f 10//2 9//2 20//2
f 9//11 18//11 20//11
f 18//28 17//29 20//30
f 10//31 6//31 21//31
f 11//32 10//32 21//32
f 6//22 11//22 21//22
f 16//5 15//5 22//5
f 13//8 16//8 22//8
f 15//9 13//9 22//9
f 15//5 16//5 23//5
f 12//1 15//1 23//1
f 16//25 12//25 23//25
f 6//31 10//31 7//31
f 10//2 20//2 7//2
f 7//33 20//33 8//33
f 11//22 6//22 8//22
f 13//23 11//22 8//22
f 17//34 13//34 8//34
f 20//30 17//29 8//35
usemtl Shape.348
f 24//8 25//8 26//8
f 27//11 28//11 29//11
f 28//5 27//5 25//5
f 30//36 25//36 31//36
f 25//5 27//5 31//5
f 27//11 29//11 32//11
f 29//2 30//2 32//2
f 31//1 27//1 32//1
f 29//37 28//37 24//37
f 30//2 29//2 24//2
f 30//9 31//9 33//9
f 32//2 30//2 33//2
f 31//1 32//1 33//1
f 28//5 25//5 34//5
f 24//37 28//37 34//37
f 25//8 24//8 34//8
f 25//38 30//38 26//38
f 30//2 24//2 26//2
usemtl Shape.354
f 35//39 36//39 37//39
f 38//5 39//5 40//5
f 41//40 40//40 35//40
f 40//9 41//9 42//9
f 38//5 40//5 43//5
f 40//9 42//9 43//9
f 43//41 42//41 36//41
f 39//42 38//42 36//42
f 35//11 39//11 36//11
f 38//43 43//43 36//43
f 40//5 39//5 44//5
f 35//44 40//44 44//44
f 39//11 35//11 44//11
f 41//45 35//45 37//45
f 42//2 41//2 37//2
f 36//46 42//46 37//46
usemtl Shape.356
f 57//2 58//2 59//2
f 60//9 57//9 61//9
f 57//2 60//2 58//2
f 60//1 61//1 58//1
f 57//8 62//8 63//8
f 61//9 57//9 63//9
f 62//5 61//5 63//5
f 61//5 62//5 64//5
f 62//11 58//11 64//11
f 58//1 61//1 64//1
f 62//8 57//8 59//8
f 58//11 62//11 59//11
usemtl Shape.353
f 65//47 66//47 67//47
f 68//1 69//1 70//1
f 69//2 68//2 71//48
f 72//49 73//50 71//51
f 70//5 73//5 65//5
f 73//5 70//5 74//5
f 71//8 73//8 74//8
f 70//1 69//1 75//1
f 69//9 74//9 75//9
f 74//5 70//5 75//5
f 65//11 72//11 66//11
f 73//50 72//49 76//52
f 65//5 73//5 76//5
f 72//11 65//11 76//11
f 69//53 71//53 77//53
f 74//9 69//9 77//9
f 71//8 74//8 77//8
f 68//1 70//1 67//1
f 71//48 68//2 67//54
f 72//55 71//48 67//54
f 70//56 65//56 67//56
f 66//57 72//55 67//54
usemtl Shape.343
f 78//11 79//11 80//11
f 79//1 81//1 82//1
f 82//5 83//5 78//5
f 79//58 78//59 84//60
f 81//2 79//2 84//2
f 82//61 81//61 85//61
f 81//2 84//2 85//2
f 82//61 85//61 86//61
f 83//5 82//5 86//5
f 85//9 83//9 86//9
f 84//8 83//8 87//8
f 83//9 85//9 87//9
f 85//2 84//2 87//2
f 78//5 83//5 88//5
f 84//60 78//59 88//62
f 83//8 84//8 88//8
f 79//1 82//1 80//1
f 82//5 78//5 80//5
usemtl Shape.357
f 89//63 90//63 91//63
f 92//8 93//8 94//8
f 95//64 96//64 90//64
f 92//65 90//65 97//65
f 93//11 92//11 98//11
f 96//66 95//66 99//66
f 100//1 96//1 99//1
f 95//67 98//68 99//69
f 92//8 94//8 101//8
f 94//70 95//70 101//70
f 90//65 92//65 101//65
f 95//71 90//71 101//71
f 94//5 93//5 102//5
f 95//72 94//72 102//72
f 98//73 95//74 102//75
f 92//76 97//76 89//76
f 97//63 90//63 89//63
f 93//11 98//11 103//11
f 102//5 93//5 103//5
f 98//73 102//75 103//77
f 96//1 100//1 104//1
f 89//2 96//2 104//2
f 89//78 104//78 105//78
f 98//11 92//11 105//11
f 100//79 99//69 105//80
f 99//69 98//68 105//80
f 92//81 89//81 105//81
f 104//82 100//82 105//82
f 90//83 96//83 91//83
f 96//2 89//2 91//2
usemtl Shape.344
f 106//84 107//84 108//84
f 109//85 110//85 111//85
f 110//86 112//86 111//86
f 110//9 109//9 113//9
f 112//86 110//86 113//86
f 114//87 115//87 106//87
f 111//88 112//88 116//88
f 114//11 117//11 118//11
f 115//87 114//87 118//87
f 117//89 112//89 118//89
f 112//90 115//90 118//90
f 112//91 117//91 119//91
f 115//92 112//92 120//92
f 106//93 115//93 120//93
f 117//11 114//11 121//11
f 111//94 116//94 121//94
f 113//9 109//9 122//9
f 112//95 113//95 122//95
f 120//96 112//96 122//96
f 109//2 120//2 122//2
f 116//88 112//88 123//88
f 119//97 117//97 123//97
f 112//98 119//98 123//98
f 117//99 121//99 123//99
f 121//5 116//5 123//5
f 120//2 109//2 107//2
f 106//93 120//93 107//93
f 109//100 111//100 108//100
f 114//101 106//101 108//101
f 121//102 114//102 108//102
f 111//103 121//103 108//103
f 107//104 109//104 108//104
usemtl Shape.345
f 124//2 125//2 126//2
f 127//105 128//105 129//105
f 130//106 129//106 131//106
f 132//107 129//107 133//107
f 128//11 127//108 134//109
f 135//110 131//111 134//110
f 130//112 131//112 136//112
f 131//111 135//110 136//111
f 129//113 128//113 137//113
f 131//114 129//114 137//114
f 134//1 131//1 137//1
f 132//8 133//8 125//8
f 130//115 136//115 124//115
f 136//116 135//116 124//116
f 135//117 125//117 124//117
f 128//11 134//109 138//11
f 137//5 128//5 138//5
f 134//1 137//1 138//1
f 127//118 129//119 139//120
f 129//119 132//121 139//120
f 134//109 127//108 139//122
f 135//123 134//123 139//123
f 132//124 125//124 139//124
f 125//125 135//125 139//125
f 129//126 130//126 126//126
f 133//127 129//127 126//127
f 125//8 133//8 126//8
f 130//128 124//128 126//128
usemtl Shape.352
f 140//1 141//1 142//1
f 143//129 144//129 140//129
f 140//130 144//130 145//130
f 140//131 145//131 141//131
f 141//132 145//132 146//132
f 143//133 147//133 146//133
f 144//134 143//134 146//134
f 145//135 144//135 146//135
f 147//9 141//9 146//9
f 147//136 143//136 142//136
f 143//137 140//137 142//137
f 141//138 147//138 142//138
usemtl Shape.355
f 148//11 149//11 150//11
f 151//8 152//8 149//8
f 152//5 151//5 148//5
f 151//11 149//11 148//11
f 152//9 153//9 154//9
f 149//8 152//8 154//8
f 153//2 149//2 154//2
f 153//9 152//9 155//9
f 148//1 153//1 155//1
f 152//5 148//5 155//5
f 149//2 153//2 150//2
f 153//1 148//1 150//1
usemtl Shape.351
f 156//139 157//139 158//139
f 156//140 159//140 160//140
f 161//141 156//141 160//141
f 162//5 161//5 160//5
f 159//2 156//2 163//2
f 160//1 159//1 164//1
f 162//5 160//5 164//5
f 159//1 163//1 164//1
f 163//9 162//9 164//9
f 163//2 156//2 165//2
f 162//9 163//9 165//9
f 156//8 161//8 157//8
f 161//142 162//142 157//142
f 157//143 162//143 158//143
f 165//144 156//144 158//144
f 162//9 165//9 158//9
usemtl Shape.342
f 166//145 167//145 168//145
f 169//146 170//146 171//146
f 166//147 171//147 172//147
f 171//148 170//148 172//148
f 172//149 170//149 167//149
f 166//150 172//150 167//150
f 170//8 169//8 168//8
f 169//151 171//151 168//151
f 171//152 166//152 168//152
f 167//153 170//153 168//153
usemtl Shape.358
f 173//2 174//2 175//2
f 176//154 174//155 177//156
f 177//8 178//8 179//8
f 176//154 177//156 179//157
f 176//158 179//158 180//158
f 174//1 176//1 180//1
f 179//5 178//5 180//5
f 180//11 178//11 173//11
f 177//2 174//2 173//2
f 178//8 177//8 173//8
f 174//1 180//1 175//1
f 180//11 173//11 175//11
usemtl Shape.350
f 181//9 182//9 183//9
f 184//159 185//159 186//159
f 185//160 187//160 188//160
f 186//161 185//161 188//161
f 182//162 186//162 188//162
f 187//163 182//163 188//163
f 184//164 186//164 181//164
f 186//165 182//165 181//165
f 185//8 184//8 183//8
f 182//166 187//166 183//166
f 187//167 185//167 183//167
f 184//168 181//168 183//168
