# Blender v2.78 (sub 0) OBJ File: ''
# www.blender.org
mtllib SinkAreaMedDrawer.mtl
o Shape_IndexedFaceSet_Shape_IndexedFaceSet.022
v 0.256314 0.148810 0.403810
v 0.243691 -0.128790 0.353294
v 0.256314 -0.154048 0.403810
v 0.281540 0.148810 0.403810
v 0.281540 -0.154048 0.403810
v 0.281540 -0.154048 -0.403810
v 0.281540 0.148810 -0.403810
v 0.243691 0.123552 -0.353294
v 0.243691 0.123552 0.353294
v 0.243691 -0.128790 -0.353294
v 0.256314 -0.154048 -0.403810
v 0.256314 0.148810 -0.403810
v -0.286309 -0.128810 -0.315484
v 0.243690 -0.128810 -0.328100
v -0.248438 -0.128810 -0.315484
v -0.286309 0.123571 -0.353333
v -0.286309 -0.128810 -0.353333
v -0.286309 0.123571 -0.315484
v 0.243690 0.123571 -0.353333
v 0.243690 0.098299 -0.315484
v 0.243690 -0.128810 -0.353333
v 0.243690 0.123571 -0.315484
v -0.235833 0.123571 0.315476
v -0.235833 0.098333 -0.315476
v -0.235833 0.098333 0.315476
v -0.235833 0.123571 -0.315476
v 0.243690 0.123571 -0.315476
v 0.243690 0.098333 0.315476
v 0.243690 0.098333 -0.315476
v 0.243690 0.123571 0.315476
v -0.248466 -0.128810 -0.315476
v -0.235838 0.123571 -0.315476
v -0.235838 0.098274 -0.315476
v -0.235838 0.098274 0.315476
v -0.248466 -0.128810 0.315476
v -0.286310 -0.128810 0.315476
v -0.286310 0.123571 -0.315476
v -0.286310 0.123571 0.315476
v -0.286310 -0.128810 -0.315476
v -0.235838 0.123571 0.315476
v -0.286309 -0.128810 0.315484
v 0.243690 0.098299 0.315484
v -0.248438 -0.128810 0.315484
v -0.286309 0.123571 0.315484
v -0.286309 0.123571 0.353333
v 0.243690 0.123571 0.315484
v 0.243690 -0.128810 0.328100
v 0.243690 -0.128810 0.353333
v 0.243690 0.123571 0.353333
v -0.286309 -0.128810 0.353333
vn 0.0000 0.0000 -1.0000
vn -1.0000 0.0000 0.0000
vn 0.0000 1.0000 0.0000
vn 0.0000 -1.0000 -0.0000
vn 1.0000 0.0000 0.0000
vn 0.0000 -0.0000 1.0000
vn 0.0256 -0.0554 -0.9981
vn 0.0256 -0.0554 0.9981
vn -0.9702 -0.0000 0.2424
vn -0.8945 -0.4470 -0.0000
vn -0.9702 0.0000 -0.2424
vn -0.8945 0.4470 0.0000
vn 0.9985 -0.0555 -0.0000
usemtl Shape.1044
s 1
f 41//1 42//1 43//1
f 44//2 41//2 45//2
f 41//1 44//1 46//1
f 44//3 45//3 46//3
f 41//4 47//4 48//4
f 47//5 46//5 48//5
f 48//5 46//5 49//5
f 46//3 45//3 49//3
f 45//6 48//6 49//6
f 45//2 41//2 50//2
f 41//4 48//4 50//4
f 48//6 45//6 50//6
f 46//5 47//5 42//5
f 41//1 46//1 42//1
f 47//4 41//4 43//4
f 42//7 47//7 43//7
usemtl Shape.1045
f 13//4 14//4 15//4
f 16//2 17//2 18//2
f 17//1 16//1 19//1
f 16//3 18//3 19//3
f 19//5 20//5 14//5
f 18//2 17//2 13//2
f 20//6 18//6 13//6
f 17//4 14//4 13//4
f 17//1 19//1 21//1
f 14//4 17//4 21//4
f 19//5 14//5 21//5
f 18//6 20//6 22//6
f 20//5 19//5 22//5
f 19//3 18//3 22//3
f 14//8 20//8 15//8
f 20//6 13//6 15//6
usemtl Shape.1046
f 1//9 2//9 3//9
f 4//5 5//5 6//5
f 4//5 6//5 7//5
f 8//2 2//2 9//2
f 2//2 8//2 10//2
f 2//10 10//10 11//10
f 6//4 5//4 11//4
f 7//1 6//1 11//1
f 10//11 8//11 11//11
f 5//6 4//6 1//6
f 4//3 7//3 1//3
f 8//12 9//12 1//12
f 9//9 2//9 1//9
f 11//11 8//11 12//11
f 7//1 11//1 12//1
f 8//12 1//12 12//12
f 1//3 7//3 12//3
f 2//10 11//10 3//10
f 11//4 5//4 3//4
f 5//6 1//6 3//6
usemtl Shape.1047
f 23//2 24//2 25//2
f 26//1 27//1 24//1
f 27//3 26//3 23//3
f 26//2 24//2 23//2
f 27//5 28//5 29//5
f 24//1 27//1 29//1
f 28//4 24//4 29//4
f 28//5 27//5 30//5
f 23//6 28//6 30//6
f 27//3 23//3 30//3
f 24//4 28//4 25//4
f 28//6 23//6 25//6
usemtl Shape.1048
f 31//1 32//1 33//1
f 34//13 35//13 31//13
f 35//6 34//6 36//6
f 31//4 35//4 36//4
f 37//2 36//2 38//2
f 36//6 34//6 38//6
f 31//1 37//1 32//1
f 37//3 38//3 32//3
f 37//1 31//1 39//1
f 36//2 37//2 39//2
f 31//4 36//4 39//4
f 38//6 34//6 40//6
f 34//5 32//5 40//5
f 32//3 38//3 40//3
f 34//13 31//13 33//13
f 32//5 34//5 33//5
