# Blender v2.78 (sub 0) OBJ File: ''
# www.blender.org
mtllib SinkAreaMedDrawer.mtl
o Shape_IndexedFaceSet_Shape_IndexedFaceSet.042
v -0.286309 -0.315484 0.128810
v 0.243690 -0.328100 0.128810
v -0.248438 -0.315484 0.128810
v -0.286309 -0.353333 -0.123571
v -0.286309 -0.353333 0.128810
v -0.286309 -0.315484 -0.123571
v 0.243690 -0.353333 -0.123571
v 0.243690 -0.315484 -0.098299
v 0.243690 -0.353333 0.128810
v 0.243690 -0.315484 -0.123571
v -0.235833 0.315476 -0.123571
v -0.235833 -0.315476 -0.098333
v -0.235833 0.315476 -0.098333
v -0.235833 -0.315476 -0.123571
v 0.243690 -0.315476 -0.123571
v 0.243690 0.315476 -0.098333
v 0.243690 -0.315476 -0.098333
v 0.243690 0.315476 -0.123571
v 0.256314 0.403810 -0.148810
v 0.243691 0.353294 0.128790
v 0.256314 0.403810 0.154048
v 0.281540 0.403810 -0.148810
v 0.281540 0.403810 0.154048
v 0.281540 -0.403810 0.154048
v 0.281540 -0.403810 -0.148810
v 0.243691 -0.353294 -0.123552
v 0.243691 0.353294 -0.123552
v 0.243691 -0.353294 0.128790
v 0.256314 -0.403810 0.154048
v 0.256314 -0.403810 -0.148810
v -0.248466 -0.315476 0.128810
v -0.235838 -0.315476 -0.123571
v -0.235838 -0.315476 -0.098274
v -0.235838 0.315476 -0.098274
v -0.248466 0.315476 0.128810
v -0.286310 0.315476 0.128810
v -0.286310 -0.315476 -0.123571
v -0.286310 0.315476 -0.123571
v -0.286310 -0.315476 0.128810
v -0.235838 0.315476 -0.123571
v -0.286309 0.315484 0.128810
v 0.243690 0.315484 -0.098299
v -0.248438 0.315484 0.128810
v -0.286309 0.315484 -0.123571
v -0.286309 0.353333 -0.123571
v 0.243690 0.315484 -0.123571
v 0.243690 0.328100 0.128810
v 0.243690 0.353333 0.128810
v 0.243690 0.353333 -0.123571
v -0.286309 0.353333 0.128810
vn -0.9702 0.2424 0.0000
vn 1.0000 0.0000 0.0000
vn -1.0000 0.0000 0.0000
vn -0.8945 -0.0000 0.4470
vn 0.0000 -0.0000 1.0000
vn 0.0000 -1.0000 0.0000
vn -0.9702 -0.2424 0.0000
vn 0.0000 1.0000 0.0000
vn 0.0000 0.0000 -1.0000
vn -0.8945 0.0000 -0.4470
vn 0.0256 0.9981 0.0554
vn 0.9985 0.0000 0.0555
vn 0.0256 -0.9981 0.0554
usemtl Shape.469
s 1
f 19//1 20//1 21//1
f 22//2 23//2 24//2
f 22//2 24//2 25//2
f 26//3 20//3 27//3
f 20//3 26//3 28//3
f 20//4 28//4 29//4
f 24//5 23//5 29//5
f 25//6 24//6 29//6
f 28//7 26//7 29//7
f 23//8 22//8 19//8
f 22//9 25//9 19//9
f 26//10 27//10 19//10
f 27//1 20//1 19//1
f 29//7 26//7 30//7
f 25//6 29//6 30//6
f 26//10 19//10 30//10
f 19//9 25//9 30//9
f 20//4 29//4 21//4
f 29//5 23//5 21//5
f 23//8 19//8 21//8
usemtl Shape.470
f 1//5 2//5 3//5
f 4//3 5//3 6//3
f 5//6 4//6 7//6
f 4//9 6//9 7//9
f 7//2 8//2 2//2
f 6//3 5//3 1//3
f 8//8 6//8 1//8
f 5//5 2//5 1//5
f 5//6 7//6 9//6
f 2//5 5//5 9//5
f 7//2 2//2 9//2
f 6//8 8//8 10//8
f 8//2 7//2 10//2
f 7//9 6//9 10//9
f 2//11 8//11 3//11
f 8//8 1//8 3//8
usemtl Shape.471
f 11//3 12//3 13//3
f 14//6 15//6 12//6
f 15//9 14//9 11//9
f 14//3 12//3 11//3
f 15//2 16//2 17//2
f 12//6 15//6 17//6
f 16//5 12//5 17//5
f 16//2 15//2 18//2
f 11//8 16//8 18//8
f 15//9 11//9 18//9
f 12//5 16//5 13//5
f 16//8 11//8 13//8
usemtl Shape.467
f 31//6 32//6 33//6
f 34//12 35//12 31//12
f 35//8 34//8 36//8
f 31//5 35//5 36//5
f 37//3 36//3 38//3
f 36//8 34//8 38//8
f 31//6 37//6 32//6
f 37//9 38//9 32//9
f 37//6 31//6 39//6
f 36//3 37//3 39//3
f 31//5 36//5 39//5
f 38//8 34//8 40//8
f 34//2 32//2 40//2
f 32//9 38//9 40//9
f 34//12 31//12 33//12
f 32//2 34//2 33//2
usemtl Shape.468
f 41//6 42//6 43//6
f 44//3 41//3 45//3
f 41//6 44//6 46//6
f 44//9 45//9 46//9
f 41//5 47//5 48//5
f 47//2 46//2 48//2
f 48//2 46//2 49//2
f 46//9 45//9 49//9
f 45//8 48//8 49//8
f 45//3 41//3 50//3
f 41//5 48//5 50//5
f 48//8 45//8 50//8
f 46//2 47//2 42//2
f 41//6 46//6 42//6
f 47//5 41//5 43//5
f 42//13 47//13 43//13
