# Blender v2.78 (sub 0) OBJ File: ''
# www.blender.org
mtllib SinkAreaSink.mtl
o Shape_IndexedFaceSet.009_Shape_IndexedFaceSet.037
v -0.246535 -0.002434 -0.424289
v -0.246535 -0.004703 -0.095452
v -0.246535 -0.002434 -0.095452
v 0.007515 -0.002434 -0.426596
v 0.245757 -0.002434 0.074832
v 0.245757 -0.004703 -0.426596
v -0.246535 -0.004703 -0.424289
v 0.007515 -0.004703 0.074881
v -0.210243 -0.002434 0.074881
v 0.245757 -0.002434 -0.426596
v 0.245757 -0.004703 0.074832
v -0.210243 -0.004703 0.074881
v 0.202694 0.033893 0.079420
v 0.216303 -0.004703 0.081688
v 0.209499 0.033893 0.086226
v 0.202694 0.126906 0.083956
v 0.216303 -0.004703 0.074881
v 0.195871 0.174542 0.086227
v 0.195871 0.183630 0.088495
v 0.202613 0.142778 0.083955
v -0.196644 0.183630 0.090765
v -0.196644 0.183630 0.088495
v -0.203426 0.142778 0.083955
v -0.210168 0.013474 0.079421
v 0.207148 0.015741 0.074883
v -0.210168 0.015741 0.074883
v -0.210168 -0.004703 0.074883
v 0.207148 -0.004703 0.077153
v 0.207148 0.013474 0.079421
v 0.195871 0.172274 0.090765
v -0.196644 0.172274 0.090765
v 0.195871 0.183630 0.090765
v -0.196644 0.174542 0.086227
v 0.207148 -0.004703 0.074883
v -0.210168 -0.004703 0.077153
v 0.250343 0.031603 0.426577
v 0.250343 -0.004703 -0.426552
v 0.250343 0.031603 -0.426552
v 0.245805 -0.004703 0.431135
v 0.248074 -0.004703 0.431135
v 0.248074 0.031603 0.431135
v 0.248074 0.031603 -0.431109
v 0.245805 -0.004703 -0.431109
v 0.245805 0.031603 0.431135
v 0.245805 0.031603 -0.431109
v 0.250343 -0.004703 0.426577
v -0.244279 -0.002434 0.426593
v 0.245757 -0.002434 0.426596
v 0.007511 -0.000165 0.397105
v 0.245805 -0.004703 0.415235
v 0.245757 -0.004703 0.426596
v -0.246593 -0.004703 0.390296
v -0.217095 -0.000165 0.390296
v 0.216211 -0.000165 0.390293
v 0.245805 -0.004703 0.390293
v -0.244279 -0.004703 0.426593
v 0.245805 -0.002434 0.074881
v 0.216309 -0.002434 0.390267
v 0.245802 -0.002434 0.390267
v 0.216309 -0.002434 0.074881
v 0.216309 -0.004703 0.074881
v 0.245802 -0.004703 0.390267
v 0.245805 -0.004703 0.074881
v 0.216309 -0.004703 0.390267
v -0.244326 -0.004703 0.390243
v -0.244326 -0.002434 0.390243
v -0.251135 -0.000165 0.120257
v -0.251135 -0.000165 0.074911
v -0.251127 -0.000165 -0.095256
v -0.251135 -0.004703 0.074911
v -0.210293 -0.000165 0.074911
v -0.217101 -0.002434 0.390243
v -0.210293 -0.004703 0.077193
v -0.210297 -0.004703 -0.095256
v -0.251127 -0.004703 -0.095256
v -0.217101 -0.004703 0.390243
v -0.210297 -0.002434 -0.095256
v 0.007538 -0.004703 -0.424327
v -0.251134 0.031603 -0.424327
v -0.251134 -0.004703 -0.424327
v -0.251134 0.031603 -0.426597
v -0.251134 -0.004703 -0.426597
v 0.245781 -0.004703 -0.431134
v 0.245781 0.031603 -0.428865
v -0.246562 0.031603 -0.431135
v -0.246562 -0.004703 -0.431135
v 0.245781 0.031603 -0.431134
v 0.245781 -0.004703 -0.426597
v 0.198155 0.183635 0.381195
v 0.200424 0.174546 0.086230
v 0.198155 0.183635 0.088528
v 0.216303 0.008921 0.390267
v 0.216303 -0.004703 0.390267
v 0.216303 -0.004703 0.081724
v 0.207230 0.031615 0.077158
v 0.195884 0.183635 0.088528
v 0.200424 0.174546 0.381195
v 0.211766 0.006672 0.390267
v 0.195884 0.140514 0.088528
v 0.195884 0.172278 0.381195
v 0.216303 0.008921 0.081724
v 0.214034 -0.004703 0.081724
v 0.214034 -0.004703 0.390267
v 0.195884 0.183635 0.381195
v 0.209497 0.029329 0.390267
v -0.198943 0.174527 0.385753
v -0.198943 0.183635 0.383484
v -0.214809 0.033882 0.394827
v -0.198943 0.183635 0.381214
v -0.198943 0.172278 0.381214
v -0.214809 0.031615 0.390290
v 0.211736 0.031615 0.390290
v 0.198125 0.172278 0.381214
v -0.210216 0.015723 0.397097
v 0.198125 0.174527 0.385753
v -0.210216 -0.004703 0.394827
v 0.207185 -0.000150 0.397097
v 0.207185 0.015723 0.397097
v 0.207185 -0.000150 0.394827
v 0.198125 0.183635 0.383484
v -0.210216 -0.004703 0.397097
v 0.198125 0.183635 0.381214
v 0.007524 -0.004703 0.394827
v -0.198946 0.183620 0.090781
v -0.196677 0.183620 0.381182
v -0.196677 0.183620 0.090781
v -0.212559 0.008920 0.390290
v -0.214826 -0.004703 0.390290
v -0.210289 -0.000150 0.074881
v -0.203485 0.138217 0.086243
v -0.217095 0.011205 0.074881
v -0.196677 0.174532 0.381182
v -0.196677 0.174532 0.090781
v -0.217095 0.011187 0.390290
v -0.201214 0.176818 0.381182
v -0.201214 0.176818 0.090781
v -0.217095 -0.004703 0.120266
v -0.217095 -0.004703 0.390290
v -0.210291 0.031612 0.390259
v 0.198153 0.033872 0.394826
v 0.198153 0.174558 0.381217
v 0.198153 0.045246 0.390288
v 0.216304 -0.000162 0.390290
v 0.216304 -0.000162 0.397098
v 0.200424 0.174558 0.385753
v 0.207229 0.101941 0.381217
v 0.202693 0.099683 0.381217
v -0.196637 0.181366 0.381214
v 0.195821 0.183634 0.381214
v -0.196637 0.183634 0.381214
v 0.195821 0.181366 0.381214
v 0.195821 0.181366 0.090765
v -0.196637 0.183634 0.090765
v 0.195821 0.183634 0.090765
v -0.196637 0.181366 0.090765
v -0.244327 0.031603 0.431135
v -0.244327 -0.002418 0.120217
v -0.246597 -0.002422 -0.424327
v -0.251135 0.031603 0.408358
v -0.251134 -0.004703 0.426529
v -0.244327 -0.004703 0.431135
v -0.246597 -0.004703 -0.424327
v -0.251135 0.031603 -0.424327
v -0.251135 -0.004703 -0.424327
v -0.248865 0.031603 -0.424327
v -0.212558 0.058837 0.079420
v -0.201214 0.176818 0.090765
v -0.196677 0.174546 0.086226
v -0.196677 0.140521 0.086226
v -0.196677 0.140521 0.088496
v -0.203485 0.033887 0.079420
v -0.212558 0.033887 0.086226
v 0.245781 0.031603 0.431134
v -0.244327 0.031603 0.428865
v -0.244327 0.031603 0.431134
v -0.244327 -0.002425 0.426597
v 0.245781 0.031603 0.428865
v 0.245781 -0.004703 0.431134
v 0.245781 -0.004703 0.426597
v -0.244327 -0.004703 0.431134
v -0.205752 0.083811 0.381217
v -0.205752 0.129167 0.381217
v -0.198948 0.149558 0.381217
v -0.198946 0.033881 0.392558
v -0.198946 0.033881 0.394826
v -0.217098 -0.000162 0.390290
v -0.201217 0.174540 0.385753
v -0.217098 0.011186 0.397098
vn -0.0000 0.9971 0.0767
vn -0.0000 -1.0000 -0.0000
vn -0.1518 0.9870 -0.0520
vn -0.0000 0.0000 -1.0000
vn 0.1513 0.9866 -0.0615
vn 1.0000 0.0000 0.0042
vn -0.0000 0.0000 1.0000
vn 0.9998 0.0212 0.0000
vn -0.9980 0.0000 0.0636
vn -0.0018 0.9981 0.0610
vn 0.0000 1.0000 0.0000
vn 0.0020 0.9981 0.0608
vn 0.0002 0.0635 -0.9980
vn 0.0000 0.0665 -0.9978
vn 0.0001 0.0653 -0.9979
vn 1.0000 0.0000 0.0000
vn 0.0003 0.0623 -0.9981
vn -0.0042 -0.8937 -0.4487
vn -1.0000 -0.0000 0.0000
vn 0.9702 0.2422 0.0000
vn -0.3862 0.0401 -0.9216
vn 0.9954 0.0954 0.0000
vn -0.7079 0.0000 -0.7064
vn -0.9945 -0.1043 0.0061
vn -0.9946 -0.1034 0.0065
vn -0.9953 -0.0969 0.0092
vn 0.4495 0.0000 -0.8933
vn 0.5989 0.0791 -0.7969
vn 0.0000 -0.1247 -0.9922
vn -0.9823 -0.1873 -0.0003
vn -0.9829 -0.1842 -0.0004
vn -0.9813 -0.1923 -0.0001
vn 0.3343 0.0835 0.9387
vn -0.9807 -0.1955 -0.0000
vn 0.0000 0.0587 0.9983
vn -0.9955 -0.0942 0.0102
vn -0.9954 -0.0948 0.0100
vn 0.2200 0.0734 0.9727
vn -0.5545 0.0000 0.8322
vn 0.0000 0.2451 -0.9695
vn -0.8824 -0.4706 0.0000
vn -0.0041 0.0644 0.9979
vn -0.8934 0.0433 0.4473
vn 0.8887 0.1111 -0.4449
vn 0.0422 -0.0847 -0.9955
vn 0.9961 0.0885 0.0000
vn 0.9955 0.0919 0.0221
vn -0.3232 -0.1293 -0.9374
vn -0.6798 -0.2718 -0.6812
vn -0.7558 -0.0458 -0.6533
vn -0.6663 0.1346 -0.7334
vn 0.9980 -0.0637 0.0000
vn -0.5863 -0.2132 -0.7816
vn 0.5967 -0.1058 0.7955
vn 0.1487 -0.0432 0.9879
vn -0.9654 0.0686 0.2516
vn 0.7070 0.0000 -0.7072
vn 0.1165 0.0424 -0.9923
vn 0.7180 0.0463 0.6945
vn -0.9997 0.0000 0.0252
vn 0.0059 1.0000 0.0054
vn 0.9997 0.0077 0.0217
vn 0.9998 0.0032 0.0217
vn 0.9997 0.0109 0.0217
vn 0.9998 0.0000 0.0217
vn 0.0555 0.9984 -0.0133
vn -0.0002 1.0000 0.0049
vn 0.0060 1.0000 0.0077
vn -0.9773 -0.2109 0.0211
vn 0.0000 1.0000 0.0084
vn 0.9993 0.0381 -0.0042
vn -0.9484 0.1419 0.2835
vn -0.5604 0.0000 0.8282
vn 0.9406 -0.3396 -0.0025
vn 1.0000 0.0000 -0.0042
vn 0.9978 0.0665 -0.0053
vn -0.0004 0.0000 -1.0000
vn 0.0091 0.0649 0.9978
vn 0.0094 0.0631 0.9980
vn 0.0092 0.0642 0.9979
vn -0.7045 0.0000 -0.7097
vn 0.0095 0.0623 0.9980
vn 0.7079 -0.0442 -0.7049
vn 0.8952 0.0000 0.4456
vn 0.8952 0.0000 -0.4457
vn -0.6924 -0.2035 0.6923
vn 0.9947 0.1029 0.0000
vn -0.9431 -0.3325 -0.0000
vn -0.1914 0.0478 -0.9804
vn -0.7067 -0.0345 0.7066
vn 0.8069 0.0733 0.5861
vn 0.6312 0.1878 -0.7525
vn -0.9865 0.1638 0.0000
vn -0.7562 0.0165 0.6542
vn 0.0000 0.0713 -0.9975
vn 0.0000 0.0712 -0.9975
vn -0.9984 0.0512 0.0256
vn 0.0000 -0.1238 0.9923
vn 0.0000 -0.0713 0.9975
vn -0.6427 0.0000 0.7662
vn 0.7092 0.0000 0.7050
vn 0.7099 0.0001 0.7043
vn 0.7095 -0.0000 0.7047
vn 0.0000 0.2421 -0.9702
vn -0.6290 0.1882 -0.7543
vn 0.9867 0.1628 0.0000
vn 0.9993 0.0344 0.0172
vn 0.7116 0.0003 0.7026
vn -0.8462 0.1288 0.5171
vn -0.4965 0.0000 -0.8680
vn 0.0000 -0.0644 -0.9979
vn 0.0000 0.0713 0.9975
vn 0.0000 -0.1240 -0.9923
vn 0.8313 0.0000 0.5558
vn 0.7176 0.0903 0.6905
vn 0.9899 -0.1418 0.0000
vn 0.9114 0.0995 0.3993
vn 0.0000 0.2417 0.9703
vn -0.9921 -0.1255 -0.0000
vn 0.5548 0.0000 -0.8320
vn 0.9960 0.0892 0.0000
vn 0.0228 -0.9997 -0.0000
vn 0.0032 -0.1418 -0.9899
vn 0.0075 -0.6909 0.7229
vn -0.9936 0.1007 -0.0503
vn -0.1626 0.0818 0.9833
vn -0.4431 0.0000 0.8965
vn -0.9917 -0.1147 0.0573
vn -0.9944 0.1054 0.0000
vn 0.9864 -0.1641 0.0118
vn 0.1253 0.0751 -0.9893
vn 0.9970 -0.0777 -0.0000
vn 0.0004 0.0011 1.0000
vn 0.0001 0.0003 1.0000
vn -0.9954 0.0954 0.0000
vn -0.9954 0.0955 0.0000
vn -0.4985 0.1301 -0.8571
vn 0.5351 -0.8448 -0.0045
vn -0.8441 -0.5060 -0.1773
vn -0.3902 0.1301 -0.9115
vn -0.9487 0.3163 0.0000
vn -0.8319 0.5549 0.0065
vn 0.9950 -0.0994 0.0100
vn 0.9951 -0.0981 0.0099
vn 0.9953 -0.0967 0.0097
vn 0.9955 -0.0942 0.0095
vn 0.0007 0.0013 1.0000
vn -0.2193 0.0745 0.9728
vn 0.5547 0.0000 0.8320
vn -0.1026 0.0684 0.9924
vn 0.1738 0.0721 -0.9821
vn 0.7596 0.0000 -0.6503
vn 0.0000 0.0995 -0.9950
vn -0.0042 -0.4415 -0.8973
vn -0.0091 0.0000 -1.0000
vn 0.0001 0.0019 1.0000
vn 0.0001 0.0073 1.0000
vn 0.0002 0.0000 1.0000
vn -0.9780 0.0000 0.2084
vn 0.8824 -0.4705 -0.0000
vn 0.0435 0.0650 0.9969
vn 0.6003 -0.4115 0.6858
vn -0.9885 0.0776 -0.1294
vn -0.9951 0.0979 0.0160
vn 0.3972 -0.1515 -0.9052
vn -0.6245 0.0000 -0.7810
vn -0.3899 0.1301 -0.9116
vn 0.9563 0.0342 0.2902
vn 0.6859 -0.0710 -0.7242
usemtl Shape.354
s 1
f 47//1 48//1 49//1
f 50//2 51//2 52//2
f 53//3 52//3 47//3
f 52//4 53//4 54//4
f 50//2 52//2 55//2
f 52//4 54//4 55//4
f 55//5 54//5 48//5
f 51//6 50//6 48//6
f 47//7 51//7 48//7
f 50//8 55//8 48//8
f 52//2 51//2 56//2
f 47//9 52//9 56//9
f 51//7 47//7 56//7
f 53//10 47//10 49//10
f 54//11 53//11 49//11
f 48//12 54//12 49//12
usemtl Shape.358
f 173//11 174//11 175//11
f 176//13 174//14 177//15
f 177//16 178//16 179//16
f 176//13 177//15 179//17
f 176//18 179//18 180//18
f 174//19 176//19 180//19
f 179//2 178//2 180//2
f 180//7 178//7 173//7
f 177//11 174//11 173//11
f 178//16 177//16 173//16
f 174//19 180//19 175//19
f 180//7 173//7 175//7
usemtl Shape.357
f 89//20 90//20 91//20
f 92//16 93//16 94//16
f 95//21 96//21 90//21
f 92//22 90//22 97//22
f 93//7 92//7 98//7
f 96//23 95//23 99//23
f 100//19 96//19 99//19
f 95//24 98//25 99//26
f 92//16 94//16 101//16
f 94//27 95//27 101//27
f 90//22 92//22 101//22
f 95//28 90//28 101//28
f 94//2 93//2 102//2
f 95//29 94//29 102//29
f 98//30 95//31 102//32
f 92//33 97//33 89//33
f 97//20 90//20 89//20
f 93//7 98//7 103//7
f 102//2 93//2 103//2
f 98//30 102//32 103//34
f 96//19 100//19 104//19
f 89//11 96//11 104//11
f 89//35 104//35 105//35
f 98//7 92//7 105//7
f 100//36 99//26 105//37
f 99//26 98//25 105//37
f 92//38 89//38 105//38
f 104//39 100//39 105//39
f 90//40 96//40 91//40
f 96//11 89//11 91//11
usemtl Shape.352
f 140//19 141//19 142//19
f 143//41 144//41 140//41
f 140//42 144//42 145//42
f 140//43 145//43 141//43
f 141//44 145//44 146//44
f 143//45 147//45 146//45
f 144//46 143//46 146//46
f 145//47 144//47 146//47
f 147//4 141//4 146//4
f 147//48 143//48 142//48
f 143//49 140//49 142//49
f 141//50 147//50 142//50
usemtl Shape.342
f 166//51 167//51 168//51
f 169//52 170//52 171//52
f 166//53 171//53 172//53
f 171//54 170//54 172//54
f 172//55 170//55 167//55
f 166//56 172//56 167//56
f 170//16 169//16 168//16
f 169//57 171//57 168//57
f 171//58 166//58 168//58
f 167//59 170//59 168//59
usemtl Shape.356
f 57//11 58//11 59//11
f 60//4 57//4 61//4
f 57//11 60//11 58//11
f 60//19 61//19 58//19
f 57//16 62//16 63//16
f 61//4 57//4 63//4
f 62//2 61//2 63//2
f 61//2 62//2 64//2
f 62//7 58//7 64//7
f 58//19 61//19 64//19
f 62//16 57//16 59//16
f 58//7 62//7 59//7
usemtl Shape.353
f 65//60 66//60 67//60
f 68//19 69//19 70//19
f 69//11 68//11 71//61
f 72//62 73//63 71//64
f 70//2 73//2 65//2
f 73//2 70//2 74//2
f 71//16 73//16 74//16
f 70//19 69//19 75//19
f 69//4 74//4 75//4
f 74//2 70//2 75//2
f 65//7 72//7 66//7
f 73//63 72//62 76//65
f 65//2 73//2 76//2
f 72//7 65//7 76//7
f 69//66 71//66 77//66
f 74//4 69//4 77//4
f 71//16 74//16 77//16
f 68//19 70//19 67//19
f 71//61 68//11 67//67
f 72//68 71//61 67//67
f 70//69 65//69 67//69
f 66//70 72//68 67//67
usemtl Shape.355
f 148//7 149//7 150//7
f 151//16 152//16 149//16
f 152//2 151//2 148//2
f 151//7 149//7 148//7
f 152//4 153//4 154//4
f 149//16 152//16 154//16
f 153//11 149//11 154//11
f 153//4 152//4 155//4
f 148//19 153//19 155//19
f 152//2 148//2 155//2
f 149//11 153//11 150//11
f 153//19 148//19 150//19
usemtl Shape.351
f 156//71 157//71 158//71
f 156//72 159//72 160//72
f 161//73 156//73 160//73
f 162//2 161//2 160//2
f 159//11 156//11 163//11
f 160//19 159//19 164//19
f 162//2 160//2 164//2
f 159//19 163//19 164//19
f 163//4 162//4 164//4
f 163//11 156//11 165//11
f 162//4 163//4 165//4
f 156//16 161//16 157//16
f 161//74 162//74 157//74
f 157//75 162//75 158//75
f 165//76 156//76 158//76
f 162//4 165//4 158//77
usemtl Shape.343
f 78//7 79//7 80//7
f 79//19 81//19 82//19
f 82//2 83//2 78//2
f 79//78 78//79 84//80
f 81//11 79//11 84//11
f 82//81 81//81 85//81
f 81//11 84//11 85//11
f 82//81 85//81 86//81
f 83//2 82//2 86//2
f 85//4 83//4 86//4
f 84//16 83//16 87//16
f 83//4 85//4 87//4
f 85//11 84//11 87//11
f 78//2 83//2 88//2
f 84//80 78//79 88//82
f 83//16 84//16 88//16
f 79//19 82//19 80//19
f 82//2 78//2 80//2
usemtl Shape.348
f 36//16 37//16 38//16
f 39//7 40//7 41//7
f 40//2 39//2 37//2
f 42//83 37//83 43//83
f 37//2 39//2 43//2
f 39//7 41//7 44//7
f 41//11 42//11 44//11
f 43//19 39//19 44//19
f 41//84 40//84 36//84
f 42//11 41//11 36//11
f 42//4 43//4 45//4
f 44//11 42//11 45//11
f 43//19 44//19 45//19
f 40//2 37//2 46//2
f 36//84 40//84 46//84
f 37//16 36//16 46//16
f 37//85 42//85 38//85
f 42//11 36//11 38//11
usemtl Shape.346
f 13//86 14//86 15//86
f 16//87 14//87 17//87
f 17//88 14//88 13//88
f 16//89 17//89 13//89
f 16//90 13//90 15//90
f 14//91 16//91 15//91
usemtl Shape.349
f 18//92 19//92 20//92
f 21//93 22//93 23//93
f 24//94 21//94 23//94
f 23//95 25//96 26//96
f 27//19 24//19 26//19
f 25//4 27//4 26//4
f 24//97 23//97 26//97
f 24//98 28//98 29//98
f 30//99 24//99 29//99
f 28//16 25//16 29//16
f 30//7 21//7 31//7
f 21//100 24//100 31//100
f 24//99 30//99 31//99
f 22//11 21//11 32//11
f 21//7 30//7 32//7
f 30//101 29//102 32//103
f 22//104 18//104 33//104
f 23//105 22//105 33//105
f 18//95 23//95 33//95
f 28//2 27//2 34//2
f 25//16 28//16 34//16
f 27//4 25//4 34//4
f 27//2 28//2 35//2
f 24//19 27//19 35//19
f 28//98 24//98 35//98
f 18//104 22//104 19//104
f 22//11 32//11 19//11
f 19//106 32//106 20//106
f 23//95 18//95 20//95
f 25//96 23//95 20//95
f 29//107 25//107 20//107
f 32//103 29//102 20//108
usemtl Shape.344
f 106//109 107//109 108//109
f 109//110 110//110 111//110
f 110//111 112//111 111//111
f 110//4 109//4 113//4
f 112//111 110//111 113//111
f 114//112 115//112 106//112
f 111//113 112//113 116//113
f 114//7 117//7 118//7
f 115//112 114//112 118//112
f 117//114 112//114 118//114
f 112//115 115//115 118//115
f 112//116 117//116 119//116
f 115//117 112//117 120//117
f 106//118 115//118 120//118
f 117//7 114//7 121//7
f 111//119 116//119 121//119
f 113//4 109//4 122//4
f 112//120 113//120 122//120
f 120//121 112//121 122//121
f 109//11 120//11 122//11
f 116//113 112//113 123//113
f 119//122 117//122 123//122
f 112//123 119//123 123//123
f 117//124 121//124 123//124
f 121//2 116//2 123//2
f 120//11 109//11 107//11
f 106//118 120//118 107//118
f 109//125 111//125 108//125
f 114//126 106//126 108//126
f 121//127 114//127 108//127
f 111//128 121//128 108//128
f 107//129 109//129 108//129
usemtl Shape.345
f 124//11 125//11 126//11
f 127//130 128//130 129//130
f 130//131 129//131 131//131
f 132//132 129//132 133//132
f 128//7 127//133 134//134
f 135//135 131//136 134//135
f 130//137 131//137 136//137
f 131//136 135//135 136//136
f 129//138 128//138 137//138
f 131//139 129//139 137//139
f 134//19 131//19 137//19
f 132//16 133//16 125//16
f 130//140 136//140 124//140
f 136//141 135//141 124//141
f 135//142 125//142 124//142
f 128//7 134//134 138//7
f 137//2 128//2 138//2
f 134//19 137//19 138//19
f 127//143 129//144 139//145
f 129//144 132//146 139//145
f 134//134 127//133 139//147
f 135//148 134//148 139//148
f 132//149 125//149 139//149
f 125//150 135//150 139//150
f 129//151 130//151 126//151
f 133//152 129//152 126//152
f 125//16 133//16 126//16
f 130//153 124//153 126//153
usemtl Shape.347
f 1//19 2//19 3//19
f 4//11 1//11 5//11
f 4//154 6//154 7//154
f 1//155 4//155 7//155
f 6//2 8//2 7//2
f 5//11 1//11 9//11
f 8//156 5//157 9//157
f 4//11 5//11 10//11
f 5//16 6//16 10//16
f 6//4 4//4 10//4
f 5//157 8//156 11//158
f 8//2 6//2 11//2
f 6//16 5//16 11//16
f 7//2 8//2 12//2
f 8//156 9//157 12//7
f 12//159 9//159 2//159
f 1//19 7//19 2//19
f 7//2 12//2 2//2
f 9//11 1//11 3//11
f 2//159 9//159 3//159
usemtl Shape.350
f 181//4 182//4 183//4
f 184//160 185//160 186//160
f 185//161 187//161 188//161
f 186//162 185//162 188//162
f 182//163 186//163 188//163
f 187//164 182//164 188//164
f 184//165 186//165 181//165
f 186//166 182//166 181//166
f 185//16 184//16 183//16
f 182//167 187//167 183//167
f 187//168 185//168 183//168
f 184//169 181//169 183//169
