# Blender v2.78 (sub 0) OBJ File: ''
# www.blender.org
mtllib SinkAreaHandle.mtl
o Shape_IndexedFaceSet.001_Shape_IndexedFaceSet.028
v 0.008575 0.335680 -0.008301
v -0.009053 0.335680 0.007722
v -0.009053 0.335680 -0.008301
v 0.008575 0.353301 0.007722
v 0.008575 0.335680 0.007722
v 0.008575 0.353301 -0.008301
v -0.053913 0.353301 0.007722
v -0.053913 0.337280 -0.008301
v -0.053913 0.353301 -0.008301
v -0.053913 0.337280 0.007722
v -0.009050 0.335676 -0.008301
v -0.009050 -0.335676 0.007722
v -0.009050 0.335676 0.007722
v -0.009050 -0.335676 -0.008301
v 0.008575 -0.335676 -0.008301
v 0.008575 0.335676 0.007722
v 0.008575 -0.335676 0.007722
v 0.008575 0.335676 -0.008301
v -0.009053 -0.335680 0.007722
v 0.008575 -0.335680 -0.008301
v -0.009053 -0.335680 -0.008301
v 0.008575 -0.335680 0.007722
v 0.008575 -0.353301 0.007722
v -0.053913 -0.337280 -0.008301
v 0.008575 -0.353301 -0.008301
v -0.053913 -0.353301 0.007722
v -0.053913 -0.337280 0.007722
v -0.053913 -0.353301 -0.008301
vn -1.0000 0.0000 0.0000
vn 0.0000 -1.0000 0.0000
vn 0.0000 0.0000 -1.0000
vn 1.0000 0.0000 0.0000
vn 0.0000 -0.0000 1.0000
vn 0.0000 1.0000 0.0000
vn -0.0356 -0.9994 0.0000
vn -0.0356 0.9994 0.0000
usemtl Shape.446
s 1
f 11//1 12//1 13//1
f 14//2 15//2 12//2
f 15//3 14//3 11//3
f 14//1 12//1 11//1
f 15//4 16//4 17//4
f 12//2 15//2 17//2
f 16//5 12//5 17//5
f 16//4 15//4 18//4
f 11//6 16//6 18//6
f 15//3 11//3 18//3
f 12//5 16//5 13//5
f 16//6 11//6 13//6
usemtl Shape.445
f 1//2 2//2 3//2
f 4//4 5//4 6//4
f 5//5 4//5 7//5
f 4//6 6//6 7//6
f 6//4 5//4 1//4
f 8//3 6//3 1//3
f 6//3 8//3 9//3
f 8//1 7//1 9//1
f 7//6 6//6 9//6
f 7//1 8//1 10//1
f 5//5 7//5 10//5
f 1//2 5//2 2//2
f 10//7 8//7 2//7
f 5//5 10//5 2//5
f 8//3 1//3 3//3
f 2//7 8//7 3//7
usemtl Shape.444
f 19//6 20//6 21//6
f 20//4 22//4 23//4
f 24//3 20//3 25//3
f 20//4 23//4 25//4
f 23//5 22//5 26//5
f 25//2 23//2 26//2
f 26//5 22//5 27//5
f 24//1 26//1 27//1
f 24//3 25//3 28//3
f 26//1 24//1 28//1
f 25//2 26//2 28//2
f 22//6 20//6 19//6
f 27//5 22//5 19//5
f 24//8 27//8 19//8
f 20//3 24//3 21//3
f 24//8 19//8 21//8
