# Blender v2.78 (sub 0) OBJ File: ''
# www.blender.org
mtllib SinkAreaSmallDrawer.mtl
o Shape_IndexedFaceSet.004_Shape_IndexedFaceSet.075
v -0.249635 0.048172 0.322906
v -0.249635 0.020576 -0.322906
v -0.249635 0.020576 0.322906
v -0.249635 0.048172 -0.322906
v 0.252760 0.048172 -0.322906
v 0.252760 0.020576 0.322906
v 0.252760 0.020576 -0.322906
v 0.252760 0.048172 0.322906
v -0.282708 -0.045677 0.322969
v 0.252708 0.020570 0.322969
v -0.255088 -0.045677 0.322969
v -0.282708 0.048177 0.322969
v -0.282708 0.048177 0.350573
v 0.252708 0.048177 0.322969
v 0.252708 -0.045677 0.328494
v 0.252708 -0.045677 0.350573
v 0.252708 0.048177 0.350573
v -0.282708 -0.045677 0.350573
v -0.282708 -0.045677 -0.322969
v 0.252708 -0.045677 -0.328494
v -0.255088 -0.045677 -0.322969
v -0.282708 0.048177 -0.350573
v -0.282708 -0.045677 -0.350573
v -0.282708 0.048177 -0.322969
v 0.252708 0.048177 -0.350573
v 0.252708 0.020570 -0.322969
v 0.252708 -0.045677 -0.350573
v 0.252708 0.048177 -0.322969
v -0.255163 -0.045677 -0.322906
v -0.249635 0.048177 -0.322906
v -0.249635 0.020570 -0.322906
v -0.249635 0.020570 0.322906
v -0.255163 -0.045677 0.322906
v -0.282751 -0.045677 0.322906
v -0.282751 0.048177 -0.322906
v -0.282751 0.048177 0.322906
v -0.282751 -0.045677 -0.322906
v -0.249635 0.048177 0.322906
v 0.258286 -0.067760 -0.400260
v 0.252760 -0.045658 0.350502
v 0.252760 -0.045658 -0.350502
v 0.258286 -0.067760 0.400260
v 0.280362 -0.067760 0.400260
v 0.280362 0.070260 0.400260
v 0.280365 -0.067760 -0.400260
v 0.280365 0.070260 -0.400260
v 0.258286 0.070260 0.400260
v 0.252760 0.048171 -0.350502
v 0.258286 0.070260 -0.400260
v 0.252760 0.048171 0.350502
vn -1.0000 -0.0000 0.0000
vn 0.0000 0.0000 -1.0000
vn 0.0000 1.0000 0.0000
vn 1.0000 0.0000 0.0000
vn 0.0000 -1.0000 -0.0000
vn 0.0000 -0.0000 1.0000
vn 0.0108 -0.0831 -0.9965
vn -0.9701 -0.2426 -0.0000
vn -0.9939 0.0000 0.1104
vn -0.9701 0.2427 0.0000
vn -0.9939 0.0000 -0.1104
vn 0.0108 -0.0831 0.9965
vn -0.0001 0.0000 -1.0000
vn 0.9965 -0.0832 -0.0000
usemtl Shape.075
s 1
f 1//1 2//1 3//1
f 4//2 5//2 2//2
f 5//3 4//3 1//3
f 4//1 2//1 1//1
f 5//4 6//4 7//4
f 2//2 5//2 7//2
f 6//5 2//5 7//5
f 6//4 5//4 8//4
f 1//6 6//6 8//6
f 5//3 1//3 8//3
f 2//5 6//5 3//5
f 6//6 1//6 3//6
usemtl Shape.073
f 9//2 10//2 11//2
f 12//1 9//1 13//1
f 9//2 12//2 14//2
f 12//3 13//3 14//3
f 9//5 15//5 16//5
f 15//4 14//4 16//4
f 16//4 14//4 17//4
f 14//3 13//3 17//3
f 13//6 16//6 17//6
f 13//1 9//1 18//1
f 9//5 16//5 18//5
f 16//6 13//6 18//6
f 14//4 15//4 10//4
f 9//2 14//2 10//2
f 15//5 9//5 11//5
f 10//7 15//7 11//7
usemtl Shape.071
f 39//8 40//8 41//8
f 42//6 43//6 44//6
f 43//5 42//5 45//5
f 44//4 43//4 45//4
f 44//4 45//4 46//4
f 42//6 44//6 47//6
f 44//3 46//3 47//3
f 45//5 42//5 39//5
f 46//2 45//2 39//2
f 42//9 47//9 40//9
f 39//8 42//8 40//8
f 48//10 47//10 49//10
f 47//3 46//3 49//3
f 39//11 48//11 49//11
f 46//2 39//2 49//2
f 47//10 48//10 50//10
f 48//1 40//1 50//1
f 40//9 47//9 50//9
f 48//11 39//11 41//11
f 40//1 48//1 41//1
usemtl Shape.072
f 19//5 20//5 21//5
f 22//1 23//1 24//1
f 23//2 22//2 25//2
f 22//3 24//3 25//3
f 25//4 26//4 20//4
f 24//1 23//1 19//1
f 26//6 24//6 19//6
f 23//5 20//5 19//5
f 23//2 25//2 27//2
f 20//5 23//5 27//5
f 25//4 20//4 27//4
f 24//6 26//6 28//6
f 26//4 25//4 28//4
f 25//3 24//3 28//3
f 20//12 26//12 21//12
f 26//6 19//6 21//6
usemtl Shape.074
f 29//2 30//2 31//13
f 32//14 33//14 29//14
f 33//6 32//6 34//6
f 29//5 33//5 34//5
f 35//1 34//1 36//1
f 34//6 32//6 36//6
f 29//2 35//2 30//2
f 35//3 36//3 30//3
f 35//2 29//2 37//2
f 34//1 35//1 37//1
f 29//5 34//5 37//5
f 36//6 32//6 38//6
f 32//4 30//4 38//4
f 30//3 36//3 38//3
f 32//14 29//14 31//14
f 30//4 32//4 31//4
