# Blender v2.78 (sub 0) OBJ File: ''
# www.blender.org
mtllib SinkAreaPanel.mtl
o Shape_IndexedFaceSet_Shape_IndexedFaceSet.024
v 0.011768 -0.070366 -0.298951
v -0.011451 -0.070366 0.298951
v -0.011451 -0.070366 -0.298951
v 0.011768 -0.070366 0.298951
v 0.011768 0.068951 0.298951
v -0.011451 0.068951 -0.298951
v -0.011451 0.068951 0.298951
v 0.011768 0.068951 -0.298951
vn 0.0000 -1.0000 -0.0000
vn 0.0000 -0.0000 1.0000
vn 1.0000 0.0000 0.0000
vn 0.0000 1.0000 0.0000
vn -1.0000 -0.0000 0.0000
vn 0.0000 0.0000 -1.0000
usemtl Shape.1049
s 1
f 1//1 2//1 3//1
f 4//2 5//2 2//2
f 5//3 4//3 1//3
f 4//1 2//1 1//1
f 5//4 6//4 7//4
f 2//2 5//2 7//2
f 6//5 2//5 7//5
f 6//4 5//4 8//4
f 1//6 6//6 8//6
f 5//3 1//3 8//3
f 2//5 6//5 3//5
f 6//6 1//6 3//6
