# Blender v2.78 (sub 0) OBJ File: ''
# www.blender.org
mtllib SinkAreaInnerDishWasher.mtl
o Shape_IndexedFaceSet.010_Shape_IndexedFaceSet.040
v 0.278300 0.223236 0.297782
v -0.061951 0.138175 0.308416
v -0.061951 0.223236 0.297782
v 0.278300 0.255147 0.297782
v 0.278300 0.255147 0.340309
v 0.278300 0.138175 0.308416
v -0.061951 0.255147 0.297782
v -0.061951 0.138175 0.340309
v -0.061951 0.255147 0.340309
v 0.278300 0.138175 0.340309
v -0.242760 0.255156 0.297691
v 0.278300 0.255156 -0.297690
v -0.242760 0.255156 -0.297690
v 0.278300 0.255156 0.297691
v 0.278300 0.223254 0.297691
v -0.242760 0.223254 -0.297690
v -0.242760 0.223254 0.297691
v 0.278300 0.223254 -0.297690
v -0.242760 0.255159 0.297782
v -0.062019 0.223187 0.297782
v -0.242760 0.223187 0.297782
v -0.242760 -0.212778 0.308416
v -0.062019 -0.212778 0.308416
v -0.242760 -0.212778 0.340313
v -0.062019 0.255159 0.340305
v -0.062019 0.255159 0.297782
v -0.242760 0.255159 0.340305
v -0.062019 -0.212778 0.340313
v 0.278300 -0.212778 0.308413
v -0.061951 0.138175 0.308413
v 0.278300 0.138175 0.308413
v -0.061951 -0.212778 0.308413
v -0.061951 -0.212778 0.340317
v 0.278300 0.138175 0.340317
v 0.278300 -0.212778 0.340317
v -0.061951 0.138175 0.340317
v 0.278300 -0.212778 -0.308403
v -0.061951 -0.212778 -0.340317
v -0.061951 -0.212778 -0.308403
v 0.278300 -0.255313 0.010635
v 0.278300 -0.223416 0.010635
v -0.061951 -0.223416 0.010635
v 0.278300 -0.255313 -0.340317
v -0.061951 -0.255313 -0.340317
v 0.278300 -0.212778 -0.340317
v -0.061951 -0.255313 0.010635
v -0.062006 -0.212778 -0.340284
v -0.062006 -0.255313 0.340284
v -0.062006 -0.255313 -0.340284
v -0.062006 -0.212778 0.340284
v -0.285274 -0.212778 0.340284
v -0.285274 -0.255313 -0.340284
v -0.285274 -0.255313 0.340284
v -0.285274 -0.212778 -0.340284
v -0.061951 -0.212778 0.340285
v 0.278300 -0.212778 0.308372
v -0.061951 -0.212778 0.308372
v -0.061951 -0.223416 0.010667
v -0.061951 -0.255313 0.010667
v 0.278300 -0.212778 0.340285
v -0.061951 -0.255313 0.340285
v 0.278300 -0.255313 0.010667
v 0.278300 -0.255313 0.340285
v 0.278300 -0.223416 0.010667
v -0.242782 0.255159 0.000033
v -0.242782 -0.212778 0.308377
v -0.242782 0.223187 0.000033
v -0.242782 0.255159 0.340251
v -0.285313 0.255159 0.340251
v -0.242782 -0.212778 0.340251
v -0.253419 -0.212778 0.000033
v -0.285313 -0.212778 0.000033
v -0.285313 -0.212778 0.340251
v -0.285313 0.255159 0.000033
v -0.253419 -0.212778 -0.000033
v -0.242782 -0.212778 -0.308377
v -0.242782 0.223187 -0.000033
v -0.285313 0.255159 -0.000033
v -0.242782 0.255159 -0.000033
v -0.242782 0.255159 -0.340251
v -0.242782 -0.212778 -0.340251
v -0.285313 -0.212778 -0.340251
v -0.285313 0.255159 -0.340251
v -0.285313 -0.212778 -0.000033
v -0.061951 0.095635 -0.308416
v 0.278300 0.223229 -0.297782
v -0.061951 0.223229 -0.297782
v 0.278300 0.255143 -0.297782
v 0.278300 0.255143 -0.340309
v -0.061951 0.255143 -0.297782
v 0.278300 0.095635 -0.340309
v -0.061951 0.255143 -0.340309
v 0.278300 0.095635 -0.308416
v -0.061951 0.095635 -0.340309
v 0.278300 -0.212778 -0.308413
v -0.061951 0.095635 -0.308413
v -0.061951 -0.212778 -0.308413
v 0.278300 0.095635 -0.308413
v 0.278300 0.095635 -0.340317
v -0.061951 -0.212778 -0.340317
v 0.278300 -0.212778 -0.340317
v -0.061951 0.095635 -0.340317
v -0.242760 -0.212778 -0.308416
v -0.062019 0.223187 -0.297782
v -0.242760 0.223187 -0.297782
v -0.242760 -0.212778 -0.340313
v -0.062019 -0.212778 -0.340313
v -0.242760 0.255159 -0.340305
v -0.062019 0.255159 -0.297782
v -0.242760 0.255159 -0.297782
v -0.062019 0.255159 -0.340305
v -0.062019 -0.212778 -0.308416
vn 0.0000 0.0000 -1.0000
vn 0.0000 -1.0000 0.0000
vn -1.0000 -0.0000 0.0000
vn 1.0000 0.0000 0.0000
vn 0.0000 1.0000 0.0000
vn 0.0000 0.0000 1.0000
vn 0.0000 -0.0244 -0.9997
vn 0.0000 -0.1241 -0.9923
vn 0.0000 0.9994 0.0333
vn 0.0000 0.9994 -0.0357
vn 0.9991 -0.0244 -0.0345
vn 0.9991 -0.0244 0.0345
vn 0.0000 -0.0831 0.9965
vn 0.0000 -0.0244 0.9997
usemtl Shape.450
s 1
f 19//1 20//1 21//1
f 22//2 23//2 24//2
f 19//3 22//3 24//3
f 25//4 23//4 26//4
f 19//5 25//5 26//5
f 25//5 19//5 27//5
f 24//6 25//6 27//6
f 19//3 24//3 27//3
f 23//4 25//4 28//4
f 25//6 24//6 28//6
f 24//2 23//2 28//2
f 23//7 22//7 20//7
f 26//4 23//4 20//4
f 19//1 26//1 20//1
f 22//3 19//3 21//3
f 20//7 22//7 21//7
usemtl Shape.455
f 1//8 2//8 3//8
f 4//4 5//4 6//4
f 5//5 4//5 7//5
f 2//2 6//2 8//2
f 7//3 2//3 8//3
f 5//5 7//5 9//5
f 8//6 5//6 9//6
f 7//3 8//3 9//3
f 6//4 5//4 10//4
f 5//6 8//6 10//6
f 8//2 6//2 10//2
f 4//4 6//4 1//4
f 6//8 2//8 1//8
f 7//1 4//1 1//1
f 7//1 1//1 3//1
f 2//3 7//3 3//3
usemtl Shape.452
f 11//5 12//5 13//5
f 14//4 15//4 12//4
f 15//6 14//6 11//6
f 14//5 12//5 11//5
f 16//2 15//2 17//2
f 11//3 16//3 17//3
f 15//6 11//6 17//6
f 15//2 16//2 18//2
f 12//4 15//4 18//4
f 16//1 12//1 18//1
f 12//1 16//1 13//1
f 16//3 11//3 13//3
usemtl Shape.449
f 29//1 30//1 31//1
f 32//3 33//3 30//3
f 33//2 32//2 29//2
f 32//1 30//1 29//1
f 34//6 33//6 35//6
f 29//4 34//4 35//4
f 33//2 29//2 35//2
f 33//6 34//6 36//6
f 30//3 33//3 36//3
f 34//5 30//5 36//5
f 30//5 34//5 31//5
f 34//4 29//4 31//4
usemtl Shape.456
f 37//5 38//5 39//5
f 40//6 41//6 42//6
f 41//4 40//4 43//4
f 43//2 40//2 44//2
f 42//3 38//3 44//3
f 38//1 43//1 44//1
f 43//1 38//1 45//1
f 41//4 43//4 45//4
f 40//6 42//6 46//6
f 44//2 40//2 46//2
f 42//3 44//3 46//3
f 42//9 41//9 37//9
f 41//4 45//4 37//4
f 45//5 38//5 37//5
f 38//3 42//3 39//3
f 42//9 37//9 39//9
usemtl Shape.453
f 47//4 48//4 49//4
f 50//6 51//6 48//6
f 51//5 50//5 47//5
f 50//4 48//4 47//4
f 51//3 52//3 53//3
f 48//6 51//6 53//6
f 52//2 48//2 53//2
f 52//3 51//3 54//3
f 47//1 52//1 54//1
f 51//5 47//5 54//5
f 48//2 52//2 49//2
f 52//1 47//1 49//1
usemtl Shape.454
f 55//5 56//5 57//5
f 58//3 59//3 55//3
f 60//6 55//6 61//6
f 55//3 59//3 61//3
f 61//2 59//2 62//2
f 59//1 58//1 62//1
f 60//6 61//6 63//6
f 61//2 62//2 63//2
f 62//4 60//4 63//4
f 60//4 62//4 64//4
f 62//1 58//1 64//1
f 55//5 60//5 56//5
f 60//4 64//4 56//4
f 64//10 58//10 56//10
f 58//3 55//3 57//3
f 56//10 58//10 57//10
usemtl Shape.451
f 65//4 66//4 67//4
f 68//5 65//5 69//5
f 65//4 68//4 70//4
f 68//6 69//6 70//6
f 65//1 71//1 72//1
f 71//2 70//2 72//2
f 72//2 70//2 73//2
f 70//6 69//6 73//6
f 69//3 72//3 73//3
f 69//5 65//5 74//5
f 65//1 72//1 74//1
f 72//3 69//3 74//3
f 70//2 71//2 66//2
f 65//4 70//4 66//4
f 71//1 65//1 67//1
f 66//11 71//11 67//11
usemtl Shape.448
f 75//12 76//12 77//12
f 78//5 79//5 80//5
f 79//6 78//6 75//6
f 80//4 79//4 81//4
f 82//1 80//1 81//1
f 75//2 82//2 81//2
f 82//3 78//3 83//3
f 78//5 80//5 83//5
f 80//1 82//1 83//1
f 78//3 82//3 84//3
f 82//2 75//2 84//2
f 75//6 78//6 84//6
f 81//4 79//4 76//4
f 75//2 81//2 76//2
f 79//6 75//6 77//6
f 76//4 79//4 77//4
usemtl Shape.458
f 85//13 86//13 87//13
f 88//5 89//5 90//5
f 89//4 88//4 91//4
f 90//5 89//5 92//5
f 85//3 90//3 92//3
f 89//1 91//1 92//1
f 85//2 91//2 93//2
f 91//4 88//4 93//4
f 91//2 85//2 94//2
f 85//3 92//3 94//3
f 92//1 91//1 94//1
f 88//6 90//6 86//6
f 93//4 88//4 86//4
f 85//13 93//13 86//13
f 90//3 85//3 87//3
f 86//6 90//6 87//6
usemtl Shape.447
f 95//6 96//6 97//6
f 98//5 99//5 96//5
f 99//4 98//4 95//4
f 98//6 96//6 95//6
f 100//1 99//1 101//1
f 95//2 100//2 101//2
f 99//4 95//4 101//4
f 99//1 100//1 102//1
f 96//5 99//5 102//5
f 100//3 96//3 102//3
f 96//3 100//3 97//3
f 100//2 95//2 97//2
usemtl Shape.457
f 103//14 104//14 105//14
f 103//2 106//2 107//2
f 106//3 103//3 108//3
f 107//1 106//1 108//1
f 109//5 108//5 110//5
f 108//3 103//3 110//3
f 109//4 107//4 111//4
f 108//5 109//5 111//5
f 107//1 108//1 111//1
f 103//2 107//2 112//2
f 107//4 109//4 112//4
f 109//6 110//6 104//6
f 112//4 109//4 104//4
f 103//14 112//14 104//14
f 110//3 103//3 105//3
f 104//6 110//6 105//6
