# Blender v2.78 (sub 0) OBJ File: ''
# www.blender.org
mtllib SinkAreaSmallHandle.mtl
o Shape_IndexedFaceSet.001_Shape_IndexedFaceSet.077
v -0.008105 0.008263 0.234955
v -0.008105 -0.008520 -0.234955
v -0.008105 -0.008520 0.234955
v -0.008105 0.008263 -0.234955
v 0.008678 0.008263 -0.234955
v 0.008678 -0.008520 0.234955
v 0.008678 -0.008520 -0.234955
v 0.008678 0.008263 0.234955
v -0.008111 -0.008520 -0.234956
v 0.008678 0.008263 -0.234956
v -0.008111 0.008263 -0.234956
v 0.008678 -0.008520 -0.234956
v 0.008678 -0.008520 -0.253261
v -0.053875 0.008263 -0.236483
v 0.008678 0.008263 -0.253261
v -0.053875 -0.008520 -0.253261
v -0.053875 -0.008520 -0.236483
v -0.053875 0.008263 -0.253261
v 0.008678 0.008263 0.234956
v -0.008111 -0.008520 0.234956
v -0.008111 0.008263 0.234956
v 0.008678 -0.008520 0.253261
v 0.008678 -0.008520 0.234956
v 0.008678 0.008263 0.253261
v -0.053875 -0.008520 0.253261
v -0.053875 0.008263 0.236483
v -0.053875 0.008263 0.253261
v -0.053875 -0.008520 0.236483
vn -1.0000 0.0000 0.0000
vn 0.0000 0.0000 -1.0000
vn 0.0000 1.0000 0.0000
vn 1.0000 0.0000 0.0000
vn 0.0000 -1.0000 -0.0000
vn 0.0000 0.0000 1.0000
vn -0.0333 0.0000 -0.9994
vn -0.0333 0.0000 0.9994
usemtl Shape.077
s 1
f 1//1 2//1 3//1
f 4//2 5//2 2//2
f 5//3 4//3 1//3
f 4//1 2//1 1//1
f 5//4 6//4 7//4
f 2//2 5//2 7//2
f 6//5 2//5 7//5
f 6//4 5//4 8//4
f 1//6 6//6 8//6
f 5//3 1//3 8//3
f 2//5 6//5 3//5
f 6//6 1//6 3//6
usemtl Shape.078
f 19//2 20//2 21//2
f 22//4 23//4 24//4
f 23//5 22//5 25//5
f 22//6 24//6 25//6
f 24//4 23//4 19//4
f 26//3 24//3 19//3
f 24//3 26//3 27//3
f 26//1 25//1 27//1
f 25//6 24//6 27//6
f 25//1 26//1 28//1
f 23//5 25//5 28//5
f 19//2 23//2 20//2
f 28//7 26//7 20//7
f 23//5 28//5 20//5
f 26//3 19//3 21//3
f 20//7 26//7 21//7
usemtl Shape.076
f 9//6 10//6 11//6
f 10//4 12//4 13//4
f 14//3 10//3 15//3
f 10//4 13//4 15//4
f 13//5 12//5 16//5
f 15//2 13//2 16//2
f 16//5 12//5 17//5
f 14//1 16//1 17//1
f 14//3 15//3 18//3
f 16//1 14//1 18//1
f 15//2 16//2 18//2
f 12//6 10//6 9//6
f 17//5 12//5 9//5
f 14//8 17//8 9//8
f 10//3 14//3 11//3
f 14//8 9//8 11//8
