# Blender v2.78 (sub 0) OBJ File: ''
# www.blender.org
mtllib SinkAreaDishWasherHandle.mtl
o Shape_IndexedFaceSet.001_Shape_IndexedFaceSet.025
v -0.008111 -0.234956 0.008520
v 0.008678 -0.234956 -0.008263
v -0.008111 -0.234956 -0.008263
v 0.008678 -0.234956 0.008520
v 0.008678 -0.253261 0.008520
v -0.053875 -0.236483 -0.008263
v 0.008678 -0.253261 -0.008263
v -0.053875 -0.253261 0.008520
v -0.053875 -0.236483 0.008520
v -0.053875 -0.253261 -0.008263
v 0.008678 0.234956 -0.008263
v -0.008111 0.234956 0.008520
v -0.008111 0.234956 -0.008263
v 0.008678 0.253261 0.008520
v 0.008678 0.234956 0.008520
v 0.008678 0.253261 -0.008263
v -0.053875 0.253261 0.008520
v -0.053875 0.236483 -0.008263
v -0.053875 0.253261 -0.008263
v -0.053875 0.236483 0.008520
v -0.008105 0.234955 -0.008263
v -0.008105 -0.234955 0.008520
v -0.008105 0.234955 0.008520
v -0.008105 -0.234955 -0.008263
v 0.008678 -0.234955 -0.008263
v 0.008678 0.234955 0.008520
v 0.008678 -0.234955 0.008520
v 0.008678 0.234955 -0.008263
vn -1.0000 -0.0000 0.0000
vn 0.0000 -1.0000 0.0000
vn 0.0000 0.0000 -1.0000
vn 1.0000 0.0000 0.0000
vn 0.0000 -0.0000 1.0000
vn 0.0000 1.0000 0.0000
vn -0.0333 0.9994 0.0000
vn -0.0333 -0.9994 0.0000
usemtl Shape.441
s 1
f 21//1 22//1 23//1
f 24//2 25//2 22//2
f 25//3 24//3 21//3
f 24//1 22//1 21//1
f 25//4 26//4 27//4
f 22//2 25//2 27//2
f 26//5 22//5 27//5
f 26//4 25//4 28//4
f 21//6 26//6 28//6
f 25//3 21//3 28//3
f 22//5 26//5 23//5
f 26//6 21//6 23//6
usemtl Shape.443
f 1//6 2//6 3//6
f 2//4 4//4 5//4
f 6//3 2//3 7//3
f 2//4 5//4 7//4
f 5//5 4//5 8//5
f 7//2 5//2 8//2
f 8//5 4//5 9//5
f 6//1 8//1 9//1
f 6//3 7//3 10//3
f 8//1 6//1 10//1
f 7//2 8//2 10//2
f 4//6 2//6 1//6
f 9//5 4//5 1//5
f 6//7 9//7 1//7
f 2//3 6//3 3//3
f 6//7 1//7 3//7
usemtl Shape.442
f 11//2 12//2 13//2
f 14//4 15//4 16//4
f 15//5 14//5 17//5
f 14//6 16//6 17//6
f 16//4 15//4 11//4
f 18//3 16//3 11//3
f 16//3 18//3 19//3
f 18//1 17//1 19//1
f 17//6 16//6 19//6
f 17//1 18//1 20//1
f 15//5 17//5 20//5
f 11//2 15//2 12//2
f 20//8 18//8 12//8
f 15//5 20//5 12//5
f 18//3 11//3 13//3
f 12//8 18//8 13//8
