# Blender v2.78 (sub 0) OBJ File: ''
# www.blender.org
mtllib SinkAreaTrash.mtl
o Shape_IndexedFaceSet_Shape_IndexedFaceSet.026
v 0.253618 0.292222 0.302222
v 0.281940 0.292222 -0.302222
v 0.253618 0.292222 -0.302222
v 0.281940 0.292222 0.302222
v 0.281940 -0.293333 0.302222
v 0.281940 -0.293333 -0.302222
v 0.244167 0.273307 -0.254948
v 0.244167 -0.264961 0.254948
v 0.244167 0.273307 0.254948
v 0.244167 -0.264961 -0.254948
v 0.253618 -0.293333 -0.302222
v 0.253618 -0.293333 0.302222
v 0.244167 0.245003 -0.018889
v 0.244167 0.235556 0.226662
v -0.256352 0.235556 -0.018889
v 0.244167 0.235556 0.255000
v 0.244167 0.273330 0.255000
v -0.284722 0.235556 0.255000
v -0.284722 0.235556 -0.018889
v -0.284722 0.273330 -0.018889
v -0.284722 0.273330 0.255000
v 0.244167 0.273330 -0.018889
v -0.284722 0.235556 -0.018889
v 0.244167 0.235556 -0.226665
v -0.256352 0.235556 -0.018889
v 0.244167 0.273330 -0.018889
v 0.244167 0.245003 -0.018889
v 0.244167 0.273330 -0.255000
v -0.284722 0.273330 -0.018889
v -0.284722 0.235556 -0.255000
v 0.244167 0.235556 -0.255000
v -0.284722 0.273330 -0.255000
v -0.246952 -0.265000 0.226662
v -0.256395 0.235556 -0.018889
v -0.246952 0.235556 0.226662
v -0.284722 0.235556 -0.018889
v -0.284722 -0.265000 -0.018889
v -0.284722 0.235556 0.255000
v -0.246952 -0.265000 0.255000
v -0.284722 -0.265000 0.255000
v -0.246952 0.235556 0.255000
v -0.256395 -0.265000 -0.018889
v -0.246944 -0.265000 0.254997
v 0.244167 0.235556 0.254997
v -0.246944 0.235556 0.254997
v 0.244167 -0.265000 0.254997
v 0.244167 -0.265000 0.226669
v -0.246944 0.235556 0.226669
v -0.246944 -0.265000 0.226669
v 0.244167 0.235556 0.226669
v -0.246952 -0.265000 -0.255000
v -0.246952 0.235556 -0.226665
v -0.246952 -0.265000 -0.226665
v -0.284722 0.235556 -0.255000
v -0.246952 0.235556 -0.255000
v -0.284722 -0.265000 -0.255000
v -0.284722 0.235556 -0.018889
v -0.256395 -0.265000 -0.018889
v -0.284722 -0.265000 -0.018889
v -0.256395 0.235556 -0.018889
v -0.246944 -0.265000 -0.226669
v 0.244167 0.235556 -0.226669
v -0.246944 0.235556 -0.226669
v 0.244167 -0.265000 -0.226669
v 0.244167 -0.265000 -0.254997
v -0.246944 0.235556 -0.254997
v -0.246944 -0.265000 -0.254997
v 0.244167 0.235556 -0.254997
vn -0.0000 -1.0000 0.0000
vn 1.0000 0.0000 0.0000
vn 0.0000 -0.0000 1.0000
vn 0.0000 1.0000 0.0000
vn -1.0000 0.0000 0.0000
vn 0.0000 0.0000 -1.0000
vn 0.0189 -0.9988 0.0454
vn 0.9993 0.0000 -0.0384
vn -0.9487 -0.3160 -0.0000
vn -0.9806 0.0000 -0.1960
vn -0.8946 0.4470 0.0000
vn -0.9806 -0.0000 0.1960
vn 0.0189 -0.9991 -0.0384
vn 0.9990 0.0000 0.0454
usemtl Shape.1057
s 1
f 23//1 24//1 25//1
f 26//2 27//2 28//2
f 27//3 26//3 29//3
f 26//4 28//4 29//4
f 29//5 30//5 23//5
f 27//3 29//3 23//3
f 28//2 27//2 31//2
f 30//6 28//6 31//6
f 23//1 30//1 31//1
f 28//6 30//6 32//6
f 30//5 29//5 32//5
f 29//4 28//4 32//4
f 31//2 27//2 24//2
f 23//1 31//1 24//1
f 27//3 23//3 25//3
f 24//7 27//7 25//7
usemtl Shape.1058
f 33//8 34//8 35//8
f 36//6 34//6 37//6
f 34//4 36//4 38//4
f 36//5 37//5 38//5
f 37//1 39//1 40//1
f 39//3 38//3 40//3
f 38//5 37//5 40//5
f 38//3 39//3 41//3
f 34//4 38//4 41//4
f 37//6 34//6 42//6
f 39//1 37//1 42//1
f 41//2 39//2 33//2
f 39//1 42//1 33//1
f 42//8 34//8 33//8
f 34//4 41//4 35//4
f 41//2 33//2 35//2
usemtl Shape.1059
f 61//3 62//3 63//3
f 64//2 65//2 62//2
f 65//1 64//1 61//1
f 64//3 62//3 61//3
f 66//6 65//6 67//6
f 61//5 66//5 67//5
f 65//1 61//1 67//1
f 65//6 66//6 68//6
f 62//2 65//2 68//2
f 66//4 62//4 68//4
f 62//4 66//4 63//4
f 66//5 61//5 63//5
usemtl Shape.1060
f 1//4 2//4 3//4
f 4//2 5//2 6//2
f 4//2 6//2 2//2
f 7//5 8//5 9//5
f 8//5 7//5 10//5
f 8//9 10//9 11//9
f 6//1 5//1 11//1
f 2//6 6//6 11//6
f 10//10 7//10 11//10
f 5//3 4//3 1//3
f 4//4 2//4 1//4
f 7//11 9//11 1//11
f 9//12 8//12 1//12
f 8//9 11//9 12//9
f 11//1 5//1 12//1
f 5//3 1//3 12//3
f 1//12 8//12 12//12
f 11//10 7//10 3//10
f 2//6 11//6 3//6
f 7//11 1//11 3//11
usemtl Shape.1061
f 43//3 44//3 45//3
f 46//2 47//2 44//2
f 47//1 46//1 43//1
f 46//3 44//3 43//3
f 48//6 47//6 49//6
f 43//5 48//5 49//5
f 47//1 43//1 49//1
f 47//6 48//6 50//6
f 44//2 47//2 50//2
f 48//4 44//4 50//4
f 44//4 48//4 45//4
f 48//5 43//5 45//5
usemtl Shape.1062
f 13//13 14//13 15//13
f 16//3 17//3 18//3
f 17//2 16//2 13//2
f 16//1 18//1 19//1
f 18//5 20//5 19//5
f 20//6 13//6 19//6
f 17//4 20//4 21//4
f 18//3 17//3 21//3
f 20//5 18//5 21//5
f 20//4 17//4 22//4
f 13//6 20//6 22//6
f 17//2 13//2 22//2
f 13//2 16//2 14//2
f 16//1 19//1 14//1
f 14//1 19//1 15//1
f 19//6 13//6 15//6
usemtl Shape.1063
f 51//2 52//2 53//2
f 54//6 55//6 56//6
f 55//4 54//4 57//4
f 54//5 56//5 57//5
f 56//6 55//6 51//6
f 58//1 56//1 51//1
f 56//1 58//1 59//1
f 58//3 57//3 59//3
f 57//5 56//5 59//5
f 57//3 58//3 60//3
f 55//4 57//4 60//4
f 51//2 55//2 52//2
f 60//14 58//14 52//14
f 55//4 60//4 52//4
f 58//1 51//1 53//1
f 52//14 58//14 53//14
