# Blender v3.3.1 OBJ File: 'mobile-kitchen-counter.blend'
# www.blender.org
mtllib Cabinet_bottom.mtl
o bottom_o13_IndexedFaceSet
v 0.601000 -0.001000 0.146542
v 0.001000 -0.001000 0.146542
v 0.001000 -1.799000 0.146541
v 0.000293 -0.001000 0.146249
v 0.601000 -1.799000 0.146541
v 0.001000 -1.799800 0.146140
v 0.000500 -0.000293 0.146042
v 0.000285 -0.000301 0.145542
v 0.000500 -1.799500 0.146248
v 0.000286 -1.799000 0.146240
v 0.601000 -0.000199 0.146141
v 0.001000 -0.000401 0.146342
v 0.601800 -1.799000 0.146140
v 0.601715 -0.001000 0.146241
v 0.601500 -0.000500 0.146249
v 0.000500 -0.000500 0.121835
v 0.000285 -0.001000 0.121842
v 0.000293 -0.000293 0.122542
v 0.601000 -1.799710 0.146240
v 0.601500 -1.799500 0.146248
v 0.601707 -1.799710 0.145541
v 0.001000 -0.001000 0.121542
v 0.601000 -0.001000 0.121542
v 0.601000 -1.799000 0.121541
v 0.601707 -0.001000 0.121835
v 0.001000 -1.799000 0.121541
v 0.601000 -1.799710 0.121834
v 0.601707 -1.799500 0.122041
v 0.601599 -1.799000 0.121740
v 0.001000 -0.000199 0.121942
v 0.601000 -0.000400 0.121741
v 0.601500 -0.000293 0.122042
v 0.000293 -1.799000 0.121834
v 0.601699 -1.799710 0.122541
v 0.001000 -1.799600 0.121740
v 0.000500 -1.799710 0.122041
v 0.001000 0.000000 0.122542
v 0.601000 0.000000 0.145542
v 0.601000 0.000000 0.122542
v 0.601707 -0.000293 0.145542
v 0.601715 -0.000301 0.122542
v 0.001000 0.000000 0.145542
v 0.602000 -1.799000 0.145541
v 0.602000 -1.799000 0.122541
v 0.602000 -0.001000 0.122542
v 0.602000 -0.001000 0.145542
v 0.000000 -1.799000 0.145541
v 0.000293 -1.799710 0.145541
v 0.000286 -1.799700 0.122541
v 0.001000 -1.800000 0.145541
v 0.001000 -1.800000 0.122541
v 0.601000 -1.800000 0.122541
v 0.601000 -1.800000 0.145541
v 0.000000 -0.001000 0.145542
v 0.000000 -0.001000 0.122542
v 0.000000 -1.799000 0.122541
vn -0.0000 -0.0000 1.0000
vn -0.3827 -0.0000 0.9239
vn -0.0000 -0.4476 0.8942
vn -0.8598 0.3584 0.3638
vn -0.0759 -0.4465 0.8916
vn -0.3877 -0.0000 0.9218
vn -0.3833 -0.1505 0.9113
vn -0.0000 0.4476 0.8943
vn 0.0002 0.3158 0.9488
vn -0.4488 0.2823 0.8479
vn -0.3574 0.3574 0.8629
vn 0.4478 -0.0000 0.8942
vn 0.3876 -0.0000 0.9218
vn 0.3831 0.1507 0.9113
vn -0.8598 0.3638 -0.3584
vn 0.0760 0.4463 0.8916
vn -0.0001 -0.3901 0.9208
vn 0.1479 -0.3857 0.9107
vn 0.3563 -0.8621 0.3605
vn 0.4464 -0.0758 0.8916
vn 0.0000 0.0000 -1.0000
vn 0.3828 0.0000 -0.9238
vn 0.0000 -0.3813 -0.9244
vn 0.3586 -0.3561 -0.8629
vn 0.3160 0.0000 -0.9488
vn 0.2824 -0.4489 -0.8478
vn -0.0000 0.4475 -0.8943
vn -0.0002 0.3158 -0.9488
vn 0.4488 0.2822 -0.8479
vn 0.3575 0.3574 -0.8628
vn -0.3827 0.0000 -0.9239
vn -0.3877 0.0000 -0.9218
vn -0.3832 0.1506 -0.9113
vn 0.3604 -0.8622 -0.3561
vn -0.0761 0.4462 -0.8917
vn 0.0001 -0.3157 -0.9489
vn -0.4480 -0.2821 -0.8484
vn -0.3576 -0.3562 -0.8633
vn -0.0000 1.0000 0.0000
vn 0.3827 0.9239 0.0000
vn -0.0000 0.8943 -0.4475
vn 0.3876 0.9218 -0.0002
vn 0.3832 0.9113 -0.1507
vn 0.8597 0.3583 -0.3642
vn 0.0761 0.8917 -0.4462
vn -0.0000 0.8943 0.4475
vn 0.3575 0.8628 0.3573
vn -0.0002 0.9488 0.3158
vn 0.4487 0.8480 0.2822
vn -0.3827 0.9239 0.0000
vn -0.3877 0.9218 0.0002
vn -0.3833 0.9113 0.1505
vn 0.8597 0.3642 0.3582
vn -0.0761 0.8917 0.4462
vn -0.3574 0.8629 -0.3574
vn 0.0002 0.9488 -0.3158
vn -0.4487 0.8479 -0.2822
vn 1.0000 0.0000 0.0000
vn 0.8941 0.0000 -0.4479
vn 0.9261 0.3773 0.0000
vn 0.8646 0.3522 -0.3583
vn 0.9238 -0.0000 -0.3828
vn 0.9244 -0.3815 0.0000
vn -0.8650 -0.3569 0.3527
vn 0.8915 -0.0759 -0.4465
vn 0.9206 -0.3905 -0.0003
vn 0.9106 -0.3862 -0.1475
vn 0.9261 -0.0000 0.3773
vn 0.8629 -0.3563 0.3584
vn 0.9486 0.0000 0.3166
vn 0.8481 -0.4477 0.2832
vn 0.9238 0.3828 0.0002
vn 0.8646 0.3583 0.3522
vn -0.9244 -0.3814 0.0001
vn 0.0000 -1.0000 0.0000
vn 0.0000 -0.8947 -0.4468
vn 0.3832 -0.9237 0.0000
vn -0.0001 -0.9250 -0.3800
vn 0.3583 -0.8636 -0.3547
vn -0.3795 -0.9252 0.0000
vn -0.8645 0.3526 0.3581
vn -0.0718 -0.8922 -0.4458
vn -0.3871 -0.9221 -0.0003
vn -0.3829 -0.9122 -0.1462
vn 0.0000 -0.9237 0.3831
vn 0.0001 -0.9486 0.3163
vn -0.4481 -0.8479 0.2833
vn -0.3541 -0.8632 0.3598
vn 0.3544 -0.8637 0.3584
vn -0.8593 -0.3636 0.3597
vn 0.3796 -0.9252 -0.0001
vn -1.0000 -0.0000 0.0000
vn -0.9260 0.0000 -0.3776
vn -0.9261 -0.3773 0.0000
vn -0.8647 -0.3523 -0.3581
vn -0.8608 -0.3569 -0.3628
vn -0.9239 -0.0000 -0.3827
vn -0.9260 0.3776 0.0000
vn -0.8646 0.3581 -0.3526
vn -0.9239 0.0000 0.3827
vn -0.9239 0.3827 -0.0002
vn -0.9260 -0.0000 0.3776
usemtl o13
s off
f 1//1 2//1 3//1
f 4//2 3//2 2//2
f 5//1 1//1 3//1
f 6//3 5//3 3//3
f 7//4 8//4 4//4
f 9//5 6//5 3//5
f 10//6 3//6 4//6
f 9//7 3//7 10//7
f 11//8 2//8 1//8
f 11//9 12//9 2//9
f 7//10 2//10 12//10
f 7//11 4//11 2//11
f 13//12 1//12 5//12
f 13//13 14//13 1//13
f 15//14 1//14 14//14
f 16//15 17//15 18//15
f 15//16 11//16 1//16
f 6//17 19//17 5//17
f 20//18 5//18 19//18
f 20//19 19//19 21//19
f 20//20 13//20 5//20
f 22//21 23//21 24//21
f 25//22 24//22 23//22
f 26//21 22//21 24//21
f 27//23 26//23 24//23
f 28//24 27//24 24//24
f 29//25 24//25 25//25
f 28//26 24//26 29//26
f 30//27 23//27 22//27
f 31//28 23//28 30//28
f 32//29 23//29 31//29
f 32//30 25//30 23//30
f 33//31 22//31 26//31
f 33//32 17//32 22//32
f 16//33 22//33 17//33
f 28//34 34//34 27//34
f 16//35 30//35 22//35
f 35//36 26//36 27//36
f 36//37 26//37 35//37
f 36//38 33//38 26//38
f 37//39 38//39 39//39
f 40//40 39//40 38//40
f 31//41 37//41 39//41
f 41//42 39//42 40//42
f 32//43 39//43 41//43
f 32//44 41//44 25//44
f 32//45 31//45 39//45
f 37//39 42//39 38//39
f 12//46 38//46 42//46
f 15//47 40//47 38//47
f 11//48 38//48 12//48
f 15//49 38//49 11//49
f 18//50 42//50 37//50
f 18//51 8//51 42//51
f 7//52 42//52 8//52
f 15//53 14//53 40//53
f 7//54 12//54 42//54
f 16//55 18//55 37//55
f 31//56 30//56 37//56
f 16//57 37//57 30//57
f 43//58 44//58 45//58
f 29//59 45//59 44//59
f 46//58 43//58 45//58
f 41//60 46//60 45//60
f 25//61 41//61 45//61
f 29//62 25//62 45//62
f 21//63 44//63 43//63
f 10//64 47//64 48//64
f 28//65 29//65 44//65
f 21//66 34//66 44//66
f 28//67 44//67 34//67
f 14//68 43//68 46//68
f 20//69 21//69 43//69
f 13//70 43//70 14//70
f 20//71 43//71 13//71
f 41//72 40//72 46//72
f 14//73 46//73 40//73
f 49//74 48//74 47//74
f 50//75 51//75 52//75
f 35//76 52//76 51//76
f 53//75 50//75 52//75
f 34//77 53//77 52//77
f 35//78 27//78 52//78
f 34//79 52//79 27//79
f 48//80 51//80 50//80
f 4//81 8//81 54//81
f 36//82 35//82 51//82
f 49//83 51//83 48//83
f 36//84 51//84 49//84
f 19//85 50//85 53//85
f 6//86 50//86 19//86
f 9//87 50//87 6//87
f 9//88 48//88 50//88
f 21//89 19//89 53//89
f 9//90 10//90 48//90
f 21//91 53//91 34//91
f 54//92 55//92 56//92
f 17//93 56//93 55//93
f 47//92 54//92 56//92
f 49//94 47//94 56//94
f 33//95 49//95 56//95
f 36//96 49//96 33//96
f 33//97 56//97 17//97
f 8//98 55//98 54//98
f 18//99 17//99 55//99
f 10//100 4//100 54//100
f 18//101 55//101 8//101
f 10//102 54//102 47//102
