# Blender v3.3.1 OBJ File: 'mobile-kitchen-counter.blend'
# www.blender.org
mtllib Cabinet_left.mtl
o left_o18_IndexedFaceSet
v 0.575000 -1.800000 0.925541
v 0.001000 -1.800001 0.925541
v 0.001000 -1.800000 0.147541
v 0.000293 -1.799711 0.925541
v 0.575000 -1.800000 0.147541
v 0.001000 -1.799600 0.146740
v 0.000500 -1.799501 0.926248
v 0.000285 -1.799001 0.926240
v 0.000500 -1.799710 0.147041
v 0.000286 -1.799700 0.147541
v 0.575000 -1.799600 0.926341
v 0.001000 -1.799801 0.926140
v 0.575800 -1.799600 0.147541
v 0.575715 -1.799700 0.925541
v 0.575500 -1.799710 0.926041
v 0.000500 -1.784291 0.926041
v 0.000285 -1.784301 0.925541
v 0.000293 -1.785001 0.926248
v 0.575000 -1.799700 0.146826
v 0.575500 -1.799710 0.147041
v 0.575707 -1.799000 0.146834
v 0.001000 -1.784001 0.925541
v 0.575000 -1.784001 0.925541
v 0.575000 -1.784000 0.147541
v 0.575707 -1.784291 0.925541
v 0.001000 -1.784000 0.147541
v 0.575000 -1.784290 0.146834
v 0.575707 -1.784500 0.147041
v 0.575599 -1.784200 0.147541
v 0.001000 -1.784401 0.926341
v 0.575000 -1.784200 0.926140
v 0.575500 -1.784500 0.926248
v 0.000293 -1.784290 0.147541
v 0.575699 -1.785000 0.146826
v 0.001000 -1.784200 0.146941
v 0.000500 -1.784500 0.146834
v 0.001000 -1.785001 0.926541
v 0.575000 -1.799001 0.926541
v 0.575000 -1.785000 0.926541
v 0.575707 -1.799001 0.926248
v 0.575715 -1.785000 0.926240
v 0.001000 -1.799001 0.926541
v 0.576000 -1.799000 0.147541
v 0.576000 -1.785000 0.147541
v 0.576000 -1.785000 0.925541
v 0.576000 -1.799001 0.925541
v 0.000000 -1.799000 0.147541
v 0.000293 -1.799000 0.146834
v 0.000286 -1.785000 0.146841
v 0.001000 -1.799000 0.146541
v 0.001000 -1.785000 0.146541
v 0.575000 -1.785000 0.146541
v 0.575000 -1.799000 0.146541
v 0.000000 -1.799001 0.925541
v 0.000000 -1.785001 0.925541
v 0.000000 -1.785000 0.147541
vn 0.0000 -1.0000 -0.0000
vn -0.3795 -0.9252 -0.0000
vn 0.0000 -0.8947 -0.4466
vn -0.8594 -0.3634 0.3596
vn -0.0718 -0.8922 -0.4458
vn -0.3871 -0.9221 -0.0000
vn -0.3829 -0.9121 -0.1462
vn 0.0000 -0.8944 0.4472
vn 0.0002 -0.9486 0.3164
vn -0.4479 -0.8482 0.2829
vn -0.3541 -0.8632 0.3598
vn 0.4473 -0.8944 -0.0000
vn 0.3869 -0.9221 -0.0001
vn 0.3827 -0.9121 0.1467
vn -0.8609 0.3568 0.3626
vn 0.0714 -0.8921 0.4461
vn -0.0001 -0.9219 -0.3873
vn 0.1462 -0.9122 -0.3827
vn 0.3626 -0.3567 -0.8610
vn 0.4462 -0.8921 -0.0717
vn 0.0000 1.0000 -0.0000
vn 0.3795 0.9252 0.0000
vn -0.0000 0.9252 -0.3794
vn 0.3600 0.8633 -0.3538
vn 0.3166 0.9486 0.0001
vn 0.2831 0.8481 -0.4478
vn -0.0000 0.8944 0.4472
vn -0.0002 0.9484 0.3170
vn 0.4478 0.8482 0.2829
vn 0.3541 0.8632 0.3599
vn -0.3795 0.9252 0.0000
vn -0.3871 0.9221 0.0000
vn -0.3828 0.9121 0.1468
vn 0.3596 0.3633 -0.8595
vn -0.0714 0.8921 0.4461
vn 0.0001 0.9487 -0.3162
vn -0.4480 0.8481 -0.2830
vn -0.3540 0.8631 -0.3601
vn 0.0000 0.0000 1.0000
vn 0.3830 0.0000 0.9238
vn -0.0000 0.4479 0.8941
vn 0.3879 0.0003 0.9217
vn 0.3836 0.1505 0.9111
vn 0.8592 0.3638 0.3598
vn 0.0757 0.4467 0.8915
vn 0.0000 -0.4481 0.8940
vn 0.3578 -0.3559 0.8633
vn -0.0002 -0.3162 0.9487
vn 0.4470 -0.2830 0.8486
vn -0.3828 0.0000 0.9238
vn -0.3880 -0.0003 0.9216
vn -0.3836 -0.1503 0.9112
vn 0.8607 -0.3568 0.3631
vn -0.0757 -0.4467 0.8915
vn -0.3578 0.3561 0.8633
vn 0.0002 0.3164 0.9486
vn -0.4468 0.2831 0.8487
vn 1.0000 0.0000 0.0000
vn 0.8940 0.4481 0.0000
vn 0.9260 0.0000 0.3776
vn 0.8650 0.3571 0.3525
vn 0.9243 0.3816 -0.0001
vn 0.9238 0.0000 -0.3828
vn -0.8647 -0.3524 -0.3580
vn 0.8914 0.4469 -0.0755
vn 0.9216 0.0003 -0.3881
vn 0.9111 0.1503 -0.3838
vn 0.9262 -0.3771 -0.0000
vn 0.8633 -0.3560 -0.3577
vn 0.9487 -0.3163 0.0001
vn 0.8488 -0.2830 -0.4465
vn 0.9238 -0.0003 0.3829
vn 0.8647 -0.3521 0.3583
vn -0.9239 -0.0003 -0.3827
vn 0.0000 0.0000 -1.0000
vn -0.0000 0.4478 -0.8941
vn 0.3778 0.0000 -0.9259
vn -0.0001 0.3815 -0.9244
vn 0.3530 0.3569 -0.8649
vn -0.3827 0.0000 -0.9239
vn -0.8650 -0.3569 0.3528
vn -0.0759 0.4466 -0.8915
vn -0.3878 0.0003 -0.9218
vn -0.3833 0.1505 -0.9113
vn 0.0000 -0.3774 -0.9260
vn 0.0001 -0.3155 -0.9489
vn -0.4478 -0.2821 -0.8484
vn -0.3577 -0.3563 -0.8632
vn 0.3583 -0.3524 -0.8645
vn -0.8608 -0.3569 -0.3628
vn 0.3828 -0.0003 -0.9238
vn -1.0000 0.0000 -0.0000
vn -0.9261 0.3773 0.0000
vn -0.9260 0.0000 -0.3776
vn -0.8650 0.3569 -0.3527
vn -0.8593 0.3636 -0.3596
vn -0.9244 0.3814 -0.0000
vn -0.9259 0.0000 0.3778
vn -0.8646 0.3523 0.3584
vn -0.9244 -0.3814 0.0000
vn -0.9239 0.0003 0.3827
vn -0.9261 -0.3774 -0.0000
usemtl o18
s off
f 1//1 2//1 3//1
f 4//2 3//2 2//2
f 5//1 1//1 3//1
f 6//3 5//3 3//3
f 7//4 8//4 4//4
f 9//5 6//5 3//5
f 10//6 3//6 4//6
f 9//7 3//7 10//7
f 11//8 2//8 1//8
f 11//9 12//9 2//9
f 7//10 2//10 12//10
f 7//11 4//11 2//11
f 13//12 1//12 5//12
f 13//13 14//13 1//13
f 15//14 1//14 14//14
f 16//15 17//15 18//15
f 15//16 11//16 1//16
f 6//17 19//17 5//17
f 20//18 5//18 19//18
f 20//19 19//19 21//19
f 20//20 13//20 5//20
f 22//21 23//21 24//21
f 25//22 24//22 23//22
f 26//21 22//21 24//21
f 27//23 26//23 24//23
f 28//24 27//24 24//24
f 29//25 24//25 25//25
f 28//26 24//26 29//26
f 30//27 23//27 22//27
f 31//28 23//28 30//28
f 32//29 23//29 31//29
f 32//30 25//30 23//30
f 33//31 22//31 26//31
f 33//32 17//32 22//32
f 16//33 22//33 17//33
f 28//34 34//34 27//34
f 16//35 30//35 22//35
f 35//36 26//36 27//36
f 36//37 26//37 35//37
f 36//38 33//38 26//38
f 37//39 38//39 39//39
f 40//40 39//40 38//40
f 31//41 37//41 39//41
f 41//42 39//42 40//42
f 32//43 39//43 41//43
f 32//44 41//44 25//44
f 32//45 31//45 39//45
f 37//39 42//39 38//39
f 12//46 38//46 42//46
f 15//47 40//47 38//47
f 11//48 38//48 12//48
f 15//49 38//49 11//49
f 18//50 42//50 37//50
f 18//51 8//51 42//51
f 7//52 42//52 8//52
f 15//53 14//53 40//53
f 7//54 12//54 42//54
f 16//55 18//55 37//55
f 31//56 30//56 37//56
f 16//57 37//57 30//57
f 43//58 44//58 45//58
f 29//59 45//59 44//59
f 46//58 43//58 45//58
f 41//60 46//60 45//60
f 25//61 41//61 45//61
f 29//62 25//62 45//62
f 21//63 44//63 43//63
f 10//64 47//64 48//64
f 28//65 29//65 44//65
f 21//66 34//66 44//66
f 28//67 44//67 34//67
f 14//68 43//68 46//68
f 20//69 21//69 43//69
f 13//70 43//70 14//70
f 20//71 43//71 13//71
f 41//72 40//72 46//72
f 14//73 46//73 40//73
f 49//74 48//74 47//74
f 50//75 51//75 52//75
f 35//76 52//76 51//76
f 53//75 50//75 52//75
f 34//77 53//77 52//77
f 35//78 27//78 52//78
f 34//79 52//79 27//79
f 48//80 51//80 50//80
f 4//81 8//81 54//81
f 36//82 35//82 51//82
f 49//83 51//83 48//83
f 36//84 51//84 49//84
f 19//85 50//85 53//85
f 6//86 50//86 19//86
f 9//87 50//87 6//87
f 9//88 48//88 50//88
f 21//89 19//89 53//89
f 9//90 10//90 48//90
f 21//91 53//91 34//91
f 54//92 55//92 56//92
f 17//93 56//93 55//93
f 47//92 54//92 56//92
f 49//94 47//94 56//94
f 33//95 49//95 56//95
f 36//96 49//96 33//96
f 33//97 56//97 17//97
f 8//98 55//98 54//98
f 18//99 17//99 55//99
f 10//100 4//100 54//100
f 18//101 55//101 8//101
f 10//102 54//102 47//102
