# Blender v3.3.1 OBJ File: 'mobile-kitchen-counter.blend'
# www.blender.org
mtllib Cabinet_back.mtl
o back_o96_IndexedFaceSet
v 0.010000 -1.802001 0.926541
v 0.010000 -1.802000 0.146541
v 0.010000 -0.016000 0.146542
v 0.005000 -0.016000 0.146542
v 0.010000 -0.016000 0.926542
v 0.005000 -0.016000 0.926542
v 0.005000 -1.802000 0.146541
v 0.005000 -1.802001 0.926541
vn 1.0000 0.0000 0.0000
vn 0.0000 0.0000 -1.0000
vn 0.0000 1.0000 0.0000
vn 0.0000 -1.0000 -0.0000
vn 0.0000 -0.0000 1.0000
vn -1.0000 -0.0000 -0.0000
usemtl o96
s off
f 1//1 2//1 3//1
f 4//2 3//2 2//2
f 5//1 1//1 3//1
f 6//3 5//3 3//3
f 6//3 3//3 4//3
f 7//4 2//4 1//4
f 7//2 4//2 2//2
f 8//5 1//5 5//5
f 7//4 1//4 8//4
f 8//5 5//5 6//5
f 7//6 6//6 4//6
f 7//6 8//6 6//6
