# Blender v3.3.1 OBJ File: 'mobile-kitchen-counter.blend'
# www.blender.org
mtllib Cover_right.mtl
o right_o92_IndexedFaceSet
v 0.571000 -0.022182 0.007542
v 0.001000 -0.022182 0.120542
v 0.001000 -0.022182 0.007542
v 0.000293 -0.021889 0.120542
v 0.001000 -0.021880 0.006826
v 0.001000 -0.021780 0.006740
v 0.000500 -0.021889 0.007042
v 0.000284 -0.021880 0.007542
v 0.571000 -0.022182 0.120542
v 0.571000 -0.021880 0.121258
v 0.001000 -0.021984 0.121140
v 0.000500 -0.021682 0.121249
v 0.571716 -0.021880 0.007542
v 0.571716 -0.021880 0.120542
v 0.571500 -0.021889 0.121042
v 0.571000 -0.021780 0.121344
v 0.571000 -0.021880 0.006826
v 0.571500 -0.021889 0.007042
v 0.571802 -0.021780 0.007542
v 0.001000 0.002818 0.007542
v 0.571000 0.002818 0.120542
v 0.571000 0.002818 0.007542
v 0.571707 0.002525 0.120542
v 0.571000 0.002525 0.006835
v 0.571707 0.002318 0.007042
v 0.571598 0.002620 0.007542
v 0.001000 0.002818 0.120542
v 0.001000 0.002516 0.121258
v 0.571000 0.002620 0.121140
v 0.571500 0.002318 0.121249
v 0.000293 0.002525 0.007542
v 0.000284 0.002516 0.120542
v 0.000500 0.002525 0.121042
v 0.001000 0.002416 0.121344
v 0.001000 0.002620 0.006944
v 0.000500 0.002318 0.006835
v 0.001000 0.001818 0.121542
v 0.571000 -0.021182 0.121542
v 0.571000 0.001818 0.121542
v 0.571707 -0.021182 0.121249
v 0.571000 0.002534 0.121240
v 0.571716 0.001818 0.121240
v 0.001000 -0.021182 0.121542
v 0.001000 -0.021898 0.121240
v 0.000293 0.001818 0.121249
v 0.000284 -0.021182 0.121240
v 0.572000 -0.021182 0.007542
v 0.572000 0.001818 0.007542
v 0.572000 0.001818 0.120542
v 0.571698 0.002534 0.007542
v 0.572000 -0.021182 0.120542
v 0.571802 0.001818 0.121140
v 0.571707 -0.021182 0.006835
v 0.571698 0.001818 0.006826
v 0.571802 -0.021780 0.120542
v 0.001000 -0.021182 0.006542
v 0.001000 0.001818 0.006542
v 0.571000 0.001818 0.006542
v 0.001000 0.002534 0.006844
v 0.571000 -0.021182 0.006542
v 0.571598 0.001818 0.006740
v 0.000293 -0.021182 0.006835
v 0.000284 0.001818 0.006844
v 0.571000 -0.021780 0.006740
v -0.000000 -0.021182 0.120542
v -0.000000 0.001818 0.120542
v -0.000000 0.001818 0.007542
v 0.000198 0.002416 0.120542
v -0.000000 -0.021182 0.007542
v 0.000198 0.001818 0.006944
v 0.000198 -0.021182 0.121140
v 0.000198 -0.021780 0.007542
vn 0.0000 -1.0000 -0.0000
vn -0.3828 -0.9238 -0.0000
vn 0.0000 -0.9214 -0.3886
vn -1.0000 0.0000 0.0000
vn -0.0756 -0.8914 -0.4468
vn -0.3888 -0.9213 -0.0000
vn -0.3844 -0.9110 -0.1495
vn 0.0000 -0.9214 0.3887
vn 0.0001 -0.9493 0.3144
vn -0.4506 -0.8475 0.2806
vn -0.3576 -0.8628 0.3573
vn 0.3886 -0.9214 -0.0000
vn 0.3887 -0.9214 -0.0000
vn 0.3843 -0.9110 0.1497
vn 1.0000 0.0000 0.0000
vn 0.0754 -0.8914 0.4469
vn 0.1497 -0.9110 -0.3843
vn 0.0000 0.0000 -1.0000
vn 0.4468 -0.8914 -0.0756
vn -0.0000 1.0000 0.0000
vn 0.3829 0.9238 0.0000
vn -0.0000 0.9238 -0.3829
vn 0.3573 0.8628 -0.3576
vn 0.3143 0.9493 0.0005
vn 0.2806 0.8474 -0.4508
vn -0.0000 0.9214 0.3887
vn -0.0001 0.9493 0.3144
vn 0.4505 0.8476 0.2806
vn 0.3577 0.8628 0.3573
vn -0.3828 0.9238 0.0000
vn -0.3888 0.9213 0.0000
vn -0.3844 0.9110 0.1495
vn -0.0754 0.8914 0.4470
vn 0.0001 0.9493 -0.3143
vn -0.4507 0.8474 -0.2806
vn -0.3576 0.8628 -0.3573
vn -0.0000 -0.0000 1.0000
vn 0.3827 -0.0000 0.9239
vn -0.0000 0.3883 0.9215
vn 0.3883 0.0002 0.9215
vn 0.3839 0.1498 0.9111
vn 0.0753 0.4470 0.8914
vn 0.0000 -0.3883 0.9215
vn 0.3575 -0.3574 0.8628
vn -0.0001 -0.3149 0.9491
vn 0.4500 -0.2812 0.8476
vn -0.3827 -0.0000 0.9239
vn -0.3884 -0.0002 0.9215
vn -0.3841 -0.1497 0.9111
vn -0.0753 -0.4469 0.8914
vn -0.3574 0.3575 0.8628
vn 0.0001 0.3149 0.9491
vn -0.4500 0.2812 0.8476
vn 0.9214 0.3886 0.0000
vn 0.9493 0.0000 0.3144
vn 0.8834 0.3662 0.2926
vn 0.9238 0.3829 -0.0000
vn 0.9238 -0.0000 -0.3829
vn 0.8914 0.4468 -0.0756
vn 0.9214 0.0002 -0.3886
vn 0.9110 0.1498 -0.3842
vn 0.9494 -0.3142 -0.0000
vn 0.8629 -0.3572 -0.3576
vn 0.9493 -0.3144 -0.0000
vn 0.8474 -0.2806 -0.4507
vn 0.9238 -0.0002 0.3828
vn 0.8834 -0.2926 0.3661
vn 0.7596 -0.0104 0.6504
vn 0.0000 0.3886 -0.9214
vn 0.3143 0.0000 -0.9493
vn -0.0000 0.3829 -0.9238
vn 0.2925 0.3662 -0.8834
vn -0.3828 0.0000 -0.9238
vn -0.0756 0.4468 -0.8914
vn -0.3888 0.0002 -0.9213
vn -0.3844 0.1495 -0.9110
vn 0.0000 -0.3143 -0.9493
vn -0.4507 -0.2806 -0.8474
vn -0.3575 -0.3574 -0.8628
vn 0.3661 -0.2925 -0.8834
vn 0.6519 -0.0104 -0.7582
vn 0.3829 -0.0002 -0.9238
vn -0.9491 0.3149 0.0000
vn -0.9491 0.0000 -0.3149
vn -0.8833 0.3659 -0.2931
vn -0.7587 0.6514 -0.0021
vn -0.9239 0.3828 -0.0000
vn -0.9491 -0.0000 0.3150
vn -0.8833 0.2931 0.3659
vn -0.7601 0.0103 0.6498
vn -0.9239 0.0002 0.3827
vn -0.9491 -0.3149 -0.0000
vn -0.8833 -0.3659 0.2931
vn -0.9239 -0.3828 0.0000
vn -0.7587 -0.6514 0.0021
vn -0.9239 -0.0002 -0.3827
vn -0.8833 -0.2931 -0.3659
vn -0.7587 -0.0104 -0.6513
vn 0.8297 -0.3663 0.4213
vn 0.7242 0.3020 0.6200
vn 0.8298 0.4212 0.3661
vn 0.0000 0.7582 -0.6521
vn 0.3663 0.4213 -0.8297
vn 0.0000 -0.6521 -0.7581
vn 0.3011 -0.6221 -0.7227
vn 0.4213 -0.3662 -0.8297
vn -0.8299 -0.3663 -0.4207
vn -0.7236 0.3010 -0.6211
vn -0.8300 0.4207 -0.3663
vn -0.7235 0.6212 0.3010
vn -0.8299 0.3664 0.4207
vn -0.7246 -0.3018 0.6196
vn -0.8300 -0.4206 0.3662
vn 0.0000 0.6513 0.7589
vn -0.0000 0.7595 0.6505
vn 0.6522 0.7581 0.0000
vn 0.6217 0.3014 -0.7230
vn 0.7582 -0.6520 -0.0000
vn 0.7232 -0.6215 0.3013
vn 0.0000 -0.7595 0.6505
vn -0.0000 -0.6512 0.7589
vn -0.7235 -0.6212 -0.3010
usemtl o92
s off
f 1//1 2//1 3//1
f 4//2 3//2 2//2
f 5//3 1//3 3//3
f 5//4 3//4 6//4
f 7//5 6//5 3//5
f 8//6 3//6 4//6
f 7//7 3//7 8//7
f 1//1 9//1 2//1
f 10//8 2//8 9//8
f 10//9 11//9 2//9
f 12//10 2//10 11//10
f 12//11 4//11 2//11
f 13//12 9//12 1//12
f 13//13 14//13 9//13
f 15//14 9//14 14//14
f 10//15 9//15 16//15
f 15//16 16//16 9//16
f 5//3 17//3 1//3
f 18//17 1//17 17//17
f 13//18 1//18 19//18
f 18//19 19//19 1//19
f 20//20 21//20 22//20
f 23//21 22//21 21//21
f 24//22 20//22 22//22
f 25//23 24//23 22//23
f 26//24 22//24 23//24
f 25//25 22//25 26//25
f 20//20 27//20 21//20
f 28//26 21//26 27//26
f 29//27 21//27 28//27
f 30//28 21//28 29//28
f 30//29 23//29 21//29
f 31//30 27//30 20//30
f 31//31 32//31 27//31
f 33//32 27//32 32//32
f 28//4 27//4 34//4
f 33//33 34//33 27//33
f 35//34 20//34 24//34
f 36//35 20//35 35//35
f 36//36 31//36 20//36
f 37//37 38//37 39//37
f 40//38 39//38 38//38
f 41//39 37//39 39//39
f 42//40 39//40 40//40
f 30//41 39//41 42//41
f 41//15 39//15 29//15
f 30//42 29//42 39//42
f 37//37 43//37 38//37
f 44//43 38//43 43//43
f 15//44 40//44 38//44
f 16//45 38//45 44//45
f 15//46 38//46 16//46
f 45//47 43//47 37//47
f 45//48 46//48 43//48
f 12//49 43//49 46//49
f 44//4 43//4 11//4
f 12//50 11//50 43//50
f 33//51 45//51 37//51
f 41//52 34//52 37//52
f 33//53 37//53 34//53
f 47//15 48//15 49//15
f 50//54 49//54 48//54
f 51//15 47//15 49//15
f 52//55 51//55 49//55
f 23//56 52//56 49//56
f 50//57 23//57 49//57
f 53//58 48//58 47//58
f 50//18 48//18 26//18
f 25//59 26//59 48//59
f 53//60 54//60 48//60
f 25//61 48//61 54//61
f 55//62 47//62 51//62
f 18//63 53//63 47//63
f 19//64 47//64 55//64
f 18//65 47//65 19//65
f 42//66 40//66 51//66
f 55//67 51//67 40//67
f 52//68 42//68 51//68
f 56//18 57//18 58//18
f 59//69 58//69 57//69
f 60//18 56//18 58//18
f 61//70 60//70 58//70
f 59//71 24//71 58//71
f 61//72 58//72 24//72
f 62//73 57//73 56//73
f 59//4 57//4 35//4
f 36//74 35//74 57//74
f 63//75 57//75 62//75
f 36//76 57//76 63//76
f 64//77 56//77 60//77
f 6//77 56//77 64//77
f 7//78 56//78 6//78
f 7//79 62//79 56//79
f 53//80 64//80 60//80
f 61//81 54//81 60//81
f 53//82 60//82 54//82
f 65//4 66//4 67//4
f 68//83 67//83 66//83
f 69//4 65//4 67//4
f 70//84 69//84 67//84
f 31//85 70//85 67//85
f 68//86 32//86 67//86
f 31//87 67//87 32//87
f 71//88 66//88 65//88
f 45//89 68//89 66//89
f 71//90 46//90 66//90
f 45//91 66//91 46//91
f 72//92 65//92 69//92
f 4//93 71//93 65//93
f 8//94 4//94 65//94
f 72//95 8//95 65//95
f 63//96 62//96 69//96
f 72//97 69//97 62//97
f 70//98 63//98 69//98
f 15//99 55//99 40//99
f 30//100 42//100 52//100
f 30//101 52//101 23//101
f 59//102 35//102 24//102
f 25//103 61//103 24//103
f 6//104 64//104 17//104
f 18//105 17//105 64//105
f 5//104 6//104 17//104
f 18//106 64//106 53//106
f 7//107 72//107 62//107
f 36//108 63//108 70//108
f 36//109 70//109 31//109
f 33//110 32//110 68//110
f 33//111 68//111 45//111
f 12//112 46//112 71//112
f 12//113 71//113 4//113
f 41//114 28//114 34//114
f 41//115 29//115 28//115
f 50//116 26//116 23//116
f 25//117 54//117 61//117
f 19//118 55//118 14//118
f 15//119 14//119 55//119
f 13//118 19//118 14//118
f 10//120 44//120 11//120
f 10//121 16//121 44//121
f 7//122 8//122 72//122
