# Blender v3.3.1 OBJ File: 'mobile-kitchen-counter.blend'
# www.blender.org
mtllib Cover_left.mtl
o left.001_o89_IndexedFaceSet
v 0.571000 -1.797966 0.007540
v 0.001000 -1.797966 0.120540
v 0.001000 -1.797966 0.007540
v 0.000293 -1.797676 0.120540
v 0.001000 -1.797666 0.006824
v 0.001000 -1.797566 0.006738
v 0.000500 -1.797676 0.007040
v 0.000285 -1.797666 0.007540
v 0.571000 -1.797966 0.120540
v 0.571000 -1.797666 0.121256
v 0.001000 -1.797766 0.121138
v 0.000500 -1.797466 0.121247
v 0.571716 -1.797666 0.007540
v 0.571716 -1.797666 0.120540
v 0.571500 -1.797676 0.121040
v 0.571000 -1.797566 0.121342
v 0.571000 -1.797666 0.006824
v 0.571500 -1.797676 0.007040
v 0.571802 -1.797566 0.007540
v 0.001000 -1.772966 0.007540
v 0.571000 -1.772966 0.120540
v 0.571000 -1.772966 0.007540
v 0.571707 -1.773256 0.120540
v 0.571000 -1.773256 0.006833
v 0.571707 -1.773466 0.007040
v 0.571598 -1.773166 0.007540
v 0.001000 -1.772966 0.120540
v 0.001000 -1.773266 0.121256
v 0.571000 -1.773166 0.121138
v 0.571500 -1.773466 0.121247
v 0.000293 -1.773256 0.007540
v 0.000285 -1.773266 0.120540
v 0.000500 -1.773256 0.121040
v 0.001000 -1.773366 0.121342
v 0.001000 -1.773166 0.006942
v 0.000500 -1.773466 0.006833
v 0.001000 -1.773966 0.121540
v 0.571000 -1.796966 0.121540
v 0.571000 -1.773966 0.121540
v 0.571707 -1.796966 0.121247
v 0.571000 -1.773246 0.121239
v 0.571716 -1.773966 0.121239
v 0.001000 -1.796966 0.121540
v 0.001000 -1.797686 0.121239
v 0.000293 -1.773966 0.121247
v 0.000285 -1.796966 0.121239
v 0.572000 -1.796966 0.007540
v 0.572000 -1.773966 0.007540
v 0.572000 -1.773966 0.120540
v 0.571698 -1.773246 0.007540
v 0.572000 -1.796966 0.120540
v 0.571802 -1.773966 0.121138
v 0.571707 -1.796966 0.006833
v 0.571698 -1.773966 0.006824
v 0.571802 -1.797566 0.120540
v 0.001000 -1.796966 0.006540
v 0.001000 -1.773966 0.006540
v 0.571000 -1.773966 0.006540
v 0.001000 -1.773246 0.006842
v 0.571000 -1.796966 0.006540
v 0.571598 -1.773966 0.006738
v 0.000293 -1.796966 0.006833
v 0.000285 -1.773966 0.006842
v 0.571000 -1.797566 0.006738
v 0.000000 -1.796966 0.120540
v 0.000000 -1.773966 0.120540
v 0.000000 -1.773966 0.007540
v 0.000199 -1.773366 0.120540
v 0.000000 -1.796966 0.007540
v 0.000199 -1.773966 0.006942
v 0.000199 -1.796966 0.121138
v 0.000199 -1.797566 0.007540
vn 0.0000 -1.0000 0.0000
vn -0.3795 -0.9252 0.0000
vn 0.0000 -0.9224 -0.3863
vn -1.0000 0.0000 0.0000
vn -0.0726 -0.8925 -0.4451
vn -0.3866 -0.9222 -0.0001
vn -0.3824 -0.9123 -0.1466
vn 0.0000 -0.9223 0.3864
vn 0.0001 -0.9482 0.3177
vn -0.4471 -0.8483 0.2838
vn -0.3540 -0.8631 0.3601
vn 0.3865 -0.9223 0.0000
vn 0.3823 -0.9122 0.1471
vn 1.0000 0.0000 0.0000
vn 0.0726 -0.8926 0.4449
vn 0.0000 -0.9222 -0.3868
vn 0.1469 -0.9123 -0.3821
vn 0.0000 0.0000 -1.0000
vn 0.4451 -0.8925 -0.0736
vn -0.0000 1.0000 0.0000
vn 0.3796 0.9252 0.0000
vn -0.0000 0.9251 -0.3798
vn 0.3600 0.8631 -0.3542
vn 0.3170 0.9484 0.0005
vn 0.2835 0.8481 -0.4477
vn -0.0000 0.9221 0.3869
vn -0.0001 0.9484 0.3171
vn 0.4471 0.8484 0.2835
vn 0.3541 0.8631 0.3602
vn -0.3795 0.9252 0.0000
vn -0.3866 0.9222 0.0001
vn -0.3825 0.9124 0.1460
vn -0.0724 0.8924 0.4453
vn 0.0001 0.9484 -0.3171
vn -0.4472 0.8482 -0.2837
vn -0.3541 0.8632 -0.3598
vn -0.0000 -0.0000 1.0000
vn 0.3828 -0.0000 0.9239
vn -0.0000 0.3865 0.9223
vn 0.3883 0.0002 0.9215
vn 0.3838 0.1497 0.9112
vn 0.0742 0.4478 0.8910
vn 0.0000 -0.3865 0.9223
vn 0.3577 -0.3562 0.8632
vn -0.0001 -0.3138 0.9495
vn 0.4499 -0.2802 0.8480
vn -0.3827 -0.0000 0.9239
vn -0.3884 -0.0002 0.9215
vn -0.3841 -0.1497 0.9111
vn -0.0742 -0.4480 0.8910
vn -0.3576 0.3562 0.8633
vn 0.0001 0.3139 0.9495
vn -0.4499 0.2804 0.8479
vn 0.9222 0.3868 0.0000
vn 0.9493 0.0000 0.3144
vn 0.8839 0.3648 0.2928
vn 0.9244 0.3815 -0.0000
vn 0.9238 -0.0000 -0.3829
vn 0.8911 0.4476 -0.0747
vn 0.9214 0.0002 -0.3887
vn 0.9109 0.1497 -0.3845
vn 0.9497 -0.3132 0.0000
vn 0.8632 -0.3560 -0.3579
vn 0.9496 -0.3134 -0.0000
vn 0.8479 -0.2796 -0.4505
vn 0.9238 -0.0002 0.3828
vn 0.8836 -0.2916 0.3663
vn 0.7594 -0.0104 0.6505
vn -0.0000 0.3869 -0.9221
vn 0.3143 0.0000 -0.9493
vn -0.0000 0.3816 -0.9243
vn 0.2927 0.3648 -0.8839
vn -0.3828 0.0000 -0.9238
vn -0.0744 0.4477 -0.8911
vn -0.3888 0.0002 -0.9213
vn -0.3846 0.1495 -0.9109
vn 0.0000 -0.3133 -0.9497
vn 0.0000 -0.3135 -0.9496
vn -0.4506 -0.2797 -0.8477
vn -0.3578 -0.3561 -0.8633
vn 0.3663 -0.2915 -0.8837
vn 0.6522 -0.0104 -0.7580
vn 0.3829 -0.0002 -0.9238
vn -0.9494 0.3139 0.0000
vn -0.9491 0.0000 -0.3149
vn -0.8838 0.3647 -0.2931
vn -0.7585 0.6517 -0.0021
vn -0.9244 0.3814 -0.0000
vn -0.9491 -0.0000 0.3150
vn -0.8836 0.2922 0.3660
vn -0.7600 0.0103 0.6499
vn -0.9239 0.0002 0.3827
vn -0.9494 -0.3139 0.0000
vn -0.8837 -0.3646 0.2933
vn -0.9244 -0.3814 0.0000
vn -0.7585 -0.6517 0.0021
vn -0.9239 -0.0002 -0.3827
vn -0.8836 -0.2922 -0.3659
vn -0.7587 -0.0104 -0.6513
vn 0.8302 -0.3649 0.4215
vn 0.7237 0.3018 0.6206
vn 0.8293 0.4207 0.3677
vn 0.0000 0.7813 -0.6242
vn 0.3678 0.4209 -0.8292
vn 0.0000 -0.6506 -0.7594
vn 0.2999 -0.6224 -0.7230
vn 0.0000 -0.6537 -0.7567
vn 0.4212 -0.3648 -0.8304
vn -0.8306 -0.3649 -0.4207
vn -0.7237 0.3011 -0.6210
vn -0.8295 0.4202 -0.3678
vn -0.7236 0.6217 0.2998
vn -0.8305 0.3650 0.4207
vn -0.7249 -0.3019 0.6192
vn -0.8296 -0.4201 0.3678
vn 0.0000 0.6513 0.7588
vn -0.0000 0.7825 0.6227
vn 0.6254 0.7803 0.0000
vn 0.6219 0.3015 -0.7228
vn 0.7575 -0.6528 -0.0000
vn 0.7224 -0.6236 0.2988
vn 0.7579 -0.6523 0.0000
vn 0.0000 -0.7825 0.6226
vn -0.0000 -0.6529 0.7575
vn -0.7235 -0.6216 -0.3002
usemtl o89
s off
f 1//1 2//1 3//1
f 4//2 3//2 2//2
f 5//3 1//3 3//3
f 5//4 3//4 6//4
f 7//5 6//5 3//5
f 8//6 3//6 4//6
f 7//7 3//7 8//7
f 1//1 9//1 2//1
f 10//8 2//8 9//8
f 10//9 11//9 2//9
f 12//10 2//10 11//10
f 12//11 4//11 2//11
f 13//12 9//12 1//12
f 13//12 14//12 9//12
f 15//13 9//13 14//13
f 10//14 9//14 16//14
f 15//15 16//15 9//15
f 5//16 17//16 1//16
f 18//17 1//17 17//17
f 13//18 1//18 19//18
f 18//19 19//19 1//19
f 20//20 21//20 22//20
f 23//21 22//21 21//21
f 24//22 20//22 22//22
f 25//23 24//23 22//23
f 26//24 22//24 23//24
f 25//25 22//25 26//25
f 20//20 27//20 21//20
f 28//26 21//26 27//26
f 29//27 21//27 28//27
f 30//28 21//28 29//28
f 30//29 23//29 21//29
f 31//30 27//30 20//30
f 31//31 32//31 27//31
f 33//32 27//32 32//32
f 28//4 27//4 34//4
f 33//33 34//33 27//33
f 35//34 20//34 24//34
f 36//35 20//35 35//35
f 36//36 31//36 20//36
f 37//37 38//37 39//37
f 40//38 39//38 38//38
f 41//39 37//39 39//39
f 42//40 39//40 40//40
f 30//41 39//41 42//41
f 41//14 39//14 29//14
f 30//42 29//42 39//42
f 37//37 43//37 38//37
f 44//43 38//43 43//43
f 15//44 40//44 38//44
f 16//45 38//45 44//45
f 15//46 38//46 16//46
f 45//47 43//47 37//47
f 45//48 46//48 43//48
f 12//49 43//49 46//49
f 44//4 43//4 11//4
f 12//50 11//50 43//50
f 33//51 45//51 37//51
f 41//52 34//52 37//52
f 33//53 37//53 34//53
f 47//14 48//14 49//14
f 50//54 49//54 48//54
f 51//14 47//14 49//14
f 52//55 51//55 49//55
f 23//56 52//56 49//56
f 50//57 23//57 49//57
f 53//58 48//58 47//58
f 50//18 48//18 26//18
f 25//59 26//59 48//59
f 53//60 54//60 48//60
f 25//61 48//61 54//61
f 55//62 47//62 51//62
f 18//63 53//63 47//63
f 19//64 47//64 55//64
f 18//65 47//65 19//65
f 42//66 40//66 51//66
f 55//67 51//67 40//67
f 52//68 42//68 51//68
f 56//18 57//18 58//18
f 59//69 58//69 57//69
f 60//18 56//18 58//18
f 61//70 60//70 58//70
f 59//71 24//71 58//71
f 61//72 58//72 24//72
f 62//73 57//73 56//73
f 59//4 57//4 35//4
f 36//74 35//74 57//74
f 63//75 57//75 62//75
f 36//76 57//76 63//76
f 64//77 56//77 60//77
f 6//78 56//78 64//78
f 7//79 56//79 6//79
f 7//80 62//80 56//80
f 53//81 64//81 60//81
f 61//82 54//82 60//82
f 53//83 60//83 54//83
f 65//4 66//4 67//4
f 68//84 67//84 66//84
f 69//4 65//4 67//4
f 70//85 69//85 67//85
f 31//86 70//86 67//86
f 68//87 32//87 67//87
f 31//88 67//88 32//88
f 71//89 66//89 65//89
f 45//90 68//90 66//90
f 71//91 46//91 66//91
f 45//92 66//92 46//92
f 72//93 65//93 69//93
f 4//94 71//94 65//94
f 8//95 4//95 65//95
f 72//96 8//96 65//96
f 63//97 62//97 69//97
f 72//98 69//98 62//98
f 70//99 63//99 69//99
f 15//100 55//100 40//100
f 30//101 42//101 52//101
f 30//102 52//102 23//102
f 59//103 35//103 24//103
f 25//104 61//104 24//104
f 6//105 64//105 17//105
f 18//106 17//106 64//106
f 5//107 6//107 17//107
f 18//108 64//108 53//108
f 7//109 72//109 62//109
f 36//110 63//110 70//110
f 36//111 70//111 31//111
f 33//112 32//112 68//112
f 33//113 68//113 45//113
f 12//114 46//114 71//114
f 12//115 71//115 4//115
f 41//116 28//116 34//116
f 41//117 29//117 28//117
f 50//118 26//118 23//118
f 25//119 54//119 61//119
f 19//120 55//120 14//120
f 15//121 14//121 55//121
f 13//122 19//122 14//122
f 10//123 44//123 11//123
f 10//124 16//124 44//124
f 7//125 8//125 72//125
