# Blender v3.3.1 OBJ File: 'mobile-kitchen-counter.blend'
# www.blender.org
mtllib DrawerMiddle_door.mtl
o door_o109_IndexedFaceSet
v 0.577000 -1.199000 0.668541
v 0.577000 -0.603000 0.923541
v 0.577000 -0.603000 0.668541
v 0.592000 -0.603000 0.668541
v 0.592000 -1.199000 0.668541
v 0.577000 -1.199000 0.923541
v 0.592000 -0.603000 0.923541
v 0.592000 -1.199000 0.923541
v 0.595000 -0.606000 0.671541
v 0.595000 -0.606000 0.920541
v 0.595000 -1.196000 0.920541
v 0.594701 -0.604694 0.921847
v 0.595000 -1.196000 0.671541
v 0.594701 -1.197310 0.921847
v 0.594701 -0.604694 0.670235
v 0.594701 -1.197310 0.670235
v 0.593730 -0.603549 0.922992
v 0.593730 -0.603549 0.669090
v 0.593730 -1.198450 0.922992
v 0.593730 -1.198450 0.669090
vn -1.0000 -0.0000 -0.0000
vn 0.0000 1.0000 0.0000
vn 0.0000 0.0000 -1.0000
vn 0.0000 -0.0000 1.0000
vn 0.0000 -1.0000 0.0000
vn 1.0000 0.0000 0.0000
vn 0.9748 0.0000 0.2231
vn 0.9749 -0.2225 -0.0000
vn 0.9748 0.0000 0.2232
vn 0.9748 0.2232 0.0000
vn 0.9748 0.2231 0.0000
vn 0.9748 0.0000 -0.2231
vn 0.9748 0.0000 -0.2232
vn 0.3025 0.9532 0.0000
vn 0.3026 0.0000 -0.9531
vn 0.3025 -0.0000 0.9532
vn 0.3024 -0.0000 0.9532
vn 0.3030 -0.9530 -0.0000
vn 0.3024 0.0000 -0.9532
vn 0.7612 -0.6485 0.0000
vn 0.7627 -0.0000 0.6467
vn 0.7613 -0.6484 0.0000
vn 0.7626 -0.0000 0.6469
vn 0.7626 0.0000 -0.6468
vn 0.7627 0.0000 -0.6468
vn 0.7627 0.6468 0.0000
usemtl o109
s off
f 1//1 2//1 3//1
f 4//2 3//2 2//2
f 5//3 1//3 3//3
f 5//3 3//3 4//3
f 1//1 6//1 2//1
f 7//4 2//4 6//4
f 7//2 4//2 2//2
f 8//5 6//5 1//5
f 8//4 7//4 6//4
f 5//5 8//5 1//5
f 9//6 10//6 11//6
f 12//7 11//7 10//7
f 13//6 9//6 11//6
f 14//8 13//8 11//8
f 12//9 14//9 11//9
f 15//10 10//10 9//10
f 12//11 10//11 15//11
f 16//12 9//12 13//12
f 15//13 9//13 16//13
f 16//8 13//8 14//8
f 17//14 4//14 7//14
f 18//15 5//15 4//15
f 17//14 18//14 4//14
f 19//16 7//16 8//16
f 17//17 7//17 19//17
f 20//18 8//18 5//18
f 20//18 19//18 8//18
f 18//19 20//19 5//19
f 16//20 14//20 19//20
f 17//21 19//21 14//21
f 20//22 16//22 19//22
f 17//23 14//23 12//23
f 15//24 16//24 20//24
f 18//25 15//25 20//25
f 12//26 15//26 18//26
f 17//26 12//26 18//26
