# Blender v3.3.1 OBJ File: 'mobile-kitchen-counter.blend'
# www.blender.org
mtllib DrawerRight_interior.mtl
o interior_o60_IndexedFaceSet
v 0.577000 -0.034851 0.858012
v 0.577000 -0.034851 0.865072
v 0.577000 -0.036000 0.861542
v 0.101000 -0.036000 0.861542
v 0.101000 -0.035192 0.858537
v 0.577000 -0.031852 0.855837
v 0.577000 -0.031852 0.867247
v 0.087000 -0.034851 0.865072
v 0.087000 -0.036000 0.861542
v 0.577000 -0.028149 0.855837
v 0.577000 -0.028149 0.867247
v 0.087000 -0.031852 0.867247
v 0.577000 -0.025149 0.858012
v 0.577000 -0.025149 0.865072
v 0.087000 -0.028149 0.867247
v 0.577000 -0.024000 0.861542
v 0.087000 -0.025149 0.865072
v 0.087000 -0.024000 0.861542
v 0.087000 -0.027002 0.856346
v 0.087000 -0.024808 0.858537
v 0.101000 -0.030000 0.855542
v 0.101000 -0.032999 0.856346
v 0.577000 -0.574851 0.858011
v 0.577000 -0.574851 0.865071
v 0.577000 -0.576000 0.861541
v 0.087000 -0.576000 0.861541
v 0.087000 -0.575192 0.858536
v 0.577000 -0.571852 0.855836
v 0.577000 -0.571852 0.867246
v 0.087000 -0.574851 0.865071
v 0.577000 -0.568148 0.855836
v 0.577000 -0.568148 0.867247
v 0.087000 -0.571852 0.867246
v 0.577000 -0.565149 0.858011
v 0.577000 -0.565149 0.865071
v 0.087000 -0.568148 0.867246
v 0.577000 -0.564000 0.861541
v 0.087000 -0.565149 0.865071
v 0.101000 -0.564000 0.861541
v 0.101000 -0.567001 0.856345
v 0.101000 -0.564808 0.858536
v 0.101000 -0.570000 0.855541
v 0.087000 -0.572999 0.856345
v 0.087000 -0.570000 0.855541
v 0.577000 -0.039000 0.779542
v 0.577000 -0.024000 0.695542
v 0.577000 -0.024000 0.779542
v 0.087000 -0.024000 0.695542
v 0.087000 -0.024000 0.779542
v 0.577000 -0.550000 0.709541
v 0.577000 -0.576000 0.695541
v 0.577000 -0.050000 0.709542
v 0.577000 -0.576000 0.779541
v 0.087000 -0.576000 0.779541
v 0.087000 -0.576000 0.695541
v 0.577000 -0.561000 0.779541
v 0.101000 -0.561000 0.779541
v 0.087000 -0.570000 0.779541
v 0.101000 -0.570000 0.779541
v 0.101000 -0.550000 0.709541
v 0.101000 -0.039000 0.779542
v 0.101000 -0.050000 0.709542
v 0.101000 -0.030000 0.779542
v 0.087000 -0.564000 0.861541
v 0.087000 -0.030000 0.855542
v 0.087000 -0.030000 0.779542
vn 1.0000 0.0000 0.0000
vn 0.0000 -0.9509 0.3095
vn 0.0003 -0.9509 -0.3095
vn 0.0000 -0.9657 -0.2597
vn 0.0000 -0.5870 0.8096
vn 0.0000 -0.9509 0.3096
vn 0.0000 0.0000 1.0000
vn 0.0000 0.5870 0.8096
vn -0.0000 0.9509 0.3095
vn -0.0000 0.9509 -0.3095
vn 0.0005 0.5870 -0.8096
vn -0.0003 0.7067 -0.7075
vn 0.0004 0.9657 -0.2597
vn 0.0006 0.0000 -1.0000
vn -0.0004 0.2572 -0.9664
vn 0.0005 -0.5870 -0.8096
vn -0.0004 -0.2590 -0.9659
vn -0.0003 -0.7067 -0.7075
vn 0.0000 -0.5871 0.8095
vn 0.0000 0.5871 0.8095
vn 0.0005 0.5871 -0.8095
vn -0.0003 0.7068 -0.7074
vn -0.0004 0.2589 -0.9659
vn 0.0005 -0.5871 -0.8095
vn -0.0004 -0.2589 -0.9659
vn 0.0000 -0.1573 -0.9876
vn -0.0003 -0.7068 -0.7075
vn -0.0000 1.0000 0.0000
vn 0.0000 0.0000 -1.0000
vn 0.0000 -1.0000 0.0000
vn -0.0000 0.9879 0.1552
vn 0.0000 -0.9879 0.1552
vn -1.0000 -0.0000 -0.0000
vn -1.0000 -0.0002 0.0000
vn 0.0000 0.2590 -0.9659
usemtl o60
s off
f 1//1 2//1 3//1
f 4//2 3//2 2//2
f 5//3 1//3 3//3
f 5//4 3//4 4//4
f 6//1 7//1 2//1
f 8//5 2//5 7//5
f 1//1 6//1 2//1
f 8//2 9//2 2//2
f 4//6 2//6 9//6
f 10//1 11//1 7//1
f 12//7 7//7 11//7
f 6//1 10//1 7//1
f 8//5 7//5 12//5
f 13//1 14//1 11//1
f 15//8 11//8 14//8
f 10//1 13//1 11//1
f 12//7 11//7 15//7
f 13//1 16//1 14//1
f 17//9 14//9 16//9
f 15//8 14//8 17//8
f 18//10 16//10 13//10
f 17//9 16//9 18//9
f 19//11 13//11 10//11
f 20//12 13//12 19//12
f 18//13 13//13 20//13
f 21//14 10//14 6//14
f 21//15 19//15 10//15
f 22//16 6//16 1//16
f 22//17 21//17 6//17
f 5//18 22//18 1//18
f 23//1 24//1 25//1
f 26//2 25//2 24//2
f 27//3 23//3 25//3
f 27//4 25//4 26//4
f 28//1 29//1 24//1
f 30//19 24//19 29//19
f 23//1 28//1 24//1
f 26//2 24//2 30//2
f 31//1 32//1 29//1
f 33//7 29//7 32//7
f 28//1 31//1 29//1
f 30//19 29//19 33//19
f 34//1 35//1 32//1
f 36//20 32//20 35//20
f 31//1 34//1 32//1
f 33//7 32//7 36//7
f 34//1 37//1 35//1
f 38//9 35//9 37//9
f 36//20 35//20 38//20
f 39//10 37//10 34//10
f 39//9 38//9 37//9
f 40//21 34//21 31//21
f 41//13 39//13 34//13
f 40//22 41//22 34//22
f 42//14 31//14 28//14
f 42//23 40//23 31//23
f 43//24 28//24 23//24
f 44//25 28//25 43//25
f 42//26 28//26 44//26
f 43//27 23//27 27//27
f 45//1 46//1 47//1
f 48//28 47//28 46//28
f 49//7 45//7 47//7
f 49//28 47//28 48//28
f 50//1 51//1 46//1
f 48//29 46//29 51//29
f 52//1 50//1 46//1
f 45//1 52//1 46//1
f 50//1 53//1 51//1
f 54//30 51//30 53//30
f 55//30 51//30 54//30
f 48//29 51//29 55//29
f 50//1 56//1 53//1
f 57//7 53//7 56//7
f 54//7 53//7 58//7
f 59//7 58//7 53//7
f 59//7 53//7 57//7
f 60//31 56//31 50//31
f 60//31 57//31 56//31
f 60//7 50//7 52//7
f 61//32 52//32 45//32
f 62//7 60//7 52//7
f 61//32 62//32 52//32
f 63//7 45//7 49//7
f 63//7 61//7 45//7
f 55//33 64//33 9//33
f 4//7 9//7 64//7
f 65//33 55//33 9//33
f 12//33 65//33 9//33
f 8//33 12//33 9//33
f 58//33 38//33 64//33
f 39//9 64//9 38//9
f 55//34 58//34 64//34
f 39//7 4//7 64//7
f 58//33 36//33 38//33
f 44//33 33//33 36//33
f 58//33 44//33 36//33
f 43//33 30//33 33//33
f 44//33 43//33 33//33
f 27//33 26//33 30//33
f 43//33 27//33 30//33
f 42//30 44//30 58//30
f 55//33 54//33 58//33
f 59//30 42//30 58//30
f 49//33 48//33 55//33
f 66//33 49//33 55//33
f 65//33 66//33 55//33
f 63//7 49//7 66//7
f 63//28 66//28 65//28
f 15//33 19//33 65//33
f 21//35 65//35 19//35
f 12//33 15//33 65//33
f 63//28 65//28 21//28
f 17//33 20//33 19//33
f 15//33 17//33 19//33
f 17//33 18//33 20//33
f 63//1 5//1 4//1
f 61//1 4//1 39//1
f 63//1 4//1 61//1
f 63//1 21//1 22//1
f 63//1 22//1 5//1
f 57//1 39//1 41//1
f 60//1 39//1 57//1
f 62//1 39//1 60//1
f 61//1 39//1 62//1
f 57//1 41//1 40//1
f 57//1 40//1 42//1
f 59//1 57//1 42//1
