# Blender v3.3.1 OBJ File: 'mobile-kitchen-counter.blend'
# www.blender.org
mtllib Sink_water_outlet.mtl
o water_outlet_o66_IndexedFaceSet
v 0.300500 -1.461711 1.214611
v 0.300500 -1.461001 1.207881
v 0.300500 -1.458001 1.207541
v 0.146500 -1.458001 1.207541
v 0.300500 -1.458001 1.213621
v 0.300500 -1.452141 1.208881
v 0.262000 -1.452831 1.208571
v 0.146500 -1.455001 1.207881
v 0.300500 -1.463861 1.208881
v 0.146500 -1.461001 1.207881
v 0.300500 -1.465421 1.221041
v 0.300500 -1.466421 1.210481
v 0.146500 -1.463861 1.208881
v 0.300500 -1.464431 1.217331
v 0.300500 -1.468551 1.229461
v 0.300500 -1.468551 1.212621
v 0.146500 -1.466421 1.210491
v 0.300500 -1.466421 1.231601
v 0.300500 -1.470161 1.226901
v 0.300500 -1.470161 1.215181
v 0.146500 -1.468551 1.212621
v 0.300500 -1.471161 1.224051
v 0.300500 -1.471161 1.218031
v 0.146500 -1.470161 1.215181
v 0.300500 -1.471501 1.221041
v 0.146500 -1.471161 1.218041
v 0.146500 -1.471501 1.221041
v 0.146500 -1.470471 1.226211
v 0.146500 -1.467551 1.230591
v 0.300500 -1.464431 1.224751
v 0.300500 -1.463861 1.233201
v 0.300500 -1.461711 1.227471
v 0.300500 -1.461001 1.234201
v 0.146500 -1.463171 1.233511
v 0.300500 -1.458001 1.228461
v 0.300500 -1.458001 1.234541
v 0.300500 -1.454291 1.227471
v 0.300500 -1.452141 1.233201
v 0.146500 -1.458001 1.234541
v 0.300500 -1.447451 1.212621
v 0.300500 -1.447451 1.229461
v 0.146500 -1.448451 1.230591
v 0.300500 -1.450581 1.221041
v 0.300500 -1.451571 1.224751
v 0.146500 -1.452831 1.233511
v 0.300500 -1.444841 1.218031
v 0.300500 -1.444841 1.224051
v 0.146500 -1.445531 1.226211
v 0.146500 -1.444501 1.221041
v 0.185000 -1.445531 1.215871
v 0.300500 -1.451571 1.217331
v 0.223500 -1.448451 1.211491
v 0.300500 -1.454291 1.214611
v 0.302500 -1.458001 1.213621
v 0.302500 -1.461711 1.214611
v 0.302500 -1.454291 1.214611
v 0.302500 -1.451571 1.217331
v 0.302500 -1.450581 1.221041
v 0.302500 -1.451571 1.224751
v 0.302500 -1.454291 1.227471
v 0.302500 -1.458001 1.228461
v 0.302500 -1.461711 1.227471
v 0.302500 -1.464431 1.224751
v 0.302500 -1.465421 1.221041
v 0.302500 -1.464431 1.217331
v 0.104143 -1.470161 1.039541
v 0.115857 -1.470161 1.039541
v 0.110000 -1.471501 1.039541
v 0.110000 -1.471501 1.184541
v 0.104143 -1.470161 1.184541
v 0.099445 -1.466421 1.039541
v 0.120555 -1.466421 1.039541
v 0.115857 -1.470161 1.184541
v 0.096839 -1.461001 1.039541
v 0.123162 -1.461001 1.039541
v 0.120555 -1.466421 1.184541
v 0.096839 -1.455001 1.039541
v 0.123162 -1.455001 1.039541
v 0.123162 -1.461001 1.184541
v 0.099445 -1.449581 1.039541
v 0.120555 -1.449581 1.039541
v 0.123162 -1.455001 1.184541
v 0.104143 -1.445841 1.039541
v 0.115857 -1.445841 1.039541
v 0.120555 -1.449581 1.184541
v 0.110000 -1.444501 1.039541
v 0.115857 -1.445841 1.184541
v 0.110000 -1.444501 1.184541
v 0.104143 -1.445841 1.184541
v 0.099445 -1.449581 1.184541
v 0.096839 -1.455001 1.184541
v 0.096839 -1.461001 1.184541
v 0.099445 -1.466421 1.184541
v 0.135429 -1.458001 1.233301
v 0.135656 -1.463171 1.232301
v 0.135656 -1.452831 1.232301
v 0.136304 -1.448451 1.229441
v 0.137274 -1.445531 1.225171
v 0.146500 -1.444841 1.218041
v 0.138419 -1.444501 1.220131
v 0.146500 -1.445841 1.215181
v 0.146500 -1.449581 1.210491
v 0.146500 -1.447451 1.212621
v 0.146500 -1.452141 1.208881
v 0.110915 -1.471501 1.192661
v 0.105878 -1.470471 1.193811
v 0.120865 -1.467551 1.192871
v 0.111242 -1.471501 1.193981
v 0.111786 -1.471501 1.195821
v 0.116700 -1.470471 1.194221
v 0.123648 -1.463171 1.191961
v 0.124626 -1.458001 1.191651
v 0.123648 -1.452831 1.191961
v 0.120865 -1.448451 1.192871
v 0.116700 -1.445531 1.194221
v 0.110915 -1.444501 1.192661
v 0.108964 -1.470471 1.202631
v 0.113618 -1.471501 1.200381
v 0.121156 -1.470471 1.202971
v 0.114889 -1.471501 1.202791
v 0.116978 -1.471501 1.206001
v 0.124699 -1.467551 1.200391
v 0.127066 -1.463171 1.198671
v 0.127897 -1.458001 1.198061
v 0.127066 -1.452831 1.198671
v 0.124699 -1.448451 1.200391
v 0.111242 -1.444501 1.193981
v 0.111786 -1.444501 1.195821
v 0.121156 -1.445531 1.202971
v 0.105878 -1.445531 1.193811
v 0.113618 -1.444501 1.200381
v 0.113936 -1.470471 1.210531
v 0.117973 -1.471501 1.207311
v 0.128098 -1.470471 1.209901
v 0.120691 -1.471501 1.210351
v 0.123762 -1.471501 1.213091
v 0.125064 -1.471501 1.214081
v 0.130671 -1.467551 1.206361
v 0.132389 -1.463171 1.203991
v 0.132993 -1.458001 1.203161
v 0.132389 -1.452831 1.203991
v 0.130671 -1.448451 1.206361
v 0.114889 -1.444501 1.202791
v 0.116978 -1.444501 1.206001
v 0.128098 -1.445531 1.209901
v 0.108964 -1.445531 1.202631
v 0.117973 -1.444501 1.207311
v 0.120543 -1.470471 1.217131
v 0.128455 -1.470471 1.222101
v 0.128252 -1.471501 1.216151
v 0.136845 -1.470471 1.214351
v 0.130693 -1.471501 1.217441
v 0.135253 -1.471501 1.219261
v 0.138195 -1.467551 1.210181
v 0.139097 -1.463171 1.207401
v 0.139413 -1.458001 1.206421
v 0.139097 -1.452831 1.207401
v 0.138195 -1.448451 1.210181
v 0.123762 -1.444501 1.213091
v 0.125064 -1.444501 1.214081
v 0.136845 -1.445531 1.214351
v 0.120691 -1.444501 1.210351
v 0.120543 -1.445531 1.217131
v 0.128252 -1.444501 1.216151
v 0.113936 -1.445531 1.210531
v 0.137274 -1.470471 1.225171
v 0.137058 -1.471501 1.219801
v 0.138419 -1.471501 1.220131
v 0.130693 -1.444501 1.217441
v 0.135253 -1.444501 1.219261
v 0.128455 -1.445531 1.222101
v 0.137058 -1.444501 1.219801
v 0.101609 -1.448451 1.194791
v 0.098756 -1.452831 1.195441
v 0.097754 -1.458001 1.195671
v 0.098756 -1.463171 1.195441
v 0.101609 -1.467551 1.194791
v 0.105019 -1.448451 1.204531
v 0.102382 -1.452831 1.205801
v 0.101456 -1.458001 1.206241
v 0.102382 -1.463171 1.205801
v 0.105019 -1.467551 1.204531
v 0.136304 -1.467551 1.229441
v 0.126559 -1.467551 1.226041
v 0.125291 -1.463171 1.228681
v 0.124846 -1.458001 1.229611
v 0.125291 -1.452831 1.228681
v 0.126559 -1.448451 1.226041
v 0.117815 -1.467551 1.220561
v 0.115992 -1.463171 1.222851
v 0.115352 -1.458001 1.223651
v 0.115992 -1.452831 1.222851
v 0.117815 -1.448451 1.220561
v 0.110513 -1.467551 1.213271
v 0.108226 -1.463171 1.215091
v 0.107422 -1.458001 1.215731
v 0.108226 -1.452831 1.215091
v 0.110513 -1.448451 1.213271
v 0.351500 -1.463861 1.233201
v 0.351500 -1.463861 1.208881
v 0.351500 -1.458001 1.207541
v 0.344268 -1.458001 1.207541
v 0.351500 -1.458001 1.234541
v 0.351500 -1.452141 1.208881
v 0.343396 -1.453501 1.208311
v 0.351500 -1.468561 1.229451
v 0.351500 -1.468561 1.212631
v 0.341439 -1.465741 1.209981
v 0.343511 -1.462191 1.208211
v 0.351500 -1.471161 1.224041
v 0.351500 -1.471161 1.218041
v 0.335390 -1.469591 1.214111
v 0.338577 -1.468211 1.212211
v 0.302500 -1.471161 1.218041
v 0.302500 -1.468561 1.212631
v 0.332268 -1.470001 1.214861
v 0.302500 -1.471161 1.224041
v 0.302500 -1.468561 1.229451
v 0.302500 -1.463861 1.233201
v 0.351500 -1.452141 1.233201
v 0.302500 -1.458001 1.234541
v 0.351500 -1.447441 1.212631
v 0.351500 -1.447441 1.229451
v 0.302500 -1.452141 1.233201
v 0.351500 -1.444841 1.218041
v 0.351500 -1.444841 1.224041
v 0.302500 -1.447441 1.229451
v 0.302500 -1.444841 1.224041
v 0.332268 -1.446001 1.214861
v 0.302500 -1.444841 1.218041
v 0.339153 -1.448171 1.211791
v 0.334857 -1.446281 1.214341
v 0.337104 -1.447021 1.213191
v 0.341361 -1.450171 1.210041
v 0.302500 -1.452141 1.208881
v 0.321026 -1.453801 1.208211
v 0.320268 -1.458001 1.207541
v 0.320570 -1.455331 1.201041
v 0.302500 -1.458001 1.207541
v 0.321140 -1.462501 1.208311
v 0.320570 -1.460671 1.201041
v 0.323101 -1.450261 1.209981
v 0.322888 -1.450521 1.201041
v 0.302500 -1.447441 1.212631
v 0.325961 -1.447791 1.212211
v 0.329145 -1.446411 1.214111
v 0.327059 -1.447191 1.201041
v 0.332268 -1.446001 1.201041
v 0.337477 -1.447191 1.201041
v 0.341648 -1.450521 1.201041
v 0.343966 -1.455331 1.201041
v 0.343966 -1.460671 1.201041
v 0.302500 -1.463861 1.208881
v 0.325385 -1.467831 1.211791
v 0.329680 -1.469721 1.214341
v 0.327434 -1.468981 1.213191
v 0.323175 -1.465831 1.210041
v 0.332268 -1.470001 1.201041
v 0.337477 -1.468811 1.201041
v 0.327059 -1.468811 1.201041
v 0.322888 -1.465481 1.201041
v 0.341648 -1.465481 1.201041
vn 1.0000 0.0000 0.0000
vn 0.0000 -0.1126 -0.9936
vn 0.0039 0.2229 -0.9748
vn 0.0019 0.2091 -0.9779
vn 0.0000 0.1126 -0.9936
vn 0.0000 -0.3301 -0.9440
vn 0.0000 -0.5299 -0.8480
vn 1.0000 0.0001 0.0000
vn -0.0000 -0.7088 -0.7054
vn -0.0001 -0.5324 -0.8465
vn 0.0000 -0.8465 -0.5324
vn 0.0000 -0.7071 -0.7071
vn 0.0000 -0.9436 -0.3311
vn 0.0000 -0.8466 -0.5323
vn -0.0000 -0.9937 -0.1123
vn -0.0000 -0.9439 -0.3301
vn 0.0000 -0.9937 0.1123
vn 0.0000 -0.9936 -0.1126
vn 0.0004 -0.9436 0.3311
vn -0.0017 -0.9807 0.1954
vn -0.0007 -0.8465 0.5323
vn 0.0006 -0.7088 0.7055
vn -0.0013 -0.8320 0.5547
vn -0.0017 -0.5300 0.8480
vn 0.0004 -0.3301 0.9440
vn -0.0008 -0.5547 0.8321
vn -0.0029 -0.1126 0.9936
vn 0.0000 0.2229 0.9748
vn 0.0000 -0.1954 0.9807
vn 0.0017 0.6235 0.7819
vn 0.0011 0.1954 0.9807
vn -0.0008 0.5547 0.8321
vn 0.0021 0.9007 0.4345
vn -0.0013 0.8321 0.5547
vn 0.0022 1.0000 0.0000
vn -0.0017 0.9807 0.1954
vn 0.0027 0.9006 -0.4345
vn -0.0019 0.9779 -0.2092
vn 0.0034 0.6235 -0.7819
vn -0.0023 0.8225 -0.5688
vn -0.0028 0.5373 -0.8434
vn 0.0000 0.2578 -0.9662
vn 0.0000 -0.2578 -0.9662
vn 0.0000 0.7071 -0.7071
vn 0.0000 0.9662 -0.2578
vn 0.0000 0.9662 0.2578
vn 0.0000 0.7071 0.7071
vn 0.0000 0.2578 0.9662
vn 0.0000 -0.2578 0.9662
vn 0.0000 -0.7071 0.7071
vn 0.0000 -0.9662 0.2578
vn 0.0000 -0.9662 -0.2578
vn 0.0000 0.0000 -1.0000
vn 0.2230 -0.9748 0.0000
vn -0.2230 -0.9748 0.0000
vn 0.6228 -0.7824 0.0000
vn 0.9012 -0.4335 -0.0000
vn 0.9012 0.4335 0.0000
vn 0.6228 0.7824 0.0000
vn 0.2230 0.9748 0.0000
vn -0.2230 0.9748 0.0000
vn -0.6228 0.7823 0.0000
vn -0.9012 0.4334 0.0000
vn -1.0000 0.0000 -0.0000
vn -0.9012 -0.4334 0.0000
vn -0.6229 -0.7823 -0.0000
vn -0.6228 -0.7823 0.0000
vn -0.1092 0.1942 0.9749
vn -0.1088 -0.1942 0.9749
vn -0.1092 -0.1934 0.9750
vn -0.0925 0.5523 0.8285
vn -0.1088 0.1934 0.9751
vn -0.0624 0.8304 0.5536
vn -0.0933 0.5540 0.8273
vn -0.0220 0.9805 0.1954
vn 0.0115 0.9936 -0.1126
vn 0.0127 0.9936 -0.1126
vn 0.0028 0.8434 -0.5373
vn -0.0017 0.9440 -0.3301
vn 0.0023 0.5688 -0.8225
vn -0.0012 0.7071 -0.7071
vn 0.0032 0.8465 -0.5323
vn -0.0006 0.3301 -0.9440
vn 0.0009 0.5324 -0.8465
vn 0.2230 -0.9745 -0.0251
vn -0.1955 -0.9805 0.0220
vn -0.2230 -0.9748 0.0092
vn 0.6177 -0.7759 -0.1282
vn 0.1890 -0.9809 -0.0469
vn 0.1778 -0.9827 -0.0526
vn 0.1899 -0.9806 -0.0479
vn 0.5560 -0.8278 -0.0749
vn 0.8860 -0.4262 -0.1827
vn 0.8293 -0.5488 -0.1053
vn 0.9795 0.0000 -0.2017
vn 0.9742 -0.1915 -0.1198
vn 0.8860 0.4262 -0.1827
vn 0.9742 0.1915 -0.1198
vn 0.6177 0.7759 -0.1283
vn 0.8293 0.5488 -0.1053
vn 0.2227 0.9736 -0.0506
vn 0.5560 0.8278 -0.0749
vn 0.1806 0.9833 -0.0203
vn -0.2230 0.9745 0.0251
vn -0.2266 -0.9724 0.0562
vn -0.1857 -0.9805 0.0650
vn -0.2080 -0.9762 0.0615
vn 0.1818 -0.9806 -0.0730
vn -0.1817 -0.9806 0.0730
vn 0.4987 -0.8287 -0.2540
vn 0.1600 -0.9835 -0.0844
vn 0.1375 -0.9864 -0.0895
vn 0.1765 -0.9802 -0.0899
vn 0.7434 -0.5511 -0.3790
vn 0.4982 -0.8290 -0.2540
vn 0.8745 -0.1921 -0.4454
vn 0.7438 -0.5507 -0.3789
vn 0.8741 0.1921 -0.4461
vn 0.8740 -0.1931 -0.4460
vn 0.7435 0.5511 -0.3787
vn 0.8743 0.1931 -0.4454
vn 0.4986 0.8287 -0.2542
vn 0.7436 0.5507 -0.3791
vn 0.1875 0.9807 -0.0553
vn 0.1763 0.9802 -0.0898
vn 0.1872 0.9812 -0.0464
vn 0.4984 0.8290 -0.2538
vn -0.1900 0.9802 0.0561
vn 0.1563 0.9857 -0.0628
vn -0.1973 0.9771 0.0793
vn -0.1898 0.9807 0.0471
vn -0.1994 0.9799 0.0045
vn -0.1993 -0.9743 0.1051
vn -0.1664 -0.9805 0.1047
vn -0.1685 -0.9796 0.1096
vn 0.1559 -0.9807 -0.1184
vn -0.1558 -0.9807 0.1184
vn 0.3951 -0.8290 -0.3957
vn 0.1431 -0.9814 -0.1280
vn 0.1161 -0.9847 -0.1302
vn 0.0950 -0.9876 -0.1250
vn 0.1398 -0.9802 -0.1400
vn 0.5901 -0.5507 -0.5903
vn 0.3957 -0.8287 -0.3959
vn 0.6936 -0.1934 -0.6939
vn 0.5900 -0.5508 -0.5904
vn 0.6941 0.1934 -0.6935
vn 0.6941 -0.1924 -0.6936
vn 0.5900 0.5507 -0.5904
vn 0.6937 0.1925 -0.6941
vn 0.3953 0.8291 -0.3954
vn 0.5901 0.5509 -0.5902
vn 0.1642 0.9806 -0.1070
vn 0.1400 0.9802 -0.1403
vn 0.1640 0.9827 -0.0865
vn 0.3954 0.8287 -0.3961
vn -0.1731 0.9784 0.1127
vn 0.1247 0.9877 -0.0947
vn -0.1838 0.9730 0.1395
vn -0.1730 0.9807 0.0912
vn -0.1856 0.9805 0.0650
vn -0.1619 -0.9761 0.1448
vn -0.1391 -0.9804 0.1392
vn -0.1304 -0.9806 0.1462
vn -0.1400 -0.9729 0.1842
vn -0.1047 -0.9805 0.1666
vn 0.1066 -0.9806 -0.1643
vn -0.1125 -0.9784 0.1733
vn 0.2538 -0.8286 -0.4990
vn 0.0867 -0.9826 -0.1641
vn 0.0623 -0.9858 -0.1561
vn 0.0898 -0.9802 -0.1765
vn 0.3779 -0.5509 -0.7442
vn 0.2531 -0.8291 -0.4986
vn 0.4447 -0.1924 -0.8748
vn 0.3784 -0.5503 -0.7443
vn 0.4443 0.1924 -0.8750
vn 0.4443 -0.1930 -0.8749
vn 0.3782 0.5509 -0.7440
vn 0.4447 0.1930 -0.8747
vn 0.2535 0.8286 -0.4992
vn 0.3780 0.5504 -0.7445
vn 0.1184 0.9807 -0.1557
vn 0.0897 0.9802 -0.1764
vn 0.1278 0.9814 -0.1432
vn 0.1299 0.9847 -0.1161
vn 0.2535 0.8290 -0.4984
vn -0.1184 0.9807 0.1557
vn 0.0894 0.9864 -0.1376
vn -0.1095 0.9796 0.1686
vn -0.1445 0.9762 0.1620
vn -0.1390 0.9805 0.1392
vn -0.1461 0.9806 0.1306
vn -0.1666 0.9804 0.1048
vn -0.0914 -0.9807 0.1729
vn -0.0787 -0.9772 0.1973
vn -0.0646 -0.9805 0.1857
vn 0.0561 -0.9806 -0.1876
vn -0.0570 -0.9801 0.1903
vn 0.0744 -0.8280 -0.5557
vn 0.0454 -0.9813 -0.1873
vn 0.0204 -0.9833 -0.1808
vn -0.0280 -0.9933 -0.1125
vn 0.0586 -0.9423 -0.3295
vn 0.1056 -0.5483 -0.8296
vn 0.0544 -0.8453 -0.5316
vn 0.1217 -0.7019 -0.7018
vn 0.1194 -0.1920 -0.9741
vn 0.1187 -0.5286 -0.8405
vn 0.1560 -0.3260 -0.9324
vn 0.1532 0.1931 -0.9692
vn 0.1551 -0.1112 -0.9816
vn 0.1144 0.5490 -0.8279
vn 0.0969 0.1121 -0.9890
vn 0.1560 0.3260 -0.9324
vn 0.0644 0.8272 -0.5583
vn 0.1035 0.5295 -0.8420
vn 0.1217 0.7018 -0.7019
vn 0.0727 0.9806 -0.1821
vn 0.0076 0.9792 -0.2029
vn 0.0845 0.9835 -0.1598
vn 0.0728 0.8443 -0.5310
vn 0.0586 0.9423 -0.3295
vn -0.0726 0.9806 0.1819
vn 0.0221 0.9970 -0.0740
vn -0.0618 0.9765 0.2063
vn -0.1050 0.9745 0.1985
vn -0.1046 0.9805 0.1665
vn -0.0461 -0.9807 0.1900
vn -0.0220 -0.9805 0.1954
vn 0.0203 0.9963 -0.0835
vn -0.0554 0.9720 0.2283
vn -0.0646 0.9805 0.1857
vn -0.6222 0.7815 0.0452
vn -0.5511 0.8310 0.0754
vn -0.8988 0.4323 0.0720
vn -0.8248 0.5541 0.1130
vn -0.9966 0.0000 0.0819
vn -0.9720 0.1942 0.1323
vn -0.8988 -0.4323 0.0720
vn -0.9720 -0.1942 0.1323
vn -0.6222 -0.7815 0.0452
vn -0.8248 -0.5541 0.1130
vn -0.5511 -0.8310 0.0754
vn -0.5258 0.8305 0.1840
vn -0.7863 0.5531 0.2753
vn -0.5259 0.8304 0.1841
vn -0.9259 0.1938 0.3241
vn -0.7863 0.5532 0.2752
vn -0.9259 -0.1939 0.3243
vn -0.9259 0.1934 0.3244
vn -0.7863 -0.5531 0.2752
vn -0.9260 -0.1934 0.3241
vn -0.5258 -0.8305 0.1841
vn -0.7863 -0.5532 0.2753
vn -0.5260 -0.8304 0.1840
vn -0.0934 -0.5523 0.8284
vn -0.0924 -0.5539 0.8274
vn -0.0624 -0.8304 0.5536
vn -0.0624 -0.8304 0.5537
vn -0.1832 -0.8304 0.5262
vn -0.2743 -0.5539 0.7861
vn -0.1838 -0.8300 0.5267
vn -0.3235 -0.1934 0.9263
vn -0.2746 -0.5534 0.7863
vn -0.3230 0.1934 0.9264
vn -0.3229 -0.1944 0.9262
vn -0.2745 0.5539 0.7860
vn -0.3234 0.1944 0.9261
vn -0.1836 0.8304 0.5261
vn -0.2744 0.5534 0.7864
vn -0.1834 0.8299 0.5268
vn -0.2967 -0.8300 0.4723
vn -0.4423 -0.5534 0.7058
vn -0.2957 -0.8306 0.4719
vn -0.5211 -0.1943 0.8311
vn -0.4425 -0.5532 0.7058
vn -0.5216 0.1943 0.8308
vn -0.5216 -0.1931 0.8310
vn -0.4424 0.5534 0.7057
vn -0.5212 0.1931 0.8313
vn -0.2962 0.8300 0.4726
vn -0.4424 0.5532 0.7059
vn -0.2962 0.8306 0.4715
vn -0.3936 -0.8306 0.3940
vn -0.5886 -0.5532 0.5895
vn -0.3933 -0.8307 0.3939
vn -0.6935 -0.1932 0.6940
vn -0.5891 -0.5526 0.5896
vn -0.6934 0.1932 0.6942
vn -0.6933 -0.1937 0.6942
vn -0.5888 0.5532 0.5893
vn -0.6934 0.1937 0.6940
vn -0.3935 0.8306 0.3941
vn -0.5889 0.5526 0.5898
vn -0.3934 0.8307 0.3938
vn -0.4712 -0.8307 0.2966
vn -0.7056 -0.5527 0.4435
vn -0.4718 -0.8304 0.2966
vn -0.8304 -0.1938 0.5224
vn -0.7052 -0.5532 0.4436
vn -0.8306 0.1938 0.5221
vn -0.8306 -0.1932 0.5222
vn -0.7054 0.5527 0.4437
vn -0.8305 0.1932 0.5225
vn -0.4714 0.8307 0.2963
vn -0.7053 0.5532 0.4433
vn -0.4716 0.8303 0.2968
vn 0.0000 -0.2229 -0.9748
vn 0.0311 0.2228 -0.9744
vn 0.0000 0.1687 -0.9857
vn 0.0311 -0.6234 -0.7813
vn 0.0479 -0.1662 -0.9849
vn -0.0163 -0.4385 -0.8986
vn 0.0178 -0.9012 -0.4331
vn 0.0058 -0.6738 -0.7389
vn -0.0027 -0.8069 -0.5906
vn 0.0000 -1.0000 0.0000
vn 0.0000 -0.9013 -0.4332
vn -0.0381 -0.9907 -0.1306
vn 0.0161 -0.9040 -0.4272
vn 0.0000 -0.9013 0.4332
vn 0.0000 -0.6237 0.7817
vn 0.0000 -0.9013 0.4331
vn 0.0000 -0.2229 0.9748
vn 0.0000 0.6237 0.7817
vn 0.0000 0.9013 0.4331
vn 0.0000 1.0000 0.0000
vn 0.0000 0.9013 0.4332
vn 0.0173 0.9012 -0.4331
vn 0.0000 0.9394 -0.3427
vn 0.0163 0.6236 -0.7816
vn 0.0273 0.9306 -0.3651
vn 0.0038 0.8443 -0.5358
vn -0.0023 0.7711 -0.6367
vn 0.0511 0.6891 -0.7229
vn -0.0136 0.4544 -0.8907
vn -0.0212 0.1613 -0.9867
vn -0.9845 0.1736 0.0256
vn 0.0000 0.2229 -0.9748
vn 0.0000 -0.1687 -0.9857
vn -0.9822 -0.1851 0.0304
vn -0.9989 0.0000 -0.0464
vn 0.0074 0.4437 -0.8961
vn -0.8640 0.5035 0.0059
vn -0.9003 0.4339 -0.0353
vn -0.0032 0.6722 -0.7404
vn -0.6507 0.7593 -0.0066
vn -0.0152 0.6236 -0.7816
vn 0.0015 0.8079 -0.5893
vn -0.4025 0.9154 0.0096
vn -0.6238 0.7813 -0.0193
vn -0.0121 0.8976 -0.4405
vn -0.1207 0.9919 -0.0399
vn -0.0108 0.9013 -0.4331
vn 0.1075 0.9942 0.0000
vn -0.2227 0.9749 0.0000
vn 0.2953 0.9547 -0.0374
vn 0.4909 0.8712 0.0029
vn 0.2227 0.9749 -0.0068
vn 0.6562 0.7538 -0.0336
vn 0.8549 0.5188 0.0071
vn 0.6239 0.7814 -0.0105
vn 0.9822 0.1851 0.0304
vn 0.9002 0.4338 -0.0386
vn 0.9845 -0.1738 0.0256
vn 0.9989 0.0000 -0.0464
vn -0.0135 -0.2229 -0.9747
vn -1.0000 0.0001 0.0000
vn -0.0088 -0.6237 -0.7816
vn -0.0116 -0.9034 -0.4286
vn -0.0021 -0.8427 -0.5384
vn 0.0013 -0.7717 -0.6360
vn -0.0225 -0.6723 -0.7399
vn 0.0062 -0.4580 -0.8889
vn -0.1076 -0.9942 0.0000
vn 0.1207 -0.9919 -0.0399
vn 0.2227 -0.9749 0.0000
vn -0.2954 -0.9546 -0.0374
vn -0.4910 -0.8712 0.0030
vn -0.2227 -0.9749 -0.0068
vn -0.6559 -0.7541 -0.0334
vn -0.8549 -0.5187 0.0071
vn -0.6239 -0.7814 -0.0105
vn -0.9002 -0.4338 -0.0386
vn 0.8649 -0.5020 0.0056
vn 0.9003 -0.4339 -0.0349
vn 0.6503 -0.7597 -0.0069
vn 0.4021 -0.9155 0.0096
vn 0.6238 -0.7813 -0.0195
vn -0.0001 0.0000 -1.0000
vn 0.0001 0.0000 -1.0000
usemtl o66
s off
f 1//1 2//1 3//1
f 4//2 3//2 2//2
f 5//1 3//1 6//1
f 7//3 6//3 3//3
f 1//1 3//1 5//1
f 8//4 7//4 3//4
f 8//5 3//5 4//5
f 1//1 9//1 2//1
f 10//6 2//6 9//6
f 4//2 2//2 10//2
f 11//1 12//1 9//1
f 13//7 9//7 12//7
f 14//8 11//8 9//8
f 1//1 14//1 9//1
f 10//6 9//6 13//6
f 15//1 16//1 12//1
f 17//9 12//9 16//9
f 18//1 15//1 12//1
f 11//1 18//1 12//1
f 13//10 12//10 17//10
f 19//1 20//1 16//1
f 21//11 16//11 20//11
f 15//1 19//1 16//1
f 17//12 16//12 21//12
f 22//1 23//1 20//1
f 24//13 20//13 23//13
f 19//1 22//1 20//1
f 21//14 20//14 24//14
f 22//8 25//8 23//8
f 26//15 23//15 25//15
f 24//16 23//16 26//16
f 27//17 25//17 22//17
f 26//18 25//18 27//18
f 28//19 22//19 19//19
f 28//20 27//20 22//20
f 28//21 19//21 15//21
f 29//22 15//22 18//22
f 28//23 15//23 29//23
f 30//1 31//1 18//1
f 29//24 18//24 31//24
f 11//1 30//1 18//1
f 32//1 33//1 31//1
f 34//25 31//25 33//25
f 30//1 32//1 31//1
f 29//26 31//26 34//26
f 35//1 36//1 33//1
f 34//27 33//27 36//27
f 32//1 35//1 33//1
f 37//1 38//1 36//1
f 39//28 36//28 38//28
f 35//1 37//1 36//1
f 34//29 36//29 39//29
f 40//1 41//1 38//1
f 42//30 38//30 41//30
f 43//1 40//1 38//1
f 44//1 43//1 38//1
f 37//1 44//1 38//1
f 45//31 39//31 38//31
f 42//32 45//32 38//32
f 46//1 47//1 41//1
f 48//33 41//33 47//33
f 40//1 46//1 41//1
f 48//34 42//34 41//34
f 49//35 47//35 46//35
f 49//36 48//36 47//36
f 50//37 46//37 40//37
f 50//38 49//38 46//38
f 51//1 6//1 40//1
f 52//39 40//39 6//39
f 43//1 51//1 40//1
f 52//40 50//40 40//40
f 53//1 5//1 6//1
f 51//1 53//1 6//1
f 7//41 52//41 6//41
f 54//42 5//42 53//42
f 55//43 1//43 5//43
f 55//43 5//43 54//43
f 56//44 53//44 51//44
f 56//42 54//42 53//42
f 57//45 51//45 43//45
f 56//44 51//44 57//44
f 58//46 43//46 44//46
f 57//45 43//45 58//45
f 59//47 44//47 37//47
f 58//46 44//46 59//46
f 60//48 37//48 35//48
f 59//47 37//47 60//47
f 61//49 35//49 32//49
f 60//48 35//48 61//48
f 62//50 32//50 30//50
f 61//49 32//49 62//49
f 63//51 30//51 11//51
f 62//50 30//50 63//50
f 64//52 11//52 14//52
f 63//51 11//51 64//51
f 65//12 14//12 1//12
f 64//52 14//52 65//52
f 65//12 1//12 55//12
f 66//53 67//53 68//53
f 69//54 68//54 67//54
f 70//55 66//55 68//55
f 70//55 68//55 69//55
f 71//53 72//53 67//53
f 73//56 67//56 72//56
f 66//53 71//53 67//53
f 73//54 69//54 67//54
f 74//53 75//53 72//53
f 76//57 72//57 75//57
f 71//53 74//53 72//53
f 76//56 73//56 72//56
f 77//53 78//53 75//53
f 79//1 75//1 78//1
f 74//53 77//53 75//53
f 79//57 76//57 75//57
f 80//53 81//53 78//53
f 82//58 78//58 81//58
f 77//53 80//53 78//53
f 82//1 79//1 78//1
f 83//53 84//53 81//53
f 85//59 81//59 84//59
f 80//53 83//53 81//53
f 85//58 82//58 81//58
f 83//53 86//53 84//53
f 87//60 84//60 86//60
f 87//59 85//59 84//59
f 88//61 86//61 83//61
f 88//60 87//60 86//60
f 89//62 83//62 80//62
f 89//61 88//61 83//61
f 90//63 80//63 77//63
f 90//62 89//62 80//62
f 91//64 77//64 74//64
f 91//63 90//63 77//63
f 92//65 74//65 71//65
f 92//64 91//64 74//64
f 93//66 71//66 66//66
f 93//65 92//65 71//65
f 70//67 93//67 66//67
f 94//68 39//68 45//68
f 95//69 34//69 39//69
f 94//70 95//70 39//70
f 96//71 45//71 42//71
f 96//72 94//72 45//72
f 97//73 42//73 48//73
f 97//74 96//74 42//74
f 98//75 48//75 49//75
f 98//73 97//73 48//73
f 99//76 49//76 50//76
f 100//77 49//77 99//77
f 98//75 49//75 100//75
f 101//78 50//78 52//78
f 99//79 50//79 101//79
f 102//80 52//80 7//80
f 103//81 52//81 102//81
f 101//82 52//82 103//82
f 104//83 7//83 8//83
f 102//84 7//84 104//84
f 105//85 69//85 73//85
f 106//86 69//86 105//86
f 106//87 70//87 69//87
f 107//88 73//88 76//88
f 108//89 105//89 73//89
f 109//90 108//90 73//90
f 110//91 109//91 73//91
f 107//92 110//92 73//92
f 111//93 76//93 79//93
f 111//94 107//94 76//94
f 112//95 79//95 82//95
f 112//96 111//96 79//96
f 113//97 82//97 85//97
f 113//98 112//98 82//98
f 114//99 85//99 87//99
f 114//100 113//100 85//100
f 115//101 87//101 88//101
f 115//102 114//102 87//102
f 116//103 115//103 88//103
f 89//104 116//104 88//104
f 117//105 105//105 108//105
f 117//106 106//106 105//106
f 117//107 108//107 109//107
f 118//108 109//108 110//108
f 117//109 109//109 118//109
f 119//110 110//110 107//110
f 120//111 118//111 110//111
f 121//112 120//112 110//112
f 119//113 121//113 110//113
f 122//114 107//114 111//114
f 122//115 119//115 107//115
f 123//116 111//116 112//116
f 123//117 122//117 111//117
f 124//118 112//118 113//118
f 124//119 123//119 112//119
f 125//120 113//120 114//120
f 125//121 124//121 113//121
f 126//122 114//122 115//122
f 126//123 125//123 114//123
f 127//124 128//124 115//124
f 129//125 115//125 128//125
f 116//126 127//126 115//126
f 129//127 126//127 115//127
f 130//128 128//128 127//128
f 131//129 129//129 128//129
f 130//130 131//130 128//130
f 130//131 127//131 116//131
f 130//132 116//132 89//132
f 132//133 118//133 120//133
f 117//134 118//134 132//134
f 132//135 120//135 121//135
f 133//136 121//136 119//136
f 132//137 121//137 133//137
f 134//138 119//138 122//138
f 135//139 133//139 119//139
f 136//140 135//140 119//140
f 137//141 136//141 119//141
f 134//142 137//142 119//142
f 138//143 122//143 123//143
f 138//144 134//144 122//144
f 139//145 123//145 124//145
f 139//146 138//146 123//146
f 140//147 124//147 125//147
f 140//148 139//148 124//148
f 141//149 125//149 126//149
f 141//150 140//150 125//150
f 142//151 126//151 129//151
f 142//152 141//152 126//152
f 143//153 144//153 129//153
f 145//154 129//154 144//154
f 131//155 143//155 129//155
f 145//156 142//156 129//156
f 146//157 144//157 143//157
f 147//158 145//158 144//158
f 146//159 147//159 144//159
f 146//160 143//160 131//160
f 146//161 131//161 130//161
f 148//162 133//162 135//162
f 132//163 133//163 148//163
f 148//164 135//164 136//164
f 149//165 136//165 137//165
f 148//166 136//166 149//166
f 150//167 137//167 134//167
f 149//168 137//168 150//168
f 151//169 134//169 138//169
f 152//170 150//170 134//170
f 153//171 152//171 134//171
f 151//172 153//172 134//172
f 154//173 138//173 139//173
f 154//174 151//174 138//174
f 155//175 139//175 140//175
f 155//176 154//176 139//176
f 156//177 140//177 141//177
f 156//178 155//178 140//178
f 157//179 141//179 142//179
f 157//180 156//180 141//180
f 158//181 142//181 145//181
f 158//182 157//182 142//182
f 159//183 160//183 145//183
f 161//184 145//184 160//184
f 162//185 159//185 145//185
f 147//186 162//186 145//186
f 161//187 158//187 145//187
f 163//188 160//188 159//188
f 164//189 161//189 160//189
f 163//190 164//190 160//190
f 165//191 159//191 162//191
f 165//192 163//192 159//192
f 165//193 162//193 147//193
f 146//194 165//194 147//194
f 149//195 150//195 152//195
f 166//196 152//196 153//196
f 149//197 152//197 166//197
f 167//198 153//198 151//198
f 166//199 153//199 167//199
f 24//200 151//200 154//200
f 168//201 167//201 151//201
f 27//202 168//202 151//202
f 26//203 27//203 151//203
f 24//204 26//204 151//204
f 17//205 154//205 155//205
f 21//206 24//206 154//206
f 17//207 21//207 154//207
f 10//208 155//208 156//208
f 13//209 17//209 155//209
f 10//210 13//210 155//210
f 4//211 156//211 157//211
f 4//212 10//212 156//212
f 104//213 157//213 158//213
f 8//214 4//214 157//214
f 104//215 8//215 157//215
f 103//216 158//216 161//216
f 102//217 104//217 158//217
f 103//218 102//218 158//218
f 169//219 170//219 161//219
f 99//220 161//220 170//220
f 164//221 169//221 161//221
f 101//222 103//222 161//222
f 99//223 101//223 161//223
f 171//224 170//224 169//224
f 172//225 99//225 170//225
f 171//226 172//226 170//226
f 163//227 169//227 164//227
f 163//228 171//228 169//228
f 166//229 167//229 168//229
f 28//230 168//230 27//230
f 166//230 168//230 28//230
f 172//231 100//231 99//231
f 171//232 100//232 172//232
f 171//233 98//233 100//233
f 173//234 89//234 90//234
f 173//235 130//235 89//235
f 174//236 90//236 91//236
f 174//237 173//237 90//237
f 175//238 91//238 92//238
f 175//239 174//239 91//239
f 176//240 92//240 93//240
f 176//241 175//241 92//241
f 177//242 93//242 70//242
f 177//243 176//243 93//243
f 106//244 177//244 70//244
f 146//245 130//245 173//245
f 178//246 173//246 174//246
f 146//247 173//247 178//247
f 179//248 174//248 175//248
f 178//249 174//249 179//249
f 180//250 175//250 176//250
f 179//251 175//251 180//251
f 181//252 176//252 177//252
f 180//253 176//253 181//253
f 182//254 177//254 106//254
f 181//255 177//255 182//255
f 182//256 106//256 117//256
f 183//257 29//257 34//257
f 95//258 183//258 34//258
f 166//259 28//259 29//259
f 183//260 166//260 29//260
f 149//261 166//261 183//261
f 184//262 183//262 95//262
f 184//263 149//263 183//263
f 185//264 95//264 94//264
f 185//265 184//265 95//265
f 186//266 94//266 96//266
f 186//267 185//267 94//267
f 187//268 96//268 97//268
f 187//269 186//269 96//269
f 188//270 97//270 98//270
f 188//271 187//271 97//271
f 171//272 188//272 98//272
f 148//273 149//273 184//273
f 189//274 184//274 185//274
f 189//275 148//275 184//275
f 190//276 185//276 186//276
f 190//277 189//277 185//277
f 191//278 186//278 187//278
f 191//279 190//279 186//279
f 192//280 187//280 188//280
f 192//281 191//281 187//281
f 193//282 188//282 171//282
f 193//283 192//283 188//283
f 163//284 193//284 171//284
f 132//285 148//285 189//285
f 194//286 189//286 190//286
f 194//287 132//287 189//287
f 195//288 190//288 191//288
f 195//289 194//289 190//289
f 196//290 191//290 192//290
f 196//291 195//291 191//291
f 197//292 192//292 193//292
f 197//293 196//293 192//293
f 198//294 193//294 163//294
f 198//295 197//295 193//295
f 165//296 198//296 163//296
f 117//297 132//297 194//297
f 182//298 194//298 195//298
f 182//299 117//299 194//299
f 181//300 195//300 196//300
f 181//301 182//301 195//301
f 180//302 196//302 197//302
f 180//303 181//303 196//303
f 179//304 197//304 198//304
f 179//305 180//305 197//305
f 178//306 198//306 165//306
f 178//307 179//307 198//307
f 146//308 178//308 165//308
f 199//1 200//1 201//1
f 202//309 201//309 200//309
f 203//1 199//1 201//1
f 204//1 203//1 201//1
f 205//310 204//310 201//310
f 202//311 205//311 201//311
f 206//1 207//1 200//1
f 208//312 200//312 207//312
f 199//1 206//1 200//1
f 209//313 202//313 200//313
f 208//314 209//314 200//314
f 210//1 211//1 207//1
f 212//315 207//315 211//315
f 206//1 210//1 207//1
f 213//316 208//316 207//316
f 212//317 213//317 207//317
f 214//318 211//318 210//318
f 215//319 211//319 214//319
f 216//320 211//320 215//320
f 212//321 211//321 216//321
f 217//322 210//322 206//322
f 214//318 210//318 217//318
f 218//323 206//323 199//323
f 217//324 206//324 218//324
f 219//325 199//325 203//325
f 218//323 199//323 219//323
f 204//1 220//1 203//1
f 221//28 203//28 220//28
f 219//325 203//325 221//325
f 222//1 223//1 220//1
f 224//326 220//326 223//326
f 204//1 222//1 220//1
f 224//28 221//28 220//28
f 225//1 226//1 223//1
f 227//327 223//327 226//327
f 222//1 225//1 223//1
f 227//326 224//326 223//326
f 228//328 226//328 225//328
f 228//329 227//329 226//329
f 229//330 225//330 222//330
f 230//331 225//331 229//331
f 230//328 228//328 225//328
f 231//332 222//332 204//332
f 232//333 229//333 222//333
f 233//334 232//334 222//334
f 231//335 233//335 222//335
f 234//336 231//336 204//336
f 205//337 234//337 204//337
f 235//338 236//338 237//338
f 238//339 237//339 236//339
f 239//340 235//340 237//340
f 240//341 239//341 237//341
f 241//342 240//342 237//342
f 241//343 237//343 238//343
f 235//344 242//344 236//344
f 243//345 236//345 242//345
f 238//346 236//346 243//346
f 244//347 245//347 242//347
f 243//348 242//348 245//348
f 235//349 244//349 242//349
f 244//350 246//350 245//350
f 247//351 245//351 246//351
f 243//352 245//352 247//352
f 230//353 229//353 246//353
f 247//354 246//354 229//354
f 244//355 230//355 246//355
f 248//356 229//356 232//356
f 247//357 229//357 248//357
f 248//358 232//358 233//358
f 249//359 233//359 231//359
f 249//360 248//360 233//360
f 249//361 231//361 234//361
f 250//362 234//362 205//362
f 249//363 234//363 250//363
f 251//364 205//364 202//364
f 250//365 205//365 251//365
f 252//366 202//366 209//366
f 251//367 202//367 252//367
f 61//64 221//64 224//64
f 62//64 219//64 221//64
f 61//64 62//64 221//64
f 59//64 224//64 227//64
f 60//64 61//64 224//64
f 59//64 60//64 224//64
f 244//64 227//64 228//64
f 235//64 227//64 244//64
f 58//64 227//64 235//64
f 58//64 59//64 227//64
f 244//64 228//64 230//64
f 56//64 235//64 239//64
f 57//64 58//64 235//64
f 56//64 57//64 235//64
f 54//64 239//64 253//64
f 240//368 253//368 239//368
f 56//64 239//64 54//64
f 215//64 218//64 219//64
f 64//64 215//64 219//64
f 63//369 64//369 219//369
f 62//64 63//64 219//64
f 214//64 217//64 218//64
f 215//64 214//64 218//64
f 65//64 253//64 215//64
f 254//370 215//370 253//370
f 64//64 65//64 215//64
f 255//371 216//371 215//371
f 256//372 255//372 215//372
f 254//373 256//373 215//373
f 55//64 54//64 253//64
f 65//64 55//64 253//64
f 257//374 254//374 253//374
f 240//375 257//375 253//375
f 258//376 216//376 255//376
f 259//377 212//377 216//377
f 259//378 216//378 258//378
f 258//379 255//379 256//379
f 260//380 256//380 254//380
f 258//381 256//381 260//381
f 260//382 254//382 257//382
f 261//383 257//383 240//383
f 260//384 257//384 261//384
f 261//385 240//385 241//385
f 262//386 209//386 208//386
f 252//387 209//387 262//387
f 262//388 208//388 213//388
f 259//389 213//389 212//389
f 262//390 213//390 259//390
f 260//53 247//53 248//53
f 258//53 260//53 248//53
f 249//53 258//53 248//53
f 261//53 243//53 247//53
f 260//53 261//53 247//53
f 241//391 238//391 243//391
f 261//392 241//392 243//392
f 249//53 259//53 258//53
f 250//53 262//53 259//53
f 249//53 250//53 259//53
f 251//53 252//53 262//53
f 250//53 251//53 262//53
