# Blender v3.3.1 OBJ File: 'mobile-kitchen-counter.blend'
# www.blender.org
mtllib SwingDoorLeft_door.mtl
o door.001_o100_IndexedFaceSet
v 0.577000 -1.798000 0.924541
v 0.577000 -1.202000 0.148541
v 0.577000 -1.798000 0.148541
v 0.592000 -1.798000 0.148541
v 0.592000 -1.798000 0.924541
v 0.577000 -1.202000 0.924541
v 0.592000 -1.202000 0.148541
v 0.592000 -1.202000 0.924541
v 0.595000 -1.795000 0.151541
v 0.595000 -1.205000 0.151541
v 0.595000 -1.205000 0.921541
v 0.594701 -1.203690 0.150236
v 0.595000 -1.795000 0.921541
v 0.594701 -1.203690 0.922848
v 0.594701 -1.796310 0.150234
v 0.594701 -1.796310 0.922846
v 0.593731 -1.202550 0.149091
v 0.593731 -1.797450 0.149091
v 0.593731 -1.202550 0.923991
v 0.593731 -1.797450 0.923991
vn -1.0000 -0.0000 -0.0000
vn 0.0000 0.0000 -1.0000
vn 0.0000 -1.0000 -0.0000
vn 0.0000 1.0000 0.0000
vn 0.0000 -0.0000 1.0000
vn 1.0000 0.0000 0.0000
vn 0.9749 0.2226 0.0000
vn 0.9748 0.0000 0.2230
vn 0.9749 0.2225 0.0000
vn 0.9748 0.0000 -0.2230
vn 0.9747 0.0000 -0.2233
vn 0.9749 -0.2225 -0.0000
vn 0.9747 -0.0000 0.2233
vn 0.3026 0.0000 -0.9531
vn 0.3029 -0.9530 -0.0000
vn 0.3027 0.0000 -0.9531
vn 0.3028 0.9530 0.0000
vn 0.3028 -0.0000 0.9530
vn 0.3027 -0.0000 0.9531
vn 0.3028 -0.9530 -0.0000
vn 0.7625 -0.0000 0.6470
vn 0.7616 0.6481 0.0000
vn 0.7631 -0.0000 0.6463
vn 0.7616 0.6480 0.0000
vn 0.7616 -0.6480 -0.0000
vn 0.7615 -0.6481 -0.0000
vn 0.7626 0.0000 -0.6469
vn 0.7631 0.0000 -0.6463
usemtl o100
s off
f 1//1 2//1 3//1
f 4//2 3//2 2//2
f 5//3 1//3 3//3
f 5//3 3//3 4//3
f 1//1 6//1 2//1
f 7//4 2//4 6//4
f 7//2 4//2 2//2
f 8//5 6//5 1//5
f 8//4 7//4 6//4
f 5//5 8//5 1//5
f 9//6 10//6 11//6
f 12//7 11//7 10//7
f 13//6 9//6 11//6
f 14//8 13//8 11//8
f 12//9 14//9 11//9
f 15//10 10//10 9//10
f 12//11 10//11 15//11
f 16//12 9//12 13//12
f 15//12 9//12 16//12
f 16//13 13//13 14//13
f 17//14 4//14 7//14
f 18//15 5//15 4//15
f 17//16 18//16 4//16
f 19//17 7//17 8//17
f 17//17 7//17 19//17
f 20//18 8//18 5//18
f 20//19 19//19 8//19
f 18//20 20//20 5//20
f 16//21 14//21 19//21
f 17//22 19//22 14//22
f 20//23 16//23 19//23
f 17//24 14//24 12//24
f 15//25 16//25 20//25
f 18//26 15//26 20//26
f 12//27 15//27 18//27
f 17//28 12//28 18//28
