# Blender v3.3.1 OBJ File: 'mobile-kitchen-counter.blend'
# www.blender.org
mtllib SwingDoorRight_door.mtl
o door.002_o102_IndexedFaceSet
v 0.577000 -0.598000 0.148541
v 0.577000 -0.598000 0.664541
v 0.577000 -0.002000 0.664542
v 0.592000 -0.002000 0.664542
v 0.577000 -0.002000 0.148542
v 0.592000 -0.002000 0.148542
v 0.592000 -0.598000 0.664541
v 0.592000 -0.598000 0.148541
v 0.595000 -0.005000 0.151542
v 0.595000 -0.595000 0.661541
v 0.595000 -0.595000 0.151541
v 0.594701 -0.596307 0.662846
v 0.594701 -0.596305 0.150235
v 0.595000 -0.005000 0.661542
v 0.594701 -0.003695 0.662849
v 0.594701 -0.003693 0.150237
v 0.593731 -0.597450 0.663991
v 0.593731 -0.002550 0.663992
v 0.593731 -0.597450 0.149091
v 0.593731 -0.002550 0.149091
vn -1.0000 -0.0000 -0.0000
vn 0.0000 -0.0000 1.0000
vn 0.0000 1.0000 0.0000
vn 0.0000 -1.0000 -0.0000
vn 0.0000 0.0000 -1.0000
vn 1.0000 0.0000 0.0000
vn 0.9748 -0.2231 -0.0000
vn 0.9748 0.0000 -0.2231
vn 0.9747 -0.2234 -0.0000
vn 0.9748 0.0000 0.2230
vn 0.9747 -0.0000 0.2233
vn 0.9748 0.2231 0.0000
vn 0.9747 0.2234 0.0000
vn 0.9747 0.0000 -0.2233
vn 0.3029 -0.0000 0.9530
vn 0.3026 0.9531 0.0000
vn 0.3027 -0.0000 0.9531
vn 0.3028 -0.9531 -0.0000
vn 0.3026 0.0000 -0.9531
vn 0.3028 0.0000 -0.9531
vn 0.3027 0.9531 0.0000
vn 0.7626 0.0000 -0.6469
vn 0.7631 -0.6463 -0.0000
vn 0.7631 0.0000 -0.6463
vn 0.7624 -0.6470 -0.0000
vn 0.7626 0.6469 0.0000
vn 0.7630 0.6464 0.0000
vn 0.7625 -0.0000 0.6470
vn 0.7631 0.0000 0.6463
usemtl o102
s off
f 1//1 2//1 3//1
f 4//2 3//2 2//2
f 5//1 1//1 3//1
f 6//3 5//3 3//3
f 6//3 3//3 4//3
f 7//4 2//4 1//4
f 7//2 4//2 2//2
f 8//5 1//5 5//5
f 8//4 7//4 1//4
f 6//5 8//5 5//5
f 9//6 10//6 11//6
f 12//7 11//7 10//7
f 13//8 9//8 11//8
f 12//9 13//9 11//9
f 9//6 14//6 10//6
f 15//10 10//10 14//10
f 12//11 10//11 15//11
f 16//12 14//12 9//12
f 15//13 14//13 16//13
f 16//14 9//14 13//14
f 17//15 4//15 7//15
f 18//16 6//16 4//16
f 17//17 18//17 4//17
f 19//18 7//18 8//18
f 17//18 7//18 19//18
f 20//19 8//19 6//19
f 20//20 19//20 8//20
f 18//21 20//21 6//21
f 16//22 13//22 19//22
f 17//23 19//23 13//23
f 20//24 16//24 19//24
f 17//25 13//25 12//25
f 15//26 16//26 20//26
f 18//27 15//27 20//27
f 12//28 15//28 18//28
f 17//29 12//29 18//29
