# Blender v2.78 (sub 0) OBJ File: ''
# www.blender.org
mtllib Handle100.mtl
o Shape_IndexedFaceSet.001_Shape_IndexedFaceSet.131
v -0.054137 0.439631 0.007872
v -0.009046 0.437580 -0.008525
v -0.009046 0.437580 0.007872
v 0.009401 0.437580 0.007872
v 0.009401 0.456023 0.007872
v 0.009401 0.437580 -0.008525
v -0.054137 0.439631 -0.008525
v -0.054137 0.456023 -0.008525
v 0.009401 0.456023 -0.008525
v -0.054137 0.456023 0.007872
v -0.009046 0.437536 -0.008525
v -0.009046 -0.437599 0.007872
v -0.009046 0.437536 0.007872
v -0.009046 -0.437599 -0.008525
v 0.009401 -0.437599 -0.008525
v 0.009401 0.437536 0.007872
v 0.009401 -0.437599 0.007872
v 0.009401 0.437536 -0.008525
v -0.009046 -0.437601 0.007872
v 0.009401 -0.437601 -0.008525
v -0.009046 -0.437601 -0.008525
v 0.009401 -0.437601 0.007872
v 0.009401 -0.456044 0.007872
v -0.054137 -0.439652 0.007872
v -0.054137 -0.439652 -0.008525
v -0.054137 -0.456044 -0.008525
v 0.009401 -0.456044 -0.008525
v -0.054137 -0.456044 0.007872
vn -1.0000 0.0000 0.0000
vn 0.0000 -1.0000 0.0000
vn 0.0000 0.0000 -1.0000
vn 1.0000 -0.0000 0.0000
vn 0.0000 -0.0000 1.0000
vn 0.0000 1.0000 0.0000
vn -0.0454 -0.9990 0.0000
vn -0.0454 0.9990 0.0000
usemtl Shape.131
s 1
f 11//1 12//1 13//1
f 14//2 15//2 12//2
f 15//3 14//3 11//3
f 14//1 12//1 11//1
f 15//4 16//4 17//4
f 12//2 15//2 17//2
f 16//5 12//5 17//5
f 16//4 15//4 18//4
f 11//6 16//6 18//6
f 15//3 11//3 18//3
f 12//5 16//5 13//5
f 16//6 11//6 13//6
usemtl Shape.132
f 1//7 2//7 3//7
f 4//5 5//5 1//5
f 5//4 4//4 6//4
f 7//1 1//1 8//1
f 6//3 7//3 8//3
f 5//4 6//4 9//4
f 8//6 5//6 9//6
f 6//3 8//3 9//3
f 1//5 5//5 10//5
f 5//6 8//6 10//6
f 8//1 1//1 10//1
f 1//7 7//7 2//7
f 7//3 6//3 2//3
f 6//2 4//2 2//2
f 4//5 1//5 3//5
f 2//2 4//2 3//2
usemtl Shape.130
f 19//6 20//6 21//6
f 20//4 22//4 23//4
f 23//5 22//5 24//5
f 25//3 20//3 26//3
f 24//1 25//1 26//1
f 20//4 23//4 27//4
f 26//3 20//3 27//3
f 23//2 26//2 27//2
f 23//5 24//5 28//5
f 26//2 23//2 28//2
f 24//1 26//1 28//1
f 22//6 20//6 19//6
f 25//8 24//8 19//8
f 24//5 22//5 19//5
f 20//3 25//3 21//3
f 25//8 19//8 21//8
