# Blender v2.78 (sub 0) OBJ File: ''
# www.blender.org
mtllib Handle80.mtl
o Shape_IndexedFaceSet.001_Shape_IndexedFaceSet.147
v -0.007917 0.336431 -0.007792
v -0.007920 -0.336464 0.007953
v -0.007917 0.336431 0.007953
v -0.007920 -0.336464 -0.007792
v 0.007822 -0.336464 -0.007792
v 0.007825 0.336431 0.007953
v 0.007822 -0.336464 0.007953
v 0.007825 0.336431 -0.007792
vn -1.0000 0.0000 0.0000
vn 0.0000 -1.0000 0.0000
vn 0.0000 0.0000 -1.0000
vn 1.0000 -0.0000 0.0000
vn 0.0000 -0.0000 1.0000
vn 0.0000 1.0000 0.0000
usemtl Shape.997
s 1
f 1//1 2//1 3//1
f 4//2 5//2 2//2
f 5//3 4//3 1//3
f 4//1 2//1 1//1
f 5//4 6//4 7//4
f 2//2 5//2 7//2
f 6//5 2//5 7//5
f 6//4 5//4 8//4
f 1//6 6//6 8//6
f 5//3 1//3 8//3
f 2//5 6//5 3//5
f 6//6 1//6 3//6
o Shape_IndexedFaceSet_Shape_IndexedFaceSet.146
v -0.007920 -0.336464 0.007953
v 0.007825 -0.336464 -0.007792
v -0.007920 -0.336464 -0.007792
v 0.007825 -0.336464 0.007953
v 0.007825 -0.352790 0.007953
v -0.053404 -0.337049 0.007953
v -0.053404 -0.352792 -0.007792
v 0.007825 -0.352790 -0.007792
v -0.053404 -0.337049 -0.007792
v -0.053404 -0.352792 0.007953
vn -0.0064 1.0000 0.0000
vn 0.0000 1.0000 0.0000
vn 1.0000 0.0000 0.0000
vn 0.0000 -0.0000 1.0000
vn 0.0000 0.0000 -1.0000
vn 0.0000 -1.0000 0.0000
vn -1.0000 -0.0000 0.0000
vn -0.0129 0.9999 0.0000
usemtl Shape.999
s 1
f 9//7 10//8 11//7
f 10//9 12//9 13//9
f 13//10 12//10 14//10
f 15//11 10//11 16//11
f 10//9 13//9 16//9
f 13//12 15//12 16//12
f 10//11 15//11 17//11
f 15//13 14//13 17//13
f 15//12 13//12 18//12
f 14//13 15//13 18//13
f 13//10 14//10 18//10
f 12//8 10//8 9//7
f 14//10 12//10 9//10
f 17//14 14//14 9//7
f 17//14 9//7 11//7
f 10//11 17//11 11//11
o Shape_IndexedFaceSet.002_Shape_IndexedFaceSet.148
v 0.007825 0.336464 0.007953
v -0.053404 0.337049 0.007953
v -0.007920 0.336464 0.007953
v 0.007825 0.352790 0.007953
v -0.010839 0.352792 -0.006625
v -0.053404 0.352792 0.007953
v -0.053404 0.352792 -0.007792
v -0.007920 0.336464 -0.007792
v -0.053404 0.337049 -0.007792
v 0.007825 0.352790 -0.007792
v 0.007825 0.336464 -0.007792
vn -0.0000 -0.0000 1.0000
vn 0.0001 1.0000 0.0000
vn 0.0000 1.0000 0.0000
vn -1.0000 0.0000 0.0000
vn -0.0000 1.0000 -0.0009
vn -0.0064 -1.0000 0.0000
vn -0.0129 -0.9999 0.0000
vn 0.0000 0.0000 -1.0000
vn 0.0000 1.0000 -0.0008
vn 1.0000 0.0000 0.0000
vn 0.0000 -1.0000 0.0000
usemtl Shape.998
s 1
f 19//15 20//15 21//15
f 22//15 20//15 19//15
f 22//16 23//17 24//17
f 20//15 22//15 24//15
f 25//18 20//18 24//18
f 23//17 25//19 24//17
f 26//20 20//21 27//21
f 25//22 26//22 27//22
f 20//18 25//18 27//18
f 23//17 22//16 28//23
f 26//22 25//22 28//22
f 25//19 23//17 28//23
f 22//24 19//24 28//24
f 28//24 19//24 29//24
f 19//25 26//20 29//25
f 26//22 28//22 29//22
f 20//21 26//20 21//20
f 26//20 19//25 21//20
