# Blender v2.78 (sub 0) OBJ File: ''
# www.blender.org
mtllib Handle100.mtl
o Shape_IndexedFaceSet.001_Shape_IndexedFaceSet.153
v 0.007998 -0.438872 -0.007817
v 0.007999 -0.261455 0.008015
v 0.007998 -0.438872 0.008015
v -0.007199 -0.438872 -0.007817
v -0.007833 -0.438786 -0.007817
v 0.007999 0.438851 -0.007817
v -0.007833 0.438851 0.008015
v -0.007833 -0.438786 0.008015
v -0.007833 0.438851 -0.007817
v 0.007999 0.438851 0.008015
vn 1.0000 -0.0000 -0.0000
vn 0.0000 0.0000 -1.0000
vn -1.0000 0.0000 0.0000
vn -0.1344 -0.9909 0.0000
vn 0.0000 -0.0000 1.0000
vn 0.0000 1.0000 0.0000
vn -0.0054 -1.0000 0.0052
vn -0.0027 -1.0000 0.0026
vn -0.0028 -1.0000 0.0027
vn 0.0000 -1.0000 0.0000
usemtl Shape.1001
s 1
f 1//1 2//1 3//1
f 4//2 5//2 6//2
f 7//3 5//3 8//3
f 5//4 4//4 8//4
f 2//5 7//5 8//5
f 4//2 6//2 1//2
f 6//1 2//1 1//1
f 6//2 5//2 9//2
f 7//6 6//6 9//6
f 5//3 7//3 9//3
f 2//1 6//1 10//1
f 7//5 2//5 10//5
f 6//6 7//6 10//6
f 2//5 8//5 3//5
f 8//7 4//8 3//9
f 4//8 1//10 3//9
o Shape_IndexedFaceSet_Shape_IndexedFaceSet.152
v -0.053429 -0.439506 -0.007817
v -0.007839 -0.438872 0.008015
v -0.007839 -0.438872 -0.007817
v 0.007993 -0.438872 0.008015
v 0.007993 -0.455338 0.008015
v 0.007993 -0.438872 -0.007817
v 0.007993 -0.455338 -0.007817
v -0.053429 -0.455338 0.008015
v -0.053429 -0.439506 0.008015
v -0.053429 -0.455338 -0.007817
vn -0.0139 0.9999 0.0000
vn -0.0070 1.0000 0.0000
vn 1.0000 0.0000 0.0000
vn 0.0000 0.0000 -1.0000
vn 0.0000 -1.0000 0.0000
vn 0.0000 -0.0000 1.0000
vn -1.0000 0.0000 0.0000
vn 0.0000 1.0000 0.0000
usemtl Shape.1000
s 1
f 11//11 12//12 13//12
f 14//13 15//13 16//13
f 11//14 16//14 17//14
f 16//13 15//13 17//13
f 17//15 15//15 18//15
f 15//16 14//16 18//16
f 11//17 18//17 19//17
f 18//16 14//16 19//16
f 11//14 17//14 20//14
f 17//15 18//15 20//15
f 18//17 11//17 20//17
f 14//18 16//18 12//12
f 11//11 19//11 12//12
f 19//16 14//16 12//16
f 16//14 11//14 13//14
f 12//12 16//18 13//12
o Shape_IndexedFaceSet.002_Shape_IndexedFaceSet.154
v 0.007993 0.438851 -0.007817
v -0.007839 0.438851 0.008015
v -0.007839 0.438851 -0.007817
v 0.007993 0.455317 0.008015
v 0.007993 0.438851 0.008015
v 0.007993 0.455317 -0.007817
v -0.053429 0.455317 0.008015
v -0.053429 0.439485 -0.007817
v -0.053429 0.455317 -0.007817
v -0.053429 0.439485 0.008015
vn 0.0000 -1.0000 0.0000
vn -0.0070 -1.0000 0.0000
vn 1.0000 0.0000 0.0000
vn 0.0000 -0.0000 1.0000
vn 0.0000 1.0000 0.0000
vn 0.0000 0.0000 -1.0000
vn -1.0000 0.0000 0.0000
vn -0.0139 -0.9999 0.0000
usemtl Shape.1002
s 1
f 21//19 22//20 23//20
f 24//21 25//21 26//21
f 25//22 24//22 27//22
f 24//23 26//23 27//23
f 26//21 25//21 21//21
f 28//24 26//24 21//24
f 26//24 28//24 29//24
f 28//25 27//25 29//25
f 27//23 26//23 29//23
f 27//25 28//25 30//25
f 25//22 27//22 30//22
f 21//19 25//19 22//20
f 30//26 28//26 22//20
f 25//22 30//22 22//22
f 28//24 21//24 23//24
f 22//20 28//26 23//20
