# Blender v2.78 (sub 0) OBJ File: ''
# www.blender.org
mtllib Handle60.mtl
o Shape_IndexedFaceSet_Shape_IndexedFaceSet.010
v -0.007852 -0.236884 0.007586
v 0.008022 -0.236884 -0.007765
v -0.007852 -0.236884 -0.007765
v 0.008022 -0.236884 0.007586
v 0.008022 -0.252765 0.007586
v -0.053371 -0.237414 -0.007765
v 0.008022 -0.252765 -0.007765
v -0.053371 -0.252765 0.007586
v -0.053371 -0.237414 0.007586
v -0.053371 -0.252765 -0.007765
vn -0.0058 1.0000 0.0000
vn 0.0000 1.0000 0.0000
vn 1.0000 -0.0000 0.0000
vn 0.0000 0.0000 -1.0000
vn 0.0000 -0.0000 1.0000
vn 0.0000 -1.0000 0.0000
vn -1.0000 0.0000 0.0000
vn -0.0116 0.9999 0.0000
usemtl Shape.1012
s 1
f 1//1 2//2 3//1
f 2//3 4//3 5//3
f 6//4 2//4 7//4
f 2//3 5//3 7//3
f 5//5 4//5 8//5
f 7//6 5//6 8//6
f 8//5 4//5 9//5
f 6//7 8//7 9//7
f 6//4 7//4 10//4
f 8//7 6//7 10//7
f 7//6 8//6 10//6
f 4//2 2//2 1//1
f 9//5 4//5 1//5
f 6//8 9//8 1//1
f 2//4 6//4 3//4
f 6//8 1//1 3//1
o Shape_IndexedFaceSet.002_Shape_IndexedFaceSet.010
v 0.008022 0.236884 -0.007765
v -0.007852 0.236884 0.007586
v -0.007852 0.236884 -0.007765
v 0.008022 0.252765 0.007586
v 0.008022 0.236884 0.007586
v 0.008022 0.252765 -0.007765
v -0.053371 0.252765 0.007586
v -0.053371 0.237414 -0.007765
v -0.053371 0.252765 -0.007765
v -0.053371 0.237414 0.007586
vn 0.0000 -1.0000 0.0000
vn -0.0058 -1.0000 0.0000
vn 1.0000 0.0000 0.0000
vn 0.0000 -0.0000 1.0000
vn 0.0000 1.0000 0.0000
vn 0.0000 0.0000 -1.0000
vn -1.0000 -0.0000 0.0000
vn -0.0116 -0.9999 0.0000
usemtl Shape.1011
s 1
f 11//9 12//10 13//10
f 14//11 15//11 16//11
f 15//12 14//12 17//12
f 14//13 16//13 17//13
f 16//11 15//11 11//11
f 18//14 16//14 11//14
f 16//14 18//14 19//14
f 18//15 17//15 19//15
f 17//13 16//13 19//13
f 17//15 18//15 20//15
f 15//12 17//12 20//12
f 11//9 15//9 12//10
f 20//16 18//16 12//10
f 15//12 20//12 12//12
f 18//14 11//14 13//14
f 12//10 18//16 13//10
o Shape_IndexedFaceSet.001_Shape_IndexedFaceSet.010
v 0.008028 0.236884 -0.007765
v -0.007851 0.236884 0.007586
v 0.008028 0.236884 0.007586
v -0.007853 -0.236884 -0.007765
v 0.008028 -0.236884 -0.007765
v -0.007853 -0.236884 0.007586
v 0.008028 -0.236884 0.007586
v -0.007851 0.236884 -0.007765
vn 0.0000 1.0000 0.0000
vn 0.0000 -1.0000 0.0000
vn -1.0000 0.0000 0.0000
vn 0.0000 -0.0000 1.0000
vn 1.0000 -0.0000 0.0000
vn 0.0000 0.0000 -1.0000
usemtl Shape.1013
s 1
f 21//17 22//17 23//17
f 24//18 25//18 26//18
f 22//19 24//19 26//19
f 22//20 26//20 27//20
f 26//18 25//18 27//18
f 27//21 25//21 21//21
f 25//22 24//22 21//22
f 22//17 21//17 28//17
f 24//19 22//19 28//19
f 21//22 24//22 28//22
f 22//20 27//20 23//20
f 27//21 21//21 23//21
