# Blender v2.78 (sub 0) OBJ File: ''
# www.blender.org
mtllib VHandle130.mtl
o Shape_IndexedFaceSet.001_Shape_IndexedFaceSet.005
v -0.007581 -0.008272 -0.599747
v 0.007854 0.008709 -0.599747
v -0.007581 0.008709 -0.599747
v -0.053878 -0.008272 -0.618272
v -0.053878 -0.008272 -0.601292
v -0.053878 0.008709 -0.618272
v 0.007854 -0.008272 -0.618272
v 0.007854 0.008709 -0.618272
v 0.007854 -0.008272 -0.599747
v -0.053878 0.008709 -0.601292
v -0.007581 -0.008272 0.599747
v 0.007854 0.008709 0.599747
v 0.007854 -0.008272 0.599747
v -0.053878 -0.008272 0.601292
v -0.007581 0.008709 0.599747
v 0.007854 0.008709 0.618272
v -0.053878 0.008709 0.618272
v 0.007854 -0.008272 0.618272
v -0.053878 -0.008272 0.618272
v -0.053878 0.008709 0.601292
v -0.007569 -0.008272 0.599688
v 0.007864 -0.008272 -0.599688
v 0.007864 -0.008272 0.599688
v -0.007569 -0.008272 -0.599688
v -0.007569 0.008709 -0.599688
v 0.007864 0.008709 0.599688
v 0.007864 0.008709 -0.599688
v -0.007569 0.008709 0.599688
vn 0.0000 -1.0000 -0.0000
vn 0.0000 0.0000 -1.0000
vn -1.0000 0.0000 0.0000
vn 0.0000 1.0000 0.0000
vn 1.0000 0.0000 0.0000
vn 0.0000 0.0000 1.0000
vn -0.0334 0.0000 0.9994
vn -0.0334 0.0000 -0.9994
usemtl Shape.017
s 1
f 21//1 22//1 23//1
f 24//2 25//2 22//2
f 25//3 24//3 21//3
f 24//1 22//1 21//1
f 25//4 26//4 27//4
f 22//2 25//2 27//2
f 26//5 22//5 27//5
f 26//4 25//4 28//4
f 21//6 26//6 28//6
f 25//3 21//3 28//3
f 22//5 26//5 23//5
f 26//6 21//6 23//6
usemtl Shape.015
f 1//6 2//6 3//6
f 4//3 5//3 6//3
f 5//1 4//1 7//1
f 4//2 6//2 7//2
f 6//4 2//4 8//4
f 2//5 7//5 8//5
f 7//2 6//2 8//2
f 7//5 2//5 9//5
f 5//1 7//1 9//1
f 6//3 5//3 10//3
f 2//4 6//4 10//4
f 9//6 2//6 1//6
f 5//1 9//1 1//1
f 10//7 5//7 1//7
f 10//7 1//7 3//7
f 2//4 10//4 3//4
usemtl Shape.016
f 11//2 12//2 13//2
f 11//8 14//8 15//8
f 16//4 15//4 17//4
f 14//1 11//1 18//1
f 16//6 17//6 18//6
f 17//3 14//3 19//3
f 14//1 18//1 19//1
f 18//6 17//6 19//6
f 15//8 14//8 20//8
f 17//4 15//4 20//4
f 14//3 17//3 20//3
f 11//2 15//2 12//2
f 15//4 16//4 12//4
f 16//5 18//5 12//5
f 12//5 18//5 13//5
f 18//1 11//1 13//1
