# Blender v2.78 (sub 0) OBJ File: ''
# www.blender.org
mtllib VHandle90.mtl
o Shape_IndexedFaceSet.002_Shape_IndexedFaceSet.012
v -0.008096 0.007811 -0.421667
v 0.008056 -0.007715 -0.421667
v 0.008056 0.007811 -0.421667
v -0.053423 0.007811 -0.422287
v -0.008096 -0.007715 -0.421667
v 0.008056 -0.007715 -0.437810
v -0.053423 -0.007715 -0.437810
v 0.008056 0.007811 -0.437810
v -0.053423 0.007811 -0.437810
v -0.053423 -0.007715 -0.422287
vn -0.0000 0.0000 1.0000
vn -0.0137 0.0000 0.9999
vn 0.0000 -1.0000 -0.0000
vn -0.0000 1.0000 0.0000
vn 0.0000 0.0000 -1.0000
vn -1.0000 0.0000 0.0000
vn 1.0000 0.0000 0.0000
usemtl Shape.1019
s 1
f 1//1 2//1 3//1
f 1//1 4//2 5//2
f 6//3 5//3 7//3
f 4//4 1//4 8//4
f 6//5 7//5 8//5
f 7//6 4//6 9//6
f 4//4 8//4 9//4
f 8//5 7//5 9//5
f 5//2 4//2 10//2
f 7//3 5//3 10//3
f 4//6 7//6 10//6
f 1//1 5//2 2//1
f 5//3 6//3 2//3
f 6//7 8//7 2//7
f 2//7 8//7 3//7
f 8//4 1//4 3//4
o Shape_IndexedFaceSet_Shape_IndexedFaceSet.012
v -0.008096 -0.007715 0.421667
v -0.053423 0.007811 0.422287
v -0.008096 0.007811 0.421667
v -0.053423 0.007811 0.437810
v -0.053423 -0.007715 0.437810
v 0.008056 0.007811 0.437810
v 0.008056 -0.007715 0.421667
v 0.008056 -0.007715 0.437810
v 0.008056 0.007811 0.421667
v -0.053423 -0.007715 0.422287
vn -0.0068 0.0000 -1.0000
vn -0.0137 0.0000 -0.9999
vn -1.0000 0.0000 0.0000
vn 0.0000 1.0000 0.0000
vn 0.0000 0.0000 1.0000
vn -0.0000 -1.0000 -0.0000
vn 1.0000 0.0000 0.0000
vn 0.0000 0.0000 -1.0000
usemtl Shape.1021
s 1
f 11//8 12//9 13//8
f 14//10 12//10 15//10
f 12//11 14//11 16//11
f 14//12 15//12 16//12
f 15//13 17//13 18//13
f 17//14 16//14 18//14
f 16//12 15//12 18//12
f 16//14 17//14 19//14
f 12//11 16//11 19//11
f 15//10 12//10 20//10
f 17//13 15//13 20//13
f 19//15 17//15 11//8
f 17//13 20//13 11//13
f 20//9 12//9 11//8
f 12//11 19//11 13//11
f 19//15 11//8 13//8
o Shape_IndexedFaceSet.001_Shape_IndexedFaceSet.012
v 0.008056 0.007811 -0.421664
v -0.008087 -0.007715 -0.421664
v -0.008087 0.007809 -0.421664
v 0.007435 -0.007715 -0.421664
v 0.008056 -0.007713 -0.421664
v 0.008056 -0.007713 0.421664
v -0.008087 -0.007715 0.421664
v -0.008087 0.007809 0.421664
v 0.008056 0.007811 0.421664
vn 0.0000 0.0000 -1.0000
vn -0.0000 -1.0000 -0.0000
vn 0.0032 -1.0000 -0.0000
vn 0.0023 -1.0000 -0.0000
vn 1.0000 0.0000 0.0000
vn 0.0001 -1.0000 0.0000
vn -0.0000 0.0000 1.0000
vn -1.0000 0.0000 0.0000
vn -0.0001 1.0000 0.0000
usemtl Shape.1020
s 1
f 21//16 22//16 23//16
f 24//17 25//18 26//19
f 25//16 24//16 21//16
f 26//20 25//20 21//20
f 21//16 24//16 22//16
f 24//17 26//19 27//21
f 26//22 28//22 27//22
f 22//17 24//17 27//21
f 28//23 22//23 27//23
f 28//22 26//22 29//22
f 21//24 28//24 29//24
f 26//20 21//20 29//20
f 28//24 21//24 23//24
f 22//23 28//23 23//23
